<?xml version="1.0" encoding="UTF-8"?>
<svg width="400" height="400" viewBox="0 0 400 400" xmlns="http://www.w3.org/2000/svg">
  <rect width="400" height="400" fill="white"/>
  <path d="M 194.7,222.4 L 193.5,222.1 L 187.9,222.8 L 186.2,221.6 L 183.4,223.4 L 178.9,224.1 L 177.8,223.4 L 170.3,224.1 L 167.2,223.9 L 155.8,219.2 L 152.4,218.0 L 151.1,216.3 L 149.1,211.4 L 146.6,208.7 L 144.3,205.6 L 141.7,203.2 L 139.9,202.3 L 135.0,198.1 L 132.2,196.0 L 130.0,197.4 L 129.5,197.4 L 128.9,196.0 L 124.6,195.0 L 121.7,192.8 L 119.1,192.0 L 117.5,192.0 L 115.8,190.0 L 112.0,188.9 L 109.1,187.3 L 105.7,187.5 L 103.3,186.5 L 101.9,184.9 L 99.2,184.7 L 98.0,183.5 L 93.6,182.3 L 93.2,182.5 L 91.6,183.8 L 89.5,184.3 L 87.5,186.5 L 86.3,186.8 L 74.3,182.0 L 71.5,182.1 L 71.5,182.1 L 139.4,40.0 L 141.8,41.6 L 144.4,41.5 L 145.0,42.2 L 142.8,44.2 L 142.7,45.3 L 144.2,46.0 L 146.8,45.6 L 147.6,46.0 L 148.1,49.0 L 149.1,50.0 L 152.4,50.6 L 156.6,48.9 L 159.4,48.7 L 159.6,49.1 L 159.3,51.1 L 159.6,52.9 L 160.6,52.6 L 161.7,52.3 L 164.7,51.2 L 165.6,51.4 L 165.5,53.1 L 165.7,54.6 L 168.2,53.8 L 171.3,51.7 L 171.9,52.2 L 170.1,57.1 L 170.1,57.4 L 170.2,58.9 L 168.4,61.3 L 169.0,64.7 L 171.3,66.2 L 173.3,66.6 L 174.5,67.4 L 172.7,70.1 L 173.0,71.9 L 175.5,73.3 L 175.8,73.1 L 176.5,73.7 L 175.7,74.7 L 173.1,76.2 L 175.4,77.8 L 175.0,79.1 L 173.5,79.5 L 170.6,78.7 L 168.2,79.0 L 166.1,79.9 L 164.0,80.9 L 161.8,81.6 L 158.3,81.2 L 156.1,81.4 L 153.4,80.8 L 151.2,81.6 L 148.0,84.2 L 144.9,88.1 L 146.7,88.8 L 147.2,90.5 L 148.8,92.1 L 149.6,93.1 L 152.7,95.6 L 155.7,96.9 L 155.7,97.9 L 158.7,98.4 L 163.8,98.4 L 167.6,97.0 L 169.6,97.5 L 171.9,98.0 L 171.9,100.5 L 172.7,102.7 L 177.1,106.2 L 180.2,106.7 L 181.0,106.6 L 182.6,106.0 L 184.2,106.4 L 183.7,107.3 L 187.9,107.6 L 188.6,107.9 L 188.2,108.6 L 188.1,109.4 L 190.7,111.2 L 191.1,112.7 L 191.8,113.4 L 191.9,114.2 L 189.3,115.3 L 188.2,116.0 L 187.9,116.9 L 188.3,117.4 L 188.6,118.0 L 190.3,118.9 L 193.0,121.6 L 197.9,120.8 L 200.0,123.0 L 203.4,123.7 L 205.2,126.4 L 203.7,129.1 L 204.0,131.2 L 208.6,131.0 L 211.5,133.8 L 211.4,135.5 L 213.1,136.3 L 216.3,136.3 L 217.6,136.7 L 217.2,137.9 L 217.3,139.3 L 218.6,141.3 L 217.7,142.1 L 215.4,142.8 L 214.7,143.3 L 214.9,146.1 L 215.6,147.6 L 217.9,149.2 L 220.4,149.6 L 225.0,153.1 L 226.3,153.0 L 228.8,154.2 L 231.3,154.0 L 232.4,152.9 L 233.5,152.5 L 234.4,152.7 L 234.7,153.7 L 235.5,154.7 L 236.6,154.0 L 238.8,155.0 L 243.6,155.8 L 243.9,157.2 L 246.1,159.2 L 248.6,160.0 L 250.5,161.3 L 251.1,163.8 L 252.8,165.7 L 255.1,167.4 L 257.4,170.6 L 259.0,171.5 L 260.7,171.8 L 265.5,174.4 L 273.9,174.4 L 277.3,176.7 L 281.8,177.8 L 284.0,179.0 L 287.5,179.6 L 291.9,181.2 L 294.3,182.7 L 295.9,183.2 L 299.3,183.2 L 304.1,185.5 L 305.9,187.4 L 308.5,188.8 L 311.0,188.7 L 315.3,190.9 L 316.1,191.9 L 319.7,194.5 L 327.8,199.4 L 328.5,201.5 L 328.3,203.4 L 326.6,207.0 L 324.8,207.7 L 323.9,208.5 L 324.2,212.9 L 324.0,213.3 L 320.1,217.0 L 319.4,220.7 L 315.9,226.1 L 316.2,228.1 L 315.8,230.6 L 316.1,231.9 L 317.6,232.7 L 318.2,235.2 L 320.8,237.2 L 319.2,241.0 L 319.9,242.5 L 318.5,245.1 L 316.4,247.1 L 313.6,248.6 L 312.8,250.3 L 310.4,253.0 L 309.1,255.8 L 309.4,260.3 L 311.4,262.2 L 315.0,262.4 L 317.2,264.1 L 317.2,266.1 L 315.2,270.9 L 315.1,271.3 L 313.6,272.7 L 311.3,273.3 L 309.3,272.6 L 308.6,272.2 L 307.0,271.2 L 306.2,267.4 L 304.1,265.7 L 300.5,266.3 L 299.1,268.3 L 298.4,270.2 L 297.4,270.6 L 296.6,270.3 L 295.0,270.4 L 292.6,271.4 L 288.2,274.0 L 287.6,275.7 L 286.2,276.7 L 285.5,277.3 L 285.7,280.0 L 288.3,281.8 L 288.7,283.7 L 286.1,287.2 L 285.7,289.7 L 285.8,291.3 L 287.1,291.8 L 288.6,293.2 L 291.1,294.4 L 295.0,296.9 L 296.3,298.3 L 300.1,298.5 L 302.2,298.2 L 305.1,297.2 L 310.4,297.8 L 311.4,298.4 L 311.8,300.2 L 311.8,302.5 L 310.9,306.9 L 309.5,311.2 L 311.4,313.1 L 311.7,315.2 L 311.4,317.8 L 309.4,321.5 L 309.1,323.3 L 308.3,324.4 L 306.4,325.1 L 305.6,325.9 L 305.2,329.0 L 303.3,331.9 L 301.2,334.1 L 298.9,334.9 L 297.5,334.5 L 295.2,332.9 L 293.2,332.7 L 291.7,333.3 L 290.5,336.5 L 290.5,338.7 L 291.4,339.6 L 291.6,343.7 L 292.5,344.6 L 292.8,345.9 L 290.9,349.4 L 290.9,350.9 L 292.2,352.3 L 292.5,353.2 L 292.1,355.7 L 290.9,358.1 L 289.1,358.6 L 285.9,357.6 L 284.3,359.4 L 282.2,360.0 L 277.2,360.0 L 271.4,358.9 L 268.3,357.5 L 265.5,354.7 L 261.1,348.4 L 257.6,343.0 L 252.6,337.8 L 248.3,333.7 L 246.1,330.1 L 243.3,326.9 L 243.1,324.1 L 243.2,322.1 L 242.7,320.6 L 239.9,318.2 L 237.4,316.8 L 233.6,313.2 L 232.3,311.0 L 231.1,310.2 L 229.0,309.6 L 224.5,310.3 L 220.9,312.1 L 217.6,314.9 L 216.0,316.4 L 213.9,317.9 L 213.2,318.5 L 208.4,321.4 L 197.2,326.5 L 196.2,327.5 L 195.5,329.2 L 187.5,338.0 L 183.8,340.1 L 179.1,346.7 L 174.3,351.7 L 172.2,353.2 L 168.1,354.1 L 166.2,353.8 L 163.9,353.0 L 159.0,350.2 L 157.6,348.0 L 152.1,343.7 L 151.0,337.3 L 152.1,334.1 L 154.3,329.6 L 157.6,325.1 L 158.8,322.3 L 163.5,316.0 L 171.6,311.5 L 175.1,309.3 L 176.5,309.3 L 177.4,309.7 L 179.6,308.8 L 180.0,307.5 L 182.7,305.8 L 183.2,304.9 L 188.7,302.0 L 190.6,301.9 L 191.6,303.6 L 193.7,303.0 L 194.0,301.1 L 201.0,299.7 L 206.6,297.2 L 209.1,295.0 L 209.2,294.6 L 209.8,292.3 L 210.0,292.0 L 210.8,290.5 L 210.7,288.9 L 211.4,288.4 L 212.6,287.0 L 212.1,285.7 L 210.7,284.5 L 207.9,282.1 L 206.6,281.8 L 204.8,281.4 L 201.8,281.9 L 200.8,284.2 L 200.1,284.5 L 197.5,282.6 L 194.3,282.2 L 192.1,279.9 L 190.0,279.5 L 187.9,277.6 L 187.1,275.3 L 186.9,273.0 L 188.1,271.4 L 189.5,270.2 L 191.8,264.7 L 191.3,264.2 L 192.7,262.7 L 196.7,260.7 L 197.6,258.9 L 199.0,255.3 L 200.4,253.7 L 200.9,253.4 L 203.2,252.4 L 205.1,250.5 L 206.0,246.9 L 205.1,244.8 L 207.4,243.9 L 208.2,242.7 L 207.7,239.6 L 206.4,237.2 L 207.5,235.2 L 207.3,232.0 L 202.9,230.3 L 202.3,229.2 L 201.6,229.3 L 199.6,230.9 L 198.3,231.4 L 197.3,229.1 L 197.3,226.1 L 196.7,224.5 L 195.4,224.1 L 194.9,222.4 L 194.7,222.4" fill="none" stroke="black" stroke-width="2"/>
</svg>