<?xml version="1.0" encoding="UTF-8"?>
<svg width="400" height="400" viewBox="0 0 400 400" xmlns="http://www.w3.org/2000/svg">
  <rect width="400" height="400" fill="white"/>
  <path d="M 344.5,291.2 L 337.3,282.9 L 330.8,272.8 L 318.3,269.4 L 293.6,254.7 L 263.3,243.8 L 246.4,238.5 L 230.8,238.5 L 200.9,244.9 L 183.8,244.2 L 152.6,247.3 L 131.3,244.6 L 114.0,237.7 L 85.6,215.4 L 64.4,206.2 L 62.0,201.1 L 69.6,194.0 L 69.2,187.2 L 72.4,178.9 L 59.7,169.0 L 54.6,159.3 L 53.2,146.8 L 54.8,143.0 L 49.3,139.0 L 45.1,135.9 L 40.0,135.8 L 50.3,122.4 L 50.1,124.9 L 53.1,122.6 L 51.1,121.2 L 56.3,114.4 L 57.2,115.2 L 73.0,123.1 L 78.8,121.2 L 89.1,110.2 L 97.5,108.8 L 105.0,113.9 L 117.3,114.5 L 133.2,123.1 L 142.1,131.4 L 157.5,140.7 L 170.1,144.8 L 184.4,143.6 L 191.5,139.1 L 197.3,137.2 L 205.7,137.6 L 211.8,142.0 L 215.8,151.5 L 220.4,159.3 L 233.6,169.8 L 253.3,188.7 L 261.5,193.2 L 277.5,200.4 L 293.7,205.5 L 317.9,206.9 L 332.9,209.0 L 342.6,216.1 L 352.3,235.3 L 360.0,258.0 L 359.5,270.9 L 344.5,291.2" fill="none" stroke="black" stroke-width="2"/>
</svg>