<?xml version="1.0" encoding="UTF-8"?>
<svg width="400" height="400" viewBox="0 0 400 400" xmlns="http://www.w3.org/2000/svg">
  <rect width="400" height="400" fill="white"/>
  <path d="M 173.4,200.5 L 169.8,192.1 L 163.6,182.0 L 160.2,178.6 L 158.6,176.3 L 155.0,173.3 L 152.6,169.9 L 151.7,163.7 L 152.5,158.6 L 152.2,154.4 L 148.6,150.7 L 141.5,148.1 L 135.0,149.0 L 129.3,151.6 L 125.4,150.7 L 122.4,148.4 L 121.4,145.7 L 119.1,141.8 L 117.9,138.9 L 113.9,138.6 L 108.2,134.9 L 106.5,131.1 L 103.5,128.8 L 101.7,125.7 L 100.0,124.4 L 98.2,124.4 L 98.7,123.1 L 99.4,122.1 L 98.6,121.1 L 97.1,121.0 L 96.3,119.8 L 92.8,108.4 L 92.8,105.0 L 95.5,98.3 L 93.2,94.1 L 88.1,86.0 L 83.3,82.1 L 80.2,77.6 L 78.9,73.3 L 80.2,68.8 L 83.7,63.4 L 82.3,62.4 L 79.7,61.8 L 70.4,55.6 L 66.8,54.0 L 65.2,51.9 L 84.2,40.0 L 90.0,46.2 L 92.2,48.6 L 97.4,50.7 L 108.5,53.7 L 119.1,55.2 L 128.7,58.5 L 139.9,61.4 L 142.2,63.3 L 144.0,65.4 L 146.5,66.6 L 150.9,66.9 L 152.2,67.6 L 153.0,67.8 L 154.9,68.4 L 158.3,71.0 L 160.1,70.7 L 163.8,72.3 L 167.3,74.8 L 169.9,76.3 L 171.4,79.8 L 182.7,93.8 L 184.9,99.5 L 189.5,106.1 L 193.9,109.4 L 197.1,112.4 L 198.9,121.2 L 211.9,134.4 L 216.1,137.3 L 224.1,145.0 L 227.4,149.2 L 234.3,152.5 L 239.1,152.6 L 244.1,153.8 L 246.7,154.9 L 248.2,156.2 L 248.7,159.8 L 247.4,163.7 L 247.7,167.9 L 250.1,176.1 L 257.5,184.7 L 261.8,194.5 L 265.5,198.3 L 267.3,200.7 L 267.3,204.4 L 265.9,207.3 L 266.1,208.6 L 266.3,210.3 L 265.5,215.2 L 267.1,216.0 L 271.4,218.4 L 278.7,225.7 L 287.0,229.2 L 290.0,229.4 L 299.3,232.1 L 302.1,234.4 L 305.2,235.2 L 310.6,234.8 L 314.3,237.2 L 315.7,236.7 L 316.4,234.8 L 318.7,236.3 L 323.5,235.7 L 326.7,232.4 L 332.4,231.0 L 333.7,232.4 L 334.8,233.7 L 334.2,236.2 L 330.5,237.6 L 328.4,239.8 L 325.3,249.4 L 326.4,251.0 L 327.8,253.9 L 327.5,258.8 L 326.5,264.7 L 322.5,277.2 L 321.3,278.9 L 314.5,282.9 L 313.6,284.9 L 308.7,291.4 L 303.6,291.5 L 296.7,298.6 L 293.2,300.6 L 292.8,304.1 L 290.5,308.7 L 288.5,316.9 L 288.7,320.1 L 288.2,323.3 L 284.4,327.5 L 281.5,331.3 L 279.5,336.1 L 277.8,341.6 L 277.2,345.3 L 278.1,347.9 L 281.1,351.7 L 281.8,354.7 L 281.6,357.1 L 280.5,358.1 L 271.9,360.0 L 269.0,358.6 L 265.8,354.4 L 259.3,348.5 L 253.4,347.5 L 251.6,345.3 L 248.6,337.5 L 247.9,332.4 L 243.2,326.1 L 240.2,324.1 L 238.7,321.8 L 238.8,317.9 L 235.5,314.1 L 233.4,312.9 L 231.3,312.6 L 229.0,315.4 L 227.4,319.2 L 225.6,321.5 L 223.3,320.4 L 221.0,314.7 L 219.6,311.8 L 218.8,308.9 L 215.0,300.9 L 209.2,294.4 L 207.6,292.5 L 204.1,289.0 L 202.5,285.9 L 201.1,282.5 L 199.4,276.2 L 198.3,266.4 L 195.3,259.5 L 192.5,250.0 L 192.0,245.3 L 192.6,242.5 L 192.9,234.8 L 190.9,229.1 L 188.4,226.0 L 187.4,224.4 L 185.5,221.3 L 183.2,218.9 L 180.9,216.5 L 181.0,214.6 L 180.6,211.9 L 179.3,209.4 L 177.6,205.0 L 175.7,201.7" fill="none" stroke="black" stroke-width="2"/>
</svg>