<?xml version="1.0" encoding="UTF-8"?>
<svg width="400" height="400" viewBox="0 0 400 400" xmlns="http://www.w3.org/2000/svg">
  <rect width="400" height="400" fill="white"/>
  <path d="M 53.0,258.8 L 52.8,256.9 L 40.0,117.8 L 51.1,116.7 L 78.7,120.0 L 101.1,117.1 L 108.8,116.1 L 113.6,116.5 L 115.3,115.8 L 122.8,122.2 L 136.9,123.0 L 143.4,125.6 L 151.8,124.5 L 166.3,125.0 L 190.4,129.1 L 225.1,128.7 L 238.2,129.8 L 252.4,132.8 L 251.0,140.4 L 251.4,147.7 L 263.0,148.2 L 265.5,137.3 L 281.0,138.9 L 282.3,142.5 L 289.7,142.9 L 290.0,145.7 L 292.5,146.5 L 294.5,146.1 L 295.2,144.4 L 298.5,141.9 L 299.8,142.7 L 307.8,147.1 L 312.1,148.9 L 309.3,157.0 L 312.7,168.9 L 316.8,168.6 L 320.7,177.3 L 326.3,190.0 L 327.8,194.3 L 329.5,199.3 L 324.9,201.2 L 323.3,199.5 L 318.9,194.6 L 317.3,195.7 L 321.9,212.3 L 297.2,215.7 L 298.3,219.9 L 324.5,218.9 L 330.9,238.0 L 353.8,247.5 L 358.6,248.9 L 360.0,284.2 L 358.6,283.9 L 270.0,269.5 L 271.1,264.6 L 208.3,252.6 L 207.6,251.7 L 204.2,264.9 L 188.5,261.0 L 177.0,260.7 L 168.2,260.1 L 152.9,256.6 L 146.5,254.8 L 141.9,253.9 L 132.5,254.2 L 127.4,262.8 L 120.0,265.1 L 108.3,265.3 L 83.8,269.7 L 53.0,258.8" fill="none" stroke="black" stroke-width="2"/>
</svg>