<?xml version="1.0" encoding="UTF-8"?>
<svg width="400" height="400" viewBox="0 0 400 400" xmlns="http://www.w3.org/2000/svg">
  <rect width="400" height="400" fill="white"/>
  <path d="M 59.0,224.8 L 60.3,208.3 L 62.2,199.5 L 63.0,193.8 L 61.5,186.7 L 61.3,179.2 L 59.8,173.3 L 56.8,170.7 L 54.1,166.5 L 50.8,156.6 L 49.9,149.7 L 49.4,140.7 L 48.7,136.6 L 56.4,124.2 L 60.0,122.0 L 65.6,117.7 L 68.5,116.1 L 71.8,113.0 L 73.4,113.1 L 77.4,111.7 L 85.3,107.6 L 88.9,106.8 L 99.7,105.7 L 103.2,105.0 L 110.1,104.1 L 114.9,102.8 L 118.7,98.9 L 125.0,93.1 L 129.5,87.3 L 131.3,84.4 L 134.4,78.0 L 136.1,71.9 L 136.1,71.8 L 136.5,66.3 L 136.5,66.2 L 360.0,99.1 L 358.5,100.9 L 354.3,111.6 L 349.3,132.8 L 347.6,137.4 L 343.6,142.2 L 339.3,145.4 L 330.9,153.0 L 325.4,160.8 L 321.3,165.2 L 318.0,167.3 L 313.2,170.4 L 311.3,171.1 L 310.6,170.4 L 315.2,161.3 L 316.2,158.5 L 316.3,158.1 L 316.3,154.3 L 315.4,154.4 L 314.6,154.4 L 307.7,162.0 L 303.2,166.7 L 299.8,169.5 L 287.5,177.4 L 282.1,180.1 L 275.4,183.5 L 273.8,185.1 L 266.4,187.8 L 262.7,190.5 L 256.8,194.0 L 245.1,201.4 L 239.6,205.7 L 231.6,212.8 L 227.4,219.1 L 222.2,224.1 L 221.4,231.1 L 220.7,232.5 L 218.3,235.4 L 215.8,236.4 L 213.0,236.7 L 206.7,239.6 L 201.0,243.9 L 188.2,256.5 L 183.2,261.2 L 175.0,270.7 L 163.1,290.2 L 157.7,297.7 L 154.8,303.9 L 150.5,318.6 L 150.5,326.2 L 149.9,328.9 L 148.2,333.8 L 44.1,307.2 L 40.0,306.2 L 40.3,305.6 L 42.9,301.1 L 43.1,300.8 L 50.1,283.5 L 55.3,272.5 L 61.6,260.5 L 63.6,253.8 L 64.0,243.6 L 63.1,239.8 L 61.7,237.6 L 61.4,234.2 L 59.7,231.5 L 58.8,227.4 L 59.0,224.8" fill="none" stroke="black" stroke-width="2"/>
</svg>