<?xml version="1.0" encoding="UTF-8"?>
<svg width="400" height="400" viewBox="0 0 400 400" xmlns="http://www.w3.org/2000/svg">
  <rect width="400" height="400" fill="white"/>
  <path d="M 160.3,204.9 L 160.1,203.8 L 158.8,202.4 L 158.7,201.6 L 159.4,200.3 L 159.4,199.8 L 160.1,198.9 L 159.9,197.6 L 159.4,196.6 L 159.1,196.5 L 158.7,196.7 L 158.3,195.7 L 157.8,195.7 L 157.7,195.1 L 157.3,194.9 L 157.0,194.9 L 157.0,195.2 L 156.8,195.8 L 156.9,196.4 L 156.5,197.2 L 157.0,198.2 L 157.5,198.9 L 157.5,199.6 L 158.2,201.4 L 157.6,202.1 L 157.6,202.9 L 157.2,203.2 L 156.8,202.9 L 156.0,200.6 L 155.8,199.9 L 155.0,198.7 L 154.8,198.3 L 154.4,198.3 L 153.9,198.9 L 152.6,198.7 L 152.2,199.3 L 151.5,199.1 L 151.4,198.6 L 151.1,198.3 L 150.7,196.0 L 150.1,195.6 L 149.8,193.7 L 149.4,193.2 L 149.0,192.9 L 148.9,192.9 L 148.7,192.4 L 147.8,192.6 L 147.5,192.9 L 147.6,193.2 L 147.6,193.6 L 146.6,193.7 L 146.3,194.1 L 146.0,194.2 L 145.2,194.2 L 144.4,194.3 L 144.4,193.8 L 144.2,192.9 L 143.3,193.0 L 143.2,192.7 L 143.2,192.0 L 142.5,191.6 L 142.5,191.2 L 142.8,190.6 L 142.7,190.2 L 142.4,190.0 L 141.7,190.2 L 141.4,190.3 L 141.3,189.7 L 141.0,189.5 L 140.5,189.7 L 140.2,189.9 L 140.3,190.4 L 141.1,190.9 L 141.3,191.2 L 141.1,191.8 L 140.8,191.9 L 139.6,191.8 L 139.3,192.2 L 139.2,192.5 L 139.9,193.2 L 139.7,193.5 L 138.3,193.8 L 137.8,194.4 L 137.2,195.2 L 137.2,195.3 L 136.4,196.7 L 136.1,197.0 L 135.8,196.3 L 135.2,196.3 L 134.6,197.0 L 134.2,197.1 L 133.7,196.9 L 133.0,197.0 L 132.9,196.2 L 132.6,196.2 L 132.3,196.8 L 132.0,196.8 L 131.6,196.4 L 131.4,196.2 L 129.5,195.7 L 128.3,195.6 L 127.3,195.7 L 126.4,195.5 L 125.7,195.5 L 125.6,195.0 L 125.0,194.8 L 124.4,195.3 L 123.5,195.0 L 122.8,195.0 L 122.6,193.8 L 122.5,192.7 L 122.1,192.7 L 121.6,193.4 L 121.3,193.6 L 121.0,193.0 L 120.7,193.0 L 119.9,194.0 L 118.9,194.1 L 118.4,194.9 L 118.1,195.0 L 117.7,194.1 L 117.4,194.1 L 117.6,194.8 L 117.5,195.3 L 117.4,195.5 L 116.6,194.5 L 116.0,194.0 L 115.5,194.0 L 115.3,193.3 L 114.6,193.0 L 114.1,193.2 L 113.0,194.1 L 112.7,194.2 L 112.2,194.1 L 111.7,194.4 L 111.1,195.5 L 110.6,197.1 L 110.6,197.2 L 109.6,199.1 L 110.0,199.6 L 110.0,200.0 L 109.4,200.2 L 109.0,199.9 L 108.8,199.5 L 108.5,199.2 L 108.0,199.8 L 107.7,199.6 L 107.4,199.6 L 106.7,201.4 L 106.6,201.8 L 106.3,201.9 L 106.1,201.5 L 105.9,201.3 L 105.6,199.6 L 105.0,199.3 L 104.5,199.1 L 104.0,199.5 L 103.6,199.2 L 103.4,199.3 L 102.9,200.3 L 102.6,200.0 L 102.4,199.6 L 102.0,199.8 L 101.9,199.9 L 101.7,200.2 L 100.4,200.5 L 100.1,200.9 L 99.5,201.1 L 99.2,201.6 L 99.4,201.9 L 99.4,202.2 L 96.3,202.9 L 96.0,203.3 L 94.3,203.6 L 93.9,204.0 L 93.6,204.2 L 93.2,205.3 L 92.9,205.4 L 92.5,205.2 L 92.2,205.2 L 91.4,205.7 L 90.4,207.5 L 90.4,208.8 L 91.4,209.6 L 91.5,209.8 L 90.6,210.0 L 90.6,210.5 L 90.1,211.4 L 90.2,212.2 L 90.6,212.7 L 90.6,212.9 L 90.4,213.1 L 89.2,212.6 L 87.7,212.4 L 87.0,212.5 L 86.7,212.1 L 86.3,212.3 L 85.7,213.2 L 85.3,212.9 L 85.1,212.9 L 84.9,213.2 L 84.3,214.6 L 84.2,215.3 L 84.9,215.6 L 85.0,216.1 L 85.6,216.6 L 85.7,216.8 L 85.5,217.0 L 85.1,216.8 L 84.7,216.9 L 84.9,217.7 L 85.2,218.0 L 85.5,218.5 L 85.9,218.8 L 86.7,219.7 L 86.6,220.4 L 88.5,222.7 L 89.7,223.5 L 90.5,224.3 L 91.5,225.4 L 91.6,225.8 L 91.2,226.1 L 90.4,225.7 L 89.8,226.2 L 88.7,226.5 L 88.5,227.1 L 88.1,227.3 L 87.3,226.8 L 87.0,226.8 L 86.4,227.4 L 86.2,228.0 L 85.6,228.9 L 85.3,229.1 L 85.1,228.9 L 84.8,228.7 L 84.3,229.1 L 83.3,229.4 L 82.5,230.4 L 82.7,231.1 L 82.6,231.3 L 83.1,231.8 L 83.2,232.0 L 82.9,232.2 L 82.2,232.0 L 81.9,232.0 L 81.8,231.8 L 81.6,231.8 L 81.0,232.3 L 81.1,232.5 L 82.8,233.2 L 83.0,233.8 L 83.6,234.5 L 83.6,235.4 L 83.3,236.1 L 82.9,236.3 L 82.6,236.6 L 83.1,237.4 L 82.9,237.7 L 81.6,239.1 L 80.1,239.6 L 79.6,239.2 L 79.2,238.3 L 79.0,238.2 L 78.4,238.4 L 77.7,237.6 L 77.5,236.3 L 77.7,235.4 L 77.5,235.0 L 76.9,234.7 L 76.8,234.3 L 76.7,234.1 L 76.1,234.1 L 76.0,233.5 L 76.6,232.5 L 77.1,232.2 L 77.5,231.7 L 78.0,231.6 L 78.1,231.3 L 78.0,231.0 L 77.6,230.7 L 76.9,230.8 L 76.1,231.9 L 75.5,231.6 L 75.5,231.3 L 75.9,231.0 L 75.9,230.1 L 75.4,229.7 L 75.1,229.5 L 74.6,230.0 L 74.1,230.2 L 73.8,229.9 L 73.2,228.4 L 73.1,227.2 L 72.8,227.0 L 72.7,225.8 L 72.5,225.2 L 72.3,224.3 L 72.0,223.6 L 71.0,222.2 L 70.6,222.3 L 70.4,222.7 L 69.7,222.7 L 69.2,223.2 L 68.8,222.9 L 68.5,222.8 L 68.3,221.9 L 68.0,221.5 L 67.9,220.9 L 66.7,220.1 L 66.2,219.9 L 65.9,219.4 L 65.6,219.3 L 65.1,219.5 L 65.0,218.9 L 65.3,218.0 L 64.7,216.9 L 64.6,216.5 L 63.2,216.0 L 63.0,216.7 L 62.4,216.8 L 61.9,216.7 L 61.4,217.3 L 61.0,217.5 L 59.7,217.0 L 58.2,215.7 L 57.4,214.5 L 56.9,213.2 L 56.4,212.4 L 56.1,211.6 L 55.9,210.5 L 55.7,209.3 L 56.0,208.4 L 57.2,208.1 L 58.6,207.0 L 58.7,206.7 L 57.9,206.7 L 58.1,206.2 L 58.7,205.4 L 58.4,205.2 L 57.9,205.3 L 57.9,205.0 L 58.0,204.7 L 57.8,204.4 L 57.0,205.0 L 56.7,205.0 L 56.8,204.7 L 56.8,204.4 L 56.0,204.3 L 55.7,204.6 L 55.2,204.8 L 54.9,204.6 L 54.2,204.8 L 53.6,204.6 L 52.9,204.9 L 52.1,206.0 L 51.7,206.1 L 50.5,205.7 L 48.6,206.1 L 47.9,206.8 L 47.5,207.0 L 47.3,206.6 L 47.4,206.1 L 45.9,206.4 L 45.6,206.3 L 45.6,206.0 L 45.9,205.6 L 45.6,205.5 L 44.8,205.6 L 44.0,205.5 L 44.0,205.2 L 44.1,205.0 L 43.7,204.8 L 43.8,204.3 L 43.2,204.0 L 43.3,203.6 L 42.3,202.9 L 42.4,202.5 L 43.4,202.2 L 43.6,202.1 L 43.5,201.8 L 43.3,201.7 L 42.7,202.0 L 42.2,202.4 L 41.6,202.1 L 41.4,201.9 L 42.6,201.3 L 42.5,201.0 L 41.8,201.1 L 41.4,201.4 L 41.3,201.7 L 41.1,201.8 L 40.9,201.6 L 41.3,200.8 L 41.0,200.7 L 40.6,201.1 L 40.0,200.9 L 40.0,200.7 L 40.3,200.3 L 40.2,200.0 L 40.1,199.9 L 108.3,85.2 L 108.7,85.7 L 109.4,85.9 L 109.3,86.3 L 109.7,86.5 L 111.0,86.0 L 111.4,85.6 L 112.0,85.7 L 113.3,85.2 L 113.6,84.6 L 114.1,83.9 L 114.2,83.4 L 114.7,83.2 L 115.1,82.5 L 115.1,81.8 L 115.2,81.2 L 115.3,80.5 L 115.6,80.6 L 115.6,80.8 L 115.8,81.1 L 116.0,80.9 L 116.5,80.3 L 117.5,80.0 L 117.8,79.8 L 120.0,80.6 L 120.9,81.3 L 122.4,82.0 L 123.4,81.9 L 123.5,82.4 L 123.3,83.1 L 123.2,83.6 L 123.7,84.5 L 123.4,85.3 L 123.5,86.1 L 124.0,86.5 L 124.4,86.5 L 124.9,86.8 L 125.2,86.9 L 125.9,87.4 L 127.4,87.9 L 127.6,88.6 L 127.9,88.7 L 128.7,88.2 L 129.1,88.1 L 130.0,88.4 L 130.3,89.3 L 131.1,89.5 L 131.6,89.0 L 131.8,89.1 L 132.0,89.9 L 132.3,90.2 L 132.6,90.0 L 132.8,89.7 L 133.4,89.5 L 133.7,89.2 L 134.6,88.6 L 134.9,88.6 L 135.6,88.9 L 138.1,88.9 L 138.6,88.6 L 139.9,89.0 L 139.9,89.3 L 140.2,90.2 L 140.5,90.0 L 140.9,89.8 L 142.0,90.1 L 142.5,90.0 L 143.0,90.2 L 143.7,90.4 L 145.2,91.4 L 145.4,91.7 L 146.0,91.6 L 146.3,91.7 L 145.7,92.4 L 145.7,92.9 L 146.0,92.7 L 146.6,92.6 L 147.0,92.7 L 147.7,93.0 L 147.5,93.4 L 147.7,93.4 L 148.0,93.6 L 148.2,93.7 L 148.6,93.2 L 149.0,93.7 L 149.1,94.2 L 149.3,94.4 L 149.6,94.4 L 149.8,94.0 L 151.5,94.6 L 151.8,95.0 L 152.5,95.0 L 152.7,95.2 L 152.5,95.7 L 152.7,96.0 L 153.3,95.9 L 154.7,96.2 L 154.5,96.5 L 154.6,97.3 L 154.8,97.6 L 155.6,97.4 L 156.1,97.1 L 156.4,97.5 L 156.3,97.8 L 155.7,98.1 L 156.0,98.3 L 156.8,98.3 L 157.3,98.3 L 157.5,98.6 L 157.2,98.8 L 157.0,99.1 L 157.4,99.5 L 157.3,99.9 L 158.0,100.6 L 158.4,100.8 L 159.0,100.6 L 159.4,100.4 L 159.5,100.0 L 159.8,100.1 L 160.0,100.4 L 160.4,100.7 L 161.4,100.5 L 161.7,100.7 L 161.7,101.4 L 162.0,101.4 L 162.5,100.9 L 163.7,100.9 L 165.2,100.8 L 165.9,100.7 L 166.5,100.7 L 166.8,100.8 L 168.9,101.9 L 169.4,102.8 L 169.1,103.2 L 169.5,103.7 L 171.1,104.7 L 171.7,104.5 L 172.1,104.3 L 172.6,104.2 L 173.2,105.2 L 173.6,105.8 L 174.2,106.5 L 174.5,106.9 L 175.6,107.8 L 176.9,107.7 L 177.2,107.5 L 177.5,107.4 L 177.8,107.7 L 177.8,108.0 L 177.4,108.3 L 177.2,108.6 L 177.6,109.0 L 178.4,108.9 L 178.8,108.9 L 178.9,109.3 L 180.1,109.2 L 180.5,109.0 L 181.7,108.7 L 182.6,108.6 L 184.1,109.6 L 187.5,110.7 L 189.3,111.1 L 190.4,111.4 L 190.6,111.7 L 190.7,112.1 L 190.1,112.6 L 190.1,112.8 L 191.0,113.4 L 191.3,113.8 L 192.5,113.7 L 193.2,113.9 L 193.5,115.5 L 193.2,116.5 L 193.0,116.8 L 192.4,117.2 L 190.6,117.6 L 189.8,117.5 L 188.0,117.7 L 184.9,118.3 L 184.1,118.2 L 183.6,118.0 L 183.0,117.9 L 181.9,118.3 L 179.3,118.7 L 177.3,118.7 L 175.9,118.9 L 175.2,118.7 L 174.7,119.1 L 174.0,118.9 L 173.2,118.1 L 172.7,117.8 L 172.5,117.8 L 171.4,118.2 L 170.6,117.8 L 170.2,117.8 L 169.8,118.4 L 170.0,118.9 L 169.9,119.0 L 168.9,118.7 L 168.5,119.2 L 168.8,120.0 L 168.6,120.4 L 167.4,120.6 L 167.1,121.0 L 166.1,121.4 L 165.6,121.2 L 164.8,121.1 L 164.4,121.4 L 163.6,122.6 L 163.5,123.5 L 163.0,123.9 L 163.1,124.9 L 162.5,126.1 L 162.4,127.1 L 162.6,128.5 L 162.9,128.3 L 163.0,128.2 L 163.3,128.2 L 163.5,128.8 L 163.8,128.6 L 164.3,127.7 L 164.6,127.5 L 164.8,128.2 L 164.5,128.7 L 164.5,129.2 L 164.8,129.6 L 165.3,129.6 L 166.1,128.6 L 166.3,128.6 L 166.6,128.9 L 166.8,129.3 L 166.3,129.7 L 166.3,130.6 L 166.5,130.9 L 167.0,130.9 L 167.4,131.3 L 167.9,131.0 L 168.5,130.2 L 169.5,130.2 L 169.3,130.8 L 169.4,131.0 L 169.7,131.1 L 169.9,130.8 L 170.2,130.7 L 170.7,131.0 L 171.5,131.0 L 171.9,131.5 L 173.0,131.4 L 173.5,131.8 L 173.6,132.1 L 173.1,133.0 L 173.3,134.3 L 174.1,134.5 L 174.4,134.7 L 174.3,135.3 L 174.5,135.5 L 175.2,135.6 L 175.6,135.4 L 175.9,135.5 L 176.2,136.7 L 177.1,137.0 L 177.8,136.8 L 178.4,137.1 L 178.6,137.7 L 180.2,137.7 L 181.0,138.2 L 181.2,139.3 L 182.5,139.7 L 182.7,140.3 L 183.2,140.5 L 183.9,141.3 L 184.9,141.4 L 185.1,141.0 L 185.4,141.0 L 185.5,141.8 L 186.4,142.5 L 187.0,142.4 L 187.4,143.0 L 188.5,143.5 L 188.7,143.6 L 190.5,143.8 L 190.7,144.3 L 191.4,144.5 L 192.0,145.2 L 193.8,145.7 L 194.7,145.9 L 195.2,146.1 L 194.9,146.6 L 195.2,146.9 L 196.4,147.4 L 196.8,147.9 L 196.7,148.2 L 196.7,148.6 L 197.4,148.9 L 198.0,148.9 L 198.4,149.4 L 199.1,149.7 L 199.3,150.6 L 200.0,151.0 L 200.1,151.6 L 200.8,152.4 L 201.1,153.9 L 200.9,154.3 L 200.6,154.4 L 200.2,154.2 L 199.0,155.7 L 198.6,156.5 L 198.8,157.1 L 198.3,158.8 L 198.4,159.5 L 198.8,159.8 L 199.2,159.4 L 199.5,159.6 L 199.8,160.2 L 200.2,160.7 L 201.1,160.6 L 201.4,160.7 L 201.6,161.2 L 202.4,161.6 L 204.0,162.4 L 204.7,162.3 L 205.4,162.6 L 205.8,162.4 L 206.1,162.3 L 206.1,162.6 L 206.2,162.9 L 207.0,163.1 L 208.2,163.8 L 208.8,163.7 L 209.2,163.8 L 211.3,164.5 L 213.2,165.7 L 214.1,165.8 L 216.0,166.3 L 216.5,166.3 L 216.8,166.6 L 217.1,167.0 L 217.8,167.2 L 219.1,167.5 L 221.0,167.1 L 221.8,167.6 L 222.3,167.6 L 222.8,167.7 L 223.3,167.7 L 223.6,167.8 L 223.9,167.7 L 224.0,167.5 L 225.0,167.8 L 225.9,167.8 L 226.6,168.4 L 227.5,168.2 L 228.0,168.3 L 228.3,168.5 L 228.8,169.4 L 229.5,170.0 L 229.8,170.4 L 230.4,170.4 L 230.4,170.8 L 230.9,171.0 L 231.4,171.0 L 231.9,171.0 L 232.8,171.0 L 233.4,171.4 L 234.3,171.4 L 234.9,171.6 L 237.5,172.2 L 238.5,172.2 L 238.9,172.4 L 240.3,172.6 L 242.1,172.6 L 242.8,173.2 L 244.2,173.5 L 244.6,173.7 L 244.7,173.7 L 246.7,174.5 L 247.3,174.5 L 248.9,175.0 L 249.9,175.1 L 250.5,175.3 L 251.5,175.2 L 253.7,175.7 L 255.0,176.4 L 255.7,177.0 L 255.8,177.6 L 256.4,178.1 L 256.2,178.4 L 256.1,178.7 L 256.6,178.8 L 256.6,179.1 L 257.3,179.1 L 257.3,179.9 L 257.8,180.0 L 259.2,180.0 L 259.6,180.1 L 260.1,180.1 L 260.8,180.2 L 262.0,180.7 L 264.6,182.1 L 264.9,182.5 L 265.8,183.1 L 266.4,183.8 L 266.8,184.0 L 267.1,184.4 L 267.7,184.6 L 268.1,185.1 L 269.1,186.2 L 268.7,186.5 L 268.7,186.7 L 269.6,186.8 L 269.8,187.1 L 270.2,187.5 L 270.1,188.1 L 270.6,188.4 L 271.1,188.3 L 271.8,188.6 L 272.0,189.0 L 272.7,189.5 L 272.9,190.1 L 273.6,190.1 L 274.0,190.5 L 274.6,191.9 L 274.3,192.3 L 274.3,192.6 L 274.8,192.8 L 274.9,193.3 L 274.7,193.7 L 274.3,193.7 L 273.9,194.0 L 274.0,194.8 L 273.7,195.2 L 273.5,195.4 L 273.0,195.3 L 272.4,195.7 L 272.1,195.4 L 271.8,195.2 L 271.5,195.7 L 271.0,195.7 L 270.7,195.9 L 270.7,196.2 L 270.6,196.5 L 270.3,196.7 L 268.7,197.1 L 268.2,196.9 L 267.8,196.9 L 267.3,197.4 L 267.6,198.1 L 268.1,198.4 L 268.5,198.2 L 269.3,198.9 L 269.5,199.4 L 270.6,199.3 L 270.8,199.1 L 271.1,199.0 L 271.4,200.0 L 271.7,199.9 L 272.2,199.3 L 272.7,199.5 L 272.9,199.9 L 273.3,200.0 L 273.6,199.8 L 274.2,199.7 L 275.1,200.3 L 274.9,201.0 L 275.0,201.6 L 275.9,201.5 L 276.9,201.5 L 277.2,201.8 L 277.6,201.9 L 278.2,202.6 L 279.9,204.2 L 280.0,204.7 L 280.3,205.3 L 280.8,205.6 L 281.7,205.8 L 281.8,206.1 L 282.2,206.4 L 282.7,206.4 L 283.0,206.9 L 283.5,207.1 L 284.3,207.9 L 284.5,208.3 L 285.7,208.7 L 286.2,208.7 L 286.6,208.9 L 287.0,210.3 L 287.2,210.5 L 288.0,210.6 L 288.0,210.9 L 288.2,211.3 L 288.3,211.8 L 288.2,211.9 L 288.5,213.3 L 288.5,213.4 L 288.7,213.7 L 289.5,214.9 L 289.9,215.0 L 290.5,215.5 L 291.0,215.5 L 291.3,215.6 L 291.2,216.4 L 291.6,216.6 L 291.7,217.3 L 292.4,217.6 L 292.8,217.7 L 293.9,217.2 L 294.3,217.4 L 295.1,218.1 L 295.3,218.5 L 295.0,219.2 L 295.4,219.4 L 295.5,220.0 L 295.5,220.4 L 295.0,220.7 L 294.9,221.0 L 295.2,221.6 L 295.8,221.8 L 296.6,221.8 L 297.0,221.9 L 297.2,222.2 L 298.1,223.1 L 298.6,223.9 L 299.3,225.0 L 298.8,225.3 L 299.1,225.8 L 299.5,226.3 L 300.0,226.3 L 300.3,227.0 L 300.8,227.1 L 302.3,228.8 L 303.2,230.1 L 303.8,231.4 L 304.1,231.8 L 304.0,232.1 L 304.3,232.4 L 304.1,232.7 L 304.4,232.9 L 304.5,234.2 L 305.3,234.8 L 305.4,235.1 L 305.7,235.3 L 305.8,235.8 L 307.8,239.2 L 308.4,239.7 L 309.4,240.2 L 309.7,240.5 L 310.7,241.2 L 310.9,241.5 L 312.6,242.5 L 314.8,244.0 L 316.6,244.5 L 320.5,247.3 L 321.1,247.7 L 323.1,249.4 L 323.3,250.1 L 323.8,249.9 L 324.2,250.2 L 325.2,251.4 L 325.3,251.8 L 325.2,252.2 L 325.5,252.4 L 325.8,253.0 L 327.0,254.5 L 328.7,255.9 L 330.2,256.8 L 333.4,258.5 L 334.2,258.7 L 334.2,259.0 L 334.9,259.7 L 335.5,260.6 L 335.4,261.1 L 337.2,261.7 L 338.4,262.4 L 339.2,263.3 L 341.0,264.4 L 341.6,265.0 L 345.3,266.8 L 347.8,267.6 L 349.1,267.9 L 350.4,268.5 L 355.2,270.2 L 356.1,270.0 L 356.5,269.7 L 356.7,269.8 L 356.9,270.4 L 357.7,271.4 L 358.3,272.5 L 358.7,274.2 L 358.8,275.6 L 358.5,276.3 L 359.6,276.9 L 359.9,278.5 L 359.7,279.2 L 359.7,279.8 L 359.5,280.2 L 359.2,280.4 L 359.4,281.8 L 359.9,282.3 L 359.9,282.9 L 359.3,283.6 L 359.6,284.5 L 360.0,285.1 L 359.9,285.5 L 360.0,286.8 L 360.0,288.3 L 359.7,289.7 L 359.1,291.1 L 359.2,291.5 L 358.0,294.7 L 358.0,296.1 L 357.7,296.8 L 357.7,297.9 L 357.1,298.9 L 353.1,304.0 L 352.8,304.3 L 350.3,305.4 L 349.8,306.3 L 349.0,306.7 L 348.3,307.2 L 347.5,307.6 L 346.9,308.0 L 345.7,308.6 L 345.3,309.3 L 344.2,309.9 L 344.0,310.3 L 343.5,310.8 L 342.8,311.5 L 342.6,311.6 L 339.9,312.1 L 337.6,312.0 L 336.0,311.5 L 334.4,310.9 L 333.4,310.7 L 332.7,311.0 L 330.9,312.1 L 330.3,312.9 L 330.1,314.0 L 330.5,315.4 L 330.3,317.1 L 329.4,318.5 L 329.6,319.7 L 329.8,319.9 L 329.6,320.2 L 328.9,319.5 L 328.3,318.2 L 327.9,314.9 L 328.0,314.3 L 327.8,311.8 L 328.1,310.2 L 328.1,309.0 L 327.9,308.4 L 327.8,307.4 L 327.9,306.8 L 327.7,305.6 L 327.4,304.8 L 327.3,304.1 L 327.7,302.9 L 329.0,301.5 L 329.8,301.2 L 330.6,300.4 L 331.2,300.1 L 331.3,299.6 L 332.6,299.0 L 332.9,298.4 L 332.6,297.1 L 332.3,296.3 L 332.1,295.5 L 330.5,293.5 L 329.1,292.4 L 327.4,290.7 L 326.1,290.1 L 324.9,289.8 L 324.6,289.5 L 323.3,289.4 L 321.8,288.1 L 319.5,287.3 L 318.2,287.1 L 317.6,286.5 L 317.4,286.3 L 316.6,285.9 L 316.1,285.3 L 314.9,284.5 L 314.4,282.6 L 313.6,280.9 L 312.9,280.2 L 310.0,277.5 L 309.5,276.7 L 307.8,275.2 L 306.3,273.7 L 304.7,272.5 L 303.3,271.8 L 302.9,271.6 L 301.4,270.0 L 300.3,269.4 L 298.5,268.6 L 298.4,268.7 L 295.7,267.6 L 293.8,266.4 L 292.2,264.9 L 291.2,263.9 L 290.3,263.1 L 289.8,262.4 L 287.2,260.2 L 285.1,258.9 L 283.3,258.1 L 280.5,256.8 L 278.6,255.7 L 278.6,255.7 L 275.2,252.9 L 272.9,250.5 L 271.9,249.7 L 271.3,248.9 L 270.8,248.3 L 270.7,248.0 L 267.4,243.4 L 267.1,243.2 L 266.8,242.8 L 266.1,242.4 L 260.3,241.1 L 257.3,240.1 L 256.4,239.9 L 254.7,239.2 L 253.0,238.4 L 252.2,237.8 L 247.2,235.8 L 245.0,235.0 L 242.5,233.8 L 241.5,233.0 L 240.4,232.5 L 239.6,231.7 L 237.1,231.0 L 236.6,230.5 L 236.1,230.4 L 235.4,230.3 L 235.0,230.0 L 235.0,229.7 L 235.4,229.4 L 234.7,228.9 L 233.7,228.9 L 233.4,229.7 L 233.1,229.9 L 231.7,229.2 L 231.1,229.3 L 230.4,228.9 L 229.9,228.2 L 229.3,227.8 L 228.7,227.8 L 228.3,228.2 L 227.8,227.7 L 227.5,227.8 L 227.2,228.2 L 226.6,227.9 L 226.1,227.6 L 225.5,227.4 L 224.8,226.8 L 224.4,226.8 L 223.8,226.4 L 223.2,225.8 L 221.4,224.9 L 220.4,224.9 L 219.9,224.7 L 219.6,224.2 L 219.1,224.3 L 218.9,224.5 L 218.0,224.5 L 217.6,224.7 L 217.3,224.7 L 216.8,224.4 L 216.4,224.1 L 213.9,223.3 L 213.6,223.1 L 213.4,222.6 L 212.9,222.3 L 213.0,221.7 L 212.7,221.6 L 212.2,221.6 L 211.8,221.4 L 211.3,221.4 L 211.0,221.0 L 210.3,220.9 L 209.2,221.1 L 209.2,221.2 L 209.6,221.9 L 209.1,222.2 L 208.0,222.5 L 207.9,222.4 L 205.6,222.8 L 204.8,223.7 L 204.7,223.8 L 204.8,224.3 L 204.9,224.4 L 205.2,224.7 L 205.0,224.8 L 204.9,224.9 L 204.7,225.3 L 205.0,225.8 L 205.1,226.4 L 204.6,227.0 L 204.5,227.3 L 204.7,227.4 L 204.8,228.0 L 205.0,228.4 L 205.1,230.0 L 205.3,231.8 L 205.0,232.6 L 205.0,232.9 L 205.4,233.2 L 205.3,233.8 L 205.5,234.0 L 205.8,234.7 L 206.5,235.9 L 207.0,237.8 L 206.2,238.6 L 205.5,239.9 L 205.0,240.2 L 203.1,240.2 L 202.2,240.1 L 201.7,240.0 L 200.6,240.4 L 199.7,240.9 L 198.5,241.2 L 198.1,241.7 L 197.9,241.9 L 196.2,242.5 L 195.7,242.3 L 194.9,242.2 L 194.1,242.1 L 193.5,242.5 L 193.0,242.6 L 192.7,242.6 L 192.5,242.5 L 192.0,242.5 L 191.5,242.8 L 191.3,243.0 L 190.9,243.0 L 190.7,242.8 L 190.3,242.8 L 190.1,243.1 L 189.9,243.4 L 189.0,243.6 L 188.6,243.6 L 187.7,243.7 L 186.6,244.1 L 186.1,244.0 L 184.5,244.5 L 184.2,244.7 L 184.2,245.1 L 184.5,245.8 L 184.2,245.9 L 184.0,246.7 L 183.6,247.7 L 183.5,248.6 L 184.1,249.2 L 183.4,250.0 L 183.3,251.3 L 183.0,252.8 L 182.6,253.7 L 181.8,254.3 L 181.6,255.1 L 181.1,255.2 L 179.6,256.0 L 179.1,256.6 L 177.5,257.7 L 176.7,257.9 L 176.1,258.2 L 175.8,258.7 L 175.3,258.8 L 175.0,259.0 L 173.5,259.7 L 172.5,259.5 L 171.9,259.9 L 171.5,260.1 L 171.0,259.9 L 170.3,260.3 L 169.8,260.0 L 168.8,260.2 L 168.2,259.8 L 167.4,260.2 L 167.0,259.8 L 166.2,259.9 L 165.6,260.3 L 165.6,260.9 L 165.2,261.6 L 164.1,261.8 L 163.2,261.3 L 162.9,261.5 L 162.7,262.4 L 161.9,262.6 L 161.6,262.5 L 160.9,261.7 L 160.6,261.7 L 159.8,262.5 L 159.3,262.3 L 158.6,262.5 L 158.2,261.9 L 157.4,260.3 L 156.8,259.5 L 156.3,258.4 L 156.4,257.7 L 156.4,257.3 L 155.9,256.9 L 155.8,256.0 L 155.9,255.3 L 156.1,254.9 L 156.7,254.5 L 157.3,253.7 L 157.7,252.9 L 158.4,252.0 L 159.5,251.6 L 159.7,251.4 L 160.2,251.5 L 160.7,251.3 L 161.3,250.8 L 162.1,250.1 L 162.8,249.2 L 163.8,248.6 L 164.6,247.6 L 164.7,247.4 L 165.0,246.7 L 165.8,246.3 L 166.3,245.2 L 166.5,244.9 L 167.0,244.9 L 167.8,245.6 L 168.8,245.3 L 169.3,244.5 L 169.4,244.2 L 167.8,243.4 L 167.3,243.1 L 167.3,242.5 L 167.4,242.2 L 167.2,241.8 L 167.8,240.9 L 167.8,239.2 L 168.2,237.5 L 168.2,236.9 L 168.0,236.8 L 167.2,237.3 L 167.0,237.1 L 167.0,236.0 L 166.7,235.7 L 166.4,235.7 L 165.8,236.3 L 165.4,236.5 L 164.7,236.5 L 164.1,235.8 L 164.1,235.0 L 164.5,234.6 L 164.8,234.5 L 164.7,233.8 L 165.7,232.9 L 165.7,232.6 L 165.0,232.5 L 164.8,232.1 L 165.3,231.7 L 166.0,231.4 L 166.7,230.9 L 167.4,230.7 L 168.0,229.5 L 167.6,229.1 L 167.7,228.3 L 167.7,228.0 L 166.7,228.0 L 166.5,227.7 L 166.5,227.3 L 166.0,227.1 L 165.7,226.7 L 165.1,226.4 L 164.4,225.2 L 164.5,224.7 L 164.1,224.4 L 162.6,224.2 L 162.1,223.9 L 162.0,223.7 L 162.5,223.3 L 163.3,223.2 L 163.1,222.7 L 162.1,222.1 L 162.6,221.8 L 163.5,220.8 L 163.2,220.5 L 163.3,219.9 L 163.7,219.6 L 164.6,219.8 L 165.0,219.7 L 165.8,218.9 L 166.5,218.9 L 166.7,218.3 L 167.7,216.8 L 167.1,216.5 L 167.4,216.1 L 167.8,215.9 L 168.6,214.8 L 168.9,214.1 L 169.5,213.5 L 170.0,212.1 L 170.2,211.9 L 169.6,211.4 L 169.6,211.2 L 170.5,211.1 L 170.8,210.5 L 170.8,209.7 L 170.4,208.1 L 169.8,207.2 L 169.5,206.9 L 168.9,207.2 L 168.6,207.0 L 167.2,207.1 L 166.7,207.7 L 166.4,207.4 L 166.2,207.4 L 165.2,208.4 L 164.4,208.7 L 164.2,208.4 L 164.4,207.1 L 164.1,205.4 L 163.7,205.4 L 163.3,206.3 L 163.0,206.4 L 162.8,206.0 L 163.0,205.5 L 162.0,205.2 L 161.6,205.7 L 161.4,205.4 L 161.2,204.9 L 160.7,204.7 L 160.3,204.9" fill="none" stroke="black" stroke-width="2"/>
</svg>