<?xml version="1.0" encoding="UTF-8"?>
<svg width="400" height="400" viewBox="0 0 400 400" xmlns="http://www.w3.org/2000/svg">
  <rect width="400" height="400" fill="white"/>
  <path d="M 40.0,227.6 L 74.7,215.4 L 360.0,152.3 L 359.0,154.4 L 358.9,154.7 L 358.8,154.8 L 358.5,154.9 L 358.1,155.0 L 357.9,155.4 L 358.0,155.6 L 358.2,156.1 L 358.0,156.2 L 357.3,156.5 L 357.1,156.8 L 357.1,157.2 L 357.3,157.5 L 357.3,158.0 L 357.3,158.1 L 357.1,158.1 L 356.6,158.1 L 356.0,158.2 L 355.7,158.4 L 355.2,159.0 L 354.7,159.1 L 354.3,159.2 L 353.8,159.1 L 353.2,159.0 L 352.7,159.1 L 351.9,159.3 L 351.8,159.2 L 351.8,159.0 L 351.7,158.9 L 351.3,159.0 L 351.1,159.3 L 350.8,159.4 L 350.7,159.4 L 350.4,159.6 L 350.1,160.0 L 350.2,160.8 L 350.5,160.7 L 350.6,160.7 L 350.6,160.9 L 350.5,161.5 L 350.5,161.8 L 350.4,162.0 L 350.4,162.1 L 350.7,162.7 L 351.0,162.9 L 351.4,162.7 L 351.5,162.8 L 351.4,163.0 L 351.5,163.2 L 351.9,163.4 L 352.0,163.6 L 352.4,163.9 L 352.3,164.1 L 352.3,164.2 L 352.5,164.2 L 352.8,164.4 L 352.7,164.5 L 352.4,164.6 L 352.4,164.7 L 352.6,164.8 L 352.7,164.9 L 352.9,165.1 L 353.4,165.3 L 353.6,165.4 L 353.4,165.6 L 352.9,165.8 L 353.0,166.0 L 353.2,166.0 L 353.2,166.0 L 342.7,188.0 L 342.7,188.0 L 342.5,188.0 L 341.6,188.2 L 341.2,188.3 L 341.1,188.7 L 341.0,189.3 L 340.9,189.6 L 340.6,189.8 L 340.4,190.0 L 340.1,190.7 L 339.9,190.7 L 339.5,190.9 L 339.1,190.8 L 337.9,190.9 L 337.1,191.0 L 336.6,191.2 L 336.4,191.4 L 336.4,191.5 L 336.5,191.7 L 336.9,191.9 L 337.2,192.1 L 337.3,192.4 L 337.0,192.4 L 336.4,192.3 L 336.0,192.3 L 335.8,192.4 L 335.8,192.6 L 335.9,192.8 L 336.0,193.3 L 336.0,193.6 L 335.8,193.9 L 335.7,194.1 L 335.6,194.3 L 335.4,194.3 L 335.2,194.3 L 334.7,194.4 L 334.1,194.6 L 333.7,194.8 L 333.6,195.1 L 333.8,195.5 L 334.3,196.1 L 334.3,196.4 L 333.4,196.6 L 333.2,196.8 L 333.1,197.0 L 333.3,197.2 L 333.4,197.5 L 333.2,197.7 L 333.4,197.8 L 333.6,198.0 L 333.8,198.5 L 333.7,198.6 L 333.7,198.9 L 333.9,199.1 L 334.4,199.2 L 334.3,199.4 L 334.4,199.5 L 334.5,199.6 L 334.7,199.8 L 335.4,200.1 L 335.7,200.4 L 335.9,200.7 L 335.9,201.1 L 335.8,201.3 L 335.4,201.4 L 335.3,201.5 L 335.3,201.7 L 334.9,201.8 L 334.9,201.9 L 335.1,202.0 L 335.4,202.1 L 335.9,202.1 L 336.3,202.3 L 336.3,202.6 L 336.3,202.8 L 335.5,203.6 L 334.7,204.0 L 334.3,204.1 L 334.1,204.2 L 334.0,204.3 L 334.2,204.5 L 334.3,204.7 L 334.1,205.2 L 334.0,205.5 L 333.9,205.6 L 333.5,205.5 L 333.4,205.5 L 333.1,205.6 L 332.8,205.7 L 332.6,206.0 L 332.6,206.1 L 333.0,206.4 L 333.1,206.7 L 333.5,206.8 L 333.5,207.0 L 332.9,207.1 L 332.8,207.4 L 332.4,207.3 L 332.3,207.5 L 332.3,207.8 L 332.5,208.1 L 332.8,208.3 L 332.9,208.4 L 332.8,208.7 L 332.5,208.9 L 331.9,209.0 L 331.4,209.2 L 331.1,209.4 L 330.8,209.9 L 330.5,210.5 L 330.5,210.9 L 330.2,211.2 L 329.7,211.6 L 329.4,212.0 L 329.2,212.2 L 328.8,212.5 L 328.3,213.0 L 328.0,213.1 L 327.7,213.2 L 327.5,213.4 L 327.5,213.6 L 327.2,213.8 L 327.1,214.0 L 327.2,214.1 L 327.9,214.4 L 328.1,214.6 L 327.9,214.8 L 327.9,215.0 L 328.5,215.3 L 328.6,215.4 L 328.8,215.7 L 329.0,216.8 L 328.9,216.9 L 328.8,217.0 L 328.1,217.4 L 327.8,217.6 L 327.4,218.1 L 327.0,218.3 L 326.7,218.7 L 326.2,219.2 L 326.1,219.7 L 325.7,220.2 L 325.7,220.2 L 324.7,221.3 L 324.4,221.7 L 324.3,222.2 L 324.1,222.4 L 323.9,222.9 L 323.3,223.4 L 323.2,223.8 L 322.8,224.3 L 321.7,225.0 L 321.7,225.0 L 115.4,240.1 L 115.4,240.0 L 115.3,239.8 L 115.4,239.7 L 115.6,239.7 L 116.0,239.0 L 115.8,238.9 L 115.9,238.7 L 115.9,238.5 L 115.7,238.4 L 115.4,238.5 L 115.3,238.0 L 115.5,237.7 L 115.7,237.6 L 115.6,237.4 L 115.4,237.4 L 114.7,237.9 L 114.4,238.0 L 114.4,237.9 L 114.7,237.4 L 114.7,237.2 L 114.9,236.9 L 115.0,236.8 L 114.7,236.7 L 114.3,236.8 L 114.1,237.3 L 114.0,237.4 L 113.9,237.3 L 113.8,237.3 L 113.4,237.9 L 113.4,238.2 L 113.5,238.4 L 113.5,238.8 L 113.8,238.8 L 114.1,239.1 L 114.2,239.3 L 114.1,239.3 L 113.8,239.2 L 113.4,239.2 L 113.2,239.1 L 113.1,239.3 L 112.8,239.4 L 112.6,240.0 L 112.5,240.0 L 112.3,239.7 L 112.1,239.5 L 112.0,239.4 L 111.8,239.6 L 111.6,239.7 L 111.3,239.7 L 111.1,239.9 L 110.9,240.4 L 110.7,240.7 L 110.3,241.3 L 110.1,241.4 L 109.8,241.4 L 109.6,241.6 L 109.4,241.8 L 109.1,242.2 L 108.8,242.5 L 108.8,242.5 L 108.5,242.8 L 108.3,242.9 L 108.2,242.7 L 108.2,242.4 L 108.1,242.2 L 108.1,241.8 L 108.0,241.5 L 108.0,241.2 L 108.3,240.8 L 108.4,240.7 L 108.9,240.5 L 109.1,240.2 L 109.1,239.7 L 109.0,239.4 L 108.8,238.9 L 108.8,238.8 L 109.1,238.9 L 110.2,238.7 L 110.7,238.3 L 111.0,237.8 L 111.1,237.6 L 111.0,237.4 L 110.4,237.0 L 110.2,237.1 L 110.0,237.2 L 109.2,237.3 L 109.2,237.2 L 109.8,236.5 L 109.8,236.3 L 109.7,236.2 L 109.1,236.6 L 108.8,236.6 L 108.7,236.5 L 109.0,236.1 L 109.3,235.8 L 109.8,235.4 L 109.7,235.3 L 109.2,235.5 L 109.1,235.4 L 109.6,234.7 L 109.9,234.5 L 110.2,233.8 L 110.7,233.4 L 110.9,233.2 L 110.9,233.0 L 110.9,232.8 L 110.4,232.6 L 110.3,231.9 L 110.2,231.8 L 110.0,232.3 L 109.8,232.3 L 109.8,232.0 L 109.2,232.0 L 109.0,231.8 L 108.6,231.7 L 108.1,231.9 L 107.6,232.1 L 106.9,232.7 L 106.8,232.7 L 106.6,232.9 L 106.4,232.8 L 106.1,232.9 L 105.9,233.1 L 105.9,233.3 L 105.3,233.6 L 105.1,233.8 L 104.8,234.5 L 104.7,234.6 L 104.6,234.4 L 104.5,234.3 L 104.6,234.1 L 104.5,234.0 L 104.3,233.8 L 104.3,233.7 L 104.8,233.3 L 104.8,233.1 L 104.6,233.1 L 104.1,233.2 L 103.6,233.5 L 103.4,233.5 L 103.7,232.9 L 103.6,232.8 L 103.0,233.1 L 102.6,233.3 L 100.5,229.9 L 100.9,229.6 L 101.8,229.2 L 102.1,228.7 L 102.2,228.4 L 102.3,228.2 L 102.5,227.8 L 102.6,227.5 L 102.8,227.1 L 102.8,226.9 L 102.6,226.8 L 102.1,226.9 L 101.9,227.0 L 101.7,226.8 L 101.5,226.8 L 101.3,226.8 L 101.0,226.8 L 100.9,226.7 L 100.6,226.6 L 100.0,226.7 L 99.8,226.8 L 99.5,227.1 L 99.6,227.2 L 99.7,227.4 L 99.2,227.5 L 98.7,227.6 L 98.5,227.9 L 97.8,228.0 L 97.7,228.2 L 97.6,228.7 L 81.6,229.1 L 81.6,229.0 L 81.1,228.7 L 80.8,228.7 L 80.2,228.9 L 79.9,228.8 L 79.5,228.8 L 79.5,229.0 L 78.9,229.1 L 78.8,229.2 L 78.9,229.4 L 79.5,229.5 L 79.6,229.6 L 79.1,229.7 L 79.0,229.7 L 78.5,229.8 L 78.5,229.5 L 78.3,229.5 L 78.0,229.6 L 77.7,229.8 L 77.6,229.7 L 77.3,229.8 L 77.1,229.7 L 77.1,229.1 L 77.1,229.0 L 76.8,229.0 L 76.7,229.1 L 76.2,229.2 L 75.9,229.3 L 75.7,229.8 L 75.5,229.9 L 75.4,230.0 L 75.5,230.3 L 75.4,230.5 L 75.5,230.7 L 75.8,230.8 L 76.1,230.7 L 76.6,230.4 L 76.9,230.3 L 77.2,230.3 L 77.5,230.5 L 77.6,230.5 L 77.8,230.5 L 76.0,234.1 L 75.8,234.4 L 75.7,234.3 L 74.9,234.5 L 74.4,234.7 L 74.2,234.9 L 73.9,235.1 L 73.4,235.2 L 73.4,235.3 L 73.5,235.4 L 73.6,235.6 L 73.8,235.8 L 73.7,236.0 L 73.9,236.1 L 74.1,236.2 L 74.0,236.3 L 73.7,236.9 L 73.5,236.9 L 73.3,237.0 L 73.2,236.7 L 72.6,236.9 L 72.1,236.9 L 72.0,236.8 L 71.9,236.8 L 71.4,236.7 L 71.0,236.9 L 70.7,237.1 L 70.8,237.3 L 70.3,237.8 L 70.3,237.8 L 70.2,237.8 L 70.2,237.7 L 70.2,237.4 L 70.1,237.3 L 69.9,237.2 L 69.7,237.3 L 69.6,237.2 L 69.3,237.3 L 68.9,237.4 L 68.6,237.6 L 68.1,238.2 L 68.1,237.8 L 68.0,237.8 L 67.5,238.7 L 67.2,239.4 L 67.0,239.7 L 66.8,240.0 L 66.8,240.2 L 67.1,240.3 L 67.2,240.4 L 67.1,240.6 L 67.1,240.8 L 67.3,240.8 L 67.6,240.6 L 68.0,240.6 L 68.1,240.7 L 67.9,241.0 L 67.9,241.2 L 68.0,241.3 L 68.1,241.5 L 67.9,241.7 L 67.1,242.3 L 66.8,242.7 L 66.2,243.7 L 66.1,243.8 L 65.8,243.5 L 65.6,243.5 L 65.3,243.7 L 64.8,244.3 L 64.4,244.4 L 64.0,244.8 L 64.1,245.1 L 64.0,245.2 L 63.8,245.3 L 63.6,245.8 L 63.6,246.1 L 63.4,246.2 L 62.7,247.6 L 62.5,247.7 L 62.5,247.2 L 62.2,247.4 L 61.9,247.7 L 61.7,247.7 L 62.0,247.0 L 62.0,247.0 L 61.7,247.1 L 61.1,247.5 L 60.8,247.6 L 60.7,247.5 L 60.9,246.9 L 60.9,246.8 L 60.3,246.6 L 60.2,246.8 L 60.1,246.9 L 60.0,247.1 L 59.8,247.2 L 59.6,247.1 L 59.3,246.9 L 58.7,247.0 L 58.6,247.2 L 58.4,247.4 L 58.1,247.3 L 57.6,246.5 L 57.6,246.2 L 57.8,246.0 L 57.8,245.5 L 57.9,245.3 L 57.8,245.1 L 57.7,245.0 L 57.4,244.5 L 57.3,244.4 L 57.2,244.6 L 57.1,244.5 L 57.0,244.0 L 56.4,243.2 L 56.1,242.8 L 56.0,243.1 L 55.9,243.5 L 56.0,244.0 L 55.6,244.3 L 55.4,244.9 L 55.3,245.3 L 54.6,245.1 L 54.5,244.9 L 54.5,244.9 L 54.4,245.0 L 54.1,245.0 L 53.9,244.9 L 53.9,244.5 L 53.9,244.0 L 53.8,243.4 L 53.4,242.6 L 53.4,242.5 L 53.2,242.4 L 53.0,242.5 L 52.7,242.9 L 52.4,243.0 L 52.2,243.1 L 52.2,243.3 L 52.4,243.6 L 52.4,243.8 L 52.1,244.0 L 51.9,244.4 L 51.9,244.5 L 49.5,243.9 L 49.1,243.8 L 49.2,243.3 L 49.1,242.9 L 48.7,242.3 L 48.5,242.3 L 48.1,242.5 L 47.8,242.6 L 47.8,242.5 L 48.1,242.0 L 48.0,241.8 L 47.6,241.8 L 47.3,242.2 L 46.9,242.3 L 46.7,241.9 L 46.6,242.0 L 46.6,242.4 L 46.6,242.5 L 46.5,242.4 L 46.2,241.7 L 46.0,241.3 L 45.9,241.2 L 45.7,241.2 L 45.5,241.8 L 45.3,242.0 L 44.7,241.6 L 44.4,241.6 L 44.2,241.7 L 43.4,237.3 L 43.8,237.3 L 43.9,236.2 L 44.0,236.1 L 44.0,236.2 L 44.2,236.8 L 44.3,236.9 L 44.6,236.8 L 44.7,236.7 L 44.9,236.7 L 45.1,235.9 L 45.2,234.9 L 45.3,234.7 L 45.2,234.7 L 44.9,234.8 L 44.8,234.8 L 44.6,234.4 L 44.6,234.4 L 44.5,234.7 L 44.4,234.7 L 44.2,234.6 L 44.1,234.6 L 44.0,234.8 L 43.8,234.8 L 43.7,234.8 L 43.4,234.9 L 43.0,235.2 L 42.8,235.2 L 42.7,235.2 L 42.7,235.1 L 42.4,234.2 L 43.4,234.1 L 44.1,233.4 L 44.0,233.3 L 43.9,233.2 L 43.7,233.1 L 43.6,232.4 L 43.2,232.0 L 43.1,231.7 L 42.9,231.0 L 42.6,230.5 L 42.4,230.3 L 42.2,230.3 L 41.9,230.2 L 41.8,230.3 L 41.7,230.7 L 41.6,230.8 L 41.4,231.0 L 41.4,231.0 L 40.0,227.6" fill="none" stroke="black" stroke-width="2"/>
</svg>