<?xml version="1.0" encoding="UTF-8"?>
<svg width="400" height="400" viewBox="0 0 400 400" xmlns="http://www.w3.org/2000/svg">
  <rect width="400" height="400" fill="white"/>
  <path d="M 80.3,213.6 L 80.2,211.8 L 80.0,211.3 L 79.5,210.2 L 79.4,209.4 L 79.0,209.1 L 78.7,208.4 L 78.4,205.5 L 78.7,203.4 L 78.7,203.2 L 78.9,201.9 L 79.0,200.8 L 79.3,199.4 L 80.5,196.6 L 80.9,195.1 L 81.0,195.0 L 81.7,193.4 L 82.5,192.7 L 83.0,191.3 L 83.0,190.6 L 83.5,190.5 L 83.6,190.2 L 83.6,189.8 L 83.6,189.4 L 84.8,186.7 L 84.8,186.6 L 85.1,185.7 L 85.1,184.3 L 85.2,183.9 L 85.3,183.3 L 86.0,182.6 L 86.4,181.3 L 86.4,180.0 L 86.8,179.2 L 86.8,178.5 L 87.2,178.4 L 87.1,177.9 L 86.5,176.3 L 86.3,175.8 L 86.0,174.8 L 85.6,173.8 L 85.5,173.4 L 85.1,171.8 L 85.1,171.2 L 85.2,170.9 L 85.9,169.4 L 85.9,169.2 L 86.4,168.2 L 86.5,168.1 L 87.4,166.0 L 88.0,165.0 L 87.8,163.9 L 87.8,163.8 L 88.3,162.6 L 88.4,161.8 L 89.2,160.5 L 89.2,159.6 L 89.0,159.0 L 88.9,156.5 L 88.8,156.0 L 88.7,155.2 L 88.6,154.8 L 88.5,154.0 L 88.1,152.5 L 87.7,151.9 L 87.5,151.2 L 87.1,150.6 L 87.1,150.5 L 87.1,149.8 L 87.2,149.4 L 87.4,148.3 L 87.8,147.4 L 88.3,147.0 L 88.6,146.1 L 89.2,145.4 L 89.2,144.1 L 89.4,142.6 L 89.2,138.9 L 89.9,136.1 L 90.5,135.0 L 90.9,133.0 L 90.8,132.6 L 90.6,132.2 L 90.8,129.7 L 91.2,126.2 L 91.2,122.5 L 91.3,121.8 L 91.3,121.3 L 91.2,120.7 L 91.2,120.0 L 91.2,119.5 L 91.2,119.1 L 90.9,118.6 L 90.5,118.1 L 90.4,117.9 L 89.8,117.7 L 89.3,117.5 L 88.9,117.2 L 88.4,116.9 L 87.8,116.6 L 87.6,116.5 L 87.3,116.1 L 87.1,115.5 L 86.5,113.4 L 86.1,112.6 L 85.5,111.9 L 85.3,111.2 L 85.1,109.5 L 85.2,107.8 L 85.5,106.5 L 85.6,105.5 L 85.5,104.1 L 85.2,103.2 L 85.2,101.9 L 85.3,101.4 L 85.7,97.6 L 85.9,96.9 L 86.3,95.7 L 86.5,95.4 L 86.8,95.0 L 86.9,94.5 L 86.9,93.1 L 86.7,92.9 L 86.9,92.3 L 87.0,91.9 L 86.8,91.7 L 87.0,91.1 L 87.2,90.5 L 87.5,89.3 L 87.3,88.5 L 87.3,88.1 L 87.4,87.4 L 87.4,86.5 L 87.8,85.5 L 87.7,84.6 L 87.4,84.5 L 87.2,84.2 L 86.7,82.6 L 86.1,81.3 L 86.0,81.0 L 85.5,80.2 L 84.7,78.6 L 83.7,77.2 L 83.3,76.7 L 151.7,40.2 L 152.1,40.0 L 152.0,40.5 L 151.8,40.7 L 151.3,41.8 L 151.6,43.7 L 151.8,44.5 L 152.1,44.7 L 152.1,45.2 L 152.2,45.6 L 152.6,45.7 L 152.8,46.1 L 152.7,46.4 L 152.8,46.7 L 153.5,47.0 L 153.5,47.0 L 153.8,47.7 L 153.9,48.0 L 154.0,48.5 L 154.5,49.5 L 154.8,50.4 L 155.2,51.0 L 155.3,51.5 L 155.5,52.2 L 156.3,52.5 L 157.1,52.4 L 157.9,52.2 L 158.2,52.0 L 158.4,51.8 L 158.7,51.9 L 158.8,51.9 L 158.9,52.2 L 159.7,52.1 L 159.9,51.9 L 160.2,51.9 L 160.6,51.6 L 161.1,51.5 L 161.7,50.8 L 161.9,49.8 L 161.9,49.3 L 162.0,47.1 L 162.1,46.1 L 162.7,45.4 L 162.9,44.2 L 163.1,43.8 L 163.5,42.2 L 163.4,41.3 L 163.5,40.9 L 174.8,50.7 L 174.8,50.8 L 174.7,50.9 L 174.5,51.9 L 174.5,53.4 L 174.0,54.4 L 173.9,54.9 L 173.5,55.1 L 173.3,55.4 L 172.5,57.1 L 173.3,57.8 L 173.4,58.9 L 173.2,59.7 L 172.8,60.2 L 171.7,60.8 L 171.1,61.5 L 171.1,61.8 L 171.2,62.2 L 170.8,63.1 L 170.6,64.0 L 170.7,65.7 L 171.7,69.0 L 171.6,69.7 L 171.9,70.5 L 171.4,71.0 L 171.4,71.3 L 171.9,72.6 L 171.7,73.3 L 170.6,75.1 L 170.3,75.8 L 170.0,76.1 L 169.5,76.3 L 168.9,76.9 L 168.4,77.4 L 167.3,77.9 L 166.8,78.3 L 165.5,79.8 L 163.6,82.7 L 163.3,84.5 L 163.4,86.4 L 164.0,88.7 L 164.5,90.2 L 164.7,92.0 L 164.8,93.2 L 164.8,94.0 L 164.7,95.2 L 164.2,96.6 L 162.5,99.2 L 162.1,100.6 L 162.1,101.4 L 162.3,102.1 L 162.7,103.0 L 163.4,105.3 L 163.8,106.1 L 164.1,106.6 L 164.9,107.2 L 165.0,108.0 L 164.9,108.4 L 164.6,108.7 L 163.2,109.5 L 162.8,109.9 L 162.9,112.1 L 162.7,113.0 L 162.3,113.6 L 162.2,114.0 L 161.8,115.0 L 161.9,115.6 L 162.0,116.1 L 162.2,116.5 L 162.6,117.2 L 162.8,120.0 L 163.5,121.3 L 163.8,121.9 L 164.1,122.2 L 164.9,122.6 L 165.7,122.8 L 166.0,122.9 L 166.3,122.9 L 166.9,123.2 L 167.4,123.5 L 168.0,123.6 L 168.5,123.6 L 169.1,123.6 L 169.7,123.8 L 170.0,123.8 L 170.3,123.9 L 170.5,123.9 L 171.2,124.0 L 171.8,124.2 L 172.2,124.4 L 172.7,124.6 L 173.2,124.7 L 173.3,124.7 L 173.9,125.1 L 174.3,125.2 L 174.5,125.3 L 175.0,125.6 L 175.3,125.8 L 175.6,126.0 L 176.1,126.3 L 176.4,126.7 L 176.7,127.1 L 177.1,127.5 L 177.6,127.7 L 177.8,127.7 L 178.2,127.6 L 178.4,127.6 L 178.6,127.7 L 179.1,127.9 L 179.3,128.1 L 179.5,128.3 L 179.7,128.7 L 179.7,128.9 L 179.6,129.0 L 179.6,129.2 L 179.9,129.5 L 180.3,129.8 L 180.7,130.3 L 181.2,130.6 L 181.4,130.5 L 181.5,130.5 L 181.7,130.4 L 181.9,129.8 L 182.6,129.7 L 183.1,129.8 L 183.6,129.9 L 183.7,129.9 L 184.1,130.3 L 184.3,130.4 L 184.4,130.3 L 184.7,130.0 L 185.1,129.9 L 185.3,129.8 L 185.5,129.4 L 185.7,129.1 L 186.1,128.8 L 186.4,128.7 L 186.9,128.8 L 187.3,128.8 L 187.9,128.5 L 187.9,128.3 L 188.0,127.9 L 188.0,127.7 L 188.4,127.3 L 188.9,127.0 L 189.1,126.9 L 189.1,126.9 L 189.4,127.0 L 189.6,127.2 L 190.2,127.3 L 190.5,127.8 L 190.9,128.2 L 191.0,128.1 L 191.2,127.8 L 191.3,127.5 L 191.1,127.2 L 190.7,126.8 L 190.6,126.4 L 190.4,125.8 L 190.0,125.4 L 189.9,125.0 L 189.6,124.4 L 189.3,123.8 L 189.3,123.8 L 189.1,123.2 L 188.9,123.0 L 188.6,122.8 L 188.7,122.4 L 188.8,122.2 L 189.0,121.8 L 189.1,121.7 L 189.4,121.4 L 189.7,121.0 L 189.7,120.9 L 189.5,120.4 L 189.5,120.0 L 189.5,119.6 L 189.4,119.5 L 189.0,119.3 L 188.9,119.2 L 188.7,118.7 L 188.8,118.2 L 189.1,117.8 L 189.5,117.2 L 189.4,116.5 L 189.2,115.9 L 189.1,115.9 L 189.0,115.5 L 189.0,115.4 L 189.0,115.3 L 189.3,114.8 L 189.5,114.7 L 189.6,114.7 L 190.0,114.8 L 190.6,115.1 L 190.6,115.1 L 190.6,114.9 L 190.6,114.8 L 189.4,113.9 L 189.2,113.6 L 189.2,113.3 L 189.4,113.3 L 189.6,113.4 L 189.7,113.7 L 189.9,113.9 L 190.7,113.7 L 191.9,113.2 L 192.0,113.2 L 193.1,112.8 L 193.7,112.8 L 194.2,113.0 L 194.7,114.0 L 195.1,114.5 L 198.0,115.9 L 198.4,116.8 L 199.3,117.2 L 200.3,117.8 L 200.5,117.9 L 200.5,118.1 L 200.6,118.3 L 202.6,119.0 L 204.7,119.9 L 209.5,121.9 L 215.1,123.7 L 217.2,124.6 L 219.0,125.9 L 219.7,126.4 L 221.0,127.4 L 221.9,128.0 L 222.4,128.9 L 223.2,129.4 L 224.1,129.6 L 224.3,129.3 L 224.3,129.2 L 224.3,129.0 L 224.3,129.0 L 224.6,129.3 L 225.6,130.1 L 226.6,130.4 L 227.2,130.8 L 228.5,132.0 L 229.2,133.0 L 230.1,134.8 L 230.5,135.5 L 233.0,138.3 L 233.6,138.8 L 235.1,139.2 L 236.4,140.3 L 238.0,140.9 L 238.8,141.4 L 240.2,142.0 L 241.1,142.8 L 242.0,143.8 L 242.8,144.6 L 243.7,145.3 L 244.6,146.2 L 245.1,146.6 L 246.2,147.5 L 246.8,147.9 L 246.9,148.0 L 247.4,148.4 L 248.2,149.0 L 248.5,149.2 L 249.2,149.6 L 250.2,150.0 L 250.7,150.6 L 251.1,151.3 L 251.5,151.6 L 251.8,151.9 L 252.0,152.0 L 252.5,152.2 L 253.0,152.6 L 253.9,154.2 L 254.2,155.2 L 254.4,155.7 L 254.9,156.3 L 255.6,156.7 L 256.1,157.2 L 256.6,158.1 L 256.6,158.7 L 257.3,159.9 L 257.5,160.3 L 257.5,160.3 L 258.5,161.9 L 259.7,162.8 L 261.5,163.7 L 261.6,163.8 L 263.7,165.5 L 266.7,167.7 L 268.8,169.4 L 270.3,171.0 L 270.6,171.3 L 271.8,172.4 L 272.1,172.7 L 272.4,173.0 L 273.0,174.0 L 275.4,178.5 L 275.8,179.9 L 276.2,181.1 L 276.4,181.5 L 276.6,182.5 L 276.5,183.9 L 276.8,183.9 L 278.0,185.3 L 278.4,185.5 L 278.7,185.8 L 279.4,186.8 L 279.7,187.1 L 280.2,187.9 L 281.3,189.1 L 282.0,189.7 L 282.1,189.9 L 282.8,190.8 L 283.9,191.6 L 286.4,194.3 L 286.5,194.4 L 287.5,195.6 L 288.2,196.1 L 288.4,196.3 L 290.5,198.0 L 293.6,200.9 L 294.5,201.7 L 296.1,203.4 L 297.5,204.6 L 297.8,204.9 L 298.3,205.4 L 299.1,206.2 L 299.7,206.8 L 300.3,207.5 L 300.6,208.4 L 300.6,208.4 L 300.7,208.8 L 300.7,209.1 L 300.6,209.5 L 300.6,209.9 L 300.5,210.3 L 300.4,210.7 L 300.4,211.1 L 300.3,211.6 L 300.2,212.0 L 300.2,212.4 L 300.1,212.8 L 300.0,213.2 L 299.9,213.6 L 299.7,213.9 L 299.6,214.3 L 299.5,214.6 L 299.3,214.9 L 299.2,215.2 L 299.1,215.4 L 299.0,215.5 L 298.6,216.0 L 298.2,216.3 L 297.9,216.4 L 297.5,216.2 L 297.4,216.1 L 296.8,215.8 L 296.3,215.6 L 296.1,215.6 L 295.9,215.8 L 295.7,216.3 L 295.5,216.6 L 295.4,216.6 L 295.4,217.0 L 295.3,217.1 L 295.0,217.2 L 294.8,217.4 L 294.3,217.8 L 294.2,218.3 L 294.1,218.5 L 293.6,218.9 L 293.5,219.0 L 293.5,219.3 L 293.5,219.6 L 293.7,219.8 L 293.9,220.1 L 294.1,220.3 L 294.5,220.7 L 295.0,220.9 L 295.4,221.0 L 295.5,221.1 L 296.1,221.3 L 296.4,221.2 L 296.9,220.8 L 297.1,220.7 L 297.3,220.7 L 297.8,220.8 L 298.4,221.1 L 298.7,221.4 L 299.0,221.8 L 299.4,222.4 L 299.6,222.9 L 299.7,223.2 L 299.8,223.5 L 300.0,224.1 L 300.0,224.5 L 300.2,224.8 L 300.2,225.2 L 300.3,225.6 L 300.4,225.9 L 300.5,226.3 L 300.7,227.0 L 300.7,227.3 L 301.0,227.9 L 301.2,228.4 L 301.2,228.4 L 301.4,229.0 L 301.6,229.2 L 301.9,229.3 L 302.4,229.5 L 302.9,229.9 L 303.0,230.0 L 303.0,230.4 L 302.7,230.9 L 302.4,231.2 L 302.2,231.4 L 302.1,231.6 L 302.2,232.0 L 302.3,232.4 L 302.6,232.6 L 303.2,232.6 L 303.2,232.8 L 303.7,234.0 L 303.8,234.1 L 303.9,234.4 L 304.0,234.5 L 304.5,234.6 L 304.8,234.8 L 305.2,235.3 L 305.5,235.7 L 305.9,236.1 L 306.3,236.7 L 306.7,237.2 L 307.0,237.8 L 307.3,238.0 L 307.4,238.1 L 307.8,238.1 L 308.2,238.3 L 308.4,238.6 L 308.7,238.6 L 308.9,238.8 L 309.2,239.0 L 309.7,239.4 L 310.0,239.9 L 310.2,240.3 L 310.3,240.5 L 310.5,241.1 L 310.7,241.8 L 310.8,242.4 L 310.9,243.0 L 311.0,243.5 L 311.1,243.9 L 311.2,244.1 L 311.4,244.6 L 311.4,244.7 L 311.4,244.8 L 311.2,244.9 L 310.6,245.2 L 310.5,245.3 L 310.4,245.4 L 310.4,245.5 L 310.4,245.7 L 310.3,246.2 L 310.1,246.8 L 309.9,247.5 L 309.6,248.0 L 309.4,248.6 L 309.2,249.1 L 309.1,249.2 L 308.9,249.6 L 308.6,250.1 L 308.2,250.4 L 307.9,250.5 L 307.6,250.7 L 307.4,250.9 L 307.3,251.3 L 307.2,251.5 L 307.0,251.5 L 306.6,251.3 L 306.3,251.5 L 306.2,251.7 L 306.2,252.3 L 306.3,252.6 L 306.4,253.2 L 306.3,253.3 L 306.1,253.9 L 306.2,254.0 L 306.3,254.3 L 306.5,254.7 L 306.9,255.2 L 307.6,255.8 L 307.9,256.1 L 308.2,256.8 L 308.6,257.6 L 308.7,258.7 L 308.7,259.1 L 308.3,260.0 L 308.2,260.4 L 308.5,261.0 L 308.7,261.3 L 309.2,261.9 L 309.5,262.1 L 310.6,263.3 L 311.6,263.5 L 311.7,263.5 L 312.3,263.9 L 313.0,264.6 L 313.3,265.4 L 313.7,266.0 L 314.1,268.2 L 314.1,268.2 L 313.8,269.7 L 313.7,270.0 L 313.5,270.3 L 313.6,270.7 L 314.0,271.1 L 314.9,271.6 L 315.5,272.0 L 316.1,272.7 L 317.5,274.3 L 317.8,274.7 L 318.0,275.2 L 319.1,276.6 L 320.5,277.7 L 322.6,279.3 L 323.2,279.9 L 323.1,280.0 L 276.8,329.7 L 276.6,330.0 L 276.2,329.8 L 276.0,329.7 L 275.5,330.0 L 275.2,330.4 L 274.8,330.9 L 274.4,331.2 L 274.1,331.5 L 273.8,331.5 L 273.4,331.4 L 273.1,331.4 L 272.6,331.7 L 272.2,332.2 L 272.0,332.5 L 271.9,332.6 L 271.6,332.7 L 271.4,332.7 L 271.3,333.0 L 271.3,333.2 L 271.3,333.5 L 271.1,333.8 L 270.9,333.7 L 270.8,333.7 L 270.6,334.1 L 270.9,334.7 L 270.8,334.7 L 270.8,335.0 L 270.5,335.4 L 270.2,336.0 L 270.1,336.5 L 269.8,337.0 L 269.5,337.6 L 269.1,338.0 L 268.5,338.4 L 268.0,338.8 L 267.6,339.2 L 267.1,339.5 L 267.0,339.6 L 266.9,339.7 L 266.6,340.0 L 266.1,340.1 L 265.7,340.5 L 265.6,340.7 L 265.3,341.0 L 265.1,341.0 L 265.1,341.0 L 264.7,340.9 L 264.5,340.8 L 264.4,341.2 L 264.6,341.6 L 264.6,341.7 L 264.5,342.1 L 264.4,342.3 L 264.1,342.6 L 263.9,342.7 L 263.7,342.9 L 263.2,343.3 L 263.0,343.5 L 262.4,343.9 L 262.1,344.1 L 261.9,344.1 L 261.8,344.3 L 261.2,344.6 L 260.9,344.7 L 260.7,344.8 L 260.1,345.1 L 259.7,345.1 L 259.2,345.3 L 258.8,345.6 L 258.5,346.0 L 258.3,346.4 L 258.0,346.9 L 257.8,347.4 L 257.6,347.8 L 257.6,348.1 L 257.7,348.7 L 257.4,349.1 L 257.1,349.7 L 256.8,350.1 L 256.5,350.6 L 256.4,351.0 L 256.3,351.2 L 255.9,351.7 L 255.7,352.1 L 255.4,352.6 L 255.4,352.8 L 255.3,353.1 L 255.2,353.8 L 255.1,354.4 L 255.0,355.1 L 254.9,355.4 L 254.9,355.8 L 254.7,356.4 L 254.6,356.9 L 254.3,357.5 L 254.0,357.9 L 253.7,358.2 L 253.4,358.6 L 252.9,359.0 L 252.3,359.2 L 251.8,359.5 L 251.3,359.9 L 251.2,360.0 L 250.4,359.9 L 213.7,354.3 L 213.7,354.2 L 213.8,353.6 L 214.0,353.2 L 214.1,352.6 L 214.0,352.1 L 213.7,351.5 L 213.4,350.9 L 213.2,350.3 L 213.0,349.7 L 212.7,349.4 L 212.3,349.0 L 212.2,348.9 L 212.0,348.4 L 211.7,347.9 L 211.6,347.2 L 211.4,346.9 L 210.8,346.5 L 210.2,346.5 L 210.0,346.6 L 209.9,346.5 L 209.5,346.1 L 209.4,345.9 L 209.3,345.6 L 209.1,345.1 L 209.0,344.6 L 209.1,344.1 L 209.2,343.6 L 209.6,343.0 L 209.6,342.6 L 209.8,342.2 L 210.0,341.6 L 210.1,341.3 L 210.2,341.0 L 210.5,340.4 L 210.8,339.9 L 211.0,339.5 L 211.1,339.3 L 211.4,338.7 L 211.8,338.2 L 212.1,337.9 L 212.2,337.7 L 212.6,337.4 L 212.9,337.2 L 213.2,336.8 L 213.2,336.8 L 213.5,336.4 L 213.9,335.9 L 214.1,335.8 L 214.4,335.6 L 214.5,335.5 L 214.5,335.4 L 214.3,334.9 L 214.2,334.4 L 214.3,333.9 L 214.4,333.3 L 214.5,332.6 L 214.6,332.3 L 214.7,331.6 L 214.9,331.0 L 215.0,330.4 L 215.0,329.7 L 215.1,329.2 L 215.1,329.1 L 215.2,328.7 L 215.4,328.3 L 215.4,327.7 L 215.3,327.2 L 215.4,326.7 L 215.4,326.2 L 215.4,325.6 L 215.4,325.0 L 215.4,324.6 L 215.5,324.3 L 215.6,323.8 L 215.7,323.4 L 215.8,323.0 L 215.9,322.6 L 216.0,322.2 L 216.1,321.9 L 216.2,321.5 L 216.3,321.1 L 216.3,320.7 L 216.4,320.3 L 216.4,319.9 L 216.4,319.5 L 216.3,318.9 L 216.3,318.5 L 216.3,318.1 L 216.3,317.8 L 216.5,317.2 L 216.7,317.0 L 216.8,316.4 L 216.8,316.1 L 216.8,315.7 L 216.8,315.3 L 216.8,314.9 L 216.9,314.5 L 216.9,314.5 L 216.9,314.3 L 217.0,314.1 L 217.0,313.8 L 217.1,313.7 L 217.3,313.2 L 217.3,312.9 L 217.2,312.4 L 217.1,311.8 L 217.2,311.4 L 217.2,311.1 L 217.2,310.6 L 217.2,310.0 L 217.2,309.4 L 217.1,308.8 L 217.1,308.2 L 217.0,308.1 L 216.8,308.0 L 216.5,308.0 L 216.3,307.9 L 216.1,307.8 L 215.7,307.5 L 215.3,307.1 L 215.0,306.7 L 214.9,306.7 L 214.6,306.4 L 214.1,306.0 L 213.7,305.7 L 213.3,305.3 L 213.0,305.0 L 212.6,304.6 L 212.4,304.2 L 212.0,303.7 L 211.8,303.2 L 211.6,302.7 L 211.6,302.3 L 211.7,301.9 L 211.6,301.4 L 211.3,300.8 L 210.8,300.4 L 210.4,299.8 L 210.1,299.4 L 209.8,298.9 L 209.7,298.3 L 209.5,297.9 L 209.5,297.6 L 209.5,297.4 L 209.5,296.9 L 209.6,296.4 L 209.5,295.8 L 209.4,295.3 L 209.3,294.7 L 209.0,294.3 L 208.9,293.8 L 208.8,293.6 L 208.7,293.3 L 208.5,292.8 L 208.2,292.2 L 207.8,291.9 L 207.3,291.6 L 207.0,291.6 L 206.7,291.5 L 206.1,291.4 L 206.1,291.4 L 205.6,291.1 L 205.0,290.7 L 204.6,290.2 L 204.4,289.7 L 204.2,289.3 L 204.1,289.1 L 204.0,288.9 L 204.0,288.3 L 204.0,288.2 L 204.2,287.8 L 204.1,287.6 L 203.8,287.0 L 203.5,286.7 L 203.1,286.3 L 203.0,286.2 L 202.7,285.8 L 202.3,285.5 L 202.0,285.3 L 201.6,284.9 L 201.1,284.5 L 200.6,284.1 L 200.2,283.7 L 199.8,283.1 L 199.3,282.9 L 199.3,282.9 L 198.7,282.7 L 198.4,282.7 L 198.2,282.6 L 197.8,282.1 L 197.6,281.9 L 197.3,281.5 L 197.0,281.1 L 196.9,280.9 L 196.5,280.8 L 195.9,280.7 L 195.2,280.7 L 194.6,280.7 L 193.9,280.5 L 193.3,280.3 L 192.8,280.3 L 192.6,280.1 L 192.3,280.0 L 192.2,280.1 L 192.0,280.3 L 192.0,280.4 L 191.9,280.6 L 191.9,280.6 L 191.3,280.7 L 190.8,280.7 L 190.3,280.9 L 189.6,281.1 L 189.0,281.2 L 188.5,281.2 L 188.0,281.1 L 187.9,281.1 L 187.4,280.9 L 186.9,280.6 L 186.6,280.2 L 186.5,280.1 L 186.3,279.9 L 186.2,279.7 L 186.1,279.6 L 185.8,279.2 L 185.4,278.8 L 185.0,278.5 L 184.4,278.2 L 183.9,278.0 L 183.2,277.9 L 182.6,277.9 L 181.9,277.9 L 181.8,277.9 L 181.7,277.8 L 181.3,277.5 L 181.0,277.4 L 180.9,277.3 L 180.4,277.3 L 179.8,277.3 L 179.2,277.3 L 178.7,277.2 L 178.2,276.9 L 178.1,276.9 L 177.9,276.9 L 177.4,276.5 L 177.2,276.2 L 176.9,275.7 L 176.7,275.2 L 176.7,274.7 L 176.7,274.6 L 176.5,274.4 L 176.1,273.9 L 175.9,273.3 L 175.6,272.7 L 175.1,272.2 L 174.7,271.7 L 174.4,271.5 L 174.0,271.0 L 173.8,270.4 L 173.6,270.2 L 173.4,270.1 L 173.4,270.1 L 173.2,269.9 L 173.0,269.6 L 173.0,269.5 L 172.9,268.9 L 172.7,268.7 L 171.7,268.5 L 171.4,268.5 L 171.2,268.4 L 170.8,268.2 L 170.6,268.0 L 168.9,267.2 L 168.0,266.5 L 167.0,265.6 L 164.8,264.3 L 163.7,264.3 L 162.1,263.6 L 161.4,263.3 L 159.8,261.5 L 156.9,259.0 L 154.2,257.5 L 150.2,254.0 L 149.6,253.5 L 148.3,252.4 L 146.9,251.7 L 145.8,251.4 L 144.1,251.3 L 142.2,250.7 L 139.7,250.8 L 139.1,250.7 L 137.4,250.5 L 134.3,250.0 L 132.7,249.2 L 131.3,247.9 L 130.6,247.2 L 130.1,246.8 L 128.9,245.8 L 127.2,244.6 L 124.7,242.5 L 123.1,241.5 L 122.0,240.8 L 120.5,240.2 L 120.3,240.1 L 120.1,240.0 L 119.9,240.0 L 119.6,240.0 L 119.0,239.9 L 118.4,239.9 L 117.7,239.9 L 117.0,239.9 L 116.4,239.9 L 115.9,240.0 L 115.5,240.0 L 114.9,240.0 L 114.7,239.7 L 114.5,239.7 L 114.4,239.7 L 114.2,239.4 L 114.2,239.3 L 114.0,239.3 L 114.2,239.7 L 114.2,240.0 L 114.4,240.3 L 114.3,240.7 L 113.8,241.2 L 113.4,241.7 L 113.0,242.1 L 112.6,242.5 L 112.2,242.6 L 112.0,242.8 L 111.5,243.0 L 110.9,243.1 L 110.7,243.3 L 110.1,243.4 L 109.6,243.5 L 109.1,243.6 L 108.9,243.6 L 108.7,243.6 L 108.7,243.6 L 108.3,243.7 L 108.1,243.8 L 108.1,244.0 L 108.1,244.0 L 108.2,244.3 L 108.2,244.6 L 108.0,245.0 L 108.0,245.3 L 108.1,245.6 L 108.4,245.9 L 108.7,246.3 L 108.7,246.4 L 108.8,247.0 L 108.6,247.5 L 108.5,247.7 L 108.3,247.9 L 107.2,249.0 L 106.6,249.8 L 106.4,250.4 L 106.5,250.9 L 106.5,251.0 L 106.9,252.0 L 106.9,252.0 L 106.6,252.7 L 106.4,255.2 L 105.8,256.5 L 104.8,257.9 L 104.6,258.3 L 104.3,259.0 L 104.1,259.4 L 102.5,261.2 L 102.1,261.9 L 102.0,262.5 L 102.0,262.7 L 101.7,263.0 L 101.1,263.5 L 99.9,264.1 L 99.4,265.0 L 99.1,265.5 L 99.0,265.6 L 98.6,265.8 L 97.6,266.1 L 96.9,266.5 L 96.1,267.4 L 95.9,267.7 L 95.5,268.0 L 95.5,268.5 L 95.6,268.9 L 95.7,268.9 L 95.5,269.3 L 95.5,269.4 L 95.3,269.4 L 95.2,269.4 L 94.7,269.4 L 94.6,269.4 L 93.4,269.9 L 92.8,270.0 L 90.3,269.0 L 88.7,268.6 L 86.8,268.4 L 85.4,268.5 L 85.4,268.5 L 85.3,268.4 L 77.2,264.4 L 77.1,264.4 L 77.1,264.2 L 77.1,263.6 L 77.2,263.4 L 77.5,262.9 L 77.0,262.1 L 76.8,261.6 L 76.9,260.9 L 77.2,260.1 L 77.7,258.8 L 78.0,257.4 L 78.0,257.4 L 78.4,257.1 L 79.2,256.7 L 79.5,256.2 L 79.4,254.7 L 79.1,253.5 L 79.2,252.1 L 79.0,251.3 L 78.8,250.2 L 78.9,249.4 L 79.2,249.3 L 79.6,249.1 L 80.4,248.7 L 81.2,248.3 L 81.8,248.0 L 82.9,248.0 L 82.9,247.6 L 82.2,247.1 L 81.6,246.8 L 81.1,246.3 L 81.0,246.2 L 80.7,245.8 L 79.8,244.1 L 79.2,242.5 L 79.0,241.5 L 78.9,240.5 L 79.4,239.7 L 79.4,239.6 L 79.7,239.7 L 80.0,239.6 L 80.4,239.1 L 80.7,238.6 L 81.1,238.1 L 82.0,237.9 L 82.7,237.3 L 83.2,236.7 L 83.7,236.0 L 84.5,235.5 L 84.8,234.6 L 85.2,233.5 L 85.8,232.5 L 85.9,232.0 L 86.1,229.1 L 86.4,228.3 L 86.5,228.2 L 86.9,228.0 L 86.8,227.4 L 86.4,226.4 L 85.6,224.4 L 85.5,223.8 L 85.5,223.2 L 85.1,222.8 L 84.4,222.1 L 83.9,221.2 L 84.1,220.1 L 84.0,219.8 L 83.8,219.5 L 83.0,219.0 L 82.4,218.3 L 81.8,217.3 L 81.7,217.2 L 81.5,216.8 L 81.0,215.5 L 81.0,215.4 L 81.0,215.1 L 80.5,214.4 L 80.3,213.6" fill="none" stroke="black" stroke-width="2"/>
</svg>