<?xml version="1.0" encoding="UTF-8"?>
<svg width="400" height="400" viewBox="0 0 400 400" xmlns="http://www.w3.org/2000/svg">
  <rect width="400" height="400" fill="white"/>
  <path d="M 327.3,281.8 L 324.7,283.0 L 320.5,286.3 L 319.1,286.9 L 318.3,285.8 L 317.6,282.9 L 315.6,281.5 L 314.8,281.8 L 314.4,283.2 L 314.2,284.4 L 310.5,282.9 L 308.2,281.9 L 306.0,279.2 L 304.8,278.9 L 301.3,281.9 L 300.5,281.1 L 300.2,278.9 L 296.0,276.5 L 293.2,275.3 L 291.3,273.5 L 288.6,272.8 L 282.7,273.7 L 281.5,275.4 L 281.0,278.2 L 280.2,278.7 L 275.2,276.2 L 270.3,272.0 L 266.2,269.9 L 256.5,267.3 L 253.5,267.1 L 250.4,268.7 L 245.9,271.8 L 244.2,272.2 L 241.5,271.8 L 239.5,271.9 L 238.3,272.7 L 237.6,274.8 L 236.3,275.5 L 235.0,273.9 L 234.4,271.8 L 233.3,270.4 L 234.5,269.8 L 240.6,268.9 L 244.2,267.6 L 244.5,267.2 L 243.9,263.3 L 245.2,261.1 L 244.8,260.2 L 243.8,259.0 L 242.5,259.0 L 241.4,261.0 L 239.7,261.5 L 237.3,261.4 L 235.2,261.7 L 233.9,262.5 L 233.8,263.4 L 235.1,266.0 L 234.4,267.3 L 229.9,268.2 L 228.7,268.9 L 228.4,269.8 L 225.8,270.1 L 219.2,271.9 L 218.1,271.3 L 216.9,271.1 L 216.5,272.1 L 216.0,272.4 L 212.7,270.0 L 210.3,265.8 L 206.9,255.5 L 206.3,254.6 L 204.4,253.6 L 203.0,254.5 L 201.5,253.1 L 198.7,253.8 L 198.3,255.7 L 197.7,256.0 L 196.1,258.4 L 196.0,259.1 L 196.5,261.0 L 196.6,261.6 L 196.4,262.4 L 192.5,262.1 L 191.7,262.6 L 192.5,263.6 L 195.0,264.5 L 197.0,264.2 L 197.9,264.1 L 199.6,264.9 L 209.0,270.0 L 213.4,273.2 L 215.9,274.6 L 218.4,277.2 L 222.2,281.8 L 225.0,283.4 L 228.9,283.3 L 230.3,283.7 L 231.7,287.1 L 236.3,295.4 L 237.0,297.3 L 236.8,298.6 L 237.0,300.4 L 238.2,302.2 L 240.8,303.1 L 242.7,305.7 L 246.1,307.2 L 250.1,307.7 L 250.5,308.9 L 250.3,310.3 L 250.6,312.3 L 251.8,312.9 L 255.3,312.6 L 255.8,313.0 L 253.3,315.1 L 251.4,317.2 L 250.9,319.5 L 251.7,320.9 L 259.0,319.8 L 265.0,324.2 L 265.9,325.4 L 264.0,327.7 L 263.8,330.6 L 262.1,336.1 L 262.3,338.2 L 263.1,339.8 L 266.0,341.3 L 266.3,345.5 L 265.1,346.1 L 264.0,345.9 L 261.9,343.0 L 258.9,343.5 L 256.0,344.8 L 253.8,347.6 L 251.4,349.1 L 248.8,349.7 L 247.3,348.4 L 245.9,346.6 L 243.4,347.0 L 240.8,348.3 L 234.4,352.8 L 231.4,354.2 L 229.8,353.5 L 228.7,349.7 L 225.7,346.2 L 220.0,340.8 L 217.9,338.5 L 212.9,335.0 L 211.1,334.2 L 208.6,332.4 L 207.9,332.1 L 207.5,332.4 L 202.7,328.1 L 198.4,322.9 L 197.5,321.1 L 193.4,320.1 L 189.9,317.6 L 186.7,314.5 L 183.2,311.7 L 181.0,311.6 L 176.8,309.0 L 175.0,305.9 L 174.7,303.8 L 175.9,300.0 L 179.1,294.9 L 178.7,292.1 L 176.2,288.7 L 174.2,287.0 L 175.2,284.8 L 174.6,284.3 L 172.6,284.1 L 169.5,282.3 L 169.5,282.3 L 164.1,279.0 L 157.3,278.1 L 156.4,277.6 L 156.6,276.3 L 158.4,274.8 L 160.8,274.5 L 163.1,275.3 L 167.5,275.1 L 168.3,274.5 L 168.4,274.4 L 169.5,270.7 L 169.6,269.4 L 169.2,268.0 L 167.2,266.8 L 167.2,266.7 L 164.9,264.6 L 162.4,264.3 L 160.5,262.9 L 159.9,260.3 L 158.5,259.7 L 157.0,258.5 L 154.8,258.8 L 154.0,259.4 L 153.8,261.0 L 152.7,261.3 L 150.8,260.0 L 150.0,256.9 L 148.6,255.8 L 148.0,254.8 L 147.2,249.8 L 144.2,242.7 L 142.7,240.0 L 141.8,233.8 L 141.8,227.6 L 142.5,225.2 L 138.6,217.0 L 137.8,215.1 L 136.8,211.5 L 135.5,209.9 L 133.9,208.8 L 135.0,206.5 L 134.2,205.2 L 131.7,205.4 L 131.4,203.7 L 133.0,202.1 L 135.0,200.9 L 135.3,199.6 L 134.8,194.8 L 135.0,192.0 L 134.4,189.4 L 132.6,187.1 L 132.7,184.7 L 131.1,181.4 L 129.2,178.3 L 129.4,174.7 L 128.9,171.9 L 127.4,171.3 L 125.5,169.2 L 125.0,169.6 L 124.7,170.6 L 123.0,172.4 L 123.2,177.2 L 122.5,177.5 L 120.5,174.2 L 119.0,174.3 L 117.6,176.3 L 117.8,179.8 L 118.5,181.5 L 116.9,183.9 L 117.2,185.6 L 118.5,186.3 L 118.9,186.9 L 116.3,187.9 L 115.3,189.0 L 113.0,196.4 L 108.6,197.2 L 105.4,196.8 L 103.9,198.6 L 102.6,196.6 L 101.9,194.5 L 100.8,193.9 L 98.0,193.7 L 97.5,192.0 L 97.1,189.4 L 97.1,186.8 L 96.8,185.9 L 93.1,184.7 L 90.9,184.6 L 88.5,185.1 L 84.2,187.5 L 81.6,187.7 L 74.7,185.4 L 74.0,184.1 L 73.4,181.6 L 70.2,179.7 L 68.8,180.5 L 67.9,180.2 L 67.2,177.0 L 66.3,176.9 L 65.7,174.3 L 63.3,171.6 L 56.5,168.6 L 53.8,166.8 L 50.4,165.9 L 44.4,165.6 L 40.0,163.6 L 86.6,110.8 L 89.6,110.5 L 90.2,111.3 L 91.4,112.0 L 92.5,112.0 L 94.0,111.6 L 95.6,109.6 L 96.9,109.2 L 97.8,106.4 L 98.7,104.7 L 100.8,104.0 L 101.8,104.3 L 102.0,104.9 L 101.8,106.3 L 102.1,108.0 L 102.8,108.8 L 104.2,108.4 L 104.8,105.6 L 105.5,104.7 L 106.2,104.8 L 106.0,106.3 L 106.2,107.9 L 109.2,108.5 L 109.6,109.8 L 111.2,111.2 L 115.0,111.9 L 117.8,111.3 L 119.7,109.4 L 119.4,107.2 L 117.7,106.2 L 118.9,103.8 L 120.0,102.3 L 119.5,100.8 L 117.4,99.3 L 117.0,96.7 L 115.6,95.2 L 115.8,91.4 L 114.8,89.6 L 112.1,87.5 L 107.7,87.5 L 106.3,86.6 L 105.4,86.7 L 103.8,85.0 L 102.2,85.2 L 101.3,86.3 L 99.7,90.2 L 98.8,90.8 L 96.3,89.8 L 95.1,89.1 L 93.6,89.7 L 92.8,90.1 L 92.9,89.2 L 93.2,87.9 L 91.8,85.9 L 88.0,82.7 L 87.0,82.6 L 86.7,82.5 L 86.7,82.1 L 88.1,66.0 L 89.0,65.7 L 91.8,62.0 L 95.1,58.8 L 97.5,57.3 L 100.2,54.1 L 101.0,52.3 L 101.8,51.5 L 102.6,51.6 L 103.4,53.4 L 105.3,54.5 L 112.7,55.1 L 114.6,54.7 L 116.3,52.4 L 118.2,51.5 L 120.0,48.8 L 119.8,46.0 L 119.8,45.8 L 122.8,46.6 L 139.9,51.0 L 140.6,56.7 L 141.2,57.9 L 141.7,60.9 L 141.0,61.2 L 140.3,60.7 L 138.0,61.1 L 137.2,61.9 L 137.4,63.3 L 139.1,64.2 L 141.1,64.5 L 141.3,65.8 L 142.5,66.3 L 147.4,66.2 L 149.4,65.0 L 152.7,66.1 L 154.8,65.5 L 155.8,63.8 L 156.7,61.0 L 158.8,58.7 L 158.9,55.2 L 158.9,55.1 L 164.3,56.7 L 164.2,56.8 L 165.1,62.4 L 164.2,64.8 L 164.1,67.2 L 165.2,68.8 L 165.5,70.4 L 163.4,73.7 L 163.9,78.4 L 165.5,80.1 L 167.9,81.4 L 168.8,82.2 L 174.2,79.3 L 176.5,77.5 L 179.9,76.6 L 183.3,76.9 L 184.3,78.3 L 184.6,79.4 L 183.9,79.7 L 181.5,78.0 L 179.3,78.2 L 176.7,81.7 L 173.9,84.7 L 171.9,88.0 L 171.2,90.7 L 172.7,92.5 L 170.9,94.5 L 169.7,95.1 L 169.0,97.1 L 170.1,99.1 L 169.3,99.7 L 168.3,101.1 L 169.2,101.8 L 171.2,102.0 L 170.6,104.8 L 172.3,106.0 L 173.4,105.9 L 174.3,106.6 L 175.4,106.2 L 177.9,102.8 L 180.0,102.9 L 181.8,101.4 L 183.7,98.1 L 184.8,95.0 L 185.4,95.2 L 185.5,98.3 L 189.7,100.6 L 191.0,99.6 L 194.5,95.6 L 199.1,89.0 L 201.6,86.8 L 202.3,86.8 L 202.3,88.4 L 199.2,92.0 L 198.0,94.4 L 198.8,96.7 L 196.3,98.1 L 195.0,101.0 L 195.3,103.2 L 193.9,105.6 L 193.9,107.0 L 191.9,109.9 L 191.4,111.3 L 192.7,112.2 L 195.9,111.7 L 196.9,112.4 L 199.8,112.5 L 201.2,111.6 L 204.5,111.1 L 204.6,111.7 L 199.6,114.2 L 198.9,115.2 L 197.4,118.1 L 197.1,119.5 L 198.0,120.9 L 203.9,120.5 L 204.6,121.0 L 206.6,120.6 L 207.9,121.8 L 211.1,121.3 L 216.4,122.9 L 216.6,123.8 L 220.0,123.0 L 220.6,123.4 L 220.2,124.3 L 217.9,126.1 L 213.7,125.9 L 212.7,127.3 L 213.9,128.2 L 211.6,131.9 L 212.0,134.0 L 215.9,133.7 L 226.0,136.1 L 228.6,135.4 L 231.5,134.1 L 234.1,133.8 L 235.1,134.2 L 237.1,134.8 L 237.5,135.9 L 236.5,136.7 L 236.4,137.3 L 238.5,138.2 L 239.5,139.1 L 240.0,140.4 L 241.3,142.3 L 244.7,143.4 L 248.5,143.0 L 248.9,143.8 L 248.6,146.1 L 248.8,147.6 L 250.8,147.7 L 253.8,148.6 L 256.5,148.6 L 257.5,149.4 L 259.7,152.4 L 261.2,153.1 L 263.8,152.9 L 264.2,153.9 L 263.7,154.9 L 261.6,156.4 L 263.2,157.4 L 265.7,157.2 L 266.1,158.1 L 264.2,160.3 L 264.4,161.2 L 265.7,161.2 L 268.2,160.0 L 271.0,160.8 L 271.2,162.4 L 272.9,162.9 L 273.3,164.6 L 275.2,165.2 L 277.1,164.3 L 278.6,164.1 L 283.0,165.2 L 283.3,166.0 L 281.6,168.2 L 282.6,169.9 L 285.8,171.0 L 286.9,172.5 L 286.5,175.7 L 285.6,178.1 L 285.6,179.4 L 284.9,180.4 L 283.3,181.7 L 283.4,184.1 L 281.6,183.9 L 279.9,187.0 L 279.5,187.9 L 281.0,187.4 L 285.7,184.7 L 286.5,185.2 L 286.4,186.1 L 285.2,187.3 L 285.2,187.5 L 285.4,188.3 L 286.8,188.7 L 287.8,189.9 L 288.7,191.7 L 289.3,193.5 L 287.4,197.7 L 288.0,198.0 L 292.3,197.6 L 292.9,198.0 L 291.9,200.1 L 292.4,201.0 L 292.1,203.0 L 294.6,202.4 L 294.9,204.3 L 294.5,205.0 L 293.9,206.2 L 283.9,213.4 L 282.8,215.2 L 283.4,216.0 L 286.5,216.9 L 287.3,216.5 L 287.0,215.0 L 290.5,214.3 L 292.5,213.3 L 294.2,212.8 L 296.1,210.8 L 296.2,205.5 L 296.5,204.7 L 298.2,202.2 L 298.6,202.0 L 299.4,202.3 L 300.2,204.1 L 298.7,205.9 L 298.0,207.2 L 297.6,210.3 L 296.6,212.7 L 295.7,216.4 L 293.5,219.3 L 292.6,221.3 L 293.1,225.8 L 291.5,228.3 L 293.1,229.8 L 293.3,231.1 L 292.2,233.1 L 292.2,234.1 L 293.2,234.9 L 297.1,234.8 L 299.0,236.7 L 300.0,240.2 L 300.6,241.5 L 302.1,247.2 L 303.6,247.9 L 304.9,248.8 L 306.5,248.3 L 309.4,248.5 L 312.3,249.9 L 315.6,253.0 L 318.1,253.2 L 320.4,255.3 L 322.1,255.9 L 322.1,255.9 L 324.5,257.3 L 326.2,260.1 L 328.7,268.2 L 330.0,270.2 L 332.2,271.0 L 333.6,270.3 L 338.8,265.1 L 339.0,263.5 L 345.2,262.3 L 347.2,261.1 L 348.2,261.4 L 349.4,262.8 L 350.3,262.2 L 351.5,260.1 L 352.4,260.2 L 353.8,261.2 L 356.2,263.8 L 357.2,266.7 L 359.7,268.3 L 360.0,269.6 L 359.4,273.0 L 357.1,276.4 L 356.8,278.5 L 358.2,280.5 L 358.5,282.7 L 359.7,285.1 L 359.2,287.0 L 353.3,290.9 L 351.8,291.2 L 350.8,290.5 L 350.6,289.0 L 352.2,286.6 L 354.4,285.0 L 354.3,283.7 L 351.8,284.1 L 349.6,285.5 L 348.4,286.0 L 343.5,285.9 L 343.7,288.9 L 345.4,288.3 L 348.4,289.1 L 348.8,289.6 L 347.1,291.9 L 344.7,292.8 L 342.5,294.2 L 339.1,294.9 L 332.2,292.9 L 331.6,290.6 L 331.1,290.1 L 333.5,288.2 L 333.3,286.8 L 332.3,284.9 L 333.0,281.0 L 332.4,280.2 L 330.7,280.3 L 327.3,281.8" fill="none" stroke="black" stroke-width="2"/>
</svg>