<?xml version="1.0" encoding="UTF-8"?>
<svg width="400" height="400" viewBox="0 0 400 400" xmlns="http://www.w3.org/2000/svg">
  <rect width="400" height="400" fill="white"/>
  <path d="M 170.0,170.0 L 170.2,169.8 L 171.1,169.5 L 171.1,169.4 L 171.2,169.3 L 171.7,169.0 L 172.1,168.8 L 172.4,168.8 L 172.7,168.7 L 172.8,168.5 L 172.8,168.4 L 173.2,168.3 L 173.2,167.9 L 173.4,167.9 L 174.2,167.8 L 174.2,167.7 L 173.8,167.3 L 173.7,167.0 L 174.1,166.6 L 174.5,166.6 L 175.1,166.7 L 175.3,166.4 L 175.6,166.4 L 175.6,166.2 L 175.3,166.0 L 175.4,165.8 L 175.9,165.9 L 176.2,165.8 L 176.0,165.4 L 176.3,165.2 L 176.7,165.2 L 176.8,165.1 L 176.4,165.0 L 176.3,164.8 L 176.4,164.7 L 176.7,164.6 L 176.8,164.4 L 177.2,164.3 L 177.5,164.4 L 177.6,164.3 L 177.8,164.1 L 177.7,163.9 L 177.6,163.7 L 177.4,163.6 L 177.8,163.6 L 177.6,163.3 L 177.9,163.2 L 178.0,163.4 L 178.3,163.5 L 178.4,163.3 L 178.0,162.7 L 178.0,162.7 L 178.2,162.6 L 178.3,162.2 L 178.7,162.1 L 178.7,161.9 L 178.5,161.8 L 178.4,161.7 L 178.1,161.5 L 178.2,161.3 L 178.4,161.3 L 178.6,161.3 L 179.2,161.0 L 179.3,161.1 L 179.7,161.0 L 179.8,160.8 L 179.6,160.2 L 179.4,160.2 L 178.9,160.2 L 179.1,159.9 L 179.2,159.6 L 178.9,158.8 L 179.1,158.6 L 179.6,158.5 L 179.9,158.5 L 180.1,158.5 L 180.2,158.4 L 180.3,157.8 L 180.1,157.5 L 179.9,157.5 L 179.7,157.4 L 179.3,157.5 L 178.9,157.4 L 178.9,157.2 L 179.4,157.1 L 179.5,157.0 L 179.4,156.8 L 179.3,156.6 L 178.8,156.3 L 178.5,156.3 L 177.9,155.9 L 177.8,155.2 L 177.9,154.8 L 178.3,154.7 L 178.3,154.6 L 178.0,154.4 L 177.8,153.6 L 177.7,153.2 L 177.9,152.8 L 178.5,152.7 L 178.4,152.5 L 178.2,152.3 L 178.0,152.1 L 178.0,151.9 L 178.4,151.3 L 178.6,151.2 L 178.8,151.2 L 178.9,151.2 L 179.1,151.5 L 179.3,151.7 L 179.4,151.5 L 179.2,151.2 L 179.3,151.0 L 179.1,150.9 L 179.3,150.6 L 179.5,150.4 L 179.7,150.4 L 179.9,150.6 L 180.0,150.5 L 179.9,149.9 L 180.1,149.7 L 180.5,149.5 L 180.5,149.3 L 180.4,149.0 L 180.6,148.9 L 180.7,148.9 L 181.0,149.0 L 181.2,148.9 L 181.4,148.6 L 182.0,148.4 L 182.2,148.2 L 182.6,148.1 L 182.9,147.8 L 183.2,147.7 L 183.2,147.6 L 183.1,147.4 L 183.5,147.3 L 183.4,147.1 L 183.2,147.0 L 183.3,146.8 L 183.7,146.7 L 184.3,146.8 L 184.8,146.8 L 185.1,146.7 L 185.1,146.5 L 186.0,146.2 L 186.1,146.1 L 186.2,146.0 L 185.9,145.8 L 186.1,145.7 L 186.2,145.7 L 186.5,145.5 L 186.4,145.3 L 186.3,145.2 L 186.4,145.0 L 186.5,145.0 L 187.0,145.2 L 187.2,145.0 L 187.3,144.9 L 187.1,144.6 L 187.2,144.4 L 188.4,144.5 L 188.5,144.4 L 188.4,144.2 L 188.2,143.9 L 187.9,143.9 L 187.5,143.9 L 187.1,143.5 L 187.1,143.3 L 187.3,143.1 L 186.9,143.1 L 186.9,142.9 L 187.0,142.9 L 187.2,142.9 L 187.3,143.1 L 187.5,143.0 L 187.9,142.9 L 187.9,142.8 L 187.7,142.6 L 187.2,142.3 L 186.7,141.9 L 186.6,141.4 L 186.4,141.1 L 186.4,140.8 L 186.3,140.2 L 186.6,139.7 L 186.9,138.9 L 187.2,138.8 L 187.6,138.8 L 188.0,138.7 L 187.9,138.4 L 187.6,138.2 L 187.3,137.9 L 187.3,137.6 L 187.4,137.4 L 187.4,137.2 L 187.8,136.8 L 188.1,136.8 L 188.0,136.4 L 188.2,136.2 L 188.3,136.0 L 188.6,135.9 L 188.5,135.9 L 188.6,135.7 L 188.7,135.7 L 188.9,135.8 L 189.4,135.5 L 190.1,135.4 L 190.0,135.2 L 189.7,135.2 L 189.4,135.1 L 188.9,134.6 L 189.0,134.4 L 189.3,134.6 L 189.4,134.5 L 189.3,134.3 L 189.1,134.1 L 189.2,134.0 L 189.3,134.0 L 189.9,134.2 L 190.1,134.1 L 190.2,133.7 L 190.1,133.5 L 189.7,133.5 L 189.5,133.4 L 189.4,133.0 L 189.5,132.8 L 190.1,133.0 L 191.0,133.2 L 191.1,133.1 L 191.0,132.9 L 190.9,132.7 L 191.0,132.6 L 191.2,132.5 L 191.2,132.6 L 191.6,132.7 L 191.7,132.6 L 191.7,132.2 L 192.0,131.9 L 192.0,131.7 L 191.7,131.6 L 191.3,131.6 L 191.0,131.4 L 191.0,131.3 L 191.3,131.0 L 192.0,130.8 L 192.4,130.1 L 192.4,129.5 L 192.0,129.2 L 191.8,129.0 L 191.7,128.6 L 191.9,128.4 L 192.2,128.3 L 192.5,128.0 L 192.3,127.8 L 191.7,127.8 L 191.4,127.6 L 191.3,126.8 L 191.7,126.2 L 191.7,126.0 L 191.3,126.0 L 190.6,126.1 L 190.3,125.9 L 190.4,125.8 L 191.1,125.5 L 191.2,125.3 L 190.9,125.1 L 191.0,124.7 L 190.8,124.5 L 190.8,124.2 L 190.7,123.9 L 190.2,123.6 L 189.9,123.3 L 189.7,123.2 L 189.8,122.9 L 189.9,122.6 L 189.8,122.4 L 189.9,122.2 L 189.8,122.1 L 189.1,122.2 L 189.0,122.1 L 188.9,121.9 L 189.3,121.4 L 189.2,121.3 L 189.1,121.1 L 188.8,120.9 L 188.8,120.6 L 188.5,120.5 L 188.4,120.4 L 188.3,120.0 L 188.4,120.0 L 188.7,120.1 L 188.9,120.0 L 188.9,119.9 L 188.8,119.7 L 188.9,119.4 L 188.8,119.1 L 188.7,119.0 L 188.5,118.4 L 188.6,118.2 L 188.4,117.9 L 188.5,117.7 L 188.4,117.5 L 188.2,117.5 L 188.2,117.1 L 188.2,116.8 L 188.2,116.2 L 188.4,115.2 L 188.6,115.1 L 188.6,114.8 L 188.4,114.3 L 187.9,114.0 L 187.4,113.9 L 187.1,113.5 L 187.0,113.1 L 187.0,112.8 L 186.7,112.5 L 186.4,111.3 L 186.3,110.8 L 186.4,110.3 L 186.6,109.9 L 186.8,109.8 L 187.1,109.7 L 187.9,109.0 L 187.9,108.8 L 187.9,108.5 L 188.0,108.2 L 188.2,108.0 L 188.3,107.2 L 188.2,106.9 L 188.4,106.5 L 189.0,106.0 L 189.1,105.6 L 189.4,105.1 L 189.6,105.0 L 189.8,105.8 L 190.1,105.7 L 190.2,105.5 L 190.2,105.2 L 190.4,104.7 L 190.4,104.4 L 190.9,103.8 L 191.0,103.2 L 191.0,103.1 L 190.7,103.2 L 190.6,103.4 L 190.5,103.4 L 190.6,103.1 L 190.7,102.7 L 190.7,102.3 L 191.0,102.0 L 191.3,101.8 L 191.4,101.5 L 191.4,101.4 L 358.7,157.0 L 358.7,157.0 L 358.7,157.2 L 358.9,157.2 L 359.0,157.2 L 359.0,157.1 L 360.0,157.4 L 360.0,157.4 L 359.8,157.6 L 359.6,158.0 L 359.5,158.5 L 359.6,159.3 L 359.6,160.4 L 359.3,160.8 L 358.8,161.0 L 358.5,161.1 L 357.7,161.4 L 357.4,161.8 L 357.0,162.2 L 356.7,162.4 L 356.1,162.6 L 355.8,162.9 L 355.2,163.8 L 354.9,164.0 L 354.1,164.7 L 353.8,165.2 L 353.9,165.9 L 353.7,166.2 L 353.5,167.0 L 353.4,167.4 L 353.4,168.2 L 353.7,169.1 L 353.9,169.5 L 354.3,170.0 L 354.8,170.7 L 355.8,171.6 L 356.9,172.3 L 357.6,172.2 L 357.9,172.3 L 358.0,172.7 L 357.8,172.9 L 357.7,173.1 L 357.8,173.7 L 357.5,174.4 L 357.2,174.5 L 356.5,174.5 L 356.2,174.6 L 355.7,174.9 L 355.2,175.0 L 354.7,175.3 L 354.4,175.6 L 353.8,176.0 L 353.4,176.2 L 352.7,176.5 L 352.2,176.5 L 351.9,176.6 L 351.6,176.8 L 351.3,176.8 L 351.0,176.9 L 350.6,177.4 L 349.9,177.6 L 349.2,177.8 L 348.9,178.0 L 347.5,178.7 L 346.9,178.7 L 346.4,179.0 L 345.4,179.2 L 345.1,179.0 L 344.7,179.1 L 344.6,179.2 L 344.4,179.8 L 344.0,180.3 L 343.6,180.7 L 342.3,181.1 L 341.9,181.0 L 341.4,180.9 L 340.7,180.9 L 340.0,180.8 L 339.6,180.8 L 339.1,180.6 L 338.1,180.9 L 337.7,180.8 L 337.4,180.7 L 337.1,180.9 L 336.8,181.2 L 336.6,181.2 L 336.4,181.1 L 336.2,181.2 L 335.9,181.6 L 335.3,181.7 L 334.7,181.6 L 334.0,182.1 L 333.6,182.3 L 331.6,182.4 L 331.0,182.5 L 330.9,182.5 L 330.4,182.7 L 329.9,182.7 L 329.4,182.9 L 329.0,182.9 L 328.4,183.2 L 328.0,183.2 L 327.3,183.0 L 327.1,182.8 L 327.0,182.4 L 326.8,182.3 L 326.1,182.3 L 325.9,182.6 L 325.7,182.7 L 325.3,182.5 L 324.7,182.4 L 324.1,182.1 L 323.8,182.0 L 323.2,182.1 L 323.0,182.0 L 322.9,181.8 L 322.4,181.5 L 322.2,181.4 L 322.0,181.3 L 321.8,181.1 L 321.0,180.7 L 320.5,180.7 L 319.7,180.3 L 319.2,180.0 L 319.0,179.8 L 319.1,179.3 L 318.7,177.9 L 318.4,177.6 L 318.3,177.3 L 318.5,176.8 L 318.3,176.6 L 318.5,176.1 L 318.3,176.0 L 318.0,175.8 L 318.0,175.6 L 318.0,175.4 L 317.7,175.4 L 317.6,175.2 L 317.4,175.1 L 317.3,174.9 L 316.8,174.7 L 316.8,174.6 L 317.0,174.3 L 317.0,174.1 L 316.8,174.0 L 316.4,174.2 L 315.9,174.1 L 315.4,173.8 L 314.6,174.0 L 314.1,174.0 L 313.8,174.0 L 313.7,174.0 L 313.2,174.4 L 312.2,175.3 L 311.7,175.5 L 311.5,175.3 L 311.4,175.0 L 311.4,174.7 L 311.2,174.5 L 310.7,174.8 L 310.4,174.6 L 310.2,174.3 L 310.0,174.1 L 309.7,174.1 L 309.7,174.0 L 309.5,173.9 L 309.2,173.8 L 308.9,173.5 L 308.6,173.4 L 308.4,173.4 L 308.3,173.8 L 308.3,174.4 L 308.8,175.2 L 308.5,175.5 L 308.6,175.8 L 309.0,176.1 L 309.0,176.8 L 309.1,177.8 L 309.2,178.5 L 309.0,179.0 L 308.6,179.8 L 308.2,180.1 L 307.5,180.3 L 307.3,180.5 L 307.0,180.7 L 306.7,181.0 L 306.4,181.1 L 306.3,181.0 L 306.0,181.0 L 305.7,181.3 L 305.4,181.5 L 305.0,181.5 L 304.8,181.4 L 304.5,181.4 L 304.2,181.6 L 303.8,181.5 L 303.5,181.7 L 303.2,182.0 L 303.2,182.4 L 303.0,182.9 L 302.6,183.1 L 302.1,183.1 L 301.7,183.2 L 301.2,183.5 L 300.9,183.7 L 300.0,183.4 L 299.2,183.5 L 298.4,183.4 L 297.8,183.2 L 295.8,183.6 L 294.8,183.6 L 293.2,183.0 L 292.7,182.5 L 292.4,182.4 L 291.0,182.2 L 291.0,182.1 L 291.3,182.0 L 290.9,181.5 L 290.6,181.4 L 290.1,181.4 L 289.8,181.1 L 289.3,181.2 L 289.1,181.1 L 289.3,181.0 L 289.8,180.9 L 290.1,180.9 L 290.4,180.7 L 290.0,180.4 L 289.7,180.4 L 289.5,180.5 L 289.1,180.6 L 288.7,180.5 L 288.4,180.5 L 287.8,180.3 L 287.1,180.4 L 287.1,180.6 L 287.4,180.8 L 287.2,180.9 L 286.9,180.8 L 286.6,180.8 L 286.5,181.0 L 286.5,181.2 L 286.4,181.4 L 286.2,181.3 L 285.3,181.7 L 285.6,182.0 L 285.7,182.2 L 285.5,182.4 L 285.2,182.5 L 284.1,182.6 L 282.6,182.4 L 281.9,182.5 L 281.5,182.4 L 281.0,182.4 L 279.5,181.6 L 278.9,181.1 L 278.7,180.7 L 277.9,180.0 L 277.4,179.2 L 277.1,178.8 L 277.0,178.0 L 277.1,177.4 L 276.9,177.1 L 276.7,177.0 L 276.3,177.0 L 275.8,176.8 L 275.6,176.5 L 275.4,176.1 L 275.2,175.9 L 274.9,175.5 L 274.5,175.3 L 274.5,175.0 L 274.6,174.6 L 274.5,174.2 L 274.4,174.1 L 274.0,174.1 L 273.9,174.2 L 274.1,174.5 L 274.1,174.8 L 273.7,175.1 L 272.5,175.6 L 271.8,175.8 L 271.7,176.0 L 271.4,176.1 L 270.9,176.4 L 270.8,176.7 L 270.5,177.0 L 269.8,177.2 L 269.2,176.9 L 269.0,177.0 L 268.8,176.9 L 268.5,177.0 L 268.2,177.3 L 268.2,177.5 L 268.7,177.9 L 268.5,178.4 L 268.6,178.9 L 268.6,179.3 L 268.3,179.6 L 268.1,180.0 L 267.8,180.3 L 267.2,180.6 L 266.2,180.8 L 265.8,180.8 L 264.9,180.7 L 264.5,180.7 L 263.3,181.2 L 262.3,181.3 L 261.8,181.2 L 261.5,180.9 L 261.5,180.6 L 260.4,180.6 L 260.0,180.4 L 259.8,180.5 L 259.8,180.8 L 259.7,181.0 L 259.7,181.3 L 259.8,181.5 L 260.3,181.7 L 260.4,182.0 L 260.1,182.1 L 259.6,182.0 L 259.2,181.8 L 258.9,181.8 L 258.7,181.6 L 258.5,181.8 L 258.3,181.8 L 258.2,181.5 L 257.9,181.5 L 257.7,181.8 L 257.6,181.8 L 257.2,181.6 L 257.0,181.7 L 256.8,181.8 L 256.8,182.2 L 257.1,182.6 L 257.2,182.8 L 257.0,183.2 L 256.5,183.3 L 256.3,183.5 L 255.9,183.6 L 255.8,183.8 L 256.0,184.3 L 256.2,185.0 L 256.1,185.2 L 255.9,186.1 L 255.6,186.8 L 255.3,187.3 L 255.1,187.7 L 255.0,188.2 L 254.9,188.8 L 255.0,189.2 L 254.9,189.7 L 254.5,190.8 L 254.2,191.0 L 253.4,191.5 L 253.0,191.7 L 252.4,191.4 L 251.6,190.7 L 251.4,190.4 L 251.2,190.3 L 250.7,190.3 L 250.2,189.9 L 249.6,190.0 L 248.5,189.9 L 248.1,189.6 L 248.1,189.3 L 248.1,189.1 L 247.7,188.6 L 247.6,187.5 L 247.5,187.2 L 247.6,186.7 L 247.5,186.5 L 247.4,186.1 L 247.6,185.7 L 247.5,185.5 L 247.2,185.4 L 246.9,185.6 L 246.6,185.5 L 246.3,185.5 L 246.0,185.9 L 245.6,186.1 L 245.0,185.8 L 244.9,185.8 L 244.6,186.0 L 243.9,186.0 L 243.3,186.2 L 243.5,186.4 L 243.1,186.6 L 243.0,186.7 L 242.5,186.9 L 242.1,186.8 L 241.8,186.8 L 241.6,187.1 L 240.9,187.3 L 240.7,187.5 L 240.7,187.7 L 241.1,187.8 L 241.6,187.7 L 241.8,187.7 L 241.8,187.9 L 241.1,188.1 L 240.8,188.4 L 241.0,188.5 L 241.0,188.7 L 240.8,188.8 L 240.8,189.1 L 240.4,189.7 L 240.4,190.0 L 240.7,190.0 L 240.8,190.2 L 240.7,190.4 L 240.8,190.9 L 240.6,191.8 L 240.3,192.3 L 238.7,193.3 L 237.7,193.6 L 237.3,193.7 L 237.2,194.0 L 236.9,194.2 L 235.5,195.0 L 235.1,194.8 L 234.7,194.7 L 234.2,194.4 L 233.4,194.4 L 233.1,194.5 L 232.7,194.6 L 232.2,194.6 L 232.2,194.4 L 232.0,194.3 L 231.7,194.3 L 231.5,194.4 L 231.5,194.7 L 232.0,194.7 L 232.1,194.9 L 231.9,195.3 L 231.5,195.4 L 231.3,195.3 L 230.9,195.3 L 229.2,195.8 L 229.1,196.0 L 228.9,196.1 L 228.6,196.0 L 228.3,196.1 L 228.2,196.2 L 228.2,196.5 L 228.6,196.6 L 228.6,196.7 L 228.4,196.9 L 228.3,197.2 L 227.9,197.3 L 227.3,197.4 L 227.0,197.0 L 227.0,196.9 L 226.8,197.4 L 226.3,197.9 L 225.3,198.2 L 225.1,198.6 L 225.1,199.0 L 224.9,199.4 L 225.1,199.5 L 224.9,199.7 L 225.3,200.6 L 225.6,201.6 L 225.5,201.7 L 225.5,201.9 L 224.9,202.8 L 224.2,203.4 L 223.6,203.7 L 223.3,204.0 L 223.0,204.0 L 222.8,203.8 L 222.5,203.9 L 222.4,204.2 L 222.4,204.4 L 222.1,204.8 L 221.8,204.9 L 221.3,204.9 L 221.3,204.7 L 221.4,204.6 L 221.3,204.4 L 221.0,204.2 L 220.7,204.3 L 220.5,204.3 L 220.2,204.1 L 219.8,204.1 L 219.6,204.4 L 219.0,204.5 L 218.8,204.8 L 218.5,204.9 L 218.3,204.9 L 218.0,205.1 L 217.8,205.2 L 217.6,205.1 L 217.5,205.0 L 217.2,205.1 L 216.9,205.2 L 216.9,205.3 L 216.9,205.4 L 216.7,205.4 L 216.4,205.5 L 216.4,205.7 L 216.2,205.9 L 215.8,205.8 L 215.8,206.1 L 215.5,206.2 L 215.0,206.2 L 215.1,206.5 L 214.8,206.8 L 214.6,207.2 L 213.9,207.4 L 213.7,207.8 L 213.2,208.3 L 212.9,208.4 L 212.6,208.7 L 212.4,208.8 L 211.9,208.5 L 211.8,208.6 L 211.9,209.3 L 211.8,209.5 L 211.4,209.6 L 211.2,209.7 L 211.0,210.2 L 211.3,210.6 L 211.2,210.9 L 210.7,211.5 L 210.5,211.5 L 210.1,211.3 L 209.8,211.3 L 208.8,212.4 L 208.5,212.9 L 208.4,213.3 L 208.1,213.8 L 206.6,214.2 L 206.3,214.7 L 206.0,214.8 L 205.9,214.8 L 205.7,215.1 L 205.6,215.2 L 205.3,215.2 L 205.1,215.3 L 205.1,215.6 L 205.0,216.1 L 204.5,216.3 L 204.2,217.1 L 203.9,217.5 L 203.4,217.9 L 202.8,218.1 L 202.3,218.6 L 201.7,219.1 L 201.5,219.5 L 201.2,219.7 L 200.9,219.8 L 200.5,219.5 L 200.0,219.7 L 199.8,220.3 L 199.5,220.7 L 199.1,221.1 L 198.7,221.5 L 198.1,221.8 L 197.9,222.4 L 197.7,222.9 L 197.6,223.2 L 197.4,223.3 L 197.0,223.2 L 196.8,223.0 L 196.6,222.8 L 196.3,222.8 L 196.1,223.1 L 196.3,223.3 L 196.2,223.5 L 195.9,223.5 L 195.7,223.4 L 195.4,223.5 L 195.0,224.0 L 195.0,224.2 L 195.2,224.5 L 195.3,224.6 L 195.1,224.9 L 195.2,225.4 L 195.1,225.6 L 194.8,226.1 L 194.4,226.4 L 194.4,226.9 L 194.1,227.3 L 194.2,227.7 L 194.1,228.1 L 193.8,228.6 L 193.7,228.8 L 193.2,229.0 L 192.7,228.9 L 191.9,229.1 L 190.7,229.9 L 189.6,230.5 L 189.3,230.8 L 189.0,231.2 L 188.8,231.4 L 188.5,231.9 L 188.0,232.2 L 187.7,232.4 L 187.2,232.6 L 186.9,233.0 L 186.6,233.3 L 186.2,234.0 L 185.8,234.1 L 185.5,235.0 L 184.8,235.1 L 184.6,235.5 L 183.9,235.7 L 183.5,236.3 L 183.1,236.5 L 183.0,237.0 L 182.9,237.1 L 182.7,237.5 L 181.5,237.8 L 181.3,237.9 L 181.1,237.8 L 180.8,237.5 L 180.6,237.4 L 180.5,237.5 L 180.2,237.8 L 180.0,237.9 L 179.4,237.9 L 179.0,238.2 L 178.7,238.8 L 178.2,239.0 L 177.9,238.8 L 177.7,238.9 L 177.4,239.5 L 176.8,239.9 L 176.5,239.8 L 176.3,239.8 L 175.9,240.4 L 175.5,240.6 L 175.1,240.6 L 174.5,240.7 L 174.1,240.7 L 173.7,240.9 L 173.5,241.6 L 172.4,241.9 L 172.3,242.1 L 172.0,242.3 L 171.2,242.1 L 170.4,242.7 L 169.9,242.8 L 169.8,243.2 L 169.5,243.3 L 169.4,243.6 L 169.0,244.0 L 168.5,244.2 L 168.2,244.4 L 167.9,244.6 L 167.8,244.8 L 167.4,245.0 L 167.2,245.3 L 166.9,245.4 L 166.7,245.7 L 166.3,245.8 L 166.1,246.1 L 166.3,246.5 L 166.2,246.7 L 165.7,247.2 L 165.4,247.6 L 165.0,247.8 L 164.7,248.0 L 163.7,249.1 L 163.2,249.6 L 162.8,250.0 L 161.9,250.5 L 161.2,250.8 L 160.9,251.1 L 160.4,251.3 L 160.1,251.7 L 159.9,251.8 L 159.6,252.4 L 158.3,253.6 L 158.2,254.0 L 157.9,254.4 L 157.3,254.6 L 156.6,255.4 L 156.2,255.7 L 156.0,255.8 L 155.7,255.7 L 155.5,255.7 L 155.5,256.0 L 155.2,256.1 L 155.1,256.2 L 154.7,256.3 L 154.6,256.7 L 154.6,257.0 L 154.7,257.1 L 154.8,257.4 L 154.7,257.7 L 154.4,258.1 L 154.3,258.2 L 153.9,258.8 L 153.7,259.0 L 153.6,259.4 L 153.0,260.4 L 152.9,260.7 L 152.4,261.2 L 151.8,261.5 L 151.4,261.9 L 150.8,262.3 L 150.4,262.6 L 150.3,263.0 L 149.9,263.2 L 149.8,263.4 L 149.8,263.7 L 149.1,265.0 L 148.6,265.6 L 148.3,265.7 L 148.1,265.9 L 148.1,266.0 L 148.1,266.0 L 147.8,266.4 L 147.8,266.8 L 147.3,267.5 L 146.4,268.2 L 145.5,269.3 L 144.4,271.1 L 144.2,271.9 L 143.8,272.1 L 143.7,272.4 L 143.1,273.2 L 142.5,274.1 L 142.1,274.4 L 141.9,274.6 L 141.6,275.8 L 141.1,276.4 L 140.8,277.0 L 140.4,277.6 L 139.6,279.2 L 139.2,279.7 L 138.9,280.3 L 138.5,281.4 L 137.9,282.4 L 137.1,283.2 L 136.8,283.7 L 136.5,284.2 L 136.6,284.7 L 136.7,285.4 L 136.6,285.7 L 136.2,286.3 L 136.1,286.4 L 135.7,286.6 L 135.5,287.0 L 135.4,287.4 L 135.2,287.6 L 134.7,287.7 L 134.4,287.9 L 134.3,288.2 L 134.1,288.7 L 133.9,289.1 L 133.4,289.5 L 132.6,290.8 L 132.2,291.3 L 131.6,292.3 L 131.1,292.8 L 130.9,293.3 L 130.7,294.7 L 130.2,296.0 L 129.8,296.7 L 128.9,297.9 L 128.6,298.1 L 128.1,298.3 L 127.8,298.0 L 127.2,298.1 L 126.9,298.1 L 124.8,298.6 L 124.4,298.5 L 123.8,298.6 L 123.4,298.5 L 123.0,298.5 L 121.6,298.1 L 120.9,297.7 L 120.1,297.3 L 119.3,296.7 L 118.8,296.5 L 118.4,296.4 L 118.0,296.1 L 117.6,295.6 L 117.4,295.3 L 117.0,294.1 L 116.6,293.7 L 115.9,293.4 L 115.6,292.9 L 115.4,292.8 L 115.1,292.6 L 114.8,292.2 L 114.5,291.6 L 114.3,291.0 L 114.3,290.3 L 114.4,289.6 L 114.3,288.9 L 114.0,288.0 L 114.1,287.4 L 113.9,286.9 L 113.5,286.2 L 113.2,285.3 L 113.0,284.7 L 112.6,283.9 L 112.4,283.4 L 112.2,283.0 L 112.0,282.3 L 111.8,282.3 L 111.6,282.5 L 111.1,282.7 L 110.5,282.5 L 110.2,282.3 L 110.0,282.0 L 109.6,282.1 L 108.9,281.6 L 108.3,281.0 L 108.2,280.8 L 108.0,280.7 L 107.4,280.8 L 107.0,281.1 L 106.9,281.2 L 105.7,281.6 L 105.4,281.5 L 105.3,281.5 L 104.9,281.9 L 104.1,282.1 L 102.7,281.9 L 101.9,282.1 L 101.6,281.9 L 101.4,281.7 L 101.0,281.9 L 100.4,281.8 L 99.6,281.6 L 99.0,281.6 L 98.3,281.9 L 97.6,282.2 L 96.9,282.4 L 96.6,282.4 L 95.8,282.4 L 95.4,282.3 L 94.6,282.5 L 94.1,282.2 L 94.0,282.2 L 93.7,282.1 L 93.5,282.3 L 92.9,282.3 L 92.4,282.6 L 91.7,282.8 L 91.1,282.8 L 90.2,283.0 L 89.8,282.9 L 89.0,282.6 L 88.4,282.3 L 87.9,281.6 L 87.5,281.3 L 87.2,280.8 L 86.9,280.5 L 86.5,280.4 L 86.3,280.2 L 85.5,279.7 L 85.2,279.7 L 84.5,279.8 L 84.0,279.8 L 83.9,279.9 L 83.6,279.8 L 82.4,280.1 L 80.9,279.7 L 80.7,279.6 L 79.6,278.9 L 78.7,278.2 L 78.0,278.0 L 77.5,278.0 L 76.4,278.5 L 75.6,279.0 L 75.0,279.6 L 74.7,279.8 L 74.2,280.0 L 73.4,280.1 L 72.3,280.4 L 72.0,280.4 L 70.6,280.8 L 70.4,280.7 L 70.2,280.5 L 70.0,280.4 L 69.6,280.5 L 68.5,280.5 L 68.0,280.6 L 67.4,280.6 L 67.1,280.4 L 67.1,280.4 L 66.3,280.2 L 65.8,279.9 L 65.5,279.7 L 65.2,279.0 L 64.8,278.5 L 64.2,277.2 L 63.6,275.1 L 63.0,272.7 L 62.5,272.1 L 62.2,271.7 L 60.9,270.3 L 60.3,269.8 L 60.0,269.3 L 59.6,269.0 L 59.1,268.9 L 58.9,268.6 L 58.4,268.5 L 57.9,268.4 L 57.3,268.1 L 57.0,267.5 L 56.7,266.8 L 56.4,266.4 L 56.2,266.3 L 55.8,266.1 L 55.4,266.2 L 54.1,266.9 L 53.4,267.3 L 53.0,267.6 L 52.3,268.3 L 52.0,269.0 L 51.7,269.8 L 50.9,271.6 L 50.4,272.3 L 50.3,272.6 L 49.0,271.5 L 49.2,271.2 L 49.4,271.0 L 49.3,270.8 L 48.7,270.4 L 48.7,269.9 L 48.4,269.8 L 47.9,269.6 L 47.6,269.6 L 47.4,269.3 L 47.2,268.8 L 47.1,268.6 L 47.5,268.2 L 47.6,267.3 L 47.7,267.1 L 47.9,267.0 L 48.0,266.6 L 47.8,266.4 L 47.4,266.5 L 47.3,266.0 L 47.4,265.9 L 47.8,265.8 L 48.3,266.0 L 48.6,266.2 L 48.9,266.0 L 48.5,265.0 L 48.1,264.4 L 47.7,264.1 L 47.3,263.4 L 47.1,263.2 L 46.9,262.8 L 46.7,262.8 L 46.3,262.9 L 45.8,263.4 L 45.2,263.6 L 44.8,263.6 L 43.1,264.1 L 42.9,264.3 L 41.5,264.6 L 41.1,264.9 L 40.9,265.3 L 40.9,265.3 L 40.8,265.3 L 40.3,265.2 L 40.0,265.1 L 40.0,264.6 L 40.1,264.0 L 40.3,263.4 L 40.3,263.0 L 40.4,262.9 L 40.6,262.2 L 41.4,261.4 L 42.0,260.7 L 42.4,260.3 L 42.9,259.9 L 43.7,258.6 L 45.4,257.1 L 46.3,256.5 L 47.1,256.2 L 47.5,256.1 L 47.9,255.5 L 48.2,255.5 L 48.7,255.7 L 49.1,255.6 L 49.3,255.7 L 50.2,255.5 L 50.6,255.8 L 50.7,256.2 L 50.9,256.4 L 51.4,256.2 L 52.4,255.5 L 52.9,255.2 L 53.4,255.3 L 53.6,255.3 L 53.8,255.5 L 54.0,255.9 L 54.3,256.0 L 54.8,256.2 L 55.2,256.5 L 55.8,257.3 L 56.5,258.0 L 56.7,258.2 L 57.2,258.5 L 57.9,259.0 L 58.0,259.2 L 58.4,259.5 L 58.5,259.8 L 58.7,260.7 L 59.1,261.7 L 59.9,262.9 L 60.4,263.2 L 60.9,263.5 L 62.0,263.6 L 62.9,264.0 L 63.3,264.4 L 63.7,264.5 L 63.9,264.6 L 64.0,264.7 L 64.3,264.9 L 65.0,265.3 L 65.3,265.7 L 65.5,266.4 L 65.7,266.7 L 66.3,266.9 L 66.8,266.9 L 67.0,266.8 L 67.2,266.6 L 67.5,266.6 L 68.0,266.7 L 69.1,267.3 L 69.9,268.0 L 71.3,268.9 L 71.7,269.1 L 73.0,268.6 L 74.3,267.7 L 74.5,267.1 L 74.8,266.7 L 74.9,266.6 L 75.1,265.6 L 75.6,264.9 L 76.3,264.0 L 76.7,263.7 L 76.9,263.3 L 78.2,262.4 L 78.5,262.2 L 80.2,261.8 L 80.9,261.9 L 81.4,261.8 L 81.8,261.8 L 82.4,261.6 L 82.7,261.5 L 82.9,261.5 L 83.2,261.3 L 84.0,261.0 L 84.3,260.7 L 84.8,260.1 L 85.2,258.9 L 86.2,258.1 L 86.9,257.9 L 88.0,258.1 L 88.8,258.0 L 89.4,258.2 L 90.0,258.1 L 90.9,258.3 L 91.4,258.1 L 92.6,258.0 L 93.3,257.9 L 93.6,257.8 L 94.9,256.9 L 95.2,256.9 L 95.4,256.9 L 96.3,256.9 L 96.7,256.7 L 97.2,256.5 L 97.9,255.9 L 98.6,255.8 L 99.3,255.8 L 99.7,256.0 L 100.1,256.1 L 100.7,256.4 L 102.0,257.3 L 102.9,258.2 L 103.5,258.5 L 103.8,258.5 L 104.5,258.8 L 105.2,258.8 L 105.3,258.9 L 106.1,259.1 L 106.6,258.9 L 107.1,258.5 L 107.8,257.6 L 107.9,257.2 L 108.1,256.9 L 108.2,256.9 L 108.5,256.7 L 108.6,256.5 L 108.9,255.7 L 109.3,255.1 L 109.6,254.8 L 109.6,254.4 L 109.7,254.3 L 110.0,254.2 L 110.4,254.0 L 111.0,253.8 L 112.1,254.0 L 113.2,254.3 L 113.9,254.1 L 114.5,253.7 L 115.1,253.5 L 115.7,253.1 L 116.2,253.0 L 116.6,253.1 L 117.3,253.0 L 117.6,253.0 L 118.2,252.9 L 118.8,253.0 L 120.0,252.6 L 120.4,252.5 L 120.9,252.3 L 121.8,251.5 L 121.9,251.4 L 122.2,251.2 L 122.2,251.1 L 122.2,250.9 L 122.6,250.7 L 122.6,250.5 L 122.0,250.3 L 121.6,250.0 L 121.6,249.7 L 121.7,249.5 L 121.7,249.0 L 121.8,248.9 L 121.8,248.6 L 121.9,248.3 L 121.8,248.1 L 121.6,247.9 L 121.4,247.9 L 121.3,247.6 L 121.0,247.5 L 120.1,247.6 L 119.8,247.5 L 119.4,247.5 L 119.1,247.3 L 119.0,247.0 L 118.7,246.9 L 118.3,246.9 L 117.6,246.9 L 116.7,247.1 L 115.9,247.0 L 115.2,247.0 L 113.4,247.0 L 112.9,247.0 L 111.9,246.8 L 111.4,246.9 L 110.9,246.7 L 110.7,246.8 L 110.2,247.0 L 109.6,247.2 L 109.1,247.1 L 108.8,247.2 L 108.7,247.4 L 108.4,247.5 L 108.1,247.3 L 108.1,247.0 L 108.1,246.9 L 108.0,246.7 L 107.5,246.4 L 107.2,246.4 L 106.6,245.8 L 106.4,245.6 L 106.3,245.3 L 105.9,245.2 L 105.9,245.3 L 105.8,245.3 L 105.6,245.5 L 105.3,245.5 L 104.7,245.0 L 104.2,244.8 L 102.6,244.5 L 101.0,244.4 L 100.0,244.7 L 99.5,245.0 L 98.5,245.4 L 98.3,245.3 L 98.0,245.3 L 97.8,245.6 L 97.9,246.1 L 97.9,246.5 L 97.7,246.8 L 97.3,247.0 L 97.0,246.9 L 96.4,246.8 L 95.7,246.8 L 94.7,246.7 L 94.5,246.6 L 94.0,246.7 L 93.5,246.8 L 92.9,246.9 L 92.4,246.8 L 92.1,246.5 L 91.9,246.2 L 91.2,246.0 L 89.9,245.1 L 89.4,245.0 L 87.5,244.5 L 87.0,244.4 L 86.4,244.2 L 86.0,244.1 L 85.2,243.7 L 84.9,243.5 L 84.6,243.1 L 84.4,242.3 L 84.3,241.8 L 84.7,241.2 L 85.3,240.4 L 85.4,240.0 L 84.8,238.2 L 84.5,237.8 L 84.1,237.4 L 82.0,236.2 L 80.0,234.7 L 79.8,234.5 L 79.6,234.4 L 79.5,234.5 L 79.2,234.3 L 79.3,234.2 L 79.2,234.1 L 78.9,233.4 L 78.8,232.7 L 78.9,232.2 L 79.3,231.8 L 80.0,231.6 L 80.6,230.8 L 81.3,230.2 L 82.7,229.8 L 83.8,229.5 L 84.7,229.6 L 85.4,229.8 L 86.0,229.7 L 86.4,229.8 L 86.7,229.9 L 87.0,229.9 L 87.3,229.8 L 87.5,229.6 L 89.7,229.0 L 90.3,228.4 L 90.7,228.4 L 91.5,228.0 L 92.2,227.9 L 92.7,228.1 L 93.3,228.3 L 93.6,228.3 L 94.4,228.2 L 95.3,228.6 L 95.8,228.6 L 96.3,228.7 L 97.2,228.5 L 98.3,228.4 L 99.2,228.1 L 99.5,228.0 L 99.8,228.1 L 100.5,228.0 L 101.5,227.6 L 101.9,227.6 L 102.3,227.5 L 102.6,227.5 L 102.8,227.5 L 103.1,227.3 L 103.6,227.1 L 104.1,227.1 L 104.8,227.2 L 105.2,227.1 L 105.4,226.9 L 105.9,226.8 L 106.5,226.9 L 107.1,226.7 L 107.7,226.4 L 108.0,226.3 L 108.3,226.3 L 108.7,226.2 L 108.8,225.9 L 109.8,225.6 L 110.1,225.3 L 110.7,225.3 L 111.1,225.2 L 111.2,225.1 L 111.2,224.9 L 111.5,224.7 L 111.7,224.6 L 112.0,224.2 L 112.5,223.9 L 113.4,223.5 L 114.4,223.2 L 115.2,223.3 L 115.9,223.2 L 116.3,223.2 L 116.7,223.3 L 117.2,223.3 L 117.7,223.4 L 118.3,223.2 L 119.6,222.3 L 120.5,222.1 L 120.8,221.9 L 121.7,221.6 L 122.4,221.3 L 122.9,221.0 L 124.3,220.5 L 124.8,220.2 L 127.0,219.5 L 127.4,219.3 L 127.6,219.0 L 127.6,218.8 L 127.8,218.6 L 128.2,218.4 L 128.6,217.9 L 129.0,217.6 L 129.6,216.5 L 130.1,216.0 L 131.2,215.2 L 132.2,214.8 L 134.3,214.0 L 136.4,213.4 L 137.2,212.5 L 138.3,211.8 L 139.6,211.3 L 140.1,211.3 L 142.2,210.8 L 142.3,210.6 L 142.5,210.6 L 142.7,210.7 L 143.1,210.6 L 143.5,210.3 L 144.3,209.9 L 144.6,209.8 L 144.8,209.7 L 145.1,209.4 L 145.4,209.0 L 146.1,208.8 L 146.3,208.8 L 146.4,209.0 L 146.3,209.1 L 146.7,209.0 L 147.3,208.5 L 147.2,208.0 L 147.6,207.5 L 147.6,207.3 L 147.5,206.9 L 147.7,206.6 L 147.7,206.2 L 147.7,205.8 L 147.4,205.6 L 147.3,205.3 L 147.5,204.9 L 148.1,204.7 L 148.3,204.4 L 148.8,204.2 L 149.3,203.9 L 150.7,203.3 L 151.4,202.8 L 151.9,202.6 L 152.5,201.8 L 152.7,201.6 L 152.6,201.4 L 152.2,201.2 L 152.2,201.1 L 152.6,200.8 L 152.5,200.7 L 152.5,200.6 L 152.3,200.5 L 152.0,200.4 L 151.8,200.4 L 151.7,200.1 L 151.3,199.7 L 151.1,199.7 L 150.7,199.6 L 150.6,199.2 L 150.4,199.0 L 150.3,198.3 L 150.4,198.1 L 150.4,197.5 L 150.7,196.9 L 150.6,196.6 L 150.2,196.6 L 149.9,196.5 L 149.6,196.3 L 148.6,196.2 L 148.1,195.9 L 148.0,195.3 L 147.4,194.8 L 147.0,194.8 L 146.7,194.9 L 146.3,194.7 L 146.0,194.2 L 146.0,194.0 L 146.2,193.7 L 145.8,193.2 L 145.5,192.9 L 145.1,192.8 L 144.7,192.6 L 144.3,192.0 L 144.3,191.3 L 144.5,190.8 L 144.7,190.4 L 145.0,190.0 L 145.2,189.7 L 145.1,189.5 L 145.5,189.0 L 145.8,188.9 L 146.3,188.1 L 146.7,187.7 L 147.2,187.5 L 147.1,187.2 L 146.9,187.0 L 146.7,186.6 L 146.6,186.0 L 146.8,185.4 L 147.1,185.1 L 147.6,184.7 L 147.6,184.4 L 147.6,183.9 L 147.5,183.6 L 147.6,183.2 L 147.7,182.8 L 147.8,181.9 L 148.0,181.6 L 148.0,181.2 L 148.2,180.7 L 148.6,179.8 L 149.4,178.3 L 149.8,177.8 L 149.9,177.6 L 150.7,177.0 L 151.3,176.7 L 151.9,176.5 L 152.8,176.9 L 153.8,176.9 L 155.6,176.8 L 156.8,176.7 L 157.8,176.5 L 158.8,176.2 L 160.4,175.1 L 161.1,174.9 L 162.0,174.0 L 162.4,173.6 L 162.7,173.2 L 164.3,172.0 L 165.5,171.6 L 166.3,171.4 L 168.1,171.5 L 168.7,171.3 L 169.0,171.0 L 169.4,170.3 L 170.0,170.1 L 170.0,170.0" fill="none" stroke="black" stroke-width="2"/>
</svg>