<?xml version="1.0" encoding="UTF-8"?>
<svg width="400" height="400" viewBox="0 0 400 400" xmlns="http://www.w3.org/2000/svg">
  <rect width="400" height="400" fill="white"/>
  <path d="M 40.6,316.7 L 187.9,187.6 L 231.1,149.8 L 315.1,79.5 L 357.0,124.4 L 356.7,124.4 L 356.7,124.5 L 356.5,124.5 L 356.5,124.6 L 356.5,124.7 L 356.5,124.8 L 356.6,124.8 L 356.8,124.8 L 356.8,124.9 L 356.9,125.1 L 356.8,125.1 L 356.6,125.2 L 356.4,125.3 L 356.4,125.4 L 356.4,125.6 L 356.5,125.6 L 356.6,125.7 L 356.5,125.8 L 356.5,126.0 L 356.6,126.1 L 356.7,126.2 L 356.8,126.4 L 356.8,126.4 L 357.0,126.6 L 357.1,126.7 L 357.1,126.8 L 357.2,126.7 L 357.2,126.7 L 357.3,126.8 L 357.3,127.1 L 357.4,127.1 L 357.5,127.1 L 357.7,127.3 L 357.6,127.4 L 357.7,127.4 L 357.8,127.5 L 357.8,127.6 L 357.9,127.7 L 358.2,127.9 L 358.3,128.0 L 358.4,128.1 L 358.5,128.2 L 358.7,128.2 L 358.8,128.2 L 358.9,128.3 L 359.0,128.4 L 359.1,128.4 L 359.2,128.4 L 359.3,128.6 L 359.4,128.6 L 359.4,128.7 L 359.3,128.7 L 359.3,128.8 L 359.4,128.8 L 359.5,128.8 L 359.5,128.9 L 359.5,128.9 L 359.7,129.0 L 359.9,129.3 L 359.9,129.5 L 359.8,129.6 L 359.3,129.6 L 359.1,129.7 L 359.0,129.9 L 359.1,130.0 L 359.3,130.0 L 359.4,130.1 L 359.2,130.2 L 358.8,130.3 L 358.7,130.3 L 358.6,130.5 L 358.6,130.6 L 358.6,130.6 L 358.7,130.7 L 358.8,130.8 L 358.8,130.9 L 359.1,130.8 L 359.1,130.9 L 359.1,130.9 L 358.8,131.1 L 358.8,131.2 L 358.8,131.2 L 359.0,131.2 L 359.1,131.2 L 359.0,131.3 L 359.0,131.4 L 359.2,131.4 L 359.2,131.5 L 358.9,131.5 L 358.9,131.6 L 359.0,131.7 L 359.2,131.7 L 359.3,131.6 L 359.4,131.6 L 359.4,131.7 L 359.2,131.8 L 359.2,131.9 L 359.3,131.9 L 359.3,132.0 L 359.3,132.1 L 359.2,132.2 L 359.2,132.2 L 359.1,132.3 L 359.1,132.3 L 359.1,132.3 L 359.1,132.3 L 359.2,132.3 L 359.2,132.4 L 359.3,132.5 L 359.4,132.6 L 359.4,132.6 L 359.2,132.8 L 359.2,132.9 L 359.1,133.1 L 359.1,133.1 L 358.9,133.4 L 358.6,133.6 L 358.5,133.8 L 358.5,133.9 L 358.3,134.0 L 358.3,134.1 L 358.4,134.2 L 358.5,134.2 L 358.7,134.0 L 358.8,134.0 L 358.8,134.0 L 358.7,134.2 L 358.7,134.3 L 358.8,134.3 L 359.0,134.3 L 359.0,134.5 L 358.9,134.6 L 358.7,134.6 L 358.4,135.0 L 358.4,135.1 L 358.6,135.2 L 358.8,135.1 L 359.0,135.1 L 358.8,135.2 L 358.8,135.3 L 358.7,135.4 L 358.7,135.5 L 359.0,135.7 L 359.0,135.8 L 358.9,135.8 L 358.9,135.8 L 358.8,135.8 L 358.5,135.8 L 358.4,136.0 L 358.5,136.1 L 358.6,136.2 L 358.7,136.1 L 358.9,135.9 L 359.0,136.0 L 359.2,136.0 L 359.2,136.1 L 359.2,136.2 L 359.2,136.3 L 359.0,136.2 L 358.9,136.3 L 358.9,136.5 L 358.9,136.5 L 359.1,136.4 L 359.2,136.4 L 359.2,136.4 L 359.1,136.6 L 359.1,136.7 L 359.2,136.9 L 359.3,136.9 L 359.5,137.1 L 359.7,137.1 L 359.7,137.1 L 359.6,137.3 L 359.6,137.3 L 359.8,137.3 L 359.9,137.3 L 359.8,137.4 L 360.0,137.5 L 360.0,137.8 L 359.9,138.0 L 359.7,138.4 L 359.5,138.6 L 359.1,138.8 L 358.9,139.1 L 358.5,139.5 L 358.2,139.6 L 358.1,139.6 L 358.0,139.5 L 357.9,139.5 L 357.7,139.7 L 357.4,139.6 L 357.2,139.8 L 357.1,139.9 L 357.0,140.0 L 356.9,140.1 L 357.0,140.4 L 357.1,140.5 L 357.3,140.4 L 357.4,140.4 L 357.2,140.6 L 357.2,140.8 L 357.3,141.0 L 357.2,141.1 L 357.1,141.0 L 357.0,141.0 L 357.0,141.3 L 357.0,141.3 L 356.9,141.2 L 356.8,141.2 L 356.8,141.4 L 356.9,141.4 L 357.0,141.4 L 357.1,141.5 L 357.1,141.7 L 357.1,141.8 L 357.0,141.8 L 357.0,141.9 L 357.1,141.9 L 357.2,141.9 L 357.3,142.0 L 357.3,142.1 L 357.3,142.2 L 357.3,142.3 L 357.3,142.4 L 357.4,142.6 L 357.2,142.7 L 357.2,142.8 L 357.2,143.0 L 357.3,143.1 L 357.3,143.2 L 357.2,143.4 L 357.2,143.5 L 357.1,143.5 L 357.0,143.6 L 357.0,143.7 L 357.0,143.8 L 357.2,143.7 L 357.2,143.6 L 357.3,143.7 L 357.3,143.9 L 357.2,143.9 L 357.1,144.0 L 357.0,144.1 L 357.0,144.2 L 357.0,144.3 L 329.1,160.7 L 328.8,160.5 L 328.4,160.6 L 328.2,160.6 L 328.1,160.8 L 328.0,161.0 L 327.9,161.0 L 327.9,161.2 L 327.6,161.2 L 327.4,161.4 L 327.1,161.5 L 327.0,161.6 L 327.0,161.7 L 326.9,162.1 L 326.9,162.2 L 326.9,162.3 L 326.9,162.3 L 304.1,172.3 L 303.7,171.9 L 303.6,171.6 L 303.4,171.5 L 303.2,171.5 L 302.9,171.2 L 302.5,171.1 L 302.4,171.0 L 302.0,171.0 L 301.7,170.9 L 301.4,170.9 L 301.4,171.1 L 301.3,171.2 L 301.2,171.1 L 301.1,171.1 L 301.1,171.2 L 301.0,171.4 L 301.1,171.7 L 301.1,172.0 L 301.1,172.1 L 300.7,172.0 L 300.4,172.1 L 300.3,172.2 L 300.2,172.3 L 300.1,172.4 L 300.2,172.7 L 300.2,172.8 L 300.1,173.0 L 300.3,173.2 L 300.3,173.3 L 300.2,173.4 L 299.9,173.2 L 299.7,173.1 L 299.5,173.1 L 299.5,173.1 L 299.2,173.2 L 299.2,173.3 L 299.0,173.3 L 298.9,173.5 L 298.8,173.6 L 298.7,173.9 L 298.7,174.0 L 298.8,174.1 L 298.9,174.2 L 298.7,174.3 L 298.6,174.4 L 298.4,174.5 L 298.4,174.5 L 298.1,175.0 L 298.0,175.1 L 297.9,175.2 L 298.0,175.4 L 297.9,175.5 L 297.9,175.7 L 297.9,175.8 L 298.0,176.0 L 298.1,176.2 L 298.3,176.1 L 298.3,176.5 L 298.3,176.7 L 298.5,176.7 L 298.4,176.9 L 298.5,177.0 L 298.6,177.0 L 298.7,177.2 L 298.8,177.2 L 299.1,177.4 L 299.1,177.6 L 299.3,177.7 L 299.6,177.7 L 299.7,177.8 L 299.9,178.0 L 300.0,177.9 L 300.2,177.9 L 300.2,177.8 L 300.3,177.7 L 300.4,177.8 L 300.5,177.8 L 300.8,177.9 L 300.9,177.8 L 301.0,177.7 L 301.0,177.7 L 301.0,177.8 L 301.1,177.8 L 301.2,177.8 L 301.4,177.8 L 301.5,177.8 L 301.6,177.7 L 301.8,177.8 L 301.8,177.6 L 301.9,177.6 L 302.0,177.5 L 302.1,177.6 L 302.3,177.4 L 302.5,177.4 L 302.6,177.3 L 302.7,177.4 L 302.8,177.3 L 303.0,177.3 L 303.0,177.3 L 303.1,177.2 L 303.2,177.3 L 303.2,177.2 L 303.4,177.2 L 303.5,177.2 L 303.4,177.3 L 303.4,177.4 L 303.7,177.5 L 303.9,177.5 L 303.9,177.5 L 304.0,177.5 L 304.1,177.5 L 304.2,177.5 L 304.3,177.6 L 304.5,177.6 L 304.6,177.5 L 304.6,177.6 L 304.6,177.6 L 304.6,177.7 L 304.7,177.7 L 304.8,177.8 L 304.9,177.9 L 305.1,178.0 L 305.2,178.1 L 305.3,178.1 L 305.6,178.4 L 305.8,178.6 L 306.2,179.0 L 306.4,179.1 L 306.7,179.4 L 306.9,179.5 L 306.8,179.6 L 306.9,179.7 L 306.9,179.7 L 306.9,179.8 L 307.1,180.0 L 307.2,180.2 L 307.4,180.4 L 307.5,180.5 L 307.6,180.5 L 307.7,180.6 L 307.6,180.7 L 307.4,180.7 L 307.3,180.7 L 307.3,180.8 L 307.4,180.9 L 307.5,181.0 L 307.5,181.1 L 307.7,181.0 L 307.7,181.0 L 307.7,181.2 L 307.7,181.3 L 307.8,181.4 L 307.7,181.5 L 307.9,181.9 L 308.0,182.0 L 307.9,182.0 L 307.7,181.9 L 307.6,181.9 L 307.6,181.9 L 307.7,182.0 L 307.7,182.2 L 307.6,182.3 L 307.7,182.4 L 307.8,182.6 L 307.9,182.7 L 308.0,182.7 L 308.1,182.6 L 308.3,182.6 L 308.2,182.8 L 308.3,183.0 L 308.5,183.1 L 308.5,183.1 L 308.7,183.6 L 308.8,183.6 L 308.8,183.6 L 308.8,183.7 L 308.8,183.9 L 309.0,184.1 L 308.9,184.1 L 308.7,184.2 L 308.4,184.3 L 308.5,184.4 L 308.6,184.5 L 308.8,184.5 L 309.0,184.6 L 309.1,184.7 L 309.1,184.9 L 309.0,184.9 L 308.8,184.8 L 308.5,184.8 L 308.1,184.8 L 308.0,184.9 L 308.0,185.0 L 308.1,185.2 L 308.5,185.5 L 308.2,185.5 L 308.1,185.6 L 307.8,185.7 L 307.8,185.7 L 307.7,185.8 L 307.8,185.9 L 308.0,186.2 L 308.7,186.7 L 308.9,186.7 L 309.1,186.7 L 309.3,186.9 L 309.4,186.9 L 309.6,186.9 L 309.8,187.1 L 310.1,187.2 L 310.3,187.2 L 310.6,187.2 L 310.8,187.2 L 311.3,187.4 L 311.4,187.5 L 311.6,188.0 L 311.5,188.1 L 311.7,188.3 L 311.8,188.4 L 312.3,188.3 L 312.5,188.4 L 312.7,188.6 L 313.0,188.9 L 313.2,189.1 L 313.3,190.0 L 313.1,190.3 L 313.1,190.4 L 313.3,190.7 L 313.3,190.9 L 313.1,191.2 L 312.7,191.4 L 312.3,191.7 L 312.2,191.7 L 311.8,191.9 L 311.5,191.9 L 311.4,191.9 L 310.6,191.2 L 310.3,191.0 L 309.9,190.8 L 309.6,190.5 L 309.1,189.8 L 308.8,189.5 L 308.5,189.1 L 307.8,188.8 L 307.5,188.6 L 307.2,188.3 L 307.0,188.1 L 306.8,187.8 L 305.5,186.8 L 304.7,186.4 L 304.5,186.1 L 303.9,185.7 L 303.6,185.6 L 303.3,185.5 L 303.1,185.4 L 303.1,185.3 L 302.7,184.8 L 302.1,184.4 L 302.1,184.4 L 302.0,184.4 L 301.7,184.4 L 301.6,184.4 L 301.6,184.3 L 301.5,184.2 L 301.3,184.0 L 300.9,183.9 L 300.7,183.8 L 300.7,183.7 L 300.6,183.6 L 300.3,183.6 L 300.3,183.5 L 299.9,183.4 L 299.8,183.4 L 299.8,183.2 L 299.4,183.0 L 299.3,183.0 L 299.3,183.1 L 299.2,183.1 L 299.0,183.0 L 298.8,183.0 L 298.8,183.1 L 298.8,183.3 L 299.0,183.6 L 299.1,183.6 L 299.3,183.6 L 299.6,183.5 L 299.6,183.5 L 299.5,183.6 L 299.4,183.6 L 299.4,183.7 L 299.5,183.9 L 299.1,184.1 L 299.0,184.3 L 299.0,184.5 L 299.2,184.6 L 299.2,184.9 L 299.1,185.0 L 299.1,185.0 L 299.3,185.2 L 299.3,185.5 L 299.3,185.6 L 299.3,185.7 L 299.3,186.0 L 299.2,186.0 L 299.1,186.1 L 299.1,186.2 L 299.2,186.3 L 299.2,186.4 L 299.1,186.4 L 299.0,186.4 L 299.0,186.5 L 299.0,186.6 L 299.0,186.7 L 298.9,186.7 L 298.7,186.5 L 298.5,186.7 L 298.7,187.2 L 298.7,187.4 L 298.8,187.6 L 298.9,187.8 L 298.9,188.0 L 299.0,188.1 L 298.9,188.4 L 298.9,188.6 L 298.9,188.7 L 298.9,188.9 L 299.1,189.2 L 299.1,189.5 L 299.1,189.8 L 299.3,190.0 L 299.3,190.1 L 299.3,190.2 L 299.2,190.2 L 299.1,190.2 L 299.1,190.3 L 299.0,190.4 L 299.0,190.4 L 298.8,190.3 L 298.6,190.2 L 298.3,190.2 L 298.1,190.1 L 298.0,190.1 L 297.9,190.2 L 297.7,190.2 L 297.5,190.1 L 297.3,190.1 L 297.1,190.3 L 297.0,190.3 L 296.8,190.3 L 296.6,190.1 L 296.5,190.1 L 296.4,190.5 L 296.3,190.5 L 296.1,190.4 L 296.0,190.4 L 295.7,190.3 L 295.5,190.4 L 295.2,190.6 L 295.1,190.6 L 295.0,190.6 L 295.0,190.4 L 294.8,190.3 L 294.7,190.3 L 294.5,190.4 L 294.4,190.5 L 294.3,190.4 L 294.3,190.3 L 294.2,190.3 L 294.1,190.4 L 294.0,190.4 L 294.0,190.5 L 294.3,190.8 L 294.3,191.0 L 294.3,191.1 L 293.9,191.2 L 293.8,191.3 L 293.7,191.5 L 293.7,191.7 L 293.6,191.8 L 293.6,192.0 L 293.4,192.2 L 293.3,192.3 L 293.1,192.5 L 293.0,192.6 L 292.8,192.8 L 292.7,192.9 L 292.8,193.2 L 292.7,193.3 L 292.4,193.3 L 292.2,193.5 L 292.0,193.5 L 291.8,193.5 L 291.6,193.6 L 291.2,193.7 L 291.1,193.6 L 290.9,193.6 L 290.8,193.7 L 290.9,193.9 L 290.8,194.0 L 290.7,193.9 L 290.6,194.0 L 290.5,194.1 L 290.4,194.3 L 290.4,194.5 L 290.5,194.5 L 290.6,194.8 L 290.5,194.9 L 290.5,195.0 L 290.5,195.0 L 285.0,197.6 L 285.0,197.7 L 285.0,197.7 L 284.3,198.0 L 284.3,198.0 L 284.3,197.9 L 284.1,197.9 L 284.0,198.0 L 284.0,198.1 L 240.9,219.3 L 240.8,219.2 L 240.6,219.1 L 240.4,218.9 L 240.2,218.7 L 240.0,218.8 L 239.9,218.8 L 239.5,218.9 L 239.3,218.8 L 239.1,218.7 L 239.1,218.5 L 239.0,218.5 L 239.0,218.6 L 238.9,218.6 L 238.8,218.7 L 238.7,218.7 L 238.7,218.6 L 238.6,218.4 L 238.5,218.3 L 238.4,218.2 L 238.2,218.3 L 237.8,218.3 L 237.6,218.5 L 237.5,218.5 L 237.4,218.6 L 237.4,219.0 L 237.3,219.0 L 237.2,219.2 L 237.0,219.2 L 236.9,219.1 L 236.9,218.9 L 236.8,218.9 L 236.7,218.9 L 236.5,219.0 L 236.3,219.2 L 236.2,219.4 L 236.2,219.6 L 236.3,219.6 L 236.2,219.8 L 236.3,219.9 L 236.3,220.0 L 236.5,220.0 L 236.6,220.0 L 236.6,220.1 L 236.6,220.2 L 236.4,220.5 L 236.1,220.6 L 236.0,220.7 L 236.0,221.1 L 235.9,221.3 L 235.7,221.5 L 235.8,221.6 L 235.7,221.6 L 235.4,221.9 L 234.6,222.0 L 234.4,221.9 L 234.1,221.9 L 234.0,222.2 L 233.8,222.2 L 233.7,222.3 L 233.6,222.4 L 233.4,222.2 L 233.2,221.9 L 233.1,222.0 L 233.0,221.9 L 232.9,222.0 L 232.8,222.0 L 232.8,222.3 L 232.7,222.4 L 232.3,222.3 L 232.1,222.3 L 232.0,222.4 L 232.0,222.5 L 232.1,222.8 L 232.2,222.8 L 232.1,222.9 L 231.6,222.7 L 231.6,222.8 L 231.8,223.1 L 231.8,223.1 L 231.7,223.2 L 231.4,223.0 L 231.4,223.1 L 231.5,223.2 L 231.5,223.4 L 231.4,223.4 L 231.2,223.4 L 230.8,223.2 L 230.7,223.1 L 230.5,223.1 L 230.1,223.1 L 230.0,223.0 L 230.0,222.9 L 230.1,222.8 L 230.0,222.8 L 229.6,222.7 L 229.6,222.7 L 229.6,222.6 L 229.3,222.6 L 229.3,222.5 L 229.3,222.4 L 229.1,222.5 L 229.1,222.5 L 228.9,222.5 L 228.8,222.5 L 228.7,222.5 L 228.7,222.5 L 228.7,222.5 L 228.6,222.6 L 228.5,222.8 L 228.5,223.0 L 228.5,223.0 L 228.8,223.0 L 228.9,223.0 L 229.0,223.2 L 229.0,223.2 L 229.0,223.3 L 229.0,223.3 L 228.9,223.5 L 228.9,223.6 L 229.1,223.6 L 229.2,223.6 L 229.2,223.7 L 229.2,223.8 L 229.1,223.9 L 229.1,223.9 L 229.1,224.0 L 229.1,224.1 L 229.2,224.1 L 229.3,224.2 L 229.4,224.3 L 229.3,224.4 L 229.2,224.4 L 229.2,224.4 L 228.9,224.4 L 228.5,224.3 L 228.3,224.3 L 228.2,224.4 L 228.1,224.5 L 228.0,224.5 L 228.1,224.6 L 228.6,224.5 L 228.7,224.6 L 228.7,224.8 L 228.5,225.0 L 228.4,225.1 L 228.5,225.2 L 228.5,225.2 L 228.0,225.5 L 228.0,225.6 L 228.1,225.6 L 228.4,225.6 L 228.5,225.7 L 228.5,225.8 L 228.5,225.9 L 228.2,225.9 L 227.7,225.9 L 227.4,225.9 L 227.3,226.0 L 227.0,226.1 L 227.0,226.2 L 227.1,226.6 L 227.0,226.6 L 226.8,226.5 L 226.6,226.4 L 226.5,226.5 L 226.5,226.6 L 226.6,226.8 L 226.8,226.9 L 226.9,227.0 L 227.0,227.1 L 226.9,227.3 L 226.7,227.5 L 226.6,227.6 L 226.4,227.5 L 226.3,227.5 L 225.5,227.6 L 225.5,227.7 L 225.6,227.8 L 225.5,227.8 L 225.5,228.0 L 225.1,228.1 L 225.0,228.1 L 225.0,228.2 L 225.2,228.3 L 225.3,228.4 L 225.4,228.5 L 225.3,228.5 L 225.2,228.5 L 224.6,228.2 L 224.5,228.3 L 224.4,228.4 L 224.4,228.6 L 224.3,228.8 L 224.4,228.8 L 224.3,228.9 L 224.4,229.0 L 224.6,229.0 L 224.7,229.1 L 224.9,229.1 L 225.1,229.2 L 225.3,229.2 L 225.3,229.1 L 225.4,229.1 L 225.4,229.1 L 225.4,229.3 L 225.5,229.4 L 225.5,229.5 L 225.5,229.6 L 225.7,229.8 L 225.8,229.9 L 225.9,229.9 L 226.4,230.3 L 226.4,230.4 L 226.4,230.7 L 226.4,230.9 L 226.2,231.1 L 226.0,231.3 L 225.6,231.3 L 225.2,231.6 L 224.9,231.6 L 224.7,231.6 L 224.2,231.5 L 223.8,231.4 L 223.6,231.2 L 223.4,231.2 L 223.1,231.2 L 222.8,231.2 L 222.7,231.3 L 222.5,231.3 L 222.2,231.2 L 221.6,231.2 L 221.6,231.1 L 221.4,231.0 L 221.1,231.0 L 221.0,230.9 L 220.9,230.9 L 220.7,230.9 L 220.6,231.0 L 220.6,231.2 L 220.9,231.2 L 220.9,231.3 L 220.8,231.4 L 220.6,231.6 L 220.3,231.6 L 220.2,231.7 L 220.1,231.8 L 219.8,231.7 L 219.7,231.6 L 219.6,231.6 L 219.4,231.7 L 219.4,231.9 L 219.1,232.0 L 218.8,231.8 L 218.8,231.8 L 218.8,232.0 L 218.7,232.1 L 218.6,232.3 L 218.6,232.4 L 218.5,232.6 L 218.5,232.8 L 218.5,232.8 L 218.3,232.9 L 218.1,232.9 L 217.8,232.7 L 217.5,232.6 L 217.1,232.8 L 217.1,232.9 L 217.2,233.0 L 217.2,233.1 L 217.1,233.2 L 216.9,233.3 L 216.5,233.2 L 216.1,233.3 L 216.0,233.4 L 216.0,233.5 L 216.1,233.7 L 216.2,233.8 L 216.2,233.9 L 216.4,234.0 L 216.5,234.1 L 216.6,234.1 L 216.7,234.4 L 216.7,234.6 L 216.7,234.7 L 216.7,235.0 L 216.7,235.1 L 216.8,235.0 L 216.9,235.0 L 216.9,235.1 L 216.9,235.3 L 216.9,235.5 L 216.8,235.6 L 216.7,235.9 L 216.5,236.1 L 216.5,236.1 L 216.6,236.3 L 216.5,236.4 L 216.4,236.5 L 216.2,236.3 L 216.2,236.2 L 216.1,236.2 L 216.0,236.3 L 215.8,236.4 L 215.8,236.3 L 215.7,236.3 L 215.6,236.4 L 215.5,236.3 L 215.4,236.4 L 215.3,236.5 L 215.4,236.6 L 215.4,236.7 L 215.5,236.7 L 215.5,236.8 L 215.5,236.9 L 215.7,237.0 L 215.7,237.0 L 215.8,237.1 L 215.8,237.2 L 215.7,237.3 L 215.7,237.5 L 215.5,237.7 L 215.2,237.9 L 215.0,237.9 L 214.8,237.8 L 214.3,237.5 L 213.9,236.9 L 213.8,236.9 L 213.8,236.9 L 213.8,236.8 L 213.6,236.6 L 213.4,236.5 L 213.3,236.5 L 212.9,236.6 L 212.9,236.8 L 212.8,236.9 L 212.7,237.0 L 212.7,237.0 L 212.7,237.0 L 212.7,237.1 L 212.8,237.4 L 212.9,237.6 L 213.1,237.7 L 213.1,237.8 L 213.0,237.9 L 213.0,238.1 L 213.1,238.2 L 213.1,238.3 L 213.2,238.5 L 213.2,238.7 L 213.3,239.0 L 213.4,239.1 L 213.4,239.2 L 213.4,239.5 L 213.4,239.6 L 213.5,239.7 L 213.7,239.8 L 213.7,240.0 L 213.7,240.1 L 213.5,240.1 L 213.3,240.6 L 213.2,240.6 L 212.9,240.4 L 212.8,240.1 L 212.7,240.0 L 212.5,239.8 L 212.4,239.7 L 212.3,239.6 L 212.1,239.7 L 211.9,239.8 L 211.8,240.1 L 211.8,240.6 L 211.5,240.8 L 211.4,240.9 L 211.3,241.0 L 211.4,241.2 L 211.3,241.4 L 211.4,241.4 L 211.4,241.4 L 211.5,241.4 L 211.6,241.4 L 211.6,241.4 L 211.5,241.5 L 211.3,241.8 L 211.3,241.9 L 211.1,241.9 L 210.8,242.2 L 210.7,242.4 L 210.8,242.5 L 177.4,265.1 L 177.2,265.1 L 176.9,265.1 L 176.9,265.0 L 177.2,264.9 L 177.3,264.8 L 177.2,264.8 L 177.1,264.7 L 176.8,264.9 L 176.7,264.8 L 176.7,264.8 L 176.8,264.7 L 176.7,264.6 L 176.6,264.6 L 176.5,264.8 L 176.5,264.8 L 176.4,264.8 L 176.2,264.9 L 176.1,265.0 L 176.0,264.9 L 176.1,264.8 L 176.2,264.6 L 176.1,264.6 L 175.9,264.6 L 175.6,264.7 L 175.6,264.7 L 175.7,264.5 L 175.7,264.5 L 175.6,264.5 L 175.3,264.7 L 175.2,264.8 L 175.2,264.9 L 175.4,264.9 L 175.4,265.0 L 175.3,265.1 L 175.1,265.1 L 174.9,265.4 L 175.0,265.5 L 175.0,265.5 L 174.9,265.7 L 174.7,265.7 L 174.7,265.8 L 174.7,265.9 L 174.5,266.1 L 174.2,266.2 L 174.1,266.2 L 174.0,266.2 L 173.4,265.8 L 173.2,265.8 L 173.0,265.8 L 173.0,265.6 L 173.0,265.5 L 173.0,265.4 L 173.1,265.4 L 173.1,265.2 L 172.8,264.9 L 172.5,264.8 L 172.3,264.7 L 171.9,264.6 L 171.5,264.7 L 171.4,264.8 L 171.4,265.0 L 171.4,265.1 L 171.1,265.2 L 171.0,265.3 L 171.0,265.3 L 143.1,271.0 L 142.9,270.7 L 142.7,270.5 L 142.6,270.4 L 142.2,270.2 L 141.9,270.2 L 141.7,270.2 L 141.6,270.1 L 141.5,270.1 L 141.2,270.1 L 140.6,270.0 L 140.2,270.1 L 140.1,270.1 L 139.9,270.1 L 139.8,270.1 L 139.8,270.2 L 139.7,270.2 L 139.4,270.0 L 139.4,270.0 L 139.4,269.9 L 139.6,269.9 L 139.6,269.8 L 139.3,269.7 L 139.2,269.8 L 139.1,269.9 L 139.0,269.8 L 138.9,269.8 L 138.8,269.6 L 138.7,269.6 L 138.5,269.6 L 138.0,269.4 L 137.8,269.4 L 137.4,269.3 L 137.2,269.3 L 137.1,269.2 L 137.1,269.1 L 136.9,269.1 L 136.7,269.2 L 136.7,269.2 L 136.6,269.3 L 136.5,269.2 L 136.3,269.3 L 136.1,269.2 L 136.1,269.1 L 136.1,269.1 L 136.0,269.1 L 135.5,269.1 L 135.5,269.0 L 135.5,268.9 L 135.3,268.9 L 135.0,268.9 L 134.9,268.9 L 134.9,269.1 L 134.7,269.1 L 134.5,269.2 L 134.5,269.4 L 135.0,269.4 L 135.0,269.5 L 134.8,269.5 L 134.8,269.6 L 135.0,269.6 L 134.9,269.8 L 135.2,269.8 L 135.3,269.8 L 135.6,269.8 L 135.7,269.9 L 135.7,270.0 L 135.6,270.1 L 135.5,270.2 L 135.3,270.3 L 135.3,270.3 L 135.5,270.4 L 135.5,270.4 L 135.2,270.6 L 135.3,270.8 L 135.4,270.9 L 135.7,270.9 L 135.7,271.0 L 135.6,271.0 L 135.6,271.1 L 135.3,271.1 L 135.3,271.2 L 135.4,271.2 L 135.4,271.4 L 135.6,271.4 L 135.7,271.4 L 135.7,271.5 L 136.0,271.5 L 136.5,271.6 L 136.6,271.6 L 136.6,271.7 L 137.0,271.8 L 137.1,271.9 L 137.4,272.0 L 137.6,271.9 L 137.7,271.9 L 137.8,272.1 L 138.0,272.2 L 138.0,272.3 L 138.1,272.5 L 138.1,272.6 L 138.0,272.6 L 138.0,272.7 L 138.2,272.8 L 138.4,272.8 L 138.4,272.7 L 138.6,272.7 L 138.7,272.8 L 138.8,273.0 L 138.9,273.1 L 139.1,273.1 L 139.2,273.1 L 139.2,273.3 L 139.1,273.4 L 139.1,273.5 L 139.5,273.6 L 139.4,273.7 L 139.4,273.9 L 139.5,273.9 L 139.8,274.0 L 140.1,274.1 L 140.1,274.3 L 140.3,274.4 L 140.4,274.4 L 140.5,274.6 L 140.4,274.7 L 140.4,274.7 L 140.7,274.8 L 140.9,274.9 L 140.8,275.1 L 140.8,275.4 L 140.7,275.5 L 140.3,275.7 L 139.9,275.7 L 139.7,275.8 L 139.5,275.8 L 139.3,275.8 L 139.1,275.8 L 138.9,275.9 L 138.7,275.9 L 138.5,275.9 L 138.0,276.1 L 137.9,276.2 L 137.7,276.2 L 137.6,276.3 L 137.6,276.4 L 137.4,276.7 L 137.3,276.7 L 137.1,276.7 L 136.5,276.8 L 136.4,277.0 L 136.3,277.0 L 136.1,277.0 L 135.9,277.0 L 135.4,277.1 L 135.3,277.2 L 135.2,277.5 L 135.3,277.6 L 135.6,277.6 L 135.6,277.7 L 135.6,277.7 L 135.6,277.8 L 135.7,277.9 L 135.6,277.9 L 135.4,277.9 L 135.3,277.9 L 135.1,278.0 L 135.0,278.1 L 135.1,278.2 L 135.1,278.2 L 135.0,278.3 L 135.0,278.5 L 134.8,278.5 L 134.4,278.5 L 134.4,278.5 L 134.3,278.6 L 134.4,278.6 L 134.5,278.6 L 134.5,278.7 L 134.4,278.7 L 134.3,278.8 L 134.3,278.8 L 134.2,278.9 L 134.2,278.9 L 134.5,279.0 L 134.5,279.1 L 134.3,279.1 L 134.2,279.2 L 134.2,279.3 L 134.3,279.4 L 134.5,279.4 L 134.7,279.4 L 134.7,279.6 L 134.6,279.8 L 134.5,280.2 L 134.4,280.4 L 134.2,280.4 L 134.1,280.6 L 134.1,280.6 L 133.9,280.6 L 133.9,280.9 L 133.7,280.9 L 133.7,281.0 L 133.5,281.1 L 133.5,281.2 L 133.1,281.9 L 133.1,282.1 L 133.0,282.2 L 132.9,282.3 L 132.9,282.4 L 133.0,282.5 L 133.1,282.6 L 133.0,282.7 L 132.9,283.1 L 132.8,283.3 L 132.8,283.4 L 132.9,283.5 L 132.9,283.6 L 132.6,283.6 L 132.5,283.7 L 132.7,283.9 L 132.7,284.0 L 132.4,284.1 L 132.3,284.2 L 132.1,284.3 L 131.9,284.5 L 131.7,284.6 L 131.7,284.7 L 131.9,284.7 L 132.0,284.8 L 131.9,284.9 L 131.8,284.9 L 131.5,284.9 L 131.4,284.9 L 131.5,285.1 L 131.6,285.1 L 131.7,285.1 L 131.8,285.2 L 131.4,285.2 L 131.3,285.3 L 131.3,285.4 L 131.4,285.5 L 131.7,285.6 L 132.0,285.6 L 132.1,285.6 L 131.9,286.3 L 131.9,286.6 L 131.9,286.9 L 132.0,287.1 L 131.9,287.2 L 131.6,287.2 L 131.4,287.3 L 131.3,287.5 L 131.1,287.5 L 131.0,287.7 L 130.8,287.8 L 130.8,287.9 L 130.9,287.9 L 131.0,288.0 L 130.7,288.1 L 130.7,288.1 L 99.7,306.9 L 99.6,306.8 L 99.4,306.8 L 99.3,306.7 L 99.1,306.7 L 98.6,306.7 L 98.5,306.7 L 98.2,306.5 L 97.7,306.5 L 97.7,306.5 L 97.5,306.4 L 97.3,306.3 L 97.1,306.4 L 97.0,306.4 L 96.7,306.3 L 96.8,306.5 L 96.7,306.5 L 96.5,306.4 L 96.1,306.6 L 95.9,306.7 L 95.8,306.7 L 95.7,306.8 L 95.5,306.8 L 95.3,307.0 L 95.2,307.0 L 95.2,307.2 L 95.2,307.3 L 95.0,307.3 L 94.9,307.4 L 94.8,307.4 L 94.8,307.4 L 94.8,307.5 L 94.8,307.6 L 94.7,307.7 L 94.6,307.7 L 94.7,307.8 L 94.9,307.9 L 94.9,308.0 L 94.7,308.0 L 94.5,308.1 L 94.4,308.2 L 94.3,308.3 L 94.2,308.4 L 94.1,308.4 L 94.2,308.6 L 94.4,308.8 L 94.5,309.0 L 94.4,309.1 L 94.1,309.5 L 94.1,309.6 L 94.1,309.6 L 94.1,309.7 L 41.0,320.5 L 41.0,320.3 L 41.1,320.1 L 41.1,319.9 L 41.0,319.8 L 40.8,319.8 L 40.7,320.0 L 40.7,320.0 L 40.7,320.0 L 40.6,319.8 L 40.8,319.7 L 40.9,319.4 L 40.9,318.9 L 40.8,318.8 L 40.7,318.8 L 40.5,318.9 L 40.5,319.0 L 40.4,319.0 L 40.4,319.0 L 40.0,317.1 L 40.2,317.1 L 40.3,317.0 L 40.4,317.1 L 40.6,317.2 L 40.7,317.1 L 40.7,317.0 L 40.6,316.8" fill="none" stroke="black" stroke-width="2"/>
</svg>