<?xml version="1.0" encoding="UTF-8"?>
<svg width="400" height="400" viewBox="0 0 400 400" xmlns="http://www.w3.org/2000/svg">
  <rect width="400" height="400" fill="white"/>
  <path d="M 77.4,245.3 L 78.7,244.4 L 82.1,239.8 L 85.8,236.9 L 87.1,235.5 L 95.1,224.8 L 95.4,223.6 L 95.1,222.0 L 92.1,219.7 L 91.3,218.0 L 90.7,216.4 L 88.8,215.0 L 87.6,212.8 L 85.5,211.1 L 84.9,209.5 L 84.6,207.9 L 83.8,207.4 L 82.7,207.1 L 81.5,206.1 L 79.3,203.0 L 78.6,198.4 L 76.7,197.0 L 75.6,196.6 L 74.4,194.8 L 73.3,191.3 L 72.6,189.5 L 72.1,185.8 L 70.9,185.1 L 70.4,183.0 L 69.4,180.5 L 68.3,179.5 L 67.0,179.2 L 66.7,178.7 L 65.8,175.3 L 64.1,175.0 L 63.1,174.1 L 62.9,173.9 L 62.1,172.9 L 61.9,172.6 L 60.1,171.4 L 59.4,170.5 L 59.2,167.9 L 60.0,164.9 L 61.0,163.3 L 62.3,161.2 L 63.8,159.5 L 66.0,158.8 L 69.4,158.7 L 75.0,159.5 L 75.6,159.3 L 81.7,160.1 L 84.6,161.1 L 87.6,161.8 L 92.2,162.2 L 96.3,162.0 L 100.8,161.2 L 104.0,159.3 L 105.5,159.0 L 107.1,159.4 L 111.2,157.9 L 114.3,156.3 L 121.3,153.8 L 124.0,153.1 L 125.1,151.9 L 125.7,152.1 L 126.6,151.7 L 126.6,150.2 L 127.5,150.1 L 128.3,150.7 L 134.6,149.2 L 136.3,148.1 L 138.6,147.7 L 139.6,146.7 L 139.6,145.8 L 140.9,144.4 L 143.9,142.2 L 144.7,140.8 L 146.4,139.4 L 148.1,138.5 L 148.4,138.0 L 150.0,136.2 L 152.7,133.7 L 153.8,132.2 L 153.8,131.0 L 154.0,129.6 L 153.6,127.0 L 154.3,124.4 L 155.3,123.0 L 157.2,121.7 L 157.9,120.2 L 157.5,118.6 L 156.3,118.5 L 154.8,118.8 L 154.4,119.2 L 154.9,119.6 L 155.3,120.1 L 155.1,120.8 L 153.1,121.9 L 151.3,124.3 L 150.2,124.9 L 149.6,125.6 L 149.3,126.9 L 148.6,127.9 L 148.7,128.9 L 148.5,129.6 L 147.2,130.3 L 145.1,130.0 L 144.5,129.2 L 144.3,128.0 L 144.8,127.2 L 144.3,126.7 L 144.4,126.1 L 145.6,125.3 L 146.1,124.1 L 145.8,122.0 L 145.9,121.6 L 146.7,120.1 L 147.0,118.0 L 148.7,115.8 L 149.7,114.4 L 150.2,113.6 L 150.5,112.0 L 151.4,109.4 L 151.4,106.1 L 152.4,103.0 L 155.2,98.7 L 158.0,95.9 L 159.2,94.9 L 160.5,93.4 L 163.6,91.6 L 167.0,90.0 L 169.4,88.6 L 172.5,86.4 L 175.1,86.0 L 176.3,86.6 L 177.9,88.5 L 179.6,91.1 L 180.2,95.0 L 180.2,97.1 L 180.0,99.9 L 179.3,102.2 L 175.3,107.4 L 176.1,108.2 L 177.4,109.7 L 180.6,112.0 L 181.2,111.7 L 181.1,110.8 L 179.3,109.2 L 179.3,108.2 L 180.0,106.8 L 182.1,106.5 L 184.7,107.4 L 186.7,109.2 L 187.2,110.4 L 187.0,112.9 L 186.4,113.9 L 185.3,114.5 L 185.3,115.2 L 187.6,114.8 L 189.0,114.9 L 191.1,116.1 L 192.9,116.9 L 195.0,118.3 L 195.5,119.1 L 195.2,119.7 L 194.0,120.1 L 192.3,119.3 L 191.6,120.6 L 192.1,121.1 L 193.7,121.2 L 196.7,122.7 L 199.6,122.6 L 200.6,123.2 L 202.1,124.9 L 202.4,126.1 L 202.3,128.0 L 199.4,131.9 L 199.4,132.5 L 202.8,132.6 L 204.3,132.2 L 206.1,130.9 L 207.2,129.3 L 207.1,127.1 L 207.7,126.7 L 209.1,127.5 L 210.1,127.2 L 210.4,126.3 L 210.3,124.9 L 210.9,124.3 L 214.8,122.9 L 215.0,122.2 L 214.8,121.8 L 211.2,122.3 L 210.1,121.8 L 208.7,120.3 L 205.7,118.8 L 198.2,117.2 L 195.3,116.4 L 193.4,115.3 L 191.7,113.1 L 189.0,107.6 L 186.0,105.0 L 183.2,101.7 L 182.8,99.3 L 183.8,96.9 L 186.9,92.2 L 188.7,90.3 L 190.2,89.8 L 193.8,89.2 L 196.4,89.7 L 199.8,91.5 L 200.8,91.2 L 202.2,90.2 L 206.9,89.2 L 209.7,89.4 L 210.9,88.7 L 210.6,88.1 L 208.4,87.6 L 208.1,86.2 L 209.3,83.5 L 210.9,81.2 L 214.2,79.0 L 215.7,78.7 L 216.0,78.4 L 219.1,78.0 L 221.2,78.5 L 223.8,80.3 L 226.0,85.0 L 228.7,85.6 L 230.3,85.3 L 230.8,85.2 L 233.8,83.8 L 234.7,82.9 L 235.6,82.4 L 235.9,81.7 L 235.0,79.5 L 233.3,78.3 L 230.1,78.7 L 228.7,77.4 L 228.7,77.4 L 226.5,78.0 L 225.5,77.7 L 223.8,75.7 L 222.2,75.2 L 218.8,73.7 L 218.1,72.0 L 217.8,69.3 L 218.6,67.7 L 220.1,65.7 L 221.4,65.2 L 222.7,65.9 L 224.4,68.1 L 226.1,68.6 L 226.9,68.3 L 227.1,68.2 L 227.9,66.7 L 227.9,63.9 L 227.9,63.9 L 228.7,61.6 L 230.5,59.9 L 230.7,59.6 L 231.6,59.1 L 233.4,57.9 L 235.7,56.8 L 237.7,56.2 L 240.7,57.1 L 244.9,57.7 L 246.3,58.4 L 247.3,60.9 L 247.3,61.0 L 249.1,62.6 L 251.9,64.6 L 253.2,65.1 L 254.7,64.8 L 256.5,63.6 L 259.0,62.4 L 259.9,61.5 L 261.8,63.0 L 261.8,63.4 L 263.7,66.7 L 264.0,68.5 L 265.4,69.5 L 268.2,70.0 L 269.0,70.5 L 278.1,79.5 L 279.2,81.6 L 279.2,84.3 L 278.3,85.8 L 277.3,86.0 L 276.7,86.4 L 276.9,87.5 L 276.8,88.7 L 275.4,90.0 L 273.9,89.9 L 272.1,90.2 L 271.3,90.8 L 270.1,93.0 L 270.3,94.3 L 272.0,95.3 L 274.5,95.8 L 277.3,95.2 L 278.0,94.3 L 279.4,94.6 L 281.7,92.2 L 282.0,91.3 L 283.4,90.3 L 286.1,89.9 L 289.9,90.9 L 290.9,92.2 L 291.0,92.9 L 290.3,95.2 L 290.8,95.7 L 291.7,96.2 L 293.4,96.1 L 294.9,96.2 L 295.3,96.1 L 298.5,97.0 L 304.3,97.3 L 311.5,96.8 L 314.6,96.0 L 315.6,94.9 L 315.2,92.1 L 317.3,89.6 L 321.4,89.3 L 324.5,88.5 L 331.7,89.5 L 337.1,91.7 L 339.3,92.2 L 343.3,91.0 L 349.1,91.0 L 351.1,90.5 L 353.8,89.2 L 355.1,88.8 L 356.7,87.6 L 360.0,87.1 L 359.9,256.4 L 359.9,256.8 L 351.6,255.4 L 346.5,256.3 L 344.2,257.0 L 342.4,258.1 L 342.2,258.7 L 341.6,259.3 L 337.9,260.8 L 332.9,264.2 L 330.2,265.6 L 326.1,266.5 L 323.7,266.0 L 323.8,265.4 L 324.8,264.8 L 324.5,264.1 L 322.2,263.5 L 320.9,263.7 L 319.9,263.1 L 319.6,262.6 L 318.3,261.7 L 316.0,260.6 L 313.5,260.0 L 311.9,260.1 L 311.0,260.8 L 309.4,260.7 L 305.2,261.9 L 299.8,264.4 L 294.1,267.6 L 289.8,269.3 L 284.2,272.3 L 280.3,273.2 L 279.3,274.5 L 276.9,275.6 L 276.6,276.9 L 274.9,278.7 L 272.4,281.1 L 271.0,283.6 L 270.2,284.2 L 270.1,284.3 L 267.5,284.9 L 264.9,284.3 L 263.3,283.1 L 263.4,282.3 L 263.6,281.7 L 262.3,280.9 L 260.5,279.4 L 260.4,278.5 L 260.7,277.5 L 259.5,276.8 L 260.2,275.9 L 259.2,275.1 L 259.1,274.4 L 258.0,273.3 L 258.0,272.1 L 260.9,265.4 L 261.5,264.5 L 260.9,264.0 L 260.1,264.0 L 260.0,263.4 L 260.8,262.7 L 262.6,261.8 L 262.9,261.1 L 262.6,259.6 L 263.7,258.8 L 264.3,258.3 L 264.4,256.5 L 264.6,256.0 L 265.3,254.3 L 265.8,253.8 L 268.0,252.7 L 267.9,252.1 L 265.9,251.6 L 265.9,250.9 L 266.2,250.2 L 266.0,248.7 L 266.3,247.8 L 265.8,247.4 L 264.7,247.0 L 264.9,246.4 L 264.7,245.2 L 262.8,244.4 L 263.5,243.5 L 263.5,242.8 L 265.6,241.5 L 265.7,241.1 L 265.2,240.6 L 263.9,240.5 L 261.6,241.1 L 261.6,241.1 L 259.5,242.3 L 258.4,243.9 L 255.9,245.5 L 251.1,247.8 L 248.4,250.8 L 246.3,251.3 L 245.2,252.7 L 244.2,253.1 L 243.0,254.1 L 242.0,255.7 L 238.5,258.8 L 236.8,260.7 L 236.5,262.0 L 234.4,264.9 L 232.2,266.9 L 229.9,269.7 L 226.7,270.9 L 224.9,270.8 L 222.8,270.2 L 219.6,270.0 L 217.7,269.2 L 217.0,268.4 L 214.6,268.4 L 213.3,267.7 L 208.1,269.0 L 206.4,268.7 L 204.8,267.5 L 204.2,266.4 L 205.3,264.7 L 204.8,262.8 L 203.6,261.8 L 202.9,261.5 L 198.9,262.7 L 195.4,264.3 L 192.7,265.1 L 190.1,264.3 L 187.8,264.4 L 186.2,263.7 L 183.9,264.1 L 180.9,263.9 L 178.6,264.3 L 174.8,265.1 L 172.2,266.5 L 170.4,267.7 L 168.8,269.1 L 166.0,273.4 L 163.0,282.1 L 161.1,285.0 L 158.5,287.8 L 155.8,290.1 L 154.0,291.1 L 151.8,291.8 L 150.4,292.7 L 148.7,293.4 L 143.7,294.6 L 136.4,298.4 L 134.0,299.2 L 131.3,299.3 L 124.4,297.8 L 118.9,298.6 L 115.9,300.1 L 114.1,299.2 L 113.6,297.7 L 113.9,295.9 L 113.4,294.4 L 111.8,294.1 L 110.7,294.7 L 109.3,296.5 L 108.5,298.9 L 107.5,302.0 L 107.6,303.4 L 108.4,304.5 L 108.6,305.4 L 108.5,306.9 L 107.2,310.8 L 105.8,312.7 L 105.2,312.5 L 104.7,312.6 L 104.4,313.6 L 103.5,315.5 L 103.7,317.1 L 105.8,317.5 L 107.8,320.3 L 107.9,321.4 L 106.3,324.3 L 103.7,325.7 L 102.8,325.3 L 102.1,325.4 L 101.1,326.0 L 98.5,326.5 L 97.2,326.3 L 97.1,325.1 L 97.3,323.7 L 97.0,323.1 L 95.3,322.8 L 95.5,321.6 L 94.1,317.1 L 93.6,316.5 L 91.9,316.6 L 91.8,316.7 L 89.7,318.0 L 87.5,320.0 L 84.7,322.3 L 82.5,323.4 L 81.6,322.9 L 78.6,323.2 L 77.9,323.9 L 77.7,325.2 L 78.0,325.8 L 79.4,326.0 L 80.2,326.8 L 81.7,327.1 L 81.5,327.6 L 78.3,328.5 L 76.7,330.4 L 74.6,331.0 L 73.7,330.4 L 73.3,328.2 L 72.5,326.9 L 72.6,325.4 L 72.9,323.5 L 72.6,321.2 L 70.7,320.0 L 66.9,318.9 L 64.5,319.1 L 63.3,319.9 L 62.2,322.1 L 62.2,324.3 L 61.2,326.0 L 61.5,327.7 L 62.3,329.0 L 64.0,329.9 L 64.2,331.1 L 64.7,332.3 L 63.4,332.6 L 63.3,334.6 L 62.1,337.4 L 60.4,339.3 L 60.5,340.4 L 63.4,339.9 L 63.5,339.0 L 63.5,337.8 L 65.8,336.7 L 66.8,337.0 L 67.2,337.5 L 67.3,338.4 L 68.1,339.8 L 68.7,341.7 L 68.2,343.0 L 66.7,343.1 L 65.1,343.8 L 63.1,342.5 L 62.1,342.8 L 60.9,343.6 L 59.7,343.1 L 56.5,340.7 L 53.0,339.1 L 52.4,336.8 L 52.3,335.4 L 52.6,333.3 L 52.5,332.6 L 51.7,332.7 L 50.3,333.7 L 49.5,334.0 L 47.9,332.8 L 45.8,330.6 L 45.6,329.4 L 46.2,328.5 L 47.2,328.1 L 48.3,326.5 L 48.0,325.7 L 47.4,325.4 L 46.2,325.9 L 44.9,326.9 L 44.3,326.9 L 43.2,324.7 L 42.8,322.5 L 41.8,322.7 L 40.4,323.3 L 40.0,323.1 L 41.3,320.0 L 43.1,319.0 L 42.9,318.3 L 41.5,318.2 L 40.9,317.0 L 40.8,315.3 L 41.6,313.5 L 41.9,311.8 L 43.0,310.1 L 41.7,308.7 L 43.4,303.6 L 43.5,301.3 L 43.0,299.2 L 42.3,297.5 L 42.2,296.0 L 43.4,293.6 L 44.7,292.4 L 46.7,291.5 L 51.8,290.5 L 53.2,289.9 L 55.7,286.5 L 58.6,285.3 L 60.0,283.4 L 61.2,280.5 L 61.4,278.9 L 60.5,278.3 L 59.0,277.9 L 57.8,275.8 L 57.2,274.4 L 57.5,270.5 L 58.4,268.2 L 60.5,264.8 L 64.3,262.0 L 66.7,258.8 L 70.2,253.8 L 76.2,246.2 L 77.4,245.3" fill="none" stroke="black" stroke-width="2"/>
</svg>