<?xml version="1.0" encoding="UTF-8"?>
<svg width="400" height="400" viewBox="0 0 400 400" xmlns="http://www.w3.org/2000/svg">
  <rect width="400" height="400" fill="white"/>
  <path d="M 187.4,203.1 L 187.3,201.4 L 187.4,200.5 L 187.3,200.2 L 187.0,200.0 L 185.9,200.0 L 185.9,200.0 L 184.9,199.9 L 184.8,199.3 L 184.2,199.1 L 183.9,199.1 L 183.5,199.0 L 182.8,198.2 L 182.1,197.6 L 182.1,197.4 L 182.2,197.1 L 181.9,196.4 L 181.6,196.3 L 181.1,196.3 L 180.9,195.5 L 180.7,195.1 L 180.4,192.9 L 180.4,192.6 L 180.9,191.0 L 180.8,190.0 L 180.5,189.5 L 180.4,189.5 L 180.1,189.8 L 179.8,189.9 L 179.5,189.2 L 179.6,188.6 L 179.4,187.8 L 179.9,186.8 L 179.8,186.6 L 179.6,186.3 L 179.3,185.3 L 179.1,185.1 L 178.9,184.6 L 178.5,183.9 L 178.3,183.8 L 177.9,183.8 L 177.7,183.1 L 177.1,183.1 L 177.0,182.8 L 177.1,182.3 L 176.9,181.7 L 176.4,181.4 L 176.6,181.0 L 176.4,180.8 L 176.1,180.7 L 176.1,180.3 L 175.4,179.3 L 175.2,179.1 L 175.0,178.7 L 174.6,178.5 L 174.6,178.2 L 174.8,178.0 L 174.1,176.4 L 173.4,175.9 L 173.0,175.7 L 172.8,175.3 L 172.8,174.3 L 172.9,173.8 L 172.7,173.4 L 172.1,172.6 L 171.4,172.2 L 171.1,172.2 L 170.6,172.1 L 170.4,171.9 L 170.1,171.3 L 170.0,171.1 L 169.8,170.5 L 169.5,170.2 L 169.1,169.4 L 169.1,169.1 L 169.7,168.9 L 169.9,168.5 L 169.8,168.4 L 168.9,167.1 L 168.6,166.8 L 168.1,166.8 L 168.1,166.6 L 168.2,166.4 L 168.1,166.3 L 167.6,166.1 L 167.2,166.1 L 166.9,165.7 L 166.8,165.2 L 166.4,164.8 L 166.1,164.8 L 165.8,164.3 L 165.3,164.1 L 165.4,163.7 L 165.5,162.9 L 165.3,162.4 L 164.8,162.1 L 164.8,161.9 L 164.9,161.8 L 164.8,161.6 L 164.5,161.4 L 164.6,161.3 L 164.7,161.1 L 164.1,160.6 L 163.6,160.6 L 163.7,160.2 L 163.7,159.8 L 163.8,159.5 L 163.6,159.4 L 163.3,159.3 L 163.2,158.8 L 162.8,158.4 L 161.8,158.1 L 161.3,158.2 L 161.2,157.8 L 160.9,157.7 L 160.5,157.6 L 160.3,157.6 L 160.0,157.2 L 159.5,157.2 L 159.0,156.6 L 157.9,156.3 L 156.9,156.1 L 156.6,156.1 L 156.4,156.3 L 155.9,156.5 L 155.6,156.4 L 154.8,155.9 L 153.6,155.9 L 153.3,156.2 L 153.1,156.0 L 152.9,156.0 L 152.6,156.2 L 152.4,156.1 L 152.1,156.1 L 151.3,157.2 L 151.0,157.3 L 150.0,156.7 L 149.4,156.8 L 149.2,157.2 L 148.7,157.0 L 148.4,157.0 L 148.2,156.6 L 147.9,156.6 L 147.3,156.3 L 147.0,156.2 L 146.9,156.2 L 146.6,156.4 L 146.6,156.6 L 146.7,156.8 L 146.7,157.0 L 146.1,157.1 L 145.7,157.1 L 145.5,157.4 L 145.3,157.9 L 145.6,158.4 L 145.8,158.7 L 145.1,159.2 L 145.1,159.4 L 145.4,159.9 L 146.1,160.6 L 146.3,161.1 L 146.3,161.4 L 146.1,161.8 L 146.4,162.3 L 146.3,162.5 L 146.3,162.8 L 146.7,163.1 L 146.9,164.1 L 146.9,165.6 L 146.7,166.1 L 146.4,166.4 L 145.9,166.7 L 145.1,166.9 L 144.6,166.6 L 144.0,166.2 L 143.4,165.9 L 143.0,165.5 L 142.7,164.3 L 142.3,164.1 L 141.4,164.0 L 140.8,163.5 L 140.5,163.0 L 140.0,162.8 L 138.5,162.9 L 138.1,162.7 L 137.8,162.3 L 137.5,162.3 L 137.0,162.3 L 136.8,162.1 L 136.3,160.3 L 136.1,160.0 L 136.0,158.3 L 135.7,157.9 L 135.6,156.8 L 136.0,156.5 L 136.0,156.2 L 135.9,155.4 L 135.9,155.0 L 135.8,154.3 L 135.4,153.8 L 135.2,153.5 L 135.4,153.1 L 135.5,153.0 L 136.1,152.8 L 136.2,152.6 L 136.1,152.1 L 136.4,151.8 L 136.2,150.8 L 136.4,150.3 L 136.8,150.0 L 137.7,149.6 L 137.9,149.3 L 137.9,148.9 L 138.1,148.5 L 137.9,147.8 L 137.5,147.6 L 137.5,147.4 L 138.0,147.4 L 138.0,147.2 L 137.2,146.7 L 136.2,146.7 L 135.8,146.5 L 135.7,146.2 L 135.5,146.1 L 134.9,146.1 L 134.5,145.9 L 133.5,146.1 L 133.1,145.8 L 133.1,145.3 L 133.0,145.1 L 132.5,144.6 L 132.1,144.6 L 131.9,144.7 L 131.7,144.5 L 131.7,144.0 L 131.1,144.0 L 130.7,143.7 L 130.6,143.3 L 130.5,142.9 L 130.2,142.7 L 130.2,142.4 L 130.5,142.2 L 130.2,141.8 L 130.1,141.5 L 129.2,140.8 L 129.0,140.3 L 128.8,140.1 L 128.4,139.9 L 127.7,139.3 L 127.5,138.7 L 126.9,138.0 L 126.4,137.2 L 125.7,136.7 L 125.3,136.4 L 125.3,135.9 L 125.0,135.8 L 125.1,135.5 L 124.7,134.9 L 124.0,134.4 L 124.1,133.9 L 124.3,133.5 L 124.3,133.3 L 124.1,133.1 L 123.8,132.7 L 123.6,132.4 L 123.5,132.1 L 122.5,131.0 L 122.4,130.7 L 122.0,130.5 L 121.9,130.1 L 121.4,129.7 L 121.1,129.5 L 120.9,129.4 L 120.8,129.2 L 120.2,128.4 L 120.1,128.3 L 118.9,127.3 L 118.8,127.1 L 118.5,127.0 L 117.6,125.7 L 117.5,125.4 L 117.0,125.1 L 116.6,125.1 L 116.5,124.9 L 116.7,124.7 L 116.6,124.1 L 116.3,123.8 L 115.8,123.8 L 115.7,123.9 L 115.7,123.6 L 116.0,123.2 L 115.9,123.0 L 115.5,122.8 L 115.6,122.4 L 115.2,121.6 L 114.7,121.1 L 114.5,120.5 L 113.9,120.2 L 113.8,119.9 L 113.4,119.6 L 113.2,119.4 L 112.4,119.2 L 112.3,118.6 L 111.9,118.1 L 111.4,118.1 L 111.0,117.8 L 110.8,117.4 L 110.4,116.9 L 110.2,116.4 L 109.4,116.0 L 108.9,115.3 L 108.4,115.0 L 108.3,114.8 L 108.0,114.6 L 107.8,114.3 L 107.6,114.2 L 107.4,113.9 L 106.9,113.6 L 106.7,113.3 L 106.3,113.2 L 106.0,112.8 L 105.9,112.8 L 105.5,112.8 L 105.5,112.6 L 105.6,112.4 L 105.2,112.2 L 105.3,111.9 L 104.7,111.6 L 104.6,111.5 L 104.5,111.2 L 104.2,111.1 L 104.1,110.6 L 103.9,110.2 L 103.8,109.9 L 103.6,109.9 L 103.5,109.9 L 103.3,109.8 L 103.2,109.6 L 102.3,109.5 L 102.0,109.2 L 101.7,109.4 L 101.4,109.2 L 101.6,108.8 L 101.5,108.4 L 101.4,108.2 L 101.4,107.9 L 214.5,40.1 L 214.6,40.0 L 214.8,40.3 L 215.1,41.3 L 215.3,41.6 L 215.4,42.2 L 215.6,42.3 L 215.8,43.4 L 216.0,43.6 L 216.0,44.3 L 216.2,44.4 L 216.3,44.8 L 216.6,45.0 L 217.0,46.1 L 217.2,46.2 L 217.5,46.9 L 217.5,47.2 L 217.6,47.6 L 217.9,47.9 L 217.9,48.0 L 218.1,48.1 L 218.4,48.1 L 218.5,48.3 L 218.3,48.6 L 218.5,49.1 L 219.2,49.0 L 220.4,51.7 L 220.4,51.9 L 220.5,52.2 L 220.4,52.4 L 221.0,52.4 L 221.2,52.6 L 221.3,52.9 L 221.0,53.4 L 221.6,53.7 L 221.7,54.1 L 222.3,55.0 L 223.0,55.5 L 223.3,55.9 L 223.5,57.1 L 223.9,57.2 L 223.9,57.3 L 223.8,57.5 L 223.8,57.7 L 224.0,57.9 L 224.0,58.2 L 224.3,58.4 L 224.4,58.7 L 224.7,59.0 L 225.0,59.0 L 225.1,58.8 L 225.3,59.0 L 225.4,59.4 L 225.5,59.8 L 225.3,60.0 L 225.4,60.4 L 225.0,60.6 L 224.6,61.1 L 224.4,61.6 L 224.5,62.0 L 224.2,62.5 L 224.2,62.9 L 223.9,63.7 L 223.9,64.3 L 224.1,64.8 L 224.5,65.1 L 225.1,65.0 L 225.5,65.1 L 225.6,65.4 L 226.4,65.5 L 226.5,65.7 L 226.9,65.7 L 227.3,65.7 L 227.7,66.0 L 228.2,65.8 L 228.7,65.9 L 229.2,66.6 L 229.8,66.8 L 230.1,66.7 L 230.3,66.6 L 230.5,66.6 L 231.4,67.1 L 232.9,67.4 L 233.9,67.5 L 235.6,67.7 L 235.9,67.8 L 236.3,67.9 L 238.1,68.6 L 240.4,69.7 L 241.0,70.0 L 242.0,70.3 L 243.3,70.8 L 243.6,71.1 L 244.0,71.4 L 247.2,73.0 L 247.5,73.2 L 247.9,73.6 L 248.3,74.5 L 248.4,75.6 L 248.3,76.1 L 248.3,76.7 L 248.5,76.8 L 248.8,78.0 L 249.1,78.4 L 249.2,78.7 L 249.6,79.3 L 250.4,80.2 L 250.9,80.8 L 251.2,80.9 L 252.2,81.7 L 252.8,82.2 L 253.5,82.8 L 254.5,84.3 L 256.2,85.9 L 256.8,86.3 L 257.5,86.7 L 259.4,89.0 L 260.6,90.3 L 261.7,91.7 L 261.8,92.4 L 262.2,93.1 L 263.1,94.3 L 263.4,94.8 L 264.2,96.0 L 264.3,96.4 L 264.5,96.5 L 265.0,96.6 L 265.9,98.2 L 266.1,99.2 L 266.0,99.7 L 266.1,100.2 L 265.9,100.4 L 265.9,101.3 L 266.0,101.8 L 267.9,104.5 L 268.2,105.2 L 268.5,105.4 L 268.6,105.8 L 269.5,106.8 L 269.7,107.2 L 270.0,107.7 L 270.7,108.1 L 272.0,109.8 L 272.2,110.2 L 272.4,111.3 L 272.2,111.6 L 272.2,111.8 L 272.3,112.5 L 273.3,113.4 L 273.5,113.9 L 274.5,114.5 L 275.0,115.2 L 275.6,115.7 L 276.2,116.6 L 276.7,116.9 L 277.3,117.7 L 278.8,119.9 L 279.7,120.8 L 280.6,121.6 L 281.3,122.2 L 282.0,122.5 L 282.6,123.0 L 283.1,123.6 L 284.1,125.2 L 285.0,126.7 L 286.1,129.0 L 286.4,129.4 L 286.5,129.5 L 287.7,129.9 L 288.1,130.3 L 288.6,131.2 L 289.3,132.5 L 289.9,134.0 L 290.8,134.9 L 291.4,136.4 L 291.9,138.4 L 292.1,138.9 L 292.5,139.7 L 293.0,141.1 L 293.3,141.6 L 293.8,142.5 L 294.0,143.1 L 294.2,143.4 L 294.4,143.6 L 295.1,144.8 L 295.9,147.9 L 295.8,148.3 L 296.0,149.1 L 296.1,149.4 L 296.0,150.0 L 295.7,151.4 L 295.7,151.8 L 296.4,154.8 L 296.4,155.5 L 296.6,156.2 L 296.8,156.7 L 297.3,158.0 L 297.4,158.6 L 297.2,158.8 L 297.3,159.2 L 297.7,159.5 L 297.9,160.4 L 298.5,161.2 L 298.6,161.5 L 298.6,162.3 L 298.4,163.5 L 298.4,164.7 L 298.3,165.8 L 298.0,166.8 L 297.3,168.7 L 296.9,169.4 L 296.2,170.2 L 295.3,170.8 L 294.9,170.9 L 294.7,171.0 L 293.7,171.4 L 291.7,173.6 L 291.3,174.1 L 291.2,174.7 L 291.0,174.8 L 290.5,175.5 L 290.5,176.5 L 290.6,177.3 L 290.7,178.1 L 290.6,179.6 L 290.3,180.4 L 289.5,181.6 L 288.2,182.8 L 287.7,183.6 L 287.3,184.0 L 286.8,184.5 L 286.3,185.3 L 285.9,185.4 L 285.4,185.8 L 285.1,185.9 L 284.7,185.6 L 284.6,185.6 L 284.4,185.7 L 284.4,186.2 L 284.0,186.3 L 283.9,186.3 L 283.4,185.8 L 283.0,186.1 L 283.0,186.3 L 283.3,187.0 L 283.2,187.2 L 282.2,187.6 L 281.9,187.5 L 281.0,186.3 L 280.4,186.0 L 280.2,186.0 L 280.0,186.2 L 279.7,186.3 L 279.3,186.0 L 279.1,186.0 L 278.9,186.2 L 278.8,186.8 L 278.6,187.6 L 278.7,188.6 L 278.7,189.0 L 278.7,189.5 L 278.8,190.2 L 279.0,190.8 L 279.3,191.9 L 279.6,192.3 L 279.7,193.0 L 279.6,193.5 L 279.5,194.0 L 280.0,194.7 L 280.2,195.3 L 280.4,195.7 L 280.9,198.2 L 281.9,200.1 L 282.1,201.0 L 282.2,201.2 L 282.5,202.0 L 283.2,203.2 L 283.5,204.2 L 283.8,204.8 L 285.7,207.1 L 286.3,208.1 L 286.5,208.6 L 286.2,209.6 L 286.1,209.7 L 286.1,210.6 L 285.8,211.0 L 285.3,211.2 L 285.1,211.9 L 285.2,212.6 L 285.5,213.4 L 285.9,214.1 L 286.1,214.6 L 286.1,215.0 L 286.2,215.7 L 286.8,216.9 L 287.0,217.3 L 287.2,218.4 L 287.0,219.0 L 286.1,220.0 L 285.2,220.8 L 284.4,221.0 L 282.9,220.6 L 281.2,219.8 L 279.9,219.1 L 278.7,218.5 L 276.5,217.2 L 275.5,216.4 L 274.1,215.7 L 269.7,214.2 L 268.5,213.6 L 268.2,213.3 L 267.6,213.0 L 266.9,212.3 L 265.7,211.8 L 265.5,211.9 L 265.2,212.0 L 264.3,212.8 L 264.0,213.0 L 263.6,212.8 L 263.1,213.5 L 262.8,213.6 L 262.2,214.3 L 261.9,214.4 L 261.4,214.0 L 261.1,214.1 L 260.4,214.4 L 260.1,214.8 L 259.9,214.8 L 259.7,214.8 L 259.4,215.4 L 259.7,216.2 L 259.4,216.4 L 259.4,216.7 L 259.9,217.3 L 260.4,218.2 L 260.3,218.5 L 260.6,220.0 L 261.0,220.8 L 262.7,223.5 L 263.3,224.3 L 264.2,224.9 L 265.5,225.4 L 266.8,225.8 L 267.5,225.9 L 267.9,225.8 L 269.6,225.4 L 270.6,225.3 L 271.8,225.5 L 272.9,225.9 L 273.8,226.5 L 274.8,226.9 L 275.7,227.2 L 276.7,227.0 L 277.8,227.1 L 280.4,227.8 L 284.2,229.2 L 286.3,230.1 L 287.7,231.1 L 288.3,231.9 L 288.5,233.1 L 288.4,234.0 L 288.2,234.3 L 287.5,234.7 L 287.2,235.0 L 286.8,235.6 L 286.7,236.0 L 287.1,236.6 L 287.8,237.2 L 288.4,237.6 L 289.4,237.9 L 290.8,238.1 L 291.1,238.3 L 291.6,239.5 L 291.7,240.5 L 291.6,241.2 L 291.7,243.7 L 290.6,245.4 L 290.6,246.2 L 290.7,246.3 L 290.4,246.6 L 289.8,246.8 L 288.3,249.4 L 288.0,250.5 L 288.1,251.5 L 288.1,251.8 L 287.9,252.0 L 287.5,252.5 L 287.5,253.0 L 287.7,253.8 L 288.2,254.4 L 288.2,254.7 L 287.5,255.4 L 286.9,255.6 L 286.6,255.7 L 286.3,256.2 L 286.1,256.7 L 286.1,257.6 L 285.4,258.5 L 284.9,259.4 L 284.7,260.9 L 284.7,261.3 L 284.6,262.1 L 284.4,262.8 L 284.0,263.2 L 283.7,263.5 L 283.7,263.8 L 284.0,264.1 L 284.2,264.4 L 284.1,264.8 L 283.4,265.0 L 282.9,266.4 L 282.9,266.8 L 283.2,267.3 L 283.1,267.7 L 283.3,268.2 L 284.0,269.0 L 284.4,269.5 L 284.5,270.0 L 284.4,270.9 L 284.3,271.1 L 283.5,272.0 L 283.3,272.6 L 283.3,273.0 L 283.3,273.6 L 283.2,273.8 L 282.7,274.0 L 282.9,274.3 L 282.9,274.7 L 282.5,275.0 L 282.1,275.1 L 281.7,275.3 L 281.9,275.8 L 281.5,276.2 L 280.9,276.7 L 281.1,277.6 L 280.9,277.7 L 281.2,278.6 L 281.6,279.0 L 281.5,279.3 L 281.9,280.3 L 282.3,280.7 L 282.4,281.7 L 282.1,282.1 L 281.5,282.4 L 280.1,283.1 L 279.3,283.2 L 278.8,283.1 L 278.4,282.7 L 278.4,282.4 L 277.8,282.0 L 276.9,281.1 L 276.1,280.8 L 275.9,280.3 L 275.3,280.0 L 274.8,280.1 L 274.5,280.0 L 273.6,279.8 L 273.2,280.0 L 274.1,281.0 L 274.2,281.5 L 274.4,281.8 L 274.3,282.2 L 274.4,282.5 L 274.5,282.7 L 274.4,283.0 L 274.4,283.3 L 274.1,283.7 L 274.0,283.8 L 274.6,284.0 L 275.0,284.2 L 275.5,285.0 L 276.2,285.8 L 276.4,286.3 L 276.3,286.6 L 275.8,287.4 L 275.3,287.7 L 275.0,288.0 L 274.7,288.5 L 274.7,288.9 L 275.1,289.4 L 275.5,290.0 L 275.8,291.1 L 276.7,292.0 L 277.6,292.8 L 277.8,293.0 L 277.9,293.2 L 277.8,293.5 L 277.8,293.9 L 278.0,294.2 L 278.6,294.5 L 279.1,294.9 L 279.4,295.4 L 279.4,296.6 L 279.3,297.3 L 279.5,297.7 L 280.3,298.1 L 280.8,298.6 L 281.2,299.1 L 281.3,299.8 L 281.3,300.4 L 281.3,301.4 L 281.2,301.9 L 281.2,302.6 L 281.6,303.1 L 282.2,303.3 L 282.4,303.5 L 282.6,304.6 L 282.5,305.3 L 282.2,306.4 L 281.9,307.1 L 281.4,308.1 L 281.4,308.6 L 281.9,309.1 L 282.0,309.6 L 281.9,310.2 L 282.0,311.3 L 282.2,311.9 L 282.4,312.4 L 282.6,313.2 L 282.6,313.9 L 282.3,314.5 L 282.3,314.9 L 282.6,315.3 L 283.3,315.6 L 283.8,315.8 L 284.3,316.2 L 284.6,316.4 L 285.2,317.2 L 285.8,317.5 L 286.4,317.9 L 286.8,320.2 L 287.0,320.5 L 287.4,321.3 L 287.4,322.1 L 287.1,322.6 L 286.1,323.8 L 285.7,324.2 L 285.5,324.4 L 285.4,324.9 L 285.3,325.5 L 285.2,325.7 L 285.1,325.6 L 285.3,325.0 L 285.1,324.1 L 284.8,323.8 L 283.8,323.6 L 283.3,323.4 L 283.2,323.0 L 283.3,322.3 L 283.0,321.4 L 282.6,320.6 L 282.0,320.2 L 281.1,320.1 L 280.5,320.1 L 278.9,319.3 L 277.6,318.2 L 277.1,317.5 L 276.7,316.4 L 275.7,314.7 L 275.2,314.2 L 274.3,313.6 L 274.1,313.6 L 273.9,313.5 L 273.4,313.7 L 273.0,313.9 L 272.7,313.8 L 272.5,313.8 L 272.2,313.8 L 271.5,313.7 L 270.5,313.3 L 270.0,312.8 L 269.8,312.3 L 269.5,310.9 L 269.2,310.1 L 268.7,309.3 L 268.5,308.0 L 268.5,307.0 L 268.4,306.1 L 268.1,305.5 L 266.1,302.9 L 265.9,302.6 L 265.1,301.4 L 264.2,300.4 L 263.6,299.8 L 262.7,298.8 L 262.1,298.4 L 261.5,298.6 L 261.1,298.3 L 260.2,296.9 L 259.9,296.9 L 259.7,296.6 L 258.8,296.1 L 257.1,294.6 L 256.9,294.5 L 256.5,294.5 L 255.7,294.1 L 254.9,293.9 L 253.6,293.3 L 252.3,292.9 L 251.9,292.9 L 251.6,293.5 L 249.9,293.9 L 249.2,294.3 L 248.4,294.9 L 248.1,295.3 L 247.9,296.8 L 248.2,298.5 L 248.5,299.9 L 248.6,300.9 L 248.3,301.6 L 248.3,303.6 L 248.5,305.4 L 248.2,307.4 L 247.9,309.4 L 247.5,310.6 L 246.9,312.6 L 246.5,314.3 L 246.6,315.0 L 246.6,315.4 L 246.3,316.1 L 246.1,316.8 L 245.9,318.6 L 245.7,319.3 L 245.7,319.3 L 245.3,320.4 L 244.8,321.2 L 244.0,322.0 L 243.8,322.3 L 243.5,323.4 L 243.5,323.8 L 243.4,323.9 L 243.0,325.1 L 242.3,326.1 L 241.4,327.5 L 241.6,328.5 L 241.6,329.4 L 241.5,330.5 L 241.2,331.0 L 240.6,331.3 L 240.3,331.4 L 238.7,331.7 L 237.9,331.4 L 237.5,331.1 L 237.1,329.3 L 236.7,328.5 L 235.1,326.3 L 234.1,325.1 L 233.9,324.7 L 233.1,324.3 L 232.5,324.4 L 231.1,325.5 L 229.7,325.9 L 229.1,326.2 L 228.0,327.4 L 226.9,329.0 L 226.2,330.4 L 225.6,332.1 L 225.4,333.2 L 224.7,334.9 L 223.9,336.0 L 223.6,336.6 L 223.8,338.0 L 223.8,338.5 L 223.8,338.9 L 224.2,339.7 L 224.6,341.3 L 225.3,342.8 L 225.6,343.9 L 225.9,345.0 L 226.6,346.3 L 227.7,349.1 L 227.8,349.7 L 228.6,349.8 L 228.9,349.9 L 229.0,350.2 L 228.9,350.3 L 228.7,350.2 L 228.6,350.3 L 228.9,350.9 L 228.4,351.4 L 228.1,351.3 L 227.7,351.4 L 227.5,351.6 L 227.4,352.0 L 227.1,352.2 L 226.8,352.8 L 226.7,353.9 L 226.4,355.6 L 226.4,358.6 L 225.8,359.2 L 225.1,359.5 L 225.0,359.5 L 222.8,360.0 L 222.6,360.0 L 222.0,359.7 L 221.9,359.6 L 219.8,357.5 L 219.3,357.5 L 218.3,357.0 L 218.1,357.0 L 217.8,356.6 L 218.1,355.9 L 218.2,354.9 L 218.1,353.5 L 218.1,351.4 L 218.2,350.9 L 218.0,350.2 L 218.2,347.5 L 218.1,346.2 L 218.0,345.2 L 217.5,344.5 L 217.2,343.8 L 217.1,342.8 L 217.2,342.0 L 217.1,340.7 L 216.9,339.4 L 216.5,337.0 L 215.8,333.2 L 215.9,330.7 L 216.0,329.7 L 216.0,329.7 L 215.9,328.3 L 216.1,326.5 L 216.6,325.2 L 216.7,325.1 L 216.9,324.6 L 217.7,323.1 L 218.3,321.5 L 218.6,321.2 L 219.6,320.7 L 220.4,320.2 L 220.7,319.8 L 220.6,318.4 L 221.2,318.2 L 221.4,318.6 L 221.8,318.8 L 222.1,318.6 L 222.1,318.0 L 221.9,316.7 L 222.0,316.3 L 222.3,315.8 L 222.9,315.0 L 223.7,314.4 L 225.7,312.0 L 225.7,311.5 L 225.1,310.0 L 225.0,309.2 L 224.9,308.4 L 224.6,307.9 L 223.1,306.8 L 222.6,306.2 L 222.4,305.6 L 222.3,304.5 L 222.1,303.4 L 221.8,302.6 L 221.3,301.8 L 220.4,300.1 L 220.0,298.2 L 219.4,296.9 L 218.5,295.8 L 218.4,295.3 L 217.2,293.5 L 217.0,292.2 L 216.6,291.5 L 217.1,290.6 L 217.2,290.0 L 217.2,289.1 L 216.9,288.3 L 216.1,286.7 L 214.9,285.0 L 213.9,282.9 L 212.9,281.5 L 211.9,280.0 L 211.7,279.2 L 211.3,276.8 L 211.4,276.4 L 211.6,273.5 L 211.8,272.7 L 211.7,272.1 L 212.0,271.7 L 212.0,271.0 L 211.9,270.7 L 211.8,270.3 L 211.5,269.9 L 211.3,269.8 L 211.0,269.8 L 210.9,269.6 L 210.7,269.0 L 210.9,268.5 L 210.7,266.2 L 211.1,265.3 L 211.1,264.5 L 211.1,264.0 L 211.3,262.8 L 211.1,262.0 L 210.4,261.0 L 210.7,260.5 L 210.6,260.3 L 210.6,260.0 L 210.3,259.7 L 210.2,259.1 L 210.3,258.7 L 210.2,257.8 L 209.7,256.3 L 209.2,255.5 L 208.8,255.1 L 208.9,254.8 L 208.5,254.3 L 208.8,253.4 L 208.7,253.2 L 208.3,253.0 L 208.2,252.4 L 208.2,252.0 L 208.1,251.6 L 207.6,251.1 L 207.5,250.8 L 207.2,250.7 L 207.0,250.3 L 206.7,249.8 L 205.9,249.1 L 205.4,248.9 L 204.9,248.2 L 204.7,247.8 L 203.6,247.1 L 203.3,246.6 L 203.2,246.1 L 203.5,244.2 L 203.6,243.7 L 203.3,241.9 L 203.3,240.8 L 203.1,240.0 L 202.6,239.0 L 202.4,238.6 L 202.6,237.8 L 202.5,237.2 L 202.6,236.6 L 202.4,235.9 L 202.3,235.5 L 202.1,234.5 L 201.7,233.8 L 201.5,233.1 L 200.0,231.1 L 199.6,230.5 L 199.0,229.2 L 198.9,228.7 L 199.1,228.4 L 199.0,227.7 L 199.2,226.7 L 199.2,226.3 L 199.1,225.6 L 199.3,224.6 L 199.4,223.5 L 199.5,222.3 L 199.2,220.9 L 198.2,218.7 L 198.2,218.1 L 198.2,218.1 L 198.0,217.7 L 197.6,217.1 L 197.5,217.1 L 197.2,216.6 L 197.1,215.9 L 195.4,213.8 L 195.1,213.2 L 194.7,212.6 L 194.3,211.8 L 193.6,211.0 L 192.8,210.4 L 192.4,209.8 L 192.0,209.4 L 191.9,208.5 L 191.6,208.1 L 191.0,207.4 L 190.9,207.0 L 190.7,206.1 L 190.4,205.8 L 190.0,205.4 L 189.0,204.8 L 188.2,204.7 L 187.8,204.3 L 187.6,203.8 L 187.4,203.1" fill="none" stroke="black" stroke-width="2"/>
</svg>