<?xml version="1.0" encoding="UTF-8"?>
<svg width="400" height="400" viewBox="0 0 400 400" xmlns="http://www.w3.org/2000/svg">
  <rect width="400" height="400" fill="white"/>
  <path d="M 70.8,229.7 L 71.0,229.2 L 135.6,40.0 L 137.5,40.8 L 140.4,41.2 L 149.4,41.6 L 152.0,42.0 L 157.1,42.3 L 162.0,43.8 L 166.4,45.5 L 172.6,47.8 L 175.5,48.5 L 180.7,49.3 L 183.9,50.1 L 187.3,51.2 L 192.5,54.4 L 196.5,56.7 L 199.7,59.2 L 202.2,60.3 L 203.7,61.8 L 206.9,63.0 L 210.1,63.8 L 213.9,66.0 L 220.5,71.3 L 220.9,71.3 L 225.2,76.5 L 225.9,77.7 L 230.3,83.9 L 232.0,86.7 L 232.3,87.9 L 233.7,93.9 L 238.8,103.0 L 242.3,107.1 L 249.3,112.9 L 251.5,115.4 L 252.8,117.8 L 254.4,122.5 L 255.6,124.9 L 257.1,125.9 L 260.7,130.1 L 264.7,132.2 L 268.2,133.6 L 271.9,133.9 L 274.9,134.6 L 283.4,137.1 L 285.8,138.0 L 288.3,138.7 L 290.4,138.9 L 292.8,140.3 L 293.8,141.2 L 295.5,143.8 L 296.6,147.3 L 298.7,149.1 L 301.2,152.3 L 308.3,165.8 L 311.4,169.4 L 312.4,173.1 L 313.6,174.2 L 318.8,183.1 L 321.2,187.9 L 322.6,189.8 L 323.8,191.6 L 326.3,195.5 L 327.5,199.1 L 329.2,206.1 L 328.7,206.2 L 306.1,215.1 L 305.2,212.6 L 304.1,211.2 L 298.4,212.2 L 290.0,213.2 L 279.6,215.4 L 273.3,217.2 L 268.4,219.6 L 267.8,220.4 L 265.4,223.0 L 263.0,226.4 L 260.7,230.6 L 259.4,234.3 L 258.8,236.7 L 258.7,241.5 L 259.4,245.2 L 261.3,251.2 L 262.6,254.5 L 263.8,258.3 L 266.0,263.3 L 270.2,276.8 L 272.4,282.8 L 275.9,293.4 L 277.2,296.1 L 279.7,303.8 L 280.1,305.5 L 281.6,310.4 L 282.5,313.0 L 283.8,316.9 L 285.0,320.8 L 285.9,325.4 L 287.5,331.2 L 288.7,336.5 L 289.4,342.9 L 290.3,355.9 L 288.8,356.0 L 282.4,356.1 L 278.3,355.9 L 273.7,356.3 L 273.4,356.5 L 272.4,356.8 L 269.6,358.0 L 266.9,359.4 L 266.4,360.0 L 118.2,338.2 L 117.9,336.3 L 118.1,333.1 L 117.8,329.5 L 116.3,322.8 L 115.7,316.7 L 114.5,312.1 L 111.3,304.6 L 110.7,301.5 L 110.6,298.9 L 109.2,295.0 L 104.7,288.7 L 102.7,287.5 L 100.0,285.6 L 98.5,283.9 L 97.7,279.6 L 98.1,277.4 L 98.6,276.0 L 97.8,273.4 L 96.6,270.4 L 94.9,264.1 L 95.1,261.2 L 96.3,259.5 L 100.7,251.7 L 103.6,245.0 L 104.4,241.5 L 104.6,239.4 L 104.4,237.4 L 103.2,235.9 L 103.0,235.7 L 101.8,235.3 L 101.1,235.5 L 98.3,236.6 L 97.7,237.0 L 96.9,237.4 L 95.5,237.4 L 95.0,237.4 L 94.7,237.6 L 93.2,238.3 L 91.7,239.7 L 90.0,240.2 L 85.5,239.8 L 85.1,239.5 L 84.2,238.7 L 83.7,234.8 L 83.6,232.5 L 82.9,231.6 L 81.5,231.1 L 79.6,230.9 L 78.9,230.0 L 78.7,229.3 L 77.5,228.5 L 75.1,228.7 L 70.8,229.7" fill="none" stroke="black" stroke-width="2"/>
</svg>