<?xml version="1.0" encoding="UTF-8"?>
<svg width="400" height="400" viewBox="0 0 400 400" xmlns="http://www.w3.org/2000/svg">
  <rect width="400" height="400" fill="white"/>
  <path d="M 40.1,212.9 L 48.4,61.1 L 49.2,61.4 L 50.1,61.2 L 50.8,60.7 L 52.2,60.1 L 53.0,60.0 L 53.3,60.1 L 53.4,60.4 L 54.0,60.2 L 54.6,60.1 L 55.8,60.2 L 55.9,60.6 L 56.4,60.5 L 57.7,59.3 L 58.1,59.3 L 58.8,59.5 L 59.0,59.7 L 58.5,60.5 L 58.7,60.6 L 58.8,60.8 L 58.7,61.3 L 58.8,62.0 L 59.7,62.4 L 60.0,62.5 L 60.0,62.5 L 60.9,63.1 L 60.9,64.1 L 61.1,64.4 L 61.8,65.0 L 62.1,65.0 L 63.0,64.6 L 63.9,64.7 L 65.8,64.5 L 67.5,64.2 L 68.7,63.9 L 72.0,63.4 L 74.0,62.9 L 75.6,62.5 L 76.2,62.1 L 78.1,61.5 L 79.6,60.5 L 80.8,59.9 L 81.6,59.9 L 82.2,60.2 L 82.6,60.2 L 83.1,59.9 L 83.6,59.8 L 83.9,59.9 L 84.3,59.9 L 84.9,59.7 L 87.4,59.3 L 88.2,59.5 L 90.6,59.4 L 90.8,59.2 L 91.9,58.9 L 92.4,59.3 L 93.0,59.2 L 93.2,59.0 L 93.5,59.1 L 94.7,59.0 L 96.2,59.6 L 96.3,59.9 L 96.2,60.3 L 96.2,60.6 L 96.3,60.8 L 97.1,60.6 L 97.2,60.8 L 96.9,61.3 L 97.5,61.8 L 97.8,62.0 L 98.9,62.1 L 100.3,61.9 L 100.4,61.9 L 101.2,61.9 L 101.9,61.9 L 103.3,61.9 L 104.5,62.4 L 105.4,62.4 L 106.3,62.6 L 107.1,62.5 L 107.6,62.6 L 109.2,62.6 L 110.6,62.6 L 114.1,63.5 L 115.2,63.9 L 115.9,64.1 L 117.2,63.8 L 118.8,64.0 L 119.9,63.8 L 120.4,63.6 L 121.3,63.4 L 121.7,63.5 L 124.0,63.1 L 126.2,62.9 L 126.3,62.8 L 127.3,62.8 L 128.2,62.8 L 129.5,63.3 L 131.0,62.8 L 131.7,62.4 L 132.4,62.0 L 134.2,61.5 L 134.8,61.4 L 135.2,61.5 L 135.7,61.4 L 136.6,61.0 L 137.6,60.9 L 138.1,60.9 L 138.1,60.7 L 138.4,60.6 L 139.1,60.6 L 139.9,60.4 L 140.5,60.2 L 141.4,59.9 L 142.6,59.4 L 143.4,59.1 L 144.4,58.5 L 145.6,58.1 L 146.1,57.6 L 146.7,57.3 L 148.9,57.0 L 149.5,57.1 L 152.1,55.9 L 152.3,55.8 L 152.8,55.4 L 153.3,55.2 L 154.7,55.3 L 156.2,55.2 L 156.7,54.9 L 157.7,54.8 L 158.4,55.3 L 159.4,56.5 L 159.9,56.7 L 160.5,56.5 L 161.3,56.5 L 162.0,56.8 L 163.1,56.6 L 163.7,56.1 L 164.5,56.0 L 164.8,56.0 L 165.1,56.0 L 165.9,55.9 L 166.0,55.5 L 166.7,55.3 L 167.2,55.4 L 167.9,55.0 L 168.2,54.4 L 168.4,53.3 L 168.8,52.8 L 169.2,52.7 L 169.8,52.8 L 170.4,52.6 L 170.4,52.2 L 170.0,51.6 L 170.0,51.1 L 170.4,50.5 L 171.1,49.7 L 172.2,49.2 L 173.0,49.1 L 173.1,49.1 L 173.5,49.6 L 174.0,49.9 L 175.1,49.7 L 175.6,49.2 L 175.9,48.4 L 176.8,47.3 L 177.0,46.7 L 177.1,46.2 L 177.8,45.4 L 178.4,44.7 L 178.4,43.9 L 178.4,43.9 L 178.2,43.3 L 178.5,42.9 L 179.6,42.7 L 180.8,42.8 L 181.8,43.4 L 181.8,43.4 L 183.3,44.3 L 183.7,44.2 L 184.4,43.7 L 185.8,43.5 L 186.1,43.5 L 186.2,43.6 L 186.5,43.6 L 187.5,44.1 L 188.3,45.0 L 188.9,45.5 L 189.6,45.7 L 190.0,45.6 L 190.3,45.0 L 190.4,44.9 L 190.5,45.1 L 190.9,45.4 L 191.4,46.1 L 191.6,46.8 L 191.2,47.2 L 191.1,47.8 L 191.0,48.0 L 189.9,48.9 L 189.3,49.6 L 189.0,50.3 L 188.6,52.0 L 188.1,52.7 L 187.7,53.8 L 187.9,54.4 L 188.1,55.2 L 187.8,55.7 L 187.6,56.4 L 187.2,56.9 L 186.6,57.2 L 186.2,57.4 L 186.1,57.9 L 186.2,58.1 L 186.7,58.0 L 187.0,57.8 L 187.7,58.2 L 188.3,58.0 L 189.0,57.2 L 189.3,56.4 L 189.7,56.4 L 189.9,56.5 L 190.4,57.0 L 191.3,57.4 L 191.7,57.3 L 192.5,56.1 L 193.0,55.3 L 193.6,55.0 L 193.4,53.9 L 193.2,53.0 L 193.3,52.7 L 194.3,52.5 L 194.8,52.8 L 195.8,53.7 L 196.1,54.1 L 196.1,54.5 L 195.8,55.1 L 194.8,57.0 L 194.5,57.8 L 194.6,59.2 L 194.5,59.6 L 194.0,60.1 L 193.4,60.3 L 193.1,60.5 L 192.2,60.8 L 191.1,60.8 L 190.0,60.5 L 189.4,60.1 L 189.2,60.1 L 189.0,60.2 L 188.5,60.6 L 187.6,60.9 L 187.2,61.4 L 187.2,62.3 L 185.7,63.4 L 184.5,64.9 L 184.4,65.3 L 184.7,65.6 L 184.0,66.3 L 183.9,66.8 L 184.1,67.2 L 184.3,67.8 L 184.7,68.0 L 186.0,67.8 L 187.0,67.5 L 187.4,67.5 L 187.8,68.1 L 187.9,68.4 L 187.4,69.2 L 187.0,69.8 L 187.0,70.2 L 187.2,70.5 L 187.7,70.7 L 188.3,70.6 L 188.8,70.6 L 189.1,71.2 L 189.2,71.9 L 188.3,73.2 L 187.0,74.2 L 186.2,75.4 L 186.2,75.7 L 186.0,76.2 L 186.3,77.8 L 186.6,77.8 L 187.2,77.6 L 187.4,77.8 L 187.2,78.1 L 187.2,78.5 L 187.9,78.4 L 188.3,78.7 L 188.6,80.3 L 188.6,80.8 L 188.9,81.1 L 189.3,81.0 L 189.7,81.0 L 190.5,81.6 L 191.1,81.6 L 192.1,81.9 L 192.5,82.2 L 192.7,82.7 L 192.9,83.2 L 193.1,84.3 L 193.1,84.5 L 193.2,85.7 L 193.2,87.6 L 192.7,88.8 L 192.3,89.2 L 191.7,89.3 L 190.8,89.2 L 188.8,89.3 L 187.6,89.4 L 186.8,89.7 L 186.2,90.5 L 184.9,91.9 L 183.7,93.2 L 182.7,93.5 L 182.5,93.9 L 181.7,94.6 L 180.6,94.8 L 180.0,95.5 L 179.8,95.6 L 179.3,94.8 L 179.1,94.6 L 179.0,94.7 L 178.3,95.1 L 177.0,95.7 L 176.7,95.9 L 176.8,96.4 L 177.3,96.7 L 177.8,96.8 L 178.8,96.6 L 179.4,96.3 L 179.6,96.1 L 179.7,96.2 L 179.7,97.0 L 180.8,98.2 L 181.3,98.6 L 182.1,98.8 L 182.2,99.1 L 182.6,99.4 L 183.0,99.4 L 183.4,99.6 L 183.7,99.6 L 184.2,99.7 L 184.8,99.7 L 185.0,99.9 L 185.2,100.2 L 186.3,100.9 L 186.6,101.1 L 186.6,101.3 L 186.4,101.6 L 186.4,102.2 L 186.7,102.2 L 187.1,102.5 L 187.2,102.6 L 187.3,103.5 L 187.5,104.0 L 188.1,104.4 L 188.9,104.8 L 190.1,105.6 L 190.5,106.0 L 190.4,106.7 L 190.8,107.2 L 191.5,108.0 L 191.8,109.3 L 192.1,109.8 L 193.0,110.5 L 193.2,111.2 L 193.5,111.9 L 193.7,112.7 L 194.4,112.9 L 194.7,113.3 L 195.7,113.1 L 196.6,113.0 L 197.7,113.1 L 199.1,113.7 L 200.3,113.9 L 201.2,114.3 L 202.2,115.0 L 202.8,115.1 L 204.0,115.7 L 204.6,115.7 L 205.5,116.1 L 206.4,116.0 L 206.8,116.2 L 207.6,116.5 L 208.3,116.5 L 209.3,116.8 L 211.3,116.9 L 213.8,116.7 L 215.3,116.4 L 215.7,116.3 L 216.2,116.1 L 219.2,115.6 L 219.8,115.7 L 221.3,115.6 L 222.9,115.6 L 224.2,115.8 L 225.1,116.2 L 225.6,116.2 L 226.0,115.9 L 227.3,116.1 L 228.2,116.3 L 228.8,117.0 L 229.2,117.7 L 229.5,118.9 L 229.5,120.3 L 229.3,120.8 L 228.5,121.0 L 227.8,121.5 L 227.9,121.9 L 228.5,122.3 L 227.9,123.1 L 227.4,124.0 L 227.4,124.5 L 227.5,124.7 L 228.8,125.2 L 229.0,125.4 L 228.0,125.7 L 227.1,126.0 L 226.8,126.4 L 226.8,126.8 L 227.0,127.4 L 227.5,128.0 L 227.6,128.4 L 227.1,128.5 L 226.7,128.8 L 223.5,129.4 L 223.0,129.4 L 222.3,129.5 L 221.7,129.2 L 221.0,128.8 L 219.6,128.8 L 218.4,128.7 L 217.6,128.9 L 215.8,129.3 L 215.1,129.6 L 214.2,130.8 L 213.9,130.9 L 213.6,130.7 L 213.4,130.7 L 213.4,130.1 L 213.1,129.8 L 212.4,129.9 L 211.1,130.4 L 210.9,130.5 L 211.0,131.2 L 211.4,131.6 L 212.3,131.9 L 212.4,132.5 L 212.4,132.8 L 211.8,132.9 L 211.2,132.9 L 210.2,133.0 L 209.7,133.6 L 209.4,134.3 L 209.0,135.7 L 209.0,136.5 L 209.2,136.8 L 209.6,136.8 L 209.9,137.0 L 209.6,138.0 L 209.6,138.6 L 209.8,138.9 L 210.5,139.0 L 210.6,139.7 L 210.9,140.2 L 211.4,140.7 L 212.2,141.0 L 212.8,141.3 L 212.9,141.9 L 214.7,143.3 L 216.4,144.3 L 217.9,145.1 L 219.6,145.6 L 220.2,145.8 L 220.4,145.7 L 220.8,145.9 L 220.9,146.1 L 221.2,146.1 L 222.5,146.4 L 224.2,146.1 L 225.2,145.6 L 226.0,145.6 L 226.5,145.5 L 226.7,145.7 L 256.4,181.8 L 256.3,181.8 L 256.1,182.3 L 256.3,182.7 L 257.0,183.3 L 258.3,183.9 L 258.3,184.1 L 258.2,184.2 L 257.1,184.2 L 257.0,184.4 L 257.2,184.8 L 258.2,185.3 L 259.1,185.8 L 259.8,186.7 L 260.6,187.1 L 261.3,187.1 L 262.2,186.9 L 263.6,186.0 L 264.4,185.6 L 266.4,185.3 L 267.7,185.5 L 268.5,185.6 L 270.0,186.4 L 270.8,186.8 L 271.9,187.3 L 275.9,190.1 L 278.1,191.9 L 278.3,192.5 L 278.9,196.3 L 279.4,197.2 L 280.8,199.0 L 280.8,199.0 L 281.0,199.5 L 281.2,201.0 L 281.3,201.1 L 281.4,201.6 L 281.7,202.4 L 282.1,202.6 L 282.7,202.7 L 283.0,203.3 L 283.5,203.7 L 283.6,203.8 L 283.8,204.5 L 284.1,204.7 L 284.2,205.3 L 284.1,206.0 L 284.4,206.4 L 284.5,206.9 L 284.9,207.0 L 285.1,207.2 L 285.2,208.0 L 286.0,208.5 L 286.0,209.1 L 286.2,209.3 L 286.6,209.2 L 286.8,208.7 L 287.3,208.9 L 287.6,209.3 L 288.1,210.1 L 287.8,210.4 L 287.9,210.5 L 288.5,210.6 L 288.6,210.9 L 289.0,211.1 L 288.9,211.5 L 289.1,212.1 L 289.4,212.2 L 289.6,212.7 L 290.0,213.3 L 290.2,213.5 L 290.2,214.0 L 290.0,214.3 L 289.5,214.1 L 288.8,214.2 L 288.6,214.4 L 288.8,214.8 L 289.2,215.1 L 289.5,215.2 L 289.8,215.3 L 290.2,215.8 L 291.1,216.5 L 291.6,217.1 L 292.1,217.2 L 292.4,217.4 L 292.6,217.4 L 293.1,217.8 L 293.3,218.1 L 292.9,218.4 L 292.9,218.6 L 293.1,219.1 L 293.8,219.6 L 295.3,220.3 L 296.0,220.7 L 296.3,221.1 L 296.7,221.4 L 296.8,221.8 L 297.3,222.3 L 297.5,222.8 L 298.0,223.5 L 299.3,223.9 L 299.9,224.0 L 300.3,224.2 L 300.9,224.2 L 302.0,224.9 L 302.2,225.4 L 302.5,225.8 L 302.8,225.6 L 303.0,225.8 L 302.9,226.2 L 303.3,226.8 L 303.9,227.3 L 304.7,227.6 L 305.2,228.0 L 305.8,228.1 L 307.1,228.0 L 307.9,227.8 L 308.5,227.4 L 309.6,227.2 L 309.8,227.4 L 310.2,227.5 L 310.3,227.7 L 310.7,228.0 L 310.9,228.2 L 311.1,229.1 L 311.3,229.8 L 311.8,230.9 L 312.2,231.4 L 312.5,231.3 L 312.7,231.4 L 312.6,231.7 L 312.6,232.0 L 313.6,233.3 L 314.0,233.6 L 314.0,233.8 L 314.1,234.1 L 314.4,234.3 L 314.9,234.7 L 315.6,235.7 L 315.5,236.1 L 315.9,236.2 L 315.7,236.6 L 316.0,236.8 L 316.4,237.4 L 317.0,237.8 L 317.9,238.1 L 318.4,238.0 L 318.8,238.3 L 319.1,239.3 L 319.7,239.7 L 320.3,240.7 L 320.1,241.3 L 319.7,241.5 L 319.1,241.9 L 319.1,242.1 L 319.2,242.2 L 319.3,242.4 L 319.0,242.9 L 319.4,243.1 L 319.4,243.4 L 319.2,243.9 L 318.2,244.6 L 317.7,245.5 L 317.7,245.5 L 317.9,245.9 L 318.6,246.4 L 318.7,246.8 L 318.9,247.0 L 318.8,247.5 L 318.9,247.6 L 319.1,247.9 L 319.4,247.9 L 319.7,247.9 L 320.0,248.4 L 320.2,249.3 L 320.0,249.7 L 320.4,250.0 L 320.9,250.9 L 321.1,251.1 L 321.3,251.4 L 321.4,251.6 L 321.6,251.9 L 321.9,252.1 L 322.0,252.3 L 322.4,252.6 L 322.5,252.9 L 322.9,253.6 L 323.7,254.2 L 324.3,254.1 L 325.3,254.7 L 325.6,254.6 L 325.9,254.9 L 327.1,255.3 L 327.4,255.1 L 327.6,255.1 L 328.0,255.3 L 329.2,255.5 L 329.7,255.8 L 329.8,256.0 L 329.7,256.1 L 329.7,256.5 L 329.9,256.5 L 330.1,256.2 L 330.9,256.1 L 331.4,256.4 L 331.6,256.7 L 331.9,256.8 L 332.9,257.5 L 334.1,258.5 L 334.3,258.8 L 334.6,259.3 L 335.9,260.6 L 336.2,260.7 L 336.7,260.9 L 336.9,261.1 L 337.0,261.4 L 337.5,261.8 L 337.9,262.3 L 338.8,263.3 L 340.1,264.1 L 341.1,264.9 L 341.8,265.1 L 342.5,266.0 L 343.1,266.6 L 343.1,267.0 L 342.7,267.0 L 342.7,267.3 L 343.3,267.7 L 343.5,267.6 L 343.7,267.3 L 344.0,267.3 L 344.1,267.5 L 344.1,267.8 L 344.6,268.1 L 345.4,268.1 L 345.7,268.4 L 345.5,268.7 L 346.1,269.1 L 346.4,269.1 L 346.6,269.4 L 346.7,269.5 L 346.6,269.8 L 345.9,270.0 L 345.5,270.4 L 345.5,270.8 L 344.8,271.3 L 344.7,271.5 L 345.1,271.8 L 345.0,272.2 L 345.3,272.3 L 345.3,272.5 L 344.7,273.0 L 344.2,273.2 L 344.0,273.5 L 343.9,274.0 L 344.2,274.8 L 344.4,274.9 L 344.5,275.3 L 344.2,275.8 L 344.2,276.2 L 343.9,276.4 L 344.0,277.0 L 344.2,277.1 L 343.9,277.4 L 344.0,277.7 L 344.5,278.3 L 345.0,278.3 L 345.2,278.5 L 345.0,278.7 L 344.9,278.9 L 345.4,279.2 L 345.5,279.4 L 345.3,279.6 L 345.0,279.4 L 344.7,279.4 L 344.6,279.6 L 345.0,280.3 L 344.8,280.8 L 344.8,281.0 L 345.1,281.5 L 345.6,281.4 L 345.7,281.2 L 346.0,281.2 L 346.4,281.7 L 346.4,282.2 L 346.2,282.5 L 345.7,282.8 L 345.0,283.3 L 344.3,283.5 L 343.9,283.9 L 343.9,284.3 L 343.7,284.6 L 343.8,285.3 L 344.0,285.8 L 344.5,286.2 L 344.6,286.6 L 345.0,287.3 L 345.5,287.9 L 346.1,288.9 L 346.4,289.3 L 346.5,289.6 L 346.7,290.0 L 346.8,290.8 L 347.2,291.2 L 347.5,291.3 L 347.7,291.5 L 348.2,291.7 L 348.5,291.9 L 349.8,292.5 L 350.4,292.5 L 350.4,293.0 L 351.0,293.2 L 351.9,293.2 L 352.9,293.5 L 354.0,293.8 L 355.2,294.2 L 355.9,294.6 L 357.3,295.9 L 357.9,296.8 L 358.5,297.4 L 359.5,299.1 L 359.8,299.6 L 360.0,301.0 L 359.9,301.5 L 359.6,302.5 L 359.7,303.3 L 359.6,304.1 L 359.0,305.5 L 358.3,306.5 L 357.8,307.4 L 357.6,308.2 L 357.7,309.0 L 358.0,310.0 L 358.3,310.6 L 358.8,311.5 L 359.0,311.9 L 358.9,312.9 L 358.5,313.9 L 356.6,316.1 L 355.6,316.9 L 355.0,317.5 L 354.9,317.6 L 354.0,318.0 L 353.0,318.2 L 351.2,317.7 L 350.7,317.3 L 350.2,317.4 L 348.7,318.1 L 347.8,319.0 L 347.2,319.4 L 346.6,319.4 L 345.3,319.6 L 344.5,320.0 L 343.9,320.7 L 343.5,321.6 L 343.3,322.7 L 343.3,322.9 L 342.6,323.9 L 341.9,324.8 L 341.3,325.7 L 340.8,327.0 L 340.4,328.3 L 340.6,329.4 L 341.0,331.3 L 340.8,332.1 L 340.0,333.3 L 339.3,334.0 L 336.5,336.1 L 336.0,336.5 L 336.0,337.4 L 336.2,338.0 L 335.8,338.7 L 335.5,338.5 L 334.7,338.6 L 334.4,338.9 L 333.8,340.7 L 332.1,343.3 L 331.5,344.1 L 330.0,345.7 L 327.8,347.8 L 324.5,350.5 L 322.5,352.1 L 320.6,353.5 L 320.4,353.5 L 318.9,354.0 L 318.7,353.9 L 318.5,352.8 L 318.3,352.7 L 318.1,352.8 L 318.2,354.1 L 317.4,354.3 L 316.5,354.3 L 315.8,354.1 L 314.6,353.2 L 313.1,351.9 L 312.9,351.5 L 313.0,351.3 L 313.5,350.9 L 315.2,350.3 L 316.0,350.2 L 316.7,350.3 L 317.6,351.0 L 317.9,350.9 L 317.7,350.6 L 317.3,350.2 L 317.0,350.0 L 316.1,349.8 L 314.5,350.0 L 313.2,350.5 L 312.9,350.7 L 312.5,351.2 L 312.6,352.0 L 313.2,352.5 L 315.9,354.6 L 316.1,355.6 L 316.2,356.8 L 316.1,357.3 L 315.7,357.0 L 315.4,356.6 L 315.4,356.1 L 315.6,355.6 L 315.5,355.0 L 314.8,354.4 L 314.2,354.2 L 313.8,354.3 L 312.7,354.9 L 311.5,355.6 L 310.1,355.9 L 309.9,355.8 L 309.7,355.8 L 309.3,356.2 L 308.2,356.4 L 307.0,355.9 L 306.5,355.9 L 305.9,356.1 L 305.9,356.1 L 305.2,356.5 L 304.2,356.7 L 303.1,356.8 L 302.8,356.6 L 302.4,356.1 L 301.9,355.8 L 301.6,355.7 L 299.6,354.6 L 298.9,354.8 L 298.5,354.6 L 298.1,354.3 L 297.9,354.3 L 297.2,353.4 L 296.8,353.1 L 296.1,352.7 L 294.6,351.4 L 294.5,350.9 L 294.5,350.9 L 294.4,350.7 L 293.8,350.1 L 293.4,349.2 L 293.2,348.6 L 292.4,347.4 L 291.4,346.5 L 290.6,344.4 L 289.1,341.5 L 288.3,340.2 L 287.7,338.3 L 287.2,337.6 L 286.8,336.3 L 286.9,334.5 L 286.9,334.0 L 286.9,333.4 L 286.7,333.1 L 286.1,333.2 L 285.6,333.5 L 284.4,333.7 L 283.8,333.4 L 283.6,333.1 L 283.4,332.7 L 282.7,332.5 L 282.3,332.2 L 282.0,331.9 L 281.9,331.2 L 282.2,330.5 L 282.0,329.7 L 281.6,329.0 L 280.9,328.2 L 279.6,327.4 L 279.0,326.8 L 278.7,326.8 L 277.4,325.7 L 276.6,325.8 L 276.0,326.5 L 275.6,326.6 L 274.8,326.7 L 273.9,326.5 L 273.4,326.1 L 273.0,324.8 L 272.1,324.2 L 271.9,323.5 L 271.6,323.3 L 271.2,323.4 L 270.7,322.8 L 270.1,322.0 L 269.5,321.7 L 268.4,320.7 L 268.2,320.2 L 268.3,319.9 L 267.9,319.8 L 267.1,319.7 L 266.5,319.1 L 266.3,318.7 L 266.0,318.4 L 265.3,318.2 L 265.1,318.0 L 264.3,317.4 L 263.4,316.6 L 262.8,316.3 L 261.8,315.4 L 260.8,314.0 L 259.9,311.7 L 258.1,308.6 L 257.4,307.0 L 256.8,305.4 L 256.1,304.3 L 255.4,303.5 L 255.0,302.6 L 254.4,301.5 L 254.2,301.0 L 253.4,300.1 L 252.8,298.8 L 252.6,297.4 L 252.7,296.9 L 253.4,295.8 L 253.6,295.3 L 254.3,295.1 L 254.8,294.6 L 255.0,293.9 L 255.2,292.3 L 254.9,290.5 L 253.5,288.5 L 253.0,287.5 L 252.8,287.0 L 251.8,286.0 L 251.3,285.4 L 250.4,284.4 L 249.2,283.3 L 246.5,281.4 L 242.9,280.1 L 241.9,279.2 L 241.4,279.0 L 241.1,278.7 L 241.2,278.2 L 241.0,278.0 L 240.5,277.6 L 240.3,277.5 L 240.2,277.6 L 240.1,277.7 L 239.8,278.0 L 239.2,278.0 L 238.9,278.7 L 238.5,278.9 L 238.0,279.0 L 237.8,278.8 L 237.8,278.6 L 238.0,278.4 L 237.9,278.1 L 237.9,278.0 L 237.4,277.7 L 237.2,277.1 L 237.0,276.7 L 236.9,276.4 L 235.9,275.8 L 235.4,275.5 L 235.5,274.7 L 235.3,274.4 L 234.4,273.4 L 233.6,273.0 L 231.8,272.5 L 231.3,272.4 L 230.9,272.6 L 230.6,272.8 L 230.4,272.9 L 229.0,273.3 L 227.5,273.1 L 226.8,272.8 L 225.3,272.0 L 223.2,270.6 L 222.5,270.2 L 221.4,268.7 L 221.5,268.2 L 220.9,267.6 L 220.3,267.4 L 219.1,266.5 L 218.5,265.6 L 218.0,265.3 L 215.9,264.6 L 215.3,263.8 L 214.3,263.1 L 214.1,263.1 L 214.1,263.7 L 213.2,264.0 L 211.9,263.2 L 212.0,262.9 L 211.8,262.4 L 211.3,261.8 L 210.9,261.5 L 210.5,260.9 L 210.0,260.4 L 209.4,260.1 L 209.4,259.8 L 209.6,259.6 L 209.5,259.4 L 209.3,259.2 L 209.0,259.2 L 209.1,259.6 L 208.9,259.8 L 208.6,259.9 L 207.1,259.1 L 207.0,258.6 L 205.3,257.6 L 203.5,257.0 L 202.8,256.8 L 202.4,257.0 L 202.3,256.8 L 202.1,256.8 L 201.5,257.6 L 200.4,257.8 L 200.1,258.2 L 199.6,258.4 L 199.1,258.4 L 198.6,258.1 L 197.6,257.8 L 196.9,257.9 L 196.5,257.6 L 195.6,256.7 L 195.7,256.2 L 195.9,255.7 L 195.8,255.1 L 195.3,254.3 L 195.2,253.7 L 195.3,252.9 L 194.7,252.1 L 194.1,251.6 L 192.8,251.2 L 192.4,251.2 L 191.9,251.3 L 191.6,251.5 L 190.8,251.6 L 190.4,251.9 L 190.1,251.9 L 189.7,251.6 L 189.6,251.3 L 189.8,251.0 L 189.7,250.8 L 189.2,250.5 L 188.5,250.6 L 187.8,250.3 L 187.4,250.3 L 186.3,249.8 L 185.1,249.8 L 184.3,249.6 L 183.9,249.7 L 183.5,249.8 L 182.7,250.4 L 182.0,250.3 L 181.8,250.2 L 181.5,249.5 L 181.2,249.2 L 180.6,249.0 L 180.1,249.1 L 179.9,249.4 L 179.7,249.5 L 179.5,249.5 L 179.0,249.1 L 178.1,248.9 L 177.1,249.0 L 175.6,249.5 L 172.8,250.0 L 172.2,250.2 L 171.7,250.0 L 170.6,249.6 L 169.6,249.5 L 169.2,249.3 L 169.1,249.0 L 168.5,247.9 L 168.2,247.0 L 168.2,246.3 L 168.5,245.9 L 169.0,245.5 L 169.1,244.8 L 170.3,242.6 L 170.3,242.2 L 170.7,241.9 L 170.6,241.1 L 170.2,240.7 L 169.0,240.1 L 168.6,239.5 L 168.2,237.7 L 167.8,237.3 L 167.5,235.1 L 167.6,234.9 L 167.8,233.7 L 168.0,233.4 L 169.3,233.0 L 170.0,232.5 L 171.0,231.3 L 171.0,230.6 L 171.0,230.2 L 170.9,229.2 L 171.1,228.4 L 171.5,228.0 L 171.6,227.8 L 171.5,226.2 L 171.3,225.7 L 171.0,225.0 L 170.8,224.9 L 170.7,224.2 L 170.2,223.4 L 169.2,222.4 L 168.9,222.2 L 168.3,222.3 L 168.0,222.1 L 168.1,221.7 L 167.8,221.4 L 166.2,220.6 L 164.7,219.5 L 163.3,219.0 L 162.9,219.0 L 162.7,218.4 L 162.5,217.9 L 161.8,217.2 L 161.6,215.9 L 160.9,215.1 L 159.5,213.6 L 158.9,212.7 L 158.6,212.5 L 158.5,211.7 L 157.6,211.0 L 156.9,210.7 L 155.7,210.5 L 154.5,210.4 L 153.4,210.3 L 152.3,210.2 L 150.3,210.1 L 149.6,210.0 L 149.0,210.0 L 148.6,209.9 L 148.5,210.0 L 147.6,210.1 L 147.0,210.0 L 145.6,210.2 L 144.7,210.5 L 144.1,211.2 L 144.1,211.6 L 144.3,211.7 L 144.7,211.5 L 145.3,211.5 L 145.6,211.7 L 146.8,211.5 L 147.0,211.7 L 145.0,213.4 L 145.0,213.7 L 146.5,215.0 L 147.2,215.2 L 147.2,215.6 L 147.1,215.9 L 146.9,216.0 L 146.0,215.7 L 144.9,215.8 L 144.2,215.5 L 143.6,215.3 L 142.4,215.5 L 140.8,216.2 L 140.7,216.5 L 140.8,216.7 L 141.6,217.1 L 141.6,217.3 L 140.9,217.4 L 140.1,217.2 L 139.7,217.2 L 139.4,217.5 L 138.3,217.8 L 137.8,218.0 L 137.1,218.2 L 136.8,218.2 L 135.9,217.9 L 131.1,217.4 L 129.2,217.5 L 128.7,217.7 L 127.5,218.3 L 127.3,219.0 L 126.2,219.2 L 125.6,219.5 L 124.4,220.3 L 123.5,220.6 L 123.0,220.9 L 121.4,221.8 L 120.7,222.0 L 118.8,223.0 L 118.4,223.1 L 117.7,222.9 L 117.1,223.2 L 116.8,223.5 L 116.8,223.9 L 116.7,224.4 L 116.5,224.8 L 115.9,224.9 L 114.3,224.6 L 113.0,224.0 L 112.4,223.5 L 112.1,223.0 L 111.8,221.3 L 112.9,219.4 L 113.0,218.5 L 112.9,217.7 L 112.8,217.4 L 112.6,216.2 L 112.2,215.4 L 111.8,213.9 L 111.3,211.2 L 111.1,210.7 L 110.0,209.9 L 109.7,209.8 L 109.2,209.4 L 108.6,209.2 L 107.9,209.4 L 106.8,210.0 L 106.4,210.4 L 106.0,210.6 L 105.8,211.3 L 105.7,212.0 L 104.8,213.2 L 104.5,213.5 L 103.0,215.4 L 102.3,215.7 L 101.8,215.7 L 101.3,215.7 L 101.1,216.0 L 101.1,216.6 L 101.0,216.8 L 100.5,216.9 L 100.0,216.1 L 99.7,215.9 L 99.2,216.0 L 98.8,216.3 L 98.2,216.5 L 98.1,216.8 L 97.7,217.5 L 97.4,218.9 L 96.7,220.0 L 95.8,220.7 L 95.3,220.9 L 94.6,220.8 L 94.0,220.4 L 93.8,219.9 L 93.5,218.3 L 92.9,217.6 L 92.6,217.1 L 92.6,216.4 L 92.9,215.2 L 92.9,214.2 L 92.7,213.7 L 92.6,213.6 L 91.9,213.5 L 90.6,213.7 L 88.9,214.1 L 88.2,214.4 L 87.6,215.2 L 87.4,215.5 L 86.9,215.6 L 86.6,215.5 L 86.6,214.6 L 86.3,214.5 L 86.2,214.0 L 85.9,214.0 L 85.7,214.3 L 85.6,214.5 L 85.0,214.7 L 84.5,215.7 L 84.1,215.8 L 83.7,215.0 L 83.3,214.8 L 82.8,214.8 L 82.2,214.1 L 82.0,214.0 L 81.3,213.9 L 81.0,213.7 L 80.7,213.0 L 80.0,212.6 L 79.3,212.9 L 79.4,213.2 L 79.8,213.8 L 79.5,214.6 L 79.6,215.8 L 79.1,217.0 L 78.5,218.3 L 77.5,219.6 L 76.8,219.9 L 76.1,221.1 L 75.3,221.7 L 73.9,222.0 L 72.2,223.5 L 71.2,224.3 L 70.2,224.5 L 69.2,224.3 L 68.4,223.7 L 67.6,222.7 L 67.3,222.0 L 67.3,221.2 L 68.3,218.1 L 68.6,217.2 L 69.2,215.8 L 69.9,213.0 L 70.4,210.7 L 70.5,209.6 L 70.3,207.4 L 70.3,206.4 L 70.9,205.4 L 72.1,204.0 L 74.0,201.5 L 75.3,199.4 L 76.0,198.2 L 76.1,197.2 L 76.5,196.1 L 76.6,195.0 L 76.9,194.6 L 76.7,193.8 L 76.7,193.5 L 77.1,193.5 L 77.5,193.6 L 77.9,193.5 L 78.4,192.9 L 78.4,192.3 L 78.6,191.9 L 78.6,191.5 L 78.3,191.4 L 78.3,190.8 L 78.2,190.2 L 78.4,189.9 L 78.4,189.7 L 77.9,189.5 L 77.3,189.5 L 77.2,189.8 L 76.8,190.0 L 75.9,190.4 L 75.2,189.6 L 74.8,189.5 L 74.6,189.3 L 73.9,189.0 L 73.2,189.3 L 72.3,189.8 L 71.5,190.8 L 71.3,191.3 L 71.5,191.5 L 71.7,192.1 L 72.0,192.3 L 72.5,192.3 L 72.8,192.1 L 73.4,191.9 L 73.9,192.6 L 74.4,192.9 L 75.1,192.8 L 75.3,193.0 L 75.3,193.5 L 74.8,194.0 L 74.4,194.2 L 73.4,194.4 L 72.5,194.4 L 71.8,194.1 L 71.3,194.1 L 70.5,194.5 L 69.7,195.1 L 69.2,195.8 L 68.7,196.0 L 68.2,196.5 L 68.3,196.8 L 68.6,196.8 L 68.6,197.1 L 67.9,198.1 L 67.7,198.2 L 67.4,198.1 L 67.1,198.4 L 66.7,198.5 L 66.4,198.6 L 66.2,199.0 L 66.1,199.5 L 65.8,199.6 L 65.5,199.9 L 65.4,200.7 L 64.5,201.8 L 63.7,203.1 L 63.7,203.4 L 64.0,203.6 L 63.9,204.1 L 63.8,204.3 L 63.5,204.1 L 63.1,204.1 L 62.7,204.7 L 62.7,204.9 L 63.1,204.9 L 63.3,205.2 L 63.1,205.8 L 63.3,206.2 L 63.8,206.2 L 64.0,206.3 L 64.1,206.5 L 63.5,207.4 L 63.6,208.0 L 63.7,208.1 L 64.0,208.0 L 64.7,207.4 L 65.6,207.3 L 65.7,207.4 L 66.0,207.8 L 66.4,207.6 L 66.7,207.6 L 66.9,207.9 L 66.8,208.4 L 66.6,208.7 L 66.0,208.8 L 65.6,208.7 L 65.1,208.7 L 63.7,209.7 L 63.1,210.4 L 63.1,211.0 L 63.3,211.2 L 64.1,211.1 L 64.8,210.4 L 65.0,210.4 L 65.0,210.7 L 64.8,211.4 L 64.2,212.4 L 64.0,213.5 L 63.5,214.0 L 63.3,214.4 L 63.1,215.4 L 62.7,215.5 L 62.6,215.3 L 62.6,215.0 L 62.9,214.2 L 62.9,213.9 L 63.0,213.5 L 62.9,213.2 L 62.5,213.3 L 62.2,213.5 L 62.2,214.0 L 61.9,214.0 L 61.3,214.8 L 60.3,214.7 L 59.7,214.9 L 59.5,215.4 L 59.9,215.4 L 60.1,215.7 L 59.9,216.1 L 59.4,216.2 L 59.0,216.4 L 58.5,217.4 L 57.8,217.4 L 57.5,217.8 L 57.1,217.9 L 56.9,218.0 L 56.6,218.7 L 55.9,219.9 L 55.9,220.3 L 56.1,220.6 L 56.2,220.9 L 55.5,222.4 L 55.2,222.7 L 55.3,223.0 L 55.1,223.2 L 55.3,223.6 L 54.1,224.0 L 53.2,225.2 L 53.2,225.7 L 52.9,226.3 L 52.3,226.9 L 52.4,227.6 L 51.9,228.3 L 51.2,229.1 L 50.3,229.2 L 49.5,230.4 L 49.4,230.7 L 49.2,231.3 L 48.8,231.8 L 48.2,232.0 L 47.3,231.7 L 46.5,231.3 L 45.7,230.6 L 45.4,230.3 L 44.8,229.4 L 44.4,228.4 L 44.4,227.9 L 45.1,226.5 L 45.2,225.7 L 45.0,224.3 L 45.4,223.1 L 47.1,220.7 L 47.4,220.1 L 47.8,219.5 L 47.6,219.2 L 47.1,218.9 L 45.9,218.7 L 45.1,218.7 L 44.5,218.9 L 43.1,219.8 L 42.5,220.0 L 42.0,219.8 L 41.6,219.3 L 41.3,218.6 L 41.2,217.5 L 41.5,216.2 L 41.4,215.0 L 41.4,214.8 L 41.2,214.6 L 41.0,214.6 L 40.6,214.8 L 40.5,214.9 L 40.5,214.7 L 40.5,214.6 L 40.0,214.2 L 40.0,214.2 L 40.0,214.1 L 40.1,213.2 L 40.1,213.2 L 40.1,213.5 L 40.5,213.8 L 40.7,213.7 L 40.8,213.4 L 40.5,213.1 L 40.4,213.1 L 40.2,213.1 L 40.1,213.0 L 40.1,212.9" fill="none" stroke="black" stroke-width="2"/>
</svg>