<?xml version="1.0" encoding="UTF-8"?>
<svg width="400" height="400" viewBox="0 0 400 400" xmlns="http://www.w3.org/2000/svg">
  <rect width="400" height="400" fill="white"/>
  <path d="M 136.5,202.3 L 136.5,202.3 L 136.4,201.6 L 136.7,200.9 L 136.6,200.2 L 136.8,199.6 L 137.3,199.1 L 137.6,199.0 L 137.8,198.7 L 137.8,198.2 L 138.0,197.8 L 137.9,197.5 L 137.3,197.0 L 136.6,196.6 L 136.7,196.3 L 136.4,196.4 L 136.1,196.4 L 135.8,195.9 L 135.7,195.1 L 136.4,193.6 L 136.5,193.2 L 136.5,192.9 L 137.4,191.7 L 137.3,191.4 L 137.1,191.1 L 137.0,190.9 L 137.0,190.7 L 137.1,189.9 L 137.3,189.1 L 137.4,188.8 L 137.5,188.3 L 138.0,187.1 L 139.5,185.6 L 140.2,184.8 L 140.5,184.5 L 140.8,184.6 L 141.1,184.3 L 141.2,183.7 L 141.2,183.0 L 141.7,182.1 L 143.0,180.7 L 143.6,179.7 L 143.8,179.0 L 144.1,178.5 L 145.0,176.7 L 145.2,175.6 L 144.9,174.1 L 144.7,173.1 L 144.4,171.5 L 143.9,170.1 L 143.3,169.5 L 142.9,169.1 L 142.5,168.9 L 141.8,168.7 L 141.3,168.7 L 140.8,168.4 L 140.5,168.9 L 140.1,169.3 L 139.4,170.1 L 139.0,170.3 L 138.6,170.1 L 138.2,169.8 L 138.0,169.5 L 138.2,168.7 L 138.1,167.7 L 137.9,167.3 L 138.0,167.1 L 137.8,165.7 L 138.0,165.2 L 138.5,164.5 L 139.0,163.4 L 139.7,163.0 L 140.2,162.6 L 141.1,162.4 L 141.6,162.2 L 142.0,162.1 L 142.1,161.8 L 141.9,160.4 L 141.7,160.3 L 141.7,159.9 L 141.9,159.7 L 142.0,159.5 L 142.1,159.3 L 142.1,159.1 L 142.1,158.7 L 142.0,158.3 L 141.5,157.7 L 141.4,157.7 L 141.3,157.3 L 141.0,157.2 L 140.5,157.2 L 139.7,156.2 L 139.6,155.9 L 139.6,155.4 L 139.1,154.9 L 137.9,154.0 L 137.5,153.7 L 137.2,153.5 L 137.0,153.4 L 136.7,153.4 L 135.0,154.1 L 133.8,154.6 L 132.9,155.6 L 132.1,156.2 L 130.7,157.3 L 129.9,157.4 L 129.6,157.3 L 129.4,157.3 L 128.8,158.0 L 128.2,158.4 L 127.7,158.7 L 126.8,159.1 L 126.2,159.3 L 125.5,159.1 L 124.5,159.2 L 123.6,159.4 L 122.5,159.4 L 121.5,159.2 L 120.4,158.7 L 119.6,157.7 L 119.4,157.0 L 119.0,156.4 L 118.1,155.8 L 117.7,154.9 L 117.1,154.1 L 116.9,153.8 L 116.6,153.6 L 116.4,153.2 L 116.2,152.6 L 116.0,152.0 L 115.8,151.9 L 115.7,150.7 L 115.7,150.1 L 115.6,149.5 L 115.7,149.1 L 115.8,148.5 L 115.9,147.9 L 116.2,147.3 L 116.4,146.6 L 116.4,146.0 L 116.4,145.8 L 116.4,145.3 L 117.1,143.8 L 117.7,143.0 L 117.9,142.5 L 118.2,142.2 L 118.2,141.6 L 118.5,141.3 L 118.7,140.8 L 118.8,140.4 L 119.1,139.9 L 119.2,139.3 L 119.0,139.0 L 118.6,138.9 L 118.2,138.9 L 117.8,138.6 L 117.7,138.3 L 117.5,138.2 L 117.4,137.7 L 117.0,137.0 L 116.7,136.3 L 116.6,135.9 L 116.4,135.5 L 116.2,135.1 L 115.9,134.9 L 114.2,135.8 L 113.2,136.0 L 112.9,135.8 L 111.9,134.9 L 111.5,134.5 L 111.4,134.3 L 111.4,134.0 L 111.6,133.5 L 111.7,133.3 L 111.4,132.8 L 111.5,132.5 L 111.1,132.4 L 111.3,131.6 L 111.3,131.0 L 111.4,130.8 L 111.3,130.7 L 111.2,130.1 L 111.3,129.8 L 111.2,129.5 L 110.8,129.5 L 110.5,129.7 L 110.4,129.5 L 110.5,129.3 L 110.1,127.7 L 110.1,127.2 L 110.1,126.6 L 110.3,126.2 L 110.2,125.3 L 110.4,124.7 L 110.7,123.5 L 110.9,122.7 L 110.9,122.6 L 111.1,122.4 L 111.7,121.9 L 111.8,121.5 L 112.3,121.0 L 112.8,120.7 L 113.3,120.1 L 113.4,119.5 L 113.4,118.8 L 113.5,117.8 L 113.5,117.7 L 113.4,117.6 L 113.6,117.2 L 113.5,117.0 L 113.6,116.7 L 113.5,116.6 L 113.7,116.0 L 113.5,115.8 L 113.3,115.9 L 113.2,115.7 L 113.5,115.3 L 113.4,114.6 L 113.6,114.0 L 113.4,113.8 L 113.8,113.2 L 113.8,112.8 L 113.5,112.6 L 113.5,112.3 L 113.3,112.1 L 113.1,112.2 L 113.0,112.2 L 112.9,111.9 L 112.3,112.0 L 111.7,111.6 L 111.7,110.9 L 112.0,110.2 L 112.7,109.2 L 113.2,108.0 L 113.3,107.6 L 113.3,107.3 L 113.4,107.1 L 113.3,106.9 L 113.3,106.6 L 113.5,105.6 L 114.6,103.9 L 115.0,103.3 L 115.4,102.7 L 115.8,101.9 L 116.1,101.8 L 116.3,101.7 L 117.1,101.0 L 117.3,100.9 L 117.4,100.7 L 117.9,100.6 L 118.5,100.2 L 118.9,99.6 L 119.1,99.0 L 119.0,98.6 L 118.3,97.7 L 118.1,97.1 L 117.8,95.9 L 117.7,95.8 L 117.5,95.7 L 117.2,96.0 L 116.9,96.3 L 116.8,96.5 L 116.6,96.6 L 116.6,96.6 L 116.7,96.5 L 150.6,57.5 L 150.6,57.6 L 151.4,57.5 L 151.8,57.7 L 154.4,57.2 L 154.9,57.0 L 155.3,56.7 L 155.7,56.4 L 156.2,56.3 L 156.6,56.4 L 157.3,56.3 L 157.7,55.9 L 160.1,54.0 L 162.0,51.9 L 162.0,51.9 L 162.4,51.3 L 162.3,50.4 L 161.9,49.9 L 161.6,49.7 L 160.2,48.6 L 160.1,48.3 L 160.4,48.1 L 160.0,47.6 L 159.8,47.6 L 159.5,46.6 L 159.4,46.5 L 159.4,46.0 L 159.9,45.2 L 160.5,44.4 L 160.6,44.4 L 161.7,43.5 L 162.6,43.1 L 163.0,43.1 L 165.2,43.6 L 167.4,43.9 L 167.8,43.8 L 168.6,43.5 L 169.7,43.0 L 171.0,42.8 L 171.7,42.8 L 172.0,42.9 L 172.4,43.0 L 173.0,43.4 L 173.5,43.6 L 174.5,43.4 L 175.1,42.9 L 175.5,42.5 L 175.8,42.2 L 176.0,42.1 L 177.5,41.7 L 177.8,41.6 L 178.1,41.6 L 180.6,40.3 L 181.2,40.0 L 181.9,40.0 L 182.5,40.2 L 183.0,40.7 L 183.0,40.9 L 183.4,41.1 L 183.9,41.6 L 184.7,42.4 L 185.1,43.2 L 185.3,44.0 L 185.2,44.6 L 184.5,45.9 L 183.8,47.0 L 183.3,48.1 L 182.9,49.9 L 182.3,50.8 L 182.1,51.4 L 181.9,51.5 L 181.7,51.4 L 181.7,50.8 L 181.2,50.8 L 181.2,51.7 L 181.8,51.7 L 181.9,51.9 L 182.0,51.9 L 182.1,52.6 L 182.7,52.8 L 183.2,52.8 L 183.4,52.9 L 183.7,53.0 L 184.2,53.2 L 184.5,53.7 L 185.0,55.0 L 185.9,56.3 L 186.1,56.6 L 186.1,57.2 L 186.4,57.8 L 186.8,58.4 L 186.9,58.4 L 187.1,58.3 L 187.2,58.3 L 186.9,58.6 L 186.8,58.8 L 187.0,59.1 L 187.2,59.1 L 187.5,58.8 L 187.6,58.8 L 187.8,58.9 L 188.0,59.0 L 188.1,59.2 L 188.0,59.3 L 187.7,59.7 L 187.8,59.9 L 188.7,60.7 L 188.0,64.0 L 188.5,64.3 L 188.5,64.6 L 188.4,64.8 L 187.8,65.3 L 187.6,65.3 L 187.0,65.3 L 186.9,64.9 L 186.8,64.9 L 186.7,65.0 L 186.6,65.0 L 186.5,64.9 L 186.5,64.7 L 186.2,64.7 L 186.2,65.0 L 186.0,64.9 L 185.8,64.9 L 185.8,64.6 L 185.6,64.5 L 185.4,64.8 L 184.9,65.0 L 184.3,64.6 L 183.4,64.4 L 182.7,63.9 L 182.3,63.4 L 182.3,62.7 L 181.8,62.5 L 181.7,62.6 L 181.5,62.1 L 179.7,61.2 L 179.4,61.4 L 178.9,61.2 L 178.7,61.3 L 178.3,61.2 L 178.2,60.8 L 178.0,60.9 L 178.1,61.3 L 177.5,62.4 L 177.2,63.1 L 176.6,64.2 L 176.5,64.4 L 176.5,64.4 L 176.1,65.4 L 175.9,65.4 L 176.0,65.7 L 176.0,66.0 L 176.5,66.3 L 176.6,66.3 L 176.8,66.2 L 177.0,65.7 L 177.2,65.6 L 177.5,65.5 L 177.5,65.5 L 177.6,65.3 L 177.8,65.0 L 177.8,64.9 L 177.9,64.6 L 177.9,64.4 L 178.0,64.2 L 178.1,64.0 L 178.5,63.6 L 178.6,63.5 L 179.4,64.0 L 180.4,64.5 L 180.4,65.1 L 180.2,66.0 L 180.1,66.9 L 179.4,68.0 L 178.8,70.3 L 178.6,71.0 L 178.5,71.3 L 178.3,71.7 L 177.9,73.1 L 177.9,73.7 L 177.8,74.3 L 177.7,74.4 L 177.7,74.9 L 177.3,74.9 L 177.0,75.5 L 177.1,75.7 L 177.6,75.9 L 178.2,76.7 L 178.8,77.2 L 178.7,77.6 L 178.9,78.9 L 179.2,78.8 L 179.5,78.3 L 179.9,78.1 L 180.0,78.0 L 180.7,78.5 L 180.8,78.7 L 180.7,79.5 L 180.2,80.9 L 180.0,81.5 L 179.9,81.8 L 179.8,82.2 L 179.8,82.2 L 179.7,82.6 L 179.9,84.8 L 179.8,86.3 L 179.5,87.7 L 179.5,88.5 L 179.7,88.9 L 179.9,90.7 L 179.7,91.1 L 179.7,91.4 L 179.6,91.6 L 179.2,92.2 L 178.3,92.9 L 177.8,93.4 L 177.4,93.5 L 177.0,93.3 L 176.9,92.8 L 177.1,92.4 L 177.3,92.2 L 177.4,91.8 L 176.8,91.9 L 176.7,91.8 L 176.6,91.7 L 176.3,92.2 L 175.9,92.3 L 175.6,92.5 L 174.9,93.6 L 174.8,94.0 L 174.7,94.4 L 175.3,94.7 L 175.4,94.9 L 175.3,95.5 L 174.7,96.6 L 174.0,97.5 L 172.3,98.8 L 171.8,99.9 L 171.7,100.1 L 171.4,100.6 L 171.0,101.0 L 170.3,101.2 L 170.0,101.5 L 169.6,102.5 L 169.0,103.2 L 168.5,104.4 L 168.1,104.5 L 167.8,105.2 L 167.1,106.9 L 167.0,107.5 L 166.8,108.1 L 166.6,109.3 L 166.4,109.4 L 166.2,109.9 L 165.7,110.7 L 165.5,111.6 L 165.4,111.7 L 164.9,111.9 L 164.2,111.5 L 163.8,111.5 L 163.5,112.2 L 163.3,112.2 L 163.2,112.2 L 162.8,112.4 L 162.5,113.0 L 161.9,113.8 L 161.7,114.5 L 161.5,114.6 L 161.3,114.5 L 161.1,114.6 L 160.8,115.0 L 160.4,115.2 L 159.1,116.8 L 158.9,116.7 L 158.3,117.1 L 157.3,118.3 L 156.6,119.9 L 156.3,120.7 L 156.1,120.9 L 155.9,121.7 L 155.5,122.0 L 155.1,122.0 L 154.5,122.2 L 154.2,122.5 L 153.7,123.0 L 152.4,125.2 L 151.8,125.9 L 150.9,126.6 L 149.7,128.1 L 149.3,128.1 L 149.0,127.9 L 148.6,127.9 L 147.7,129.1 L 147.6,129.5 L 146.3,132.0 L 145.8,133.1 L 145.4,133.6 L 144.4,135.6 L 144.4,136.2 L 145.0,137.2 L 145.3,137.6 L 145.5,138.7 L 145.9,138.9 L 146.0,138.9 L 146.1,138.7 L 146.6,138.4 L 146.9,138.0 L 147.1,138.0 L 147.2,138.4 L 147.4,138.5 L 147.5,138.4 L 147.6,138.1 L 148.0,138.1 L 148.4,138.1 L 148.7,137.8 L 148.7,137.4 L 148.8,137.3 L 149.5,137.2 L 149.7,137.4 L 150.0,137.8 L 150.7,138.2 L 151.5,138.2 L 151.9,138.1 L 152.2,138.3 L 152.5,138.2 L 153.4,138.0 L 153.6,137.9 L 154.4,137.8 L 155.4,137.7 L 156.8,136.9 L 157.3,136.5 L 157.6,136.0 L 159.0,134.1 L 160.5,133.6 L 161.5,133.0 L 161.6,133.0 L 162.7,131.1 L 163.0,130.9 L 163.3,130.3 L 163.6,130.1 L 163.9,129.9 L 164.9,128.7 L 165.1,128.5 L 165.4,128.3 L 166.0,128.1 L 166.6,127.7 L 167.2,127.0 L 167.5,126.5 L 167.8,126.2 L 167.9,126.2 L 167.8,125.7 L 168.6,125.2 L 168.9,125.3 L 169.1,125.3 L 169.8,124.3 L 169.9,124.5 L 169.7,125.0 L 169.8,125.2 L 170.0,125.1 L 170.6,124.5 L 170.8,123.9 L 170.4,123.8 L 170.3,122.9 L 170.5,122.7 L 170.4,122.5 L 170.6,121.8 L 171.0,121.2 L 171.4,121.1 L 171.8,120.6 L 171.8,120.2 L 172.2,119.4 L 172.9,118.8 L 173.6,118.8 L 174.0,118.6 L 174.1,118.1 L 175.1,117.2 L 175.8,116.6 L 176.1,116.2 L 176.8,116.0 L 177.2,115.8 L 177.4,115.5 L 177.6,114.7 L 178.0,114.0 L 178.3,113.8 L 178.7,113.8 L 178.8,113.8 L 179.0,114.3 L 179.8,114.2 L 180.3,114.4 L 180.6,114.7 L 180.8,115.1 L 180.6,115.9 L 180.7,116.6 L 181.2,117.2 L 181.3,117.7 L 181.3,118.2 L 181.1,118.8 L 180.9,119.1 L 180.1,119.2 L 179.8,119.2 L 179.6,119.4 L 179.8,119.6 L 179.6,119.7 L 179.6,119.9 L 179.8,120.2 L 179.8,120.4 L 179.3,121.8 L 177.8,123.9 L 177.6,124.6 L 178.0,126.8 L 177.9,128.5 L 178.0,129.6 L 178.2,130.0 L 178.3,130.9 L 178.3,131.3 L 178.3,132.0 L 178.7,133.0 L 179.7,133.9 L 180.6,133.8 L 181.1,133.4 L 181.3,133.4 L 181.4,133.8 L 182.1,134.4 L 182.5,134.2 L 183.4,134.1 L 183.6,133.9 L 183.9,133.7 L 184.3,133.6 L 184.5,133.4 L 185.3,133.1 L 185.6,132.9 L 186.1,132.8 L 186.4,132.7 L 188.3,132.4 L 188.7,132.2 L 190.1,131.7 L 191.3,131.4 L 191.9,131.3 L 192.7,130.9 L 194.3,130.5 L 196.3,129.5 L 196.7,129.2 L 197.0,129.1 L 197.1,129.2 L 197.2,129.3 L 197.3,129.6 L 197.2,130.1 L 196.8,131.1 L 196.3,132.0 L 195.9,132.4 L 195.4,132.7 L 194.4,132.9 L 193.9,133.4 L 193.1,134.0 L 192.5,134.2 L 192.2,134.6 L 191.8,135.5 L 191.8,135.5 L 191.8,135.9 L 191.6,136.5 L 191.7,136.7 L 191.6,136.9 L 191.6,137.2 L 191.8,137.5 L 191.7,137.9 L 191.8,138.1 L 191.8,138.4 L 192.3,138.8 L 192.8,139.0 L 193.5,139.5 L 193.8,139.5 L 194.0,139.8 L 194.7,139.7 L 195.1,140.0 L 196.6,140.0 L 197.4,140.2 L 199.4,140.1 L 199.6,140.3 L 199.8,140.3 L 200.2,140.8 L 200.7,141.0 L 201.2,140.7 L 201.5,140.6 L 203.0,141.0 L 203.7,141.4 L 203.9,141.9 L 204.1,143.0 L 204.4,143.5 L 204.4,144.0 L 204.4,144.1 L 204.7,144.2 L 205.1,144.9 L 205.2,145.4 L 205.1,147.3 L 205.0,147.5 L 205.1,148.0 L 204.9,148.4 L 204.8,149.2 L 205.0,150.7 L 205.5,151.5 L 205.7,152.6 L 205.6,152.8 L 205.4,153.1 L 205.5,153.6 L 205.7,154.1 L 205.9,155.2 L 206.1,155.5 L 206.2,156.1 L 206.4,156.3 L 206.5,156.7 L 206.6,156.9 L 206.7,157.3 L 207.1,157.7 L 207.2,157.9 L 207.4,159.6 L 207.6,159.9 L 207.8,160.1 L 208.5,160.8 L 209.2,161.7 L 209.4,162.2 L 210.6,164.3 L 211.0,165.5 L 211.3,166.1 L 211.3,167.0 L 211.4,167.5 L 211.7,168.4 L 211.9,169.3 L 212.3,170.4 L 212.6,171.0 L 213.8,171.9 L 214.2,172.4 L 214.6,173.1 L 214.9,174.3 L 215.2,175.5 L 215.3,175.6 L 215.4,176.2 L 216.2,178.3 L 216.4,179.3 L 216.5,179.5 L 216.6,180.0 L 216.7,180.2 L 216.8,180.4 L 217.8,181.7 L 218.0,182.3 L 218.0,182.8 L 218.0,183.2 L 218.5,183.6 L 218.6,184.7 L 219.0,185.0 L 219.1,185.5 L 219.3,185.7 L 219.4,186.0 L 219.5,185.9 L 219.8,186.1 L 220.0,186.6 L 220.6,187.5 L 220.6,187.7 L 220.9,188.0 L 221.2,188.5 L 221.4,189.5 L 221.8,189.7 L 222.2,190.3 L 222.4,191.1 L 222.5,192.2 L 222.2,193.0 L 222.1,194.0 L 222.4,194.4 L 222.7,195.3 L 222.7,196.3 L 222.7,196.3 L 222.8,196.7 L 222.7,197.6 L 222.6,197.9 L 222.2,198.5 L 222.0,198.6 L 221.6,198.4 L 221.3,198.5 L 221.2,198.6 L 220.8,198.8 L 220.5,199.1 L 220.5,199.5 L 220.7,199.6 L 221.3,199.5 L 221.6,199.4 L 221.8,199.7 L 221.9,200.1 L 221.6,201.3 L 221.2,201.4 L 220.8,201.8 L 220.8,202.8 L 220.8,203.0 L 221.0,203.4 L 221.2,204.2 L 221.1,204.5 L 220.3,205.3 L 219.6,205.9 L 219.0,206.1 L 218.3,205.5 L 217.7,205.3 L 216.2,205.5 L 216.0,205.6 L 215.7,206.2 L 215.2,206.7 L 215.2,206.9 L 214.7,207.6 L 214.3,207.7 L 214.1,207.9 L 213.5,208.0 L 213.3,208.3 L 213.3,208.8 L 213.7,210.0 L 214.0,210.3 L 214.0,210.7 L 214.2,210.9 L 214.4,211.8 L 214.5,212.0 L 214.8,212.0 L 215.3,211.8 L 216.0,211.7 L 216.8,212.1 L 217.5,213.0 L 218.1,213.3 L 218.9,213.2 L 219.3,213.2 L 219.8,213.1 L 220.6,213.3 L 220.9,213.2 L 221.0,212.7 L 221.2,212.4 L 221.8,212.2 L 221.9,211.8 L 221.9,211.0 L 222.3,210.5 L 222.9,210.2 L 222.9,210.2 L 223.6,209.9 L 224.5,209.9 L 224.9,210.0 L 225.3,210.4 L 225.9,210.6 L 226.7,211.0 L 227.9,211.6 L 228.3,211.6 L 229.4,211.9 L 230.3,212.4 L 231.3,213.3 L 231.4,213.7 L 231.7,214.0 L 232.3,214.2 L 232.6,214.2 L 232.8,214.4 L 233.8,215.2 L 235.1,216.9 L 235.9,218.1 L 236.2,218.7 L 236.4,219.0 L 236.5,219.3 L 236.7,219.9 L 237.2,220.3 L 237.5,220.4 L 238.1,220.8 L 238.9,221.3 L 239.2,221.6 L 240.4,222.7 L 240.9,222.8 L 241.4,223.2 L 242.0,224.1 L 242.4,224.6 L 242.7,225.4 L 242.9,227.2 L 242.8,227.9 L 243.0,229.4 L 242.9,229.7 L 243.2,230.3 L 243.4,231.2 L 243.6,232.0 L 243.5,232.4 L 243.8,233.0 L 243.9,233.1 L 244.0,233.3 L 244.5,233.6 L 245.3,233.9 L 246.3,234.5 L 246.7,234.9 L 247.1,235.0 L 247.9,235.4 L 248.5,236.0 L 248.7,236.3 L 249.1,237.0 L 249.8,237.8 L 250.3,238.2 L 250.8,238.8 L 250.8,239.2 L 250.7,239.4 L 250.9,239.5 L 251.4,240.1 L 251.6,241.2 L 251.6,242.4 L 251.5,244.5 L 251.3,245.5 L 250.8,247.0 L 250.7,247.4 L 250.9,247.7 L 251.1,247.6 L 251.2,247.5 L 251.4,246.8 L 251.6,246.5 L 251.8,246.5 L 252.0,246.7 L 251.9,246.8 L 251.9,247.1 L 252.2,247.1 L 252.7,247.3 L 253.3,247.4 L 253.5,247.7 L 253.3,247.9 L 252.3,248.1 L 252.0,248.2 L 251.3,248.4 L 251.2,248.4 L 250.5,248.7 L 249.9,248.8 L 249.3,248.8 L 248.9,248.7 L 248.8,248.6 L 248.6,248.6 L 248.3,249.0 L 248.3,249.4 L 248.6,249.9 L 248.8,250.6 L 249.2,251.2 L 249.7,251.6 L 250.3,251.9 L 250.7,252.2 L 251.2,253.2 L 252.2,254.1 L 252.5,254.2 L 253.3,254.8 L 254.6,255.4 L 255.3,255.7 L 255.4,255.9 L 255.8,256.0 L 256.6,256.6 L 256.7,257.1 L 256.6,257.3 L 256.7,257.7 L 256.9,257.9 L 257.6,259.0 L 258.7,259.6 L 259.6,259.9 L 259.7,260.3 L 259.9,260.6 L 259.9,260.8 L 260.1,261.3 L 260.4,261.6 L 260.6,261.9 L 260.7,261.9 L 260.8,262.3 L 261.0,262.5 L 261.2,262.8 L 261.7,263.2 L 262.2,263.4 L 262.6,263.7 L 263.1,264.1 L 263.1,265.1 L 263.0,265.9 L 262.9,267.0 L 262.6,268.5 L 262.3,269.6 L 261.6,271.0 L 261.0,271.4 L 260.2,271.5 L 259.9,271.7 L 259.5,271.9 L 258.4,272.2 L 257.8,273.0 L 257.8,273.5 L 258.1,274.0 L 258.6,275.5 L 258.9,276.0 L 259.5,277.1 L 260.1,277.8 L 260.5,278.5 L 260.6,278.9 L 261.0,279.7 L 261.3,280.3 L 261.9,281.3 L 262.8,282.1 L 263.0,282.2 L 263.2,282.1 L 263.4,282.2 L 263.5,282.1 L 263.7,281.7 L 264.5,281.6 L 267.1,282.0 L 269.1,282.7 L 269.8,283.1 L 270.3,283.7 L 271.0,284.6 L 271.5,285.0 L 271.7,285.0 L 272.2,285.4 L 272.1,285.6 L 272.1,285.9 L 272.6,286.2 L 272.7,286.2 L 273.0,286.2 L 273.3,285.9 L 275.4,286.5 L 276.7,286.9 L 277.3,287.2 L 277.5,287.5 L 278.4,288.3 L 278.9,288.5 L 279.4,289.1 L 280.0,289.5 L 280.3,290.0 L 281.2,291.2 L 281.3,291.9 L 281.6,292.6 L 282.2,293.4 L 282.6,293.9 L 282.9,294.7 L 283.1,294.7 L 283.8,295.1 L 284.1,295.5 L 284.5,295.8 L 284.6,296.0 L 284.7,296.1 L 285.0,296.2 L 285.3,296.6 L 285.4,297.3 L 285.8,298.2 L 285.9,298.4 L 286.2,298.8 L 286.3,299.2 L 286.6,299.7 L 286.7,300.1 L 287.0,300.6 L 287.6,300.9 L 289.1,301.9 L 289.9,302.7 L 289.9,302.8 L 209.4,360.0 L 209.4,359.8 L 209.3,359.0 L 209.4,358.3 L 209.2,357.8 L 208.8,357.4 L 207.6,357.1 L 207.3,356.9 L 207.0,356.3 L 206.6,355.8 L 205.6,355.3 L 204.4,355.1 L 203.3,355.3 L 202.9,355.0 L 202.3,353.9 L 201.9,353.3 L 200.7,352.5 L 199.7,352.0 L 198.8,351.1 L 196.8,348.4 L 196.2,348.0 L 195.7,347.4 L 194.9,346.2 L 191.4,343.0 L 189.0,341.1 L 187.8,340.2 L 186.9,339.4 L 186.8,339.3 L 186.8,339.3 L 183.8,337.3 L 182.4,336.9 L 180.7,335.5 L 178.9,333.7 L 178.0,332.2 L 177.5,331.7 L 176.4,330.3 L 175.2,328.7 L 174.4,328.3 L 173.9,327.7 L 173.6,327.4 L 173.6,327.4 L 173.1,327.1 L 172.1,326.9 L 171.5,326.6 L 170.6,326.6 L 169.9,326.4 L 165.3,325.5 L 163.8,325.1 L 162.9,324.6 L 162.1,324.6 L 161.7,324.4 L 160.9,324.3 L 160.3,324.2 L 159.3,323.4 L 158.7,322.8 L 157.9,322.5 L 156.9,322.6 L 155.5,322.3 L 154.6,321.9 L 153.5,321.2 L 151.4,319.9 L 150.3,319.4 L 149.7,319.3 L 149.1,319.0 L 148.9,318.9 L 148.6,318.9 L 148.0,319.6 L 146.8,319.9 L 146.5,319.9 L 146.0,319.8 L 145.2,319.8 L 144.4,319.7 L 143.7,319.6 L 142.7,319.3 L 141.6,318.5 L 139.9,316.7 L 139.7,316.3 L 139.0,315.9 L 138.8,315.4 L 138.3,314.9 L 138.2,314.6 L 137.7,314.3 L 137.4,314.3 L 136.9,314.4 L 136.3,314.1 L 136.1,313.8 L 136.0,313.7 L 135.7,313.1 L 135.3,312.5 L 134.8,312.1 L 134.2,311.9 L 133.5,311.5 L 132.8,310.8 L 132.2,310.5 L 131.5,310.3 L 130.8,310.2 L 130.2,309.9 L 129.7,309.9 L 129.6,310.1 L 129.7,310.4 L 130.1,310.5 L 130.2,310.6 L 130.3,310.6 L 130.5,310.6 L 131.1,311.0 L 131.3,311.0 L 131.6,311.1 L 131.7,311.7 L 131.5,311.7 L 131.0,311.5 L 130.9,311.5 L 130.3,311.0 L 130.2,310.7 L 130.1,310.7 L 129.8,310.7 L 129.0,310.2 L 127.7,308.8 L 127.1,308.0 L 126.1,305.9 L 125.6,305.6 L 125.3,305.4 L 125.2,305.2 L 125.3,304.9 L 125.3,304.4 L 124.6,303.7 L 124.2,303.4 L 123.8,302.5 L 123.5,301.0 L 123.1,297.8 L 122.6,296.0 L 122.5,295.5 L 122.9,294.0 L 123.5,292.4 L 123.8,292.1 L 123.8,291.7 L 124.2,291.0 L 124.3,289.8 L 124.5,288.9 L 125.1,288.1 L 125.8,287.2 L 126.5,286.7 L 126.9,286.7 L 127.1,286.8 L 128.0,286.3 L 129.0,286.0 L 129.9,286.5 L 130.8,287.2 L 133.7,289.1 L 134.3,289.3 L 134.9,289.4 L 135.3,289.3 L 135.3,288.9 L 135.4,288.7 L 134.4,287.2 L 134.1,286.5 L 133.2,285.1 L 132.6,284.6 L 132.1,283.8 L 131.3,282.8 L 130.2,282.1 L 129.9,282.1 L 129.8,281.9 L 129.7,281.7 L 129.5,281.6 L 129.3,281.7 L 129.0,281.7 L 128.2,281.4 L 127.5,281.5 L 127.0,281.8 L 126.2,282.0 L 125.2,281.6 L 124.1,280.8 L 122.4,278.4 L 122.1,278.1 L 122.1,277.9 L 120.2,276.3 L 120.1,275.3 L 120.3,274.6 L 121.7,273.1 L 122.0,272.3 L 122.0,272.0 L 122.2,271.6 L 122.2,270.8 L 122.0,270.5 L 121.9,270.1 L 121.5,269.5 L 120.7,268.7 L 120.0,268.1 L 119.9,267.7 L 120.3,267.1 L 120.6,267.1 L 121.2,267.2 L 121.5,267.3 L 122.1,267.2 L 122.7,267.4 L 123.0,267.6 L 123.5,267.6 L 123.4,268.0 L 123.7,268.2 L 124.0,268.1 L 124.1,267.8 L 126.3,268.3 L 126.5,268.2 L 126.6,268.0 L 128.1,267.7 L 128.4,267.4 L 129.0,267.1 L 129.3,266.7 L 129.3,266.0 L 129.2,265.5 L 129.3,264.9 L 129.1,264.4 L 129.1,263.8 L 129.3,263.3 L 129.7,262.6 L 130.0,261.4 L 130.0,260.5 L 129.9,259.5 L 130.0,259.3 L 130.2,258.8 L 130.2,258.2 L 130.3,257.4 L 130.4,256.9 L 130.4,256.1 L 129.8,252.1 L 130.0,251.7 L 130.3,251.4 L 130.9,251.3 L 131.5,252.0 L 131.9,252.2 L 132.4,252.5 L 132.6,252.4 L 132.7,252.2 L 132.6,251.8 L 132.2,251.2 L 132.2,250.9 L 132.5,250.4 L 132.8,250.1 L 132.7,249.3 L 133.3,248.5 L 133.5,247.7 L 133.8,247.2 L 134.0,246.0 L 134.3,245.1 L 134.0,243.7 L 134.1,243.2 L 133.7,242.4 L 133.5,241.0 L 133.4,240.5 L 133.2,240.1 L 132.6,239.6 L 132.3,239.4 L 131.8,239.3 L 131.4,239.6 L 131.0,239.7 L 130.1,240.3 L 128.6,241.3 L 128.2,241.7 L 128.5,243.0 L 128.4,243.4 L 128.8,245.6 L 129.1,246.0 L 129.7,246.7 L 130.2,247.6 L 130.3,247.9 L 130.0,248.5 L 129.9,249.4 L 129.7,249.6 L 129.8,249.9 L 128.5,251.6 L 127.8,252.2 L 127.3,252.4 L 126.6,253.0 L 126.1,253.2 L 125.4,253.8 L 125.1,254.3 L 125.0,254.1 L 125.0,253.8 L 125.1,253.3 L 125.2,252.4 L 125.3,252.1 L 125.1,251.2 L 124.3,249.3 L 123.5,247.0 L 123.7,246.4 L 123.9,246.0 L 123.9,245.8 L 124.4,245.4 L 124.6,245.1 L 124.0,244.4 L 122.7,243.2 L 122.2,242.9 L 121.6,243.0 L 121.4,242.9 L 121.2,242.6 L 121.2,242.1 L 121.3,242.0 L 121.7,242.0 L 122.0,241.6 L 122.1,241.2 L 122.4,241.0 L 122.4,240.5 L 122.3,240.2 L 121.2,239.7 L 120.9,239.4 L 120.5,239.3 L 119.5,239.5 L 119.1,239.8 L 118.4,240.9 L 118.0,241.0 L 117.6,240.1 L 117.8,239.5 L 117.5,238.6 L 117.6,238.3 L 117.8,237.8 L 117.9,237.3 L 117.5,236.8 L 117.5,235.9 L 118.0,235.2 L 118.2,234.8 L 118.5,234.4 L 118.8,234.5 L 118.8,234.5 L 118.7,234.1 L 119.1,233.7 L 120.8,232.8 L 121.8,232.5 L 122.1,232.6 L 123.3,232.9 L 123.7,233.1 L 124.6,233.2 L 125.1,233.4 L 126.1,233.4 L 127.8,233.7 L 128.8,233.8 L 129.8,233.9 L 130.2,233.8 L 130.5,233.5 L 131.1,233.4 L 131.2,233.1 L 132.0,232.2 L 133.4,231.7 L 133.6,231.5 L 133.5,231.1 L 133.8,230.8 L 133.9,230.3 L 133.8,228.9 L 133.8,228.1 L 134.0,227.6 L 134.6,226.6 L 135.1,226.4 L 135.5,226.0 L 135.3,224.9 L 134.8,224.1 L 134.6,223.8 L 133.7,223.8 L 133.6,223.6 L 133.7,222.6 L 133.7,222.4 L 134.0,222.2 L 134.2,222.3 L 134.4,222.3 L 134.5,222.4 L 134.8,222.3 L 135.0,222.4 L 135.1,223.0 L 135.6,224.0 L 135.9,224.2 L 136.2,224.1 L 136.6,223.7 L 136.7,223.3 L 136.4,221.2 L 136.0,220.3 L 135.8,220.3 L 135.5,220.7 L 135.3,220.8 L 135.0,222.0 L 134.7,222.1 L 134.4,222.2 L 133.8,221.9 L 133.5,220.3 L 133.5,219.6 L 133.4,219.1 L 133.3,219.0 L 133.3,218.2 L 132.9,217.6 L 132.6,216.4 L 132.6,215.6 L 132.5,215.0 L 132.5,213.8 L 132.8,213.1 L 132.8,212.7 L 132.8,212.6 L 132.6,212.4 L 133.0,210.9 L 133.2,210.3 L 133.7,209.9 L 134.4,208.9 L 135.1,207.5 L 135.4,207.2 L 135.7,206.3 L 135.8,205.6 L 136.0,204.4 L 136.0,204.0 L 136.5,202.5 L 136.5,202.3" fill="none" stroke="black" stroke-width="2"/>
</svg>