<?xml version="1.0" encoding="UTF-8"?>
<svg width="400" height="400" viewBox="0 0 400 400" xmlns="http://www.w3.org/2000/svg">
  <rect width="400" height="400" fill="white"/>
  <path d="M 198.9,258.5 L 199.0,258.4 L 198.8,256.9 L 198.5,256.3 L 198.6,255.8 L 198.9,255.0 L 198.8,254.6 L 197.7,254.1 L 197.8,253.3 L 197.7,252.9 L 198.1,251.9 L 198.6,249.8 L 199.3,248.4 L 199.6,247.9 L 199.4,246.9 L 198.8,247.0 L 198.1,247.4 L 198.0,247.2 L 197.5,246.1 L 198.0,245.0 L 197.6,243.1 L 197.4,239.7 L 197.0,239.2 L 196.9,237.7 L 197.3,236.3 L 197.5,232.6 L 197.1,231.8 L 197.2,230.1 L 197.5,228.7 L 197.6,226.7 L 197.4,224.7 L 197.6,223.7 L 197.0,219.5 L 196.5,218.2 L 196.1,217.9 L 196.4,217.4 L 197.3,216.1 L 197.3,213.7 L 197.5,213.2 L 197.6,212.4 L 197.7,212.0 L 197.5,211.2 L 197.3,210.8 L 197.4,209.9 L 197.0,208.1 L 196.6,207.0 L 196.5,206.0 L 197.2,204.5 L 197.1,203.0 L 196.9,201.1 L 196.6,199.9 L 196.6,199.9 L 196.5,199.3 L 196.4,198.8 L 196.7,197.9 L 196.6,197.3 L 196.1,196.7 L 195.5,194.9 L 195.2,190.7 L 194.7,186.1 L 194.9,179.5 L 194.7,177.2 L 194.3,173.2 L 193.7,172.6 L 192.2,172.6 L 189.1,171.0 L 188.1,170.2 L 186.9,169.7 L 183.8,167.1 L 182.5,166.0 L 181.6,164.7 L 181.0,163.6 L 180.7,162.2 L 179.8,161.0 L 179.4,159.8 L 178.4,158.9 L 177.9,157.9 L 176.0,152.7 L 175.5,151.8 L 175.0,150.0 L 174.6,147.4 L 172.8,145.3 L 172.4,144.1 L 172.1,141.8 L 171.6,140.4 L 171.6,140.0 L 171.1,138.1 L 171.1,136.4 L 170.4,135.8 L 168.9,135.6 L 167.9,134.5 L 166.8,134.4 L 164.9,134.5 L 163.9,134.2 L 163.5,133.9 L 162.1,132.7 L 160.7,131.2 L 158.7,127.9 L 158.2,126.4 L 157.9,125.1 L 157.8,124.0 L 158.4,122.4 L 158.0,120.8 L 157.5,118.3 L 156.9,117.4 L 154.0,114.8 L 153.1,112.8 L 152.6,111.2 L 151.9,107.4 L 151.0,105.6 L 149.5,101.8 L 148.7,100.5 L 147.8,99.5 L 146.7,97.1 L 146.1,96.3 L 145.4,96.0 L 144.9,95.7 L 144.4,95.0 L 144.1,94.0 L 143.7,92.1 L 141.8,88.3 L 141.4,85.9 L 140.8,84.6 L 140.0,83.4 L 139.5,82.2 L 139.3,81.5 L 138.6,79.2 L 137.9,77.8 L 137.5,77.1 L 134.7,74.8 L 133.9,73.6 L 133.6,72.6 L 133.2,71.7 L 132.7,70.3 L 132.7,69.4 L 133.1,68.5 L 133.9,67.6 L 135.1,66.6 L 136.3,65.9 L 138.2,65.0 L 139.0,64.1 L 139.1,63.2 L 139.0,62.2 L 137.8,61.4 L 136.7,60.9 L 135.7,61.1 L 135.3,60.7 L 135.2,60.2 L 134.5,59.1 L 134.1,58.7 L 133.2,58.8 L 132.4,57.9 L 130.7,56.9 L 130.7,56.9 L 166.3,40.0 L 166.5,40.1 L 166.9,40.9 L 167.6,41.3 L 170.8,42.4 L 171.7,43.1 L 173.3,46.2 L 173.7,46.5 L 174.7,46.8 L 175.4,47.7 L 175.6,48.0 L 176.2,49.2 L 176.6,51.0 L 177.2,52.2 L 177.5,52.5 L 178.2,52.8 L 179.4,54.4 L 180.3,55.0 L 183.1,58.2 L 183.8,59.7 L 184.6,60.9 L 186.4,62.2 L 186.5,62.9 L 188.3,65.0 L 189.4,67.0 L 190.9,68.0 L 191.7,69.1 L 192.1,70.9 L 192.2,71.2 L 194.9,73.9 L 195.4,74.4 L 195.9,75.4 L 196.3,76.7 L 196.3,77.8 L 196.6,79.3 L 196.7,79.9 L 197.4,80.2 L 198.0,80.6 L 198.8,83.2 L 199.6,84.3 L 199.8,86.2 L 200.1,86.7 L 200.3,87.6 L 200.2,88.0 L 200.3,88.9 L 200.4,89.1 L 200.9,89.5 L 201.0,89.9 L 200.8,90.2 L 200.8,90.7 L 201.4,90.8 L 202.1,91.2 L 202.8,92.2 L 203.6,93.1 L 204.5,94.0 L 205.2,96.5 L 206.2,98.5 L 206.9,98.9 L 208.8,101.5 L 209.8,102.0 L 210.1,102.5 L 210.3,103.4 L 210.8,103.7 L 211.6,104.5 L 211.7,105.7 L 212.0,106.8 L 213.2,107.4 L 214.2,108.1 L 214.6,108.7 L 216.3,110.6 L 216.7,111.4 L 217.4,111.7 L 217.7,112.0 L 217.9,112.5 L 218.2,112.8 L 218.3,113.6 L 217.4,113.8 L 217.1,114.2 L 217.2,115.3 L 217.7,116.2 L 218.8,116.9 L 219.9,117.3 L 220.8,117.9 L 220.9,119.0 L 220.7,119.4 L 219.8,120.0 L 218.4,121.6 L 217.8,121.7 L 216.8,121.5 L 216.1,121.4 L 215.1,121.1 L 214.3,121.2 L 214.2,121.5 L 213.6,122.3 L 213.8,123.7 L 213.5,125.0 L 212.7,125.6 L 212.7,126.1 L 211.5,128.7 L 211.1,129.3 L 211.8,129.9 L 212.1,130.9 L 212.8,130.8 L 214.1,131.5 L 215.0,131.6 L 215.8,131.8 L 216.1,131.7 L 216.7,131.0 L 217.4,130.7 L 218.1,130.6 L 219.7,130.2 L 220.5,129.8 L 221.9,129.6 L 221.9,129.0 L 222.7,128.0 L 223.9,127.3 L 225.7,127.1 L 226.6,126.7 L 226.7,126.2 L 230.1,122.1 L 230.6,122.0 L 231.8,120.7 L 232.7,120.2 L 233.6,120.1 L 235.3,118.9 L 237.9,115.4 L 238.8,113.6 L 239.5,112.9 L 241.6,111.2 L 243.5,110.0 L 244.6,109.4 L 245.7,109.2 L 246.4,108.8 L 247.0,108.2 L 248.4,107.1 L 249.1,106.9 L 250.8,104.9 L 251.3,104.7 L 252.4,103.5 L 253.7,102.9 L 254.7,102.3 L 255.8,102.0 L 256.5,102.1 L 257.9,101.2 L 259.1,100.5 L 260.0,100.2 L 261.8,99.9 L 263.8,100.7 L 265.5,101.3 L 265.9,101.2 L 267.0,101.6 L 268.4,102.5 L 269.1,103.9 L 269.3,104.8 L 268.8,106.2 L 268.9,106.5 L 268.1,107.9 L 268.3,109.8 L 268.7,110.1 L 268.7,110.4 L 268.3,111.1 L 267.6,113.0 L 266.7,113.7 L 265.6,114.1 L 265.0,114.8 L 263.8,115.5 L 263.2,116.1 L 262.3,118.0 L 261.7,120.0 L 260.8,123.9 L 259.9,124.7 L 258.7,124.9 L 258.4,125.0 L 258.5,125.8 L 258.5,126.7 L 257.8,128.1 L 256.3,128.6 L 254.9,130.8 L 253.6,131.1 L 252.2,131.6 L 251.4,132.0 L 250.6,132.7 L 249.9,133.2 L 249.5,133.8 L 249.1,133.9 L 246.9,134.0 L 246.0,134.5 L 244.9,136.5 L 244.0,137.5 L 242.8,138.3 L 242.0,139.0 L 241.9,139.2 L 239.8,140.0 L 238.6,140.8 L 238.0,142.0 L 237.4,142.7 L 235.7,144.1 L 235.1,144.8 L 234.7,145.7 L 233.2,147.2 L 232.0,148.0 L 231.3,148.7 L 230.3,150.4 L 230.1,151.3 L 229.9,154.5 L 229.5,156.1 L 229.7,157.9 L 229.8,159.0 L 229.4,161.3 L 228.9,162.0 L 227.7,162.6 L 227.3,163.0 L 226.1,165.2 L 225.2,165.9 L 224.4,167.2 L 224.3,167.9 L 224.7,169.9 L 224.4,170.8 L 224.7,171.2 L 224.9,172.4 L 225.6,173.0 L 225.8,174.0 L 225.9,174.6 L 226.5,174.9 L 227.0,175.4 L 226.9,175.9 L 226.6,176.0 L 226.1,176.7 L 226.1,177.4 L 227.0,177.8 L 227.5,177.7 L 228.0,176.9 L 229.8,176.5 L 230.3,176.6 L 231.2,177.3 L 231.5,177.7 L 232.8,179.2 L 233.4,179.6 L 234.8,180.7 L 235.3,182.5 L 235.0,183.1 L 234.2,183.3 L 233.9,183.5 L 233.9,183.8 L 234.1,184.6 L 235.0,185.7 L 235.5,186.6 L 235.4,187.6 L 235.7,190.2 L 236.6,191.4 L 236.7,192.0 L 236.6,192.4 L 236.9,192.9 L 236.9,194.3 L 236.9,194.4 L 236.9,194.8 L 237.5,196.9 L 237.5,198.2 L 237.3,199.2 L 237.0,199.3 L 236.5,198.6 L 236.3,198.6 L 236.0,198.9 L 236.1,199.8 L 236.5,200.1 L 237.0,204.3 L 236.9,205.1 L 236.3,206.0 L 236.4,206.7 L 236.2,207.2 L 235.2,207.5 L 234.5,206.9 L 233.9,205.0 L 233.3,204.3 L 232.8,204.4 L 232.0,205.7 L 231.7,205.8 L 231.1,203.8 L 230.7,203.6 L 230.2,203.5 L 229.6,203.1 L 229.2,203.0 L 227.7,203.1 L 225.9,204.2 L 224.9,205.5 L 224.6,206.2 L 224.1,207.1 L 224.2,208.2 L 224.8,209.2 L 224.9,210.4 L 225.9,210.8 L 226.6,211.5 L 226.7,212.2 L 226.0,213.3 L 226.0,213.8 L 226.6,214.8 L 226.7,215.4 L 226.5,216.2 L 226.4,216.6 L 226.7,216.4 L 227.5,215.0 L 227.4,214.4 L 227.6,214.0 L 227.8,213.3 L 228.3,212.4 L 228.7,212.4 L 229.1,213.1 L 229.3,213.9 L 230.0,214.5 L 230.5,214.4 L 230.8,214.7 L 231.1,215.7 L 230.4,216.6 L 230.1,217.3 L 229.6,218.0 L 229.5,219.3 L 229.9,219.8 L 230.0,220.5 L 230.3,220.9 L 230.8,220.9 L 231.3,221.4 L 231.7,221.9 L 231.9,222.7 L 231.6,224.4 L 231.6,225.7 L 232.0,226.2 L 232.9,226.0 L 235.0,225.7 L 236.4,224.8 L 236.6,223.8 L 236.7,222.6 L 237.0,222.2 L 238.2,222.1 L 238.9,222.6 L 239.1,223.0 L 239.4,225.5 L 239.7,226.3 L 240.1,227.6 L 240.0,228.2 L 240.0,228.9 L 239.8,230.3 L 239.9,231.9 L 239.6,232.9 L 240.0,233.7 L 240.4,234.0 L 240.6,234.9 L 241.1,236.4 L 241.2,237.1 L 241.0,237.6 L 240.9,238.2 L 240.5,239.1 L 240.2,239.1 L 240.0,239.4 L 239.9,240.4 L 239.4,241.2 L 239.1,242.9 L 239.0,244.4 L 238.4,246.6 L 237.9,246.9 L 237.4,247.8 L 237.6,249.5 L 237.7,250.8 L 237.7,250.9 L 237.6,252.0 L 236.9,253.0 L 236.6,253.5 L 235.3,254.5 L 234.4,255.8 L 233.5,258.3 L 232.9,261.5 L 233.7,266.4 L 233.1,268.9 L 233.0,271.4 L 233.2,273.2 L 233.9,275.6 L 233.9,276.9 L 233.3,278.0 L 233.1,278.8 L 233.1,279.3 L 233.2,279.6 L 233.7,280.0 L 234.3,281.2 L 234.4,282.3 L 233.7,283.4 L 233.5,283.8 L 233.0,284.6 L 233.2,285.6 L 233.6,286.0 L 233.9,286.0 L 234.3,287.7 L 234.4,288.4 L 233.9,289.9 L 232.5,291.4 L 229.7,293.5 L 229.1,294.4 L 228.8,295.9 L 227.8,299.4 L 227.3,300.2 L 226.1,300.4 L 226.0,300.4 L 225.1,300.0 L 224.7,299.4 L 223.4,295.7 L 222.9,295.1 L 222.4,295.1 L 221.8,295.5 L 221.1,296.4 L 220.5,298.1 L 220.4,298.8 L 220.9,299.3 L 221.0,300.5 L 220.3,302.5 L 219.4,304.0 L 219.3,304.6 L 219.8,308.3 L 220.8,310.3 L 221.2,310.9 L 223.3,309.9 L 224.5,309.6 L 225.4,309.8 L 225.3,310.4 L 225.0,310.8 L 224.6,311.9 L 223.7,312.6 L 221.2,313.0 L 220.3,313.5 L 218.6,314.1 L 215.2,314.8 L 213.5,314.8 L 212.6,315.3 L 212.1,315.9 L 210.2,317.0 L 209.1,318.2 L 208.5,318.3 L 207.0,317.9 L 206.6,318.1 L 206.1,318.1 L 205.8,318.3 L 206.0,318.8 L 206.1,319.1 L 205.8,319.0 L 205.4,318.8 L 204.1,320.3 L 203.4,322.0 L 203.0,323.6 L 202.2,324.5 L 201.7,324.6 L 200.7,324.9 L 200.5,325.1 L 200.4,325.2 L 199.9,325.5 L 198.6,325.6 L 197.3,325.6 L 196.4,326.1 L 195.8,326.3 L 194.8,325.7 L 194.1,325.2 L 193.2,324.8 L 191.8,325.0 L 190.5,325.9 L 189.3,326.0 L 188.3,326.4 L 185.7,327.9 L 184.9,328.9 L 185.0,329.3 L 188.1,330.1 L 188.9,331.0 L 189.1,331.9 L 188.3,334.7 L 186.8,336.5 L 185.6,337.6 L 185.0,338.6 L 184.6,340.0 L 183.5,342.2 L 183.1,343.7 L 182.2,345.1 L 181.1,347.3 L 180.3,348.4 L 179.0,348.5 L 178.3,348.6 L 177.6,348.9 L 176.7,349.8 L 175.8,350.2 L 175.3,350.7 L 174.6,352.7 L 173.8,353.4 L 173.2,354.2 L 172.7,354.2 L 173.0,356.9 L 172.7,357.3 L 170.7,358.4 L 170.6,358.7 L 170.4,359.1 L 170.1,359.7 L 169.9,360.0 L 169.8,359.7 L 169.8,358.9 L 169.8,358.7 L 169.7,358.3 L 168.9,358.3 L 168.1,358.0 L 166.1,355.9 L 165.9,354.2 L 166.2,353.3 L 167.2,351.2 L 168.1,348.1 L 167.7,347.3 L 167.6,346.6 L 167.4,346.2 L 167.5,345.6 L 167.7,345.1 L 167.6,342.3 L 167.4,339.7 L 167.9,338.5 L 167.7,337.2 L 169.8,333.6 L 170.0,332.6 L 170.2,331.4 L 170.8,329.9 L 171.2,327.6 L 171.7,326.8 L 172.2,326.0 L 173.5,325.1 L 176.0,322.5 L 176.4,321.6 L 177.1,320.6 L 178.5,320.1 L 180.7,318.6 L 181.6,317.8 L 182.1,317.5 L 183.3,317.8 L 183.9,318.4 L 184.2,319.1 L 184.4,319.3 L 185.0,319.3 L 186.8,319.6 L 187.0,319.8 L 186.9,319.9 L 186.9,320.3 L 187.9,320.1 L 188.8,318.8 L 190.5,318.7 L 191.2,318.2 L 191.1,317.3 L 190.3,316.3 L 190.0,315.7 L 191.1,314.6 L 191.6,313.5 L 192.0,313.5 L 192.7,313.9 L 194.9,313.6 L 195.4,313.8 L 196.0,314.2 L 196.6,315.0 L 196.5,315.5 L 196.0,315.7 L 195.8,316.2 L 195.9,317.0 L 196.2,317.2 L 197.1,317.0 L 197.3,316.7 L 197.3,316.0 L 197.6,316.0 L 198.1,316.4 L 198.8,316.3 L 199.3,316.4 L 200.8,315.6 L 201.5,314.5 L 202.1,314.5 L 202.7,314.8 L 205.9,314.3 L 206.9,314.3 L 207.6,313.9 L 208.9,313.5 L 209.9,312.9 L 211.9,312.5 L 213.2,311.5 L 213.2,309.4 L 212.9,308.5 L 211.8,307.6 L 211.6,306.1 L 211.9,305.6 L 211.8,304.5 L 211.2,303.8 L 210.7,303.5 L 208.9,303.7 L 207.3,302.6 L 207.0,302.3 L 206.8,302.1 L 205.8,301.8 L 204.8,302.5 L 203.0,302.1 L 202.0,302.2 L 200.9,302.7 L 200.2,303.7 L 199.5,303.9 L 198.0,304.4 L 197.7,304.7 L 197.1,305.2 L 195.3,306.9 L 193.7,307.2 L 192.9,307.0 L 192.2,307.0 L 191.4,306.4 L 191.2,305.9 L 191.3,305.6 L 191.3,305.0 L 190.7,304.4 L 189.1,303.6 L 188.5,303.1 L 187.9,302.0 L 187.8,300.8 L 188.4,298.9 L 188.4,298.0 L 188.4,297.5 L 188.7,296.7 L 188.6,296.0 L 188.3,295.6 L 188.5,295.4 L 188.8,295.3 L 188.6,294.1 L 188.9,293.1 L 189.4,292.2 L 189.3,291.3 L 188.8,290.5 L 188.9,289.8 L 188.8,289.6 L 188.8,289.3 L 189.1,289.6 L 189.1,289.9 L 189.4,290.3 L 189.5,290.2 L 189.8,289.1 L 189.8,288.7 L 189.2,288.6 L 189.1,287.8 L 189.7,285.5 L 190.1,284.8 L 190.4,284.3 L 190.6,283.7 L 190.9,283.1 L 191.0,280.9 L 191.3,280.1 L 190.7,278.1 L 190.9,277.3 L 191.8,275.9 L 192.2,273.8 L 192.0,272.5 L 192.2,271.9 L 192.2,271.4 L 192.9,270.6 L 194.3,269.7 L 194.9,268.1 L 195.3,265.8 L 196.1,264.2 L 196.9,263.3 L 197.3,263.0 L 197.8,262.3 L 198.1,260.6 L 198.9,258.5" fill="none" stroke="black" stroke-width="2"/>
</svg>