<?xml version="1.0" encoding="UTF-8"?>
<svg width="400" height="400" viewBox="0 0 400 400" xmlns="http://www.w3.org/2000/svg">
  <rect width="400" height="400" fill="white"/>
  <path d="M 47.2,206.7 L 46.7,206.3 L 46.4,204.9 L 46.5,204.0 L 47.0,203.3 L 48.2,202.2 L 48.7,200.5 L 49.4,199.8 L 51.2,199.2 L 56.7,196.9 L 60.5,194.7 L 63.7,193.6 L 70.4,190.3 L 73.0,189.3 L 77.0,186.4 L 77.9,185.6 L 79.2,184.7 L 80.2,183.4 L 81.3,182.2 L 82.9,181.3 L 86.0,180.0 L 89.3,177.6 L 91.0,176.6 L 92.7,175.3 L 95.5,173.7 L 98.6,172.8 L 98.7,172.7 L 99.6,172.2 L 102.8,171.9 L 104.6,171.5 L 107.0,170.2 L 111.1,169.3 L 112.0,168.8 L 112.8,168.5 L 113.4,167.9 L 114.1,167.6 L 115.3,167.6 L 116.4,168.2 L 117.3,168.4 L 118.6,167.6 L 120.0,167.2 L 122.1,165.9 L 123.4,164.6 L 125.1,164.2 L 126.5,165.3 L 127.0,165.1 L 127.3,164.0 L 128.2,164.2 L 129.9,163.7 L 131.1,164.3 L 132.1,164.3 L 133.5,165.2 L 133.9,164.9 L 132.8,163.9 L 131.3,162.7 L 131.1,161.9 L 131.4,161.5 L 135.1,160.9 L 136.0,161.3 L 137.7,162.8 L 137.9,163.9 L 138.2,164.3 L 138.8,164.0 L 138.7,163.2 L 140.1,162.9 L 141.3,162.9 L 141.7,163.0 L 142.2,162.4 L 142.4,161.8 L 143.0,161.3 L 144.7,160.9 L 145.3,161.1 L 146.5,160.8 L 147.6,160.9 L 148.3,160.6 L 148.1,158.9 L 148.4,157.3 L 148.8,156.9 L 151.3,156.3 L 151.9,155.4 L 152.5,155.3 L 153.4,155.5 L 154.3,155.9 L 156.0,155.5 L 158.0,155.9 L 158.9,155.5 L 158.6,152.8 L 158.8,151.4 L 159.7,150.6 L 160.8,150.0 L 161.2,149.6 L 162.8,149.3 L 165.5,148.9 L 167.1,149.7 L 167.8,149.4 L 168.7,146.9 L 171.5,145.8 L 172.0,144.7 L 173.8,144.1 L 173.9,142.7 L 174.8,142.5 L 175.6,142.8 L 179.4,142.8 L 180.0,143.0 L 181.4,142.6 L 182.6,141.5 L 184.2,140.8 L 185.2,140.8 L 187.5,141.0 L 189.1,140.6 L 190.1,140.0 L 190.7,140.0 L 190.9,140.2 L 191.8,141.6 L 193.1,142.4 L 195.5,141.9 L 195.7,142.4 L 195.7,143.3 L 194.3,144.9 L 194.6,145.3 L 196.6,144.1 L 198.6,143.6 L 199.2,143.4 L 199.9,143.5 L 200.6,144.6 L 202.1,144.9 L 204.1,146.6 L 205.7,147.7 L 208.2,148.3 L 212.6,151.1 L 214.3,151.4 L 217.8,150.7 L 219.8,151.9 L 220.2,151.6 L 219.8,150.1 L 219.7,149.4 L 219.0,147.6 L 218.8,146.3 L 219.0,146.1 L 219.8,145.4 L 220.5,146.6 L 221.8,147.4 L 222.4,147.2 L 223.1,146.6 L 223.5,146.6 L 225.1,147.2 L 225.9,148.7 L 226.6,149.0 L 227.7,148.6 L 228.6,148.1 L 229.8,147.6 L 233.1,143.4 L 235.3,141.7 L 237.9,140.6 L 240.0,140.3 L 243.9,139.5 L 245.0,139.6 L 246.7,139.2 L 248.3,138.4 L 249.0,138.0 L 250.1,137.7 L 250.6,137.8 L 251.7,137.8 L 254.9,138.1 L 256.1,137.9 L 258.0,137.7 L 259.9,138.5 L 260.6,138.2 L 261.8,137.5 L 263.4,137.2 L 263.9,137.1 L 264.7,136.1 L 267.8,134.8 L 268.7,134.7 L 269.8,135.1 L 271.2,137.4 L 272.0,137.7 L 275.6,136.9 L 276.7,137.2 L 278.5,138.9 L 279.9,139.0 L 283.9,138.8 L 285.1,138.5 L 286.2,137.6 L 291.5,136.4 L 292.2,136.5 L 294.2,137.6 L 295.4,137.3 L 303.4,137.2 L 303.8,137.0 L 305.8,136.9 L 306.3,136.8 L 312.2,137.2 L 314.4,137.6 L 318.8,139.2 L 321.7,138.7 L 323.4,138.8 L 325.3,139.6 L 326.3,139.7 L 328.8,140.2 L 330.5,140.8 L 333.5,141.4 L 335.5,141.6 L 338.5,142.3 L 341.2,143.7 L 344.9,145.3 L 346.5,145.7 L 347.5,145.6 L 348.3,144.5 L 350.0,144.1 L 351.7,144.3 L 353.3,145.4 L 353.6,145.6 L 355.2,146.2 L 356.4,149.2 L 357.0,151.7 L 356.3,152.8 L 356.5,153.7 L 357.0,153.5 L 358.1,151.1 L 359.0,150.1 L 359.9,149.5 L 360.0,149.4 L 354.8,177.6 L 354.7,177.9 L 352.1,178.3 L 350.8,179.0 L 349.4,179.2 L 347.6,178.5 L 346.5,178.5 L 343.4,179.2 L 341.8,178.8 L 340.6,178.2 L 338.8,177.7 L 337.8,177.6 L 337.0,176.7 L 335.8,176.2 L 335.3,173.8 L 334.7,173.4 L 333.4,173.1 L 331.3,173.1 L 330.9,173.6 L 328.9,174.5 L 327.5,174.3 L 326.3,174.5 L 325.3,176.0 L 324.0,177.3 L 322.6,177.9 L 320.9,179.7 L 319.3,180.1 L 316.6,179.6 L 315.7,179.8 L 314.0,182.6 L 313.4,184.4 L 312.6,185.3 L 311.8,185.7 L 311.1,186.1 L 310.8,187.5 L 310.0,187.8 L 307.2,187.5 L 305.7,187.7 L 304.3,187.7 L 303.6,188.3 L 298.4,189.1 L 297.7,189.6 L 297.1,189.7 L 295.9,189.6 L 295.0,190.2 L 293.6,190.5 L 292.8,190.6 L 292.1,190.4 L 291.4,190.4 L 290.5,191.0 L 289.4,191.4 L 288.0,192.5 L 286.7,192.9 L 285.8,192.5 L 284.9,191.9 L 283.6,191.9 L 280.6,192.6 L 278.8,192.3 L 277.7,191.6 L 276.9,191.7 L 276.5,192.4 L 275.5,192.7 L 274.7,193.5 L 274.6,193.5 L 273.5,193.9 L 272.2,193.6 L 271.4,193.9 L 270.0,193.7 L 268.5,193.9 L 267.6,195.0 L 266.5,195.3 L 265.3,196.0 L 264.1,197.7 L 263.7,198.5 L 262.6,199.8 L 260.6,201.0 L 258.6,201.6 L 257.0,201.6 L 256.3,202.0 L 254.9,202.4 L 254.3,202.3 L 254.1,202.5 L 253.4,202.6 L 252.2,203.8 L 250.3,204.2 L 248.3,205.0 L 247.0,205.9 L 245.9,205.9 L 243.3,206.5 L 241.6,206.7 L 240.7,207.1 L 239.8,207.3 L 237.4,208.5 L 236.7,209.2 L 235.8,209.8 L 235.0,210.7 L 234.0,211.3 L 232.7,211.2 L 231.2,210.4 L 230.4,210.6 L 231.0,212.2 L 231.0,212.8 L 229.8,213.5 L 227.5,214.0 L 226.0,213.4 L 225.5,213.4 L 224.8,213.8 L 224.3,215.6 L 223.8,215.8 L 222.8,216.9 L 222.3,217.2 L 221.4,217.2 L 220.8,217.4 L 220.5,218.5 L 219.8,218.7 L 217.6,218.0 L 217.4,217.9 L 215.5,218.5 L 214.4,218.4 L 212.7,218.6 L 211.8,218.2 L 211.4,219.2 L 210.3,219.9 L 208.0,220.6 L 204.9,220.1 L 203.1,220.5 L 201.9,220.9 L 199.7,220.4 L 198.5,220.7 L 197.6,221.7 L 196.8,222.3 L 195.0,222.5 L 190.6,223.1 L 189.7,222.9 L 188.9,222.9 L 187.9,224.0 L 187.1,224.3 L 186.5,224.1 L 185.8,224.2 L 184.6,224.6 L 182.9,225.8 L 181.0,226.3 L 178.5,226.0 L 175.5,226.7 L 174.7,227.5 L 173.6,228.3 L 171.3,229.0 L 170.0,230.1 L 168.1,230.5 L 167.4,230.5 L 166.0,231.4 L 165.2,231.2 L 165.1,231.3 L 163.7,230.9 L 161.5,228.4 L 159.9,226.9 L 159.0,225.9 L 157.8,225.0 L 157.2,225.0 L 155.4,227.3 L 156.0,229.6 L 156.1,230.6 L 155.4,232.0 L 155.1,232.3 L 151.7,236.0 L 150.3,236.9 L 149.1,237.1 L 145.9,238.0 L 144.9,238.6 L 143.7,238.9 L 142.6,239.5 L 141.5,241.2 L 140.0,240.2 L 139.1,240.2 L 135.9,241.0 L 132.8,239.5 L 131.9,239.4 L 130.4,239.5 L 129.6,239.9 L 128.2,241.6 L 127.9,241.9 L 127.3,241.4 L 126.6,239.4 L 124.3,236.9 L 122.4,235.7 L 121.6,234.7 L 121.0,234.4 L 119.5,234.4 L 118.3,235.0 L 115.4,238.5 L 113.7,239.8 L 112.5,240.3 L 106.5,241.7 L 105.1,242.6 L 104.3,243.4 L 103.5,245.3 L 102.6,245.6 L 99.5,245.8 L 96.1,245.7 L 92.9,245.1 L 89.2,243.8 L 88.6,243.4 L 87.6,243.2 L 86.7,244.7 L 86.4,245.5 L 87.0,245.8 L 88.1,245.9 L 88.9,245.8 L 90.9,246.3 L 92.5,247.3 L 93.3,248.4 L 93.8,250.9 L 93.9,252.2 L 94.4,252.8 L 94.6,253.8 L 94.2,254.7 L 92.5,255.3 L 91.8,256.4 L 91.7,258.1 L 90.2,260.1 L 89.2,260.4 L 88.3,260.0 L 87.8,260.0 L 86.9,262.3 L 85.4,263.4 L 83.5,264.0 L 82.4,264.8 L 81.1,265.3 L 79.1,264.4 L 78.1,264.6 L 75.4,263.1 L 84.2,261.1 L 84.9,260.0 L 84.9,257.9 L 85.7,257.2 L 85.8,256.0 L 86.3,255.2 L 87.7,254.7 L 87.9,254.0 L 87.2,252.5 L 87.2,251.7 L 87.6,251.2 L 88.3,251.7 L 88.9,251.4 L 89.5,250.4 L 89.4,249.8 L 88.9,249.6 L 88.0,249.8 L 87.1,250.3 L 83.7,249.0 L 81.9,247.8 L 81.1,246.7 L 80.1,244.9 L 79.7,243.5 L 79.9,242.7 L 79.6,240.4 L 80.0,236.7 L 79.3,234.9 L 77.0,232.6 L 73.5,232.4 L 71.0,231.8 L 70.2,230.9 L 69.4,228.9 L 68.4,228.0 L 65.8,226.4 L 65.2,225.6 L 65.1,224.3 L 65.3,223.5 L 66.8,223.0 L 67.2,222.4 L 67.2,220.1 L 67.6,219.5 L 70.4,217.3 L 73.9,215.6 L 74.7,214.9 L 74.5,214.4 L 73.3,214.1 L 70.0,213.8 L 69.4,213.1 L 69.3,212.2 L 69.8,211.8 L 71.8,211.2 L 72.9,210.3 L 75.9,209.7 L 76.6,209.0 L 76.8,208.5 L 76.6,208.2 L 75.2,207.9 L 71.8,208.1 L 67.7,207.9 L 65.0,208.1 L 63.0,208.6 L 61.5,209.6 L 59.9,210.5 L 57.3,211.1 L 54.5,211.2 L 53.9,210.8 L 53.8,209.7 L 54.0,209.1 L 53.8,207.7 L 53.0,207.3 L 52.4,207.0 L 51.4,207.2 L 48.8,210.3 L 46.6,211.8 L 44.2,214.0 L 43.8,215.1 L 43.1,216.1 L 42.0,216.5 L 40.7,216.5 L 40.0,216.3 L 40.1,215.9 L 40.5,215.6 L 41.5,215.3 L 43.0,213.1 L 43.5,211.4 L 44.9,210.8 L 45.1,210.3 L 44.5,209.9 L 42.8,209.4 L 43.3,208.8 L 45.2,208.4 L 45.9,208.7 L 46.8,209.4 L 47.2,209.2 L 47.5,208.6 L 47.9,207.8 L 47.8,207.2 L 47.2,206.7" fill="none" stroke="black" stroke-width="2"/>
</svg>