<?xml version="1.0" encoding="UTF-8"?>
<svg width="400" height="400" viewBox="0 0 400 400" xmlns="http://www.w3.org/2000/svg">
  <rect width="400" height="400" fill="white"/>
  <path d="M 208.5,204.0 L 210.6,202.2 L 210.9,201.7 L 211.0,201.0 L 211.6,200.9 L 211.7,200.3 L 211.6,199.6 L 211.7,199.1 L 211.6,197.1 L 212.1,195.9 L 212.6,195.0 L 213.7,194.0 L 215.7,191.4 L 216.8,189.6 L 219.6,186.6 L 220.5,185.6 L 220.6,184.1 L 220.9,183.6 L 220.9,182.6 L 220.6,181.9 L 220.7,181.6 L 221.1,180.7 L 221.2,179.3 L 221.5,178.4 L 222.1,177.7 L 222.1,176.8 L 224.7,174.9 L 225.2,173.2 L 225.3,172.0 L 225.3,171.6 L 225.2,169.9 L 225.8,168.2 L 226.2,166.9 L 226.5,166.5 L 226.5,165.1 L 226.6,164.5 L 226.5,163.6 L 226.8,162.4 L 227.4,161.1 L 227.6,159.2 L 227.6,153.9 L 227.1,153.4 L 227.2,153.0 L 227.7,152.4 L 227.5,151.8 L 227.0,151.2 L 226.8,150.4 L 226.8,149.8 L 226.8,148.9 L 227.1,147.8 L 226.9,147.3 L 226.1,146.7 L 226.1,146.2 L 226.6,145.0 L 227.1,144.6 L 227.3,143.9 L 227.5,143.8 L 227.8,143.7 L 228.1,143.2 L 228.9,143.1 L 228.9,141.8 L 229.5,141.1 L 228.7,139.6 L 228.6,137.6 L 229.2,136.7 L 229.3,136.4 L 229.7,134.5 L 229.6,133.1 L 230.5,131.4 L 231.1,130.7 L 232.8,129.7 L 232.9,128.7 L 233.4,127.9 L 233.3,126.6 L 233.7,126.3 L 233.5,126.1 L 234.0,125.0 L 236.4,123.7 L 236.8,122.9 L 237.1,120.5 L 236.5,119.3 L 236.1,116.1 L 236.3,114.8 L 237.3,112.0 L 237.3,110.5 L 236.9,107.9 L 236.6,107.0 L 236.1,103.7 L 236.1,102.3 L 236.4,101.2 L 236.4,100.0 L 236.8,99.2 L 236.9,98.7 L 237.1,97.4 L 238.9,95.6 L 239.1,95.6 L 239.8,94.6 L 240.6,94.2 L 241.0,93.8 L 241.1,93.4 L 241.1,92.5 L 240.8,91.7 L 240.7,90.7 L 241.2,90.5 L 240.6,89.3 L 240.3,89.1 L 240.5,87.6 L 240.7,86.7 L 240.9,84.7 L 241.3,83.5 L 241.3,82.3 L 241.0,80.9 L 241.5,80.1 L 241.4,78.0 L 241.6,76.7 L 241.7,75.7 L 241.2,75.4 L 241.9,74.0 L 242.2,72.9 L 242.1,72.0 L 242.2,71.5 L 242.6,70.6 L 242.3,69.1 L 243.2,66.5 L 243.0,65.1 L 243.1,64.9 L 243.4,65.0 L 243.8,65.7 L 244.3,65.4 L 244.0,64.9 L 243.6,64.8 L 243.1,63.3 L 242.4,61.6 L 242.9,60.5 L 243.6,59.5 L 244.0,57.6 L 244.3,55.2 L 244.8,52.1 L 244.7,50.2 L 245.1,48.4 L 244.9,47.4 L 244.6,47.0 L 244.4,45.7 L 243.8,44.5 L 243.6,43.4 L 243.8,43.2 L 244.0,43.2 L 244.3,42.8 L 244.2,42.0 L 243.8,41.6 L 244.2,40.5 L 244.8,40.1 L 245.3,40.0 L 246.7,40.5 L 246.9,40.5 L 247.6,40.6 L 248.8,40.7 L 249.6,41.3 L 250.3,43.1 L 250.5,45.5 L 251.0,49.4 L 251.4,51.1 L 252.3,53.2 L 252.6,54.2 L 252.5,55.2 L 252.8,55.6 L 252.8,56.9 L 252.6,57.6 L 253.0,59.4 L 253.0,60.5 L 253.1,61.3 L 253.1,62.1 L 253.6,64.3 L 253.5,65.8 L 253.8,67.4 L 254.3,67.8 L 254.5,69.2 L 254.8,69.6 L 255.2,72.4 L 255.5,73.2 L 256.0,77.1 L 256.3,78.0 L 256.5,79.6 L 255.9,82.4 L 255.3,83.8 L 255.3,84.7 L 255.2,85.2 L 255.5,85.7 L 255.6,86.3 L 256.1,86.9 L 257.5,87.4 L 258.1,87.8 L 258.3,88.8 L 258.0,89.1 L 258.6,90.4 L 258.4,91.9 L 257.6,94.8 L 257.9,96.8 L 257.6,97.0 L 257.4,97.4 L 257.7,100.2 L 258.0,101.3 L 257.7,101.5 L 257.4,100.8 L 257.1,100.7 L 256.7,101.5 L 256.9,104.4 L 257.4,105.2 L 257.3,106.0 L 255.9,107.5 L 255.7,108.6 L 255.8,109.7 L 256.2,110.2 L 256.7,110.8 L 257.3,111.4 L 256.5,116.5 L 256.6,121.0 L 256.6,121.3 L 256.1,122.9 L 256.1,123.4 L 257.1,125.6 L 257.3,127.0 L 258.3,129.1 L 258.7,131.2 L 258.8,132.9 L 258.0,134.6 L 257.9,135.1 L 257.8,135.9 L 258.7,137.0 L 258.9,137.4 L 258.6,138.7 L 258.4,139.5 L 258.1,140.3 L 257.8,140.9 L 257.5,141.8 L 257.4,143.2 L 257.2,144.7 L 257.3,146.0 L 257.1,147.6 L 256.6,149.2 L 256.6,149.8 L 255.9,152.4 L 255.7,152.9 L 254.5,155.8 L 254.2,157.7 L 253.5,158.9 L 252.9,160.6 L 252.7,161.4 L 252.9,161.7 L 254.0,162.2 L 255.3,163.2 L 256.2,164.0 L 256.9,165.0 L 256.9,165.6 L 257.2,167.4 L 257.0,168.8 L 256.7,170.4 L 255.8,173.1 L 255.0,174.2 L 252.9,176.2 L 250.8,178.2 L 249.7,181.3 L 250.0,182.8 L 250.4,183.7 L 250.6,185.0 L 250.2,186.1 L 249.1,187.4 L 248.2,189.1 L 247.7,190.9 L 246.9,192.3 L 245.3,193.7 L 243.8,195.7 L 243.5,195.9 L 243.3,195.7 L 243.0,195.4 L 242.2,195.4 L 240.2,196.4 L 239.8,197.2 L 239.8,198.1 L 240.1,198.7 L 240.4,200.1 L 241.2,201.2 L 241.5,202.7 L 241.8,205.1 L 241.4,205.7 L 240.8,207.2 L 237.0,208.0 L 236.3,209.1 L 236.3,209.9 L 237.1,210.1 L 240.1,209.8 L 240.6,209.9 L 240.8,210.6 L 240.6,211.4 L 239.6,212.4 L 238.1,213.3 L 237.0,215.0 L 237.1,215.7 L 237.0,216.1 L 236.9,217.3 L 236.5,217.6 L 236.2,218.0 L 236.5,218.5 L 238.6,218.4 L 239.5,218.6 L 240.6,219.5 L 240.9,220.6 L 241.3,221.6 L 242.6,223.2 L 243.9,222.8 L 244.9,222.6 L 245.8,223.3 L 246.0,223.8 L 245.9,224.8 L 243.0,230.0 L 242.1,231.3 L 242.0,233.1 L 242.3,233.9 L 242.4,235.1 L 242.2,235.5 L 241.8,236.5 L 241.7,238.2 L 241.3,238.6 L 241.2,239.5 L 241.8,240.7 L 242.8,242.4 L 243.4,243.0 L 244.6,245.3 L 244.7,246.1 L 244.2,249.3 L 243.6,250.8 L 243.4,252.8 L 242.5,254.5 L 241.3,255.4 L 239.5,257.3 L 239.4,257.7 L 239.2,257.8 L 239.2,258.5 L 237.5,260.2 L 236.9,261.1 L 236.9,262.6 L 235.8,267.6 L 235.1,268.8 L 234.5,270.6 L 233.6,271.5 L 231.4,272.5 L 230.7,273.4 L 229.5,274.9 L 229.2,276.3 L 229.2,276.6 L 228.5,278.3 L 227.5,280.4 L 226.0,281.5 L 224.0,282.6 L 223.1,283.4 L 221.4,285.4 L 220.8,285.6 L 219.9,285.3 L 219.2,285.5 L 218.9,286.0 L 218.4,287.1 L 217.2,289.0 L 216.7,290.8 L 216.2,295.3 L 215.7,295.9 L 215.1,296.6 L 214.8,297.7 L 214.7,299.8 L 214.4,300.2 L 212.8,300.5 L 211.8,300.2 L 210.5,298.6 L 210.4,298.1 L 210.1,297.6 L 209.7,297.6 L 208.7,298.5 L 207.6,299.0 L 205.0,299.7 L 203.9,300.2 L 203.4,301.1 L 203.5,303.1 L 203.6,304.6 L 203.1,305.9 L 200.6,309.2 L 200.4,310.3 L 200.1,311.1 L 199.4,312.6 L 199.6,312.9 L 200.7,312.7 L 201.8,312.0 L 202.7,311.8 L 203.7,312.0 L 204.9,312.4 L 205.5,313.0 L 205.4,313.9 L 204.4,315.8 L 204.4,316.5 L 204.7,316.7 L 205.3,316.8 L 205.9,318.5 L 206.7,318.5 L 208.2,318.0 L 209.1,318.8 L 209.4,319.5 L 209.6,321.5 L 209.2,322.9 L 208.5,324.1 L 207.6,324.3 L 207.4,324.5 L 207.4,325.3 L 207.5,325.9 L 208.3,326.1 L 209.0,326.6 L 209.4,328.8 L 209.3,329.9 L 209.2,332.4 L 208.9,334.7 L 208.2,335.7 L 207.6,335.9 L 207.1,336.2 L 207.2,337.0 L 207.0,338.5 L 205.4,340.5 L 203.5,344.2 L 203.5,344.8 L 203.8,345.1 L 203.9,345.8 L 203.6,347.8 L 203.3,348.2 L 202.4,350.7 L 200.5,353.2 L 200.0,354.2 L 199.7,354.2 L 198.7,354.2 L 197.0,355.0 L 194.9,355.9 L 192.4,356.8 L 189.0,358.5 L 187.9,358.9 L 186.3,359.6 L 185.4,359.7 L 185.3,360.0 L 185.2,360.0 L 141.1,338.7 L 141.6,338.6 L 142.1,338.2 L 142.0,337.4 L 142.4,336.5 L 143.5,335.7 L 143.7,335.0 L 145.1,333.8 L 145.6,332.6 L 145.9,332.5 L 146.8,332.8 L 147.6,332.6 L 148.5,331.9 L 148.4,330.4 L 148.8,329.5 L 148.8,328.6 L 149.4,327.1 L 149.5,325.9 L 150.0,325.2 L 150.7,324.6 L 150.9,324.3 L 152.3,322.7 L 154.0,321.4 L 153.5,321.0 L 153.6,319.2 L 154.4,318.7 L 155.8,318.1 L 156.2,317.5 L 156.5,316.4 L 156.3,314.5 L 157.9,312.3 L 159.4,311.4 L 159.9,310.7 L 159.9,309.9 L 160.8,309.5 L 161.1,309.0 L 161.5,307.9 L 162.4,306.8 L 162.7,306.8 L 163.1,307.0 L 163.6,306.3 L 163.5,305.8 L 163.2,305.5 L 163.2,305.1 L 163.9,303.8 L 165.1,303.3 L 166.3,302.2 L 166.5,301.7 L 167.6,300.6 L 167.7,299.2 L 167.7,297.7 L 168.4,296.4 L 168.6,295.4 L 169.0,294.8 L 169.6,294.6 L 169.8,294.1 L 169.8,293.6 L 170.3,293.2 L 171.5,292.9 L 172.3,291.6 L 172.6,290.7 L 172.5,290.2 L 172.2,289.9 L 172.0,289.5 L 170.8,288.9 L 170.1,288.8 L 168.3,289.0 L 167.6,288.9 L 167.4,288.6 L 167.1,288.3 L 166.8,286.9 L 164.8,285.0 L 164.7,283.0 L 165.1,282.5 L 166.2,281.1 L 167.0,279.6 L 169.2,277.1 L 169.3,276.1 L 170.4,275.2 L 171.3,275.4 L 171.8,275.3 L 172.1,274.7 L 171.9,272.9 L 172.8,271.6 L 173.9,270.2 L 175.2,269.2 L 175.9,268.4 L 176.4,267.5 L 177.3,266.5 L 178.0,265.8 L 178.7,264.4 L 179.4,263.6 L 180.6,263.2 L 181.6,263.2 L 182.2,263.7 L 183.4,262.7 L 184.7,261.8 L 185.3,260.8 L 185.5,260.0 L 185.0,259.4 L 183.7,259.9 L 183.5,258.7 L 183.9,257.4 L 184.1,256.9 L 184.4,255.1 L 186.2,250.6 L 187.4,249.5 L 187.6,249.5 L 188.4,249.1 L 189.8,247.2 L 190.5,246.0 L 192.2,245.4 L 193.1,245.6 L 193.8,245.5 L 194.1,245.0 L 194.3,243.8 L 195.0,242.5 L 196.4,241.5 L 197.9,241.3 L 198.2,241.5 L 198.8,241.3 L 201.0,239.5 L 201.4,239.0 L 201.6,238.3 L 202.1,237.6 L 203.1,237.3 L 203.6,236.6 L 203.7,236.2 L 204.1,234.6 L 204.2,232.9 L 205.3,231.5 L 205.7,231.3 L 205.9,230.0 L 206.7,229.1 L 206.5,228.2 L 205.7,226.7 L 205.2,226.1 L 204.8,224.8 L 204.2,217.4 L 204.6,215.0 L 205.4,213.2 L 206.4,212.4 L 207.5,208.6 L 208.5,207.0 L 208.7,206.1 L 208.5,204.0" fill="none" stroke="black" stroke-width="2"/>
</svg>