<?xml version="1.0" encoding="UTF-8"?>
<svg width="400" height="400" viewBox="0 0 400 400" xmlns="http://www.w3.org/2000/svg">
  <rect width="400" height="400" fill="white"/>
  <path d="M 142.9,226.5 L 143.8,225.6 L 144.1,225.1 L 144.0,224.2 L 144.5,221.1 L 144.7,220.4 L 145.3,219.0 L 146.7,217.2 L 147.2,216.8 L 147.7,216.7 L 148.1,215.7 L 148.5,215.5 L 149.4,214.7 L 150.4,214.1 L 150.9,213.9 L 151.5,213.3 L 152.2,212.9 L 152.8,212.6 L 153.3,212.5 L 153.8,211.9 L 153.9,211.2 L 153.7,210.4 L 154.0,209.1 L 153.7,208.7 L 154.0,207.7 L 154.3,207.1 L 154.3,206.1 L 154.2,205.5 L 153.7,204.8 L 153.2,204.6 L 153.0,204.6 L 152.5,204.1 L 152.1,203.7 L 152.0,203.4 L 151.9,202.9 L 150.7,201.7 L 149.6,200.9 L 148.7,200.5 L 148.4,200.4 L 148.0,200.5 L 147.9,200.4 L 147.3,200.6 L 146.7,200.3 L 146.5,200.3 L 146.1,200.5 L 142.9,198.5 L 142.6,198.1 L 142.4,197.1 L 142.2,196.6 L 142.1,196.2 L 141.6,195.9 L 141.4,195.0 L 141.8,194.4 L 142.2,194.1 L 142.7,194.1 L 143.3,194.3 L 143.3,194.4 L 143.5,194.4 L 143.9,194.3 L 144.1,193.9 L 144.0,193.4 L 143.8,193.2 L 143.9,192.8 L 143.8,192.4 L 143.9,192.1 L 142.6,190.6 L 142.2,190.2 L 141.5,190.2 L 141.0,190.0 L 140.8,189.6 L 140.9,189.3 L 140.8,188.8 L 140.2,188.0 L 139.5,187.4 L 139.1,187.4 L 138.6,186.9 L 138.1,186.3 L 137.4,185.7 L 136.2,185.4 L 135.6,185.0 L 135.3,184.9 L 134.8,184.6 L 134.1,183.8 L 134.0,183.2 L 134.5,182.7 L 134.5,182.4 L 134.3,181.8 L 134.1,180.6 L 133.1,179.9 L 132.3,180.0 L 131.8,179.6 L 131.6,180.0 L 130.7,180.2 L 129.7,180.2 L 129.5,180.4 L 129.2,180.5 L 128.4,180.2 L 128.3,180.4 L 128.6,180.7 L 128.7,180.7 L 129.3,181.1 L 129.3,181.4 L 129.9,181.8 L 131.2,182.2 L 131.5,182.3 L 131.4,182.8 L 131.2,183.1 L 130.9,183.2 L 130.8,183.4 L 129.9,183.6 L 128.9,183.5 L 128.7,183.4 L 127.9,183.3 L 127.0,183.4 L 126.2,183.7 L 125.1,184.4 L 124.5,185.0 L 123.7,185.2 L 123.5,185.0 L 123.5,184.9 L 123.2,184.7 L 122.6,184.6 L 122.1,184.9 L 121.4,185.8 L 121.1,185.9 L 120.8,186.3 L 120.5,186.6 L 120.2,186.5 L 119.9,186.5 L 119.5,187.0 L 119.2,186.6 L 118.5,186.3 L 118.1,186.3 L 117.6,185.8 L 117.3,185.8 L 117.3,187.0 L 117.2,187.2 L 117.1,187.0 L 116.8,186.7 L 116.7,186.5 L 116.4,186.5 L 116.5,187.6 L 116.4,187.8 L 116.4,188.1 L 116.2,188.4 L 115.5,188.5 L 115.3,188.3 L 114.8,187.6 L 113.9,186.5 L 112.9,185.8 L 111.5,185.4 L 111.3,185.4 L 111.1,185.5 L 110.4,185.4 L 109.1,185.1 L 108.3,184.7 L 108.2,184.4 L 108.2,184.2 L 108.8,184.1 L 108.8,183.8 L 109.7,183.5 L 109.8,183.4 L 110.2,183.4 L 110.4,183.2 L 110.4,183.1 L 110.3,183.0 L 110.1,183.1 L 109.7,183.2 L 109.4,183.1 L 109.3,182.5 L 109.1,182.3 L 109.2,182.1 L 108.8,181.8 L 108.5,181.2 L 107.8,180.8 L 107.7,180.2 L 107.4,180.0 L 104.3,180.4 L 103.9,180.9 L 103.3,180.9 L 102.8,182.5 L 102.6,182.6 L 101.9,182.3 L 101.6,182.2 L 101.1,181.6 L 101.0,181.6 L 100.9,182.0 L 100.5,182.3 L 100.0,182.9 L 100.2,183.0 L 101.8,183.4 L 102.1,183.4 L 102.6,183.3 L 102.9,183.4 L 103.9,184.0 L 104.3,184.5 L 104.6,185.5 L 104.6,186.0 L 104.4,188.2 L 104.4,189.5 L 104.6,190.1 L 105.1,190.9 L 105.3,191.2 L 104.8,192.1 L 104.9,192.6 L 105.1,192.7 L 105.7,192.3 L 106.0,192.4 L 106.3,193.4 L 106.3,193.9 L 106.1,194.2 L 105.8,194.6 L 105.0,195.0 L 104.5,195.1 L 104.4,195.1 L 104.1,195.0 L 103.6,195.2 L 103.1,195.6 L 102.8,196.2 L 101.1,196.2 L 101.4,195.3 L 101.5,194.6 L 101.3,193.8 L 100.3,192.6 L 100.0,191.9 L 99.4,190.0 L 99.1,189.7 L 98.9,188.3 L 98.8,188.2 L 97.5,187.5 L 96.8,187.2 L 96.7,186.4 L 96.3,186.0 L 95.9,185.8 L 95.5,185.9 L 95.3,186.2 L 94.4,186.4 L 94.1,186.4 L 94.1,186.4 L 93.9,186.4 L 93.3,186.5 L 93.0,186.8 L 92.7,187.5 L 92.5,187.7 L 92.4,187.8 L 92.6,188.1 L 92.7,188.6 L 92.6,188.9 L 92.6,189.7 L 92.4,190.4 L 92.6,192.2 L 92.5,192.8 L 92.6,193.9 L 92.8,194.3 L 92.9,194.8 L 92.9,195.4 L 92.9,196.1 L 93.1,196.6 L 93.1,198.0 L 93.0,198.7 L 92.9,198.9 L 92.6,198.8 L 90.3,198.3 L 90.2,198.0 L 89.8,197.4 L 89.4,197.1 L 89.2,196.1 L 88.7,195.3 L 88.0,194.7 L 87.3,194.6 L 86.6,194.3 L 85.0,192.8 L 84.2,192.5 L 83.5,192.2 L 82.2,192.0 L 80.4,191.9 L 79.7,191.6 L 79.3,191.3 L 79.1,190.9 L 78.7,190.5 L 78.2,189.9 L 78.4,188.9 L 78.1,188.3 L 77.9,187.3 L 77.6,186.9 L 77.4,186.5 L 77.1,186.1 L 77.0,185.6 L 76.7,184.3 L 76.3,183.2 L 75.4,181.7 L 75.0,179.1 L 74.8,178.6 L 74.8,178.1 L 75.1,177.0 L 74.9,176.5 L 74.1,175.2 L 74.0,175.2 L 73.2,174.5 L 73.0,174.1 L 72.6,173.9 L 72.2,174.1 L 71.8,173.9 L 71.4,174.1 L 71.0,173.9 L 70.5,173.2 L 70.3,171.6 L 70.3,171.2 L 70.3,171.1 L 71.2,170.0 L 71.9,169.5 L 73.1,168.3 L 74.6,166.4 L 75.0,165.5 L 75.1,163.9 L 75.0,163.0 L 75.2,162.2 L 76.3,160.6 L 76.6,159.8 L 76.4,159.3 L 75.7,158.7 L 75.2,158.0 L 75.0,157.6 L 74.2,157.0 L 74.0,156.5 L 74.1,156.2 L 74.2,155.7 L 74.3,155.5 L 74.5,155.0 L 74.9,154.4 L 75.2,153.9 L 75.4,153.6 L 75.4,152.8 L 75.1,152.4 L 75.3,152.1 L 75.5,151.7 L 75.6,150.9 L 75.6,150.5 L 75.7,150.2 L 75.6,148.5 L 75.6,148.2 L 75.5,147.9 L 74.8,147.4 L 74.7,146.9 L 74.6,146.6 L 74.5,145.6 L 74.5,145.2 L 74.3,144.5 L 73.5,143.7 L 72.7,143.2 L 72.5,142.7 L 72.5,142.3 L 72.6,141.8 L 72.5,141.5 L 71.9,141.1 L 71.7,140.7 L 71.2,140.2 L 70.6,140.4 L 70.3,140.2 L 70.3,139.6 L 69.7,139.2 L 69.5,138.3 L 69.3,138.0 L 69.2,137.2 L 68.9,137.0 L 68.7,136.0 L 68.9,135.7 L 68.9,135.2 L 69.1,134.7 L 69.1,134.3 L 69.2,133.7 L 69.0,132.9 L 69.1,132.1 L 68.9,130.4 L 68.7,129.9 L 68.6,127.7 L 68.9,127.3 L 69.0,126.1 L 69.1,125.6 L 68.7,124.6 L 68.9,123.6 L 69.4,121.8 L 69.6,120.5 L 69.9,119.5 L 70.1,118.3 L 70.5,117.6 L 70.6,117.1 L 70.8,116.7 L 71.1,116.3 L 71.3,115.6 L 71.1,115.1 L 71.6,114.4 L 72.2,114.3 L 72.3,114.2 L 72.8,114.1 L 73.0,113.7 L 73.2,112.6 L 73.1,111.8 L 73.2,111.4 L 72.6,110.6 L 72.2,110.3 L 72.3,109.5 L 72.0,108.4 L 71.6,108.0 L 71.5,107.6 L 70.9,107.3 L 71.0,107.0 L 71.1,106.8 L 70.9,105.8 L 71.3,105.2 L 71.1,104.5 L 71.4,103.9 L 71.3,103.7 L 70.6,103.2 L 70.0,102.7 L 70.3,102.1 L 70.5,101.3 L 70.5,100.9 L 70.0,100.4 L 69.9,100.1 L 69.3,99.4 L 69.0,99.3 L 68.6,99.3 L 68.4,98.6 L 67.7,97.9 L 67.6,97.8 L 67.2,97.8 L 66.6,97.7 L 66.2,97.8 L 65.3,98.0 L 64.8,98.2 L 64.3,98.6 L 64.0,98.8 L 63.1,99.8 L 62.7,99.9 L 62.4,99.7 L 62.3,99.2 L 61.6,98.8 L 61.1,98.8 L 60.6,98.4 L 60.6,97.3 L 60.3,96.9 L 59.9,96.6 L 59.3,96.6 L 59.2,96.3 L 59.7,95.8 L 59.9,94.9 L 60.5,94.1 L 60.6,93.7 L 60.5,91.8 L 60.0,91.2 L 60.0,90.4 L 59.0,89.7 L 58.8,89.2 L 58.3,89.1 L 57.5,88.6 L 57.0,88.3 L 56.8,87.9 L 56.3,87.5 L 56.0,86.7 L 55.2,85.3 L 54.9,84.7 L 54.6,84.5 L 54.4,84.0 L 53.9,83.4 L 53.7,82.9 L 52.5,80.9 L 51.3,79.4 L 50.3,78.6 L 49.7,77.9 L 49.3,77.5 L 80.0,40.0 L 80.8,40.9 L 81.4,41.3 L 81.9,41.4 L 82.7,41.6 L 83.6,41.4 L 84.0,41.0 L 85.8,40.9 L 86.3,41.0 L 86.8,41.4 L 87.2,41.9 L 87.0,42.2 L 87.2,42.5 L 87.2,43.2 L 87.1,44.6 L 87.2,45.3 L 87.7,45.8 L 87.5,46.2 L 86.9,46.3 L 86.8,46.4 L 86.9,47.1 L 88.4,47.9 L 89.0,48.1 L 89.1,48.3 L 88.1,48.4 L 87.9,48.6 L 88.2,49.0 L 88.0,49.1 L 86.6,48.8 L 86.1,48.8 L 85.8,49.1 L 85.8,49.5 L 86.3,49.9 L 86.2,50.3 L 86.6,50.7 L 87.0,50.8 L 87.1,51.2 L 87.4,51.5 L 87.8,51.6 L 87.9,51.9 L 88.4,52.4 L 89.5,52.8 L 89.4,53.1 L 89.6,53.5 L 89.6,54.0 L 89.9,54.6 L 90.5,55.1 L 91.0,56.0 L 91.6,56.1 L 92.6,56.5 L 93.2,56.7 L 93.4,56.6 L 93.8,56.3 L 94.2,56.7 L 94.3,57.4 L 94.2,58.1 L 94.4,59.2 L 94.7,59.8 L 94.9,60.4 L 95.2,60.6 L 95.7,60.9 L 96.5,61.5 L 97.2,61.6 L 97.6,61.5 L 98.1,60.7 L 98.2,60.7 L 98.3,61.1 L 98.5,61.1 L 98.6,61.4 L 98.8,61.6 L 99.3,61.8 L 99.5,61.7 L 99.6,61.4 L 99.7,61.2 L 100.0,61.2 L 100.2,61.5 L 100.4,62.1 L 100.2,62.7 L 100.6,63.6 L 101.2,64.0 L 101.5,64.0 L 101.9,64.2 L 102.1,64.3 L 102.4,64.4 L 103.0,64.3 L 103.6,64.1 L 103.9,64.2 L 104.0,64.2 L 104.2,64.3 L 104.6,64.2 L 105.0,64.3 L 105.7,64.2 L 106.4,64.4 L 106.8,64.7 L 107.3,64.8 L 108.4,64.8 L 109.3,64.6 L 109.4,64.6 L 109.5,64.8 L 110.4,65.6 L 111.0,65.9 L 111.7,66.0 L 112.1,65.8 L 112.9,65.7 L 112.9,65.9 L 113.1,66.2 L 114.3,66.0 L 114.5,66.3 L 114.8,66.3 L 115.6,66.0 L 115.7,66.2 L 116.0,66.3 L 116.5,66.2 L 116.8,65.9 L 117.0,65.4 L 117.1,65.0 L 117.4,65.0 L 117.6,65.2 L 117.5,65.5 L 117.6,66.1 L 117.7,66.4 L 118.3,66.6 L 118.8,66.5 L 119.2,66.4 L 119.3,66.4 L 119.5,66.5 L 119.6,67.3 L 119.4,67.4 L 119.3,67.8 L 119.4,68.1 L 120.0,68.4 L 120.8,68.4 L 120.7,68.9 L 120.7,69.4 L 121.0,69.7 L 121.8,70.0 L 122.6,70.1 L 123.0,70.2 L 123.8,70.6 L 124.8,70.5 L 125.1,70.1 L 125.5,69.0 L 125.6,68.8 L 126.1,68.7 L 127.5,68.7 L 128.2,69.1 L 128.6,69.5 L 128.7,70.0 L 128.9,70.1 L 129.3,70.3 L 130.2,70.0 L 130.6,69.8 L 131.2,69.9 L 131.5,69.9 L 131.8,69.6 L 132.4,69.4 L 132.9,69.4 L 133.3,69.6 L 133.4,70.2 L 133.6,70.4 L 134.5,70.3 L 134.8,70.7 L 134.9,71.0 L 134.7,71.4 L 134.8,71.7 L 134.6,72.2 L 134.8,72.4 L 134.9,72.7 L 135.3,73.2 L 135.7,73.4 L 135.7,73.7 L 135.9,73.8 L 136.0,74.6 L 136.5,75.0 L 136.5,75.6 L 136.7,75.9 L 136.8,76.1 L 136.2,76.9 L 136.1,77.2 L 136.3,78.4 L 136.5,78.8 L 136.5,79.1 L 136.8,79.3 L 137.0,79.5 L 137.1,79.8 L 137.3,79.8 L 137.4,80.0 L 137.8,80.2 L 138.5,80.2 L 138.6,80.3 L 138.4,80.5 L 137.8,81.0 L 137.8,81.2 L 137.9,81.4 L 137.7,81.5 L 137.2,81.7 L 137.0,81.9 L 137.0,82.5 L 137.2,82.8 L 137.2,83.3 L 137.4,83.7 L 137.7,83.8 L 138.1,83.9 L 138.4,83.8 L 138.6,84.2 L 138.6,84.3 L 138.1,84.5 L 137.9,84.7 L 138.0,85.3 L 138.6,85.7 L 139.0,86.1 L 139.3,86.6 L 139.4,86.8 L 139.5,86.8 L 140.1,87.0 L 140.6,87.3 L 141.0,87.4 L 141.3,87.7 L 141.1,88.5 L 141.6,88.8 L 141.8,89.2 L 141.8,89.6 L 141.5,89.9 L 141.5,90.3 L 142.2,90.9 L 142.3,91.1 L 142.3,91.3 L 141.7,91.8 L 140.8,92.0 L 140.4,91.8 L 139.7,92.0 L 139.7,92.2 L 139.8,92.4 L 140.5,92.4 L 141.0,92.9 L 141.6,93.1 L 141.8,93.3 L 142.1,93.4 L 142.4,93.6 L 142.3,94.2 L 142.1,94.6 L 141.9,94.8 L 141.6,94.7 L 140.8,94.8 L 140.5,95.0 L 140.1,94.8 L 139.9,94.9 L 139.9,95.1 L 139.4,95.1 L 139.3,95.3 L 139.9,95.7 L 139.6,95.8 L 138.8,95.7 L 138.7,95.4 L 137.9,95.7 L 137.9,96.4 L 137.6,96.6 L 137.6,97.1 L 137.2,97.2 L 136.8,97.1 L 136.5,97.3 L 136.7,97.7 L 137.1,97.8 L 137.4,98.0 L 137.3,98.2 L 137.3,98.7 L 137.1,98.9 L 136.8,98.7 L 136.7,98.6 L 136.6,98.8 L 136.6,99.0 L 136.7,99.1 L 137.5,99.0 L 137.9,99.2 L 138.3,99.7 L 138.4,100.0 L 138.9,99.9 L 139.1,100.0 L 139.4,100.8 L 139.4,101.5 L 139.0,101.6 L 138.2,101.5 L 137.3,101.6 L 137.0,101.5 L 136.2,101.8 L 136.1,102.2 L 135.6,102.2 L 135.6,102.3 L 136.1,102.6 L 136.2,103.1 L 136.6,103.6 L 137.0,103.6 L 137.1,103.8 L 136.9,104.0 L 137.0,104.5 L 137.3,104.7 L 137.2,105.0 L 137.2,105.4 L 137.7,105.9 L 137.8,106.4 L 138.0,106.6 L 137.9,106.7 L 137.7,106.8 L 137.7,107.4 L 137.4,107.7 L 137.0,107.5 L 136.9,107.6 L 136.9,108.0 L 136.9,108.6 L 136.6,108.8 L 136.1,108.4 L 135.8,108.4 L 135.6,108.6 L 135.1,108.5 L 134.7,108.8 L 134.7,109.1 L 134.6,109.1 L 134.0,108.9 L 133.6,108.9 L 133.6,109.2 L 133.5,109.4 L 133.5,109.7 L 133.5,110.1 L 133.1,110.2 L 133.0,110.4 L 133.1,111.0 L 133.9,111.1 L 134.1,111.2 L 134.2,111.6 L 134.6,112.0 L 134.5,112.4 L 135.1,112.7 L 135.2,112.8 L 135.2,112.9 L 135.2,113.2 L 134.6,113.3 L 134.3,113.5 L 134.4,114.4 L 134.6,114.8 L 135.5,115.6 L 136.2,115.8 L 136.7,116.1 L 136.5,116.3 L 136.7,116.4 L 137.4,116.6 L 137.6,116.4 L 138.3,116.7 L 138.7,117.0 L 139.1,117.8 L 139.0,117.9 L 138.6,118.0 L 138.2,118.3 L 138.2,118.8 L 138.7,119.9 L 138.9,121.3 L 139.1,121.9 L 139.6,122.7 L 140.7,125.0 L 140.7,125.4 L 140.7,125.9 L 141.1,126.7 L 141.0,127.0 L 140.3,127.1 L 140.3,127.4 L 140.7,127.6 L 140.9,127.6 L 141.0,127.3 L 141.2,127.3 L 141.6,127.3 L 142.9,128.1 L 143.7,128.8 L 144.0,129.2 L 144.6,129.6 L 144.6,129.8 L 144.3,130.0 L 144.5,130.1 L 145.5,130.4 L 145.5,130.7 L 145.2,130.8 L 145.2,131.1 L 145.5,131.5 L 146.1,131.7 L 146.5,131.8 L 147.0,131.7 L 147.0,131.4 L 147.4,131.4 L 147.9,131.7 L 148.6,132.5 L 148.8,132.8 L 148.5,133.0 L 148.7,133.2 L 148.6,133.6 L 149.0,133.9 L 149.8,134.2 L 150.5,134.3 L 150.5,134.0 L 150.7,133.9 L 151.4,134.4 L 152.2,135.1 L 153.3,135.7 L 153.7,135.7 L 153.7,135.7 L 154.0,135.9 L 154.4,136.1 L 155.2,136.3 L 155.6,136.5 L 155.7,136.8 L 155.9,137.0 L 156.1,137.3 L 157.0,138.2 L 158.4,138.3 L 159.3,138.9 L 159.4,139.1 L 159.4,139.4 L 159.8,139.7 L 159.6,139.9 L 159.7,140.3 L 160.5,140.5 L 161.2,141.4 L 161.8,142.0 L 161.8,142.2 L 161.6,142.3 L 161.4,142.4 L 162.6,143.3 L 162.7,143.6 L 163.2,144.2 L 164.8,144.9 L 165.0,144.8 L 165.4,145.0 L 166.5,144.8 L 167.6,145.3 L 168.2,145.9 L 168.5,146.6 L 168.9,147.0 L 169.0,147.3 L 169.3,147.9 L 169.8,148.8 L 171.6,150.2 L 172.6,150.3 L 173.0,150.4 L 173.9,150.5 L 174.1,150.9 L 174.3,151.0 L 175.0,151.2 L 175.4,151.5 L 176.0,151.6 L 177.3,151.8 L 177.6,152.0 L 179.3,152.0 L 179.7,152.2 L 180.1,152.2 L 180.8,152.3 L 181.5,152.5 L 181.6,152.5 L 182.0,152.6 L 182.6,153.2 L 182.7,153.6 L 182.6,154.3 L 182.5,154.9 L 182.7,155.3 L 183.1,155.6 L 183.7,155.6 L 184.4,155.8 L 184.8,156.1 L 185.0,156.8 L 184.9,157.3 L 184.4,157.4 L 184.3,157.7 L 184.5,158.0 L 184.8,158.0 L 185.1,158.1 L 185.1,158.4 L 184.9,159.0 L 185.1,159.3 L 185.5,159.5 L 185.6,160.0 L 185.4,160.5 L 185.0,160.5 L 184.7,160.3 L 184.1,160.3 L 183.1,161.7 L 183.1,162.3 L 183.4,162.8 L 183.9,162.8 L 183.9,163.2 L 184.4,163.9 L 184.8,164.1 L 185.0,164.1 L 185.1,164.2 L 185.0,165.1 L 185.2,165.4 L 186.0,165.7 L 187.1,166.2 L 187.2,166.4 L 187.7,166.7 L 188.8,167.2 L 190.3,167.1 L 190.5,167.2 L 190.8,167.2 L 191.5,166.8 L 191.5,166.5 L 192.3,166.4 L 192.4,166.1 L 192.1,165.6 L 191.8,165.3 L 191.7,164.9 L 191.4,164.4 L 191.0,164.1 L 190.7,163.5 L 190.3,163.0 L 190.3,162.9 L 190.5,162.5 L 190.8,162.3 L 191.1,162.3 L 192.0,162.6 L 192.0,162.6 L 192.3,163.1 L 192.5,163.3 L 192.9,163.4 L 193.1,163.5 L 193.2,163.7 L 193.4,163.8 L 193.4,164.1 L 193.6,164.4 L 194.1,164.7 L 194.9,164.8 L 195.5,164.6 L 196.4,164.0 L 196.9,163.2 L 197.9,163.1 L 198.2,163.3 L 198.5,163.4 L 198.9,163.5 L 200.4,163.2 L 200.9,162.7 L 201.0,162.5 L 201.1,162.1 L 201.6,161.9 L 201.6,161.4 L 201.7,161.2 L 201.4,161.0 L 201.4,160.7 L 201.5,160.4 L 201.2,159.7 L 201.2,159.4 L 201.4,158.9 L 201.5,158.4 L 201.6,158.1 L 201.6,157.3 L 201.4,156.9 L 201.5,156.4 L 201.5,155.7 L 201.7,155.3 L 201.3,154.3 L 201.3,153.9 L 201.3,153.0 L 201.0,151.7 L 200.7,151.0 L 200.1,149.6 L 200.1,148.4 L 200.2,147.9 L 199.9,144.2 L 199.6,143.3 L 199.2,141.5 L 198.9,140.8 L 198.3,139.0 L 197.6,136.7 L 197.5,135.8 L 197.2,133.6 L 197.0,130.6 L 197.0,127.5 L 197.1,126.0 L 197.3,125.4 L 197.8,124.7 L 198.6,124.5 L 199.5,124.3 L 200.3,124.2 L 200.4,123.9 L 200.3,123.3 L 199.6,123.5 L 199.1,123.5 L 198.9,123.3 L 198.9,123.0 L 199.1,122.7 L 199.3,123.0 L 199.4,123.1 L 200.1,122.9 L 200.6,123.2 L 201.1,124.6 L 202.3,126.9 L 202.4,127.5 L 202.6,127.9 L 202.8,128.3 L 203.3,128.9 L 203.7,129.7 L 204.1,130.9 L 204.8,132.1 L 205.6,133.2 L 206.5,134.4 L 207.0,135.3 L 207.3,136.2 L 208.1,136.8 L 208.4,138.1 L 208.8,138.7 L 209.6,139.3 L 210.0,139.8 L 211.1,143.2 L 211.7,143.7 L 211.6,144.0 L 211.7,144.5 L 212.1,144.5 L 212.3,144.7 L 212.5,146.0 L 212.8,146.8 L 213.0,147.8 L 212.9,147.9 L 213.2,148.3 L 213.4,148.6 L 213.7,148.8 L 213.9,149.6 L 213.9,150.1 L 214.1,152.1 L 214.3,152.7 L 214.3,153.8 L 214.2,154.0 L 213.9,154.6 L 213.6,155.7 L 214.0,157.6 L 214.1,158.2 L 214.1,159.5 L 214.0,159.8 L 213.6,160.1 L 213.4,160.8 L 213.2,161.2 L 212.5,161.3 L 212.2,161.6 L 212.2,162.0 L 211.6,163.1 L 211.6,163.5 L 211.3,163.8 L 210.8,164.0 L 210.4,164.2 L 210.0,164.8 L 210.1,166.2 L 210.5,167.0 L 210.8,167.0 L 211.2,166.7 L 212.0,166.5 L 212.7,166.5 L 212.7,166.7 L 213.4,167.9 L 214.5,169.3 L 214.5,169.6 L 214.6,169.7 L 214.8,169.8 L 214.8,169.4 L 214.9,169.3 L 215.2,169.4 L 215.3,169.8 L 215.6,170.0 L 215.9,170.0 L 216.1,170.1 L 216.5,170.0 L 216.7,169.8 L 217.6,169.6 L 218.5,169.7 L 219.3,170.0 L 220.0,170.1 L 220.8,169.8 L 221.0,169.9 L 221.5,170.3 L 221.4,170.6 L 221.3,170.9 L 221.5,171.3 L 221.8,171.4 L 221.9,171.3 L 222.1,171.2 L 222.7,171.0 L 223.2,171.1 L 224.7,171.0 L 225.3,171.5 L 226.0,171.6 L 226.6,172.0 L 227.6,172.7 L 228.3,172.6 L 228.5,172.8 L 228.7,173.1 L 229.0,174.2 L 229.2,174.5 L 229.3,174.9 L 229.9,175.8 L 230.5,176.4 L 231.0,176.6 L 231.2,177.0 L 231.2,178.5 L 231.5,178.8 L 232.2,178.8 L 232.6,179.0 L 233.0,179.5 L 233.9,179.9 L 235.0,179.7 L 235.1,179.9 L 235.5,180.2 L 235.8,180.1 L 236.1,179.9 L 236.4,179.8 L 262.1,192.2 L 262.1,192.2 L 262.1,192.3 L 262.4,192.5 L 262.6,192.6 L 262.8,192.8 L 262.9,193.8 L 262.6,194.3 L 262.7,194.7 L 262.8,194.9 L 263.2,195.4 L 263.4,195.9 L 264.5,197.3 L 265.9,199.2 L 266.3,199.4 L 267.9,200.7 L 268.5,201.4 L 268.9,202.4 L 269.2,203.3 L 269.5,203.7 L 270.1,203.9 L 270.5,203.9 L 270.8,204.5 L 271.2,204.7 L 271.5,204.7 L 273.6,205.4 L 274.7,206.1 L 275.2,206.8 L 275.3,207.1 L 275.6,207.8 L 275.9,208.9 L 275.9,210.0 L 275.6,210.3 L 275.4,210.7 L 275.4,211.1 L 275.6,211.3 L 276.2,211.4 L 276.6,211.6 L 276.8,214.3 L 277.0,214.4 L 277.9,214.5 L 278.6,215.0 L 278.8,215.4 L 279.3,215.7 L 279.6,216.0 L 279.8,216.5 L 280.2,217.5 L 280.6,218.2 L 281.2,218.5 L 281.6,218.7 L 282.1,219.7 L 283.3,220.7 L 284.1,221.7 L 284.1,222.5 L 284.3,223.0 L 285.3,223.4 L 285.4,224.2 L 285.3,224.8 L 284.9,225.4 L 284.6,225.5 L 284.1,225.3 L 283.9,225.3 L 283.7,225.1 L 283.4,225.3 L 283.1,225.6 L 283.1,226.0 L 283.6,226.9 L 283.5,227.2 L 283.7,227.4 L 283.7,227.9 L 284.1,228.2 L 284.6,229.6 L 285.3,230.3 L 285.2,230.8 L 285.4,231.1 L 286.2,231.4 L 286.1,231.7 L 285.7,232.1 L 285.1,232.2 L 284.7,232.0 L 284.3,231.3 L 284.1,231.1 L 283.5,231.1 L 283.3,231.2 L 283.3,231.5 L 283.7,231.7 L 283.9,231.8 L 283.8,232.0 L 283.5,232.1 L 282.7,231.8 L 282.4,231.8 L 282.2,231.4 L 281.2,231.0 L 280.5,230.8 L 279.8,230.9 L 279.5,231.5 L 279.6,232.2 L 279.4,232.5 L 279.1,232.6 L 278.8,232.4 L 278.8,232.1 L 278.2,231.8 L 277.8,231.8 L 277.6,232.1 L 277.5,232.5 L 277.9,232.6 L 278.2,233.2 L 277.9,233.8 L 278.3,234.1 L 278.4,234.7 L 278.7,235.0 L 279.1,235.3 L 279.3,235.9 L 279.0,236.8 L 278.5,237.2 L 278.1,237.3 L 278.0,237.8 L 277.7,237.9 L 277.5,238.0 L 277.5,238.2 L 277.8,239.0 L 278.5,239.8 L 279.3,240.2 L 280.4,241.0 L 280.8,241.1 L 281.3,241.4 L 281.8,241.5 L 282.3,242.0 L 282.6,242.1 L 283.3,242.0 L 283.6,241.8 L 283.9,241.9 L 284.1,242.1 L 284.3,243.4 L 284.9,243.9 L 285.9,245.0 L 286.1,245.3 L 286.6,245.8 L 287.1,246.3 L 287.4,246.7 L 287.8,246.8 L 289.0,248.2 L 289.2,248.8 L 289.1,249.0 L 288.7,249.2 L 288.5,249.5 L 288.5,250.6 L 288.9,251.6 L 288.4,252.6 L 288.1,252.7 L 287.9,252.6 L 287.3,252.7 L 286.5,253.4 L 286.4,253.9 L 286.1,254.0 L 285.9,254.3 L 286.1,255.4 L 286.3,256.1 L 286.9,256.5 L 287.1,256.9 L 287.0,257.4 L 287.3,257.7 L 287.4,258.2 L 287.0,258.9 L 286.7,259.3 L 286.3,259.5 L 286.2,259.8 L 286.5,260.0 L 286.7,260.1 L 286.6,260.4 L 286.3,260.5 L 286.2,260.7 L 286.4,260.8 L 286.5,261.0 L 286.3,261.6 L 286.1,261.9 L 285.3,262.9 L 284.9,263.0 L 284.7,263.3 L 284.7,263.7 L 284.9,263.8 L 285.0,264.0 L 285.1,264.0 L 285.3,263.8 L 285.5,263.8 L 285.5,264.5 L 285.8,264.6 L 286.4,264.4 L 286.9,264.0 L 287.0,264.2 L 287.0,264.4 L 287.2,264.7 L 287.7,264.6 L 288.1,264.8 L 288.3,265.0 L 288.6,265.2 L 288.5,265.4 L 288.5,265.6 L 288.5,265.7 L 289.0,265.7 L 289.1,266.0 L 289.1,266.3 L 289.3,266.6 L 289.5,267.2 L 289.7,267.6 L 290.5,268.4 L 290.8,268.9 L 290.9,269.2 L 290.9,269.5 L 290.9,269.9 L 291.3,270.5 L 291.7,270.5 L 291.7,270.8 L 292.1,270.8 L 292.1,271.1 L 292.3,271.1 L 292.6,271.4 L 292.7,271.7 L 293.6,271.6 L 293.9,271.8 L 294.0,272.3 L 293.7,272.6 L 293.7,272.9 L 294.1,272.8 L 294.3,272.6 L 294.9,272.5 L 295.1,272.4 L 295.4,272.6 L 295.7,273.1 L 295.5,273.4 L 295.6,273.9 L 296.1,274.2 L 296.3,274.3 L 296.5,274.2 L 296.7,273.9 L 297.0,273.9 L 297.8,273.7 L 298.4,273.5 L 298.7,273.0 L 299.1,273.0 L 299.2,273.0 L 299.6,273.1 L 300.0,273.0 L 300.3,272.8 L 300.8,272.7 L 301.0,272.4 L 302.1,272.5 L 302.7,272.4 L 302.9,272.7 L 303.4,272.8 L 303.9,273.0 L 305.0,272.8 L 305.9,273.2 L 306.2,273.6 L 306.5,273.7 L 306.9,274.2 L 307.3,274.3 L 307.8,275.2 L 307.9,275.9 L 307.4,276.0 L 307.1,276.0 L 307.1,276.2 L 306.7,276.6 L 306.8,277.0 L 307.2,277.0 L 307.6,277.3 L 307.8,277.2 L 308.1,276.9 L 308.2,276.4 L 308.6,276.4 L 309.4,276.4 L 309.8,276.4 L 310.5,276.9 L 311.0,277.5 L 311.2,278.2 L 311.2,278.6 L 310.9,279.5 L 310.8,280.2 L 310.4,280.4 L 310.5,281.1 L 310.8,281.2 L 310.9,282.0 L 311.2,282.3 L 311.4,283.0 L 311.7,283.2 L 312.0,283.9 L 312.4,284.2 L 312.9,284.7 L 313.1,285.1 L 313.2,285.3 L 313.5,285.2 L 313.8,285.2 L 314.2,285.2 L 314.2,285.3 L 314.6,285.6 L 314.7,285.9 L 315.0,286.1 L 315.3,286.2 L 315.5,286.4 L 315.8,286.4 L 316.0,286.5 L 315.9,286.6 L 316.1,286.8 L 316.4,286.6 L 316.9,286.6 L 317.2,286.8 L 317.7,287.3 L 317.8,287.6 L 318.3,287.8 L 318.8,288.4 L 319.3,288.9 L 319.6,289.9 L 319.8,290.3 L 320.9,291.0 L 321.2,291.3 L 321.6,291.6 L 322.6,291.8 L 323.1,291.7 L 323.5,291.4 L 323.9,291.4 L 324.9,291.3 L 325.5,291.0 L 326.8,291.0 L 327.3,290.5 L 328.0,290.4 L 329.0,290.6 L 329.4,291.1 L 330.6,291.8 L 331.5,291.6 L 331.7,291.3 L 332.1,291.4 L 332.6,290.9 L 333.1,289.7 L 333.7,289.3 L 334.1,289.2 L 334.5,289.1 L 335.0,289.2 L 335.7,289.6 L 336.0,289.7 L 336.1,289.9 L 336.0,290.1 L 336.2,290.3 L 336.3,290.7 L 336.6,290.8 L 336.7,291.0 L 337.0,291.1 L 337.0,291.2 L 337.4,291.3 L 337.4,291.4 L 337.7,291.6 L 337.9,291.8 L 338.2,292.0 L 338.2,292.4 L 338.5,293.7 L 338.9,293.5 L 339.3,293.5 L 339.7,293.7 L 339.9,293.6 L 340.0,293.2 L 340.4,292.7 L 340.9,292.8 L 340.3,293.2 L 340.4,294.8 L 340.3,295.4 L 340.3,296.4 L 340.7,297.1 L 340.8,297.9 L 341.7,298.8 L 341.9,298.9 L 342.2,299.1 L 342.4,299.1 L 343.3,299.3 L 343.3,299.7 L 343.5,299.9 L 343.9,300.0 L 344.5,300.1 L 344.9,300.2 L 345.1,300.4 L 345.7,300.6 L 345.9,300.8 L 346.9,301.2 L 347.3,301.6 L 347.4,302.0 L 348.0,302.2 L 348.4,302.5 L 348.9,302.8 L 349.1,302.8 L 349.5,302.9 L 350.7,302.8 L 261.8,360.0 L 261.8,360.0 L 261.8,359.4 L 261.4,357.8 L 261.1,357.1 L 260.6,355.1 L 259.9,353.4 L 259.7,352.8 L 259.6,352.7 L 259.4,351.9 L 259.3,351.7 L 259.0,351.5 L 258.8,350.9 L 258.7,350.2 L 259.1,349.5 L 259.2,349.6 L 259.4,349.4 L 259.3,349.2 L 259.1,349.2 L 259.1,349.1 L 259.2,348.3 L 259.4,348.0 L 259.2,346.4 L 259.3,346.2 L 259.1,345.7 L 259.4,345.4 L 259.3,344.9 L 259.0,344.6 L 258.7,344.5 L 258.4,344.1 L 258.2,344.1 L 258.0,343.6 L 257.8,341.9 L 258.0,340.7 L 258.1,340.4 L 258.0,339.5 L 257.8,339.3 L 257.5,339.3 L 257.0,338.8 L 256.9,338.4 L 256.6,337.9 L 256.7,337.7 L 256.7,337.5 L 256.6,337.3 L 256.4,337.1 L 256.0,337.0 L 255.9,336.9 L 255.6,336.9 L 255.4,337.1 L 255.0,336.8 L 254.5,336.4 L 254.2,336.3 L 253.9,336.4 L 253.5,336.4 L 253.6,336.0 L 253.5,335.8 L 252.7,336.9 L 252.3,337.0 L 251.4,336.8 L 250.7,336.5 L 250.0,336.1 L 249.3,335.3 L 248.8,334.7 L 248.7,334.5 L 248.1,333.4 L 247.5,331.4 L 247.2,331.0 L 246.7,328.6 L 246.6,328.5 L 246.4,328.3 L 246.4,327.9 L 246.1,325.9 L 246.6,324.4 L 247.0,323.7 L 247.2,323.2 L 247.7,322.6 L 247.8,322.2 L 248.0,322.1 L 248.2,321.1 L 248.2,320.2 L 248.0,319.4 L 248.1,319.2 L 248.0,318.8 L 247.8,318.6 L 247.5,317.6 L 247.1,316.8 L 246.9,316.8 L 246.6,316.8 L 246.0,316.2 L 245.9,316.2 L 245.5,315.7 L 244.4,313.9 L 244.1,312.7 L 243.4,311.3 L 242.9,310.8 L 241.9,308.6 L 241.5,308.1 L 241.2,307.4 L 240.8,306.8 L 240.5,305.8 L 240.2,304.8 L 239.7,304.1 L 239.5,303.6 L 238.8,302.5 L 238.1,301.9 L 237.9,301.9 L 236.8,300.6 L 236.5,300.4 L 236.4,300.1 L 236.0,300.0 L 235.6,299.0 L 235.1,298.3 L 234.5,298.1 L 234.0,298.1 L 233.5,297.8 L 233.1,297.8 L 232.8,297.8 L 232.3,297.4 L 232.0,297.0 L 231.7,295.8 L 231.5,295.5 L 230.8,295.2 L 230.6,295.3 L 230.4,295.4 L 229.6,294.9 L 227.9,294.3 L 227.6,294.0 L 227.5,293.4 L 227.3,293.3 L 226.6,293.5 L 226.5,293.3 L 226.5,293.0 L 226.7,292.6 L 227.0,292.5 L 227.2,292.6 L 227.3,292.4 L 227.5,291.9 L 227.3,290.6 L 227.6,290.2 L 227.7,289.9 L 227.6,289.3 L 227.2,288.5 L 227.4,288.3 L 227.2,287.8 L 226.6,287.0 L 226.5,286.4 L 226.2,286.1 L 225.4,285.8 L 225.2,285.6 L 225.0,285.3 L 224.7,285.3 L 224.2,284.2 L 223.5,283.4 L 223.3,282.4 L 223.8,281.1 L 224.4,280.5 L 224.7,280.7 L 225.0,280.5 L 225.3,279.9 L 225.5,279.6 L 225.9,279.5 L 226.5,279.9 L 226.8,279.8 L 226.9,278.7 L 226.9,277.9 L 226.9,277.9 L 227.0,277.6 L 226.7,276.9 L 226.1,276.5 L 226.0,276.2 L 225.7,276.1 L 225.2,276.1 L 225.0,276.1 L 224.7,275.9 L 224.6,275.6 L 223.9,275.3 L 223.8,275.1 L 223.7,275.2 L 223.6,275.2 L 223.5,275.4 L 222.8,275.5 L 222.8,275.6 L 222.0,275.8 L 220.1,275.4 L 219.2,275.6 L 219.0,276.0 L 218.2,276.1 L 217.4,276.0 L 216.5,275.3 L 215.3,274.7 L 215.0,274.5 L 214.8,274.2 L 214.3,273.8 L 213.8,273.6 L 212.2,272.4 L 211.9,272.3 L 211.4,271.9 L 211.1,271.5 L 210.8,271.3 L 210.5,270.5 L 210.2,268.9 L 210.1,268.0 L 210.1,265.9 L 210.2,265.4 L 210.2,264.2 L 210.3,263.8 L 210.3,263.0 L 210.3,262.6 L 210.1,262.4 L 210.1,261.8 L 210.1,261.4 L 209.9,261.0 L 209.5,260.9 L 209.3,260.1 L 208.4,259.1 L 207.9,258.9 L 207.1,259.0 L 205.2,259.3 L 205.0,259.0 L 204.2,258.7 L 203.8,258.4 L 203.4,257.8 L 203.4,257.2 L 203.5,257.0 L 203.6,256.5 L 203.3,256.3 L 203.1,256.4 L 202.0,256.7 L 201.6,256.9 L 200.9,257.2 L 200.3,257.9 L 199.9,258.4 L 199.8,259.2 L 199.5,259.6 L 198.7,260.4 L 198.2,260.7 L 197.8,261.1 L 196.7,261.8 L 195.7,262.4 L 194.6,263.5 L 194.0,263.8 L 193.1,264.7 L 192.7,265.3 L 192.4,266.3 L 192.1,266.5 L 191.7,267.3 L 191.8,267.8 L 191.4,268.4 L 191.3,268.9 L 191.2,269.4 L 189.9,271.3 L 187.6,273.9 L 186.9,274.4 L 186.1,274.7 L 185.8,275.5 L 185.6,276.6 L 185.9,278.6 L 185.8,280.0 L 185.3,282.6 L 185.0,283.3 L 184.7,284.3 L 184.0,285.3 L 183.7,285.6 L 183.5,285.8 L 182.7,285.9 L 182.2,285.8 L 181.4,285.9 L 181.1,286.1 L 180.9,286.6 L 180.8,286.7 L 180.8,286.9 L 181.0,287.1 L 181.0,287.1 L 180.9,287.3 L 180.2,287.9 L 179.4,288.1 L 177.9,287.9 L 177.6,288.0 L 177.5,287.8 L 177.5,287.6 L 177.0,287.3 L 176.8,286.9 L 176.5,286.4 L 176.3,285.7 L 176.4,284.8 L 176.7,283.6 L 176.8,282.1 L 176.8,280.1 L 177.0,278.6 L 177.0,278.4 L 177.1,278.1 L 177.1,276.7 L 177.5,274.6 L 177.8,272.5 L 177.9,272.1 L 177.9,270.9 L 178.1,269.0 L 178.5,267.3 L 178.9,267.1 L 179.2,266.5 L 179.4,266.0 L 179.7,265.7 L 179.7,265.7 L 179.7,265.0 L 179.5,261.9 L 179.8,260.4 L 180.1,259.6 L 180.3,259.1 L 181.5,257.1 L 182.2,256.2 L 183.0,255.6 L 184.6,253.7 L 185.1,253.3 L 185.9,251.6 L 186.4,250.2 L 186.8,248.2 L 187.4,247.2 L 188.4,246.0 L 188.8,245.6 L 189.1,245.0 L 189.8,243.9 L 190.1,242.9 L 189.8,242.3 L 189.9,241.4 L 190.2,240.7 L 191.0,239.5 L 191.2,239.0 L 192.3,237.9 L 192.5,237.5 L 192.8,237.2 L 193.1,236.4 L 194.3,233.8 L 194.2,233.1 L 194.0,232.5 L 193.9,231.9 L 194.1,231.1 L 194.5,230.6 L 194.4,230.2 L 194.0,229.5 L 194.1,229.0 L 194.1,228.4 L 194.8,227.1 L 195.3,226.5 L 195.9,226.1 L 195.7,225.6 L 195.3,224.7 L 195.1,223.8 L 194.9,223.7 L 194.7,223.6 L 194.7,223.2 L 194.7,223.1 L 195.1,222.0 L 195.3,221.7 L 196.0,221.5 L 196.2,221.3 L 196.3,220.6 L 196.2,220.2 L 196.0,219.9 L 196.3,219.4 L 196.1,218.5 L 195.8,217.8 L 195.6,217.7 L 195.7,217.5 L 195.9,217.4 L 195.6,216.3 L 195.5,215.8 L 195.5,215.4 L 195.9,215.2 L 196.8,214.2 L 196.9,213.4 L 197.0,213.1 L 197.2,213.0 L 197.3,211.8 L 197.4,211.5 L 197.3,211.0 L 197.8,210.8 L 198.0,210.5 L 197.9,210.1 L 197.7,209.7 L 197.7,209.0 L 197.9,208.7 L 197.8,208.0 L 198.1,207.8 L 198.6,207.1 L 198.5,206.2 L 199.2,205.6 L 199.4,205.2 L 199.2,204.7 L 199.0,204.4 L 198.8,203.8 L 198.9,203.4 L 198.7,203.1 L 199.1,202.6 L 198.9,201.4 L 199.1,200.7 L 199.0,199.5 L 199.3,198.5 L 199.8,197.9 L 200.0,197.8 L 200.0,197.4 L 200.2,197.2 L 200.4,197.1 L 200.5,196.8 L 200.4,196.1 L 200.0,195.7 L 199.5,195.6 L 199.2,196.0 L 198.9,196.1 L 198.6,196.4 L 198.1,196.6 L 197.9,196.9 L 198.0,197.1 L 197.7,197.4 L 196.7,197.8 L 195.6,198.0 L 195.1,197.9 L 194.4,197.4 L 194.3,196.7 L 193.7,196.3 L 193.2,196.3 L 192.6,196.1 L 192.3,195.9 L 192.2,195.4 L 191.1,194.6 L 190.5,194.2 L 189.9,194.2 L 189.5,194.3 L 189.5,194.6 L 189.9,195.5 L 189.2,195.5 L 189.1,195.8 L 188.9,195.9 L 188.9,196.8 L 188.5,198.2 L 187.9,198.8 L 187.3,199.3 L 186.4,200.5 L 186.0,201.5 L 185.2,202.7 L 184.8,203.8 L 184.6,205.4 L 184.1,206.1 L 184.2,206.4 L 184.3,206.8 L 184.1,207.0 L 184.0,207.2 L 183.6,207.6 L 183.0,207.7 L 182.9,207.8 L 183.5,208.8 L 183.5,209.0 L 183.6,209.8 L 183.4,210.2 L 183.0,210.7 L 182.6,210.8 L 181.9,210.3 L 181.3,210.2 L 181.0,210.0 L 180.8,210.1 L 179.9,210.1 L 179.5,209.8 L 179.2,209.7 L 178.9,209.9 L 178.5,211.0 L 178.1,211.7 L 177.0,213.4 L 176.4,214.1 L 175.6,214.5 L 175.5,214.6 L 175.1,214.7 L 175.1,215.0 L 175.4,215.6 L 175.4,216.3 L 175.1,216.7 L 174.9,216.8 L 174.4,216.5 L 174.0,216.5 L 174.0,216.6 L 174.3,217.1 L 174.2,217.5 L 173.9,217.4 L 173.4,217.5 L 172.9,218.0 L 172.6,218.4 L 172.7,219.0 L 173.1,219.1 L 172.9,219.7 L 172.7,219.9 L 172.2,220.2 L 172.1,220.9 L 171.0,221.7 L 170.9,221.8 L 170.3,222.5 L 170.3,222.9 L 170.2,223.3 L 170.4,225.0 L 170.4,226.5 L 170.2,226.8 L 169.8,227.2 L 169.2,227.4 L 168.6,227.4 L 168.1,227.2 L 166.7,227.3 L 166.7,227.4 L 166.3,227.4 L 165.1,227.6 L 164.5,227.5 L 164.0,227.3 L 163.5,227.3 L 163.1,227.1 L 162.2,227.5 L 161.6,227.6 L 161.1,227.4 L 160.9,226.7 L 160.5,226.5 L 160.3,226.1 L 159.7,226.0 L 159.5,225.9 L 158.5,226.3 L 158.3,226.0 L 157.9,226.1 L 157.3,226.3 L 157.2,227.0 L 156.5,227.2 L 156.4,228.0 L 156.1,228.2 L 155.5,229.0 L 154.5,229.3 L 154.5,229.5 L 154.7,229.8 L 154.5,230.4 L 154.2,230.8 L 153.5,231.1 L 153.2,231.5 L 152.4,232.3 L 152.5,232.9 L 152.5,233.7 L 152.4,234.2 L 151.9,234.9 L 151.4,235.6 L 150.6,236.2 L 149.9,236.4 L 149.2,236.7 L 148.7,237.0 L 148.4,236.9 L 147.7,236.9 L 146.7,237.2 L 146.1,237.6 L 146.0,237.9 L 145.6,238.9 L 144.1,240.3 L 143.3,240.4 L 143.1,240.3 L 142.9,240.3 L 143.1,239.2 L 143.1,239.0 L 143.0,238.6 L 143.0,238.2 L 143.0,237.9 L 143.1,237.6 L 143.2,237.0 L 143.0,236.0 L 142.7,235.5 L 142.6,234.7 L 142.8,234.1 L 143.1,233.7 L 143.1,233.5 L 143.0,232.9 L 142.5,232.4 L 142.1,232.4 L 141.4,231.9 L 140.8,231.7 L 140.4,231.5 L 140.5,231.1 L 140.3,231.0 L 140.0,231.1 L 139.4,231.0 L 139.1,230.7 L 138.9,230.5 L 138.9,230.0 L 139.0,229.7 L 139.2,229.3 L 139.6,229.1 L 139.8,229.0 L 139.9,229.1 L 140.0,229.4 L 140.4,229.3 L 140.9,229.1 L 140.9,229.0 L 140.9,228.8 L 140.7,228.6 L 140.7,228.2 L 140.7,228.0 L 140.9,227.7 L 141.0,227.6 L 141.2,227.7 L 141.7,227.4 L 141.7,227.6 L 142.1,227.4 L 142.3,227.2 L 142.2,227.1 L 142.0,227.1 L 142.0,227.0 L 142.3,226.8 L 142.7,226.5 L 142.9,226.5" fill="none" stroke="black" stroke-width="2"/>
</svg>