<?xml version="1.0" encoding="UTF-8"?>
<svg width="400" height="400" viewBox="0 0 400 400" xmlns="http://www.w3.org/2000/svg">
  <rect width="400" height="400" fill="white"/>
  <path d="M 153.3,186.3 L 150.4,183.2 L 149.9,181.7 L 148.6,179.3 L 146.1,177.0 L 143.3,175.2 L 139.2,174.1 L 137.1,172.8 L 136.3,171.9 L 133.2,169.5 L 132.4,166.8 L 129.6,165.0 L 127.9,163.4 L 125.7,160.6 L 123.5,159.3 L 119.6,158.4 L 113.0,153.9 L 112.3,152.9 L 110.0,150.8 L 103.6,148.3 L 101.5,147.0 L 101.0,145.6 L 99.1,144.4 L 97.5,145.0 L 96.4,146.2 L 94.7,146.3 L 89.7,145.8 L 87.6,146.3 L 85.6,147.2 L 83.1,146.8 L 81.0,146.2 L 79.6,142.8 L 79.1,142.6 L 78.7,141.8 L 76.1,141.4 L 71.3,142.1 L 69.6,142.7 L 69.2,144.0 L 67.2,146.0 L 65.0,146.9 L 64.5,147.0 L 61.0,146.0 L 57.9,144.6 L 53.1,142.7 L 53.0,142.7 L 52.2,142.0 L 49.3,140.6 L 48.6,139.7 L 42.2,137.0 L 41.0,135.1 L 40.0,132.8 L 41.8,128.4 L 41.7,126.4 L 41.5,126.0 L 41.4,124.4 L 41.8,123.8 L 42.5,123.5 L 42.6,121.6 L 43.7,120.5 L 43.9,114.8 L 44.5,113.2 L 45.8,111.6 L 46.1,111.2 L 46.1,111.2 L 46.2,111.2 L 47.4,110.5 L 51.0,109.5 L 52.4,109.6 L 52.9,110.2 L 56.2,110.7 L 56.9,111.8 L 56.3,112.8 L 56.3,113.5 L 56.7,113.7 L 57.4,113.5 L 60.9,112.1 L 62.5,111.6 L 65.9,113.4 L 66.5,113.3 L 67.6,114.1 L 68.0,116.6 L 70.0,117.4 L 71.4,116.2 L 72.9,117.1 L 74.0,116.2 L 75.1,114.3 L 75.0,113.0 L 76.2,111.8 L 78.5,111.0 L 80.7,109.3 L 83.4,108.0 L 85.8,107.4 L 86.9,107.5 L 89.4,107.3 L 91.3,107.7 L 92.8,107.6 L 94.9,108.2 L 96.9,108.1 L 99.2,109.1 L 102.1,108.6 L 103.4,109.2 L 106.7,109.1 L 112.8,110.1 L 114.4,110.9 L 116.1,111.1 L 119.8,112.2 L 122.0,112.4 L 124.9,114.2 L 126.5,114.3 L 130.2,116.4 L 131.5,116.8 L 134.4,118.4 L 140.7,120.3 L 143.5,120.7 L 145.8,122.5 L 147.4,122.7 L 148.8,123.5 L 149.9,125.0 L 151.8,126.1 L 153.8,126.8 L 157.8,128.1 L 165.8,131.8 L 169.2,132.0 L 171.2,132.6 L 174.9,133.2 L 175.8,133.0 L 184.0,135.8 L 186.9,137.4 L 190.1,140.3 L 192.4,141.1 L 200.7,145.7 L 204.6,147.0 L 210.9,148.7 L 213.1,148.7 L 215.6,148.5 L 218.0,149.3 L 220.0,150.1 L 222.3,150.7 L 228.1,152.9 L 231.9,154.1 L 235.2,155.9 L 237.6,156.6 L 240.9,158.3 L 246.8,160.0 L 250.6,160.6 L 251.1,160.5 L 252.5,160.3 L 258.0,159.4 L 260.9,159.2 L 261.7,159.7 L 263.1,161.8 L 264.0,164.6 L 264.0,171.2 L 263.2,175.8 L 263.3,176.3 L 263.5,177.8 L 265.8,180.7 L 268.7,182.6 L 271.7,185.4 L 274.5,187.5 L 278.6,189.5 L 285.2,191.6 L 294.3,190.0 L 297.1,190.0 L 309.2,187.3 L 320.4,188.1 L 324.8,188.9 L 329.8,189.2 L 334.0,190.1 L 336.6,191.7 L 339.9,192.5 L 345.3,194.6 L 348.1,194.9 L 350.6,195.6 L 351.5,195.4 L 353.0,195.4 L 356.8,194.5 L 360.0,194.9 L 330.5,289.3 L 329.5,292.7 L 328.8,292.1 L 328.8,289.9 L 330.4,287.3 L 329.3,286.7 L 327.9,286.8 L 327.5,285.7 L 326.8,284.7 L 325.1,285.0 L 324.6,284.3 L 322.8,284.7 L 321.4,283.4 L 319.4,283.1 L 316.9,281.8 L 315.4,280.0 L 315.0,278.9 L 305.8,273.4 L 304.6,273.4 L 298.5,271.7 L 293.5,271.5 L 287.4,270.5 L 280.9,268.5 L 276.2,266.7 L 275.8,266.4 L 275.5,266.6 L 271.8,265.1 L 269.4,263.3 L 267.5,260.0 L 262.9,257.8 L 260.9,255.5 L 256.0,251.4 L 247.8,243.2 L 244.5,239.2 L 241.9,237.4 L 239.9,235.7 L 237.1,234.1 L 232.7,232.6 L 229.6,230.9 L 228.5,230.6 L 224.1,228.5 L 222.1,226.8 L 221.3,225.9 L 219.6,225.7 L 217.3,226.0 L 212.4,225.1 L 207.6,225.3 L 201.4,223.8 L 183.4,219.4 L 178.9,220.1 L 175.5,220.9 L 173.6,219.8 L 173.2,219.2 L 171.8,214.8 L 170.6,209.6 L 170.2,208.5 L 169.4,206.2 L 167.7,201.9 L 163.2,196.4 L 160.7,193.4 L 159.9,191.9 L 156.4,190.6 L 154.8,188.1 L 153.3,186.3" fill="none" stroke="black" stroke-width="2"/>
</svg>