<?xml version="1.0" encoding="UTF-8"?>
<svg width="400" height="400" viewBox="0 0 400 400" xmlns="http://www.w3.org/2000/svg">
  <rect width="400" height="400" fill="white"/>
  <path d="M 175.9,204.5 L 176.2,203.9 L 176.1,203.1 L 176.0,202.5 L 175.9,202.4 L 175.7,201.6 L 176.0,201.0 L 175.9,200.4 L 175.8,200.1 L 175.8,199.3 L 175.6,198.6 L 175.2,197.1 L 174.9,196.3 L 174.8,195.6 L 174.6,195.4 L 174.6,195.0 L 174.6,195.0 L 174.9,194.4 L 174.8,193.8 L 174.9,193.4 L 175.0,193.2 L 175.5,193.1 L 175.8,192.6 L 175.9,191.6 L 176.2,191.4 L 176.8,191.2 L 177.3,191.2 L 177.9,191.0 L 177.8,191.9 L 177.9,192.4 L 178.2,192.6 L 178.5,192.5 L 178.7,192.1 L 179.2,191.9 L 179.4,191.3 L 180.0,191.0 L 180.2,190.9 L 180.6,190.3 L 181.8,190.0 L 182.1,189.4 L 182.5,189.2 L 182.8,188.7 L 183.0,188.0 L 183.2,187.9 L 184.0,187.7 L 184.8,186.6 L 185.0,186.1 L 185.4,185.7 L 186.1,185.4 L 186.5,184.9 L 186.9,184.2 L 188.6,183.0 L 189.1,182.4 L 189.9,181.0 L 190.6,180.5 L 191.6,180.6 L 191.9,180.6 L 192.0,180.5 L 192.3,180.3 L 192.5,180.1 L 193.2,179.9 L 193.6,179.5 L 194.1,178.6 L 195.9,177.3 L 196.2,176.8 L 196.8,175.4 L 197.2,175.1 L 198.3,174.8 L 199.0,174.8 L 199.2,174.9 L 199.7,174.9 L 200.8,175.1 L 201.6,175.2 L 204.2,175.5 L 205.0,175.4 L 205.5,175.4 L 206.9,174.9 L 207.5,174.7 L 207.8,174.3 L 208.1,173.7 L 208.9,173.2 L 209.5,172.5 L 210.1,171.5 L 210.6,171.2 L 210.9,170.7 L 211.1,169.9 L 211.0,168.9 L 211.4,167.8 L 211.6,167.5 L 211.7,167.4 L 211.9,167.3 L 212.3,167.2 L 212.5,166.9 L 212.6,166.3 L 213.0,165.9 L 213.4,165.7 L 213.6,165.3 L 213.8,165.1 L 214.5,164.0 L 215.3,163.9 L 215.5,163.8 L 215.7,163.4 L 215.8,162.8 L 216.1,162.3 L 216.8,161.9 L 217.2,161.9 L 217.6,161.5 L 217.9,160.9 L 218.4,160.0 L 218.0,159.6 L 217.9,159.1 L 218.2,158.5 L 218.1,157.5 L 217.6,155.7 L 217.4,155.1 L 217.0,154.7 L 216.9,154.1 L 217.1,153.7 L 216.8,153.2 L 217.3,152.8 L 217.4,152.5 L 217.0,152.0 L 217.5,151.7 L 217.6,151.5 L 217.5,151.3 L 217.2,151.0 L 216.8,149.9 L 216.4,149.3 L 215.7,148.9 L 215.5,148.4 L 215.1,148.2 L 215.0,147.7 L 215.3,147.0 L 215.2,146.4 L 214.9,146.1 L 214.1,145.5 L 213.2,145.3 L 212.7,145.1 L 212.1,145.1 L 211.9,145.4 L 211.0,145.6 L 210.3,145.2 L 210.1,144.4 L 210.4,144.0 L 210.7,143.8 L 210.7,143.5 L 210.2,143.2 L 210.2,142.8 L 210.4,142.1 L 210.3,141.4 L 210.1,141.2 L 209.9,140.3 L 209.6,140.2 L 209.2,140.1 L 209.0,139.4 L 208.8,139.2 L 208.4,137.9 L 208.1,137.4 L 207.8,136.1 L 207.4,135.7 L 206.6,135.3 L 206.1,134.2 L 205.7,133.6 L 205.5,133.3 L 204.8,132.5 L 204.6,132.1 L 203.3,131.0 L 202.4,129.5 L 201.7,128.7 L 200.2,126.6 L 199.6,126.1 L 198.9,125.3 L 198.0,124.1 L 196.6,122.5 L 196.0,122.0 L 195.6,121.8 L 195.3,121.9 L 195.3,122.1 L 195.6,122.6 L 195.7,123.0 L 195.4,123.1 L 195.5,123.7 L 195.3,123.8 L 194.3,123.7 L 193.2,123.8 L 192.8,123.5 L 192.5,123.6 L 192.3,124.0 L 192.4,124.4 L 192.5,124.2 L 192.8,124.2 L 193.2,124.5 L 194.2,126.1 L 194.5,126.5 L 194.9,126.8 L 195.3,127.2 L 196.6,127.8 L 196.7,128.1 L 196.3,128.8 L 196.7,129.6 L 197.1,130.3 L 197.1,130.5 L 196.5,130.5 L 196.4,131.3 L 196.2,131.4 L 195.2,131.1 L 194.0,130.8 L 192.6,130.4 L 192.3,130.4 L 190.3,130.9 L 189.3,131.8 L 188.5,132.1 L 188.1,132.5 L 187.8,132.5 L 187.1,132.8 L 187.1,133.0 L 186.9,133.3 L 186.8,134.1 L 186.7,134.9 L 186.4,135.0 L 186.0,134.8 L 185.4,133.5 L 185.2,133.5 L 185.0,133.7 L 184.7,133.7 L 184.1,133.8 L 184.0,134.3 L 183.8,134.5 L 183.6,134.9 L 183.2,135.4 L 183.1,135.6 L 182.9,136.0 L 183.1,136.8 L 183.0,136.9 L 182.5,136.8 L 182.3,136.8 L 181.7,137.1 L 181.6,137.3 L 181.0,137.7 L 180.8,137.9 L 180.7,138.3 L 180.6,138.6 L 180.5,139.0 L 180.6,140.3 L 180.3,141.2 L 179.9,141.6 L 179.2,142.4 L 178.5,142.9 L 177.0,144.4 L 176.5,144.6 L 175.5,145.4 L 175.0,145.6 L 174.2,145.5 L 173.4,145.8 L 173.3,146.2 L 173.0,146.5 L 172.7,147.0 L 172.4,148.2 L 172.3,148.9 L 172.0,149.4 L 171.6,150.0 L 170.8,150.2 L 170.5,150.9 L 170.3,151.9 L 170.4,152.5 L 170.7,153.5 L 171.4,153.9 L 171.8,154.0 L 172.1,154.4 L 172.7,154.5 L 172.9,155.2 L 172.8,155.8 L 172.8,156.6 L 172.3,157.4 L 172.1,157.9 L 171.7,158.2 L 171.4,158.7 L 171.4,159.0 L 171.0,159.8 L 171.1,160.4 L 171.7,161.5 L 172.0,161.9 L 172.2,162.3 L 172.7,163.2 L 174.3,164.6 L 174.4,165.1 L 174.4,165.8 L 174.1,166.0 L 173.1,166.8 L 172.1,167.1 L 171.3,167.0 L 171.1,166.9 L 170.8,166.3 L 170.1,166.2 L 169.5,166.3 L 168.9,166.0 L 168.5,166.4 L 168.0,165.9 L 167.7,165.7 L 167.5,165.7 L 167.3,166.4 L 167.4,166.9 L 168.0,167.6 L 168.2,168.6 L 167.9,169.0 L 167.7,169.6 L 167.7,170.3 L 168.0,171.4 L 168.6,172.4 L 168.6,173.9 L 168.3,174.9 L 167.8,176.0 L 167.3,176.5 L 167.1,176.7 L 166.0,177.0 L 164.9,177.0 L 164.5,176.7 L 164.1,176.2 L 163.3,175.7 L 162.5,174.2 L 162.1,173.8 L 161.8,173.7 L 161.6,173.7 L 161.1,174.1 L 160.6,174.4 L 160.2,174.6 L 159.3,174.7 L 158.7,174.5 L 158.3,174.1 L 158.1,173.9 L 157.9,172.9 L 157.5,171.2 L 157.5,168.4 L 157.3,167.3 L 157.1,166.7 L 156.7,166.0 L 156.3,165.4 L 154.2,163.6 L 153.6,163.3 L 153.4,163.3 L 153.0,163.3 L 151.8,163.9 L 151.7,163.9 L 151.7,163.9 L 151.6,163.9 L 150.6,164.1 L 148.9,164.5 L 148.6,164.4 L 148.1,164.2 L 147.4,164.3 L 146.4,164.7 L 145.9,165.1 L 145.1,165.5 L 144.5,165.8 L 144.1,166.1 L 143.7,166.9 L 143.3,167.5 L 142.8,167.9 L 142.3,168.3 L 141.9,168.5 L 141.5,168.9 L 141.2,169.2 L 140.6,170.0 L 140.5,170.5 L 140.5,170.9 L 140.3,171.3 L 139.6,171.8 L 138.8,172.0 L 137.5,172.7 L 136.8,173.2 L 136.2,172.8 L 135.2,172.3 L 135.1,172.3 L 133.3,171.6 L 131.4,170.9 L 130.6,170.9 L 130.1,170.9 L 129.6,170.9 L 128.6,170.3 L 128.5,169.7 L 128.8,168.9 L 129.1,168.5 L 129.6,168.2 L 130.2,167.5 L 130.4,167.2 L 130.3,166.8 L 130.0,166.7 L 129.3,166.7 L 128.4,167.0 L 126.7,167.2 L 125.5,167.1 L 125.0,167.3 L 124.6,167.5 L 124.0,167.7 L 123.3,168.1 L 123.1,168.1 L 121.5,167.0 L 119.7,166.2 L 117.8,164.7 L 117.2,164.2 L 116.8,163.9 L 116.2,163.0 L 116.0,162.8 L 115.3,162.5 L 114.5,162.6 L 113.6,162.9 L 113.6,163.2 L 113.4,163.7 L 112.8,163.8 L 111.7,163.7 L 111.4,163.9 L 111.0,164.8 L 111.1,165.8 L 111.3,166.0 L 111.5,166.3 L 111.8,166.6 L 112.0,167.0 L 111.8,167.5 L 112.0,168.3 L 112.2,168.4 L 112.9,168.2 L 113.1,168.7 L 113.2,168.7 L 113.5,167.9 L 113.7,167.7 L 114.2,167.5 L 114.8,167.9 L 115.1,168.3 L 115.3,168.9 L 115.9,169.4 L 116.0,169.9 L 116.7,170.6 L 116.4,170.9 L 115.3,171.2 L 115.2,171.5 L 115.1,172.1 L 114.9,172.6 L 114.4,173.0 L 113.9,173.1 L 112.9,173.2 L 112.5,173.0 L 112.1,173.0 L 111.5,173.8 L 111.6,174.1 L 112.6,174.5 L 113.0,174.8 L 113.0,175.2 L 112.8,175.6 L 112.2,176.0 L 111.5,176.4 L 111.6,176.7 L 111.8,177.1 L 111.9,179.0 L 111.8,179.3 L 111.5,179.5 L 111.3,179.9 L 111.3,180.2 L 111.7,180.4 L 111.9,180.6 L 111.9,181.7 L 111.9,182.2 L 111.7,182.3 L 111.3,182.1 L 110.9,181.6 L 110.6,181.5 L 110.2,181.4 L 109.5,181.8 L 109.2,181.7 L 108.7,181.4 L 108.5,181.5 L 108.0,182.0 L 107.4,183.8 L 107.8,183.7 L 108.1,183.7 L 108.8,184.1 L 108.8,184.3 L 108.7,184.8 L 108.6,185.0 L 108.2,185.3 L 107.9,185.7 L 107.5,186.6 L 107.7,187.3 L 108.0,187.8 L 108.1,188.2 L 107.6,189.4 L 107.7,189.9 L 107.6,190.2 L 107.6,190.7 L 108.0,191.5 L 107.9,191.8 L 107.7,192.0 L 107.1,191.9 L 106.4,191.8 L 106.2,192.0 L 106.3,192.4 L 106.4,192.6 L 106.6,192.7 L 107.0,192.9 L 107.2,193.5 L 105.7,195.9 L 105.2,196.5 L 104.6,196.8 L 104.2,197.1 L 103.3,197.3 L 102.5,197.2 L 101.7,196.9 L 101.5,196.7 L 100.8,196.5 L 100.6,195.9 L 100.6,195.3 L 100.6,195.1 L 100.6,194.9 L 100.4,195.1 L 100.3,195.5 L 100.1,196.0 L 99.0,196.8 L 98.8,197.2 L 98.7,197.6 L 98.7,198.1 L 98.4,198.6 L 98.1,198.9 L 97.0,199.3 L 96.6,199.1 L 96.1,198.3 L 94.5,196.4 L 94.1,196.0 L 94.0,195.8 L 93.8,195.2 L 93.2,194.4 L 93.1,194.1 L 93.0,194.0 L 92.9,193.7 L 93.7,192.5 L 93.9,191.8 L 94.1,191.2 L 94.0,191.0 L 93.5,191.0 L 93.3,190.9 L 93.3,190.7 L 93.5,190.4 L 94.0,190.2 L 94.4,190.3 L 94.5,190.6 L 94.6,190.9 L 94.5,191.8 L 94.1,192.8 L 94.1,193.1 L 94.4,193.9 L 94.9,194.2 L 95.5,194.4 L 95.7,194.2 L 96.1,193.6 L 96.6,193.7 L 96.9,193.5 L 96.9,193.1 L 96.6,191.9 L 96.3,191.4 L 96.1,191.1 L 96.4,190.4 L 96.5,189.7 L 96.4,189.3 L 96.2,189.2 L 96.3,189.7 L 95.4,190.0 L 95.1,189.8 L 95.0,189.4 L 95.1,189.2 L 94.8,188.8 L 94.4,188.8 L 94.4,188.4 L 94.2,188.2 L 94.1,188.3 L 93.5,189.0 L 93.1,189.1 L 92.8,189.0 L 92.6,188.5 L 92.6,188.0 L 93.0,186.5 L 93.6,185.9 L 93.8,185.0 L 93.8,184.5 L 93.0,183.8 L 92.6,183.2 L 92.3,183.1 L 91.6,183.5 L 91.0,183.7 L 90.7,183.6 L 90.6,183.3 L 90.7,182.9 L 90.5,182.9 L 90.2,182.9 L 89.9,182.7 L 89.7,182.2 L 89.9,181.5 L 90.3,181.0 L 91.3,180.4 L 91.7,180.3 L 92.2,179.9 L 92.1,179.8 L 91.5,180.1 L 91.5,179.9 L 91.6,179.6 L 91.6,179.5 L 91.3,179.5 L 90.8,179.9 L 90.0,180.1 L 89.4,180.1 L 88.6,179.6 L 88.5,179.3 L 89.0,178.4 L 88.9,177.9 L 88.3,177.1 L 88.3,176.4 L 88.1,176.3 L 87.8,176.4 L 87.6,176.7 L 87.5,176.4 L 87.5,176.2 L 87.3,176.2 L 87.2,175.8 L 87.5,175.1 L 87.9,174.9 L 88.2,174.6 L 89.2,172.6 L 89.9,171.6 L 90.3,170.3 L 90.3,169.9 L 90.4,169.5 L 90.5,168.8 L 90.8,168.2 L 91.4,167.5 L 91.9,166.7 L 92.1,166.5 L 92.3,166.6 L 92.8,167.1 L 94.4,166.6 L 95.0,166.4 L 95.6,166.2 L 96.3,165.8 L 97.9,165.4 L 98.3,165.4 L 99.3,165.2 L 100.0,165.3 L 100.6,165.2 L 100.9,164.7 L 101.2,164.3 L 101.8,163.8 L 102.2,163.3 L 102.9,163.0 L 103.8,163.0 L 104.6,162.8 L 105.4,162.3 L 105.7,161.4 L 105.8,160.5 L 106.2,159.9 L 106.4,159.7 L 106.7,159.5 L 107.1,159.7 L 107.2,159.5 L 107.2,159.3 L 106.9,159.2 L 107.0,158.8 L 107.4,158.3 L 107.8,157.9 L 108.4,157.8 L 108.7,157.8 L 109.1,158.0 L 109.4,158.3 L 109.4,158.4 L 109.6,159.1 L 109.9,159.2 L 110.1,159.3 L 110.3,159.6 L 110.0,160.1 L 110.2,160.2 L 110.5,160.2 L 110.8,160.3 L 110.9,160.6 L 110.5,161.3 L 110.6,161.4 L 110.7,161.8 L 110.9,161.9 L 111.5,162.3 L 111.9,162.3 L 112.1,162.2 L 111.8,161.1 L 112.2,160.7 L 112.8,160.4 L 113.1,160.4 L 114.2,160.7 L 114.8,160.5 L 115.0,159.9 L 115.1,159.0 L 115.4,158.5 L 116.0,158.0 L 116.1,157.7 L 116.4,156.9 L 116.4,156.6 L 117.0,155.6 L 118.1,154.2 L 118.7,153.4 L 118.9,153.1 L 119.4,152.8 L 119.9,152.5 L 120.3,152.5 L 120.6,152.5 L 121.6,152.6 L 123.6,152.0 L 124.3,151.6 L 125.3,151.3 L 125.8,151.1 L 126.6,150.8 L 127.3,150.8 L 128.9,150.6 L 130.9,150.7 L 131.2,150.8 L 132.1,150.9 L 133.6,151.0 L 134.2,151.2 L 134.7,151.1 L 135.5,150.7 L 136.0,150.5 L 137.7,151.2 L 138.2,151.3 L 139.9,150.9 L 140.8,150.5 L 141.0,150.3 L 141.7,149.9 L 142.0,149.6 L 142.1,149.1 L 141.9,147.3 L 142.2,147.0 L 142.8,146.9 L 144.1,148.0 L 145.1,148.6 L 146.1,149.0 L 146.7,149.0 L 148.0,149.4 L 148.0,149.5 L 148.0,149.4 L 148.1,149.2 L 148.3,148.6 L 148.3,148.3 L 148.0,147.6 L 147.8,146.8 L 147.3,146.1 L 147.0,145.3 L 146.9,145.1 L 146.9,145.0 L 146.9,145.0 L 146.9,144.8 L 146.9,144.2 L 146.7,143.5 L 146.5,143.1 L 146.4,142.8 L 146.4,142.8 L 145.9,142.1 L 145.7,142.0 L 145.5,141.4 L 145.7,141.0 L 145.8,140.6 L 145.8,140.6 L 145.8,140.3 L 146.2,139.0 L 146.1,138.7 L 145.4,138.6 L 145.2,138.4 L 145.2,138.4 L 144.9,138.5 L 144.7,138.5 L 144.4,139.0 L 143.7,139.9 L 142.9,140.2 L 142.0,139.2 L 141.5,139.1 L 140.3,139.4 L 139.7,139.9 L 139.2,139.9 L 138.1,139.7 L 136.8,139.1 L 136.2,138.2 L 135.9,137.9 L 135.7,137.5 L 135.1,137.1 L 134.8,136.7 L 134.4,136.4 L 134.1,136.3 L 133.0,134.7 L 133.1,134.1 L 133.0,133.6 L 133.1,133.1 L 133.0,132.8 L 133.1,132.3 L 133.3,131.8 L 133.2,130.9 L 133.3,130.6 L 133.4,130.4 L 133.7,130.5 L 133.9,130.6 L 134.3,131.2 L 135.0,131.9 L 136.3,132.6 L 136.7,132.6 L 137.5,132.7 L 137.9,132.6 L 138.4,132.2 L 139.2,132.0 L 140.0,132.0 L 140.3,131.8 L 140.7,131.5 L 141.5,131.2 L 141.8,130.9 L 142.3,130.7 L 142.7,130.6 L 143.0,130.5 L 143.2,130.5 L 143.2,130.5 L 143.5,130.5 L 144.4,130.6 L 145.2,131.0 L 146.0,131.5 L 146.3,131.9 L 146.6,132.4 L 146.9,132.5 L 147.3,132.9 L 147.6,134.2 L 147.9,134.7 L 148.3,135.9 L 148.2,136.5 L 148.4,137.8 L 148.8,138.8 L 149.2,139.4 L 149.8,139.9 L 150.0,140.5 L 149.9,141.4 L 149.7,141.9 L 149.8,142.4 L 150.2,143.0 L 150.5,143.3 L 151.0,144.2 L 151.2,144.5 L 151.8,145.2 L 152.1,145.2 L 152.6,145.1 L 153.2,144.9 L 153.6,144.3 L 153.6,144.0 L 153.7,143.1 L 153.7,142.0 L 153.7,140.3 L 153.5,140.0 L 153.1,139.6 L 152.9,139.2 L 152.5,139.0 L 152.4,138.6 L 152.5,138.0 L 152.3,137.4 L 152.4,136.8 L 152.5,135.2 L 152.3,134.3 L 152.1,133.9 L 151.7,132.5 L 151.3,132.0 L 151.0,130.9 L 150.7,130.5 L 150.1,130.1 L 149.9,129.5 L 149.7,129.3 L 149.5,128.6 L 149.3,128.3 L 149.0,127.6 L 148.4,126.4 L 148.1,125.4 L 147.5,124.9 L 146.9,123.6 L 146.7,123.2 L 146.8,123.0 L 146.9,122.5 L 146.6,121.8 L 146.5,121.4 L 146.6,121.1 L 147.2,120.8 L 147.7,120.1 L 148.1,119.9 L 148.3,119.9 L 148.5,119.7 L 149.0,119.6 L 150.2,119.5 L 150.8,119.2 L 151.4,119.2 L 152.0,119.3 L 152.4,119.6 L 152.9,119.8 L 153.4,119.9 L 153.7,119.6 L 153.8,119.4 L 153.7,118.4 L 152.9,117.1 L 152.7,116.6 L 153.0,116.0 L 153.4,115.9 L 153.9,116.3 L 154.0,116.1 L 153.9,115.4 L 153.4,113.9 L 153.3,113.6 L 153.2,113.3 L 153.4,112.8 L 153.4,112.4 L 153.4,111.7 L 152.9,109.9 L 152.4,108.7 L 152.0,108.1 L 151.5,107.8 L 151.2,107.2 L 150.8,106.5 L 150.5,106.4 L 149.6,105.8 L 149.3,105.6 L 149.2,105.4 L 148.7,105.1 L 148.6,104.9 L 148.3,104.7 L 148.0,104.6 L 147.7,104.3 L 145.5,102.6 L 145.2,102.3 L 144.9,102.1 L 144.6,102.0 L 144.3,101.8 L 143.3,101.9 L 142.7,102.1 L 142.0,102.2 L 141.3,102.3 L 140.8,102.3 L 140.0,102.5 L 139.2,102.6 L 139.0,102.6 L 137.6,102.8 L 136.4,102.8 L 136.3,102.6 L 136.2,102.6 L 136.0,102.6 L 135.9,102.6 L 134.7,102.4 L 133.8,101.9 L 132.4,101.9 L 131.9,102.0 L 131.8,102.1 L 131.9,102.5 L 131.3,103.7 L 130.8,103.9 L 127.8,103.5 L 127.0,103.3 L 126.3,103.0 L 125.9,102.9 L 125.4,102.7 L 124.4,101.9 L 124.3,100.9 L 124.5,100.3 L 124.6,98.7 L 124.4,97.7 L 123.8,96.7 L 123.7,95.1 L 123.8,94.8 L 123.8,94.8 L 123.9,94.7 L 124.9,94.1 L 125.1,93.8 L 125.1,93.5 L 125.0,93.3 L 124.4,93.2 L 124.4,92.9 L 124.5,92.5 L 125.1,92.3 L 125.5,92.3 L 126.0,92.0 L 126.3,91.7 L 127.0,91.6 L 127.4,91.4 L 127.9,90.0 L 127.8,89.6 L 127.9,89.4 L 128.1,89.2 L 129.2,89.4 L 131.4,89.0 L 132.0,89.1 L 132.5,89.2 L 132.9,89.5 L 133.0,89.5 L 133.2,89.8 L 133.6,89.8 L 134.6,89.9 L 135.0,89.7 L 135.4,89.3 L 135.3,88.7 L 135.2,88.5 L 134.4,87.5 L 133.7,87.1 L 133.2,86.9 L 132.4,86.8 L 132.2,86.6 L 132.2,86.6 L 131.9,86.4 L 131.1,86.4 L 130.5,86.5 L 130.0,86.4 L 129.9,85.9 L 129.9,85.5 L 129.9,85.3 L 129.7,85.2 L 128.9,85.1 L 128.2,84.9 L 128.1,84.8 L 126.9,84.3 L 126.5,84.0 L 126.3,83.6 L 126.1,82.9 L 126.3,82.1 L 126.7,81.2 L 126.9,81.0 L 127.5,80.7 L 128.0,80.6 L 128.2,80.4 L 128.0,80.0 L 127.6,79.6 L 127.2,79.5 L 126.3,79.4 L 126.0,78.2 L 125.3,77.7 L 124.9,77.0 L 124.8,76.5 L 124.5,76.3 L 124.4,75.7 L 124.5,74.9 L 124.9,74.2 L 125.6,73.6 L 125.9,73.6 L 126.4,73.8 L 126.7,73.7 L 127.6,72.6 L 127.8,71.6 L 127.8,71.2 L 127.9,70.9 L 128.0,70.8 L 128.2,70.7 L 128.2,70.7 L 128.4,70.8 L 128.8,70.5 L 129.0,70.2 L 128.7,69.5 L 128.8,69.0 L 128.8,68.5 L 128.4,67.9 L 127.5,67.1 L 127.3,66.9 L 127.2,66.8 L 127.2,66.8 L 127.2,66.7 L 125.9,64.9 L 125.2,64.1 L 124.6,63.7 L 123.9,63.0 L 122.9,62.3 L 122.3,62.1 L 121.7,61.4 L 121.2,61.1 L 120.3,60.9 L 119.3,60.9 L 119.0,60.9 L 118.7,60.9 L 118.3,61.0 L 117.8,61.9 L 117.1,62.0 L 116.8,62.4 L 116.7,62.5 L 116.5,63.4 L 116.6,63.8 L 116.7,64.0 L 116.5,64.2 L 116.5,64.6 L 116.7,64.9 L 116.7,65.0 L 116.9,65.8 L 116.8,66.2 L 117.2,67.4 L 116.8,67.8 L 116.6,69.6 L 115.6,71.3 L 115.5,71.7 L 115.5,72.0 L 115.8,72.6 L 115.4,73.3 L 115.2,73.9 L 114.8,74.1 L 114.1,75.5 L 113.8,76.3 L 113.5,76.6 L 111.8,76.1 L 111.0,75.5 L 110.8,75.2 L 109.9,74.9 L 109.4,74.2 L 109.4,73.9 L 108.9,73.4 L 108.4,73.5 L 108.0,74.2 L 108.1,74.9 L 107.9,75.0 L 107.2,75.6 L 106.8,76.2 L 106.6,76.4 L 106.4,77.0 L 106.0,77.3 L 105.5,77.4 L 105.2,77.7 L 105.1,78.4 L 105.1,79.8 L 104.7,80.1 L 104.3,80.3 L 102.3,79.7 L 102.1,79.5 L 102.2,79.3 L 102.0,78.4 L 101.4,77.8 L 101.8,77.0 L 101.8,76.4 L 101.5,75.9 L 101.3,75.1 L 101.4,74.3 L 101.8,73.3 L 101.6,72.6 L 101.8,71.9 L 102.2,71.5 L 102.3,71.5 L 102.5,71.3 L 103.1,71.3 L 103.5,71.1 L 104.3,70.5 L 105.0,70.2 L 105.5,69.7 L 106.2,69.4 L 107.5,68.6 L 107.6,68.4 L 108.1,68.5 L 108.4,68.4 L 108.5,68.1 L 108.3,67.6 L 108.6,66.7 L 109.0,65.0 L 109.2,63.8 L 109.6,63.1 L 110.7,61.8 L 111.7,61.0 L 112.2,60.4 L 112.8,60.2 L 113.5,59.9 L 114.1,59.4 L 114.5,59.0 L 114.8,58.6 L 114.9,57.6 L 115.0,56.4 L 115.4,55.3 L 115.4,54.7 L 114.9,51.5 L 114.9,51.1 L 114.6,50.6 L 114.6,50.5 L 114.6,50.2 L 114.5,50.1 L 114.4,49.9 L 114.9,49.9 L 141.2,50.3 L 141.2,50.3 L 140.9,51.0 L 141.1,51.7 L 141.3,52.0 L 142.5,52.2 L 142.7,52.8 L 143.0,53.1 L 143.8,53.2 L 144.0,53.2 L 145.0,51.8 L 145.3,51.6 L 145.8,50.5 L 146.4,49.7 L 146.9,49.4 L 147.2,49.4 L 147.8,49.8 L 147.9,50.2 L 147.2,52.2 L 147.0,52.8 L 147.1,53.1 L 147.8,53.1 L 147.8,53.6 L 148.1,53.7 L 148.1,53.9 L 148.2,55.1 L 148.0,56.8 L 148.0,57.2 L 148.2,57.9 L 148.5,58.4 L 148.9,58.9 L 149.1,59.4 L 149.7,60.1 L 150.4,60.5 L 151.2,61.9 L 151.2,62.3 L 151.4,62.5 L 151.8,63.3 L 153.2,64.7 L 153.5,65.1 L 154.6,66.1 L 155.1,66.6 L 155.5,67.4 L 155.9,68.2 L 157.6,69.9 L 158.6,71.7 L 159.6,72.9 L 159.9,73.7 L 161.0,75.0 L 161.2,75.4 L 161.2,75.8 L 160.9,76.1 L 160.4,76.4 L 159.5,75.9 L 159.1,75.9 L 158.7,75.9 L 158.5,75.7 L 158.0,75.2 L 157.5,74.9 L 156.6,74.9 L 156.2,74.5 L 154.6,72.9 L 154.2,72.7 L 153.3,73.0 L 153.3,73.4 L 153.1,73.5 L 153.2,74.7 L 153.3,75.2 L 153.8,76.3 L 154.0,76.7 L 153.9,77.2 L 153.4,77.8 L 153.8,78.5 L 154.0,79.5 L 154.0,80.1 L 154.2,80.1 L 154.5,80.2 L 154.8,80.1 L 155.2,80.1 L 155.7,80.5 L 156.3,81.6 L 157.3,83.0 L 158.4,83.6 L 158.5,84.1 L 158.4,84.8 L 158.6,85.6 L 159.6,87.5 L 159.7,87.6 L 160.1,87.9 L 160.7,88.6 L 161.6,89.5 L 162.2,90.0 L 162.8,90.0 L 164.2,91.5 L 165.3,92.3 L 165.9,92.7 L 166.3,92.9 L 167.0,93.3 L 167.5,93.5 L 167.9,93.4 L 168.2,92.9 L 168.1,92.4 L 168.4,91.6 L 168.4,91.4 L 168.8,91.1 L 168.8,90.9 L 168.8,90.4 L 168.9,90.0 L 169.1,89.6 L 169.1,88.9 L 169.2,88.8 L 169.4,88.8 L 170.2,89.0 L 170.5,88.8 L 170.6,88.3 L 171.4,88.3 L 171.7,89.3 L 172.0,90.1 L 172.4,91.5 L 172.6,91.7 L 173.1,91.8 L 173.4,92.6 L 173.8,92.9 L 174.4,93.1 L 174.6,93.1 L 174.7,93.0 L 174.8,92.9 L 175.5,93.0 L 175.6,93.0 L 175.7,92.8 L 176.2,92.6 L 176.5,92.4 L 176.4,91.8 L 175.6,90.6 L 175.4,90.2 L 174.4,88.7 L 174.1,88.2 L 174.2,87.4 L 174.2,87.2 L 174.3,87.0 L 174.5,86.9 L 175.7,87.4 L 176.4,87.4 L 176.7,87.3 L 177.0,86.8 L 177.3,86.8 L 178.2,87.3 L 178.4,87.2 L 178.4,86.9 L 178.3,86.4 L 178.7,86.1 L 178.8,85.9 L 179.0,86.0 L 179.7,87.0 L 180.6,88.0 L 180.9,88.2 L 181.8,88.4 L 182.3,88.6 L 182.4,88.8 L 183.0,89.0 L 183.5,89.7 L 183.5,90.2 L 183.8,90.8 L 184.6,91.1 L 184.8,91.0 L 184.9,90.5 L 184.5,88.5 L 184.7,88.2 L 184.9,88.2 L 185.3,88.4 L 185.4,88.6 L 186.0,89.1 L 186.4,89.4 L 186.9,89.4 L 187.2,89.2 L 187.5,88.9 L 187.8,88.8 L 188.0,88.6 L 188.4,88.4 L 188.7,87.6 L 189.0,87.2 L 189.6,86.9 L 190.1,86.9 L 190.8,87.0 L 191.0,86.9 L 191.6,86.0 L 191.9,85.0 L 191.9,84.0 L 192.1,83.4 L 192.1,81.4 L 192.1,81.1 L 192.0,80.7 L 192.1,79.8 L 192.3,78.9 L 192.4,78.7 L 192.8,78.7 L 193.4,78.9 L 193.9,78.8 L 194.3,78.7 L 194.5,78.8 L 195.1,78.5 L 195.6,78.2 L 196.6,76.9 L 196.9,76.2 L 197.0,76.2 L 197.3,76.1 L 197.5,75.9 L 197.6,75.9 L 197.8,75.5 L 197.9,74.8 L 198.0,73.9 L 197.8,73.4 L 197.8,72.9 L 197.4,72.5 L 197.3,72.0 L 197.6,71.4 L 197.5,70.5 L 197.0,68.6 L 196.4,68.5 L 195.5,68.5 L 194.9,68.8 L 194.5,69.2 L 194.2,70.2 L 193.8,71.7 L 193.3,72.4 L 193.0,73.0 L 193.2,73.8 L 193.2,74.1 L 193.0,74.2 L 192.7,74.1 L 192.4,73.6 L 192.0,72.2 L 192.0,71.7 L 191.8,71.3 L 191.4,71.3 L 191.2,71.5 L 191.1,72.0 L 190.7,72.6 L 190.8,73.6 L 190.6,73.7 L 190.2,73.4 L 190.1,73.0 L 190.1,72.3 L 190.0,72.0 L 189.5,71.8 L 189.1,71.7 L 189.0,71.6 L 188.8,71.6 L 188.5,71.9 L 187.8,72.2 L 187.4,72.1 L 187.3,72.2 L 186.9,72.0 L 186.7,71.7 L 186.8,71.3 L 186.5,70.4 L 186.6,70.1 L 186.4,69.5 L 185.6,68.3 L 185.3,68.0 L 184.6,67.5 L 184.1,67.4 L 183.7,67.6 L 182.4,68.7 L 181.8,68.9 L 181.4,69.1 L 181.1,69.7 L 180.8,69.8 L 180.1,69.7 L 179.4,69.8 L 178.3,70.5 L 177.9,71.2 L 177.7,71.8 L 177.8,72.8 L 178.0,73.2 L 178.1,74.0 L 178.4,75.8 L 178.4,76.5 L 178.5,77.4 L 179.0,78.8 L 178.8,79.6 L 178.5,79.9 L 177.8,79.7 L 177.4,79.3 L 177.1,78.5 L 176.9,77.4 L 177.0,77.3 L 177.2,77.5 L 177.5,78.0 L 177.8,78.2 L 178.0,78.1 L 178.0,77.5 L 177.6,75.6 L 176.7,73.7 L 176.5,73.0 L 176.1,72.6 L 175.6,72.5 L 175.5,72.1 L 175.8,71.8 L 176.2,71.3 L 176.3,70.7 L 176.6,70.4 L 176.9,70.4 L 177.5,69.5 L 178.0,68.2 L 178.2,67.6 L 178.6,67.0 L 179.3,66.0 L 179.6,65.4 L 179.7,64.9 L 180.2,64.4 L 180.8,63.5 L 180.9,62.3 L 181.2,61.1 L 181.0,61.0 L 180.5,61.3 L 180.0,62.1 L 179.7,62.2 L 179.7,62.0 L 180.0,60.6 L 179.8,60.5 L 179.5,60.5 L 179.4,60.0 L 179.7,58.9 L 179.9,58.6 L 180.3,58.5 L 180.5,58.0 L 180.5,56.9 L 180.5,56.0 L 180.0,54.3 L 179.5,53.7 L 179.7,52.7 L 179.6,52.2 L 179.7,51.7 L 179.6,51.3 L 179.3,51.2 L 179.0,51.3 L 178.8,50.6 L 179.0,49.9 L 178.9,49.8 L 178.5,49.5 L 178.3,48.3 L 178.2,47.5 L 177.9,46.5 L 177.8,46.2 L 178.0,45.9 L 178.3,45.7 L 178.5,45.4 L 178.9,45.5 L 179.4,45.6 L 179.6,45.5 L 179.7,44.3 L 179.7,43.0 L 179.7,42.5 L 179.5,41.7 L 179.5,41.2 L 179.7,40.5 L 179.6,40.0 L 227.8,41.7 L 227.9,41.7 L 227.7,42.2 L 228.0,43.3 L 227.9,43.9 L 227.9,44.3 L 227.8,45.3 L 227.8,46.0 L 227.9,46.4 L 227.9,47.2 L 227.7,48.1 L 227.7,48.3 L 227.4,48.8 L 227.1,49.8 L 226.9,51.0 L 226.6,52.4 L 226.8,54.1 L 226.6,54.7 L 226.7,55.6 L 226.5,56.1 L 226.6,56.7 L 226.6,57.3 L 226.9,58.4 L 227.3,58.6 L 227.8,59.0 L 229.6,61.6 L 230.0,62.9 L 230.2,63.0 L 230.3,63.3 L 230.5,63.4 L 230.6,63.7 L 230.6,64.4 L 230.8,64.6 L 230.7,64.7 L 229.7,65.0 L 229.2,65.3 L 228.8,66.0 L 228.8,66.4 L 229.0,66.6 L 228.9,67.3 L 228.9,67.6 L 229.3,67.6 L 229.4,67.7 L 229.3,68.5 L 229.2,69.1 L 229.4,69.4 L 229.9,69.5 L 230.5,69.7 L 230.6,70.2 L 230.6,70.9 L 230.8,71.3 L 231.3,72.8 L 231.2,73.0 L 231.2,73.3 L 231.2,73.9 L 230.8,74.8 L 230.8,75.5 L 230.6,76.3 L 229.9,77.3 L 229.6,77.7 L 228.4,78.2 L 227.9,79.0 L 227.3,79.6 L 227.1,79.8 L 226.5,80.5 L 225.2,82.6 L 225.2,82.8 L 225.5,83.2 L 225.6,83.7 L 225.8,83.9 L 226.0,84.7 L 226.2,84.9 L 227.7,85.0 L 227.7,85.4 L 228.0,86.6 L 228.5,87.3 L 228.7,87.6 L 228.9,88.1 L 229.5,88.4 L 230.1,89.7 L 230.4,90.1 L 231.3,91.5 L 231.9,91.9 L 232.6,92.2 L 232.9,92.3 L 233.1,92.9 L 233.2,93.4 L 233.0,93.8 L 232.8,94.4 L 232.9,94.9 L 232.8,95.3 L 232.9,95.8 L 233.4,96.1 L 233.6,96.6 L 233.7,96.8 L 234.1,98.3 L 234.2,99.5 L 234.6,100.5 L 235.1,101.1 L 235.5,101.7 L 236.0,102.1 L 236.7,102.1 L 237.2,102.9 L 237.4,103.5 L 237.4,104.0 L 237.5,104.6 L 237.8,105.2 L 238.5,106.3 L 238.9,106.6 L 239.2,107.1 L 239.7,107.7 L 240.8,108.0 L 242.1,108.8 L 242.4,109.0 L 243.3,109.4 L 244.2,109.6 L 244.5,110.0 L 244.8,110.4 L 246.1,111.1 L 246.8,111.7 L 247.1,112.3 L 247.4,112.8 L 248.2,113.5 L 248.9,113.8 L 249.8,114.0 L 249.9,114.6 L 250.5,115.3 L 251.2,115.5 L 251.5,115.4 L 252.0,115.4 L 252.6,115.8 L 253.6,117.0 L 254.2,117.8 L 254.9,118.7 L 255.6,119.1 L 256.1,119.7 L 256.8,121.0 L 256.8,121.3 L 257.0,122.1 L 256.9,122.3 L 256.7,122.8 L 256.9,123.0 L 257.6,123.2 L 257.7,123.3 L 257.5,123.8 L 257.5,124.1 L 257.7,124.2 L 258.0,124.2 L 258.5,124.3 L 258.7,124.7 L 258.5,125.5 L 258.6,125.8 L 258.5,126.1 L 258.5,126.4 L 259.0,126.3 L 259.2,126.5 L 258.9,127.5 L 258.9,128.0 L 259.3,128.0 L 259.6,129.3 L 260.1,130.2 L 260.4,131.1 L 260.8,131.4 L 260.9,132.1 L 261.8,132.5 L 261.9,132.8 L 261.6,133.8 L 262.2,136.3 L 262.7,137.2 L 263.3,137.6 L 263.5,138.1 L 263.4,138.6 L 263.4,139.1 L 263.5,140.0 L 263.8,140.4 L 264.3,140.6 L 264.7,140.5 L 265.1,140.0 L 265.6,139.7 L 265.9,139.3 L 266.0,139.3 L 266.3,139.5 L 267.0,140.0 L 267.1,140.3 L 267.0,141.8 L 266.9,142.0 L 267.0,142.2 L 266.6,143.3 L 266.4,143.8 L 266.4,144.2 L 266.3,144.5 L 265.5,145.3 L 265.6,145.6 L 265.0,146.8 L 264.6,147.4 L 264.1,148.4 L 264.1,148.9 L 264.3,149.0 L 264.5,149.2 L 265.2,149.5 L 265.0,149.8 L 265.1,150.0 L 265.3,150.3 L 265.4,150.7 L 265.1,151.3 L 264.5,151.8 L 262.9,153.6 L 262.4,154.4 L 262.1,155.3 L 262.2,155.8 L 262.3,156.1 L 262.6,156.4 L 262.9,157.2 L 263.1,157.5 L 263.1,158.1 L 263.4,158.6 L 263.4,159.3 L 263.4,159.7 L 262.2,161.6 L 261.9,162.2 L 262.1,162.9 L 262.3,163.3 L 262.5,163.5 L 262.3,163.9 L 262.8,164.6 L 263.7,166.1 L 264.4,167.5 L 264.9,168.0 L 266.3,169.8 L 267.8,171.4 L 268.6,172.7 L 269.6,173.7 L 270.1,174.8 L 270.6,175.3 L 270.7,175.8 L 271.0,176.8 L 272.0,178.7 L 272.4,179.0 L 273.0,179.3 L 273.4,179.6 L 273.9,180.5 L 274.6,181.1 L 275.4,181.6 L 275.6,182.2 L 276.2,182.6 L 277.3,183.0 L 278.1,183.2 L 278.2,183.1 L 278.9,183.5 L 279.2,183.8 L 279.5,184.3 L 279.8,185.1 L 280.0,185.5 L 281.5,187.3 L 282.0,188.5 L 283.1,189.8 L 283.4,190.2 L 283.2,191.1 L 283.4,191.7 L 283.8,192.5 L 284.6,193.3 L 285.0,193.3 L 285.6,193.5 L 286.2,194.1 L 287.4,194.6 L 287.9,195.0 L 288.4,195.4 L 288.6,195.4 L 289.1,195.9 L 290.1,196.4 L 291.0,196.8 L 291.7,196.7 L 292.1,196.8 L 292.5,197.2 L 293.0,198.0 L 294.0,198.7 L 294.5,198.7 L 294.8,199.1 L 295.6,199.8 L 296.1,200.2 L 296.3,200.6 L 296.4,201.2 L 295.6,202.6 L 295.5,203.3 L 295.3,203.5 L 294.9,203.8 L 294.6,203.7 L 293.9,203.9 L 292.8,204.3 L 292.5,204.7 L 292.4,204.9 L 293.0,205.8 L 293.2,206.2 L 293.7,206.5 L 294.0,207.0 L 295.0,207.4 L 296.1,207.7 L 296.7,207.6 L 297.1,207.7 L 297.8,207.5 L 299.4,208.2 L 300.1,208.3 L 301.4,208.9 L 302.0,208.9 L 302.4,209.1 L 303.7,210.4 L 304.2,210.7 L 304.7,211.0 L 306.0,212.3 L 306.7,212.7 L 307.0,212.9 L 307.9,213.4 L 308.0,213.6 L 307.9,214.2 L 307.8,214.4 L 306.8,215.1 L 306.2,215.5 L 305.9,216.0 L 305.2,217.4 L 304.9,217.7 L 304.6,218.1 L 304.9,218.7 L 305.5,219.4 L 306.3,220.5 L 306.7,221.5 L 307.6,222.4 L 307.9,223.1 L 308.5,223.4 L 309.0,223.7 L 309.7,224.2 L 310.5,225.2 L 311.1,227.4 L 311.6,227.7 L 311.9,228.2 L 312.0,228.4 L 312.3,229.0 L 312.7,230.2 L 312.5,230.8 L 312.5,231.0 L 312.5,231.4 L 312.6,231.7 L 312.8,232.0 L 312.7,232.2 L 312.6,232.5 L 312.4,232.9 L 312.0,233.0 L 311.6,233.6 L 311.5,234.3 L 311.7,235.3 L 312.2,235.8 L 312.6,236.2 L 312.6,236.8 L 312.5,237.2 L 311.9,237.4 L 310.9,237.2 L 310.0,237.3 L 309.3,236.9 L 309.4,236.5 L 310.0,236.3 L 310.5,235.8 L 310.7,235.4 L 310.6,235.0 L 310.0,234.5 L 308.0,233.3 L 306.6,232.7 L 306.1,232.8 L 305.3,233.0 L 304.6,233.5 L 303.8,233.7 L 302.9,233.6 L 302.0,233.8 L 301.6,233.6 L 301.2,233.8 L 300.0,234.8 L 299.3,235.9 L 299.0,236.7 L 298.9,236.8 L 298.8,237.6 L 298.9,239.1 L 298.7,239.8 L 298.0,241.0 L 297.1,241.6 L 296.1,241.8 L 295.1,242.2 L 293.9,242.5 L 293.4,242.7 L 293.1,242.9 L 292.1,244.7 L 291.5,245.2 L 291.1,245.4 L 290.1,245.3 L 288.9,244.8 L 288.2,244.8 L 287.3,244.8 L 286.4,244.7 L 285.5,244.3 L 284.6,244.4 L 284.1,244.7 L 284.2,245.0 L 284.9,245.5 L 285.5,246.3 L 286.1,246.7 L 286.4,247.6 L 287.1,248.5 L 287.1,249.0 L 286.9,249.7 L 286.5,250.5 L 286.3,251.0 L 286.3,251.4 L 286.2,252.1 L 285.6,253.0 L 285.2,253.7 L 284.8,253.8 L 283.1,253.6 L 282.4,253.7 L 281.3,254.1 L 280.7,254.3 L 280.2,254.5 L 279.6,254.8 L 279.1,255.2 L 278.8,255.7 L 278.7,256.7 L 278.5,257.5 L 278.1,257.9 L 277.7,258.2 L 276.6,258.7 L 275.9,259.1 L 275.4,259.5 L 274.9,259.6 L 274.6,259.5 L 274.3,259.5 L 274.2,259.9 L 273.4,260.5 L 272.5,260.7 L 271.7,260.6 L 269.7,261.2 L 267.1,262.0 L 266.3,262.6 L 264.4,263.8 L 264.1,264.2 L 264.0,264.4 L 263.8,264.6 L 263.5,264.7 L 262.9,264.9 L 262.1,264.6 L 262.0,264.6 L 261.7,264.7 L 261.5,265.0 L 261.7,265.5 L 261.8,266.9 L 261.5,267.7 L 260.8,268.5 L 260.6,268.8 L 260.3,269.6 L 259.6,270.4 L 259.0,270.9 L 258.0,271.3 L 256.1,272.6 L 255.9,273.2 L 253.8,273.9 L 253.0,274.0 L 252.4,274.3 L 251.8,274.6 L 251.3,275.0 L 251.1,275.6 L 251.2,276.1 L 251.5,277.0 L 251.8,277.4 L 252.6,278.9 L 252.8,279.7 L 253.0,281.1 L 253.3,281.7 L 253.6,282.6 L 254.0,283.1 L 254.2,283.7 L 254.5,284.6 L 254.6,285.8 L 254.6,286.9 L 254.5,287.4 L 254.4,287.8 L 254.3,288.1 L 254.3,288.1 L 254.3,288.1 L 254.3,288.1 L 254.3,288.2 L 254.3,289.3 L 254.4,289.4 L 254.9,290.0 L 255.2,290.5 L 255.4,291.2 L 255.8,291.8 L 256.1,292.4 L 256.8,293.3 L 257.2,294.4 L 258.5,296.1 L 259.4,298.0 L 260.3,298.7 L 260.5,299.6 L 260.5,300.3 L 260.8,300.7 L 261.4,301.2 L 261.8,301.8 L 262.3,304.2 L 262.4,304.5 L 263.2,305.1 L 263.7,305.7 L 264.5,307.8 L 264.7,308.0 L 266.2,308.9 L 266.9,309.8 L 267.2,309.6 L 267.3,309.5 L 267.7,309.4 L 268.3,309.9 L 268.6,310.5 L 268.9,311.3 L 269.4,311.7 L 270.1,312.7 L 270.2,313.1 L 270.3,314.1 L 270.1,314.6 L 270.1,314.9 L 270.3,316.0 L 270.2,317.0 L 270.3,318.2 L 269.9,319.0 L 269.1,320.6 L 268.9,320.8 L 269.0,321.1 L 269.0,321.1 L 258.1,331.0 L 258.1,331.0 L 258.0,331.0 L 256.9,330.7 L 256.9,330.7 L 256.5,330.7 L 256.2,330.7 L 255.8,330.7 L 255.5,330.6 L 255.2,330.5 L 254.9,330.5 L 254.6,330.6 L 254.2,330.6 L 253.9,330.6 L 253.6,330.6 L 253.1,330.8 L 252.8,330.9 L 252.5,331.0 L 252.2,331.2 L 252.0,331.4 L 251.7,331.6 L 251.4,331.7 L 251.1,331.9 L 250.8,332.0 L 250.5,332.2 L 250.1,332.5 L 249.9,332.6 L 249.7,332.3 L 249.6,332.4 L 249.2,332.6 L 249.4,333.0 L 249.0,333.3 L 248.8,333.4 L 248.3,333.5 L 248.1,333.7 L 247.9,333.4 L 247.6,333.6 L 247.2,333.8 L 247.0,334.0 L 246.5,334.2 L 246.2,334.4 L 246.3,334.6 L 246.5,334.8 L 246.5,334.6 L 246.6,334.5 L 246.7,334.9 L 246.9,335.2 L 247.1,335.4 L 247.2,335.7 L 247.0,335.7 L 246.7,335.9 L 246.4,336.0 L 246.0,336.1 L 245.5,336.3 L 245.1,336.4 L 244.6,336.6 L 244.2,336.7 L 243.8,336.9 L 243.5,336.9 L 243.2,336.9 L 243.0,336.4 L 242.8,336.1 L 242.6,335.8 L 242.3,335.6 L 241.9,335.4 L 241.6,335.3 L 241.2,335.2 L 240.9,335.2 L 240.6,335.1 L 240.2,335.0 L 239.8,335.0 L 239.6,334.9 L 239.1,334.8 L 239.1,334.4 L 239.0,334.5 L 239.0,334.3 L 238.4,334.3 L 238.4,334.5 L 238.1,334.5 L 237.6,334.5 L 237.6,334.7 L 237.5,334.7 L 237.2,334.8 L 236.9,334.8 L 236.5,334.9 L 236.1,334.9 L 235.7,334.9 L 235.3,335.0 L 234.8,334.8 L 234.6,334.8 L 234.1,334.8 L 233.8,334.8 L 233.5,334.9 L 233.1,335.0 L 232.9,335.1 L 232.9,335.5 L 232.5,335.8 L 232.2,335.9 L 232.0,335.9 L 231.6,335.9 L 231.5,335.9 L 231.4,335.9 L 230.9,336.1 L 230.8,336.3 L 230.7,336.5 L 230.2,336.8 L 230.0,337.0 L 229.8,337.2 L 229.6,337.3 L 229.3,337.5 L 229.1,337.6 L 228.8,337.7 L 228.5,337.8 L 228.1,337.9 L 227.8,337.9 L 227.5,338.1 L 227.1,338.1 L 226.8,338.1 L 226.4,338.1 L 226.0,338.3 L 225.6,338.4 L 225.4,338.4 L 225.4,338.2 L 225.0,338.3 L 224.5,338.5 L 224.5,338.7 L 224.5,338.8 L 224.1,339.0 L 223.8,339.3 L 223.7,339.3 L 223.5,339.5 L 223.3,339.1 L 223.2,339.2 L 222.9,339.4 L 222.5,339.7 L 222.0,340.0 L 221.6,340.3 L 221.4,340.5 L 221.1,340.6 L 220.7,340.9 L 220.5,341.0 L 220.3,341.3 L 220.2,341.8 L 220.0,342.3 L 219.8,342.8 L 219.7,343.1 L 219.6,343.4 L 219.6,343.6 L 219.9,343.7 L 220.2,343.8 L 220.8,343.9 L 220.5,344.3 L 220.3,344.4 L 220.0,344.0 L 219.8,344.1 L 219.7,344.3 L 220.0,344.6 L 219.8,344.7 L 219.4,345.0 L 219.2,345.2 L 218.9,345.4 L 219.0,345.6 L 218.7,345.9 L 218.6,346.1 L 218.2,346.4 L 218.1,346.4 L 217.8,346.3 L 217.5,346.8 L 217.3,347.0 L 217.2,347.3 L 217.0,347.5 L 216.9,347.8 L 217.0,348.0 L 216.7,348.2 L 216.5,348.5 L 216.3,348.7 L 216.2,349.0 L 216.1,349.4 L 215.9,350.3 L 215.6,352.3 L 215.3,353.6 L 215.1,354.7 L 213.8,355.3 L 213.1,355.9 L 212.3,356.3 L 211.0,356.9 L 210.3,357.3 L 209.6,357.8 L 207.6,358.8 L 207.4,358.9 L 207.0,359.3 L 206.7,360.0 L 206.6,360.0 L 201.9,357.0 L 202.2,356.7 L 202.3,356.1 L 202.7,355.4 L 202.9,354.9 L 202.9,354.8 L 203.5,353.6 L 203.8,353.3 L 204.0,352.7 L 203.9,352.3 L 204.1,351.9 L 204.1,351.5 L 204.1,351.2 L 205.2,349.1 L 205.6,347.8 L 206.9,345.2 L 208.0,344.0 L 208.3,342.8 L 208.8,341.9 L 209.2,341.6 L 209.3,341.0 L 209.6,340.5 L 210.4,338.3 L 211.2,336.7 L 211.2,336.3 L 211.2,335.6 L 211.2,335.5 L 211.2,334.7 L 211.3,334.5 L 211.5,334.4 L 211.6,334.2 L 211.5,334.0 L 212.1,332.9 L 212.3,332.1 L 212.4,331.9 L 212.7,331.7 L 212.8,331.4 L 213.2,331.2 L 213.3,330.5 L 213.8,329.7 L 214.1,328.8 L 214.3,328.7 L 214.7,328.1 L 215.2,327.8 L 215.9,327.5 L 216.0,327.1 L 216.2,326.9 L 216.5,326.6 L 216.7,326.0 L 216.7,324.7 L 217.0,323.9 L 217.6,323.3 L 217.9,322.8 L 217.9,322.3 L 218.0,321.5 L 218.0,321.1 L 218.1,320.7 L 217.9,319.5 L 218.0,318.4 L 218.3,317.3 L 218.0,315.7 L 218.1,315.3 L 218.4,314.6 L 218.5,314.1 L 218.0,312.1 L 218.1,311.7 L 218.0,311.0 L 217.7,310.6 L 217.7,310.3 L 217.7,310.0 L 217.8,309.7 L 217.7,309.1 L 217.7,308.9 L 217.8,308.5 L 217.7,308.0 L 217.9,307.9 L 218.2,308.0 L 218.3,307.9 L 218.2,307.6 L 218.2,307.3 L 217.9,306.9 L 217.8,306.4 L 217.9,306.3 L 218.1,306.4 L 218.2,306.2 L 218.5,306.1 L 218.6,305.6 L 218.5,305.4 L 218.1,305.2 L 217.6,305.2 L 217.4,305.0 L 217.1,304.3 L 217.1,303.8 L 217.0,303.6 L 216.7,303.7 L 216.3,303.8 L 215.9,303.6 L 215.6,303.1 L 215.6,302.5 L 215.4,301.5 L 215.1,301.3 L 214.8,301.1 L 214.4,301.0 L 214.4,301.1 L 214.1,300.9 L 213.9,300.5 L 214.1,300.0 L 214.2,299.7 L 214.1,299.5 L 213.9,299.5 L 213.1,299.3 L 212.6,298.9 L 212.0,298.8 L 212.0,298.8 L 212.0,298.8 L 211.9,298.6 L 211.8,298.4 L 211.6,298.1 L 211.4,298.0 L 211.3,297.9 L 211.1,298.0 L 211.0,298.0 L 210.8,298.3 L 210.4,298.3 L 210.2,298.8 L 210.1,298.9 L 208.7,298.8 L 208.5,298.7 L 208.4,298.6 L 208.3,298.4 L 207.2,298.1 L 206.4,297.6 L 206.0,297.2 L 204.6,296.1 L 203.7,295.0 L 203.6,294.7 L 203.8,294.3 L 204.5,294.0 L 206.4,293.6 L 206.8,293.6 L 207.1,293.5 L 207.8,293.0 L 208.2,292.8 L 209.2,293.0 L 210.0,292.8 L 210.7,292.4 L 211.2,292.3 L 211.7,292.4 L 212.4,292.2 L 213.3,292.5 L 214.5,292.9 L 214.8,293.0 L 215.5,292.6 L 216.0,291.8 L 215.9,291.2 L 215.5,289.4 L 215.4,288.0 L 215.5,287.4 L 215.7,287.1 L 215.9,287.0 L 216.1,286.9 L 216.5,287.0 L 217.0,287.2 L 217.4,287.5 L 217.4,287.7 L 217.9,287.6 L 219.0,288.1 L 219.3,288.1 L 220.1,288.4 L 220.5,288.3 L 221.1,288.3 L 221.8,288.5 L 222.1,288.4 L 222.5,287.8 L 222.9,287.1 L 223.5,286.8 L 224.0,286.6 L 225.1,287.0 L 225.4,286.9 L 225.7,286.7 L 226.2,286.4 L 226.4,286.1 L 226.7,285.0 L 226.9,283.7 L 226.6,282.4 L 226.2,281.9 L 225.7,281.4 L 225.5,280.7 L 225.1,280.1 L 224.8,279.1 L 224.4,278.3 L 224.5,277.9 L 225.3,276.4 L 225.8,275.0 L 226.2,274.6 L 226.7,272.9 L 227.2,271.2 L 227.3,270.4 L 227.3,270.0 L 227.4,269.5 L 227.6,268.5 L 228.0,267.9 L 228.2,266.7 L 228.0,265.3 L 227.7,264.1 L 228.2,262.8 L 228.4,262.0 L 228.4,261.3 L 228.6,259.9 L 229.1,258.3 L 229.3,258.0 L 230.0,256.6 L 230.5,256.0 L 230.5,255.6 L 230.4,254.9 L 230.2,254.5 L 229.9,254.0 L 229.6,252.8 L 229.3,252.4 L 229.0,251.6 L 228.9,251.1 L 228.6,250.7 L 227.5,250.2 L 227.1,249.8 L 226.4,249.5 L 225.9,249.1 L 225.6,249.0 L 225.3,248.7 L 224.8,248.5 L 223.1,248.5 L 222.4,248.7 L 222.0,248.7 L 221.7,248.7 L 221.0,248.5 L 220.6,247.9 L 220.5,247.2 L 221.0,247.0 L 221.5,246.4 L 221.7,245.9 L 221.7,245.1 L 222.1,244.6 L 222.2,244.3 L 222.1,244.1 L 221.1,243.8 L 220.9,243.2 L 220.5,243.1 L 220.5,242.9 L 220.6,242.5 L 220.5,242.2 L 218.6,241.8 L 218.0,241.5 L 217.5,241.2 L 216.9,240.6 L 216.2,239.6 L 214.2,238.0 L 213.7,237.8 L 213.3,237.7 L 213.0,236.8 L 212.5,236.4 L 211.6,236.2 L 211.2,236.1 L 210.6,235.9 L 210.1,235.9 L 209.6,236.0 L 208.2,235.8 L 207.8,235.8 L 207.6,235.7 L 175.9,204.5" fill="none" stroke="black" stroke-width="2"/>
</svg>