<?xml version="1.0" encoding="UTF-8"?>
<svg width="400" height="400" viewBox="0 0 400 400" xmlns="http://www.w3.org/2000/svg">
  <rect width="400" height="400" fill="white"/>
  <path d="M 136.5,222.7 L 136.7,221.8 L 136.6,219.3 L 136.8,218.4 L 137.5,216.2 L 138.1,215.2 L 138.0,213.1 L 138.4,211.8 L 138.7,211.4 L 138.7,210.6 L 139.9,208.1 L 140.5,207.7 L 140.9,206.6 L 142.1,203.4 L 142.1,203.2 L 142.7,199.5 L 143.2,197.7 L 144.2,193.3 L 144.6,192.3 L 145.4,191.3 L 145.5,190.7 L 145.9,189.6 L 146.3,186.9 L 146.3,186.5 L 146.9,186.0 L 148.7,184.1 L 148.9,182.5 L 149.0,182.1 L 149.4,180.9 L 149.4,180.2 L 149.5,179.4 L 149.4,176.4 L 149.6,175.7 L 149.5,174.9 L 149.0,174.2 L 148.7,173.9 L 148.5,174.0 L 147.9,173.2 L 147.6,173.0 L 146.8,171.9 L 146.2,170.7 L 146.2,169.9 L 146.6,168.8 L 147.4,166.9 L 147.8,165.6 L 148.2,163.5 L 148.3,161.4 L 148.3,160.1 L 147.4,157.9 L 147.0,156.4 L 146.9,155.2 L 147.0,154.8 L 147.0,153.5 L 147.0,152.0 L 147.2,149.3 L 147.8,145.8 L 147.7,145.5 L 147.9,145.1 L 148.0,143.0 L 148.0,141.0 L 147.9,138.2 L 147.5,136.6 L 147.4,134.1 L 147.6,133.0 L 148.2,131.4 L 148.3,130.2 L 148.5,129.1 L 149.4,127.3 L 150.4,125.9 L 150.8,124.9 L 151.4,123.1 L 152.1,119.5 L 152.5,117.9 L 153.1,116.4 L 154.0,112.6 L 154.5,109.6 L 155.1,108.7 L 155.8,105.5 L 156.0,104.9 L 158.8,98.4 L 159.3,95.4 L 160.2,93.0 L 160.2,91.4 L 160.2,90.9 L 160.4,88.7 L 160.6,86.6 L 160.4,84.1 L 160.5,83.6 L 160.3,82.9 L 160.4,82.3 L 160.3,82.1 L 160.1,80.7 L 160.4,78.9 L 160.8,77.2 L 161.2,72.4 L 161.7,71.5 L 161.7,70.2 L 162.0,68.1 L 162.3,67.7 L 162.2,66.6 L 162.3,65.6 L 162.8,63.3 L 163.5,59.2 L 163.7,54.9 L 164.0,53.4 L 164.4,50.9 L 164.3,48.0 L 163.9,43.1 L 163.0,40.0 L 297.6,74.0 L 297.6,74.1 L 297.5,74.6 L 297.1,75.3 L 296.9,75.4 L 295.4,75.7 L 294.9,76.0 L 293.3,77.4 L 292.8,77.9 L 291.4,80.1 L 290.8,80.1 L 290.4,80.6 L 290.3,81.3 L 290.1,82.3 L 290.1,82.9 L 289.8,83.9 L 289.0,84.9 L 288.6,85.0 L 287.9,86.0 L 287.2,86.5 L 286.6,87.3 L 286.4,87.8 L 285.8,88.8 L 285.8,89.5 L 285.4,90.4 L 285.2,91.0 L 285.1,92.3 L 284.7,92.7 L 284.2,92.9 L 284.0,93.2 L 284.0,93.6 L 283.6,94.3 L 283.3,95.1 L 282.7,96.2 L 282.1,96.7 L 281.5,97.5 L 281.2,98.9 L 281.1,99.5 L 280.7,99.9 L 280.4,100.3 L 280.4,101.5 L 280.0,102.2 L 280.0,102.8 L 279.7,103.4 L 279.4,104.6 L 279.1,105.7 L 278.1,106.9 L 277.4,107.5 L 277.3,108.1 L 276.9,108.9 L 275.6,110.3 L 274.6,112.3 L 273.7,113.3 L 272.7,113.9 L 271.1,115.3 L 269.7,116.4 L 268.2,117.0 L 267.1,117.6 L 265.5,118.9 L 265.0,119.4 L 262.3,122.2 L 260.5,124.4 L 259.6,126.1 L 258.6,129.2 L 258.5,129.7 L 258.6,130.3 L 258.2,131.5 L 257.7,134.0 L 256.8,138.5 L 256.3,139.4 L 255.8,141.3 L 255.3,142.5 L 255.0,142.9 L 254.7,144.1 L 253.7,147.3 L 252.1,150.8 L 251.7,152.2 L 251.1,153.4 L 250.4,154.3 L 249.6,155.9 L 249.3,156.1 L 248.8,156.9 L 248.4,158.4 L 247.0,161.3 L 246.3,162.1 L 245.9,162.8 L 243.2,167.1 L 242.6,167.8 L 241.9,168.9 L 241.7,169.6 L 240.2,171.6 L 239.2,172.9 L 238.6,174.0 L 238.6,174.4 L 238.3,175.7 L 238.1,176.7 L 237.0,179.0 L 236.7,179.4 L 236.3,180.2 L 235.9,181.6 L 234.7,183.6 L 234.4,184.4 L 233.7,185.5 L 232.6,187.6 L 230.3,191.1 L 229.4,192.7 L 228.4,194.0 L 227.1,196.0 L 225.2,198.8 L 224.5,200.0 L 223.1,203.1 L 222.6,204.6 L 220.4,208.9 L 219.5,210.6 L 218.9,211.6 L 217.7,214.3 L 215.2,219.7 L 214.5,220.9 L 212.7,222.7 L 210.4,225.5 L 209.6,226.5 L 209.5,226.8 L 209.1,226.9 L 207.7,228.3 L 207.4,228.4 L 207.3,228.6 L 206.1,231.8 L 205.1,233.1 L 204.3,233.6 L 203.0,234.3 L 201.9,235.4 L 199.2,238.7 L 196.8,240.8 L 195.6,241.4 L 194.1,241.7 L 193.4,242.1 L 192.2,243.3 L 190.9,244.6 L 189.7,245.5 L 189.1,246.5 L 188.8,246.6 L 188.4,246.2 L 188.1,246.1 L 186.9,248.6 L 186.2,248.8 L 184.9,250.0 L 183.6,250.8 L 183.0,251.2 L 182.4,251.7 L 180.6,253.3 L 179.2,255.0 L 178.2,256.0 L 176.6,257.3 L 175.5,258.6 L 175.1,259.6 L 175.5,261.2 L 175.3,261.6 L 174.7,262.1 L 174.3,262.1 L 173.9,261.9 L 173.1,261.8 L 173.0,261.4 L 172.8,261.1 L 172.5,261.4 L 172.0,261.0 L 171.7,261.1 L 171.3,261.8 L 171.0,261.8 L 170.6,261.1 L 170.4,261.2 L 169.7,262.3 L 169.4,263.6 L 168.9,264.5 L 168.7,265.7 L 168.7,266.8 L 168.4,267.6 L 167.6,269.5 L 167.1,271.1 L 166.9,272.0 L 167.2,272.3 L 167.3,272.5 L 167.8,272.4 L 168.1,272.7 L 169.0,272.9 L 169.2,273.3 L 169.0,273.9 L 168.6,274.0 L 168.3,274.9 L 168.1,275.8 L 167.7,276.1 L 167.6,275.7 L 167.4,275.5 L 167.1,276.1 L 167.2,276.8 L 167.1,277.4 L 166.8,277.8 L 166.9,278.6 L 166.7,279.8 L 166.5,280.1 L 166.4,280.8 L 166.7,281.9 L 166.4,282.0 L 166.0,284.1 L 166.0,284.4 L 166.8,284.3 L 167.5,285.1 L 168.1,285.5 L 169.7,285.8 L 170.4,286.0 L 171.6,287.1 L 173.1,288.8 L 173.9,290.6 L 174.2,291.9 L 174.1,292.8 L 173.7,293.4 L 173.1,293.9 L 172.2,294.4 L 171.0,295.4 L 169.1,296.8 L 168.5,297.1 L 168.0,298.3 L 168.0,299.1 L 168.4,299.3 L 168.5,300.2 L 168.8,301.6 L 170.5,301.8 L 172.0,301.8 L 172.9,301.9 L 173.7,302.5 L 174.6,303.5 L 175.2,304.5 L 175.4,306.4 L 175.6,306.6 L 175.8,306.8 L 175.8,306.8 L 176.3,306.9 L 176.7,307.2 L 176.7,307.4 L 176.0,307.6 L 175.8,307.9 L 175.7,308.4 L 175.5,310.0 L 175.9,310.6 L 175.9,311.4 L 176.3,312.1 L 176.4,312.5 L 176.1,312.9 L 175.4,313.1 L 172.1,314.8 L 171.2,315.0 L 170.8,314.9 L 169.4,314.0 L 168.6,314.0 L 167.2,314.5 L 166.5,314.9 L 166.0,315.5 L 165.2,317.4 L 164.4,318.5 L 163.7,318.6 L 163.1,318.9 L 163.0,319.6 L 163.3,320.5 L 163.6,323.2 L 163.7,323.8 L 164.4,324.2 L 166.9,324.0 L 168.0,324.4 L 168.4,324.9 L 168.6,326.1 L 168.8,327.7 L 168.6,328.6 L 168.1,329.3 L 166.9,330.3 L 166.9,330.3 L 166.1,331.9 L 165.8,332.8 L 165.2,333.6 L 164.5,334.9 L 164.5,335.5 L 164.1,336.6 L 164.1,337.1 L 164.3,337.4 L 164.7,337.6 L 165.9,337.5 L 166.9,336.8 L 167.4,336.2 L 167.8,335.1 L 168.8,334.1 L 169.2,332.8 L 169.6,332.6 L 170.7,332.5 L 171.3,332.7 L 172.1,333.3 L 172.7,334.0 L 172.8,334.7 L 172.7,335.4 L 172.2,336.0 L 170.4,336.8 L 169.6,337.3 L 168.9,338.2 L 168.5,339.2 L 168.4,340.0 L 168.4,341.3 L 168.7,341.4 L 118.1,360.0 L 118.1,359.6 L 118.0,359.2 L 117.6,359.0 L 117.2,359.0 L 117.0,358.7 L 116.7,357.7 L 116.2,356.8 L 115.7,356.9 L 113.8,358.1 L 108.0,339.8 L 108.5,339.7 L 109.3,339.4 L 109.7,338.8 L 109.9,338.0 L 110.3,335.7 L 110.5,334.1 L 110.9,333.0 L 111.3,329.2 L 111.3,328.5 L 111.6,325.6 L 111.9,325.1 L 112.0,324.5 L 112.3,323.8 L 112.9,321.3 L 113.2,320.5 L 113.2,320.0 L 113.0,319.8 L 113.3,318.2 L 113.8,317.4 L 113.6,315.4 L 113.6,315.0 L 113.0,314.7 L 113.0,314.1 L 112.9,313.8 L 112.9,313.8 L 112.7,313.6 L 112.5,313.4 L 112.3,312.7 L 112.2,312.1 L 112.0,311.7 L 112.2,311.3 L 112.7,311.0 L 112.4,309.4 L 112.1,309.3 L 111.8,309.2 L 111.7,307.8 L 111.8,306.2 L 112.1,304.8 L 112.8,303.1 L 113.0,301.5 L 112.9,301.2 L 112.7,300.8 L 112.3,297.6 L 111.8,297.0 L 111.2,296.9 L 110.4,297.0 L 109.6,296.4 L 107.9,294.4 L 107.0,294.0 L 102.4,283.8 L 102.4,283.7 L 102.8,283.6 L 103.8,283.5 L 104.3,283.4 L 104.9,283.1 L 105.0,283.2 L 106.1,283.0 L 107.0,282.4 L 108.2,282.1 L 109.4,281.6 L 110.4,280.3 L 111.0,278.5 L 112.7,275.3 L 112.7,274.9 L 113.1,274.1 L 113.3,272.2 L 113.7,271.0 L 113.9,270.4 L 114.6,269.3 L 114.7,268.8 L 116.3,267.0 L 116.7,265.7 L 117.5,264.4 L 117.6,264.3 L 117.7,263.8 L 118.8,262.5 L 119.6,261.1 L 119.9,261.0 L 120.3,260.1 L 120.7,259.9 L 121.1,259.1 L 122.4,255.8 L 123.1,254.6 L 125.4,251.5 L 125.9,250.8 L 126.7,249.8 L 127.2,248.8 L 128.5,246.5 L 131.0,241.0 L 131.9,239.8 L 134.1,235.1 L 134.5,233.8 L 134.9,231.4 L 135.2,230.5 L 135.2,229.3 L 135.1,228.5 L 135.1,227.8 L 135.2,226.9 L 136.1,225.2 L 136.4,223.5 L 136.5,222.7" fill="none" stroke="black" stroke-width="2"/>
</svg>