<?xml version="1.0" encoding="UTF-8"?>
<svg width="400" height="400" viewBox="0 0 400 400" xmlns="http://www.w3.org/2000/svg">
  <rect width="400" height="400" fill="white"/>
  <path d="M 184.4,203.7 L 184.5,202.6 L 184.7,202.1 L 185.0,200.9 L 185.0,200.2 L 185.1,199.8 L 184.9,198.4 L 184.8,197.7 L 184.9,196.7 L 184.8,196.2 L 185.0,196.0 L 185.1,195.1 L 185.0,193.7 L 185.2,192.7 L 185.1,192.2 L 184.9,192.0 L 184.5,191.8 L 184.6,191.6 L 184.8,191.3 L 184.8,190.5 L 184.7,189.5 L 184.1,188.5 L 183.6,188.0 L 183.0,187.9 L 182.4,188.0 L 182.1,188.2 L 181.9,188.1 L 181.9,188.0 L 181.9,187.7 L 182.2,187.4 L 182.5,187.3 L 182.9,186.8 L 183.0,186.4 L 182.8,185.3 L 183.3,184.5 L 183.4,183.9 L 183.5,183.7 L 183.4,182.5 L 183.4,181.3 L 183.2,180.4 L 182.7,179.9 L 182.3,177.8 L 182.4,177.5 L 182.5,176.4 L 182.6,176.1 L 182.5,175.1 L 182.6,174.3 L 182.5,173.6 L 182.3,173.3 L 182.1,172.8 L 182.0,172.2 L 182.3,171.5 L 182.5,170.4 L 182.7,170.2 L 183.3,170.1 L 183.3,169.9 L 183.4,168.7 L 183.1,167.6 L 182.5,166.6 L 182.1,165.7 L 181.6,164.0 L 181.5,162.5 L 181.6,162.0 L 181.6,161.6 L 181.8,161.0 L 181.8,160.6 L 182.0,160.0 L 182.0,159.6 L 181.9,159.2 L 182.2,158.7 L 182.2,158.1 L 181.9,156.6 L 181.3,155.3 L 181.1,154.4 L 180.8,154.1 L 180.4,153.2 L 180.1,152.7 L 179.7,151.7 L 179.3,151.0 L 178.8,150.9 L 178.3,150.7 L 177.7,150.7 L 177.4,151.0 L 177.3,151.4 L 177.2,152.6 L 177.0,153.4 L 176.8,153.9 L 175.4,154.1 L 175.0,154.0 L 174.5,154.1 L 174.2,154.4 L 173.0,155.4 L 171.8,156.3 L 170.2,156.6 L 169.3,156.7 L 168.3,156.9 L 168.1,157.1 L 167.9,157.5 L 167.6,157.8 L 167.1,158.0 L 166.8,158.3 L 165.9,158.6 L 165.2,159.0 L 165.0,159.1 L 164.5,159.2 L 164.1,159.8 L 163.8,160.0 L 163.2,160.4 L 162.4,161.4 L 162.2,161.9 L 162.0,162.2 L 161.7,162.3 L 161.2,162.8 L 160.7,163.5 L 160.6,163.8 L 160.0,164.6 L 159.4,165.6 L 158.8,166.4 L 158.0,167.3 L 156.9,168.2 L 155.3,169.2 L 154.7,169.7 L 154.2,169.9 L 153.6,170.2 L 153.1,170.4 L 151.7,170.5 L 150.9,170.2 L 150.8,170.3 L 150.7,170.2 L 150.3,170.1 L 150.1,170.1 L 149.3,169.6 L 148.8,168.7 L 148.4,168.5 L 147.9,167.3 L 147.5,165.5 L 147.9,164.8 L 147.9,164.4 L 147.4,164.1 L 147.6,163.9 L 148.0,163.6 L 149.0,163.2 L 150.0,163.1 L 151.1,163.0 L 152.5,162.8 L 154.0,161.6 L 154.5,161.1 L 154.9,160.9 L 155.5,159.9 L 156.0,159.3 L 156.1,158.9 L 156.0,158.3 L 155.3,157.6 L 154.8,157.0 L 154.7,156.6 L 154.6,156.2 L 154.7,155.8 L 154.7,155.0 L 154.9,154.5 L 155.5,153.9 L 156.9,153.4 L 157.6,153.3 L 158.0,152.9 L 158.7,152.6 L 159.4,152.3 L 160.6,151.6 L 160.8,151.5 L 161.4,151.1 L 161.8,151.0 L 162.9,150.1 L 163.1,149.8 L 163.3,149.6 L 163.6,149.0 L 164.4,148.3 L 164.5,147.9 L 165.0,147.4 L 165.6,145.8 L 166.0,145.2 L 166.3,144.4 L 166.5,143.9 L 166.7,143.5 L 168.7,140.2 L 169.3,139.4 L 169.6,139.2 L 170.5,138.1 L 170.8,137.8 L 171.2,137.4 L 171.8,137.0 L 172.9,136.6 L 173.5,136.6 L 173.7,136.7 L 174.1,136.8 L 174.4,137.0 L 176.1,137.6 L 176.9,138.0 L 177.4,138.2 L 178.1,138.1 L 178.5,137.6 L 178.3,135.9 L 177.3,134.5 L 177.1,133.9 L 177.0,133.7 L 176.6,132.8 L 176.4,131.2 L 176.6,130.7 L 177.1,129.3 L 177.2,128.2 L 177.7,127.5 L 178.1,127.2 L 178.3,126.7 L 178.9,125.2 L 179.1,125.0 L 179.4,124.8 L 179.6,124.8 L 180.0,125.1 L 180.5,125.0 L 180.7,124.6 L 180.7,124.0 L 180.7,123.8 L 180.6,123.1 L 180.4,122.8 L 180.1,122.4 L 179.9,122.3 L 179.7,122.1 L 180.0,121.7 L 180.1,121.3 L 180.2,121.0 L 179.9,120.5 L 179.6,119.8 L 179.6,119.5 L 179.7,119.0 L 179.5,116.9 L 179.5,116.2 L 179.7,115.6 L 179.6,114.8 L 179.4,114.6 L 179.5,113.6 L 179.2,112.6 L 179.1,112.2 L 179.0,111.9 L 179.2,111.6 L 179.1,111.3 L 179.1,111.1 L 179.1,110.4 L 178.9,110.1 L 178.7,110.1 L 178.7,110.7 L 178.5,110.7 L 178.4,110.5 L 178.1,110.3 L 177.3,110.5 L 176.7,110.7 L 176.6,110.4 L 176.3,110.4 L 176.1,110.5 L 175.8,110.7 L 175.6,111.0 L 174.7,111.3 L 174.1,111.4 L 173.8,111.3 L 173.1,110.7 L 173.1,110.1 L 173.3,110.0 L 173.6,109.9 L 173.6,109.7 L 173.4,109.3 L 173.1,109.4 L 172.9,109.5 L 172.7,109.3 L 172.5,109.1 L 172.5,107.9 L 172.5,106.8 L 172.7,106.0 L 173.0,105.3 L 172.9,104.4 L 173.0,104.1 L 173.0,103.6 L 173.2,103.0 L 173.0,101.7 L 172.6,100.6 L 172.1,99.8 L 171.8,98.9 L 171.6,98.1 L 171.5,97.2 L 171.6,96.9 L 171.7,96.6 L 171.7,96.6 L 171.7,96.5 L 172.1,96.0 L 173.4,95.8 L 174.2,95.2 L 174.4,95.1 L 174.5,94.8 L 174.6,93.7 L 174.5,92.8 L 174.8,92.3 L 174.7,91.5 L 174.5,91.0 L 174.3,90.6 L 174.2,90.2 L 174.6,89.5 L 174.8,89.2 L 174.9,88.9 L 175.4,88.7 L 175.8,87.9 L 175.8,87.6 L 176.1,86.9 L 176.3,86.7 L 176.2,85.9 L 176.0,85.6 L 176.0,85.3 L 175.9,85.1 L 175.7,85.1 L 175.4,85.4 L 175.1,85.4 L 174.8,85.2 L 174.6,84.7 L 174.9,84.1 L 175.0,84.0 L 175.2,83.0 L 175.2,82.2 L 175.4,81.8 L 175.5,81.3 L 175.7,80.8 L 175.7,80.1 L 175.6,79.7 L 175.2,79.4 L 174.6,79.1 L 174.1,78.7 L 174.0,77.7 L 174.7,76.4 L 174.3,75.1 L 173.7,74.6 L 173.5,74.0 L 173.2,73.8 L 173.2,73.1 L 173.3,72.4 L 173.6,71.8 L 173.9,71.4 L 174.1,71.2 L 174.3,70.9 L 174.2,70.3 L 174.6,70.1 L 174.7,69.8 L 175.0,69.5 L 175.2,69.5 L 175.5,69.5 L 175.6,69.3 L 175.4,67.7 L 175.6,66.4 L 176.3,64.9 L 176.7,64.3 L 177.9,63.3 L 178.3,63.2 L 178.7,63.1 L 179.2,62.7 L 179.6,62.5 L 179.8,62.5 L 180.1,62.8 L 180.3,62.7 L 180.5,62.4 L 180.8,60.9 L 180.8,59.9 L 180.8,59.4 L 180.6,59.1 L 181.0,58.3 L 181.1,57.3 L 181.5,56.1 L 182.0,55.5 L 182.3,55.4 L 182.6,55.0 L 182.8,54.4 L 182.6,53.9 L 182.4,53.5 L 182.4,53.1 L 182.9,51.3 L 183.4,50.1 L 183.4,49.5 L 183.7,48.9 L 184.8,45.8 L 185.3,44.4 L 185.4,43.3 L 185.8,42.5 L 185.9,41.8 L 185.7,41.1 L 185.5,40.9 L 184.6,41.1 L 184.8,40.8 L 185.7,40.1 L 185.8,40.0 L 227.2,71.5 L 227.3,71.6 L 227.5,72.2 L 228.2,73.3 L 228.5,73.8 L 230.0,74.9 L 230.7,75.6 L 230.8,76.3 L 231.2,77.1 L 231.5,79.1 L 231.3,79.8 L 231.4,80.7 L 231.1,81.8 L 230.8,82.2 L 230.3,82.3 L 230.2,82.5 L 230.2,83.2 L 230.5,83.3 L 230.6,83.4 L 230.5,84.1 L 230.2,84.7 L 229.8,85.7 L 229.4,86.2 L 228.6,88.3 L 228.4,88.5 L 228.2,88.2 L 227.9,88.2 L 227.7,88.8 L 226.5,90.0 L 226.2,90.4 L 225.9,90.8 L 225.9,91.0 L 225.7,91.3 L 225.6,92.2 L 225.9,92.6 L 225.7,92.7 L 225.7,93.0 L 225.9,93.9 L 226.3,94.4 L 226.6,94.5 L 227.4,94.0 L 227.8,94.3 L 228.0,94.7 L 228.0,95.3 L 227.9,95.6 L 227.8,96.5 L 227.9,97.2 L 228.2,97.6 L 228.3,97.9 L 228.4,98.2 L 228.6,98.2 L 228.9,98.5 L 229.3,99.5 L 230.1,100.8 L 230.1,101.6 L 230.0,102.0 L 229.7,102.4 L 229.6,102.9 L 230.6,103.8 L 231.2,104.4 L 232.1,105.7 L 232.1,107.6 L 232.0,108.2 L 231.8,108.9 L 231.1,109.8 L 230.7,109.9 L 230.4,109.6 L 230.0,109.7 L 229.8,109.9 L 229.9,110.3 L 229.7,110.6 L 229.4,111.0 L 229.3,113.0 L 231.3,114.4 L 231.8,115.0 L 232.0,116.0 L 232.7,117.2 L 233.7,117.9 L 233.9,117.8 L 234.1,117.9 L 233.8,118.1 L 233.9,118.5 L 234.1,118.9 L 234.6,118.8 L 234.8,119.1 L 235.3,120.1 L 236.9,121.4 L 238.6,122.9 L 238.9,123.3 L 239.3,123.6 L 239.9,124.1 L 240.1,124.3 L 240.2,124.3 L 240.4,124.6 L 241.2,125.2 L 241.7,125.4 L 241.9,125.7 L 242.7,126.3 L 243.3,127.6 L 243.4,128.5 L 243.4,128.7 L 243.2,129.5 L 242.8,130.2 L 242.5,130.8 L 242.4,130.6 L 242.6,130.0 L 242.7,129.7 L 242.7,129.5 L 242.5,129.4 L 241.8,129.9 L 241.5,130.1 L 239.4,131.6 L 237.9,132.3 L 236.8,132.5 L 236.2,132.3 L 235.7,132.0 L 235.0,131.7 L 234.4,131.3 L 233.5,131.0 L 232.9,130.6 L 231.8,129.7 L 231.4,129.6 L 230.4,128.8 L 229.7,127.7 L 229.6,127.2 L 229.8,126.8 L 229.8,126.5 L 229.6,126.2 L 229.5,126.2 L 229.5,126.3 L 229.4,126.5 L 229.1,126.3 L 228.9,126.0 L 228.7,126.0 L 228.3,126.3 L 227.7,126.2 L 227.3,126.0 L 226.9,126.0 L 226.7,125.8 L 226.5,125.7 L 226.1,126.2 L 226.0,126.5 L 225.6,126.9 L 225.3,127.2 L 224.9,127.3 L 224.3,127.1 L 223.8,126.2 L 223.7,126.3 L 223.5,126.9 L 223.4,128.0 L 223.4,128.1 L 223.3,128.5 L 223.2,128.9 L 223.4,129.4 L 223.5,130.1 L 223.4,130.7 L 223.3,131.1 L 223.1,131.8 L 222.9,132.2 L 222.9,132.5 L 223.0,132.6 L 223.1,132.8 L 222.9,134.5 L 222.5,135.1 L 222.5,136.5 L 222.6,136.6 L 222.8,136.5 L 222.9,136.5 L 223.1,138.0 L 223.4,139.4 L 223.9,140.5 L 223.9,142.3 L 224.3,143.3 L 224.3,143.6 L 224.0,143.8 L 223.7,144.1 L 223.8,144.5 L 224.0,145.0 L 224.6,146.4 L 224.8,146.6 L 225.1,146.6 L 225.7,146.8 L 226.2,147.2 L 226.4,147.6 L 226.5,148.6 L 226.4,149.4 L 226.5,150.1 L 225.8,151.0 L 225.8,151.4 L 226.0,151.5 L 226.0,151.7 L 225.4,152.2 L 225.1,153.0 L 225.3,154.6 L 225.7,156.1 L 226.5,159.0 L 227.6,160.7 L 227.8,161.5 L 227.7,161.6 L 227.7,163.0 L 228.0,163.6 L 228.2,163.7 L 228.4,164.1 L 228.5,164.6 L 229.0,165.4 L 229.3,166.2 L 229.5,167.4 L 229.5,168.2 L 229.6,168.7 L 229.6,169.3 L 230.0,170.0 L 230.8,170.8 L 231.2,171.4 L 231.3,172.1 L 231.5,172.5 L 231.6,173.3 L 231.1,174.8 L 231.1,175.4 L 230.9,176.1 L 230.4,177.2 L 230.4,177.9 L 230.5,178.0 L 230.9,178.3 L 231.3,179.4 L 231.7,179.7 L 232.1,180.3 L 232.2,180.4 L 232.5,181.2 L 232.5,182.0 L 232.6,182.8 L 232.4,183.1 L 231.8,184.1 L 231.8,184.2 L 231.6,184.5 L 231.7,184.9 L 231.5,185.6 L 231.6,186.1 L 231.5,187.3 L 231.4,187.9 L 231.2,188.1 L 231.2,188.3 L 231.3,188.8 L 231.5,189.1 L 231.5,189.1 L 232.0,193.6 L 232.1,196.0 L 232.0,196.3 L 232.1,197.8 L 232.0,198.1 L 232.1,198.8 L 232.4,199.3 L 232.5,200.1 L 232.1,200.6 L 231.6,201.0 L 231.4,201.1 L 230.9,201.8 L 230.7,202.3 L 230.6,203.0 L 230.5,203.5 L 230.4,204.2 L 230.3,204.9 L 230.5,206.6 L 230.7,207.4 L 230.9,207.6 L 231.3,208.0 L 231.7,208.8 L 231.8,210.4 L 231.9,211.3 L 232.1,212.7 L 232.4,215.0 L 232.3,216.0 L 232.2,217.5 L 231.9,218.6 L 232.0,218.9 L 232.3,219.3 L 232.9,219.9 L 233.5,220.7 L 233.6,221.4 L 233.4,222.5 L 232.8,223.3 L 232.2,223.5 L 231.6,224.1 L 231.5,224.8 L 231.3,225.6 L 231.1,225.9 L 231.0,226.2 L 231.4,226.9 L 231.1,228.2 L 231.0,229.5 L 230.4,230.2 L 230.4,230.6 L 230.2,231.3 L 230.2,231.4 L 230.3,231.5 L 230.5,231.9 L 230.7,232.0 L 231.1,233.0 L 231.4,233.3 L 230.9,234.5 L 230.9,234.8 L 230.7,235.1 L 230.7,235.3 L 230.2,235.4 L 229.2,236.0 L 228.8,236.4 L 228.9,237.3 L 229.1,237.4 L 229.2,237.6 L 229.7,237.8 L 230.1,237.9 L 230.2,237.8 L 230.8,237.9 L 231.0,238.2 L 231.0,238.6 L 230.6,239.0 L 230.4,239.2 L 230.4,239.6 L 230.1,240.1 L 229.8,240.7 L 229.5,241.8 L 229.7,242.3 L 230.1,245.1 L 229.8,246.1 L 229.5,246.7 L 229.4,247.5 L 229.2,247.8 L 229.2,247.8 L 229.0,247.9 L 228.6,248.5 L 228.2,248.8 L 228.2,248.8 L 227.9,249.3 L 228.0,250.3 L 227.9,250.9 L 227.7,251.3 L 226.7,251.4 L 226.4,251.7 L 225.6,252.6 L 225.5,253.6 L 225.4,254.1 L 225.1,254.3 L 224.9,254.6 L 224.5,254.7 L 223.9,254.5 L 223.4,253.8 L 223.5,253.5 L 223.4,253.1 L 223.3,252.9 L 223.2,252.6 L 223.1,251.5 L 222.8,251.1 L 222.4,250.9 L 222.1,250.9 L 222.0,250.8 L 222.2,250.5 L 222.1,250.3 L 221.9,250.4 L 221.8,250.7 L 221.6,251.0 L 221.0,251.2 L 221.0,252.4 L 220.6,254.1 L 220.2,254.6 L 220.2,255.0 L 220.5,255.2 L 220.8,256.2 L 221.4,256.9 L 221.5,257.7 L 221.9,257.8 L 221.9,258.2 L 222.2,258.6 L 222.6,258.6 L 222.8,258.7 L 222.9,259.6 L 222.8,260.2 L 223.3,260.5 L 223.7,260.7 L 224.3,260.0 L 224.9,260.1 L 224.9,260.2 L 224.8,260.7 L 224.9,260.8 L 225.1,260.9 L 225.2,261.2 L 225.4,261.8 L 225.0,263.4 L 224.7,263.8 L 224.5,264.0 L 224.2,263.8 L 224.2,263.6 L 224.1,263.3 L 223.7,263.2 L 223.0,263.4 L 222.8,263.7 L 222.6,264.1 L 222.4,264.7 L 222.7,265.0 L 222.8,266.0 L 223.2,266.7 L 223.0,267.3 L 223.0,267.7 L 223.0,268.0 L 223.0,268.2 L 222.5,268.3 L 222.1,269.1 L 221.7,269.2 L 221.5,269.5 L 221.4,269.8 L 221.3,270.0 L 221.4,271.6 L 221.4,272.1 L 221.4,272.4 L 221.2,272.7 L 220.9,272.8 L 220.6,273.0 L 220.1,273.2 L 219.9,273.0 L 219.5,273.1 L 218.2,273.5 L 216.5,273.8 L 216.1,273.7 L 215.2,273.7 L 214.0,273.9 L 213.2,274.3 L 212.5,274.4 L 212.3,274.8 L 211.8,274.9 L 211.6,275.2 L 210.7,276.6 L 210.5,276.7 L 210.3,276.9 L 210.2,277.9 L 210.2,278.3 L 210.0,278.7 L 210.0,279.5 L 209.9,279.7 L 210.0,280.4 L 210.3,280.8 L 210.5,281.2 L 210.7,281.3 L 211.1,281.4 L 211.5,281.6 L 211.8,282.0 L 211.9,281.9 L 212.4,281.4 L 212.7,281.3 L 213.0,281.3 L 213.4,281.2 L 214.1,281.1 L 214.3,281.2 L 214.4,281.4 L 215.0,281.6 L 216.4,281.6 L 217.6,282.1 L 217.9,282.6 L 218.2,282.9 L 218.3,283.2 L 218.3,283.7 L 218.2,284.0 L 217.9,284.2 L 217.3,284.9 L 216.8,284.9 L 216.7,285.1 L 216.3,285.3 L 215.9,285.9 L 215.8,286.3 L 215.9,287.4 L 216.2,287.7 L 216.6,288.6 L 216.7,289.2 L 216.8,289.3 L 217.4,289.4 L 217.7,289.8 L 217.8,290.2 L 217.6,290.4 L 217.2,290.5 L 217.2,291.2 L 217.5,292.2 L 218.0,292.5 L 218.3,292.3 L 219.2,292.4 L 219.5,292.7 L 219.8,293.0 L 220.4,292.9 L 221.0,293.4 L 221.3,293.8 L 221.2,294.1 L 220.9,294.4 L 220.7,294.5 L 220.6,294.6 L 220.7,295.3 L 221.1,295.6 L 221.2,295.8 L 221.4,295.8 L 221.5,295.7 L 221.7,295.7 L 221.8,296.1 L 222.3,295.9 L 222.8,295.5 L 223.4,295.3 L 223.7,295.0 L 224.2,294.9 L 224.5,295.0 L 224.8,294.7 L 224.9,294.3 L 226.0,293.7 L 227.0,293.3 L 228.0,292.9 L 229.1,292.7 L 229.9,292.8 L 230.2,293.0 L 230.6,293.1 L 231.5,293.8 L 231.7,293.9 L 232.0,294.2 L 232.5,294.8 L 232.6,295.2 L 232.4,295.8 L 232.4,296.6 L 232.7,297.2 L 233.0,297.3 L 233.2,297.4 L 233.9,297.4 L 234.2,297.2 L 234.4,297.2 L 234.6,297.2 L 234.9,297.2 L 235.6,297.6 L 235.6,298.0 L 235.9,298.2 L 236.8,298.2 L 237.8,298.3 L 238.4,298.2 L 239.8,297.9 L 250.6,322.5 L 250.5,322.5 L 250.0,322.9 L 249.9,323.2 L 250.0,324.2 L 250.5,326.7 L 250.7,327.1 L 251.6,328.2 L 252.0,328.9 L 252.2,330.2 L 252.2,330.9 L 252.1,332.8 L 252.2,333.8 L 252.4,334.2 L 252.5,336.2 L 252.6,337.1 L 252.5,338.1 L 252.3,338.6 L 252.2,339.1 L 252.4,339.8 L 252.2,340.2 L 252.0,340.5 L 251.2,341.2 L 250.9,341.3 L 249.8,342.1 L 249.1,342.7 L 248.8,343.2 L 248.9,344.1 L 249.6,345.7 L 249.6,346.5 L 249.2,347.2 L 249.3,348.0 L 250.3,349.0 L 250.5,349.3 L 250.6,349.8 L 250.4,350.8 L 249.9,351.3 L 249.7,351.8 L 249.7,352.4 L 250.3,352.7 L 250.8,353.0 L 250.9,353.3 L 250.8,353.8 L 251.0,355.0 L 251.1,355.3 L 251.8,355.6 L 252.5,356.1 L 252.5,356.4 L 252.3,356.8 L 251.7,357.0 L 251.1,357.1 L 250.6,356.7 L 250.5,356.2 L 250.9,355.5 L 250.6,354.8 L 250.6,354.2 L 250.5,353.8 L 249.0,353.6 L 248.6,353.4 L 248.0,352.4 L 247.7,351.9 L 247.6,351.7 L 246.9,351.6 L 246.6,351.9 L 246.0,352.0 L 245.4,351.5 L 244.8,350.2 L 244.4,349.4 L 244.0,349.0 L 243.8,348.5 L 243.1,347.8 L 242.6,347.0 L 242.4,346.3 L 241.6,344.4 L 240.0,343.1 L 239.4,342.2 L 239.3,341.8 L 239.2,341.5 L 238.8,340.6 L 238.3,339.6 L 238.1,338.9 L 237.7,338.4 L 237.2,338.2 L 237.0,338.2 L 235.9,338.4 L 235.7,338.7 L 235.6,339.7 L 235.2,340.2 L 234.7,341.3 L 234.8,341.8 L 234.4,342.3 L 234.3,342.4 L 233.8,343.0 L 233.7,343.6 L 233.0,343.7 L 232.5,343.9 L 231.7,344.0 L 231.2,344.0 L 230.8,343.7 L 230.4,343.2 L 230.2,342.9 L 230.1,342.8 L 229.9,341.8 L 229.4,341.4 L 228.2,341.0 L 227.3,340.6 L 227.4,340.5 L 227.5,340.3 L 227.4,340.1 L 227.1,340.1 L 226.6,339.8 L 226.4,339.9 L 226.4,340.3 L 226.9,340.3 L 227.1,340.5 L 227.0,340.7 L 226.4,341.0 L 226.4,341.1 L 226.5,342.1 L 226.5,342.6 L 226.3,343.1 L 225.8,343.4 L 225.4,343.8 L 225.0,343.9 L 224.3,343.6 L 221.0,341.7 L 219.9,341.4 L 219.8,341.5 L 219.1,341.4 L 218.3,341.5 L 216.4,342.3 L 215.7,342.3 L 214.5,342.0 L 213.5,341.5 L 213.1,341.4 L 212.5,341.0 L 211.9,340.1 L 211.5,339.9 L 211.3,339.8 L 210.7,340.0 L 210.2,340.2 L 209.9,340.1 L 209.4,340.1 L 208.7,340.5 L 207.9,340.6 L 207.0,340.3 L 205.8,340.1 L 204.8,339.6 L 204.5,339.6 L 203.5,339.6 L 203.2,339.5 L 202.3,339.1 L 201.8,339.1 L 201.0,339.5 L 200.9,339.6 L 198.9,340.9 L 198.5,341.1 L 198.0,341.2 L 197.7,341.4 L 196.9,341.8 L 196.0,342.8 L 195.6,343.3 L 193.8,344.5 L 192.2,345.8 L 191.2,346.4 L 189.9,347.2 L 189.6,347.8 L 189.5,347.9 L 189.1,348.4 L 188.6,348.7 L 187.8,349.7 L 186.4,351.7 L 185.3,353.7 L 184.9,354.4 L 184.0,355.5 L 183.4,355.9 L 182.4,356.1 L 181.1,355.9 L 177.6,356.5 L 176.7,356.9 L 176.4,357.2 L 175.2,357.7 L 174.7,358.0 L 174.0,358.7 L 173.7,358.9 L 173.1,359.1 L 171.4,359.9 L 170.8,360.0 L 170.0,359.4 L 169.8,358.7 L 169.5,358.4 L 169.3,358.4 L 169.3,358.6 L 169.5,359.0 L 169.6,359.5 L 168.9,359.1 L 168.6,358.4 L 168.5,357.4 L 166.6,355.9 L 166.4,355.6 L 166.3,354.7 L 166.8,353.5 L 167.0,352.8 L 166.7,351.2 L 166.9,350.7 L 166.9,350.6 L 166.6,350.1 L 166.7,349.4 L 166.6,349.1 L 166.5,349.0 L 166.1,348.6 L 165.9,347.4 L 165.5,346.8 L 165.2,346.8 L 165.1,346.8 L 164.8,346.8 L 163.9,347.0 L 162.8,346.9 L 162.2,346.9 L 161.6,347.1 L 160.7,347.3 L 159.6,346.9 L 158.8,347.0 L 158.2,347.0 L 157.5,346.5 L 157.2,346.1 L 157.1,345.0 L 157.0,343.7 L 157.1,343.0 L 158.2,342.1 L 158.4,341.9 L 158.7,340.9 L 158.8,340.4 L 159.0,339.8 L 160.4,337.9 L 160.9,337.4 L 161.2,336.7 L 163.7,334.3 L 163.8,334.2 L 164.1,334.1 L 164.3,334.1 L 164.1,334.6 L 163.7,334.9 L 163.4,335.0 L 163.2,335.2 L 162.5,336.1 L 162.5,336.2 L 162.9,336.1 L 163.3,335.9 L 163.6,335.7 L 163.8,335.7 L 163.8,335.6 L 164.4,334.8 L 164.8,334.7 L 165.3,334.4 L 166.1,334.2 L 167.0,333.4 L 167.4,333.2 L 167.4,333.0 L 168.3,332.6 L 169.1,332.2 L 169.5,332.2 L 169.8,331.8 L 170.2,331.6 L 170.6,331.2 L 172.2,330.2 L 172.6,329.9 L 173.6,328.5 L 173.9,328.2 L 174.2,327.9 L 174.5,327.7 L 175.0,327.2 L 175.0,326.8 L 175.6,326.1 L 176.7,325.3 L 177.4,325.1 L 177.9,324.8 L 178.6,324.7 L 179.0,324.3 L 179.9,323.2 L 180.4,322.6 L 180.5,322.1 L 180.9,321.4 L 181.1,321.0 L 181.1,320.4 L 182.0,318.9 L 182.1,318.7 L 182.6,318.4 L 182.8,318.1 L 182.8,317.9 L 183.1,317.3 L 183.7,316.5 L 184.0,315.9 L 184.3,315.7 L 184.5,315.3 L 184.6,314.9 L 184.7,314.7 L 185.3,313.6 L 185.6,313.1 L 187.0,311.6 L 187.1,310.4 L 187.2,310.1 L 187.1,309.5 L 186.0,309.2 L 185.8,309.1 L 185.6,307.5 L 185.5,307.3 L 185.4,306.4 L 185.6,306.0 L 185.8,305.9 L 185.8,305.2 L 185.9,305.1 L 186.1,304.5 L 186.1,303.9 L 186.2,303.4 L 186.0,302.9 L 185.7,302.8 L 185.6,302.5 L 185.4,302.4 L 185.2,301.1 L 185.1,301.0 L 185.0,300.8 L 184.3,300.9 L 184.0,301.2 L 183.7,301.3 L 183.5,300.3 L 183.3,300.3 L 183.1,300.3 L 183.0,300.5 L 182.8,300.6 L 182.4,300.2 L 181.8,300.3 L 181.4,300.5 L 181.2,300.3 L 180.9,300.5 L 180.5,300.2 L 180.2,300.2 L 180.2,300.5 L 179.9,300.5 L 179.5,300.1 L 179.1,300.2 L 179.2,300.4 L 178.2,301.8 L 178.0,301.9 L 177.9,302.1 L 177.5,302.3 L 177.2,302.3 L 176.9,302.7 L 176.9,303.1 L 177.0,303.2 L 176.8,303.5 L 176.8,304.3 L 176.4,304.7 L 176.3,305.3 L 176.1,306.1 L 176.1,306.3 L 175.6,307.1 L 175.1,307.7 L 174.4,307.9 L 173.8,307.9 L 173.7,307.7 L 173.6,307.4 L 173.4,307.0 L 173.2,306.9 L 173.2,306.8 L 173.0,306.6 L 172.8,306.6 L 172.4,306.2 L 172.0,306.3 L 171.8,306.6 L 171.4,306.7 L 170.6,307.1 L 170.0,307.2 L 169.6,307.1 L 169.0,306.6 L 168.7,306.4 L 168.6,306.4 L 168.1,305.9 L 168.0,305.6 L 167.7,305.4 L 167.5,305.1 L 167.4,304.6 L 167.3,304.5 L 167.1,304.2 L 167.1,304.0 L 166.9,303.7 L 166.9,302.8 L 166.9,302.6 L 166.7,302.2 L 166.6,300.7 L 166.7,300.3 L 166.8,300.0 L 167.0,299.2 L 168.2,296.9 L 169.3,295.1 L 169.8,294.7 L 169.9,294.5 L 170.0,294.1 L 170.5,293.2 L 170.7,292.9 L 170.8,292.7 L 171.6,291.6 L 172.0,291.4 L 173.5,289.4 L 173.9,287.5 L 174.2,286.3 L 174.3,284.8 L 174.3,284.0 L 174.2,283.6 L 174.2,281.9 L 174.4,280.0 L 174.5,279.5 L 174.7,278.5 L 174.9,278.0 L 175.1,277.7 L 175.3,277.4 L 175.7,276.4 L 175.8,275.2 L 175.6,273.5 L 175.4,272.9 L 175.2,271.4 L 175.3,270.5 L 175.8,269.0 L 176.1,268.2 L 176.0,267.3 L 175.5,266.1 L 175.1,265.2 L 174.8,264.8 L 174.6,264.6 L 174.5,263.1 L 174.6,262.4 L 174.4,261.6 L 174.0,260.8 L 173.8,260.3 L 173.9,259.9 L 174.8,258.6 L 174.9,258.5 L 175.3,258.3 L 175.6,257.6 L 176.1,256.4 L 176.2,256.1 L 176.6,255.2 L 176.9,253.4 L 177.3,252.3 L 177.4,250.1 L 177.4,249.7 L 177.4,249.3 L 177.5,248.9 L 177.6,248.1 L 177.5,247.5 L 177.1,246.7 L 176.4,246.5 L 176.1,246.1 L 175.8,245.3 L 175.4,244.9 L 175.4,244.3 L 175.8,243.7 L 176.6,243.1 L 176.8,242.4 L 176.8,241.9 L 177.0,241.6 L 176.7,241.2 L 176.4,241.0 L 175.9,240.9 L 175.8,240.7 L 176.1,240.4 L 176.5,240.3 L 176.7,239.8 L 178.0,238.1 L 178.4,237.4 L 178.4,237.1 L 179.0,235.8 L 179.0,235.3 L 179.1,234.6 L 179.2,233.7 L 179.4,233.4 L 179.6,232.7 L 179.6,232.6 L 179.7,231.8 L 179.8,231.6 L 179.9,231.5 L 180.0,231.7 L 180.3,231.6 L 180.5,231.1 L 180.7,230.3 L 181.1,229.9 L 181.2,229.3 L 181.9,228.1 L 182.2,227.3 L 182.0,226.7 L 182.2,226.1 L 182.0,224.3 L 182.1,223.0 L 182.2,222.6 L 182.4,221.7 L 182.5,221.2 L 182.3,219.7 L 182.3,219.2 L 183.1,218.5 L 183.0,218.3 L 183.1,217.9 L 183.2,217.1 L 183.4,216.3 L 183.5,216.0 L 183.6,215.8 L 183.8,215.1 L 183.8,215.1 L 183.8,212.0 L 184.3,210.6 L 184.3,210.1 L 184.5,209.7 L 184.5,209.2 L 184.5,208.6 L 184.3,208.5 L 183.9,208.5 L 183.7,208.6 L 183.7,209.2 L 183.4,209.4 L 183.2,209.5 L 183.1,209.3 L 183.1,208.9 L 183.5,208.3 L 183.5,208.2 L 183.6,207.8 L 183.7,207.0 L 183.9,206.5 L 184.1,205.5 L 184.3,205.3 L 184.3,204.7 L 184.4,203.7" fill="none" stroke="black" stroke-width="2"/>
</svg>