<?xml version="1.0" encoding="UTF-8"?>
<svg width="400" height="400" viewBox="0 0 400 400" xmlns="http://www.w3.org/2000/svg">
  <rect width="400" height="400" fill="white"/>
  <path d="M 161.2,253.7 L 166.3,236.0 L 168.9,223.6 L 170.2,214.9 L 171.2,208.0 L 173.2,206.0 L 172.4,204.5 L 174.4,200.0 L 176.3,199.6 L 175.3,197.7 L 176.8,196.3 L 176.9,194.6 L 175.9,193.3 L 176.3,189.6 L 177.4,185.1 L 179.2,184.1 L 179.2,181.9 L 177.8,180.7 L 177.9,178.8 L 179.8,177.8 L 179.7,175.5 L 178.7,174.7 L 178.9,171.8 L 181.3,171.1 L 181.8,169.1 L 181.5,168.1 L 180.1,167.6 L 179.8,162.2 L 181.8,161.4 L 179.4,159.6 L 179.3,153.2 L 181.3,148.2 L 185.6,139.4 L 183.1,128.6 L 182.8,124.0 L 183.5,120.1 L 184.1,104.9 L 183.1,100.5 L 182.8,90.5 L 183.2,86.9 L 183.0,84.7 L 182.8,84.0 L 179.2,75.3 L 174.8,69.4 L 172.6,62.5 L 168.0,57.7 L 255.9,40.2 L 257.0,40.0 L 255.9,46.5 L 255.8,47.1 L 255.8,63.7 L 252.4,69.7 L 251.1,72.1 L 250.6,81.9 L 249.8,86.0 L 249.0,96.0 L 248.3,104.9 L 247.4,111.6 L 246.4,114.1 L 245.8,115.7 L 245.3,117.3 L 240.4,126.4 L 236.5,135.4 L 234.0,139.5 L 231.4,139.0 L 230.5,140.2 L 231.5,140.9 L 231.9,142.2 L 231.4,144.1 L 231.1,145.4 L 228.9,151.0 L 228.7,151.2 L 226.5,157.8 L 226.1,158.6 L 225.0,164.2 L 221.8,171.6 L 219.2,185.9 L 217.1,193.8 L 215.8,198.7 L 212.8,206.4 L 210.8,209.9 L 208.3,210.4 L 203.5,209.8 L 202.6,211.0 L 206.2,212.1 L 206.5,213.4 L 203.0,218.4 L 197.4,233.6 L 196.4,240.5 L 196.3,241.6 L 194.2,247.5 L 192.7,253.0 L 189.6,258.3 L 189.6,259.8 L 191.7,257.8 L 193.0,257.4 L 193.2,260.6 L 192.1,265.3 L 183.7,283.4 L 182.2,289.8 L 179.7,296.3 L 176.2,305.4 L 173.1,312.0 L 172.3,317.1 L 172.3,317.9 L 172.0,320.6 L 171.4,323.3 L 170.4,325.3 L 170.2,328.3 L 169.5,331.0 L 167.4,333.9 L 166.5,337.6 L 165.7,340.4 L 165.3,341.9 L 164.9,342.3 L 164.5,342.8 L 163.5,341.8 L 163.4,338.7 L 163.0,335.4 L 162.0,333.3 L 161.2,331.8 L 160.6,330.9 L 158.3,328.0 L 157.5,327.6 L 156.6,327.8 L 154.6,330.2 L 154.5,331.0 L 154.9,332.2 L 156.5,333.4 L 157.1,334.4 L 157.4,338.2 L 158.5,341.3 L 159.9,343.9 L 159.6,345.3 L 156.1,344.8 L 154.9,344.8 L 153.4,346.0 L 152.6,347.3 L 151.5,350.8 L 150.0,353.6 L 149.1,355.6 L 147.8,357.0 L 147.6,357.2 L 147.5,357.9 L 147.6,359.5 L 147.2,360.0 L 146.7,359.9 L 145.8,358.6 L 145.7,357.6 L 146.6,354.0 L 146.7,352.9 L 145.7,349.3 L 144.1,347.7 L 143.3,346.3 L 143.0,344.8 L 143.1,343.4 L 144.1,340.8 L 144.7,339.3 L 145.3,337.7 L 147.0,334.8 L 148.7,333.9 L 150.1,332.5 L 150.6,331.4 L 150.5,329.9 L 149.7,327.8 L 150.1,325.0 L 150.7,323.1 L 151.5,322.9 L 152.0,323.1 L 152.9,324.9 L 153.6,324.9 L 154.5,324.3 L 153.5,321.8 L 153.9,321.2 L 155.9,320.4 L 157.1,319.5 L 157.4,318.9 L 156.7,317.0 L 154.6,316.0 L 153.6,314.4 L 153.6,310.7 L 154.1,309.7 L 154.6,309.2 L 154.7,306.0 L 155.4,302.3 L 156.5,300.1 L 157.8,296.0 L 158.0,291.3 L 161.2,279.6 L 162.3,275.5 L 161.2,270.0 L 160.6,267.5 L 160.1,259.9 L 161.0,254.2 L 161.2,253.7" fill="none" stroke="black" stroke-width="2"/>
</svg>