<?xml version="1.0" encoding="UTF-8"?>
<svg width="400" height="400" viewBox="0 0 400 400" xmlns="http://www.w3.org/2000/svg">
  <rect width="400" height="400" fill="white"/>
  <path d="M 160.9,201.2 L 160.5,199.9 L 160.2,199.2 L 160.2,198.9 L 159.8,195.3 L 160.1,192.6 L 163.5,184.1 L 164.0,182.6 L 164.4,180.4 L 164.7,178.2 L 164.4,173.6 L 164.5,171.5 L 165.1,169.5 L 165.2,167.4 L 165.3,166.2 L 165.3,166.2 L 165.4,163.5 L 165.7,162.2 L 166.1,161.3 L 166.3,160.7 L 166.1,158.7 L 165.7,156.0 L 165.2,154.3 L 164.9,151.0 L 165.0,149.8 L 164.7,147.0 L 164.1,145.1 L 162.0,140.2 L 161.6,139.0 L 161.5,137.5 L 160.6,136.1 L 160.2,135.5 L 160.2,134.8 L 160.4,134.3 L 160.2,134.1 L 159.9,134.1 L 159.3,131.7 L 158.5,130.7 L 158.0,130.5 L 157.5,130.7 L 157.5,130.2 L 157.6,129.2 L 157.4,128.3 L 156.6,127.7 L 156.3,127.8 L 156.2,128.1 L 153.6,126.3 L 152.6,124.7 L 151.0,119.8 L 149.8,118.0 L 149.5,117.4 L 148.8,114.2 L 148.3,110.8 L 148.0,109.6 L 148.3,108.2 L 148.1,106.8 L 147.8,106.7 L 147.5,106.4 L 147.2,104.8 L 146.9,104.5 L 146.7,104.1 L 146.2,103.8 L 146.0,103.2 L 145.9,102.7 L 146.0,102.1 L 145.6,101.5 L 144.8,101.2 L 143.8,98.2 L 143.5,97.9 L 143.4,97.1 L 143.1,96.6 L 142.9,96.0 L 142.3,95.4 L 142.2,94.9 L 141.3,94.1 L 141.2,93.4 L 141.4,92.6 L 141.3,92.1 L 140.4,91.2 L 137.8,86.1 L 137.7,85.0 L 137.5,84.8 L 213.2,40.9 L 213.2,40.9 L 213.6,40.8 L 213.7,41.1 L 213.9,41.4 L 215.1,41.3 L 215.4,41.0 L 215.7,40.1 L 216.0,40.0 L 216.3,40.1 L 216.4,40.8 L 216.9,41.1 L 217.4,41.1 L 218.2,41.5 L 218.5,42.3 L 218.6,42.8 L 217.9,42.9 L 217.6,43.4 L 217.5,44.4 L 216.2,44.6 L 216.1,45.1 L 216.9,45.7 L 217.5,46.2 L 217.6,47.6 L 216.6,48.4 L 216.6,48.8 L 217.2,49.3 L 217.8,49.1 L 218.8,49.3 L 219.2,50.2 L 219.1,50.9 L 218.6,51.0 L 218.0,51.2 L 217.6,52.0 L 218.2,52.7 L 217.9,53.2 L 218.0,54.2 L 218.5,54.8 L 218.2,55.6 L 218.5,58.7 L 218.4,59.2 L 218.7,62.0 L 219.5,63.9 L 220.0,64.2 L 220.0,64.8 L 220.3,65.5 L 220.8,65.5 L 220.5,66.0 L 220.5,66.5 L 220.8,67.2 L 220.6,68.1 L 220.7,69.4 L 219.9,70.2 L 220.1,70.8 L 220.3,71.6 L 220.0,72.2 L 220.0,72.8 L 220.7,73.8 L 220.7,74.5 L 221.1,75.3 L 221.4,77.9 L 221.8,80.3 L 222.2,81.1 L 223.5,82.2 L 223.5,83.5 L 224.3,84.9 L 225.4,86.0 L 225.9,86.8 L 226.5,86.7 L 226.6,86.9 L 226.5,87.2 L 226.5,88.2 L 226.8,88.5 L 227.1,88.4 L 227.4,88.6 L 229.3,92.0 L 229.2,92.7 L 229.4,93.1 L 229.2,93.3 L 229.3,94.0 L 228.3,94.2 L 228.3,94.8 L 228.5,95.3 L 229.1,95.5 L 229.4,98.0 L 228.9,99.2 L 229.0,100.3 L 228.9,101.1 L 229.3,101.5 L 229.4,102.5 L 229.7,102.9 L 229.8,104.0 L 230.2,104.1 L 231.1,105.5 L 231.2,106.1 L 231.4,106.4 L 231.5,107.0 L 232.2,108.0 L 232.1,109.4 L 232.5,110.0 L 233.2,110.8 L 233.2,111.1 L 232.1,113.5 L 231.6,115.3 L 231.1,115.7 L 231.0,116.0 L 231.4,116.5 L 231.4,117.0 L 231.5,117.6 L 231.9,118.5 L 231.7,118.8 L 231.7,119.3 L 232.1,119.6 L 231.9,119.9 L 231.9,120.5 L 232.4,121.1 L 232.5,121.7 L 232.6,122.8 L 232.8,123.1 L 232.9,123.7 L 233.2,123.9 L 233.3,124.2 L 233.3,125.6 L 233.5,126.1 L 233.4,126.4 L 233.6,126.7 L 233.8,127.5 L 234.1,127.9 L 234.3,129.2 L 233.9,130.1 L 234.3,130.5 L 234.1,130.9 L 234.1,131.2 L 234.6,131.4 L 234.5,132.0 L 234.7,134.6 L 235.3,135.3 L 235.2,136.4 L 236.0,136.9 L 236.2,138.5 L 236.2,139.3 L 236.0,139.6 L 236.5,140.1 L 236.7,141.1 L 237.0,144.2 L 236.8,145.2 L 237.0,152.4 L 237.5,154.3 L 237.5,156.4 L 237.8,157.2 L 238.0,158.0 L 238.2,158.4 L 238.2,158.4 L 238.2,160.7 L 238.1,162.0 L 238.2,163.6 L 238.7,166.8 L 239.4,169.3 L 239.7,172.6 L 239.7,172.8 L 239.5,173.7 L 239.4,175.5 L 239.8,179.3 L 239.9,182.3 L 239.7,184.2 L 239.3,186.7 L 239.2,190.5 L 238.9,192.3 L 238.2,194.5 L 238.1,195.1 L 236.2,197.9 L 235.8,199.1 L 235.2,199.9 L 233.6,201.4 L 230.9,204.4 L 228.6,206.2 L 228.0,206.5 L 226.2,207.8 L 225.2,208.4 L 224.2,209.8 L 223.4,211.5 L 223.2,212.8 L 222.9,214.6 L 222.4,216.0 L 222.3,219.7 L 221.5,221.4 L 221.3,221.8 L 220.5,223.0 L 220.5,223.8 L 220.5,226.1 L 220.4,227.1 L 220.1,228.2 L 219.9,230.6 L 219.9,232.0 L 219.4,234.1 L 219.6,236.2 L 220.0,238.4 L 220.6,240.9 L 221.2,242.8 L 221.5,245.9 L 221.3,249.0 L 220.9,251.0 L 220.8,253.1 L 220.8,254.9 L 221.0,255.6 L 221.1,256.1 L 221.3,257.8 L 221.1,259.1 L 221.0,260.0 L 221.2,263.9 L 221.5,264.9 L 222.7,266.5 L 224.8,268.3 L 227.1,270.1 L 230.6,271.5 L 232.5,273.1 L 233.8,274.7 L 235.3,275.5 L 236.6,276.3 L 239.6,278.6 L 241.0,280.0 L 242.5,281.9 L 243.6,283.7 L 244.1,284.1 L 244.8,284.4 L 246.2,285.6 L 248.1,286.4 L 249.2,286.6 L 250.1,287.3 L 250.4,288.1 L 250.7,289.3 L 251.1,291.9 L 251.2,293.5 L 251.5,294.6 L 252.4,295.5 L 253.6,296.0 L 254.8,297.0 L 255.1,297.9 L 255.8,298.6 L 256.2,299.4 L 256.6,301.6 L 256.8,302.0 L 258.2,303.7 L 258.3,304.2 L 257.6,306.4 L 257.2,307.0 L 256.8,307.8 L 256.2,308.5 L 254.4,309.7 L 253.1,310.2 L 251.7,310.6 L 250.2,310.1 L 249.5,310.4 L 247.9,312.5 L 247.0,313.2 L 243.9,314.5 L 242.8,315.0 L 241.1,315.2 L 238.8,315.8 L 238.4,316.3 L 237.9,317.6 L 237.9,318.2 L 238.2,318.5 L 238.8,318.7 L 239.8,319.4 L 240.3,320.1 L 240.1,321.1 L 240.2,322.3 L 241.2,323.2 L 241.9,323.5 L 242.9,323.8 L 243.5,324.7 L 243.6,325.7 L 243.3,326.7 L 243.1,327.5 L 243.9,328.2 L 244.5,329.4 L 245.2,330.0 L 248.1,332.9 L 250.0,334.2 L 252.3,336.3 L 253.2,337.4 L 255.1,340.2 L 255.7,341.3 L 257.1,342.3 L 258.1,342.9 L 258.6,344.2 L 258.9,344.6 L 259.8,346.0 L 260.3,348.1 L 260.6,348.8 L 261.7,350.0 L 262.3,350.8 L 262.5,351.5 L 262.1,353.4 L 260.0,355.6 L 258.9,356.2 L 258.2,356.9 L 258.3,357.3 L 259.4,357.7 L 259.5,358.2 L 259.3,358.5 L 259.0,358.6 L 258.3,358.5 L 256.8,358.7 L 254.4,359.9 L 253.8,360.0 L 252.4,358.8 L 249.7,354.7 L 249.2,354.5 L 247.6,352.3 L 247.1,350.6 L 246.9,349.7 L 245.4,347.5 L 242.8,345.1 L 241.8,344.7 L 241.4,344.2 L 239.7,342.9 L 238.9,342.9 L 236.1,344.0 L 235.6,344.1 L 234.2,344.3 L 232.7,344.0 L 230.7,343.1 L 230.4,342.8 L 230.0,343.0 L 229.4,342.7 L 229.0,342.4 L 227.8,342.1 L 227.5,341.8 L 226.8,340.6 L 226.1,337.8 L 226.3,336.3 L 226.5,335.3 L 226.5,334.5 L 226.6,333.6 L 226.4,332.7 L 226.7,331.3 L 226.4,330.5 L 226.4,329.3 L 226.8,328.7 L 227.4,328.1 L 228.6,327.8 L 228.8,327.1 L 228.5,326.9 L 228.2,326.7 L 228.2,326.0 L 229.0,324.2 L 229.5,323.5 L 229.4,322.7 L 228.7,321.6 L 228.0,321.2 L 226.3,320.6 L 225.6,320.5 L 224.6,320.1 L 223.8,319.5 L 223.2,318.7 L 221.5,316.5 L 221.1,315.4 L 219.4,313.5 L 217.9,311.1 L 217.5,311.0 L 216.2,310.2 L 215.0,309.6 L 214.6,309.1 L 213.2,307.5 L 212.5,307.0 L 211.2,305.5 L 210.5,305.0 L 210.2,304.2 L 209.6,303.1 L 208.4,302.2 L 207.5,302.0 L 207.0,301.4 L 205.8,299.8 L 204.8,298.6 L 203.8,296.8 L 203.3,296.2 L 203.3,296.1 L 202.8,295.6 L 201.8,295.6 L 201.4,295.4 L 200.9,295.3 L 199.3,296.1 L 196.3,296.5 L 195.0,296.4 L 193.7,296.1 L 192.9,295.5 L 190.9,294.8 L 188.4,293.0 L 187.5,291.9 L 182.3,286.8 L 180.7,285.6 L 178.2,282.4 L 177.2,281.7 L 176.5,281.6 L 176.3,281.1 L 175.7,280.7 L 174.5,279.3 L 174.0,278.5 L 173.1,276.7 L 172.2,274.2 L 172.0,274.1 L 171.5,273.5 L 171.2,272.9 L 170.6,272.3 L 170.1,271.4 L 169.0,270.0 L 166.9,268.0 L 165.7,266.5 L 165.3,265.8 L 163.0,261.0 L 162.7,259.8 L 162.8,258.0 L 162.5,256.4 L 162.3,254.3 L 161.8,252.8 L 160.9,250.9 L 160.3,249.2 L 159.9,247.4 L 159.5,246.3 L 159.2,244.6 L 159.0,242.5 L 158.2,240.9 L 157.3,239.6 L 156.8,238.4 L 156.5,237.5 L 156.6,236.4 L 156.5,234.4 L 156.5,234.4 L 156.7,232.6 L 157.0,225.8 L 157.3,224.4 L 157.2,222.6 L 157.3,222.4 L 157.8,221.4 L 158.1,220.3 L 158.3,218.7 L 158.5,218.2 L 158.7,216.8 L 159.3,215.3 L 160.0,211.4 L 161.0,208.5 L 161.6,205.3 L 161.7,204.0 L 161.7,202.6 L 161.3,201.5 L 160.9,201.2" fill="none" stroke="black" stroke-width="2"/>
</svg>