<?xml version="1.0" encoding="UTF-8"?>
<svg width="400" height="400" viewBox="0 0 400 400" xmlns="http://www.w3.org/2000/svg">
  <rect width="400" height="400" fill="white"/>
  <path d="M 62.7,257.1 L 62.6,256.9 L 40.0,163.5 L 42.5,163.7 L 47.6,165.4 L 51.6,166.1 L 54.7,166.5 L 61.2,168.7 L 62.4,169.1 L 63.2,169.0 L 65.0,169.2 L 79.3,172.0 L 83.2,173.2 L 84.7,173.4 L 87.1,173.1 L 90.9,173.3 L 96.2,174.2 L 99.1,174.1 L 102.6,173.3 L 105.1,172.3 L 112.9,171.3 L 116.2,171.5 L 123.1,170.6 L 123.5,170.4 L 127.6,169.1 L 131.6,168.8 L 136.4,168.3 L 139.4,168.3 L 141.6,169.0 L 143.3,169.4 L 148.1,170.1 L 152.8,169.0 L 153.2,169.2 L 159.6,168.7 L 166.6,167.3 L 168.4,166.7 L 170.0,166.4 L 177.0,164.9 L 179.2,164.6 L 180.9,164.7 L 182.0,164.5 L 184.8,163.2 L 193.6,162.1 L 200.1,162.5 L 210.8,161.7 L 216.0,160.9 L 216.3,160.7 L 220.5,159.7 L 223.8,158.6 L 228.0,156.6 L 229.9,155.9 L 236.6,153.2 L 241.0,150.7 L 241.5,150.4 L 245.4,149.9 L 247.2,150.5 L 249.5,151.4 L 253.5,152.3 L 259.5,152.8 L 263.9,152.0 L 266.1,150.9 L 271.9,146.9 L 276.5,144.4 L 279.2,143.5 L 284.0,142.9 L 289.2,143.3 L 291.7,144.1 L 293.7,146.1 L 294.1,146.8 L 295.6,149.3 L 296.2,150.1 L 299.7,157.4 L 301.5,160.3 L 304.7,162.8 L 310.8,164.2 L 311.2,164.0 L 312.4,164.4 L 316.0,164.5 L 319.7,163.9 L 323.2,162.1 L 325.9,159.6 L 328.1,159.4 L 330.5,161.9 L 332.9,163.1 L 335.9,163.2 L 342.3,164.5 L 344.4,164.4 L 344.5,164.5 L 344.8,164.4 L 345.1,164.9 L 345.7,166.2 L 346.2,167.8 L 346.2,168.5 L 346.3,168.9 L 346.1,169.4 L 345.3,170.2 L 345.1,170.8 L 345.2,171.3 L 345.9,171.4 L 347.9,171.1 L 349.3,171.1 L 349.3,171.1 L 349.9,171.4 L 350.2,171.7 L 350.3,171.8 L 350.5,172.3 L 350.4,172.9 L 349.8,173.2 L 350.5,174.0 L 350.0,176.0 L 349.9,176.8 L 350.3,177.3 L 352.0,176.4 L 353.4,175.4 L 354.8,174.5 L 355.9,174.0 L 356.7,173.6 L 357.5,173.3 L 358.0,173.3 L 357.7,174.0 L 357.7,174.0 L 356.1,174.9 L 355.3,176.0 L 355.2,176.8 L 356.1,177.4 L 356.4,179.4 L 356.8,179.6 L 358.5,178.2 L 359.6,177.2 L 360.0,177.3 L 359.9,178.0 L 359.9,178.4 L 359.8,178.8 L 358.5,180.0 L 357.4,181.3 L 357.1,181.8 L 356.2,182.3 L 355.7,182.7 L 355.6,183.1 L 356.1,183.7 L 354.9,185.2 L 354.9,185.3 L 353.7,186.9 L 351.8,188.1 L 350.1,189.1 L 349.2,189.4 L 348.1,189.4 L 347.2,189.1 L 346.2,187.8 L 345.6,187.6 L 341.8,185.5 L 340.0,185.6 L 340.0,187.0 L 339.3,189.2 L 339.3,192.2 L 339.4,192.9 L 339.3,194.4 L 337.5,195.9 L 334.1,196.6 L 321.6,196.2 L 315.1,196.4 L 313.4,196.7 L 311.9,197.0 L 302.2,197.6 L 298.1,197.3 L 292.9,196.3 L 287.4,192.1 L 285.4,191.6 L 281.7,191.6 L 278.0,192.4 L 274.1,194.0 L 271.2,196.5 L 261.6,206.4 L 255.7,213.7 L 253.9,215.5 L 253.0,216.3 L 248.4,219.9 L 243.2,223.4 L 236.4,227.0 L 232.4,228.6 L 228.5,229.7 L 227.3,230.4 L 225.5,231.6 L 224.2,232.1 L 222.6,233.6 L 217.4,235.6 L 215.3,237.2 L 211.9,238.6 L 210.3,239.0 L 206.5,239.1 L 199.5,241.7 L 197.7,242.1 L 194.3,241.8 L 191.9,241.0 L 180.6,240.0 L 179.5,240.2 L 177.3,240.1 L 173.2,239.4 L 165.1,239.2 L 157.4,237.8 L 142.3,236.6 L 133.7,235.3 L 132.2,234.8 L 131.8,235.0 L 124.9,233.9 L 120.4,234.2 L 110.1,234.6 L 108.4,235.3 L 97.9,240.6 L 87.9,244.3 L 85.4,245.9 L 82.1,247.7 L 80.0,249.1 L 77.7,250.3 L 72.7,251.9 L 63.7,256.5 L 62.7,257.1" fill="none" stroke="black" stroke-width="2"/>
</svg>