<?xml version="1.0" encoding="UTF-8"?>
<svg width="400" height="400" viewBox="0 0 400 400" xmlns="http://www.w3.org/2000/svg">
  <rect width="400" height="400" fill="white"/>
  <path d="M 139.5,208.8 L 139.5,208.7 L 139.5,173.2 L 140.1,173.1 L 140.2,172.8 L 140.1,172.6 L 140.2,172.4 L 140.5,172.1 L 140.5,171.8 L 140.7,171.6 L 141.3,171.4 L 141.7,171.1 L 142.9,170.8 L 143.3,170.5 L 143.9,169.8 L 144.0,169.5 L 143.9,169.2 L 143.7,169.0 L 143.8,168.9 L 144.2,168.9 L 144.4,168.7 L 144.4,168.6 L 144.1,168.5 L 144.1,168.4 L 144.3,168.3 L 144.2,168.2 L 144.1,168.1 L 144.5,167.7 L 144.6,167.5 L 144.9,167.3 L 144.9,167.1 L 144.6,166.9 L 144.5,166.9 L 144.4,166.7 L 144.2,166.6 L 143.5,166.7 L 143.5,166.9 L 141.9,167.1 L 141.8,167.2 L 141.3,167.1 L 141.2,167.0 L 141.1,166.7 L 140.9,166.6 L 141.0,166.1 L 140.4,165.9 L 140.3,165.9 L 139.6,165.7 L 139.2,165.8 L 138.6,166.5 L 138.3,166.6 L 138.1,166.8 L 137.9,167.0 L 137.7,167.3 L 137.3,167.6 L 136.5,167.8 L 136.3,167.6 L 134.5,167.5 L 134.2,167.5 L 133.9,167.8 L 133.4,168.0 L 133.1,167.9 L 132.7,167.8 L 132.6,167.5 L 133.0,166.2 L 132.9,165.7 L 132.6,165.6 L 132.4,165.5 L 132.6,165.2 L 132.6,165.2 L 132.6,164.9 L 132.9,164.8 L 133.1,164.6 L 133.0,164.1 L 132.8,164.0 L 132.6,164.0 L 132.5,164.0 L 132.6,163.7 L 132.6,163.4 L 131.6,162.9 L 131.2,162.6 L 130.6,162.4 L 129.7,161.9 L 129.6,161.8 L 129.3,161.7 L 128.5,161.8 L 128.2,161.7 L 127.2,161.9 L 127.0,161.9 L 125.8,162.1 L 125.6,162.2 L 125.2,162.1 L 124.7,162.0 L 124.5,162.1 L 124.1,162.2 L 123.9,162.4 L 124.0,162.6 L 123.4,162.6 L 123.2,162.7 L 123.3,162.9 L 122.5,163.0 L 122.2,163.1 L 122.0,163.4 L 121.6,163.5 L 121.2,163.5 L 121.1,163.7 L 121.2,163.8 L 121.3,164.1 L 121.1,164.2 L 120.4,164.6 L 120.3,164.8 L 120.5,164.8 L 120.8,165.2 L 121.2,165.3 L 121.4,165.4 L 121.4,165.7 L 121.4,165.8 L 121.6,165.9 L 121.7,166.0 L 121.6,166.1 L 121.5,166.3 L 122.1,166.2 L 122.3,166.3 L 122.3,166.5 L 122.1,166.8 L 122.1,166.8 L 122.1,166.8 L 122.0,167.5 L 121.8,167.9 L 121.5,168.4 L 120.9,169.1 L 120.6,169.2 L 119.8,168.9 L 119.8,168.6 L 119.7,168.3 L 119.4,168.1 L 119.1,167.9 L 118.9,168.1 L 118.9,168.2 L 118.5,167.9 L 118.6,167.7 L 118.7,167.3 L 118.7,167.3 L 119.0,167.2 L 118.9,166.7 L 118.8,166.7 L 118.7,166.9 L 118.6,166.9 L 118.1,166.5 L 118.0,166.3 L 118.0,166.1 L 118.5,166.0 L 118.5,165.8 L 118.3,165.5 L 117.6,164.9 L 117.6,164.6 L 117.9,164.6 L 118.1,164.6 L 118.3,164.6 L 118.3,164.3 L 118.8,163.5 L 118.8,163.1 L 118.7,163.1 L 118.4,163.1 L 118.3,163.3 L 118.0,163.4 L 117.8,163.3 L 117.5,163.4 L 117.3,162.9 L 117.1,163.2 L 117.0,162.9 L 117.1,162.4 L 117.1,162.3 L 116.7,162.3 L 116.2,162.3 L 116.1,162.5 L 116.0,162.3 L 115.0,162.3 L 114.7,162.1 L 114.3,162.1 L 114.0,162.1 L 113.9,162.3 L 113.8,162.5 L 113.7,162.8 L 113.8,163.7 L 113.6,163.9 L 113.1,164.0 L 112.6,163.7 L 112.7,163.1 L 112.7,162.8 L 112.5,162.7 L 112.0,162.7 L 111.1,162.9 L 110.9,163.0 L 110.3,163.1 L 110.0,163.1 L 109.7,163.3 L 109.6,163.4 L 109.7,163.4 L 109.9,163.4 L 110.1,163.5 L 110.0,163.6 L 108.8,163.8 L 108.0,163.7 L 107.2,163.8 L 107.1,163.8 L 106.1,164.0 L 105.4,164.4 L 105.0,164.6 L 104.6,164.5 L 104.4,164.4 L 104.4,164.1 L 104.7,163.6 L 104.7,163.4 L 104.3,163.0 L 103.6,163.0 L 102.4,163.2 L 101.7,163.2 L 101.6,163.0 L 101.2,162.9 L 101.0,163.0 L 100.9,162.8 L 100.5,162.6 L 100.3,162.6 L 99.9,162.8 L 98.0,163.9 L 97.8,164.0 L 97.4,164.1 L 97.2,164.0 L 97.1,163.8 L 97.1,163.6 L 97.2,163.4 L 97.4,163.3 L 97.4,163.1 L 97.0,162.8 L 96.8,162.4 L 96.7,162.3 L 96.4,162.3 L 95.9,162.4 L 95.4,162.0 L 95.3,161.3 L 95.1,161.2 L 93.9,161.3 L 92.9,161.5 L 92.8,161.4 L 92.7,161.3 L 91.9,161.6 L 91.4,161.6 L 91.2,161.5 L 91.2,161.4 L 90.7,161.5 L 90.4,161.7 L 90.2,162.1 L 89.9,162.4 L 89.3,162.8 L 88.7,163.1 L 88.0,163.2 L 87.7,163.2 L 87.2,163.2 L 86.7,163.5 L 86.6,163.5 L 86.6,163.3 L 86.4,163.3 L 86.0,163.6 L 86.0,163.2 L 85.6,163.3 L 85.2,163.6 L 85.1,163.5 L 84.8,163.5 L 84.5,163.7 L 84.0,163.8 L 83.5,164.0 L 83.3,163.9 L 83.5,163.5 L 83.5,163.1 L 83.4,162.9 L 83.3,162.8 L 83.3,162.7 L 82.5,162.8 L 81.8,163.1 L 81.6,163.2 L 81.4,163.4 L 81.3,163.7 L 80.6,164.5 L 80.2,164.8 L 79.4,165.3 L 79.2,165.5 L 79.0,166.3 L 79.0,167.3 L 78.9,167.6 L 78.1,168.5 L 77.3,169.1 L 76.9,169.4 L 76.5,169.5 L 76.1,169.4 L 75.5,169.1 L 75.1,168.7 L 75.0,168.3 L 74.9,168.0 L 75.2,167.7 L 75.6,167.4 L 76.4,166.3 L 76.6,166.2 L 76.7,166.0 L 76.7,165.8 L 76.5,165.6 L 76.3,165.6 L 76.0,166.1 L 75.9,166.2 L 75.8,166.3 L 75.6,166.4 L 74.9,167.2 L 74.7,167.6 L 74.2,167.9 L 73.9,168.2 L 73.6,168.0 L 72.6,168.2 L 72.6,168.2 L 72.2,168.4 L 71.9,168.7 L 71.7,168.8 L 71.5,168.7 L 71.2,168.4 L 70.4,167.2 L 70.3,166.8 L 70.2,166.0 L 70.4,165.7 L 70.6,165.5 L 71.1,164.8 L 71.3,164.3 L 71.2,164.1 L 70.3,165.2 L 69.9,165.4 L 69.6,165.6 L 69.3,166.1 L 68.5,167.3 L 67.9,167.4 L 67.8,167.4 L 67.7,167.1 L 67.2,166.9 L 66.3,166.3 L 65.3,165.4 L 63.9,164.1 L 63.7,164.1 L 63.7,164.2 L 63.5,164.3 L 63.5,164.0 L 63.6,163.8 L 63.5,163.6 L 62.9,162.8 L 62.7,162.3 L 62.6,161.8 L 62.7,161.3 L 62.9,161.2 L 63.4,161.4 L 63.6,161.4 L 64.0,161.0 L 64.1,160.7 L 64.0,160.6 L 63.9,160.6 L 64.2,160.4 L 64.2,159.6 L 64.1,159.4 L 64.1,159.2 L 64.1,159.1 L 64.0,159.0 L 64.0,158.9 L 64.1,158.7 L 64.0,158.3 L 63.6,158.1 L 63.6,157.8 L 63.9,157.5 L 64.3,157.5 L 64.9,157.4 L 65.3,157.3 L 65.6,156.8 L 65.7,156.3 L 65.9,155.6 L 66.1,155.2 L 66.4,155.1 L 66.4,154.8 L 66.5,154.5 L 66.7,154.2 L 66.7,153.9 L 66.8,153.8 L 66.8,153.6 L 67.2,153.0 L 67.8,152.5 L 68.8,151.3 L 69.1,151.0 L 69.2,150.9 L 69.3,150.8 L 69.6,150.6 L 69.8,150.2 L 70.3,150.0 L 70.4,149.8 L 70.4,149.5 L 70.4,149.2 L 70.9,148.8 L 71.3,148.1 L 71.4,147.9 L 71.8,147.7 L 71.8,147.4 L 71.8,146.9 L 71.9,146.6 L 72.4,146.6 L 72.4,146.5 L 72.3,146.3 L 72.4,146.1 L 73.4,145.5 L 73.4,145.4 L 72.9,145.4 L 72.4,145.7 L 72.3,145.4 L 72.9,144.6 L 73.4,144.5 L 74.0,144.3 L 74.0,144.1 L 73.7,144.1 L 73.3,144.2 L 72.6,144.4 L 71.2,143.8 L 70.7,143.8 L 70.4,143.4 L 70.3,142.5 L 70.4,141.9 L 70.5,141.6 L 70.6,141.1 L 70.4,141.2 L 70.0,141.6 L 69.6,141.7 L 69.3,142.2 L 69.2,142.2 L 69.2,141.8 L 69.4,141.4 L 70.3,140.9 L 71.6,140.2 L 72.4,139.9 L 72.5,139.8 L 72.5,139.6 L 72.5,139.4 L 72.4,139.2 L 72.1,139.0 L 72.0,138.7 L 72.2,138.1 L 72.1,138.0 L 71.7,137.7 L 71.4,137.3 L 71.3,137.0 L 71.2,136.3 L 71.3,136.0 L 71.3,135.9 L 70.5,135.9 L 69.4,135.6 L 69.1,135.7 L 68.2,135.6 L 67.8,135.6 L 67.3,135.5 L 66.9,135.3 L 66.2,134.1 L 66.2,133.7 L 66.3,133.3 L 66.2,133.1 L 65.4,132.4 L 65.2,132.2 L 64.5,131.8 L 64.2,131.5 L 63.8,130.9 L 63.5,130.1 L 63.2,129.3 L 63.2,129.0 L 63.2,128.9 L 63.5,128.6 L 63.1,128.2 L 62.9,128.1 L 62.8,128.2 L 62.5,128.1 L 62.4,128.3 L 62.5,128.6 L 62.3,128.9 L 62.2,129.0 L 61.4,128.6 L 61.0,128.5 L 60.9,128.5 L 61.8,115.7 L 61.8,115.7 L 62.0,115.7 L 62.2,115.8 L 62.9,115.9 L 63.7,115.7 L 64.3,115.5 L 65.6,115.3 L 66.0,114.8 L 66.7,114.0 L 66.9,113.7 L 67.1,113.3 L 67.6,113.1 L 68.2,112.2 L 68.5,111.8 L 69.3,111.3 L 69.7,111.1 L 70.2,110.6 L 70.5,110.5 L 71.5,110.2 L 71.9,110.1 L 72.5,109.8 L 72.9,108.9 L 73.2,108.7 L 73.5,108.7 L 74.3,108.7 L 74.8,108.6 L 75.1,108.3 L 75.4,108.1 L 76.1,107.7 L 76.4,107.4 L 76.5,107.3 L 76.6,107.1 L 76.5,106.9 L 76.7,107.0 L 76.8,107.2 L 76.8,107.3 L 76.8,107.4 L 77.0,107.3 L 77.1,107.0 L 76.9,106.7 L 77.0,106.5 L 77.3,106.5 L 78.0,105.8 L 78.5,105.8 L 78.7,105.7 L 79.0,105.4 L 79.1,105.1 L 79.2,104.7 L 78.9,104.5 L 79.1,103.9 L 79.4,103.7 L 80.0,103.5 L 80.2,103.4 L 80.3,103.4 L 80.5,103.3 L 80.8,103.1 L 80.8,102.9 L 80.6,102.6 L 80.9,102.5 L 81.2,102.2 L 81.1,101.8 L 81.5,101.3 L 81.9,100.8 L 81.9,100.6 L 81.7,100.4 L 81.7,100.1 L 81.9,99.8 L 82.1,99.7 L 82.4,99.7 L 82.5,99.8 L 82.7,99.9 L 82.8,100.2 L 82.9,100.3 L 83.1,100.4 L 83.3,100.3 L 83.5,100.2 L 83.7,100.4 L 84.2,100.3 L 84.6,100.1 L 84.8,100.1 L 85.3,100.0 L 85.8,100.1 L 86.1,100.3 L 86.7,100.5 L 87.1,100.5 L 87.6,100.4 L 88.0,100.0 L 88.0,100.0 L 87.8,99.9 L 87.7,99.7 L 87.6,99.6 L 87.7,99.4 L 87.4,99.3 L 87.4,99.2 L 87.9,98.6 L 88.0,98.5 L 87.9,98.4 L 87.7,98.3 L 87.7,98.3 L 87.2,98.2 L 87.1,98.1 L 87.3,97.8 L 87.4,97.5 L 87.3,97.2 L 87.2,97.2 L 86.8,97.1 L 86.7,96.9 L 85.3,97.2 L 84.2,98.4 L 83.7,98.7 L 83.3,98.9 L 82.6,99.1 L 82.5,99.0 L 82.4,98.7 L 82.3,98.4 L 82.3,98.1 L 82.5,97.8 L 82.5,97.7 L 82.1,97.7 L 82.1,97.4 L 81.5,97.3 L 81.4,97.4 L 81.2,97.6 L 80.7,97.9 L 79.9,98.1 L 79.6,98.4 L 79.5,98.7 L 79.5,99.0 L 79.8,99.1 L 79.9,99.2 L 79.4,99.7 L 79.1,99.7 L 78.6,99.7 L 78.1,100.0 L 77.2,100.2 L 76.7,100.7 L 76.1,101.2 L 75.8,101.5 L 75.5,101.6 L 74.1,101.3 L 73.3,100.8 L 72.3,100.0 L 72.1,99.9 L 71.7,99.3 L 70.8,97.4 L 70.8,96.9 L 70.9,96.2 L 71.1,95.7 L 71.3,95.4 L 71.3,95.2 L 71.2,95.0 L 70.0,94.0 L 69.6,93.5 L 69.1,91.6 L 69.2,89.9 L 69.4,88.9 L 69.7,88.7 L 70.1,88.5 L 70.4,88.3 L 71.0,87.5 L 71.4,87.1 L 71.8,86.2 L 72.0,85.7 L 72.2,85.4 L 72.3,85.3 L 72.8,84.6 L 73.4,84.3 L 73.8,84.1 L 73.9,83.9 L 73.7,83.7 L 74.0,83.2 L 74.3,82.9 L 75.1,82.2 L 76.2,82.0 L 76.5,81.7 L 76.4,81.2 L 76.5,80.9 L 76.4,80.7 L 75.7,80.4 L 75.3,79.6 L 75.3,79.3 L 75.0,79.1 L 75.0,79.0 L 74.5,78.8 L 74.6,78.7 L 74.9,78.3 L 75.3,78.1 L 75.7,77.9 L 76.9,77.7 L 78.0,78.4 L 78.2,78.7 L 78.3,78.7 L 78.6,79.3 L 78.7,79.8 L 78.7,80.1 L 78.3,80.7 L 78.1,80.7 L 77.9,80.9 L 78.0,81.3 L 77.9,81.6 L 77.9,81.8 L 78.1,81.8 L 78.5,81.6 L 78.8,81.5 L 79.1,81.7 L 79.4,81.6 L 79.7,81.3 L 80.2,80.7 L 80.9,80.4 L 82.0,79.9 L 82.4,79.6 L 82.8,78.9 L 82.9,78.6 L 83.0,78.4 L 83.5,78.2 L 83.6,78.2 L 83.7,78.2 L 83.9,78.2 L 84.5,77.7 L 84.7,77.7 L 84.7,77.6 L 85.0,77.5 L 85.7,77.2 L 86.4,76.6 L 87.0,75.9 L 88.1,75.2 L 88.4,74.8 L 88.9,74.5 L 89.2,74.1 L 89.2,73.8 L 89.1,73.3 L 89.0,73.3 L 88.5,73.3 L 88.5,73.2 L 88.8,72.5 L 88.9,72.4 L 89.1,72.2 L 89.5,71.6 L 89.9,71.2 L 91.2,69.7 L 91.5,69.5 L 91.8,69.4 L 91.9,69.1 L 91.9,68.9 L 92.4,68.1 L 92.4,67.9 L 92.2,67.7 L 92.2,67.6 L 92.3,67.4 L 92.6,67.4 L 92.7,67.5 L 93.1,67.2 L 93.2,66.9 L 93.1,66.7 L 93.3,66.5 L 94.3,66.0 L 94.4,65.9 L 94.4,65.6 L 94.6,65.2 L 94.9,65.4 L 95.2,65.4 L 96.9,64.1 L 96.8,63.7 L 97.1,63.6 L 97.4,63.2 L 97.4,63.0 L 96.8,63.1 L 96.9,62.8 L 96.7,62.7 L 97.1,62.4 L 97.0,62.2 L 96.7,62.3 L 96.6,62.4 L 96.5,62.7 L 96.4,62.9 L 96.2,62.8 L 96.1,63.1 L 95.9,63.3 L 95.3,63.5 L 95.3,63.4 L 95.5,63.0 L 96.2,62.5 L 96.4,62.2 L 96.3,62.0 L 96.3,61.8 L 96.2,61.7 L 96.4,61.4 L 97.0,60.9 L 97.2,60.7 L 97.0,60.7 L 96.9,60.5 L 96.4,60.6 L 96.5,60.3 L 96.1,60.4 L 96.0,60.2 L 95.9,60.1 L 95.8,60.0 L 95.5,60.1 L 95.0,60.8 L 94.7,61.1 L 94.2,61.2 L 93.7,61.5 L 93.4,61.7 L 93.4,61.5 L 94.6,60.4 L 95.1,60.0 L 95.2,59.9 L 95.1,59.8 L 94.7,59.8 L 94.3,60.1 L 94.1,60.2 L 93.9,60.3 L 93.9,60.8 L 93.7,61.0 L 93.4,61.1 L 93.0,61.4 L 92.2,62.0 L 92.0,62.1 L 91.9,62.0 L 92.2,61.7 L 92.5,61.4 L 92.9,61.1 L 93.3,60.8 L 93.1,60.5 L 92.9,60.5 L 92.3,60.9 L 92.1,61.2 L 91.8,61.5 L 91.5,61.6 L 91.5,61.5 L 92.5,60.2 L 93.0,60.0 L 93.7,59.9 L 93.9,59.7 L 93.8,59.5 L 93.6,59.4 L 93.8,59.0 L 93.8,59.0 L 94.0,58.6 L 94.0,58.4 L 94.2,58.2 L 94.4,57.8 L 94.7,57.7 L 94.8,57.5 L 94.9,57.3 L 95.1,57.3 L 95.1,57.1 L 95.1,56.9 L 95.3,56.6 L 95.4,56.3 L 95.5,56.2 L 95.8,56.1 L 96.1,55.7 L 96.1,55.7 L 309.3,40.0 L 309.4,40.0 L 309.2,40.1 L 308.4,40.2 L 308.3,40.4 L 308.3,40.6 L 308.6,41.2 L 308.8,41.4 L 309.0,41.9 L 309.1,42.1 L 309.4,42.2 L 309.7,42.5 L 309.8,42.7 L 309.7,42.9 L 309.3,42.9 L 308.9,43.3 L 308.7,43.4 L 308.0,44.3 L 308.1,44.5 L 309.3,44.8 L 310.2,44.9 L 310.6,45.1 L 310.8,45.5 L 311.1,45.4 L 311.4,45.6 L 311.4,45.9 L 311.7,45.9 L 311.8,46.3 L 312.2,46.3 L 312.3,46.8 L 312.8,46.9 L 313.1,46.7 L 313.2,46.8 L 313.3,46.9 L 313.7,47.2 L 313.8,47.5 L 314.1,47.4 L 314.2,47.5 L 314.2,47.7 L 314.0,47.9 L 314.1,48.5 L 314.4,48.7 L 314.7,48.8 L 314.9,48.8 L 315.0,49.1 L 315.2,49.2 L 315.7,49.1 L 315.7,49.1 L 316.0,49.1 L 316.0,49.5 L 316.2,49.5 L 316.5,49.4 L 316.8,49.5 L 316.9,49.9 L 317.1,49.9 L 317.3,50.0 L 317.9,50.8 L 318.3,51.8 L 318.4,52.6 L 318.5,53.2 L 318.4,53.7 L 318.2,54.0 L 317.8,54.2 L 317.4,54.4 L 316.6,54.5 L 316.6,54.5 L 316.3,54.5 L 315.7,54.4 L 315.3,54.3 L 313.5,54.3 L 313.4,54.4 L 313.4,54.8 L 313.2,54.8 L 313.1,55.1 L 313.0,55.1 L 312.9,55.3 L 313.0,55.3 L 313.0,55.3 L 312.1,59.6 L 302.4,108.4 L 301.2,108.5 L 300.8,108.6 L 300.5,108.9 L 299.7,109.1 L 298.5,109.4 L 298.2,109.6 L 298.0,109.7 L 297.5,109.7 L 297.0,109.9 L 296.5,110.3 L 296.3,110.6 L 296.5,110.9 L 296.1,111.3 L 296.2,111.7 L 296.0,112.0 L 296.1,112.2 L 296.1,112.8 L 296.2,113.0 L 296.3,113.2 L 296.1,113.7 L 296.0,114.1 L 295.7,114.4 L 295.8,114.5 L 295.9,114.7 L 295.7,115.1 L 295.8,115.3 L 295.9,115.5 L 295.8,115.9 L 295.1,116.9 L 295.0,117.0 L 294.7,117.3 L 294.3,117.4 L 294.0,117.5 L 293.2,118.0 L 292.6,118.3 L 292.5,118.5 L 292.6,118.7 L 292.5,118.9 L 292.5,119.0 L 292.8,119.1 L 292.8,119.3 L 293.2,119.4 L 293.6,119.5 L 293.7,119.7 L 293.5,119.9 L 293.5,120.2 L 293.8,120.3 L 293.7,120.5 L 293.9,120.6 L 293.9,120.7 L 294.0,120.8 L 294.5,120.8 L 294.3,121.2 L 294.5,121.3 L 294.6,121.7 L 294.4,121.9 L 293.7,123.0 L 293.6,123.3 L 293.7,124.0 L 293.6,124.2 L 292.6,124.6 L 292.1,125.3 L 291.9,125.7 L 291.9,126.1 L 292.0,126.4 L 292.3,126.4 L 292.5,126.5 L 292.7,126.7 L 292.6,126.8 L 292.7,127.0 L 293.1,127.0 L 293.4,127.1 L 293.5,127.2 L 294.0,127.6 L 294.3,127.7 L 294.6,127.7 L 295.2,127.9 L 296.1,128.1 L 296.5,128.3 L 296.9,128.5 L 297.3,128.6 L 297.7,128.6 L 297.9,128.8 L 298.2,128.9 L 298.5,129.0 L 298.4,129.2 L 298.5,129.3 L 298.8,129.3 L 299.4,129.1 L 299.7,129.0 L 300.7,128.8 L 300.9,128.7 L 301.4,128.5 L 301.6,128.5 L 301.8,128.5 L 302.0,128.5 L 302.1,128.3 L 302.0,128.1 L 302.4,127.8 L 302.8,127.7 L 303.5,127.4 L 304.2,127.5 L 304.5,127.7 L 304.4,127.9 L 304.5,128.1 L 304.8,128.0 L 305.0,128.1 L 305.9,128.6 L 306.4,128.8 L 307.6,129.6 L 307.6,129.7 L 308.4,130.2 L 309.1,130.6 L 309.1,130.8 L 308.9,130.9 L 308.8,131.0 L 308.9,131.1 L 308.9,131.3 L 309.1,131.4 L 309.2,131.4 L 309.3,131.1 L 309.4,130.9 L 309.7,131.1 L 310.0,131.3 L 310.1,131.7 L 309.8,131.9 L 309.8,132.0 L 310.0,132.0 L 310.1,132.1 L 310.6,132.0 L 310.7,132.0 L 311.0,132.2 L 310.9,132.4 L 311.2,132.7 L 311.1,132.8 L 311.1,132.9 L 311.4,132.9 L 312.8,134.0 L 314.4,134.8 L 314.9,135.1 L 315.4,135.1 L 315.9,135.4 L 316.7,135.6 L 317.6,135.8 L 318.1,136.0 L 318.4,136.1 L 318.4,136.1 L 319.1,136.4 L 319.8,136.5 L 320.8,136.5 L 323.2,137.2 L 324.4,137.7 L 324.9,138.1 L 325.4,138.5 L 326.0,138.7 L 326.7,139.5 L 327.0,139.8 L 327.7,140.5 L 328.0,140.6 L 328.5,140.7 L 329.2,140.9 L 329.9,141.0 L 330.2,141.1 L 330.5,141.3 L 330.5,141.3 L 330.7,141.4 L 330.7,141.7 L 330.9,141.6 L 331.0,141.6 L 331.3,141.5 L 331.5,141.4 L 331.8,141.4 L 331.8,141.6 L 331.9,141.7 L 332.1,141.7 L 332.3,141.8 L 332.4,141.8 L 332.5,141.5 L 332.8,141.3 L 332.8,141.1 L 332.9,141.0 L 333.1,141.1 L 333.2,141.0 L 333.4,140.7 L 334.1,140.4 L 334.7,140.4 L 335.8,140.3 L 336.1,140.3 L 336.2,140.5 L 337.4,140.0 L 337.7,140.0 L 337.7,140.1 L 339.1,142.5 L 338.9,142.5 L 338.7,142.6 L 338.1,142.8 L 337.1,143.2 L 336.1,144.0 L 335.6,144.1 L 335.4,144.2 L 334.5,144.4 L 334.0,144.7 L 333.9,144.9 L 333.7,145.0 L 333.6,145.1 L 333.5,145.3 L 333.1,145.5 L 333.0,145.7 L 333.0,146.1 L 332.8,146.1 L 332.6,146.3 L 332.6,146.6 L 332.4,146.9 L 332.4,147.5 L 332.7,147.4 L 332.8,147.5 L 333.6,147.1 L 334.0,147.0 L 334.2,147.0 L 334.2,147.2 L 334.1,147.8 L 333.9,148.0 L 333.9,148.1 L 334.1,148.2 L 334.2,148.2 L 334.0,148.7 L 333.4,149.1 L 333.1,149.4 L 333.1,149.6 L 332.9,149.9 L 332.9,150.1 L 332.5,150.2 L 332.6,150.6 L 332.5,150.7 L 332.3,151.0 L 332.1,151.2 L 332.1,151.2 L 331.7,151.6 L 331.5,152.0 L 330.7,152.4 L 330.2,152.7 L 330.0,153.0 L 329.8,153.3 L 329.4,153.5 L 329.0,153.9 L 328.7,154.0 L 328.4,154.2 L 328.2,154.6 L 328.2,154.8 L 327.7,155.1 L 327.7,155.5 L 327.5,155.8 L 327.7,156.1 L 327.7,156.3 L 327.4,156.5 L 327.3,156.8 L 327.4,156.9 L 327.4,157.0 L 327.4,157.3 L 326.9,157.6 L 326.9,157.8 L 327.2,158.1 L 327.2,158.5 L 326.9,158.7 L 326.9,158.9 L 327.2,159.1 L 327.6,159.6 L 327.7,159.9 L 327.7,160.1 L 327.6,160.5 L 327.3,160.9 L 326.8,161.4 L 326.5,161.5 L 325.8,161.7 L 325.5,161.9 L 324.6,162.2 L 324.3,162.6 L 323.8,162.9 L 322.9,162.9 L 322.6,162.9 L 322.2,163.0 L 321.4,163.4 L 320.9,163.6 L 319.9,164.2 L 318.0,164.8 L 317.6,165.0 L 317.0,165.3 L 316.8,165.6 L 316.1,166.0 L 316.3,166.2 L 316.0,166.7 L 316.0,166.9 L 316.1,167.1 L 315.9,167.5 L 315.9,167.7 L 315.8,167.9 L 315.4,168.0 L 315.2,168.2 L 315.2,168.7 L 315.0,168.9 L 314.3,169.2 L 313.8,169.5 L 313.4,169.8 L 312.9,170.1 L 311.9,170.1 L 311.7,170.0 L 311.3,169.9 L 310.9,170.0 L 310.9,170.1 L 310.6,170.2 L 309.8,170.4 L 309.1,170.6 L 308.6,170.9 L 307.5,171.9 L 306.2,172.8 L 306.2,172.8 L 305.3,173.3 L 304.5,174.1 L 304.0,174.5 L 303.6,175.0 L 303.4,175.5 L 303.1,175.8 L 302.6,176.2 L 302.4,176.5 L 302.1,176.8 L 301.9,177.0 L 301.3,178.3 L 301.2,178.5 L 301.4,178.5 L 301.5,178.5 L 301.1,179.0 L 301.1,179.4 L 300.7,179.7 L 300.4,180.2 L 299.8,181.9 L 299.6,182.2 L 299.0,183.1 L 298.8,183.7 L 299.0,184.0 L 298.9,184.2 L 299.0,184.5 L 299.2,184.4 L 299.3,184.4 L 299.0,185.3 L 299.1,185.4 L 299.3,185.5 L 299.1,185.9 L 299.2,186.3 L 299.6,186.8 L 300.5,187.5 L 301.0,187.6 L 301.1,187.8 L 301.8,188.1 L 301.9,188.3 L 302.5,188.3 L 307.4,203.1 L 307.1,203.4 L 306.7,203.8 L 306.3,204.5 L 306.2,204.9 L 306.1,205.1 L 306.1,205.5 L 306.2,205.6 L 306.2,205.9 L 306.0,206.5 L 305.8,206.5 L 305.6,206.6 L 305.6,206.8 L 306.1,207.1 L 306.1,207.3 L 306.0,207.5 L 306.2,207.9 L 306.3,208.1 L 306.5,208.4 L 306.4,208.6 L 306.6,208.7 L 306.7,208.8 L 306.6,208.9 L 306.6,209.2 L 306.8,209.3 L 306.9,209.6 L 306.8,209.8 L 306.5,210.2 L 306.2,210.5 L 306.2,211.0 L 306.2,211.1 L 306.6,211.3 L 306.8,211.3 L 307.7,211.7 L 307.9,211.7 L 308.0,211.7 L 308.1,211.8 L 308.3,212.0 L 308.1,212.2 L 308.0,212.7 L 308.1,212.9 L 308.3,213.0 L 308.6,213.0 L 309.0,213.5 L 309.2,213.5 L 309.6,213.3 L 309.8,213.6 L 309.8,213.8 L 309.7,213.9 L 309.5,214.1 L 309.4,214.5 L 309.4,215.0 L 309.9,215.3 L 309.9,215.5 L 310.1,215.6 L 310.2,215.7 L 310.0,216.0 L 310.0,216.2 L 310.2,216.5 L 310.5,216.7 L 310.9,216.6 L 311.4,216.3 L 311.6,216.3 L 311.9,216.8 L 311.9,217.0 L 311.8,217.3 L 311.8,217.4 L 311.5,218.1 L 311.5,218.2 L 311.7,218.6 L 311.4,218.9 L 311.0,219.0 L 311.0,219.1 L 311.1,219.3 L 311.2,219.7 L 311.1,220.0 L 310.8,220.1 L 310.9,220.6 L 310.6,220.8 L 310.6,221.1 L 310.6,221.4 L 310.8,221.7 L 310.4,221.9 L 310.4,221.9 L 310.2,222.4 L 310.5,222.7 L 310.3,222.8 L 310.4,222.9 L 310.5,223.2 L 310.6,223.4 L 310.7,223.6 L 310.6,223.8 L 310.3,224.0 L 310.3,224.2 L 310.6,224.6 L 310.7,224.8 L 310.6,224.9 L 310.0,225.6 L 309.8,225.8 L 309.8,226.1 L 310.0,226.7 L 310.3,227.2 L 310.1,227.4 L 310.1,227.8 L 310.3,227.9 L 310.5,228.7 L 311.1,229.5 L 311.2,229.8 L 311.6,230.3 L 311.7,230.5 L 311.4,230.7 L 311.4,230.9 L 311.6,231.3 L 311.9,231.8 L 312.7,232.6 L 313.1,233.2 L 313.2,233.5 L 312.9,233.6 L 313.0,233.9 L 312.4,234.0 L 312.3,234.1 L 312.7,234.3 L 312.6,234.5 L 312.9,234.7 L 313.0,234.8 L 312.5,235.1 L 311.9,235.4 L 311.9,235.5 L 312.2,235.8 L 312.3,236.1 L 312.5,236.3 L 312.5,236.6 L 313.0,236.8 L 313.4,237.1 L 313.9,237.1 L 314.1,237.1 L 314.1,237.3 L 314.8,237.2 L 314.9,237.3 L 314.8,237.4 L 314.8,237.6 L 315.0,237.9 L 315.1,238.2 L 315.3,238.4 L 315.1,238.9 L 315.1,239.1 L 315.3,239.3 L 315.3,239.5 L 315.2,239.8 L 315.2,240.3 L 314.8,240.8 L 314.3,241.8 L 314.0,242.4 L 313.7,243.3 L 313.8,243.9 L 313.9,244.3 L 313.7,244.5 L 313.7,244.6 L 314.1,244.6 L 314.1,244.9 L 315.6,245.6 L 316.2,245.7 L 316.9,245.6 L 317.1,245.7 L 317.2,245.9 L 317.0,246.0 L 317.0,246.4 L 317.3,246.5 L 317.4,246.8 L 317.8,246.9 L 318.1,246.8 L 318.5,246.9 L 318.8,247.2 L 319.0,247.3 L 318.9,247.5 L 318.9,247.9 L 318.8,248.4 L 318.9,248.5 L 319.1,248.7 L 318.9,248.9 L 318.9,249.1 L 319.2,249.2 L 319.9,250.2 L 320.6,250.6 L 321.1,250.7 L 321.4,250.7 L 320.9,270.6 L 320.9,270.7 L 320.7,270.8 L 320.7,271.0 L 320.5,271.1 L 320.2,271.0 L 319.8,271.1 L 319.3,271.3 L 319.0,271.6 L 319.0,271.7 L 319.2,271.9 L 319.0,272.3 L 319.0,272.6 L 319.2,272.8 L 319.3,273.0 L 319.1,273.0 L 319.0,273.2 L 319.4,273.8 L 319.4,274.0 L 319.5,274.2 L 319.6,274.5 L 319.7,274.7 L 319.6,275.1 L 319.8,275.4 L 319.8,275.4 L 235.2,325.1 L 235.1,325.1 L 234.9,325.1 L 234.5,325.6 L 234.3,325.7 L 234.3,325.3 L 234.2,325.3 L 233.9,325.5 L 233.7,325.7 L 233.6,325.6 L 212.5,319.8 L 212.8,319.3 L 212.9,319.1 L 212.9,319.0 L 212.8,318.8 L 212.5,318.8 L 212.4,318.8 L 212.3,318.9 L 212.1,319.2 L 212.0,319.1 L 212.1,318.7 L 211.8,318.0 L 211.4,318.0 L 211.5,317.7 L 211.4,317.7 L 210.1,318.3 L 209.6,318.7 L 208.8,319.8 L 208.8,319.9 L 208.5,320.5 L 208.5,320.7 L 208.6,320.8 L 208.7,321.2 L 208.5,321.4 L 207.9,321.7 L 207.4,322.3 L 206.9,322.9 L 205.8,323.9 L 205.2,324.7 L 205.1,325.1 L 204.8,325.7 L 204.3,326.4 L 204.0,326.6 L 203.8,327.1 L 203.9,327.4 L 203.3,328.3 L 203.4,328.6 L 203.1,328.7 L 203.0,328.8 L 204.0,328.9 L 204.0,329.0 L 203.9,329.1 L 203.8,329.4 L 203.5,329.6 L 202.8,330.1 L 201.2,331.4 L 200.2,332.0 L 198.7,332.8 L 198.4,333.0 L 198.1,333.4 L 197.6,334.0 L 197.5,334.0 L 197.3,334.0 L 196.8,334.1 L 196.7,334.0 L 196.5,334.1 L 195.7,334.4 L 195.2,334.7 L 194.6,335.2 L 194.0,335.6 L 193.1,336.1 L 192.6,336.5 L 192.2,336.9 L 192.3,337.1 L 192.0,337.2 L 191.9,337.4 L 191.9,337.7 L 191.7,337.7 L 191.5,337.9 L 191.5,338.1 L 191.4,338.0 L 191.2,338.1 L 190.8,338.6 L 190.5,338.9 L 189.9,339.2 L 189.2,339.4 L 188.8,339.8 L 188.6,340.0 L 188.5,340.1 L 188.2,340.4 L 187.3,340.6 L 187.2,340.7 L 187.3,341.0 L 186.9,341.1 L 186.8,341.1 L 186.2,341.5 L 185.6,341.6 L 185.4,341.8 L 185.3,341.8 L 185.2,341.6 L 185.3,341.5 L 184.9,341.5 L 184.8,341.5 L 184.0,341.7 L 183.9,341.9 L 184.1,342.1 L 183.8,342.2 L 182.7,342.7 L 181.6,343.4 L 181.1,343.5 L 180.6,343.6 L 177.9,344.7 L 177.4,345.0 L 176.9,345.1 L 176.8,345.3 L 176.4,345.4 L 176.0,345.8 L 175.8,345.8 L 174.8,346.3 L 174.0,346.9 L 173.8,347.2 L 173.7,348.4 L 173.5,349.0 L 173.1,349.6 L 173.1,349.9 L 172.7,350.1 L 172.0,350.5 L 171.6,350.9 L 171.6,351.0 L 171.6,351.2 L 171.1,351.3 L 170.1,351.8 L 169.7,352.1 L 169.4,352.3 L 169.1,352.4 L 168.4,352.9 L 168.1,353.0 L 167.9,353.3 L 167.3,353.3 L 167.2,353.4 L 167.2,353.6 L 166.7,353.9 L 166.7,354.0 L 166.6,354.3 L 166.4,354.4 L 166.1,354.4 L 165.5,354.7 L 164.8,355.1 L 164.4,355.3 L 164.0,355.5 L 163.6,356.1 L 163.1,356.6 L 162.4,357.4 L 162.3,357.4 L 162.1,357.4 L 161.5,357.8 L 161.2,358.2 L 160.4,359.9 L 160.4,360.0 L 87.1,295.9 L 88.2,295.8 L 88.4,295.9 L 88.8,295.8 L 89.1,295.6 L 89.6,295.2 L 89.6,294.9 L 89.8,294.8 L 90.4,294.5 L 92.0,294.3 L 92.7,294.1 L 93.0,293.9 L 93.7,293.4 L 94.2,292.9 L 94.7,292.5 L 95.0,292.2 L 95.6,291.8 L 95.8,291.5 L 95.9,291.3 L 96.3,291.0 L 96.4,290.5 L 96.8,290.5 L 97.2,290.6 L 97.3,290.6 L 98.7,290.4 L 98.7,290.5 L 98.9,290.7 L 99.6,290.5 L 100.3,290.2 L 101.3,289.5 L 101.8,289.0 L 101.8,288.7 L 102.2,288.3 L 102.6,287.6 L 102.8,286.7 L 102.8,286.2 L 102.5,285.7 L 102.0,285.1 L 100.5,284.2 L 100.2,283.8 L 99.9,283.3 L 99.7,282.6 L 99.6,282.3 L 99.7,282.0 L 99.9,282.0 L 100.3,282.2 L 100.6,282.3 L 101.0,282.2 L 101.1,281.9 L 100.9,281.6 L 100.7,281.4 L 100.8,281.2 L 101.0,280.8 L 100.9,280.6 L 100.4,280.7 L 100.4,280.4 L 100.5,280.0 L 100.3,279.7 L 100.1,279.6 L 100.2,279.5 L 100.8,279.3 L 100.9,279.0 L 101.6,278.9 L 101.7,278.8 L 101.8,278.4 L 102.3,277.8 L 102.3,277.4 L 102.6,277.1 L 102.6,276.6 L 102.6,276.3 L 102.2,275.9 L 102.6,275.7 L 102.8,275.2 L 102.9,275.0 L 103.1,274.9 L 103.3,274.6 L 103.3,274.3 L 104.0,273.5 L 104.3,273.3 L 104.5,273.0 L 104.6,272.6 L 104.6,272.4 L 104.3,272.2 L 103.9,272.4 L 103.8,272.3 L 103.5,272.2 L 103.5,272.0 L 103.3,271.9 L 103.0,272.1 L 102.9,271.9 L 103.0,271.8 L 102.7,271.7 L 102.3,271.7 L 101.7,272.0 L 101.3,272.1 L 101.0,272.0 L 100.8,271.9 L 100.9,271.6 L 100.8,271.6 L 99.9,271.5 L 99.3,271.4 L 99.1,271.2 L 98.7,271.0 L 98.4,270.7 L 98.4,270.1 L 98.5,269.8 L 98.9,269.7 L 99.1,269.6 L 99.1,269.3 L 99.1,269.2 L 98.9,269.2 L 98.8,269.0 L 99.4,268.7 L 99.4,268.6 L 99.3,268.4 L 98.9,268.4 L 98.9,268.3 L 99.0,268.2 L 99.5,268.0 L 99.6,267.9 L 99.6,267.6 L 99.8,267.3 L 99.9,267.0 L 99.7,266.7 L 100.2,266.1 L 100.8,266.0 L 101.1,266.2 L 101.4,266.1 L 101.7,265.9 L 101.7,265.7 L 101.6,265.4 L 101.8,265.2 L 102.4,264.9 L 103.0,264.3 L 103.6,263.9 L 103.8,264.1 L 104.2,264.0 L 104.3,263.8 L 103.9,263.6 L 103.6,263.6 L 103.6,263.5 L 103.5,262.8 L 103.7,262.4 L 103.7,262.1 L 103.7,261.9 L 103.9,261.6 L 104.3,261.0 L 104.9,260.6 L 105.1,260.5 L 105.6,260.4 L 106.3,260.4 L 107.0,260.6 L 107.1,260.5 L 107.8,260.8 L 108.2,261.2 L 108.6,261.9 L 108.7,262.3 L 108.7,262.4 L 108.8,263.2 L 109.0,263.2 L 109.4,263.1 L 109.6,262.9 L 109.7,263.1 L 109.9,263.2 L 110.5,263.2 L 110.6,263.6 L 111.4,263.6 L 111.7,263.4 L 112.1,263.2 L 112.7,263.6 L 113.0,263.8 L 113.1,264.1 L 113.0,264.7 L 113.4,264.9 L 113.7,264.9 L 114.0,264.7 L 114.2,264.6 L 114.8,264.6 L 115.0,264.8 L 115.1,265.1 L 115.2,265.2 L 115.9,265.2 L 116.4,265.3 L 116.6,265.7 L 116.9,266.0 L 117.4,266.0 L 117.8,266.2 L 117.9,266.3 L 118.0,266.3 L 118.2,266.1 L 118.4,266.0 L 118.7,266.2 L 119.0,266.4 L 120.1,266.9 L 120.5,266.9 L 120.5,267.0 L 120.7,267.1 L 121.3,266.9 L 121.5,266.9 L 121.9,266.9 L 122.6,267.7 L 122.8,268.1 L 123.6,268.3 L 124.2,268.1 L 124.5,268.1 L 124.6,268.2 L 124.6,268.5 L 124.9,268.8 L 125.3,268.8 L 125.5,269.0 L 125.7,268.9 L 126.0,268.8 L 126.2,268.8 L 126.5,269.0 L 126.9,269.0 L 127.7,268.9 L 128.0,268.4 L 128.1,268.0 L 128.4,267.5 L 128.6,267.3 L 129.2,267.0 L 129.4,266.7 L 129.3,266.5 L 129.4,266.2 L 129.2,266.1 L 129.2,265.7 L 129.3,265.3 L 129.2,265.0 L 129.3,264.5 L 129.3,264.0 L 129.4,263.8 L 129.5,263.7 L 129.6,263.2 L 129.8,263.0 L 130.1,262.9 L 130.3,262.7 L 131.0,262.3 L 131.8,261.8 L 132.3,261.4 L 133.5,260.7 L 133.5,260.6 L 133.5,260.3 L 133.6,259.7 L 134.0,259.1 L 133.9,258.5 L 134.0,258.3 L 133.4,258.4 L 132.5,259.1 L 131.8,259.2 L 131.3,259.2 L 131.1,259.1 L 131.0,258.8 L 130.9,258.3 L 130.8,258.0 L 130.8,257.9 L 130.6,257.8 L 130.3,257.7 L 130.0,257.5 L 129.8,257.1 L 129.6,256.5 L 129.2,256.2 L 129.0,256.2 L 128.8,256.3 L 128.3,256.5 L 127.4,256.7 L 125.9,256.7 L 125.2,256.8 L 124.4,256.9 L 123.7,256.8 L 123.1,256.5 L 122.8,256.2 L 122.3,255.1 L 122.2,254.9 L 122.1,254.2 L 122.1,253.6 L 122.3,252.6 L 122.6,252.1 L 122.8,252.0 L 123.3,251.7 L 123.7,251.7 L 124.2,251.8 L 124.6,251.7 L 125.1,251.8 L 126.3,251.6 L 126.7,251.6 L 127.2,251.5 L 127.7,250.9 L 127.9,250.7 L 128.1,250.6 L 128.8,250.4 L 129.6,250.4 L 132.2,250.6 L 132.8,250.6 L 133.4,250.6 L 134.2,250.7 L 135.1,250.5 L 135.8,250.0 L 136.5,249.4 L 137.3,248.9 L 137.5,248.7 L 138.2,248.4 L 138.6,248.2 L 138.7,248.1 L 138.7,247.8 L 139.1,247.7 L 139.7,247.6 L 140.0,247.5 L 140.3,247.4 L 141.4,246.9 L 142.1,246.7 L 142.4,246.4 L 142.7,246.3 L 143.3,246.2 L 143.7,246.3 L 144.0,246.5 L 144.8,246.7 L 145.3,246.8 L 146.5,246.6 L 147.4,246.7 L 147.8,246.8 L 148.1,246.8 L 148.5,246.6 L 149.6,246.3 L 150.2,245.9 L 150.5,245.7 L 150.8,245.2 L 150.6,245.0 L 150.7,244.9 L 151.0,244.8 L 151.1,244.5 L 151.2,244.2 L 151.4,243.7 L 151.8,243.4 L 152.2,243.0 L 152.3,242.6 L 153.3,241.9 L 153.5,241.5 L 154.6,240.9 L 155.2,240.5 L 155.8,240.3 L 156.4,239.9 L 157.0,239.5 L 157.7,237.8 L 157.8,237.5 L 157.6,237.1 L 157.7,236.8 L 157.6,236.6 L 157.5,236.5 L 157.9,235.7 L 157.9,235.5 L 157.9,235.3 L 157.5,235.1 L 157.5,234.9 L 157.8,234.6 L 157.7,234.5 L 157.8,234.4 L 157.9,234.2 L 157.8,234.0 L 157.4,234.0 L 157.8,233.6 L 157.8,233.4 L 157.5,233.1 L 157.3,233.0 L 154.8,232.7 L 153.4,232.7 L 151.4,232.5 L 150.8,232.6 L 150.8,232.6 L 149.4,232.8 L 147.3,232.9 L 146.6,233.0 L 144.2,233.4 L 143.3,233.6 L 142.4,234.0 L 141.4,234.2 L 141.1,233.9 L 141.1,233.6 L 140.6,233.1 L 140.6,232.7 L 141.0,232.4 L 141.1,232.0 L 141.1,231.7 L 141.6,231.0 L 141.5,230.9 L 141.3,230.9 L 141.2,230.8 L 141.4,230.7 L 141.8,230.4 L 142.1,230.2 L 143.4,229.2 L 144.2,228.4 L 144.7,227.7 L 144.8,227.3 L 145.2,226.7 L 145.2,226.3 L 145.5,225.9 L 145.4,225.8 L 145.0,225.6 L 145.0,225.4 L 145.3,225.1 L 145.4,224.9 L 146.9,224.7 L 148.4,224.9 L 149.6,225.0 L 149.7,224.9 L 150.5,225.1 L 151.3,225.0 L 152.0,225.2 L 152.5,225.1 L 153.0,224.6 L 154.3,224.2 L 154.6,224.1 L 155.1,223.6 L 155.4,223.4 L 155.6,223.1 L 155.9,222.2 L 156.2,222.0 L 156.6,221.5 L 156.9,221.4 L 157.4,220.8 L 157.8,220.2 L 158.4,219.9 L 158.6,219.6 L 159.0,219.5 L 159.8,218.9 L 159.9,218.5 L 159.9,218.3 L 159.8,218.0 L 159.8,217.8 L 159.7,217.2 L 159.4,216.9 L 159.0,216.6 L 158.6,216.5 L 157.8,216.4 L 156.6,216.6 L 156.4,216.8 L 156.5,217.2 L 156.3,217.5 L 156.2,217.6 L 155.3,217.3 L 154.9,216.9 L 154.8,216.6 L 154.6,216.5 L 154.1,216.6 L 153.6,216.1 L 153.7,216.0 L 153.6,215.9 L 153.0,215.8 L 153.0,215.6 L 153.3,215.5 L 152.7,215.0 L 152.7,214.8 L 152.6,214.8 L 152.4,214.5 L 152.3,214.0 L 152.1,213.8 L 152.0,213.6 L 151.7,213.4 L 151.6,213.3 L 151.7,213.2 L 151.9,213.0 L 152.1,212.8 L 152.0,212.6 L 151.4,212.2 L 151.5,212.1 L 150.4,211.2 L 149.9,211.1 L 149.4,211.0 L 149.1,210.9 L 149.0,210.4 L 148.8,210.4 L 148.4,210.3 L 147.8,210.2 L 147.8,210.0 L 147.9,209.9 L 147.8,209.8 L 147.3,209.8 L 146.5,209.7 L 146.4,209.7 L 145.6,209.9 L 145.3,210.0 L 144.7,210.1 L 143.9,210.1 L 143.5,210.1 L 143.4,210.2 L 143.2,210.2 L 142.7,210.2 L 142.0,210.0 L 141.9,209.7 L 141.7,209.7 L 141.3,209.7 L 140.8,209.2 L 140.0,208.9" fill="none" stroke="black" stroke-width="2"/>
</svg>