<?xml version="1.0" encoding="UTF-8"?>
<svg width="400" height="400" viewBox="0 0 400 400" xmlns="http://www.w3.org/2000/svg">
  <rect width="400" height="400" fill="white"/>
  <path d="M 79.0,216.9 L 95.9,183.6 L 98.8,177.7 L 112.6,150.6 L 112.8,150.2 L 126.5,123.1 L 129.7,116.8 L 132.2,111.7 L 137.5,101.3 L 254.1,180.4 L 354.2,197.5 L 354.2,197.5 L 354.1,197.6 L 354.5,197.8 L 354.2,197.8 L 354.1,197.8 L 354.1,198.0 L 353.9,198.1 L 353.8,198.3 L 354.0,198.5 L 353.9,198.5 L 353.7,198.4 L 353.6,198.4 L 353.6,198.5 L 353.7,198.7 L 353.5,198.9 L 353.5,199.0 L 353.6,199.1 L 353.7,199.2 L 353.8,199.1 L 354.0,199.0 L 354.2,199.0 L 354.3,198.8 L 354.6,198.9 L 355.0,198.9 L 355.1,198.8 L 355.1,198.7 L 355.4,198.5 L 355.5,198.8 L 355.6,198.9 L 355.7,198.9 L 355.8,198.6 L 356.0,198.6 L 356.1,198.8 L 356.1,198.9 L 356.6,199.3 L 356.6,199.3 L 356.7,199.2 L 356.6,198.8 L 356.7,198.4 L 356.7,198.4 L 356.8,198.3 L 356.9,198.1 L 356.9,198.1 L 356.9,198.0 L 356.9,197.9 L 357.3,197.7 L 357.5,197.7 L 357.6,197.5 L 357.7,197.5 L 357.8,197.5 L 357.9,197.6 L 358.0,197.7 L 358.1,197.6 L 358.3,197.6 L 358.4,197.7 L 358.2,197.9 L 358.1,198.1 L 357.9,198.2 L 357.6,198.6 L 357.4,198.8 L 357.0,199.1 L 356.9,199.3 L 357.0,199.4 L 357.2,199.4 L 357.1,199.5 L 357.0,199.6 L 357.1,200.0 L 356.9,200.1 L 356.9,200.2 L 356.9,200.3 L 356.9,200.4 L 357.0,200.6 L 357.0,200.9 L 356.8,200.8 L 356.7,200.6 L 356.7,200.3 L 356.6,200.3 L 356.5,200.5 L 356.3,200.9 L 356.1,201.2 L 356.1,201.4 L 356.1,201.5 L 356.1,201.5 L 356.0,201.6 L 355.9,201.6 L 356.0,201.7 L 356.0,202.3 L 356.0,202.5 L 356.2,202.7 L 356.3,202.6 L 356.4,202.6 L 356.5,202.6 L 356.6,202.5 L 356.7,202.6 L 356.7,202.7 L 356.8,202.7 L 357.0,202.6 L 357.3,202.2 L 357.3,202.0 L 357.3,201.9 L 357.4,201.8 L 357.7,201.4 L 357.7,201.4 L 357.6,201.3 L 357.6,201.1 L 357.6,201.0 L 357.6,200.8 L 357.5,200.7 L 357.5,200.6 L 357.5,200.5 L 357.5,200.4 L 357.4,200.3 L 357.3,200.2 L 357.3,200.0 L 357.4,199.9 L 357.5,199.9 L 357.5,200.0 L 357.5,200.1 L 357.6,200.1 L 357.8,200.1 L 358.0,200.0 L 358.0,200.1 L 358.1,200.1 L 358.3,200.1 L 358.4,200.0 L 358.5,199.8 L 358.6,199.7 L 358.7,199.6 L 358.8,199.6 L 358.9,199.6 L 358.9,199.7 L 358.8,199.9 L 358.6,200.1 L 358.2,200.6 L 358.1,200.9 L 358.1,201.0 L 358.1,201.2 L 358.0,201.4 L 357.8,201.6 L 357.5,202.4 L 357.4,202.8 L 357.3,203.0 L 357.4,203.1 L 357.9,203.3 L 358.1,203.4 L 358.1,203.4 L 358.1,203.5 L 358.0,203.5 L 357.8,203.6 L 357.6,203.7 L 357.5,203.7 L 357.4,203.8 L 357.3,203.9 L 357.2,203.8 L 357.0,203.9 L 357.0,204.1 L 356.9,204.1 L 356.8,204.0 L 356.7,204.1 L 356.7,204.2 L 356.7,204.3 L 356.6,204.3 L 356.5,204.4 L 356.3,204.5 L 356.0,204.8 L 355.9,205.1 L 355.9,205.2 L 355.9,205.3 L 356.0,205.3 L 356.0,205.3 L 356.6,205.9 L 356.9,206.2 L 357.1,206.3 L 357.3,206.5 L 357.6,206.5 L 357.8,206.7 L 358.1,206.7 L 358.2,206.6 L 358.4,206.6 L 358.5,206.7 L 358.8,206.9 L 359.0,207.0 L 359.1,206.9 L 359.2,206.9 L 359.3,207.0 L 359.4,207.0 L 359.6,206.8 L 359.7,206.8 L 359.5,207.0 L 359.4,207.4 L 359.4,207.4 L 359.3,207.3 L 359.3,207.2 L 359.2,207.2 L 359.2,207.2 L 359.3,207.5 L 359.2,207.5 L 359.1,207.4 L 359.0,207.4 L 358.8,207.3 L 358.7,207.3 L 358.8,207.4 L 358.9,207.6 L 358.9,207.7 L 358.9,207.8 L 358.9,207.9 L 358.8,208.2 L 358.9,208.3 L 358.8,208.5 L 358.7,208.6 L 358.6,208.6 L 358.5,208.4 L 358.4,208.3 L 358.3,208.3 L 358.2,208.3 L 358.0,208.7 L 357.6,209.0 L 357.5,209.1 L 357.6,209.2 L 357.7,209.4 L 357.8,209.4 L 357.5,209.3 L 357.3,209.4 L 356.9,209.6 L 356.7,209.7 L 356.5,209.8 L 356.4,209.9 L 356.2,209.8 L 356.1,209.9 L 355.9,209.9 L 355.7,209.9 L 355.5,210.0 L 355.3,210.1 L 355.3,210.2 L 355.1,210.4 L 354.9,210.5 L 354.7,210.4 L 354.7,210.4 L 354.7,210.3 L 354.4,210.4 L 354.4,210.5 L 354.3,210.5 L 354.2,210.5 L 354.2,210.4 L 354.1,210.3 L 354.2,210.3 L 354.5,210.2 L 354.6,210.2 L 354.7,210.1 L 354.8,210.2 L 354.9,210.0 L 355.0,209.8 L 355.0,209.7 L 355.1,209.6 L 355.1,209.5 L 355.0,209.4 L 354.9,209.4 L 354.6,209.6 L 354.3,209.8 L 354.2,210.0 L 354.1,210.1 L 353.9,210.0 L 353.7,210.0 L 353.7,210.0 L 353.8,210.1 L 353.8,210.1 L 353.7,210.1 L 353.7,210.2 L 353.7,210.4 L 353.5,210.5 L 353.3,210.5 L 353.2,210.5 L 352.9,210.6 L 352.8,210.7 L 352.8,210.9 L 352.7,210.9 L 352.7,210.9 L 352.6,211.2 L 352.6,211.3 L 352.5,211.6 L 352.7,211.8 L 352.9,211.7 L 353.0,211.8 L 353.1,211.7 L 353.1,211.6 L 353.1,211.6 L 353.2,211.5 L 353.3,211.4 L 353.6,211.4 L 353.9,211.1 L 353.9,211.0 L 353.8,210.8 L 353.9,210.8 L 354.0,210.8 L 354.0,210.9 L 354.1,210.9 L 354.3,210.9 L 354.3,211.0 L 354.3,211.1 L 354.3,211.2 L 354.3,211.2 L 354.4,211.4 L 354.7,211.4 L 354.7,211.6 L 354.8,211.7 L 354.7,211.9 L 354.5,212.2 L 354.5,212.3 L 354.5,212.5 L 354.7,212.6 L 355.0,212.6 L 355.0,212.7 L 355.0,212.8 L 354.8,213.1 L 354.6,213.3 L 354.6,213.5 L 354.6,213.6 L 354.8,213.8 L 355.1,213.8 L 355.2,213.7 L 355.3,213.7 L 355.5,213.7 L 355.7,213.7 L 355.8,213.8 L 355.8,213.9 L 355.9,213.9 L 356.0,213.9 L 356.2,213.8 L 356.4,213.8 L 356.8,213.6 L 357.0,213.5 L 357.4,213.7 L 357.6,213.7 L 357.8,213.7 L 357.9,213.6 L 357.9,213.5 L 358.1,213.5 L 358.3,213.7 L 358.5,213.8 L 358.9,213.8 L 359.0,213.9 L 358.9,213.9 L 358.7,213.9 L 358.5,214.0 L 358.4,214.1 L 358.4,214.3 L 358.3,214.4 L 358.2,214.4 L 357.9,214.3 L 357.8,214.3 L 357.7,214.7 L 357.6,214.8 L 357.4,214.9 L 356.9,214.9 L 356.7,214.9 L 356.5,215.1 L 356.4,215.1 L 356.2,215.3 L 356.2,215.4 L 356.1,215.5 L 356.0,215.7 L 355.9,215.7 L 355.8,215.6 L 355.6,215.5 L 355.3,215.6 L 355.1,215.7 L 354.7,216.1 L 354.7,216.2 L 354.8,216.4 L 354.9,216.6 L 355.1,216.9 L 355.2,217.0 L 355.7,217.1 L 355.8,217.1 L 355.9,217.2 L 356.0,217.3 L 355.9,217.4 L 355.9,217.4 L 356.0,217.5 L 356.0,217.6 L 355.8,217.6 L 355.6,217.7 L 355.5,217.6 L 355.5,217.5 L 355.3,217.6 L 354.9,217.4 L 354.7,217.4 L 354.6,217.5 L 354.5,217.4 L 354.4,217.2 L 354.3,217.2 L 353.6,216.6 L 353.6,216.5 L 353.5,216.4 L 353.4,216.4 L 353.3,216.5 L 353.2,216.5 L 352.8,216.3 L 352.4,216.3 L 352.3,216.3 L 352.0,216.6 L 352.0,216.6 L 352.1,216.6 L 352.2,216.7 L 352.3,216.7 L 352.2,216.9 L 352.0,217.0 L 351.9,217.1 L 351.9,217.3 L 351.8,217.3 L 351.7,217.2 L 351.6,217.1 L 351.5,216.9 L 351.3,216.9 L 351.2,216.8 L 351.1,216.8 L 351.0,216.8 L 351.0,216.9 L 350.9,217.0 L 350.7,217.2 L 350.6,217.3 L 350.6,217.4 L 350.8,217.4 L 350.9,217.5 L 350.9,218.0 L 350.7,218.0 L 350.7,218.1 L 350.6,218.3 L 350.9,218.5 L 350.9,218.7 L 350.9,218.8 L 350.9,218.9 L 350.8,218.8 L 350.6,219.0 L 350.4,219.1 L 350.3,219.2 L 350.2,219.3 L 349.5,219.9 L 349.4,220.0 L 349.1,220.2 L 349.1,220.3 L 349.1,220.5 L 349.2,220.6 L 349.5,220.8 L 349.5,220.7 L 349.8,220.7 L 350.0,220.9 L 350.1,220.8 L 350.4,220.6 L 350.7,220.5 L 350.8,220.3 L 350.9,220.3 L 350.9,220.3 L 351.0,220.5 L 351.0,220.9 L 351.1,221.0 L 351.2,221.1 L 351.1,221.4 L 351.2,221.4 L 351.1,221.6 L 351.2,221.7 L 351.3,221.8 L 351.4,221.7 L 351.6,221.7 L 351.8,222.2 L 351.8,222.3 L 352.0,222.3 L 352.2,222.2 L 352.4,222.2 L 352.6,222.1 L 352.8,222.1 L 353.0,222.1 L 353.1,222.1 L 353.1,222.2 L 353.2,222.2 L 353.4,222.1 L 353.7,221.7 L 353.8,221.6 L 353.8,221.5 L 354.0,221.5 L 354.4,221.7 L 354.6,221.7 L 354.9,221.5 L 355.1,221.4 L 355.3,221.5 L 355.4,221.6 L 355.5,221.7 L 355.4,221.7 L 355.0,221.9 L 355.0,221.9 L 355.1,222.0 L 355.3,222.0 L 355.3,222.1 L 355.2,222.2 L 355.1,222.4 L 354.7,222.4 L 354.6,222.4 L 354.6,222.5 L 354.5,222.6 L 354.5,222.7 L 354.4,222.9 L 354.5,223.0 L 354.6,223.0 L 354.6,223.1 L 354.5,223.5 L 354.4,224.0 L 354.3,224.1 L 354.3,224.3 L 354.4,224.7 L 354.6,224.8 L 355.1,224.8 L 355.2,224.7 L 355.4,224.4 L 355.5,224.0 L 355.6,223.9 L 355.8,223.9 L 356.0,223.9 L 356.1,224.1 L 355.9,224.2 L 356.0,224.4 L 356.0,224.4 L 356.1,224.3 L 356.3,224.3 L 356.5,224.5 L 356.7,224.7 L 356.8,224.6 L 357.1,224.5 L 357.2,224.5 L 357.5,224.7 L 357.6,224.6 L 357.6,224.4 L 357.6,224.3 L 357.6,224.2 L 357.9,224.0 L 358.1,223.7 L 358.4,223.4 L 358.5,223.4 L 358.7,223.2 L 358.9,223.2 L 359.0,223.1 L 359.1,222.9 L 359.3,222.6 L 359.7,222.7 L 359.9,222.8 L 360.0,223.0 L 359.9,223.2 L 359.3,223.8 L 359.1,224.0 L 359.0,224.3 L 358.8,224.5 L 358.7,224.9 L 358.7,225.0 L 358.5,225.1 L 358.5,225.2 L 358.6,225.2 L 358.6,225.2 L 358.7,225.3 L 358.7,225.4 L 358.9,225.4 L 359.2,225.7 L 359.2,225.7 L 359.2,225.8 L 359.2,226.0 L 359.1,226.1 L 359.2,226.2 L 359.2,226.4 L 359.1,226.6 L 358.7,226.9 L 358.4,226.9 L 358.2,227.1 L 358.1,227.2 L 357.9,227.6 L 357.9,227.8 L 357.7,228.1 L 357.7,228.3 L 357.6,228.6 L 357.5,228.9 L 357.3,229.2 L 357.2,229.3 L 357.2,229.5 L 356.8,230.0 L 356.5,230.4 L 356.6,230.5 L 356.6,230.5 L 331.4,272.0 L 331.3,272.1 L 331.2,272.2 L 331.0,272.3 L 331.0,272.4 L 331.0,272.4 L 330.8,273.0 L 323.8,287.4 L 323.8,287.4 L 323.7,287.4 L 323.7,287.3 L 323.6,287.3 L 323.4,287.2 L 323.1,287.1 L 323.0,287.2 L 322.9,287.2 L 322.9,287.2 L 322.8,287.3 L 323.2,287.3 L 323.3,287.4 L 323.3,287.5 L 323.2,287.8 L 323.1,287.8 L 322.4,287.7 L 322.3,287.8 L 322.2,287.7 L 322.0,287.7 L 322.0,287.8 L 321.9,287.8 L 321.8,287.8 L 321.7,287.8 L 321.6,287.9 L 321.1,287.9 L 321.1,288.0 L 320.9,288.1 L 320.8,288.1 L 320.9,288.3 L 320.9,288.4 L 321.1,288.5 L 321.1,288.5 L 320.9,288.6 L 320.8,288.7 L 320.9,289.0 L 321.0,289.1 L 321.3,289.2 L 321.5,289.3 L 321.7,289.4 L 321.7,289.5 L 321.7,289.6 L 321.4,289.7 L 321.3,289.7 L 321.2,289.7 L 320.8,290.1 L 320.7,290.0 L 320.5,290.0 L 320.3,289.9 L 320.1,289.9 L 319.8,290.1 L 319.5,290.1 L 319.3,290.2 L 319.2,290.3 L 319.0,290.4 L 318.8,290.6 L 318.8,290.8 L 318.9,291.0 L 319.2,291.3 L 319.2,291.4 L 319.1,291.7 L 318.9,291.7 L 318.8,291.7 L 318.5,291.7 L 318.5,291.7 L 318.3,291.7 L 318.2,291.8 L 318.1,292.1 L 318.1,292.1 L 318.1,292.1 L 318.0,292.1 L 317.9,292.1 L 317.9,292.2 L 317.8,292.3 L 317.8,292.1 L 317.7,292.1 L 317.6,292.2 L 317.5,292.2 L 317.4,292.4 L 317.5,292.5 L 317.5,292.6 L 317.3,292.6 L 317.3,292.7 L 317.2,292.8 L 317.3,293.0 L 317.5,293.3 L 317.6,293.4 L 317.5,293.5 L 317.4,293.5 L 317.1,293.7 L 317.0,293.7 L 317.0,293.9 L 316.9,293.9 L 316.8,294.1 L 316.7,294.1 L 316.7,294.0 L 316.7,293.9 L 316.7,293.9 L 316.5,293.8 L 316.3,293.8 L 316.2,294.1 L 316.1,294.0 L 316.1,294.0 L 316.0,293.9 L 315.8,293.9 L 315.7,294.0 L 315.7,294.1 L 315.8,294.3 L 315.7,294.4 L 315.6,294.4 L 315.5,294.4 L 315.4,294.6 L 315.5,294.7 L 315.4,294.8 L 315.6,295.2 L 315.5,295.3 L 315.3,295.5 L 315.1,295.5 L 315.0,295.8 L 314.8,295.9 L 314.7,295.9 L 314.6,295.9 L 314.5,295.8 L 314.4,295.7 L 314.4,295.6 L 314.6,295.4 L 314.6,295.3 L 314.5,295.2 L 314.4,295.1 L 314.3,295.2 L 314.2,295.0 L 314.3,294.9 L 314.4,294.8 L 314.4,294.7 L 314.3,294.5 L 314.3,294.4 L 314.5,294.2 L 314.6,293.9 L 314.7,293.7 L 314.8,293.5 L 314.8,293.5 L 314.9,293.4 L 314.8,293.4 L 314.8,293.3 L 314.8,293.3 L 315.0,293.3 L 315.1,293.1 L 315.1,293.0 L 315.1,292.9 L 315.0,292.9 L 315.0,293.0 L 314.9,293.0 L 314.8,293.0 L 314.7,293.1 L 314.6,293.1 L 314.2,292.8 L 314.0,292.8 L 313.8,292.8 L 313.6,292.6 L 313.5,292.6 L 313.4,292.7 L 313.4,292.9 L 313.3,292.9 L 313.2,292.8 L 313.1,292.8 L 313.1,292.8 L 312.9,292.7 L 312.8,292.6 L 312.5,292.3 L 312.4,292.3 L 312.2,292.4 L 312.2,292.5 L 312.5,292.9 L 312.5,293.0 L 312.4,293.0 L 312.3,292.9 L 312.1,293.0 L 312.1,293.0 L 312.1,293.1 L 312.1,293.1 L 312.2,293.1 L 312.3,293.1 L 312.3,293.2 L 312.1,293.2 L 312.0,293.3 L 311.4,293.4 L 311.1,293.5 L 310.9,293.5 L 310.7,293.7 L 310.6,293.7 L 310.5,293.6 L 310.5,293.6 L 310.4,293.6 L 310.3,293.6 L 310.0,293.5 L 310.0,293.3 L 310.0,293.2 L 310.0,293.1 L 310.1,293.0 L 310.4,292.9 L 310.6,292.9 L 310.7,292.8 L 311.0,292.8 L 311.0,292.8 L 310.9,292.6 L 310.9,292.5 L 311.0,292.5 L 311.0,292.4 L 310.9,292.3 L 310.6,292.2 L 310.5,292.0 L 310.3,291.9 L 310.2,291.9 L 310.1,291.9 L 309.6,292.1 L 309.5,292.1 L 309.3,292.2 L 309.1,292.5 L 308.9,292.7 L 308.8,292.7 L 308.7,292.8 L 308.7,292.9 L 308.7,293.0 L 308.7,293.1 L 308.4,293.2 L 308.3,293.3 L 308.2,293.6 L 308.2,294.0 L 307.9,294.0 L 307.8,294.0 L 307.8,294.1 L 307.8,294.2 L 308.2,294.5 L 308.6,294.6 L 308.6,294.7 L 308.6,294.7 L 308.5,294.8 L 308.5,294.9 L 308.2,294.9 L 308.1,294.9 L 308.1,295.0 L 308.0,295.1 L 307.8,295.1 L 307.5,295.1 L 307.4,295.2 L 307.3,295.4 L 307.4,295.6 L 307.4,295.6 L 307.1,295.6 L 307.1,295.8 L 307.0,295.8 L 306.8,295.8 L 306.6,296.0 L 306.6,296.2 L 306.5,296.3 L 306.4,296.4 L 306.5,296.6 L 306.5,296.6 L 306.5,296.6 L 298.1,297.0 L 298.2,296.9 L 298.2,296.9 L 298.1,296.8 L 298.0,296.7 L 297.9,296.8 L 297.8,296.8 L 297.7,296.7 L 297.8,296.5 L 297.8,296.4 L 297.9,296.3 L 297.8,296.3 L 296.6,296.2 L 296.3,296.2 L 296.2,296.4 L 296.0,296.5 L 295.8,296.5 L 295.5,296.4 L 295.4,296.4 L 295.2,296.5 L 295.2,296.5 L 291.3,291.9 L 291.2,291.9 L 291.4,291.8 L 291.6,291.8 L 291.8,291.7 L 291.9,291.5 L 292.0,291.4 L 292.0,291.3 L 292.0,291.2 L 292.0,291.1 L 291.9,291.0 L 291.8,291.0 L 291.7,291.1 L 291.8,291.3 L 291.8,291.4 L 291.7,291.4 L 291.7,291.3 L 291.6,291.2 L 291.6,291.1 L 291.5,291.1 L 291.5,291.1 L 291.4,291.3 L 291.4,291.3 L 291.4,291.3 L 291.4,291.3 L 291.4,291.2 L 291.3,291.1 L 291.4,291.0 L 291.3,290.9 L 291.2,290.8 L 291.1,290.8 L 291.0,291.1 L 291.0,291.2 L 290.7,291.2 L 290.5,291.2 L 290.5,291.2 L 290.5,291.3 L 290.4,291.3 L 290.4,291.2 L 290.4,291.2 L 290.4,291.2 L 290.3,291.2 L 290.3,291.3 L 290.1,291.3 L 290.1,291.3 L 290.1,291.3 L 231.4,254.8 L 231.6,254.8 L 231.6,254.9 L 231.7,254.9 L 231.7,254.8 L 231.6,254.8 L 231.5,254.7 L 231.5,254.6 L 231.6,254.5 L 231.7,254.5 L 231.8,254.2 L 231.6,254.0 L 231.5,253.7 L 231.5,253.7 L 231.5,253.6 L 231.5,253.0 L 231.5,252.8 L 231.4,252.8 L 231.2,252.8 L 231.2,252.9 L 231.1,252.5 L 231.1,252.3 L 231.3,252.2 L 231.4,252.2 L 231.5,252.2 L 231.9,251.5 L 231.9,251.4 L 231.8,251.3 L 231.8,251.1 L 231.6,251.1 L 231.4,251.1 L 230.9,251.3 L 230.6,251.5 L 230.6,251.8 L 230.7,252.1 L 230.4,252.1 L 230.3,252.2 L 230.1,252.5 L 230.0,252.7 L 230.0,252.7 L 229.9,252.6 L 229.9,252.5 L 230.0,252.3 L 230.1,252.1 L 230.1,251.9 L 230.2,251.6 L 230.2,251.2 L 230.1,251.2 L 230.1,251.2 L 230.0,251.1 L 230.1,250.9 L 230.2,250.7 L 230.3,250.6 L 230.3,250.5 L 230.3,250.4 L 230.3,250.3 L 230.2,250.3 L 229.7,250.8 L 229.7,250.8 L 229.6,250.9 L 229.6,250.8 L 229.7,250.6 L 229.7,250.4 L 229.9,250.3 L 229.9,250.1 L 229.9,250.0 L 230.0,250.0 L 230.1,250.0 L 230.2,249.9 L 230.2,249.8 L 230.2,249.8 L 230.4,249.5 L 230.5,249.3 L 230.2,249.3 L 230.0,249.4 L 229.9,249.4 L 229.9,249.2 L 229.8,249.2 L 229.6,249.5 L 229.6,249.3 L 229.6,249.2 L 229.9,248.9 L 230.3,248.5 L 230.4,248.3 L 230.3,248.1 L 230.2,247.9 L 230.1,247.9 L 230.0,248.1 L 229.9,248.2 L 229.6,248.5 L 229.5,248.6 L 229.4,248.6 L 229.5,248.5 L 229.5,248.3 L 229.5,248.2 L 229.6,248.2 L 229.7,248.0 L 229.6,248.0 L 229.5,247.9 L 229.5,247.8 L 229.5,247.7 L 229.4,247.7 L 229.4,247.5 L 229.3,247.4 L 229.3,247.4 L 229.3,247.3 L 229.6,247.3 L 229.8,247.3 L 230.0,247.0 L 230.0,247.0 L 230.0,246.9 L 229.8,247.0 L 229.7,246.9 L 229.9,246.8 L 230.0,246.5 L 230.0,246.4 L 229.9,246.4 L 229.8,246.5 L 229.6,246.6 L 229.5,246.7 L 229.0,247.0 L 229.1,246.5 L 229.0,246.5 L 228.9,246.5 L 228.8,246.6 L 228.7,246.7 L 228.5,246.8 L 228.3,247.2 L 228.2,247.2 L 228.2,247.1 L 228.2,247.0 L 228.3,246.9 L 228.3,246.7 L 228.2,246.6 L 228.3,246.4 L 228.3,246.4 L 228.1,246.4 L 228.2,246.2 L 228.3,246.0 L 228.5,245.9 L 228.8,245.6 L 228.9,245.5 L 228.9,245.1 L 228.9,245.1 L 228.8,245.0 L 228.6,245.1 L 228.6,244.9 L 228.6,244.9 L 228.6,244.9 L 228.5,244.9 L 228.5,244.9 L 228.5,244.4 L 228.7,244.1 L 228.8,243.3 L 228.7,243.2 L 228.6,243.2 L 228.6,243.0 L 228.7,242.8 L 228.8,242.7 L 228.8,242.2 L 228.8,242.2 L 228.9,242.0 L 228.8,241.9 L 228.7,241.8 L 228.7,241.7 L 228.7,241.7 L 228.7,241.6 L 228.6,241.6 L 228.4,241.6 L 228.4,241.5 L 228.2,241.4 L 228.1,241.3 L 227.7,241.3 L 227.8,241.2 L 227.8,241.0 L 227.4,240.5 L 227.2,240.5 L 227.1,240.6 L 227.1,240.7 L 227.0,240.7 L 227.0,240.6 L 227.0,240.4 L 226.8,240.2 L 226.5,239.9 L 226.5,239.9 L 226.3,239.7 L 226.3,239.6 L 226.4,239.5 L 226.4,239.4 L 226.3,239.3 L 226.3,239.1 L 226.3,239.0 L 226.2,238.8 L 225.9,238.5 L 225.7,238.3 L 225.5,237.9 L 225.2,237.6 L 225.0,237.4 L 224.8,237.2 L 224.8,237.2 L 224.6,236.9 L 224.5,236.8 L 224.3,236.7 L 224.2,236.6 L 224.1,236.5 L 223.9,236.5 L 223.8,236.6 L 223.8,236.8 L 223.9,236.9 L 223.9,237.0 L 223.7,237.0 L 223.6,236.9 L 223.5,237.0 L 223.5,237.0 L 223.4,237.1 L 223.3,236.9 L 223.3,236.9 L 223.1,237.0 L 223.0,237.1 L 223.0,237.0 L 223.1,236.8 L 223.1,236.7 L 223.2,236.6 L 223.1,236.5 L 223.0,236.5 L 222.9,236.4 L 222.8,236.4 L 222.8,236.4 L 222.9,236.5 L 222.8,236.6 L 222.6,236.7 L 222.7,236.1 L 222.8,236.1 L 222.9,236.3 L 222.9,236.2 L 222.9,236.0 L 222.9,235.9 L 222.9,235.6 L 222.8,235.5 L 222.6,235.4 L 222.4,235.3 L 222.3,235.4 L 222.2,235.6 L 222.2,236.0 L 222.3,236.2 L 222.2,236.3 L 222.1,236.6 L 222.1,236.7 L 222.0,236.7 L 222.0,236.6 L 222.0,236.1 L 221.9,236.0 L 221.7,235.8 L 221.6,235.7 L 221.3,235.8 L 221.1,235.9 L 221.0,235.9 L 220.7,235.8 L 220.4,235.9 L 220.3,236.0 L 220.1,235.6 L 220.1,235.6 L 220.2,235.5 L 220.2,235.6 L 220.3,235.6 L 220.4,235.5 L 220.4,235.4 L 220.3,235.3 L 220.4,235.2 L 220.5,235.2 L 220.6,235.0 L 220.7,235.0 L 220.8,235.0 L 220.7,234.9 L 220.7,234.8 L 220.9,234.8 L 220.9,234.7 L 221.0,234.6 L 221.0,234.6 L 221.1,234.5 L 221.0,234.2 L 220.9,234.1 L 220.8,234.1 L 220.7,234.0 L 220.5,233.9 L 220.5,233.9 L 220.5,233.8 L 220.4,233.7 L 220.2,233.7 L 220.1,233.8 L 219.9,233.8 L 219.9,233.8 L 218.3,231.2 L 218.3,231.2 L 218.3,231.2 L 218.5,230.8 L 218.5,230.4 L 218.4,230.3 L 218.3,230.0 L 218.2,229.9 L 218.1,229.8 L 217.6,229.7 L 217.6,229.9 L 217.5,229.9 L 217.4,229.8 L 217.2,229.8 L 217.2,229.9 L 217.2,229.9 L 217.2,229.9 L 217.1,229.7 L 217.1,229.7 L 213.2,224.2 L 213.2,224.2 L 213.3,224.1 L 213.3,223.9 L 213.1,223.7 L 213.0,223.9 L 213.0,224.0 L 209.7,219.3 L 209.7,219.3 L 209.7,219.2 L 209.6,219.1 L 209.6,219.1 L 208.7,217.9 L 208.9,217.5 L 208.9,217.3 L 208.9,217.2 L 208.7,217.2 L 208.6,217.3 L 208.5,217.5 L 208.6,217.3 L 208.6,217.3 L 208.5,217.3 L 208.5,217.3 L 208.3,217.5 L 208.2,217.5 L 208.1,217.5 L 208.0,217.6 L 208.1,217.7 L 208.0,217.8 L 207.9,217.7 L 207.7,217.7 L 207.5,217.8 L 207.4,217.7 L 207.1,217.7 L 207.0,217.9 L 206.8,218.1 L 206.7,218.0 L 206.6,218.2 L 204.0,217.9 L 204.2,217.9 L 204.7,217.8 L 204.8,217.7 L 204.8,217.5 L 204.7,217.4 L 204.7,217.3 L 204.5,217.3 L 204.4,217.3 L 204.2,217.2 L 204.0,217.4 L 203.9,217.5 L 203.8,217.7 L 203.8,217.8 L 203.8,217.9 L 136.6,211.6 L 99.4,256.1 L 99.4,256.1 L 99.4,256.1 L 99.3,256.2 L 99.2,255.9 L 99.0,256.0 L 98.7,256.2 L 98.6,256.2 L 98.4,256.3 L 98.1,256.6 L 97.9,256.8 L 98.0,256.9 L 98.1,257.0 L 98.2,257.1 L 98.3,257.1 L 98.3,257.2 L 98.0,257.2 L 97.9,257.4 L 97.9,257.5 L 97.9,257.5 L 97.8,257.4 L 97.4,257.4 L 97.3,257.5 L 97.3,257.6 L 97.3,257.9 L 97.4,258.0 L 97.7,258.1 L 97.9,258.1 L 71.4,295.8 L 71.4,295.8 L 71.4,295.8 L 71.3,295.8 L 70.9,296.1 L 70.7,296.3 L 70.6,296.3 L 70.5,296.2 L 70.4,296.3 L 70.4,296.4 L 70.4,296.5 L 70.4,296.5 L 70.5,296.6 L 70.5,296.6 L 70.4,296.6 L 70.4,296.6 L 70.4,296.5 L 70.3,296.5 L 70.2,296.5 L 70.1,296.6 L 70.1,296.6 L 70.0,296.5 L 69.9,296.5 L 69.5,296.8 L 69.3,297.2 L 69.1,297.5 L 68.6,297.8 L 68.2,298.3 L 68.0,298.6 L 68.0,298.7 L 68.0,298.7 L 40.0,287.7 L 42.4,283.7 L 59.1,256.2 L 62.1,250.3 L 68.7,237.3 L 79.0,216.9" fill="none" stroke="black" stroke-width="2"/>
</svg>