<?xml version="1.0" encoding="UTF-8"?>
<svg width="400" height="400" viewBox="0 0 400 400" xmlns="http://www.w3.org/2000/svg">
  <rect width="400" height="400" fill="white"/>
  <path d="M 141.9,248.2 L 145.3,247.9 L 145.5,245.7 L 144.7,243.0 L 145.1,241.1 L 147.3,236.8 L 147.4,233.5 L 149.4,232.1 L 152.2,232.4 L 152.6,231.2 L 151.5,228.6 L 150.9,223.5 L 153.8,220.5 L 152.5,217.8 L 152.2,214.3 L 152.7,210.7 L 151.5,205.9 L 151.9,201.8 L 151.8,198.3 L 152.8,195.3 L 155.5,191.3 L 157.4,190.0 L 158.8,189.0 L 161.4,182.9 L 162.1,179.6 L 163.7,174.4 L 163.0,172.8 L 164.5,169.4 L 169.4,155.2 L 171.5,152.8 L 175.7,151.6 L 177.2,149.6 L 178.9,151.1 L 180.0,150.7 L 181.9,147.4 L 185.8,142.3 L 188.9,138.6 L 190.9,132.1 L 193.0,130.6 L 197.3,130.3 L 198.4,130.7 L 199.4,130.1 L 200.6,130.7 L 202.2,130.3 L 203.0,129.0 L 205.2,127.4 L 206.4,122.2 L 205.8,119.7 L 203.9,118.7 L 200.8,118.8 L 197.1,120.0 L 193.8,114.6 L 192.5,113.1 L 190.8,111.6 L 188.2,107.1 L 190.5,100.7 L 192.6,96.7 L 194.4,94.9 L 197.1,94.0 L 199.0,95.7 L 200.3,95.3 L 201.2,93.8 L 203.0,93.3 L 204.0,89.9 L 207.4,81.8 L 203.3,82.0 L 202.6,80.3 L 208.3,72.5 L 215.9,63.7 L 219.5,61.0 L 219.3,59.9 L 216.3,58.2 L 215.6,53.6 L 214.3,51.6 L 214.0,49.7 L 215.3,48.5 L 217.0,49.4 L 217.6,50.3 L 218.9,50.0 L 219.0,47.4 L 220.7,45.9 L 226.5,44.4 L 230.4,44.5 L 235.4,45.5 L 239.1,48.6 L 243.5,49.3 L 247.2,48.5 L 249.9,45.5 L 256.7,43.4 L 260.6,40.9 L 261.1,40.0 L 274.6,46.6 L 277.7,49.6 L 281.1,51.1 L 287.2,54.8 L 292.3,55.8 L 296.9,57.4 L 301.3,59.9 L 305.8,63.5 L 310.6,69.5 L 313.5,71.0 L 313.1,72.7 L 314.5,74.8 L 315.1,75.5 L 315.8,78.7 L 315.4,82.5 L 314.7,85.3 L 311.6,89.8 L 306.3,95.1 L 302.5,100.5 L 300.6,105.4 L 300.2,108.7 L 298.8,112.0 L 293.5,119.8 L 291.4,122.0 L 288.1,127.0 L 284.5,136.7 L 279.9,147.3 L 279.0,151.0 L 276.6,156.8 L 274.1,172.3 L 271.9,179.2 L 269.3,182.7 L 265.8,184.0 L 263.3,188.1 L 261.0,189.2 L 254.0,204.0 L 249.7,216.0 L 246.6,222.3 L 243.8,225.4 L 242.6,228.0 L 238.6,235.3 L 236.1,237.5 L 234.9,238.7 L 232.3,242.3 L 231.1,246.3 L 230.1,246.7 L 228.8,244.7 L 227.7,245.0 L 228.2,248.8 L 230.1,253.5 L 232.8,257.8 L 233.6,265.3 L 232.9,267.6 L 230.8,266.5 L 231.0,264.3 L 230.2,261.6 L 227.2,256.6 L 223.3,250.8 L 221.7,249.6 L 220.5,246.5 L 219.9,243.5 L 218.7,240.3 L 217.8,238.3 L 217.0,237.8 L 215.5,238.1 L 214.7,238.1 L 213.2,237.4 L 211.4,234.9 L 210.2,233.5 L 207.8,232.6 L 205.1,232.0 L 202.1,231.8 L 199.1,231.7 L 196.4,232.4 L 193.5,233.9 L 191.8,234.6 L 191.1,234.7 L 188.3,234.4 L 185.5,234.0 L 184.1,234.0 L 181.4,234.7 L 178.9,235.8 L 176.9,237.4 L 176.7,238.3 L 177.0,239.9 L 176.9,241.1 L 175.6,243.6 L 173.4,246.0 L 171.2,248.0 L 170.3,248.8 L 168.7,250.4 L 168.0,253.4 L 167.7,254.7 L 167.3,254.9 L 167.1,254.9 L 164.1,255.2 L 162.6,255.7 L 162.3,256.3 L 162.0,259.0 L 160.7,261.7 L 159.0,263.9 L 157.6,265.9 L 156.8,268.9 L 154.0,269.5 L 152.0,270.0 L 151.5,270.9 L 151.3,273.1 L 151.0,274.3 L 150.4,274.8 L 149.6,274.6 L 147.6,273.1 L 146.8,272.4 L 145.9,271.5 L 145.3,271.1 L 145.3,273.6 L 146.6,274.7 L 148.2,276.1 L 150.4,278.1 L 151.8,280.1 L 152.2,281.9 L 152.5,284.8 L 152.6,287.8 L 153.1,290.0 L 152.7,294.7 L 152.6,295.6 L 152.3,298.9 L 152.0,301.2 L 151.8,303.5 L 151.5,305.6 L 150.8,307.8 L 149.0,312.1 L 147.8,314.6 L 147.0,317.2 L 147.5,320.3 L 148.1,323.3 L 148.5,325.6 L 149.1,328.9 L 149.7,330.3 L 150.6,331.2 L 151.8,331.9 L 154.9,332.2 L 158.2,332.4 L 159.1,333.0 L 160.1,334.4 L 161.1,336.9 L 161.3,340.1 L 160.9,342.5 L 159.5,344.6 L 158.3,345.5 L 156.2,347.0 L 153.8,348.9 L 152.1,350.8 L 151.6,352.0 L 151.7,353.7 L 151.4,354.3 L 150.9,355.7 L 150.3,356.5 L 147.5,358.0 L 144.7,358.9 L 141.7,360.0 L 140.3,359.9 L 140.3,359.2 L 142.8,357.4 L 143.5,356.4 L 143.0,355.5 L 140.5,354.6 L 138.3,353.7 L 137.7,354.0 L 137.9,355.0 L 138.4,355.6 L 138.2,356.6 L 137.6,357.1 L 137.0,357.3 L 136.2,357.0 L 134.0,355.4 L 132.6,352.8 L 131.8,351.9 L 130.0,351.1 L 129.2,350.3 L 129.0,348.7 L 128.6,348.2 L 128.0,348.2 L 125.2,347.8 L 122.8,346.3 L 121.0,344.7 L 120.1,343.4 L 119.5,343.9 L 119.1,345.6 L 118.8,348.4 L 118.3,349.5 L 118.0,350.1 L 117.8,350.5 L 117.5,350.9 L 117.3,351.3 L 117.0,351.7 L 116.9,351.8 L 116.7,352.0 L 116.3,352.4 L 116.0,352.8 L 115.2,351.8 L 115.7,350.0 L 114.5,349.0 L 113.8,346.6 L 113.2,346.5 L 112.7,347.3 L 110.2,347.4 L 109.4,346.7 L 108.5,345.3 L 107.8,345.1 L 106.0,346.6 L 103.9,346.9 L 103.0,346.5 L 102.6,345.3 L 103.4,342.3 L 103.9,338.9 L 103.8,338.2 L 103.2,335.1 L 102.7,332.6 L 101.8,330.4 L 99.9,328.1 L 98.2,327.5 L 95.5,327.1 L 92.5,327.7 L 90.5,327.6 L 87.4,328.0 L 86.8,327.8 L 86.7,327.7 L 84.2,325.3 L 84.4,320.3 L 85.7,316.9 L 87.6,312.9 L 91.8,309.1 L 98.5,305.3 L 103.2,300.7 L 111.7,290.8 L 117.0,285.3 L 120.0,283.7 L 121.5,283.2 L 123.0,281.4 L 124.4,277.4 L 127.1,274.9 L 130.1,270.3 L 137.7,269.6 L 141.8,270.7 L 144.4,272.8 L 144.5,270.4 L 144.2,270.2 L 142.4,268.7 L 140.6,266.8 L 138.9,264.8 L 137.2,262.7 L 136.5,261.5 L 136.3,260.7 L 137.2,257.6 L 137.1,254.5 L 137.6,253.2 L 138.6,252.0 L 140.8,249.5 L 141.9,248.2" fill="none" stroke="black" stroke-width="2"/>
</svg>