<?xml version="1.0" encoding="UTF-8"?>
<svg width="400" height="400" viewBox="0 0 400 400" xmlns="http://www.w3.org/2000/svg">
  <rect width="400" height="400" fill="white"/>
  <path d="M 142.9,212.7 L 143.0,212.7 L 146.5,208.4 L 147.6,206.0 L 150.5,201.8 L 151.7,200.9 L 154.7,196.5 L 160.0,184.0 L 160.3,181.1 L 161.7,179.6 L 163.5,179.1 L 164.8,177.3 L 166.1,176.9 L 167.1,175.3 L 168.3,167.9 L 167.6,165.7 L 165.3,164.4 L 164.8,161.5 L 167.6,156.9 L 171.4,152.0 L 173.8,147.7 L 175.4,144.2 L 177.6,141.5 L 179.5,141.0 L 182.2,135.2 L 184.5,131.4 L 190.0,120.1 L 190.9,117.0 L 192.9,112.1 L 193.5,109.3 L 193.5,107.3 L 191.8,106.2 L 190.9,106.4 L 190.2,105.9 L 189.9,105.9 L 191.9,104.3 L 191.9,104.4 L 191.7,106.0 L 193.4,106.8 L 194.5,105.3 L 194.8,104.3 L 195.6,103.7 L 196.9,101.3 L 196.4,100.5 L 262.1,45.9 L 262.8,45.3 L 263.4,47.8 L 264.7,48.1 L 265.1,49.1 L 266.2,50.1 L 268.0,49.2 L 269.9,46.1 L 273.6,40.8 L 273.9,40.0 L 274.4,40.3 L 321.4,67.5 L 321.6,67.6 L 319.6,68.3 L 317.1,69.4 L 316.5,71.2 L 314.8,74.1 L 315.0,75.3 L 319.2,75.6 L 321.6,76.9 L 323.1,78.5 L 324.9,79.7 L 326.4,81.7 L 329.1,81.7 L 330.3,82.3 L 331.9,83.6 L 334.8,88.5 L 334.6,89.7 L 334.7,91.2 L 336.2,93.4 L 338.4,95.5 L 334.9,96.4 L 333.3,99.6 L 333.5,102.0 L 333.1,103.5 L 334.0,106.0 L 334.8,106.7 L 334.5,107.5 L 334.5,108.4 L 335.5,109.1 L 335.8,110.0 L 334.5,111.0 L 333.9,112.5 L 333.9,115.1 L 328.0,119.5 L 325.5,120.5 L 323.7,122.1 L 323.3,124.9 L 321.2,125.4 L 319.8,125.3 L 317.8,128.0 L 311.9,131.1 L 307.7,132.1 L 303.9,131.9 L 301.0,132.2 L 300.2,131.4 L 299.2,129.1 L 300.1,127.4 L 299.1,127.1 L 298.9,125.4 L 297.9,125.1 L 297.8,123.9 L 299.4,122.4 L 299.4,120.1 L 298.9,118.4 L 297.8,117.3 L 295.5,118.4 L 295.5,117.0 L 296.2,114.8 L 295.2,114.5 L 294.2,115.2 L 293.7,114.4 L 292.6,114.8 L 292.1,116.2 L 291.3,116.7 L 290.3,115.9 L 289.2,115.8 L 288.2,119.2 L 287.4,121.0 L 287.9,121.7 L 286.1,126.1 L 286.3,127.9 L 287.0,128.6 L 288.0,129.2 L 284.5,131.9 L 283.6,135.9 L 282.1,139.8 L 282.5,142.0 L 283.4,142.0 L 285.0,141.3 L 285.6,141.6 L 286.0,142.8 L 283.5,147.2 L 282.2,147.9 L 282.2,148.7 L 282.8,149.6 L 285.0,149.1 L 285.3,149.7 L 283.3,152.2 L 280.1,157.9 L 280.3,159.2 L 282.1,159.0 L 280.0,166.1 L 280.3,170.1 L 279.6,172.5 L 279.9,174.2 L 280.8,174.1 L 281.0,174.5 L 280.3,184.7 L 279.8,186.8 L 278.3,188.7 L 277.9,194.0 L 277.2,198.4 L 276.2,198.8 L 275.4,199.6 L 274.7,203.3 L 274.6,208.8 L 273.5,214.9 L 273.7,217.3 L 273.7,218.1 L 273.6,221.8 L 272.5,224.9 L 270.7,226.7 L 269.6,225.7 L 268.3,227.1 L 266.6,231.5 L 265.5,237.3 L 264.0,240.5 L 263.0,241.0 L 261.8,240.1 L 256.9,250.6 L 256.9,253.3 L 254.7,256.9 L 254.5,260.6 L 253.8,260.9 L 253.6,260.5 L 252.8,260.2 L 250.7,263.5 L 252.1,263.5 L 252.4,264.1 L 251.5,265.2 L 251.9,266.9 L 251.6,268.3 L 251.6,269.8 L 249.5,270.5 L 248.6,269.3 L 248.8,268.3 L 247.5,266.4 L 246.4,265.9 L 245.3,267.0 L 242.6,268.6 L 240.8,273.0 L 239.8,276.4 L 237.0,283.2 L 238.3,283.8 L 237.6,286.2 L 235.7,289.5 L 232.9,290.1 L 230.9,291.6 L 228.1,297.2 L 226.7,297.0 L 226.4,296.2 L 225.5,295.5 L 224.0,295.5 L 222.8,296.6 L 221.6,297.3 L 217.2,300.7 L 215.8,301.1 L 212.4,300.8 L 212.0,300.3 L 209.4,302.5 L 208.1,301.4 L 204.0,301.0 L 202.8,301.7 L 201.1,302.3 L 198.8,302.2 L 194.4,303.7 L 192.0,305.1 L 190.1,307.6 L 188.9,308.6 L 187.7,307.8 L 186.6,309.0 L 186.5,311.1 L 184.0,312.4 L 182.9,313.5 L 179.7,315.7 L 175.9,317.7 L 173.0,321.2 L 172.0,324.1 L 170.8,324.8 L 168.9,327.1 L 166.9,332.0 L 165.8,334.5 L 163.6,337.1 L 161.6,337.5 L 159.0,339.2 L 157.8,338.6 L 157.1,336.5 L 156.0,335.9 L 154.0,336.3 L 152.1,339.7 L 150.0,340.4 L 145.6,340.0 L 142.6,339.4 L 142.3,338.1 L 145.1,337.2 L 145.4,336.4 L 144.4,336.0 L 143.5,335.9 L 143.2,335.1 L 140.9,334.2 L 139.1,334.9 L 138.6,336.4 L 137.8,337.0 L 135.6,335.8 L 133.1,336.0 L 132.7,335.0 L 130.7,334.7 L 129.1,336.4 L 126.0,337.4 L 124.3,339.5 L 122.9,340.0 L 121.5,339.1 L 121.4,338.5 L 120.0,337.6 L 117.4,337.4 L 116.2,338.3 L 115.4,340.0 L 115.0,342.8 L 112.9,347.0 L 111.4,348.6 L 109.1,349.5 L 106.1,352.6 L 103.9,353.0 L 104.0,356.1 L 103.3,357.6 L 102.1,358.1 L 100.6,357.4 L 99.9,357.5 L 97.5,360.0 L 96.2,359.2 L 95.3,358.2 L 92.6,358.2 L 90.8,355.6 L 90.3,351.7 L 90.1,348.3 L 91.1,345.9 L 90.9,342.8 L 90.1,338.4 L 88.2,335.4 L 85.8,333.8 L 85.2,332.5 L 85.5,331.6 L 88.0,328.4 L 87.8,327.3 L 87.1,327.0 L 85.1,328.3 L 83.2,326.6 L 83.1,325.3 L 84.5,322.1 L 83.1,318.8 L 82.9,316.5 L 84.0,314.0 L 87.9,310.6 L 88.8,308.6 L 89.9,304.8 L 89.4,302.2 L 88.1,302.0 L 86.1,302.1 L 84.5,299.2 L 83.0,299.1 L 81.2,301.3 L 78.3,300.7 L 77.0,300.9 L 77.1,302.7 L 76.2,305.1 L 74.9,307.4 L 73.4,307.9 L 72.4,309.7 L 70.9,311.3 L 67.9,316.1 L 66.6,316.6 L 64.3,315.9 L 63.7,315.3 L 64.8,311.7 L 64.5,311.1 L 62.5,311.3 L 62.4,309.5 L 63.1,307.1 L 62.6,305.8 L 61.6,304.0 L 62.2,302.1 L 63.7,300.7 L 67.4,299.7 L 70.7,294.3 L 76.6,288.0 L 82.9,285.3 L 86.2,284.6 L 87.3,282.3 L 88.4,280.3 L 90.3,281.6 L 91.3,280.6 L 90.7,279.9 L 91.1,279.3 L 92.4,279.3 L 93.9,278.4 L 97.5,274.1 L 96.5,273.0 L 98.1,271.3 L 101.9,269.7 L 104.0,269.0 L 108.1,266.3 L 110.9,262.4 L 112.1,261.5 L 114.0,258.6 L 114.7,256.8 L 120.4,248.9 L 121.0,248.2 L 130.4,234.7 L 131.4,229.5 L 132.2,227.7 L 132.0,224.2 L 133.3,222.8 L 137.7,219.9 L 139.7,216.9 L 140.4,214.5 L 141.1,213.5 L 142.9,212.7" fill="none" stroke="black" stroke-width="2"/>
</svg>