<?xml version="1.0" encoding="UTF-8"?>
<svg width="400" height="400" viewBox="0 0 400 400" xmlns="http://www.w3.org/2000/svg">
  <rect width="400" height="400" fill="white"/>
  <path d="M 150.3,208.5 L 150.3,208.5 L 150.4,208.2 L 150.5,207.9 L 150.7,207.7 L 150.7,207.6 L 150.9,207.5 L 151.0,207.4 L 151.1,207.3 L 151.3,207.1 L 151.5,207.0 L 151.6,206.8 L 151.9,206.4 L 152.0,206.3 L 152.2,206.0 L 152.2,206.0 L 152.2,205.9 L 152.4,205.5 L 152.3,205.5 L 152.5,204.9 L 152.5,204.8 L 152.5,204.7 L 152.5,204.7 L 152.4,204.6 L 152.3,203.8 L 152.3,203.6 L 152.4,202.9 L 152.5,202.8 L 152.5,202.6 L 152.7,202.0 L 152.8,201.7 L 152.9,201.5 L 152.9,201.4 L 153.1,201.0 L 153.1,201.0 L 153.2,200.8 L 153.3,200.6 L 153.4,200.5 L 153.6,200.5 L 153.8,200.5 L 154.1,200.5 L 154.3,200.5 L 154.6,200.5 L 154.8,200.7 L 154.9,200.7 L 154.9,200.6 L 154.9,200.2 L 154.9,199.9 L 155.0,199.7 L 155.0,199.5 L 155.0,199.4 L 154.9,199.3 L 154.8,199.2 L 154.7,198.8 L 154.8,198.7 L 154.8,198.6 L 154.8,198.2 L 154.8,197.9 L 154.8,197.7 L 154.7,197.6 L 154.7,197.4 L 154.8,196.7 L 154.9,196.6 L 154.9,196.6 L 154.9,196.3 L 155.0,196.1 L 155.2,195.7 L 155.2,195.7 L 155.3,195.7 L 155.4,195.6 L 155.6,195.5 L 156.0,195.4 L 156.6,195.3 L 156.7,195.3 L 156.8,195.3 L 157.0,195.3 L 157.1,195.3 L 157.4,195.5 L 157.6,195.5 L 158.0,195.6 L 158.2,195.5 L 158.3,195.5 L 158.5,195.4 L 158.6,195.2 L 158.9,195.0 L 159.0,194.8 L 159.0,194.8 L 158.9,194.8 L 159.0,194.8 L 159.0,194.8 L 159.1,194.7 L 159.3,194.3 L 159.4,194.3 L 159.5,194.1 L 159.7,193.8 L 159.8,193.4 L 159.9,193.1 L 159.9,193.0 L 160.0,192.9 L 160.0,192.9 L 160.3,192.1 L 160.4,191.9 L 160.5,191.7 L 160.5,191.7 L 160.6,191.6 L 160.6,191.4 L 160.7,191.2 L 160.8,191.0 L 160.9,190.8 L 161.0,190.7 L 161.2,190.2 L 161.4,190.0 L 161.4,189.8 L 161.6,189.6 L 161.8,189.4 L 161.9,189.3 L 162.0,189.2 L 162.2,189.1 L 162.3,189.0 L 162.5,188.4 L 162.6,188.3 L 162.9,187.8 L 163.0,187.6 L 163.2,187.3 L 163.3,187.1 L 163.5,187.0 L 163.7,186.8 L 163.8,186.7 L 164.1,186.3 L 164.2,186.2 L 164.3,186.0 L 164.4,185.7 L 164.6,185.3 L 164.7,185.2 L 164.8,185.0 L 165.0,184.7 L 165.1,184.4 L 165.2,184.2 L 165.6,183.5 L 165.8,183.1 L 165.8,183.1 L 165.9,182.9 L 166.1,182.5 L 166.3,182.0 L 166.4,181.5 L 166.5,181.3 L 166.6,181.1 L 166.7,180.9 L 166.8,180.8 L 166.9,180.6 L 166.9,180.6 L 167.1,180.3 L 167.2,180.2 L 167.6,179.7 L 167.8,179.3 L 167.9,179.2 L 168.1,179.2 L 168.4,179.1 L 168.6,179.1 L 168.7,179.2 L 168.8,179.2 L 168.9,179.0 L 169.2,178.6 L 169.3,178.6 L 169.7,178.7 L 169.9,178.8 L 170.0,178.9 L 170.0,179.0 L 170.1,179.1 L 170.2,179.1 L 170.2,179.1 L 170.3,179.2 L 170.4,179.3 L 170.4,179.4 L 170.4,179.4 L 170.6,179.5 L 170.7,179.5 L 170.8,179.7 L 170.8,179.8 L 170.8,180.0 L 170.8,180.1 L 170.8,180.2 L 170.8,180.2 L 170.8,180.3 L 170.8,180.5 L 170.8,180.6 L 170.9,180.6 L 170.9,180.7 L 170.9,180.9 L 170.9,181.2 L 170.9,181.5 L 170.9,181.7 L 171.0,181.8 L 171.0,182.2 L 171.0,182.2 L 171.1,182.3 L 171.1,182.5 L 171.1,182.6 L 171.1,182.7 L 171.2,183.0 L 171.2,183.1 L 171.3,183.2 L 171.4,183.8 L 171.5,184.2 L 171.6,184.4 L 171.6,184.5 L 171.7,184.6 L 171.8,184.6 L 171.8,184.7 L 171.8,184.6 L 171.9,184.6 L 172.0,184.7 L 172.1,184.8 L 172.3,184.8 L 172.3,184.8 L 172.4,184.8 L 172.5,184.8 L 172.5,184.9 L 172.6,184.8 L 172.8,184.7 L 172.9,184.6 L 173.0,184.5 L 173.0,184.4 L 173.1,184.3 L 173.1,184.1 L 173.1,184.0 L 173.2,183.8 L 173.3,183.8 L 173.3,183.8 L 173.4,183.8 L 173.4,183.7 L 173.5,183.7 L 173.6,183.5 L 173.6,183.5 L 173.6,183.5 L 173.7,183.3 L 173.7,183.3 L 173.8,183.1 L 174.0,182.9 L 174.1,182.6 L 174.2,182.3 L 174.3,182.1 L 174.5,181.6 L 174.7,181.2 L 174.8,180.5 L 174.8,180.1 L 174.8,179.9 L 174.8,179.2 L 174.8,179.0 L 174.8,178.9 L 174.7,178.5 L 174.7,178.4 L 174.6,178.2 L 174.6,178.1 L 174.6,177.9 L 174.5,177.3 L 174.4,177.0 L 174.4,177.0 L 174.4,176.9 L 174.3,176.9 L 174.3,176.8 L 174.3,176.6 L 174.2,176.5 L 174.1,176.4 L 173.9,176.2 L 173.9,176.2 L 173.9,176.2 L 173.8,176.2 L 173.8,176.1 L 173.7,176.2 L 173.7,176.1 L 173.7,176.2 L 173.7,176.1 L 173.7,176.1 L 173.6,176.0 L 173.6,176.0 L 173.5,176.0 L 173.5,176.0 L 173.6,175.9 L 173.6,175.7 L 173.5,175.6 L 173.5,175.5 L 173.5,175.1 L 173.5,175.1 L 173.5,174.8 L 173.4,174.7 L 173.4,174.6 L 173.4,174.5 L 173.4,174.5 L 173.4,174.4 L 173.3,174.4 L 173.2,174.2 L 173.3,174.1 L 173.4,174.0 L 173.4,174.0 L 173.5,173.9 L 173.6,173.6 L 173.7,173.2 L 173.7,173.0 L 173.9,172.3 L 173.9,172.2 L 173.9,172.1 L 173.9,172.0 L 173.9,172.0 L 173.8,171.9 L 173.8,171.9 L 173.8,171.8 L 173.8,171.6 L 173.7,171.6 L 173.7,171.6 L 173.7,171.5 L 173.7,171.3 L 173.8,171.0 L 173.8,170.7 L 173.7,170.6 L 173.7,170.5 L 173.7,170.5 L 173.6,170.5 L 173.5,170.5 L 173.5,170.5 L 177.5,159.5 L 177.5,159.6 L 177.6,159.5 L 177.6,159.4 L 177.7,159.4 L 177.7,159.4 L 177.7,159.5 L 177.8,159.4 L 177.9,159.3 L 177.9,159.3 L 178.1,158.8 L 178.1,158.7 L 178.2,158.6 L 178.2,158.6 L 178.3,158.6 L 178.4,158.6 L 178.5,158.4 L 178.6,158.4 L 178.7,158.4 L 178.8,158.4 L 178.8,158.3 L 178.8,158.3 L 178.9,158.2 L 178.8,158.2 L 178.8,158.2 L 178.8,158.1 L 179.0,157.9 L 179.1,157.7 L 179.1,157.7 L 179.2,157.7 L 179.3,157.5 L 179.3,157.4 L 179.5,157.2 L 179.5,157.1 L 179.6,157.0 L 179.7,157.0 L 179.7,156.7 L 179.7,156.6 L 179.8,156.3 L 179.8,156.1 L 179.8,155.8 L 179.8,155.7 L 179.8,155.5 L 179.8,155.5 L 179.7,155.2 L 179.7,155.1 L 179.7,155.0 L 179.7,154.9 L 179.7,154.8 L 179.7,154.7 L 179.8,154.7 L 179.8,154.6 L 179.7,154.6 L 179.7,154.4 L 179.8,154.3 L 179.8,154.0 L 179.7,154.0 L 179.6,153.8 L 179.6,153.7 L 179.6,153.5 L 179.5,153.5 L 179.4,152.8 L 179.4,152.4 L 179.4,152.4 L 179.3,152.2 L 179.1,151.8 L 179.1,151.8 L 178.8,151.3 L 178.7,151.1 L 178.7,150.9 L 178.8,150.6 L 178.8,150.5 L 178.8,150.4 L 178.8,150.4 L 178.6,150.3 L 178.5,150.1 L 178.5,149.9 L 178.4,149.8 L 178.3,149.2 L 178.2,149.1 L 178.2,149.0 L 178.1,148.7 L 178.2,148.6 L 178.2,148.5 L 178.4,148.4 L 178.4,148.4 L 178.5,148.3 L 178.7,148.3 L 178.7,148.2 L 178.7,148.2 L 178.7,148.1 L 178.8,148.1 L 178.9,148.0 L 178.9,147.9 L 179.1,147.5 L 179.2,147.3 L 179.2,146.8 L 179.6,146.3 L 179.7,146.1 L 179.7,145.8 L 179.8,145.3 L 179.8,145.1 L 179.8,145.0 L 179.9,144.8 L 180.0,144.6 L 180.0,144.4 L 180.0,144.2 L 180.1,144.0 L 180.0,144.0 L 179.8,143.9 L 179.6,143.9 L 179.4,143.8 L 179.2,143.8 L 179.1,143.7 L 179.1,143.5 L 179.2,143.0 L 179.3,142.7 L 179.4,142.3 L 179.5,142.2 L 179.6,142.0 L 179.6,141.9 L 179.7,141.8 L 179.8,141.7 L 179.9,141.6 L 180.0,141.4 L 180.1,141.3 L 180.3,141.2 L 180.3,141.2 L 180.4,141.1 L 180.5,141.0 L 180.6,141.0 L 180.7,141.1 L 180.7,141.1 L 181.0,141.2 L 181.2,141.2 L 181.4,141.2 L 181.5,141.1 L 181.9,141.0 L 182.0,141.0 L 182.1,141.0 L 182.2,141.0 L 182.4,140.9 L 182.5,140.7 L 182.7,140.6 L 182.8,140.7 L 182.9,140.8 L 182.9,140.9 L 183.0,140.9 L 183.1,141.0 L 183.2,140.9 L 183.2,140.9 L 183.2,140.8 L 183.2,140.8 L 183.3,140.7 L 183.3,140.6 L 183.3,140.6 L 183.2,140.5 L 183.2,140.3 L 183.2,140.2 L 183.3,140.2 L 183.4,140.1 L 183.5,140.1 L 183.5,140.1 L 183.7,139.9 L 183.7,139.9 L 183.7,139.7 L 183.6,139.6 L 183.7,139.6 L 183.7,139.6 L 183.4,139.6 L 183.3,139.6 L 183.2,139.5 L 183.2,139.3 L 183.2,139.2 L 183.4,139.2 L 183.5,139.1 L 183.5,139.0 L 183.5,138.8 L 183.4,138.7 L 183.4,138.7 L 183.3,138.5 L 183.3,138.5 L 183.2,138.5 L 183.0,138.4 L 182.9,138.3 L 182.8,138.1 L 182.9,137.9 L 183.1,137.6 L 183.2,137.5 L 183.3,137.5 L 183.4,137.5 L 183.4,137.5 L 183.5,137.5 L 183.7,137.6 L 183.8,137.6 L 184.0,137.6 L 184.2,137.8 L 184.4,137.9 L 184.4,137.9 L 184.4,138.0 L 184.6,138.0 L 184.6,138.0 L 184.8,137.8 L 185.0,137.8 L 185.1,137.7 L 185.2,137.7 L 185.3,137.6 L 185.4,137.6 L 185.5,137.5 L 185.9,137.5 L 186.1,137.5 L 186.2,137.4 L 186.3,137.3 L 186.4,137.1 L 186.4,137.0 L 186.3,136.6 L 186.3,136.5 L 186.3,136.4 L 186.3,136.2 L 186.3,136.2 L 186.3,136.1 L 186.1,135.9 L 186.1,135.9 L 186.0,135.9 L 186.0,135.8 L 185.9,135.7 L 185.9,135.6 L 185.9,135.6 L 185.7,135.7 L 185.6,135.8 L 185.4,135.8 L 185.3,135.9 L 185.2,136.0 L 185.1,136.0 L 185.0,136.0 L 184.9,135.9 L 184.9,135.8 L 184.9,135.8 L 185.1,135.5 L 185.1,135.4 L 185.3,135.2 L 185.4,135.1 L 185.4,135.0 L 185.7,134.7 L 185.8,134.6 L 185.9,134.4 L 186.0,134.3 L 186.2,134.0 L 186.3,134.0 L 186.4,133.9 L 186.5,133.8 L 186.7,133.7 L 187.0,133.6 L 187.1,133.6 L 187.1,133.5 L 187.3,133.4 L 187.7,133.2 L 187.8,133.1 L 187.9,132.9 L 188.0,132.8 L 188.4,132.4 L 188.5,132.3 L 188.6,132.2 L 188.6,132.1 L 188.7,132.1 L 188.8,132.0 L 188.9,131.9 L 189.0,131.8 L 189.2,131.8 L 189.2,131.7 L 189.4,131.5 L 189.5,131.4 L 189.5,131.3 L 189.5,131.3 L 189.6,131.2 L 189.7,131.2 L 189.7,131.1 L 189.8,131.1 L 189.8,130.9 L 189.9,130.8 L 189.9,130.7 L 190.1,130.6 L 190.2,130.3 L 190.4,129.9 L 190.4,129.7 L 190.6,129.4 L 190.6,129.2 L 190.8,129.0 L 190.9,128.9 L 190.9,128.8 L 190.8,128.8 L 190.8,128.8 L 190.9,128.8 L 191.0,128.7 L 191.0,128.7 L 191.1,128.6 L 191.2,128.5 L 191.1,128.4 L 191.1,128.4 L 191.3,128.4 L 191.4,128.2 L 191.5,128.0 L 191.6,127.8 L 191.7,127.7 L 191.7,127.7 L 191.8,127.5 L 191.8,127.5 L 191.9,127.3 L 192.0,127.2 L 192.0,127.2 L 192.0,127.1 L 192.1,126.9 L 192.2,126.8 L 192.2,126.7 L 192.2,126.7 L 192.2,126.6 L 192.3,126.5 L 192.4,126.4 L 192.4,126.3 L 192.4,126.3 L 192.5,126.2 L 192.5,126.1 L 192.5,125.9 L 192.5,125.8 L 192.6,125.8 L 192.6,125.7 L 192.6,125.5 L 192.7,125.4 L 192.7,125.4 L 192.7,125.3 L 192.6,125.2 L 192.6,125.2 L 193.0,124.9 L 193.0,124.9 L 193.0,124.8 L 192.9,124.8 L 192.9,124.8 L 192.8,124.7 L 192.9,124.7 L 193.0,124.6 L 193.0,124.6 L 193.1,124.5 L 193.2,124.4 L 193.3,124.3 L 193.3,124.0 L 193.3,124.0 L 193.3,123.9 L 193.3,123.7 L 193.3,123.7 L 193.3,123.6 L 193.3,123.4 L 193.3,123.2 L 193.3,123.0 L 193.4,122.8 L 193.3,122.5 L 193.3,122.4 L 193.3,122.3 L 193.4,122.2 L 193.4,122.1 L 193.3,121.9 L 193.3,121.7 L 193.3,121.5 L 193.3,121.2 L 193.3,121.1 L 193.3,121.0 L 193.2,120.9 L 193.2,120.7 L 193.3,120.5 L 193.3,120.5 L 193.4,120.3 L 193.4,120.3 L 193.4,120.2 L 193.5,120.1 L 193.6,120.0 L 193.6,119.9 L 193.6,119.9 L 193.6,119.9 L 193.5,119.8 L 193.4,119.8 L 193.2,120.0 L 193.0,120.1 L 193.0,120.1 L 192.8,120.2 L 192.7,120.3 L 192.7,120.4 L 192.7,120.4 L 192.6,120.4 L 192.6,120.5 L 192.5,120.5 L 192.4,120.4 L 192.4,120.5 L 192.2,120.5 L 192.1,120.6 L 192.1,120.7 L 192.1,120.7 L 192.1,120.7 L 192.0,120.7 L 192.0,120.7 L 192.0,120.7 L 191.7,120.8 L 191.7,120.9 L 191.6,120.9 L 191.4,121.0 L 191.4,121.1 L 191.3,121.1 L 191.2,121.2 L 191.1,121.3 L 191.0,121.4 L 190.9,121.5 L 190.7,121.6 L 190.5,121.7 L 190.3,121.8 L 190.2,122.0 L 190.0,122.0 L 189.8,122.2 L 189.7,122.4 L 189.5,122.5 L 189.2,122.8 L 189.1,122.9 L 188.7,123.2 L 188.4,123.4 L 188.3,123.5 L 188.2,123.6 L 188.2,123.7 L 188.2,123.8 L 188.1,123.9 L 188.0,123.9 L 187.8,124.0 L 187.6,124.1 L 187.5,124.2 L 187.3,124.3 L 187.2,124.4 L 187.0,124.4 L 186.8,124.5 L 186.6,124.6 L 186.5,124.6 L 186.4,124.7 L 186.2,124.7 L 185.9,124.6 L 185.7,124.6 L 185.6,124.6 L 185.5,124.5 L 185.4,124.5 L 185.3,124.5 L 185.2,124.6 L 185.1,124.6 L 184.9,124.7 L 184.8,124.8 L 184.6,124.7 L 184.5,124.8 L 184.5,124.8 L 184.4,124.7 L 184.2,124.7 L 184.1,124.7 L 184.0,124.6 L 183.9,124.6 L 183.8,124.6 L 183.6,124.7 L 183.5,124.9 L 183.5,124.9 L 183.5,124.9 L 183.4,124.8 L 183.3,124.7 L 183.1,124.5 L 183.0,124.3 L 182.8,124.0 L 182.6,123.6 L 182.6,123.4 L 182.7,123.2 L 182.8,123.0 L 182.9,122.9 L 183.2,122.5 L 183.3,122.5 L 183.4,122.4 L 183.8,122.1 L 183.9,122.0 L 184.1,121.9 L 184.2,121.8 L 184.4,121.8 L 184.7,121.9 L 184.8,121.9 L 184.9,121.8 L 184.9,121.8 L 184.9,121.8 L 185.0,121.8 L 185.1,121.9 L 185.2,121.8 L 185.2,121.8 L 185.3,121.8 L 185.3,121.6 L 185.5,121.5 L 185.5,121.4 L 185.6,121.3 L 185.6,121.2 L 185.7,121.0 L 185.8,121.0 L 185.9,120.8 L 186.0,120.8 L 186.0,120.7 L 186.0,120.6 L 185.9,120.6 L 185.9,120.5 L 186.0,120.5 L 186.0,120.4 L 186.2,120.3 L 186.2,120.2 L 186.2,120.1 L 186.3,119.9 L 186.4,119.7 L 186.6,119.5 L 186.6,119.3 L 186.8,119.2 L 186.8,118.8 L 186.7,118.3 L 186.7,118.3 L 186.8,118.2 L 186.8,118.0 L 186.9,117.8 L 186.9,117.7 L 187.0,117.6 L 187.1,117.4 L 187.1,117.3 L 187.2,117.3 L 187.3,117.1 L 187.3,117.0 L 187.5,116.8 L 187.5,116.7 L 187.8,116.5 L 187.8,116.4 L 187.7,116.3 L 187.8,116.2 L 187.8,116.2 L 187.9,116.2 L 187.9,116.0 L 187.9,116.0 L 188.0,115.9 L 188.1,115.8 L 188.2,115.6 L 188.2,115.4 L 188.2,115.4 L 188.2,115.4 L 188.4,115.4 L 188.4,115.4 L 188.5,115.3 L 188.5,115.2 L 188.4,115.0 L 188.2,114.9 L 188.1,114.7 L 188.1,114.6 L 188.1,114.5 L 188.1,114.4 L 188.0,114.4 L 187.9,114.1 L 187.9,114.0 L 187.9,114.0 L 187.8,113.9 L 187.7,113.9 L 187.7,113.8 L 187.9,113.7 L 188.0,113.5 L 188.1,113.4 L 188.2,113.4 L 188.3,113.3 L 188.3,113.2 L 188.4,113.2 L 188.5,113.0 L 188.5,112.9 L 188.6,112.8 L 188.6,112.8 L 188.4,112.7 L 188.4,112.7 L 188.5,112.7 L 188.6,112.7 L 188.7,112.6 L 188.7,112.5 L 188.8,112.5 L 188.9,112.4 L 189.1,112.3 L 189.1,112.3 L 189.1,112.3 L 189.0,112.2 L 189.0,112.1 L 189.3,111.9 L 189.5,111.8 L 189.6,111.6 L 189.6,111.4 L 189.6,111.3 L 189.6,111.3 L 189.3,111.4 L 189.1,111.4 L 189.1,111.4 L 186.7,84.3 L 186.8,84.3 L 186.9,84.3 L 187.1,84.2 L 187.1,84.1 L 187.1,84.0 L 187.1,83.9 L 187.1,83.8 L 196.5,80.1 L 196.5,80.2 L 196.6,80.2 L 196.6,80.2 L 196.8,80.0 L 196.8,80.0 L 196.8,79.9 L 196.8,79.9 L 196.8,79.8 L 196.9,79.7 L 197.0,79.6 L 197.1,79.5 L 197.2,79.4 L 197.5,79.3 L 197.7,79.2 L 197.9,79.2 L 198.1,79.1 L 198.2,79.1 L 198.3,79.0 L 198.4,79.0 L 198.7,79.0 L 198.8,78.9 L 199.1,78.9 L 199.2,78.9 L 199.4,78.9 L 199.5,78.9 L 199.6,78.9 L 199.7,78.9 L 199.8,78.7 L 200.0,78.6 L 200.1,78.5 L 200.1,78.4 L 200.0,78.1 L 200.0,78.1 L 200.6,77.9 L 200.6,77.9 L 200.6,77.9 L 200.7,78.0 L 200.9,78.2 L 200.9,78.2 L 201.0,78.2 L 201.0,78.1 L 201.0,78.0 L 201.1,77.8 L 201.1,77.8 L 201.1,77.7 L 201.0,77.6 L 201.0,77.6 L 201.2,76.6 L 201.3,76.5 L 201.4,76.5 L 201.6,76.4 L 201.7,76.3 L 201.8,76.3 L 201.9,76.2 L 202.0,76.1 L 202.0,76.2 L 202.1,76.1 L 202.1,76.1 L 202.0,76.1 L 201.9,76.1 L 201.9,76.0 L 201.9,75.9 L 201.9,75.8 L 202.0,75.7 L 202.1,75.6 L 202.1,75.6 L 202.2,75.5 L 202.2,75.5 L 202.3,75.4 L 202.4,75.4 L 202.4,75.4 L 202.4,75.2 L 202.5,75.2 L 202.5,75.1 L 202.7,75.1 L 202.9,75.0 L 203.1,74.8 L 203.2,74.8 L 203.4,74.8 L 203.4,74.8 L 203.4,74.7 L 203.6,74.6 L 203.8,74.5 L 203.9,74.5 L 203.9,74.4 L 204.1,74.4 L 204.1,74.3 L 204.2,74.3 L 204.3,74.2 L 204.5,74.2 L 204.7,74.0 L 204.9,73.9 L 205.0,73.9 L 205.2,73.7 L 205.3,73.7 L 205.4,73.6 L 205.5,73.6 L 205.5,73.5 L 205.6,73.3 L 205.7,73.3 L 205.8,73.3 L 206.0,73.1 L 206.1,73.0 L 206.1,73.0 L 206.2,73.0 L 206.2,73.0 L 206.3,72.9 L 206.6,72.9 L 206.6,72.9 L 206.7,72.9 L 206.8,72.9 L 206.8,72.9 L 206.9,72.8 L 207.1,72.7 L 207.2,72.6 L 207.3,72.6 L 207.3,72.5 L 207.3,72.5 L 207.3,72.4 L 207.3,72.3 L 207.4,72.3 L 207.5,72.3 L 207.5,72.4 L 207.5,72.3 L 207.6,72.2 L 207.6,72.1 L 207.7,72.0 L 207.8,71.9 L 207.9,71.8 L 208.1,71.8 L 208.2,71.6 L 208.3,71.4 L 208.4,71.3 L 208.5,71.1 L 208.7,71.1 L 208.8,70.9 L 209.0,70.9 L 209.0,70.9 L 209.1,70.8 L 209.2,70.8 L 209.2,70.6 L 209.2,70.6 L 209.4,70.6 L 209.6,70.5 L 209.7,70.4 L 209.7,70.4 L 209.8,70.4 L 209.9,70.4 L 210.0,70.3 L 210.2,70.2 L 210.3,70.2 L 210.3,70.1 L 210.4,70.0 L 210.7,69.8 L 210.8,69.7 L 210.9,69.6 L 211.0,69.6 L 211.4,69.4 L 211.4,69.3 L 211.4,69.2 L 211.4,69.2 L 211.5,69.1 L 211.6,69.1 L 211.8,68.9 L 212.0,68.7 L 212.1,68.5 L 212.1,68.5 L 212.0,68.5 L 212.0,68.4 L 212.3,68.1 L 212.3,68.0 L 212.2,67.8 L 212.3,67.7 L 212.3,67.6 L 212.3,67.5 L 212.1,67.5 L 212.1,67.4 L 212.0,67.4 L 211.8,67.2 L 211.8,67.2 L 211.9,67.1 L 211.8,67.0 L 211.7,67.0 L 211.7,66.8 L 211.7,66.7 L 211.6,66.4 L 211.6,66.3 L 211.6,66.2 L 211.4,66.2 L 211.2,66.3 L 211.1,66.2 L 211.0,66.2 L 210.8,66.2 L 210.5,66.0 L 210.5,66.0 L 210.4,65.6 L 210.4,65.4 L 210.4,65.4 L 210.5,65.4 L 210.5,65.3 L 210.4,65.3 L 210.4,65.2 L 210.5,64.9 L 210.6,64.7 L 210.6,64.7 L 210.9,64.4 L 211.3,64.2 L 211.4,64.1 L 211.5,64.1 L 211.6,64.0 L 211.8,63.7 L 212.0,63.6 L 212.2,63.5 L 212.4,63.4 L 212.6,63.3 L 212.6,63.3 L 212.7,63.3 L 212.9,63.3 L 213.1,63.3 L 213.2,63.3 L 213.6,63.3 L 213.8,63.3 L 213.9,63.3 L 213.9,63.3 L 214.1,63.3 L 214.2,63.2 L 214.5,63.1 L 214.6,63.1 L 214.8,63.0 L 215.0,62.9 L 215.1,62.8 L 215.2,62.8 L 215.2,62.7 L 215.5,62.6 L 215.7,62.5 L 215.7,62.5 L 215.8,62.5 L 215.8,62.4 L 216.1,62.4 L 216.1,62.4 L 216.2,62.3 L 216.3,62.3 L 216.3,62.2 L 216.4,62.2 L 216.5,62.1 L 216.7,62.0 L 216.8,62.0 L 216.8,61.9 L 216.8,61.9 L 216.9,61.9 L 216.9,61.8 L 217.0,61.7 L 217.1,61.6 L 217.1,61.5 L 217.2,61.4 L 217.3,61.3 L 217.4,61.1 L 217.4,61.0 L 217.4,61.0 L 217.5,60.8 L 217.6,60.5 L 217.7,60.4 L 217.7,60.4 L 217.7,60.4 L 217.7,60.4 L 217.9,60.1 L 217.9,60.0 L 217.9,59.9 L 217.9,59.9 L 217.9,59.8 L 218.0,59.8 L 218.0,59.8 L 218.1,59.7 L 218.2,59.6 L 218.2,59.6 L 218.3,59.7 L 218.3,59.7 L 218.4,59.7 L 218.5,59.7 L 218.7,59.6 L 218.7,59.5 L 218.7,59.4 L 218.8,59.1 L 218.8,59.1 L 218.8,59.1 L 218.8,59.1 L 218.8,59.0 L 218.8,59.0 L 218.7,59.0 L 218.7,59.0 L 218.6,58.9 L 218.7,58.8 L 218.7,58.8 L 218.7,58.7 L 218.7,58.7 L 218.8,58.7 L 218.9,58.7 L 218.9,58.6 L 219.0,58.6 L 219.0,58.4 L 219.1,58.3 L 219.1,58.2 L 219.1,58.2 L 219.2,58.2 L 219.2,58.1 L 219.2,58.1 L 219.2,58.0 L 219.3,58.0 L 219.3,57.8 L 219.3,57.8 L 219.2,57.8 L 219.2,57.8 L 219.2,57.8 L 219.2,57.7 L 219.2,57.7 L 219.3,57.7 L 219.4,57.7 L 219.4,57.7 L 219.3,57.7 L 219.2,57.7 L 219.2,57.7 L 219.3,57.7 L 219.3,57.6 L 219.3,57.6 L 219.2,57.6 L 219.2,57.6 L 219.2,57.5 L 219.3,57.4 L 219.3,57.3 L 219.3,57.3 L 219.4,57.2 L 219.4,57.2 L 219.3,57.2 L 219.3,57.1 L 219.4,57.1 L 219.4,57.2 L 219.5,57.1 L 219.5,57.1 L 219.5,57.1 L 219.5,57.0 L 219.5,57.0 L 219.4,57.0 L 219.5,57.0 L 219.5,57.0 L 219.5,57.1 L 219.6,57.1 L 219.6,57.0 L 219.6,57.0 L 219.6,57.0 L 219.7,56.9 L 219.7,56.9 L 219.7,56.8 L 219.7,56.8 L 219.7,56.8 L 219.7,56.7 L 219.7,56.7 L 219.7,56.6 L 219.8,56.6 L 219.8,56.6 L 219.9,56.5 L 219.9,56.3 L 219.9,56.3 L 219.8,56.3 L 219.8,56.3 L 219.8,56.2 L 219.9,56.2 L 220.0,56.1 L 220.0,56.1 L 220.0,56.0 L 220.0,55.9 L 220.1,55.7 L 220.1,55.6 L 220.1,55.6 L 220.1,55.5 L 220.1,55.5 L 220.1,55.5 L 220.1,55.4 L 220.1,55.3 L 220.2,55.1 L 220.2,54.9 L 220.3,54.7 L 220.2,54.5 L 220.2,54.5 L 220.3,54.4 L 220.3,54.2 L 220.4,54.1 L 220.4,54.0 L 220.5,53.9 L 220.6,53.8 L 220.7,53.7 L 220.7,53.6 L 220.8,53.5 L 220.8,53.3 L 220.9,53.1 L 220.9,53.0 L 220.9,52.9 L 221.0,52.8 L 221.0,52.8 L 221.0,52.7 L 221.1,52.5 L 221.0,52.4 L 221.1,52.4 L 221.1,52.3 L 221.1,52.2 L 221.1,52.1 L 221.1,52.1 L 221.2,52.0 L 221.1,51.9 L 221.1,51.8 L 221.2,51.7 L 221.3,51.6 L 221.3,51.6 L 221.3,51.5 L 221.3,51.5 L 221.3,51.5 L 221.4,51.4 L 221.4,51.3 L 221.4,51.3 L 221.5,51.2 L 221.6,51.1 L 221.7,51.0 L 221.6,50.8 L 221.6,50.7 L 221.5,50.7 L 221.5,50.7 L 221.5,50.6 L 221.5,50.5 L 221.5,50.5 L 221.4,50.5 L 221.4,50.4 L 221.4,50.4 L 221.4,50.3 L 221.3,50.3 L 221.3,50.3 L 221.3,50.3 L 221.3,50.2 L 221.3,50.2 L 221.3,50.2 L 221.3,50.1 L 221.1,49.9 L 221.0,49.9 L 221.0,49.7 L 221.0,49.6 L 221.2,49.6 L 221.3,49.6 L 221.4,49.5 L 221.5,49.4 L 221.5,49.3 L 221.4,49.2 L 221.4,49.2 L 221.4,49.1 L 221.4,49.1 L 221.4,49.1 L 221.4,49.0 L 221.4,49.0 L 221.3,49.0 L 221.3,48.9 L 221.5,48.9 L 221.5,48.8 L 221.5,48.7 L 221.5,48.7 L 221.6,48.7 L 221.5,48.6 L 221.7,48.5 L 221.7,48.5 L 221.7,48.4 L 221.7,48.3 L 221.4,48.2 L 221.5,48.1 L 221.6,48.1 L 221.6,48.0 L 221.7,47.9 L 221.6,47.8 L 221.6,47.8 L 221.6,47.7 L 221.5,47.7 L 221.6,47.6 L 221.6,47.5 L 221.5,47.5 L 221.4,47.5 L 221.4,47.6 L 221.3,47.5 L 221.3,47.4 L 221.4,47.3 L 221.4,47.3 L 221.4,47.2 L 221.4,47.2 L 221.4,47.2 L 221.4,47.1 L 221.5,46.9 L 221.5,46.7 L 221.5,46.7 L 221.6,46.8 L 221.6,46.7 L 221.7,46.8 L 221.7,46.7 L 221.7,46.7 L 221.7,46.5 L 221.6,46.4 L 221.5,46.3 L 221.4,46.3 L 221.4,46.3 L 221.3,46.3 L 221.3,46.4 L 221.2,46.3 L 221.1,46.3 L 221.1,46.3 L 221.1,46.2 L 221.1,46.1 L 221.0,46.2 L 221.0,46.0 L 221.0,46.0 L 221.0,46.0 L 221.0,46.0 L 221.0,46.0 L 221.1,46.0 L 221.1,46.0 L 221.1,45.9 L 221.1,45.9 L 221.0,45.9 L 221.0,45.8 L 221.1,45.7 L 221.1,45.7 L 221.1,45.6 L 221.1,45.5 L 221.2,45.6 L 221.3,45.6 L 221.3,45.5 L 221.2,45.5 L 221.2,45.3 L 221.2,45.3 L 221.2,45.2 L 221.1,45.2 L 221.1,45.2 L 221.0,45.2 L 221.0,45.2 L 221.0,45.0 L 221.0,45.0 L 221.1,45.2 L 221.1,45.2 L 221.1,45.1 L 221.1,45.0 L 221.0,44.9 L 221.0,44.9 L 221.0,44.8 L 221.0,44.8 L 220.9,44.7 L 220.9,44.7 L 220.8,44.7 L 220.8,44.6 L 220.8,44.6 L 220.8,44.6 L 220.9,44.5 L 220.9,44.5 L 220.8,44.5 L 220.7,44.6 L 220.7,44.6 L 220.8,44.5 L 220.8,44.4 L 220.7,44.3 L 220.7,44.2 L 220.8,44.2 L 220.8,44.1 L 220.7,44.0 L 220.7,44.1 L 220.6,44.1 L 220.5,44.0 L 220.5,43.9 L 220.6,43.8 L 220.6,43.9 L 220.7,43.9 L 220.8,43.6 L 220.8,43.5 L 220.7,43.5 L 220.7,43.5 L 220.7,43.5 L 220.6,43.5 L 220.6,43.5 L 220.6,43.4 L 220.5,43.4 L 220.5,43.4 L 220.5,43.4 L 220.5,43.3 L 220.5,43.3 L 220.5,43.3 L 220.5,43.2 L 220.5,43.2 L 220.6,43.2 L 220.6,43.1 L 220.5,43.1 L 220.4,43.1 L 220.4,43.1 L 220.5,43.0 L 220.6,42.9 L 220.6,42.8 L 220.5,42.8 L 220.5,42.8 L 220.4,42.8 L 220.5,42.8 L 220.5,42.7 L 220.6,42.7 L 220.7,42.7 L 220.7,42.6 L 220.7,42.5 L 220.5,42.4 L 220.5,42.4 L 220.6,42.3 L 220.6,42.3 L 220.7,42.2 L 220.7,42.1 L 220.7,42.1 L 220.7,42.1 L 220.6,42.1 L 220.6,42.1 L 220.6,42.0 L 220.6,42.0 L 220.6,41.9 L 220.6,41.9 L 220.5,41.9 L 220.5,41.8 L 220.4,41.8 L 220.4,41.8 L 220.4,41.8 L 220.4,41.7 L 220.4,41.7 L 220.4,41.7 L 220.3,41.7 L 220.2,41.7 L 220.2,41.7 L 220.3,41.6 L 220.2,41.5 L 220.2,41.5 L 220.3,41.4 L 220.3,41.4 L 220.2,41.4 L 220.3,41.3 L 220.2,41.2 L 220.1,41.2 L 220.1,41.2 L 220.2,41.1 L 220.2,41.1 L 220.2,41.1 L 220.1,41.0 L 220.2,41.0 L 220.2,41.0 L 220.3,40.9 L 220.3,40.9 L 220.4,40.8 L 220.4,40.8 L 220.3,40.7 L 220.1,40.7 L 220.0,40.6 L 220.1,40.6 L 220.1,40.6 L 220.2,40.6 L 220.2,40.5 L 220.2,40.5 L 220.1,40.5 L 220.1,40.5 L 220.3,40.3 L 220.3,40.2 L 220.3,40.2 L 220.2,40.1 L 220.1,40.1 L 220.1,40.1 L 220.1,40.0 L 220.2,40.0 L 220.4,40.0 L 220.4,40.0 L 284.5,64.7 L 284.5,64.8 L 284.5,64.8 L 284.4,64.9 L 284.3,64.9 L 284.2,64.8 L 284.2,64.8 L 284.2,64.8 L 284.2,64.9 L 284.2,65.0 L 284.2,65.0 L 284.1,65.0 L 284.0,64.9 L 284.0,64.9 L 284.0,65.0 L 284.0,65.1 L 284.0,65.1 L 283.8,65.3 L 283.7,65.5 L 283.7,65.5 L 283.6,65.6 L 283.6,65.6 L 283.5,65.7 L 283.4,65.8 L 283.4,65.9 L 283.3,66.0 L 283.3,66.0 L 283.3,66.1 L 283.2,66.1 L 283.3,66.2 L 283.3,66.2 L 283.3,66.4 L 283.2,66.4 L 283.2,66.5 L 283.2,66.6 L 283.2,66.6 L 283.4,66.6 L 283.4,66.8 L 283.4,66.8 L 283.3,66.8 L 283.3,66.8 L 283.3,66.9 L 283.3,66.9 L 283.5,66.9 L 283.5,67.0 L 283.7,67.3 L 283.6,67.5 L 283.6,67.7 L 283.5,67.9 L 283.3,68.0 L 283.3,68.1 L 283.2,68.2 L 283.1,68.3 L 282.4,68.5 L 282.2,68.5 L 282.0,68.5 L 281.8,68.6 L 281.7,68.7 L 281.6,68.8 L 281.5,68.9 L 281.4,69.0 L 281.3,69.1 L 281.3,69.1 L 281.2,69.2 L 281.1,69.5 L 281.0,69.5 L 280.8,69.9 L 280.8,70.0 L 280.7,70.1 L 280.7,70.1 L 280.7,70.2 L 280.5,70.5 L 280.5,70.6 L 280.5,70.6 L 280.4,70.7 L 280.3,70.8 L 280.2,71.0 L 280.1,71.2 L 280.0,71.3 L 279.9,71.4 L 279.8,71.5 L 279.6,71.6 L 279.3,71.8 L 279.1,71.9 L 279.0,72.0 L 279.0,72.0 L 279.0,72.0 L 278.7,72.1 L 278.6,72.1 L 278.6,72.1 L 278.3,72.2 L 278.2,72.2 L 278.0,72.2 L 277.9,72.2 L 277.9,72.2 L 277.7,72.1 L 277.4,72.1 L 277.3,72.0 L 277.2,72.0 L 277.1,72.0 L 277.0,72.0 L 276.9,72.0 L 276.8,72.0 L 276.8,72.0 L 276.7,72.0 L 276.6,72.0 L 276.6,72.0 L 276.5,72.1 L 276.4,72.1 L 276.4,72.1 L 276.2,72.1 L 276.0,72.2 L 275.9,72.2 L 275.8,72.2 L 275.7,72.2 L 275.4,72.2 L 275.3,72.2 L 275.2,72.2 L 275.1,72.3 L 275.1,72.3 L 275.1,72.4 L 275.0,72.4 L 274.8,72.5 L 274.8,72.5 L 274.8,72.7 L 274.7,72.8 L 274.6,72.8 L 274.6,72.9 L 274.7,72.9 L 274.7,73.0 L 274.7,73.1 L 274.6,73.1 L 274.6,73.1 L 274.5,73.2 L 274.5,73.2 L 274.5,73.3 L 274.4,73.5 L 274.4,73.6 L 274.3,73.8 L 274.3,73.8 L 274.2,74.0 L 274.2,74.0 L 274.2,74.1 L 274.1,74.2 L 274.0,74.4 L 273.9,74.4 L 273.8,74.5 L 273.4,74.5 L 273.3,74.5 L 273.0,74.4 L 273.0,74.3 L 273.0,74.3 L 273.0,74.2 L 273.1,74.0 L 273.1,73.9 L 273.0,73.9 L 273.0,74.0 L 273.0,73.9 L 273.0,73.9 L 272.9,73.9 L 272.9,73.9 L 272.9,73.8 L 272.8,73.8 L 272.8,73.9 L 272.8,73.9 L 272.8,73.8 L 272.9,73.5 L 272.9,73.4 L 272.9,73.4 L 272.8,73.4 L 272.8,73.4 L 272.8,73.3 L 272.8,73.2 L 272.9,73.1 L 272.8,73.0 L 272.8,73.0 L 272.7,73.0 L 272.6,73.1 L 272.4,73.3 L 272.3,73.3 L 272.2,73.4 L 272.2,73.5 L 272.3,73.5 L 272.3,73.6 L 272.2,73.5 L 272.2,73.5 L 272.1,73.6 L 272.1,73.7 L 272.1,73.7 L 272.0,73.6 L 272.0,73.6 L 271.9,73.7 L 271.9,73.8 L 271.9,73.7 L 271.8,73.7 L 271.8,73.8 L 271.8,73.7 L 271.8,73.7 L 271.8,73.6 L 271.8,73.5 L 271.8,73.5 L 271.7,73.6 L 271.7,73.8 L 271.6,73.8 L 271.6,73.9 L 271.5,74.1 L 271.5,74.2 L 271.3,74.5 L 271.2,74.6 L 271.1,74.7 L 271.1,74.9 L 271.0,74.9 L 270.8,75.1 L 270.7,75.3 L 270.7,75.4 L 270.8,75.4 L 270.8,75.4 L 270.7,75.4 L 270.6,75.5 L 270.5,75.6 L 270.4,75.9 L 270.3,76.1 L 270.3,76.2 L 270.5,76.3 L 270.5,76.3 L 270.5,76.3 L 270.4,76.3 L 270.3,76.3 L 270.3,76.3 L 270.2,76.5 L 270.1,76.5 L 270.0,76.5 L 269.9,76.7 L 269.9,76.8 L 269.9,76.9 L 269.8,77.0 L 269.7,77.0 L 269.7,77.1 L 269.6,77.1 L 269.5,77.2 L 269.4,77.3 L 269.3,77.4 L 269.2,77.4 L 269.2,77.6 L 269.0,77.9 L 269.0,78.0 L 268.9,78.1 L 268.8,78.2 L 268.8,78.3 L 268.7,78.3 L 268.7,78.3 L 268.7,78.4 L 268.6,78.5 L 268.5,78.6 L 268.4,79.0 L 268.4,79.1 L 268.3,79.2 L 268.2,79.3 L 268.1,79.4 L 268.1,79.6 L 268.0,79.7 L 268.0,79.8 L 267.9,79.9 L 267.9,80.1 L 267.7,80.4 L 267.6,80.5 L 267.6,80.6 L 267.6,80.6 L 267.5,80.7 L 267.4,80.8 L 267.3,81.0 L 267.2,81.0 L 267.2,81.0 L 267.1,81.1 L 267.0,81.4 L 266.9,81.5 L 266.8,81.8 L 266.8,81.9 L 266.7,82.0 L 266.6,82.1 L 266.5,82.2 L 266.4,82.5 L 266.3,82.5 L 266.3,82.6 L 266.1,82.6 L 266.1,82.8 L 266.0,82.9 L 265.9,83.0 L 265.9,83.2 L 265.6,83.8 L 265.5,84.1 L 265.4,84.3 L 265.2,84.5 L 265.1,84.6 L 265.0,84.9 L 264.8,85.1 L 264.7,85.4 L 264.7,85.5 L 264.6,85.7 L 264.5,86.0 L 264.4,86.2 L 264.4,86.4 L 264.3,86.5 L 264.3,86.6 L 264.2,86.7 L 264.2,86.8 L 264.2,86.9 L 264.0,87.1 L 263.9,87.2 L 263.8,87.3 L 263.7,87.5 L 263.6,87.6 L 263.5,87.9 L 263.4,88.1 L 263.3,88.1 L 263.3,88.2 L 263.1,88.5 L 263.1,88.7 L 263.0,88.8 L 263.0,88.9 L 263.0,89.1 L 263.1,89.1 L 263.2,89.1 L 263.2,89.1 L 263.1,89.2 L 263.2,89.3 L 263.2,89.4 L 263.2,89.4 L 263.2,89.5 L 263.2,89.6 L 263.2,89.8 L 263.0,89.9 L 262.9,90.0 L 262.9,90.1 L 262.8,90.0 L 262.7,90.1 L 262.6,90.1 L 262.6,90.2 L 262.7,90.3 L 262.7,90.3 L 262.6,90.3 L 262.5,90.4 L 262.5,90.5 L 262.5,90.5 L 262.5,90.6 L 262.5,90.6 L 262.4,90.6 L 262.3,90.6 L 262.2,90.6 L 262.2,90.6 L 262.1,90.8 L 262.1,91.0 L 262.0,91.2 L 261.9,91.4 L 261.9,91.5 L 262.0,91.7 L 261.9,91.7 L 261.9,91.9 L 261.9,91.9 L 261.8,92.0 L 261.8,92.0 L 261.7,92.2 L 261.7,92.3 L 261.7,92.4 L 261.7,92.5 L 261.6,92.6 L 261.6,92.6 L 261.6,92.7 L 261.6,92.8 L 261.5,92.9 L 261.5,93.0 L 261.5,93.0 L 261.4,93.1 L 261.3,93.2 L 261.2,93.3 L 261.3,93.5 L 261.2,93.5 L 261.1,93.6 L 261.1,93.7 L 261.0,93.9 L 261.0,94.0 L 261.0,94.0 L 260.9,94.1 L 260.8,94.4 L 260.8,94.4 L 260.9,94.5 L 261.0,94.6 L 261.1,94.7 L 260.9,94.9 L 260.9,94.9 L 261.0,95.0 L 261.0,95.1 L 261.1,95.2 L 261.2,95.4 L 261.2,95.5 L 261.2,95.5 L 261.3,95.6 L 261.3,95.7 L 261.3,95.8 L 261.3,95.9 L 261.3,96.0 L 261.3,96.0 L 261.2,96.0 L 261.1,96.1 L 261.0,96.1 L 260.8,96.1 L 260.7,96.2 L 260.6,96.2 L 260.5,96.2 L 260.5,96.2 L 260.4,96.3 L 260.2,96.3 L 260.1,96.4 L 259.9,96.5 L 259.8,96.6 L 259.8,96.6 L 259.7,96.5 L 259.7,96.4 L 259.6,96.4 L 259.5,96.4 L 259.4,96.4 L 259.4,96.4 L 259.3,96.6 L 259.2,96.8 L 259.2,96.9 L 259.2,96.9 L 259.2,96.9 L 259.1,97.1 L 259.0,97.4 L 259.0,97.5 L 259.1,97.5 L 259.1,97.6 L 259.2,97.7 L 259.1,97.8 L 259.1,97.8 L 259.0,97.9 L 259.1,98.0 L 259.1,98.1 L 259.1,98.2 L 259.0,98.4 L 259.0,98.6 L 259.0,98.7 L 259.0,98.8 L 258.9,99.0 L 258.9,99.2 L 258.7,99.3 L 258.6,99.6 L 258.6,99.8 L 258.5,99.9 L 258.5,100.0 L 258.5,100.0 L 258.4,100.2 L 258.3,100.3 L 258.3,100.3 L 258.2,100.4 L 258.2,100.5 L 258.2,100.5 L 258.2,100.6 L 258.1,100.7 L 258.2,100.8 L 258.1,101.0 L 258.1,101.0 L 258.2,101.2 L 258.3,101.3 L 258.4,101.3 L 258.5,101.3 L 258.5,101.4 L 258.6,101.4 L 258.7,101.5 L 258.7,101.5 L 258.8,101.7 L 258.9,101.8 L 259.0,102.0 L 259.1,102.1 L 259.1,102.2 L 259.1,102.4 L 259.0,102.5 L 259.0,102.5 L 259.0,102.6 L 258.8,103.0 L 258.7,103.0 L 258.6,103.1 L 258.5,103.2 L 258.3,103.2 L 258.1,103.2 L 258.0,103.1 L 257.9,103.1 L 257.9,103.1 L 257.9,103.0 L 257.8,102.9 L 257.6,102.8 L 257.5,102.7 L 257.3,102.7 L 257.2,102.7 L 257.2,102.7 L 256.9,102.8 L 256.6,102.9 L 256.5,103.0 L 256.4,103.3 L 256.4,103.4 L 256.5,103.5 L 256.6,103.6 L 256.5,103.6 L 256.4,103.6 L 256.3,103.5 L 256.3,103.5 L 256.3,103.5 L 256.3,103.7 L 256.1,103.7 L 256.0,103.8 L 255.8,104.0 L 255.5,104.5 L 255.6,104.6 L 255.6,104.7 L 255.7,104.8 L 255.6,104.8 L 255.5,104.9 L 255.4,104.8 L 255.3,104.8 L 255.2,104.8 L 255.1,104.9 L 255.0,104.9 L 254.9,105.0 L 254.7,105.4 L 254.5,105.7 L 254.5,105.8 L 254.4,106.2 L 254.4,106.3 L 254.4,106.4 L 254.4,106.4 L 254.2,106.4 L 254.1,106.6 L 254.0,106.8 L 253.9,107.0 L 253.8,107.2 L 253.7,107.3 L 253.6,107.5 L 253.5,107.6 L 253.4,107.8 L 253.3,107.9 L 253.3,108.0 L 253.2,108.0 L 253.2,108.1 L 253.2,108.1 L 253.2,108.2 L 253.1,108.1 L 253.1,108.2 L 253.0,108.3 L 253.0,108.4 L 253.1,108.5 L 253.1,108.5 L 253.1,108.5 L 252.9,108.6 L 252.8,108.7 L 252.8,108.8 L 252.7,109.1 L 252.6,109.2 L 252.6,109.4 L 252.5,109.4 L 252.5,109.5 L 252.5,109.6 L 252.4,109.7 L 252.3,110.0 L 252.2,110.2 L 252.2,110.3 L 252.3,110.4 L 252.3,110.5 L 252.2,110.5 L 252.1,110.4 L 252.1,110.5 L 252.1,110.6 L 252.0,110.9 L 252.0,111.0 L 251.9,111.1 L 251.9,111.1 L 251.9,111.3 L 251.8,111.4 L 251.8,111.5 L 251.8,111.6 L 251.7,111.8 L 251.6,111.9 L 251.6,112.0 L 251.5,112.2 L 251.4,112.5 L 251.3,112.9 L 251.2,113.1 L 251.2,113.1 L 251.2,113.2 L 251.2,113.4 L 251.1,113.5 L 251.2,113.6 L 251.2,113.8 L 251.2,113.8 L 251.1,113.8 L 251.1,113.8 L 251.0,113.9 L 250.9,113.9 L 250.9,114.0 L 250.8,114.1 L 250.8,114.2 L 250.6,114.5 L 250.5,114.6 L 250.5,114.7 L 250.6,114.7 L 250.6,114.8 L 250.5,114.8 L 250.4,114.9 L 250.4,115.0 L 250.4,115.1 L 250.2,115.5 L 250.2,115.7 L 250.1,115.7 L 250.1,115.7 L 250.1,115.9 L 250.1,116.0 L 250.1,116.1 L 250.1,116.1 L 250.0,116.2 L 249.9,116.2 L 249.9,116.3 L 249.9,116.4 L 249.9,116.5 L 249.9,116.6 L 249.9,116.6 L 249.8,116.6 L 249.8,116.6 L 249.8,116.7 L 249.7,116.8 L 249.7,116.8 L 249.7,116.9 L 249.7,116.9 L 249.6,117.2 L 249.6,117.4 L 249.6,117.6 L 249.6,117.7 L 249.5,117.7 L 249.4,117.8 L 249.4,117.8 L 249.5,117.9 L 249.6,117.9 L 249.6,118.0 L 249.5,118.0 L 249.5,118.1 L 249.4,118.1 L 249.3,118.2 L 249.3,118.3 L 249.3,118.3 L 249.2,118.4 L 249.2,118.5 L 249.2,118.6 L 249.2,118.7 L 249.2,118.8 L 249.1,118.8 L 249.2,119.0 L 249.1,119.1 L 249.1,119.2 L 249.1,119.3 L 249.1,119.3 L 249.2,119.5 L 249.2,119.7 L 249.1,119.8 L 249.0,120.0 L 248.9,120.1 L 248.8,120.2 L 248.7,120.2 L 248.7,120.3 L 248.6,120.3 L 248.5,120.3 L 248.5,120.4 L 248.4,120.5 L 248.3,120.8 L 248.2,120.9 L 248.3,121.0 L 248.2,121.2 L 248.3,121.2 L 248.2,121.3 L 248.2,121.3 L 248.3,121.4 L 248.3,121.4 L 248.2,121.4 L 248.1,121.5 L 247.9,122.1 L 247.8,122.2 L 247.8,122.3 L 247.8,122.4 L 247.8,122.5 L 247.8,122.5 L 248.0,122.6 L 248.0,122.7 L 248.0,122.8 L 247.9,122.9 L 248.0,123.0 L 248.1,123.0 L 248.0,123.5 L 248.0,123.6 L 247.9,123.7 L 247.9,123.7 L 247.8,124.0 L 247.7,124.0 L 247.7,124.1 L 247.7,124.1 L 247.5,124.5 L 247.4,124.7 L 247.5,124.8 L 247.4,125.0 L 247.4,125.0 L 247.4,125.1 L 247.5,125.2 L 247.5,125.3 L 247.5,125.4 L 247.6,125.6 L 247.6,125.9 L 247.6,126.0 L 247.5,126.1 L 247.4,126.3 L 247.3,126.3 L 247.2,126.4 L 247.1,126.3 L 247.0,126.4 L 246.9,126.4 L 246.8,126.4 L 246.6,126.4 L 246.6,126.4 L 246.4,126.6 L 246.3,126.6 L 246.2,126.7 L 246.2,126.7 L 246.2,126.7 L 246.1,126.7 L 246.1,126.7 L 246.0,126.7 L 246.0,126.7 L 245.9,126.7 L 245.8,126.9 L 245.7,127.1 L 245.7,127.2 L 245.5,127.6 L 245.5,127.7 L 245.5,127.8 L 245.5,127.8 L 245.4,127.8 L 245.4,127.8 L 245.3,128.0 L 245.3,128.1 L 245.3,128.2 L 245.3,128.3 L 245.3,128.4 L 245.2,128.4 L 245.2,128.4 L 245.2,128.5 L 245.1,128.6 L 245.1,128.7 L 245.1,128.7 L 245.0,128.8 L 244.9,129.0 L 244.7,129.5 L 244.5,129.9 L 244.4,130.2 L 244.3,130.4 L 244.2,130.8 L 244.2,131.1 L 244.2,131.2 L 244.2,131.3 L 244.3,131.4 L 244.4,131.5 L 244.3,131.5 L 244.2,131.5 L 244.2,131.5 L 244.2,131.8 L 244.2,131.9 L 244.2,131.9 L 244.3,132.2 L 244.3,132.2 L 244.4,132.2 L 244.4,132.3 L 244.4,132.4 L 244.4,132.4 L 244.4,132.5 L 244.6,132.8 L 244.6,133.0 L 244.6,133.3 L 244.6,133.6 L 244.6,133.8 L 244.6,134.0 L 244.7,134.1 L 244.7,134.2 L 244.6,134.2 L 244.6,134.1 L 244.6,134.1 L 244.6,134.1 L 244.5,134.2 L 244.4,134.4 L 244.2,134.5 L 244.1,134.6 L 243.9,134.5 L 243.8,134.5 L 243.6,134.5 L 243.6,134.4 L 243.5,134.4 L 243.5,134.5 L 243.4,134.5 L 243.4,134.4 L 243.3,134.4 L 243.3,134.5 L 243.2,134.5 L 243.1,134.6 L 243.0,134.5 L 242.9,134.6 L 242.9,134.6 L 242.8,134.6 L 242.7,134.7 L 242.6,134.7 L 242.6,134.7 L 242.5,134.7 L 242.4,134.8 L 242.4,134.9 L 242.4,135.0 L 242.4,135.0 L 242.3,135.1 L 242.2,135.2 L 242.2,135.1 L 242.2,135.1 L 242.2,135.1 L 242.1,135.1 L 242.0,135.2 L 241.9,135.3 L 241.8,135.6 L 241.7,135.9 L 241.6,136.2 L 241.6,136.2 L 241.6,136.2 L 241.5,136.3 L 241.4,136.4 L 241.4,136.6 L 241.2,137.0 L 241.1,137.4 L 241.0,137.6 L 240.9,138.1 L 241.0,138.3 L 241.0,138.5 L 240.9,138.7 L 240.7,139.1 L 240.7,139.3 L 240.6,139.6 L 240.6,139.8 L 240.6,139.9 L 240.5,140.3 L 240.6,140.6 L 240.7,140.7 L 240.7,140.8 L 240.6,140.9 L 240.5,140.9 L 240.5,141.0 L 240.5,141.1 L 240.4,141.3 L 240.3,141.7 L 240.3,142.0 L 240.3,142.2 L 240.2,142.4 L 240.1,142.5 L 240.0,142.5 L 240.0,142.4 L 239.9,142.4 L 239.9,142.5 L 239.8,142.7 L 239.7,142.8 L 239.7,142.9 L 239.6,143.0 L 239.6,143.2 L 239.6,143.3 L 239.6,143.5 L 239.7,143.6 L 239.7,143.8 L 239.8,144.0 L 239.8,144.0 L 239.8,144.1 L 240.0,144.2 L 240.0,144.3 L 240.0,144.4 L 240.1,144.5 L 240.2,144.6 L 240.4,144.7 L 240.5,144.7 L 240.6,144.9 L 240.6,145.2 L 240.6,145.4 L 240.6,145.7 L 240.6,145.9 L 240.6,145.9 L 240.6,146.1 L 240.5,146.1 L 240.4,146.5 L 240.2,146.7 L 240.1,146.9 L 240.0,147.0 L 239.9,147.1 L 239.9,147.1 L 239.9,147.2 L 239.8,147.3 L 239.4,147.5 L 239.3,147.7 L 239.3,147.8 L 239.2,147.8 L 239.1,147.9 L 238.9,148.1 L 238.9,148.3 L 238.9,148.3 L 238.8,148.4 L 238.7,148.5 L 238.6,148.5 L 238.6,148.6 L 238.6,148.7 L 238.6,148.9 L 238.6,149.0 L 238.6,149.1 L 238.6,149.1 L 238.4,149.3 L 238.4,149.5 L 238.4,149.5 L 238.3,149.6 L 238.3,149.7 L 238.3,149.8 L 238.3,150.0 L 238.2,150.0 L 238.2,150.2 L 238.1,150.3 L 238.0,150.5 L 237.9,150.7 L 237.7,151.0 L 237.6,151.2 L 237.5,151.2 L 237.5,151.2 L 237.5,151.4 L 237.5,151.5 L 237.2,151.7 L 237.0,151.8 L 236.8,151.8 L 236.6,151.7 L 236.5,151.7 L 236.2,151.5 L 236.0,151.5 L 236.0,151.5 L 235.9,151.6 L 235.3,152.0 L 235.0,152.1 L 234.8,152.2 L 234.7,152.3 L 234.5,152.3 L 234.4,152.4 L 234.3,152.5 L 234.1,152.5 L 234.0,152.6 L 233.9,152.7 L 233.8,152.8 L 233.7,152.9 L 233.5,153.0 L 233.1,153.5 L 232.9,153.8 L 232.8,153.9 L 232.6,153.9 L 232.5,153.9 L 232.5,153.9 L 232.4,154.0 L 232.3,154.0 L 232.3,154.1 L 232.2,154.2 L 232.1,154.3 L 232.1,154.4 L 232.0,154.5 L 232.0,154.6 L 232.0,154.6 L 232.0,154.7 L 232.0,154.7 L 231.8,154.8 L 231.8,154.8 L 231.9,154.9 L 231.9,154.9 L 231.8,155.0 L 231.7,155.0 L 231.6,155.1 L 231.3,155.2 L 231.3,155.2 L 231.3,155.3 L 231.4,155.3 L 231.3,155.3 L 231.1,155.5 L 230.8,155.6 L 230.7,155.7 L 230.7,155.8 L 230.6,155.8 L 230.5,155.9 L 230.5,156.0 L 230.4,156.1 L 230.3,156.2 L 230.2,156.4 L 230.2,156.6 L 230.1,156.8 L 230.1,156.9 L 230.1,156.9 L 230.1,157.0 L 230.0,157.0 L 229.9,157.1 L 229.7,157.5 L 229.7,157.6 L 229.6,157.9 L 229.6,158.0 L 229.6,158.1 L 229.6,158.3 L 229.6,158.4 L 229.7,158.4 L 229.9,158.5 L 230.2,158.6 L 230.3,158.7 L 230.3,158.8 L 230.4,158.9 L 230.4,159.0 L 230.5,159.1 L 230.6,159.1 L 230.7,159.2 L 230.8,159.4 L 230.9,159.5 L 230.9,159.6 L 231.1,159.7 L 231.3,159.7 L 231.4,159.7 L 231.5,159.8 L 231.7,160.0 L 231.8,160.0 L 231.8,160.2 L 231.9,160.3 L 231.9,160.5 L 231.9,160.8 L 231.8,161.0 L 231.7,161.5 L 231.6,161.6 L 231.6,161.6 L 231.5,161.6 L 231.5,161.6 L 231.4,161.7 L 231.4,161.9 L 231.3,162.1 L 231.2,162.2 L 231.2,162.4 L 231.1,162.5 L 231.0,162.8 L 231.0,162.8 L 231.1,162.9 L 231.1,163.2 L 231.0,163.6 L 231.0,163.7 L 231.0,164.0 L 231.0,164.1 L 231.1,164.5 L 231.0,164.6 L 231.1,164.6 L 231.1,164.7 L 231.0,164.8 L 231.1,164.8 L 231.1,164.9 L 231.1,164.9 L 231.2,165.0 L 231.3,165.7 L 231.3,165.9 L 231.3,166.0 L 231.3,166.2 L 231.4,166.6 L 231.4,166.8 L 231.3,167.0 L 231.3,167.2 L 231.4,167.2 L 231.3,167.2 L 231.2,167.5 L 231.2,167.7 L 231.1,167.7 L 231.1,167.7 L 231.1,167.8 L 231.0,168.0 L 231.0,168.0 L 231.0,168.1 L 231.0,168.1 L 231.0,168.2 L 230.9,168.3 L 230.9,168.3 L 230.9,168.4 L 230.8,168.5 L 230.8,168.6 L 230.8,168.7 L 230.8,168.8 L 230.7,169.0 L 230.6,169.2 L 230.6,169.2 L 230.5,169.3 L 230.5,169.4 L 230.4,169.6 L 230.4,169.6 L 230.4,169.7 L 230.4,169.8 L 230.3,169.8 L 230.3,169.9 L 230.3,170.0 L 230.3,170.2 L 230.3,170.5 L 230.3,170.7 L 230.4,170.8 L 230.5,170.8 L 230.5,170.8 L 230.6,171.0 L 230.7,171.1 L 230.7,171.2 L 230.6,171.3 L 230.6,171.3 L 230.6,171.4 L 230.6,171.6 L 230.6,171.7 L 230.5,171.8 L 230.6,171.9 L 230.6,172.0 L 230.4,172.2 L 230.4,172.2 L 230.4,172.4 L 230.3,172.5 L 230.3,172.6 L 230.2,172.6 L 230.2,172.6 L 230.1,172.7 L 230.1,173.0 L 230.1,173.0 L 230.0,173.1 L 230.0,173.3 L 230.1,173.3 L 230.1,173.4 L 230.1,173.4 L 230.1,173.5 L 230.1,173.6 L 230.1,173.7 L 230.2,173.7 L 230.2,173.8 L 230.3,174.0 L 230.4,174.1 L 230.3,174.2 L 230.3,174.3 L 230.1,174.5 L 230.1,174.6 L 229.9,174.8 L 229.9,175.0 L 230.0,175.2 L 230.1,175.3 L 230.1,175.4 L 230.1,175.4 L 230.0,175.6 L 229.9,175.7 L 229.8,175.9 L 230.2,176.4 L 230.3,176.6 L 230.3,176.7 L 230.1,176.9 L 229.7,177.0 L 229.5,177.1 L 229.1,177.2 L 229.0,177.2 L 228.9,177.1 L 228.9,177.0 L 228.8,177.0 L 228.8,177.0 L 228.7,177.0 L 228.6,177.2 L 228.5,177.3 L 228.5,177.4 L 228.5,177.5 L 228.4,177.5 L 228.4,177.5 L 228.4,177.4 L 228.5,177.4 L 228.5,177.3 L 228.5,177.2 L 228.5,177.1 L 228.7,177.0 L 228.7,176.9 L 228.7,176.7 L 228.7,176.5 L 228.6,176.7 L 228.6,176.8 L 228.5,176.8 L 228.4,177.1 L 228.4,177.2 L 228.2,177.2 L 228.0,177.3 L 227.8,177.2 L 227.7,177.2 L 227.5,177.1 L 227.5,177.1 L 227.4,177.0 L 227.3,176.8 L 227.3,176.8 L 227.4,176.7 L 227.5,176.3 L 227.6,175.9 L 227.7,175.8 L 227.6,175.6 L 227.6,175.6 L 227.6,175.5 L 227.5,175.4 L 227.4,175.2 L 227.4,175.0 L 227.3,174.8 L 227.1,174.6 L 227.1,174.5 L 227.0,174.4 L 227.0,174.3 L 226.9,174.3 L 226.7,174.0 L 226.6,174.0 L 226.5,174.0 L 226.5,173.9 L 226.5,173.9 L 226.4,173.9 L 226.3,173.8 L 226.2,173.6 L 226.1,173.5 L 226.1,173.5 L 225.9,173.4 L 225.9,173.2 L 225.8,173.2 L 225.8,173.2 L 225.8,173.1 L 225.7,173.0 L 225.6,172.9 L 225.5,172.9 L 225.4,173.0 L 225.3,173.0 L 225.2,173.1 L 225.1,173.1 L 225.0,173.2 L 225.0,173.2 L 225.0,173.1 L 224.9,173.1 L 224.8,173.3 L 224.8,173.3 L 224.8,173.3 L 224.8,173.2 L 224.8,173.2 L 224.7,173.2 L 224.6,173.3 L 224.5,173.5 L 224.4,173.7 L 224.4,173.7 L 224.4,173.7 L 224.3,173.7 L 224.2,173.8 L 224.2,173.8 L 224.1,173.8 L 224.1,173.8 L 224.0,173.8 L 224.0,173.7 L 223.9,173.7 L 223.8,173.8 L 223.6,174.0 L 223.4,174.1 L 223.4,174.2 L 223.2,174.2 L 223.0,174.5 L 222.9,174.7 L 222.8,175.0 L 222.6,175.3 L 222.5,175.3 L 222.3,175.5 L 222.3,175.6 L 222.2,175.6 L 222.2,175.7 L 222.2,175.7 L 222.0,176.1 L 221.8,176.5 L 221.7,176.7 L 221.7,176.7 L 221.6,177.0 L 221.6,177.0 L 221.6,177.1 L 221.6,177.1 L 221.6,177.2 L 221.6,177.2 L 221.5,177.3 L 221.5,177.6 L 221.5,177.9 L 221.6,178.0 L 221.6,178.6 L 221.6,178.8 L 221.5,179.0 L 221.4,179.2 L 221.3,179.3 L 221.2,179.4 L 221.1,179.4 L 221.0,179.5 L 220.9,179.7 L 220.8,180.0 L 220.8,180.1 L 220.7,180.2 L 220.7,180.3 L 220.7,180.3 L 220.6,180.6 L 220.6,180.8 L 220.6,180.8 L 220.7,180.9 L 220.7,181.0 L 220.8,181.4 L 220.9,181.5 L 221.0,181.7 L 221.1,181.9 L 221.1,182.0 L 221.0,182.3 L 221.0,182.6 L 221.0,183.2 L 221.1,183.4 L 221.0,183.5 L 221.0,183.7 L 221.0,183.8 L 221.2,183.9 L 221.2,183.9 L 221.2,184.0 L 221.2,184.1 L 221.1,184.3 L 221.1,184.7 L 221.1,184.9 L 221.2,185.0 L 221.2,185.1 L 221.4,185.1 L 221.4,185.1 L 221.5,185.2 L 221.7,185.1 L 222.0,185.1 L 222.3,185.2 L 222.4,185.2 L 222.7,185.3 L 222.9,185.4 L 223.0,185.5 L 223.1,185.5 L 223.2,185.7 L 223.4,185.8 L 223.6,186.1 L 223.7,186.4 L 223.9,186.9 L 224.0,187.1 L 224.0,187.5 L 224.0,187.8 L 224.0,188.0 L 224.0,188.1 L 223.9,188.3 L 223.8,188.5 L 223.7,188.6 L 223.6,188.6 L 223.5,188.6 L 223.5,188.6 L 223.3,188.7 L 223.2,188.8 L 223.2,188.9 L 223.1,189.1 L 223.0,189.4 L 222.8,189.7 L 222.8,189.9 L 222.7,190.2 L 222.6,190.3 L 222.4,190.5 L 222.4,190.6 L 222.2,190.8 L 222.1,190.9 L 221.9,191.1 L 221.8,191.1 L 221.8,191.1 L 221.8,191.3 L 221.7,191.4 L 221.6,191.5 L 221.5,191.7 L 221.5,191.9 L 221.4,192.2 L 221.4,192.4 L 221.4,192.4 L 221.4,192.6 L 221.3,192.8 L 221.4,193.0 L 221.4,193.1 L 221.4,193.4 L 221.4,193.5 L 221.5,193.9 L 221.5,194.1 L 221.6,194.1 L 221.8,194.2 L 222.2,194.7 L 222.3,194.9 L 222.4,195.0 L 222.4,195.6 L 222.4,195.7 L 222.4,195.8 L 222.3,196.1 L 222.2,196.2 L 222.1,196.7 L 222.1,196.8 L 222.0,196.8 L 222.0,197.3 L 222.0,197.4 L 222.0,197.5 L 222.0,197.6 L 221.9,197.9 L 221.9,198.3 L 221.9,198.4 L 221.9,198.4 L 221.9,198.5 L 221.9,198.6 L 221.9,198.6 L 221.9,198.7 L 221.9,199.0 L 222.0,199.0 L 222.0,199.1 L 222.0,199.2 L 222.1,199.3 L 222.1,199.4 L 222.1,199.5 L 222.1,199.7 L 222.0,199.7 L 222.0,199.7 L 222.0,199.9 L 222.0,200.0 L 222.0,200.0 L 222.0,200.2 L 222.1,200.3 L 222.1,200.4 L 222.1,200.4 L 222.1,200.5 L 222.1,200.5 L 222.1,200.6 L 222.2,200.7 L 222.2,200.8 L 222.2,200.9 L 222.2,200.9 L 222.3,201.0 L 222.3,201.1 L 222.3,201.1 L 222.3,201.1 L 222.3,201.1 L 222.3,201.1 L 222.3,201.2 L 222.3,201.2 L 222.4,201.4 L 222.5,201.6 L 222.5,202.1 L 222.5,202.3 L 222.5,202.5 L 222.4,202.7 L 222.4,202.8 L 222.4,202.8 L 222.4,203.0 L 222.3,203.0 L 222.3,203.1 L 222.3,203.1 L 222.2,203.2 L 222.3,203.3 L 222.3,203.4 L 222.2,203.4 L 222.2,203.5 L 222.2,203.5 L 222.2,203.6 L 222.1,203.8 L 222.1,203.8 L 222.1,203.8 L 222.1,203.9 L 222.1,203.9 L 222.1,204.0 L 222.0,204.0 L 222.0,204.1 L 222.0,204.2 L 222.0,204.3 L 222.0,204.4 L 222.0,204.4 L 221.9,204.5 L 221.9,204.6 L 221.9,204.7 L 221.8,204.9 L 221.8,204.9 L 221.8,205.0 L 221.8,205.0 L 221.7,205.1 L 221.7,205.1 L 221.7,205.1 L 221.7,205.2 L 221.7,205.2 L 221.7,205.3 L 221.7,205.4 L 221.6,205.4 L 221.6,205.5 L 221.5,205.6 L 221.5,205.7 L 221.5,205.8 L 221.5,206.0 L 221.3,206.6 L 221.3,206.7 L 221.2,206.9 L 221.2,206.9 L 221.2,207.1 L 221.1,207.2 L 220.9,207.4 L 220.9,207.6 L 220.9,207.6 L 220.7,207.8 L 220.7,208.0 L 220.6,208.1 L 220.6,208.2 L 220.6,208.3 L 220.6,208.4 L 220.6,208.4 L 220.5,208.4 L 220.6,208.4 L 220.6,208.5 L 220.5,208.5 L 220.5,208.6 L 220.5,208.7 L 220.4,208.8 L 220.4,208.8 L 220.5,208.9 L 220.5,209.0 L 220.4,209.0 L 220.4,209.1 L 220.4,209.1 L 220.4,209.2 L 220.4,209.2 L 220.3,209.3 L 220.3,209.3 L 220.4,209.3 L 220.3,209.5 L 220.3,209.5 L 220.3,209.5 L 220.4,209.6 L 220.4,209.7 L 220.3,209.7 L 220.3,209.7 L 220.3,209.7 L 220.2,209.7 L 220.1,210.1 L 220.1,210.3 L 220.0,210.6 L 220.0,211.1 L 220.0,211.2 L 220.0,211.4 L 219.9,211.5 L 219.8,211.7 L 219.9,211.8 L 219.8,212.0 L 219.7,212.2 L 219.7,212.6 L 219.5,213.1 L 219.5,213.4 L 219.4,213.6 L 219.3,214.0 L 219.2,214.2 L 219.2,214.7 L 219.1,215.2 L 219.1,215.4 L 219.2,215.7 L 219.3,216.2 L 219.3,216.4 L 219.3,216.5 L 219.3,216.6 L 219.3,216.6 L 219.3,216.8 L 219.4,216.9 L 219.4,216.9 L 219.4,217.0 L 219.4,217.3 L 219.5,217.4 L 219.6,217.6 L 219.6,217.8 L 219.7,218.0 L 219.7,218.0 L 219.8,218.3 L 219.9,218.3 L 219.9,218.4 L 220.0,218.5 L 220.0,218.6 L 220.0,218.7 L 220.1,219.0 L 220.1,219.0 L 220.1,219.0 L 220.2,219.1 L 220.2,219.2 L 220.3,219.3 L 220.3,219.3 L 220.5,219.5 L 220.5,219.5 L 220.5,219.6 L 220.5,219.7 L 220.6,219.8 L 220.6,219.8 L 220.7,219.9 L 220.9,220.3 L 221.0,220.5 L 221.1,220.8 L 221.3,221.1 L 221.4,221.1 L 221.5,221.3 L 221.5,221.6 L 221.6,221.7 L 221.7,221.7 L 221.8,221.7 L 222.0,221.7 L 222.1,221.7 L 222.2,221.8 L 222.2,222.0 L 222.2,222.2 L 222.2,222.4 L 222.3,222.5 L 222.3,222.5 L 222.2,222.6 L 222.2,222.7 L 222.0,223.2 L 222.0,223.5 L 221.9,223.8 L 221.8,223.9 L 221.6,224.2 L 221.5,224.6 L 221.2,225.1 L 221.2,225.1 L 220.9,225.5 L 220.6,225.8 L 220.3,226.0 L 219.9,226.2 L 219.8,226.3 L 219.6,226.3 L 219.4,226.2 L 219.3,226.1 L 219.3,225.8 L 219.2,225.8 L 219.2,225.7 L 219.1,225.6 L 219.1,225.7 L 219.0,225.9 L 219.1,225.9 L 219.2,226.0 L 219.2,226.1 L 219.2,226.3 L 219.2,226.3 L 219.2,226.4 L 219.3,226.5 L 219.4,226.6 L 219.4,226.7 L 219.4,227.0 L 219.2,227.4 L 219.1,227.6 L 219.0,227.7 L 218.8,228.1 L 218.6,228.3 L 218.4,228.5 L 218.2,228.8 L 218.1,228.8 L 218.0,228.9 L 218.0,229.0 L 217.9,229.0 L 217.9,229.0 L 217.8,229.1 L 217.8,229.2 L 217.8,229.2 L 217.7,229.2 L 217.7,229.2 L 217.7,229.2 L 217.7,229.3 L 217.7,229.3 L 217.6,229.3 L 217.5,229.3 L 217.5,229.2 L 217.4,229.1 L 217.4,229.1 L 217.4,229.1 L 217.3,229.3 L 217.3,229.3 L 217.4,229.4 L 217.4,229.4 L 217.5,229.6 L 217.5,229.6 L 217.4,229.7 L 217.1,230.1 L 217.0,230.4 L 217.0,230.5 L 217.0,230.5 L 216.9,230.6 L 216.8,230.7 L 216.7,230.8 L 216.6,230.9 L 216.5,231.1 L 216.4,231.2 L 216.4,231.3 L 216.3,231.4 L 216.3,231.7 L 216.2,231.9 L 216.0,232.0 L 216.0,232.0 L 215.9,232.0 L 215.8,232.0 L 215.7,231.8 L 215.7,232.0 L 215.7,232.0 L 215.8,232.0 L 215.8,232.0 L 215.8,232.0 L 215.9,232.2 L 216.0,232.4 L 216.0,232.5 L 216.0,232.6 L 215.9,232.7 L 215.8,232.7 L 215.7,232.6 L 215.7,232.6 L 215.7,232.7 L 215.8,232.7 L 215.8,232.8 L 215.9,232.9 L 215.9,233.1 L 215.8,233.3 L 215.8,233.4 L 215.8,233.6 L 215.9,233.7 L 215.9,233.8 L 215.9,233.9 L 215.7,234.3 L 215.6,234.5 L 215.4,234.6 L 215.4,234.7 L 215.3,234.8 L 215.3,234.9 L 215.3,234.9 L 215.5,235.0 L 215.6,235.1 L 215.6,235.3 L 215.6,235.5 L 215.5,235.7 L 215.4,236.0 L 215.3,236.0 L 215.2,236.1 L 214.9,236.5 L 214.9,236.6 L 214.7,236.6 L 214.6,236.8 L 214.6,236.9 L 214.4,237.0 L 214.3,237.1 L 214.3,237.1 L 214.1,237.5 L 213.9,237.8 L 213.8,237.9 L 213.6,237.9 L 213.5,237.9 L 213.5,237.9 L 213.5,237.8 L 213.5,237.8 L 213.5,237.7 L 213.4,237.7 L 213.2,237.9 L 213.1,238.0 L 213.1,238.0 L 213.0,238.2 L 213.0,238.2 L 213.0,238.3 L 213.2,238.2 L 213.2,238.3 L 213.3,238.4 L 213.3,238.5 L 213.2,238.8 L 213.1,238.9 L 213.1,239.0 L 213.1,239.0 L 212.9,239.2 L 212.8,239.2 L 212.9,239.3 L 212.8,239.4 L 212.8,239.5 L 212.8,239.5 L 212.6,239.7 L 212.3,239.9 L 212.3,239.9 L 212.0,240.1 L 211.8,240.2 L 211.6,240.3 L 211.5,240.4 L 211.5,240.3 L 211.2,240.3 L 211.1,240.3 L 211.1,240.2 L 211.1,240.1 L 211.1,240.1 L 210.9,240.0 L 210.9,239.9 L 210.8,239.9 L 210.7,239.8 L 210.6,239.8 L 210.3,239.9 L 210.2,240.0 L 210.1,239.9 L 210.1,239.9 L 210.0,239.9 L 209.8,240.0 L 209.7,240.1 L 209.3,240.3 L 209.2,240.3 L 209.0,240.4 L 208.9,240.5 L 208.8,240.6 L 208.8,240.7 L 208.7,240.8 L 208.6,240.9 L 208.6,241.0 L 208.2,241.5 L 208.2,241.5 L 208.2,241.7 L 208.0,242.0 L 207.9,242.3 L 207.8,242.5 L 207.7,242.7 L 207.8,242.9 L 207.8,243.1 L 207.5,243.4 L 207.4,243.6 L 207.2,243.9 L 207.2,244.0 L 206.9,244.5 L 206.9,244.5 L 206.7,244.6 L 206.7,244.8 L 206.6,244.9 L 206.6,245.0 L 206.5,245.2 L 206.4,245.3 L 206.2,245.9 L 206.2,246.0 L 206.0,246.1 L 206.0,246.3 L 205.8,246.5 L 205.7,246.8 L 205.6,247.0 L 205.5,247.2 L 205.4,247.4 L 205.4,247.5 L 205.4,247.6 L 205.3,247.9 L 205.3,248.0 L 205.3,248.2 L 205.3,248.4 L 205.2,248.6 L 205.1,248.8 L 205.1,248.9 L 204.9,249.4 L 204.7,249.8 L 204.6,250.0 L 204.6,250.0 L 204.5,250.0 L 204.4,250.4 L 204.4,250.5 L 204.2,250.8 L 204.2,250.9 L 204.2,251.2 L 204.2,251.3 L 204.0,251.8 L 203.7,252.2 L 203.6,252.4 L 203.5,252.6 L 203.5,252.6 L 203.4,252.7 L 203.4,252.8 L 203.4,252.8 L 203.4,252.9 L 203.4,253.0 L 203.3,253.2 L 203.3,253.5 L 203.2,253.8 L 203.2,254.0 L 203.1,254.2 L 202.9,254.5 L 202.9,254.6 L 202.9,254.6 L 202.7,254.9 L 202.6,255.0 L 202.5,255.2 L 202.3,255.5 L 202.2,255.6 L 202.1,255.7 L 201.9,255.8 L 201.8,255.9 L 201.8,255.9 L 201.7,255.8 L 201.7,255.7 L 201.6,255.7 L 201.6,255.7 L 201.5,255.9 L 201.4,256.1 L 201.5,256.2 L 201.4,256.4 L 201.5,256.6 L 201.4,256.7 L 201.4,256.8 L 201.4,256.9 L 201.3,257.2 L 201.3,257.4 L 201.4,257.5 L 201.4,257.7 L 201.3,257.8 L 201.3,257.9 L 201.3,258.2 L 201.4,258.2 L 201.4,258.3 L 201.4,258.5 L 201.4,258.6 L 201.3,258.7 L 201.3,258.8 L 201.1,259.1 L 200.9,259.4 L 200.8,259.5 L 200.7,259.5 L 200.5,259.6 L 200.5,259.5 L 200.5,259.5 L 200.5,259.4 L 200.4,259.4 L 200.4,259.4 L 200.3,259.6 L 200.2,259.9 L 200.2,260.1 L 200.2,260.2 L 200.2,260.3 L 200.2,260.3 L 200.2,260.5 L 200.2,260.6 L 200.1,261.0 L 200.1,261.1 L 200.1,261.1 L 200.1,261.2 L 200.1,261.3 L 200.1,261.4 L 200.0,261.5 L 199.9,261.7 L 199.9,261.7 L 199.9,261.9 L 200.0,262.0 L 199.9,262.1 L 199.9,262.2 L 199.9,262.2 L 199.8,262.3 L 199.7,262.4 L 199.5,262.6 L 199.3,262.7 L 199.0,262.7 L 198.8,262.7 L 198.8,262.7 L 198.8,262.4 L 198.8,262.4 L 198.8,262.3 L 198.7,262.3 L 198.6,262.2 L 198.6,262.2 L 198.5,262.3 L 198.4,262.3 L 198.3,262.5 L 198.2,262.6 L 198.2,262.7 L 198.1,262.8 L 198.1,262.9 L 198.1,263.0 L 198.1,263.1 L 198.1,263.2 L 197.9,263.3 L 197.9,263.4 L 197.9,263.5 L 197.9,263.5 L 197.8,263.6 L 197.8,263.7 L 197.8,263.7 L 197.8,263.9 L 197.7,264.0 L 197.8,264.0 L 197.8,264.1 L 197.7,264.4 L 197.6,264.5 L 197.7,264.7 L 197.7,264.7 L 197.7,264.7 L 197.8,264.9 L 197.7,265.0 L 197.7,265.2 L 197.8,265.5 L 197.9,265.6 L 197.9,265.8 L 197.8,266.0 L 197.7,266.1 L 197.6,266.3 L 197.5,266.5 L 197.3,266.6 L 197.2,266.7 L 197.1,266.7 L 197.0,266.8 L 197.0,266.7 L 196.9,266.5 L 196.9,266.5 L 196.9,266.5 L 196.8,266.7 L 196.9,266.8 L 196.9,266.9 L 196.8,267.0 L 196.8,267.0 L 196.8,267.1 L 196.8,267.2 L 196.7,267.4 L 196.6,267.5 L 196.6,267.8 L 196.7,267.8 L 196.7,267.8 L 196.6,268.0 L 196.5,268.1 L 196.3,268.2 L 196.2,268.2 L 196.1,268.3 L 195.9,268.3 L 195.8,268.2 L 195.7,268.1 L 195.7,268.0 L 195.8,267.9 L 195.6,267.8 L 195.6,267.8 L 195.6,267.8 L 195.5,267.8 L 195.5,267.9 L 195.5,267.9 L 195.5,267.9 L 195.5,268.1 L 195.5,268.2 L 195.5,268.2 L 195.6,268.3 L 195.5,268.5 L 195.5,268.6 L 195.6,268.7 L 195.6,268.7 L 195.6,268.8 L 195.6,268.9 L 195.4,269.1 L 195.0,269.2 L 194.9,269.1 L 194.8,269.0 L 194.8,268.9 L 194.8,268.8 L 194.7,268.7 L 194.7,268.8 L 194.7,268.9 L 194.7,269.0 L 194.7,269.1 L 194.7,269.1 L 194.9,269.1 L 195.0,269.2 L 195.0,269.3 L 194.9,269.5 L 194.9,269.6 L 194.8,269.6 L 194.8,269.7 L 194.8,269.7 L 194.8,269.8 L 194.7,270.0 L 194.5,270.3 L 194.4,270.4 L 194.3,270.4 L 194.2,270.3 L 194.2,270.3 L 194.1,270.5 L 193.9,270.5 L 193.8,270.5 L 193.7,270.5 L 193.7,270.4 L 193.7,270.3 L 193.6,270.3 L 193.6,270.3 L 193.5,270.3 L 193.4,270.4 L 193.2,270.6 L 193.1,270.6 L 193.1,270.7 L 193.1,270.7 L 193.0,270.8 L 192.9,271.0 L 192.8,271.2 L 192.7,271.4 L 192.7,271.5 L 192.4,271.7 L 192.4,271.8 L 192.3,271.8 L 192.1,272.0 L 191.9,272.1 L 191.8,272.3 L 191.5,272.7 L 191.4,272.9 L 191.3,273.0 L 191.2,273.2 L 191.0,273.3 L 190.9,273.4 L 190.8,273.7 L 190.7,273.8 L 190.6,274.1 L 190.4,274.2 L 190.2,274.4 L 190.1,274.5 L 190.1,274.7 L 189.8,274.9 L 189.8,274.9 L 189.6,275.0 L 189.5,275.0 L 189.4,275.1 L 189.4,275.3 L 189.4,275.6 L 189.3,275.8 L 189.2,276.0 L 189.1,276.2 L 188.8,277.0 L 188.7,277.4 L 188.6,277.5 L 188.6,277.5 L 188.6,277.6 L 188.5,277.9 L 188.5,278.0 L 188.6,278.2 L 188.6,278.5 L 188.6,278.8 L 188.9,279.1 L 189.0,279.3 L 189.1,279.6 L 189.2,279.7 L 189.2,279.8 L 189.2,280.1 L 189.2,280.2 L 189.2,280.4 L 189.1,280.7 L 189.1,280.9 L 189.1,281.3 L 189.0,281.4 L 189.0,281.8 L 188.9,282.1 L 188.9,282.2 L 188.8,282.9 L 188.8,283.1 L 188.8,283.3 L 188.8,283.5 L 188.7,283.7 L 188.7,283.9 L 188.7,284.0 L 188.7,284.1 L 188.8,284.3 L 188.8,284.4 L 188.8,284.7 L 188.6,285.2 L 188.5,285.4 L 188.5,285.5 L 188.3,286.0 L 188.2,286.5 L 188.1,286.9 L 188.0,287.0 L 187.9,287.1 L 187.9,287.3 L 187.9,287.5 L 187.9,287.6 L 187.9,287.7 L 188.0,287.8 L 187.9,288.1 L 187.9,288.3 L 187.7,288.5 L 187.6,288.7 L 187.6,288.8 L 187.6,289.0 L 187.5,289.1 L 187.2,289.6 L 187.0,289.7 L 186.8,289.9 L 186.7,290.1 L 186.6,290.2 L 186.5,290.2 L 186.5,290.3 L 186.4,290.4 L 186.3,290.5 L 186.1,290.5 L 186.0,290.6 L 185.9,290.7 L 185.8,290.7 L 185.8,290.8 L 185.7,290.8 L 185.8,291.0 L 185.8,291.1 L 185.7,291.1 L 185.6,291.3 L 185.4,291.5 L 185.4,291.5 L 185.3,291.5 L 185.1,291.7 L 184.9,291.7 L 184.8,291.8 L 184.7,291.9 L 184.6,291.8 L 184.6,291.6 L 184.6,291.6 L 184.5,291.5 L 184.5,291.5 L 184.4,291.6 L 184.4,291.8 L 184.4,292.1 L 184.3,292.2 L 184.3,292.4 L 184.2,292.5 L 184.2,292.7 L 184.3,293.0 L 184.3,293.2 L 184.3,293.5 L 184.3,293.8 L 184.4,294.1 L 184.5,294.3 L 184.6,294.5 L 184.7,294.7 L 184.8,295.0 L 184.9,295.3 L 185.0,295.4 L 185.1,295.6 L 185.3,295.9 L 185.3,296.2 L 185.3,296.4 L 185.4,296.6 L 185.4,297.1 L 185.3,297.4 L 185.3,297.5 L 185.4,297.6 L 185.4,297.7 L 185.5,297.7 L 185.5,297.8 L 185.6,297.8 L 185.7,297.7 L 185.8,297.7 L 185.8,297.7 L 185.8,297.7 L 185.8,297.6 L 185.8,297.6 L 185.8,297.5 L 185.8,297.5 L 185.8,297.5 L 185.9,297.4 L 185.9,297.4 L 185.9,297.4 L 186.0,297.4 L 186.0,297.4 L 186.0,297.4 L 185.9,297.5 L 185.9,297.5 L 185.9,297.6 L 185.9,297.7 L 185.9,297.8 L 185.9,297.8 L 185.9,297.8 L 185.9,297.9 L 185.9,298.0 L 185.8,298.0 L 185.8,298.1 L 185.8,298.3 L 185.8,298.4 L 185.7,298.5 L 185.7,298.5 L 185.7,298.6 L 185.6,298.6 L 185.5,298.6 L 185.4,298.6 L 185.3,298.7 L 185.3,298.8 L 185.3,298.8 L 185.3,298.9 L 185.4,299.0 L 185.5,299.1 L 185.5,299.2 L 185.5,299.4 L 185.4,299.5 L 185.2,299.6 L 185.1,299.7 L 185.0,299.8 L 184.8,299.8 L 184.8,299.8 L 184.7,299.8 L 184.6,299.5 L 184.6,299.4 L 184.5,299.4 L 184.4,299.4 L 184.3,299.5 L 184.2,299.7 L 184.2,299.9 L 184.2,300.2 L 184.1,300.3 L 184.1,300.4 L 184.0,300.6 L 183.8,300.6 L 183.7,300.9 L 183.6,300.9 L 183.5,301.0 L 183.4,301.1 L 183.4,301.2 L 183.3,301.3 L 183.2,301.4 L 183.2,301.5 L 183.2,301.6 L 183.1,301.8 L 183.2,302.0 L 183.1,302.2 L 183.0,302.5 L 182.9,302.7 L 182.9,302.8 L 182.8,302.9 L 182.8,302.9 L 182.8,303.0 L 182.7,302.9 L 182.7,302.9 L 182.7,302.9 L 182.7,303.0 L 182.7,303.0 L 182.8,303.1 L 182.8,303.2 L 182.8,303.4 L 182.7,303.6 L 182.6,303.8 L 182.5,303.9 L 182.4,303.9 L 182.4,304.0 L 182.4,304.1 L 182.2,304.2 L 182.1,304.2 L 182.0,304.3 L 182.0,304.4 L 181.9,304.4 L 182.0,304.6 L 182.1,304.9 L 182.1,305.0 L 182.1,305.2 L 182.1,305.4 L 182.0,305.4 L 182.0,305.7 L 182.1,305.8 L 182.1,306.2 L 182.1,306.7 L 182.1,306.8 L 182.1,306.9 L 182.1,307.1 L 182.1,307.2 L 182.2,307.8 L 182.1,307.9 L 182.0,308.1 L 182.0,308.3 L 181.8,308.7 L 181.8,308.8 L 181.7,309.0 L 181.6,309.2 L 181.3,309.6 L 181.1,309.8 L 180.8,310.0 L 180.3,310.4 L 180.1,310.6 L 179.9,310.7 L 179.7,310.8 L 179.6,310.7 L 179.6,310.7 L 179.6,310.6 L 179.6,310.6 L 179.5,310.6 L 179.6,310.7 L 179.6,310.7 L 179.5,310.8 L 179.5,310.8 L 179.4,310.8 L 179.4,310.8 L 179.4,310.9 L 179.5,311.0 L 179.5,311.1 L 179.4,311.2 L 179.3,311.3 L 179.1,311.3 L 179.0,311.3 L 178.8,311.2 L 178.8,311.1 L 178.8,310.9 L 178.8,310.7 L 178.5,310.7 L 178.5,310.7 L 178.5,310.8 L 178.4,310.7 L 178.3,310.8 L 178.3,310.8 L 178.2,310.9 L 178.1,311.1 L 178.1,311.4 L 178.0,311.8 L 177.9,312.1 L 177.8,312.3 L 177.7,312.4 L 177.7,312.5 L 177.7,312.6 L 177.7,312.7 L 177.7,312.8 L 177.6,313.0 L 177.4,313.2 L 177.4,313.4 L 177.4,313.5 L 177.4,313.6 L 177.7,313.7 L 177.9,313.7 L 178.0,313.7 L 178.1,313.7 L 178.4,313.5 L 178.6,313.6 L 178.8,313.7 L 178.9,313.8 L 178.9,313.9 L 179.0,314.0 L 179.0,314.0 L 179.1,313.9 L 179.1,313.8 L 179.1,313.7 L 179.2,313.7 L 179.4,313.7 L 179.5,313.7 L 179.6,313.7 L 179.8,313.8 L 179.8,313.9 L 179.8,314.0 L 179.8,314.2 L 179.7,314.4 L 179.7,314.5 L 179.7,314.6 L 179.6,314.7 L 179.6,315.0 L 179.6,315.2 L 179.6,315.3 L 179.5,315.3 L 179.5,315.5 L 179.6,315.5 L 179.6,315.6 L 179.5,315.7 L 179.6,315.8 L 179.5,315.9 L 179.6,316.1 L 179.5,316.1 L 179.6,316.2 L 179.6,316.3 L 179.8,316.3 L 179.9,316.4 L 180.0,316.4 L 180.0,316.5 L 180.3,316.5 L 180.6,316.6 L 180.7,316.7 L 180.8,316.8 L 180.9,316.9 L 181.0,317.0 L 181.0,317.1 L 181.0,317.1 L 180.9,317.0 L 180.8,317.0 L 180.8,316.9 L 180.7,317.0 L 180.5,317.1 L 180.4,317.2 L 180.2,317.4 L 180.1,317.6 L 180.0,317.6 L 179.7,317.8 L 179.7,317.8 L 179.5,317.8 L 179.4,317.8 L 179.4,317.8 L 179.3,317.8 L 179.3,318.0 L 179.2,318.1 L 179.1,318.4 L 179.0,318.5 L 179.0,318.6 L 178.9,318.8 L 178.9,319.1 L 179.0,319.3 L 179.1,319.4 L 179.1,319.3 L 179.2,319.3 L 179.4,319.2 L 179.5,319.3 L 179.6,319.4 L 179.4,319.4 L 179.4,319.5 L 179.4,319.7 L 179.4,319.9 L 179.4,320.1 L 179.3,320.2 L 179.1,320.4 L 178.9,320.6 L 178.8,320.6 L 178.7,320.7 L 178.7,320.7 L 178.6,320.7 L 178.5,320.7 L 178.5,320.8 L 178.4,320.8 L 178.1,320.8 L 177.9,320.8 L 177.8,320.8 L 177.8,320.8 L 177.8,320.6 L 177.7,320.6 L 177.7,320.5 L 177.6,320.5 L 177.6,320.3 L 177.5,320.3 L 177.5,320.1 L 177.5,320.0 L 177.4,319.8 L 177.4,319.8 L 177.3,319.8 L 177.2,319.8 L 176.9,319.8 L 176.7,319.8 L 176.5,319.7 L 176.4,319.7 L 176.3,319.6 L 176.3,319.6 L 176.2,319.5 L 176.1,319.4 L 176.1,319.1 L 176.0,319.0 L 175.9,318.8 L 176.0,318.5 L 175.9,318.0 L 175.9,317.6 L 175.8,317.1 L 175.7,316.9 L 175.7,316.9 L 175.6,316.9 L 175.4,316.8 L 175.3,316.7 L 175.2,316.7 L 175.1,316.7 L 175.0,316.7 L 175.0,316.6 L 175.1,316.4 L 175.1,316.4 L 175.1,316.4 L 175.0,316.3 L 175.0,316.3 L 174.9,316.4 L 174.8,316.3 L 174.8,316.1 L 174.7,316.1 L 174.5,316.1 L 174.4,316.1 L 174.3,316.1 L 174.2,316.0 L 174.1,316.0 L 173.9,316.2 L 173.9,316.2 L 173.9,316.3 L 173.9,316.4 L 173.7,316.4 L 173.7,316.4 L 173.6,316.3 L 173.7,316.1 L 173.6,316.1 L 173.6,316.2 L 173.4,316.4 L 173.3,316.5 L 173.2,316.6 L 173.2,316.7 L 173.1,316.8 L 173.0,317.1 L 173.0,317.2 L 172.9,317.3 L 172.9,317.4 L 172.9,317.5 L 172.8,317.7 L 172.7,318.0 L 172.6,318.0 L 172.6,318.2 L 172.5,318.3 L 172.5,318.6 L 172.5,318.9 L 172.5,319.0 L 172.5,319.1 L 172.7,319.2 L 172.8,319.4 L 172.8,319.4 L 173.0,319.8 L 173.2,320.2 L 173.2,320.5 L 173.2,320.6 L 173.2,320.9 L 173.2,321.1 L 173.3,321.2 L 173.4,321.5 L 173.5,321.7 L 173.6,321.9 L 173.7,322.2 L 173.8,322.9 L 173.8,323.2 L 173.8,323.3 L 173.7,323.7 L 173.6,323.8 L 173.6,323.9 L 173.6,324.0 L 173.6,324.0 L 173.6,324.2 L 173.6,324.2 L 173.7,324.3 L 173.8,324.3 L 173.8,324.4 L 173.8,324.3 L 173.9,324.2 L 174.0,324.1 L 174.1,324.0 L 174.2,323.9 L 174.3,323.9 L 174.3,323.8 L 174.4,323.8 L 174.6,324.0 L 174.7,323.9 L 174.7,324.0 L 174.7,324.0 L 174.7,324.0 L 174.7,324.1 L 174.6,324.2 L 174.6,324.2 L 174.4,324.2 L 174.3,324.2 L 174.3,324.2 L 174.2,324.2 L 174.1,324.3 L 174.1,324.3 L 174.1,324.3 L 174.0,324.4 L 174.0,324.4 L 173.9,324.5 L 173.9,324.7 L 173.8,324.9 L 173.7,324.9 L 173.6,324.9 L 173.4,324.8 L 173.4,324.7 L 173.5,324.6 L 173.4,324.5 L 173.4,324.4 L 173.3,324.4 L 173.3,324.4 L 173.2,324.4 L 173.2,324.4 L 173.1,324.4 L 173.1,324.4 L 173.0,324.5 L 173.0,324.5 L 172.9,324.6 L 172.8,324.7 L 172.7,324.7 L 172.6,324.6 L 172.5,324.6 L 172.5,324.7 L 172.4,324.8 L 172.4,325.0 L 172.3,325.1 L 172.2,325.4 L 172.1,325.5 L 172.0,325.6 L 171.9,325.6 L 171.9,325.8 L 171.8,325.9 L 171.7,326.1 L 171.6,326.2 L 171.5,326.3 L 171.4,326.4 L 171.4,326.5 L 171.3,326.5 L 171.3,326.6 L 171.2,326.6 L 171.2,326.7 L 171.1,326.8 L 171.1,326.9 L 171.2,327.2 L 171.1,327.3 L 171.0,327.3 L 171.0,327.4 L 171.0,327.5 L 170.8,327.6 L 170.8,327.7 L 170.7,327.6 L 170.6,327.5 L 170.5,327.5 L 170.5,327.6 L 170.4,327.6 L 170.5,327.7 L 170.7,327.7 L 170.7,327.7 L 170.7,327.7 L 170.8,327.9 L 170.9,328.0 L 171.0,328.1 L 170.9,328.5 L 170.9,328.6 L 170.8,328.7 L 170.7,328.9 L 170.7,328.9 L 170.6,328.9 L 170.5,328.9 L 170.5,329.1 L 170.5,329.2 L 170.6,329.3 L 170.8,329.5 L 170.9,329.5 L 171.0,329.9 L 171.0,330.0 L 171.1,330.0 L 171.0,330.1 L 171.0,330.2 L 170.9,330.2 L 170.8,330.2 L 170.7,330.3 L 170.6,330.3 L 170.6,330.3 L 170.6,330.3 L 170.7,330.3 L 170.7,330.3 L 170.7,330.3 L 170.7,330.4 L 170.8,330.3 L 170.8,330.3 L 170.8,330.3 L 170.8,330.3 L 170.9,330.3 L 170.9,330.3 L 171.0,330.3 L 171.0,330.3 L 171.2,330.9 L 171.2,330.9 L 171.2,331.0 L 171.1,331.2 L 170.9,331.1 L 170.9,331.1 L 170.9,331.2 L 170.9,331.3 L 171.0,331.6 L 171.0,331.7 L 170.9,331.8 L 170.8,331.9 L 170.6,332.1 L 170.5,332.1 L 170.3,331.9 L 170.2,331.8 L 170.1,331.8 L 170.1,331.9 L 170.0,331.9 L 169.8,331.7 L 169.6,331.5 L 169.5,331.3 L 169.4,331.2 L 169.3,331.1 L 169.1,330.9 L 169.0,330.8 L 168.7,330.4 L 168.6,330.3 L 168.5,330.3 L 168.5,330.3 L 168.5,330.2 L 168.4,330.2 L 168.4,330.3 L 168.2,330.5 L 168.1,330.6 L 168.0,330.5 L 168.0,330.5 L 167.9,330.5 L 167.8,330.6 L 167.8,330.6 L 167.8,330.6 L 167.8,330.7 L 167.7,330.8 L 167.6,330.8 L 167.6,330.7 L 167.5,330.7 L 167.5,330.9 L 167.5,331.0 L 167.5,331.1 L 167.4,331.2 L 167.4,331.2 L 167.3,331.3 L 167.3,331.3 L 167.3,331.4 L 167.2,331.4 L 167.2,331.6 L 167.3,331.8 L 167.4,331.9 L 167.4,332.0 L 167.2,332.4 L 167.2,332.4 L 167.1,332.5 L 167.1,332.7 L 167.0,332.8 L 167.0,333.0 L 167.0,333.3 L 167.2,333.9 L 167.3,334.1 L 167.2,334.2 L 167.2,334.2 L 167.4,334.3 L 167.6,334.5 L 167.9,334.6 L 168.2,334.9 L 168.3,335.0 L 168.4,335.3 L 168.4,335.5 L 168.3,335.7 L 168.2,335.9 L 168.1,335.9 L 168.1,335.8 L 168.0,335.8 L 167.9,335.8 L 167.8,335.9 L 167.8,335.9 L 167.8,336.0 L 167.8,336.0 L 167.7,336.0 L 167.6,336.0 L 167.5,336.0 L 167.5,336.1 L 167.5,336.2 L 167.5,336.3 L 167.5,336.3 L 167.4,336.4 L 167.3,336.5 L 167.3,336.6 L 167.3,336.6 L 167.3,336.6 L 167.2,336.6 L 167.2,336.7 L 167.3,336.7 L 167.3,336.8 L 167.3,336.9 L 167.3,337.0 L 167.4,337.1 L 167.4,337.3 L 167.4,337.4 L 167.4,337.4 L 167.3,337.4 L 167.3,337.5 L 167.4,337.6 L 167.4,337.6 L 167.4,337.7 L 167.3,337.7 L 167.3,338.0 L 167.4,338.1 L 167.5,338.2 L 167.5,338.2 L 167.5,338.4 L 167.6,338.4 L 167.6,338.5 L 167.6,338.5 L 167.6,338.6 L 167.7,338.7 L 167.7,338.7 L 167.7,338.8 L 167.9,339.0 L 168.1,339.1 L 168.2,339.2 L 168.2,339.2 L 168.4,339.3 L 168.3,339.4 L 168.4,339.5 L 168.6,339.5 L 168.6,339.5 L 168.7,339.6 L 168.7,339.8 L 168.7,340.0 L 168.7,340.1 L 168.7,340.2 L 168.6,340.4 L 168.6,340.5 L 168.6,340.6 L 168.5,340.7 L 168.4,340.7 L 168.2,340.8 L 168.1,340.8 L 168.0,340.9 L 167.7,341.1 L 167.6,341.1 L 167.6,341.1 L 167.5,341.1 L 167.5,341.2 L 167.4,341.2 L 167.3,341.3 L 167.1,341.3 L 167.0,341.4 L 166.9,341.4 L 166.8,341.5 L 166.7,341.6 L 166.5,341.7 L 166.5,341.6 L 166.4,341.6 L 166.4,341.7 L 166.4,341.8 L 166.2,341.9 L 166.1,341.9 L 166.0,341.8 L 166.0,341.8 L 165.8,342.0 L 165.7,342.2 L 165.7,342.2 L 165.6,342.3 L 165.6,342.3 L 165.5,342.4 L 165.5,342.4 L 165.4,342.4 L 165.3,342.4 L 165.3,342.5 L 165.3,342.6 L 165.2,342.7 L 165.1,342.7 L 165.1,342.8 L 165.1,342.9 L 164.9,343.1 L 164.8,343.1 L 164.7,343.2 L 164.6,343.1 L 164.6,343.2 L 164.6,343.3 L 164.5,343.3 L 164.5,343.3 L 164.4,343.3 L 164.4,343.3 L 164.4,343.3 L 164.3,343.2 L 164.2,343.2 L 164.2,343.3 L 164.2,343.4 L 164.2,343.4 L 164.2,343.5 L 164.2,343.6 L 164.2,343.8 L 164.1,343.8 L 164.0,343.9 L 164.0,343.9 L 164.0,344.0 L 164.1,344.1 L 164.1,344.2 L 164.0,344.4 L 164.0,344.7 L 164.0,344.9 L 164.0,345.2 L 163.9,345.6 L 163.9,345.8 L 163.8,345.9 L 163.8,346.0 L 163.8,346.1 L 163.8,346.3 L 163.7,346.4 L 163.6,346.6 L 163.5,346.6 L 163.5,346.6 L 163.4,346.7 L 163.4,346.8 L 163.3,347.0 L 163.2,347.1 L 163.0,347.3 L 163.0,347.3 L 163.0,347.4 L 162.9,347.5 L 162.8,347.6 L 162.7,347.6 L 162.7,347.7 L 162.6,347.9 L 162.6,347.9 L 162.7,348.1 L 162.7,348.1 L 150.1,349.4 L 150.1,349.4 L 150.0,349.1 L 150.0,349.1 L 149.9,349.2 L 149.8,349.2 L 149.8,349.1 L 149.7,348.9 L 149.6,348.8 L 149.6,348.8 L 149.5,348.8 L 149.5,348.9 L 149.3,349.2 L 149.2,349.3 L 149.2,349.4 L 149.1,349.6 L 149.1,349.6 L 149.1,349.7 L 149.1,349.8 L 149.1,350.0 L 149.0,350.2 L 149.0,350.2 L 148.8,350.5 L 148.8,350.5 L 148.6,350.5 L 148.6,350.5 L 148.6,350.6 L 148.6,350.7 L 148.5,350.7 L 148.5,350.8 L 148.4,351.1 L 148.4,351.3 L 148.4,351.3 L 148.4,351.4 L 148.4,351.4 L 136.6,354.5 L 135.4,354.8 L 135.4,354.7 L 135.6,354.5 L 135.6,354.5 L 135.6,354.5 L 135.7,354.5 L 135.7,354.4 L 135.7,354.4 L 135.6,354.4 L 135.6,354.2 L 135.7,354.0 L 135.8,353.9 L 135.9,353.8 L 135.9,353.8 L 136.0,353.7 L 136.1,353.6 L 136.1,353.5 L 136.1,353.4 L 136.0,353.2 L 136.0,353.2 L 136.0,353.1 L 135.8,353.1 L 135.7,353.1 L 135.7,352.9 L 135.7,352.8 L 135.8,352.8 L 135.9,352.7 L 135.9,352.7 L 135.9,352.6 L 135.8,352.6 L 135.7,352.6 L 135.7,352.6 L 135.7,352.7 L 135.6,352.8 L 135.5,352.6 L 135.4,352.6 L 135.3,352.7 L 135.2,352.8 L 135.0,352.8 L 134.9,352.8 L 134.5,352.9 L 134.4,352.9 L 134.3,353.0 L 134.2,352.9 L 134.1,352.8 L 134.1,352.7 L 134.1,352.5 L 134.2,352.4 L 134.3,352.4 L 134.5,352.5 L 134.6,352.5 L 134.7,352.4 L 134.7,352.3 L 134.7,352.2 L 134.8,352.1 L 134.8,352.1 L 134.9,352.1 L 135.0,352.1 L 135.0,352.1 L 134.9,352.0 L 135.0,352.0 L 135.0,352.0 L 135.1,351.9 L 135.0,351.8 L 135.0,351.7 L 134.8,351.7 L 134.7,351.7 L 134.5,352.0 L 134.4,352.1 L 134.3,352.2 L 134.1,352.1 L 133.9,352.1 L 133.8,352.2 L 133.6,352.1 L 133.5,352.1 L 133.4,352.0 L 133.3,351.9 L 133.3,351.8 L 133.1,351.8 L 133.0,351.9 L 132.8,351.9 L 132.7,351.9 L 132.4,351.7 L 132.4,351.6 L 132.3,351.6 L 132.3,351.6 L 132.3,351.6 L 132.2,351.6 L 132.1,351.5 L 132.1,351.4 L 131.8,351.2 L 131.7,351.2 L 131.6,351.2 L 131.5,351.2 L 131.3,351.2 L 131.1,351.1 L 131.1,351.1 L 130.8,351.1 L 130.6,351.2 L 130.6,351.3 L 130.4,351.4 L 130.2,351.4 L 130.2,351.4 L 130.1,351.4 L 130.0,351.5 L 130.0,351.5 L 129.9,351.5 L 129.6,351.7 L 129.5,351.8 L 129.2,352.0 L 129.2,352.0 L 129.1,352.1 L 128.9,352.3 L 128.8,352.3 L 128.7,352.4 L 128.5,352.8 L 128.4,353.0 L 128.1,353.1 L 128.1,353.2 L 127.7,353.6 L 127.6,353.8 L 127.6,353.8 L 127.6,353.9 L 127.5,354.1 L 127.4,354.2 L 127.3,354.2 L 127.2,354.2 L 127.1,354.3 L 127.0,354.4 L 127.0,354.4 L 127.0,354.6 L 126.9,354.7 L 126.8,354.7 L 126.6,354.8 L 126.5,354.8 L 126.4,355.0 L 126.3,355.0 L 126.3,355.0 L 126.2,355.1 L 126.2,355.3 L 126.1,355.5 L 126.0,355.6 L 125.9,355.7 L 125.8,355.8 L 125.8,355.9 L 125.7,356.0 L 125.6,356.0 L 125.5,356.1 L 125.4,356.2 L 125.4,356.2 L 125.3,356.3 L 125.3,356.3 L 125.2,356.3 L 125.1,356.3 L 125.0,356.4 L 125.0,356.5 L 125.1,356.5 L 125.1,356.7 L 125.1,356.8 L 125.0,356.9 L 125.0,356.9 L 124.9,357.0 L 124.4,357.4 L 124.4,357.4 L 124.3,357.5 L 124.2,357.5 L 124.2,357.5 L 124.2,357.6 L 124.1,357.6 L 124.1,357.7 L 124.0,357.7 L 123.6,358.2 L 123.5,358.4 L 123.4,358.6 L 123.3,358.6 L 123.3,358.7 L 123.0,359.0 L 122.9,359.2 L 122.5,359.6 L 122.4,359.7 L 122.3,359.7 L 122.2,359.7 L 122.2,359.7 L 122.2,359.7 L 122.0,359.7 L 121.8,359.7 L 121.8,359.7 L 121.7,359.7 L 121.6,359.7 L 121.2,359.9 L 121.1,360.0 L 121.0,360.0 L 121.0,360.0 L 120.9,360.0 L 120.9,360.0 L 120.7,359.7 L 120.7,359.6 L 120.7,359.5 L 120.8,359.2 L 120.9,359.0 L 120.9,358.9 L 120.8,358.7 L 120.7,358.5 L 120.7,358.3 L 120.6,358.2 L 120.6,358.2 L 120.6,358.2 L 120.5,358.4 L 120.3,358.5 L 120.2,358.7 L 120.0,358.7 L 119.9,358.8 L 119.8,358.8 L 119.8,358.9 L 119.7,359.0 L 119.6,359.1 L 119.5,359.1 L 119.4,359.2 L 119.4,359.1 L 119.3,359.1 L 119.3,359.0 L 119.4,359.0 L 119.4,358.9 L 119.4,358.8 L 119.3,358.6 L 119.3,358.6 L 119.3,358.5 L 119.5,358.2 L 119.7,357.9 L 119.7,357.8 L 120.0,357.6 L 120.2,357.4 L 120.4,357.2 L 120.4,357.1 L 120.6,356.9 L 120.6,356.9 L 120.6,356.8 L 120.7,356.7 L 120.9,356.5 L 120.9,356.4 L 120.9,356.3 L 121.1,356.1 L 121.3,355.8 L 121.3,355.7 L 121.5,355.4 L 121.5,355.4 L 121.6,355.1 L 121.7,354.9 L 121.8,354.7 L 121.9,354.4 L 122.1,354.0 L 122.1,354.0 L 122.0,353.9 L 121.8,353.5 L 121.8,353.3 L 121.7,353.0 L 121.7,352.9 L 121.5,352.7 L 121.3,352.4 L 121.3,352.3 L 121.3,352.2 L 121.3,352.2 L 121.3,352.1 L 121.3,352.0 L 121.2,351.8 L 121.2,351.7 L 121.3,351.6 L 121.3,351.5 L 121.3,351.5 L 121.3,351.4 L 121.2,350.7 L 121.2,350.7 L 121.2,350.5 L 121.3,350.2 L 121.4,349.6 L 121.5,349.1 L 121.5,348.6 L 121.4,348.3 L 121.3,348.1 L 121.3,348.1 L 121.3,348.0 L 121.4,347.9 L 121.6,347.7 L 121.6,347.6 L 121.8,347.4 L 121.9,347.3 L 121.9,347.1 L 121.9,347.0 L 121.9,346.9 L 122.0,347.0 L 122.0,347.0 L 122.1,346.8 L 122.2,346.8 L 122.3,346.7 L 122.4,346.7 L 122.5,346.7 L 122.5,346.7 L 122.7,346.6 L 122.8,346.6 L 122.8,346.4 L 122.9,346.3 L 122.9,346.2 L 122.8,346.1 L 122.7,346.1 L 122.7,346.1 L 122.7,346.1 L 122.7,346.2 L 122.8,346.2 L 122.7,346.3 L 122.6,346.3 L 122.4,346.3 L 122.4,346.2 L 122.4,346.1 L 122.4,346.1 L 122.4,345.9 L 122.4,345.8 L 122.7,345.7 L 122.9,345.5 L 123.0,345.4 L 123.3,345.1 L 123.3,345.0 L 123.3,344.8 L 123.4,344.7 L 123.6,344.2 L 123.7,344.0 L 124.1,343.5 L 124.2,343.4 L 124.2,343.3 L 124.2,343.2 L 124.2,343.1 L 124.2,343.0 L 124.2,342.9 L 124.4,342.7 L 124.4,342.6 L 124.6,342.5 L 125.1,342.4 L 125.2,342.4 L 125.3,342.3 L 125.3,342.4 L 125.4,342.3 L 125.4,342.3 L 125.2,342.2 L 125.0,342.0 L 125.0,341.9 L 125.1,341.8 L 125.0,341.6 L 125.1,341.5 L 125.0,341.5 L 124.9,341.4 L 124.8,341.4 L 124.7,341.4 L 124.7,341.4 L 124.7,341.4 L 124.7,341.4 L 124.7,341.3 L 124.8,341.3 L 124.9,341.2 L 124.9,340.8 L 125.0,340.8 L 125.1,340.7 L 125.1,340.7 L 125.2,340.6 L 125.3,340.6 L 125.4,340.6 L 125.5,340.4 L 125.6,340.4 L 125.7,340.3 L 125.7,340.2 L 125.8,340.1 L 125.9,340.1 L 125.9,340.1 L 126.0,340.0 L 126.3,340.0 L 126.3,339.9 L 126.3,339.9 L 126.1,339.8 L 126.1,339.7 L 126.0,339.6 L 125.9,339.6 L 125.9,339.6 L 125.7,339.6 L 125.5,339.7 L 125.4,339.8 L 125.2,340.1 L 125.1,340.1 L 124.9,340.5 L 124.6,341.2 L 124.6,341.3 L 124.5,341.3 L 124.4,341.3 L 124.4,341.2 L 124.3,341.1 L 124.3,340.9 L 124.3,340.9 L 124.3,340.9 L 124.3,340.9 L 124.3,340.8 L 124.3,340.7 L 124.3,340.6 L 124.5,340.3 L 124.5,340.3 L 124.6,340.1 L 124.6,340.0 L 124.5,340.0 L 124.5,340.0 L 124.5,340.0 L 124.3,340.0 L 124.2,340.1 L 124.0,340.2 L 124.0,340.3 L 124.0,340.4 L 124.0,340.5 L 124.0,340.6 L 124.1,340.7 L 124.2,340.8 L 124.3,340.9 L 124.3,340.9 L 124.2,341.1 L 124.1,341.1 L 123.8,341.4 L 123.5,341.7 L 123.4,341.7 L 123.2,342.0 L 123.2,342.1 L 123.0,342.1 L 122.9,342.1 L 122.8,342.1 L 122.8,342.0 L 122.8,342.0 L 122.8,342.0 L 122.8,341.9 L 122.8,341.9 L 122.6,342.0 L 122.5,342.1 L 122.4,342.2 L 122.3,342.3 L 122.2,342.3 L 122.1,342.4 L 122.1,342.4 L 122.1,342.4 L 122.0,342.6 L 122.0,342.6 L 121.8,342.7 L 121.7,343.0 L 121.7,343.1 L 121.6,343.4 L 121.4,343.6 L 121.2,344.0 L 121.2,344.1 L 121.0,344.5 L 120.8,344.9 L 120.7,345.0 L 120.6,345.1 L 120.4,345.2 L 120.3,345.4 L 120.2,345.4 L 120.0,345.6 L 119.9,345.7 L 119.8,345.8 L 119.7,345.9 L 119.6,346.0 L 119.6,346.0 L 119.4,346.1 L 119.4,346.2 L 119.2,346.3 L 119.1,346.4 L 119.1,346.4 L 119.1,346.4 L 118.9,346.4 L 118.9,346.4 L 118.8,346.3 L 118.7,346.3 L 118.6,346.2 L 118.4,346.1 L 118.2,346.0 L 118.2,345.9 L 118.2,345.9 L 118.1,345.8 L 118.1,345.8 L 118.0,345.8 L 118.0,345.7 L 117.9,345.7 L 117.8,345.7 L 117.8,345.7 L 117.8,345.8 L 117.7,345.9 L 117.6,345.9 L 117.6,346.0 L 117.5,346.1 L 117.5,346.1 L 117.4,346.3 L 117.4,346.5 L 117.3,346.6 L 117.3,346.8 L 117.2,346.9 L 117.2,347.0 L 117.1,347.3 L 117.0,347.5 L 116.9,347.5 L 116.9,347.6 L 116.9,347.5 L 116.9,347.4 L 116.9,347.3 L 116.9,347.3 L 116.9,347.2 L 116.9,347.1 L 116.9,346.9 L 116.8,346.7 L 116.8,346.7 L 116.7,346.6 L 116.6,346.5 L 116.6,346.5 L 116.6,346.5 L 116.5,346.4 L 116.5,346.2 L 116.5,346.2 L 116.5,346.1 L 116.5,346.1 L 116.5,346.0 L 116.5,345.9 L 116.4,345.9 L 116.3,345.8 L 116.2,345.7 L 116.2,345.7 L 116.4,345.6 L 116.4,345.6 L 116.4,345.5 L 116.3,345.4 L 116.3,345.4 L 116.2,345.4 L 116.1,345.6 L 116.0,345.6 L 115.9,345.7 L 115.7,345.7 L 115.7,345.7 L 115.6,345.7 L 115.5,345.6 L 115.5,345.4 L 115.5,345.3 L 115.6,344.9 L 115.6,344.9 L 115.6,344.8 L 115.6,344.6 L 115.7,344.3 L 115.8,344.2 L 116.0,343.9 L 116.1,343.8 L 116.1,343.8 L 116.1,343.6 L 116.2,343.4 L 116.3,343.3 L 116.4,343.2 L 116.7,342.9 L 116.8,342.8 L 116.9,342.7 L 117.2,342.5 L 117.3,342.5 L 117.4,342.4 L 117.5,342.4 L 117.8,342.2 L 118.1,341.9 L 118.3,341.9 L 118.3,341.9 L 118.4,341.9 L 118.3,341.8 L 118.3,341.7 L 118.3,341.6 L 118.2,341.5 L 118.2,341.5 L 118.2,341.4 L 118.6,341.1 L 118.6,341.1 L 118.7,341.1 L 118.8,341.0 L 118.9,341.0 L 118.9,340.8 L 119.0,340.7 L 119.0,340.7 L 119.1,340.9 L 119.2,340.9 L 119.2,340.8 L 119.2,340.7 L 119.1,340.7 L 119.1,340.6 L 119.2,340.5 L 119.3,340.5 L 119.3,340.5 L 119.3,340.5 L 119.4,340.5 L 119.4,340.5 L 119.5,340.6 L 119.5,340.8 L 119.6,341.0 L 119.9,341.1 L 119.9,341.2 L 120.0,341.1 L 120.1,341.0 L 120.2,340.8 L 120.5,340.5 L 120.6,340.4 L 120.7,340.2 L 120.9,339.8 L 121.1,339.6 L 121.3,339.4 L 121.4,339.1 L 121.6,338.7 L 121.7,338.4 L 121.7,338.2 L 121.7,338.1 L 121.6,337.9 L 121.5,337.7 L 121.4,337.7 L 121.3,337.7 L 121.4,337.6 L 121.4,337.6 L 121.4,337.5 L 121.3,337.2 L 121.3,337.0 L 121.4,336.6 L 121.5,336.2 L 121.5,336.0 L 121.5,335.5 L 121.6,335.1 L 121.7,334.9 L 121.7,334.8 L 121.7,334.7 L 121.9,334.5 L 122.0,334.3 L 122.2,334.2 L 122.2,334.1 L 122.3,333.9 L 122.3,333.8 L 122.3,333.5 L 122.3,333.4 L 122.2,333.2 L 122.2,333.1 L 122.2,333.1 L 122.3,332.9 L 122.3,332.7 L 122.5,332.5 L 122.7,332.1 L 123.0,331.7 L 123.1,331.5 L 123.2,331.4 L 123.3,331.2 L 123.4,330.9 L 123.5,330.7 L 123.5,330.6 L 123.7,330.2 L 123.8,330.0 L 123.8,329.9 L 123.8,329.7 L 123.8,329.5 L 123.8,329.5 L 123.7,329.4 L 123.8,329.3 L 123.8,329.2 L 123.9,329.0 L 124.0,328.9 L 123.9,328.8 L 124.0,328.8 L 124.1,328.6 L 124.1,328.4 L 124.1,328.2 L 124.1,328.2 L 124.2,328.0 L 124.2,327.9 L 124.2,327.8 L 124.4,327.4 L 124.7,326.6 L 124.8,326.2 L 124.8,326.0 L 125.0,325.6 L 125.0,325.5 L 125.2,325.0 L 125.2,324.9 L 125.2,324.7 L 125.3,324.6 L 125.3,324.4 L 125.3,324.2 L 125.5,323.9 L 125.7,323.7 L 125.8,323.6 L 126.0,323.4 L 126.0,323.4 L 126.3,323.1 L 126.4,323.1 L 126.6,323.0 L 126.7,322.8 L 126.8,322.8 L 126.9,322.6 L 127.0,322.5 L 127.1,322.4 L 127.2,322.4 L 127.2,322.4 L 127.3,322.4 L 127.4,322.4 L 127.6,322.4 L 127.6,322.4 L 127.7,322.4 L 127.7,322.3 L 127.8,322.3 L 127.7,322.3 L 127.6,322.2 L 127.6,322.2 L 127.6,322.2 L 127.6,322.1 L 127.6,322.1 L 127.7,322.0 L 127.7,322.0 L 127.8,322.0 L 127.8,322.0 L 127.9,322.0 L 127.9,322.0 L 127.9,322.0 L 127.9,321.9 L 127.9,321.9 L 128.0,321.9 L 128.1,321.9 L 128.3,321.9 L 128.3,321.9 L 128.4,321.8 L 128.5,321.8 L 128.6,321.7 L 128.6,321.6 L 128.6,321.6 L 128.7,321.6 L 128.8,321.6 L 128.8,321.5 L 128.8,321.4 L 128.9,321.3 L 129.1,321.1 L 129.2,321.1 L 129.6,321.0 L 130.3,320.9 L 130.4,321.0 L 130.6,321.0 L 130.8,321.1 L 131.0,321.2 L 131.0,321.3 L 131.0,321.5 L 130.9,321.7 L 130.8,322.0 L 130.8,322.0 L 130.7,322.1 L 130.7,322.2 L 130.8,322.3 L 130.8,322.4 L 130.8,322.5 L 130.8,322.7 L 130.8,322.9 L 130.8,323.0 L 130.9,323.0 L 131.1,322.9 L 131.1,322.9 L 131.2,322.8 L 131.3,322.8 L 131.4,322.8 L 131.5,322.8 L 131.6,322.8 L 131.8,322.9 L 131.9,322.9 L 132.0,323.0 L 132.0,323.1 L 132.0,323.2 L 131.8,323.5 L 131.7,323.6 L 131.7,323.6 L 131.2,323.7 L 131.1,323.8 L 131.0,323.9 L 130.9,324.1 L 130.8,324.5 L 130.8,324.7 L 130.7,324.8 L 130.5,325.2 L 130.5,325.3 L 130.5,325.4 L 130.6,325.6 L 130.7,326.0 L 130.8,326.2 L 130.9,326.4 L 130.9,326.5 L 130.9,326.6 L 130.7,326.8 L 130.7,327.0 L 130.7,327.0 L 130.6,327.0 L 130.6,327.0 L 130.6,327.0 L 130.6,327.1 L 130.5,327.3 L 130.4,327.3 L 130.4,327.4 L 130.5,327.4 L 130.5,327.6 L 130.4,327.7 L 130.4,327.8 L 130.5,327.8 L 130.6,327.8 L 130.8,327.9 L 130.8,327.9 L 130.8,328.0 L 130.9,328.0 L 131.0,328.0 L 131.3,327.9 L 131.4,327.9 L 131.4,327.9 L 131.6,327.7 L 132.0,327.6 L 132.1,327.5 L 132.2,327.6 L 132.4,327.5 L 132.5,327.5 L 132.5,327.4 L 132.6,327.2 L 132.6,327.1 L 132.7,327.0 L 132.8,327.0 L 132.9,326.9 L 132.8,326.9 L 132.8,326.8 L 132.9,326.7 L 132.9,326.6 L 133.0,326.5 L 133.2,326.5 L 133.3,326.5 L 133.3,326.5 L 133.5,326.4 L 133.6,326.4 L 133.7,326.3 L 133.7,326.3 L 133.8,326.2 L 133.8,326.0 L 133.8,325.8 L 133.8,325.8 L 134.0,325.7 L 134.1,325.6 L 134.2,325.5 L 134.3,325.5 L 134.4,325.5 L 134.5,325.6 L 134.5,325.6 L 134.5,325.7 L 134.5,325.8 L 134.5,325.9 L 134.7,326.0 L 134.8,326.0 L 134.9,326.0 L 135.0,326.1 L 135.0,326.3 L 134.9,326.4 L 134.9,326.7 L 134.9,326.8 L 135.0,327.0 L 135.1,327.0 L 135.2,327.2 L 135.2,327.2 L 135.4,327.3 L 135.3,327.4 L 135.4,327.5 L 135.4,327.7 L 135.5,327.8 L 135.5,327.8 L 135.7,327.8 L 135.8,327.8 L 136.0,327.9 L 136.1,327.9 L 136.5,327.8 L 136.5,327.8 L 136.5,327.8 L 136.7,327.8 L 136.8,327.8 L 136.8,327.8 L 136.9,327.8 L 137.1,327.8 L 137.2,327.8 L 137.3,327.7 L 137.3,327.8 L 137.2,327.9 L 137.2,328.0 L 137.3,328.0 L 137.6,328.0 L 137.7,327.8 L 137.8,327.7 L 137.7,327.6 L 137.7,327.6 L 137.5,327.6 L 137.4,327.7 L 137.4,327.6 L 137.4,327.5 L 137.4,327.4 L 137.6,327.2 L 137.7,327.0 L 137.7,327.0 L 137.7,327.0 L 137.7,326.9 L 137.8,326.7 L 137.8,326.6 L 137.8,326.6 L 137.9,326.6 L 138.0,326.6 L 138.2,326.6 L 138.4,326.7 L 138.4,326.6 L 138.5,326.6 L 138.5,326.5 L 138.5,326.4 L 138.3,326.3 L 138.3,326.2 L 138.4,326.1 L 138.4,326.0 L 138.4,326.0 L 138.6,326.0 L 138.7,326.0 L 138.7,325.9 L 138.7,325.8 L 138.7,325.7 L 138.8,325.6 L 138.8,325.6 L 138.9,325.7 L 138.9,325.7 L 139.1,325.7 L 139.2,325.6 L 139.3,325.6 L 139.4,325.6 L 139.4,325.5 L 139.4,325.3 L 139.4,325.2 L 139.4,325.0 L 139.4,324.9 L 139.4,324.7 L 139.4,324.5 L 139.4,324.3 L 139.5,324.2 L 139.4,324.1 L 139.3,324.1 L 139.3,324.0 L 139.3,324.0 L 139.4,323.9 L 139.4,323.9 L 139.4,323.7 L 139.4,323.7 L 139.3,323.7 L 139.3,323.5 L 139.2,323.5 L 139.2,323.5 L 139.2,323.4 L 139.3,323.3 L 139.2,323.2 L 139.2,323.1 L 139.1,323.0 L 139.1,322.9 L 139.1,322.8 L 139.1,322.7 L 139.2,322.6 L 139.1,322.5 L 139.1,322.4 L 139.1,322.3 L 139.1,322.3 L 139.0,322.2 L 139.0,322.3 L 139.0,322.4 L 138.9,322.4 L 138.9,322.4 L 138.8,322.2 L 138.8,322.1 L 138.9,322.0 L 139.1,321.7 L 139.0,321.4 L 139.1,321.3 L 139.1,321.1 L 139.1,321.0 L 139.2,320.9 L 139.1,320.7 L 139.2,320.6 L 139.2,320.5 L 139.1,320.4 L 139.1,320.4 L 139.1,320.3 L 139.2,320.3 L 139.2,320.2 L 139.2,320.1 L 139.2,319.8 L 139.2,319.7 L 139.1,319.6 L 139.1,319.5 L 139.1,319.3 L 139.0,318.9 L 139.0,318.8 L 139.0,318.7 L 139.0,318.7 L 139.0,318.7 L 139.1,318.7 L 139.1,318.6 L 139.1,318.5 L 139.0,318.5 L 138.9,318.4 L 138.8,318.4 L 138.7,318.4 L 138.6,318.3 L 138.6,318.3 L 138.7,318.2 L 138.6,318.1 L 138.6,318.1 L 138.5,318.1 L 138.3,318.1 L 138.1,318.2 L 137.8,318.4 L 137.7,318.5 L 137.6,318.6 L 137.6,318.9 L 137.5,319.1 L 137.4,319.2 L 137.3,319.2 L 137.2,319.3 L 137.0,319.3 L 136.9,319.2 L 136.8,319.1 L 136.8,319.0 L 136.8,319.0 L 136.7,318.7 L 136.6,318.5 L 136.5,318.4 L 136.4,318.3 L 136.3,318.1 L 136.2,318.1 L 136.0,318.0 L 135.9,318.0 L 135.8,318.0 L 135.5,318.0 L 135.2,318.0 L 135.1,318.1 L 135.1,318.1 L 135.1,318.0 L 134.8,318.0 L 134.7,317.9 L 134.6,317.8 L 134.6,317.7 L 134.5,317.8 L 134.3,317.9 L 134.2,318.0 L 133.9,318.0 L 133.7,318.0 L 133.6,318.0 L 133.5,318.0 L 133.4,318.0 L 133.3,318.0 L 133.2,318.1 L 133.0,318.0 L 132.9,318.0 L 132.8,317.9 L 132.5,317.8 L 132.4,317.9 L 132.2,317.9 L 132.1,318.0 L 131.9,317.9 L 131.7,318.0 L 131.6,318.0 L 131.5,318.1 L 131.4,318.2 L 131.3,318.5 L 131.2,318.6 L 131.1,318.6 L 130.9,318.6 L 130.5,318.4 L 130.4,318.4 L 130.1,318.3 L 129.7,318.1 L 129.3,317.8 L 129.0,317.6 L 128.2,317.0 L 127.9,316.7 L 127.4,316.0 L 127.3,315.8 L 127.2,315.8 L 127.2,315.6 L 127.2,315.6 L 127.2,315.4 L 127.5,314.8 L 127.8,314.2 L 127.9,314.1 L 128.1,313.8 L 128.2,313.5 L 128.4,313.1 L 128.5,313.1 L 128.7,312.7 L 128.8,312.7 L 128.9,312.6 L 129.0,312.4 L 129.1,312.3 L 129.3,312.4 L 129.3,312.4 L 129.3,312.2 L 129.3,312.1 L 129.3,312.0 L 129.4,311.8 L 129.6,311.7 L 129.9,311.5 L 130.1,311.4 L 130.2,311.3 L 130.2,311.3 L 130.2,311.3 L 130.2,311.2 L 130.3,311.1 L 130.3,311.1 L 130.4,311.1 L 130.4,311.0 L 130.5,310.9 L 130.5,310.8 L 130.7,310.5 L 130.8,310.4 L 130.8,310.2 L 130.9,310.1 L 130.9,310.0 L 131.0,310.0 L 131.1,309.9 L 131.2,309.8 L 131.2,309.6 L 131.3,309.3 L 131.5,308.9 L 131.5,308.5 L 131.6,308.3 L 131.9,307.9 L 132.1,307.4 L 132.2,307.3 L 132.4,307.0 L 132.6,306.8 L 132.8,306.7 L 132.8,306.4 L 132.9,306.3 L 132.9,306.1 L 132.9,306.0 L 132.9,305.7 L 132.9,305.5 L 132.9,305.4 L 132.8,305.0 L 132.7,304.4 L 132.8,304.3 L 132.8,304.2 L 132.8,304.2 L 132.8,304.2 L 132.8,304.2 L 132.8,303.9 L 132.9,303.7 L 132.9,303.5 L 133.0,303.4 L 133.0,303.4 L 133.0,303.2 L 133.0,303.1 L 133.0,303.0 L 133.0,302.9 L 133.0,302.8 L 133.0,302.8 L 133.0,302.8 L 133.0,302.5 L 133.1,302.3 L 133.2,302.2 L 133.2,302.1 L 133.3,302.0 L 133.3,302.0 L 133.3,301.9 L 133.3,301.9 L 133.3,301.8 L 133.2,301.7 L 133.2,301.6 L 133.2,301.6 L 133.3,301.4 L 133.3,301.1 L 133.4,301.0 L 133.4,301.0 L 133.4,300.9 L 133.5,300.7 L 133.6,300.7 L 133.6,300.5 L 133.8,300.3 L 134.0,300.1 L 133.9,300.0 L 133.9,299.8 L 133.7,299.6 L 133.7,299.5 L 133.7,299.5 L 133.6,299.5 L 133.6,299.4 L 133.6,299.5 L 133.6,299.6 L 133.6,299.7 L 133.5,299.7 L 133.4,299.7 L 133.4,299.9 L 133.3,300.0 L 133.2,300.0 L 133.1,300.0 L 133.1,300.0 L 133.1,299.8 L 133.1,299.7 L 133.1,299.6 L 133.1,299.6 L 133.1,299.4 L 133.1,299.4 L 133.1,299.3 L 133.1,299.1 L 133.0,299.1 L 133.0,299.0 L 133.0,298.9 L 133.0,298.8 L 133.0,298.8 L 133.0,298.8 L 133.0,298.7 L 133.0,298.6 L 133.0,298.5 L 133.1,298.5 L 133.2,298.3 L 133.2,298.2 L 133.3,298.1 L 133.3,298.1 L 133.5,297.9 L 133.7,297.8 L 134.0,297.7 L 134.2,297.6 L 134.2,297.6 L 134.3,297.7 L 134.4,297.9 L 134.5,297.9 L 134.6,298.0 L 134.8,298.1 L 134.8,298.2 L 134.8,298.3 L 135.0,298.5 L 135.1,298.5 L 135.1,298.4 L 135.3,298.3 L 135.4,298.3 L 135.5,298.4 L 135.5,298.4 L 135.5,298.5 L 135.7,298.4 L 135.8,298.4 L 135.7,298.3 L 135.7,298.3 L 135.6,298.1 L 135.9,298.0 L 135.9,298.0 L 135.8,297.9 L 135.7,297.9 L 135.7,297.9 L 135.7,297.8 L 135.7,297.8 L 136.0,297.7 L 136.1,297.8 L 136.2,297.8 L 136.2,297.6 L 136.2,297.6 L 136.3,297.6 L 136.3,297.6 L 136.4,297.6 L 136.5,297.6 L 136.6,297.7 L 136.6,297.8 L 136.7,297.8 L 136.8,297.7 L 136.9,297.6 L 136.9,297.4 L 136.8,297.4 L 136.7,297.3 L 136.6,297.3 L 136.6,297.2 L 136.5,297.1 L 136.6,296.9 L 136.6,296.8 L 136.7,296.7 L 136.9,296.5 L 137.0,296.5 L 137.0,296.5 L 137.2,296.1 L 137.2,296.0 L 137.1,295.9 L 137.0,295.9 L 136.9,295.9 L 136.9,295.8 L 136.8,295.7 L 136.9,295.7 L 137.2,295.6 L 137.3,295.5 L 137.4,295.5 L 137.5,295.5 L 137.6,295.5 L 137.7,295.7 L 137.8,295.7 L 138.0,295.7 L 138.1,295.7 L 138.2,295.6 L 138.3,295.6 L 138.5,295.6 L 138.6,295.6 L 138.7,295.6 L 138.9,295.6 L 138.9,295.6 L 138.9,295.7 L 139.0,295.7 L 139.1,295.7 L 139.3,295.6 L 139.3,295.5 L 139.2,295.5 L 139.0,295.5 L 139.0,295.5 L 138.9,295.3 L 138.7,295.3 L 138.6,295.2 L 138.6,295.0 L 138.5,294.9 L 138.4,294.9 L 138.3,295.0 L 138.1,295.1 L 137.9,295.1 L 137.9,295.1 L 137.8,295.2 L 137.7,295.0 L 137.5,295.0 L 137.5,295.0 L 137.3,294.9 L 137.2,294.9 L 137.2,294.8 L 137.0,294.8 L 137.0,294.8 L 136.9,294.8 L 136.8,294.8 L 136.8,294.8 L 136.8,294.8 L 136.7,294.8 L 136.6,294.8 L 136.6,294.8 L 136.6,294.7 L 136.7,294.6 L 137.0,294.7 L 137.1,294.6 L 137.1,294.5 L 137.1,294.5 L 137.1,294.6 L 137.1,294.7 L 137.2,294.7 L 137.2,294.7 L 137.2,294.5 L 137.2,294.4 L 137.2,294.3 L 137.2,294.3 L 137.1,294.2 L 137.1,294.3 L 137.0,294.3 L 137.0,294.3 L 136.9,294.2 L 136.9,294.2 L 136.9,294.3 L 136.7,294.1 L 136.6,294.1 L 136.5,294.0 L 136.5,294.1 L 136.5,294.1 L 136.4,294.1 L 136.3,294.1 L 136.3,294.3 L 136.3,294.3 L 136.4,294.4 L 136.5,294.4 L 136.6,294.4 L 136.5,294.5 L 136.4,294.6 L 136.4,294.7 L 136.4,294.8 L 136.4,294.9 L 136.2,295.0 L 136.2,295.0 L 136.3,295.0 L 136.3,295.0 L 136.4,295.1 L 136.4,295.1 L 136.3,295.3 L 136.3,295.4 L 136.3,295.4 L 136.2,295.5 L 136.2,295.5 L 136.3,295.5 L 136.3,295.6 L 136.2,295.6 L 136.2,295.7 L 136.1,295.6 L 135.9,295.6 L 135.7,295.6 L 135.5,295.7 L 135.5,295.8 L 135.5,295.8 L 135.5,295.9 L 135.4,295.9 L 135.3,296.0 L 135.2,296.2 L 135.0,296.2 L 134.9,296.3 L 134.8,296.2 L 134.7,296.2 L 134.4,296.1 L 134.2,296.0 L 134.1,296.0 L 134.0,296.1 L 134.0,296.2 L 134.2,296.2 L 134.2,296.3 L 134.2,296.3 L 134.2,296.4 L 134.1,296.5 L 134.0,296.5 L 133.8,296.5 L 133.3,296.4 L 132.8,296.5 L 132.7,296.5 L 132.6,296.4 L 132.6,296.4 L 132.5,296.4 L 132.5,296.4 L 132.4,296.3 L 132.3,296.1 L 132.3,296.1 L 132.3,296.1 L 132.2,296.0 L 132.2,295.9 L 132.2,295.7 L 132.2,295.6 L 132.2,295.5 L 132.2,295.5 L 132.2,295.4 L 132.2,295.3 L 132.1,295.3 L 132.1,295.3 L 132.1,295.4 L 132.0,295.3 L 131.9,295.1 L 131.9,295.0 L 131.9,295.0 L 131.9,294.9 L 131.8,294.8 L 131.8,294.6 L 131.8,294.6 L 131.8,294.6 L 131.8,294.5 L 131.8,294.5 L 131.8,294.5 L 131.8,294.4 L 131.8,294.3 L 131.8,294.3 L 131.8,294.2 L 131.9,294.1 L 131.9,294.1 L 132.0,294.0 L 132.0,294.0 L 132.0,294.0 L 132.1,294.0 L 132.1,294.1 L 132.1,294.2 L 132.1,294.2 L 132.2,294.3 L 132.3,294.3 L 132.5,294.3 L 132.5,294.3 L 132.5,294.3 L 132.6,294.4 L 132.7,294.5 L 132.7,294.5 L 132.7,294.5 L 132.7,294.3 L 132.6,294.3 L 132.5,294.2 L 132.5,294.2 L 132.5,294.3 L 132.3,294.3 L 132.2,294.3 L 132.2,294.2 L 132.3,294.2 L 132.2,294.1 L 132.1,294.0 L 132.1,293.9 L 132.1,293.9 L 132.1,293.8 L 132.1,293.7 L 132.1,293.5 L 132.0,293.3 L 132.0,293.1 L 132.0,293.0 L 132.0,292.9 L 132.0,292.7 L 132.0,292.6 L 131.9,292.4 L 132.0,292.3 L 131.9,292.3 L 131.8,292.0 L 131.5,291.6 L 131.5,291.6 L 131.4,291.5 L 131.4,291.4 L 131.4,291.3 L 131.3,291.3 L 131.3,291.3 L 131.2,291.3 L 127.9,285.0 L 128.2,284.9 L 128.4,284.7 L 128.5,284.6 L 128.6,284.5 L 128.8,284.3 L 128.9,284.1 L 129.0,283.9 L 129.1,283.9 L 129.1,283.6 L 129.2,283.6 L 129.2,283.6 L 129.3,283.5 L 129.3,283.5 L 129.3,283.5 L 129.3,283.4 L 129.3,283.2 L 129.5,282.9 L 129.7,282.4 L 129.7,282.3 L 129.8,282.1 L 129.8,282.0 L 129.8,281.7 L 129.9,281.5 L 129.9,281.3 L 130.0,281.1 L 130.0,281.1 L 130.0,280.9 L 130.1,280.8 L 130.2,280.7 L 130.2,280.3 L 130.3,280.2 L 130.3,280.2 L 130.3,280.1 L 130.3,280.0 L 130.4,280.0 L 130.4,279.9 L 130.4,279.8 L 130.5,279.7 L 130.5,279.7 L 130.5,279.6 L 130.5,279.5 L 130.5,279.3 L 130.6,279.2 L 130.6,279.0 L 130.7,278.9 L 130.7,278.9 L 130.7,278.6 L 130.7,278.6 L 130.6,278.4 L 130.7,278.2 L 130.7,278.2 L 130.7,278.1 L 130.8,278.1 L 130.8,278.1 L 130.8,278.0 L 130.9,277.8 L 131.0,277.8 L 131.0,277.7 L 130.9,277.7 L 130.9,277.6 L 130.9,277.6 L 130.8,277.4 L 130.9,277.4 L 130.9,277.3 L 130.8,277.3 L 130.9,277.0 L 130.9,276.9 L 131.0,276.7 L 131.0,276.4 L 131.0,276.2 L 130.9,276.1 L 130.9,276.0 L 130.9,275.9 L 130.9,275.8 L 130.9,275.7 L 130.8,275.7 L 130.8,275.6 L 130.9,275.3 L 131.0,275.2 L 131.0,275.0 L 130.9,274.9 L 130.9,274.7 L 130.8,274.7 L 130.7,274.5 L 130.5,274.4 L 130.3,274.4 L 130.1,274.4 L 129.8,274.4 L 129.7,274.3 L 129.3,274.0 L 129.0,273.8 L 128.7,273.5 L 128.6,273.4 L 128.6,273.2 L 128.5,273.2 L 128.5,272.9 L 128.4,272.8 L 128.4,272.7 L 128.3,272.7 L 128.1,272.5 L 128.0,272.5 L 127.8,272.5 L 127.6,272.5 L 127.5,272.5 L 127.4,272.4 L 120.7,263.9 L 120.7,263.9 L 120.7,263.9 L 120.7,263.8 L 120.7,263.7 L 120.7,263.5 L 120.8,263.3 L 121.0,263.0 L 121.1,262.8 L 121.2,262.7 L 121.4,262.5 L 121.5,262.3 L 121.5,262.2 L 121.9,261.7 L 121.9,261.7 L 122.0,261.6 L 122.0,261.6 L 122.2,261.4 L 122.5,261.1 L 122.6,261.0 L 122.8,260.9 L 123.0,260.7 L 123.4,260.3 L 123.5,260.2 L 123.6,260.1 L 123.7,260.0 L 124.0,259.8 L 124.2,259.6 L 124.5,259.4 L 124.5,259.4 L 124.5,259.4 L 124.6,259.3 L 124.7,259.2 L 124.8,259.1 L 125.0,259.0 L 125.1,259.0 L 125.1,259.0 L 125.1,259.0 L 125.2,259.0 L 125.3,259.0 L 125.5,258.9 L 125.7,258.7 L 125.8,258.6 L 125.9,258.5 L 126.1,258.4 L 126.2,258.2 L 126.5,258.0 L 126.7,257.6 L 126.7,257.6 L 126.8,257.5 L 126.9,257.4 L 126.9,257.3 L 127.0,257.1 L 127.1,257.0 L 127.2,256.8 L 127.2,256.7 L 127.3,256.3 L 127.3,256.2 L 127.4,256.0 L 127.4,255.7 L 127.4,255.6 L 127.5,255.3 L 127.6,255.2 L 127.6,255.1 L 127.6,255.0 L 127.7,254.8 L 127.7,254.6 L 127.8,254.4 L 127.8,254.3 L 127.7,254.3 L 127.6,254.3 L 127.5,254.2 L 127.5,254.2 L 127.5,254.1 L 127.3,254.0 L 127.1,253.8 L 127.0,253.5 L 127.0,253.4 L 127.0,253.3 L 127.0,253.2 L 127.1,253.2 L 127.1,253.0 L 127.1,252.8 L 127.1,252.6 L 127.2,252.5 L 127.3,252.4 L 127.5,252.4 L 127.6,252.3 L 127.7,252.3 L 127.7,252.2 L 127.7,252.2 L 127.7,252.0 L 127.6,251.8 L 127.6,251.7 L 127.7,251.6 L 127.7,251.5 L 127.7,251.4 L 127.8,251.3 L 127.9,251.3 L 127.9,251.3 L 127.9,251.2 L 127.9,251.1 L 127.8,251.1 L 127.8,250.8 L 127.8,250.7 L 127.8,250.6 L 127.8,250.6 L 127.8,250.4 L 127.7,250.4 L 127.7,250.1 L 127.6,249.7 L 127.7,249.6 L 127.8,249.5 L 127.8,249.4 L 127.6,249.2 L 127.6,249.1 L 127.6,249.0 L 127.7,248.9 L 127.8,248.8 L 127.9,248.8 L 128.0,248.9 L 128.1,248.9 L 128.0,248.8 L 127.9,248.7 L 127.8,248.6 L 127.8,248.5 L 127.8,248.5 L 127.8,248.6 L 127.7,248.6 L 127.7,248.6 L 127.6,248.5 L 127.5,248.5 L 127.5,248.5 L 127.5,248.4 L 127.4,248.4 L 127.3,248.3 L 127.2,248.3 L 126.9,248.2 L 126.9,248.2 L 126.9,248.0 L 126.9,247.9 L 126.9,247.8 L 127.0,247.8 L 127.1,247.8 L 127.1,247.9 L 127.2,248.0 L 127.3,247.9 L 127.3,247.9 L 127.3,247.8 L 127.2,247.8 L 127.1,247.7 L 127.1,247.6 L 127.2,247.5 L 127.2,247.5 L 127.4,247.4 L 127.5,247.3 L 127.7,247.1 L 127.9,247.1 L 127.9,247.0 L 128.1,246.9 L 128.1,246.9 L 128.2,246.9 L 128.3,246.9 L 128.4,246.8 L 128.4,246.8 L 128.7,246.8 L 129.0,246.8 L 129.3,246.8 L 129.4,246.8 L 129.7,246.8 L 130.0,246.7 L 130.2,246.7 L 130.2,246.6 L 130.3,246.5 L 130.4,246.4 L 130.5,246.5 L 130.6,246.4 L 130.6,246.3 L 130.8,246.2 L 130.8,246.1 L 131.0,246.0 L 131.0,246.0 L 131.0,245.9 L 131.2,245.8 L 131.3,245.7 L 131.5,245.6 L 131.6,245.5 L 131.6,245.5 L 131.6,245.4 L 131.6,245.4 L 131.7,245.1 L 131.8,245.0 L 131.9,244.9 L 132.0,244.8 L 132.2,244.7 L 132.2,244.6 L 132.3,244.6 L 132.4,244.5 L 132.4,244.3 L 132.5,244.2 L 132.7,244.0 L 132.8,243.9 L 132.9,243.8 L 133.0,243.7 L 133.3,243.3 L 133.4,243.3 L 133.4,243.2 L 133.5,243.1 L 133.7,242.8 L 133.8,242.7 L 133.8,242.6 L 133.8,242.5 L 133.9,242.4 L 134.0,242.2 L 134.1,242.0 L 134.2,241.7 L 134.6,241.1 L 134.7,241.0 L 134.8,240.8 L 134.8,240.7 L 134.8,240.6 L 135.0,240.2 L 135.1,240.1 L 135.1,240.1 L 135.1,240.0 L 135.1,240.0 L 135.1,240.0 L 135.2,239.9 L 135.2,239.8 L 135.3,239.7 L 135.4,239.4 L 135.5,239.3 L 135.5,239.2 L 135.6,239.0 L 135.7,238.7 L 135.8,238.6 L 135.8,238.5 L 136.0,238.1 L 136.1,237.9 L 136.2,237.8 L 136.2,237.8 L 136.3,237.6 L 136.3,237.5 L 136.4,237.4 L 136.4,237.3 L 136.5,237.2 L 136.6,236.9 L 136.6,236.9 L 136.7,236.6 L 136.8,236.4 L 136.8,236.3 L 137.0,235.9 L 137.0,235.9 L 137.1,235.6 L 137.1,235.5 L 137.1,235.4 L 137.2,235.2 L 137.2,235.1 L 137.5,234.1 L 137.5,234.1 L 137.7,233.8 L 137.9,233.5 L 137.9,233.5 L 137.9,233.4 L 138.0,233.3 L 138.0,233.2 L 138.1,233.1 L 138.3,232.8 L 138.4,232.6 L 138.5,232.5 L 138.7,232.1 L 138.8,231.8 L 138.8,231.7 L 138.8,231.6 L 138.9,231.6 L 138.9,231.5 L 138.9,231.4 L 139.0,231.3 L 139.1,231.0 L 139.2,230.8 L 139.2,230.7 L 139.3,230.6 L 139.4,230.2 L 139.4,230.2 L 139.5,230.1 L 139.5,229.9 L 139.5,229.8 L 139.5,229.7 L 139.5,229.7 L 139.0,229.8 L 138.9,229.8 L 138.6,229.9 L 138.4,230.0 L 138.3,230.1 L 138.0,230.3 L 137.8,230.5 L 137.6,230.6 L 137.1,230.8 L 136.9,231.0 L 136.6,231.1 L 136.5,231.1 L 136.4,231.0 L 136.2,230.9 L 136.1,230.7 L 136.0,230.7 L 136.0,230.6 L 135.9,230.3 L 136.0,230.1 L 136.1,230.1 L 136.2,230.0 L 136.3,229.9 L 136.9,229.4 L 137.1,229.1 L 137.2,229.0 L 137.3,229.0 L 137.3,228.9 L 137.3,228.8 L 137.4,228.8 L 137.6,228.5 L 137.9,228.1 L 138.2,227.9 L 138.4,227.7 L 138.5,227.6 L 138.6,227.5 L 138.6,227.5 L 138.7,227.4 L 138.9,227.2 L 139.0,227.2 L 139.1,227.1 L 139.2,227.1 L 139.4,227.0 L 139.5,226.9 L 139.5,226.9 L 139.6,226.8 L 139.7,226.7 L 139.9,226.7 L 139.9,226.6 L 140.1,226.5 L 140.3,226.5 L 140.3,226.4 L 140.4,226.4 L 140.6,226.0 L 140.7,225.8 L 140.8,225.6 L 140.8,225.5 L 140.9,225.3 L 140.9,225.3 L 140.8,225.3 L 140.6,225.3 L 140.5,225.3 L 140.4,225.2 L 140.4,225.1 L 140.4,225.0 L 140.4,225.0 L 140.3,225.0 L 140.2,225.0 L 140.1,225.0 L 140.0,225.0 L 139.9,224.9 L 139.8,224.9 L 139.8,224.9 L 139.7,224.9 L 139.7,224.9 L 139.5,224.9 L 139.5,224.8 L 139.4,224.7 L 139.5,224.6 L 139.4,224.5 L 139.4,224.5 L 139.4,224.5 L 139.2,224.3 L 139.2,224.2 L 139.2,224.2 L 139.2,224.2 L 139.2,224.2 L 139.2,224.1 L 139.0,224.1 L 139.0,224.1 L 139.0,224.0 L 138.9,224.0 L 138.8,223.9 L 138.7,223.9 L 138.7,223.9 L 138.6,223.9 L 138.6,223.9 L 138.5,223.9 L 138.4,223.6 L 138.3,223.4 L 138.3,223.3 L 138.4,223.1 L 138.5,222.9 L 138.7,222.4 L 138.7,222.4 L 138.7,222.4 L 138.7,222.4 L 138.8,222.4 L 138.9,222.4 L 139.1,222.4 L 139.6,222.4 L 139.9,222.3 L 140.1,222.3 L 140.6,222.3 L 140.7,222.3 L 140.9,222.1 L 140.9,222.1 L 141.1,221.9 L 141.2,221.9 L 141.2,221.8 L 141.3,221.4 L 141.4,221.2 L 141.8,220.7 L 141.8,220.7 L 141.9,220.6 L 142.0,220.5 L 142.1,220.4 L 142.2,220.2 L 142.3,220.1 L 142.4,220.1 L 142.5,220.0 L 142.5,219.9 L 142.7,219.8 L 142.8,219.6 L 142.8,219.3 L 142.8,218.9 L 142.8,218.8 L 142.9,218.7 L 142.9,218.6 L 142.9,218.5 L 142.8,218.4 L 142.8,218.3 L 142.9,217.9 L 143.1,217.7 L 143.2,217.4 L 143.2,217.3 L 143.2,216.9 L 143.2,216.7 L 143.2,216.4 L 143.2,216.0 L 143.2,215.9 L 143.1,215.9 L 143.0,215.8 L 142.9,215.6 L 142.8,215.5 L 142.7,215.4 L 142.6,215.1 L 142.0,214.6 L 141.9,214.6 L 141.9,214.6 L 141.8,214.5 L 141.7,214.5 L 141.5,214.3 L 141.4,214.2 L 141.3,214.1 L 141.1,214.2 L 140.8,214.1 L 140.6,214.1 L 140.6,213.9 L 140.6,213.9 L 140.5,213.7 L 140.5,213.5 L 140.5,213.2 L 140.6,212.9 L 140.7,212.6 L 140.8,212.5 L 140.9,212.4 L 141.0,212.2 L 141.2,212.1 L 141.2,212.0 L 141.4,212.0 L 141.5,212.0 L 141.5,212.0 L 141.5,212.0 L 141.7,212.1 L 141.8,212.1 L 141.9,212.2 L 142.4,212.4 L 142.5,212.5 L 142.8,212.5 L 143.1,212.5 L 143.3,212.5 L 143.5,212.4 L 143.7,212.3 L 143.7,212.3 L 143.8,212.3 L 143.9,212.2 L 144.0,212.1 L 144.0,212.0 L 144.1,211.9 L 144.1,211.9 L 144.6,211.8 L 144.8,211.7 L 145.0,211.7 L 145.1,211.8 L 145.6,211.8 L 146.0,211.8 L 146.2,211.8 L 146.2,211.7 L 146.5,211.6 L 146.7,211.6 L 147.3,211.4 L 147.4,211.3 L 147.5,211.2 L 147.6,211.2 L 147.7,211.0 L 147.8,211.0 L 148.0,210.8 L 148.3,210.7 L 148.6,210.4 L 148.7,210.4 L 148.9,210.3 L 148.9,210.2 L 149.0,210.2 L 149.0,210.1 L 149.1,210.1 L 149.2,209.8 L 149.4,209.8 L 149.5,209.7 L 149.6,209.5 L 149.7,209.4 L 149.8,209.3 L 149.8,209.2 L 150.0,208.9 L 150.3,208.5" fill="none" stroke="black" stroke-width="2"/>
</svg>