<?xml version="1.0" encoding="UTF-8"?>
<svg width="400" height="400" viewBox="0 0 400 400" xmlns="http://www.w3.org/2000/svg">
  <rect width="400" height="400" fill="white"/>
  <path d="M 71.6,227.1 L 72.0,225.6 L 72.1,224.2 L 71.8,221.8 L 72.3,218.8 L 74.0,214.5 L 75.7,211.4 L 77.3,209.1 L 77.8,208.7 L 79.2,208.1 L 80.3,207.4 L 82.1,204.9 L 82.7,203.3 L 83.0,201.9 L 83.8,199.8 L 83.9,198.3 L 84.6,196.7 L 84.7,196.0 L 84.2,195.1 L 83.6,194.1 L 83.0,192.9 L 81.2,192.0 L 77.1,190.7 L 76.0,190.1 L 75.5,189.4 L 75.4,186.5 L 75.8,181.3 L 76.2,179.1 L 76.9,177.1 L 78.1,175.3 L 78.2,174.9 L 78.7,174.0 L 81.7,170.1 L 83.8,168.5 L 86.3,168.1 L 87.2,168.2 L 90.4,167.1 L 92.7,165.6 L 93.8,164.7 L 94.0,164.0 L 93.7,162.2 L 93.0,160.8 L 91.7,159.1 L 88.2,156.5 L 87.6,155.4 L 87.4,154.3 L 87.8,153.7 L 88.2,152.8 L 88.8,150.8 L 89.3,150.3 L 91.6,149.3 L 92.8,148.7 L 93.0,147.9 L 93.0,146.9 L 93.3,145.8 L 94.2,145.1 L 95.3,144.4 L 96.0,143.8 L 96.0,142.6 L 95.5,139.8 L 94.7,138.1 L 94.0,137.0 L 92.4,135.8 L 90.7,135.7 L 89.8,135.1 L 90.3,135.0 L 90.6,135.2 L 93.1,135.0 L 93.7,134.7 L 95.1,132.7 L 95.8,132.0 L 96.2,130.9 L 97.2,129.9 L 99.7,127.8 L 100.8,126.7 L 100.3,123.5 L 101.0,122.1 L 103.9,118.3 L 104.1,117.2 L 102.9,111.3 L 101.9,108.9 L 101.0,107.4 L 100.9,106.7 L 102.1,108.3 L 102.8,108.7 L 103.8,108.4 L 104.7,107.8 L 105.8,106.7 L 107.6,105.9 L 109.4,105.5 L 110.4,104.8 L 111.8,104.2 L 114.2,103.6 L 114.9,103.7 L 115.2,103.6 L 117.1,104.0 L 118.0,104.9 L 118.8,108.5 L 120.5,110.5 L 122.5,112.0 L 123.8,112.8 L 129.3,114.5 L 133.4,118.2 L 135.4,120.9 L 136.1,122.4 L 136.7,124.6 L 137.8,126.1 L 138.5,126.6 L 139.5,126.4 L 140.2,125.8 L 141.3,125.6 L 143.8,126.3 L 146.7,127.8 L 148.6,129.1 L 149.3,129.8 L 149.4,131.0 L 148.7,132.6 L 147.3,134.4 L 146.3,134.7 L 141.9,132.8 L 140.6,132.1 L 139.8,131.0 L 139.5,129.5 L 139.6,128.3 L 138.8,127.8 L 137.3,127.1 L 134.5,126.4 L 132.8,125.6 L 131.1,124.5 L 130.0,124.3 L 128.8,124.2 L 126.6,123.0 L 125.8,123.0 L 124.3,124.5 L 122.9,124.8 L 121.6,124.9 L 120.8,125.2 L 120.5,125.6 L 120.9,127.6 L 122.5,129.6 L 124.1,130.4 L 126.6,131.2 L 129.0,132.1 L 130.4,133.2 L 132.5,134.5 L 133.9,135.6 L 134.8,137.0 L 136.3,138.2 L 140.5,140.4 L 142.3,140.9 L 144.8,140.5 L 146.0,140.7 L 146.6,141.0 L 147.3,141.5 L 148.6,143.2 L 149.7,145.6 L 151.8,148.5 L 153.7,150.6 L 155.3,151.7 L 157.6,152.5 L 160.2,153.1 L 162.1,153.8 L 163.9,154.9 L 165.0,156.0 L 167.2,157.6 L 169.7,159.9 L 171.2,161.6 L 172.3,163.8 L 172.6,165.4 L 172.6,168.1 L 171.9,169.2 L 170.9,170.0 L 171.0,170.6 L 172.5,171.1 L 174.4,171.1 L 175.5,171.1 L 176.0,171.0 L 179.1,170.3 L 179.9,169.5 L 180.4,168.4 L 181.0,167.8 L 182.0,167.3 L 183.3,166.9 L 186.0,166.8 L 191.9,167.7 L 194.3,168.7 L 196.3,170.1 L 198.0,171.6 L 200.4,172.4 L 204.0,172.6 L 206.3,172.1 L 207.9,170.8 L 208.5,170.2 L 208.1,169.4 L 207.0,167.9 L 205.6,166.8 L 204.4,165.8 L 203.7,165.4 L 202.0,164.9 L 199.9,163.9 L 198.6,163.3 L 196.5,161.8 L 193.7,160.9 L 192.3,159.6 L 188.9,159.0 L 188.1,158.5 L 187.5,158.1 L 187.1,156.5 L 187.1,155.4 L 187.9,154.6 L 188.8,154.1 L 191.1,153.8 L 192.3,153.9 L 199.5,153.0 L 202.6,153.0 L 208.1,153.7 L 212.5,153.9 L 217.6,153.8 L 222.1,152.9 L 225.2,151.4 L 227.4,150.0 L 228.6,148.6 L 228.6,148.6 L 230.4,146.6 L 231.0,145.5 L 232.4,145.2 L 233.6,145.3 L 236.4,146.2 L 240.0,147.3 L 242.9,147.9 L 245.0,147.9 L 249.1,147.3 L 251.5,147.2 L 253.4,146.7 L 255.2,145.8 L 256.8,145.3 L 260.2,144.0 L 260.9,144.0 L 261.5,144.1 L 263.0,143.6 L 264.0,142.4 L 265.6,141.8 L 266.2,140.8 L 266.1,138.8 L 267.0,137.4 L 268.4,136.6 L 269.6,136.4 L 272.1,136.4 L 274.3,137.2 L 277.6,139.5 L 278.5,140.7 L 278.6,141.2 L 278.9,141.8 L 279.2,146.0 L 279.9,147.6 L 281.0,149.3 L 282.5,150.3 L 284.7,151.5 L 286.2,151.3 L 287.0,151.6 L 289.2,151.6 L 289.3,151.6 L 290.1,151.2 L 291.3,151.0 L 294.1,151.4 L 295.3,151.1 L 296.4,150.4 L 298.2,150.0 L 299.2,150.3 L 301.5,149.8 L 303.0,149.3 L 306.4,148.5 L 307.3,148.1 L 308.6,147.8 L 309.6,146.9 L 311.2,146.2 L 311.8,146.0 L 313.8,145.8 L 315.2,146.2 L 315.7,146.6 L 317.0,148.6 L 318.8,150.7 L 320.2,152.7 L 321.6,154.3 L 324.7,156.4 L 327.1,157.5 L 332.5,159.4 L 335.2,160.1 L 340.1,161.7 L 344.5,162.6 L 347.2,163.6 L 350.2,164.3 L 356.3,166.0 L 357.8,166.2 L 358.1,166.5 L 359.1,167.2 L 360.0,167.1 L 316.4,231.0 L 315.7,230.5 L 314.5,230.7 L 312.7,230.0 L 312.3,228.1 L 311.6,227.9 L 310.9,226.8 L 310.5,226.1 L 310.3,224.7 L 310.3,223.4 L 310.1,221.9 L 310.2,221.1 L 309.8,220.6 L 308.7,220.0 L 307.5,218.6 L 306.0,217.6 L 303.9,215.7 L 302.8,215.6 L 302.0,215.0 L 301.4,214.6 L 300.8,213.7 L 298.5,214.2 L 297.5,215.7 L 297.0,215.9 L 296.1,215.9 L 294.5,214.9 L 293.9,214.7 L 293.7,214.1 L 291.6,213.5 L 290.6,213.5 L 289.6,212.9 L 288.6,213.0 L 287.5,212.4 L 286.4,212.5 L 285.8,211.6 L 283.7,210.2 L 282.5,209.9 L 279.9,208.6 L 278.8,208.6 L 278.1,208.4 L 274.7,209.7 L 273.9,210.4 L 273.6,210.6 L 272.3,211.3 L 269.9,211.9 L 267.3,211.8 L 266.2,211.4 L 264.1,210.2 L 262.5,210.2 L 260.2,210.5 L 257.3,210.4 L 255.5,209.6 L 255.2,210.0 L 255.1,211.3 L 254.7,212.2 L 254.9,213.1 L 256.6,214.9 L 260.5,220.3 L 263.1,225.3 L 264.6,228.3 L 265.5,230.4 L 267.6,234.0 L 268.6,235.3 L 269.6,236.6 L 270.3,237.3 L 139.0,295.5 L 138.9,295.3 L 138.7,295.1 L 138.0,295.1 L 136.4,295.9 L 134.5,296.4 L 132.6,295.7 L 130.5,294.0 L 129.5,292.9 L 127.7,291.7 L 125.1,289.7 L 122.6,288.4 L 118.7,287.1 L 115.1,286.4 L 111.5,284.9 L 109.9,284.0 L 108.5,282.8 L 107.3,281.6 L 105.8,280.3 L 105.3,277.3 L 105.7,275.2 L 106.3,273.9 L 106.9,273.1 L 107.8,272.6 L 110.7,272.3 L 113.1,271.8 L 114.8,271.2 L 116.0,270.6 L 116.9,269.6 L 118.6,266.7 L 119.2,265.3 L 119.6,264.4 L 119.3,262.8 L 118.9,262.1 L 117.1,260.5 L 113.6,258.8 L 112.2,257.6 L 111.5,257.4 L 108.3,257.3 L 104.0,257.8 L 102.9,258.2 L 100.5,259.9 L 98.9,260.3 L 97.7,260.3 L 93.0,258.8 L 91.0,257.4 L 88.8,255.0 L 87.5,254.6 L 85.9,254.4 L 85.2,254.1 L 84.1,254.0 L 82.1,254.3 L 80.2,255.3 L 79.3,256.7 L 78.8,262.8 L 78.6,265.0 L 78.4,266.3 L 77.3,269.2 L 75.8,271.4 L 75.8,271.5 L 74.9,272.3 L 73.3,272.7 L 72.2,272.3 L 68.4,269.7 L 63.2,267.1 L 57.3,264.5 L 52.3,261.7 L 47.9,260.0 L 47.3,259.8 L 44.0,258.8 L 43.8,258.9 L 42.2,258.3 L 41.1,257.2 L 40.1,253.9 L 40.0,251.9 L 40.6,248.7 L 41.6,246.8 L 42.8,245.2 L 42.5,244.5 L 43.2,244.1 L 43.4,244.4 L 44.0,245.3 L 46.2,245.1 L 49.6,245.0 L 56.1,245.4 L 59.4,246.8 L 61.3,246.8 L 62.8,246.4 L 64.3,245.5 L 65.6,243.8 L 66.5,241.1 L 67.4,239.7 L 67.6,238.0 L 68.3,236.6 L 68.5,235.3 L 69.0,232.3 L 69.5,231.2 L 71.4,228.9 L 71.6,227.1" fill="none" stroke="black" stroke-width="2"/>
</svg>