<?xml version="1.0" encoding="UTF-8"?>
<svg width="400" height="400" viewBox="0 0 400 400" xmlns="http://www.w3.org/2000/svg">
  <rect width="400" height="400" fill="white"/>
  <path d="M 185.9,313.7 L 185.4,313.6 L 179.6,308.2 L 176.3,303.6 L 173.7,301.7 L 168.0,298.9 L 165.7,298.5 L 162.6,297.2 L 156.3,295.6 L 147.5,291.5 L 129.7,278.3 L 126.5,275.2 L 119.3,270.0 L 103.7,255.7 L 94.5,250.5 L 83.4,245.7 L 76.3,243.4 L 68.5,238.8 L 60.3,232.6 L 47.3,218.7 L 44.6,213.6 L 40.9,202.6 L 40.1,195.3 L 40.0,187.5 L 40.7,175.8 L 45.2,167.2 L 49.1,161.0 L 50.0,157.9 L 52.2,155.0 L 51.8,148.3 L 52.7,142.2 L 49.6,141.3 L 49.2,141.5 L 106.0,84.1 L 106.8,83.9 L 111.9,79.7 L 112.7,78.0 L 114.3,76.7 L 118.3,76.0 L 120.6,76.3 L 129.0,75.3 L 137.4,72.3 L 143.1,68.5 L 145.1,64.5 L 146.4,63.2 L 151.5,62.4 L 153.5,63.5 L 159.0,67.8 L 161.8,86.3 L 160.8,90.0 L 162.8,92.9 L 162.6,95.9 L 156.9,102.2 L 153.7,103.4 L 152.5,105.0 L 154.1,106.3 L 155.7,108.7 L 163.3,110.3 L 169.9,111.9 L 176.9,115.3 L 180.8,116.4 L 185.6,118.6 L 192.5,123.8 L 197.3,124.2 L 217.0,135.6 L 221.1,139.4 L 241.4,155.1 L 249.8,162.6 L 255.9,165.3 L 262.2,169.9 L 265.9,171.8 L 274.1,171.4 L 281.2,175.1 L 285.0,175.2 L 286.0,175.0 L 290.0,180.7 L 293.8,187.5 L 295.1,193.3 L 297.0,195.9 L 298.9,200.8 L 305.1,208.1 L 308.2,212.3 L 311.2,214.5 L 319.7,214.2 L 321.3,214.7 L 327.9,221.4 L 330.5,227.7 L 333.9,232.3 L 337.6,233.2 L 340.7,233.5 L 342.1,235.5 L 344.3,237.0 L 347.5,238.3 L 352.7,238.6 L 355.3,240.5 L 357.5,249.1 L 359.7,256.6 L 360.0,260.1 L 357.7,262.1 L 358.3,265.7 L 357.6,268.4 L 354.9,270.7 L 354.8,274.0 L 353.2,277.7 L 350.3,280.7 L 349.0,282.1 L 345.8,282.9 L 344.3,281.9 L 341.1,279.7 L 338.1,276.8 L 334.2,275.9 L 330.7,272.7 L 326.8,271.1 L 324.0,270.5 L 320.3,270.3 L 317.3,268.1 L 311.5,266.5 L 303.8,267.8 L 301.2,269.8 L 297.3,270.7 L 292.2,273.9 L 288.4,279.0 L 284.8,281.1 L 282.4,283.0 L 278.3,285.4 L 275.4,289.7 L 270.0,295.3 L 269.2,297.0 L 264.9,306.2 L 262.4,308.5 L 260.8,308.1 L 256.8,308.3 L 254.7,309.8 L 252.6,310.5 L 251.1,312.6 L 251.4,320.8 L 249.7,324.4 L 246.0,326.8 L 234.5,336.2 L 228.3,337.6 L 213.9,335.8 L 210.0,333.1 L 206.0,325.8 L 202.1,322.9 L 196.8,317.6 L 190.3,314.3 L 185.9,313.7" fill="none" stroke="black" stroke-width="2"/>
</svg>