<?xml version="1.0" encoding="UTF-8"?>
<svg width="400" height="400" viewBox="0 0 400 400" xmlns="http://www.w3.org/2000/svg">
  <rect width="400" height="400" fill="white"/>
  <path d="M 167.1,202.5 L 168.2,201.5 L 168.9,201.2 L 169.1,200.5 L 169.1,199.9 L 172.2,195.6 L 172.9,195.3 L 173.5,194.4 L 173.7,193.8 L 174.3,193.3 L 175.3,192.1 L 175.8,191.9 L 175.8,191.4 L 175.1,190.7 L 175.1,190.1 L 175.7,188.8 L 177.2,187.4 L 177.8,186.9 L 179.0,185.3 L 179.9,184.8 L 179.8,184.0 L 180.5,183.7 L 180.8,182.9 L 181.7,181.8 L 182.2,181.6 L 182.7,181.0 L 182.6,180.3 L 182.6,179.7 L 182.7,178.7 L 183.1,177.8 L 184.5,176.8 L 186.0,175.6 L 186.4,174.2 L 186.1,173.4 L 186.0,172.7 L 185.4,172.2 L 186.1,170.7 L 186.5,170.4 L 186.4,169.8 L 186.7,168.9 L 188.8,167.6 L 189.9,166.6 L 189.7,166.2 L 189.0,165.8 L 189.3,165.5 L 190.1,165.2 L 190.6,164.6 L 190.6,163.6 L 191.8,161.9 L 192.8,160.5 L 192.6,159.9 L 193.8,158.3 L 195.7,156.5 L 196.5,155.5 L 197.4,154.5 L 197.7,153.6 L 199.5,152.3 L 200.2,151.1 L 201.4,150.1 L 202.0,149.3 L 201.9,148.5 L 201.0,147.8 L 200.9,147.0 L 201.0,146.3 L 200.7,145.1 L 202.1,143.2 L 203.2,142.2 L 203.9,140.6 L 205.7,139.0 L 206.3,138.1 L 207.0,137.5 L 207.4,137.0 L 208.1,136.5 L 209.2,135.1 L 211.0,133.3 L 211.5,132.1 L 212.5,130.8 L 212.5,130.0 L 212.9,129.8 L 213.4,129.6 L 214.2,128.5 L 214.3,128.0 L 215.3,127.1 L 215.9,126.0 L 216.1,125.2 L 216.6,124.3 L 217.3,123.1 L 217.9,122.8 L 219.0,121.4 L 219.4,120.6 L 220.2,119.5 L 220.1,118.4 L 221.0,117.3 L 221.9,115.6 L 222.4,114.6 L 222.5,113.3 L 222.8,112.6 L 223.3,109.5 L 223.2,107.7 L 223.6,106.4 L 223.3,103.9 L 223.5,103.4 L 223.5,101.8 L 223.7,100.4 L 224.2,98.7 L 224.8,95.8 L 225.4,94.3 L 225.4,93.4 L 225.2,92.9 L 224.9,91.8 L 224.3,91.3 L 224.4,90.6 L 222.6,87.4 L 222.5,86.0 L 222.6,85.6 L 223.9,83.7 L 224.9,82.5 L 225.6,81.5 L 227.1,78.2 L 227.6,76.2 L 228.3,74.0 L 228.1,73.5 L 227.4,72.5 L 226.7,72.0 L 226.5,70.0 L 226.8,68.7 L 226.7,67.4 L 226.9,66.8 L 226.6,66.2 L 226.9,65.8 L 227.1,64.7 L 226.9,63.6 L 227.0,62.0 L 227.3,61.1 L 227.3,60.4 L 227.8,59.6 L 228.2,57.9 L 228.7,56.4 L 229.3,55.0 L 229.4,53.8 L 229.7,51.9 L 230.0,50.8 L 230.1,50.5 L 230.7,49.9 L 230.9,48.9 L 231.3,48.4 L 232.3,43.6 L 232.3,42.0 L 232.5,40.9 L 232.5,40.6 L 232.4,40.0 L 317.7,95.1 L 318.0,95.4 L 317.8,96.0 L 318.1,96.4 L 318.2,97.3 L 318.9,98.8 L 319.6,99.5 L 321.4,99.7 L 321.7,99.6 L 322.3,100.6 L 321.7,101.3 L 322.6,102.3 L 323.1,103.2 L 323.6,104.3 L 324.0,105.2 L 324.2,106.6 L 324.0,107.2 L 324.2,107.9 L 324.3,108.3 L 324.7,108.6 L 324.9,109.7 L 325.3,110.3 L 325.1,111.0 L 325.4,111.5 L 325.3,112.0 L 325.9,114.2 L 326.2,114.8 L 326.7,116.4 L 326.2,117.4 L 326.5,118.4 L 326.5,119.0 L 326.8,120.8 L 326.5,123.9 L 326.1,124.8 L 325.9,125.8 L 325.1,127.3 L 324.7,128.4 L 324.4,133.2 L 324.1,134.0 L 324.0,135.1 L 323.9,135.4 L 323.6,135.9 L 323.3,137.3 L 322.2,138.5 L 322.4,139.6 L 322.1,140.2 L 321.7,141.5 L 320.7,142.3 L 320.1,143.2 L 320.1,144.1 L 321.5,145.4 L 321.7,146.3 L 321.4,146.9 L 320.4,146.5 L 317.3,146.5 L 315.4,145.8 L 313.5,144.8 L 313.1,144.1 L 312.8,141.8 L 312.9,141.1 L 310.6,138.6 L 309.7,138.2 L 309.5,138.2 L 308.8,137.2 L 308.7,136.2 L 307.8,135.0 L 307.0,134.1 L 306.5,134.2 L 305.9,134.8 L 304.5,135.1 L 304.1,135.7 L 304.3,136.6 L 303.5,136.9 L 302.6,138.0 L 301.4,138.9 L 301.6,139.9 L 301.6,139.9 L 301.5,140.5 L 301.5,141.2 L 301.2,142.6 L 300.0,144.9 L 299.7,145.9 L 299.9,146.2 L 300.0,146.8 L 300.3,147.6 L 299.3,148.7 L 298.9,149.5 L 297.4,150.9 L 296.5,151.4 L 295.1,152.8 L 294.7,153.7 L 294.5,154.7 L 293.8,156.1 L 292.2,158.3 L 292.2,159.2 L 292.1,159.6 L 291.3,159.9 L 290.8,160.3 L 290.8,160.8 L 289.2,161.5 L 288.2,162.4 L 286.9,164.3 L 286.2,165.6 L 285.9,166.9 L 285.1,168.2 L 285.4,169.8 L 283.9,171.5 L 283.6,172.3 L 283.3,173.2 L 280.3,176.2 L 278.1,177.7 L 273.5,181.8 L 272.6,183.2 L 272.4,184.1 L 272.1,185.0 L 272.2,185.7 L 271.9,186.1 L 270.2,188.3 L 268.6,190.1 L 268.1,190.3 L 266.6,191.1 L 266.0,191.3 L 265.3,190.6 L 265.1,190.1 L 264.7,190.1 L 263.3,190.9 L 261.6,191.8 L 259.4,193.3 L 259.0,193.8 L 258.6,194.2 L 257.1,196.8 L 257.3,198.5 L 257.7,199.1 L 258.3,199.7 L 258.1,201.7 L 258.4,202.2 L 258.5,203.0 L 258.0,203.8 L 258.2,205.1 L 258.1,205.8 L 258.2,206.6 L 259.6,207.8 L 259.8,208.3 L 259.6,209.2 L 259.9,211.1 L 259.8,211.3 L 259.4,212.3 L 259.1,213.4 L 259.0,214.6 L 259.0,216.1 L 259.6,217.1 L 259.5,217.7 L 258.7,219.2 L 258.0,220.7 L 258.1,221.6 L 258.8,222.4 L 259.7,223.1 L 260.6,223.9 L 261.1,225.2 L 260.9,227.3 L 259.5,228.8 L 257.7,231.3 L 258.0,231.8 L 257.7,232.7 L 257.1,233.6 L 256.6,234.8 L 255.7,236.0 L 255.6,237.2 L 255.3,238.0 L 255.1,238.9 L 254.6,239.6 L 254.5,240.6 L 251.7,242.9 L 251.3,243.4 L 251.1,243.5 L 250.6,244.1 L 249.4,246.7 L 249.1,247.6 L 249.2,248.6 L 248.6,249.6 L 248.6,250.0 L 249.2,251.3 L 249.4,252.2 L 249.3,252.8 L 248.2,254.0 L 247.9,254.1 L 247.7,254.1 L 247.6,254.1 L 247.3,253.8 L 246.8,253.6 L 245.7,253.8 L 245.1,254.6 L 245.0,254.7 L 244.3,255.2 L 243.9,256.3 L 244.1,257.4 L 243.9,257.8 L 242.9,258.4 L 241.8,259.4 L 242.2,261.5 L 242.7,263.1 L 242.2,264.1 L 242.1,264.8 L 241.1,266.9 L 241.1,267.6 L 239.5,270.4 L 238.9,272.4 L 236.0,276.6 L 236.0,277.3 L 235.8,278.1 L 236.4,280.8 L 236.3,281.4 L 235.2,284.4 L 234.4,287.5 L 234.2,289.1 L 234.2,291.1 L 234.1,292.2 L 234.7,297.0 L 235.5,300.1 L 236.1,306.7 L 236.8,311.5 L 237.8,312.5 L 239.6,313.6 L 241.1,315.4 L 241.7,316.8 L 242.8,318.5 L 243.3,321.1 L 244.4,322.5 L 244.7,323.7 L 245.2,323.8 L 245.7,324.1 L 246.5,325.5 L 246.8,327.5 L 247.5,328.4 L 249.6,330.4 L 249.8,331.4 L 250.4,332.0 L 251.7,333.2 L 252.1,334.5 L 252.7,335.4 L 254.4,336.7 L 255.6,337.3 L 257.8,338.8 L 258.2,339.4 L 257.8,340.7 L 257.9,341.4 L 258.2,342.1 L 258.6,343.1 L 260.9,345.6 L 261.8,346.6 L 261.7,347.2 L 261.9,348.3 L 261.7,349.0 L 261.8,349.6 L 262.6,349.8 L 262.6,350.4 L 262.3,350.9 L 261.4,351.2 L 260.5,352.6 L 260.6,353.4 L 260.2,354.7 L 259.8,355.1 L 258.3,356.5 L 255.2,357.3 L 254.7,357.9 L 254.5,358.6 L 254.4,358.9 L 253.5,359.3 L 252.1,359.2 L 246.9,360.0 L 246.1,359.2 L 245.3,358.0 L 245.1,357.6 L 244.6,355.8 L 242.9,353.2 L 242.2,351.7 L 241.9,351.5 L 241.6,351.0 L 241.1,349.4 L 239.9,348.1 L 239.0,346.2 L 238.3,343.4 L 235.8,341.1 L 235.1,339.7 L 234.9,338.9 L 234.0,337.8 L 233.8,336.6 L 232.1,332.4 L 231.5,330.5 L 231.1,328.0 L 230.4,327.0 L 228.9,325.3 L 226.9,324.1 L 225.6,324.1 L 224.7,323.5 L 223.8,322.7 L 222.6,322.4 L 221.6,321.8 L 221.0,321.9 L 219.0,323.3 L 219.4,324.6 L 218.7,327.8 L 217.6,330.7 L 215.6,334.3 L 215.3,335.6 L 214.7,337.0 L 214.3,338.6 L 214.6,340.5 L 214.0,341.9 L 213.9,342.9 L 213.7,344.8 L 213.2,346.4 L 212.9,347.9 L 211.7,349.2 L 210.6,350.1 L 208.3,351.0 L 206.5,351.4 L 202.6,350.8 L 199.4,349.9 L 199.3,350.0 L 199.0,349.9 L 198.8,350.0 L 198.1,350.1 L 196.6,349.0 L 196.5,349.0 L 195.8,348.9 L 195.0,349.2 L 191.8,348.3 L 189.5,347.5 L 187.5,346.6 L 187.2,346.6 L 184.8,345.1 L 182.7,344.0 L 182.0,343.0 L 181.2,341.2 L 180.9,341.0 L 180.2,341.4 L 178.9,343.3 L 176.5,345.5 L 175.4,346.1 L 171.4,346.8 L 169.5,346.7 L 167.4,345.8 L 166.7,344.9 L 166.5,344.8 L 165.0,345.0 L 164.0,345.5 L 163.4,345.6 L 162.4,345.0 L 161.2,345.1 L 160.0,344.6 L 159.2,344.6 L 158.7,345.0 L 157.7,345.4 L 156.7,346.1 L 155.7,347.7 L 155.3,348.5 L 155.7,349.3 L 155.9,350.0 L 155.5,351.5 L 155.6,351.7 L 153.9,352.2 L 153.3,351.2 L 153.0,351.0 L 152.0,351.7 L 149.9,352.1 L 149.0,351.8 L 148.8,351.5 L 148.2,351.6 L 146.2,350.5 L 145.6,350.0 L 145.0,349.9 L 144.5,349.6 L 144.1,349.1 L 144.1,348.6 L 144.3,348.3 L 144.1,347.9 L 143.6,347.6 L 143.3,347.8 L 142.7,347.9 L 141.9,347.3 L 141.5,346.0 L 141.7,345.5 L 142.6,345.4 L 142.7,345.0 L 142.5,344.4 L 142.6,344.2 L 145.2,343.7 L 146.0,343.3 L 146.7,343.3 L 148.0,343.5 L 148.6,343.1 L 149.2,341.8 L 149.5,339.9 L 149.4,337.9 L 150.5,336.1 L 150.3,335.4 L 149.1,333.9 L 146.9,332.2 L 145.0,329.8 L 144.5,327.7 L 143.7,326.5 L 143.5,325.5 L 142.9,324.5 L 142.7,323.0 L 141.9,321.9 L 141.6,320.8 L 141.1,320.7 L 140.6,320.9 L 140.3,320.8 L 139.9,320.5 L 139.0,320.8 L 138.3,320.5 L 137.6,320.6 L 137.0,320.1 L 136.9,319.7 L 136.5,319.2 L 135.7,319.2 L 134.8,319.7 L 132.5,320.2 L 130.8,321.7 L 129.5,323.3 L 127.3,327.1 L 125.8,328.6 L 124.7,328.9 L 123.3,328.6 L 122.8,328.0 L 122.4,326.5 L 121.8,325.9 L 121.3,326.0 L 120.8,326.3 L 120.2,327.2 L 119.8,328.3 L 119.1,329.0 L 116.9,329.4 L 115.4,329.0 L 113.6,328.1 L 112.9,328.2 L 111.9,328.8 L 111.2,329.6 L 110.8,330.7 L 110.4,332.9 L 110.5,333.5 L 110.1,334.1 L 107.1,334.5 L 105.8,335.6 L 104.9,335.8 L 104.4,336.3 L 104.5,337.3 L 105.0,338.3 L 105.3,339.4 L 105.6,340.4 L 105.5,341.4 L 105.1,342.3 L 104.3,343.2 L 103.8,343.8 L 103.4,344.6 L 102.7,344.8 L 101.9,344.4 L 100.7,343.4 L 100.1,343.1 L 99.2,343.2 L 98.3,343.7 L 94.2,345.1 L 93.0,345.4 L 92.4,345.4 L 92.1,345.4 L 90.2,346.4 L 88.3,347.5 L 86.0,349.5 L 84.5,350.3 L 83.9,350.9 L 83.9,352.0 L 83.4,351.9 L 83.0,351.6 L 81.9,351.4 L 79.0,350.2 L 78.2,349.0 L 77.4,347.2 L 77.9,345.9 L 77.4,345.5 L 76.1,345.6 L 75.3,345.3 L 74.0,344.1 L 73.2,343.5 L 73.8,343.5 L 74.7,344.1 L 76.6,344.9 L 76.9,344.8 L 76.5,343.7 L 76.6,342.9 L 76.7,342.2 L 76.7,341.4 L 77.1,341.0 L 78.2,340.6 L 78.8,340.0 L 79.8,339.6 L 81.1,338.0 L 82.0,336.7 L 82.1,335.5 L 82.8,334.5 L 84.6,334.2 L 85.4,333.9 L 86.8,333.0 L 87.8,332.5 L 89.5,330.8 L 90.8,329.4 L 92.2,328.2 L 92.9,326.5 L 93.7,325.8 L 94.8,325.3 L 94.9,325.2 L 95.2,324.9 L 95.6,323.8 L 95.9,322.7 L 96.5,322.2 L 98.8,321.8 L 99.4,321.4 L 100.2,320.5 L 100.6,319.3 L 101.1,319.1 L 102.8,318.6 L 103.1,318.4 L 105.1,317.3 L 107.5,316.5 L 107.8,316.4 L 110.8,315.7 L 114.0,311.6 L 115.5,311.1 L 115.6,310.6 L 115.6,309.9 L 116.1,308.9 L 117.2,307.3 L 117.2,306.6 L 117.5,305.7 L 117.6,304.8 L 118.3,303.5 L 118.7,301.2 L 119.3,299.9 L 119.3,299.3 L 120.1,298.0 L 120.2,296.9 L 120.8,296.0 L 120.7,295.3 L 121.3,294.4 L 122.3,293.5 L 123.3,290.7 L 124.2,289.2 L 124.9,286.5 L 124.8,286.3 L 125.2,285.4 L 125.8,284.8 L 126.1,284.1 L 126.5,282.4 L 128.1,281.2 L 129.3,279.7 L 130.1,277.7 L 130.2,277.5 L 130.7,276.8 L 131.7,276.0 L 132.5,275.0 L 135.2,272.9 L 138.8,269.5 L 139.5,269.2 L 140.3,268.4 L 140.7,267.7 L 141.7,266.8 L 142.3,265.6 L 143.3,264.3 L 143.6,263.5 L 143.8,263.3 L 144.6,261.9 L 145.4,261.4 L 145.5,259.8 L 145.6,259.3 L 146.2,258.3 L 145.8,256.2 L 146.5,254.3 L 147.5,252.9 L 147.7,252.3 L 148.5,251.6 L 149.0,250.4 L 148.6,247.4 L 149.7,245.2 L 149.7,244.6 L 150.1,244.1 L 150.9,243.4 L 150.9,242.8 L 151.3,242.4 L 151.7,241.8 L 151.7,241.3 L 151.9,240.8 L 151.7,239.6 L 152.0,238.9 L 151.5,236.8 L 151.7,235.8 L 152.3,234.1 L 153.3,232.7 L 154.2,231.9 L 154.6,230.9 L 156.5,228.7 L 156.9,227.3 L 157.2,226.2 L 156.7,225.5 L 156.7,224.9 L 157.4,223.4 L 158.0,222.8 L 159.3,221.8 L 158.9,219.4 L 158.6,218.8 L 158.7,218.3 L 157.9,217.3 L 157.7,216.5 L 157.2,216.1 L 157.5,215.3 L 157.6,214.8 L 157.1,214.2 L 157.0,213.3 L 158.4,211.6 L 159.7,211.1 L 161.7,210.6 L 161.9,210.2 L 162.3,210.1 L 163.3,209.5 L 163.5,208.9 L 164.1,208.2 L 164.1,207.6 L 165.2,207.2 L 166.1,206.3 L 166.5,204.8 L 166.2,203.5 L 166.9,203.1 L 167.0,202.7 L 167.1,202.5" fill="none" stroke="black" stroke-width="2"/>
</svg>