<?xml version="1.0" encoding="UTF-8"?>
<svg width="400" height="400" viewBox="0 0 400 400" xmlns="http://www.w3.org/2000/svg">
  <rect width="400" height="400" fill="white"/>
  <path d="M 41.8,207.0 L 41.8,207.0 L 41.9,206.8 L 41.8,206.8 L 41.9,206.6 L 42.1,206.5 L 42.2,206.4 L 42.1,206.2 L 42.1,206.1 L 42.0,206.0 L 41.7,206.0 L 41.6,205.9 L 41.9,205.5 L 41.8,205.3 L 41.8,205.2 L 41.9,204.9 L 42.0,204.8 L 42.1,204.7 L 42.0,204.5 L 41.9,204.6 L 41.9,204.4 L 42.0,204.4 L 42.0,204.5 L 42.1,204.3 L 42.1,204.3 L 42.1,204.1 L 42.0,204.0 L 41.8,204.1 L 41.6,203.9 L 41.7,203.9 L 41.7,203.8 L 41.5,203.7 L 41.4,203.7 L 41.3,203.5 L 41.2,203.6 L 41.1,203.6 L 41.0,203.6 L 40.8,203.8 L 40.7,203.8 L 40.6,203.7 L 40.6,203.5 L 40.6,203.2 L 40.5,203.2 L 40.5,203.0 L 40.5,203.0 L 40.1,203.2 L 40.1,203.1 L 40.1,203.0 L 40.0,203.0 L 40.0,202.7 L 40.1,202.4 L 40.1,202.1 L 40.2,201.9 L 40.2,201.8 L 40.2,201.6 L 117.7,123.5 L 174.2,66.6 L 174.2,66.6 L 174.2,66.6 L 174.2,66.8 L 174.5,67.0 L 174.6,67.2 L 174.9,67.3 L 175.0,67.4 L 175.1,67.7 L 175.5,67.8 L 175.5,67.9 L 175.8,68.2 L 175.8,68.3 L 175.8,68.3 L 175.7,68.5 L 175.8,68.5 L 176.3,68.9 L 176.8,69.0 L 177.1,69.3 L 177.2,69.2 L 177.2,69.2 L 177.3,69.5 L 177.7,69.9 L 177.9,69.9 L 177.9,69.9 L 178.8,69.7 L 179.0,69.5 L 179.1,69.5 L 179.0,69.8 L 179.0,70.0 L 179.1,70.1 L 179.4,70.0 L 179.5,69.9 L 179.6,70.0 L 179.7,70.0 L 179.9,69.8 L 180.0,69.7 L 180.1,69.6 L 180.0,69.6 L 180.0,69.6 L 180.4,69.5 L 180.6,69.3 L 180.6,69.3 L 180.6,69.3 L 180.7,69.1 L 180.9,69.1 L 181.0,69.2 L 181.1,69.2 L 181.4,68.9 L 181.7,68.8 L 182.0,68.6 L 182.2,68.4 L 182.3,68.4 L 182.4,68.6 L 182.4,68.7 L 182.2,69.0 L 182.1,69.1 L 182.2,69.2 L 182.5,69.1 L 182.6,69.0 L 182.7,68.9 L 183.0,68.9 L 183.1,68.8 L 183.2,68.9 L 183.4,68.9 L 183.5,69.0 L 183.4,69.1 L 183.4,69.2 L 183.6,69.2 L 183.7,69.1 L 183.9,68.9 L 184.1,68.8 L 184.4,69.0 L 184.7,69.0 L 184.9,69.0 L 185.0,69.0 L 185.5,68.9 L 185.7,68.8 L 186.2,68.9 L 186.5,69.0 L 186.6,69.0 L 186.7,68.9 L 186.9,68.9 L 187.0,69.1 L 187.1,69.1 L 187.2,69.0 L 187.3,69.0 L 187.3,69.2 L 187.4,69.3 L 187.5,69.4 L 187.6,69.3 L 187.6,69.2 L 188.0,69.5 L 188.0,69.6 L 187.8,69.6 L 187.8,69.7 L 187.8,69.8 L 188.0,69.8 L 188.1,69.9 L 188.1,70.0 L 188.0,70.2 L 188.1,70.3 L 188.0,70.4 L 187.9,70.4 L 187.8,70.4 L 187.7,70.4 L 187.7,70.6 L 187.7,70.7 L 187.6,70.6 L 187.5,70.5 L 187.4,70.4 L 187.2,70.5 L 187.3,70.7 L 187.3,71.0 L 187.1,71.0 L 187.1,71.1 L 187.1,71.2 L 187.2,71.3 L 187.2,71.4 L 187.0,71.5 L 187.0,71.6 L 186.8,71.7 L 186.8,71.8 L 186.7,71.9 L 186.7,72.2 L 186.5,72.2 L 186.4,72.3 L 186.3,72.3 L 186.2,72.3 L 186.1,72.3 L 185.8,72.7 L 185.8,72.8 L 185.9,72.9 L 186.1,72.8 L 186.1,72.7 L 186.2,72.7 L 186.4,72.8 L 186.4,72.9 L 186.0,73.1 L 185.9,73.2 L 185.9,73.4 L 186.0,73.4 L 186.2,73.5 L 186.3,73.4 L 186.5,73.4 L 186.6,73.3 L 186.7,73.4 L 186.7,73.5 L 186.6,73.7 L 186.7,73.8 L 187.0,73.7 L 187.1,73.6 L 187.1,73.5 L 187.2,73.5 L 187.2,73.7 L 187.4,73.7 L 187.5,73.7 L 187.4,73.9 L 187.4,74.1 L 187.3,74.3 L 187.4,74.3 L 187.5,74.3 L 187.6,74.2 L 187.6,74.4 L 187.5,74.5 L 187.4,74.7 L 187.5,74.7 L 187.6,74.8 L 187.4,75.0 L 187.5,75.0 L 187.6,75.1 L 187.5,75.4 L 187.6,75.4 L 187.6,75.6 L 187.5,75.8 L 187.2,75.9 L 187.0,76.2 L 186.7,76.4 L 186.6,76.6 L 186.7,76.6 L 187.2,76.4 L 187.5,76.5 L 187.9,76.5 L 187.9,76.6 L 187.9,76.6 L 187.7,76.8 L 187.6,76.9 L 187.6,76.8 L 187.6,76.7 L 187.1,76.9 L 187.1,76.9 L 187.0,76.9 L 186.9,77.0 L 186.9,77.1 L 187.0,77.2 L 186.9,77.4 L 187.1,77.5 L 187.2,77.4 L 187.6,77.1 L 187.9,77.1 L 188.1,77.0 L 188.5,76.8 L 188.6,76.8 L 189.2,76.7 L 189.4,76.6 L 189.5,76.6 L 189.7,76.5 L 189.9,76.5 L 190.1,76.5 L 190.5,76.3 L 191.0,76.2 L 191.2,76.1 L 191.2,76.1 L 191.3,76.1 L 191.6,76.0 L 191.8,75.8 L 192.1,75.7 L 192.3,75.6 L 192.3,75.7 L 192.6,75.8 L 193.0,75.7 L 193.1,75.6 L 193.2,75.6 L 200.2,83.0 L 200.1,83.4 L 200.1,83.5 L 199.9,83.6 L 199.9,83.7 L 200.0,83.9 L 199.7,84.2 L 199.7,84.3 L 199.8,84.4 L 200.1,84.5 L 199.9,84.6 L 199.9,84.8 L 200.1,84.9 L 200.1,85.0 L 200.0,85.1 L 200.2,85.1 L 200.2,85.1 L 200.9,85.0 L 201.1,85.1 L 201.2,85.1 L 201.3,85.2 L 201.2,85.3 L 201.2,85.3 L 201.4,85.3 L 201.5,85.4 L 201.4,85.5 L 201.4,85.6 L 201.6,85.5 L 201.8,85.5 L 202.1,85.6 L 202.1,85.9 L 202.3,86.0 L 202.5,86.0 L 202.5,86.2 L 202.5,86.4 L 202.1,86.4 L 202.1,86.5 L 202.4,86.6 L 202.5,86.8 L 202.4,86.9 L 202.4,86.9 L 202.2,86.9 L 201.9,87.0 L 201.8,87.2 L 201.4,87.4 L 200.6,87.8 L 200.5,87.8 L 200.3,88.2 L 200.2,88.2 L 200.1,88.1 L 199.6,88.3 L 199.3,88.6 L 199.3,88.7 L 199.4,88.7 L 199.3,88.9 L 199.4,89.0 L 199.4,89.1 L 199.0,89.2 L 198.9,89.2 L 198.8,89.3 L 199.1,89.5 L 199.0,89.6 L 198.9,89.8 L 198.7,90.0 L 198.5,90.1 L 198.4,89.9 L 198.2,89.9 L 198.0,90.0 L 197.7,90.3 L 197.6,90.4 L 197.6,90.6 L 197.4,90.7 L 197.3,90.7 L 197.1,90.9 L 197.1,91.2 L 196.9,91.3 L 196.7,91.5 L 196.5,91.6 L 196.5,91.7 L 196.6,91.7 L 196.7,91.8 L 196.8,91.9 L 196.9,91.9 L 197.0,91.7 L 197.2,91.6 L 197.4,91.6 L 197.4,91.7 L 197.4,91.8 L 197.3,91.9 L 197.2,92.0 L 197.1,92.1 L 197.1,92.3 L 197.0,92.4 L 196.7,92.5 L 196.6,92.6 L 196.5,93.0 L 196.5,93.2 L 196.7,93.2 L 196.8,93.2 L 196.9,93.2 L 197.0,93.3 L 196.9,93.4 L 196.7,93.4 L 196.6,93.6 L 196.2,93.8 L 196.1,94.0 L 195.9,94.1 L 195.5,94.3 L 195.4,94.3 L 194.9,94.5 L 194.9,94.5 L 194.8,94.6 L 194.9,94.6 L 194.9,94.6 L 195.0,94.6 L 194.9,94.6 L 194.9,94.7 L 193.8,95.3 L 193.4,95.5 L 193.3,95.6 L 193.2,95.7 L 193.6,95.8 L 194.0,95.7 L 194.1,95.8 L 193.8,95.9 L 193.7,96.0 L 193.7,96.1 L 193.6,96.3 L 193.6,96.4 L 193.6,96.6 L 194.4,96.3 L 194.6,96.2 L 194.9,96.1 L 195.1,96.0 L 195.2,95.9 L 195.7,95.7 L 195.8,95.8 L 195.9,95.9 L 195.9,95.9 L 196.0,96.0 L 195.9,96.1 L 196.0,96.2 L 196.1,96.3 L 195.9,96.4 L 196.0,96.8 L 195.8,96.9 L 195.7,97.2 L 195.7,97.3 L 196.2,97.6 L 196.2,97.7 L 196.0,97.7 L 196.0,97.8 L 196.0,97.9 L 196.2,98.0 L 196.3,98.1 L 196.5,98.3 L 196.8,98.3 L 196.8,98.3 L 196.5,98.6 L 196.6,98.8 L 196.8,99.0 L 197.2,99.0 L 197.3,99.0 L 197.3,99.2 L 197.2,99.4 L 196.8,99.4 L 196.6,99.6 L 196.6,99.9 L 196.5,100.0 L 196.5,100.2 L 196.4,100.3 L 196.2,100.3 L 196.1,100.3 L 195.5,100.2 L 194.4,100.4 L 194.2,100.5 L 194.0,100.6 L 193.8,100.7 L 193.6,100.7 L 193.5,100.9 L 193.4,100.9 L 193.4,101.0 L 193.3,101.2 L 193.1,101.2 L 192.9,101.5 L 192.9,101.6 L 193.1,101.6 L 193.4,101.6 L 193.5,101.7 L 193.7,101.8 L 194.2,101.8 L 194.3,101.7 L 194.4,101.7 L 194.4,101.8 L 193.9,102.0 L 193.8,102.1 L 193.7,102.2 L 194.1,102.3 L 194.5,102.3 L 194.6,102.4 L 193.9,102.7 L 193.8,102.8 L 193.8,102.9 L 194.0,103.0 L 194.2,103.2 L 194.4,103.2 L 194.5,103.2 L 194.9,103.2 L 194.9,103.4 L 194.8,103.6 L 194.9,103.6 L 195.0,103.7 L 195.2,103.7 L 195.4,103.8 L 195.5,103.8 L 195.6,103.9 L 195.9,103.9 L 196.0,104.0 L 196.4,103.9 L 196.7,103.7 L 196.7,103.6 L 196.7,103.6 L 197.5,103.4 L 197.6,103.3 L 197.8,103.4 L 198.1,103.3 L 198.2,103.4 L 198.5,103.3 L 198.6,103.2 L 198.7,103.2 L 198.8,103.3 L 198.9,103.4 L 199.2,103.4 L 199.3,103.3 L 199.4,103.4 L 199.9,103.4 L 199.9,103.3 L 199.9,103.1 L 200.0,103.1 L 200.1,103.3 L 200.4,103.2 L 200.3,103.4 L 200.3,103.5 L 200.4,103.5 L 200.5,103.4 L 200.6,103.5 L 200.8,103.5 L 200.8,103.5 L 200.6,103.6 L 200.6,103.7 L 200.8,103.8 L 201.4,103.7 L 201.4,103.6 L 201.5,103.6 L 201.6,103.7 L 201.5,104.0 L 201.5,104.1 L 201.6,104.1 L 201.7,104.0 L 201.8,104.0 L 201.9,104.1 L 202.1,104.1 L 202.0,104.3 L 202.1,104.3 L 202.2,104.3 L 202.6,104.3 L 202.6,104.4 L 203.1,104.4 L 203.2,104.5 L 203.2,104.6 L 203.3,104.7 L 203.6,104.6 L 203.6,104.5 L 203.7,104.6 L 204.0,104.5 L 204.1,104.7 L 204.3,104.7 L 204.7,104.7 L 204.9,104.8 L 205.1,104.8 L 206.1,104.9 L 206.8,104.8 L 206.9,104.7 L 207.1,104.7 L 207.2,104.6 L 207.2,104.5 L 207.3,104.4 L 207.5,104.4 L 207.6,104.5 L 207.9,104.5 L 208.0,104.3 L 208.2,104.3 L 208.2,104.2 L 208.2,104.1 L 208.2,104.0 L 208.4,104.0 L 208.5,103.9 L 208.6,103.9 L 208.7,103.7 L 208.7,103.5 L 208.7,103.5 L 208.7,103.4 L 209.2,103.3 L 209.4,103.2 L 209.5,103.3 L 209.7,103.3 L 209.9,103.3 L 210.0,103.2 L 210.1,103.1 L 210.3,102.9 L 210.3,102.7 L 210.4,102.5 L 210.7,102.4 L 211.0,102.4 L 211.2,102.4 L 211.4,102.5 L 211.6,102.7 L 211.6,102.8 L 211.5,103.0 L 211.4,103.4 L 211.4,103.5 L 211.7,103.6 L 211.8,103.7 L 211.7,103.9 L 211.5,104.0 L 211.5,104.1 L 211.7,104.2 L 211.6,104.4 L 211.4,104.5 L 211.2,104.8 L 210.9,105.3 L 210.9,105.5 L 210.9,105.6 L 210.9,105.7 L 210.9,105.9 L 211.0,106.0 L 211.1,106.0 L 211.0,106.1 L 210.9,106.3 L 210.8,106.5 L 210.9,106.6 L 211.2,106.8 L 211.3,106.7 L 211.4,106.8 L 211.2,107.0 L 211.1,107.1 L 211.0,107.2 L 211.0,107.4 L 211.1,107.4 L 211.3,107.4 L 211.4,107.5 L 211.3,107.6 L 211.1,107.7 L 211.0,107.8 L 211.0,108.0 L 211.2,108.1 L 211.6,108.3 L 211.8,108.5 L 212.0,108.4 L 212.3,108.3 L 212.4,108.4 L 212.5,108.6 L 212.8,108.6 L 213.1,108.6 L 213.3,108.4 L 213.3,108.2 L 213.2,108.1 L 213.3,107.9 L 213.5,107.7 L 213.8,107.6 L 214.2,107.5 L 214.7,107.3 L 214.9,107.1 L 215.1,106.7 L 215.6,106.3 L 216.1,105.5 L 216.2,105.4 L 216.8,105.3 L 217.0,105.2 L 217.1,105.3 L 217.1,105.3 L 217.0,105.7 L 216.9,105.9 L 216.7,106.0 L 216.5,106.2 L 216.5,106.4 L 216.3,106.8 L 216.3,107.0 L 216.4,107.3 L 216.7,107.4 L 216.8,107.7 L 216.9,107.8 L 217.0,107.9 L 217.1,108.0 L 217.2,108.1 L 217.4,108.0 L 217.7,107.8 L 217.9,107.7 L 218.0,107.6 L 218.0,107.3 L 218.0,107.0 L 218.2,106.9 L 218.6,106.7 L 218.7,106.7 L 218.7,106.8 L 218.6,107.0 L 218.6,107.1 L 218.9,107.4 L 219.1,107.7 L 219.1,107.9 L 218.4,109.0 L 218.0,109.4 L 217.9,109.7 L 217.7,109.9 L 217.6,110.2 L 217.5,110.2 L 217.4,110.2 L 217.4,110.3 L 217.4,110.3 L 217.3,110.3 L 217.1,110.4 L 217.0,110.5 L 216.7,110.6 L 216.4,110.8 L 216.3,110.7 L 215.8,110.8 L 215.8,111.0 L 215.6,111.0 L 215.6,111.0 L 215.5,111.0 L 215.4,111.1 L 215.2,111.1 L 215.2,111.1 L 215.1,111.2 L 215.1,111.3 L 215.0,111.4 L 214.2,111.7 L 214.1,111.6 L 213.9,111.6 L 213.7,111.8 L 213.5,111.7 L 213.4,111.8 L 213.3,112.0 L 213.1,112.0 L 213.2,112.2 L 213.0,112.3 L 213.0,112.4 L 212.8,112.3 L 212.7,112.3 L 212.6,112.4 L 212.6,112.4 L 212.5,112.3 L 212.4,112.3 L 212.3,112.5 L 212.2,112.6 L 212.1,112.8 L 212.2,113.0 L 212.0,113.1 L 212.1,113.4 L 211.9,113.6 L 211.7,113.6 L 211.5,113.7 L 211.3,113.8 L 211.0,113.7 L 210.9,113.6 L 210.8,113.4 L 210.8,113.3 L 210.7,113.4 L 210.7,113.5 L 210.7,113.8 L 210.5,113.8 L 210.4,113.8 L 210.2,113.9 L 210.2,114.0 L 210.1,114.2 L 210.0,114.3 L 209.7,114.4 L 209.4,114.3 L 209.1,114.2 L 208.8,114.2 L 208.8,114.2 L 208.8,114.1 L 208.8,114.1 L 208.7,114.1 L 208.3,114.1 L 208.2,114.1 L 208.2,114.0 L 207.9,114.3 L 207.8,114.5 L 207.9,114.5 L 207.9,114.6 L 207.7,114.7 L 207.6,114.8 L 207.5,115.2 L 207.3,115.4 L 206.9,115.3 L 206.7,115.4 L 206.5,115.5 L 206.3,115.7 L 206.3,115.9 L 206.2,116.0 L 205.9,116.2 L 205.4,116.7 L 205.4,116.8 L 205.6,116.9 L 206.0,116.8 L 206.4,116.6 L 206.4,116.7 L 206.2,116.9 L 206.2,117.1 L 206.2,117.2 L 206.6,117.1 L 206.6,117.2 L 206.3,117.7 L 206.3,117.7 L 206.5,117.7 L 206.7,117.8 L 206.8,117.8 L 207.1,117.7 L 207.2,117.8 L 207.3,118.0 L 207.2,118.2 L 206.8,118.3 L 206.4,118.5 L 206.2,118.8 L 206.1,119.0 L 206.4,119.1 L 207.2,119.0 L 207.4,119.0 L 207.6,119.0 L 207.9,119.0 L 208.0,119.1 L 208.1,119.1 L 208.3,119.2 L 208.8,119.4 L 208.9,119.3 L 209.3,119.0 L 209.4,119.0 L 209.4,119.1 L 209.5,119.1 L 209.6,118.9 L 209.7,119.0 L 209.8,119.0 L 209.8,118.7 L 210.0,118.6 L 210.1,118.6 L 210.1,118.8 L 210.0,118.9 L 210.2,118.8 L 210.4,118.8 L 210.4,118.5 L 210.6,118.4 L 210.7,118.5 L 210.7,118.5 L 210.6,118.8 L 210.6,119.0 L 210.7,119.0 L 210.8,119.0 L 210.8,118.9 L 210.9,118.7 L 210.8,118.5 L 210.9,118.4 L 211.0,118.3 L 211.5,118.3 L 211.7,118.4 L 211.9,118.5 L 211.9,118.6 L 211.7,118.8 L 211.7,118.9 L 211.8,119.0 L 212.0,118.8 L 212.2,119.0 L 212.3,119.2 L 212.3,119.2 L 212.4,119.5 L 212.5,119.9 L 212.4,120.6 L 212.0,120.7 L 211.9,120.9 L 211.9,120.9 L 212.0,121.1 L 211.8,121.1 L 211.7,121.3 L 211.6,121.4 L 211.9,121.4 L 212.0,121.5 L 212.1,121.7 L 212.2,121.8 L 212.4,121.7 L 212.5,121.7 L 212.4,121.8 L 212.4,121.9 L 212.4,122.0 L 212.6,122.0 L 212.7,122.0 L 212.9,121.9 L 213.0,121.9 L 213.0,122.0 L 212.9,122.1 L 212.9,122.2 L 213.0,122.2 L 213.3,122.0 L 213.4,122.1 L 213.3,122.2 L 213.3,122.4 L 213.6,122.3 L 213.7,122.3 L 213.7,122.4 L 213.7,122.7 L 213.9,122.8 L 213.9,123.0 L 214.1,123.0 L 214.2,123.1 L 214.2,123.3 L 214.1,123.5 L 214.2,123.6 L 214.4,123.6 L 214.5,123.6 L 214.6,123.9 L 214.9,123.9 L 215.1,123.9 L 215.1,124.0 L 215.2,124.0 L 215.2,123.9 L 215.8,123.9 L 215.9,124.0 L 216.3,123.9 L 216.6,123.8 L 217.0,123.6 L 217.1,123.4 L 217.6,123.3 L 217.8,123.2 L 217.9,122.9 L 218.8,122.4 L 219.7,121.7 L 220.2,121.6 L 220.3,121.5 L 220.4,121.4 L 221.2,121.2 L 221.3,121.1 L 221.4,121.0 L 221.8,120.8 L 222.1,120.7 L 222.6,120.6 L 223.1,120.3 L 223.6,119.9 L 224.0,119.6 L 224.5,119.4 L 224.7,119.3 L 225.0,119.2 L 225.2,119.3 L 225.8,119.6 L 226.3,119.9 L 226.6,120.4 L 226.8,120.6 L 226.8,120.8 L 226.8,121.0 L 226.6,121.7 L 226.6,121.9 L 226.5,122.2 L 226.5,122.3 L 226.6,122.5 L 226.3,123.6 L 226.0,124.2 L 225.8,124.7 L 225.8,125.0 L 225.9,125.3 L 225.8,125.5 L 225.9,125.9 L 225.8,126.0 L 225.8,126.3 L 225.9,126.5 L 225.9,126.9 L 226.0,126.9 L 226.3,127.2 L 226.8,127.9 L 227.3,128.3 L 227.4,128.5 L 227.7,128.6 L 227.8,128.7 L 227.9,128.8 L 228.2,128.8 L 228.2,128.9 L 228.3,129.0 L 228.7,128.9 L 228.9,129.1 L 229.0,129.2 L 229.9,129.3 L 230.1,129.3 L 230.6,129.3 L 231.5,129.6 L 231.7,129.8 L 231.8,129.8 L 232.4,130.2 L 232.7,130.3 L 233.0,130.5 L 233.0,130.7 L 233.1,130.8 L 233.4,130.8 L 233.5,130.7 L 233.5,130.7 L 233.7,130.8 L 233.6,131.0 L 233.6,131.2 L 233.9,131.2 L 234.1,131.4 L 234.3,131.4 L 234.5,131.4 L 234.6,131.5 L 234.6,131.6 L 234.7,131.5 L 235.0,131.6 L 235.4,131.6 L 235.8,131.5 L 236.0,131.3 L 236.0,131.1 L 236.5,131.0 L 237.1,130.8 L 237.1,130.7 L 237.3,130.5 L 238.0,130.4 L 238.8,130.4 L 239.0,130.4 L 239.2,130.4 L 239.4,130.5 L 239.5,130.6 L 239.7,130.6 L 239.9,130.6 L 240.1,130.5 L 240.3,130.5 L 240.4,130.6 L 240.7,130.6 L 241.0,130.8 L 241.5,130.8 L 241.7,130.9 L 241.9,130.8 L 242.0,130.8 L 242.2,130.9 L 242.3,130.8 L 242.4,131.0 L 242.5,131.1 L 243.1,131.1 L 243.2,131.2 L 243.7,131.1 L 244.0,131.2 L 244.3,131.2 L 290.7,171.7 L 290.7,171.9 L 290.6,172.1 L 290.6,172.3 L 290.8,172.4 L 291.0,172.5 L 291.3,172.5 L 291.5,172.3 L 291.5,172.4 L 291.5,172.5 L 291.6,172.6 L 291.5,172.8 L 291.5,172.9 L 291.7,172.9 L 291.7,173.0 L 291.5,173.1 L 291.4,173.2 L 291.4,173.3 L 291.6,173.3 L 291.6,173.4 L 291.6,173.7 L 291.8,173.8 L 292.0,173.9 L 292.0,174.0 L 291.8,174.1 L 291.8,174.2 L 291.8,174.6 L 291.9,174.7 L 292.1,174.8 L 292.1,175.0 L 292.2,175.2 L 292.4,175.4 L 292.8,175.3 L 292.8,175.4 L 292.6,175.6 L 292.3,175.9 L 292.4,176.0 L 292.4,176.2 L 292.6,176.1 L 292.6,176.2 L 292.4,176.5 L 292.3,176.7 L 292.2,176.8 L 292.1,177.0 L 291.9,177.1 L 291.8,177.5 L 291.8,177.7 L 291.9,177.8 L 292.2,177.8 L 292.9,177.7 L 292.9,177.8 L 292.8,177.9 L 293.0,178.1 L 293.1,178.3 L 293.0,178.5 L 293.1,178.6 L 293.2,178.8 L 293.5,178.8 L 293.6,178.8 L 293.8,178.7 L 293.8,178.7 L 294.3,178.6 L 294.5,178.5 L 294.6,178.5 L 294.6,178.6 L 294.6,178.9 L 294.9,178.9 L 295.0,178.8 L 310.6,186.7 L 310.6,186.7 L 310.6,186.8 L 310.8,186.9 L 310.8,187.0 L 310.9,187.0 L 311.0,187.3 L 311.0,187.3 L 310.8,187.6 L 310.8,187.8 L 310.8,187.9 L 310.9,188.2 L 310.9,188.3 L 311.1,188.6 L 311.1,188.9 L 310.7,189.4 L 310.5,189.6 L 310.3,189.7 L 310.1,189.8 L 310.1,190.0 L 310.0,190.1 L 310.1,190.5 L 310.2,190.4 L 310.3,190.3 L 310.4,190.4 L 310.3,190.9 L 310.1,191.5 L 310.2,191.7 L 310.4,191.8 L 310.4,191.8 L 310.8,191.9 L 311.1,192.2 L 311.9,192.8 L 311.9,193.0 L 311.9,193.0 L 311.8,193.1 L 311.8,193.2 L 312.0,193.3 L 312.4,193.6 L 312.5,194.1 L 312.7,194.5 L 312.8,194.7 L 313.1,194.8 L 313.2,194.9 L 313.5,194.9 L 314.7,194.8 L 314.9,195.0 L 314.9,195.1 L 314.8,195.3 L 314.8,195.5 L 314.6,195.5 L 314.5,195.8 L 314.5,195.9 L 314.5,196.0 L 314.6,196.0 L 314.9,196.2 L 315.3,196.6 L 315.4,196.6 L 315.9,197.1 L 316.5,197.8 L 316.9,198.2 L 317.1,198.5 L 317.4,198.6 L 317.5,198.8 L 317.8,198.9 L 317.9,199.1 L 318.4,199.4 L 318.7,199.5 L 319.0,199.9 L 319.3,199.8 L 319.4,199.9 L 319.7,199.9 L 319.7,199.9 L 320.0,200.4 L 320.4,200.7 L 320.5,200.8 L 320.6,200.9 L 320.7,201.1 L 320.8,201.4 L 320.7,201.6 L 320.5,201.8 L 320.4,201.8 L 320.1,201.7 L 320.0,201.8 L 320.0,201.9 L 320.0,202.0 L 319.9,201.9 L 319.8,201.8 L 319.6,201.9 L 319.2,202.0 L 319.3,202.2 L 319.4,202.4 L 319.2,202.5 L 319.2,202.7 L 319.2,202.9 L 319.4,203.1 L 319.3,203.4 L 319.2,203.5 L 319.1,203.8 L 319.1,203.9 L 319.2,204.0 L 319.3,204.1 L 319.6,204.1 L 319.6,204.2 L 319.5,204.3 L 319.4,204.4 L 319.5,204.4 L 319.8,204.5 L 319.9,204.6 L 319.7,204.7 L 319.6,204.9 L 319.8,205.0 L 319.6,205.2 L 319.7,205.4 L 320.0,205.6 L 320.3,205.8 L 320.4,205.9 L 320.3,206.0 L 320.1,206.0 L 320.7,206.9 L 321.0,207.1 L 321.2,207.3 L 321.4,207.4 L 321.6,207.8 L 321.8,207.9 L 322.1,207.9 L 322.0,208.1 L 322.0,208.1 L 322.2,208.2 L 322.3,208.2 L 322.5,208.3 L 322.7,208.5 L 322.6,208.6 L 322.3,208.6 L 322.2,208.6 L 322.2,208.8 L 322.3,208.8 L 322.4,208.9 L 322.6,209.0 L 323.1,208.9 L 323.2,208.8 L 323.3,208.7 L 323.4,208.7 L 323.6,208.8 L 323.7,208.9 L 323.6,209.1 L 323.7,209.2 L 324.0,209.1 L 324.1,209.2 L 324.1,209.2 L 324.0,209.5 L 324.0,209.6 L 324.2,209.6 L 324.3,209.8 L 324.2,209.9 L 324.3,210.0 L 324.3,210.1 L 324.1,210.2 L 324.1,210.3 L 324.0,210.5 L 324.0,210.7 L 323.9,210.8 L 323.6,210.9 L 323.5,210.8 L 323.2,210.9 L 323.1,211.1 L 323.1,211.3 L 323.4,211.5 L 323.6,211.8 L 323.8,211.9 L 323.9,212.0 L 324.1,212.2 L 324.1,212.3 L 323.8,212.5 L 323.7,212.6 L 323.7,212.7 L 323.8,212.9 L 323.9,213.0 L 324.0,213.4 L 324.2,213.8 L 324.3,213.9 L 324.5,214.0 L 324.9,214.2 L 324.8,214.3 L 324.7,214.5 L 324.4,214.6 L 324.4,214.7 L 324.4,214.9 L 324.4,215.0 L 324.8,215.0 L 324.9,215.1 L 324.9,215.1 L 324.6,215.4 L 324.6,215.6 L 324.4,215.7 L 324.3,215.8 L 324.2,215.9 L 324.2,216.0 L 324.0,216.1 L 324.0,216.2 L 324.2,216.2 L 324.3,216.3 L 324.1,216.4 L 323.6,216.4 L 323.3,216.5 L 323.2,216.7 L 323.2,217.1 L 323.0,217.1 L 322.8,217.2 L 322.8,217.2 L 322.8,217.6 L 322.6,217.8 L 322.5,217.9 L 322.4,218.2 L 322.3,218.4 L 322.3,218.5 L 322.6,218.5 L 322.6,218.5 L 322.5,218.6 L 322.2,218.8 L 322.1,218.9 L 321.7,219.2 L 321.6,219.4 L 321.7,219.5 L 321.1,220.0 L 321.1,220.0 L 320.7,220.4 L 320.6,220.8 L 320.5,221.0 L 320.5,221.2 L 320.7,221.6 L 320.7,221.8 L 320.7,222.1 L 321.1,222.6 L 320.9,223.0 L 320.9,223.1 L 321.0,223.1 L 321.1,223.0 L 321.2,223.0 L 321.3,223.0 L 321.2,223.2 L 321.4,223.4 L 321.4,223.5 L 321.1,223.6 L 320.8,223.8 L 320.7,224.0 L 320.4,224.4 L 320.0,225.1 L 320.0,225.2 L 320.1,225.2 L 320.2,225.3 L 320.2,225.4 L 319.9,225.7 L 319.7,226.0 L 319.7,226.3 L 319.6,226.4 L 319.5,226.4 L 319.6,226.8 L 319.6,226.7 L 319.9,226.7 L 319.9,226.7 L 319.9,226.7 L 319.7,227.0 L 319.7,227.2 L 319.8,227.6 L 319.9,227.6 L 320.1,227.6 L 320.2,227.8 L 319.9,227.9 L 319.9,228.0 L 319.8,228.2 L 320.0,228.6 L 320.0,228.6 L 320.1,228.7 L 320.0,228.8 L 320.0,228.8 L 320.0,228.9 L 320.1,229.0 L 320.1,229.0 L 320.1,229.2 L 320.1,229.5 L 320.2,229.7 L 320.2,229.9 L 320.1,230.1 L 320.2,230.2 L 320.2,230.3 L 320.1,230.5 L 320.0,230.7 L 319.7,231.1 L 319.8,231.3 L 319.7,231.4 L 319.5,231.7 L 319.5,231.8 L 319.6,231.9 L 319.5,232.1 L 319.6,232.2 L 319.5,232.3 L 319.5,232.4 L 319.6,232.5 L 319.7,232.5 L 319.7,232.9 L 319.5,232.9 L 319.5,233.1 L 319.2,233.4 L 319.0,233.4 L 319.0,233.4 L 319.0,233.5 L 319.1,233.7 L 319.4,233.8 L 319.7,234.0 L 319.9,234.0 L 320.1,234.2 L 320.3,234.2 L 320.3,234.3 L 320.5,234.3 L 320.8,234.4 L 321.0,234.6 L 321.2,235.1 L 321.2,235.4 L 321.2,235.4 L 321.1,235.5 L 320.8,235.5 L 320.5,235.6 L 320.3,235.7 L 320.1,235.8 L 320.0,236.1 L 319.8,236.4 L 319.8,236.7 L 320.0,236.8 L 320.0,236.8 L 320.0,237.0 L 320.1,237.2 L 320.3,237.6 L 320.5,237.9 L 320.4,238.5 L 320.4,238.9 L 320.3,239.2 L 320.0,239.6 L 320.0,239.6 L 319.9,240.0 L 320.0,240.3 L 320.1,240.4 L 320.3,240.2 L 320.4,240.3 L 320.4,240.3 L 320.3,240.6 L 320.2,240.7 L 320.3,241.1 L 320.1,241.4 L 319.9,241.4 L 319.8,241.5 L 319.8,241.7 L 319.7,241.7 L 319.6,241.8 L 319.6,242.1 L 319.7,242.2 L 319.8,242.5 L 319.8,242.7 L 320.0,242.9 L 320.5,243.0 L 320.6,243.2 L 320.9,243.4 L 321.1,243.4 L 321.2,243.6 L 321.4,243.7 L 321.5,243.8 L 321.6,243.9 L 321.8,243.9 L 321.8,244.0 L 322.0,244.2 L 322.1,244.2 L 322.3,244.3 L 322.3,244.3 L 322.3,244.8 L 322.5,245.0 L 323.3,245.7 L 323.3,245.8 L 323.4,245.9 L 323.5,245.9 L 323.8,246.0 L 323.8,246.1 L 323.9,246.1 L 324.0,246.4 L 324.5,246.7 L 325.3,247.1 L 325.5,247.2 L 326.0,247.4 L 326.9,248.0 L 327.3,248.1 L 328.0,248.1 L 328.3,248.2 L 328.7,248.2 L 329.1,248.2 L 329.1,248.2 L 329.1,248.4 L 329.2,248.4 L 329.3,248.3 L 329.4,248.3 L 329.4,248.5 L 329.6,248.6 L 329.8,248.6 L 330.1,248.6 L 330.4,248.8 L 330.8,248.9 L 331.3,249.0 L 331.7,249.0 L 331.8,249.2 L 331.7,249.4 L 331.7,249.5 L 331.8,249.6 L 332.4,249.5 L 333.0,249.3 L 334.0,249.2 L 334.8,249.2 L 334.8,249.2 L 336.3,249.1 L 336.6,249.1 L 337.1,248.9 L 337.6,248.9 L 337.7,249.0 L 337.9,249.3 L 338.1,249.4 L 338.7,249.4 L 339.6,249.3 L 339.8,249.3 L 339.9,249.3 L 340.2,249.3 L 340.4,249.4 L 340.8,249.3 L 341.2,249.2 L 341.4,249.0 L 341.6,249.0 L 342.1,248.9 L 342.3,249.0 L 342.5,249.2 L 342.8,249.7 L 342.7,249.8 L 342.5,250.0 L 342.1,250.5 L 342.0,250.8 L 341.9,250.9 L 342.2,251.1 L 342.2,251.2 L 341.9,251.3 L 341.9,251.4 L 342.1,251.5 L 342.4,251.6 L 342.5,251.8 L 342.4,251.9 L 342.3,252.0 L 341.9,252.4 L 341.6,252.7 L 341.3,253.1 L 341.2,253.2 L 341.4,253.4 L 341.6,253.4 L 342.4,253.4 L 343.1,253.4 L 343.7,253.3 L 344.1,253.2 L 344.4,253.0 L 344.7,252.9 L 344.8,252.9 L 344.8,252.5 L 344.8,252.3 L 344.5,251.9 L 344.1,251.6 L 344.0,251.4 L 344.0,251.3 L 344.3,251.1 L 344.5,250.8 L 344.6,250.6 L 344.5,250.3 L 344.6,250.2 L 344.8,250.2 L 345.1,250.2 L 345.3,250.1 L 345.7,249.8 L 345.9,249.7 L 346.2,249.8 L 346.3,249.8 L 346.1,250.1 L 346.1,250.1 L 346.4,250.2 L 347.2,250.1 L 347.6,250.0 L 347.7,249.9 L 347.8,249.8 L 348.5,249.6 L 348.8,249.7 L 348.8,249.7 L 348.8,249.8 L 348.8,249.9 L 348.7,250.0 L 348.5,250.1 L 348.4,250.3 L 348.4,250.4 L 348.5,250.5 L 348.8,250.4 L 348.9,250.4 L 349.8,250.1 L 349.9,250.1 L 350.0,250.1 L 350.3,250.1 L 351.1,250.0 L 351.2,250.1 L 351.4,250.1 L 351.8,249.9 L 352.6,249.9 L 353.1,249.9 L 353.4,250.0 L 354.0,250.0 L 355.0,250.1 L 355.8,250.1 L 356.9,250.3 L 358.2,250.4 L 358.7,250.4 L 359.3,250.4 L 359.7,250.5 L 359.8,250.6 L 359.9,250.8 L 360.0,251.6 L 360.0,251.8 L 360.0,252.3 L 359.9,252.6 L 358.9,253.5 L 358.6,253.6 L 358.2,253.7 L 357.6,253.6 L 357.1,253.5 L 357.0,253.5 L 356.8,253.6 L 356.7,253.9 L 356.6,254.0 L 356.2,254.2 L 356.1,254.4 L 355.8,254.4 L 355.5,254.9 L 355.2,254.9 L 355.0,255.0 L 354.6,255.2 L 354.6,255.3 L 354.7,255.4 L 354.7,255.5 L 354.8,255.5 L 355.1,255.2 L 356.0,255.0 L 356.1,255.0 L 356.2,255.1 L 355.7,255.5 L 355.5,255.7 L 355.1,256.0 L 354.5,256.1 L 354.1,256.3 L 353.6,256.6 L 353.5,256.7 L 353.4,257.0 L 353.8,257.1 L 353.8,257.2 L 354.1,257.1 L 354.1,257.2 L 354.1,257.3 L 354.3,257.4 L 354.4,257.4 L 354.6,257.4 L 354.6,257.6 L 355.0,257.7 L 355.1,257.9 L 355.2,257.9 L 355.8,258.0 L 356.3,258.0 L 356.4,258.0 L 356.4,258.1 L 356.3,258.3 L 356.3,258.3 L 356.4,258.4 L 356.3,258.5 L 356.1,258.6 L 356.0,258.7 L 355.9,258.8 L 356.2,258.8 L 356.2,258.9 L 356.2,259.0 L 356.0,259.1 L 355.9,259.1 L 355.9,259.2 L 356.1,259.2 L 356.3,259.2 L 356.1,259.6 L 355.9,259.8 L 354.8,260.5 L 354.5,260.7 L 354.4,261.0 L 354.4,261.0 L 354.7,261.0 L 355.1,260.8 L 355.4,260.8 L 356.0,260.4 L 356.1,260.4 L 356.1,260.4 L 356.0,260.6 L 356.2,260.8 L 356.2,260.8 L 353.1,317.5 L 352.9,317.4 L 352.7,317.4 L 352.7,317.4 L 352.7,317.6 L 353.0,317.6 L 353.1,317.6 L 353.1,317.9 L 353.1,318.0 L 352.9,318.0 L 352.6,318.2 L 352.3,318.6 L 352.3,318.8 L 352.6,318.9 L 352.7,319.0 L 352.8,319.0 L 352.8,319.2 L 352.6,319.3 L 352.6,319.2 L 352.4,319.1 L 351.7,319.2 L 351.6,319.3 L 351.7,319.5 L 351.7,319.7 L 351.7,319.7 L 351.6,319.7 L 351.4,319.6 L 351.2,319.8 L 350.9,319.9 L 350.7,320.0 L 350.3,320.1 L 350.3,320.2 L 350.5,320.3 L 350.6,320.4 L 350.5,320.4 L 350.2,320.6 L 350.2,320.7 L 350.2,320.8 L 350.0,320.6 L 349.9,320.6 L 349.8,320.7 L 349.7,320.7 L 349.5,320.8 L 349.0,320.9 L 348.8,320.9 L 348.7,321.0 L 348.8,321.0 L 348.8,321.1 L 348.7,321.2 L 348.5,321.0 L 348.4,321.0 L 348.4,321.3 L 348.5,321.3 L 348.6,321.4 L 348.5,321.4 L 348.5,321.4 L 273.9,333.4 L 273.7,333.4 L 273.5,333.2 L 273.4,333.2 L 273.4,333.1 L 273.0,332.8 L 272.8,332.7 L 272.6,332.8 L 272.4,333.0 L 272.3,333.0 L 272.3,332.8 L 272.0,332.6 L 272.0,332.6 L 271.8,332.5 L 271.5,332.3 L 271.4,332.2 L 271.3,331.8 L 270.9,331.2 L 270.7,330.9 L 270.6,330.8 L 270.3,330.8 L 270.1,330.5 L 269.9,330.4 L 269.8,330.4 L 269.8,330.3 L 269.7,330.3 L 269.7,330.1 L 269.6,330.0 L 269.4,330.1 L 269.3,330.0 L 269.2,329.6 L 269.1,329.6 L 269.0,329.7 L 268.9,329.7 L 268.8,329.6 L 268.8,329.5 L 268.6,329.4 L 268.5,329.4 L 268.5,329.3 L 268.4,329.3 L 268.0,329.3 L 267.8,329.0 L 267.4,329.0 L 267.2,328.9 L 267.1,328.7 L 266.9,328.4 L 266.4,328.1 L 266.1,327.9 L 265.8,327.9 L 265.6,328.0 L 264.6,328.2 L 264.1,328.4 L 263.7,328.8 L 263.5,328.9 L 262.9,329.0 L 262.1,329.4 L 261.6,329.7 L 261.2,330.0 L 261.0,330.1 L 260.7,330.3 L 260.2,330.4 L 259.9,330.5 L 259.8,330.5 L 259.6,330.5 L 259.4,330.4 L 259.3,330.4 L 259.2,330.3 L 259.1,330.4 L 259.0,330.4 L 258.9,330.4 L 258.7,330.3 L 258.1,330.0 L 258.0,330.0 L 258.0,330.0 L 257.8,329.9 L 257.8,329.8 L 257.8,329.2 L 257.8,329.0 L 257.8,328.8 L 257.5,328.7 L 257.5,328.4 L 257.5,328.3 L 257.6,328.1 L 257.4,328.0 L 257.1,327.9 L 256.9,327.8 L 256.3,327.3 L 256.0,326.9 L 255.9,326.6 L 255.9,326.1 L 256.2,324.9 L 256.3,324.3 L 256.4,324.1 L 256.4,323.9 L 256.4,323.5 L 256.6,323.3 L 256.6,323.1 L 256.8,322.8 L 256.9,322.6 L 256.9,322.4 L 256.7,322.4 L 256.6,322.2 L 256.5,322.1 L 256.4,322.0 L 256.4,321.9 L 256.4,321.8 L 256.3,321.7 L 256.5,321.6 L 256.5,321.4 L 256.4,321.4 L 256.4,321.3 L 256.4,321.2 L 256.4,320.9 L 256.4,320.8 L 256.4,320.7 L 256.2,320.5 L 256.1,320.5 L 256.0,320.7 L 255.9,321.0 L 255.8,320.9 L 255.7,320.7 L 255.5,320.8 L 255.5,320.6 L 255.2,320.5 L 254.9,320.6 L 254.8,320.6 L 254.7,320.7 L 254.7,320.6 L 254.9,320.3 L 254.8,320.3 L 254.5,320.1 L 254.1,320.1 L 253.8,320.2 L 253.7,320.3 L 253.5,320.3 L 253.0,320.3 L 253.0,320.3 L 252.5,320.4 L 252.3,320.5 L 252.2,320.5 L 252.1,320.6 L 252.0,320.5 L 252.1,320.4 L 252.0,320.4 L 251.9,320.4 L 251.8,320.3 L 251.8,320.2 L 251.5,320.3 L 251.5,320.2 L 251.5,320.1 L 251.4,320.1 L 251.3,320.1 L 251.1,320.1 L 251.0,320.1 L 250.6,320.1 L 250.4,320.2 L 250.4,320.2 L 250.2,320.3 L 250.0,320.3 L 249.9,320.4 L 249.8,320.4 L 249.6,320.4 L 249.3,320.5 L 249.1,320.6 L 248.7,320.7 L 248.6,320.7 L 247.8,321.3 L 247.6,321.5 L 247.6,321.5 L 247.3,321.7 L 247.3,321.6 L 247.1,321.5 L 247.0,321.3 L 246.9,321.2 L 246.7,321.3 L 246.7,321.2 L 246.8,321.0 L 246.7,321.0 L 246.6,321.0 L 246.7,320.8 L 246.6,320.7 L 246.5,320.7 L 246.4,320.7 L 246.3,320.6 L 246.1,320.6 L 245.9,320.4 L 245.8,320.4 L 245.7,320.3 L 245.5,320.3 L 245.3,320.4 L 245.2,320.4 L 245.1,320.4 L 245.0,320.4 L 244.6,320.5 L 244.4,320.5 L 243.8,320.5 L 243.5,320.3 L 243.4,320.2 L 243.4,319.9 L 243.6,319.7 L 243.8,319.5 L 244.0,319.3 L 244.0,319.2 L 244.1,319.1 L 244.1,319.0 L 244.1,318.9 L 244.1,318.6 L 244.0,318.6 L 243.9,318.5 L 243.8,318.5 L 243.6,318.4 L 243.4,318.4 L 243.1,318.7 L 243.0,318.7 L 242.7,318.8 L 242.6,319.0 L 242.4,319.0 L 242.1,319.2 L 241.9,319.4 L 241.9,319.4 L 241.8,319.4 L 241.8,319.5 L 241.6,319.7 L 241.5,319.9 L 241.3,320.0 L 241.2,320.0 L 240.7,320.6 L 240.5,320.6 L 240.5,320.5 L 240.9,319.6 L 240.9,319.1 L 241.1,318.7 L 241.2,318.7 L 241.3,318.5 L 241.5,318.4 L 241.4,318.3 L 241.3,318.3 L 241.2,318.1 L 241.5,317.8 L 241.5,317.8 L 241.3,317.5 L 241.3,317.4 L 241.1,317.4 L 241.1,317.3 L 240.9,317.3 L 240.8,317.5 L 240.7,317.6 L 240.6,317.5 L 240.8,317.4 L 240.8,317.0 L 240.7,316.9 L 240.6,316.9 L 240.5,316.9 L 240.3,316.9 L 240.1,317.0 L 240.0,317.1 L 239.6,317.1 L 239.2,316.9 L 239.1,316.8 L 239.4,316.6 L 239.7,316.4 L 240.1,316.1 L 240.1,316.0 L 240.1,315.9 L 239.9,315.7 L 239.9,315.6 L 239.5,315.7 L 239.2,315.9 L 239.0,316.0 L 239.0,316.1 L 239.1,316.2 L 239.1,316.4 L 239.0,316.3 L 238.9,316.2 L 238.7,316.1 L 238.4,316.2 L 238.2,316.3 L 238.1,316.3 L 238.1,316.1 L 238.1,316.0 L 238.3,315.8 L 238.2,315.7 L 238.0,315.7 L 237.8,315.7 L 237.8,315.7 L 237.6,315.8 L 237.0,315.9 L 236.5,316.2 L 236.4,316.4 L 236.3,316.4 L 236.2,316.5 L 236.2,316.7 L 236.1,316.7 L 236.0,316.7 L 236.0,316.8 L 236.0,316.9 L 236.2,316.8 L 236.4,317.0 L 236.5,316.9 L 236.6,317.0 L 236.5,317.1 L 236.5,317.4 L 236.8,317.3 L 236.8,317.4 L 237.1,317.4 L 237.2,317.5 L 237.2,317.7 L 237.7,317.5 L 237.9,317.6 L 238.1,317.9 L 238.1,317.9 L 238.4,318.2 L 238.6,318.2 L 238.9,318.3 L 239.1,318.3 L 239.2,318.1 L 239.3,318.1 L 239.3,318.4 L 239.2,318.6 L 239.0,318.7 L 238.9,318.9 L 238.7,319.0 L 238.7,319.2 L 238.7,319.3 L 238.6,319.3 L 238.4,319.3 L 238.4,319.4 L 238.5,319.4 L 238.5,319.6 L 238.6,319.6 L 238.6,319.8 L 238.6,320.1 L 238.4,320.1 L 238.3,320.2 L 237.7,320.4 L 237.4,320.5 L 237.0,320.6 L 236.8,320.5 L 236.8,320.2 L 236.9,320.0 L 236.9,319.8 L 236.7,319.6 L 236.7,319.3 L 237.1,318.7 L 237.1,318.5 L 237.1,318.4 L 237.0,318.4 L 236.8,318.3 L 236.7,318.2 L 236.6,318.2 L 236.5,318.3 L 236.3,318.4 L 236.2,318.3 L 236.1,317.9 L 236.0,317.8 L 236.0,317.5 L 235.9,317.5 L 235.8,317.4 L 235.6,317.5 L 235.2,317.4 L 234.8,317.5 L 234.6,317.5 L 234.4,317.7 L 234.3,317.9 L 234.0,317.9 L 233.8,318.1 L 233.3,318.5 L 233.2,318.8 L 233.1,318.9 L 232.9,318.9 L 232.7,319.2 L 232.5,319.9 L 232.4,320.1 L 232.2,320.2 L 232.1,320.1 L 232.1,320.1 L 232.2,319.8 L 232.5,319.6 L 232.6,319.2 L 232.7,318.8 L 232.6,318.7 L 232.7,318.3 L 232.7,318.2 L 232.6,318.2 L 232.3,318.5 L 232.3,318.5 L 232.2,318.5 L 232.1,318.8 L 231.8,318.8 L 231.7,319.0 L 231.7,319.2 L 231.5,319.4 L 231.4,319.8 L 231.4,320.0 L 231.5,320.3 L 231.6,320.5 L 231.4,320.5 L 231.2,320.4 L 231.0,320.3 L 230.8,320.1 L 230.8,320.1 L 230.7,319.8 L 230.9,319.4 L 231.3,319.3 L 231.3,319.2 L 231.3,319.1 L 231.4,318.8 L 231.5,318.7 L 231.7,318.5 L 231.7,318.4 L 231.5,318.5 L 231.2,319.0 L 231.1,319.0 L 231.1,318.9 L 231.2,318.7 L 231.2,318.4 L 231.1,318.1 L 230.9,318.1 L 230.6,318.3 L 230.5,318.4 L 230.2,318.1 L 230.2,318.0 L 230.3,317.9 L 230.2,317.7 L 230.2,317.6 L 230.0,317.8 L 230.0,317.8 L 229.7,317.5 L 229.6,317.4 L 229.4,317.4 L 229.2,317.4 L 229.1,317.5 L 229.0,317.5 L 228.6,317.3 L 228.2,317.0 L 228.2,317.0 L 228.2,316.9 L 228.3,316.8 L 228.2,316.7 L 228.0,316.6 L 227.8,316.4 L 227.8,316.3 L 227.7,316.1 L 227.5,316.1 L 227.3,316.0 L 227.1,316.0 L 226.9,316.1 L 226.8,316.2 L 226.5,316.2 L 226.3,316.3 L 226.0,316.4 L 225.8,316.5 L 225.5,316.5 L 225.2,316.5 L 225.0,316.4 L 224.5,316.5 L 224.1,316.7 L 223.9,316.7 L 223.8,316.6 L 223.2,316.7 L 221.8,316.8 L 221.5,316.7 L 221.3,316.6 L 221.2,316.6 L 220.9,316.5 L 220.5,316.4 L 220.5,316.4 L 220.4,316.3 L 220.2,316.4 L 220.0,316.3 L 219.8,316.1 L 219.6,316.1 L 219.2,316.2 L 219.2,316.1 L 219.1,316.1 L 219.1,316.2 L 218.6,316.2 L 218.4,316.2 L 218.2,316.1 L 217.7,316.2 L 217.5,316.2 L 217.2,316.1 L 217.2,316.0 L 217.4,316.0 L 217.4,315.9 L 217.1,315.8 L 217.0,315.9 L 217.0,316.1 L 216.7,316.2 L 216.5,316.2 L 216.3,316.2 L 216.2,316.1 L 216.2,316.0 L 216.3,316.0 L 216.1,315.8 L 216.1,315.7 L 215.9,315.6 L 215.8,315.6 L 215.7,315.8 L 215.6,315.9 L 215.6,315.7 L 215.4,315.6 L 215.2,315.7 L 215.0,315.8 L 215.0,315.8 L 211.8,308.4 L 211.9,308.1 L 212.1,307.9 L 212.1,307.8 L 212.1,307.7 L 212.2,307.6 L 212.3,307.5 L 212.3,307.4 L 212.3,307.3 L 212.3,307.2 L 212.2,306.3 L 212.1,306.2 L 212.0,306.1 L 212.0,306.0 L 212.1,305.8 L 212.1,305.5 L 211.9,305.4 L 211.8,305.3 L 211.8,305.4 L 211.2,305.5 L 210.8,305.6 L 210.6,305.7 L 210.4,305.8 L 210.2,305.8 L 209.7,305.8 L 209.2,305.9 L 209.2,305.9 L 209.2,303.4 L 209.8,303.2 L 210.2,303.0 L 210.5,302.7 L 210.7,302.6 L 210.8,302.4 L 210.8,302.2 L 210.7,301.8 L 210.3,301.4 L 209.9,301.3 L 209.7,301.3 L 209.5,301.2 L 209.3,301.2 L 209.2,301.1 L 208.9,301.2 L 208.3,301.0 L 208.0,301.0 L 207.9,301.0 L 207.8,300.9 L 207.7,300.9 L 207.2,301.0 L 207.0,301.3 L 206.7,301.4 L 206.4,301.7 L 206.0,301.7 L 206.0,301.7 L 205.5,301.8 L 205.4,301.8 L 205.3,301.9 L 205.3,302.0 L 205.2,302.1 L 205.0,302.3 L 205.0,302.5 L 204.9,302.5 L 204.8,302.5 L 204.8,302.6 L 204.9,302.7 L 204.9,302.8 L 204.6,302.9 L 204.5,303.1 L 204.4,303.1 L 204.0,303.1 L 203.5,303.0 L 203.4,302.9 L 203.1,302.8 L 202.8,302.7 L 202.8,302.7 L 202.6,302.7 L 202.6,302.9 L 202.7,303.2 L 202.8,303.6 L 201.2,304.3 L 201.0,304.1 L 201.0,304.0 L 200.9,303.8 L 200.8,303.9 L 200.6,303.7 L 200.5,303.9 L 200.5,304.1 L 200.5,304.2 L 200.4,304.2 L 200.2,304.0 L 200.1,304.0 L 200.0,303.9 L 199.9,303.8 L 199.8,304.0 L 199.5,303.6 L 199.6,303.5 L 199.6,303.3 L 199.7,303.2 L 199.5,302.9 L 199.4,302.9 L 199.4,303.0 L 199.2,303.3 L 199.2,303.5 L 199.2,303.5 L 198.9,303.4 L 198.8,303.2 L 198.6,303.1 L 198.6,302.9 L 198.5,302.9 L 198.4,303.1 L 198.2,303.2 L 197.9,303.3 L 197.8,303.4 L 197.7,303.6 L 197.6,303.7 L 197.1,303.8 L 196.7,303.7 L 196.4,303.4 L 196.4,303.2 L 196.4,302.9 L 196.4,302.5 L 196.5,302.2 L 196.9,301.9 L 197.5,301.6 L 197.7,301.4 L 197.8,301.4 L 197.9,301.5 L 198.1,301.4 L 198.2,301.2 L 198.3,301.2 L 198.5,301.0 L 198.4,300.9 L 198.3,300.8 L 198.2,300.9 L 198.0,300.7 L 197.7,300.4 L 197.6,300.0 L 197.5,299.6 L 197.8,299.3 L 198.0,299.2 L 198.3,299.1 L 198.4,299.0 L 198.3,298.6 L 198.4,298.4 L 198.3,298.3 L 198.3,298.2 L 198.2,298.2 L 198.1,297.9 L 198.0,297.8 L 197.9,297.8 L 197.9,297.9 L 197.8,298.0 L 197.6,297.7 L 197.5,297.5 L 197.4,297.4 L 197.3,297.4 L 197.1,297.3 L 197.1,297.3 L 197.0,297.2 L 196.8,297.2 L 196.7,297.0 L 197.1,296.7 L 197.2,296.6 L 197.1,296.3 L 197.1,296.3 L 197.0,296.1 L 196.9,296.0 L 196.9,295.9 L 196.8,295.8 L 197.0,295.5 L 197.0,295.1 L 197.1,295.1 L 197.2,294.8 L 197.2,294.6 L 197.0,294.6 L 197.6,293.8 L 197.7,293.6 L 197.7,293.4 L 197.7,293.1 L 197.5,293.0 L 197.2,292.9 L 196.8,293.0 L 196.8,292.8 L 196.7,292.8 L 196.4,292.5 L 196.3,292.3 L 196.3,292.1 L 196.5,291.9 L 196.6,291.8 L 196.6,291.3 L 196.6,291.1 L 196.5,291.0 L 196.7,290.8 L 196.7,290.7 L 196.7,290.6 L 196.5,290.4 L 196.3,290.4 L 196.1,290.3 L 196.0,290.3 L 195.8,290.1 L 195.5,289.9 L 195.0,289.6 L 194.8,289.6 L 194.5,289.4 L 194.4,289.3 L 194.4,289.4 L 194.3,289.5 L 194.2,289.1 L 194.1,289.0 L 193.7,289.0 L 193.7,288.8 L 193.6,288.8 L 193.6,288.6 L 193.6,288.5 L 193.4,288.5 L 193.3,288.5 L 193.2,288.5 L 193.0,288.6 L 192.9,288.5 L 192.6,288.6 L 192.5,288.7 L 192.4,288.8 L 192.1,288.9 L 191.9,289.0 L 191.7,289.0 L 191.5,289.1 L 191.3,289.1 L 190.4,289.3 L 190.3,289.5 L 190.2,289.6 L 190.1,289.7 L 189.8,289.5 L 189.7,289.5 L 189.7,289.5 L 189.6,289.2 L 189.6,289.1 L 189.6,289.1 L 189.2,288.9 L 188.9,289.0 L 188.0,289.2 L 187.8,289.4 L 187.6,289.5 L 187.2,289.6 L 187.0,289.5 L 186.6,289.5 L 186.2,289.6 L 186.1,289.7 L 185.7,290.0 L 185.5,290.1 L 185.3,290.0 L 184.8,290.0 L 184.8,290.1 L 184.3,290.4 L 184.3,290.5 L 184.2,290.6 L 183.9,290.6 L 183.9,290.6 L 183.8,290.4 L 183.7,290.5 L 183.6,290.5 L 183.5,290.6 L 183.2,290.6 L 183.0,290.5 L 183.0,290.5 L 182.8,290.6 L 182.6,290.7 L 182.2,290.8 L 182.1,290.7 L 182.1,290.6 L 181.9,290.7 L 181.7,290.9 L 181.6,291.0 L 181.4,290.8 L 181.3,290.8 L 181.1,291.1 L 181.0,291.1 L 180.9,291.0 L 180.9,290.9 L 180.6,290.8 L 180.5,290.8 L 180.3,291.0 L 180.2,290.8 L 180.1,290.7 L 179.9,290.7 L 179.8,290.9 L 179.7,290.9 L 179.5,290.9 L 179.4,290.9 L 179.0,290.9 L 178.6,291.0 L 178.5,291.1 L 178.4,291.2 L 178.4,291.2 L 178.2,291.2 L 178.0,291.3 L 177.9,291.2 L 177.7,291.3 L 177.6,291.3 L 177.5,291.3 L 177.3,291.4 L 177.2,291.4 L 177.0,291.3 L 177.0,291.3 L 176.8,291.3 L 176.7,291.1 L 176.5,291.2 L 176.3,291.3 L 175.7,291.8 L 175.5,291.9 L 175.2,292.2 L 175.1,292.3 L 174.8,292.4 L 174.4,292.7 L 174.4,292.9 L 174.4,292.9 L 174.2,293.1 L 174.0,293.1 L 173.9,293.1 L 173.8,293.2 L 173.7,293.2 L 173.7,293.0 L 173.6,293.0 L 173.5,293.0 L 173.5,292.9 L 173.4,292.8 L 173.3,292.8 L 173.1,292.7 L 173.0,292.8 L 172.8,292.7 L 172.8,292.6 L 172.7,292.5 L 172.2,292.2 L 172.1,292.2 L 172.1,292.0 L 171.9,291.9 L 171.9,291.7 L 171.7,291.5 L 171.4,291.3 L 171.1,291.3 L 170.9,291.5 L 170.8,291.5 L 170.7,291.5 L 170.5,291.6 L 170.3,291.6 L 170.0,291.9 L 169.7,292.1 L 169.5,292.4 L 169.3,292.4 L 168.7,293.1 L 168.7,293.4 L 168.6,293.7 L 168.5,293.8 L 168.4,293.7 L 168.4,293.4 L 168.4,293.3 L 168.3,293.4 L 168.2,293.5 L 168.2,293.4 L 168.2,293.3 L 168.2,293.3 L 168.0,293.3 L 168.0,293.2 L 168.1,293.0 L 168.0,293.0 L 167.8,293.0 L 167.8,292.9 L 167.9,292.8 L 167.9,292.6 L 167.7,292.6 L 167.4,292.6 L 166.6,293.5 L 166.6,293.6 L 166.7,293.7 L 166.4,293.8 L 166.3,294.0 L 166.2,294.1 L 166.1,294.3 L 165.8,294.6 L 165.7,294.9 L 165.7,295.0 L 165.6,295.2 L 165.4,295.2 L 165.2,295.2 L 164.8,295.3 L 164.7,295.2 L 164.6,295.1 L 164.4,295.0 L 164.1,295.1 L 164.0,295.2 L 163.9,295.2 L 163.9,295.2 L 163.8,295.4 L 163.7,295.4 L 163.6,295.5 L 163.4,295.5 L 162.9,295.4 L 162.7,295.5 L 162.4,295.2 L 162.3,295.0 L 161.9,294.7 L 161.7,294.7 L 161.7,294.5 L 161.4,294.4 L 161.2,294.4 L 161.1,293.9 L 160.8,293.5 L 160.7,293.4 L 160.6,293.3 L 160.6,293.3 L 160.5,293.4 L 160.3,293.4 L 160.3,293.5 L 160.2,293.5 L 160.2,293.4 L 160.2,293.3 L 160.1,293.2 L 160.1,293.0 L 160.0,292.9 L 159.9,292.9 L 159.8,293.0 L 159.7,292.9 L 159.6,293.0 L 159.3,293.0 L 159.0,293.0 L 158.8,293.0 L 158.6,293.1 L 158.4,293.2 L 158.3,293.3 L 158.0,293.5 L 157.9,293.8 L 157.7,293.8 L 157.6,293.7 L 157.5,293.7 L 157.2,293.8 L 157.1,294.0 L 156.7,294.2 L 156.7,294.3 L 103.5,269.5 L 103.4,269.4 L 103.3,269.4 L 103.4,269.2 L 103.3,269.1 L 103.1,269.0 L 103.1,268.8 L 103.0,268.7 L 102.9,268.6 L 102.8,268.5 L 102.6,268.5 L 102.5,268.4 L 102.5,268.4 L 102.5,268.2 L 102.4,268.1 L 102.4,268.0 L 102.7,267.9 L 102.8,267.7 L 102.9,267.4 L 102.9,267.3 L 102.9,267.2 L 103.0,267.1 L 103.0,267.0 L 103.1,266.8 L 103.1,266.7 L 103.3,266.6 L 103.5,266.5 L 103.7,266.5 L 103.8,266.6 L 103.8,266.5 L 103.8,266.3 L 103.7,266.1 L 103.8,265.9 L 103.6,265.5 L 103.4,265.2 L 102.9,264.9 L 102.5,264.6 L 101.9,264.5 L 101.6,264.5 L 101.3,264.4 L 101.1,264.3 L 101.0,264.1 L 100.9,264.0 L 100.5,264.0 L 100.4,264.0 L 100.3,263.8 L 100.1,263.7 L 99.9,263.7 L 99.5,263.5 L 99.4,263.4 L 99.3,263.5 L 98.8,263.3 L 98.7,263.3 L 98.5,262.7 L 98.3,262.4 L 98.1,261.6 L 98.2,261.4 L 98.4,261.2 L 98.6,261.1 L 98.7,260.9 L 98.7,260.8 L 98.9,260.6 L 98.9,260.4 L 99.0,260.2 L 99.0,260.1 L 98.9,260.1 L 98.9,259.9 L 99.0,259.7 L 99.2,259.6 L 99.3,259.5 L 99.4,259.4 L 99.3,258.9 L 99.3,258.4 L 99.5,258.1 L 99.6,257.9 L 100.0,257.6 L 100.2,257.5 L 100.5,257.5 L 100.8,257.4 L 101.0,257.2 L 100.9,257.1 L 100.8,257.0 L 100.5,256.7 L 100.4,256.6 L 100.6,256.3 L 100.6,256.2 L 100.4,256.0 L 100.2,256.0 L 99.9,255.7 L 99.6,255.7 L 99.2,255.5 L 98.7,255.4 L 98.7,255.3 L 98.5,255.3 L 98.5,255.2 L 98.5,255.0 L 98.5,254.9 L 98.3,254.8 L 98.1,254.9 L 97.2,255.0 L 97.0,254.8 L 96.6,254.9 L 96.5,254.5 L 96.5,254.4 L 96.2,254.2 L 95.8,254.1 L 95.5,254.1 L 95.3,254.1 L 95.2,254.0 L 94.9,254.0 L 94.6,253.8 L 94.4,253.7 L 94.2,253.6 L 94.0,253.5 L 93.7,253.6 L 93.4,253.6 L 93.2,253.6 L 92.8,253.7 L 92.8,253.8 L 92.6,254.0 L 92.4,254.0 L 92.0,254.0 L 91.8,253.9 L 91.4,253.9 L 91.0,253.8 L 90.7,253.8 L 90.4,254.0 L 90.3,254.0 L 90.0,253.8 L 89.9,253.6 L 89.8,253.6 L 89.7,253.6 L 89.6,253.3 L 89.4,253.3 L 89.1,253.3 L 89.0,253.0 L 88.7,252.8 L 88.6,252.6 L 88.3,252.4 L 88.1,252.3 L 87.9,252.3 L 87.6,252.0 L 87.5,251.9 L 87.4,251.9 L 87.3,251.8 L 87.1,251.7 L 86.8,251.3 L 86.7,251.3 L 86.6,251.2 L 86.1,251.0 L 85.9,251.0 L 85.7,250.8 L 85.4,250.8 L 85.2,250.9 L 84.9,250.9 L 84.9,250.8 L 84.8,250.7 L 84.7,250.7 L 85.0,250.6 L 85.0,250.5 L 85.0,250.2 L 84.6,249.8 L 84.3,249.6 L 83.9,249.4 L 83.8,249.4 L 83.5,249.1 L 83.5,249.0 L 83.0,248.8 L 82.6,248.7 L 82.5,248.5 L 82.3,248.5 L 82.3,248.3 L 82.1,248.3 L 81.7,248.2 L 81.5,248.1 L 81.5,248.1 L 81.1,248.2 L 80.4,248.2 L 79.8,248.4 L 79.6,248.4 L 79.5,248.4 L 79.3,248.3 L 79.1,248.0 L 79.0,247.7 L 79.0,247.6 L 78.5,247.4 L 78.3,247.3 L 78.2,247.5 L 78.2,247.7 L 78.1,247.8 L 77.8,247.9 L 77.6,247.7 L 77.4,247.4 L 77.3,246.8 L 77.4,246.6 L 77.8,246.3 L 78.2,246.1 L 79.0,245.7 L 79.4,245.7 L 79.8,245.8 L 80.4,245.7 L 80.5,245.8 L 80.9,245.7 L 81.2,245.6 L 81.6,245.6 L 82.3,245.6 L 82.7,245.5 L 82.7,245.5 L 83.6,245.3 L 84.1,245.3 L 84.3,245.4 L 84.5,245.5 L 84.6,245.5 L 84.6,245.3 L 84.8,245.4 L 85.1,245.4 L 85.7,245.5 L 86.2,245.6 L 86.3,245.7 L 86.4,245.8 L 86.5,245.9 L 86.7,245.8 L 86.8,245.9 L 86.9,245.8 L 87.2,245.9 L 87.4,245.8 L 87.8,245.8 L 88.1,245.8 L 88.2,245.8 L 88.3,246.0 L 88.5,246.2 L 88.6,246.1 L 88.6,246.0 L 88.7,246.0 L 88.9,246.0 L 89.0,245.8 L 89.2,245.7 L 89.4,245.5 L 89.4,245.5 L 88.9,245.5 L 88.9,245.5 L 89.1,245.3 L 89.0,245.1 L 89.1,245.0 L 89.3,245.0 L 89.3,244.9 L 89.3,244.8 L 89.4,244.7 L 89.3,244.5 L 89.1,244.4 L 89.2,244.4 L 89.5,244.2 L 89.6,244.1 L 89.5,244.0 L 89.4,244.0 L 89.2,244.1 L 89.2,243.8 L 89.1,243.6 L 89.1,243.4 L 89.2,243.2 L 89.2,242.9 L 89.4,242.8 L 89.5,242.8 L 89.7,242.5 L 89.7,242.4 L 89.5,242.5 L 89.5,242.3 L 89.5,242.1 L 89.4,242.1 L 89.4,241.9 L 89.3,241.8 L 89.5,241.5 L 89.4,241.4 L 89.3,241.3 L 89.0,241.3 L 88.5,241.4 L 88.1,241.5 L 88.0,241.6 L 87.8,241.9 L 87.8,242.2 L 87.4,242.2 L 87.3,242.3 L 87.4,242.5 L 87.4,242.6 L 87.3,242.6 L 87.2,242.8 L 86.5,243.0 L 86.4,242.9 L 86.2,242.8 L 86.1,242.6 L 86.1,242.5 L 85.9,242.4 L 85.5,242.4 L 85.3,242.4 L 85.1,242.3 L 84.6,242.2 L 84.5,242.3 L 84.3,242.4 L 84.1,242.4 L 83.8,242.4 L 83.5,242.5 L 83.3,242.3 L 83.0,242.4 L 82.9,242.4 L 82.8,242.3 L 82.8,242.2 L 82.9,242.2 L 83.1,241.6 L 83.2,241.1 L 83.2,241.0 L 83.1,241.0 L 82.8,240.9 L 82.6,240.8 L 82.6,240.6 L 81.9,240.2 L 81.7,240.2 L 81.6,240.2 L 81.5,240.4 L 81.6,240.5 L 81.6,240.5 L 81.3,240.4 L 81.1,240.6 L 80.8,240.4 L 80.5,240.3 L 80.4,240.4 L 80.2,240.3 L 80.0,240.3 L 80.0,240.3 L 79.9,240.6 L 79.8,240.6 L 79.7,240.6 L 79.4,240.3 L 79.2,240.4 L 79.1,240.5 L 79.0,240.3 L 78.9,240.2 L 78.8,240.1 L 78.7,239.9 L 78.6,239.9 L 78.3,239.9 L 78.1,240.0 L 78.0,239.9 L 77.9,239.8 L 77.9,239.6 L 77.6,239.5 L 77.6,239.2 L 77.6,239.0 L 77.6,238.9 L 77.4,238.9 L 77.3,238.7 L 77.2,238.6 L 76.7,238.5 L 76.3,238.3 L 76.0,238.0 L 76.0,237.8 L 76.1,237.2 L 76.2,236.8 L 76.4,236.4 L 76.6,236.1 L 76.7,235.9 L 77.0,235.6 L 77.0,235.3 L 77.2,235.1 L 77.4,235.0 L 77.5,234.5 L 77.5,234.3 L 77.3,234.3 L 77.3,234.1 L 77.8,233.5 L 77.9,233.4 L 78.0,233.2 L 78.1,233.0 L 78.3,232.7 L 78.4,232.6 L 78.5,232.4 L 78.5,232.1 L 78.6,231.7 L 78.7,231.5 L 78.7,231.3 L 78.8,231.1 L 78.9,231.0 L 78.9,230.9 L 79.0,230.8 L 79.1,230.9 L 79.2,230.8 L 79.4,230.2 L 79.4,230.0 L 79.6,229.7 L 79.6,229.7 L 79.7,229.7 L 79.8,229.5 L 79.9,229.4 L 79.8,229.3 L 79.6,229.3 L 79.6,229.2 L 79.7,229.1 L 80.0,229.1 L 80.3,228.9 L 80.4,228.8 L 80.5,228.6 L 80.6,228.6 L 80.5,228.4 L 80.4,228.3 L 80.4,228.1 L 79.6,227.9 L 79.2,228.0 L 79.0,228.0 L 78.6,228.1 L 78.5,228.1 L 78.4,228.3 L 78.3,228.4 L 78.2,228.4 L 78.2,228.7 L 78.2,228.7 L 78.2,228.9 L 78.3,229.0 L 78.4,229.1 L 78.2,229.2 L 78.3,229.3 L 78.2,229.3 L 78.2,229.4 L 77.9,229.3 L 77.7,229.3 L 77.7,229.4 L 77.6,229.5 L 77.7,229.6 L 77.5,229.7 L 77.2,229.5 L 76.8,229.5 L 76.4,229.5 L 76.4,229.6 L 76.6,229.7 L 76.5,229.7 L 76.1,229.6 L 75.8,229.7 L 75.7,229.8 L 76.0,229.9 L 76.1,230.0 L 76.0,230.0 L 75.9,230.1 L 75.8,230.2 L 75.5,230.6 L 75.3,230.6 L 74.7,230.6 L 74.6,230.6 L 74.5,230.6 L 74.5,230.7 L 74.6,230.7 L 74.6,230.7 L 74.7,231.0 L 74.6,231.1 L 74.5,231.1 L 74.0,231.1 L 73.6,231.1 L 73.3,231.3 L 72.8,231.5 L 72.7,231.5 L 72.4,231.5 L 71.8,231.6 L 71.4,231.4 L 71.3,231.2 L 71.2,231.0 L 71.2,231.0 L 71.3,230.7 L 71.2,230.7 L 71.0,230.9 L 70.9,230.9 L 70.7,230.8 L 70.4,230.7 L 70.3,230.8 L 70.1,230.9 L 70.0,230.9 L 70.0,230.7 L 69.8,230.7 L 69.7,230.7 L 69.8,230.6 L 69.8,230.5 L 69.7,230.5 L 69.5,230.7 L 69.4,230.6 L 69.2,230.6 L 68.9,230.7 L 68.8,230.9 L 68.8,231.2 L 68.2,231.6 L 68.1,231.6 L 67.8,231.7 L 67.6,231.9 L 67.4,232.2 L 67.0,232.2 L 66.8,232.4 L 66.7,232.5 L 66.4,232.6 L 66.1,232.5 L 66.1,232.5 L 66.2,232.1 L 66.1,232.0 L 65.8,232.1 L 65.7,232.3 L 65.7,232.5 L 65.7,232.6 L 65.6,232.7 L 65.4,232.5 L 65.3,232.5 L 65.4,232.4 L 65.4,232.4 L 65.3,232.3 L 65.3,232.1 L 65.3,232.1 L 65.3,232.0 L 65.4,232.0 L 65.4,231.9 L 65.4,231.8 L 65.3,231.7 L 65.2,231.8 L 65.3,231.8 L 65.1,231.9 L 65.1,232.0 L 65.2,232.1 L 65.1,232.3 L 65.0,232.3 L 64.9,232.3 L 65.0,232.1 L 64.9,232.0 L 64.7,231.8 L 64.5,231.8 L 64.5,231.8 L 64.7,232.1 L 64.8,232.2 L 64.6,232.2 L 64.4,232.2 L 64.2,232.0 L 64.2,232.1 L 64.2,232.3 L 64.1,232.3 L 63.9,232.4 L 63.9,232.5 L 63.7,232.7 L 63.6,232.7 L 63.5,232.7 L 63.5,232.7 L 63.3,232.7 L 63.3,232.8 L 63.3,233.2 L 63.3,233.2 L 63.3,233.3 L 63.1,233.3 L 63.1,233.4 L 63.1,233.5 L 63.1,233.7 L 62.9,233.9 L 62.7,233.9 L 62.6,233.9 L 62.5,234.0 L 62.4,234.1 L 62.3,234.0 L 62.2,233.9 L 62.2,233.9 L 61.9,234.1 L 61.9,234.0 L 61.8,233.9 L 61.6,233.9 L 61.4,233.9 L 61.3,233.9 L 61.3,233.8 L 61.2,233.7 L 61.1,233.7 L 61.0,233.7 L 60.9,233.7 L 60.6,233.8 L 59.8,233.2 L 59.7,233.2 L 59.5,232.7 L 59.3,232.6 L 59.0,232.4 L 58.3,231.4 L 58.2,231.1 L 58.2,230.9 L 58.2,230.7 L 58.2,230.4 L 58.2,230.3 L 58.2,230.2 L 58.1,230.1 L 58.1,229.8 L 58.2,229.7 L 58.2,229.5 L 58.0,229.4 L 57.8,229.2 L 57.6,229.0 L 57.5,228.9 L 57.4,228.4 L 57.4,228.2 L 57.4,227.6 L 57.4,227.0 L 57.5,226.7 L 57.6,226.5 L 57.8,226.1 L 58.0,226.0 L 58.1,225.9 L 58.7,225.9 L 59.3,226.0 L 59.4,226.0 L 59.7,225.9 L 60.0,225.7 L 60.3,225.4 L 60.6,225.4 L 60.7,225.2 L 60.9,225.2 L 60.8,224.8 L 60.5,224.5 L 60.5,224.4 L 60.6,224.3 L 60.5,224.2 L 60.6,224.1 L 60.5,224.0 L 60.4,223.9 L 60.2,223.5 L 60.2,223.4 L 60.4,223.1 L 60.3,222.8 L 60.3,222.7 L 60.2,222.6 L 60.2,222.5 L 60.2,222.1 L 60.3,221.8 L 60.3,221.5 L 60.6,221.2 L 60.5,220.9 L 60.7,220.7 L 61.0,220.7 L 61.0,220.5 L 61.0,220.3 L 61.1,220.1 L 61.0,220.1 L 60.9,220.1 L 60.8,220.3 L 60.7,220.3 L 60.6,220.2 L 60.6,219.9 L 60.5,219.6 L 60.7,219.3 L 60.7,219.1 L 60.6,219.1 L 60.5,219.2 L 60.5,219.2 L 60.3,219.0 L 60.2,219.1 L 60.1,219.2 L 60.1,219.1 L 60.1,218.8 L 60.0,218.8 L 59.9,218.8 L 59.9,219.1 L 59.9,219.1 L 59.7,219.2 L 59.3,219.0 L 59.3,218.9 L 59.2,218.8 L 59.2,218.7 L 59.1,218.5 L 59.1,218.5 L 58.9,218.5 L 58.8,218.5 L 58.8,218.4 L 58.8,217.9 L 58.8,217.6 L 58.9,217.4 L 58.8,217.2 L 58.7,217.1 L 58.5,217.1 L 58.5,217.2 L 58.5,217.6 L 58.5,217.6 L 58.3,217.4 L 58.2,217.4 L 58.1,217.2 L 58.1,217.2 L 57.9,217.3 L 57.8,217.3 L 57.8,217.2 L 57.9,216.9 L 57.9,216.8 L 57.8,216.7 L 57.6,216.8 L 57.5,216.8 L 57.3,216.7 L 57.1,216.9 L 56.9,217.2 L 56.8,217.3 L 56.5,217.0 L 56.5,217.0 L 56.3,217.0 L 56.3,217.1 L 56.2,217.3 L 56.1,217.6 L 55.9,217.7 L 55.8,217.8 L 55.7,217.9 L 55.7,217.7 L 55.6,217.6 L 55.4,217.7 L 55.3,217.8 L 55.2,218.1 L 55.1,218.1 L 54.9,218.0 L 54.8,217.9 L 54.9,217.7 L 54.9,217.5 L 54.7,217.4 L 54.7,217.0 L 54.8,216.9 L 54.6,216.7 L 54.5,216.6 L 54.5,216.5 L 54.4,216.5 L 54.4,216.7 L 54.3,216.8 L 54.2,216.6 L 54.1,216.7 L 54.1,216.9 L 54.0,217.1 L 53.9,217.1 L 53.8,217.0 L 53.6,217.1 L 53.3,217.2 L 53.1,217.1 L 52.9,216.8 L 52.9,216.8 L 52.8,216.7 L 52.7,216.8 L 52.7,217.0 L 52.5,217.1 L 52.5,217.1 L 52.3,217.0 L 52.0,217.0 L 51.7,216.8 L 51.8,216.6 L 51.9,216.4 L 51.9,216.2 L 51.6,216.1 L 51.5,216.1 L 51.6,216.2 L 51.6,216.3 L 51.5,216.4 L 51.4,216.4 L 51.3,216.4 L 51.3,216.7 L 51.1,216.8 L 51.0,216.7 L 51.1,216.4 L 51.1,216.3 L 51.0,216.3 L 50.9,216.3 L 50.9,216.1 L 50.8,216.1 L 50.8,216.1 L 50.8,216.3 L 50.7,216.6 L 50.5,216.7 L 50.5,216.6 L 50.5,216.5 L 50.5,216.4 L 50.5,216.3 L 50.5,216.1 L 50.3,216.2 L 50.3,216.2 L 50.3,215.9 L 50.1,215.9 L 49.9,215.7 L 49.7,215.3 L 49.8,215.2 L 49.8,215.1 L 49.7,215.1 L 49.7,215.0 L 49.8,214.9 L 49.8,214.7 L 49.9,214.7 L 49.9,214.4 L 49.8,214.5 L 49.7,214.4 L 49.8,214.3 L 49.8,214.2 L 49.8,214.1 L 49.7,214.0 L 49.7,214.0 L 49.6,214.1 L 49.5,214.1 L 49.5,213.7 L 49.5,213.7 L 49.4,213.6 L 49.3,213.7 L 49.3,213.5 L 49.3,213.3 L 49.2,213.1 L 49.2,213.0 L 49.1,213.0 L 49.1,213.2 L 49.0,213.3 L 48.9,213.4 L 48.8,213.4 L 48.8,213.3 L 48.7,213.2 L 48.6,213.1 L 48.6,213.0 L 48.5,212.9 L 48.5,212.6 L 48.4,212.6 L 48.1,212.9 L 48.0,212.8 L 48.2,212.5 L 48.2,212.4 L 48.0,212.4 L 48.0,212.4 L 48.2,212.3 L 48.1,212.1 L 48.0,211.9 L 48.0,211.9 L 47.6,212.2 L 47.5,212.2 L 47.4,212.1 L 47.6,211.9 L 47.5,211.5 L 47.3,211.3 L 47.2,211.3 L 47.2,211.3 L 47.1,211.4 L 46.6,211.5 L 46.5,211.4 L 46.5,211.0 L 46.3,211.0 L 46.2,210.9 L 46.1,210.9 L 46.1,210.6 L 45.8,210.4 L 45.8,210.1 L 45.6,210.0 L 45.5,209.9 L 45.2,209.9 L 44.8,210.0 L 44.7,209.9 L 44.5,209.6 L 44.4,209.6 L 44.4,209.5 L 44.3,209.5 L 44.1,209.4 L 44.0,209.2 L 44.0,208.9 L 43.9,208.8 L 43.8,208.5 L 43.7,208.4 L 43.6,208.5 L 43.5,208.5 L 43.0,208.5 L 43.0,208.4 L 43.2,208.3 L 43.3,208.2 L 43.3,208.1 L 43.2,208.1 L 43.0,208.1 L 42.8,208.3 L 42.6,208.3 L 42.5,208.2 L 42.3,208.0 L 42.3,207.8 L 42.1,207.7 L 41.8,207.4 L 41.8,207.3 L 42.0,207.2 L 41.9,207.2 L 41.8,207.1 L 41.8,207.0" fill="none" stroke="black" stroke-width="2"/>
</svg>