<?xml version="1.0" encoding="UTF-8"?>
<svg width="400" height="400" viewBox="0 0 400 400" xmlns="http://www.w3.org/2000/svg">
  <rect width="400" height="400" fill="white"/>
  <path d="M 138.5,199.5 L 138.8,199.4 L 140.0,199.9 L 140.6,199.7 L 141.9,197.5 L 143.0,196.7 L 143.8,196.5 L 144.5,195.6 L 144.9,194.9 L 147.2,194.3 L 147.9,194.1 L 149.8,194.9 L 152.4,194.1 L 154.0,193.5 L 155.3,192.7 L 157.2,191.9 L 158.6,191.6 L 159.2,191.5 L 162.1,191.6 L 163.2,191.5 L 164.7,191.0 L 165.5,190.5 L 167.3,190.1 L 168.6,190.2 L 170.6,191.1 L 171.4,192.0 L 173.0,192.7 L 173.9,192.3 L 174.8,191.7 L 176.4,190.9 L 177.7,190.3 L 177.9,190.4 L 178.9,189.9 L 179.8,189.8 L 180.6,189.7 L 181.5,189.6 L 183.0,189.2 L 184.2,188.4 L 185.3,186.9 L 186.2,186.4 L 187.3,185.3 L 188.0,183.6 L 188.2,181.8 L 187.8,180.3 L 188.1,179.7 L 188.1,178.8 L 186.6,178.0 L 185.2,176.8 L 184.9,176.3 L 184.9,175.6 L 185.4,174.9 L 186.3,175.3 L 187.0,175.0 L 188.5,173.8 L 189.4,172.7 L 189.3,171.9 L 189.7,170.7 L 189.8,169.8 L 190.4,168.7 L 190.5,167.1 L 192.3,164.1 L 192.9,163.1 L 193.2,161.0 L 193.1,160.6 L 192.4,160.1 L 192.4,159.7 L 193.4,158.7 L 195.2,157.7 L 196.5,156.8 L 197.0,156.0 L 196.7,154.9 L 195.5,154.5 L 196.7,152.8 L 197.0,151.8 L 197.1,150.7 L 197.4,150.1 L 197.5,149.6 L 197.0,149.1 L 197.7,148.0 L 197.7,147.2 L 196.5,145.5 L 194.7,143.9 L 194.7,142.5 L 194.3,142.1 L 194.4,141.5 L 194.1,141.0 L 192.7,140.1 L 192.0,139.4 L 191.9,138.4 L 191.3,138.0 L 191.2,137.7 L 190.4,137.2 L 189.1,136.7 L 188.8,136.3 L 188.8,135.8 L 188.9,135.1 L 188.8,134.0 L 188.8,133.8 L 188.4,132.5 L 187.9,132.1 L 187.7,131.4 L 184.1,130.7 L 183.4,130.2 L 183.2,129.3 L 183.2,127.7 L 183.0,127.2 L 183.0,126.5 L 183.5,125.8 L 186.3,123.3 L 188.2,122.5 L 192.3,121.5 L 193.9,120.9 L 198.5,119.8 L 203.4,119.0 L 204.1,119.0 L 204.7,118.9 L 205.5,119.3 L 205.9,120.4 L 206.7,120.7 L 207.7,120.6 L 209.3,120.0 L 210.4,118.6 L 211.0,117.2 L 212.2,116.2 L 212.6,115.5 L 212.7,114.7 L 212.6,113.2 L 212.6,112.0 L 212.9,110.6 L 213.4,109.8 L 213.8,109.4 L 214.4,108.8 L 215.9,107.3 L 216.6,105.8 L 218.1,104.2 L 219.3,103.1 L 219.2,102.6 L 218.4,101.9 L 218.4,101.3 L 219.5,100.1 L 220.0,99.8 L 222.3,97.7 L 223.8,96.1 L 224.2,95.7 L 225.5,94.7 L 227.9,93.2 L 229.1,92.7 L 231.0,92.1 L 232.3,91.5 L 233.1,90.7 L 233.5,89.8 L 235.1,88.9 L 237.3,88.3 L 238.9,87.3 L 239.5,87.1 L 240.9,86.1 L 240.8,85.8 L 242.3,84.4 L 243.1,83.4 L 244.3,82.6 L 245.4,81.5 L 246.1,81.1 L 246.7,80.4 L 246.9,79.6 L 247.2,79.2 L 247.8,79.2 L 248.6,79.3 L 249.5,79.0 L 250.3,78.3 L 249.9,77.3 L 250.2,77.1 L 252.6,75.8 L 254.8,73.7 L 255.5,73.2 L 256.3,72.3 L 256.1,71.6 L 255.0,70.9 L 255.1,69.9 L 254.3,69.6 L 253.5,69.4 L 253.3,68.3 L 253.3,67.3 L 253.9,66.4 L 255.5,65.2 L 257.5,64.3 L 259.1,63.9 L 259.9,64.2 L 260.1,64.6 L 261.0,67.2 L 261.3,67.9 L 261.8,68.1 L 262.3,67.9 L 262.8,67.2 L 263.8,66.7 L 265.0,65.2 L 266.3,63.2 L 267.3,61.9 L 267.4,61.4 L 267.3,61.1 L 268.2,60.5 L 269.3,58.3 L 269.7,56.0 L 269.5,54.5 L 269.6,54.1 L 268.9,50.6 L 269.6,47.8 L 269.5,46.9 L 268.9,44.1 L 269.0,42.6 L 269.1,41.9 L 269.4,41.6 L 269.9,41.3 L 271.0,40.5 L 271.8,40.3 L 272.2,40.0 L 272.8,40.0 L 273.5,40.7 L 273.9,42.3 L 274.2,42.4 L 275.0,42.2 L 325.4,79.8 L 325.1,80.2 L 325.2,80.4 L 325.7,80.2 L 325.8,80.1 L 326.6,80.7 L 326.6,80.7 L 325.9,82.4 L 325.9,83.0 L 326.5,83.1 L 326.7,83.7 L 327.1,83.9 L 327.8,83.5 L 327.9,83.7 L 327.6,84.4 L 327.7,84.8 L 328.2,84.5 L 329.3,83.5 L 329.9,83.3 L 330.0,83.5 L 335.8,93.5 L 335.9,93.7 L 335.6,93.9 L 335.0,94.2 L 334.7,94.5 L 334.5,95.2 L 334.9,95.8 L 334.9,96.1 L 334.1,96.4 L 333.8,97.1 L 333.1,98.3 L 332.2,98.3 L 331.9,98.8 L 331.8,99.3 L 331.9,99.6 L 331.5,100.2 L 331.3,100.7 L 331.8,101.1 L 332.1,101.7 L 331.7,102.4 L 330.9,102.9 L 330.2,103.9 L 329.6,103.9 L 329.4,104.1 L 329.5,104.8 L 329.2,105.6 L 329.1,106.8 L 328.4,107.5 L 325.8,108.6 L 325.0,109.2 L 324.3,109.5 L 323.8,109.5 L 323.7,109.4 L 322.4,109.0 L 322.2,108.0 L 322.0,107.9 L 321.5,107.9 L 321.2,108.2 L 320.7,108.4 L 320.5,107.7 L 319.8,107.7 L 318.7,105.4 L 318.2,105.2 L 317.8,105.2 L 317.9,105.8 L 318.4,106.6 L 318.3,106.9 L 317.3,106.3 L 317.1,106.9 L 316.4,107.0 L 316.1,107.4 L 316.5,109.3 L 316.8,109.6 L 318.7,110.0 L 319.9,110.3 L 320.2,110.8 L 320.3,111.7 L 319.9,112.6 L 318.7,113.0 L 318.5,113.3 L 318.2,114.1 L 318.0,114.2 L 317.4,114.1 L 317.0,114.1 L 316.7,114.9 L 316.4,115.4 L 315.9,115.3 L 314.7,115.5 L 314.3,115.8 L 314.9,117.9 L 315.1,118.2 L 315.4,118.3 L 315.8,117.9 L 316.2,117.7 L 316.9,118.1 L 317.7,118.8 L 318.0,119.9 L 317.9,120.9 L 317.2,122.9 L 317.2,123.9 L 317.0,124.3 L 316.3,125.3 L 315.3,128.2 L 315.0,129.5 L 314.2,130.8 L 314.0,131.5 L 314.0,132.2 L 313.8,133.1 L 313.9,134.2 L 314.0,135.0 L 313.7,137.4 L 314.8,143.1 L 314.8,145.1 L 314.7,146.4 L 314.8,148.6 L 315.3,150.8 L 315.3,155.0 L 315.5,156.2 L 315.2,158.7 L 314.8,160.9 L 314.3,162.1 L 313.5,162.8 L 311.0,163.7 L 309.0,163.7 L 307.8,163.4 L 306.9,162.9 L 306.2,161.8 L 305.2,160.6 L 304.6,159.2 L 304.9,157.0 L 307.0,151.4 L 307.2,150.2 L 307.0,149.5 L 306.6,148.9 L 306.3,147.7 L 305.6,147.0 L 304.8,145.1 L 304.1,143.0 L 303.4,142.0 L 302.7,140.7 L 301.5,136.4 L 301.5,135.6 L 300.8,133.7 L 300.7,132.6 L 301.2,131.5 L 302.1,130.0 L 302.2,129.7 L 303.4,127.5 L 304.5,124.6 L 304.6,123.7 L 304.8,122.6 L 304.9,121.5 L 304.7,120.1 L 305.3,118.5 L 305.1,117.0 L 303.6,110.4 L 303.1,109.4 L 301.9,106.5 L 301.4,106.0 L 300.9,105.8 L 300.3,102.6 L 300.5,101.8 L 300.1,101.1 L 299.3,100.5 L 297.6,100.5 L 297.0,100.6 L 296.4,101.6 L 296.0,101.8 L 295.2,101.6 L 294.9,101.6 L 294.5,102.1 L 294.4,102.2 L 293.8,101.9 L 292.5,101.7 L 291.0,101.6 L 287.9,101.2 L 287.7,101.1 L 288.0,100.9 L 289.0,100.6 L 288.9,100.4 L 288.1,99.8 L 285.6,99.1 L 284.4,99.1 L 283.3,99.6 L 283.0,100.1 L 283.0,100.4 L 282.6,101.1 L 282.7,101.8 L 281.9,102.7 L 281.6,103.6 L 281.1,104.1 L 281.3,105.3 L 280.8,105.2 L 280.2,105.4 L 279.0,105.9 L 278.6,106.7 L 278.7,107.3 L 279.1,107.9 L 279.6,110.5 L 278.9,111.2 L 278.5,112.2 L 277.6,113.1 L 276.5,113.4 L 275.5,113.3 L 274.8,113.1 L 274.2,112.9 L 273.5,112.2 L 273.0,111.6 L 268.8,109.6 L 268.4,109.5 L 267.6,109.5 L 266.5,110.0 L 265.3,111.3 L 264.5,111.7 L 264.5,112.6 L 263.2,111.9 L 261.9,111.5 L 261.8,111.2 L 261.1,110.9 L 259.4,111.0 L 257.8,110.4 L 255.9,110.1 L 255.9,109.8 L 256.1,109.1 L 255.3,108.4 L 254.1,107.6 L 253.7,107.2 L 252.6,107.7 L 251.9,107.6 L 250.9,108.0 L 250.3,108.1 L 249.8,108.0 L 247.3,108.6 L 246.7,108.5 L 245.0,109.2 L 244.3,109.7 L 243.1,110.3 L 242.7,110.7 L 242.0,112.0 L 242.0,112.3 L 242.6,113.0 L 242.5,113.3 L 241.9,113.7 L 241.0,113.4 L 239.8,114.1 L 237.9,114.7 L 237.5,115.0 L 238.2,115.5 L 237.8,116.0 L 238.3,116.5 L 238.5,117.0 L 237.1,117.6 L 236.6,118.2 L 236.1,118.4 L 235.6,119.1 L 235.3,120.0 L 234.8,121.0 L 235.1,122.2 L 235.1,122.8 L 235.2,123.5 L 235.5,124.2 L 235.6,124.8 L 235.4,125.0 L 234.7,126.0 L 234.6,127.7 L 234.2,129.3 L 231.1,130.1 L 229.9,130.8 L 227.1,133.2 L 226.2,134.8 L 225.7,136.5 L 224.1,139.9 L 222.8,143.3 L 222.6,144.2 L 222.0,145.3 L 222.3,147.2 L 222.5,147.8 L 222.5,148.6 L 221.3,150.6 L 220.8,151.9 L 221.0,152.7 L 220.9,153.7 L 221.2,155.0 L 221.4,156.7 L 221.6,157.9 L 222.1,159.1 L 223.3,160.6 L 225.4,162.5 L 226.5,163.9 L 228.3,165.1 L 229.3,165.5 L 231.9,166.8 L 234.3,168.7 L 236.7,171.3 L 236.5,171.6 L 233.1,173.3 L 232.1,174.2 L 229.7,177.9 L 228.6,178.5 L 228.0,178.7 L 227.0,178.6 L 225.4,178.6 L 224.5,178.4 L 221.8,178.2 L 221.2,177.9 L 220.1,177.8 L 218.4,177.7 L 216.6,177.0 L 215.5,177.0 L 214.3,177.5 L 214.2,177.9 L 213.8,180.1 L 213.4,183.3 L 213.5,184.6 L 213.3,186.4 L 213.5,187.5 L 213.2,189.2 L 212.5,190.1 L 211.9,190.3 L 211.3,191.2 L 211.0,192.3 L 210.9,195.8 L 211.9,197.2 L 212.2,199.8 L 212.0,201.9 L 211.4,204.0 L 211.2,204.3 L 211.2,204.7 L 210.7,206.8 L 210.6,206.9 L 209.9,208.0 L 209.0,208.4 L 207.7,207.9 L 206.7,207.5 L 206.7,207.5 L 205.3,207.6 L 204.7,207.7 L 203.4,207.3 L 202.1,207.8 L 201.1,207.9 L 200.4,208.5 L 199.5,209.0 L 199.5,209.0 L 198.9,209.8 L 197.9,212.1 L 197.5,213.7 L 197.0,214.7 L 196.8,215.9 L 196.9,216.7 L 197.6,218.4 L 197.4,219.0 L 196.6,219.7 L 196.2,220.8 L 195.5,221.4 L 195.1,222.0 L 195.0,223.3 L 195.0,225.3 L 195.2,227.8 L 194.9,228.7 L 194.6,230.0 L 194.3,234.3 L 194.7,235.9 L 195.1,237.2 L 196.7,239.2 L 197.2,241.2 L 198.4,245.8 L 198.3,246.3 L 197.0,248.7 L 197.0,249.5 L 197.2,250.5 L 197.5,251.3 L 197.9,252.4 L 197.7,253.1 L 197.4,253.9 L 196.9,255.3 L 197.2,256.9 L 197.2,258.0 L 197.3,259.0 L 196.7,260.3 L 195.9,261.3 L 195.2,261.7 L 194.1,262.7 L 193.8,263.2 L 193.3,263.8 L 192.3,265.4 L 192.2,267.7 L 191.9,268.2 L 191.1,269.1 L 190.5,270.0 L 190.5,270.6 L 189.9,271.7 L 189.6,273.9 L 189.3,274.4 L 188.1,274.9 L 187.3,275.8 L 186.0,276.6 L 185.6,277.5 L 185.3,278.9 L 184.7,280.6 L 184.0,281.1 L 183.7,281.8 L 183.5,285.0 L 184.3,288.4 L 184.5,288.7 L 185.2,290.9 L 185.1,292.4 L 184.9,293.7 L 185.0,294.2 L 184.5,295.8 L 183.5,297.5 L 182.8,298.5 L 181.8,299.4 L 181.2,300.1 L 180.4,301.0 L 179.8,302.2 L 178.5,303.6 L 177.3,304.6 L 176.7,305.2 L 176.6,306.2 L 176.9,307.5 L 176.8,308.6 L 176.8,310.2 L 176.8,311.2 L 176.4,312.2 L 175.2,313.5 L 174.7,313.8 L 173.0,314.4 L 171.2,314.3 L 170.5,314.3 L 170.3,314.4 L 169.0,314.9 L 166.5,316.2 L 165.1,317.7 L 164.0,318.7 L 162.3,319.8 L 161.7,320.8 L 161.8,320.9 L 162.0,325.5 L 162.3,327.1 L 162.3,328.8 L 162.2,329.8 L 162.9,334.2 L 163.1,336.1 L 163.6,337.2 L 164.0,337.7 L 164.7,341.1 L 167.6,342.9 L 168.6,343.8 L 168.6,344.7 L 168.8,345.9 L 168.8,346.5 L 169.1,347.9 L 169.8,348.9 L 170.2,350.3 L 171.0,351.6 L 171.8,352.1 L 172.9,352.4 L 173.4,352.9 L 174.5,357.2 L 174.9,358.1 L 175.9,359.2 L 176.1,359.8 L 175.7,360.0 L 174.8,359.8 L 174.4,359.3 L 173.6,357.8 L 172.9,357.3 L 172.1,357.1 L 171.5,356.7 L 170.5,356.6 L 168.5,356.9 L 165.1,357.3 L 163.9,357.1 L 163.9,357.1 L 163.6,357.1 L 162.6,356.8 L 162.1,356.6 L 161.3,355.3 L 160.8,354.8 L 160.4,353.2 L 159.2,352.7 L 158.3,352.8 L 158.1,352.5 L 157.8,351.8 L 156.8,352.0 L 155.8,351.0 L 155.5,349.9 L 155.0,349.6 L 153.9,349.4 L 153.3,349.1 L 150.2,348.8 L 148.1,348.9 L 146.2,349.1 L 145.0,349.2 L 143.0,349.5 L 141.5,350.1 L 138.7,351.8 L 137.7,352.5 L 136.4,352.9 L 132.7,352.6 L 131.5,352.5 L 129.4,352.8 L 126.0,354.5 L 125.2,355.5 L 124.9,356.4 L 125.0,357.5 L 125.5,358.0 L 125.6,358.3 L 125.1,358.4 L 124.5,358.6 L 124.2,358.2 L 123.7,358.0 L 123.2,358.2 L 121.3,358.7 L 119.4,358.6 L 114.3,359.6 L 111.5,359.3 L 109.0,359.0 L 107.0,358.8 L 104.6,358.2 L 102.6,357.4 L 98.8,355.4 L 96.6,354.1 L 94.8,353.2 L 91.9,352.5 L 90.7,352.6 L 87.9,352.8 L 84.9,353.3 L 83.5,353.3 L 83.4,353.5 L 82.4,353.6 L 81.6,353.7 L 80.5,353.7 L 78.5,352.8 L 76.6,351.5 L 75.6,350.5 L 74.8,348.8 L 74.6,348.0 L 74.0,346.9 L 73.7,344.6 L 75.1,342.6 L 76.0,341.6 L 77.6,340.2 L 79.4,339.7 L 79.2,339.3 L 79.1,339.2 L 79.4,338.7 L 79.8,338.0 L 79.7,337.1 L 80.9,336.6 L 80.8,336.4 L 79.5,336.7 L 78.9,336.4 L 78.5,336.3 L 78.1,335.6 L 77.3,332.4 L 76.6,330.2 L 76.6,330.1 L 76.4,329.3 L 74.3,328.0 L 73.6,327.3 L 73.1,327.4 L 72.7,328.5 L 72.4,328.7 L 72.2,327.5 L 72.8,326.3 L 72.5,325.8 L 71.6,324.6 L 71.3,323.8 L 70.8,322.9 L 70.4,321.1 L 70.3,317.4 L 70.4,315.9 L 70.4,314.2 L 70.0,312.7 L 69.8,312.6 L 69.3,312.8 L 68.9,313.5 L 68.0,314.4 L 65.4,315.2 L 64.5,314.7 L 64.2,314.1 L 64.1,313.1 L 64.5,311.9 L 65.4,310.1 L 65.0,309.2 L 66.0,309.7 L 67.8,310.1 L 69.1,310.6 L 69.6,310.6 L 70.5,310.1 L 72.3,310.1 L 73.3,310.6 L 73.8,310.6 L 73.8,310.6 L 74.3,310.4 L 74.7,310.0 L 74.9,310.1 L 75.6,310.3 L 76.8,311.2 L 78.3,312.6 L 79.3,313.5 L 80.1,314.2 L 81.5,314.8 L 83.4,314.4 L 84.6,314.7 L 91.1,313.4 L 94.1,312.3 L 95.2,311.6 L 96.3,311.3 L 98.2,310.2 L 100.7,308.3 L 100.7,307.8 L 100.5,306.7 L 100.7,305.8 L 100.6,304.0 L 101.0,303.3 L 101.5,303.0 L 102.7,302.5 L 105.1,302.5 L 106.3,302.7 L 107.0,303.1 L 108.2,303.5 L 108.8,304.0 L 109.1,305.1 L 110.1,304.9 L 111.1,304.8 L 116.4,306.6 L 119.1,308.4 L 120.4,308.8 L 122.5,309.7 L 124.8,310.5 L 126.5,310.1 L 130.0,310.3 L 131.9,310.2 L 134.0,309.9 L 136.7,309.2 L 139.8,308.2 L 142.3,306.4 L 143.5,305.7 L 144.7,305.5 L 146.5,304.7 L 147.9,303.4 L 148.4,302.6 L 148.3,301.5 L 147.2,299.5 L 145.9,297.8 L 145.5,294.7 L 144.9,293.8 L 144.2,293.0 L 143.9,292.8 L 143.8,292.0 L 143.8,291.4 L 143.4,290.3 L 142.7,289.2 L 142.1,287.5 L 142.3,287.1 L 141.6,284.1 L 141.7,283.5 L 142.4,282.3 L 143.1,281.9 L 144.3,280.1 L 145.1,279.5 L 145.2,279.6 L 145.2,279.6 L 145.4,279.2 L 145.5,278.8 L 145.4,277.4 L 144.9,276.4 L 144.7,276.3 L 144.4,276.3 L 144.4,276.3 L 144.2,276.5 L 142.8,276.8 L 142.2,277.2 L 140.8,277.6 L 139.6,277.2 L 136.2,275.2 L 133.7,272.9 L 133.0,271.8 L 131.9,270.8 L 130.7,270.0 L 130.0,269.0 L 128.9,267.2 L 127.8,266.2 L 126.4,265.3 L 125.6,263.3 L 124.9,262.1 L 124.0,261.4 L 122.4,260.8 L 120.7,261.1 L 119.7,260.7 L 118.5,260.0 L 117.5,259.7 L 116.4,259.9 L 113.8,260.4 L 111.9,260.4 L 111.2,260.0 L 111.7,259.5 L 112.7,259.3 L 114.1,259.4 L 116.4,259.1 L 118.4,259.2 L 119.3,258.9 L 119.7,258.2 L 119.8,257.4 L 120.1,256.7 L 121.7,255.7 L 122.2,255.1 L 122.1,254.4 L 121.7,253.9 L 121.5,252.9 L 121.7,252.2 L 122.2,251.7 L 123.5,251.3 L 125.8,248.9 L 127.3,246.6 L 127.4,245.8 L 127.1,244.8 L 127.1,244.1 L 127.9,243.1 L 129.4,242.0 L 131.5,241.6 L 132.9,241.5 L 133.9,241.1 L 134.4,240.5 L 134.4,239.4 L 134.2,238.6 L 134.7,237.7 L 134.8,237.5 L 135.0,237.4 L 135.0,237.3 L 135.2,237.1 L 135.6,236.7 L 137.0,234.5 L 138.4,233.3 L 138.7,230.9 L 138.5,230.3 L 139.0,228.7 L 140.6,227.3 L 141.1,226.5 L 141.6,224.7 L 142.2,223.8 L 143.1,222.9 L 143.3,221.6 L 143.9,220.1 L 144.3,219.1 L 144.4,217.8 L 144.0,216.6 L 143.4,215.8 L 141.0,214.6 L 140.5,214.6 L 139.8,213.9 L 139.1,212.3 L 138.7,211.7 L 138.4,210.5 L 138.3,210.0 L 138.6,208.4 L 138.6,205.6 L 138.4,204.3 L 138.6,202.3 L 138.8,201.1" fill="none" stroke="black" stroke-width="2"/>
</svg>