<?xml version="1.0" encoding="UTF-8"?>
<svg width="400" height="400" viewBox="0 0 400 400" xmlns="http://www.w3.org/2000/svg">
  <rect width="400" height="400" fill="white"/>
  <path d="M 143.9,208.9 L 144.0,208.1 L 143.7,206.6 L 144.5,204.2 L 145.4,202.4 L 147.4,198.8 L 149.6,193.6 L 151.4,190.5 L 153.3,187.3 L 154.7,183.6 L 155.6,181.8 L 156.2,179.4 L 157.2,177.6 L 157.7,176.0 L 159.3,173.6 L 160.2,172.6 L 160.7,170.9 L 162.0,168.5 L 163.4,167.0 L 164.3,166.7 L 164.9,166.1 L 165.9,164.3 L 166.9,163.3 L 167.3,161.9 L 167.9,161.2 L 168.5,161.2 L 168.9,161.7 L 169.0,162.4 L 169.3,162.6 L 170.1,162.2 L 171.4,161.0 L 175.3,154.7 L 176.1,151.3 L 177.4,149.7 L 178.0,148.8 L 180.7,146.4 L 181.1,144.8 L 181.7,143.3 L 182.5,142.8 L 183.6,142.2 L 184.7,140.2 L 185.3,139.7 L 187.0,136.7 L 187.8,135.9 L 188.6,134.2 L 189.2,133.2 L 190.6,132.0 L 191.0,131.6 L 192.2,129.1 L 192.4,127.5 L 192.2,126.9 L 193.7,122.3 L 193.9,121.6 L 194.3,121.1 L 194.5,120.1 L 195.4,118.3 L 196.5,116.5 L 196.7,115.2 L 197.1,114.0 L 198.9,110.7 L 199.5,109.5 L 200.1,108.6 L 200.3,106.8 L 201.6,104.0 L 202.1,103.6 L 203.8,101.6 L 204.2,99.5 L 204.3,99.3 L 204.8,97.5 L 206.3,93.0 L 208.3,86.9 L 209.2,83.3 L 210.0,80.8 L 210.8,76.8 L 213.0,69.1 L 214.2,67.3 L 215.2,66.6 L 216.4,65.6 L 217.3,64.2 L 217.4,63.9 L 217.9,62.3 L 218.3,60.4 L 218.5,59.9 L 219.9,59.4 L 221.4,59.2 L 222.9,59.3 L 224.8,59.2 L 225.6,58.9 L 226.4,58.9 L 227.4,58.6 L 230.5,56.4 L 233.0,54.9 L 233.2,55.0 L 233.9,55.4 L 236.2,55.3 L 240.3,54.1 L 241.1,54.1 L 243.2,54.3 L 245.8,53.6 L 246.8,52.8 L 248.3,51.3 L 253.3,46.8 L 254.3,46.1 L 256.6,45.2 L 259.8,42.9 L 261.1,42.1 L 263.7,40.0 L 274.6,57.4 L 274.9,57.8 L 273.1,61.7 L 273.0,62.0 L 271.3,64.4 L 270.3,66.0 L 269.7,68.6 L 269.0,70.5 L 267.8,72.4 L 267.4,73.9 L 267.2,75.5 L 267.5,79.1 L 267.0,80.9 L 266.3,82.3 L 265.0,83.6 L 262.9,85.3 L 259.5,87.4 L 258.2,88.0 L 257.8,88.2 L 255.9,89.9 L 254.6,91.7 L 252.4,94.5 L 251.2,94.9 L 250.9,95.8 L 249.4,96.9 L 248.1,98.5 L 247.5,100.3 L 247.0,101.0 L 246.3,101.6 L 243.9,104.5 L 243.1,104.8 L 239.5,107.5 L 237.9,109.3 L 236.3,109.9 L 234.7,114.3 L 234.5,114.6 L 233.6,115.4 L 233.3,115.5 L 232.3,116.3 L 230.8,117.5 L 229.8,119.2 L 227.7,121.5 L 226.5,124.5 L 225.4,126.2 L 223.9,127.2 L 223.3,128.3 L 221.1,131.6 L 220.0,136.6 L 219.0,138.0 L 215.8,144.0 L 214.3,146.2 L 212.0,151.4 L 210.8,153.7 L 209.8,156.1 L 208.9,159.0 L 208.5,160.9 L 207.9,162.6 L 207.5,164.5 L 206.5,167.6 L 205.6,172.5 L 203.5,178.0 L 201.9,180.4 L 201.5,180.9 L 200.0,183.4 L 198.2,186.6 L 195.2,192.9 L 194.2,194.1 L 193.2,195.6 L 192.4,199.1 L 191.8,201.8 L 190.5,204.3 L 190.4,205.8 L 190.2,207.5 L 189.4,209.4 L 189.3,209.5 L 185.4,214.6 L 184.4,215.8 L 182.9,216.9 L 181.7,218.2 L 180.8,218.9 L 179.5,219.2 L 178.9,219.2 L 177.3,220.6 L 176.9,221.7 L 177.1,224.0 L 176.7,225.4 L 176.7,225.7 L 174.6,230.4 L 173.6,231.7 L 173.1,233.3 L 171.2,238.1 L 169.9,240.9 L 169.2,244.3 L 169.3,246.7 L 169.8,249.0 L 170.2,250.9 L 170.5,253.3 L 170.3,256.6 L 170.3,257.6 L 169.9,259.2 L 169.5,262.7 L 169.5,264.2 L 169.0,267.8 L 168.1,271.4 L 168.0,274.7 L 168.5,277.3 L 168.6,277.9 L 170.3,281.8 L 170.1,283.8 L 170.2,285.2 L 169.9,286.6 L 169.4,286.9 L 169.5,287.2 L 169.3,287.8 L 169.6,288.2 L 169.4,288.3 L 169.1,288.8 L 169.3,289.1 L 169.1,290.4 L 168.8,290.5 L 167.9,290.6 L 167.3,290.7 L 167.3,291.5 L 169.1,292.1 L 169.7,293.3 L 169.8,294.1 L 169.7,296.2 L 170.1,298.7 L 169.9,300.2 L 169.7,302.1 L 169.8,303.8 L 169.7,305.3 L 170.4,309.4 L 171.1,310.8 L 171.6,312.4 L 171.6,313.5 L 171.4,314.2 L 171.2,314.5 L 170.5,315.1 L 169.3,315.4 L 169.2,315.0 L 169.7,314.6 L 170.0,313.9 L 169.8,313.6 L 168.4,314.2 L 167.8,315.4 L 168.2,316.4 L 168.3,318.1 L 167.6,319.2 L 166.7,319.6 L 165.8,320.4 L 165.1,322.0 L 164.8,324.7 L 165.5,328.8 L 165.3,329.4 L 164.6,330.0 L 164.2,329.7 L 163.8,329.0 L 163.2,329.1 L 163.3,329.7 L 164.0,330.8 L 164.0,331.6 L 163.3,333.3 L 162.2,336.1 L 162.4,337.4 L 162.9,338.1 L 165.2,339.8 L 165.7,340.9 L 164.5,347.2 L 164.5,348.5 L 164.4,349.5 L 163.8,350.6 L 162.7,352.2 L 161.9,352.5 L 161.3,352.7 L 161.4,353.0 L 163.1,352.7 L 163.5,353.4 L 163.1,354.3 L 163.1,354.7 L 163.6,355.3 L 163.4,356.1 L 163.5,357.1 L 163.3,357.8 L 163.6,358.2 L 163.9,357.6 L 164.6,357.7 L 165.2,357.9 L 164.6,359.2 L 164.0,359.8 L 163.4,360.0 L 163.0,359.9 L 162.0,360.0 L 158.6,358.9 L 157.6,359.0 L 157.0,358.3 L 156.1,356.9 L 156.0,355.3 L 156.6,354.7 L 156.6,354.3 L 157.2,354.2 L 158.2,354.3 L 158.7,354.2 L 158.5,353.9 L 157.1,353.5 L 156.1,352.8 L 155.3,351.6 L 154.3,350.8 L 152.5,350.0 L 151.1,349.8 L 149.9,349.4 L 148.4,348.5 L 146.5,346.3 L 146.4,345.4 L 146.7,344.2 L 149.3,339.5 L 149.2,338.8 L 148.5,337.9 L 148.5,337.5 L 149.6,336.0 L 150.5,334.4 L 152.0,333.1 L 153.1,331.1 L 153.6,327.4 L 153.8,325.0 L 153.3,322.2 L 152.1,320.1 L 147.2,315.9 L 146.6,314.9 L 146.7,313.7 L 146.4,311.8 L 146.3,308.0 L 146.0,305.0 L 146.0,305.0 L 145.6,302.9 L 144.1,299.7 L 142.7,295.4 L 142.0,293.9 L 141.3,292.1 L 140.4,290.3 L 138.1,285.1 L 136.6,281.8 L 135.5,280.3 L 133.9,278.7 L 132.9,278.3 L 130.2,279.0 L 129.3,278.5 L 127.7,277.1 L 127.6,276.5 L 128.0,275.0 L 127.9,273.2 L 127.3,269.3 L 128.0,266.9 L 128.6,265.5 L 129.2,261.1 L 129.3,257.7 L 129.6,254.8 L 129.2,249.2 L 129.0,247.7 L 128.3,247.1 L 126.6,247.3 L 125.1,245.5 L 126.9,241.7 L 127.4,240.3 L 128.2,238.7 L 129.5,236.8 L 130.1,234.6 L 130.1,233.1 L 130.6,231.8 L 132.0,229.0 L 133.2,227.2 L 134.6,225.9 L 136.5,223.4 L 137.5,221.4 L 139.0,219.3 L 139.2,218.5 L 140.8,216.1 L 141.9,214.7 L 142.5,213.5 L 143.2,211.1 L 143.8,209.7 L 143.9,208.9" fill="none" stroke="black" stroke-width="2"/>
</svg>