<?xml version="1.0" encoding="UTF-8"?>
<svg width="400" height="400" viewBox="0 0 400 400" xmlns="http://www.w3.org/2000/svg">
  <rect width="400" height="400" fill="white"/>
  <path d="M 46.5,174.3 L 45.1,172.6 L 43.7,169.7 L 42.8,168.4 L 42.1,167.6 L 40.0,164.6 L 82.4,84.4 L 82.5,84.3 L 83.3,84.3 L 84.4,84.6 L 86.0,86.0 L 87.1,86.6 L 88.9,87.2 L 89.9,87.0 L 90.6,86.6 L 91.4,86.5 L 91.7,86.1 L 91.8,85.7 L 92.0,85.5 L 92.6,85.3 L 92.4,84.9 L 92.2,84.6 L 92.1,83.3 L 92.2,82.0 L 92.5,81.2 L 93.0,80.8 L 94.7,80.6 L 95.0,80.7 L 95.1,80.6 L 95.9,80.7 L 96.8,81.1 L 98.6,82.6 L 99.2,83.3 L 99.4,84.2 L 99.9,85.7 L 100.5,86.4 L 102.3,89.1 L 102.4,89.8 L 102.1,90.4 L 102.4,91.0 L 103.2,91.8 L 103.7,92.5 L 103.8,92.8 L 104.1,93.0 L 106.0,92.6 L 106.3,92.2 L 106.2,91.3 L 106.1,90.8 L 106.7,89.2 L 107.3,87.9 L 107.9,86.1 L 107.7,85.2 L 107.3,85.0 L 107.2,85.5 L 106.9,85.6 L 106.5,85.1 L 106.2,84.1 L 105.7,83.6 L 104.6,83.0 L 103.8,81.8 L 103.8,80.9 L 103.7,80.5 L 103.0,79.8 L 103.0,79.2 L 103.1,77.7 L 103.6,77.7 L 104.3,78.1 L 104.4,78.3 L 104.6,79.5 L 105.1,80.4 L 105.7,80.9 L 105.7,81.3 L 105.7,81.9 L 106.0,82.3 L 107.1,83.1 L 109.2,82.9 L 110.0,82.6 L 112.0,82.3 L 113.1,82.5 L 114.7,82.9 L 117.2,82.9 L 118.4,83.2 L 121.2,84.1 L 125.2,87.0 L 126.4,88.3 L 128.0,89.9 L 129.5,91.1 L 131.3,92.9 L 132.4,94.4 L 132.8,94.9 L 134.0,95.9 L 134.8,96.0 L 136.6,97.3 L 138.2,98.2 L 139.5,98.7 L 139.7,98.7 L 145.4,100.0 L 151.8,100.6 L 156.3,100.9 L 157.7,101.1 L 162.5,101.9 L 167.7,103.5 L 169.2,104.1 L 169.9,104.2 L 172.5,105.7 L 173.3,106.4 L 174.0,106.7 L 174.5,107.2 L 176.2,109.2 L 177.0,109.8 L 179.0,111.8 L 186.0,116.3 L 186.7,116.9 L 187.5,117.4 L 188.7,117.8 L 190.3,118.9 L 190.4,119.5 L 190.9,119.8 L 191.9,119.6 L 193.4,120.0 L 196.8,121.1 L 197.9,121.3 L 199.5,121.4 L 200.7,121.3 L 201.3,121.1 L 202.8,120.8 L 204.7,120.6 L 206.8,120.8 L 207.0,120.7 L 207.1,120.6 L 211.2,121.0 L 213.2,121.4 L 213.6,121.4 L 216.4,122.2 L 223.2,125.8 L 227.3,127.9 L 231.5,130.5 L 232.3,131.0 L 232.8,131.4 L 234.1,132.2 L 236.1,133.4 L 238.1,134.5 L 240.8,135.3 L 241.5,135.6 L 243.4,136.3 L 244.8,137.0 L 246.4,137.7 L 247.9,139.2 L 249.4,141.1 L 250.6,142.0 L 252.1,143.5 L 254.9,146.0 L 255.7,147.0 L 256.3,149.6 L 256.9,151.2 L 257.2,151.8 L 257.6,151.8 L 258.1,152.3 L 258.0,152.5 L 258.2,153.2 L 258.9,154.0 L 261.8,156.1 L 266.1,159.3 L 267.3,161.0 L 267.9,161.9 L 268.5,164.5 L 268.5,164.5 L 268.8,165.1 L 269.3,165.3 L 269.8,166.1 L 271.0,167.5 L 271.8,167.9 L 272.7,168.6 L 275.4,171.5 L 275.4,171.6 L 278.1,174.8 L 278.4,175.1 L 279.1,176.4 L 280.6,178.6 L 281.4,180.0 L 282.1,180.8 L 282.6,181.7 L 285.7,184.0 L 288.2,186.2 L 290.0,187.9 L 290.6,188.6 L 292.3,189.7 L 292.9,190.5 L 293.4,191.0 L 294.3,191.1 L 296.9,191.0 L 298.6,191.2 L 299.7,191.4 L 300.9,192.1 L 302.2,193.1 L 302.8,194.0 L 303.8,195.9 L 304.0,196.2 L 304.3,197.1 L 304.7,198.2 L 305.4,200.1 L 305.8,201.1 L 305.7,201.9 L 306.1,202.7 L 307.5,204.6 L 309.7,207.1 L 309.8,207.2 L 311.5,208.3 L 314.3,210.8 L 315.3,212.1 L 317.9,215.2 L 318.1,215.9 L 318.5,216.4 L 319.1,216.5 L 319.7,217.2 L 319.9,217.5 L 320.9,218.7 L 322.4,221.1 L 323.6,224.1 L 325.2,227.9 L 326.2,230.3 L 327.3,233.5 L 327.7,235.1 L 329.6,240.6 L 330.6,242.7 L 331.8,245.3 L 332.4,246.1 L 333.4,247.5 L 334.7,248.8 L 335.6,250.0 L 336.1,251.1 L 336.1,252.8 L 336.9,255.4 L 337.3,258.3 L 337.2,258.7 L 337.3,259.2 L 337.2,260.2 L 336.9,260.6 L 336.6,261.8 L 334.5,265.1 L 333.5,267.1 L 332.7,268.3 L 332.3,269.8 L 332.4,272.3 L 332.3,273.4 L 331.8,274.4 L 332.0,275.1 L 333.8,275.9 L 334.5,276.4 L 335.0,277.2 L 335.3,278.4 L 336.3,279.8 L 339.1,282.4 L 339.9,283.4 L 340.7,284.0 L 341.2,284.6 L 341.7,285.1 L 342.2,286.0 L 343.3,288.1 L 345.2,290.4 L 345.9,292.2 L 346.8,293.8 L 347.1,295.1 L 348.1,296.8 L 348.7,297.2 L 349.0,297.6 L 349.5,298.7 L 350.0,299.2 L 350.2,299.5 L 350.3,300.1 L 350.5,300.3 L 350.8,301.0 L 350.9,301.1 L 351.0,301.5 L 351.3,301.9 L 352.1,302.9 L 353.6,305.6 L 354.6,308.1 L 355.8,313.2 L 356.0,313.8 L 356.0,314.4 L 356.2,314.7 L 357.4,317.2 L 358.9,319.1 L 359.8,319.9 L 360.0,320.0 L 358.6,321.5 L 358.1,322.3 L 357.2,321.7 L 355.9,320.7 L 354.9,319.8 L 354.9,319.7 L 354.0,318.5 L 351.7,316.8 L 350.5,316.0 L 349.2,314.7 L 348.5,314.1 L 347.2,313.4 L 345.9,313.1 L 345.6,312.8 L 342.7,312.1 L 342.5,312.2 L 341.8,313.1 L 341.2,313.6 L 340.8,314.1 L 340.9,314.6 L 340.8,315.0 L 340.4,315.3 L 339.6,315.4 L 339.1,315.4 L 339.0,315.6 L 338.4,315.8 L 337.5,315.7 L 336.2,315.8 L 335.8,316.1 L 335.8,316.3 L 336.0,316.4 L 337.7,316.6 L 340.7,316.1 L 342.1,315.4 L 342.2,315.3 L 342.4,315.9 L 342.5,316.7 L 342.2,317.1 L 342.2,317.5 L 342.3,317.6 L 342.6,317.3 L 342.7,316.9 L 342.7,316.6 L 342.8,316.6 L 343.6,316.9 L 344.0,316.8 L 344.5,317.0 L 345.0,317.3 L 345.4,317.4 L 345.6,317.4 L 346.2,317.4 L 348.0,317.3 L 348.4,317.6 L 349.5,317.8 L 350.2,318.2 L 350.6,318.7 L 350.7,318.9 L 350.3,319.0 L 349.5,318.8 L 348.2,319.0 L 347.4,319.5 L 345.8,319.8 L 345.4,319.7 L 344.4,319.9 L 342.5,319.9 L 341.4,319.6 L 341.4,319.6 L 341.4,319.2 L 341.8,318.6 L 342.3,317.7 L 342.1,317.6 L 341.5,318.5 L 341.2,319.0 L 340.8,318.9 L 340.6,319.3 L 340.1,319.5 L 339.4,320.3 L 338.0,320.5 L 335.8,320.5 L 335.6,320.6 L 334.3,320.5 L 333.4,320.1 L 331.8,319.3 L 331.4,318.7 L 331.0,317.6 L 330.4,316.8 L 329.1,315.5 L 328.5,315.2 L 327.5,315.3 L 326.3,314.8 L 327.0,314.1 L 325.4,313.6 L 324.6,313.0 L 323.6,312.1 L 323.2,311.5 L 320.7,309.4 L 319.6,308.0 L 318.9,307.4 L 317.5,307.1 L 315.9,306.7 L 314.6,306.3 L 311.2,305.3 L 309.6,304.6 L 308.8,304.3 L 307.9,303.9 L 306.7,303.3 L 305.3,302.4 L 304.4,301.3 L 303.7,300.5 L 303.0,299.3 L 301.9,297.0 L 302.4,296.7 L 302.2,296.3 L 301.9,296.0 L 301.7,296.1 L 301.7,296.5 L 301.4,296.4 L 300.5,295.7 L 299.5,295.4 L 298.9,294.7 L 298.8,294.7 L 298.1,294.0 L 297.3,293.2 L 295.9,292.0 L 295.1,291.3 L 293.0,289.2 L 292.6,288.8 L 291.5,288.2 L 290.9,288.3 L 290.1,288.0 L 289.7,287.4 L 289.7,286.7 L 289.9,286.4 L 289.8,285.3 L 289.6,284.4 L 288.9,283.5 L 288.5,283.2 L 288.8,282.7 L 288.7,281.9 L 288.4,280.9 L 288.6,280.0 L 289.6,278.0 L 290.1,276.4 L 290.8,273.3 L 291.1,271.2 L 291.0,270.4 L 290.0,269.1 L 289.4,268.6 L 289.2,267.7 L 288.7,266.9 L 288.6,266.5 L 289.1,265.8 L 289.3,264.7 L 288.8,264.1 L 288.8,263.3 L 290.5,261.0 L 291.2,260.6 L 292.2,259.6 L 292.6,258.7 L 292.7,256.9 L 292.3,255.0 L 291.4,252.1 L 290.9,251.3 L 290.5,248.4 L 290.7,247.2 L 290.6,245.7 L 290.2,243.2 L 290.0,242.7 L 289.3,241.6 L 289.0,239.9 L 288.4,238.7 L 287.9,238.1 L 287.6,237.4 L 287.0,235.4 L 286.5,234.4 L 285.1,233.4 L 284.1,232.5 L 282.1,231.1 L 281.4,230.8 L 280.7,230.4 L 279.1,229.0 L 277.5,227.9 L 276.6,227.1 L 276.1,226.8 L 275.4,226.7 L 274.5,227.1 L 273.3,227.9 L 272.6,228.6 L 272.3,229.4 L 272.3,230.0 L 273.0,231.6 L 273.9,232.6 L 274.0,233.5 L 273.3,234.2 L 272.7,234.2 L 272.1,233.8 L 271.4,232.5 L 271.0,232.1 L 270.1,231.6 L 268.2,231.4 L 266.1,231.0 L 264.9,230.6 L 263.8,230.2 L 263.7,230.0 L 263.7,229.8 L 261.1,228.3 L 259.6,227.7 L 256.3,227.1 L 255.3,226.9 L 254.5,227.0 L 254.1,226.2 L 252.9,226.4 L 252.0,227.0 L 250.9,227.3 L 250.7,227.4 L 248.9,227.7 L 246.9,229.5 L 245.2,230.9 L 242.8,232.3 L 239.7,233.4 L 237.7,234.2 L 236.2,234.6 L 235.1,234.6 L 233.7,235.0 L 233.0,235.6 L 231.4,236.2 L 230.0,236.5 L 229.6,236.7 L 229.0,236.9 L 228.7,236.8 L 228.9,236.5 L 229.7,236.2 L 231.6,234.9 L 231.7,234.4 L 231.4,233.8 L 230.7,232.9 L 230.5,231.8 L 231.3,230.8 L 232.2,229.8 L 232.7,228.6 L 233.0,228.5 L 233.1,227.7 L 233.3,227.4 L 233.8,227.5 L 233.9,227.2 L 233.9,226.5 L 233.6,226.2 L 233.0,225.9 L 232.6,224.4 L 232.2,223.8 L 231.8,222.6 L 231.8,222.4 L 231.5,221.1 L 230.3,220.7 L 230.1,220.3 L 230.3,219.6 L 230.6,219.4 L 231.1,219.3 L 232.2,219.9 L 233.7,219.6 L 235.9,218.7 L 236.5,218.3 L 237.1,218.1 L 237.5,217.8 L 237.2,217.6 L 236.6,217.4 L 235.9,216.6 L 235.6,216.8 L 235.3,217.0 L 235.0,216.9 L 234.8,216.5 L 234.5,216.4 L 234.2,216.9 L 233.9,217.0 L 233.1,216.6 L 232.4,216.7 L 231.7,216.9 L 231.1,217.2 L 230.6,217.3 L 229.5,217.0 L 228.9,216.4 L 228.0,215.9 L 227.5,216.6 L 226.7,216.8 L 226.3,216.6 L 225.9,216.1 L 224.3,216.2 L 223.0,215.8 L 220.4,215.8 L 219.0,215.9 L 217.2,215.6 L 216.1,215.6 L 215.1,215.5 L 212.1,216.2 L 210.9,216.6 L 209.7,217.5 L 208.5,218.6 L 207.5,219.1 L 204.6,219.7 L 201.8,219.7 L 197.8,219.6 L 196.0,219.9 L 195.1,220.3 L 192.8,221.0 L 192.0,221.5 L 188.1,222.2 L 186.8,221.9 L 185.8,221.4 L 183.6,221.0 L 181.4,220.6 L 179.5,220.5 L 179.0,220.6 L 177.8,220.8 L 176.9,221.1 L 173.7,222.7 L 172.8,223.0 L 171.5,223.4 L 170.5,223.6 L 168.4,223.2 L 166.3,222.6 L 164.3,222.0 L 163.3,221.7 L 161.6,221.2 L 160.2,220.6 L 156.5,218.1 L 154.5,217.3 L 152.4,217.2 L 152.2,217.3 L 151.7,217.1 L 149.9,217.0 L 145.2,215.6 L 143.4,214.9 L 142.8,214.7 L 141.5,213.9 L 136.0,212.8 L 134.0,212.6 L 133.2,212.5 L 129.6,212.5 L 127.9,212.6 L 124.8,213.0 L 124.0,213.0 L 123.5,213.2 L 121.8,213.3 L 119.9,213.0 L 118.1,213.0 L 114.8,213.3 L 114.3,213.8 L 114.0,213.9 L 113.7,213.5 L 110.7,213.3 L 107.3,213.3 L 107.0,213.3 L 105.3,213.1 L 102.6,212.6 L 102.1,212.4 L 101.6,212.1 L 100.2,211.5 L 100.0,211.6 L 99.2,211.3 L 96.0,208.1 L 94.1,205.3 L 93.1,204.9 L 92.9,204.9 L 90.0,203.2 L 89.3,202.3 L 88.1,200.5 L 87.2,199.9 L 84.2,199.0 L 78.3,197.8 L 76.3,197.3 L 75.2,196.9 L 73.7,196.4 L 72.7,196.2 L 71.6,195.6 L 70.1,194.7 L 70.1,194.7 L 68.7,193.9 L 67.3,193.4 L 65.5,192.3 L 64.9,192.2 L 63.6,191.3 L 61.7,189.1 L 60.7,187.6 L 60.4,187.4 L 59.2,186.5 L 57.8,185.8 L 56.6,184.6 L 55.9,183.7 L 54.5,182.7 L 53.7,181.9 L 52.4,181.1 L 52.1,181.0 L 51.8,180.2 L 50.4,178.3 L 49.0,177.2 L 48.3,176.4 L 48.2,176.2 L 47.1,175.0 L 46.5,174.3" fill="none" stroke="black" stroke-width="2"/>
</svg>