<?xml version="1.0" encoding="UTF-8"?>
<svg width="400" height="400" viewBox="0 0 400 400" xmlns="http://www.w3.org/2000/svg">
  <rect width="400" height="400" fill="white"/>
  <path d="M 89.8,206.1 L 90.0,205.8 L 90.1,205.5 L 90.1,205.4 L 90.1,205.1 L 90.1,205.0 L 90.1,205.0 L 90.1,204.9 L 89.9,204.6 L 89.9,204.6 L 89.9,204.5 L 89.9,204.4 L 89.9,204.3 L 89.8,204.2 L 89.9,204.2 L 90.0,204.1 L 89.9,204.0 L 89.7,203.9 L 89.6,204.0 L 89.6,203.9 L 89.4,203.9 L 89.3,204.0 L 89.2,204.0 L 89.2,203.9 L 89.2,203.8 L 89.2,203.7 L 89.2,203.5 L 89.2,203.4 L 89.3,203.4 L 89.3,203.3 L 89.3,203.2 L 89.2,203.2 L 89.1,203.4 L 89.1,203.4 L 89.1,203.5 L 89.1,203.6 L 89.0,203.6 L 88.9,203.6 L 88.9,203.6 L 88.9,203.6 L 88.9,203.6 L 88.8,203.6 L 88.8,203.5 L 88.9,203.5 L 89.0,203.5 L 89.0,203.4 L 88.9,203.4 L 88.9,203.3 L 88.6,202.4 L 88.5,202.1 L 88.3,201.6 L 88.1,201.1 L 87.8,200.8 L 87.4,200.4 L 87.2,200.1 L 87.0,200.0 L 86.8,199.7 L 86.5,199.5 L 86.5,199.4 L 86.4,199.1 L 86.4,198.9 L 86.4,198.8 L 86.4,198.7 L 86.4,198.5 L 86.4,198.2 L 86.3,198.1 L 86.2,198.0 L 86.2,198.0 L 86.2,197.8 L 86.3,197.7 L 86.3,197.7 L 86.4,197.6 L 86.3,197.4 L 86.3,197.4 L 86.3,197.3 L 86.3,197.3 L 86.1,197.1 L 86.2,197.1 L 86.1,197.1 L 86.1,197.0 L 86.1,196.9 L 86.0,196.7 L 85.9,196.6 L 85.7,196.5 L 85.6,196.5 L 85.2,196.3 L 85.0,196.3 L 84.9,196.2 L 84.8,196.2 L 84.7,196.2 L 84.6,196.1 L 84.6,196.0 L 84.5,196.0 L 84.3,195.9 L 84.4,195.8 L 84.3,195.7 L 84.2,195.7 L 83.9,195.7 L 83.8,195.6 L 83.8,195.7 L 83.7,195.7 L 83.6,195.7 L 83.5,195.7 L 83.4,195.6 L 83.4,195.6 L 83.2,195.5 L 83.0,195.3 L 82.4,195.1 L 82.2,195.0 L 82.1,194.9 L 81.9,194.9 L 81.8,194.8 L 81.6,194.7 L 81.3,194.6 L 81.2,194.6 L 80.5,194.3 L 80.2,194.2 L 80.2,194.1 L 80.0,194.0 L 79.6,193.8 L 79.6,193.7 L 79.6,193.5 L 79.5,193.5 L 79.4,193.3 L 79.4,193.1 L 79.3,192.9 L 79.3,192.8 L 79.3,192.8 L 79.4,192.7 L 79.4,192.6 L 79.3,192.4 L 79.3,192.4 L 79.2,192.5 L 79.1,192.5 L 79.1,192.3 L 79.1,192.2 L 79.0,192.1 L 79.0,192.1 L 79.0,191.9 L 78.9,191.9 L 79.0,191.8 L 78.9,191.7 L 78.9,191.7 L 78.9,191.6 L 78.9,191.5 L 78.7,191.5 L 78.7,191.4 L 78.6,191.4 L 78.4,191.5 L 78.2,191.5 L 78.1,191.5 L 78.0,191.5 L 78.0,191.5 L 77.9,191.4 L 77.9,191.4 L 77.7,191.4 L 77.6,191.3 L 77.4,191.3 L 77.4,191.3 L 77.2,191.3 L 77.1,191.4 L 77.1,191.4 L 77.0,191.3 L 77.0,191.3 L 77.0,191.2 L 76.9,191.2 L 76.6,191.3 L 76.4,191.3 L 76.2,191.4 L 76.1,191.5 L 75.5,191.9 L 75.2,192.3 L 75.1,192.5 L 74.8,192.9 L 74.6,193.2 L 74.5,193.3 L 74.5,193.4 L 74.4,193.5 L 74.4,193.6 L 74.4,193.6 L 74.3,193.8 L 74.2,193.9 L 74.1,194.0 L 74.0,194.1 L 73.9,194.1 L 73.9,194.3 L 73.8,194.3 L 73.7,194.4 L 73.7,194.3 L 73.6,194.4 L 73.6,194.4 L 73.6,194.5 L 73.6,194.6 L 73.5,194.7 L 73.5,194.7 L 73.4,194.9 L 73.4,195.0 L 73.3,195.0 L 73.4,195.0 L 73.4,195.1 L 73.4,195.1 L 73.2,195.2 L 73.0,195.3 L 72.9,195.5 L 72.8,195.6 L 72.7,195.8 L 72.7,196.0 L 72.7,196.2 L 72.7,196.3 L 72.8,196.4 L 72.8,196.5 L 72.9,196.8 L 72.9,196.8 L 72.9,197.1 L 72.9,197.4 L 73.0,197.5 L 73.0,197.5 L 73.1,197.9 L 73.0,198.2 L 73.1,198.5 L 73.0,198.7 L 73.0,198.8 L 73.0,198.9 L 73.0,199.0 L 73.1,199.0 L 73.0,199.2 L 73.0,199.7 L 72.9,199.8 L 73.0,200.4 L 73.0,200.7 L 72.9,201.2 L 72.8,201.5 L 72.8,201.9 L 72.8,202.5 L 72.8,202.9 L 72.8,203.2 L 72.9,203.6 L 72.9,203.7 L 72.9,204.2 L 72.8,204.5 L 72.8,205.2 L 72.7,205.2 L 72.6,205.6 L 72.5,206.0 L 72.5,206.7 L 72.4,207.0 L 72.4,207.1 L 72.4,207.5 L 72.4,207.7 L 72.3,208.3 L 72.2,208.4 L 71.6,208.5 L 71.5,208.6 L 71.5,208.6 L 71.3,208.5 L 71.1,208.5 L 71.1,208.4 L 71.0,208.2 L 70.9,207.7 L 70.7,207.3 L 70.6,207.2 L 70.6,207.1 L 70.1,206.7 L 70.1,206.7 L 70.1,206.6 L 69.8,206.3 L 69.6,206.1 L 69.5,205.9 L 69.5,205.9 L 69.4,205.7 L 69.3,205.2 L 69.3,205.1 L 69.3,205.0 L 69.3,204.8 L 69.4,204.4 L 69.4,204.3 L 69.4,204.1 L 69.5,203.9 L 69.5,203.8 L 69.5,203.7 L 69.5,203.7 L 69.5,203.6 L 69.5,203.5 L 69.4,203.4 L 69.3,203.4 L 69.2,203.1 L 69.2,202.7 L 69.2,202.5 L 69.1,202.4 L 69.1,202.3 L 69.2,202.2 L 69.2,202.0 L 69.1,201.9 L 69.0,201.4 L 68.9,201.3 L 68.8,201.4 L 68.7,201.4 L 68.7,201.4 L 68.7,201.2 L 68.6,201.2 L 68.5,201.1 L 68.4,201.2 L 68.3,201.3 L 68.3,201.3 L 68.1,201.3 L 68.2,201.1 L 68.2,201.1 L 68.2,200.9 L 68.2,200.8 L 68.1,200.7 L 68.1,200.5 L 68.1,200.4 L 68.0,200.3 L 68.0,200.3 L 68.0,200.3 L 67.8,200.3 L 67.7,200.3 L 67.8,200.2 L 67.7,200.1 L 67.7,200.0 L 67.7,199.8 L 67.7,199.7 L 67.6,199.7 L 67.5,199.7 L 67.4,199.7 L 67.4,199.6 L 67.4,199.5 L 67.5,199.5 L 67.6,199.4 L 67.6,199.4 L 67.8,199.1 L 67.7,199.0 L 67.8,198.8 L 67.8,198.7 L 67.7,198.6 L 67.6,198.6 L 67.4,198.6 L 67.0,198.8 L 66.9,198.8 L 66.8,198.9 L 66.4,198.9 L 66.1,199.0 L 66.1,199.0 L 63.6,197.5 L 63.5,197.5 L 63.7,197.2 L 63.8,196.8 L 63.8,196.7 L 63.8,196.7 L 63.6,197.0 L 63.5,197.2 L 63.4,197.2 L 63.2,197.4 L 62.9,197.6 L 62.9,197.8 L 62.9,197.8 L 59.4,200.8 L 59.4,200.7 L 59.2,200.8 L 59.2,200.8 L 59.1,200.9 L 59.1,201.0 L 59.0,201.1 L 58.9,201.1 L 58.8,201.2 L 58.6,201.5 L 58.6,201.6 L 58.5,201.7 L 58.3,201.9 L 58.2,201.9 L 58.1,202.0 L 58.0,202.0 L 57.9,202.1 L 57.9,202.0 L 58.2,201.5 L 58.1,201.5 L 58.0,201.5 L 57.9,201.6 L 57.8,201.5 L 57.8,201.4 L 57.7,201.4 L 57.6,201.6 L 57.5,201.6 L 57.5,201.6 L 57.6,201.4 L 57.6,201.4 L 57.7,201.3 L 57.8,201.2 L 57.8,201.0 L 57.9,200.9 L 57.8,200.9 L 57.7,200.9 L 57.5,201.0 L 57.4,201.1 L 57.3,201.2 L 57.2,201.4 L 57.1,201.5 L 57.0,201.6 L 56.8,201.8 L 56.8,201.9 L 56.7,202.0 L 56.7,202.1 L 56.8,202.1 L 56.6,202.4 L 56.5,202.5 L 56.2,203.2 L 56.2,203.2 L 56.2,203.2 L 56.0,203.3 L 55.8,203.4 L 55.5,203.5 L 55.4,203.6 L 55.3,203.6 L 55.1,203.8 L 55.2,203.9 L 55.2,203.9 L 55.2,203.9 L 55.1,203.9 L 55.1,203.9 L 54.5,203.9 L 54.3,204.0 L 54.1,204.1 L 53.8,204.2 L 53.7,204.3 L 53.7,204.4 L 53.7,204.4 L 53.6,204.4 L 53.5,204.4 L 53.5,204.4 L 53.4,204.5 L 53.4,204.6 L 53.1,205.0 L 53.1,205.0 L 53.3,205.1 L 53.2,205.2 L 53.1,205.3 L 53.0,205.5 L 52.9,205.7 L 52.8,205.9 L 52.5,206.3 L 52.4,206.4 L 52.4,206.6 L 52.2,206.7 L 52.1,206.9 L 51.6,207.4 L 51.5,207.5 L 51.4,207.5 L 51.2,207.7 L 51.1,207.7 L 51.1,207.8 L 50.9,207.9 L 50.8,207.9 L 50.7,208.1 L 50.6,208.3 L 50.5,208.4 L 50.5,208.6 L 50.5,208.6 L 50.6,208.7 L 50.4,208.9 L 50.3,209.0 L 50.3,208.9 L 50.2,208.8 L 50.1,208.8 L 50.0,208.9 L 50.0,209.0 L 49.8,209.2 L 49.6,209.3 L 49.7,209.4 L 49.7,209.5 L 49.5,209.6 L 49.3,209.7 L 49.2,209.8 L 49.2,209.8 L 49.3,209.9 L 49.2,210.0 L 49.2,210.0 L 49.1,210.1 L 49.0,210.2 L 49.0,210.2 L 49.0,210.3 L 48.9,210.4 L 48.9,210.4 L 48.9,210.5 L 49.1,210.5 L 49.1,210.5 L 49.1,210.6 L 48.8,210.6 L 48.7,210.8 L 48.7,210.8 L 48.9,210.8 L 49.0,210.9 L 49.0,210.9 L 48.8,210.9 L 48.7,211.0 L 48.7,211.2 L 48.7,211.2 L 48.8,211.2 L 48.7,211.3 L 48.6,211.3 L 48.5,211.4 L 48.5,211.4 L 48.5,211.5 L 48.5,211.6 L 48.4,211.7 L 48.4,211.8 L 48.4,211.8 L 48.2,211.8 L 48.2,212.0 L 48.1,212.1 L 47.9,212.2 L 47.9,212.3 L 48.0,212.3 L 48.0,212.4 L 48.0,212.7 L 48.0,212.8 L 48.0,212.9 L 48.0,213.1 L 48.0,213.2 L 47.8,213.5 L 47.7,213.7 L 47.7,213.8 L 47.7,214.1 L 47.7,214.5 L 47.7,214.6 L 47.5,214.8 L 47.4,214.9 L 47.1,214.9 L 46.9,214.8 L 46.8,214.7 L 46.7,214.7 L 46.6,214.6 L 46.5,214.5 L 46.5,214.3 L 46.4,214.3 L 46.4,214.2 L 46.4,214.0 L 46.3,213.9 L 46.4,213.8 L 46.5,213.7 L 46.5,213.6 L 46.4,213.5 L 46.2,213.5 L 46.0,213.5 L 45.9,213.4 L 45.8,213.2 L 45.9,213.1 L 45.9,213.0 L 46.0,212.9 L 46.0,212.9 L 45.9,212.9 L 45.9,212.8 L 45.8,212.7 L 45.9,212.6 L 45.9,212.6 L 46.0,212.5 L 45.9,212.4 L 45.9,212.4 L 45.9,212.3 L 45.9,212.1 L 45.9,212.0 L 46.0,211.9 L 46.0,211.8 L 46.1,211.7 L 46.1,211.7 L 46.1,211.6 L 46.1,211.6 L 46.1,211.5 L 46.1,211.4 L 46.1,211.3 L 46.1,211.2 L 46.0,211.2 L 45.9,211.1 L 45.8,211.1 L 45.8,211.1 L 45.9,211.0 L 45.9,210.9 L 46.0,210.9 L 46.1,210.8 L 46.0,210.7 L 46.0,210.6 L 46.0,210.6 L 46.0,210.6 L 46.1,210.5 L 46.0,210.3 L 45.9,210.3 L 45.9,210.3 L 45.7,210.3 L 45.6,210.3 L 45.6,210.2 L 45.1,210.3 L 45.1,210.4 L 45.2,210.4 L 45.4,210.4 L 45.5,210.5 L 45.6,210.5 L 45.5,210.5 L 45.2,210.5 L 45.0,210.5 L 44.8,210.5 L 44.7,210.5 L 44.6,210.5 L 44.5,210.5 L 44.4,210.6 L 44.3,210.6 L 44.3,210.5 L 44.3,210.5 L 44.2,210.5 L 44.0,210.6 L 44.0,210.6 L 43.8,210.7 L 43.8,210.8 L 43.8,210.7 L 43.8,210.6 L 43.8,210.6 L 43.8,210.5 L 43.7,210.5 L 43.6,210.6 L 43.5,210.6 L 43.5,210.6 L 43.4,210.7 L 43.2,210.7 L 43.2,210.5 L 43.1,210.5 L 42.8,210.9 L 42.8,211.0 L 42.9,211.1 L 43.0,211.1 L 42.9,211.2 L 42.9,211.3 L 42.9,211.3 L 42.9,211.4 L 42.8,211.5 L 42.8,211.5 L 42.7,211.5 L 42.6,211.6 L 42.5,211.9 L 42.5,212.0 L 42.4,212.1 L 42.5,212.2 L 42.4,212.3 L 42.2,212.3 L 41.9,212.4 L 41.7,212.7 L 41.6,212.7 L 41.5,212.9 L 41.4,212.9 L 41.3,213.0 L 41.3,213.1 L 41.2,213.0 L 41.1,212.9 L 41.1,212.9 L 41.1,212.9 L 41.0,213.0 L 40.8,213.0 L 40.8,213.2 L 40.7,213.2 L 40.6,213.2 L 40.4,213.0 L 40.4,212.8 L 40.3,212.8 L 40.2,212.7 L 40.0,212.6 L 40.0,212.4 L 40.1,212.3 L 40.0,212.3 L 40.0,212.2 L 40.1,212.2 L 40.1,212.0 L 40.1,211.9 L 40.2,211.8 L 40.2,211.6 L 40.4,211.3 L 40.7,210.6 L 40.7,210.5 L 40.7,210.4 L 40.8,210.4 L 40.8,210.3 L 40.7,210.2 L 40.7,210.0 L 40.7,209.9 L 40.8,209.9 L 40.9,209.9 L 41.0,209.7 L 41.0,209.6 L 40.9,209.5 L 41.0,209.4 L 41.1,209.4 L 41.1,209.4 L 41.0,209.3 L 41.1,209.2 L 41.1,209.1 L 41.1,209.0 L 41.1,209.0 L 41.2,208.9 L 41.3,208.9 L 41.2,208.8 L 41.2,208.7 L 41.1,208.6 L 41.1,208.6 L 41.3,208.5 L 41.2,208.4 L 41.3,208.3 L 41.3,208.3 L 41.3,208.2 L 41.3,208.2 L 41.5,208.1 L 41.6,208.0 L 41.7,207.9 L 41.8,207.9 L 41.8,207.8 L 41.9,207.8 L 41.9,207.7 L 41.9,207.6 L 42.0,207.5 L 42.1,207.4 L 42.1,207.3 L 42.1,207.2 L 42.3,207.1 L 42.4,207.0 L 42.4,206.9 L 42.6,206.7 L 42.5,206.7 L 42.6,206.5 L 42.6,206.5 L 42.5,206.5 L 42.5,206.4 L 42.7,206.4 L 42.7,206.4 L 42.8,206.4 L 42.8,206.3 L 42.8,206.3 L 43.0,206.2 L 43.0,206.1 L 43.2,206.2 L 43.2,206.2 L 43.3,206.3 L 43.4,206.2 L 43.4,206.2 L 43.5,206.1 L 43.6,206.1 L 43.5,205.9 L 43.5,205.8 L 43.5,205.8 L 43.4,205.8 L 43.4,205.7 L 43.4,205.7 L 43.5,205.7 L 43.5,205.6 L 43.5,205.6 L 43.5,205.6 L 43.6,205.6 L 43.6,205.5 L 43.6,205.4 L 43.7,205.2 L 43.8,205.0 L 43.8,204.9 L 43.7,204.9 L 43.7,204.8 L 43.9,204.8 L 43.9,204.6 L 43.9,204.5 L 43.9,204.5 L 43.9,204.4 L 43.9,204.4 L 44.0,204.3 L 44.0,204.2 L 44.0,204.2 L 44.1,204.1 L 44.1,203.9 L 44.2,203.9 L 44.3,203.8 L 44.2,203.7 L 44.3,203.7 L 44.3,203.6 L 44.4,203.5 L 44.4,203.4 L 44.5,203.4 L 44.6,203.1 L 44.5,203.1 L 44.4,203.1 L 44.4,203.1 L 44.3,203.1 L 44.3,203.1 L 44.3,203.0 L 44.4,202.9 L 44.5,202.7 L 44.5,202.5 L 44.5,202.4 L 44.4,202.4 L 44.5,202.3 L 44.5,202.3 L 44.5,202.2 L 44.3,202.1 L 44.4,202.1 L 44.3,202.0 L 44.2,201.9 L 44.1,201.8 L 44.0,201.7 L 44.0,201.6 L 44.1,201.6 L 44.2,201.6 L 44.2,201.4 L 44.2,201.3 L 44.1,201.3 L 44.0,201.3 L 44.0,201.2 L 44.0,201.2 L 44.0,201.0 L 44.2,201.0 L 44.2,200.9 L 44.2,200.8 L 44.2,200.8 L 44.4,200.7 L 44.4,200.6 L 44.3,200.6 L 44.4,200.5 L 44.6,200.6 L 44.7,200.5 L 44.7,200.4 L 44.7,200.2 L 44.8,200.1 L 44.8,199.7 L 44.8,199.6 L 44.8,199.4 L 44.8,199.3 L 44.8,199.3 L 44.7,199.3 L 44.8,199.0 L 44.8,198.7 L 44.8,198.6 L 44.7,198.5 L 44.7,198.2 L 44.6,198.0 L 44.5,197.7 L 44.5,197.6 L 44.5,197.5 L 44.6,197.4 L 44.5,197.3 L 44.5,197.3 L 44.4,197.3 L 44.4,197.3 L 44.4,197.2 L 44.4,197.1 L 44.4,196.9 L 44.3,196.9 L 44.1,196.9 L 44.1,196.9 L 43.9,196.8 L 43.7,196.8 L 43.6,196.6 L 43.6,196.5 L 43.6,196.4 L 43.5,196.2 L 43.5,196.1 L 43.6,196.0 L 43.6,195.9 L 43.7,195.8 L 43.8,195.6 L 43.8,195.3 L 43.9,195.3 L 44.0,195.1 L 44.1,195.0 L 44.2,195.0 L 44.5,194.7 L 44.6,194.5 L 44.7,194.5 L 44.8,194.4 L 44.8,194.2 L 44.8,194.2 L 44.9,194.1 L 45.0,194.0 L 45.1,194.0 L 45.2,193.8 L 45.2,193.7 L 45.2,193.6 L 45.3,193.4 L 45.3,193.3 L 45.3,193.2 L 45.3,193.0 L 45.4,193.0 L 45.3,192.9 L 45.2,192.7 L 45.3,192.7 L 45.4,192.7 L 45.5,192.5 L 45.6,192.3 L 45.6,191.9 L 45.6,191.6 L 45.6,191.6 L 45.6,191.5 L 45.6,191.5 L 45.7,191.4 L 45.7,191.3 L 45.7,191.2 L 45.8,190.8 L 45.8,190.8 L 45.7,190.8 L 45.6,190.9 L 45.6,190.9 L 45.6,190.8 L 45.7,190.6 L 45.7,190.6 L 45.6,190.3 L 45.6,190.3 L 45.5,190.4 L 45.4,190.5 L 45.4,190.4 L 45.3,190.2 L 45.2,190.1 L 45.2,190.1 L 45.1,190.1 L 45.0,190.1 L 44.9,190.2 L 44.8,190.2 L 44.8,190.2 L 44.7,189.9 L 44.6,189.9 L 44.6,189.9 L 44.5,189.9 L 44.4,189.8 L 44.4,189.7 L 44.2,189.8 L 44.1,189.7 L 44.1,189.6 L 44.1,189.6 L 44.0,189.4 L 43.8,189.3 L 43.8,189.2 L 43.8,189.2 L 43.7,189.2 L 43.6,189.1 L 43.5,189.0 L 43.2,188.8 L 43.0,188.7 L 42.9,188.5 L 42.9,188.3 L 42.9,188.1 L 43.0,188.0 L 43.2,188.0 L 43.5,187.9 L 43.9,188.0 L 44.2,187.9 L 44.3,188.0 L 44.5,187.9 L 44.7,187.9 L 44.8,187.8 L 45.3,187.4 L 45.4,187.3 L 45.5,186.9 L 45.5,186.9 L 45.6,186.8 L 45.8,186.5 L 45.8,186.4 L 45.9,186.4 L 45.9,186.3 L 46.0,186.2 L 46.1,186.0 L 46.2,185.9 L 46.2,185.8 L 46.3,185.8 L 46.3,185.7 L 46.5,185.5 L 46.5,185.3 L 46.5,185.1 L 46.5,185.0 L 46.5,184.7 L 46.5,184.6 L 46.4,184.6 L 46.4,184.5 L 46.4,184.3 L 46.4,184.2 L 46.4,184.2 L 46.4,184.0 L 46.4,184.0 L 46.3,184.1 L 46.2,184.0 L 46.2,184.0 L 46.2,184.0 L 46.2,183.8 L 46.2,183.9 L 46.1,183.9 L 46.0,183.9 L 45.9,183.7 L 45.8,183.7 L 45.8,183.4 L 45.8,183.3 L 45.7,183.3 L 45.7,183.2 L 45.7,183.1 L 45.7,182.9 L 45.7,182.8 L 45.7,182.8 L 45.6,183.0 L 45.6,182.9 L 45.6,182.7 L 45.5,182.7 L 45.4,182.6 L 45.3,182.6 L 45.3,182.5 L 45.4,182.4 L 45.4,182.2 L 45.3,182.1 L 45.3,182.1 L 45.2,182.2 L 45.1,182.2 L 45.2,182.1 L 45.1,182.0 L 45.1,182.0 L 45.1,181.9 L 45.1,181.8 L 45.0,181.7 L 45.0,181.7 L 44.9,181.9 L 44.8,182.0 L 44.8,181.9 L 44.8,181.8 L 44.7,181.7 L 44.6,181.8 L 44.4,182.0 L 44.3,182.0 L 44.3,181.9 L 44.3,181.7 L 44.3,181.7 L 44.3,181.6 L 44.3,181.5 L 44.2,181.6 L 44.1,181.5 L 44.0,181.6 L 43.9,181.8 L 43.9,181.8 L 43.9,181.9 L 43.6,182.0 L 43.4,182.3 L 43.4,182.3 L 43.2,182.2 L 43.0,182.1 L 43.0,182.0 L 43.0,182.0 L 42.9,182.0 L 42.8,181.9 L 42.7,181.9 L 42.7,181.8 L 42.5,181.7 L 42.4,181.5 L 42.3,181.4 L 42.3,181.3 L 42.2,181.2 L 42.2,181.2 L 42.0,181.1 L 41.9,181.1 L 41.9,181.1 L 41.9,181.2 L 41.9,181.3 L 41.9,181.3 L 41.6,181.1 L 41.5,181.1 L 41.2,181.1 L 41.1,181.1 L 41.0,181.1 L 40.9,175.1 L 203.7,156.7 L 360.0,139.0 L 360.0,139.3 L 360.0,139.5 L 360.0,139.5 L 359.8,139.8 L 359.8,139.8 L 359.8,139.7 L 359.7,139.6 L 359.7,139.7 L 359.6,139.9 L 359.6,140.0 L 359.5,140.0 L 359.5,140.0 L 359.5,140.0 L 359.5,139.9 L 359.4,139.9 L 359.4,139.9 L 359.3,140.0 L 359.2,140.2 L 359.1,140.2 L 359.1,140.2 L 359.1,140.1 L 359.1,140.0 L 359.1,139.9 L 359.1,139.9 L 359.0,139.9 L 359.0,139.8 L 359.0,139.8 L 358.9,139.9 L 358.9,139.9 L 358.8,139.9 L 358.7,139.8 L 358.7,139.9 L 358.6,140.0 L 358.5,139.9 L 358.3,140.1 L 358.2,140.2 L 358.2,140.2 L 358.2,140.3 L 358.3,140.4 L 358.2,140.4 L 358.2,140.5 L 358.3,140.5 L 358.4,140.6 L 358.3,140.9 L 358.2,141.0 L 358.2,140.9 L 358.1,140.9 L 358.0,141.0 L 358.0,141.0 L 357.9,140.9 L 357.8,140.9 L 357.8,141.1 L 357.7,141.1 L 357.7,141.0 L 357.6,141.0 L 357.6,141.0 L 357.5,141.0 L 357.3,141.3 L 357.4,141.4 L 357.4,141.4 L 357.5,141.5 L 357.5,141.6 L 357.5,141.6 L 357.3,141.8 L 357.3,141.8 L 357.2,141.8 L 357.2,141.8 L 357.2,141.9 L 357.3,141.9 L 357.3,142.0 L 357.3,142.1 L 357.3,142.1 L 357.3,142.3 L 357.4,142.3 L 357.4,142.5 L 357.5,142.6 L 357.6,142.6 L 357.8,142.6 L 357.8,142.7 L 357.8,143.0 L 357.7,143.1 L 357.6,143.1 L 357.5,143.1 L 357.5,143.1 L 357.4,143.1 L 357.3,143.2 L 357.2,143.3 L 357.2,143.2 L 357.1,143.3 L 357.0,143.3 L 356.9,143.4 L 356.8,143.5 L 356.7,143.6 L 356.7,143.7 L 356.8,143.8 L 356.9,144.1 L 356.8,144.1 L 356.8,144.2 L 357.0,144.3 L 357.0,144.3 L 356.9,144.4 L 356.9,144.5 L 356.9,144.6 L 357.0,144.7 L 357.0,144.7 L 357.1,144.6 L 357.1,144.6 L 357.2,144.8 L 357.2,144.8 L 357.3,144.8 L 357.3,144.8 L 357.4,144.8 L 357.6,144.9 L 357.6,145.0 L 357.6,145.1 L 357.3,145.0 L 357.2,145.1 L 357.3,145.1 L 357.2,145.2 L 357.3,145.2 L 357.4,145.2 L 357.4,145.3 L 357.6,145.4 L 357.6,145.4 L 357.6,145.5 L 357.6,145.5 L 357.7,145.6 L 357.7,145.6 L 357.7,145.7 L 357.6,145.7 L 357.4,145.6 L 357.4,145.7 L 357.4,145.8 L 357.4,145.8 L 357.4,145.9 L 357.5,145.9 L 357.5,146.0 L 357.6,146.0 L 357.7,146.1 L 357.7,146.1 L 357.6,146.1 L 357.6,146.1 L 357.6,146.2 L 357.7,146.4 L 357.7,146.4 L 357.7,146.4 L 357.7,146.2 L 357.8,146.1 L 357.8,146.0 L 357.9,146.1 L 357.8,146.3 L 357.9,146.4 L 357.9,146.5 L 357.9,146.6 L 357.9,146.6 L 358.0,146.5 L 358.2,146.6 L 358.2,146.6 L 358.2,146.9 L 358.2,147.0 L 357.9,147.1 L 357.9,147.2 L 357.8,147.5 L 350.9,155.0 L 350.8,155.2 L 350.7,155.0 L 350.7,155.0 L 350.6,155.2 L 350.5,155.2 L 350.5,155.1 L 350.6,155.0 L 350.6,155.0 L 350.5,154.9 L 350.5,155.0 L 350.4,155.1 L 350.3,155.4 L 350.3,155.4 L 350.3,155.4 L 350.3,155.3 L 350.3,155.1 L 350.2,155.1 L 350.2,155.2 L 350.1,155.2 L 350.1,155.1 L 350.1,155.1 L 350.0,155.2 L 350.0,155.4 L 350.0,155.5 L 350.0,155.5 L 350.0,155.5 L 350.1,155.6 L 350.3,155.7 L 350.5,155.7 L 350.5,155.8 L 350.4,156.0 L 350.4,156.0 L 350.3,156.0 L 350.2,155.9 L 350.0,155.9 L 350.0,155.9 L 349.9,155.9 L 349.9,156.0 L 350.0,156.0 L 350.1,156.0 L 350.1,156.1 L 350.0,156.1 L 350.0,156.2 L 350.2,156.2 L 350.2,156.2 L 350.0,156.3 L 350.0,156.4 L 350.1,156.4 L 350.1,156.4 L 350.2,156.5 L 350.1,156.5 L 350.0,156.5 L 349.9,156.6 L 349.9,156.7 L 350.0,156.8 L 350.0,156.9 L 349.9,156.9 L 349.7,157.0 L 349.5,157.1 L 349.5,157.0 L 349.5,157.0 L 349.4,157.2 L 349.3,157.2 L 349.3,157.1 L 349.4,157.1 L 349.3,157.0 L 349.2,157.1 L 348.9,157.1 L 348.8,157.1 L 348.8,157.2 L 348.7,157.2 L 348.7,157.1 L 348.6,157.2 L 348.6,157.1 L 348.5,157.0 L 348.4,157.1 L 348.4,157.2 L 348.4,157.2 L 348.1,157.2 L 348.1,157.1 L 348.0,157.1 L 347.9,157.0 L 347.8,157.0 L 347.7,157.1 L 347.7,157.2 L 347.6,157.1 L 347.5,157.2 L 347.3,157.3 L 347.2,157.6 L 347.1,157.8 L 347.0,158.0 L 346.9,158.0 L 346.8,158.2 L 346.8,158.3 L 346.9,158.2 L 346.9,158.3 L 346.9,158.4 L 347.0,158.4 L 347.1,158.4 L 347.1,158.4 L 346.9,158.5 L 346.7,158.9 L 346.5,159.1 L 346.4,159.2 L 346.3,159.4 L 346.2,159.5 L 346.2,159.5 L 346.1,159.4 L 346.1,159.5 L 345.9,159.8 L 346.0,159.9 L 345.9,160.0 L 345.8,160.0 L 345.6,160.2 L 345.6,160.3 L 345.5,160.5 L 345.5,160.9 L 345.5,161.0 L 345.5,161.1 L 345.5,161.1 L 345.6,160.9 L 345.6,160.9 L 345.7,161.0 L 345.6,161.1 L 345.6,161.1 L 345.8,161.2 L 345.8,161.4 L 345.9,161.5 L 345.9,161.5 L 345.8,161.6 L 345.7,161.6 L 345.7,161.7 L 345.9,161.7 L 346.0,161.8 L 346.0,161.8 L 346.0,161.9 L 346.0,162.1 L 345.9,162.3 L 345.7,162.4 L 345.6,162.5 L 345.6,162.4 L 345.5,162.3 L 345.5,162.4 L 345.4,162.4 L 345.3,162.6 L 345.3,162.8 L 345.3,162.9 L 345.2,163.0 L 345.2,163.0 L 345.1,163.0 L 345.0,163.1 L 345.1,163.3 L 345.2,163.3 L 345.2,163.3 L 345.1,163.4 L 345.2,163.5 L 345.1,163.7 L 345.0,163.9 L 344.9,163.9 L 344.8,163.9 L 344.9,164.0 L 344.9,164.0 L 344.8,164.1 L 344.7,164.1 L 344.7,164.2 L 344.7,164.2 L 344.6,164.5 L 344.4,164.7 L 344.0,165.0 L 343.8,165.2 L 343.4,165.8 L 343.4,165.8 L 343.2,165.8 L 343.1,165.8 L 343.0,166.0 L 342.8,166.1 L 342.6,166.2 L 342.5,166.3 L 342.3,166.3 L 342.3,166.3 L 342.2,166.3 L 341.9,166.5 L 341.8,166.6 L 341.8,166.6 L 341.7,166.6 L 341.6,166.6 L 341.3,167.0 L 341.3,167.0 L 341.2,167.0 L 341.1,167.3 L 341.0,167.3 L 341.0,167.2 L 340.9,167.2 L 340.7,167.6 L 340.7,167.6 L 340.6,167.6 L 340.4,167.8 L 340.2,168.1 L 340.1,168.1 L 340.1,168.1 L 340.1,168.0 L 340.1,167.9 L 340.2,167.8 L 340.1,167.8 L 339.9,167.8 L 339.7,168.2 L 339.7,168.3 L 339.8,168.3 L 339.8,168.4 L 339.6,168.5 L 339.5,168.7 L 339.5,168.9 L 339.4,169.1 L 339.3,169.3 L 339.4,169.3 L 339.4,169.4 L 339.3,169.5 L 339.2,169.6 L 339.2,169.8 L 339.3,169.9 L 306.6,198.7 L 306.1,199.1 L 306.1,199.0 L 305.9,199.3 L 305.9,199.3 L 305.9,199.3 L 305.9,199.2 L 305.9,199.1 L 305.8,199.1 L 305.8,199.4 L 305.8,199.4 L 305.7,199.5 L 305.7,199.4 L 305.7,199.3 L 305.7,199.2 L 305.7,199.1 L 305.7,199.1 L 305.6,199.4 L 305.5,199.4 L 305.5,199.3 L 305.6,199.1 L 305.6,199.1 L 305.5,199.0 L 305.5,199.1 L 305.4,199.2 L 305.4,199.3 L 305.3,199.3 L 305.3,199.3 L 305.2,199.4 L 305.1,199.4 L 305.1,199.5 L 305.0,199.8 L 304.9,199.8 L 304.9,199.6 L 304.8,199.8 L 304.8,199.9 L 304.7,199.9 L 304.7,199.7 L 304.7,199.6 L 304.7,199.6 L 304.6,199.6 L 304.6,199.8 L 304.6,199.8 L 304.5,200.0 L 304.5,200.1 L 304.4,200.2 L 304.3,200.2 L 304.1,200.3 L 304.0,200.3 L 303.9,200.5 L 303.9,200.5 L 303.7,200.3 L 303.6,200.3 L 303.6,200.3 L 303.5,200.5 L 303.4,200.6 L 303.2,200.7 L 303.1,200.9 L 303.0,200.9 L 303.0,200.8 L 303.1,200.4 L 303.1,200.4 L 303.0,200.4 L 303.0,200.4 L 302.9,200.5 L 302.9,200.6 L 302.7,200.7 L 302.6,200.8 L 302.6,200.9 L 302.5,201.0 L 302.5,201.4 L 302.5,201.5 L 302.6,201.6 L 302.6,201.6 L 302.5,201.7 L 302.5,201.7 L 302.8,201.7 L 302.9,201.7 L 302.8,201.8 L 302.6,201.8 L 302.5,201.8 L 302.5,201.8 L 302.5,201.9 L 302.5,202.0 L 302.4,202.0 L 302.4,202.0 L 302.5,202.2 L 302.5,202.2 L 302.3,202.2 L 302.3,202.3 L 302.3,202.4 L 302.4,202.4 L 302.3,202.5 L 302.3,202.6 L 302.3,202.6 L 302.3,202.8 L 302.2,202.8 L 302.1,202.7 L 302.1,202.7 L 302.1,202.8 L 302.1,203.0 L 301.9,203.1 L 302.0,203.2 L 302.0,203.2 L 302.1,203.2 L 302.1,203.3 L 302.0,203.4 L 302.0,203.4 L 302.0,203.5 L 302.0,203.6 L 302.0,203.7 L 302.2,203.6 L 302.1,203.7 L 302.1,203.8 L 302.1,203.8 L 302.2,204.0 L 302.3,204.0 L 302.3,203.9 L 302.4,204.0 L 302.3,204.1 L 302.3,204.2 L 302.3,204.3 L 302.4,204.3 L 302.4,204.4 L 302.6,204.4 L 302.6,204.5 L 302.5,204.7 L 302.5,204.8 L 302.5,204.8 L 302.5,204.9 L 302.5,204.9 L 302.3,205.0 L 302.3,205.0 L 302.3,205.1 L 302.2,205.2 L 302.2,205.2 L 302.2,205.3 L 302.4,205.3 L 302.4,205.3 L 302.2,205.4 L 302.2,205.4 L 302.1,205.5 L 302.0,205.6 L 301.9,205.5 L 301.9,205.6 L 301.8,205.6 L 301.8,205.7 L 301.6,205.8 L 301.6,205.9 L 301.4,205.9 L 301.4,205.7 L 301.3,205.7 L 301.0,205.7 L 301.0,205.8 L 300.9,205.9 L 301.1,206.0 L 301.1,206.0 L 300.9,206.0 L 300.8,206.1 L 300.7,206.1 L 300.7,206.2 L 300.6,206.2 L 300.6,205.9 L 300.5,205.8 L 300.4,205.7 L 300.4,205.7 L 300.3,205.9 L 300.2,205.9 L 300.2,205.7 L 300.3,205.5 L 300.2,205.5 L 300.2,205.5 L 300.1,205.5 L 300.1,205.4 L 299.9,205.3 L 299.8,205.3 L 299.8,205.2 L 299.7,205.4 L 299.6,205.5 L 299.5,205.6 L 299.6,205.8 L 299.7,206.1 L 299.7,206.1 L 299.8,206.1 L 300.0,206.2 L 300.0,206.3 L 300.0,206.4 L 300.0,206.6 L 300.1,206.6 L 300.1,206.7 L 300.0,206.9 L 299.8,207.3 L 299.6,207.5 L 299.5,207.6 L 299.5,207.6 L 299.4,207.4 L 299.4,207.3 L 299.3,207.2 L 299.2,207.2 L 299.2,207.2 L 299.1,207.2 L 299.0,207.3 L 299.0,207.6 L 299.0,207.7 L 299.0,207.8 L 299.1,207.9 L 299.1,208.0 L 299.0,208.2 L 299.0,208.3 L 299.1,208.3 L 299.3,208.2 L 299.3,208.2 L 299.3,208.3 L 299.2,208.4 L 299.2,208.7 L 299.1,208.8 L 298.9,209.0 L 298.8,209.0 L 298.7,209.0 L 298.7,208.9 L 298.7,208.8 L 298.6,208.8 L 298.6,209.0 L 298.5,209.0 L 298.5,208.8 L 298.4,208.9 L 298.4,208.8 L 298.3,208.8 L 298.3,209.0 L 298.2,209.1 L 298.1,209.1 L 298.2,208.9 L 298.2,208.9 L 298.2,208.9 L 298.1,209.0 L 298.1,209.1 L 298.1,209.3 L 298.0,209.6 L 298.0,209.7 L 297.9,209.7 L 297.9,209.7 L 297.9,209.6 L 297.9,209.5 L 297.9,209.5 L 297.7,209.9 L 297.7,209.9 L 297.6,209.9 L 297.7,209.6 L 297.7,209.5 L 297.6,209.4 L 297.6,209.5 L 297.6,209.6 L 297.5,209.7 L 297.4,209.6 L 297.3,209.8 L 297.2,209.7 L 297.0,210.0 L 297.0,210.0 L 296.9,210.1 L 297.0,210.4 L 297.0,210.5 L 297.0,210.7 L 297.0,210.8 L 297.0,210.9 L 297.0,211.0 L 297.0,211.1 L 297.1,211.1 L 297.1,211.2 L 297.2,211.2 L 297.3,211.0 L 297.3,211.0 L 297.4,211.1 L 297.5,211.4 L 297.6,211.4 L 297.5,211.6 L 297.6,211.7 L 297.5,212.1 L 297.5,212.2 L 297.6,212.2 L 297.6,212.0 L 297.6,212.0 L 297.7,212.1 L 297.7,212.2 L 297.7,212.3 L 297.8,212.1 L 298.0,212.2 L 298.0,212.4 L 298.0,212.6 L 298.0,212.8 L 298.0,212.8 L 298.0,212.9 L 297.8,213.1 L 297.7,213.3 L 297.6,213.3 L 297.5,213.0 L 297.4,213.1 L 297.4,213.0 L 297.3,213.0 L 297.2,213.1 L 297.1,213.2 L 296.9,213.3 L 296.9,213.4 L 296.8,213.8 L 296.6,214.2 L 296.6,214.5 L 296.6,214.6 L 296.6,214.7 L 296.6,214.7 L 296.5,214.7 L 296.5,214.8 L 296.5,214.8 L 296.5,215.0 L 296.5,215.1 L 296.5,215.2 L 296.5,215.2 L 296.6,215.3 L 296.5,215.5 L 296.5,215.6 L 296.3,215.7 L 296.2,215.8 L 296.2,215.9 L 296.2,216.0 L 296.1,216.0 L 296.0,216.2 L 295.9,216.3 L 295.9,216.6 L 295.9,216.6 L 296.0,216.8 L 296.0,216.9 L 296.0,217.3 L 296.0,217.5 L 296.0,217.5 L 296.2,217.3 L 296.2,217.4 L 296.4,217.3 L 296.5,217.5 L 296.5,217.6 L 296.5,217.7 L 296.6,217.7 L 296.6,217.8 L 290.4,236.0 L 290.4,236.0 L 290.4,236.0 L 290.3,236.1 L 290.2,236.1 L 289.9,236.2 L 289.8,236.4 L 289.7,236.6 L 289.7,236.7 L 289.8,236.8 L 289.9,236.8 L 289.9,236.9 L 290.0,237.0 L 290.1,237.0 L 290.1,237.0 L 290.2,237.0 L 290.2,237.0 L 290.2,237.2 L 290.3,237.2 L 290.4,237.2 L 290.4,237.2 L 290.4,237.3 L 290.4,237.3 L 290.4,237.3 L 290.3,237.3 L 290.2,237.3 L 290.2,237.2 L 290.1,237.3 L 290.0,237.2 L 290.0,237.3 L 289.9,237.3 L 289.9,237.4 L 289.9,237.5 L 289.9,237.5 L 289.9,237.5 L 290.0,237.5 L 290.0,237.5 L 290.1,237.6 L 290.0,237.7 L 290.0,237.9 L 290.1,238.0 L 290.2,237.9 L 290.3,237.7 L 290.3,237.6 L 290.4,237.7 L 290.2,238.0 L 290.3,238.1 L 290.4,238.1 L 290.4,238.0 L 290.5,238.0 L 290.5,238.0 L 290.5,238.0 L 290.6,238.1 L 290.5,238.2 L 290.4,238.2 L 290.3,238.4 L 290.3,238.6 L 290.3,238.7 L 290.3,238.6 L 290.4,238.5 L 290.4,238.5 L 290.4,238.9 L 290.4,239.0 L 290.4,239.1 L 290.5,239.1 L 290.5,239.2 L 290.5,239.1 L 290.6,238.8 L 290.7,238.8 L 290.7,238.9 L 290.6,239.3 L 290.7,239.4 L 290.6,239.5 L 290.7,239.5 L 290.7,239.6 L 290.7,239.7 L 290.7,239.9 L 290.8,240.0 L 290.8,240.1 L 290.9,240.1 L 290.9,240.2 L 291.0,240.3 L 291.1,240.3 L 291.2,240.4 L 291.2,240.4 L 291.3,240.3 L 291.4,240.4 L 291.3,240.5 L 291.3,240.6 L 291.4,240.7 L 291.2,240.9 L 291.2,241.0 L 291.3,241.1 L 291.5,241.0 L 291.5,241.1 L 291.7,241.2 L 291.7,241.2 L 291.6,241.2 L 291.5,241.3 L 291.5,241.3 L 291.6,241.4 L 291.6,241.4 L 291.7,241.6 L 291.7,241.6 L 291.8,241.5 L 291.8,241.4 L 291.8,241.5 L 291.8,241.7 L 291.9,241.6 L 292.0,241.6 L 292.0,241.7 L 292.0,241.8 L 292.0,241.9 L 292.0,241.9 L 292.1,242.0 L 292.1,242.0 L 292.1,242.1 L 292.2,242.3 L 292.3,242.4 L 292.3,242.4 L 292.3,242.5 L 292.3,242.6 L 292.4,242.6 L 292.5,242.6 L 292.6,242.6 L 292.6,242.9 L 292.6,243.0 L 292.5,243.2 L 292.3,243.3 L 291.9,243.4 L 291.8,243.5 L 291.7,243.5 L 291.7,243.5 L 291.6,243.4 L 291.4,243.4 L 291.3,243.4 L 291.1,243.5 L 291.0,243.5 L 290.8,243.5 L 290.7,243.6 L 290.7,243.6 L 290.6,243.8 L 290.5,243.8 L 290.5,243.9 L 290.5,244.0 L 290.6,244.0 L 290.6,244.0 L 290.5,244.0 L 290.3,244.1 L 290.2,244.3 L 290.1,244.4 L 290.1,244.5 L 290.2,244.6 L 290.2,244.7 L 290.2,244.8 L 290.3,244.8 L 290.3,244.9 L 290.1,244.9 L 290.0,245.0 L 290.1,245.1 L 290.2,245.2 L 290.2,245.2 L 290.1,245.3 L 290.1,245.3 L 290.1,245.4 L 290.1,245.4 L 290.1,245.4 L 290.1,245.6 L 290.2,245.7 L 290.2,245.8 L 290.3,245.8 L 290.3,245.8 L 290.3,245.8 L 290.4,245.8 L 290.4,245.8 L 290.4,245.9 L 290.5,246.0 L 290.6,245.9 L 290.7,245.9 L 290.7,246.0 L 290.6,246.0 L 290.6,246.1 L 290.7,246.1 L 290.6,246.3 L 290.7,246.3 L 290.7,246.4 L 290.8,246.5 L 290.8,246.6 L 290.7,246.6 L 290.5,246.6 L 290.5,246.6 L 290.5,246.6 L 290.6,246.7 L 290.6,246.7 L 290.5,246.7 L 290.3,246.7 L 290.3,246.8 L 290.3,246.9 L 290.4,246.9 L 290.4,247.0 L 290.3,247.1 L 290.4,247.1 L 290.4,247.2 L 290.4,247.2 L 290.5,247.2 L 290.6,247.2 L 290.6,247.2 L 290.6,247.3 L 290.5,247.3 L 290.6,247.4 L 290.5,247.4 L 290.6,247.5 L 290.6,247.7 L 290.5,247.7 L 290.2,247.6 L 290.2,247.6 L 290.1,248.0 L 290.2,248.1 L 290.2,248.1 L 290.3,248.1 L 290.3,248.2 L 290.3,248.3 L 290.2,248.3 L 290.3,248.3 L 290.3,248.4 L 290.2,248.3 L 290.2,248.4 L 290.1,248.4 L 290.1,248.5 L 290.2,248.5 L 290.2,248.8 L 290.3,248.8 L 290.3,248.8 L 290.4,248.9 L 290.4,248.9 L 290.3,249.0 L 290.2,249.1 L 290.3,249.5 L 290.4,249.5 L 290.4,249.5 L 290.5,249.4 L 290.5,249.2 L 290.5,249.2 L 290.6,249.2 L 290.6,249.2 L 290.5,249.4 L 290.6,249.5 L 290.7,249.5 L 290.7,249.8 L 290.7,249.9 L 290.7,249.9 L 290.6,250.1 L 290.5,250.1 L 290.5,250.1 L 290.4,250.2 L 290.3,250.3 L 290.2,250.4 L 290.1,250.4 L 290.0,250.4 L 290.0,250.4 L 289.9,250.5 L 289.9,250.5 L 289.8,250.4 L 289.7,250.5 L 289.6,250.5 L 289.6,250.6 L 289.3,250.6 L 289.2,250.8 L 289.1,251.4 L 289.1,251.7 L 289.2,251.7 L 289.2,251.7 L 289.2,252.0 L 289.2,252.0 L 289.2,252.0 L 289.3,251.9 L 289.4,251.9 L 289.3,252.3 L 289.3,252.5 L 289.4,252.7 L 289.5,252.7 L 289.5,252.7 L 289.5,252.8 L 289.5,253.0 L 289.6,252.9 L 289.6,252.8 L 289.7,252.8 L 289.7,252.9 L 289.7,253.3 L 289.7,253.3 L 289.7,253.4 L 289.8,253.5 L 289.9,253.6 L 290.0,253.6 L 290.0,253.7 L 289.9,253.7 L 289.9,253.7 L 290.0,253.8 L 290.1,253.8 L 290.2,253.8 L 290.3,253.8 L 290.3,253.9 L 290.1,254.0 L 290.1,254.0 L 290.2,254.1 L 290.2,254.1 L 290.3,254.1 L 290.3,254.2 L 290.3,254.2 L 290.3,254.3 L 290.3,254.3 L 290.3,254.4 L 290.3,254.4 L 290.4,254.4 L 290.5,254.4 L 290.5,254.4 L 290.6,254.6 L 290.5,254.7 L 290.4,254.7 L 290.4,254.8 L 290.6,254.9 L 290.8,254.9 L 290.8,254.9 L 290.8,255.1 L 290.8,255.1 L 290.8,255.2 L 290.7,255.7 L 290.6,256.1 L 290.6,256.1 L 290.7,256.3 L 290.5,256.6 L 290.5,256.7 L 290.6,256.7 L 290.6,256.7 L 290.6,256.8 L 290.5,256.9 L 290.5,257.0 L 290.4,257.3 L 290.5,257.6 L 290.6,257.7 L 290.7,257.7 L 290.8,257.7 L 290.6,257.7 L 290.6,257.8 L 290.6,257.9 L 290.6,258.0 L 290.5,258.0 L 290.5,258.1 L 290.5,258.2 L 290.6,258.2 L 290.6,258.3 L 290.5,258.3 L 290.5,258.4 L 290.6,258.4 L 290.6,258.4 L 290.6,258.4 L 290.7,258.4 L 290.8,258.7 L 290.9,258.9 L 291.0,259.1 L 291.0,259.1 L 291.1,259.1 L 291.1,259.1 L 291.2,259.1 L 291.2,259.2 L 291.3,259.3 L 291.5,259.4 L 291.5,259.6 L 291.4,259.8 L 291.4,259.8 L 291.2,260.1 L 291.1,260.1 L 291.0,260.1 L 290.9,260.2 L 290.8,260.1 L 290.8,260.2 L 290.8,260.2 L 290.7,260.1 L 290.7,260.0 L 290.5,260.2 L 290.5,260.2 L 290.5,260.3 L 290.4,260.2 L 290.3,260.4 L 290.3,260.3 L 290.2,260.3 L 290.1,260.4 L 290.1,260.5 L 290.1,260.5 L 290.0,260.5 L 290.0,260.5 L 290.1,260.6 L 290.1,260.6 L 290.2,260.6 L 290.1,260.7 L 290.1,260.6 L 290.0,260.6 L 289.9,260.8 L 289.9,260.8 L 289.8,260.7 L 289.7,260.7 L 289.6,260.8 L 289.5,260.9 L 289.1,261.0 L 289.0,261.0 L 216.4,260.2 L 216.5,260.2 L 216.6,260.0 L 216.7,259.8 L 216.7,259.7 L 216.6,259.7 L 216.6,259.9 L 216.5,259.9 L 216.4,259.9 L 216.5,259.7 L 216.4,259.6 L 216.3,259.4 L 216.3,259.5 L 216.2,259.5 L 216.0,259.5 L 215.8,259.5 L 215.4,259.4 L 215.3,259.3 L 215.3,259.2 L 215.1,259.2 L 215.0,259.2 L 215.0,259.1 L 215.1,259.0 L 215.0,259.0 L 214.9,259.2 L 214.9,259.3 L 214.9,259.3 L 214.7,259.5 L 214.7,259.6 L 214.6,259.6 L 214.5,259.5 L 214.4,259.5 L 214.3,259.4 L 214.3,259.4 L 214.2,259.4 L 214.2,259.3 L 214.2,259.2 L 214.2,259.2 L 214.2,259.2 L 214.1,259.1 L 214.0,259.1 L 213.9,259.2 L 213.8,259.2 L 213.5,259.1 L 213.3,259.1 L 213.4,259.0 L 213.3,258.9 L 213.2,258.9 L 213.2,258.8 L 213.1,258.7 L 213.1,258.8 L 213.1,258.9 L 213.2,259.0 L 213.2,259.0 L 213.2,259.1 L 213.1,259.0 L 213.0,259.0 L 212.9,259.2 L 212.7,259.3 L 212.6,259.4 L 212.5,259.3 L 212.5,259.3 L 212.4,259.3 L 212.2,259.2 L 212.1,259.0 L 211.9,259.0 L 211.8,259.0 L 211.6,258.9 L 211.6,258.8 L 211.4,258.9 L 211.4,258.7 L 211.3,258.7 L 211.3,258.8 L 211.1,258.8 L 211.1,258.9 L 211.1,259.0 L 211.1,259.0 L 211.2,259.0 L 125.7,226.1 L 125.8,226.0 L 125.7,225.6 L 125.6,225.6 L 125.5,225.6 L 125.4,225.7 L 125.3,225.7 L 125.3,225.6 L 125.3,225.5 L 125.5,225.4 L 125.5,225.4 L 125.4,225.2 L 125.2,225.2 L 125.2,225.0 L 125.0,224.9 L 124.9,224.8 L 124.8,224.9 L 124.8,224.9 L 124.7,224.9 L 124.6,224.9 L 124.5,224.9 L 124.4,225.0 L 124.4,225.2 L 124.4,225.3 L 124.4,225.3 L 124.4,225.3 L 124.4,225.5 L 124.3,225.5 L 124.3,225.6 L 124.2,225.7 L 124.2,225.6 L 124.2,225.6 L 124.2,225.5 L 124.1,225.4 L 124.1,225.3 L 124.1,225.3 L 124.0,225.1 L 123.9,225.1 L 123.9,225.1 L 123.8,225.1 L 123.9,225.2 L 123.9,225.4 L 123.9,225.4 L 123.9,225.5 L 123.9,225.6 L 123.9,225.6 L 123.8,225.6 L 123.8,225.7 L 124.0,225.8 L 124.0,225.9 L 124.0,225.9 L 123.9,225.9 L 123.8,225.8 L 123.6,225.8 L 123.6,225.9 L 123.4,226.0 L 123.3,226.0 L 123.2,226.0 L 123.1,226.0 L 123.0,226.2 L 123.0,226.3 L 123.0,226.2 L 123.0,226.0 L 123.0,225.9 L 122.9,225.6 L 123.0,225.5 L 122.9,225.5 L 122.9,225.5 L 89.8,206.1" fill="none" stroke="black" stroke-width="2"/>
</svg>