<?xml version="1.0" encoding="UTF-8"?>
<svg width="400" height="400" viewBox="0 0 400 400" xmlns="http://www.w3.org/2000/svg">
  <rect width="400" height="400" fill="white"/>
  <path d="M 155.7,338.8 L 155.7,338.2 L 157.7,335.8 L 156.7,333.5 L 155.4,331.5 L 154.8,329.9 L 153.5,328.3 L 152.9,324.9 L 152.5,323.6 L 152.1,320.8 L 152.7,314.9 L 151.9,314.1 L 151.0,312.6 L 149.4,306.7 L 148.4,305.2 L 147.2,301.3 L 146.4,298.7 L 145.7,296.9 L 145.3,294.1 L 145.6,289.7 L 145.5,287.0 L 145.1,284.8 L 145.1,283.9 L 145.1,283.9 L 144.9,283.3 L 144.3,279.2 L 143.9,277.9 L 143.4,275.0 L 142.5,273.2 L 143.5,268.2 L 143.6,264.5 L 143.5,262.5 L 143.7,260.4 L 143.7,258.6 L 143.9,255.5 L 143.4,249.8 L 143.9,248.4 L 143.7,245.3 L 143.1,243.8 L 142.1,242.3 L 141.9,241.4 L 141.0,239.8 L 140.3,236.5 L 139.6,235.3 L 139.3,233.1 L 139.4,231.7 L 136.3,228.9 L 136.0,228.1 L 135.9,225.7 L 135.5,221.6 L 137.4,217.0 L 137.6,212.9 L 136.8,207.7 L 137.5,204.5 L 138.1,203.1 L 138.3,201.0 L 138.0,198.9 L 138.4,196.9 L 139.5,195.0 L 141.3,193.5 L 142.2,192.2 L 142.2,191.2 L 142.6,190.7 L 143.4,190.2 L 144.2,188.5 L 144.2,187.5 L 145.3,186.1 L 145.4,185.6 L 145.7,184.6 L 146.8,182.7 L 149.1,180.4 L 149.1,180.3 L 149.2,178.7 L 150.3,175.9 L 151.9,173.9 L 152.9,173.2 L 153.4,172.0 L 153.8,171.1 L 157.2,169.0 L 161.5,165.6 L 162.5,163.4 L 165.7,160.8 L 167.6,160.1 L 171.6,159.3 L 172.3,159.0 L 172.5,158.8 L 174.7,158.0 L 176.5,158.9 L 177.0,158.5 L 177.1,157.5 L 178.1,156.6 L 178.4,155.0 L 178.2,152.1 L 179.1,149.0 L 178.9,147.5 L 176.8,145.2 L 175.7,144.8 L 173.5,145.2 L 172.0,145.8 L 170.6,145.5 L 168.9,144.4 L 168.0,143.1 L 166.6,142.2 L 166.0,141.1 L 166.0,139.8 L 167.8,137.2 L 169.0,132.4 L 170.3,128.6 L 173.2,123.4 L 178.4,118.5 L 179.6,117.7 L 183.6,112.6 L 185.6,108.7 L 185.8,106.3 L 186.6,103.8 L 186.9,102.0 L 187.7,101.6 L 188.8,100.1 L 190.0,98.8 L 190.6,98.2 L 193.3,97.5 L 196.9,95.5 L 199.4,94.9 L 200.5,94.1 L 202.7,92.0 L 203.7,89.9 L 204.7,88.6 L 205.7,85.9 L 207.0,83.6 L 208.1,77.5 L 209.8,74.9 L 212.6,67.5 L 214.7,65.4 L 217.5,60.8 L 219.3,55.5 L 219.2,53.8 L 219.8,51.2 L 221.2,49.6 L 223.3,48.1 L 224.2,47.1 L 224.2,46.3 L 224.2,44.2 L 225.2,41.4 L 225.2,40.6 L 225.5,40.4 L 225.8,40.6 L 227.3,40.6 L 228.6,40.0 L 230.5,40.5 L 233.0,42.2 L 233.5,43.3 L 233.2,45.5 L 233.6,46.5 L 233.4,47.3 L 233.5,48.7 L 233.2,51.6 L 231.2,58.0 L 231.3,60.2 L 230.6,63.0 L 227.9,67.6 L 227.0,68.6 L 226.2,69.3 L 224.8,72.9 L 223.8,74.5 L 222.0,76.3 L 220.4,79.1 L 219.2,82.5 L 218.9,84.6 L 217.9,85.5 L 217.4,87.5 L 216.4,88.6 L 214.0,92.3 L 213.1,96.0 L 211.9,100.7 L 211.9,102.6 L 212.8,103.8 L 214.1,104.5 L 215.7,104.6 L 216.6,104.2 L 218.3,102.7 L 219.4,101.1 L 221.6,101.0 L 225.3,101.7 L 226.1,102.2 L 229.0,103.1 L 230.6,103.3 L 231.2,103.2 L 231.5,103.0 L 232.5,103.2 L 235.1,104.0 L 239.5,104.7 L 242.5,105.8 L 244.1,106.1 L 245.0,106.5 L 245.3,107.3 L 246.1,107.9 L 245.3,110.3 L 243.7,112.2 L 242.6,114.2 L 240.5,116.7 L 239.6,118.6 L 234.0,126.2 L 231.9,130.9 L 231.9,132.9 L 231.6,133.8 L 231.6,134.9 L 231.9,135.6 L 231.2,136.6 L 230.2,137.7 L 230.3,139.2 L 229.4,140.4 L 229.6,145.7 L 230.3,148.0 L 231.6,149.2 L 233.0,151.0 L 233.5,153.2 L 233.3,155.2 L 233.5,158.9 L 232.8,161.6 L 232.5,162.9 L 232.7,163.6 L 233.2,166.0 L 231.8,170.7 L 231.5,173.5 L 230.4,176.6 L 230.4,177.8 L 231.8,180.1 L 231.6,181.2 L 231.8,183.0 L 232.6,184.8 L 232.9,186.6 L 232.9,187.5 L 232.0,190.5 L 231.9,192.1 L 233.4,192.4 L 233.8,195.4 L 232.5,197.5 L 232.7,199.9 L 233.3,200.8 L 233.5,203.9 L 235.7,204.7 L 236.7,206.1 L 236.7,207.1 L 236.2,208.2 L 236.5,210.3 L 235.5,211.6 L 235.9,214.5 L 234.7,218.1 L 235.1,222.1 L 233.9,224.5 L 233.2,228.2 L 232.2,232.1 L 232.7,232.9 L 234.1,234.6 L 234.4,236.0 L 233.7,237.9 L 232.9,239.7 L 232.3,244.5 L 232.7,245.3 L 233.6,249.6 L 233.3,250.5 L 231.7,250.9 L 231.5,251.2 L 231.7,252.4 L 232.2,253.2 L 233.3,253.7 L 233.5,254.4 L 233.3,254.9 L 233.4,255.5 L 234.5,256.1 L 235.9,256.3 L 238.1,257.5 L 239.5,258.9 L 239.7,259.9 L 239.2,260.9 L 240.1,263.0 L 240.2,263.7 L 239.6,266.1 L 238.5,267.8 L 237.7,271.9 L 237.5,272.8 L 237.5,272.8 L 237.6,273.0 L 237.9,273.3 L 238.4,274.1 L 239.5,274.3 L 240.4,275.3 L 240.7,278.2 L 239.6,279.3 L 239.5,279.9 L 240.9,280.2 L 242.0,280.9 L 242.7,281.9 L 243.0,283.4 L 242.9,285.5 L 241.9,286.0 L 242.3,286.8 L 238.8,292.7 L 238.3,293.1 L 237.7,293.9 L 236.3,294.8 L 235.7,295.4 L 237.2,297.6 L 237.3,298.2 L 237.1,299.4 L 237.8,300.0 L 239.0,302.9 L 239.7,303.8 L 241.3,303.6 L 241.9,303.8 L 244.2,303.5 L 244.4,304.0 L 245.5,304.1 L 247.0,306.6 L 248.5,308.3 L 249.7,308.6 L 250.1,309.4 L 250.9,309.5 L 251.5,309.9 L 251.8,310.6 L 252.7,311.7 L 254.2,312.5 L 255.7,312.3 L 256.1,314.0 L 256.6,314.7 L 257.2,314.8 L 257.9,314.1 L 258.4,313.8 L 259.1,314.7 L 260.5,315.0 L 261.3,315.6 L 261.5,316.5 L 261.2,317.7 L 261.0,318.4 L 260.2,318.6 L 259.2,319.3 L 257.6,319.9 L 257.6,320.6 L 258.0,321.0 L 258.1,321.7 L 258.4,322.0 L 258.9,322.1 L 259.7,322.7 L 259.8,323.7 L 259.6,324.6 L 261.9,327.1 L 261.9,330.0 L 262.9,330.4 L 263.0,331.2 L 264.3,332.2 L 264.5,332.7 L 264.3,333.3 L 262.5,333.1 L 261.8,333.6 L 261.2,335.9 L 261.2,337.0 L 261.9,337.6 L 263.3,338.1 L 263.6,339.1 L 262.6,339.5 L 262.7,340.5 L 262.3,340.6 L 169.1,360.0 L 168.9,359.5 L 167.3,358.2 L 167.8,356.9 L 164.5,355.7 L 163.7,356.2 L 162.9,356.1 L 160.9,354.3 L 159.0,354.0 L 158.2,353.7 L 156.9,350.8 L 155.8,350.2 L 155.2,349.1 L 154.6,343.8 L 154.7,342.7 L 155.7,339.1 L 155.7,338.8" fill="none" stroke="black" stroke-width="2"/>
</svg>