<?xml version="1.0" encoding="UTF-8"?>
<svg width="400" height="400" viewBox="0 0 400 400" xmlns="http://www.w3.org/2000/svg">
  <rect width="400" height="400" fill="white"/>
  <path d="M 109.4,231.6 L 109.2,230.6 L 111.3,228.8 L 111.1,228.1 L 110.2,227.2 L 109.8,225.1 L 109.1,224.1 L 109.6,221.9 L 108.7,220.0 L 109.3,217.8 L 108.5,213.0 L 107.2,210.1 L 106.6,207.8 L 106.1,207.1 L 106.0,205.2 L 104.6,204.8 L 103.6,204.1 L 104.4,201.6 L 107.1,201.8 L 108.2,201.3 L 108.0,200.1 L 107.5,199.1 L 107.7,197.8 L 108.4,196.3 L 108.5,193.8 L 109.2,192.2 L 109.3,189.9 L 111.7,185.9 L 108.4,184.3 L 107.8,182.3 L 108.2,181.1 L 107.1,178.6 L 106.2,173.6 L 106.9,173.6 L 107.9,176.5 L 109.3,177.1 L 110.2,176.8 L 109.4,171.8 L 108.7,170.3 L 107.6,163.6 L 107.6,161.3 L 109.1,159.0 L 108.8,158.6 L 107.9,157.8 L 107.9,156.7 L 109.4,154.3 L 110.2,149.8 L 113.7,143.9 L 116.3,137.1 L 118.5,134.2 L 119.1,132.1 L 118.8,130.0 L 117.8,127.9 L 117.1,125.7 L 116.5,123.4 L 114.9,121.8 L 114.2,117.0 L 113.3,115.7 L 113.4,113.3 L 113.2,112.6 L 113.9,111.6 L 114.1,108.6 L 114.1,108.6 L 115.4,106.6 L 115.4,103.6 L 116.3,102.0 L 115.4,98.3 L 114.8,97.6 L 114.8,95.5 L 115.4,87.4 L 116.3,87.7 L 117.2,87.6 L 118.6,85.3 L 121.4,84.0 L 122.4,82.9 L 122.3,81.1 L 124.0,78.5 L 124.4,77.2 L 125.9,74.5 L 126.7,70.6 L 127.1,69.7 L 129.0,67.5 L 130.8,65.9 L 132.9,62.8 L 135.9,55.8 L 136.8,53.3 L 138.4,48.8 L 138.8,45.0 L 138.6,43.2 L 138.7,42.1 L 139.6,40.0 L 141.4,40.0 L 142.3,40.6 L 142.7,41.8 L 142.8,42.7 L 143.5,44.0 L 144.8,48.4 L 146.1,58.7 L 147.7,60.1 L 150.0,61.2 L 151.0,62.4 L 151.3,64.2 L 149.3,71.6 L 148.5,77.8 L 148.1,82.4 L 148.2,84.6 L 148.8,86.7 L 151.5,89.7 L 153.4,94.5 L 156.1,97.6 L 156.8,100.0 L 156.8,100.1 L 160.4,105.6 L 161.2,108.0 L 163.1,112.1 L 163.9,112.7 L 165.8,112.3 L 167.8,110.6 L 168.8,107.6 L 169.7,106.0 L 171.5,104.5 L 172.8,103.0 L 173.2,100.5 L 173.7,99.1 L 174.2,96.6 L 174.7,94.1 L 174.1,91.5 L 174.4,89.9 L 175.7,88.5 L 180.7,85.2 L 181.5,84.2 L 182.1,82.3 L 182.8,81.7 L 184.0,81.7 L 184.3,82.6 L 185.1,83.3 L 185.8,84.6 L 186.8,89.9 L 186.7,94.1 L 186.6,96.4 L 185.7,99.2 L 184.8,100.9 L 184.8,102.6 L 186.6,104.3 L 187.5,107.8 L 188.6,109.7 L 190.1,110.0 L 190.1,110.9 L 190.8,112.8 L 191.6,113.6 L 193.7,113.2 L 194.7,112.1 L 195.4,111.4 L 195.4,109.0 L 196.0,108.6 L 197.1,108.8 L 197.7,110.0 L 198.4,112.6 L 200.2,122.7 L 199.8,126.7 L 199.1,127.6 L 200.1,129.9 L 203.6,132.3 L 205.2,134.6 L 207.0,140.0 L 208.7,142.5 L 211.6,144.3 L 212.7,149.6 L 214.8,152.9 L 217.1,154.8 L 217.8,155.8 L 219.9,156.2 L 221.8,157.3 L 223.5,159.4 L 224.7,160.2 L 225.2,160.2 L 227.3,161.8 L 228.8,163.8 L 230.0,166.5 L 231.9,168.3 L 233.5,176.2 L 233.4,178.3 L 233.9,182.8 L 235.5,185.3 L 236.5,190.1 L 237.0,194.2 L 234.6,202.4 L 233.3,204.9 L 235.5,207.6 L 235.7,208.9 L 236.3,209.3 L 239.9,209.3 L 241.8,209.4 L 243.6,208.8 L 245.8,209.1 L 247.5,210.3 L 248.2,214.2 L 250.8,217.5 L 254.9,224.4 L 256.1,228.0 L 258.0,231.7 L 261.2,235.5 L 263.1,237.0 L 264.5,239.0 L 266.5,244.7 L 269.1,262.2 L 270.0,265.0 L 271.7,267.2 L 273.2,269.5 L 273.9,272.3 L 274.2,273.0 L 274.2,273.0 L 274.0,274.2 L 274.5,277.8 L 277.3,280.3 L 279.3,285.0 L 279.9,288.3 L 279.8,291.1 L 278.9,293.0 L 279.1,294.4 L 279.2,295.5 L 278.5,296.1 L 279.3,297.7 L 279.1,299.3 L 279.6,299.9 L 281.1,300.1 L 283.0,301.3 L 284.9,300.9 L 285.5,299.9 L 285.3,298.0 L 288.1,297.6 L 289.1,297.1 L 291.9,297.7 L 292.6,298.3 L 293.0,299.5 L 294.4,300.6 L 296.4,302.4 L 146.7,360.0 L 146.3,359.6 L 145.4,359.1 L 144.7,358.3 L 142.1,357.6 L 141.9,356.5 L 142.8,354.6 L 141.8,352.4 L 141.6,350.9 L 142.8,348.8 L 142.4,347.5 L 141.6,346.5 L 141.9,344.8 L 141.5,342.9 L 140.1,339.7 L 141.6,337.8 L 141.5,337.1 L 140.9,336.5 L 141.2,336.1 L 142.0,335.6 L 142.2,334.0 L 142.8,331.6 L 142.6,330.1 L 142.1,329.5 L 142.5,328.3 L 143.2,327.7 L 144.5,327.5 L 144.7,327.3 L 145.6,327.6 L 146.4,327.3 L 145.7,325.9 L 145.5,324.7 L 144.7,324.3 L 144.0,324.4 L 142.4,323.7 L 141.8,322.0 L 141.7,321.9 L 141.1,320.7 L 139.9,320.3 L 138.6,318.7 L 137.9,319.0 L 137.1,320.5 L 135.0,322.3 L 134.7,323.3 L 134.7,323.4 L 135.4,326.2 L 135.0,327.3 L 133.5,327.7 L 130.5,324.4 L 130.2,324.2 L 129.1,323.4 L 127.8,323.0 L 124.7,318.5 L 122.6,317.2 L 121.7,315.8 L 122.3,315.4 L 125.2,314.2 L 127.1,313.0 L 127.3,312.2 L 125.1,311.5 L 124.0,310.0 L 123.1,309.7 L 122.3,309.4 L 120.5,309.1 L 119.7,308.5 L 119.4,306.3 L 120.0,304.1 L 120.2,302.7 L 119.0,300.1 L 118.4,299.5 L 116.7,295.9 L 117.0,292.5 L 117.1,292.4 L 117.4,292.2 L 117.6,291.7 L 117.9,278.3 L 117.5,276.4 L 115.8,273.7 L 115.6,272.3 L 113.6,269.3 L 112.8,267.2 L 112.3,263.0 L 114.1,256.6 L 113.8,253.3 L 114.7,245.5 L 114.2,240.9 L 114.4,239.1 L 113.3,237.3 L 113.1,234.9 L 113.4,234.0 L 110.8,232.6 L 109.7,231.7 L 109.4,231.6" fill="none" stroke="black" stroke-width="2"/>
</svg>