<?xml version="1.0" encoding="UTF-8"?>
<svg width="400" height="400" viewBox="0 0 400 400" xmlns="http://www.w3.org/2000/svg">
  <rect width="400" height="400" fill="white"/>
  <path d="M 99.7,219.9 L 100.5,218.6 L 101.8,215.7 L 103.2,213.8 L 107.3,210.3 L 120.7,192.7 L 123.6,188.0 L 124.5,186.1 L 127.7,182.6 L 129.3,180.1 L 131.7,176.9 L 133.1,174.2 L 134.6,172.6 L 139.0,169.8 L 142.4,166.5 L 144.9,163.9 L 148.9,158.7 L 152.5,155.6 L 155.1,152.9 L 156.9,148.0 L 159.6,144.6 L 166.4,140.3 L 167.7,139.0 L 169.8,133.8 L 173.7,126.2 L 176.3,122.6 L 179.8,119.3 L 183.1,115.4 L 184.9,112.4 L 188.7,107.7 L 189.5,106.8 L 192.6,105.6 L 201.3,104.1 L 203.6,101.8 L 204.0,100.8 L 204.9,98.2 L 207.1,95.3 L 207.5,92.3 L 208.3,90.3 L 216.1,75.9 L 217.7,72.9 L 222.4,64.8 L 228.4,56.9 L 233.8,54.0 L 244.4,49.0 L 247.2,47.0 L 252.5,46.2 L 255.3,44.9 L 259.4,44.0 L 261.3,42.1 L 261.4,40.0 L 321.8,49.3 L 322.3,49.4 L 321.7,51.4 L 320.0,55.1 L 319.2,56.9 L 316.3,64.8 L 312.3,82.1 L 310.3,87.0 L 309.8,90.7 L 307.1,94.5 L 305.5,99.0 L 302.9,103.8 L 300.6,106.6 L 295.0,111.1 L 288.5,118.9 L 287.0,120.0 L 276.0,127.0 L 272.4,131.2 L 271.5,133.7 L 270.4,145.6 L 269.0,149.8 L 265.9,153.7 L 264.6,156.5 L 261.1,161.1 L 259.3,164.2 L 257.3,169.6 L 251.8,173.8 L 246.2,180.5 L 243.0,185.5 L 239.6,195.3 L 237.2,198.9 L 232.1,202.1 L 230.2,204.9 L 228.3,210.8 L 228.7,215.0 L 228.2,218.2 L 227.6,219.0 L 223.0,224.7 L 218.1,227.6 L 216.4,229.2 L 211.6,236.9 L 209.4,242.6 L 207.1,245.5 L 201.9,249.4 L 197.3,254.7 L 193.7,256.9 L 188.1,257.6 L 184.8,257.7 L 179.4,260.2 L 178.6,261.7 L 175.0,264.1 L 169.9,264.9 L 168.7,266.2 L 156.5,272.5 L 153.6,275.3 L 148.4,282.0 L 144.7,286.9 L 143.9,289.9 L 140.7,293.8 L 137.1,297.3 L 136.7,298.1 L 133.5,299.1 L 131.2,301.7 L 127.5,302.2 L 125.7,302.8 L 124.3,303.7 L 122.8,305.5 L 123.3,310.0 L 124.7,311.0 L 125.3,316.1 L 123.5,322.1 L 120.2,330.0 L 118.3,333.1 L 119.2,336.0 L 117.5,337.9 L 115.7,340.9 L 115.8,344.2 L 112.5,347.7 L 108.3,348.7 L 107.0,350.0 L 106.1,352.5 L 104.9,354.0 L 104.1,355.5 L 102.7,356.4 L 101.1,356.4 L 100.2,356.5 L 98.0,360.0 L 97.3,359.1 L 97.2,356.1 L 97.6,352.9 L 96.8,346.4 L 96.1,343.4 L 95.7,343.0 L 95.1,341.6 L 94.6,338.9 L 90.7,336.4 L 89.9,334.4 L 89.8,327.0 L 91.4,323.5 L 92.3,318.7 L 92.0,317.3 L 90.7,314.8 L 84.6,315.5 L 81.6,318.3 L 80.0,317.3 L 77.9,311.1 L 77.7,307.3 L 78.7,300.8 L 80.4,295.2 L 82.9,291.5 L 85.3,289.6 L 85.7,289.1 L 86.1,286.4 L 85.4,280.8 L 86.2,278.8 L 88.6,275.5 L 89.6,273.5 L 89.2,270.5 L 87.1,266.1 L 82.7,261.0 L 82.0,258.2 L 82.1,255.8 L 83.9,252.6 L 89.5,247.2 L 93.8,239.5 L 95.6,234.8 L 97.6,226.8 L 99.7,219.9" fill="none" stroke="black" stroke-width="2"/>
</svg>