<?xml version="1.0" encoding="UTF-8"?>
<svg width="400" height="400" viewBox="0 0 400 400" xmlns="http://www.w3.org/2000/svg">
  <rect width="400" height="400" fill="white"/>
  <path d="M 105.5,243.3 L 105.4,242.9 L 105.5,242.6 L 105.8,242.3 L 105.7,242.1 L 105.3,241.7 L 105.3,241.3 L 105.9,240.0 L 105.9,239.9 L 105.9,239.1 L 106.0,238.2 L 105.9,237.7 L 105.6,236.7 L 105.3,236.3 L 105.1,235.7 L 104.9,235.5 L 104.4,235.1 L 104.0,234.7 L 103.3,234.2 L 102.8,234.2 L 102.2,234.2 L 101.9,234.0 L 101.6,233.9 L 101.3,234.0 L 101.1,233.8 L 100.8,233.5 L 100.4,233.3 L 99.9,233.2 L 99.5,233.0 L 99.1,233.0 L 98.9,232.8 L 98.8,232.6 L 98.6,232.5 L 98.3,232.4 L 97.9,232.1 L 97.6,231.9 L 97.3,231.6 L 96.7,231.2 L 96.0,230.9 L 95.4,230.6 L 94.8,230.5 L 94.0,230.5 L 92.7,229.8 L 92.2,229.4 L 91.6,228.9 L 91.3,228.6 L 91.0,228.2 L 90.4,227.6 L 89.4,225.5 L 88.3,222.8 L 87.9,221.4 L 87.3,220.0 L 86.7,218.9 L 86.4,218.3 L 86.2,217.5 L 85.1,216.0 L 85.0,215.7 L 84.9,215.2 L 84.6,214.8 L 84.0,214.0 L 83.5,213.2 L 83.0,212.5 L 82.0,211.2 L 81.7,210.9 L 81.1,210.6 L 80.0,209.7 L 79.4,209.3 L 78.7,208.9 L 78.1,208.4 L 77.9,208.1 L 77.2,206.9 L 76.7,206.3 L 75.8,205.2 L 75.6,204.9 L 74.3,202.7 L 74.0,202.2 L 73.3,201.5 L 72.1,200.7 L 70.6,199.8 L 70.0,199.5 L 69.4,199.3 L 68.9,199.1 L 68.9,199.1 L 68.2,198.4 L 67.4,197.6 L 66.4,197.0 L 64.7,196.3 L 64.7,196.3 L 64.0,196.0 L 62.8,195.5 L 62.1,195.1 L 61.9,194.9 L 61.8,194.4 L 61.8,194.1 L 61.5,193.8 L 61.2,193.7 L 60.9,193.6 L 60.6,193.3 L 60.1,193.1 L 59.5,192.7 L 58.9,192.3 L 58.7,192.0 L 58.3,191.7 L 58.2,191.4 L 58.1,191.4 L 57.6,191.3 L 57.4,191.2 L 57.2,190.9 L 56.9,190.8 L 56.5,191.0 L 56.2,191.0 L 55.7,190.7 L 55.2,190.4 L 54.9,190.4 L 54.8,190.5 L 54.5,190.5 L 54.4,190.1 L 54.2,189.8 L 54.0,189.8 L 53.7,189.9 L 53.4,189.9 L 52.4,189.3 L 51.6,189.1 L 51.3,189.1 L 50.5,188.5 L 50.3,188.3 L 50.1,188.2 L 137.9,40.4 L 137.9,40.4 L 138.0,40.5 L 138.6,40.4 L 139.2,40.1 L 139.6,40.0 L 140.1,40.1 L 140.2,40.2 L 140.4,40.6 L 140.7,41.1 L 141.2,41.4 L 141.5,41.6 L 141.8,41.9 L 142.1,42.3 L 142.8,44.1 L 142.9,44.2 L 143.1,44.8 L 143.2,44.9 L 143.5,45.3 L 143.7,45.6 L 144.5,46.0 L 145.0,46.0 L 145.5,45.8 L 146.1,45.8 L 146.3,45.9 L 146.8,46.6 L 147.2,46.8 L 147.7,46.8 L 148.4,46.4 L 149.2,46.4 L 149.9,46.5 L 150.4,46.8 L 151.2,47.6 L 152.1,48.5 L 152.4,48.6 L 152.8,48.6 L 153.2,48.3 L 153.8,48.2 L 154.3,47.9 L 154.6,47.9 L 155.0,48.1 L 155.6,48.5 L 156.5,49.3 L 158.1,50.5 L 159.7,51.7 L 160.1,51.9 L 160.5,52.0 L 161.1,51.8 L 161.6,51.8 L 161.9,51.8 L 162.7,52.1 L 163.1,52.2 L 163.7,52.5 L 165.0,52.4 L 165.3,52.5 L 165.6,52.6 L 166.3,52.7 L 166.8,53.0 L 168.0,53.5 L 168.5,53.9 L 169.1,54.2 L 170.5,54.6 L 171.2,54.9 L 172.0,55.2 L 172.4,55.6 L 172.7,55.9 L 173.5,56.7 L 174.1,57.1 L 174.8,57.4 L 176.1,57.6 L 178.1,57.5 L 178.7,57.5 L 179.3,57.6 L 180.6,58.1 L 181.9,58.7 L 182.7,58.9 L 183.7,58.9 L 184.3,59.0 L 186.2,59.0 L 187.6,59.2 L 188.1,59.3 L 188.5,59.4 L 189.6,59.8 L 190.3,60.0 L 190.5,60.0 L 190.6,60.1 L 191.3,60.4 L 192.5,60.7 L 193.1,60.9 L 195.0,61.5 L 195.6,61.8 L 196.2,62.3 L 197.0,62.8 L 197.4,63.2 L 197.5,63.3 L 198.7,64.3 L 199.2,64.7 L 200.0,65.1 L 200.5,65.3 L 202.1,65.8 L 202.9,66.3 L 203.3,66.5 L 203.6,66.4 L 203.9,66.1 L 204.1,65.9 L 204.4,65.7 L 204.8,65.5 L 205.2,65.4 L 205.5,65.4 L 206.4,65.3 L 206.9,65.4 L 207.2,65.5 L 208.1,65.7 L 208.5,65.9 L 209.0,66.5 L 209.3,67.3 L 209.4,68.2 L 209.3,68.4 L 208.5,68.7 L 208.1,69.2 L 208.0,69.6 L 208.0,70.0 L 208.4,70.4 L 209.0,70.8 L 209.2,70.7 L 209.5,70.5 L 209.8,69.5 L 210.1,69.0 L 210.3,68.8 L 210.5,68.7 L 210.9,68.6 L 211.1,68.8 L 211.2,68.9 L 211.0,69.4 L 211.0,69.7 L 211.1,69.9 L 211.3,70.1 L 211.4,70.0 L 211.6,69.8 L 211.7,69.2 L 211.9,69.0 L 212.0,68.8 L 212.4,68.8 L 212.8,69.0 L 213.7,69.7 L 214.2,70.1 L 214.6,70.6 L 215.0,71.5 L 215.1,71.9 L 215.0,72.3 L 214.9,72.5 L 214.2,73.3 L 213.8,74.1 L 213.8,74.5 L 214.0,74.7 L 214.3,74.9 L 215.5,75.1 L 216.4,75.2 L 216.8,75.3 L 217.0,75.3 L 217.4,75.6 L 218.1,76.0 L 218.6,76.2 L 219.0,76.1 L 219.7,75.6 L 220.2,75.5 L 220.5,75.7 L 220.3,75.9 L 219.5,76.2 L 219.4,76.5 L 219.4,76.7 L 219.5,77.1 L 219.8,77.5 L 220.2,78.1 L 220.4,78.5 L 220.6,78.7 L 221.4,79.2 L 221.9,79.5 L 222.5,80.2 L 223.0,81.0 L 223.6,82.2 L 224.0,83.1 L 224.3,83.9 L 224.4,84.6 L 224.7,85.3 L 225.0,86.0 L 225.3,86.8 L 225.4,88.1 L 225.6,88.6 L 225.7,89.2 L 225.7,89.5 L 225.4,90.2 L 225.3,90.6 L 225.4,90.9 L 225.6,91.1 L 226.3,91.5 L 227.1,91.8 L 227.6,92.1 L 227.9,92.3 L 228.7,92.9 L 229.3,93.7 L 229.9,94.6 L 231.0,96.6 L 231.5,97.2 L 231.9,97.6 L 232.8,98.4 L 233.3,98.9 L 233.8,99.8 L 234.2,100.1 L 234.7,100.4 L 235.0,100.6 L 235.0,101.4 L 235.2,101.8 L 235.4,102.3 L 236.2,103.8 L 236.6,104.6 L 237.0,105.9 L 237.2,106.9 L 237.7,108.0 L 237.8,108.9 L 237.9,109.1 L 238.1,109.0 L 238.2,109.0 L 238.6,108.9 L 238.8,109.0 L 239.2,109.4 L 239.4,110.3 L 239.7,110.6 L 240.4,111.0 L 240.8,111.5 L 241.1,112.2 L 241.4,112.9 L 242.0,113.8 L 242.4,114.8 L 242.9,116.1 L 243.2,116.6 L 243.8,117.0 L 244.5,117.5 L 244.9,117.8 L 245.2,118.2 L 245.5,118.8 L 246.0,119.7 L 246.4,120.2 L 247.1,120.8 L 248.2,121.6 L 250.6,123.1 L 251.6,123.7 L 252.8,124.2 L 253.9,125.0 L 254.7,125.8 L 254.8,125.9 L 255.1,125.9 L 255.3,126.0 L 255.6,126.7 L 256.3,127.3 L 257.9,128.9 L 258.7,130.3 L 259.0,130.6 L 259.2,130.9 L 260.2,131.8 L 260.8,132.1 L 261.7,132.4 L 261.9,132.6 L 262.0,133.0 L 262.1,133.4 L 262.4,133.7 L 263.3,134.3 L 263.6,134.7 L 263.8,135.2 L 264.5,135.9 L 264.8,136.2 L 264.9,136.4 L 265.2,136.8 L 265.8,137.7 L 266.4,138.4 L 266.7,138.9 L 266.8,139.7 L 266.9,140.0 L 267.0,141.0 L 267.2,141.3 L 267.6,141.3 L 267.9,141.5 L 268.5,141.6 L 268.5,141.7 L 268.2,142.5 L 268.2,142.9 L 268.4,143.2 L 268.9,143.8 L 270.0,144.8 L 270.8,145.3 L 271.0,145.8 L 271.2,146.4 L 271.3,147.0 L 271.4,147.5 L 271.4,148.1 L 271.4,148.5 L 271.5,149.0 L 271.7,149.5 L 272.2,150.9 L 272.3,151.2 L 272.5,152.2 L 272.7,153.2 L 272.9,153.9 L 273.3,154.7 L 273.8,155.4 L 275.3,157.7 L 276.3,158.6 L 277.5,160.5 L 277.9,160.9 L 279.6,163.2 L 280.2,164.2 L 280.9,165.7 L 281.4,166.6 L 281.9,167.8 L 282.4,168.8 L 282.7,169.3 L 282.8,169.7 L 283.0,170.2 L 283.3,170.7 L 283.6,171.1 L 284.1,171.7 L 284.2,172.0 L 284.2,172.3 L 284.2,173.4 L 283.9,174.1 L 283.9,174.6 L 284.0,175.2 L 284.3,175.8 L 284.6,176.3 L 286.3,177.9 L 286.9,178.3 L 288.1,178.8 L 288.7,179.1 L 289.4,179.9 L 290.1,180.6 L 290.7,181.1 L 290.8,181.1 L 291.2,181.4 L 292.4,182.2 L 292.8,182.7 L 293.3,183.4 L 293.5,184.1 L 293.9,185.5 L 294.0,185.6 L 294.0,186.0 L 293.9,187.2 L 294.0,188.3 L 294.2,189.2 L 294.3,189.6 L 294.9,190.5 L 295.7,191.6 L 296.0,192.1 L 296.1,192.7 L 296.2,193.2 L 296.4,194.6 L 296.3,195.1 L 296.2,195.6 L 295.4,197.7 L 295.2,198.7 L 295.1,199.3 L 294.7,200.5 L 294.0,202.1 L 293.8,202.9 L 293.5,203.6 L 293.2,204.1 L 292.5,204.5 L 291.8,205.5 L 291.3,206.1 L 291.1,206.3 L 290.8,206.4 L 290.7,206.5 L 290.0,206.6 L 289.5,206.5 L 289.2,206.4 L 288.8,206.1 L 287.2,204.8 L 286.6,204.5 L 285.8,204.2 L 285.1,204.0 L 284.8,204.1 L 284.3,204.5 L 284.0,204.6 L 283.3,204.1 L 282.9,204.1 L 282.7,204.4 L 282.2,205.6 L 282.0,206.5 L 281.9,206.9 L 280.7,209.4 L 280.4,210.2 L 280.4,210.6 L 280.3,211.0 L 279.9,211.7 L 279.7,212.3 L 279.7,212.8 L 278.8,214.9 L 278.6,216.0 L 278.5,216.6 L 278.6,217.6 L 278.8,217.9 L 279.1,218.3 L 279.5,218.4 L 279.9,218.4 L 280.3,218.6 L 280.7,218.8 L 280.9,219.2 L 281.1,220.0 L 281.5,220.9 L 281.7,221.1 L 282.3,221.5 L 282.8,221.7 L 283.2,221.9 L 283.9,223.1 L 284.1,223.5 L 283.9,225.3 L 284.0,226.2 L 284.3,226.9 L 284.4,227.4 L 284.5,227.7 L 284.6,228.2 L 284.9,228.5 L 285.4,228.7 L 285.8,228.7 L 286.3,228.5 L 286.6,228.5 L 287.2,229.1 L 288.0,229.3 L 288.4,229.6 L 289.0,230.5 L 289.8,231.2 L 290.4,231.7 L 290.8,232.0 L 291.4,232.6 L 291.7,232.8 L 292.3,233.2 L 292.5,233.6 L 292.7,233.8 L 293.2,234.2 L 293.5,234.4 L 293.9,234.8 L 294.4,235.3 L 295.0,235.9 L 295.4,236.8 L 295.7,237.0 L 296.0,237.3 L 296.4,238.2 L 297.1,239.2 L 297.7,240.4 L 298.4,241.3 L 298.6,241.9 L 298.8,242.5 L 299.4,244.3 L 299.8,245.1 L 300.3,246.1 L 301.7,247.9 L 302.5,249.2 L 303.5,251.5 L 304.1,252.6 L 304.8,253.4 L 305.1,253.7 L 305.7,254.1 L 307.1,254.7 L 308.4,255.4 L 309.4,256.0 L 309.9,256.6 L 310.3,257.0 L 310.9,257.5 L 312.4,258.7 L 312.6,258.9 L 313.3,259.7 L 314.2,260.7 L 314.9,261.4 L 315.9,262.0 L 316.4,262.3 L 317.7,262.8 L 318.4,262.9 L 318.6,262.9 L 318.8,263.0 L 320.0,262.7 L 320.6,262.6 L 321.5,262.7 L 321.9,262.7 L 322.4,262.5 L 323.0,262.5 L 323.4,262.6 L 323.8,262.7 L 324.2,263.0 L 324.7,263.2 L 325.5,263.3 L 325.9,263.4 L 326.2,263.6 L 326.4,263.7 L 326.7,264.0 L 327.0,264.5 L 328.4,266.1 L 328.4,266.3 L 328.7,266.7 L 328.8,266.7 L 329.0,267.3 L 329.2,268.2 L 329.2,268.8 L 329.3,269.3 L 329.7,270.7 L 330.2,271.8 L 330.7,273.5 L 330.8,274.6 L 330.8,275.9 L 331.1,277.9 L 331.5,279.0 L 331.7,279.4 L 332.2,280.0 L 332.5,280.5 L 332.7,280.7 L 332.8,280.9 L 333.1,281.4 L 333.3,282.9 L 333.3,285.0 L 333.1,285.9 L 332.9,287.7 L 332.8,288.4 L 332.6,289.4 L 332.7,290.1 L 332.8,290.9 L 332.9,291.6 L 332.5,292.4 L 332.2,293.1 L 332.1,293.7 L 332.1,294.3 L 332.2,294.8 L 332.7,295.9 L 333.2,296.8 L 333.6,297.1 L 334.2,297.1 L 334.6,297.3 L 335.6,298.0 L 336.4,298.7 L 337.9,300.3 L 338.4,301.0 L 339.3,301.9 L 340.4,303.4 L 340.8,304.1 L 341.5,305.6 L 342.0,308.0 L 342.0,308.5 L 342.1,309.3 L 342.2,310.0 L 342.4,310.4 L 342.7,310.8 L 343.0,311.1 L 343.2,312.4 L 343.5,314.0 L 343.6,314.1 L 343.6,314.3 L 344.0,315.7 L 344.2,316.1 L 344.4,316.6 L 344.8,317.3 L 345.5,319.3 L 345.6,319.9 L 345.7,321.4 L 346.2,324.2 L 346.2,325.1 L 346.2,325.9 L 346.3,326.4 L 346.8,327.5 L 347.3,329.4 L 347.4,330.1 L 347.4,330.7 L 347.5,331.4 L 347.6,331.6 L 348.0,332.2 L 348.9,333.1 L 349.4,333.8 L 349.8,334.7 L 349.9,336.0 L 349.9,337.2 L 349.9,339.5 L 349.7,340.6 L 349.7,340.9 L 349.4,341.5 L 348.7,342.8 L 348.4,343.5 L 348.3,343.5 L 347.4,344.4 L 346.6,345.1 L 345.8,345.7 L 343.8,346.9 L 343.2,347.1 L 341.0,348.0 L 340.2,348.2 L 339.5,348.3 L 338.8,348.3 L 337.8,348.0 L 337.3,347.8 L 336.9,347.7 L 336.8,347.6 L 336.2,347.1 L 335.5,346.8 L 334.3,346.5 L 333.5,346.2 L 332.6,345.8 L 332.5,345.7 L 331.9,345.4 L 331.3,344.9 L 331.1,344.9 L 330.8,344.9 L 330.5,345.0 L 330.2,345.0 L 327.3,345.2 L 326.6,345.3 L 325.5,345.6 L 324.7,345.9 L 323.9,346.4 L 323.4,347.0 L 323.1,347.8 L 322.9,348.5 L 321.8,350.4 L 321.5,351.1 L 321.4,351.9 L 321.2,352.3 L 320.8,354.0 L 320.5,355.8 L 320.2,357.5 L 320.1,358.4 L 320.1,359.4 L 320.2,360.0 L 215.3,352.0 L 215.3,351.8 L 215.9,348.7 L 216.1,348.0 L 216.4,347.2 L 216.8,345.9 L 216.8,345.6 L 216.9,344.8 L 217.0,344.0 L 216.8,341.9 L 216.7,340.6 L 216.7,340.5 L 216.5,338.0 L 216.4,337.3 L 216.5,334.9 L 216.6,333.3 L 216.7,332.4 L 216.8,332.0 L 217.0,330.9 L 217.3,329.4 L 217.3,328.8 L 217.2,327.6 L 217.0,326.8 L 216.8,326.2 L 216.6,325.6 L 216.5,325.0 L 216.5,324.5 L 216.8,323.8 L 217.5,322.9 L 217.9,322.1 L 217.9,321.7 L 217.9,321.3 L 218.0,321.2 L 218.4,321.1 L 218.5,321.0 L 218.6,320.8 L 218.6,320.3 L 218.8,319.8 L 218.7,319.6 L 218.5,319.3 L 218.4,318.9 L 218.7,318.5 L 218.7,318.2 L 218.7,318.0 L 218.1,316.8 L 218.0,315.6 L 217.8,315.1 L 217.5,314.7 L 217.0,314.2 L 216.8,314.0 L 216.0,313.3 L 215.5,313.1 L 215.1,313.1 L 214.7,313.4 L 214.3,313.4 L 213.8,313.3 L 213.5,313.4 L 213.4,313.6 L 213.5,314.1 L 213.4,314.4 L 213.3,314.6 L 213.4,314.9 L 213.4,315.1 L 213.1,315.5 L 213.1,316.3 L 213.0,316.7 L 212.5,317.2 L 212.0,317.4 L 211.3,317.5 L 210.5,317.2 L 209.6,317.2 L 208.0,317.4 L 207.2,317.4 L 206.4,317.2 L 206.1,317.1 L 204.7,316.2 L 203.7,315.6 L 202.6,315.0 L 201.5,314.0 L 200.8,313.2 L 199.4,311.3 L 199.0,310.8 L 198.4,310.2 L 198.3,310.2 L 198.3,310.1 L 197.5,309.3 L 196.6,308.0 L 195.8,306.7 L 195.0,305.2 L 194.8,304.6 L 194.6,303.9 L 193.8,301.5 L 193.2,300.3 L 192.6,299.5 L 191.3,298.1 L 190.4,297.3 L 189.8,296.8 L 189.2,296.6 L 188.1,296.0 L 187.4,295.7 L 186.8,295.4 L 186.2,295.0 L 185.7,294.7 L 185.0,294.6 L 184.2,294.4 L 181.9,293.6 L 181.1,293.5 L 180.0,293.3 L 179.5,293.1 L 178.3,292.2 L 177.9,291.8 L 177.5,291.2 L 177.1,290.8 L 177.0,290.4 L 176.8,290.1 L 176.1,289.5 L 175.7,288.8 L 174.8,287.7 L 174.1,287.2 L 173.6,286.6 L 173.0,286.1 L 172.5,285.7 L 171.8,285.4 L 169.6,285.0 L 169.3,284.7 L 168.0,283.7 L 167.7,283.6 L 166.4,283.6 L 165.6,283.5 L 165.1,283.3 L 164.4,282.9 L 164.1,282.6 L 163.9,282.3 L 162.9,281.1 L 162.2,279.9 L 162.2,279.4 L 162.3,278.8 L 162.3,278.2 L 162.0,277.5 L 161.4,277.1 L 160.8,276.9 L 159.6,276.7 L 159.1,276.5 L 158.5,276.3 L 158.1,276.1 L 157.6,275.9 L 157.1,275.8 L 156.8,275.5 L 156.3,275.2 L 156.0,275.1 L 155.4,275.3 L 154.9,275.1 L 153.8,275.1 L 152.2,274.1 L 151.1,273.2 L 150.1,272.1 L 149.6,271.7 L 148.8,271.3 L 146.9,270.4 L 145.4,269.6 L 144.9,269.3 L 144.2,269.0 L 143.0,268.2 L 142.9,268.1 L 141.2,266.8 L 141.1,266.7 L 140.7,266.2 L 139.6,264.9 L 139.3,264.7 L 138.5,263.3 L 138.0,262.8 L 137.8,262.2 L 137.2,261.7 L 137.0,261.6 L 136.3,260.9 L 135.7,260.4 L 134.2,259.4 L 133.8,258.7 L 132.7,257.9 L 131.9,257.5 L 131.4,257.2 L 131.0,257.2 L 130.2,257.3 L 129.6,257.6 L 129.0,257.7 L 128.6,257.6 L 128.1,257.4 L 127.2,257.3 L 126.7,257.1 L 126.0,256.6 L 125.6,256.4 L 124.7,255.7 L 124.4,255.6 L 123.2,254.9 L 122.4,254.4 L 122.0,254.2 L 121.8,254.0 L 121.5,253.9 L 119.8,252.4 L 119.4,252.4 L 118.5,251.6 L 117.8,250.8 L 117.2,249.9 L 116.5,248.8 L 116.1,248.6 L 115.8,248.4 L 115.2,247.9 L 114.8,247.8 L 114.3,248.0 L 113.4,248.5 L 112.5,248.6 L 111.6,248.3 L 111.0,248.0 L 110.1,247.4 L 109.4,246.8 L 108.3,246.0 L 107.6,245.5 L 106.5,245.0 L 106.4,244.8 L 106.3,244.6 L 106.1,244.3 L 106.0,243.8 L 105.5,243.3" fill="none" stroke="black" stroke-width="2"/>
</svg>