<?xml version="1.0" encoding="UTF-8"?>
<svg width="400" height="400" viewBox="0 0 400 400" xmlns="http://www.w3.org/2000/svg">
  <rect width="400" height="400" fill="white"/>
  <path d="M 56.3,217.8 L 57.3,217.0 L 57.3,216.7 L 56.9,216.6 L 56.2,217.1 L 55.4,217.4 L 54.6,217.2 L 54.5,215.9 L 55.7,213.1 L 55.8,212.4 L 56.1,211.7 L 56.2,210.8 L 57.2,209.7 L 57.8,209.5 L 57.7,207.5 L 57.3,206.5 L 56.9,206.4 L 56.4,206.3 L 56.5,205.9 L 57.1,205.4 L 58.0,205.4 L 58.6,205.8 L 59.0,205.3 L 59.7,202.3 L 60.1,199.8 L 59.9,198.7 L 59.3,196.6 L 59.4,195.5 L 59.7,195.0 L 60.3,195.0 L 60.8,195.7 L 61.3,196.7 L 61.8,197.0 L 62.3,197.0 L 62.5,196.4 L 62.4,195.7 L 61.9,194.8 L 61.9,193.8 L 62.6,192.6 L 62.7,190.0 L 63.1,189.2 L 63.1,188.1 L 63.1,188.0 L 63.6,187.6 L 63.6,186.6 L 64.5,186.2 L 64.7,185.5 L 64.6,183.3 L 63.9,182.1 L 61.4,180.0 L 61.1,179.2 L 60.7,177.0 L 60.5,176.3 L 60.3,174.0 L 61.6,172.7 L 61.9,172.1 L 61.9,171.3 L 61.4,170.5 L 61.0,168.0 L 60.8,167.1 L 59.9,165.7 L 60.2,164.4 L 60.5,163.3 L 60.3,162.1 L 59.8,160.8 L 57.1,157.8 L 56.8,157.7 L 56.5,158.0 L 56.0,159.3 L 55.9,160.3 L 55.9,161.6 L 56.6,163.3 L 57.0,164.7 L 56.9,165.3 L 56.3,165.4 L 54.5,162.9 L 53.9,162.6 L 53.4,164.6 L 52.6,165.6 L 51.7,165.8 L 50.8,165.5 L 50.0,164.9 L 49.8,164.2 L 50.2,163.1 L 50.7,162.1 L 50.6,161.0 L 49.4,158.5 L 48.9,156.9 L 48.7,155.1 L 49.4,153.9 L 50.6,152.6 L 51.8,152.5 L 52.1,151.7 L 52.3,151.0 L 52.6,150.7 L 54.0,150.6 L 54.6,150.9 L 56.2,153.6 L 58.4,156.3 L 59.7,157.6 L 61.5,160.3 L 62.0,160.2 L 62.9,158.9 L 63.6,157.5 L 63.4,156.7 L 62.9,156.0 L 61.1,153.0 L 60.5,151.6 L 59.5,150.7 L 59.4,149.8 L 59.0,149.2 L 58.7,148.1 L 57.7,147.1 L 56.2,143.6 L 55.8,143.0 L 54.2,141.6 L 53.7,142.4 L 52.8,142.5 L 52.4,142.6 L 52.7,143.2 L 52.8,143.7 L 52.6,144.8 L 53.1,146.3 L 52.8,146.7 L 52.3,146.8 L 51.7,146.4 L 50.6,145.6 L 50.3,145.6 L 50.2,146.4 L 50.1,147.1 L 49.5,147.9 L 47.7,148.5 L 47.3,149.3 L 46.8,150.1 L 46.2,150.5 L 45.1,150.7 L 44.5,150.3 L 44.0,149.3 L 43.8,147.9 L 43.6,146.0 L 44.1,144.2 L 44.6,143.8 L 46.3,143.7 L 46.7,143.2 L 47.2,141.2 L 47.9,140.3 L 48.4,140.1 L 49.1,140.1 L 50.1,140.6 L 52.0,140.5 L 52.9,141.1 L 53.2,141.0 L 53.0,140.5 L 52.2,139.5 L 52.4,137.1 L 52.2,136.5 L 52.4,135.9 L 53.9,135.4 L 54.5,134.7 L 54.7,132.8 L 55.7,131.0 L 56.2,128.0 L 56.0,126.0 L 55.7,125.4 L 55.4,124.0 L 55.3,122.7 L 55.0,121.7 L 54.6,119.5 L 55.0,118.0 L 55.5,116.8 L 55.4,116.3 L 55.0,116.0 L 54.6,116.3 L 53.9,116.8 L 53.6,116.5 L 53.3,116.0 L 53.0,115.1 L 52.7,114.2 L 52.8,113.4 L 53.6,112.6 L 53.8,111.3 L 54.3,110.7 L 54.9,110.8 L 55.4,111.3 L 55.8,111.7 L 56.1,112.0 L 56.5,111.8 L 56.9,110.7 L 56.8,108.2 L 56.0,106.4 L 55.5,104.9 L 55.2,100.6 L 54.9,99.5 L 54.4,98.5 L 53.9,98.5 L 53.8,99.0 L 53.0,99.9 L 52.3,101.6 L 51.5,102.6 L 50.6,102.7 L 49.8,102.1 L 48.8,101.9 L 48.3,101.4 L 48.0,100.1 L 46.8,97.6 L 46.6,95.9 L 46.5,94.0 L 46.9,93.4 L 47.6,93.2 L 47.7,93.3 L 49.3,93.5 L 50.4,93.3 L 51.1,92.6 L 51.2,91.2 L 51.6,90.8 L 52.1,90.5 L 52.4,89.8 L 52.8,89.4 L 54.7,90.1 L 56.1,90.0 L 57.2,89.2 L 57.5,88.5 L 56.7,86.6 L 56.0,85.3 L 56.1,84.1 L 56.5,83.6 L 57.9,83.6 L 58.6,83.7 L 59.0,83.6 L 58.8,80.0 L 59.1,79.6 L 59.3,79.8 L 59.4,80.4 L 59.9,80.9 L 62.0,81.2 L 63.0,81.8 L 63.7,82.7 L 64.3,82.5 L 64.8,81.2 L 64.7,80.3 L 63.6,79.0 L 63.0,77.5 L 61.8,73.7 L 61.3,72.7 L 59.7,71.4 L 57.9,69.6 L 57.4,68.6 L 57.3,66.4 L 56.9,65.4 L 56.8,64.3 L 57.2,64.0 L 58.1,64.5 L 58.5,64.3 L 58.4,63.8 L 57.4,61.7 L 56.9,61.2 L 56.6,61.3 L 55.9,62.0 L 55.2,62.0 L 54.8,61.7 L 54.6,61.2 L 54.5,60.0 L 54.8,59.7 L 55.7,60.2 L 56.1,60.1 L 56.1,58.1 L 56.6,58.0 L 56.8,57.3 L 57.4,57.0 L 57.3,56.5 L 55.6,53.7 L 55.3,53.5 L 54.4,53.6 L 53.7,52.2 L 53.3,51.9 L 52.9,52.1 L 52.7,53.3 L 52.3,53.5 L 52.1,52.9 L 51.7,49.8 L 52.1,49.4 L 52.5,49.7 L 52.8,50.5 L 53.2,51.2 L 53.6,51.1 L 55.7,48.7 L 56.8,47.6 L 58.5,47.3 L 59.9,46.6 L 63.3,43.4 L 64.0,42.5 L 64.5,41.1 L 64.7,40.0 L 124.5,46.2 L 124.4,46.2 L 124.4,46.6 L 124.6,47.1 L 125.0,46.9 L 126.0,44.7 L 126.4,44.4 L 126.8,45.0 L 126.8,46.4 L 127.1,47.0 L 127.3,47.9 L 126.6,48.7 L 126.5,49.2 L 126.9,50.1 L 129.7,52.5 L 129.9,53.0 L 129.6,53.5 L 129.6,53.9 L 130.8,55.4 L 131.7,55.5 L 132.1,55.9 L 132.3,57.9 L 132.1,58.6 L 131.8,58.7 L 130.5,58.0 L 129.1,57.4 L 128.5,57.9 L 127.9,58.0 L 127.4,58.3 L 127.4,59.7 L 127.8,60.7 L 127.9,61.2 L 127.4,61.9 L 127.4,62.8 L 127.6,63.2 L 128.6,63.8 L 130.5,64.3 L 131.0,65.0 L 131.9,65.5 L 134.3,65.7 L 135.3,66.5 L 136.4,66.4 L 136.7,66.1 L 136.8,66.0 L 137.0,64.9 L 137.3,64.8 L 139.1,66.3 L 139.7,66.7 L 140.4,66.5 L 141.8,66.3 L 142.7,66.6 L 144.3,66.8 L 145.2,67.4 L 145.7,68.4 L 146.1,69.7 L 145.7,70.8 L 146.0,71.8 L 145.3,73.1 L 144.7,73.3 L 144.0,74.1 L 143.6,74.2 L 143.0,73.6 L 142.1,72.2 L 141.5,71.7 L 140.7,69.8 L 140.4,69.5 L 139.9,69.5 L 139.4,69.8 L 137.6,70.5 L 136.8,70.0 L 135.9,69.5 L 135.3,68.5 L 134.6,68.0 L 133.6,67.8 L 132.2,67.9 L 130.9,68.4 L 130.0,68.4 L 129.4,68.7 L 128.6,69.3 L 127.7,69.2 L 126.9,70.1 L 126.4,71.0 L 126.3,72.3 L 126.6,73.8 L 127.0,75.0 L 128.5,77.2 L 128.8,79.4 L 130.0,81.1 L 129.7,81.7 L 129.7,82.7 L 129.4,83.5 L 129.6,84.4 L 129.2,85.0 L 130.3,86.6 L 131.4,88.3 L 132.2,89.6 L 132.2,91.0 L 133.0,91.5 L 133.4,92.3 L 133.6,93.4 L 133.3,94.0 L 131.0,95.1 L 130.6,95.6 L 130.6,96.4 L 130.9,97.6 L 131.9,99.0 L 133.3,100.3 L 134.0,100.5 L 134.8,100.3 L 135.2,99.9 L 136.5,99.5 L 136.8,99.7 L 137.0,99.9 L 137.4,100.8 L 138.1,100.6 L 138.4,100.1 L 138.0,98.5 L 138.4,98.5 L 139.2,100.1 L 139.4,101.5 L 140.4,103.0 L 140.2,103.6 L 140.3,104.4 L 142.8,104.4 L 143.3,104.7 L 143.3,105.4 L 142.6,106.4 L 142.6,107.3 L 143.6,108.1 L 143.8,108.4 L 144.3,110.8 L 146.2,112.8 L 146.5,113.7 L 146.7,114.8 L 147.9,117.0 L 148.1,118.1 L 148.6,118.5 L 149.9,118.8 L 150.8,119.4 L 151.5,120.3 L 151.6,121.8 L 151.3,123.0 L 150.8,123.6 L 149.8,123.8 L 148.6,123.5 L 147.6,123.0 L 147.0,122.9 L 145.6,123.4 L 145.3,123.1 L 145.0,121.3 L 143.3,119.6 L 143.0,119.6 L 142.7,121.7 L 142.9,124.2 L 143.5,125.1 L 144.3,126.0 L 143.9,127.1 L 144.3,127.8 L 144.7,128.5 L 145.4,128.1 L 145.9,127.9 L 146.3,128.3 L 146.9,129.2 L 146.5,130.6 L 147.0,132.6 L 148.2,135.3 L 149.4,136.2 L 149.0,136.7 L 149.0,137.2 L 150.8,138.9 L 151.4,140.1 L 151.5,141.4 L 152.1,142.2 L 153.0,142.8 L 153.8,142.6 L 154.8,141.0 L 155.4,141.0 L 156.2,141.5 L 156.9,142.3 L 157.4,142.6 L 157.7,142.5 L 157.7,140.8 L 158.2,140.2 L 159.6,140.0 L 171.1,159.4 L 171.3,159.7 L 171.2,160.2 L 171.6,161.2 L 172.5,163.1 L 172.1,166.4 L 171.9,167.1 L 172.0,168.8 L 171.4,169.7 L 171.2,170.2 L 171.2,170.9 L 171.5,172.6 L 172.2,174.2 L 173.3,176.1 L 175.9,177.8 L 177.6,178.3 L 180.1,180.0 L 181.3,180.5 L 182.0,180.3 L 183.8,178.0 L 185.3,177.3 L 186.2,177.1 L 189.7,177.2 L 190.8,178.0 L 192.7,178.1 L 194.0,178.9 L 195.4,180.5 L 197.4,182.4 L 198.7,183.0 L 201.0,183.0 L 202.2,183.3 L 204.1,184.3 L 204.7,185.0 L 206.0,186.1 L 208.1,186.4 L 209.3,187.0 L 210.0,188.0 L 210.7,188.9 L 210.8,189.3 L 211.3,190.9 L 212.7,194.0 L 213.8,196.1 L 214.8,197.6 L 215.5,198.1 L 219.4,200.3 L 219.7,200.3 L 220.8,200.9 L 222.7,201.0 L 224.1,201.3 L 227.9,203.3 L 229.3,203.0 L 232.8,201.8 L 234.2,201.9 L 237.1,202.9 L 238.2,203.3 L 238.4,203.4 L 239.7,204.5 L 241.6,207.6 L 243.3,209.1 L 244.0,211.1 L 246.2,212.3 L 248.2,213.7 L 249.4,214.0 L 252.6,214.7 L 256.2,215.6 L 259.1,216.9 L 260.7,217.6 L 262.9,219.1 L 263.3,219.3 L 265.9,221.3 L 267.0,222.0 L 271.7,226.2 L 272.5,227.4 L 273.0,228.4 L 274.1,229.7 L 275.6,230.5 L 277.2,231.7 L 279.5,234.3 L 280.7,236.3 L 281.6,237.0 L 283.0,237.6 L 284.2,238.7 L 284.9,239.7 L 285.1,240.5 L 285.7,241.6 L 287.1,243.5 L 287.9,245.4 L 288.3,246.2 L 289.4,247.2 L 290.8,248.9 L 291.3,250.4 L 293.4,254.3 L 295.8,256.0 L 296.7,257.6 L 298.2,258.7 L 299.8,259.7 L 301.7,261.1 L 302.2,262.3 L 303.8,263.7 L 304.4,265.0 L 304.4,265.9 L 304.2,266.8 L 303.1,267.8 L 302.6,268.7 L 302.6,269.8 L 302.9,270.7 L 303.9,271.5 L 305.1,272.0 L 305.3,272.0 L 306.6,272.4 L 307.5,272.9 L 308.3,274.0 L 308.6,275.6 L 309.9,276.9 L 312.2,278.6 L 312.6,279.5 L 313.7,280.1 L 316.0,283.2 L 319.0,285.8 L 321.2,285.9 L 323.2,286.7 L 324.7,288.0 L 325.5,289.4 L 326.7,291.4 L 328.0,293.2 L 330.0,295.2 L 330.5,296.2 L 331.1,298.3 L 331.4,299.6 L 331.2,300.3 L 331.2,301.5 L 331.7,304.0 L 332.3,305.0 L 334.3,306.5 L 336.7,308.1 L 339.6,309.9 L 344.1,312.8 L 346.5,313.8 L 351.0,316.4 L 352.4,317.0 L 353.9,318.2 L 354.8,318.7 L 356.0,319.8 L 356.4,320.6 L 355.4,321.4 L 355.5,322.4 L 354.8,325.3 L 354.2,325.4 L 354.1,326.0 L 354.4,326.2 L 353.8,326.8 L 353.4,326.9 L 353.5,328.4 L 353.5,328.6 L 353.5,328.6 L 264.2,360.0 L 264.2,360.0 L 264.0,359.8 L 263.3,359.7 L 262.3,359.7 L 261.7,359.3 L 260.9,358.0 L 260.1,357.3 L 258.7,357.0 L 257.8,356.6 L 257.1,356.1 L 255.5,355.7 L 252.5,355.3 L 250.3,355.4 L 248.4,356.1 L 247.8,356.3 L 244.8,356.7 L 243.0,356.5 L 242.8,356.4 L 241.6,355.6 L 241.5,355.1 L 242.1,353.4 L 243.0,351.3 L 243.5,349.8 L 243.4,349.1 L 242.9,348.6 L 241.5,348.7 L 239.5,349.6 L 238.2,349.6 L 238.0,349.7 L 237.0,349.5 L 236.4,348.7 L 236.3,344.1 L 235.9,343.1 L 236.3,341.0 L 237.1,339.4 L 237.2,338.4 L 236.7,337.4 L 235.8,336.3 L 235.1,336.1 L 234.7,336.6 L 234.5,337.2 L 234.0,338.1 L 233.2,338.1 L 232.4,337.4 L 232.1,336.6 L 232.0,334.3 L 232.1,332.7 L 232.0,331.1 L 231.6,330.8 L 229.6,330.1 L 228.5,329.2 L 228.4,327.9 L 230.6,324.4 L 230.8,323.4 L 230.7,322.6 L 229.7,321.6 L 228.3,321.0 L 227.5,320.7 L 225.2,320.7 L 224.0,320.4 L 223.3,319.5 L 223.2,318.6 L 224.3,317.5 L 224.2,316.5 L 223.7,315.3 L 223.5,312.4 L 222.8,311.4 L 220.6,307.1 L 219.7,303.3 L 219.0,301.9 L 218.3,301.0 L 214.5,297.8 L 213.4,296.4 L 213.4,295.4 L 213.8,295.0 L 214.5,294.9 L 214.7,294.6 L 214.6,293.5 L 214.9,293.1 L 214.7,290.2 L 215.2,289.5 L 215.2,289.4 L 214.6,288.5 L 213.4,287.1 L 211.1,284.0 L 210.3,283.2 L 209.9,282.5 L 208.9,280.1 L 208.3,277.8 L 208.0,277.2 L 207.8,276.3 L 206.9,274.4 L 206.8,274.0 L 206.7,272.6 L 206.3,271.6 L 205.7,271.2 L 204.6,270.8 L 204.3,270.4 L 204.3,269.8 L 204.4,269.1 L 204.1,268.0 L 203.1,266.3 L 202.2,264.4 L 201.9,264.0 L 200.6,263.9 L 196.8,262.1 L 194.0,260.9 L 192.9,259.9 L 192.4,260.0 L 192.0,260.7 L 190.4,260.6 L 189.2,260.8 L 188.4,260.5 L 188.0,259.6 L 187.2,259.1 L 185.1,258.7 L 181.8,258.3 L 179.1,256.7 L 176.0,256.5 L 172.9,256.9 L 172.4,257.3 L 170.9,259.1 L 169.0,260.0 L 168.8,260.6 L 168.2,261.3 L 167.0,261.5 L 164.9,260.1 L 163.3,260.1 L 162.4,259.9 L 160.3,260.1 L 159.4,259.7 L 158.8,259.8 L 158.1,260.0 L 157.1,260.6 L 156.2,261.1 L 155.4,261.2 L 152.4,259.7 L 151.6,259.7 L 151.0,260.4 L 150.7,260.6 L 149.6,260.3 L 149.1,260.4 L 148.4,261.6 L 148.0,261.7 L 147.1,260.9 L 146.5,260.9 L 146.2,261.0 L 146.0,260.9 L 56.3,217.8" fill="none" stroke="black" stroke-width="2"/>
</svg>