<?xml version="1.0" encoding="UTF-8"?>
<svg width="400" height="400" viewBox="0 0 400 400" xmlns="http://www.w3.org/2000/svg">
  <rect width="400" height="400" fill="white"/>
  <path d="M 195.8,167.2 L 194.3,165.3 L 193.0,163.4 L 192.7,162.5 L 192.8,161.6 L 193.8,160.4 L 195.9,159.2 L 198.4,157.6 L 200.6,156.5 L 203.0,155.8 L 204.0,156.3 L 205.2,158.5 L 208.0,162.9 L 212.3,169.7 L 213.1,169.1 L 210.1,164.1 L 207.5,159.9 L 206.3,157.7 L 205.1,155.5 L 203.8,154.6 L 202.3,154.4 L 201.4,154.6 L 199.1,155.8 L 196.8,156.5 L 194.6,157.8 L 192.9,158.8 L 191.3,159.4 L 189.6,157.1 L 188.1,155.3 L 186.8,153.1 L 186.5,152.5 L 187.0,151.9 L 189.2,151.0 L 190.9,149.0 L 192.6,147.3 L 192.7,146.7 L 192.5,145.4 L 192.9,143.6 L 196.3,140.5 L 207.8,131.0 L 221.5,122.8 L 228.0,120.5 L 234.2,117.7 L 234.1,115.5 L 236.0,112.9 L 239.0,112.3 L 243.3,112.1 L 245.5,109.8 L 248.0,109.7 L 250.0,110.4 L 256.7,107.7 L 259.8,106.8 L 262.5,106.7 L 267.2,104.8 L 272.6,103.3 L 276.1,103.0 L 278.7,100.8 L 284.4,100.6 L 286.9,99.2 L 290.6,99.4 L 294.4,99.5 L 297.0,99.9 L 300.5,99.5 L 302.9,97.2 L 314.2,94.8 L 316.9,94.7 L 320.7,96.0 L 323.0,95.7 L 327.1,93.3 L 332.7,92.4 L 337.2,92.7 L 340.5,94.3 L 349.3,102.4 L 351.1,102.1 L 351.2,102.8 L 352.9,109.8 L 355.9,117.7 L 358.4,124.2 L 358.8,126.9 L 360.0,133.4 L 359.8,134.4 L 357.7,137.2 L 354.5,140.2 L 343.8,144.1 L 342.3,145.1 L 341.6,145.4 L 337.5,149.0 L 335.2,150.4 L 335.0,151.1 L 326.1,155.9 L 323.6,157.4 L 316.5,160.4 L 313.5,162.5 L 299.5,178.1 L 289.3,183.5 L 279.2,187.3 L 275.0,191.5 L 266.2,196.6 L 261.5,198.8 L 254.7,201.3 L 246.3,202.3 L 240.0,204.3 L 237.5,205.7 L 234.8,206.3 L 232.6,208.1 L 218.8,229.2 L 215.0,235.9 L 210.2,242.8 L 205.9,247.0 L 201.6,250.0 L 197.3,254.4 L 194.1,256.0 L 189.7,259.7 L 184.7,262.9 L 178.4,267.7 L 166.9,275.6 L 150.2,286.3 L 141.5,291.4 L 131.5,298.0 L 126.0,300.9 L 120.8,302.9 L 118.3,304.3 L 114.4,305.7 L 105.8,306.0 L 103.3,306.8 L 102.7,307.6 L 40.0,210.9 L 41.4,211.4 L 46.9,212.0 L 48.4,211.1 L 50.3,208.3 L 50.8,208.3 L 53.5,208.7 L 56.4,206.9 L 57.3,207.3 L 59.8,206.7 L 61.6,207.9 L 63.3,206.8 L 65.0,206.3 L 65.8,205.7 L 66.5,204.5 L 68.2,202.1 L 69.4,201.9 L 70.9,202.8 L 80.0,201.7 L 81.5,202.2 L 83.1,205.1 L 84.1,205.1 L 85.5,202.3 L 87.7,201.5 L 87.7,201.5 L 90.2,201.6 L 92.0,202.3 L 95.7,197.7 L 99.6,195.3 L 101.6,193.5 L 103.3,192.5 L 104.8,192.5 L 106.6,193.8 L 109.1,192.8 L 110.3,193.0 L 112.0,194.8 L 115.0,194.2 L 117.0,195.2 L 119.9,199.8 L 124.5,203.7 L 125.5,201.6 L 127.2,199.8 L 129.4,199.7 L 130.5,198.4 L 130.2,192.3 L 132.2,190.3 L 136.1,187.6 L 135.8,185.9 L 134.4,182.7 L 134.3,178.9 L 135.7,176.9 L 137.7,177.8 L 139.3,179.0 L 143.3,178.1 L 146.7,175.7 L 148.4,173.7 L 150.4,171.3 L 155.1,170.4 L 157.0,167.3 L 158.2,167.0 L 159.5,167.4 L 160.3,167.3 L 162.7,167.1 L 163.6,166.7 L 169.1,164.3 L 170.6,163.6 L 176.9,160.8 L 180.0,157.5 L 183.7,155.3 L 184.6,156.5 L 186.5,158.3 L 188.3,159.9 L 189.7,161.8 L 190.4,163.8 L 190.7,164.8 L 190.7,167.5 L 190.7,169.5 L 190.8,171.9 L 191.0,174.6 L 191.2,175.8 L 192.6,178.9 L 193.2,180.1 L 194.8,183.4 L 195.6,182.7 L 193.8,179.3 L 195.4,178.7 L 194.8,177.2 L 193.3,177.6 L 192.6,175.6 L 192.2,173.3 L 192.1,170.8 L 192.2,169.2 L 193.5,169.2 L 193.7,169.5 L 194.2,169.2 L 195.0,170.6 L 194.0,171.2 L 195.9,173.8 L 198.3,172.2 L 197.5,171.0 L 199.3,170.0 L 198.2,168.6 L 197.1,169.4 L 195.8,167.2" fill="none" stroke="black" stroke-width="2"/>
</svg>