<?xml version="1.0" encoding="UTF-8"?>
<svg width="400" height="400" viewBox="0 0 400 400" xmlns="http://www.w3.org/2000/svg">
  <rect width="400" height="400" fill="white"/>
  <path d="M 161.5,264.0 L 161.8,263.9 L 162.2,263.6 L 162.4,263.0 L 162.3,262.4 L 162.0,261.9 L 161.4,261.3 L 161.0,260.4 L 160.7,259.4 L 160.5,257.2 L 160.2,255.8 L 159.8,254.4 L 159.4,253.3 L 159.2,252.7 L 158.8,251.7 L 158.5,250.5 L 158.0,249.8 L 157.9,249.7 L 156.9,248.9 L 155.4,248.2 L 153.3,247.4 L 152.7,247.0 L 151.9,246.3 L 151.6,245.6 L 151.5,244.3 L 151.2,244.0 L 150.7,243.9 L 150.1,243.9 L 148.6,244.1 L 148.0,244.0 L 147.4,243.7 L 146.8,243.2 L 146.3,242.4 L 146.3,242.3 L 146.0,241.6 L 145.5,239.7 L 145.3,238.4 L 145.4,234.4 L 145.4,232.9 L 145.5,232.1 L 145.8,231.3 L 147.1,229.3 L 147.2,229.0 L 147.5,228.1 L 147.6,227.5 L 147.6,227.0 L 147.2,226.5 L 146.8,226.1 L 146.7,225.7 L 146.7,225.3 L 147.0,224.5 L 147.1,224.1 L 146.6,223.2 L 146.0,222.5 L 145.6,222.5 L 144.9,222.5 L 144.8,222.4 L 144.4,221.6 L 144.3,221.1 L 144.2,220.0 L 144.4,218.9 L 144.5,218.0 L 144.4,217.0 L 144.1,216.5 L 143.6,216.1 L 143.4,215.5 L 143.2,215.0 L 142.9,214.7 L 142.3,214.6 L 142.0,214.3 L 141.9,214.0 L 141.5,212.4 L 141.3,211.8 L 140.9,211.0 L 140.7,210.6 L 140.2,210.5 L 138.9,210.6 L 138.0,210.1 L 137.1,209.4 L 136.3,208.2 L 135.8,207.3 L 135.3,206.8 L 133.9,205.9 L 133.5,205.5 L 132.7,204.5 L 132.1,203.6 L 131.4,202.7 L 130.0,201.7 L 128.1,200.0 L 127.2,199.1 L 125.3,196.5 L 124.7,195.8 L 124.1,195.5 L 123.6,195.3 L 121.0,193.0 L 119.8,191.8 L 117.7,190.2 L 117.3,190.1 L 116.3,190.5 L 115.1,191.4 L 114.2,192.1 L 112.7,193.1 L 111.5,193.7 L 110.1,193.8 L 109.2,193.8 L 108.7,193.9 L 108.2,194.2 L 107.8,194.7 L 107.7,194.9 L 108.0,196.2 L 108.1,197.2 L 108.0,197.9 L 107.3,199.1 L 107.1,199.2 L 41.3,201.5 L 41.3,201.1 L 41.4,201.0 L 41.5,200.2 L 41.6,199.9 L 41.7,199.2 L 42.4,198.1 L 42.4,197.6 L 42.3,197.4 L 41.1,197.4 L 40.6,197.0 L 40.2,196.9 L 40.0,197.0 L 40.1,196.9 L 101.3,84.1 L 102.2,84.0 L 102.7,84.1 L 103.1,84.3 L 103.5,84.8 L 104.0,85.2 L 104.7,85.6 L 105.2,85.9 L 106.1,85.7 L 106.9,85.4 L 107.4,85.0 L 108.9,83.5 L 109.1,83.3 L 110.5,82.1 L 111.3,81.7 L 112.8,81.1 L 114.1,80.9 L 114.8,80.9 L 115.7,81.1 L 117.0,81.8 L 117.3,82.0 L 118.1,82.6 L 118.2,82.6 L 118.9,83.3 L 119.0,83.3 L 119.2,83.5 L 119.8,83.3 L 119.9,83.3 L 120.2,83.1 L 120.9,82.5 L 121.6,82.2 L 122.9,81.8 L 125.2,81.0 L 126.4,80.9 L 127.4,81.3 L 128.7,82.1 L 129.2,82.3 L 130.1,82.4 L 130.7,82.6 L 132.3,83.1 L 132.5,83.3 L 133.2,83.7 L 134.5,84.3 L 137.2,84.9 L 139.0,84.9 L 139.9,85.0 L 141.6,85.1 L 142.1,85.0 L 143.3,85.2 L 146.4,86.0 L 147.2,86.3 L 149.9,86.9 L 152.0,87.3 L 153.7,87.8 L 156.3,88.6 L 157.7,89.3 L 159.5,90.5 L 161.0,91.4 L 161.2,91.4 L 162.3,92.1 L 163.5,93.3 L 164.2,94.0 L 166.0,95.5 L 166.6,96.1 L 166.9,96.4 L 167.6,97.4 L 168.6,98.4 L 170.8,101.3 L 171.3,101.7 L 172.5,102.8 L 173.7,103.3 L 173.9,103.6 L 174.0,103.9 L 174.3,104.2 L 174.6,104.1 L 174.9,103.8 L 175.6,103.8 L 176.6,104.0 L 178.3,104.8 L 179.3,104.8 L 179.8,104.9 L 180.2,105.2 L 180.5,105.4 L 181.1,105.4 L 181.5,105.5 L 182.5,106.3 L 182.7,106.4 L 183.6,107.0 L 184.0,107.3 L 185.6,107.8 L 188.1,108.9 L 189.1,109.5 L 189.7,110.2 L 190.3,111.1 L 190.7,112.0 L 192.3,114.3 L 193.1,116.0 L 193.8,117.1 L 194.6,118.1 L 194.6,118.2 L 195.3,119.7 L 195.6,120.7 L 195.8,120.9 L 196.1,120.9 L 196.7,120.6 L 197.1,120.6 L 197.2,120.7 L 197.0,121.6 L 197.8,122.3 L 198.0,122.5 L 199.1,122.5 L 200.7,122.4 L 202.0,122.2 L 204.4,121.8 L 206.1,121.5 L 207.1,121.5 L 208.9,121.7 L 210.4,122.0 L 211.4,122.2 L 214.6,123.1 L 215.9,123.0 L 217.0,123.0 L 217.8,123.1 L 218.6,123.3 L 219.5,123.7 L 220.9,124.3 L 222.0,124.5 L 223.4,124.3 L 225.3,123.8 L 226.2,123.8 L 226.9,124.0 L 227.4,124.2 L 227.8,124.4 L 228.1,124.5 L 230.5,126.1 L 231.5,126.5 L 231.7,126.5 L 231.8,126.6 L 232.9,126.8 L 234.9,126.7 L 236.3,126.5 L 238.5,126.6 L 240.5,126.5 L 241.5,126.6 L 243.5,126.6 L 245.6,127.0 L 247.2,127.5 L 249.7,128.7 L 251.3,129.8 L 254.2,131.4 L 257.9,132.8 L 258.8,133.3 L 259.9,133.6 L 261.2,134.3 L 261.7,134.6 L 262.6,134.8 L 262.6,134.9 L 265.4,135.6 L 266.2,135.8 L 267.0,136.0 L 268.8,136.2 L 271.0,136.3 L 271.7,136.2 L 273.8,136.4 L 276.2,136.3 L 278.3,136.2 L 279.5,136.3 L 281.3,136.5 L 282.5,136.8 L 284.7,137.7 L 285.4,138.1 L 286.3,138.6 L 288.7,139.6 L 291.3,140.6 L 291.9,140.9 L 292.8,141.3 L 293.6,141.5 L 294.9,141.3 L 295.8,141.1 L 297.0,140.6 L 297.9,139.9 L 298.7,139.2 L 299.5,138.3 L 300.2,137.3 L 300.9,136.8 L 302.8,135.7 L 304.3,134.6 L 304.6,134.1 L 305.0,132.5 L 305.3,131.9 L 305.4,131.9 L 306.7,130.1 L 308.8,127.4 L 309.4,126.4 L 311.2,124.1 L 312.0,123.4 L 313.7,122.4 L 313.8,122.3 L 314.5,122.0 L 315.7,121.8 L 316.4,121.7 L 316.5,121.8 L 317.2,121.8 L 322.3,121.5 L 323.3,121.5 L 325.6,121.3 L 326.6,121.1 L 330.5,120.7 L 331.2,120.6 L 332.0,120.6 L 334.2,120.1 L 335.1,120.0 L 335.4,120.1 L 337.1,120.6 L 337.9,121.0 L 339.5,122.0 L 341.8,123.1 L 342.8,123.7 L 344.8,125.1 L 346.6,126.2 L 348.4,126.8 L 352.8,128.6 L 353.5,128.9 L 354.5,129.4 L 355.4,129.6 L 356.5,130.2 L 357.4,130.5 L 359.3,130.9 L 360.0,130.9 L 328.0,317.4 L 328.0,317.4 L 327.3,317.2 L 323.8,315.3 L 322.6,314.3 L 321.7,313.3 L 320.7,312.6 L 320.1,312.0 L 319.6,311.0 L 319.1,310.5 L 317.4,309.7 L 316.0,308.9 L 315.2,308.5 L 314.3,308.4 L 313.4,308.4 L 311.1,308.5 L 310.0,308.8 L 309.3,309.1 L 308.3,309.6 L 305.4,310.8 L 304.7,311.1 L 303.4,311.6 L 302.3,311.8 L 300.5,311.8 L 299.6,311.5 L 299.0,311.2 L 297.9,310.3 L 296.8,308.8 L 296.2,307.8 L 295.1,305.5 L 294.9,304.7 L 294.4,302.4 L 293.8,301.5 L 293.4,300.7 L 292.5,298.8 L 291.5,297.4 L 290.6,296.2 L 290.3,295.7 L 290.3,294.8 L 290.8,293.9 L 290.7,293.6 L 290.4,293.4 L 289.7,293.5 L 288.9,293.9 L 288.5,294.5 L 288.6,295.2 L 289.6,296.9 L 289.6,297.9 L 289.6,299.0 L 289.4,300.2 L 289.2,301.0 L 289.0,301.6 L 288.5,302.3 L 287.7,303.4 L 286.7,304.5 L 286.0,305.3 L 285.4,306.1 L 285.1,306.5 L 283.7,308.0 L 280.9,310.8 L 278.9,312.5 L 276.5,314.8 L 275.4,315.7 L 273.6,316.8 L 272.1,317.7 L 271.1,318.2 L 270.4,318.4 L 268.5,319.0 L 267.1,319.1 L 265.7,318.8 L 262.9,318.1 L 259.9,317.1 L 259.2,317.0 L 258.9,317.0 L 258.6,317.2 L 258.2,316.9 L 256.6,316.1 L 255.6,315.5 L 255.2,315.1 L 254.0,313.1 L 253.5,312.4 L 253.1,311.6 L 252.3,309.6 L 251.6,308.2 L 251.3,307.8 L 250.9,307.3 L 250.2,306.5 L 249.3,305.6 L 247.5,304.8 L 246.9,304.5 L 246.4,304.1 L 245.9,303.4 L 245.4,303.2 L 245.1,303.1 L 244.7,303.3 L 244.3,303.9 L 244.1,304.9 L 243.8,305.7 L 243.7,305.9 L 161.5,264.0" fill="none" stroke="black" stroke-width="2"/>
</svg>