<?xml version="1.0" encoding="UTF-8"?>
<svg width="400" height="400" viewBox="0 0 400 400" xmlns="http://www.w3.org/2000/svg">
  <rect width="400" height="400" fill="white"/>
  <path d="M 162.5,225.8 L 162.5,225.3 L 163.1,222.9 L 162.8,220.3 L 163.3,218.5 L 163.4,217.0 L 163.5,213.6 L 163.0,208.6 L 163.2,207.3 L 162.5,203.8 L 162.3,201.7 L 162.9,198.2 L 164.7,194.1 L 164.9,193.0 L 164.9,192.3 L 164.6,191.5 L 164.7,190.5 L 164.2,189.4 L 164.1,188.1 L 164.2,187.2 L 163.9,186.8 L 163.5,185.0 L 163.1,184.1 L 161.0,178.8 L 160.5,178.1 L 159.3,177.0 L 157.5,175.9 L 157.1,174.8 L 156.5,173.6 L 155.6,172.2 L 155.0,171.0 L 154.6,169.5 L 153.6,167.9 L 153.4,166.2 L 153.0,165.9 L 152.6,165.8 L 149.5,165.9 L 148.4,165.9 L 147.2,165.8 L 146.0,165.3 L 145.2,164.4 L 144.3,162.6 L 143.4,161.0 L 142.6,160.0 L 138.7,157.6 L 137.8,156.7 L 136.7,155.5 L 136.4,154.5 L 136.3,153.2 L 135.8,150.1 L 135.4,148.5 L 134.8,147.3 L 133.4,143.3 L 133.0,142.8 L 131.4,142.0 L 130.1,141.4 L 129.1,140.7 L 126.9,140.0 L 126.6,139.8 L 125.9,139.3 L 125.4,138.5 L 125.0,137.6 L 124.0,134.4 L 123.0,130.4 L 122.1,128.3 L 121.2,127.3 L 119.6,126.3 L 119.1,125.7 L 118.6,124.8 L 118.0,123.3 L 117.5,121.5 L 117.4,120.3 L 117.0,118.9 L 116.0,115.1 L 115.6,114.0 L 114.8,113.1 L 113.3,112.4 L 112.6,111.8 L 110.8,108.5 L 108.5,106.0 L 107.6,105.1 L 106.4,104.4 L 105.5,104.2 L 104.6,103.9 L 181.3,40.0 L 181.3,40.0 L 181.7,42.5 L 182.4,45.7 L 182.9,47.9 L 184.1,53.6 L 184.1,53.8 L 184.4,55.1 L 186.0,58.7 L 186.7,60.1 L 188.7,63.1 L 190.3,65.0 L 191.2,66.3 L 192.2,68.5 L 192.6,69.2 L 192.8,69.5 L 192.8,69.5 L 192.8,69.6 L 193.1,70.7 L 193.5,72.8 L 194.2,74.5 L 194.8,75.7 L 195.8,78.4 L 197.9,81.4 L 198.8,82.4 L 199.4,83.1 L 199.9,84.2 L 200.8,85.5 L 201.5,86.9 L 203.6,90.5 L 204.9,92.7 L 205.1,93.7 L 205.2,94.0 L 205.5,95.1 L 205.8,95.8 L 206.3,96.3 L 207.5,97.0 L 208.2,97.6 L 208.8,97.9 L 210.5,99.2 L 212.0,100.5 L 212.7,101.3 L 214.4,104.0 L 216.3,107.6 L 217.6,109.8 L 218.4,111.0 L 219.6,113.3 L 220.3,115.0 L 220.9,116.8 L 220.8,117.0 L 221.0,117.9 L 221.6,119.1 L 222.3,120.4 L 223.0,122.0 L 224.0,123.5 L 225.1,124.8 L 226.3,126.9 L 227.4,129.1 L 231.5,136.9 L 232.8,139.8 L 233.3,141.0 L 234.3,144.3 L 234.4,144.4 L 234.8,145.1 L 235.4,146.8 L 236.0,149.7 L 236.2,151.9 L 236.2,152.8 L 236.1,153.0 L 236.2,153.9 L 236.5,154.4 L 238.1,155.4 L 238.5,156.1 L 238.6,157.4 L 238.4,158.9 L 238.5,160.2 L 238.4,160.4 L 239.2,163.2 L 239.4,165.0 L 239.9,166.5 L 240.2,167.1 L 240.4,168.1 L 240.6,170.4 L 239.3,172.6 L 237.0,177.6 L 236.7,178.5 L 236.5,180.2 L 236.4,180.4 L 236.5,183.6 L 236.2,185.8 L 236.8,191.0 L 237.1,192.4 L 237.0,194.0 L 236.5,195.7 L 236.3,196.2 L 236.2,198.0 L 236.5,198.9 L 238.6,200.4 L 240.0,201.5 L 242.8,205.6 L 244.1,209.4 L 246.0,211.9 L 246.9,213.4 L 247.1,215.5 L 247.7,216.4 L 250.5,219.7 L 252.1,221.0 L 252.7,221.9 L 254.4,223.7 L 255.8,225.0 L 256.5,225.8 L 256.7,226.0 L 258.8,229.2 L 259.7,231.2 L 260.6,234.9 L 261.2,236.0 L 262.8,238.0 L 264.0,239.2 L 265.7,241.2 L 266.4,242.4 L 266.9,242.9 L 267.8,245.3 L 268.1,249.5 L 268.4,251.1 L 268.7,251.7 L 269.3,252.3 L 271.4,254.1 L 272.4,255.7 L 273.5,256.8 L 274.2,257.9 L 275.0,258.8 L 275.6,259.9 L 276.3,261.6 L 278.1,264.9 L 282.9,271.9 L 285.0,274.1 L 285.8,275.2 L 289.8,279.8 L 292.3,282.1 L 294.2,283.2 L 294.4,283.2 L 294.9,283.5 L 295.4,283.7 L 233.0,348.8 L 232.9,348.9 L 232.7,348.6 L 231.6,348.1 L 231.3,348.0 L 228.0,346.8 L 226.2,346.4 L 223.4,346.8 L 218.9,348.1 L 216.1,349.9 L 212.6,352.4 L 211.2,353.1 L 207.0,354.6 L 205.9,355.2 L 203.8,356.1 L 201.5,356.6 L 200.2,357.0 L 198.8,357.8 L 198.1,358.4 L 197.0,359.0 L 196.4,359.4 L 195.5,359.9 L 195.1,360.0 L 195.0,359.9 L 190.7,346.0 L 191.5,345.7 L 191.8,345.5 L 194.1,344.3 L 194.7,344.1 L 196.5,344.4 L 197.2,344.1 L 197.6,343.6 L 198.2,340.9 L 198.1,340.4 L 197.6,339.8 L 197.5,339.2 L 197.1,338.4 L 196.4,336.3 L 195.4,335.1 L 194.4,334.4 L 193.6,333.6 L 193.4,332.9 L 193.3,332.0 L 193.5,331.4 L 194.1,330.6 L 194.0,330.3 L 193.0,329.9 L 192.0,329.0 L 191.2,328.9 L 190.3,329.0 L 189.2,328.8 L 187.3,328.4 L 185.1,327.1 L 184.2,326.9 L 183.1,327.0 L 182.3,327.4 L 180.5,328.8 L 179.4,329.2 L 177.2,329.4 L 176.2,329.1 L 175.6,329.2 L 174.4,330.1 L 173.8,330.2 L 173.1,330.2 L 171.4,328.7 L 170.3,328.8 L 169.9,329.1 L 169.9,329.3 L 168.4,324.4 L 169.0,324.1 L 170.1,323.8 L 171.2,323.8 L 172.5,323.9 L 173.0,323.9 L 173.2,323.6 L 173.8,322.2 L 174.6,321.2 L 175.7,320.8 L 176.8,320.6 L 177.9,321.4 L 178.6,321.3 L 179.4,320.3 L 179.2,320.0 L 178.6,319.7 L 178.5,318.9 L 178.8,318.4 L 181.0,318.2 L 181.7,318.6 L 182.3,318.6 L 182.7,318.0 L 183.1,317.6 L 182.8,316.9 L 183.0,316.3 L 182.7,315.6 L 182.8,315.2 L 183.0,314.8 L 182.2,314.0 L 181.9,313.3 L 181.9,312.5 L 181.3,311.8 L 180.7,311.2 L 179.9,310.9 L 179.3,310.2 L 178.6,309.8 L 178.4,308.5 L 177.5,307.4 L 177.1,306.4 L 176.0,305.4 L 174.3,304.8 L 172.2,305.8 L 171.8,306.2 L 171.9,306.9 L 171.6,307.1 L 170.9,306.9 L 170.3,306.9 L 169.0,307.8 L 167.6,308.0 L 166.6,308.4 L 165.2,309.2 L 163.9,309.7 L 162.8,310.3 L 162.7,310.2 L 144.8,275.8 L 145.2,275.5 L 145.9,274.8 L 148.4,270.2 L 148.8,269.4 L 149.6,267.8 L 151.2,265.3 L 152.3,263.4 L 153.0,261.9 L 153.8,259.8 L 154.1,258.8 L 154.2,255.8 L 154.5,254.2 L 155.4,252.0 L 157.3,249.4 L 158.2,248.1 L 158.4,247.2 L 158.4,246.5 L 158.9,245.6 L 159.2,244.0 L 159.9,242.6 L 160.2,241.1 L 160.8,239.4 L 161.9,237.4 L 162.5,236.5 L 162.8,235.3 L 162.7,233.1 L 162.3,227.8" fill="none" stroke="black" stroke-width="2"/>
</svg>