<?xml version="1.0" encoding="UTF-8"?>
<svg width="400" height="400" viewBox="0 0 400 400" xmlns="http://www.w3.org/2000/svg">
  <rect width="400" height="400" fill="white"/>
  <path d="M 155.0,194.9 L 155.0,194.9 L 155.5,193.9 L 155.4,192.6 L 155.5,191.6 L 155.6,191.2 L 156.2,190.5 L 156.1,189.3 L 156.7,187.5 L 156.7,186.8 L 156.8,186.4 L 157.3,185.5 L 157.4,184.9 L 157.2,184.2 L 157.0,183.1 L 157.3,182.2 L 157.2,181.4 L 156.8,179.3 L 156.9,179.0 L 157.3,178.8 L 158.3,178.7 L 158.6,178.5 L 158.6,178.3 L 158.4,178.1 L 157.8,177.6 L 157.1,177.1 L 156.6,176.3 L 156.0,175.3 L 155.9,174.6 L 156.0,174.2 L 156.3,173.9 L 157.3,173.6 L 157.6,173.3 L 157.6,173.1 L 157.3,172.7 L 156.6,172.0 L 155.6,170.6 L 155.1,170.1 L 154.7,169.9 L 153.4,169.2 L 152.4,169.3 L 152.2,169.2 L 151.9,169.2 L 151.5,169.4 L 151.2,169.5 L 151.1,169.4 L 150.6,168.8 L 150.5,168.4 L 150.9,167.7 L 150.9,166.4 L 150.7,165.9 L 150.4,165.1 L 148.7,163.7 L 148.0,162.9 L 147.8,162.3 L 147.5,161.9 L 146.4,160.8 L 146.3,159.8 L 146.0,159.1 L 145.2,158.6 L 144.5,158.5 L 143.4,158.1 L 143.2,158.0 L 142.9,157.7 L 142.2,156.6 L 141.7,155.6 L 141.4,154.8 L 141.0,152.7 L 140.6,151.0 L 140.6,148.6 L 140.7,148.3 L 141.0,147.5 L 141.9,146.5 L 142.3,146.0 L 142.7,145.1 L 142.7,144.5 L 142.6,144.3 L 142.4,144.3 L 142.3,144.7 L 142.2,145.2 L 142.2,145.3 L 142.0,145.3 L 141.7,145.2 L 141.8,144.6 L 141.5,144.5 L 141.4,144.2 L 141.3,143.9 L 141.6,143.6 L 141.6,143.4 L 140.9,142.6 L 140.5,141.8 L 139.9,141.3 L 139.8,140.9 L 139.7,140.6 L 139.6,139.4 L 139.6,138.5 L 139.3,138.3 L 139.5,137.7 L 139.9,137.3 L 140.3,136.6 L 141.1,136.0 L 141.5,135.9 L 141.8,135.7 L 142.5,135.8 L 144.8,136.9 L 145.3,137.0 L 146.4,136.9 L 147.6,136.8 L 148.7,136.8 L 150.1,137.1 L 150.8,137.5 L 151.3,137.4 L 152.0,137.1 L 152.8,136.9 L 153.6,136.9 L 154.1,136.7 L 154.7,136.9 L 155.7,137.3 L 156.9,137.6 L 157.6,137.5 L 158.2,137.4 L 158.9,137.3 L 160.1,137.3 L 160.9,136.7 L 162.5,136.2 L 163.1,135.8 L 164.0,135.2 L 164.1,135.2 L 165.9,134.3 L 167.1,134.0 L 167.8,133.3 L 168.3,133.2 L 168.6,132.9 L 169.3,132.7 L 170.4,131.9 L 171.4,131.4 L 172.9,130.4 L 174.0,129.9 L 175.7,128.8 L 176.8,128.4 L 177.5,127.8 L 178.2,127.4 L 178.6,126.8 L 179.3,126.3 L 181.5,125.0 L 182.8,123.9 L 184.3,123.1 L 185.8,122.5 L 187.6,121.9 L 188.6,121.6 L 188.7,121.5 L 189.3,121.2 L 191.3,120.3 L 192.8,120.1 L 194.6,119.3 L 196.2,118.8 L 197.7,118.5 L 199.9,117.8 L 201.9,117.3 L 204.3,116.9 L 205.9,116.5 L 208.1,116.3 L 208.9,116.1 L 209.5,115.9 L 210.4,115.5 L 211.3,115.4 L 212.1,115.4 L 212.8,115.4 L 213.7,114.9 L 214.9,114.9 L 215.8,114.7 L 217.5,114.4 L 218.8,114.4 L 219.7,114.5 L 220.4,114.7 L 220.8,114.7 L 221.6,114.1 L 222.4,114.0 L 223.1,113.4 L 223.8,113.2 L 224.2,112.9 L 224.5,112.3 L 224.7,112.0 L 225.0,111.8 L 226.4,111.4 L 227.2,110.7 L 227.9,110.1 L 229.2,109.5 L 230.1,109.2 L 230.2,109.1 L 231.0,108.8 L 231.3,108.6 L 231.8,108.4 L 232.5,108.4 L 232.9,108.5 L 233.7,108.8 L 234.3,109.1 L 235.7,110.3 L 236.3,110.3 L 236.1,109.7 L 235.6,109.1 L 235.4,108.7 L 235.4,108.5 L 235.6,108.3 L 235.9,108.4 L 236.2,108.5 L 236.7,108.5 L 237.1,108.8 L 237.7,109.1 L 238.2,109.1 L 238.5,108.9 L 238.8,108.3 L 239.2,108.0 L 239.5,107.9 L 240.0,107.5 L 240.2,107.0 L 240.6,106.6 L 240.8,105.9 L 241.1,105.1 L 241.2,104.3 L 241.3,104.0 L 241.6,103.7 L 242.0,103.6 L 243.0,103.7 L 243.0,103.7 L 243.2,103.6 L 243.6,101.5 L 243.9,99.2 L 244.3,98.4 L 245.4,97.4 L 245.9,96.7 L 246.9,95.7 L 246.7,95.5 L 246.3,95.4 L 246.1,95.2 L 246.2,95.0 L 246.4,94.8 L 246.9,95.0 L 247.5,94.5 L 247.5,93.9 L 247.7,93.2 L 248.4,91.8 L 248.6,90.9 L 248.5,90.5 L 248.4,89.9 L 248.8,89.3 L 250.0,88.0 L 250.8,87.4 L 251.2,86.9 L 251.7,86.4 L 251.9,86.3 L 252.4,85.9 L 252.9,85.7 L 253.2,85.5 L 253.4,85.5 L 253.6,85.1 L 253.9,84.7 L 254.3,84.2 L 255.5,83.5 L 256.8,82.8 L 257.3,82.5 L 258.0,82.1 L 261.6,79.9 L 263.2,79.0 L 263.7,78.5 L 264.3,78.2 L 265.5,77.9 L 266.2,77.6 L 266.5,77.2 L 266.9,76.7 L 267.4,76.2 L 268.4,75.8 L 269.5,75.1 L 270.7,73.7 L 271.3,73.3 L 271.8,73.2 L 272.8,73.1 L 273.3,73.0 L 275.1,74.0 L 275.3,74.0 L 275.4,73.8 L 275.3,73.5 L 274.8,73.1 L 274.2,72.5 L 273.8,72.0 L 273.6,71.3 L 273.5,70.6 L 273.6,70.0 L 273.5,69.7 L 273.4,69.3 L 273.1,68.9 L 273.0,68.6 L 273.1,68.3 L 272.4,67.5 L 272.3,67.0 L 272.6,65.9 L 272.5,65.3 L 272.3,64.8 L 272.1,64.5 L 271.5,63.4 L 271.7,61.9 L 271.8,60.8 L 271.9,60.6 L 272.4,58.3 L 272.5,56.5 L 272.6,53.7 L 272.7,53.5 L 272.7,52.6 L 273.3,50.4 L 273.6,48.7 L 273.4,47.3 L 273.4,47.0 L 273.1,45.7 L 273.1,44.7 L 273.4,41.8 L 273.6,40.0 L 318.2,46.3 L 318.1,48.1 L 318.0,48.9 L 317.9,49.6 L 317.7,50.9 L 317.6,51.8 L 317.3,53.9 L 317.2,54.7 L 316.9,56.4 L 316.6,57.8 L 316.3,61.2 L 316.0,62.5 L 315.2,64.3 L 314.9,65.7 L 314.7,66.4 L 314.2,67.8 L 313.5,69.9 L 313.3,70.8 L 312.3,74.5 L 310.5,77.4 L 309.1,79.7 L 308.7,80.6 L 308.1,81.6 L 307.6,82.1 L 307.3,82.2 L 306.1,83.0 L 304.8,83.5 L 304.0,83.7 L 302.0,83.9 L 301.8,84.0 L 301.2,84.3 L 300.6,84.4 L 299.7,84.2 L 298.7,83.8 L 298.3,83.8 L 297.9,84.4 L 297.3,85.3 L 297.2,85.4 L 296.6,86.2 L 296.4,86.3 L 295.6,86.9 L 295.0,87.6 L 294.5,88.5 L 294.2,90.0 L 294.0,90.7 L 294.0,90.8 L 293.4,92.7 L 293.3,93.5 L 293.1,94.0 L 291.7,97.8 L 291.3,98.8 L 290.5,101.4 L 290.1,102.3 L 289.7,103.1 L 288.2,105.2 L 287.6,105.3 L 286.6,105.5 L 286.2,105.8 L 286.1,106.2 L 285.8,107.3 L 285.2,108.3 L 285.2,109.3 L 284.7,110.9 L 284.2,111.9 L 283.5,112.8 L 282.1,114.5 L 281.8,114.8 L 280.8,115.8 L 280.6,115.8 L 280.0,116.1 L 277.7,116.4 L 277.1,116.4 L 276.5,116.3 L 276.2,116.4 L 275.9,116.4 L 275.4,116.4 L 274.8,116.5 L 274.2,117.1 L 272.8,119.1 L 271.9,120.3 L 271.2,121.3 L 268.9,124.2 L 267.8,125.5 L 266.7,127.3 L 266.7,127.6 L 266.0,128.6 L 265.2,129.7 L 263.7,131.0 L 262.9,131.7 L 260.7,134.0 L 257.7,137.5 L 256.2,138.9 L 256.0,139.2 L 255.7,139.9 L 255.4,140.3 L 255.2,140.6 L 255.1,140.8 L 252.6,144.5 L 251.6,145.8 L 250.7,146.8 L 249.7,148.0 L 248.6,149.6 L 248.1,150.2 L 247.5,151.3 L 246.7,152.3 L 245.8,152.9 L 245.2,153.1 L 244.9,153.0 L 244.8,152.9 L 244.9,152.6 L 244.8,152.1 L 244.4,151.6 L 243.9,151.6 L 243.5,152.0 L 243.0,152.6 L 242.3,153.4 L 240.7,154.8 L 239.2,156.4 L 238.2,157.7 L 236.8,159.5 L 236.3,160.0 L 235.5,160.4 L 234.7,160.6 L 234.3,160.6 L 234.0,160.5 L 232.8,160.4 L 231.1,160.1 L 230.2,160.1 L 228.5,160.0 L 226.3,159.6 L 225.7,159.1 L 225.4,158.7 L 225.1,158.7 L 224.7,159.1 L 223.9,159.9 L 223.1,160.5 L 222.1,161.1 L 221.0,162.0 L 219.4,163.6 L 218.3,164.5 L 218.0,164.9 L 217.2,165.8 L 216.5,166.9 L 215.2,168.2 L 214.4,169.6 L 213.6,170.5 L 213.1,170.9 L 212.7,171.5 L 212.4,171.8 L 211.8,172.4 L 210.3,173.5 L 209.2,174.7 L 207.6,175.6 L 206.5,176.3 L 204.6,177.8 L 203.8,178.1 L 201.4,178.8 L 200.1,179.1 L 199.1,179.6 L 198.6,179.7 L 197.8,180.1 L 196.0,181.1 L 195.4,181.4 L 194.6,182.4 L 193.9,183.4 L 193.3,183.8 L 191.5,185.0 L 191.4,185.0 L 190.8,185.3 L 190.5,185.4 L 188.6,186.6 L 188.4,186.7 L 187.4,187.5 L 185.0,188.8 L 184.4,189.3 L 184.3,189.6 L 184.1,190.3 L 183.9,191.1 L 183.4,191.9 L 181.2,193.9 L 179.4,194.9 L 179.2,195.1 L 178.8,195.4 L 178.6,196.0 L 178.4,197.3 L 178.0,198.2 L 177.7,198.5 L 177.2,198.9 L 177.0,199.1 L 176.8,199.6 L 176.7,200.3 L 177.0,201.5 L 177.0,201.7 L 176.8,202.5 L 176.0,204.3 L 175.2,205.2 L 174.9,205.9 L 174.6,206.8 L 174.3,207.9 L 173.8,208.8 L 173.4,209.5 L 172.6,211.3 L 172.5,212.1 L 171.7,214.0 L 171.3,215.6 L 170.9,217.0 L 170.6,217.5 L 170.0,219.1 L 169.4,221.4 L 168.8,222.9 L 167.7,225.8 L 167.6,226.2 L 167.4,226.6 L 167.3,227.6 L 167.0,228.0 L 166.2,230.2 L 165.0,232.7 L 164.6,234.1 L 164.2,234.8 L 163.5,236.1 L 162.7,237.5 L 162.2,238.4 L 161.2,239.9 L 160.8,240.5 L 160.5,241.9 L 160.2,242.7 L 159.7,243.5 L 158.9,244.1 L 157.1,244.4 L 156.4,244.9 L 156.4,245.6 L 156.5,246.9 L 156.4,248.1 L 156.3,248.8 L 156.0,249.3 L 155.7,249.9 L 154.0,252.2 L 153.1,253.3 L 152.6,254.8 L 152.0,256.1 L 151.5,257.0 L 151.0,257.6 L 150.8,257.8 L 150.3,258.4 L 150.2,258.8 L 150.0,259.8 L 149.5,260.3 L 149.1,260.7 L 148.6,261.3 L 148.3,262.2 L 148.3,262.4 L 148.2,262.5 L 147.7,263.4 L 147.5,264.4 L 145.8,267.4 L 145.3,268.9 L 144.8,270.5 L 144.3,271.9 L 144.0,272.4 L 143.2,273.6 L 141.8,276.9 L 141.0,279.9 L 140.3,281.0 L 139.4,283.1 L 139.0,284.8 L 138.7,285.6 L 138.4,286.6 L 138.1,287.7 L 138.1,287.8 L 138.2,287.9 L 138.0,288.2 L 137.5,290.5 L 136.3,294.4 L 136.0,295.9 L 135.8,297.4 L 135.4,299.1 L 135.0,300.3 L 134.8,301.3 L 134.3,302.6 L 133.5,304.5 L 132.9,305.6 L 132.2,306.3 L 132.0,306.9 L 132.0,308.0 L 131.9,309.3 L 131.0,312.6 L 130.3,315.8 L 129.8,317.7 L 129.4,318.3 L 128.3,319.6 L 127.3,321.3 L 126.5,322.3 L 125.3,323.7 L 124.5,324.1 L 121.9,325.0 L 121.4,325.3 L 120.7,325.9 L 118.6,326.7 L 116.8,327.2 L 116.5,327.4 L 116.5,327.5 L 116.4,327.8 L 116.5,328.2 L 116.7,329.0 L 116.5,329.4 L 116.5,329.4 L 115.5,330.3 L 115.1,331.0 L 114.7,332.1 L 114.6,332.4 L 114.2,332.8 L 113.3,333.3 L 113.0,333.7 L 112.6,335.3 L 112.4,336.1 L 112.2,337.6 L 112.1,339.1 L 112.0,340.2 L 112.2,342.1 L 112.2,342.5 L 112.1,343.8 L 111.9,347.4 L 112.0,350.1 L 112.1,352.3 L 112.1,352.7 L 111.9,354.1 L 111.9,355.1 L 112.0,356.9 L 111.2,359.4 L 111.1,360.0 L 111.1,360.0 L 82.8,357.2 L 82.8,357.2 L 82.8,357.0 L 82.4,356.4 L 82.2,355.6 L 82.0,355.1 L 81.8,354.6 L 81.9,354.0 L 82.0,353.5 L 82.2,353.0 L 84.0,351.1 L 84.3,350.5 L 84.4,349.9 L 84.6,349.2 L 85.5,348.0 L 85.8,347.3 L 86.1,347.0 L 86.1,346.1 L 87.2,345.0 L 87.5,344.8 L 88.0,344.2 L 88.7,343.4 L 89.6,342.1 L 89.7,342.0 L 90.5,340.0 L 90.3,338.0 L 90.5,337.5 L 90.5,336.9 L 90.6,336.0 L 91.2,334.6 L 91.1,334.0 L 91.1,333.7 L 91.1,332.6 L 91.3,332.0 L 91.7,331.3 L 91.9,330.8 L 92.1,330.2 L 93.3,328.6 L 94.7,327.1 L 94.9,326.5 L 95.0,326.1 L 95.9,325.5 L 95.8,324.6 L 96.2,324.3 L 97.1,323.7 L 97.2,323.5 L 97.2,323.1 L 97.9,322.3 L 99.0,321.9 L 99.3,321.6 L 99.5,321.2 L 99.7,320.9 L 100.1,320.8 L 100.6,320.3 L 100.8,319.5 L 101.0,319.3 L 101.5,318.9 L 102.2,318.7 L 102.3,318.6 L 102.3,318.0 L 102.9,317.8 L 103.0,317.5 L 103.0,317.2 L 103.4,316.6 L 104.5,315.4 L 105.4,314.7 L 106.2,314.2 L 106.2,313.6 L 106.5,313.2 L 106.7,312.7 L 106.7,312.4 L 107.0,312.0 L 107.7,311.5 L 108.2,311.1 L 108.3,310.3 L 108.7,309.9 L 109.0,309.3 L 109.6,307.7 L 109.8,307.1 L 110.6,305.7 L 111.2,304.3 L 111.4,303.6 L 112.0,301.2 L 111.8,299.3 L 111.9,298.7 L 112.5,297.2 L 113.0,294.3 L 113.2,293.7 L 113.6,291.8 L 113.9,291.2 L 114.0,290.5 L 113.7,289.9 L 113.6,289.3 L 113.8,288.7 L 114.8,287.6 L 115.1,287.1 L 115.1,286.8 L 115.0,286.7 L 114.8,286.2 L 114.6,284.8 L 114.3,284.3 L 114.5,283.9 L 113.3,281.4 L 113.1,280.5 L 113.4,279.9 L 114.5,278.7 L 114.9,277.9 L 115.7,275.4 L 115.9,274.2 L 116.2,273.5 L 116.4,273.0 L 116.4,272.5 L 116.5,271.8 L 116.7,271.5 L 117.0,271.0 L 117.1,270.4 L 117.2,269.5 L 117.4,269.0 L 118.7,267.1 L 120.4,263.5 L 121.6,260.6 L 121.7,260.0 L 122.1,259.2 L 122.7,258.6 L 123.3,257.1 L 124.2,256.2 L 124.3,255.9 L 124.5,255.8 L 125.6,255.0 L 126.0,254.6 L 126.7,253.6 L 127.1,253.2 L 127.8,252.3 L 127.9,252.2 L 128.4,251.9 L 129.1,250.6 L 130.7,249.3 L 130.8,249.2 L 132.0,248.6 L 132.8,248.1 L 133.1,247.6 L 133.4,247.2 L 134.3,246.8 L 134.3,246.8 L 136.2,246.2 L 141.2,243.2 L 142.0,242.6 L 143.6,240.8 L 144.7,239.2 L 145.0,238.9 L 145.7,237.9 L 146.4,236.9 L 147.9,234.2 L 149.0,231.8 L 150.8,228.8 L 151.9,225.5 L 152.2,224.1 L 152.5,222.6 L 153.1,220.4 L 153.5,219.6 L 153.8,219.2 L 154.9,218.9 L 155.3,218.5 L 155.3,218.2 L 154.7,217.3 L 154.6,216.8 L 154.8,216.0 L 154.6,215.4 L 154.6,214.9 L 154.7,214.2 L 154.9,213.6 L 155.8,213.1 L 156.2,212.6 L 156.5,211.5 L 156.5,210.7 L 156.3,210.4 L 156.3,210.2 L 155.7,209.5 L 155.6,208.7 L 155.7,205.5 L 155.8,204.8 L 155.8,203.8 L 155.9,203.3 L 155.9,202.6 L 155.5,202.0 L 155.4,201.6 L 155.5,200.7 L 155.7,199.5 L 155.7,198.6 L 155.3,197.6 L 155.4,197.4 L 154.9,196.3 L 154.9,195.3 L 155.0,194.9" fill="none" stroke="black" stroke-width="2"/>
</svg>