<?xml version="1.0" encoding="UTF-8"?>
<svg width="400" height="400" viewBox="0 0 400 400" xmlns="http://www.w3.org/2000/svg">
  <rect width="400" height="400" fill="white"/>
  <path d="M 165.2,188.6 L 166.3,186.9 L 169.0,183.0 L 171.2,180.0 L 173.3,176.7 L 173.4,176.4 L 175.2,174.0 L 179.4,168.7 L 182.6,165.2 L 187.5,159.5 L 191.8,153.9 L 193.5,152.3 L 196.5,148.5 L 197.9,145.8 L 198.7,143.4 L 199.1,141.5 L 200.0,139.6 L 202.0,136.7 L 202.4,135.9 L 203.2,132.1 L 205.3,127.0 L 205.7,125.3 L 205.7,124.8 L 205.8,123.0 L 206.2,122.1 L 207.3,121.0 L 208.7,120.0 L 210.0,119.1 L 210.3,118.9 L 212.7,116.3 L 213.1,114.7 L 213.0,113.0 L 212.6,111.6 L 211.3,108.2 L 211.0,107.1 L 210.1,104.8 L 210.0,104.6 L 209.5,103.6 L 208.7,102.6 L 208.1,102.1 L 208.1,102.5 L 208.0,103.9 L 207.8,104.6 L 208.0,106.7 L 208.2,107.4 L 208.5,109.5 L 208.2,109.8 L 207.9,109.5 L 207.4,106.8 L 206.4,103.3 L 205.2,99.6 L 204.8,98.6 L 204.7,97.6 L 205.2,95.1 L 205.6,94.0 L 205.7,92.6 L 205.4,91.5 L 204.9,90.5 L 204.2,88.1 L 204.2,86.7 L 204.8,84.2 L 205.0,82.8 L 205.6,81.0 L 205.8,79.9 L 206.7,77.5 L 206.8,75.3 L 206.4,71.1 L 206.6,70.1 L 206.6,69.8 L 206.9,66.2 L 206.8,64.8 L 205.4,61.8 L 204.8,60.8 L 204.1,58.7 L 203.1,56.7 L 202.8,54.7 L 202.4,54.4 L 202.0,53.7 L 201.4,53.1 L 200.9,50.3 L 200.2,49.7 L 200.0,49.4 L 206.5,40.1 L 206.5,40.0 L 207.6,40.8 L 210.0,43.0 L 210.7,43.7 L 211.3,45.0 L 212.0,51.7 L 212.6,55.3 L 212.9,56.3 L 213.2,58.2 L 212.8,59.1 L 212.8,60.1 L 215.7,62.3 L 216.9,63.5 L 218.3,66.6 L 218.8,68.6 L 219.6,71.3 L 220.0,72.4 L 222.3,75.0 L 223.8,76.3 L 224.7,77.3 L 225.6,78.7 L 226.1,80.2 L 226.5,83.6 L 226.4,83.8 L 226.7,87.5 L 227.4,90.1 L 227.9,90.9 L 229.2,91.5 L 229.7,92.3 L 231.0,95.8 L 232.3,98.8 L 232.9,99.3 L 234.0,99.9 L 234.8,100.7 L 235.1,103.0 L 235.3,103.5 L 236.3,103.4 L 237.1,103.5 L 238.4,104.1 L 239.4,104.0 L 240.3,103.3 L 241.0,103.1 L 242.7,103.2 L 244.0,103.7 L 244.5,104.7 L 245.1,105.1 L 245.4,105.1 L 246.1,105.3 L 246.6,105.7 L 247.0,108.6 L 247.7,109.4 L 248.1,110.0 L 248.2,110.8 L 247.3,113.4 L 247.7,114.7 L 248.6,115.6 L 250.8,116.7 L 251.1,116.7 L 251.3,116.9 L 253.2,116.6 L 254.0,116.9 L 254.5,117.5 L 254.4,118.1 L 254.0,118.6 L 252.2,119.1 L 251.3,120.1 L 250.5,120.3 L 249.1,119.7 L 247.8,119.3 L 246.5,119.4 L 245.5,119.7 L 244.2,121.4 L 243.8,122.4 L 244.0,124.5 L 244.0,124.8 L 244.4,126.3 L 245.1,127.3 L 246.7,128.5 L 247.6,128.5 L 247.9,128.2 L 248.6,128.2 L 250.5,129.6 L 251.6,129.4 L 252.0,128.8 L 252.5,127.7 L 252.8,127.3 L 253.5,127.1 L 254.0,127.4 L 254.4,127.9 L 254.5,129.1 L 254.2,131.3 L 254.4,132.5 L 255.0,133.7 L 254.8,134.6 L 254.8,135.8 L 255.2,136.5 L 256.3,137.1 L 260.7,139.0 L 261.5,140.3 L 262.0,141.5 L 261.7,142.6 L 261.0,143.5 L 259.7,144.2 L 257.1,146.5 L 255.9,148.1 L 255.4,149.3 L 255.6,152.4 L 256.3,155.1 L 256.6,155.9 L 257.5,157.4 L 257.5,158.4 L 258.7,161.3 L 258.2,163.9 L 257.0,166.6 L 255.8,168.1 L 253.4,170.2 L 251.8,172.2 L 250.7,173.7 L 250.0,175.4 L 249.6,177.3 L 249.5,178.3 L 249.9,179.6 L 250.1,181.8 L 249.7,183.4 L 248.9,185.1 L 246.0,188.6 L 245.0,191.6 L 244.9,192.1 L 244.6,192.8 L 244.0,193.8 L 242.8,194.7 L 238.6,198.1 L 237.5,198.6 L 236.8,199.3 L 235.9,200.8 L 236.0,202.0 L 236.3,202.5 L 237.3,204.0 L 238.4,204.8 L 239.0,205.6 L 239.3,206.6 L 239.2,207.4 L 236.9,209.6 L 236.2,210.4 L 235.4,212.4 L 234.5,213.4 L 233.6,214.2 L 233.2,214.7 L 232.7,215.6 L 232.7,218.1 L 232.2,219.7 L 231.6,220.5 L 230.6,222.3 L 229.4,223.6 L 227.2,225.0 L 226.2,225.2 L 225.1,224.4 L 224.2,224.3 L 223.6,225.1 L 222.9,225.3 L 222.3,225.0 L 222.0,225.0 L 221.1,224.7 L 220.0,225.6 L 219.2,228.0 L 218.7,228.4 L 218.8,229.2 L 218.9,230.5 L 218.6,230.8 L 218.3,231.3 L 217.3,231.4 L 216.1,231.8 L 214.4,233.1 L 213.8,234.2 L 212.0,235.8 L 210.0,236.0 L 209.5,236.0 L 208.2,235.8 L 207.3,236.2 L 206.9,236.9 L 207.7,238.9 L 208.7,240.9 L 209.6,241.5 L 210.0,242.4 L 210.3,242.9 L 210.6,244.9 L 210.0,248.0 L 209.9,248.5 L 209.5,249.6 L 209.4,249.8 L 208.9,251.3 L 208.1,252.5 L 207.4,253.7 L 206.8,258.5 L 206.8,259.7 L 206.4,260.9 L 205.8,261.4 L 205.2,262.2 L 205.1,263.0 L 204.3,263.3 L 203.6,263.8 L 202.4,265.7 L 201.7,268.2 L 201.1,268.8 L 200.4,269.2 L 199.3,270.3 L 197.6,271.0 L 196.9,271.8 L 195.6,272.7 L 194.9,273.7 L 193.5,275.3 L 191.9,276.5 L 190.3,276.8 L 187.9,277.0 L 186.8,277.9 L 186.0,278.1 L 185.2,278.5 L 184.6,279.5 L 183.2,281.1 L 181.8,282.2 L 181.2,283.5 L 180.1,284.7 L 178.8,285.8 L 176.2,286.2 L 172.3,285.2 L 171.7,285.7 L 171.6,286.2 L 172.6,287.0 L 172.7,287.3 L 170.9,290.7 L 170.7,292.2 L 170.5,292.9 L 169.1,295.7 L 168.0,300.4 L 167.1,301.9 L 165.8,305.2 L 165.5,307.3 L 165.6,308.9 L 166.3,311.8 L 166.5,314.7 L 166.3,317.4 L 166.6,318.4 L 167.0,322.3 L 166.7,325.8 L 166.1,326.5 L 164.3,327.0 L 163.7,327.5 L 163.0,328.5 L 161.2,332.6 L 161.1,333.6 L 160.9,334.6 L 161.2,337.7 L 161.5,339.0 L 162.2,340.3 L 162.4,342.1 L 162.1,343.5 L 159.4,348.3 L 159.0,350.6 L 157.9,351.2 L 157.5,352.1 L 157.0,352.5 L 156.6,353.0 L 156.6,353.7 L 157.6,353.6 L 158.3,353.7 L 158.8,354.1 L 158.5,355.2 L 157.8,356.8 L 156.6,359.1 L 155.9,359.9 L 155.5,360.0 L 155.2,359.3 L 154.9,358.9 L 154.4,358.6 L 153.8,358.7 L 152.8,359.6 L 152.4,359.7 L 152.4,358.8 L 152.8,357.7 L 153.1,355.8 L 152.5,354.4 L 152.8,353.9 L 153.7,353.1 L 153.6,352.5 L 150.7,351.6 L 149.4,351.6 L 148.9,351.1 L 149.4,350.9 L 151.0,350.5 L 152.3,349.4 L 152.4,348.7 L 151.5,348.0 L 149.7,347.3 L 148.1,346.2 L 147.1,345.3 L 146.1,343.8 L 146.0,342.3 L 146.2,341.0 L 145.8,339.3 L 145.7,337.8 L 145.4,336.9 L 145.6,334.9 L 145.3,333.6 L 145.3,333.6 L 144.5,331.6 L 144.1,328.0 L 145.4,326.5 L 145.8,325.4 L 145.6,324.1 L 145.1,323.0 L 145.2,322.5 L 146.2,321.3 L 146.4,320.5 L 146.1,318.8 L 146.4,318.0 L 146.7,317.7 L 148.2,317.0 L 148.6,316.4 L 148.4,314.6 L 147.8,312.8 L 147.3,312.1 L 146.8,311.9 L 145.7,312.3 L 145.3,312.1 L 145.2,311.3 L 146.2,310.2 L 146.0,308.8 L 145.7,308.0 L 145.6,307.8 L 145.8,306.2 L 146.2,305.8 L 147.3,305.8 L 147.6,305.5 L 147.7,304.6 L 147.5,303.1 L 147.7,302.3 L 147.4,301.5 L 145.4,298.9 L 144.5,295.7 L 144.3,294.8 L 143.8,293.8 L 143.7,293.0 L 144.3,291.3 L 144.1,289.2 L 144.3,288.4 L 143.5,286.9 L 141.4,285.0 L 140.3,283.5 L 140.3,282.2 L 141.6,279.1 L 141.9,275.3 L 142.6,273.9 L 142.2,272.1 L 141.3,270.7 L 140.4,268.7 L 139.8,267.9 L 138.6,266.5 L 138.0,265.1 L 138.2,263.8 L 139.1,262.2 L 140.1,260.9 L 141.1,260.1 L 142.1,259.7 L 142.9,259.8 L 143.9,260.7 L 144.6,261.0 L 146.1,260.8 L 146.6,260.5 L 146.7,260.1 L 146.3,259.1 L 144.5,257.6 L 144.0,256.8 L 143.9,255.8 L 144.0,254.9 L 143.7,253.8 L 143.7,252.9 L 144.7,251.7 L 145.7,250.0 L 147.4,248.6 L 148.4,247.7 L 149.7,246.2 L 151.5,245.4 L 156.7,244.3 L 156.9,243.9 L 157.6,243.9 L 159.1,244.8 L 160.1,244.7 L 160.3,244.3 L 160.2,243.6 L 159.6,243.0 L 158.8,242.7 L 158.7,242.0 L 159.2,241.3 L 160.6,240.2 L 161.6,239.7 L 162.9,239.6 L 162.8,238.9 L 161.9,238.3 L 161.2,237.6 L 161.2,236.9 L 162.9,234.6 L 163.6,234.2 L 166.0,232.2 L 167.7,231.3 L 169.2,231.2 L 169.7,230.8 L 169.5,230.1 L 169.0,229.2 L 168.9,229.1 L 168.7,228.4 L 169.1,227.7 L 168.9,227.1 L 169.8,225.2 L 170.3,224.9 L 170.6,224.1 L 171.1,222.3 L 171.0,220.9 L 169.9,219.3 L 168.8,218.0 L 166.4,215.8 L 164.2,216.0 L 163.2,216.0 L 162.1,215.3 L 161.5,214.3 L 161.3,212.8 L 162.0,211.7 L 162.9,210.6 L 163.0,209.9 L 162.9,209.4 L 162.5,209.1 L 160.9,209.0 L 158.5,209.1 L 157.3,208.6 L 156.9,208.1 L 156.9,207.4 L 157.5,206.5 L 159.9,203.7 L 160.1,203.2 L 159.7,202.6 L 158.7,202.5 L 157.9,202.0 L 157.6,201.3 L 157.8,199.4 L 158.4,198.3 L 159.0,197.7 L 160.4,197.1 L 161.1,196.6 L 162.0,195.5 L 162.6,194.5 L 164.5,192.6 L 165.6,190.4 L 165.5,190.2 L 164.8,190.2 L 164.8,189.5 L 165.2,188.6" fill="none" stroke="black" stroke-width="2"/>
</svg>