<?xml version="1.0" encoding="UTF-8"?>
<svg width="400" height="400" viewBox="0 0 400 400" xmlns="http://www.w3.org/2000/svg">
  <rect width="400" height="400" fill="white"/>
  <path d="M 151.5,254.4 L 151.6,254.0 L 151.8,253.4 L 151.7,252.8 L 151.7,252.4 L 151.7,252.3 L 151.8,251.9 L 151.9,251.3 L 152.3,250.8 L 152.6,250.3 L 152.9,249.8 L 152.9,249.6 L 153.0,249.2 L 153.1,248.6 L 153.1,248.1 L 153.1,247.4 L 153.3,246.8 L 153.5,246.1 L 153.8,245.6 L 153.8,245.5 L 154.1,245.1 L 154.6,244.6 L 155.1,244.2 L 155.5,244.1 L 155.7,243.9 L 155.8,243.7 L 155.8,243.3 L 155.9,242.9 L 156.1,242.6 L 156.3,242.2 L 156.2,241.7 L 155.8,241.4 L 155.7,241.1 L 155.7,240.9 L 155.7,240.3 L 155.8,240.0 L 156.1,239.7 L 155.8,239.6 L 155.7,239.4 L 155.7,238.9 L 155.7,238.9 L 155.6,238.3 L 155.5,237.7 L 155.5,237.0 L 155.4,236.4 L 155.7,235.9 L 155.7,235.3 L 155.6,234.7 L 155.4,234.2 L 155.0,233.6 L 154.6,233.2 L 154.4,233.0 L 153.9,232.5 L 153.9,232.4 L 153.8,232.1 L 153.7,231.4 L 153.6,231.0 L 153.5,230.4 L 153.6,230.1 L 153.8,229.5 L 154.0,229.3 L 153.7,229.1 L 153.7,229.0 L 153.6,228.5 L 153.5,227.9 L 153.1,227.3 L 152.7,226.8 L 152.4,226.3 L 152.1,225.8 L 151.9,225.1 L 151.7,224.5 L 151.6,223.9 L 151.5,223.3 L 151.5,223.1 L 151.5,222.7 L 151.5,222.2 L 151.6,221.9 L 151.8,221.7 L 152.2,221.3 L 152.7,220.8 L 152.7,220.5 L 152.6,220.5 L 152.0,220.2 L 152.0,220.1 L 152.3,219.6 L 152.4,219.6 L 152.7,219.6 L 153.0,219.3 L 153.2,219.1 L 153.6,218.6 L 153.8,217.9 L 154.1,217.4 L 154.7,217.0 L 155.2,216.5 L 155.3,216.0 L 155.3,215.7 L 155.1,215.4 L 155.1,215.1 L 155.1,214.5 L 155.2,214.2 L 155.7,213.7 L 156.1,213.3 L 156.5,212.8 L 156.6,212.2 L 156.8,211.5 L 157.0,210.8 L 157.2,210.2 L 157.4,209.6 L 157.7,209.4 L 158.0,208.9 L 158.0,208.8 L 158.1,208.7 L 158.4,208.1 L 158.7,207.8 L 158.7,207.1 L 158.6,206.5 L 158.7,205.8 L 158.8,205.3 L 158.8,205.2 L 158.8,204.8 L 159.1,204.2 L 159.4,203.9 L 159.6,203.3 L 159.7,202.6 L 159.7,202.0 L 159.7,201.7 L 159.5,201.0 L 159.3,200.4 L 159.3,199.8 L 159.4,199.1 L 159.6,198.5 L 160.1,198.0 L 160.2,197.8 L 160.5,197.5 L 160.7,197.3 L 161.0,196.8 L 161.6,196.5 L 162.1,196.1 L 162.6,195.8 L 163.1,195.5 L 163.6,195.2 L 164.0,195.0 L 164.1,194.7 L 164.4,194.6 L 165.0,194.6 L 165.3,194.6 L 165.7,194.5 L 166.2,194.0 L 166.3,194.0 L 166.4,194.0 L 166.9,194.4 L 167.2,195.0 L 167.4,195.3 L 167.5,196.0 L 167.5,196.6 L 167.3,197.2 L 167.1,197.8 L 167.0,198.5 L 166.7,199.1 L 166.6,199.5 L 166.6,200.0 L 166.7,200.1 L 166.8,200.2 L 167.2,200.3 L 167.3,200.3 L 167.5,200.0 L 167.6,199.8 L 167.6,199.2 L 167.5,198.8 L 167.3,198.5 L 167.4,198.3 L 167.6,198.0 L 167.9,198.0 L 168.2,198.1 L 168.6,198.0 L 168.7,197.8 L 169.0,197.3 L 169.1,196.7 L 169.2,196.1 L 169.2,195.5 L 169.3,194.9 L 169.4,194.3 L 169.6,193.7 L 169.7,193.3 L 169.2,193.2 L 169.1,193.2 L 168.9,193.0 L 168.9,192.7 L 169.2,192.2 L 169.4,192.0 L 169.9,191.6 L 170.4,191.3 L 170.8,191.0 L 170.9,190.9 L 171.0,190.7 L 171.0,190.6 L 171.0,190.3 L 171.3,189.8 L 171.8,189.3 L 172.1,188.7 L 172.4,188.0 L 172.4,187.4 L 172.7,187.3 L 173.0,186.7 L 173.4,186.2 L 173.8,185.8 L 174.3,185.4 L 174.8,184.9 L 175.2,184.4 L 175.3,184.2 L 175.5,183.4 L 175.6,182.9 L 175.7,182.2 L 175.7,182.2 L 175.8,181.6 L 175.9,180.9 L 176.0,180.3 L 176.1,179.8 L 176.1,179.1 L 176.3,178.5 L 176.7,177.9 L 176.8,177.4 L 176.9,176.8 L 176.8,176.2 L 176.7,175.5 L 176.5,174.9 L 176.3,174.3 L 176.2,174.0 L 176.0,174.0 L 175.8,173.8 L 175.6,173.1 L 175.5,172.5 L 175.5,172.1 L 175.5,172.0 L 175.6,171.8 L 176.0,171.4 L 176.2,171.1 L 176.6,170.6 L 177.1,170.2 L 177.4,169.8 L 177.5,169.7 L 177.5,169.7 L 177.8,169.6 L 178.2,169.1 L 178.7,168.5 L 179.1,168.0 L 179.5,167.5 L 179.9,167.0 L 180.4,166.6 L 180.7,166.1 L 181.0,165.6 L 181.3,165.3 L 181.7,164.7 L 181.8,164.6 L 182.2,164.3 L 182.5,164.2 L 182.9,163.8 L 183.2,163.2 L 183.6,162.8 L 183.9,162.5 L 184.2,161.9 L 184.5,161.4 L 184.6,161.1 L 185.0,160.8 L 185.0,160.4 L 185.1,160.1 L 185.3,159.9 L 185.5,159.6 L 185.9,159.1 L 186.2,158.5 L 186.6,158.1 L 187.0,157.5 L 187.2,157.2 L 187.8,156.9 L 188.0,156.4 L 188.4,155.8 L 188.6,155.6 L 188.8,155.4 L 189.0,155.3 L 189.6,154.9 L 189.9,154.3 L 190.0,153.7 L 190.1,153.1 L 190.2,152.8 L 190.4,152.3 L 190.6,151.7 L 190.8,151.3 L 191.0,151.3 L 191.1,151.1 L 191.0,150.6 L 191.1,150.0 L 191.0,149.4 L 191.1,149.1 L 191.4,148.5 L 191.7,148.0 L 191.8,147.4 L 192.1,146.9 L 192.3,146.5 L 192.5,146.2 L 192.7,145.5 L 192.9,144.8 L 193.0,144.3 L 193.2,143.8 L 193.5,143.1 L 193.6,142.5 L 193.7,141.9 L 193.8,141.4 L 193.9,140.8 L 193.9,140.2 L 194.1,139.7 L 194.2,139.1 L 194.3,138.4 L 194.3,137.9 L 194.4,137.3 L 194.6,136.7 L 194.8,136.3 L 195.0,135.7 L 195.2,135.2 L 195.5,134.6 L 195.7,134.2 L 195.8,133.9 L 196.0,133.4 L 196.1,133.2 L 196.2,133.2 L 196.2,133.1 L 196.4,132.6 L 196.8,132.0 L 197.0,131.5 L 197.1,131.3 L 197.2,130.7 L 197.2,130.4 L 197.4,129.7 L 197.7,129.1 L 197.8,128.4 L 197.9,127.8 L 198.0,127.1 L 198.1,126.6 L 198.3,126.2 L 198.3,126.0 L 198.2,125.6 L 198.3,125.3 L 198.6,125.0 L 198.8,124.5 L 198.9,124.0 L 199.3,123.5 L 199.4,123.2 L 199.4,122.8 L 199.6,122.3 L 199.8,121.7 L 200.0,121.2 L 200.0,120.5 L 200.0,120.2 L 200.0,119.5 L 200.1,119.1 L 199.9,118.9 L 199.6,118.8 L 199.0,118.5 L 198.3,118.2 L 197.7,117.9 L 197.1,117.7 L 196.6,117.4 L 196.0,117.2 L 195.8,117.0 L 195.5,116.8 L 195.0,116.5 L 194.5,116.0 L 194.5,116.0 L 194.1,115.7 L 193.7,115.2 L 193.4,114.9 L 193.1,114.8 L 192.7,114.4 L 192.4,113.8 L 192.2,113.3 L 192.0,112.6 L 191.8,112.0 L 191.8,111.3 L 191.8,110.6 L 191.8,110.4 L 192.5,110.5 L 192.8,110.6 L 193.0,110.6 L 193.0,110.1 L 192.5,110.1 L 192.4,110.3 L 191.9,110.2 L 191.8,109.6 L 191.7,109.5 L 191.8,108.8 L 191.8,108.1 L 191.8,108.0 L 191.9,107.6 L 192.1,106.9 L 192.3,106.3 L 192.4,105.6 L 192.4,105.0 L 192.6,104.3 L 192.6,103.9 L 192.6,103.6 L 192.4,102.9 L 192.4,102.2 L 192.4,101.5 L 192.5,100.8 L 192.6,100.3 L 192.7,99.7 L 192.9,99.1 L 193.1,98.5 L 193.2,97.8 L 193.3,97.5 L 193.5,97.2 L 193.7,96.5 L 193.8,95.9 L 194.0,95.2 L 194.0,94.7 L 194.3,94.0 L 194.5,93.5 L 194.7,93.0 L 194.9,92.5 L 195.2,91.9 L 195.3,91.6 L 195.4,91.1 L 195.6,90.5 L 195.9,90.0 L 196.1,89.5 L 196.3,89.0 L 196.4,88.4 L 196.5,88.1 L 196.4,87.4 L 196.5,86.9 L 196.7,86.3 L 196.8,85.8 L 196.9,85.2 L 197.1,84.7 L 197.3,84.1 L 197.5,83.6 L 197.7,82.9 L 197.7,82.6 L 198.0,82.0 L 198.0,81.5 L 198.2,80.9 L 198.5,80.3 L 198.6,79.6 L 198.9,79.0 L 199.1,78.4 L 199.5,77.8 L 199.8,77.2 L 200.4,76.9 L 200.5,76.8 L 200.9,76.2 L 201.2,75.7 L 201.5,75.2 L 201.7,74.6 L 201.7,74.0 L 201.8,73.4 L 201.9,72.8 L 201.7,72.2 L 201.8,71.6 L 201.9,70.9 L 202.1,70.4 L 202.3,69.9 L 202.3,69.3 L 202.4,68.6 L 202.5,68.0 L 202.6,67.7 L 202.6,67.2 L 202.8,66.5 L 203.1,66.0 L 203.2,65.7 L 203.3,65.0 L 203.3,64.4 L 203.3,63.7 L 203.4,63.1 L 203.4,63.0 L 203.4,62.6 L 203.4,62.0 L 203.4,61.5 L 203.5,60.9 L 203.5,60.3 L 203.6,59.7 L 203.8,59.1 L 204.0,58.9 L 204.1,58.9 L 204.6,58.5 L 204.9,58.0 L 205.4,57.5 L 205.8,57.2 L 206.4,56.8 L 207.0,56.4 L 207.5,56.0 L 207.9,55.5 L 208.1,54.9 L 208.1,54.2 L 208.2,53.6 L 208.3,52.9 L 208.3,52.3 L 208.2,51.6 L 208.2,50.9 L 208.2,50.2 L 208.3,49.6 L 208.4,49.1 L 208.6,48.5 L 208.8,48.1 L 209.0,47.5 L 209.2,47.0 L 209.4,46.4 L 209.6,45.8 L 209.8,45.3 L 210.0,44.8 L 210.2,44.2 L 210.2,43.7 L 210.4,43.1 L 210.5,42.6 L 210.6,42.0 L 210.6,41.5 L 210.8,40.9 L 210.9,40.4 L 210.9,40.2 L 211.6,40.2 L 221.4,40.0 L 221.3,40.3 L 221.4,41.0 L 221.5,41.7 L 221.6,42.4 L 221.8,43.0 L 221.9,43.7 L 222.0,44.4 L 222.1,45.1 L 222.0,45.7 L 221.9,46.3 L 221.9,46.9 L 222.0,47.1 L 222.4,47.3 L 222.6,47.2 L 223.1,46.8 L 223.4,46.8 L 223.5,47.0 L 223.8,47.6 L 223.8,47.9 L 223.5,48.1 L 222.8,48.1 L 222.2,48.2 L 222.0,48.4 L 222.1,48.8 L 222.2,48.9 L 222.6,49.2 L 222.9,49.2 L 223.0,49.1 L 223.3,48.8 L 223.5,48.7 L 223.7,48.8 L 223.9,49.1 L 224.2,49.7 L 224.2,50.3 L 224.3,50.4 L 224.9,50.9 L 225.4,51.2 L 225.6,51.4 L 225.7,51.7 L 226.2,52.2 L 226.6,52.6 L 227.0,53.1 L 226.9,53.2 L 226.6,53.5 L 226.4,53.8 L 226.3,54.1 L 226.1,54.7 L 225.9,54.6 L 225.2,54.6 L 224.6,54.7 L 223.9,54.7 L 223.8,54.7 L 223.9,54.1 L 224.0,53.9 L 224.3,53.5 L 224.7,52.8 L 224.7,52.5 L 224.4,52.4 L 223.9,52.4 L 223.8,52.3 L 223.8,52.2 L 223.7,51.7 L 223.5,51.2 L 223.1,50.8 L 222.7,50.7 L 222.5,50.5 L 222.4,50.2 L 222.2,49.9 L 221.8,49.6 L 221.6,49.5 L 221.5,49.5 L 221.3,49.6 L 221.1,49.9 L 221.2,50.7 L 221.4,51.2 L 221.4,51.6 L 220.8,52.2 L 220.7,52.5 L 220.7,52.8 L 220.8,52.9 L 221.1,52.9 L 221.3,52.9 L 221.3,53.0 L 221.4,53.5 L 221.3,53.6 L 221.2,53.7 L 220.9,53.7 L 220.5,53.5 L 220.3,53.5 L 220.2,53.6 L 220.2,53.7 L 220.6,54.0 L 220.6,54.3 L 220.5,54.4 L 220.0,54.5 L 219.9,54.6 L 219.7,54.7 L 219.7,55.1 L 219.9,55.2 L 220.5,55.5 L 221.3,55.9 L 222.1,56.2 L 222.8,56.5 L 223.2,56.6 L 223.4,56.6 L 223.6,56.3 L 223.5,55.9 L 223.8,55.0 L 223.9,55.0 L 224.5,55.0 L 225.1,55.0 L 225.8,55.0 L 226.1,55.0 L 226.2,55.4 L 226.4,56.0 L 226.4,56.1 L 226.1,56.4 L 225.9,56.5 L 225.2,56.6 L 224.7,57.0 L 224.4,57.1 L 223.9,57.4 L 223.7,58.0 L 223.6,58.6 L 223.4,59.1 L 223.2,59.6 L 223.1,60.3 L 223.0,61.0 L 222.9,61.4 L 222.8,61.9 L 222.6,62.5 L 222.5,63.0 L 222.4,63.0 L 222.3,63.7 L 222.3,64.3 L 222.4,64.9 L 222.6,65.5 L 223.1,65.9 L 223.5,66.2 L 223.8,66.6 L 224.2,67.2 L 224.5,67.6 L 224.8,68.0 L 225.2,68.4 L 225.5,68.7 L 225.7,69.3 L 225.9,70.0 L 226.1,70.6 L 226.5,71.1 L 226.8,71.7 L 227.3,72.3 L 227.7,72.5 L 228.3,72.7 L 228.8,72.9 L 229.5,73.1 L 229.9,73.3 L 230.5,73.7 L 230.9,74.0 L 231.2,74.4 L 231.6,74.7 L 231.9,75.3 L 232.1,75.9 L 232.3,76.6 L 232.3,77.3 L 232.5,77.9 L 232.8,78.5 L 233.2,79.0 L 233.4,79.1 L 234.0,79.1 L 234.5,79.1 L 234.7,79.0 L 234.9,78.7 L 235.1,78.1 L 235.3,77.5 L 235.4,76.9 L 235.5,76.2 L 235.6,75.6 L 235.6,75.0 L 235.6,74.3 L 235.7,73.8 L 235.6,73.2 L 235.6,72.6 L 235.4,71.4 L 235.4,70.8 L 235.1,70.3 L 234.8,69.7 L 234.5,69.2 L 234.1,68.7 L 233.8,68.2 L 233.5,67.7 L 233.3,67.1 L 233.1,66.6 L 232.9,66.1 L 232.7,65.4 L 232.5,65.2 L 231.9,65.0 L 231.7,64.7 L 231.5,64.4 L 231.3,63.8 L 231.3,63.2 L 231.2,63.0 L 231.2,62.9 L 230.9,62.3 L 230.9,61.9 L 231.1,61.3 L 231.2,61.1 L 231.7,60.6 L 232.2,60.3 L 232.9,60.2 L 233.6,60.0 L 234.1,60.0 L 234.7,60.3 L 235.2,60.6 L 235.7,60.9 L 236.1,61.3 L 236.7,61.7 L 237.1,62.1 L 237.6,62.3 L 238.1,62.4 L 238.8,62.5 L 239.4,62.7 L 240.0,62.9 L 240.4,63.0 L 240.6,63.1 L 241.1,63.3 L 241.7,63.4 L 242.1,63.6 L 242.2,63.6 L 242.8,63.8 L 243.4,64.0 L 243.9,64.3 L 244.4,64.5 L 244.9,64.8 L 245.3,65.2 L 245.5,65.7 L 245.6,66.3 L 245.6,66.8 L 245.8,67.4 L 246.2,67.9 L 246.5,68.4 L 246.7,69.0 L 246.9,69.5 L 247.1,70.0 L 247.4,70.7 L 247.6,71.2 L 247.8,71.7 L 248.0,72.2 L 248.3,72.7 L 248.6,73.2 L 249.0,73.8 L 249.4,74.2 L 249.7,74.6 L 250.0,75.1 L 250.1,75.7 L 250.2,76.4 L 250.1,77.0 L 250.1,77.5 L 250.1,78.0 L 250.1,78.7 L 250.2,79.2 L 250.3,79.8 L 250.6,80.2 L 250.9,80.7 L 251.0,81.0 L 251.1,81.7 L 251.3,82.4 L 251.2,82.7 L 251.2,82.9 L 251.4,83.2 L 251.4,83.5 L 251.4,83.9 L 251.2,84.5 L 251.2,85.2 L 251.1,85.7 L 251.1,86.3 L 251.0,86.9 L 250.8,87.4 L 250.9,87.7 L 251.3,88.3 L 251.7,88.7 L 251.9,89.2 L 252.0,89.5 L 252.0,90.1 L 252.1,90.6 L 252.1,91.2 L 251.9,91.4 L 251.4,91.8 L 251.2,92.1 L 251.1,92.4 L 251.1,92.7 L 251.1,93.0 L 251.1,93.6 L 251.0,94.2 L 250.9,94.8 L 250.7,95.4 L 250.5,95.9 L 250.5,96.3 L 250.5,96.9 L 250.5,97.5 L 250.3,98.0 L 250.2,98.6 L 250.1,98.8 L 250.1,99.2 L 249.9,99.7 L 249.7,100.2 L 249.7,100.6 L 249.6,100.8 L 249.5,101.3 L 249.4,101.9 L 249.3,102.4 L 249.3,102.5 L 249.2,103.1 L 249.1,103.2 L 248.9,103.5 L 248.5,104.0 L 248.2,104.7 L 248.0,105.2 L 247.8,105.7 L 247.6,106.3 L 247.6,106.6 L 247.9,107.2 L 248.1,107.5 L 248.3,107.7 L 248.5,108.2 L 248.7,108.7 L 248.8,109.4 L 248.6,109.7 L 248.5,110.0 L 248.2,110.1 L 247.8,110.5 L 247.6,111.1 L 247.4,111.7 L 247.5,112.3 L 247.8,113.0 L 247.8,113.6 L 247.8,114.2 L 247.8,114.8 L 247.8,115.1 L 247.7,115.3 L 247.6,115.6 L 247.4,116.1 L 247.2,116.8 L 247.2,117.4 L 247.3,117.9 L 247.3,118.5 L 247.3,119.2 L 247.6,119.7 L 248.0,120.3 L 247.9,120.9 L 248.1,121.5 L 248.2,122.1 L 248.2,122.2 L 248.1,122.6 L 247.9,123.1 L 247.8,123.7 L 247.6,124.4 L 247.5,125.0 L 247.4,125.7 L 247.3,126.3 L 247.1,126.8 L 247.2,126.8 L 247.1,127.2 L 246.9,127.9 L 246.7,128.5 L 246.7,129.0 L 246.5,129.6 L 246.3,130.2 L 246.0,130.9 L 245.8,131.5 L 245.6,132.0 L 245.3,132.6 L 244.9,133.2 L 244.7,133.8 L 244.5,134.1 L 244.5,134.2 L 244.3,134.7 L 243.9,135.3 L 243.6,135.5 L 243.4,135.6 L 243.2,135.8 L 243.0,136.1 L 242.8,136.3 L 242.5,136.8 L 242.4,137.0 L 242.1,137.4 L 242.0,137.5 L 241.7,138.1 L 241.6,138.4 L 241.5,138.7 L 241.3,139.4 L 241.3,139.9 L 241.1,140.2 L 240.8,140.9 L 240.6,141.4 L 240.4,142.0 L 240.3,142.6 L 240.0,143.2 L 239.8,143.8 L 239.5,144.3 L 239.3,144.8 L 239.0,145.4 L 238.8,145.9 L 238.6,146.5 L 238.3,147.1 L 238.1,147.6 L 237.9,148.2 L 237.7,148.7 L 237.4,149.3 L 237.3,149.4 L 237.1,149.8 L 236.8,150.3 L 236.4,150.9 L 236.2,151.0 L 236.2,151.0 L 236.0,151.4 L 235.9,151.6 L 235.6,152.0 L 235.3,152.6 L 235.0,153.2 L 234.7,153.8 L 234.3,154.4 L 234.1,154.8 L 233.8,155.3 L 233.6,155.6 L 233.6,155.7 L 233.2,156.3 L 232.9,156.6 L 232.5,157.1 L 232.2,157.6 L 231.9,158.2 L 231.9,158.8 L 231.8,159.4 L 231.5,159.7 L 231.1,160.3 L 230.7,160.7 L 230.2,161.1 L 229.6,161.5 L 229.2,162.0 L 229.1,162.2 L 229.2,162.5 L 229.0,163.1 L 228.7,163.3 L 228.1,163.6 L 227.8,163.6 L 227.6,163.7 L 227.5,163.8 L 227.1,164.3 L 226.8,164.8 L 226.9,165.4 L 226.7,165.8 L 226.4,166.2 L 226.1,166.7 L 225.9,167.3 L 225.9,167.5 L 226.3,167.9 L 226.4,168.1 L 226.3,168.3 L 226.1,168.9 L 225.9,169.4 L 225.6,170.0 L 225.2,170.5 L 224.9,171.0 L 224.5,171.5 L 224.0,172.1 L 223.9,172.3 L 223.7,172.9 L 223.4,173.5 L 223.2,174.0 L 222.9,174.6 L 222.8,174.7 L 222.6,174.8 L 222.0,175.0 L 221.9,175.1 L 221.5,175.7 L 221.1,176.2 L 220.7,176.8 L 220.2,177.3 L 219.7,177.7 L 219.6,177.8 L 219.6,178.0 L 220.1,178.4 L 220.5,178.9 L 221.0,179.3 L 221.5,179.7 L 221.8,180.1 L 222.1,180.5 L 222.2,180.6 L 222.3,181.3 L 222.3,181.7 L 222.1,182.1 L 221.9,182.3 L 221.7,183.0 L 221.5,183.6 L 221.4,184.2 L 221.2,184.6 L 220.8,185.1 L 220.5,185.6 L 220.2,186.2 L 220.2,186.4 L 220.3,186.5 L 220.7,186.9 L 221.1,187.4 L 221.0,187.7 L 221.0,188.1 L 221.2,188.6 L 221.3,188.7 L 221.3,189.0 L 221.2,189.3 L 221.2,190.0 L 221.4,190.5 L 221.5,191.1 L 221.6,191.5 L 221.7,191.7 L 221.9,192.3 L 222.2,192.8 L 222.4,193.2 L 223.0,193.6 L 223.4,194.1 L 223.5,194.8 L 223.3,195.4 L 223.4,196.0 L 223.8,196.5 L 224.2,197.0 L 224.3,197.2 L 224.3,197.5 L 224.3,197.6 L 224.3,197.8 L 224.0,198.3 L 223.6,198.7 L 223.4,199.3 L 223.5,199.7 L 223.8,200.2 L 223.8,200.6 L 223.7,200.8 L 223.5,201.0 L 223.4,201.2 L 223.3,201.9 L 223.4,202.6 L 223.5,203.1 L 223.6,203.3 L 223.8,203.4 L 224.3,203.7 L 224.6,203.8 L 224.8,203.6 L 225.1,203.6 L 225.4,203.7 L 226.0,203.9 L 226.4,204.4 L 226.4,204.6 L 226.4,205.1 L 226.3,205.3 L 226.1,205.6 L 226.0,205.9 L 226.0,206.1 L 226.1,206.4 L 226.6,206.9 L 226.7,206.9 L 227.0,207.3 L 227.5,207.6 L 228.1,207.7 L 228.2,207.8 L 228.4,208.2 L 228.4,208.6 L 228.4,208.8 L 228.7,209.1 L 229.1,209.6 L 229.3,210.2 L 229.5,210.8 L 229.4,211.0 L 229.3,211.5 L 229.1,212.1 L 229.0,212.5 L 228.9,212.7 L 229.0,213.2 L 229.2,213.5 L 229.3,213.6 L 230.0,213.9 L 230.5,214.2 L 231.1,214.5 L 231.6,214.7 L 231.8,214.9 L 232.1,215.3 L 232.3,215.7 L 232.4,216.2 L 232.4,216.9 L 232.4,217.6 L 232.6,218.2 L 232.9,218.8 L 233.0,219.5 L 233.2,220.1 L 233.3,220.3 L 233.4,220.7 L 233.8,221.0 L 234.2,221.4 L 234.8,221.6 L 235.7,222.0 L 235.7,222.1 L 236.0,222.2 L 236.2,222.1 L 236.3,222.1 L 236.8,221.6 L 237.0,221.3 L 237.0,221.3 L 237.4,220.9 L 238.0,220.8 L 238.3,220.8 L 238.9,220.8 L 239.3,220.9 L 239.5,221.2 L 239.9,221.6 L 240.1,221.9 L 240.1,222.1 L 239.8,222.6 L 239.3,223.0 L 239.0,223.6 L 238.8,224.3 L 238.5,224.8 L 238.6,225.0 L 238.7,225.1 L 239.0,225.1 L 239.2,225.0 L 239.5,224.6 L 239.7,224.6 L 240.1,224.8 L 240.6,225.1 L 241.1,225.4 L 241.6,225.7 L 242.1,225.9 L 242.1,225.9 L 242.1,226.0 L 242.1,226.1 L 242.1,226.1 L 241.9,226.5 L 241.9,226.8 L 242.0,227.5 L 242.1,227.7 L 242.2,228.0 L 242.5,228.4 L 242.6,228.5 L 243.0,228.9 L 243.2,228.9 L 243.4,229.0 L 243.8,229.0 L 244.0,229.1 L 244.3,229.3 L 244.4,229.6 L 244.6,230.2 L 244.9,230.8 L 244.9,231.4 L 244.8,232.1 L 244.7,232.2 L 244.1,232.5 L 244.3,233.1 L 244.4,233.7 L 244.6,234.1 L 244.6,234.4 L 244.6,235.1 L 244.7,235.3 L 244.8,235.4 L 244.9,235.3 L 245.4,234.9 L 245.6,234.9 L 245.9,235.0 L 246.4,235.4 L 246.6,235.8 L 246.7,236.3 L 246.9,236.8 L 246.9,237.5 L 246.9,238.1 L 246.8,238.7 L 246.8,239.4 L 246.6,240.0 L 246.5,240.7 L 246.5,241.3 L 246.6,241.8 L 246.7,242.4 L 246.8,242.7 L 247.1,243.4 L 247.2,244.0 L 247.1,244.6 L 247.1,245.3 L 247.0,245.8 L 246.9,246.4 L 246.8,247.0 L 246.8,247.3 L 246.9,247.9 L 246.9,248.6 L 246.9,249.2 L 246.8,249.8 L 246.6,250.3 L 246.3,250.9 L 246.0,251.4 L 245.7,251.9 L 245.1,252.2 L 244.8,252.5 L 244.6,252.7 L 244.1,253.1 L 243.6,253.4 L 243.1,253.9 L 242.6,254.2 L 242.2,254.5 L 242.2,254.6 L 242.1,254.6 L 241.7,255.1 L 241.5,255.2 L 241.3,255.3 L 241.1,255.3 L 240.8,255.7 L 240.5,255.8 L 240.4,256.0 L 239.9,256.5 L 239.4,257.0 L 238.8,257.4 L 238.4,257.7 L 238.3,258.0 L 238.6,258.4 L 238.6,258.6 L 238.6,259.3 L 238.4,259.6 L 238.2,259.8 L 238.0,259.8 L 237.9,259.9 L 237.3,260.0 L 237.1,260.1 L 236.9,260.5 L 236.6,261.1 L 236.5,261.7 L 236.5,262.0 L 236.6,262.0 L 236.8,262.0 L 237.0,261.8 L 237.0,261.3 L 237.2,260.6 L 237.3,260.5 L 237.4,260.6 L 237.3,261.2 L 237.3,261.4 L 237.4,261.7 L 237.6,261.9 L 237.9,262.5 L 237.9,262.8 L 237.8,263.4 L 237.6,264.0 L 237.5,264.2 L 237.5,264.3 L 236.9,264.9 L 236.8,265.4 L 236.5,266.0 L 236.5,266.6 L 236.3,266.9 L 236.0,267.4 L 235.9,267.4 L 235.6,267.8 L 235.2,268.2 L 234.8,268.6 L 234.4,269.1 L 234.0,269.5 L 233.7,270.0 L 233.5,270.6 L 233.4,270.9 L 233.3,271.1 L 233.3,271.3 L 233.6,271.6 L 233.7,271.8 L 233.7,272.0 L 233.8,272.5 L 233.6,272.8 L 233.3,273.3 L 232.8,273.9 L 232.8,274.2 L 233.0,274.9 L 232.8,275.2 L 232.5,275.7 L 232.1,276.2 L 231.7,276.5 L 231.6,276.5 L 231.2,276.9 L 230.8,277.2 L 230.3,277.6 L 230.0,278.1 L 229.8,278.2 L 229.3,278.6 L 228.8,278.9 L 228.4,279.3 L 228.0,279.8 L 227.5,280.2 L 227.2,280.6 L 226.9,281.2 L 226.7,281.7 L 226.8,282.3 L 226.7,282.9 L 226.7,283.5 L 226.6,284.1 L 226.6,284.7 L 226.7,285.4 L 226.8,285.9 L 226.9,286.5 L 226.9,287.0 L 226.9,287.7 L 226.7,288.3 L 226.7,288.8 L 226.5,289.4 L 226.3,289.9 L 226.0,290.5 L 225.6,290.9 L 225.2,291.5 L 225.0,291.7 L 224.5,292.2 L 224.2,292.7 L 224.1,293.4 L 224.0,293.4 L 224.0,294.2 L 223.9,294.7 L 223.9,295.3 L 223.9,296.0 L 224.1,296.3 L 224.5,296.6 L 224.9,297.1 L 225.3,297.6 L 225.5,298.2 L 225.7,298.8 L 225.8,299.5 L 226.0,299.8 L 226.1,300.4 L 226.1,301.1 L 226.1,301.6 L 226.1,302.2 L 225.9,302.7 L 225.5,303.2 L 225.1,303.5 L 224.7,303.9 L 224.2,304.2 L 224.0,304.2 L 223.8,304.4 L 223.7,304.5 L 223.8,304.9 L 224.0,305.2 L 224.0,305.6 L 224.0,305.8 L 223.8,306.3 L 223.7,306.8 L 223.7,306.9 L 223.6,307.4 L 223.3,307.9 L 223.1,308.2 L 222.8,308.3 L 222.1,308.5 L 221.5,308.6 L 220.8,308.6 L 220.2,308.5 L 220.1,308.5 L 220.0,308.3 L 219.9,308.1 L 219.8,307.5 L 219.7,306.9 L 219.6,306.2 L 219.6,305.6 L 219.5,304.9 L 219.4,304.3 L 219.4,304.1 L 219.1,303.9 L 219.0,304.0 L 218.8,304.4 L 218.7,305.0 L 218.7,305.5 L 218.9,305.8 L 218.8,305.9 L 218.8,306.0 L 218.7,306.0 L 218.5,306.1 L 217.9,306.1 L 217.2,306.0 L 216.6,306.0 L 216.0,306.0 L 215.9,306.1 L 216.0,306.2 L 216.7,306.3 L 217.3,306.5 L 217.9,306.7 L 218.4,307.0 L 218.5,307.2 L 218.5,307.3 L 218.5,307.6 L 218.3,308.2 L 218.3,308.5 L 218.4,308.8 L 218.4,309.1 L 218.3,309.8 L 218.2,310.5 L 218.3,310.8 L 218.3,311.1 L 218.4,311.4 L 218.6,311.6 L 218.9,311.8 L 219.4,311.9 L 220.0,312.1 L 220.7,312.3 L 221.2,312.5 L 221.8,312.8 L 222.3,313.1 L 222.8,313.4 L 223.2,313.7 L 223.7,314.2 L 224.0,314.8 L 223.8,315.2 L 223.4,315.6 L 223.0,316.2 L 222.8,316.9 L 222.7,317.5 L 222.7,317.5 L 222.3,318.1 L 222.3,318.4 L 222.7,319.0 L 223.0,319.6 L 223.0,320.0 L 222.9,320.7 L 222.9,321.3 L 223.1,321.9 L 223.3,322.2 L 223.5,322.2 L 223.6,322.2 L 223.9,321.7 L 224.1,321.6 L 224.2,321.7 L 224.8,321.9 L 225.4,322.3 L 225.7,322.4 L 225.8,322.5 L 225.9,322.8 L 225.9,323.1 L 225.9,323.5 L 225.8,323.7 L 225.8,323.9 L 225.9,324.2 L 225.9,324.2 L 225.2,325.0 L 193.0,359.6 L 192.6,360.0 L 192.6,359.9 L 192.4,359.3 L 192.2,358.7 L 192.0,358.4 L 191.7,358.0 L 191.4,357.6 L 191.3,357.5 L 191.2,357.4 L 190.7,357.2 L 190.2,357.1 L 189.6,356.8 L 189.1,356.6 L 188.4,356.6 L 188.1,356.6 L 187.6,356.2 L 187.5,356.2 L 187.2,356.1 L 186.6,355.9 L 186.1,355.6 L 186.0,355.5 L 185.4,355.3 L 184.9,355.1 L 184.3,354.9 L 183.7,354.7 L 183.0,354.5 L 182.4,354.4 L 181.8,354.3 L 181.2,354.2 L 180.6,354.1 L 180.1,354.1 L 179.4,354.1 L 178.8,354.1 L 178.2,354.0 L 177.7,353.9 L 177.1,353.8 L 176.5,353.7 L 175.8,353.6 L 175.2,353.5 L 174.6,353.3 L 174.0,353.1 L 173.7,353.0 L 173.5,353.0 L 173.0,352.6 L 172.9,352.3 L 172.4,352.0 L 171.8,351.6 L 171.8,351.5 L 171.8,351.3 L 171.7,351.1 L 171.5,350.9 L 171.3,350.7 L 171.3,350.7 L 171.1,350.0 L 171.0,349.4 L 171.0,349.3 L 171.0,348.7 L 171.0,348.5 L 171.0,348.4 L 170.9,348.1 L 170.8,347.7 L 170.8,347.5 L 170.8,347.3 L 170.5,346.8 L 170.3,346.6 L 170.2,346.4 L 169.9,345.8 L 169.6,345.3 L 169.3,344.8 L 168.9,344.4 L 168.5,343.9 L 168.4,343.8 L 167.8,343.9 L 167.6,343.9 L 167.5,343.8 L 167.2,343.3 L 167.2,343.2 L 167.3,343.1 L 167.3,343.0 L 167.6,343.0 L 167.8,342.9 L 167.8,342.7 L 167.9,342.6 L 168.3,342.5 L 168.7,342.7 L 168.9,342.6 L 168.9,342.5 L 168.8,342.3 L 168.6,342.1 L 168.3,342.0 L 168.1,342.0 L 167.7,342.3 L 167.2,342.4 L 166.8,342.7 L 166.3,342.8 L 166.3,342.6 L 166.2,342.5 L 166.2,342.4 L 166.2,342.3 L 166.3,342.2 L 166.4,341.5 L 166.5,341.3 L 166.5,341.0 L 166.2,340.5 L 165.8,340.0 L 165.6,339.8 L 165.0,339.5 L 164.6,339.3 L 164.4,339.2 L 163.8,339.0 L 163.3,338.8 L 162.8,338.6 L 162.1,338.2 L 162.1,338.2 L 161.8,337.8 L 161.5,337.3 L 161.3,337.2 L 160.9,337.0 L 160.8,336.9 L 160.6,336.8 L 160.5,336.8 L 160.5,336.7 L 160.3,336.6 L 160.0,336.4 L 160.0,336.0 L 160.0,335.5 L 160.0,334.9 L 160.0,334.4 L 159.9,333.7 L 160.0,333.1 L 160.0,332.6 L 159.9,332.0 L 159.7,331.6 L 159.7,331.6 L 159.5,331.0 L 159.4,330.8 L 159.2,330.3 L 158.6,328.6 L 158.4,328.2 L 158.2,327.6 L 157.8,327.0 L 157.3,326.6 L 156.8,326.2 L 156.5,325.7 L 156.3,325.0 L 156.4,324.4 L 156.5,323.8 L 156.6,323.2 L 156.7,322.6 L 156.7,321.9 L 156.6,321.3 L 156.4,320.7 L 156.3,320.1 L 156.1,319.6 L 155.8,319.0 L 155.5,318.4 L 155.2,318.1 L 154.8,317.7 L 154.4,317.2 L 154.3,316.6 L 154.2,316.0 L 154.2,315.4 L 154.3,314.7 L 154.5,314.2 L 154.8,313.8 L 155.0,313.6 L 155.3,313.5 L 155.8,313.4 L 155.9,313.3 L 156.4,312.9 L 156.5,312.8 L 156.7,312.2 L 157.0,311.7 L 157.0,311.3 L 157.0,311.1 L 157.1,310.7 L 157.0,310.4 L 156.7,309.9 L 156.5,309.7 L 156.0,309.3 L 155.6,308.9 L 155.3,308.4 L 154.9,307.8 L 154.6,307.3 L 154.3,306.7 L 154.0,306.2 L 153.9,305.7 L 153.9,305.6 L 153.8,305.1 L 153.8,304.9 L 154.0,304.4 L 154.0,303.9 L 153.9,303.5 L 153.7,303.2 L 153.1,302.8 L 152.6,302.5 L 152.4,302.4 L 152.1,302.3 L 151.4,302.1 L 151.0,301.6 L 150.6,301.2 L 150.3,300.6 L 150.2,300.3 L 150.2,299.7 L 150.3,299.2 L 150.3,298.6 L 150.5,298.1 L 150.9,297.5 L 151.1,297.0 L 151.1,296.5 L 151.1,296.3 L 151.1,295.6 L 151.3,294.9 L 151.5,294.3 L 151.7,293.9 L 151.8,293.2 L 152.0,292.5 L 152.2,291.9 L 152.3,291.3 L 152.4,290.7 L 152.5,290.0 L 152.6,289.5 L 152.7,288.9 L 152.8,288.3 L 152.8,287.7 L 152.9,287.1 L 153.0,286.5 L 153.1,285.9 L 153.2,285.3 L 153.4,284.7 L 153.4,284.0 L 153.4,283.4 L 153.1,283.0 L 153.1,282.7 L 153.1,282.1 L 153.2,281.6 L 153.3,281.0 L 153.3,280.4 L 153.2,280.3 L 152.9,280.1 L 152.6,280.2 L 152.4,280.5 L 152.2,281.1 L 152.2,281.8 L 152.0,282.1 L 151.7,282.2 L 151.2,282.3 L 151.1,282.3 L 150.9,282.1 L 151.0,281.5 L 150.8,281.4 L 150.8,281.5 L 150.9,281.6 L 150.8,282.1 L 150.6,282.2 L 150.3,282.1 L 149.7,281.9 L 149.2,281.6 L 148.7,281.3 L 148.6,281.3 L 148.4,281.0 L 148.2,280.7 L 148.1,280.5 L 148.0,279.8 L 147.9,279.2 L 147.9,278.5 L 147.9,277.9 L 148.0,277.2 L 148.1,276.5 L 148.1,276.5 L 148.2,275.8 L 148.3,275.1 L 148.3,275.0 L 148.4,274.6 L 148.5,273.9 L 148.5,273.3 L 148.6,272.7 L 148.6,272.0 L 148.7,271.4 L 148.8,270.8 L 148.8,270.3 L 148.8,269.6 L 148.9,269.1 L 149.3,268.5 L 149.3,267.8 L 149.5,267.3 L 149.6,266.7 L 149.7,266.2 L 149.9,265.6 L 150.3,265.2 L 150.5,265.1 L 150.5,265.0 L 150.4,264.9 L 150.0,264.9 L 149.8,264.5 L 149.7,264.0 L 149.6,263.9 L 149.5,263.4 L 149.5,262.9 L 149.6,262.7 L 149.8,262.1 L 150.0,261.6 L 150.1,261.5 L 150.1,261.0 L 150.0,260.4 L 150.0,259.9 L 150.1,259.3 L 150.3,258.7 L 150.6,258.1 L 150.9,257.6 L 151.0,257.0 L 151.1,256.4 L 151.3,255.7 L 151.4,255.2 L 151.5,254.6" fill="none" stroke="black" stroke-width="2"/>
</svg>