<?xml version="1.0" encoding="UTF-8"?>
<svg width="400" height="400" viewBox="0 0 400 400" xmlns="http://www.w3.org/2000/svg">
  <rect width="400" height="400" fill="white"/>
  <path d="M 48.5,233.5 L 40.0,175.5 L 40.0,175.5 L 41.9,174.7 L 42.8,174.5 L 43.9,174.0 L 47.4,171.4 L 48.4,170.9 L 49.1,170.6 L 49.5,171.4 L 50.0,171.2 L 50.2,170.7 L 50.7,170.1 L 51.7,169.8 L 55.4,168.8 L 57.7,168.9 L 58.9,167.8 L 59.5,167.7 L 59.9,167.1 L 60.1,167.2 L 60.4,167.8 L 60.9,168.2 L 61.3,168.1 L 62.1,166.8 L 63.7,166.7 L 65.4,167.2 L 66.3,167.5 L 67.2,167.7 L 67.4,168.0 L 67.9,167.7 L 68.3,167.4 L 68.4,167.5 L 69.3,167.8 L 69.6,167.7 L 70.2,167.9 L 70.8,168.1 L 71.3,168.5 L 72.0,168.7 L 74.7,168.9 L 75.5,169.2 L 75.7,169.3 L 76.1,169.8 L 76.2,170.9 L 76.5,171.2 L 77.9,171.0 L 78.9,170.7 L 81.0,170.4 L 81.4,169.7 L 82.0,169.5 L 82.2,169.4 L 83.6,168.7 L 85.2,168.3 L 87.5,168.2 L 88.8,168.0 L 89.7,167.8 L 92.3,166.8 L 93.7,166.7 L 94.6,167.1 L 95.3,167.7 L 96.6,168.8 L 97.6,169.2 L 98.9,169.5 L 99.7,169.9 L 100.5,171.1 L 102.5,171.4 L 103.8,171.0 L 105.8,169.4 L 105.9,169.3 L 108.2,168.4 L 109.9,168.2 L 110.7,167.6 L 111.1,167.5 L 111.3,167.3 L 114.2,166.3 L 115.6,166.2 L 116.5,165.8 L 117.1,165.8 L 118.7,166.8 L 122.0,166.6 L 122.7,166.4 L 124.3,166.8 L 125.5,167.6 L 126.8,168.1 L 127.4,168.0 L 128.3,168.0 L 129.3,168.4 L 131.2,167.8 L 132.1,167.7 L 132.6,167.9 L 133.8,167.9 L 134.7,168.3 L 135.3,167.9 L 136.3,167.8 L 139.0,167.8 L 141.5,168.0 L 142.9,168.4 L 144.5,169.8 L 144.9,169.7 L 145.4,169.0 L 146.0,168.8 L 146.7,169.1 L 147.5,169.1 L 147.7,168.9 L 148.3,169.3 L 149.2,169.5 L 149.6,169.8 L 150.3,170.6 L 150.9,170.9 L 153.4,170.9 L 155.1,171.2 L 155.7,171.5 L 156.6,171.8 L 157.2,172.4 L 158.9,173.2 L 160.2,173.9 L 161.2,174.9 L 161.5,175.8 L 161.8,176.4 L 161.8,176.8 L 161.9,176.9 L 161.9,177.3 L 162.3,178.0 L 163.3,179.1 L 163.8,179.2 L 164.3,179.6 L 164.8,180.2 L 165.2,180.3 L 166.8,181.6 L 166.9,181.7 L 169.7,182.2 L 170.1,182.6 L 170.9,182.3 L 171.5,181.9 L 172.9,182.0 L 173.9,181.7 L 174.4,181.8 L 175.2,181.6 L 175.7,181.2 L 176.2,180.6 L 179.3,178.9 L 180.6,178.3 L 181.7,177.9 L 183.0,177.8 L 183.7,177.6 L 185.0,177.4 L 185.8,177.0 L 186.8,177.0 L 187.7,177.2 L 190.3,176.9 L 190.5,176.8 L 191.1,176.7 L 191.4,176.7 L 192.3,176.8 L 194.4,176.5 L 195.1,176.7 L 196.7,176.4 L 197.8,176.4 L 198.7,176.0 L 199.0,175.9 L 200.1,175.9 L 200.6,176.2 L 201.4,176.2 L 201.9,175.9 L 204.2,176.3 L 205.0,175.9 L 206.3,175.4 L 207.7,175.4 L 208.6,175.5 L 209.4,175.4 L 209.6,175.4 L 210.8,175.3 L 210.9,175.2 L 211.5,175.1 L 211.8,175.2 L 212.7,175.3 L 213.5,175.2 L 214.2,175.0 L 214.3,174.8 L 214.8,174.3 L 215.6,173.8 L 216.3,173.3 L 217.1,172.9 L 217.7,172.7 L 218.6,172.5 L 219.4,172.4 L 220.2,172.3 L 221.0,171.9 L 221.9,171.6 L 222.2,171.6 L 222.8,171.6 L 223.1,171.6 L 223.9,171.5 L 224.2,171.6 L 224.8,171.5 L 225.6,171.2 L 226.2,171.1 L 226.9,171.0 L 227.8,171.0 L 228.6,171.0 L 229.4,171.3 L 229.6,171.5 L 230.2,171.4 L 231.0,171.4 L 231.7,171.6 L 232.4,172.0 L 233.1,172.3 L 233.9,172.5 L 234.2,172.4 L 234.6,172.1 L 234.8,171.7 L 235.2,171.4 L 236.0,171.2 L 236.5,171.2 L 237.3,171.2 L 237.4,171.2 L 238.0,171.0 L 238.7,170.9 L 239.6,170.9 L 240.0,170.9 L 240.7,171.1 L 241.5,171.0 L 242.3,171.0 L 242.6,170.9 L 242.9,170.9 L 243.7,170.8 L 244.6,170.9 L 245.4,170.7 L 245.8,170.7 L 246.3,170.5 L 246.7,170.6 L 247.1,170.9 L 247.5,170.9 L 247.9,170.6 L 248.1,170.5 L 248.6,170.5 L 249.1,170.4 L 249.7,170.4 L 250.4,170.3 L 251.2,170.2 L 251.5,170.1 L 252.0,170.1 L 252.9,170.0 L 253.7,169.9 L 254.4,169.8 L 255.3,169.7 L 256.0,169.7 L 256.9,169.7 L 257.6,169.7 L 258.4,169.5 L 259.1,169.6 L 259.8,169.6 L 260.7,169.6 L 261.6,169.7 L 262.5,169.9 L 263.3,170.2 L 264.1,170.4 L 264.9,170.6 L 265.2,170.9 L 265.4,171.3 L 265.7,171.5 L 266.1,171.4 L 266.3,171.5 L 266.8,171.8 L 267.4,172.3 L 268.1,172.8 L 268.9,173.4 L 269.2,173.4 L 269.4,173.4 L 269.9,173.3 L 270.4,173.5 L 271.0,173.7 L 271.9,173.8 L 272.6,174.2 L 273.0,174.6 L 273.5,174.9 L 273.7,175.0 L 274.4,175.0 L 274.9,175.2 L 275.2,175.6 L 275.9,176.0 L 276.0,176.0 L 276.7,176.3 L 276.9,176.5 L 277.2,176.8 L 277.3,177.0 L 277.4,177.3 L 277.5,177.9 L 277.6,178.2 L 277.7,178.8 L 277.7,179.6 L 278.1,180.1 L 278.5,180.6 L 279.4,181.1 L 280.1,181.3 L 280.7,181.3 L 281.4,181.2 L 282.3,181.3 L 283.1,181.5 L 283.8,181.6 L 284.5,181.5 L 284.7,181.4 L 285.4,181.1 L 285.6,181.1 L 286.3,181.4 L 286.8,182.0 L 287.2,182.0 L 287.8,181.6 L 288.3,181.6 L 288.6,181.9 L 288.8,182.3 L 289.0,182.6 L 289.2,182.9 L 289.6,183.2 L 290.4,183.6 L 291.3,183.7 L 291.9,183.8 L 292.3,183.6 L 292.9,183.6 L 293.8,183.9 L 294.0,184.1 L 294.6,184.7 L 295.0,184.9 L 295.7,185.0 L 296.6,185.2 L 296.8,185.3 L 297.0,185.7 L 297.7,186.0 L 298.5,186.1 L 298.8,186.2 L 299.2,186.2 L 300.1,185.9 L 300.9,186.0 L 301.2,186.1 L 301.7,186.4 L 301.8,186.5 L 301.8,187.1 L 301.6,187.4 L 301.1,187.6 L 300.5,187.7 L 300.5,188.1 L 300.7,188.2 L 301.4,188.3 L 301.6,188.7 L 301.5,188.9 L 301.4,189.0 L 301.1,189.2 L 301.0,189.4 L 301.1,189.7 L 301.8,190.2 L 302.4,190.5 L 303.1,190.6 L 303.9,190.3 L 304.3,190.3 L 304.4,190.4 L 304.3,190.9 L 304.7,191.2 L 304.6,191.7 L 304.7,191.9 L 305.2,192.0 L 305.9,192.1 L 306.1,191.8 L 306.8,191.6 L 307.5,191.3 L 307.9,190.8 L 308.5,190.5 L 309.2,190.2 L 309.9,190.0 L 310.7,190.0 L 311.2,190.5 L 311.4,191.0 L 311.6,191.0 L 312.3,190.9 L 312.8,191.2 L 313.5,191.3 L 314.3,191.4 L 315.1,191.6 L 315.8,191.7 L 316.2,191.6 L 317.0,191.4 L 317.2,191.5 L 317.5,191.5 L 318.2,191.8 L 318.7,192.4 L 319.2,193.2 L 319.7,193.4 L 319.9,193.5 L 320.1,193.9 L 320.6,194.0 L 321.1,194.3 L 321.6,194.4 L 322.5,194.5 L 322.8,194.4 L 323.2,194.2 L 324.0,194.2 L 324.4,194.4 L 325.1,194.6 L 325.8,194.7 L 326.1,194.7 L 326.8,194.8 L 327.5,194.8 L 328.3,194.6 L 329.2,194.6 L 330.0,194.4 L 330.8,194.4 L 331.5,194.5 L 331.9,194.3 L 332.8,194.3 L 333.5,194.4 L 334.2,194.4 L 335.2,194.5 L 336.0,194.7 L 336.7,194.9 L 337.5,195.1 L 338.1,195.3 L 338.9,195.5 L 339.7,195.8 L 340.4,196.2 L 341.0,196.5 L 341.8,196.7 L 342.7,196.8 L 343.5,196.8 L 344.0,196.7 L 344.2,196.7 L 345.0,196.6 L 345.8,196.7 L 346.6,196.5 L 347.4,196.6 L 348.3,196.6 L 349.0,196.4 L 349.2,196.6 L 349.6,196.5 L 349.6,196.1 L 350.0,195.9 L 350.7,195.9 L 351.6,196.0 L 352.3,196.1 L 353.0,196.2 L 353.6,196.3 L 354.3,196.7 L 354.4,196.9 L 354.7,197.5 L 355.0,197.8 L 355.8,198.1 L 355.8,198.1 L 355.8,198.4 L 355.9,199.1 L 355.9,199.7 L 355.9,199.9 L 355.9,199.9 L 355.7,200.0 L 355.8,200.2 L 355.9,200.3 L 356.0,200.5 L 356.0,200.8 L 356.0,201.3 L 356.0,201.4 L 355.9,201.4 L 355.4,201.7 L 354.6,201.8 L 354.3,201.9 L 354.0,202.4 L 354.0,202.7 L 354.1,203.0 L 354.4,203.2 L 355.0,203.4 L 355.6,203.6 L 356.1,204.7 L 356.2,205.1 L 356.2,205.1 L 356.2,205.1 L 356.9,205.4 L 357.5,205.3 L 358.6,205.1 L 359.3,205.5 L 359.7,206.6 L 360.0,209.7 L 358.6,211.5 L 358.5,211.7 L 358.5,212.0 L 358.0,212.3 L 356.9,213.3 L 356.7,213.4 L 356.6,213.9 L 356.2,214.4 L 356.0,214.9 L 355.8,215.1 L 355.3,215.4 L 355.1,215.9 L 355.0,216.7 L 355.0,217.6 L 354.7,218.5 L 354.5,219.2 L 354.4,219.8 L 354.3,219.8 L 353.4,220.0 L 353.1,220.2 L 352.9,220.4 L 352.5,220.3 L 352.5,220.2 L 352.4,220.2 L 352.3,220.6 L 352.9,220.7 L 352.9,221.0 L 353.4,221.1 L 353.7,221.3 L 353.7,221.7 L 353.1,222.4 L 352.9,222.8 L 352.8,223.1 L 352.6,224.0 L 352.4,224.6 L 352.1,225.2 L 351.6,225.9 L 351.3,226.5 L 350.9,227.1 L 350.4,227.9 L 350.0,228.2 L 349.8,228.4 L 349.0,228.7 L 348.3,228.8 L 347.8,229.0 L 347.3,229.4 L 347.0,230.0 L 347.1,230.3 L 347.7,230.7 L 348.4,231.2 L 348.5,231.4 L 348.4,231.5 L 347.6,231.4 L 347.4,231.4 L 347.0,232.2 L 346.8,232.3 L 346.2,232.2 L 345.9,232.2 L 345.7,232.0 L 345.7,231.8 L 345.6,231.5 L 344.7,231.4 L 344.3,231.3 L 344.1,231.5 L 344.0,231.5 L 343.9,231.7 L 343.2,232.0 L 343.0,232.1 L 342.6,232.7 L 342.4,232.9 L 341.7,233.0 L 341.2,233.2 L 340.6,233.4 L 340.0,233.6 L 339.2,233.7 L 338.5,233.9 L 337.6,234.2 L 337.5,234.2 L 337.2,234.2 L 337.0,234.0 L 337.0,234.0 L 336.9,233.8 L 336.1,233.8 L 335.8,233.7 L 335.4,233.2 L 334.8,232.8 L 334.8,232.8 L 334.2,232.5 L 333.7,232.2 L 333.0,232.0 L 332.5,231.8 L 332.4,231.8 L 331.7,231.6 L 331.4,231.5 L 331.4,231.1 L 331.0,231.1 L 330.8,231.5 L 330.7,231.6 L 330.1,231.6 L 329.4,231.7 L 328.6,231.6 L 328.3,231.5 L 328.2,231.5 L 328.2,231.3 L 328.0,231.3 L 327.8,231.5 L 327.3,231.6 L 326.4,231.6 L 326.0,231.6 L 325.4,231.7 L 325.0,231.6 L 324.5,231.5 L 323.8,231.5 L 323.3,231.4 L 322.8,231.3 L 322.3,231.2 L 321.7,231.1 L 321.2,231.0 L 320.6,231.0 L 320.1,231.0 L 319.6,231.0 L 318.8,231.0 L 318.1,231.0 L 317.2,231.1 L 316.7,231.2 L 316.1,231.2 L 315.5,231.3 L 315.0,231.4 L 314.5,231.5 L 313.9,231.5 L 313.1,231.4 L 312.4,231.4 L 311.7,231.4 L 311.3,231.4 L 310.6,231.6 L 309.8,231.9 L 309.0,231.9 L 308.3,231.7 L 307.5,231.5 L 306.7,231.3 L 305.8,231.1 L 305.0,231.0 L 304.2,230.9 L 303.5,230.9 L 302.7,231.0 L 302.5,230.9 L 302.4,230.8 L 302.0,230.5 L 301.4,230.1 L 300.6,229.8 L 300.4,229.7 L 299.7,229.6 L 299.0,229.5 L 298.1,229.4 L 297.5,229.4 L 296.8,229.4 L 296.1,229.2 L 295.5,229.1 L 294.7,229.1 L 294.3,229.1 L 294.1,229.1 L 293.3,229.1 L 292.6,229.1 L 291.8,229.1 L 290.9,229.0 L 290.2,228.8 L 289.6,228.7 L 288.7,228.5 L 287.9,228.4 L 287.2,228.2 L 286.9,228.1 L 286.6,227.4 L 286.2,226.7 L 285.8,226.1 L 285.3,225.5 L 285.0,224.7 L 284.8,223.9 L 284.3,223.3 L 283.6,223.0 L 282.9,222.8 L 282.0,223.0 L 281.5,223.2 L 281.4,223.5 L 281.3,223.8 L 281.4,224.4 L 281.7,224.7 L 282.5,224.9 L 282.7,225.2 L 282.7,226.1 L 282.5,226.4 L 281.8,226.9 L 281.6,227.0 L 280.8,227.0 L 280.2,226.7 L 279.7,226.1 L 278.9,225.6 L 278.2,225.2 L 277.8,225.0 L 277.4,224.5 L 277.3,224.4 L 277.6,224.1 L 277.7,223.9 L 277.7,223.2 L 277.9,223.0 L 277.7,222.6 L 277.1,222.1 L 276.8,221.6 L 276.6,220.8 L 276.5,220.7 L 276.1,220.5 L 275.3,220.5 L 274.6,220.6 L 274.0,220.6 L 273.3,220.9 L 272.7,221.3 L 272.0,221.8 L 271.6,222.0 L 271.4,221.9 L 271.0,221.3 L 270.7,220.6 L 270.0,220.1 L 269.5,220.0 L 269.4,220.0 L 269.2,220.2 L 269.2,220.6 L 269.1,220.8 L 268.9,220.9 L 268.3,220.9 L 267.9,221.1 L 267.7,221.1 L 267.3,220.8 L 266.7,220.7 L 266.6,220.4 L 266.6,219.8 L 266.8,219.6 L 267.0,219.6 L 267.5,219.9 L 267.9,220.3 L 268.1,220.3 L 268.3,220.1 L 268.4,219.9 L 268.6,219.3 L 268.5,219.1 L 268.1,218.7 L 267.7,218.5 L 267.3,218.3 L 266.6,217.8 L 266.2,217.5 L 265.9,217.4 L 265.0,217.3 L 264.4,217.4 L 263.6,217.4 L 262.9,217.6 L 262.3,217.7 L 262.2,217.7 L 261.5,217.6 L 260.7,217.7 L 260.1,217.9 L 259.3,218.1 L 258.5,218.3 L 258.1,218.5 L 257.3,218.3 L 256.4,218.3 L 255.5,218.4 L 254.9,218.2 L 254.3,218.2 L 253.5,218.5 L 253.4,218.5 L 252.7,217.9 L 252.0,217.4 L 251.5,217.0 L 251.5,216.9 L 251.1,216.5 L 250.6,216.2 L 250.0,215.7 L 249.5,215.4 L 248.8,215.1 L 248.7,214.9 L 248.6,214.2 L 248.3,213.4 L 248.1,212.8 L 247.9,212.5 L 247.6,212.4 L 246.7,212.2 L 246.0,211.8 L 245.7,211.7 L 245.5,211.9 L 245.1,212.4 L 244.9,213.1 L 244.7,213.7 L 244.5,214.5 L 244.1,215.0 L 243.4,215.4 L 243.0,215.6 L 242.7,215.7 L 242.1,215.6 L 241.4,215.4 L 240.7,215.1 L 240.1,214.9 L 239.3,214.9 L 238.4,215.0 L 237.7,215.2 L 237.4,215.2 L 237.0,214.9 L 236.5,214.2 L 236.4,214.1 L 236.2,213.9 L 235.9,213.8 L 235.3,214.0 L 234.5,214.3 L 234.1,214.6 L 233.7,214.7 L 233.5,214.5 L 233.1,214.0 L 232.3,213.8 L 232.1,213.9 L 231.7,214.2 L 231.5,214.4 L 231.2,214.5 L 230.9,214.5 L 230.4,214.0 L 229.7,213.8 L 229.2,213.3 L 228.9,212.6 L 228.7,212.3 L 228.7,212.0 L 228.8,211.8 L 229.4,211.3 L 230.1,210.9 L 230.1,210.7 L 229.8,210.0 L 229.9,209.5 L 229.8,209.3 L 229.7,209.1 L 229.5,209.1 L 228.8,209.1 L 228.1,209.3 L 227.3,209.6 L 226.5,210.0 L 225.8,210.4 L 225.1,210.8 L 224.6,211.3 L 223.9,211.7 L 223.3,212.2 L 222.5,212.7 L 221.8,213.1 L 221.1,213.6 L 220.4,214.0 L 219.6,214.4 L 218.8,214.6 L 218.1,214.5 L 217.6,214.3 L 217.1,214.5 L 216.5,214.9 L 215.8,215.2 L 215.2,215.2 L 215.0,215.0 L 214.7,214.2 L 214.6,213.4 L 214.5,212.8 L 214.3,212.6 L 213.5,212.5 L 212.8,212.4 L 211.9,212.4 L 211.1,212.4 L 210.2,212.5 L 209.4,212.5 L 207.1,213.5 L 205.4,214.4 L 204.2,215.1 L 201.3,216.2 L 199.6,216.3 L 197.6,215.3 L 195.9,214.5 L 192.4,212.7 L 190.3,212.0 L 188.4,211.0 L 187.1,211.2 L 185.2,212.5 L 184.3,212.9 L 181.9,213.3 L 181.5,213.4 L 180.9,213.8 L 180.8,214.3 L 180.5,214.6 L 179.9,214.5 L 180.0,214.2 L 180.6,213.6 L 181.0,213.3 L 181.3,212.6 L 180.4,211.1 L 179.3,210.4 L 177.7,210.5 L 176.4,210.9 L 175.3,211.1 L 174.3,211.4 L 173.8,212.0 L 173.6,212.8 L 174.0,213.2 L 173.8,213.7 L 173.9,213.9 L 174.8,213.7 L 175.3,213.6 L 175.7,213.7 L 176.0,214.6 L 176.9,214.8 L 178.2,215.6 L 178.6,216.3 L 178.5,216.9 L 178.1,217.3 L 177.4,217.4 L 175.8,216.9 L 175.6,216.7 L 175.4,216.2 L 173.8,215.9 L 173.5,215.7 L 173.3,215.4 L 173.5,214.8 L 173.4,214.5 L 173.1,214.5 L 172.8,215.3 L 172.6,215.6 L 172.2,215.7 L 171.8,215.4 L 171.7,214.8 L 171.3,214.4 L 170.1,214.5 L 169.7,214.9 L 169.2,216.4 L 168.7,216.9 L 167.7,217.0 L 166.1,216.8 L 165.7,216.5 L 165.6,215.5 L 165.0,214.6 L 162.8,214.3 L 162.3,214.3 L 159.4,214.1 L 158.9,214.1 L 157.9,214.1 L 157.0,213.8 L 156.2,213.5 L 155.0,213.4 L 153.2,213.4 L 152.1,213.7 L 151.9,213.8 L 151.0,214.2 L 150.3,215.0 L 149.8,215.7 L 149.0,215.8 L 148.6,215.7 L 148.2,215.4 L 147.4,215.2 L 147.1,215.2 L 146.9,215.1 L 146.1,214.8 L 143.6,215.0 L 142.6,213.9 L 141.1,213.3 L 139.3,212.8 L 137.8,212.6 L 136.4,211.8 L 134.6,210.0 L 134.1,209.1 L 133.5,208.1 L 132.9,207.9 L 132.4,207.9 L 131.6,209.1 L 130.5,211.4 L 129.8,212.1 L 129.5,212.5 L 128.8,212.9 L 127.4,213.5 L 125.1,213.9 L 124.1,214.2 L 122.4,214.4 L 120.6,214.0 L 119.3,214.1 L 119.0,213.5 L 118.4,213.0 L 117.5,212.5 L 115.6,211.0 L 114.0,210.3 L 112.9,209.1 L 111.2,209.0 L 110.2,208.7 L 109.7,208.3 L 110.0,207.5 L 109.7,207.4 L 108.3,207.9 L 107.4,209.0 L 107.4,209.2 L 106.7,210.4 L 106.1,211.7 L 105.4,213.0 L 104.6,213.7 L 104.3,213.9 L 103.7,214.8 L 102.9,215.5 L 101.3,216.1 L 100.1,217.1 L 99.4,217.6 L 98.7,217.8 L 97.3,217.9 L 95.1,218.3 L 93.3,218.8 L 91.6,219.1 L 88.2,219.6 L 86.7,220.0 L 84.3,220.7 L 83.1,220.8 L 81.2,220.9 L 76.5,220.8 L 74.0,220.9 L 71.9,221.8 L 70.1,222.3 L 66.9,223.6 L 66.3,223.9 L 65.1,224.5 L 64.4,224.6 L 60.9,227.2 L 58.9,228.2 L 55.6,230.5 L 53.6,231.6 L 53.0,231.9 L 50.6,232.4 L 49.4,232.9 L 48.5,233.5" fill="none" stroke="black" stroke-width="2"/>
</svg>