<?xml version="1.0" encoding="UTF-8"?>
<svg width="400" height="400" viewBox="0 0 400 400" xmlns="http://www.w3.org/2000/svg">
  <rect width="400" height="400" fill="white"/>
  <path d="M 42.2,233.5 L 42.4,233.4 L 43.1,232.6 L 43.5,232.6 L 43.6,232.5 L 44.5,233.0 L 45.0,233.0 L 45.5,232.8 L 45.9,232.4 L 46.4,231.3 L 46.9,230.3 L 47.2,229.5 L 46.1,229.2 L 45.0,228.9 L 44.6,228.7 L 44.3,227.7 L 44.1,226.4 L 44.2,226.4 L 44.2,226.4 L 44.9,225.8 L 45.0,225.8 L 45.3,225.9 L 46.1,225.8 L 46.7,225.9 L 47.1,226.0 L 48.1,226.2 L 49.4,226.0 L 50.6,225.6 L 51.8,225.2 L 52.2,224.8 L 52.8,223.6 L 53.6,222.5 L 54.6,222.0 L 55.9,222.1 L 57.2,222.5 L 57.9,222.8 L 59.0,223.6 L 59.6,224.7 L 60.0,225.8 L 60.4,226.4 L 61.3,227.5 L 61.9,227.8 L 62.7,228.1 L 64.0,228.1 L 64.4,227.9 L 64.6,227.5 L 64.3,226.7 L 64.5,226.2 L 64.7,226.1 L 66.2,223.7 L 66.3,222.7 L 66.8,221.6 L 68.1,221.3 L 68.9,220.4 L 68.8,220.0 L 68.8,219.1 L 68.9,217.8 L 70.0,217.7 L 71.4,217.3 L 72.6,217.2 L 72.8,217.1 L 74.0,216.9 L 74.4,216.7 L 75.5,216.4 L 76.3,215.7 L 77.7,215.5 L 79.5,214.1 L 84.8,213.3 L 86.4,211.7 L 88.1,212.6 L 89.2,212.5 L 89.9,212.2 L 91.3,212.5 L 92.9,212.3 L 95.0,210.7 L 95.0,210.6 L 95.4,210.4 L 96.7,209.8 L 97.6,209.5 L 98.8,209.2 L 99.2,208.5 L 100.2,207.7 L 100.4,207.4 L 100.4,206.2 L 101.1,205.3 L 102.2,204.6 L 103.3,204.0 L 104.4,203.5 L 105.5,203.3 L 105.6,203.1 L 105.9,202.7 L 106.3,202.3 L 107.8,200.3 L 108.4,197.4 L 108.6,195.9 L 109.1,195.2 L 110.1,193.9 L 110.4,192.9 L 111.7,190.7 L 112.3,188.8 L 112.4,187.4 L 112.7,186.2 L 113.5,184.4 L 115.0,184.2 L 116.1,183.0 L 116.6,181.7 L 116.4,177.6 L 116.7,175.8 L 116.8,173.9 L 117.2,172.8 L 117.2,172.1 L 116.6,171.5 L 116.3,169.4 L 116.5,168.2 L 116.4,166.1 L 115.5,164.7 L 115.2,161.7 L 113.8,159.8 L 112.6,158.4 L 110.9,154.6 L 109.5,152.6 L 109.1,150.9 L 109.0,150.6 L 107.4,148.6 L 105.1,146.3 L 104.9,144.8 L 104.2,143.9 L 103.3,141.2 L 102.8,140.5 L 102.2,139.9 L 110.0,133.3 L 110.3,133.6 L 110.6,133.9 L 111.2,133.8 L 111.6,133.6 L 112.2,133.5 L 112.4,133.2 L 112.3,132.3 L 112.6,131.5 L 113.5,130.8 L 115.0,130.1 L 116.3,129.8 L 117.5,129.6 L 118.1,129.2 L 119.1,128.3 L 120.3,127.3 L 121.3,126.5 L 121.8,126.6 L 122.4,126.9 L 122.9,127.4 L 123.6,128.3 L 123.8,128.5 L 125.2,129.0 L 125.8,129.4 L 126.3,129.9 L 127.6,130.8 L 128.7,131.1 L 129.3,131.0 L 129.9,130.1 L 130.1,129.5 L 130.1,128.8 L 129.4,127.3 L 129.5,127.2 L 129.6,126.9 L 129.9,126.5 L 129.9,126.1 L 129.6,125.6 L 129.1,125.1 L 144.2,117.9 L 144.4,117.8 L 144.4,117.8 L 144.4,118.5 L 144.7,119.1 L 145.2,119.5 L 145.9,120.6 L 146.3,121.1 L 146.5,121.6 L 146.5,122.2 L 147.1,123.5 L 147.9,125.0 L 148.3,126.4 L 148.3,127.1 L 147.9,128.6 L 147.4,129.9 L 147.2,130.6 L 147.2,131.2 L 147.9,132.5 L 148.6,133.7 L 148.9,134.3 L 149.3,134.8 L 150.5,135.4 L 152.2,135.9 L 152.7,136.1 L 154.2,137.2 L 155.1,137.9 L 155.4,138.0 L 156.0,139.6 L 156.8,140.8 L 157.6,142.1 L 158.4,143.3 L 159.4,144.8 L 160.4,146.1 L 161.6,147.4 L 162.2,148.0 L 162.9,149.5 L 163.3,150.1 L 164.6,151.4 L 165.8,152.5 L 166.2,153.2 L 166.7,154.7 L 166.7,156.1 L 167.0,156.8 L 168.1,158.1 L 168.8,158.7 L 169.5,159.1 L 170.9,159.4 L 171.4,159.8 L 172.3,161.1 L 173.2,162.2 L 173.9,163.3 L 174.6,164.4 L 175.3,165.6 L 176.0,167.1 L 177.0,168.3 L 176.6,168.7 L 175.6,168.1 L 175.0,168.0 L 174.5,167.7 L 173.9,167.7 L 172.7,168.3 L 172.4,168.8 L 172.5,169.4 L 173.1,170.6 L 173.7,171.9 L 174.6,173.0 L 175.8,174.0 L 177.0,175.1 L 178.3,176.1 L 179.7,176.9 L 181.1,177.4 L 181.7,177.6 L 182.4,178.2 L 182.9,178.2 L 183.6,178.1 L 183.7,177.8 L 183.6,177.5 L 185.0,177.3 L 185.5,177.1 L 185.8,176.7 L 185.8,176.1 L 185.0,174.6 L 184.9,173.7 L 184.2,172.7 L 184.1,172.2 L 184.4,171.7 L 185.0,171.4 L 185.6,171.4 L 186.2,171.9 L 186.6,172.4 L 187.1,173.7 L 187.3,174.2 L 187.8,174.8 L 189.3,175.3 L 190.8,175.8 L 192.4,176.2 L 193.3,176.6 L 194.7,177.7 L 196.1,178.7 L 196.8,178.9 L 198.3,178.9 L 199.5,178.4 L 199.5,177.8 L 199.5,177.4 L 200.5,176.2 L 200.8,175.5 L 200.9,173.9 L 200.7,173.1 L 200.0,171.4 L 199.6,169.7 L 199.2,167.9 L 198.6,166.1 L 198.2,164.4 L 197.8,162.7 L 197.3,161.1 L 196.5,159.7 L 195.9,159.0 L 194.4,158.1 L 193.6,157.7 L 192.9,156.9 L 192.3,156.2 L 191.6,154.4 L 191.1,152.6 L 190.9,150.9 L 190.9,150.1 L 191.3,149.4 L 191.2,148.7 L 190.1,147.2 L 189.8,146.3 L 189.6,144.6 L 189.4,142.8 L 189.3,141.2 L 189.1,140.4 L 188.7,139.8 L 188.1,139.3 L 187.4,138.8 L 186.6,138.6 L 185.1,138.3 L 184.4,137.0 L 183.4,135.8 L 182.2,134.7 L 181.5,134.1 L 180.5,132.7 L 179.3,131.6 L 178.0,130.7 L 177.5,130.5 L 177.1,130.0 L 176.9,129.3 L 176.8,128.1 L 177.2,127.0 L 178.1,125.9 L 178.4,125.3 L 178.6,124.8 L 178.7,123.7 L 178.5,123.2 L 178.2,122.7 L 177.8,122.5 L 177.1,122.3 L 176.5,122.4 L 175.9,122.1 L 174.8,121.0 L 174.2,120.7 L 172.8,120.8 L 171.3,121.1 L 169.8,121.4 L 168.4,121.6 L 167.0,121.9 L 165.7,122.0 L 165.0,122.2 L 163.9,123.0 L 162.8,123.6 L 162.4,123.8 L 160.8,123.9 L 160.8,123.7 L 160.9,122.5 L 160.6,122.0 L 160.2,121.9 L 159.3,122.8 L 158.8,123.2 L 158.2,123.1 L 156.9,122.2 L 155.6,121.1 L 154.8,120.4 L 153.5,119.1 L 152.4,117.9 L 151.3,116.7 L 151.0,116.0 L 150.9,114.4 L 151.0,113.1 L 150.7,112.6 L 150.1,112.5 L 148.6,113.1 L 147.9,113.1 L 146.7,112.1 L 145.4,111.7 L 144.7,111.6 L 144.2,111.3 L 143.7,110.7 L 143.1,109.5 L 142.8,108.9 L 142.7,108.8 L 146.9,87.9 L 147.0,87.4 L 148.1,87.7 L 149.3,88.2 L 150.4,88.9 L 151.5,89.2 L 152.4,89.4 L 152.3,89.1 L 151.5,88.4 L 151.4,88.0 L 151.6,87.5 L 152.1,87.2 L 152.8,87.4 L 153.4,87.5 L 154.6,88.2 L 155.4,89.1 L 156.4,89.9 L 157.2,90.9 L 157.6,91.4 L 158.2,91.5 L 158.7,91.1 L 158.7,90.5 L 158.4,89.8 L 158.1,89.0 L 157.8,88.4 L 157.8,87.6 L 157.9,86.8 L 158.1,86.1 L 158.2,85.3 L 158.4,84.5 L 158.5,83.8 L 158.7,83.0 L 159.0,82.4 L 159.6,81.9 L 160.7,81.3 L 161.6,80.9 L 162.0,81.1 L 162.4,81.3 L 162.6,82.6 L 163.2,83.6 L 163.7,84.1 L 164.1,84.3 L 164.3,84.4 L 165.1,84.7 L 165.7,85.0 L 166.4,85.3 L 167.0,85.6 L 167.7,86.0 L 168.4,86.3 L 169.7,86.8 L 170.3,87.0 L 170.7,86.7 L 170.8,85.6 L 171.3,85.2 L 172.5,84.6 L 173.5,84.6 L 173.6,84.7 L 174.5,85.3 L 175.7,86.0 L 176.7,86.6 L 177.6,87.4 L 178.1,87.7 L 179.3,87.8 L 180.0,88.0 L 180.7,88.3 L 181.4,88.5 L 182.8,88.9 L 183.5,89.0 L 185.0,89.1 L 185.6,89.2 L 186.3,89.4 L 187.0,89.7 L 187.8,90.0 L 188.5,90.3 L 189.3,90.8 L 190.0,91.1 L 190.7,91.5 L 191.5,91.8 L 192.3,92.2 L 193.2,92.5 L 194.0,92.7 L 194.8,93.0 L 195.6,93.3 L 196.4,93.5 L 197.1,93.8 L 197.9,94.2 L 198.8,94.4 L 199.5,94.8 L 200.3,95.1 L 201.1,95.3 L 201.8,95.5 L 202.5,95.8 L 203.1,96.2 L 204.0,97.0 L 204.5,97.2 L 205.0,97.8 L 205.4,98.4 L 205.9,99.0 L 206.3,99.7 L 206.8,100.3 L 207.2,101.0 L 207.6,101.7 L 208.0,102.5 L 208.5,103.2 L 208.8,103.9 L 209.2,104.7 L 209.5,105.4 L 209.7,106.2 L 209.8,106.9 L 209.8,107.6 L 210.0,108.2 L 210.4,108.8 L 211.4,109.5 L 211.6,110.7 L 211.7,111.5 L 211.8,112.8 L 212.1,113.4 L 212.4,113.7 L 213.1,114.3 L 213.6,114.6 L 214.2,114.7 L 214.9,114.6 L 215.6,114.5 L 216.0,114.6 L 216.2,114.9 L 215.0,115.3 L 214.8,115.6 L 215.3,116.6 L 215.8,117.1 L 216.2,117.7 L 216.8,118.3 L 217.5,118.8 L 218.2,119.3 L 218.9,119.8 L 219.6,120.3 L 220.8,121.0 L 221.1,121.3 L 221.1,122.3 L 221.7,123.2 L 222.2,123.7 L 222.9,124.1 L 223.5,124.6 L 224.3,125.0 L 225.0,125.4 L 225.6,125.7 L 226.0,125.6 L 226.1,124.4 L 225.9,123.4 L 226.0,123.1 L 226.9,123.5 L 227.6,124.0 L 228.1,124.5 L 228.7,125.0 L 229.2,125.5 L 230.3,126.4 L 231.3,127.2 L 232.0,127.6 L 232.7,128.0 L 233.3,128.4 L 234.0,128.8 L 234.6,129.0 L 235.3,129.4 L 236.4,130.2 L 236.7,130.7 L 236.8,131.1 L 236.5,131.3 L 235.8,131.2 L 234.9,131.0 L 234.1,130.9 L 232.7,130.8 L 232.2,130.5 L 231.3,129.6 L 231.1,129.8 L 231.0,130.4 L 230.7,130.9 L 230.3,130.7 L 229.8,130.2 L 229.2,129.7 L 228.6,129.2 L 227.9,128.8 L 227.3,128.8 L 226.8,129.1 L 226.8,129.6 L 227.3,130.2 L 228.1,130.7 L 229.1,131.5 L 230.1,132.1 L 230.4,132.5 L 230.6,133.5 L 231.2,134.6 L 231.9,135.6 L 232.4,136.6 L 233.4,137.4 L 234.0,137.7 L 235.1,137.8 L 235.7,137.8 L 236.3,138.0 L 236.7,138.3 L 236.9,138.7 L 236.0,139.4 L 235.8,139.8 L 235.8,140.9 L 235.4,142.2 L 235.1,142.8 L 234.7,143.3 L 234.1,143.5 L 232.9,143.6 L 232.4,143.7 L 232.3,144.2 L 233.3,145.0 L 233.2,145.5 L 232.5,146.7 L 232.2,147.2 L 232.3,147.7 L 233.2,148.4 L 233.7,148.8 L 233.7,148.9 L 234.1,149.7 L 234.8,150.7 L 234.7,151.7 L 234.9,152.0 L 236.2,151.8 L 237.5,152.3 L 238.5,153.1 L 239.1,153.4 L 239.8,153.9 L 240.4,154.4 L 241.1,155.0 L 241.8,155.4 L 241.8,155.4 L 242.5,155.8 L 243.3,156.1 L 244.0,156.6 L 244.7,156.9 L 246.0,157.5 L 246.5,157.7 L 247.6,157.7 L 248.6,158.2 L 249.6,158.9 L 250.8,159.5 L 251.3,159.7 L 252.1,160.0 L 252.6,160.3 L 253.5,161.1 L 254.5,161.6 L 254.8,161.8 L 255.1,162.5 L 255.1,162.9 L 255.1,163.7 L 255.2,165.1 L 255.8,166.3 L 256.4,167.5 L 256.7,168.2 L 257.1,169.5 L 257.3,170.8 L 257.8,171.8 L 258.5,172.9 L 259.0,174.1 L 259.4,175.4 L 259.9,176.6 L 260.4,177.8 L 261.1,178.8 L 262.0,179.8 L 263.2,180.5 L 263.9,180.7 L 264.6,180.9 L 265.3,181.1 L 265.9,181.4 L 266.6,181.8 L 267.4,182.2 L 268.1,182.4 L 268.2,182.5 L 268.8,182.8 L 269.5,183.1 L 270.2,183.6 L 270.8,184.1 L 271.5,184.5 L 272.2,185.0 L 272.9,185.5 L 273.5,186.1 L 274.1,186.6 L 275.1,187.4 L 275.6,188.2 L 276.0,188.8 L 276.5,189.5 L 276.9,190.1 L 277.4,190.8 L 277.8,191.5 L 278.3,192.1 L 278.8,192.8 L 279.4,193.4 L 280.0,193.9 L 280.6,194.5 L 281.2,195.1 L 281.8,195.7 L 282.5,196.2 L 283.0,196.8 L 283.6,197.4 L 284.3,197.9 L 284.9,198.4 L 285.5,198.8 L 286.1,199.4 L 286.6,199.9 L 287.2,200.4 L 287.8,200.8 L 289.0,201.4 L 290.3,201.8 L 291.6,202.4 L 292.0,202.7 L 292.5,203.2 L 292.8,204.2 L 292.9,205.4 L 293.3,206.8 L 293.4,207.0 L 293.6,207.1 L 293.2,207.5 L 292.8,207.4 L 292.5,207.6 L 293.1,208.2 L 293.7,208.5 L 293.8,208.3 L 293.6,207.9 L 294.4,207.6 L 294.4,207.6 L 295.5,208.0 L 295.8,208.5 L 296.2,209.4 L 296.3,209.6 L 296.4,211.1 L 296.4,211.8 L 296.4,212.5 L 296.5,213.2 L 296.5,214.1 L 296.4,215.4 L 296.1,216.8 L 296.0,217.7 L 296.0,218.7 L 296.0,219.2 L 296.6,220.0 L 297.1,220.5 L 297.4,221.1 L 297.5,222.2 L 297.7,222.6 L 297.2,223.0 L 296.9,222.4 L 296.3,222.8 L 297.4,224.2 L 297.9,223.9 L 297.5,223.3 L 298.0,223.0 L 298.6,223.6 L 299.5,224.7 L 300.1,225.8 L 300.8,226.6 L 301.6,227.6 L 302.1,228.2 L 302.6,228.7 L 303.0,229.3 L 303.6,229.9 L 304.1,230.4 L 304.7,230.9 L 305.2,231.4 L 305.7,232.0 L 306.6,232.9 L 307.0,233.0 L 307.2,233.2 L 307.3,233.2 L 307.3,233.7 L 307.0,234.3 L 307.1,235.3 L 307.7,236.4 L 308.4,237.4 L 308.8,237.8 L 309.9,238.5 L 310.4,238.7 L 310.9,238.5 L 311.4,238.4 L 311.7,238.7 L 311.7,239.9 L 312.3,241.0 L 312.7,241.5 L 312.5,242.2 L 311.8,242.0 L 311.5,242.5 L 313.7,242.9 L 313.8,242.5 L 313.1,242.3 L 313.2,242.0 L 314.3,242.0 L 315.1,242.7 L 315.5,243.1 L 315.6,243.6 L 314.1,243.9 L 314.2,244.2 L 312.9,244.5 L 313.0,245.0 L 316.6,244.5 L 316.8,244.6 L 317.2,245.8 L 317.4,246.3 L 318.3,247.0 L 319.4,247.7 L 319.6,247.8 L 320.5,248.8 L 320.5,249.8 L 320.5,249.9 L 320.6,250.4 L 320.9,251.8 L 321.0,252.8 L 320.9,254.2 L 320.9,254.9 L 320.9,255.7 L 320.8,256.5 L 320.9,257.7 L 321.0,258.0 L 321.3,257.8 L 321.7,257.3 L 322.1,257.4 L 322.8,257.8 L 323.8,258.5 L 324.8,259.2 L 325.6,259.8 L 325.7,259.9 L 326.1,259.6 L 326.0,259.3 L 325.6,258.8 L 324.7,258.1 L 324.7,257.9 L 325.3,257.5 L 325.7,257.4 L 326.6,257.6 L 327.7,257.6 L 328.7,257.4 L 328.7,257.4 L 328.8,257.6 L 328.8,258.1 L 329.0,259.1 L 329.7,259.5 L 330.3,259.9 L 330.7,260.2 L 331.0,260.3 L 331.7,260.8 L 332.7,261.3 L 333.7,261.8 L 334.5,262.6 L 335.3,263.7 L 336.0,264.7 L 336.6,264.8 L 337.5,264.8 L 337.8,264.8 L 338.2,265.7 L 338.3,266.0 L 338.4,266.0 L 340.0,267.2 L 342.7,267.9 L 343.4,268.9 L 344.0,269.3 L 346.1,270.0 L 348.5,269.4 L 351.8,269.7 L 352.2,270.4 L 353.5,271.0 L 353.9,271.1 L 354.7,272.4 L 354.7,272.8 L 355.2,275.5 L 355.6,280.2 L 356.4,284.5 L 357.5,286.6 L 357.8,288.1 L 359.2,290.6 L 359.5,290.8 L 359.4,291.1 L 360.0,299.6 L 360.0,300.0 L 359.3,300.4 L 357.9,300.5 L 356.8,300.9 L 355.8,301.3 L 355.1,301.2 L 354.8,301.1 L 353.7,301.2 L 352.6,300.9 L 349.6,300.5 L 348.9,300.9 L 346.4,301.1 L 343.4,300.8 L 340.6,301.0 L 338.5,301.3 L 336.1,301.4 L 333.5,301.9 L 330.6,302.9 L 329.2,303.4 L 328.3,303.9 L 326.2,304.6 L 323.8,304.9 L 322.6,305.8 L 321.2,306.0 L 320.0,305.9 L 318.3,306.7 L 311.7,304.5 L 310.5,304.5 L 310.2,304.6 L 308.4,305.3 L 306.5,306.2 L 304.7,307.6 L 302.8,309.3 L 302.1,309.5 L 301.4,309.9 L 300.7,309.7 L 297.9,309.8 L 296.5,310.3 L 295.8,310.1 L 294.6,310.1 L 294.2,310.5 L 294.2,311.1 L 294.1,312.0 L 293.0,313.2 L 289.0,317.2 L 287.0,318.9 L 286.7,319.0 L 285.8,319.1 L 285.5,319.1 L 284.4,319.1 L 283.5,319.1 L 283.2,319.1 L 283.2,319.1 L 283.0,319.0 L 282.3,319.0 L 282.1,319.0 L 281.8,319.0 L 281.3,319.0 L 281.1,318.9 L 280.2,318.8 L 279.2,318.5 L 278.2,318.3 L 276.8,317.9 L 275.7,317.7 L 274.7,317.6 L 273.4,317.4 L 272.1,317.1 L 271.0,316.6 L 270.9,316.5 L 270.8,316.5 L 270.8,316.5 L 269.9,315.9 L 269.7,315.6 L 269.0,314.5 L 268.3,314.0 L 267.2,313.5 L 266.0,313.0 L 264.9,312.3 L 263.9,311.4 L 263.1,310.6 L 263.0,310.2 L 262.5,309.2 L 262.1,308.1 L 261.8,306.7 L 261.2,305.6 L 260.9,305.3 L 260.1,304.7 L 259.4,304.1 L 258.3,303.2 L 257.2,302.3 L 256.5,301.8 L 255.6,301.3 L 254.2,301.1 L 252.9,301.2 L 252.0,301.7 L 251.3,302.0 L 250.7,302.2 L 249.7,302.3 L 248.6,302.3 L 248.1,302.2 L 248.0,302.2 L 247.5,301.6 L 246.8,300.6 L 246.7,300.1 L 246.2,299.5 L 245.5,299.3 L 244.9,299.2 L 244.0,298.9 L 243.2,298.2 L 242.4,297.7 L 241.3,296.9 L 240.3,296.1 L 239.0,295.8 L 237.9,295.5 L 237.0,295.1 L 235.8,294.8 L 234.8,294.5 L 233.7,294.2 L 232.6,293.9 L 231.7,293.6 L 230.5,293.3 L 229.5,292.9 L 228.4,292.6 L 227.5,292.4 L 226.6,292.1 L 225.4,292.0 L 224.1,291.6 L 223.1,291.5 L 221.8,291.2 L 221.3,291.1 L 220.4,290.2 L 219.5,289.7 L 218.6,289.1 L 217.7,288.5 L 216.9,287.4 L 216.3,286.6 L 215.3,286.3 L 214.3,286.0 L 214.0,285.2 L 213.7,284.9 L 213.2,284.8 L 212.4,284.8 L 211.3,285.3 L 210.8,285.2 L 210.5,285.0 L 210.3,283.9 L 209.7,283.0 L 208.9,282.5 L 207.9,282.2 L 206.8,282.2 L 205.8,282.3 L 204.8,282.0 L 204.2,282.4 L 204.1,282.7 L 204.2,283.0 L 204.9,283.7 L 204.7,283.9 L 203.4,284.1 L 202.8,284.4 L 202.0,284.5 L 201.7,284.5 L 200.6,284.1 L 199.6,283.8 L 198.7,283.4 L 198.4,283.4 L 198.2,283.6 L 198.2,283.9 L 198.2,285.2 L 197.9,285.7 L 197.3,286.3 L 196.5,286.3 L 195.6,285.8 L 194.5,285.2 L 193.6,284.8 L 192.3,284.5 L 191.2,284.1 L 190.1,283.8 L 189.1,283.7 L 188.0,283.7 L 187.0,283.5 L 186.0,283.2 L 184.8,282.9 L 183.6,282.7 L 182.4,282.8 L 181.4,283.0 L 180.4,283.4 L 179.4,283.6 L 178.4,283.8 L 177.9,283.7 L 177.0,283.4 L 176.6,283.1 L 176.4,282.4 L 175.7,281.9 L 174.7,281.9 L 173.6,281.9 L 172.5,282.0 L 171.4,281.9 L 170.5,281.7 L 169.6,281.4 L 168.6,281.0 L 167.9,280.2 L 167.3,279.4 L 167.0,278.4 L 166.6,277.5 L 166.3,277.3 L 165.9,277.1 L 165.1,277.1 L 163.9,277.3 L 163.8,277.0 L 163.8,276.6 L 164.4,275.6 L 164.4,275.3 L 164.1,274.8 L 162.8,274.4 L 161.9,274.3 L 160.9,274.2 L 159.9,274.1 L 159.0,274.8 L 158.2,274.7 L 157.0,274.5 L 156.6,274.6 L 155.8,275.0 L 155.3,275.5 L 155.1,275.3 L 155.1,274.4 L 154.9,273.1 L 154.4,272.8 L 153.3,272.1 L 153.1,271.4 L 152.2,270.5 L 151.3,270.0 L 150.2,269.7 L 149.6,269.9 L 149.1,270.2 L 148.0,270.9 L 147.1,271.2 L 146.8,271.0 L 146.6,270.1 L 146.3,269.8 L 145.9,269.7 L 145.5,269.9 L 145.5,270.4 L 145.6,270.6 L 145.2,271.0 L 144.2,270.6 L 143.0,270.1 L 141.4,269.8 L 140.2,269.3 L 139.4,269.2 L 139.3,270.2 L 137.0,270.0 L 135.3,271.4 L 133.1,273.9 L 133.1,274.4 L 135.6,276.8 L 135.8,277.6 L 135.6,277.9 L 134.2,280.7 L 134.1,282.2 L 134.1,282.6 L 131.3,282.9 L 130.4,283.7 L 125.9,284.3 L 125.3,283.9 L 124.9,282.8 L 123.7,281.7 L 122.1,280.9 L 120.0,279.3 L 119.0,278.1 L 118.5,277.7 L 117.5,276.8 L 116.4,276.6 L 116.0,276.6 L 114.4,277.1 L 112.5,277.5 L 111.0,276.9 L 109.3,275.9 L 109.1,275.8 L 107.7,275.3 L 105.3,274.9 L 102.6,274.7 L 100.2,274.1 L 98.9,273.0 L 98.0,271.9 L 97.0,270.5 L 96.9,268.9 L 97.4,268.0 L 97.4,267.3 L 96.0,264.8 L 94.8,262.9 L 93.6,261.7 L 89.9,261.0 L 88.6,259.9 L 87.6,258.7 L 85.0,258.2 L 82.2,258.3 L 77.3,256.4 L 74.4,256.5 L 74.3,256.5 L 74.1,256.5 L 72.9,255.9 L 71.8,255.5 L 70.8,254.9 L 70.4,254.6 L 70.2,254.1 L 70.1,253.3 L 69.2,252.6 L 68.2,251.9 L 67.0,251.1 L 66.4,250.6 L 65.9,250.2 L 65.1,249.1 L 64.5,248.0 L 64.3,246.8 L 64.6,245.5 L 65.0,244.1 L 64.8,242.8 L 64.4,241.4 L 64.0,240.8 L 62.9,239.9 L 61.8,239.4 L 60.7,239.0 L 59.7,238.4 L 59.2,238.1 L 58.1,237.8 L 57.0,237.8 L 55.7,238.0 L 54.5,238.4 L 53.1,238.6 L 51.8,238.8 L 50.6,238.7 L 49.4,238.6 L 48.1,238.6 L 46.8,238.6 L 45.9,238.5 L 45.5,238.6 L 45.4,238.8 L 44.6,238.6 L 43.6,238.9 L 42.3,239.0 L 41.6,239.3 L 41.1,239.2 L 40.5,238.3 L 40.1,237.1 L 40.0,235.8 L 40.4,234.6 L 40.8,234.2 L 41.8,233.7 L 42.2,233.5" fill="none" stroke="black" stroke-width="2"/>
</svg>