<?xml version="1.0" encoding="UTF-8"?>
<svg width="400" height="400" viewBox="0 0 400 400" xmlns="http://www.w3.org/2000/svg">
  <rect width="400" height="400" fill="white"/>
  <path d="M 92.0,200.3 L 92.5,200.4 L 93.2,200.6 L 96.9,202.2 L 97.6,202.1 L 98.7,201.9 L 103.3,201.0 L 106.3,199.5 L 109.5,197.0 L 110.9,196.2 L 117.1,192.5 L 119.4,191.1 L 121.1,189.2 L 123.6,183.4 L 125.4,181.9 L 128.4,181.5 L 131.4,180.1 L 133.4,179.2 L 135.4,177.4 L 136.4,175.3 L 137.2,173.7 L 139.1,171.2 L 140.1,169.8 L 140.5,169.4 L 143.2,166.5 L 144.2,165.6 L 151.5,154.7 L 150.9,152.2 L 150.7,150.9 L 152.2,143.8 L 153.7,142.4 L 154.3,141.9 L 154.9,139.7 L 155.6,137.2 L 156.7,135.9 L 158.7,134.9 L 159.9,134.3 L 163.2,130.6 L 164.3,129.4 L 165.0,128.9 L 170.3,125.4 L 172.2,121.3 L 172.5,120.8 L 172.7,120.5 L 176.5,113.6 L 179.8,112.6 L 180.7,111.3 L 180.9,110.5 L 183.4,108.0 L 186.2,104.2 L 189.8,104.2 L 193.4,106.3 L 194.4,107.8 L 197.1,109.7 L 201.4,107.9 L 202.7,107.3 L 203.3,103.9 L 205.6,100.7 L 207.4,99.2 L 208.3,97.8 L 208.5,97.4 L 209.5,96.9 L 214.0,94.1 L 213.0,90.9 L 213.7,89.8 L 215.0,89.5 L 218.4,89.8 L 222.1,90.5 L 232.5,89.1 L 234.0,87.2 L 235.0,84.5 L 235.4,82.3 L 236.1,79.0 L 236.7,78.2 L 237.2,79.3 L 238.3,81.5 L 239.6,82.7 L 240.6,82.8 L 243.2,83.1 L 248.7,83.5 L 250.5,83.1 L 252.1,83.1 L 252.0,82.5 L 251.2,78.3 L 252.4,77.2 L 253.3,77.0 L 256.1,76.4 L 256.5,76.2 L 256.9,76.0 L 259.5,75.3 L 260.5,75.6 L 263.2,78.3 L 266.2,81.0 L 268.4,83.3 L 269.7,83.4 L 273.7,83.1 L 274.9,82.7 L 274.6,81.4 L 273.7,79.4 L 273.9,78.1 L 274.1,76.7 L 273.5,74.7 L 277.5,74.5 L 279.3,74.1 L 280.1,73.7 L 281.2,73.2 L 286.4,72.3 L 287.2,72.2 L 292.8,70.5 L 301.6,70.0 L 302.3,69.9 L 304.9,70.7 L 308.2,71.6 L 310.5,71.7 L 311.2,71.7 L 314.4,72.2 L 318.5,71.7 L 328.2,69.3 L 328.6,69.3 L 329.9,69.1 L 335.1,67.8 L 337.9,66.9 L 339.0,66.5 L 339.4,66.5 L 341.7,66.5 L 359.7,237.7 L 360.0,240.5 L 358.5,240.1 L 352.7,239.8 L 349.6,238.6 L 344.1,237.5 L 341.2,237.4 L 338.8,236.5 L 337.3,235.6 L 333.2,232.8 L 331.6,232.6 L 329.5,235.0 L 326.1,240.2 L 325.0,241.0 L 323.5,243.0 L 322.5,247.6 L 321.6,254.4 L 319.9,255.8 L 318.2,257.8 L 317.3,258.4 L 316.3,259.1 L 314.4,261.0 L 312.4,263.0 L 309.9,264.5 L 308.0,266.9 L 304.1,270.3 L 301.9,272.8 L 299.6,277.2 L 298.4,278.6 L 295.9,279.3 L 295.5,284.8 L 293.1,288.0 L 292.1,289.6 L 290.2,291.8 L 286.1,292.0 L 284.6,292.9 L 283.3,296.7 L 279.6,300.2 L 278.8,302.1 L 278.2,304.4 L 276.3,308.8 L 275.6,313.9 L 274.7,315.2 L 271.3,316.0 L 268.8,317.0 L 263.2,317.8 L 260.9,318.8 L 257.1,318.9 L 256.6,319.0 L 254.3,318.4 L 250.3,316.8 L 249.4,316.4 L 246.7,316.5 L 245.5,316.6 L 237.1,316.9 L 235.2,316.2 L 232.4,316.2 L 230.1,317.3 L 226.3,321.2 L 223.8,324.0 L 215.6,328.6 L 215.1,329.2 L 203.4,332.7 L 196.2,333.4 L 186.9,333.5 L 182.0,331.7 L 173.5,328.5 L 170.2,325.8 L 166.9,324.4 L 166.2,324.1 L 163.9,322.0 L 161.9,319.9 L 159.8,316.9 L 157.2,317.2 L 154.0,318.8 L 152.5,319.2 L 151.9,319.2 L 151.5,319.2 L 149.8,318.4 L 146.7,317.5 L 143.6,317.5 L 137.2,318.9 L 126.2,323.8 L 126.2,323.8 L 125.7,323.6 L 94.0,312.9 L 92.7,312.5 L 92.7,312.4 L 93.3,311.9 L 93.6,311.6 L 95.5,308.9 L 96.1,306.9 L 96.8,304.7 L 97.0,304.1 L 96.9,303.7 L 97.0,301.5 L 97.1,298.0 L 93.2,294.4 L 92.3,293.2 L 92.0,292.8 L 91.5,292.1 L 89.1,290.2 L 85.3,286.1 L 83.6,285.1 L 80.7,283.8 L 76.0,283.6 L 71.9,280.8 L 70.9,280.1 L 68.6,277.1 L 64.3,270.2 L 60.1,263.9 L 57.4,259.4 L 56.4,258.0 L 55.0,252.7 L 53.6,248.1 L 53.6,248.0 L 53.5,247.7 L 52.5,242.7 L 50.4,237.6 L 48.3,231.7 L 46.6,228.6 L 44.8,223.8 L 44.1,219.0 L 43.4,218.1 L 45.8,218.1 L 45.9,217.8 L 46.1,217.7 L 46.2,215.9 L 46.4,215.3 L 42.7,215.0 L 41.8,212.2 L 42.7,211.1 L 43.8,211.2 L 43.7,210.1 L 41.9,210.0 L 41.6,204.8 L 42.0,204.8 L 41.9,204.6 L 42.8,204.2 L 41.8,199.6 L 40.5,200.2 L 41.1,198.3 L 40.5,195.7 L 40.3,190.8 L 40.4,185.3 L 40.0,181.3 L 41.3,181.3 L 42.2,176.6 L 41.1,176.5 L 41.8,175.3 L 42.2,174.7 L 42.6,171.6 L 42.5,167.0 L 44.0,164.2 L 45.8,163.3 L 47.1,163.2 L 49.2,164.4 L 53.6,171.1 L 56.8,175.3 L 62.9,183.6 L 63.3,183.8 L 63.6,184.1 L 62.7,187.3 L 64.7,188.0 L 65.7,185.4 L 65.6,185.3 L 66.0,184.9 L 68.8,186.2 L 73.9,189.8 L 72.2,191.4 L 73.3,192.9 L 74.5,192.6 L 75.3,192.4 L 75.4,192.5 L 75.5,192.4 L 76.2,192.2 L 77.5,193.2 L 78.4,193.7 L 88.4,199.7 L 92.0,200.3" fill="none" stroke="black" stroke-width="2"/>
</svg>