<?xml version="1.0" encoding="UTF-8"?>
<svg width="400" height="400" viewBox="0 0 400 400" xmlns="http://www.w3.org/2000/svg">
  <rect width="400" height="400" fill="white"/>
  <path d="M 247.8,263.4 L 247.7,262.5 L 245.0,259.8 L 244.6,259.4 L 242.3,256.4 L 241.6,255.6 L 237.9,251.8 L 232.9,244.3 L 229.9,241.7 L 226.2,236.8 L 224.3,234.5 L 220.7,232.2 L 220.1,230.5 L 220.1,228.9 L 222.2,227.1 L 221.7,226.4 L 219.3,225.8 L 213.6,225.2 L 210.7,223.8 L 192.4,207.2 L 190.8,205.0 L 185.3,201.5 L 184.2,200.0 L 178.0,194.1 L 175.2,192.3 L 172.0,189.2 L 168.9,183.8 L 162.9,179.3 L 160.3,176.9 L 155.8,171.7 L 153.4,171.6 L 150.8,169.7 L 149.5,169.1 L 148.1,168.2 L 148.1,168.0 L 148.2,166.5 L 148.1,164.3 L 150.5,164.2 L 150.9,163.5 L 150.5,162.5 L 148.9,160.9 L 146.5,155.8 L 144.5,154.6 L 144.6,153.4 L 145.5,152.2 L 145.1,151.4 L 144.3,150.0 L 142.6,144.4 L 139.0,138.0 L 134.0,128.9 L 125.5,119.7 L 112.9,109.8 L 110.5,108.4 L 108.7,105.3 L 107.0,104.0 L 105.6,102.0 L 103.6,101.6 L 100.2,100.9 L 99.2,100.2 L 97.0,97.3 L 94.9,92.2 L 90.7,87.1 L 85.4,81.3 L 83.7,80.6 L 82.2,79.6 L 80.2,77.3 L 77.8,74.2 L 72.0,70.9 L 59.6,65.1 L 52.6,61.9 L 49.7,60.6 L 48.0,59.4 L 43.6,55.2 L 42.2,53.5 L 40.7,52.5 L 40.0,51.0 L 40.1,50.8 L 40.2,50.7 L 49.0,48.5 L 49.1,48.5 L 52.2,51.4 L 52.9,51.7 L 54.5,53.6 L 55.9,54.7 L 60.2,55.7 L 64.4,58.5 L 65.1,58.8 L 67.2,59.6 L 70.9,60.6 L 74.7,62.0 L 78.4,63.0 L 80.9,62.7 L 83.8,61.0 L 85.5,60.6 L 86.0,60.9 L 86.2,61.4 L 86.9,62.2 L 88.2,62.1 L 89.6,62.9 L 91.5,63.0 L 92.0,64.2 L 92.9,65.5 L 96.9,67.5 L 98.5,69.1 L 100.1,70.7 L 102.3,70.9 L 102.8,71.7 L 102.3,75.5 L 103.0,76.2 L 103.6,75.8 L 104.3,75.5 L 105.8,74.1 L 105.8,74.0 L 107.7,73.5 L 109.9,73.6 L 112.0,75.0 L 115.4,78.4 L 119.9,80.8 L 122.6,81.5 L 126.9,83.8 L 130.7,87.3 L 133.1,89.1 L 137.3,91.2 L 141.0,92.2 L 145.5,94.1 L 151.3,97.9 L 153.4,98.8 L 155.2,100.2 L 155.3,101.6 L 154.5,107.7 L 154.8,108.7 L 155.0,112.3 L 156.8,115.1 L 159.4,117.8 L 160.1,119.2 L 161.0,120.3 L 162.1,120.6 L 163.5,121.7 L 165.4,122.7 L 166.9,124.6 L 169.2,126.7 L 171.6,126.1 L 173.5,125.2 L 174.0,124.2 L 173.8,122.9 L 172.0,119.2 L 172.0,118.1 L 174.0,115.2 L 175.4,114.1 L 177.4,113.7 L 179.9,114.1 L 183.3,116.8 L 184.6,117.1 L 186.3,116.6 L 187.1,116.7 L 188.8,118.3 L 190.9,119.2 L 192.1,120.9 L 195.0,122.9 L 197.4,122.7 L 199.5,121.8 L 200.0,122.1 L 200.9,123.1 L 201.7,122.9 L 202.1,122.2 L 202.1,120.9 L 202.9,120.0 L 204.6,120.1 L 205.4,121.1 L 205.7,125.6 L 206.4,126.4 L 211.0,126.5 L 211.4,127.5 L 212.1,128.2 L 212.8,128.1 L 213.5,128.0 L 216.1,126.9 L 216.5,126.9 L 218.9,126.8 L 219.7,127.7 L 221.5,127.7 L 222.3,127.1 L 224.5,126.4 L 225.4,125.5 L 227.4,124.8 L 228.1,125.8 L 228.7,125.8 L 230.0,125.7 L 233.3,125.3 L 235.8,125.5 L 237.6,124.1 L 244.6,123.9 L 246.2,122.3 L 246.5,121.5 L 246.8,120.6 L 247.6,119.9 L 252.0,119.9 L 252.5,120.3 L 252.5,120.4 L 252.3,120.7 L 249.0,124.7 L 249.9,124.9 L 253.3,123.5 L 254.4,123.5 L 255.5,123.3 L 256.5,123.9 L 256.5,124.9 L 257.1,125.9 L 259.0,126.0 L 263.4,129.2 L 266.4,130.3 L 269.0,130.4 L 270.7,131.0 L 272.4,133.4 L 275.1,135.2 L 278.9,136.4 L 284.7,137.5 L 300.8,136.4 L 304.4,135.1 L 305.1,134.8 L 306.3,134.4 L 307.6,134.5 L 309.0,135.3 L 309.3,135.7 L 309.5,136.1 L 311.4,137.9 L 323.3,143.5 L 323.7,143.5 L 326.9,145.7 L 329.6,149.6 L 331.3,150.8 L 332.1,151.4 L 335.8,154.2 L 337.6,156.3 L 341.3,160.4 L 342.3,159.7 L 342.8,159.1 L 343.3,162.2 L 343.8,162.9 L 346.1,162.7 L 349.0,164.8 L 354.2,164.3 L 356.3,164.6 L 357.8,165.6 L 358.9,167.4 L 359.0,168.0 L 359.7,172.2 L 359.4,173.8 L 359.3,176.1 L 359.7,177.7 L 360.0,181.7 L 359.1,188.4 L 358.1,192.1 L 356.3,199.7 L 353.6,209.2 L 349.2,210.4 L 345.0,210.9 L 344.0,211.9 L 344.4,214.2 L 344.1,216.2 L 342.9,219.1 L 341.7,222.2 L 341.5,223.6 L 341.5,224.4 L 341.9,225.8 L 342.9,226.8 L 344.9,228.3 L 347.6,233.2 L 349.4,234.6 L 349.9,235.6 L 349.6,237.5 L 349.6,237.6 L 349.1,239.6 L 347.4,245.9 L 348.3,248.1 L 348.4,248.6 L 347.5,252.3 L 341.5,264.2 L 340.1,266.8 L 338.5,270.5 L 338.3,270.9 L 337.0,274.6 L 334.8,277.7 L 331.4,284.0 L 330.8,285.7 L 331.5,288.5 L 334.2,292.5 L 337.7,298.3 L 339.6,304.5 L 341.4,307.4 L 342.5,310.2 L 344.4,312.2 L 344.8,313.3 L 345.5,314.0 L 347.0,314.7 L 351.0,315.8 L 356.1,319.0 L 357.2,319.9 L 357.7,320.6 L 357.7,321.5 L 357.4,321.6 L 356.4,322.1 L 354.8,322.0 L 354.1,321.9 L 348.3,322.9 L 345.0,324.0 L 342.9,325.6 L 340.7,328.5 L 340.1,329.6 L 340.0,330.3 L 339.7,330.8 L 339.2,331.4 L 338.7,332.1 L 338.5,332.6 L 338.4,333.6 L 338.5,333.8 L 339.1,335.5 L 339.3,336.2 L 339.5,336.3 L 339.7,336.3 L 339.7,336.7 L 339.2,337.4 L 339.1,338.7 L 339.2,339.1 L 339.7,339.3 L 339.9,338.1 L 340.3,337.3 L 340.6,337.2 L 340.9,338.4 L 340.8,338.9 L 341.0,339.3 L 341.5,339.3 L 341.3,339.9 L 340.9,341.5 L 340.1,343.2 L 339.3,345.1 L 338.5,347.0 L 337.5,348.4 L 334.9,351.2 L 334.6,351.5 L 334.4,351.3 L 334.2,351.0 L 334.6,350.6 L 335.2,350.0 L 335.6,349.6 L 336.1,348.7 L 336.2,348.4 L 336.4,347.3 L 336.6,345.6 L 337.2,343.9 L 337.5,341.6 L 337.6,341.1 L 337.3,337.8 L 337.2,337.1 L 337.7,336.2 L 338.3,336.9 L 338.7,335.8 L 338.7,335.1 L 338.3,334.4 L 337.4,334.1 L 336.2,334.2 L 333.2,336.3 L 330.7,338.8 L 329.4,340.0 L 326.5,341.7 L 326.2,341.9 L 326.2,344.7 L 326.7,346.0 L 326.7,347.6 L 326.5,348.4 L 326.2,348.7 L 325.2,349.0 L 325.0,349.1 L 324.1,349.4 L 323.2,348.8 L 323.1,348.8 L 319.7,347.0 L 319.0,346.4 L 317.4,344.1 L 315.2,343.8 L 314.4,343.0 L 313.6,342.0 L 311.9,338.9 L 307.7,336.1 L 305.2,333.8 L 304.4,332.8 L 302.5,330.6 L 300.8,328.3 L 298.6,325.2 L 296.4,323.1 L 294.8,320.5 L 292.8,316.9 L 291.4,315.0 L 289.5,312.1 L 287.3,310.0 L 286.4,309.6 L 283.3,307.1 L 282.9,306.5 L 281.4,304.9 L 280.3,302.9 L 273.3,295.4 L 265.8,285.5 L 262.8,280.9 L 262.2,279.6 L 261.0,277.6 L 260.4,276.3 L 256.6,272.4 L 252.6,272.8 L 249.7,271.0 L 248.8,269.7 L 247.8,263.4" fill="none" stroke="black" stroke-width="2"/>
</svg>