<?xml version="1.0" encoding="UTF-8"?>
<svg width="400" height="400" viewBox="0 0 400 400" xmlns="http://www.w3.org/2000/svg">
  <rect width="400" height="400" fill="white"/>
  <path d="M 100.9,228.7 L 100.2,228.0 L 99.7,225.3 L 97.8,222.1 L 94.8,219.7 L 92.5,217.6 L 91.4,215.8 L 92.0,211.0 L 90.3,207.9 L 90.3,205.9 L 89.8,205.7 L 86.8,204.8 L 85.0,203.2 L 83.4,200.3 L 81.8,198.4 L 80.8,196.0 L 76.5,193.9 L 75.9,192.4 L 76.2,191.4 L 75.6,190.1 L 72.4,189.4 L 71.4,190.0 L 70.5,191.9 L 69.3,193.7 L 67.4,194.0 L 65.7,194.8 L 60.1,195.6 L 57.9,196.4 L 54.7,195.5 L 51.7,196.4 L 47.5,200.2 L 45.3,201.4 L 45.0,201.6 L 42.4,202.2 L 41.1,199.7 L 41.1,199.7 L 41.0,198.7 L 40.0,198.3 L 40.2,196.3 L 43.2,190.7 L 44.1,190.0 L 45.3,189.8 L 46.6,189.7 L 47.7,188.1 L 48.8,183.5 L 53.3,178.3 L 57.4,177.9 L 60.1,176.4 L 63.0,171.1 L 65.4,168.5 L 69.5,166.3 L 71.0,166.5 L 72.4,169.0 L 73.1,169.4 L 79.2,168.4 L 81.1,166.9 L 83.8,166.3 L 86.5,164.3 L 90.1,164.6 L 98.8,163.8 L 100.6,161.7 L 101.6,161.4 L 103.0,160.1 L 104.8,159.8 L 104.0,158.9 L 102.2,158.2 L 101.6,156.0 L 100.3,155.1 L 94.7,154.8 L 94.4,154.8 L 93.6,154.0 L 93.2,153.6 L 94.2,149.6 L 93.4,144.8 L 93.7,143.0 L 95.3,140.5 L 95.2,136.6 L 96.6,133.7 L 100.8,129.4 L 106.2,126.3 L 108.2,124.0 L 108.7,122.2 L 107.6,120.6 L 107.3,120.6 L 106.4,120.4 L 106.3,118.9 L 107.3,117.2 L 107.5,116.9 L 106.0,114.0 L 102.9,110.1 L 101.2,108.1 L 98.5,106.5 L 98.5,106.0 L 98.9,103.9 L 97.2,99.8 L 97.9,98.5 L 100.8,98.2 L 103.2,96.1 L 104.8,89.9 L 105.8,87.7 L 105.9,87.4 L 109.9,83.1 L 111.8,81.8 L 114.6,78.4 L 112.7,74.3 L 112.6,72.6 L 115.6,72.2 L 118.1,72.4 L 121.8,72.0 L 123.5,71.4 L 126.2,71.8 L 126.1,70.8 L 124.7,69.5 L 124.6,66.7 L 125.7,64.5 L 126.1,64.0 L 127.6,65.3 L 130.3,69.5 L 134.9,73.5 L 135.0,76.9 L 135.6,78.8 L 138.6,80.7 L 139.4,81.2 L 139.6,81.4 L 140.4,83.2 L 140.6,89.0 L 140.6,89.3 L 141.5,90.7 L 142.8,92.4 L 140.1,94.7 L 139.7,96.1 L 140.5,97.6 L 142.3,98.3 L 145.4,96.9 L 150.1,96.5 L 150.4,98.0 L 147.5,101.6 L 147.1,103.5 L 147.9,105.2 L 148.2,107.0 L 144.0,111.5 L 141.8,111.6 L 140.8,112.9 L 141.7,116.0 L 141.3,119.5 L 139.2,122.0 L 135.8,122.9 L 135.8,123.7 L 137.6,124.8 L 139.6,126.8 L 139.8,130.4 L 137.8,136.1 L 138.3,138.6 L 139.4,139.1 L 140.8,138.0 L 143.3,137.9 L 144.5,140.0 L 146.6,142.4 L 148.2,142.6 L 149.8,141.3 L 150.7,141.0 L 154.1,143.1 L 157.0,142.8 L 159.9,140.7 L 162.0,137.7 L 164.6,136.3 L 169.8,136.9 L 174.0,136.5 L 175.9,135.1 L 184.7,132.6 L 188.8,131.7 L 190.9,129.1 L 192.1,127.2 L 195.2,126.8 L 195.9,125.3 L 195.4,123.3 L 197.3,122.0 L 200.8,122.1 L 205.8,124.4 L 208.0,126.6 L 210.3,126.0 L 213.1,122.1 L 215.3,122.3 L 216.6,123.5 L 217.1,129.4 L 218.1,130.1 L 220.0,129.0 L 221.9,127.0 L 222.8,125.0 L 222.8,124.8 L 223.0,124.4 L 223.8,123.0 L 224.4,121.5 L 225.1,119.8 L 225.5,118.2 L 225.8,117.5 L 226.2,117.3 L 226.4,117.4 L 228.4,118.1 L 231.1,117.5 L 233.6,118.6 L 233.9,119.4 L 233.2,122.3 L 235.1,124.0 L 237.1,124.9 L 239.0,125.3 L 240.5,125.0 L 240.7,124.5 L 245.0,124.1 L 247.8,122.0 L 255.4,121.0 L 258.6,121.8 L 259.4,123.0 L 264.1,122.9 L 266.8,124.2 L 268.1,123.9 L 269.0,122.7 L 269.7,120.5 L 274.0,114.9 L 275.1,113.6 L 276.8,113.3 L 279.9,112.9 L 286.2,114.7 L 288.7,116.5 L 292.7,118.3 L 299.0,118.1 L 301.8,118.0 L 313.4,117.1 L 313.6,117.0 L 316.5,117.6 L 319.6,117.7 L 320.8,117.7 L 322.7,118.9 L 324.4,121.7 L 325.4,122.9 L 330.7,121.2 L 333.5,121.1 L 335.2,121.8 L 336.9,121.7 L 340.7,120.2 L 342.2,119.6 L 345.1,119.5 L 347.9,119.4 L 349.8,118.6 L 351.6,119.3 L 359.3,116.2 L 360.0,117.1 L 359.9,117.7 L 337.1,316.6 L 337.1,316.8 L 334.8,316.8 L 331.6,315.3 L 329.8,312.6 L 326.9,312.2 L 325.8,311.8 L 324.8,310.4 L 321.8,310.3 L 319.4,309.9 L 315.6,310.5 L 310.8,312.8 L 305.1,317.5 L 298.6,320.7 L 296.6,321.8 L 276.8,334.9 L 271.8,336.0 L 266.0,332.6 L 264.9,328.7 L 264.3,327.7 L 264.2,322.8 L 263.5,322.1 L 260.9,320.7 L 259.6,319.0 L 260.0,317.2 L 259.9,315.3 L 257.9,314.2 L 256.5,314.5 L 253.1,316.4 L 248.2,317.0 L 243.6,317.9 L 242.4,318.2 L 238.2,319.4 L 232.6,323.2 L 227.7,328.9 L 225.9,330.3 L 224.9,331.2 L 223.2,331.3 L 218.7,328.8 L 212.8,324.0 L 207.2,318.8 L 197.3,312.6 L 194.7,310.3 L 185.4,303.5 L 178.1,299.3 L 173.3,295.8 L 169.7,293.9 L 168.5,292.5 L 163.2,284.1 L 159.9,281.0 L 155.0,275.8 L 146.9,268.5 L 144.9,263.7 L 139.7,258.7 L 139.0,258.0 L 137.2,254.1 L 135.2,253.2 L 132.3,253.2 L 129.8,253.2 L 126.7,251.8 L 122.6,251.5 L 116.8,248.7 L 114.6,248.5 L 112.6,246.7 L 110.4,243.3 L 106.8,239.5 L 105.2,235.1 L 103.6,232.0 L 102.3,230.1 L 101.2,228.9 L 100.9,228.7" fill="none" stroke="black" stroke-width="2"/>
</svg>