<?xml version="1.0" encoding="UTF-8"?>
<svg width="400" height="400" viewBox="0 0 400 400" xmlns="http://www.w3.org/2000/svg">
  <rect width="400" height="400" fill="white"/>
  <path d="M 165.4,206.3 L 166.9,203.7 L 171.0,198.5 L 172.4,196.4 L 174.6,194.1 L 175.6,192.9 L 176.3,191.6 L 177.1,190.7 L 178.4,189.6 L 179.3,189.0 L 179.5,188.8 L 180.2,188.2 L 180.9,187.4 L 181.2,187.1 L 182.3,186.1 L 183.5,184.9 L 185.4,183.1 L 185.5,183.1 L 186.5,182.3 L 187.8,181.4 L 188.8,180.8 L 189.1,180.6 L 190.1,180.7 L 190.5,180.7 L 191.7,179.8 L 192.0,179.7 L 192.4,180.2 L 192.8,180.8 L 193.8,181.4 L 195.1,182.1 L 195.7,182.3 L 196.8,182.1 L 197.5,181.8 L 198.3,180.7 L 198.6,180.1 L 199.5,179.2 L 200.0,177.9 L 200.1,177.3 L 199.8,176.8 L 198.7,176.0 L 197.7,174.9 L 196.8,173.9 L 196.2,172.8 L 195.8,171.8 L 195.4,170.6 L 195.1,169.4 L 195.3,167.9 L 195.7,166.7 L 195.8,166.1 L 196.3,164.9 L 196.4,164.7 L 197.0,163.4 L 197.6,162.2 L 198.3,160.8 L 199.1,159.4 L 199.8,158.0 L 200.5,156.6 L 201.4,155.3 L 202.4,154.0 L 203.1,152.5 L 203.6,151.0 L 204.2,149.7 L 204.9,148.4 L 205.4,147.8 L 205.6,147.5 L 206.3,146.3 L 207.1,145.2 L 207.7,144.3 L 208.0,143.8 L 208.4,143.0 L 208.8,142.3 L 209.6,141.0 L 212.8,134.5 L 213.6,131.2 L 214.3,129.5 L 214.8,128.7 L 216.2,128.2 L 217.2,127.3 L 217.6,126.5 L 218.6,125.7 L 219.8,123.8 L 221.7,121.7 L 222.0,120.4 L 221.5,119.4 L 220.9,115.6 L 221.0,113.8 L 220.8,111.8 L 220.8,111.2 L 220.3,110.7 L 219.4,111.0 L 217.9,111.8 L 217.0,112.3 L 215.8,113.0 L 214.5,113.8 L 213.6,114.3 L 212.2,115.1 L 210.8,116.0 L 210.3,116.0 L 209.2,115.7 L 208.8,115.4 L 207.8,114.2 L 207.7,113.2 L 207.7,112.0 L 207.7,111.8 L 207.7,110.8 L 207.4,109.5 L 207.0,108.3 L 206.7,108.0 L 206.2,107.8 L 205.4,107.9 L 204.6,107.3 L 203.8,106.3 L 203.3,105.7 L 203.0,105.3 L 202.5,104.2 L 202.1,102.6 L 202.2,102.1 L 203.1,100.8 L 203.5,99.7 L 203.5,98.1 L 203.1,97.3 L 202.7,97.3 L 201.7,97.9 L 201.5,98.1 L 200.1,98.6 L 198.9,99.3 L 197.8,100.0 L 196.8,100.4 L 195.5,100.2 L 194.8,100.8 L 193.3,101.5 L 192.0,101.8 L 191.1,102.2 L 189.7,102.7 L 188.0,103.1 L 186.7,103.5 L 186.2,103.7 L 185.1,104.1 L 183.7,104.6 L 182.3,105.0 L 181.0,105.3 L 180.6,105.2 L 180.4,104.8 L 180.5,103.6 L 180.4,102.4 L 180.8,101.5 L 181.8,100.6 L 182.0,100.2 L 181.8,98.6 L 181.5,97.4 L 181.1,96.2 L 180.5,95.2 L 179.8,94.5 L 178.9,93.5 L 178.0,92.5 L 177.2,91.6 L 176.5,91.3 L 175.9,90.9 L 175.3,90.5 L 174.4,89.4 L 174.1,88.8 L 174.3,88.3 L 174.4,88.1 L 174.9,87.3 L 175.3,86.1 L 175.5,84.9 L 175.4,83.6 L 174.7,82.5 L 174.1,82.0 L 172.7,81.9 L 172.0,82.1 L 171.4,82.5 L 170.0,83.5 L 169.2,84.3 L 168.8,84.6 L 168.1,85.2 L 166.8,86.3 L 165.8,87.3 L 164.7,87.1 L 163.5,86.4 L 163.1,86.0 L 163.0,85.0 L 162.9,83.5 L 162.6,83.1 L 162.1,82.7 L 161.1,82.6 L 159.6,82.4 L 159.1,82.5 L 158.1,82.9 L 157.7,82.8 L 156.7,81.8 L 156.2,81.7 L 155.1,81.2 L 154.5,80.7 L 154.5,80.4 L 155.0,79.8 L 155.3,79.7 L 156.8,79.6 L 158.4,79.2 L 158.8,78.9 L 159.1,78.2 L 159.3,76.8 L 159.1,76.3 L 158.7,76.2 L 158.4,76.4 L 157.2,76.2 L 155.6,76.1 L 154.1,76.0 L 152.6,75.7 L 152.1,75.1 L 152.0,74.2 L 151.9,72.6 L 151.8,71.1 L 152.2,69.8 L 153.6,68.8 L 154.5,68.3 L 155.7,67.8 L 157.1,67.1 L 158.5,66.3 L 159.9,65.6 L 161.4,65.2 L 163.0,64.7 L 164.2,64.5 L 165.8,64.5 L 167.5,64.7 L 169.1,64.9 L 170.8,64.9 L 172.3,64.5 L 173.6,64.1 L 174.8,63.7 L 176.1,63.5 L 177.4,63.2 L 179.0,63.1 L 180.3,62.9 L 181.8,62.8 L 183.1,62.7 L 184.5,62.5 L 185.8,62.1 L 187.3,61.8 L 188.5,61.5 L 190.1,61.4 L 191.7,61.3 L 193.2,60.9 L 194.5,60.7 L 195.9,60.4 L 197.4,60.0 L 198.8,59.7 L 200.4,59.3 L 201.7,58.9 L 203.3,58.7 L 204.6,58.4 L 206.1,58.0 L 207.4,57.7 L 207.6,57.7 L 208.8,57.6 L 210.1,57.5 L 211.3,57.7 L 212.6,57.7 L 213.7,57.2 L 215.0,56.5 L 216.3,55.6 L 216.7,55.3 L 220.6,54.1 L 228.2,51.8 L 232.9,51.4 L 235.6,50.3 L 238.1,49.8 L 242.5,47.9 L 244.2,47.5 L 245.7,45.8 L 247.1,43.7 L 247.9,42.8 L 250.4,41.3 L 255.0,40.0 L 255.0,40.0 L 253.9,105.2 L 253.7,105.5 L 253.0,106.7 L 252.7,107.0 L 252.0,107.3 L 251.3,107.4 L 250.8,107.7 L 249.5,108.8 L 248.8,109.3 L 248.0,110.1 L 247.2,111.0 L 247.0,111.8 L 246.9,112.4 L 246.5,113.4 L 246.8,114.3 L 246.8,115.0 L 246.8,115.3 L 246.9,115.9 L 246.7,116.8 L 246.2,118.3 L 245.6,119.4 L 245.4,120.1 L 245.1,121.2 L 244.6,121.9 L 244.6,121.9 L 244.4,123.1 L 244.4,124.7 L 244.7,125.7 L 245.6,126.8 L 246.4,127.8 L 246.6,129.5 L 246.8,130.5 L 247.4,131.4 L 248.0,132.2 L 249.2,132.3 L 250.3,132.0 L 251.4,131.2 L 253.5,130.3 L 254.4,129.7 L 254.4,130.0 L 256.2,242.7 L 256.3,244.7 L 256.1,244.7 L 254.3,246.3 L 253.8,247.1 L 253.7,247.8 L 253.9,248.5 L 254.5,249.0 L 254.6,250.0 L 256.4,265.9 L 256.2,265.9 L 255.7,267.4 L 253.7,268.1 L 250.7,271.6 L 247.8,273.9 L 244.2,278.8 L 241.2,282.0 L 240.6,282.7 L 238.2,283.4 L 236.3,282.8 L 235.5,282.0 L 234.5,281.1 L 233.4,281.0 L 232.6,282.0 L 230.3,284.9 L 229.7,285.1 L 229.6,282.0 L 229.5,280.6 L 232.4,278.5 L 233.4,276.8 L 235.2,276.4 L 236.4,275.6 L 236.5,271.3 L 236.2,269.7 L 234.6,268.1 L 234.8,266.1 L 234.5,265.3 L 234.6,264.4 L 235.3,263.4 L 235.3,262.0 L 235.0,261.4 L 235.8,258.8 L 235.6,258.0 L 234.5,257.3 L 232.4,257.8 L 231.4,257.8 L 230.9,255.7 L 230.1,255.0 L 227.9,256.3 L 227.1,256.2 L 225.9,255.1 L 225.2,255.1 L 222.8,255.2 L 221.3,256.6 L 220.0,257.4 L 218.9,256.7 L 216.9,259.0 L 215.8,259.8 L 213.7,259.9 L 212.7,260.7 L 211.3,260.9 L 208.8,264.0 L 207.1,267.2 L 201.9,274.8 L 200.9,276.0 L 199.8,278.2 L 196.7,282.0 L 195.8,283.2 L 194.9,286.8 L 194.1,289.0 L 193.9,289.3 L 193.7,291.5 L 193.2,299.8 L 193.1,303.5 L 192.8,306.0 L 192.6,313.8 L 192.9,315.1 L 193.0,317.6 L 192.1,319.2 L 192.0,320.4 L 193.7,322.1 L 194.9,323.7 L 195.7,326.4 L 196.8,329.4 L 196.9,333.2 L 196.4,336.2 L 196.8,339.9 L 197.5,341.7 L 198.9,347.1 L 199.8,349.4 L 200.8,350.0 L 202.4,349.8 L 205.5,348.2 L 205.7,350.2 L 203.8,350.4 L 202.9,351.7 L 202.9,353.5 L 204.2,354.9 L 204.1,356.8 L 204.4,357.7 L 204.6,359.5 L 204.5,360.0 L 203.5,359.6 L 203.0,357.9 L 202.9,356.8 L 202.6,356.5 L 202.0,356.4 L 200.8,358.5 L 200.2,358.7 L 200.3,357.3 L 200.6,356.3 L 199.4,355.7 L 198.3,355.6 L 195.8,354.4 L 195.5,354.1 L 196.4,353.0 L 194.1,351.0 L 192.5,349.9 L 191.7,348.5 L 191.6,343.5 L 191.5,343.3 L 189.5,339.3 L 188.3,336.4 L 187.4,332.3 L 185.9,330.5 L 183.8,329.1 L 181.1,328.3 L 180.0,327.4 L 179.6,326.0 L 179.0,324.0 L 178.7,323.4 L 177.5,320.9 L 176.5,320.2 L 174.2,320.1 L 174.0,320.1 L 172.7,319.0 L 172.4,318.9 L 171.9,319.1 L 171.2,319.4 L 170.9,319.3 L 170.7,319.1 L 170.3,318.8 L 170.1,318.4 L 169.3,317.5 L 168.5,316.5 L 168.2,315.3 L 168.2,314.7 L 168.7,313.7 L 169.2,312.3 L 169.2,311.8 L 168.8,310.9 L 168.0,310.4 L 166.9,310.2 L 165.7,310.7 L 164.6,311.4 L 163.4,312.2 L 162.5,312.8 L 162.0,313.3 L 161.5,313.6 L 160.5,314.3 L 159.5,315.1 L 158.9,315.1 L 157.4,314.3 L 156.2,313.8 L 154.6,313.2 L 153.3,312.6 L 152.2,311.6 L 151.9,311.0 L 151.6,309.8 L 151.5,308.5 L 151.3,307.3 L 151.3,305.6 L 151.3,305.5 L 150.3,302.4 L 147.8,298.4 L 147.4,295.9 L 146.6,294.1 L 145.9,293.1 L 145.2,290.2 L 145.1,287.6 L 143.6,284.8 L 143.9,283.1 L 144.5,282.0 L 144.8,281.5 L 146.1,280.2 L 146.5,279.2 L 145.1,276.0 L 145.2,273.9 L 147.1,268.0 L 147.0,264.7 L 145.9,260.3 L 145.9,255.1 L 146.3,252.8 L 147.9,247.8 L 148.8,245.8 L 149.4,244.1 L 151.3,239.2 L 153.7,231.0 L 154.0,230.6 L 155.8,227.6 L 157.3,225.7 L 157.4,224.6 L 158.0,219.6 L 158.3,218.9 L 159.9,214.3 L 162.6,209.7" fill="none" stroke="black" stroke-width="2"/>
</svg>