<?xml version="1.0" encoding="UTF-8"?>
<svg width="400" height="400" viewBox="0 0 400 400" xmlns="http://www.w3.org/2000/svg">
  <rect width="400" height="400" fill="white"/>
  <path d="M 40.0,235.7 L 42.6,234.1 L 45.4,232.5 L 48.5,231.6 L 52.1,231.1 L 55.5,229.8 L 57.4,229.0 L 58.8,228.3 L 61.7,226.4 L 64.4,223.9 L 65.9,222.3 L 67.2,220.8 L 68.3,219.1 L 69.4,217.6 L 70.5,216.0 L 71.9,214.2 L 73.4,212.7 L 74.8,211.3 L 76.3,210.0 L 78.1,208.6 L 79.8,207.4 L 81.5,206.2 L 83.0,205.1 L 85.0,204.0 L 86.6,202.8 L 89.7,200.4 L 91.3,199.3 L 94.2,197.2 L 96.7,194.8 L 99.1,192.4 L 101.9,190.2 L 104.3,188.8 L 104.8,187.6 L 104.7,184.3 L 103.9,181.1 L 103.8,178.0 L 103.8,174.9 L 103.9,172.0 L 103.9,169.1 L 105.1,166.4 L 106.8,164.0 L 108.9,161.7 L 111.0,159.8 L 113.4,157.9 L 115.5,155.9 L 117.3,154.0 L 118.3,153.2 L 119.3,153.1 L 121.5,154.3 L 122.9,154.6 L 123.9,154.1 L 125.8,152.0 L 127.0,151.1 L 129.6,151.5 L 132.2,151.2 L 134.6,150.2 L 137.5,149.0 L 138.3,148.4 L 141.4,147.2 L 144.4,145.4 L 147.5,144.3 L 148.2,144.0 L 149.2,144.3 L 151.3,145.8 L 152.3,146.0 L 154.7,144.0 L 156.6,141.5 L 157.2,140.2 L 157.4,137.2 L 157.2,136.0 L 155.5,133.6 L 154.7,131.9 L 154.2,130.9 L 154.4,128.3 L 154.3,126.7 L 152.9,124.5 L 151.9,124.3 L 149.5,126.4 L 148.4,126.9 L 147.2,126.5 L 146.2,125.5 L 145.6,122.2 L 145.6,119.0 L 146.1,117.1 L 146.8,115.6 L 149.4,113.0 L 150.8,111.6 L 153.2,108.8 L 155.4,105.9 L 157.2,102.9 L 158.6,99.5 L 160.0,96.4 L 160.3,95.0 L 160.3,94.7 L 161.1,91.1 L 161.6,89.9 L 162.2,88.1 L 162.5,87.6 L 163.8,85.0 L 165.9,82.7 L 168.2,79.7 L 169.9,76.6 L 171.2,73.5 L 171.3,70.2 L 172.0,67.2 L 173.7,64.9 L 174.7,64.4 L 175.9,65.0 L 176.9,67.7 L 177.8,71.0 L 179.1,73.6 L 180.3,74.4 L 183.1,74.5 L 185.2,74.1 L 187.6,72.2 L 187.7,72.1 L 189.4,69.8 L 191.4,67.4 L 194.0,65.0 L 196.2,63.0 L 197.3,62.8 L 198.0,63.5 L 197.7,66.3 L 197.6,69.6 L 197.8,72.7 L 198.6,76.0 L 199.5,78.8 L 199.5,80.3 L 198.6,83.8 L 198.3,86.7 L 198.7,89.9 L 199.1,91.3 L 199.8,92.3 L 201.1,92.0 L 203.6,90.9 L 205.9,92.3 L 207.2,93.0 L 208.3,93.0 L 209.3,92.4 L 209.8,89.9 L 211.0,87.4 L 212.1,86.5 L 213.7,86.2 L 216.6,87.0 L 219.4,88.5 L 222.1,90.3 L 224.8,92.0 L 227.4,93.8 L 230.4,95.0 L 230.5,95.1 L 233.3,95.8 L 236.1,96.6 L 237.3,96.4 L 238.2,95.7 L 238.6,95.0 L 239.6,93.0 L 242.0,91.1 L 243.8,88.6 L 245.3,85.7 L 247.0,83.3 L 249.9,81.1 L 252.0,78.7 L 254.5,76.4 L 256.9,74.4 L 259.4,73.0 L 260.9,72.3 L 262.3,72.1 L 265.5,72.3 L 268.4,73.1 L 270.9,73.5 L 273.9,72.8 L 276.6,71.5 L 279.9,69.9 L 282.4,67.9 L 285.0,65.7 L 287.1,63.8 L 288.7,62.0 L 288.8,62.4 L 289.1,63.1 L 287.3,66.0 L 285.0,68.8 L 283.4,72.1 L 282.3,75.4 L 281.8,77.8 L 281.2,80.7 L 280.7,82.7 L 280.0,85.8 L 280.0,88.6 L 279.5,91.4 L 278.7,94.3 L 278.7,95.0 L 278.6,97.7 L 280.1,101.0 L 281.1,101.6 L 284.4,102.1 L 287.2,101.4 L 290.0,99.9 L 292.9,98.2 L 295.9,96.7 L 298.4,95.3 L 299.2,95.0 L 300.9,94.4 L 302.5,94.6 L 303.3,95.0 L 303.6,95.2 L 304.1,96.3 L 304.0,97.6 L 302.5,100.5 L 300.8,102.9 L 298.4,105.7 L 295.9,108.1 L 293.9,110.8 L 292.9,113.9 L 293.0,115.3 L 294.8,117.8 L 296.6,120.3 L 297.5,123.0 L 297.3,125.9 L 296.9,129.4 L 296.3,132.4 L 295.5,136.0 L 294.8,138.7 L 294.0,142.1 L 293.0,144.7 L 292.2,145.7 L 291.1,146.3 L 288.6,145.5 L 287.3,145.2 L 285.9,145.5 L 283.8,147.3 L 281.9,150.3 L 280.9,153.1 L 280.2,156.1 L 279.6,158.9 L 279.2,161.6 L 279.2,162.8 L 280.0,166.5 L 280.4,169.1 L 280.4,171.8 L 280.7,174.6 L 282.0,177.1 L 283.3,178.0 L 286.0,178.9 L 288.8,179.2 L 290.2,179.0 L 291.0,178.2 L 291.1,175.1 L 291.2,173.8 L 291.6,172.7 L 292.5,172.2 L 293.5,172.8 L 294.9,175.2 L 296.6,178.1 L 298.7,181.0 L 300.9,183.5 L 303.7,185.2 L 306.7,186.3 L 309.9,187.2 L 312.8,187.8 L 315.8,188.8 L 318.1,189.3 L 321.4,188.8 L 322.9,188.1 L 324.7,187.7 L 326.2,189.0 L 327.6,189.3 L 329.3,188.8 L 330.2,188.1 L 330.5,187.2 L 330.3,184.9 L 330.5,182.1 L 331.1,181.1 L 332.0,181.1 L 334.8,182.8 L 337.4,183.8 L 340.3,185.0 L 341.3,185.3 L 343.1,185.3 L 344.1,184.8 L 345.5,181.8 L 346.2,181.0 L 347.3,180.9 L 348.0,181.3 L 350.5,183.4 L 353.6,185.5 L 355.1,186.1 L 357.3,187.9 L 359.9,189.1 L 359.9,189.5 L 360.0,190.3 L 359.1,191.1 L 358.0,191.0 L 357.2,190.3 L 356.0,189.3 L 354.7,188.8 L 352.6,190.3 L 351.5,191.1 L 350.3,191.2 L 347.9,189.6 L 346.9,189.8 L 346.2,191.1 L 348.0,193.0 L 348.9,194.0 L 349.7,195.5 L 349.9,198.3 L 349.7,199.4 L 348.6,200.6 L 345.5,201.3 L 342.1,202.2 L 338.8,203.3 L 335.9,204.9 L 334.6,206.0 L 333.9,207.1 L 333.7,208.4 L 334.4,209.1 L 336.8,210.3 L 338.9,211.4 L 337.5,212.7 L 336.0,213.3 L 334.9,214.3 L 334.5,215.5 L 334.5,216.6 L 335.9,218.7 L 335.3,222.4 L 334.5,224.8 L 333.7,226.2 L 332.7,227.1 L 329.3,228.1 L 327.6,229.0 L 324.2,230.1 L 322.4,230.6 L 320.4,231.4 L 318.6,232.4 L 316.8,233.4 L 314.9,234.4 L 312.8,235.3 L 310.9,236.0 L 308.9,236.8 L 307.0,237.5 L 305.0,238.3 L 303.1,238.9 L 301.1,239.6 L 299.2,240.3 L 297.2,241.0 L 295.3,241.6 L 293.4,242.1 L 289.8,243.0 L 287.8,243.5 L 284.4,244.6 L 282.5,245.2 L 280.5,246.0 L 277.1,247.8 L 275.4,248.8 L 273.4,250.0 L 271.7,251.2 L 270.0,252.1 L 268.1,252.9 L 266.0,254.0 L 264.2,254.8 L 262.4,255.7 L 260.7,256.5 L 258.7,257.5 L 256.8,258.4 L 255.0,259.1 L 253.2,259.9 L 251.1,260.6 L 249.2,261.4 L 247.3,262.2 L 245.4,263.0 L 243.3,263.9 L 241.9,264.6 L 240.1,265.4 L 236.7,266.4 L 233.4,267.8 L 230.3,269.6 L 228.6,271.0 L 225.5,272.5 L 221.9,273.5 L 219.0,274.6 L 217.5,275.2 L 214.5,275.5 L 212.1,275.3 L 209.7,273.4 L 207.3,272.4 L 206.0,272.5 L 205.5,273.3 L 205.4,275.8 L 205.0,278.4 L 204.6,280.6 L 203.3,282.7 L 202.7,283.0 L 202.1,283.2 L 201.2,282.7 L 200.9,280.1 L 200.9,278.8 L 200.5,277.7 L 199.3,276.5 L 196.3,275.0 L 193.0,273.9 L 189.8,273.3 L 186.5,273.1 L 183.4,273.5 L 180.7,274.3 L 177.8,274.8 L 175.2,275.7 L 172.7,276.8 L 170.7,277.7 L 169.2,280.0 L 167.3,283.6 L 166.9,283.9 L 165.8,284.6 L 163.5,287.1 L 162.5,287.6 L 161.0,288.4 L 159.7,288.5 L 157.6,287.6 L 155.2,285.4 L 152.9,284.5 L 151.3,282.1 L 150.5,281.7 L 149.6,282.0 L 147.3,283.4 L 144.7,285.5 L 142.2,287.6 L 139.5,289.8 L 136.9,292.1 L 134.5,294.6 L 132.5,297.2 L 131.1,300.3 L 130.3,303.4 L 129.4,306.3 L 128.2,309.0 L 126.4,311.4 L 125.5,311.9 L 123.9,312.8 L 121.5,313.8 L 120.3,313.4 L 118.2,311.9 L 116.0,310.1 L 113.8,308.7 L 112.8,308.0 L 112.3,307.0 L 112.3,305.8 L 113.9,303.2 L 116.4,300.6 L 119.3,298.4 L 121.0,297.1 L 122.5,295.9 L 124.0,294.5 L 125.5,293.2 L 127.3,291.8 L 128.7,290.6 L 130.3,289.4 L 132.1,288.2 L 133.7,286.6 L 136.4,284.0 L 137.5,282.7 L 138.1,281.1 L 138.1,278.2 L 136.9,275.8 L 135.2,274.5 L 132.1,275.7 L 129.6,277.6 L 127.3,280.0 L 125.3,282.1 L 123.0,284.2 L 121.1,286.3 L 120.1,286.9 L 118.9,287.1 L 117.9,286.6 L 117.2,285.6 L 117.2,284.4 L 119.2,281.6 L 121.2,278.9 L 122.9,276.0 L 124.0,273.5 L 125.3,271.0 L 127.0,269.3 L 127.3,268.3 L 126.0,266.2 L 124.3,264.2 L 123.0,263.5 L 121.7,263.4 L 119.3,264.9 L 116.6,266.4 L 113.8,267.1 L 111.1,267.6 L 108.2,268.7 L 105.6,271.1 L 104.2,272.6 L 103.2,273.8 L 101.8,275.2 L 99.1,277.6 L 97.0,279.6 L 95.9,280.6 L 94.5,281.8 L 92.3,283.7 L 90.2,285.6 L 89.5,286.6 L 88.9,289.7 L 89.0,293.2 L 89.5,294.7 L 92.6,295.6 L 92.8,297.1 L 91.4,299.1 L 91.1,301.2 L 90.7,302.7 L 90.4,303.2 L 89.4,305.3 L 88.5,308.0 L 87.9,310.9 L 87.1,313.5 L 85.9,316.0 L 85.4,317.3 L 85.4,318.4 L 86.9,320.5 L 87.1,321.6 L 85.8,324.0 L 84.1,326.8 L 82.5,329.3 L 80.7,331.9 L 78.8,333.8 L 76.0,335.4 L 73.3,336.6 L 70.9,337.9 L 69.6,338.0 L 68.6,337.8 L 68.3,337.2 L 68.1,336.7 L 69.4,334.1 L 70.6,331.4 L 70.6,330.3 L 69.1,327.4 L 68.8,326.6 L 69.1,325.0 L 71.2,322.4 L 72.4,321.0 L 73.9,319.3 L 75.4,317.7 L 76.9,316.4 L 78.4,315.2 L 79.7,313.4 L 80.8,309.9 L 81.5,308.2 L 82.2,306.3 L 83.1,302.9 L 83.1,299.9 L 83.2,298.5 L 82.7,297.1 L 80.8,294.5 L 79.2,292.2 L 77.2,290.3 L 76.0,289.7 L 74.9,289.7 L 72.3,291.2 L 69.6,292.9 L 67.0,294.0 L 65.4,294.1 L 64.9,293.8 L 64.2,293.5 L 62.0,291.7 L 61.0,290.6 L 60.9,289.5 L 62.0,286.0 L 61.9,285.0 L 61.3,284.1 L 60.4,283.7 L 59.9,282.9 L 60.1,280.5 L 60.5,279.4 L 62.8,277.2 L 62.9,276.2 L 62.7,275.4 L 60.6,275.4 L 59.8,274.4 L 58.9,271.9 L 58.2,270.9 L 58.0,268.3 L 57.7,267.0 L 57.0,265.8 L 54.6,264.2 L 53.7,263.2 L 52.8,260.3 L 52.9,257.2 L 54.1,254.6 L 54.5,251.3 L 54.2,248.7 L 53.8,247.3 L 53.8,245.1 L 53.3,244.1 L 50.9,243.4 L 48.0,242.7 L 45.2,242.2 L 44.0,242.3 L 41.5,243.5 L 41.0,243.9" fill="none" stroke="black" stroke-width="2"/>
</svg>