<?xml version="1.0" encoding="UTF-8"?>
<svg width="400" height="400" viewBox="0 0 400 400" xmlns="http://www.w3.org/2000/svg">
  <rect width="400" height="400" fill="white"/>
  <path d="M 127.6,207.8 L 127.5,207.7 L 126.2,207.0 L 125.9,207.0 L 125.7,206.8 L 125.4,207.0 L 123.9,206.9 L 123.0,206.8 L 122.2,206.5 L 121.5,206.1 L 118.3,203.5 L 117.1,202.6 L 116.1,202.2 L 116.0,201.9 L 116.0,201.6 L 115.7,201.4 L 115.2,201.4 L 115.0,201.6 L 113.8,200.6 L 113.3,199.8 L 112.4,199.3 L 111.9,198.6 L 111.4,196.4 L 110.5,196.4 L 110.0,196.3 L 108.4,196.2 L 107.2,195.7 L 105.2,194.8 L 104.2,194.6 L 103.6,194.4 L 102.7,193.9 L 101.8,193.4 L 100.1,193.0 L 99.0,192.7 L 97.6,191.7 L 97.1,191.2 L 96.4,190.2 L 96.4,189.5 L 96.5,189.3 L 96.3,189.2 L 96.1,189.1 L 96.2,188.7 L 96.5,188.6 L 96.2,188.3 L 95.9,187.6 L 95.3,187.1 L 94.6,186.8 L 91.7,185.8 L 91.1,185.7 L 90.6,185.4 L 89.7,184.8 L 88.5,183.0 L 88.3,182.2 L 88.0,181.2 L 87.7,180.6 L 86.6,177.9 L 85.2,175.4 L 84.2,174.2 L 83.5,173.2 L 83.3,172.3 L 83.4,171.6 L 82.1,169.1 L 81.9,168.1 L 80.0,164.6 L 79.1,163.1 L 78.4,161.2 L 77.5,159.5 L 77.5,159.5 L 76.5,156.9 L 75.8,155.7 L 75.1,154.9 L 74.3,153.4 L 73.3,150.9 L 72.4,149.4 L 70.5,146.5 L 70.0,145.8 L 68.6,144.5 L 68.3,144.0 L 68.0,143.6 L 66.9,141.3 L 65.9,138.6 L 65.7,136.8 L 65.5,136.5 L 64.7,134.8 L 64.4,133.6 L 64.4,132.7 L 64.2,132.1 L 64.3,131.2 L 64.7,129.3 L 65.0,128.6 L 64.9,125.6 L 64.7,124.2 L 64.7,122.4 L 64.3,120.6 L 64.3,119.4 L 64.4,118.8 L 64.1,118.4 L 63.7,117.9 L 61.4,115.8 L 61.3,114.6 L 60.9,114.0 L 60.6,113.8 L 60.1,113.8 L 60.1,113.4 L 59.9,113.1 L 72.8,43.3 L 73.5,43.5 L 74.0,43.5 L 74.3,43.1 L 74.4,41.6 L 75.1,40.9 L 76.6,40.1 L 77.0,40.0 L 77.5,40.1 L 78.0,40.3 L 79.6,40.1 L 80.5,40.1 L 82.1,40.4 L 83.8,41.0 L 84.6,41.2 L 85.0,41.2 L 88.2,42.6 L 90.1,43.6 L 90.8,44.2 L 91.3,44.4 L 93.5,44.4 L 94.2,44.5 L 95.1,44.8 L 96.3,45.5 L 97.4,46.4 L 98.4,46.9 L 100.7,47.8 L 101.7,48.3 L 102.9,49.2 L 103.5,49.6 L 103.9,50.0 L 104.4,50.6 L 104.6,51.2 L 105.2,51.7 L 106.5,52.3 L 107.5,53.2 L 107.6,53.5 L 108.7,54.0 L 110.1,54.9 L 110.7,55.6 L 110.9,55.7 L 112.3,56.6 L 113.6,57.9 L 115.6,59.3 L 117.0,60.7 L 118.3,61.7 L 120.4,63.2 L 123.4,65.9 L 124.3,66.9 L 125.8,68.0 L 126.4,68.8 L 127.2,69.6 L 127.6,70.1 L 128.0,70.6 L 128.2,71.3 L 128.6,72.0 L 128.8,72.6 L 129.0,72.8 L 130.2,73.0 L 130.4,73.0 L 130.4,73.2 L 129.7,73.3 L 129.1,74.2 L 129.1,74.9 L 129.3,75.8 L 130.1,77.2 L 131.4,80.4 L 131.8,81.5 L 132.4,82.8 L 132.6,83.7 L 132.8,84.7 L 133.3,86.6 L 133.5,88.6 L 133.6,90.3 L 133.0,92.4 L 132.5,92.9 L 132.0,92.9 L 131.7,93.2 L 131.7,93.5 L 131.9,94.3 L 132.7,95.4 L 132.7,95.6 L 132.9,96.3 L 132.9,100.3 L 132.9,100.9 L 133.8,102.7 L 134.3,103.3 L 134.3,103.5 L 134.5,104.1 L 135.2,105.4 L 135.4,105.7 L 136.5,107.5 L 138.0,109.6 L 138.5,110.2 L 138.9,110.8 L 139.3,111.1 L 140.9,112.3 L 142.0,112.9 L 142.5,113.7 L 143.5,114.6 L 144.0,115.3 L 144.8,117.1 L 145.1,118.3 L 145.2,119.9 L 145.0,120.7 L 145.1,122.1 L 145.7,123.9 L 145.8,124.9 L 147.0,127.2 L 148.0,128.5 L 149.8,130.3 L 150.2,131.0 L 151.2,132.0 L 151.6,132.7 L 152.6,133.3 L 152.7,133.3 L 153.8,134.1 L 154.7,134.3 L 154.8,134.4 L 155.2,134.7 L 156.0,135.1 L 157.1,135.8 L 158.8,137.7 L 159.4,139.0 L 159.6,139.7 L 160.2,141.1 L 161.1,142.2 L 161.9,143.0 L 163.8,144.4 L 164.1,144.9 L 164.5,145.7 L 166.2,147.0 L 169.9,148.6 L 170.5,149.1 L 171.5,150.3 L 172.0,150.7 L 172.5,151.1 L 173.3,151.5 L 174.3,151.9 L 174.5,151.9 L 174.8,152.2 L 176.3,154.4 L 176.9,154.9 L 178.7,155.7 L 179.2,155.6 L 180.0,155.6 L 180.6,155.8 L 181.3,156.7 L 181.7,157.3 L 181.9,157.6 L 182.4,157.9 L 183.2,158.6 L 183.8,159.1 L 184.5,159.5 L 185.8,160.1 L 186.9,160.7 L 188.2,161.4 L 189.1,162.2 L 189.7,162.8 L 191.4,163.7 L 191.5,163.8 L 192.4,164.6 L 193.0,165.9 L 193.8,167.0 L 195.5,168.5 L 196.0,169.2 L 196.6,170.4 L 196.6,171.3 L 196.2,172.1 L 195.4,173.6 L 194.7,174.4 L 194.5,174.4 L 194.0,175.0 L 194.0,175.2 L 194.2,176.1 L 194.6,176.8 L 195.3,178.5 L 195.4,178.9 L 195.5,179.4 L 196.0,179.9 L 196.0,180.2 L 196.4,180.3 L 197.0,181.1 L 197.4,181.6 L 198.0,182.1 L 198.6,182.3 L 198.8,182.7 L 199.3,183.1 L 200.0,183.2 L 200.8,183.9 L 201.3,184.6 L 202.6,185.9 L 203.2,186.2 L 204.0,186.1 L 206.2,185.3 L 207.6,185.2 L 208.9,185.2 L 209.0,185.1 L 209.4,185.1 L 210.0,185.3 L 210.2,185.1 L 210.8,185.0 L 211.3,185.2 L 211.2,185.4 L 211.2,185.6 L 211.5,185.6 L 211.9,186.1 L 211.8,186.6 L 212.2,186.7 L 212.3,187.0 L 212.7,187.3 L 212.7,188.1 L 213.0,188.2 L 213.3,188.7 L 213.3,189.4 L 213.2,189.8 L 213.3,190.0 L 213.8,189.9 L 214.0,189.9 L 214.7,190.7 L 214.6,191.2 L 214.8,191.4 L 215.1,191.4 L 215.4,190.8 L 215.8,190.7 L 216.6,190.9 L 217.3,191.3 L 217.8,191.4 L 219.4,190.7 L 220.9,190.7 L 221.7,190.9 L 221.9,191.2 L 222.2,191.3 L 222.4,191.1 L 222.7,191.2 L 224.4,191.2 L 225.3,191.5 L 225.6,191.4 L 225.8,191.2 L 226.1,191.2 L 226.6,191.5 L 226.7,191.8 L 226.8,192.2 L 226.7,192.7 L 227.0,192.8 L 227.0,193.6 L 226.9,194.8 L 226.7,195.7 L 226.2,196.2 L 225.5,196.3 L 225.2,196.4 L 225.0,196.6 L 224.9,196.9 L 224.9,197.3 L 225.2,197.5 L 225.8,197.4 L 226.5,197.2 L 227.9,197.1 L 228.7,197.7 L 229.1,197.8 L 229.7,198.4 L 230.4,199.6 L 231.0,199.8 L 231.9,201.3 L 232.0,202.4 L 232.2,202.6 L 233.1,202.9 L 233.3,203.2 L 233.7,203.4 L 235.7,203.2 L 236.1,203.2 L 237.2,203.0 L 238.2,203.0 L 240.4,202.4 L 241.7,202.0 L 242.5,201.8 L 243.6,201.7 L 247.0,201.6 L 248.4,201.6 L 251.1,201.5 L 253.0,201.5 L 255.0,201.3 L 255.3,201.3 L 258.5,201.1 L 259.4,201.2 L 260.1,201.4 L 260.5,201.3 L 260.6,201.1 L 260.8,201.5 L 261.5,201.7 L 261.8,201.9 L 262.0,201.9 L 262.1,201.7 L 262.6,201.5 L 263.1,201.7 L 263.4,201.6 L 263.8,201.2 L 264.0,201.1 L 265.5,201.1 L 266.0,201.4 L 266.1,201.9 L 266.3,202.0 L 266.6,201.8 L 268.3,203.0 L 269.9,204.4 L 271.3,205.2 L 272.2,205.7 L 272.9,206.1 L 273.7,206.4 L 274.9,206.7 L 277.9,206.9 L 278.8,207.2 L 279.0,207.1 L 281.1,208.4 L 284.2,210.8 L 284.9,211.2 L 287.6,212.1 L 287.9,211.8 L 289.5,211.6 L 289.9,211.6 L 291.4,211.9 L 293.5,211.8 L 295.0,211.7 L 295.5,211.9 L 297.7,212.2 L 297.8,212.3 L 298.8,212.7 L 300.1,213.3 L 300.6,213.7 L 302.0,214.2 L 302.8,214.6 L 303.0,214.4 L 303.3,214.4 L 305.1,214.9 L 307.3,215.0 L 308.5,214.9 L 310.7,214.3 L 311.5,214.0 L 311.8,214.2 L 312.2,214.2 L 312.6,214.5 L 312.6,214.8 L 312.8,214.9 L 314.0,214.9 L 314.6,215.4 L 314.6,217.0 L 315.0,217.5 L 316.1,217.8 L 316.3,217.8 L 316.4,217.8 L 316.7,217.8 L 316.1,248.3 L 316.1,248.6 L 315.9,248.7 L 314.3,248.5 L 314.1,248.2 L 313.8,248.1 L 313.2,248.7 L 311.9,248.8 L 310.8,248.8 L 310.2,249.2 L 309.8,249.2 L 308.8,249.2 L 308.5,249.8 L 308.2,249.8 L 307.9,249.7 L 307.3,249.9 L 307.1,250.1 L 307.6,250.2 L 307.6,250.4 L 307.3,250.8 L 307.3,251.0 L 308.2,251.0 L 308.4,251.2 L 308.6,251.6 L 310.2,251.6 L 310.6,251.5 L 310.9,251.8 L 311.7,251.9 L 312.3,252.6 L 312.7,253.4 L 312.8,254.3 L 312.7,255.0 L 312.9,255.9 L 312.8,257.9 L 312.6,258.4 L 312.5,261.7 L 312.3,262.6 L 312.5,263.5 L 312.3,264.2 L 312.4,264.7 L 312.7,265.0 L 314.3,265.1 L 315.5,265.0 L 317.4,264.2 L 318.3,263.8 L 319.2,263.2 L 319.3,263.2 L 319.8,263.0 L 320.8,262.3 L 321.5,262.0 L 321.6,262.0 L 340.1,303.0 L 340.0,303.0 L 339.4,303.1 L 338.1,303.7 L 337.4,303.8 L 336.5,304.2 L 335.8,304.2 L 334.2,304.3 L 332.9,304.1 L 331.5,304.1 L 331.0,304.0 L 330.7,304.1 L 329.8,304.4 L 328.5,304.8 L 327.4,304.9 L 326.1,305.3 L 325.0,305.5 L 323.5,306.1 L 322.3,306.2 L 322.0,305.9 L 321.8,305.6 L 319.2,305.9 L 318.4,306.0 L 318.1,306.1 L 317.8,306.3 L 317.7,306.6 L 317.6,307.0 L 317.2,307.4 L 317.4,307.7 L 317.4,308.0 L 316.9,308.8 L 316.8,309.9 L 315.7,311.1 L 315.1,311.2 L 314.5,310.9 L 313.8,310.8 L 313.1,311.0 L 312.9,311.2 L 312.3,311.5 L 312.0,312.3 L 311.9,313.0 L 311.6,313.8 L 311.0,314.5 L 310.2,315.0 L 309.7,315.2 L 308.9,314.8 L 308.8,315.4 L 308.6,315.7 L 307.7,316.2 L 306.9,316.2 L 306.2,316.0 L 306.1,316.1 L 306.3,316.6 L 306.3,317.0 L 305.8,317.8 L 305.7,318.3 L 305.2,318.8 L 304.5,318.9 L 304.0,318.8 L 303.6,319.2 L 303.2,319.2 L 303.2,319.4 L 303.5,320.5 L 303.8,321.0 L 304.9,321.0 L 305.2,321.2 L 305.3,321.6 L 305.1,322.1 L 304.8,322.8 L 304.5,322.9 L 304.5,323.3 L 304.2,323.6 L 304.4,324.4 L 305.0,325.4 L 305.4,325.5 L 305.5,325.8 L 305.8,326.1 L 306.1,326.0 L 306.7,325.9 L 307.3,326.2 L 308.5,326.0 L 309.0,326.1 L 309.4,326.7 L 309.5,328.1 L 309.9,330.3 L 310.2,332.9 L 310.1,333.5 L 309.4,334.6 L 309.4,335.1 L 309.7,335.4 L 309.7,336.2 L 309.5,337.1 L 309.4,337.7 L 308.7,339.1 L 308.7,339.4 L 309.0,340.1 L 308.8,340.4 L 308.5,340.6 L 308.2,340.9 L 308.1,342.0 L 307.8,342.6 L 307.7,343.5 L 307.4,344.4 L 306.9,345.2 L 306.3,345.6 L 304.9,345.7 L 304.3,345.5 L 304.2,345.3 L 304.1,345.1 L 303.5,344.7 L 303.0,344.2 L 302.8,343.7 L 303.1,343.1 L 303.1,342.3 L 303.4,341.7 L 303.6,341.4 L 303.6,341.0 L 303.5,340.4 L 303.2,340.3 L 301.2,340.8 L 300.4,341.3 L 299.6,341.4 L 298.3,341.1 L 296.1,341.2 L 295.5,341.4 L 294.1,342.4 L 293.3,343.7 L 293.3,344.2 L 293.5,344.5 L 293.5,344.9 L 293.0,346.0 L 292.8,346.9 L 292.4,348.6 L 292.0,349.8 L 291.3,350.5 L 290.3,351.1 L 289.4,351.7 L 288.4,353.1 L 288.3,353.6 L 288.0,354.3 L 287.8,354.3 L 287.6,354.7 L 287.4,354.6 L 287.2,354.9 L 287.2,355.0 L 286.5,355.7 L 286.0,355.7 L 284.8,356.5 L 284.7,356.6 L 283.9,356.6 L 283.3,356.5 L 282.6,356.0 L 282.4,356.0 L 282.7,356.3 L 282.3,356.8 L 282.0,357.3 L 281.9,358.1 L 281.3,359.5 L 281.2,359.9 L 281.2,360.0 L 281.1,360.0 L 281.1,360.0 L 281.0,359.9 L 281.1,359.4 L 280.9,359.3 L 280.9,358.6 L 280.9,357.9 L 281.0,357.3 L 281.2,356.7 L 281.8,355.8 L 281.8,355.4 L 281.5,355.1 L 281.2,354.6 L 282.8,353.1 L 283.2,352.7 L 283.0,352.1 L 283.6,351.1 L 283.8,350.9 L 284.1,350.7 L 284.1,350.3 L 284.6,349.7 L 284.7,349.7 L 284.9,350.1 L 285.4,350.4 L 285.9,350.3 L 286.6,349.3 L 286.6,348.9 L 286.9,348.5 L 286.0,347.9 L 285.0,347.5 L 284.5,347.0 L 284.1,346.9 L 283.5,347.0 L 282.9,347.5 L 282.2,348.2 L 281.7,348.6 L 280.9,348.9 L 280.1,349.6 L 279.6,349.7 L 278.3,349.5 L 277.6,349.1 L 277.0,348.5 L 277.2,348.0 L 277.2,347.6 L 277.0,347.3 L 276.5,347.3 L 276.3,347.5 L 275.7,348.7 L 275.1,348.8 L 273.8,349.0 L 272.9,349.3 L 272.3,349.0 L 271.6,348.6 L 271.3,348.7 L 271.0,349.1 L 270.4,349.1 L 269.6,348.9 L 268.7,348.3 L 267.3,347.7 L 266.9,347.2 L 266.8,346.9 L 266.2,347.2 L 266.2,347.5 L 266.5,348.1 L 266.5,348.5 L 266.2,349.0 L 265.8,349.5 L 264.5,349.6 L 263.6,349.4 L 263.1,349.1 L 262.1,348.3 L 261.9,347.8 L 262.0,347.6 L 262.6,346.3 L 261.3,345.4 L 260.9,345.2 L 260.2,345.2 L 259.7,345.4 L 259.0,345.4 L 258.6,345.8 L 257.0,346.0 L 256.7,346.1 L 256.0,345.7 L 255.5,345.5 L 255.3,345.4 L 254.6,345.1 L 253.9,345.0 L 254.1,344.5 L 253.8,343.3 L 253.5,342.5 L 253.4,341.3 L 253.5,340.6 L 253.3,339.4 L 253.4,337.7 L 253.9,337.1 L 254.9,336.9 L 255.3,336.1 L 255.3,335.7 L 255.2,335.2 L 255.2,334.5 L 255.3,334.3 L 255.5,334.0 L 256.1,333.4 L 257.1,331.4 L 257.3,330.6 L 257.2,329.5 L 256.9,328.5 L 255.5,326.8 L 255.3,326.5 L 254.6,325.2 L 254.4,324.1 L 254.5,322.5 L 254.7,322.3 L 255.0,322.2 L 255.0,322.0 L 254.9,321.8 L 255.0,321.1 L 255.3,320.5 L 255.5,320.1 L 255.8,319.3 L 255.9,318.2 L 256.1,317.9 L 255.9,317.2 L 255.9,315.8 L 256.6,314.1 L 257.2,311.0 L 257.3,309.4 L 257.6,308.6 L 257.6,307.7 L 258.1,306.8 L 258.7,304.9 L 258.9,304.7 L 259.4,303.6 L 259.8,302.2 L 260.5,301.5 L 260.9,301.2 L 261.1,300.8 L 262.3,300.1 L 262.5,299.7 L 262.4,297.6 L 263.1,297.2 L 263.1,297.1 L 262.8,297.1 L 262.5,297.2 L 262.2,297.2 L 261.6,296.5 L 261.1,296.0 L 259.2,295.3 L 258.6,294.7 L 257.8,293.2 L 257.8,292.0 L 257.9,291.7 L 258.0,291.2 L 258.6,290.3 L 258.6,289.5 L 258.0,288.7 L 257.5,287.5 L 257.3,287.2 L 256.5,285.6 L 256.1,284.9 L 255.3,282.8 L 255.1,282.1 L 254.9,280.7 L 255.0,279.9 L 255.3,279.6 L 255.7,279.2 L 255.6,278.9 L 255.3,278.9 L 255.1,278.8 L 254.9,278.5 L 254.2,276.3 L 253.9,274.3 L 253.9,273.0 L 253.9,272.6 L 253.9,272.5 L 254.0,272.3 L 254.1,272.2 L 254.4,271.9 L 254.4,271.8 L 254.1,272.1 L 254.1,272.1 L 254.3,271.8 L 254.4,271.7 L 254.5,271.6 L 254.7,271.4 L 254.8,271.4 L 254.7,271.3 L 254.6,271.3 L 254.5,271.4 L 254.6,271.5 L 254.1,271.9 L 254.0,271.8 L 254.0,271.7 L 254.0,271.6 L 254.1,271.4 L 254.2,271.3 L 254.2,271.1 L 254.3,271.0 L 254.3,270.8 L 254.3,270.6 L 254.3,270.5 L 254.3,270.4 L 254.4,270.3 L 254.4,270.2 L 254.5,270.1 L 254.6,270.0 L 254.6,269.9 L 254.6,269.9 L 254.7,269.7 L 254.6,269.6 L 254.6,269.5 L 254.5,269.2 L 254.6,268.6 L 253.9,268.0 L 253.0,267.6 L 252.0,266.9 L 251.1,266.2 L 249.2,263.9 L 246.5,261.6 L 245.5,260.8 L 245.1,260.3 L 244.7,260.2 L 243.4,260.2 L 242.2,259.7 L 241.8,259.3 L 241.7,258.9 L 242.2,258.4 L 242.4,258.3 L 242.3,258.2 L 241.8,258.1 L 241.7,257.7 L 241.4,257.5 L 239.2,257.5 L 238.3,258.2 L 237.4,258.4 L 235.8,258.7 L 234.9,259.0 L 234.0,259.1 L 231.8,259.9 L 230.9,260.3 L 230.2,260.9 L 229.4,261.4 L 228.9,262.1 L 226.9,263.5 L 225.4,264.7 L 224.3,265.7 L 223.8,266.3 L 222.6,267.6 L 221.7,268.2 L 220.7,269.3 L 220.1,270.0 L 217.4,272.4 L 216.3,273.1 L 215.3,273.7 L 213.6,274.3 L 213.1,274.4 L 211.1,274.9 L 210.2,274.9 L 209.2,274.8 L 207.2,274.1 L 205.0,272.8 L 204.0,272.1 L 203.1,271.6 L 201.4,270.4 L 201.1,270.0 L 198.1,268.5 L 196.6,267.8 L 193.7,265.9 L 192.8,265.3 L 191.4,264.6 L 189.1,263.4 L 187.6,262.8 L 185.5,261.6 L 184.2,261.0 L 183.1,259.9 L 181.6,259.0 L 178.2,255.8 L 177.6,255.2 L 176.3,253.7 L 175.7,253.2 L 174.7,252.5 L 173.8,251.7 L 172.8,251.3 L 172.3,250.6 L 170.8,248.6 L 167.2,244.9 L 166.9,244.5 L 165.8,243.5 L 164.4,242.2 L 164.0,241.8 L 162.5,240.9 L 160.7,239.2 L 160.1,238.8 L 160.0,238.4 L 159.3,237.6 L 159.1,237.2 L 158.7,236.9 L 158.4,236.3 L 156.9,235.1 L 156.4,234.5 L 154.5,232.0 L 153.6,231.3 L 152.5,230.5 L 151.7,229.4 L 148.5,226.3 L 147.2,224.7 L 146.0,223.5 L 145.6,223.4 L 143.7,222.1 L 141.6,220.5 L 141.1,220.0 L 140.9,219.9 L 140.7,219.6 L 140.7,219.4 L 139.7,218.4 L 138.8,217.1 L 137.8,216.3 L 136.2,215.4 L 135.3,214.8 L 135.1,214.5 L 134.5,213.8 L 132.3,212.1 L 132.2,211.9 L 131.8,212.0 L 131.3,211.3 L 130.6,210.1 L 129.7,209.3 L 128.7,208.4 L 127.6,207.8" fill="none" stroke="black" stroke-width="2"/>
</svg>