<?xml version="1.0" encoding="UTF-8"?>
<svg width="400" height="400" viewBox="0 0 400 400" xmlns="http://www.w3.org/2000/svg">
  <rect width="400" height="400" fill="white"/>
  <path d="M 154.0,222.0 L 153.9,221.4 L 153.6,221.3 L 153.3,221.4 L 152.7,221.5 L 152.2,221.7 L 151.6,221.9 L 151.2,221.7 L 151.1,221.7 L 150.5,221.4 L 150.0,221.1 L 149.3,220.9 L 148.7,220.8 L 148.0,220.4 L 148.2,220.3 L 148.6,220.1 L 149.2,219.8 L 149.9,219.3 L 150.5,218.8 L 151.1,218.4 L 151.3,218.2 L 151.3,217.7 L 151.0,217.2 L 152.2,216.4 L 152.4,216.6 L 152.8,216.4 L 152.2,215.7 L 151.9,216.0 L 152.1,216.2 L 149.9,217.5 L 149.5,217.2 L 148.9,217.4 L 148.6,217.2 L 148.4,217.2 L 148.3,217.1 L 147.9,216.5 L 147.7,215.8 L 147.8,215.1 L 147.9,214.4 L 147.7,213.8 L 148.5,212.9 L 147.2,212.4 L 146.8,213.0 L 146.3,212.8 L 146.5,212.6 L 146.4,212.4 L 146.3,212.3 L 146.2,212.2 L 145.8,212.5 L 145.4,212.2 L 145.2,211.9 L 144.9,211.3 L 144.7,210.9 L 144.7,210.5 L 144.6,209.7 L 144.6,209.2 L 144.8,208.6 L 145.0,208.0 L 145.3,207.5 L 145.6,207.0 L 145.7,206.7 L 145.9,206.4 L 146.4,205.9 L 146.8,205.4 L 147.3,204.9 L 147.8,204.5 L 148.3,204.2 L 148.8,203.9 L 149.5,204.0 L 149.6,203.9 L 149.5,203.3 L 149.3,202.9 L 148.7,202.4 L 148.1,201.9 L 147.9,202.0 L 147.7,202.4 L 147.2,202.6 L 146.9,203.0 L 146.8,203.2 L 146.8,203.7 L 146.9,204.4 L 146.7,204.7 L 146.1,205.2 L 145.9,205.3 L 145.8,205.2 L 145.7,205.0 L 145.4,204.2 L 145.3,204.1 L 145.1,204.1 L 144.7,204.4 L 144.5,204.6 L 144.4,205.1 L 144.3,205.3 L 143.9,205.6 L 143.1,205.7 L 142.4,205.6 L 142.1,205.5 L 141.5,205.2 L 141.1,205.1 L 141.0,205.0 L 140.4,204.8 L 140.2,204.7 L 139.8,204.1 L 139.6,204.1 L 139.1,204.6 L 139.0,204.6 L 138.4,204.8 L 137.8,205.0 L 137.3,205.3 L 136.8,205.6 L 136.2,206.0 L 135.6,206.3 L 135.0,206.6 L 134.4,206.8 L 133.7,207.2 L 133.5,207.5 L 133.2,208.1 L 132.9,208.7 L 132.5,209.4 L 132.1,209.7 L 131.5,210.0 L 131.0,210.1 L 130.3,210.3 L 130.1,210.5 L 129.6,211.1 L 129.4,211.1 L 128.7,211.1 L 128.4,211.3 L 128.0,211.7 L 127.6,212.2 L 127.1,212.8 L 126.7,213.2 L 126.6,213.3 L 126.2,213.0 L 126.2,213.0 L 126.1,212.7 L 126.1,212.0 L 126.2,211.6 L 126.7,210.9 L 126.9,210.4 L 127.2,209.8 L 127.5,209.4 L 127.6,209.3 L 128.0,208.8 L 128.3,208.2 L 128.6,207.6 L 128.8,206.9 L 129.1,206.5 L 129.3,206.4 L 129.6,206.2 L 129.8,206.1 L 130.1,205.9 L 130.5,205.4 L 130.6,204.8 L 130.9,204.3 L 131.4,203.9 L 131.9,203.6 L 131.9,203.3 L 131.8,203.1 L 131.5,202.9 L 131.2,202.9 L 130.7,203.2 L 130.1,203.3 L 129.9,203.2 L 129.8,202.6 L 129.7,202.0 L 129.7,202.0 L 129.7,201.5 L 130.1,201.2 L 130.8,200.8 L 131.4,200.5 L 131.7,200.1 L 131.9,200.0 L 132.4,199.9 L 133.0,199.9 L 133.6,199.6 L 133.8,199.4 L 134.1,198.9 L 134.1,198.4 L 134.1,198.2 L 133.9,198.1 L 133.2,198.1 L 132.6,197.8 L 132.1,197.7 L 131.9,197.8 L 131.5,198.2 L 131.4,198.6 L 131.5,199.1 L 131.3,199.2 L 131.1,199.2 L 131.0,199.2 L 130.5,198.8 L 129.8,198.8 L 129.3,199.0 L 128.8,199.4 L 128.5,199.9 L 128.4,200.0 L 128.2,200.5 L 128.0,201.1 L 127.9,201.8 L 127.7,202.4 L 127.7,202.4 L 127.5,203.0 L 127.3,203.5 L 127.0,203.8 L 126.5,204.1 L 126.0,204.1 L 125.4,204.1 L 124.8,204.0 L 124.2,204.0 L 123.6,203.9 L 123.4,203.7 L 123.3,203.7 L 122.8,203.3 L 122.8,203.1 L 122.8,202.9 L 122.9,202.4 L 122.8,202.3 L 122.4,201.8 L 122.0,201.4 L 121.9,201.2 L 121.9,200.9 L 121.9,200.2 L 121.9,199.6 L 121.9,199.6 L 121.9,199.5 L 122.0,199.4 L 122.8,199.2 L 123.3,199.2 L 124.0,199.0 L 124.8,198.9 L 125.5,198.5 L 126.1,198.1 L 126.6,197.7 L 127.0,197.0 L 127.3,196.5 L 127.3,195.8 L 127.4,195.3 L 127.3,194.7 L 127.2,194.4 L 127.1,194.0 L 127.1,193.5 L 127.2,192.9 L 127.3,192.2 L 127.1,191.6 L 126.8,191.1 L 126.4,190.5 L 125.9,190.0 L 125.5,189.6 L 125.0,189.2 L 124.5,188.8 L 124.2,188.1 L 124.0,187.8 L 123.6,187.4 L 123.0,187.1 L 122.6,186.8 L 122.3,186.6 L 121.8,186.8 L 121.4,187.2 L 121.3,187.2 L 120.7,187.4 L 120.0,187.4 L 119.6,187.1 L 119.0,186.7 L 118.6,186.6 L 117.9,186.6 L 117.2,186.5 L 116.5,186.5 L 115.9,187.0 L 115.4,187.1 L 115.1,187.0 L 114.6,186.6 L 114.2,186.2 L 113.9,185.7 L 113.7,185.1 L 114.0,184.4 L 114.0,184.2 L 114.0,183.6 L 114.0,183.0 L 114.0,182.3 L 114.0,181.6 L 114.0,180.8 L 114.0,180.2 L 114.2,179.5 L 114.3,178.9 L 114.4,178.3 L 114.5,177.7 L 114.6,177.1 L 114.8,176.4 L 114.8,176.2 L 114.6,175.7 L 114.1,175.3 L 113.9,175.0 L 113.8,174.8 L 113.8,174.5 L 113.8,174.3 L 114.0,174.1 L 114.4,173.6 L 114.9,173.3 L 115.4,173.2 L 115.7,173.5 L 115.8,173.6 L 116.2,174.1 L 116.5,174.4 L 116.7,174.3 L 117.1,174.2 L 117.0,173.8 L 117.3,173.2 L 117.3,172.6 L 117.1,172.3 L 116.6,172.4 L 116.5,171.8 L 116.8,171.2 L 116.7,170.9 L 116.8,170.2 L 116.9,169.4 L 116.9,168.8 L 116.8,168.2 L 116.7,167.6 L 116.6,167.1 L 116.6,167.0 L 116.4,166.3 L 116.4,165.7 L 116.5,165.1 L 116.7,164.5 L 117.0,164.0 L 117.4,163.5 L 117.7,163.4 L 118.0,163.2 L 118.0,163.0 L 118.0,162.2 L 118.1,162.1 L 118.3,162.1 L 118.6,162.5 L 118.8,162.5 L 118.9,162.4 L 118.8,162.0 L 118.5,161.7 L 118.1,161.2 L 118.0,160.9 L 117.9,160.2 L 117.6,159.4 L 117.2,158.8 L 117.0,158.7 L 116.8,159.1 L 116.6,159.3 L 116.4,159.5 L 115.9,159.6 L 115.1,159.7 L 114.8,159.7 L 114.5,159.7 L 113.9,159.7 L 113.4,159.7 L 113.2,159.6 L 113.2,159.4 L 113.2,159.1 L 113.5,158.6 L 113.9,158.1 L 114.4,157.7 L 114.5,157.2 L 114.4,156.6 L 114.3,156.3 L 114.2,156.0 L 114.1,155.4 L 114.0,154.8 L 114.0,154.2 L 114.2,153.9 L 114.6,153.5 L 115.0,153.0 L 115.4,152.5 L 115.6,151.8 L 115.7,151.1 L 115.6,150.6 L 115.5,150.4 L 115.1,150.0 L 114.6,149.9 L 114.3,149.6 L 114.1,149.4 L 114.0,148.8 L 114.0,148.2 L 114.3,147.6 L 114.7,147.2 L 115.2,146.9 L 115.3,146.7 L 115.5,146.1 L 115.3,145.6 L 115.3,144.8 L 115.3,144.1 L 115.3,143.4 L 115.3,142.8 L 115.3,142.3 L 115.2,141.8 L 115.0,141.7 L 114.7,141.9 L 114.0,142.3 L 113.2,142.4 L 112.5,142.8 L 112.0,143.1 L 111.9,143.1 L 111.9,142.9 L 111.9,142.2 L 111.9,141.4 L 112.0,140.6 L 112.2,139.9 L 112.4,139.3 L 112.7,139.2 L 112.7,139.2 L 113.2,139.2 L 113.7,139.3 L 113.8,139.3 L 114.3,139.3 L 114.9,139.4 L 115.4,139.4 L 115.6,139.4 L 115.8,139.2 L 116.2,138.5 L 116.2,138.3 L 116.2,138.2 L 115.9,137.9 L 115.5,137.3 L 115.2,136.6 L 115.0,136.2 L 115.0,136.0 L 114.9,135.7 L 114.8,135.4 L 114.4,135.4 L 113.9,134.9 L 113.5,135.0 L 113.1,135.2 L 112.7,135.6 L 112.2,136.2 L 112.0,136.5 L 111.8,136.9 L 111.5,137.0 L 111.3,137.0 L 110.5,136.8 L 110.1,136.6 L 110.0,136.5 L 109.6,136.1 L 109.3,135.9 L 109.2,135.7 L 109.0,135.4 L 108.9,134.9 L 109.0,134.6 L 109.1,133.9 L 109.5,133.3 L 109.9,133.1 L 110.5,132.8 L 110.8,132.5 L 110.8,132.2 L 114.0,131.8 L 114.4,131.0 L 113.9,130.9 L 113.7,131.4 L 110.8,131.9 L 110.7,131.7 L 110.4,131.5 L 109.9,131.2 L 109.3,131.5 L 109.0,131.3 L 109.0,131.3 L 108.9,131.0 L 108.9,130.6 L 109.0,130.0 L 108.9,129.6 L 108.3,129.2 L 108.1,129.1 L 107.9,129.2 L 107.7,129.1 L 107.5,129.0 L 107.2,128.3 L 106.9,127.8 L 106.6,127.3 L 106.1,127.1 L 105.5,126.8 L 104.9,126.4 L 104.3,126.1 L 103.9,125.8 L 103.3,125.3 L 102.9,125.0 L 102.8,124.9 L 102.3,124.4 L 101.8,123.9 L 101.1,123.5 L 100.6,123.5 L 100.4,123.4 L 196.8,40.5 L 197.3,40.0 L 198.1,40.7 L 200.5,44.1 L 202.3,47.5 L 202.8,48.8 L 203.0,50.8 L 202.9,52.3 L 203.1,53.1 L 204.0,54.7 L 204.8,56.0 L 205.2,57.0 L 205.4,58.4 L 205.3,59.3 L 205.3,61.4 L 205.2,61.9 L 204.3,65.2 L 204.3,66.9 L 204.8,67.4 L 206.1,68.1 L 206.2,68.2 L 206.8,68.7 L 207.2,69.4 L 207.5,70.6 L 208.1,71.9 L 208.5,72.3 L 209.3,72.9 L 210.3,75.6 L 210.7,77.4 L 211.3,82.8 L 211.3,82.8 L 211.3,84.6 L 210.7,86.4 L 210.4,87.3 L 209.9,89.0 L 209.6,90.5 L 210.1,91.0 L 211.0,91.6 L 211.9,91.8 L 212.9,92.5 L 213.2,93.1 L 213.8,94.3 L 214.3,94.7 L 215.7,94.8 L 216.2,95.2 L 216.6,95.9 L 217.1,98.0 L 217.6,99.4 L 217.9,100.4 L 218.5,101.9 L 218.5,102.4 L 218.4,103.5 L 218.1,105.4 L 218.1,105.5 L 217.9,106.2 L 217.7,106.8 L 217.4,107.4 L 217.2,108.1 L 216.9,108.8 L 216.6,109.2 L 216.2,109.8 L 215.8,110.3 L 215.5,110.8 L 215.2,111.2 L 214.9,111.8 L 214.6,112.5 L 214.3,113.2 L 214.3,113.4 L 214.3,113.5 L 214.3,114.3 L 214.4,115.0 L 214.7,115.7 L 215.2,116.3 L 215.3,116.5 L 215.3,116.7 L 215.3,116.7 L 215.0,117.4 L 214.7,118.0 L 214.6,118.5 L 214.7,118.7 L 215.0,118.8 L 215.3,119.1 L 215.5,119.1 L 216.3,119.0 L 216.9,118.8 L 217.5,118.7 L 218.1,118.6 L 218.3,118.6 L 219.0,118.6 L 219.7,118.6 L 220.5,118.7 L 221.3,118.7 L 222.1,118.7 L 222.9,118.8 L 223.6,118.9 L 223.8,118.9 L 224.3,119.0 L 224.8,119.2 L 225.5,119.7 L 226.1,120.0 L 226.8,120.2 L 227.4,120.4 L 228.0,120.6 L 228.6,121.0 L 229.1,121.4 L 229.4,121.9 L 229.6,122.5 L 229.7,123.2 L 229.9,124.0 L 230.0,124.6 L 230.1,125.3 L 230.2,125.9 L 230.2,126.0 L 230.2,126.6 L 230.2,127.2 L 230.2,127.8 L 230.2,128.5 L 230.3,129.1 L 230.4,129.8 L 230.6,130.6 L 230.7,131.2 L 230.8,131.9 L 230.8,132.0 L 230.9,132.2 L 230.3,132.7 L 230.2,132.7 L 229.8,133.4 L 229.4,134.0 L 229.2,134.5 L 229.0,135.1 L 229.1,135.7 L 229.3,136.1 L 229.5,136.2 L 230.1,136.1 L 230.4,136.0 L 230.6,136.0 L 231.0,136.3 L 231.6,136.5 L 232.1,136.7 L 232.4,136.9 L 232.7,137.4 L 233.0,138.0 L 233.2,138.3 L 233.3,138.5 L 233.5,138.7 L 234.3,138.8 L 234.5,138.9 L 234.9,139.3 L 235.4,139.7 L 235.9,140.0 L 236.6,140.4 L 236.8,140.6 L 237.2,140.9 L 237.7,141.4 L 238.1,142.0 L 238.6,142.6 L 239.0,143.3 L 239.4,143.9 L 239.8,144.5 L 240.1,145.1 L 240.5,145.8 L 240.9,146.2 L 241.5,146.5 L 241.9,147.0 L 242.1,147.6 L 242.4,148.1 L 242.6,148.7 L 242.7,149.3 L 242.9,149.9 L 242.9,150.4 L 243.0,150.5 L 243.1,151.2 L 243.2,151.8 L 243.5,152.3 L 243.8,153.0 L 244.1,153.6 L 244.5,154.1 L 244.8,154.6 L 245.1,155.1 L 245.4,155.6 L 245.5,155.7 L 245.7,156.1 L 245.9,156.7 L 246.1,157.3 L 246.4,157.7 L 246.9,158.2 L 247.3,158.7 L 247.7,159.2 L 248.1,159.7 L 248.5,160.2 L 248.7,160.6 L 248.9,160.7 L 249.2,161.3 L 249.5,161.8 L 249.8,162.4 L 250.2,163.0 L 250.2,163.1 L 250.6,163.7 L 251.0,164.2 L 251.5,164.7 L 252.0,165.3 L 252.6,165.8 L 253.2,166.2 L 253.8,166.5 L 254.4,166.7 L 254.8,167.1 L 255.1,167.6 L 255.2,167.8 L 255.6,168.4 L 255.8,169.0 L 256.1,169.6 L 256.4,170.2 L 256.6,170.5 L 256.7,170.7 L 256.9,170.9 L 256.9,171.2 L 256.8,171.9 L 256.6,172.5 L 256.6,172.6 L 256.6,173.3 L 256.6,173.4 L 256.7,173.9 L 256.9,174.6 L 257.1,175.3 L 257.2,175.5 L 257.3,176.0 L 257.5,176.6 L 257.7,177.4 L 257.8,178.0 L 257.9,178.7 L 258.0,179.3 L 258.1,179.9 L 258.0,180.6 L 258.0,180.6 L 257.8,181.0 L 257.8,181.8 L 257.9,182.6 L 257.7,183.2 L 257.5,183.7 L 257.8,184.3 L 258.0,184.9 L 258.0,185.6 L 258.1,186.3 L 258.1,186.9 L 258.1,187.5 L 258.0,188.2 L 258.0,188.4 L 258.1,188.8 L 258.2,189.4 L 258.3,190.1 L 258.5,190.7 L 258.7,191.5 L 258.7,191.7 L 258.9,192.1 L 259.1,192.7 L 259.3,193.3 L 259.5,193.8 L 259.7,194.4 L 259.8,194.5 L 259.9,194.7 L 260.0,194.9 L 260.3,195.4 L 260.4,195.5 L 260.9,195.8 L 261.2,196.2 L 261.3,196.8 L 261.4,197.4 L 261.4,197.6 L 261.6,198.0 L 261.7,198.4 L 261.8,198.9 L 262.1,199.5 L 262.5,200.1 L 262.8,200.6 L 263.1,201.2 L 263.3,201.9 L 263.6,202.6 L 263.8,203.4 L 264.0,203.9 L 264.1,204.5 L 264.0,205.1 L 264.0,205.8 L 264.2,206.4 L 264.5,207.1 L 264.7,207.3 L 265.4,207.7 L 265.9,208.1 L 266.4,208.5 L 266.9,209.0 L 267.4,209.6 L 267.9,210.1 L 268.4,210.6 L 268.8,211.1 L 269.3,211.6 L 269.8,212.1 L 270.3,212.6 L 270.8,213.6 L 273.6,220.9 L 273.7,221.7 L 273.7,222.0 L 273.7,222.5 L 273.9,223.2 L 274.0,223.5 L 274.1,223.6 L 274.2,223.6 L 274.3,223.6 L 274.2,224.4 L 274.1,224.4 L 273.9,225.1 L 273.8,225.7 L 273.6,226.3 L 273.4,227.0 L 273.3,227.7 L 273.2,228.5 L 272.9,229.2 L 272.6,229.7 L 272.3,230.3 L 272.1,230.8 L 271.7,231.4 L 271.6,231.6 L 271.4,232.0 L 271.2,232.5 L 271.0,233.1 L 270.8,233.7 L 270.6,234.3 L 270.4,235.0 L 270.3,235.7 L 270.0,236.4 L 269.7,236.9 L 269.4,237.4 L 269.0,238.0 L 268.6,238.5 L 268.3,239.1 L 267.9,239.6 L 267.5,240.2 L 267.1,240.8 L 266.7,241.5 L 266.3,242.1 L 266.0,242.6 L 265.6,243.2 L 265.3,243.7 L 264.9,244.2 L 264.6,244.7 L 264.1,245.4 L 263.9,245.7 L 263.6,246.0 L 263.5,246.1 L 262.7,245.8 L 262.4,245.9 L 261.9,246.3 L 261.5,246.7 L 261.2,247.4 L 261.2,248.0 L 261.2,248.5 L 261.3,249.2 L 261.4,250.0 L 261.5,250.6 L 261.8,251.3 L 262.1,251.9 L 262.6,252.3 L 263.3,252.7 L 263.8,253.1 L 264.5,253.4 L 264.9,253.6 L 265.4,254.2 L 265.5,254.5 L 265.6,254.7 L 265.9,255.2 L 266.3,255.9 L 266.5,256.5 L 266.7,257.0 L 266.8,257.6 L 267.0,258.4 L 267.1,259.2 L 267.3,260.0 L 267.5,260.7 L 267.6,261.2 L 268.1,261.8 L 268.4,262.3 L 268.6,263.0 L 268.7,263.5 L 268.7,264.1 L 268.7,265.0 L 268.8,265.8 L 268.9,266.5 L 269.0,267.2 L 269.0,268.0 L 268.9,268.8 L 268.8,269.4 L 268.2,269.6 L 268.3,270.2 L 268.9,270.0 L 269.3,270.6 L 269.7,271.1 L 270.1,271.7 L 270.5,272.3 L 270.9,273.0 L 271.3,274.2 L 272.4,277.5 L 272.5,278.7 L 272.5,282.2 L 274.1,284.6 L 274.6,285.9 L 274.9,287.6 L 275.2,288.7 L 275.2,288.9 L 275.5,290.1 L 276.2,294.0 L 276.6,295.8 L 276.9,297.6 L 277.4,298.3 L 277.3,299.0 L 277.0,300.7 L 276.8,301.5 L 276.3,302.5 L 276.2,303.1 L 276.2,303.6 L 276.8,305.7 L 277.0,306.8 L 277.3,307.8 L 278.2,308.3 L 279.8,308.8 L 280.0,308.9 L 280.9,310.0 L 281.6,310.4 L 283.0,310.7 L 286.8,311.2 L 287.8,311.4 L 289.2,312.0 L 290.3,313.2 L 290.4,313.3 L 291.9,314.2 L 292.8,315.1 L 293.6,316.6 L 294.2,318.6 L 295.2,319.9 L 295.6,320.1 L 296.4,320.6 L 296.7,321.2 L 299.1,322.7 L 299.6,323.1 L 299.2,323.3 L 269.9,348.6 L 269.7,348.1 L 269.2,348.1 L 268.7,347.7 L 267.9,348.7 L 267.7,349.2 L 266.6,350.3 L 266.5,350.3 L 265.8,350.4 L 264.1,350.3 L 262.6,349.9 L 261.4,350.2 L 259.5,350.8 L 256.6,352.1 L 256.2,352.3 L 256.1,352.7 L 255.9,352.9 L 255.4,352.6 L 255.1,353.4 L 255.1,354.7 L 255.3,356.5 L 255.1,357.3 L 254.5,358.6 L 254.2,359.3 L 253.9,359.3 L 253.7,359.4 L 252.5,359.3 L 250.8,359.9 L 249.8,360.0 L 248.5,359.8 L 247.5,359.7 L 243.8,358.9 L 242.0,358.8 L 241.0,358.8 L 240.2,358.5 L 238.4,357.4 L 237.9,357.0 L 237.3,356.4 L 236.3,355.0 L 236.2,354.1 L 236.4,353.1 L 236.5,352.8 L 236.5,352.5 L 236.3,349.2 L 236.1,348.1 L 235.4,347.3 L 234.4,346.7 L 232.5,345.9 L 229.8,345.0 L 229.1,344.5 L 228.7,344.0 L 227.5,343.0 L 227.0,342.2 L 226.4,340.9 L 225.9,339.8 L 225.4,338.7 L 224.3,337.3 L 223.7,336.1 L 222.7,334.1 L 222.2,333.2 L 221.1,330.5 L 219.7,328.6 L 217.6,326.2 L 215.3,324.0 L 214.5,323.4 L 213.4,323.3 L 211.5,323.8 L 207.4,325.2 L 206.1,325.6 L 201.0,325.8 L 200.6,326.2 L 200.3,325.7 L 199.3,324.5 L 198.7,324.3 L 196.9,324.0 L 195.6,323.7 L 194.7,323.1 L 194.2,322.5 L 194.1,322.2 L 193.6,321.4 L 193.1,320.1 L 191.7,317.7 L 191.7,317.6 L 191.2,316.5 L 191.0,315.4 L 190.5,314.2 L 190.5,312.3 L 189.7,310.7 L 189.0,309.6 L 187.7,308.5 L 187.5,307.7 L 186.9,306.6 L 186.3,306.5 L 185.8,306.5 L 185.1,306.4 L 184.2,305.7 L 183.5,305.3 L 183.1,304.9 L 181.9,304.1 L 179.2,301.5 L 178.6,300.8 L 177.8,299.6 L 177.2,297.8 L 177.0,296.3 L 176.8,294.9 L 176.4,293.3 L 176.3,293.1 L 175.7,291.8 L 174.9,290.6 L 174.3,289.3 L 173.5,288.0 L 173.3,287.2 L 173.0,286.0 L 172.9,282.9 L 173.1,281.6 L 174.1,280.9 L 174.1,279.7 L 174.1,279.3 L 174.4,278.6 L 174.6,277.8 L 174.6,277.3 L 174.5,276.9 L 174.1,276.5 L 173.5,276.3 L 173.1,276.5 L 172.9,277.2 L 172.7,277.8 L 172.7,277.8 L 172.1,278.2 L 170.0,278.3 L 168.1,278.3 L 167.2,278.1 L 166.4,278.1 L 166.2,278.1 L 165.4,279.2 L 165.1,279.2 L 164.2,279.0 L 163.5,278.5 L 163.1,278.0 L 162.9,277.2 L 162.0,276.4 L 161.2,275.2 L 160.9,274.1 L 160.9,274.0 L 160.6,272.8 L 160.6,272.3 L 160.5,271.9 L 160.3,270.4 L 159.3,267.6 L 159.3,266.4 L 159.3,266.2 L 159.4,265.6 L 159.4,265.3 L 159.5,265.0 L 159.6,264.9 L 159.7,264.1 L 159.7,264.1 L 159.7,264.1 L 159.8,263.7 L 160.0,263.1 L 160.2,262.8 L 160.8,262.2 L 160.6,261.6 L 160.8,261.1 L 161.0,260.9 L 161.4,260.7 L 161.7,260.3 L 161.7,260.1 L 161.7,259.3 L 161.5,259.0 L 161.2,258.4 L 161.1,257.8 L 161.0,257.1 L 161.0,256.3 L 161.1,256.1 L 161.5,255.8 L 161.5,255.6 L 161.4,255.2 L 161.2,255.0 L 160.7,254.6 L 160.3,254.2 L 160.0,253.6 L 159.8,253.0 L 159.7,252.3 L 159.6,251.6 L 159.6,251.3 L 159.6,250.9 L 159.6,250.1 L 159.6,249.4 L 159.6,249.4 L 159.6,248.8 L 159.8,248.1 L 159.9,247.3 L 160.1,246.7 L 160.2,246.0 L 160.1,245.6 L 160.1,245.3 L 160.1,244.7 L 159.9,244.1 L 159.8,243.5 L 159.8,243.3 L 159.8,242.9 L 159.7,242.2 L 159.9,241.4 L 160.1,241.1 L 160.3,240.5 L 160.5,239.8 L 160.6,239.6 L 160.8,239.2 L 161.1,238.6 L 161.3,238.0 L 161.2,237.4 L 161.0,236.7 L 160.7,236.3 L 160.5,236.2 L 160.2,236.4 L 159.6,236.9 L 159.0,237.4 L 158.4,237.8 L 158.1,237.9 L 157.7,238.0 L 157.4,238.0 L 157.2,238.0 L 156.6,237.8 L 155.9,237.4 L 155.5,236.9 L 155.2,236.4 L 155.1,236.2 L 155.2,236.0 L 155.3,235.7 L 155.8,235.1 L 156.2,234.6 L 156.3,234.4 L 156.2,233.9 L 156.1,233.2 L 156.0,232.5 L 156.0,231.8 L 155.9,231.1 L 155.8,230.4 L 155.6,229.8 L 155.5,229.1 L 155.3,228.4 L 155.3,227.8 L 155.4,227.3 L 155.4,227.3 L 155.7,226.7 L 155.7,226.4 L 155.4,225.6 L 155.1,225.0 L 154.7,224.5 L 154.3,223.9 L 154.1,223.3 L 154.0,222.7 L 154.0,222.1 L 154.0,222.0" fill="none" stroke="black" stroke-width="2"/>
</svg>