<?xml version="1.0" encoding="UTF-8"?>
<svg width="400" height="400" viewBox="0 0 400 400" xmlns="http://www.w3.org/2000/svg">
  <rect width="400" height="400" fill="white"/>
  <path d="M 108.7,174.8 L 109.3,173.9 L 109.7,173.0 L 109.7,172.4 L 112.9,170.0 L 113.4,169.8 L 113.7,169.6 L 113.7,169.4 L 114.5,169.1 L 115.9,168.4 L 116.1,168.4 L 116.2,168.7 L 116.3,168.9 L 116.0,169.0 L 116.1,169.5 L 120.8,167.8 L 119.1,166.1 L 119.3,165.7 L 119.1,165.2 L 118.9,165.0 L 118.7,164.6 L 118.7,164.2 L 118.5,163.9 L 118.5,163.5 L 118.5,163.2 L 119.7,160.4 L 119.7,159.6 L 120.2,158.2 L 121.0,157.0 L 121.7,152.7 L 121.2,151.3 L 121.2,150.0 L 122.2,148.4 L 122.3,147.0 L 122.6,146.4 L 122.4,145.2 L 122.1,144.3 L 122.2,142.1 L 125.3,138.7 L 125.6,137.3 L 126.7,136.2 L 126.7,132.8 L 130.0,128.9 L 133.0,125.0 L 135.3,119.9 L 140.3,112.9 L 141.0,112.2 L 143.0,110.0 L 144.0,108.4 L 145.9,106.6 L 146.9,106.4 L 148.1,104.1 L 147.3,102.9 L 146.4,103.4 L 145.9,102.3 L 146.2,100.5 L 148.4,96.8 L 150.3,93.2 L 153.4,92.4 L 154.2,91.1 L 155.8,87.5 L 155.9,87.1 L 157.3,85.4 L 159.1,84.7 L 160.8,84.8 L 161.1,86.0 L 161.7,85.9 L 163.5,84.0 L 163.8,82.6 L 164.7,81.4 L 164.6,79.6 L 166.4,77.3 L 166.7,75.8 L 170.9,71.4 L 173.0,70.0 L 174.3,69.5 L 175.6,69.3 L 176.5,68.8 L 177.6,69.3 L 179.1,69.0 L 185.0,64.0 L 187.1,62.8 L 188.6,61.2 L 189.9,59.4 L 192.2,57.9 L 195.3,56.5 L 200.6,56.4 L 202.2,55.5 L 203.7,55.9 L 205.9,57.0 L 207.2,58.1 L 209.2,59.8 L 209.1,62.2 L 209.4,63.2 L 210.0,62.8 L 210.6,62.0 L 211.4,62.7 L 212.0,62.4 L 213.0,60.0 L 213.1,58.5 L 213.7,58.0 L 214.9,57.8 L 216.4,55.8 L 219.0,55.4 L 219.2,56.4 L 220.0,57.1 L 221.2,57.2 L 221.5,57.6 L 222.0,57.8 L 222.6,57.2 L 224.2,57.0 L 225.3,57.6 L 226.1,57.7 L 226.8,58.1 L 227.4,58.0 L 230.1,55.1 L 229.9,54.3 L 229.1,52.9 L 228.1,51.7 L 228.4,50.2 L 228.0,48.9 L 227.4,48.3 L 227.4,47.4 L 226.3,47.1 L 225.7,45.6 L 226.0,44.1 L 226.5,42.8 L 226.5,41.5 L 226.8,40.1 L 226.7,40.0 L 288.0,50.0 L 288.4,50.1 L 286.0,53.4 L 284.7,56.6 L 284.8,57.9 L 285.2,58.6 L 285.3,59.5 L 284.7,60.9 L 284.6,63.2 L 285.1,64.1 L 286.1,65.5 L 288.0,66.8 L 292.5,66.5 L 294.6,64.9 L 296.4,64.3 L 297.6,62.9 L 299.6,62.7 L 300.5,62.4 L 301.4,62.2 L 301.1,190.7 L 299.6,191.7 L 298.7,192.7 L 298.4,194.0 L 299.2,193.9 L 301.0,192.9 L 301.1,192.9 L 301.0,215.7 L 300.6,215.8 L 299.9,216.4 L 298.9,218.1 L 298.6,219.3 L 299.0,221.8 L 300.1,222.8 L 301.3,223.1 L 301.7,224.5 L 301.8,226.1 L 301.2,226.5 L 300.3,227.2 L 299.9,229.5 L 299.9,234.4 L 299.4,234.6 L 257.1,255.7 L 255.7,256.4 L 255.4,255.6 L 255.3,254.8 L 254.2,255.7 L 253.6,255.7 L 253.7,254.2 L 254.4,253.6 L 254.5,253.0 L 252.6,251.3 L 251.6,252.1 L 250.7,252.3 L 249.6,253.4 L 248.4,253.6 L 247.7,255.0 L 247.6,257.0 L 247.0,257.8 L 246.3,259.9 L 245.1,261.2 L 243.7,260.7 L 242.8,261.7 L 242.4,264.4 L 241.6,266.2 L 241.1,268.0 L 239.5,268.4 L 239.0,269.3 L 239.5,269.8 L 238.8,272.0 L 238.3,275.2 L 237.0,275.9 L 235.0,275.6 L 234.2,276.0 L 228.0,281.2 L 226.3,281.9 L 221.8,284.9 L 220.1,285.1 L 218.4,283.4 L 218.1,282.2 L 218.6,280.2 L 219.5,278.8 L 219.6,277.4 L 220.5,276.1 L 220.9,274.0 L 222.8,270.4 L 221.6,270.5 L 220.6,271.2 L 220.1,271.1 L 220.2,269.5 L 220.8,267.3 L 220.4,266.9 L 218.6,267.3 L 217.3,267.4 L 216.5,268.2 L 215.9,269.1 L 214.8,269.0 L 213.9,267.6 L 213.3,265.9 L 214.4,264.7 L 213.2,263.5 L 213.1,262.2 L 213.9,261.6 L 215.2,261.4 L 216.0,260.0 L 216.9,259.4 L 217.8,259.1 L 219.9,257.0 L 221.1,256.5 L 222.0,255.3 L 221.5,254.1 L 221.5,253.5 L 221.0,253.1 L 221.5,252.4 L 221.1,251.9 L 220.0,252.6 L 219.8,254.2 L 219.4,255.2 L 218.2,255.4 L 217.0,256.4 L 215.4,256.5 L 214.3,257.8 L 213.5,257.9 L 211.1,259.2 L 209.7,259.4 L 208.4,258.7 L 207.5,257.2 L 207.5,256.4 L 208.4,256.1 L 208.7,255.5 L 208.1,255.0 L 207.3,255.5 L 207.2,256.0 L 205.9,256.2 L 201.6,253.2 L 199.1,252.8 L 196.8,253.3 L 195.2,253.2 L 192.7,251.7 L 191.9,250.9 L 182.9,250.7 L 182.2,250.4 L 181.3,250.3 L 178.9,250.7 L 177.8,251.2 L 176.6,251.2 L 173.6,251.7 L 171.6,253.0 L 169.5,255.5 L 169.3,257.9 L 168.5,258.4 L 166.8,259.7 L 163.5,262.7 L 162.0,263.6 L 160.2,264.1 L 156.0,267.0 L 155.8,267.1 L 152.8,268.3 L 148.6,269.3 L 147.7,268.1 L 144.7,269.9 L 143.3,271.4 L 141.7,272.2 L 141.1,273.5 L 138.6,276.1 L 137.1,278.6 L 136.0,281.1 L 135.4,284.9 L 134.7,284.3 L 134.3,285.1 L 133.0,285.9 L 133.0,286.8 L 131.6,291.0 L 130.3,293.2 L 127.8,293.8 L 127.7,294.3 L 128.8,295.4 L 128.9,295.8 L 129.1,296.4 L 130.1,297.5 L 129.8,298.4 L 129.7,300.7 L 129.0,300.9 L 127.3,298.8 L 126.7,298.3 L 126.5,297.4 L 126.2,296.8 L 124.4,296.8 L 124.5,298.4 L 124.7,299.0 L 124.2,301.4 L 124.8,305.7 L 125.1,306.3 L 127.2,308.4 L 128.6,310.2 L 128.7,310.8 L 129.5,311.7 L 131.0,311.8 L 131.8,312.6 L 132.0,315.2 L 130.8,316.9 L 131.3,317.5 L 131.7,320.0 L 131.1,320.9 L 131.1,323.3 L 131.9,324.4 L 132.8,324.4 L 133.3,324.8 L 133.9,324.9 L 134.2,324.4 L 135.5,323.4 L 136.4,323.9 L 136.6,326.4 L 137.3,327.9 L 138.1,331.9 L 139.6,335.2 L 139.6,338.3 L 139.2,340.1 L 137.9,342.1 L 137.4,343.5 L 136.9,343.7 L 135.6,343.1 L 133.8,342.9 L 133.9,343.5 L 134.1,343.9 L 134.1,344.3 L 133.0,344.2 L 132.4,344.9 L 132.8,345.3 L 132.6,345.5 L 132.3,345.8 L 132.0,345.9 L 131.6,346.2 L 131.4,346.3 L 131.6,346.5 L 131.7,346.6 L 131.9,346.9 L 131.9,347.1 L 131.7,347.2 L 131.3,347.2 L 131.1,347.3 L 130.8,347.2 L 130.3,346.9 L 130.1,346.7 L 130.0,346.8 L 129.8,346.7 L 129.4,346.5 L 129.3,346.5 L 128.9,346.5 L 128.7,346.5 L 128.5,346.3 L 128.4,346.2 L 127.4,349.5 L 127.6,349.5 L 127.6,349.3 L 127.8,349.6 L 127.9,350.0 L 127.9,350.4 L 128.2,350.7 L 128.1,351.1 L 127.8,351.5 L 127.5,352.1 L 127.2,352.6 L 126.6,352.5 L 126.0,352.5 L 125.7,352.3 L 125.1,352.2 L 124.8,352.2 L 124.8,352.4 L 124.9,352.6 L 125.4,352.7 L 125.7,352.8 L 125.9,353.1 L 125.8,353.5 L 125.4,353.9 L 125.3,354.4 L 125.3,354.8 L 125.1,355.2 L 124.8,355.3 L 124.5,355.2 L 124.2,355.3 L 124.1,355.3 L 124.1,354.8 L 124.1,354.1 L 124.0,353.9 L 123.9,353.9 L 123.8,354.7 L 123.7,356.0 L 123.4,356.4 L 123.0,356.4 L 122.9,356.2 L 123.1,356.0 L 123.1,355.9 L 123.2,355.6 L 123.4,355.3 L 123.2,355.0 L 123.4,354.8 L 123.4,354.5 L 123.3,354.1 L 123.0,353.6 L 122.7,353.1 L 122.9,352.6 L 122.8,352.2 L 122.9,351.7 L 122.9,351.2 L 122.9,350.9 L 123.1,350.6 L 123.0,350.4 L 122.9,350.1 L 122.6,349.8 L 122.4,349.2 L 122.1,348.9 L 121.6,348.3 L 121.9,347.9 L 121.5,347.6 L 123.0,345.5 L 122.6,345.2 L 121.1,347.3 L 119.2,345.7 L 121.1,343.2 L 120.5,342.8 L 118.5,345.5 L 118.4,345.5 L 118.1,345.2 L 117.9,345.1 L 117.8,344.8 L 117.7,344.6 L 117.2,344.4 L 117.1,344.1 L 117.1,343.9 L 116.9,343.7 L 116.7,343.6 L 116.4,343.7 L 116.4,344.0 L 116.4,344.4 L 116.3,344.9 L 116.2,345.6 L 115.9,345.8 L 116.0,346.2 L 116.2,346.5 L 116.2,346.9 L 116.3,347.3 L 116.5,347.7 L 116.6,348.2 L 116.6,348.9 L 116.6,349.3 L 116.9,349.8 L 117.1,350.1 L 117.3,350.1 L 118.0,350.4 L 118.0,350.8 L 117.8,351.7 L 117.9,352.5 L 117.7,352.7 L 117.8,353.1 L 118.0,353.6 L 117.8,353.9 L 117.9,354.4 L 117.8,354.7 L 117.9,354.9 L 118.0,355.3 L 118.0,356.1 L 117.8,356.6 L 117.5,356.7 L 117.2,356.8 L 117.2,357.0 L 117.3,357.5 L 117.5,357.8 L 117.7,358.0 L 117.9,358.5 L 117.8,358.8 L 117.6,359.3 L 116.4,359.9 L 115.9,360.0 L 113.9,359.3 L 111.0,357.8 L 108.4,355.2 L 106.3,352.2 L 106.0,351.0 L 105.2,344.3 L 105.1,338.8 L 105.5,337.6 L 107.4,334.5 L 108.5,331.3 L 109.2,328.4 L 110.6,327.9 L 111.5,327.2 L 111.2,326.1 L 112.0,324.7 L 111.5,323.3 L 112.9,318.7 L 111.0,319.8 L 110.3,319.4 L 109.6,318.6 L 109.0,319.9 L 109.3,320.5 L 109.1,321.4 L 108.5,321.6 L 105.7,320.7 L 106.4,317.8 L 106.3,316.9 L 106.9,315.3 L 107.3,313.4 L 106.6,312.7 L 105.1,312.3 L 105.2,311.5 L 106.3,310.9 L 107.3,310.7 L 108.0,308.9 L 108.2,306.6 L 107.9,305.2 L 107.0,304.8 L 105.4,306.3 L 104.6,306.5 L 103.8,304.5 L 103.9,303.1 L 103.1,303.2 L 102.1,305.0 L 101.3,305.0 L 98.6,305.3 L 98.3,304.4 L 98.2,301.8 L 99.4,300.2 L 100.0,298.7 L 101.1,297.7 L 102.4,297.7 L 105.4,297.4 L 105.7,296.5 L 106.8,296.2 L 106.8,295.8 L 106.9,294.4 L 107.5,294.0 L 108.5,294.3 L 109.6,295.0 L 110.6,294.3 L 109.9,293.5 L 110.3,288.6 L 110.4,281.9 L 110.1,280.7 L 108.4,279.7 L 107.1,278.6 L 107.6,277.4 L 108.0,276.3 L 108.0,275.8 L 107.3,274.7 L 107.0,273.9 L 108.2,271.7 L 109.3,269.9 L 109.5,267.2 L 110.0,266.3 L 110.8,265.2 L 105.5,261.5 L 105.3,260.0 L 106.0,259.6 L 111.7,263.5 L 112.3,263.2 L 112.7,262.2 L 106.1,257.3 L 106.5,256.5 L 107.3,255.9 L 109.2,257.4 L 109.8,257.2 L 112.0,259.0 L 112.6,258.9 L 112.9,258.3 L 112.6,257.3 L 114.4,254.8 L 114.6,253.0 L 115.4,253.1 L 116.3,253.1 L 119.9,248.9 L 120.0,248.1 L 120.5,247.2 L 120.3,246.3 L 118.4,243.9 L 117.5,243.4 L 116.4,243.3 L 115.1,240.4 L 119.6,236.3 L 120.8,234.9 L 120.4,234.3 L 119.6,234.5 L 118.9,234.8 L 118.6,234.5 L 120.8,232.2 L 120.8,231.0 L 119.7,229.9 L 118.8,230.4 L 113.3,234.6 L 112.3,233.8 L 111.7,233.8 L 110.9,232.2 L 110.6,229.7 L 110.6,227.3 L 110.9,227.0 L 114.0,223.3 L 117.8,219.4 L 122.9,215.0 L 123.2,213.3 L 125.3,211.7 L 125.6,210.9 L 125.1,206.0 L 124.9,205.1 L 124.9,205.0 L 124.5,203.9 L 124.5,203.4 L 124.7,202.9 L 124.8,202.4 L 125.1,202.0 L 126.0,202.0 L 125.9,201.4 L 125.3,201.5 L 125.4,201.0 L 125.3,200.5 L 125.1,199.7 L 124.9,199.1 L 124.4,198.7 L 123.6,198.2 L 122.8,197.8 L 122.5,197.5 L 122.3,197.5 L 122.1,197.6 L 121.8,198.1 L 121.5,198.4 L 121.2,199.0 L 120.7,199.9 L 120.4,199.8 L 117.8,204.2 L 117.4,204.0 L 116.3,206.1 L 114.5,204.3 L 114.2,204.7 L 113.6,204.7 L 113.2,204.2 L 112.9,204.1 L 112.6,203.7 L 112.3,203.2 L 111.9,202.9 L 111.9,202.7 L 112.2,202.1 L 112.5,201.6 L 112.9,200.8 L 113.3,200.3 L 113.8,199.4 L 114.7,198.7 L 115.3,199.1 L 115.8,198.7 L 118.2,196.7 L 117.2,196.1 L 117.4,195.4 L 117.4,195.2 L 118.2,195.6 L 118.5,194.9 L 117.6,194.6 L 117.7,193.7 L 117.7,192.7 L 117.3,192.4 L 117.0,192.1 L 116.6,191.6 L 116.1,191.4 L 115.5,191.0 L 114.4,191.4 L 114.5,191.7 L 114.0,191.8 L 113.9,191.6 L 112.4,192.1 L 112.4,192.3 L 111.2,192.4 L 110.9,191.3 L 108.6,191.4 L 106.3,192.3 L 105.2,190.5 L 108.2,188.6 L 108.0,188.2 L 103.5,190.8 L 102.7,189.6 L 108.1,186.4 L 107.9,186.1 L 103.8,188.0 L 103.5,187.2 L 107.3,185.3 L 107.2,185.1 L 102.2,187.5 L 101.8,186.6 L 102.5,186.3 L 102.5,186.1 L 104.6,185.1 L 104.5,185.0 L 103.1,185.6 L 102.9,185.3 L 103.6,185.1 L 104.6,183.2 L 104.0,182.8 L 104.2,182.6 L 105.4,181.0 L 104.6,180.4 L 104.7,179.9 L 105.0,179.7 L 106.8,178.7 L 107.5,176.0 L 108.7,174.8" fill="none" stroke="black" stroke-width="2"/>
</svg>