<?xml version="1.0" encoding="UTF-8"?>
<svg width="400" height="400" viewBox="0 0 400 400" xmlns="http://www.w3.org/2000/svg">
  <rect width="400" height="400" fill="white"/>
  <path d="M 182.9,253.3 L 182.9,253.1 L 183.3,251.4 L 183.4,250.4 L 183.4,250.3 L 183.5,250.1 L 183.5,249.1 L 183.9,248.6 L 184.5,248.1 L 184.4,247.9 L 184.3,247.7 L 184.6,247.7 L 184.6,247.8 L 184.8,247.7 L 185.1,247.0 L 184.9,246.2 L 184.9,245.5 L 185.4,244.7 L 186.0,243.9 L 186.5,243.6 L 187.1,243.4 L 187.4,243.2 L 188.1,242.4 L 189.2,241.2 L 189.7,240.8 L 190.4,240.0 L 191.0,239.3 L 191.7,238.2 L 192.2,237.4 L 192.6,236.6 L 193.2,235.6 L 193.6,234.6 L 194.4,232.4 L 194.8,231.8 L 195.0,231.2 L 195.3,230.4 L 195.4,230.2 L 195.5,229.6 L 195.9,229.1 L 196.1,228.6 L 196.0,228.1 L 196.0,227.8 L 196.4,227.3 L 196.4,226.5 L 196.7,225.8 L 196.6,225.5 L 196.8,225.0 L 196.7,224.9 L 196.6,224.5 L 196.6,224.3 L 196.7,224.1 L 196.7,223.9 L 196.8,223.5 L 196.5,223.0 L 196.6,222.8 L 196.8,222.3 L 196.7,222.1 L 196.4,222.1 L 196.4,221.8 L 196.2,220.9 L 195.5,220.0 L 195.5,218.8 L 195.5,218.2 L 195.8,217.5 L 196.0,217.0 L 196.3,216.4 L 196.8,213.7 L 196.7,212.8 L 196.1,211.7 L 195.6,210.6 L 195.3,210.0 L 195.2,209.9 L 195.2,209.8 L 195.1,209.0 L 195.4,208.6 L 195.6,208.0 L 195.9,207.3 L 196.0,206.8 L 196.1,206.1 L 196.4,205.8 L 197.1,205.0 L 197.9,203.4 L 197.9,203.1 L 197.9,202.9 L 197.9,202.5 L 198.1,201.8 L 198.1,200.8 L 198.3,200.2 L 198.3,199.7 L 198.6,199.0 L 199.1,198.2 L 199.2,198.0 L 199.4,197.4 L 199.7,196.7 L 199.8,196.0 L 200.1,195.0 L 200.4,194.2 L 200.5,193.3 L 200.7,191.2 L 200.8,190.8 L 201.0,189.8 L 200.9,188.6 L 200.8,187.1 L 200.8,186.3 L 201.1,185.6 L 201.2,184.6 L 201.1,184.5 L 201.2,183.7 L 201.4,183.3 L 201.7,183.3 L 201.8,181.6 L 201.9,181.1 L 201.7,180.5 L 201.7,177.2 L 201.9,176.7 L 202.0,176.4 L 202.1,176.1 L 202.2,174.6 L 202.5,174.3 L 202.7,172.4 L 202.7,172.0 L 202.7,171.9 L 202.7,171.7 L 202.5,171.3 L 202.5,170.5 L 202.7,169.2 L 202.6,168.4 L 202.5,167.4 L 202.5,166.0 L 202.5,164.7 L 202.8,162.0 L 202.9,158.8 L 203.1,157.5 L 203.1,156.8 L 203.1,156.8 L 203.3,155.6 L 203.8,153.7 L 204.5,152.2 L 205.2,151.5 L 205.7,149.9 L 205.8,148.5 L 205.6,147.6 L 205.6,146.8 L 205.2,146.1 L 205.1,145.8 L 204.0,144.3 L 203.9,143.8 L 203.9,139.8 L 204.0,139.6 L 203.8,139.3 L 203.7,137.0 L 204.1,136.3 L 204.3,135.8 L 204.3,134.7 L 204.6,134.2 L 204.7,133.8 L 204.6,133.6 L 204.7,132.9 L 205.0,132.2 L 205.1,130.4 L 205.2,129.6 L 205.1,129.5 L 205.4,128.5 L 205.6,128.0 L 205.7,127.4 L 205.9,126.8 L 206.0,126.0 L 205.9,125.8 L 206.1,125.2 L 206.0,125.1 L 206.3,124.3 L 206.4,123.5 L 206.8,122.7 L 206.8,121.8 L 206.6,121.6 L 206.7,121.3 L 206.8,120.5 L 206.4,119.5 L 206.4,118.7 L 206.7,117.4 L 206.7,116.1 L 206.6,114.9 L 206.4,114.6 L 206.3,114.5 L 206.5,114.3 L 206.6,113.8 L 206.6,113.6 L 206.6,112.4 L 206.7,111.7 L 206.7,110.9 L 206.6,110.5 L 206.6,109.8 L 206.6,109.7 L 206.4,108.7 L 206.5,108.1 L 206.8,107.5 L 206.8,107.2 L 206.7,106.8 L 206.7,106.3 L 206.8,105.8 L 206.8,104.9 L 206.3,104.2 L 206.3,103.9 L 206.2,103.8 L 206.2,103.2 L 206.3,102.8 L 206.5,102.1 L 206.7,101.7 L 206.8,101.1 L 206.5,100.7 L 206.5,100.4 L 206.7,100.1 L 206.7,100.0 L 206.5,99.8 L 206.9,99.4 L 206.7,99.2 L 206.5,99.2 L 206.3,98.9 L 205.8,98.1 L 205.6,97.8 L 205.4,97.4 L 205.5,97.0 L 205.4,96.9 L 205.4,95.9 L 205.1,95.3 L 205.1,94.8 L 205.3,94.3 L 205.2,93.9 L 205.0,93.5 L 204.1,93.7 L 203.8,93.6 L 203.8,93.3 L 203.6,93.2 L 203.3,92.7 L 203.5,92.3 L 203.5,92.1 L 203.4,92.1 L 203.1,92.3 L 202.8,92.4 L 202.7,92.2 L 202.9,91.5 L 202.2,92.0 L 201.9,92.1 L 201.2,92.5 L 200.8,92.7 L 200.5,92.8 L 200.3,92.5 L 200.0,92.3 L 199.8,92.2 L 199.8,92.0 L 200.0,91.8 L 199.9,91.5 L 199.8,91.3 L 200.0,90.7 L 199.9,90.6 L 199.7,90.5 L 199.6,90.3 L 199.5,89.7 L 199.3,89.3 L 199.3,89.0 L 199.5,88.7 L 199.8,88.3 L 199.8,88.0 L 200.0,87.6 L 200.0,87.0 L 200.0,86.6 L 200.1,86.4 L 200.1,86.2 L 200.3,85.9 L 200.2,85.6 L 200.1,85.1 L 200.3,84.8 L 200.2,84.6 L 200.1,84.5 L 200.2,84.1 L 199.9,83.0 L 199.4,82.0 L 199.1,81.7 L 198.9,81.7 L 198.8,80.9 L 198.5,80.1 L 198.2,79.4 L 197.9,79.3 L 197.5,79.7 L 197.2,79.7 L 196.9,79.8 L 196.8,79.4 L 196.5,79.1 L 196.0,78.8 L 195.7,78.6 L 195.3,79.0 L 195.1,78.3 L 195.0,78.1 L 194.8,77.9 L 194.7,77.7 L 194.5,77.5 L 194.5,76.8 L 194.7,76.7 L 195.1,76.5 L 195.1,75.3 L 266.7,40.1 L 266.8,40.0 L 266.9,40.2 L 267.3,41.4 L 267.3,41.7 L 267.5,41.9 L 267.6,42.0 L 267.5,42.1 L 267.8,42.3 L 267.9,42.5 L 267.9,42.8 L 268.1,42.9 L 268.1,43.0 L 268.1,43.2 L 268.1,43.3 L 268.4,43.6 L 268.4,43.7 L 268.6,44.4 L 268.8,45.0 L 268.9,45.4 L 269.1,45.7 L 269.1,45.8 L 269.0,45.8 L 269.0,45.9 L 269.2,46.1 L 269.5,46.7 L 269.8,47.1 L 270.1,47.7 L 270.4,48.1 L 270.4,48.4 L 270.3,49.1 L 270.5,49.1 L 270.7,49.2 L 270.7,49.5 L 270.8,49.6 L 271.0,50.1 L 271.1,50.3 L 271.4,50.6 L 271.4,50.8 L 271.6,50.9 L 271.8,51.3 L 271.9,51.8 L 272.1,52.3 L 272.3,52.8 L 272.4,53.2 L 272.7,53.5 L 272.7,53.7 L 272.8,54.3 L 273.0,54.9 L 273.0,55.0 L 273.2,55.6 L 273.3,56.3 L 273.4,56.5 L 273.6,57.1 L 273.9,57.6 L 274.1,58.1 L 274.4,58.6 L 274.5,58.9 L 274.6,59.3 L 275.0,59.8 L 275.2,60.0 L 275.3,60.7 L 275.4,61.3 L 275.6,61.8 L 275.7,62.3 L 275.9,62.8 L 276.0,63.0 L 276.1,63.6 L 276.2,63.9 L 276.4,64.6 L 276.5,65.0 L 276.6,65.5 L 276.8,66.2 L 276.8,66.8 L 276.9,67.5 L 277.0,68.2 L 277.0,68.2 L 277.2,68.8 L 277.5,69.4 L 277.8,69.9 L 278.1,70.4 L 278.3,70.8 L 278.5,71.0 L 253.3,81.4 L 253.2,81.1 L 252.9,80.9 L 252.6,80.8 L 252.5,80.7 L 252.4,80.6 L 252.3,80.6 L 252.3,80.5 L 252.0,80.4 L 251.9,79.8 L 251.9,79.6 L 251.7,79.0 L 251.6,78.8 L 251.5,78.4 L 251.3,78.2 L 250.7,77.9 L 250.6,78.0 L 250.4,78.2 L 250.0,78.7 L 249.8,78.9 L 249.3,79.2 L 249.0,79.3 L 248.6,79.7 L 248.5,79.7 L 248.3,79.8 L 248.2,79.9 L 247.7,80.4 L 247.6,80.7 L 247.3,81.3 L 247.0,81.9 L 246.9,82.2 L 246.8,82.7 L 246.7,83.0 L 246.6,83.3 L 246.5,83.9 L 246.5,84.4 L 246.6,84.4 L 246.5,84.6 L 246.4,85.2 L 246.3,85.4 L 246.3,85.4 L 246.1,85.7 L 245.8,86.2 L 245.7,86.6 L 245.8,87.2 L 245.8,87.2 L 245.8,87.2 L 245.8,87.5 L 246.0,87.8 L 246.3,88.1 L 246.7,88.6 L 247.0,88.8 L 246.9,89.0 L 247.0,89.1 L 247.1,89.0 L 247.3,89.1 L 247.3,89.3 L 247.4,89.9 L 247.5,90.0 L 247.5,90.4 L 247.5,90.5 L 247.5,90.5 L 247.4,91.1 L 247.3,91.4 L 247.3,91.6 L 247.2,92.1 L 247.1,92.2 L 246.9,92.5 L 247.0,92.5 L 246.8,92.9 L 246.6,93.2 L 246.5,93.3 L 246.0,93.7 L 245.6,94.1 L 245.3,94.4 L 245.2,94.5 L 244.6,94.8 L 244.0,95.1 L 243.8,95.2 L 243.2,95.6 L 242.9,95.9 L 242.6,96.3 L 242.4,96.6 L 242.3,96.8 L 242.3,97.4 L 242.3,97.8 L 242.5,98.5 L 242.5,99.1 L 242.6,99.8 L 242.6,100.3 L 242.6,100.9 L 242.5,101.5 L 242.3,102.1 L 242.3,102.4 L 242.4,102.9 L 242.5,103.5 L 242.6,104.1 L 242.6,104.5 L 242.7,104.7 L 243.0,105.2 L 243.2,105.7 L 243.5,106.0 L 243.5,106.3 L 243.7,106.6 L 243.8,107.0 L 244.0,107.3 L 244.1,107.5 L 244.7,107.8 L 245.3,108.1 L 245.8,108.4 L 246.3,108.9 L 246.7,109.4 L 246.8,109.6 L 246.9,109.8 L 247.0,109.9 L 247.1,110.2 L 247.1,110.3 L 247.4,110.8 L 247.7,111.2 L 247.8,111.6 L 247.9,111.8 L 248.0,112.0 L 248.1,112.2 L 248.5,112.3 L 248.8,112.4 L 249.0,112.6 L 249.1,112.7 L 249.4,112.8 L 249.7,112.8 L 250.2,113.1 L 250.4,113.2 L 250.4,113.2 L 250.9,113.7 L 251.4,114.1 L 251.4,114.2 L 251.6,114.5 L 252.0,115.0 L 252.1,115.3 L 252.3,115.4 L 252.5,115.9 L 252.6,116.2 L 252.7,116.3 L 252.8,116.8 L 253.0,117.4 L 253.1,117.7 L 253.1,118.1 L 253.2,118.2 L 253.1,118.4 L 253.4,118.5 L 253.4,118.6 L 253.4,118.7 L 253.4,118.9 L 253.4,119.0 L 253.6,119.1 L 253.7,119.1 L 253.7,119.2 L 253.4,119.2 L 253.5,119.4 L 253.5,119.5 L 253.6,119.5 L 253.7,119.7 L 253.8,119.8 L 254.0,120.1 L 254.0,120.2 L 254.1,120.5 L 254.3,120.4 L 254.3,120.8 L 254.3,120.8 L 254.5,120.7 L 254.5,120.8 L 254.8,121.3 L 254.9,121.6 L 254.9,121.7 L 255.1,121.9 L 255.2,122.2 L 255.2,122.3 L 255.2,122.3 L 255.3,122.4 L 255.5,122.7 L 255.5,122.8 L 255.7,123.1 L 255.9,123.2 L 256.1,123.5 L 256.1,123.6 L 256.4,124.2 L 256.8,124.9 L 256.9,125.0 L 257.1,125.1 L 257.2,125.4 L 257.4,125.5 L 257.6,125.7 L 257.9,126.3 L 258.1,126.7 L 258.3,126.9 L 258.4,127.2 L 258.7,127.9 L 258.9,128.3 L 259.0,128.3 L 259.4,128.3 L 259.5,128.4 L 259.8,128.6 L 260.4,128.8 L 260.6,128.9 L 261.0,129.1 L 261.0,129.2 L 261.3,129.3 L 261.4,129.6 L 261.6,129.8 L 261.9,129.9 L 262.2,130.1 L 262.3,130.2 L 262.7,130.7 L 263.1,131.0 L 263.1,131.0 L 263.1,131.1 L 263.2,131.3 L 263.4,131.5 L 263.8,132.0 L 264.2,132.4 L 264.2,132.5 L 264.0,132.7 L 264.0,132.9 L 264.1,132.9 L 264.2,132.9 L 264.4,132.7 L 264.5,132.7 L 264.5,132.9 L 264.4,132.9 L 264.4,133.0 L 264.5,133.1 L 264.7,133.1 L 264.7,133.1 L 264.7,133.2 L 264.5,133.4 L 264.5,133.5 L 264.5,133.6 L 264.7,133.6 L 264.9,133.7 L 265.0,134.1 L 265.2,134.3 L 265.1,134.6 L 265.0,134.7 L 265.1,134.8 L 265.2,134.9 L 265.3,134.9 L 265.4,135.0 L 265.1,135.1 L 265.0,135.1 L 265.3,135.4 L 265.3,136.0 L 265.4,136.6 L 265.5,137.2 L 265.4,137.7 L 265.5,137.7 L 265.5,137.9 L 265.7,138.0 L 265.6,138.4 L 265.8,138.6 L 265.8,139.2 L 265.9,139.3 L 266.1,139.4 L 266.2,139.5 L 266.5,140.0 L 266.8,140.3 L 266.9,140.4 L 267.2,140.4 L 267.8,140.5 L 268.4,140.8 L 268.4,140.8 L 268.4,140.8 L 258.9,158.8 L 257.9,158.5 L 257.2,158.4 L 256.3,158.4 L 255.8,158.7 L 255.3,158.6 L 255.1,158.8 L 255.1,159.4 L 254.0,161.1 L 253.8,161.2 L 253.3,161.7 L 253.0,162.3 L 252.2,163.6 L 251.9,163.7 L 251.4,164.4 L 251.3,164.9 L 250.7,165.2 L 250.6,165.3 L 250.6,165.5 L 250.5,165.6 L 250.1,165.8 L 249.5,165.9 L 249.3,165.9 L 249.4,165.6 L 249.2,165.6 L 249.1,165.9 L 249.0,166.1 L 248.6,166.5 L 248.0,167.2 L 247.5,167.5 L 247.3,167.5 L 246.9,167.5 L 246.7,167.9 L 246.2,169.0 L 245.9,169.8 L 245.8,170.1 L 245.4,170.3 L 244.9,170.3 L 244.7,170.2 L 244.6,170.4 L 244.4,170.6 L 244.4,171.2 L 243.9,171.6 L 243.9,172.0 L 243.9,172.6 L 244.2,172.6 L 244.5,172.8 L 244.6,173.1 L 244.5,173.5 L 244.5,174.7 L 244.6,175.1 L 244.9,175.3 L 245.0,176.0 L 245.1,176.1 L 245.4,176.1 L 245.7,175.8 L 245.8,175.6 L 246.0,175.5 L 245.9,176.4 L 245.2,177.0 L 244.8,177.1 L 244.7,176.9 L 244.8,176.6 L 244.9,176.2 L 244.6,175.9 L 244.0,175.9 L 243.9,176.1 L 244.1,176.6 L 243.8,176.9 L 243.4,177.0 L 243.3,177.0 L 243.2,176.9 L 243.0,176.7 L 242.9,176.7 L 242.6,177.1 L 242.4,177.4 L 242.2,177.6 L 241.9,177.4 L 241.5,177.3 L 241.4,177.1 L 240.9,177.1 L 240.7,177.2 L 240.5,177.7 L 240.2,178.3 L 240.1,178.6 L 239.9,178.7 L 239.7,178.6 L 239.6,179.1 L 239.4,179.7 L 239.0,180.0 L 239.3,181.0 L 239.2,181.0 L 238.9,180.9 L 238.7,180.9 L 238.6,180.9 L 238.6,181.1 L 238.5,181.8 L 238.3,182.4 L 238.2,182.6 L 238.2,183.0 L 238.4,183.0 L 238.6,183.0 L 239.0,183.1 L 239.2,183.2 L 239.3,183.7 L 239.3,183.7 L 239.5,183.7 L 239.6,183.6 L 239.7,183.6 L 239.9,184.0 L 240.1,184.2 L 240.2,184.4 L 240.1,184.7 L 239.9,184.9 L 239.3,185.3 L 239.0,185.8 L 238.8,186.2 L 238.7,186.4 L 238.5,186.5 L 238.5,186.5 L 238.3,186.6 L 238.2,186.7 L 238.1,187.8 L 238.1,188.5 L 237.7,188.6 L 237.5,188.4 L 237.5,188.0 L 237.4,187.8 L 237.2,187.9 L 237.1,188.3 L 236.7,188.9 L 236.6,189.2 L 236.9,189.3 L 237.1,190.1 L 237.3,189.8 L 237.6,189.3 L 237.6,188.9 L 237.8,188.8 L 238.2,188.9 L 238.3,189.2 L 238.5,189.3 L 238.6,189.4 L 238.4,189.7 L 238.4,190.2 L 238.4,190.6 L 238.3,191.3 L 238.0,192.1 L 237.7,192.4 L 237.5,192.4 L 237.3,192.2 L 237.2,192.2 L 237.0,192.9 L 237.0,193.3 L 237.1,193.6 L 237.2,194.1 L 236.9,195.2 L 236.8,196.1 L 237.1,196.2 L 237.5,196.6 L 237.8,196.8 L 237.9,197.2 L 238.4,197.7 L 238.8,197.9 L 239.1,198.4 L 239.2,198.6 L 239.1,199.4 L 239.3,199.4 L 239.8,199.9 L 239.9,200.7 L 239.7,201.6 L 239.4,202.0 L 239.5,202.8 L 239.7,203.2 L 240.0,203.3 L 240.3,203.7 L 240.3,204.3 L 240.2,204.4 L 239.9,204.4 L 239.8,204.7 L 239.8,205.0 L 239.9,205.0 L 240.3,204.8 L 240.4,204.9 L 240.4,204.9 L 240.4,205.0 L 240.1,205.4 L 240.2,206.1 L 240.1,206.4 L 239.9,207.0 L 240.0,207.2 L 240.0,207.6 L 239.5,208.5 L 239.5,209.4 L 239.5,210.1 L 239.4,210.4 L 239.2,210.6 L 239.0,210.7 L 238.7,211.2 L 238.1,212.3 L 238.1,213.5 L 238.2,213.6 L 238.3,214.2 L 237.9,215.2 L 237.8,215.6 L 237.7,215.7 L 237.6,215.9 L 237.9,216.2 L 238.2,216.9 L 238.2,217.5 L 238.1,218.3 L 238.3,218.5 L 238.7,218.7 L 238.8,218.8 L 239.4,219.4 L 239.4,219.6 L 239.1,220.6 L 238.9,221.5 L 238.9,221.7 L 238.9,221.8 L 238.4,223.6 L 238.3,223.9 L 238.3,223.9 L 238.2,224.6 L 238.4,225.4 L 238.4,226.0 L 238.0,226.7 L 238.0,226.7 L 237.8,226.8 L 237.6,226.7 L 237.4,226.7 L 237.5,226.9 L 237.5,227.3 L 236.8,229.0 L 236.8,229.5 L 236.9,229.4 L 237.1,229.7 L 237.9,229.7 L 238.2,229.4 L 238.6,229.5 L 239.1,230.0 L 239.2,231.0 L 239.5,231.5 L 239.5,232.0 L 239.1,232.7 L 238.7,233.4 L 238.2,234.5 L 238.1,234.9 L 237.5,236.4 L 237.1,237.3 L 236.3,238.5 L 235.8,238.5 L 235.6,238.0 L 235.4,238.4 L 235.2,238.9 L 235.1,239.7 L 235.3,239.4 L 235.4,239.3 L 235.6,239.4 L 235.8,239.6 L 235.9,240.1 L 236.1,240.4 L 236.3,241.0 L 236.7,241.4 L 236.9,241.8 L 237.0,242.3 L 237.2,243.1 L 237.2,244.0 L 237.1,244.4 L 237.0,244.8 L 237.2,244.9 L 237.7,245.2 L 238.1,245.5 L 238.2,245.7 L 238.5,245.9 L 238.5,246.0 L 238.5,246.1 L 238.6,247.0 L 238.4,248.2 L 238.1,249.1 L 237.6,250.5 L 236.3,252.5 L 236.1,252.9 L 236.4,253.2 L 236.4,253.8 L 235.9,255.1 L 235.7,255.5 L 235.5,255.9 L 234.9,257.0 L 234.8,257.2 L 233.8,258.6 L 232.2,260.3 L 231.7,260.5 L 231.4,260.9 L 230.8,261.6 L 230.0,262.1 L 229.5,263.2 L 229.3,263.7 L 228.7,264.4 L 228.4,265.0 L 228.3,265.5 L 227.8,266.1 L 227.6,266.6 L 226.6,267.7 L 226.3,268.3 L 225.5,269.2 L 225.0,269.5 L 224.7,269.6 L 224.2,270.1 L 223.7,270.8 L 223.3,270.9 L 223.0,271.2 L 223.2,271.8 L 223.1,272.2 L 222.8,272.8 L 222.7,273.4 L 222.7,273.5 L 222.1,274.5 L 221.6,275.3 L 221.2,275.8 L 220.1,277.2 L 220.1,277.5 L 220.2,277.9 L 220.5,278.1 L 220.9,278.7 L 220.9,278.8 L 220.9,279.7 L 221.4,280.2 L 221.6,280.7 L 221.8,281.8 L 222.2,282.7 L 223.1,283.6 L 223.9,284.6 L 224.6,285.7 L 224.7,285.9 L 224.7,286.0 L 224.7,286.4 L 224.8,286.4 L 224.9,286.3 L 225.0,286.3 L 225.2,286.5 L 225.7,287.3 L 225.7,287.3 L 225.8,287.5 L 225.9,287.9 L 225.8,287.9 L 225.7,288.0 L 225.6,288.1 L 225.7,288.2 L 225.9,288.1 L 226.0,288.2 L 226.1,288.7 L 226.2,289.3 L 226.3,290.2 L 226.6,291.1 L 226.8,292.1 L 227.0,292.4 L 227.4,292.6 L 227.6,293.0 L 227.5,293.1 L 219.8,305.8 L 219.3,305.4 L 219.0,305.3 L 218.8,305.2 L 218.0,305.1 L 217.3,304.9 L 216.9,304.8 L 216.2,304.6 L 215.8,304.5 L 215.5,304.4 L 214.9,304.4 L 214.4,304.4 L 213.7,304.3 L 212.1,303.8 L 211.2,303.4 L 210.8,303.2 L 209.5,303.2 L 208.2,302.7 L 206.6,302.3 L 205.8,302.0 L 204.5,302.2 L 203.2,302.2 L 203.0,302.1 L 202.7,302.3 L 202.3,302.3 L 202.0,302.4 L 201.5,302.8 L 200.5,303.5 L 199.0,305.2 L 197.7,306.1 L 196.6,307.4 L 195.6,308.3 L 194.5,310.0 L 194.2,310.8 L 193.4,312.2 L 192.5,313.2 L 191.5,314.6 L 190.6,315.6 L 190.2,316.2 L 189.2,317.2 L 188.7,317.7 L 188.3,318.0 L 188.0,318.4 L 187.4,319.1 L 186.6,319.7 L 186.3,319.8 L 186.0,319.9 L 185.5,320.0 L 184.7,320.2 L 184.4,320.5 L 183.9,320.8 L 183.6,321.0 L 182.9,321.8 L 182.6,322.0 L 182.5,322.1 L 182.1,322.6 L 181.7,322.9 L 181.1,323.5 L 180.2,324.3 L 179.8,324.8 L 179.8,326.0 L 179.4,326.8 L 178.9,327.6 L 178.8,327.7 L 178.4,328.1 L 178.0,328.7 L 178.0,328.8 L 177.9,328.8 L 177.8,329.0 L 177.6,329.0 L 177.5,329.0 L 177.5,329.2 L 177.3,329.3 L 177.3,329.4 L 177.4,329.6 L 177.4,329.6 L 177.2,329.7 L 177.1,330.0 L 176.1,330.8 L 173.9,332.1 L 173.2,332.6 L 172.6,333.4 L 172.1,333.8 L 171.9,334.0 L 171.1,334.5 L 170.9,334.7 L 170.6,335.2 L 170.3,336.1 L 169.8,336.9 L 168.1,338.3 L 167.2,339.0 L 166.2,339.4 L 165.4,340.0 L 165.1,340.3 L 164.8,340.5 L 163.9,340.6 L 163.7,340.4 L 163.4,340.6 L 163.6,340.9 L 163.4,341.5 L 163.2,341.6 L 163.5,341.8 L 163.3,342.2 L 162.9,342.5 L 162.6,342.5 L 162.6,342.6 L 162.0,343.1 L 161.3,343.1 L 160.9,343.2 L 160.5,343.8 L 160.2,344.2 L 159.6,345.0 L 159.1,345.2 L 158.2,346.2 L 157.7,346.5 L 157.5,346.7 L 156.7,347.5 L 156.4,348.5 L 156.0,349.3 L 155.0,350.4 L 154.6,351.0 L 153.9,351.7 L 153.2,352.2 L 150.8,354.1 L 150.2,354.5 L 149.8,355.1 L 147.9,356.4 L 146.5,357.6 L 146.0,357.8 L 145.1,358.7 L 144.7,358.9 L 144.0,359.6 L 143.8,359.8 L 143.4,360.0 L 143.0,359.7 L 126.6,348.1 L 126.8,348.0 L 127.2,347.8 L 127.8,347.3 L 128.0,347.0 L 128.8,346.2 L 129.0,345.8 L 129.9,345.3 L 130.1,345.0 L 130.9,343.8 L 131.0,343.6 L 131.1,342.9 L 131.0,342.4 L 131.0,342.4 L 130.8,342.2 L 130.0,342.1 L 129.5,341.8 L 129.0,341.8 L 128.6,341.9 L 128.2,341.7 L 127.8,341.2 L 127.6,340.9 L 127.6,340.7 L 127.4,340.6 L 127.2,340.5 L 126.9,340.2 L 127.0,338.9 L 127.0,338.6 L 126.8,338.2 L 126.6,338.0 L 125.9,338.2 L 125.6,338.4 L 125.2,338.5 L 124.4,338.0 L 123.3,336.9 L 123.2,336.7 L 123.0,336.5 L 122.6,336.5 L 121.9,336.1 L 121.7,335.4 L 121.5,334.7 L 121.6,334.2 L 121.6,334.2 L 121.6,334.1 L 122.2,333.7 L 122.5,333.0 L 122.7,332.2 L 123.0,331.7 L 123.6,331.1 L 124.0,330.9 L 124.2,331.0 L 124.4,330.8 L 124.9,330.6 L 125.0,330.6 L 125.2,330.8 L 125.5,330.7 L 125.6,330.9 L 125.6,330.9 L 125.8,330.8 L 125.8,330.7 L 126.0,330.6 L 125.8,330.4 L 125.9,330.3 L 125.9,330.2 L 126.1,330.2 L 126.7,329.7 L 126.9,329.3 L 126.9,329.3 L 126.8,329.0 L 126.8,328.6 L 126.8,328.5 L 126.8,328.3 L 126.8,328.2 L 127.0,328.2 L 127.1,327.9 L 126.9,327.8 L 126.8,327.7 L 126.8,327.7 L 126.9,327.6 L 127.0,327.5 L 127.3,327.5 L 127.3,327.3 L 127.1,326.9 L 127.1,326.6 L 127.2,326.5 L 127.7,326.4 L 127.8,326.1 L 127.8,325.8 L 128.2,325.4 L 128.5,325.2 L 128.7,325.1 L 129.1,324.7 L 129.4,324.7 L 129.8,324.5 L 130.4,323.8 L 130.6,322.9 L 130.9,322.6 L 131.0,322.6 L 131.6,322.5 L 131.9,322.2 L 132.2,321.6 L 133.1,321.2 L 133.6,321.2 L 134.1,321.0 L 134.5,320.9 L 134.9,320.7 L 135.5,320.6 L 135.8,320.6 L 136.3,320.6 L 136.7,320.3 L 137.1,320.0 L 137.5,319.7 L 138.7,318.8 L 139.5,318.6 L 139.7,318.6 L 139.9,318.7 L 140.3,319.2 L 140.1,319.7 L 140.2,319.9 L 140.5,319.8 L 140.7,319.6 L 140.8,319.1 L 141.1,318.9 L 141.9,318.9 L 142.7,319.1 L 142.8,320.1 L 143.1,320.4 L 143.3,320.4 L 143.8,319.9 L 144.3,319.9 L 144.5,319.5 L 144.5,319.3 L 144.3,319.0 L 144.3,318.5 L 144.7,318.2 L 145.3,317.0 L 145.4,316.7 L 145.5,316.4 L 145.5,316.1 L 145.4,315.6 L 145.5,315.2 L 145.4,315.0 L 145.3,314.6 L 145.1,314.1 L 144.8,313.2 L 144.8,313.0 L 144.7,311.9 L 144.5,311.0 L 144.5,309.9 L 144.2,309.3 L 144.1,309.2 L 144.0,308.8 L 144.0,308.1 L 143.9,307.9 L 143.8,307.6 L 144.0,307.4 L 144.1,307.3 L 144.1,307.1 L 144.0,307.0 L 143.6,306.9 L 143.6,306.9 L 143.4,306.6 L 143.4,306.5 L 143.3,306.1 L 143.3,305.5 L 143.4,305.2 L 143.5,305.0 L 143.6,304.7 L 143.7,304.2 L 143.8,303.8 L 144.1,303.8 L 144.7,303.8 L 145.2,303.6 L 145.3,303.6 L 146.8,303.3 L 148.6,303.2 L 148.8,303.2 L 149.4,303.5 L 150.0,303.5 L 150.4,303.3 L 151.1,302.7 L 151.3,301.9 L 151.5,301.4 L 151.4,301.2 L 151.2,301.0 L 150.8,301.0 L 150.5,300.9 L 149.9,300.9 L 149.3,300.8 L 149.3,300.7 L 149.3,300.6 L 149.3,300.3 L 149.5,300.2 L 149.7,300.2 L 149.8,300.2 L 149.9,300.1 L 150.4,300.1 L 150.5,299.8 L 150.4,298.7 L 150.3,298.2 L 150.4,297.3 L 150.8,296.5 L 150.9,296.4 L 151.3,295.9 L 151.5,295.7 L 152.0,295.4 L 152.2,295.3 L 152.9,295.3 L 152.9,295.3 L 153.4,295.3 L 153.5,295.4 L 153.8,295.4 L 153.9,295.2 L 153.9,295.1 L 154.0,295.1 L 154.7,294.6 L 155.2,294.1 L 155.5,293.4 L 155.9,293.2 L 156.6,293.0 L 157.0,292.4 L 157.1,292.3 L 157.6,292.0 L 158.7,291.9 L 159.4,291.3 L 159.4,291.3 L 160.0,290.7 L 160.3,290.4 L 160.7,289.9 L 160.7,289.9 L 161.3,289.5 L 161.5,289.5 L 161.5,289.4 L 161.4,289.2 L 161.7,288.9 L 161.7,288.9 L 162.5,288.1 L 162.8,287.6 L 163.2,287.2 L 163.7,286.6 L 164.3,286.0 L 164.6,285.6 L 164.7,285.2 L 165.2,284.4 L 166.2,282.7 L 166.7,282.1 L 166.8,282.0 L 166.9,281.6 L 167.2,281.1 L 167.9,280.2 L 168.2,279.5 L 168.3,279.3 L 168.5,279.1 L 168.8,279.1 L 168.9,278.8 L 168.6,278.7 L 168.6,278.6 L 168.6,278.5 L 168.8,278.3 L 169.3,277.4 L 169.3,277.3 L 169.6,277.1 L 169.6,277.0 L 170.0,276.5 L 170.2,276.2 L 170.3,276.1 L 170.3,276.0 L 170.1,275.9 L 169.7,275.9 L 169.7,275.8 L 169.7,275.6 L 169.9,275.2 L 170.2,275.2 L 170.3,275.2 L 170.3,275.1 L 170.2,274.9 L 170.2,274.9 L 170.5,274.9 L 170.6,274.8 L 170.5,274.7 L 170.5,274.6 L 170.5,274.6 L 171.1,273.8 L 171.5,273.2 L 172.0,272.3 L 172.3,271.9 L 172.6,271.5 L 173.1,270.8 L 173.5,270.1 L 173.8,269.5 L 174.6,268.4 L 174.8,268.4 L 174.9,268.1 L 175.0,268.0 L 175.3,267.8 L 175.5,267.8 L 175.6,267.5 L 176.2,267.0 L 176.3,266.9 L 176.4,266.7 L 176.6,266.5 L 176.8,266.4 L 176.9,266.3 L 176.9,265.9 L 177.8,264.3 L 177.8,264.0 L 178.1,263.8 L 178.2,263.4 L 178.3,262.5 L 179.0,261.3 L 179.3,260.6 L 179.8,260.1 L 180.4,259.6 L 181.1,258.8 L 181.4,258.4 L 182.3,256.3 L 182.3,256.0 L 182.4,255.0 L 182.4,254.9 L 182.8,253.8 L 182.9,253.3" fill="none" stroke="black" stroke-width="2"/>
</svg>