<?xml version="1.0" encoding="UTF-8"?>
<svg width="400" height="400" viewBox="0 0 400 400" xmlns="http://www.w3.org/2000/svg">
  <rect width="400" height="400" fill="white"/>
  <path d="M 177.8,201.4 L 173.0,200.6 L 168.7,198.4 L 166.2,196.3 L 161.9,194.2 L 157.5,190.3 L 156.7,188.1 L 156.9,186.1 L 157.6,183.1 L 157.3,179.8 L 155.4,173.6 L 151.5,168.5 L 150.6,164.7 L 149.6,164.0 L 147.8,162.3 L 144.6,161.1 L 142.5,159.2 L 137.8,152.1 L 134.8,150.4 L 132.2,147.9 L 130.1,144.5 L 128.5,140.8 L 127.4,136.6 L 124.5,130.4 L 124.4,124.6 L 122.3,120.7 L 118.4,115.3 L 117.0,110.6 L 116.1,109.3 L 113.0,106.4 L 111.2,103.7 L 107.1,100.1 L 104.1,97.4 L 101.2,93.0 L 98.6,90.0 L 97.6,87.3 L 95.2,84.5 L 94.4,82.2 L 96.2,72.2 L 98.1,67.9 L 98.7,64.1 L 98.2,61.4 L 96.9,60.4 L 94.4,59.7 L 92.8,58.0 L 88.3,55.9 L 86.7,54.2 L 86.4,52.4 L 82.9,49.3 L 81.1,47.3 L 81.5,46.3 L 82.3,45.5 L 80.5,43.4 L 81.0,40.9 L 81.1,40.0 L 82.1,41.0 L 83.7,41.7 L 86.2,42.2 L 87.7,44.4 L 90.8,46.1 L 94.5,53.2 L 96.7,54.7 L 98.2,54.4 L 99.4,52.8 L 101.9,51.8 L 104.2,51.7 L 106.0,54.7 L 106.8,55.2 L 109.3,56.1 L 112.3,56.3 L 117.6,54.6 L 119.9,54.6 L 123.7,56.4 L 129.7,57.1 L 132.7,58.3 L 135.8,58.9 L 139.0,60.9 L 143.6,63.0 L 145.9,63.8 L 151.9,64.8 L 153.9,65.8 L 163.2,67.7 L 167.0,70.4 L 171.1,71.8 L 177.8,75.3 L 178.2,75.6 L 179.2,77.1 L 183.3,80.5 L 187.8,80.7 L 190.3,82.3 L 194.6,84.2 L 196.7,86.6 L 200.8,89.5 L 203.1,92.2 L 207.2,94.8 L 207.9,96.1 L 208.7,98.3 L 210.0,99.0 L 212.0,97.7 L 215.5,97.4 L 218.3,99.8 L 220.1,102.5 L 221.9,104.2 L 224.0,107.9 L 223.5,109.2 L 219.6,114.0 L 220.2,117.0 L 219.5,118.5 L 217.0,119.3 L 213.1,124.2 L 212.6,125.7 L 208.8,131.8 L 208.6,133.0 L 210.1,136.9 L 215.3,140.4 L 219.4,142.2 L 233.1,147.4 L 235.9,148.6 L 242.9,150.7 L 246.7,150.9 L 247.7,151.3 L 250.8,154.0 L 253.3,155.7 L 257.3,156.3 L 259.4,157.3 L 261.9,157.7 L 268.2,162.3 L 276.8,166.2 L 279.2,169.5 L 281.2,171.5 L 283.3,173.9 L 283.6,177.2 L 285.4,177.6 L 286.9,178.4 L 288.9,179.8 L 290.7,181.5 L 292.3,183.5 L 291.8,186.2 L 290.4,188.3 L 288.9,188.6 L 286.9,187.1 L 282.4,187.2 L 281.2,189.3 L 281.7,190.2 L 284.4,189.7 L 286.9,190.9 L 287.0,192.6 L 287.5,194.1 L 290.5,194.3 L 293.1,197.4 L 293.4,199.4 L 293.0,202.9 L 291.5,204.4 L 289.3,205.7 L 287.1,208.5 L 287.7,210.0 L 286.5,214.3 L 287.8,216.0 L 287.4,217.3 L 282.7,221.1 L 282.2,222.6 L 282.4,227.1 L 283.4,229.6 L 286.2,232.3 L 287.8,235.0 L 288.4,238.0 L 289.4,239.5 L 293.0,241.4 L 296.3,246.0 L 301.1,247.9 L 302.4,249.9 L 305.8,253.6 L 306.0,255.0 L 303.9,258.1 L 303.8,263.9 L 307.4,267.5 L 314.4,268.1 L 315.4,269.1 L 317.4,270.3 L 319.3,273.2 L 319.5,274.2 L 319.1,276.2 L 314.7,281.3 L 313.8,284.1 L 313.6,285.6 L 313.2,289.9 L 312.5,292.9 L 309.0,296.8 L 308.1,297.8 L 304.9,300.1 L 297.6,306.9 L 296.2,309.9 L 296.0,312.2 L 294.7,313.5 L 291.8,314.1 L 290.8,314.8 L 293.3,317.3 L 293.9,319.5 L 293.5,322.5 L 292.8,324.3 L 292.0,326.5 L 293.9,328.0 L 296.9,328.7 L 299.9,330.1 L 305.0,339.2 L 308.0,341.9 L 309.0,343.4 L 309.3,345.6 L 310.9,348.6 L 310.9,350.8 L 311.7,352.1 L 314.8,356.2 L 314.9,358.0 L 314.9,359.2 L 314.4,360.0 L 313.2,360.0 L 313.4,359.3 L 313.9,358.8 L 313.6,356.8 L 311.3,353.8 L 309.9,349.6 L 308.8,348.2 L 307.5,343.9 L 306.5,343.2 L 303.2,339.8 L 300.5,335.1 L 297.2,331.7 L 289.8,327.6 L 288.8,326.4 L 288.7,323.6 L 290.7,320.8 L 290.7,319.8 L 287.4,319.4 L 285.9,318.0 L 285.1,316.5 L 282.3,314.0 L 280.8,314.1 L 279.5,314.6 L 277.5,313.7 L 276.0,314.2 L 273.5,314.5 L 273.3,315.5 L 273.8,317.5 L 273.4,318.5 L 272.1,318.8 L 264.5,313.5 L 263.7,312.5 L 264.9,309.2 L 264.1,308.0 L 259.4,308.1 L 256.9,308.7 L 253.1,308.8 L 250.2,309.8 L 249.6,309.6 L 250.1,308.6 L 255.0,304.3 L 258.0,303.7 L 259.9,301.4 L 259.9,298.9 L 258.5,296.8 L 257.0,294.5 L 255.2,292.6 L 253.4,289.9 L 248.6,286.2 L 247.1,286.0 L 243.5,284.6 L 239.5,282.2 L 238.9,281.2 L 239.2,280.2 L 242.0,277.8 L 240.6,274.9 L 239.8,271.2 L 239.9,267.7 L 242.5,264.6 L 244.8,255.8 L 245.2,252.8 L 245.1,248.8 L 243.8,245.8 L 243.5,244.1 L 241.4,240.6 L 239.1,238.2 L 235.6,235.8 L 235.3,235.3 L 235.0,232.3 L 234.9,228.1 L 233.8,225.1 L 228.1,216.7 L 224.1,213.1 L 220.3,210.4 L 215.0,209.8 L 207.0,210.5 L 201.8,211.4 L 199.0,211.2 L 196.3,209.8 L 191.7,206.1 L 185.8,203.9 L 182.1,202.1 L 177.8,201.4" fill="none" stroke="black" stroke-width="2"/>
</svg>