<?xml version="1.0" encoding="UTF-8"?>
<svg width="400" height="400" viewBox="0 0 400 400" xmlns="http://www.w3.org/2000/svg">
  <rect width="400" height="400" fill="white"/>
  <path d="M 155.4,189.4 L 171.3,181.6 L 174.6,180.0 L 187.2,173.8 L 201.1,167.0 L 203.1,166.0 L 206.9,164.1 L 211.8,161.7 L 219.0,158.2 L 234.8,150.4 L 239.4,148.2 L 250.7,142.7 L 259.7,138.3 L 306.6,115.5 L 357.5,221.0 L 357.5,221.0 L 357.7,221.3 L 357.7,221.3 L 357.7,221.3 L 357.7,221.4 L 357.9,221.3 L 358.0,221.3 L 358.0,221.3 L 358.1,221.2 L 358.1,221.1 L 358.2,221.1 L 358.2,221.1 L 358.3,221.0 L 358.3,220.9 L 358.4,221.0 L 358.4,221.0 L 358.4,221.0 L 358.5,220.9 L 358.6,220.9 L 358.6,220.9 L 358.7,220.8 L 358.7,220.7 L 358.8,220.6 L 358.8,220.7 L 358.9,220.6 L 358.9,220.6 L 358.9,220.7 L 359.2,220.8 L 359.3,220.8 L 359.3,220.8 L 359.4,220.8 L 359.3,220.9 L 359.3,221.0 L 359.3,221.0 L 359.4,221.1 L 359.5,221.1 L 359.5,221.0 L 359.6,221.0 L 359.7,221.0 L 359.7,221.0 L 359.8,221.0 L 359.8,221.0 L 359.8,221.3 L 359.8,221.3 L 359.8,221.4 L 359.7,221.4 L 359.7,221.5 L 359.7,221.6 L 359.7,221.6 L 359.8,221.7 L 359.8,221.7 L 359.9,221.6 L 359.9,221.6 L 360.0,221.7 L 360.0,221.7 L 359.9,221.8 L 359.7,221.9 L 359.7,221.9 L 359.6,221.9 L 359.6,222.0 L 359.6,222.1 L 359.7,222.2 L 359.7,222.3 L 359.6,222.3 L 359.4,222.5 L 359.4,222.6 L 359.4,222.8 L 359.4,222.8 L 312.9,228.9 L 312.9,228.9 L 312.8,228.8 L 312.7,228.7 L 312.5,228.6 L 312.3,228.6 L 312.0,228.5 L 311.7,228.6 L 311.4,228.6 L 311.2,228.8 L 311.1,228.8 L 311.0,228.8 L 311.0,228.8 L 311.0,228.7 L 310.9,228.6 L 310.9,228.6 L 310.8,228.5 L 310.8,228.4 L 310.8,228.4 L 310.7,228.3 L 310.5,228.3 L 310.4,228.3 L 310.4,228.2 L 310.3,228.1 L 310.3,228.1 L 310.3,228.1 L 310.1,227.9 L 310.0,227.8 L 309.8,227.8 L 309.7,227.8 L 309.7,227.8 L 309.6,227.8 L 309.5,227.8 L 309.4,227.8 L 309.4,227.9 L 309.2,227.9 L 309.1,227.9 L 309.0,227.8 L 308.9,227.8 L 308.9,227.8 L 308.7,227.9 L 308.7,227.9 L 308.6,227.8 L 308.5,227.8 L 308.4,227.6 L 308.3,227.5 L 308.3,227.4 L 308.2,227.3 L 308.2,227.1 L 308.2,227.1 L 308.3,226.9 L 308.3,226.8 L 308.3,226.5 L 308.2,226.3 L 308.1,226.2 L 308.0,226.0 L 307.9,225.9 L 307.8,225.9 L 307.8,225.8 L 307.7,225.6 L 307.8,225.5 L 307.8,225.4 L 307.6,225.3 L 307.6,225.0 L 307.6,224.9 L 307.5,224.7 L 307.6,224.5 L 307.7,224.3 L 307.8,224.1 L 307.8,224.0 L 307.8,223.8 L 307.8,223.6 L 307.7,223.5 L 307.6,223.4 L 307.5,223.3 L 307.4,223.2 L 307.3,223.1 L 307.2,223.1 L 307.1,223.2 L 307.0,223.2 L 307.0,223.3 L 306.8,223.7 L 306.8,223.8 L 306.7,223.8 L 306.6,223.8 L 306.5,224.0 L 306.4,224.0 L 306.3,223.9 L 306.1,223.9 L 305.9,223.8 L 305.8,223.8 L 305.8,223.8 L 305.7,223.6 L 305.5,223.5 L 305.4,223.4 L 305.4,223.3 L 305.3,223.3 L 305.3,223.3 L 305.2,223.3 L 305.1,223.2 L 304.9,223.3 L 304.8,223.2 L 304.7,223.2 L 304.5,223.1 L 304.4,223.1 L 304.2,223.0 L 304.2,223.0 L 303.9,222.8 L 303.7,222.7 L 303.5,222.5 L 303.4,222.5 L 303.3,222.5 L 303.2,222.5 L 303.0,222.4 L 302.9,222.4 L 302.9,222.3 L 302.8,222.3 L 302.7,222.2 L 302.6,222.2 L 302.5,222.2 L 302.3,222.2 L 302.2,222.1 L 302.1,221.9 L 302.0,221.9 L 301.9,221.9 L 301.8,221.9 L 301.6,222.0 L 301.4,222.0 L 301.2,222.0 L 301.0,221.9 L 300.7,221.9 L 300.5,221.9 L 300.3,222.0 L 300.1,222.0 L 299.9,222.1 L 299.8,222.1 L 299.7,222.3 L 299.2,222.6 L 299.1,222.7 L 299.1,222.9 L 299.1,222.9 L 298.9,223.2 L 298.7,223.6 L 298.3,224.0 L 298.2,224.2 L 298.1,224.3 L 298.0,224.3 L 297.8,224.4 L 297.7,224.5 L 297.6,224.5 L 297.5,224.5 L 297.3,224.4 L 297.1,224.4 L 297.0,224.3 L 296.9,224.4 L 296.8,224.4 L 296.7,224.4 L 296.6,224.3 L 296.5,224.3 L 296.3,224.3 L 296.3,224.3 L 296.1,224.2 L 295.9,224.2 L 295.8,224.3 L 295.4,224.5 L 295.2,224.6 L 294.8,224.8 L 294.7,224.8 L 294.6,225.1 L 294.4,225.2 L 294.3,225.3 L 294.1,225.3 L 294.0,225.3 L 293.9,225.2 L 293.8,225.1 L 293.7,225.0 L 293.6,225.0 L 293.4,225.0 L 292.6,225.1 L 292.3,225.0 L 291.7,224.9 L 291.3,224.9 L 291.0,224.9 L 290.9,224.8 L 290.8,224.7 L 290.7,224.6 L 290.6,224.6 L 290.5,224.6 L 290.3,224.7 L 290.3,224.7 L 290.1,224.6 L 290.0,224.6 L 289.9,224.7 L 289.8,224.8 L 289.8,224.8 L 289.6,224.8 L 289.4,224.9 L 289.2,225.0 L 289.0,225.1 L 288.9,225.2 L 288.7,225.3 L 288.6,225.3 L 288.5,225.3 L 288.5,225.4 L 288.5,225.4 L 288.4,225.5 L 288.2,225.5 L 288.2,225.6 L 288.0,225.7 L 287.8,225.9 L 287.5,226.1 L 287.4,226.2 L 287.3,226.2 L 287.1,226.3 L 286.9,226.3 L 286.8,226.3 L 286.4,226.4 L 286.2,226.4 L 286.1,226.4 L 286.0,226.4 L 285.9,226.4 L 285.8,226.5 L 285.8,226.6 L 285.8,226.7 L 285.7,226.8 L 285.4,227.0 L 285.2,227.1 L 284.8,227.3 L 284.6,227.4 L 284.4,227.5 L 284.4,227.5 L 284.0,227.5 L 283.6,227.6 L 283.6,227.7 L 283.5,227.7 L 283.5,227.7 L 283.3,227.7 L 283.2,227.8 L 283.1,227.8 L 283.0,227.8 L 283.0,227.7 L 283.1,227.6 L 283.0,227.6 L 283.0,227.5 L 282.9,227.6 L 282.8,227.6 L 282.6,227.7 L 282.6,227.8 L 282.6,227.8 L 282.8,227.8 L 282.9,227.8 L 282.9,227.9 L 282.8,227.9 L 282.8,227.9 L 282.5,227.9 L 282.4,228.0 L 282.1,228.1 L 282.1,228.1 L 281.9,228.2 L 281.7,228.3 L 281.7,228.3 L 251.2,217.7 L 251.2,217.7 L 251.2,217.6 L 251.4,217.6 L 251.4,217.6 L 251.3,217.5 L 251.3,217.5 L 251.2,217.5 L 251.1,217.5 L 251.1,217.4 L 251.1,217.4 L 251.0,217.3 L 251.1,217.3 L 251.1,217.2 L 251.2,217.2 L 251.2,217.2 L 251.2,217.1 L 251.2,217.1 L 251.1,217.0 L 251.0,217.0 L 250.9,217.0 L 250.9,216.9 L 250.8,216.8 L 250.8,216.8 L 250.7,216.7 L 250.7,216.7 L 250.6,216.7 L 250.6,216.6 L 250.5,216.6 L 250.5,216.7 L 250.2,216.6 L 250.1,216.6 L 249.9,216.5 L 249.8,216.6 L 249.7,216.7 L 249.5,216.8 L 249.4,216.8 L 249.3,216.8 L 249.1,216.8 L 248.6,216.8 L 248.5,216.8 L 248.2,216.7 L 248.1,216.6 L 248.1,216.5 L 248.0,216.5 L 248.0,216.4 L 248.1,216.4 L 248.0,216.3 L 247.9,216.3 L 247.9,216.3 L 248.0,216.2 L 248.0,216.2 L 247.9,216.1 L 247.9,216.0 L 247.8,216.0 L 247.7,215.9 L 247.6,215.9 L 247.5,215.8 L 247.5,215.8 L 247.4,215.8 L 247.4,215.6 L 247.2,215.5 L 247.1,215.4 L 247.0,215.4 L 247.0,215.4 L 246.9,215.2 L 246.8,215.0 L 246.7,214.9 L 246.6,214.8 L 246.6,214.8 L 246.3,214.8 L 246.3,214.8 L 245.9,214.5 L 245.8,214.5 L 245.5,214.2 L 245.3,214.1 L 245.1,214.0 L 244.9,214.0 L 244.8,213.9 L 244.7,213.7 L 244.6,213.6 L 244.6,213.5 L 244.6,213.4 L 244.5,213.1 L 244.4,212.7 L 244.3,212.7 L 244.3,212.6 L 244.3,212.4 L 244.3,212.4 L 244.3,212.4 L 244.3,212.3 L 244.2,212.1 L 244.1,211.8 L 244.1,211.1 L 244.0,210.9 L 243.9,210.6 L 243.8,210.5 L 243.7,210.4 L 243.6,210.3 L 243.5,210.3 L 243.4,210.1 L 243.3,209.9 L 243.3,209.7 L 243.2,209.6 L 243.2,209.4 L 243.0,209.3 L 243.0,209.3 L 243.0,209.1 L 242.9,208.9 L 242.9,208.9 L 242.9,208.8 L 242.9,208.8 L 242.8,208.7 L 242.8,208.6 L 242.5,208.3 L 242.4,208.1 L 242.3,208.0 L 242.3,208.0 L 242.2,207.9 L 242.1,207.8 L 242.1,207.6 L 241.8,207.0 L 241.7,206.8 L 241.7,206.7 L 241.7,206.6 L 241.5,206.4 L 241.4,206.1 L 241.3,206.0 L 241.3,205.9 L 241.2,205.8 L 241.1,205.6 L 241.0,205.5 L 240.6,205.3 L 240.5,205.1 L 240.4,205.1 L 240.2,204.9 L 240.1,204.9 L 240.0,204.8 L 239.8,204.7 L 239.8,204.6 L 239.7,204.5 L 239.5,204.3 L 239.3,204.0 L 239.2,203.9 L 239.0,203.5 L 239.0,203.4 L 238.9,203.2 L 238.9,203.1 L 238.8,203.0 L 238.8,202.9 L 238.9,202.8 L 238.8,202.8 L 238.7,202.6 L 238.6,202.6 L 238.6,202.5 L 238.6,202.3 L 238.5,202.3 L 238.5,202.3 L 238.4,202.2 L 238.4,202.2 L 238.4,202.1 L 238.3,202.0 L 238.1,201.8 L 238.0,201.7 L 237.9,201.8 L 237.8,201.7 L 237.8,201.6 L 237.7,201.5 L 237.7,201.5 L 237.8,201.5 L 237.8,201.4 L 237.8,201.4 L 237.3,201.3 L 237.2,201.4 L 237.1,201.4 L 237.1,201.5 L 236.9,201.4 L 236.7,201.5 L 236.6,201.5 L 236.5,201.6 L 236.3,201.6 L 236.3,201.6 L 236.2,201.7 L 236.1,201.6 L 235.9,201.7 L 235.8,201.7 L 235.4,202.1 L 235.3,202.1 L 235.2,202.2 L 235.1,202.2 L 235.1,202.4 L 235.0,202.4 L 235.0,202.4 L 234.9,202.5 L 234.8,202.5 L 234.7,202.6 L 234.7,202.6 L 234.7,202.7 L 234.6,202.8 L 234.6,202.8 L 234.6,202.8 L 189.3,211.5 L 189.2,211.4 L 189.2,211.4 L 189.1,211.4 L 189.1,211.4 L 189.0,211.5 L 189.0,211.6 L 188.9,211.6 L 188.9,211.6 L 188.9,211.5 L 188.9,211.5 L 188.8,211.6 L 188.8,211.6 L 188.8,211.5 L 188.8,211.4 L 188.8,211.3 L 188.8,211.4 L 188.7,211.4 L 188.7,211.4 L 188.7,211.4 L 188.7,211.3 L 188.6,211.3 L 188.6,211.3 L 188.6,211.3 L 188.6,211.2 L 188.6,211.1 L 188.5,211.1 L 188.5,211.1 L 188.4,211.1 L 188.3,211.2 L 188.2,211.3 L 188.1,211.3 L 188.0,211.3 L 188.0,211.2 L 188.0,211.1 L 188.0,211.0 L 187.8,211.0 L 187.6,211.1 L 187.5,211.1 L 187.4,211.2 L 187.4,211.2 L 187.4,211.1 L 187.4,211.1 L 187.4,211.0 L 187.3,211.0 L 187.3,211.0 L 187.3,211.0 L 187.2,211.0 L 187.4,210.8 L 187.5,210.6 L 187.6,210.5 L 187.6,210.4 L 187.4,210.3 L 187.4,210.3 L 187.3,210.4 L 187.3,210.4 L 187.3,210.4 L 187.3,210.3 L 187.2,210.3 L 187.2,210.3 L 187.1,210.3 L 187.1,210.2 L 187.0,210.2 L 186.9,210.2 L 186.8,210.1 L 186.8,210.1 L 186.7,210.2 L 186.7,210.2 L 186.6,210.3 L 186.6,210.3 L 186.5,210.4 L 186.5,210.4 L 186.4,210.4 L 186.4,210.4 L 186.3,210.5 L 186.2,210.7 L 186.1,210.7 L 186.1,210.8 L 186.0,210.7 L 186.0,210.8 L 186.0,210.8 L 185.9,210.8 L 185.9,210.9 L 185.9,210.9 L 186.0,210.9 L 186.0,211.0 L 186.0,211.0 L 186.0,211.1 L 186.0,211.2 L 186.0,211.2 L 186.2,211.3 L 186.3,211.3 L 186.4,211.3 L 186.5,211.3 L 186.5,211.3 L 186.6,211.3 L 186.6,211.4 L 186.6,211.4 L 186.7,211.3 L 186.8,211.3 L 186.9,211.4 L 186.9,211.4 L 186.9,211.6 L 186.9,211.7 L 186.9,211.6 L 187.0,211.7 L 187.0,211.7 L 186.9,211.9 L 186.9,212.0 L 187.0,212.0 L 187.0,212.0 L 187.0,212.1 L 187.0,212.1 L 172.3,216.1 L 172.2,216.2 L 172.2,216.1 L 172.1,216.1 L 172.1,216.1 L 172.0,215.9 L 172.0,215.9 L 171.8,215.7 L 171.4,215.6 L 171.4,215.6 L 171.2,215.6 L 171.1,215.6 L 171.0,215.7 L 171.0,215.8 L 171.0,215.8 L 171.0,215.9 L 170.9,215.9 L 170.9,215.9 L 170.8,215.9 L 170.8,215.9 L 170.7,215.9 L 170.6,215.9 L 170.6,216.0 L 170.6,216.1 L 170.6,216.1 L 170.5,216.1 L 170.5,216.1 L 170.4,216.1 L 170.4,216.2 L 170.4,216.3 L 170.4,216.3 L 170.5,216.4 L 170.5,216.6 L 170.4,216.6 L 170.3,216.7 L 170.2,216.6 L 170.1,216.6 L 170.0,216.7 L 170.0,216.6 L 169.8,216.4 L 169.6,216.3 L 169.6,216.3 L 169.5,216.3 L 169.4,216.3 L 169.3,216.2 L 169.2,216.3 L 169.0,216.3 L 169.0,216.4 L 168.9,216.5 L 168.8,216.6 L 168.7,216.6 L 168.7,216.6 L 168.5,216.5 L 168.4,216.5 L 168.4,216.5 L 168.4,216.4 L 168.4,216.4 L 168.3,216.4 L 168.3,216.4 L 168.2,216.3 L 168.2,216.3 L 168.1,216.3 L 168.1,216.3 L 167.9,216.3 L 167.8,216.4 L 167.7,216.4 L 167.6,216.4 L 167.4,216.4 L 167.4,216.5 L 167.3,216.5 L 167.2,216.6 L 167.2,216.6 L 167.1,216.6 L 167.0,216.7 L 167.0,216.6 L 167.0,216.6 L 166.9,216.7 L 166.9,216.8 L 166.8,216.8 L 166.8,216.9 L 166.8,216.7 L 166.7,216.7 L 166.7,216.6 L 166.6,216.6 L 166.5,216.5 L 166.4,216.5 L 166.3,216.6 L 166.3,216.6 L 166.2,216.6 L 166.2,216.6 L 166.1,216.6 L 166.1,216.6 L 166.0,216.6 L 166.0,216.5 L 166.1,216.4 L 166.0,216.4 L 166.0,216.4 L 165.9,216.4 L 165.9,216.5 L 165.8,216.5 L 165.8,216.5 L 165.7,216.6 L 165.7,216.5 L 165.8,216.5 L 165.8,216.4 L 165.7,216.4 L 165.7,216.5 L 165.7,216.6 L 165.7,216.6 L 123.3,228.1 L 123.3,228.1 L 123.3,228.1 L 121.1,228.7 L 121.1,228.5 L 121.0,228.4 L 121.0,228.3 L 120.9,228.2 L 120.9,228.2 L 120.9,228.3 L 120.9,228.3 L 120.8,228.2 L 120.8,228.2 L 120.7,228.3 L 120.7,228.3 L 120.6,228.4 L 120.5,228.6 L 120.5,228.6 L 120.5,228.7 L 120.6,228.8 L 120.6,228.9 L 120.6,229.0 L 120.5,228.9 L 120.4,229.0 L 120.4,228.9 L 120.3,228.9 L 120.3,228.9 L 120.3,229.0 L 120.3,229.1 L 120.3,229.0 L 120.3,229.0 L 120.2,229.0 L 120.2,229.0 L 120.1,229.1 L 120.1,229.1 L 120.1,229.2 L 120.2,229.3 L 120.1,229.3 L 120.1,229.3 L 120.1,229.2 L 120.0,229.3 L 119.9,229.3 L 119.9,229.3 L 119.9,229.3 L 119.9,229.4 L 119.9,229.4 L 119.9,229.5 L 120.0,229.5 L 120.0,229.7 L 120.0,229.7 L 120.0,229.8 L 120.1,230.0 L 120.1,230.0 L 120.1,230.0 L 120.0,230.0 L 119.9,229.8 L 119.8,229.8 L 119.8,229.8 L 119.8,229.9 L 119.7,229.9 L 119.7,229.9 L 119.6,230.0 L 119.6,230.1 L 119.6,230.2 L 119.7,230.3 L 119.7,230.3 L 119.7,230.4 L 119.8,230.4 L 119.8,230.3 L 119.9,230.3 L 119.9,230.3 L 120.0,230.4 L 120.0,230.4 L 120.1,230.4 L 120.1,230.4 L 120.2,230.4 L 120.2,230.4 L 120.2,230.7 L 120.2,230.7 L 120.2,230.8 L 120.2,230.8 L 120.2,231.0 L 120.2,231.1 L 120.2,231.2 L 120.2,231.3 L 120.2,231.3 L 120.2,231.5 L 120.0,231.5 L 120.0,231.5 L 119.9,231.5 L 119.8,231.5 L 119.6,231.4 L 119.5,231.4 L 119.5,231.4 L 119.4,231.3 L 119.3,231.1 L 119.2,231.1 L 119.1,231.1 L 119.0,230.9 L 118.9,230.8 L 118.8,230.7 L 118.7,230.7 L 118.6,230.6 L 118.5,230.5 L 118.5,230.5 L 118.2,230.5 L 118.2,230.5 L 118.2,230.5 L 118.2,230.3 L 118.1,230.2 L 118.0,230.1 L 117.9,230.0 L 117.9,230.0 L 117.8,229.8 L 117.7,229.6 L 117.7,229.4 L 117.7,229.3 L 117.5,229.2 L 117.5,229.1 L 117.4,229.1 L 117.4,229.1 L 117.3,229.2 L 117.3,229.2 L 117.3,229.2 L 117.3,229.3 L 117.2,229.2 L 117.1,229.1 L 117.1,229.2 L 117.0,229.3 L 117.0,229.5 L 117.0,229.5 L 117.0,229.7 L 117.0,229.7 L 116.9,229.7 L 116.8,229.7 L 116.7,229.6 L 116.7,229.6 L 116.7,229.8 L 116.7,229.8 L 116.6,229.7 L 116.6,229.7 L 116.5,229.8 L 116.5,229.8 L 116.4,229.8 L 116.3,229.7 L 116.3,229.7 L 116.3,229.9 L 116.2,229.9 L 116.2,230.0 L 116.2,230.1 L 116.2,230.1 L 116.3,230.2 L 116.3,230.3 L 116.4,230.4 L 116.5,230.3 L 116.5,230.4 L 116.6,230.6 L 116.7,230.7 L 116.7,230.8 L 116.6,230.9 L 116.5,230.9 L 116.4,231.0 L 116.4,231.0 L 116.4,231.1 L 116.4,231.1 L 116.3,231.2 L 116.1,231.1 L 116.1,231.1 L 116.0,231.1 L 116.0,231.1 L 115.9,231.1 L 115.9,231.1 L 115.8,231.1 L 115.9,231.2 L 115.9,231.2 L 115.9,231.3 L 115.9,231.4 L 115.7,231.4 L 115.7,231.4 L 115.7,231.5 L 115.7,231.5 L 115.7,231.6 L 115.7,231.7 L 115.7,231.8 L 115.7,231.8 L 115.7,232.1 L 115.8,232.2 L 115.9,232.3 L 116.0,232.4 L 115.9,232.4 L 115.9,232.4 L 116.0,232.4 L 116.0,232.4 L 116.0,232.6 L 116.0,232.7 L 116.0,232.8 L 116.2,232.9 L 116.2,233.0 L 116.3,233.0 L 116.4,233.1 L 116.4,233.2 L 116.5,233.3 L 116.5,233.5 L 116.5,233.7 L 116.4,233.9 L 116.3,234.1 L 116.1,234.2 L 116.0,234.2 L 115.9,234.4 L 115.9,234.4 L 115.8,234.4 L 115.6,234.3 L 115.5,234.2 L 115.5,234.3 L 115.4,234.4 L 115.4,234.5 L 115.4,234.6 L 115.4,234.9 L 115.4,235.1 L 115.4,235.2 L 115.8,235.5 L 116.2,235.8 L 116.3,236.1 L 116.3,236.1 L 116.2,236.4 L 116.1,236.7 L 116.0,236.8 L 115.9,236.9 L 115.9,237.0 L 115.9,237.0 L 115.9,237.1 L 116.0,237.1 L 116.1,237.0 L 116.2,237.0 L 116.2,237.1 L 116.2,237.2 L 116.3,237.3 L 116.3,237.3 L 116.0,237.3 L 116.0,237.4 L 116.0,237.4 L 116.0,237.5 L 115.9,237.5 L 115.8,237.5 L 115.7,237.4 L 115.6,237.4 L 115.6,237.3 L 115.5,237.2 L 115.4,237.0 L 115.2,236.8 L 114.9,236.2 L 114.8,236.0 L 114.6,235.7 L 114.5,235.5 L 114.3,235.2 L 114.2,235.0 L 114.0,234.8 L 113.7,234.6 L 113.4,234.4 L 113.3,234.4 L 113.2,234.2 L 113.1,234.1 L 113.1,234.1 L 113.0,234.0 L 112.9,234.0 L 112.9,234.0 L 112.8,234.1 L 112.8,234.1 L 112.7,234.2 L 112.6,234.2 L 112.6,234.2 L 112.5,234.3 L 112.4,234.3 L 112.4,234.4 L 112.4,234.5 L 112.4,234.6 L 112.4,234.6 L 112.3,234.7 L 112.3,234.8 L 112.3,234.8 L 112.4,234.9 L 112.4,235.0 L 112.5,235.0 L 112.5,235.3 L 112.5,235.6 L 112.5,235.6 L 112.5,235.7 L 112.5,235.8 L 112.6,236.2 L 112.7,236.4 L 112.6,236.7 L 112.6,236.9 L 112.5,237.0 L 112.4,237.1 L 112.4,237.1 L 112.3,237.2 L 112.2,237.2 L 111.9,237.3 L 111.8,237.2 L 111.7,237.2 L 111.6,237.1 L 111.5,236.8 L 111.4,236.5 L 111.2,236.2 L 111.0,236.0 L 110.9,235.6 L 110.9,235.6 L 110.8,235.3 L 110.8,235.2 L 110.7,235.1 L 110.5,235.0 L 110.2,235.0 L 110.2,235.1 L 110.2,235.4 L 110.2,235.4 L 110.1,235.4 L 109.9,235.4 L 109.9,235.3 L 109.9,235.2 L 109.9,235.2 L 109.7,235.1 L 109.7,235.2 L 109.7,235.2 L 109.7,235.3 L 109.6,235.3 L 109.5,235.3 L 109.4,235.2 L 109.2,235.1 L 109.1,235.1 L 109.0,235.1 L 109.1,235.2 L 109.1,235.3 L 108.8,235.3 L 108.7,235.3 L 108.7,235.5 L 108.8,235.6 L 108.7,235.6 L 108.6,235.7 L 108.5,235.8 L 108.5,235.9 L 108.5,235.9 L 108.4,235.8 L 108.4,235.8 L 108.2,235.8 L 108.1,235.8 L 108.1,235.8 L 108.1,236.1 L 108.1,236.2 L 108.0,236.2 L 107.9,236.1 L 107.8,236.1 L 107.7,236.1 L 107.7,236.1 L 107.7,236.3 L 107.7,236.4 L 107.6,236.4 L 107.5,236.3 L 107.5,236.3 L 107.4,236.4 L 107.4,236.5 L 107.3,236.6 L 107.4,236.8 L 107.3,236.9 L 107.2,237.0 L 107.2,237.1 L 107.2,237.1 L 107.2,237.1 L 107.2,237.2 L 107.2,237.3 L 107.3,237.3 L 107.4,237.3 L 107.4,237.4 L 107.4,237.5 L 107.5,237.7 L 107.5,237.8 L 107.5,237.9 L 107.8,238.2 L 107.9,238.3 L 108.0,238.7 L 108.0,239.0 L 108.1,239.0 L 108.1,239.0 L 108.3,239.1 L 108.5,239.2 L 109.0,239.6 L 109.5,240.0 L 109.6,240.0 L 109.6,240.1 L 109.8,240.3 L 110.0,240.9 L 110.1,241.1 L 110.2,241.2 L 110.3,241.3 L 110.5,241.5 L 110.7,241.6 L 111.1,241.7 L 111.2,241.8 L 111.3,241.8 L 111.5,242.1 L 111.6,242.2 L 111.7,242.3 L 111.7,242.5 L 111.8,242.6 L 112.0,242.8 L 112.1,242.9 L 112.1,243.0 L 112.0,243.1 L 111.8,243.2 L 111.8,243.2 L 112.0,243.3 L 112.2,243.4 L 112.3,243.5 L 112.3,243.7 L 112.3,243.8 L 112.3,243.9 L 112.2,244.0 L 112.1,244.2 L 112.0,244.3 L 111.5,244.5 L 111.2,244.6 L 111.1,244.6 L 111.0,244.7 L 110.8,244.8 L 110.6,244.8 L 110.6,244.8 L 110.5,244.9 L 110.4,244.9 L 110.4,244.9 L 110.4,245.0 L 110.3,245.0 L 110.2,245.1 L 110.1,245.2 L 110.0,245.3 L 110.0,245.5 L 109.9,245.7 L 109.8,245.7 L 109.8,245.8 L 109.8,245.7 L 109.6,245.7 L 109.6,245.8 L 109.6,246.0 L 109.5,246.1 L 109.5,246.1 L 109.4,246.1 L 109.3,246.1 L 109.3,246.2 L 109.2,246.2 L 109.3,246.3 L 109.3,246.3 L 109.3,246.4 L 109.3,246.5 L 109.4,246.6 L 109.3,246.6 L 109.3,246.7 L 109.3,246.7 L 109.3,246.8 L 109.3,246.9 L 109.3,246.9 L 109.3,247.0 L 109.3,247.0 L 109.2,247.1 L 109.2,247.2 L 109.3,247.3 L 109.4,247.4 L 109.6,247.9 L 109.7,248.2 L 109.8,248.3 L 110.0,248.5 L 110.0,248.5 L 110.8,252.3 L 110.8,252.3 L 110.8,252.4 L 110.7,252.5 L 110.5,252.6 L 109.9,253.1 L 109.7,253.5 L 109.6,253.5 L 109.6,253.8 L 109.4,254.1 L 109.4,254.2 L 109.3,254.5 L 109.3,254.7 L 109.2,254.9 L 109.1,255.5 L 109.1,255.8 L 109.1,256.2 L 109.2,256.3 L 109.2,256.6 L 109.4,257.1 L 109.8,257.6 L 109.9,257.8 L 110.1,257.9 L 110.2,258.0 L 110.4,258.1 L 110.5,258.3 L 110.7,258.5 L 110.8,258.7 L 110.8,258.8 L 110.9,259.0 L 111.1,259.3 L 111.2,259.5 L 111.2,259.6 L 111.3,259.9 L 111.3,260.2 L 111.4,260.4 L 111.4,260.4 L 111.4,260.6 L 111.5,261.0 L 111.6,261.1 L 111.7,261.3 L 111.7,261.3 L 111.8,261.4 L 111.8,261.7 L 111.8,261.9 L 111.8,261.9 L 111.8,262.1 L 111.8,262.4 L 111.8,262.6 L 111.9,263.1 L 111.9,263.2 L 111.8,263.3 L 111.8,263.6 L 111.7,264.1 L 111.6,264.4 L 111.6,264.5 L 111.7,264.7 L 111.7,264.9 L 111.6,265.1 L 111.6,265.3 L 111.5,265.4 L 111.4,265.5 L 111.3,265.9 L 111.2,266.0 L 111.1,266.1 L 111.1,266.2 L 111.1,266.3 L 111.3,266.7 L 111.3,267.1 L 111.4,267.1 L 111.5,267.2 L 111.7,267.2 L 111.8,267.3 L 111.9,267.5 L 112.0,267.7 L 112.1,267.8 L 112.1,267.9 L 112.2,268.0 L 112.2,268.1 L 112.3,268.1 L 112.3,268.2 L 112.2,268.3 L 112.1,268.3 L 112.0,268.3 L 112.0,268.3 L 111.8,268.4 L 111.7,268.4 L 111.6,268.4 L 111.5,268.4 L 111.5,268.4 L 111.3,268.4 L 110.7,268.2 L 110.5,268.1 L 110.4,268.0 L 110.2,267.9 L 110.2,267.9 L 110.1,267.9 L 110.1,267.8 L 109.9,267.6 L 109.8,267.5 L 109.7,267.3 L 109.6,267.3 L 109.5,267.3 L 109.4,267.2 L 109.1,266.9 L 109.0,266.7 L 108.9,266.6 L 108.8,266.5 L 108.8,266.4 L 108.8,266.3 L 108.7,265.8 L 108.7,265.5 L 108.7,265.3 L 108.7,265.1 L 108.8,264.9 L 108.9,264.7 L 109.0,264.4 L 109.1,264.2 L 109.1,263.9 L 109.2,263.6 L 109.2,263.5 L 109.1,263.3 L 109.1,263.2 L 108.9,263.0 L 108.8,262.8 L 108.6,262.7 L 108.6,262.7 L 108.5,262.6 L 108.2,262.2 L 108.1,262.1 L 108.0,261.9 L 107.7,261.6 L 107.6,261.4 L 107.4,261.2 L 107.3,261.1 L 107.1,261.1 L 106.9,261.0 L 106.7,261.1 L 106.6,261.0 L 106.3,261.0 L 106.2,261.0 L 105.9,261.1 L 105.7,261.1 L 105.2,261.2 L 105.0,261.2 L 105.0,261.3 L 104.8,261.3 L 104.6,261.5 L 104.6,261.5 L 104.5,261.5 L 104.4,261.4 L 104.4,261.4 L 104.4,261.3 L 104.3,261.2 L 104.3,261.0 L 104.2,260.9 L 104.1,260.8 L 104.0,260.8 L 103.9,261.0 L 103.8,261.1 L 103.8,261.2 L 103.7,261.2 L 103.7,261.2 L 103.8,261.5 L 103.8,261.6 L 103.9,261.6 L 104.0,261.6 L 104.0,261.6 L 104.1,261.6 L 104.1,261.6 L 104.1,261.7 L 104.1,261.7 L 104.1,261.8 L 104.1,261.8 L 104.1,261.9 L 104.1,262.0 L 104.1,262.1 L 104.0,262.1 L 104.1,262.1 L 104.0,262.2 L 103.9,262.5 L 103.7,262.7 L 103.6,262.8 L 103.5,262.8 L 103.5,262.9 L 103.4,263.0 L 103.4,263.1 L 103.1,263.4 L 102.9,263.5 L 102.8,263.5 L 102.6,263.5 L 102.4,263.5 L 102.3,263.5 L 102.1,263.5 L 102.0,263.6 L 101.9,263.8 L 101.9,264.0 L 101.9,264.1 L 101.7,264.3 L 101.6,264.7 L 101.5,264.8 L 101.4,264.9 L 101.3,264.9 L 101.2,265.0 L 101.0,265.2 L 100.9,265.2 L 100.8,265.2 L 100.8,265.1 L 100.8,265.1 L 100.9,265.0 L 100.9,265.0 L 100.9,264.9 L 100.8,264.9 L 100.8,264.8 L 100.7,264.9 L 100.6,264.9 L 100.5,265.0 L 100.5,265.0 L 100.5,265.2 L 100.5,265.2 L 100.4,265.2 L 100.4,265.2 L 100.3,265.1 L 100.3,265.1 L 100.2,264.9 L 100.2,264.8 L 100.2,264.8 L 100.1,264.8 L 100.1,264.9 L 100.0,265.0 L 100.0,265.1 L 100.0,265.1 L 99.9,265.0 L 99.8,264.9 L 99.7,265.0 L 99.6,265.2 L 99.7,265.2 L 99.8,265.3 L 99.9,265.3 L 100.1,265.3 L 100.2,265.3 L 100.2,265.3 L 100.2,265.4 L 100.2,265.4 L 100.2,265.6 L 100.1,265.6 L 100.0,265.5 L 99.9,265.5 L 99.8,265.6 L 99.8,265.6 L 99.8,265.8 L 99.8,266.0 L 99.9,266.0 L 99.9,266.1 L 100.0,266.1 L 100.0,266.2 L 100.0,266.3 L 99.7,266.5 L 99.6,266.5 L 99.5,266.7 L 99.3,266.7 L 99.1,266.7 L 99.0,266.7 L 98.8,266.6 L 98.7,266.5 L 98.6,266.4 L 98.5,266.3 L 98.4,266.2 L 98.3,266.2 L 98.2,266.3 L 98.1,266.4 L 98.1,266.4 L 97.9,266.3 L 97.8,266.3 L 97.8,266.3 L 97.8,266.5 L 97.8,266.6 L 97.7,266.9 L 97.5,267.2 L 97.5,267.3 L 97.3,267.4 L 97.3,267.4 L 97.2,267.4 L 97.1,267.4 L 97.1,267.4 L 97.0,267.4 L 96.9,267.4 L 96.9,267.3 L 96.9,267.3 L 96.8,267.3 L 96.8,267.3 L 96.7,267.3 L 96.7,267.2 L 96.6,267.2 L 96.6,267.2 L 96.6,267.2 L 95.5,265.4 L 95.5,265.4 L 95.6,265.3 L 95.7,265.4 L 95.8,265.3 L 95.8,265.2 L 95.9,265.1 L 96.0,265.2 L 96.1,265.2 L 96.1,265.2 L 96.2,265.1 L 96.4,265.0 L 96.5,265.0 L 96.6,264.9 L 96.7,264.8 L 96.8,264.7 L 96.8,264.6 L 96.9,264.6 L 97.0,264.5 L 97.0,264.4 L 97.0,264.2 L 97.1,264.2 L 97.3,264.1 L 97.3,264.1 L 97.3,263.9 L 97.3,263.7 L 97.3,263.6 L 97.4,263.4 L 97.4,263.3 L 97.4,263.1 L 97.6,262.8 L 97.6,262.8 L 97.6,263.1 L 97.7,263.1 L 97.8,263.2 L 97.8,263.2 L 97.8,263.1 L 97.8,262.9 L 97.8,262.7 L 97.9,262.6 L 97.9,262.5 L 97.9,262.3 L 97.9,262.3 L 97.9,262.2 L 97.8,262.2 L 97.7,262.1 L 97.7,262.1 L 97.7,262.0 L 98.0,262.0 L 98.0,262.0 L 98.0,261.9 L 97.9,261.6 L 97.8,261.4 L 97.7,261.3 L 97.7,261.0 L 97.6,260.8 L 97.5,260.7 L 97.5,260.6 L 97.6,260.4 L 97.6,260.4 L 97.6,260.3 L 97.7,260.2 L 97.8,260.1 L 97.7,259.9 L 97.7,259.6 L 97.6,259.5 L 97.5,259.5 L 97.5,259.4 L 97.7,259.4 L 97.7,259.3 L 97.7,259.1 L 97.8,259.0 L 97.8,258.7 L 97.8,258.6 L 97.7,258.4 L 97.7,258.4 L 97.7,258.4 L 97.8,258.3 L 97.8,258.2 L 97.8,258.1 L 98.0,257.9 L 98.0,257.8 L 98.0,257.7 L 97.9,257.4 L 97.8,257.4 L 97.8,257.3 L 97.7,257.4 L 97.6,257.5 L 97.6,257.6 L 97.6,257.6 L 97.6,257.6 L 97.5,257.3 L 97.4,257.1 L 97.5,257.0 L 97.5,257.0 L 97.4,256.9 L 97.4,256.8 L 97.3,256.8 L 97.3,256.7 L 97.2,256.6 L 97.1,256.5 L 97.2,256.5 L 97.2,256.4 L 97.2,256.3 L 97.2,256.3 L 97.1,256.3 L 97.1,255.9 L 97.1,255.8 L 97.0,255.7 L 96.8,255.7 L 96.7,255.6 L 96.6,255.4 L 96.5,255.3 L 96.6,255.1 L 96.6,254.9 L 96.7,254.8 L 96.7,254.7 L 96.7,254.7 L 96.6,254.6 L 96.5,254.6 L 96.5,254.6 L 96.5,254.5 L 96.6,254.3 L 96.6,254.3 L 96.6,254.3 L 96.5,254.2 L 96.4,254.1 L 96.4,254.1 L 96.2,254.1 L 96.1,254.2 L 96.0,254.2 L 96.1,254.3 L 96.2,254.3 L 96.2,254.3 L 96.2,254.5 L 96.2,254.6 L 96.2,254.7 L 96.1,254.7 L 96.0,254.7 L 95.8,254.7 L 95.8,254.8 L 95.7,254.8 L 95.6,254.8 L 95.5,254.7 L 95.5,254.6 L 95.7,254.6 L 95.7,254.6 L 95.8,254.5 L 95.8,254.3 L 95.8,254.3 L 95.8,254.3 L 95.7,254.3 L 95.6,254.2 L 95.5,254.2 L 95.5,254.2 L 95.4,254.2 L 95.4,254.3 L 95.4,254.4 L 95.5,254.5 L 95.4,254.5 L 95.3,254.5 L 95.2,254.5 L 95.2,254.5 L 95.3,254.7 L 95.4,254.9 L 95.3,255.0 L 95.3,255.0 L 95.1,254.9 L 95.0,254.9 L 94.9,254.7 L 94.9,254.6 L 94.8,254.6 L 94.7,254.5 L 94.7,254.4 L 94.7,254.3 L 94.6,254.2 L 94.5,254.1 L 94.3,254.1 L 94.2,254.1 L 94.2,254.1 L 94.1,254.2 L 94.2,254.5 L 94.3,254.8 L 94.3,254.9 L 94.4,255.1 L 94.5,255.3 L 94.6,255.3 L 94.9,255.4 L 95.0,255.4 L 95.0,255.4 L 94.9,255.5 L 94.8,255.5 L 94.7,255.6 L 94.6,255.5 L 94.5,255.6 L 94.5,255.6 L 94.5,255.7 L 94.5,255.8 L 94.6,255.9 L 94.7,256.1 L 94.7,256.2 L 94.7,256.3 L 94.7,256.4 L 94.8,256.7 L 94.9,256.8 L 95.0,257.1 L 94.9,257.2 L 94.9,257.4 L 94.9,257.4 L 94.9,257.4 L 94.8,257.3 L 94.7,257.2 L 94.6,257.1 L 94.6,257.1 L 94.5,257.2 L 94.5,257.1 L 94.5,257.0 L 94.4,256.9 L 94.3,256.9 L 94.2,256.9 L 94.2,256.8 L 94.3,256.8 L 94.2,256.7 L 94.1,256.7 L 94.0,256.6 L 94.0,256.5 L 93.9,256.4 L 93.9,256.2 L 93.8,256.2 L 93.7,256.1 L 93.7,256.0 L 93.6,256.0 L 93.6,256.2 L 93.6,256.2 L 93.7,256.3 L 93.7,256.3 L 93.7,256.4 L 93.6,256.4 L 93.4,256.3 L 93.4,256.3 L 93.4,256.3 L 93.3,256.4 L 93.4,256.5 L 93.3,256.5 L 93.3,256.5 L 93.1,256.4 L 93.0,256.3 L 92.9,256.2 L 92.9,256.3 L 92.8,256.3 L 92.9,256.4 L 92.9,256.5 L 92.9,256.5 L 92.5,256.3 L 92.4,256.3 L 92.4,256.2 L 92.3,256.2 L 92.2,256.2 L 92.3,256.3 L 92.2,256.4 L 92.3,256.4 L 92.3,256.4 L 92.3,256.5 L 92.3,256.5 L 92.2,256.6 L 86.6,256.0 L 86.6,255.9 L 86.5,255.6 L 86.4,255.5 L 86.2,255.4 L 86.1,255.4 L 86.0,255.4 L 85.9,255.4 L 85.9,255.5 L 85.8,255.5 L 85.6,255.6 L 85.6,255.7 L 85.6,255.9 L 85.6,255.9 L 85.5,256.0 L 85.5,255.9 L 85.4,255.8 L 85.4,255.7 L 85.5,255.7 L 85.5,255.6 L 85.3,255.3 L 85.2,255.3 L 85.1,255.2 L 85.1,255.2 L 85.1,255.3 L 85.1,255.3 L 85.0,255.3 L 85.0,255.3 L 85.0,255.2 L 84.8,255.1 L 84.8,255.1 L 84.8,255.2 L 84.8,255.2 L 84.7,255.2 L 84.7,255.2 L 84.6,255.1 L 84.5,255.1 L 84.5,255.0 L 84.5,255.1 L 84.5,255.1 L 84.4,255.2 L 84.3,255.2 L 84.3,255.3 L 84.3,255.3 L 84.4,255.4 L 84.5,255.5 L 84.5,255.5 L 84.5,255.6 L 84.4,255.6 L 84.4,255.6 L 84.3,255.8 L 84.4,255.9 L 84.4,255.9 L 84.5,255.8 L 84.5,255.7 L 84.6,255.6 L 84.6,255.6 L 84.7,255.5 L 84.7,255.6 L 84.8,255.7 L 84.9,255.8 L 84.9,255.8 L 84.8,256.2 L 84.8,256.2 L 84.7,256.1 L 84.5,256.1 L 84.4,256.1 L 84.3,256.2 L 84.3,256.4 L 84.3,256.6 L 84.3,256.6 L 84.2,256.6 L 84.0,256.7 L 84.0,256.6 L 83.9,256.6 L 83.9,256.6 L 83.9,256.6 L 83.8,256.6 L 83.8,256.7 L 83.6,256.8 L 83.5,256.9 L 83.4,256.9 L 83.2,256.8 L 83.1,256.8 L 83.1,256.7 L 83.1,256.5 L 83.2,256.4 L 83.3,256.3 L 83.3,256.2 L 83.3,256.1 L 83.2,256.0 L 83.2,255.9 L 83.1,255.9 L 83.1,255.9 L 83.2,255.7 L 83.2,255.7 L 83.3,255.6 L 83.4,255.6 L 83.3,255.4 L 83.2,255.4 L 83.3,255.3 L 83.3,255.3 L 83.4,255.3 L 83.6,255.2 L 83.7,255.1 L 83.7,255.0 L 83.7,254.9 L 83.7,254.7 L 83.7,254.6 L 83.7,254.6 L 83.6,254.5 L 83.6,254.5 L 83.5,254.5 L 83.3,254.7 L 83.2,254.7 L 83.1,254.7 L 83.1,254.9 L 83.1,254.9 L 83.0,254.9 L 83.0,254.7 L 83.0,254.7 L 82.9,254.7 L 82.9,254.9 L 83.0,255.0 L 83.0,255.0 L 82.9,255.2 L 82.9,255.3 L 82.9,255.5 L 82.8,255.5 L 82.7,255.4 L 82.6,255.3 L 82.6,255.3 L 82.6,255.3 L 82.5,255.4 L 82.4,255.4 L 82.3,255.6 L 82.3,255.7 L 82.2,255.7 L 82.0,255.8 L 81.8,255.7 L 81.6,255.5 L 81.6,255.4 L 81.6,255.3 L 81.5,255.3 L 81.5,255.2 L 81.4,255.2 L 81.4,255.3 L 81.2,255.4 L 81.1,255.4 L 80.8,255.3 L 80.7,255.2 L 80.5,255.0 L 80.5,254.9 L 80.5,254.8 L 80.5,254.8 L 80.4,254.8 L 80.3,254.8 L 80.2,254.7 L 80.2,254.7 L 80.1,254.7 L 80.0,254.7 L 80.0,254.7 L 79.9,254.7 L 79.8,254.7 L 79.7,254.7 L 79.6,254.7 L 79.5,254.8 L 79.3,254.9 L 79.2,254.9 L 79.0,254.9 L 78.8,255.0 L 78.7,255.1 L 78.4,255.3 L 78.3,255.5 L 78.2,255.6 L 78.2,255.7 L 78.1,255.7 L 78.1,255.9 L 78.0,256.1 L 77.9,256.2 L 77.9,256.3 L 77.9,256.4 L 77.8,256.3 L 77.8,256.4 L 77.8,256.5 L 77.8,256.7 L 77.8,256.7 L 77.8,256.8 L 77.8,256.9 L 77.8,257.0 L 78.0,257.0 L 78.0,257.0 L 78.0,257.1 L 78.0,257.3 L 78.0,257.3 L 77.9,257.3 L 77.9,257.3 L 77.8,257.4 L 77.8,257.5 L 77.7,257.6 L 77.7,257.7 L 77.8,257.8 L 77.7,257.9 L 77.8,258.0 L 77.8,258.1 L 77.8,258.2 L 77.7,258.3 L 77.5,258.4 L 77.5,258.4 L 77.5,258.6 L 77.5,258.6 L 77.5,258.8 L 77.4,258.8 L 77.5,259.1 L 77.5,259.5 L 77.5,259.9 L 77.5,260.0 L 77.5,260.1 L 77.5,260.2 L 77.5,260.3 L 77.6,260.4 L 77.6,260.4 L 77.7,260.7 L 77.8,260.9 L 77.8,261.2 L 77.8,261.3 L 77.8,261.4 L 77.6,261.6 L 77.3,261.7 L 77.0,261.7 L 76.9,261.8 L 76.8,261.9 L 76.6,262.2 L 76.6,262.2 L 76.6,262.1 L 76.5,262.0 L 76.5,262.0 L 76.4,262.0 L 76.3,262.1 L 76.2,262.2 L 76.2,262.4 L 76.3,262.5 L 76.3,262.6 L 76.3,262.7 L 76.3,262.8 L 76.3,263.1 L 76.2,263.4 L 76.2,263.6 L 76.2,263.7 L 76.2,263.9 L 76.1,264.1 L 76.1,264.1 L 76.0,264.2 L 75.9,264.2 L 75.8,264.2 L 75.8,264.1 L 75.8,264.0 L 75.7,264.0 L 75.6,264.1 L 75.6,264.0 L 75.6,264.0 L 75.5,264.0 L 75.5,264.1 L 75.4,264.4 L 75.4,264.4 L 75.3,264.5 L 75.4,264.7 L 75.4,264.8 L 75.4,264.9 L 75.4,265.0 L 75.4,265.1 L 75.3,265.2 L 75.2,265.2 L 74.9,265.1 L 74.7,264.9 L 74.6,264.9 L 74.5,264.9 L 74.5,264.9 L 74.5,264.8 L 74.5,264.7 L 74.4,264.7 L 74.3,264.7 L 74.3,264.7 L 74.3,264.7 L 74.3,264.7 L 74.2,264.6 L 74.1,264.7 L 74.0,264.8 L 74.0,264.8 L 74.0,264.9 L 74.0,265.1 L 74.0,265.2 L 74.1,265.4 L 74.1,265.5 L 74.0,265.7 L 73.9,265.8 L 73.8,265.8 L 73.8,265.8 L 73.6,265.8 L 73.5,265.8 L 73.4,265.8 L 73.4,265.8 L 73.3,265.7 L 73.3,265.7 L 73.2,265.6 L 73.1,265.5 L 73.1,265.4 L 73.1,265.3 L 73.0,265.2 L 73.0,265.2 L 72.8,265.2 L 72.8,265.2 L 72.7,265.3 L 72.7,265.3 L 72.7,265.1 L 72.7,265.1 L 72.6,265.1 L 72.6,265.2 L 72.6,265.2 L 72.5,265.3 L 72.5,265.4 L 72.5,265.6 L 72.5,265.7 L 72.5,265.7 L 72.5,265.8 L 72.5,265.9 L 72.5,266.0 L 72.5,266.1 L 72.5,266.1 L 72.6,266.2 L 72.6,266.3 L 72.6,266.4 L 72.5,266.5 L 72.4,266.6 L 72.4,266.7 L 72.4,266.9 L 72.5,267.5 L 72.6,267.7 L 72.6,267.8 L 72.7,267.9 L 72.7,268.1 L 72.7,268.2 L 72.8,268.2 L 72.9,268.4 L 72.9,268.4 L 72.9,268.5 L 73.0,268.9 L 73.0,269.2 L 73.0,269.3 L 72.9,269.4 L 72.9,269.5 L 73.0,269.6 L 73.0,269.7 L 73.1,269.8 L 73.1,269.9 L 73.1,270.0 L 73.2,270.1 L 73.2,270.3 L 73.2,270.4 L 73.4,270.2 L 73.4,270.2 L 73.4,270.5 L 73.4,270.5 L 73.5,270.6 L 73.5,270.8 L 73.5,270.9 L 73.6,271.1 L 73.6,271.2 L 73.7,271.2 L 73.7,271.2 L 73.8,271.3 L 73.9,271.5 L 74.0,271.5 L 74.1,271.5 L 74.0,271.7 L 74.0,271.7 L 74.1,271.8 L 74.2,271.9 L 74.2,272.0 L 74.3,272.1 L 74.3,272.1 L 74.4,272.3 L 74.3,272.3 L 74.3,272.3 L 74.3,272.2 L 74.3,272.2 L 74.3,272.2 L 74.3,272.3 L 74.3,272.4 L 74.3,272.4 L 74.4,272.5 L 74.4,272.5 L 75.5,276.1 L 75.5,276.2 L 75.5,276.2 L 75.5,276.3 L 75.4,276.3 L 75.4,276.4 L 75.3,276.4 L 75.3,276.5 L 75.2,276.4 L 75.1,276.5 L 75.0,276.6 L 74.9,276.7 L 74.9,277.1 L 74.9,277.3 L 75.0,277.5 L 75.0,277.6 L 75.0,277.6 L 75.1,277.7 L 75.1,277.8 L 75.1,277.9 L 75.3,278.0 L 75.4,278.4 L 75.5,278.5 L 75.6,278.6 L 75.7,278.7 L 75.7,278.9 L 75.8,279.1 L 75.9,279.2 L 75.9,279.4 L 76.0,279.5 L 76.0,279.7 L 76.1,279.9 L 76.1,280.0 L 76.1,280.1 L 76.1,280.1 L 73.9,280.4 L 74.0,280.4 L 73.9,280.3 L 73.9,280.3 L 73.8,280.3 L 73.8,280.3 L 73.7,280.3 L 73.7,280.3 L 73.7,280.4 L 73.8,280.5 L 73.7,280.5 L 73.7,280.5 L 73.6,280.3 L 73.6,280.1 L 73.5,280.1 L 73.5,280.1 L 73.5,280.1 L 73.4,280.1 L 73.3,280.2 L 73.4,280.4 L 73.5,280.5 L 73.6,280.5 L 73.6,280.5 L 72.7,280.6 L 72.7,280.5 L 72.6,280.5 L 72.5,280.4 L 72.4,280.4 L 72.4,280.4 L 72.3,280.3 L 72.3,280.3 L 72.2,280.3 L 72.2,280.2 L 72.1,280.1 L 72.1,280.1 L 72.0,280.2 L 72.0,280.1 L 71.9,280.1 L 71.9,280.0 L 71.8,279.9 L 71.8,279.9 L 71.7,279.8 L 71.6,279.7 L 71.5,279.7 L 71.5,279.8 L 71.5,279.8 L 71.5,279.9 L 71.6,280.0 L 71.6,280.1 L 71.7,280.1 L 71.7,280.2 L 71.8,280.3 L 72.0,280.5 L 72.0,280.6 L 72.0,280.6 L 71.9,280.6 L 72.0,280.8 L 72.0,280.9 L 72.0,280.9 L 71.9,281.0 L 71.9,281.0 L 71.9,281.0 L 71.9,281.0 L 68.1,282.6 L 68.0,282.4 L 67.9,282.3 L 67.8,282.2 L 67.7,282.1 L 67.6,282.0 L 67.6,281.9 L 67.5,281.9 L 67.5,281.8 L 67.4,281.8 L 67.4,281.8 L 67.2,281.8 L 67.1,281.7 L 67.0,281.6 L 66.8,281.5 L 66.8,281.5 L 66.7,281.5 L 66.6,281.6 L 66.6,281.6 L 66.6,281.8 L 66.6,281.8 L 66.6,281.8 L 66.6,281.8 L 66.5,281.8 L 66.5,281.8 L 66.5,281.7 L 66.5,281.7 L 66.5,281.8 L 66.4,281.8 L 66.3,281.8 L 66.3,281.9 L 66.2,281.9 L 66.1,281.8 L 66.0,281.8 L 65.9,282.0 L 65.6,282.0 L 65.6,282.0 L 65.5,282.0 L 65.5,282.1 L 65.4,282.2 L 65.3,282.2 L 65.2,282.3 L 65.1,282.5 L 64.9,282.7 L 64.9,283.1 L 64.8,283.2 L 64.8,283.2 L 64.6,283.6 L 64.5,283.8 L 64.2,284.1 L 64.1,284.3 L 64.1,284.3 L 64.0,284.4 L 64.0,284.5 L 64.0,284.4 L 51.7,276.6 L 40.0,268.8 L 44.3,262.1 L 46.0,259.4 L 54.8,245.5 L 57.9,243.6 L 76.0,232.3 L 83.5,227.6 L 91.9,222.4 L 96.6,219.5 L 105.2,214.1 L 107.8,212.8 L 110.0,211.8 L 123.7,205.0 L 139.6,197.2 L 142.3,195.9" fill="none" stroke="black" stroke-width="2"/>
</svg>