<?xml version="1.0" encoding="UTF-8"?>
<svg width="400" height="400" viewBox="0 0 400 400" xmlns="http://www.w3.org/2000/svg">
  <rect width="400" height="400" fill="white"/>
  <path d="M 191.0,206.7 L 193.7,186.5 L 193.9,186.4 L 194.2,186.3 L 194.6,185.9 L 195.1,185.2 L 195.4,184.9 L 195.5,184.7 L 195.7,184.5 L 195.8,184.3 L 195.8,184.0 L 195.7,183.6 L 195.6,183.3 L 195.5,183.3 L 195.5,183.0 L 195.5,182.9 L 195.6,182.8 L 195.7,182.5 L 195.7,182.5 L 195.8,182.0 L 195.8,181.8 L 195.6,181.7 L 195.4,181.6 L 195.4,181.4 L 195.6,181.1 L 195.7,181.0 L 195.8,180.7 L 196.0,180.3 L 196.3,179.9 L 196.6,179.7 L 196.7,179.7 L 197.0,179.8 L 197.2,179.8 L 197.3,179.7 L 197.4,179.5 L 197.6,179.4 L 197.8,179.4 L 197.9,179.3 L 198.0,179.3 L 198.1,179.3 L 198.1,179.3 L 198.3,179.0 L 198.4,178.7 L 198.7,178.3 L 198.7,178.0 L 198.7,177.7 L 198.6,177.5 L 198.5,177.4 L 198.6,177.1 L 198.8,176.9 L 198.9,176.3 L 199.1,175.1 L 199.2,174.9 L 199.3,174.6 L 199.3,174.4 L 199.2,173.5 L 199.1,173.0 L 199.0,172.7 L 199.0,172.6 L 198.9,172.4 L 198.8,172.0 L 198.7,171.7 L 198.6,171.4 L 198.1,171.0 L 197.4,169.9 L 197.2,169.8 L 197.0,169.7 L 196.9,169.8 L 196.9,170.0 L 196.8,170.0 L 196.7,170.0 L 196.5,169.9 L 196.4,169.6 L 196.1,169.5 L 196.1,169.4 L 196.1,169.2 L 196.0,169.1 L 195.7,169.0 L 195.5,168.7 L 195.4,168.7 L 195.0,168.6 L 194.8,168.5 L 194.5,168.3 L 194.2,168.0 L 194.1,167.8 L 193.7,167.3 L 193.3,167.0 L 193.1,166.3 L 192.9,166.0 L 192.6,165.7 L 192.5,165.5 L 192.1,165.2 L 191.3,164.7 L 190.8,164.3 L 190.6,164.1 L 190.4,164.0 L 190.4,164.1 L 190.4,164.2 L 190.4,164.3 L 190.0,164.4 L 189.9,164.4 L 189.9,164.6 L 189.8,164.6 L 189.6,164.5 L 189.4,164.5 L 189.2,164.7 L 188.9,164.7 L 188.7,164.9 L 188.6,164.8 L 188.4,164.7 L 188.2,164.6 L 188.1,164.6 L 188.0,164.7 L 187.3,164.1 L 187.2,163.8 L 186.9,163.7 L 186.7,163.5 L 186.3,163.2 L 185.7,162.7 L 185.5,162.8 L 185.5,162.5 L 185.1,162.1 L 184.8,161.8 L 184.6,161.6 L 184.4,161.5 L 184.1,161.2 L 184.1,161.1 L 184.0,161.1 L 183.9,161.1 L 183.7,161.0 L 183.4,160.9 L 183.2,160.9 L 183.0,161.1 L 182.8,161.3 L 182.6,161.3 L 182.3,161.3 L 182.3,161.4 L 181.5,161.4 L 181.4,161.5 L 181.2,161.8 L 181.0,161.8 L 180.8,161.7 L 180.7,161.8 L 180.1,161.8 L 179.7,161.7 L 179.6,161.7 L 179.6,161.9 L 179.4,161.9 L 179.2,161.8 L 179.1,161.8 L 178.9,161.7 L 178.6,161.6 L 178.4,161.6 L 178.3,161.5 L 178.1,161.4 L 177.8,161.4 L 177.6,161.3 L 177.5,160.8 L 177.3,160.5 L 177.2,160.3 L 177.1,159.6 L 177.2,159.1 L 177.1,159.0 L 177.0,159.0 L 176.8,159.3 L 176.7,159.3 L 176.4,159.0 L 176.5,158.9 L 176.5,158.9 L 176.7,158.6 L 177.0,158.3 L 177.1,158.2 L 177.0,158.1 L 176.8,157.9 L 176.8,157.6 L 176.9,157.2 L 177.1,157.0 L 177.1,156.8 L 177.1,156.7 L 176.7,156.3 L 176.7,156.0 L 176.6,155.9 L 176.6,155.8 L 176.7,155.6 L 176.6,155.3 L 176.5,154.7 L 176.4,154.5 L 176.2,154.3 L 176.1,154.1 L 176.0,154.1 L 176.0,154.1 L 175.7,154.1 L 175.6,154.0 L 175.5,153.9 L 175.5,153.8 L 175.1,153.8 L 174.9,153.9 L 174.6,154.3 L 174.5,154.4 L 174.0,154.5 L 173.9,154.5 L 173.9,154.5 L 156.4,155.3 L 156.3,155.2 L 156.1,155.0 L 156.0,154.9 L 155.9,154.7 L 155.5,154.4 L 155.1,153.9 L 155.0,153.7 L 154.8,153.7 L 154.7,153.8 L 154.4,153.7 L 154.3,153.7 L 154.1,153.5 L 154.1,153.4 L 153.7,153.6 L 153.4,153.5 L 152.8,153.2 L 152.6,152.9 L 152.5,152.8 L 152.4,152.8 L 152.3,152.6 L 152.3,152.4 L 152.1,152.0 L 152.0,151.8 L 152.0,151.5 L 152.1,151.1 L 152.0,151.0 L 151.7,150.7 L 151.6,150.5 L 151.6,149.5 L 151.7,148.9 L 151.8,148.4 L 151.9,148.3 L 152.1,148.2 L 152.1,148.0 L 152.0,147.9 L 151.8,147.8 L 151.7,147.6 L 151.5,147.4 L 151.4,147.3 L 151.2,147.1 L 151.1,147.0 L 150.9,146.8 L 150.8,146.8 L 150.8,147.0 L 151.1,147.3 L 151.1,147.5 L 150.9,147.5 L 150.5,147.2 L 150.1,146.8 L 150.1,146.8 L 149.6,146.3 L 149.2,146.2 L 149.0,146.1 L 149.1,146.0 L 149.2,145.9 L 149.2,145.8 L 149.1,145.7 L 149.0,145.8 L 148.9,145.8 L 148.7,145.6 L 148.6,145.4 L 148.5,145.4 L 148.2,145.4 L 148.0,145.3 L 148.0,145.1 L 147.9,145.0 L 147.8,145.0 L 147.7,144.9 L 147.5,145.0 L 147.3,144.9 L 147.3,144.9 L 146.9,144.7 L 146.7,144.7 L 146.5,144.5 L 146.3,144.6 L 146.2,144.6 L 146.0,144.7 L 145.8,144.5 L 145.7,144.3 L 145.8,144.1 L 145.9,144.1 L 145.8,144.0 L 145.7,143.9 L 145.6,143.8 L 145.3,143.5 L 145.2,143.5 L 145.2,144.0 L 145.2,144.1 L 145.1,144.2 L 144.9,144.1 L 144.8,144.1 L 144.6,144.2 L 144.1,144.1 L 144.0,144.1 L 143.9,144.2 L 143.7,144.2 L 143.4,144.2 L 143.3,144.1 L 143.2,143.7 L 143.0,143.5 L 142.9,143.2 L 142.7,143.1 L 142.6,143.1 L 142.5,143.3 L 142.3,143.3 L 142.1,143.2 L 142.0,143.2 L 141.8,143.4 L 141.5,143.4 L 141.4,143.6 L 140.9,143.7 L 140.6,143.7 L 140.4,144.0 L 140.2,144.0 L 139.9,143.9 L 139.8,143.5 L 139.7,143.2 L 139.6,143.1 L 139.5,143.1 L 139.3,143.4 L 139.0,143.4 L 138.9,143.3 L 138.8,143.1 L 138.9,143.0 L 138.9,142.9 L 138.8,142.7 L 138.7,142.7 L 138.5,143.1 L 138.3,143.1 L 138.4,142.8 L 138.3,142.7 L 138.1,142.9 L 138.0,142.9 L 138.0,142.8 L 138.1,142.6 L 138.1,142.5 L 138.0,142.5 L 137.9,142.5 L 137.7,142.6 L 137.6,143.0 L 137.4,143.0 L 137.2,142.9 L 137.1,142.8 L 137.1,142.6 L 137.0,142.6 L 136.7,142.6 L 136.6,142.4 L 136.5,142.3 L 136.3,142.0 L 135.8,141.5 L 135.2,140.5 L 135.0,140.4 L 134.9,140.5 L 134.9,140.9 L 134.9,141.0 L 134.8,141.1 L 134.5,140.8 L 134.3,140.7 L 134.2,140.5 L 134.1,140.2 L 134.0,140.0 L 133.9,140.1 L 133.9,140.2 L 133.8,140.2 L 133.6,140.0 L 133.3,139.5 L 133.2,139.4 L 133.0,139.6 L 132.9,139.5 L 132.5,139.2 L 132.4,138.9 L 132.3,138.4 L 132.1,137.8 L 131.9,137.6 L 131.9,137.6 L 131.8,137.8 L 131.7,137.8 L 131.6,137.7 L 131.4,137.3 L 131.2,137.1 L 131.1,137.0 L 130.7,136.8 L 130.5,136.6 L 130.5,136.2 L 130.3,136.0 L 130.2,135.6 L 130.2,135.5 L 130.2,135.3 L 130.2,135.3 L 130.2,135.0 L 130.3,134.9 L 130.3,134.8 L 129.9,134.5 L 129.7,134.1 L 129.7,133.9 L 129.5,133.7 L 129.5,133.4 L 129.3,133.2 L 129.1,133.2 L 129.0,133.2 L 128.9,133.2 L 128.9,133.1 L 128.9,133.0 L 128.9,133.0 L 128.9,132.9 L 128.9,132.9 L 128.9,132.9 L 128.6,132.9 L 128.4,132.7 L 128.3,132.8 L 128.2,132.8 L 128.0,132.7 L 127.9,132.7 L 127.9,132.6 L 127.9,132.6 L 127.9,132.5 L 127.4,132.7 L 127.3,132.9 L 127.3,133.2 L 127.3,133.2 L 98.8,130.8 L 98.8,130.8 L 98.7,130.8 L 98.5,130.5 L 98.4,130.4 L 98.0,130.2 L 97.7,130.1 L 97.1,129.7 L 96.9,129.5 L 96.8,129.4 L 96.7,129.2 L 96.6,129.0 L 96.5,128.8 L 96.3,128.6 L 96.0,128.3 L 95.6,127.8 L 95.6,127.6 L 95.5,127.6 L 95.5,127.5 L 95.5,127.3 L 95.6,127.1 L 95.7,126.8 L 95.8,126.7 L 95.8,126.4 L 95.8,126.2 L 95.7,126.1 L 95.6,125.9 L 95.3,125.7 L 95.2,125.5 L 95.2,125.4 L 95.4,125.2 L 95.5,125.0 L 95.6,124.9 L 95.7,124.8 L 95.7,124.7 L 95.7,124.6 L 95.7,124.1 L 95.7,123.9 L 95.7,123.7 L 95.9,123.4 L 95.9,123.3 L 95.9,123.2 L 95.9,123.0 L 95.9,122.8 L 96.0,122.6 L 96.0,122.4 L 98.4,122.7 L 98.4,122.7 L 98.4,122.8 L 98.3,123.0 L 98.3,123.2 L 98.2,123.3 L 98.2,123.5 L 98.3,123.6 L 98.4,123.8 L 98.5,124.0 L 98.6,124.1 L 98.6,124.2 L 98.7,124.3 L 98.8,124.3 L 99.0,124.3 L 99.2,124.1 L 99.3,124.0 L 99.3,123.9 L 99.3,123.8 L 99.2,123.7 L 99.2,123.6 L 99.3,123.4 L 99.4,123.3 L 99.5,123.2 L 99.6,123.1 L 99.7,122.7 L 99.8,122.5 L 99.9,122.4 L 100.1,122.3 L 100.3,122.3 L 100.5,122.2 L 101.0,122.0 L 101.3,122.0 L 101.6,121.9 L 102.1,121.9 L 103.0,121.7 L 103.3,121.6 L 103.6,121.5 L 104.2,121.2 L 104.4,121.1 L 104.6,120.9 L 104.8,120.6 L 104.9,120.4 L 105.0,120.1 L 105.2,119.8 L 105.3,119.5 L 105.4,119.4 L 105.5,119.1 L 105.7,118.8 L 105.9,118.6 L 106.1,118.4 L 106.2,118.2 L 106.4,118.0 L 106.4,117.7 L 106.5,117.3 L 106.5,117.0 L 106.5,116.9 L 106.6,116.6 L 106.7,116.5 L 106.9,116.2 L 106.9,116.1 L 107.1,115.6 L 107.1,115.3 L 107.3,114.9 L 107.3,114.6 L 107.3,114.4 L 107.3,113.5 L 107.3,113.3 L 107.4,112.8 L 107.4,112.7 L 107.5,112.4 L 107.6,112.0 L 107.7,111.8 L 107.8,111.7 L 107.9,111.5 L 108.1,111.2 L 108.3,111.0 L 108.4,110.7 L 108.5,110.4 L 108.6,109.9 L 108.6,109.8 L 108.6,109.2 L 108.6,108.9 L 108.7,108.7 L 108.9,108.3 L 109.0,108.0 L 109.1,107.6 L 109.1,107.3 L 109.2,106.9 L 109.2,106.5 L 109.2,106.3 L 109.2,106.1 L 109.2,105.9 L 109.2,105.8 L 109.2,105.6 L 108.7,104.4 L 108.5,103.8 L 108.5,103.6 L 108.5,103.5 L 108.5,103.4 L 108.4,103.3 L 108.3,103.1 L 108.2,102.8 L 108.2,102.8 L 108.1,102.6 L 108.1,102.4 L 108.0,102.0 L 108.0,101.7 L 108.0,101.6 L 108.0,101.4 L 108.0,101.3 L 108.0,101.2 L 107.9,101.0 L 107.9,100.6 L 108.0,99.9 L 108.0,99.9 L 107.9,99.3 L 107.9,98.6 L 108.1,98.1 L 108.0,97.8 L 107.9,97.7 L 107.8,97.3 L 107.7,97.1 L 107.7,96.8 L 107.4,96.5 L 107.4,96.0 L 107.5,95.6 L 107.5,95.1 L 107.5,94.8 L 107.5,94.2 L 107.2,93.6 L 107.1,93.3 L 107.0,93.1 L 107.0,92.7 L 106.7,92.3 L 106.6,92.1 L 106.5,92.0 L 106.4,91.6 L 106.0,91.1 L 105.8,90.9 L 105.4,90.7 L 105.3,90.7 L 105.2,90.4 L 105.0,90.1 L 104.7,89.9 L 104.2,89.6 L 104.0,89.4 L 103.9,89.4 L 103.8,89.4 L 103.6,89.1 L 103.5,89.1 L 103.3,89.1 L 103.3,89.1 L 103.1,89.1 L 102.8,89.1 L 102.4,89.0 L 102.2,89.1 L 102.1,89.1 L 101.9,89.1 L 101.9,89.2 L 101.6,89.2 L 101.5,89.4 L 101.2,89.4 L 101.1,89.5 L 101.0,89.6 L 100.9,89.6 L 100.8,89.5 L 100.6,89.4 L 100.4,89.4 L 99.6,89.6 L 99.4,89.8 L 99.2,89.8 L 98.9,89.9 L 98.6,90.1 L 98.4,90.1 L 98.0,90.2 L 97.9,90.4 L 97.8,90.5 L 97.6,90.3 L 97.3,90.3 L 97.2,90.4 L 97.1,90.6 L 96.9,90.6 L 96.6,90.5 L 96.5,90.6 L 96.2,90.7 L 96.0,90.9 L 95.8,90.8 L 95.5,90.8 L 95.5,90.9 L 95.3,91.0 L 95.1,91.1 L 95.0,91.2 L 94.8,91.3 L 94.8,91.4 L 94.6,91.5 L 94.5,91.6 L 94.5,91.8 L 94.5,91.8 L 94.4,91.8 L 80.9,90.5 L 80.8,90.5 L 80.7,90.3 L 80.7,90.2 L 80.6,90.1 L 80.5,90.2 L 80.4,90.2 L 80.3,90.4 L 80.3,90.7 L 80.3,91.0 L 74.1,92.6 L 74.0,92.3 L 73.7,91.9 L 73.6,91.6 L 73.5,91.1 L 73.4,90.9 L 73.4,90.8 L 73.3,90.3 L 73.4,90.2 L 73.4,90.0 L 73.4,89.8 L 73.5,89.7 L 73.5,89.6 L 73.0,89.4 L 72.8,89.2 L 72.5,88.8 L 72.3,88.6 L 72.1,88.5 L 72.2,88.4 L 72.4,88.4 L 72.6,88.4 L 72.7,88.4 L 72.6,88.2 L 72.5,88.1 L 72.3,88.0 L 72.1,87.9 L 71.4,87.3 L 71.3,86.7 L 71.2,86.7 L 71.1,86.3 L 70.9,86.0 L 70.5,85.6 L 70.4,85.4 L 70.3,85.0 L 70.2,84.7 L 69.9,84.2 L 69.7,84.1 L 69.6,84.0 L 69.3,83.6 L 69.3,83.3 L 69.3,83.1 L 69.1,82.9 L 68.8,82.7 L 68.7,82.6 L 68.6,82.3 L 68.4,81.7 L 68.3,81.6 L 68.3,81.2 L 68.3,80.8 L 68.2,80.1 L 68.3,79.8 L 68.3,79.3 L 68.3,79.1 L 68.6,78.8 L 68.6,78.6 L 68.6,78.4 L 68.4,78.0 L 68.3,77.7 L 68.2,77.0 L 68.3,76.8 L 68.2,76.5 L 68.0,75.9 L 67.4,75.0 L 67.2,74.7 L 66.5,74.4 L 66.3,74.2 L 66.2,74.1 L 66.2,73.8 L 66.1,73.5 L 65.9,73.3 L 65.6,73.2 L 65.5,73.2 L 65.4,73.3 L 65.2,73.4 L 65.1,73.3 L 65.0,73.1 L 64.9,73.1 L 64.9,73.1 L 64.8,73.4 L 64.8,73.4 L 64.7,73.3 L 64.6,73.1 L 64.9,73.0 L 101.1,63.0 L 101.1,63.0 L 101.1,63.1 L 101.2,63.2 L 101.3,63.3 L 101.5,63.9 L 102.0,64.1 L 102.2,64.1 L 102.3,63.9 L 102.5,63.9 L 102.6,64.1 L 103.0,64.1 L 103.1,64.2 L 103.2,64.4 L 103.4,64.3 L 103.6,64.4 L 103.7,64.3 L 103.8,64.5 L 103.8,64.5 L 104.4,64.5 L 104.4,64.6 L 104.4,64.6 L 104.4,64.7 L 104.3,64.8 L 104.2,64.8 L 104.0,64.8 L 104.0,65.0 L 103.8,65.2 L 103.8,65.4 L 103.9,65.6 L 103.9,65.9 L 104.0,66.0 L 104.2,66.0 L 104.3,66.2 L 104.5,66.4 L 104.6,66.4 L 104.7,66.5 L 104.9,66.4 L 105.0,66.5 L 105.1,66.5 L 105.3,66.3 L 105.3,66.3 L 105.4,66.3 L 105.6,66.3 L 105.7,66.5 L 105.8,66.6 L 105.8,66.8 L 105.9,67.0 L 106.0,67.1 L 106.0,67.0 L 106.1,66.8 L 106.3,66.8 L 106.6,66.8 L 106.9,66.9 L 107.1,66.9 L 107.2,66.8 L 107.4,66.2 L 107.4,66.0 L 107.5,65.8 L 107.4,65.6 L 107.4,65.3 L 107.3,65.3 L 107.1,65.3 L 106.7,65.5 L 106.6,65.4 L 106.5,65.3 L 106.6,65.2 L 106.8,64.9 L 106.9,64.7 L 106.8,64.6 L 106.8,64.6 L 106.6,64.5 L 106.6,64.5 L 106.7,64.4 L 106.9,64.4 L 107.0,64.4 L 107.0,64.3 L 107.0,64.2 L 107.0,64.2 L 107.1,64.2 L 107.2,64.1 L 107.3,64.0 L 107.5,63.8 L 107.5,63.6 L 107.7,63.3 L 107.6,62.7 L 107.5,62.3 L 107.1,61.8 L 106.8,61.6 L 106.8,61.5 L 219.0,40.0 L 219.0,40.0 L 219.0,40.1 L 219.3,40.3 L 219.5,40.5 L 219.6,40.9 L 219.6,41.1 L 219.7,41.6 L 219.9,42.0 L 220.0,42.1 L 220.2,42.5 L 220.6,43.0 L 220.7,43.2 L 220.8,43.6 L 221.0,43.8 L 221.2,45.0 L 221.3,45.1 L 221.3,45.3 L 221.3,45.4 L 221.2,45.5 L 221.2,45.6 L 221.3,45.7 L 221.2,45.9 L 221.2,46.0 L 221.3,46.1 L 221.4,46.1 L 221.4,46.2 L 221.3,46.3 L 221.1,46.3 L 220.9,46.5 L 221.0,46.8 L 221.1,46.9 L 221.3,47.0 L 221.4,47.1 L 221.6,47.3 L 221.7,47.5 L 221.5,47.7 L 221.3,47.9 L 220.5,48.0 L 220.3,48.1 L 220.2,48.3 L 220.2,48.6 L 220.4,49.0 L 220.4,49.1 L 220.6,49.4 L 220.5,49.5 L 220.4,49.7 L 220.1,49.8 L 219.9,49.8 L 219.8,49.9 L 219.9,50.4 L 219.7,50.6 L 219.7,50.8 L 219.6,51.0 L 219.6,51.1 L 219.7,51.3 L 219.8,51.5 L 219.8,51.7 L 220.1,51.9 L 220.8,52.3 L 220.9,52.4 L 220.9,52.7 L 220.8,52.8 L 220.8,52.9 L 220.9,53.1 L 220.7,53.1 L 220.8,53.3 L 221.2,53.7 L 221.4,53.9 L 221.8,54.2 L 221.7,54.4 L 221.7,54.4 L 221.8,54.6 L 221.8,54.7 L 221.8,55.1 L 221.9,55.3 L 221.8,55.4 L 221.9,55.6 L 222.0,55.9 L 222.2,56.1 L 222.6,56.4 L 222.8,56.6 L 223.1,56.8 L 223.2,56.9 L 223.4,57.0 L 223.6,57.2 L 223.8,57.4 L 224.1,57.4 L 224.4,57.5 L 224.5,57.6 L 224.5,57.7 L 224.7,57.8 L 225.1,57.9 L 225.5,58.1 L 225.8,58.4 L 226.5,59.4 L 226.7,59.7 L 227.0,60.1 L 227.3,60.7 L 227.3,61.4 L 227.4,61.7 L 227.4,61.9 L 227.4,62.1 L 227.5,62.3 L 227.4,62.6 L 227.4,62.8 L 227.4,63.0 L 227.5,63.1 L 227.7,63.4 L 227.8,63.6 L 227.9,63.8 L 227.9,63.9 L 227.8,64.0 L 227.6,64.1 L 227.6,64.3 L 227.8,64.5 L 228.0,64.6 L 228.2,64.8 L 228.3,64.9 L 228.5,65.1 L 228.7,65.2 L 228.9,65.2 L 229.0,65.3 L 229.0,65.5 L 229.0,65.6 L 229.2,65.6 L 229.3,65.7 L 229.4,65.9 L 229.3,66.2 L 229.4,66.3 L 229.6,66.4 L 229.7,66.7 L 229.7,67.2 L 229.6,67.4 L 229.7,67.8 L 229.6,68.0 L 229.6,68.1 L 229.5,68.3 L 229.4,68.4 L 229.7,68.9 L 229.8,69.2 L 230.1,70.1 L 230.1,70.3 L 230.1,70.4 L 229.8,70.4 L 229.8,70.7 L 229.9,70.9 L 230.1,71.0 L 230.2,71.1 L 230.5,71.1 L 230.6,71.3 L 230.6,71.6 L 230.7,71.9 L 230.8,72.2 L 230.9,72.6 L 230.9,72.7 L 230.9,73.1 L 231.0,73.3 L 231.1,73.6 L 231.0,73.7 L 230.9,73.8 L 230.9,73.9 L 230.9,74.2 L 231.0,74.4 L 231.1,74.5 L 231.2,74.6 L 231.1,74.7 L 230.8,74.8 L 230.8,74.9 L 230.8,75.0 L 230.8,75.0 L 230.7,75.0 L 230.6,75.0 L 230.5,75.0 L 230.3,75.1 L 230.1,75.3 L 230.1,75.6 L 230.2,76.1 L 230.3,76.3 L 230.3,76.3 L 230.5,76.2 L 230.6,76.3 L 230.6,76.4 L 230.5,76.6 L 230.5,76.7 L 230.7,76.9 L 230.7,77.0 L 230.5,77.3 L 230.5,77.5 L 230.5,77.8 L 230.5,77.9 L 230.8,78.5 L 231.1,79.2 L 231.3,79.3 L 231.7,79.4 L 231.9,79.8 L 232.3,80.4 L 232.6,81.0 L 232.7,81.7 L 232.8,82.1 L 232.9,82.4 L 232.5,83.8 L 232.4,83.9 L 232.3,84.1 L 232.3,84.5 L 232.6,85.4 L 232.7,85.8 L 232.7,86.2 L 232.8,86.5 L 232.7,86.9 L 232.7,87.1 L 232.8,87.5 L 233.0,88.1 L 233.0,88.2 L 233.1,88.6 L 233.3,89.2 L 233.3,89.5 L 233.4,89.6 L 233.4,89.6 L 233.2,90.5 L 233.4,91.1 L 233.5,91.4 L 233.5,91.8 L 233.3,92.5 L 233.3,92.7 L 233.3,93.1 L 233.2,93.6 L 233.2,93.9 L 233.4,94.8 L 233.4,95.2 L 233.3,95.8 L 233.3,96.0 L 233.4,96.2 L 233.5,96.8 L 233.6,97.3 L 233.7,97.7 L 233.8,98.1 L 234.0,98.3 L 234.2,98.9 L 234.2,99.4 L 234.1,99.7 L 234.2,100.3 L 234.3,100.4 L 234.4,101.0 L 234.3,101.2 L 234.5,101.9 L 234.6,102.0 L 234.8,102.2 L 234.9,102.3 L 234.9,102.6 L 234.7,103.3 L 234.6,103.5 L 234.4,103.7 L 234.3,103.9 L 234.4,104.9 L 234.5,105.3 L 234.6,105.6 L 235.0,105.9 L 235.1,106.3 L 235.2,108.4 L 235.5,108.8 L 235.7,110.0 L 235.9,110.9 L 236.1,111.3 L 236.3,111.8 L 236.4,111.8 L 236.6,112.3 L 236.7,113.0 L 236.9,113.4 L 237.2,113.8 L 237.3,114.0 L 237.2,114.2 L 237.1,114.5 L 237.1,114.8 L 237.3,115.1 L 237.7,115.7 L 237.8,116.1 L 237.9,116.3 L 238.4,116.8 L 238.7,117.4 L 239.2,118.2 L 239.9,118.9 L 240.5,119.5 L 240.9,119.9 L 241.0,119.9 L 241.2,119.8 L 241.4,119.6 L 241.6,119.4 L 241.8,119.0 L 241.9,118.7 L 242.0,118.4 L 242.4,117.0 L 242.5,116.7 L 242.6,116.5 L 242.9,116.2 L 242.8,115.6 L 242.8,115.1 L 242.9,114.4 L 242.8,113.9 L 243.0,113.5 L 243.1,113.2 L 243.2,113.0 L 243.1,112.7 L 243.3,112.1 L 243.4,111.9 L 243.4,111.8 L 243.6,111.3 L 243.8,111.1 L 244.3,110.4 L 244.5,109.9 L 244.8,109.4 L 244.8,109.3 L 244.9,109.1 L 245.2,108.5 L 245.3,108.0 L 246.0,107.0 L 246.2,106.6 L 246.3,106.2 L 246.3,105.8 L 246.7,105.1 L 246.7,105.0 L 247.1,104.6 L 247.1,104.4 L 247.2,104.2 L 247.3,104.0 L 247.3,103.8 L 247.5,103.6 L 247.8,103.3 L 248.0,103.1 L 247.9,102.6 L 247.7,102.2 L 247.7,102.0 L 247.5,101.8 L 247.5,101.6 L 247.6,101.5 L 247.7,101.3 L 247.6,101.2 L 247.6,100.9 L 247.9,100.2 L 248.0,100.0 L 248.1,99.8 L 248.4,99.6 L 248.6,99.3 L 249.0,99.1 L 249.9,98.0 L 250.2,97.7 L 250.4,97.5 L 250.8,97.1 L 251.1,96.9 L 251.4,96.5 L 251.5,96.2 L 251.8,95.9 L 251.8,95.8 L 251.9,95.4 L 252.0,95.3 L 252.3,95.2 L 252.4,95.0 L 252.7,94.5 L 253.0,94.0 L 253.2,93.8 L 253.2,93.6 L 253.2,93.5 L 253.3,93.3 L 253.3,92.9 L 253.6,92.3 L 254.0,91.9 L 254.1,91.9 L 254.4,91.7 L 254.5,91.5 L 254.8,91.0 L 255.0,90.8 L 255.3,90.7 L 255.8,90.3 L 256.1,90.1 L 256.2,89.9 L 256.6,89.6 L 256.7,89.4 L 257.0,89.1 L 257.2,88.7 L 257.3,88.5 L 257.4,88.2 L 257.5,87.9 L 257.5,87.5 L 257.5,87.5 L 257.6,87.4 L 257.6,87.2 L 257.7,87.1 L 257.9,86.9 L 258.6,86.1 L 258.7,85.8 L 258.7,85.3 L 258.7,84.9 L 258.6,84.8 L 258.6,84.5 L 258.7,84.2 L 258.9,83.9 L 258.9,83.7 L 258.9,83.5 L 258.8,83.4 L 258.8,83.1 L 258.9,82.5 L 258.7,82.3 L 258.8,82.3 L 258.9,82.0 L 258.9,81.8 L 258.8,81.6 L 258.6,81.6 L 258.6,81.4 L 258.7,80.9 L 258.7,80.4 L 258.6,79.9 L 258.6,79.7 L 258.6,79.4 L 258.8,79.0 L 258.9,78.5 L 258.9,78.1 L 259.0,78.0 L 259.2,78.0 L 259.4,77.8 L 259.6,77.7 L 259.9,77.4 L 259.9,77.3 L 259.7,77.3 L 259.8,77.2 L 259.9,77.0 L 260.0,77.0 L 260.0,76.9 L 335.4,103.1 L 335.4,103.2 L 335.4,103.2 L 335.2,103.4 L 335.2,103.8 L 335.1,103.9 L 335.1,104.1 L 335.1,104.3 L 334.8,104.7 L 334.6,104.9 L 334.1,105.4 L 333.2,106.6 L 333.1,106.9 L 333.0,107.9 L 332.8,108.7 L 332.4,109.5 L 332.1,109.8 L 331.9,110.1 L 331.9,110.6 L 331.7,110.8 L 331.7,111.0 L 331.4,111.6 L 331.4,111.9 L 331.1,112.4 L 331.1,112.7 L 331.1,112.8 L 330.9,113.2 L 330.6,113.9 L 330.3,115.2 L 330.3,115.7 L 330.3,115.8 L 330.2,116.1 L 330.3,116.3 L 330.2,116.6 L 330.3,117.3 L 330.4,117.6 L 330.6,118.0 L 330.8,118.5 L 330.9,118.8 L 331.0,119.7 L 331.1,120.1 L 331.5,120.9 L 331.9,121.8 L 332.1,122.0 L 332.2,122.5 L 332.3,122.7 L 332.5,123.1 L 332.7,123.6 L 332.8,124.2 L 332.8,124.7 L 332.8,125.2 L 332.7,125.4 L 332.5,125.6 L 332.3,125.7 L 332.0,125.8 L 331.9,126.0 L 331.9,126.1 L 332.1,126.1 L 332.1,126.1 L 332.2,126.3 L 332.1,126.3 L 332.0,126.4 L 332.0,126.6 L 332.0,126.8 L 331.9,126.9 L 332.1,127.0 L 331.9,127.8 L 331.7,128.3 L 331.6,128.5 L 331.5,128.6 L 331.5,128.7 L 331.5,129.3 L 331.4,129.9 L 331.3,130.3 L 331.0,130.8 L 330.5,131.4 L 329.6,132.5 L 329.1,132.9 L 329.0,133.0 L 328.8,133.0 L 328.7,132.9 L 328.4,132.9 L 328.0,132.7 L 327.8,132.7 L 327.5,132.8 L 327.1,133.2 L 326.9,133.3 L 326.1,132.8 L 325.7,132.6 L 325.6,132.4 L 325.3,132.0 L 325.1,131.7 L 324.9,131.6 L 324.4,131.5 L 324.1,131.5 L 323.4,131.7 L 323.1,131.6 L 322.8,131.6 L 322.6,131.6 L 322.1,131.9 L 321.8,131.9 L 321.2,131.9 L 321.0,131.7 L 320.8,131.7 L 320.4,131.8 L 320.2,131.9 L 319.6,132.3 L 319.2,132.5 L 318.8,132.6 L 318.7,132.4 L 318.5,132.5 L 318.1,132.8 L 317.8,133.1 L 317.5,133.2 L 317.2,133.3 L 317.1,133.4 L 317.0,133.6 L 317.0,133.8 L 316.9,134.0 L 316.7,134.2 L 316.2,134.5 L 316.2,134.6 L 316.2,134.7 L 316.1,134.9 L 316.1,135.0 L 315.5,135.2 L 315.1,135.5 L 314.8,135.8 L 314.5,135.9 L 314.1,136.1 L 314.1,136.2 L 314.1,136.3 L 314.1,136.5 L 313.8,136.6 L 313.6,136.8 L 313.4,137.0 L 313.2,137.2 L 311.7,138.1 L 311.6,138.0 L 311.5,138.0 L 311.1,138.3 L 310.9,138.5 L 310.6,138.5 L 310.4,138.6 L 310.2,138.7 L 310.1,138.6 L 309.9,138.6 L 309.7,138.7 L 309.5,138.9 L 309.4,138.9 L 309.2,139.0 L 309.1,139.2 L 308.9,139.5 L 308.9,139.6 L 309.0,139.8 L 309.0,140.0 L 308.8,140.3 L 308.7,141.1 L 308.7,141.5 L 308.5,141.9 L 308.1,142.3 L 307.8,142.4 L 307.3,142.5 L 307.1,142.5 L 306.9,142.4 L 306.8,142.5 L 306.7,142.6 L 306.6,142.8 L 306.1,143.0 L 305.9,143.1 L 305.8,143.3 L 305.5,143.5 L 304.8,144.4 L 304.8,144.6 L 304.9,144.8 L 305.4,145.0 L 305.6,145.3 L 305.7,145.7 L 305.7,145.8 L 305.4,145.8 L 304.8,146.0 L 304.5,146.1 L 304.3,146.1 L 304.1,146.2 L 303.2,146.3 L 303.0,146.4 L 302.8,146.5 L 302.6,146.6 L 302.5,146.5 L 302.2,146.5 L 301.7,146.9 L 301.5,147.0 L 301.4,147.3 L 301.1,147.6 L 300.9,147.7 L 300.8,147.7 L 300.7,147.8 L 300.7,148.0 L 300.7,148.2 L 300.8,148.3 L 300.8,148.3 L 301.0,148.5 L 301.3,148.7 L 301.9,148.9 L 301.9,149.2 L 302.0,149.5 L 302.0,149.7 L 301.8,149.8 L 301.6,150.0 L 301.7,150.3 L 301.8,150.4 L 302.1,150.5 L 302.2,150.6 L 302.2,150.8 L 302.1,150.9 L 301.8,151.1 L 301.6,151.3 L 301.5,151.5 L 301.6,151.9 L 301.7,152.0 L 301.8,152.1 L 302.2,152.4 L 302.4,152.7 L 302.4,152.9 L 302.4,153.1 L 302.0,153.4 L 302.0,153.5 L 302.0,153.6 L 302.2,153.6 L 302.3,153.6 L 302.3,153.7 L 302.3,153.9 L 302.2,153.9 L 302.0,154.0 L 301.7,154.2 L 301.6,154.5 L 301.6,154.7 L 301.9,154.8 L 302.0,155.0 L 301.9,155.1 L 301.8,155.2 L 301.9,155.4 L 302.1,155.4 L 302.2,155.5 L 302.0,155.7 L 301.8,156.0 L 301.8,156.2 L 302.0,156.5 L 302.0,156.6 L 301.9,156.7 L 301.8,156.7 L 301.9,156.8 L 301.9,157.0 L 301.6,157.4 L 301.4,157.5 L 301.2,157.8 L 301.2,158.0 L 301.5,158.0 L 301.7,158.1 L 301.7,158.3 L 301.6,158.5 L 301.6,158.6 L 300.9,158.9 L 300.8,158.9 L 300.6,158.9 L 300.4,159.0 L 300.2,159.1 L 299.8,159.5 L 299.7,159.8 L 299.4,160.0 L 299.4,160.1 L 299.5,160.2 L 300.1,160.8 L 300.2,161.1 L 300.3,161.2 L 300.2,161.4 L 300.2,161.7 L 300.0,162.8 L 299.9,163.1 L 299.8,163.4 L 299.4,164.0 L 299.4,164.1 L 299.4,164.5 L 299.3,164.8 L 299.3,165.3 L 299.2,165.4 L 298.8,165.6 L 298.7,165.8 L 298.6,166.1 L 298.5,166.1 L 298.3,166.4 L 297.6,166.5 L 297.2,166.6 L 296.9,166.7 L 296.7,166.7 L 296.2,166.6 L 295.6,167.0 L 295.0,167.6 L 294.7,168.0 L 294.6,168.3 L 294.6,168.7 L 295.0,169.3 L 295.2,169.5 L 295.4,169.7 L 295.5,170.1 L 295.7,170.4 L 296.1,170.6 L 296.5,170.6 L 296.6,170.6 L 296.7,170.9 L 296.7,171.2 L 296.7,171.3 L 296.8,171.8 L 296.8,171.9 L 296.7,172.2 L 296.6,172.6 L 296.4,172.8 L 296.1,172.9 L 295.9,173.0 L 295.7,173.4 L 295.4,173.9 L 295.3,174.2 L 295.1,174.6 L 295.2,175.0 L 294.8,175.8 L 294.7,176.1 L 294.9,176.4 L 294.9,176.5 L 294.6,176.6 L 294.1,176.8 L 293.6,176.9 L 293.4,177.1 L 293.2,177.5 L 293.1,178.0 L 292.9,178.5 L 292.7,178.8 L 292.7,178.9 L 292.8,178.9 L 293.4,179.0 L 293.6,179.0 L 293.7,179.1 L 293.7,179.3 L 293.7,179.5 L 294.1,179.7 L 294.3,180.0 L 294.3,180.1 L 294.0,180.2 L 293.6,180.3 L 293.2,180.4 L 293.1,180.5 L 293.1,180.6 L 293.2,180.7 L 293.3,181.0 L 293.8,181.3 L 294.1,181.5 L 294.8,181.4 L 295.2,181.5 L 295.5,181.8 L 295.9,182.2 L 296.2,182.8 L 296.9,183.9 L 296.9,184.0 L 297.0,184.2 L 297.0,184.6 L 297.1,184.7 L 297.1,185.4 L 297.2,187.0 L 297.1,187.1 L 296.9,187.2 L 296.7,187.4 L 296.2,187.9 L 296.1,188.5 L 296.0,188.9 L 295.9,189.1 L 295.9,189.3 L 296.0,190.2 L 296.1,190.9 L 296.3,191.7 L 296.3,192.0 L 296.2,192.3 L 296.0,192.6 L 295.8,193.3 L 295.7,193.9 L 295.7,194.0 L 295.6,194.6 L 295.6,195.2 L 295.5,195.4 L 295.5,195.7 L 295.5,196.4 L 295.6,197.3 L 295.6,197.8 L 295.5,198.7 L 295.5,199.0 L 295.8,200.0 L 295.8,200.5 L 296.0,201.7 L 295.9,201.9 L 296.0,202.1 L 296.1,202.3 L 296.1,202.4 L 296.0,202.6 L 295.9,202.8 L 296.0,203.6 L 296.0,203.8 L 296.1,204.2 L 296.2,204.7 L 296.2,205.1 L 296.1,205.3 L 296.2,205.6 L 296.2,205.7 L 296.2,206.4 L 296.2,206.8 L 296.2,207.9 L 296.0,208.9 L 296.0,209.1 L 296.1,209.2 L 296.2,209.4 L 296.3,209.5 L 296.2,209.7 L 296.2,209.9 L 296.3,210.1 L 296.3,210.4 L 296.0,211.7 L 295.9,212.2 L 295.9,212.7 L 295.9,213.0 L 295.7,213.4 L 295.6,213.7 L 295.6,214.0 L 295.6,214.2 L 295.6,214.7 L 295.7,215.0 L 295.7,215.3 L 295.8,216.1 L 296.0,216.5 L 296.2,217.1 L 296.2,217.4 L 296.3,217.8 L 296.4,218.6 L 296.5,218.8 L 296.5,219.0 L 296.6,219.2 L 296.6,219.8 L 296.7,220.2 L 296.9,221.0 L 296.8,222.0 L 296.8,222.4 L 296.9,223.0 L 297.1,223.4 L 297.3,223.9 L 297.3,224.2 L 297.2,224.6 L 297.2,225.2 L 297.5,226.5 L 297.6,226.9 L 297.6,227.3 L 297.5,227.9 L 297.3,228.2 L 297.0,228.5 L 296.7,228.8 L 296.2,229.0 L 295.9,229.0 L 295.7,228.9 L 295.5,228.9 L 295.4,229.0 L 295.2,229.3 L 295.0,229.7 L 294.8,229.9 L 294.7,230.1 L 294.8,230.4 L 295.4,230.9 L 295.6,231.1 L 295.9,231.7 L 296.4,232.6 L 296.5,232.9 L 296.5,233.4 L 296.6,234.5 L 296.5,234.7 L 296.7,235.7 L 296.8,235.8 L 297.0,236.0 L 297.1,236.4 L 297.3,236.8 L 297.4,237.2 L 297.5,237.5 L 297.6,237.9 L 297.8,238.1 L 297.9,238.4 L 298.1,239.3 L 298.4,239.8 L 298.4,240.2 L 298.4,240.4 L 298.3,240.6 L 298.1,240.7 L 298.0,241.0 L 297.9,241.2 L 297.9,241.5 L 298.1,241.8 L 298.2,241.9 L 298.2,241.8 L 298.3,241.7 L 298.4,241.7 L 298.4,241.9 L 298.6,242.6 L 298.8,243.0 L 299.0,243.2 L 299.1,243.3 L 299.4,243.3 L 299.7,243.4 L 299.9,243.6 L 300.3,244.4 L 300.4,244.5 L 300.6,244.7 L 300.8,245.0 L 300.8,245.1 L 301.2,245.6 L 301.7,246.1 L 302.5,246.9 L 303.2,247.7 L 303.7,248.3 L 304.1,249.1 L 304.4,249.6 L 304.7,250.1 L 305.1,250.8 L 305.7,251.5 L 305.9,251.8 L 306.6,252.3 L 306.9,252.5 L 308.0,252.8 L 308.1,252.8 L 308.1,252.8 L 276.4,326.7 L 275.9,327.8 L 275.9,327.9 L 275.8,327.9 L 275.4,328.0 L 275.3,328.1 L 275.1,328.1 L 275.0,328.0 L 274.9,327.7 L 274.6,327.5 L 274.5,327.4 L 274.5,327.3 L 274.4,327.3 L 274.1,327.6 L 273.9,327.6 L 273.7,327.6 L 273.5,327.7 L 273.4,327.7 L 273.3,327.6 L 273.2,327.5 L 273.1,327.5 L 273.0,327.5 L 272.9,327.4 L 272.9,327.4 L 272.8,327.3 L 272.7,327.3 L 272.6,327.2 L 272.5,327.2 L 272.3,327.2 L 272.1,327.3 L 271.9,327.5 L 271.6,327.8 L 271.5,328.0 L 271.6,328.1 L 271.6,328.1 L 271.6,328.3 L 271.6,328.4 L 271.4,328.7 L 270.9,329.0 L 270.7,329.1 L 270.6,329.2 L 270.5,329.4 L 270.5,329.4 L 270.5,329.6 L 270.4,330.0 L 270.5,330.3 L 270.5,330.4 L 270.6,330.5 L 270.6,330.7 L 270.5,331.3 L 270.3,331.9 L 270.1,332.8 L 270.1,333.2 L 270.1,333.6 L 270.2,333.7 L 270.4,333.9 L 270.5,334.1 L 270.6,334.2 L 270.6,334.3 L 270.7,334.5 L 270.7,334.5 L 270.7,334.7 L 270.8,334.8 L 270.8,335.0 L 270.8,335.1 L 270.8,335.1 L 270.8,335.2 L 270.9,335.4 L 270.9,335.6 L 270.9,335.6 L 270.9,335.6 L 270.9,335.7 L 270.9,335.9 L 270.9,336.6 L 270.9,337.0 L 270.9,337.3 L 270.9,337.6 L 270.8,338.0 L 270.8,338.1 L 270.8,338.2 L 270.8,338.3 L 270.7,338.4 L 270.7,338.5 L 270.7,338.5 L 270.7,338.6 L 270.6,338.8 L 270.6,338.9 L 270.6,339.1 L 270.5,339.3 L 270.2,339.8 L 269.8,340.3 L 269.4,340.9 L 269.2,341.1 L 268.7,341.7 L 268.3,342.3 L 267.5,343.3 L 267.4,343.4 L 267.2,343.8 L 266.7,344.4 L 266.5,344.7 L 266.2,345.3 L 266.1,345.6 L 266.1,345.7 L 266.1,345.9 L 265.9,346.6 L 265.8,347.0 L 265.7,347.2 L 265.5,347.4 L 265.3,347.6 L 265.0,347.7 L 264.5,347.9 L 264.4,347.9 L 264.2,348.0 L 264.1,348.0 L 263.9,348.1 L 263.8,348.3 L 263.7,348.5 L 263.6,348.8 L 263.5,349.1 L 263.6,349.7 L 263.6,350.0 L 263.5,350.1 L 263.4,350.3 L 262.9,351.0 L 262.7,351.2 L 262.6,351.3 L 262.4,351.8 L 262.4,352.0 L 262.4,352.1 L 262.3,352.3 L 262.3,352.4 L 262.2,352.6 L 261.9,352.8 L 261.6,353.1 L 261.4,353.3 L 261.2,353.5 L 260.8,353.7 L 260.5,354.0 L 260.0,354.2 L 259.9,354.3 L 259.6,354.5 L 259.5,354.6 L 259.4,354.7 L 259.2,355.0 L 259.2,355.1 L 259.1,355.3 L 258.9,355.6 L 258.8,356.0 L 258.7,356.1 L 258.6,356.4 L 258.4,356.5 L 258.4,356.6 L 258.2,356.8 L 258.1,357.0 L 258.1,357.1 L 258.0,357.3 L 257.9,358.1 L 257.9,358.8 L 257.9,358.9 L 257.8,358.9 L 244.8,360.0 L 244.8,359.9 L 244.7,359.8 L 244.5,359.6 L 244.3,359.4 L 244.2,359.3 L 244.2,359.3 L 244.2,359.2 L 244.1,359.1 L 244.1,358.9 L 243.9,358.7 L 243.9,358.6 L 243.9,358.4 L 243.9,358.4 L 243.7,358.3 L 243.6,358.1 L 243.6,358.0 L 243.5,357.9 L 243.3,357.9 L 243.2,357.9 L 243.0,358.0 L 242.8,358.2 L 242.7,358.2 L 158.4,337.2 L 158.4,337.1 L 158.3,336.9 L 158.3,336.7 L 158.3,336.5 L 158.2,336.2 L 158.1,336.0 L 158.0,335.6 L 157.8,335.4 L 157.8,335.3 L 157.8,335.3 L 168.8,320.2 L 168.8,320.2 L 168.8,320.2 L 169.0,320.2 L 169.3,320.2 L 169.9,320.2 L 170.0,320.2 L 170.6,320.1 L 171.1,320.0 L 171.3,320.0 L 171.8,319.9 L 171.9,319.8 L 172.1,319.7 L 172.3,319.6 L 172.5,319.4 L 172.8,319.2 L 173.2,319.0 L 173.3,318.9 L 173.6,318.6 L 173.6,318.5 L 173.6,318.4 L 174.0,317.9 L 174.3,317.7 L 174.6,317.6 L 175.0,317.4 L 175.4,317.2 L 175.7,317.0 L 175.8,317.0 L 176.0,316.9 L 176.0,316.9 L 176.3,316.9 L 176.5,316.8 L 176.6,316.8 L 176.8,316.7 L 177.2,316.7 L 177.3,316.7 L 177.7,316.9 L 177.8,316.9 L 178.0,316.8 L 178.1,316.8 L 178.4,316.9 L 178.6,316.9 L 179.0,317.0 L 179.2,317.0 L 179.6,317.2 L 180.3,317.8 L 180.6,317.9 L 180.8,317.9 L 181.1,318.0 L 181.2,318.0 L 181.4,318.1 L 181.4,318.2 L 181.5,318.3 L 181.6,318.3 L 181.8,318.4 L 182.0,318.5 L 182.2,318.4 L 182.4,318.3 L 182.6,318.1 L 182.8,317.9 L 182.8,317.8 L 182.8,317.7 L 182.7,317.5 L 182.6,317.5 L 182.4,317.4 L 182.3,317.3 L 182.3,317.2 L 182.2,317.1 L 182.2,317.0 L 182.3,316.6 L 182.5,315.9 L 182.5,315.7 L 182.6,315.4 L 182.7,315.0 L 182.9,314.6 L 183.0,314.3 L 183.1,314.1 L 183.3,314.0 L 183.5,313.7 L 183.5,313.7 L 184.1,312.4 L 184.5,311.8 L 184.9,311.0 L 185.1,310.6 L 185.1,309.7 L 185.0,309.0 L 185.0,308.8 L 184.8,308.5 L 184.7,308.0 L 184.6,307.9 L 184.5,307.3 L 184.2,306.9 L 184.2,306.5 L 184.0,306.3 L 184.0,306.2 L 178.1,268.6 L 178.2,268.5 L 178.7,268.2 L 179.4,267.5 L 180.4,266.7 L 181.1,266.1 L 181.5,265.8 L 182.0,265.4 L 182.5,264.8 L 183.1,264.4 L 183.8,263.7 L 184.2,263.2 L 184.8,262.6 L 185.0,262.4 L 185.8,261.5 L 186.0,261.1 L 186.2,260.8 L 186.3,260.3 L 186.5,259.7 L 186.7,259.1 L 186.8,258.5 L 187.2,257.4 L 187.4,256.7 L 187.7,256.0 L 188.3,254.9 L 188.5,254.1 L 188.6,253.5 L 188.7,253.2 L 188.8,253.1 L 188.9,252.4 L 189.1,252.2 L 189.2,251.9 L 189.2,251.6 L 189.1,251.5 L 189.0,251.3 L 188.7,251.1 L 188.5,251.1 L 187.9,251.0 L 187.6,250.9 L 187.5,250.9 L 187.5,250.7 L 187.5,250.4 L 187.5,250.3 L 187.4,250.2 L 187.4,250.1 L 187.3,249.9 L 187.0,249.9 L 186.9,249.7 L 185.9,249.9 L 185.8,249.9 L 185.7,249.5 L 185.5,249.5 L 185.4,249.6 L 185.2,249.6 L 185.2,249.8 L 185.0,249.8 L 185.1,250.0 L 184.9,250.0 L 184.9,250.1 L 184.6,250.3 L 184.5,250.3 L 184.3,250.3 L 184.2,250.4 L 184.0,250.4 L 183.8,250.4 L 183.3,250.4 L 182.9,250.4 L 182.7,250.3 L 182.6,250.0 L 182.6,250.0 L 182.6,249.7 L 182.7,249.5 L 183.3,248.9 L 183.8,248.4 L 184.7,247.8 L 185.2,247.4 L 185.6,247.0 L 185.7,246.5 L 185.7,246.3 L 185.7,245.7 L 185.7,245.7 L 185.7,245.5 L 186.0,244.9 L 186.1,244.5 L 186.2,244.4 L 186.0,244.2 L 185.9,243.9 L 185.9,243.7 L 186.3,243.3 L 186.6,242.9 L 186.6,242.7 L 186.3,242.5 L 185.9,242.1 L 185.3,241.7 L 185.0,241.3 L 184.9,241.2 L 184.7,240.8 L 184.6,240.4 L 184.6,239.8 L 184.4,239.6 L 184.2,239.3 L 184.1,239.2 L 184.2,238.9 L 184.5,238.4 L 184.7,238.7 L 184.8,238.8 L 185.1,239.3 L 185.2,239.8 L 185.3,240.0 L 185.5,240.4 L 185.7,240.5 L 185.8,240.5 L 186.4,240.6 L 186.7,240.7 L 187.0,240.6 L 187.4,240.4 L 187.9,240.1 L 188.3,239.7 L 188.6,239.6 L 189.2,239.6 L 190.0,239.6 L 190.6,239.6 L 191.5,239.5 L 192.0,239.4 L 192.9,239.2 L 193.6,238.9 L 194.6,238.5 L 195.1,238.4 L 195.5,238.2 L 196.1,237.7 L 196.6,237.5 L 197.5,237.2 L 198.2,237.0 L 199.6,236.3 L 199.6,236.3 L 200.0,236.1 L 200.3,236.0 L 200.7,236.0 L 201.3,235.8 L 201.6,235.6 L 201.9,235.4 L 202.4,234.9 L 204.1,233.7 L 204.6,233.3 L 204.9,233.2 L 205.4,233.1 L 205.7,233.0 L 206.5,232.6 L 206.7,232.5 L 207.2,232.5 L 207.8,232.6 L 208.4,232.9 L 209.5,233.3 L 209.9,233.4 L 211.2,233.3 L 211.5,233.1 L 211.7,233.0 L 211.8,232.7 L 212.1,232.5 L 212.1,232.4 L 212.1,232.2 L 211.9,232.1 L 211.9,231.9 L 212.1,231.6 L 212.0,231.3 L 211.7,230.5 L 211.5,230.2 L 211.4,230.0 L 211.4,229.7 L 211.4,229.6 L 211.7,228.6 L 211.9,228.1 L 212.1,227.8 L 212.3,227.6 L 212.7,227.3 L 213.4,227.1 L 214.3,227.0 L 214.7,227.1 L 215.0,227.2 L 215.5,227.6 L 215.6,227.6 L 216.0,227.6 L 216.3,227.4 L 216.6,227.3 L 217.0,227.2 L 217.3,226.9 L 218.3,225.9 L 218.6,225.7 L 219.0,225.6 L 219.6,225.5 L 220.1,225.3 L 220.7,224.9 L 221.2,224.6 L 221.6,224.3 L 222.1,223.9 L 222.3,223.8 L 222.3,223.6 L 222.2,223.4 L 222.1,223.4 L 222.1,223.3 L 222.3,223.1 L 222.3,223.0 L 222.2,222.9 L 222.2,222.8 L 222.5,222.5 L 222.6,222.3 L 222.6,222.0 L 222.8,221.7 L 222.8,221.5 L 222.8,221.4 L 222.7,221.3 L 222.4,221.3 L 221.5,221.4 L 221.2,221.5 L 220.9,221.7 L 220.7,221.8 L 220.5,221.7 L 220.3,221.5 L 220.2,221.3 L 220.2,221.2 L 220.8,221.0 L 220.9,220.9 L 220.8,220.7 L 220.9,220.5 L 221.3,220.2 L 221.4,220.1 L 221.5,219.9 L 221.5,219.9 L 221.4,219.3 L 221.2,219.1 L 221.0,219.0 L 220.9,218.8 L 220.9,218.6 L 220.9,218.2 L 221.0,218.1 L 220.9,217.9 L 220.9,217.8 L 220.8,217.6 L 220.8,217.4 L 220.6,217.2 L 220.6,217.0 L 220.7,216.7 L 220.7,216.5 L 220.7,216.4 L 220.5,216.3 L 220.1,216.1 L 219.9,216.0 L 219.8,216.0 L 219.8,215.7 L 219.7,215.6 L 219.6,215.6 L 219.5,215.6 L 218.8,215.8 L 218.1,216.0 L 217.6,216.3 L 216.9,216.8 L 216.4,217.3 L 216.1,217.4 L 215.8,217.5 L 215.5,217.4 L 215.0,217.2 L 214.9,217.3 L 214.8,217.4 L 214.6,217.5 L 214.4,217.5 L 214.3,217.3 L 214.2,217.2 L 213.8,217.2 L 213.6,217.1 L 213.4,217.2 L 213.2,217.3 L 212.9,217.3 L 212.8,217.2 L 212.7,217.0 L 212.5,217.0 L 212.1,217.0 L 212.0,216.9 L 211.7,217.0 L 211.6,217.0 L 211.4,216.9 L 211.3,216.8 L 211.3,216.7 L 211.0,216.6 L 210.7,216.7 L 210.4,216.6 L 209.8,216.8 L 209.1,217.1 L 208.4,217.5 L 208.0,217.8 L 207.7,217.9 L 207.4,218.0 L 207.0,217.8 L 206.8,217.3 L 206.7,217.0 L 206.7,216.8 L 207.0,216.5 L 207.4,216.1 L 207.7,216.0 L 208.0,215.9 L 208.1,215.8 L 208.0,215.6 L 208.0,215.3 L 207.8,215.3 L 207.5,215.3 L 206.9,215.0 L 206.8,214.8 L 206.7,214.8 L 206.7,214.0 L 206.8,213.5 L 206.9,213.2 L 206.8,212.9 L 206.7,212.5 L 206.2,212.0 L 205.8,211.6 L 205.8,211.4 L 205.8,211.3 L 205.8,211.1 L 205.8,211.0 L 205.7,210.9 L 204.9,211.0 L 204.8,210.9 L 204.8,210.4 L 204.7,210.4 L 204.6,210.3 L 204.4,210.2 L 204.1,210.2 L 203.7,210.1 L 203.2,210.1 L 202.8,210.3 L 202.3,210.8 L 202.1,210.8 L 202.1,210.8 L 201.7,210.7 L 201.6,210.4 L 201.7,210.0 L 201.6,209.8 L 201.5,209.8 L 201.1,210.0 L 200.9,210.0 L 200.7,209.9 L 200.5,209.7 L 200.3,209.7 L 200.1,209.6 L 200.0,209.4 L 199.9,209.1 L 199.9,209.0 L 200.1,208.9 L 200.3,208.8 L 200.4,208.7 L 200.4,208.5 L 200.1,208.2 L 199.7,207.9 L 199.6,207.7 L 199.4,207.4 L 199.4,207.1 L 199.3,207.0 L 199.1,206.9 L 198.9,206.9 L 198.7,207.1 L 198.3,207.3 L 197.4,207.9 L 197.2,208.1 L 197.0,208.4 L 196.9,208.6 L 196.1,209.1 L 195.8,209.2 L 195.4,209.1 L 195.2,209.0 L 194.7,209.1 L 194.4,209.2 L 193.8,209.0 L 193.3,208.9 L 192.9,208.9 L 192.4,208.8 L 192.3,208.7 L 192.3,208.4 L 192.1,208.1 L 192.1,207.8 L 192.1,207.6 L 192.1,207.3 L 192.0,207.2 L 191.7,206.9 L 191.6,206.7 L 191.4,206.6 L 191.2,206.7" fill="none" stroke="black" stroke-width="2"/>
</svg>