<?xml version="1.0" encoding="UTF-8"?>
<svg width="400" height="400" viewBox="0 0 400 400" xmlns="http://www.w3.org/2000/svg">
  <rect width="400" height="400" fill="white"/>
  <path d="M 112.6,231.9 L 112.8,231.6 L 113.2,230.2 L 113.3,229.6 L 113.2,228.4 L 112.8,227.0 L 110.8,221.7 L 109.1,218.5 L 107.7,216.3 L 107.2,215.3 L 107.0,211.4 L 107.3,207.9 L 107.2,206.3 L 105.5,200.4 L 104.6,197.2 L 104.1,194.9 L 103.6,188.0 L 103.9,180.0 L 104.1,175.2 L 104.0,171.1 L 103.8,165.6 L 103.5,161.8 L 103.6,157.8 L 103.8,154.8 L 104.5,151.7 L 105.6,147.8 L 105.6,147.7 L 103.7,142.2 L 102.4,136.9 L 98.5,130.3 L 97.3,127.7 L 96.3,124.6 L 95.8,119.8 L 91.5,102.1 L 91.7,99.6 L 89.4,88.4 L 88.3,86.4 L 87.1,85.3 L 85.4,82.3 L 85.5,80.3 L 86.1,79.4 L 88.5,77.4 L 90.0,76.6 L 92.0,71.5 L 94.9,67.7 L 91.3,61.6 L 90.3,59.0 L 146.5,44.3 L 146.9,45.6 L 148.3,48.9 L 149.1,49.7 L 150.4,50.7 L 152.2,52.6 L 156.1,57.4 L 158.0,58.9 L 159.3,58.7 L 159.7,58.6 L 160.4,55.2 L 161.2,54.2 L 165.1,53.4 L 166.6,52.2 L 167.9,48.9 L 167.9,48.2 L 166.5,48.3 L 163.6,49.1 L 159.3,49.4 L 156.5,47.9 L 152.7,45.0 L 151.1,42.3 L 150.4,40.0 L 151.6,40.1 L 272.9,52.1 L 273.8,52.2 L 271.6,55.9 L 272.5,57.9 L 266.8,73.4 L 266.4,75.6 L 264.7,80.9 L 262.4,86.9 L 261.8,89.0 L 262.2,95.6 L 261.3,106.9 L 261.9,109.3 L 262.8,111.8 L 263.7,115.6 L 263.8,116.5 L 263.6,119.0 L 262.2,128.4 L 262.0,132.7 L 261.6,135.2 L 261.2,135.7 L 261.2,135.7 L 258.6,138.0 L 258.4,138.2 L 257.5,139.0 L 255.9,140.1 L 254.1,140.5 L 253.3,140.4 L 252.2,140.0 L 251.0,140.0 L 248.6,141.3 L 246.4,143.5 L 244.9,144.0 L 240.7,144.4 L 240.0,144.6 L 238.9,145.1 L 237.3,146.1 L 236.0,146.6 L 233.2,146.8 L 230.5,146.7 L 229.4,146.9 L 228.3,147.4 L 227.8,148.1 L 227.1,149.2 L 226.9,150.9 L 224.9,153.6 L 223.9,155.5 L 223.2,157.2 L 222.9,161.1 L 222.4,162.8 L 221.9,164.1 L 221.4,167.9 L 221.4,169.8 L 221.7,171.4 L 223.7,178.0 L 224.5,182.1 L 224.4,186.6 L 224.2,190.9 L 224.4,193.0 L 224.7,196.1 L 225.7,201.4 L 227.4,206.9 L 228.0,208.5 L 228.6,210.2 L 229.0,211.8 L 229.2,214.1 L 228.4,217.6 L 228.4,218.9 L 229.1,220.5 L 229.7,221.3 L 231.4,224.3 L 232.1,226.2 L 231.7,229.3 L 232.0,230.2 L 233.1,231.5 L 233.8,231.9 L 234.7,232.4 L 236.6,233.0 L 238.7,234.0 L 239.7,234.8 L 242.1,237.8 L 243.9,238.9 L 246.2,240.4 L 247.5,241.1 L 251.7,242.0 L 255.1,243.0 L 257.8,244.3 L 261.5,246.2 L 262.2,246.5 L 264.2,246.7 L 266.2,247.1 L 269.4,248.4 L 270.9,248.8 L 274.1,249.7 L 277.1,251.0 L 282.3,253.6 L 284.0,254.9 L 287.6,258.2 L 290.2,259.7 L 291.7,261.1 L 292.3,262.1 L 293.5,263.5 L 294.7,264.7 L 296.0,267.0 L 297.5,270.9 L 300.5,275.6 L 302.2,278.5 L 303.3,280.8 L 303.7,282.1 L 303.8,283.3 L 305.0,290.4 L 306.0,295.4 L 307.7,300.5 L 308.9,304.8 L 310.8,308.8 L 312.5,311.3 L 313.7,313.5 L 314.5,315.9 L 314.6,317.0 L 314.4,318.1 L 312.6,321.9 L 311.2,325.4 L 310.9,327.9 L 309.3,330.8 L 309.1,330.8 L 287.2,327.3 L 287.1,323.4 L 287.8,320.8 L 288.1,319.7 L 288.4,318.3 L 288.1,316.9 L 287.8,315.8 L 287.7,314.0 L 288.1,312.8 L 289.6,310.6 L 289.9,310.0 L 289.8,309.6 L 289.5,309.3 L 288.8,309.0 L 288.8,308.7 L 288.9,307.1 L 289.1,305.7 L 288.5,305.1 L 287.5,305.0 L 285.8,305.0 L 285.3,305.8 L 284.3,307.8 L 284.3,307.8 L 282.5,307.4 L 279.5,306.1 L 272.2,301.7 L 268.5,299.2 L 266.1,296.7 L 263.0,294.4 L 261.4,293.4 L 256.4,290.5 L 253.3,288.3 L 250.7,286.9 L 245.1,284.0 L 238.5,281.5 L 235.5,280.1 L 233.1,278.8 L 230.0,276.8 L 227.1,275.5 L 224.0,273.7 L 222.8,273.3 L 219.9,272.8 L 214.8,272.3 L 212.1,271.8 L 206.8,269.8 L 205.0,269.1 L 201.0,267.5 L 197.8,266.1 L 195.3,265.1 L 193.8,264.6 L 191.1,264.2 L 190.0,264.1 L 188.5,264.6 L 184.6,266.7 L 182.8,266.9 L 182.0,266.6 L 180.7,265.8 L 180.4,265.2 L 179.6,261.8 L 178.8,260.1 L 177.1,258.7 L 174.4,257.1 L 173.2,256.8 L 172.4,257.1 L 170.8,258.0 L 169.6,258.2 L 167.9,258.0 L 166.4,258.1 L 165.5,257.8 L 164.4,256.0 L 163.9,255.8 L 163.4,256.2 L 163.2,257.0 L 163.6,258.3 L 164.2,260.2 L 164.6,262.2 L 165.2,263.0 L 166.4,263.9 L 166.7,264.6 L 166.4,265.2 L 165.2,266.2 L 162.9,266.4 L 160.6,267.0 L 160.3,266.9 L 159.6,266.7 L 159.3,266.7 L 158.5,266.8 L 156.5,268.1 L 154.9,268.2 L 153.6,268.0 L 150.8,266.4 L 149.6,267.1 L 147.8,268.7 L 147.4,269.3 L 147.2,269.9 L 147.5,271.4 L 147.6,273.7 L 147.4,275.1 L 147.4,276.7 L 147.7,278.3 L 148.1,279.7 L 150.1,284.2 L 149.9,284.8 L 150.0,285.7 L 150.4,286.6 L 152.0,287.4 L 153.3,288.4 L 154.2,289.5 L 155.1,291.9 L 155.9,293.2 L 157.2,298.6 L 158.0,300.7 L 159.3,303.1 L 160.5,305.4 L 160.6,306.5 L 160.2,307.6 L 159.3,308.3 L 159.2,308.4 L 158.6,309.2 L 158.6,310.2 L 159.3,310.8 L 159.6,311.1 L 162.2,311.9 L 163.5,312.6 L 166.2,314.2 L 167.0,315.0 L 168.9,318.3 L 170.6,319.8 L 171.2,320.8 L 171.1,321.9 L 170.6,323.4 L 167.3,330.3 L 167.0,331.5 L 166.5,335.4 L 166.2,336.7 L 165.3,337.9 L 165.0,338.4 L 163.0,340.1 L 160.9,341.4 L 159.3,342.3 L 156.3,343.8 L 154.4,345.4 L 154.2,345.5 L 152.4,347.8 L 151.9,348.8 L 150.7,353.2 L 150.9,355.3 L 151.1,356.0 L 151.2,357.3 L 150.7,358.1 L 149.7,358.9 L 147.7,359.7 L 145.5,360.0 L 143.3,359.6 L 141.3,358.8 L 138.8,357.5 L 137.6,356.7 L 136.3,356.1 L 135.2,355.8 L 133.9,355.0 L 133.3,354.4 L 129.4,347.1 L 126.6,341.2 L 124.7,337.1 L 123.5,333.8 L 122.3,331.7 L 121.9,330.6 L 121.9,328.9 L 122.2,327.4 L 123.0,323.6 L 123.0,322.1 L 122.8,318.0 L 123.2,313.0 L 123.1,308.0 L 122.5,303.2 L 122.2,300.7 L 121.5,298.4 L 120.5,295.4 L 119.6,293.2 L 118.0,290.5 L 117.5,289.5 L 116.4,287.1 L 115.1,285.0 L 112.2,282.8 L 110.4,280.3 L 109.7,278.5 L 108.4,273.6 L 107.6,271.1 L 107.0,269.2 L 106.8,267.2 L 106.5,263.6 L 106.5,260.5 L 106.3,259.8 L 105.2,255.8 L 104.9,254.3 L 104.7,251.6 L 105.0,249.0 L 105.7,246.6 L 106.8,242.6 L 107.6,240.5 L 108.5,238.5 L 110.1,236.2 L 111.5,233.9 L 112.2,232.4 L 112.6,231.9" fill="none" stroke="black" stroke-width="2"/>
</svg>