<?xml version="1.0" encoding="UTF-8"?>
<svg width="400" height="400" viewBox="0 0 400 400" xmlns="http://www.w3.org/2000/svg">
  <rect width="400" height="400" fill="white"/>
  <path d="M 122.9,229.8 L 119.2,227.0 L 113.7,219.7 L 109.4,217.6 L 108.6,215.2 L 106.3,212.7 L 102.3,211.3 L 99.5,211.0 L 93.5,208.5 L 88.9,207.1 L 82.7,204.9 L 79.4,201.9 L 77.4,197.7 L 77.6,195.3 L 79.0,192.8 L 78.7,188.3 L 76.9,183.9 L 76.1,181.2 L 76.3,177.7 L 77.6,176.9 L 83.6,176.1 L 84.0,174.6 L 80.9,171.8 L 80.1,169.0 L 80.2,164.9 L 85.8,160.2 L 86.8,157.3 L 86.0,155.9 L 84.8,154.8 L 85.6,152.8 L 87.1,152.4 L 88.3,151.6 L 89.6,148.2 L 88.3,145.1 L 84.2,139.8 L 82.9,136.9 L 83.1,135.2 L 84.2,132.3 L 84.4,129.0 L 87.5,125.8 L 88.3,125.1 L 90.0,124.6 L 95.8,124.4 L 100.0,125.3 L 103.9,125.0 L 107.1,122.5 L 105.3,119.2 L 106.1,118.0 L 107.5,117.4 L 111.1,117.2 L 111.0,115.2 L 107.9,113.4 L 108.1,112.2 L 110.4,108.9 L 112.0,107.1 L 111.8,105.4 L 109.1,103.8 L 109.5,100.9 L 111.2,97.8 L 111.7,92.5 L 112.6,92.1 L 115.2,91.5 L 115.9,90.1 L 113.5,87.8 L 111.8,87.3 L 111.0,86.3 L 111.0,83.5 L 110.0,83.1 L 106.7,83.6 L 105.0,83.2 L 102.7,79.4 L 102.2,75.6 L 102.3,70.8 L 104.0,69.1 L 106.5,68.3 L 110.0,69.9 L 111.9,69.8 L 112.3,68.9 L 109.9,66.3 L 107.5,65.9 L 104.8,63.8 L 102.8,61.2 L 102.7,58.7 L 103.9,57.1 L 105.2,52.8 L 105.7,50.5 L 105.5,43.5 L 106.9,42.1 L 108.9,40.2 L 108.9,40.0 L 150.9,58.7 L 152.3,57.7 L 152.6,56.9 L 152.1,56.0 L 151.1,55.3 L 228.1,52.4 L 228.3,52.4 L 229.1,53.2 L 229.4,56.3 L 232.8,56.2 L 234.9,57.3 L 236.1,59.2 L 235.4,61.1 L 233.6,64.6 L 229.0,68.0 L 230.2,71.5 L 233.4,76.2 L 233.5,80.8 L 232.1,89.9 L 232.2,92.7 L 234.4,96.5 L 234.9,100.8 L 234.8,101.8 L 234.9,103.2 L 235.6,104.4 L 236.7,105.7 L 237.7,106.5 L 238.8,106.7 L 239.7,106.3 L 240.2,106.0 L 241.5,106.8 L 244.1,108.6 L 245.2,109.5 L 245.9,110.2 L 246.9,110.7 L 247.4,111.1 L 248.1,111.9 L 248.7,112.3 L 249.6,112.8 L 250.0,113.1 L 250.6,113.3 L 251.1,112.9 L 251.2,112.1 L 251.0,111.5 L 250.0,110.8 L 248.4,109.7 L 246.9,108.6 L 245.7,107.6 L 244.8,106.8 L 243.3,105.6 L 242.2,104.8 L 241.9,104.6 L 242.0,104.4 L 242.9,103.4 L 242.4,102.9 L 243.1,102.4 L 243.5,101.8 L 244.1,101.5 L 244.9,101.6 L 245.7,101.2 L 246.4,100.3 L 247.2,99.5 L 247.8,99.0 L 248.9,98.6 L 250.7,99.4 L 254.8,100.9 L 257.0,102.2 L 262.4,107.3 L 264.4,110.9 L 265.1,112.8 L 266.1,119.9 L 264.7,126.8 L 262.5,132.8 L 260.0,136.7 L 255.1,141.4 L 254.2,145.2 L 251.2,147.9 L 247.4,149.9 L 246.0,151.4 L 243.1,160.3 L 243.8,162.4 L 243.8,164.8 L 245.0,166.4 L 242.9,169.4 L 242.4,172.4 L 240.6,175.4 L 238.8,179.0 L 238.8,179.9 L 238.9,183.5 L 240.3,184.4 L 242.7,188.1 L 242.7,194.2 L 245.4,195.8 L 249.2,195.9 L 250.6,196.2 L 251.0,196.9 L 251.2,197.4 L 251.8,198.0 L 252.1,198.3 L 252.1,198.8 L 252.5,199.0 L 253.0,199.2 L 253.6,199.6 L 253.8,200.0 L 253.8,200.2 L 253.7,201.1 L 253.4,201.5 L 252.7,201.7 L 251.9,201.6 L 251.1,201.7 L 250.5,201.5 L 250.0,201.3 L 249.4,201.3 L 248.9,201.8 L 248.8,202.2 L 248.9,202.4 L 249.5,202.6 L 250.2,202.8 L 251.1,202.9 L 251.9,202.8 L 252.9,202.9 L 253.8,203.0 L 254.3,203.0 L 255.0,203.0 L 255.5,203.1 L 256.1,203.1 L 257.1,203.0 L 258.3,202.8 L 259.0,202.4 L 259.9,201.9 L 260.5,201.1 L 261.0,200.6 L 261.4,200.2 L 261.8,200.2 L 262.4,200.2 L 263.0,200.1 L 264.0,199.4 L 266.5,199.3 L 268.6,198.5 L 270.9,195.4 L 274.0,195.3 L 275.7,196.0 L 277.0,196.1 L 281.1,199.9 L 282.5,200.4 L 284.4,201.8 L 285.8,201.5 L 288.4,199.4 L 289.8,199.5 L 291.9,196.5 L 294.0,194.6 L 296.7,194.7 L 297.2,195.2 L 297.5,197.1 L 298.7,198.3 L 299.7,197.8 L 301.1,197.8 L 301.4,199.9 L 299.7,203.7 L 300.2,204.3 L 300.7,205.4 L 302.2,206.9 L 304.2,205.8 L 305.3,204.1 L 305.0,202.2 L 302.5,199.1 L 302.7,198.0 L 306.5,197.6 L 308.4,196.4 L 312.3,196.3 L 318.7,198.6 L 320.5,199.7 L 323.6,202.3 L 323.9,203.4 L 323.3,204.9 L 320.8,207.4 L 320.7,208.0 L 320.8,209.5 L 319.5,210.8 L 317.4,212.0 L 317.4,216.9 L 317.4,222.3 L 320.2,222.0 L 320.0,223.9 L 320.1,224.2 L 319.7,225.5 L 317.5,225.8 L 316.9,230.4 L 319.4,231.4 L 319.3,231.9 L 318.7,232.8 L 318.7,233.5 L 318.7,234.0 L 317.9,234.9 L 318.3,235.2 L 318.5,235.7 L 318.4,236.1 L 317.7,236.2 L 317.4,236.5 L 317.4,237.2 L 317.5,238.3 L 317.5,239.1 L 317.5,239.7 L 318.0,240.1 L 317.6,240.2 L 317.2,240.7 L 317.3,241.5 L 316.9,242.2 L 316.5,242.6 L 316.2,243.3 L 316.3,244.0 L 316.1,244.7 L 315.7,246.0 L 314.3,251.1 L 312.5,253.3 L 310.5,254.4 L 309.3,252.5 L 308.3,252.3 L 306.2,256.6 L 306.1,258.8 L 306.6,259.7 L 308.3,258.7 L 310.8,256.0 L 312.1,256.3 L 312.7,257.9 L 311.4,261.7 L 310.4,269.4 L 310.1,273.6 L 307.8,281.9 L 304.7,290.1 L 304.7,301.2 L 303.4,305.8 L 300.1,309.4 L 298.8,315.5 L 298.4,317.6 L 299.4,321.2 L 299.4,321.2 L 299.2,321.2 L 198.1,348.3 L 198.7,346.3 L 200.2,342.9 L 200.6,337.9 L 203.9,333.0 L 207.6,330.3 L 209.4,328.4 L 209.5,328.3 L 210.6,322.4 L 210.4,316.7 L 212.2,315.2 L 212.7,314.7 L 215.0,313.9 L 216.7,311.9 L 218.5,307.4 L 222.7,302.7 L 222.6,298.6 L 223.5,298.0 L 229.2,297.8 L 232.1,296.4 L 232.5,293.7 L 233.6,292.4 L 235.4,291.4 L 239.0,286.8 L 238.5,285.9 L 237.5,286.0 L 235.9,287.2 L 232.9,288.0 L 231.0,289.2 L 231.0,291.3 L 230.3,293.5 L 228.2,296.0 L 225.4,296.3 L 224.7,295.3 L 224.4,292.8 L 221.4,291.3 L 220.5,290.3 L 218.1,290.2 L 215.9,288.8 L 214.6,287.7 L 213.0,288.1 L 212.2,288.6 L 211.6,288.9 L 209.0,288.7 L 208.0,288.3 L 203.3,291.3 L 204.1,292.4 L 201.9,299.0 L 196.0,304.8 L 193.7,306.6 L 191.7,307.5 L 191.3,306.6 L 191.9,304.9 L 191.2,304.0 L 188.4,304.6 L 185.8,306.8 L 185.4,308.2 L 187.3,308.4 L 190.7,310.7 L 190.9,312.1 L 188.6,314.6 L 187.1,318.6 L 184.5,320.9 L 181.8,321.5 L 176.6,322.2 L 173.8,325.2 L 172.9,327.8 L 172.6,328.4 L 172.3,328.8 L 168.5,329.4 L 167.3,331.6 L 165.3,337.6 L 163.7,339.3 L 162.9,347.1 L 164.6,348.1 L 165.6,350.0 L 164.5,352.4 L 164.3,354.8 L 164.1,355.7 L 162.0,358.1 L 159.1,359.1 L 155.1,360.0 L 154.6,359.5 L 156.4,358.3 L 161.9,356.2 L 162.4,355.2 L 162.2,354.6 L 162.1,353.8 L 158.3,352.0 L 154.6,351.4 L 151.5,349.1 L 150.7,348.2 L 148.2,344.2 L 147.2,340.8 L 147.7,337.2 L 150.2,335.8 L 150.4,334.8 L 151.0,330.2 L 152.4,328.4 L 152.4,328.3 L 152.1,325.6 L 150.1,323.4 L 148.9,321.7 L 150.1,321.5 L 150.8,321.5 L 153.7,322.5 L 156.2,324.9 L 156.5,328.4 L 156.5,328.9 L 157.7,330.0 L 158.9,329.6 L 158.8,328.4 L 158.4,323.8 L 158.9,321.5 L 159.1,317.6 L 163.7,312.5 L 163.4,309.9 L 162.5,308.0 L 162.8,304.2 L 162.0,300.6 L 162.5,299.2 L 163.4,297.5 L 162.8,296.5 L 161.1,294.9 L 161.3,291.3 L 162.0,288.9 L 161.5,287.3 L 160.0,284.2 L 160.2,281.9 L 162.8,276.7 L 162.7,270.5 L 161.7,267.7 L 159.8,265.6 L 159.9,260.9 L 160.7,257.9 L 160.6,254.4 L 161.3,251.5 L 161.0,249.1 L 159.3,246.5 L 158.1,243.5 L 155.8,241.1 L 154.2,241.1 L 150.2,237.7 L 149.8,235.8 L 148.0,234.4 L 146.6,234.0 L 142.0,233.9 L 138.2,232.6 L 130.1,232.2 L 125.5,230.9 L 122.9,229.8" fill="none" stroke="black" stroke-width="2"/>
</svg>