<?xml version="1.0" encoding="UTF-8"?>
<svg width="400" height="400" viewBox="0 0 400 400" xmlns="http://www.w3.org/2000/svg">
  <rect width="400" height="400" fill="white"/>
  <path d="M 40.0,203.7 L 40.3,203.4 L 151.1,90.6 L 151.4,90.7 L 152.1,91.0 L 155.3,90.6 L 156.4,89.3 L 156.8,87.8 L 156.5,87.0 L 155.9,84.3 L 154.9,82.7 L 164.0,76.9 L 165.3,78.9 L 167.2,80.9 L 168.4,82.4 L 169.2,85.0 L 170.7,85.9 L 170.9,87.0 L 171.4,88.4 L 172.1,88.5 L 173.0,89.3 L 173.8,91.1 L 174.2,93.8 L 175.3,95.4 L 175.6,96.7 L 175.9,97.7 L 176.1,97.9 L 176.8,98.5 L 177.5,98.1 L 178.6,96.7 L 180.0,96.7 L 182.3,98.4 L 186.5,102.0 L 187.3,103.1 L 187.6,104.6 L 187.9,105.8 L 188.9,108.0 L 189.8,109.1 L 190.5,109.2 L 192.6,110.7 L 194.6,113.4 L 194.0,115.0 L 194.3,115.5 L 196.7,114.4 L 197.5,113.5 L 198.8,113.4 L 201.4,115.1 L 203.2,117.4 L 206.4,125.1 L 208.1,126.3 L 209.2,126.4 L 210.6,126.9 L 210.8,127.3 L 212.3,129.0 L 213.6,130.9 L 214.3,133.9 L 214.9,135.1 L 214.1,135.9 L 214.6,137.5 L 215.5,138.0 L 215.9,137.9 L 218.1,137.0 L 219.9,137.2 L 223.2,139.7 L 224.9,140.1 L 227.0,140.9 L 228.3,142.1 L 230.1,144.1 L 231.0,145.7 L 232.1,147.6 L 233.5,149.0 L 235.3,150.6 L 236.8,153.7 L 238.2,154.7 L 239.0,156.0 L 239.1,157.1 L 239.0,158.3 L 238.1,159.4 L 236.5,159.1 L 236.4,159.4 L 236.9,159.9 L 237.3,162.7 L 237.9,163.7 L 239.0,163.3 L 240.0,162.5 L 241.4,162.1 L 243.1,162.1 L 243.2,162.2 L 243.4,163.2 L 244.0,162.6 L 244.4,162.9 L 248.6,166.4 L 250.3,167.3 L 253.5,168.1 L 254.6,167.9 L 256.8,166.3 L 259.0,165.4 L 261.7,164.9 L 263.6,163.6 L 265.0,162.8 L 266.9,160.6 L 266.6,160.0 L 267.3,159.7 L 267.6,159.9 L 268.5,157.3 L 269.6,155.9 L 271.1,155.3 L 275.1,154.8 L 276.0,154.0 L 276.3,154.2 L 276.7,155.8 L 278.6,157.2 L 280.3,158.5 L 281.3,159.8 L 282.2,160.5 L 283.9,161.4 L 285.4,161.6 L 286.6,161.4 L 288.5,160.2 L 289.7,159.8 L 291.0,159.9 L 291.8,160.4 L 291.9,160.4 L 293.4,161.8 L 293.4,161.9 L 294.8,164.2 L 295.7,167.0 L 296.4,168.5 L 297.8,169.2 L 300.4,168.9 L 303.2,167.2 L 303.8,166.4 L 304.3,163.3 L 305.5,161.9 L 306.5,161.4 L 307.0,160.8 L 307.6,159.7 L 308.4,159.1 L 310.4,157.8 L 310.7,156.5 L 311.3,155.9 L 313.8,155.8 L 315.9,156.3 L 319.1,156.6 L 322.1,156.7 L 323.1,157.0 L 323.2,157.0 L 324.2,157.2 L 325.6,156.9 L 326.1,156.8 L 330.6,155.0 L 335.3,154.7 L 338.2,154.0 L 339.8,154.1 L 340.6,154.0 L 342.6,154.3 L 343.9,155.1 L 344.2,155.6 L 345.1,155.9 L 350.9,155.4 L 351.2,155.5 L 351.1,157.2 L 352.4,160.6 L 353.4,161.7 L 356.2,163.0 L 358.6,165.4 L 359.3,166.8 L 359.6,167.1 L 360.0,170.1 L 359.4,172.8 L 358.4,173.9 L 356.5,175.2 L 355.2,175.3 L 354.3,174.8 L 353.6,175.2 L 351.0,175.3 L 349.9,174.7 L 349.2,173.9 L 347.1,170.0 L 346.6,169.8 L 341.7,169.4 L 340.8,169.4 L 337.9,170.0 L 333.6,171.2 L 330.6,171.4 L 325.7,170.8 L 323.1,171.0 L 319.5,171.2 L 318.5,171.1 L 317.9,171.0 L 315.5,171.0 L 313.2,171.9 L 311.4,174.0 L 309.3,177.7 L 308.1,179.0 L 307.2,178.3 L 305.6,182.6 L 303.4,183.0 L 302.3,184.0 L 302.4,184.8 L 303.6,184.7 L 305.2,184.4 L 306.0,184.7 L 305.8,186.6 L 305.3,187.1 L 304.1,186.2 L 303.1,187.8 L 300.9,190.5 L 301.1,192.0 L 301.5,192.2 L 302.1,191.4 L 302.8,192.4 L 302.8,193.5 L 303.0,195.6 L 302.8,195.7 L 300.0,202.1 L 299.1,203.3 L 297.8,204.1 L 295.5,204.3 L 294.4,204.7 L 292.9,207.0 L 290.9,209.3 L 286.7,212.5 L 284.2,215.2 L 283.5,216.7 L 283.7,221.0 L 283.2,222.7 L 283.0,224.3 L 283.1,224.6 L 282.7,225.7 L 282.5,226.5 L 283.4,228.7 L 284.4,230.6 L 284.6,231.0 L 284.8,231.8 L 283.6,232.9 L 283.2,234.0 L 283.2,235.8 L 283.0,236.3 L 281.7,237.2 L 279.3,237.4 L 278.8,237.7 L 278.9,241.4 L 278.5,243.8 L 278.0,245.1 L 277.8,245.4 L 277.1,245.5 L 275.8,247.8 L 274.3,250.0 L 273.7,252.3 L 273.1,253.4 L 272.1,253.4 L 271.1,252.6 L 270.0,251.3 L 269.0,251.2 L 268.5,250.8 L 268.0,250.6 L 267.5,251.2 L 267.5,254.5 L 268.1,257.4 L 268.0,260.1 L 267.9,261.6 L 267.1,264.7 L 266.8,267.0 L 267.2,270.6 L 268.0,272.0 L 269.8,273.4 L 269.6,273.5 L 269.2,273.7 L 268.6,274.3 L 268.7,277.0 L 268.3,277.4 L 268.1,281.5 L 267.0,283.2 L 266.3,283.3 L 265.2,282.1 L 264.2,281.3 L 263.4,282.5 L 262.9,282.7 L 261.8,281.3 L 261.3,281.2 L 260.8,282.6 L 260.6,283.9 L 260.7,285.1 L 260.3,285.9 L 258.5,286.6 L 257.6,287.3 L 256.9,288.6 L 256.9,289.3 L 256.9,290.2 L 256.8,290.3 L 256.8,290.4 L 256.5,291.5 L 256.3,291.6 L 256.3,291.6 L 255.6,291.7 L 254.2,291.9 L 254.0,290.8 L 253.3,290.0 L 252.7,289.4 L 252.7,288.9 L 252.9,287.9 L 252.8,287.8 L 252.1,287.1 L 250.8,285.7 L 250.2,284.6 L 248.0,281.0 L 247.5,274.5 L 248.6,267.4 L 248.4,263.5 L 248.5,262.5 L 247.3,259.0 L 247.4,258.5 L 249.4,257.6 L 252.4,252.6 L 252.2,251.0 L 250.6,250.0 L 248.8,249.8 L 246.1,250.1 L 245.5,249.6 L 245.4,249.0 L 247.0,246.2 L 246.2,242.9 L 245.7,242.0 L 245.2,241.7 L 244.7,242.0 L 245.3,245.2 L 245.4,246.5 L 245.0,246.7 L 244.1,245.6 L 243.4,244.5 L 240.5,241.9 L 239.6,242.0 L 239.2,243.0 L 239.2,246.3 L 238.4,247.5 L 237.9,247.8 L 237.4,247.6 L 237.0,246.1 L 236.5,246.1 L 236.2,247.5 L 235.8,247.7 L 234.8,246.9 L 233.5,247.9 L 232.9,249.9 L 231.9,251.1 L 230.8,251.3 L 230.2,250.7 L 229.4,249.5 L 228.3,247.9 L 227.7,247.1 L 225.8,247.1 L 224.3,246.2 L 223.6,246.3 L 223.7,247.1 L 224.9,249.7 L 225.2,251.6 L 224.7,253.7 L 223.7,254.6 L 222.5,255.0 L 220.5,254.8 L 219.4,255.2 L 217.7,257.3 L 216.5,259.5 L 216.0,261.0 L 215.9,262.2 L 216.4,263.3 L 217.7,264.7 L 218.7,266.1 L 219.9,267.6 L 222.6,270.1 L 223.9,273.3 L 224.3,275.5 L 224.3,275.6 L 225.2,278.2 L 225.8,278.5 L 228.3,279.8 L 229.5,281.2 L 229.8,280.9 L 229.5,279.7 L 229.9,279.2 L 229.8,277.8 L 231.1,277.7 L 231.7,277.6 L 234.0,278.5 L 235.1,279.7 L 235.2,279.7 L 236.3,280.2 L 236.6,282.7 L 237.4,283.6 L 238.5,283.3 L 239.2,283.8 L 239.7,285.3 L 240.1,287.3 L 239.9,288.5 L 239.3,289.5 L 237.9,290.6 L 237.9,292.5 L 237.9,292.7 L 238.2,294.6 L 238.8,295.6 L 239.4,295.3 L 239.2,294.2 L 238.7,293.0 L 238.7,292.7 L 238.7,292.4 L 239.4,292.6 L 239.4,292.7 L 240.9,294.5 L 241.7,296.0 L 241.4,296.7 L 240.6,296.8 L 240.4,297.2 L 240.8,298.0 L 241.9,299.6 L 244.3,300.3 L 245.7,301.4 L 245.3,303.3 L 247.1,303.5 L 248.5,304.4 L 249.2,304.2 L 250.7,301.9 L 251.5,302.0 L 252.6,303.3 L 253.2,302.9 L 253.4,301.7 L 252.4,299.4 L 253.1,298.4 L 254.7,298.2 L 255.0,297.8 L 255.0,297.1 L 255.0,296.5 L 255.0,294.7 L 254.8,293.5 L 254.7,292.7 L 254.9,292.4 L 255.7,292.3 L 256.0,292.4 L 256.3,292.7 L 256.4,292.7 L 256.7,294.1 L 256.9,296.0 L 257.1,297.2 L 257.6,298.1 L 257.7,298.4 L 258.6,301.2 L 258.9,305.8 L 259.3,306.8 L 259.4,308.5 L 259.3,310.4 L 259.0,312.0 L 257.8,313.4 L 256.7,314.1 L 255.0,315.6 L 254.0,317.2 L 253.8,319.5 L 253.3,321.6 L 252.2,323.1 L 251.2,322.3 L 250.0,321.1 L 247.6,320.5 L 245.4,318.9 L 244.2,317.4 L 243.7,315.9 L 243.4,313.3 L 243.0,312.6 L 242.0,315.0 L 241.2,315.3 L 239.8,313.9 L 237.8,313.4 L 234.5,311.6 L 233.4,309.9 L 231.8,308.3 L 231.5,307.1 L 231.4,305.2 L 231.6,303.2 L 232.1,302.0 L 233.0,301.0 L 231.2,299.8 L 229.5,299.2 L 229.0,298.8 L 227.6,296.6 L 226.5,296.1 L 225.7,296.1 L 225.2,295.9 L 224.8,294.9 L 224.1,294.4 L 223.2,294.3 L 222.7,294.8 L 222.6,295.9 L 223.5,298.2 L 223.7,299.9 L 223.5,300.4 L 222.4,300.8 L 221.6,301.4 L 221.6,303.1 L 221.2,303.6 L 220.0,302.4 L 220.1,301.8 L 220.3,301.2 L 219.8,300.9 L 219.4,300.8 L 219.9,297.4 L 221.2,296.3 L 220.9,295.6 L 219.2,294.0 L 218.3,292.7 L 217.1,290.9 L 215.4,289.0 L 212.8,288.3 L 211.6,287.9 L 211.0,287.6 L 210.5,287.3 L 206.9,283.8 L 204.9,281.6 L 201.6,278.5 L 201.0,277.8 L 200.9,277.8 L 199.9,277.1 L 198.2,275.1 L 196.1,273.7 L 195.0,273.2 L 194.6,272.8 L 194.4,270.1 L 192.8,268.5 L 191.4,267.2 L 189.8,264.7 L 188.6,263.3 L 188.5,263.2 L 188.4,262.7 L 188.2,262.3 L 188.5,261.1 L 187.3,259.6 L 186.0,259.1 L 186.0,253.3 L 184.9,248.9 L 183.5,246.5 L 181.8,245.0 L 179.5,243.8 L 178.8,243.3 L 178.1,241.5 L 178.7,238.8 L 178.7,237.7 L 178.8,237.4 L 178.5,236.1 L 176.1,235.5 L 174.6,235.1 L 173.4,235.1 L 172.9,236.0 L 173.3,237.2 L 174.1,238.7 L 176.1,240.9 L 176.3,241.1 L 176.6,242.3 L 176.4,243.0 L 176.1,243.2 L 175.4,243.8 L 174.6,244.8 L 175.1,246.4 L 174.3,247.3 L 172.4,248.2 L 170.0,247.3 L 168.1,247.0 L 167.6,247.4 L 167.4,248.9 L 166.6,249.7 L 164.7,250.5 L 164.2,250.2 L 163.2,249.6 L 161.9,248.4 L 161.8,248.3 L 160.5,247.2 L 157.2,243.2 L 156.0,243.4 L 154.9,244.5 L 153.7,244.5 L 152.8,243.8 L 152.2,243.7 L 151.2,243.7 L 150.5,244.1 L 149.5,243.5 L 148.6,243.2 L 148.0,243.2 L 146.8,243.2 L 145.7,242.4 L 145.4,242.8 L 145.3,243.1 L 144.5,243.2 L 144.1,242.0 L 143.0,242.4 L 142.1,241.5 L 141.8,240.1 L 141.3,236.7 L 141.4,235.7 L 142.3,235.3 L 142.2,234.8 L 139.9,233.7 L 140.2,232.7 L 141.2,231.6 L 142.3,231.5 L 142.2,230.9 L 141.8,230.5 L 141.6,229.5 L 141.3,229.2 L 140.8,229.2 L 140.5,229.7 L 140.0,230.0 L 139.2,229.3 L 138.8,229.2 L 138.3,229.5 L 138.0,230.7 L 137.8,231.7 L 137.9,233.6 L 137.6,234.1 L 136.5,234.3 L 134.8,233.5 L 134.6,233.3 L 133.8,232.7 L 131.8,231.2 L 130.8,229.9 L 128.5,227.9 L 126.1,228.0 L 125.7,228.4 L 125.5,229.5 L 123.5,230.9 L 123.3,231.1 L 121.3,231.4 L 119.1,232.0 L 118.2,232.3 L 117.7,232.1 L 117.3,232.1 L 116.7,232.0 L 115.2,231.4 L 113.4,230.0 L 112.5,227.9 L 111.9,228.2 L 111.6,227.6 L 111.0,227.3 L 110.0,228.4 L 108.3,228.7 L 106.9,227.9 L 105.7,227.0 L 104.8,226.7 L 104.2,226.3 L 102.6,225.4 L 102.4,225.3 L 100.9,224.6 L 99.7,223.8 L 99.5,223.7 L 98.8,222.9 L 98.2,221.8 L 97.4,220.3 L 97.1,217.9 L 95.9,216.6 L 95.2,216.8 L 94.0,217.4 L 92.9,217.4 L 92.1,216.7 L 91.2,216.8 L 90.6,216.2 L 89.3,216.3 L 87.1,217.6 L 86.0,217.1 L 85.2,217.4 L 84.5,218.1 L 83.1,217.9 L 82.1,217.8 L 79.8,216.5 L 76.6,214.2 L 75.5,213.4 L 74.5,213.2 L 71.6,212.4 L 69.8,211.3 L 69.0,210.7 L 68.7,210.0 L 68.1,209.9 L 67.5,209.4 L 65.3,209.1 L 64.7,209.6 L 63.1,209.8 L 62.2,209.3 L 61.5,209.3 L 60.8,209.8 L 59.2,211.5 L 58.7,212.7 L 57.8,214.1 L 55.9,214.4 L 54.5,215.1 L 53.4,215.3 L 52.3,214.2 L 50.1,208.6 L 49.2,207.3 L 47.7,205.6 L 44.5,206.1 L 43.4,205.3 L 43.0,203.9 L 42.4,203.3 L 40.8,203.6 L 40.0,203.7" fill="none" stroke="black" stroke-width="2"/>
</svg>