<?xml version="1.0" encoding="UTF-8"?>
<svg width="400" height="400" viewBox="0 0 400 400" xmlns="http://www.w3.org/2000/svg">
  <rect width="400" height="400" fill="white"/>
  <path d="M 139.3,271.9 L 139.1,270.8 L 139.1,269.8 L 138.4,265.7 L 137.6,262.8 L 137.8,261.8 L 137.3,258.9 L 137.0,255.0 L 136.5,254.1 L 136.2,251.1 L 135.8,249.8 L 135.1,248.3 L 134.0,246.9 L 132.8,245.0 L 131.6,243.5 L 130.9,242.3 L 130.4,241.0 L 130.3,239.5 L 130.6,238.5 L 130.3,236.9 L 129.9,235.6 L 129.9,234.2 L 129.8,232.8 L 128.5,229.9 L 128.2,229.0 L 128.1,227.4 L 128.2,222.2 L 128.1,221.2 L 127.2,219.2 L 127.0,218.4 L 126.7,217.5 L 125.8,216.2 L 124.9,215.2 L 123.0,211.5 L 122.0,209.9 L 119.6,207.5 L 119.4,206.9 L 118.0,205.0 L 117.3,203.2 L 116.7,202.8 L 115.7,202.5 L 115.4,202.6 L 115.3,203.0 L 114.7,203.4 L 113.9,203.4 L 112.5,202.6 L 111.7,202.7 L 111.0,203.0 L 109.4,204.2 L 108.9,204.2 L 108.7,204.2 L 107.5,202.0 L 106.5,199.2 L 106.3,198.0 L 106.1,197.8 L 106.2,197.6 L 106.0,194.5 L 106.9,189.8 L 107.0,188.1 L 106.7,187.0 L 106.8,186.0 L 105.6,183.6 L 105.5,182.0 L 104.9,181.2 L 103.0,179.8 L 102.2,178.3 L 101.0,175.4 L 100.7,174.1 L 100.4,171.0 L 100.9,168.2 L 100.9,166.7 L 100.7,165.4 L 100.8,164.9 L 101.5,163.8 L 101.8,162.1 L 103.4,157.1 L 104.4,155.9 L 104.6,154.8 L 105.3,152.6 L 105.9,151.2 L 107.1,149.1 L 110.0,145.9 L 113.0,144.0 L 114.6,142.6 L 115.5,141.5 L 117.1,140.6 L 118.9,139.8 L 120.4,138.6 L 124.1,136.7 L 125.6,136.0 L 128.5,136.4 L 129.7,136.8 L 130.3,137.9 L 131.1,138.9 L 133.2,140.4 L 134.6,140.2 L 135.7,139.7 L 136.5,139.8 L 137.9,139.8 L 139.2,140.0 L 140.4,139.6 L 141.0,138.7 L 142.8,137.7 L 144.1,137.1 L 145.6,137.2 L 147.9,137.1 L 149.3,138.1 L 149.7,138.0 L 150.4,137.4 L 152.4,136.7 L 154.2,135.6 L 154.8,135.6 L 156.1,136.2 L 156.9,136.0 L 157.3,135.6 L 157.9,133.7 L 158.6,132.8 L 159.7,132.0 L 159.8,131.8 L 160.0,131.3 L 160.5,131.0 L 161.3,130.9 L 162.9,129.4 L 163.2,128.0 L 163.1,126.9 L 161.9,125.1 L 159.8,122.7 L 159.5,122.4 L 158.2,121.4 L 157.9,120.8 L 157.8,120.3 L 157.7,119.8 L 157.6,118.9 L 157.2,118.1 L 157.4,117.6 L 158.0,116.7 L 158.2,116.2 L 157.9,115.6 L 157.8,114.8 L 158.0,114.2 L 157.5,113.8 L 156.9,113.9 L 155.8,114.4 L 154.7,115.5 L 153.6,115.7 L 153.1,116.3 L 152.1,116.4 L 151.6,116.7 L 150.6,116.8 L 150.1,116.4 L 150.2,116.0 L 150.8,115.3 L 151.1,114.4 L 151.0,113.7 L 151.3,113.1 L 150.8,112.1 L 150.5,109.7 L 150.8,108.9 L 150.6,108.2 L 150.0,107.7 L 149.3,107.9 L 148.9,108.4 L 148.6,109.2 L 147.1,111.2 L 146.9,112.2 L 146.3,112.8 L 145.5,113.0 L 144.7,112.4 L 144.4,110.1 L 144.0,109.3 L 144.4,108.1 L 144.3,107.5 L 144.3,107.1 L 144.1,106.6 L 143.7,106.5 L 143.1,106.7 L 142.3,107.9 L 141.3,111.2 L 140.3,111.9 L 139.2,112.1 L 138.6,111.8 L 137.9,111.1 L 136.9,109.1 L 136.1,107.9 L 135.5,106.6 L 135.8,105.7 L 137.8,103.6 L 138.8,102.8 L 139.1,102.3 L 139.0,100.2 L 139.8,99.4 L 141.7,98.9 L 142.1,98.3 L 143.7,96.6 L 143.8,96.1 L 143.5,95.3 L 143.5,93.9 L 143.8,92.3 L 144.2,91.6 L 144.2,91.0 L 143.4,90.1 L 143.4,90.0 L 250.2,46.5 L 250.3,46.4 L 250.4,46.8 L 251.8,48.6 L 252.9,50.5 L 254.1,53.6 L 254.9,55.5 L 255.8,56.2 L 257.2,56.7 L 257.8,57.1 L 258.2,57.4 L 259.7,57.8 L 260.8,58.5 L 262.3,60.5 L 263.0,60.9 L 263.4,60.9 L 264.8,60.4 L 265.1,60.0 L 265.3,59.1 L 264.7,57.4 L 264.7,56.4 L 265.2,54.0 L 264.7,51.4 L 264.2,49.0 L 264.0,48.4 L 263.8,46.9 L 264.1,45.1 L 263.6,43.5 L 263.4,42.0 L 264.1,41.2 L 265.5,40.3 L 267.1,40.0 L 268.0,40.1 L 268.5,40.6 L 269.1,40.8 L 270.1,41.7 L 271.5,42.2 L 271.8,43.8 L 272.3,44.9 L 273.6,45.9 L 273.0,47.0 L 272.9,48.0 L 272.3,49.0 L 271.6,50.7 L 271.1,52.1 L 271.1,53.7 L 272.2,56.1 L 272.1,57.1 L 270.9,58.2 L 270.5,59.2 L 270.7,61.0 L 271.1,61.8 L 272.1,62.5 L 272.9,62.8 L 275.3,62.4 L 277.6,62.1 L 279.1,62.4 L 280.7,62.9 L 282.9,64.4 L 284.0,65.6 L 284.9,67.2 L 285.4,68.3 L 285.8,70.2 L 285.9,70.7 L 286.8,74.7 L 287.2,75.9 L 287.8,78.7 L 288.5,80.8 L 291.3,87.7 L 292.8,90.6 L 293.0,92.6 L 292.9,93.6 L 292.9,94.1 L 292.0,97.0 L 292.0,97.5 L 291.7,98.7 L 291.3,102.1 L 291.6,103.4 L 292.7,107.8 L 293.4,109.4 L 293.6,110.6 L 293.7,111.1 L 293.1,114.8 L 293.2,117.6 L 293.1,119.0 L 292.5,120.3 L 291.6,122.2 L 291.0,123.8 L 290.5,126.3 L 290.0,129.3 L 287.9,133.7 L 286.5,136.2 L 283.7,139.2 L 282.9,140.4 L 282.7,141.3 L 282.4,142.4 L 282.3,142.4 L 281.2,142.8 L 279.8,143.5 L 277.9,145.2 L 275.8,146.4 L 274.1,146.8 L 273.2,146.2 L 272.1,144.5 L 271.3,143.5 L 270.2,142.8 L 268.7,142.4 L 267.3,142.5 L 264.1,144.9 L 262.2,145.7 L 257.8,146.2 L 257.7,146.2 L 254.8,146.8 L 253.8,147.4 L 253.2,148.1 L 252.5,149.9 L 251.7,151.2 L 249.1,153.7 L 247.3,156.6 L 246.7,157.4 L 246.7,157.5 L 246.4,157.7 L 245.5,159.2 L 245.0,160.4 L 243.0,163.1 L 241.7,164.4 L 240.4,165.2 L 239.0,165.8 L 238.1,166.7 L 237.0,168.2 L 235.4,169.9 L 233.2,171.1 L 229.6,173.7 L 226.8,174.7 L 224.4,176.4 L 221.8,178.8 L 220.1,181.1 L 219.1,183.1 L 218.1,184.7 L 216.3,188.3 L 215.6,190.6 L 215.6,192.5 L 215.5,194.2 L 215.5,195.0 L 215.7,196.7 L 215.5,198.5 L 215.8,199.7 L 216.0,200.6 L 215.6,201.4 L 214.2,203.2 L 214.3,204.2 L 214.7,204.8 L 215.1,205.2 L 216.6,206.8 L 217.6,208.5 L 219.2,209.6 L 219.9,210.6 L 219.3,213.8 L 219.5,214.6 L 220.6,215.7 L 221.0,216.9 L 221.0,218.4 L 221.0,221.4 L 221.4,222.7 L 222.0,223.8 L 225.3,226.6 L 226.8,227.6 L 229.9,228.9 L 231.1,229.6 L 231.2,229.9 L 233.7,232.9 L 236.3,234.0 L 237.1,235.1 L 237.8,236.6 L 238.5,237.2 L 240.3,238.2 L 241.2,239.3 L 242.5,240.1 L 242.8,240.2 L 243.5,241.2 L 244.1,242.4 L 244.8,243.9 L 246.1,245.1 L 247.4,246.9 L 248.1,247.2 L 249.8,247.3 L 250.8,247.5 L 251.2,247.9 L 251.7,249.1 L 252.3,249.7 L 253.0,249.9 L 253.8,249.8 L 254.5,249.4 L 255.0,249.3 L 255.8,249.0 L 255.8,249.0 L 256.0,249.1 L 257.2,249.2 L 257.8,250.0 L 262.0,254.7 L 262.8,256.4 L 263.7,256.7 L 264.9,256.6 L 265.8,256.9 L 266.4,257.6 L 266.5,258.3 L 266.0,260.2 L 265.9,261.4 L 266.2,261.8 L 267.3,261.8 L 268.8,262.0 L 271.7,263.3 L 272.2,263.8 L 273.0,265.4 L 274.1,266.2 L 276.9,269.5 L 280.4,271.9 L 283.7,275.4 L 284.7,276.3 L 285.9,277.1 L 290.2,279.0 L 292.9,280.6 L 295.4,281.4 L 299.3,284.4 L 299.6,284.9 L 299.0,285.5 L 298.3,285.7 L 297.1,285.0 L 296.4,285.1 L 295.6,285.9 L 294.1,289.0 L 291.4,292.0 L 287.8,295.7 L 286.0,296.7 L 285.1,296.8 L 283.8,296.6 L 281.7,296.5 L 279.7,296.2 L 276.3,294.6 L 273.4,292.5 L 272.1,292.3 L 271.7,291.7 L 270.5,287.9 L 270.1,286.2 L 268.7,283.6 L 268.3,282.7 L 268.1,281.2 L 267.8,280.3 L 267.4,280.1 L 265.2,281.4 L 263.8,282.3 L 262.8,283.2 L 261.5,283.9 L 259.3,284.3 L 259.3,284.3 L 258.8,284.6 L 257.8,285.2 L 256.4,286.2 L 253.5,288.0 L 250.7,290.2 L 249.7,291.3 L 249.7,292.2 L 250.0,292.5 L 250.9,293.0 L 254.4,293.6 L 255.4,294.3 L 256.9,295.1 L 257.8,295.7 L 258.0,295.9 L 259.1,297.2 L 260.1,298.1 L 260.7,298.7 L 260.7,298.7 L 261.1,299.2 L 262.3,301.8 L 263.4,304.5 L 263.6,307.1 L 263.6,309.4 L 263.5,310.6 L 263.0,312.5 L 263.0,313.6 L 262.7,315.1 L 262.4,315.3 L 262.3,315.3 L 261.7,316.4 L 261.3,317.1 L 260.4,317.9 L 259.5,318.6 L 259.1,319.1 L 258.7,320.1 L 258.6,320.8 L 258.9,323.6 L 259.5,326.4 L 260.8,331.5 L 260.4,332.4 L 260.6,334.0 L 261.1,335.6 L 261.7,337.7 L 263.0,341.5 L 263.6,342.8 L 263.7,343.2 L 260.4,344.6 L 258.6,345.4 L 257.8,345.1 L 257.5,345.0 L 256.2,343.9 L 255.6,342.7 L 255.0,341.1 L 254.8,339.8 L 254.2,336.3 L 253.8,334.8 L 252.6,333.5 L 248.6,328.0 L 246.8,325.2 L 245.2,323.0 L 244.2,321.9 L 243.6,322.0 L 242.9,322.9 L 242.6,324.4 L 242.5,326.2 L 242.5,327.3 L 242.7,329.2 L 242.8,331.3 L 242.9,333.4 L 242.9,334.6 L 242.4,336.6 L 241.4,338.8 L 239.8,341.2 L 239.7,341.7 L 240.4,343.1 L 240.4,343.2 L 240.3,343.6 L 238.8,343.9 L 238.0,344.3 L 236.4,346.2 L 235.3,347.4 L 232.4,349.7 L 230.0,351.9 L 227.0,354.4 L 226.1,355.3 L 225.7,356.1 L 225.5,357.2 L 225.2,357.6 L 224.6,357.9 L 221.9,358.2 L 221.0,358.5 L 219.3,359.3 L 218.8,360.0 L 215.0,359.2 L 212.4,358.2 L 210.2,357.8 L 209.8,357.4 L 209.4,356.4 L 208.0,355.1 L 207.0,354.1 L 206.3,353.6 L 203.6,352.4 L 201.3,350.6 L 199.7,348.9 L 198.6,346.9 L 197.2,343.5 L 196.6,341.9 L 196.3,340.4 L 195.8,337.5 L 195.6,334.7 L 195.7,334.0 L 195.9,333.8 L 196.4,333.1 L 198.4,330.9 L 198.5,330.3 L 198.4,329.6 L 197.5,328.7 L 196.3,326.5 L 195.9,326.5 L 194.9,324.4 L 194.6,323.2 L 194.3,319.0 L 193.7,317.5 L 192.9,316.4 L 190.9,313.8 L 189.5,312.3 L 188.7,311.3 L 188.0,310.9 L 186.6,310.8 L 185.9,310.3 L 185.3,309.2 L 184.7,306.4 L 183.6,305.0 L 182.4,304.4 L 180.3,303.7 L 179.0,303.0 L 177.1,301.5 L 176.4,300.6 L 175.8,300.2 L 174.1,299.9 L 172.7,300.4 L 172.7,299.9 L 174.1,298.3 L 175.5,297.6 L 176.2,297.7 L 177.0,298.1 L 178.1,298.1 L 179.0,297.4 L 179.7,297.0 L 180.3,296.5 L 180.2,295.8 L 179.5,295.1 L 178.7,294.8 L 177.4,294.8 L 175.7,295.3 L 171.1,295.8 L 169.1,290.5 L 166.9,290.5 L 164.3,291.1 L 164.5,293.1 L 163.6,293.3 L 163.6,294.1 L 164.5,293.9 L 164.9,296.8 L 164.4,296.9 L 163.0,297.4 L 161.1,297.6 L 159.8,297.5 L 159.5,297.4 L 157.7,297.5 L 156.6,297.1 L 155.9,296.4 L 155.6,295.3 L 154.9,294.4 L 154.5,294.1 L 154.1,292.0 L 153.1,289.3 L 152.3,287.9 L 151.1,286.8 L 149.8,285.7 L 148.5,283.9 L 147.8,283.2 L 146.5,281.5 L 146.2,279.1 L 143.1,275.0 L 142.1,274.0 L 140.1,272.6 L 139.3,271.9" fill="none" stroke="black" stroke-width="2"/>
</svg>