<?xml version="1.0" encoding="UTF-8"?>
<svg width="400" height="400" viewBox="0 0 400 400" xmlns="http://www.w3.org/2000/svg">
  <rect width="400" height="400" fill="white"/>
  <path d="M 55.4,204.4 L 55.3,204.3 L 55.1,204.1 L 55.0,203.9 L 54.7,203.3 L 54.6,202.7 L 54.5,202.1 L 54.5,201.5 L 54.4,200.9 L 54.6,200.6 L 55.0,200.0 L 55.0,199.6 L 54.9,199.0 L 54.8,198.5 L 54.4,198.0 L 54.0,197.5 L 53.9,197.3 L 53.8,197.2 L 53.5,196.7 L 53.2,196.5 L 53.0,196.3 L 52.4,196.0 L 51.9,195.6 L 51.6,195.5 L 51.4,195.5 L 51.1,195.6 L 50.8,195.6 L 50.6,195.4 L 50.4,195.2 L 50.0,194.7 L 49.5,194.3 L 49.0,194.1 L 48.4,193.7 L 47.8,193.5 L 47.6,193.3 L 47.5,193.1 L 47.0,192.6 L 46.6,192.3 L 46.0,192.0 L 45.4,191.8 L 45.1,191.7 L 44.7,191.3 L 44.3,190.8 L 43.9,190.3 L 43.6,190.2 L 43.3,190.2 L 42.7,190.0 L 42.2,189.6 L 41.6,189.4 L 41.1,189.1 L 40.8,189.1 L 40.7,189.1 L 40.3,189.1 L 40.0,189.0 L 40.3,188.7 L 73.0,150.2 L 73.0,150.3 L 73.2,150.6 L 73.3,151.0 L 73.5,151.4 L 73.8,151.7 L 73.9,152.1 L 74.1,152.4 L 74.4,152.9 L 74.5,153.2 L 74.8,154.7 L 75.0,155.6 L 75.4,156.7 L 77.4,160.9 L 78.0,161.8 L 78.7,162.4 L 78.9,162.5 L 79.7,163.0 L 81.5,163.3 L 82.3,163.8 L 82.3,163.8 L 82.5,164.1 L 82.8,164.7 L 83.0,165.0 L 83.2,165.3 L 83.4,165.6 L 83.5,166.0 L 83.7,166.3 L 83.9,166.6 L 84.2,166.9 L 84.5,167.1 L 84.8,167.3 L 85.2,167.5 L 85.6,167.7 L 86.0,167.8 L 86.4,167.9 L 86.8,167.9 L 87.2,168.0 L 87.6,168.0 L 87.9,168.0 L 88.4,168.1 L 88.7,168.1 L 89.2,168.2 L 89.6,168.3 L 90.0,168.3 L 90.3,168.4 L 90.7,168.6 L 91.1,168.6 L 91.2,168.7 L 91.6,168.8 L 91.9,169.0 L 92.4,169.1 L 92.7,169.2 L 93.1,169.3 L 93.5,169.4 L 93.8,169.6 L 94.2,169.7 L 94.6,169.9 L 94.9,170.1 L 95.3,170.1 L 95.6,170.2 L 96.0,170.3 L 96.4,170.3 L 96.7,170.4 L 97.1,170.5 L 97.5,170.6 L 97.8,170.7 L 98.2,170.9 L 98.8,171.2 L 98.9,171.3 L 99.0,171.6 L 99.0,172.1 L 99.1,172.3 L 99.3,172.5 L 99.8,172.7 L 100.1,172.9 L 100.1,173.6 L 100.3,173.8 L 100.6,174.0 L 101.1,174.2 L 101.4,174.1 L 101.5,173.9 L 101.5,173.6 L 101.6,173.4 L 101.8,173.4 L 102.0,173.2 L 102.2,173.0 L 102.4,172.9 L 102.9,173.0 L 103.1,173.0 L 103.2,172.7 L 103.2,172.3 L 103.2,171.7 L 103.4,171.2 L 103.8,170.7 L 104.0,170.5 L 104.1,170.5 L 104.4,170.6 L 104.4,170.6 L 104.5,170.7 L 104.9,171.2 L 105.2,171.9 L 105.4,172.4 L 105.4,172.4 L 105.4,172.8 L 105.3,173.3 L 104.9,173.9 L 104.6,174.3 L 104.4,174.7 L 104.3,175.0 L 104.1,175.3 L 104.0,175.6 L 103.9,176.0 L 103.9,176.6 L 103.9,177.0 L 103.8,177.6 L 103.5,178.3 L 103.4,178.5 L 103.0,178.8 L 102.8,178.8 L 102.3,178.8 L 102.1,178.8 L 101.9,178.9 L 101.8,179.2 L 101.9,179.4 L 102.3,179.8 L 102.8,180.2 L 103.4,180.5 L 103.8,180.5 L 104.4,180.5 L 105.0,180.4 L 105.5,180.3 L 106.1,180.1 L 106.8,180.0 L 107.1,180.1 L 107.5,180.2 L 107.9,180.3 L 108.2,180.4 L 108.6,180.5 L 109.0,180.6 L 109.3,180.7 L 109.7,180.8 L 110.3,180.9 L 110.8,180.9 L 111.5,180.9 L 112.1,180.7 L 112.7,180.5 L 113.1,180.4 L 113.6,180.5 L 113.9,180.6 L 114.1,180.7 L 114.4,181.1 L 114.5,181.2 L 114.5,181.2 L 114.6,181.5 L 114.5,181.7 L 114.2,182.0 L 114.5,182.3 L 115.1,182.8 L 115.2,182.6 L 115.3,182.8 L 115.3,183.4 L 115.4,183.5 L 115.9,183.2 L 116.3,183.2 L 116.5,183.2 L 117.1,183.4 L 117.7,183.6 L 118.1,183.8 L 118.4,183.9 L 118.7,184.0 L 119.1,184.1 L 119.5,184.2 L 119.8,184.3 L 120.2,184.3 L 120.4,184.4 L 120.8,184.5 L 121.4,184.7 L 121.9,185.0 L 122.5,185.3 L 122.9,185.4 L 123.3,185.5 L 123.6,185.4 L 123.9,185.3 L 124.6,185.1 L 124.9,185.1 L 125.3,185.0 L 125.6,185.0 L 126.0,185.0 L 126.7,185.0 L 127.1,185.1 L 127.4,185.1 L 127.7,185.2 L 128.1,185.3 L 128.5,185.3 L 128.8,185.4 L 129.2,185.5 L 129.5,185.5 L 129.9,185.6 L 130.6,185.4 L 131.2,185.4 L 131.5,185.5 L 131.8,185.7 L 132.2,185.9 L 132.8,186.1 L 133.5,186.3 L 134.1,186.1 L 134.7,185.9 L 135.1,185.8 L 135.7,185.8 L 136.1,185.8 L 136.4,185.9 L 136.7,186.0 L 137.1,186.1 L 137.4,186.2 L 137.8,186.3 L 138.1,186.4 L 138.5,186.4 L 138.8,186.4 L 139.2,186.4 L 139.5,186.4 L 139.9,186.4 L 140.3,186.4 L 140.9,186.4 L 141.3,186.4 L 142.0,186.4 L 142.6,186.4 L 143.0,186.4 L 143.6,186.3 L 143.7,186.3 L 144.0,186.2 L 144.6,186.3 L 145.3,186.4 L 145.9,186.6 L 146.6,186.8 L 146.9,186.9 L 147.3,186.9 L 147.9,187.1 L 148.5,187.5 L 148.8,187.6 L 149.0,187.6 L 149.4,188.0 L 149.9,188.3 L 150.3,188.5 L 150.7,188.7 L 151.0,188.8 L 151.4,189.0 L 151.7,189.0 L 152.1,189.1 L 152.5,189.1 L 152.9,189.2 L 153.3,189.2 L 153.7,189.3 L 154.0,189.3 L 154.4,189.3 L 154.6,189.3 L 154.8,189.3 L 155.2,189.3 L 155.6,189.4 L 156.0,189.4 L 156.4,189.4 L 156.8,189.4 L 157.2,189.5 L 157.6,189.5 L 158.0,189.5 L 158.3,189.6 L 158.7,189.7 L 159.1,189.7 L 159.5,189.8 L 159.8,190.0 L 160.2,190.1 L 160.5,190.2 L 160.8,190.3 L 161.2,190.5 L 161.6,190.6 L 161.9,190.7 L 162.3,190.8 L 162.5,190.9 L 162.7,190.9 L 163.0,191.1 L 163.4,191.2 L 163.8,191.3 L 164.2,191.4 L 164.5,191.5 L 164.9,191.6 L 165.2,191.8 L 165.6,191.9 L 166.0,192.0 L 166.4,192.1 L 166.8,192.2 L 167.3,192.3 L 167.8,192.5 L 168.4,192.6 L 168.7,192.7 L 169.1,192.9 L 169.4,193.0 L 169.8,193.1 L 170.2,193.3 L 170.5,193.4 L 170.9,193.6 L 171.3,193.8 L 171.6,194.0 L 172.0,194.2 L 172.3,194.3 L 172.7,194.5 L 173.0,194.6 L 173.4,194.7 L 173.7,194.8 L 174.3,195.0 L 174.7,195.1 L 175.0,195.2 L 175.1,195.2 L 175.1,195.2 L 175.2,195.2 L 175.8,195.2 L 176.4,195.3 L 177.0,195.4 L 177.6,195.6 L 177.9,195.8 L 178.1,196.2 L 178.3,196.3 L 178.4,196.6 L 178.7,196.9 L 178.9,197.2 L 179.2,197.4 L 179.4,197.7 L 179.6,198.0 L 179.9,198.3 L 180.1,198.5 L 180.3,198.8 L 180.6,199.1 L 181.1,199.5 L 181.3,199.7 L 181.5,200.0 L 181.9,200.6 L 182.1,200.9 L 182.5,201.4 L 182.5,201.6 L 182.7,201.8 L 182.7,201.8 L 182.9,202.0 L 183.1,202.3 L 183.3,202.6 L 183.5,202.9 L 184.0,203.4 L 184.5,203.7 L 185.0,204.0 L 185.4,204.2 L 185.9,204.5 L 186.3,204.8 L 186.4,204.9 L 186.3,205.3 L 186.4,205.4 L 186.5,205.5 L 186.7,206.0 L 186.8,206.5 L 186.9,207.0 L 187.1,207.6 L 187.3,207.8 L 187.8,208.2 L 188.2,208.4 L 188.7,208.7 L 189.2,208.9 L 189.6,209.1 L 189.7,209.3 L 189.9,209.5 L 190.2,209.8 L 190.6,210.1 L 191.2,210.3 L 191.4,210.2 L 191.8,209.8 L 192.2,209.5 L 192.3,209.5 L 192.9,209.4 L 193.4,209.4 L 193.9,209.4 L 194.4,209.4 L 195.0,209.7 L 195.6,209.9 L 196.2,210.2 L 196.7,210.4 L 197.3,210.5 L 197.8,210.8 L 198.0,211.0 L 198.4,211.5 L 198.5,211.9 L 198.5,212.4 L 198.5,212.4 L 198.5,213.0 L 198.5,213.6 L 198.3,214.1 L 198.1,214.7 L 197.9,215.3 L 197.9,215.9 L 198.0,216.4 L 198.0,216.7 L 198.1,216.9 L 198.6,217.4 L 199.1,217.8 L 199.8,218.0 L 200.3,218.4 L 200.5,218.7 L 200.8,218.9 L 201.3,219.3 L 201.6,219.3 L 202.2,219.3 L 202.8,219.2 L 203.3,219.4 L 203.9,219.8 L 204.1,220.1 L 204.4,220.3 L 204.7,220.5 L 205.0,220.7 L 205.3,220.8 L 205.6,221.0 L 205.9,221.1 L 206.3,221.2 L 206.6,221.3 L 207.0,221.4 L 207.3,221.5 L 207.6,221.6 L 207.9,221.8 L 208.3,221.9 L 208.9,222.2 L 209.4,222.4 L 209.9,222.6 L 210.3,222.8 L 210.7,223.0 L 211.0,223.2 L 211.6,223.3 L 212.2,223.4 L 212.9,223.6 L 213.2,223.8 L 213.5,223.9 L 213.9,224.0 L 214.5,224.2 L 215.1,224.3 L 215.7,224.4 L 216.3,224.4 L 217.0,224.5 L 217.5,224.8 L 217.6,224.8 L 218.1,225.1 L 218.6,225.4 L 219.1,225.6 L 219.5,225.4 L 219.9,225.4 L 220.2,225.6 L 220.5,226.0 L 221.0,226.3 L 221.7,226.5 L 222.2,226.8 L 222.8,227.1 L 223.4,227.3 L 223.8,227.4 L 224.1,227.5 L 224.4,227.7 L 224.8,227.8 L 225.1,227.9 L 225.4,228.1 L 225.7,228.3 L 226.4,228.4 L 227.0,228.4 L 227.4,228.5 L 227.7,228.5 L 228.0,228.6 L 228.4,228.7 L 228.7,228.9 L 229.1,229.0 L 229.4,229.1 L 230.1,229.2 L 230.4,229.2 L 230.9,229.0 L 231.6,229.0 L 232.2,229.1 L 232.4,229.3 L 232.8,229.7 L 233.1,229.9 L 233.2,229.9 L 233.4,229.9 L 234.0,229.8 L 234.3,229.7 L 234.7,229.7 L 235.0,229.6 L 235.3,229.6 L 235.7,229.6 L 236.0,229.7 L 236.4,229.7 L 237.0,229.9 L 237.3,230.0 L 237.6,230.4 L 238.0,230.6 L 238.1,230.7 L 238.7,230.9 L 239.1,231.0 L 239.7,231.0 L 240.3,231.0 L 240.7,231.0 L 240.9,231.0 L 241.5,231.1 L 242.0,231.1 L 242.6,231.1 L 243.1,231.1 L 243.7,231.0 L 244.2,231.0 L 244.8,231.1 L 245.1,231.1 L 245.5,231.5 L 245.7,231.6 L 246.0,231.6 L 246.4,231.4 L 246.6,231.4 L 246.8,231.5 L 247.1,231.5 L 247.6,231.4 L 248.1,231.4 L 248.4,231.5 L 248.8,231.9 L 249.1,232.3 L 249.3,232.4 L 249.6,232.4 L 250.1,232.2 L 250.6,232.0 L 250.9,231.9 L 251.0,231.8 L 251.6,231.8 L 252.1,231.7 L 252.3,231.7 L 252.6,231.6 L 253.0,231.6 L 253.6,231.5 L 254.1,231.4 L 254.4,231.3 L 254.8,231.4 L 255.0,231.4 L 255.6,231.6 L 256.1,231.9 L 256.6,232.2 L 257.1,232.5 L 257.6,232.8 L 258.1,233.2 L 258.7,233.4 L 259.1,233.5 L 259.7,233.6 L 260.4,233.7 L 261.0,233.9 L 261.4,233.9 L 261.7,234.0 L 262.4,234.1 L 262.7,234.1 L 263.1,234.1 L 263.4,234.1 L 263.8,234.1 L 264.4,234.1 L 264.8,234.1 L 265.1,234.1 L 265.5,234.1 L 265.8,234.2 L 266.5,234.2 L 267.1,234.3 L 267.3,234.2 L 267.4,234.3 L 267.7,234.2 L 268.1,234.2 L 268.5,234.1 L 268.9,234.1 L 269.3,234.1 L 269.7,234.1 L 270.1,234.2 L 270.5,234.3 L 270.9,234.3 L 271.3,234.3 L 271.9,234.3 L 272.5,234.3 L 272.9,234.3 L 273.3,234.2 L 273.6,234.2 L 274.0,234.1 L 274.4,234.1 L 274.7,234.0 L 275.1,234.0 L 275.5,233.9 L 275.9,233.9 L 276.5,233.7 L 276.9,233.7 L 277.2,233.6 L 277.6,233.5 L 278.2,233.5 L 278.9,233.5 L 279.4,233.4 L 279.8,233.4 L 279.9,233.4 L 280.5,233.5 L 280.8,233.5 L 281.1,233.5 L 281.7,233.6 L 282.1,233.6 L 282.5,233.5 L 282.8,233.4 L 283.2,233.4 L 283.6,233.3 L 284.0,233.3 L 284.4,233.1 L 284.8,233.0 L 285.2,233.0 L 285.6,232.9 L 286.0,232.9 L 286.4,232.8 L 286.9,232.8 L 287.2,232.8 L 287.3,232.8 L 287.7,232.7 L 288.1,232.7 L 288.5,232.7 L 288.9,232.6 L 289.3,232.6 L 289.8,232.5 L 290.2,232.5 L 290.6,232.4 L 291.1,232.4 L 291.5,232.3 L 291.9,232.2 L 292.3,232.1 L 292.7,232.1 L 293.1,232.0 L 293.5,231.9 L 293.9,231.8 L 294.3,231.8 L 294.7,231.7 L 295.1,231.6 L 295.5,231.5 L 295.9,231.4 L 296.2,231.4 L 296.6,231.3 L 297.0,231.2 L 297.4,231.1 L 297.8,231.0 L 298.1,231.0 L 298.5,230.9 L 298.9,230.8 L 299.3,230.7 L 299.7,230.7 L 300.0,230.6 L 300.4,230.5 L 300.7,230.5 L 301.4,230.3 L 301.7,230.2 L 302.0,230.1 L 302.6,229.9 L 303.2,229.7 L 303.5,229.6 L 303.9,229.5 L 304.3,229.4 L 304.6,229.3 L 305.0,229.3 L 305.4,229.2 L 305.4,229.2 L 305.8,229.1 L 306.1,229.0 L 306.5,228.9 L 306.9,228.8 L 307.3,228.8 L 307.6,228.7 L 307.7,228.7 L 308.1,228.6 L 308.5,228.5 L 308.9,228.4 L 309.3,228.3 L 309.7,228.2 L 310.1,228.1 L 310.4,227.9 L 310.8,227.8 L 311.2,227.7 L 311.6,227.6 L 312.0,227.5 L 312.3,227.4 L 312.7,227.3 L 313.1,227.3 L 313.4,227.2 L 313.8,227.2 L 314.1,227.2 L 314.5,227.1 L 314.7,227.1 L 314.8,227.0 L 314.9,227.0 L 315.2,226.9 L 315.5,226.8 L 316.0,226.5 L 316.2,226.5 L 316.6,226.4 L 317.1,226.3 L 317.3,226.3 L 317.7,226.2 L 317.8,226.2 L 318.1,226.8 L 318.2,227.0 L 318.7,227.3 L 318.8,227.7 L 319.0,227.9 L 319.1,227.9 L 319.3,228.0 L 319.5,227.8 L 319.9,227.3 L 320.2,226.7 L 320.5,226.2 L 320.8,225.7 L 321.2,225.4 L 321.3,225.5 L 321.3,225.7 L 321.1,226.2 L 321.3,226.2 L 321.5,226.0 L 321.7,225.4 L 322.0,225.0 L 322.1,224.9 L 322.5,224.5 L 322.7,224.2 L 322.9,224.7 L 323.0,224.7 L 323.1,224.5 L 323.2,224.1 L 323.2,223.9 L 323.5,223.3 L 323.7,223.1 L 323.8,223.0 L 324.2,222.8 L 324.8,222.6 L 325.3,222.7 L 325.4,222.6 L 326.0,222.7 L 326.7,222.8 L 327.0,222.9 L 327.4,223.0 L 327.7,223.1 L 327.8,223.2 L 328.1,223.2 L 328.4,223.4 L 328.8,223.5 L 329.1,223.6 L 329.6,223.8 L 330.2,223.9 L 330.7,224.0 L 331.3,224.1 L 331.8,224.3 L 332.0,224.4 L 332.4,224.6 L 333.0,224.7 L 333.6,224.7 L 334.0,224.7 L 334.3,224.8 L 334.7,224.8 L 335.1,224.9 L 335.4,225.0 L 335.7,225.1 L 336.1,225.2 L 336.4,225.4 L 336.8,225.5 L 337.1,225.7 L 337.4,225.9 L 337.8,226.0 L 338.1,226.1 L 338.4,226.3 L 338.8,226.4 L 339.1,226.5 L 339.3,226.6 L 339.8,226.8 L 340.3,226.9 L 340.9,226.9 L 341.4,226.8 L 342.0,226.7 L 342.6,226.7 L 343.2,226.8 L 343.6,226.9 L 343.8,226.9 L 343.8,226.9 L 344.3,227.0 L 344.9,227.1 L 345.5,227.4 L 346.0,227.8 L 346.5,228.2 L 346.6,228.3 L 346.8,228.5 L 347.3,228.7 L 347.9,228.8 L 348.4,228.9 L 348.9,228.9 L 348.9,229.0 L 349.4,229.1 L 350.0,229.1 L 350.5,229.1 L 351.2,229.1 L 351.6,229.1 L 351.7,229.1 L 352.3,229.2 L 352.9,229.1 L 353.4,229.2 L 353.9,229.2 L 354.1,229.2 L 354.4,229.5 L 354.9,229.6 L 355.0,229.7 L 355.3,229.8 L 355.7,230.1 L 355.8,230.2 L 356.1,230.5 L 356.4,231.0 L 356.5,231.1 L 356.7,231.4 L 356.8,231.8 L 356.8,231.9 L 356.9,232.4 L 356.8,232.9 L 356.8,233.4 L 357.0,233.9 L 357.3,234.3 L 357.7,234.7 L 358.3,235.1 L 358.7,235.5 L 359.0,235.8 L 359.2,235.9 L 359.3,236.0 L 359.8,236.0 L 359.9,236.1 L 360.0,236.2 L 360.0,236.3 L 360.0,236.3 L 359.9,236.5 L 359.7,236.8 L 359.4,237.3 L 359.3,238.0 L 359.2,238.1 L 358.7,238.1 L 358.2,237.9 L 357.7,237.8 L 357.2,237.5 L 356.8,237.3 L 356.3,237.1 L 355.8,236.8 L 355.4,236.5 L 355.2,236.5 L 354.8,236.2 L 354.5,236.1 L 353.9,236.1 L 353.3,236.1 L 352.6,236.1 L 352.0,236.3 L 351.4,236.3 L 351.3,236.3 L 351.2,236.3 L 351.2,236.3 L 351.0,236.3 L 350.4,236.1 L 350.0,236.0 L 349.3,235.8 L 349.0,235.7 L 348.6,235.5 L 348.3,235.4 L 347.9,235.3 L 347.6,235.2 L 347.2,235.2 L 346.8,235.0 L 346.6,235.0 L 346.3,234.9 L 345.8,234.7 L 345.4,234.6 L 345.1,234.5 L 344.8,234.4 L 344.4,234.3 L 344.0,234.2 L 343.7,234.1 L 343.2,234.1 L 342.9,234.0 L 342.5,233.9 L 342.1,233.8 L 341.7,233.8 L 341.3,233.8 L 340.9,233.7 L 340.5,233.7 L 340.2,233.6 L 339.7,233.6 L 339.4,233.5 L 339.0,233.4 L 338.6,233.4 L 338.3,233.3 L 337.9,233.1 L 337.5,233.0 L 337.2,232.9 L 336.8,232.8 L 336.3,232.5 L 335.6,232.4 L 335.0,232.4 L 334.3,232.4 L 334.0,232.5 L 333.6,232.6 L 333.3,232.6 L 332.9,232.7 L 332.6,232.9 L 332.2,233.0 L 331.9,233.1 L 331.5,233.3 L 331.5,233.3 L 331.2,233.5 L 330.8,233.6 L 330.5,233.8 L 330.2,234.0 L 330.1,234.0 L 329.8,234.2 L 329.5,234.4 L 329.1,234.4 L 328.7,234.5 L 328.4,234.6 L 328.0,234.7 L 327.7,234.8 L 327.3,234.8 L 327.0,234.9 L 326.6,235.1 L 326.4,235.1 L 326.1,235.3 L 325.8,235.5 L 325.4,235.7 L 325.1,235.9 L 324.5,236.1 L 324.2,236.2 L 323.9,236.3 L 323.5,236.4 L 323.2,236.4 L 322.8,236.5 L 322.5,236.7 L 322.2,236.8 L 321.9,237.0 L 321.3,237.3 L 321.0,237.4 L 320.6,237.4 L 319.9,237.4 L 319.6,237.4 L 319.2,237.4 L 319.1,237.5 L 318.6,237.5 L 318.0,237.5 L 317.8,237.5 L 317.3,237.4 L 316.7,237.4 L 316.1,237.5 L 315.5,237.7 L 315.1,237.8 L 314.6,237.9 L 314.1,238.1 L 313.5,238.4 L 312.9,238.7 L 312.6,238.8 L 312.3,238.9 L 311.9,239.0 L 311.5,239.0 L 311.2,239.1 L 311.1,239.1 L 310.8,239.2 L 310.5,239.2 L 310.5,239.2 L 310.1,239.3 L 309.8,239.2 L 309.4,239.2 L 309.1,239.2 L 308.4,239.1 L 308.1,239.1 L 307.7,239.0 L 307.4,239.0 L 307.0,239.1 L 306.7,239.1 L 306.3,239.2 L 306.0,239.4 L 305.7,239.6 L 305.4,239.9 L 305.1,240.1 L 304.8,240.4 L 304.5,240.6 L 304.3,240.9 L 304.0,241.2 L 303.7,241.4 L 303.4,241.5 L 303.0,241.7 L 302.7,241.9 L 302.3,242.0 L 302.0,242.2 L 301.7,242.3 L 301.3,242.3 L 301.0,242.4 L 300.6,242.5 L 300.3,242.6 L 299.9,242.7 L 299.5,242.8 L 299.2,242.8 L 298.8,242.9 L 298.4,243.0 L 298.1,243.1 L 297.5,243.4 L 297.0,243.6 L 296.9,243.6 L 296.4,243.8 L 295.7,243.8 L 295.2,244.0 L 295.0,244.0 L 294.6,243.8 L 294.4,243.7 L 293.9,243.8 L 293.8,243.8 L 293.5,243.9 L 293.0,244.0 L 292.4,244.0 L 292.1,244.0 L 291.7,244.1 L 291.6,244.1 L 291.3,244.1 L 290.9,244.2 L 290.5,244.2 L 290.2,244.3 L 289.8,244.3 L 289.4,244.4 L 289.0,244.4 L 288.6,244.5 L 288.3,244.5 L 287.9,244.5 L 287.5,244.4 L 287.2,244.3 L 286.9,244.1 L 286.5,244.0 L 286.2,243.8 L 285.9,243.7 L 285.6,243.6 L 285.2,243.6 L 284.9,243.7 L 284.3,244.0 L 283.8,244.4 L 283.6,244.5 L 283.0,244.6 L 282.3,244.8 L 281.6,244.9 L 281.3,244.9 L 280.7,245.1 L 280.4,245.2 L 280.2,245.3 L 279.9,245.5 L 279.3,245.6 L 278.7,245.6 L 278.4,245.6 L 278.0,245.6 L 277.6,245.6 L 277.3,245.6 L 276.9,245.5 L 276.5,245.5 L 276.2,245.4 L 275.8,245.4 L 275.5,245.4 L 275.1,245.3 L 274.7,245.3 L 274.3,245.3 L 274.0,245.3 L 273.6,245.3 L 273.2,245.3 L 272.9,245.3 L 272.5,245.2 L 272.1,245.2 L 271.8,245.2 L 271.4,245.2 L 271.0,245.2 L 270.6,245.3 L 270.0,245.4 L 269.3,245.4 L 268.6,245.3 L 268.0,245.2 L 267.4,245.0 L 267.0,244.8 L 267.0,244.7 L 266.9,244.7 L 266.8,244.6 L 266.6,244.5 L 266.5,244.3 L 266.3,244.2 L 265.8,244.0 L 265.2,243.9 L 264.6,243.9 L 264.3,243.9 L 264.2,243.9 L 263.8,244.0 L 263.4,244.0 L 263.0,244.1 L 262.6,244.2 L 262.2,244.3 L 261.8,244.3 L 261.3,244.4 L 260.9,244.5 L 260.4,244.7 L 259.9,244.8 L 259.5,244.8 L 259.1,244.9 L 258.6,244.9 L 258.2,245.0 L 257.9,245.2 L 257.7,245.5 L 257.4,245.8 L 257.1,245.9 L 256.7,246.1 L 256.4,246.2 L 256.0,246.3 L 255.6,246.3 L 255.2,246.3 L 254.6,246.0 L 254.3,245.9 L 253.8,245.9 L 253.7,246.0 L 253.7,246.0 L 253.0,246.3 L 252.2,246.7 L 250.5,247.6 L 246.2,248.1 L 244.3,248.0 L 243.2,247.8 L 242.1,247.9 L 241.0,248.2 L 239.6,248.4 L 239.0,248.6 L 237.5,248.6 L 235.4,248.9 L 234.2,248.7 L 231.2,248.8 L 228.5,248.2 L 227.9,248.2 L 226.7,248.5 L 224.0,249.1 L 221.4,249.4 L 220.3,249.6 L 219.3,249.8 L 219.2,249.8 L 217.2,249.6 L 214.8,248.8 L 212.4,248.5 L 211.7,248.4 L 206.9,248.0 L 205.9,247.6 L 205.8,247.5 L 205.8,247.5 L 204.6,246.9 L 203.4,246.1 L 202.1,245.0 L 200.7,243.8 L 200.4,243.7 L 197.8,242.4 L 196.3,242.0 L 194.7,241.8 L 193.6,241.8 L 192.3,241.7 L 191.3,241.4 L 190.2,240.9 L 188.7,240.4 L 187.1,239.5 L 183.3,238.5 L 181.4,237.7 L 180.7,237.4 L 180.0,237.0 L 174.8,235.0 L 173.4,234.3 L 172.2,233.4 L 170.9,232.4 L 168.1,231.0 L 167.3,230.5 L 165.5,229.6 L 165.2,229.5 L 164.9,229.4 L 164.5,229.3 L 164.1,229.1 L 163.7,229.0 L 163.6,228.9 L 163.2,228.8 L 162.7,228.7 L 162.3,228.6 L 161.8,228.5 L 161.4,228.5 L 160.9,228.4 L 160.4,228.3 L 160.0,228.2 L 159.5,228.1 L 159.0,228.0 L 158.5,227.9 L 158.1,227.9 L 157.6,227.8 L 157.1,227.8 L 156.7,227.7 L 156.3,227.6 L 155.8,227.4 L 155.4,227.2 L 154.9,226.9 L 154.7,226.8 L 154.6,226.7 L 154.5,226.7 L 154.2,226.4 L 153.8,226.1 L 153.4,225.8 L 153.2,225.5 L 153.0,225.1 L 152.7,224.7 L 152.4,224.3 L 152.2,224.0 L 151.9,223.6 L 151.7,223.3 L 151.4,222.9 L 151.1,222.6 L 150.9,222.3 L 150.7,221.9 L 150.4,221.5 L 150.2,221.2 L 150.0,220.9 L 149.7,220.6 L 149.4,220.4 L 149.2,220.1 L 148.8,220.0 L 148.5,219.8 L 148.2,219.6 L 147.9,219.4 L 147.6,219.2 L 147.2,219.1 L 146.9,218.8 L 146.5,218.5 L 146.3,218.4 L 146.1,218.5 L 146.0,218.7 L 145.8,218.7 L 145.7,218.7 L 145.6,218.5 L 145.7,218.3 L 145.6,218.1 L 145.4,218.2 L 145.2,218.3 L 144.9,218.3 L 144.6,218.1 L 144.4,217.9 L 144.1,217.4 L 143.9,216.9 L 143.5,216.6 L 143.5,216.6 L 143.4,216.5 L 143.3,216.7 L 143.2,216.9 L 143.2,216.9 L 143.1,216.9 L 142.8,217.1 L 142.7,217.1 L 142.7,217.1 L 142.2,217.0 L 141.9,217.0 L 141.5,217.1 L 141.1,217.1 L 140.7,217.1 L 140.4,217.1 L 139.9,217.2 L 139.5,217.2 L 139.1,217.1 L 138.8,217.1 L 138.3,216.8 L 137.7,216.7 L 137.0,216.6 L 136.5,216.8 L 136.2,216.8 L 135.5,216.8 L 134.9,216.9 L 134.5,217.1 L 133.9,217.3 L 133.5,217.5 L 133.3,217.9 L 133.1,218.2 L 132.8,218.3 L 132.5,218.2 L 132.1,218.1 L 131.7,218.0 L 131.3,218.0 L 130.9,217.9 L 130.5,217.7 L 130.2,217.6 L 129.7,217.4 L 129.7,217.4 L 129.3,217.3 L 128.9,217.1 L 128.9,217.1 L 128.5,216.9 L 128.1,216.7 L 127.8,216.4 L 127.4,216.2 L 127.1,216.0 L 127.0,215.9 L 126.9,215.7 L 126.5,215.5 L 126.2,215.4 L 126.1,215.3 L 125.8,215.1 L 125.4,215.0 L 125.0,214.8 L 124.6,214.8 L 124.2,214.6 L 123.7,214.4 L 123.3,214.3 L 122.8,214.1 L 122.4,213.9 L 122.0,213.7 L 121.6,213.6 L 121.1,213.5 L 120.7,213.4 L 120.3,213.1 L 119.9,212.8 L 119.5,212.5 L 119.1,212.3 L 118.7,212.1 L 118.3,211.8 L 117.9,211.6 L 117.5,211.3 L 117.4,211.3 L 117.1,211.1 L 116.6,210.8 L 116.2,210.5 L 115.9,210.2 L 115.6,209.8 L 115.5,209.8 L 115.3,209.6 L 114.9,209.4 L 114.5,209.4 L 114.1,209.3 L 113.7,209.2 L 113.6,209.2 L 113.2,209.0 L 112.9,208.9 L 112.5,208.7 L 112.0,208.7 L 111.7,208.7 L 111.3,208.7 L 110.9,208.6 L 110.5,208.4 L 110.2,208.2 L 109.8,208.0 L 109.5,207.7 L 109.1,207.6 L 108.8,207.4 L 108.5,207.3 L 107.9,207.3 L 107.9,207.3 L 104.3,208.2 L 104.0,208.3 L 103.5,208.5 L 103.3,208.6 L 102.7,208.9 L 102.5,209.0 L 102.1,209.8 L 101.9,210.8 L 101.8,211.2 L 101.5,211.6 L 101.5,211.6 L 99.6,213.3 L 99.0,213.8 L 98.1,214.4 L 97.3,214.5 L 97.2,214.5 L 96.9,214.5 L 95.8,214.2 L 95.8,214.2 L 94.5,214.0 L 94.4,214.0 L 94.4,213.9 L 94.0,213.7 L 93.4,213.3 L 92.9,212.9 L 92.3,212.2 L 92.0,212.0 L 91.5,211.6 L 90.3,210.9 L 89.6,210.3 L 88.9,209.3 L 88.6,208.5 L 88.5,207.6 L 88.5,206.8 L 88.1,203.4 L 87.5,202.4 L 86.9,202.1 L 85.9,201.9 L 85.1,201.9 L 83.3,201.6 L 82.9,201.6 L 82.0,201.2 L 80.5,200.8 L 80.2,200.8 L 79.9,200.8 L 79.3,200.8 L 78.7,200.9 L 78.6,201.0 L 78.0,201.2 L 77.5,201.4 L 77.4,201.5 L 76.8,201.6 L 76.5,201.6 L 76.1,201.8 L 75.7,201.8 L 75.3,201.9 L 75.3,202.0 L 74.9,202.0 L 74.6,202.1 L 74.2,202.3 L 73.8,202.3 L 73.5,202.4 L 73.2,202.5 L 73.1,202.5 L 72.5,202.5 L 72.1,202.5 L 71.8,202.3 L 71.2,202.1 L 70.7,202.2 L 70.4,202.5 L 70.1,202.9 L 69.7,203.4 L 69.3,203.7 L 69.3,203.7 L 66.8,204.9 L 66.3,205.3 L 66.1,205.3 L 65.9,205.4 L 65.8,205.4 L 65.6,205.2 L 65.6,205.2 L 65.6,205.1 L 65.4,204.9 L 65.0,204.9 L 64.4,204.8 L 63.8,204.7 L 63.3,204.6 L 63.4,204.1 L 63.3,204.0 L 62.3,203.6 L 62.1,203.6 L 61.4,203.6 L 61.4,203.9 L 61.0,203.9 L 61.0,203.9 L 61.0,204.1 L 60.5,204.2 L 59.7,204.3 L 59.7,204.3 L 59.7,204.7 L 59.6,204.7 L 59.0,204.8 L 58.3,204.8 L 57.7,204.8 L 57.2,204.8 L 56.5,204.8 L 55.9,204.6 L 55.4,204.4" fill="none" stroke="black" stroke-width="2"/>
</svg>