<?xml version="1.0" encoding="UTF-8"?>
<svg width="400" height="400" viewBox="0 0 400 400" xmlns="http://www.w3.org/2000/svg">
  <rect width="400" height="400" fill="white"/>
  <path d="M 133.0,235.2 L 161.1,220.1 L 180.4,209.7 L 191.5,203.7 L 221.9,187.4 L 233.3,181.2 L 236.4,179.3 L 240.9,176.4 L 247.0,172.5 L 252.3,169.1 L 282.7,149.8 L 313.2,130.5 L 332.1,118.4 L 343.6,111.2 L 357.9,102.1 L 358.1,101.7 L 358.2,102.0 L 358.2,102.0 L 358.1,102.0 L 358.1,102.0 L 358.0,102.1 L 358.0,102.2 L 358.0,102.3 L 357.9,102.4 L 357.8,102.4 L 357.8,102.3 L 357.7,102.4 L 357.7,102.5 L 357.8,102.5 L 357.7,102.6 L 357.7,102.6 L 357.8,102.7 L 357.7,102.9 L 357.7,102.9 L 357.6,103.0 L 357.5,103.3 L 357.5,103.6 L 357.5,103.8 L 357.6,104.2 L 357.9,104.6 L 358.0,104.8 L 358.2,104.8 L 358.2,104.9 L 358.3,105.0 L 358.3,105.4 L 358.4,105.7 L 358.6,105.8 L 358.6,106.1 L 358.7,106.2 L 358.8,106.4 L 358.9,106.5 L 359.1,106.7 L 359.2,106.5 L 359.3,106.6 L 359.3,106.9 L 359.4,107.1 L 359.5,107.1 L 359.6,107.2 L 359.8,107.9 L 359.7,108.1 L 359.8,108.2 L 359.6,108.2 L 359.5,108.3 L 359.5,108.4 L 359.6,108.5 L 359.7,108.4 L 359.7,108.4 L 359.6,108.6 L 359.6,108.9 L 359.5,109.0 L 359.3,109.1 L 359.3,109.2 L 359.4,109.2 L 359.6,109.4 L 359.6,109.5 L 359.5,109.7 L 359.4,109.8 L 359.3,109.8 L 359.2,109.9 L 359.2,110.1 L 359.1,110.3 L 359.1,110.5 L 359.2,110.7 L 359.2,110.9 L 359.3,110.9 L 359.4,111.0 L 359.4,111.2 L 359.5,111.2 L 359.7,111.3 L 359.7,111.6 L 359.9,111.8 L 359.9,111.9 L 359.8,112.0 L 360.0,112.2 L 360.0,112.5 L 359.9,112.7 L 359.9,112.7 L 359.8,112.7 L 359.8,112.7 L 359.6,112.8 L 359.7,113.0 L 359.6,113.1 L 359.6,113.2 L 359.5,113.4 L 359.5,113.6 L 359.6,113.7 L 359.6,113.8 L 359.7,113.9 L 359.7,114.0 L 359.6,114.0 L 359.6,114.2 L 359.6,114.2 L 359.7,114.2 L 359.8,114.4 L 359.8,114.4 L 359.8,114.5 L 359.7,114.6 L 359.5,115.2 L 359.4,115.3 L 359.2,115.2 L 359.1,115.3 L 358.8,115.3 L 358.7,115.4 L 358.7,115.4 L 358.6,115.4 L 358.4,115.4 L 358.3,115.4 L 358.2,115.5 L 358.0,115.6 L 357.9,115.7 L 357.8,116.0 L 357.8,116.2 L 357.8,116.3 L 357.7,116.2 L 357.6,116.2 L 357.4,116.3 L 357.2,116.6 L 357.0,116.9 L 356.9,117.1 L 356.9,117.1 L 356.6,117.3 L 356.5,117.5 L 356.6,118.2 L 356.6,118.3 L 356.7,118.5 L 356.7,118.7 L 356.4,118.8 L 356.2,118.8 L 356.1,118.9 L 356.1,119.3 L 356.1,119.5 L 355.8,119.6 L 355.7,119.7 L 355.6,119.7 L 355.5,119.7 L 355.4,119.8 L 355.3,119.8 L 355.0,119.8 L 354.8,119.7 L 354.8,119.8 L 354.7,119.9 L 354.6,120.0 L 354.6,120.1 L 354.6,120.2 L 354.4,120.5 L 354.4,120.6 L 354.4,120.7 L 354.6,120.6 L 354.6,120.6 L 354.6,120.7 L 354.6,120.9 L 354.6,120.9 L 354.5,120.9 L 326.9,145.3 L 326.8,145.3 L 326.7,145.2 L 326.5,145.3 L 326.2,145.5 L 326.0,146.0 L 326.0,146.0 L 325.8,145.9 L 325.6,145.9 L 325.4,145.9 L 325.2,145.8 L 324.8,145.7 L 324.6,145.7 L 324.3,145.8 L 324.1,145.9 L 323.9,146.0 L 323.8,146.0 L 323.8,146.1 L 323.7,145.9 L 323.5,146.1 L 323.3,146.2 L 323.2,146.2 L 322.8,146.0 L 322.7,145.9 L 322.4,145.9 L 322.1,145.8 L 322.0,145.7 L 321.7,145.1 L 321.6,145.0 L 321.3,144.8 L 321.1,144.7 L 320.9,144.6 L 320.8,144.6 L 320.6,144.6 L 320.4,144.4 L 320.3,144.3 L 320.2,144.2 L 320.1,144.0 L 320.0,143.9 L 319.7,143.9 L 319.6,143.8 L 319.5,143.9 L 319.5,143.9 L 319.4,143.8 L 319.0,143.8 L 318.9,144.0 L 318.9,144.1 L 318.9,144.2 L 319.0,144.3 L 318.9,144.3 L 318.7,144.3 L 318.6,144.3 L 318.6,144.5 L 318.5,144.5 L 318.5,144.6 L 318.2,144.4 L 318.1,144.5 L 318.1,144.6 L 317.9,144.8 L 318.0,144.9 L 318.1,145.3 L 318.0,145.3 L 317.9,145.3 L 317.8,145.6 L 317.8,145.7 L 317.8,145.9 L 318.1,146.3 L 318.1,146.3 L 318.1,146.5 L 318.0,146.5 L 317.9,146.7 L 317.9,147.1 L 317.9,147.4 L 318.3,147.8 L 318.5,148.0 L 318.5,148.2 L 318.7,148.4 L 318.7,148.5 L 318.7,148.6 L 318.9,148.6 L 318.9,148.6 L 318.9,148.8 L 318.8,148.9 L 318.8,149.0 L 318.7,149.1 L 318.6,149.3 L 318.6,149.5 L 318.6,149.8 L 318.6,149.8 L 318.8,149.7 L 318.9,149.7 L 318.8,149.9 L 318.9,150.0 L 319.0,150.1 L 319.0,150.1 L 319.0,150.2 L 319.0,150.4 L 319.1,150.5 L 319.3,150.6 L 319.4,150.7 L 319.6,150.7 L 319.8,150.7 L 319.8,150.9 L 320.0,151.0 L 319.9,151.1 L 320.0,151.2 L 320.1,151.2 L 320.1,151.3 L 320.1,151.4 L 320.2,151.5 L 320.3,151.5 L 320.4,151.6 L 320.6,151.5 L 320.6,151.5 L 320.6,151.7 L 320.6,151.8 L 320.8,151.8 L 320.8,151.9 L 320.9,152.0 L 321.2,152.2 L 321.2,152.3 L 321.3,152.4 L 321.4,152.3 L 321.5,152.4 L 321.7,152.6 L 321.8,152.7 L 321.9,152.7 L 322.1,152.9 L 322.2,153.1 L 322.5,153.4 L 322.6,153.6 L 322.6,153.8 L 322.5,153.9 L 322.4,154.0 L 322.7,154.2 L 322.7,154.4 L 322.8,154.6 L 322.9,154.7 L 323.0,154.8 L 323.0,155.0 L 323.5,155.3 L 323.8,155.4 L 323.9,155.5 L 324.1,155.7 L 324.1,156.0 L 324.2,156.0 L 324.2,156.1 L 324.3,156.1 L 324.4,156.5 L 324.5,156.6 L 324.6,156.6 L 324.7,156.7 L 324.5,156.9 L 324.6,157.0 L 324.7,157.1 L 324.8,157.2 L 324.9,157.4 L 324.9,157.4 L 324.9,157.7 L 325.0,157.9 L 325.1,157.9 L 325.4,158.2 L 325.5,158.4 L 325.6,158.6 L 325.7,158.7 L 325.8,158.9 L 326.2,159.2 L 326.3,159.2 L 326.4,159.3 L 326.5,159.4 L 327.2,159.9 L 327.6,160.3 L 327.8,160.5 L 328.0,160.9 L 327.9,161.0 L 327.9,161.1 L 328.0,161.3 L 328.1,161.4 L 328.0,161.5 L 328.0,161.8 L 328.0,162.0 L 328.0,162.1 L 328.1,162.3 L 328.2,162.6 L 328.2,162.9 L 328.3,163.0 L 328.3,163.3 L 328.5,163.9 L 328.6,164.1 L 328.6,164.3 L 328.6,164.4 L 328.6,164.5 L 328.6,164.7 L 328.8,164.7 L 328.9,164.9 L 329.2,165.2 L 329.5,165.6 L 330.0,166.3 L 330.2,166.4 L 330.4,166.6 L 330.6,166.8 L 330.8,167.0 L 331.1,167.3 L 331.3,167.4 L 331.5,167.6 L 331.9,168.2 L 326.9,178.6 L 326.9,178.6 L 326.4,178.5 L 326.0,178.5 L 325.8,178.5 L 325.8,178.5 L 325.7,178.5 L 325.5,178.6 L 325.5,178.6 L 325.5,178.7 L 325.4,178.9 L 325.3,179.1 L 325.3,179.3 L 325.3,179.4 L 325.3,179.4 L 316.0,184.5 L 316.0,184.4 L 315.9,184.3 L 315.7,184.2 L 315.5,184.1 L 315.5,184.1 L 315.4,184.0 L 315.3,183.7 L 315.3,183.5 L 315.3,183.4 L 315.2,183.4 L 315.1,183.3 L 315.0,183.4 L 314.9,183.3 L 314.9,183.3 L 314.8,183.0 L 314.8,182.9 L 314.7,182.8 L 314.7,182.7 L 314.5,182.7 L 314.4,182.7 L 314.3,182.6 L 314.1,182.4 L 314.0,182.3 L 314.0,182.2 L 313.8,182.1 L 313.6,181.9 L 313.5,181.7 L 313.3,181.6 L 313.2,181.5 L 313.2,181.5 L 313.1,181.4 L 312.9,181.4 L 312.7,181.2 L 312.5,181.1 L 312.4,181.0 L 312.4,180.9 L 312.2,180.8 L 312.1,180.7 L 312.1,180.5 L 312.1,180.4 L 311.9,180.4 L 311.8,180.3 L 311.6,180.2 L 311.6,180.1 L 311.6,180.0 L 311.4,179.9 L 311.3,179.8 L 311.3,179.7 L 311.2,179.6 L 311.1,179.6 L 311.1,179.6 L 311.1,179.7 L 311.1,179.7 L 311.2,179.8 L 311.2,179.9 L 311.2,179.9 L 311.2,179.9 L 311.2,179.9 L 311.1,179.9 L 311.0,179.7 L 310.8,179.7 L 310.8,179.7 L 310.6,179.7 L 310.5,179.7 L 310.3,179.5 L 310.2,179.5 L 310.0,179.4 L 309.8,179.3 L 309.7,179.2 L 309.7,179.2 L 309.5,179.1 L 309.5,179.0 L 309.5,179.0 L 309.5,179.0 L 309.3,178.8 L 309.2,178.8 L 309.2,178.8 L 309.2,178.8 L 309.1,179.0 L 309.1,179.0 L 309.0,179.0 L 308.8,179.1 L 308.8,179.0 L 308.7,179.0 L 308.7,178.9 L 308.6,178.9 L 308.5,178.7 L 308.5,178.5 L 308.5,178.4 L 308.4,178.3 L 308.4,178.4 L 308.3,178.5 L 308.3,178.5 L 308.2,178.4 L 308.1,178.4 L 308.0,178.2 L 308.0,178.1 L 308.0,178.1 L 308.0,178.0 L 308.0,178.0 L 307.9,178.2 L 307.9,178.2 L 307.8,178.2 L 307.6,178.0 L 307.5,178.0 L 307.4,177.8 L 307.2,177.6 L 307.2,177.5 L 307.1,177.5 L 307.1,177.4 L 307.2,177.4 L 307.2,177.3 L 307.1,177.2 L 307.1,177.1 L 307.0,177.2 L 307.0,177.2 L 306.9,177.2 L 306.8,177.2 L 306.8,177.1 L 306.7,176.9 L 306.6,176.7 L 306.6,176.6 L 306.5,176.4 L 306.4,176.2 L 306.4,176.0 L 306.3,175.8 L 306.3,175.6 L 306.2,175.6 L 306.3,175.5 L 306.2,175.3 L 306.1,175.1 L 306.0,175.0 L 306.0,174.9 L 305.9,174.9 L 305.8,174.9 L 305.8,175.0 L 305.7,174.9 L 305.7,174.9 L 305.7,174.6 L 305.6,174.6 L 305.6,174.6 L 305.6,174.6 L 305.5,174.6 L 305.5,174.6 L 305.4,174.7 L 305.3,174.7 L 305.1,174.6 L 304.9,174.6 L 304.7,174.5 L 304.5,174.4 L 304.4,174.4 L 304.3,174.2 L 304.1,174.1 L 304.0,174.1 L 303.8,173.9 L 303.7,173.8 L 303.5,173.7 L 303.4,173.5 L 303.3,173.3 L 303.2,173.1 L 303.0,173.0 L 302.9,172.9 L 302.7,172.8 L 302.6,172.8 L 302.4,172.7 L 302.3,172.6 L 302.1,172.2 L 302.0,172.1 L 301.9,172.0 L 301.8,171.7 L 301.5,171.3 L 301.4,171.0 L 301.3,170.9 L 301.1,170.8 L 300.6,170.8 L 300.4,170.7 L 299.9,170.6 L 299.6,170.4 L 299.3,170.2 L 299.1,170.0 L 299.1,169.8 L 299.1,169.7 L 298.9,169.7 L 298.7,169.5 L 298.6,169.4 L 298.5,169.3 L 298.2,169.3 L 298.1,169.5 L 298.1,169.7 L 297.9,169.9 L 297.8,170.0 L 297.7,170.1 L 297.6,170.1 L 297.5,170.1 L 297.5,170.0 L 297.4,170.0 L 297.3,170.3 L 297.2,170.4 L 297.0,170.5 L 296.9,170.6 L 296.4,170.9 L 296.2,170.9 L 296.1,170.9 L 295.8,171.4 L 295.3,171.7 L 295.0,171.9 L 294.4,172.4 L 294.0,172.8 L 293.9,172.9 L 293.9,173.0 L 293.6,173.0 L 293.6,173.1 L 293.5,173.3 L 293.4,173.6 L 293.4,173.7 L 293.4,173.7 L 293.3,173.7 L 293.4,173.8 L 293.4,173.9 L 293.3,173.9 L 293.3,174.0 L 293.3,174.2 L 293.3,174.3 L 293.4,174.3 L 293.4,174.4 L 293.6,174.4 L 293.6,174.5 L 293.4,174.6 L 293.3,174.6 L 293.3,174.7 L 293.1,174.8 L 292.9,174.9 L 292.9,175.0 L 292.9,175.0 L 292.9,175.3 L 292.9,175.3 L 293.0,175.4 L 293.0,175.4 L 293.0,175.4 L 277.4,200.3 L 277.3,200.2 L 277.3,200.0 L 277.2,199.9 L 277.0,199.9 L 276.9,199.9 L 276.8,200.2 L 276.7,200.3 L 276.5,200.6 L 276.4,200.6 L 276.2,200.5 L 276.1,200.5 L 276.0,200.7 L 276.0,201.2 L 276.2,201.4 L 276.2,201.8 L 276.2,201.9 L 276.4,202.0 L 276.5,202.0 L 276.5,202.0 L 276.6,202.2 L 276.7,202.3 L 276.8,202.4 L 276.6,202.9 L 276.5,203.1 L 276.4,203.1 L 276.3,203.1 L 276.2,203.3 L 276.2,203.4 L 276.3,203.5 L 276.3,203.5 L 276.5,203.5 L 276.7,203.3 L 276.7,203.2 L 277.0,204.1 L 277.0,204.1 L 276.9,204.3 L 276.8,204.3 L 276.8,204.1 L 276.8,204.1 L 276.7,204.0 L 276.6,204.1 L 276.5,204.4 L 276.5,204.7 L 276.5,204.7 L 276.9,204.6 L 277.1,204.5 L 277.3,209.2 L 277.1,209.2 L 276.7,209.2 L 276.4,209.2 L 275.9,209.0 L 275.4,209.0 L 275.4,208.9 L 275.3,208.8 L 275.1,208.7 L 275.0,208.5 L 274.9,208.3 L 274.6,207.9 L 274.3,207.7 L 274.2,207.7 L 274.1,207.6 L 273.9,207.7 L 273.7,207.6 L 273.6,207.6 L 273.6,207.6 L 273.5,207.9 L 273.3,207.9 L 273.2,207.8 L 273.1,207.7 L 273.1,207.6 L 272.9,207.2 L 272.8,207.0 L 272.5,206.8 L 272.4,206.7 L 272.3,206.6 L 272.2,206.6 L 271.9,206.8 L 271.4,207.1 L 271.3,207.2 L 271.3,207.3 L 271.4,207.5 L 271.4,208.3 L 271.5,208.3 L 271.9,208.4 L 272.5,208.6 L 272.6,208.7 L 272.6,208.8 L 272.5,208.8 L 272.4,208.9 L 272.2,209.1 L 272.5,209.1 L 272.5,209.2 L 272.5,209.4 L 272.5,209.7 L 272.5,209.8 L 272.7,210.1 L 272.7,210.2 L 272.9,210.4 L 273.0,210.6 L 273.1,210.7 L 273.2,210.7 L 273.3,210.7 L 273.7,210.7 L 274.1,210.5 L 274.3,210.5 L 274.3,210.6 L 275.2,210.7 L 275.2,211.0 L 275.2,211.1 L 275.5,211.1 L 275.8,211.2 L 276.1,211.2 L 276.1,211.3 L 276.0,211.6 L 275.8,211.8 L 275.6,211.8 L 275.5,211.9 L 275.4,212.1 L 275.3,212.1 L 275.2,212.2 L 275.2,212.3 L 275.1,212.3 L 274.8,212.2 L 274.4,212.3 L 274.3,212.2 L 274.2,212.2 L 274.1,212.4 L 274.0,212.5 L 273.8,212.5 L 273.7,212.4 L 273.6,212.4 L 273.5,212.4 L 273.3,212.2 L 273.2,212.3 L 273.1,212.3 L 272.9,212.3 L 272.7,212.3 L 272.7,212.5 L 273.2,213.1 L 273.3,213.2 L 273.3,213.1 L 273.6,213.0 L 273.7,212.9 L 273.9,212.7 L 274.1,212.7 L 274.2,212.7 L 274.5,212.8 L 274.7,212.9 L 275.0,212.9 L 275.4,212.9 L 276.2,212.6 L 276.6,212.6 L 276.8,212.6 L 276.9,212.7 L 277.3,212.8 L 277.6,212.8 L 278.0,212.7 L 278.5,212.2 L 278.6,212.2 L 278.7,212.3 L 278.9,212.3 L 279.2,212.2 L 279.8,213.1 L 279.8,213.1 L 279.7,213.1 L 279.4,213.5 L 279.1,213.5 L 279.0,213.7 L 279.0,213.9 L 278.8,214.0 L 278.6,214.2 L 278.1,214.6 L 277.9,214.7 L 277.9,214.9 L 277.9,215.2 L 277.8,215.2 L 277.7,215.3 L 277.7,215.4 L 277.6,215.5 L 277.4,215.6 L 277.5,215.7 L 277.9,215.7 L 278.0,215.6 L 278.1,215.5 L 278.1,215.3 L 278.2,215.3 L 278.4,215.3 L 279.4,214.9 L 279.4,214.9 L 279.6,214.8 L 279.9,214.6 L 280.1,214.4 L 280.3,214.2 L 280.6,213.9 L 280.7,213.8 L 280.8,213.7 L 280.8,213.7 L 281.0,213.7 L 281.0,213.9 L 280.8,214.1 L 280.8,214.2 L 280.9,214.3 L 281.2,214.3 L 281.9,228.3 L 281.9,228.4 L 281.6,228.4 L 281.5,228.4 L 281.2,228.2 L 281.1,228.3 L 281.0,228.3 L 281.0,228.4 L 281.1,228.5 L 281.4,228.6 L 281.7,228.6 L 281.8,228.8 L 281.9,228.8 L 282.1,231.4 L 281.9,231.4 L 281.8,231.6 L 281.6,231.7 L 281.6,231.7 L 282.0,231.9 L 282.0,232.0 L 281.8,231.9 L 281.6,231.9 L 281.4,232.0 L 281.3,232.1 L 281.2,232.1 L 281.0,232.2 L 281.0,232.2 L 281.6,232.3 L 281.8,232.3 L 281.9,232.3 L 281.9,232.4 L 282.1,232.5 L 282.1,232.7 L 282.2,232.7 L 282.2,232.8 L 282.3,232.9 L 282.5,232.9 L 282.8,233.3 L 283.1,233.3 L 283.3,233.3 L 283.4,233.4 L 283.5,233.6 L 283.6,233.7 L 283.5,233.9 L 283.4,234.3 L 283.4,234.4 L 283.2,234.6 L 282.8,234.8 L 282.4,235.2 L 282.0,235.7 L 281.6,236.0 L 281.3,236.1 L 281.2,236.2 L 281.1,236.2 L 281.0,236.3 L 280.7,236.4 L 280.7,236.5 L 280.4,236.8 L 280.3,237.1 L 280.3,237.2 L 279.7,237.3 L 279.8,237.4 L 279.6,237.5 L 279.6,237.8 L 279.4,238.1 L 279.0,238.4 L 278.7,238.6 L 278.5,238.8 L 278.4,239.1 L 278.5,239.2 L 278.5,239.3 L 278.5,239.3 L 279.0,239.6 L 279.1,239.8 L 279.0,240.1 L 279.0,240.5 L 279.1,240.8 L 279.2,241.3 L 279.2,241.6 L 279.3,242.1 L 279.2,242.4 L 279.3,243.4 L 279.2,243.7 L 279.2,243.9 L 279.0,244.1 L 279.1,244.5 L 279.1,245.0 L 279.1,245.0 L 279.1,245.1 L 278.7,245.1 L 278.4,245.1 L 278.2,245.2 L 277.9,245.3 L 277.3,246.0 L 276.9,246.3 L 276.4,246.7 L 276.4,246.7 L 276.2,246.8 L 276.0,246.8 L 275.9,246.9 L 275.7,247.0 L 275.5,247.4 L 275.4,247.4 L 275.5,247.6 L 275.5,247.7 L 275.3,247.9 L 275.2,248.1 L 275.1,248.1 L 275.0,248.2 L 275.0,248.4 L 274.9,248.5 L 274.7,248.6 L 274.5,248.7 L 274.5,248.8 L 274.5,248.9 L 274.2,249.1 L 274.1,249.2 L 274.0,249.5 L 274.1,249.6 L 274.2,249.6 L 274.3,249.7 L 274.2,249.9 L 274.2,250.1 L 274.2,250.3 L 274.3,250.4 L 274.4,250.5 L 274.4,250.6 L 274.4,251.0 L 274.4,251.8 L 274.4,252.0 L 274.4,252.0 L 274.5,252.2 L 274.6,252.4 L 274.7,252.5 L 274.8,252.6 L 274.8,253.0 L 274.8,253.0 L 275.1,252.9 L 275.2,252.9 L 275.3,252.9 L 275.3,253.0 L 275.2,253.0 L 274.8,253.2 L 274.6,253.2 L 274.5,253.2 L 274.5,253.2 L 274.0,253.0 L 274.0,253.0 L 273.7,253.0 L 273.3,253.1 L 272.4,253.4 L 272.2,253.5 L 272.2,253.4 L 272.0,253.3 L 271.4,252.7 L 271.3,252.6 L 270.9,252.3 L 270.6,252.2 L 270.4,252.0 L 270.1,251.8 L 270.0,251.7 L 269.9,251.6 L 269.1,251.0 L 268.8,250.6 L 268.7,250.5 L 268.6,250.4 L 268.4,250.1 L 268.3,249.9 L 268.0,249.6 L 268.0,249.5 L 267.9,249.6 L 267.8,249.8 L 267.9,249.9 L 267.9,250.0 L 267.8,250.1 L 267.8,250.1 L 267.6,250.1 L 267.5,250.2 L 267.3,250.1 L 267.0,249.8 L 266.7,249.5 L 266.4,249.2 L 266.4,249.1 L 266.3,248.9 L 265.9,248.2 L 265.5,247.9 L 265.1,247.2 L 264.9,246.7 L 264.8,246.3 L 264.6,245.3 L 264.5,244.9 L 264.2,244.2 L 264.1,243.1 L 264.0,242.6 L 264.0,242.1 L 263.8,241.3 L 263.8,241.3 L 263.6,240.7 L 263.5,240.6 L 263.0,240.5 L 262.0,240.5 L 261.7,240.4 L 261.4,240.2 L 261.2,240.2 L 260.8,240.2 L 260.5,240.3 L 259.6,240.2 L 259.2,240.3 L 258.7,240.4 L 258.4,240.6 L 258.1,240.7 L 257.7,240.8 L 257.6,240.9 L 257.2,241.0 L 256.9,241.1 L 256.6,241.1 L 256.4,241.1 L 256.4,241.0 L 256.2,241.0 L 256.0,241.0 L 255.7,241.3 L 255.0,241.6 L 254.6,241.7 L 254.3,241.8 L 253.9,242.0 L 253.5,242.4 L 253.5,242.6 L 253.0,243.0 L 252.7,243.4 L 252.6,243.6 L 252.6,243.8 L 252.5,244.0 L 252.4,245.0 L 252.4,245.1 L 252.3,245.1 L 252.3,245.1 L 252.4,245.2 L 252.4,245.5 L 252.4,245.6 L 251.9,245.9 L 251.7,246.0 L 251.2,246.2 L 251.0,246.2 L 250.6,246.5 L 250.2,246.7 L 249.4,246.9 L 249.1,247.1 L 248.9,247.1 L 248.8,247.1 L 248.6,247.0 L 248.2,247.1 L 248.0,247.2 L 247.6,247.2 L 247.5,247.2 L 247.4,247.2 L 247.3,247.1 L 247.2,247.2 L 247.1,247.3 L 247.1,247.3 L 247.1,247.4 L 247.1,247.4 L 247.0,247.3 L 247.0,247.1 L 246.9,247.1 L 246.8,247.1 L 246.6,247.2 L 246.4,247.3 L 246.3,247.3 L 246.2,247.3 L 246.0,247.2 L 245.8,247.2 L 245.7,247.3 L 245.5,247.4 L 245.4,247.2 L 245.2,247.1 L 245.0,246.9 L 244.9,246.7 L 244.6,246.7 L 244.5,246.7 L 244.4,246.5 L 244.4,246.5 L 244.2,246.3 L 243.6,245.7 L 243.4,245.4 L 243.3,245.2 L 243.2,244.9 L 242.9,244.5 L 242.4,243.7 L 242.2,243.4 L 242.1,243.3 L 241.6,242.7 L 241.0,242.0 L 240.8,241.9 L 240.5,241.6 L 240.2,241.3 L 239.8,240.8 L 239.4,240.6 L 239.4,240.5 L 239.4,240.3 L 239.4,240.3 L 239.2,240.2 L 238.8,240.0 L 238.3,239.8 L 238.0,239.6 L 237.9,239.6 L 237.7,239.6 L 237.6,239.5 L 237.2,239.6 L 237.0,239.8 L 236.9,239.9 L 236.7,239.8 L 235.7,239.8 L 235.5,239.8 L 235.1,239.7 L 235.0,239.6 L 234.9,239.5 L 234.5,239.5 L 234.3,239.4 L 234.2,239.4 L 234.2,239.3 L 234.2,239.2 L 234.2,239.2 L 233.9,239.5 L 233.8,239.6 L 233.7,239.7 L 233.8,239.9 L 233.8,240.0 L 234.0,240.0 L 233.7,240.3 L 233.7,240.4 L 233.8,240.5 L 233.8,240.6 L 233.5,240.9 L 233.4,241.1 L 233.5,241.2 L 233.6,241.2 L 233.7,241.3 L 233.4,241.6 L 233.4,242.1 L 233.3,242.4 L 233.3,242.9 L 233.4,243.2 L 233.5,243.5 L 233.5,243.7 L 233.6,243.9 L 233.9,244.2 L 234.0,244.5 L 234.2,245.2 L 234.2,245.5 L 234.2,245.7 L 234.3,245.9 L 234.4,246.1 L 234.7,246.3 L 234.7,246.3 L 234.8,246.4 L 234.9,246.8 L 235.0,246.9 L 235.0,247.0 L 234.9,247.2 L 234.8,247.6 L 234.4,247.9 L 234.1,248.1 L 234.0,248.2 L 233.5,248.0 L 233.2,248.0 L 233.1,248.1 L 233.0,248.3 L 232.9,248.4 L 232.3,248.4 L 231.9,248.4 L 230.6,248.5 L 230.5,248.6 L 230.5,248.8 L 230.5,248.9 L 230.4,249.0 L 230.2,249.0 L 230.0,249.0 L 229.8,249.1 L 229.6,249.3 L 229.6,249.5 L 229.4,249.8 L 229.4,250.1 L 229.6,250.4 L 229.7,250.5 L 229.7,250.6 L 229.5,250.6 L 229.4,250.7 L 229.4,251.0 L 229.4,251.2 L 229.3,251.2 L 229.3,251.3 L 229.4,251.5 L 229.6,251.7 L 230.0,252.0 L 230.3,252.2 L 231.3,252.8 L 231.7,253.1 L 232.2,253.4 L 232.6,253.6 L 232.7,253.6 L 232.8,253.8 L 232.7,254.1 L 232.6,254.8 L 232.4,255.1 L 232.1,255.9 L 231.8,256.4 L 231.4,257.2 L 230.9,257.8 L 230.5,258.2 L 230.4,258.5 L 230.3,258.8 L 230.2,259.1 L 230.2,259.2 L 230.0,259.5 L 230.0,259.5 L 229.7,259.8 L 229.3,260.2 L 228.7,260.6 L 228.6,260.6 L 228.6,260.7 L 228.5,260.8 L 228.4,261.1 L 228.2,261.4 L 227.8,261.6 L 227.7,261.8 L 227.5,262.0 L 227.4,262.1 L 227.2,262.1 L 226.8,262.0 L 226.4,261.8 L 226.1,261.6 L 225.9,261.3 L 225.7,260.9 L 225.4,260.7 L 224.3,260.2 L 223.7,260.0 L 223.4,260.0 L 223.3,260.0 L 223.0,260.3 L 222.7,260.3 L 222.5,260.2 L 222.1,260.2 L 221.3,260.2 L 221.1,260.3 L 221.0,260.3 L 220.9,260.4 L 220.8,260.3 L 220.6,260.2 L 220.5,260.1 L 220.2,260.3 L 220.0,260.2 L 219.9,260.1 L 219.8,259.9 L 219.6,259.7 L 219.5,259.5 L 219.3,259.5 L 218.6,258.9 L 218.5,258.7 L 218.4,258.5 L 218.3,258.3 L 217.8,258.3 L 217.7,258.5 L 217.6,258.5 L 217.4,258.4 L 217.3,258.6 L 217.1,258.8 L 217.1,258.9 L 217.0,259.1 L 217.0,259.2 L 217.0,259.2 L 44.2,298.3 L 44.1,298.3 L 44.1,298.2 L 44.1,298.1 L 44.2,297.9 L 44.2,297.8 L 44.2,297.7 L 44.4,297.7 L 44.4,297.6 L 44.4,297.6 L 44.3,297.6 L 40.0,282.7 L 41.6,282.1 L 53.4,278.0 L 63.4,272.7 L 93.8,256.3 L 102.3,251.7 L 124.2,239.9 L 133.0,235.2" fill="none" stroke="black" stroke-width="2"/>
</svg>