<?xml version="1.0" encoding="UTF-8"?>
<svg width="400" height="400" viewBox="0 0 400 400" xmlns="http://www.w3.org/2000/svg">
  <rect width="400" height="400" fill="white"/>
  <path d="M 169.8,208.9 L 169.0,207.8 L 168.9,207.4 L 168.5,207.3 L 168.2,206.7 L 168.0,205.6 L 168.0,204.4 L 167.8,203.6 L 167.9,202.9 L 167.7,202.5 L 167.6,201.2 L 167.4,200.5 L 167.1,200.0 L 167.1,199.6 L 166.8,199.2 L 166.3,199.2 L 165.9,199.0 L 165.3,199.0 L 164.1,200.3 L 163.6,201.0 L 163.6,201.6 L 163.2,201.7 L 162.9,201.6 L 161.6,201.6 L 161.2,201.7 L 160.4,201.6 L 158.5,201.7 L 157.5,202.1 L 157.2,202.0 L 156.7,202.4 L 155.7,202.9 L 153.5,202.9 L 152.8,202.7 L 152.4,202.9 L 151.7,202.8 L 151.4,203.1 L 151.1,203.3 L 150.9,203.1 L 150.7,202.6 L 149.6,202.2 L 148.9,202.4 L 147.9,203.3 L 146.6,203.9 L 145.6,204.0 L 144.8,203.8 L 144.4,203.9 L 142.7,203.5 L 142.0,203.2 L 141.6,202.9 L 141.0,202.2 L 140.6,202.2 L 139.2,201.4 L 138.5,201.5 L 137.6,202.2 L 136.5,202.9 L 136.0,203.1 L 135.6,203.3 L 134.8,202.9 L 134.0,202.3 L 132.3,200.8 L 131.0,199.6 L 130.7,199.5 L 130.3,198.8 L 130.3,198.3 L 130.6,197.6 L 130.2,197.2 L 130.2,197.0 L 129.8,196.1 L 130.0,195.7 L 130.4,195.2 L 131.2,194.8 L 131.6,194.4 L 131.8,194.2 L 131.3,193.9 L 130.5,193.9 L 130.3,193.9 L 130.4,193.6 L 130.4,193.5 L 130.6,192.5 L 130.6,192.4 L 130.5,192.2 L 130.5,192.1 L 130.8,191.0 L 131.1,190.9 L 132.6,191.9 L 133.3,192.4 L 134.1,193.0 L 134.4,193.0 L 134.6,192.4 L 134.7,192.3 L 131.6,190.4 L 131.1,190.0 L 131.0,189.2 L 130.7,187.1 L 130.8,186.5 L 130.5,185.9 L 130.4,185.6 L 130.1,185.3 L 130.1,184.7 L 129.7,184.3 L 129.6,183.5 L 129.2,183.3 L 128.8,182.6 L 128.4,182.1 L 128.3,181.7 L 127.4,180.9 L 127.3,180.6 L 127.3,180.1 L 126.8,179.7 L 126.4,178.9 L 126.0,178.0 L 124.7,177.0 L 124.0,175.9 L 123.7,175.6 L 123.3,175.6 L 122.9,175.4 L 122.2,175.4 L 121.5,175.7 L 120.6,175.9 L 120.4,176.0 L 120.1,176.6 L 120.2,178.1 L 120.4,178.8 L 120.4,180.1 L 120.0,181.0 L 119.9,182.0 L 119.3,182.8 L 118.5,183.1 L 118.3,183.7 L 117.9,184.2 L 116.1,185.7 L 115.3,186.1 L 114.5,186.6 L 113.0,187.4 L 112.2,187.6 L 111.8,187.5 L 110.1,186.8 L 110.1,186.8 L 109.6,186.8 L 109.2,186.9 L 108.8,186.7 L 107.4,185.6 L 106.4,184.6 L 104.9,183.8 L 102.9,182.2 L 102.5,181.9 L 101.3,180.7 L 99.0,177.8 L 98.6,177.3 L 94.2,171.9 L 93.0,171.0 L 92.6,170.7 L 91.4,169.4 L 90.3,168.7 L 89.0,168.0 L 88.3,167.4 L 88.3,166.6 L 87.4,165.8 L 87.1,165.3 L 85.3,163.8 L 85.1,163.2 L 84.0,161.9 L 83.6,161.8 L 83.5,161.4 L 82.1,159.9 L 82.3,159.5 L 81.7,158.9 L 80.9,158.6 L 80.6,158.1 L 80.4,157.3 L 79.9,156.3 L 79.2,155.3 L 78.3,153.8 L 78.1,153.8 L 77.8,154.4 L 77.7,154.3 L 77.5,154.4 L 77.2,155.4 L 77.4,155.9 L 77.8,156.3 L 77.7,158.3 L 77.4,160.6 L 77.0,162.6 L 75.7,164.5 L 75.2,166.5 L 74.8,167.4 L 73.9,168.6 L 73.4,168.8 L 72.5,169.1 L 70.2,169.3 L 68.0,168.8 L 67.9,168.7 L 66.7,168.2 L 65.1,166.8 L 64.1,166.9 L 63.2,165.7 L 61.0,164.2 L 60.4,164.0 L 60.0,163.7 L 59.2,163.2 L 57.7,161.9 L 56.9,161.0 L 56.8,161.2 L 56.7,161.5 L 56.3,161.4 L 55.6,160.4 L 54.0,159.3 L 52.9,157.6 L 52.2,157.0 L 51.5,156.7 L 51.3,156.4 L 50.7,155.3 L 50.5,155.3 L 49.9,155.8 L 49.5,155.7 L 49.8,155.1 L 49.5,154.6 L 49.7,154.1 L 49.4,153.9 L 49.2,154.0 L 48.9,154.5 L 48.5,154.4 L 47.8,154.0 L 46.9,153.8 L 45.5,153.2 L 45.0,152.8 L 44.3,152.8 L 44.4,152.4 L 45.0,151.1 L 44.6,150.8 L 43.8,150.7 L 43.4,150.3 L 43.0,149.6 L 42.8,148.3 L 42.2,147.1 L 42.4,146.6 L 42.2,146.5 L 41.3,146.5 L 40.7,146.2 L 40.0,145.5 L 147.3,51.3 L 147.5,51.2 L 147.4,51.3 L 148.2,52.2 L 148.1,52.5 L 148.1,53.2 L 148.1,53.2 L 148.1,53.6 L 148.6,55.4 L 148.8,55.6 L 149.7,55.9 L 150.3,56.2 L 151.1,57.0 L 151.6,58.1 L 151.9,58.8 L 152.1,59.6 L 152.1,60.3 L 155.1,65.1 L 155.9,65.7 L 156.0,66.1 L 156.4,66.9 L 156.8,67.5 L 157.0,67.8 L 157.4,68.4 L 157.5,68.8 L 158.0,70.0 L 158.2,70.2 L 158.1,70.5 L 158.5,71.0 L 159.0,71.9 L 159.6,72.5 L 160.2,72.9 L 160.3,73.3 L 160.9,73.9 L 161.5,75.0 L 161.5,75.5 L 160.8,76.0 L 160.8,76.5 L 161.3,76.5 L 161.5,76.7 L 161.1,77.2 L 161.1,77.9 L 161.3,78.3 L 161.5,78.9 L 161.9,79.8 L 162.3,80.3 L 162.4,82.1 L 162.2,82.4 L 162.2,83.3 L 162.4,83.5 L 163.0,84.2 L 163.2,85.2 L 163.6,85.9 L 164.6,87.2 L 164.9,87.9 L 165.4,89.9 L 165.5,90.8 L 165.7,90.9 L 166.0,91.3 L 166.3,92.5 L 166.5,92.7 L 167.2,93.4 L 168.0,94.9 L 167.9,95.9 L 168.4,97.1 L 168.7,97.7 L 168.8,97.8 L 168.9,97.4 L 169.1,97.5 L 169.4,98.0 L 169.5,99.0 L 169.8,99.4 L 170.0,99.7 L 170.4,99.8 L 170.7,100.2 L 170.8,100.7 L 171.8,103.0 L 171.6,103.3 L 171.7,103.5 L 171.9,103.5 L 173.0,103.7 L 173.0,104.0 L 173.9,105.3 L 174.8,106.1 L 174.8,106.4 L 175.1,106.6 L 175.3,106.9 L 175.2,107.3 L 175.6,107.6 L 175.9,108.1 L 176.8,109.0 L 177.1,109.0 L 177.6,110.0 L 177.8,110.4 L 178.0,110.5 L 178.3,111.1 L 178.9,111.7 L 179.1,112.2 L 179.2,112.5 L 179.8,112.7 L 179.8,113.0 L 180.7,114.3 L 180.8,114.3 L 181.0,114.3 L 181.2,114.6 L 181.8,115.2 L 181.9,115.6 L 182.2,116.3 L 182.5,116.6 L 182.7,117.3 L 183.1,117.9 L 183.7,118.3 L 183.8,118.7 L 185.0,120.7 L 185.0,121.6 L 185.0,121.7 L 184.8,122.0 L 184.4,122.1 L 184.0,123.1 L 184.2,124.9 L 184.0,125.3 L 184.0,125.8 L 184.4,126.5 L 184.4,127.8 L 184.4,128.0 L 184.3,128.3 L 184.1,129.6 L 183.8,130.3 L 183.5,131.3 L 182.9,133.1 L 181.7,133.3 L 181.4,133.7 L 181.4,134.1 L 181.7,134.8 L 182.2,135.2 L 182.7,135.0 L 183.1,134.8 L 183.6,135.1 L 184.2,135.2 L 185.4,135.9 L 186.4,136.8 L 186.4,137.2 L 186.4,137.4 L 186.7,138.2 L 187.2,138.6 L 187.6,139.2 L 188.5,140.0 L 188.5,140.2 L 188.5,140.5 L 188.5,140.7 L 188.8,141.1 L 189.2,141.2 L 190.2,141.7 L 190.2,142.4 L 190.5,142.7 L 190.8,142.7 L 191.2,142.5 L 191.4,142.4 L 192.1,142.9 L 192.9,144.2 L 194.2,144.4 L 194.9,145.0 L 195.7,145.4 L 195.9,145.6 L 196.2,146.3 L 197.6,147.3 L 198.1,147.3 L 198.3,147.5 L 198.5,147.4 L 200.1,147.8 L 201.1,148.3 L 201.3,148.3 L 205.4,150.1 L 208.1,151.7 L 208.9,151.7 L 209.0,152.0 L 210.3,152.8 L 210.5,153.3 L 213.4,155.2 L 214.2,156.0 L 215.5,157.2 L 215.7,157.5 L 215.9,157.6 L 217.1,158.2 L 217.6,158.7 L 219.0,159.8 L 219.6,159.9 L 220.1,160.2 L 223.7,163.1 L 224.8,163.6 L 224.9,163.9 L 225.1,163.9 L 227.6,166.0 L 227.9,166.3 L 228.9,167.3 L 229.8,168.0 L 230.2,168.0 L 231.4,169.0 L 231.8,169.3 L 232.1,169.6 L 232.1,170.0 L 233.3,170.7 L 234.0,171.7 L 234.3,172.2 L 234.8,172.2 L 235.4,172.8 L 235.5,173.2 L 235.8,173.5 L 235.9,173.8 L 236.8,174.3 L 236.9,174.9 L 237.1,175.1 L 237.1,175.4 L 237.8,175.9 L 238.4,176.1 L 238.8,176.5 L 239.6,177.9 L 240.2,179.4 L 240.1,179.9 L 240.2,180.6 L 240.5,181.1 L 240.6,181.2 L 241.0,181.6 L 241.4,182.3 L 242.0,183.0 L 242.3,183.8 L 242.7,184.0 L 242.7,184.2 L 242.8,184.4 L 243.2,185.0 L 243.5,185.3 L 244.0,185.5 L 244.2,186.4 L 244.6,186.9 L 245.7,187.9 L 245.8,188.8 L 246.2,189.6 L 246.9,190.8 L 247.0,191.3 L 247.5,191.8 L 247.9,192.4 L 247.9,192.5 L 248.3,192.8 L 248.8,193.9 L 249.1,194.3 L 249.4,195.1 L 250.2,195.7 L 250.3,196.4 L 250.6,196.7 L 251.2,197.0 L 251.5,197.4 L 251.6,197.8 L 252.1,198.6 L 253.1,200.1 L 253.4,200.4 L 253.9,200.6 L 255.2,202.3 L 256.9,204.1 L 257.2,204.1 L 257.5,204.7 L 259.1,206.0 L 259.6,206.7 L 260.3,207.5 L 260.4,207.7 L 263.7,210.7 L 264.8,212.3 L 265.1,212.7 L 265.9,213.3 L 266.7,214.3 L 267.8,216.2 L 268.7,218.4 L 269.2,219.2 L 269.2,219.8 L 270.1,222.3 L 271.4,224.8 L 271.7,225.3 L 272.2,226.6 L 272.4,226.8 L 272.7,227.1 L 272.9,227.7 L 273.8,231.6 L 275.0,234.5 L 275.5,235.3 L 275.9,237.4 L 276.3,238.6 L 276.3,238.6 L 277.1,240.4 L 277.2,240.9 L 278.3,243.3 L 279.2,244.7 L 279.7,245.6 L 280.8,246.8 L 281.3,247.9 L 281.9,248.5 L 282.1,249.4 L 282.7,250.7 L 283.1,251.4 L 283.5,252.2 L 284.4,253.2 L 285.1,253.8 L 285.3,255.5 L 286.1,257.5 L 286.7,258.6 L 287.6,259.3 L 288.9,260.1 L 289.9,260.5 L 290.7,260.7 L 291.5,261.1 L 291.8,261.5 L 292.1,262.0 L 292.9,262.7 L 293.6,263.2 L 294.6,263.9 L 295.4,264.3 L 296.0,264.8 L 296.1,264.9 L 296.3,265.7 L 296.8,266.2 L 297.2,267.6 L 297.7,268.8 L 297.9,269.0 L 298.1,269.5 L 298.1,269.8 L 298.6,270.6 L 299.6,272.1 L 300.6,273.7 L 302.1,275.6 L 302.6,275.9 L 302.7,276.3 L 303.0,276.9 L 304.7,279.0 L 305.2,279.5 L 306.6,281.3 L 307.8,282.4 L 308.3,282.5 L 309.4,283.5 L 311.3,284.9 L 314.7,287.3 L 314.9,287.4 L 315.0,287.8 L 315.9,289.2 L 318.0,291.2 L 318.9,292.0 L 320.8,293.9 L 321.4,294.3 L 321.8,294.5 L 322.4,294.7 L 323.2,295.2 L 323.9,296.2 L 324.2,296.6 L 324.6,296.8 L 324.9,297.1 L 325.0,297.9 L 324.7,298.3 L 325.4,299.4 L 325.6,299.7 L 326.9,301.3 L 328.6,302.9 L 329.5,303.6 L 330.5,303.6 L 331.3,303.8 L 331.8,304.1 L 333.3,304.1 L 335.0,304.9 L 335.9,305.2 L 336.5,305.8 L 337.0,306.1 L 337.6,306.3 L 338.6,306.9 L 338.9,307.2 L 339.3,307.7 L 339.8,308.1 L 341.2,308.0 L 342.0,308.2 L 343.0,308.8 L 343.4,308.9 L 343.9,309.1 L 344.3,308.6 L 346.7,308.6 L 347.0,308.6 L 347.7,308.4 L 348.6,308.6 L 348.9,308.7 L 350.8,309.4 L 351.2,309.8 L 352.0,310.8 L 352.9,311.8 L 353.6,313.0 L 354.5,313.5 L 354.5,313.5 L 354.8,313.8 L 354.6,313.8 L 354.4,313.9 L 354.5,314.1 L 355.1,313.9 L 356.2,314.3 L 357.1,314.5 L 359.0,314.5 L 359.0,314.5 L 359.5,315.0 L 359.6,315.3 L 359.9,316.0 L 360.0,316.6 L 359.2,317.6 L 359.2,319.0 L 359.3,319.4 L 359.3,319.7 L 359.0,320.2 L 358.9,320.4 L 358.0,321.1 L 357.3,321.4 L 356.5,322.0 L 354.7,322.9 L 353.8,323.0 L 353.6,323.2 L 353.1,323.2 L 350.8,323.5 L 349.9,323.7 L 348.8,323.9 L 347.9,323.2 L 346.6,322.9 L 345.8,322.6 L 345.4,322.3 L 343.8,321.8 L 343.0,321.5 L 339.9,321.3 L 339.1,321.0 L 338.5,320.9 L 336.1,320.9 L 335.8,321.1 L 335.2,321.9 L 333.2,322.4 L 331.9,323.1 L 331.4,323.7 L 330.8,324.2 L 330.1,324.5 L 328.7,324.6 L 327.3,325.1 L 326.6,325.5 L 325.1,327.3 L 324.6,328.1 L 323.4,329.0 L 322.9,329.6 L 322.0,330.6 L 321.5,330.9 L 321.0,331.3 L 319.7,331.7 L 318.8,332.3 L 317.3,333.9 L 317.1,334.1 L 316.7,334.3 L 316.2,334.3 L 315.4,333.9 L 314.7,333.9 L 313.7,334.6 L 312.0,335.0 L 311.3,335.4 L 310.8,335.6 L 309.8,336.0 L 306.8,336.8 L 306.6,336.9 L 306.1,337.0 L 305.7,337.2 L 304.5,337.3 L 303.4,337.2 L 302.4,337.3 L 301.2,337.4 L 299.5,337.1 L 297.6,337.2 L 295.1,336.8 L 294.4,337.1 L 294.2,337.2 L 293.5,337.5 L 292.4,338.3 L 289.4,339.0 L 287.9,339.2 L 287.0,339.5 L 286.6,339.8 L 285.9,340.8 L 286.2,343.9 L 286.1,345.0 L 285.2,347.1 L 283.6,348.7 L 283.2,348.8 L 282.5,348.4 L 281.6,346.3 L 280.9,345.2 L 280.4,345.0 L 279.9,344.8 L 279.0,344.2 L 278.1,343.9 L 277.4,343.8 L 276.6,343.3 L 275.9,343.0 L 275.5,343.0 L 274.0,341.5 L 273.1,341.5 L 272.9,341.5 L 272.1,342.3 L 271.4,342.5 L 271.0,342.4 L 269.8,341.5 L 269.7,341.2 L 268.7,340.8 L 268.0,340.3 L 267.6,340.1 L 267.1,339.4 L 265.0,338.2 L 263.7,337.2 L 263.2,336.6 L 262.9,335.4 L 262.4,333.9 L 262.1,333.2 L 260.6,330.2 L 259.8,327.8 L 259.1,326.7 L 258.9,325.9 L 258.4,325.1 L 257.8,324.2 L 257.2,323.6 L 256.9,323.1 L 254.4,321.2 L 253.7,320.3 L 250.7,316.0 L 249.5,314.6 L 248.4,314.2 L 247.6,313.6 L 244.6,312.5 L 244.1,312.4 L 243.5,312.2 L 242.3,312.0 L 241.2,311.6 L 240.7,311.2 L 240.6,310.7 L 240.5,310.6 L 239.6,309.6 L 239.4,309.5 L 239.0,309.3 L 238.9,308.8 L 238.3,308.5 L 237.3,307.6 L 236.7,306.6 L 236.7,306.1 L 236.8,306.0 L 237.0,305.9 L 237.9,305.4 L 238.1,305.4 L 238.7,305.6 L 238.8,305.2 L 238.8,305.0 L 238.3,304.8 L 238.2,304.5 L 237.7,303.7 L 237.6,303.5 L 237.7,303.1 L 237.7,302.5 L 237.8,302.4 L 237.8,302.3 L 238.0,301.6 L 239.9,297.6 L 240.2,296.6 L 240.3,294.6 L 240.3,293.0 L 240.4,292.5 L 240.3,291.4 L 240.2,290.8 L 240.3,290.4 L 240.5,290.4 L 240.8,290.4 L 241.0,290.4 L 241.2,290.8 L 241.4,290.9 L 241.4,290.5 L 241.3,290.2 L 241.0,290.1 L 240.5,290.1 L 240.5,290.0 L 240.3,290.0 L 240.3,289.8 L 240.5,289.7 L 240.9,289.6 L 241.0,289.1 L 241.0,288.0 L 241.3,287.3 L 241.5,286.6 L 241.2,282.7 L 241.4,280.6 L 241.7,277.6 L 241.9,274.8 L 241.8,272.5 L 241.6,272.0 L 241.2,271.2 L 240.7,270.9 L 240.5,270.6 L 240.5,270.6 L 240.1,269.1 L 239.8,268.3 L 238.5,266.9 L 237.3,266.0 L 234.3,263.2 L 234.0,262.9 L 233.0,262.5 L 232.4,261.6 L 229.3,259.2 L 225.9,257.2 L 223.9,255.4 L 223.2,254.6 L 220.5,252.8 L 220.2,252.0 L 219.5,251.0 L 218.6,250.1 L 216.7,248.4 L 216.2,247.7 L 215.1,246.9 L 213.4,244.9 L 213.3,244.8 L 212.9,244.0 L 212.6,243.8 L 212.2,243.7 L 210.9,242.6 L 210.2,242.2 L 209.8,241.8 L 209.2,241.4 L 208.0,240.7 L 207.6,240.9 L 206.9,241.5 L 205.9,242.4 L 202.8,243.1 L 199.1,243.3 L 198.2,243.5 L 197.1,244.4 L 196.3,244.7 L 194.9,245.4 L 194.3,246.3 L 194.1,247.1 L 193.8,247.3 L 193.4,247.4 L 192.9,247.2 L 192.5,247.4 L 191.7,247.5 L 189.8,247.1 L 188.9,247.3 L 187.8,248.7 L 187.7,249.8 L 187.1,250.8 L 187.1,251.3 L 187.5,251.8 L 188.8,252.2 L 190.2,252.3 L 190.6,252.7 L 190.5,253.6 L 190.7,254.2 L 190.8,255.2 L 190.5,256.5 L 190.2,257.8 L 190.0,259.3 L 189.4,259.9 L 189.2,260.5 L 188.8,261.2 L 189.0,262.5 L 188.8,263.2 L 188.4,264.2 L 187.8,264.6 L 187.2,265.2 L 186.4,267.3 L 186.3,267.9 L 184.9,271.2 L 184.4,272.0 L 184.4,273.0 L 183.9,273.8 L 183.6,274.5 L 183.4,274.9 L 182.5,275.3 L 182.3,275.6 L 182.2,276.4 L 182.0,276.6 L 181.8,276.8 L 181.4,277.1 L 181.3,277.2 L 180.4,277.7 L 179.7,278.5 L 179.6,279.3 L 180.0,279.8 L 180.0,280.1 L 179.8,280.4 L 178.7,280.5 L 178.0,280.2 L 177.7,280.0 L 177.8,277.0 L 178.1,276.4 L 178.4,275.9 L 178.3,275.7 L 177.5,275.2 L 177.3,274.7 L 177.2,273.4 L 177.3,273.1 L 177.4,273.0 L 177.7,272.4 L 178.0,271.8 L 178.1,271.6 L 177.6,271.3 L 177.5,271.1 L 177.3,270.8 L 177.1,270.8 L 177.0,270.7 L 176.7,270.8 L 176.4,271.0 L 176.0,270.8 L 175.8,270.8 L 175.6,271.0 L 175.5,270.6 L 175.5,270.5 L 175.7,270.3 L 176.1,270.0 L 176.4,269.6 L 176.5,269.3 L 176.6,269.4 L 176.9,268.7 L 176.7,268.6 L 176.5,269.0 L 175.9,268.8 L 175.9,269.0 L 175.4,269.1 L 174.7,269.2 L 174.3,269.5 L 174.0,269.7 L 173.8,269.9 L 173.2,269.3 L 172.7,268.7 L 172.0,268.4 L 171.4,268.3 L 171.3,268.0 L 171.1,267.5 L 170.5,266.6 L 171.1,266.5 L 171.1,266.2 L 170.8,266.1 L 170.3,265.7 L 170.3,265.7 L 170.0,265.3 L 169.9,264.9 L 169.8,264.7 L 169.6,264.2 L 169.8,263.6 L 169.9,263.3 L 169.9,263.2 L 169.8,262.2 L 170.5,261.8 L 170.2,261.2 L 170.4,260.8 L 170.5,260.8 L 171.3,260.8 L 171.8,261.1 L 172.0,260.7 L 172.4,261.0 L 172.7,260.7 L 173.5,259.9 L 172.9,259.7 L 172.8,259.4 L 173.8,259.7 L 174.3,259.3 L 173.6,258.8 L 174.2,258.5 L 174.2,258.4 L 174.1,258.3 L 173.8,258.1 L 173.6,258.0 L 173.6,257.7 L 173.6,257.1 L 173.6,256.8 L 174.0,256.3 L 174.2,255.8 L 174.3,255.4 L 174.6,254.9 L 174.8,254.8 L 174.9,254.8 L 175.1,254.8 L 175.2,254.9 L 176.0,255.9 L 176.6,256.3 L 176.7,256.2 L 177.7,255.5 L 178.1,255.2 L 178.6,254.8 L 179.1,254.3 L 179.9,253.7 L 180.2,253.4 L 180.4,253.4 L 180.5,253.6 L 179.9,254.3 L 180.1,254.5 L 180.7,253.8 L 181.6,252.9 L 181.7,253.0 L 182.8,252.1 L 182.6,251.9 L 182.8,250.6 L 182.5,250.5 L 182.2,250.2 L 181.7,250.2 L 181.0,250.2 L 180.9,250.2 L 181.0,249.8 L 181.3,249.5 L 181.5,249.3 L 181.5,249.3 L 181.7,249.1 L 182.2,247.4 L 182.1,245.9 L 181.2,245.8 L 180.4,245.3 L 180.3,245.1 L 180.1,244.7 L 180.1,244.1 L 180.0,243.5 L 179.6,242.9 L 179.2,242.6 L 179.2,242.6 L 178.8,241.7 L 178.6,240.6 L 178.6,240.0 L 178.7,239.5 L 178.9,238.1 L 179.2,237.2 L 179.3,237.0 L 179.8,236.1 L 180.0,233.5 L 180.0,232.5 L 179.6,231.8 L 179.2,230.3 L 179.2,230.2 L 179.1,229.1 L 178.6,227.9 L 179.1,226.0 L 179.2,225.8 L 179.4,223.9 L 179.4,222.4 L 179.4,221.6 L 178.9,220.8 L 178.3,220.1 L 177.8,219.2 L 177.4,219.0 L 176.0,217.7 L 175.5,217.1 L 175.4,216.7 L 175.2,216.1 L 174.9,215.6 L 174.5,215.7 L 174.3,215.1 L 174.2,214.7 L 173.9,214.3 L 173.7,214.0 L 173.4,213.7 L 173.2,213.4 L 173.0,213.4 L 172.6,212.9 L 172.0,212.9 L 171.8,212.9 L 171.6,212.7 L 171.5,212.1 L 171.2,211.5 L 171.0,211.4 L 170.8,211.0 L 170.5,210.9 L 170.3,209.7 L 169.8,208.9" fill="none" stroke="black" stroke-width="2"/>
</svg>