<?xml version="1.0" encoding="UTF-8"?>
<svg width="400" height="400" viewBox="0 0 400 400" xmlns="http://www.w3.org/2000/svg">
  <rect width="400" height="400" fill="white"/>
  <path d="M 212.8,281.7 L 213.3,280.8 L 214.0,278.2 L 214.5,276.1 L 214.4,272.3 L 214.2,271.8 L 214.2,268.0 L 213.5,264.6 L 213.5,260.5 L 213.8,257.0 L 213.0,254.2 L 213.1,251.9 L 214.0,248.7 L 214.5,246.1 L 214.5,243.5 L 209.8,239.8 L 209.1,238.2 L 208.5,235.5 L 208.3,229.1 L 208.9,225.7 L 208.4,215.1 L 207.9,214.1 L 207.8,209.8 L 208.8,207.3 L 209.1,203.3 L 210.0,201.7 L 211.0,199.7 L 210.9,197.0 L 209.0,194.1 L 205.7,191.3 L 205.2,190.3 L 205.1,183.8 L 203.0,179.9 L 202.6,174.4 L 202.6,174.1 L 201.4,171.1 L 200.2,169.9 L 197.2,168.7 L 194.9,166.8 L 194.1,166.0 L 189.8,161.8 L 188.0,159.2 L 187.8,158.2 L 185.7,156.1 L 185.0,153.3 L 184.0,151.0 L 182.4,145.8 L 181.6,144.7 L 180.5,141.6 L 180.1,139.9 L 180.1,139.7 L 180.1,138.4 L 180.1,137.0 L 179.9,136.5 L 179.4,136.2 L 178.5,136.2 L 177.6,135.6 L 177.6,134.2 L 178.7,132.8 L 179.5,131.6 L 181.3,130.3 L 187.1,128.7 L 191.4,128.5 L 192.4,128.1 L 192.9,127.5 L 192.9,124.3 L 191.5,122.5 L 189.0,121.4 L 187.7,121.4 L 185.0,122.8 L 182.1,123.0 L 180.7,123.2 L 176.2,122.6 L 173.9,121.0 L 171.4,120.2 L 170.2,119.2 L 169.7,117.8 L 170.4,117.3 L 173.4,117.1 L 175.5,115.6 L 177.0,115.3 L 178.7,113.4 L 181.9,111.9 L 183.4,111.3 L 185.3,109.8 L 186.3,109.9 L 187.4,110.4 L 188.8,110.3 L 190.0,109.2 L 191.3,108.9 L 191.6,108.0 L 190.6,107.1 L 189.6,107.1 L 187.8,107.1 L 185.4,107.8 L 182.1,107.7 L 181.0,107.7 L 180.5,107.2 L 180.1,106.2 L 177.8,104.6 L 170.7,104.8 L 169.0,104.8 L 168.7,102.1 L 168.1,101.6 L 165.1,100.3 L 161.8,100.3 L 159.6,100.8 L 158.8,101.6 L 159.2,102.2 L 161.8,103.6 L 162.0,103.7 L 162.7,104.8 L 162.1,106.0 L 161.8,106.2 L 159.2,107.6 L 156.1,107.8 L 153.5,107.5 L 151.9,105.8 L 149.9,103.2 L 148.7,102.7 L 146.2,103.3 L 145.4,102.8 L 144.6,102.3 L 141.4,102.5 L 140.3,103.4 L 138.8,103.6 L 138.3,103.9 L 135.8,104.8 L 135.1,105.4 L 134.5,105.6 L 133.7,105.1 L 131.2,106.4 L 129.5,106.6 L 129.0,106.7 L 127.4,106.8 L 124.6,107.6 L 121.9,108.8 L 119.0,109.0 L 116.3,108.4 L 112.4,106.5 L 111.3,105.2 L 110.6,103.2 L 110.3,97.7 L 108.5,94.4 L 104.6,90.4 L 104.4,90.2 L 134.1,41.7 L 134.3,41.3 L 135.9,44.4 L 137.2,45.0 L 141.5,44.8 L 144.0,43.3 L 144.6,44.4 L 147.2,44.9 L 148.9,44.7 L 155.3,40.5 L 157.2,40.0 L 157.3,40.0 L 158.0,40.0 L 159.1,40.5 L 161.0,40.9 L 161.1,41.9 L 161.4,42.2 L 161.8,42.1 L 161.8,41.9 L 161.9,41.7 L 163.8,41.7 L 164.6,42.2 L 165.1,41.9 L 165.5,42.2 L 166.7,42.5 L 168.5,42.5 L 169.7,42.3 L 169.8,42.4 L 170.8,42.7 L 171.8,42.5 L 172.4,42.9 L 172.2,43.7 L 172.4,43.9 L 173.0,44.1 L 174.0,44.2 L 175.1,43.7 L 176.2,44.9 L 177.4,47.1 L 178.1,48.2 L 179.6,51.1 L 181.3,52.1 L 182.6,52.3 L 184.1,52.9 L 185.4,53.7 L 190.6,54.0 L 192.1,55.8 L 192.6,57.1 L 194.5,60.2 L 197.1,61.8 L 200.0,63.3 L 201.2,64.1 L 206.7,65.4 L 215.5,66.6 L 221.0,67.7 L 228.9,71.7 L 231.0,72.6 L 232.6,74.0 L 234.0,74.6 L 236.4,75.5 L 237.9,76.4 L 241.3,79.4 L 242.1,80.9 L 242.8,82.9 L 243.2,83.3 L 244.5,85.0 L 245.3,85.7 L 247.9,88.1 L 248.7,88.7 L 251.4,91.5 L 252.1,92.0 L 253.3,94.0 L 253.8,95.9 L 253.3,98.5 L 253.2,100.1 L 253.6,102.1 L 255.1,103.6 L 257.6,106.8 L 261.0,113.4 L 261.8,115.1 L 262.3,115.7 L 265.4,118.5 L 267.3,121.8 L 267.5,123.4 L 266.5,125.5 L 266.2,126.5 L 264.7,128.5 L 263.0,130.0 L 262.7,131.6 L 262.7,134.0 L 262.4,134.1 L 262.0,134.3 L 261.2,134.1 L 259.8,133.2 L 259.5,133.2 L 258.6,133.8 L 258.5,134.5 L 258.7,134.9 L 260.8,135.9 L 260.7,136.1 L 259.6,136.1 L 259.4,136.5 L 260.2,136.8 L 261.2,137.6 L 258.8,138.8 L 258.6,139.7 L 259.2,140.0 L 259.3,140.5 L 261.0,140.9 L 262.2,142.1 L 262.2,143.5 L 262.4,143.8 L 262.0,144.5 L 261.0,144.3 L 258.9,146.4 L 257.4,149.8 L 256.3,151.0 L 255.9,152.0 L 253.9,154.2 L 253.9,158.0 L 253.5,159.7 L 253.4,163.5 L 254.1,166.5 L 255.4,167.8 L 257.8,170.1 L 257.7,171.0 L 257.5,172.7 L 256.4,173.7 L 254.1,174.4 L 253.9,174.5 L 252.7,174.9 L 252.5,175.3 L 251.6,177.1 L 251.5,178.8 L 252.1,180.1 L 252.3,181.6 L 252.9,182.2 L 253.5,182.2 L 254.2,181.6 L 255.5,180.7 L 256.7,180.7 L 259.3,182.3 L 259.8,184.1 L 262.2,186.1 L 262.7,187.4 L 263.1,189.4 L 262.6,189.9 L 261.2,192.2 L 261.5,194.9 L 262.7,197.3 L 262.4,199.0 L 260.6,203.2 L 258.8,205.0 L 256.1,206.8 L 253.3,208.0 L 252.9,208.3 L 252.8,210.8 L 253.3,211.6 L 254.9,213.7 L 256.2,222.4 L 258.6,224.6 L 262.3,224.6 L 263.8,224.8 L 265.4,225.1 L 266.9,225.4 L 270.0,226.7 L 270.9,228.1 L 271.7,228.2 L 273.2,228.9 L 273.2,229.7 L 272.4,230.7 L 272.7,232.2 L 274.2,233.8 L 274.9,233.5 L 275.9,234.0 L 279.5,234.1 L 282.5,235.4 L 284.9,237.6 L 286.6,241.3 L 288.0,242.6 L 288.8,244.1 L 289.4,246.2 L 288.4,248.4 L 288.4,251.5 L 288.6,253.4 L 289.8,255.3 L 290.0,257.7 L 291.4,258.9 L 292.4,260.4 L 292.6,262.6 L 294.3,264.4 L 295.3,266.8 L 295.6,273.8 L 295.3,275.1 L 295.3,279.0 L 295.1,280.4 L 294.9,284.1 L 291.6,291.4 L 290.2,295.3 L 290.0,300.6 L 289.8,303.6 L 289.4,305.3 L 288.0,308.3 L 287.7,309.3 L 287.6,310.4 L 286.8,316.4 L 286.1,319.1 L 284.4,321.2 L 284.3,324.6 L 283.5,329.1 L 283.4,331.4 L 279.9,341.8 L 279.7,343.1 L 279.2,344.7 L 277.7,346.9 L 273.4,349.7 L 269.3,352.2 L 266.2,353.9 L 264.0,355.5 L 262.4,356.6 L 258.2,357.9 L 255.6,358.1 L 253.7,358.6 L 246.8,358.9 L 244.8,356.9 L 243.3,357.1 L 243.0,357.3 L 242.3,357.6 L 242.5,356.7 L 242.8,355.4 L 242.3,355.0 L 236.1,354.2 L 232.2,355.4 L 228.9,356.2 L 228.3,356.7 L 228.7,357.8 L 229.2,358.5 L 228.4,359.8 L 226.8,360.0 L 223.9,357.7 L 223.3,356.1 L 223.2,354.8 L 224.2,353.1 L 223.7,352.6 L 223.2,352.4 L 222.8,351.0 L 220.6,348.7 L 219.2,348.5 L 218.0,350.4 L 216.2,350.6 L 214.7,349.7 L 213.7,348.5 L 213.0,345.6 L 212.1,344.1 L 209.8,342.6 L 208.6,342.3 L 205.0,342.7 L 201.3,343.8 L 194.4,347.4 L 191.9,348.5 L 188.8,349.3 L 184.8,351.7 L 182.7,352.1 L 181.5,351.4 L 179.9,351.4 L 179.3,351.4 L 179.3,349.8 L 179.8,347.8 L 179.9,346.2 L 179.9,343.8 L 180.7,341.8 L 180.7,339.0 L 180.1,338.0 L 180.3,336.7 L 180.8,335.7 L 180.9,334.2 L 181.3,333.0 L 183.1,332.0 L 183.3,330.7 L 184.5,328.3 L 186.6,326.2 L 188.8,325.1 L 190.4,324.9 L 190.7,324.2 L 192.0,323.0 L 197.5,320.3 L 200.7,319.2 L 200.9,319.1 L 204.6,317.5 L 206.5,317.2 L 210.5,316.8 L 211.9,316.1 L 212.1,314.8 L 211.7,310.2 L 211.9,308.2 L 213.0,306.1 L 212.8,304.1 L 212.3,303.2 L 212.3,300.9 L 212.9,299.8 L 212.1,298.7 L 212.3,296.6 L 211.0,293.6 L 210.6,291.9 L 210.1,290.3 L 210.3,288.8 L 211.3,286.4 L 212.0,283.4" fill="none" stroke="black" stroke-width="2"/>
</svg>