<?xml version="1.0" encoding="UTF-8"?>
<svg width="400" height="400" viewBox="0 0 400 400" xmlns="http://www.w3.org/2000/svg">
  <rect width="400" height="400" fill="white"/>
  <path d="M 106.2,299.8 L 106.5,294.7 L 107.1,294.1 L 107.0,291.7 L 105.7,289.0 L 105.4,287.1 L 105.0,285.9 L 102.8,284.0 L 99.0,278.9 L 98.7,275.4 L 96.3,272.4 L 93.9,271.9 L 92.8,270.6 L 92.3,268.3 L 92.9,263.6 L 93.9,261.5 L 93.9,259.3 L 92.9,257.9 L 90.9,257.2 L 90.2,256.3 L 89.5,254.5 L 88.6,253.7 L 87.0,253.5 L 83.7,249.4 L 83.6,248.1 L 81.7,246.4 L 81.1,243.9 L 78.5,239.5 L 77.4,238.4 L 74.1,236.6 L 73.0,236.7 L 72.2,234.3 L 73.1,232.5 L 72.9,231.9 L 72.3,231.1 L 72.2,229.0 L 70.2,227.2 L 69.6,225.2 L 70.4,221.7 L 69.6,220.2 L 67.4,220.1 L 66.5,219.5 L 66.9,217.9 L 65.5,216.6 L 65.2,215.9 L 63.8,214.8 L 62.3,214.4 L 59.7,213.1 L 59.0,213.0 L 49.8,210.4 L 46.8,208.6 L 44.2,205.9 L 43.4,205.3 L 40.3,204.4 L 40.0,204.5 L 48.7,182.7 L 48.9,182.2 L 49.0,182.8 L 50.0,182.6 L 52.4,181.0 L 55.2,180.7 L 58.6,179.6 L 60.3,179.5 L 70.2,180.1 L 70.5,181.8 L 74.1,181.0 L 75.7,181.5 L 76.7,181.4 L 83.1,179.0 L 87.3,176.8 L 89.5,176.2 L 91.1,176.1 L 92.8,174.7 L 93.1,172.8 L 94.8,170.8 L 96.6,169.8 L 98.4,169.5 L 101.9,169.8 L 105.2,171.1 L 107.1,172.5 L 106.9,176.9 L 105.2,185.3 L 101.7,190.2 L 101.5,192.1 L 103.4,197.0 L 105.2,198.8 L 105.3,200.0 L 106.0,201.1 L 107.7,201.4 L 108.4,202.7 L 110.3,202.9 L 111.2,203.4 L 113.7,203.6 L 113.9,205.4 L 113.1,206.9 L 112.7,208.1 L 114.4,209.6 L 115.6,209.3 L 117.0,209.2 L 117.7,208.8 L 119.1,209.6 L 120.6,208.7 L 122.6,208.8 L 122.7,210.2 L 123.4,211.2 L 124.3,211.4 L 126.6,210.8 L 127.9,209.6 L 128.8,209.6 L 132.0,211.5 L 132.3,213.2 L 131.4,215.8 L 132.2,216.5 L 134.0,216.1 L 135.4,217.7 L 136.4,217.9 L 139.0,219.9 L 140.7,220.2 L 141.2,221.2 L 141.8,222.0 L 145.0,223.9 L 148.0,226.6 L 148.3,228.2 L 149.3,229.0 L 150.6,228.6 L 151.1,230.0 L 152.5,230.9 L 157.8,232.4 L 159.4,231.9 L 159.6,233.2 L 160.3,234.3 L 162.2,233.9 L 166.0,233.4 L 167.4,232.4 L 168.1,232.3 L 169.4,231.2 L 171.3,231.1 L 176.8,226.1 L 178.9,226.2 L 180.8,227.1 L 181.3,227.6 L 182.1,227.5 L 183.1,226.7 L 183.5,224.8 L 187.7,221.9 L 189.4,222.0 L 190.6,222.7 L 191.4,222.5 L 192.8,221.4 L 193.5,221.7 L 196.0,221.8 L 197.2,221.3 L 197.4,221.8 L 197.3,222.2 L 197.4,223.3 L 198.1,223.3 L 198.3,224.3 L 199.0,223.9 L 199.0,223.4 L 198.4,223.4 L 198.3,222.7 L 200.2,222.5 L 201.6,221.2 L 203.9,218.3 L 204.9,215.4 L 205.7,214.5 L 204.9,213.6 L 204.5,212.6 L 202.9,212.6 L 202.9,210.9 L 204.8,208.4 L 204.7,206.8 L 210.5,202.6 L 210.6,201.4 L 211.0,199.6 L 212.8,197.5 L 214.0,197.8 L 215.3,197.6 L 215.9,196.9 L 216.5,194.1 L 217.8,190.9 L 219.0,189.7 L 219.5,188.6 L 222.7,186.0 L 223.4,184.6 L 225.1,182.2 L 226.3,180.0 L 227.4,179.2 L 227.8,178.9 L 230.3,173.9 L 231.0,171.6 L 232.7,169.0 L 233.7,167.0 L 233.6,166.2 L 232.1,165.5 L 232.8,163.4 L 233.3,162.7 L 234.2,162.5 L 237.2,159.2 L 239.6,157.7 L 240.5,157.6 L 241.1,157.1 L 242.1,154.5 L 243.1,151.9 L 244.5,149.6 L 245.1,148.8 L 246.4,147.9 L 246.4,145.8 L 244.9,142.2 L 246.1,140.7 L 247.5,140.4 L 249.2,140.5 L 251.0,138.6 L 252.4,135.9 L 253.2,133.4 L 252.6,131.4 L 252.1,129.6 L 251.9,126.7 L 253.0,124.3 L 254.4,123.1 L 256.7,122.6 L 260.7,122.9 L 261.3,124.4 L 262.6,124.3 L 263.0,123.6 L 263.2,122.4 L 263.9,122.5 L 265.7,122.3 L 267.0,121.0 L 268.0,119.4 L 269.5,119.1 L 269.3,118.2 L 268.4,118.2 L 268.1,116.7 L 266.4,115.2 L 266.6,113.7 L 268.2,110.1 L 269.9,106.9 L 273.7,102.6 L 275.7,101.7 L 277.2,100.4 L 277.3,98.6 L 278.6,97.4 L 280.4,96.5 L 283.4,94.5 L 285.6,93.5 L 287.4,92.3 L 290.6,90.7 L 291.6,89.2 L 292.1,87.1 L 293.8,86.1 L 294.8,84.5 L 296.8,83.7 L 298.7,81.6 L 300.7,80.1 L 301.3,77.6 L 302.5,76.3 L 305.7,75.8 L 310.4,72.7 L 312.2,72.6 L 313.2,73.3 L 313.9,75.7 L 313.9,79.5 L 312.1,82.1 L 311.5,85.6 L 311.8,86.6 L 312.5,86.5 L 314.4,84.9 L 316.0,82.1 L 316.7,80.0 L 318.2,78.8 L 319.1,76.8 L 320.1,75.8 L 322.5,75.9 L 323.3,77.4 L 323.9,80.3 L 323.3,82.6 L 322.3,83.3 L 314.6,91.3 L 314.0,93.0 L 310.6,99.1 L 310.3,100.2 L 310.8,101.0 L 311.9,101.4 L 314.0,103.1 L 317.1,102.8 L 317.4,103.0 L 319.3,103.4 L 322.1,105.1 L 323.1,106.5 L 324.3,107.8 L 325.3,108.1 L 327.1,109.2 L 328.4,108.9 L 330.1,107.7 L 331.0,108.8 L 333.1,107.8 L 336.6,105.4 L 338.4,104.8 L 340.5,103.3 L 341.7,101.3 L 342.2,100.9 L 342.8,101.8 L 346.3,99.1 L 347.3,99.3 L 347.9,100.0 L 348.7,100.3 L 353.5,96.9 L 355.1,96.2 L 356.4,94.7 L 358.2,95.7 L 360.0,97.6 L 358.6,99.2 L 359.4,102.2 L 358.3,103.8 L 358.0,105.2 L 358.6,106.5 L 358.3,107.0 L 354.3,108.3 L 353.2,109.1 L 352.0,110.8 L 350.2,116.9 L 349.6,118.0 L 347.9,119.6 L 345.7,120.6 L 344.0,122.5 L 342.6,124.5 L 342.5,128.1 L 343.6,128.4 L 344.7,129.0 L 344.3,133.5 L 346.4,142.0 L 346.5,144.9 L 347.2,149.6 L 347.4,151.1 L 346.7,152.8 L 347.0,155.0 L 347.0,159.6 L 346.2,162.3 L 343.4,164.4 L 341.7,167.2 L 340.0,169.4 L 339.5,172.0 L 337.6,175.1 L 335.2,177.7 L 333.6,178.7 L 332.3,180.0 L 331.2,181.9 L 330.0,182.9 L 325.6,182.7 L 323.4,183.2 L 321.4,183.3 L 315.7,181.6 L 312.6,182.2 L 310.8,182.9 L 309.2,183.7 L 305.5,189.3 L 305.0,192.2 L 304.3,193.8 L 304.5,196.3 L 305.1,197.8 L 306.6,198.3 L 307.1,200.2 L 308.2,202.4 L 308.8,205.3 L 309.9,206.5 L 313.3,208.9 L 315.2,211.3 L 316.1,213.0 L 316.5,216.0 L 317.4,219.0 L 317.6,220.8 L 316.9,223.6 L 315.8,224.1 L 313.5,228.0 L 312.5,230.1 L 312.8,231.7 L 312.4,232.5 L 310.4,234.0 L 308.0,234.0 L 306.2,234.4 L 304.4,235.6 L 302.6,236.3 L 300.7,238.5 L 300.4,240.1 L 299.5,241.3 L 299.4,243.6 L 300.4,245.2 L 300.7,247.6 L 300.0,250.0 L 297.8,252.4 L 291.1,257.6 L 276.7,257.5 L 275.7,258.2 L 274.7,261.0 L 270.3,265.1 L 267.1,267.0 L 264.9,267.4 L 261.7,271.5 L 260.4,273.9 L 256.8,277.2 L 254.8,278.2 L 248.5,278.1 L 244.7,279.7 L 241.8,279.7 L 241.3,281.3 L 239.3,283.3 L 236.5,289.9 L 236.4,292.4 L 239.9,296.0 L 240.5,298.7 L 239.5,301.6 L 235.3,307.5 L 234.9,308.0 L 230.7,312.9 L 228.9,313.7 L 227.4,313.7 L 226.2,313.7 L 222.7,314.7 L 220.2,315.0 L 217.0,315.0 L 207.5,319.7 L 201.2,314.2 L 202.5,313.0 L 203.5,312.4 L 204.7,311.5 L 205.5,311.2 L 210.9,305.4 L 212.1,303.4 L 211.9,302.8 L 210.4,302.2 L 208.7,300.4 L 207.4,296.4 L 204.4,292.2 L 203.2,290.9 L 201.1,289.0 L 199.7,289.0 L 197.1,290.8 L 195.2,292.4 L 188.4,296.0 L 187.0,297.5 L 182.3,303.2 L 181.7,306.6 L 180.9,308.2 L 180.3,312.6 L 180.6,314.5 L 180.7,317.7 L 176.2,320.8 L 174.5,321.0 L 167.6,318.3 L 166.4,318.0 L 165.3,317.4 L 162.9,317.0 L 153.2,316.6 L 151.7,316.9 L 145.6,316.5 L 144.7,316.3 L 143.3,315.5 L 140.1,315.4 L 139.9,316.6 L 138.3,319.6 L 138.1,321.0 L 134.0,324.5 L 133.4,325.5 L 131.9,327.1 L 130.3,327.4 L 128.2,326.2 L 126.7,321.3 L 127.2,319.0 L 125.8,316.6 L 124.4,314.7 L 123.7,313.3 L 120.7,309.2 L 117.1,305.1 L 115.5,304.5 L 114.2,303.0 L 111.1,302.0 L 108.1,301.7 L 106.5,300.3 L 106.2,299.8" fill="none" stroke="black" stroke-width="2"/>
</svg>