<?xml version="1.0" encoding="UTF-8"?>
<svg width="400" height="400" viewBox="0 0 400 400" xmlns="http://www.w3.org/2000/svg">
  <rect width="400" height="400" fill="white"/>
  <path d="M 89.9,193.6 L 90.0,193.6 L 90.4,193.3 L 92.1,191.5 L 92.7,190.6 L 92.5,189.9 L 92.9,189.5 L 93.5,189.5 L 93.6,188.8 L 93.1,188.5 L 92.6,188.4 L 92.8,187.8 L 92.8,187.2 L 92.6,186.6 L 92.7,186.0 L 93.6,184.8 L 93.7,183.4 L 92.9,182.8 L 91.6,182.8 L 90.9,183.6 L 90.3,183.9 L 89.9,184.1 L 89.1,184.1 L 88.9,183.5 L 88.2,183.1 L 86.2,183.0 L 86.1,181.5 L 86.4,180.4 L 87.2,179.8 L 88.6,179.3 L 89.5,178.9 L 91.5,178.9 L 93.1,179.6 L 94.1,179.6 L 95.3,178.8 L 95.9,178.8 L 96.5,179.2 L 97.7,179.1 L 98.2,178.8 L 99.5,176.4 L 100.2,175.8 L 100.6,175.8 L 101.1,175.1 L 101.3,174.1 L 101.7,174.3 L 102.0,174.1 L 102.0,173.4 L 101.7,173.1 L 101.8,172.6 L 102.3,171.9 L 103.0,171.6 L 103.7,172.6 L 104.1,172.4 L 104.6,171.9 L 105.0,171.6 L 105.6,170.5 L 104.8,169.6 L 105.0,169.0 L 104.6,168.6 L 104.4,168.3 L 104.6,167.9 L 105.0,167.3 L 105.0,166.6 L 104.6,166.3 L 104.5,166.2 L 104.5,165.9 L 104.6,165.7 L 105.1,165.0 L 104.9,163.7 L 105.0,162.8 L 104.7,162.2 L 104.6,162.2 L 104.6,162.1 L 104.6,162.0 L 104.7,161.7 L 105.1,161.3 L 105.0,160.8 L 104.6,160.6 L 104.5,160.5 L 104.6,160.4 L 104.8,160.2 L 104.6,159.9 L 104.6,159.8 L 104.6,159.6 L 104.6,159.4 L 104.6,159.4 L 104.0,158.8 L 104.0,158.3 L 104.6,157.6 L 106.4,155.5 L 107.5,155.5 L 109.0,158.4 L 111.5,160.8 L 112.5,162.2 L 112.6,162.3 L 113.1,163.8 L 113.5,164.3 L 114.1,164.4 L 115.9,166.3 L 116.9,166.3 L 117.3,166.7 L 117.9,166.9 L 118.7,167.9 L 119.2,168.0 L 119.6,167.2 L 120.3,167.0 L 122.0,167.3 L 122.8,166.7 L 123.4,166.9 L 123.8,166.7 L 124.4,166.8 L 124.9,167.3 L 125.3,167.4 L 125.9,166.8 L 126.3,166.9 L 126.3,167.5 L 125.1,168.8 L 125.0,169.6 L 125.3,169.9 L 126.0,169.8 L 126.6,169.5 L 126.9,168.6 L 127.6,168.2 L 128.5,167.5 L 128.3,167.2 L 127.5,166.5 L 127.6,166.0 L 128.0,166.0 L 128.2,166.3 L 129.3,166.5 L 129.9,166.8 L 131.1,166.7 L 132.8,165.7 L 134.3,166.3 L 135.6,166.3 L 136.7,165.5 L 138.3,165.4 L 138.9,165.3 L 143.9,164.9 L 145.5,163.9 L 146.5,163.2 L 147.5,162.2 L 148.2,161.6 L 150.5,161.6 L 152.5,160.4 L 153.2,159.8 L 155.7,158.4 L 156.6,157.5 L 156.7,157.2 L 157.4,156.9 L 158.7,156.0 L 160.2,154.4 L 160.9,154.1 L 162.3,154.0 L 163.7,153.6 L 163.9,153.0 L 164.0,152.1 L 165.8,152.0 L 166.0,151.9 L 165.5,151.4 L 166.2,151.0 L 166.6,150.7 L 169.2,150.6 L 169.5,150.5 L 169.2,149.9 L 169.1,149.2 L 168.1,148.2 L 168.2,147.9 L 168.8,147.8 L 168.9,147.5 L 169.6,147.1 L 169.9,146.2 L 170.5,146.2 L 171.1,145.5 L 171.4,144.9 L 171.5,144.5 L 172.3,143.5 L 173.5,142.7 L 173.7,142.0 L 173.8,141.0 L 174.3,140.6 L 174.7,140.9 L 175.0,140.8 L 175.5,140.2 L 175.8,138.9 L 175.7,138.2 L 177.2,136.7 L 177.4,136.4 L 177.6,135.8 L 178.0,135.4 L 178.5,134.5 L 179.8,132.7 L 180.6,131.8 L 182.2,130.3 L 183.8,129.3 L 184.9,129.0 L 185.4,127.6 L 185.7,127.4 L 186.3,127.5 L 186.7,127.0 L 187.2,127.1 L 187.6,126.7 L 187.7,126.2 L 189.9,124.0 L 191.3,121.5 L 191.6,121.7 L 190.0,124.6 L 189.4,127.4 L 188.9,127.9 L 188.7,129.7 L 188.3,130.0 L 187.6,132.4 L 187.3,132.7 L 187.0,134.7 L 187.3,135.1 L 186.9,135.8 L 186.8,137.3 L 188.5,136.8 L 190.5,136.7 L 191.2,136.4 L 191.8,136.8 L 193.3,136.0 L 193.3,135.6 L 192.5,135.1 L 192.8,134.7 L 193.4,134.5 L 194.3,134.6 L 194.5,133.7 L 194.8,133.5 L 194.9,133.2 L 194.3,132.7 L 194.6,131.2 L 195.5,131.0 L 195.8,130.2 L 196.2,129.6 L 197.2,129.7 L 198.0,129.3 L 199.8,129.2 L 202.1,130.1 L 203.9,130.2 L 204.6,129.8 L 207.4,130.0 L 209.9,129.6 L 211.2,128.9 L 215.1,128.0 L 215.2,127.9 L 216.2,127.0 L 216.3,125.3 L 216.8,125.0 L 217.4,124.9 L 218.3,123.3 L 218.3,122.8 L 219.0,122.1 L 220.2,121.1 L 220.8,121.1 L 221.4,121.3 L 222.6,122.7 L 223.6,124.0 L 223.9,125.0 L 224.5,126.1 L 224.1,126.7 L 223.7,127.0 L 223.6,127.6 L 224.2,128.0 L 224.2,128.9 L 224.9,129.3 L 224.3,129.8 L 224.5,130.2 L 225.0,130.2 L 225.4,129.9 L 225.7,130.1 L 225.1,130.8 L 224.8,130.8 L 224.8,131.2 L 225.5,131.6 L 226.6,130.9 L 226.8,130.5 L 227.3,130.3 L 228.4,129.7 L 228.0,129.2 L 226.9,129.0 L 226.1,129.3 L 225.4,128.5 L 225.6,126.2 L 225.7,125.9 L 226.4,125.4 L 226.5,124.9 L 226.2,124.4 L 226.9,124.1 L 227.1,124.1 L 229.0,124.0 L 229.8,123.4 L 229.6,122.9 L 229.1,122.7 L 228.0,121.3 L 228.1,120.9 L 229.0,120.7 L 230.8,120.9 L 233.1,121.4 L 234.9,120.6 L 236.0,121.2 L 236.8,120.7 L 237.2,120.3 L 237.4,120.6 L 237.1,121.5 L 236.8,121.9 L 236.7,122.5 L 235.9,123.5 L 235.8,123.9 L 236.2,124.3 L 237.2,124.2 L 238.2,123.7 L 238.5,123.2 L 239.6,123.5 L 242.5,122.3 L 243.0,122.2 L 243.8,121.4 L 244.5,120.7 L 245.3,119.7 L 246.7,118.6 L 246.2,119.6 L 246.0,120.2 L 246.8,120.8 L 246.9,121.3 L 246.7,121.9 L 246.8,122.6 L 245.9,122.7 L 246.0,121.9 L 245.2,121.3 L 243.6,122.1 L 242.3,123.6 L 241.5,125.5 L 238.7,128.0 L 237.5,128.5 L 237.2,129.3 L 236.7,130.0 L 235.5,130.3 L 233.8,130.9 L 232.7,131.9 L 231.9,131.9 L 230.8,132.6 L 229.8,133.5 L 230.0,134.2 L 229.6,134.9 L 226.6,135.8 L 225.3,136.4 L 225.2,137.3 L 225.0,137.6 L 225.2,138.4 L 226.0,139.0 L 225.8,139.4 L 226.1,139.7 L 226.4,139.8 L 226.9,140.2 L 226.9,141.9 L 227.1,142.5 L 227.1,143.3 L 226.2,144.1 L 223.4,144.1 L 222.5,144.4 L 221.3,145.4 L 219.6,147.9 L 216.5,151.6 L 215.3,152.8 L 215.2,152.8 L 214.6,152.8 L 213.8,152.3 L 213.4,152.9 L 213.0,152.9 L 212.3,153.3 L 211.1,152.9 L 210.3,153.6 L 208.8,155.4 L 207.9,155.6 L 206.8,156.5 L 206.0,156.6 L 205.5,157.2 L 205.4,157.5 L 205.6,158.2 L 206.4,158.0 L 207.0,157.4 L 208.8,157.5 L 209.8,157.3 L 211.1,156.8 L 211.4,157.0 L 211.6,158.3 L 211.3,159.1 L 210.8,159.9 L 210.7,160.6 L 211.2,161.5 L 211.4,162.2 L 211.5,162.2 L 211.9,162.5 L 211.7,162.8 L 211.2,164.6 L 210.7,166.2 L 207.8,166.3 L 205.9,167.0 L 204.8,168.1 L 204.0,168.2 L 203.9,168.7 L 203.3,168.8 L 203.2,169.1 L 203.6,169.3 L 203.7,169.6 L 203.3,169.6 L 203.3,170.2 L 203.5,170.5 L 205.6,170.1 L 206.4,170.6 L 207.8,170.1 L 208.3,169.2 L 209.1,168.3 L 209.9,168.3 L 210.0,168.7 L 209.8,169.5 L 210.7,170.4 L 211.3,170.5 L 211.8,170.5 L 212.4,170.0 L 213.2,169.8 L 214.4,168.9 L 215.2,168.9 L 216.5,168.9 L 216.9,168.6 L 219.0,168.7 L 219.3,168.2 L 220.6,168.3 L 220.9,168.1 L 221.3,167.4 L 221.8,167.0 L 222.6,166.8 L 223.9,166.2 L 224.5,166.3 L 225.1,166.5 L 226.1,166.3 L 226.8,166.5 L 227.6,166.4 L 228.5,167.1 L 228.9,167.0 L 229.0,166.6 L 229.2,166.4 L 228.5,165.9 L 228.7,165.5 L 229.6,165.0 L 229.7,164.3 L 230.2,164.0 L 231.0,163.8 L 231.4,163.5 L 231.4,162.5 L 231.5,162.2 L 232.0,160.9 L 231.8,160.5 L 231.6,160.3 L 232.5,159.2 L 232.7,158.3 L 234.6,154.9 L 235.1,153.2 L 236.3,152.0 L 237.1,151.8 L 238.0,150.6 L 238.3,149.9 L 239.0,149.9 L 239.4,149.0 L 239.6,148.9 L 240.0,148.7 L 241.6,147.5 L 242.9,146.1 L 243.8,145.8 L 244.9,144.8 L 245.3,145.1 L 245.4,145.6 L 244.9,147.2 L 245.1,147.5 L 245.8,147.4 L 246.6,147.8 L 247.0,147.8 L 249.7,145.5 L 250.1,145.8 L 249.4,147.0 L 247.7,148.8 L 247.8,149.3 L 248.3,149.3 L 249.6,148.9 L 253.2,149.0 L 253.5,148.2 L 254.5,147.5 L 255.0,146.5 L 256.3,145.6 L 257.1,145.2 L 261.3,142.3 L 263.1,140.8 L 265.7,138.1 L 265.4,137.3 L 266.6,137.8 L 267.4,138.5 L 267.0,139.1 L 267.6,139.4 L 268.6,139.4 L 268.6,139.1 L 268.1,138.5 L 268.2,138.2 L 268.8,138.2 L 269.1,137.4 L 269.4,137.1 L 269.7,137.6 L 270.1,137.4 L 269.8,137.0 L 270.6,136.4 L 271.8,136.1 L 272.7,135.7 L 273.7,134.5 L 274.4,133.3 L 275.1,132.6 L 276.4,131.6 L 276.7,131.1 L 277.2,130.6 L 278.0,129.2 L 278.1,126.8 L 278.5,126.5 L 279.0,126.6 L 279.1,126.9 L 279.7,126.8 L 280.2,126.4 L 280.3,125.6 L 281.7,124.9 L 282.9,125.8 L 285.2,125.5 L 285.8,124.4 L 286.4,124.3 L 286.8,124.4 L 287.1,125.0 L 287.7,125.3 L 288.6,125.3 L 289.9,124.7 L 291.2,123.8 L 291.9,123.1 L 292.5,122.8 L 293.7,121.7 L 296.5,120.2 L 296.9,119.9 L 299.4,118.9 L 300.3,120.2 L 300.6,120.1 L 300.7,118.8 L 301.2,118.0 L 301.6,117.7 L 303.5,117.1 L 304.5,116.7 L 305.3,117.0 L 305.9,117.8 L 307.2,119.1 L 307.6,120.2 L 308.7,120.1 L 308.9,120.0 L 309.1,120.1 L 309.8,120.9 L 309.9,121.6 L 309.4,122.1 L 308.3,122.3 L 306.2,122.9 L 304.4,122.8 L 304.0,124.1 L 303.2,124.0 L 302.1,124.8 L 302.1,125.9 L 301.8,126.2 L 301.3,126.3 L 300.2,126.9 L 299.5,127.0 L 298.4,128.8 L 297.7,128.5 L 296.6,129.0 L 296.1,130.2 L 295.9,130.7 L 295.8,131.2 L 295.3,131.6 L 295.2,132.3 L 296.2,133.2 L 296.9,133.1 L 297.3,133.8 L 297.0,134.1 L 296.9,134.5 L 297.8,135.4 L 298.0,136.0 L 299.6,136.9 L 301.3,136.8 L 301.6,136.7 L 302.4,137.2 L 303.6,136.8 L 304.6,135.9 L 305.9,134.5 L 306.4,134.5 L 306.7,134.8 L 308.2,134.5 L 308.9,134.0 L 309.0,133.6 L 309.7,133.5 L 310.3,133.2 L 311.2,133.2 L 313.1,133.3 L 313.6,132.9 L 314.1,132.8 L 314.6,132.5 L 315.6,132.8 L 315.6,133.7 L 315.9,133.9 L 316.5,133.7 L 316.6,133.2 L 317.3,133.2 L 318.2,133.9 L 318.9,133.9 L 320.0,134.0 L 320.6,134.4 L 320.7,134.5 L 320.7,134.8 L 320.4,135.2 L 318.9,135.3 L 318.3,135.7 L 316.9,136.0 L 316.5,136.6 L 316.5,137.6 L 316.2,137.8 L 314.1,139.0 L 314.2,139.3 L 316.3,140.8 L 316.1,141.3 L 316.6,142.1 L 316.8,142.0 L 317.2,141.5 L 317.8,141.2 L 317.9,140.7 L 318.2,140.5 L 318.6,140.7 L 318.5,142.0 L 319.0,142.2 L 319.5,142.8 L 320.3,142.7 L 320.5,142.9 L 320.9,142.8 L 321.1,142.1 L 321.6,142.3 L 322.1,142.8 L 322.8,142.3 L 323.0,142.6 L 322.6,143.3 L 321.7,143.3 L 321.5,143.8 L 321.7,144.2 L 322.3,143.8 L 322.6,144.1 L 323.1,144.3 L 323.4,144.5 L 324.9,145.2 L 325.8,145.7 L 325.8,145.8 L 326.3,146.3 L 327.1,146.5 L 327.9,146.2 L 327.9,146.6 L 328.9,147.2 L 329.1,147.7 L 330.9,147.5 L 331.8,149.3 L 332.6,149.6 L 333.3,149.8 L 333.7,150.0 L 333.6,150.7 L 334.0,151.7 L 334.8,151.9 L 335.2,152.3 L 336.3,153.7 L 336.8,154.2 L 337.7,154.4 L 337.9,154.9 L 338.9,156.0 L 339.5,155.8 L 339.6,156.0 L 339.3,156.5 L 339.2,156.9 L 338.9,157.4 L 338.7,159.7 L 339.6,161.0 L 339.7,161.9 L 339.5,162.2 L 339.4,162.2 L 338.9,162.3 L 338.2,162.7 L 337.6,162.8 L 336.7,162.3 L 336.7,162.2 L 336.0,162.0 L 335.2,161.7 L 334.3,162.0 L 333.9,161.9 L 332.7,160.9 L 331.0,160.2 L 330.7,159.9 L 329.0,159.4 L 328.2,159.0 L 327.9,158.3 L 327.6,157.9 L 327.6,157.3 L 327.0,156.8 L 326.8,157.2 L 326.0,156.9 L 325.8,156.9 L 325.3,157.0 L 325.1,158.1 L 324.5,158.6 L 323.9,158.8 L 323.2,159.5 L 323.0,160.5 L 322.2,161.2 L 322.0,161.7 L 321.9,162.2 L 321.9,162.3 L 322.1,163.3 L 322.6,164.1 L 323.3,163.9 L 324.2,164.4 L 324.0,165.5 L 323.6,165.8 L 322.5,166.0 L 321.8,166.6 L 321.6,167.4 L 322.5,168.5 L 323.2,168.4 L 323.9,168.0 L 324.6,168.2 L 324.8,167.7 L 325.6,167.2 L 325.8,167.2 L 327.9,167.4 L 328.2,167.8 L 328.8,167.6 L 329.2,167.6 L 329.5,168.1 L 330.4,168.7 L 331.4,168.6 L 331.8,168.3 L 331.9,167.8 L 332.8,166.6 L 333.6,166.5 L 335.2,167.4 L 336.1,168.3 L 337.5,168.4 L 338.2,168.6 L 338.9,168.6 L 340.4,167.3 L 340.7,167.5 L 341.3,168.2 L 342.1,168.5 L 342.7,168.3 L 343.3,168.5 L 343.8,168.3 L 344.0,168.7 L 343.7,169.0 L 345.0,169.7 L 347.2,169.7 L 347.9,169.2 L 348.0,168.9 L 348.7,168.6 L 349.5,168.6 L 350.7,169.4 L 351.4,169.5 L 352.3,170.2 L 353.7,170.4 L 355.4,170.6 L 357.0,171.5 L 357.8,172.2 L 359.2,172.3 L 359.6,172.7 L 359.7,173.6 L 360.0,174.0 L 360.0,175.1 L 359.7,175.5 L 358.8,175.7 L 356.1,176.8 L 356.0,177.6 L 356.6,178.9 L 355.4,179.8 L 353.8,180.4 L 351.5,180.4 L 349.6,179.7 L 348.4,179.8 L 346.5,178.8 L 344.8,178.7 L 344.1,178.9 L 342.7,178.3 L 341.5,178.0 L 340.1,178.0 L 340.1,179.1 L 339.9,179.8 L 339.1,180.6 L 337.4,180.8 L 335.8,180.9 L 335.0,180.5 L 333.5,178.7 L 332.4,179.1 L 329.8,182.1 L 328.7,182.1 L 328.3,181.8 L 328.0,181.4 L 327.6,181.2 L 327.2,181.7 L 325.8,182.1 L 325.4,182.3 L 321.9,182.2 L 320.8,182.4 L 319.0,182.9 L 318.8,183.4 L 319.2,183.8 L 319.1,186.3 L 319.6,187.2 L 320.7,187.4 L 321.0,187.9 L 322.4,188.1 L 325.8,188.3 L 327.7,188.3 L 329.5,188.1 L 330.4,187.8 L 331.4,187.7 L 332.2,187.6 L 334.3,187.7 L 335.1,187.6 L 335.7,187.7 L 336.3,188.2 L 339.4,188.4 L 340.3,188.7 L 341.7,188.9 L 341.9,189.1 L 341.3,189.7 L 340.5,189.8 L 338.6,189.1 L 335.6,188.9 L 332.8,189.3 L 330.5,190.0 L 328.9,190.0 L 327.5,189.5 L 325.8,190.0 L 325.0,190.3 L 325.3,190.9 L 324.6,191.6 L 323.2,191.6 L 322.2,192.8 L 321.2,192.8 L 319.0,191.4 L 318.4,191.5 L 317.6,192.0 L 316.7,191.9 L 316.1,191.8 L 315.6,191.8 L 314.4,192.3 L 313.9,192.5 L 313.1,191.7 L 312.4,190.8 L 311.1,190.3 L 311.2,189.8 L 312.2,189.8 L 312.5,189.2 L 312.4,187.8 L 312.5,187.1 L 312.8,187.0 L 311.7,184.0 L 310.5,182.8 L 308.1,183.4 L 307.4,183.3 L 305.7,182.6 L 305.8,182.1 L 306.0,181.3 L 305.8,180.1 L 305.1,179.5 L 304.4,179.2 L 304.6,178.4 L 303.5,177.2 L 303.0,177.1 L 302.6,177.2 L 302.2,177.4 L 302.0,176.6 L 301.7,176.2 L 302.0,175.8 L 301.3,175.0 L 300.9,174.9 L 300.5,174.1 L 297.8,172.4 L 297.7,171.4 L 297.2,170.4 L 296.6,169.5 L 296.1,169.2 L 295.2,168.3 L 293.7,166.9 L 291.8,165.8 L 290.3,165.6 L 288.8,166.6 L 288.5,166.8 L 288.1,166.4 L 287.7,165.9 L 286.7,165.6 L 284.7,166.7 L 283.4,166.8 L 281.9,166.0 L 280.7,164.8 L 279.7,164.1 L 278.9,164.1 L 277.7,163.6 L 276.6,163.9 L 275.0,164.3 L 274.9,165.0 L 274.2,165.7 L 272.1,166.5 L 271.2,167.2 L 270.1,167.9 L 269.9,168.5 L 270.4,169.6 L 270.5,170.3 L 270.9,170.9 L 270.9,171.4 L 269.8,171.8 L 267.7,172.9 L 266.4,173.0 L 265.6,174.0 L 264.7,175.8 L 263.7,175.8 L 263.5,176.6 L 262.7,176.7 L 261.5,175.7 L 261.1,175.6 L 259.4,174.7 L 258.7,174.8 L 257.5,176.7 L 256.3,177.0 L 255.4,177.8 L 254.8,180.6 L 255.7,181.9 L 255.0,182.7 L 255.2,183.4 L 255.9,184.2 L 256.7,184.5 L 257.4,186.2 L 257.2,186.3 L 256.6,186.3 L 256.2,186.6 L 256.0,187.4 L 256.5,187.9 L 256.3,188.3 L 256.4,188.9 L 258.2,189.0 L 258.8,188.6 L 259.2,188.6 L 260.1,188.5 L 260.3,187.8 L 260.8,187.9 L 261.2,188.8 L 260.6,189.3 L 260.4,189.7 L 263.8,189.9 L 264.4,190.3 L 263.9,190.8 L 265.0,191.2 L 266.1,191.1 L 267.6,191.2 L 269.0,190.8 L 270.0,190.7 L 271.7,190.5 L 273.7,190.4 L 275.0,189.9 L 277.2,189.9 L 279.4,189.1 L 283.8,188.1 L 285.4,187.3 L 286.1,186.6 L 286.8,185.8 L 287.4,185.5 L 287.7,186.0 L 288.1,187.1 L 288.5,187.4 L 292.6,187.2 L 292.8,187.4 L 292.5,188.0 L 293.1,189.2 L 295.6,189.0 L 295.8,189.2 L 296.9,189.3 L 297.7,189.5 L 300.9,189.5 L 301.0,190.2 L 300.8,190.4 L 298.1,189.8 L 294.4,190.1 L 293.6,190.4 L 290.9,190.7 L 290.1,191.1 L 289.8,192.2 L 289.7,192.8 L 290.3,193.0 L 293.2,196.8 L 293.3,197.3 L 294.0,197.8 L 292.6,198.4 L 292.6,198.8 L 293.6,199.2 L 295.3,199.2 L 296.1,198.7 L 296.6,198.4 L 298.0,198.0 L 298.5,198.0 L 300.9,197.7 L 301.9,197.3 L 303.5,197.6 L 304.7,197.3 L 305.6,196.8 L 306.2,197.3 L 306.8,198.4 L 307.6,198.9 L 308.0,199.6 L 308.7,199.9 L 309.1,200.4 L 309.9,200.5 L 310.4,201.1 L 312.1,201.3 L 314.0,202.2 L 315.6,202.1 L 316.1,202.1 L 316.7,201.5 L 317.4,201.5 L 317.8,201.9 L 319.6,201.9 L 320.2,202.6 L 320.3,203.2 L 320.3,203.2 L 319.9,204.0 L 319.7,204.3 L 319.9,204.7 L 320.5,204.8 L 321.2,205.1 L 321.7,205.8 L 320.8,206.0 L 321.5,206.8 L 320.0,206.5 L 319.1,206.9 L 318.1,208.9 L 317.8,209.0 L 317.8,208.3 L 317.6,208.0 L 317.2,208.1 L 316.8,208.6 L 314.8,207.9 L 314.1,207.9 L 313.3,207.2 L 312.4,206.8 L 311.7,207.2 L 311.3,207.7 L 310.9,207.9 L 309.4,206.4 L 307.2,203.8 L 305.8,203.8 L 305.6,204.6 L 304.6,204.6 L 304.2,205.0 L 304.2,205.7 L 303.9,206.2 L 303.7,207.1 L 303.0,207.4 L 301.4,207.1 L 296.8,209.1 L 295.4,209.2 L 293.9,208.8 L 292.5,209.6 L 291.9,209.7 L 291.4,209.1 L 290.9,208.4 L 288.3,207.1 L 287.0,206.2 L 284.6,206.1 L 283.9,206.7 L 282.2,209.2 L 281.8,209.2 L 279.8,207.2 L 279.7,206.0 L 279.3,205.4 L 279.0,205.2 L 278.5,204.4 L 276.1,203.0 L 276.5,202.4 L 276.1,202.2 L 276.8,201.8 L 276.3,201.4 L 276.2,201.4 L 276.1,201.4 L 275.2,200.9 L 274.7,200.8 L 274.0,200.3 L 273.4,200.5 L 272.9,201.2 L 272.9,201.2 L 271.8,202.2 L 269.6,202.4 L 269.4,202.7 L 268.2,204.3 L 267.9,203.1 L 268.2,202.6 L 267.1,201.4 L 265.8,201.4 L 264.9,201.4 L 263.7,201.8 L 261.3,203.5 L 260.9,203.4 L 260.4,202.6 L 258.7,202.5 L 257.9,202.8 L 256.1,202.7 L 255.4,203.4 L 254.8,203.5 L 254.1,204.2 L 253.8,204.4 L 253.2,204.4 L 252.8,204.6 L 251.7,204.5 L 251.0,205.1 L 251.3,205.7 L 250.2,206.9 L 249.9,207.1 L 249.2,207.9 L 248.7,208.0 L 247.3,207.1 L 245.6,207.0 L 243.6,207.2 L 242.5,208.2 L 242.0,208.2 L 241.6,209.2 L 240.8,209.3 L 240.0,208.4 L 239.4,208.3 L 239.0,208.5 L 239.6,208.9 L 239.7,209.3 L 239.3,209.3 L 238.4,209.8 L 237.3,210.3 L 236.4,210.3 L 236.3,210.0 L 235.2,209.3 L 234.1,208.9 L 232.8,208.9 L 231.9,209.0 L 231.5,209.7 L 230.6,209.7 L 230.1,209.9 L 226.6,209.8 L 225.2,209.9 L 224.5,209.7 L 223.9,209.8 L 220.9,209.8 L 219.3,210.6 L 218.5,210.9 L 218.2,211.8 L 217.9,212.1 L 217.6,211.8 L 216.5,212.6 L 216.3,213.2 L 216.1,213.5 L 215.8,214.4 L 215.4,214.8 L 215.2,214.8 L 213.5,215.1 L 210.8,216.0 L 209.6,217.3 L 208.5,217.7 L 207.7,218.2 L 206.1,219.6 L 205.9,222.7 L 205.1,223.4 L 203.4,223.6 L 200.6,225.6 L 199.7,225.8 L 198.0,226.7 L 196.5,227.7 L 194.3,228.7 L 193.2,228.8 L 192.3,229.1 L 191.2,229.8 L 190.6,230.0 L 189.2,231.1 L 186.7,232.8 L 185.7,233.2 L 185.6,233.8 L 184.6,234.7 L 183.9,234.5 L 183.3,235.2 L 183.0,236.1 L 182.3,237.1 L 182.6,238.2 L 181.5,239.2 L 180.4,239.3 L 179.6,239.9 L 178.1,240.4 L 177.4,241.2 L 177.2,242.8 L 178.8,246.1 L 179.0,247.3 L 179.0,247.9 L 178.2,249.9 L 177.3,250.8 L 174.7,251.5 L 173.0,251.6 L 172.4,251.9 L 171.4,253.5 L 171.2,254.5 L 170.7,255.0 L 170.1,256.8 L 169.1,257.0 L 167.6,259.4 L 166.1,260.3 L 163.9,260.5 L 163.1,260.2 L 162.4,259.5 L 161.9,259.1 L 161.2,259.0 L 160.3,259.3 L 159.6,260.0 L 159.0,260.7 L 158.2,260.8 L 157.2,260.1 L 155.7,260.0 L 154.5,259.2 L 148.5,257.4 L 146.7,257.6 L 145.1,258.0 L 143.8,259.3 L 140.8,261.6 L 140.1,263.0 L 140.0,264.3 L 140.4,264.6 L 141.8,264.6 L 144.2,263.7 L 144.9,264.3 L 145.4,265.2 L 145.0,266.9 L 145.1,267.8 L 145.1,268.6 L 144.4,269.6 L 144.2,270.9 L 143.8,271.8 L 143.2,272.8 L 143.1,272.9 L 141.7,273.9 L 140.3,273.9 L 138.5,275.3 L 136.8,275.4 L 136.6,276.3 L 136.9,278.2 L 136.8,279.4 L 135.5,280.9 L 135.2,282.5 L 135.1,283.2 L 135.2,283.3 L 134.9,283.3 L 68.4,280.9 L 68.4,280.8 L 68.1,279.8 L 68.4,279.4 L 67.7,278.3 L 67.2,278.3 L 66.5,278.7 L 65.7,278.6 L 65.4,278.1 L 65.5,277.6 L 66.3,277.0 L 67.2,276.7 L 67.6,276.3 L 67.6,274.8 L 68.2,274.1 L 68.7,273.7 L 68.7,272.9 L 68.7,272.5 L 68.2,271.9 L 67.8,270.5 L 68.4,269.8 L 69.8,269.7 L 71.8,269.4 L 72.2,268.5 L 74.2,267.5 L 74.1,267.0 L 73.9,266.9 L 72.7,267.2 L 72.5,267.0 L 71.9,266.9 L 71.1,267.2 L 69.6,267.5 L 69.4,267.3 L 69.9,266.8 L 70.4,266.6 L 72.4,265.9 L 73.6,266.3 L 74.0,266.1 L 73.4,265.6 L 71.4,265.0 L 70.8,265.2 L 69.9,265.4 L 69.0,265.0 L 66.8,266.3 L 65.8,265.5 L 64.9,265.3 L 62.7,265.5 L 61.0,266.5 L 59.9,268.8 L 59.0,269.3 L 58.9,269.8 L 58.3,270.9 L 58.2,271.6 L 58.6,272.1 L 58.6,272.9 L 58.6,273.1 L 58.0,273.5 L 56.9,273.7 L 56.0,274.6 L 55.6,275.1 L 54.8,275.6 L 54.5,275.4 L 54.1,275.3 L 53.9,276.0 L 52.0,278.2 L 51.4,279.5 L 51.3,280.3 L 51.3,280.2 L 40.0,273.9 L 40.0,273.9 L 40.2,273.4 L 40.8,272.9 L 41.1,272.6 L 44.8,265.5 L 45.9,264.4 L 46.9,262.9 L 47.4,262.5 L 48.0,262.2 L 49.5,261.1 L 50.5,259.4 L 51.8,258.5 L 52.8,256.7 L 53.7,255.9 L 53.6,255.5 L 53.8,254.9 L 53.6,253.5 L 53.7,251.5 L 54.0,251.0 L 54.0,249.9 L 54.4,248.3 L 55.5,246.7 L 55.9,245.3 L 56.8,244.3 L 58.4,243.1 L 58.8,242.5 L 59.7,240.3 L 61.0,239.1 L 61.3,238.4 L 62.1,237.7 L 63.3,236.8 L 63.4,235.5 L 64.4,233.7 L 64.0,231.9 L 64.0,229.0 L 64.6,227.4 L 64.5,226.6 L 64.0,226.3 L 62.8,226.0 L 62.6,225.4 L 62.8,224.8 L 62.9,224.3 L 62.1,223.1 L 62.0,221.9 L 61.9,220.9 L 62.3,220.1 L 63.3,218.9 L 64.8,217.3 L 67.0,215.8 L 68.9,215.1 L 70.3,214.3 L 71.1,214.1 L 72.4,212.5 L 72.8,211.2 L 73.9,209.4 L 74.6,208.7 L 75.2,208.6 L 76.9,206.1 L 77.8,205.7 L 78.4,205.0 L 79.7,204.3 L 80.2,203.0 L 81.3,201.9 L 82.4,200.7 L 83.1,200.5 L 83.4,199.8 L 84.4,198.5 L 85.5,197.4 L 86.7,196.0 L 87.5,195.0 L 88.6,194.2 L 89.9,193.6" fill="none" stroke="black" stroke-width="2"/>
</svg>