<?xml version="1.0" encoding="UTF-8"?>
<svg width="400" height="400" viewBox="0 0 400 400" xmlns="http://www.w3.org/2000/svg">
  <rect width="400" height="400" fill="white"/>
  <path d="M 51.0,183.7 L 52.3,184.2 L 53.3,184.4 L 56.3,184.4 L 57.1,184.3 L 60.7,184.4 L 62.1,183.9 L 65.2,182.8 L 66.9,182.2 L 69.1,181.0 L 70.2,180.2 L 74.4,179.1 L 75.8,178.9 L 80.4,179.1 L 82.5,179.6 L 86.2,179.7 L 88.6,179.2 L 91.6,176.9 L 96.8,173.6 L 101.7,172.2 L 106.2,172.2 L 106.7,172.1 L 108.1,171.9 L 113.9,170.4 L 115.5,169.7 L 116.0,169.7 L 116.7,169.3 L 118.3,169.2 L 119.8,168.4 L 121.1,168.3 L 123.1,167.7 L 124.2,167.5 L 125.6,167.3 L 128.2,166.5 L 129.3,166.5 L 129.9,166.7 L 133.4,166.2 L 134.2,166.2 L 135.3,166.6 L 138.1,166.4 L 142.3,166.9 L 146.3,167.2 L 146.6,167.0 L 147.0,166.8 L 147.9,166.6 L 154.4,165.5 L 156.5,165.5 L 160.2,165.2 L 162.9,166.0 L 163.0,166.1 L 164.2,167.4 L 166.7,168.1 L 169.0,168.2 L 169.7,168.4 L 169.9,168.4 L 172.1,168.9 L 173.9,169.4 L 178.2,170.5 L 180.2,171.4 L 180.7,171.4 L 182.5,171.7 L 188.7,172.9 L 189.5,173.2 L 193.3,174.1 L 195.7,174.3 L 196.7,174.6 L 202.3,174.9 L 203.0,175.1 L 204.9,175.2 L 207.6,176.0 L 211.2,176.9 L 212.3,177.4 L 212.7,177.4 L 213.4,177.1 L 215.2,177.2 L 216.8,177.8 L 217.6,178.3 L 218.7,178.7 L 219.5,178.9 L 220.1,179.3 L 222.6,180.5 L 223.4,181.4 L 224.5,182.7 L 225.1,184.6 L 226.0,185.3 L 227.0,185.8 L 227.8,186.5 L 228.6,186.4 L 229.4,186.5 L 232.5,187.4 L 234.2,187.6 L 235.6,188.1 L 238.0,190.1 L 241.5,191.3 L 244.4,191.4 L 245.0,191.8 L 245.1,191.8 L 245.7,191.7 L 246.5,191.9 L 254.1,192.4 L 254.9,192.3 L 257.6,192.3 L 259.8,193.5 L 260.6,193.8 L 261.6,194.4 L 262.5,194.5 L 263.0,194.4 L 263.9,194.9 L 264.9,195.0 L 265.4,194.8 L 266.6,194.8 L 268.0,195.2 L 269.3,195.8 L 270.1,196.5 L 270.6,196.8 L 271.3,197.1 L 272.9,198.2 L 273.0,198.5 L 274.0,200.1 L 274.3,201.2 L 274.9,201.5 L 278.3,202.8 L 283.4,205.2 L 287.0,206.0 L 288.8,206.0 L 289.4,206.1 L 291.1,206.2 L 292.1,206.0 L 298.3,206.1 L 300.4,206.7 L 300.7,206.5 L 300.7,206.5 L 303.4,206.5 L 307.3,207.1 L 309.6,207.3 L 311.9,207.7 L 315.0,208.6 L 316.0,209.4 L 317.5,210.3 L 319.6,210.5 L 321.1,211.1 L 321.3,211.0 L 321.5,211.2 L 322.5,211.1 L 323.6,211.5 L 327.5,211.6 L 328.5,211.7 L 332.2,212.1 L 335.1,212.2 L 337.2,212.0 L 338.9,212.2 L 340.2,212.1 L 342.0,212.3 L 342.9,212.5 L 343.6,212.6 L 344.7,212.7 L 345.8,213.1 L 348.2,213.1 L 350.5,213.9 L 352.2,213.8 L 352.4,213.7 L 354.4,213.4 L 355.2,213.6 L 356.0,214.5 L 356.3,215.1 L 356.8,215.6 L 357.1,215.5 L 358.3,216.0 L 358.3,216.1 L 358.1,216.2 L 357.9,216.5 L 356.6,216.6 L 356.3,216.8 L 356.2,217.2 L 356.3,217.3 L 357.6,217.5 L 357.1,218.1 L 357.0,218.7 L 356.8,218.9 L 355.5,219.1 L 354.8,220.2 L 355.0,220.4 L 355.5,220.4 L 356.2,219.9 L 356.7,220.0 L 356.8,220.4 L 356.4,221.2 L 356.4,221.3 L 357.1,221.5 L 357.1,223.2 L 358.0,223.9 L 358.1,224.2 L 357.9,225.0 L 357.8,225.8 L 358.3,226.2 L 358.5,226.1 L 358.6,224.8 L 359.6,223.9 L 359.9,223.9 L 360.0,224.2 L 359.4,224.5 L 359.4,226.1 L 358.9,226.6 L 357.9,227.1 L 356.7,228.2 L 354.8,228.6 L 353.3,228.6 L 352.3,228.8 L 351.4,229.4 L 348.8,229.4 L 347.4,230.0 L 346.0,230.3 L 345.6,230.7 L 345.5,231.4 L 344.2,232.7 L 343.6,233.3 L 342.4,234.4 L 338.7,234.8 L 337.3,234.4 L 334.1,234.4 L 332.9,234.4 L 332.2,234.4 L 330.1,234.7 L 328.4,233.9 L 327.3,233.2 L 326.5,233.0 L 325.7,233.3 L 323.2,233.2 L 322.2,233.4 L 321.0,233.5 L 319.4,233.3 L 318.3,232.5 L 316.7,230.8 L 315.5,230.2 L 310.1,230.1 L 308.6,230.3 L 303.9,230.5 L 302.5,229.9 L 300.2,229.6 L 299.1,229.0 L 298.8,228.9 L 297.4,229.1 L 296.9,228.9 L 296.0,229.0 L 295.5,229.6 L 294.2,229.7 L 293.2,229.8 L 289.9,229.9 L 288.5,230.1 L 284.2,230.0 L 283.2,229.7 L 279.2,229.4 L 277.6,229.7 L 275.4,229.7 L 273.5,229.9 L 272.5,229.7 L 271.1,228.8 L 270.0,228.6 L 269.2,228.3 L 267.2,226.7 L 266.4,225.8 L 263.9,221.2 L 262.8,219.3 L 261.2,218.4 L 257.7,218.0 L 255.0,217.5 L 253.7,217.0 L 252.6,216.2 L 250.5,216.1 L 249.5,215.9 L 246.1,215.7 L 245.1,215.5 L 244.5,215.4 L 241.9,215.5 L 240.8,215.2 L 239.4,215.8 L 234.9,215.8 L 233.1,215.2 L 231.2,215.1 L 229.9,214.7 L 228.9,214.6 L 228.6,214.4 L 226.6,213.5 L 219.3,212.9 L 218.0,212.6 L 217.5,212.2 L 217.2,211.6 L 216.2,211.1 L 216.0,210.7 L 213.7,210.6 L 208.7,210.4 L 208.0,209.7 L 206.9,210.2 L 205.5,210.3 L 205.0,210.9 L 203.7,211.3 L 202.7,211.3 L 201.3,211.0 L 200.6,210.7 L 199.6,209.8 L 198.6,209.3 L 197.3,209.1 L 196.5,208.4 L 195.0,208.3 L 194.0,208.6 L 191.5,208.9 L 190.5,208.1 L 190.0,208.2 L 189.3,208.5 L 188.3,208.5 L 187.8,208.2 L 187.3,207.8 L 186.3,207.2 L 184.1,207.1 L 182.5,206.1 L 181.7,205.3 L 179.9,205.1 L 179.3,205.3 L 175.3,204.8 L 173.9,205.2 L 173.5,206.3 L 172.8,206.9 L 171.8,207.4 L 170.5,207.5 L 169.7,207.0 L 168.9,206.4 L 167.4,205.8 L 166.2,204.9 L 165.3,204.7 L 164.1,203.8 L 162.8,203.6 L 160.1,203.6 L 158.5,203.4 L 157.4,202.8 L 156.4,202.7 L 155.4,202.8 L 154.2,203.6 L 152.9,203.6 L 152.6,203.4 L 152.8,202.7 L 150.1,202.4 L 149.5,202.5 L 148.8,202.0 L 146.9,201.6 L 146.6,201.7 L 146.4,201.7 L 145.9,201.4 L 144.3,200.8 L 143.2,200.8 L 142.1,201.3 L 141.0,201.6 L 137.1,201.6 L 135.8,202.3 L 133.7,202.7 L 130.7,202.9 L 130.0,203.0 L 129.3,204.3 L 128.6,205.0 L 127.1,205.3 L 125.0,205.4 L 123.7,205.1 L 122.0,204.9 L 117.6,204.9 L 115.8,205.0 L 114.7,204.4 L 113.5,204.5 L 112.1,205.8 L 111.7,206.9 L 111.1,207.7 L 111.1,208.2 L 111.2,208.4 L 110.6,209.7 L 109.4,210.4 L 108.0,211.0 L 107.9,211.2 L 108.3,211.6 L 108.5,212.0 L 108.1,212.6 L 107.3,213.4 L 106.3,213.1 L 105.5,213.0 L 104.0,212.2 L 104.1,211.2 L 104.5,210.5 L 103.8,209.4 L 103.1,208.8 L 102.3,209.0 L 101.6,209.5 L 101.6,210.0 L 102.4,211.3 L 103.4,211.8 L 103.6,212.7 L 103.4,213.1 L 102.5,213.4 L 102.2,213.8 L 101.1,216.2 L 100.9,216.2 L 100.5,215.8 L 100.4,215.3 L 99.5,214.7 L 98.5,213.5 L 97.6,212.9 L 96.2,212.9 L 95.0,214.0 L 93.6,214.5 L 91.6,214.5 L 89.0,214.7 L 85.9,216.4 L 84.7,216.8 L 83.1,217.4 L 79.9,218.4 L 77.5,220.5 L 76.2,221.2 L 75.7,221.5 L 74.0,222.1 L 72.0,222.1 L 70.9,221.5 L 70.6,221.2 L 70.1,220.8 L 69.1,219.3 L 69.5,218.3 L 69.3,218.1 L 69.0,217.9 L 67.9,217.8 L 65.7,218.6 L 64.3,220.1 L 63.5,220.6 L 62.1,220.8 L 61.0,221.1 L 60.0,221.0 L 59.2,220.8 L 57.8,221.2 L 56.9,221.5 L 56.4,221.6 L 40.0,186.7 L 42.6,186.6 L 44.6,186.0 L 47.0,184.9 L 47.6,184.5 L 48.2,184.2 L 49.4,183.6 L 51.0,183.7" fill="none" stroke="black" stroke-width="2"/>
</svg>