<?xml version="1.0" encoding="UTF-8"?>
<svg width="400" height="400" viewBox="0 0 400 400" xmlns="http://www.w3.org/2000/svg">
  <rect width="400" height="400" fill="white"/>
  <path d="M 71.3,196.4 L 71.7,197.0 L 72.0,197.0 L 72.2,197.2 L 72.3,197.6 L 72.5,197.7 L 72.8,197.6 L 73.4,197.4 L 74.0,197.0 L 74.5,196.7 L 75.0,196.7 L 75.6,196.6 L 76.0,196.2 L 76.1,196.1 L 76.7,195.3 L 77.2,194.7 L 77.6,193.9 L 77.7,193.3 L 78.0,192.9 L 78.2,192.6 L 78.4,192.4 L 78.6,192.2 L 79.0,191.9 L 79.2,191.7 L 80.0,190.9 L 80.6,190.4 L 81.1,190.4 L 82.0,190.1 L 82.6,189.8 L 82.7,189.7 L 82.8,189.4 L 82.8,189.0 L 82.7,189.0 L 82.4,189.2 L 82.3,189.3 L 80.7,189.2 L 80.3,189.3 L 80.1,189.2 L 79.7,189.0 L 79.4,188.4 L 79.1,187.9 L 78.9,187.2 L 78.6,187.0 L 78.2,186.8 L 77.7,186.7 L 77.8,186.5 L 78.0,186.5 L 78.2,186.3 L 78.3,186.2 L 78.6,186.0 L 79.0,185.7 L 79.5,185.8 L 80.7,186.3 L 81.2,186.5 L 81.9,187.0 L 82.3,187.4 L 82.5,187.5 L 83.0,187.6 L 83.7,187.9 L 85.1,188.0 L 85.3,188.0 L 85.5,188.2 L 86.6,189.7 L 86.7,189.9 L 86.4,190.0 L 86.0,190.3 L 85.7,190.8 L 85.5,191.0 L 85.0,191.2 L 84.5,191.2 L 84.2,191.4 L 83.8,191.6 L 83.5,191.9 L 83.1,192.3 L 83.1,192.6 L 83.2,192.8 L 83.4,192.9 L 83.4,193.1 L 83.6,193.2 L 83.7,193.6 L 83.8,193.6 L 84.0,193.6 L 84.0,193.7 L 84.0,194.0 L 84.1,194.3 L 84.4,194.2 L 84.5,194.1 L 84.7,194.1 L 84.9,194.2 L 85.0,194.1 L 85.2,193.9 L 86.3,193.9 L 86.6,193.8 L 87.2,193.6 L 87.9,193.2 L 88.3,193.2 L 88.7,193.1 L 88.9,193.1 L 89.5,192.9 L 90.0,192.8 L 90.8,192.3 L 91.2,192.2 L 91.5,192.0 L 91.9,192.0 L 92.6,191.6 L 92.9,191.6 L 93.3,191.4 L 94.6,190.9 L 94.9,190.7 L 95.3,190.6 L 96.5,190.0 L 96.5,190.0 L 96.9,190.0 L 97.3,189.8 L 97.7,189.6 L 98.0,189.5 L 98.9,189.0 L 99.1,189.0 L 99.8,188.7 L 99.9,188.7 L 100.9,188.6 L 101.4,188.3 L 101.7,188.3 L 102.2,187.9 L 102.5,187.9 L 103.4,187.2 L 103.9,186.8 L 104.3,186.5 L 104.6,186.4 L 105.8,185.8 L 106.5,185.9 L 107.0,186.2 L 107.4,186.6 L 107.8,186.5 L 107.9,186.4 L 108.6,186.2 L 108.7,186.6 L 108.7,186.8 L 108.4,187.2 L 108.5,187.3 L 108.9,187.5 L 108.8,187.6 L 108.9,187.7 L 109.1,187.7 L 110.0,187.4 L 110.2,187.3 L 110.4,187.2 L 110.9,187.3 L 110.9,187.5 L 111.5,187.5 L 111.9,187.6 L 112.0,187.6 L 112.8,187.6 L 113.4,187.4 L 114.0,187.4 L 114.7,187.2 L 115.1,187.1 L 115.6,187.1 L 116.1,187.0 L 116.6,186.9 L 116.9,186.7 L 117.6,186.7 L 117.7,186.6 L 117.9,186.5 L 118.1,186.5 L 118.6,186.5 L 119.3,186.2 L 119.5,186.2 L 119.5,186.4 L 119.4,186.5 L 119.4,186.7 L 119.7,186.7 L 120.2,186.4 L 120.3,186.4 L 120.4,186.7 L 120.6,186.6 L 121.0,186.3 L 121.2,186.1 L 121.5,186.0 L 121.8,185.9 L 122.0,186.0 L 122.0,186.3 L 122.1,186.4 L 122.5,186.5 L 122.7,186.5 L 122.8,186.7 L 123.1,186.8 L 123.5,186.8 L 124.2,186.4 L 124.5,186.1 L 125.5,185.7 L 125.6,185.6 L 125.8,185.5 L 125.9,185.5 L 126.2,185.3 L 127.2,185.0 L 127.7,184.9 L 128.3,184.3 L 128.8,184.2 L 129.0,184.2 L 129.2,184.2 L 129.6,184.2 L 130.0,184.1 L 130.2,183.8 L 131.4,183.8 L 131.5,183.8 L 131.8,183.7 L 132.2,183.7 L 132.5,183.7 L 132.8,183.7 L 133.3,183.4 L 133.7,183.2 L 134.5,182.9 L 135.4,182.7 L 136.6,182.5 L 136.9,182.6 L 137.3,182.6 L 137.4,182.6 L 137.5,182.5 L 138.4,182.3 L 138.8,182.1 L 139.9,181.9 L 141.0,181.5 L 142.1,181.4 L 142.6,181.3 L 143.0,181.2 L 143.4,181.0 L 143.7,181.0 L 143.9,180.9 L 144.0,181.0 L 144.0,181.4 L 144.3,181.5 L 144.4,181.6 L 144.3,181.7 L 144.1,181.8 L 143.4,181.9 L 142.5,182.2 L 142.1,182.7 L 142.1,182.8 L 142.2,183.0 L 142.6,183.1 L 143.4,183.0 L 143.6,182.9 L 143.8,183.0 L 144.2,182.7 L 144.6,182.5 L 144.8,182.8 L 145.0,182.7 L 145.2,182.5 L 145.2,182.4 L 145.0,182.2 L 145.0,182.0 L 144.4,181.7 L 144.6,181.5 L 145.1,181.4 L 145.3,181.3 L 145.4,181.1 L 145.5,180.9 L 145.4,180.8 L 145.1,180.6 L 144.9,180.5 L 144.7,180.4 L 144.5,180.3 L 144.7,179.6 L 145.1,179.0 L 145.4,178.7 L 145.8,178.5 L 146.0,178.2 L 146.7,177.7 L 147.3,177.1 L 148.2,176.7 L 148.5,176.4 L 148.7,176.3 L 148.9,176.1 L 149.0,175.9 L 148.9,175.7 L 149.0,175.6 L 149.2,175.3 L 149.4,175.0 L 149.6,175.0 L 149.7,174.9 L 149.9,174.7 L 150.1,174.6 L 150.3,174.6 L 150.5,174.5 L 152.6,176.9 L 152.4,177.0 L 151.8,177.7 L 151.3,178.4 L 151.1,179.1 L 151.2,179.3 L 151.4,179.5 L 151.8,179.6 L 152.1,179.7 L 152.3,180.0 L 152.3,180.2 L 152.1,180.7 L 151.8,181.0 L 151.1,181.7 L 151.0,182.0 L 151.4,182.4 L 151.5,182.4 L 151.8,182.3 L 152.1,182.4 L 152.3,182.7 L 153.2,183.3 L 153.9,183.7 L 155.3,184.5 L 157.3,185.1 L 157.9,185.1 L 158.2,185.2 L 159.0,185.4 L 159.2,185.4 L 159.6,185.5 L 160.2,185.6 L 161.2,185.6 L 161.8,185.6 L 162.4,185.7 L 162.9,185.8 L 163.9,185.8 L 164.4,185.7 L 165.2,185.6 L 165.6,185.3 L 165.8,185.2 L 166.0,185.1 L 166.0,184.9 L 166.3,184.6 L 166.6,184.4 L 167.1,184.3 L 167.4,184.1 L 167.8,183.9 L 168.2,183.9 L 168.4,183.7 L 168.5,183.6 L 169.1,183.2 L 169.6,183.0 L 170.0,183.0 L 170.4,182.8 L 170.4,182.8 L 170.6,182.7 L 171.5,182.4 L 171.9,182.2 L 172.4,181.8 L 172.6,181.7 L 172.8,181.5 L 172.9,181.5 L 173.1,181.4 L 173.3,181.0 L 173.5,180.9 L 173.7,180.9 L 173.9,180.8 L 174.3,180.8 L 175.0,180.5 L 175.2,180.5 L 175.4,180.3 L 175.6,180.3 L 175.9,180.0 L 176.4,179.9 L 176.8,179.7 L 177.3,179.7 L 177.6,179.5 L 177.8,179.4 L 178.0,179.1 L 178.8,178.8 L 179.2,178.5 L 179.3,178.0 L 179.2,177.7 L 179.1,177.6 L 178.8,177.6 L 178.7,177.5 L 178.6,177.3 L 178.2,177.1 L 177.6,176.8 L 177.2,176.8 L 177.8,176.0 L 177.8,176.0 L 177.9,176.0 L 178.3,176.1 L 179.2,175.9 L 180.2,176.3 L 180.7,176.2 L 181.2,176.1 L 182.0,176.1 L 183.8,175.7 L 184.0,175.8 L 184.1,176.0 L 184.0,176.1 L 183.8,176.2 L 183.6,176.4 L 183.6,176.6 L 183.9,176.9 L 184.5,177.0 L 184.6,177.1 L 184.8,177.3 L 185.8,177.5 L 186.8,177.6 L 187.1,177.6 L 187.5,177.4 L 188.0,177.4 L 188.6,177.1 L 189.1,177.2 L 189.3,177.2 L 190.5,176.8 L 191.1,176.6 L 191.4,176.5 L 191.8,176.5 L 191.9,176.5 L 192.0,176.6 L 192.6,176.6 L 192.7,176.5 L 192.7,176.3 L 193.0,176.1 L 193.2,175.9 L 193.3,175.9 L 193.4,176.0 L 193.7,176.1 L 193.9,176.3 L 194.8,176.3 L 195.1,176.2 L 195.3,176.0 L 195.7,176.0 L 196.2,175.6 L 196.6,175.5 L 196.9,175.0 L 197.0,174.9 L 197.1,174.7 L 197.5,174.5 L 197.5,174.4 L 197.6,174.3 L 198.1,174.2 L 198.3,174.1 L 198.5,174.0 L 198.7,173.9 L 198.7,173.8 L 198.9,173.8 L 199.1,173.5 L 199.2,173.4 L 199.6,173.3 L 199.9,173.3 L 200.0,173.2 L 200.2,173.3 L 200.3,173.1 L 200.4,172.9 L 203.7,178.7 L 203.8,178.7 L 203.5,178.9 L 203.4,178.9 L 202.9,179.5 L 202.6,179.6 L 202.4,179.8 L 202.4,180.0 L 202.6,180.0 L 202.3,180.5 L 202.4,180.5 L 203.1,180.4 L 203.2,180.5 L 203.1,180.7 L 203.3,180.9 L 203.5,180.9 L 203.8,180.9 L 204.0,181.1 L 204.5,181.1 L 204.7,181.2 L 205.4,181.2 L 205.6,181.4 L 206.0,181.3 L 206.5,181.2 L 206.9,181.2 L 208.3,181.1 L 208.5,181.1 L 209.2,181.1 L 209.7,181.0 L 209.9,180.9 L 210.9,180.8 L 211.4,180.9 L 213.4,180.9 L 214.2,180.7 L 214.7,180.5 L 216.3,180.3 L 218.9,179.8 L 219.3,179.7 L 219.8,179.5 L 220.3,179.3 L 220.6,179.0 L 221.2,178.7 L 222.6,178.3 L 223.1,178.0 L 223.4,177.8 L 224.0,177.6 L 224.0,177.6 L 226.1,176.4 L 226.6,175.9 L 227.7,175.2 L 228.0,174.7 L 228.2,174.4 L 228.4,174.2 L 229.7,173.1 L 230.4,172.7 L 230.7,172.4 L 230.9,172.0 L 231.5,171.4 L 231.9,170.7 L 232.0,170.6 L 232.7,169.6 L 233.3,168.1 L 233.5,167.3 L 233.7,166.9 L 234.0,166.6 L 234.3,166.3 L 235.3,165.3 L 235.8,165.0 L 236.2,164.8 L 236.5,164.7 L 236.7,164.6 L 237.4,164.4 L 238.3,164.4 L 238.7,164.5 L 239.1,164.6 L 239.2,164.6 L 239.6,164.8 L 240.5,165.5 L 240.8,165.7 L 241.3,166.8 L 242.2,167.7 L 242.9,168.3 L 243.7,168.9 L 244.7,170.3 L 245.2,170.8 L 245.9,171.6 L 246.0,171.6 L 246.5,172.3 L 247.1,173.2 L 247.6,174.4 L 248.3,176.1 L 248.3,176.7 L 248.4,176.9 L 248.4,177.2 L 248.2,177.5 L 248.2,177.9 L 247.9,178.5 L 247.4,178.5 L 246.6,178.7 L 246.3,178.6 L 245.9,178.4 L 245.8,178.4 L 245.4,178.2 L 245.0,178.2 L 244.6,178.2 L 244.1,178.2 L 243.5,178.4 L 243.1,178.6 L 242.4,178.7 L 241.9,178.7 L 241.8,178.6 L 241.7,178.6 L 241.5,178.7 L 240.9,178.7 L 240.5,179.0 L 239.6,179.3 L 239.3,179.4 L 238.9,179.7 L 237.7,180.1 L 237.5,180.4 L 237.1,180.9 L 237.1,181.1 L 237.1,181.2 L 237.0,181.4 L 237.1,181.5 L 237.4,181.5 L 237.7,181.5 L 239.4,181.4 L 239.9,181.7 L 240.1,181.9 L 240.5,182.2 L 241.1,182.1 L 241.6,182.1 L 241.9,181.9 L 243.5,181.5 L 244.4,181.4 L 244.6,181.3 L 245.0,181.1 L 245.2,181.0 L 246.7,180.9 L 247.6,180.9 L 248.0,180.7 L 248.6,180.6 L 249.1,180.7 L 249.4,180.8 L 249.7,181.0 L 250.1,181.1 L 250.2,181.2 L 250.3,181.3 L 250.1,181.4 L 249.8,181.4 L 249.4,181.6 L 248.8,181.8 L 248.0,182.0 L 247.6,182.1 L 247.3,182.6 L 246.9,182.8 L 246.0,183.6 L 245.6,183.9 L 245.5,183.7 L 245.3,183.7 L 245.2,183.8 L 245.2,183.9 L 245.2,184.0 L 244.5,184.3 L 244.2,184.4 L 243.7,184.6 L 243.2,184.8 L 242.5,185.3 L 242.5,185.5 L 242.7,185.6 L 242.7,185.9 L 242.9,186.1 L 243.5,186.2 L 243.7,186.4 L 243.9,186.4 L 244.1,186.6 L 244.4,186.7 L 244.5,186.7 L 244.6,186.8 L 244.7,186.9 L 245.2,186.9 L 245.5,187.1 L 245.6,187.2 L 245.8,187.1 L 246.1,187.1 L 246.3,187.3 L 246.5,187.3 L 247.0,187.5 L 247.1,187.7 L 247.3,187.8 L 247.9,188.2 L 248.3,188.3 L 248.6,188.6 L 248.6,188.7 L 248.5,188.9 L 248.6,189.0 L 248.8,189.1 L 249.1,189.3 L 249.5,189.5 L 249.8,189.8 L 250.0,190.0 L 250.2,190.3 L 250.3,190.7 L 250.4,190.9 L 250.6,190.9 L 250.8,191.5 L 251.0,191.7 L 251.2,192.2 L 251.6,192.6 L 252.0,192.9 L 252.6,193.5 L 253.0,193.7 L 253.5,194.0 L 254.1,194.1 L 254.4,194.4 L 255.0,194.7 L 255.4,194.7 L 255.7,194.7 L 255.9,194.8 L 256.2,194.9 L 256.5,195.0 L 257.1,195.3 L 257.4,195.4 L 257.8,195.5 L 258.1,195.4 L 258.3,195.3 L 258.9,195.4 L 259.4,195.4 L 260.2,195.7 L 260.7,196.1 L 261.8,196.8 L 262.1,197.1 L 262.5,197.5 L 262.5,197.7 L 262.7,197.9 L 262.7,198.4 L 262.8,198.7 L 262.9,198.7 L 263.6,198.7 L 263.3,198.9 L 263.1,199.0 L 263.1,199.2 L 262.8,199.6 L 262.5,200.4 L 262.3,201.3 L 262.4,202.1 L 262.6,202.5 L 262.9,202.9 L 263.2,203.3 L 263.7,203.8 L 264.7,204.3 L 266.2,204.7 L 266.6,204.9 L 267.6,205.1 L 268.3,205.4 L 268.7,205.7 L 269.5,206.1 L 270.8,206.8 L 271.1,207.0 L 271.5,207.5 L 271.7,207.6 L 271.8,207.7 L 272.2,207.9 L 272.4,208.0 L 272.8,208.2 L 273.0,208.2 L 273.7,208.5 L 274.3,208.6 L 274.4,208.7 L 275.0,209.1 L 275.7,209.4 L 276.0,209.7 L 276.9,210.0 L 277.6,210.1 L 279.1,209.9 L 279.1,209.9 L 279.8,209.6 L 280.3,209.6 L 281.5,209.3 L 283.5,209.2 L 283.8,209.1 L 284.4,209.1 L 285.1,209.4 L 285.4,209.6 L 286.1,209.9 L 286.5,209.9 L 286.8,209.8 L 287.3,209.7 L 289.2,209.8 L 289.6,209.8 L 290.5,209.8 L 291.3,209.7 L 291.9,209.6 L 294.0,209.7 L 294.5,209.5 L 296.4,209.5 L 296.7,209.4 L 297.3,209.3 L 298.9,209.0 L 299.2,209.0 L 299.7,208.9 L 300.1,208.8 L 300.5,208.8 L 300.9,209.4 L 301.6,209.3 L 301.5,209.5 L 301.5,209.7 L 301.9,209.9 L 302.6,209.9 L 302.6,209.9 L 303.8,209.8 L 304.2,209.7 L 304.3,209.7 L 304.7,209.7 L 305.1,209.7 L 305.7,209.8 L 307.0,210.0 L 307.2,210.0 L 307.3,210.0 L 307.6,210.2 L 308.3,210.4 L 308.6,210.6 L 309.2,210.9 L 309.4,211.1 L 309.7,211.2 L 310.3,211.6 L 310.5,211.7 L 310.7,211.8 L 311.0,211.9 L 311.1,212.1 L 311.2,212.1 L 311.6,212.3 L 312.2,212.4 L 312.7,212.3 L 312.9,212.4 L 313.5,212.5 L 314.3,212.7 L 315.5,212.7 L 316.4,212.6 L 316.8,212.5 L 317.6,212.5 L 317.9,212.7 L 319.0,212.7 L 320.2,212.9 L 320.9,212.8 L 321.8,212.7 L 322.3,212.7 L 322.6,212.6 L 323.1,212.6 L 324.7,212.6 L 324.9,212.5 L 325.2,212.5 L 325.2,212.6 L 325.6,212.5 L 326.3,212.3 L 326.7,212.3 L 327.2,212.2 L 327.7,212.1 L 327.9,212.1 L 328.1,211.9 L 328.3,211.9 L 329.5,211.0 L 330.0,210.4 L 330.9,209.7 L 330.9,209.6 L 331.2,209.3 L 331.6,209.2 L 332.2,209.2 L 332.4,209.0 L 333.0,209.0 L 333.3,209.1 L 333.3,209.3 L 333.5,209.5 L 334.0,209.7 L 334.3,209.7 L 335.4,210.7 L 335.6,210.7 L 335.6,210.7 L 336.0,211.0 L 336.2,211.1 L 336.7,211.5 L 336.8,211.5 L 337.4,212.0 L 337.5,212.2 L 337.7,212.3 L 337.7,212.5 L 338.8,213.6 L 339.3,213.9 L 339.5,214.4 L 339.9,214.6 L 340.4,214.7 L 340.7,214.7 L 341.1,214.7 L 341.6,214.8 L 341.7,214.8 L 342.8,214.7 L 343.3,214.7 L 343.7,214.3 L 344.3,213.9 L 344.4,214.0 L 344.6,214.0 L 344.8,214.1 L 345.1,214.1 L 345.5,213.9 L 345.7,213.7 L 345.9,213.4 L 346.4,213.2 L 347.0,213.2 L 347.4,213.3 L 347.6,213.3 L 347.6,213.3 L 347.7,213.2 L 348.5,213.1 L 349.1,213.0 L 349.3,213.4 L 349.7,213.1 L 349.8,212.9 L 350.1,212.8 L 350.5,212.8 L 350.8,212.9 L 351.9,213.8 L 352.3,214.1 L 352.7,214.8 L 352.9,215.4 L 353.3,215.8 L 353.6,216.1 L 353.6,216.3 L 353.9,216.5 L 354.1,216.6 L 354.2,216.7 L 354.4,217.0 L 354.5,217.3 L 354.6,217.4 L 354.6,218.1 L 354.8,218.4 L 354.8,218.7 L 354.9,218.8 L 355.0,219.0 L 355.1,219.2 L 355.1,219.5 L 355.2,219.8 L 355.5,220.0 L 355.7,220.1 L 355.9,220.3 L 356.4,220.9 L 357.4,221.9 L 357.5,221.9 L 357.7,222.1 L 357.9,222.4 L 358.0,222.5 L 358.4,223.3 L 358.5,223.5 L 358.8,223.7 L 359.3,224.2 L 359.4,224.7 L 359.7,225.0 L 359.9,225.3 L 360.0,225.6 L 359.9,226.1 L 359.2,226.7 L 359.0,226.7 L 358.6,227.0 L 358.5,227.0 L 358.4,226.8 L 358.1,226.8 L 357.9,227.0 L 357.5,227.0 L 357.2,227.1 L 356.6,227.2 L 356.3,227.3 L 356.0,227.3 L 355.8,227.6 L 355.4,227.8 L 355.1,227.9 L 354.7,228.2 L 354.3,228.4 L 354.0,228.5 L 353.8,228.5 L 353.6,228.6 L 353.0,228.6 L 351.9,228.5 L 351.7,228.4 L 351.3,228.3 L 350.7,228.4 L 350.2,228.4 L 349.9,228.3 L 349.6,228.3 L 349.4,228.2 L 349.0,228.1 L 348.6,228.0 L 347.7,228.0 L 345.7,227.7 L 345.3,227.6 L 345.1,227.5 L 344.8,227.4 L 344.7,227.4 L 344.0,227.0 L 343.5,226.8 L 343.2,226.7 L 341.9,226.6 L 341.6,226.5 L 341.5,226.4 L 341.4,226.1 L 341.3,225.8 L 340.9,225.4 L 340.7,225.1 L 340.5,224.9 L 340.2,224.8 L 339.8,224.6 L 339.6,224.5 L 338.7,224.5 L 337.8,224.3 L 337.2,224.3 L 336.8,224.4 L 335.6,224.7 L 335.3,224.8 L 334.4,225.2 L 333.3,225.5 L 332.4,225.8 L 330.4,226.6 L 329.3,226.8 L 328.3,226.8 L 327.8,226.9 L 327.7,227.0 L 326.4,227.1 L 326.3,227.2 L 326.0,227.1 L 325.1,227.1 L 324.8,227.2 L 323.7,227.3 L 322.7,227.4 L 322.0,227.3 L 321.8,227.4 L 321.7,227.4 L 320.5,227.6 L 319.9,227.6 L 319.4,227.8 L 318.6,227.8 L 318.4,227.8 L 317.7,227.7 L 317.3,227.8 L 316.3,227.8 L 315.9,228.1 L 315.5,228.1 L 315.1,228.2 L 313.4,228.4 L 312.7,228.1 L 312.4,228.1 L 312.1,228.0 L 311.3,227.9 L 310.3,227.5 L 309.3,227.4 L 308.4,227.0 L 308.2,226.9 L 307.9,226.9 L 307.7,226.8 L 305.7,226.5 L 305.2,226.5 L 304.9,226.4 L 303.8,226.5 L 302.7,225.9 L 302.6,225.8 L 302.3,225.7 L 301.8,225.6 L 300.2,225.6 L 300.0,225.7 L 298.9,225.5 L 296.4,225.5 L 295.9,225.4 L 294.9,225.4 L 293.9,225.4 L 291.1,225.3 L 289.9,225.1 L 289.2,225.1 L 288.7,225.0 L 287.9,225.1 L 286.7,225.1 L 286.4,225.4 L 286.1,225.4 L 285.8,225.4 L 285.4,225.4 L 285.2,225.4 L 284.7,225.4 L 282.9,225.8 L 282.0,225.7 L 281.4,225.6 L 281.0,225.5 L 280.7,225.6 L 280.4,225.6 L 279.7,225.9 L 279.4,226.0 L 279.0,226.4 L 278.6,226.7 L 278.5,226.7 L 277.6,227.0 L 277.2,227.0 L 276.7,227.0 L 276.4,227.1 L 276.2,227.1 L 275.9,226.9 L 274.5,226.9 L 274.2,226.8 L 274.0,226.8 L 273.9,227.0 L 273.3,227.4 L 272.8,227.7 L 272.0,227.7 L 271.4,227.5 L 270.8,227.2 L 270.6,227.0 L 270.6,226.9 L 269.8,226.4 L 269.6,226.3 L 269.5,226.2 L 269.3,225.9 L 269.3,225.7 L 268.8,225.5 L 267.8,224.8 L 266.6,224.0 L 266.5,223.9 L 266.3,223.8 L 265.7,223.7 L 265.5,223.5 L 265.4,223.4 L 264.7,223.0 L 263.0,222.2 L 262.3,222.2 L 261.9,222.0 L 261.2,221.6 L 261.0,221.5 L 260.7,221.3 L 260.0,221.3 L 259.6,221.2 L 258.8,221.1 L 258.2,221.0 L 257.7,221.1 L 256.3,220.8 L 255.8,220.7 L 255.2,220.4 L 255.0,220.3 L 254.8,219.9 L 254.4,219.6 L 253.2,219.5 L 252.6,219.2 L 252.2,219.0 L 251.8,218.8 L 251.3,218.7 L 251.1,218.6 L 250.4,218.2 L 250.0,218.0 L 249.6,217.7 L 248.6,217.6 L 248.4,217.7 L 247.9,218.2 L 247.8,218.2 L 247.5,218.1 L 247.3,218.0 L 247.2,218.0 L 246.5,218.0 L 246.0,217.7 L 245.5,217.5 L 245.4,217.3 L 245.4,217.1 L 245.6,216.8 L 245.4,216.6 L 245.1,216.4 L 244.5,216.3 L 244.3,216.2 L 244.3,216.1 L 244.2,216.0 L 244.1,215.7 L 244.1,215.3 L 244.0,215.3 L 243.7,215.1 L 243.4,215.0 L 242.5,215.0 L 242.1,215.0 L 241.8,215.2 L 241.4,215.5 L 241.0,215.5 L 240.6,215.4 L 240.6,215.1 L 240.3,214.7 L 240.0,214.6 L 239.6,214.7 L 238.8,214.6 L 238.2,214.4 L 237.9,214.2 L 237.3,214.1 L 236.9,213.8 L 236.6,213.6 L 236.5,213.6 L 236.5,213.6 L 235.1,213.6 L 234.7,213.5 L 234.2,213.6 L 234.0,213.5 L 233.5,213.5 L 233.2,213.5 L 233.1,213.6 L 232.6,213.6 L 231.6,213.5 L 230.3,213.4 L 228.8,213.5 L 227.9,213.5 L 227.6,213.6 L 227.1,213.8 L 226.2,213.8 L 225.7,213.6 L 225.4,213.5 L 225.1,213.3 L 224.7,213.1 L 224.5,213.0 L 224.3,212.7 L 223.8,212.6 L 223.5,212.4 L 223.3,212.3 L 223.3,212.3 L 223.0,211.7 L 222.6,211.3 L 222.4,210.9 L 222.3,210.6 L 222.2,210.2 L 222.1,210.0 L 222.1,209.9 L 222.4,209.3 L 222.6,209.2 L 222.4,208.6 L 220.5,208.1 L 220.1,208.0 L 219.7,207.9 L 219.2,207.9 L 218.6,208.0 L 217.9,208.2 L 217.3,208.1 L 217.0,208.0 L 216.8,207.7 L 216.7,207.5 L 216.6,206.9 L 216.6,206.4 L 216.8,206.2 L 217.1,205.9 L 217.2,205.6 L 217.2,205.3 L 217.1,205.1 L 216.8,204.9 L 216.6,204.9 L 216.2,204.9 L 215.9,204.9 L 215.8,204.7 L 215.8,204.5 L 216.2,204.4 L 216.6,204.3 L 216.9,204.2 L 216.9,204.1 L 216.9,204.1 L 216.7,204.0 L 216.3,203.9 L 215.3,204.0 L 213.6,204.1 L 213.2,204.2 L 212.5,204.5 L 211.9,204.7 L 211.4,204.8 L 211.2,204.7 L 208.9,204.7 L 208.6,204.8 L 207.4,204.7 L 207.3,204.7 L 206.4,204.7 L 205.9,204.7 L 205.5,204.8 L 204.6,205.0 L 203.5,205.2 L 203.5,205.2 L 203.4,205.2 L 203.0,205.3 L 202.8,205.3 L 202.2,205.4 L 201.7,205.5 L 201.0,205.5 L 199.8,205.2 L 199.4,205.1 L 199.1,205.0 L 198.5,204.9 L 197.6,204.9 L 195.3,204.8 L 194.4,204.6 L 193.8,204.1 L 192.7,203.8 L 192.6,203.6 L 192.4,203.6 L 191.3,203.4 L 190.7,203.2 L 189.8,203.1 L 189.5,203.1 L 189.3,203.4 L 188.9,203.9 L 188.5,204.2 L 188.2,204.4 L 186.8,204.4 L 186.0,204.4 L 185.5,204.3 L 185.0,204.3 L 184.1,204.1 L 183.6,204.2 L 182.2,204.1 L 181.3,204.7 L 181.0,204.8 L 180.6,204.9 L 180.5,205.0 L 180.0,205.5 L 178.6,205.9 L 178.2,205.9 L 177.9,205.7 L 176.9,206.0 L 176.7,206.2 L 176.5,206.6 L 176.1,207.0 L 175.6,207.5 L 174.4,208.5 L 173.9,208.8 L 173.4,209.2 L 172.5,209.8 L 172.1,209.9 L 171.5,210.2 L 170.7,210.7 L 170.4,211.0 L 170.3,211.0 L 169.9,211.2 L 169.7,211.2 L 169.4,211.1 L 169.1,211.2 L 169.0,211.3 L 168.8,211.4 L 168.6,211.3 L 168.2,211.5 L 167.2,211.5 L 166.9,211.4 L 166.7,211.2 L 166.1,211.2 L 165.5,211.0 L 165.3,210.9 L 164.8,210.9 L 164.5,211.1 L 164.3,211.1 L 164.0,210.9 L 163.9,211.0 L 163.3,211.1 L 162.0,211.5 L 161.5,211.5 L 161.1,211.6 L 161.0,211.2 L 160.9,211.1 L 160.8,211.2 L 160.8,211.5 L 160.7,211.5 L 160.2,211.5 L 159.8,211.3 L 159.9,211.6 L 160.0,211.8 L 159.8,212.1 L 159.4,212.5 L 158.8,212.9 L 158.2,213.1 L 157.7,213.2 L 156.2,213.2 L 155.2,213.1 L 152.7,213.0 L 149.8,213.2 L 149.0,213.2 L 148.5,213.3 L 147.0,213.4 L 146.8,213.5 L 146.2,213.5 L 145.9,213.5 L 144.8,213.5 L 144.6,213.5 L 144.5,213.4 L 144.3,213.4 L 143.7,213.5 L 142.8,213.7 L 142.6,213.8 L 141.4,213.8 L 140.8,213.6 L 139.4,213.3 L 139.0,213.2 L 138.5,212.9 L 137.4,212.4 L 137.1,212.3 L 136.7,212.0 L 136.6,212.0 L 136.5,211.9 L 136.0,212.0 L 135.5,211.8 L 134.7,212.0 L 134.4,212.1 L 133.9,212.5 L 133.7,212.6 L 133.5,212.8 L 133.4,213.4 L 133.2,215.1 L 133.0,215.5 L 132.8,215.6 L 132.7,215.5 L 132.0,215.5 L 131.2,215.4 L 130.8,215.4 L 130.6,215.3 L 130.3,215.2 L 129.6,215.3 L 129.0,215.5 L 128.6,215.5 L 128.1,215.7 L 127.9,215.7 L 127.4,215.5 L 126.4,214.8 L 125.9,214.2 L 125.7,213.9 L 125.3,213.6 L 124.4,213.3 L 123.4,213.3 L 122.9,213.4 L 122.0,213.5 L 121.7,213.6 L 121.4,213.9 L 121.2,213.9 L 120.9,214.0 L 120.4,214.0 L 119.9,213.9 L 119.4,213.7 L 119.0,213.4 L 118.9,213.0 L 119.0,212.8 L 118.9,212.7 L 118.7,212.5 L 118.3,212.3 L 117.8,212.3 L 117.7,212.4 L 117.6,212.6 L 117.8,212.7 L 117.9,212.9 L 118.0,213.1 L 118.0,213.5 L 117.7,213.8 L 117.5,213.9 L 117.1,214.3 L 116.9,214.7 L 116.5,215.4 L 116.4,216.8 L 116.3,217.6 L 116.2,219.8 L 116.4,221.5 L 116.5,221.6 L 116.7,221.8 L 117.0,222.1 L 117.2,222.6 L 117.3,222.9 L 117.5,223.3 L 117.6,223.5 L 117.5,223.7 L 117.5,224.1 L 117.9,224.3 L 118.2,224.5 L 118.6,224.6 L 118.7,224.7 L 118.9,225.1 L 118.9,225.3 L 118.8,225.6 L 118.3,226.1 L 118.1,226.4 L 118.1,226.7 L 118.1,226.8 L 117.9,227.1 L 117.5,227.6 L 117.0,227.9 L 116.8,228.0 L 116.5,227.8 L 115.9,227.1 L 115.7,227.1 L 115.4,226.9 L 115.1,226.8 L 114.8,226.6 L 114.4,225.8 L 114.3,225.5 L 114.4,225.3 L 114.4,225.2 L 113.8,224.6 L 113.6,224.5 L 113.2,224.6 L 113.0,224.4 L 112.6,223.9 L 112.6,223.7 L 112.6,223.4 L 112.5,223.2 L 112.3,223.2 L 112.2,223.2 L 111.7,224.0 L 111.5,224.5 L 104.7,223.4 L 104.6,223.3 L 104.5,223.3 L 104.4,223.3 L 103.5,223.2 L 103.4,223.0 L 103.2,223.0 L 103.2,223.1 L 103.2,223.1 L 91.4,221.2 L 91.3,221.1 L 90.7,220.6 L 90.5,220.4 L 90.1,220.4 L 89.2,220.4 L 87.8,220.4 L 87.5,220.6 L 87.2,220.6 L 86.9,220.5 L 86.6,220.5 L 86.4,220.6 L 86.4,220.7 L 86.7,221.0 L 87.3,221.1 L 87.3,221.2 L 87.2,221.4 L 86.6,221.6 L 86.3,221.6 L 86.0,221.5 L 85.9,221.5 L 85.9,221.8 L 85.4,222.0 L 84.7,222.0 L 84.4,221.8 L 84.2,221.9 L 83.4,221.6 L 83.0,221.5 L 82.9,221.6 L 82.3,222.2 L 82.0,222.4 L 81.5,222.5 L 81.4,222.1 L 81.1,222.1 L 80.7,222.2 L 80.2,222.3 L 80.0,222.4 L 79.6,222.1 L 78.6,222.0 L 78.4,222.2 L 78.2,222.5 L 77.9,222.4 L 77.2,222.7 L 76.4,222.9 L 76.2,222.8 L 76.0,222.8 L 75.8,222.9 L 75.6,223.0 L 75.3,222.9 L 75.2,222.9 L 75.0,223.0 L 75.1,223.3 L 75.1,223.7 L 74.9,223.8 L 74.8,223.8 L 74.6,223.6 L 74.3,223.5 L 74.0,223.6 L 73.8,223.8 L 73.8,224.0 L 74.0,224.2 L 74.4,224.4 L 74.5,224.6 L 74.3,224.8 L 74.3,224.9 L 74.8,224.9 L 74.9,225.0 L 75.0,225.1 L 74.9,225.5 L 74.6,225.7 L 74.3,225.9 L 74.3,226.2 L 74.1,226.4 L 73.5,226.7 L 72.8,226.8 L 72.4,227.0 L 72.2,227.0 L 71.7,226.9 L 71.3,226.7 L 71.2,226.6 L 70.8,226.5 L 70.4,226.6 L 70.1,226.7 L 70.0,226.8 L 69.8,227.4 L 69.6,227.7 L 69.6,227.8 L 69.7,228.0 L 70.2,228.4 L 70.5,228.5 L 70.6,228.6 L 70.7,229.2 L 70.9,229.2 L 71.1,229.1 L 71.3,229.1 L 71.3,229.2 L 71.5,229.4 L 71.5,229.9 L 71.3,230.1 L 71.3,230.1 L 71.0,230.5 L 70.8,230.5 L 70.7,230.4 L 70.6,230.3 L 70.3,230.4 L 69.6,231.2 L 69.1,231.6 L 68.6,231.6 L 68.3,231.7 L 68.2,231.8 L 68.1,231.9 L 68.1,231.9 L 56.9,235.5 L 56.7,235.6 L 56.5,235.4 L 56.3,235.1 L 56.0,234.6 L 55.6,234.4 L 55.0,234.3 L 54.6,234.4 L 54.6,234.4 L 54.5,234.4 L 54.1,234.5 L 53.6,234.4 L 53.4,234.2 L 53.1,233.7 L 52.7,234.0 L 52.5,233.9 L 51.9,233.4 L 51.9,233.4 L 51.6,233.7 L 51.4,234.0 L 51.6,234.4 L 51.6,234.6 L 51.5,234.8 L 51.2,235.1 L 50.7,235.3 L 50.2,235.4 L 49.9,235.5 L 49.6,235.5 L 49.1,235.4 L 48.9,235.3 L 49.0,235.0 L 49.0,234.8 L 48.8,234.4 L 48.8,233.8 L 48.6,233.5 L 48.8,233.1 L 49.2,232.7 L 49.1,232.6 L 49.0,232.5 L 48.7,232.5 L 48.6,232.4 L 48.6,232.1 L 48.7,231.9 L 48.6,231.5 L 48.4,231.2 L 48.5,230.7 L 48.2,230.8 L 48.1,230.9 L 40.0,202.9 L 40.2,203.0 L 40.7,203.0 L 41.2,202.7 L 41.4,202.4 L 41.8,201.4 L 42.0,201.2 L 42.7,201.1 L 43.6,201.2 L 44.0,201.3 L 44.1,201.4 L 44.2,201.8 L 44.4,201.9 L 44.6,201.8 L 44.7,201.6 L 44.9,201.5 L 45.5,201.8 L 45.5,201.9 L 45.7,202.4 L 45.9,202.5 L 46.6,202.5 L 47.3,202.4 L 47.8,202.2 L 48.4,202.0 L 49.3,201.8 L 49.9,201.7 L 50.4,201.8 L 50.7,201.8 L 51.4,201.3 L 52.4,201.1 L 53.1,200.6 L 53.7,200.4 L 54.9,200.2 L 55.2,200.2 L 55.5,200.2 L 56.1,199.9 L 56.9,199.7 L 57.7,199.7 L 58.7,199.5 L 60.6,198.8 L 61.2,198.2 L 61.5,198.1 L 62.0,198.2 L 62.0,198.3 L 62.3,198.5 L 62.6,198.2 L 62.7,197.6 L 62.6,197.4 L 62.7,197.2 L 63.2,196.9 L 64.2,196.1 L 65.1,195.1 L 65.5,194.7 L 65.7,194.7 L 66.2,194.8 L 66.8,194.6 L 67.7,194.7 L 68.1,195.0 L 68.2,195.2 L 68.2,195.4 L 67.8,195.8 L 67.6,196.1 L 67.6,196.5 L 67.7,196.7 L 68.1,196.6 L 68.3,196.6 L 68.7,196.6 L 70.2,196.0 L 70.4,195.8 L 70.7,195.9 L 71.2,196.2 L 71.3,196.4" fill="none" stroke="black" stroke-width="2"/>
</svg>