<?xml version="1.0" encoding="UTF-8"?>
<svg width="400" height="400" viewBox="0 0 400 400" xmlns="http://www.w3.org/2000/svg">
  <rect width="400" height="400" fill="white"/>
  <path d="M 97.7,253.1 L 98.8,252.3 L 101.2,251.0 L 108.6,244.1 L 109.6,242.3 L 110.0,240.4 L 112.7,237.8 L 113.3,235.4 L 116.2,229.3 L 117.4,226.4 L 119.1,223.4 L 122.9,217.9 L 125.5,215.4 L 128.9,213.2 L 136.0,206.1 L 136.9,205.7 L 140.1,202.9 L 142.9,199.9 L 144.7,196.6 L 146.7,194.0 L 148.2,191.5 L 150.5,189.3 L 150.8,188.2 L 150.4,187.9 L 148.2,189.4 L 146.5,189.2 L 146.0,188.7 L 146.2,186.9 L 147.0,184.9 L 146.3,184.3 L 145.9,183.8 L 146.0,183.2 L 147.0,181.5 L 147.7,178.8 L 151.9,173.0 L 153.5,172.4 L 156.3,172.6 L 157.5,172.8 L 158.0,172.7 L 163.4,170.5 L 168.3,169.3 L 170.0,168.5 L 172.6,167.9 L 173.0,167.4 L 173.0,165.3 L 171.5,163.3 L 171.7,162.5 L 172.7,161.4 L 174.4,160.5 L 174.8,159.5 L 174.9,159.4 L 175.9,158.2 L 178.8,157.8 L 179.9,159.4 L 179.9,159.5 L 180.7,161.1 L 182.8,160.9 L 183.9,159.4 L 184.1,159.4 L 186.5,155.9 L 193.2,150.6 L 196.2,149.3 L 198.0,149.0 L 199.1,148.1 L 199.8,146.6 L 202.4,144.1 L 204.2,143.5 L 206.2,143.4 L 207.0,144.0 L 208.3,143.7 L 211.9,141.6 L 217.1,136.7 L 220.8,133.6 L 225.7,128.8 L 226.5,128.5 L 228.2,126.9 L 225.2,126.1 L 224.5,125.1 L 224.2,123.6 L 225.2,122.0 L 226.3,121.0 L 227.3,121.0 L 227.8,122.2 L 228.3,122.5 L 229.0,122.5 L 229.6,122.5 L 231.6,121.9 L 233.1,120.8 L 233.5,120.3 L 233.1,119.2 L 233.1,118.1 L 234.0,116.6 L 235.5,115.6 L 237.0,115.7 L 238.2,115.5 L 239.0,114.9 L 240.5,114.4 L 241.6,114.1 L 243.4,113.2 L 244.8,112.7 L 245.7,112.7 L 247.1,112.6 L 248.4,112.4 L 249.2,112.7 L 249.6,112.8 L 249.9,112.4 L 250.0,111.5 L 250.6,110.9 L 252.0,110.5 L 253.3,110.2 L 254.0,110.4 L 255.5,110.2 L 256.9,109.9 L 257.4,109.4 L 258.5,109.1 L 259.0,109.0 L 259.4,108.6 L 259.8,107.7 L 261.0,106.8 L 261.8,106.4 L 263.2,106.3 L 264.6,106.0 L 266.2,106.0 L 267.9,106.8 L 268.4,106.8 L 270.3,106.0 L 270.4,105.7 L 270.1,104.6 L 273.1,104.5 L 274.2,104.4 L 275.1,104.1 L 276.4,104.1 L 280.7,102.5 L 281.6,102.2 L 283.9,102.2 L 285.0,102.8 L 286.6,102.8 L 288.3,102.5 L 288.9,102.0 L 290.0,101.9 L 291.5,100.8 L 292.3,99.7 L 293.5,99.3 L 294.6,99.3 L 295.7,98.8 L 296.8,97.6 L 297.3,97.4 L 297.9,97.6 L 299.3,97.5 L 300.0,97.0 L 301.0,96.7 L 302.1,96.4 L 303.0,96.3 L 304.0,97.8 L 302.9,98.2 L 303.1,98.8 L 305.1,97.9 L 305.1,96.8 L 304.9,96.1 L 305.4,95.5 L 306.6,94.8 L 308.3,94.0 L 308.6,93.1 L 308.6,92.3 L 308.7,92.2 L 309.0,92.6 L 309.4,93.3 L 309.5,94.5 L 309.6,94.6 L 309.8,94.7 L 310.0,95.1 L 310.5,94.9 L 310.3,94.3 L 310.1,93.8 L 310.2,93.7 L 314.7,92.5 L 314.6,92.3 L 310.1,93.4 L 309.8,92.5 L 309.6,92.1 L 310.6,91.4 L 310.8,90.9 L 312.2,90.0 L 312.4,89.3 L 312.4,88.8 L 312.3,88.3 L 313.2,88.2 L 314.1,87.8 L 314.6,87.6 L 315.3,87.6 L 316.1,86.7 L 316.5,86.6 L 317.4,86.6 L 318.3,85.8 L 319.0,85.7 L 319.6,85.3 L 320.3,85.1 L 321.2,85.0 L 323.0,84.3 L 324.5,83.5 L 324.9,83.5 L 326.3,83.0 L 327.3,82.9 L 328.9,82.0 L 329.5,81.9 L 331.8,81.7 L 332.9,81.9 L 332.8,83.7 L 333.0,85.5 L 333.4,86.0 L 334.5,86.6 L 335.6,86.6 L 335.9,85.3 L 336.3,84.9 L 336.4,83.6 L 336.5,82.3 L 337.1,82.4 L 337.1,83.3 L 337.1,83.9 L 337.2,84.3 L 337.4,84.4 L 337.7,84.3 L 337.7,83.4 L 337.9,83.0 L 338.9,83.2 L 340.0,83.7 L 341.1,84.3 L 341.8,84.9 L 342.6,85.3 L 343.3,86.0 L 343.6,86.8 L 343.9,87.0 L 345.0,87.2 L 345.4,87.6 L 345.3,88.4 L 346.3,88.6 L 346.9,89.1 L 348.0,90.0 L 348.4,90.6 L 348.9,90.6 L 349.1,90.1 L 350.0,90.0 L 352.3,89.3 L 353.4,89.4 L 354.8,90.4 L 356.1,90.8 L 357.4,90.4 L 358.1,88.9 L 358.2,87.6 L 358.4,86.9 L 359.0,86.9 L 359.1,87.2 L 359.6,87.0 L 359.9,87.0 L 360.0,87.0 L 360.0,87.3 L 359.8,87.6 L 359.2,88.1 L 358.6,89.3 L 357.7,90.7 L 356.4,92.5 L 356.1,93.2 L 356.1,94.9 L 355.7,95.7 L 354.1,97.7 L 353.7,99.8 L 353.5,102.0 L 353.5,103.6 L 351.8,104.8 L 351.2,106.6 L 350.9,107.5 L 349.5,109.1 L 348.5,111.6 L 348.0,112.7 L 347.1,114.7 L 346.7,117.0 L 346.8,118.8 L 348.0,120.8 L 349.5,123.0 L 351.2,126.0 L 351.7,127.5 L 350.9,128.2 L 350.5,129.0 L 350.1,129.4 L 349.6,129.5 L 349.4,130.1 L 349.9,130.5 L 349.9,130.9 L 349.1,132.8 L 348.3,134.0 L 348.3,134.7 L 347.5,136.2 L 346.8,136.9 L 346.2,137.3 L 346.0,140.0 L 345.7,141.1 L 344.5,142.1 L 343.2,142.3 L 343.4,142.8 L 343.3,143.9 L 342.2,144.8 L 341.6,146.9 L 341.4,148.5 L 339.7,149.6 L 339.3,150.5 L 338.6,153.5 L 338.2,157.1 L 338.4,158.5 L 338.4,158.5 L 338.2,162.4 L 338.9,165.1 L 339.4,165.7 L 342.5,167.4 L 344.7,168.1 L 345.6,171.0 L 346.0,172.2 L 346.0,172.5 L 345.4,172.6 L 345.4,172.5 L 343.3,170.7 L 343.1,170.4 L 338.7,170.5 L 337.0,170.8 L 335.5,172.5 L 336.8,176.7 L 336.8,180.0 L 336.6,181.5 L 334.5,185.2 L 329.4,190.8 L 324.4,197.2 L 322.9,200.0 L 322.2,203.4 L 321.6,203.7 L 319.7,203.1 L 319.6,204.0 L 319.7,206.6 L 317.6,210.3 L 317.9,211.2 L 318.1,213.8 L 318.5,214.8 L 318.7,216.0 L 317.8,217.1 L 315.2,219.5 L 311.5,219.8 L 309.5,220.8 L 305.9,221.3 L 304.1,221.0 L 302.8,221.0 L 300.7,221.3 L 296.2,221.4 L 294.9,222.4 L 291.2,222.6 L 289.4,222.3 L 287.5,222.3 L 284.3,222.6 L 282.5,223.1 L 280.2,224.7 L 276.1,226.2 L 275.0,226.3 L 272.6,227.1 L 267.1,231.2 L 265.1,232.0 L 263.3,233.4 L 258.6,236.0 L 256.8,238.5 L 255.6,240.6 L 254.2,242.0 L 249.5,244.5 L 247.5,246.7 L 245.6,248.2 L 242.5,250.0 L 242.0,251.4 L 241.0,253.1 L 240.7,253.5 L 239.2,254.8 L 236.2,258.0 L 235.8,260.0 L 234.6,262.1 L 234.5,263.1 L 235.2,263.6 L 235.4,264.8 L 232.8,268.3 L 231.1,269.6 L 229.8,270.4 L 229.0,270.7 L 224.5,272.5 L 220.6,274.6 L 217.5,277.1 L 215.9,278.5 L 213.3,280.1 L 210.3,281.8 L 207.8,283.5 L 206.3,284.9 L 204.7,287.3 L 205.3,288.6 L 204.9,291.5 L 204.3,292.2 L 199.1,294.4 L 197.8,295.9 L 195.2,298.2 L 194.3,299.7 L 190.3,304.3 L 187.0,307.1 L 183.8,308.6 L 182.5,310.3 L 176.2,316.7 L 175.2,317.6 L 174.2,318.1 L 174.0,318.3 L 40.0,290.0 L 42.9,287.3 L 46.1,282.8 L 49.3,279.2 L 49.6,278.6 L 51.0,276.9 L 54.3,275.2 L 55.8,273.9 L 56.3,273.3 L 60.4,270.1 L 68.6,264.8 L 71.4,263.8 L 75.3,263.5 L 77.0,262.2 L 79.9,259.2 L 84.8,257.3 L 86.6,256.9 L 89.4,256.4 L 90.7,257.0 L 92.1,256.8 L 97.7,253.1" fill="none" stroke="black" stroke-width="2"/>
</svg>