<?xml version="1.0" encoding="UTF-8"?>
<svg width="400" height="400" viewBox="0 0 400 400" xmlns="http://www.w3.org/2000/svg">
  <rect width="400" height="400" fill="white"/>
  <path d="M 72.5,292.9 L 44.6,222.0 L 44.9,221.5 L 45.3,221.2 L 46.6,220.3 L 48.2,219.8 L 48.8,219.2 L 49.0,219.0 L 49.1,218.2 L 49.2,217.7 L 49.5,217.0 L 49.9,216.7 L 50.2,215.8 L 50.2,214.6 L 50.3,214.1 L 51.1,213.3 L 51.2,212.8 L 50.5,211.8 L 49.5,211.6 L 49.3,211.4 L 49.2,211.5 L 48.8,211.2 L 48.4,211.2 L 48.1,211.7 L 47.7,211.9 L 46.8,211.9 L 46.5,211.8 L 45.9,211.5 L 45.6,211.2 L 45.7,210.7 L 46.3,209.6 L 46.3,208.6 L 46.0,207.1 L 45.7,206.8 L 45.1,206.1 L 44.4,205.7 L 44.0,205.8 L 43.3,205.0 L 41.8,203.6 L 41.3,202.1 L 41.8,198.3 L 41.6,197.5 L 41.3,197.2 L 41.0,196.5 L 40.0,195.7 L 50.6,179.8 L 50.8,180.1 L 51.2,180.5 L 52.5,180.6 L 53.1,180.4 L 54.0,180.2 L 54.3,180.2 L 54.6,180.3 L 55.6,180.4 L 55.9,179.9 L 56.2,179.8 L 56.3,180.1 L 56.5,180.8 L 56.9,181.0 L 57.2,180.9 L 57.6,180.7 L 57.9,180.8 L 59.1,180.1 L 59.7,179.8 L 62.9,180.2 L 63.5,180.0 L 64.2,179.3 L 64.3,179.3 L 64.9,179.5 L 64.8,179.8 L 64.6,180.6 L 64.7,181.6 L 64.9,182.1 L 65.3,182.6 L 66.0,182.5 L 66.9,182.1 L 67.7,182.2 L 68.1,182.0 L 68.4,181.8 L 69.3,180.4 L 69.7,179.9 L 70.6,179.9 L 71.2,180.2 L 72.0,180.9 L 72.2,181.8 L 72.5,182.5 L 72.9,182.7 L 73.1,183.2 L 73.1,183.5 L 73.4,184.0 L 73.8,184.3 L 74.3,184.2 L 74.7,184.0 L 75.3,183.9 L 76.1,183.3 L 76.4,183.2 L 76.8,183.1 L 79.0,183.5 L 79.6,183.6 L 80.7,184.3 L 81.1,185.0 L 81.2,185.3 L 81.3,187.3 L 81.0,188.9 L 81.1,189.8 L 81.3,190.5 L 81.5,190.8 L 82.6,191.8 L 83.2,192.2 L 83.8,192.3 L 84.9,192.3 L 85.4,192.5 L 85.8,192.8 L 87.0,193.3 L 88.1,193.3 L 89.1,192.8 L 90.0,192.5 L 91.8,192.3 L 94.0,192.4 L 95.0,192.0 L 95.9,191.4 L 96.5,190.4 L 99.8,187.7 L 100.3,187.5 L 102.0,187.9 L 102.1,188.2 L 101.6,190.3 L 101.5,193.6 L 101.0,196.0 L 100.7,198.2 L 100.6,198.9 L 100.4,202.1 L 100.2,203.2 L 100.1,205.2 L 100.9,205.8 L 103.1,205.7 L 103.9,205.5 L 104.4,205.4 L 104.9,205.6 L 106.2,205.4 L 108.9,204.0 L 109.8,203.9 L 112.4,203.1 L 112.7,202.5 L 114.3,201.7 L 114.9,201.6 L 116.3,201.0 L 118.3,199.7 L 121.2,198.3 L 121.8,198.4 L 122.0,198.4 L 122.3,198.6 L 122.6,198.5 L 122.7,198.2 L 122.8,198.0 L 123.5,197.6 L 124.1,197.4 L 126.1,197.5 L 126.7,197.7 L 127.3,197.6 L 127.7,197.4 L 130.2,193.2 L 130.4,192.4 L 130.5,190.3 L 130.7,189.8 L 130.7,189.3 L 130.4,188.4 L 130.6,186.1 L 130.7,185.7 L 130.5,185.0 L 130.4,184.0 L 130.4,182.6 L 130.2,182.1 L 129.5,179.8 L 129.6,178.2 L 129.6,177.0 L 129.3,176.7 L 128.6,176.5 L 127.5,175.2 L 126.0,174.0 L 125.7,173.3 L 125.5,172.5 L 127.6,172.6 L 131.3,174.3 L 131.5,174.4 L 131.5,174.4 L 131.6,174.9 L 131.8,175.5 L 132.1,176.0 L 133.3,178.2 L 133.4,178.5 L 133.6,179.4 L 133.8,179.8 L 134.3,180.7 L 134.4,181.3 L 134.5,182.3 L 134.7,182.6 L 136.3,184.6 L 136.7,184.9 L 137.7,186.8 L 138.5,188.0 L 140.3,190.0 L 141.0,190.6 L 142.9,192.4 L 143.6,193.0 L 144.5,193.3 L 145.7,193.3 L 146.8,192.9 L 147.5,192.9 L 148.0,193.2 L 148.1,193.6 L 148.6,194.1 L 149.1,194.1 L 149.2,193.7 L 149.5,193.5 L 150.1,193.5 L 150.2,193.8 L 150.4,193.9 L 151.1,193.9 L 152.4,193.3 L 153.5,193.2 L 157.4,193.2 L 157.8,193.4 L 158.4,193.5 L 159.3,193.7 L 159.9,193.8 L 161.0,193.9 L 161.5,193.7 L 161.9,193.4 L 162.2,193.0 L 163.8,191.9 L 164.4,191.2 L 165.6,191.3 L 165.9,191.6 L 166.1,192.3 L 166.7,192.8 L 167.7,192.7 L 168.4,192.3 L 169.8,190.7 L 170.6,190.2 L 171.3,190.1 L 173.3,189.0 L 175.3,187.3 L 176.6,186.4 L 178.1,185.0 L 179.0,184.3 L 179.7,184.2 L 179.9,184.3 L 180.2,184.8 L 180.7,185.1 L 181.2,185.0 L 181.8,184.8 L 182.0,184.5 L 182.3,184.5 L 183.0,184.1 L 183.7,183.7 L 184.7,182.7 L 186.4,181.4 L 186.9,181.4 L 187.2,181.4 L 187.8,181.8 L 188.1,181.7 L 188.5,181.6 L 189.2,181.5 L 189.9,181.0 L 190.6,180.8 L 191.1,180.6 L 191.7,180.3 L 193.6,178.9 L 194.4,178.5 L 194.7,178.2 L 194.7,178.2 L 195.2,177.5 L 195.8,177.0 L 196.8,175.2 L 197.9,173.6 L 199.2,172.2 L 201.7,169.1 L 205.1,165.7 L 206.4,164.5 L 207.1,163.7 L 207.9,163.1 L 208.6,163.0 L 208.8,162.8 L 209.4,161.2 L 210.0,160.4 L 210.2,160.2 L 210.7,160.1 L 211.9,160.1 L 212.4,160.3 L 213.3,160.4 L 213.6,160.7 L 213.7,161.0 L 214.1,161.1 L 214.9,161.1 L 215.4,161.0 L 216.1,161.1 L 216.4,161.2 L 216.7,161.0 L 217.2,160.5 L 217.5,159.9 L 217.7,159.0 L 218.3,157.7 L 218.5,157.6 L 219.0,157.4 L 219.2,157.5 L 219.2,157.6 L 219.4,157.8 L 219.9,157.6 L 220.2,157.4 L 220.9,156.2 L 221.5,155.6 L 223.0,155.6 L 223.1,155.8 L 223.0,157.1 L 223.2,157.6 L 223.4,157.8 L 223.6,157.9 L 224.0,157.8 L 224.6,157.4 L 225.5,156.6 L 225.8,156.1 L 226.8,155.7 L 227.1,155.5 L 227.2,155.1 L 227.1,154.4 L 227.2,153.8 L 227.5,153.4 L 227.4,153.1 L 227.1,153.1 L 227.1,152.0 L 228.5,150.6 L 228.8,150.0 L 228.9,149.2 L 229.2,148.4 L 229.8,147.7 L 230.3,147.4 L 230.8,147.0 L 232.2,145.4 L 232.6,144.6 L 234.3,142.7 L 236.0,141.1 L 236.5,140.9 L 238.0,140.8 L 238.7,141.7 L 239.1,141.4 L 239.5,141.4 L 239.6,141.7 L 239.4,142.1 L 239.6,142.4 L 239.9,142.5 L 240.5,142.2 L 241.0,142.2 L 241.5,142.5 L 241.8,143.2 L 242.1,143.6 L 243.7,143.8 L 243.6,144.3 L 244.3,144.8 L 244.5,144.7 L 245.3,144.0 L 245.5,143.5 L 245.6,143.1 L 245.9,142.9 L 246.1,142.8 L 246.5,142.0 L 246.6,141.7 L 247.1,141.2 L 247.8,140.9 L 248.3,140.8 L 249.2,140.9 L 249.4,140.9 L 250.0,141.0 L 250.8,141.1 L 251.0,141.4 L 251.0,141.9 L 250.7,142.8 L 250.7,143.7 L 251.1,144.0 L 252.4,143.8 L 252.9,144.0 L 252.8,144.2 L 253.0,144.5 L 253.4,144.6 L 254.2,144.5 L 254.6,144.4 L 254.9,144.1 L 255.2,144.1 L 255.7,144.2 L 256.0,144.2 L 257.2,143.0 L 257.5,142.7 L 257.8,142.5 L 258.8,140.9 L 258.9,140.5 L 259.5,140.0 L 259.5,140.0 L 259.8,139.5 L 260.2,138.8 L 261.2,137.4 L 262.0,136.7 L 262.6,135.8 L 263.4,135.2 L 265.2,133.2 L 266.8,131.8 L 267.5,131.3 L 268.2,130.6 L 269.6,129.9 L 270.7,129.4 L 272.4,129.1 L 274.9,128.5 L 278.3,128.7 L 278.5,128.7 L 279.5,128.9 L 280.7,129.1 L 282.7,129.2 L 283.5,128.8 L 286.2,127.1 L 287.6,126.5 L 289.2,126.1 L 290.2,126.1 L 290.8,125.8 L 291.5,125.2 L 292.4,124.8 L 293.3,124.5 L 293.7,124.1 L 294.1,123.5 L 295.2,122.4 L 295.6,122.0 L 295.9,121.5 L 296.6,120.7 L 298.5,117.8 L 299.8,116.5 L 300.4,116.3 L 301.5,115.1 L 301.7,114.6 L 301.9,114.4 L 302.8,114.4 L 304.5,113.2 L 305.8,112.3 L 307.3,111.1 L 307.5,111.0 L 307.8,110.7 L 308.9,109.9 L 309.0,109.8 L 309.8,108.9 L 311.1,107.7 L 312.3,105.9 L 313.0,104.8 L 314.3,103.4 L 315.3,101.4 L 315.4,101.3 L 357.2,130.8 L 357.3,130.8 L 357.1,132.1 L 357.3,132.5 L 357.2,133.3 L 357.4,133.5 L 357.4,133.9 L 357.1,134.3 L 357.2,134.7 L 357.0,135.4 L 356.9,135.8 L 356.8,136.7 L 356.4,137.5 L 356.3,138.2 L 356.3,139.7 L 356.6,140.1 L 356.7,140.4 L 357.0,141.0 L 356.4,142.2 L 356.3,142.6 L 356.1,142.9 L 356.0,143.6 L 355.3,145.8 L 355.3,148.1 L 355.8,149.2 L 355.9,149.8 L 355.9,150.0 L 356.5,151.0 L 357.5,151.5 L 357.6,151.5 L 357.5,151.7 L 357.6,151.9 L 358.2,152.1 L 358.7,152.5 L 359.5,153.3 L 360.0,153.5 L 360.0,153.6 L 332.9,192.5 L 332.4,192.1 L 331.6,191.9 L 331.0,191.5 L 329.0,191.4 L 326.3,192.0 L 325.3,192.0 L 323.6,191.6 L 322.5,191.2 L 321.1,190.4 L 319.6,189.5 L 319.0,189.8 L 319.0,189.8 L 317.5,190.0 L 316.3,189.7 L 315.4,189.2 L 313.5,188.2 L 312.8,188.0 L 311.7,187.9 L 310.4,187.9 L 309.1,188.5 L 308.0,188.4 L 306.9,188.5 L 305.9,188.7 L 305.2,188.8 L 304.3,189.0 L 303.8,189.2 L 303.0,189.2 L 302.1,189.9 L 301.7,190.1 L 300.8,190.2 L 298.2,191.5 L 297.2,192.8 L 297.1,193.3 L 296.8,193.5 L 296.5,194.5 L 295.6,195.3 L 293.8,196.6 L 293.3,196.6 L 291.6,197.1 L 290.7,197.6 L 289.6,198.6 L 289.1,198.8 L 288.6,199.1 L 288.4,199.4 L 287.8,199.9 L 287.0,199.9 L 286.6,200.3 L 286.5,200.6 L 286.1,201.0 L 285.8,201.4 L 285.4,201.8 L 284.8,201.9 L 284.6,202.2 L 283.3,203.2 L 282.7,203.5 L 281.9,204.0 L 280.4,204.3 L 278.4,205.2 L 278.0,205.5 L 277.7,205.8 L 277.6,205.9 L 277.2,206.0 L 275.8,207.2 L 275.8,207.7 L 276.2,208.2 L 276.9,208.4 L 276.3,209.0 L 275.8,209.2 L 275.5,209.5 L 275.4,209.8 L 275.3,210.0 L 274.8,210.0 L 274.1,210.2 L 272.9,210.9 L 272.4,210.8 L 270.2,211.7 L 269.1,212.4 L 267.5,212.9 L 266.5,213.0 L 265.6,213.4 L 265.0,213.9 L 264.5,214.0 L 264.0,214.2 L 262.0,216.1 L 261.1,216.5 L 260.8,216.8 L 260.5,217.3 L 260.1,217.4 L 259.2,217.6 L 258.0,218.1 L 257.9,218.2 L 256.0,219.2 L 255.2,219.9 L 254.9,220.9 L 254.9,221.4 L 255.2,221.8 L 255.1,222.2 L 254.4,223.0 L 254.5,224.0 L 254.7,224.1 L 255.8,224.4 L 256.1,224.7 L 256.0,225.3 L 255.7,225.6 L 254.8,226.1 L 254.1,226.6 L 253.9,227.1 L 252.9,227.0 L 252.4,226.9 L 252.1,226.3 L 251.9,226.2 L 251.5,226.4 L 250.7,226.6 L 250.0,227.2 L 250.2,227.6 L 250.3,228.0 L 250.4,229.2 L 250.2,229.5 L 248.9,230.0 L 248.5,229.8 L 248.4,229.3 L 248.1,229.1 L 247.7,229.5 L 247.2,229.1 L 246.0,229.5 L 245.7,229.7 L 245.6,230.7 L 245.9,231.0 L 247.0,231.3 L 247.3,231.6 L 247.3,232.1 L 246.8,233.1 L 247.4,234.1 L 247.5,234.8 L 247.2,235.2 L 247.1,235.8 L 246.7,236.1 L 246.4,236.3 L 245.1,235.9 L 244.8,236.0 L 244.5,236.3 L 244.6,236.7 L 245.1,237.0 L 245.5,237.2 L 245.9,237.2 L 246.1,237.7 L 245.0,238.9 L 244.3,239.8 L 243.2,240.7 L 242.1,240.5 L 240.6,239.8 L 240.1,240.0 L 239.6,239.9 L 239.0,240.3 L 238.4,240.3 L 238.1,240.1 L 237.7,240.0 L 236.6,240.5 L 236.1,240.6 L 235.3,240.4 L 235.0,240.1 L 234.5,239.9 L 234.0,240.0 L 233.4,240.8 L 233.4,241.2 L 232.9,241.6 L 232.3,241.8 L 231.5,242.5 L 230.8,242.9 L 229.9,243.1 L 228.5,243.1 L 227.8,243.2 L 227.0,243.2 L 226.5,243.4 L 224.7,243.2 L 223.8,243.4 L 223.0,243.6 L 222.5,243.9 L 222.3,244.2 L 222.0,244.4 L 220.8,244.5 L 220.8,244.5 L 219.7,244.9 L 219.6,244.3 L 219.4,244.1 L 219.1,243.2 L 218.6,243.2 L 218.1,243.0 L 218.2,242.3 L 217.7,242.2 L 216.9,242.9 L 216.8,242.8 L 216.8,242.1 L 216.3,242.1 L 216.0,242.4 L 215.7,243.0 L 215.3,243.8 L 215.3,245.0 L 214.5,245.8 L 214.0,246.0 L 213.5,246.1 L 213.1,246.2 L 213.0,246.9 L 213.4,247.7 L 213.4,248.2 L 213.9,249.3 L 213.7,249.5 L 213.0,249.3 L 212.7,249.6 L 212.1,249.8 L 211.5,249.6 L 211.1,249.6 L 210.4,249.4 L 210.1,249.6 L 209.9,250.2 L 209.3,250.4 L 209.1,250.3 L 208.7,250.8 L 208.2,251.3 L 207.7,252.4 L 207.4,252.5 L 207.2,252.4 L 207.4,251.6 L 207.2,251.4 L 206.7,252.0 L 206.1,253.1 L 205.9,254.6 L 205.5,255.2 L 205.0,255.8 L 204.3,256.1 L 204.2,255.9 L 204.1,255.8 L 202.4,258.0 L 202.4,258.5 L 202.6,258.7 L 202.5,258.7 L 94.8,298.7 L 94.5,298.4 L 92.9,297.3 L 91.9,296.9 L 87.8,296.7 L 85.1,296.9 L 84.4,296.8 L 84.0,296.7 L 81.8,296.0 L 80.2,295.4 L 79.2,295.2 L 77.4,294.8 L 76.1,294.3 L 75.1,293.7 L 74.7,293.4 L 74.5,292.6 L 73.6,292.6 L 73.2,292.7" fill="none" stroke="black" stroke-width="2"/>
</svg>