<?xml version="1.0" encoding="UTF-8"?>
<svg width="400" height="400" viewBox="0 0 400 400" xmlns="http://www.w3.org/2000/svg">
  <rect width="400" height="400" fill="white"/>
  <path d="M 114.1,246.4 L 114.4,245.9 L 115.2,242.9 L 115.5,241.8 L 116.0,241.1 L 116.7,240.2 L 117.0,239.3 L 117.6,238.6 L 118.3,238.2 L 118.7,237.7 L 118.8,237.0 L 118.7,236.6 L 118.9,235.8 L 119.7,234.3 L 119.8,233.8 L 120.7,231.8 L 122.0,229.0 L 122.1,228.1 L 121.7,227.8 L 121.2,227.6 L 119.4,227.5 L 118.8,227.1 L 116.0,222.7 L 115.4,222.5 L 114.3,222.4 L 113.5,222.1 L 113.0,221.5 L 112.7,220.7 L 112.0,220.1 L 111.9,219.6 L 111.7,218.5 L 111.4,218.1 L 110.8,217.7 L 110.3,216.5 L 109.5,215.3 L 109.2,215.0 L 108.7,214.2 L 108.4,213.7 L 107.7,213.0 L 106.3,212.6 L 105.9,212.3 L 105.7,211.7 L 105.4,211.4 L 105.0,211.3 L 104.6,211.2 L 103.7,210.9 L 103.0,210.2 L 102.7,209.5 L 102.2,209.1 L 100.7,208.1 L 100.3,208.1 L 99.6,208.2 L 98.1,208.0 L 96.7,208.0 L 96.2,208.4 L 95.8,208.8 L 94.0,208.8 L 93.5,208.7 L 93.1,208.3 L 92.2,208.0 L 91.4,207.6 L 91.3,207.5 L 90.7,207.1 L 89.6,206.0 L 89.1,205.1 L 89.0,204.0 L 89.1,202.8 L 90.1,201.9 L 90.3,201.4 L 90.5,200.4 L 89.8,199.9 L 89.9,199.5 L 90.1,199.3 L 90.1,199.1 L 90.2,198.1 L 89.5,197.4 L 89.5,197.0 L 89.1,196.1 L 88.5,195.4 L 88.5,194.2 L 88.6,193.4 L 89.6,191.3 L 90.0,190.9 L 90.2,190.8 L 90.5,190.4 L 90.7,188.1 L 91.0,187.4 L 91.3,187.1 L 91.7,187.0 L 92.1,186.6 L 92.7,185.4 L 92.7,185.1 L 92.4,184.8 L 91.5,184.7 L 91.0,184.3 L 90.2,184.3 L 89.7,184.1 L 88.3,184.1 L 87.1,183.7 L 85.2,182.0 L 84.3,181.6 L 83.1,181.5 L 82.7,181.0 L 82.2,180.0 L 82.1,177.4 L 82.4,175.7 L 82.5,174.9 L 82.8,173.8 L 83.1,173.5 L 83.1,173.1 L 82.8,172.4 L 83.3,170.5 L 83.5,170.1 L 83.4,169.8 L 83.1,169.6 L 82.4,169.5 L 81.9,168.9 L 80.9,167.4 L 80.8,166.7 L 80.1,165.7 L 79.8,164.1 L 79.7,162.4 L 79.5,162.0 L 79.6,161.6 L 79.7,160.6 L 79.6,160.2 L 79.8,159.6 L 79.7,158.4 L 80.0,155.9 L 80.3,155.5 L 80.8,155.2 L 81.1,155.3 L 81.5,155.8 L 82.0,156.2 L 82.5,156.8 L 82.7,157.4 L 82.9,157.6 L 83.2,157.5 L 83.6,157.7 L 83.8,157.5 L 84.2,157.0 L 84.6,156.7 L 85.1,155.6 L 85.6,155.1 L 85.5,154.6 L 85.6,153.9 L 85.7,153.7 L 85.4,153.2 L 85.5,152.3 L 85.2,151.5 L 85.1,150.9 L 84.7,149.5 L 84.9,147.3 L 84.5,146.3 L 83.3,144.7 L 82.9,144.4 L 82.3,143.5 L 82.1,142.1 L 81.9,141.7 L 81.2,141.6 L 81.1,141.4 L 81.0,141.1 L 80.2,140.4 L 80.4,139.9 L 80.1,139.6 L 80.1,139.5 L 80.5,139.3 L 80.8,139.6 L 80.9,139.9 L 81.5,139.9 L 81.7,140.1 L 81.9,140.6 L 81.9,141.1 L 82.2,141.3 L 82.7,141.2 L 83.2,140.9 L 83.3,140.2 L 83.5,140.2 L 84.0,140.6 L 84.6,140.4 L 85.0,139.9 L 85.3,140.1 L 85.6,140.0 L 86.5,139.1 L 86.6,138.6 L 86.6,138.0 L 86.1,137.1 L 85.6,136.1 L 85.1,135.8 L 84.7,135.7 L 84.1,135.1 L 84.1,133.7 L 84.0,133.2 L 84.9,132.8 L 85.1,132.5 L 85.0,132.2 L 84.7,131.6 L 84.8,131.3 L 85.0,131.3 L 85.3,131.6 L 85.7,131.5 L 86.0,131.1 L 86.2,130.9 L 86.4,130.7 L 87.0,130.8 L 87.7,131.1 L 88.2,131.2 L 88.5,131.7 L 89.2,131.9 L 89.6,132.3 L 90.3,132.4 L 90.9,132.6 L 91.5,133.4 L 92.1,133.6 L 92.6,133.8 L 92.9,134.2 L 92.9,134.8 L 94.0,135.5 L 94.9,135.9 L 95.5,136.0 L 96.5,136.4 L 98.0,137.8 L 98.6,138.9 L 99.6,139.4 L 100.0,140.1 L 100.9,140.8 L 101.2,141.1 L 101.9,141.3 L 102.0,141.4 L 102.3,141.9 L 101.8,142.4 L 101.7,143.1 L 101.4,143.4 L 101.2,143.7 L 100.8,145.9 L 100.6,146.7 L 100.5,146.8 L 98.6,150.0 L 98.5,150.2 L 98.3,150.7 L 98.0,151.1 L 97.3,152.8 L 97.1,154.0 L 97.2,154.6 L 98.3,156.2 L 98.4,156.7 L 98.4,157.2 L 98.2,157.8 L 98.0,158.5 L 97.8,158.7 L 97.4,159.3 L 97.3,159.5 L 97.1,159.8 L 97.1,159.9 L 96.8,160.3 L 96.0,161.1 L 95.8,161.5 L 96.3,162.8 L 96.8,163.2 L 97.7,163.8 L 98.7,163.8 L 99.2,164.0 L 99.9,164.3 L 100.3,164.5 L 101.3,164.6 L 101.7,164.8 L 102.8,165.0 L 103.2,165.1 L 103.5,165.6 L 103.7,165.8 L 104.1,165.9 L 104.2,166.1 L 106.5,166.5 L 107.1,166.5 L 107.6,166.4 L 109.2,166.4 L 110.0,166.2 L 110.5,166.4 L 112.1,166.4 L 113.8,166.1 L 115.9,166.2 L 116.2,166.3 L 117.8,166.4 L 118.7,167.4 L 118.7,169.0 L 119.0,169.7 L 119.3,169.9 L 120.2,171.0 L 120.8,171.3 L 121.2,172.3 L 121.7,172.8 L 121.9,173.0 L 121.9,174.4 L 122.0,174.6 L 122.4,175.4 L 122.6,175.5 L 122.8,175.7 L 122.6,176.1 L 122.8,176.3 L 122.4,176.8 L 122.2,177.2 L 122.1,178.0 L 123.2,177.7 L 124.1,176.8 L 124.5,175.4 L 124.5,174.7 L 124.5,173.2 L 124.2,172.8 L 124.4,172.4 L 124.6,172.0 L 124.2,170.9 L 124.1,169.9 L 124.2,169.3 L 124.0,168.3 L 124.2,166.8 L 124.3,166.1 L 124.6,164.8 L 125.3,163.6 L 126.5,162.5 L 126.9,162.4 L 127.5,162.6 L 127.8,162.5 L 128.0,162.1 L 127.9,161.3 L 127.7,160.8 L 127.6,160.3 L 127.9,159.9 L 129.1,159.4 L 129.3,159.3 L 129.6,159.0 L 130.1,158.6 L 131.6,158.2 L 132.8,157.8 L 133.3,157.8 L 133.6,157.8 L 133.8,157.7 L 134.0,157.7 L 134.9,157.6 L 135.6,157.5 L 136.8,157.1 L 137.2,156.9 L 137.9,156.6 L 138.2,156.4 L 138.8,156.1 L 139.3,155.8 L 139.7,155.7 L 140.0,155.6 L 141.0,155.5 L 141.8,155.4 L 143.7,155.4 L 146.4,154.8 L 146.8,154.7 L 146.9,154.6 L 147.2,154.2 L 147.4,153.8 L 147.7,153.5 L 148.1,153.4 L 148.6,152.8 L 148.7,153.4 L 148.5,153.6 L 148.5,154.0 L 148.8,154.5 L 149.0,154.8 L 149.1,155.0 L 149.7,155.4 L 150.0,156.2 L 150.0,156.5 L 150.3,157.2 L 151.0,157.8 L 152.1,157.9 L 152.8,157.8 L 153.5,157.4 L 153.7,156.7 L 153.7,155.7 L 153.6,155.5 L 153.8,155.1 L 154.3,155.0 L 155.1,155.1 L 155.6,155.2 L 156.8,155.2 L 159.4,154.7 L 159.7,154.7 L 160.1,154.7 L 161.3,154.5 L 162.7,154.0 L 164.0,153.5 L 164.9,153.5 L 165.2,153.5 L 165.5,153.5 L 166.0,153.9 L 166.8,154.0 L 167.1,153.9 L 167.9,153.2 L 168.3,153.0 L 169.2,152.9 L 170.6,152.7 L 171.1,152.9 L 171.4,152.9 L 171.9,152.6 L 172.6,152.4 L 173.4,152.1 L 173.9,152.0 L 174.6,151.7 L 176.3,151.4 L 177.3,151.3 L 178.1,151.3 L 180.1,151.3 L 181.0,151.5 L 181.6,151.3 L 182.9,151.3 L 183.3,151.1 L 183.7,150.9 L 185.8,150.7 L 186.6,150.5 L 187.2,150.4 L 187.7,150.4 L 188.4,150.6 L 189.0,150.4 L 189.9,150.1 L 190.2,150.1 L 190.7,150.5 L 191.4,150.5 L 192.1,150.0 L 193.1,149.8 L 193.9,149.8 L 194.5,149.5 L 195.5,148.8 L 198.7,147.5 L 199.4,147.1 L 199.7,147.0 L 200.0,146.8 L 200.8,146.0 L 201.2,145.4 L 201.7,145.3 L 202.1,144.8 L 202.9,143.7 L 203.2,143.0 L 204.2,141.4 L 204.7,140.6 L 206.3,139.7 L 206.9,139.1 L 207.4,138.3 L 207.9,137.9 L 208.4,137.9 L 208.9,137.7 L 209.3,137.7 L 209.4,138.0 L 209.8,137.9 L 210.5,137.5 L 212.1,137.3 L 213.1,137.1 L 213.3,137.4 L 213.0,138.3 L 213.2,138.8 L 214.2,138.8 L 214.4,139.0 L 214.7,138.9 L 215.1,138.7 L 215.3,138.6 L 216.0,138.3 L 216.2,138.3 L 217.0,137.8 L 217.5,137.6 L 217.8,137.4 L 218.8,136.5 L 219.2,135.7 L 219.4,135.5 L 220.2,135.1 L 220.4,134.9 L 220.1,134.7 L 219.7,134.6 L 219.6,134.5 L 219.6,134.1 L 219.5,133.7 L 219.3,133.6 L 218.8,133.4 L 218.6,133.4 L 217.8,134.3 L 217.7,134.4 L 217.2,134.4 L 216.7,134.2 L 216.5,133.7 L 216.6,133.0 L 216.7,132.8 L 216.7,132.5 L 216.8,132.3 L 216.9,131.9 L 217.8,130.4 L 218.2,129.5 L 218.9,128.6 L 219.4,128.1 L 220.2,127.7 L 222.4,125.5 L 223.2,124.5 L 223.5,123.9 L 224.6,123.0 L 225.4,122.8 L 225.9,122.4 L 226.6,121.6 L 227.3,121.2 L 228.5,120.3 L 230.0,118.6 L 230.3,117.7 L 230.8,117.2 L 231.4,117.0 L 232.4,116.6 L 233.4,115.7 L 233.7,115.2 L 233.7,114.9 L 235.1,113.2 L 236.1,112.2 L 236.6,111.9 L 236.7,111.9 L 238.4,111.1 L 239.1,110.0 L 239.2,109.5 L 239.9,108.8 L 240.3,108.1 L 240.7,107.0 L 240.8,106.3 L 240.9,105.9 L 241.1,105.4 L 241.3,104.9 L 241.9,104.0 L 242.4,103.6 L 242.8,103.3 L 243.1,103.1 L 243.5,102.8 L 243.7,102.3 L 244.5,101.3 L 244.7,101.2 L 245.1,100.6 L 245.2,100.3 L 245.1,100.0 L 245.3,99.1 L 245.5,98.8 L 245.5,98.4 L 246.1,97.0 L 246.6,96.8 L 247.1,96.2 L 247.9,95.6 L 248.3,95.7 L 250.3,94.4 L 250.8,93.7 L 251.0,93.7 L 251.4,93.8 L 251.9,93.4 L 252.2,93.3 L 252.5,92.9 L 253.0,92.6 L 253.2,92.4 L 253.4,92.0 L 254.0,91.3 L 254.2,90.9 L 254.3,90.3 L 255.2,89.1 L 255.6,88.7 L 255.9,87.7 L 256.4,87.0 L 257.3,86.7 L 257.8,86.3 L 258.1,85.5 L 258.3,85.3 L 258.7,85.1 L 259.3,85.1 L 261.0,84.6 L 262.0,83.8 L 262.3,83.4 L 263.3,82.5 L 263.5,82.3 L 264.4,82.4 L 264.8,82.0 L 265.4,81.8 L 265.8,81.4 L 265.8,81.4 L 266.6,81.1 L 267.1,81.0 L 268.2,80.4 L 268.8,79.5 L 270.6,78.4 L 271.4,77.5 L 272.9,76.4 L 273.6,75.7 L 273.9,75.3 L 277.0,71.3 L 277.8,70.7 L 278.7,68.8 L 278.9,67.9 L 278.6,67.1 L 278.5,66.4 L 278.6,65.0 L 279.9,63.7 L 280.4,62.8 L 280.7,62.6 L 280.9,62.2 L 280.9,61.8 L 281.0,61.5 L 281.0,61.2 L 280.6,60.7 L 280.5,60.1 L 280.1,59.8 L 280.6,59.0 L 280.9,58.6 L 281.2,58.0 L 281.9,57.5 L 282.5,57.4 L 283.0,57.1 L 283.5,57.0 L 284.1,56.9 L 286.4,56.0 L 286.6,55.7 L 286.9,55.5 L 287.3,55.4 L 287.9,55.1 L 288.7,55.0 L 290.1,55.2 L 290.7,55.6 L 290.8,55.8 L 290.7,56.8 L 290.6,57.6 L 290.6,58.0 L 290.4,58.5 L 290.6,58.9 L 290.8,59.0 L 291.1,58.8 L 291.4,58.7 L 291.4,59.2 L 291.6,59.7 L 292.3,59.7 L 292.4,59.9 L 291.4,61.3 L 291.4,62.4 L 292.0,63.1 L 292.4,63.0 L 292.9,62.7 L 293.5,62.7 L 294.6,61.8 L 294.7,61.5 L 295.1,61.7 L 295.6,61.6 L 296.1,61.5 L 296.7,61.0 L 297.2,60.7 L 298.2,59.8 L 299.4,59.3 L 299.9,58.9 L 301.0,58.2 L 302.1,56.9 L 302.4,56.4 L 303.1,55.7 L 303.8,55.1 L 305.0,54.8 L 305.7,54.7 L 306.8,54.8 L 307.1,55.1 L 307.1,55.7 L 306.7,56.1 L 306.8,56.2 L 307.9,56.0 L 308.8,55.5 L 309.6,54.5 L 310.9,54.6 L 311.3,54.3 L 311.4,54.1 L 311.8,54.0 L 312.5,53.3 L 313.5,53.1 L 313.6,52.9 L 313.5,52.7 L 313.6,52.4 L 314.6,51.6 L 315.0,51.0 L 314.9,50.8 L 315.6,50.5 L 316.0,48.9 L 316.6,47.9 L 316.9,47.8 L 317.5,47.8 L 317.6,47.8 L 317.8,47.6 L 317.9,47.2 L 318.2,47.0 L 318.7,47.0 L 319.1,46.5 L 319.8,46.0 L 320.1,46.1 L 320.6,46.4 L 320.6,46.9 L 320.4,47.2 L 320.4,47.5 L 320.6,47.8 L 321.0,48.0 L 322.1,48.0 L 323.2,47.1 L 323.8,46.2 L 323.9,45.8 L 324.5,44.6 L 325.5,43.8 L 326.7,43.6 L 327.9,42.7 L 328.2,42.6 L 328.5,42.8 L 328.7,43.2 L 328.7,43.6 L 328.9,43.9 L 328.9,44.5 L 329.3,44.8 L 329.8,44.8 L 330.3,44.5 L 330.5,44.3 L 330.4,44.1 L 330.3,43.9 L 330.3,43.3 L 330.3,42.8 L 331.1,42.4 L 331.3,41.9 L 331.1,41.4 L 331.7,40.8 L 332.3,40.7 L 333.0,40.0 L 333.5,40.0 L 334.0,40.6 L 334.0,41.4 L 335.1,41.4 L 335.3,41.5 L 335.9,41.6 L 336.1,41.7 L 337.1,41.7 L 337.5,41.6 L 338.0,41.6 L 338.3,41.4 L 338.8,41.4 L 338.7,41.6 L 338.1,42.0 L 336.3,42.1 L 335.6,42.4 L 334.8,43.1 L 334.3,43.7 L 334.1,46.1 L 333.9,46.6 L 333.6,46.9 L 333.3,47.2 L 332.9,48.0 L 332.8,48.3 L 332.2,48.8 L 331.6,48.9 L 331.2,49.3 L 331.0,49.5 L 330.6,50.1 L 330.6,50.2 L 330.4,50.6 L 330.3,50.8 L 329.9,50.9 L 329.8,50.9 L 329.3,51.2 L 328.6,51.9 L 328.4,52.5 L 328.4,52.9 L 328.0,53.2 L 327.8,53.2 L 327.7,52.9 L 327.5,52.7 L 327.3,52.7 L 326.1,53.3 L 325.1,54.2 L 324.5,54.3 L 324.1,54.9 L 323.4,55.1 L 323.0,55.9 L 322.9,56.4 L 323.2,56.7 L 322.6,57.1 L 322.6,57.5 L 322.7,57.7 L 322.6,58.0 L 322.6,58.7 L 322.0,59.2 L 321.9,59.7 L 321.6,60.0 L 321.6,60.6 L 320.8,61.0 L 320.4,61.5 L 319.8,61.6 L 319.4,61.6 L 319.1,61.5 L 318.3,61.6 L 317.3,61.9 L 316.3,62.3 L 316.1,62.7 L 315.7,62.8 L 314.8,63.0 L 314.5,63.4 L 313.6,64.3 L 313.5,64.8 L 312.4,65.6 L 311.2,67.5 L 311.1,68.2 L 312.0,68.8 L 312.5,68.7 L 314.0,67.7 L 316.2,66.4 L 316.6,66.3 L 316.8,66.4 L 317.2,66.3 L 317.8,66.6 L 318.2,66.6 L 319.1,66.0 L 319.2,65.8 L 319.7,65.8 L 320.3,65.5 L 320.5,65.2 L 320.9,64.9 L 321.2,64.6 L 322.7,64.1 L 323.3,63.7 L 323.8,63.6 L 324.0,63.4 L 324.4,63.1 L 324.4,62.8 L 324.9,62.4 L 325.0,62.1 L 325.4,61.8 L 326.1,61.5 L 326.0,61.2 L 327.0,60.7 L 327.2,60.3 L 327.3,60.1 L 328.6,60.1 L 328.9,60.0 L 329.1,59.8 L 329.2,59.4 L 329.5,58.8 L 329.9,58.6 L 330.6,58.2 L 330.7,57.8 L 331.2,57.5 L 331.5,57.4 L 332.1,57.3 L 332.4,57.1 L 332.7,57.1 L 334.0,56.1 L 334.5,55.5 L 335.5,55.0 L 335.8,55.1 L 336.1,55.5 L 335.9,56.0 L 336.0,56.3 L 336.5,56.2 L 336.6,56.4 L 337.3,56.7 L 338.2,56.6 L 338.8,56.5 L 339.7,56.4 L 339.8,56.5 L 340.2,56.5 L 340.3,56.4 L 340.6,56.6 L 340.8,56.5 L 341.0,56.4 L 341.2,56.7 L 342.8,56.1 L 343.2,56.4 L 343.7,56.3 L 344.0,56.1 L 344.6,56.1 L 344.6,56.3 L 344.2,57.8 L 343.7,58.5 L 343.3,58.7 L 342.8,59.2 L 342.4,60.2 L 341.9,60.6 L 341.2,61.0 L 341.0,61.0 L 340.3,61.3 L 339.4,61.7 L 338.4,62.2 L 337.4,62.3 L 337.2,62.6 L 337.1,63.2 L 336.9,63.4 L 336.5,63.8 L 335.4,63.6 L 334.6,63.8 L 334.0,64.1 L 333.5,64.9 L 333.1,65.3 L 332.2,65.5 L 330.6,66.6 L 330.1,66.7 L 329.2,67.1 L 329.0,67.1 L 328.0,67.4 L 326.6,67.9 L 326.0,67.9 L 325.4,67.7 L 324.7,68.2 L 324.6,68.5 L 324.2,68.4 L 324.2,68.7 L 323.8,68.8 L 322.8,68.9 L 320.1,68.8 L 318.7,69.2 L 317.9,69.6 L 316.4,71.2 L 316.1,71.5 L 316.3,72.4 L 316.6,73.0 L 316.6,73.4 L 317.3,75.2 L 317.0,75.7 L 316.8,77.7 L 316.5,78.5 L 315.4,80.3 L 314.0,81.6 L 313.9,81.9 L 313.5,82.2 L 313.3,82.4 L 313.0,82.6 L 312.6,83.4 L 312.4,83.6 L 312.1,84.2 L 311.7,84.8 L 311.3,85.8 L 310.8,86.1 L 310.4,86.2 L 309.8,86.5 L 309.4,86.9 L 308.8,86.9 L 308.3,87.3 L 307.9,88.1 L 306.9,88.3 L 306.1,88.8 L 305.9,89.2 L 305.1,89.1 L 304.7,89.0 L 304.3,88.9 L 303.3,89.3 L 303.2,90.7 L 303.1,90.8 L 303.0,91.1 L 302.7,91.0 L 302.0,90.7 L 301.9,90.3 L 301.7,90.3 L 301.3,89.9 L 301.0,89.9 L 300.4,90.3 L 300.2,90.6 L 299.2,90.6 L 298.2,90.9 L 297.7,91.2 L 297.4,91.3 L 296.5,91.8 L 296.1,92.2 L 295.8,92.2 L 295.6,91.6 L 295.3,91.3 L 295.0,91.2 L 294.9,91.1 L 292.1,90.9 L 291.4,91.0 L 290.9,91.2 L 290.7,91.2 L 289.7,91.3 L 289.3,91.3 L 289.0,91.3 L 287.9,91.8 L 287.4,92.3 L 287.1,92.9 L 286.8,93.0 L 286.2,93.3 L 285.5,93.8 L 285.2,94.1 L 285.1,94.4 L 284.9,94.4 L 284.4,95.0 L 284.4,95.5 L 283.8,95.8 L 283.8,96.0 L 283.0,96.8 L 282.7,97.4 L 282.6,98.4 L 282.9,98.6 L 283.8,99.2 L 284.1,100.0 L 284.4,100.4 L 285.1,100.9 L 285.2,101.3 L 286.1,102.1 L 286.0,102.7 L 286.3,103.0 L 286.4,103.4 L 287.2,103.2 L 288.0,102.6 L 288.8,102.2 L 289.0,101.9 L 289.2,101.6 L 289.7,101.3 L 290.2,101.0 L 291.2,100.5 L 291.5,100.5 L 291.7,100.9 L 291.6,101.3 L 291.5,101.5 L 291.7,102.0 L 292.1,102.4 L 292.3,103.1 L 292.6,103.5 L 293.0,104.2 L 293.6,104.4 L 294.0,104.8 L 294.5,104.9 L 294.6,105.2 L 294.5,105.9 L 294.7,106.3 L 294.8,106.8 L 295.5,107.6 L 295.7,107.8 L 295.8,108.2 L 295.9,108.3 L 295.9,108.7 L 296.4,108.4 L 298.0,108.7 L 298.4,108.8 L 298.9,109.8 L 299.2,110.5 L 299.4,111.6 L 299.6,112.3 L 299.6,114.1 L 299.5,114.7 L 299.2,115.2 L 298.6,115.7 L 298.2,115.8 L 297.1,115.9 L 296.4,116.2 L 294.5,116.1 L 294.3,116.0 L 294.1,115.7 L 293.6,115.8 L 293.3,115.7 L 293.0,115.4 L 292.3,115.5 L 291.8,115.5 L 291.5,115.3 L 291.4,114.9 L 291.2,114.9 L 290.5,115.1 L 290.2,115.5 L 289.7,115.5 L 288.9,115.8 L 288.7,116.3 L 288.2,116.8 L 286.9,117.4 L 286.2,117.8 L 285.7,118.4 L 285.6,118.7 L 284.2,119.6 L 284.1,119.7 L 283.6,120.5 L 283.1,120.6 L 282.4,121.0 L 282.2,121.9 L 282.1,122.5 L 281.4,123.6 L 280.9,124.2 L 280.7,125.0 L 279.9,125.2 L 279.0,125.8 L 278.7,126.4 L 279.2,126.6 L 279.5,126.8 L 279.3,127.2 L 279.2,127.7 L 279.3,128.2 L 279.3,129.0 L 279.1,129.2 L 278.5,129.6 L 278.1,130.0 L 278.1,130.5 L 278.1,130.6 L 279.0,130.3 L 279.3,129.8 L 279.5,129.7 L 279.7,129.9 L 279.8,130.3 L 279.9,130.7 L 279.8,131.7 L 279.7,132.1 L 279.8,132.7 L 279.0,133.0 L 278.5,133.7 L 278.1,134.0 L 278.1,134.2 L 277.9,135.1 L 277.6,135.4 L 277.1,135.5 L 276.7,135.9 L 276.0,136.5 L 273.8,137.4 L 273.1,137.9 L 271.9,138.7 L 270.4,139.4 L 269.5,140.1 L 269.0,140.5 L 268.5,141.2 L 268.5,141.4 L 268.4,141.8 L 268.0,142.4 L 268.1,142.8 L 267.5,145.6 L 267.2,146.0 L 267.2,146.3 L 267.0,146.8 L 266.5,147.3 L 266.0,147.4 L 265.8,147.5 L 263.9,148.1 L 263.3,148.5 L 262.5,148.7 L 262.1,149.6 L 262.0,150.3 L 262.3,150.7 L 262.2,151.4 L 262.4,151.4 L 262.8,151.1 L 263.2,151.2 L 263.4,151.5 L 262.9,151.6 L 262.8,151.8 L 263.0,152.0 L 263.5,152.0 L 263.9,151.7 L 264.3,152.0 L 264.5,151.9 L 265.1,151.5 L 265.0,151.1 L 264.4,150.4 L 264.5,150.0 L 265.5,149.1 L 265.8,149.1 L 266.5,149.4 L 267.5,149.0 L 268.4,149.0 L 269.9,149.9 L 271.0,150.4 L 271.4,150.4 L 271.8,150.2 L 272.1,150.2 L 272.3,150.4 L 272.2,150.7 L 271.6,150.7 L 271.5,150.8 L 271.5,151.1 L 272.0,151.5 L 272.7,151.6 L 273.9,152.2 L 274.7,152.9 L 274.8,153.2 L 274.6,153.5 L 273.7,153.9 L 271.5,153.9 L 271.0,154.0 L 270.4,154.1 L 269.7,153.8 L 268.4,153.4 L 267.6,153.4 L 267.2,153.2 L 266.4,153.1 L 266.1,152.9 L 265.8,152.9 L 265.8,153.0 L 265.6,153.4 L 264.8,153.0 L 263.8,153.0 L 262.6,153.5 L 262.4,153.8 L 261.6,154.6 L 261.4,155.0 L 261.1,155.5 L 260.9,155.9 L 261.1,157.5 L 261.4,158.1 L 261.9,158.4 L 262.7,159.2 L 263.2,159.6 L 263.3,160.2 L 263.5,160.3 L 263.5,160.4 L 263.0,161.3 L 262.5,161.3 L 262.1,161.3 L 261.8,161.7 L 261.4,162.1 L 261.3,162.5 L 261.4,162.8 L 261.7,163.1 L 262.1,163.0 L 262.3,162.9 L 251.7,186.6 L 251.4,186.5 L 251.2,186.2 L 250.7,186.1 L 250.2,185.8 L 249.5,185.6 L 247.9,184.9 L 247.3,184.5 L 246.6,184.0 L 245.9,183.9 L 244.1,184.7 L 243.0,184.7 L 242.4,185.1 L 240.6,185.2 L 239.5,184.7 L 239.3,184.6 L 239.0,184.4 L 238.3,184.8 L 237.6,185.0 L 236.8,185.0 L 235.8,185.5 L 234.1,186.6 L 232.8,187.2 L 231.5,187.1 L 230.8,186.9 L 227.8,188.1 L 227.1,188.4 L 226.6,188.5 L 225.8,189.3 L 225.4,189.7 L 224.9,190.0 L 224.4,190.2 L 223.6,190.7 L 223.0,190.8 L 222.6,190.6 L 222.4,190.6 L 220.8,191.7 L 220.6,191.6 L 220.2,191.6 L 220.0,192.0 L 219.9,192.4 L 219.7,192.9 L 219.5,193.1 L 219.3,193.2 L 218.7,193.5 L 218.4,193.9 L 218.4,194.1 L 218.0,194.9 L 217.8,195.3 L 217.6,195.6 L 216.9,196.1 L 216.8,196.3 L 216.4,196.4 L 215.6,197.1 L 215.1,197.2 L 214.4,197.6 L 214.2,197.6 L 213.8,197.9 L 213.3,198.1 L 212.4,198.7 L 211.5,199.2 L 208.9,201.4 L 208.2,202.3 L 207.8,202.6 L 207.4,202.7 L 207.1,204.9 L 205.9,206.5 L 205.5,207.5 L 205.1,208.7 L 204.8,209.4 L 203.7,210.5 L 203.2,211.2 L 202.2,213.3 L 201.5,214.3 L 201.1,216.1 L 200.7,217.0 L 200.1,218.9 L 199.7,219.3 L 199.5,219.4 L 198.8,219.8 L 197.8,220.6 L 197.2,221.3 L 196.3,222.9 L 195.4,223.9 L 195.1,224.5 L 194.7,225.1 L 194.2,225.4 L 191.0,226.4 L 190.4,226.9 L 189.8,227.5 L 189.2,228.6 L 189.0,229.1 L 189.0,229.7 L 188.6,230.1 L 187.7,232.2 L 187.6,233.4 L 187.0,234.4 L 187.0,234.8 L 187.0,235.0 L 186.7,235.4 L 186.5,236.1 L 186.2,236.9 L 186.0,237.4 L 185.4,238.3 L 184.4,240.7 L 184.3,241.3 L 183.7,242.8 L 183.9,243.3 L 183.8,245.0 L 183.9,245.4 L 183.7,246.2 L 183.7,246.2 L 183.5,247.2 L 183.7,248.3 L 184.6,249.0 L 184.9,249.1 L 185.1,249.2 L 185.1,249.6 L 185.4,249.9 L 185.2,250.6 L 184.4,252.2 L 183.7,253.4 L 183.6,253.7 L 183.7,254.3 L 183.6,255.3 L 184.0,255.7 L 183.8,256.7 L 183.6,257.2 L 183.5,258.2 L 182.6,259.8 L 182.2,260.8 L 181.9,261.5 L 181.6,262.5 L 181.4,262.8 L 181.1,264.5 L 180.9,264.7 L 180.9,265.5 L 181.0,265.8 L 181.1,266.3 L 181.2,267.0 L 181.2,267.6 L 181.4,267.9 L 181.9,267.9 L 182.1,268.1 L 182.1,268.5 L 181.8,269.0 L 181.6,270.0 L 181.3,270.6 L 180.9,271.0 L 180.8,271.9 L 180.2,272.5 L 179.8,273.0 L 179.4,273.6 L 179.4,274.4 L 179.0,274.9 L 179.0,275.2 L 178.7,275.5 L 178.7,275.8 L 178.6,275.9 L 178.5,276.2 L 178.6,276.6 L 178.5,276.9 L 178.4,277.4 L 178.2,277.7 L 178.0,278.5 L 178.0,279.2 L 177.5,280.9 L 177.5,281.7 L 177.3,281.8 L 176.7,282.1 L 176.2,282.1 L 176.1,282.7 L 175.9,282.7 L 175.7,283.1 L 175.4,283.5 L 175.3,284.0 L 175.1,284.4 L 174.9,285.0 L 174.8,286.0 L 174.4,286.4 L 173.7,287.5 L 173.1,288.5 L 172.8,289.4 L 171.8,290.4 L 171.6,290.4 L 170.9,291.0 L 170.2,291.0 L 168.4,291.6 L 166.7,292.6 L 166.2,293.4 L 165.3,293.8 L 164.5,295.6 L 163.7,297.9 L 163.7,298.6 L 163.4,299.6 L 163.3,300.4 L 163.0,301.4 L 162.8,301.7 L 162.8,302.0 L 162.5,302.3 L 162.2,302.3 L 162.2,302.3 L 161.3,301.9 L 160.5,301.9 L 160.0,302.2 L 159.6,302.8 L 159.5,303.8 L 159.8,305.2 L 159.7,305.9 L 159.2,306.2 L 159.1,306.5 L 158.8,306.7 L 158.7,307.0 L 159.1,307.8 L 158.8,308.0 L 158.7,308.2 L 158.8,308.7 L 159.5,309.0 L 160.0,310.0 L 159.7,310.7 L 159.4,311.0 L 159.0,311.5 L 158.6,311.8 L 158.3,311.7 L 158.0,311.6 L 157.7,311.8 L 156.5,311.8 L 155.4,312.2 L 154.3,312.3 L 154.2,312.3 L 152.7,312.3 L 152.1,312.3 L 151.6,312.2 L 151.5,312.1 L 151.5,311.9 L 151.4,311.7 L 150.9,311.5 L 149.4,311.4 L 148.2,311.7 L 147.5,311.2 L 145.7,311.1 L 144.2,311.9 L 143.7,312.3 L 143.2,312.6 L 142.3,314.0 L 142.2,314.8 L 142.3,314.9 L 142.8,315.2 L 143.2,315.1 L 143.6,314.7 L 143.9,314.8 L 144.0,314.9 L 144.2,315.3 L 143.6,316.0 L 143.5,316.7 L 144.0,317.5 L 144.3,317.5 L 144.6,317.3 L 144.8,316.9 L 145.1,316.6 L 145.5,316.8 L 146.5,318.0 L 147.3,318.1 L 147.5,318.0 L 148.0,318.0 L 148.8,318.6 L 149.3,319.3 L 149.2,319.7 L 150.2,320.4 L 149.6,320.5 L 148.7,319.7 L 148.5,319.2 L 147.8,319.1 L 147.0,319.9 L 146.4,319.9 L 145.9,319.7 L 145.6,319.7 L 144.5,321.5 L 144.4,322.0 L 144.5,322.2 L 145.3,322.3 L 145.6,322.4 L 145.6,322.6 L 145.5,323.3 L 145.3,324.7 L 145.5,325.0 L 146.2,325.4 L 147.4,325.4 L 147.7,325.5 L 148.6,326.2 L 148.6,327.2 L 148.4,327.4 L 148.0,327.5 L 146.9,327.3 L 145.2,327.3 L 142.1,327.0 L 141.4,326.9 L 140.4,326.8 L 140.0,326.2 L 139.6,325.0 L 139.2,324.4 L 139.5,323.4 L 139.5,322.9 L 139.0,322.5 L 138.2,321.9 L 137.8,321.2 L 137.7,321.1 L 136.9,321.6 L 135.9,322.7 L 135.1,323.8 L 134.5,324.3 L 133.6,324.5 L 132.7,324.9 L 131.5,325.8 L 131.0,326.4 L 130.3,327.2 L 129.7,327.5 L 129.2,328.2 L 128.5,329.4 L 128.2,329.9 L 128.2,329.9 L 127.7,331.5 L 127.2,332.3 L 126.8,332.7 L 126.1,333.7 L 126.1,334.1 L 125.9,334.3 L 125.9,334.7 L 125.5,335.4 L 125.5,335.9 L 125.5,337.4 L 125.4,337.6 L 125.1,337.8 L 124.9,338.6 L 124.3,339.7 L 123.4,340.2 L 122.2,341.0 L 120.5,342.6 L 120.4,342.7 L 120.0,343.0 L 119.4,344.0 L 119.2,344.6 L 118.8,345.0 L 118.1,345.1 L 117.3,345.4 L 116.6,346.1 L 115.9,346.3 L 114.3,346.7 L 113.3,346.8 L 111.9,347.2 L 111.2,347.5 L 110.9,348.0 L 109.9,348.0 L 109.2,348.2 L 108.8,348.6 L 108.2,349.6 L 107.6,349.8 L 107.1,350.4 L 107.1,351.0 L 106.5,351.4 L 105.8,351.7 L 105.7,352.0 L 106.0,352.8 L 105.7,353.6 L 105.4,354.1 L 102.9,355.6 L 101.5,355.9 L 100.1,356.7 L 99.4,357.5 L 99.1,358.0 L 98.8,358.2 L 98.5,358.6 L 98.4,358.7 L 97.9,358.4 L 97.5,358.3 L 97.0,358.7 L 96.9,358.9 L 96.7,359.5 L 96.3,359.6 L 96.1,359.8 L 95.9,360.0 L 95.9,360.0 L 95.9,360.0 L 55.4,331.5 L 56.1,330.7 L 57.2,330.3 L 58.5,329.0 L 59.8,327.3 L 59.8,326.9 L 59.8,326.9 L 59.8,326.7 L 60.2,325.7 L 60.6,325.0 L 62.2,323.3 L 62.5,322.8 L 63.1,322.3 L 63.1,322.3 L 63.1,322.3 L 63.3,322.1 L 64.0,321.6 L 64.5,320.7 L 64.6,320.3 L 64.8,319.8 L 64.6,319.5 L 65.3,318.8 L 65.3,318.7 L 65.7,318.3 L 66.4,318.0 L 66.8,317.8 L 66.9,317.6 L 67.3,317.0 L 67.4,316.9 L 67.7,316.7 L 67.8,316.5 L 68.4,315.8 L 68.7,315.7 L 69.4,314.9 L 69.5,314.7 L 69.7,314.4 L 69.8,314.3 L 70.7,312.6 L 70.9,312.2 L 71.1,311.8 L 71.3,311.4 L 71.5,311.4 L 72.2,310.5 L 72.3,309.9 L 73.0,309.1 L 73.3,308.6 L 73.8,308.4 L 74.3,307.9 L 74.4,307.7 L 74.6,307.2 L 74.7,307.1 L 74.7,306.6 L 75.0,306.3 L 75.4,305.9 L 75.4,305.7 L 75.5,305.4 L 75.7,305.0 L 76.1,304.5 L 76.2,304.2 L 76.6,303.6 L 77.0,303.0 L 77.5,302.4 L 78.3,301.9 L 79.7,301.5 L 80.0,301.2 L 80.4,300.9 L 81.6,299.7 L 81.8,299.4 L 82.0,299.1 L 82.3,298.8 L 82.8,298.3 L 83.8,297.2 L 84.1,296.5 L 84.9,295.4 L 85.1,295.0 L 85.8,294.3 L 86.4,293.6 L 86.7,293.0 L 86.7,292.4 L 87.0,292.2 L 87.5,291.8 L 87.9,291.6 L 88.3,291.4 L 88.6,291.1 L 89.1,290.4 L 90.0,289.3 L 91.4,288.3 L 91.7,287.9 L 91.9,287.4 L 91.9,287.1 L 92.3,286.7 L 92.5,285.8 L 93.2,285.0 L 93.5,284.6 L 93.6,283.5 L 93.6,283.2 L 93.8,282.9 L 93.8,282.5 L 94.0,282.0 L 94.1,281.6 L 94.2,281.4 L 93.9,280.6 L 94.2,279.3 L 94.5,278.5 L 94.8,278.2 L 95.0,277.4 L 95.8,276.4 L 96.6,275.4 L 97.2,275.0 L 98.3,274.6 L 98.6,274.8 L 99.0,274.8 L 99.1,274.5 L 99.5,274.0 L 100.6,273.7 L 100.7,273.6 L 100.8,273.3 L 100.9,272.8 L 101.1,272.4 L 101.4,272.3 L 101.6,271.3 L 102.1,270.6 L 103.1,269.8 L 103.3,269.8 L 103.8,269.7 L 104.4,269.5 L 105.8,269.6 L 107.1,270.0 L 107.7,270.4 L 108.3,271.0 L 108.7,271.6 L 109.2,271.7 L 109.5,272.0 L 110.1,271.9 L 110.4,271.7 L 110.6,271.6 L 110.8,271.5 L 111.0,271.5 L 111.7,270.3 L 112.5,269.3 L 113.0,269.2 L 113.7,269.2 L 113.7,268.8 L 114.0,268.6 L 114.3,268.5 L 114.6,267.8 L 115.1,267.1 L 115.1,266.5 L 114.9,266.1 L 114.8,265.6 L 115.3,264.4 L 116.4,262.8 L 116.5,262.2 L 117.4,261.0 L 117.5,260.4 L 117.6,260.0 L 117.7,258.8 L 117.6,258.1 L 117.5,257.0 L 117.5,256.1 L 117.7,252.8 L 117.5,252.3 L 117.3,251.6 L 116.8,251.0 L 116.7,250.5 L 116.4,250.0 L 116.6,249.6 L 116.3,248.9 L 116.1,248.7 L 115.6,248.8 L 115.1,248.4 L 114.8,247.7 L 114.6,246.9 L 114.3,246.6 L 114.1,246.4" fill="none" stroke="black" stroke-width="2"/>
</svg>