<?xml version="1.0" encoding="UTF-8"?>
<svg width="400" height="400" viewBox="0 0 400 400" xmlns="http://www.w3.org/2000/svg">
  <rect width="400" height="400" fill="white"/>
  <path d="M 225.3,210.7 L 225.3,210.7 L 226.5,208.3 L 226.8,207.5 L 227.7,203.5 L 228.1,202.8 L 228.1,201.1 L 228.8,199.4 L 228.6,198.6 L 227.6,197.7 L 226.2,195.3 L 224.9,192.8 L 222.7,188.7 L 222.7,187.6 L 222.9,186.5 L 222.5,185.1 L 222.1,183.7 L 221.7,183.4 L 220.6,184.2 L 218.4,185.2 L 218.2,185.1 L 218.2,183.8 L 218.1,183.4 L 217.7,183.2 L 217.2,183.5 L 216.4,184.1 L 215.4,184.2 L 214.9,184.0 L 214.5,183.4 L 213.7,183.2 L 212.6,183.2 L 211.0,183.7 L 210.7,184.0 L 210.5,185.3 L 209.7,186.1 L 209.6,186.4 L 209.1,186.9 L 208.5,187.0 L 208.3,187.4 L 207.8,187.7 L 205.6,187.8 L 205.1,187.5 L 204.9,187.2 L 204.7,185.5 L 204.0,184.2 L 203.1,183.7 L 203.0,183.3 L 202.9,182.8 L 202.7,182.6 L 202.1,182.3 L 201.8,182.0 L 201.7,181.5 L 201.4,181.1 L 200.9,181.1 L 200.7,181.3 L 199.4,183.2 L 199.0,183.2 L 198.6,183.0 L 198.4,182.7 L 198.1,182.6 L 198.3,181.8 L 198.0,181.2 L 198.6,180.8 L 198.3,180.4 L 198.8,180.2 L 198.9,179.9 L 198.6,179.6 L 198.3,179.5 L 197.7,179.6 L 196.4,181.0 L 196.0,182.0 L 195.9,182.8 L 196.1,183.6 L 195.8,183.9 L 195.3,184.0 L 195.0,184.1 L 195.0,184.6 L 194.9,185.1 L 194.4,185.9 L 194.0,185.4 L 193.8,184.9 L 193.3,184.3 L 192.5,184.3 L 191.9,184.1 L 191.3,182.3 L 190.9,181.9 L 190.2,181.6 L 189.3,182.2 L 189.2,182.6 L 188.8,183.3 L 188.0,183.3 L 187.8,183.2 L 187.9,182.3 L 188.1,180.8 L 187.9,180.4 L 188.1,179.8 L 187.5,178.9 L 186.5,178.1 L 185.3,176.9 L 184.8,176.4 L 184.2,176.2 L 183.8,175.3 L 182.8,174.7 L 182.1,174.6 L 182.0,174.8 L 182.0,174.6 L 180.0,153.1 L 180.7,153.1 L 181.5,152.6 L 182.2,152.4 L 182.8,152.4 L 183.2,151.8 L 183.9,151.8 L 184.6,151.3 L 186.1,149.5 L 186.1,149.0 L 185.8,147.6 L 185.2,147.5 L 184.8,147.7 L 184.5,147.6 L 184.3,147.3 L 184.2,146.4 L 184.3,145.7 L 184.7,145.4 L 185.5,145.0 L 185.7,145.3 L 186.2,145.3 L 186.2,145.6 L 185.8,146.2 L 187.0,146.2 L 187.4,146.0 L 187.6,145.7 L 187.4,145.4 L 187.0,145.3 L 186.8,144.9 L 187.0,144.4 L 187.3,144.0 L 187.3,143.6 L 187.0,143.2 L 186.6,142.6 L 186.3,142.4 L 186.3,142.0 L 186.6,141.5 L 186.5,141.2 L 185.5,140.2 L 185.7,139.6 L 185.6,139.1 L 185.2,138.4 L 184.7,138.0 L 184.6,137.2 L 184.3,136.6 L 183.2,135.2 L 182.5,135.0 L 181.7,135.1 L 180.9,135.3 L 179.0,135.3 L 178.3,135.0 L 177.6,134.5 L 177.3,133.5 L 177.3,131.7 L 177.5,130.7 L 177.9,128.1 L 177.9,127.6 L 178.0,126.1 L 178.2,125.6 L 177.8,125.1 L 177.9,124.7 L 178.4,123.6 L 178.5,122.6 L 178.3,122.2 L 179.0,121.7 L 179.3,121.2 L 180.0,119.6 L 180.3,118.6 L 180.6,117.2 L 180.1,117.0 L 180.2,116.5 L 181.0,115.0 L 181.2,114.4 L 181.3,113.6 L 181.6,112.8 L 181.7,111.9 L 182.0,111.0 L 182.2,109.1 L 182.5,108.5 L 182.7,108.2 L 182.8,106.7 L 184.2,102.2 L 184.3,101.4 L 184.1,100.7 L 184.4,99.7 L 184.7,98.3 L 185.4,95.7 L 185.5,94.3 L 185.6,93.8 L 185.5,93.2 L 185.6,92.9 L 185.6,92.2 L 185.7,91.8 L 185.6,89.8 L 186.1,88.9 L 186.3,87.7 L 186.2,86.8 L 185.9,86.2 L 185.6,86.1 L 185.1,86.8 L 184.7,86.9 L 184.5,86.6 L 185.2,85.3 L 184.9,84.8 L 184.7,84.6 L 184.8,84.0 L 185.1,83.3 L 185.2,82.3 L 185.7,81.2 L 185.8,80.3 L 185.1,78.8 L 185.5,77.5 L 185.6,76.4 L 186.1,75.7 L 186.1,75.1 L 186.4,74.2 L 186.3,73.0 L 186.1,72.5 L 186.4,71.7 L 186.3,71.0 L 186.5,70.3 L 186.3,69.5 L 186.5,68.4 L 187.0,67.5 L 187.1,66.0 L 187.1,64.9 L 187.3,64.1 L 187.0,63.6 L 187.2,63.1 L 186.6,62.1 L 186.5,61.2 L 186.3,61.0 L 186.5,60.3 L 186.4,60.0 L 187.0,58.9 L 186.7,58.2 L 186.3,57.8 L 185.7,57.2 L 185.7,56.9 L 186.9,56.3 L 187.1,56.0 L 187.3,55.1 L 187.2,53.6 L 186.9,52.9 L 186.5,52.7 L 186.5,52.2 L 187.0,51.8 L 187.0,51.5 L 186.8,51.2 L 186.7,50.7 L 186.6,50.1 L 186.7,48.7 L 186.2,47.7 L 186.0,47.3 L 186.2,46.7 L 186.2,46.4 L 185.9,46.2 L 186.3,45.4 L 186.3,45.0 L 185.6,44.7 L 185.3,44.1 L 185.3,42.3 L 185.2,41.9 L 185.4,41.2 L 185.1,40.3 L 185.0,40.0 L 251.1,41.1 L 251.2,41.1 L 251.1,41.4 L 251.2,41.9 L 251.1,44.3 L 252.1,44.3 L 252.1,44.5 L 251.4,45.3 L 250.9,46.4 L 250.9,47.6 L 250.7,47.9 L 250.4,47.6 L 250.2,47.8 L 250.1,49.0 L 250.4,49.2 L 250.9,50.2 L 251.4,50.9 L 251.6,51.5 L 251.3,52.3 L 251.1,53.4 L 251.3,54.1 L 251.3,54.8 L 251.0,55.9 L 251.0,57.2 L 251.2,58.2 L 251.2,58.9 L 251.1,59.3 L 250.8,61.8 L 250.8,62.4 L 250.8,62.6 L 250.7,64.5 L 250.9,64.9 L 250.9,65.7 L 250.8,66.3 L 249.7,68.4 L 249.7,69.5 L 249.6,70.4 L 249.2,71.3 L 249.0,74.0 L 249.0,76.0 L 249.1,77.1 L 249.3,77.5 L 249.5,77.5 L 250.8,74.7 L 251.3,74.1 L 251.7,74.0 L 251.9,74.1 L 251.9,74.4 L 251.7,75.4 L 251.6,77.2 L 250.4,77.7 L 250.4,81.0 L 250.6,81.8 L 250.7,83.8 L 251.0,83.8 L 251.4,84.2 L 251.4,84.9 L 251.0,85.7 L 250.4,85.8 L 250.0,86.0 L 250.0,86.5 L 250.3,87.5 L 250.4,88.4 L 250.0,89.6 L 249.4,90.1 L 249.3,90.8 L 249.3,92.0 L 249.2,92.4 L 249.7,93.2 L 249.7,93.7 L 249.5,94.2 L 249.5,94.9 L 249.9,95.3 L 250.0,95.9 L 249.9,96.7 L 248.9,98.4 L 248.4,98.9 L 246.9,99.4 L 246.8,99.6 L 246.9,99.7 L 247.4,100.6 L 247.4,103.2 L 247.8,103.7 L 247.8,105.8 L 247.7,106.1 L 247.5,106.8 L 247.4,107.6 L 247.5,108.2 L 248.0,109.1 L 248.3,109.4 L 248.7,109.9 L 248.8,110.2 L 248.6,111.3 L 248.5,112.5 L 249.0,112.9 L 249.9,112.8 L 250.5,112.5 L 251.1,111.7 L 251.5,109.3 L 251.9,108.7 L 252.2,108.4 L 252.8,107.7 L 253.2,107.7 L 253.6,107.6 L 254.3,106.9 L 255.0,105.0 L 255.5,104.9 L 256.1,104.6 L 256.5,104.0 L 256.8,103.9 L 257.1,103.7 L 257.2,103.2 L 257.2,102.6 L 257.6,102.3 L 258.1,102.0 L 257.5,101.7 L 257.5,101.1 L 257.9,100.3 L 258.0,99.7 L 258.0,99.5 L 258.4,99.1 L 258.8,99.3 L 259.1,99.7 L 259.6,100.4 L 259.4,101.4 L 259.2,101.7 L 258.6,101.8 L 258.4,102.3 L 258.7,102.6 L 259.0,102.9 L 259.0,105.5 L 259.1,105.8 L 259.2,106.3 L 259.1,106.8 L 258.1,108.1 L 257.9,108.1 L 257.8,107.9 L 257.5,107.5 L 257.1,107.3 L 256.9,107.4 L 256.8,107.7 L 257.0,108.0 L 257.1,109.0 L 256.5,108.9 L 256.0,108.6 L 255.8,108.2 L 255.4,108.2 L 254.7,109.4 L 253.9,110.4 L 253.3,111.7 L 253.2,112.2 L 252.7,112.9 L 252.4,113.7 L 251.8,114.4 L 251.3,114.7 L 250.4,115.8 L 250.0,116.7 L 249.0,118.1 L 248.5,119.0 L 248.3,120.3 L 248.0,120.5 L 247.4,121.2 L 246.7,123.3 L 246.7,124.4 L 247.3,125.0 L 247.6,125.5 L 248.1,125.9 L 248.6,125.7 L 248.7,126.7 L 249.0,126.9 L 249.5,126.9 L 249.7,126.5 L 249.8,125.7 L 249.1,125.0 L 249.2,123.7 L 249.6,122.5 L 250.1,122.1 L 250.5,122.2 L 250.9,122.5 L 251.4,122.6 L 251.7,123.0 L 251.8,123.3 L 252.1,124.3 L 252.8,124.9 L 253.1,125.4 L 252.8,126.1 L 252.8,126.7 L 253.0,128.1 L 253.8,128.9 L 253.9,129.5 L 254.4,130.3 L 254.8,130.4 L 255.1,130.5 L 255.1,130.9 L 253.4,133.3 L 252.3,135.5 L 252.2,136.5 L 252.8,138.7 L 252.9,139.5 L 253.4,140.9 L 253.5,141.9 L 254.2,144.7 L 254.7,145.8 L 255.0,147.5 L 255.6,149.6 L 256.5,150.6 L 257.1,151.7 L 257.4,151.9 L 257.9,151.7 L 258.2,151.9 L 258.8,152.7 L 259.1,154.0 L 259.5,154.2 L 260.9,157.0 L 261.4,157.8 L 261.5,158.3 L 261.7,158.7 L 262.4,159.2 L 262.9,159.8 L 263.4,161.2 L 263.7,162.1 L 263.9,163.3 L 264.1,163.9 L 264.2,164.4 L 264.0,165.4 L 263.9,167.2 L 264.0,167.9 L 264.4,168.8 L 264.7,171.0 L 265.3,172.8 L 266.3,175.0 L 266.7,176.9 L 266.7,177.1 L 267.1,178.1 L 267.4,179.4 L 267.9,181.1 L 268.4,182.3 L 268.8,182.7 L 269.2,182.5 L 269.5,182.7 L 270.0,183.9 L 269.8,184.4 L 269.9,185.2 L 270.4,186.1 L 270.7,185.9 L 271.5,184.8 L 271.9,182.6 L 272.7,181.4 L 273.8,179.0 L 275.2,176.9 L 275.4,176.6 L 276.2,176.0 L 276.9,175.1 L 277.7,174.3 L 277.6,175.1 L 277.8,176.1 L 278.2,176.4 L 278.5,176.8 L 278.5,176.9 L 279.0,177.2 L 279.2,177.4 L 279.3,177.8 L 278.8,179.1 L 278.2,181.2 L 277.3,184.0 L 277.0,185.0 L 276.8,185.6 L 276.4,186.8 L 276.4,187.1 L 276.5,188.6 L 277.3,191.5 L 278.1,192.9 L 278.9,193.6 L 278.8,194.0 L 276.6,196.8 L 275.4,198.9 L 275.0,200.0 L 274.9,200.8 L 275.2,202.3 L 276.1,203.2 L 276.4,203.2 L 276.9,202.2 L 277.3,202.2 L 278.1,202.5 L 278.9,203.2 L 278.8,207.4 L 279.5,210.4 L 280.3,211.6 L 280.3,211.6 L 282.0,212.4 L 282.5,212.6 L 283.9,213.7 L 284.4,214.6 L 285.0,215.4 L 286.0,216.2 L 286.4,216.9 L 287.2,219.4 L 288.1,220.4 L 288.6,222.3 L 289.1,222.9 L 290.6,224.2 L 292.1,225.2 L 293.0,226.3 L 293.8,228.0 L 294.0,229.6 L 294.4,230.5 L 294.6,232.3 L 295.3,233.3 L 295.6,234.0 L 296.5,235.2 L 296.5,236.1 L 296.2,236.4 L 295.0,236.0 L 294.3,235.9 L 293.8,236.3 L 293.7,237.0 L 293.9,237.5 L 293.8,238.6 L 293.6,239.2 L 293.0,240.2 L 291.5,241.8 L 289.4,243.4 L 287.8,244.3 L 286.5,244.3 L 285.5,243.7 L 284.6,243.6 L 280.2,243.9 L 278.8,244.3 L 278.4,244.4 L 277.9,244.1 L 277.0,243.1 L 276.5,243.0 L 276.2,242.9 L 275.4,242.5 L 275.1,242.3 L 274.4,242.5 L 274.1,242.6 L 273.9,243.3 L 273.6,244.1 L 272.6,244.9 L 270.2,246.1 L 269.7,246.2 L 269.0,245.6 L 268.5,245.3 L 268.3,244.8 L 268.6,244.0 L 269.1,243.0 L 269.7,242.2 L 269.9,241.4 L 269.8,241.0 L 268.7,240.1 L 268.1,239.4 L 268.1,238.5 L 268.7,237.4 L 270.0,236.2 L 271.5,235.7 L 271.7,235.5 L 271.3,233.8 L 271.1,233.3 L 270.5,233.2 L 269.7,233.3 L 269.3,233.6 L 269.8,234.1 L 270.0,234.7 L 269.8,235.3 L 269.3,235.6 L 268.9,235.9 L 267.9,236.3 L 267.3,237.0 L 266.9,238.0 L 266.6,238.2 L 266.1,237.6 L 265.8,237.5 L 264.7,238.5 L 263.2,238.9 L 262.4,239.9 L 261.9,240.9 L 261.6,241.0 L 261.3,240.7 L 260.7,241.4 L 260.4,241.5 L 259.6,240.7 L 259.3,240.6 L 258.7,240.9 L 257.8,241.8 L 257.3,242.1 L 256.5,243.2 L 256.4,243.6 L 256.6,244.2 L 256.6,244.9 L 255.4,246.4 L 254.4,247.3 L 252.5,248.6 L 251.1,250.5 L 250.7,253.0 L 250.6,253.6 L 251.2,253.8 L 251.2,254.1 L 251.2,254.5 L 251.3,254.6 L 251.8,254.5 L 252.3,254.1 L 252.8,253.6 L 253.2,253.5 L 253.6,253.0 L 254.1,252.1 L 254.3,252.1 L 254.4,252.8 L 254.8,253.0 L 255.0,253.6 L 255.5,253.8 L 255.6,254.1 L 255.9,254.5 L 255.9,255.2 L 255.2,255.8 L 255.2,256.0 L 256.1,256.2 L 256.7,256.7 L 257.4,256.2 L 258.1,256.4 L 258.3,256.2 L 258.4,255.1 L 259.2,254.1 L 259.3,254.0 L 259.8,253.8 L 260.5,253.2 L 261.3,251.8 L 261.7,251.3 L 262.3,251.2 L 262.6,250.9 L 263.5,249.6 L 263.4,249.2 L 263.0,249.1 L 262.4,249.0 L 262.5,248.8 L 263.3,247.6 L 263.5,247.8 L 263.5,248.2 L 263.7,248.4 L 263.9,248.4 L 264.1,248.0 L 264.4,246.5 L 264.8,245.9 L 265.0,245.2 L 265.3,245.0 L 266.0,245.2 L 266.4,245.0 L 266.8,245.2 L 266.8,245.9 L 266.3,246.8 L 264.8,248.2 L 264.6,248.8 L 264.4,249.4 L 264.3,250.0 L 264.5,250.1 L 264.8,250.0 L 265.9,249.0 L 266.9,248.9 L 267.1,248.8 L 267.8,248.2 L 268.9,248.1 L 269.1,248.2 L 269.3,248.4 L 269.4,248.9 L 269.2,249.5 L 269.1,250.5 L 268.9,251.3 L 268.0,253.0 L 268.0,254.1 L 267.5,255.0 L 267.6,255.7 L 267.9,256.0 L 268.0,257.1 L 267.6,258.1 L 266.9,259.1 L 266.4,260.6 L 266.0,260.6 L 265.4,259.7 L 265.2,259.7 L 264.7,260.5 L 264.6,260.9 L 264.3,261.5 L 264.7,261.9 L 264.6,263.4 L 264.2,264.1 L 264.0,265.0 L 262.7,267.8 L 260.7,269.5 L 257.4,272.0 L 256.9,272.0 L 256.6,271.6 L 256.9,270.2 L 256.7,270.0 L 256.0,270.3 L 254.1,272.7 L 253.2,273.3 L 252.3,273.4 L 251.4,273.8 L 250.1,274.8 L 245.9,277.7 L 245.0,278.5 L 243.9,280.6 L 243.5,281.2 L 243.1,281.7 L 242.4,282.8 L 242.3,284.0 L 241.7,284.7 L 241.7,285.0 L 242.0,285.3 L 242.1,286.0 L 242.6,286.2 L 242.7,286.5 L 242.3,288.1 L 242.3,288.6 L 243.0,288.5 L 243.4,289.0 L 243.3,289.7 L 243.1,290.7 L 241.5,293.7 L 241.0,295.5 L 241.1,296.9 L 241.7,297.8 L 242.2,298.8 L 241.8,300.3 L 240.9,302.1 L 240.6,302.9 L 240.5,305.0 L 240.7,306.3 L 241.2,307.4 L 241.4,308.3 L 241.7,309.2 L 241.9,310.7 L 242.1,311.8 L 242.1,312.8 L 242.1,313.7 L 241.7,314.8 L 241.4,316.1 L 241.2,316.3 L 240.9,316.5 L 240.8,317.4 L 240.1,318.3 L 239.7,319.3 L 239.0,319.9 L 238.2,320.0 L 237.8,319.6 L 237.7,319.5 L 237.4,318.6 L 236.9,316.9 L 235.9,314.9 L 234.9,313.5 L 234.2,312.7 L 234.1,312.1 L 234.1,310.6 L 234.7,309.9 L 234.6,309.5 L 233.7,308.3 L 233.4,308.2 L 232.2,309.2 L 231.4,309.4 L 230.9,310.1 L 230.4,310.4 L 229.3,310.2 L 229.0,310.0 L 229.1,309.5 L 230.6,307.6 L 231.1,306.6 L 231.4,305.3 L 231.3,304.0 L 231.1,303.0 L 230.0,301.5 L 229.5,300.8 L 229.3,299.7 L 229.1,299.7 L 228.6,301.3 L 228.2,301.8 L 228.0,301.9 L 227.5,301.7 L 227.2,301.5 L 227.1,301.0 L 226.7,300.3 L 227.1,298.0 L 227.4,297.2 L 227.4,296.9 L 226.8,296.7 L 226.1,296.4 L 225.7,296.2 L 225.1,294.3 L 225.3,293.0 L 225.2,290.5 L 225.9,289.2 L 226.1,288.1 L 226.1,287.0 L 226.7,286.1 L 226.7,285.4 L 226.4,284.6 L 226.4,283.6 L 226.9,282.8 L 227.6,282.3 L 227.8,281.9 L 228.2,281.8 L 228.8,281.2 L 229.0,281.3 L 229.1,282.3 L 229.2,283.0 L 229.5,283.5 L 229.6,285.3 L 230.3,286.1 L 230.4,287.3 L 230.6,287.7 L 230.7,288.5 L 231.2,288.4 L 232.2,287.2 L 232.8,286.3 L 233.2,285.6 L 233.3,284.7 L 233.8,283.9 L 233.8,281.7 L 234.3,281.1 L 234.3,280.8 L 234.0,280.5 L 233.8,280.1 L 233.9,279.3 L 233.7,279.0 L 233.9,278.4 L 234.3,277.6 L 234.2,277.1 L 234.2,276.5 L 234.3,276.0 L 235.3,275.1 L 235.9,274.9 L 236.3,274.3 L 236.6,274.1 L 237.1,274.1 L 237.5,274.0 L 237.8,274.1 L 238.0,274.1 L 239.5,272.5 L 240.0,271.7 L 240.0,270.9 L 240.8,269.8 L 241.0,268.8 L 241.2,267.2 L 241.5,266.6 L 241.7,266.1 L 241.6,265.2 L 240.7,264.0 L 240.3,263.2 L 240.4,262.6 L 241.2,261.2 L 241.4,259.9 L 242.1,259.3 L 242.7,259.0 L 243.0,258.7 L 243.4,257.9 L 243.3,257.1 L 243.1,256.3 L 243.1,254.1 L 243.1,253.2 L 242.9,252.7 L 242.6,252.4 L 242.2,251.8 L 242.3,250.1 L 243.1,248.5 L 243.5,247.5 L 243.5,246.6 L 243.2,246.2 L 242.8,246.0 L 242.4,245.2 L 242.1,245.2 L 241.4,244.3 L 240.8,244.4 L 239.4,245.7 L 238.5,246.0 L 237.8,246.7 L 237.8,246.8 L 237.4,247.7 L 237.0,248.4 L 236.5,248.9 L 235.6,250.5 L 235.4,251.3 L 235.3,251.8 L 235.6,252.8 L 235.4,253.6 L 235.9,254.0 L 236.0,254.1 L 236.2,254.5 L 236.3,257.1 L 236.4,257.7 L 235.9,258.5 L 235.9,258.7 L 236.2,258.7 L 236.8,258.1 L 237.4,257.3 L 237.8,257.2 L 237.8,257.2 L 238.1,257.0 L 239.3,256.5 L 240.1,255.4 L 240.6,255.5 L 240.7,255.8 L 240.5,256.9 L 240.0,257.8 L 238.3,259.5 L 238.1,260.2 L 237.8,260.5 L 237.2,261.1 L 236.9,261.5 L 235.6,263.2 L 235.3,263.3 L 234.8,262.8 L 234.0,261.8 L 233.8,261.1 L 233.3,261.7 L 233.0,262.0 L 232.1,263.0 L 231.4,263.6 L 230.8,263.7 L 230.2,263.5 L 229.8,262.7 L 229.7,261.3 L 229.5,261.1 L 228.0,259.8 L 227.5,259.7 L 226.9,260.1 L 226.1,261.4 L 225.6,262.4 L 225.2,262.9 L 224.7,263.3 L 222.8,263.4 L 222.1,263.5 L 220.5,263.6 L 220.1,264.0 L 219.5,264.7 L 218.6,265.3 L 217.7,265.5 L 216.6,266.5 L 216.0,266.5 L 215.4,266.1 L 215.2,265.8 L 215.6,264.1 L 215.8,262.4 L 216.0,261.6 L 216.5,260.9 L 216.8,260.3 L 216.9,259.9 L 216.5,259.8 L 215.7,259.9 L 214.8,260.5 L 214.2,260.5 L 213.9,260.6 L 213.6,261.2 L 213.1,262.5 L 212.4,263.2 L 211.6,263.5 L 210.7,263.9 L 209.2,264.1 L 208.4,264.6 L 207.8,264.9 L 207.4,265.3 L 206.5,265.9 L 205.7,266.4 L 205.2,266.6 L 203.7,266.7 L 203.3,266.5 L 202.9,266.2 L 201.5,268.2 L 200.5,269.4 L 199.8,271.1 L 199.4,271.7 L 199.2,272.7 L 198.6,274.0 L 197.2,275.9 L 196.8,277.2 L 195.9,278.4 L 195.7,279.5 L 195.2,279.9 L 194.1,281.3 L 193.4,282.4 L 193.1,283.2 L 193.1,284.1 L 193.3,284.3 L 194.0,284.6 L 194.1,285.0 L 194.6,285.6 L 195.5,285.4 L 195.5,286.3 L 195.3,288.1 L 194.6,289.3 L 194.6,290.1 L 194.8,290.5 L 195.1,290.5 L 195.7,289.7 L 196.1,289.8 L 196.6,290.5 L 196.8,290.4 L 198.1,289.1 L 198.4,288.2 L 199.0,287.6 L 199.5,287.6 L 200.1,287.3 L 200.4,287.4 L 200.3,287.6 L 198.8,289.3 L 198.5,289.9 L 197.6,291.1 L 197.6,291.7 L 197.4,292.2 L 196.1,293.4 L 195.7,294.1 L 195.6,295.0 L 195.3,295.7 L 195.1,296.6 L 194.9,297.0 L 194.7,297.0 L 194.6,296.8 L 194.3,296.6 L 194.0,297.1 L 194.2,297.5 L 193.7,297.7 L 193.2,298.3 L 192.5,298.4 L 191.7,298.6 L 190.6,300.1 L 189.8,300.7 L 189.5,301.2 L 189.8,301.7 L 189.9,302.3 L 190.4,302.7 L 190.5,303.1 L 190.6,303.3 L 191.0,303.4 L 192.1,303.1 L 192.3,303.2 L 192.3,303.7 L 191.9,304.3 L 191.4,304.6 L 190.8,305.1 L 189.3,305.7 L 188.4,306.3 L 187.6,306.4 L 187.3,306.1 L 187.1,305.8 L 187.1,304.9 L 187.2,304.0 L 186.5,303.9 L 186.1,304.1 L 185.9,304.5 L 185.4,305.2 L 184.9,305.9 L 183.2,307.1 L 182.7,307.3 L 182.4,307.5 L 182.4,308.0 L 182.3,308.4 L 182.4,309.1 L 182.0,310.0 L 181.9,311.0 L 181.5,311.9 L 180.9,312.9 L 180.7,313.4 L 180.8,314.9 L 180.7,315.6 L 180.2,316.2 L 179.3,316.3 L 178.6,316.8 L 178.4,317.0 L 178.3,317.4 L 178.1,317.7 L 177.4,318.0 L 175.6,319.2 L 173.4,320.9 L 173.3,321.6 L 172.6,322.3 L 171.6,322.7 L 169.8,324.4 L 169.1,325.2 L 167.8,326.3 L 167.1,326.6 L 165.9,327.6 L 165.4,328.3 L 165.6,328.5 L 166.3,328.0 L 167.4,327.1 L 168.0,327.0 L 168.5,327.2 L 168.7,327.7 L 168.5,328.6 L 167.7,329.4 L 167.7,329.9 L 167.1,330.4 L 167.0,330.6 L 167.5,331.1 L 167.5,331.3 L 167.5,331.6 L 167.7,332.4 L 168.1,332.8 L 168.1,333.9 L 169.5,335.4 L 170.1,335.5 L 170.3,335.7 L 170.4,336.3 L 170.1,337.7 L 169.7,338.4 L 168.5,339.7 L 168.1,339.8 L 167.9,339.4 L 167.7,338.8 L 167.7,338.2 L 167.3,337.5 L 167.2,337.1 L 166.7,336.7 L 166.1,336.7 L 164.3,337.5 L 163.1,338.3 L 162.8,338.9 L 160.9,340.9 L 160.6,341.7 L 160.6,341.7 L 160.5,342.2 L 160.6,342.4 L 160.8,342.9 L 161.9,342.9 L 162.3,343.1 L 162.6,343.7 L 162.6,343.9 L 162.0,344.8 L 161.9,345.8 L 161.4,346.3 L 160.6,346.5 L 156.5,347.2 L 154.8,348.1 L 154.4,348.0 L 153.7,348.2 L 153.2,348.7 L 152.6,348.9 L 152.1,348.7 L 151.6,347.9 L 150.1,348.3 L 149.7,347.9 L 149.2,347.8 L 147.6,348.5 L 147.0,348.9 L 146.6,349.0 L 146.0,348.7 L 145.9,348.6 L 145.5,348.1 L 144.3,348.1 L 142.9,348.5 L 142.1,348.9 L 140.9,349.0 L 140.5,349.1 L 139.8,349.7 L 139.4,349.8 L 139.5,349.4 L 140.0,348.8 L 140.0,348.5 L 139.8,348.2 L 139.1,348.3 L 138.6,348.8 L 138.7,349.3 L 138.0,350.4 L 138.0,351.2 L 137.1,352.2 L 135.7,352.3 L 135.2,352.8 L 134.3,352.2 L 133.7,352.4 L 132.8,353.2 L 131.4,353.5 L 130.6,353.3 L 129.8,352.2 L 129.8,351.6 L 129.5,351.5 L 128.2,352.2 L 127.6,352.3 L 127.6,352.8 L 127.4,353.1 L 126.9,353.4 L 126.5,353.8 L 125.5,354.9 L 124.6,355.1 L 123.7,356.1 L 123.2,356.4 L 122.2,357.5 L 121.3,358.4 L 120.1,358.8 L 119.7,359.2 L 119.3,360.0 L 119.0,359.5 L 119.0,358.9 L 119.1,358.1 L 118.9,357.9 L 118.6,357.9 L 117.8,358.6 L 117.4,358.5 L 117.0,358.1 L 116.9,357.5 L 115.9,356.7 L 116.5,356.4 L 116.7,356.1 L 116.9,354.8 L 116.9,354.1 L 116.7,353.6 L 116.6,353.3 L 116.6,352.3 L 116.8,351.5 L 117.0,350.8 L 116.8,349.2 L 116.9,348.2 L 117.5,347.0 L 117.1,344.7 L 117.2,343.0 L 117.4,341.6 L 117.8,340.9 L 117.8,339.9 L 117.2,338.9 L 117.1,338.3 L 118.4,334.8 L 119.6,332.5 L 120.1,331.3 L 120.7,329.8 L 120.9,329.0 L 120.9,327.2 L 121.2,326.1 L 121.3,324.6 L 121.8,322.8 L 121.9,321.6 L 121.9,320.7 L 122.1,319.8 L 122.3,319.2 L 122.3,318.5 L 122.2,317.7 L 122.7,316.3 L 122.6,315.7 L 122.0,314.3 L 121.9,313.1 L 121.7,312.4 L 121.7,311.2 L 121.4,310.9 L 120.1,309.8 L 118.6,308.8 L 118.3,308.5 L 117.5,307.3 L 116.9,306.9 L 116.0,306.0 L 114.5,303.1 L 114.1,302.3 L 113.8,301.2 L 112.7,299.3 L 112.2,298.8 L 110.4,298.7 L 109.1,298.4 L 108.0,297.1 L 106.8,297.0 L 106.2,297.1 L 105.9,297.0 L 105.5,296.7 L 104.8,296.0 L 104.4,295.8 L 104.1,295.4 L 104.1,294.3 L 104.2,293.6 L 104.1,292.8 L 103.5,291.6 L 104.1,291.8 L 104.5,291.7 L 104.6,291.3 L 104.7,290.7 L 105.1,290.0 L 105.5,289.7 L 106.9,289.5 L 108.1,289.4 L 109.4,289.1 L 110.2,288.7 L 111.1,288.3 L 112.0,288.5 L 112.5,288.8 L 113.2,288.9 L 114.0,288.8 L 114.7,288.5 L 115.9,288.9 L 116.4,289.5 L 116.8,289.4 L 117.1,289.4 L 117.7,289.4 L 118.1,289.7 L 118.5,289.9 L 118.9,290.2 L 119.3,290.3 L 119.7,290.5 L 120.7,290.7 L 121.4,291.0 L 122.2,291.7 L 123.3,291.7 L 123.8,292.3 L 124.2,292.4 L 126.1,293.9 L 126.5,293.7 L 126.9,293.7 L 127.3,293.8 L 127.7,293.7 L 128.3,293.7 L 129.1,294.2 L 130.1,295.1 L 130.6,295.3 L 132.5,296.4 L 133.6,296.7 L 134.3,297.1 L 135.8,297.3 L 136.4,297.8 L 139.5,298.0 L 140.5,298.6 L 141.0,298.6 L 141.5,298.9 L 142.0,300.8 L 142.2,301.5 L 143.2,302.5 L 143.7,303.7 L 143.9,304.0 L 144.8,304.1 L 145.2,304.4 L 146.0,304.1 L 146.6,304.1 L 147.6,304.1 L 148.4,303.6 L 150.1,303.1 L 150.8,303.0 L 151.4,302.9 L 152.3,302.7 L 153.1,302.2 L 154.2,302.1 L 155.4,301.1 L 155.9,300.7 L 156.7,301.1 L 157.3,301.1 L 158.0,300.6 L 160.6,300.7 L 161.1,300.7 L 162.7,299.7 L 165.7,296.8 L 166.7,295.0 L 168.0,292.8 L 169.3,290.4 L 169.4,289.9 L 170.0,288.7 L 170.2,287.8 L 170.1,286.3 L 170.0,285.8 L 170.0,285.0 L 170.0,284.6 L 169.9,284.2 L 170.1,283.5 L 171.0,281.9 L 171.6,281.2 L 172.5,279.6 L 174.0,277.3 L 175.2,274.3 L 177.0,271.3 L 177.6,269.6 L 177.7,268.8 L 178.3,266.8 L 178.4,265.6 L 179.2,263.8 L 178.8,263.4 L 179.1,263.1 L 179.4,262.9 L 180.0,261.9 L 180.1,261.2 L 181.9,259.4 L 182.1,258.4 L 182.9,257.3 L 183.4,257.0 L 184.2,256.6 L 184.9,256.0 L 185.3,255.9 L 187.2,254.2 L 187.2,254.1 L 188.8,251.8 L 189.8,250.6 L 190.4,250.4 L 190.9,249.7 L 191.4,249.1 L 191.7,248.8 L 192.1,248.7 L 193.2,247.7 L 194.5,246.0 L 194.9,244.9 L 196.2,243.3 L 196.7,242.5 L 197.0,242.2 L 197.4,242.1 L 198.4,241.1 L 198.6,240.7 L 199.3,239.9 L 199.3,239.5 L 199.2,239.4 L 198.8,239.4 L 198.0,239.7 L 198.0,239.2 L 200.0,237.1 L 204.2,233.0 L 210.2,227.1 L 212.2,224.8 L 214.3,222.7 L 216.1,221.4 L 216.7,221.3 L 218.3,219.6 L 219.2,218.5 L 219.7,218.5 L 220.4,218.3 L 221.2,217.5 L 222.1,216.0 L 223.5,213.7 L 224.5,211.8" fill="none" stroke="black" stroke-width="2"/>
</svg>