<?xml version="1.0" encoding="UTF-8"?>
<svg width="400" height="400" viewBox="0 0 400 400" xmlns="http://www.w3.org/2000/svg">
  <rect width="400" height="400" fill="white"/>
  <path d="M 113.0,296.8 L 112.9,296.6 L 40.0,191.4 L 41.0,191.1 L 42.8,189.9 L 43.3,189.0 L 43.3,187.8 L 44.7,186.1 L 45.9,184.8 L 46.7,184.8 L 48.6,183.4 L 49.2,179.7 L 49.9,178.3 L 51.0,177.4 L 52.4,177.0 L 55.6,176.8 L 57.3,176.3 L 60.8,173.2 L 62.6,171.1 L 63.3,169.0 L 63.5,165.9 L 63.0,164.4 L 61.3,162.1 L 60.7,160.3 L 61.0,158.9 L 61.0,157.4 L 61.9,155.0 L 63.3,151.6 L 63.5,149.4 L 63.5,143.4 L 63.8,141.4 L 63.3,140.4 L 62.6,137.3 L 61.2,134.9 L 63.5,131.4 L 63.9,130.2 L 63.9,129.7 L 64.4,129.6 L 65.9,130.0 L 67.0,129.8 L 69.9,127.9 L 71.3,126.1 L 71.7,124.4 L 71.6,122.4 L 72.9,120.1 L 73.6,116.3 L 73.5,115.4 L 73.7,115.0 L 75.5,114.6 L 76.8,113.6 L 78.6,113.3 L 79.9,113.3 L 83.8,113.7 L 85.8,113.5 L 85.9,113.9 L 87.5,115.3 L 87.7,115.3 L 93.2,115.4 L 95.8,115.9 L 102.4,115.6 L 103.7,115.1 L 104.9,114.7 L 108.3,112.7 L 110.0,112.0 L 118.1,106.0 L 119.0,102.8 L 120.8,103.6 L 122.9,106.0 L 126.5,106.4 L 127.8,107.2 L 129.4,107.7 L 130.4,109.3 L 133.5,111.8 L 136.0,113.3 L 137.3,114.9 L 143.9,122.5 L 146.7,125.8 L 149.1,126.7 L 157.8,127.3 L 160.8,128.0 L 164.8,129.6 L 168.0,131.5 L 173.8,134.6 L 177.4,137.1 L 181.0,139.1 L 183.2,142.8 L 183.1,147.1 L 183.5,149.3 L 184.5,150.1 L 186.6,150.0 L 190.4,148.9 L 194.3,147.6 L 196.6,147.2 L 199.1,147.0 L 201.5,146.0 L 207.9,144.0 L 217.2,137.7 L 218.9,137.3 L 219.6,137.3 L 221.0,137.4 L 224.7,137.1 L 225.8,137.9 L 225.9,139.3 L 224.4,141.4 L 224.7,141.7 L 226.8,141.3 L 229.5,141.1 L 231.9,140.5 L 234.6,140.2 L 237.1,139.4 L 237.5,138.8 L 237.5,137.2 L 236.8,135.9 L 237.0,134.7 L 237.5,134.1 L 238.1,134.0 L 240.0,134.3 L 243.5,135.6 L 244.8,136.5 L 245.1,137.3 L 244.5,138.6 L 244.8,139.0 L 246.2,137.6 L 247.9,137.6 L 253.7,141.4 L 254.8,141.7 L 256.2,141.3 L 256.7,141.5 L 257.1,141.7 L 260.4,141.7 L 262.6,142.0 L 264.3,141.8 L 267.1,141.2 L 269.9,140.9 L 273.6,140.9 L 277.3,141.1 L 279.5,140.9 L 280.6,140.0 L 283.2,136.0 L 284.4,135.1 L 285.5,133.3 L 286.7,132.2 L 288.9,132.2 L 290.0,132.4 L 290.5,132.3 L 292.2,131.1 L 294.2,131.0 L 295.2,131.4 L 297.2,133.3 L 298.7,133.2 L 301.8,132.2 L 304.3,129.5 L 305.6,127.4 L 306.4,126.6 L 314.1,126.5 L 315.0,125.8 L 316.0,126.9 L 317.1,127.4 L 318.3,128.2 L 320.4,130.2 L 325.9,136.8 L 327.6,137.3 L 328.7,138.1 L 330.4,138.7 L 331.4,139.4 L 336.5,140.2 L 337.9,140.9 L 342.0,140.9 L 344.7,142.6 L 348.4,144.6 L 351.0,145.0 L 351.8,145.7 L 353.3,146.0 L 354.7,145.8 L 356.1,144.4 L 355.9,142.3 L 355.7,141.4 L 356.1,141.6 L 357.1,142.4 L 357.2,143.8 L 356.7,145.5 L 355.6,147.1 L 356.0,148.0 L 353.9,146.6 L 352.3,146.7 L 350.6,147.0 L 349.7,147.7 L 349.2,148.7 L 349.0,149.7 L 349.6,152.5 L 350.6,153.7 L 351.1,155.0 L 352.7,159.6 L 352.2,162.5 L 352.6,163.0 L 353.5,163.3 L 354.0,163.7 L 356.2,171.6 L 356.5,173.5 L 358.1,180.7 L 358.4,183.4 L 359.5,190.1 L 360.0,199.9 L 359.4,204.6 L 358.9,205.5 L 357.5,205.6 L 357.2,206.3 L 356.2,207.1 L 355.7,208.2 L 355.2,210.4 L 354.4,211.3 L 352.9,212.3 L 350.4,212.6 L 347.4,214.0 L 346.2,216.1 L 344.2,218.3 L 343.8,220.6 L 342.6,222.7 L 342.3,223.8 L 341.6,224.4 L 340.3,224.6 L 339.7,225.1 L 338.4,232.9 L 338.4,232.9 L 337.1,234.4 L 335.1,235.0 L 333.2,236.1 L 331.9,238.0 L 331.6,240.9 L 330.7,241.6 L 326.9,245.4 L 325.6,245.9 L 322.1,247.9 L 319.7,250.0 L 316.1,252.0 L 312.2,254.6 L 310.2,255.5 L 308.5,256.6 L 304.6,261.5 L 301.0,265.5 L 296.0,269.9 L 293.6,271.5 L 290.9,271.5 L 289.0,271.8 L 286.3,272.5 L 285.2,273.1 L 278.2,273.2 L 275.9,273.5 L 274.5,274.3 L 272.6,274.9 L 265.9,278.4 L 263.3,279.1 L 261.7,278.4 L 261.1,276.6 L 260.7,275.7 L 256.7,275.7 L 255.1,275.6 L 253.9,274.8 L 251.7,274.8 L 250.0,275.6 L 248.8,275.7 L 248.3,275.6 L 246.0,274.6 L 244.9,273.6 L 242.8,273.5 L 240.2,271.8 L 239.2,270.4 L 236.6,268.7 L 230.9,267.8 L 229.4,266.7 L 226.4,266.0 L 222.1,266.2 L 219.8,266.6 L 219.0,266.8 L 217.5,266.7 L 215.9,265.7 L 211.6,265.5 L 210.3,265.1 L 207.2,265.1 L 205.4,266.2 L 203.3,266.9 L 200.9,267.6 L 197.0,267.2 L 195.9,266.6 L 193.2,266.2 L 190.6,265.4 L 189.4,265.7 L 188.4,266.4 L 186.6,266.9 L 183.2,269.1 L 180.4,270.6 L 178.3,271.0 L 173.9,271.2 L 172.7,271.6 L 169.7,271.9 L 167.5,272.9 L 165.2,273.6 L 162.3,273.8 L 159.7,272.3 L 158.6,272.0 L 157.6,271.6 L 156.0,271.6 L 154.2,272.4 L 151.6,275.3 L 150.3,276.5 L 148.0,279.5 L 147.0,280.7 L 145.6,281.5 L 144.5,282.3 L 141.7,284.7 L 140.0,284.9 L 139.1,285.5 L 136.8,285.6 L 134.0,288.3 L 131.7,289.9 L 124.3,293.0 L 122.9,295.4 L 121.5,296.7 L 120.1,296.7 L 119.1,297.0 L 116.3,297.2 L 115.3,296.5 L 113.3,296.5 L 113.0,296.8" fill="none" stroke="black" stroke-width="2"/>
</svg>