<?xml version="1.0" encoding="UTF-8"?>
<svg width="400" height="400" viewBox="0 0 400 400" xmlns="http://www.w3.org/2000/svg">
  <rect width="400" height="400" fill="white"/>
  <path d="M 40.0,354.0 L 147.8,169.6 L 200.6,138.7 L 200.5,138.8 L 200.5,139.2 L 200.7,139.3 L 201.2,139.3 L 201.7,138.9 L 201.5,138.6 L 201.2,138.5 L 200.8,138.5 L 358.7,46.0 L 359.5,61.5 L 359.4,61.5 L 359.1,61.8 L 359.4,63.0 L 359.5,63.7 L 359.7,64.2 L 359.7,64.7 L 359.9,70.6 L 359.9,70.7 L 359.8,70.8 L 359.7,71.2 L 359.4,71.9 L 359.0,72.4 L 358.7,73.5 L 358.9,74.1 L 359.3,74.6 L 359.6,74.6 L 360.0,74.3 L 307.6,316.4 L 295.4,318.9 L 295.5,318.8 L 295.9,318.3 L 296.1,317.9 L 296.0,317.6 L 295.7,317.5 L 295.3,317.6 L 295.0,318.0 L 295.4,318.2 L 294.9,318.9 L 294.9,319.1 L 294.4,319.2 L 294.5,319.0 L 294.6,318.5 L 294.5,318.2 L 293.9,318.5 L 293.7,319.0 L 293.9,319.2 L 285.3,321.1 L 285.4,321.0 L 285.7,320.1 L 285.6,319.9 L 285.4,319.8 L 284.6,320.3 L 284.1,321.1 L 284.1,321.3 L 129.0,353.7 L 128.5,353.6 L 40.0,354.0" fill="none" stroke="black" stroke-width="2"/>
</svg>