<?xml version="1.0" encoding="UTF-8"?>
<svg width="400" height="400" viewBox="0 0 400 400" xmlns="http://www.w3.org/2000/svg">
  <rect width="400" height="400" fill="white"/>
  <path d="M 40.0,332.0 L 80.7,144.1 L 80.9,143.9 L 81.2,143.5 L 81.7,143.2 L 82.5,141.9 L 82.9,141.6 L 83.0,141.3 L 83.0,141.2 L 82.8,141.1 L 82.9,141.0 L 83.3,140.7 L 83.8,140.5 L 84.5,139.4 L 85.2,138.1 L 85.1,137.9 L 85.2,137.4 L 85.0,137.3 L 84.6,137.5 L 84.2,137.5 L 83.4,138.0 L 82.9,138.5 L 82.8,139.1 L 82.3,139.7 L 82.2,140.2 L 82.1,140.4 L 81.7,140.4 L 81.5,140.7 L 81.0,141.0 L 80.6,141.3 L 80.6,141.3 L 80.4,136.6 L 80.4,136.3 L 80.5,136.6 L 80.7,136.7 L 80.7,136.7 L 81.1,137.0 L 81.4,136.8 L 81.4,136.7 L 81.9,136.2 L 81.9,135.6 L 82.0,135.6 L 82.1,135.7 L 82.0,136.2 L 82.3,136.6 L 84.4,136.7 L 84.9,136.4 L 85.2,136.0 L 85.5,135.9 L 86.4,135.4 L 87.1,135.2 L 87.4,134.9 L 87.6,134.0 L 87.5,133.7 L 87.1,133.3 L 86.4,133.5 L 86.3,133.3 L 86.4,133.1 L 87.0,132.9 L 87.0,132.5 L 87.4,131.7 L 87.4,131.1 L 87.3,130.8 L 87.2,130.3 L 87.0,129.8 L 86.7,129.8 L 86.2,129.6 L 86.0,129.8 L 85.9,129.5 L 85.8,129.4 L 85.2,129.4 L 84.7,129.9 L 84.5,130.6 L 84.2,130.4 L 83.7,130.5 L 83.5,130.7 L 83.4,131.8 L 83.1,132.0 L 82.8,131.7 L 82.5,132.0 L 82.4,132.3 L 82.7,132.6 L 82.7,132.9 L 82.0,133.2 L 81.6,133.4 L 81.2,133.4 L 80.8,133.5 L 80.9,134.0 L 81.5,133.9 L 81.9,133.9 L 81.9,134.2 L 80.9,134.1 L 80.3,134.2 L 79.6,122.2 L 157.7,75.5 L 306.0,74.1 L 306.0,74.1 L 305.9,74.3 L 306.4,74.6 L 307.5,74.5 L 307.7,74.3 L 307.7,74.1 L 308.6,74.1 L 308.5,74.1 L 308.5,74.4 L 308.7,74.5 L 308.8,74.5 L 309.2,74.2 L 310.0,74.1 L 310.0,74.0 L 310.7,74.0 L 310.7,74.0 L 310.7,74.2 L 310.9,74.2 L 310.9,74.0 L 312.0,74.0 L 311.9,74.1 L 312.0,74.3 L 312.1,74.4 L 311.3,74.8 L 310.5,75.1 L 310.2,75.3 L 310.1,75.5 L 309.8,75.9 L 309.8,76.2 L 309.6,76.7 L 309.3,76.9 L 308.7,77.5 L 308.6,77.8 L 308.9,78.0 L 309.3,77.9 L 310.2,77.4 L 311.0,77.4 L 311.1,77.6 L 311.0,77.8 L 310.6,78.0 L 310.2,78.4 L 310.2,78.6 L 310.1,78.9 L 309.8,78.9 L 309.5,79.0 L 309.1,80.0 L 308.9,80.2 L 308.8,80.7 L 308.6,81.1 L 308.9,81.2 L 308.9,81.3 L 308.6,81.7 L 308.2,82.4 L 308.3,82.5 L 308.1,82.9 L 307.7,83.1 L 307.9,83.3 L 307.7,83.6 L 307.6,83.7 L 307.5,84.1 L 308.2,84.6 L 308.7,84.8 L 309.3,85.1 L 309.6,85.6 L 309.8,85.8 L 310.6,85.9 L 310.8,85.8 L 311.1,85.8 L 311.3,85.6 L 311.5,85.3 L 312.4,84.8 L 312.7,84.8 L 312.8,85.1 L 312.7,85.5 L 312.6,85.9 L 312.1,86.3 L 311.8,86.1 L 311.5,86.2 L 311.5,86.5 L 311.9,86.5 L 312.3,87.0 L 312.3,87.3 L 312.2,87.7 L 311.9,87.8 L 311.2,87.9 L 310.1,88.7 L 307.7,88.6 L 307.4,88.3 L 306.9,88.1 L 306.6,88.3 L 306.4,88.7 L 305.6,89.1 L 305.2,89.0 L 304.7,89.4 L 303.7,90.1 L 302.4,90.4 L 302.0,90.7 L 301.3,91.2 L 300.9,91.2 L 300.5,91.1 L 300.3,91.2 L 299.8,91.3 L 299.5,91.2 L 298.7,90.9 L 297.4,89.3 L 297.4,89.2 L 298.0,89.0 L 298.4,88.7 L 298.6,88.4 L 299.0,88.4 L 298.8,88.0 L 298.4,87.6 L 298.3,86.9 L 297.9,86.5 L 298.0,86.1 L 298.3,85.9 L 298.6,85.8 L 298.6,85.6 L 298.3,85.4 L 297.8,85.3 L 296.2,85.9 L 295.6,86.4 L 295.3,87.0 L 295.6,87.2 L 295.7,87.4 L 295.6,87.7 L 295.4,87.7 L 295.0,87.5 L 293.8,87.7 L 292.8,87.2 L 292.6,87.5 L 293.0,87.9 L 292.6,88.0 L 292.2,88.5 L 292.2,89.0 L 292.0,89.6 L 292.7,89.5 L 293.3,89.4 L 295.0,88.8 L 295.1,88.8 L 295.4,88.7 L 295.6,89.0 L 295.5,89.3 L 295.4,89.8 L 295.6,90.0 L 295.9,89.9 L 296.1,89.3 L 296.3,89.3 L 297.0,89.5 L 298.1,90.8 L 298.6,91.3 L 298.3,91.6 L 298.2,92.1 L 297.8,92.5 L 297.3,92.5 L 296.4,93.3 L 296.2,93.7 L 296.0,93.9 L 295.8,93.6 L 295.6,93.6 L 295.2,94.2 L 295.2,94.6 L 296.1,95.0 L 296.2,95.2 L 295.8,95.8 L 295.2,96.1 L 294.8,96.6 L 294.4,96.6 L 293.9,97.4 L 293.9,97.9 L 294.4,98.1 L 294.5,99.0 L 294.7,99.1 L 295.1,99.1 L 295.7,98.6 L 295.9,98.7 L 295.9,99.3 L 296.1,99.5 L 296.6,99.5 L 298.8,98.9 L 299.2,98.8 L 299.9,98.4 L 300.9,98.4 L 301.2,98.2 L 301.7,97.2 L 301.9,97.1 L 301.9,96.2 L 301.8,95.9 L 301.6,95.3 L 302.2,93.8 L 302.0,92.8 L 302.0,92.2 L 303.2,91.5 L 303.6,91.1 L 303.8,90.7 L 303.8,90.4 L 304.5,90.1 L 304.7,90.3 L 304.7,90.6 L 304.5,91.0 L 304.6,91.2 L 304.9,90.9 L 305.1,90.5 L 306.0,90.4 L 306.1,90.2 L 306.1,89.3 L 307.1,88.9 L 307.2,89.0 L 307.7,89.3 L 307.9,89.3 L 308.3,89.0 L 308.9,89.1 L 308.9,89.3 L 309.0,89.7 L 308.7,89.9 L 308.7,90.1 L 309.1,90.5 L 309.1,90.7 L 309.7,91.0 L 311.1,91.0 L 311.8,91.1 L 312.5,91.1 L 313.4,90.5 L 313.6,89.9 L 313.6,89.4 L 314.4,88.7 L 314.7,88.1 L 314.7,87.8 L 315.3,87.7 L 315.5,87.5 L 315.5,87.0 L 315.8,86.6 L 316.0,86.4 L 316.1,87.0 L 316.4,87.0 L 316.6,86.8 L 316.7,86.2 L 316.9,85.8 L 316.8,84.6 L 317.3,84.4 L 317.3,84.8 L 317.7,85.5 L 317.7,85.7 L 317.3,86.6 L 317.2,87.1 L 317.4,87.5 L 317.2,88.0 L 317.1,88.6 L 316.9,88.9 L 316.8,89.6 L 317.1,89.9 L 316.8,90.3 L 316.8,90.8 L 317.4,91.3 L 317.7,91.2 L 317.9,91.0 L 318.3,90.9 L 319.2,90.2 L 320.0,90.3 L 320.3,90.2 L 320.9,90.0 L 321.1,89.9 L 321.6,89.6 L 322.4,89.3 L 322.9,89.0 L 323.3,88.7 L 323.5,88.2 L 323.6,87.3 L 324.0,87.5 L 324.5,87.6 L 324.7,87.8 L 324.7,88.1 L 325.0,88.7 L 325.3,88.8 L 325.5,89.0 L 324.7,89.7 L 324.6,90.2 L 324.7,90.8 L 325.0,90.8 L 325.2,90.9 L 325.0,91.3 L 324.7,91.4 L 324.5,91.2 L 324.3,90.7 L 323.8,90.3 L 323.4,90.3 L 322.8,90.7 L 322.5,91.1 L 322.2,91.3 L 321.9,91.7 L 321.5,91.7 L 321.3,91.9 L 321.0,92.3 L 320.1,92.6 L 319.3,92.7 L 318.6,93.0 L 318.6,93.2 L 317.9,93.8 L 317.4,93.9 L 317.0,94.3 L 316.3,94.4 L 315.5,94.8 L 315.1,95.3 L 314.9,95.8 L 314.4,96.0 L 314.2,95.9 L 313.4,96.3 L 312.4,97.4 L 312.3,97.7 L 312.5,98.1 L 312.4,98.2 L 311.9,98.5 L 311.8,98.8 L 311.8,99.0 L 311.7,99.8 L 312.0,100.1 L 311.8,100.3 L 311.5,100.4 L 311.3,100.7 L 311.2,101.2 L 311.1,101.5 L 310.6,101.8 L 310.3,102.4 L 309.9,102.7 L 309.6,102.7 L 309.3,103.0 L 309.2,103.1 L 309.2,103.3 L 309.1,103.5 L 309.1,103.6 L 309.1,103.8 L 309.3,103.8 L 309.7,103.6 L 310.0,103.5 L 310.1,103.6 L 310.1,103.6 L 310.0,104.1 L 310.0,104.7 L 310.2,105.2 L 310.7,105.8 L 311.1,106.0 L 312.0,106.0 L 312.9,105.4 L 313.3,104.8 L 313.8,105.1 L 314.2,105.0 L 314.5,104.8 L 314.5,104.4 L 314.8,104.4 L 315.3,105.2 L 315.9,105.1 L 316.2,104.9 L 316.1,104.6 L 315.8,104.3 L 315.8,104.0 L 316.0,103.9 L 316.4,104.2 L 316.9,104.4 L 318.7,104.4 L 319.1,104.1 L 319.4,103.6 L 319.4,103.4 L 319.9,101.5 L 320.1,101.1 L 320.4,101.1 L 320.5,101.3 L 320.2,102.0 L 320.2,102.5 L 319.8,103.6 L 319.8,103.6 L 319.2,105.3 L 319.0,105.6 L 318.9,105.9 L 318.4,106.0 L 318.0,106.3 L 317.7,106.8 L 317.4,106.7 L 315.9,107.2 L 315.5,107.3 L 314.8,107.8 L 314.1,108.2 L 313.8,108.4 L 313.8,109.0 L 314.7,109.0 L 313.6,110.0 L 313.4,109.7 L 313.2,109.6 L 312.9,109.9 L 312.5,109.9 L 312.1,109.7 L 311.0,109.5 L 310.4,109.8 L 310.1,110.2 L 309.3,110.3 L 308.4,110.7 L 306.7,111.6 L 305.8,111.9 L 304.5,112.5 L 304.1,112.9 L 303.3,113.4 L 302.6,114.1 L 302.6,114.5 L 302.6,114.9 L 302.1,115.4 L 302.0,115.9 L 301.6,116.5 L 301.7,116.7 L 302.0,116.7 L 302.9,116.3 L 303.5,115.4 L 303.7,115.7 L 303.6,116.0 L 303.4,116.5 L 303.4,116.7 L 303.7,116.7 L 303.9,117.0 L 304.0,117.3 L 304.8,117.0 L 305.2,116.7 L 305.5,116.3 L 306.1,116.3 L 306.3,116.5 L 306.2,116.8 L 305.3,117.0 L 305.1,117.3 L 305.0,117.9 L 305.2,118.1 L 305.6,118.1 L 306.4,118.5 L 306.1,118.9 L 306.7,119.5 L 307.6,119.4 L 307.8,119.2 L 308.1,119.1 L 308.2,119.2 L 307.5,120.2 L 306.4,121.6 L 306.1,121.6 L 306.1,121.4 L 305.7,121.0 L 305.5,120.9 L 305.4,121.1 L 305.6,121.3 L 305.3,121.5 L 304.7,121.6 L 303.7,121.1 L 303.3,121.1 L 302.7,120.8 L 302.3,120.8 L 302.1,121.1 L 302.1,121.4 L 302.0,121.9 L 301.7,121.9 L 301.6,121.8 L 301.8,121.4 L 301.4,121.0 L 301.2,120.9 L 299.9,121.7 L 299.5,121.7 L 298.9,122.0 L 298.6,122.4 L 298.8,122.8 L 298.6,122.9 L 298.6,123.3 L 299.4,123.6 L 299.0,123.9 L 299.0,124.1 L 299.0,124.5 L 299.4,124.5 L 299.7,124.4 L 299.8,124.4 L 300.4,124.7 L 300.4,125.0 L 301.0,125.5 L 301.8,125.4 L 302.0,125.3 L 302.3,125.3 L 302.2,127.7 L 302.1,127.7 L 301.9,127.5 L 301.6,127.5 L 300.5,127.7 L 299.9,128.0 L 299.9,128.3 L 300.2,128.5 L 300.5,128.9 L 301.3,128.7 L 301.7,128.3 L 301.9,128.3 L 302.4,128.3 L 302.7,128.8 L 302.6,129.9 L 302.4,130.2 L 302.4,130.7 L 302.6,131.0 L 302.9,131.1 L 303.2,131.1 L 303.6,130.0 L 303.6,129.4 L 303.1,128.5 L 302.8,127.7 L 302.6,126.9 L 302.7,125.9 L 303.0,125.8 L 303.0,125.5 L 302.8,125.3 L 303.5,124.4 L 303.6,124.1 L 304.0,124.0 L 304.5,124.0 L 304.8,123.7 L 305.1,122.9 L 305.3,122.7 L 305.6,122.8 L 305.9,122.7 L 305.9,122.5 L 306.1,122.4 L 306.3,122.4 L 306.8,121.8 L 307.4,121.1 L 308.5,119.6 L 308.7,119.5 L 309.1,119.6 L 309.4,120.0 L 309.7,119.9 L 309.9,119.8 L 310.1,119.9 L 310.4,120.0 L 311.7,119.6 L 312.3,119.0 L 312.6,118.6 L 312.9,118.7 L 313.1,118.8 L 313.7,118.7 L 313.7,118.1 L 313.5,117.6 L 313.2,117.4 L 313.3,117.0 L 314.2,115.9 L 314.8,115.3 L 314.9,114.0 L 314.7,113.7 L 314.4,113.4 L 314.4,112.7 L 314.1,112.0 L 313.8,111.7 L 313.6,111.1 L 313.7,110.6 L 314.2,110.0 L 314.8,109.6 L 315.4,109.3 L 317.1,109.4 L 317.9,109.8 L 318.1,110.0 L 318.1,110.1 L 317.7,110.1 L 317.2,109.9 L 317.0,110.0 L 317.0,110.3 L 317.2,110.5 L 317.5,110.7 L 317.5,111.3 L 317.7,112.0 L 318.2,112.5 L 318.5,112.6 L 318.9,112.5 L 319.3,112.3 L 319.4,112.0 L 319.3,111.6 L 319.3,111.4 L 319.5,111.2 L 319.7,111.3 L 320.0,111.2 L 320.0,110.9 L 319.8,110.7 L 319.3,110.6 L 319.1,110.3 L 319.2,110.1 L 319.5,109.7 L 319.6,109.0 L 319.7,108.3 L 319.6,107.5 L 319.4,107.3 L 319.3,106.7 L 319.3,106.1 L 320.3,103.6 L 320.3,103.5 L 320.5,103.6 L 321.0,103.9 L 321.7,103.7 L 321.9,103.6 L 322.3,103.4 L 322.9,103.2 L 323.8,103.2 L 325.3,102.4 L 326.0,102.3 L 326.4,101.9 L 326.7,101.8 L 326.9,101.4 L 326.9,101.0 L 325.8,98.6 L 325.6,98.3 L 325.5,97.7 L 325.6,96.7 L 325.8,96.1 L 325.8,96.4 L 325.9,96.6 L 326.0,97.5 L 326.2,97.8 L 326.1,98.2 L 326.2,98.4 L 326.9,99.5 L 328.0,99.5 L 328.4,99.1 L 329.0,98.1 L 329.0,97.7 L 329.5,97.0 L 329.5,96.4 L 329.8,95.7 L 330.0,94.4 L 330.6,92.8 L 331.1,91.9 L 331.5,90.7 L 331.6,90.2 L 332.3,89.0 L 332.4,88.5 L 332.7,87.9 L 332.8,86.8 L 332.3,86.6 L 332.4,86.1 L 332.6,85.7 L 333.5,85.3 L 333.8,85.1 L 334.0,85.0 L 334.0,84.6 L 333.8,84.3 L 333.8,84.2 L 333.4,84.1 L 333.4,83.9 L 333.8,83.5 L 334.0,83.3 L 334.1,82.6 L 334.8,82.5 L 337.2,80.2 L 337.7,79.2 L 338.0,77.9 L 338.3,77.3 L 338.4,76.2 L 338.7,75.4 L 339.2,74.7 L 339.6,72.9 L 340.3,70.5 L 340.6,69.9 L 340.7,69.3 L 340.8,68.9 L 341.1,68.1 L 341.1,68.0 L 344.0,68.4 L 343.7,68.7 L 343.6,69.9 L 343.9,70.3 L 344.1,71.7 L 344.5,72.0 L 344.6,72.3 L 345.1,72.7 L 346.0,73.2 L 346.8,73.2 L 347.0,73.3 L 347.7,73.7 L 348.3,73.6 L 349.1,73.2 L 349.3,72.9 L 349.5,72.6 L 350.3,72.5 L 350.8,72.5 L 351.5,72.9 L 351.8,73.2 L 351.8,73.6 L 352.2,73.7 L 352.7,74.2 L 353.2,74.9 L 353.1,75.2 L 353.2,75.6 L 353.6,76.0 L 354.4,76.3 L 354.9,75.9 L 355.7,75.9 L 357.0,76.0 L 357.7,76.2 L 358.5,76.6 L 358.9,77.0 L 359.6,78.1 L 360.0,79.4 L 360.0,80.2 L 359.7,82.2 L 359.2,82.9 L 358.8,83.3 L 358.6,83.4 L 357.7,83.8 L 357.3,84.2 L 357.4,84.6 L 358.2,85.2 L 358.3,85.4 L 358.2,85.6 L 357.9,85.8 L 357.6,85.8 L 357.5,85.6 L 357.1,85.4 L 356.9,85.1 L 356.5,84.7 L 355.8,84.6 L 355.3,84.7 L 355.1,85.0 L 354.9,85.1 L 354.9,85.0 L 355.1,84.6 L 355.0,84.4 L 354.4,84.3 L 354.0,84.4 L 353.0,84.1 L 352.3,84.1 L 350.7,84.3 L 350.5,84.5 L 350.4,84.7 L 349.5,85.2 L 348.7,85.8 L 348.0,87.0 L 348.0,87.7 L 347.9,87.8 L 347.2,87.2 L 346.2,86.6 L 345.6,86.3 L 345.1,86.4 L 344.6,86.6 L 344.1,86.4 L 343.6,86.7 L 343.1,87.1 L 342.5,87.1 L 341.7,87.3 L 340.9,87.8 L 340.1,88.2 L 338.8,89.0 L 338.4,89.4 L 337.7,90.8 L 337.9,91.2 L 337.8,92.7 L 337.9,93.4 L 337.6,94.0 L 337.5,94.3 L 337.6,94.6 L 337.7,94.9 L 337.8,95.3 L 337.8,95.7 L 337.9,95.8 L 338.2,95.7 L 338.9,95.2 L 339.3,94.7 L 339.6,94.7 L 339.9,95.0 L 340.4,95.0 L 340.5,95.1 L 340.5,95.4 L 340.4,95.7 L 339.4,96.3 L 338.0,97.5 L 337.8,97.9 L 337.7,98.4 L 337.5,98.4 L 337.4,98.2 L 337.3,98.1 L 336.9,98.1 L 336.6,98.3 L 336.4,99.2 L 336.0,99.7 L 336.0,100.1 L 335.8,100.2 L 334.9,101.6 L 334.8,101.9 L 334.1,102.8 L 334.0,103.5 L 333.3,105.0 L 333.2,105.8 L 333.2,106.1 L 333.2,107.9 L 333.3,108.1 L 333.5,108.2 L 333.7,108.4 L 333.7,108.7 L 333.5,109.2 L 333.3,109.8 L 333.2,110.6 L 333.4,110.8 L 333.4,111.4 L 333.6,112.1 L 333.8,112.4 L 334.1,112.3 L 334.3,112.1 L 334.6,112.1 L 334.9,112.4 L 335.0,112.9 L 335.4,113.1 L 336.3,113.5 L 336.6,113.5 L 337.1,113.1 L 337.4,113.0 L 337.9,113.4 L 338.8,113.4 L 339.2,113.6 L 339.5,113.9 L 339.4,114.3 L 338.8,115.0 L 338.4,115.3 L 337.8,115.3 L 337.3,115.6 L 337.1,115.9 L 336.5,116.0 L 336.3,116.8 L 336.4,117.3 L 336.7,117.4 L 337.2,117.1 L 337.4,117.3 L 338.1,117.3 L 338.5,117.0 L 339.0,116.7 L 339.3,116.7 L 339.3,117.0 L 338.9,117.4 L 338.9,117.8 L 339.2,118.0 L 340.1,117.8 L 340.2,117.9 L 339.9,118.3 L 339.6,118.3 L 339.4,118.5 L 339.3,118.7 L 339.5,119.0 L 340.0,119.3 L 339.9,119.9 L 340.2,120.2 L 340.6,120.1 L 340.8,119.6 L 340.7,119.4 L 340.6,119.2 L 340.9,119.1 L 340.9,119.1 L 341.7,118.9 L 342.0,118.9 L 342.1,119.2 L 342.1,119.4 L 342.1,119.5 L 342.4,119.7 L 342.8,119.7 L 342.9,119.7 L 348.2,134.9 L 348.2,134.9 L 347.5,135.3 L 346.9,135.8 L 346.2,136.7 L 346.2,137.2 L 345.9,137.8 L 346.0,137.9 L 346.3,138.2 L 346.5,138.3 L 346.3,138.8 L 346.7,139.2 L 347.0,139.3 L 347.2,139.4 L 347.0,139.6 L 346.6,139.8 L 345.8,140.6 L 344.9,141.8 L 344.7,141.9 L 344.0,143.0 L 343.9,143.4 L 343.7,143.6 L 343.6,143.5 L 343.6,143.2 L 343.3,142.7 L 343.4,142.4 L 343.2,142.2 L 342.6,142.3 L 342.2,142.8 L 342.0,142.9 L 341.7,143.1 L 341.3,143.2 L 340.6,143.7 L 340.0,143.9 L 338.9,144.8 L 338.6,144.8 L 337.8,145.5 L 337.8,145.7 L 337.9,145.8 L 338.3,146.3 L 338.9,146.4 L 339.0,146.7 L 338.9,146.9 L 337.3,146.8 L 336.8,147.0 L 336.1,147.8 L 335.1,148.1 L 334.6,148.2 L 334.5,148.2 L 333.8,148.4 L 333.5,148.5 L 332.8,149.0 L 332.0,150.1 L 331.8,150.6 L 331.2,151.1 L 330.9,151.2 L 330.6,150.8 L 330.6,150.3 L 330.9,150.0 L 331.3,148.9 L 332.0,148.1 L 332.0,148.1 L 332.8,147.2 L 333.7,146.3 L 333.8,146.1 L 334.3,145.5 L 334.9,144.4 L 335.6,143.6 L 336.2,143.9 L 336.4,143.8 L 336.7,143.6 L 336.5,143.3 L 336.7,143.2 L 336.4,142.9 L 336.1,143.0 L 335.8,143.1 L 335.7,143.0 L 336.5,142.0 L 336.6,141.7 L 336.4,141.4 L 336.0,141.3 L 336.3,140.7 L 336.3,140.2 L 336.6,139.6 L 336.8,138.7 L 336.7,138.0 L 336.5,137.7 L 336.1,137.5 L 335.3,137.4 L 335.0,137.6 L 334.5,137.4 L 333.8,137.8 L 333.7,137.8 L 332.9,138.1 L 332.6,138.6 L 331.9,138.7 L 331.5,138.9 L 330.8,139.4 L 330.3,139.5 L 328.4,138.0 L 328.5,137.8 L 329.2,136.9 L 328.8,135.7 L 328.3,135.7 L 327.7,136.2 L 327.5,136.2 L 327.1,135.9 L 326.5,135.7 L 325.9,136.1 L 325.5,136.5 L 324.9,136.9 L 324.3,137.0 L 324.0,136.9 L 323.8,136.6 L 323.4,136.4 L 322.9,136.5 L 322.4,136.7 L 321.9,137.4 L 321.8,137.8 L 321.4,138.0 L 320.9,138.3 L 320.6,138.5 L 320.0,139.2 L 318.7,139.1 L 318.5,139.0 L 318.2,138.9 L 317.5,139.5 L 316.7,139.7 L 316.1,140.2 L 315.8,140.3 L 315.4,140.1 L 315.2,140.2 L 314.4,141.4 L 313.9,141.8 L 313.2,141.8 L 312.5,142.3 L 311.8,142.4 L 311.8,142.2 L 312.4,141.7 L 312.9,141.1 L 312.9,140.5 L 312.6,140.1 L 312.4,140.0 L 312.0,140.1 L 311.4,140.4 L 310.3,140.5 L 309.9,140.9 L 309.5,141.1 L 309.1,141.5 L 308.9,141.3 L 310.2,140.1 L 310.5,139.5 L 310.3,139.3 L 309.9,139.4 L 309.7,139.5 L 309.0,139.6 L 308.3,139.9 L 307.7,139.9 L 307.5,139.3 L 307.6,138.4 L 307.9,138.2 L 307.7,138.0 L 307.8,137.5 L 308.5,136.7 L 308.8,136.8 L 309.2,137.3 L 309.5,137.5 L 310.2,137.5 L 310.6,137.2 L 310.9,137.2 L 311.3,137.1 L 312.8,136.2 L 313.9,135.7 L 314.7,134.7 L 314.9,134.1 L 315.2,133.7 L 316.0,133.3 L 316.5,132.5 L 316.3,132.1 L 316.4,131.8 L 316.6,131.6 L 316.4,131.4 L 316.1,131.2 L 316.1,130.5 L 315.9,130.0 L 316.1,129.6 L 315.9,129.0 L 315.9,128.8 L 316.4,128.0 L 316.6,127.9 L 316.7,127.6 L 317.0,127.6 L 317.1,127.3 L 317.0,127.1 L 316.5,127.0 L 316.3,127.2 L 315.9,127.2 L 315.6,127.6 L 315.4,127.6 L 314.4,127.2 L 313.8,127.2 L 313.0,127.5 L 312.7,127.8 L 312.3,128.5 L 312.1,128.7 L 311.9,128.6 L 310.8,128.5 L 310.6,128.8 L 309.5,129.1 L 309.3,129.3 L 308.8,129.9 L 308.5,130.1 L 308.1,130.0 L 307.8,130.2 L 307.8,130.3 L 308.2,130.4 L 308.3,130.7 L 308.1,131.0 L 308.1,131.4 L 308.4,131.6 L 308.4,131.8 L 308.1,131.9 L 307.9,132.0 L 307.6,132.9 L 307.7,133.2 L 307.3,133.8 L 307.2,134.7 L 307.0,135.2 L 307.3,135.4 L 307.5,135.6 L 307.7,135.9 L 307.9,136.1 L 308.3,135.9 L 308.6,135.9 L 307.6,137.1 L 306.9,136.4 L 306.7,136.3 L 306.0,136.6 L 305.4,137.0 L 304.4,138.0 L 304.3,138.9 L 304.5,139.0 L 304.7,139.0 L 304.9,139.0 L 304.9,139.3 L 305.1,139.5 L 305.3,139.5 L 305.7,139.2 L 306.4,139.1 L 306.9,138.6 L 307.1,138.7 L 307.1,139.4 L 307.4,140.2 L 307.0,140.5 L 306.3,140.6 L 305.6,141.4 L 305.9,142.0 L 306.1,142.3 L 306.5,142.1 L 307.1,142.0 L 307.5,141.7 L 307.7,141.8 L 308.0,141.7 L 308.3,141.6 L 308.8,141.9 L 308.8,142.0 L 308.2,142.3 L 308.0,142.5 L 308.1,142.9 L 308.5,143.1 L 308.4,143.3 L 308.6,143.5 L 309.1,143.5 L 309.5,143.3 L 309.4,143.7 L 308.3,145.2 L 308.4,145.3 L 308.0,146.1 L 307.7,146.3 L 307.0,146.6 L 306.7,147.0 L 306.7,147.0 L 306.5,147.3 L 306.1,147.5 L 305.6,147.2 L 305.0,147.0 L 304.3,147.1 L 303.4,148.1 L 303.5,148.3 L 303.5,149.4 L 304.3,150.1 L 304.4,150.7 L 305.1,151.4 L 305.9,151.4 L 306.0,151.7 L 306.2,151.8 L 306.3,151.9 L 306.4,152.1 L 307.7,151.3 L 308.4,150.7 L 309.0,150.0 L 309.4,149.2 L 309.9,148.8 L 310.2,148.3 L 310.8,148.2 L 311.4,148.4 L 311.8,148.4 L 312.4,147.9 L 313.1,147.5 L 313.5,147.3 L 313.5,147.3 L 313.4,146.5 L 313.6,146.1 L 313.8,145.9 L 314.9,145.9 L 315.5,146.1 L 316.1,146.1 L 316.8,145.6 L 317.2,145.6 L 319.1,143.7 L 319.9,143.1 L 320.3,143.0 L 320.7,143.1 L 321.1,142.9 L 322.0,142.3 L 322.8,141.8 L 323.1,141.3 L 323.6,140.9 L 324.9,140.2 L 325.5,139.8 L 326.2,139.5 L 326.5,139.5 L 327.6,138.6 L 328.2,138.3 L 329.6,139.6 L 329.6,139.8 L 329.1,140.1 L 327.5,140.9 L 326.8,141.0 L 326.1,141.3 L 325.5,141.9 L 325.0,142.6 L 324.8,143.3 L 324.5,143.8 L 324.4,144.2 L 324.7,145.0 L 324.6,145.4 L 323.8,146.1 L 323.2,146.8 L 322.9,147.7 L 322.9,147.7 L 322.9,148.0 L 322.9,148.4 L 322.8,148.8 L 322.7,149.5 L 322.5,149.8 L 321.7,150.3 L 321.4,150.9 L 320.8,151.2 L 320.6,151.3 L 320.4,150.6 L 320.0,150.3 L 319.3,150.3 L 318.7,149.9 L 318.4,150.0 L 318.0,150.0 L 317.7,149.6 L 317.4,149.5 L 316.8,149.7 L 315.8,149.7 L 315.2,149.8 L 314.4,149.9 L 313.9,150.2 L 313.3,150.3 L 312.7,150.5 L 312.4,150.7 L 312.0,151.4 L 311.9,152.1 L 311.5,153.0 L 311.4,153.3 L 311.5,153.5 L 311.1,154.4 L 312.1,155.2 L 312.3,155.3 L 312.6,155.7 L 312.3,156.0 L 312.5,156.2 L 312.9,156.2 L 314.0,156.0 L 315.0,155.4 L 315.4,155.1 L 315.7,154.6 L 315.8,154.6 L 315.9,154.8 L 316.0,155.0 L 316.3,155.0 L 316.5,154.6 L 316.8,154.6 L 317.0,154.9 L 317.4,155.2 L 318.2,154.9 L 319.2,154.4 L 319.9,153.9 L 320.3,153.0 L 320.7,152.1 L 320.9,151.9 L 321.5,152.0 L 321.7,152.3 L 321.9,153.1 L 322.1,153.2 L 322.8,152.9 L 322.9,153.0 L 322.6,153.3 L 321.7,153.9 L 321.3,154.6 L 320.6,156.3 L 320.7,156.5 L 321.2,156.7 L 321.1,157.4 L 321.1,157.6 L 321.0,158.5 L 321.2,158.7 L 321.4,158.7 L 321.7,158.4 L 322.1,157.6 L 322.4,157.6 L 322.9,157.9 L 323.3,157.9 L 324.0,157.5 L 324.7,156.8 L 324.8,156.3 L 324.7,155.8 L 323.8,155.1 L 323.3,154.5 L 323.3,154.1 L 323.7,153.6 L 324.1,153.5 L 324.4,153.1 L 324.3,152.9 L 323.8,152.6 L 323.4,152.5 L 323.3,152.3 L 323.5,152.1 L 324.0,152.4 L 324.4,152.2 L 324.6,151.8 L 325.0,150.8 L 325.3,150.3 L 325.5,150.4 L 325.8,150.7 L 326.9,150.7 L 327.9,150.6 L 328.8,150.2 L 329.5,150.4 L 329.6,150.3 L 329.9,150.3 L 330.1,150.6 L 330.1,151.1 L 329.6,151.3 L 328.5,151.8 L 327.9,152.3 L 327.1,153.1 L 326.3,154.6 L 325.8,155.1 L 325.4,155.9 L 325.0,156.3 L 325.2,156.5 L 325.2,157.2 L 325.0,157.6 L 324.7,158.1 L 324.0,159.5 L 323.9,159.7 L 323.5,160.3 L 322.6,162.4 L 322.3,163.4 L 322.3,164.4 L 322.5,164.8 L 322.2,165.6 L 322.1,167.0 L 321.7,168.4 L 320.9,169.6 L 321.0,169.8 L 321.0,170.0 L 320.8,170.6 L 320.6,171.2 L 320.3,171.9 L 319.8,172.3 L 319.7,172.6 L 319.8,172.9 L 319.7,174.3 L 319.3,174.7 L 318.9,174.8 L 318.8,174.9 L 318.2,175.9 L 318.3,176.4 L 317.5,179.2 L 317.7,179.3 L 318.0,179.5 L 318.1,179.7 L 317.9,180.6 L 317.5,181.3 L 318.0,181.9 L 318.2,182.5 L 318.5,182.4 L 318.8,182.3 L 318.7,182.6 L 318.3,183.1 L 318.0,183.1 L 317.6,183.5 L 317.7,184.1 L 318.0,184.5 L 318.6,185.3 L 318.8,186.0 L 319.0,186.6 L 319.3,187.7 L 319.7,188.1 L 320.0,188.0 L 320.7,187.6 L 321.2,187.4 L 324.6,184.3 L 325.1,183.6 L 325.8,182.9 L 326.2,182.7 L 326.7,182.8 L 326.2,183.7 L 325.1,184.8 L 324.4,185.7 L 323.3,186.6 L 322.6,187.4 L 320.7,189.2 L 320.1,190.6 L 320.0,191.4 L 320.1,191.8 L 320.2,192.7 L 320.4,193.3 L 320.5,193.9 L 320.2,194.8 L 320.2,195.5 L 320.4,196.2 L 320.4,197.5 L 321.1,201.4 L 320.9,202.6 L 320.9,204.0 L 320.9,204.6 L 320.5,205.4 L 320.6,206.0 L 320.7,206.2 L 321.3,206.1 L 321.9,206.6 L 322.5,206.3 L 323.7,205.6 L 324.7,205.2 L 325.5,204.9 L 325.9,205.0 L 325.7,205.4 L 325.0,206.1 L 324.2,206.4 L 323.5,207.0 L 322.4,208.3 L 322.4,208.9 L 322.7,209.5 L 323.1,210.2 L 323.1,210.3 L 323.0,210.3 L 318.9,212.9 L 318.3,212.1 L 317.9,211.8 L 317.9,211.0 L 317.5,210.8 L 316.2,210.7 L 316.0,210.5 L 315.8,210.1 L 315.5,209.8 L 315.5,209.4 L 316.3,208.3 L 316.5,207.3 L 316.8,206.8 L 316.7,206.3 L 316.1,205.0 L 315.9,204.3 L 315.9,203.8 L 316.0,203.3 L 316.1,202.9 L 316.1,202.2 L 316.0,201.8 L 315.1,201.5 L 314.3,200.8 L 314.1,200.3 L 314.1,200.0 L 314.4,199.5 L 314.4,199.2 L 313.5,198.2 L 313.0,197.7 L 312.6,197.1 L 312.1,196.2 L 311.2,195.4 L 311.0,194.9 L 311.1,194.6 L 312.0,193.6 L 312.5,192.6 L 313.1,191.8 L 313.9,191.1 L 314.0,191.2 L 314.0,191.5 L 313.5,192.4 L 313.4,192.5 L 313.7,192.9 L 313.8,192.8 L 314.5,191.9 L 314.7,192.0 L 315.0,192.4 L 315.2,192.6 L 315.6,192.5 L 316.0,192.2 L 316.4,191.2 L 316.4,190.7 L 315.9,189.8 L 315.9,189.4 L 316.2,188.8 L 316.6,188.5 L 317.2,188.1 L 317.3,187.8 L 317.2,187.4 L 317.0,186.9 L 317.0,186.4 L 317.2,185.9 L 317.2,185.6 L 317.1,185.4 L 316.9,185.0 L 316.6,185.0 L 316.3,185.1 L 316.0,185.1 L 315.3,184.7 L 314.3,184.5 L 313.4,185.8 L 312.8,186.7 L 312.9,187.9 L 313.1,188.3 L 313.1,188.6 L 312.8,188.8 L 312.5,188.7 L 312.2,188.6 L 312.0,188.7 L 311.1,189.8 L 310.5,190.9 L 310.1,191.0 L 309.7,190.8 L 309.1,190.4 L 309.1,190.0 L 309.4,189.4 L 309.5,187.7 L 309.7,187.2 L 310.4,186.2 L 310.5,185.7 L 311.4,184.5 L 311.4,183.6 L 311.7,183.0 L 311.8,182.4 L 312.3,181.6 L 312.4,181.0 L 312.8,180.5 L 312.9,180.4 L 313.1,180.0 L 313.0,179.7 L 312.8,179.5 L 312.1,179.3 L 311.8,178.9 L 312.0,178.4 L 311.8,178.3 L 311.2,178.5 L 310.7,178.2 L 310.4,177.9 L 310.2,177.4 L 310.2,177.1 L 311.1,176.3 L 311.5,175.6 L 311.6,175.2 L 311.6,174.2 L 312.1,173.4 L 312.5,172.9 L 312.5,172.6 L 311.9,172.0 L 311.8,171.4 L 311.9,170.9 L 312.6,169.6 L 312.9,169.1 L 313.3,169.2 L 313.5,169.6 L 313.8,170.1 L 314.2,170.8 L 314.7,171.4 L 315.7,171.3 L 316.1,170.8 L 316.5,170.3 L 316.3,170.0 L 316.1,169.8 L 316.2,169.2 L 316.4,168.6 L 316.3,168.0 L 316.1,167.3 L 316.3,167.0 L 317.0,166.3 L 317.3,165.6 L 317.0,164.8 L 317.2,164.5 L 318.0,163.8 L 318.1,163.4 L 318.0,162.7 L 317.5,160.8 L 317.3,160.3 L 317.6,160.1 L 318.2,159.7 L 318.3,159.5 L 318.4,159.4 L 318.0,158.5 L 318.0,158.1 L 317.8,157.8 L 317.1,157.8 L 317.0,157.7 L 316.6,157.7 L 316.1,157.9 L 315.9,158.0 L 315.9,158.5 L 315.7,158.7 L 315.4,158.5 L 315.0,158.5 L 313.8,159.2 L 313.0,159.2 L 312.8,159.0 L 312.7,158.2 L 312.1,157.1 L 312.1,156.8 L 311.9,156.5 L 311.4,156.2 L 310.4,156.2 L 310.2,156.3 L 310.1,156.7 L 309.8,157.0 L 309.7,157.0 L 308.7,157.0 L 307.9,157.3 L 307.7,157.6 L 307.0,157.7 L 306.5,158.3 L 306.2,158.6 L 306.0,158.7 L 305.9,159.1 L 305.5,159.3 L 305.0,159.4 L 305.0,159.5 L 304.6,159.8 L 304.4,160.1 L 304.3,160.8 L 303.7,161.7 L 303.7,162.5 L 304.0,162.9 L 304.1,163.2 L 303.8,163.5 L 303.3,163.9 L 302.9,164.2 L 302.6,164.8 L 301.7,166.4 L 301.6,167.1 L 301.7,167.9 L 301.5,168.3 L 301.1,168.7 L 300.1,168.8 L 299.1,168.6 L 298.6,168.1 L 298.0,167.5 L 298.4,166.7 L 298.5,166.4 L 298.9,166.0 L 299.7,165.6 L 300.0,165.3 L 299.4,164.5 L 299.5,164.0 L 300.4,162.7 L 301.0,161.4 L 301.0,161.3 L 301.0,160.8 L 300.9,160.5 L 300.0,160.4 L 299.7,160.2 L 299.3,160.2 L 298.9,160.9 L 298.4,161.4 L 298.0,161.6 L 297.7,161.8 L 297.3,162.7 L 297.0,162.9 L 296.6,163.0 L 296.3,163.2 L 295.8,163.8 L 295.1,164.5 L 294.3,165.1 L 294.1,165.1 L 293.3,165.2 L 292.8,166.2 L 291.6,168.3 L 291.2,168.8 L 290.7,169.7 L 290.2,170.1 L 289.8,169.6 L 289.3,169.6 L 289.0,169.8 L 288.2,171.1 L 287.8,171.6 L 287.3,172.0 L 286.7,172.1 L 285.1,173.9 L 284.9,174.7 L 284.0,175.5 L 282.0,178.1 L 281.2,179.2 L 280.8,179.7 L 280.1,180.9 L 280.1,181.6 L 280.5,181.7 L 280.6,182.0 L 280.5,182.6 L 279.9,183.8 L 279.5,184.2 L 279.2,184.7 L 279.2,185.3 L 279.5,185.9 L 280.1,186.3 L 280.3,186.2 L 280.4,185.7 L 280.6,185.4 L 281.4,185.1 L 281.8,184.7 L 281.5,185.7 L 281.3,186.1 L 281.2,186.7 L 281.1,187.6 L 281.3,188.0 L 281.6,188.5 L 281.9,188.7 L 283.1,188.6 L 283.4,188.2 L 283.4,187.6 L 283.2,187.4 L 283.4,186.9 L 283.8,186.9 L 284.6,186.0 L 284.7,185.6 L 285.4,184.9 L 286.1,184.4 L 286.4,183.6 L 287.3,182.1 L 287.4,180.2 L 287.3,180.0 L 287.9,179.4 L 288.3,178.5 L 288.7,177.9 L 288.9,177.7 L 289.2,177.8 L 289.4,177.9 L 289.7,177.4 L 289.9,176.8 L 290.1,176.5 L 290.5,174.7 L 291.0,172.6 L 291.3,172.4 L 291.6,172.5 L 291.7,172.7 L 291.9,172.6 L 292.5,171.9 L 293.9,170.6 L 294.2,170.6 L 294.2,170.8 L 294.2,171.0 L 293.8,171.6 L 293.3,172.7 L 292.8,173.3 L 292.6,173.7 L 292.1,174.5 L 292.4,175.7 L 292.9,176.2 L 293.1,176.2 L 293.6,176.5 L 294.0,176.5 L 294.1,176.1 L 294.0,175.5 L 294.1,175.3 L 294.5,175.1 L 294.7,174.7 L 296.5,174.2 L 297.4,173.7 L 297.6,173.7 L 297.6,173.8 L 297.4,174.1 L 296.8,174.5 L 296.2,175.1 L 295.8,175.6 L 296.0,175.9 L 296.4,176.0 L 296.1,177.6 L 295.6,178.5 L 295.7,178.8 L 295.7,179.0 L 295.4,179.1 L 294.4,178.9 L 293.7,178.5 L 293.1,178.2 L 292.8,178.1 L 292.5,178.7 L 291.8,179.3 L 291.5,179.5 L 291.2,179.6 L 290.7,180.2 L 289.8,180.7 L 289.3,181.5 L 289.0,182.4 L 288.7,183.0 L 288.3,184.4 L 288.3,185.6 L 288.1,186.0 L 288.4,186.2 L 288.9,186.1 L 289.0,186.3 L 288.7,186.5 L 288.7,186.8 L 288.0,188.0 L 287.9,188.0 L 287.6,187.3 L 287.4,187.1 L 286.4,186.7 L 285.9,186.8 L 285.5,187.4 L 285.4,188.4 L 284.6,190.1 L 284.5,191.2 L 283.5,193.0 L 283.5,194.0 L 283.8,194.0 L 284.5,193.2 L 284.8,193.2 L 284.4,193.9 L 284.6,194.0 L 285.1,193.9 L 285.8,193.5 L 286.3,192.9 L 286.4,193.1 L 286.3,193.6 L 285.7,195.1 L 285.4,195.4 L 285.2,195.8 L 286.0,195.7 L 286.4,195.6 L 286.8,195.8 L 287.8,195.8 L 288.2,195.3 L 288.4,194.9 L 288.9,194.9 L 289.6,194.9 L 290.5,194.1 L 292.1,193.6 L 292.4,193.5 L 292.8,193.2 L 293.2,193.1 L 293.8,192.8 L 294.0,192.5 L 293.9,192.4 L 293.9,192.0 L 294.1,191.8 L 294.3,191.7 L 294.4,191.4 L 294.7,190.9 L 295.0,190.6 L 295.0,190.2 L 295.5,189.5 L 295.9,189.3 L 296.2,189.4 L 296.1,190.1 L 295.4,191.1 L 295.1,191.8 L 294.1,192.8 L 293.5,193.8 L 293.3,194.6 L 292.5,195.9 L 292.4,196.7 L 291.8,197.7 L 290.7,197.8 L 289.4,198.4 L 287.6,198.6 L 287.5,198.4 L 288.0,197.3 L 288.1,197.1 L 288.0,196.7 L 287.8,196.5 L 287.5,196.4 L 286.9,196.5 L 285.8,197.1 L 285.5,197.2 L 285.2,196.5 L 284.6,196.6 L 284.5,196.4 L 284.6,195.8 L 284.8,195.6 L 284.9,195.2 L 284.6,194.8 L 284.2,194.7 L 283.9,194.9 L 283.3,195.7 L 282.6,196.3 L 282.1,196.6 L 281.7,196.4 L 281.3,196.4 L 281.2,196.5 L 280.9,196.9 L 280.9,197.1 L 280.9,197.4 L 280.9,197.7 L 280.0,198.1 L 279.7,198.4 L 279.5,198.8 L 279.6,198.9 L 279.7,199.0 L 279.1,199.8 L 278.9,200.0 L 278.5,199.8 L 278.1,200.4 L 278.0,200.7 L 277.8,201.4 L 277.7,202.3 L 277.8,202.4 L 277.7,202.7 L 277.1,203.7 L 276.7,203.7 L 276.6,203.6 L 276.1,203.1 L 275.8,203.2 L 275.0,204.3 L 275.0,204.5 L 275.3,204.6 L 275.4,204.8 L 275.1,205.1 L 274.0,205.9 L 273.5,206.7 L 273.3,207.0 L 272.6,207.0 L 272.1,207.4 L 271.6,207.5 L 270.7,208.7 L 269.6,210.5 L 269.6,210.9 L 269.4,211.2 L 268.7,211.2 L 268.4,211.6 L 267.8,212.0 L 266.9,212.3 L 266.1,213.6 L 266.1,214.6 L 265.4,215.3 L 264.4,216.3 L 262.9,218.1 L 262.8,218.4 L 263.1,218.6 L 263.7,218.5 L 263.6,218.6 L 263.3,218.8 L 262.5,219.3 L 261.6,219.2 L 260.4,220.7 L 260.3,220.8 L 260.5,221.2 L 261.6,222.5 L 261.6,223.0 L 261.4,223.1 L 260.7,222.3 L 260.4,221.8 L 260.1,221.7 L 259.8,221.6 L 259.8,221.6 L 259.8,221.5 L 259.3,221.8 L 258.0,223.1 L 257.8,223.7 L 257.5,224.8 L 257.6,225.3 L 257.7,226.2 L 258.3,227.7 L 259.1,227.9 L 259.5,227.9 L 259.5,227.9 L 259.8,227.8 L 260.7,226.9 L 260.9,226.4 L 261.3,225.9 L 261.4,225.0 L 261.4,224.6 L 261.3,224.1 L 261.1,224.2 L 260.8,224.5 L 260.5,224.4 L 260.5,224.2 L 261.1,223.7 L 261.7,223.8 L 261.8,224.2 L 262.3,224.5 L 262.6,224.4 L 263.1,224.0 L 263.3,224.0 L 263.3,224.2 L 262.7,225.0 L 262.3,225.5 L 262.3,225.7 L 262.7,225.5 L 263.3,225.1 L 263.7,225.1 L 264.0,224.7 L 264.1,224.3 L 264.4,224.1 L 265.0,223.9 L 266.0,223.3 L 267.0,222.3 L 267.3,221.7 L 267.9,220.0 L 268.0,219.9 L 268.1,221.0 L 268.3,221.2 L 268.9,221.4 L 269.4,221.4 L 270.2,220.7 L 270.4,220.3 L 270.6,220.1 L 271.3,219.6 L 271.8,219.4 L 272.1,219.2 L 272.5,218.2 L 272.9,217.6 L 273.4,217.2 L 273.8,216.9 L 274.5,215.9 L 274.7,215.5 L 274.8,215.4 L 275.1,215.5 L 275.2,216.3 L 274.9,216.9 L 275.0,217.0 L 275.6,216.4 L 276.0,216.7 L 276.1,217.1 L 276.3,217.5 L 276.1,218.2 L 275.8,218.6 L 275.3,218.9 L 274.7,219.5 L 274.6,220.0 L 274.2,220.3 L 273.6,220.5 L 272.9,221.0 L 272.2,221.2 L 271.0,222.1 L 269.8,223.1 L 269.2,223.5 L 268.4,224.2 L 268.4,224.8 L 268.6,225.3 L 268.7,225.4 L 269.4,225.8 L 269.4,226.1 L 269.1,226.6 L 268.9,226.7 L 268.6,226.5 L 268.5,226.1 L 268.1,225.6 L 268.3,225.3 L 267.8,224.9 L 267.4,224.9 L 267.0,225.2 L 265.8,226.1 L 265.0,226.7 L 264.2,227.6 L 264.0,228.0 L 263.4,228.4 L 263.6,228.6 L 263.6,229.0 L 263.4,229.3 L 261.9,229.2 L 261.6,229.7 L 261.8,230.2 L 262.0,230.8 L 261.3,231.6 L 261.3,232.2 L 261.6,232.6 L 262.2,233.0 L 262.6,232.8 L 262.7,232.7 L 262.9,233.1 L 263.2,233.4 L 264.1,233.3 L 264.5,232.7 L 265.4,232.3 L 266.0,231.5 L 266.1,231.1 L 266.4,230.8 L 267.0,230.2 L 267.7,229.5 L 268.5,228.8 L 268.7,228.9 L 268.6,229.3 L 268.3,229.8 L 268.0,230.0 L 267.6,230.1 L 267.4,230.2 L 267.6,230.9 L 267.9,231.2 L 268.6,231.2 L 269.7,230.6 L 270.9,229.8 L 271.8,229.0 L 271.9,228.6 L 271.8,228.5 L 271.5,228.4 L 270.8,228.5 L 269.7,228.8 L 269.4,228.6 L 269.1,228.5 L 268.8,228.2 L 269.4,227.3 L 270.5,226.5 L 271.1,226.4 L 271.5,226.4 L 271.6,226.7 L 271.9,226.6 L 272.3,226.2 L 272.4,225.4 L 272.3,224.5 L 272.8,223.7 L 272.5,222.8 L 273.2,221.8 L 273.4,221.7 L 274.2,221.5 L 274.9,220.8 L 275.2,220.8 L 275.6,221.5 L 275.9,221.6 L 276.6,221.7 L 276.8,221.8 L 276.9,221.9 L 276.9,222.5 L 277.1,222.7 L 277.5,222.6 L 278.0,222.1 L 278.0,222.1 L 278.4,221.6 L 278.5,221.9 L 278.6,222.0 L 279.4,221.9 L 280.1,221.5 L 280.4,221.3 L 280.8,221.1 L 281.1,221.0 L 281.6,220.4 L 282.5,218.8 L 283.0,218.2 L 283.2,218.3 L 283.4,217.9 L 283.7,217.8 L 283.8,218.3 L 283.4,218.4 L 283.2,219.0 L 282.4,220.6 L 282.2,221.4 L 281.1,222.9 L 280.3,223.6 L 279.7,224.3 L 279.7,224.8 L 279.8,225.0 L 280.1,224.9 L 280.3,224.7 L 280.6,224.6 L 281.6,224.7 L 283.2,223.1 L 283.7,222.9 L 283.9,223.0 L 283.8,223.5 L 283.4,223.8 L 282.5,224.9 L 282.4,225.1 L 282.7,225.5 L 283.1,225.8 L 283.1,226.1 L 282.2,226.7 L 281.2,227.5 L 280.7,228.0 L 280.6,228.2 L 280.1,228.7 L 279.7,228.9 L 279.0,229.6 L 279.5,230.0 L 279.8,230.2 L 280.1,230.2 L 280.5,229.9 L 280.9,229.9 L 280.9,230.1 L 280.6,230.5 L 280.0,230.6 L 279.2,230.8 L 279.0,230.5 L 278.7,230.5 L 278.0,231.0 L 277.8,231.2 L 276.8,231.3 L 276.1,231.5 L 275.1,232.1 L 274.6,232.7 L 274.4,233.3 L 274.1,233.6 L 273.8,233.7 L 273.5,233.9 L 272.9,234.7 L 272.3,234.8 L 271.8,235.0 L 270.5,236.4 L 270.4,236.6 L 270.8,236.8 L 271.2,236.7 L 271.4,236.7 L 271.5,237.1 L 271.7,237.1 L 272.4,236.7 L 273.4,236.3 L 273.6,236.1 L 273.7,235.7 L 273.9,235.2 L 273.8,234.8 L 274.3,234.2 L 274.4,234.3 L 274.1,235.4 L 274.4,235.6 L 275.3,235.4 L 276.9,234.3 L 277.7,234.2 L 278.0,234.1 L 278.4,233.9 L 278.5,233.7 L 278.0,233.6 L 278.0,233.4 L 278.3,233.2 L 279.0,232.9 L 279.4,232.7 L 280.0,232.5 L 280.5,232.0 L 280.6,231.6 L 281.0,231.4 L 281.3,231.4 L 281.6,231.6 L 282.0,231.4 L 282.5,231.0 L 283.2,230.8 L 283.7,230.3 L 284.2,230.1 L 285.0,229.5 L 285.4,229.0 L 285.9,228.7 L 286.3,228.4 L 286.4,228.1 L 287.4,227.1 L 287.8,226.4 L 288.2,226.1 L 288.4,226.1 L 288.4,226.0 L 288.4,225.6 L 289.1,224.9 L 289.4,224.5 L 290.1,223.8 L 290.7,223.2 L 291.3,223.2 L 291.4,223.1 L 292.2,222.3 L 292.3,221.7 L 293.0,221.0 L 293.8,220.3 L 294.4,220.1 L 295.1,219.7 L 295.5,219.8 L 295.7,220.1 L 296.2,220.1 L 296.8,219.8 L 297.1,219.9 L 297.4,220.2 L 297.8,219.9 L 297.8,219.4 L 298.4,218.8 L 298.7,218.3 L 299.1,218.0 L 299.3,218.1 L 299.6,218.5 L 299.9,218.6 L 300.0,218.9 L 300.2,219.1 L 300.5,219.1 L 301.1,218.4 L 301.0,218.1 L 300.7,217.8 L 300.6,217.4 L 301.4,216.4 L 301.7,216.3 L 301.8,216.3 L 302.3,216.6 L 302.5,217.1 L 302.9,217.7 L 302.7,218.0 L 302.7,218.5 L 303.0,218.7 L 303.6,218.8 L 303.7,219.3 L 303.7,219.8 L 303.4,220.2 L 303.3,220.7 L 302.8,221.1 L 301.6,221.3 L 301.3,221.6 L 301.2,224.3 L 301.4,224.5 L 302.5,225.0 L 302.9,225.4 L 303.2,225.5 L 303.5,225.8 L 303.9,225.8 L 304.3,225.4 L 304.5,224.8 L 304.6,224.2 L 304.7,223.8 L 305.1,223.4 L 305.6,223.4 L 306.1,223.5 L 306.7,223.8 L 306.8,224.9 L 306.9,225.1 L 307.0,225.1 L 307.2,226.3 L 307.2,226.4 L 307.1,226.4 L 307.1,226.7 L 307.1,226.8 L 307.1,227.4 L 306.2,228.3 L 305.7,228.7 L 303.9,228.6 L 303.4,228.8 L 303.0,229.0 L 302.2,229.6 L 301.4,229.6 L 300.7,229.8 L 299.7,230.2 L 297.9,231.9 L 297.5,232.5 L 297.0,232.9 L 296.4,233.1 L 295.0,233.1 L 294.8,232.8 L 294.5,232.3 L 294.0,232.0 L 293.5,231.9 L 292.5,232.6 L 292.0,232.6 L 291.5,232.8 L 290.9,233.4 L 291.3,233.9 L 291.2,234.0 L 290.9,234.1 L 290.6,234.4 L 290.6,234.7 L 290.1,234.7 L 289.6,234.8 L 288.7,235.3 L 287.8,236.1 L 287.3,236.2 L 286.8,236.0 L 286.6,235.8 L 286.6,235.6 L 286.8,235.4 L 286.8,235.0 L 286.6,234.8 L 286.3,234.8 L 285.0,235.0 L 283.2,236.4 L 282.0,236.9 L 281.2,237.4 L 281.0,237.6 L 279.8,238.3 L 278.4,239.1 L 278.0,239.3 L 277.7,239.4 L 277.0,240.1 L 276.9,240.5 L 276.5,240.7 L 275.5,240.8 L 275.0,241.1 L 275.1,241.2 L 276.4,241.6 L 276.5,241.8 L 276.1,242.0 L 275.3,242.1 L 274.5,242.5 L 273.8,243.0 L 272.8,243.3 L 272.4,243.6 L 271.7,244.0 L 271.2,244.1 L 270.9,243.7 L 270.3,243.7 L 269.5,243.8 L 269.1,243.9 L 268.5,244.0 L 267.4,244.6 L 266.8,244.8 L 265.9,245.4 L 265.0,246.3 L 263.0,246.9 L 262.0,247.1 L 261.2,247.5 L 260.6,248.0 L 260.2,248.0 L 259.4,248.2 L 259.2,248.4 L 258.6,249.0 L 258.6,249.1 L 258.0,249.5 L 258.0,249.8 L 258.5,250.4 L 258.5,250.4 L 258.7,250.8 L 258.9,250.9 L 259.2,250.9 L 259.6,250.4 L 259.9,250.3 L 260.2,250.4 L 260.2,250.5 L 260.2,251.2 L 259.9,251.5 L 259.7,251.4 L 259.4,251.4 L 259.3,251.7 L 259.1,251.8 L 258.5,251.6 L 258.4,251.6 L 257.9,251.5 L 256.3,251.7 L 255.2,252.1 L 254.6,252.5 L 254.2,253.1 L 253.1,254.0 L 252.8,254.5 L 252.0,255.4 L 252.0,256.2 L 252.5,256.7 L 253.7,256.8 L 253.8,257.0 L 253.6,257.3 L 252.8,257.7 L 252.4,258.2 L 252.3,258.8 L 250.7,259.7 L 249.9,259.8 L 249.4,260.1 L 248.9,261.0 L 248.8,261.0 L 186.4,269.2 L 186.3,269.0 L 186.0,268.9 L 185.7,269.1 L 185.4,270.1 L 185.2,270.1 L 185.0,269.8 L 184.9,269.6 L 184.8,269.5 L 184.5,269.5 L 184.5,269.5 L 183.1,269.9 L 161.3,276.3 L 160.7,276.3 L 160.4,276.3 L 160.2,276.6 L 160.0,276.7 L 131.1,290.8 L 131.1,290.7 L 130.5,290.1 L 130.3,290.0 L 129.9,290.3 L 129.8,291.0 L 129.5,291.9 L 129.1,292.7 L 129.1,292.8 L 102.1,307.4 L 102.1,307.4 L 101.3,307.6 L 101.0,307.8 L 101.1,308.0 L 74.3,322.7 L 73.4,323.1 L 72.5,323.7 L 72.5,323.7 L 71.4,324.7 L 71.4,325.5 L 71.4,325.5 L 71.0,325.6 L 70.2,325.8 L 70.0,325.6 L 69.5,325.6 L 69.1,326.0 L 69.1,326.0 L 58.3,328.3 L 58.1,328.1 L 57.8,328.0 L 57.6,328.1 L 57.6,328.4" fill="none" stroke="black" stroke-width="2"/>
</svg>