<?xml version="1.0" encoding="UTF-8"?>
<svg width="400" height="400" viewBox="0 0 400 400" xmlns="http://www.w3.org/2000/svg">
  <rect width="400" height="400" fill="white"/>
  <path d="M 174.0,254.3 L 173.8,254.2 L 173.6,253.9 L 173.4,253.9 L 173.1,253.3 L 172.7,252.5 L 172.1,251.5 L 171.9,251.0 L 171.9,250.5 L 171.5,249.9 L 171.2,249.9 L 171.1,249.6 L 170.8,249.2 L 170.5,249.1 L 170.0,248.3 L 169.5,247.9 L 169.1,247.1 L 168.5,247.1 L 168.0,246.7 L 167.9,246.5 L 167.6,246.0 L 167.5,246.0 L 167.4,245.8 L 167.0,245.1 L 166.2,244.1 L 165.9,243.9 L 165.9,243.8 L 165.8,243.5 L 165.8,243.3 L 165.3,242.8 L 164.3,241.8 L 164.3,241.5 L 163.9,241.1 L 163.8,240.9 L 163.7,240.8 L 163.4,240.8 L 163.2,240.4 L 163.0,239.8 L 163.2,239.3 L 163.3,239.1 L 163.4,238.9 L 163.1,238.4 L 163.0,238.1 L 162.2,237.2 L 161.7,236.8 L 161.4,236.5 L 161.1,236.3 L 161.1,235.6 L 161.4,235.7 L 161.5,235.6 L 161.5,235.5 L 161.4,235.1 L 161.2,234.5 L 161.0,234.5 L 160.8,234.9 L 160.7,235.0 L 160.4,234.8 L 160.5,234.5 L 160.7,234.2 L 160.4,233.2 L 159.5,232.2 L 159.5,231.9 L 159.5,231.2 L 159.2,230.8 L 159.0,230.8 L 158.8,231.0 L 158.2,230.7 L 157.1,229.3 L 156.6,228.0 L 156.5,227.9 L 156.5,227.8 L 156.5,227.8 L 156.1,226.6 L 155.2,225.5 L 155.1,225.3 L 154.9,225.1 L 154.8,224.2 L 154.1,222.5 L 153.9,221.8 L 153.6,221.3 L 153.5,220.8 L 153.2,220.6 L 153.0,220.4 L 152.8,219.8 L 152.5,219.5 L 152.2,219.3 L 151.9,219.0 L 151.9,218.8 L 151.3,218.1 L 151.1,218.2 L 150.8,218.2 L 150.3,218.0 L 149.7,217.2 L 149.3,216.6 L 148.9,215.4 L 148.6,215.4 L 148.5,215.2 L 148.2,214.5 L 148.0,214.2 L 147.8,214.2 L 147.5,213.9 L 147.3,213.4 L 146.9,212.9 L 146.6,212.7 L 146.4,212.5 L 146.2,211.9 L 145.8,211.6 L 145.4,211.2 L 145.2,210.8 L 144.9,210.5 L 144.6,209.9 L 144.3,209.4 L 143.8,209.3 L 143.6,209.1 L 143.5,208.7 L 142.7,207.9 L 142.4,207.7 L 142.3,207.7 L 141.8,207.2 L 140.5,206.5 L 140.6,205.5 L 139.9,204.1 L 139.4,203.9 L 139.3,203.7 L 139.3,203.5 L 139.6,203.2 L 139.5,203.0 L 139.4,202.7 L 139.2,202.2 L 138.9,201.6 L 138.7,201.3 L 138.9,201.0 L 138.8,200.8 L 138.5,200.0 L 138.3,199.5 L 137.8,198.9 L 137.7,198.3 L 137.4,198.0 L 137.5,197.6 L 137.2,197.1 L 136.9,196.8 L 136.8,196.5 L 136.8,196.2 L 136.4,195.6 L 136.0,195.2 L 135.6,195.2 L 135.4,195.0 L 135.1,194.5 L 134.0,193.1 L 133.6,193.0 L 132.8,192.2 L 132.6,192.0 L 132.2,191.8 L 131.6,191.3 L 131.2,191.2 L 131.0,191.2 L 130.7,191.0 L 130.4,190.6 L 130.2,190.5 L 130.0,190.0 L 129.8,189.6 L 129.8,189.4 L 129.5,188.9 L 129.2,188.9 L 128.9,189.0 L 128.4,188.5 L 127.9,188.3 L 127.4,187.9 L 127.3,187.7 L 127.0,187.2 L 126.8,187.0 L 126.7,186.9 L 126.5,187.1 L 126.4,187.4 L 126.5,187.6 L 126.4,187.7 L 126.4,187.7 L 126.3,188.2 L 126.1,188.2 L 125.9,188.4 L 125.9,188.8 L 125.9,189.0 L 125.2,189.2 L 124.8,189.5 L 124.4,189.5 L 124.1,189.4 L 123.9,189.1 L 123.6,188.7 L 123.5,188.5 L 123.3,188.1 L 123.0,187.7 L 123.0,187.7 L 122.6,187.3 L 122.4,186.8 L 121.5,185.9 L 120.5,185.3 L 120.1,184.9 L 120.2,184.6 L 120.0,184.4 L 119.8,184.3 L 119.5,183.7 L 119.5,183.6 L 119.3,183.4 L 119.2,182.5 L 118.9,182.1 L 118.2,181.2 L 118.1,181.1 L 117.9,180.9 L 117.7,180.8 L 117.3,180.9 L 117.0,180.6 L 116.5,180.0 L 115.8,179.4 L 115.6,179.4 L 115.4,179.1 L 115.0,178.6 L 114.8,178.6 L 114.6,178.8 L 114.4,178.6 L 114.3,178.4 L 114.4,177.8 L 114.3,177.5 L 113.9,177.1 L 113.8,176.6 L 113.3,175.9 L 113.2,175.9 L 112.8,175.4 L 112.4,175.3 L 112.0,175.4 L 111.8,175.6 L 111.0,176.0 L 111.2,175.5 L 111.4,175.0 L 111.5,174.6 L 112.1,173.8 L 112.3,173.3 L 112.4,173.1 L 112.3,172.3 L 112.2,171.8 L 112.2,171.5 L 112.2,170.8 L 112.0,170.4 L 111.6,169.9 L 110.5,169.2 L 110.7,168.7 L 110.5,168.7 L 110.1,168.5 L 109.1,168.4 L 108.6,168.9 L 108.2,169.1 L 107.8,169.1 L 107.0,168.9 L 106.1,168.8 L 105.7,168.7 L 105.5,168.3 L 105.3,168.1 L 105.0,168.0 L 104.8,168.2 L 104.5,168.1 L 104.1,167.8 L 104.1,167.1 L 103.8,166.7 L 102.6,165.4 L 102.3,164.6 L 101.8,164.3 L 101.7,164.2 L 101.2,163.1 L 101.1,162.7 L 100.7,162.1 L 100.6,161.9 L 100.6,161.4 L 100.4,161.1 L 100.4,161.0 L 100.3,160.8 L 99.8,160.3 L 99.5,160.3 L 99.4,160.4 L 99.3,160.9 L 99.2,161.0 L 98.5,161.1 L 98.3,161.3 L 98.4,161.5 L 98.1,161.7 L 97.5,161.8 L 97.3,162.0 L 97.2,162.4 L 96.8,162.7 L 96.6,162.8 L 96.4,162.4 L 96.0,162.2 L 96.0,161.2 L 95.9,161.0 L 95.9,160.3 L 95.0,159.7 L 94.8,159.5 L 94.2,159.4 L 93.8,159.0 L 93.1,157.5 L 93.0,157.4 L 93.0,157.1 L 92.6,156.2 L 92.5,155.6 L 92.2,155.1 L 92.1,154.8 L 92.3,154.3 L 92.4,153.9 L 93.0,153.1 L 93.0,152.8 L 93.7,152.6 L 94.1,152.5 L 94.3,152.2 L 94.2,151.8 L 93.4,151.2 L 93.5,150.8 L 93.9,150.4 L 94.3,150.2 L 94.6,149.9 L 94.7,149.5 L 94.6,149.3 L 94.5,149.0 L 94.5,148.7 L 94.4,148.6 L 94.5,148.1 L 94.6,147.5 L 94.7,146.5 L 94.5,146.1 L 94.5,145.5 L 94.7,145.3 L 94.9,145.2 L 95.0,144.9 L 95.0,144.7 L 94.7,144.5 L 94.3,144.7 L 94.2,144.6 L 94.1,144.2 L 94.3,143.7 L 94.1,143.6 L 93.8,142.9 L 93.7,142.6 L 93.5,142.5 L 93.3,142.8 L 93.1,142.9 L 92.7,142.5 L 92.5,142.2 L 92.3,141.9 L 92.2,141.4 L 92.4,140.1 L 92.5,139.9 L 92.8,139.2 L 93.1,138.9 L 93.5,138.9 L 93.9,138.4 L 94.0,138.1 L 94.4,137.6 L 94.4,137.2 L 94.5,137.0 L 94.4,136.6 L 94.2,136.4 L 94.2,136.1 L 94.4,135.6 L 94.3,133.7 L 94.2,133.3 L 94.2,132.9 L 94.0,132.5 L 93.3,131.8 L 93.1,131.7 L 92.7,131.7 L 92.3,131.9 L 91.8,131.7 L 91.6,131.2 L 91.6,130.8 L 91.4,130.1 L 91.3,129.3 L 90.7,128.1 L 90.4,127.4 L 89.9,126.3 L 89.6,126.1 L 89.2,126.0 L 88.8,125.5 L 88.6,124.9 L 88.6,122.1 L 88.9,121.6 L 89.4,121.0 L 90.2,120.3 L 90.4,120.1 L 90.5,119.7 L 90.7,119.5 L 91.1,119.3 L 91.2,119.0 L 91.1,118.8 L 90.6,118.7 L 90.3,118.4 L 90.2,118.1 L 90.3,117.8 L 90.6,117.4 L 90.8,117.3 L 90.8,116.5 L 90.3,116.2 L 90.2,116.0 L 91.1,114.9 L 91.4,114.5 L 91.7,114.3 L 91.6,113.8 L 91.9,113.5 L 92.2,113.5 L 92.6,113.3 L 92.7,113.0 L 92.7,112.6 L 92.8,112.1 L 92.6,111.5 L 92.7,111.1 L 92.7,110.9 L 92.8,109.6 L 92.9,109.3 L 92.9,108.6 L 92.8,108.2 L 93.0,107.6 L 92.8,106.7 L 92.9,105.5 L 93.2,104.5 L 93.7,103.8 L 93.8,103.2 L 94.0,103.0 L 94.2,102.3 L 94.1,101.9 L 94.0,101.7 L 94.0,100.3 L 93.9,99.7 L 93.9,99.1 L 94.1,98.4 L 94.3,97.7 L 94.4,97.2 L 94.5,96.7 L 94.8,95.9 L 95.4,95.3 L 95.7,94.6 L 95.8,94.0 L 95.8,92.4 L 95.6,92.0 L 95.6,91.9 L 95.2,91.5 L 94.9,91.2 L 94.9,91.0 L 94.9,89.8 L 94.8,89.4 L 94.7,88.9 L 94.6,88.3 L 94.7,87.8 L 94.7,87.5 L 94.6,86.9 L 94.3,86.1 L 94.0,85.8 L 93.5,85.5 L 92.8,84.2 L 92.3,83.2 L 92.2,83.1 L 92.0,83.3 L 91.8,83.6 L 91.7,83.6 L 91.3,83.5 L 91.1,83.7 L 90.9,84.3 L 90.5,84.7 L 90.0,84.7 L 89.1,84.6 L 88.3,84.2 L 87.1,83.5 L 86.6,82.9 L 86.2,82.4 L 85.9,81.3 L 85.4,79.9 L 85.3,79.5 L 85.3,79.2 L 84.7,79.1 L 84.5,78.9 L 84.4,78.5 L 83.7,78.0 L 83.0,77.0 L 82.7,76.7 L 82.6,76.3 L 82.6,75.4 L 82.5,75.2 L 82.3,75.2 L 81.9,75.2 L 81.1,75.3 L 80.3,75.9 L 79.9,76.6 L 79.3,77.1 L 79.1,77.7 L 78.8,78.0 L 78.6,78.1 L 78.4,78.1 L 78.2,77.9 L 78.3,76.7 L 78.5,76.2 L 78.6,75.9 L 78.8,75.5 L 78.8,75.1 L 79.3,74.8 L 79.3,74.5 L 78.9,74.5 L 78.3,75.0 L 77.8,74.7 L 77.8,74.4 L 77.8,73.9 L 77.6,73.4 L 77.6,72.6 L 77.3,72.1 L 76.8,71.6 L 76.7,71.3 L 76.6,70.5 L 76.6,70.4 L 76.4,70.0 L 75.8,69.3 L 75.5,69.1 L 74.8,68.8 L 73.9,68.4 L 73.7,68.2 L 73.7,67.5 L 73.4,67.2 L 124.1,40.3 L 124.2,40.3 L 124.3,40.4 L 124.5,40.4 L 125.2,40.0 L 125.6,40.0 L 125.9,40.1 L 126.5,40.7 L 126.8,41.5 L 126.8,42.2 L 126.8,42.2 L 126.7,43.0 L 126.8,44.0 L 127.0,44.5 L 127.1,44.9 L 126.8,45.4 L 126.7,45.9 L 126.8,46.2 L 127.1,46.5 L 127.4,46.9 L 127.5,47.3 L 127.3,47.5 L 127.2,47.9 L 127.5,48.5 L 127.7,48.8 L 128.0,49.0 L 128.4,49.1 L 129.2,49.6 L 129.8,50.2 L 130.1,50.8 L 130.3,51.8 L 130.3,52.1 L 130.2,52.5 L 129.3,53.5 L 129.1,54.1 L 128.8,54.8 L 128.4,55.2 L 128.5,56.3 L 128.3,56.7 L 128.2,56.8 L 128.1,57.0 L 128.2,57.9 L 128.3,58.0 L 128.5,58.0 L 128.7,58.3 L 129.5,60.2 L 129.5,60.6 L 129.8,61.8 L 130.0,62.5 L 130.1,62.9 L 130.1,63.9 L 130.0,64.4 L 129.8,64.9 L 129.7,65.5 L 129.8,65.7 L 130.0,66.0 L 130.3,66.9 L 130.6,67.4 L 130.5,68.7 L 130.6,69.1 L 130.7,69.4 L 130.0,70.1 L 130.0,71.3 L 129.7,71.7 L 129.5,71.9 L 129.3,72.4 L 129.4,72.9 L 129.5,73.5 L 129.7,73.7 L 129.7,74.3 L 130.0,74.3 L 130.4,74.6 L 131.3,75.6 L 131.9,76.8 L 132.0,77.3 L 132.0,78.0 L 131.9,78.8 L 131.5,79.5 L 131.5,79.9 L 131.9,80.6 L 132.2,80.7 L 133.4,81.6 L 134.1,82.2 L 134.8,82.4 L 135.2,82.5 L 135.8,82.6 L 136.3,82.3 L 136.7,82.4 L 137.2,83.0 L 137.2,84.2 L 137.3,84.7 L 137.4,85.5 L 137.6,85.9 L 138.3,86.7 L 138.9,86.8 L 139.4,87.1 L 139.9,87.2 L 140.2,87.4 L 141.3,87.8 L 142.0,87.6 L 143.4,87.9 L 143.4,88.6 L 143.5,88.7 L 143.5,88.7 L 143.9,88.3 L 144.0,88.1 L 144.0,87.7 L 143.8,87.4 L 143.8,87.3 L 144.1,86.9 L 144.2,86.6 L 144.8,85.7 L 145.1,85.6 L 145.9,85.4 L 146.6,84.8 L 147.0,84.3 L 147.1,84.1 L 147.6,83.3 L 148.1,82.8 L 148.8,81.3 L 149.7,79.7 L 150.1,79.4 L 150.7,79.2 L 151.7,78.5 L 152.0,78.2 L 152.2,77.8 L 152.3,77.1 L 152.1,76.8 L 152.1,76.5 L 152.6,75.5 L 153.9,74.0 L 155.1,73.8 L 155.5,73.6 L 155.7,73.4 L 156.2,72.2 L 156.6,71.8 L 156.7,71.8 L 157.4,71.2 L 158.0,70.8 L 158.3,70.6 L 159.1,70.3 L 160.3,69.6 L 160.6,69.3 L 160.9,68.7 L 161.6,67.6 L 161.8,67.5 L 162.4,67.2 L 162.7,66.9 L 163.3,66.9 L 164.9,67.5 L 165.3,67.9 L 165.5,68.2 L 165.6,68.7 L 165.8,68.9 L 166.0,68.8 L 166.2,68.6 L 166.2,68.1 L 166.1,67.2 L 166.2,66.9 L 166.6,66.4 L 167.0,66.3 L 167.5,66.4 L 167.5,66.4 L 166.8,66.5 L 166.5,66.9 L 166.4,67.4 L 166.6,67.7 L 166.6,68.6 L 166.5,69.0 L 165.7,69.3 L 164.4,69.3 L 164.1,69.2 L 164.1,68.9 L 163.9,68.9 L 163.6,69.1 L 163.1,69.9 L 162.2,71.1 L 161.7,71.9 L 161.5,72.8 L 161.7,74.4 L 161.8,74.9 L 161.9,75.1 L 161.7,75.7 L 161.2,76.4 L 160.9,77.1 L 160.7,78.2 L 160.6,78.5 L 159.9,78.9 L 159.3,79.6 L 159.0,80.3 L 158.6,80.1 L 158.0,80.4 L 157.5,80.3 L 157.2,80.7 L 157.1,81.1 L 156.6,81.6 L 155.8,81.8 L 155.3,82.1 L 154.8,82.5 L 154.4,83.0 L 154.4,83.4 L 153.9,84.5 L 153.3,85.1 L 153.3,85.4 L 153.4,85.6 L 153.3,85.9 L 153.4,86.5 L 153.7,87.1 L 153.9,87.5 L 153.8,88.3 L 153.4,89.1 L 153.4,89.6 L 153.3,89.8 L 153.2,90.9 L 153.0,91.4 L 152.7,92.0 L 152.2,92.6 L 151.8,92.7 L 151.4,93.2 L 151.3,93.7 L 150.7,94.7 L 150.5,94.9 L 150.1,95.1 L 149.6,95.0 L 148.8,95.6 L 148.1,96.0 L 147.8,95.9 L 146.8,96.3 L 146.2,96.7 L 146.2,97.1 L 145.7,98.0 L 145.6,98.3 L 145.3,98.5 L 143.9,99.0 L 143.5,99.0 L 143.1,99.0 L 141.9,98.8 L 141.6,99.0 L 141.5,99.3 L 141.1,99.9 L 140.9,100.3 L 140.6,100.6 L 139.6,101.2 L 139.3,101.3 L 139.0,101.0 L 138.7,101.0 L 138.6,101.1 L 138.6,101.3 L 138.4,101.7 L 138.3,102.5 L 138.2,102.7 L 138.1,103.2 L 137.9,103.6 L 137.8,103.9 L 137.3,105.2 L 137.0,105.8 L 136.5,106.2 L 136.4,106.4 L 135.8,106.8 L 135.3,106.8 L 135.1,106.9 L 135.1,107.3 L 135.3,107.6 L 135.3,108.4 L 135.3,108.5 L 135.7,109.1 L 135.6,110.2 L 135.7,111.0 L 136.2,111.6 L 136.1,112.2 L 136.2,112.6 L 136.5,113.1 L 136.7,113.2 L 137.2,113.7 L 137.5,113.8 L 137.9,113.6 L 138.2,113.6 L 138.3,113.8 L 138.4,114.8 L 137.9,116.3 L 137.8,117.1 L 137.7,117.6 L 137.9,118.7 L 138.1,119.6 L 138.4,120.1 L 138.6,120.3 L 138.7,120.6 L 139.0,121.1 L 138.7,122.3 L 138.5,123.2 L 138.1,123.9 L 138.0,124.7 L 138.1,125.1 L 138.6,126.2 L 138.6,127.6 L 138.6,128.1 L 138.4,128.8 L 138.6,129.1 L 138.7,129.4 L 138.5,130.0 L 138.4,130.9 L 138.4,132.1 L 138.6,132.6 L 138.6,132.8 L 138.7,133.3 L 139.0,134.6 L 139.3,136.5 L 139.7,138.1 L 140.0,138.9 L 140.4,139.9 L 140.5,140.5 L 141.0,141.7 L 141.4,142.3 L 141.5,142.6 L 142.1,143.4 L 142.1,143.4 L 142.5,143.6 L 142.8,144.0 L 142.9,144.4 L 144.8,146.3 L 145.6,146.9 L 145.7,147.4 L 145.9,147.5 L 145.8,147.6 L 145.1,148.7 L 145.1,149.6 L 144.8,150.1 L 144.5,150.2 L 144.4,150.5 L 144.0,150.7 L 143.8,150.9 L 143.7,151.7 L 144.0,152.1 L 144.1,152.8 L 144.1,152.9 L 144.2,153.6 L 144.4,154.2 L 144.8,154.7 L 145.6,155.9 L 146.3,157.0 L 146.8,157.6 L 146.8,157.9 L 147.5,159.0 L 147.7,159.8 L 149.3,161.4 L 149.4,161.6 L 149.9,161.7 L 150.3,162.2 L 150.8,162.3 L 151.0,162.4 L 151.7,163.0 L 151.9,163.1 L 152.3,163.1 L 153.0,163.3 L 153.5,163.7 L 155.2,163.8 L 156.0,164.0 L 157.7,164.3 L 158.2,164.5 L 159.0,165.4 L 159.3,166.0 L 159.6,166.4 L 160.5,167.0 L 160.6,167.2 L 160.6,168.1 L 160.7,168.7 L 160.9,169.3 L 160.8,169.9 L 160.9,170.2 L 161.0,170.6 L 161.0,171.2 L 160.9,171.5 L 160.8,171.9 L 160.9,172.6 L 161.2,173.1 L 161.4,173.3 L 161.7,173.8 L 162.1,174.1 L 162.6,174.5 L 163.2,174.8 L 163.9,175.4 L 164.7,176.3 L 164.9,176.5 L 165.4,177.6 L 165.9,178.1 L 165.9,178.1 L 167.8,179.8 L 168.4,180.2 L 169.4,180.8 L 170.5,181.3 L 170.9,181.3 L 171.0,181.4 L 171.2,181.8 L 171.4,182.0 L 172.4,182.7 L 172.9,183.3 L 173.2,183.6 L 173.8,183.7 L 176.6,185.4 L 177.7,185.7 L 178.2,185.6 L 179.0,185.9 L 179.5,185.8 L 180.3,185.6 L 189.1,191.6 L 189.1,191.7 L 189.1,191.7 L 188.7,192.3 L 188.5,193.1 L 188.4,194.3 L 188.6,194.8 L 188.8,195.5 L 189.2,196.8 L 189.2,197.4 L 189.4,197.7 L 190.3,198.9 L 190.4,199.2 L 190.5,199.6 L 190.7,200.1 L 191.2,200.6 L 191.4,201.0 L 191.6,201.2 L 192.2,201.4 L 193.2,202.1 L 194.0,202.4 L 194.4,202.7 L 194.7,203.1 L 195.9,203.6 L 196.9,203.7 L 197.4,203.6 L 197.9,204.1 L 198.3,204.2 L 199.0,204.8 L 199.4,204.8 L 199.7,205.1 L 199.8,205.4 L 200.5,206.1 L 201.4,207.2 L 201.7,207.2 L 202.1,207.4 L 202.7,207.6 L 202.9,207.7 L 203.1,207.6 L 204.0,207.9 L 204.1,208.1 L 204.3,208.4 L 204.4,209.0 L 204.6,209.1 L 205.2,209.1 L 205.5,209.6 L 205.7,209.6 L 205.8,209.6 L 206.4,209.6 L 206.5,209.9 L 206.8,209.9 L 207.0,210.2 L 207.2,210.2 L 207.5,209.9 L 207.7,209.9 L 207.9,210.1 L 208.2,210.7 L 208.6,211.1 L 208.8,211.4 L 209.1,211.6 L 209.7,211.5 L 210.3,211.5 L 210.6,211.6 L 210.9,212.4 L 211.6,213.6 L 211.9,213.8 L 212.4,214.1 L 213.8,214.5 L 214.3,214.6 L 214.6,214.9 L 214.9,214.9 L 215.8,214.5 L 216.1,214.2 L 217.0,214.3 L 217.2,214.4 L 217.3,214.6 L 217.8,214.9 L 218.1,214.7 L 218.4,214.6 L 219.0,214.6 L 219.2,214.7 L 219.7,214.4 L 220.4,214.6 L 220.7,214.5 L 221.0,214.3 L 221.7,214.2 L 222.2,214.0 L 223.0,213.9 L 223.3,213.7 L 223.5,213.5 L 224.4,212.8 L 224.8,212.7 L 225.0,212.5 L 225.7,211.5 L 226.4,211.0 L 227.1,210.2 L 227.4,209.8 L 227.9,209.2 L 228.6,208.8 L 228.9,208.7 L 229.0,208.6 L 229.3,208.5 L 229.7,208.2 L 229.8,208.0 L 230.4,207.8 L 231.0,207.3 L 231.2,207.2 L 231.5,207.1 L 232.0,206.6 L 232.6,206.1 L 233.2,205.7 L 233.5,205.7 L 234.3,205.3 L 235.2,205.1 L 235.8,204.6 L 236.4,204.4 L 237.0,204.4 L 255.5,217.5 L 255.0,218.3 L 255.1,218.6 L 255.0,219.0 L 255.1,219.3 L 255.5,219.6 L 256.2,219.6 L 256.3,219.7 L 256.4,220.0 L 256.5,220.2 L 257.0,220.9 L 257.6,220.4 L 258.3,220.4 L 258.7,220.5 L 258.8,220.7 L 259.3,221.3 L 259.5,221.6 L 259.8,221.8 L 260.0,221.7 L 260.2,221.4 L 260.5,221.4 L 260.8,221.5 L 261.6,222.3 L 261.9,222.5 L 262.2,223.3 L 262.3,224.0 L 262.5,224.2 L 262.7,224.2 L 263.1,223.9 L 263.3,223.9 L 263.8,224.3 L 264.1,224.6 L 264.7,225.6 L 265.3,225.9 L 265.5,226.4 L 266.1,227.0 L 266.3,227.5 L 266.6,228.2 L 267.4,229.0 L 267.7,230.1 L 268.0,231.0 L 268.2,231.6 L 268.4,231.9 L 268.8,232.1 L 268.8,232.3 L 268.8,232.3 L 269.4,233.1 L 269.5,233.7 L 269.6,233.9 L 270.0,234.3 L 270.2,234.6 L 270.6,235.5 L 270.6,235.6 L 271.4,237.4 L 271.7,238.0 L 272.0,238.8 L 272.6,240.1 L 272.8,240.7 L 273.3,241.7 L 273.4,242.8 L 274.4,245.1 L 274.6,245.7 L 274.9,246.3 L 275.9,248.6 L 276.3,249.3 L 276.5,250.3 L 277.1,251.4 L 277.0,252.6 L 277.1,253.3 L 277.5,254.1 L 277.7,255.0 L 278.5,257.7 L 278.8,258.2 L 279.0,259.1 L 279.0,259.7 L 279.1,260.0 L 279.0,260.5 L 278.9,261.2 L 278.6,261.8 L 278.1,261.8 L 277.9,262.1 L 278.0,262.4 L 277.9,262.6 L 277.8,262.7 L 277.6,263.0 L 277.5,263.5 L 277.4,263.8 L 277.4,263.9 L 277.3,264.1 L 277.6,264.6 L 277.6,265.2 L 277.8,265.7 L 278.2,266.2 L 278.9,266.2 L 279.0,266.3 L 278.9,266.7 L 278.2,267.2 L 278.0,267.7 L 278.0,268.2 L 278.6,269.2 L 279.1,269.7 L 279.9,270.2 L 280.7,271.3 L 281.1,272.0 L 281.4,272.1 L 282.1,273.1 L 282.2,273.4 L 282.6,274.2 L 284.4,276.8 L 284.7,277.2 L 285.2,278.0 L 285.3,278.0 L 285.5,278.0 L 285.5,277.9 L 285.6,278.0 L 285.8,278.3 L 286.4,278.6 L 286.4,278.6 L 290.9,291.1 L 290.9,291.2 L 290.9,291.2 L 291.4,292.7 L 291.3,292.8 L 291.1,292.8 L 291.3,293.2 L 291.9,295.0 L 292.0,295.2 L 292.1,295.4 L 292.3,295.8 L 293.3,297.5 L 293.8,298.1 L 294.0,298.1 L 294.2,298.4 L 294.8,299.1 L 295.1,299.0 L 295.2,299.1 L 295.4,299.1 L 295.8,299.0 L 296.0,299.2 L 296.3,299.9 L 296.9,300.5 L 297.1,300.9 L 297.5,301.1 L 297.8,301.7 L 298.2,301.9 L 299.1,303.0 L 299.2,303.2 L 299.6,303.7 L 300.7,305.9 L 301.1,306.4 L 301.3,306.6 L 301.5,306.4 L 301.6,306.5 L 301.6,307.2 L 301.4,307.3 L 301.2,307.2 L 301.0,307.1 L 300.9,307.2 L 301.3,307.8 L 302.0,308.5 L 302.4,308.8 L 303.0,309.7 L 304.0,310.8 L 304.5,310.9 L 304.4,311.2 L 304.8,311.9 L 305.3,312.5 L 305.7,312.7 L 306.0,313.0 L 306.2,313.0 L 306.5,313.4 L 307.0,313.6 L 307.5,314.2 L 307.8,314.2 L 308.3,314.0 L 308.8,314.0 L 309.1,313.9 L 309.4,313.9 L 309.4,314.0 L 310.0,314.5 L 310.2,314.5 L 310.4,314.3 L 310.8,314.5 L 311.1,314.5 L 311.4,314.5 L 312.1,314.5 L 312.6,314.7 L 313.6,314.8 L 313.8,314.9 L 314.9,314.6 L 315.6,314.4 L 315.8,314.2 L 316.0,314.2 L 316.2,314.3 L 316.5,314.5 L 316.8,314.6 L 317.2,314.5 L 318.2,314.7 L 319.0,314.7 L 320.4,314.6 L 323.0,326.8 L 322.6,327.0 L 321.5,327.7 L 321.2,328.2 L 321.1,328.7 L 321.5,329.1 L 321.9,329.2 L 322.1,329.6 L 322.3,330.1 L 322.1,330.6 L 322.1,331.2 L 322.1,331.4 L 321.8,331.8 L 321.7,332.3 L 321.5,332.6 L 321.2,333.2 L 321.1,334.0 L 320.9,334.3 L 320.8,334.7 L 320.8,336.7 L 321.0,336.8 L 320.9,337.1 L 320.6,337.6 L 320.6,338.3 L 320.4,338.3 L 320.4,338.4 L 320.4,339.1 L 320.8,339.6 L 321.0,340.0 L 321.4,340.4 L 322.1,341.6 L 322.1,342.5 L 321.7,344.3 L 322.0,345.3 L 322.4,346.0 L 323.7,347.5 L 324.8,348.4 L 326.4,350.2 L 326.6,350.6 L 326.6,350.7 L 326.6,351.3 L 326.4,352.0 L 325.9,352.8 L 324.9,354.1 L 323.8,355.1 L 321.9,356.4 L 321.5,356.7 L 321.3,356.9 L 320.4,357.5 L 320.0,357.5 L 319.8,357.6 L 319.7,357.7 L 319.5,357.8 L 319.3,358.0 L 319.5,358.2 L 319.4,358.4 L 318.9,358.8 L 318.6,358.9 L 318.3,359.2 L 318.0,359.1 L 317.7,359.4 L 317.5,359.7 L 317.3,360.0 L 317.0,360.0 L 316.6,359.8 L 316.6,359.5 L 316.2,359.4 L 315.9,359.7 L 315.6,359.8 L 315.4,359.6 L 315.2,359.5 L 315.1,359.3 L 314.9,359.1 L 314.7,359.2 L 314.6,359.0 L 314.7,358.6 L 314.9,358.3 L 314.9,358.0 L 314.6,357.7 L 314.6,357.5 L 314.5,357.3 L 314.3,356.9 L 314.4,356.7 L 314.7,356.9 L 314.7,356.6 L 314.5,355.8 L 314.2,355.3 L 313.8,355.0 L 313.5,354.9 L 313.3,354.6 L 313.2,354.1 L 313.1,354.0 L 313.0,353.5 L 312.6,353.1 L 312.1,353.3 L 312.0,353.2 L 311.9,352.9 L 311.8,351.0 L 312.0,350.9 L 311.8,350.5 L 311.5,350.2 L 311.3,349.8 L 311.0,349.7 L 310.9,349.1 L 310.0,348.5 L 309.5,348.2 L 309.4,348.2 L 309.0,347.7 L 308.8,347.5 L 308.6,347.6 L 308.4,347.5 L 308.2,347.1 L 307.5,347.1 L 307.3,347.2 L 306.9,347.8 L 306.8,348.1 L 306.5,348.1 L 306.3,347.9 L 306.0,348.0 L 305.9,348.1 L 306.0,348.4 L 305.9,348.7 L 305.9,349.0 L 305.9,349.2 L 305.8,349.7 L 305.7,350.4 L 305.7,350.7 L 306.0,350.9 L 306.6,351.9 L 306.6,352.3 L 307.6,353.9 L 307.7,355.2 L 307.8,355.9 L 307.7,356.2 L 307.4,356.5 L 307.1,356.6 L 306.9,356.3 L 306.4,355.2 L 306.2,354.5 L 305.3,352.3 L 305.0,351.4 L 304.7,351.0 L 304.3,350.5 L 304.2,350.2 L 303.9,349.5 L 303.9,349.2 L 303.6,348.9 L 303.6,348.4 L 303.5,348.2 L 303.6,348.0 L 303.3,347.7 L 302.8,347.6 L 302.7,347.7 L 302.6,348.1 L 302.8,348.4 L 302.8,348.7 L 302.6,348.7 L 302.2,348.4 L 301.8,348.2 L 301.6,348.1 L 301.4,347.9 L 301.2,348.0 L 300.8,347.6 L 300.5,347.6 L 300.3,347.8 L 300.0,347.8 L 299.8,347.4 L 299.4,347.4 L 299.3,347.5 L 299.2,347.5 L 299.0,347.3 L 298.8,347.3 L 298.6,346.9 L 298.3,346.9 L 298.1,346.8 L 297.6,345.6 L 297.5,344.9 L 297.1,344.6 L 296.9,344.5 L 296.8,344.8 L 297.0,345.8 L 296.9,345.9 L 296.9,346.7 L 296.4,347.3 L 296.4,347.8 L 296.5,348.2 L 296.6,348.5 L 296.3,348.7 L 296.3,348.9 L 296.8,349.8 L 297.0,350.8 L 297.0,351.1 L 296.2,349.6 L 295.8,349.0 L 295.8,348.8 L 295.6,348.5 L 295.5,348.1 L 295.4,347.9 L 295.4,347.8 L 295.1,347.7 L 295.0,348.0 L 295.4,349.3 L 295.3,349.4 L 293.1,350.8 L 293.1,350.7 L 293.1,350.3 L 292.8,350.1 L 292.1,350.1 L 291.6,349.0 L 291.3,348.7 L 291.4,348.3 L 291.5,348.0 L 291.4,347.9 L 291.3,347.7 L 291.2,347.5 L 291.0,347.4 L 290.9,347.0 L 290.3,347.0 L 290.2,346.9 L 290.3,346.7 L 290.4,346.5 L 290.3,345.9 L 290.5,345.3 L 290.4,344.9 L 290.1,344.7 L 289.7,344.5 L 289.2,344.3 L 289.0,343.9 L 289.0,343.6 L 288.7,343.5 L 287.7,343.1 L 286.6,343.0 L 286.7,342.6 L 286.6,341.8 L 286.4,341.4 L 286.4,341.3 L 285.7,340.8 L 285.7,340.5 L 285.4,340.5 L 285.0,340.7 L 284.8,340.8 L 284.6,340.8 L 284.6,340.3 L 284.4,340.2 L 283.9,340.0 L 284.2,339.7 L 284.0,339.4 L 283.6,339.1 L 283.4,338.7 L 283.1,338.6 L 282.9,338.3 L 282.9,338.0 L 283.0,337.8 L 282.8,337.5 L 282.6,337.5 L 282.5,336.9 L 281.9,336.4 L 281.6,336.4 L 280.7,335.6 L 279.9,335.8 L 279.6,336.3 L 279.3,336.4 L 278.9,336.9 L 279.0,337.6 L 278.9,338.3 L 279.1,338.7 L 279.1,338.8 L 278.7,338.7 L 278.5,338.9 L 278.4,340.0 L 278.3,340.2 L 278.2,340.2 L 277.7,339.7 L 277.5,339.6 L 277.3,339.4 L 277.4,339.0 L 277.4,338.8 L 277.2,338.7 L 277.1,338.6 L 277.0,338.4 L 276.8,338.1 L 276.4,338.1 L 276.3,337.4 L 276.2,337.1 L 276.1,336.8 L 275.6,336.1 L 275.3,335.9 L 275.2,335.4 L 274.8,335.1 L 274.4,335.0 L 274.2,334.8 L 273.6,334.6 L 273.5,334.4 L 273.3,334.2 L 273.0,334.1 L 272.8,334.1 L 272.9,333.8 L 272.6,333.6 L 272.4,333.8 L 271.2,333.7 L 270.8,333.5 L 270.6,333.5 L 270.3,333.6 L 270.0,333.7 L 270.0,333.7 L 270.0,333.7 L 270.7,330.3 L 270.7,330.3 L 270.9,330.2 L 270.9,329.9 L 271.2,329.7 L 271.5,329.5 L 271.5,329.3 L 271.1,329.1 L 271.1,328.6 L 270.9,328.5 L 271.0,327.9 L 270.8,327.6 L 270.8,327.4 L 270.6,326.7 L 270.7,326.5 L 271.0,326.5 L 271.0,326.3 L 270.6,326.2 L 270.6,325.7 L 271.0,325.0 L 271.7,324.4 L 271.7,324.2 L 271.5,324.0 L 271.3,323.8 L 271.1,323.9 L 270.7,323.9 L 270.6,324.0 L 270.4,324.1 L 270.3,324.0 L 270.1,324.1 L 269.8,324.2 L 269.6,324.0 L 269.4,324.1 L 269.4,323.8 L 269.1,322.6 L 268.8,322.1 L 268.5,320.7 L 268.4,320.6 L 268.1,320.8 L 267.9,321.1 L 267.5,321.0 L 267.3,320.9 L 267.3,320.7 L 267.2,320.5 L 267.2,320.1 L 267.2,319.9 L 266.9,319.9 L 266.9,320.0 L 266.1,320.7 L 265.9,321.2 L 265.9,321.6 L 265.8,322.1 L 265.8,322.7 L 265.9,323.0 L 266.0,324.6 L 266.2,325.1 L 266.3,325.4 L 266.5,325.8 L 266.4,325.9 L 258.0,328.2 L 257.9,328.1 L 257.1,327.3 L 256.0,326.2 L 255.4,325.7 L 254.9,325.1 L 254.7,324.9 L 254.7,324.4 L 254.4,324.1 L 254.4,323.7 L 254.2,323.5 L 254.1,323.1 L 253.7,322.7 L 253.2,321.8 L 252.8,321.3 L 252.4,321.0 L 251.0,319.3 L 250.4,318.6 L 249.8,318.5 L 249.7,318.6 L 249.8,318.8 L 249.6,319.1 L 249.1,319.0 L 249.1,318.5 L 248.9,318.1 L 248.6,317.9 L 248.4,317.8 L 248.0,317.4 L 247.7,317.1 L 246.9,317.0 L 246.1,316.6 L 246.1,316.3 L 245.7,316.0 L 244.7,315.3 L 244.8,315.1 L 245.1,314.7 L 244.7,314.2 L 244.1,313.8 L 243.6,313.7 L 243.3,313.6 L 241.6,313.5 L 241.4,313.2 L 241.1,313.2 L 240.9,313.4 L 240.8,313.2 L 240.7,313.0 L 240.5,313.0 L 240.3,313.3 L 239.9,313.3 L 239.0,313.0 L 238.5,312.6 L 238.3,312.3 L 238.1,312.1 L 237.8,312.0 L 237.7,311.5 L 237.2,311.3 L 237.2,311.1 L 237.3,310.8 L 236.8,310.5 L 236.7,310.1 L 236.3,309.8 L 236.1,309.6 L 235.9,309.4 L 235.6,309.5 L 235.3,309.3 L 234.9,309.3 L 234.7,309.4 L 234.5,309.4 L 234.8,309.0 L 234.6,308.9 L 233.9,308.8 L 233.4,309.2 L 233.0,309.4 L 232.8,309.6 L 232.7,309.7 L 232.9,310.0 L 232.7,310.2 L 232.7,310.3 L 232.8,310.5 L 233.4,310.5 L 233.7,310.6 L 233.9,311.0 L 233.8,311.1 L 233.1,311.1 L 232.7,310.8 L 232.3,310.1 L 232.2,309.9 L 232.2,309.7 L 232.3,309.6 L 232.0,309.3 L 231.5,309.2 L 231.1,309.2 L 229.7,310.1 L 229.3,310.1 L 229.2,310.1 L 228.5,310.0 L 228.3,309.8 L 228.2,309.3 L 228.1,309.1 L 227.3,309.0 L 226.8,309.3 L 226.7,309.7 L 226.3,310.1 L 226.2,310.5 L 214.3,307.9 L 214.3,307.6 L 213.8,306.7 L 213.6,306.5 L 213.2,306.1 L 212.4,305.8 L 211.8,305.6 L 211.6,305.6 L 210.9,305.3 L 210.8,305.1 L 210.3,304.9 L 209.5,304.8 L 208.8,304.5 L 208.0,304.0 L 207.5,303.5 L 206.3,301.3 L 205.7,300.4 L 205.2,299.9 L 204.5,299.3 L 204.1,299.3 L 204.0,299.3 L 204.0,299.3 L 191.2,288.7 L 191.2,288.7 L 191.1,288.5 L 191.3,288.2 L 191.3,287.7 L 191.3,287.5 L 191.9,287.4 L 192.1,287.1 L 192.1,286.7 L 192.0,286.5 L 192.3,286.4 L 192.2,286.2 L 191.6,286.2 L 191.1,286.4 L 190.6,286.8 L 190.2,287.0 L 189.7,287.6 L 189.5,288.0 L 188.8,288.3 L 188.1,288.7 L 188.0,288.7 L 181.6,289.4 L 181.2,288.7 L 180.7,288.1 L 180.4,287.5 L 180.4,287.0 L 180.7,286.3 L 181.0,285.8 L 181.2,284.6 L 181.2,284.4 L 181.4,283.9 L 181.5,283.4 L 181.5,283.1 L 181.2,282.9 L 181.2,282.7 L 181.3,282.5 L 181.3,282.1 L 181.2,281.9 L 181.4,280.6 L 181.9,279.7 L 181.8,279.3 L 181.7,278.9 L 181.9,278.5 L 182.6,277.7 L 182.6,277.5 L 182.8,277.0 L 182.9,275.9 L 183.1,275.0 L 183.2,274.7 L 183.2,274.3 L 183.0,274.0 L 183.0,273.6 L 182.6,273.1 L 182.6,272.9 L 182.4,272.7 L 182.0,272.6 L 182.0,272.0 L 182.2,270.6 L 181.9,270.3 L 182.0,269.7 L 182.1,269.4 L 181.9,268.9 L 181.9,268.9 L 181.9,268.6 L 181.5,268.0 L 181.6,267.0 L 181.4,266.7 L 181.3,266.4 L 180.9,266.2 L 180.7,266.0 L 180.7,264.6 L 180.8,264.2 L 180.8,264.0 L 180.1,263.7 L 180.0,263.5 L 180.0,263.2 L 179.9,263.1 L 179.7,262.9 L 179.7,262.4 L 179.3,262.4 L 179.1,262.8 L 178.9,263.0 L 178.5,263.3 L 178.2,263.5 L 177.8,263.5 L 177.4,263.3 L 177.4,263.1 L 177.7,262.7 L 177.7,262.4 L 177.0,262.7 L 176.2,262.6 L 175.8,262.4 L 175.3,261.4 L 175.1,260.7 L 175.0,259.1 L 175.0,257.4 L 175.0,255.8 L 174.7,255.1 L 174.5,254.9 L 174.4,254.7 L 174.1,254.5 L 174.0,254.3" fill="none" stroke="black" stroke-width="2"/>
</svg>