<?xml version="1.0" encoding="UTF-8"?>
<svg width="400" height="400" viewBox="0 0 400 400" xmlns="http://www.w3.org/2000/svg">
  <rect width="400" height="400" fill="white"/>
  <path d="M 193.2,189.2 L 192.5,186.2 L 192.6,183.9 L 192.4,183.6 L 191.9,184.2 L 191.6,184.7 L 191.2,184.7 L 191.0,184.5 L 191.0,182.5 L 190.7,182.0 L 190.4,182.0 L 190.1,182.6 L 189.8,182.8 L 189.3,182.8 L 189.0,182.3 L 188.4,180.8 L 188.3,177.9 L 188.1,177.6 L 188.3,176.5 L 188.2,175.7 L 187.8,175.5 L 188.3,174.3 L 188.6,173.9 L 189.0,172.8 L 189.0,171.6 L 189.1,169.2 L 189.0,168.3 L 189.2,167.7 L 189.5,158.8 L 189.1,156.3 L 188.3,152.7 L 187.2,149.7 L 185.7,147.6 L 185.0,146.8 L 183.8,144.9 L 180.3,141.3 L 179.3,140.8 L 177.2,139.1 L 174.7,137.0 L 173.2,135.8 L 172.7,135.5 L 170.3,133.8 L 168.5,132.3 L 168.2,132.0 L 167.1,131.0 L 161.4,125.5 L 160.2,123.8 L 158.7,121.9 L 156.3,120.3 L 154.4,119.5 L 153.6,119.3 L 151.2,118.5 L 150.1,117.9 L 144.7,114.8 L 141.2,112.5 L 138.0,110.2 L 136.2,108.9 L 135.8,108.8 L 134.6,107.9 L 132.9,106.5 L 131.4,105.1 L 130.6,104.8 L 130.3,104.9 L 129.7,105.4 L 129.1,105.0 L 128.4,105.3 L 127.8,105.0 L 127.5,104.8 L 127.2,104.6 L 126.2,104.1 L 126.0,103.3 L 125.4,102.5 L 123.0,101.2 L 122.5,100.5 L 122.5,99.6 L 122.9,99.1 L 123.0,98.8 L 123.0,97.5 L 122.5,96.7 L 121.8,95.9 L 120.7,94.7 L 119.9,93.8 L 119.0,92.6 L 118.4,91.9 L 117.6,91.4 L 116.5,90.2 L 115.8,90.2 L 115.5,89.8 L 115.4,88.3 L 114.9,87.8 L 113.7,85.7 L 111.8,84.5 L 110.9,84.4 L 110.9,83.9 L 111.1,83.4 L 110.7,82.9 L 108.7,81.0 L 108.1,79.8 L 107.7,79.5 L 106.4,78.9 L 106.1,78.5 L 106.0,78.1 L 105.1,77.5 L 103.7,76.9 L 103.3,77.5 L 102.9,77.6 L 102.8,77.6 L 103.4,76.9 L 133.2,40.0 L 133.2,40.0 L 133.6,40.5 L 136.6,43.4 L 137.8,44.8 L 137.8,44.8 L 138.6,46.1 L 141.9,50.5 L 142.4,51.1 L 145.5,54.7 L 146.5,55.7 L 147.0,55.8 L 147.3,56.1 L 147.4,56.7 L 147.6,58.0 L 148.4,58.8 L 148.8,59.7 L 149.4,60.8 L 150.1,61.6 L 151.3,62.4 L 151.8,63.2 L 152.3,63.6 L 152.4,64.7 L 152.7,65.6 L 153.7,66.6 L 154.2,67.0 L 154.5,67.5 L 155.2,69.6 L 156.2,71.6 L 156.7,72.1 L 157.8,72.6 L 159.4,74.3 L 161.2,76.7 L 162.1,77.6 L 163.6,78.5 L 165.9,80.5 L 167.1,81.1 L 169.0,82.6 L 171.0,84.0 L 172.2,85.0 L 172.6,85.6 L 172.7,85.7 L 173.3,86.2 L 175.0,89.1 L 179.9,93.9 L 180.3,94.7 L 180.3,95.1 L 180.6,95.7 L 182.8,97.6 L 183.8,98.9 L 184.2,99.8 L 185.0,101.1 L 187.2,103.5 L 187.8,104.8 L 188.0,105.1 L 188.5,105.6 L 189.0,106.7 L 189.4,107.2 L 189.6,110.7 L 190.2,111.1 L 191.5,113.5 L 191.5,114.4 L 191.8,114.9 L 192.2,115.4 L 193.4,115.4 L 193.7,116.2 L 194.0,116.6 L 194.3,116.4 L 196.3,116.3 L 197.1,116.5 L 197.2,117.0 L 197.5,117.3 L 197.9,117.3 L 198.5,118.2 L 198.7,118.9 L 198.9,119.7 L 199.4,120.9 L 199.9,121.4 L 200.7,120.1 L 201.3,122.0 L 202.6,124.6 L 203.0,125.7 L 204.0,126.6 L 205.8,127.2 L 208.7,129.1 L 210.6,131.2 L 211.5,131.9 L 212.3,132.4 L 213.4,133.5 L 214.6,133.8 L 215.0,134.1 L 215.6,135.3 L 215.9,135.6 L 216.1,135.5 L 216.3,135.1 L 216.4,134.9 L 216.6,135.7 L 216.3,137.5 L 215.6,139.5 L 215.1,140.4 L 214.4,140.8 L 213.6,141.0 L 213.1,140.3 L 213.0,139.9 L 212.7,139.8 L 212.5,140.0 L 211.8,140.1 L 211.3,140.9 L 211.1,141.7 L 210.8,142.5 L 210.6,143.5 L 210.7,144.2 L 211.8,146.8 L 212.2,147.2 L 212.5,146.9 L 212.9,148.1 L 213.3,148.6 L 213.3,148.9 L 213.0,149.2 L 213.0,149.4 L 213.5,149.9 L 213.7,150.0 L 214.0,150.3 L 214.1,150.0 L 214.4,148.3 L 214.9,147.7 L 215.5,147.8 L 215.7,148.0 L 216.2,148.9 L 216.4,151.3 L 216.5,151.8 L 217.5,152.9 L 218.1,152.4 L 218.7,152.6 L 219.3,152.3 L 219.5,152.4 L 220.0,153.2 L 219.9,154.8 L 220.2,155.8 L 220.1,156.5 L 219.8,156.8 L 217.9,157.6 L 217.3,158.1 L 216.9,160.0 L 217.1,162.6 L 216.7,163.1 L 216.7,163.5 L 217.5,165.7 L 218.1,168.6 L 219.6,171.0 L 220.0,171.0 L 220.3,171.2 L 220.3,172.0 L 220.5,172.8 L 220.9,173.5 L 221.2,173.8 L 221.8,174.1 L 222.6,174.0 L 223.1,173.6 L 223.2,173.0 L 223.1,171.9 L 223.3,171.2 L 224.2,171.9 L 224.5,171.6 L 225.3,170.3 L 225.5,170.3 L 225.7,170.4 L 226.0,170.3 L 226.0,169.6 L 226.4,169.2 L 226.8,169.2 L 227.3,169.0 L 227.6,169.4 L 227.8,170.3 L 228.5,172.6 L 229.1,172.5 L 229.8,172.0 L 230.2,171.6 L 230.5,171.0 L 231.3,170.0 L 231.6,169.8 L 233.0,167.5 L 233.5,167.0 L 234.7,165.5 L 235.2,165.1 L 235.7,164.6 L 236.1,164.6 L 236.2,164.4 L 237.5,163.0 L 239.4,160.0 L 240.0,159.4 L 241.0,159.3 L 241.4,159.1 L 241.5,158.1 L 241.6,158.3 L 242.1,159.4 L 242.8,160.1 L 243.0,161.3 L 243.0,163.9 L 242.9,164.6 L 241.8,165.9 L 241.5,166.6 L 241.4,168.1 L 241.0,169.0 L 240.7,170.4 L 240.4,171.2 L 239.8,172.5 L 239.4,173.5 L 238.9,174.8 L 238.7,177.7 L 238.3,178.8 L 238.3,179.8 L 238.5,180.4 L 238.6,182.0 L 238.8,182.6 L 239.3,183.4 L 240.7,186.0 L 240.7,188.7 L 240.7,189.2 L 240.8,191.5 L 240.9,192.5 L 240.8,194.4 L 241.4,197.6 L 241.3,201.5 L 241.5,203.2 L 242.4,204.0 L 242.7,205.2 L 243.2,205.3 L 244.3,205.0 L 245.2,204.6 L 246.6,204.3 L 247.4,204.3 L 248.1,204.5 L 248.7,204.8 L 249.1,205.2 L 249.0,205.5 L 247.8,206.6 L 247.7,207.1 L 247.9,207.6 L 250.8,208.6 L 251.3,209.2 L 254.9,211.2 L 255.7,211.4 L 256.6,211.3 L 256.8,211.5 L 257.0,211.8 L 257.1,211.9 L 257.6,212.3 L 259.2,212.9 L 261.2,213.1 L 262.9,214.0 L 264.7,214.6 L 265.6,214.6 L 265.8,214.3 L 265.8,211.8 L 266.5,211.1 L 266.4,210.2 L 266.5,209.8 L 266.4,209.2 L 266.1,208.8 L 265.8,207.9 L 265.5,206.5 L 266.1,204.5 L 266.6,202.8 L 266.6,202.1 L 266.3,201.4 L 266.4,201.0 L 266.8,200.9 L 266.9,201.0 L 266.8,201.7 L 267.2,202.3 L 267.3,203.5 L 267.0,204.8 L 266.4,206.7 L 266.4,207.9 L 266.8,209.1 L 266.8,209.8 L 266.7,211.3 L 266.6,211.9 L 266.5,212.9 L 266.7,213.3 L 266.6,214.5 L 266.8,214.9 L 267.6,215.8 L 267.6,216.2 L 267.8,216.9 L 268.1,218.7 L 268.5,219.6 L 269.3,220.3 L 269.8,221.3 L 269.8,222.4 L 270.4,223.4 L 271.0,223.8 L 271.5,224.1 L 272.7,224.7 L 274.1,225.9 L 276.8,226.9 L 277.9,227.9 L 280.0,228.8 L 281.3,229.8 L 282.2,230.3 L 283.1,230.5 L 283.3,230.7 L 283.3,230.8 L 284.2,230.3 L 284.9,229.8 L 286.1,229.7 L 286.8,230.0 L 287.3,230.4 L 287.7,231.3 L 289.2,232.8 L 289.7,233.1 L 290.4,233.9 L 290.6,234.9 L 291.1,235.7 L 291.8,236.4 L 292.2,236.9 L 292.6,237.9 L 294.3,239.5 L 296.2,241.0 L 297.2,241.2 L 297.1,241.9 L 296.8,242.2 L 295.9,242.7 L 294.5,243.1 L 293.9,243.7 L 293.5,244.7 L 293.7,245.2 L 293.6,245.4 L 292.7,245.7 L 292.3,245.9 L 291.7,246.3 L 291.6,246.9 L 291.7,249.0 L 292.1,250.6 L 292.3,252.7 L 292.3,253.1 L 292.5,254.0 L 292.4,254.6 L 292.9,255.2 L 292.7,255.4 L 292.2,256.0 L 292.0,256.5 L 292.2,257.3 L 293.4,257.4 L 294.0,257.9 L 294.0,258.7 L 293.2,260.2 L 292.1,261.5 L 291.5,262.6 L 291.4,264.2 L 291.3,264.8 L 291.5,265.2 L 291.4,265.9 L 290.5,267.4 L 290.1,269.6 L 290.3,270.2 L 290.3,270.6 L 289.7,270.7 L 289.3,271.1 L 289.0,272.1 L 288.3,272.1 L 287.7,272.5 L 287.6,272.9 L 287.1,273.4 L 286.5,273.6 L 285.3,273.9 L 284.8,274.3 L 284.4,275.2 L 284.2,275.5 L 283.7,275.6 L 283.2,276.4 L 282.7,276.8 L 282.4,277.3 L 281.3,278.5 L 281.2,278.8 L 281.3,279.2 L 281.8,279.6 L 282.0,280.0 L 281.9,280.7 L 281.8,281.3 L 281.2,283.1 L 280.8,283.6 L 281.0,284.5 L 281.6,284.6 L 281.4,286.2 L 281.3,287.0 L 281.5,287.8 L 281.1,289.8 L 280.6,291.0 L 280.5,292.2 L 280.8,292.8 L 280.1,293.8 L 279.6,293.2 L 279.0,292.6 L 278.0,292.5 L 277.3,292.6 L 275.7,293.6 L 273.4,293.7 L 272.9,293.9 L 272.2,294.9 L 271.9,295.2 L 271.3,294.8 L 270.4,294.9 L 270.0,295.3 L 269.2,296.4 L 269.0,297.3 L 268.8,298.0 L 268.6,299.0 L 268.0,300.3 L 267.9,301.2 L 267.4,302.1 L 267.0,305.8 L 267.2,307.0 L 267.5,307.6 L 268.1,308.2 L 267.4,310.3 L 266.8,311.2 L 266.8,311.8 L 267.3,311.6 L 268.3,312.7 L 268.3,313.5 L 268.5,314.0 L 268.8,314.1 L 268.9,314.4 L 268.5,314.8 L 268.4,315.4 L 267.9,316.1 L 266.7,316.7 L 265.7,316.9 L 265.2,317.6 L 264.8,317.8 L 264.1,318.7 L 263.0,319.8 L 262.8,320.4 L 262.4,321.8 L 261.5,323.6 L 260.9,326.8 L 260.3,328.3 L 260.1,330.1 L 259.9,332.3 L 260.8,335.7 L 261.3,337.5 L 262.7,340.5 L 263.3,341.4 L 262.9,342.2 L 262.9,342.8 L 252.5,343.8 L 252.3,343.1 L 251.9,342.7 L 251.7,342.2 L 252.0,340.1 L 252.1,334.0 L 252.4,333.3 L 252.2,332.6 L 252.2,330.6 L 252.0,330.1 L 250.9,330.0 L 250.4,329.5 L 250.1,329.1 L 249.6,328.9 L 249.2,328.2 L 248.7,327.9 L 247.6,328.3 L 247.2,328.3 L 247.3,327.6 L 247.6,327.0 L 248.0,323.7 L 248.7,322.8 L 248.9,321.7 L 249.2,321.0 L 249.7,320.4 L 250.6,318.7 L 251.5,315.9 L 252.2,314.8 L 252.8,313.3 L 252.8,312.6 L 253.2,311.6 L 253.9,311.4 L 254.5,312.0 L 254.9,312.2 L 255.0,312.9 L 255.2,313.2 L 254.8,313.8 L 254.7,314.5 L 255.2,314.9 L 256.1,315.3 L 256.8,315.1 L 257.0,314.9 L 257.1,314.9 L 257.8,314.3 L 258.2,313.5 L 258.0,313.3 L 258.0,312.4 L 257.7,312.1 L 257.9,310.7 L 258.5,309.6 L 258.7,308.5 L 258.5,307.3 L 258.5,306.6 L 258.8,306.1 L 258.9,304.9 L 259.7,302.7 L 260.3,301.6 L 260.5,300.4 L 260.6,297.1 L 260.4,296.3 L 259.4,295.7 L 259.1,295.4 L 258.4,294.9 L 257.6,294.8 L 257.1,294.9 L 256.4,295.1 L 256.1,295.4 L 255.0,297.3 L 254.2,299.5 L 254.1,300.4 L 254.3,301.7 L 254.3,302.8 L 254.1,303.1 L 253.5,303.1 L 253.2,302.7 L 253.0,301.9 L 252.9,299.8 L 253.0,298.7 L 253.1,297.9 L 253.1,296.2 L 252.9,296.1 L 252.3,296.2 L 252.0,296.5 L 251.3,297.6 L 250.9,299.6 L 250.7,300.0 L 250.3,300.1 L 249.2,300.7 L 248.3,301.4 L 246.5,302.7 L 245.9,302.3 L 245.2,302.0 L 244.9,301.7 L 244.2,301.7 L 243.1,301.8 L 242.8,302.1 L 241.8,303.3 L 241.1,305.1 L 240.7,306.9 L 240.3,307.9 L 239.9,309.4 L 239.2,312.2 L 239.0,314.3 L 239.3,315.2 L 239.2,316.3 L 238.7,316.7 L 237.8,317.0 L 237.4,317.6 L 237.5,318.8 L 237.3,319.0 L 236.6,318.0 L 236.3,317.7 L 236.1,317.5 L 235.8,317.7 L 235.1,318.7 L 234.8,321.1 L 234.0,324.2 L 232.5,327.7 L 232.2,328.0 L 231.4,328.2 L 230.9,328.0 L 230.9,326.8 L 230.5,326.2 L 230.1,326.2 L 229.8,326.2 L 229.5,325.9 L 229.4,325.0 L 228.8,325.0 L 228.5,325.3 L 227.8,326.4 L 227.9,327.0 L 228.3,327.4 L 228.3,328.6 L 228.5,328.9 L 228.9,329.0 L 229.2,329.2 L 229.2,330.1 L 228.8,330.3 L 228.5,329.7 L 228.0,329.7 L 227.8,330.6 L 226.4,332.8 L 226.0,333.8 L 225.9,336.9 L 225.4,337.0 L 225.3,336.7 L 225.2,336.3 L 224.9,335.9 L 224.3,335.8 L 223.7,336.0 L 222.8,337.6 L 222.4,337.7 L 222.1,338.0 L 222.0,338.9 L 222.1,339.3 L 222.8,340.5 L 223.0,342.0 L 222.6,342.7 L 223.1,343.3 L 223.6,344.0 L 224.2,344.6 L 225.2,345.3 L 225.5,345.6 L 225.3,346.5 L 224.9,347.2 L 223.5,346.7 L 222.5,347.1 L 221.3,348.3 L 221.4,348.9 L 221.6,349.3 L 221.4,349.8 L 221.2,350.7 L 221.0,352.8 L 221.1,353.7 L 221.1,354.7 L 220.1,355.5 L 219.3,355.5 L 218.2,355.9 L 217.8,356.2 L 217.7,356.9 L 217.6,358.0 L 217.6,359.1 L 217.5,359.7 L 217.2,360.0 L 216.8,360.0 L 216.4,359.8 L 216.0,359.4 L 215.9,359.3 L 215.7,359.5 L 215.4,358.8 L 214.8,358.0 L 214.5,357.4 L 214.1,356.5 L 214.0,355.5 L 214.4,354.0 L 214.4,353.4 L 214.2,353.0 L 213.2,352.8 L 213.0,352.6 L 213.4,351.1 L 213.7,350.4 L 215.0,349.0 L 215.8,348.5 L 215.9,348.3 L 215.8,347.8 L 215.1,347.5 L 214.7,347.3 L 214.6,346.7 L 215.7,345.4 L 216.0,344.5 L 215.7,343.0 L 215.6,341.8 L 215.2,341.5 L 213.9,341.0 L 213.8,340.4 L 214.1,339.1 L 213.7,338.0 L 213.3,335.8 L 213.0,334.9 L 212.8,334.6 L 212.4,334.4 L 211.8,334.5 L 211.0,335.4 L 209.3,336.9 L 208.5,338.4 L 207.9,339.3 L 207.7,339.5 L 207.6,337.2 L 207.1,336.9 L 207.2,336.5 L 208.4,334.5 L 208.6,333.8 L 208.9,332.6 L 208.9,330.3 L 208.7,329.4 L 208.1,329.0 L 207.5,328.9 L 207.3,328.5 L 208.5,325.3 L 208.3,322.3 L 208.6,319.7 L 208.4,319.6 L 207.1,319.9 L 205.9,319.8 L 205.3,319.9 L 203.5,321.4 L 203.0,321.6 L 203.2,321.2 L 204.4,320.0 L 206.8,316.9 L 207.6,316.0 L 208.1,314.4 L 208.4,314.0 L 208.9,313.8 L 210.0,313.8 L 210.1,314.6 L 210.1,315.5 L 209.9,316.2 L 209.8,317.2 L 210.2,318.5 L 210.6,319.1 L 211.1,319.6 L 211.6,319.6 L 212.2,321.0 L 212.7,321.6 L 213.0,321.5 L 213.3,321.2 L 213.7,320.3 L 214.2,319.6 L 214.7,317.4 L 214.5,316.8 L 216.1,314.8 L 216.6,313.6 L 216.7,312.6 L 216.0,311.5 L 216.7,310.0 L 216.8,309.2 L 217.1,308.3 L 216.2,306.9 L 215.9,306.8 L 215.7,307.0 L 214.9,308.3 L 213.8,309.5 L 212.3,310.6 L 211.7,310.4 L 211.4,310.0 L 211.4,308.9 L 210.9,308.1 L 209.8,307.2 L 209.8,306.5 L 210.1,305.5 L 210.1,304.7 L 209.8,304.5 L 209.5,304.4 L 209.6,303.9 L 210.4,302.9 L 212.8,300.3 L 213.2,299.0 L 213.3,297.7 L 214.0,297.0 L 214.2,296.6 L 214.3,296.0 L 215.7,294.7 L 216.2,293.9 L 216.4,293.8 L 217.3,294.4 L 217.8,294.7 L 219.8,294.3 L 220.0,294.5 L 220.8,293.8 L 221.5,292.7 L 221.3,292.0 L 221.5,291.2 L 223.8,289.1 L 224.7,289.0 L 225.1,288.6 L 224.9,287.3 L 225.0,286.8 L 226.0,285.5 L 226.3,285.3 L 226.9,284.3 L 227.9,283.7 L 228.3,283.6 L 228.6,283.4 L 229.0,283.4 L 229.4,282.8 L 231.0,283.0 L 231.3,282.8 L 231.8,282.9 L 232.0,282.9 L 232.7,282.9 L 233.9,282.4 L 235.2,281.6 L 236.3,280.6 L 236.5,279.7 L 237.1,279.0 L 237.4,278.5 L 238.2,277.6 L 238.7,276.6 L 239.1,276.2 L 239.4,276.2 L 239.8,276.4 L 240.2,276.0 L 240.5,275.5 L 240.9,275.1 L 241.4,274.3 L 241.7,274.0 L 242.0,273.9 L 242.2,273.6 L 242.3,273.4 L 242.6,272.7 L 242.9,272.5 L 243.2,272.5 L 244.1,271.8 L 244.2,271.1 L 245.2,270.1 L 246.1,268.7 L 246.5,268.5 L 247.3,268.5 L 247.8,268.0 L 248.0,267.1 L 249.0,266.0 L 249.4,265.1 L 250.4,263.7 L 251.7,262.7 L 253.7,262.4 L 254.5,262.1 L 255.6,261.2 L 257.1,261.2 L 257.1,261.2 L 260.6,259.9 L 261.8,260.1 L 262.7,260.5 L 263.1,260.3 L 263.4,259.8 L 263.6,259.0 L 263.4,258.4 L 263.7,256.2 L 263.8,255.4 L 263.7,252.3 L 263.4,251.4 L 262.6,250.8 L 261.4,250.2 L 261.3,249.5 L 260.1,248.2 L 258.6,247.3 L 257.1,247.3 L 257.0,247.3 L 256.2,247.6 L 255.8,247.5 L 254.1,246.4 L 253.8,245.6 L 253.7,244.7 L 253.6,244.4 L 253.6,244.3 L 253.3,243.7 L 253.5,243.0 L 254.1,242.7 L 255.0,242.9 L 255.4,242.7 L 256.2,242.0 L 256.9,241.1 L 256.8,240.6 L 256.7,240.0 L 256.8,238.9 L 256.3,237.6 L 256.3,236.8 L 255.2,235.7 L 255.2,234.8 L 254.7,233.3 L 254.1,230.5 L 254.0,229.3 L 253.8,228.9 L 253.7,227.8 L 253.4,227.1 L 253.1,226.8 L 252.0,226.0 L 250.8,226.0 L 249.3,226.6 L 247.9,227.3 L 247.1,227.4 L 246.4,226.9 L 245.3,226.5 L 243.7,226.4 L 243.1,226.5 L 240.2,228.5 L 237.5,231.1 L 237.5,231.6 L 237.7,232.9 L 237.6,233.8 L 237.3,234.1 L 236.8,234.2 L 236.0,234.1 L 235.7,233.2 L 235.1,232.9 L 233.6,232.5 L 232.7,232.2 L 227.8,230.4 L 227.7,229.4 L 227.2,229.2 L 226.7,229.1 L 226.0,228.7 L 225.6,228.6 L 223.9,228.5 L 223.1,228.1 L 222.0,228.1 L 220.6,228.6 L 220.5,228.2 L 220.4,227.4 L 220.0,226.6 L 219.7,226.3 L 219.5,225.5 L 219.8,224.6 L 219.5,223.9 L 219.5,223.4 L 219.1,222.9 L 218.4,222.5 L 218.2,222.0 L 218.0,221.8 L 217.6,221.8 L 217.0,222.1 L 216.6,222.2 L 216.2,222.5 L 215.9,222.9 L 215.6,223.1 L 215.4,223.0 L 214.8,223.0 L 213.9,223.3 L 213.3,223.4 L 212.2,223.9 L 211.8,223.9 L 211.2,224.1 L 210.9,224.8 L 210.2,225.3 L 209.1,225.6 L 208.2,226.1 L 208.1,226.4 L 207.6,226.9 L 207.3,227.6 L 207.1,228.8 L 206.6,229.7 L 205.6,230.6 L 204.9,233.0 L 204.8,233.2 L 204.8,234.1 L 204.6,234.8 L 204.5,236.3 L 204.6,237.3 L 204.8,238.0 L 204.8,238.7 L 204.3,239.6 L 204.0,241.0 L 203.9,242.6 L 203.8,243.0 L 203.5,243.5 L 203.0,243.2 L 202.7,243.4 L 202.6,244.4 L 202.8,244.7 L 203.3,244.8 L 203.7,245.6 L 203.0,246.8 L 202.6,247.0 L 202.4,247.7 L 202.6,248.1 L 202.7,248.6 L 202.3,249.0 L 200.5,249.1 L 199.9,249.8 L 199.7,250.8 L 199.2,251.1 L 198.6,252.2 L 197.7,253.2 L 197.3,253.5 L 196.3,254.4 L 195.5,254.4 L 194.9,253.8 L 194.7,253.1 L 195.0,251.9 L 195.0,250.8 L 194.1,250.4 L 193.4,250.3 L 193.0,250.7 L 192.6,250.8 L 192.4,250.4 L 192.3,250.5 L 192.2,251.0 L 191.6,251.6 L 191.3,252.0 L 191.2,253.2 L 190.8,255.1 L 190.4,255.5 L 190.1,255.6 L 189.7,255.8 L 189.4,255.7 L 188.6,256.2 L 188.4,256.2 L 188.1,256.0 L 187.8,256.4 L 187.1,257.1 L 186.1,258.2 L 185.9,258.8 L 185.5,259.3 L 185.8,260.4 L 185.7,262.6 L 185.3,263.2 L 186.1,264.3 L 186.1,265.1 L 185.1,265.3 L 184.9,266.4 L 184.2,267.3 L 184.1,268.1 L 183.7,268.6 L 183.0,268.7 L 181.9,268.7 L 180.8,268.5 L 180.2,269.1 L 179.3,269.6 L 179.3,270.6 L 178.9,271.2 L 178.7,271.8 L 178.9,272.9 L 178.7,273.6 L 178.4,274.6 L 177.1,275.9 L 176.5,276.2 L 175.8,276.3 L 173.6,275.1 L 172.8,274.4 L 172.7,274.3 L 171.5,273.6 L 171.4,273.5 L 170.6,273.1 L 170.0,273.1 L 169.8,273.3 L 169.7,272.8 L 170.1,272.4 L 172.2,272.5 L 172.2,271.7 L 171.5,270.9 L 170.3,270.1 L 169.5,269.9 L 169.6,269.3 L 170.3,267.7 L 171.4,266.5 L 172.2,265.2 L 172.3,264.6 L 172.7,264.0 L 173.3,263.2 L 173.8,262.8 L 173.9,261.6 L 174.6,260.9 L 176.1,260.4 L 176.9,260.3 L 177.7,260.8 L 178.1,260.4 L 178.3,259.9 L 178.9,259.3 L 179.6,258.9 L 180.9,256.4 L 182.3,255.8 L 185.1,255.0 L 186.6,253.9 L 188.0,253.1 L 188.2,252.3 L 188.3,250.8 L 188.2,250.0 L 188.2,248.7 L 187.7,247.7 L 187.8,246.0 L 188.8,242.1 L 189.4,239.9 L 189.8,239.1 L 190.3,238.7 L 191.0,238.8 L 191.7,239.1 L 191.6,239.6 L 191.4,240.0 L 191.2,240.5 L 191.0,242.1 L 190.9,244.5 L 191.2,244.2 L 191.5,243.1 L 191.8,242.8 L 192.6,243.7 L 192.7,244.2 L 192.7,244.9 L 192.9,245.2 L 193.4,245.1 L 194.1,244.6 L 194.2,243.6 L 194.8,243.1 L 196.1,242.3 L 196.6,241.3 L 196.9,240.5 L 197.2,240.3 L 197.8,240.2 L 198.2,239.9 L 199.0,239.4 L 200.0,237.8 L 200.3,237.4 L 201.0,235.2 L 201.6,234.1 L 202.7,233.0 L 203.1,232.1 L 203.1,231.7 L 202.7,231.5 L 202.8,231.0 L 203.9,230.1 L 204.6,228.1 L 205.5,225.9 L 205.8,224.9 L 206.4,224.4 L 206.4,222.8 L 206.8,222.2 L 206.8,220.8 L 207.1,219.8 L 207.4,219.1 L 207.7,218.0 L 207.5,217.6 L 207.1,217.4 L 207.4,217.0 L 207.6,215.7 L 209.8,212.7 L 210.0,210.9 L 209.7,209.0 L 209.3,208.6 L 209.3,207.7 L 209.6,206.7 L 209.9,206.5 L 210.3,206.7 L 210.8,206.4 L 211.2,205.5 L 211.1,204.6 L 211.0,204.2 L 211.3,203.9 L 210.9,203.5 L 210.2,203.1 L 210.5,202.6 L 211.4,201.9 L 211.9,201.9 L 212.2,201.6 L 212.4,200.5 L 212.3,199.2 L 211.7,197.8 L 210.7,197.0 L 209.3,197.0 L 207.5,197.3 L 205.6,198.3 L 204.6,199.3 L 204.0,200.8 L 203.8,202.3 L 203.6,202.6 L 202.7,202.6 L 202.0,203.4 L 201.4,203.5 L 201.3,203.8 L 201.2,203.7 L 201.3,203.6 L 201.4,202.5 L 201.0,202.5 L 200.7,202.7 L 200.1,202.7 L 199.7,203.0 L 199.7,203.2 L 199.5,203.5 L 199.1,203.5 L 198.8,203.9 L 197.5,207.1 L 197.3,207.7 L 196.7,209.6 L 196.6,211.4 L 196.4,211.7 L 196.2,211.6 L 196.2,211.2 L 196.1,210.7 L 195.8,210.9 L 195.2,211.8 L 195.0,212.8 L 194.8,212.8 L 194.7,212.7 L 194.4,212.6 L 193.9,213.1 L 193.4,213.4 L 193.0,212.7 L 192.4,212.5 L 192.1,212.5 L 191.9,212.7 L 191.4,212.8 L 191.3,212.5 L 191.6,211.9 L 192.2,211.3 L 192.4,211.5 L 192.2,211.8 L 192.3,212.1 L 192.6,212.2 L 193.0,211.7 L 193.2,211.4 L 193.5,211.3 L 193.5,211.9 L 194.3,211.5 L 194.9,209.3 L 194.8,209.1 L 194.4,209.0 L 194.8,207.8 L 194.6,207.4 L 194.4,207.2 L 194.5,207.0 L 195.0,206.1 L 195.0,205.6 L 195.8,204.3 L 196.1,203.4 L 196.5,203.3 L 197.6,202.8 L 198.0,201.9 L 198.5,201.8 L 198.5,199.9 L 198.1,199.6 L 198.0,198.8 L 197.6,198.3 L 197.1,198.1 L 197.0,197.9 L 196.5,197.6 L 194.9,198.8 L 194.6,198.5 L 194.4,198.4 L 194.2,198.8 L 193.9,199.1 L 193.9,198.5 L 194.8,196.4 L 194.6,196.1 L 194.2,196.2 L 193.3,197.5 L 193.0,197.5 L 192.9,196.6 L 192.7,196.2 L 192.9,195.1 L 192.9,194.6 L 192.7,194.3 L 192.3,193.2 L 192.4,193.0 L 192.8,192.2 L 193.5,190.4 L 193.2,189.2" fill="none" stroke="black" stroke-width="2"/>
</svg>