<?xml version="1.0" encoding="UTF-8"?>
<svg width="400" height="400" viewBox="0 0 400 400" xmlns="http://www.w3.org/2000/svg">
  <rect width="400" height="400" fill="white"/>
  <path d="M 149.9,242.2 L 150.1,241.9 L 150.8,240.3 L 151.3,238.8 L 151.9,237.5 L 153.2,234.1 L 153.8,232.0 L 153.9,230.3 L 154.2,229.8 L 154.8,226.8 L 155.7,224.2 L 156.4,223.3 L 156.6,221.9 L 158.4,219.7 L 158.4,219.0 L 158.2,218.6 L 159.0,218.3 L 160.2,217.4 L 160.2,217.2 L 162.5,215.2 L 166.1,210.8 L 166.2,210.2 L 165.4,210.2 L 164.7,210.7 L 164.7,209.6 L 165.1,209.1 L 165.7,209.0 L 167.4,207.6 L 168.3,207.3 L 169.6,206.1 L 170.3,205.0 L 170.6,205.0 L 170.6,205.8 L 171.0,205.9 L 171.7,205.0 L 172.1,204.0 L 172.7,203.2 L 172.7,201.3 L 172.0,200.9 L 172.1,200.6 L 172.6,199.8 L 172.9,198.4 L 172.5,197.7 L 173.5,193.9 L 174.3,192.2 L 175.7,187.9 L 176.3,187.1 L 178.5,184.9 L 179.1,182.7 L 178.9,180.9 L 179.4,179.6 L 179.2,178.4 L 179.4,176.8 L 179.7,175.7 L 180.0,174.2 L 179.9,173.1 L 179.6,172.3 L 179.1,170.0 L 178.7,169.5 L 177.8,169.5 L 176.6,169.9 L 175.8,169.8 L 175.6,169.4 L 175.8,168.9 L 175.5,168.3 L 175.6,167.3 L 177.3,165.8 L 178.0,165.2 L 177.7,164.8 L 178.0,164.2 L 178.5,162.8 L 178.3,162.2 L 176.8,162.2 L 175.9,162.5 L 175.4,162.2 L 175.5,161.7 L 175.6,161.6 L 177.9,159.6 L 180.2,157.3 L 180.4,156.1 L 180.4,155.2 L 181.1,154.3 L 181.4,152.8 L 181.2,152.5 L 178.8,152.3 L 180.1,151.0 L 183.7,148.7 L 184.6,148.3 L 186.4,146.6 L 187.2,145.3 L 189.3,142.4 L 189.8,141.2 L 190.7,139.9 L 193.4,137.4 L 193.4,136.9 L 192.9,136.3 L 192.6,135.7 L 191.1,135.3 L 188.5,135.0 L 187.0,135.4 L 185.5,136.5 L 184.5,136.7 L 183.4,137.0 L 181.8,138.2 L 180.6,137.8 L 178.0,138.2 L 174.9,141.0 L 171.6,143.4 L 170.9,143.5 L 170.1,142.9 L 170.3,142.3 L 171.4,141.4 L 174.7,139.8 L 176.3,138.7 L 176.6,137.3 L 177.0,136.2 L 178.2,135.1 L 179.1,135.0 L 180.3,133.9 L 183.3,132.1 L 184.4,132.0 L 184.8,132.0 L 185.1,132.2 L 185.0,133.0 L 184.9,133.6 L 185.5,133.7 L 186.2,134.3 L 188.7,134.6 L 189.0,134.8 L 190.3,134.8 L 194.3,134.4 L 195.8,133.5 L 196.9,133.1 L 199.3,131.3 L 201.0,130.2 L 201.7,129.3 L 203.5,125.7 L 204.8,123.5 L 206.2,121.4 L 206.8,120.2 L 207.2,119.4 L 207.7,118.5 L 208.2,118.0 L 208.3,117.3 L 208.9,116.8 L 209.9,116.0 L 211.1,114.6 L 212.5,110.7 L 212.8,109.8 L 213.2,108.7 L 213.6,108.6 L 214.2,109.7 L 215.1,109.1 L 216.0,108.3 L 216.3,108.6 L 215.7,110.3 L 215.9,111.0 L 214.7,113.9 L 213.7,115.5 L 213.0,118.5 L 213.5,119.0 L 214.9,119.5 L 215.3,119.1 L 215.6,118.6 L 215.9,118.7 L 216.3,119.1 L 217.2,118.7 L 218.4,117.8 L 218.7,118.0 L 219.8,119.1 L 220.3,119.5 L 220.8,119.2 L 221.3,118.5 L 221.9,116.9 L 222.7,115.8 L 223.2,114.3 L 223.2,113.6 L 222.8,113.0 L 221.9,113.3 L 220.8,112.7 L 220.8,112.0 L 221.0,110.9 L 221.3,110.7 L 222.3,111.1 L 222.6,111.6 L 223.1,111.0 L 223.3,110.4 L 222.9,110.1 L 221.8,109.8 L 220.9,109.7 L 220.0,110.0 L 219.6,109.9 L 219.3,109.5 L 219.2,107.8 L 219.0,107.4 L 219.2,106.7 L 218.9,106.7 L 218.1,107.2 L 217.8,107.1 L 220.9,99.4 L 221.1,98.1 L 220.9,97.6 L 220.6,97.6 L 219.8,98.8 L 218.9,99.4 L 218.1,100.4 L 216.7,103.1 L 215.7,104.2 L 214.8,105.5 L 214.4,105.5 L 214.2,105.2 L 215.4,102.3 L 215.7,101.5 L 215.7,100.8 L 214.9,99.0 L 214.6,97.6 L 214.9,95.6 L 215.8,93.3 L 217.1,90.5 L 218.5,86.8 L 218.3,86.4 L 217.9,86.3 L 217.3,86.7 L 216.7,87.0 L 215.7,85.8 L 215.6,85.2 L 216.3,83.1 L 217.0,82.2 L 217.1,81.3 L 216.3,80.7 L 216.4,80.0 L 216.7,79.1 L 216.5,78.0 L 216.8,75.5 L 217.5,73.9 L 217.4,72.8 L 218.0,69.2 L 220.5,64.3 L 220.9,61.9 L 222.2,59.4 L 223.2,56.4 L 224.3,54.0 L 224.8,52.8 L 224.9,50.9 L 224.4,50.7 L 222.2,52.7 L 221.5,52.1 L 221.4,51.1 L 220.4,50.4 L 219.7,49.3 L 219.8,48.5 L 220.7,48.2 L 221.3,47.5 L 221.7,46.4 L 223.6,43.5 L 224.3,42.8 L 224.5,42.2 L 260.8,40.0 L 261.0,40.0 L 261.0,40.1 L 261.6,40.7 L 262.5,40.3 L 263.0,40.3 L 262.7,41.3 L 262.9,42.8 L 263.5,44.0 L 262.7,46.9 L 262.3,48.0 L 261.9,48.2 L 261.5,48.6 L 260.8,49.8 L 260.1,49.9 L 259.8,50.2 L 258.6,52.3 L 258.3,53.8 L 257.8,54.8 L 257.7,55.7 L 256.9,57.2 L 257.3,58.1 L 257.4,58.7 L 257.0,59.3 L 256.5,59.8 L 256.5,60.8 L 256.8,61.9 L 257.7,63.7 L 258.0,66.4 L 258.2,67.3 L 258.2,69.3 L 257.9,70.3 L 257.0,71.2 L 257.0,71.9 L 256.4,73.1 L 256.1,73.5 L 255.7,73.3 L 255.4,73.5 L 255.4,73.8 L 254.2,75.7 L 254.2,76.1 L 255.3,76.9 L 255.5,77.1 L 255.2,77.8 L 254.0,79.8 L 254.3,80.1 L 254.3,80.9 L 254.0,81.2 L 253.9,81.6 L 254.3,82.3 L 254.0,82.8 L 253.6,84.0 L 253.3,84.9 L 253.6,85.8 L 253.0,85.9 L 252.9,86.2 L 253.0,86.6 L 252.4,87.3 L 252.2,88.2 L 252.6,88.7 L 252.7,89.2 L 252.1,90.1 L 251.9,91.4 L 251.0,94.7 L 251.3,95.8 L 250.9,96.7 L 251.3,98.0 L 251.9,99.1 L 252.2,99.4 L 253.4,99.8 L 254.2,100.4 L 254.3,101.1 L 254.5,101.3 L 255.2,101.3 L 255.7,101.7 L 256.2,101.7 L 256.4,102.4 L 256.6,102.9 L 257.2,103.1 L 257.6,103.2 L 258.3,104.3 L 258.9,106.0 L 260.1,111.7 L 258.3,111.9 L 257.7,112.4 L 257.6,113.8 L 257.4,114.7 L 256.7,115.1 L 256.4,115.6 L 256.5,117.3 L 257.3,117.6 L 257.8,118.1 L 257.8,119.6 L 258.5,121.0 L 259.2,122.0 L 260.0,122.2 L 260.1,122.4 L 260.9,123.4 L 261.0,124.6 L 261.4,126.9 L 261.9,127.6 L 262.0,128.9 L 263.8,130.1 L 265.0,130.6 L 265.4,131.2 L 265.4,132.1 L 265.9,132.5 L 266.0,132.6 L 268.6,133.4 L 268.6,133.5 L 266.0,182.7 L 265.5,182.8 L 263.0,184.2 L 260.2,186.9 L 259.2,188.8 L 259.0,189.4 L 259.8,189.4 L 258.8,191.0 L 257.5,192.9 L 257.1,194.4 L 257.2,195.1 L 257.9,195.5 L 259.2,195.4 L 260.7,194.8 L 264.1,194.1 L 266.8,192.2 L 268.1,192.4 L 271.0,189.4 L 271.6,189.5 L 271.6,190.5 L 270.5,191.7 L 270.1,192.9 L 265.9,198.6 L 265.0,200.1 L 264.8,200.3 L 263.3,203.0 L 261.0,205.7 L 260.5,206.9 L 260.3,207.9 L 260.6,208.6 L 260.6,210.2 L 260.9,210.9 L 261.5,210.9 L 262.5,210.2 L 262.8,209.6 L 263.7,209.7 L 263.9,209.5 L 264.0,209.6 L 264.5,210.1 L 264.6,210.8 L 262.6,213.5 L 261.2,216.9 L 260.8,218.3 L 260.6,221.3 L 261.3,222.1 L 261.0,223.0 L 260.1,224.5 L 259.1,227.1 L 258.8,228.1 L 258.9,229.2 L 258.2,230.3 L 256.4,234.9 L 255.8,236.1 L 255.7,237.0 L 255.8,237.5 L 257.3,237.6 L 257.1,238.1 L 257.1,238.5 L 257.6,238.9 L 258.0,238.7 L 258.6,239.0 L 258.8,240.0 L 258.4,240.9 L 256.6,243.3 L 254.6,246.6 L 254.3,247.9 L 254.2,248.3 L 253.9,249.0 L 252.3,251.6 L 250.7,254.7 L 250.6,255.0 L 248.9,259.1 L 248.3,259.5 L 248.2,259.6 L 247.5,260.4 L 246.9,263.9 L 245.8,266.4 L 245.8,267.1 L 244.7,269.1 L 244.5,271.0 L 243.7,272.1 L 243.9,272.6 L 242.3,275.5 L 241.3,277.2 L 239.8,279.0 L 238.6,279.8 L 237.8,280.1 L 237.0,280.7 L 234.6,284.4 L 234.3,285.3 L 233.8,286.1 L 231.9,289.6 L 231.6,292.7 L 231.3,293.7 L 229.8,295.5 L 228.6,296.4 L 228.4,296.1 L 227.9,295.8 L 227.1,295.2 L 226.6,295.2 L 225.0,296.6 L 224.5,296.9 L 224.0,297.5 L 222.9,299.6 L 223.4,300.3 L 223.2,301.3 L 222.0,301.9 L 220.7,301.9 L 220.6,302.4 L 220.9,303.1 L 220.9,303.5 L 219.9,303.8 L 219.2,304.5 L 218.5,305.6 L 218.4,307.9 L 218.9,308.2 L 218.5,309.2 L 218.9,309.4 L 218.5,310.2 L 218.1,310.8 L 218.4,311.3 L 218.1,312.1 L 218.4,312.4 L 219.0,312.6 L 219.4,313.1 L 220.3,313.0 L 221.2,313.5 L 221.9,314.5 L 221.6,315.5 L 221.8,315.8 L 223.2,316.7 L 223.1,317.5 L 222.6,318.8 L 221.7,320.2 L 220.9,321.2 L 219.9,323.3 L 219.8,324.1 L 218.8,325.8 L 218.8,326.8 L 217.4,328.8 L 216.3,329.4 L 214.7,331.5 L 213.9,332.3 L 213.5,332.8 L 213.1,333.2 L 212.5,332.7 L 212.0,332.1 L 210.5,331.7 L 209.4,331.8 L 208.0,332.9 L 204.4,334.4 L 203.7,335.0 L 202.3,337.0 L 201.3,338.3 L 200.6,339.5 L 200.5,339.7 L 199.1,340.6 L 198.0,341.0 L 197.1,341.6 L 196.2,341.7 L 195.3,342.5 L 194.0,342.7 L 193.9,342.8 L 190.4,344.0 L 189.3,345.1 L 187.8,345.3 L 184.6,346.9 L 183.7,348.2 L 183.7,349.0 L 184.0,349.3 L 184.1,349.6 L 183.7,350.4 L 184.5,351.9 L 184.4,353.8 L 184.2,354.1 L 184.4,355.1 L 183.5,357.1 L 181.2,358.8 L 179.4,359.7 L 178.0,360.0 L 175.5,360.0 L 174.5,359.7 L 174.0,358.9 L 173.9,357.0 L 173.7,356.6 L 173.7,355.8 L 173.2,354.3 L 173.0,353.6 L 173.0,353.3 L 172.8,352.6 L 172.3,352.5 L 172.2,352.7 L 172.2,352.5 L 128.4,266.1 L 129.7,265.4 L 132.1,262.3 L 132.8,262.1 L 133.3,261.8 L 134.3,260.7 L 135.2,259.9 L 136.6,259.7 L 137.5,259.4 L 139.3,259.3 L 140.4,258.7 L 141.1,258.0 L 141.8,257.1 L 144.5,253.4 L 145.3,251.8 L 146.1,249.9 L 148.1,247.4 L 148.8,245.2 L 148.9,243.8 L 149.4,242.9 L 149.9,242.2" fill="none" stroke="black" stroke-width="2"/>
</svg>