<?xml version="1.0" encoding="UTF-8"?>
<svg width="400" height="400" viewBox="0 0 400 400" xmlns="http://www.w3.org/2000/svg">
  <rect width="400" height="400" fill="white"/>
  <path d="M 183.6,219.2 L 184.5,217.0 L 184.8,215.9 L 184.6,215.2 L 184.3,214.5 L 183.9,213.4 L 181.8,213.4 L 180.5,214.4 L 180.0,214.1 L 179.9,213.9 L 180.1,213.4 L 179.5,212.3 L 179.3,211.5 L 179.4,210.9 L 179.5,210.3 L 179.3,209.4 L 178.9,209.2 L 178.3,209.2 L 177.5,209.8 L 176.6,210.6 L 176.4,210.6 L 176.6,67.8 L 176.9,67.7 L 177.2,67.2 L 177.1,67.0 L 176.6,67.0 L 176.6,67.1 L 176.6,65.6 L 176.8,65.5 L 176.7,65.1 L 176.6,65.0 L 176.6,64.7 L 176.6,64.6 L 176.7,64.7 L 177.3,64.3 L 178.4,64.4 L 179.1,63.9 L 179.5,63.6 L 180.4,62.5 L 180.6,61.5 L 181.2,60.9 L 182.0,60.7 L 183.2,59.6 L 184.0,58.6 L 185.0,56.9 L 186.0,53.8 L 186.2,52.1 L 187.4,50.0 L 188.8,47.4 L 189.4,45.8 L 190.6,42.9 L 191.9,41.2 L 192.4,40.8 L 192.8,40.0 L 192.8,40.0 L 203.2,46.0 L 203.3,46.1 L 202.9,46.5 L 201.6,48.8 L 201.4,50.5 L 201.5,51.2 L 202.0,52.1 L 203.2,52.2 L 203.9,52.4 L 204.5,52.3 L 204.7,52.0 L 204.5,51.9 L 204.0,51.8 L 203.9,51.3 L 204.2,50.8 L 204.7,50.9 L 204.9,51.5 L 205.2,51.3 L 205.9,50.7 L 206.3,49.9 L 240.1,66.6 L 239.2,68.2 L 238.9,68.8 L 238.0,69.9 L 237.3,71.0 L 236.3,72.1 L 235.5,73.3 L 234.3,74.8 L 232.7,77.6 L 232.0,78.6 L 231.2,78.9 L 230.7,78.6 L 230.2,78.9 L 226.5,83.9 L 225.0,86.4 L 224.5,87.4 L 223.6,88.7 L 222.6,90.6 L 222.3,91.6 L 220.8,94.1 L 220.2,95.6 L 219.5,97.0 L 219.3,100.0 L 218.8,101.1 L 218.8,102.1 L 219.0,102.4 L 220.4,102.8 L 220.7,102.8 L 220.9,102.9 L 221.2,103.5 L 221.3,104.5 L 221.0,105.2 L 219.0,108.1 L 218.6,109.2 L 217.5,110.8 L 217.4,112.0 L 217.7,112.3 L 218.3,112.5 L 218.9,112.5 L 219.5,112.2 L 220.0,112.3 L 220.2,112.6 L 220.3,113.2 L 219.3,114.8 L 219.2,115.3 L 219.5,116.1 L 218.8,117.2 L 218.6,118.0 L 218.1,118.7 L 217.9,119.9 L 218.0,120.5 L 218.0,121.3 L 217.8,121.7 L 217.2,122.0 L 216.8,122.4 L 216.5,123.1 L 216.2,123.6 L 216.2,124.9 L 216.5,125.3 L 216.7,125.2 L 217.2,125.1 L 217.8,125.1 L 218.1,125.6 L 217.8,126.1 L 217.8,126.6 L 218.0,127.1 L 218.5,126.8 L 220.0,125.5 L 221.6,123.6 L 222.1,123.3 L 223.6,121.7 L 224.5,120.7 L 227.0,118.8 L 228.5,117.8 L 229.6,116.8 L 230.5,116.7 L 230.6,116.8 L 230.3,117.5 L 230.7,117.5 L 232.3,116.1 L 233.0,115.0 L 233.4,114.7 L 234.4,114.5 L 235.4,114.8 L 236.3,114.4 L 237.1,114.1 L 238.5,113.0 L 239.2,112.1 L 242.9,107.3 L 244.8,105.6 L 245.8,105.4 L 246.4,105.4 L 246.6,105.9 L 247.0,105.7 L 247.3,105.7 L 247.6,105.2 L 247.4,104.9 L 247.3,103.9 L 247.4,103.5 L 248.3,102.5 L 248.8,101.5 L 249.1,100.5 L 249.1,99.8 L 249.6,99.9 L 249.8,100.4 L 249.0,102.8 L 248.0,103.9 L 248.5,104.8 L 247.8,105.7 L 247.6,106.3 L 247.1,107.4 L 246.8,108.5 L 246.6,108.6 L 246.4,108.1 L 246.2,108.2 L 246.1,108.9 L 242.6,114.1 L 241.7,116.3 L 240.7,118.2 L 239.8,119.3 L 239.2,120.1 L 237.0,123.2 L 236.4,123.8 L 235.5,123.9 L 235.2,124.1 L 234.1,125.6 L 233.6,127.0 L 232.8,128.0 L 231.7,128.0 L 231.0,128.7 L 229.0,130.9 L 228.4,131.8 L 227.3,133.3 L 226.0,134.4 L 224.7,135.2 L 223.6,136.1 L 221.5,138.6 L 220.7,139.7 L 220.5,140.8 L 219.4,142.8 L 219.4,143.3 L 219.9,143.3 L 221.3,142.1 L 224.1,139.1 L 225.3,137.4 L 227.5,134.8 L 228.3,134.2 L 228.8,134.2 L 229.4,133.8 L 230.4,132.9 L 231.4,132.5 L 232.3,132.7 L 234.0,133.7 L 234.5,134.4 L 234.9,135.8 L 234.8,138.9 L 234.6,141.2 L 234.3,142.4 L 234.0,143.2 L 233.4,145.1 L 232.5,146.4 L 231.6,147.8 L 230.2,149.6 L 229.6,150.2 L 229.3,150.5 L 227.6,151.6 L 226.1,152.9 L 224.0,155.2 L 223.2,156.2 L 222.5,158.1 L 222.4,159.3 L 223.0,161.4 L 224.5,163.1 L 224.6,164.3 L 224.9,164.6 L 226.0,164.6 L 226.6,165.3 L 226.6,165.9 L 226.3,166.6 L 226.2,167.2 L 226.6,167.8 L 227.0,167.9 L 227.0,168.7 L 234.9,240.5 L 234.9,240.5 L 233.9,241.2 L 233.3,241.5 L 231.7,242.7 L 228.8,245.5 L 227.7,246.8 L 226.3,248.0 L 224.3,249.4 L 223.6,250.2 L 223.8,251.2 L 224.2,251.9 L 224.7,252.1 L 225.8,252.0 L 226.8,251.6 L 228.5,250.6 L 229.5,250.2 L 231.3,250.3 L 232.9,249.6 L 235.9,247.2 L 239.0,249.2 L 239.2,249.3 L 239.2,249.5 L 239.4,249.9 L 239.2,250.5 L 239.1,251.1 L 238.2,252.8 L 237.9,254.7 L 237.4,255.3 L 236.3,256.1 L 235.6,257.0 L 234.7,258.0 L 234.1,258.7 L 233.4,259.4 L 232.1,259.7 L 230.1,261.6 L 226.0,267.4 L 225.9,267.6 L 225.7,268.9 L 226.0,271.0 L 226.0,272.8 L 225.1,274.0 L 224.3,275.6 L 223.9,276.5 L 222.9,280.5 L 222.7,284.6 L 223.3,286.4 L 223.4,287.6 L 223.2,288.6 L 222.1,290.4 L 221.5,291.8 L 221.4,293.2 L 221.6,293.6 L 221.2,296.9 L 221.1,302.0 L 221.1,303.2 L 220.9,306.2 L 221.3,309.9 L 221.4,310.4 L 221.9,311.7 L 222.9,312.9 L 223.6,313.9 L 223.7,314.3 L 223.8,314.8 L 223.3,315.6 L 223.1,316.5 L 223.2,317.7 L 223.7,318.8 L 224.5,320.3 L 226.3,322.8 L 226.7,323.3 L 227.9,325.6 L 228.4,327.2 L 228.3,329.0 L 227.3,330.2 L 227.2,331.2 L 226.0,332.1 L 226.0,332.4 L 226.4,332.8 L 226.4,334.3 L 225.6,335.2 L 225.5,335.6 L 225.7,336.5 L 225.3,337.1 L 224.2,339.3 L 223.9,340.0 L 223.4,341.0 L 222.8,342.8 L 222.4,343.2 L 222.2,345.5 L 222.0,346.0 L 222.1,347.6 L 222.1,348.8 L 221.9,349.8 L 220.9,352.1 L 219.4,354.0 L 218.3,356.1 L 216.5,358.2 L 216.6,359.4 L 217.2,360.0 L 153.1,348.3 L 153.2,348.0 L 153.1,347.7 L 152.9,347.9 L 152.6,348.1 L 152.6,348.2 L 151.4,348.0 L 152.4,347.0 L 152.9,346.7 L 153.2,346.4 L 153.8,345.7 L 154.6,344.2 L 155.3,341.8 L 155.6,339.6 L 155.8,339.0 L 156.0,337.7 L 156.5,336.7 L 157.1,334.1 L 158.5,331.7 L 160.8,326.8 L 161.3,324.7 L 162.6,322.8 L 163.1,322.2 L 163.2,321.5 L 163.0,320.9 L 161.5,319.8 L 161.1,319.2 L 161.0,318.7 L 161.9,316.4 L 162.4,315.0 L 162.3,314.1 L 161.4,312.9 L 161.0,312.6 L 157.7,311.8 L 157.1,311.4 L 152.9,310.6 L 151.0,310.3 L 150.5,309.8 L 150.2,310.1 L 150.3,309.8 L 151.2,308.2 L 151.4,308.0 L 151.5,306.9 L 152.2,306.2 L 152.8,306.3 L 152.9,306.5 L 152.9,306.6 L 152.9,307.0 L 153.0,307.6 L 153.8,307.7 L 154.4,307.8 L 155.8,307.7 L 156.6,307.0 L 157.1,306.2 L 158.6,305.7 L 160.2,303.9 L 161.4,304.1 L 162.5,303.4 L 162.8,302.5 L 163.6,301.3 L 163.7,301.0 L 163.7,300.5 L 164.1,299.8 L 164.3,298.9 L 165.7,297.2 L 166.0,297.0 L 166.6,296.7 L 167.1,296.1 L 167.4,295.4 L 168.2,294.0 L 168.6,292.9 L 168.8,290.8 L 168.5,289.6 L 167.9,288.8 L 167.7,288.1 L 167.6,286.2 L 167.7,285.4 L 168.1,284.9 L 168.6,285.5 L 169.6,284.4 L 170.1,284.3 L 170.9,282.8 L 170.9,281.8 L 170.6,280.2 L 170.8,279.3 L 170.9,277.8 L 170.2,276.5 L 169.8,276.3 L 169.4,275.7 L 169.4,274.4 L 169.0,273.0 L 170.4,270.6 L 170.7,269.6 L 170.7,267.8 L 169.7,265.2 L 169.1,264.2 L 168.0,263.3 L 167.2,261.5 L 166.6,261.2 L 166.1,259.9 L 165.9,259.1 L 165.6,258.5 L 163.1,257.0 L 163.0,256.3 L 163.6,255.3 L 163.9,255.4 L 164.2,255.6 L 165.5,257.1 L 166.6,257.0 L 167.8,256.9 L 168.1,257.1 L 168.7,258.1 L 168.7,259.1 L 169.1,259.7 L 169.2,260.6 L 169.4,261.0 L 169.8,260.9 L 170.5,260.3 L 170.6,259.8 L 171.3,258.4 L 172.1,258.3 L 172.7,257.7 L 172.8,256.2 L 172.6,255.6 L 172.7,255.1 L 173.1,254.0 L 172.8,252.5 L 172.5,251.7 L 172.8,250.8 L 172.5,249.8 L 172.6,248.1 L 172.2,248.2 L 171.9,247.3 L 171.9,245.7 L 172.3,244.8 L 172.9,244.0 L 173.7,244.0 L 174.0,243.7 L 173.8,243.0 L 174.1,242.7 L 174.4,242.7 L 175.1,241.4 L 175.1,241.0 L 175.8,240.6 L 176.3,239.7 L 177.0,238.5 L 177.6,238.4 L 178.4,237.8 L 179.1,236.6 L 179.1,236.5 L 179.4,235.7 L 179.2,235.1 L 178.5,234.9 L 178.5,234.0 L 177.8,233.2 L 177.7,232.2 L 177.9,231.5 L 178.5,230.2 L 178.6,229.6 L 178.7,229.0 L 179.1,228.8 L 179.7,228.8 L 181.0,227.4 L 181.7,226.4 L 182.2,225.8 L 183.5,222.3 L 183.9,221.5 L 184.2,220.6 L 184.2,219.7 L 183.9,219.4 L 183.6,219.2" fill="none" stroke="black" stroke-width="2"/>
</svg>