<?xml version="1.0" encoding="UTF-8"?>
<svg width="400" height="400" viewBox="0 0 400 400" xmlns="http://www.w3.org/2000/svg">
  <rect width="400" height="400" fill="white"/>
  <path d="M 42.4,228.8 L 42.4,228.8 L 41.0,209.3 L 41.9,209.1 L 42.6,208.8 L 43.2,208.4 L 43.9,208.2 L 46.8,207.1 L 47.5,206.5 L 48.3,206.4 L 49.4,206.0 L 51.3,205.6 L 52.1,205.6 L 52.8,206.0 L 52.4,206.3 L 52.3,206.5 L 51.4,207.0 L 51.1,207.2 L 52.1,207.0 L 53.7,206.5 L 58.2,204.6 L 58.5,204.3 L 59.3,203.8 L 59.6,203.8 L 60.1,203.8 L 63.1,203.7 L 63.6,203.3 L 63.8,202.8 L 63.6,202.5 L 63.7,202.1 L 64.0,201.8 L 65.9,201.2 L 68.0,200.7 L 68.7,200.8 L 68.9,201.1 L 68.8,201.3 L 68.8,201.5 L 69.3,201.5 L 70.0,201.3 L 70.4,201.2 L 70.4,200.9 L 70.4,200.8 L 70.6,200.4 L 70.9,200.1 L 72.3,199.7 L 73.7,199.2 L 74.2,199.0 L 74.4,199.1 L 74.3,199.2 L 74.4,199.5 L 74.9,199.2 L 75.1,199.2 L 75.7,198.8 L 76.2,198.7 L 76.6,198.4 L 77.7,198.4 L 78.9,198.1 L 80.2,197.4 L 80.4,197.2 L 80.6,196.8 L 81.0,196.5 L 81.8,196.2 L 82.8,195.4 L 83.4,195.3 L 83.5,195.8 L 83.9,195.7 L 84.8,195.2 L 85.0,195.2 L 85.1,195.5 L 85.5,195.4 L 85.9,195.2 L 85.9,195.0 L 85.8,194.8 L 85.9,194.6 L 86.8,194.5 L 87.0,194.6 L 87.6,194.6 L 87.9,194.5 L 88.6,194.3 L 89.3,194.2 L 90.2,194.0 L 90.9,194.0 L 92.5,193.4 L 93.6,193.3 L 94.7,192.9 L 95.0,192.8 L 95.6,192.7 L 95.9,193.0 L 97.0,192.6 L 97.5,192.4 L 99.6,191.9 L 100.3,191.6 L 102.5,191.0 L 103.4,190.6 L 105.2,190.0 L 106.6,189.4 L 107.0,189.1 L 107.1,188.9 L 107.3,189.0 L 107.5,188.9 L 107.7,188.4 L 108.3,187.8 L 109.1,187.1 L 109.2,187.2 L 109.3,187.3 L 109.7,187.6 L 110.2,187.5 L 110.6,187.1 L 111.3,186.9 L 112.3,186.5 L 112.6,186.6 L 112.7,186.8 L 112.8,187.2 L 113.2,187.6 L 113.3,187.8 L 113.7,187.8 L 114.7,187.5 L 116.2,187.1 L 118.6,186.2 L 119.4,186.0 L 119.7,186.0 L 120.1,186.1 L 121.0,186.0 L 121.7,185.8 L 124.4,184.7 L 124.8,184.7 L 125.4,184.5 L 126.0,184.5 L 126.0,184.8 L 126.5,184.8 L 127.4,184.3 L 127.5,184.0 L 127.8,183.7 L 128.2,183.5 L 130.7,182.8 L 131.9,182.5 L 132.6,182.2 L 132.9,182.3 L 133.3,182.5 L 134.9,182.4 L 135.4,182.3 L 135.9,182.4 L 136.4,182.7 L 136.8,183.4 L 137.3,183.4 L 137.7,183.3 L 137.8,183.3 L 137.9,183.2 L 138.6,183.2 L 139.7,183.2 L 140.2,183.0 L 140.2,182.8 L 139.9,182.7 L 139.8,182.5 L 139.9,182.3 L 140.6,181.9 L 142.8,181.3 L 143.6,181.3 L 144.1,181.2 L 145.4,180.8 L 145.8,180.4 L 146.4,180.4 L 146.7,180.3 L 147.5,180.1 L 149.1,179.9 L 150.8,179.4 L 152.1,179.3 L 153.1,179.5 L 153.3,179.7 L 153.3,180.0 L 153.3,180.2 L 153.4,180.4 L 153.7,180.5 L 154.6,180.5 L 155.2,180.3 L 155.6,180.5 L 156.3,180.5 L 156.7,180.6 L 157.2,180.5 L 158.0,179.9 L 158.3,179.5 L 159.4,179.6 L 159.9,179.7 L 160.6,179.8 L 161.1,179.9 L 162.9,180.1 L 163.2,180.3 L 163.6,180.5 L 164.0,181.1 L 164.0,181.6 L 163.7,182.1 L 163.9,182.5 L 164.2,182.7 L 164.8,182.5 L 166.2,182.7 L 166.7,183.1 L 167.3,183.1 L 167.7,183.5 L 168.3,183.5 L 168.5,183.8 L 168.7,184.0 L 169.6,184.2 L 169.9,184.1 L 170.4,183.5 L 170.8,183.7 L 171.4,183.4 L 171.8,183.3 L 172.5,182.9 L 173.1,182.8 L 173.5,182.9 L 174.3,182.9 L 175.4,182.4 L 175.5,182.2 L 175.7,181.6 L 176.0,181.3 L 176.5,181.2 L 177.3,181.2 L 178.0,181.5 L 178.3,182.0 L 179.2,182.0 L 179.7,181.8 L 180.0,181.9 L 180.1,182.0 L 180.4,182.4 L 180.7,183.0 L 180.7,183.3 L 180.6,183.7 L 180.4,184.8 L 180.6,185.0 L 181.1,185.1 L 181.2,185.2 L 181.0,185.7 L 181.0,186.0 L 181.1,186.4 L 180.8,187.0 L 181.1,187.2 L 181.1,187.5 L 181.4,187.9 L 182.0,188.1 L 182.4,187.9 L 182.9,187.9 L 183.2,188.3 L 183.7,188.4 L 184.1,188.5 L 184.4,188.6 L 184.4,189.5 L 184.5,189.8 L 185.1,189.9 L 185.3,190.2 L 185.6,190.4 L 187.9,190.2 L 188.7,189.8 L 191.3,189.4 L 192.2,189.3 L 192.8,189.0 L 193.5,188.8 L 194.0,188.7 L 194.9,189.0 L 196.6,188.7 L 198.7,188.1 L 199.6,188.0 L 199.8,188.1 L 200.3,188.5 L 202.5,188.6 L 205.5,189.0 L 205.9,189.0 L 209.4,189.1 L 209.9,189.2 L 210.8,189.2 L 211.7,188.9 L 213.3,188.8 L 214.3,188.6 L 215.9,188.1 L 216.7,187.6 L 217.4,187.7 L 218.2,187.7 L 219.0,187.3 L 219.7,187.3 L 221.4,186.5 L 222.3,186.5 L 222.9,186.3 L 223.5,186.4 L 223.9,186.1 L 224.4,186.0 L 224.8,186.0 L 225.1,185.7 L 225.7,185.9 L 226.1,186.4 L 226.5,186.2 L 226.6,186.4 L 226.6,186.8 L 227.0,186.7 L 227.3,186.5 L 227.5,186.1 L 227.9,185.7 L 228.9,184.4 L 229.8,183.6 L 230.4,183.3 L 230.4,182.7 L 230.8,181.9 L 232.2,181.5 L 232.7,181.1 L 232.8,180.6 L 233.5,179.4 L 234.2,179.1 L 235.9,178.6 L 236.3,178.3 L 236.7,178.1 L 237.1,177.9 L 239.4,178.0 L 240.2,177.6 L 242.2,177.3 L 243.7,176.9 L 244.6,176.5 L 245.4,175.9 L 245.8,175.7 L 246.3,175.3 L 246.8,175.1 L 248.2,174.2 L 249.2,173.7 L 249.7,173.9 L 250.1,173.7 L 250.4,173.4 L 250.9,173.3 L 252.4,172.6 L 253.8,171.5 L 254.1,171.1 L 255.0,169.7 L 255.3,169.5 L 255.4,169.4 L 256.6,169.1 L 257.3,168.7 L 257.4,167.7 L 257.8,167.5 L 258.0,167.5 L 258.1,167.7 L 258.3,168.1 L 258.6,168.5 L 259.1,168.6 L 260.3,168.5 L 262.4,168.0 L 262.7,168.0 L 263.0,168.2 L 263.5,168.1 L 264.3,167.6 L 264.7,167.4 L 266.4,166.2 L 266.8,166.3 L 267.0,166.4 L 267.7,166.7 L 267.9,166.9 L 268.1,167.4 L 267.7,168.4 L 267.8,168.6 L 268.4,168.5 L 269.3,168.2 L 270.7,167.7 L 272.9,166.6 L 273.5,166.0 L 273.4,165.9 L 272.9,165.9 L 272.9,165.6 L 273.2,165.5 L 273.1,165.3 L 272.6,165.2 L 272.5,164.9 L 272.5,164.4 L 272.9,162.8 L 273.2,161.9 L 273.6,161.4 L 274.5,160.6 L 275.3,160.1 L 276.4,159.8 L 277.2,159.6 L 279.3,157.9 L 280.2,157.4 L 281.7,157.2 L 283.3,157.1 L 284.9,156.5 L 285.9,156.3 L 288.0,156.1 L 289.8,156.2 L 291.0,156.5 L 291.8,156.5 L 292.7,156.1 L 293.1,156.1 L 293.6,156.5 L 293.8,156.4 L 294.4,155.7 L 297.6,155.0 L 298.3,154.8 L 298.6,154.6 L 298.7,154.0 L 299.1,153.5 L 300.9,153.1 L 301.3,152.7 L 301.6,152.3 L 301.2,152.2 L 300.5,151.8 L 299.6,151.7 L 299.5,151.6 L 299.9,151.4 L 301.2,150.7 L 303.0,150.2 L 304.5,149.7 L 305.0,149.1 L 305.5,148.9 L 306.3,148.7 L 307.0,148.3 L 310.3,146.6 L 311.5,145.6 L 312.0,145.4 L 312.1,145.4 L 311.9,145.7 L 312.0,146.1 L 312.0,146.3 L 311.2,147.1 L 311.3,147.2 L 311.9,147.2 L 312.3,146.9 L 313.7,146.8 L 313.9,146.6 L 313.9,146.4 L 313.7,146.4 L 313.7,146.1 L 314.3,145.8 L 315.1,145.6 L 315.7,145.6 L 316.6,145.4 L 317.1,145.4 L 317.3,145.6 L 317.5,145.5 L 318.5,145.2 L 320.0,144.9 L 320.8,144.3 L 322.0,143.7 L 322.4,143.5 L 322.8,143.3 L 323.1,143.0 L 323.1,142.9 L 323.3,142.6 L 323.8,142.2 L 324.5,142.0 L 325.1,141.5 L 327.3,141.0 L 328.0,140.8 L 329.7,140.1 L 330.4,139.9 L 329.6,141.3 L 328.7,142.2 L 328.4,142.7 L 328.5,142.8 L 328.8,142.7 L 329.4,142.5 L 329.8,142.5 L 330.6,142.1 L 330.9,141.8 L 331.0,141.9 L 330.8,142.0 L 330.6,142.3 L 330.7,142.8 L 330.7,143.3 L 330.4,143.6 L 329.6,143.9 L 329.2,144.3 L 329.0,144.9 L 329.5,144.9 L 330.4,144.4 L 331.0,144.3 L 331.2,143.9 L 331.8,143.4 L 332.2,143.4 L 332.9,143.4 L 333.2,143.2 L 334.7,142.5 L 335.4,142.4 L 335.9,142.2 L 336.8,142.3 L 337.6,142.1 L 339.4,141.5 L 340.4,141.0 L 341.3,140.4 L 342.6,139.9 L 343.6,139.5 L 344.7,138.5 L 346.0,137.8 L 346.6,137.8 L 347.0,137.8 L 347.3,138.1 L 347.6,138.1 L 348.2,137.7 L 349.0,137.4 L 349.4,137.0 L 349.9,136.1 L 350.4,135.7 L 351.0,135.7 L 351.7,135.9 L 352.3,135.6 L 352.5,135.3 L 352.7,134.3 L 353.0,134.1 L 353.3,134.1 L 353.1,135.1 L 353.3,135.5 L 353.5,135.8 L 353.8,135.7 L 354.3,135.3 L 354.6,135.2 L 354.7,134.6 L 355.3,134.5 L 355.8,134.3 L 356.4,134.4 L 357.1,134.8 L 358.1,135.8 L 358.5,136.1 L 358.8,136.7 L 359.4,138.3 L 360.0,138.6 L 360.0,139.1 L 359.9,139.2 L 359.6,139.4 L 359.4,140.3 L 358.9,140.9 L 357.2,141.7 L 356.0,141.9 L 355.3,141.7 L 354.5,142.2 L 353.7,142.6 L 352.3,143.4 L 351.2,144.2 L 350.4,144.6 L 350.0,145.0 L 350.0,145.3 L 349.4,146.4 L 349.1,146.8 L 348.3,147.1 L 348.1,147.3 L 348.1,147.6 L 348.4,147.5 L 350.1,146.9 L 350.9,146.4 L 351.5,146.1 L 352.4,146.0 L 352.9,146.1 L 352.9,146.3 L 352.8,146.4 L 352.8,146.7 L 351.9,146.8 L 350.0,147.5 L 348.5,148.1 L 346.7,149.5 L 345.1,151.2 L 344.8,151.2 L 343.8,152.1 L 343.0,152.5 L 342.1,152.9 L 340.9,153.7 L 340.9,154.1 L 340.3,154.7 L 340.2,155.3 L 339.7,155.9 L 339.5,156.7 L 339.7,157.1 L 338.7,158.2 L 338.0,158.7 L 337.5,158.9 L 336.9,158.8 L 336.5,158.7 L 335.9,158.8 L 335.3,159.0 L 334.1,160.1 L 333.3,160.4 L 332.7,160.7 L 332.3,160.7 L 331.9,161.0 L 331.4,161.1 L 330.8,161.6 L 329.8,161.8 L 329.1,162.3 L 327.9,162.6 L 327.5,162.8 L 327.2,163.3 L 326.7,163.9 L 326.5,164.3 L 326.0,164.8 L 325.5,164.9 L 324.9,164.6 L 324.4,164.6 L 323.4,164.9 L 323.1,165.1 L 322.3,165.6 L 321.2,165.4 L 320.6,165.5 L 320.0,166.0 L 318.9,166.4 L 317.8,167.0 L 315.9,168.8 L 315.5,169.5 L 315.3,169.8 L 315.1,169.7 L 314.4,169.7 L 313.8,169.8 L 313.0,170.3 L 311.3,170.3 L 310.5,170.1 L 309.9,169.7 L 309.3,169.7 L 309.0,170.0 L 308.8,170.6 L 308.6,170.7 L 307.9,170.1 L 306.6,170.1 L 304.8,170.3 L 304.0,170.7 L 303.6,171.2 L 303.5,171.6 L 303.7,172.0 L 303.6,172.2 L 302.9,172.2 L 302.6,172.1 L 301.9,172.1 L 301.6,172.4 L 301.6,172.7 L 301.7,172.8 L 302.3,172.9 L 302.3,173.1 L 300.4,174.2 L 299.4,175.1 L 298.8,175.8 L 298.5,176.5 L 297.8,177.6 L 297.3,178.0 L 296.4,177.5 L 295.2,177.4 L 293.8,177.9 L 292.5,178.8 L 291.1,179.3 L 289.1,179.8 L 287.5,180.4 L 286.3,181.1 L 286.0,181.3 L 284.8,182.4 L 284.5,183.0 L 284.6,183.1 L 285.0,183.2 L 285.1,183.3 L 285.0,183.9 L 283.8,185.5 L 283.1,187.2 L 282.6,187.9 L 281.8,188.5 L 279.8,189.2 L 278.8,189.8 L 278.0,189.8 L 277.8,190.2 L 276.9,191.1 L 276.4,191.8 L 276.1,192.8 L 275.5,194.2 L 274.1,195.6 L 273.1,196.2 L 272.4,196.5 L 270.7,196.4 L 269.6,196.6 L 269.0,196.8 L 268.4,197.0 L 268.0,197.0 L 267.3,196.6 L 267.0,196.6 L 266.1,196.6 L 265.2,197.1 L 264.3,198.2 L 264.0,198.6 L 263.9,199.4 L 264.1,199.9 L 264.3,200.1 L 264.5,200.3 L 264.7,200.9 L 265.0,201.9 L 265.3,202.2 L 265.3,202.6 L 264.7,204.9 L 264.3,206.5 L 264.3,206.8 L 264.1,207.6 L 263.5,209.2 L 263.4,209.6 L 263.3,209.6 L 242.4,211.8 L 242.4,211.4 L 242.3,211.2 L 241.4,211.2 L 241.2,211.2 L 241.1,211.3 L 239.1,211.7 L 238.2,212.1 L 237.4,212.2 L 236.7,212.6 L 235.6,212.7 L 234.6,213.7 L 233.6,214.2 L 231.9,214.6 L 231.1,214.9 L 230.6,215.5 L 228.7,216.8 L 228.2,217.5 L 228.2,218.0 L 227.7,219.1 L 227.6,219.7 L 227.1,220.6 L 226.0,221.6 L 225.2,221.7 L 223.4,221.9 L 221.0,222.3 L 220.3,222.3 L 219.6,222.2 L 219.0,222.3 L 218.6,222.5 L 217.7,222.7 L 217.3,222.8 L 216.9,222.4 L 216.5,222.5 L 216.3,222.5 L 213.3,222.5 L 212.0,222.6 L 210.4,222.9 L 208.4,223.7 L 208.3,223.9 L 209.2,223.9 L 209.3,224.0 L 208.7,225.0 L 208.8,225.1 L 210.1,224.9 L 210.5,225.0 L 210.7,225.5 L 210.6,226.6 L 210.4,226.8 L 209.8,227.0 L 208.7,227.4 L 208.4,227.7 L 207.9,228.3 L 207.9,228.3 L 206.6,229.2 L 206.2,229.4 L 205.8,229.7 L 205.5,229.7 L 204.9,229.7 L 204.4,229.9 L 202.5,229.9 L 201.5,230.0 L 200.4,230.4 L 199.5,230.5 L 199.3,230.7 L 199.4,231.0 L 199.4,231.2 L 198.8,231.4 L 198.4,231.7 L 198.2,232.0 L 198.4,232.1 L 199.0,232.0 L 199.4,231.9 L 199.7,232.0 L 199.7,232.4 L 199.4,232.6 L 198.4,232.6 L 196.9,232.8 L 195.2,233.3 L 194.9,234.0 L 194.6,234.2 L 194.5,234.1 L 194.4,234.3 L 193.7,234.5 L 193.0,234.3 L 191.7,234.1 L 191.5,234.2 L 191.1,234.3 L 190.8,234.5 L 189.9,234.8 L 189.3,235.0 L 189.1,235.0 L 188.9,235.2 L 188.7,235.5 L 187.6,235.5 L 187.4,235.7 L 186.3,235.6 L 185.0,236.0 L 184.2,236.1 L 183.9,236.3 L 183.9,236.7 L 183.5,236.8 L 183.1,237.0 L 182.9,237.3 L 181.1,238.1 L 179.3,238.3 L 178.6,238.6 L 178.0,239.1 L 178.0,239.5 L 177.1,239.8 L 175.7,239.9 L 175.2,240.2 L 174.6,240.6 L 174.0,240.6 L 173.0,240.8 L 172.8,240.9 L 172.4,241.8 L 171.8,242.2 L 171.6,242.3 L 170.5,242.3 L 169.1,242.4 L 168.9,242.6 L 168.3,242.7 L 166.7,242.6 L 163.6,243.0 L 162.7,243.2 L 159.8,243.5 L 158.3,244.1 L 157.5,244.2 L 157.3,244.4 L 156.3,244.5 L 155.1,245.1 L 152.3,245.2 L 151.4,245.4 L 149.8,245.3 L 147.7,246.7 L 146.7,247.6 L 146.6,247.6 L 146.0,247.8 L 145.3,248.2 L 144.5,248.2 L 144.3,248.3 L 143.6,248.4 L 142.0,249.1 L 141.1,249.4 L 140.8,249.5 L 140.5,249.6 L 140.3,250.0 L 140.0,250.2 L 138.5,251.5 L 137.8,251.9 L 137.5,251.8 L 136.5,251.7 L 135.0,252.0 L 134.7,251.8 L 134.0,251.9 L 133.8,251.5 L 133.3,251.6 L 132.6,251.6 L 132.1,251.9 L 131.7,251.7 L 131.3,251.9 L 130.9,252.0 L 131.0,251.6 L 131.8,250.9 L 132.0,250.5 L 132.3,250.4 L 132.7,250.0 L 132.1,249.9 L 131.9,250.0 L 131.3,250.2 L 130.6,250.5 L 129.2,250.6 L 128.5,250.9 L 127.2,251.0 L 127.1,250.9 L 126.8,251.0 L 126.5,250.7 L 125.6,250.6 L 123.3,250.9 L 121.5,251.7 L 120.7,251.6 L 119.8,251.7 L 118.9,252.0 L 117.9,252.4 L 117.4,252.5 L 116.9,252.7 L 116.6,253.1 L 116.2,253.4 L 115.7,253.5 L 115.5,253.7 L 113.7,254.3 L 112.6,254.6 L 111.6,255.1 L 111.1,254.8 L 109.4,255.3 L 108.4,255.9 L 108.0,256.4 L 107.0,256.7 L 106.6,256.8 L 106.4,256.7 L 105.9,256.6 L 105.8,256.5 L 103.9,256.3 L 102.7,256.6 L 101.7,257.0 L 100.9,257.2 L 100.5,257.7 L 100.1,257.8 L 99.9,258.0 L 99.7,258.3 L 99.1,259.0 L 98.7,258.4 L 98.7,258.4 L 98.5,258.3 L 98.2,258.6 L 97.5,258.8 L 95.9,259.6 L 95.0,260.0 L 94.1,260.2 L 93.4,260.9 L 92.7,261.0 L 92.0,261.2 L 91.5,261.3 L 91.3,261.2 L 91.3,260.9 L 91.4,260.6 L 91.3,260.1 L 91.1,259.6 L 90.5,259.6 L 89.5,259.7 L 89.4,259.6 L 88.1,259.8 L 86.8,260.3 L 85.7,260.9 L 85.0,261.1 L 84.1,261.8 L 82.8,262.1 L 81.0,262.9 L 80.4,262.8 L 79.7,262.6 L 78.6,262.7 L 77.6,262.9 L 76.4,262.9 L 75.3,263.2 L 74.5,263.7 L 74.2,263.5 L 74.0,263.4 L 72.5,263.8 L 70.4,264.8 L 69.6,265.3 L 68.8,265.8 L 68.5,265.9 L 68.5,265.9 L 53.0,233.0 L 53.3,232.8 L 53.4,232.6 L 53.2,232.5 L 52.8,232.6 L 52.0,232.7 L 51.4,233.0 L 49.7,233.7 L 48.7,234.0 L 45.6,235.4 L 43.1,236.6 L 42.7,236.8 L 42.1,237.0 L 40.7,237.5 L 40.6,237.5 L 40.0,237.7 L 40.3,237.5 L 40.3,237.5 L 40.7,237.1 L 41.7,236.6 L 42.1,236.3 L 42.9,236.0 L 43.4,235.6 L 46.0,233.7 L 46.2,233.6 L 45.2,233.6 L 44.6,233.7 L 44.5,233.8 L 44.1,234.0 L 44.0,234.0 L 44.6,233.6 L 44.8,233.4 L 44.9,233.1 L 44.6,233.1 L 44.3,233.2 L 44.3,233.1 L 42.4,229.8 L 42.4,229.7 L 45.1,228.3 L 46.8,227.6 L 47.2,227.4 L 47.3,227.2 L 47.1,227.1 L 45.6,227.6 L 45.9,227.5 L 47.0,227.1 L 47.2,226.9 L 47.4,226.6 L 47.9,226.5 L 48.1,226.4 L 48.4,226.2 L 48.7,226.1 L 49.1,225.9 L 51.2,224.9 L 50.8,225.0 L 49.4,225.7 L 48.9,225.9 L 47.8,226.4 L 47.3,226.6 L 45.8,227.3 L 42.4,228.8" fill="none" stroke="black" stroke-width="2"/>
</svg>