<?xml version="1.0" encoding="UTF-8"?>
<svg width="400" height="400" viewBox="0 0 400 400" xmlns="http://www.w3.org/2000/svg">
  <rect width="400" height="400" fill="white"/>
  <path d="M 44.8,240.2 L 40.8,218.0 L 40.9,218.0 L 43.9,215.2 L 45.3,214.5 L 46.4,214.6 L 47.1,213.9 L 48.0,212.1 L 48.3,211.6 L 49.1,212.0 L 50.0,211.5 L 51.1,210.5 L 51.6,209.9 L 52.1,210.1 L 53.0,209.7 L 53.6,209.1 L 54.0,208.4 L 54.1,207.4 L 54.4,207.2 L 55.1,207.2 L 55.5,207.6 L 56.5,206.7 L 57.2,205.3 L 57.5,205.1 L 57.7,205.0 L 57.9,204.9 L 59.2,204.7 L 60.5,203.3 L 62.0,202.6 L 64.0,201.4 L 65.5,200.3 L 66.8,199.1 L 67.8,198.7 L 67.9,198.7 L 68.9,198.1 L 69.8,197.5 L 71.9,195.6 L 73.7,194.4 L 75.2,193.2 L 75.8,192.8 L 78.0,190.8 L 78.8,190.2 L 80.6,188.5 L 83.0,187.6 L 84.5,186.8 L 86.4,186.4 L 86.6,186.5 L 86.6,186.9 L 85.9,188.3 L 86.1,188.5 L 86.8,188.4 L 88.2,187.6 L 89.2,186.9 L 89.4,186.3 L 89.3,185.9 L 88.7,186.3 L 88.5,186.0 L 88.7,185.4 L 89.5,184.7 L 89.8,184.2 L 90.1,184.0 L 90.9,183.9 L 91.7,183.5 L 92.1,183.0 L 92.9,182.9 L 93.7,182.8 L 94.5,182.5 L 96.5,181.8 L 98.2,181.3 L 99.1,180.7 L 100.0,180.3 L 100.8,179.6 L 102.2,178.7 L 104.4,177.7 L 106.3,177.2 L 106.9,176.7 L 107.7,176.2 L 108.5,176.2 L 109.0,176.5 L 109.2,176.4 L 109.4,176.1 L 109.6,175.7 L 110.5,175.3 L 111.1,174.7 L 111.2,174.4 L 111.6,174.3 L 113.5,174.3 L 114.3,174.0 L 116.7,171.8 L 117.1,171.0 L 117.3,170.6 L 117.9,170.1 L 118.7,169.9 L 119.3,169.4 L 120.3,168.9 L 121.9,167.6 L 122.4,166.8 L 122.5,166.0 L 122.3,165.6 L 122.6,165.1 L 121.9,163.7 L 121.9,163.0 L 123.5,160.9 L 123.5,160.6 L 122.9,160.2 L 122.9,159.9 L 123.5,159.1 L 122.9,158.6 L 123.1,157.7 L 122.8,157.3 L 122.8,156.6 L 123.1,156.1 L 123.2,154.9 L 123.1,154.2 L 123.2,153.8 L 123.1,152.7 L 123.1,151.9 L 123.3,151.2 L 149.2,143.3 L 150.1,143.3 L 150.6,143.8 L 151.3,143.7 L 152.3,143.0 L 152.7,142.7 L 153.4,141.9 L 155.5,140.5 L 156.0,139.8 L 156.4,139.4 L 157.1,139.5 L 158.6,138.7 L 160.2,137.8 L 161.2,137.1 L 162.5,136.1 L 163.2,135.1 L 163.8,134.5 L 164.1,133.8 L 164.1,133.5 L 165.3,133.5 L 166.2,133.3 L 166.9,133.2 L 167.4,132.9 L 167.6,132.9 L 167.2,133.7 L 167.2,134.0 L 167.7,134.0 L 168.2,134.3 L 168.7,134.3 L 174.6,130.6 L 175.5,129.6 L 176.2,128.6 L 176.9,127.9 L 178.3,126.9 L 179.1,125.7 L 180.0,125.1 L 180.8,124.3 L 183.5,122.5 L 183.6,122.3 L 186.4,120.5 L 187.5,119.4 L 188.8,118.4 L 189.8,117.4 L 190.9,116.4 L 191.6,115.4 L 193.7,113.4 L 194.3,112.7 L 195.0,112.1 L 195.7,111.2 L 197.0,110.3 L 197.8,109.2 L 198.8,107.8 L 200.6,106.0 L 201.3,105.7 L 202.1,104.9 L 204.5,103.0 L 205.5,102.0 L 206.6,100.4 L 207.8,98.7 L 208.9,97.8 L 210.2,95.8 L 210.9,95.3 L 211.4,94.9 L 212.3,94.7 L 213.1,94.2 L 214.0,93.0 L 215.8,92.0 L 217.7,90.4 L 218.5,89.9 L 219.3,89.1 L 219.9,88.2 L 220.2,87.6 L 221.1,86.9 L 221.5,86.0 L 221.9,85.4 L 224.0,83.3 L 224.9,83.0 L 226.0,82.4 L 226.5,81.9 L 227.1,81.5 L 228.2,80.3 L 229.1,79.9 L 229.8,78.3 L 230.2,77.9 L 230.9,77.8 L 232.1,77.3 L 232.6,76.8 L 232.7,76.3 L 233.4,75.7 L 233.9,75.6 L 234.0,75.5 L 234.2,74.5 L 234.9,74.0 L 236.7,73.0 L 236.7,73.0 L 237.2,72.0 L 237.6,71.5 L 238.9,70.6 L 239.9,70.4 L 240.6,70.5 L 241.1,71.0 L 241.8,70.8 L 242.7,70.3 L 243.7,69.4 L 244.4,68.5 L 244.8,68.2 L 244.2,69.8 L 243.7,70.5 L 242.8,71.2 L 241.9,71.9 L 240.8,72.9 L 240.0,73.5 L 238.3,75.0 L 237.8,75.6 L 237.5,76.1 L 237.0,76.3 L 236.7,76.7 L 236.5,77.0 L 236.1,77.8 L 236.1,78.5 L 236.7,78.8 L 236.7,78.8 L 236.8,79.3 L 237.1,79.2 L 237.9,78.7 L 239.1,77.5 L 239.6,76.8 L 241.5,76.3 L 241.9,76.4 L 241.7,76.8 L 241.7,77.3 L 242.4,77.6 L 241.7,78.3 L 241.4,78.8 L 241.5,79.7 L 241.7,80.4 L 242.4,80.5 L 243.0,80.9 L 244.1,80.8 L 244.6,80.3 L 244.9,79.5 L 245.1,79.3 L 246.0,79.9 L 246.1,79.8 L 246.3,79.4 L 246.7,78.6 L 247.3,78.4 L 249.0,76.8 L 249.8,76.8 L 250.5,76.1 L 251.3,76.2 L 251.4,76.3 L 251.5,76.8 L 251.7,77.1 L 252.4,77.0 L 253.3,76.4 L 253.6,76.3 L 255.0,75.2 L 255.8,74.5 L 256.0,74.4 L 257.0,74.2 L 257.6,73.6 L 258.0,73.3 L 259.0,73.9 L 259.4,73.8 L 259.7,73.6 L 259.7,73.0 L 261.0,73.0 L 261.3,72.6 L 262.0,72.7 L 262.1,73.0 L 262.7,73.2 L 263.6,73.2 L 264.0,72.6 L 265.1,71.7 L 266.1,70.5 L 266.3,70.6 L 267.0,70.5 L 267.8,70.0 L 269.0,69.8 L 269.8,69.4 L 270.5,68.9 L 270.8,68.3 L 271.3,67.8 L 272.8,67.2 L 274.6,66.2 L 279.2,61.6 L 279.9,61.3 L 280.5,61.1 L 282.6,60.6 L 283.5,60.7 L 283.7,60.3 L 283.9,60.6 L 283.9,61.3 L 283.7,61.9 L 283.2,62.2 L 282.9,62.0 L 282.5,61.9 L 281.8,62.3 L 280.9,62.7 L 279.1,64.3 L 279.0,64.8 L 277.7,65.5 L 277.2,65.9 L 276.5,66.4 L 275.0,67.2 L 274.6,67.7 L 273.6,68.2 L 273.1,68.8 L 272.7,68.9 L 270.8,70.4 L 269.0,72.0 L 269.0,72.3 L 269.4,72.7 L 270.1,72.7 L 270.3,72.3 L 270.9,72.2 L 271.9,71.4 L 272.4,71.6 L 272.7,71.9 L 273.5,72.0 L 274.6,72.7 L 274.5,73.4 L 274.7,74.3 L 275.2,74.7 L 276.0,74.5 L 276.2,74.3 L 276.1,73.9 L 275.9,73.6 L 276.2,73.4 L 276.7,73.3 L 276.5,72.7 L 276.6,72.2 L 277.1,71.8 L 277.6,71.8 L 278.3,72.3 L 278.2,72.7 L 277.6,73.6 L 277.5,74.0 L 278.2,74.7 L 279.1,75.4 L 279.7,75.1 L 279.9,74.7 L 280.0,74.6 L 280.8,74.7 L 281.1,74.5 L 281.3,73.8 L 281.6,73.8 L 282.0,73.8 L 282.5,73.6 L 283.0,73.8 L 283.5,74.1 L 284.4,74.2 L 284.7,73.7 L 285.3,73.8 L 285.7,74.1 L 285.3,74.6 L 285.4,74.8 L 285.9,74.7 L 288.2,72.8 L 291.2,71.3 L 291.3,71.0 L 292.7,70.0 L 292.9,69.6 L 294.0,68.6 L 295.1,68.0 L 296.2,67.9 L 297.3,67.3 L 297.8,67.3 L 298.8,66.5 L 299.3,66.3 L 299.0,66.8 L 298.7,67.6 L 298.3,68.0 L 297.7,68.8 L 297.2,69.2 L 296.4,69.2 L 295.5,69.6 L 294.7,70.1 L 293.9,70.8 L 293.5,70.9 L 292.7,71.3 L 291.8,72.1 L 291.3,72.2 L 290.5,73.1 L 289.1,73.8 L 288.5,74.4 L 288.4,74.8 L 289.0,75.5 L 289.0,76.1 L 289.2,76.1 L 290.4,75.9 L 290.8,76.1 L 291.1,76.6 L 291.1,77.2 L 290.6,77.8 L 290.6,78.0 L 290.3,78.4 L 289.3,78.7 L 288.3,78.9 L 287.8,79.4 L 287.3,79.4 L 286.7,79.1 L 285.7,80.3 L 285.7,80.5 L 286.3,80.6 L 286.6,80.9 L 286.3,81.2 L 286.1,81.4 L 286.2,82.0 L 287.3,82.5 L 289.4,82.5 L 290.0,82.2 L 290.9,82.3 L 291.1,82.3 L 291.3,82.5 L 291.0,82.8 L 291.2,83.0 L 292.2,82.8 L 292.3,83.0 L 292.0,83.3 L 291.7,83.4 L 291.2,83.3 L 290.8,83.2 L 290.5,83.4 L 290.4,83.9 L 289.5,84.2 L 289.1,84.4 L 289.3,85.3 L 289.0,85.8 L 289.1,86.1 L 290.2,86.0 L 290.8,85.9 L 291.2,85.9 L 291.6,86.7 L 292.2,87.2 L 292.6,87.7 L 292.7,88.1 L 292.6,88.4 L 291.7,89.0 L 291.9,89.4 L 292.1,90.0 L 292.8,90.4 L 294.1,90.5 L 296.0,91.1 L 296.6,91.1 L 297.5,90.7 L 297.5,91.0 L 296.8,91.3 L 296.5,91.6 L 296.1,91.9 L 295.7,92.6 L 293.5,94.6 L 293.3,95.1 L 292.7,95.8 L 291.5,96.3 L 290.7,96.4 L 290.3,96.6 L 289.7,97.2 L 289.1,97.5 L 288.7,97.9 L 288.1,98.1 L 288.0,98.4 L 287.8,98.7 L 287.7,99.1 L 288.6,99.6 L 288.6,100.0 L 287.2,101.1 L 286.2,101.4 L 284.3,101.4 L 284.1,101.6 L 283.3,101.8 L 282.8,101.9 L 282.3,102.4 L 282.1,102.4 L 281.3,102.9 L 280.6,103.0 L 280.0,103.5 L 279.3,103.6 L 278.9,103.9 L 278.8,104.2 L 279.2,104.5 L 280.1,104.4 L 280.7,104.0 L 281.9,103.7 L 282.4,103.4 L 283.1,103.2 L 284.2,102.7 L 284.8,102.7 L 285.3,102.9 L 287.7,103.2 L 289.4,102.7 L 289.8,102.4 L 290.1,102.8 L 290.6,102.5 L 290.7,102.1 L 291.5,101.8 L 292.8,101.1 L 293.3,101.4 L 295.2,100.8 L 295.6,101.0 L 295.3,101.5 L 295.3,101.7 L 296.2,101.6 L 297.3,101.0 L 297.5,101.3 L 296.9,102.1 L 295.4,102.4 L 293.8,103.0 L 290.8,105.1 L 290.7,105.6 L 289.9,106.4 L 288.6,108.1 L 288.6,108.4 L 289.4,108.4 L 289.9,108.2 L 290.1,108.1 L 290.6,108.1 L 290.3,108.5 L 290.2,108.8 L 290.8,108.5 L 293.3,107.1 L 293.7,107.0 L 294.8,106.4 L 297.2,105.8 L 297.7,105.9 L 297.8,106.1 L 297.4,107.0 L 298.9,106.7 L 299.8,106.3 L 300.0,106.1 L 300.2,105.6 L 301.3,104.9 L 301.6,104.9 L 302.1,105.3 L 303.4,104.9 L 304.4,104.2 L 304.9,104.0 L 305.3,104.2 L 305.9,104.1 L 306.3,104.3 L 306.2,104.8 L 305.7,105.1 L 304.8,106.3 L 304.3,107.4 L 304.6,107.7 L 305.5,107.6 L 305.8,107.5 L 306.4,107.4 L 307.7,106.7 L 308.8,106.6 L 311.2,105.8 L 312.1,105.7 L 313.1,105.5 L 314.0,105.2 L 315.1,104.9 L 315.9,104.5 L 316.3,104.1 L 318.1,103.3 L 319.5,102.1 L 320.3,101.9 L 321.0,101.5 L 321.2,101.5 L 322.8,101.4 L 323.7,101.5 L 323.7,102.0 L 322.3,102.9 L 321.8,103.1 L 321.2,103.5 L 320.6,103.9 L 320.1,104.7 L 319.0,105.6 L 319.0,106.0 L 319.6,106.1 L 319.9,106.3 L 321.2,106.2 L 321.2,106.2 L 322.5,105.8 L 323.0,105.2 L 324.1,105.1 L 325.2,104.8 L 325.6,104.6 L 326.1,104.1 L 326.5,103.9 L 326.8,104.0 L 327.0,104.3 L 327.2,104.3 L 327.4,103.9 L 328.1,103.6 L 328.6,103.6 L 328.8,103.8 L 330.3,101.9 L 330.8,101.0 L 331.1,100.7 L 331.1,100.1 L 332.6,99.4 L 333.1,99.2 L 333.4,99.5 L 332.4,100.2 L 332.3,100.5 L 333.9,100.1 L 334.5,99.7 L 335.9,99.5 L 337.2,99.7 L 337.8,100.0 L 338.5,100.6 L 338.9,100.7 L 340.0,101.3 L 340.4,101.2 L 342.0,101.2 L 342.7,100.9 L 343.8,100.2 L 345.2,99.8 L 346.9,99.7 L 348.5,99.3 L 350.2,98.5 L 353.2,97.4 L 354.6,96.8 L 357.4,96.0 L 358.1,96.0 L 358.2,96.2 L 357.9,96.8 L 358.5,97.1 L 359.3,97.3 L 360.0,97.7 L 359.9,98.3 L 359.5,99.0 L 358.6,99.8 L 357.9,100.1 L 356.0,100.4 L 353.7,101.3 L 352.3,102.3 L 351.1,102.6 L 349.3,102.8 L 347.4,103.3 L 345.1,104.3 L 342.0,106.1 L 341.9,106.4 L 340.2,108.1 L 340.1,107.8 L 339.9,107.7 L 339.4,107.9 L 338.7,108.0 L 338.4,108.3 L 338.4,108.9 L 338.3,109.3 L 338.5,109.7 L 338.4,110.1 L 336.2,110.2 L 335.8,109.8 L 335.8,108.0 L 335.4,107.8 L 333.4,108.1 L 328.6,109.2 L 327.9,109.5 L 327.7,109.3 L 327.9,108.9 L 326.7,108.8 L 326.2,109.3 L 325.7,109.2 L 325.4,109.1 L 325.0,109.1 L 322.3,109.6 L 321.2,110.0 L 320.9,110.1 L 319.8,110.3 L 318.6,110.8 L 318.2,111.1 L 318.2,111.4 L 319.5,111.4 L 320.4,111.0 L 320.6,111.0 L 320.6,111.3 L 320.4,111.4 L 320.0,111.7 L 316.8,112.5 L 314.6,113.5 L 313.2,113.9 L 312.0,114.1 L 309.3,115.2 L 308.9,115.4 L 308.0,115.7 L 306.4,116.1 L 305.4,116.5 L 305.1,116.9 L 305.6,118.1 L 305.1,118.7 L 305.1,119.0 L 306.2,119.3 L 306.4,119.6 L 306.5,120.2 L 306.0,121.1 L 305.7,121.4 L 305.0,122.5 L 305.0,123.1 L 305.6,123.5 L 306.3,123.5 L 307.1,123.7 L 307.6,124.5 L 307.7,125.2 L 307.4,125.9 L 305.3,127.7 L 306.2,127.9 L 306.2,128.2 L 302.0,130.4 L 301.1,130.8 L 300.7,131.1 L 301.3,131.8 L 301.3,131.8 L 301.3,143.0 L 300.7,143.0 L 299.8,143.4 L 298.9,143.5 L 296.4,144.7 L 295.6,144.9 L 294.8,145.3 L 293.8,146.3 L 294.1,146.5 L 294.0,147.5 L 293.9,148.3 L 293.7,148.6 L 292.8,149.1 L 292.8,150.2 L 293.1,150.6 L 293.8,150.0 L 294.6,149.6 L 295.6,150.0 L 295.9,149.8 L 296.1,149.5 L 296.7,149.5 L 297.0,149.1 L 297.9,149.0 L 298.9,148.5 L 299.7,147.8 L 301.3,149.4 L 301.4,149.5 L 300.6,150.0 L 298.9,151.7 L 298.7,152.4 L 298.4,152.9 L 298.3,153.3 L 297.5,153.5 L 296.9,153.9 L 296.7,154.9 L 296.2,155.1 L 292.4,158.7 L 291.7,159.0 L 291.0,159.6 L 289.2,161.9 L 288.6,162.0 L 288.2,162.4 L 287.7,162.6 L 287.2,162.8 L 286.4,163.5 L 284.5,164.9 L 284.3,165.4 L 284.0,165.7 L 282.7,166.0 L 282.1,166.5 L 281.2,166.8 L 279.6,167.8 L 278.7,168.2 L 278.4,168.5 L 278.2,169.4 L 277.0,169.5 L 276.4,169.7 L 275.1,170.7 L 273.7,171.4 L 273.4,171.6 L 273.4,172.1 L 273.7,172.6 L 273.4,173.3 L 273.6,174.3 L 273.5,175.1 L 272.6,175.3 L 272.1,175.8 L 271.6,175.8 L 271.1,176.3 L 270.5,176.0 L 269.7,176.4 L 269.2,176.9 L 268.7,177.1 L 268.0,178.0 L 267.9,180.3 L 267.6,180.1 L 267.0,180.4 L 266.7,180.8 L 266.3,180.9 L 265.6,182.1 L 264.3,182.3 L 263.4,182.7 L 263.0,183.0 L 262.8,183.7 L 262.1,184.5 L 261.7,184.5 L 261.2,184.6 L 260.6,184.9 L 260.1,184.9 L 259.4,185.2 L 258.9,185.7 L 257.8,187.6 L 256.7,189.3 L 255.8,189.5 L 254.9,190.3 L 253.9,191.2 L 252.8,192.7 L 251.9,195.1 L 251.1,196.6 L 250.7,197.2 L 250.4,197.8 L 250.2,198.5 L 250.0,198.9 L 249.9,199.6 L 249.5,199.9 L 249.0,201.0 L 248.9,201.9 L 248.6,202.5 L 248.4,203.2 L 247.9,204.5 L 245.6,208.6 L 245.2,209.2 L 243.3,209.2 L 242.6,210.0 L 242.6,211.1 L 242.4,211.1 L 242.2,210.8 L 241.7,210.6 L 241.1,211.0 L 240.9,211.6 L 240.6,212.1 L 240.1,214.0 L 239.6,215.7 L 238.8,216.5 L 238.4,216.9 L 238.3,218.0 L 237.9,219.2 L 237.2,219.9 L 236.8,220.9 L 236.7,221.0 L 236.3,221.3 L 235.9,221.6 L 235.8,222.2 L 235.7,222.4 L 235.3,222.9 L 234.3,223.4 L 233.6,224.3 L 233.0,224.4 L 232.5,224.6 L 232.4,225.3 L 231.5,226.2 L 231.2,226.6 L 229.7,228.0 L 229.5,228.9 L 228.8,230.8 L 228.5,230.9 L 228.2,230.7 L 227.8,230.6 L 227.1,230.7 L 226.6,231.0 L 226.1,232.9 L 226.3,233.0 L 226.7,233.2 L 226.2,233.5 L 226.0,234.3 L 225.1,234.8 L 224.9,235.1 L 224.4,236.8 L 223.7,238.2 L 222.9,241.0 L 222.3,242.6 L 221.8,244.3 L 221.1,245.0 L 220.5,245.1 L 220.1,244.9 L 220.6,243.9 L 221.0,242.6 L 221.4,242.4 L 221.8,242.3 L 221.8,241.6 L 221.2,240.8 L 220.8,240.5 L 220.8,239.8 L 220.9,239.4 L 220.4,238.9 L 220.4,236.6 L 220.3,236.1 L 220.3,235.5 L 219.6,235.1 L 219.6,234.4 L 218.9,234.0 L 218.9,233.7 L 219.9,233.0 L 219.9,231.9 L 219.7,231.7 L 219.1,231.9 L 218.8,232.2 L 218.4,233.2 L 218.3,234.0 L 218.0,234.2 L 216.7,234.9 L 216.1,235.6 L 216.1,236.6 L 216.3,236.9 L 217.5,237.0 L 217.9,237.2 L 218.2,238.6 L 218.5,238.9 L 219.3,239.2 L 219.6,239.5 L 219.3,239.7 L 218.4,239.9 L 217.4,239.7 L 216.9,239.4 L 216.3,239.4 L 215.2,239.8 L 214.1,240.6 L 213.7,241.3 L 212.7,241.8 L 212.3,242.4 L 212.4,243.0 L 211.8,243.6 L 211.8,244.2 L 212.2,244.3 L 212.5,243.9 L 212.9,243.8 L 213.1,244.1 L 213.2,244.4 L 213.0,244.7 L 210.2,247.3 L 209.7,247.3 L 209.5,247.0 L 209.0,247.0 L 208.9,247.3 L 209.0,247.9 L 208.6,247.9 L 208.4,248.0 L 208.3,248.2 L 208.5,248.7 L 209.1,248.8 L 209.5,249.1 L 210.7,248.6 L 212.1,248.3 L 212.4,248.6 L 212.4,249.2 L 211.2,250.6 L 211.6,251.3 L 211.5,252.1 L 211.8,252.3 L 212.8,252.0 L 213.7,251.4 L 214.8,250.8 L 215.0,250.8 L 215.5,250.2 L 215.7,249.7 L 216.1,249.5 L 216.8,249.7 L 218.2,248.4 L 218.9,248.0 L 219.1,247.7 L 218.7,247.3 L 218.9,246.9 L 219.3,246.6 L 220.0,246.1 L 220.5,245.7 L 221.0,245.6 L 221.2,245.7 L 221.1,246.4 L 220.8,247.0 L 220.4,248.9 L 219.9,249.9 L 219.5,251.0 L 219.2,251.8 L 219.1,253.1 L 217.4,257.7 L 217.4,258.4 L 217.6,259.3 L 217.4,259.9 L 217.3,261.6 L 217.4,262.4 L 217.7,262.7 L 218.3,262.6 L 222.6,260.7 L 223.8,260.6 L 227.5,258.9 L 229.7,257.6 L 232.1,255.8 L 233.9,254.9 L 235.7,253.6 L 236.7,253.2 L 238.8,252.3 L 239.6,251.8 L 242.1,250.4 L 242.5,250.6 L 243.2,251.4 L 243.3,251.9 L 243.2,252.4 L 241.4,253.9 L 241.3,254.5 L 241.7,254.9 L 241.7,255.5 L 240.5,256.7 L 239.0,257.5 L 237.9,258.3 L 237.2,258.3 L 236.7,258.5 L 236.3,258.6 L 236.1,259.2 L 234.8,260.1 L 232.7,261.2 L 232.1,262.0 L 229.8,263.7 L 229.0,264.4 L 228.3,264.4 L 227.0,264.9 L 226.5,265.2 L 226.5,265.7 L 226.9,265.8 L 226.9,266.2 L 227.2,266.4 L 227.3,266.8 L 227.6,266.9 L 228.1,266.5 L 228.4,266.7 L 228.4,267.2 L 227.9,267.9 L 228.0,268.8 L 227.7,269.2 L 227.8,269.5 L 228.9,269.9 L 229.3,270.6 L 229.3,271.0 L 228.4,271.8 L 228.3,272.1 L 228.4,272.4 L 229.1,272.5 L 229.3,272.8 L 229.4,274.3 L 228.3,276.5 L 227.8,276.8 L 226.3,277.8 L 225.0,278.1 L 224.5,278.9 L 224.3,279.7 L 224.0,279.8 L 223.6,280.1 L 223.6,280.6 L 224.2,280.8 L 224.9,281.2 L 224.9,281.7 L 224.7,282.6 L 224.3,283.4 L 223.8,283.9 L 224.0,284.4 L 223.6,284.7 L 223.2,284.3 L 222.7,284.6 L 222.3,285.2 L 222.7,285.9 L 222.6,286.3 L 222.2,286.6 L 222.1,287.3 L 221.8,287.6 L 221.3,287.7 L 220.8,286.6 L 220.5,286.2 L 220.2,286.2 L 219.7,286.4 L 219.4,286.9 L 218.7,287.3 L 218.9,288.0 L 219.1,288.2 L 220.0,288.2 L 220.7,288.0 L 221.8,288.3 L 222.9,287.7 L 223.3,287.9 L 222.4,288.5 L 220.3,290.6 L 219.2,291.4 L 218.3,291.8 L 216.5,291.8 L 215.9,291.6 L 215.1,290.9 L 213.9,291.0 L 212.7,291.3 L 212.1,291.9 L 211.9,291.7 L 212.0,291.2 L 212.2,291.0 L 212.8,289.8 L 212.8,287.7 L 212.6,287.2 L 212.6,286.8 L 213.4,285.9 L 213.5,285.4 L 213.6,284.7 L 213.2,284.5 L 212.4,284.4 L 212.1,284.4 L 211.7,284.0 L 211.5,283.5 L 210.4,282.6 L 210.2,282.2 L 210.3,281.4 L 210.6,280.7 L 211.3,280.4 L 211.6,280.1 L 211.0,279.5 L 210.6,279.4 L 210.3,278.6 L 209.9,278.1 L 209.6,278.0 L 209.2,277.9 L 208.9,278.0 L 208.8,278.4 L 208.4,279.0 L 207.4,279.5 L 206.5,279.5 L 205.0,278.7 L 204.0,278.7 L 202.7,279.2 L 202.0,279.3 L 200.9,279.9 L 200.1,280.3 L 199.9,280.7 L 199.1,280.8 L 198.5,280.3 L 197.9,279.9 L 196.0,280.2 L 193.4,281.6 L 189.3,284.4 L 188.5,284.9 L 186.6,285.5 L 185.0,287.2 L 184.3,287.2 L 183.4,287.5 L 182.7,288.2 L 182.1,289.1 L 179.3,289.3 L 178.8,289.5 L 177.9,289.6 L 177.0,289.9 L 176.1,290.4 L 175.4,291.7 L 174.9,291.9 L 174.2,291.8 L 173.5,291.9 L 172.4,291.8 L 171.8,291.9 L 171.6,292.5 L 170.7,292.3 L 170.3,292.7 L 168.9,293.3 L 168.3,293.9 L 167.6,293.3 L 166.6,293.3 L 165.2,293.5 L 164.6,293.9 L 164.5,294.3 L 162.7,295.0 L 161.0,295.4 L 159.9,296.1 L 158.5,296.1 L 157.5,296.3 L 156.0,296.9 L 155.2,297.6 L 154.8,298.1 L 154.2,298.2 L 153.4,298.5 L 152.9,299.0 L 153.0,299.5 L 152.5,299.9 L 152.3,299.9 L 152.1,300.0 L 151.7,299.6 L 151.3,299.5 L 149.4,299.8 L 148.9,300.0 L 147.9,301.0 L 148.3,301.7 L 147.1,302.4 L 147.0,302.9 L 147.4,303.2 L 147.4,303.7 L 146.2,304.6 L 144.4,304.5 L 144.0,304.2 L 144.0,303.5 L 143.8,303.3 L 143.1,303.2 L 143.6,302.5 L 143.5,302.4 L 142.8,302.6 L 141.4,302.6 L 141.2,302.6 L 139.8,303.8 L 138.9,303.9 L 138.2,303.6 L 137.3,303.5 L 136.7,303.8 L 136.2,304.5 L 135.4,304.4 L 134.9,303.8 L 134.6,303.8 L 134.3,304.4 L 134.2,305.1 L 133.8,305.9 L 134.3,306.3 L 134.2,306.5 L 133.8,306.7 L 132.3,307.1 L 131.6,307.2 L 131.2,306.7 L 131.1,306.7 L 129.7,306.5 L 129.6,306.7 L 129.4,306.9 L 128.7,307.3 L 128.3,307.2 L 127.6,307.1 L 126.5,307.3 L 126.3,307.2 L 126.4,306.7 L 126.4,306.5 L 125.7,306.1 L 124.8,306.0 L 124.5,306.1 L 124.3,306.7 L 124.2,306.7 L 123.9,306.8 L 123.7,306.7 L 122.9,306.2 L 121.4,306.7 L 120.4,307.0 L 120.2,307.4 L 119.2,308.5 L 119.0,308.6 L 118.3,308.1 L 117.6,308.1 L 116.1,308.9 L 115.8,309.3 L 115.3,310.3 L 114.4,310.6 L 114.1,311.1 L 114.5,311.7 L 114.3,312.2 L 113.9,312.5 L 112.5,312.7 L 111.3,312.8 L 110.4,312.2 L 109.2,312.3 L 109.1,312.0 L 109.1,311.8 L 108.8,311.4 L 108.1,311.3 L 107.3,311.8 L 106.1,312.9 L 105.6,313.0 L 103.5,314.0 L 103.0,314.0 L 102.8,313.5 L 103.0,313.1 L 103.1,312.7 L 102.9,312.2 L 101.8,312.2 L 100.6,312.7 L 98.8,313.8 L 97.6,314.1 L 96.8,314.2 L 96.8,313.6 L 97.5,313.3 L 98.0,312.9 L 97.8,312.4 L 96.7,312.4 L 96.0,312.6 L 95.6,312.6 L 95.4,312.3 L 93.9,312.1 L 93.4,312.4 L 92.8,312.2 L 92.3,312.4 L 91.2,313.0 L 90.9,313.4 L 90.9,313.9 L 89.3,314.0 L 88.2,314.2 L 87.7,314.7 L 87.2,315.0 L 86.2,315.1 L 83.3,315.9 L 82.5,316.4 L 79.6,318.5 L 79.0,318.5 L 78.0,319.1 L 77.7,319.2 L 78.1,318.3 L 77.9,318.1 L 76.2,318.3 L 74.4,319.8 L 74.1,320.2 L 72.3,321.3 L 71.9,321.1 L 70.8,321.6 L 70.0,322.0 L 69.8,322.3 L 68.8,323.7 L 68.3,324.5 L 67.8,324.9 L 67.5,325.0 L 66.3,326.2 L 65.7,327.0 L 65.7,327.5 L 65.2,327.5 L 64.8,327.8 L 64.8,328.3 L 63.6,328.8 L 62.6,329.6 L 62.3,330.2 L 61.4,330.8 L 60.7,331.7 L 60.2,332.5 L 59.4,333.0 L 58.4,334.0 L 58.4,334.5 L 58.9,335.0 L 60.2,334.9 L 60.4,335.1 L 57.7,337.5 L 56.8,338.5 L 56.0,339.1 L 55.3,339.7 L 55.2,339.7 L 54.1,339.1 L 54.1,339.1 L 54.9,338.5 L 56.5,336.3 L 56.7,336.0 L 56.8,335.6 L 56.5,334.9 L 56.9,334.1 L 57.4,333.7 L 57.6,333.2 L 57.4,332.2 L 58.0,331.9 L 58.0,331.3 L 57.8,330.9 L 58.0,330.6 L 59.0,329.9 L 59.1,329.5 L 58.6,329.3 L 57.9,329.5 L 57.8,329.2 L 58.2,329.0 L 59.1,328.6 L 59.5,328.0 L 60.1,326.9 L 60.0,326.1 L 60.1,325.9 L 59.3,325.6 L 58.3,325.4 L 58.4,325.1 L 59.1,324.6 L 59.9,324.3 L 60.2,323.8 L 60.4,323.4 L 60.8,322.9 L 60.6,322.7 L 59.9,322.6 L 59.3,322.7 L 59.1,322.8 L 57.4,323.3 L 56.7,323.3 L 55.9,323.4 L 53.5,324.4 L 40.0,286.5 L 40.1,286.5 L 40.2,286.7 L 40.7,286.6 L 41.0,286.2 L 41.3,285.7 L 41.8,285.2 L 41.7,284.9 L 40.8,284.8 L 40.6,284.7 L 41.1,283.8 L 41.5,283.6 L 42.0,283.7 L 42.2,284.0 L 42.0,284.4 L 42.1,284.5 L 42.8,284.3 L 43.7,284.2 L 44.3,283.8 L 44.5,283.5 L 44.4,283.1 L 43.8,283.0 L 43.8,282.5 L 44.4,282.0 L 46.0,281.1 L 46.4,281.7 L 47.5,281.6 L 49.6,281.2 L 49.9,280.8 L 50.5,280.8 L 50.6,280.6 L 50.4,280.3 L 51.0,279.4 L 51.2,278.8 L 51.6,278.1 L 52.0,277.7 L 52.4,277.6 L 53.4,276.9 L 53.7,277.2 L 54.0,277.5 L 54.1,277.8 L 54.4,277.7 L 54.4,277.5 L 54.2,277.4 L 54.0,277.0 L 54.0,276.4 L 54.4,276.0 L 55.0,276.8 L 55.7,276.7 L 56.7,276.1 L 57.8,275.1 L 58.9,274.8 L 59.3,274.4 L 59.9,273.4 L 60.3,273.0 L 60.3,273.7 L 61.0,273.5 L 61.9,272.9 L 62.7,273.3 L 62.6,273.7 L 62.2,274.1 L 62.4,274.2 L 64.1,273.8 L 64.6,273.3 L 64.6,272.9 L 64.0,272.6 L 64.1,272.3 L 64.7,272.0 L 64.8,271.8 L 64.8,271.5 L 65.6,271.0 L 66.0,270.6 L 65.6,270.1 L 66.2,269.4 L 65.9,269.2 L 65.3,269.3 L 64.7,269.5 L 64.7,268.9 L 64.3,268.8 L 63.8,269.3 L 63.7,269.8 L 64.0,270.0 L 63.4,270.6 L 62.6,271.2 L 62.3,271.2 L 62.3,270.7 L 63.1,269.9 L 63.4,269.0 L 63.3,268.5 L 62.8,267.9 L 61.8,267.2 L 61.0,267.0 L 60.3,267.1 L 58.5,268.2 L 58.2,268.6 L 55.8,270.4 L 54.4,270.4 L 53.0,271.4 L 52.4,271.5 L 51.8,271.7 L 51.1,271.8 L 50.3,272.3 L 50.0,272.8 L 49.3,273.2 L 49.3,273.2 L 46.7,262.7 L 46.8,262.9 L 47.1,262.7 L 47.6,262.2 L 47.5,261.9 L 47.1,262.0 L 46.7,262.6 L 43.3,248.9 L 44.1,247.7 L 44.0,247.4 L 44.1,246.8 L 45.1,245.8 L 44.8,245.0 L 44.9,244.7 L 45.7,244.0 L 46.2,243.6 L 46.3,242.4 L 46.0,242.3 L 45.6,242.5 L 45.6,242.1 L 46.1,241.7 L 46.6,241.9 L 46.6,242.2 L 47.0,242.7 L 47.0,243.3 L 47.4,243.7 L 48.0,243.7 L 48.2,243.2 L 48.2,241.9 L 48.2,241.2 L 48.4,240.8 L 48.1,240.6 L 47.2,241.0 L 46.9,241.0 L 47.7,239.0 L 47.2,238.9 L 46.9,238.6 L 46.2,238.8 L 44.8,240.2" fill="none" stroke="black" stroke-width="2"/>
</svg>