<?xml version="1.0" encoding="UTF-8"?>
<svg width="400" height="400" viewBox="0 0 400 400" xmlns="http://www.w3.org/2000/svg">
  <rect width="400" height="400" fill="white"/>
  <path d="M 214.4,202.1 L 214.6,201.7 L 214.5,201.4 L 214.3,201.4 L 214.2,201.2 L 214.3,200.3 L 214.2,200.0 L 214.2,199.4 L 214.1,199.0 L 214.1,198.9 L 214.0,198.9 L 214.0,198.3 L 214.4,197.5 L 214.5,197.2 L 214.5,196.7 L 214.6,195.7 L 214.5,195.5 L 214.5,195.2 L 214.7,195.0 L 214.9,194.7 L 214.9,194.2 L 215.2,193.6 L 215.3,193.4 L 215.4,192.6 L 216.4,191.3 L 217.0,190.7 L 217.3,190.2 L 217.3,190.0 L 217.5,189.8 L 217.7,189.4 L 217.8,189.1 L 217.8,188.9 L 218.0,188.6 L 218.1,188.6 L 218.1,188.4 L 217.9,188.3 L 217.9,188.0 L 218.6,187.6 L 218.9,187.3 L 218.9,187.0 L 218.8,186.8 L 219.0,186.6 L 219.1,186.3 L 220.0,184.9 L 220.4,184.4 L 220.7,184.0 L 220.7,183.4 L 220.8,183.2 L 220.7,182.9 L 221.3,181.9 L 221.9,181.2 L 222.0,181.0 L 222.4,180.7 L 222.5,180.4 L 222.8,180.2 L 223.4,179.7 L 223.8,179.4 L 223.8,179.3 L 223.9,179.2 L 224.3,179.2 L 224.7,178.8 L 224.8,178.5 L 225.2,178.0 L 225.5,177.8 L 225.6,177.6 L 226.2,177.0 L 227.4,175.9 L 227.9,175.2 L 228.4,175.0 L 228.4,174.7 L 228.1,174.7 L 227.5,175.0 L 227.4,175.0 L 227.4,174.8 L 227.7,174.6 L 228.0,174.5 L 228.5,174.3 L 229.3,173.5 L 229.4,173.2 L 230.2,172.2 L 230.8,171.9 L 231.1,171.6 L 231.1,171.5 L 231.2,171.5 L 231.3,171.6 L 231.3,171.9 L 231.9,171.6 L 232.2,171.4 L 232.9,170.9 L 233.2,171.1 L 233.6,170.9 L 233.7,170.5 L 233.9,170.2 L 234.0,170.1 L 234.3,169.7 L 234.7,169.6 L 234.9,169.4 L 235.3,169.1 L 235.4,169.0 L 235.6,168.7 L 235.7,168.6 L 236.1,168.6 L 236.3,168.6 L 236.6,168.9 L 237.2,168.9 L 237.5,168.6 L 238.1,168.7 L 238.9,169.0 L 239.0,169.1 L 239.1,169.5 L 239.0,169.8 L 239.3,170.0 L 239.3,170.0 L 239.3,170.1 L 239.4,170.2 L 239.5,170.4 L 239.5,170.5 L 239.4,170.8 L 239.5,170.8 L 239.8,170.7 L 241.4,169.9 L 242.1,169.4 L 242.4,169.3 L 242.8,169.1 L 243.7,168.7 L 244.4,168.1 L 244.8,167.9 L 245.5,167.8 L 245.8,167.8 L 246.0,167.7 L 246.1,167.6 L 246.7,167.4 L 246.8,167.8 L 247.2,167.6 L 247.3,167.6 L 247.6,167.8 L 248.0,167.9 L 248.0,168.2 L 248.1,168.3 L 248.6,168.2 L 248.8,168.4 L 248.9,169.1 L 248.8,169.6 L 248.5,170.0 L 248.5,170.1 L 248.8,170.0 L 250.2,169.3 L 250.9,168.9 L 251.2,168.6 L 251.5,168.5 L 251.7,168.5 L 252.0,168.2 L 252.0,168.0 L 251.9,167.9 L 252.0,167.5 L 252.4,167.2 L 252.9,166.9 L 253.8,166.3 L 254.6,165.7 L 255.0,165.6 L 255.5,165.6 L 256.0,165.4 L 256.3,165.4 L 257.0,165.3 L 257.4,165.3 L 258.2,164.9 L 258.9,164.6 L 259.8,164.4 L 260.5,163.9 L 261.3,163.5 L 261.5,163.4 L 261.7,163.5 L 261.9,163.7 L 262.1,163.7 L 263.2,162.9 L 263.3,162.9 L 263.4,163.0 L 263.8,162.8 L 263.6,162.4 L 263.6,162.4 L 263.9,162.0 L 264.4,161.8 L 265.2,161.3 L 265.7,161.0 L 266.3,160.7 L 266.5,160.7 L 266.7,160.6 L 266.9,160.4 L 267.3,160.3 L 267.8,159.9 L 268.2,159.7 L 268.4,160.0 L 268.6,160.0 L 268.8,159.8 L 269.1,159.7 L 270.9,160.7 L 271.9,161.3 L 271.9,161.3 L 272.1,161.5 L 272.6,161.9 L 272.8,162.0 L 272.9,162.1 L 273.1,162.4 L 273.1,162.5 L 273.0,162.7 L 273.1,162.8 L 273.3,162.8 L 273.4,162.8 L 273.5,163.0 L 273.9,163.1 L 274.2,162.7 L 274.4,162.7 L 274.4,163.1 L 274.9,163.1 L 275.6,163.5 L 275.6,163.6 L 275.8,163.7 L 275.7,163.9 L 276.0,164.3 L 276.2,165.0 L 276.3,165.1 L 276.5,165.1 L 276.8,164.8 L 277.0,164.6 L 277.2,164.7 L 277.6,165.1 L 278.2,165.6 L 278.3,165.7 L 278.4,165.7 L 278.8,165.9 L 279.1,166.1 L 279.2,166.4 L 279.2,166.6 L 278.8,166.8 L 278.7,167.0 L 278.6,167.2 L 278.6,167.4 L 278.7,167.5 L 278.8,167.4 L 279.3,167.0 L 279.4,167.0 L 279.5,167.1 L 279.6,167.2 L 280.5,167.1 L 280.6,167.2 L 281.1,167.0 L 281.3,166.7 L 281.4,166.6 L 281.7,166.6 L 282.2,166.7 L 283.0,166.5 L 283.2,166.6 L 283.3,166.7 L 283.5,166.9 L 283.9,166.7 L 284.0,166.5 L 284.1,166.3 L 284.6,166.3 L 284.8,166.4 L 284.9,166.3 L 285.3,166.1 L 285.9,165.8 L 286.4,165.6 L 286.7,165.3 L 287.0,164.7 L 287.4,164.3 L 287.4,163.9 L 287.4,163.8 L 287.1,163.7 L 286.8,163.7 L 286.8,163.7 L 286.8,163.4 L 287.2,162.8 L 287.5,162.4 L 288.0,161.9 L 288.6,161.7 L 289.0,161.3 L 289.0,161.3 L 289.1,161.1 L 289.7,160.6 L 290.0,160.4 L 290.3,160.2 L 290.4,160.2 L 290.5,160.1 L 291.1,160.1 L 291.6,160.0 L 291.8,159.7 L 291.9,159.7 L 292.3,159.1 L 292.6,159.0 L 292.8,158.7 L 293.2,158.2 L 293.6,157.8 L 293.8,157.6 L 294.0,157.4 L 294.4,157.2 L 294.7,156.9 L 295.1,156.8 L 296.1,157.0 L 296.5,156.8 L 296.7,156.8 L 296.8,156.9 L 297.1,156.6 L 297.5,156.3 L 297.6,156.2 L 297.9,156.0 L 298.5,155.5 L 299.0,155.3 L 299.2,155.1 L 299.3,154.3 L 299.3,154.3 L 299.8,153.8 L 300.2,153.3 L 300.2,153.3 L 300.5,153.2 L 300.7,153.0 L 301.1,152.8 L 301.3,152.7 L 301.6,152.5 L 301.9,152.4 L 301.9,152.4 L 302.4,152.1 L 302.8,151.6 L 303.1,151.4 L 303.5,151.3 L 303.8,151.0 L 303.9,151.0 L 305.0,150.7 L 305.6,150.4 L 305.7,150.4 L 305.8,150.4 L 306.1,150.3 L 306.3,150.2 L 306.5,150.1 L 306.6,150.0 L 306.8,149.8 L 306.9,149.7 L 307.1,149.6 L 307.1,149.5 L 307.2,149.4 L 307.4,149.3 L 307.5,149.2 L 307.7,149.1 L 307.7,149.1 L 307.8,149.0 L 308.0,148.9 L 308.1,148.7 L 308.3,148.6 L 308.4,148.5 L 308.6,148.4 L 308.7,148.3 L 308.9,148.1 L 309.1,148.0 L 309.3,147.8 L 309.4,147.6 L 309.6,147.5 L 309.8,147.4 L 309.9,147.3 L 310.1,147.2 L 310.2,147.1 L 310.2,147.1 L 310.5,147.0 L 310.8,146.9 L 311.0,146.8 L 311.2,146.7 L 311.3,146.6 L 311.5,146.5 L 311.6,146.3 L 311.7,146.2 L 311.7,146.1 L 311.7,145.8 L 311.7,145.6 L 311.7,145.6 L 311.7,145.4 L 311.8,145.4 L 312.0,145.2 L 312.1,145.1 L 312.3,145.0 L 312.4,145.0 L 312.6,145.0 L 312.8,144.9 L 313.0,144.8 L 313.2,144.8 L 313.4,144.7 L 313.4,144.6 L 313.5,144.5 L 313.6,144.4 L 313.6,144.4 L 314.2,144.0 L 314.5,144.0 L 314.8,144.0 L 315.0,144.1 L 315.2,144.1 L 315.4,144.1 L 315.6,144.0 L 315.7,144.0 L 315.9,143.9 L 316.0,143.9 L 316.1,143.9 L 316.3,143.8 L 316.5,143.7 L 316.7,143.7 L 316.9,143.6 L 317.1,143.6 L 317.4,143.6 L 317.6,143.6 L 317.9,143.5 L 318.1,143.5 L 318.4,143.5 L 318.5,143.5 L 318.7,143.5 L 318.9,143.5 L 319.0,143.4 L 319.3,143.3 L 319.5,143.2 L 319.6,143.2 L 319.7,143.1 L 319.9,143.0 L 320.0,142.9 L 320.1,142.9 L 320.2,142.8 L 320.3,142.7 L 320.4,142.6 L 320.5,142.5 L 320.6,142.4 L 320.8,142.2 L 321.1,142.1 L 321.2,142.1 L 321.4,142.0 L 321.5,141.9 L 321.6,141.9 L 321.7,141.7 L 321.7,141.6 L 321.9,141.3 L 322.0,141.2 L 322.2,141.0 L 322.4,140.9 L 322.6,140.6 L 322.8,140.6 L 322.9,140.5 L 323.1,140.5 L 323.1,140.5 L 323.4,140.5 L 323.4,140.5 L 323.5,140.4 L 323.6,140.2 L 323.7,140.2 L 323.8,140.0 L 323.9,139.8 L 324.1,139.7 L 324.3,139.6 L 324.5,139.6 L 324.7,139.5 L 324.9,139.5 L 325.2,139.5 L 325.4,139.5 L 325.6,139.5 L 325.7,139.5 L 325.8,139.5 L 326.0,139.4 L 326.2,139.3 L 326.4,139.2 L 326.6,139.1 L 326.7,138.9 L 326.7,138.9 L 326.8,138.8 L 327.0,138.7 L 327.3,138.6 L 327.5,138.5 L 327.7,138.3 L 327.8,138.2 L 328.0,138.1 L 328.1,137.9 L 328.2,137.9 L 328.1,137.7 L 328.2,137.6 L 328.3,137.6 L 328.4,137.5 L 328.6,137.3 L 328.7,137.3 L 328.8,137.2 L 328.9,137.1 L 329.1,136.9 L 329.2,136.7 L 329.3,136.5 L 329.3,136.4 L 329.4,136.2 L 329.5,135.9 L 329.6,135.7 L 329.7,135.6 L 329.8,135.5 L 329.9,135.3 L 330.0,135.2 L 330.2,135.0 L 330.4,134.8 L 330.6,134.7 L 330.7,134.6 L 330.9,134.6 L 331.1,134.6 L 331.2,134.5 L 331.3,134.4 L 331.4,134.4 L 331.4,134.2 L 331.5,134.0 L 331.7,133.8 L 331.8,133.6 L 332.0,133.5 L 332.2,133.3 L 332.3,133.1 L 332.5,133.0 L 332.6,132.9 L 332.7,132.8 L 332.9,132.7 L 333.1,132.6 L 333.1,132.6 L 333.3,132.8 L 333.4,133.0 L 333.6,133.1 L 333.7,133.3 L 333.9,133.5 L 334.1,133.5 L 334.2,133.5 L 334.2,133.5 L 334.2,133.4 L 334.1,133.3 L 334.0,133.2 L 333.8,133.0 L 333.6,132.8 L 333.5,132.7 L 333.5,132.7 L 333.8,132.5 L 333.8,132.5 L 333.8,132.5 L 334.0,132.8 L 334.1,132.9 L 334.2,133.0 L 334.2,133.0 L 334.3,133.0 L 334.4,133.0 L 334.6,133.0 L 334.8,133.0 L 334.9,133.0 L 335.1,133.1 L 335.3,133.1 L 335.5,133.2 L 335.7,133.2 L 335.9,133.2 L 336.1,133.3 L 336.2,133.3 L 336.5,133.3 L 336.6,133.3 L 336.6,133.3 L 337.0,133.0 L 337.0,133.0 L 337.1,132.9 L 337.1,132.6 L 337.0,132.4 L 336.9,132.3 L 336.9,132.1 L 337.1,132.0 L 337.0,131.9 L 337.0,131.7 L 337.0,131.5 L 337.3,131.5 L 337.5,131.5 L 337.7,131.6 L 337.9,131.5 L 337.9,131.5 L 338.1,131.5 L 338.3,131.4 L 338.4,131.3 L 338.5,131.2 L 338.5,131.1 L 338.6,131.1 L 338.8,131.0 L 339.0,130.9 L 339.3,130.9 L 339.5,130.9 L 339.7,131.0 L 339.9,131.0 L 340.1,131.0 L 340.2,131.0 L 340.4,130.9 L 340.5,130.8 L 340.6,130.7 L 340.7,130.6 L 340.8,130.6 L 340.9,130.6 L 341.1,130.5 L 341.1,130.4 L 341.3,130.4 L 341.5,130.4 L 341.8,130.3 L 342.0,130.2 L 342.1,130.3 L 342.4,130.2 L 342.5,130.1 L 342.7,130.1 L 342.8,130.1 L 343.0,130.1 L 343.1,130.0 L 343.2,129.9 L 343.3,129.8 L 343.5,129.7 L 343.6,129.8 L 343.8,129.9 L 344.0,129.9 L 344.1,129.9 L 344.2,129.8 L 344.4,129.7 L 344.8,129.4 L 344.9,129.2 L 344.9,129.1 L 344.9,129.0 L 344.8,128.8 L 344.8,128.6 L 344.7,128.5 L 344.6,128.4 L 344.7,128.3 L 344.7,128.2 L 344.6,128.1 L 344.4,128.2 L 344.2,128.4 L 344.0,128.2 L 343.9,128.0 L 343.8,127.8 L 343.7,127.7 L 343.6,127.7 L 343.5,127.7 L 343.3,127.5 L 343.2,127.4 L 343.4,127.2 L 343.6,127.1 L 343.7,127.0 L 343.9,126.9 L 344.0,126.9 L 344.0,126.8 L 344.1,126.5 L 344.1,126.5 L 344.1,126.5 L 343.9,126.4 L 343.8,126.5 L 343.7,126.6 L 343.6,126.7 L 343.4,126.8 L 343.2,127.0 L 343.1,127.1 L 342.9,127.1 L 342.8,127.1 L 342.7,127.0 L 342.5,126.7 L 342.3,126.5 L 342.2,126.3 L 342.1,126.0 L 342.1,125.7 L 342.1,125.5 L 342.2,125.2 L 342.4,124.9 L 342.6,124.7 L 342.6,124.7 L 342.7,124.7 L 342.9,124.6 L 343.1,124.6 L 343.2,124.5 L 343.4,124.4 L 343.4,124.2 L 343.4,124.1 L 343.6,124.0 L 343.7,123.8 L 343.7,123.6 L 343.8,123.3 L 343.9,123.0 L 343.8,122.8 L 343.8,122.7 L 343.8,122.7 L 343.6,122.6 L 343.5,122.4 L 343.3,122.2 L 343.3,122.2 L 343.1,122.3 L 343.0,122.3 L 342.9,122.2 L 342.8,122.1 L 342.7,121.8 L 342.8,121.5 L 342.9,121.2 L 343.0,121.1 L 343.0,121.0 L 343.2,120.9 L 343.5,120.8 L 343.6,120.7 L 343.8,120.6 L 343.8,120.6 L 344.0,120.3 L 344.1,120.1 L 344.2,119.9 L 344.2,119.8 L 344.2,119.5 L 344.3,119.4 L 344.3,119.3 L 344.3,119.1 L 344.3,118.8 L 344.3,118.6 L 344.3,118.4 L 344.4,118.2 L 344.5,118.0 L 344.6,117.8 L 344.7,117.6 L 344.9,117.5 L 345.0,117.4 L 345.2,117.3 L 345.4,117.2 L 345.7,117.0 L 345.9,116.9 L 346.1,116.8 L 346.4,116.7 L 346.7,116.7 L 346.9,116.6 L 347.2,116.5 L 347.4,116.5 L 347.7,116.4 L 347.8,116.4 L 347.9,116.4 L 348.1,116.4 L 348.5,116.3 L 348.8,116.3 L 349.1,116.3 L 349.4,116.2 L 349.6,116.2 L 349.7,116.2 L 349.8,116.2 L 350.1,116.2 L 350.2,116.2 L 350.5,116.3 L 350.6,116.3 L 350.7,116.4 L 350.9,116.4 L 351.2,116.4 L 351.4,116.4 L 351.6,116.5 L 351.7,116.5 L 351.9,116.6 L 352.0,116.6 L 352.1,116.7 L 351.8,116.8 L 351.7,116.8 L 351.5,116.8 L 351.3,116.9 L 351.1,116.9 L 350.9,116.9 L 350.6,116.9 L 350.3,116.9 L 350.0,116.9 L 349.7,117.0 L 349.7,117.2 L 349.7,117.3 L 349.8,117.4 L 349.9,117.5 L 350.1,117.5 L 350.4,117.4 L 350.7,117.4 L 350.9,117.4 L 351.2,117.4 L 351.5,117.4 L 351.7,117.4 L 351.9,117.4 L 351.9,117.1 L 351.9,117.0 L 352.1,117.0 L 352.2,116.9 L 352.4,116.8 L 352.5,116.8 L 352.7,116.7 L 352.9,116.7 L 353.1,116.7 L 353.3,116.7 L 353.5,116.8 L 353.4,116.8 L 353.1,116.9 L 352.8,117.0 L 352.8,117.0 L 352.9,117.2 L 353.0,117.2 L 353.3,117.2 L 353.6,117.2 L 353.8,117.2 L 353.9,117.0 L 354.1,116.8 L 354.4,116.7 L 354.5,116.7 L 354.7,116.7 L 354.8,116.7 L 355.0,116.7 L 355.1,116.8 L 355.3,117.0 L 355.4,117.2 L 355.5,117.2 L 355.5,117.2 L 355.9,117.3 L 356.0,117.3 L 356.0,117.5 L 356.1,117.7 L 356.2,117.8 L 356.4,117.9 L 356.5,118.0 L 356.8,118.1 L 357.1,118.1 L 357.4,118.1 L 357.5,118.1 L 357.5,118.1 L 356.6,120.6 L 355.8,122.7 L 355.8,122.7 L 355.7,122.8 L 355.6,123.0 L 355.5,123.1 L 355.5,123.2 L 355.2,123.3 L 355.0,123.4 L 354.9,123.6 L 354.7,123.8 L 354.6,123.9 L 354.5,124.0 L 354.4,124.1 L 354.3,124.2 L 354.2,124.3 L 354.1,124.5 L 354.2,124.6 L 354.3,124.6 L 354.5,124.7 L 354.8,124.8 L 355.0,124.9 L 355.2,124.9 L 355.4,125.0 L 355.5,125.1 L 355.7,125.2 L 355.8,125.4 L 356.0,125.5 L 356.1,125.7 L 356.3,125.8 L 356.4,126.0 L 356.5,126.1 L 356.7,126.3 L 356.9,126.4 L 357.0,126.6 L 357.1,126.7 L 357.2,126.8 L 357.3,127.0 L 357.4,127.2 L 357.5,127.3 L 357.6,127.4 L 357.8,127.5 L 357.9,127.7 L 358.1,127.8 L 358.2,127.9 L 358.3,128.1 L 358.4,128.2 L 358.5,128.4 L 358.5,128.6 L 358.6,128.7 L 358.8,128.9 L 358.9,129.0 L 359.0,129.1 L 359.2,129.2 L 359.3,129.3 L 359.4,129.4 L 359.5,129.6 L 359.5,129.7 L 359.6,129.8 L 359.6,130.0 L 359.7,130.1 L 359.7,130.2 L 359.8,130.4 L 359.8,130.6 L 359.8,130.8 L 359.7,130.9 L 359.8,131.0 L 359.9,131.1 L 360.0,131.3 L 360.0,131.5 L 360.0,131.8 L 359.9,131.9 L 359.9,132.1 L 359.8,132.2 L 359.7,132.4 L 359.6,132.5 L 359.4,132.7 L 359.3,132.9 L 359.2,132.8 L 359.0,132.7 L 358.9,132.6 L 358.9,132.6 L 358.8,132.8 L 358.8,132.9 L 358.9,133.0 L 359.1,133.1 L 359.2,133.2 L 359.3,133.4 L 359.5,133.6 L 359.6,133.8 L 359.7,133.9 L 359.7,134.0 L 359.6,134.1 L 359.5,134.2 L 359.4,134.3 L 359.3,134.5 L 359.2,134.6 L 359.0,134.7 L 358.9,134.9 L 358.7,135.0 L 358.6,135.2 L 358.4,135.3 L 358.3,135.5 L 358.1,135.7 L 358.0,135.8 L 357.8,136.0 L 357.7,136.1 L 357.6,136.2 L 357.4,136.3 L 357.3,136.4 L 357.1,136.6 L 357.0,136.7 L 356.9,136.8 L 356.8,137.0 L 356.6,137.1 L 356.5,137.2 L 356.3,137.4 L 356.3,137.5 L 356.1,137.6 L 356.1,137.7 L 355.9,137.9 L 355.8,138.0 L 355.6,138.1 L 355.3,138.3 L 355.2,138.5 L 355.2,138.5 L 355.2,138.5 L 355.1,138.6 L 355.1,138.6 L 355.1,138.6 L 355.0,138.8 L 354.8,139.0 L 354.8,139.1 L 354.7,139.3 L 354.6,139.4 L 354.5,139.6 L 354.4,139.7 L 354.3,139.8 L 354.2,140.0 L 354.1,140.1 L 354.0,140.3 L 353.9,140.5 L 353.9,140.6 L 353.8,140.7 L 353.7,140.7 L 353.6,140.8 L 353.5,141.0 L 353.4,141.2 L 353.3,141.4 L 353.2,141.6 L 353.1,141.8 L 352.9,141.9 L 352.8,142.2 L 352.7,142.3 L 352.7,142.4 L 352.6,142.6 L 352.5,142.7 L 352.4,142.9 L 352.2,143.1 L 352.1,143.2 L 352.1,143.4 L 352.0,143.5 L 351.9,143.7 L 351.8,143.8 L 351.7,144.0 L 351.6,144.1 L 351.6,144.2 L 351.5,144.4 L 351.4,144.6 L 351.3,144.7 L 351.3,144.8 L 351.1,145.0 L 351.1,145.2 L 350.9,145.4 L 351.0,145.6 L 351.1,145.7 L 351.1,145.9 L 351.2,146.0 L 351.2,146.2 L 351.3,146.3 L 351.4,146.5 L 351.5,146.8 L 351.4,147.0 L 351.4,147.2 L 351.3,147.4 L 351.3,147.6 L 351.3,147.7 L 351.2,147.9 L 351.2,148.1 L 351.3,148.2 L 351.4,148.5 L 351.2,148.5 L 351.1,148.4 L 351.0,148.5 L 350.9,148.7 L 351.1,148.8 L 351.1,148.8 L 351.0,149.1 L 351.0,149.3 L 350.9,149.6 L 350.8,149.7 L 350.6,149.8 L 350.4,150.0 L 350.2,150.1 L 350.1,150.2 L 350.0,150.3 L 349.8,150.4 L 349.7,150.5 L 349.6,150.6 L 349.4,150.7 L 349.2,150.9 L 349.2,151.0 L 349.2,151.2 L 349.1,151.4 L 349.0,151.6 L 348.9,151.7 L 348.6,151.7 L 348.6,151.7 L 348.6,151.4 L 348.4,151.4 L 348.4,151.3 L 348.3,151.3 L 348.1,151.4 L 347.8,151.4 L 347.8,151.4 L 347.6,151.5 L 347.3,151.6 L 347.4,151.7 L 347.4,151.8 L 347.1,151.8 L 346.9,151.9 L 346.7,151.9 L 346.5,152.0 L 346.3,152.0 L 346.1,152.1 L 345.8,152.1 L 345.6,152.2 L 345.4,152.2 L 345.2,152.3 L 345.2,152.5 L 345.2,152.6 L 345.2,152.9 L 345.2,153.1 L 345.1,153.3 L 345.0,153.5 L 344.8,153.7 L 344.7,153.9 L 344.6,154.1 L 344.6,154.2 L 344.7,154.4 L 344.8,154.7 L 344.9,154.8 L 344.9,155.0 L 345.0,155.2 L 345.1,155.5 L 345.2,155.7 L 345.3,155.9 L 345.4,156.1 L 345.4,156.3 L 345.5,156.5 L 345.6,156.6 L 345.6,156.8 L 345.7,157.0 L 345.8,157.2 L 345.9,157.4 L 346.2,157.5 L 346.4,157.5 L 346.7,157.6 L 346.9,157.6 L 347.0,157.6 L 347.3,157.7 L 347.5,157.7 L 347.6,157.7 L 347.8,157.9 L 347.8,157.9 L 348.0,158.1 L 348.1,158.2 L 348.3,158.3 L 348.3,158.5 L 348.2,158.6 L 348.0,158.7 L 347.9,158.8 L 347.8,158.9 L 347.7,158.9 L 347.6,159.0 L 347.5,159.1 L 347.3,159.3 L 347.1,159.4 L 346.8,159.4 L 346.6,159.5 L 346.5,159.4 L 346.4,159.4 L 346.2,159.4 L 346.2,159.5 L 346.3,159.6 L 346.5,159.6 L 346.6,159.6 L 346.8,159.6 L 347.0,159.5 L 347.2,159.5 L 347.3,159.5 L 347.6,159.5 L 347.6,159.6 L 347.8,159.8 L 347.8,159.8 L 348.0,159.9 L 348.1,160.0 L 348.2,160.0 L 348.5,160.0 L 348.7,160.0 L 348.9,160.2 L 349.0,160.3 L 349.0,160.5 L 349.0,160.6 L 348.8,160.7 L 348.7,160.8 L 348.5,160.9 L 348.4,161.0 L 348.2,161.1 L 348.0,161.3 L 348.0,161.3 L 347.9,161.5 L 347.9,161.7 L 347.9,161.9 L 347.9,162.1 L 348.1,162.3 L 348.1,162.5 L 348.3,162.7 L 348.4,162.9 L 348.5,163.0 L 348.5,163.2 L 348.5,163.5 L 348.5,163.6 L 348.5,163.8 L 348.5,164.0 L 348.5,164.2 L 348.5,164.3 L 348.5,164.6 L 348.5,164.9 L 348.3,165.0 L 348.1,165.0 L 347.9,165.1 L 347.8,165.2 L 347.6,165.3 L 347.5,165.3 L 347.3,165.4 L 347.2,165.5 L 347.0,165.6 L 346.8,165.6 L 346.6,165.7 L 346.5,165.8 L 346.4,165.8 L 346.2,165.9 L 346.1,166.0 L 345.8,166.1 L 345.7,166.2 L 345.6,166.3 L 345.6,166.5 L 345.6,166.7 L 345.5,167.0 L 345.4,167.0 L 345.1,167.0 L 345.0,167.0 L 344.8,167.0 L 344.5,167.0 L 344.3,167.0 L 344.1,167.0 L 343.9,167.1 L 343.8,167.1 L 343.5,167.1 L 343.4,167.1 L 343.2,167.1 L 343.0,167.1 L 342.8,167.1 L 342.5,167.1 L 342.3,167.2 L 342.1,167.2 L 341.9,167.3 L 338.4,168.1 L 338.5,168.6 L 338.5,168.8 L 338.6,168.9 L 338.6,169.1 L 338.6,169.2 L 338.7,169.4 L 338.7,169.5 L 338.8,169.7 L 338.9,169.9 L 339.1,170.0 L 339.2,170.1 L 339.5,170.2 L 339.6,170.3 L 339.7,170.3 L 339.8,170.3 L 339.8,170.4 L 339.8,170.7 L 339.8,170.8 L 339.8,171.0 L 339.8,171.2 L 339.7,171.4 L 339.7,171.5 L 339.6,171.7 L 339.5,171.9 L 339.4,172.1 L 339.3,172.3 L 339.1,172.6 L 339.0,172.9 L 338.9,173.1 L 338.8,173.3 L 338.7,173.5 L 338.6,173.7 L 338.6,173.8 L 338.4,173.9 L 338.3,174.1 L 338.2,174.3 L 338.2,174.5 L 338.1,174.7 L 338.0,174.9 L 337.9,175.0 L 337.9,175.1 L 337.7,175.2 L 337.7,175.3 L 337.6,175.4 L 337.5,175.4 L 337.5,175.4 L 337.3,175.6 L 337.2,175.8 L 336.9,175.9 L 336.8,176.1 L 336.5,176.2 L 336.3,176.4 L 335.9,176.6 L 335.6,176.8 L 335.2,176.9 L 335.2,176.9 L 334.9,177.0 L 334.9,177.1 L 334.8,177.1 L 334.7,177.1 L 334.6,177.2 L 334.3,177.2 L 334.1,177.2 L 333.8,177.2 L 333.6,177.2 L 333.4,177.1 L 333.1,177.1 L 332.9,177.1 L 332.8,177.2 L 332.6,177.3 L 332.3,177.3 L 332.2,177.4 L 332.0,177.5 L 331.8,177.6 L 331.7,177.7 L 331.4,177.9 L 331.2,178.0 L 331.0,178.1 L 330.8,178.2 L 330.6,178.3 L 330.4,178.4 L 330.1,178.5 L 330.0,178.6 L 329.8,178.7 L 329.7,178.9 L 329.5,179.0 L 329.4,179.1 L 329.2,179.2 L 329.0,179.4 L 328.8,179.5 L 328.7,179.6 L 328.6,179.8 L 328.5,179.9 L 328.4,180.0 L 328.3,180.1 L 328.3,180.2 L 328.3,180.3 L 328.2,180.5 L 328.0,180.7 L 327.9,180.9 L 327.7,181.2 L 327.5,181.4 L 327.3,181.7 L 327.1,182.0 L 326.9,182.2 L 326.7,182.6 L 326.5,182.8 L 326.4,183.0 L 326.2,183.2 L 326.0,183.3 L 325.8,183.6 L 325.6,183.7 L 325.5,183.9 L 325.4,184.2 L 325.3,184.4 L 325.2,184.6 L 325.0,184.8 L 324.9,185.0 L 324.8,185.2 L 324.6,185.4 L 324.5,185.6 L 324.4,185.8 L 324.2,186.1 L 324.1,186.2 L 324.0,186.5 L 323.8,186.6 L 323.7,186.8 L 323.7,186.9 L 323.6,187.0 L 323.5,187.0 L 323.4,187.2 L 323.3,187.3 L 323.2,187.4 L 323.0,187.6 L 322.9,187.7 L 322.7,187.8 L 322.4,187.8 L 322.2,187.8 L 322.1,187.7 L 322.1,187.7 L 322.0,187.8 L 321.8,187.8 L 321.7,187.8 L 321.6,187.8 L 321.5,187.8 L 321.3,187.7 L 321.1,187.8 L 321.0,187.9 L 320.9,187.9 L 320.8,188.0 L 320.7,188.0 L 320.4,187.9 L 320.3,187.9 L 320.2,188.0 L 319.9,188.1 L 319.9,188.1 L 319.9,188.1 L 319.7,188.0 L 319.6,188.0 L 319.6,188.0 L 319.6,188.2 L 319.5,188.4 L 319.5,188.5 L 319.4,188.6 L 319.2,188.7 L 319.0,188.7 L 318.8,188.8 L 318.6,188.8 L 318.4,188.9 L 318.3,189.1 L 318.1,189.3 L 318.1,189.5 L 317.9,189.7 L 317.8,189.8 L 317.7,189.8 L 317.5,189.7 L 317.3,189.5 L 317.3,189.6 L 317.2,189.7 L 317.2,189.8 L 317.1,190.0 L 317.0,190.2 L 316.9,190.5 L 316.8,190.6 L 316.7,190.7 L 316.5,190.8 L 316.4,190.9 L 316.1,191.0 L 316.0,191.1 L 315.8,191.0 L 315.6,191.0 L 315.5,191.0 L 315.4,191.1 L 315.2,191.1 L 315.1,191.3 L 314.9,191.5 L 314.8,191.5 L 314.7,191.6 L 314.6,191.6 L 314.4,191.6 L 314.1,191.7 L 313.9,191.7 L 313.7,191.8 L 313.5,191.8 L 313.3,191.8 L 313.1,191.8 L 312.9,191.8 L 312.8,191.8 L 312.6,191.7 L 312.5,191.7 L 312.3,191.7 L 312.1,191.8 L 311.9,191.7 L 311.8,191.7 L 311.7,191.7 L 311.4,191.7 L 311.2,191.7 L 311.1,191.7 L 310.8,191.7 L 310.6,191.7 L 310.5,191.6 L 310.3,191.5 L 310.2,191.4 L 310.1,191.4 L 310.0,191.5 L 309.9,191.6 L 309.8,191.7 L 309.6,191.7 L 309.4,191.7 L 309.2,191.7 L 309.1,191.7 L 308.9,191.7 L 308.6,191.7 L 308.5,191.8 L 308.4,191.8 L 308.2,191.9 L 308.0,191.9 L 307.9,192.0 L 307.7,192.1 L 307.6,192.1 L 307.5,192.2 L 307.3,192.2 L 307.2,192.3 L 307.1,192.3 L 307.0,192.3 L 306.8,192.4 L 306.6,192.4 L 306.4,192.5 L 306.3,192.5 L 306.1,192.6 L 306.0,192.6 L 305.8,192.6 L 305.5,192.7 L 305.3,192.7 L 305.2,192.7 L 305.1,192.7 L 304.9,192.9 L 304.1,193.1 L 303.2,193.4 L 302.6,193.5 L 302.3,193.5 L 301.9,193.3 L 301.7,193.2 L 301.4,193.1 L 301.0,193.2 L 300.4,192.9 L 300.0,192.8 L 299.8,192.8 L 299.5,192.7 L 299.1,192.2 L 298.5,192.1 L 298.3,192.2 L 298.2,192.6 L 298.0,192.7 L 297.7,192.9 L 297.4,192.9 L 297.3,192.9 L 297.3,192.9 L 297.3,192.9 L 297.2,192.9 L 297.1,192.9 L 296.4,192.9 L 296.3,193.2 L 296.7,193.3 L 296.7,193.5 L 296.8,193.8 L 296.6,194.1 L 296.7,194.4 L 296.5,194.6 L 296.5,195.0 L 296.3,195.2 L 296.4,195.4 L 296.5,195.7 L 296.2,195.8 L 296.0,196.0 L 295.9,196.3 L 296.3,196.7 L 296.2,196.9 L 296.3,197.1 L 296.6,197.2 L 296.7,197.2 L 296.8,197.7 L 296.8,197.8 L 296.3,198.2 L 296.3,198.4 L 296.4,198.5 L 296.5,198.6 L 296.5,199.4 L 296.4,199.7 L 296.6,199.7 L 296.6,199.9 L 296.4,200.0 L 296.2,200.2 L 296.4,200.3 L 296.4,200.7 L 296.5,201.1 L 296.4,201.5 L 296.2,201.8 L 295.5,202.1 L 295.4,202.1 L 295.2,202.4 L 295.5,202.6 L 295.2,203.8 L 295.2,204.1 L 294.9,204.6 L 294.2,205.2 L 294.0,205.3 L 293.9,205.2 L 293.6,205.3 L 293.3,205.4 L 292.9,205.5 L 292.5,205.6 L 292.2,206.1 L 291.4,206.3 L 291.0,206.5 L 290.6,206.6 L 290.2,206.9 L 290.1,207.1 L 289.9,207.2 L 290.0,207.5 L 290.0,207.6 L 290.0,207.8 L 290.0,207.9 L 289.8,208.2 L 290.0,208.6 L 290.1,208.9 L 289.6,208.9 L 289.5,209.1 L 289.7,209.2 L 289.7,209.6 L 289.5,210.1 L 289.4,210.3 L 289.0,211.3 L 288.8,211.5 L 288.9,211.8 L 288.9,212.1 L 288.5,212.5 L 288.0,212.9 L 287.2,213.2 L 286.4,213.6 L 286.3,213.7 L 286.2,213.9 L 286.2,213.9 L 285.6,214.4 L 284.4,214.9 L 283.7,215.2 L 282.0,215.9 L 281.7,215.9 L 281.4,215.9 L 281.1,216.0 L 279.2,216.9 L 278.7,217.0 L 277.8,217.0 L 277.4,216.9 L 277.0,216.9 L 276.0,216.9 L 275.1,216.6 L 274.2,215.9 L 273.7,215.9 L 273.4,215.9 L 272.8,216.1 L 272.7,216.1 L 272.2,216.1 L 271.6,216.1 L 271.4,216.1 L 269.7,216.0 L 268.6,215.4 L 267.6,215.4 L 267.3,215.6 L 267.2,215.7 L 266.8,215.7 L 266.8,215.7 L 266.3,215.4 L 266.3,215.4 L 265.0,214.7 L 264.7,214.6 L 264.6,214.6 L 264.3,215.0 L 264.2,215.7 L 264.1,216.1 L 263.2,216.8 L 261.4,217.5 L 260.7,217.6 L 260.4,217.5 L 260.0,217.5 L 259.9,217.3 L 259.9,217.3 L 259.9,217.1 L 259.5,217.1 L 259.3,216.9 L 258.8,217.0 L 258.5,217.5 L 258.6,217.7 L 258.6,217.9 L 258.4,218.3 L 258.2,218.6 L 257.8,218.8 L 257.7,219.0 L 257.4,219.6 L 257.3,219.9 L 257.1,220.1 L 256.9,220.2 L 256.7,220.3 L 256.2,220.7 L 255.7,220.8 L 255.3,221.7 L 255.3,221.9 L 255.1,222.4 L 254.9,222.7 L 254.7,223.3 L 254.5,223.5 L 254.0,224.4 L 253.6,224.8 L 253.2,224.8 L 253.0,225.1 L 252.8,225.1 L 252.6,225.2 L 252.5,225.4 L 252.6,225.5 L 252.6,225.8 L 252.3,226.0 L 251.8,226.9 L 251.8,227.2 L 251.7,227.7 L 251.5,227.8 L 251.4,228.0 L 251.3,228.6 L 251.1,229.0 L 250.1,230.1 L 250.1,230.6 L 250.3,230.8 L 250.3,231.4 L 250.2,231.6 L 250.1,232.1 L 250.0,232.8 L 249.7,233.3 L 249.6,233.5 L 249.2,233.6 L 249.0,234.1 L 249.0,234.5 L 249.0,234.9 L 249.3,235.0 L 249.3,235.5 L 249.5,235.7 L 249.8,235.8 L 249.9,236.4 L 250.2,237.0 L 250.3,237.5 L 250.4,237.6 L 250.5,237.7 L 250.6,237.9 L 250.8,238.0 L 250.9,238.3 L 251.3,239.4 L 251.3,239.7 L 251.2,239.9 L 251.2,240.2 L 251.3,240.3 L 251.4,240.6 L 251.3,240.7 L 251.2,240.8 L 251.1,241.2 L 251.0,241.3 L 250.9,241.3 L 250.8,241.4 L 250.6,241.3 L 250.4,241.3 L 250.4,241.2 L 250.3,241.2 L 250.1,241.1 L 249.9,241.0 L 249.6,241.2 L 249.4,241.2 L 249.3,241.2 L 249.1,241.0 L 248.5,241.4 L 248.3,241.5 L 248.1,242.0 L 247.9,242.2 L 247.4,242.4 L 247.1,242.8 L 246.1,244.0 L 245.1,245.2 L 245.0,245.5 L 245.2,245.6 L 245.8,246.0 L 246.7,245.9 L 247.2,245.6 L 247.3,245.6 L 247.9,245.5 L 248.4,245.3 L 248.8,245.0 L 249.5,244.3 L 249.8,244.1 L 249.9,244.1 L 249.9,244.0 L 250.2,243.8 L 250.4,243.7 L 250.5,243.4 L 251.1,242.8 L 251.4,242.9 L 251.7,243.2 L 251.7,243.5 L 251.7,243.6 L 251.3,243.8 L 250.9,244.1 L 250.7,244.4 L 250.5,244.8 L 250.5,245.3 L 250.6,246.0 L 250.8,246.1 L 251.9,246.1 L 252.2,246.0 L 252.5,245.7 L 252.8,245.6 L 253.0,245.9 L 253.2,245.8 L 253.6,245.6 L 253.6,245.6 L 253.8,245.8 L 253.9,245.9 L 253.9,246.0 L 254.0,246.2 L 254.0,246.4 L 254.0,246.6 L 254.1,246.8 L 254.1,247.0 L 254.2,247.2 L 254.2,247.4 L 254.2,247.5 L 254.3,247.7 L 254.3,247.9 L 254.3,248.1 L 254.3,248.4 L 254.3,248.6 L 254.2,248.8 L 254.2,248.9 L 254.2,249.2 L 254.1,249.4 L 254.0,249.6 L 254.0,249.8 L 253.9,250.0 L 253.8,250.3 L 253.8,250.3 L 253.9,250.4 L 253.9,250.4 L 254.1,250.4 L 254.2,250.2 L 254.2,250.2 L 254.2,250.0 L 254.3,249.8 L 254.4,249.6 L 254.4,249.4 L 254.5,249.2 L 254.5,249.1 L 254.6,248.9 L 254.6,248.8 L 254.6,248.6 L 254.6,248.5 L 254.6,248.3 L 254.6,248.1 L 254.6,247.9 L 254.6,247.7 L 254.6,247.5 L 254.6,247.3 L 254.5,247.0 L 254.5,246.8 L 254.5,246.6 L 254.5,246.5 L 254.5,246.5 L 254.6,246.8 L 254.7,247.0 L 254.8,247.1 L 255.0,247.3 L 255.0,247.3 L 255.1,247.4 L 255.1,247.6 L 255.1,247.8 L 255.1,248.1 L 255.0,248.2 L 255.0,248.5 L 254.9,248.6 L 254.9,248.8 L 254.8,249.0 L 254.8,249.2 L 254.7,249.3 L 254.7,249.4 L 254.6,249.6 L 254.5,249.8 L 254.5,250.0 L 254.4,250.1 L 254.4,250.2 L 254.3,250.4 L 254.2,250.5 L 254.3,250.5 L 254.5,250.7 L 254.6,250.6 L 254.7,250.4 L 254.7,250.3 L 254.7,250.3 L 254.8,250.1 L 254.9,250.0 L 254.9,249.8 L 255.0,249.7 L 255.1,249.5 L 255.2,249.3 L 255.5,249.3 L 255.7,249.3 L 255.8,249.4 L 256.0,249.4 L 256.1,249.5 L 256.2,249.5 L 256.3,249.6 L 256.5,249.7 L 256.6,249.8 L 256.7,249.9 L 256.8,250.0 L 256.9,250.1 L 257.0,250.2 L 257.2,250.4 L 257.1,250.5 L 257.0,250.7 L 257.0,250.8 L 257.2,251.0 L 257.4,251.1 L 257.5,251.1 L 257.8,251.1 L 258.0,251.0 L 258.2,251.0 L 258.2,251.0 L 258.3,251.1 L 258.5,251.1 L 258.6,251.2 L 258.8,251.2 L 259.1,251.2 L 259.3,251.3 L 259.3,251.3 L 259.7,252.0 L 259.7,252.1 L 259.7,252.1 L 259.8,252.3 L 259.1,253.3 L 258.7,253.6 L 258.4,253.7 L 257.7,253.8 L 257.1,254.1 L 256.6,254.4 L 256.1,254.4 L 255.9,254.5 L 255.4,254.4 L 253.6,253.3 L 252.9,253.1 L 252.2,253.0 L 252.3,252.7 L 253.0,252.1 L 253.2,252.0 L 253.2,252.0 L 253.3,251.9 L 253.4,251.7 L 253.5,251.6 L 253.6,251.3 L 253.7,251.2 L 253.8,250.9 L 253.7,250.9 L 253.6,250.8 L 253.4,251.1 L 253.3,251.3 L 253.1,251.6 L 253.0,251.8 L 252.8,251.9 L 252.8,251.9 L 251.1,253.2 L 250.6,253.5 L 246.6,254.8 L 246.4,254.7 L 245.8,254.7 L 244.9,254.9 L 244.3,255.3 L 244.2,255.1 L 244.2,254.8 L 244.3,254.5 L 244.3,254.2 L 244.2,254.1 L 243.9,254.2 L 242.6,254.9 L 242.2,255.2 L 241.9,255.2 L 241.8,255.4 L 241.8,256.1 L 241.6,256.4 L 241.2,256.7 L 240.8,257.1 L 240.8,257.4 L 240.7,258.0 L 240.1,258.7 L 240.0,258.8 L 239.3,259.8 L 238.6,260.7 L 238.2,261.7 L 237.9,262.4 L 237.3,263.1 L 236.9,263.8 L 236.4,264.5 L 235.9,265.0 L 235.5,265.2 L 235.1,265.2 L 234.6,265.0 L 234.0,265.0 L 233.5,265.6 L 233.3,265.6 L 232.6,266.4 L 231.7,266.9 L 231.7,266.9 L 231.0,266.9 L 230.6,267.1 L 229.0,267.3 L 228.5,267.4 L 228.1,267.5 L 227.8,267.4 L 227.5,267.7 L 226.6,268.3 L 226.1,268.8 L 225.6,269.5 L 225.4,269.8 L 225.0,270.1 L 224.9,270.6 L 224.3,271.6 L 224.1,271.9 L 223.7,272.6 L 223.3,272.9 L 222.9,272.9 L 222.6,272.9 L 222.1,272.6 L 221.7,272.5 L 221.0,272.7 L 219.9,272.8 L 218.7,273.4 L 218.1,273.8 L 217.6,273.9 L 216.6,273.9 L 215.8,273.7 L 215.4,273.5 L 215.2,273.7 L 215.2,273.9 L 216.3,274.1 L 216.5,274.2 L 216.3,274.3 L 216.0,274.5 L 215.5,274.6 L 214.4,275.1 L 214.0,275.3 L 213.7,275.6 L 213.6,275.6 L 213.4,275.4 L 213.7,275.0 L 214.0,274.9 L 214.3,274.3 L 214.6,274.0 L 214.6,273.8 L 214.5,273.7 L 214.6,273.6 L 214.9,273.7 L 214.9,273.5 L 214.3,273.2 L 213.5,272.6 L 213.3,272.4 L 213.3,272.0 L 213.3,271.8 L 213.2,271.6 L 213.4,271.3 L 213.4,271.2 L 212.9,271.2 L 212.2,271.3 L 211.7,271.5 L 210.2,271.9 L 209.6,271.7 L 208.7,271.8 L 208.1,272.0 L 207.9,272.2 L 207.5,272.4 L 206.4,272.7 L 206.3,273.0 L 206.4,273.2 L 205.9,273.6 L 205.7,273.7 L 205.0,273.8 L 204.6,274.1 L 204.7,274.4 L 204.5,274.8 L 203.6,275.4 L 203.0,275.6 L 202.8,275.6 L 202.3,275.6 L 201.6,275.5 L 200.6,275.6 L 200.1,275.8 L 199.5,275.9 L 199.3,276.0 L 198.8,275.9 L 198.2,276.0 L 197.7,276.2 L 197.5,276.3 L 197.6,276.7 L 197.8,276.7 L 198.7,276.6 L 198.7,277.0 L 198.9,277.3 L 198.9,277.4 L 198.5,277.6 L 197.3,277.8 L 196.9,278.0 L 195.7,278.1 L 195.5,278.2 L 195.4,278.2 L 195.4,278.3 L 195.5,278.4 L 195.6,278.5 L 196.4,278.5 L 196.7,278.6 L 196.7,278.7 L 196.6,278.8 L 195.9,278.7 L 195.8,278.8 L 195.6,279.0 L 193.3,279.0 L 192.8,279.2 L 192.5,279.5 L 192.1,279.7 L 191.6,279.9 L 191.5,279.7 L 191.2,279.7 L 190.6,279.8 L 189.5,280.3 L 188.9,280.6 L 188.7,280.7 L 188.5,281.0 L 188.1,281.0 L 187.8,281.3 L 187.0,281.4 L 186.0,281.4 L 185.6,281.3 L 185.1,281.2 L 185.1,281.2 L 184.3,281.3 L 184.1,281.4 L 183.8,281.5 L 183.6,281.7 L 183.1,281.9 L 182.3,282.1 L 181.0,282.8 L 180.3,282.8 L 180.0,283.2 L 179.8,283.4 L 159.4,275.5 L 159.5,275.3 L 159.4,275.2 L 159.0,274.8 L 158.8,274.5 L 158.6,273.8 L 158.6,273.1 L 158.9,272.7 L 159.1,272.6 L 159.2,272.4 L 159.6,271.8 L 159.7,270.5 L 159.1,269.7 L 159.1,268.8 L 159.1,268.7 L 158.8,268.7 L 158.4,269.0 L 158.1,269.2 L 157.7,269.6 L 157.6,270.2 L 157.4,270.2 L 157.3,270.4 L 157.1,270.8 L 156.6,271.2 L 156.0,271.5 L 155.7,271.9 L 155.4,272.0 L 155.1,271.8 L 154.9,271.7 L 154.9,271.3 L 154.7,271.2 L 154.4,271.4 L 154.1,270.8 L 154.1,270.6 L 153.6,270.6 L 152.5,270.3 L 151.6,269.8 L 150.8,269.1 L 150.6,268.9 L 149.1,268.0 L 148.7,267.6 L 148.6,266.9 L 148.2,265.7 L 147.8,265.4 L 147.4,265.4 L 146.8,264.1 L 146.5,263.8 L 146.4,263.5 L 146.3,263.3 L 145.8,263.1 L 145.6,262.6 L 145.2,262.3 L 145.0,262.2 L 145.0,261.9 L 144.4,261.7 L 144.3,261.7 L 144.1,261.6 L 143.6,261.3 L 142.3,261.0 L 141.8,260.7 L 141.6,260.6 L 141.1,260.4 L 140.9,260.4 L 140.4,260.4 L 139.9,260.4 L 139.7,260.6 L 139.6,260.9 L 139.4,261.0 L 138.2,261.0 L 137.6,260.9 L 136.6,260.4 L 136.3,260.2 L 136.2,260.1 L 135.9,259.7 L 135.4,259.3 L 134.8,259.1 L 134.2,259.0 L 133.6,258.8 L 133.4,258.6 L 133.4,258.3 L 133.2,257.9 L 132.6,257.4 L 132.2,257.3 L 131.8,257.2 L 131.1,257.0 L 130.1,256.9 L 129.3,256.7 L 127.7,256.6 L 125.7,256.3 L 124.4,256.4 L 123.1,256.5 L 122.0,256.9 L 121.7,257.4 L 121.3,257.6 L 120.4,258.1 L 120.3,258.2 L 118.7,258.4 L 117.7,258.7 L 117.2,258.8 L 116.6,258.6 L 115.9,258.3 L 115.7,258.0 L 115.6,257.7 L 115.6,257.1 L 115.6,256.7 L 115.6,256.5 L 116.0,255.9 L 116.0,255.7 L 115.9,255.6 L 115.1,256.0 L 114.8,256.0 L 114.4,255.6 L 113.5,255.3 L 112.8,254.9 L 112.2,254.9 L 111.8,255.3 L 111.9,255.6 L 112.2,255.8 L 112.3,256.1 L 112.8,256.5 L 112.9,256.7 L 112.7,257.3 L 112.4,258.0 L 112.0,258.5 L 111.3,259.8 L 111.2,259.8 L 110.8,259.8 L 110.5,259.6 L 109.9,259.6 L 109.7,259.7 L 108.9,259.4 L 108.2,259.5 L 108.0,259.5 L 107.2,259.5 L 105.9,258.8 L 105.2,258.6 L 104.3,258.3 L 103.9,258.2 L 103.6,258.0 L 103.4,257.9 L 103.2,258.1 L 103.2,258.4 L 103.2,258.9 L 103.1,259.2 L 103.0,259.3 L 101.9,259.3 L 101.5,259.4 L 101.1,259.5 L 100.3,259.7 L 99.7,259.8 L 98.7,259.1 L 98.2,259.1 L 97.4,259.5 L 96.6,259.9 L 96.1,260.5 L 96.1,260.5 L 95.6,260.9 L 94.4,262.5 L 94.0,263.3 L 92.8,263.9 L 92.6,264.0 L 92.4,263.9 L 91.7,263.7 L 91.6,263.8 L 91.5,264.2 L 91.4,264.3 L 91.3,264.3 L 90.9,264.1 L 90.2,264.1 L 89.5,263.8 L 89.1,263.6 L 88.4,263.4 L 88.0,263.2 L 87.8,262.9 L 87.5,262.3 L 87.4,261.9 L 87.5,261.2 L 87.6,261.0 L 88.7,261.0 L 88.6,260.9 L 88.1,260.5 L 87.5,260.5 L 86.3,260.7 L 86.3,260.8 L 86.7,261.0 L 87.0,261.1 L 87.1,261.3 L 87.0,262.0 L 86.6,262.7 L 86.4,262.8 L 86.0,262.9 L 85.6,262.8 L 85.1,262.8 L 84.1,263.4 L 83.7,263.6 L 83.2,263.7 L 83.0,263.6 L 82.7,263.5 L 82.6,263.4 L 81.9,263.4 L 81.6,263.2 L 81.1,263.2 L 80.1,262.3 L 79.8,262.2 L 79.4,262.4 L 78.6,262.9 L 78.2,263.1 L 77.9,263.4 L 77.6,264.1 L 77.5,264.3 L 77.2,264.8 L 76.7,265.1 L 75.8,265.6 L 75.6,265.8 L 75.9,266.1 L 75.7,266.5 L 75.6,266.8 L 75.6,267.4 L 75.5,267.9 L 75.1,268.2 L 75.0,268.6 L 74.2,269.0 L 73.9,269.1 L 73.6,269.2 L 72.6,270.0 L 71.7,270.8 L 71.3,270.8 L 71.1,270.9 L 70.2,271.2 L 69.8,271.6 L 69.4,271.8 L 69.0,271.8 L 68.3,271.7 L 68.3,271.5 L 67.9,271.7 L 67.6,271.6 L 67.4,271.4 L 67.4,271.2 L 66.9,271.2 L 66.8,271.0 L 66.5,270.9 L 66.3,270.8 L 66.2,270.7 L 65.6,271.0 L 64.9,270.9 L 64.5,271.1 L 64.4,271.2 L 63.9,271.6 L 63.4,272.4 L 63.4,272.9 L 63.5,273.2 L 63.9,273.6 L 64.4,273.8 L 64.9,274.1 L 65.2,274.1 L 65.4,274.4 L 65.6,274.5 L 65.9,274.7 L 65.9,275.2 L 65.8,275.5 L 65.7,276.2 L 65.5,276.8 L 65.5,277.4 L 65.4,278.0 L 65.2,278.3 L 64.8,278.7 L 64.3,278.9 L 64.0,279.4 L 63.8,279.9 L 63.2,280.8 L 62.9,281.1 L 62.0,281.8 L 61.8,281.9 L 61.7,281.9 L 61.6,282.1 L 61.3,282.7 L 61.6,283.3 L 61.7,283.8 L 61.2,283.2 L 60.8,282.4 L 60.7,282.2 L 60.0,282.2 L 58.9,282.1 L 58.6,282.0 L 58.5,281.9 L 58.2,281.6 L 58.1,281.2 L 58.1,280.8 L 57.8,280.2 L 57.8,279.4 L 57.5,279.3 L 57.2,278.9 L 57.0,278.4 L 56.8,278.3 L 56.5,278.0 L 56.4,277.9 L 56.0,278.3 L 55.1,278.8 L 54.7,279.2 L 54.3,279.7 L 54.0,279.8 L 53.5,279.4 L 53.2,279.1 L 53.0,278.7 L 53.2,278.2 L 53.0,277.9 L 52.6,277.6 L 52.5,277.5 L 52.4,276.0 L 52.1,275.3 L 52.1,275.1 L 52.2,275.0 L 51.8,274.4 L 51.7,274.0 L 52.0,273.8 L 51.8,273.5 L 51.8,273.2 L 51.5,273.0 L 51.4,272.7 L 51.5,272.5 L 51.3,272.3 L 51.4,272.1 L 51.2,271.8 L 51.2,271.7 L 50.9,271.7 L 50.8,271.6 L 50.6,271.6 L 50.3,271.9 L 50.0,272.5 L 48.2,273.7 L 48.1,274.0 L 48.1,274.1 L 48.0,274.4 L 47.8,274.6 L 47.6,274.5 L 47.4,274.5 L 46.6,274.4 L 45.4,274.1 L 44.8,274.1 L 44.6,274.0 L 44.3,273.9 L 43.7,273.7 L 43.0,273.7 L 41.7,273.8 L 41.7,273.8 L 41.7,273.8 L 40.0,260.2 L 40.0,260.2 L 40.3,260.1 L 40.9,260.1 L 41.4,259.9 L 42.7,259.9 L 44.3,259.4 L 44.8,259.0 L 45.2,258.9 L 46.0,258.3 L 46.4,258.0 L 46.8,257.8 L 47.3,257.5 L 47.8,257.4 L 48.2,257.3 L 48.9,257.0 L 49.0,257.0 L 49.1,256.9 L 49.3,257.0 L 50.7,257.7 L 50.8,257.7 L 51.2,257.8 L 51.3,257.9 L 52.1,257.9 L 52.4,257.6 L 53.3,257.6 L 53.6,257.4 L 53.9,257.2 L 54.2,257.1 L 55.2,256.1 L 56.0,255.3 L 56.3,255.3 L 56.7,254.7 L 57.2,254.7 L 57.5,254.2 L 58.0,254.1 L 58.4,254.1 L 59.0,253.9 L 59.4,253.8 L 60.5,253.1 L 61.1,252.3 L 61.4,252.1 L 61.6,251.9 L 61.9,251.6 L 62.7,251.2 L 63.3,250.9 L 64.2,250.2 L 64.5,250.1 L 64.9,249.8 L 64.9,249.6 L 65.0,249.5 L 65.3,249.4 L 65.2,249.2 L 65.6,249.0 L 66.4,248.5 L 66.8,248.5 L 66.8,248.5 L 68.4,247.6 L 68.7,247.5 L 69.5,247.1 L 70.0,247.0 L 71.0,247.1 L 71.5,246.8 L 72.1,246.7 L 72.4,246.5 L 72.7,246.2 L 73.1,246.0 L 73.4,245.8 L 73.6,245.3 L 74.3,245.2 L 74.5,244.8 L 74.7,244.4 L 74.9,244.2 L 75.3,244.2 L 75.5,244.0 L 75.7,243.9 L 76.1,243.5 L 76.4,243.2 L 76.9,243.1 L 77.2,242.9 L 77.3,242.8 L 77.4,242.7 L 77.7,242.5 L 78.0,242.2 L 78.2,241.9 L 78.7,241.7 L 78.8,241.4 L 79.1,241.2 L 79.4,240.9 L 79.4,240.8 L 79.5,240.8 L 79.7,241.0 L 80.0,241.5 L 80.2,241.6 L 80.8,241.6 L 81.4,241.9 L 81.9,241.8 L 82.3,241.8 L 84.3,241.8 L 84.4,241.8 L 85.3,242.1 L 85.9,242.0 L 86.2,242.1 L 87.1,242.0 L 87.6,241.9 L 88.3,241.6 L 88.7,241.5 L 88.8,241.6 L 88.9,241.8 L 89.0,242.0 L 89.6,241.9 L 91.1,241.9 L 91.4,241.7 L 91.8,241.7 L 92.3,241.4 L 92.5,241.1 L 92.9,241.1 L 93.2,241.0 L 93.3,240.8 L 93.7,239.8 L 94.1,239.5 L 94.3,238.9 L 95.1,238.9 L 95.5,238.6 L 96.5,238.4 L 96.5,238.4 L 96.7,238.1 L 96.9,238.0 L 97.1,237.9 L 97.1,237.9 L 97.1,237.7 L 97.2,237.6 L 97.4,237.6 L 97.4,237.7 L 97.5,237.9 L 97.5,238.0 L 97.4,238.0 L 97.2,238.0 L 97.2,238.0 L 97.2,238.2 L 97.3,238.4 L 97.4,238.5 L 97.4,238.6 L 97.7,238.6 L 97.8,238.5 L 97.8,238.3 L 97.9,238.3 L 98.0,238.1 L 98.0,237.9 L 98.0,237.9 L 98.1,237.8 L 98.2,237.7 L 98.4,237.8 L 98.5,237.9 L 98.7,237.9 L 98.8,238.0 L 99.0,237.8 L 99.1,237.8 L 99.1,238.0 L 99.2,238.0 L 99.3,238.0 L 99.4,237.9 L 99.5,237.7 L 99.4,237.5 L 99.4,237.4 L 99.5,237.3 L 99.7,237.3 L 99.7,237.1 L 99.8,237.1 L 100.0,237.1 L 100.2,237.1 L 100.5,237.1 L 100.5,237.1 L 100.6,237.0 L 100.7,236.8 L 100.8,236.8 L 101.0,236.8 L 101.2,237.0 L 101.3,237.1 L 101.3,237.3 L 101.3,237.4 L 101.4,237.6 L 101.3,237.6 L 101.3,237.7 L 101.3,237.9 L 101.4,237.9 L 101.6,237.9 L 101.8,238.0 L 101.9,238.1 L 102.1,238.2 L 102.2,238.3 L 102.4,238.4 L 102.5,238.5 L 102.6,238.5 L 102.8,238.4 L 103.0,238.3 L 103.1,238.2 L 103.3,238.1 L 103.4,238.1 L 103.6,238.1 L 103.6,238.1 L 103.5,238.3 L 103.5,238.4 L 103.7,238.5 L 103.9,238.5 L 104.1,238.5 L 104.1,238.5 L 104.1,238.3 L 104.2,238.1 L 104.3,238.1 L 104.3,238.2 L 104.2,238.4 L 104.2,238.5 L 104.5,238.6 L 104.7,238.5 L 104.8,238.5 L 104.8,238.6 L 104.8,238.6 L 104.7,238.8 L 104.5,238.8 L 104.4,238.9 L 104.2,239.0 L 104.1,239.2 L 104.2,239.3 L 104.4,239.4 L 104.5,239.4 L 104.8,239.4 L 104.9,239.4 L 105.1,239.4 L 105.2,239.4 L 105.4,239.3 L 105.5,239.3 L 105.7,239.2 L 105.8,239.2 L 106.0,239.1 L 106.2,239.0 L 106.4,238.9 L 106.6,238.8 L 106.8,238.8 L 106.9,238.7 L 107.0,238.5 L 107.2,238.4 L 107.3,238.1 L 107.4,237.9 L 107.5,237.9 L 107.5,237.7 L 108.2,237.7 L 108.4,237.7 L 108.8,237.7 L 109.0,238.1 L 110.0,238.1 L 110.3,238.2 L 110.4,238.4 L 110.7,238.4 L 110.9,238.5 L 111.1,238.5 L 111.5,238.5 L 111.8,238.4 L 112.4,238.1 L 112.9,238.0 L 113.7,237.6 L 114.0,237.3 L 115.0,236.5 L 115.1,236.6 L 115.2,236.7 L 115.4,236.5 L 115.5,236.3 L 115.3,236.1 L 115.6,235.9 L 116.2,235.3 L 116.9,235.3 L 117.2,235.1 L 117.3,235.0 L 117.5,234.7 L 117.8,234.5 L 118.0,234.3 L 118.4,234.0 L 118.7,233.5 L 118.6,233.2 L 118.9,232.8 L 119.1,232.6 L 119.4,232.5 L 119.4,232.3 L 119.9,231.8 L 120.4,231.7 L 120.7,231.6 L 120.7,231.4 L 121.0,231.1 L 121.1,231.0 L 121.1,230.8 L 121.3,230.5 L 121.5,230.4 L 121.8,230.1 L 121.8,229.5 L 122.1,229.2 L 122.4,229.0 L 122.5,228.8 L 122.6,228.5 L 123.0,228.0 L 123.2,227.9 L 123.7,227.1 L 123.7,226.5 L 124.2,226.0 L 124.3,225.7 L 124.0,225.1 L 124.0,224.8 L 124.0,224.6 L 124.5,224.3 L 124.9,223.9 L 124.9,223.8 L 124.8,223.6 L 124.8,223.6 L 125.0,223.1 L 125.0,223.1 L 125.4,222.8 L 125.6,222.7 L 126.0,222.7 L 126.0,222.4 L 126.5,222.1 L 126.7,222.1 L 127.2,221.5 L 127.3,221.3 L 127.7,220.9 L 128.0,220.9 L 129.2,221.1 L 129.4,220.8 L 129.6,220.6 L 130.6,219.4 L 130.6,219.3 L 130.8,219.2 L 131.0,219.0 L 131.2,218.9 L 131.3,218.7 L 131.4,218.5 L 131.4,218.3 L 131.4,218.3 L 131.7,218.3 L 131.8,218.2 L 131.9,218.1 L 131.9,217.9 L 131.9,217.7 L 131.9,217.5 L 131.9,217.4 L 131.9,217.2 L 132.0,217.0 L 132.2,216.8 L 132.2,216.8 L 132.4,216.8 L 132.6,216.8 L 132.6,216.8 L 132.7,216.7 L 132.7,216.7 L 132.5,216.5 L 132.5,216.2 L 132.5,216.1 L 132.7,216.0 L 132.8,216.0 L 133.1,215.9 L 133.3,216.0 L 133.5,216.0 L 133.7,216.0 L 133.8,216.2 L 133.9,216.4 L 134.0,216.4 L 134.1,216.4 L 134.2,216.4 L 134.3,216.5 L 134.3,216.6 L 134.3,216.8 L 134.4,216.9 L 134.6,217.0 L 134.6,217.1 L 134.7,217.3 L 134.7,217.4 L 134.7,217.6 L 134.8,217.8 L 134.8,218.0 L 134.8,218.2 L 134.8,218.4 L 135.4,218.7 L 135.5,219.0 L 135.2,219.4 L 135.2,219.7 L 135.4,219.7 L 135.4,220.4 L 135.6,220.8 L 135.7,221.1 L 136.0,221.2 L 136.2,221.2 L 136.3,221.1 L 136.4,221.1 L 137.0,220.8 L 137.3,220.9 L 137.8,221.4 L 137.9,221.5 L 138.0,221.7 L 138.1,221.7 L 138.2,221.7 L 138.6,221.5 L 138.8,221.4 L 139.4,220.9 L 139.6,220.9 L 140.1,220.4 L 140.3,220.4 L 140.5,220.2 L 140.7,220.1 L 141.0,220.1 L 141.5,219.7 L 141.7,219.7 L 141.9,219.5 L 142.0,219.1 L 142.2,219.1 L 142.6,219.0 L 143.3,218.6 L 143.4,218.4 L 143.7,218.0 L 144.1,217.8 L 144.3,217.7 L 144.5,217.3 L 144.8,217.2 L 144.8,216.9 L 145.1,216.8 L 145.3,216.7 L 145.3,216.6 L 145.2,216.5 L 145.6,215.9 L 145.6,215.8 L 145.7,215.7 L 145.9,215.6 L 146.1,215.3 L 146.3,215.3 L 146.9,214.8 L 147.1,214.8 L 147.8,214.7 L 148.3,214.5 L 148.7,214.3 L 148.9,214.3 L 149.3,213.9 L 150.1,214.1 L 150.4,213.9 L 150.7,213.8 L 151.0,213.8 L 151.3,213.9 L 151.4,213.8 L 151.6,213.7 L 151.9,213.2 L 152.2,212.8 L 153.4,212.8 L 153.4,212.8 L 153.7,212.7 L 154.0,212.7 L 154.9,212.4 L 155.2,212.4 L 155.5,212.5 L 155.7,212.4 L 156.0,212.5 L 157.4,212.0 L 157.5,211.5 L 157.5,210.7 L 157.9,210.1 L 158.1,209.8 L 158.4,210.1 L 158.8,210.2 L 158.9,210.5 L 159.1,210.6 L 159.1,210.9 L 159.2,211.0 L 159.4,211.1 L 159.7,211.7 L 159.9,211.9 L 160.0,212.0 L 160.2,212.2 L 160.2,212.4 L 160.4,212.8 L 160.6,212.8 L 160.6,213.0 L 160.7,213.2 L 160.9,213.2 L 160.9,213.5 L 161.1,213.7 L 161.2,213.9 L 161.3,213.9 L 161.5,214.0 L 161.6,213.9 L 161.9,214.1 L 162.3,214.3 L 162.6,214.4 L 163.4,214.3 L 164.0,214.4 L 164.5,214.6 L 164.8,214.5 L 165.0,214.6 L 165.5,214.6 L 165.7,214.7 L 165.8,214.7 L 166.0,214.8 L 166.5,214.8 L 166.7,214.6 L 167.3,214.6 L 167.2,214.8 L 167.3,214.9 L 168.7,214.9 L 169.1,214.8 L 169.4,214.9 L 169.6,214.8 L 169.9,214.8 L 170.4,214.5 L 170.9,214.4 L 171.5,214.1 L 172.1,214.0 L 172.4,214.1 L 173.0,213.9 L 173.6,214.0 L 173.8,214.2 L 174.2,214.0 L 174.5,214.1 L 175.0,214.2 L 175.3,214.1 L 175.5,214.3 L 176.3,214.2 L 176.5,214.1 L 176.5,214.0 L 177.0,214.1 L 177.2,214.3 L 177.5,214.3 L 178.2,214.1 L 178.7,214.1 L 179.0,213.8 L 179.3,213.9 L 179.7,213.7 L 179.9,213.7 L 180.1,213.5 L 180.3,213.4 L 181.8,213.0 L 182.0,212.8 L 182.4,212.6 L 183.7,212.3 L 184.4,212.3 L 184.6,212.2 L 184.9,212.3 L 185.0,212.3 L 185.4,212.3 L 186.2,212.2 L 186.5,211.9 L 187.0,211.7 L 187.4,211.6 L 188.1,211.4 L 189.5,210.8 L 190.0,210.7 L 190.2,210.6 L 190.4,210.6 L 190.6,210.4 L 190.9,210.4 L 191.3,210.8 L 192.0,211.1 L 192.4,211.4 L 192.5,211.4 L 192.9,211.7 L 192.8,212.0 L 192.9,212.2 L 193.2,212.2 L 193.8,212.8 L 194.1,213.0 L 194.5,212.9 L 194.7,213.0 L 194.9,213.0 L 195.0,212.8 L 195.3,213.0 L 195.7,213.3 L 195.7,213.5 L 195.7,213.9 L 196.0,213.9 L 195.8,214.3 L 195.9,214.4 L 195.9,214.6 L 196.0,214.7 L 196.1,214.8 L 196.1,215.0 L 196.1,215.2 L 196.1,215.6 L 196.3,215.8 L 196.3,215.9 L 196.3,216.0 L 196.2,216.4 L 196.3,216.4 L 196.4,216.4 L 196.6,216.4 L 196.7,216.6 L 197.0,217.1 L 197.1,217.2 L 197.1,217.5 L 197.6,217.4 L 197.8,217.5 L 198.0,217.4 L 198.6,216.9 L 198.7,216.9 L 198.9,216.9 L 199.5,216.9 L 199.6,217.0 L 200.1,216.7 L 200.1,216.7 L 200.3,216.7 L 200.3,216.9 L 200.6,216.9 L 200.9,216.7 L 201.3,216.8 L 201.5,216.8 L 201.6,217.0 L 204.0,216.9 L 204.2,216.7 L 204.3,216.6 L 204.5,216.4 L 204.5,216.4 L 204.7,216.4 L 204.7,216.5 L 204.7,216.6 L 205.3,217.1 L 205.6,217.5 L 205.8,218.1 L 205.6,218.3 L 205.5,218.3 L 205.2,218.9 L 205.0,219.0 L 204.8,219.1 L 204.7,219.2 L 204.5,219.8 L 204.6,219.9 L 204.6,220.3 L 205.3,220.6 L 205.3,220.8 L 205.4,220.9 L 205.2,221.0 L 205.3,221.2 L 205.5,221.2 L 207.0,220.4 L 207.3,220.2 L 207.7,219.8 L 207.8,219.8 L 208.0,219.8 L 208.2,220.0 L 208.4,220.0 L 208.3,220.2 L 208.3,220.4 L 208.5,220.4 L 209.8,219.5 L 210.7,218.7 L 210.7,218.7 L 211.0,218.7 L 211.6,218.0 L 211.6,217.3 L 211.5,217.2 L 211.7,216.6 L 211.7,216.3 L 211.5,216.3 L 211.5,216.2 L 211.1,215.0 L 211.2,214.5 L 211.4,214.1 L 211.8,213.5 L 212.1,213.3 L 212.4,213.1 L 212.6,213.0 L 212.6,212.9 L 212.5,212.6 L 213.1,211.8 L 214.1,210.6 L 214.1,210.4 L 214.1,210.3 L 214.3,210.0 L 214.6,210.1 L 214.7,210.0 L 215.2,209.0 L 215.3,208.5 L 215.2,208.6 L 215.1,208.7 L 215.1,208.0 L 215.2,207.8 L 215.2,207.2 L 214.7,207.3 L 214.7,207.3 L 214.5,207.2 L 214.5,207.2 L 214.4,207.1 L 214.2,207.1 L 214.1,206.6 L 214.0,206.4 L 214.1,205.9 L 214.1,205.5 L 213.9,204.7 L 214.3,204.3 L 214.4,204.1 L 214.2,203.9 L 214.4,203.2 L 214.6,202.8 L 214.6,202.5 L 214.5,202.3 L 214.4,202.1 L 214.4,202.1" fill="none" stroke="black" stroke-width="2"/>
</svg>