<?xml version="1.0" encoding="UTF-8"?>
<svg width="400" height="400" viewBox="0 0 400 400" xmlns="http://www.w3.org/2000/svg">
  <rect width="400" height="400" fill="white"/>
  <path d="M 254.3,186.3 L 253.4,183.3 L 253.1,182.3 L 253.0,181.5 L 252.5,180.9 L 252.4,177.8 L 252.4,177.0 L 252.0,176.1 L 251.9,174.8 L 250.9,173.0 L 250.6,171.6 L 250.3,170.8 L 250.2,169.5 L 249.9,169.0 L 249.8,168.2 L 249.2,167.3 L 248.5,164.5 L 248.2,163.6 L 248.1,163.5 L 247.9,163.1 L 247.8,162.3 L 246.8,160.8 L 246.2,160.0 L 245.3,156.8 L 245.3,155.7 L 245.1,155.4 L 244.9,154.6 L 244.0,152.9 L 243.9,152.0 L 243.3,151.3 L 243.0,150.6 L 242.6,150.2 L 242.4,149.5 L 241.8,148.5 L 240.4,143.5 L 240.1,141.7 L 239.8,140.9 L 239.7,140.4 L 238.2,138.6 L 237.5,136.8 L 237.4,135.9 L 237.1,135.7 L 236.4,135.2 L 235.0,133.7 L 234.7,133.0 L 233.8,132.1 L 233.4,131.2 L 232.8,129.9 L 232.1,128.9 L 230.8,128.1 L 228.8,125.4 L 228.5,124.6 L 227.6,123.7 L 225.0,122.0 L 224.1,121.1 L 223.4,120.5 L 222.8,120.4 L 219.6,118.4 L 218.4,117.3 L 217.8,116.3 L 216.8,116.0 L 215.4,114.8 L 214.8,114.0 L 214.4,113.3 L 212.9,111.7 L 212.4,110.4 L 211.6,109.3 L 211.0,108.0 L 210.7,106.9 L 209.8,106.2 L 208.6,105.8 L 207.0,105.5 L 202.4,104.5 L 199.7,102.2 L 196.2,100.1 L 194.3,98.3 L 192.7,97.4 L 191.2,96.3 L 191.0,96.3 L 231.0,40.0 L 231.7,40.7 L 233.0,41.5 L 235.9,43.9 L 237.8,45.4 L 239.0,46.6 L 240.0,47.3 L 241.6,49.0 L 243.0,50.0 L 246.3,52.8 L 248.1,53.9 L 249.0,54.5 L 249.4,54.7 L 250.5,55.8 L 251.6,56.5 L 253.2,58.0 L 253.4,58.2 L 254.6,59.2 L 257.0,63.5 L 257.8,64.1 L 258.8,65.5 L 259.8,66.1 L 261.3,67.3 L 261.6,67.5 L 262.3,67.7 L 265.3,70.4 L 266.7,71.3 L 267.4,72.5 L 268.4,72.6 L 270.2,73.2 L 272.3,74.8 L 273.5,75.5 L 274.6,75.6 L 275.3,75.8 L 276.6,76.6 L 277.9,76.8 L 279.4,77.5 L 282.0,78.0 L 282.9,78.1 L 287.3,79.3 L 289.1,80.5 L 289.9,81.4 L 290.3,81.9 L 292.0,83.2 L 293.7,84.0 L 294.5,84.1 L 297.5,85.0 L 299.1,85.7 L 299.4,85.7 L 299.7,86.2 L 300.5,86.8 L 300.8,87.0 L 302.2,87.7 L 303.1,88.3 L 303.9,89.3 L 304.2,90.1 L 304.2,91.4 L 303.8,92.6 L 303.0,97.3 L 302.6,99.0 L 301.0,102.4 L 300.6,103.0 L 300.1,103.9 L 298.1,107.6 L 297.7,108.8 L 296.8,109.9 L 295.0,111.9 L 292.7,113.5 L 291.6,114.2 L 290.2,116.0 L 290.5,116.9 L 290.5,117.6 L 289.5,118.9 L 287.6,120.7 L 287.5,121.8 L 287.6,123.0 L 287.7,123.5 L 288.4,125.7 L 288.9,129.0 L 288.9,129.8 L 289.0,130.7 L 289.6,132.5 L 289.9,133.8 L 290.7,135.6 L 292.0,137.3 L 293.0,139.1 L 293.6,140.4 L 293.6,141.5 L 295.0,142.5 L 295.3,143.8 L 296.2,145.9 L 296.6,146.4 L 297.0,146.7 L 297.7,147.9 L 299.1,149.4 L 299.7,151.4 L 300.5,153.0 L 300.3,153.5 L 300.2,154.1 L 301.1,157.3 L 301.2,158.8 L 301.9,161.0 L 302.3,165.0 L 302.5,167.6 L 303.2,171.4 L 303.5,172.7 L 303.8,173.3 L 303.8,174.2 L 303.5,176.7 L 304.2,178.7 L 304.2,178.8 L 305.5,180.9 L 306.1,182.1 L 306.8,183.1 L 307.4,184.3 L 308.3,185.5 L 308.9,186.7 L 310.7,190.2 L 311.0,191.2 L 311.0,193.2 L 311.0,193.8 L 311.0,194.4 L 310.8,198.8 L 311.3,201.9 L 311.9,202.8 L 312.0,203.7 L 312.9,205.7 L 313.1,207.0 L 313.2,207.9 L 313.0,208.1 L 312.4,210.2 L 310.9,214.2 L 310.7,215.3 L 310.9,215.7 L 311.3,216.0 L 310.8,216.4 L 310.7,216.7 L 310.3,217.1 L 310.4,217.2 L 310.1,218.5 L 310.1,219.3 L 309.1,220.7 L 308.8,224.3 L 308.0,226.1 L 307.4,227.0 L 306.3,227.8 L 305.8,228.1 L 304.6,228.9 L 302.0,230.2 L 300.2,230.7 L 299.9,231.1 L 298.7,231.0 L 297.9,231.3 L 297.0,231.4 L 296.1,231.0 L 296.0,230.4 L 296.2,230.0 L 296.7,229.5 L 296.9,229.4 L 296.9,229.0 L 296.3,228.9 L 296.3,229.5 L 295.7,230.2 L 295.8,230.8 L 294.8,230.8 L 293.0,231.4 L 292.4,231.3 L 291.9,231.5 L 289.8,231.6 L 288.8,232.1 L 287.7,232.7 L 286.2,233.9 L 284.5,234.7 L 283.7,234.8 L 281.9,236.5 L 280.5,237.4 L 278.7,238.0 L 276.5,239.0 L 276.0,239.1 L 275.7,239.4 L 273.9,239.5 L 273.1,240.4 L 271.9,241.2 L 271.5,241.7 L 269.5,243.6 L 268.6,245.1 L 268.4,245.7 L 268.0,245.9 L 268.0,246.2 L 267.6,247.3 L 266.2,250.8 L 265.6,251.5 L 264.8,252.9 L 263.9,253.8 L 263.2,254.0 L 263.0,254.3 L 262.5,255.1 L 261.4,256.1 L 260.2,256.6 L 259.1,257.5 L 259.0,258.1 L 259.3,258.4 L 259.8,258.7 L 259.8,259.2 L 258.3,262.9 L 257.7,263.5 L 257.8,264.2 L 256.5,266.5 L 255.7,267.3 L 254.1,269.2 L 253.4,270.6 L 252.5,272.3 L 251.5,273.4 L 250.1,273.2 L 249.6,273.3 L 249.5,274.4 L 249.0,274.7 L 248.8,275.1 L 248.0,275.9 L 247.1,276.3 L 245.0,277.7 L 243.9,278.2 L 242.9,278.9 L 241.1,278.9 L 239.8,278.6 L 239.4,279.0 L 239.1,279.9 L 238.7,280.0 L 237.8,280.1 L 236.8,279.7 L 235.7,280.3 L 233.2,280.2 L 232.4,280.3 L 231.2,280.8 L 229.1,281.2 L 226.9,281.5 L 225.9,281.8 L 223.8,282.7 L 222.8,282.7 L 222.2,283.1 L 221.8,283.8 L 221.2,285.8 L 220.7,286.0 L 221.0,286.5 L 221.0,286.5 L 220.7,287.6 L 219.7,288.8 L 219.0,289.9 L 218.4,291.8 L 218.0,292.5 L 217.2,293.2 L 217.0,293.9 L 216.0,295.3 L 215.0,296.7 L 214.1,298.3 L 213.4,298.8 L 212.3,299.8 L 210.5,303.1 L 208.2,306.5 L 206.7,307.8 L 205.5,308.6 L 204.6,308.6 L 204.0,309.0 L 203.6,309.2 L 200.5,311.4 L 199.6,311.3 L 199.2,312.0 L 197.4,313.5 L 196.6,313.9 L 195.9,314.1 L 191.8,315.8 L 191.2,315.9 L 191.0,315.4 L 190.6,315.9 L 189.0,316.7 L 188.2,317.4 L 187.6,318.0 L 186.8,318.6 L 186.4,318.8 L 186.2,318.9 L 185.2,319.9 L 183.2,321.0 L 182.0,321.5 L 180.4,322.0 L 179.6,321.9 L 178.1,322.9 L 176.6,323.5 L 174.0,324.2 L 172.9,324.7 L 169.7,325.7 L 168.6,326.5 L 166.9,327.7 L 165.2,328.4 L 162.5,329.5 L 160.3,331.0 L 159.5,331.1 L 158.8,332.0 L 157.9,332.7 L 156.8,332.8 L 155.9,332.9 L 153.5,333.8 L 153.5,333.8 L 149.7,336.3 L 148.9,336.7 L 147.8,337.5 L 146.8,338.0 L 145.0,339.0 L 144.1,339.6 L 143.6,340.1 L 141.9,340.7 L 141.6,340.9 L 139.7,341.6 L 138.9,342.1 L 138.5,342.4 L 136.7,342.8 L 135.8,343.2 L 135.3,343.2 L 133.7,344.2 L 131.6,345.6 L 128.0,348.5 L 124.7,351.2 L 123.1,352.7 L 121.8,353.3 L 120.6,354.1 L 119.1,355.7 L 116.2,357.5 L 113.4,358.7 L 111.8,359.5 L 111.0,360.0 L 111.0,360.0 L 86.8,306.3 L 89.0,306.5 L 91.3,306.5 L 93.1,305.7 L 94.3,305.5 L 94.9,305.3 L 101.8,304.2 L 102.9,303.9 L 103.5,303.2 L 104.4,302.2 L 107.4,300.0 L 107.8,299.5 L 109.3,298.4 L 113.3,296.4 L 114.5,296.3 L 115.8,295.7 L 116.9,295.5 L 117.9,295.0 L 119.4,294.2 L 120.0,293.6 L 125.3,290.6 L 128.3,289.2 L 130.4,288.6 L 134.7,286.5 L 135.3,286.3 L 138.1,285.2 L 139.1,284.8 L 140.1,284.7 L 141.4,284.5 L 142.0,284.3 L 142.5,284.1 L 143.4,283.5 L 144.1,283.4 L 145.8,282.7 L 148.9,281.9 L 149.6,281.4 L 150.5,280.5 L 150.8,280.4 L 152.2,279.5 L 153.5,279.1 L 153.5,279.1 L 154.0,279.0 L 155.4,278.5 L 156.6,278.3 L 158.5,277.4 L 159.2,277.3 L 160.2,276.9 L 165.0,275.6 L 167.4,274.7 L 168.8,274.4 L 170.1,274.1 L 171.6,274.0 L 174.2,273.4 L 174.8,273.4 L 176.7,273.2 L 179.0,272.9 L 179.8,272.9 L 181.0,272.7 L 183.7,271.6 L 184.7,271.2 L 187.8,269.4 L 195.3,265.9 L 197.3,265.5 L 197.6,265.5 L 198.9,265.4 L 201.3,265.5 L 202.9,265.9 L 203.3,266.1 L 204.2,266.4 L 205.6,266.5 L 208.6,266.6 L 209.7,266.9 L 210.5,266.8 L 212.1,265.8 L 213.4,265.7 L 214.4,265.0 L 215.0,263.9 L 217.0,261.8 L 218.6,260.7 L 220.8,259.8 L 221.0,259.5 L 221.9,259.0 L 222.9,258.2 L 225.8,256.6 L 227.3,255.9 L 227.8,255.4 L 229.8,254.1 L 230.2,253.7 L 231.7,252.9 L 232.8,252.1 L 234.8,250.4 L 236.7,248.2 L 237.9,247.1 L 238.2,247.0 L 238.9,246.5 L 239.8,245.5 L 240.0,244.9 L 241.1,243.8 L 242.5,241.2 L 243.1,241.3 L 243.5,241.6 L 242.9,240.2 L 243.3,239.3 L 243.8,238.1 L 244.0,237.5 L 244.3,236.6 L 244.9,235.9 L 245.3,234.8 L 246.3,233.3 L 246.5,232.5 L 247.8,231.2 L 248.7,230.0 L 249.4,228.4 L 250.2,227.1 L 250.6,226.9 L 250.6,226.6 L 251.2,225.6 L 251.8,224.1 L 252.3,223.6 L 253.4,220.8 L 253.7,220.1 L 254.8,218.4 L 255.3,216.1 L 256.4,214.0 L 256.7,212.3 L 257.0,211.4 L 257.4,208.2 L 257.7,206.9 L 257.5,205.4 L 257.8,202.3 L 257.7,199.6 L 256.8,198.0 L 256.9,197.0 L 256.1,195.4 L 255.9,194.4 L 255.3,192.7 L 254.8,190.9 L 254.9,188.0 L 254.5,186.7 L 254.3,186.3" fill="none" stroke="black" stroke-width="2"/>
</svg>