<?xml version="1.0" encoding="UTF-8"?>
<svg width="400" height="400" viewBox="0 0 400 400" xmlns="http://www.w3.org/2000/svg">
  <rect width="400" height="400" fill="white"/>
  <path d="M 98.1,262.9 L 95.1,251.1 L 82.9,240.5 L 77.5,240.8 L 75.9,241.4 L 70.4,242.2 L 66.5,243.4 L 62.9,243.0 L 58.6,236.7 L 56.9,237.3 L 54.8,236.9 L 48.0,233.6 L 49.2,232.5 L 49.1,227.9 L 45.5,221.0 L 45.5,220.7 L 44.3,217.9 L 40.0,214.2 L 40.4,210.4 L 45.3,202.6 L 51.1,202.2 L 54.3,198.6 L 59.9,179.9 L 63.2,175.4 L 74.4,165.0 L 80.6,159.8 L 92.0,155.6 L 103.0,150.9 L 110.5,149.1 L 116.4,146.8 L 117.8,146.9 L 135.5,132.2 L 138.3,132.5 L 144.5,127.9 L 150.2,124.4 L 154.1,124.4 L 162.4,116.1 L 162.6,116.0 L 165.5,115.3 L 167.3,117.0 L 177.3,116.9 L 187.7,114.1 L 200.0,116.4 L 203.8,116.6 L 210.9,112.8 L 228.0,98.6 L 233.9,90.9 L 236.4,89.1 L 243.8,83.8 L 250.2,77.1 L 255.7,73.4 L 265.0,66.0 L 273.9,55.3 L 276.7,54.6 L 280.4,55.9 L 295.7,66.9 L 299.1,71.1 L 305.2,77.8 L 309.2,83.0 L 308.8,90.7 L 313.4,99.7 L 322.8,112.1 L 328.3,121.3 L 331.0,127.3 L 334.4,131.5 L 336.9,131.3 L 338.4,130.1 L 359.8,185.2 L 360.0,185.6 L 358.7,186.2 L 352.3,186.9 L 347.6,191.9 L 343.1,198.6 L 334.2,217.5 L 325.8,225.8 L 319.0,229.9 L 317.7,230.4 L 315.1,231.5 L 310.4,236.4 L 300.5,243.8 L 294.1,246.1 L 287.3,246.8 L 283.3,248.9 L 277.9,255.1 L 274.2,257.6 L 268.0,258.4 L 263.3,260.8 L 259.3,262.4 L 258.7,262.5 L 255.2,265.8 L 252.0,277.3 L 251.7,278.6 L 250.0,280.3 L 246.0,281.9 L 239.9,283.4 L 216.2,305.3 L 211.7,309.4 L 203.2,313.4 L 178.6,330.0 L 174.0,334.1 L 164.6,342.5 L 158.9,345.4 L 154.1,345.3 L 139.1,341.6 L 134.8,342.2 L 130.2,340.8 L 129.1,341.4 L 97.2,290.3 L 97.0,289.9 L 101.2,285.2 L 104.8,276.9 L 104.6,273.1 L 98.4,263.8 L 98.1,262.9" fill="none" stroke="black" stroke-width="2"/>
</svg>