<?xml version="1.0" encoding="UTF-8"?>
<svg width="400" height="400" viewBox="0 0 400 400" xmlns="http://www.w3.org/2000/svg">
  <rect width="400" height="400" fill="white"/>
  <path d="M 143.2,165.7 L 143.6,165.3 L 145.1,164.5 L 145.8,163.7 L 146.2,163.5 L 146.6,163.5 L 148.7,161.9 L 149.5,161.2 L 149.5,159.9 L 150.4,158.3 L 151.5,157.9 L 152.0,157.4 L 152.5,157.0 L 152.8,156.5 L 153.1,156.1 L 153.3,156.2 L 153.6,156.6 L 154.0,156.4 L 154.2,156.2 L 154.6,155.0 L 155.9,153.5 L 156.7,153.3 L 157.8,152.9 L 158.5,152.4 L 159.7,151.1 L 160.4,150.8 L 161.1,150.3 L 161.5,149.8 L 164.1,147.4 L 164.7,147.4 L 165.6,146.5 L 166.4,146.6 L 167.2,147.1 L 167.7,147.0 L 168.2,146.7 L 168.9,146.6 L 169.1,146.8 L 169.7,146.7 L 169.7,146.9 L 170.1,147.2 L 171.0,147.3 L 171.7,147.8 L 172.7,147.2 L 173.8,147.6 L 174.4,148.2 L 174.7,148.2 L 174.8,148.6 L 174.7,149.0 L 175.2,149.9 L 175.6,149.8 L 177.9,149.1 L 178.2,148.8 L 178.2,148.5 L 178.8,148.2 L 179.3,148.2 L 179.9,148.0 L 180.9,148.4 L 181.1,148.7 L 181.3,148.7 L 181.6,149.0 L 182.5,148.9 L 183.5,148.4 L 184.0,147.7 L 184.7,147.7 L 185.1,147.6 L 186.3,147.5 L 187.6,146.8 L 188.3,146.2 L 188.8,145.3 L 189.2,145.0 L 190.6,144.6 L 192.3,144.0 L 193.0,144.0 L 193.8,143.6 L 194.2,143.6 L 196.8,142.5 L 197.4,142.4 L 198.4,141.9 L 199.6,142.0 L 199.9,142.0 L 200.8,141.3 L 201.9,141.3 L 202.1,141.4 L 202.4,141.8 L 202.8,142.1 L 204.0,141.8 L 205.5,142.7 L 206.1,142.8 L 206.5,142.8 L 206.8,143.1 L 207.6,143.4 L 207.8,143.8 L 207.1,144.3 L 207.3,144.6 L 208.1,144.7 L 208.8,144.5 L 210.2,144.5 L 211.2,145.0 L 211.6,145.2 L 212.2,145.4 L 214.2,145.4 L 216.6,145.0 L 217.5,144.7 L 218.1,144.4 L 218.1,144.1 L 218.5,144.0 L 220.9,143.9 L 222.9,143.6 L 223.4,143.2 L 224.6,143.2 L 225.6,143.4 L 229.2,143.4 L 231.1,142.9 L 232.0,142.8 L 232.6,142.5 L 232.7,142.3 L 233.9,141.6 L 233.5,141.2 L 232.7,141.0 L 232.2,140.8 L 232.2,140.1 L 232.4,139.8 L 234.1,139.1 L 234.7,137.4 L 235.9,136.1 L 236.1,135.3 L 236.8,134.6 L 237.7,134.5 L 238.3,134.0 L 238.4,133.7 L 239.0,133.3 L 239.4,132.9 L 240.0,132.4 L 240.2,132.2 L 240.6,132.0 L 241.0,131.9 L 241.7,131.5 L 243.3,131.3 L 243.7,131.3 L 244.8,131.4 L 246.0,132.0 L 247.4,132.0 L 248.3,132.7 L 249.3,132.5 L 249.3,132.4 L 250.0,132.2 L 250.5,132.4 L 253.1,132.5 L 253.3,132.3 L 254.8,132.0 L 255.4,131.7 L 256.1,131.7 L 256.7,132.2 L 259.1,132.7 L 259.3,133.0 L 259.3,133.8 L 259.0,133.8 L 258.7,134.0 L 258.8,134.6 L 259.7,135.1 L 260.3,135.4 L 261.1,136.1 L 262.7,136.5 L 263.4,136.5 L 264.5,136.8 L 265.2,136.7 L 266.0,136.0 L 266.9,135.8 L 268.1,135.8 L 268.2,136.4 L 268.7,136.9 L 268.9,137.4 L 269.7,137.5 L 270.2,137.8 L 271.5,137.7 L 272.0,137.5 L 273.1,137.6 L 274.0,137.1 L 274.6,137.0 L 274.7,137.3 L 275.4,137.9 L 275.7,137.9 L 275.8,138.1 L 276.0,138.3 L 276.6,138.3 L 278.4,138.0 L 279.4,137.6 L 281.1,138.0 L 282.3,138.7 L 283.1,138.8 L 283.5,138.8 L 284.3,138.7 L 285.1,138.4 L 285.6,138.0 L 286.2,138.0 L 286.8,138.1 L 288.3,137.9 L 288.9,137.5 L 289.8,137.4 L 291.2,137.8 L 292.4,137.6 L 295.2,137.2 L 295.7,136.8 L 296.8,136.7 L 297.3,136.5 L 298.2,136.2 L 298.9,136.4 L 299.2,136.3 L 300.2,135.9 L 301.2,135.7 L 304.2,135.7 L 304.7,136.0 L 305.9,135.8 L 306.3,136.1 L 307.2,136.3 L 308.2,136.2 L 311.1,136.2 L 313.0,136.1 L 315.1,136.2 L 315.7,136.5 L 316.0,137.3 L 316.4,137.6 L 319.1,138.7 L 320.1,138.6 L 320.9,138.4 L 321.6,138.6 L 321.9,138.5 L 322.0,138.6 L 322.9,138.5 L 324.4,137.9 L 326.7,136.4 L 327.0,135.6 L 327.9,135.6 L 329.9,135.8 L 331.2,136.5 L 332.0,136.9 L 333.1,137.6 L 333.9,137.9 L 334.5,138.3 L 335.0,139.4 L 335.4,140.0 L 336.0,140.1 L 336.3,140.4 L 336.9,140.9 L 337.3,141.4 L 337.7,141.6 L 338.4,142.2 L 340.1,142.5 L 340.3,142.5 L 340.9,142.6 L 341.6,143.1 L 342.2,143.1 L 342.2,143.1 L 343.2,143.1 L 344.1,143.0 L 345.6,142.6 L 346.4,142.7 L 348.1,143.3 L 349.5,143.6 L 351.8,144.3 L 352.6,144.4 L 354.5,144.9 L 355.9,144.9 L 356.4,145.5 L 356.4,145.5 L 356.5,145.9 L 357.0,146.6 L 357.0,146.7 L 357.1,147.1 L 357.5,147.7 L 357.8,147.8 L 358.4,148.1 L 358.8,148.4 L 359.3,148.6 L 359.8,148.7 L 360.0,148.8 L 360.0,149.4 L 359.8,150.2 L 359.8,150.3 L 359.6,150.8 L 359.5,151.5 L 359.3,152.1 L 359.0,152.8 L 358.6,153.4 L 358.2,154.0 L 358.0,154.3 L 358.0,154.3 L 357.8,154.5 L 357.5,154.9 L 357.2,155.6 L 356.8,156.2 L 356.3,156.8 L 356.1,157.5 L 355.8,157.9 L 355.5,158.5 L 355.4,159.2 L 355.4,159.4 L 355.4,159.4 L 355.2,159.9 L 355.1,159.9 L 355.1,160.0 L 355.2,160.3 L 355.1,161.1 L 355.2,162.0 L 355.2,162.1 L 355.2,162.1 L 355.1,162.9 L 355.2,163.6 L 355.3,164.2 L 355.5,164.9 L 355.6,165.3 L 355.7,165.5 L 355.8,165.6 L 355.8,165.7 L 356.4,165.7 L 356.9,165.7 L 357.2,165.9 L 357.2,166.2 L 357.2,166.3 L 355.9,166.6 L 355.5,167.1 L 355.2,167.1 L 355.2,166.4 L 355.1,166.2 L 354.8,165.9 L 354.2,165.8 L 353.9,165.6 L 353.4,165.7 L 352.9,165.5 L 352.5,165.5 L 352.1,165.6 L 351.7,165.7 L 351.6,165.6 L 350.8,165.4 L 349.8,165.5 L 348.5,165.4 L 347.8,165.5 L 347.3,165.9 L 346.2,166.0 L 345.8,166.6 L 345.1,166.7 L 344.8,166.9 L 344.3,166.9 L 343.7,167.1 L 342.8,167.2 L 341.9,167.6 L 341.7,167.8 L 341.7,167.8 L 340.5,168.8 L 339.7,169.0 L 339.1,169.4 L 338.2,169.2 L 337.7,169.3 L 336.1,169.4 L 335.3,169.9 L 332.9,170.0 L 332.5,170.4 L 331.6,170.6 L 330.9,170.5 L 330.7,170.7 L 329.7,170.8 L 329.1,170.0 L 328.5,169.8 L 327.9,169.8 L 327.1,170.4 L 324.2,170.3 L 322.8,169.9 L 321.8,169.1 L 321.2,169.3 L 320.4,169.4 L 319.8,168.9 L 318.8,169.1 L 318.6,168.9 L 318.1,168.8 L 317.9,168.4 L 316.5,168.0 L 316.3,168.2 L 315.6,167.9 L 314.2,167.9 L 314.0,167.3 L 313.3,167.2 L 311.9,166.5 L 311.3,166.4 L 310.9,166.3 L 310.4,166.4 L 309.8,166.0 L 309.2,165.4 L 308.7,165.2 L 307.8,164.6 L 307.5,164.3 L 306.9,164.2 L 306.6,164.1 L 306.5,163.8 L 305.1,163.0 L 303.3,161.3 L 302.7,161.2 L 302.0,160.6 L 301.2,159.5 L 300.2,159.0 L 298.2,158.5 L 297.1,158.4 L 296.5,158.6 L 296.1,158.6 L 295.9,158.4 L 295.4,158.3 L 294.8,157.8 L 294.2,157.9 L 292.2,159.1 L 291.2,159.2 L 290.0,158.3 L 289.2,157.8 L 288.0,157.9 L 287.3,158.3 L 287.0,158.3 L 286.6,158.5 L 286.2,158.9 L 286.0,159.0 L 285.8,159.1 L 285.4,159.3 L 284.7,159.5 L 284.3,160.4 L 283.9,160.8 L 283.5,160.8 L 282.0,160.8 L 278.0,160.4 L 276.5,160.0 L 275.4,159.4 L 274.8,159.1 L 273.2,158.6 L 272.6,158.6 L 271.7,158.1 L 271.3,157.4 L 270.3,156.8 L 269.6,156.6 L 268.9,156.6 L 267.7,155.7 L 265.8,155.2 L 264.9,155.1 L 263.9,154.8 L 262.9,154.7 L 262.1,154.8 L 259.5,154.7 L 257.7,154.7 L 256.4,155.0 L 255.7,154.7 L 253.0,154.4 L 249.2,154.3 L 248.7,154.6 L 247.8,154.7 L 247.4,154.6 L 247.2,154.1 L 246.7,153.8 L 246.2,153.3 L 245.6,153.1 L 244.8,153.3 L 244.5,152.8 L 244.1,152.7 L 243.2,152.9 L 243.2,153.4 L 242.7,154.0 L 241.9,154.7 L 241.3,154.8 L 241.0,155.3 L 239.3,156.0 L 235.0,156.2 L 234.5,155.8 L 232.7,155.8 L 232.5,155.5 L 231.2,155.4 L 228.8,155.5 L 227.9,155.7 L 226.0,156.7 L 223.6,159.8 L 222.9,160.2 L 222.1,160.3 L 221.5,160.1 L 221.0,160.1 L 219.4,160.7 L 217.8,160.8 L 216.9,160.6 L 216.0,160.0 L 214.4,159.9 L 214.1,159.6 L 213.8,159.8 L 212.7,159.8 L 212.4,159.6 L 212.1,159.3 L 211.0,159.1 L 210.8,159.0 L 210.3,158.8 L 210.4,158.7 L 210.3,158.5 L 209.6,158.5 L 206.9,158.3 L 206.1,158.2 L 205.6,158.2 L 205.3,158.5 L 203.0,158.9 L 201.6,159.6 L 201.1,159.9 L 200.0,160.4 L 199.9,160.7 L 199.6,160.9 L 198.5,161.3 L 197.8,161.4 L 197.0,161.5 L 196.6,161.8 L 195.8,162.2 L 194.4,162.2 L 193.8,162.5 L 192.6,162.6 L 191.1,163.1 L 189.0,163.5 L 188.6,164.0 L 188.7,164.9 L 188.9,165.0 L 189.1,165.3 L 188.7,167.0 L 188.2,167.8 L 187.1,168.4 L 186.0,168.4 L 184.4,168.5 L 183.0,168.2 L 182.8,168.0 L 182.1,168.0 L 182.0,167.9 L 181.5,168.2 L 180.9,168.3 L 180.2,168.2 L 179.5,167.6 L 179.4,167.3 L 178.4,167.2 L 177.2,167.0 L 176.5,167.1 L 175.7,167.1 L 174.7,167.4 L 173.7,167.5 L 173.0,167.6 L 172.6,167.9 L 171.2,168.0 L 168.9,168.4 L 166.5,168.7 L 166.0,168.9 L 165.4,168.9 L 164.9,169.2 L 165.0,170.3 L 164.6,170.7 L 163.7,171.2 L 162.6,171.4 L 161.9,171.6 L 160.6,171.9 L 160.6,173.2 L 160.8,173.7 L 160.8,173.9 L 161.2,175.1 L 161.4,176.0 L 161.7,176.3 L 161.8,176.7 L 162.2,177.2 L 162.6,177.9 L 162.8,178.0 L 163.0,177.9 L 163.3,177.6 L 163.6,177.9 L 163.8,178.1 L 163.8,180.1 L 164.3,180.8 L 164.3,181.2 L 165.1,182.2 L 165.1,183.0 L 164.1,184.0 L 163.2,184.7 L 162.6,184.8 L 160.8,184.7 L 160.6,184.4 L 160.2,184.4 L 159.9,184.5 L 159.5,185.1 L 159.0,185.7 L 158.3,185.8 L 157.8,186.2 L 157.8,186.2 L 157.6,186.6 L 157.0,187.2 L 155.9,187.4 L 155.4,187.1 L 154.7,187.0 L 154.2,187.3 L 153.4,187.5 L 151.0,186.7 L 150.5,186.7 L 149.8,187.0 L 148.1,186.9 L 147.3,186.7 L 146.5,187.1 L 145.7,187.2 L 145.3,187.5 L 144.5,187.4 L 144.4,187.8 L 144.7,188.2 L 144.5,188.5 L 144.6,189.1 L 145.0,189.5 L 145.0,190.5 L 144.7,191.8 L 144.5,192.2 L 144.4,192.9 L 144.6,193.5 L 144.7,194.8 L 144.5,195.8 L 144.1,196.8 L 143.3,197.6 L 141.4,198.7 L 139.2,198.7 L 138.9,199.0 L 138.7,199.2 L 138.4,199.5 L 138.5,200.0 L 138.1,201.0 L 137.6,201.6 L 137.8,201.9 L 137.4,202.3 L 137.2,203.5 L 137.0,204.2 L 137.0,205.7 L 136.7,206.4 L 136.6,206.8 L 136.2,207.4 L 136.2,207.8 L 136.3,208.2 L 136.4,208.8 L 136.1,209.6 L 135.9,210.0 L 135.0,210.4 L 134.0,210.4 L 133.6,210.6 L 133.5,211.3 L 133.4,212.4 L 132.9,213.1 L 132.4,213.7 L 131.3,214.5 L 129.5,214.6 L 128.7,214.6 L 127.4,214.5 L 126.8,214.6 L 125.0,214.6 L 123.8,215.2 L 122.8,215.3 L 122.0,215.3 L 121.5,215.1 L 121.4,214.9 L 121.3,214.7 L 120.8,214.3 L 120.7,213.7 L 119.9,213.2 L 118.6,212.6 L 118.2,212.4 L 117.5,211.5 L 117.5,211.2 L 116.9,210.9 L 116.2,210.7 L 114.7,210.3 L 113.0,210.0 L 112.9,209.9 L 112.6,209.9 L 111.2,209.6 L 109.2,209.2 L 108.4,209.1 L 107.9,209.0 L 105.5,208.3 L 104.2,208.1 L 103.9,208.2 L 103.8,208.5 L 104.1,208.9 L 103.9,209.1 L 104.1,209.4 L 103.9,209.6 L 103.9,209.9 L 103.3,210.5 L 102.3,211.0 L 100.9,211.2 L 100.5,211.6 L 100.4,211.9 L 99.5,212.9 L 99.3,213.5 L 99.1,213.9 L 98.4,213.9 L 97.5,214.1 L 94.7,214.3 L 93.2,214.2 L 92.8,214.4 L 92.7,214.7 L 92.4,215.0 L 92.4,215.5 L 91.8,216.1 L 91.8,216.5 L 92.1,216.9 L 92.1,217.9 L 92.5,218.9 L 90.3,220.8 L 89.3,221.3 L 88.8,221.7 L 88.6,222.9 L 88.8,223.4 L 88.8,224.1 L 89.1,224.6 L 89.5,225.4 L 89.9,225.4 L 90.8,225.6 L 91.3,225.9 L 92.0,227.1 L 92.1,228.0 L 91.9,228.9 L 91.7,229.1 L 91.6,229.6 L 91.9,231.8 L 92.2,233.0 L 92.2,234.6 L 92.3,234.9 L 92.3,235.6 L 92.7,236.5 L 93.1,239.5 L 93.4,240.5 L 94.0,240.9 L 94.6,241.2 L 95.3,241.3 L 96.4,241.3 L 96.9,241.0 L 97.2,240.7 L 99.8,240.0 L 100.7,240.2 L 101.1,240.4 L 101.7,241.1 L 102.0,241.7 L 101.8,242.1 L 102.0,242.7 L 102.0,243.3 L 101.8,243.5 L 101.5,245.3 L 101.6,245.5 L 101.8,246.2 L 102.4,246.8 L 102.5,247.0 L 102.4,247.4 L 101.6,248.0 L 100.8,248.3 L 99.9,248.5 L 98.9,247.9 L 98.5,248.0 L 97.7,247.9 L 96.7,248.5 L 96.1,248.6 L 94.7,248.7 L 93.9,248.3 L 93.3,247.7 L 92.7,247.3 L 92.3,247.2 L 91.5,246.5 L 91.4,246.0 L 90.7,245.7 L 90.0,244.9 L 89.3,243.8 L 89.2,243.5 L 88.4,242.5 L 88.3,241.8 L 88.2,241.0 L 87.9,240.8 L 86.1,239.1 L 85.5,238.8 L 84.6,238.7 L 83.8,239.2 L 82.8,239.5 L 82.2,239.5 L 80.7,240.2 L 79.9,240.3 L 79.6,240.6 L 79.4,240.7 L 79.2,241.0 L 78.3,241.7 L 76.6,241.9 L 75.9,241.6 L 74.8,241.5 L 74.1,242.2 L 73.1,243.4 L 72.2,244.9 L 71.5,245.5 L 70.6,246.9 L 69.8,248.3 L 67.2,250.7 L 66.8,250.9 L 65.9,251.7 L 65.2,251.8 L 64.6,252.1 L 64.3,252.2 L 63.4,253.5 L 63.1,254.5 L 62.8,254.8 L 62.3,254.9 L 62.0,255.0 L 61.6,255.7 L 61.5,256.5 L 60.9,257.5 L 60.3,258.1 L 58.9,258.5 L 58.5,258.9 L 57.4,261.3 L 56.8,263.7 L 56.7,263.8 L 55.9,265.3 L 55.8,266.3 L 55.9,266.7 L 55.9,267.0 L 55.4,267.7 L 55.5,268.7 L 55.5,268.7 L 40.0,267.6 L 40.6,266.4 L 41.4,264.4 L 42.0,263.7 L 42.0,263.6 L 42.3,262.9 L 42.3,261.4 L 42.8,260.3 L 45.6,257.2 L 46.1,256.7 L 46.7,255.4 L 46.9,254.8 L 47.4,254.3 L 49.0,252.8 L 49.1,252.0 L 49.8,251.3 L 50.6,249.7 L 51.0,248.3 L 51.2,248.0 L 51.6,247.4 L 52.4,246.8 L 52.7,245.5 L 53.1,244.9 L 53.2,243.7 L 53.5,242.5 L 54.0,241.9 L 54.4,241.1 L 54.6,240.5 L 54.8,240.0 L 55.2,239.4 L 56.4,238.3 L 56.6,238.0 L 57.0,237.8 L 57.6,236.5 L 58.5,236.0 L 60.3,234.5 L 61.0,233.9 L 61.2,233.4 L 62.3,233.1 L 62.7,232.7 L 63.2,232.0 L 65.0,230.5 L 66.3,229.5 L 69.1,226.9 L 70.2,225.4 L 71.4,224.2 L 71.5,223.6 L 72.5,222.6 L 73.1,221.9 L 73.4,221.6 L 73.6,221.2 L 74.3,220.4 L 74.5,219.6 L 74.4,219.0 L 74.6,218.5 L 76.2,215.8 L 76.8,214.3 L 77.2,213.8 L 77.5,213.4 L 77.6,212.6 L 78.2,211.6 L 79.1,210.5 L 79.1,210.1 L 79.8,209.1 L 80.2,208.3 L 80.1,207.6 L 80.4,206.9 L 80.1,206.5 L 80.7,205.3 L 81.1,204.6 L 81.1,204.1 L 81.5,203.7 L 81.5,202.2 L 82.3,200.7 L 83.1,198.8 L 83.3,198.0 L 84.1,196.6 L 84.6,195.9 L 85.6,194.6 L 86.2,194.1 L 87.2,193.9 L 87.7,193.7 L 88.5,193.4 L 89.6,192.9 L 90.1,192.5 L 90.5,192.6 L 91.0,192.8 L 91.5,192.7 L 92.3,192.0 L 92.7,191.2 L 93.5,190.2 L 95.1,190.1 L 95.3,189.8 L 95.5,189.2 L 95.9,188.9 L 96.3,188.9 L 97.6,188.0 L 98.5,188.1 L 99.1,188.6 L 99.3,188.9 L 99.2,189.1 L 99.4,189.3 L 99.9,189.1 L 100.6,188.7 L 101.6,188.3 L 102.2,187.7 L 102.1,186.4 L 102.2,186.2 L 102.3,185.9 L 102.5,185.6 L 104.4,183.9 L 107.9,184.0 L 108.1,184.2 L 108.0,185.2 L 108.2,185.7 L 108.3,186.0 L 108.4,186.2 L 108.5,186.6 L 109.1,187.1 L 110.2,187.4 L 110.6,187.9 L 111.4,187.9 L 112.3,188.3 L 113.4,188.2 L 114.3,188.1 L 114.5,187.9 L 116.2,188.0 L 116.3,188.2 L 117.3,188.2 L 118.6,186.9 L 118.9,186.2 L 119.6,185.0 L 120.9,183.1 L 121.1,182.3 L 121.2,180.7 L 120.9,180.5 L 120.4,180.2 L 120.0,179.9 L 118.6,179.6 L 116.9,179.5 L 116.6,179.2 L 115.6,179.4 L 114.1,179.1 L 113.8,178.9 L 113.6,178.4 L 114.4,177.9 L 114.5,177.2 L 115.0,177.2 L 115.4,177.8 L 115.8,177.7 L 115.9,177.5 L 115.8,176.9 L 115.9,176.3 L 116.6,175.7 L 117.4,175.5 L 117.9,175.2 L 119.8,174.7 L 121.9,174.0 L 123.1,173.8 L 124.0,173.4 L 125.3,173.5 L 127.4,174.2 L 128.0,174.7 L 128.7,175.9 L 128.8,176.1 L 128.9,176.7 L 129.1,176.8 L 129.2,177.2 L 129.1,177.6 L 129.2,177.8 L 129.6,177.9 L 130.1,178.2 L 130.0,179.6 L 130.2,179.8 L 130.5,179.6 L 130.9,179.6 L 131.2,179.9 L 131.1,180.1 L 131.2,180.2 L 131.7,180.2 L 132.1,180.1 L 133.3,180.1 L 134.2,179.8 L 135.3,178.7 L 136.4,178.4 L 136.8,178.1 L 136.7,177.5 L 136.9,177.4 L 137.3,177.1 L 137.5,176.8 L 137.5,176.1 L 138.3,175.4 L 138.8,175.3 L 140.6,173.6 L 141.6,172.0 L 142.3,171.6 L 142.5,171.1 L 142.3,170.8 L 142.4,170.6 L 143.3,170.3 L 144.0,169.8 L 144.1,169.4 L 143.8,169.1 L 144.7,168.0 L 145.3,167.4 L 145.0,167.1 L 144.9,166.7 L 143.8,166.6 L 143.3,166.1 L 143.2,165.7" fill="none" stroke="black" stroke-width="2"/>
</svg>