<?xml version="1.0" encoding="UTF-8"?>
<svg width="400" height="400" viewBox="0 0 400 400" xmlns="http://www.w3.org/2000/svg">
  <rect width="400" height="400" fill="white"/>
  <path d="M 118.3,152.6 L 119.4,152.6 L 120.9,152.5 L 122.0,152.2 L 122.3,151.3 L 125.9,149.1 L 128.2,148.0 L 130.1,147.7 L 132.1,146.8 L 133.9,146.3 L 136.1,146.4 L 136.7,144.7 L 138.2,142.7 L 138.7,142.3 L 140.6,141.8 L 144.6,140.2 L 147.7,138.7 L 149.4,137.7 L 150.4,136.8 L 153.4,133.6 L 154.7,132.8 L 156.5,130.9 L 156.4,129.9 L 157.3,128.2 L 157.6,127.1 L 159.8,124.0 L 161.7,123.1 L 163.2,122.6 L 167.3,122.1 L 171.6,122.5 L 173.0,121.2 L 174.0,120.9 L 175.0,120.8 L 176.5,120.4 L 180.1,119.8 L 181.2,119.2 L 185.4,118.7 L 189.0,118.7 L 191.8,119.6 L 193.2,119.8 L 194.5,119.3 L 196.3,119.2 L 197.3,118.5 L 198.0,118.6 L 202.3,118.9 L 203.5,119.4 L 204.2,118.9 L 206.2,119.2 L 207.5,119.8 L 209.7,119.8 L 214.1,119.0 L 215.1,118.4 L 216.8,118.4 L 217.6,119.1 L 218.6,120.3 L 219.4,120.4 L 220.6,119.2 L 222.2,118.7 L 227.5,118.9 L 230.1,119.3 L 231.4,120.2 L 232.2,121.1 L 232.8,122.4 L 233.4,123.3 L 234.2,123.3 L 235.3,123.9 L 236.1,123.5 L 236.4,122.9 L 236.9,122.6 L 237.3,122.8 L 239.2,123.0 L 241.3,124.4 L 241.6,125.0 L 242.5,126.0 L 243.3,126.9 L 244.3,127.5 L 247.5,127.6 L 247.7,128.3 L 248.4,128.5 L 249.7,128.1 L 250.4,128.5 L 250.2,129.2 L 250.7,129.6 L 252.6,129.4 L 253.0,128.7 L 252.5,128.2 L 252.9,127.6 L 254.6,127.6 L 255.4,128.1 L 255.5,128.3 L 255.2,129.4 L 255.7,129.9 L 256.6,130.2 L 257.8,130.1 L 258.9,129.8 L 260.2,129.6 L 260.9,129.3 L 261.3,129.3 L 261.7,129.7 L 262.3,130.0 L 262.3,130.8 L 262.6,131.2 L 265.0,131.2 L 266.3,131.6 L 267.3,132.6 L 267.9,133.0 L 268.0,133.4 L 268.8,133.4 L 270.5,132.7 L 271.8,132.7 L 272.5,132.4 L 274.0,132.4 L 274.1,132.7 L 275.0,133.2 L 275.4,132.9 L 276.1,132.9 L 276.6,133.3 L 277.3,133.1 L 278.4,133.3 L 279.1,133.9 L 281.8,135.4 L 281.9,136.1 L 282.3,136.9 L 283.7,138.5 L 284.5,138.4 L 284.9,137.8 L 286.4,138.2 L 286.7,137.7 L 286.4,137.0 L 286.8,136.2 L 286.3,135.5 L 285.6,134.8 L 285.6,134.1 L 286.6,133.1 L 288.9,132.3 L 289.0,132.1 L 291.3,131.3 L 291.9,131.3 L 294.1,131.1 L 294.6,130.8 L 295.9,131.1 L 297.0,132.6 L 297.7,133.3 L 298.0,134.2 L 298.0,136.0 L 297.5,136.2 L 297.1,136.5 L 297.5,137.0 L 299.5,137.6 L 300.7,137.7 L 301.4,138.4 L 300.9,138.9 L 299.8,139.4 L 299.0,139.5 L 298.7,139.2 L 297.9,139.1 L 297.8,139.4 L 298.8,141.4 L 300.7,141.6 L 300.8,141.9 L 301.2,142.4 L 302.2,141.7 L 302.9,141.1 L 303.5,141.8 L 304.1,143.2 L 304.9,144.1 L 304.8,145.7 L 305.3,146.1 L 306.2,146.5 L 306.3,147.6 L 306.8,147.7 L 307.6,148.5 L 309.0,148.3 L 310.8,148.6 L 311.3,148.3 L 311.7,147.8 L 318.2,148.5 L 318.8,149.0 L 319.7,149.1 L 321.8,149.7 L 324.3,150.8 L 328.6,151.9 L 331.4,152.3 L 333.4,152.8 L 335.4,153.8 L 337.0,155.4 L 339.6,157.4 L 340.9,157.6 L 343.1,157.4 L 344.8,157.5 L 350.1,158.6 L 351.2,159.2 L 354.1,160.3 L 356.7,160.4 L 358.5,161.4 L 359.9,163.8 L 360.0,164.7 L 359.6,164.7 L 358.8,164.2 L 357.1,163.6 L 355.9,163.5 L 355.3,163.9 L 355.1,164.4 L 354.5,165.0 L 353.9,166.2 L 354.1,166.9 L 353.6,167.7 L 353.4,168.6 L 354.1,169.9 L 354.2,171.3 L 354.5,171.8 L 354.7,172.6 L 354.0,173.2 L 353.5,173.0 L 352.2,172.7 L 350.3,174.4 L 349.0,174.6 L 348.6,174.1 L 347.8,174.0 L 347.1,174.5 L 346.9,176.6 L 347.4,178.5 L 348.1,179.0 L 348.4,180.3 L 348.6,181.5 L 347.6,181.1 L 346.2,181.4 L 344.3,181.6 L 342.8,181.7 L 341.7,182.0 L 340.4,183.0 L 340.0,183.1 L 338.6,182.1 L 338.4,181.4 L 338.4,179.8 L 338.2,179.1 L 338.7,178.2 L 339.2,177.8 L 340.2,177.5 L 341.1,177.1 L 342.5,177.2 L 342.8,176.7 L 343.0,175.6 L 343.6,174.9 L 344.4,174.3 L 344.9,173.1 L 344.5,172.0 L 343.9,170.8 L 339.0,168.8 L 338.4,168.5 L 334.3,167.4 L 331.4,167.1 L 330.5,166.6 L 329.5,165.8 L 328.4,163.5 L 328.1,163.3 L 327.4,163.3 L 326.2,164.0 L 324.4,164.1 L 319.2,163.4 L 316.3,162.1 L 315.4,162.0 L 314.5,162.4 L 313.9,162.4 L 313.1,161.2 L 312.0,160.9 L 311.5,161.3 L 312.1,162.7 L 314.1,163.4 L 316.0,164.5 L 317.2,165.8 L 317.9,166.2 L 318.1,166.4 L 318.8,166.5 L 319.2,167.3 L 321.0,167.6 L 321.4,167.9 L 321.8,168.5 L 321.4,168.7 L 321.0,169.3 L 323.8,170.3 L 326.1,171.3 L 326.3,172.1 L 325.1,173.8 L 324.2,176.1 L 320.9,179.2 L 318.6,180.0 L 318.0,180.1 L 314.3,180.4 L 312.2,181.3 L 309.4,181.8 L 308.4,181.4 L 306.9,180.4 L 305.8,179.5 L 304.9,179.5 L 304.7,179.9 L 305.1,180.4 L 305.2,180.8 L 304.6,181.1 L 299.4,181.0 L 296.0,180.6 L 295.6,180.8 L 294.4,180.9 L 293.3,181.4 L 291.9,180.5 L 291.4,180.0 L 290.3,180.0 L 287.9,178.9 L 287.4,178.2 L 287.0,177.3 L 283.8,176.2 L 282.5,176.5 L 279.7,176.2 L 279.1,175.4 L 277.9,175.4 L 277.2,175.9 L 276.4,177.1 L 275.0,178.5 L 274.8,178.2 L 274.2,178.1 L 274.1,178.6 L 273.4,179.2 L 272.3,179.3 L 271.8,179.5 L 271.5,179.5 L 271.2,179.1 L 271.4,177.6 L 271.9,176.8 L 271.4,176.6 L 270.1,176.5 L 269.4,176.2 L 268.4,176.2 L 267.4,176.7 L 266.1,177.9 L 264.9,178.1 L 263.9,177.2 L 263.2,177.2 L 263.2,175.8 L 263.8,174.8 L 263.9,173.1 L 264.8,172.7 L 265.2,172.2 L 265.2,171.9 L 264.1,171.1 L 262.6,170.9 L 260.0,171.7 L 259.9,172.2 L 258.8,173.1 L 258.1,173.2 L 257.9,173.1 L 257.3,172.2 L 257.7,171.6 L 257.3,171.3 L 256.1,170.7 L 256.0,169.6 L 255.7,168.6 L 254.0,167.1 L 252.7,167.0 L 251.2,167.6 L 249.2,169.2 L 246.9,170.3 L 245.3,170.4 L 244.3,170.7 L 242.5,172.4 L 242.2,172.7 L 240.7,175.5 L 239.3,177.0 L 238.0,179.1 L 237.3,180.6 L 236.0,182.2 L 235.5,182.3 L 234.5,181.7 L 234.6,180.6 L 235.0,179.7 L 235.9,178.8 L 235.8,178.4 L 234.0,177.9 L 233.1,177.3 L 231.6,177.9 L 231.3,178.2 L 230.4,178.3 L 229.4,177.3 L 229.5,175.6 L 228.5,174.9 L 226.8,174.5 L 226.1,173.7 L 225.8,172.4 L 225.9,171.2 L 226.1,170.8 L 225.8,169.7 L 226.4,166.2 L 227.4,162.5 L 227.5,160.9 L 227.8,159.1 L 227.5,158.5 L 227.6,157.0 L 227.2,156.6 L 227.3,156.1 L 225.8,155.1 L 224.0,155.1 L 222.6,155.5 L 221.0,155.7 L 216.8,158.0 L 212.5,161.5 L 211.4,161.7 L 210.7,162.1 L 210.6,163.0 L 209.9,163.9 L 209.1,164.6 L 208.0,165.0 L 205.5,165.5 L 203.3,165.4 L 199.6,165.1 L 198.5,165.9 L 196.9,166.2 L 196.2,166.7 L 195.6,167.7 L 194.5,168.9 L 194.1,169.5 L 192.4,170.5 L 191.8,171.4 L 191.6,173.1 L 190.4,175.1 L 189.2,176.5 L 188.6,177.5 L 186.6,182.9 L 186.4,185.3 L 186.1,189.2 L 185.5,190.0 L 185.0,191.5 L 185.6,193.0 L 186.1,193.6 L 188.9,194.9 L 190.7,194.8 L 191.4,194.4 L 190.4,193.3 L 190.4,191.9 L 191.5,191.1 L 193.5,190.6 L 194.6,190.9 L 196.3,190.2 L 196.4,187.8 L 197.2,186.6 L 198.2,185.5 L 199.6,182.8 L 200.7,182.1 L 203.2,181.4 L 208.8,181.1 L 209.1,181.3 L 211.2,180.9 L 212.0,181.2 L 213.4,182.3 L 214.1,184.0 L 214.8,184.9 L 215.9,185.7 L 216.6,185.6 L 219.0,184.6 L 219.4,184.7 L 219.7,185.5 L 220.4,185.5 L 221.4,186.0 L 221.7,186.6 L 221.7,187.8 L 220.5,189.1 L 219.7,190.2 L 219.4,191.2 L 217.4,193.2 L 217.1,195.9 L 217.6,196.5 L 218.3,196.3 L 219.9,194.6 L 220.4,193.7 L 221.7,192.5 L 222.8,192.2 L 223.7,192.9 L 225.5,193.3 L 225.8,194.0 L 225.8,195.6 L 225.5,196.6 L 224.9,197.5 L 224.2,197.6 L 223.1,197.2 L 222.6,197.6 L 222.5,199.9 L 223.0,200.8 L 223.2,201.0 L 223.6,201.6 L 224.5,201.0 L 226.0,200.9 L 226.2,201.1 L 227.3,201.7 L 227.8,202.2 L 229.4,202.5 L 229.3,204.0 L 228.7,204.6 L 227.3,204.7 L 225.2,205.2 L 223.2,206.0 L 220.1,206.2 L 220.1,207.1 L 219.8,207.6 L 219.0,207.7 L 217.9,207.5 L 217.5,207.7 L 219.3,209.3 L 219.9,209.4 L 220.4,209.7 L 221.5,211.2 L 222.9,212.6 L 223.7,212.7 L 225.7,213.4 L 226.0,214.0 L 227.6,215.7 L 228.2,217.1 L 230.7,220.0 L 231.5,220.9 L 231.5,221.4 L 230.6,221.5 L 230.2,221.6 L 228.1,221.2 L 222.9,217.2 L 222.1,217.2 L 222.0,217.7 L 221.7,218.4 L 221.5,219.6 L 223.3,221.6 L 223.3,222.2 L 222.8,222.6 L 222.1,222.6 L 221.0,222.2 L 220.0,222.9 L 218.8,222.5 L 218.2,221.9 L 216.9,221.1 L 215.1,220.7 L 213.0,220.7 L 212.4,220.4 L 211.6,220.4 L 209.6,220.0 L 208.6,220.8 L 207.0,223.5 L 207.0,225.2 L 206.7,225.7 L 205.0,226.5 L 203.8,227.8 L 202.6,230.5 L 201.2,232.4 L 200.1,234.7 L 199.6,235.1 L 199.5,235.0 L 199.0,234.6 L 198.6,232.1 L 198.8,231.1 L 199.6,229.5 L 199.9,228.6 L 200.5,228.4 L 201.8,228.3 L 202.4,227.8 L 202.3,226.8 L 202.1,226.2 L 201.2,226.3 L 200.1,226.9 L 199.2,227.6 L 198.7,227.3 L 198.2,225.8 L 197.7,225.6 L 196.8,224.7 L 196.9,224.3 L 197.5,223.5 L 197.0,222.3 L 197.3,221.5 L 197.3,220.8 L 197.6,220.1 L 197.4,219.7 L 198.1,219.5 L 200.1,219.5 L 200.5,218.8 L 199.5,216.7 L 198.4,216.3 L 197.1,216.6 L 196.1,216.5 L 194.1,215.4 L 193.2,214.9 L 192.2,215.2 L 191.1,215.2 L 190.7,215.1 L 190.7,214.5 L 190.4,213.9 L 189.7,213.9 L 189.2,214.3 L 187.8,214.7 L 187.2,214.1 L 186.4,212.3 L 185.5,211.6 L 185.3,211.2 L 186.0,209.9 L 185.9,208.8 L 184.4,208.2 L 182.4,209.1 L 179.7,209.8 L 178.1,210.6 L 177.1,210.4 L 176.9,210.2 L 177.3,209.3 L 176.9,209.0 L 176.7,208.1 L 175.9,208.0 L 174.6,208.3 L 174.5,208.7 L 173.9,209.0 L 173.7,209.4 L 173.3,209.9 L 173.0,208.7 L 172.6,208.3 L 172.7,207.8 L 173.3,207.7 L 173.1,207.3 L 172.6,206.9 L 172.3,206.5 L 171.1,205.5 L 169.7,205.2 L 169.2,204.2 L 168.8,203.9 L 167.5,205.0 L 167.2,204.7 L 166.7,203.8 L 166.8,203.2 L 167.5,202.1 L 167.5,201.3 L 166.7,200.5 L 165.0,199.9 L 164.7,201.3 L 164.4,202.0 L 165.0,202.6 L 164.7,202.9 L 164.9,204.4 L 164.1,205.4 L 163.1,203.4 L 162.7,203.2 L 161.9,203.1 L 161.5,202.6 L 161.2,200.8 L 160.7,200.3 L 160.6,198.9 L 160.1,197.5 L 158.4,196.8 L 158.1,196.3 L 158.3,195.8 L 157.6,194.9 L 157.7,194.3 L 158.6,194.1 L 159.2,193.6 L 159.2,192.9 L 158.3,192.4 L 156.3,192.6 L 156.2,194.6 L 155.9,195.6 L 155.7,197.2 L 155.1,197.4 L 153.3,195.8 L 153.3,194.4 L 152.0,193.5 L 151.4,192.6 L 151.0,192.6 L 150.9,193.6 L 149.9,194.3 L 149.4,193.5 L 148.5,192.2 L 149.4,191.9 L 149.4,191.3 L 148.6,190.6 L 147.7,190.5 L 147.3,191.3 L 147.2,192.5 L 146.9,193.4 L 146.0,194.8 L 145.9,196.3 L 145.1,197.8 L 145.1,198.9 L 145.6,199.8 L 144.8,201.1 L 145.4,202.3 L 146.0,202.7 L 146.5,204.1 L 147.2,205.0 L 146.5,207.5 L 146.3,209.2 L 148.1,211.5 L 150.3,212.6 L 151.3,212.8 L 152.2,212.3 L 153.1,212.2 L 153.1,214.5 L 153.9,216.4 L 154.4,216.9 L 157.4,218.6 L 158.5,218.7 L 160.5,219.3 L 161.8,218.5 L 163.3,218.5 L 164.0,218.8 L 166.7,219.2 L 167.2,219.7 L 167.3,223.2 L 166.6,223.9 L 165.3,223.1 L 164.4,223.4 L 163.7,224.0 L 163.9,224.8 L 164.4,225.5 L 166.0,226.4 L 166.7,226.5 L 167.0,226.9 L 167.1,227.7 L 168.7,229.3 L 168.6,230.3 L 167.2,231.5 L 166.5,232.9 L 166.4,234.4 L 166.6,235.3 L 167.1,235.8 L 168.3,235.5 L 168.8,236.1 L 169.4,236.2 L 169.8,236.5 L 169.9,237.7 L 170.2,238.4 L 170.3,240.2 L 169.8,240.7 L 169.3,240.8 L 168.8,241.2 L 168.3,241.8 L 168.4,242.6 L 167.2,244.6 L 165.9,244.9 L 165.0,244.7 L 164.9,244.0 L 164.1,242.8 L 162.4,242.8 L 161.8,243.4 L 161.8,244.6 L 161.8,245.3 L 161.9,246.6 L 161.9,248.1 L 161.2,248.4 L 160.5,248.1 L 159.9,247.2 L 159.4,245.9 L 158.5,245.8 L 158.0,246.2 L 157.9,246.7 L 157.5,247.3 L 157.7,248.5 L 157.3,249.8 L 156.6,252.0 L 156.6,252.9 L 157.6,255.4 L 157.5,257.2 L 157.7,259.1 L 158.2,260.0 L 158.8,261.0 L 159.1,262.4 L 159.6,266.8 L 160.3,268.9 L 160.5,269.9 L 160.3,270.6 L 159.0,271.2 L 157.7,270.8 L 157.3,270.2 L 156.8,270.1 L 156.4,270.4 L 155.4,272.1 L 155.2,274.1 L 154.7,275.4 L 153.0,279.0 L 151.5,279.9 L 150.1,281.6 L 148.9,280.4 L 148.5,280.0 L 148.7,278.9 L 149.8,277.1 L 149.7,274.3 L 149.1,272.3 L 148.6,271.4 L 148.1,271.5 L 147.2,272.0 L 146.9,271.9 L 147.1,271.2 L 147.4,270.2 L 147.5,269.1 L 148.2,268.2 L 149.3,268.1 L 149.9,268.0 L 150.5,267.2 L 151.1,265.8 L 152.1,265.1 L 152.2,264.0 L 152.6,263.0 L 152.6,261.3 L 151.8,259.6 L 151.8,256.5 L 151.1,255.5 L 149.7,253.9 L 149.1,252.5 L 148.3,249.6 L 147.9,249.4 L 147.3,249.9 L 146.7,251.6 L 145.8,252.3 L 145.2,253.2 L 145.0,254.1 L 143.1,257.9 L 142.9,259.6 L 142.6,260.0 L 141.6,259.5 L 140.4,261.3 L 140.6,262.8 L 141.0,263.5 L 141.0,265.3 L 140.4,266.8 L 139.7,267.7 L 138.8,267.8 L 137.8,268.6 L 137.3,268.4 L 136.4,268.2 L 135.1,268.8 L 133.1,270.2 L 132.0,269.1 L 131.7,268.0 L 130.9,267.3 L 130.2,267.1 L 130.3,264.9 L 130.9,263.4 L 132.8,259.5 L 132.8,258.9 L 132.6,258.5 L 133.5,255.8 L 133.7,253.3 L 133.5,251.7 L 132.7,251.4 L 131.6,252.5 L 130.3,252.3 L 129.7,251.9 L 129.6,251.0 L 128.9,248.5 L 126.7,245.3 L 126.4,244.9 L 126.1,243.9 L 125.8,243.1 L 125.9,241.5 L 126.5,240.3 L 126.5,237.7 L 125.7,236.5 L 124.7,233.5 L 123.9,232.7 L 123.6,232.0 L 124.1,230.6 L 123.5,229.1 L 123.0,228.7 L 121.1,228.4 L 120.2,227.5 L 117.8,224.3 L 116.3,222.3 L 114.9,221.1 L 113.7,220.2 L 113.6,219.6 L 112.8,218.8 L 110.9,218.7 L 109.0,218.2 L 107.9,218.6 L 107.2,218.3 L 106.5,218.1 L 106.1,217.4 L 105.5,217.6 L 104.3,217.3 L 104.1,216.8 L 103.4,216.3 L 101.7,216.3 L 99.9,216.6 L 99.2,216.9 L 100.2,218.2 L 100.1,222.4 L 99.0,224.3 L 97.6,226.1 L 97.3,228.5 L 96.8,230.1 L 96.0,231.3 L 94.6,232.5 L 92.6,233.7 L 90.3,235.7 L 88.1,237.0 L 85.4,239.4 L 83.8,240.0 L 81.2,241.5 L 81.0,242.0 L 81.6,244.1 L 82.6,245.2 L 82.6,245.3 L 82.7,245.8 L 81.9,246.7 L 81.7,247.5 L 81.1,248.6 L 80.1,249.0 L 79.1,250.0 L 78.6,250.9 L 77.6,251.9 L 76.6,251.9 L 75.9,252.3 L 75.8,253.2 L 75.7,253.3 L 75.6,253.1 L 40.0,184.2 L 40.2,183.9 L 40.2,182.8 L 41.1,183.2 L 41.6,182.9 L 42.0,182.0 L 42.1,180.1 L 43.4,180.1 L 43.8,179.1 L 44.7,176.7 L 45.1,174.1 L 46.5,170.9 L 47.2,170.3 L 48.1,170.3 L 48.3,170.9 L 48.7,170.8 L 50.0,169.0 L 49.3,164.9 L 49.4,164.1 L 49.5,162.5 L 49.9,162.0 L 51.3,162.1 L 51.8,161.6 L 51.6,158.5 L 53.5,156.8 L 54.8,156.1 L 59.2,156.0 L 61.7,155.4 L 63.0,155.3 L 64.7,154.7 L 66.5,153.3 L 68.9,152.5 L 69.7,152.6 L 70.2,152.9 L 72.7,150.7 L 73.7,150.4 L 74.9,150.5 L 78.3,152.6 L 79.2,154.0 L 79.5,155.3 L 80.7,156.5 L 82.4,156.9 L 83.6,156.6 L 84.7,156.8 L 85.8,157.7 L 86.3,158.7 L 86.0,159.8 L 86.6,160.7 L 87.6,160.9 L 90.3,160.9 L 91.5,159.9 L 92.2,159.7 L 94.0,158.1 L 97.8,156.6 L 103.5,154.7 L 106.4,153.3 L 107.2,153.1 L 107.8,152.9 L 109.4,152.7 L 110.4,153.0 L 111.3,153.9 L 113.1,154.2 L 113.7,153.6 L 115.2,153.3 L 115.9,153.0 L 117.0,153.1 L 118.3,152.6" fill="none" stroke="black" stroke-width="2"/>
</svg>