<?xml version="1.0" encoding="UTF-8"?>
<svg width="400" height="400" viewBox="0 0 400 400" xmlns="http://www.w3.org/2000/svg">
  <rect width="400" height="400" fill="white"/>
  <path d="M 191.4,234.0 L 191.5,234.4 L 191.9,234.7 L 192.4,234.7 L 192.8,234.3 L 193.1,233.8 L 193.5,233.7 L 194.2,233.3 L 195.4,233.0 L 196.3,232.2 L 196.4,232.2 L 196.5,232.3 L 196.9,232.1 L 196.9,231.8 L 196.6,231.8 L 196.6,231.4 L 197.1,231.1 L 197.9,230.6 L 198.0,230.1 L 198.6,230.0 L 199.0,229.5 L 199.1,228.1 L 199.4,227.4 L 200.3,226.6 L 200.6,225.7 L 200.6,225.1 L 200.9,224.1 L 200.9,223.1 L 200.7,222.9 L 200.1,222.8 L 200.1,222.5 L 200.7,222.2 L 201.3,221.5 L 201.5,220.9 L 203.0,218.6 L 203.0,218.4 L 202.8,217.7 L 202.9,217.2 L 203.1,217.0 L 203.3,217.1 L 203.4,217.5 L 203.6,217.5 L 204.0,216.8 L 204.6,216.3 L 204.6,214.6 L 205.1,214.4 L 205.3,213.7 L 205.6,213.5 L 205.8,213.8 L 205.9,214.1 L 206.2,214.1 L 206.3,213.9 L 206.2,213.6 L 206.0,213.3 L 206.0,213.1 L 207.0,212.3 L 207.7,211.4 L 208.2,210.0 L 208.5,209.3 L 208.6,209.2 L 209.0,208.3 L 209.3,208.3 L 209.7,207.6 L 209.7,207.0 L 209.5,206.9 L 209.6,206.3 L 209.8,205.9 L 209.8,205.4 L 210.0,205.0 L 209.9,204.8 L 209.4,204.8 L 208.8,205.0 L 208.4,204.9 L 208.5,204.5 L 208.8,204.2 L 208.8,203.4 L 209.0,203.2 L 208.7,202.1 L 208.7,201.3 L 209.3,201.2 L 209.6,200.5 L 209.5,199.6 L 209.1,199.3 L 209.1,199.1 L 209.5,198.1 L 209.6,197.3 L 209.0,197.2 L 208.9,196.9 L 208.9,194.8 L 208.9,194.4 L 209.1,193.9 L 209.2,193.4 L 209.6,192.4 L 209.7,191.5 L 210.3,190.6 L 210.3,190.4 L 210.5,190.0 L 211.0,189.7 L 211.4,188.5 L 211.7,187.2 L 211.5,186.9 L 211.2,187.0 L 211.2,186.7 L 212.0,185.8 L 212.5,184.5 L 212.6,182.8 L 212.0,182.7 L 212.0,182.2 L 212.4,181.6 L 212.6,180.9 L 212.9,179.8 L 212.5,179.4 L 212.6,179.1 L 213.2,178.4 L 213.3,178.2 L 213.4,177.5 L 213.9,176.3 L 214.2,175.5 L 214.3,174.5 L 214.5,173.4 L 214.5,172.6 L 214.4,172.3 L 212.3,173.2 L 212.6,172.5 L 212.6,171.9 L 212.4,171.3 L 212.2,168.6 L 211.9,168.3 L 211.8,167.8 L 211.5,167.6 L 211.5,166.8 L 211.4,166.3 L 211.6,165.0 L 211.7,163.1 L 211.6,162.8 L 211.7,162.2 L 211.4,162.0 L 211.2,162.2 L 210.7,162.6 L 210.1,162.7 L 210.0,162.2 L 209.9,161.9 L 210.6,161.2 L 210.7,160.6 L 210.5,160.4 L 210.8,159.8 L 210.8,159.2 L 210.5,158.9 L 210.1,158.9 L 210.0,158.7 L 209.2,158.7 L 208.9,158.2 L 208.9,157.8 L 209.5,157.7 L 210.1,157.1 L 210.3,156.3 L 210.1,154.3 L 209.8,154.1 L 209.9,153.8 L 210.2,153.2 L 210.7,152.6 L 210.6,151.7 L 210.3,151.4 L 210.3,151.1 L 209.7,150.8 L 209.5,150.1 L 209.6,149.0 L 211.1,147.1 L 211.9,146.5 L 211.9,145.8 L 212.4,145.3 L 212.5,145.0 L 212.9,144.8 L 213.2,144.5 L 213.8,144.4 L 215.2,142.9 L 215.2,142.7 L 215.7,142.5 L 215.9,142.3 L 216.2,141.8 L 216.2,141.5 L 216.2,140.9 L 216.4,140.4 L 216.3,139.9 L 216.0,139.5 L 216.0,139.2 L 216.1,139.1 L 216.5,139.1 L 216.4,138.4 L 216.5,138.2 L 216.3,136.3 L 216.5,135.6 L 216.5,134.7 L 216.1,134.1 L 215.8,133.7 L 215.3,133.2 L 215.1,133.4 L 214.9,134.0 L 214.9,134.2 L 214.6,134.2 L 214.4,134.0 L 214.3,133.7 L 214.2,133.2 L 214.0,132.8 L 213.9,132.1 L 213.3,131.4 L 213.2,131.1 L 213.2,130.6 L 212.8,129.9 L 212.5,129.8 L 212.0,129.8 L 211.6,129.9 L 210.9,131.0 L 210.3,131.1 L 208.6,132.3 L 208.2,132.3 L 207.7,132.3 L 207.4,131.9 L 207.3,131.3 L 207.6,130.7 L 207.6,129.7 L 207.7,129.1 L 207.7,128.7 L 207.1,128.0 L 207.1,127.2 L 207.7,126.7 L 207.7,126.1 L 207.2,125.8 L 207.2,125.2 L 207.4,125.0 L 207.2,124.6 L 207.2,124.1 L 207.7,124.0 L 208.1,123.5 L 208.2,123.1 L 208.3,123.0 L 208.3,121.7 L 208.2,121.3 L 208.2,121.0 L 208.2,119.9 L 207.7,119.0 L 207.8,118.3 L 206.9,115.8 L 207.0,114.7 L 207.4,113.6 L 207.4,113.1 L 207.2,112.9 L 207.3,112.0 L 207.3,110.8 L 207.2,110.4 L 206.9,109.3 L 207.0,108.1 L 207.2,107.6 L 207.2,107.2 L 207.2,107.2 L 208.3,107.1 L 208.3,107.1 L 208.2,107.8 L 208.5,107.9 L 208.5,108.7 L 208.9,109.0 L 208.8,109.7 L 208.9,109.9 L 209.3,109.7 L 209.5,109.4 L 209.6,108.9 L 209.5,108.6 L 209.6,107.7 L 210.1,106.9 L 210.3,107.0 L 210.2,109.7 L 210.9,109.8 L 210.9,109.9 L 210.4,110.4 L 209.9,111.1 L 209.8,112.2 L 209.6,113.1 L 209.7,113.3 L 209.6,114.4 L 209.1,115.2 L 209.0,115.9 L 208.9,116.2 L 208.9,117.3 L 209.0,117.5 L 209.1,118.2 L 209.2,119.2 L 209.5,120.0 L 209.5,120.5 L 209.3,121.1 L 209.5,121.4 L 209.7,121.3 L 209.9,121.3 L 210.9,123.4 L 210.9,124.4 L 211.7,125.0 L 212.6,126.0 L 213.3,126.3 L 213.5,126.3 L 214.2,125.7 L 214.4,125.3 L 214.5,125.0 L 215.2,124.2 L 214.8,123.2 L 214.9,122.1 L 214.8,121.8 L 214.8,121.3 L 214.9,121.1 L 215.0,119.6 L 215.2,119.6 L 215.3,119.0 L 215.4,118.0 L 215.8,117.6 L 215.8,117.0 L 215.7,116.7 L 215.6,116.4 L 215.1,116.5 L 215.1,115.8 L 214.7,115.6 L 214.8,113.9 L 214.3,113.7 L 214.2,113.4 L 213.8,113.1 L 213.3,113.2 L 213.1,113.3 L 212.7,113.3 L 212.8,112.1 L 213.1,111.3 L 212.9,110.9 L 211.5,110.8 L 211.6,109.9 L 211.7,109.5 L 211.3,109.3 L 211.4,109.1 L 212.0,108.3 L 212.2,107.7 L 212.2,106.7 L 212.0,106.5 L 212.4,105.7 L 212.6,105.2 L 213.3,103.4 L 213.0,103.0 L 212.6,103.3 L 212.1,103.5 L 211.4,104.4 L 211.1,105.4 L 210.7,105.4 L 210.5,105.3 L 210.5,104.7 L 210.7,104.3 L 211.0,103.8 L 211.4,103.6 L 211.8,102.9 L 212.0,102.5 L 212.0,102.1 L 211.7,101.8 L 212.1,101.3 L 212.1,100.8 L 211.6,100.6 L 211.8,100.3 L 212.0,100.0 L 212.1,99.3 L 212.0,99.0 L 211.9,99.0 L 255.1,40.1 L 255.1,40.0 L 257.1,42.1 L 257.9,42.6 L 258.4,43.8 L 259.0,45.0 L 259.6,45.7 L 260.4,45.9 L 260.6,46.4 L 261.2,46.7 L 262.0,46.9 L 263.0,47.5 L 264.0,47.5 L 264.1,47.9 L 264.3,48.1 L 264.5,48.2 L 264.9,48.1 L 265.0,48.5 L 265.4,48.5 L 265.8,48.4 L 266.1,48.8 L 266.3,48.9 L 267.0,48.9 L 267.7,48.4 L 267.9,48.1 L 267.8,47.9 L 267.6,47.7 L 267.0,47.8 L 266.8,47.5 L 266.9,47.2 L 267.6,47.2 L 268.1,47.4 L 268.4,47.1 L 268.4,46.4 L 269.3,45.7 L 269.6,45.2 L 270.1,44.9 L 270.5,44.5 L 270.7,43.9 L 270.8,43.3 L 271.1,42.9 L 271.4,42.6 L 271.5,41.3 L 271.7,41.1 L 272.0,41.1 L 272.3,41.1 L 272.7,41.4 L 272.6,43.2 L 272.8,43.4 L 272.9,43.6 L 272.6,44.2 L 272.2,44.2 L 271.9,44.1 L 271.6,44.9 L 271.5,47.2 L 271.4,47.7 L 271.5,48.2 L 271.7,48.6 L 273.1,49.7 L 273.3,50.0 L 273.4,50.4 L 272.8,50.7 L 272.6,51.2 L 272.6,51.7 L 274.3,53.1 L 274.6,53.7 L 274.6,54.4 L 274.7,54.7 L 275.7,55.4 L 276.0,55.8 L 276.1,55.9 L 276.5,55.9 L 276.7,55.1 L 277.4,54.9 L 277.8,54.5 L 278.0,53.8 L 277.9,52.6 L 278.5,52.3 L 278.9,52.3 L 279.2,52.5 L 279.3,52.7 L 280.6,52.7 L 280.8,52.9 L 281.3,53.1 L 281.3,53.5 L 281.0,54.9 L 280.3,55.6 L 280.2,56.0 L 280.8,56.3 L 280.9,56.6 L 281.7,57.4 L 283.2,57.9 L 283.7,58.3 L 283.7,58.9 L 283.0,59.4 L 282.6,59.4 L 282.3,59.3 L 282.4,59.0 L 282.3,58.7 L 280.6,58.7 L 280.2,58.8 L 280.1,59.2 L 280.8,59.9 L 281.4,60.0 L 281.5,60.3 L 281.4,60.5 L 281.2,61.3 L 281.8,61.7 L 281.8,62.0 L 281.7,62.2 L 280.5,62.2 L 280.1,62.7 L 280.0,64.3 L 280.5,65.2 L 281.3,65.7 L 282.7,66.2 L 283.5,66.3 L 284.4,66.3 L 285.7,65.7 L 287.6,64.2 L 289.2,63.6 L 289.6,63.5 L 290.4,63.7 L 292.5,62.8 L 292.8,62.8 L 292.8,63.1 L 292.7,63.2 L 291.3,63.7 L 289.9,64.4 L 289.5,64.8 L 288.9,65.9 L 288.0,66.5 L 287.8,66.6 L 287.3,66.3 L 287.0,66.4 L 286.9,68.0 L 287.2,68.5 L 287.7,68.8 L 288.6,69.5 L 288.9,70.1 L 289.6,70.9 L 289.6,71.5 L 290.3,72.3 L 291.0,72.3 L 291.3,72.1 L 291.8,72.1 L 292.7,72.6 L 293.0,73.1 L 292.9,73.6 L 292.9,73.7 L 292.8,75.6 L 293.1,76.6 L 293.8,77.6 L 293.9,78.1 L 293.8,78.7 L 294.0,79.3 L 294.0,80.2 L 294.6,80.7 L 294.6,81.4 L 294.2,82.0 L 293.8,81.9 L 293.5,82.1 L 293.4,85.0 L 293.3,85.9 L 293.1,86.2 L 293.1,87.0 L 293.3,88.0 L 293.5,88.2 L 293.7,88.6 L 293.9,89.5 L 294.3,89.8 L 295.6,90.5 L 296.1,90.9 L 296.5,90.8 L 297.2,90.3 L 297.4,89.9 L 298.0,89.9 L 298.4,90.4 L 298.6,90.4 L 298.9,90.4 L 299.7,90.8 L 300.2,91.5 L 300.7,91.8 L 301.3,92.7 L 301.6,93.4 L 302.0,93.8 L 302.3,93.8 L 303.4,94.2 L 303.9,94.2 L 304.6,94.7 L 305.1,95.0 L 305.6,95.2 L 306.1,95.9 L 306.7,96.9 L 307.0,97.0 L 307.4,97.2 L 307.4,97.5 L 307.7,97.9 L 308.9,98.0 L 309.2,98.2 L 309.5,98.1 L 310.2,97.7 L 310.7,97.7 L 311.2,98.5 L 311.2,99.1 L 310.7,99.6 L 310.5,100.4 L 310.2,100.9 L 309.9,101.4 L 309.4,101.7 L 309.1,102.2 L 308.7,103.0 L 308.6,105.0 L 307.9,105.6 L 308.0,106.4 L 307.8,106.6 L 306.3,106.7 L 305.8,106.4 L 304.5,106.1 L 303.1,106.3 L 303.1,106.3 L 302.1,107.4 L 301.6,108.7 L 301.7,109.3 L 303.0,110.1 L 304.1,110.6 L 304.9,110.9 L 305.7,110.8 L 306.3,110.4 L 306.5,110.5 L 306.9,111.0 L 307.2,110.9 L 307.2,110.2 L 307.0,109.7 L 307.5,109.7 L 307.8,110.5 L 308.2,110.8 L 309.0,110.9 L 309.2,111.1 L 308.9,111.5 L 309.0,111.8 L 309.3,111.6 L 309.4,111.1 L 310.1,110.9 L 310.1,110.8 L 328.0,145.4 L 328.0,145.5 L 327.9,146.0 L 327.9,146.9 L 328.1,147.5 L 328.1,149.0 L 327.6,149.3 L 328.3,150.4 L 328.4,150.9 L 328.2,151.8 L 327.6,153.0 L 327.3,153.0 L 326.2,153.5 L 325.5,153.5 L 324.9,153.6 L 324.1,154.7 L 322.7,155.3 L 322.1,155.3 L 321.8,155.0 L 321.4,154.2 L 321.0,154.4 L 320.3,154.2 L 319.4,154.1 L 319.0,153.6 L 319.0,153.3 L 319.1,152.9 L 319.5,152.8 L 319.8,152.6 L 320.0,152.1 L 319.8,151.8 L 319.4,151.8 L 318.7,152.4 L 318.3,152.5 L 318.1,152.6 L 318.1,153.0 L 317.8,153.1 L 317.4,153.4 L 316.8,153.5 L 316.4,153.6 L 316.2,153.9 L 315.4,153.9 L 314.6,154.8 L 314.2,155.4 L 313.2,156.0 L 312.4,156.9 L 312.4,157.2 L 311.6,157.6 L 311.2,158.1 L 310.2,159.6 L 310.1,160.3 L 309.8,161.1 L 309.8,162.1 L 310.1,162.6 L 310.2,162.9 L 309.6,163.0 L 309.4,163.1 L 309.4,163.7 L 309.6,163.9 L 310.1,164.2 L 310.4,165.1 L 310.9,164.8 L 311.4,164.4 L 312.0,164.2 L 313.6,163.2 L 314.1,163.1 L 314.5,163.1 L 314.8,162.9 L 315.1,162.8 L 315.5,162.3 L 316.1,161.7 L 316.7,161.8 L 317.0,162.1 L 316.9,162.2 L 316.8,162.6 L 317.1,163.4 L 317.4,163.6 L 317.6,163.5 L 317.9,163.3 L 318.1,163.4 L 318.1,165.0 L 318.4,165.5 L 318.4,166.4 L 318.5,166.8 L 318.7,167.8 L 318.9,168.3 L 318.8,168.7 L 319.0,168.8 L 319.2,168.9 L 319.3,169.5 L 319.8,169.9 L 319.7,171.7 L 319.9,172.2 L 320.1,172.8 L 321.5,174.2 L 321.6,174.4 L 321.5,174.6 L 321.5,175.0 L 321.7,174.9 L 322.6,174.9 L 323.1,175.5 L 323.3,176.3 L 323.7,176.5 L 324.1,176.9 L 324.3,177.6 L 324.8,178.2 L 325.2,178.3 L 325.7,178.5 L 327.0,180.4 L 328.0,182.2 L 328.1,182.8 L 327.8,183.6 L 327.7,185.3 L 328.0,187.5 L 328.5,187.8 L 328.7,188.4 L 328.2,189.5 L 328.3,190.4 L 328.6,190.7 L 329.1,190.2 L 329.3,190.3 L 329.4,191.7 L 329.5,193.5 L 329.5,194.5 L 329.3,194.9 L 328.7,195.4 L 328.3,195.5 L 328.2,195.8 L 328.3,196.0 L 328.6,195.7 L 328.6,195.5 L 329.4,195.0 L 330.1,194.9 L 330.3,195.1 L 330.4,195.8 L 329.9,196.5 L 328.7,197.6 L 328.4,198.0 L 328.2,198.6 L 327.9,199.2 L 327.6,199.1 L 327.4,198.9 L 327.0,198.8 L 326.5,198.9 L 325.4,199.5 L 325.2,199.3 L 325.1,199.0 L 325.2,197.8 L 325.8,197.2 L 325.9,196.4 L 325.9,195.8 L 325.3,194.9 L 324.9,192.6 L 324.6,192.2 L 322.5,192.0 L 321.9,191.8 L 321.5,191.3 L 321.1,189.9 L 320.6,189.5 L 320.4,189.0 L 319.7,189.0 L 319.6,189.0 L 319.0,188.7 L 317.8,187.8 L 317.5,186.9 L 316.8,186.5 L 316.4,186.4 L 316.4,185.2 L 315.9,184.8 L 315.6,184.8 L 315.3,184.7 L 314.7,184.8 L 314.2,185.6 L 313.9,186.3 L 313.1,187.8 L 312.7,188.1 L 311.8,188.5 L 311.3,188.5 L 310.6,188.2 L 309.8,187.5 L 309.4,187.4 L 307.9,189.1 L 307.3,189.5 L 307.0,189.4 L 306.2,189.8 L 305.8,190.3 L 305.8,190.7 L 305.1,191.7 L 305.3,192.5 L 303.8,194.4 L 302.3,196.3 L 301.9,196.9 L 301.5,198.9 L 301.8,199.9 L 301.3,202.8 L 301.2,207.0 L 300.9,208.4 L 300.8,209.3 L 300.8,210.0 L 300.4,211.5 L 300.1,213.2 L 300.3,214.2 L 300.1,222.5 L 300.0,227.4 L 299.6,228.3 L 299.6,228.3 L 299.4,230.9 L 299.3,233.2 L 299.1,234.3 L 298.8,234.9 L 298.3,235.6 L 297.6,236.7 L 297.4,236.7 L 296.6,238.2 L 296.6,238.7 L 296.3,238.9 L 296.5,239.1 L 296.5,239.4 L 296.3,240.0 L 296.2,240.4 L 295.7,241.6 L 295.6,242.1 L 295.2,242.6 L 294.4,243.0 L 293.9,243.3 L 293.5,243.4 L 293.2,243.3 L 292.4,243.3 L 291.4,245.2 L 291.3,246.4 L 291.5,246.8 L 291.7,247.2 L 291.4,247.8 L 290.4,249.6 L 290.2,249.9 L 290.1,250.6 L 290.5,251.2 L 290.4,251.4 L 290.3,252.2 L 290.2,252.4 L 289.8,252.7 L 289.7,253.2 L 289.6,253.4 L 288.8,253.4 L 288.4,253.7 L 288.1,254.2 L 287.6,254.6 L 287.4,255.1 L 287.6,255.9 L 287.7,256.9 L 287.4,257.2 L 287.0,257.3 L 286.6,256.9 L 286.4,257.3 L 286.5,258.1 L 286.6,258.4 L 286.6,258.9 L 286.4,259.1 L 285.5,259.4 L 285.1,259.4 L 284.0,258.4 L 283.5,258.1 L 282.5,256.9 L 282.3,255.8 L 281.9,255.4 L 281.4,255.6 L 281.1,255.6 L 280.8,255.3 L 280.8,254.3 L 281.1,254.0 L 281.0,253.7 L 281.1,253.0 L 281.0,252.6 L 279.8,252.6 L 279.6,252.9 L 279.0,252.7 L 278.7,252.9 L 278.7,253.5 L 278.4,253.8 L 278.1,253.8 L 277.5,254.3 L 276.6,255.8 L 276.0,256.8 L 275.9,256.9 L 274.7,258.9 L 274.2,260.9 L 273.6,263.0 L 273.5,263.7 L 272.8,265.6 L 272.6,266.7 L 272.4,267.0 L 271.4,267.1 L 270.8,266.2 L 269.9,265.7 L 268.8,265.6 L 267.9,265.7 L 267.5,265.5 L 266.9,264.6 L 266.3,263.9 L 266.0,263.9 L 265.9,267.3 L 266.1,267.6 L 266.0,267.7 L 204.2,309.8 L 203.8,309.8 L 203.1,310.1 L 201.9,310.2 L 201.4,310.7 L 200.9,311.7 L 200.5,311.8 L 199.8,312.6 L 199.1,313.0 L 198.7,313.1 L 198.1,312.2 L 198.1,311.9 L 198.6,311.4 L 198.9,311.0 L 198.7,310.8 L 198.3,310.7 L 197.7,310.9 L 196.9,311.0 L 196.6,311.3 L 196.5,311.8 L 196.0,312.0 L 194.6,312.4 L 193.5,312.5 L 192.3,312.8 L 189.9,314.2 L 189.5,314.2 L 189.3,313.9 L 189.5,313.6 L 190.7,313.0 L 191.5,312.1 L 191.3,311.8 L 190.6,311.9 L 188.8,313.0 L 186.7,313.9 L 186.0,314.4 L 186.0,314.7 L 186.5,314.6 L 187.7,314.0 L 188.0,314.1 L 188.2,314.5 L 188.2,314.8 L 188.1,315.0 L 187.7,315.1 L 186.2,315.8 L 184.8,316.7 L 184.1,317.3 L 183.2,317.9 L 180.4,319.0 L 180.1,318.7 L 180.2,318.1 L 181.0,317.3 L 181.4,316.6 L 181.3,316.3 L 180.7,316.3 L 180.4,316.5 L 179.5,316.6 L 178.9,316.8 L 178.1,317.4 L 178.0,317.3 L 177.9,317.0 L 177.9,316.6 L 177.3,316.4 L 177.2,316.1 L 176.0,315.9 L 176.1,315.5 L 175.5,315.6 L 174.8,315.5 L 174.4,315.4 L 174.1,315.6 L 172.9,315.6 L 172.5,315.4 L 171.8,315.3 L 171.7,314.8 L 171.4,314.8 L 170.7,315.4 L 170.2,315.5 L 169.2,315.5 L 168.2,315.7 L 165.4,316.7 L 163.7,317.6 L 162.1,318.3 L 161.1,318.3 L 160.2,318.6 L 159.6,318.7 L 159.2,318.8 L 158.6,319.1 L 157.0,319.5 L 156.8,319.7 L 156.9,319.9 L 157.4,320.2 L 157.5,320.5 L 156.4,321.5 L 155.7,321.5 L 155.7,321.2 L 155.6,321.0 L 155.2,320.8 L 154.3,321.0 L 152.3,322.0 L 151.1,322.1 L 150.4,322.3 L 150.0,322.8 L 149.6,323.6 L 149.0,324.2 L 149.0,324.5 L 149.5,324.5 L 149.5,324.4 L 150.1,323.9 L 150.1,323.8 L 150.5,323.5 L 151.8,323.3 L 152.0,323.6 L 151.1,324.4 L 150.4,325.2 L 149.5,325.6 L 149.1,325.8 L 149.3,325.9 L 149.5,325.9 L 149.7,325.9 L 150.2,325.8 L 150.6,325.8 L 150.1,326.7 L 149.4,326.9 L 148.7,327.2 L 147.9,327.2 L 147.2,327.0 L 146.3,327.2 L 145.7,327.4 L 144.4,327.7 L 142.8,327.8 L 141.4,328.4 L 140.4,328.7 L 140.1,328.8 L 139.0,329.3 L 137.9,330.1 L 137.6,330.1 L 136.2,330.7 L 135.8,330.5 L 135.0,330.4 L 133.8,331.5 L 132.6,333.3 L 131.0,334.7 L 130.1,335.3 L 130.0,335.6 L 129.4,336.2 L 125.6,338.6 L 125.6,338.8 L 124.4,339.4 L 124.0,339.8 L 122.9,340.4 L 121.8,340.4 L 120.7,340.7 L 120.4,340.9 L 119.4,341.7 L 119.6,341.9 L 119.3,342.1 L 119.3,342.5 L 119.1,342.8 L 118.3,343.3 L 117.1,343.6 L 115.7,344.3 L 114.2,344.3 L 113.0,344.5 L 112.1,344.6 L 111.7,344.4 L 111.5,344.2 L 110.6,344.0 L 109.9,344.4 L 109.5,344.9 L 109.4,345.0 L 109.1,345.8 L 108.9,347.2 L 108.8,347.4 L 108.8,348.3 L 108.5,348.7 L 108.2,349.8 L 108.0,350.5 L 108.2,350.8 L 108.2,351.3 L 108.9,351.3 L 109.1,351.5 L 109.1,352.0 L 109.0,352.6 L 108.9,353.6 L 108.2,353.7 L 107.9,353.8 L 107.2,353.8 L 106.7,354.1 L 105.4,354.6 L 105.2,355.0 L 105.5,355.5 L 104.5,356.4 L 104.5,356.5 L 103.7,357.6 L 102.4,358.8 L 102.2,359.4 L 101.5,359.9 L 100.8,359.3 L 100.2,359.1 L 98.7,358.2 L 98.5,358.4 L 98.4,358.8 L 98.1,359.2 L 97.8,359.2 L 97.6,359.5 L 97.4,359.8 L 97.2,360.0 L 97.0,359.8 L 97.3,359.3 L 97.7,359.2 L 97.8,358.7 L 97.8,357.9 L 97.6,357.6 L 97.7,357.1 L 97.2,356.8 L 96.6,356.6 L 96.1,356.8 L 95.6,357.3 L 95.3,357.4 L 95.2,356.7 L 94.8,356.2 L 94.5,356.3 L 93.9,356.4 L 93.4,356.1 L 92.6,354.8 L 92.0,354.6 L 91.9,354.3 L 91.4,354.3 L 90.9,354.4 L 90.4,354.5 L 90.2,354.9 L 90.5,355.6 L 90.5,356.0 L 89.8,357.0 L 89.3,357.4 L 88.7,357.4 L 88.3,357.0 L 88.2,356.5 L 87.9,356.0 L 87.4,355.9 L 87.3,355.8 L 85.4,355.0 L 85.0,355.0 L 85.1,355.3 L 84.9,355.8 L 84.5,356.1 L 84.1,356.0 L 83.5,356.2 L 83.0,355.7 L 82.5,355.5 L 81.7,355.5 L 81.4,355.2 L 81.1,354.7 L 81.1,354.0 L 80.6,353.6 L 81.2,353.4 L 81.2,353.1 L 81.0,352.9 L 81.0,352.5 L 80.7,352.3 L 79.9,352.2 L 78.9,351.4 L 78.1,351.1 L 76.3,350.2 L 75.0,349.8 L 72.6,349.2 L 72.2,349.1 L 71.6,349.1 L 70.4,348.7 L 69.9,348.5 L 69.6,348.6 L 69.6,348.6 L 78.0,291.1 L 78.0,291.1 L 78.5,291.3 L 79.7,291.4 L 80.0,291.2 L 80.6,291.2 L 81.8,291.4 L 83.0,291.7 L 84.7,292.6 L 85.7,293.5 L 86.2,293.8 L 86.6,293.9 L 87.2,294.5 L 88.4,294.8 L 89.9,295.5 L 90.2,295.3 L 91.9,296.0 L 92.9,296.4 L 93.9,296.7 L 95.0,296.9 L 97.8,297.0 L 98.3,296.9 L 101.2,296.4 L 101.6,296.5 L 102.5,296.5 L 102.9,296.3 L 103.2,295.9 L 103.3,295.2 L 103.0,294.8 L 103.1,294.5 L 103.3,294.4 L 103.8,294.6 L 104.5,294.6 L 104.7,293.3 L 105.6,291.8 L 106.1,291.5 L 107.2,291.4 L 107.6,290.9 L 108.0,290.7 L 107.8,290.3 L 108.1,290.0 L 109.4,290.1 L 110.3,289.3 L 110.4,288.8 L 112.2,287.7 L 113.9,286.9 L 116.9,285.2 L 118.8,285.1 L 120.0,284.6 L 121.2,284.5 L 122.6,284.1 L 123.6,283.7 L 124.0,284.0 L 124.3,283.9 L 124.6,283.7 L 125.1,283.6 L 125.7,283.9 L 126.1,283.8 L 126.9,283.2 L 127.4,283.1 L 127.9,282.8 L 128.9,282.6 L 129.5,282.6 L 130.4,282.3 L 131.9,281.6 L 133.3,281.1 L 134.1,281.0 L 134.8,280.7 L 135.5,280.6 L 135.9,280.2 L 135.9,279.9 L 135.4,279.6 L 135.4,279.1 L 135.3,278.9 L 135.4,278.3 L 135.7,278.0 L 136.0,278.0 L 136.2,278.1 L 137.2,278.2 L 137.4,278.3 L 138.3,278.2 L 139.0,277.8 L 139.7,277.5 L 139.9,277.2 L 139.8,277.1 L 139.6,276.8 L 139.7,276.3 L 140.4,275.5 L 141.6,274.1 L 142.2,273.7 L 142.7,273.0 L 143.2,271.7 L 143.8,271.3 L 145.6,268.5 L 146.1,264.2 L 146.5,262.6 L 146.5,261.1 L 146.7,260.5 L 146.8,257.7 L 147.1,256.9 L 147.1,255.7 L 147.0,254.7 L 147.0,252.9 L 146.8,252.1 L 146.4,251.6 L 146.4,251.0 L 146.1,250.6 L 146.2,250.4 L 145.9,250.1 L 145.7,250.0 L 145.7,249.3 L 146.2,248.9 L 146.2,247.3 L 146.0,246.4 L 191.4,234.0" fill="none" stroke="black" stroke-width="2"/>
</svg>