<?xml version="1.0" encoding="UTF-8"?>
<svg width="400" height="400" viewBox="0 0 400 400" xmlns="http://www.w3.org/2000/svg">
  <rect width="400" height="400" fill="white"/>
  <path d="M 128.2,180.2 L 128.7,180.1 L 128.9,179.9 L 129.4,179.7 L 130.5,178.9 L 130.7,178.5 L 132.9,178.4 L 133.5,178.5 L 134.1,178.4 L 134.8,178.2 L 136.0,178.1 L 136.5,178.0 L 137.0,177.8 L 137.2,177.9 L 137.2,178.1 L 137.7,178.3 L 138.2,178.3 L 138.4,178.5 L 138.8,178.0 L 138.6,177.8 L 139.5,177.1 L 139.9,176.8 L 140.9,176.6 L 143.1,176.5 L 143.7,176.4 L 144.3,176.2 L 144.9,175.8 L 145.1,176.1 L 145.3,176.0 L 145.6,175.6 L 145.4,175.3 L 145.6,175.0 L 146.4,175.1 L 146.5,175.2 L 146.9,175.1 L 148.7,175.0 L 149.3,174.5 L 149.6,174.0 L 149.9,173.9 L 149.9,173.5 L 149.2,173.1 L 149.3,172.8 L 150.0,172.4 L 150.0,172.2 L 150.0,172.1 L 149.5,171.9 L 148.3,171.5 L 147.2,171.4 L 146.7,171.6 L 146.6,171.5 L 145.7,171.5 L 144.7,171.6 L 144.4,171.3 L 144.0,171.7 L 144.0,172.0 L 143.8,172.2 L 143.2,172.3 L 142.9,172.2 L 142.4,171.6 L 142.0,171.4 L 141.6,170.8 L 141.4,169.2 L 141.5,168.7 L 142.5,166.6 L 143.1,165.5 L 143.4,165.3 L 144.6,165.1 L 144.8,164.8 L 145.1,164.8 L 145.4,164.6 L 146.1,164.6 L 146.2,165.3 L 146.6,165.4 L 147.1,165.4 L 147.3,164.9 L 147.6,165.1 L 148.5,165.2 L 149.5,164.9 L 150.5,164.6 L 150.6,164.4 L 150.8,164.2 L 151.2,164.1 L 151.5,163.6 L 151.3,162.9 L 151.9,162.7 L 151.9,162.9 L 152.1,162.9 L 152.3,162.5 L 152.6,162.6 L 152.6,163.1 L 153.4,163.2 L 153.7,162.5 L 154.0,162.2 L 154.0,161.4 L 154.2,161.1 L 154.2,161.0 L 154.1,160.6 L 154.1,159.9 L 153.7,159.6 L 153.2,159.4 L 152.7,159.3 L 152.5,159.0 L 152.8,158.6 L 153.1,158.4 L 153.1,158.1 L 153.4,157.8 L 153.6,157.5 L 153.9,157.4 L 153.9,157.0 L 153.5,156.7 L 151.5,156.0 L 151.5,154.8 L 152.0,153.4 L 151.8,153.0 L 152.0,152.2 L 152.4,151.6 L 152.3,151.2 L 151.9,151.0 L 151.9,149.7 L 151.6,149.6 L 151.0,149.4 L 150.9,149.2 L 149.6,149.0 L 149.3,148.7 L 149.2,148.5 L 149.2,148.1 L 149.2,147.1 L 149.3,147.0 L 150.3,147.0 L 150.4,146.8 L 150.4,146.5 L 150.0,146.3 L 150.1,146.0 L 150.7,146.1 L 151.5,146.2 L 152.0,146.2 L 152.6,146.0 L 153.4,145.1 L 153.8,144.8 L 153.2,144.4 L 153.3,144.3 L 153.7,144.2 L 153.8,143.9 L 154.0,143.8 L 154.3,143.6 L 154.3,142.9 L 154.4,142.6 L 154.3,142.3 L 154.4,142.2 L 154.6,142.1 L 154.8,141.0 L 155.0,140.8 L 155.2,140.3 L 155.5,140.0 L 155.6,139.5 L 155.9,139.2 L 156.1,138.9 L 156.0,138.6 L 156.0,138.4 L 156.3,138.3 L 156.4,138.1 L 156.4,137.9 L 156.4,137.7 L 156.7,137.5 L 157.2,136.2 L 157.4,134.8 L 157.5,133.7 L 157.2,133.5 L 156.6,133.4 L 156.2,133.5 L 155.6,133.5 L 155.4,133.3 L 155.3,132.9 L 155.3,132.5 L 156.3,131.5 L 156.5,131.2 L 157.3,131.7 L 157.5,131.6 L 157.6,131.4 L 157.8,130.8 L 157.5,130.6 L 157.2,130.8 L 156.8,130.8 L 156.6,130.6 L 156.6,130.3 L 156.8,130.1 L 156.8,129.8 L 156.5,129.6 L 156.5,128.8 L 156.9,128.4 L 156.8,127.7 L 156.6,127.6 L 156.7,127.2 L 156.9,126.9 L 157.3,126.9 L 158.3,126.6 L 159.0,125.9 L 159.0,125.6 L 158.7,125.0 L 159.2,124.3 L 159.8,124.2 L 160.2,123.6 L 160.4,123.1 L 160.2,123.0 L 159.9,123.0 L 159.9,122.8 L 160.2,122.7 L 160.8,122.4 L 160.9,122.1 L 161.0,121.3 L 160.8,121.2 L 160.2,121.2 L 159.7,121.6 L 159.1,121.6 L 158.9,121.3 L 158.9,120.9 L 159.8,120.5 L 160.3,119.9 L 160.6,119.4 L 160.6,119.1 L 160.3,119.0 L 160.0,119.0 L 159.3,119.3 L 158.9,119.4 L 158.6,119.6 L 158.4,119.4 L 157.3,119.5 L 156.4,120.1 L 156.1,120.2 L 156.2,119.7 L 156.3,119.5 L 156.3,119.0 L 156.6,118.7 L 156.7,118.2 L 155.2,118.1 L 154.7,118.4 L 154.1,118.4 L 153.5,118.7 L 153.2,118.7 L 152.9,118.4 L 152.8,118.1 L 152.8,117.7 L 153.1,117.1 L 153.6,116.6 L 153.8,116.1 L 154.0,115.1 L 154.3,114.3 L 154.4,113.2 L 154.5,112.8 L 154.6,112.0 L 155.1,111.4 L 155.4,110.9 L 155.6,110.8 L 155.9,110.3 L 156.1,110.2 L 156.6,110.3 L 156.9,110.2 L 157.0,110.5 L 157.0,111.3 L 157.4,111.4 L 157.7,111.3 L 158.2,111.0 L 158.3,110.5 L 158.5,109.6 L 158.4,108.9 L 158.0,108.5 L 157.8,108.5 L 157.2,109.1 L 156.8,108.9 L 156.8,108.1 L 156.7,107.8 L 156.5,107.7 L 156.5,106.6 L 157.0,106.0 L 157.1,105.6 L 157.3,105.6 L 157.6,105.2 L 158.2,104.2 L 158.2,103.7 L 158.0,103.5 L 157.5,103.6 L 157.5,103.3 L 157.5,103.0 L 158.1,101.6 L 158.4,100.8 L 158.6,99.8 L 158.4,99.4 L 158.4,98.4 L 158.0,97.1 L 157.8,96.9 L 157.0,96.9 L 156.9,96.3 L 156.9,95.1 L 156.6,94.5 L 155.9,93.9 L 155.9,93.2 L 155.6,92.5 L 155.5,91.9 L 155.3,91.6 L 155.0,91.4 L 155.2,91.0 L 155.3,90.9 L 156.3,92.2 L 156.7,92.1 L 157.6,91.4 L 157.8,91.5 L 157.7,92.0 L 157.3,92.4 L 157.2,92.8 L 157.3,93.2 L 157.2,93.6 L 157.2,94.3 L 157.6,95.3 L 158.0,95.6 L 158.1,95.9 L 158.8,96.6 L 159.1,96.5 L 159.5,96.2 L 160.0,96.3 L 160.3,96.6 L 160.3,96.8 L 160.1,97.0 L 159.4,97.0 L 159.2,97.1 L 159.1,97.7 L 159.8,98.3 L 160.3,98.3 L 160.7,98.5 L 160.7,98.7 L 160.6,98.8 L 160.0,98.8 L 159.9,98.9 L 159.8,99.5 L 160.5,100.9 L 160.7,101.0 L 160.9,101.3 L 161.1,101.8 L 161.7,102.5 L 162.0,102.6 L 162.4,102.9 L 162.6,102.9 L 163.2,102.3 L 163.0,100.6 L 162.9,100.3 L 162.8,99.5 L 163.3,98.3 L 163.7,97.4 L 163.9,97.3 L 164.2,96.9 L 164.3,96.1 L 164.7,95.7 L 165.2,95.6 L 165.6,94.8 L 165.4,94.3 L 165.8,93.7 L 165.9,93.3 L 165.9,92.8 L 165.7,92.6 L 165.0,92.5 L 164.7,92.1 L 164.5,91.8 L 164.5,91.3 L 164.2,90.8 L 163.9,90.1 L 163.9,89.4 L 163.7,89.1 L 163.8,88.3 L 163.5,87.9 L 163.2,87.7 L 163.0,87.3 L 162.5,86.8 L 162.5,86.5 L 162.9,85.9 L 163.6,85.6 L 163.9,85.7 L 164.1,85.9 L 164.1,86.4 L 164.3,86.8 L 164.7,86.8 L 165.1,86.5 L 166.0,85.0 L 166.2,84.3 L 166.2,82.3 L 166.3,82.0 L 166.3,81.4 L 165.9,81.1 L 256.2,50.0 L 256.7,50.6 L 256.9,51.0 L 257.2,51.4 L 257.5,51.9 L 258.2,52.7 L 259.0,52.8 L 259.6,53.3 L 260.8,53.9 L 261.8,54.2 L 262.2,54.3 L 262.4,53.8 L 262.6,53.8 L 262.7,53.9 L 262.7,54.0 L 262.6,54.5 L 262.9,54.8 L 263.5,54.9 L 265.3,55.0 L 265.8,55.1 L 266.3,55.0 L 267.1,54.3 L 267.1,53.1 L 267.8,52.3 L 268.3,52.3 L 268.4,52.1 L 268.5,51.8 L 268.8,51.4 L 268.8,50.8 L 268.7,50.2 L 269.2,49.8 L 269.9,49.7 L 270.2,50.2 L 270.3,50.4 L 270.4,50.3 L 270.3,49.9 L 270.5,49.7 L 271.4,49.8 L 272.0,50.1 L 272.3,49.9 L 272.9,50.0 L 273.4,49.8 L 274.6,50.7 L 275.3,50.7 L 275.3,50.4 L 274.9,50.2 L 274.3,49.0 L 273.9,48.7 L 273.8,48.4 L 273.9,48.3 L 275.3,49.0 L 275.3,49.3 L 275.1,49.7 L 275.5,50.0 L 276.7,50.7 L 277.5,50.9 L 279.2,51.8 L 280.3,52.4 L 280.6,52.5 L 282.4,52.8 L 282.9,52.8 L 283.1,52.7 L 283.5,52.2 L 283.9,52.1 L 284.0,52.8 L 284.6,53.2 L 285.2,53.1 L 286.0,52.8 L 287.5,52.8 L 287.8,52.5 L 288.1,52.5 L 288.3,52.3 L 288.0,51.5 L 288.3,50.9 L 288.1,50.4 L 288.3,50.2 L 288.3,50.0 L 287.4,50.0 L 286.8,49.6 L 287.2,49.2 L 287.6,49.3 L 287.7,49.1 L 287.6,48.5 L 287.1,48.0 L 286.4,47.8 L 286.1,47.2 L 285.8,47.2 L 285.0,47.7 L 284.7,47.6 L 284.4,47.1 L 284.5,46.5 L 284.5,46.1 L 284.4,45.8 L 284.1,45.6 L 283.9,45.7 L 283.8,46.4 L 283.4,46.4 L 283.3,46.3 L 283.4,46.1 L 282.9,45.1 L 282.7,44.5 L 282.6,44.3 L 281.9,44.2 L 281.8,44.1 L 282.3,44.0 L 283.0,43.7 L 283.5,43.8 L 284.0,43.1 L 284.3,43.0 L 284.4,43.1 L 284.5,43.6 L 284.8,44.0 L 285.0,43.8 L 285.2,42.8 L 285.2,42.5 L 284.6,42.0 L 284.5,41.7 L 284.5,41.4 L 285.0,40.8 L 285.0,40.7 L 284.6,40.7 L 284.6,40.5 L 285.3,40.3 L 285.7,40.4 L 285.7,41.3 L 286.0,41.7 L 286.1,41.7 L 286.6,41.7 L 287.0,41.3 L 286.8,40.9 L 287.1,40.6 L 287.3,40.6 L 287.7,40.0 L 288.0,40.1 L 288.1,40.2 L 288.2,40.5 L 288.4,40.9 L 288.8,41.0 L 288.8,41.3 L 288.5,41.7 L 287.7,42.2 L 287.4,42.5 L 287.4,43.1 L 287.9,43.9 L 288.3,44.1 L 288.8,44.5 L 289.4,44.8 L 289.6,44.7 L 289.7,44.6 L 289.6,44.0 L 289.5,43.5 L 289.8,43.0 L 290.0,42.8 L 290.5,42.7 L 291.0,42.3 L 291.2,41.8 L 291.1,41.3 L 291.3,41.3 L 291.7,41.5 L 292.0,41.8 L 291.8,42.4 L 291.9,42.6 L 291.9,43.0 L 291.8,43.3 L 291.9,43.6 L 291.5,44.4 L 291.0,44.9 L 291.0,45.6 L 291.3,46.3 L 292.4,47.0 L 294.9,47.2 L 295.9,47.5 L 295.9,47.6 L 296.1,47.8 L 297.3,48.3 L 298.6,48.4 L 298.6,48.8 L 298.4,49.0 L 297.9,49.1 L 297.7,49.2 L 297.9,49.9 L 298.1,50.2 L 298.5,50.3 L 299.0,50.0 L 299.2,50.3 L 299.5,50.2 L 299.7,50.1 L 300.2,50.1 L 300.7,49.6 L 300.9,49.6 L 301.4,50.0 L 301.5,50.0 L 301.6,50.3 L 301.9,50.7 L 302.7,50.9 L 303.1,51.1 L 303.8,51.8 L 304.3,52.2 L 304.8,52.4 L 305.2,52.6 L 305.4,52.7 L 305.5,52.5 L 305.5,51.5 L 306.5,51.5 L 306.7,51.8 L 306.9,52.5 L 307.4,52.7 L 308.1,52.6 L 310.5,52.2 L 312.7,52.0 L 314.9,51.6 L 315.5,51.3 L 315.6,51.3 L 315.7,51.7 L 315.8,51.7 L 315.8,52.0 L 315.6,52.1 L 314.7,52.1 L 312.5,52.6 L 311.5,52.6 L 311.2,52.6 L 310.8,52.7 L 310.5,52.6 L 310.2,52.8 L 309.3,53.2 L 308.4,53.2 L 308.0,53.0 L 308.0,53.3 L 307.8,53.5 L 306.7,53.6 L 305.7,53.7 L 305.2,54.3 L 304.9,54.5 L 305.1,54.7 L 305.7,54.7 L 306.8,55.3 L 308.2,55.6 L 308.3,55.8 L 308.0,55.8 L 307.4,56.0 L 306.9,56.1 L 306.0,55.8 L 305.6,55.8 L 305.1,55.6 L 304.9,55.5 L 304.6,55.4 L 302.4,55.3 L 301.2,55.6 L 299.1,55.6 L 298.3,55.8 L 297.0,56.7 L 296.5,57.0 L 296.0,57.1 L 295.9,57.2 L 295.1,57.8 L 294.7,58.0 L 294.4,58.4 L 294.4,58.7 L 294.9,58.9 L 294.9,59.5 L 293.9,60.9 L 294.3,61.1 L 295.8,61.6 L 295.9,61.6 L 274.9,129.6 L 274.8,129.6 L 274.5,129.9 L 274.0,130.1 L 273.5,130.9 L 272.8,131.5 L 271.8,132.6 L 271.3,133.4 L 271.1,134.2 L 269.7,136.3 L 268.8,137.4 L 267.3,138.8 L 267.2,139.3 L 267.0,139.5 L 266.6,139.6 L 266.2,139.9 L 266.2,140.1 L 266.0,140.5 L 265.8,140.7 L 265.9,141.0 L 265.0,141.5 L 264.4,141.8 L 264.2,141.8 L 263.6,142.0 L 262.8,142.7 L 262.8,142.7 L 262.0,143.2 L 260.4,143.9 L 259.2,145.0 L 258.8,145.0 L 258.1,145.3 L 257.6,145.4 L 256.9,145.7 L 256.3,146.2 L 255.9,146.2 L 254.5,146.6 L 254.4,146.8 L 253.6,147.0 L 252.5,147.9 L 252.4,147.8 L 252.0,147.7 L 251.8,147.8 L 251.1,147.9 L 250.7,148.1 L 250.7,148.7 L 250.7,148.8 L 250.4,149.1 L 250.5,149.3 L 249.8,149.7 L 249.4,149.7 L 249.4,149.3 L 249.2,149.2 L 248.7,149.1 L 248.3,149.3 L 247.4,149.3 L 246.4,149.5 L 246.1,149.7 L 245.8,150.7 L 245.5,150.8 L 245.5,151.0 L 245.6,151.2 L 245.0,151.6 L 244.9,152.1 L 244.7,152.4 L 244.9,152.7 L 245.2,153.2 L 246.3,153.7 L 247.8,154.0 L 248.5,153.7 L 248.8,153.8 L 249.1,154.4 L 249.1,155.4 L 248.9,155.8 L 248.1,156.0 L 246.9,156.1 L 246.5,156.3 L 246.4,156.7 L 245.9,157.0 L 245.9,158.1 L 244.6,158.1 L 244.1,158.2 L 243.5,158.6 L 243.0,158.7 L 242.6,159.1 L 242.5,160.1 L 242.1,160.3 L 241.4,160.9 L 240.6,163.1 L 240.5,163.8 L 240.3,164.5 L 240.1,165.0 L 239.5,165.5 L 239.1,165.5 L 238.9,165.2 L 238.7,165.2 L 238.6,165.4 L 238.1,165.5 L 238.1,165.8 L 237.9,166.1 L 237.8,166.4 L 237.6,166.7 L 237.4,166.9 L 236.9,167.0 L 236.5,166.6 L 236.5,166.1 L 236.6,165.9 L 236.6,165.7 L 236.3,165.3 L 236.3,165.2 L 236.3,164.9 L 235.5,164.5 L 235.0,164.4 L 233.3,164.3 L 232.6,165.0 L 232.3,165.6 L 231.9,165.7 L 231.9,165.0 L 230.7,164.9 L 230.0,165.0 L 229.8,165.2 L 230.6,165.5 L 230.9,165.9 L 230.8,166.2 L 230.3,166.8 L 229.9,166.8 L 229.5,167.3 L 229.3,167.4 L 229.0,167.5 L 228.6,167.6 L 228.5,168.0 L 227.7,168.0 L 227.6,167.9 L 227.7,166.8 L 227.5,166.4 L 227.0,166.4 L 226.8,167.4 L 226.4,167.4 L 226.1,167.5 L 225.7,167.9 L 225.2,167.9 L 224.9,168.3 L 224.9,168.6 L 225.1,168.8 L 225.1,169.0 L 225.6,169.3 L 225.7,169.5 L 225.4,169.8 L 224.6,169.8 L 224.4,170.2 L 224.3,170.4 L 224.2,170.6 L 222.1,170.7 L 221.5,170.9 L 220.7,171.8 L 220.8,172.0 L 220.9,172.5 L 220.7,172.6 L 220.4,172.7 L 220.3,173.3 L 219.9,173.7 L 219.5,174.0 L 219.5,174.3 L 219.4,174.5 L 218.5,174.7 L 218.2,174.8 L 218.1,175.5 L 217.8,175.8 L 217.7,176.3 L 217.8,176.4 L 218.0,176.8 L 217.9,177.3 L 217.4,177.9 L 217.5,178.2 L 218.0,178.6 L 217.9,178.7 L 179.9,230.4 L 179.7,230.4 L 178.9,230.9 L 178.5,231.3 L 178.5,231.8 L 178.7,232.1 L 178.7,232.5 L 178.9,232.5 L 179.0,232.7 L 178.3,233.4 L 178.3,233.8 L 178.4,234.1 L 178.4,234.5 L 178.4,235.6 L 177.6,236.3 L 177.5,236.3 L 177.2,236.8 L 176.8,237.3 L 176.8,237.6 L 176.8,237.6 L 175.9,237.6 L 175.8,237.7 L 175.8,236.8 L 176.3,236.4 L 176.3,236.2 L 176.4,234.2 L 176.4,233.9 L 176.3,233.6 L 176.0,233.5 L 175.7,233.8 L 175.4,233.9 L 175.2,234.7 L 175.4,235.1 L 175.4,235.4 L 175.0,235.3 L 174.7,235.0 L 174.5,235.0 L 174.4,235.1 L 174.5,235.4 L 174.5,235.6 L 174.4,235.6 L 174.0,235.1 L 173.8,235.3 L 173.6,236.0 L 173.3,235.9 L 173.1,236.1 L 173.1,236.7 L 173.4,237.0 L 173.3,238.1 L 173.0,237.9 L 172.5,237.9 L 172.1,238.0 L 171.9,238.3 L 171.9,238.9 L 172.0,239.1 L 172.0,239.5 L 171.6,240.4 L 171.4,241.2 L 171.2,241.7 L 170.6,242.6 L 170.5,243.8 L 170.7,244.3 L 171.0,244.7 L 171.4,244.7 L 171.7,244.4 L 173.4,242.3 L 173.8,242.4 L 173.8,242.9 L 173.0,244.3 L 172.6,244.5 L 172.2,245.3 L 172.3,245.9 L 172.4,246.3 L 173.4,247.2 L 173.9,247.8 L 173.9,248.2 L 173.7,248.6 L 173.0,248.9 L 172.3,248.9 L 172.1,248.7 L 171.6,248.7 L 171.3,248.5 L 171.1,248.4 L 170.9,248.6 L 170.8,249.4 L 170.1,249.5 L 170.0,250.5 L 169.5,251.1 L 169.0,252.8 L 168.7,254.1 L 168.5,254.4 L 168.1,254.0 L 167.8,254.0 L 167.4,254.4 L 166.9,254.8 L 166.2,254.8 L 166.1,255.1 L 166.0,257.0 L 165.9,257.2 L 165.7,257.3 L 165.4,257.0 L 164.3,256.5 L 164.2,256.7 L 163.8,257.0 L 163.7,257.4 L 163.4,257.7 L 163.2,258.6 L 163.0,258.7 L 162.5,259.7 L 162.2,259.8 L 161.9,260.1 L 161.8,260.6 L 161.6,260.8 L 161.3,260.8 L 161.1,260.5 L 161.1,260.2 L 160.7,259.6 L 160.4,259.5 L 160.2,259.8 L 159.3,260.5 L 158.4,261.5 L 158.4,261.9 L 158.8,262.3 L 157.9,262.9 L 157.7,263.6 L 157.5,263.8 L 157.1,263.7 L 157.0,263.5 L 157.0,263.2 L 156.8,263.0 L 155.9,263.0 L 155.5,263.1 L 154.4,263.8 L 153.5,264.7 L 153.1,264.9 L 153.0,265.3 L 152.6,265.4 L 152.2,265.7 L 152.0,266.4 L 152.5,266.7 L 152.5,267.0 L 152.3,267.2 L 152.1,267.3 L 151.8,267.4 L 151.7,267.7 L 151.6,267.8 L 151.6,267.9 L 150.8,268.0 L 150.2,268.5 L 149.8,268.9 L 149.8,269.6 L 149.5,270.3 L 149.2,270.5 L 148.8,272.2 L 148.3,272.5 L 148.1,273.0 L 148.0,273.4 L 147.9,275.2 L 148.2,276.8 L 148.3,277.1 L 148.2,279.1 L 147.9,280.1 L 148.0,280.7 L 148.3,281.1 L 148.6,281.7 L 148.7,282.6 L 148.6,285.0 L 148.9,285.4 L 149.7,286.3 L 149.7,286.7 L 150.3,288.3 L 150.2,289.1 L 150.7,289.7 L 151.2,289.6 L 151.4,289.5 L 151.6,289.5 L 151.7,289.7 L 152.7,290.4 L 153.5,291.3 L 154.2,292.5 L 154.3,293.3 L 154.3,294.2 L 154.2,294.5 L 154.1,295.2 L 154.0,295.6 L 153.7,296.1 L 153.6,296.8 L 153.3,297.2 L 152.9,298.4 L 152.8,299.4 L 152.6,301.3 L 152.7,301.7 L 153.0,302.2 L 153.5,302.7 L 154.0,302.7 L 154.2,302.7 L 155.0,302.4 L 155.3,302.3 L 155.5,302.4 L 156.1,302.8 L 156.2,303.1 L 156.3,303.4 L 156.1,304.1 L 156.1,304.8 L 156.3,305.2 L 156.2,306.3 L 155.1,308.9 L 154.8,310.0 L 154.7,310.2 L 154.7,311.5 L 154.4,312.4 L 154.3,314.0 L 154.7,314.8 L 154.7,315.2 L 154.5,315.9 L 154.3,316.1 L 153.8,316.1 L 153.7,316.1 L 153.6,315.6 L 153.4,315.4 L 152.5,315.5 L 152.4,315.8 L 151.7,316.0 L 151.4,316.4 L 150.6,316.3 L 150.4,316.4 L 150.6,316.9 L 151.1,317.5 L 151.2,317.7 L 150.8,317.9 L 151.0,318.2 L 150.6,318.7 L 150.5,319.1 L 150.8,319.3 L 150.8,319.6 L 150.5,319.9 L 150.5,320.5 L 150.7,321.2 L 150.8,321.9 L 150.9,322.5 L 151.0,323.0 L 151.1,323.6 L 151.6,324.0 L 151.8,324.3 L 152.4,325.2 L 152.5,325.4 L 152.8,325.7 L 153.0,326.4 L 153.4,327.2 L 153.4,327.4 L 153.5,327.6 L 153.9,327.9 L 154.8,328.3 L 156.6,328.8 L 157.3,329.2 L 157.6,329.4 L 157.7,329.9 L 158.0,330.2 L 160.1,330.5 L 160.3,330.7 L 160.3,331.0 L 159.7,331.1 L 159.6,331.6 L 159.3,332.0 L 159.1,332.5 L 158.4,332.8 L 157.9,333.1 L 157.4,334.0 L 157.3,334.9 L 157.6,335.4 L 157.6,336.2 L 158.0,337.8 L 158.7,338.6 L 159.0,339.4 L 159.0,340.7 L 159.1,341.2 L 159.5,342.2 L 160.0,343.0 L 160.4,343.4 L 160.8,343.9 L 160.9,344.2 L 161.0,344.3 L 161.5,344.5 L 161.6,344.8 L 162.1,345.3 L 162.0,348.2 L 161.8,348.7 L 162.0,349.1 L 122.0,360.0 L 121.9,359.6 L 121.9,359.0 L 121.8,358.7 L 121.7,358.6 L 121.6,358.1 L 121.3,357.3 L 120.4,356.2 L 120.1,356.4 L 119.9,356.3 L 119.5,355.9 L 119.2,356.2 L 119.0,355.8 L 119.0,355.2 L 118.6,353.8 L 117.9,352.9 L 117.2,352.3 L 117.1,352.3 L 116.1,351.2 L 115.9,350.4 L 114.9,349.4 L 114.7,349.5 L 114.6,349.8 L 114.3,349.5 L 113.8,348.7 L 113.7,347.7 L 113.0,346.3 L 112.6,345.6 L 112.2,344.3 L 112.0,344.1 L 111.5,344.2 L 111.2,344.6 L 110.8,344.6 L 110.9,343.6 L 111.0,343.3 L 110.8,342.5 L 110.9,341.9 L 110.7,341.5 L 110.7,340.9 L 110.3,340.7 L 110.3,340.2 L 110.1,340.0 L 110.1,339.7 L 110.2,338.8 L 109.7,337.1 L 109.2,336.3 L 109.3,335.8 L 109.6,335.6 L 109.8,335.6 L 110.4,336.0 L 110.7,336.0 L 111.1,335.6 L 111.4,335.6 L 111.4,336.8 L 111.5,337.0 L 111.9,337.0 L 112.2,336.7 L 112.4,335.7 L 112.4,335.3 L 112.1,334.7 L 112.2,334.5 L 112.4,334.2 L 112.6,333.5 L 112.3,332.3 L 111.8,331.2 L 111.8,330.6 L 111.2,329.6 L 110.9,329.3 L 110.5,328.7 L 109.9,328.6 L 109.3,328.8 L 109.1,328.7 L 109.0,328.3 L 108.8,327.8 L 108.6,327.6 L 108.1,327.6 L 107.8,327.7 L 107.7,327.4 L 107.7,327.3 L 107.4,326.9 L 107.2,327.0 L 106.9,326.9 L 106.6,327.1 L 106.3,327.4 L 106.2,327.6 L 106.2,328.1 L 105.5,328.9 L 104.8,329.0 L 104.5,328.4 L 104.1,328.3 L 103.9,328.5 L 103.6,329.0 L 103.5,329.2 L 102.7,329.2 L 102.3,329.5 L 102.2,330.0 L 102.1,329.9 L 94.3,322.4 L 94.6,321.8 L 95.2,320.9 L 95.3,320.4 L 95.4,319.9 L 95.6,318.7 L 95.4,317.9 L 95.2,317.8 L 94.8,318.0 L 94.5,318.0 L 94.4,317.9 L 93.9,317.8 L 92.8,318.2 L 92.7,318.5 L 92.4,318.7 L 92.2,319.0 L 92.0,319.0 L 91.5,319.4 L 90.9,319.4 L 90.3,320.7 L 90.3,321.1 L 90.2,321.1 L 89.8,321.0 L 89.8,320.9 L 89.9,320.5 L 90.3,320.1 L 90.5,319.7 L 90.4,319.5 L 90.4,319.1 L 90.1,318.9 L 89.5,318.8 L 89.5,318.5 L 90.2,318.1 L 90.2,317.4 L 89.8,317.3 L 89.5,317.1 L 88.5,316.8 L 88.2,316.5 L 87.8,316.5 L 87.5,316.8 L 87.0,316.8 L 86.9,316.6 L 86.9,316.3 L 86.6,316.1 L 86.2,316.0 L 85.7,315.7 L 85.4,315.6 L 84.8,315.7 L 84.6,315.7 L 84.2,314.5 L 84.9,314.3 L 86.1,313.9 L 86.3,313.7 L 86.5,313.4 L 86.9,313.1 L 88.6,311.9 L 89.4,311.5 L 91.4,310.1 L 91.7,309.6 L 92.1,309.1 L 92.2,308.6 L 92.1,307.9 L 92.1,307.5 L 92.0,307.3 L 92.1,307.1 L 92.1,306.9 L 92.0,306.5 L 91.8,305.5 L 93.1,305.2 L 93.0,305.5 L 93.2,305.8 L 93.5,305.7 L 93.7,305.4 L 94.1,305.2 L 94.3,304.7 L 94.7,304.6 L 95.0,304.7 L 95.8,305.6 L 96.1,305.7 L 96.8,305.7 L 98.1,305.0 L 99.6,304.4 L 101.4,303.3 L 101.9,303.0 L 102.0,302.6 L 102.8,301.8 L 102.6,300.9 L 102.8,300.5 L 102.9,299.7 L 103.0,299.5 L 102.9,298.7 L 102.6,298.1 L 101.7,298.4 L 101.2,298.2 L 100.6,297.4 L 100.4,297.3 L 100.3,297.3 L 100.0,296.8 L 99.9,296.6 L 99.9,296.6 L 100.6,296.8 L 100.9,297.0 L 101.3,297.4 L 101.4,297.8 L 101.5,297.9 L 101.8,297.8 L 102.8,297.7 L 103.0,295.2 L 103.1,294.9 L 103.2,294.1 L 103.4,293.6 L 103.3,293.2 L 103.5,292.5 L 103.7,290.5 L 103.8,290.2 L 103.9,289.0 L 104.0,288.2 L 104.3,287.9 L 104.7,287.0 L 105.0,286.2 L 105.1,285.6 L 105.5,284.4 L 105.7,284.1 L 105.9,283.5 L 105.9,283.0 L 105.8,282.9 L 105.9,282.4 L 106.0,281.6 L 106.3,281.6 L 106.5,280.9 L 106.6,280.1 L 106.8,279.9 L 107.0,279.8 L 107.1,279.4 L 107.2,278.5 L 107.9,276.3 L 108.2,275.7 L 108.2,275.1 L 107.7,275.2 L 107.4,274.9 L 107.5,273.5 L 107.6,272.4 L 107.8,271.6 L 108.0,271.5 L 108.6,271.5 L 108.6,270.8 L 109.0,270.7 L 109.1,270.3 L 109.4,270.3 L 109.6,270.1 L 109.6,269.2 L 109.6,267.8 L 109.6,267.6 L 109.9,266.8 L 109.9,264.9 L 109.8,264.3 L 109.8,263.8 L 109.7,263.5 L 109.7,262.9 L 109.6,262.5 L 109.2,262.4 L 108.9,261.3 L 109.0,261.1 L 108.9,260.8 L 109.1,260.3 L 109.3,260.0 L 109.9,259.9 L 109.8,259.2 L 109.6,258.8 L 109.7,258.5 L 110.1,258.5 L 110.5,258.0 L 110.9,257.2 L 110.9,256.6 L 110.4,256.0 L 109.9,255.7 L 109.6,255.7 L 109.3,255.5 L 109.1,255.1 L 108.6,254.6 L 108.3,254.5 L 107.7,254.2 L 107.8,253.7 L 108.8,252.9 L 108.8,251.3 L 109.1,250.9 L 108.9,250.6 L 109.1,250.2 L 109.3,249.7 L 109.1,249.2 L 109.6,248.4 L 109.9,248.3 L 110.1,248.6 L 110.5,248.4 L 110.7,248.1 L 110.9,247.6 L 110.8,247.3 L 110.5,247.1 L 110.4,247.1 L 110.2,247.4 L 109.9,247.3 L 109.6,246.8 L 109.6,246.3 L 109.6,245.6 L 110.2,245.5 L 110.3,245.3 L 110.6,244.5 L 110.8,244.4 L 111.2,244.3 L 111.1,244.2 L 110.9,244.0 L 111.5,243.4 L 111.8,243.3 L 112.0,242.9 L 112.2,242.7 L 112.4,242.1 L 112.9,241.4 L 113.0,241.0 L 113.3,240.7 L 113.7,240.6 L 114.1,240.0 L 114.8,239.6 L 115.4,238.4 L 116.2,238.2 L 116.9,237.9 L 117.2,237.6 L 117.4,237.4 L 117.6,236.8 L 117.9,236.4 L 117.9,236.1 L 117.7,235.7 L 117.7,234.8 L 117.2,234.4 L 117.2,234.3 L 116.9,234.3 L 116.5,234.2 L 115.7,233.9 L 114.7,233.8 L 114.3,233.5 L 114.2,233.2 L 114.1,233.0 L 114.1,232.5 L 113.5,232.2 L 113.1,232.1 L 113.1,231.4 L 113.3,230.7 L 113.5,230.3 L 114.4,229.8 L 114.6,229.6 L 114.6,228.9 L 115.1,228.6 L 115.2,227.9 L 115.6,227.9 L 115.9,227.7 L 115.9,226.8 L 116.3,226.6 L 116.6,226.3 L 116.8,226.0 L 117.2,225.8 L 117.3,225.7 L 118.4,225.5 L 119.1,225.2 L 119.8,224.8 L 119.8,224.5 L 120.4,224.1 L 120.8,224.4 L 121.1,224.1 L 121.3,224.2 L 121.5,223.8 L 121.6,222.7 L 121.2,222.1 L 121.3,221.5 L 121.1,221.1 L 121.2,221.0 L 121.5,221.1 L 121.7,220.9 L 121.9,220.3 L 121.8,219.7 L 121.7,219.4 L 121.8,218.5 L 121.9,218.0 L 121.9,216.0 L 121.6,215.4 L 121.0,215.1 L 120.9,214.8 L 121.4,214.5 L 121.9,214.1 L 121.8,213.4 L 121.6,213.2 L 121.7,211.6 L 121.3,211.1 L 121.3,210.4 L 121.1,210.0 L 121.1,209.5 L 121.0,209.0 L 120.8,208.6 L 120.2,209.0 L 120.1,209.3 L 120.0,209.5 L 119.2,210.1 L 118.8,210.2 L 119.0,209.5 L 119.2,209.1 L 119.2,209.0 L 118.4,209.0 L 118.1,208.2 L 117.9,208.0 L 117.4,207.4 L 117.2,207.5 L 117.0,207.6 L 116.8,207.8 L 116.7,207.6 L 114.9,195.8 L 115.1,195.7 L 115.5,195.3 L 115.9,195.6 L 116.7,195.6 L 117.2,195.5 L 118.2,195.2 L 119.2,194.7 L 119.8,194.7 L 120.6,194.5 L 121.5,193.8 L 122.1,193.5 L 123.2,192.6 L 123.3,192.3 L 124.3,191.6 L 124.7,191.0 L 125.1,191.1 L 125.7,190.8 L 125.9,190.9 L 126.1,191.4 L 126.3,191.3 L 126.8,190.8 L 126.9,190.5 L 127.1,190.3 L 128.1,190.3 L 128.7,189.9 L 129.3,189.2 L 130.3,188.8 L 130.3,188.5 L 130.7,188.1 L 131.2,187.5 L 131.7,187.4 L 131.8,187.5 L 131.8,187.3 L 131.5,187.1 L 132.0,186.8 L 133.2,186.0 L 133.6,185.7 L 133.6,185.4 L 133.4,185.2 L 133.4,184.7 L 134.1,184.5 L 134.6,184.3 L 134.9,183.8 L 135.0,183.3 L 135.1,182.2 L 134.9,181.8 L 134.2,181.9 L 133.8,182.2 L 133.5,182.2 L 133.4,182.2 L 133.0,182.1 L 131.7,182.1 L 130.8,182.6 L 128.7,182.9" fill="none" stroke="black" stroke-width="2"/>
</svg>