<?xml version="1.0" encoding="UTF-8"?>
<svg width="400" height="400" viewBox="0 0 400 400" xmlns="http://www.w3.org/2000/svg">
  <rect width="400" height="400" fill="white"/>
  <path d="M 78.5,214.0 L 78.9,213.6 L 247.6,40.3 L 247.9,40.0 L 329.8,113.0 L 329.8,113.0 L 329.6,113.2 L 329.2,113.7 L 329.1,114.2 L 329.0,114.4 L 328.5,114.7 L 328.5,114.8 L 328.5,114.9 L 328.8,115.0 L 328.9,115.2 L 328.5,116.1 L 328.2,116.1 L 328.2,116.2 L 328.1,116.4 L 327.6,116.9 L 327.6,117.1 L 327.3,117.4 L 326.9,117.5 L 326.7,117.6 L 326.7,118.3 L 326.8,118.8 L 326.5,119.3 L 326.1,119.7 L 326.1,120.2 L 326.5,120.2 L 326.4,120.4 L 325.8,120.8 L 325.5,121.2 L 325.5,121.5 L 325.3,121.7 L 325.1,122.0 L 324.9,122.2 L 324.9,122.4 L 325.0,122.6 L 324.8,122.7 L 324.8,123.8 L 324.8,124.5 L 324.9,124.6 L 325.4,124.6 L 325.5,124.3 L 325.6,124.1 L 326.3,124.1 L 326.4,124.1 L 326.8,124.4 L 326.8,124.5 L 326.6,124.5 L 326.3,124.5 L 325.7,125.0 L 325.4,124.9 L 325.2,124.9 L 325.0,125.1 L 324.7,125.1 L 324.5,125.2 L 324.4,125.3 L 324.3,125.4 L 324.1,125.5 L 324.0,125.9 L 323.9,126.5 L 323.4,127.2 L 323.5,127.5 L 323.3,127.7 L 323.4,127.8 L 323.9,127.9 L 324.1,127.9 L 324.1,128.1 L 324.0,128.2 L 324.0,128.4 L 323.7,128.6 L 323.6,128.8 L 323.5,129.0 L 323.5,129.3 L 323.3,129.5 L 323.3,129.8 L 323.6,130.4 L 323.7,130.5 L 324.1,131.3 L 324.2,131.6 L 323.9,132.4 L 323.9,133.3 L 324.0,133.5 L 324.2,133.5 L 324.6,133.3 L 324.9,133.3 L 325.0,133.5 L 325.0,133.7 L 325.0,133.9 L 324.7,134.0 L 324.3,134.5 L 324.2,134.4 L 323.8,134.0 L 323.7,133.9 L 323.6,134.0 L 323.2,133.5 L 323.0,133.7 L 322.8,133.6 L 322.4,133.6 L 322.1,133.8 L 322.0,133.1 L 321.8,132.7 L 321.7,132.0 L 321.7,131.5 L 321.6,130.4 L 321.5,129.7 L 321.4,129.1 L 321.4,128.8 L 321.8,128.2 L 321.9,127.0 L 322.0,126.8 L 321.8,126.5 L 321.6,126.5 L 321.4,126.2 L 321.2,126.3 L 320.5,126.3 L 320.4,126.5 L 319.4,126.8 L 318.5,127.0 L 318.2,127.1 L 317.6,127.3 L 317.3,127.5 L 317.0,127.5 L 316.5,127.7 L 316.3,127.9 L 316.0,128.1 L 315.7,128.2 L 315.5,128.2 L 315.1,128.1 L 314.8,128.0 L 314.5,128.2 L 313.6,128.2 L 313.3,128.3 L 313.2,128.6 L 313.1,128.6 L 313.0,128.5 L 313.0,128.2 L 312.8,128.1 L 312.3,128.0 L 312.0,128.1 L 311.6,128.3 L 311.4,128.2 L 310.9,128.2 L 309.6,128.4 L 309.4,128.7 L 309.1,128.7 L 308.8,128.8 L 308.7,129.0 L 308.6,129.7 L 308.6,129.7 L 308.3,129.7 L 308.1,129.9 L 308.1,130.0 L 308.3,130.3 L 308.3,131.1 L 308.2,131.5 L 308.1,132.1 L 308.2,132.4 L 308.2,133.1 L 308.1,133.4 L 307.8,133.6 L 307.8,133.8 L 307.7,134.4 L 307.5,134.8 L 307.2,135.0 L 306.9,135.0 L 306.7,134.8 L 306.4,134.7 L 305.8,134.7 L 305.6,134.9 L 305.3,135.3 L 305.2,135.7 L 304.9,136.0 L 304.5,136.6 L 304.5,137.0 L 304.6,137.6 L 304.4,137.9 L 304.4,138.7 L 304.9,138.7 L 305.0,139.0 L 304.9,139.2 L 304.9,140.1 L 305.0,140.5 L 304.7,141.0 L 304.5,141.2 L 304.2,141.3 L 304.2,141.8 L 304.5,142.2 L 304.7,142.5 L 304.7,142.8 L 304.8,143.4 L 305.4,144.3 L 305.9,144.7 L 306.4,144.8 L 306.6,145.0 L 306.5,145.9 L 305.6,145.9 L 305.5,146.0 L 305.6,146.2 L 306.3,146.7 L 306.3,146.8 L 306.1,147.1 L 305.9,147.2 L 305.6,147.0 L 305.3,147.0 L 304.9,147.0 L 304.9,147.1 L 305.0,147.4 L 304.9,147.5 L 304.6,147.6 L 304.6,147.8 L 305.8,148.1 L 305.9,148.2 L 305.6,148.3 L 304.9,148.3 L 303.8,148.5 L 303.8,148.7 L 304.1,149.0 L 304.3,149.1 L 304.5,149.4 L 304.6,149.9 L 303.9,150.8 L 303.7,150.8 L 303.3,150.9 L 303.2,150.8 L 302.8,150.8 L 302.7,151.0 L 302.6,151.2 L 302.0,151.3 L 302.0,151.1 L 302.1,150.7 L 302.0,150.5 L 301.7,150.5 L 301.6,150.8 L 301.4,151.0 L 301.3,151.3 L 301.2,151.6 L 301.0,152.1 L 301.1,152.2 L 301.2,152.7 L 301.4,152.8 L 302.2,152.9 L 302.4,152.8 L 302.5,152.9 L 302.5,153.4 L 302.8,153.4 L 303.1,153.2 L 303.5,153.3 L 303.6,153.4 L 304.2,153.4 L 304.6,153.1 L 305.2,153.2 L 305.5,153.3 L 305.9,153.6 L 305.9,153.7 L 305.7,154.1 L 305.7,154.6 L 305.8,154.8 L 305.9,155.0 L 306.1,155.0 L 306.4,155.2 L 307.0,155.4 L 307.0,155.9 L 306.9,156.1 L 306.1,156.1 L 305.7,156.5 L 305.5,156.8 L 305.4,157.4 L 304.7,158.1 L 304.5,158.5 L 304.4,159.0 L 304.7,159.2 L 305.4,159.2 L 306.5,159.1 L 307.0,158.9 L 307.2,158.8 L 308.0,158.9 L 308.2,158.7 L 308.5,158.7 L 308.7,158.8 L 309.4,158.9 L 309.8,158.8 L 310.1,158.8 L 310.2,158.9 L 310.0,159.0 L 309.7,159.3 L 309.9,159.5 L 309.8,159.6 L 309.0,159.6 L 308.1,159.7 L 307.8,159.6 L 307.1,159.7 L 306.9,159.9 L 306.7,160.3 L 306.5,160.3 L 306.4,160.2 L 305.8,160.6 L 305.8,160.9 L 306.3,161.0 L 306.7,161.3 L 306.9,161.3 L 307.5,161.0 L 308.2,160.7 L 308.3,160.5 L 309.1,160.2 L 309.6,160.2 L 310.3,159.8 L 310.4,159.7 L 310.7,159.4 L 311.0,159.4 L 311.5,159.2 L 312.0,158.9 L 312.5,158.6 L 312.9,158.6 L 313.1,158.7 L 313.5,158.6 L 314.6,158.6 L 314.6,158.7 L 314.7,158.8 L 315.1,158.8 L 315.2,158.6 L 315.6,159.1 L 315.4,159.3 L 315.3,159.3 L 315.1,159.2 L 314.7,159.2 L 314.3,159.7 L 314.0,159.8 L 313.7,159.9 L 313.5,159.8 L 313.2,160.1 L 312.7,160.3 L 312.5,160.7 L 312.3,160.7 L 312.0,160.6 L 312.0,160.6 L 311.8,160.4 L 311.3,160.4 L 311.2,160.5 L 310.9,160.9 L 310.9,161.3 L 311.0,161.6 L 310.9,162.4 L 310.9,162.6 L 310.9,162.7 L 311.2,162.7 L 311.7,162.7 L 312.0,162.5 L 312.0,162.4 L 312.5,162.0 L 312.6,161.5 L 313.9,161.2 L 314.1,161.1 L 314.2,161.3 L 314.2,161.7 L 314.9,161.9 L 315.5,161.7 L 315.9,162.0 L 316.5,162.1 L 316.8,162.2 L 317.3,162.1 L 317.4,162.2 L 317.6,162.1 L 317.6,162.0 L 318.1,161.7 L 318.3,161.4 L 318.5,161.5 L 318.8,161.8 L 319.0,162.3 L 319.2,163.0 L 319.2,163.2 L 318.9,163.4 L 318.9,163.7 L 319.1,163.8 L 319.4,163.8 L 319.6,163.6 L 319.7,163.6 L 319.9,163.8 L 320.1,164.1 L 320.2,165.1 L 320.1,165.2 L 319.5,165.1 L 319.2,164.7 L 318.9,164.7 L 318.7,164.8 L 318.6,165.1 L 318.7,165.3 L 319.1,166.0 L 319.3,166.0 L 319.4,166.2 L 319.4,166.4 L 319.6,166.6 L 319.9,166.8 L 320.0,166.8 L 320.2,166.7 L 320.3,166.7 L 320.5,166.3 L 320.7,166.0 L 321.0,166.0 L 321.3,166.2 L 321.8,166.7 L 322.1,166.9 L 322.0,167.4 L 321.8,167.5 L 321.7,167.7 L 321.8,167.9 L 321.8,168.0 L 321.6,168.6 L 321.5,169.0 L 321.4,169.4 L 321.2,170.1 L 321.0,170.5 L 320.9,171.0 L 320.7,171.5 L 320.5,171.9 L 320.1,172.0 L 320.1,171.8 L 320.2,171.5 L 320.1,171.3 L 320.0,171.3 L 320.0,171.0 L 319.7,170.9 L 319.4,171.0 L 319.1,170.9 L 318.8,170.8 L 318.0,170.1 L 317.8,169.9 L 317.5,169.7 L 317.3,169.1 L 317.1,168.8 L 317.0,168.7 L 316.6,168.4 L 316.0,168.0 L 315.6,167.6 L 315.4,167.3 L 314.8,166.3 L 314.4,166.1 L 313.7,166.1 L 313.0,166.3 L 312.8,166.2 L 312.5,166.1 L 312.2,166.3 L 312.0,166.3 L 311.7,166.2 L 311.7,166.0 L 311.6,165.9 L 311.4,166.0 L 311.2,166.6 L 311.1,167.1 L 311.2,167.3 L 311.4,168.0 L 311.6,168.1 L 312.0,168.3 L 312.1,168.4 L 312.2,168.5 L 312.0,168.8 L 312.0,168.8 L 311.0,168.9 L 310.8,169.0 L 310.6,169.0 L 310.3,169.2 L 310.1,169.2 L 309.9,169.5 L 309.7,170.2 L 309.8,171.0 L 309.7,171.8 L 309.4,172.1 L 308.7,172.4 L 308.4,172.8 L 308.4,173.2 L 308.5,173.6 L 308.7,173.7 L 309.8,173.8 L 310.1,174.1 L 310.0,174.2 L 309.9,174.4 L 309.8,174.9 L 309.6,175.6 L 309.7,175.8 L 309.8,176.0 L 309.4,176.3 L 309.4,176.6 L 309.6,176.7 L 310.2,177.2 L 310.7,177.2 L 311.0,177.4 L 312.0,177.5 L 312.3,177.5 L 312.6,177.6 L 313.4,177.6 L 314.2,177.4 L 315.0,177.4 L 315.9,177.1 L 318.0,176.6 L 318.8,176.3 L 319.3,176.2 L 319.6,178.0 L 319.4,178.0 L 318.8,178.5 L 318.3,178.6 L 318.0,178.7 L 316.9,178.8 L 316.4,179.0 L 316.2,179.0 L 315.9,179.1 L 315.4,179.2 L 315.3,179.2 L 314.8,179.4 L 314.1,179.8 L 313.7,180.5 L 313.6,181.1 L 313.9,181.3 L 314.2,181.3 L 314.4,181.0 L 314.9,180.9 L 315.3,181.2 L 315.6,181.1 L 316.5,180.8 L 317.1,180.8 L 317.7,180.6 L 318.0,180.8 L 318.4,180.7 L 318.8,180.5 L 319.1,180.3 L 319.5,180.3 L 320.0,180.3 L 320.1,180.3 L 320.1,180.4 L 319.9,180.6 L 319.5,180.6 L 318.9,180.9 L 318.4,181.0 L 317.6,181.4 L 317.3,181.4 L 316.7,181.3 L 316.3,181.5 L 315.7,182.0 L 315.3,182.1 L 314.6,182.3 L 314.0,182.8 L 313.7,182.9 L 313.0,183.4 L 312.0,184.0 L 311.6,184.2 L 311.6,184.7 L 311.3,184.9 L 311.2,185.1 L 310.9,185.6 L 310.6,185.7 L 310.3,185.7 L 310.2,185.6 L 310.3,185.5 L 310.6,185.2 L 310.6,184.9 L 310.3,184.9 L 309.5,185.1 L 309.2,185.4 L 309.1,185.8 L 308.8,185.8 L 308.7,185.4 L 307.8,185.3 L 307.5,185.4 L 307.1,185.6 L 307.1,186.0 L 307.2,186.1 L 307.0,186.4 L 307.0,186.7 L 307.1,186.8 L 307.2,186.8 L 307.3,186.7 L 307.5,186.8 L 308.5,186.6 L 308.6,186.7 L 308.6,186.7 L 308.5,186.9 L 308.9,186.9 L 309.3,186.7 L 309.9,186.6 L 309.9,186.3 L 310.2,186.2 L 310.5,186.2 L 310.5,186.5 L 310.5,186.5 L 311.7,194.3 L 311.8,194.4 L 311.6,194.5 L 311.4,194.5 L 310.8,194.6 L 310.6,194.7 L 310.6,194.7 L 310.4,194.8 L 310.3,194.7 L 310.2,194.7 L 310.1,194.9 L 309.7,194.9 L 309.5,195.0 L 309.4,195.2 L 309.5,195.4 L 309.5,195.5 L 309.4,195.7 L 309.2,195.7 L 308.9,195.9 L 308.5,196.4 L 308.2,196.4 L 308.2,196.0 L 307.8,196.0 L 307.6,196.1 L 307.7,196.4 L 307.5,196.5 L 306.9,196.6 L 306.7,196.7 L 306.7,197.1 L 306.8,197.3 L 306.8,197.7 L 306.9,197.8 L 307.2,197.8 L 307.3,197.6 L 307.3,197.5 L 307.6,197.2 L 308.8,197.2 L 309.1,197.5 L 309.2,197.6 L 309.2,197.8 L 309.4,198.2 L 309.3,198.2 L 309.0,198.6 L 308.8,198.6 L 308.8,199.1 L 309.0,199.3 L 308.9,199.4 L 308.7,199.5 L 308.5,199.4 L 308.0,199.3 L 307.8,199.1 L 307.1,199.1 L 306.9,198.9 L 306.9,198.8 L 306.6,198.5 L 306.3,198.3 L 306.0,198.5 L 305.6,198.8 L 305.4,198.9 L 305.1,198.9 L 304.8,199.3 L 304.8,200.1 L 304.7,200.3 L 304.7,200.6 L 304.5,200.7 L 304.4,200.6 L 304.4,200.2 L 304.3,200.0 L 304.3,199.8 L 304.2,199.7 L 303.9,200.0 L 303.8,200.3 L 303.5,200.3 L 303.5,200.2 L 303.6,200.1 L 303.9,199.6 L 304.0,199.5 L 304.0,198.7 L 304.3,198.4 L 304.5,198.2 L 304.7,198.1 L 304.8,198.0 L 305.1,197.6 L 305.5,197.3 L 305.7,197.1 L 305.7,197.0 L 305.8,196.7 L 305.9,196.2 L 305.8,196.0 L 305.7,195.9 L 305.4,195.6 L 305.2,195.6 L 305.1,195.4 L 305.3,195.3 L 305.3,195.2 L 305.2,195.0 L 303.4,194.9 L 303.0,195.0 L 302.5,195.0 L 302.3,195.2 L 301.6,195.4 L 300.8,196.0 L 300.1,196.2 L 299.6,196.4 L 298.9,196.6 L 297.5,196.8 L 297.4,196.7 L 297.1,196.7 L 296.8,196.7 L 296.5,196.9 L 296.4,197.2 L 296.6,197.8 L 296.5,197.9 L 296.2,198.1 L 295.0,198.0 L 294.9,198.2 L 294.7,198.0 L 294.8,197.7 L 294.9,197.4 L 295.0,197.2 L 295.0,197.0 L 295.1,196.8 L 294.8,196.6 L 294.5,196.5 L 293.4,196.5 L 292.9,196.2 L 292.3,196.2 L 292.0,196.3 L 292.0,196.5 L 291.8,196.7 L 291.2,196.8 L 290.8,197.2 L 290.4,197.3 L 289.8,197.9 L 289.3,198.1 L 289.0,198.1 L 288.8,198.3 L 288.6,198.6 L 288.6,199.0 L 288.4,199.3 L 288.1,199.5 L 287.9,199.7 L 287.8,200.1 L 286.8,200.6 L 286.8,201.1 L 286.3,201.6 L 286.2,202.0 L 286.3,202.4 L 286.2,202.8 L 286.0,203.1 L 286.0,203.4 L 285.9,203.5 L 285.8,203.5 L 285.3,203.6 L 285.1,204.0 L 284.6,204.7 L 284.3,205.0 L 283.9,205.2 L 283.4,205.5 L 282.0,206.3 L 281.6,206.7 L 281.7,206.9 L 281.7,207.9 L 281.9,208.0 L 282.7,208.0 L 283.6,207.9 L 284.5,207.5 L 284.9,207.2 L 285.3,206.7 L 285.2,206.6 L 285.1,206.3 L 285.1,206.0 L 285.2,205.8 L 285.5,205.2 L 285.9,205.2 L 286.0,205.3 L 285.9,205.7 L 285.9,206.1 L 285.9,206.4 L 286.2,206.5 L 286.5,206.7 L 287.4,206.9 L 287.6,207.0 L 287.7,207.4 L 287.6,207.7 L 287.3,208.0 L 286.7,208.5 L 285.8,208.9 L 285.9,209.3 L 285.7,209.5 L 285.5,209.6 L 285.5,209.5 L 285.6,209.3 L 285.5,209.2 L 284.9,209.5 L 284.8,209.5 L 284.3,209.7 L 283.9,210.0 L 283.9,210.3 L 283.8,210.4 L 283.7,210.2 L 283.3,210.2 L 283.0,210.4 L 283.0,210.7 L 282.9,210.9 L 282.5,211.1 L 281.9,211.7 L 281.6,211.8 L 281.0,212.2 L 280.6,212.4 L 280.2,212.8 L 280.1,213.1 L 280.0,213.3 L 279.9,214.1 L 279.4,214.8 L 278.9,215.2 L 278.9,215.3 L 278.7,215.6 L 278.1,216.6 L 278.1,217.0 L 277.9,217.1 L 277.8,217.0 L 277.5,217.0 L 277.1,217.4 L 277.0,217.7 L 277.0,218.1 L 277.2,218.3 L 277.5,218.2 L 277.7,218.0 L 277.8,217.7 L 278.0,217.8 L 278.0,217.9 L 278.3,218.3 L 278.5,218.3 L 279.0,217.9 L 279.3,217.9 L 279.7,217.7 L 280.2,217.7 L 281.5,217.2 L 281.8,216.9 L 282.4,216.8 L 283.9,216.4 L 284.1,216.1 L 284.5,215.6 L 284.7,215.1 L 285.0,214.4 L 285.1,213.9 L 285.3,213.7 L 285.4,213.3 L 285.7,213.0 L 285.8,212.6 L 285.7,212.5 L 285.5,212.5 L 285.4,212.2 L 285.3,212.0 L 285.3,211.8 L 285.5,211.4 L 285.8,211.1 L 286.0,211.0 L 286.2,210.8 L 286.4,210.5 L 286.4,210.0 L 286.5,209.9 L 287.1,209.8 L 287.4,209.6 L 287.7,209.4 L 287.9,209.1 L 288.0,208.4 L 288.5,208.0 L 289.0,207.9 L 289.4,207.9 L 289.4,208.3 L 288.9,209.0 L 288.2,210.2 L 287.2,211.0 L 286.9,211.4 L 286.8,211.7 L 286.8,212.4 L 286.8,212.8 L 286.5,213.4 L 286.3,213.6 L 286.2,213.9 L 285.9,214.6 L 286.0,215.0 L 286.1,215.1 L 286.9,215.2 L 287.6,215.2 L 288.0,214.8 L 288.2,214.9 L 288.3,214.7 L 288.7,214.6 L 289.0,214.7 L 288.7,214.9 L 288.7,215.0 L 288.5,215.1 L 288.4,215.0 L 288.0,215.2 L 287.9,215.4 L 287.8,215.4 L 287.6,215.6 L 287.3,216.3 L 286.8,216.8 L 286.6,217.0 L 286.3,217.2 L 285.9,217.7 L 285.7,217.9 L 285.3,217.9 L 285.2,217.8 L 285.1,217.5 L 285.0,217.1 L 284.8,217.1 L 284.3,217.7 L 283.3,218.1 L 283.0,218.2 L 282.4,218.5 L 281.6,219.2 L 281.2,219.3 L 280.7,219.5 L 280.5,219.6 L 280.4,219.8 L 280.5,220.1 L 280.7,220.5 L 280.7,220.7 L 280.4,220.9 L 279.9,220.9 L 279.1,221.2 L 278.6,221.3 L 278.2,221.6 L 277.3,222.1 L 276.4,222.4 L 276.1,223.3 L 276.1,223.7 L 276.4,224.6 L 276.5,226.0 L 276.3,226.3 L 275.9,227.0 L 275.5,228.0 L 275.4,228.4 L 275.0,228.9 L 275.0,229.4 L 274.9,229.8 L 274.4,230.3 L 274.4,230.6 L 274.6,230.5 L 274.8,230.7 L 274.7,230.9 L 274.5,230.9 L 274.4,230.9 L 274.2,231.2 L 274.2,231.8 L 274.3,232.0 L 274.7,232.0 L 275.0,231.7 L 275.8,231.3 L 276.0,231.0 L 276.2,230.8 L 276.4,230.8 L 276.8,230.2 L 277.1,230.2 L 277.6,229.6 L 277.8,229.2 L 278.1,228.9 L 278.4,228.9 L 278.6,228.7 L 278.9,228.6 L 279.3,228.3 L 279.4,228.3 L 279.4,228.5 L 279.3,228.7 L 278.2,229.4 L 277.9,229.8 L 277.8,230.2 L 278.0,230.5 L 278.2,230.6 L 278.4,230.6 L 278.6,230.5 L 279.0,230.5 L 279.5,230.2 L 280.0,229.4 L 280.2,229.4 L 280.2,229.5 L 280.2,229.8 L 280.9,229.9 L 281.2,229.8 L 281.9,229.8 L 282.4,229.6 L 282.7,229.3 L 283.3,229.2 L 283.6,229.0 L 284.7,228.7 L 285.1,228.4 L 285.4,228.2 L 285.4,228.0 L 285.8,227.8 L 285.9,227.6 L 286.2,227.5 L 286.7,227.5 L 286.8,227.4 L 287.0,227.5 L 287.1,227.5 L 287.0,227.4 L 287.0,227.2 L 287.4,226.6 L 287.3,226.3 L 287.3,226.0 L 287.5,225.9 L 287.9,226.1 L 288.3,226.3 L 288.6,226.4 L 289.0,226.4 L 289.6,226.0 L 289.7,226.0 L 289.1,226.8 L 289.1,227.2 L 289.3,227.5 L 289.4,227.7 L 289.5,227.6 L 289.6,227.5 L 289.9,227.4 L 290.1,227.5 L 290.5,227.6 L 291.0,227.6 L 291.2,227.5 L 292.0,227.2 L 292.0,227.3 L 291.9,227.5 L 291.3,228.2 L 291.1,228.6 L 290.5,229.3 L 290.0,229.9 L 289.1,230.8 L 288.8,230.9 L 288.5,231.0 L 288.3,230.5 L 288.2,230.4 L 287.6,230.0 L 287.4,229.8 L 287.3,229.7 L 287.2,229.9 L 286.7,230.1 L 285.8,230.3 L 285.2,230.3 L 285.0,230.4 L 284.0,230.4 L 283.9,230.3 L 283.7,230.3 L 283.2,230.6 L 282.9,230.8 L 282.7,230.9 L 282.4,230.8 L 282.2,230.9 L 281.8,230.9 L 281.4,231.1 L 281.1,231.2 L 281.0,231.1 L 280.7,231.2 L 280.0,231.6 L 279.8,232.0 L 279.6,232.0 L 279.5,231.9 L 279.2,232.0 L 278.8,232.4 L 278.7,232.6 L 278.1,233.0 L 277.5,233.3 L 277.2,233.3 L 277.1,233.2 L 276.7,233.3 L 276.7,233.4 L 276.9,233.6 L 276.7,233.7 L 276.7,233.8 L 276.8,233.9 L 276.8,234.0 L 276.8,234.0 L 276.6,234.3 L 276.5,234.7 L 276.7,234.9 L 276.6,235.2 L 276.5,235.9 L 276.5,236.1 L 276.4,236.5 L 276.5,237.0 L 276.4,237.1 L 276.3,236.9 L 276.2,236.8 L 276.2,235.0 L 276.1,234.9 L 276.0,235.0 L 275.9,235.0 L 275.8,234.8 L 275.7,234.8 L 275.4,234.9 L 274.9,235.3 L 274.6,235.7 L 274.5,236.3 L 274.4,236.3 L 274.2,235.8 L 274.1,235.8 L 274.1,236.1 L 273.9,236.4 L 273.7,236.5 L 273.6,236.1 L 273.1,236.0 L 273.0,235.8 L 272.8,235.7 L 272.8,235.7 L 272.7,235.8 L 272.6,236.0 L 271.9,236.4 L 271.8,236.5 L 271.6,236.9 L 271.5,237.1 L 271.6,237.9 L 271.6,238.0 L 272.4,238.1 L 272.6,238.0 L 272.8,238.1 L 273.0,238.1 L 273.2,238.0 L 273.6,238.1 L 273.9,238.1 L 274.0,238.2 L 273.4,238.5 L 273.0,238.6 L 272.8,238.6 L 272.6,238.5 L 272.1,238.6 L 271.9,238.7 L 271.8,239.5 L 271.6,240.0 L 271.7,240.4 L 271.7,240.4 L 271.6,240.9 L 271.9,241.8 L 272.1,242.1 L 272.3,242.6 L 272.5,242.8 L 272.7,242.9 L 272.8,242.9 L 273.0,243.3 L 273.5,244.0 L 273.7,244.0 L 274.0,243.7 L 274.3,243.6 L 274.9,243.3 L 275.6,242.9 L 275.6,242.5 L 275.4,242.2 L 275.5,241.8 L 275.6,241.8 L 275.9,241.7 L 276.0,241.7 L 276.0,241.9 L 276.3,242.1 L 276.5,242.0 L 277.0,241.8 L 277.1,241.7 L 276.9,241.1 L 276.6,240.8 L 276.7,240.4 L 276.8,240.3 L 277.1,240.3 L 277.0,240.9 L 277.5,241.6 L 277.8,241.5 L 278.3,241.3 L 278.8,241.2 L 280.0,240.8 L 280.8,240.4 L 281.8,239.6 L 282.0,239.6 L 282.0,239.7 L 281.7,240.2 L 280.9,241.0 L 280.4,241.3 L 280.1,241.2 L 279.5,241.4 L 278.7,241.9 L 278.3,242.0 L 277.3,242.4 L 276.6,243.4 L 276.4,243.6 L 276.3,244.0 L 276.1,244.5 L 276.0,245.5 L 276.2,245.7 L 276.3,245.7 L 276.8,245.4 L 276.9,245.5 L 276.9,245.7 L 276.3,246.0 L 275.8,246.7 L 275.5,247.3 L 275.4,248.0 L 275.6,248.5 L 275.8,248.7 L 276.5,250.4 L 277.2,251.1 L 277.6,251.1 L 277.4,251.5 L 277.5,251.7 L 277.6,251.9 L 277.9,252.0 L 278.8,252.0 L 279.3,251.7 L 279.4,251.6 L 279.5,251.3 L 279.6,250.5 L 279.8,250.3 L 280.0,250.2 L 280.1,250.1 L 280.2,250.2 L 280.2,250.9 L 280.0,251.2 L 279.8,251.6 L 279.7,251.9 L 279.8,252.0 L 280.3,252.2 L 280.7,252.2 L 281.1,251.9 L 281.4,251.5 L 281.4,251.3 L 281.7,251.0 L 281.9,250.6 L 281.9,250.2 L 282.1,250.0 L 282.2,249.1 L 282.3,249.0 L 282.8,249.1 L 282.8,249.2 L 282.7,249.6 L 282.6,250.0 L 283.0,250.0 L 283.3,250.1 L 283.6,250.1 L 283.9,249.8 L 284.2,249.6 L 284.4,249.2 L 284.8,248.8 L 284.9,248.7 L 284.9,249.1 L 284.6,249.7 L 284.4,250.1 L 284.2,250.4 L 283.7,251.0 L 283.6,252.1 L 283.7,252.2 L 284.0,252.3 L 284.8,252.3 L 285.1,252.1 L 285.3,251.8 L 285.6,251.6 L 285.9,251.6 L 286.0,251.7 L 286.1,251.8 L 286.3,251.8 L 286.5,251.6 L 286.6,251.4 L 286.8,251.3 L 287.2,251.1 L 287.2,250.9 L 287.4,250.8 L 287.5,250.9 L 287.4,251.0 L 287.2,251.2 L 286.9,251.5 L 286.9,252.2 L 287.2,252.4 L 287.5,252.4 L 288.1,252.3 L 288.7,252.1 L 289.0,252.3 L 290.2,252.4 L 290.4,252.3 L 291.0,252.3 L 291.3,252.0 L 291.4,251.6 L 291.5,251.5 L 292.0,251.5 L 292.0,251.0 L 292.3,250.8 L 292.2,251.3 L 292.3,251.4 L 292.5,251.2 L 292.7,251.6 L 292.7,251.8 L 292.4,252.4 L 292.4,252.6 L 292.8,253.1 L 293.3,253.0 L 293.7,253.1 L 293.9,253.3 L 294.1,253.4 L 294.5,253.4 L 294.7,253.6 L 294.9,253.7 L 295.2,253.7 L 295.4,253.7 L 295.7,253.8 L 295.9,254.0 L 296.2,254.1 L 296.6,254.0 L 296.8,254.1 L 297.3,254.1 L 297.5,254.2 L 297.8,254.2 L 297.8,253.7 L 298.1,253.5 L 298.4,253.5 L 298.6,253.7 L 298.7,253.7 L 298.8,253.5 L 298.8,253.3 L 299.1,253.0 L 299.4,253.0 L 300.3,252.9 L 300.6,252.9 L 300.7,253.0 L 300.9,253.4 L 300.6,253.5 L 300.2,253.9 L 300.0,254.2 L 299.9,254.4 L 299.7,254.7 L 299.4,254.8 L 299.2,255.0 L 298.9,255.7 L 298.7,255.7 L 298.2,255.1 L 297.5,255.1 L 297.3,255.1 L 296.8,255.1 L 296.4,255.1 L 296.3,255.3 L 296.2,255.6 L 296.4,255.8 L 296.5,256.1 L 296.5,256.4 L 296.3,256.7 L 296.3,257.3 L 296.3,257.8 L 296.5,258.0 L 296.7,258.1 L 296.6,258.3 L 296.4,258.2 L 296.3,258.3 L 296.2,258.5 L 296.2,258.6 L 295.3,258.8 L 295.3,258.4 L 295.5,258.2 L 295.4,257.6 L 294.6,257.5 L 294.3,257.0 L 294.1,256.7 L 293.8,256.7 L 293.5,256.8 L 293.2,256.8 L 293.0,256.4 L 293.0,256.0 L 292.9,255.7 L 292.7,255.4 L 292.8,255.2 L 292.8,254.9 L 292.7,254.9 L 292.4,254.8 L 292.2,254.6 L 292.2,254.3 L 292.1,254.2 L 292.0,253.9 L 291.8,253.7 L 290.9,253.5 L 290.3,253.8 L 290.2,253.8 L 289.9,253.6 L 289.0,253.5 L 288.3,253.7 L 287.4,253.6 L 287.4,253.7 L 286.5,253.7 L 285.9,253.8 L 285.4,254.3 L 285.1,254.3 L 285.0,254.3 L 285.1,254.6 L 285.0,254.8 L 284.7,254.8 L 284.5,254.5 L 284.2,254.2 L 283.8,254.0 L 283.6,254.1 L 283.5,254.3 L 283.5,254.3 L 283.3,254.2 L 282.7,254.2 L 282.4,254.3 L 281.7,254.4 L 281.6,254.5 L 281.2,254.5 L 281.0,254.7 L 280.8,254.8 L 280.7,254.6 L 280.5,254.7 L 280.4,254.8 L 280.4,255.0 L 280.5,254.9 L 280.6,255.2 L 280.1,256.8 L 280.0,257.1 L 280.2,257.8 L 280.4,257.9 L 280.5,258.0 L 280.7,258.2 L 280.8,258.4 L 280.9,258.8 L 281.1,259.0 L 281.7,259.0 L 282.0,258.8 L 282.2,258.7 L 282.9,258.3 L 283.2,258.5 L 283.2,258.6 L 283.2,258.8 L 283.0,259.2 L 282.6,259.1 L 282.4,258.9 L 282.1,259.2 L 281.8,259.4 L 281.8,259.9 L 282.0,260.3 L 282.2,260.4 L 282.3,260.6 L 283.1,261.5 L 283.3,261.6 L 283.5,261.5 L 283.8,261.4 L 284.2,261.4 L 284.5,261.7 L 284.8,261.6 L 285.0,261.6 L 285.1,261.5 L 285.4,261.5 L 285.4,261.6 L 285.2,261.6 L 284.3,261.8 L 284.2,261.9 L 283.9,262.0 L 283.6,261.8 L 283.0,261.8 L 283.1,262.4 L 283.3,262.6 L 283.4,262.6 L 283.6,262.4 L 283.7,262.5 L 283.7,263.3 L 284.0,263.8 L 284.8,264.5 L 285.2,264.4 L 285.4,264.5 L 285.7,265.0 L 285.9,265.0 L 286.2,265.2 L 286.7,265.2 L 287.0,265.5 L 287.4,265.6 L 287.9,265.6 L 288.4,265.5 L 289.1,265.1 L 290.2,264.7 L 290.3,264.7 L 290.6,265.5 L 289.7,266.0 L 289.4,266.3 L 289.3,266.2 L 289.0,266.3 L 288.6,266.6 L 288.4,267.0 L 288.3,267.7 L 288.3,268.0 L 288.7,268.3 L 289.0,268.4 L 289.7,268.2 L 290.2,268.2 L 290.5,268.3 L 290.5,268.4 L 290.4,268.5 L 290.0,268.5 L 289.9,268.6 L 289.8,268.8 L 289.9,269.0 L 290.1,269.0 L 290.2,269.1 L 290.4,269.2 L 290.5,269.1 L 290.7,269.3 L 290.9,269.2 L 291.4,269.4 L 291.7,269.6 L 292.3,269.7 L 292.8,269.5 L 293.3,269.8 L 293.6,269.7 L 293.7,269.6 L 294.0,269.0 L 294.3,269.0 L 294.3,269.0 L 294.3,269.5 L 294.4,269.6 L 294.8,269.6 L 294.5,270.4 L 294.5,270.9 L 295.7,270.9 L 296.1,270.8 L 296.5,270.6 L 296.7,270.3 L 296.9,269.9 L 302.1,274.9 L 302.2,274.9 L 302.1,275.2 L 301.9,275.7 L 301.7,276.3 L 301.6,276.5 L 301.3,276.5 L 301.3,276.9 L 301.3,277.4 L 301.7,277.4 L 301.7,277.5 L 302.2,278.0 L 302.4,278.1 L 302.4,278.2 L 302.2,278.3 L 301.9,278.3 L 302.0,278.2 L 301.9,277.9 L 301.4,278.1 L 301.0,277.9 L 300.8,277.7 L 300.6,277.7 L 300.5,277.8 L 300.3,277.6 L 300.1,277.5 L 300.2,277.4 L 300.3,277.3 L 300.4,276.9 L 300.4,276.7 L 300.2,276.6 L 300.0,276.8 L 300.0,276.4 L 299.7,276.2 L 299.0,276.1 L 298.6,276.3 L 298.1,276.8 L 298.0,277.1 L 298.1,277.2 L 299.0,277.3 L 299.2,277.4 L 299.7,277.3 L 299.8,277.3 L 299.9,277.5 L 299.6,277.8 L 299.5,277.9 L 299.4,277.6 L 298.6,277.6 L 298.1,277.8 L 297.8,278.0 L 297.0,278.2 L 296.9,278.5 L 296.8,278.8 L 296.7,279.4 L 297.1,279.7 L 296.6,280.0 L 296.4,280.3 L 296.3,280.8 L 296.2,281.1 L 296.2,281.4 L 295.6,282.3 L 295.3,282.9 L 294.9,283.5 L 294.6,283.8 L 294.7,284.2 L 294.6,284.4 L 294.5,284.4 L 294.2,284.1 L 294.2,284.1 L 294.1,284.3 L 294.0,284.4 L 293.8,284.3 L 293.7,284.2 L 293.6,283.9 L 293.5,283.8 L 293.4,283.8 L 293.2,284.4 L 293.1,284.5 L 293.0,284.3 L 292.9,284.3 L 292.7,284.8 L 292.6,284.8 L 292.4,284.7 L 292.2,284.9 L 292.0,285.5 L 291.9,285.6 L 291.8,285.4 L 291.8,285.4 L 291.9,284.8 L 291.7,284.7 L 291.5,285.3 L 291.5,285.4 L 291.1,285.6 L 291.0,285.7 L 290.7,285.3 L 290.4,285.5 L 290.3,285.5 L 290.2,285.7 L 289.6,286.0 L 289.2,286.4 L 288.6,287.0 L 288.6,287.2 L 288.9,287.4 L 288.8,287.6 L 288.6,287.8 L 288.1,287.8 L 287.0,288.4 L 286.3,288.4 L 285.9,288.5 L 285.2,288.6 L 284.6,289.0 L 284.0,289.5 L 283.6,289.8 L 283.2,289.9 L 281.8,290.9 L 281.4,291.1 L 281.0,291.7 L 280.6,292.0 L 280.2,292.6 L 279.5,293.1 L 279.3,293.2 L 279.2,293.5 L 279.1,294.3 L 278.8,294.8 L 278.5,295.1 L 278.2,295.8 L 277.8,296.6 L 277.6,297.0 L 277.7,297.3 L 277.7,297.5 L 277.6,297.7 L 277.5,298.0 L 277.4,298.0 L 277.4,298.4 L 277.2,298.6 L 277.1,298.8 L 277.2,299.2 L 277.6,299.8 L 277.7,300.2 L 277.7,300.7 L 277.8,301.1 L 277.9,301.7 L 277.2,301.7 L 276.8,301.2 L 276.5,301.4 L 276.5,301.7 L 277.2,302.4 L 277.4,302.3 L 277.6,302.1 L 277.9,302.3 L 277.9,302.5 L 277.6,302.8 L 277.5,303.0 L 277.4,303.5 L 277.0,303.7 L 277.0,303.9 L 277.0,304.2 L 277.0,304.5 L 277.2,305.0 L 277.2,305.5 L 277.1,305.8 L 276.9,306.0 L 276.3,306.5 L 276.3,306.8 L 276.1,307.2 L 275.7,307.4 L 275.5,307.3 L 275.2,307.6 L 274.9,307.6 L 274.7,307.5 L 274.6,307.5 L 274.6,307.7 L 274.5,308.3 L 274.2,308.7 L 274.2,308.8 L 274.2,309.5 L 274.4,309.8 L 274.9,309.8 L 275.4,309.9 L 275.6,309.9 L 275.9,309.7 L 277.0,309.8 L 277.6,309.5 L 277.7,309.5 L 278.1,309.3 L 278.2,309.1 L 278.3,308.9 L 278.5,308.8 L 278.6,308.8 L 278.5,308.9 L 278.4,309.2 L 278.4,309.4 L 278.2,309.6 L 277.7,310.1 L 277.5,310.0 L 277.1,310.2 L 276.2,310.5 L 275.2,311.1 L 274.9,311.2 L 274.8,311.3 L 274.9,311.4 L 274.9,312.0 L 274.7,312.5 L 274.5,313.0 L 274.4,313.7 L 274.1,314.8 L 274.0,316.2 L 273.8,317.0 L 273.5,317.4 L 273.7,317.8 L 273.6,318.1 L 273.7,318.4 L 273.5,318.7 L 273.1,318.7 L 273.0,318.9 L 273.1,319.1 L 273.6,319.2 L 273.8,319.0 L 273.9,318.8 L 274.1,318.7 L 274.4,318.7 L 274.6,319.2 L 274.9,319.5 L 276.1,320.0 L 276.2,320.1 L 276.0,320.1 L 275.7,320.1 L 275.4,320.2 L 275.5,320.4 L 275.9,320.6 L 275.9,320.6 L 271.0,353.9 L 271.0,353.9 L 270.6,354.1 L 270.1,354.1 L 270.0,354.1 L 269.8,353.9 L 269.7,353.7 L 269.4,353.6 L 269.1,353.7 L 268.7,354.0 L 268.6,354.1 L 268.7,354.2 L 268.7,354.4 L 268.4,354.9 L 268.0,355.0 L 267.7,355.3 L 267.6,355.4 L 267.0,355.7 L 266.7,355.8 L 265.8,355.9 L 265.2,356.3 L 263.9,357.5 L 263.3,358.1 L 262.8,359.1 L 262.6,359.6 L 262.5,360.0 L 209.0,349.7 L 209.0,349.5 L 208.8,349.5 L 208.6,349.2 L 208.5,348.9 L 208.6,348.3 L 208.7,348.0 L 208.7,347.6 L 208.7,347.4 L 208.8,347.1 L 208.6,347.0 L 208.3,346.9 L 208.2,346.8 L 208.5,346.5 L 208.6,346.5 L 208.7,346.8 L 209.0,346.9 L 209.1,346.9 L 209.2,346.6 L 209.2,346.3 L 209.1,346.1 L 209.1,345.7 L 209.0,345.7 L 208.8,345.6 L 209.0,344.9 L 209.1,344.2 L 208.9,344.0 L 208.5,344.0 L 208.4,343.8 L 208.5,343.6 L 208.1,343.5 L 208.0,343.3 L 208.1,342.6 L 208.4,341.8 L 208.8,341.5 L 209.0,341.5 L 209.1,340.9 L 209.2,339.3 L 209.1,338.9 L 208.9,338.5 L 208.3,338.2 L 208.0,337.8 L 208.0,337.6 L 207.7,337.3 L 206.9,336.5 L 206.1,336.0 L 205.6,335.7 L 205.0,335.4 L 204.4,335.2 L 204.2,335.2 L 203.3,334.9 L 202.9,334.8 L 202.5,334.6 L 201.6,334.3 L 201.1,334.3 L 200.4,334.0 L 200.0,333.9 L 199.2,333.5 L 198.5,332.9 L 198.0,332.5 L 196.8,332.5 L 196.4,332.6 L 195.8,332.7 L 195.0,332.6 L 194.8,332.7 L 194.3,332.5 L 194.2,332.5 L 194.0,332.4 L 193.8,332.2 L 194.0,332.0 L 194.0,331.8 L 193.7,331.5 L 192.7,330.5 L 191.9,330.5 L 191.2,330.7 L 190.7,330.8 L 190.3,331.0 L 190.1,331.0 L 189.4,330.5 L 189.3,330.3 L 189.9,330.3 L 190.0,329.8 L 190.2,329.5 L 190.2,329.2 L 190.1,329.1 L 190.2,329.0 L 190.6,328.8 L 191.1,328.4 L 191.6,328.2 L 191.8,328.0 L 191.8,327.1 L 191.8,326.9 L 191.4,326.3 L 191.2,326.1 L 191.5,325.9 L 191.7,325.7 L 191.8,325.4 L 191.8,325.4 L 192.3,325.4 L 193.4,325.4 L 194.2,325.4 L 194.3,325.5 L 194.5,325.6 L 194.9,326.0 L 194.9,326.3 L 195.1,326.4 L 195.4,326.7 L 196.0,327.6 L 196.2,327.7 L 196.6,327.9 L 196.9,327.9 L 197.3,327.7 L 198.1,327.7 L 198.7,328.4 L 198.9,328.9 L 199.1,329.1 L 199.4,329.1 L 199.4,328.8 L 199.3,328.5 L 199.3,328.3 L 199.5,328.1 L 199.5,327.5 L 199.1,327.0 L 199.0,326.7 L 198.9,326.4 L 198.7,326.0 L 198.7,325.8 L 198.8,325.7 L 199.6,325.9 L 199.7,325.6 L 199.7,325.1 L 199.1,324.3 L 198.8,323.6 L 198.9,323.1 L 198.7,322.6 L 198.4,322.1 L 198.0,321.6 L 198.0,321.2 L 198.2,320.9 L 198.5,320.8 L 198.7,320.9 L 198.9,321.2 L 199.1,321.6 L 199.4,322.0 L 199.7,322.4 L 199.9,322.7 L 200.0,323.0 L 200.9,324.3 L 201.3,324.6 L 201.9,324.6 L 202.5,324.3 L 202.6,324.2 L 203.0,323.2 L 203.3,322.9 L 203.8,322.9 L 203.9,322.8 L 204.0,322.5 L 204.1,322.5 L 204.3,322.6 L 204.5,322.5 L 204.4,322.3 L 204.3,322.1 L 203.4,321.5 L 202.9,321.3 L 201.8,320.9 L 201.8,320.8 L 201.8,320.3 L 202.1,320.1 L 202.4,320.2 L 202.6,320.0 L 202.6,319.8 L 202.7,319.5 L 202.7,319.3 L 202.6,319.1 L 201.8,318.7 L 201.7,318.5 L 201.7,318.2 L 201.5,317.6 L 201.2,317.3 L 201.1,317.2 L 201.2,316.8 L 201.4,316.6 L 201.8,316.5 L 202.1,316.3 L 202.1,316.0 L 202.0,315.8 L 202.3,315.5 L 202.3,315.0 L 201.7,315.0 L 201.1,314.1 L 200.9,313.9 L 200.9,313.5 L 200.7,313.1 L 199.8,313.1 L 199.5,312.8 L 199.4,312.5 L 199.4,312.5 L 199.1,312.4 L 199.1,312.2 L 198.7,312.2 L 198.7,312.1 L 198.7,311.9 L 198.9,311.5 L 199.0,311.0 L 198.9,310.8 L 199.0,310.5 L 199.3,309.9 L 199.4,309.7 L 199.6,309.4 L 199.6,309.1 L 199.6,308.8 L 199.4,308.6 L 199.2,308.6 L 199.2,308.1 L 199.0,308.0 L 199.0,307.4 L 198.9,307.2 L 199.1,306.8 L 199.1,306.4 L 199.1,306.3 L 199.2,305.9 L 199.3,305.5 L 199.6,305.2 L 199.6,305.0 L 199.1,304.4 L 198.7,303.9 L 197.6,303.3 L 197.3,302.7 L 197.0,302.5 L 196.1,302.5 L 195.3,302.8 L 194.9,302.8 L 194.3,303.1 L 194.3,303.1 L 194.1,303.1 L 193.8,302.9 L 193.2,303.2 L 192.2,304.1 L 191.8,304.2 L 191.6,304.3 L 191.3,304.8 L 191.3,305.3 L 191.4,305.7 L 191.7,306.0 L 191.9,306.3 L 191.9,306.6 L 191.7,306.9 L 191.4,306.9 L 191.2,306.8 L 190.8,306.7 L 190.4,306.8 L 190.1,307.1 L 189.8,307.4 L 189.5,307.5 L 189.3,307.7 L 189.2,308.0 L 189.3,308.2 L 189.2,308.6 L 189.3,308.7 L 189.8,309.0 L 190.1,309.4 L 190.3,309.6 L 190.6,309.5 L 190.9,309.4 L 191.3,309.3 L 192.1,309.3 L 192.4,309.7 L 192.5,310.3 L 192.7,310.5 L 192.8,310.6 L 192.2,311.1 L 192.0,311.1 L 191.4,310.9 L 191.0,311.1 L 190.5,311.0 L 190.1,310.7 L 189.9,310.6 L 189.7,310.5 L 189.5,310.5 L 189.1,310.8 L 188.4,311.4 L 187.9,311.7 L 187.3,311.9 L 187.3,312.0 L 186.8,312.0 L 186.7,312.3 L 186.7,312.5 L 186.6,312.5 L 186.2,312.5 L 185.8,312.9 L 185.8,313.2 L 185.9,313.7 L 185.9,313.9 L 185.8,314.3 L 185.6,314.4 L 185.2,314.5 L 184.9,314.7 L 184.5,315.5 L 184.5,315.9 L 185.0,316.6 L 185.6,316.9 L 185.8,317.1 L 185.8,317.5 L 185.7,318.0 L 185.8,318.4 L 185.7,318.7 L 185.7,319.2 L 185.4,319.8 L 185.4,320.3 L 185.6,320.8 L 186.0,321.1 L 186.4,321.2 L 186.6,321.3 L 186.6,321.5 L 186.7,321.7 L 186.9,321.6 L 187.0,321.5 L 187.8,320.9 L 189.0,320.3 L 189.2,319.9 L 189.4,319.9 L 189.6,319.7 L 189.6,319.2 L 189.5,318.9 L 189.6,318.7 L 190.2,318.4 L 190.8,318.4 L 191.0,318.5 L 191.3,318.7 L 191.6,319.3 L 191.7,320.0 L 191.7,321.1 L 191.9,321.7 L 192.0,322.2 L 191.9,322.3 L 191.2,322.1 L 190.1,322.2 L 189.5,322.1 L 189.1,322.2 L 188.9,322.3 L 188.4,322.4 L 188.0,322.6 L 187.7,322.8 L 187.0,322.8 L 186.7,322.9 L 186.3,323.1 L 185.7,323.5 L 185.1,324.0 L 185.0,324.0 L 185.0,323.9 L 185.5,323.1 L 185.5,322.9 L 185.4,322.8 L 185.4,322.6 L 185.2,322.5 L 185.0,322.4 L 184.9,322.5 L 184.8,322.2 L 184.4,321.5 L 184.4,320.8 L 183.9,320.5 L 183.6,320.0 L 183.4,319.9 L 183.3,319.8 L 183.2,318.7 L 183.0,318.6 L 182.8,318.4 L 183.1,317.9 L 183.0,317.7 L 182.4,317.2 L 181.7,316.1 L 181.8,315.8 L 182.1,315.4 L 182.3,315.2 L 182.3,314.9 L 182.2,314.6 L 181.5,314.6 L 181.4,314.7 L 180.5,315.1 L 180.1,315.1 L 180.1,314.9 L 179.8,314.6 L 179.4,314.6 L 179.4,314.8 L 179.2,314.9 L 179.1,315.0 L 178.9,315.0 L 178.8,315.3 L 178.7,315.6 L 178.8,315.9 L 178.9,316.1 L 178.7,316.4 L 178.0,316.7 L 177.6,316.7 L 177.3,316.7 L 177.0,317.0 L 176.7,317.1 L 175.7,318.1 L 175.2,318.6 L 175.1,319.2 L 175.3,319.5 L 175.2,319.8 L 175.1,319.9 L 174.8,320.0 L 174.6,320.1 L 174.7,320.3 L 175.3,320.5 L 175.7,320.5 L 175.9,320.5 L 176.9,320.6 L 177.5,321.0 L 177.8,321.3 L 177.8,321.9 L 177.6,322.4 L 177.0,322.9 L 176.8,323.0 L 176.7,322.9 L 176.8,322.7 L 176.7,322.6 L 176.2,322.4 L 175.8,322.1 L 175.7,321.8 L 175.3,321.5 L 174.9,321.2 L 173.6,321.2 L 172.9,321.0 L 172.3,321.0 L 171.9,321.1 L 171.4,321.5 L 171.0,321.7 L 170.6,321.7 L 170.4,321.8 L 170.2,321.7 L 169.8,321.3 L 169.5,320.9 L 169.6,320.6 L 169.6,320.4 L 169.4,320.2 L 169.1,320.1 L 168.3,320.1 L 166.7,320.0 L 165.8,319.8 L 164.5,319.8 L 164.1,320.2 L 163.9,320.3 L 163.6,320.1 L 163.1,320.7 L 163.0,321.0 L 162.7,321.4 L 162.1,321.7 L 161.4,321.7 L 161.4,322.2 L 161.6,322.7 L 161.5,323.0 L 161.6,323.3 L 161.4,323.7 L 161.4,324.5 L 161.7,325.3 L 162.0,325.8 L 162.4,326.1 L 163.1,326.4 L 163.7,326.7 L 165.0,327.4 L 166.0,327.3 L 166.8,327.3 L 167.2,327.4 L 167.9,327.9 L 168.2,327.9 L 168.2,327.8 L 167.8,327.2 L 167.7,326.6 L 167.7,326.1 L 167.8,326.0 L 168.2,326.7 L 168.7,327.0 L 169.2,326.9 L 169.4,326.7 L 169.6,326.5 L 169.9,326.4 L 170.5,326.2 L 171.1,326.2 L 171.4,326.1 L 171.8,325.6 L 172.3,324.9 L 172.7,324.6 L 173.3,324.6 L 173.8,324.2 L 174.1,324.2 L 174.9,324.5 L 175.5,325.0 L 175.6,325.1 L 175.4,325.5 L 175.0,325.8 L 174.0,326.2 L 173.2,326.4 L 172.9,326.9 L 172.9,327.5 L 173.0,327.8 L 173.2,328.0 L 173.6,328.3 L 174.1,328.4 L 175.3,328.4 L 175.9,328.1 L 176.5,328.1 L 176.8,328.2 L 176.8,328.5 L 176.5,328.7 L 176.2,328.8 L 176.1,329.0 L 176.1,329.3 L 176.2,329.6 L 176.6,329.9 L 176.9,330.2 L 177.4,330.3 L 177.6,330.4 L 178.4,330.4 L 178.9,330.6 L 179.1,330.8 L 179.1,330.9 L 179.0,331.3 L 179.1,332.1 L 179.4,332.2 L 179.7,332.2 L 180.1,332.1 L 180.6,332.0 L 181.0,332.1 L 180.8,332.4 L 180.8,332.6 L 180.7,332.7 L 180.5,332.8 L 180.1,332.9 L 179.8,332.7 L 179.1,332.2 L 178.9,332.2 L 178.6,332.5 L 178.1,332.9 L 178.1,333.2 L 178.0,333.2 L 177.9,333.1 L 177.8,332.3 L 177.7,331.8 L 177.7,331.7 L 177.6,331.6 L 176.9,331.7 L 175.9,331.2 L 175.4,331.2 L 175.2,331.5 L 175.0,331.7 L 174.4,332.3 L 174.2,332.8 L 174.0,332.9 L 173.9,333.0 L 173.7,332.9 L 173.5,332.6 L 172.5,331.8 L 172.4,331.6 L 172.4,330.9 L 172.6,330.6 L 172.6,330.4 L 171.8,330.1 L 171.5,329.8 L 171.1,329.6 L 170.4,329.3 L 170.1,329.1 L 169.7,329.0 L 169.4,329.1 L 168.8,329.4 L 168.3,329.8 L 168.3,330.0 L 168.2,330.1 L 168.2,330.2 L 168.2,330.5 L 168.0,330.6 L 167.9,330.8 L 167.6,331.0 L 167.6,331.2 L 167.7,331.6 L 167.7,332.4 L 167.6,332.6 L 167.2,332.9 L 166.7,333.2 L 165.8,333.2 L 165.3,333.1 L 164.1,333.1 L 163.6,333.3 L 163.2,333.3 L 162.5,332.6 L 162.3,332.6 L 162.1,332.6 L 161.2,332.6 L 160.0,332.7 L 159.9,332.8 L 160.2,333.2 L 160.2,333.6 L 160.1,333.8 L 159.9,334.0 L 159.6,334.1 L 159.2,334.4 L 158.2,334.6 L 157.1,335.1 L 157.0,335.2 L 157.1,335.4 L 157.2,335.6 L 157.1,335.7 L 156.5,335.7 L 156.5,335.9 L 156.3,336.0 L 155.9,336.0 L 155.7,336.1 L 155.7,336.2 L 155.8,336.2 L 155.9,336.4 L 155.9,336.5 L 155.9,336.5 L 86.9,304.7 L 86.9,304.7 L 87.0,304.5 L 87.0,304.1 L 87.6,303.4 L 87.7,303.1 L 88.0,302.7 L 88.1,302.3 L 88.1,301.9 L 88.2,301.8 L 88.3,301.6 L 88.6,301.4 L 88.7,300.9 L 88.5,300.7 L 88.0,300.5 L 87.9,300.6 L 87.6,301.0 L 87.5,301.6 L 87.2,301.8 L 86.4,301.8 L 86.2,302.3 L 85.9,302.7 L 86.0,303.4 L 85.9,303.7 L 86.0,304.2 L 85.8,304.3 L 85.3,304.5 L 84.6,305.5 L 84.5,305.6 L 84.4,304.9 L 84.3,304.8 L 84.0,304.7 L 83.4,304.2 L 83.3,304.0 L 83.0,303.2 L 82.8,303.1 L 82.9,303.0 L 83.0,302.9 L 83.1,302.9 L 83.2,303.3 L 83.3,303.5 L 83.6,303.9 L 83.8,303.8 L 84.1,303.3 L 84.1,303.1 L 83.7,302.8 L 83.8,302.7 L 84.1,302.7 L 84.2,302.3 L 84.2,302.1 L 84.0,302.0 L 83.7,302.1 L 83.3,302.2 L 82.9,302.3 L 82.4,302.1 L 82.4,302.0 L 82.4,301.4 L 82.5,301.4 L 82.7,301.8 L 82.7,301.9 L 82.6,302.1 L 82.9,302.1 L 82.9,301.9 L 83.2,301.6 L 83.2,301.5 L 83.0,301.4 L 83.1,301.1 L 83.4,300.7 L 83.4,300.5 L 83.7,300.4 L 83.7,300.8 L 83.9,301.0 L 84.2,301.3 L 84.4,301.2 L 84.4,300.7 L 84.7,300.7 L 85.1,300.7 L 85.5,300.8 L 85.8,300.9 L 85.9,300.6 L 85.8,300.4 L 85.8,299.9 L 85.5,299.6 L 84.9,299.4 L 84.9,299.2 L 84.8,298.8 L 85.0,298.4 L 85.0,298.0 L 85.0,297.9 L 85.1,297.7 L 85.5,297.4 L 86.0,297.3 L 86.5,297.4 L 86.7,297.6 L 86.6,297.8 L 86.6,297.9 L 86.8,298.1 L 87.0,298.3 L 87.2,298.2 L 87.0,297.8 L 87.1,297.7 L 87.3,297.5 L 87.3,297.3 L 87.3,297.2 L 87.0,296.9 L 87.1,296.7 L 87.4,296.3 L 88.3,296.0 L 88.5,296.0 L 88.9,295.6 L 89.0,295.6 L 89.2,296.0 L 89.6,296.1 L 89.9,295.8 L 90.8,294.5 L 90.9,294.1 L 91.1,293.6 L 91.6,292.9 L 92.0,291.4 L 92.4,290.5 L 92.5,290.4 L 92.9,290.2 L 93.9,289.2 L 94.0,288.6 L 94.0,288.2 L 94.1,288.0 L 94.2,287.6 L 94.1,287.4 L 94.1,287.3 L 94.2,287.0 L 94.6,286.5 L 94.6,286.4 L 94.4,286.3 L 94.0,286.2 L 93.9,286.1 L 93.4,286.2 L 93.2,286.2 L 93.1,286.0 L 93.2,285.9 L 93.6,285.5 L 93.6,285.4 L 93.9,285.2 L 93.8,285.0 L 93.4,284.9 L 93.3,284.8 L 93.4,283.9 L 93.3,283.8 L 93.0,284.0 L 93.1,284.5 L 92.9,284.6 L 92.5,284.8 L 92.4,284.9 L 91.9,285.5 L 91.8,285.7 L 91.6,285.7 L 91.7,285.4 L 92.0,284.8 L 91.9,284.7 L 91.7,284.4 L 91.9,284.1 L 92.4,283.5 L 92.7,283.4 L 92.8,283.3 L 93.3,282.3 L 93.2,282.1 L 93.1,282.1 L 93.1,281.9 L 93.3,281.6 L 93.3,280.9 L 93.5,280.8 L 93.7,280.8 L 93.7,280.3 L 93.9,279.9 L 94.4,279.1 L 94.5,278.7 L 94.5,278.4 L 94.2,277.9 L 94.4,277.6 L 94.4,277.0 L 94.6,276.7 L 94.7,276.3 L 94.6,275.9 L 94.7,275.9 L 94.8,275.8 L 94.9,275.9 L 95.0,275.8 L 95.3,275.2 L 95.3,275.0 L 95.2,274.9 L 94.9,274.8 L 94.3,275.4 L 93.6,275.5 L 93.2,275.4 L 93.0,275.1 L 92.8,274.8 L 92.3,274.2 L 92.4,273.9 L 92.7,273.5 L 92.8,273.2 L 92.8,273.2 L 92.8,272.6 L 92.8,272.2 L 92.9,271.8 L 92.9,271.7 L 93.1,271.4 L 93.4,271.5 L 93.5,271.2 L 93.2,270.9 L 93.1,270.6 L 93.4,269.8 L 93.3,269.5 L 93.2,269.4 L 93.3,269.3 L 93.7,269.0 L 94.1,268.6 L 94.2,268.2 L 93.7,268.2 L 93.7,268.0 L 94.2,267.5 L 94.5,267.3 L 94.5,266.6 L 94.3,266.2 L 94.4,266.0 L 94.5,265.9 L 94.6,265.8 L 94.8,265.5 L 94.9,264.9 L 95.6,264.2 L 95.6,263.9 L 95.5,263.2 L 95.7,263.0 L 95.8,262.8 L 95.8,262.6 L 95.6,262.5 L 95.4,262.7 L 95.3,262.6 L 95.1,262.5 L 94.7,262.6 L 94.5,262.5 L 94.4,262.3 L 94.5,262.1 L 94.8,261.8 L 94.7,261.4 L 94.6,261.2 L 94.7,260.9 L 94.7,260.4 L 94.5,260.1 L 94.3,259.9 L 93.9,259.9 L 93.8,259.5 L 93.6,259.1 L 93.5,258.7 L 93.4,258.5 L 92.8,258.2 L 92.8,258.1 L 92.7,258.0 L 92.3,257.9 L 91.9,258.2 L 91.5,258.2 L 91.2,258.3 L 90.7,258.8 L 90.5,259.1 L 90.3,259.2 L 90.2,258.9 L 90.2,258.6 L 90.1,258.5 L 89.9,258.6 L 89.6,258.7 L 89.2,259.1 L 88.9,259.1 L 88.8,259.2 L 88.7,259.2 L 88.4,258.8 L 88.4,259.0 L 88.3,259.1 L 88.0,258.9 L 87.3,258.7 L 87.0,258.8 L 86.8,258.9 L 86.7,259.3 L 86.5,259.7 L 86.4,260.0 L 85.8,260.5 L 85.3,260.6 L 85.2,260.7 L 85.1,261.0 L 84.8,261.3 L 84.6,261.4 L 84.4,261.2 L 84.3,260.8 L 84.1,260.8 L 83.8,261.0 L 83.6,260.8 L 83.6,260.7 L 83.4,260.5 L 83.3,260.4 L 82.8,261.0 L 82.7,261.3 L 82.7,261.5 L 82.5,261.5 L 82.2,261.7 L 82.0,261.3 L 81.9,261.2 L 81.7,261.4 L 81.7,262.2 L 81.5,262.5 L 81.4,263.8 L 81.2,264.1 L 81.1,264.5 L 81.0,264.6 L 80.8,264.4 L 80.7,264.3 L 80.5,264.7 L 80.4,265.3 L 80.2,265.9 L 79.8,266.4 L 79.7,267.3 L 79.6,267.4 L 79.1,267.7 L 79.1,267.6 L 79.6,266.9 L 79.6,266.7 L 79.4,266.4 L 79.3,266.0 L 79.1,265.6 L 79.1,265.2 L 79.2,264.4 L 79.1,264.1 L 79.2,263.6 L 79.3,263.1 L 79.3,262.5 L 79.1,261.7 L 78.9,261.6 L 78.6,261.6 L 78.4,261.7 L 78.1,262.2 L 77.9,262.7 L 77.7,263.2 L 77.7,263.4 L 77.6,263.5 L 77.5,263.4 L 77.0,263.4 L 76.7,263.1 L 76.5,263.2 L 76.3,263.2 L 76.2,263.4 L 75.8,264.3 L 75.7,264.5 L 75.4,264.6 L 75.3,264.5 L 75.5,264.2 L 75.5,264.0 L 75.2,263.9 L 74.9,263.6 L 74.8,263.2 L 75.0,262.4 L 75.1,261.8 L 74.9,261.6 L 74.6,261.5 L 74.2,261.6 L 72.7,262.6 L 72.1,262.6 L 71.7,262.4 L 71.6,262.3 L 71.9,261.9 L 71.9,261.0 L 71.6,260.4 L 71.4,260.0 L 71.4,259.7 L 71.6,259.5 L 71.0,259.1 L 70.2,259.0 L 70.3,258.9 L 70.7,258.9 L 71.0,258.8 L 71.1,258.9 L 71.7,259.4 L 71.9,259.2 L 72.7,259.0 L 73.1,258.6 L 73.5,258.2 L 73.7,258.2 L 74.5,258.7 L 74.7,259.0 L 75.0,259.3 L 75.5,259.0 L 75.8,259.3 L 76.0,259.2 L 76.0,259.0 L 76.2,258.6 L 76.2,258.2 L 76.1,257.8 L 75.8,257.6 L 75.3,257.5 L 75.3,257.2 L 75.6,257.0 L 76.0,256.9 L 76.5,256.7 L 76.6,256.7 L 77.0,256.6 L 77.7,256.3 L 77.9,256.2 L 78.0,256.3 L 77.9,256.5 L 77.8,256.8 L 77.6,257.2 L 77.4,257.5 L 77.5,257.7 L 77.7,257.8 L 77.9,257.7 L 78.2,257.8 L 78.4,257.9 L 78.3,258.2 L 78.1,258.2 L 77.9,258.6 L 78.1,258.7 L 78.3,258.7 L 78.6,258.3 L 78.8,257.7 L 78.9,257.5 L 79.0,257.5 L 79.1,257.8 L 79.2,258.0 L 79.4,258.0 L 79.9,258.3 L 80.2,258.5 L 80.3,258.5 L 80.4,258.3 L 81.0,257.3 L 81.3,257.1 L 81.9,256.4 L 81.9,256.2 L 81.8,256.0 L 81.8,255.6 L 81.6,255.5 L 81.7,255.2 L 82.1,254.6 L 82.4,254.6 L 82.6,254.9 L 82.9,254.9 L 83.2,254.7 L 83.8,254.8 L 84.2,254.5 L 84.4,254.5 L 84.5,254.4 L 84.5,254.2 L 84.5,253.9 L 84.5,252.7 L 84.4,252.4 L 84.6,252.2 L 84.8,252.1 L 85.0,252.1 L 85.1,252.3 L 85.0,252.9 L 85.1,253.2 L 85.2,253.4 L 85.5,253.8 L 85.6,253.7 L 86.1,253.2 L 86.3,253.1 L 86.4,253.0 L 86.3,252.6 L 86.4,252.5 L 86.6,252.5 L 86.7,252.6 L 86.9,252.5 L 87.1,252.3 L 87.0,252.1 L 86.7,252.1 L 86.8,252.0 L 87.0,251.6 L 87.3,251.6 L 87.3,252.0 L 87.3,252.2 L 87.3,252.5 L 87.2,252.8 L 87.4,252.7 L 87.5,252.4 L 87.5,252.0 L 87.9,251.7 L 87.9,251.4 L 87.8,251.2 L 87.8,250.5 L 87.7,250.4 L 87.8,250.2 L 87.9,250.0 L 88.0,249.8 L 87.9,249.6 L 87.6,249.4 L 87.7,249.0 L 87.6,248.5 L 87.3,248.1 L 87.1,247.7 L 86.8,247.7 L 86.7,247.8 L 86.5,248.1 L 86.3,249.0 L 85.9,249.5 L 85.8,249.8 L 85.5,250.3 L 85.4,250.4 L 85.3,250.2 L 85.3,250.0 L 85.6,249.4 L 85.8,248.4 L 85.8,248.1 L 85.6,247.8 L 85.6,247.5 L 85.8,247.4 L 86.0,247.3 L 86.0,247.2 L 85.8,247.0 L 85.6,246.7 L 85.6,246.5 L 85.9,246.2 L 85.9,246.0 L 85.7,245.8 L 85.7,245.4 L 85.6,245.2 L 85.6,245.1 L 85.5,245.0 L 84.7,245.1 L 84.6,245.0 L 84.5,244.9 L 84.4,244.8 L 84.2,244.9 L 84.1,245.2 L 84.1,245.3 L 83.6,245.3 L 83.3,245.6 L 82.9,245.6 L 82.5,245.2 L 82.1,245.2 L 82.1,244.9 L 82.4,244.5 L 82.4,244.3 L 82.1,244.1 L 82.1,243.8 L 81.9,243.7 L 81.9,243.5 L 82.2,243.2 L 82.2,243.0 L 82.2,242.8 L 82.0,242.6 L 81.9,242.5 L 81.9,242.0 L 81.6,241.9 L 81.1,241.8 L 80.6,241.4 L 80.4,241.2 L 80.1,241.2 L 80.0,241.0 L 80.2,240.7 L 81.0,240.8 L 81.3,240.9 L 81.3,241.0 L 81.6,241.3 L 81.9,241.3 L 82.0,241.1 L 81.9,240.9 L 81.7,240.7 L 81.5,240.4 L 81.0,240.2 L 80.8,240.2 L 80.7,240.3 L 80.6,240.3 L 80.5,240.0 L 80.3,239.9 L 80.0,239.9 L 79.7,239.6 L 79.4,239.1 L 79.2,239.0 L 79.0,238.9 L 78.3,238.8 L 78.1,238.7 L 77.5,238.6 L 77.2,238.5 L 76.9,238.5 L 76.6,238.7 L 76.5,238.8 L 76.2,238.9 L 75.8,238.9 L 75.5,239.2 L 75.4,239.6 L 75.4,240.2 L 74.9,240.7 L 74.7,241.0 L 74.5,241.5 L 74.4,242.0 L 74.1,242.2 L 73.9,242.2 L 73.7,242.1 L 73.8,241.8 L 74.4,240.9 L 74.8,240.3 L 75.1,239.5 L 74.7,239.3 L 74.2,239.2 L 74.2,239.4 L 74.1,239.7 L 73.8,239.9 L 73.4,240.2 L 73.0,240.5 L 72.7,240.5 L 72.6,240.4 L 72.8,240.2 L 73.0,240.0 L 73.1,239.9 L 73.2,239.7 L 73.6,239.4 L 73.6,239.0 L 73.4,238.9 L 72.3,238.4 L 71.7,238.7 L 71.7,238.9 L 71.8,239.3 L 72.4,239.6 L 72.4,239.9 L 72.3,240.1 L 72.1,240.0 L 71.7,240.1 L 71.6,240.2 L 71.5,240.4 L 71.0,241.4 L 70.9,241.4 L 70.8,241.4 L 70.8,240.9 L 71.1,240.1 L 71.0,239.8 L 71.0,239.6 L 71.3,239.1 L 71.3,238.8 L 71.0,238.7 L 70.5,238.7 L 71.1,234.1 L 71.2,234.0 L 72.2,234.1 L 72.3,234.0 L 72.6,233.7 L 72.9,233.4 L 73.1,233.4 L 73.3,233.6 L 73.5,233.5 L 73.5,233.2 L 73.3,232.6 L 73.3,231.9 L 73.2,231.1 L 72.9,231.1 L 72.8,230.9 L 72.6,231.0 L 72.4,231.4 L 72.6,231.0 L 74.4,225.7 L 74.5,225.8 L 74.6,225.8 L 74.7,225.5 L 74.5,225.3 L 75.7,221.9 L 76.4,222.1 L 76.5,222.1 L 76.7,222.1 L 77.0,222.0 L 77.3,221.6 L 77.4,221.6 L 77.5,221.9 L 77.5,222.6 L 77.6,222.8 L 77.8,222.9 L 78.3,223.0 L 78.6,223.0 L 78.8,222.8 L 80.0,222.6 L 80.7,222.6 L 80.9,222.7 L 81.4,222.7 L 81.9,222.6 L 82.2,222.7 L 82.7,222.4 L 82.6,222.1 L 82.6,222.0 L 82.7,221.8 L 82.7,221.4 L 82.7,221.1 L 82.4,220.1 L 82.2,219.7 L 82.3,219.4 L 82.1,219.0 L 81.7,218.7 L 81.8,218.6 L 81.9,218.5 L 82.1,218.5 L 82.3,218.8 L 82.4,218.7 L 82.2,218.3 L 81.9,218.1 L 81.8,218.0 L 81.9,216.8 L 82.1,216.3 L 82.2,215.5 L 82.1,215.2 L 81.7,214.7 L 81.5,214.5 L 80.6,214.0 L 79.9,213.9 L 79.4,213.6 L 79.0,213.6 L 78.8,213.7 L 78.8,214.1 L 78.6,214.0" fill="none" stroke="black" stroke-width="2"/>
</svg>