<?xml version="1.0" encoding="UTF-8"?>
<svg width="400" height="400" viewBox="0 0 400 400" xmlns="http://www.w3.org/2000/svg">
  <rect width="400" height="400" fill="white"/>
  <path d="M 185.9,358.9 L 185.9,358.9 L 73.1,185.3 L 309.4,40.0 L 309.7,40.2 L 309.7,40.2 L 309.6,40.6 L 295.9,76.7 L 295.6,76.7 L 295.2,76.8 L 294.9,77.0 L 294.6,77.3 L 294.5,77.9 L 294.7,78.1 L 295.4,78.0 L 295.6,77.9 L 295.8,77.8 L 295.5,78.1 L 294.3,78.4 L 294.1,78.6 L 294.0,79.0 L 293.9,79.6 L 294.1,79.7 L 293.8,80.3 L 293.8,80.3 L 293.7,80.4 L 293.6,80.6 L 293.0,81.3 L 293.1,81.7 L 293.2,81.8 L 240.8,211.3 L 240.8,210.9 L 240.7,210.8 L 240.8,210.5 L 240.8,210.3 L 240.7,209.9 L 240.5,209.9 L 240.4,210.2 L 240.3,210.5 L 240.2,210.7 L 240.2,211.4 L 239.7,212.0 L 239.5,212.2 L 239.4,212.8 L 239.3,213.0 L 239.1,213.0 L 239.0,212.9 L 239.0,212.3 L 238.9,212.2 L 238.6,212.4 L 238.1,212.8 L 237.9,213.5 L 237.5,214.1 L 237.3,214.3 L 237.0,214.5 L 237.0,214.3 L 237.2,214.0 L 237.1,213.9 L 236.7,214.2 L 236.5,214.5 L 236.4,214.9 L 236.1,215.4 L 236.1,215.8 L 236.5,215.7 L 236.5,215.9 L 236.9,215.9 L 237.2,215.7 L 237.3,216.2 L 238.1,218.9 L 238.2,219.0 L 238.1,219.2 L 238.1,219.5 L 238.3,219.4 L 238.3,219.5 L 238.3,219.5 L 238.2,219.5 L 238.0,219.7 L 237.1,221.0 L 236.9,221.3 L 236.9,222.3 L 237.1,222.4 L 237.3,222.3 L 237.5,222.1 L 238.6,224.0 L 238.6,224.0 L 238.3,224.3 L 238.4,225.6 L 238.3,226.1 L 238.7,227.0 L 238.9,227.2 L 239.2,227.4 L 239.6,227.3 L 239.9,227.2 L 240.2,227.0 L 242.8,241.4 L 242.8,241.4 L 242.3,241.8 L 241.2,243.2 L 240.9,243.5 L 239.6,244.4 L 239.6,244.6 L 239.5,245.2 L 239.8,245.6 L 240.1,245.5 L 240.7,245.2 L 241.2,244.9 L 241.2,244.9 L 241.6,244.6 L 241.7,244.6 L 242.7,243.6 L 242.8,243.6 L 243.0,243.6 L 243.1,243.8 L 243.6,243.5 L 244.0,243.3 L 244.3,243.3 L 244.4,243.9 L 244.4,243.9 L 244.1,244.1 L 243.4,244.6 L 243.3,244.7 L 243.0,245.0 L 242.8,244.8 L 242.2,245.4 L 242.0,246.0 L 241.4,246.6 L 241.2,246.9 L 240.9,247.3 L 240.2,248.0 L 240.2,248.3 L 240.4,248.4 L 241.0,248.1 L 241.4,249.2 L 241.5,249.2 L 241.2,249.5 L 240.9,249.7 L 240.4,250.0 L 240.2,250.2 L 240.4,250.3 L 240.7,250.3 L 241.1,249.9 L 241.2,249.9 L 241.6,249.9 L 241.7,249.9 L 326.2,231.8 L 326.3,231.8 L 326.3,231.8 L 326.3,232.0 L 326.4,232.2 L 326.7,232.3 L 326.8,232.6 L 326.8,232.7 L 326.9,232.9 L 326.8,233.0 L 253.3,319.2 L 253.3,319.2 L 253.0,319.1 L 252.8,319.1 L 252.7,319.1 L 252.7,319.2 L 252.9,319.4 L 252.4,319.8 L 252.2,319.5 L 252.1,319.5 L 251.7,320.0 L 251.5,320.2 L 251.3,320.4 L 251.0,320.8 L 251.0,320.8 L 210.5,359.3 L 210.3,359.1 L 210.1,359.1 L 209.9,359.0 L 209.6,359.0 L 209.1,359.1 L 208.7,359.2 L 207.7,359.2 L 207.3,359.0 L 207.0,359.0 L 206.8,358.8 L 206.6,358.8 L 206.1,359.3 L 205.8,359.4 L 205.4,359.5 L 205.4,359.9 L 205.2,359.8 L 205.0,359.9 L 204.7,359.9 L 204.4,359.9 L 204.1,360.0 L 203.7,360.0 L 203.5,359.9 L 203.2,360.0 L 202.8,359.9 L 202.7,359.8 L 202.6,359.7 L 202.2,359.6 L 201.8,359.6 L 201.4,359.5 L 201.1,359.4 L 200.7,359.4 L 200.1,359.3 L 199.1,359.1 L 198.0,358.5 L 197.7,358.4 L 197.6,358.2 L 197.6,357.8 L 196.8,357.2 L 196.1,357.3 L 195.9,357.4 L 195.8,357.6 L 195.7,357.8 L 195.0,357.8 L 194.8,357.7 L 194.5,357.8 L 194.2,357.7 L 193.9,357.8 L 193.7,357.8 L 193.7,357.4 L 193.8,357.2 L 193.5,356.9 L 193.1,356.9 L 192.8,357.1 L 192.5,357.2 L 192.1,357.6 L 191.6,357.8 L 190.6,357.8 L 189.9,357.6 L 189.3,357.8 L 188.7,357.8 L 188.3,357.9 L 187.8,358.0 L 187.7,358.2 L 187.4,358.6 L 187.2,358.8 L 186.7,359.0 L 186.5,359.0 L 186.3,359.1 L 186.2,359.1 L 186.2,358.9 L 186.1,358.8 L 186.0,358.9" fill="none" stroke="black" stroke-width="2"/>
</svg>