<?xml version="1.0" encoding="UTF-8"?>
<svg width="400" height="400" viewBox="0 0 400 400" xmlns="http://www.w3.org/2000/svg">
  <rect width="400" height="400" fill="white"/>
  <path d="M 107.3,321.9 L 159.0,194.0 L 159.0,194.0 L 159.5,194.2 L 160.0,194.2 L 160.0,194.1 L 160.2,194.0 L 160.6,193.9 L 160.8,193.5 L 161.1,193.5 L 161.2,193.7 L 161.2,193.8 L 160.6,194.2 L 160.7,194.4 L 160.9,194.5 L 161.4,194.5 L 161.6,194.4 L 162.4,194.2 L 162.9,193.9 L 163.7,193.7 L 164.0,193.4 L 164.8,192.3 L 164.9,192.0 L 164.9,191.9 L 164.4,191.8 L 163.9,191.7 L 163.8,191.7 L 163.1,191.7 L 162.9,191.9 L 162.7,191.8 L 162.0,191.9 L 161.7,191.9 L 161.6,192.1 L 161.8,192.3 L 161.2,192.5 L 160.8,192.5 L 160.5,192.3 L 160.0,192.3 L 159.6,192.5 L 159.8,191.9 L 159.8,191.9 L 160.1,192.0 L 160.2,192.0 L 160.9,191.9 L 161.6,191.7 L 162.2,191.8 L 162.5,191.8 L 162.6,191.7 L 163.4,191.4 L 163.8,191.4 L 164.0,191.3 L 163.9,191.2 L 164.1,191.0 L 163.9,190.6 L 163.8,190.3 L 163.5,190.1 L 163.2,190.0 L 162.3,190.0 L 162.2,189.9 L 163.1,189.7 L 163.4,189.5 L 163.4,189.2 L 163.1,188.9 L 161.9,188.9 L 161.7,188.9 L 175.2,153.3 L 175.3,152.9 L 175.6,153.0 L 176.0,152.9 L 176.7,152.7 L 177.0,152.5 L 177.9,152.5 L 178.0,152.4 L 177.9,152.2 L 177.7,152.0 L 177.5,151.8 L 177.5,151.6 L 177.6,151.5 L 178.0,151.5 L 178.2,151.6 L 178.0,152.2 L 178.2,152.3 L 178.7,152.3 L 178.9,152.2 L 178.9,152.2 L 179.1,152.1 L 179.3,151.8 L 179.4,151.8 L 179.6,151.6 L 179.7,151.6 L 179.8,151.6 L 180.1,151.4 L 180.2,151.2 L 180.3,151.2 L 180.3,151.5 L 180.5,151.5 L 180.8,151.2 L 181.1,151.2 L 181.7,151.0 L 181.9,150.7 L 182.0,150.4 L 182.0,149.1 L 182.1,148.8 L 182.2,148.3 L 182.3,148.1 L 182.3,147.8 L 182.3,147.6 L 182.2,147.4 L 182.0,147.1 L 181.3,147.2 L 181.1,147.2 L 181.2,147.1 L 183.8,144.5 L 184.5,144.2 L 185.3,144.0 L 185.6,143.7 L 185.9,143.2 L 186.3,142.8 L 186.1,142.7 L 185.8,142.8 L 185.5,142.8 L 185.8,142.5 L 186.1,142.5 L 186.7,142.4 L 186.8,142.2 L 186.9,142.1 L 186.9,141.8 L 186.8,141.7 L 186.6,141.7 L 187.9,140.5 L 187.7,140.8 L 187.7,141.2 L 187.9,141.3 L 188.2,141.3 L 188.6,141.1 L 189.0,140.8 L 188.9,140.4 L 189.0,140.2 L 189.2,140.1 L 189.1,139.9 L 189.2,139.7 L 189.1,139.6 L 188.8,139.6 L 188.9,139.5 L 188.9,139.4 L 288.0,40.9 L 288.1,40.7 L 288.1,40.7 L 288.0,40.9 L 287.8,41.3 L 287.8,41.5 L 288.0,41.8 L 288.4,42.0 L 289.2,41.9 L 289.8,41.8 L 290.1,41.4 L 290.2,41.1 L 290.3,40.7 L 290.3,40.3 L 290.6,40.0 L 290.6,40.1 L 290.5,40.2 L 290.5,40.5 L 290.7,40.9 L 290.5,41.1 L 290.4,41.6 L 290.3,42.1 L 290.2,42.3 L 290.3,42.4 L 290.3,42.7 L 290.5,42.9 L 291.0,43.0 L 291.3,43.0 L 291.5,43.1 L 291.7,43.0 L 291.9,43.0 L 292.2,42.9 L 292.6,43.2 L 292.8,43.2 L 293.0,43.0 L 293.4,43.5 L 293.7,43.6 L 294.4,43.5 L 294.8,43.2 L 294.9,43.4 L 295.0,43.5 L 295.3,43.4 L 295.4,43.5 L 295.8,43.5 L 296.3,43.2 L 296.4,43.2 L 229.0,177.7 L 229.0,177.8 L 228.8,177.9 L 228.8,177.8 L 228.6,178.0 L 228.3,178.0 L 228.2,177.8 L 227.9,177.7 L 227.7,177.7 L 227.4,177.8 L 227.0,178.0 L 226.8,178.1 L 226.9,177.8 L 226.6,177.7 L 226.2,177.9 L 225.5,178.1 L 224.9,178.3 L 223.8,178.9 L 223.0,179.1 L 222.1,179.6 L 221.4,179.8 L 221.1,179.9 L 220.7,180.1 L 220.2,180.5 L 219.5,180.9 L 218.1,181.4 L 218.0,181.5 L 217.4,181.8 L 217.2,182.0 L 216.7,182.2 L 216.4,182.7 L 215.5,183.2 L 215.3,183.5 L 215.1,183.6 L 214.4,184.3 L 213.7,184.9 L 213.1,185.3 L 212.6,185.8 L 212.6,185.9 L 212.8,186.2 L 213.1,186.2 L 213.3,186.4 L 213.7,186.6 L 214.1,186.6 L 214.3,186.4 L 214.7,186.1 L 214.8,186.2 L 214.9,186.3 L 214.8,186.5 L 214.3,186.8 L 214.0,186.9 L 213.5,186.7 L 213.1,186.8 L 212.5,186.9 L 212.1,187.1 L 211.7,187.5 L 211.6,188.0 L 211.7,188.1 L 212.0,188.1 L 212.4,187.8 L 212.6,187.7 L 212.7,187.8 L 212.3,188.2 L 211.8,188.6 L 211.4,188.7 L 211.2,189.1 L 211.2,189.2 L 211.5,189.3 L 212.1,189.3 L 212.4,189.0 L 212.4,188.9 L 212.5,188.9 L 212.9,188.9 L 213.0,189.0 L 212.9,189.1 L 212.6,189.3 L 212.9,189.5 L 213.1,189.5 L 213.4,189.2 L 213.7,189.2 L 214.2,188.9 L 214.9,188.9 L 215.2,188.6 L 215.5,188.4 L 216.1,188.3 L 217.2,188.3 L 217.4,188.1 L 217.6,188.0 L 217.6,187.7 L 218.0,187.5 L 218.2,187.3 L 218.3,187.1 L 218.7,187.1 L 218.9,186.9 L 219.5,186.9 L 219.8,186.8 L 220.0,186.6 L 220.4,186.7 L 220.7,186.7 L 221.1,186.5 L 221.4,186.3 L 221.5,186.0 L 221.6,185.9 L 221.9,186.0 L 221.9,186.2 L 221.7,186.4 L 221.5,186.5 L 221.2,186.8 L 221.3,186.9 L 221.5,186.8 L 221.8,186.5 L 222.5,186.3 L 222.8,186.1 L 222.9,186.0 L 222.8,185.9 L 222.6,185.9 L 222.7,185.8 L 222.9,185.7 L 223.0,185.6 L 249.7,231.9 L 249.4,231.8 L 248.9,231.8 L 248.6,232.0 L 248.3,232.3 L 247.5,233.5 L 247.0,234.4 L 246.5,236.3 L 246.1,237.1 L 245.9,237.9 L 245.6,238.2 L 245.6,239.4 L 245.3,239.9 L 245.0,241.2 L 245.0,241.3 L 244.9,241.5 L 244.7,241.7 L 244.4,242.2 L 244.1,242.7 L 244.0,243.0 L 244.2,243.5 L 244.2,244.4 L 244.2,244.7 L 243.8,245.0 L 243.5,245.4 L 243.0,245.7 L 242.9,246.7 L 242.5,247.0 L 242.2,247.2 L 241.6,247.6 L 241.3,247.7 L 241.2,247.8 L 241.1,248.0 L 240.8,248.4 L 240.8,248.8 L 241.1,249.2 L 241.3,249.6 L 241.1,249.9 L 241.1,250.1 L 241.1,250.3 L 240.8,250.2 L 240.5,250.4 L 240.5,250.5 L 240.6,250.8 L 241.5,251.4 L 241.6,251.6 L 241.4,251.9 L 241.3,251.9 L 241.1,251.8 L 240.9,251.8 L 240.4,251.9 L 240.0,251.9 L 239.8,252.2 L 239.8,252.9 L 239.4,253.3 L 239.2,253.7 L 239.0,253.9 L 238.7,254.3 L 238.7,254.6 L 238.6,254.8 L 238.8,254.9 L 238.6,255.2 L 238.8,255.3 L 239.0,255.2 L 239.3,255.4 L 239.6,255.4 L 239.7,255.4 L 239.8,255.7 L 240.1,255.8 L 240.4,255.7 L 240.4,255.8 L 240.3,256.0 L 240.3,256.2 L 240.4,256.4 L 240.7,256.4 L 241.0,256.6 L 241.8,257.2 L 241.8,257.3 L 241.7,257.3 L 241.4,257.2 L 241.2,257.2 L 239.7,256.3 L 239.5,256.3 L 239.5,256.6 L 239.2,256.9 L 238.9,257.0 L 238.8,257.2 L 239.3,257.8 L 239.2,257.9 L 239.1,258.0 L 238.7,257.8 L 238.4,257.5 L 238.3,257.6 L 238.6,258.1 L 238.4,258.3 L 238.2,258.5 L 238.4,259.1 L 238.6,259.3 L 239.1,259.5 L 239.6,259.5 L 239.7,259.3 L 239.6,259.1 L 239.8,259.0 L 240.0,259.0 L 240.1,259.2 L 239.9,259.4 L 240.0,259.8 L 240.6,260.1 L 241.0,260.5 L 241.3,261.0 L 241.3,261.2 L 241.6,261.5 L 241.9,261.4 L 242.2,261.2 L 242.5,261.4 L 242.7,261.3 L 242.7,261.1 L 242.5,260.9 L 242.5,260.7 L 242.3,260.5 L 242.3,260.3 L 242.7,260.3 L 242.9,260.2 L 243.5,260.4 L 243.6,260.4 L 243.6,260.2 L 243.0,259.9 L 242.7,259.7 L 242.2,259.3 L 242.5,259.0 L 242.6,258.9 L 243.0,258.9 L 243.6,259.4 L 243.8,259.4 L 243.9,259.4 L 243.7,258.8 L 243.8,258.8 L 244.6,259.5 L 245.0,259.7 L 245.5,260.1 L 245.4,260.2 L 244.4,260.1 L 244.0,260.2 L 244.1,260.4 L 244.1,260.6 L 244.0,260.6 L 243.9,260.7 L 243.9,260.9 L 244.0,261.0 L 244.4,261.3 L 245.1,261.4 L 245.4,261.7 L 245.4,261.8 L 245.1,261.7 L 244.9,261.9 L 244.5,262.0 L 244.1,262.1 L 243.9,262.3 L 243.8,262.5 L 244.0,263.0 L 244.3,263.5 L 244.9,263.8 L 245.2,263.9 L 245.3,264.0 L 240.5,281.3 L 240.3,281.2 L 240.3,281.2 L 240.1,281.2 L 239.9,281.3 L 239.9,281.5 L 240.3,281.9 L 240.3,282.0 L 238.4,289.2 L 238.2,289.1 L 238.0,288.9 L 237.7,288.9 L 237.5,288.8 L 236.7,288.8 L 236.6,288.9 L 236.5,289.2 L 236.3,289.3 L 235.9,289.2 L 235.7,289.0 L 235.6,288.7 L 235.6,288.4 L 235.8,288.1 L 235.8,287.6 L 235.7,287.2 L 235.6,286.5 L 235.4,286.2 L 234.9,285.8 L 234.7,285.5 L 234.2,285.5 L 234.2,285.7 L 234.3,286.0 L 234.1,286.0 L 234.0,286.1 L 234.1,286.2 L 234.6,286.6 L 234.5,286.8 L 234.1,287.0 L 233.9,287.0 L 233.7,287.1 L 233.7,287.5 L 233.5,287.5 L 233.2,287.7 L 232.9,288.2 L 232.6,288.4 L 232.6,288.6 L 232.5,288.8 L 232.2,288.9 L 231.8,288.9 L 231.7,288.8 L 231.6,288.6 L 231.6,288.4 L 231.3,288.2 L 231.1,288.1 L 230.8,288.2 L 230.4,288.3 L 229.8,288.6 L 229.6,288.7 L 229.3,289.0 L 228.1,290.2 L 227.9,290.5 L 227.6,291.0 L 227.0,291.0 L 226.7,291.3 L 226.5,291.3 L 226.4,291.2 L 226.5,291.0 L 226.6,290.9 L 226.9,290.8 L 226.9,290.7 L 226.8,290.6 L 226.6,290.7 L 226.6,290.3 L 226.3,290.3 L 225.9,290.1 L 225.7,290.2 L 225.5,290.1 L 225.2,290.1 L 225.0,290.3 L 224.4,290.3 L 224.3,290.5 L 224.4,290.6 L 224.8,290.8 L 225.3,290.7 L 225.4,290.9 L 225.3,291.0 L 225.1,290.9 L 224.5,290.8 L 224.4,290.9 L 224.3,291.0 L 224.2,291.2 L 223.4,291.4 L 223.1,291.6 L 223.1,291.9 L 223.2,292.2 L 223.2,292.8 L 223.5,293.3 L 223.5,293.6 L 222.6,293.5 L 222.2,293.7 L 222.1,293.7 L 221.6,293.6 L 221.2,293.8 L 221.1,293.9 L 220.6,294.7 L 219.3,294.7 L 218.9,294.5 L 218.0,294.4 L 217.7,294.5 L 217.0,294.9 L 216.4,295.3 L 216.2,295.4 L 216.0,295.6 L 215.7,295.8 L 215.3,295.7 L 214.3,295.6 L 213.8,295.8 L 212.9,295.8 L 212.0,295.5 L 211.0,295.3 L 210.0,295.3 L 209.8,295.2 L 209.6,294.9 L 209.4,294.9 L 209.1,294.9 L 208.6,295.1 L 208.5,295.0 L 208.6,294.9 L 208.8,294.5 L 208.7,294.5 L 208.1,294.5 L 207.8,294.3 L 207.4,294.2 L 207.2,294.3 L 207.1,294.6 L 206.8,294.9 L 206.4,295.1 L 205.9,295.4 L 205.6,295.7 L 205.1,295.8 L 205.0,295.7 L 204.9,295.3 L 204.9,294.8 L 204.9,294.5 L 204.8,294.4 L 203.9,294.3 L 203.7,294.3 L 203.3,294.3 L 203.1,294.6 L 202.9,295.2 L 202.9,295.4 L 202.8,295.7 L 202.8,296.4 L 202.7,296.9 L 202.3,297.9 L 202.3,298.3 L 202.2,298.6 L 202.0,298.6 L 201.9,298.5 L 201.6,298.5 L 201.3,298.7 L 201.4,299.2 L 201.3,299.6 L 201.2,299.9 L 201.2,300.0 L 201.2,300.4 L 201.2,300.7 L 201.0,301.1 L 200.5,301.5 L 199.9,301.9 L 199.5,302.0 L 199.0,302.2 L 198.7,302.3 L 198.4,302.2 L 198.3,302.3 L 198.3,302.5 L 198.3,302.7 L 198.2,302.8 L 197.6,303.3 L 197.1,303.9 L 196.8,304.0 L 195.8,304.5 L 195.6,304.7 L 195.3,305.3 L 195.1,305.9 L 194.8,306.5 L 194.4,306.8 L 193.9,306.9 L 193.6,307.3 L 193.5,307.4 L 193.6,307.6 L 193.3,308.2 L 193.2,308.3 L 193.5,308.4 L 193.5,309.2 L 193.2,309.7 L 193.3,310.1 L 193.0,310.6 L 192.8,310.7 L 192.7,311.4 L 192.9,311.7 L 193.3,312.1 L 193.6,312.1 L 193.7,312.3 L 193.9,312.4 L 194.3,312.4 L 194.4,312.6 L 194.5,312.8 L 195.3,313.2 L 195.7,313.4 L 196.7,314.0 L 197.2,314.4 L 197.9,314.8 L 198.6,315.3 L 199.3,316.0 L 199.8,316.6 L 200.0,317.0 L 200.1,317.2 L 200.3,318.0 L 200.6,318.6 L 201.3,318.6 L 201.6,318.9 L 202.1,318.9 L 202.3,319.0 L 202.9,319.3 L 203.4,319.7 L 203.9,320.0 L 205.0,320.2 L 205.5,320.5 L 206.1,321.2 L 206.3,321.3 L 206.7,321.8 L 207.0,322.4 L 207.2,323.0 L 207.1,323.7 L 206.9,324.2 L 206.8,324.7 L 206.3,326.8 L 206.1,327.9 L 205.8,328.8 L 205.5,329.6 L 205.3,330.0 L 205.0,330.2 L 204.8,330.0 L 204.5,330.0 L 204.1,329.9 L 203.7,329.9 L 203.0,330.4 L 202.3,330.5 L 201.8,330.5 L 201.7,330.4 L 201.0,330.4 L 200.5,330.5 L 200.5,330.7 L 200.4,330.7 L 200.1,330.7 L 199.9,330.7 L 199.8,331.0 L 199.6,331.1 L 199.4,331.1 L 199.3,331.2 L 199.3,331.4 L 199.2,331.6 L 198.8,331.8 L 198.7,332.0 L 198.8,332.2 L 198.7,332.4 L 198.5,332.4 L 198.2,332.3 L 197.7,332.4 L 197.6,332.8 L 197.7,333.0 L 198.1,333.3 L 198.1,333.4 L 197.9,333.3 L 197.6,333.2 L 197.4,333.4 L 196.9,333.4 L 196.7,333.4 L 196.5,333.6 L 196.4,333.7 L 195.9,333.7 L 195.6,333.4 L 195.3,333.4 L 195.2,333.4 L 195.0,333.5 L 194.4,333.8 L 194.4,333.9 L 194.6,334.3 L 194.6,334.9 L 194.9,335.0 L 194.9,335.2 L 194.7,335.2 L 194.5,334.9 L 194.3,334.9 L 194.2,335.0 L 194.1,334.5 L 193.9,334.3 L 193.7,334.3 L 193.7,334.5 L 193.2,334.5 L 192.7,335.3 L 191.9,336.4 L 191.7,336.8 L 191.8,337.1 L 192.4,337.6 L 192.6,337.6 L 193.3,336.6 L 193.4,336.8 L 193.4,337.2 L 193.4,337.4 L 193.1,337.8 L 192.8,338.4 L 192.7,338.5 L 192.4,338.3 L 192.2,338.5 L 192.2,338.7 L 192.4,339.0 L 192.1,339.3 L 192.1,339.5 L 191.9,339.9 L 191.8,340.1 L 191.9,340.3 L 192.5,340.3 L 192.9,340.5 L 193.1,340.3 L 193.4,340.0 L 193.9,339.8 L 194.5,339.2 L 194.5,339.0 L 194.6,338.8 L 194.7,338.5 L 194.9,338.1 L 195.0,338.2 L 195.2,338.3 L 195.2,338.6 L 195.0,339.1 L 194.7,339.2 L 194.3,339.6 L 193.1,340.8 L 192.7,341.4 L 192.3,341.7 L 192.1,341.8 L 191.7,342.1 L 191.6,342.1 L 108.1,360.0 L 108.5,359.8 L 109.1,359.2 L 109.6,358.9 L 109.7,358.9 L 110.0,358.8 L 110.3,358.5 L 110.3,358.3 L 110.4,358.3 L 110.6,358.0 L 110.5,358.0 L 110.4,357.7 L 110.1,357.8 L 109.6,358.3 L 109.1,358.5 L 108.7,358.8 L 107.9,359.3 L 107.9,359.3 L 107.9,359.3 L 107.5,358.2 L 107.5,358.2 L 107.6,358.2 L 108.0,357.8 L 108.5,357.4 L 108.9,357.0 L 109.2,356.6 L 109.9,356.5 L 110.3,356.2 L 110.8,355.8 L 111.3,355.3 L 111.8,355.0 L 112.0,354.8 L 112.1,354.9 L 111.9,355.2 L 111.3,355.7 L 111.1,356.0 L 111.1,356.2 L 111.2,356.4 L 111.5,356.4 L 111.6,356.5 L 111.5,356.6 L 111.5,356.8 L 111.7,356.7 L 112.0,356.4 L 114.1,354.8 L 114.7,354.2 L 115.0,353.8 L 115.7,353.4 L 115.9,353.3 L 116.8,352.3 L 117.2,351.9 L 117.9,351.4 L 118.7,350.3 L 118.8,350.1 L 118.9,349.9 L 119.1,349.8 L 119.1,349.8 L 119.3,349.8 L 119.4,349.5 L 119.6,349.4 L 119.8,349.3 L 120.0,349.2 L 121.5,348.2 L 121.4,347.7 L 121.1,347.7 L 121.1,347.5 L 121.8,346.7 L 121.7,346.5 L 121.6,346.5 L 121.5,346.7 L 121.4,346.4 L 121.2,346.5 L 121.0,346.7 L 120.8,346.7 L 120.9,346.6 L 122.0,345.5 L 122.1,345.1 L 122.5,344.9 L 122.5,344.7 L 122.4,344.7 L 122.5,344.3 L 122.3,344.2 L 122.0,344.3 L 122.0,344.1 L 122.3,343.8 L 122.7,343.6 L 123.0,343.6 L 123.4,343.1 L 123.6,342.8 L 123.7,342.4 L 123.9,342.3 L 124.1,342.2 L 124.7,342.2 L 125.3,341.8 L 125.5,341.8 L 126.0,341.3 L 126.2,341.2 L 126.3,341.0 L 126.4,340.8 L 126.5,340.8 L 126.8,340.5 L 127.0,339.7 L 127.0,339.6 L 126.9,339.5 L 126.9,339.4 L 127.4,338.8 L 127.4,338.4 L 127.5,338.1 L 127.0,337.6 L 126.8,337.8 L 125.6,338.4 L 125.3,338.6 L 124.6,339.5 L 124.5,339.5 L 124.1,339.4 L 123.8,339.4 L 123.2,339.7 L 123.0,339.6 L 122.6,340.0 L 121.5,340.5 L 121.3,340.7 L 121.0,340.9 L 120.6,341.1 L 120.1,342.7 L 119.9,342.9 L 119.7,343.4 L 119.2,344.3 L 119.2,344.5 L 119.3,344.6 L 119.3,345.0 L 119.7,345.2 L 120.1,345.3 L 120.2,345.6 L 119.9,345.6 L 119.7,345.4 L 119.4,345.4 L 119.0,345.7 L 118.4,346.1 L 117.9,346.9 L 117.3,347.5 L 117.2,347.9 L 117.4,348.0 L 117.2,348.2 L 116.9,348.4 L 116.5,348.7 L 116.1,349.2 L 116.0,349.6 L 115.7,350.2 L 115.4,350.5 L 115.1,350.9 L 115.1,351.0 L 115.3,351.0 L 115.7,350.8 L 116.1,350.4 L 116.6,350.0 L 116.8,349.7 L 116.8,349.2 L 116.7,349.2 L 116.8,349.0 L 117.5,348.5 L 117.7,348.3 L 117.9,348.2 L 117.9,348.3 L 117.6,348.9 L 117.5,349.4 L 117.4,349.6 L 116.7,350.2 L 116.5,350.3 L 116.1,350.6 L 115.9,351.0 L 115.6,351.3 L 115.1,351.4 L 114.4,351.7 L 114.4,352.1 L 114.3,352.3 L 114.1,352.2 L 114.0,352.3 L 113.8,352.6 L 113.6,353.0 L 113.2,353.5 L 113.1,353.8 L 113.0,353.9 L 112.7,353.9 L 112.5,354.0 L 112.3,354.0 L 112.1,353.8 L 112.1,353.5 L 112.1,353.4 L 111.5,353.6 L 110.9,354.1 L 110.8,354.1 L 110.8,354.1 L 110.7,353.5 L 110.8,353.5 L 111.2,353.2 L 111.2,353.1 L 111.8,352.5 L 112.4,352.2 L 112.5,352.1 L 113.0,351.9 L 113.8,351.2 L 114.1,350.7 L 114.1,350.2 L 114.4,350.0 L 114.7,349.8 L 114.9,349.6 L 115.3,349.1 L 116.0,348.5 L 116.6,347.9 L 117.3,346.8 L 117.6,346.5 L 117.9,346.2 L 118.1,345.6 L 118.4,345.3 L 118.8,344.5 L 118.8,344.2 L 118.7,344.1 L 118.7,343.9 L 118.6,343.7 L 118.4,343.5 L 118.2,343.7 L 118.2,344.1 L 118.1,344.2 L 117.8,344.3 L 116.9,345.1 L 116.6,345.2 L 116.4,345.5 L 116.4,345.9 L 116.0,346.5 L 116.0,346.7 L 115.6,347.3 L 114.9,348.0 L 114.5,348.6 L 114.2,349.1 L 113.8,349.2 L 113.6,349.3 L 113.6,349.1 L 113.5,349.0 L 113.1,349.2 L 112.5,349.6 L 112.2,349.7 L 111.7,350.0 L 111.0,350.5 L 110.4,351.1 L 110.2,351.3 L 110.1,351.5 L 109.6,351.5 L 109.3,351.6 L 109.2,351.7 L 109.2,351.6 L 106.6,337.4 L 106.7,337.3 L 106.8,336.9 L 107.0,336.8 L 107.1,335.8 L 107.3,335.4 L 107.3,334.8 L 107.4,334.4 L 107.4,334.2 L 107.6,333.8 L 107.6,333.7 L 107.6,333.6 L 107.8,333.3 L 107.6,333.0 L 107.8,332.8 L 107.8,332.6 L 107.7,332.5 L 107.6,332.5 L 107.4,332.4 L 107.2,332.5 L 106.9,332.6 L 105.3,334.0 L 105.2,334.2 L 105.1,334.4 L 105.1,334.4 L 105.1,334.4 L 104.0,332.6 L 104.0,332.5 L 104.8,331.4 L 105.0,330.9 L 105.4,330.3 L 105.4,329.7 L 105.3,329.6 L 105.1,329.6 L 104.8,329.9 L 104.8,330.0 L 104.8,329.9 L 104.8,329.9 L 105.0,329.6 L 105.1,329.3 L 105.2,329.1 L 105.3,328.8 L 105.2,328.7 L 105.0,328.8 L 104.7,329.4 L 104.6,329.5 L 104.6,329.4 L 103.8,326.8 L 103.6,326.2 L 104.5,325.6 L 104.9,325.1 L 105.0,324.7 L 105.1,324.5 L 105.2,324.6 L 105.2,324.7 L 105.1,324.9 L 105.2,325.1 L 105.7,325.0 L 106.1,324.8 L 106.5,324.4 L 106.7,324.0 L 106.7,323.8 L 107.0,323.4 L 107.2,323.0 L 107.2,322.7 L 107.3,322.6" fill="none" stroke="black" stroke-width="2"/>
</svg>