<?xml version="1.0" encoding="UTF-8"?>
<svg width="400" height="400" viewBox="0 0 400 400" xmlns="http://www.w3.org/2000/svg">
  <rect width="400" height="400" fill="white"/>
  <path d="M 94.4,292.9 L 94.4,292.9 L 168.7,205.9 L 168.7,205.8 L 168.7,205.9 L 168.9,206.0 L 168.9,207.0 L 169.0,207.0 L 169.4,206.5 L 169.8,205.7 L 169.8,205.0 L 169.9,204.9 L 170.0,204.9 L 170.0,205.5 L 170.1,205.7 L 170.1,206.1 L 170.5,206.6 L 170.6,207.1 L 170.8,207.1 L 171.3,206.8 L 171.6,206.8 L 171.6,207.3 L 171.7,207.5 L 171.9,207.5 L 172.4,207.0 L 172.6,206.9 L 172.8,207.0 L 173.2,207.0 L 173.4,206.7 L 173.6,206.0 L 173.9,205.5 L 173.9,205.3 L 173.7,205.1 L 173.8,204.9 L 174.3,204.7 L 174.7,204.3 L 175.0,203.8 L 175.8,202.8 L 175.9,202.5 L 176.0,202.5 L 176.1,202.6 L 175.9,203.0 L 175.9,203.3 L 176.2,203.6 L 176.4,203.5 L 176.6,203.4 L 176.7,203.2 L 176.7,202.5 L 176.8,202.4 L 177.2,202.5 L 177.4,202.4 L 177.7,202.3 L 177.9,202.3 L 178.4,201.9 L 178.9,201.4 L 179.2,200.8 L 179.4,200.7 L 179.9,200.6 L 180.1,200.4 L 180.2,200.0 L 180.2,199.5 L 180.7,199.0 L 180.8,198.7 L 180.7,198.4 L 181.3,197.9 L 181.5,197.4 L 182.0,196.8 L 182.0,196.6 L 181.5,196.2 L 181.5,196.1 L 181.6,195.9 L 181.7,195.7 L 182.1,195.4 L 182.5,195.4 L 182.8,195.4 L 183.0,195.5 L 183.0,195.8 L 183.2,196.1 L 183.3,196.0 L 183.3,195.6 L 183.6,195.4 L 184.1,195.3 L 185.0,195.4 L 185.3,195.5 L 185.4,195.6 L 185.3,196.0 L 185.3,196.2 L 185.4,196.4 L 185.7,196.5 L 185.8,196.3 L 186.1,196.3 L 186.2,196.4 L 186.4,196.5 L 186.7,197.0 L 186.9,197.2 L 187.0,197.2 L 187.4,196.8 L 187.5,196.5 L 187.7,196.3 L 187.7,196.2 L 187.8,195.9 L 188.7,195.9 L 189.0,196.0 L 189.0,196.2 L 189.3,196.5 L 189.5,196.6 L 189.9,196.5 L 190.2,196.3 L 190.6,195.8 L 190.9,195.7 L 191.2,195.8 L 191.4,195.7 L 191.7,195.6 L 192.3,195.6 L 192.8,196.0 L 193.0,196.1 L 193.9,196.2 L 194.2,196.2 L 194.4,196.0 L 195.2,195.9 L 195.7,196.1 L 195.8,196.3 L 196.0,196.5 L 196.4,196.3 L 196.9,196.0 L 197.7,196.0 L 198.2,196.2 L 198.2,196.2 L 198.6,196.2 L 199.1,195.7 L 199.8,195.5 L 200.4,195.2 L 201.0,194.8 L 201.8,194.2 L 202.1,194.1 L 202.9,193.9 L 203.2,193.7 L 203.7,193.7 L 204.0,193.5 L 204.2,193.1 L 205.2,193.1 L 205.8,192.5 L 206.5,192.2 L 206.8,191.8 L 207.0,191.9 L 207.1,192.1 L 207.0,192.4 L 207.0,192.5 L 207.5,192.2 L 207.9,192.0 L 208.3,191.8 L 208.6,191.5 L 208.9,191.1 L 209.0,191.2 L 209.1,191.3 L 209.3,191.2 L 209.6,190.9 L 210.2,189.9 L 210.7,189.6 L 211.0,189.3 L 211.2,189.3 L 211.7,189.4 L 212.2,189.3 L 212.6,188.9 L 213.1,188.4 L 213.5,187.9 L 213.7,187.8 L 214.0,187.8 L 214.0,187.7 L 214.0,187.5 L 214.3,187.3 L 214.9,187.2 L 215.4,187.1 L 215.6,187.2 L 215.6,187.7 L 215.9,187.7 L 216.2,187.5 L 216.4,187.3 L 216.7,187.2 L 217.1,187.0 L 217.7,186.5 L 218.6,186.3 L 220.4,185.1 L 221.0,184.6 L 221.3,184.4 L 221.8,184.5 L 221.9,184.8 L 222.2,184.8 L 222.3,184.9 L 222.3,185.1 L 222.6,185.0 L 223.3,184.4 L 223.4,184.0 L 223.6,183.9 L 223.8,184.0 L 224.0,184.2 L 224.2,184.2 L 225.1,183.3 L 225.2,183.2 L 225.9,182.5 L 226.0,182.4 L 227.3,181.0 L 227.7,180.8 L 228.0,180.7 L 228.5,180.8 L 228.9,181.0 L 229.4,181.4 L 229.5,181.5 L 229.8,181.7 L 229.9,182.0 L 229.9,182.5 L 230.3,183.3 L 230.3,184.4 L 230.5,184.7 L 230.6,184.7 L 230.9,184.4 L 231.2,183.9 L 231.8,183.1 L 232.0,182.6 L 232.1,182.5 L 232.6,181.8 L 232.9,181.9 L 233.0,182.0 L 232.9,182.3 L 232.7,182.5 L 232.4,183.2 L 232.1,183.4 L 232.0,184.2 L 232.3,184.2 L 232.6,184.4 L 232.7,184.5 L 232.3,185.2 L 232.3,186.0 L 232.5,186.0 L 232.8,185.5 L 233.0,185.2 L 233.8,184.0 L 234.2,182.9 L 234.3,182.6 L 234.6,182.1 L 234.8,181.8 L 235.1,181.5 L 235.7,180.6 L 236.0,180.3 L 235.9,180.1 L 236.0,179.7 L 235.8,179.0 L 235.8,178.9 L 235.7,178.9 L 235.1,178.8 L 234.8,178.5 L 234.9,178.1 L 235.7,177.4 L 236.0,176.8 L 236.1,176.3 L 236.1,175.9 L 236.0,175.6 L 236.5,174.2 L 236.9,173.5 L 236.9,173.3 L 237.0,173.0 L 237.1,172.4 L 237.4,171.7 L 237.5,171.3 L 237.4,171.0 L 237.6,170.5 L 237.5,169.5 L 237.2,169.2 L 236.9,169.2 L 236.9,169.2 L 236.7,169.2 L 236.3,169.0 L 236.2,168.6 L 236.1,167.9 L 235.9,167.6 L 235.3,167.5 L 234.5,166.5 L 233.9,165.8 L 233.8,165.6 L 233.7,165.5 L 233.5,165.8 L 233.1,166.0 L 232.4,166.0 L 232.1,166.1 L 231.8,166.2 L 230.9,165.9 L 230.6,165.8 L 230.6,165.7 L 231.2,165.7 L 231.2,165.6 L 229.9,164.5 L 229.9,163.7 L 229.7,163.6 L 229.4,163.4 L 229.4,163.2 L 229.2,163.1 L 228.6,162.7 L 228.1,162.2 L 228.0,161.4 L 227.9,161.1 L 227.6,160.9 L 227.5,160.4 L 227.4,160.0 L 227.2,159.9 L 227.2,159.6 L 226.7,159.0 L 226.5,158.9 L 226.3,158.4 L 226.3,158.2 L 225.9,157.5 L 225.7,156.7 L 225.6,156.6 L 225.4,156.4 L 225.1,155.8 L 223.7,154.1 L 223.5,153.6 L 223.2,153.3 L 223.1,153.4 L 222.9,153.6 L 222.6,153.5 L 221.5,152.9 L 221.2,152.7 L 220.8,152.6 L 220.4,152.1 L 220.2,151.9 L 219.5,151.9 L 218.7,151.4 L 218.0,151.1 L 215.9,150.5 L 217.9,143.1 L 218.6,143.7 L 218.9,144.0 L 219.7,144.4 L 219.9,144.4 L 220.0,144.1 L 219.9,143.8 L 219.8,143.5 L 219.7,143.1 L 218.6,142.6 L 218.1,142.4 L 223.0,124.7 L 223.5,125.0 L 224.0,124.9 L 224.1,124.8 L 224.2,124.6 L 224.7,124.5 L 225.1,124.6 L 225.2,124.5 L 225.4,124.4 L 225.0,124.0 L 224.9,123.7 L 224.8,123.5 L 224.9,123.2 L 224.7,122.9 L 224.2,122.6 L 224.2,122.5 L 224.5,122.4 L 224.5,122.3 L 224.5,121.9 L 224.4,121.5 L 224.5,121.4 L 224.1,120.7 L 224.1,120.3 L 224.0,120.0 L 223.7,119.7 L 223.5,119.3 L 223.6,118.8 L 223.7,118.4 L 223.5,118.2 L 223.5,118.1 L 223.4,117.9 L 223.4,117.7 L 223.2,117.7 L 223.1,117.6 L 223.2,117.3 L 223.5,117.3 L 224.0,117.5 L 224.6,117.1 L 224.9,116.9 L 224.9,116.7 L 224.5,116.3 L 224.4,116.0 L 224.4,115.7 L 224.2,115.5 L 223.9,115.2 L 223.9,115.0 L 224.1,114.7 L 224.2,114.5 L 224.1,114.3 L 223.9,114.1 L 224.0,113.9 L 224.3,113.6 L 224.2,113.2 L 223.9,112.7 L 223.8,112.4 L 223.9,112.3 L 224.5,112.0 L 224.8,111.7 L 224.9,111.4 L 224.9,110.9 L 225.0,110.5 L 225.7,109.6 L 226.4,108.8 L 227.0,108.2 L 227.3,108.2 L 227.8,108.4 L 228.0,108.6 L 228.0,108.9 L 227.8,109.1 L 227.5,109.7 L 227.4,110.2 L 227.3,110.4 L 227.6,110.8 L 227.3,111.1 L 227.3,111.2 L 227.2,111.4 L 227.2,111.5 L 227.5,111.8 L 227.6,111.9 L 227.5,112.1 L 226.9,112.9 L 226.9,113.1 L 227.0,113.8 L 226.7,114.0 L 226.7,114.3 L 226.9,114.3 L 227.0,114.1 L 227.2,114.2 L 227.2,114.4 L 226.7,114.4 L 226.5,114.8 L 226.5,115.3 L 227.0,115.8 L 226.9,116.0 L 227.0,116.1 L 227.0,116.3 L 227.1,116.6 L 227.0,116.7 L 226.8,116.5 L 226.5,116.5 L 226.3,116.6 L 226.4,116.9 L 226.3,117.3 L 226.3,118.0 L 226.3,118.3 L 226.4,118.4 L 226.4,119.6 L 226.6,119.9 L 226.6,120.2 L 226.5,120.5 L 226.5,120.8 L 226.3,121.1 L 226.4,121.4 L 226.3,121.5 L 226.5,121.6 L 226.6,121.8 L 226.6,122.0 L 226.3,122.5 L 226.3,122.7 L 226.3,123.7 L 226.4,123.9 L 226.4,124.1 L 226.9,124.7 L 227.4,125.1 L 227.9,125.2 L 228.1,125.2 L 228.2,125.0 L 228.4,124.8 L 228.4,124.4 L 228.9,124.3 L 229.2,124.5 L 229.6,124.5 L 229.7,124.6 L 230.9,124.6 L 231.2,124.5 L 231.4,124.4 L 231.9,124.2 L 231.8,123.9 L 231.9,123.4 L 232.3,122.9 L 232.2,122.5 L 231.9,122.2 L 231.8,121.6 L 231.9,121.1 L 232.0,120.8 L 232.0,120.4 L 232.1,120.4 L 233.8,120.5 L 234.1,120.6 L 234.2,120.4 L 234.7,120.6 L 234.8,120.5 L 234.9,120.2 L 235.2,120.0 L 235.2,119.7 L 235.4,119.7 L 236.0,119.5 L 236.9,119.5 L 237.8,119.5 L 238.0,119.7 L 238.4,119.9 L 239.0,120.3 L 239.4,120.3 L 239.7,120.1 L 239.9,119.5 L 239.9,119.1 L 240.1,119.0 L 240.8,119.0 L 240.9,118.9 L 240.9,118.7 L 240.9,118.6 L 241.2,118.7 L 241.4,118.9 L 241.6,118.9 L 241.7,118.7 L 242.1,118.7 L 242.3,118.6 L 242.3,118.8 L 241.8,119.3 L 241.8,119.5 L 242.3,119.8 L 242.4,119.9 L 242.3,120.3 L 242.1,120.5 L 241.5,120.5 L 241.2,120.6 L 240.6,121.2 L 240.1,121.4 L 239.6,121.8 L 239.2,121.9 L 238.9,122.1 L 238.1,122.7 L 237.8,123.3 L 237.7,124.0 L 237.5,124.3 L 237.5,124.4 L 237.7,124.6 L 237.7,124.7 L 237.2,125.6 L 237.2,125.9 L 237.3,126.1 L 237.5,126.2 L 238.0,126.1 L 238.8,125.9 L 239.2,125.6 L 239.5,125.4 L 239.6,125.0 L 239.8,124.8 L 239.8,124.7 L 240.1,124.7 L 240.2,124.5 L 240.2,124.3 L 240.4,124.2 L 240.4,124.0 L 240.6,123.9 L 241.0,123.9 L 241.1,124.1 L 241.1,124.3 L 241.1,124.4 L 241.4,124.4 L 242.2,124.6 L 242.4,124.7 L 242.7,124.7 L 242.9,124.6 L 243.2,124.3 L 243.3,124.5 L 243.1,124.7 L 243.0,125.0 L 243.3,125.2 L 243.5,125.2 L 243.7,125.1 L 244.0,124.7 L 244.0,124.8 L 244.0,124.9 L 244.1,125.1 L 244.3,125.2 L 244.5,124.8 L 244.6,124.8 L 244.7,125.3 L 244.4,125.9 L 244.6,126.1 L 245.0,126.2 L 245.5,126.2 L 246.0,125.8 L 246.2,125.8 L 246.5,126.0 L 246.7,126.0 L 246.9,125.9 L 247.2,125.8 L 247.5,125.4 L 247.8,125.1 L 248.1,124.7 L 248.4,124.7 L 248.6,124.4 L 248.8,124.1 L 249.1,123.7 L 249.4,123.7 L 249.7,123.4 L 250.3,123.2 L 250.8,122.8 L 250.9,122.7 L 251.4,123.0 L 251.6,123.1 L 251.6,123.3 L 250.6,123.9 L 250.2,124.4 L 250.2,125.0 L 250.4,125.2 L 250.6,125.2 L 250.9,125.1 L 251.2,125.2 L 251.5,125.2 L 251.9,124.9 L 252.2,124.9 L 252.4,124.7 L 252.4,124.4 L 252.6,123.9 L 252.9,123.7 L 253.7,123.7 L 254.1,123.4 L 254.3,123.4 L 254.5,123.0 L 254.7,123.1 L 255.0,123.5 L 254.9,123.7 L 254.2,124.6 L 253.9,125.0 L 253.4,125.6 L 253.1,126.1 L 253.3,126.7 L 253.2,126.8 L 253.0,126.8 L 252.7,127.0 L 252.2,127.6 L 251.3,129.3 L 251.2,129.5 L 251.4,129.7 L 252.4,130.0 L 252.6,130.0 L 252.8,129.9 L 252.8,129.5 L 252.6,129.2 L 252.4,128.9 L 252.4,128.1 L 252.5,128.0 L 252.9,128.0 L 253.7,128.3 L 253.9,128.5 L 254.2,128.6 L 254.9,128.6 L 255.8,128.3 L 256.1,128.3 L 256.5,128.1 L 256.7,127.8 L 257.3,127.8 L 257.6,127.7 L 257.9,127.9 L 258.3,127.8 L 258.8,127.7 L 259.6,127.1 L 259.9,126.8 L 260.3,126.5 L 260.7,126.1 L 260.8,125.8 L 260.9,125.7 L 261.1,125.8 L 261.3,126.0 L 261.7,126.0 L 262.1,125.7 L 262.4,125.7 L 262.8,125.6 L 263.3,125.5 L 263.8,125.3 L 263.9,125.3 L 262.9,126.5 L 262.1,127.2 L 262.0,127.4 L 262.1,127.5 L 263.2,127.5 L 263.8,127.4 L 264.2,127.1 L 264.4,126.7 L 264.4,126.6 L 264.6,126.4 L 265.1,126.3 L 265.3,125.9 L 265.2,125.8 L 265.0,125.6 L 265.2,125.3 L 265.8,125.2 L 266.2,125.0 L 266.3,125.2 L 266.5,125.2 L 266.7,125.1 L 266.9,125.2 L 267.3,125.1 L 267.8,124.5 L 267.8,124.1 L 268.2,123.4 L 268.7,123.2 L 269.1,123.1 L 269.6,122.4 L 270.2,122.2 L 270.3,121.9 L 270.7,121.6 L 271.1,121.0 L 271.4,120.8 L 271.7,120.5 L 271.9,119.7 L 272.1,119.5 L 272.4,119.7 L 272.7,119.7 L 272.7,119.5 L 272.7,119.4 L 273.4,119.4 L 273.5,119.2 L 273.5,119.0 L 273.3,118.7 L 273.3,118.4 L 273.5,118.4 L 274.0,118.4 L 274.6,118.0 L 274.6,117.7 L 274.8,117.5 L 275.0,117.1 L 274.9,116.9 L 274.6,116.6 L 274.4,116.4 L 274.2,116.5 L 274.0,116.7 L 273.9,116.8 L 273.8,116.5 L 274.1,116.2 L 274.0,116.1 L 273.4,115.7 L 273.2,115.2 L 273.3,115.2 L 273.6,115.3 L 273.8,115.3 L 273.9,115.0 L 273.7,114.8 L 273.4,114.6 L 273.2,114.5 L 272.9,114.2 L 272.6,114.2 L 272.5,114.0 L 272.4,113.5 L 272.2,113.2 L 272.1,113.2 L 271.7,112.8 L 271.5,112.7 L 271.1,112.8 L 270.9,113.0 L 271.1,113.4 L 271.0,113.5 L 270.6,113.4 L 270.4,113.5 L 270.2,113.9 L 270.2,114.2 L 269.8,114.4 L 269.4,114.5 L 269.1,114.6 L 268.9,114.6 L 268.8,114.5 L 268.8,114.3 L 268.6,114.0 L 268.3,114.0 L 267.6,114.1 L 267.3,114.0 L 267.1,113.6 L 266.9,113.3 L 266.3,113.0 L 266.2,112.7 L 266.2,112.7 L 274.5,101.0 L 274.8,101.3 L 275.0,101.3 L 275.2,101.2 L 275.2,100.9 L 274.9,100.6 L 274.8,100.6 L 274.7,100.7 L 274.8,100.5 L 274.8,100.5 L 274.9,100.6 L 275.0,100.5 L 274.9,100.4 L 275.1,100.1 L 275.6,100.3 L 275.6,100.3 L 276.1,100.4 L 276.5,100.4 L 276.6,100.3 L 276.3,100.1 L 276.5,99.9 L 276.3,99.8 L 275.6,99.6 L 275.5,99.6 L 275.5,99.6 L 276.2,98.6 L 276.4,98.7 L 276.7,99.0 L 277.0,99.0 L 277.0,98.8 L 276.4,98.4 L 276.4,98.4 L 276.8,97.7 L 276.8,97.7 L 277.3,98.1 L 278.0,98.7 L 278.6,98.8 L 279.1,98.9 L 279.4,98.9 L 279.5,98.7 L 279.5,97.8 L 280.0,97.3 L 279.9,96.9 L 279.8,96.7 L 279.9,96.2 L 280.0,96.0 L 279.7,95.4 L 279.7,95.1 L 279.0,94.2 L 278.8,93.9 L 278.5,93.4 L 278.7,93.3 L 279.1,93.4 L 279.1,93.2 L 278.8,92.9 L 278.6,92.3 L 278.7,92.0 L 278.4,91.4 L 278.4,91.2 L 278.5,91.0 L 278.7,91.4 L 279.1,92.0 L 279.3,92.5 L 279.8,93.5 L 280.0,93.7 L 280.5,94.0 L 280.7,94.1 L 280.4,94.3 L 280.3,95.2 L 280.8,95.5 L 281.1,95.8 L 281.4,95.9 L 281.9,95.8 L 282.3,95.6 L 282.4,95.5 L 282.5,95.1 L 282.8,94.8 L 282.9,94.5 L 283.6,93.8 L 284.3,92.7 L 284.9,92.2 L 285.1,91.7 L 285.3,91.3 L 285.3,90.9 L 285.5,90.7 L 286.0,90.6 L 286.3,90.3 L 286.6,89.9 L 286.9,89.5 L 288.0,88.4 L 288.0,88.2 L 288.0,88.0 L 288.3,87.7 L 288.6,87.2 L 289.0,86.7 L 289.2,86.3 L 289.7,85.7 L 290.0,85.5 L 290.2,85.2 L 290.4,84.7 L 290.6,84.4 L 290.7,84.2 L 291.2,83.8 L 291.2,83.7 L 291.9,83.4 L 292.1,83.2 L 292.4,82.9 L 292.9,82.6 L 293.0,82.0 L 293.3,81.6 L 294.0,79.4 L 294.4,78.6 L 294.8,78.4 L 295.0,78.3 L 295.2,77.7 L 295.7,77.4 L 295.9,77.2 L 296.6,76.1 L 296.8,75.4 L 297.3,74.7 L 297.5,74.2 L 297.6,73.7 L 297.8,73.4 L 298.3,73.0 L 298.3,72.7 L 298.6,72.4 L 298.8,71.8 L 298.9,71.6 L 299.0,71.5 L 299.4,71.5 L 299.8,71.3 L 300.2,71.3 L 300.2,71.4 L 299.5,72.2 L 299.1,72.8 L 298.9,73.5 L 298.7,73.7 L 298.2,74.5 L 298.2,75.5 L 298.3,75.6 L 298.6,75.4 L 298.8,75.3 L 298.9,74.8 L 299.2,74.5 L 300.3,74.1 L 300.4,74.1 L 300.4,74.4 L 300.1,74.9 L 299.9,75.0 L 299.4,75.3 L 299.4,75.5 L 299.4,75.6 L 299.5,75.8 L 299.5,75.9 L 299.7,75.8 L 300.4,75.0 L 300.7,74.8 L 301.2,74.1 L 301.2,73.9 L 301.0,73.7 L 301.3,73.4 L 301.4,73.2 L 301.6,73.1 L 301.8,72.6 L 302.0,72.1 L 301.9,71.9 L 301.7,71.7 L 301.5,71.6 L 300.8,71.5 L 300.6,71.2 L 300.7,70.8 L 300.7,70.7 L 300.8,70.5 L 300.9,70.7 L 301.1,70.9 L 301.4,71.0 L 301.9,71.5 L 302.2,71.4 L 302.3,71.2 L 302.3,71.0 L 302.2,70.9 L 302.2,70.8 L 302.3,70.8 L 302.6,70.9 L 302.8,70.9 L 302.9,70.8 L 303.0,70.6 L 303.8,70.6 L 304.5,70.1 L 304.7,69.9 L 305.3,69.8 L 306.0,69.1 L 306.4,68.9 L 306.8,68.8 L 307.0,68.6 L 307.0,68.4 L 306.6,67.7 L 306.9,67.2 L 307.1,67.2 L 307.3,67.3 L 307.4,67.8 L 307.5,68.0 L 307.6,68.0 L 308.1,67.8 L 308.3,67.6 L 308.6,67.0 L 308.6,66.7 L 308.3,66.3 L 308.2,66.0 L 308.2,65.8 L 308.4,65.2 L 308.7,65.1 L 309.2,65.0 L 309.5,65.2 L 309.5,65.4 L 309.3,66.2 L 309.5,66.3 L 309.8,66.3 L 311.5,65.3 L 311.6,65.0 L 311.9,65.0 L 312.1,65.1 L 312.2,64.9 L 312.3,64.5 L 312.2,64.3 L 312.0,64.0 L 311.9,64.0 L 311.7,64.2 L 311.5,64.6 L 311.1,64.7 L 310.7,64.5 L 310.7,64.3 L 311.1,64.1 L 311.5,63.0 L 311.4,62.9 L 311.3,62.7 L 311.0,62.7 L 310.9,62.5 L 311.0,62.5 L 311.1,62.3 L 310.9,62.1 L 310.5,62.2 L 310.3,62.5 L 309.5,62.5 L 308.9,62.4 L 308.3,62.5 L 307.8,62.9 L 307.7,63.0 L 307.5,62.9 L 307.1,63.2 L 306.7,63.5 L 306.4,63.5 L 306.1,63.7 L 305.6,64.6 L 305.4,64.7 L 304.7,64.7 L 304.5,64.6 L 304.5,64.4 L 304.9,63.9 L 305.0,63.8 L 304.9,63.5 L 304.7,62.9 L 304.5,61.9 L 304.5,61.3 L 304.3,60.8 L 304.0,60.2 L 303.8,59.8 L 303.7,59.1 L 303.5,59.0 L 303.1,59.0 L 302.8,58.7 L 302.5,58.6 L 302.2,58.4 L 301.8,58.4 L 301.6,58.0 L 301.3,57.9 L 301.1,57.5 L 300.8,57.3 L 299.9,56.5 L 299.6,56.4 L 299.4,55.9 L 299.0,55.6 L 298.6,55.2 L 297.9,54.6 L 297.8,54.2 L 297.8,53.8 L 297.5,52.9 L 297.5,52.9 L 298.3,51.7 L 298.4,51.7 L 299.1,52.4 L 299.5,52.8 L 299.8,53.2 L 300.4,53.5 L 300.7,53.9 L 300.9,54.0 L 301.1,54.2 L 301.3,54.4 L 301.6,54.4 L 301.8,54.2 L 302.1,54.3 L 302.7,54.6 L 303.1,54.8 L 303.8,55.2 L 304.3,55.2 L 304.7,55.2 L 305.3,55.4 L 306.0,55.7 L 306.1,55.9 L 307.2,56.5 L 307.8,56.6 L 308.2,56.8 L 308.7,56.7 L 308.9,56.5 L 308.7,55.5 L 308.3,55.3 L 308.2,55.0 L 308.4,54.7 L 308.8,54.4 L 309.0,54.0 L 309.2,53.9 L 309.5,53.7 L 309.8,53.1 L 310.0,53.0 L 310.6,53.0 L 310.8,52.9 L 311.4,52.9 L 311.6,53.0 L 311.4,53.4 L 311.6,53.6 L 311.5,53.8 L 311.5,54.1 L 311.8,54.4 L 311.9,54.3 L 312.0,54.1 L 312.1,53.8 L 312.0,53.7 L 312.2,53.6 L 312.3,53.6 L 312.8,52.7 L 313.1,52.6 L 313.3,52.4 L 313.2,52.2 L 313.3,52.0 L 313.6,51.9 L 313.9,52.0 L 314.0,52.1 L 313.1,53.7 L 313.1,54.0 L 313.4,54.3 L 313.5,54.6 L 313.7,54.4 L 314.1,54.4 L 314.3,54.2 L 314.5,54.0 L 315.2,53.7 L 315.4,53.5 L 315.5,53.3 L 315.7,53.3 L 315.9,52.9 L 315.9,52.7 L 315.7,52.6 L 315.6,52.4 L 315.6,52.1 L 315.7,51.8 L 315.4,51.3 L 315.2,51.2 L 314.4,51.6 L 314.3,51.5 L 314.2,51.3 L 314.0,50.7 L 314.0,50.6 L 314.2,50.4 L 314.3,50.4 L 314.5,50.3 L 314.9,49.7 L 315.7,49.1 L 315.9,48.6 L 316.1,48.7 L 316.4,48.9 L 316.3,49.0 L 316.0,49.4 L 316.0,49.7 L 315.7,49.9 L 315.5,50.1 L 315.6,50.2 L 315.8,50.5 L 315.9,50.4 L 316.0,50.3 L 316.2,50.1 L 316.3,49.9 L 316.6,49.9 L 316.9,49.5 L 317.0,49.4 L 317.1,49.5 L 317.9,49.9 L 318.2,49.8 L 318.4,49.6 L 318.7,49.5 L 318.8,49.3 L 319.2,48.8 L 319.4,48.3 L 319.8,47.5 L 319.7,46.7 L 319.8,46.5 L 320.0,46.4 L 320.2,46.1 L 320.4,46.2 L 320.6,46.1 L 320.7,46.0 L 321.1,45.3 L 321.9,43.9 L 322.2,43.7 L 322.6,42.5 L 322.6,41.9 L 322.7,41.8 L 322.6,41.5 L 322.7,41.2 L 322.7,41.0 L 322.6,40.9 L 322.9,40.1 L 322.9,40.0 L 347.0,45.2 L 347.0,45.2 L 346.8,45.6 L 346.8,46.7 L 346.2,47.8 L 345.6,49.5 L 345.4,49.8 L 344.8,51.0 L 344.8,51.3 L 344.5,51.9 L 344.3,52.5 L 343.8,53.2 L 343.8,53.4 L 343.9,54.0 L 343.8,54.5 L 343.8,54.8 L 344.2,55.0 L 344.4,55.3 L 344.5,55.3 L 345.0,55.4 L 345.2,55.5 L 345.2,55.6 L 345.1,56.1 L 345.1,56.8 L 345.4,57.2 L 345.8,57.5 L 346.3,57.4 L 347.2,57.1 L 347.5,56.9 L 347.9,56.9 L 348.0,57.1 L 348.2,57.3 L 349.0,57.5 L 349.9,57.5 L 350.5,57.4 L 351.2,57.4 L 351.5,57.4 L 351.9,57.1 L 352.4,56.9 L 352.5,56.9 L 352.6,57.0 L 352.4,57.4 L 352.1,57.7 L 351.7,57.9 L 351.4,58.1 L 351.0,58.3 L 350.3,58.5 L 349.7,58.7 L 349.1,58.8 L 348.8,58.9 L 348.2,59.2 L 347.4,59.2 L 347.0,59.4 L 346.6,59.7 L 346.0,60.5 L 345.1,61.9 L 344.4,62.6 L 344.1,62.8 L 344.0,62.9 L 343.5,63.4 L 343.2,64.0 L 343.0,64.0 L 342.9,64.3 L 342.6,64.5 L 342.3,65.2 L 342.2,65.7 L 342.4,66.3 L 342.0,67.3 L 342.0,67.8 L 341.9,68.2 L 341.6,68.8 L 341.1,69.6 L 340.2,70.4 L 340.2,70.9 L 339.8,71.2 L 339.4,71.3 L 339.1,71.4 L 338.8,71.4 L 338.5,71.5 L 338.3,71.8 L 338.2,72.5 L 338.1,72.6 L 337.8,72.6 L 337.6,72.5 L 337.5,72.2 L 337.6,72.0 L 337.4,71.7 L 337.3,71.7 L 337.0,72.1 L 336.8,72.1 L 336.6,71.8 L 336.5,71.6 L 336.2,71.9 L 335.8,72.7 L 335.4,74.0 L 335.3,75.0 L 335.2,75.2 L 335.2,75.6 L 335.3,75.8 L 335.4,76.1 L 335.3,76.3 L 335.1,76.3 L 334.9,76.2 L 334.8,76.3 L 335.0,76.7 L 335.0,76.9 L 334.9,77.0 L 334.6,77.0 L 334.6,76.7 L 334.6,76.5 L 334.4,76.4 L 334.0,76.8 L 333.8,77.2 L 333.6,77.7 L 333.5,78.4 L 333.3,79.0 L 333.5,79.2 L 333.8,79.3 L 333.9,79.3 L 334.0,79.0 L 334.1,78.6 L 334.3,77.9 L 334.5,77.6 L 334.8,77.6 L 334.9,77.7 L 335.1,78.3 L 335.6,78.9 L 335.9,79.1 L 336.5,79.0 L 336.7,78.8 L 336.9,78.4 L 337.3,78.1 L 337.6,78.0 L 338.2,77.3 L 338.6,77.1 L 338.8,77.2 L 338.0,78.0 L 337.8,78.4 L 337.8,78.9 L 337.9,79.2 L 338.0,79.4 L 338.5,79.2 L 338.7,78.9 L 339.1,77.9 L 339.6,77.4 L 339.7,77.3 L 339.9,76.9 L 340.0,76.6 L 340.6,76.1 L 340.8,75.6 L 341.3,75.1 L 341.7,74.9 L 341.9,75.0 L 342.2,74.9 L 342.4,74.7 L 342.6,74.2 L 342.7,74.1 L 343.1,74.0 L 343.8,73.6 L 344.2,73.2 L 344.6,73.2 L 344.1,73.5 L 344.1,73.7 L 343.9,73.7 L 343.9,74.0 L 343.7,74.4 L 343.2,74.9 L 342.8,74.9 L 342.7,74.9 L 342.5,75.3 L 342.0,75.3 L 341.8,75.4 L 341.6,75.7 L 341.6,76.5 L 341.5,76.8 L 341.1,77.0 L 340.5,76.9 L 340.4,76.9 L 340.2,77.4 L 339.7,78.1 L 339.5,78.3 L 339.2,79.3 L 339.1,79.7 L 339.0,79.8 L 338.7,79.9 L 338.4,80.0 L 337.9,80.6 L 337.6,81.2 L 336.9,82.1 L 336.8,82.5 L 336.6,82.8 L 336.4,83.3 L 336.4,84.0 L 336.3,84.3 L 336.0,84.5 L 335.9,84.4 L 335.7,84.3 L 335.5,84.5 L 335.3,84.9 L 335.0,85.3 L 334.8,85.6 L 333.8,86.9 L 333.5,87.3 L 333.0,88.3 L 332.4,89.3 L 332.3,89.5 L 332.5,90.0 L 332.6,90.6 L 332.5,90.9 L 332.5,91.5 L 332.6,91.6 L 332.8,91.6 L 333.0,91.3 L 333.5,91.3 L 333.9,90.8 L 334.1,90.7 L 334.5,90.0 L 334.6,89.7 L 334.9,89.2 L 334.9,88.7 L 334.8,88.4 L 335.0,87.7 L 335.2,87.4 L 335.4,87.4 L 335.7,87.5 L 335.6,87.8 L 335.5,88.2 L 335.5,88.9 L 335.7,89.4 L 336.0,89.7 L 336.5,89.6 L 336.7,89.3 L 337.0,88.6 L 336.8,88.3 L 337.1,87.7 L 337.3,87.4 L 337.8,86.6 L 338.5,85.6 L 338.8,85.4 L 339.4,85.2 L 339.6,85.2 L 339.7,85.2 L 339.9,85.5 L 340.0,86.2 L 340.2,86.5 L 340.6,86.6 L 341.0,86.9 L 341.4,87.0 L 342.3,86.1 L 342.9,85.7 L 343.7,85.3 L 343.9,85.5 L 343.9,85.6 L 343.8,85.7 L 343.3,86.3 L 343.2,86.7 L 343.0,87.0 L 342.6,87.2 L 342.2,87.2 L 341.9,87.5 L 341.6,87.7 L 340.8,88.4 L 340.5,88.9 L 340.2,89.5 L 339.7,90.2 L 339.5,90.4 L 339.4,91.0 L 339.2,91.4 L 338.4,92.0 L 337.9,92.5 L 337.8,92.6 L 337.7,92.7 L 337.6,93.9 L 337.7,94.7 L 337.8,95.4 L 337.9,95.7 L 338.4,96.5 L 338.6,96.7 L 338.9,96.6 L 338.9,96.7 L 338.9,96.9 L 338.8,97.5 L 338.6,97.7 L 338.5,98.0 L 338.9,98.3 L 339.3,99.6 L 339.3,100.2 L 339.0,100.7 L 338.9,101.1 L 338.6,101.6 L 338.1,102.3 L 337.5,103.0 L 337.4,103.0 L 337.3,103.0 L 337.3,102.8 L 337.3,102.6 L 337.3,101.8 L 337.1,101.6 L 336.4,101.8 L 336.2,102.1 L 336.2,103.0 L 335.8,103.5 L 335.7,103.6 L 335.4,103.6 L 335.3,103.5 L 335.2,103.3 L 335.0,103.3 L 334.6,103.5 L 334.3,103.7 L 333.8,103.8 L 333.7,103.9 L 333.5,103.9 L 333.3,103.8 L 333.0,103.8 L 332.9,103.9 L 332.7,104.2 L 332.8,104.6 L 332.8,104.9 L 332.6,105.0 L 332.5,104.7 L 332.4,104.6 L 332.3,104.9 L 332.2,105.2 L 332.0,105.7 L 331.9,105.9 L 331.5,105.9 L 331.2,105.8 L 331.0,106.0 L 330.9,105.9 L 330.8,105.8 L 330.7,105.6 L 330.4,105.8 L 330.1,105.8 L 330.0,105.9 L 329.2,107.1 L 329.0,107.5 L 328.9,107.5 L 328.7,107.6 L 328.5,108.0 L 328.7,108.6 L 328.7,108.9 L 328.0,109.8 L 328.0,110.1 L 328.3,110.6 L 328.0,111.0 L 328.0,111.3 L 328.2,111.5 L 328.3,111.8 L 328.5,111.9 L 328.5,112.2 L 328.4,112.6 L 328.1,113.0 L 327.9,113.0 L 327.6,113.3 L 327.1,113.3 L 327.0,113.0 L 326.8,112.8 L 326.5,113.0 L 326.3,113.1 L 326.3,113.4 L 326.5,113.5 L 326.9,113.4 L 327.1,113.5 L 327.2,113.9 L 327.1,114.2 L 326.4,114.9 L 326.0,115.2 L 325.6,115.3 L 325.1,115.7 L 324.6,115.8 L 323.9,115.9 L 323.2,115.9 L 323.0,115.9 L 322.9,115.8 L 322.7,115.8 L 321.3,116.4 L 320.9,116.5 L 320.5,116.6 L 320.1,116.6 L 319.7,116.3 L 319.7,116.2 L 320.1,116.1 L 320.2,116.0 L 320.2,115.8 L 320.1,115.7 L 319.8,115.6 L 319.6,115.9 L 319.1,116.0 L 318.8,116.1 L 318.8,116.2 L 319.4,116.5 L 319.6,116.9 L 319.2,117.3 L 319.1,117.6 L 319.3,118.5 L 319.5,118.7 L 319.6,119.4 L 319.6,119.5 L 319.6,119.7 L 319.7,120.0 L 319.2,120.5 L 319.0,121.0 L 318.7,121.2 L 318.3,121.5 L 318.2,121.9 L 317.5,123.0 L 317.5,123.2 L 317.5,123.5 L 318.3,124.2 L 318.5,124.5 L 318.6,124.8 L 318.6,125.9 L 318.5,126.2 L 318.7,126.5 L 318.7,126.7 L 318.5,127.3 L 318.0,128.2 L 317.8,128.9 L 317.7,129.4 L 317.2,130.4 L 316.8,131.3 L 316.0,133.1 L 315.9,134.1 L 316.0,134.8 L 315.9,135.1 L 315.9,135.5 L 315.9,136.3 L 316.0,136.9 L 316.0,137.4 L 316.0,138.3 L 315.9,138.6 L 315.0,140.2 L 315.0,140.2 L 314.9,140.5 L 315.0,141.0 L 315.3,141.7 L 315.4,141.9 L 315.7,142.6 L 315.9,142.9 L 316.9,143.7 L 317.4,144.3 L 317.5,144.6 L 318.5,145.6 L 318.7,146.1 L 319.2,146.7 L 319.5,147.0 L 319.8,147.2 L 320.9,148.3 L 321.5,148.5 L 321.9,148.8 L 322.0,149.0 L 322.5,149.4 L 323.0,149.8 L 323.2,149.8 L 323.4,149.9 L 323.6,150.3 L 323.7,150.6 L 323.7,151.1 L 323.6,151.5 L 323.8,151.7 L 324.1,151.7 L 324.2,151.6 L 334.2,159.1 L 334.2,159.2 L 333.9,159.6 L 333.8,160.0 L 333.9,160.3 L 333.9,160.8 L 333.9,161.4 L 333.8,161.5 L 333.5,161.5 L 333.4,161.7 L 333.4,162.4 L 333.3,162.9 L 333.3,163.2 L 333.6,163.3 L 333.7,163.4 L 334.1,163.2 L 334.3,162.8 L 334.4,162.8 L 334.6,162.9 L 334.7,163.3 L 334.7,163.7 L 334.9,164.0 L 334.8,164.3 L 334.9,164.6 L 335.1,164.8 L 335.5,164.9 L 335.3,165.1 L 335.3,165.5 L 335.4,165.6 L 335.6,165.7 L 336.0,165.6 L 336.3,165.4 L 336.4,165.0 L 336.7,164.7 L 336.9,164.1 L 336.9,164.0 L 337.2,164.0 L 337.4,164.1 L 337.5,164.3 L 337.5,164.4 L 337.4,164.7 L 337.6,165.1 L 337.5,165.7 L 337.3,166.0 L 336.7,166.0 L 336.4,166.1 L 336.2,166.3 L 336.0,166.7 L 335.9,167.2 L 336.2,167.7 L 336.1,168.0 L 335.7,168.4 L 335.1,168.7 L 334.7,168.8 L 334.6,168.6 L 334.4,168.5 L 334.1,168.8 L 334.0,169.1 L 334.2,169.3 L 334.0,169.5 L 334.0,169.8 L 333.8,170.0 L 333.6,170.3 L 333.7,170.8 L 333.9,171.2 L 334.0,172.0 L 334.0,173.0 L 333.3,175.4 L 333.0,176.0 L 332.9,176.5 L 332.7,176.9 L 332.7,177.6 L 332.2,178.2 L 332.3,178.3 L 332.7,178.3 L 332.8,178.4 L 332.8,178.7 L 332.6,178.9 L 332.4,178.9 L 332.4,178.9 L 332.3,179.1 L 332.1,179.8 L 332.1,180.3 L 332.1,180.6 L 331.7,181.1 L 331.7,181.4 L 331.9,181.7 L 332.3,182.1 L 332.5,182.2 L 332.7,182.4 L 332.2,182.8 L 332.0,183.1 L 332.0,184.1 L 332.4,185.0 L 332.6,185.2 L 332.6,185.3 L 332.3,185.6 L 332.0,185.9 L 332.0,186.2 L 332.2,186.3 L 332.4,186.1 L 332.5,186.3 L 332.5,186.6 L 332.1,187.2 L 332.1,188.9 L 332.3,189.4 L 332.2,189.9 L 332.2,190.2 L 332.2,190.6 L 332.3,191.1 L 332.4,191.3 L 332.6,191.3 L 332.8,191.4 L 332.6,192.0 L 332.4,192.3 L 332.4,192.5 L 332.5,192.8 L 332.7,193.2 L 332.7,193.6 L 332.6,193.8 L 332.7,194.1 L 332.7,198.3 L 332.4,198.9 L 332.3,199.2 L 332.4,200.2 L 332.2,200.4 L 332.4,200.6 L 332.7,201.8 L 333.1,202.4 L 333.1,202.9 L 332.8,203.5 L 332.7,204.0 L 332.9,204.5 L 333.0,204.8 L 333.1,205.0 L 332.8,205.4 L 332.4,205.8 L 332.4,206.2 L 332.3,206.4 L 331.8,206.4 L 331.8,206.6 L 331.8,207.4 L 331.9,207.7 L 332.1,208.3 L 332.0,209.0 L 332.2,209.4 L 332.2,210.8 L 331.8,211.7 L 331.3,212.1 L 331.1,212.1 L 330.8,211.8 L 331.1,211.4 L 330.9,210.5 L 330.8,210.1 L 330.5,209.8 L 330.3,209.6 L 330.1,208.3 L 330.1,207.5 L 330.0,207.2 L 330.0,206.9 L 330.1,206.6 L 330.1,205.8 L 330.0,205.4 L 329.9,205.1 L 329.8,204.5 L 329.9,203.6 L 329.8,202.6 L 329.4,201.9 L 329.8,201.2 L 329.8,200.7 L 329.6,200.3 L 329.5,200.1 L 329.4,199.6 L 329.4,199.0 L 329.4,198.8 L 329.3,198.7 L 329.1,198.5 L 329.0,198.2 L 329.0,198.1 L 328.8,198.1 L 328.8,198.7 L 329.0,199.3 L 329.1,200.1 L 329.1,200.6 L 328.7,201.4 L 328.4,202.2 L 328.2,202.4 L 327.7,202.7 L 327.5,202.5 L 327.4,202.1 L 327.3,202.0 L 327.3,202.4 L 327.1,202.5 L 326.9,202.4 L 326.8,202.3 L 326.7,202.0 L 326.6,201.8 L 326.5,201.7 L 326.4,202.3 L 326.0,202.3 L 325.9,202.4 L 325.9,203.7 L 325.8,204.0 L 325.7,204.1 L 325.4,204.4 L 324.9,204.4 L 324.6,204.5 L 324.2,204.5 L 324.0,204.6 L 323.8,205.2 L 323.5,205.7 L 323.0,206.3 L 322.6,206.5 L 322.2,206.6 L 321.7,206.4 L 321.6,206.2 L 321.6,205.6 L 321.6,205.3 L 321.8,205.0 L 321.9,204.4 L 321.8,203.5 L 321.9,202.9 L 321.8,202.5 L 321.7,202.1 L 321.8,201.9 L 322.0,201.8 L 322.3,201.8 L 322.4,201.9 L 322.5,202.2 L 322.5,203.0 L 322.7,203.6 L 322.8,203.4 L 322.9,202.6 L 323.3,202.2 L 323.2,201.8 L 323.1,200.8 L 323.0,200.6 L 322.8,200.4 L 322.6,200.4 L 322.5,200.6 L 322.4,200.5 L 322.3,200.0 L 322.3,199.7 L 321.9,199.1 L 321.9,198.9 L 321.9,198.7 L 321.9,196.1 L 322.3,195.6 L 322.4,195.2 L 322.4,194.9 L 322.5,194.5 L 322.6,193.9 L 322.5,193.2 L 322.2,192.2 L 322.2,191.3 L 322.3,190.4 L 322.3,189.6 L 322.2,189.5 L 322.0,189.6 L 322.0,189.2 L 321.9,189.2 L 321.8,189.1 L 321.6,187.4 L 321.5,187.0 L 321.4,187.0 L 321.2,187.1 L 321.0,188.2 L 321.0,188.2 L 287.9,187.7 L 287.8,187.4 L 287.7,187.2 L 287.3,187.1 L 287.1,187.1 L 286.4,187.6 L 286.0,188.0 L 285.4,188.2 L 285.2,188.3 L 285.1,188.5 L 284.7,188.8 L 284.5,189.3 L 284.4,190.1 L 284.2,190.6 L 284.2,191.0 L 284.3,191.4 L 284.3,191.7 L 284.4,192.0 L 284.2,192.5 L 284.1,193.1 L 284.0,193.4 L 283.5,193.6 L 283.1,193.6 L 282.9,193.5 L 282.5,192.6 L 282.4,192.6 L 281.9,192.6 L 281.6,192.8 L 281.1,193.3 L 281.1,193.7 L 281.3,194.1 L 281.2,194.2 L 280.6,194.4 L 280.4,194.7 L 280.3,195.3 L 280.0,196.0 L 279.7,196.3 L 279.3,197.1 L 279.8,197.6 L 279.7,197.8 L 279.2,198.1 L 279.0,198.4 L 279.2,198.6 L 279.0,199.2 L 279.3,199.2 L 279.3,199.4 L 278.8,200.2 L 278.7,200.6 L 278.9,201.0 L 279.1,201.1 L 279.1,201.3 L 279.3,201.4 L 279.7,201.3 L 280.1,201.0 L 280.2,201.1 L 280.1,201.3 L 279.7,201.7 L 279.5,202.2 L 279.5,202.9 L 279.8,202.9 L 279.8,203.0 L 279.4,203.4 L 279.3,203.6 L 279.0,204.4 L 279.0,204.8 L 279.2,205.1 L 279.4,205.0 L 279.7,204.6 L 279.9,204.6 L 280.0,204.7 L 280.2,204.6 L 280.3,204.3 L 280.5,204.5 L 280.3,204.8 L 280.0,204.9 L 279.3,205.5 L 279.1,205.9 L 278.8,206.6 L 278.7,207.1 L 278.8,207.1 L 279.3,207.2 L 279.4,207.2 L 279.2,207.7 L 279.0,207.8 L 278.5,207.9 L 278.2,209.0 L 278.1,209.5 L 277.8,209.8 L 277.6,210.2 L 277.5,210.5 L 277.3,210.9 L 277.3,211.4 L 276.9,212.2 L 276.7,212.9 L 276.6,213.2 L 276.2,214.1 L 275.9,214.8 L 275.8,215.4 L 275.6,215.7 L 274.7,217.6 L 274.7,217.7 L 274.3,218.7 L 273.0,221.0 L 272.9,221.4 L 272.4,222.4 L 271.9,223.2 L 271.5,224.0 L 271.5,224.3 L 271.3,224.6 L 271.2,225.8 L 270.8,226.6 L 270.8,227.1 L 270.6,227.5 L 270.8,227.7 L 271.1,227.6 L 271.3,227.4 L 271.6,226.8 L 272.2,226.1 L 272.5,226.2 L 272.7,226.0 L 272.9,226.1 L 273.9,225.6 L 274.5,225.4 L 275.3,224.3 L 275.4,224.0 L 275.4,223.7 L 275.6,223.3 L 275.7,223.1 L 276.4,220.8 L 277.0,219.9 L 277.4,219.4 L 277.8,218.5 L 278.0,218.3 L 277.8,219.1 L 277.7,219.5 L 277.2,220.6 L 277.2,221.7 L 277.1,222.2 L 276.6,223.0 L 276.2,223.7 L 276.1,224.1 L 276.3,224.6 L 276.4,224.7 L 276.5,224.6 L 276.6,224.5 L 276.7,224.7 L 277.1,224.7 L 277.2,224.8 L 277.4,224.8 L 277.5,224.6 L 277.8,224.2 L 278.2,223.7 L 278.5,223.2 L 278.8,222.8 L 279.0,222.5 L 279.3,221.9 L 279.5,221.9 L 279.5,222.0 L 279.5,222.3 L 279.4,222.8 L 279.4,223.4 L 279.6,223.7 L 279.8,223.9 L 280.1,223.8 L 280.3,223.9 L 280.4,224.1 L 280.3,224.2 L 279.6,224.4 L 279.2,224.8 L 278.5,226.0 L 278.1,226.4 L 277.8,226.5 L 277.8,226.4 L 277.6,226.4 L 277.1,227.4 L 277.1,227.6 L 277.3,227.7 L 277.7,227.8 L 277.7,227.9 L 277.5,228.0 L 277.1,228.6 L 277.0,228.8 L 278.3,229.5 L 278.6,229.4 L 278.8,229.1 L 279.1,229.0 L 279.2,228.7 L 279.3,228.4 L 279.4,228.2 L 279.9,228.0 L 280.3,227.6 L 281.2,225.8 L 281.7,225.1 L 281.7,224.2 L 282.0,223.5 L 282.7,222.6 L 282.9,222.4 L 283.7,221.1 L 283.8,221.1 L 283.8,221.3 L 283.7,221.9 L 283.5,222.3 L 283.4,222.8 L 283.2,223.2 L 283.1,223.5 L 283.3,223.9 L 283.2,224.3 L 282.5,225.4 L 282.5,225.6 L 282.8,225.8 L 282.8,225.9 L 282.4,226.1 L 282.3,226.2 L 281.7,227.0 L 281.2,227.5 L 280.3,229.6 L 280.3,230.1 L 280.4,230.6 L 279.9,231.4 L 279.9,231.6 L 279.9,231.9 L 279.8,232.2 L 279.5,232.9 L 279.3,233.5 L 279.2,234.0 L 279.0,234.6 L 279.0,235.3 L 278.8,235.6 L 278.6,236.1 L 278.6,236.5 L 278.6,236.7 L 278.4,237.1 L 278.0,237.5 L 277.1,237.6 L 275.7,239.2 L 275.6,239.3 L 275.6,239.3 L 275.4,239.2 L 275.2,239.2 L 274.9,239.3 L 274.8,239.2 L 274.6,238.8 L 274.6,238.5 L 274.9,238.1 L 274.9,237.9 L 274.7,237.8 L 274.5,237.3 L 274.6,237.0 L 274.6,236.9 L 274.2,236.9 L 274.0,237.0 L 273.3,237.8 L 272.8,238.1 L 272.6,238.3 L 271.8,239.1 L 271.7,239.2 L 271.6,239.1 L 271.6,238.2 L 271.7,237.8 L 271.4,237.3 L 271.1,237.2 L 270.8,237.4 L 270.4,238.3 L 270.1,238.6 L 269.5,238.6 L 269.2,238.7 L 268.9,239.1 L 267.8,241.0 L 267.7,241.1 L 267.6,241.2 L 267.4,241.3 L 266.9,242.0 L 266.6,242.6 L 266.5,243.3 L 265.8,244.3 L 265.8,244.7 L 265.4,245.4 L 265.4,245.9 L 265.0,246.2 L 264.9,246.4 L 265.0,246.9 L 264.9,247.3 L 264.7,247.5 L 264.6,247.6 L 263.9,248.3 L 263.9,248.6 L 264.1,248.9 L 264.1,249.1 L 264.1,249.2 L 263.7,249.4 L 263.4,249.8 L 263.1,249.8 L 262.9,249.7 L 262.8,249.2 L 262.6,248.9 L 261.8,248.4 L 261.8,248.3 L 262.1,248.0 L 262.4,248.0 L 262.4,247.9 L 262.2,247.7 L 262.0,247.8 L 261.7,248.1 L 261.5,248.6 L 261.2,248.7 L 260.8,249.4 L 259.5,250.7 L 259.6,250.9 L 259.5,251.0 L 259.5,251.5 L 259.4,251.7 L 258.9,251.9 L 258.7,252.2 L 258.3,252.3 L 257.7,252.6 L 257.3,252.4 L 256.9,252.4 L 256.7,252.5 L 256.7,252.6 L 256.4,252.8 L 256.3,252.9 L 255.9,252.9 L 255.7,253.1 L 255.7,253.3 L 252.0,263.8 L 251.9,264.1 L 251.4,264.9 L 251.2,265.0 L 251.2,265.2 L 250.9,265.5 L 250.3,266.4 L 250.4,266.6 L 250.9,266.6 L 250.3,268.3 L 250.3,268.3 L 250.0,268.3 L 250.0,268.3 L 249.8,268.2 L 249.6,268.4 L 249.3,268.5 L 248.4,268.6 L 247.7,268.5 L 246.6,269.0 L 245.7,268.9 L 245.3,268.8 L 244.8,269.1 L 244.5,269.1 L 244.0,269.4 L 242.7,269.6 L 242.0,269.6 L 241.3,269.5 L 240.9,269.4 L 240.4,269.3 L 240.0,269.3 L 238.9,269.6 L 238.5,269.6 L 238.3,269.3 L 238.0,269.3 L 237.1,269.8 L 236.9,270.0 L 236.8,270.1 L 236.9,270.2 L 236.9,270.1 L 237.1,270.1 L 237.3,270.2 L 236.9,270.5 L 236.9,270.6 L 236.1,271.1 L 235.8,271.4 L 235.6,271.8 L 235.2,272.0 L 235.2,272.0 L 234.7,272.7 L 234.3,273.3 L 234.3,273.9 L 234.4,274.2 L 234.4,274.5 L 234.6,274.8 L 234.7,274.9 L 234.7,275.1 L 234.4,275.6 L 233.6,276.4 L 232.3,277.5 L 231.4,278.3 L 231.3,278.6 L 231.3,278.7 L 232.0,278.5 L 232.0,279.1 L 232.1,279.2 L 232.4,279.3 L 232.9,279.8 L 233.4,280.2 L 233.7,280.7 L 234.0,280.8 L 234.3,281.1 L 234.6,281.4 L 234.7,281.8 L 234.9,282.2 L 234.9,282.5 L 234.6,283.3 L 234.9,283.6 L 234.9,284.1 L 234.8,284.5 L 234.6,284.8 L 234.2,285.4 L 234.1,285.9 L 234.4,286.5 L 234.3,286.7 L 234.5,287.1 L 234.2,287.5 L 234.2,288.3 L 234.1,288.7 L 234.5,288.8 L 234.6,288.9 L 234.8,289.4 L 234.9,289.5 L 235.3,289.6 L 235.4,289.7 L 235.5,290.0 L 235.2,291.0 L 235.2,291.3 L 235.0,291.8 L 234.9,292.1 L 234.6,292.6 L 234.3,293.5 L 234.1,294.0 L 233.8,294.2 L 233.1,294.5 L 232.6,295.0 L 231.9,295.7 L 231.1,296.1 L 230.7,296.1 L 229.8,296.0 L 229.4,295.8 L 228.6,295.6 L 228.2,295.5 L 227.2,295.4 L 226.9,295.3 L 226.3,295.2 L 225.1,295.8 L 224.7,295.9 L 224.2,295.5 L 224.2,295.3 L 224.1,295.3 L 223.9,295.3 L 222.1,295.7 L 220.6,296.1 L 220.2,296.4 L 220.0,296.4 L 219.6,296.3 L 219.2,296.3 L 218.6,295.8 L 218.2,295.2 L 218.0,295.0 L 217.9,295.0 L 217.8,294.7 L 217.0,294.8 L 216.7,294.3 L 215.7,294.4 L 215.1,294.3 L 215.0,294.2 L 214.9,294.1 L 213.0,294.2 L 212.7,294.1 L 212.3,294.2 L 212.1,294.2 L 211.9,294.5 L 211.8,294.7 L 211.6,294.7 L 211.1,294.6 L 210.5,294.3 L 209.9,294.0 L 208.7,293.5 L 208.2,293.5 L 207.9,293.5 L 207.6,293.4 L 207.2,293.5 L 206.8,293.3 L 206.3,293.0 L 205.4,292.3 L 204.9,291.9 L 204.6,291.7 L 204.4,291.5 L 203.0,291.4 L 202.1,291.4 L 201.7,291.5 L 200.3,291.6 L 199.8,291.9 L 198.9,292.2 L 198.2,292.2 L 198.1,292.2 L 196.8,292.5 L 196.0,292.8 L 195.6,292.8 L 195.0,292.8 L 194.4,293.1 L 193.2,294.2 L 192.6,294.7 L 192.2,295.0 L 191.8,295.0 L 191.8,295.0 L 191.7,294.8 L 191.5,294.8 L 191.3,295.0 L 191.2,295.1 L 190.7,295.4 L 190.4,295.5 L 189.6,296.2 L 189.3,296.2 L 188.7,296.5 L 188.4,296.5 L 188.2,296.6 L 187.5,296.8 L 186.4,296.9 L 185.8,296.8 L 185.4,296.9 L 184.9,296.9 L 184.4,297.0 L 182.0,297.0 L 181.2,296.9 L 179.9,297.0 L 178.8,297.0 L 177.8,296.6 L 176.8,296.4 L 175.9,295.8 L 175.9,295.5 L 175.4,295.3 L 174.8,295.4 L 174.4,295.6 L 173.8,295.6 L 172.3,295.8 L 171.8,295.8 L 171.2,295.6 L 170.6,295.6 L 170.5,295.4 L 170.4,295.4 L 170.2,295.6 L 168.8,295.8 L 167.5,296.2 L 165.8,296.4 L 165.2,296.6 L 164.7,297.1 L 164.4,297.4 L 163.2,298.4 L 162.5,298.7 L 160.4,299.5 L 159.6,299.8 L 158.6,300.2 L 158.0,300.4 L 157.2,300.8 L 156.4,301.5 L 156.1,301.9 L 155.7,302.9 L 155.3,303.4 L 154.8,303.9 L 154.6,304.2 L 154.7,304.6 L 154.6,304.8 L 154.0,305.4 L 153.9,305.8 L 153.6,306.2 L 153.3,306.6 L 153.3,306.8 L 153.4,307.1 L 153.7,307.3 L 154.3,307.2 L 154.5,307.3 L 154.9,307.5 L 155.1,307.7 L 155.3,308.3 L 155.8,309.8 L 155.9,310.0 L 156.6,311.0 L 156.6,311.4 L 156.6,311.5 L 157.1,311.5 L 157.3,311.6 L 157.2,311.6 L 148.4,343.8 L 148.3,343.9 L 148.2,343.9 L 147.8,344.1 L 147.4,344.4 L 147.0,344.7 L 146.1,344.9 L 144.9,345.5 L 143.7,346.3 L 142.7,346.6 L 142.4,346.8 L 142.1,347.0 L 141.8,347.0 L 141.5,346.9 L 140.9,346.9 L 139.5,347.1 L 138.7,347.2 L 138.1,346.7 L 137.7,346.4 L 137.1,345.1 L 136.8,344.6 L 136.8,344.4 L 136.6,344.5 L 136.4,344.6 L 135.5,344.6 L 134.6,344.3 L 134.3,344.2 L 133.5,344.2 L 132.7,344.2 L 132.4,344.3 L 130.8,344.3 L 130.6,344.2 L 129.7,343.5 L 128.6,342.8 L 127.7,342.6 L 127.1,342.3 L 127.0,342.2 L 126.6,341.9 L 124.7,341.8 L 124.7,341.8 L 125.0,341.6 L 125.0,341.4 L 124.5,341.4 L 124.5,341.3 L 124.6,341.1 L 124.6,341.0 L 124.4,340.8 L 124.0,340.9 L 122.6,342.0 L 122.3,342.0 L 122.1,342.0 L 120.9,342.1 L 120.9,342.1 L 120.3,342.0 L 120.0,341.8 L 119.6,341.7 L 119.2,341.6 L 118.8,341.8 L 116.6,341.7 L 113.4,341.8 L 111.5,341.9 L 110.3,341.9 L 109.6,341.7 L 108.0,341.3 L 106.7,341.2 L 106.0,341.1 L 105.4,341.0 L 102.2,340.8 L 101.6,340.6 L 101.2,340.4 L 100.4,339.8 L 100.0,339.6 L 98.4,339.5 L 97.5,339.2 L 96.9,339.1 L 95.7,338.9 L 95.7,338.9 L 94.9,338.9 L 94.2,338.7 L 91.5,338.3 L 91.1,338.3 L 89.9,338.1 L 89.8,338.1 L 88.5,337.9 L 87.6,337.8 L 87.1,337.9 L 84.4,339.0 L 83.7,339.2 L 82.7,339.2 L 82.2,339.2 L 82.1,339.2 L 81.3,339.5 L 80.6,339.6 L 80.7,339.8 L 80.6,340.1 L 79.9,340.7 L 79.7,340.8 L 78.3,341.3 L 77.7,341.7 L 76.6,342.0 L 76.4,342.3 L 75.6,343.0 L 75.3,343.1 L 74.6,343.2 L 74.4,343.1 L 74.2,343.0 L 74.0,343.0 L 73.8,343.0 L 73.7,343.2 L 73.6,343.2 L 73.5,343.1 L 73.3,343.2 L 73.2,343.4 L 73.3,343.8 L 73.5,344.0 L 73.6,344.0 L 73.8,344.1 L 73.6,344.7 L 72.8,346.1 L 72.0,346.9 L 70.8,347.7 L 70.3,347.8 L 69.8,348.1 L 69.0,348.7 L 68.9,348.9 L 68.3,349.9 L 68.0,350.2 L 67.6,350.4 L 67.2,350.7 L 66.8,351.3 L 66.7,351.7 L 65.9,352.7 L 65.5,353.1 L 65.1,353.1 L 64.7,353.1 L 64.6,353.3 L 64.1,354.1 L 63.5,354.6 L 62.6,355.1 L 62.0,355.2 L 61.6,355.4 L 60.7,355.9 L 60.1,356.4 L 59.9,356.5 L 59.5,357.4 L 58.9,357.9 L 58.8,358.1 L 58.7,358.5 L 57.9,359.3 L 57.7,359.6 L 57.1,359.9 L 56.5,360.0 L 54.5,359.6 L 53.7,359.3 L 52.7,359.0 L 51.5,358.2 L 49.9,356.7 L 49.2,356.1 L 48.4,355.3 L 47.9,354.5 L 47.7,353.9 L 47.5,353.1 L 47.4,352.1 L 47.5,351.4 L 47.6,351.0 L 47.9,350.8 L 48.3,350.5 L 49.0,349.8 L 49.6,349.7 L 50.0,349.6 L 50.4,349.3 L 50.5,348.9 L 50.8,348.5 L 51.1,348.3 L 51.4,348.1 L 51.6,348.2 L 51.9,348.1 L 52.2,348.1 L 53.0,347.7 L 53.6,347.7 L 53.9,347.8 L 54.4,347.6 L 54.8,347.2 L 55.0,346.6 L 55.4,346.1 L 55.8,345.6 L 56.0,345.1 L 56.2,343.8 L 56.6,342.7 L 56.9,341.6 L 56.6,340.5 L 56.5,340.2 L 56.1,339.1 L 55.6,337.7 L 55.2,337.2 L 54.3,336.3 L 53.9,335.5 L 53.6,335.4 L 52.9,335.4 L 52.5,335.1 L 52.2,334.8 L 51.9,334.5 L 51.7,334.0 L 51.5,333.9 L 51.3,333.4 L 51.2,333.4 L 92.1,294.6 L 92.1,294.7 L 92.4,294.8 L 92.7,294.7 L 92.9,294.6 L 93.2,294.4 L 93.5,294.3 L 93.7,294.3 L 94.0,294.5 L 94.5,293.7 L 94.6,293.4 L 94.6,293.1 L 94.5,292.9 L 94.4,292.9" fill="none" stroke="black" stroke-width="2"/>
</svg>