<?xml version="1.0" encoding="UTF-8"?>
<svg width="400" height="400" viewBox="0 0 400 400" xmlns="http://www.w3.org/2000/svg">
  <rect width="400" height="400" fill="white"/>
  <path d="M 170.2,200.4 L 172.3,198.0 L 176.7,193.8 L 184.8,191.0 L 190.5,187.9 L 190.8,190.0 L 195.1,186.5 L 199.5,182.6 L 206.1,180.7 L 207.8,178.8 L 211.0,173.6 L 213.7,171.4 L 216.7,167.8 L 219.8,165.8 L 225.6,165.0 L 229.6,162.7 L 233.4,159.1 L 237.7,155.7 L 241.5,151.8 L 243.6,148.6 L 245.9,146.1 L 247.4,143.3 L 248.5,141.9 L 252.3,141.1 L 253.1,141.4 L 253.4,142.2 L 253.3,147.4 L 252.4,151.6 L 252.9,160.9 L 251.9,165.4 L 252.4,169.1 L 253.5,170.3 L 255.3,169.7 L 258.5,167.0 L 261.6,166.4 L 264.9,163.0 L 265.3,162.5 L 268.9,161.3 L 275.0,156.9 L 279.3,152.1 L 284.8,147.3 L 286.5,143.3 L 288.4,141.1 L 295.6,134.0 L 298.2,130.3 L 300.8,128.0 L 303.7,124.4 L 305.5,122.1 L 306.9,121.0 L 317.1,110.0 L 322.6,106.6 L 324.1,104.3 L 325.8,102.7 L 328.2,101.0 L 329.4,98.5 L 331.6,95.8 L 334.9,93.9 L 336.0,92.7 L 338.1,92.9 L 339.8,94.0 L 342.9,93.4 L 344.6,92.6 L 345.2,94.4 L 351.4,94.4 L 359.9,190.2 L 360.0,191.0 L 358.8,192.5 L 357.1,193.3 L 356.3,192.7 L 354.9,192.5 L 351.9,193.5 L 349.3,196.4 L 343.6,196.6 L 340.8,197.4 L 336.4,200.4 L 335.5,201.0 L 332.6,204.8 L 327.4,208.1 L 322.7,213.1 L 321.0,214.3 L 314.1,214.5 L 311.8,213.0 L 309.3,212.7 L 307.0,213.2 L 305.0,216.0 L 302.3,216.9 L 298.0,221.1 L 293.4,221.0 L 288.8,221.5 L 279.3,225.1 L 275.6,221.0 L 275.1,219.0 L 273.1,217.0 L 271.2,216.3 L 268.1,212.9 L 268.3,211.5 L 269.6,209.4 L 268.7,208.9 L 266.9,210.0 L 264.9,213.1 L 264.6,213.5 L 261.4,216.5 L 256.5,220.2 L 253.1,221.0 L 248.5,218.0 L 248.0,214.6 L 246.6,214.8 L 245.1,218.6 L 241.9,221.1 L 241.9,224.0 L 240.7,224.2 L 239.8,223.9 L 236.7,222.2 L 234.8,220.7 L 233.6,218.4 L 229.9,216.7 L 224.4,216.2 L 220.2,214.7 L 217.7,214.4 L 213.3,215.2 L 207.5,217.5 L 191.3,226.3 L 183.9,229.4 L 180.1,232.1 L 178.2,232.5 L 176.7,230.4 L 177.4,227.9 L 182.9,220.4 L 182.3,219.3 L 184.9,216.8 L 184.4,215.9 L 183.2,215.6 L 179.0,217.6 L 175.2,218.6 L 172.9,220.0 L 166.5,225.4 L 161.2,230.8 L 155.2,236.4 L 148.7,242.9 L 143.6,246.0 L 134.8,257.0 L 130.4,264.9 L 129.3,266.0 L 129.7,267.5 L 129.2,269.2 L 126.5,272.9 L 122.5,276.2 L 115.5,280.5 L 111.3,280.9 L 106.3,287.2 L 97.3,294.4 L 92.4,296.7 L 91.7,297.4 L 89.0,300.4 L 86.6,302.1 L 86.3,301.2 L 86.7,300.4 L 86.1,299.2 L 82.1,299.1 L 78.7,299.7 L 62.2,307.4 L 59.3,307.0 L 55.9,305.3 L 51.6,305.2 L 48.8,306.3 L 41.0,307.1 L 40.0,307.1 L 40.1,306.9 L 44.9,291.4 L 50.9,291.4 L 52.1,292.1 L 48.7,295.5 L 49.5,296.6 L 51.5,296.4 L 60.4,287.7 L 64.2,281.9 L 63.1,281.9 L 56.4,287.6 L 55.1,287.8 L 58.3,283.5 L 59.8,280.2 L 63.0,277.0 L 68.1,275.8 L 68.3,274.6 L 67.3,274.0 L 65.3,274.8 L 62.6,274.7 L 60.3,276.2 L 55.0,276.3 L 54.4,275.2 L 55.9,271.5 L 57.4,269.6 L 59.3,268.1 L 62.3,265.0 L 63.7,265.9 L 66.9,264.0 L 70.3,260.5 L 72.9,260.1 L 71.6,258.9 L 72.4,257.4 L 71.8,256.3 L 67.5,257.4 L 64.0,259.4 L 60.2,263.8 L 56.4,266.9 L 54.4,269.7 L 55.4,266.8 L 87.7,173.5 L 92.5,173.3 L 94.2,172.8 L 98.9,172.0 L 100.9,172.2 L 102.6,174.1 L 104.3,173.7 L 106.4,172.3 L 107.7,171.8 L 112.6,174.7 L 113.5,174.7 L 117.3,172.6 L 119.2,169.7 L 120.9,169.1 L 123.6,169.5 L 126.8,168.1 L 127.6,166.4 L 131.3,167.5 L 134.0,164.8 L 135.1,164.8 L 135.3,165.9 L 134.2,167.3 L 130.4,169.2 L 126.1,169.2 L 124.7,172.7 L 124.6,175.0 L 125.7,175.8 L 128.6,175.0 L 131.6,172.1 L 132.6,173.0 L 133.2,174.7 L 129.4,179.9 L 128.7,187.0 L 126.9,193.0 L 124.6,196.4 L 124.2,198.7 L 126.5,198.5 L 128.8,196.7 L 134.1,194.6 L 142.3,192.0 L 146.1,188.7 L 152.0,181.4 L 155.5,179.4 L 157.5,177.4 L 159.5,174.1 L 161.6,172.3 L 164.6,174.2 L 163.2,176.9 L 162.4,177.8 L 154.8,187.7 L 154.7,189.2 L 156.4,189.2 L 159.1,191.5 L 159.5,193.2 L 163.3,194.1 L 163.5,195.2 L 159.3,200.4 L 147.7,214.5 L 147.7,215.6 L 148.3,216.2 L 150.9,216.0 L 157.0,211.7 L 162.8,205.3 L 167.1,204.0 L 170.2,200.4" fill="none" stroke="black" stroke-width="2"/>
</svg>