<?xml version="1.0" encoding="UTF-8"?>
<svg width="400" height="400" viewBox="0 0 400 400" xmlns="http://www.w3.org/2000/svg">
  <rect width="400" height="400" fill="white"/>
  <path d="M 101.7,247.9 L 104.9,246.5 L 108.2,244.5 L 114.8,241.7 L 116.6,240.2 L 119.2,239.8 L 120.9,239.0 L 121.0,237.0 L 122.5,235.6 L 123.3,235.2 L 123.3,233.6 L 120.1,230.1 L 119.7,228.2 L 121.1,226.7 L 123.9,225.0 L 124.7,223.3 L 123.7,222.1 L 123.7,220.8 L 123.0,219.5 L 115.0,219.1 L 111.4,219.8 L 110.7,219.0 L 110.7,216.7 L 112.2,213.5 L 112.2,209.7 L 108.7,203.2 L 107.4,202.6 L 102.0,201.7 L 99.2,200.3 L 98.5,197.8 L 98.7,196.1 L 100.2,192.3 L 99.5,191.0 L 98.2,190.0 L 97.6,187.9 L 95.0,186.5 L 92.5,186.2 L 89.8,187.1 L 87.0,187.1 L 82.6,187.6 L 80.3,188.6 L 77.8,189.2 L 73.3,190.6 L 70.8,190.8 L 69.8,189.4 L 69.1,184.9 L 69.0,175.6 L 70.5,172.9 L 72.8,171.7 L 73.6,166.4 L 77.9,156.0 L 79.2,151.9 L 79.1,145.0 L 76.9,140.2 L 73.7,136.0 L 69.0,130.6 L 66.1,128.2 L 64.1,128.0 L 62.9,126.8 L 58.2,127.3 L 55.7,130.1 L 55.4,130.1 L 55.3,129.7 L 54.7,127.9 L 53.4,123.7 L 55.2,124.3 L 55.4,124.3 L 59.7,123.9 L 62.2,122.6 L 64.3,120.0 L 68.2,109.5 L 68.3,109.4 L 69.2,107.7 L 72.2,101.5 L 73.8,97.5 L 76.3,93.1 L 80.1,88.8 L 84.5,85.8 L 88.3,82.6 L 91.2,81.8 L 95.2,81.7 L 96.0,82.4 L 98.4,82.3 L 101.1,83.6 L 103.1,85.8 L 104.2,87.8 L 106.1,90.7 L 108.5,96.4 L 108.6,99.1 L 109.1,100.8 L 110.4,101.2 L 111.4,102.7 L 114.5,105.4 L 115.2,107.3 L 116.0,109.0 L 116.0,109.1 L 118.0,113.0 L 120.4,119.3 L 125.3,139.1 L 125.7,142.5 L 126.8,143.5 L 129.5,144.6 L 137.6,150.2 L 140.5,152.3 L 142.2,154.0 L 147.2,163.6 L 149.7,165.7 L 156.1,170.1 L 159.3,170.8 L 171.1,170.2 L 174.0,167.8 L 177.5,162.2 L 181.5,157.8 L 184.0,156.3 L 186.8,155.8 L 188.1,156.5 L 188.5,156.1 L 188.9,155.0 L 193.3,154.1 L 198.4,152.8 L 201.1,150.8 L 202.7,148.6 L 206.9,144.7 L 215.2,140.8 L 226.7,140.3 L 229.7,139.9 L 231.8,137.3 L 233.2,135.0 L 236.6,134.5 L 240.6,134.9 L 245.7,136.6 L 247.0,138.4 L 251.4,141.4 L 251.4,142.2 L 252.3,143.0 L 253.6,143.7 L 257.9,143.4 L 259.6,141.7 L 260.6,140.0 L 263.2,139.9 L 267.4,140.8 L 271.3,142.0 L 275.9,142.0 L 279.2,140.9 L 282.6,138.9 L 291.9,137.6 L 293.4,138.0 L 296.1,137.7 L 298.6,136.7 L 302.6,132.9 L 306.8,130.9 L 308.1,129.9 L 309.9,129.2 L 318.0,129.0 L 321.3,129.6 L 324.7,131.4 L 327.2,131.8 L 329.2,133.0 L 334.1,134.3 L 339.3,137.8 L 341.9,138.4 L 342.8,138.4 L 343.9,139.3 L 354.9,146.8 L 358.6,150.9 L 360.0,154.7 L 360.0,155.7 L 358.7,159.8 L 357.1,162.3 L 356.5,167.2 L 354.2,170.2 L 354.2,171.2 L 353.0,171.2 L 349.5,171.3 L 349.5,170.7 L 348.1,169.6 L 347.3,166.6 L 346.3,165.8 L 344.5,169.4 L 342.0,171.9 L 339.5,172.4 L 324.0,165.8 L 319.6,164.6 L 317.0,164.2 L 311.3,161.9 L 308.8,162.1 L 308.3,162.3 L 304.4,164.1 L 299.7,168.1 L 297.7,170.9 L 293.9,173.6 L 293.2,173.7 L 292.0,175.0 L 291.4,178.3 L 287.2,183.7 L 287.1,185.4 L 290.9,189.1 L 292.0,191.6 L 292.4,196.2 L 296.4,208.1 L 299.1,210.8 L 299.3,212.6 L 298.5,214.7 L 300.8,218.4 L 301.1,220.6 L 300.2,224.0 L 302.9,228.7 L 302.9,231.4 L 302.0,234.3 L 300.0,236.7 L 298.0,237.4 L 296.8,238.2 L 297.2,240.1 L 297.3,243.3 L 294.0,247.9 L 292.9,249.4 L 291.5,252.4 L 287.0,252.9 L 285.0,254.7 L 281.3,255.7 L 277.4,257.2 L 271.5,255.9 L 264.3,256.4 L 260.1,258.4 L 259.0,259.2 L 255.7,259.5 L 252.0,261.8 L 247.6,262.5 L 241.3,267.1 L 236.9,268.9 L 234.0,270.4 L 230.4,273.4 L 226.6,276.2 L 224.8,279.8 L 220.0,287.7 L 213.8,292.2 L 211.4,292.6 L 204.1,296.9 L 200.9,298.4 L 199.0,298.5 L 196.9,298.0 L 191.2,297.8 L 188.1,297.2 L 185.1,297.0 L 182.7,296.4 L 180.6,295.3 L 177.3,295.4 L 173.9,296.3 L 173.3,296.3 L 170.1,295.4 L 168.0,295.9 L 165.7,296.9 L 159.5,297.9 L 155.0,299.2 L 150.1,300.9 L 141.6,301.4 L 137.9,302.7 L 137.6,302.7 L 131.2,302.8 L 128.8,303.9 L 126.9,304.1 L 123.5,301.6 L 122.0,299.1 L 121.1,296.9 L 117.3,292.0 L 113.5,288.3 L 113.0,287.2 L 115.4,283.9 L 115.3,281.6 L 114.5,280.7 L 113.0,279.1 L 108.5,279.1 L 105.3,278.1 L 99.3,278.2 L 98.4,278.4 L 95.9,279.2 L 93.8,281.0 L 90.2,284.4 L 89.2,286.1 L 89.6,287.2 L 90.1,290.3 L 88.2,293.7 L 86.8,295.8 L 81.4,296.4 L 67.4,303.5 L 64.1,306.3 L 60.7,308.3 L 57.0,311.2 L 54.7,315.1 L 52.2,317.8 L 48.8,318.3 L 47.7,316.8 L 46.4,313.5 L 42.5,306.1 L 40.6,297.0 L 40.1,292.8 L 40.0,285.0 L 41.3,281.4 L 42.3,277.9 L 44.0,274.7 L 47.3,269.6 L 49.5,267.2 L 54.9,263.8 L 58.0,262.5 L 59.0,261.4 L 61.8,260.4 L 64.6,257.8 L 67.3,254.1 L 68.6,251.6 L 72.0,247.9 L 72.8,247.0 L 77.6,244.8 L 80.6,242.7 L 83.5,239.3 L 87.9,238.4 L 90.1,238.6 L 91.3,238.4 L 93.2,237.7 L 97.2,238.1 L 98.1,238.7 L 98.9,239.0 L 101.2,240.6 L 100.9,243.3 L 99.4,246.3 L 99.2,247.9 L 99.2,248.0 L 99.6,248.8 L 101.7,247.9" fill="none" stroke="black" stroke-width="2"/>
</svg>