<?xml version="1.0" encoding="UTF-8"?>
<svg width="400" height="400" viewBox="0 0 400 400" xmlns="http://www.w3.org/2000/svg">
  <rect width="400" height="400" fill="white"/>
  <path d="M 82.4,238.2 L 84.0,236.4 L 89.6,232.3 L 91.7,230.0 L 93.7,228.2 L 95.5,225.5 L 96.5,223.4 L 98.5,221.2 L 100.6,217.9 L 102.8,215.3 L 108.8,209.7 L 111.3,207.0 L 114.2,205.3 L 118.7,200.8 L 120.4,199.9 L 122.4,198.4 L 123.9,197.0 L 127.0,195.0 L 128.9,193.4 L 129.4,192.8 L 137.0,186.5 L 140.6,184.6 L 142.8,185.1 L 144.6,184.7 L 148.0,181.6 L 151.3,179.7 L 153.8,177.9 L 154.8,176.9 L 158.7,174.8 L 159.1,174.1 L 159.2,173.1 L 163.9,166.8 L 169.0,162.1 L 171.8,160.6 L 172.9,160.7 L 173.3,161.4 L 174.7,161.9 L 175.2,161.6 L 175.4,160.6 L 177.0,158.7 L 177.0,156.3 L 176.2,155.5 L 175.0,154.9 L 173.6,153.0 L 173.3,152.3 L 173.2,152.2 L 214.8,94.1 L 214.8,94.1 L 215.5,94.6 L 217.9,95.3 L 218.6,94.9 L 219.3,94.8 L 219.7,95.0 L 220.5,95.0 L 221.2,95.6 L 223.9,95.8 L 228.0,97.0 L 229.7,97.0 L 232.2,96.1 L 234.4,95.2 L 240.4,91.8 L 242.9,90.5 L 244.4,89.8 L 247.6,89.4 L 249.5,88.7 L 251.4,88.7 L 253.3,89.4 L 254.8,89.5 L 255.5,89.9 L 256.8,89.7 L 257.6,89.3 L 258.5,89.2 L 259.9,87.9 L 262.1,84.5 L 263.0,82.8 L 263.6,82.4 L 264.5,82.5 L 264.9,83.4 L 265.9,83.0 L 267.0,81.6 L 268.0,79.7 L 268.9,79.7 L 269.5,80.3 L 269.9,80.2 L 270.3,79.4 L 272.0,78.1 L 274.0,78.7 L 275.6,80.0 L 275.8,81.9 L 276.2,82.3 L 277.0,82.5 L 278.5,82.3 L 280.0,81.3 L 280.9,79.7 L 281.5,79.4 L 284.0,79.2 L 286.9,77.9 L 292.3,74.1 L 294.1,72.6 L 296.9,71.6 L 298.9,69.9 L 299.6,70.0 L 299.7,70.2 L 300.3,70.4 L 300.3,71.1 L 300.5,71.6 L 302.8,71.1 L 303.6,70.3 L 304.2,69.3 L 304.4,69.4 L 304.7,69.8 L 305.7,69.8 L 307.4,67.9 L 360.0,135.4 L 358.1,137.3 L 356.7,139.5 L 356.7,140.5 L 356.8,141.2 L 356.7,141.4 L 356.7,141.9 L 356.4,143.9 L 356.6,144.4 L 356.7,145.0 L 355.6,146.3 L 352.7,146.4 L 348.3,145.6 L 343.3,145.5 L 343.3,145.6 L 342.4,146.0 L 339.0,146.1 L 338.2,146.6 L 336.5,146.7 L 334.2,146.4 L 332.5,145.5 L 331.7,144.4 L 328.8,143.7 L 327.9,143.4 L 322.9,143.5 L 320.9,143.2 L 318.4,143.4 L 317.9,143.9 L 317.3,145.2 L 317.6,146.1 L 317.8,147.6 L 317.5,149.0 L 317.5,152.6 L 316.9,154.1 L 317.2,156.6 L 317.5,158.5 L 316.6,159.8 L 315.5,160.9 L 313.7,161.7 L 311.6,162.9 L 310.7,163.8 L 308.9,163.8 L 305.0,165.6 L 303.3,168.0 L 302.3,168.1 L 301.8,168.5 L 301.2,169.9 L 299.9,171.1 L 298.6,172.3 L 296.5,174.8 L 295.3,175.6 L 289.1,178.4 L 286.2,181.0 L 280.4,185.6 L 279.0,187.2 L 276.7,189.7 L 276.7,190.1 L 276.4,190.8 L 275.8,190.9 L 274.3,192.6 L 274.0,192.7 L 272.5,194.5 L 271.0,196.2 L 269.7,197.1 L 267.4,198.2 L 261.9,201.4 L 257.8,205.4 L 253.0,208.6 L 249.4,210.2 L 243.1,214.0 L 241.0,215.1 L 236.7,217.8 L 235.0,218.4 L 233.5,219.0 L 230.7,220.0 L 225.5,221.4 L 219.5,223.2 L 217.6,224.1 L 216.1,225.6 L 215.3,227.0 L 215.6,229.1 L 213.1,238.2 L 212.5,240.5 L 212.5,241.6 L 211.9,242.2 L 210.0,243.6 L 208.2,244.6 L 206.8,245.7 L 206.2,246.1 L 206.0,246.1 L 205.1,246.3 L 204.2,247.2 L 203.6,250.1 L 203.3,250.7 L 202.0,250.8 L 201.6,251.1 L 201.0,252.0 L 201.5,252.6 L 201.6,253.7 L 200.4,255.2 L 199.2,256.1 L 197.4,256.9 L 196.0,257.3 L 194.0,257.4 L 191.7,257.0 L 190.7,256.9 L 186.5,255.5 L 186.3,255.4 L 185.4,255.2 L 182.4,253.6 L 181.0,253.1 L 180.3,253.2 L 174.3,254.1 L 169.7,253.5 L 167.7,253.1 L 166.0,252.4 L 162.9,251.4 L 160.9,250.3 L 156.0,250.1 L 153.5,249.3 L 151.4,249.0 L 149.8,248.6 L 148.5,248.3 L 147.3,248.6 L 141.7,252.2 L 140.0,251.4 L 139.3,250.4 L 138.9,249.5 L 138.1,248.7 L 137.2,248.2 L 134.6,249.9 L 133.0,250.4 L 129.4,252.2 L 128.0,252.8 L 126.3,252.9 L 124.7,254.3 L 123.0,255.3 L 121.7,256.2 L 119.7,258.4 L 117.6,262.3 L 116.9,262.9 L 112.3,265.0 L 111.3,265.9 L 109.6,268.8 L 108.8,271.5 L 107.1,273.8 L 107.0,274.4 L 107.3,275.6 L 107.4,277.3 L 105.9,277.5 L 105.9,280.3 L 104.2,281.7 L 102.6,282.5 L 97.7,283.5 L 96.8,284.4 L 95.3,286.6 L 94.5,288.2 L 93.9,290.1 L 91.0,294.1 L 89.3,296.9 L 89.0,299.6 L 88.5,301.0 L 88.1,302.0 L 88.1,303.0 L 85.8,303.1 L 85.2,304.8 L 84.0,306.2 L 83.6,308.7 L 83.6,308.7 L 82.6,310.7 L 81.4,311.8 L 78.0,314.0 L 76.6,315.0 L 75.8,316.2 L 73.0,326.2 L 72.8,326.4 L 71.5,326.5 L 70.8,326.9 L 70.4,327.0 L 65.7,327.5 L 62.3,330.6 L 62.0,330.8 L 60.8,330.9 L 59.5,330.1 L 59.1,329.0 L 59.0,328.2 L 58.4,327.6 L 57.2,327.5 L 55.8,328.7 L 53.5,329.9 L 51.3,330.0 L 49.9,329.3 L 49.0,327.8 L 47.8,327.7 L 46.7,328.1 L 45.7,328.9 L 44.9,330.2 L 44.8,332.1 L 44.7,331.8 L 40.0,324.5 L 41.2,323.9 L 41.7,323.0 L 41.6,321.5 L 41.0,320.0 L 40.7,315.8 L 40.7,314.1 L 41.3,312.4 L 44.7,309.1 L 45.0,308.7 L 45.0,308.7 L 46.7,306.8 L 48.2,305.7 L 49.2,304.2 L 50.1,302.5 L 51.4,301.1 L 52.4,301.1 L 52.6,300.7 L 52.3,300.3 L 54.8,296.5 L 57.1,291.8 L 59.1,288.8 L 59.3,286.3 L 60.6,280.8 L 61.2,279.5 L 61.5,279.2 L 62.4,278.1 L 63.2,273.5 L 63.5,271.0 L 65.4,268.0 L 67.9,263.0 L 68.2,258.0 L 68.8,256.9 L 70.0,255.4 L 70.1,253.9 L 70.4,253.6 L 72.2,251.4 L 72.6,250.1 L 73.4,248.9 L 74.5,248.0 L 76.1,247.5 L 77.7,245.9 L 79.9,243.3 L 81.3,240.5 L 81.5,239.2 L 82.4,238.2" fill="none" stroke="black" stroke-width="2"/>
</svg>