<?xml version="1.0" encoding="UTF-8"?>
<svg width="400" height="400" viewBox="0 0 400 400" xmlns="http://www.w3.org/2000/svg">
  <rect width="400" height="400" fill="white"/>
  <path d="M 112.6,236.8 L 95.0,214.2 L 95.1,214.1 L 95.3,213.7 L 95.8,213.4 L 96.2,213.1 L 96.5,212.3 L 97.1,210.9 L 97.4,209.4 L 97.5,208.5 L 97.4,207.9 L 97.1,206.4 L 96.8,205.9 L 96.7,205.0 L 96.5,204.5 L 96.3,203.4 L 96.4,202.9 L 96.7,202.5 L 96.8,202.2 L 97.0,201.2 L 97.2,200.7 L 97.3,199.0 L 97.6,197.4 L 98.0,195.3 L 98.0,194.8 L 98.1,194.2 L 98.1,193.3 L 98.0,193.2 L 98.2,192.7 L 98.4,191.7 L 98.4,190.7 L 98.7,189.6 L 98.7,187.0 L 98.4,185.8 L 98.4,185.1 L 98.3,184.6 L 97.9,184.4 L 97.6,183.5 L 97.2,183.3 L 96.8,183.2 L 95.6,183.2 L 95.5,182.9 L 95.4,182.8 L 95.0,183.0 L 94.9,182.9 L 95.0,182.3 L 94.6,182.0 L 94.0,182.2 L 93.8,181.9 L 93.2,181.8 L 92.9,182.0 L 92.5,182.0 L 92.4,182.1 L 92.1,182.4 L 91.6,182.4 L 91.5,182.3 L 91.2,182.3 L 90.5,183.1 L 90.3,183.5 L 90.0,183.7 L 89.6,183.8 L 89.1,183.7 L 88.3,183.7 L 88.2,183.2 L 88.0,183.2 L 87.6,182.9 L 87.2,182.7 L 86.8,182.8 L 86.3,182.9 L 85.7,183.4 L 85.1,183.4 L 84.6,183.1 L 84.7,182.4 L 84.5,182.1 L 84.3,182.0 L 83.5,182.6 L 83.2,182.8 L 82.8,182.6 L 82.6,182.3 L 82.7,182.0 L 82.4,181.9 L 81.8,182.3 L 81.4,182.1 L 81.0,182.2 L 80.9,182.1 L 80.7,181.7 L 80.7,181.2 L 81.1,180.5 L 81.5,180.0 L 82.0,179.9 L 82.7,179.9 L 82.7,179.9 L 82.9,179.7 L 83.1,179.3 L 83.1,178.9 L 82.9,178.8 L 83.1,178.3 L 83.0,178.1 L 82.8,177.7 L 82.3,177.7 L 81.7,178.3 L 81.3,178.4 L 81.0,178.2 L 80.7,178.2 L 80.7,178.0 L 80.5,177.9 L 80.7,177.5 L 80.8,177.2 L 80.5,177.0 L 80.4,177.0 L 80.0,177.4 L 79.9,177.4 L 79.7,177.4 L 79.7,177.6 L 79.4,177.9 L 79.6,178.0 L 79.3,178.3 L 79.0,179.2 L 78.6,179.7 L 78.6,179.9 L 78.6,180.1 L 78.5,180.5 L 78.5,181.2 L 78.4,181.7 L 78.3,182.0 L 78.4,183.3 L 78.3,183.3 L 77.7,183.4 L 78.0,182.9 L 78.0,182.4 L 77.6,182.1 L 77.0,181.9 L 76.7,181.7 L 76.4,181.5 L 76.4,181.4 L 76.6,181.1 L 76.7,180.4 L 76.7,179.9 L 76.7,179.7 L 76.8,179.6 L 77.5,179.6 L 77.5,179.5 L 77.0,179.4 L 76.7,179.1 L 76.5,178.3 L 76.3,176.9 L 76.5,176.2 L 76.2,175.0 L 76.2,174.0 L 76.2,172.1 L 76.2,171.3 L 76.6,170.5 L 76.7,170.4 L 77.2,170.2 L 77.5,169.6 L 77.9,169.3 L 78.0,168.9 L 78.0,168.0 L 78.1,167.6 L 78.1,166.1 L 79.1,163.9 L 79.2,163.1 L 79.1,162.8 L 78.9,162.6 L 78.2,161.7 L 77.5,161.7 L 77.2,161.6 L 76.8,161.2 L 76.2,161.0 L 75.4,160.5 L 75.0,160.5 L 74.8,160.3 L 74.8,160.2 L 75.1,159.9 L 74.1,158.3 L 73.8,158.2 L 73.4,158.0 L 73.3,158.0 L 72.9,157.1 L 72.2,155.5 L 72.2,155.1 L 71.9,154.7 L 71.9,154.5 L 72.0,154.3 L 71.9,154.2 L 71.5,154.0 L 71.3,154.2 L 70.8,154.0 L 69.3,154.4 L 68.0,154.5 L 67.7,154.7 L 66.2,155.1 L 65.9,155.4 L 65.7,155.4 L 64.9,155.2 L 64.5,155.0 L 64.2,154.9 L 64.1,154.9 L 63.5,154.0 L 62.4,153.0 L 61.9,152.2 L 61.6,151.5 L 61.5,151.2 L 61.6,150.7 L 61.9,150.1 L 62.0,149.9 L 62.7,149.9 L 62.9,149.8 L 63.1,149.3 L 63.4,149.0 L 63.5,148.7 L 63.5,148.4 L 63.1,147.8 L 62.7,147.6 L 61.4,147.5 L 61.4,146.9 L 61.3,146.7 L 61.2,146.6 L 60.8,146.3 L 60.3,146.0 L 59.4,145.2 L 57.8,144.2 L 56.9,143.6 L 56.1,143.1 L 55.6,142.9 L 55.0,142.8 L 54.6,142.3 L 54.2,142.2 L 53.2,141.7 L 50.3,139.6 L 48.6,138.5 L 47.6,137.8 L 45.7,136.9 L 45.4,136.8 L 44.7,136.6 L 43.5,136.2 L 41.7,135.5 L 40.5,135.5 L 40.1,135.6 L 40.0,135.6 L 40.1,135.5 L 103.5,70.0 L 103.5,70.0 L 103.6,70.0 L 103.8,69.8 L 104.9,69.8 L 105.0,69.8 L 105.0,70.4 L 104.9,71.0 L 104.7,71.2 L 104.5,71.5 L 104.5,71.9 L 104.6,72.2 L 105.9,72.6 L 108.8,73.5 L 109.0,73.6 L 109.3,73.7 L 110.0,74.0 L 111.2,74.4 L 112.6,74.9 L 113.2,74.8 L 113.4,75.0 L 113.3,75.1 L 113.0,75.2 L 112.4,75.4 L 111.9,75.8 L 111.9,76.0 L 112.7,76.3 L 113.1,76.9 L 113.7,77.4 L 114.0,77.4 L 114.1,77.8 L 115.3,78.2 L 116.3,78.2 L 116.8,78.5 L 117.2,78.9 L 117.6,78.9 L 118.0,78.6 L 118.5,78.9 L 118.7,79.1 L 119.4,79.6 L 119.9,80.0 L 120.1,79.9 L 120.2,79.9 L 120.8,80.2 L 121.5,80.2 L 121.7,80.3 L 122.4,80.7 L 123.4,80.8 L 123.7,81.0 L 123.8,80.9 L 123.8,80.7 L 123.5,80.3 L 123.6,80.3 L 124.2,80.3 L 124.9,80.3 L 125.6,80.1 L 126.1,80.1 L 127.1,80.6 L 127.4,80.7 L 127.8,80.5 L 128.1,80.6 L 128.3,80.7 L 128.5,81.1 L 129.0,81.1 L 129.3,81.5 L 129.6,81.5 L 129.8,81.5 L 130.1,81.5 L 130.0,81.3 L 130.0,81.2 L 130.2,81.0 L 130.4,81.0 L 130.9,81.2 L 131.0,81.2 L 131.2,81.0 L 132.1,80.7 L 132.2,80.4 L 132.6,80.0 L 132.9,80.1 L 132.9,80.3 L 132.8,80.4 L 132.8,80.6 L 133.4,80.9 L 133.7,80.7 L 133.7,80.2 L 134.0,80.2 L 134.1,80.3 L 134.5,80.3 L 134.6,80.3 L 134.9,80.1 L 135.5,80.0 L 136.1,79.8 L 136.2,79.5 L 136.4,79.3 L 136.6,78.9 L 137.1,78.7 L 137.1,78.6 L 137.3,78.7 L 137.9,78.8 L 137.9,78.9 L 138.1,79.1 L 138.2,79.0 L 138.3,78.7 L 138.8,78.5 L 138.9,78.3 L 139.2,78.3 L 139.5,78.1 L 139.9,78.1 L 140.7,77.9 L 141.0,78.0 L 141.3,78.1 L 142.6,77.9 L 142.9,78.1 L 143.5,78.2 L 144.5,78.3 L 144.9,78.2 L 145.1,78.2 L 145.3,78.4 L 145.7,78.2 L 146.5,78.3 L 146.7,78.5 L 146.8,78.5 L 147.0,78.6 L 147.6,78.5 L 147.8,78.4 L 148.3,78.6 L 148.7,78.4 L 149.2,78.0 L 149.6,78.1 L 149.8,78.1 L 150.3,78.0 L 150.6,78.4 L 150.7,78.4 L 150.8,78.8 L 155.0,96.1 L 155.1,96.4 L 155.1,96.5 L 154.9,96.6 L 154.3,96.6 L 154.0,96.9 L 154.0,97.9 L 153.9,98.0 L 153.7,98.0 L 153.4,98.0 L 153.2,98.3 L 153.2,99.4 L 153.0,99.7 L 152.8,100.4 L 152.9,101.0 L 153.4,101.3 L 153.8,101.3 L 154.1,101.1 L 154.6,101.3 L 154.8,101.6 L 154.3,102.4 L 153.8,102.8 L 153.5,102.9 L 153.3,103.0 L 153.3,103.1 L 153.5,103.3 L 154.9,104.5 L 155.6,104.9 L 156.1,105.1 L 157.2,105.1 L 157.7,105.2 L 158.2,105.2 L 158.6,105.3 L 159.2,105.6 L 159.6,105.6 L 160.0,105.4 L 160.2,105.4 L 160.7,106.0 L 160.7,106.1 L 160.8,107.3 L 161.0,107.5 L 161.1,108.1 L 162.1,109.1 L 162.7,109.4 L 163.1,109.7 L 163.2,110.2 L 163.4,110.3 L 163.5,110.9 L 163.7,111.0 L 164.0,111.0 L 164.5,111.1 L 164.7,111.2 L 164.8,112.0 L 164.8,112.1 L 164.8,112.2 L 164.6,112.9 L 164.0,114.0 L 163.5,114.4 L 162.9,114.7 L 160.8,115.0 L 159.0,115.0 L 158.3,114.9 L 157.6,114.9 L 157.0,115.0 L 156.7,115.1 L 155.8,115.2 L 155.3,115.6 L 154.9,115.9 L 154.3,115.9 L 153.8,116.1 L 152.7,116.5 L 151.7,117.0 L 151.3,117.0 L 150.5,117.2 L 150.1,117.4 L 149.8,117.5 L 149.3,117.7 L 148.9,117.7 L 148.7,117.6 L 148.5,117.7 L 147.9,117.8 L 146.3,118.3 L 146.0,118.4 L 145.8,118.3 L 145.4,118.1 L 145.1,117.7 L 144.9,117.6 L 144.6,117.6 L 144.2,117.7 L 144.0,117.8 L 143.7,118.3 L 143.5,118.5 L 143.2,118.8 L 142.8,119.6 L 142.6,120.3 L 142.1,121.4 L 141.6,121.9 L 141.1,122.2 L 140.3,123.1 L 140.1,123.6 L 139.4,124.4 L 138.9,125.0 L 138.8,125.9 L 138.7,126.2 L 138.6,126.6 L 138.3,127.0 L 138.3,127.3 L 138.0,127.5 L 138.1,127.7 L 138.5,127.8 L 139.0,127.7 L 139.5,127.8 L 139.9,128.4 L 140.1,128.8 L 140.1,129.0 L 140.3,129.5 L 140.7,129.7 L 141.4,129.8 L 141.8,130.0 L 142.6,130.1 L 143.2,130.4 L 144.4,131.3 L 144.8,132.0 L 144.9,132.8 L 145.1,133.0 L 145.6,133.1 L 146.2,133.2 L 146.7,133.4 L 147.5,133.5 L 147.5,133.6 L 147.7,134.3 L 148.5,134.6 L 148.7,134.5 L 148.9,134.3 L 148.9,134.1 L 149.3,133.8 L 149.1,133.4 L 149.4,133.2 L 149.8,133.4 L 150.7,134.0 L 150.8,134.2 L 150.8,134.5 L 150.8,134.7 L 150.3,135.0 L 150.3,135.1 L 150.5,135.2 L 150.6,135.3 L 150.7,135.8 L 150.7,136.0 L 151.0,136.0 L 151.2,136.3 L 151.8,136.5 L 151.9,136.4 L 152.0,136.5 L 152.1,136.5 L 152.4,136.7 L 152.9,136.6 L 153.0,136.5 L 153.2,136.1 L 153.5,135.7 L 153.9,135.6 L 154.2,136.0 L 154.4,136.4 L 154.9,136.6 L 155.3,136.9 L 155.5,136.9 L 155.4,136.2 L 155.4,135.9 L 155.5,135.6 L 155.8,134.9 L 156.0,134.7 L 156.6,134.5 L 157.3,134.6 L 158.5,134.3 L 159.1,134.1 L 159.4,134.2 L 159.7,134.1 L 160.4,133.7 L 160.7,133.5 L 161.8,133.2 L 162.5,132.9 L 163.3,133.4 L 163.7,133.7 L 163.8,134.1 L 164.2,134.3 L 164.2,134.8 L 164.4,135.1 L 164.6,135.3 L 165.3,135.9 L 165.4,135.9 L 165.8,135.9 L 166.4,136.0 L 168.8,137.2 L 171.2,138.1 L 171.8,138.2 L 172.3,138.4 L 173.3,138.7 L 174.1,139.0 L 174.4,139.3 L 174.9,139.5 L 175.7,139.6 L 176.1,139.8 L 176.7,140.0 L 177.7,140.4 L 178.2,140.9 L 178.6,141.5 L 178.8,142.1 L 179.0,142.4 L 179.0,143.2 L 178.7,143.7 L 178.2,144.0 L 177.9,144.4 L 177.9,144.8 L 177.8,145.2 L 177.5,145.7 L 176.1,147.2 L 175.2,148.1 L 175.1,148.4 L 174.9,149.0 L 174.8,150.2 L 174.3,151.3 L 173.9,151.8 L 173.7,152.0 L 173.1,153.0 L 172.8,153.4 L 172.1,154.0 L 171.5,154.3 L 170.4,154.5 L 169.7,154.8 L 169.6,154.8 L 169.1,155.2 L 168.3,155.3 L 168.1,155.3 L 167.0,154.4 L 166.8,153.9 L 166.2,153.5 L 165.7,153.0 L 165.3,152.6 L 164.9,151.8 L 164.5,151.0 L 164.1,150.2 L 163.4,149.5 L 162.9,148.9 L 162.7,148.6 L 162.7,148.4 L 162.3,147.5 L 162.0,147.0 L 161.7,146.6 L 160.8,146.1 L 160.5,146.0 L 160.5,144.5 L 160.6,144.0 L 160.9,143.7 L 160.9,143.1 L 160.6,143.0 L 160.6,142.8 L 160.1,142.3 L 159.5,142.0 L 159.3,141.7 L 159.1,141.6 L 158.6,141.1 L 158.1,140.8 L 157.9,140.5 L 157.7,140.2 L 157.6,139.8 L 157.5,139.3 L 157.3,139.0 L 156.8,138.9 L 156.7,138.7 L 156.7,138.3 L 156.6,138.1 L 156.3,138.1 L 155.4,139.4 L 154.8,139.4 L 154.5,139.1 L 154.4,138.7 L 154.6,138.4 L 154.6,138.2 L 154.6,137.9 L 154.4,137.9 L 154.0,137.9 L 153.5,138.2 L 153.0,138.2 L 152.8,138.1 L 152.0,137.4 L 151.7,137.2 L 151.1,137.2 L 151.0,137.1 L 150.9,136.8 L 150.7,137.0 L 150.5,137.0 L 150.4,137.2 L 150.1,137.2 L 149.9,137.1 L 149.7,136.8 L 149.3,136.8 L 149.1,136.9 L 148.8,137.2 L 148.8,138.1 L 149.1,138.6 L 148.9,138.7 L 148.3,138.6 L 148.3,138.9 L 148.9,139.6 L 148.9,139.9 L 148.7,139.9 L 148.4,139.3 L 148.2,139.3 L 147.7,140.2 L 147.5,140.3 L 147.4,140.3 L 147.4,139.4 L 147.4,139.2 L 147.7,138.6 L 147.8,138.1 L 147.8,137.1 L 147.6,136.9 L 147.4,137.0 L 147.1,137.1 L 147.0,137.1 L 146.9,136.9 L 146.8,136.8 L 146.8,136.4 L 146.7,135.6 L 146.4,135.1 L 146.2,135.0 L 146.2,135.0 L 145.8,134.9 L 145.1,134.6 L 144.8,134.7 L 144.4,135.0 L 144.1,135.3 L 144.1,135.7 L 143.7,136.0 L 143.5,136.3 L 143.2,136.7 L 142.6,137.1 L 142.1,137.6 L 142.1,137.9 L 142.3,138.2 L 142.5,138.4 L 142.8,138.6 L 143.0,138.6 L 143.4,138.8 L 143.2,138.9 L 142.2,139.2 L 141.6,139.5 L 141.2,140.0 L 140.1,140.2 L 139.3,140.8 L 139.2,141.0 L 138.7,141.1 L 138.5,141.4 L 138.7,141.8 L 138.7,142.0 L 138.6,142.2 L 138.5,142.2 L 138.2,142.0 L 138.1,141.7 L 137.9,141.5 L 137.8,141.2 L 137.6,140.9 L 136.9,140.4 L 136.6,140.4 L 136.1,140.4 L 135.9,140.5 L 135.7,140.8 L 135.4,141.5 L 135.4,142.2 L 135.6,142.5 L 135.6,142.8 L 135.4,143.5 L 135.4,143.9 L 135.8,145.4 L 136.0,145.6 L 136.2,145.5 L 136.7,145.2 L 137.2,145.0 L 137.5,145.2 L 137.5,145.6 L 137.1,146.4 L 137.0,146.9 L 137.2,147.5 L 137.5,147.4 L 138.0,147.4 L 138.5,147.2 L 138.9,147.3 L 139.3,147.6 L 139.2,147.8 L 139.3,148.0 L 139.7,148.0 L 139.8,148.1 L 139.7,148.5 L 140.2,148.8 L 140.6,148.7 L 140.9,148.7 L 141.1,149.1 L 141.6,149.1 L 142.0,149.2 L 142.3,149.2 L 142.4,149.3 L 142.8,149.5 L 143.2,149.4 L 143.5,149.7 L 144.1,149.8 L 144.8,149.8 L 145.2,150.0 L 145.8,150.5 L 146.2,150.5 L 146.4,150.6 L 146.6,150.8 L 147.2,150.8 L 147.4,150.9 L 147.8,151.8 L 147.9,152.1 L 148.1,153.2 L 148.2,154.0 L 148.2,155.8 L 148.0,156.9 L 147.8,157.1 L 146.8,157.6 L 146.5,157.9 L 146.4,158.3 L 145.9,158.8 L 145.6,159.3 L 144.7,160.0 L 144.4,160.2 L 143.2,160.4 L 141.5,160.5 L 141.0,161.0 L 140.7,161.1 L 140.5,160.9 L 140.2,160.9 L 140.2,160.9 L 139.7,161.2 L 139.3,161.5 L 138.7,162.5 L 138.4,162.9 L 138.2,162.9 L 137.9,163.0 L 138.1,163.3 L 138.1,163.6 L 139.0,165.3 L 139.5,165.9 L 139.9,166.2 L 140.2,166.5 L 140.8,166.6 L 141.2,167.0 L 141.8,168.1 L 142.5,168.8 L 143.5,170.1 L 144.1,170.8 L 144.7,170.9 L 144.9,171.2 L 145.0,171.7 L 145.0,172.5 L 144.7,172.8 L 143.1,174.4 L 142.2,175.5 L 142.1,175.8 L 142.2,176.0 L 142.1,176.1 L 141.7,176.1 L 140.9,176.3 L 140.3,176.8 L 140.2,176.8 L 138.8,178.1 L 138.6,178.5 L 138.7,178.8 L 138.2,180.3 L 138.4,180.8 L 138.6,181.1 L 138.8,181.6 L 138.8,182.0 L 138.9,182.2 L 139.0,182.4 L 139.1,182.5 L 139.2,182.8 L 139.3,183.8 L 139.0,185.6 L 139.2,186.4 L 139.2,186.8 L 138.9,187.3 L 138.6,187.6 L 138.2,187.6 L 138.1,187.7 L 137.7,189.0 L 137.7,189.3 L 137.7,189.5 L 137.3,189.8 L 137.1,190.2 L 136.9,190.1 L 136.4,190.2 L 136.2,190.5 L 136.2,192.1 L 136.4,192.6 L 136.6,192.6 L 136.9,192.8 L 136.8,193.2 L 136.9,193.4 L 137.3,193.5 L 137.2,194.4 L 137.3,194.6 L 137.4,195.5 L 137.3,195.9 L 137.6,196.3 L 137.8,196.3 L 137.9,196.8 L 138.3,197.5 L 138.4,197.7 L 139.8,199.0 L 140.3,199.7 L 140.8,200.3 L 140.8,200.6 L 141.1,201.0 L 142.0,202.1 L 143.3,203.3 L 143.4,203.7 L 143.6,204.1 L 144.5,204.8 L 145.0,204.8 L 145.2,205.0 L 145.3,205.2 L 145.6,206.0 L 146.1,206.6 L 146.9,207.3 L 147.9,208.3 L 148.2,208.7 L 148.6,209.1 L 149.5,209.5 L 149.7,209.5 L 150.1,209.7 L 150.1,209.9 L 150.3,210.0 L 150.8,209.7 L 151.1,209.6 L 151.8,210.5 L 152.5,211.8 L 152.5,212.8 L 152.8,213.1 L 154.1,213.8 L 154.7,214.0 L 156.1,214.6 L 156.4,214.6 L 157.1,215.2 L 157.2,215.4 L 157.4,215.5 L 158.6,215.5 L 159.6,215.6 L 160.3,215.8 L 161.1,215.9 L 161.3,216.1 L 161.7,216.4 L 162.0,216.5 L 162.3,216.6 L 162.8,217.3 L 163.5,218.0 L 164.0,218.0 L 164.5,218.2 L 164.8,218.2 L 165.1,218.1 L 165.5,217.7 L 165.9,217.7 L 165.9,217.8 L 166.3,217.9 L 166.5,218.2 L 166.9,218.3 L 167.2,218.3 L 167.4,218.4 L 167.6,218.7 L 167.6,218.9 L 167.5,219.4 L 168.1,220.4 L 168.2,220.7 L 168.1,220.8 L 168.0,221.1 L 168.6,221.3 L 169.1,221.3 L 169.3,221.4 L 169.4,221.8 L 169.6,222.0 L 169.9,222.3 L 170.3,222.3 L 170.7,222.2 L 171.3,222.0 L 172.0,222.1 L 172.4,222.4 L 172.8,222.8 L 172.8,223.2 L 172.6,223.5 L 172.7,223.9 L 172.5,224.2 L 172.9,224.7 L 173.3,224.8 L 173.4,225.2 L 173.3,225.5 L 173.3,225.6 L 173.8,225.7 L 173.9,226.0 L 174.0,226.3 L 174.5,226.4 L 175.3,226.8 L 175.7,226.9 L 175.8,227.4 L 175.9,227.6 L 176.6,228.4 L 177.1,229.0 L 177.6,229.2 L 178.0,229.5 L 178.4,229.2 L 178.7,229.4 L 179.6,230.4 L 179.6,230.7 L 179.7,230.8 L 180.2,231.0 L 180.7,231.2 L 180.8,231.4 L 181.0,231.8 L 181.3,232.0 L 182.9,232.5 L 183.4,232.9 L 183.9,233.1 L 184.4,233.2 L 184.4,233.4 L 184.6,233.6 L 186.0,234.5 L 186.6,234.4 L 186.8,234.4 L 188.0,235.0 L 188.4,235.0 L 189.0,235.2 L 189.4,235.5 L 190.2,235.4 L 191.1,234.5 L 191.4,234.0 L 191.6,233.5 L 191.7,233.5 L 191.7,233.8 L 191.9,233.9 L 192.0,233.9 L 191.9,233.3 L 191.8,233.1 L 191.8,232.7 L 191.4,232.7 L 191.2,232.4 L 191.2,231.9 L 191.3,231.1 L 191.6,230.4 L 192.6,229.5 L 193.3,229.1 L 194.5,228.7 L 195.1,228.7 L 195.6,228.8 L 196.3,228.8 L 197.2,228.5 L 197.7,228.6 L 198.3,228.8 L 199.7,229.1 L 200.5,229.3 L 201.5,229.7 L 201.9,230.1 L 202.3,230.4 L 203.0,230.7 L 203.3,230.9 L 204.6,231.6 L 204.9,232.1 L 205.4,232.5 L 205.6,232.5 L 205.8,232.6 L 206.4,232.9 L 207.2,232.7 L 207.8,232.7 L 208.3,232.9 L 208.6,233.3 L 208.7,233.9 L 209.0,234.1 L 209.3,234.8 L 209.8,236.0 L 210.5,236.6 L 212.6,238.0 L 213.3,238.2 L 214.3,238.6 L 215.4,239.1 L 215.8,239.2 L 216.1,239.3 L 216.8,239.4 L 217.5,239.8 L 217.9,239.9 L 218.3,239.7 L 218.6,239.7 L 219.2,240.1 L 219.6,240.2 L 220.1,240.0 L 220.7,239.6 L 221.1,239.7 L 221.3,239.8 L 221.3,240.0 L 221.4,240.2 L 221.7,240.2 L 222.0,240.4 L 222.8,240.4 L 223.0,240.7 L 223.2,240.9 L 224.4,240.9 L 224.8,240.9 L 226.0,240.8 L 226.0,240.8 L 226.6,240.4 L 226.8,240.3 L 226.9,240.4 L 227.0,240.6 L 227.5,240.6 L 227.7,240.6 L 227.6,240.9 L 227.8,241.0 L 228.9,241.0 L 229.2,240.8 L 229.5,240.8 L 230.2,240.8 L 230.3,240.8 L 231.2,240.4 L 232.1,240.1 L 232.1,240.1 L 232.7,240.0 L 233.0,239.8 L 233.3,239.8 L 234.1,240.0 L 234.4,240.0 L 235.0,239.6 L 235.7,239.5 L 236.2,239.3 L 236.6,239.0 L 237.2,239.1 L 237.5,238.9 L 238.4,238.8 L 238.9,238.5 L 239.5,238.1 L 240.1,238.0 L 240.7,237.6 L 242.3,236.5 L 243.7,234.9 L 244.0,234.4 L 244.3,233.6 L 245.0,232.7 L 245.3,232.5 L 245.7,231.8 L 246.4,231.0 L 247.3,230.3 L 247.9,230.0 L 248.3,229.8 L 248.8,229.6 L 249.4,229.4 L 250.9,229.6 L 250.9,229.6 L 251.2,229.6 L 252.6,230.8 L 253.8,231.6 L 254.4,231.8 L 254.6,231.8 L 255.0,231.9 L 255.5,232.5 L 255.5,233.0 L 255.9,233.7 L 256.1,234.0 L 257.0,233.9 L 258.7,233.0 L 259.0,233.0 L 259.2,233.2 L 259.2,233.7 L 258.6,235.0 L 258.1,236.4 L 257.8,237.6 L 257.6,238.2 L 257.5,238.6 L 257.8,239.5 L 258.8,240.5 L 259.3,240.8 L 259.6,240.9 L 259.9,241.1 L 260.0,241.4 L 260.2,241.9 L 260.4,242.1 L 260.6,242.0 L 261.1,242.2 L 261.7,242.2 L 261.9,242.4 L 262.2,242.7 L 262.6,242.7 L 263.0,242.5 L 263.8,242.0 L 264.5,241.7 L 265.0,241.6 L 265.5,241.6 L 265.9,241.8 L 266.5,241.6 L 267.0,241.8 L 269.3,241.6 L 269.8,241.5 L 270.5,241.3 L 271.4,241.3 L 271.7,241.1 L 271.8,241.1 L 272.6,240.9 L 273.2,240.7 L 273.6,240.4 L 274.6,240.2 L 275.4,240.0 L 275.7,239.8 L 276.4,239.8 L 277.1,240.1 L 277.3,240.4 L 277.5,241.1 L 277.8,241.9 L 278.3,242.6 L 278.8,242.6 L 278.9,243.2 L 278.9,243.3 L 279.1,243.4 L 279.4,243.4 L 279.5,243.3 L 279.6,243.1 L 279.8,243.1 L 279.9,243.3 L 279.9,243.3 L 280.0,243.5 L 280.3,243.4 L 280.4,243.3 L 280.6,243.2 L 281.0,243.3 L 281.2,243.0 L 282.0,241.2 L 282.0,241.1 L 282.2,241.3 L 282.5,241.3 L 282.8,241.0 L 282.8,240.5 L 283.2,240.0 L 283.4,239.5 L 283.6,239.0 L 283.9,238.6 L 284.8,237.7 L 285.5,237.1 L 285.8,236.9 L 290.1,234.8 L 291.4,234.0 L 293.2,232.5 L 294.7,232.4 L 295.1,232.3 L 295.6,232.3 L 295.9,232.4 L 296.0,232.5 L 295.9,232.8 L 296.3,234.0 L 296.3,234.7 L 296.0,235.6 L 295.7,236.4 L 294.4,237.8 L 294.3,238.0 L 294.4,238.1 L 294.8,238.1 L 295.0,238.3 L 295.0,238.7 L 295.2,238.8 L 295.4,238.8 L 295.9,238.3 L 296.1,237.9 L 296.9,237.0 L 297.2,236.5 L 297.5,236.2 L 299.4,236.1 L 300.0,236.4 L 300.7,236.9 L 300.9,237.1 L 301.1,237.2 L 301.3,237.2 L 301.7,236.8 L 301.9,236.7 L 302.4,237.1 L 302.6,237.3 L 302.7,237.3 L 303.1,237.6 L 303.2,237.8 L 303.6,238.1 L 304.3,239.0 L 304.4,239.5 L 304.3,239.7 L 304.5,240.1 L 304.8,240.5 L 305.4,241.3 L 306.0,242.2 L 306.0,242.6 L 305.6,243.3 L 305.4,243.6 L 305.5,243.7 L 305.5,244.0 L 305.1,244.3 L 305.1,244.7 L 304.9,245.0 L 304.8,245.6 L 304.7,246.0 L 304.9,246.2 L 305.0,246.9 L 305.1,247.9 L 305.2,248.7 L 305.1,249.0 L 305.4,249.6 L 305.4,249.7 L 305.1,249.8 L 305.0,249.9 L 305.0,250.0 L 305.1,250.3 L 305.7,250.6 L 305.8,250.9 L 306.2,251.5 L 305.8,251.9 L 305.8,252.0 L 306.0,252.2 L 306.3,252.1 L 306.9,251.7 L 307.3,251.6 L 308.1,251.6 L 308.3,251.6 L 308.6,251.9 L 308.6,252.2 L 309.1,252.3 L 309.3,252.2 L 309.5,251.9 L 309.6,251.7 L 310.6,251.7 L 311.0,251.7 L 311.4,252.0 L 311.8,252.3 L 312.8,252.3 L 313.0,252.3 L 314.1,253.0 L 314.8,253.0 L 315.8,252.6 L 316.3,252.5 L 317.2,252.9 L 317.4,253.1 L 317.7,253.4 L 317.9,253.7 L 318.3,254.6 L 318.1,254.9 L 318.2,255.2 L 318.3,255.4 L 318.6,255.4 L 319.0,255.2 L 319.6,255.2 L 320.1,255.7 L 320.1,256.5 L 320.4,256.7 L 320.6,256.7 L 320.8,256.4 L 320.8,255.9 L 321.2,255.5 L 321.4,255.4 L 321.3,255.3 L 321.1,255.2 L 320.9,255.0 L 320.7,254.6 L 320.6,254.3 L 320.7,254.3 L 320.9,254.4 L 321.7,255.4 L 322.1,256.6 L 322.5,257.7 L 322.7,258.1 L 323.1,258.6 L 324.3,259.4 L 324.3,259.9 L 324.5,260.5 L 324.6,261.0 L 324.5,261.4 L 324.7,261.7 L 324.5,262.0 L 324.5,262.1 L 324.8,262.3 L 325.0,262.7 L 325.0,263.3 L 324.6,263.7 L 325.1,264.2 L 325.6,264.5 L 326.4,264.6 L 326.6,264.4 L 326.9,264.4 L 327.7,263.9 L 328.2,263.8 L 328.6,263.9 L 329.9,264.8 L 330.9,265.9 L 331.7,267.9 L 331.7,268.2 L 331.5,268.6 L 331.7,269.1 L 331.8,269.3 L 331.7,269.6 L 331.7,269.9 L 332.0,270.2 L 332.6,270.3 L 333.2,270.2 L 333.6,270.1 L 334.5,269.5 L 334.8,269.5 L 335.4,270.0 L 335.8,270.0 L 335.7,270.3 L 336.0,270.7 L 336.1,271.0 L 336.1,271.6 L 336.3,272.5 L 335.9,273.6 L 335.7,273.9 L 335.4,273.9 L 335.3,273.8 L 335.1,273.8 L 335.0,274.0 L 335.1,274.2 L 335.2,274.3 L 335.0,274.4 L 334.5,274.5 L 334.3,274.8 L 334.2,275.0 L 334.1,275.1 L 334.1,275.5 L 334.5,275.5 L 334.7,275.3 L 335.0,275.3 L 335.2,275.5 L 335.5,275.5 L 336.1,275.9 L 336.2,275.9 L 336.2,275.6 L 336.0,275.4 L 336.0,275.1 L 336.2,275.0 L 336.5,275.0 L 337.2,275.6 L 337.7,275.7 L 338.0,275.7 L 338.2,275.5 L 338.2,275.5 L 360.0,296.6 L 360.0,296.6 L 359.9,296.8 L 359.4,297.4 L 359.3,298.0 L 359.2,298.1 L 359.0,298.2 L 358.3,298.9 L 358.2,299.3 L 358.0,299.8 L 357.9,300.1 L 358.0,300.5 L 358.0,300.8 L 358.0,301.0 L 357.3,301.5 L 356.7,301.8 L 356.2,301.9 L 355.8,301.8 L 355.5,302.1 L 355.0,302.2 L 354.8,302.4 L 354.1,303.8 L 353.8,304.0 L 353.3,304.6 L 353.1,304.6 L 352.5,304.7 L 352.2,304.6 L 352.1,304.5 L 351.7,304.5 L 351.6,304.6 L 351.3,304.7 L 351.0,305.0 L 350.7,306.3 L 350.6,306.5 L 350.6,307.4 L 350.4,308.0 L 350.0,308.6 L 349.9,309.0 L 349.5,309.3 L 349.2,309.6 L 348.9,309.7 L 348.4,310.5 L 347.3,312.6 L 347.4,313.0 L 347.4,313.5 L 347.0,314.5 L 346.7,314.5 L 346.0,315.4 L 345.4,316.6 L 345.4,317.1 L 344.8,318.8 L 344.4,319.7 L 344.3,320.0 L 344.5,320.5 L 344.8,320.8 L 345.0,320.9 L 345.0,321.1 L 345.4,322.0 L 345.5,322.5 L 345.2,323.0 L 345.0,323.7 L 344.8,323.9 L 344.8,324.4 L 344.1,325.7 L 343.6,326.3 L 343.4,326.6 L 343.1,326.9 L 342.8,327.0 L 342.4,327.3 L 342.0,327.2 L 341.9,327.4 L 341.8,327.4 L 310.8,329.2 L 310.8,329.1 L 310.6,328.8 L 310.4,328.7 L 310.0,328.6 L 308.1,326.9 L 307.4,326.4 L 305.7,326.5 L 305.4,325.9 L 305.3,325.7 L 305.1,325.3 L 304.7,324.8 L 304.4,324.6 L 303.7,324.4 L 303.1,324.6 L 302.1,325.1 L 301.7,325.6 L 301.2,326.6 L 300.8,327.4 L 300.8,328.0 L 300.3,328.5 L 300.0,329.2 L 299.7,330.2 L 299.3,330.2 L 299.3,330.1 L 299.0,330.1 L 298.0,329.7 L 297.2,329.3 L 297.0,329.0 L 296.8,328.9 L 296.3,328.5 L 296.2,327.8 L 295.7,327.0 L 295.7,325.7 L 296.1,324.2 L 296.2,324.1 L 296.6,323.6 L 296.8,323.3 L 296.8,323.2 L 297.5,323.2 L 297.6,323.3 L 297.8,323.2 L 297.8,323.0 L 297.6,323.0 L 297.4,323.1 L 296.8,323.1 L 296.4,322.9 L 296.3,322.4 L 296.2,322.1 L 295.9,321.3 L 295.6,320.2 L 295.5,319.5 L 295.3,319.0 L 295.2,318.2 L 294.9,317.5 L 295.0,316.9 L 295.1,316.6 L 295.2,316.5 L 295.1,316.2 L 294.9,316.4 L 294.8,316.1 L 294.6,315.2 L 294.6,314.5 L 294.9,314.1 L 295.0,313.8 L 295.1,313.7 L 295.1,313.5 L 294.9,313.4 L 294.7,312.6 L 294.7,311.7 L 294.6,311.4 L 294.6,310.7 L 294.4,310.4 L 294.4,309.8 L 294.3,309.5 L 294.5,308.3 L 294.6,307.9 L 294.3,307.3 L 294.2,306.9 L 293.8,306.5 L 293.5,306.5 L 292.7,306.0 L 291.9,305.1 L 291.0,304.0 L 290.4,303.6 L 290.0,303.2 L 289.6,302.8 L 289.2,302.5 L 288.9,302.4 L 288.3,302.5 L 287.7,302.6 L 287.3,302.7 L 287.0,302.6 L 286.8,302.7 L 286.2,302.5 L 285.7,302.5 L 284.8,302.1 L 284.6,301.9 L 284.4,301.7 L 284.0,301.3 L 283.4,300.8 L 281.6,300.0 L 280.8,300.0 L 280.2,299.7 L 279.6,299.3 L 279.4,298.9 L 279.2,298.8 L 278.2,298.8 L 277.5,298.5 L 276.7,298.4 L 275.9,298.3 L 275.6,298.2 L 274.9,297.9 L 274.1,297.4 L 273.9,297.3 L 273.5,297.1 L 273.1,297.1 L 272.7,297.3 L 272.0,297.1 L 271.7,297.1 L 270.5,297.1 L 269.8,296.7 L 269.2,296.1 L 268.7,295.5 L 268.8,295.2 L 268.7,294.9 L 268.2,294.3 L 267.9,294.3 L 267.3,294.6 L 266.8,295.1 L 266.2,295.1 L 265.7,295.3 L 265.3,295.1 L 265.0,294.9 L 264.8,294.1 L 264.8,294.1 L 264.5,293.6 L 264.1,293.6 L 263.4,293.4 L 263.1,293.6 L 262.6,294.0 L 262.1,294.1 L 261.6,293.9 L 261.0,294.1 L 261.0,294.1 L 260.5,294.3 L 260.2,294.1 L 260.2,294.1 L 259.8,293.8 L 259.7,293.7 L 259.5,294.1 L 259.2,294.6 L 259.1,295.2 L 258.6,295.6 L 258.2,295.6 L 258.0,295.2 L 257.4,295.0 L 257.1,294.7 L 257.1,294.4 L 257.0,294.3 L 256.2,294.3 L 255.7,294.9 L 255.2,295.4 L 254.7,295.4 L 254.1,295.2 L 253.5,295.1 L 253.0,295.1 L 252.8,295.0 L 252.4,295.0 L 252.0,294.6 L 252.3,294.1 L 251.8,293.4 L 251.5,293.3 L 251.5,293.0 L 252.1,292.5 L 252.2,292.3 L 252.0,291.7 L 251.9,291.7 L 251.5,291.9 L 251.1,292.0 L 251.1,291.7 L 251.1,291.6 L 250.6,291.2 L 250.4,290.8 L 250.2,290.7 L 250.2,290.9 L 249.7,291.5 L 249.6,291.8 L 249.5,292.4 L 249.4,292.5 L 249.2,292.6 L 249.0,292.3 L 248.7,291.8 L 248.6,291.7 L 248.3,291.8 L 247.9,292.3 L 247.8,292.8 L 247.9,293.1 L 247.7,293.4 L 247.2,293.6 L 247.0,294.2 L 247.0,294.2 L 246.9,294.3 L 246.6,294.6 L 246.4,294.6 L 246.3,294.5 L 246.2,294.3 L 245.9,294.3 L 245.6,294.4 L 245.2,294.7 L 244.9,294.8 L 245.0,294.5 L 245.2,294.2 L 245.2,293.9 L 245.1,293.8 L 244.4,293.6 L 243.8,293.4 L 242.6,292.1 L 242.4,291.8 L 242.5,291.3 L 243.5,289.0 L 243.6,288.8 L 244.1,287.5 L 244.1,286.7 L 244.1,285.5 L 243.7,285.1 L 243.2,284.6 L 242.9,284.6 L 242.8,285.0 L 242.3,285.3 L 242.3,285.7 L 242.2,285.9 L 241.9,286.0 L 241.8,286.1 L 241.3,286.7 L 241.2,287.3 L 241.1,287.9 L 240.6,288.3 L 240.2,288.5 L 239.8,289.0 L 239.4,289.5 L 238.9,290.4 L 238.6,291.3 L 238.4,291.6 L 237.9,291.8 L 237.3,291.9 L 236.2,291.5 L 235.8,291.3 L 235.4,291.0 L 234.5,291.0 L 234.0,290.8 L 233.5,290.9 L 232.9,290.6 L 232.4,290.6 L 231.8,290.1 L 231.6,290.0 L 231.2,289.2 L 230.6,289.1 L 230.5,289.0 L 230.3,288.9 L 229.9,288.4 L 229.8,287.9 L 229.4,287.5 L 228.7,287.0 L 228.4,286.9 L 227.9,286.5 L 226.0,286.2 L 225.9,286.2 L 225.3,286.1 L 224.7,285.9 L 224.3,285.8 L 224.2,286.1 L 223.9,286.1 L 223.6,286.2 L 223.2,286.1 L 222.1,286.1 L 221.7,286.2 L 220.8,286.2 L 220.5,286.3 L 220.0,286.3 L 219.5,286.2 L 218.6,286.2 L 218.2,286.2 L 217.7,286.2 L 216.8,286.6 L 215.3,287.3 L 214.3,287.6 L 213.8,287.6 L 212.9,287.2 L 212.2,287.1 L 211.2,287.3 L 210.6,287.4 L 209.6,287.5 L 209.1,287.8 L 207.9,288.1 L 207.5,287.8 L 207.1,287.7 L 206.9,287.6 L 206.6,287.7 L 206.0,288.0 L 205.8,288.0 L 205.3,287.7 L 204.9,287.6 L 204.2,287.7 L 202.8,287.2 L 202.0,287.1 L 201.0,286.8 L 200.5,286.5 L 199.6,286.5 L 199.1,286.5 L 198.3,286.3 L 197.7,286.3 L 197.4,286.1 L 197.0,286.0 L 196.2,285.6 L 194.8,285.1 L 193.8,284.8 L 193.0,284.6 L 192.8,284.4 L 192.6,284.1 L 192.1,283.7 L 190.8,282.7 L 189.6,281.7 L 189.5,281.5 L 189.4,281.1 L 189.0,280.7 L 188.5,280.3 L 188.4,280.2 L 187.6,279.6 L 187.1,279.4 L 186.0,279.5 L 185.8,279.3 L 186.0,279.0 L 185.9,278.9 L 185.7,279.0 L 185.5,279.1 L 185.3,279.1 L 185.3,278.9 L 185.6,278.6 L 185.5,278.4 L 185.3,278.2 L 184.7,278.0 L 183.8,278.0 L 183.5,278.3 L 183.5,278.7 L 183.3,278.9 L 183.0,278.6 L 182.8,278.5 L 182.5,278.7 L 182.0,279.7 L 182.0,280.0 L 182.4,280.0 L 182.4,280.4 L 181.6,280.9 L 181.8,281.1 L 182.1,281.4 L 182.6,281.4 L 183.2,281.6 L 184.1,281.7 L 184.3,282.0 L 184.3,282.6 L 183.7,283.5 L 183.7,284.0 L 183.8,284.6 L 183.9,285.1 L 184.0,285.5 L 184.3,285.5 L 184.4,285.7 L 184.6,286.0 L 184.8,286.0 L 185.1,285.9 L 185.6,285.4 L 185.7,285.4 L 186.0,285.5 L 186.3,285.4 L 186.7,285.4 L 186.7,285.9 L 186.5,286.3 L 186.5,286.8 L 186.3,287.0 L 186.2,288.1 L 186.4,288.6 L 186.7,289.0 L 187.0,289.3 L 187.0,289.6 L 186.7,289.9 L 186.6,290.1 L 186.7,290.4 L 186.2,291.6 L 185.9,292.0 L 185.8,292.1 L 185.4,291.7 L 185.2,291.8 L 185.2,292.1 L 185.1,292.1 L 184.9,292.0 L 184.7,292.2 L 184.6,292.7 L 184.4,292.8 L 184.1,292.6 L 183.9,292.6 L 183.9,292.8 L 184.2,293.1 L 184.1,293.6 L 183.8,293.8 L 183.1,294.5 L 183.1,294.5 L 183.1,295.1 L 183.4,295.4 L 183.2,295.8 L 182.8,295.6 L 182.6,295.7 L 182.2,296.4 L 181.8,296.5 L 181.2,297.0 L 181.0,297.3 L 180.5,298.0 L 180.5,298.4 L 180.2,298.7 L 180.0,298.9 L 179.8,298.8 L 179.7,298.9 L 178.8,300.7 L 178.6,300.9 L 178.0,300.9 L 177.2,301.0 L 177.0,300.8 L 177.1,300.7 L 177.1,300.6 L 176.7,300.6 L 176.8,300.4 L 176.5,300.4 L 175.9,300.6 L 175.1,300.7 L 174.8,300.9 L 174.7,300.6 L 174.5,300.6 L 174.3,300.5 L 174.2,300.2 L 173.9,300.2 L 174.1,299.8 L 174.0,299.7 L 173.6,300.0 L 173.5,299.7 L 173.4,299.5 L 173.2,298.9 L 173.1,298.5 L 173.3,298.4 L 173.5,298.4 L 173.9,298.0 L 174.0,297.6 L 174.0,297.3 L 174.0,297.2 L 173.7,296.9 L 173.1,296.9 L 171.8,298.2 L 171.2,298.4 L 170.8,298.9 L 170.1,299.3 L 169.8,299.5 L 169.4,299.6 L 169.5,299.5 L 169.8,299.2 L 169.9,298.8 L 169.8,298.4 L 169.3,298.3 L 168.0,298.3 L 167.6,298.4 L 167.5,298.3 L 167.4,298.0 L 167.2,297.9 L 166.6,298.0 L 166.7,297.5 L 166.5,297.5 L 166.1,297.9 L 165.7,298.1 L 164.5,298.7 L 164.0,297.8 L 163.8,297.7 L 162.8,297.9 L 162.6,297.7 L 162.5,297.9 L 161.9,298.2 L 161.4,298.4 L 161.1,298.3 L 160.1,298.4 L 159.8,298.9 L 159.3,299.0 L 158.4,299.0 L 157.5,299.3 L 157.5,299.3 L 152.1,285.6 L 152.3,285.4 L 154.3,283.3 L 154.9,282.8 L 155.8,281.9 L 156.1,281.2 L 156.2,281.0 L 156.2,280.2 L 156.3,280.0 L 156.2,279.7 L 155.7,279.4 L 154.9,279.1 L 154.6,278.9 L 154.2,278.5 L 154.1,278.3 L 153.7,278.0 L 152.3,278.0 L 151.6,278.1 L 151.4,277.9 L 151.2,277.8 L 150.7,277.9 L 150.4,278.2 L 150.1,278.2 L 149.9,278.1 L 149.5,278.1 L 148.8,278.3 L 147.8,278.4 L 147.4,278.7 L 145.6,278.9 L 144.8,279.1 L 144.0,279.1 L 143.8,279.0 L 143.7,278.2 L 143.4,277.5 L 142.9,276.9 L 142.6,276.7 L 142.0,275.8 L 141.2,275.2 L 141.0,275.2 L 140.6,274.7 L 140.6,274.7 L 140.0,274.1 L 139.7,274.0 L 137.7,272.0 L 136.7,271.3 L 134.5,270.0 L 133.1,269.2 L 132.7,269.1 L 132.2,269.0 L 131.7,268.6 L 130.7,268.6 L 130.6,268.5 L 130.2,268.3 L 129.4,267.5 L 129.3,267.1 L 129.4,266.9 L 129.1,266.3 L 129.2,265.4 L 129.2,265.2 L 129.3,264.5 L 129.5,264.1 L 129.7,262.5 L 130.0,262.1 L 130.0,261.4 L 130.3,260.3 L 130.6,259.4 L 130.9,258.4 L 131.2,257.9 L 131.4,257.8 L 131.6,257.3 L 131.6,256.9 L 132.1,255.3 L 132.4,254.8 L 132.3,253.7 L 131.9,252.5 L 132.0,252.3 L 132.0,252.0 L 131.8,251.4 L 131.7,250.5 L 131.5,250.1 L 131.2,248.7 L 130.6,246.7 L 130.1,245.4 L 129.4,243.8 L 129.1,243.3 L 129.0,243.3 L 128.9,243.1 L 128.0,242.3 L 127.3,241.9 L 126.0,241.2 L 124.3,240.1 L 123.6,240.1 L 122.2,239.5 L 122.1,239.6 L 122.2,240.0 L 121.6,240.0 L 121.5,240.1 L 121.4,240.1 L 121.2,240.2 L 120.7,240.4 L 120.4,240.2 L 119.1,239.9 L 118.4,239.4 L 118.1,238.9 L 117.6,238.4 L 117.0,238.1 L 116.1,237.8 L 115.1,237.3 L 114.5,237.2 L 113.2,236.4 L 113.0,236.5 L 112.9,236.6" fill="none" stroke="black" stroke-width="2"/>
</svg>