<?xml version="1.0" encoding="UTF-8"?>
<svg width="400" height="400" viewBox="0 0 400 400" xmlns="http://www.w3.org/2000/svg">
  <rect width="400" height="400" fill="white"/>
  <path d="M 127.8,208.8 L 129.5,207.6 L 131.6,206.1 L 131.8,205.6 L 132.5,205.1 L 133.5,204.6 L 134.6,204.0 L 136.9,202.3 L 138.3,197.8 L 139.3,196.9 L 139.6,196.2 L 140.0,194.7 L 140.2,194.0 L 140.6,193.1 L 140.6,191.7 L 141.0,191.2 L 141.3,190.0 L 141.2,189.1 L 140.9,188.5 L 140.8,187.9 L 140.8,186.5 L 141.0,185.5 L 141.7,184.8 L 141.8,184.3 L 143.4,182.9 L 144.6,182.1 L 147.5,180.4 L 149.2,179.6 L 156.5,173.0 L 157.7,172.4 L 158.8,171.5 L 160.2,171.2 L 161.1,170.8 L 162.1,169.8 L 163.0,168.6 L 163.3,167.7 L 163.5,165.1 L 163.6,164.4 L 163.8,163.8 L 164.0,163.1 L 164.8,161.7 L 165.0,160.8 L 166.2,159.5 L 167.5,158.5 L 168.1,157.3 L 168.3,157.0 L 168.6,156.1 L 169.2,155.4 L 170.4,154.1 L 170.6,153.3 L 170.6,153.2 L 171.2,153.1 L 171.8,152.7 L 172.7,152.5 L 173.9,151.3 L 174.5,150.8 L 175.3,150.7 L 176.1,150.1 L 176.8,149.1 L 178.4,147.4 L 178.6,146.6 L 179.2,146.0 L 179.7,145.1 L 180.7,143.0 L 182.0,140.7 L 182.2,140.2 L 182.5,139.8 L 182.5,139.2 L 183.0,138.5 L 183.0,137.5 L 183.2,136.8 L 183.6,136.0 L 183.9,135.7 L 184.1,135.2 L 184.9,134.2 L 186.5,132.8 L 187.3,132.1 L 188.6,131.2 L 189.9,130.1 L 190.7,129.4 L 192.2,128.4 L 193.3,127.0 L 193.8,126.1 L 194.2,124.3 L 194.6,123.6 L 194.7,122.8 L 195.0,122.3 L 195.4,122.3 L 195.5,122.0 L 195.3,121.7 L 195.3,121.0 L 195.7,119.8 L 195.8,118.9 L 195.3,118.7 L 195.1,118.7 L 195.0,118.5 L 195.1,117.7 L 194.9,116.6 L 194.5,116.0 L 194.0,115.9 L 193.4,115.6 L 193.2,114.7 L 193.3,113.5 L 193.3,112.5 L 193.9,111.0 L 194.3,109.4 L 194.4,107.8 L 193.9,106.9 L 194.6,105.6 L 194.2,105.2 L 194.0,104.8 L 195.0,103.1 L 194.8,102.8 L 193.9,102.4 L 193.4,102.0 L 193.4,101.7 L 193.1,99.1 L 192.9,98.0 L 192.8,96.0 L 192.0,91.7 L 191.0,88.9 L 190.9,88.0 L 189.9,85.8 L 189.5,85.5 L 188.7,85.3 L 187.6,85.2 L 187.1,84.8 L 186.6,84.2 L 186.3,83.2 L 186.1,82.5 L 186.0,82.0 L 186.0,80.6 L 184.7,77.8 L 183.7,75.8 L 183.6,75.0 L 183.7,73.6 L 183.9,72.9 L 184.1,70.9 L 184.1,70.7 L 184.3,69.1 L 184.5,67.9 L 184.7,67.5 L 185.9,66.1 L 187.0,65.3 L 187.8,64.4 L 188.4,63.3 L 189.1,61.6 L 189.5,61.1 L 190.5,60.7 L 190.8,60.7 L 191.4,61.1 L 192.2,61.0 L 193.0,61.0 L 193.5,61.3 L 194.0,61.8 L 194.7,62.4 L 195.1,63.2 L 195.8,64.3 L 195.8,65.3 L 195.6,66.3 L 195.6,68.1 L 195.8,68.6 L 195.8,69.2 L 195.7,69.6 L 195.6,70.7 L 196.0,71.2 L 196.8,71.3 L 197.5,71.8 L 197.8,72.3 L 198.0,72.5 L 198.3,72.4 L 199.9,71.5 L 201.1,70.7 L 203.3,69.5 L 205.6,68.6 L 207.3,67.7 L 209.4,66.9 L 210.0,67.0 L 210.6,66.9 L 211.6,65.9 L 211.7,65.2 L 213.1,63.5 L 214.3,62.5 L 215.1,62.1 L 216.3,60.7 L 218.1,59.8 L 219.2,59.0 L 222.1,57.3 L 223.3,56.0 L 223.8,55.2 L 224.1,54.9 L 224.8,54.6 L 225.3,53.9 L 226.4,53.6 L 229.4,53.1 L 231.1,52.6 L 231.5,52.1 L 232.1,50.6 L 232.2,50.0 L 233.2,48.0 L 233.8,47.4 L 235.3,47.1 L 236.0,46.4 L 236.2,46.3 L 236.7,45.8 L 237.0,45.5 L 237.2,44.6 L 237.6,43.8 L 238.6,42.4 L 239.8,41.4 L 241.7,40.1 L 242.4,40.0 L 243.6,40.1 L 245.6,40.4 L 245.9,40.3 L 245.9,40.3 L 257.1,42.0 L 256.2,43.1 L 254.4,45.9 L 254.0,46.2 L 253.1,47.3 L 253.3,47.6 L 253.9,48.2 L 254.4,49.1 L 254.9,50.4 L 254.7,50.9 L 254.7,51.9 L 255.6,52.6 L 256.8,53.2 L 258.0,54.2 L 258.2,54.8 L 258.9,55.5 L 259.5,55.8 L 260.4,55.7 L 262.2,54.4 L 262.7,53.9 L 263.7,52.4 L 264.0,51.6 L 264.3,51.3 L 265.3,51.0 L 267.0,51.3 L 267.7,51.9 L 268.1,51.8 L 269.5,51.4 L 269.9,51.5 L 270.1,51.4 L 270.6,51.3 L 271.1,51.4 L 271.3,51.9 L 272.0,51.7 L 272.7,52.0 L 274.2,54.2 L 274.6,54.7 L 275.0,55.5 L 275.5,56.1 L 275.6,56.9 L 275.3,57.6 L 275.4,59.1 L 275.6,59.6 L 275.5,60.1 L 274.9,61.6 L 274.1,62.6 L 273.9,63.1 L 273.8,63.6 L 273.3,64.2 L 272.3,65.1 L 271.2,67.0 L 270.0,68.0 L 268.7,70.8 L 268.0,72.4 L 267.7,73.2 L 267.5,74.1 L 267.1,75.1 L 265.9,77.1 L 265.6,77.4 L 264.6,78.7 L 263.5,79.7 L 262.4,80.5 L 260.5,82.3 L 260.2,82.5 L 258.6,83.6 L 253.8,86.1 L 253.0,86.1 L 252.8,85.9 L 252.8,85.5 L 252.5,85.2 L 252.0,85.1 L 250.0,85.7 L 249.1,86.2 L 248.1,86.4 L 247.4,86.7 L 246.9,87.4 L 246.9,88.0 L 247.1,88.3 L 247.2,88.6 L 247.0,89.6 L 246.5,90.2 L 245.9,91.1 L 246.1,91.7 L 246.3,92.0 L 246.8,92.2 L 248.0,92.2 L 248.8,91.9 L 249.7,92.0 L 250.8,92.6 L 251.3,92.6 L 252.3,92.0 L 253.1,91.3 L 253.9,90.8 L 254.7,90.0 L 256.0,89.3 L 256.9,89.1 L 257.5,89.3 L 258.6,90.0 L 259.5,90.8 L 259.9,91.5 L 260.1,92.3 L 260.4,92.6 L 260.4,93.0 L 260.0,93.7 L 260.1,94.7 L 259.9,95.1 L 259.8,95.4 L 260.0,96.2 L 259.8,96.8 L 259.7,98.8 L 259.4,99.2 L 259.2,99.3 L 258.0,100.4 L 256.5,101.1 L 255.2,101.8 L 253.3,102.9 L 252.3,103.1 L 251.4,103.1 L 251.0,102.9 L 250.4,102.9 L 250.3,103.3 L 250.6,103.5 L 251.0,103.9 L 251.2,104.7 L 251.0,105.2 L 250.2,106.1 L 249.4,106.6 L 249.0,107.0 L 249.0,107.7 L 248.8,108.2 L 248.8,109.2 L 248.5,110.0 L 247.7,110.7 L 247.0,110.9 L 246.4,111.3 L 246.4,112.0 L 245.5,112.2 L 245.0,112.9 L 244.5,113.1 L 243.6,113.8 L 243.5,114.0 L 241.1,116.4 L 240.3,116.9 L 239.0,117.3 L 238.7,118.0 L 238.4,117.9 L 238.2,118.1 L 237.8,118.7 L 237.3,119.1 L 236.6,119.6 L 236.5,119.7 L 235.5,120.1 L 234.1,120.2 L 232.2,120.6 L 231.4,121.0 L 230.5,121.1 L 229.9,120.7 L 229.6,120.9 L 229.4,121.0 L 228.5,120.8 L 227.4,121.0 L 226.7,121.4 L 226.2,121.1 L 226.0,121.7 L 225.2,122.3 L 224.1,123.1 L 223.7,123.8 L 222.9,124.5 L 220.8,125.8 L 219.8,126.6 L 218.7,127.2 L 217.4,127.1 L 215.3,127.8 L 213.7,127.9 L 213.6,127.6 L 213.3,127.6 L 213.0,127.9 L 212.8,128.6 L 212.4,129.2 L 212.6,129.4 L 212.6,129.9 L 212.8,131.0 L 213.2,131.5 L 213.3,131.7 L 213.2,132.1 L 212.9,132.8 L 212.7,132.9 L 212.6,133.2 L 211.6,134.7 L 211.6,135.5 L 211.0,137.4 L 210.3,138.4 L 209.8,139.8 L 207.7,141.8 L 206.4,143.2 L 205.5,144.0 L 204.8,144.6 L 203.3,145.2 L 202.6,145.2 L 201.7,145.3 L 201.2,145.6 L 200.8,145.7 L 200.4,145.9 L 199.2,147.1 L 198.3,147.6 L 197.9,147.6 L 197.0,148.2 L 196.0,148.8 L 194.6,149.5 L 193.8,149.6 L 192.8,149.8 L 191.2,150.9 L 190.5,151.0 L 189.6,151.9 L 188.8,152.4 L 188.0,153.1 L 187.2,153.4 L 187.0,153.6 L 187.1,154.8 L 187.0,155.5 L 186.4,156.2 L 186.4,156.8 L 186.2,157.0 L 185.5,157.9 L 184.4,159.1 L 184.4,159.5 L 184.3,159.9 L 184.3,160.7 L 184.4,161.1 L 185.0,161.4 L 185.9,161.2 L 189.1,159.6 L 190.4,159.2 L 191.3,159.1 L 191.7,158.9 L 193.3,159.1 L 194.7,159.6 L 195.3,160.3 L 195.7,161.0 L 196.3,162.9 L 196.1,163.8 L 195.2,165.6 L 194.8,166.3 L 194.1,167.6 L 193.5,168.4 L 192.6,169.2 L 191.9,169.4 L 190.8,170.6 L 190.3,170.8 L 190.3,171.0 L 188.1,173.4 L 187.0,175.6 L 186.2,176.7 L 185.1,177.9 L 182.8,179.3 L 182.2,179.4 L 181.1,179.2 L 180.8,179.3 L 181.4,180.8 L 181.5,181.7 L 181.4,182.2 L 180.4,183.2 L 179.9,183.4 L 179.4,183.9 L 179.6,184.5 L 179.1,185.3 L 178.7,186.0 L 178.4,186.5 L 178.1,187.0 L 177.9,187.8 L 177.3,188.9 L 176.9,190.2 L 176.4,190.9 L 176.3,191.3 L 175.9,191.7 L 175.7,192.1 L 175.6,192.7 L 175.1,194.2 L 174.7,194.8 L 174.4,195.1 L 173.8,195.6 L 173.3,196.3 L 173.1,197.4 L 172.5,198.5 L 172.5,199.6 L 172.0,200.7 L 171.8,201.7 L 171.3,203.0 L 169.5,207.1 L 169.2,207.7 L 167.2,212.0 L 165.1,216.2 L 164.4,217.0 L 163.8,218.0 L 163.1,219.6 L 162.2,221.2 L 160.9,222.1 L 160.0,222.7 L 159.7,223.2 L 159.7,224.2 L 159.8,225.4 L 159.7,226.6 L 159.2,229.6 L 159.3,230.4 L 159.9,231.4 L 160.0,231.5 L 160.4,232.0 L 161.7,232.8 L 162.9,234.6 L 163.4,235.0 L 165.1,235.9 L 165.8,236.6 L 167.3,237.4 L 167.8,237.8 L 168.2,238.5 L 168.4,239.2 L 168.7,239.3 L 169.2,239.4 L 173.6,239.9 L 174.4,239.9 L 176.4,239.7 L 178.0,239.4 L 182.5,239.3 L 185.9,239.7 L 188.2,240.6 L 188.4,240.6 L 189.2,240.7 L 190.5,241.2 L 193.2,241.9 L 194.7,242.6 L 195.9,243.4 L 196.1,243.4 L 196.2,243.6 L 198.5,245.1 L 199.5,245.9 L 203.5,248.0 L 204.3,247.9 L 204.4,248.0 L 205.2,247.8 L 205.4,247.8 L 205.7,247.7 L 207.3,247.7 L 208.3,247.9 L 209.1,248.3 L 211.1,249.4 L 211.3,249.6 L 213.0,250.5 L 213.8,251.2 L 214.0,251.3 L 215.1,252.0 L 216.3,252.9 L 218.4,254.6 L 219.4,255.9 L 220.4,256.9 L 221.7,257.9 L 222.0,258.5 L 222.2,259.9 L 222.3,260.4 L 222.9,261.5 L 223.3,263.0 L 223.3,264.8 L 223.4,265.4 L 223.3,268.9 L 223.1,270.0 L 222.3,271.7 L 221.2,274.2 L 221.1,274.9 L 221.0,275.7 L 220.0,277.2 L 218.9,278.6 L 218.4,279.0 L 218.0,279.3 L 217.7,280.1 L 216.6,281.6 L 216.2,281.9 L 215.8,282.4 L 215.8,282.9 L 216.2,283.2 L 216.2,283.9 L 215.6,286.6 L 215.5,287.3 L 215.7,287.6 L 216.3,287.9 L 216.7,287.9 L 216.9,288.1 L 217.0,288.4 L 217.3,288.3 L 217.8,287.9 L 218.5,287.2 L 218.7,286.5 L 219.4,285.7 L 220.0,284.7 L 220.9,283.8 L 222.0,283.8 L 222.7,284.3 L 223.0,284.7 L 223.4,285.5 L 224.2,287.9 L 224.2,291.0 L 224.0,292.3 L 223.7,294.0 L 223.4,294.6 L 223.2,295.3 L 223.3,295.6 L 224.3,296.8 L 225.3,297.7 L 225.7,298.3 L 226.6,298.9 L 227.4,299.4 L 228.7,299.6 L 230.6,300.1 L 232.2,300.8 L 232.7,301.1 L 235.5,301.5 L 236.1,301.9 L 236.4,301.9 L 238.0,302.5 L 239.0,303.4 L 241.5,304.9 L 242.5,305.9 L 242.7,306.1 L 242.6,306.4 L 242.3,307.0 L 242.2,307.4 L 241.9,307.7 L 241.9,308.8 L 242.0,309.6 L 241.8,311.1 L 241.4,311.9 L 241.3,312.4 L 241.2,313.2 L 241.1,314.9 L 242.2,317.9 L 242.4,318.9 L 242.6,321.4 L 242.4,322.3 L 241.7,323.2 L 241.8,323.6 L 241.6,323.8 L 241.1,324.4 L 241.0,325.0 L 241.2,326.4 L 241.8,327.6 L 241.8,329.3 L 241.9,329.7 L 242.5,330.3 L 242.5,330.9 L 243.3,331.6 L 243.6,331.9 L 243.8,332.2 L 244.4,333.4 L 244.5,335.0 L 244.2,336.9 L 244.1,338.9 L 244.4,340.6 L 244.8,341.4 L 244.8,342.4 L 245.1,343.8 L 245.7,344.3 L 246.7,344.7 L 247.1,345.1 L 247.2,345.8 L 247.9,346.2 L 248.0,346.2 L 248.1,345.8 L 248.6,345.7 L 249.1,346.0 L 249.2,346.4 L 249.0,346.7 L 249.1,347.0 L 249.2,347.6 L 248.9,347.9 L 248.2,347.7 L 247.2,347.7 L 247.0,347.9 L 246.8,348.4 L 246.7,348.7 L 246.5,349.3 L 246.8,350.0 L 247.3,350.8 L 247.7,350.8 L 248.4,350.3 L 248.8,350.2 L 248.9,350.3 L 247.5,351.3 L 247.3,352.0 L 247.2,352.7 L 247.5,353.1 L 248.1,353.5 L 248.7,353.4 L 249.3,353.1 L 251.1,353.0 L 252.2,352.6 L 253.5,352.6 L 254.2,352.9 L 254.2,353.1 L 254.9,353.5 L 256.1,353.9 L 256.9,354.5 L 257.8,355.0 L 258.0,355.6 L 257.8,355.6 L 257.5,355.8 L 257.5,356.2 L 257.2,356.3 L 256.7,355.8 L 256.0,355.1 L 255.5,354.7 L 254.8,354.5 L 254.2,354.4 L 253.3,354.5 L 252.4,354.6 L 249.5,354.9 L 248.0,355.0 L 246.5,354.4 L 243.8,354.4 L 243.6,354.4 L 240.9,353.7 L 240.2,353.9 L 239.3,354.0 L 238.3,354.5 L 236.3,356.2 L 235.3,356.7 L 234.3,357.2 L 233.1,357.3 L 231.7,357.6 L 228.7,358.6 L 228.4,358.4 L 228.0,358.5 L 227.7,358.8 L 226.3,359.1 L 225.6,359.5 L 222.4,359.9 L 221.5,360.0 L 221.0,359.9 L 220.7,359.6 L 220.2,359.5 L 219.0,359.7 L 217.6,359.6 L 216.9,359.3 L 215.9,359.3 L 215.1,358.9 L 213.6,357.6 L 212.7,356.6 L 212.3,355.7 L 212.0,354.4 L 211.4,351.0 L 211.3,349.9 L 211.1,348.2 L 210.3,345.3 L 209.8,343.9 L 209.5,340.6 L 208.8,339.3 L 208.5,338.3 L 208.3,337.8 L 208.0,337.6 L 205.3,335.9 L 204.6,335.5 L 203.8,335.4 L 203.2,335.0 L 202.4,334.6 L 201.6,333.7 L 200.5,332.4 L 200.2,331.4 L 200.1,330.2 L 199.9,329.3 L 199.0,328.5 L 198.1,327.4 L 197.6,325.6 L 196.9,324.0 L 196.6,321.6 L 196.6,319.6 L 196.7,318.9 L 196.8,317.7 L 196.6,315.8 L 196.3,315.1 L 195.8,312.9 L 195.1,311.6 L 194.5,310.8 L 194.2,309.8 L 193.7,309.4 L 193.2,309.1 L 192.7,308.6 L 191.9,307.3 L 191.5,306.3 L 191.2,305.9 L 191.1,305.7 L 190.7,304.6 L 190.6,301.4 L 190.7,300.0 L 190.4,298.5 L 190.3,297.0 L 189.7,294.1 L 189.9,292.8 L 189.9,291.6 L 189.7,290.8 L 189.5,290.4 L 189.1,290.1 L 188.5,287.8 L 188.2,286.8 L 187.6,281.8 L 187.8,281.3 L 188.9,280.3 L 190.8,277.3 L 191.2,275.7 L 191.4,274.5 L 191.6,273.9 L 191.7,273.0 L 191.7,271.7 L 192.0,270.3 L 192.1,269.1 L 191.9,267.6 L 191.6,266.6 L 191.3,266.0 L 190.6,265.3 L 190.2,264.8 L 189.4,264.3 L 188.6,264.2 L 187.8,263.4 L 187.0,262.9 L 186.7,262.4 L 185.5,261.3 L 184.8,261.0 L 183.8,260.7 L 182.2,259.8 L 181.5,260.0 L 180.2,260.0 L 179.3,260.3 L 178.6,260.2 L 177.6,259.7 L 177.0,259.8 L 176.5,260.8 L 175.4,261.7 L 174.6,261.8 L 174.4,261.7 L 173.8,261.5 L 173.0,261.5 L 171.9,261.8 L 170.5,262.5 L 169.2,263.0 L 168.8,263.1 L 168.3,262.9 L 168.1,263.1 L 167.2,263.9 L 166.8,264.4 L 165.4,265.8 L 164.7,266.1 L 163.5,267.4 L 162.5,267.8 L 162.4,268.8 L 162.2,269.4 L 162.0,269.4 L 161.1,268.8 L 161.1,268.4 L 161.3,267.9 L 161.3,267.5 L 161.5,267.1 L 161.4,266.3 L 161.0,266.1 L 160.6,265.7 L 160.8,265.4 L 160.8,265.0 L 160.4,265.0 L 159.8,265.6 L 159.4,266.3 L 158.6,266.8 L 157.5,266.9 L 155.9,266.6 L 155.3,266.0 L 155.1,266.1 L 154.6,266.1 L 154.3,265.9 L 154.1,265.9 L 152.3,264.8 L 151.3,263.9 L 150.8,262.8 L 149.9,260.4 L 149.5,259.8 L 146.2,258.4 L 145.5,257.9 L 144.9,256.8 L 144.0,256.1 L 143.3,255.5 L 142.6,254.9 L 142.2,254.7 L 141.6,254.7 L 141.1,255.1 L 140.2,255.2 L 139.6,254.9 L 139.1,254.4 L 139.0,254.1 L 138.5,253.3 L 138.2,251.8 L 138.0,250.4 L 137.8,250.1 L 137.2,249.6 L 137.1,249.4 L 137.3,249.1 L 137.3,248.7 L 137.1,248.4 L 136.6,246.7 L 136.3,246.6 L 135.6,247.4 L 135.3,247.4 L 135.8,246.6 L 135.7,246.0 L 134.9,245.2 L 133.3,244.4 L 132.9,243.9 L 131.9,243.7 L 131.5,243.1 L 130.9,243.0 L 130.3,242.4 L 129.7,242.1 L 128.6,242.0 L 127.6,241.5 L 127.1,241.1 L 127.1,240.5 L 127.2,240.1 L 126.5,236.9 L 125.9,231.4 L 125.8,230.5 L 125.6,226.7 L 125.4,225.7 L 124.9,223.9 L 124.6,222.2 L 124.4,220.5 L 124.5,219.2 L 124.8,218.7 L 125.0,218.4 L 124.7,218.0 L 124.9,215.1 L 125.2,213.1 L 126.1,211.2 L 127.2,209.5" fill="none" stroke="black" stroke-width="2"/>
</svg>