<?xml version="1.0" encoding="UTF-8"?>
<svg width="400" height="400" viewBox="0 0 400 400" xmlns="http://www.w3.org/2000/svg">
  <rect width="400" height="400" fill="white"/>
  <path d="M 71.3,202.0 L 40.0,137.5 L 41.3,136.8 L 42.3,135.9 L 43.1,135.9 L 44.5,136.2 L 48.4,136.0 L 50.2,135.4 L 53.3,134.0 L 55.1,132.3 L 61.1,130.1 L 62.5,129.3 L 66.3,128.4 L 68.0,128.5 L 68.2,128.6 L 68.7,128.8 L 69.7,128.7 L 71.3,127.5 L 73.8,126.4 L 74.6,126.0 L 76.0,125.2 L 82.9,122.2 L 88.3,121.1 L 89.5,120.4 L 89.9,120.0 L 91.8,119.2 L 93.2,118.9 L 95.1,117.9 L 96.9,116.6 L 98.4,116.2 L 100.2,115.3 L 108.3,113.4 L 113.1,112.8 L 114.5,112.4 L 116.6,112.7 L 118.8,112.5 L 119.9,111.9 L 122.0,111.4 L 127.7,111.3 L 132.2,110.4 L 134.1,110.5 L 135.1,110.7 L 135.6,110.6 L 136.6,110.4 L 138.0,110.6 L 145.7,110.7 L 146.8,111.0 L 147.0,111.8 L 147.2,112.1 L 147.9,112.4 L 148.5,113.0 L 149.2,115.4 L 150.4,116.3 L 151.3,117.7 L 153.3,117.7 L 154.7,117.9 L 157.0,117.8 L 159.0,118.0 L 161.2,118.7 L 161.7,119.0 L 165.1,119.0 L 170.9,119.1 L 172.0,119.1 L 173.8,119.5 L 177.7,121.7 L 180.5,123.0 L 182.0,123.4 L 185.6,125.3 L 189.2,127.1 L 189.2,127.8 L 190.2,128.3 L 191.7,129.7 L 193.4,130.8 L 195.5,132.3 L 197.2,134.3 L 198.9,135.9 L 201.0,136.5 L 202.2,137.5 L 204.5,140.1 L 204.9,141.4 L 205.1,141.7 L 208.4,144.4 L 208.6,145.5 L 209.2,145.3 L 210.4,145.7 L 212.1,146.8 L 216.7,149.9 L 218.4,151.7 L 218.5,152.2 L 219.3,152.9 L 219.9,153.9 L 220.4,157.2 L 220.6,158.0 L 223.6,159.9 L 224.4,160.4 L 225.7,161.7 L 225.9,162.4 L 226.0,162.9 L 226.3,163.2 L 227.0,166.1 L 227.5,167.2 L 228.4,168.0 L 231.5,169.5 L 233.7,169.4 L 234.4,169.8 L 236.8,172.1 L 243.8,175.6 L 245.3,176.6 L 245.6,177.8 L 246.6,178.8 L 246.8,180.3 L 248.5,181.4 L 248.9,181.7 L 250.1,182.0 L 251.1,182.6 L 253.5,184.5 L 255.2,185.0 L 256.1,185.9 L 256.4,187.0 L 256.9,187.6 L 257.2,190.7 L 257.5,191.0 L 260.0,193.3 L 261.0,194.7 L 261.7,195.4 L 263.4,197.5 L 264.8,199.3 L 268.8,203.0 L 270.8,204.1 L 272.5,204.8 L 274.6,206.0 L 275.7,208.0 L 276.9,208.0 L 277.9,208.8 L 278.3,212.2 L 278.9,212.8 L 279.2,213.4 L 280.3,214.3 L 281.3,215.8 L 281.6,216.0 L 282.1,217.9 L 283.1,218.7 L 284.2,219.8 L 286.1,223.7 L 287.0,224.7 L 288.2,228.3 L 288.7,228.6 L 289.5,230.0 L 290.5,230.6 L 294.5,231.8 L 295.8,232.6 L 297.3,233.0 L 299.3,233.4 L 300.2,234.8 L 301.6,235.9 L 303.8,236.6 L 304.5,237.4 L 305.5,238.3 L 307.9,240.8 L 310.7,242.9 L 315.8,246.2 L 316.4,246.3 L 318.3,248.1 L 318.7,248.5 L 319.6,249.3 L 321.8,250.2 L 323.0,251.0 L 325.3,251.2 L 325.6,251.4 L 327.9,251.8 L 331.5,253.1 L 333.1,253.1 L 334.3,253.5 L 337.3,253.7 L 338.9,254.6 L 340.7,255.4 L 342.6,255.9 L 343.6,256.4 L 346.0,258.2 L 348.4,260.2 L 349.5,260.9 L 349.9,261.1 L 353.0,262.4 L 353.5,263.1 L 354.3,263.8 L 355.4,265.0 L 356.7,266.8 L 358.7,268.7 L 358.7,271.2 L 358.7,273.1 L 359.1,274.5 L 358.6,275.1 L 358.6,276.1 L 360.0,277.1 L 358.1,277.2 L 357.3,278.0 L 357.2,279.6 L 357.5,283.8 L 357.3,285.6 L 356.0,287.0 L 354.4,286.5 L 352.8,286.4 L 351.8,286.7 L 349.8,287.8 L 349.5,287.8 L 347.8,287.9 L 346.8,288.5 L 344.9,288.6 L 344.5,288.5 L 343.9,288.2 L 341.6,288.7 L 339.9,289.3 L 338.0,289.6 L 336.1,289.2 L 334.0,289.5 L 333.2,289.4 L 332.2,289.0 L 330.5,288.8 L 328.0,287.8 L 327.1,286.3 L 324.3,284.0 L 323.4,283.6 L 322.8,284.0 L 322.6,284.1 L 321.1,284.8 L 319.8,285.1 L 318.9,284.9 L 317.7,284.9 L 315.8,283.2 L 314.7,282.6 L 312.2,283.1 L 311.9,282.7 L 310.7,283.3 L 309.6,283.3 L 308.9,283.7 L 308.0,283.8 L 305.8,282.7 L 304.2,281.5 L 303.4,280.0 L 302.7,278.8 L 301.3,277.0 L 300.2,275.9 L 299.7,275.7 L 297.4,275.6 L 295.8,277.2 L 294.2,277.5 L 293.9,276.8 L 293.9,276.3 L 293.2,275.4 L 292.9,275.3 L 292.4,274.9 L 291.2,274.4 L 289.1,274.3 L 288.7,273.5 L 288.8,272.8 L 288.7,271.7 L 288.1,269.6 L 287.2,268.9 L 285.7,268.8 L 284.6,268.2 L 283.2,268.3 L 282.1,267.5 L 280.9,266.2 L 279.2,265.1 L 278.1,264.6 L 277.4,264.8 L 276.0,264.3 L 274.1,264.2 L 273.1,263.7 L 272.2,263.5 L 271.2,263.5 L 270.2,262.9 L 269.2,262.5 L 268.4,262.5 L 267.3,262.0 L 266.2,260.9 L 266.1,260.2 L 264.8,259.0 L 263.8,257.7 L 262.1,257.3 L 261.4,256.4 L 260.6,256.2 L 259.7,255.4 L 257.9,252.8 L 255.6,251.7 L 253.6,248.8 L 252.2,248.2 L 250.6,246.1 L 249.9,245.8 L 249.3,245.1 L 248.1,243.4 L 243.8,241.7 L 243.1,241.0 L 242.2,241.1 L 240.6,240.0 L 239.1,237.2 L 237.9,236.6 L 236.7,235.1 L 235.5,234.1 L 234.6,232.6 L 232.9,230.8 L 231.3,229.4 L 230.2,227.1 L 229.0,225.8 L 225.7,224.9 L 225.3,224.2 L 224.8,223.8 L 223.7,223.8 L 223.6,224.1 L 222.8,224.2 L 221.5,223.8 L 218.7,223.1 L 216.8,221.4 L 215.3,220.8 L 214.0,220.5 L 213.3,220.2 L 212.6,219.3 L 212.1,219.2 L 211.2,219.0 L 210.5,218.4 L 210.0,217.6 L 209.4,217.4 L 206.5,213.8 L 205.1,212.5 L 205.0,211.8 L 204.4,210.2 L 203.4,209.1 L 202.5,207.6 L 201.6,206.6 L 200.7,206.4 L 199.6,206.4 L 199.1,205.5 L 198.5,205.3 L 197.9,204.9 L 196.5,205.1 L 196.0,204.7 L 195.5,203.5 L 194.6,203.3 L 194.1,202.9 L 193.7,202.1 L 192.5,199.5 L 191.9,198.6 L 189.3,197.3 L 188.2,195.6 L 187.8,194.7 L 187.2,194.1 L 186.7,193.9 L 185.9,192.7 L 184.7,191.8 L 183.6,191.2 L 180.7,191.1 L 178.8,190.5 L 177.2,189.0 L 176.0,188.6 L 172.9,186.0 L 172.9,184.2 L 170.7,182.7 L 170.1,181.6 L 170.0,180.3 L 167.4,179.0 L 166.3,177.6 L 165.0,175.5 L 164.0,174.5 L 162.1,173.8 L 159.5,173.9 L 158.7,173.3 L 157.3,172.9 L 155.3,173.7 L 153.3,173.7 L 151.9,173.4 L 149.0,174.5 L 148.4,174.4 L 147.9,174.4 L 146.2,173.9 L 144.8,172.6 L 143.7,172.2 L 141.2,172.7 L 139.9,172.5 L 138.8,173.0 L 138.2,172.6 L 136.8,172.8 L 135.2,173.0 L 133.8,172.0 L 132.6,171.3 L 130.1,171.4 L 129.0,171.7 L 128.4,172.6 L 127.7,173.6 L 124.2,176.8 L 122.9,176.9 L 121.2,177.9 L 119.6,179.4 L 115.0,181.9 L 114.3,182.0 L 113.0,182.9 L 111.4,183.2 L 110.0,184.1 L 106.6,185.5 L 104.3,185.6 L 103.3,185.8 L 101.8,186.0 L 99.8,186.6 L 97.5,187.7 L 95.4,190.1 L 94.3,190.6 L 91.6,192.2 L 86.7,195.5 L 82.9,198.0 L 78.8,200.0 L 74.6,200.6 L 72.5,200.9 L 71.5,201.7 L 71.3,202.0" fill="none" stroke="black" stroke-width="2"/>
</svg>