<?xml version="1.0" encoding="UTF-8"?>
<svg width="400" height="400" viewBox="0 0 400 400" xmlns="http://www.w3.org/2000/svg">
  <rect width="400" height="400" fill="white"/>
  <path d="M 40.0,206.6 L 54.0,179.8 L 54.0,179.8 L 54.3,179.7 L 54.2,179.4 L 56.1,175.6 L 56.2,175.6 L 56.3,175.6 L 56.9,176.2 L 57.5,176.6 L 57.9,176.6 L 57.9,176.6 L 59.7,175.4 L 61.7,174.5 L 62.6,174.3 L 66.7,175.7 L 67.5,175.8 L 68.7,175.8 L 69.4,175.6 L 71.4,175.5 L 72.2,175.4 L 72.7,175.5 L 76.3,175.9 L 77.8,175.8 L 80.0,175.6 L 85.4,174.6 L 86.0,174.6 L 87.4,174.4 L 88.9,174.4 L 89.7,174.7 L 89.9,174.7 L 90.7,174.7 L 91.8,174.6 L 93.5,174.1 L 94.9,174.3 L 96.0,174.7 L 97.2,174.9 L 98.6,174.9 L 99.6,174.3 L 101.6,174.2 L 103.8,174.2 L 104.5,174.3 L 106.1,174.3 L 106.5,174.5 L 109.9,174.7 L 112.0,174.9 L 114.1,174.9 L 115.6,175.0 L 116.8,175.3 L 121.9,175.3 L 123.6,174.8 L 126.5,174.4 L 128.4,174.0 L 129.9,173.6 L 133.2,172.0 L 135.5,170.6 L 139.0,168.2 L 141.0,166.5 L 144.5,164.5 L 147.4,162.4 L 148.3,161.8 L 150.0,160.9 L 152.7,158.7 L 154.7,157.5 L 157.7,155.8 L 159.9,154.6 L 161.0,154.1 L 161.6,153.9 L 164.2,153.1 L 167.6,151.7 L 170.5,150.7 L 171.9,150.3 L 172.1,150.3 L 173.5,150.1 L 176.5,149.9 L 178.4,150.1 L 179.3,150.3 L 181.9,150.5 L 182.5,150.6 L 185.4,150.7 L 186.2,150.5 L 189.3,150.5 L 191.0,150.6 L 193.0,150.9 L 195.0,151.5 L 197.5,152.0 L 198.9,152.0 L 199.7,151.9 L 201.0,152.1 L 204.0,153.4 L 206.9,154.1 L 208.9,154.7 L 211.0,155.2 L 212.7,155.4 L 214.0,155.6 L 215.3,155.9 L 217.7,155.9 L 218.6,156.3 L 218.8,156.3 L 219.4,156.7 L 219.8,156.6 L 222.9,157.6 L 225.3,158.2 L 227.2,159.1 L 229.8,159.9 L 230.7,160.0 L 232.8,160.9 L 233.2,161.0 L 234.3,161.5 L 235.7,162.1 L 238.6,163.4 L 239.3,164.1 L 240.9,165.0 L 241.1,165.0 L 242.1,165.6 L 244.6,167.0 L 245.5,167.5 L 247.5,168.2 L 250.8,169.8 L 251.2,169.9 L 252.0,170.1 L 253.9,170.6 L 254.1,170.6 L 255.2,171.0 L 256.4,171.4 L 257.3,171.7 L 258.9,173.3 L 259.2,173.7 L 261.6,174.0 L 265.3,175.0 L 266.9,175.6 L 268.0,176.1 L 269.3,176.5 L 270.8,176.5 L 271.6,176.7 L 272.7,177.0 L 273.0,177.0 L 274.7,177.1 L 277.9,177.4 L 280.7,177.4 L 282.7,177.6 L 283.3,177.6 L 284.2,177.8 L 285.0,177.9 L 289.5,179.1 L 294.3,180.3 L 296.6,181.3 L 297.3,182.4 L 299.1,183.1 L 300.5,183.5 L 301.1,184.1 L 302.8,184.7 L 304.3,185.4 L 312.1,188.5 L 312.9,188.9 L 314.3,189.3 L 317.8,190.6 L 319.2,190.9 L 320.3,191.1 L 322.2,191.6 L 323.4,191.5 L 325.3,191.0 L 326.3,191.0 L 327.1,190.7 L 328.2,190.4 L 330.6,189.5 L 332.5,189.1 L 332.7,188.8 L 333.8,188.0 L 335.9,187.0 L 336.8,186.6 L 339.7,185.3 L 340.8,185.2 L 341.0,185.3 L 344.8,185.0 L 347.9,183.7 L 350.3,182.3 L 352.8,180.3 L 359.8,189.5 L 360.0,189.8 L 358.7,190.8 L 356.1,192.8 L 354.2,195.1 L 353.3,195.8 L 352.6,196.7 L 352.0,198.1 L 351.6,199.5 L 351.5,202.7 L 350.9,205.1 L 350.0,208.0 L 349.1,209.2 L 348.3,210.1 L 347.4,211.5 L 346.8,212.4 L 345.8,214.1 L 345.3,215.5 L 344.6,216.9 L 342.7,219.6 L 339.3,221.8 L 337.4,223.7 L 336.6,224.9 L 335.9,226.8 L 334.6,229.2 L 334.4,229.5 L 332.5,231.4 L 332.1,232.0 L 331.8,233.9 L 331.8,236.1 L 331.8,236.1 L 332.1,237.9 L 332.8,240.1 L 333.4,241.7 L 333.6,242.3 L 333.4,243.2 L 332.5,245.2 L 330.8,247.0 L 330.6,247.7 L 330.5,247.8 L 330.7,249.1 L 330.4,250.1 L 329.7,250.0 L 329.9,248.9 L 329.7,248.6 L 328.9,248.4 L 328.2,248.7 L 327.3,248.7 L 326.2,249.3 L 325.7,249.3 L 324.3,249.1 L 320.4,248.2 L 319.2,247.7 L 317.2,246.7 L 314.9,245.8 L 311.6,244.1 L 309.5,243.7 L 306.0,241.5 L 304.1,240.7 L 303.1,240.5 L 302.5,240.6 L 300.7,240.6 L 299.9,240.4 L 295.5,239.4 L 292.9,239.1 L 290.0,239.0 L 285.9,239.6 L 285.0,239.9 L 283.9,240.2 L 282.7,240.9 L 282.0,241.1 L 280.7,240.8 L 280.3,240.6 L 279.8,240.2 L 279.0,239.9 L 278.0,240.0 L 277.4,240.6 L 277.0,242.1 L 276.9,242.8 L 234.8,240.6 L 234.8,239.5 L 234.5,238.1 L 234.1,237.4 L 234.0,236.7 L 233.6,236.1 L 233.1,235.6 L 232.8,235.0 L 230.3,232.5 L 229.4,231.4 L 227.6,229.5 L 227.4,229.2 L 225.3,227.7 L 224.9,227.1 L 224.2,226.5 L 221.7,225.0 L 220.0,224.7 L 219.7,224.8 L 217.5,224.9 L 217.3,225.4 L 216.6,225.5 L 215.7,225.5 L 210.0,224.5 L 207.7,223.9 L 203.7,221.9 L 201.3,220.8 L 199.2,219.2 L 198.1,218.3 L 196.3,217.1 L 195.6,216.5 L 195.0,215.6 L 194.2,215.3 L 193.6,214.9 L 192.3,213.6 L 190.9,212.8 L 189.8,211.8 L 188.0,210.9 L 187.3,210.1 L 186.4,209.6 L 186.0,209.2 L 185.8,208.8 L 185.1,208.5 L 184.7,208.1 L 184.4,207.3 L 183.8,206.6 L 182.7,205.7 L 180.6,203.7 L 179.0,202.3 L 177.8,201.8 L 176.7,201.5 L 175.5,200.9 L 171.9,199.5 L 171.8,199.5 L 171.3,199.0 L 168.9,197.9 L 168.8,197.1 L 168.3,196.6 L 165.7,196.6 L 165.1,196.4 L 164.3,196.1 L 163.5,195.5 L 162.7,195.1 L 161.6,194.2 L 161.0,193.4 L 159.9,192.3 L 159.4,191.9 L 158.8,191.8 L 157.7,191.9 L 156.6,192.2 L 154.6,192.9 L 150.6,195.1 L 149.3,195.6 L 148.3,195.6 L 148.0,195.6 L 146.5,196.7 L 145.0,197.5 L 144.8,197.8 L 144.8,198.5 L 144.4,199.3 L 144.3,200.7 L 144.5,201.0 L 144.4,202.1 L 145.2,204.3 L 145.4,206.6 L 143.6,207.9 L 143.6,208.1 L 144.1,208.3 L 144.8,208.3 L 144.8,207.9 L 145.2,207.5 L 145.5,207.2 L 146.0,207.4 L 146.2,210.0 L 146.4,210.7 L 146.1,211.3 L 145.9,213.1 L 145.9,215.0 L 145.0,216.7 L 144.2,217.2 L 143.4,217.5 L 141.1,217.6 L 140.9,218.0 L 140.2,218.4 L 137.8,219.0 L 136.3,219.7 L 134.4,219.8 L 133.3,220.2 L 132.7,221.0 L 132.1,221.3 L 131.8,221.7 L 131.3,221.9 L 130.4,222.1 L 129.9,222.4 L 129.6,222.7 L 128.8,222.7 L 127.8,223.1 L 127.7,223.5 L 127.5,223.9 L 126.9,223.9 L 126.5,224.0 L 124.7,223.6 L 124.3,223.9 L 122.8,223.6 L 121.3,223.2 L 120.8,222.8 L 120.7,222.4 L 120.4,222.0 L 117.3,221.1 L 114.7,220.6 L 114.1,220.4 L 113.4,220.2 L 112.4,220.0 L 111.7,219.7 L 110.5,219.5 L 109.6,219.4 L 109.0,219.0 L 109.0,218.5 L 108.9,217.8 L 108.6,217.7 L 107.9,218.7 L 106.6,219.2 L 105.9,219.4 L 105.1,220.0 L 104.6,220.2 L 104.0,220.0 L 101.6,219.9 L 101.4,220.1 L 101.5,220.6 L 101.3,221.3 L 100.9,221.9 L 100.1,222.0 L 98.8,222.4 L 98.0,222.6 L 97.9,223.0 L 98.1,223.2 L 98.6,223.4 L 99.7,224.1 L 100.0,224.4 L 100.3,224.5 L 100.5,224.1 L 100.9,223.8 L 101.8,223.7 L 103.4,224.2 L 104.9,224.0 L 106.1,224.3 L 107.0,224.7 L 108.1,225.8 L 108.7,226.7 L 109.0,227.7 L 108.9,228.2 L 108.5,227.9 L 108.1,227.8 L 107.2,228.8 L 106.0,229.2 L 105.6,229.5 L 104.4,229.9 L 103.8,230.3 L 102.9,231.2 L 102.9,231.7 L 102.6,231.7 L 102.6,230.3 L 102.3,230.3 L 101.8,230.6 L 101.4,230.4 L 101.2,229.9 L 101.2,229.2 L 101.1,228.8 L 100.3,228.5 L 99.4,228.4 L 98.8,228.2 L 98.2,228.1 L 97.3,228.8 L 96.8,229.2 L 96.5,229.6 L 96.3,229.2 L 96.0,228.4 L 95.8,227.2 L 94.5,226.6 L 93.6,226.5 L 93.4,226.4 L 93.1,225.6 L 92.9,225.4 L 92.6,225.9 L 92.6,226.3 L 89.9,226.1 L 89.7,226.0 L 89.4,225.6 L 89.5,225.1 L 89.9,224.8 L 92.0,224.7 L 94.6,223.3 L 94.9,223.1 L 94.7,223.2 L 94.3,223.0 L 92.3,222.8 L 91.7,222.5 L 91.0,222.4 L 89.9,222.7 L 89.3,222.8 L 87.6,223.1 L 86.5,224.1 L 85.4,224.7 L 83.8,225.1 L 83.5,225.6 L 82.4,226.7 L 81.8,227.6 L 79.9,228.4 L 78.9,228.8 L 78.2,228.4 L 77.6,228.4 L 76.9,228.8 L 76.2,228.8 L 75.6,229.2 L 75.0,229.5 L 74.0,229.6 L 73.7,229.3 L 74.6,228.1 L 75.1,227.2 L 74.2,227.0 L 73.9,226.4 L 70.4,226.3 L 69.4,226.1 L 68.1,226.0 L 67.1,226.0 L 67.4,225.7 L 70.5,224.2 L 71.8,224.1 L 74.8,223.3 L 76.2,222.8 L 77.7,222.5 L 80.0,221.8 L 80.9,221.5 L 81.9,221.0 L 83.0,220.7 L 84.9,220.4 L 85.6,220.0 L 86.7,219.2 L 87.5,219.0 L 89.9,217.4 L 90.0,217.4 L 91.2,216.9 L 91.7,216.4 L 92.6,216.5 L 93.0,216.8 L 94.0,216.9 L 94.7,216.9 L 96.0,216.5 L 97.1,215.7 L 97.0,215.2 L 96.8,214.9 L 97.1,214.1 L 96.7,213.7 L 96.8,212.5 L 96.2,212.1 L 95.4,212.2 L 94.8,212.6 L 94.2,212.6 L 93.0,212.2 L 92.6,211.6 L 92.6,211.1 L 91.3,210.3 L 91.0,210.0 L 90.2,208.8 L 90.0,207.7 L 89.9,207.6 L 89.5,207.2 L 88.7,207.1 L 88.2,206.6 L 86.3,206.6 L 85.6,206.5 L 83.9,206.6 L 83.3,206.8 L 83.0,207.0 L 81.2,207.1 L 80.0,207.5 L 79.2,207.6 L 77.5,208.4 L 75.8,208.9 L 74.3,209.5 L 73.6,209.8 L 73.1,210.0 L 72.3,210.5 L 71.2,210.7 L 70.3,210.9 L 70.0,210.7 L 69.2,210.9 L 68.6,212.0 L 67.9,212.7 L 67.9,213.1 L 67.3,213.5 L 66.4,214.1 L 65.0,215.6 L 64.3,216.2 L 63.2,217.2 L 62.2,217.6 L 59.9,219.1 L 59.5,219.3 L 58.9,218.8 L 59.3,218.2 L 59.0,218.0 L 58.6,218.1 L 57.7,218.7 L 57.7,218.7 L 56.7,219.0 L 56.3,218.7 L 53.2,219.0 L 52.8,219.2 L 52.5,219.2 L 51.9,218.8 L 50.5,218.8 L 50.1,218.9 L 49.6,219.0 L 48.6,219.5 L 48.1,219.1 L 48.0,218.6 L 47.8,218.0 L 47.3,218.0 L 47.0,218.6 L 46.3,218.6 L 45.9,218.6 L 45.6,218.4 L 44.2,217.8 L 44.4,216.6 L 45.5,215.2 L 45.8,214.7 L 45.7,213.7 L 45.4,213.4 L 44.9,213.2 L 44.4,212.9 L 44.5,212.5 L 44.0,212.0 L 43.9,211.7 L 43.4,211.3 L 43.3,210.9 L 42.5,210.1 L 41.3,208.4 L 40.6,207.6 L 40.4,206.9 L 40.0,206.6" fill="none" stroke="black" stroke-width="2"/>
</svg>