<?xml version="1.0" encoding="UTF-8"?>
<svg width="400" height="400" viewBox="0 0 400 400" xmlns="http://www.w3.org/2000/svg">
  <rect width="400" height="400" fill="white"/>
  <path d="M 64.3,159.5 L 62.8,156.8 L 60.3,150.7 L 60.0,147.6 L 59.8,146.6 L 58.8,144.7 L 58.0,144.0 L 56.2,143.5 L 54.1,142.0 L 53.2,139.3 L 52.3,138.1 L 51.3,137.3 L 48.4,136.4 L 47.0,135.4 L 45.5,134.9 L 42.9,134.7 L 40.4,132.7 L 40.0,131.5 L 40.3,130.3 L 41.3,128.7 L 41.7,127.4 L 41.6,127.0 L 41.3,127.0 L 41.4,126.9 L 133.5,56.8 L 133.7,56.7 L 134.6,57.6 L 134.9,59.4 L 135.5,60.0 L 137.0,60.1 L 137.6,60.6 L 137.7,61.2 L 137.5,62.7 L 137.4,64.7 L 137.7,65.1 L 138.7,65.6 L 139.2,66.3 L 140.0,66.5 L 141.7,67.6 L 143.5,69.2 L 144.5,70.6 L 146.9,72.0 L 148.3,73.0 L 151.3,74.6 L 152.3,76.5 L 153.1,77.5 L 155.2,79.5 L 156.4,81.1 L 157.6,82.4 L 157.8,83.6 L 161.4,86.1 L 162.4,86.6 L 163.1,87.4 L 163.3,88.7 L 164.8,89.5 L 164.8,90.2 L 164.0,91.4 L 163.9,92.5 L 164.2,93.1 L 164.3,94.5 L 165.3,95.3 L 167.2,95.2 L 168.5,95.6 L 169.4,96.4 L 170.1,96.9 L 170.3,97.0 L 173.9,97.5 L 176.3,98.2 L 177.2,98.8 L 177.0,99.5 L 177.5,100.0 L 179.7,99.9 L 180.9,100.5 L 182.4,102.9 L 183.3,102.8 L 184.7,104.1 L 186.4,105.4 L 187.2,105.9 L 187.4,106.3 L 187.4,106.4 L 187.8,106.8 L 188.8,107.0 L 189.6,107.7 L 190.8,109.2 L 190.9,109.8 L 191.8,111.5 L 191.0,112.5 L 191.5,113.0 L 192.5,112.5 L 193.1,112.7 L 194.8,114.0 L 197.5,116.4 L 200.3,119.5 L 204.6,124.9 L 205.0,126.0 L 205.9,127.4 L 209.5,131.9 L 209.6,132.7 L 211.7,135.1 L 213.6,137.8 L 214.6,140.2 L 215.8,142.2 L 217.0,143.7 L 218.3,146.2 L 218.8,147.5 L 219.3,148.0 L 220.6,149.2 L 221.4,150.0 L 222.5,151.7 L 222.8,152.5 L 223.6,154.2 L 224.0,154.5 L 225.4,156.3 L 225.8,157.1 L 228.2,159.4 L 228.8,160.5 L 230.2,162.5 L 229.9,163.9 L 230.5,164.9 L 230.8,165.8 L 231.7,166.5 L 231.8,167.4 L 232.0,168.1 L 232.7,169.2 L 233.5,171.1 L 233.5,172.9 L 233.4,174.1 L 233.0,175.0 L 232.8,176.4 L 233.3,178.0 L 233.2,179.6 L 235.2,180.9 L 236.4,181.2 L 236.7,182.1 L 236.7,183.1 L 238.8,185.0 L 241.8,187.3 L 245.2,189.3 L 247.1,189.2 L 249.0,190.4 L 250.8,192.8 L 251.9,193.6 L 253.8,193.6 L 254.0,194.4 L 254.6,195.0 L 255.6,195.1 L 256.4,195.4 L 256.8,195.2 L 257.0,194.5 L 257.4,194.4 L 259.9,194.9 L 264.0,194.6 L 265.6,194.2 L 267.9,194.0 L 268.9,193.7 L 270.4,193.3 L 271.6,193.1 L 273.0,192.6 L 274.8,192.5 L 274.8,192.5 L 301.4,247.4 L 300.9,248.3 L 300.1,249.1 L 299.2,250.8 L 297.7,252.8 L 295.7,255.8 L 296.2,256.7 L 297.0,257.8 L 297.7,259.8 L 298.7,263.2 L 299.4,266.0 L 299.9,270.0 L 301.3,271.1 L 302.0,272.4 L 302.5,272.9 L 303.6,273.3 L 304.0,273.6 L 304.2,274.0 L 305.2,275.7 L 305.8,277.4 L 306.5,279.0 L 307.9,279.2 L 308.9,279.9 L 309.3,282.8 L 311.1,284.7 L 311.2,285.0 L 312.9,287.0 L 314.5,288.1 L 315.6,289.5 L 316.8,294.4 L 316.4,295.3 L 316.4,296.1 L 316.9,298.3 L 317.3,298.7 L 317.7,299.6 L 317.8,301.5 L 318.6,302.2 L 320.1,302.5 L 320.7,302.7 L 321.4,303.4 L 323.9,305.9 L 324.6,306.9 L 325.3,307.3 L 325.8,308.3 L 328.3,311.1 L 328.6,311.5 L 329.5,313.0 L 330.3,313.8 L 336.0,317.7 L 336.8,318.5 L 337.0,319.4 L 340.5,321.4 L 341.6,321.7 L 343.2,322.3 L 344.0,323.3 L 344.8,323.9 L 345.5,324.8 L 346.8,325.1 L 349.6,328.1 L 349.6,328.4 L 350.3,328.9 L 351.0,329.5 L 351.6,330.5 L 352.2,331.5 L 352.0,332.3 L 352.7,334.4 L 353.0,337.4 L 352.2,337.2 L 351.7,337.7 L 355.0,339.8 L 355.5,340.5 L 356.9,341.4 L 359.1,341.7 L 359.7,341.6 L 360.0,341.9 L 359.4,342.3 L 358.6,342.4 L 358.4,342.2 L 357.8,342.2 L 356.5,342.6 L 354.8,341.0 L 353.4,340.9 L 349.1,342.8 L 346.3,343.0 L 346.0,342.8 L 344.1,343.2 L 342.6,343.3 L 340.9,343.1 L 338.8,343.0 L 337.5,342.1 L 335.8,341.4 L 333.6,341.0 L 333.4,340.8 L 332.4,340.7 L 330.4,340.8 L 328.6,340.0 L 326.0,337.8 L 323.6,334.4 L 322.7,333.8 L 320.8,333.3 L 317.9,332.9 L 316.1,331.9 L 314.4,331.7 L 313.0,331.4 L 311.7,330.5 L 309.4,329.1 L 307.9,328.7 L 306.3,328.0 L 304.2,326.8 L 303.3,326.2 L 302.5,325.2 L 298.9,322.0 L 298.6,320.8 L 298.2,320.0 L 298.4,318.5 L 298.4,318.0 L 297.3,316.9 L 295.3,316.0 L 294.5,315.5 L 292.7,314.0 L 292.2,312.9 L 292.0,312.0 L 291.3,308.6 L 290.4,306.2 L 287.5,303.2 L 286.7,302.8 L 284.8,300.6 L 282.9,299.3 L 280.6,298.7 L 279.4,298.6 L 279.0,298.1 L 278.1,296.1 L 277.7,295.0 L 277.2,294.2 L 277.1,293.2 L 274.6,288.3 L 273.5,286.9 L 272.0,285.7 L 271.1,285.6 L 270.7,285.7 L 266.4,285.1 L 264.9,284.2 L 264.0,282.3 L 262.8,280.7 L 262.1,280.6 L 261.3,280.2 L 260.3,279.9 L 259.1,280.1 L 257.3,278.9 L 256.6,278.0 L 256.0,277.4 L 254.6,276.8 L 253.8,276.7 L 253.2,276.7 L 251.9,275.4 L 250.6,275.0 L 249.2,274.2 L 248.5,273.5 L 248.4,273.0 L 247.3,273.1 L 246.6,273.6 L 246.0,273.4 L 245.0,272.1 L 244.6,271.9 L 244.3,272.4 L 244.2,273.1 L 243.4,274.2 L 243.1,276.2 L 242.8,277.2 L 241.8,278.3 L 241.3,279.5 L 241.3,280.5 L 242.0,281.0 L 242.2,281.4 L 239.6,284.2 L 239.2,284.4 L 237.4,285.0 L 235.8,285.2 L 229.7,285.0 L 229.2,285.1 L 228.4,284.7 L 228.4,283.8 L 229.1,281.7 L 228.4,281.0 L 227.0,280.5 L 226.1,280.3 L 225.7,279.9 L 225.8,279.4 L 226.0,279.1 L 225.6,278.2 L 223.7,277.8 L 222.2,277.9 L 221.2,278.0 L 219.9,277.5 L 217.6,276.2 L 214.9,275.0 L 214.5,274.5 L 213.5,274.3 L 211.9,274.0 L 209.4,271.7 L 208.8,270.7 L 208.0,270.1 L 204.4,266.6 L 203.4,265.3 L 202.2,264.3 L 200.8,262.8 L 199.0,261.3 L 198.3,260.9 L 196.6,259.5 L 195.7,259.4 L 194.7,259.0 L 192.5,258.5 L 190.5,256.9 L 189.7,255.8 L 189.2,255.8 L 188.5,256.2 L 187.4,256.3 L 186.1,256.5 L 185.2,256.2 L 184.2,256.2 L 183.5,257.2 L 181.2,259.3 L 180.4,259.4 L 179.1,258.4 L 177.3,258.0 L 176.1,257.3 L 174.6,257.2 L 173.1,256.7 L 170.3,256.4 L 168.9,255.8 L 166.5,254.1 L 162.1,253.1 L 158.7,252.8 L 157.6,252.4 L 154.5,251.6 L 149.7,251.7 L 148.3,251.3 L 147.5,250.8 L 146.8,248.8 L 146.5,247.2 L 146.4,243.7 L 147.0,243.4 L 147.8,243.3 L 147.8,242.9 L 146.7,242.7 L 146.0,241.5 L 145.7,240.1 L 145.2,239.3 L 144.3,238.4 L 142.5,239.2 L 141.6,239.3 L 141.3,239.8 L 139.2,240.7 L 138.6,240.8 L 138.0,241.2 L 138.0,241.9 L 137.1,241.9 L 136.6,241.4 L 135.5,240.7 L 134.9,240.9 L 133.9,241.0 L 133.2,241.3 L 133.1,241.9 L 132.5,243.2 L 128.6,243.4 L 128.1,243.1 L 128.1,241.4 L 127.9,240.4 L 127.5,240.0 L 125.8,238.0 L 126.1,236.9 L 125.8,234.0 L 126.2,233.4 L 126.2,231.7 L 126.5,230.1 L 126.7,227.7 L 127.0,226.7 L 127.1,225.5 L 128.2,223.7 L 128.8,221.8 L 129.2,218.4 L 129.1,217.1 L 128.0,215.7 L 127.9,213.7 L 127.9,213.5 L 127.2,211.7 L 126.1,209.6 L 124.6,208.2 L 123.8,206.7 L 123.3,206.2 L 122.2,205.2 L 121.5,203.9 L 118.9,200.2 L 117.6,199.5 L 117.3,198.7 L 115.9,196.2 L 114.5,195.6 L 114.1,195.1 L 113.0,192.0 L 111.8,189.7 L 111.0,189.2 L 110.8,188.9 L 110.7,188.3 L 109.9,187.8 L 109.7,186.1 L 109.2,185.6 L 107.5,184.5 L 105.7,182.8 L 105.7,181.5 L 106.2,180.6 L 105.8,179.6 L 105.9,178.1 L 106.6,177.5 L 106.6,176.9 L 105.7,176.0 L 105.0,175.7 L 103.6,175.6 L 100.7,176.4 L 100.4,176.2 L 100.2,175.9 L 99.2,175.9 L 98.5,176.5 L 97.3,176.6 L 96.9,176.8 L 97.3,177.6 L 97.4,178.0 L 97.0,178.2 L 96.0,177.8 L 94.9,177.6 L 94.6,177.4 L 94.6,176.1 L 93.3,175.0 L 93.4,174.6 L 93.9,174.1 L 93.6,173.6 L 92.7,173.3 L 90.6,173.4 L 90.6,172.2 L 90.3,171.5 L 90.4,170.6 L 90.9,168.2 L 91.2,167.5 L 91.5,167.4 L 91.4,167.0 L 89.7,166.9 L 87.7,167.1 L 86.8,166.9 L 84.0,164.9 L 84.0,163.3 L 85.0,162.4 L 85.0,161.7 L 85.6,160.6 L 85.2,159.8 L 84.4,159.3 L 82.9,159.3 L 80.7,159.8 L 79.7,160.6 L 78.2,161.4 L 76.4,162.0 L 73.6,162.4 L 73.1,162.5 L 72.2,162.4 L 72.1,161.6 L 71.2,161.2 L 70.6,161.1 L 70.3,161.0 L 68.8,160.8 L 66.8,161.0 L 64.6,159.5 L 64.3,159.5" fill="none" stroke="black" stroke-width="2"/>
</svg>