<?xml version="1.0" encoding="UTF-8"?>
<svg width="400" height="400" viewBox="0 0 400 400" xmlns="http://www.w3.org/2000/svg">
  <rect width="400" height="400" fill="white"/>
  <path d="M 87.8,208.1 L 87.8,207.5 L 88.5,206.8 L 90.0,205.7 L 90.3,205.2 L 90.3,204.2 L 89.4,200.7 L 89.8,200.1 L 89.8,199.8 L 89.1,199.8 L 87.7,198.5 L 86.9,197.5 L 83.8,195.0 L 79.9,192.0 L 77.2,189.4 L 76.1,187.6 L 76.0,185.6 L 75.7,184.7 L 75.8,183.0 L 76.4,181.5 L 76.4,180.3 L 75.4,179.1 L 73.1,177.2 L 72.0,174.9 L 71.7,173.8 L 71.9,171.9 L 72.8,171.0 L 74.4,169.6 L 74.6,168.9 L 74.5,168.3 L 72.5,167.1 L 71.0,165.7 L 69.3,164.6 L 68.8,164.0 L 68.0,162.8 L 68.2,161.3 L 68.1,160.6 L 67.5,159.6 L 66.3,158.7 L 64.7,158.2 L 63.4,158.3 L 61.7,159.5 L 60.1,159.6 L 56.8,159.5 L 54.9,158.2 L 53.8,157.0 L 52.9,156.5 L 52.1,154.9 L 51.1,153.7 L 50.9,152.9 L 50.7,150.6 L 51.1,147.7 L 51.6,146.6 L 53.9,143.3 L 53.8,142.9 L 53.3,142.1 L 52.8,142.0 L 51.1,141.0 L 50.8,140.7 L 49.2,140.7 L 48.0,141.4 L 44.9,141.4 L 43.4,141.2 L 41.9,140.2 L 40.7,138.4 L 40.2,137.3 L 40.0,134.8 L 40.4,133.4 L 40.5,133.1 L 42.2,129.3 L 42.6,128.6 L 43.7,127.7 L 44.8,127.4 L 45.6,126.6 L 48.0,126.5 L 49.3,125.8 L 49.5,125.2 L 49.3,124.7 L 49.5,124.0 L 50.7,122.5 L 51.1,122.3 L 51.5,122.4 L 51.6,122.7 L 51.9,122.9 L 52.5,122.9 L 53.9,121.8 L 54.0,121.4 L 56.2,119.6 L 56.9,119.4 L 57.0,120.1 L 57.4,120.0 L 59.9,117.3 L 61.1,116.5 L 62.2,115.0 L 63.7,114.8 L 64.3,114.2 L 64.4,113.7 L 65.3,111.9 L 66.3,110.8 L 68.0,109.7 L 72.4,105.7 L 73.9,104.4 L 76.2,101.9 L 78.1,98.6 L 78.6,97.2 L 78.8,96.3 L 79.9,95.1 L 80.3,94.3 L 80.2,93.9 L 79.5,93.0 L 79.9,92.0 L 81.1,90.8 L 81.9,90.8 L 82.7,91.3 L 83.6,90.9 L 85.8,88.7 L 86.1,88.5 L 87.2,87.5 L 87.0,86.6 L 88.3,85.1 L 88.2,84.5 L 87.8,84.2 L 87.5,83.3 L 86.8,82.5 L 87.3,82.0 L 87.0,81.3 L 86.2,79.8 L 86.5,78.8 L 86.1,78.5 L 85.6,78.1 L 85.4,77.8 L 85.4,77.0 L 84.1,76.6 L 83.9,76.1 L 84.0,75.4 L 84.4,74.5 L 84.3,73.7 L 83.5,72.1 L 83.2,71.6 L 83.2,69.3 L 84.1,68.4 L 84.2,67.0 L 136.7,61.8 L 136.8,61.8 L 136.9,61.8 L 137.6,62.6 L 138.1,62.9 L 139.0,63.7 L 140.0,63.4 L 140.9,63.6 L 141.5,63.0 L 142.0,62.9 L 142.7,63.1 L 143.3,64.2 L 143.7,64.3 L 144.9,63.7 L 146.4,63.9 L 146.9,64.9 L 147.7,65.6 L 149.8,66.1 L 150.7,66.7 L 152.1,67.3 L 154.5,68.5 L 154.6,69.2 L 153.5,69.2 L 152.3,68.8 L 151.2,68.7 L 150.3,69.0 L 148.5,68.5 L 145.3,69.5 L 143.1,69.6 L 141.0,68.3 L 140.6,68.1 L 139.7,68.0 L 138.7,68.2 L 138.1,68.7 L 137.9,69.2 L 138.1,69.8 L 139.9,70.7 L 140.0,71.0 L 138.6,71.4 L 138.0,71.8 L 137.9,72.5 L 138.0,73.7 L 138.8,75.1 L 139.0,75.8 L 139.3,76.3 L 141.0,77.3 L 142.2,77.5 L 144.3,78.4 L 145.2,78.7 L 145.7,78.9 L 146.2,79.7 L 145.9,80.6 L 146.7,81.6 L 147.5,83.7 L 148.1,84.4 L 149.4,84.5 L 149.7,85.3 L 150.4,85.7 L 150.8,85.5 L 151.6,85.5 L 152.4,86.3 L 153.0,87.6 L 153.2,89.8 L 153.9,90.3 L 154.8,91.9 L 154.8,92.6 L 153.7,93.9 L 152.6,95.5 L 152.2,96.3 L 153.1,97.8 L 153.2,98.5 L 153.0,99.1 L 153.0,100.1 L 153.9,101.2 L 154.1,101.8 L 153.7,101.8 L 153.0,101.6 L 153.0,101.8 L 153.1,102.6 L 153.9,103.2 L 155.0,104.3 L 156.0,107.4 L 159.1,111.1 L 159.1,111.5 L 158.5,111.9 L 159.0,112.6 L 159.0,113.5 L 159.7,114.1 L 159.9,115.7 L 160.2,116.5 L 161.0,117.8 L 161.1,118.5 L 161.5,119.1 L 162.4,119.0 L 162.8,118.7 L 162.8,117.8 L 162.4,117.0 L 162.6,116.7 L 163.0,116.3 L 163.5,116.2 L 163.7,115.9 L 163.7,115.4 L 164.4,114.9 L 165.3,115.1 L 167.3,113.3 L 167.8,113.0 L 168.9,113.1 L 169.7,113.9 L 169.7,114.8 L 168.7,116.0 L 168.6,116.7 L 168.8,118.7 L 169.6,119.2 L 169.9,120.5 L 170.7,121.0 L 170.9,121.9 L 171.7,121.9 L 172.0,123.6 L 172.5,123.9 L 172.6,124.7 L 172.8,125.3 L 172.8,126.4 L 172.6,127.3 L 173.0,128.4 L 173.0,129.2 L 172.9,129.7 L 171.7,129.8 L 171.6,130.2 L 172.0,131.1 L 173.0,132.1 L 174.3,132.3 L 174.8,132.5 L 175.4,133.4 L 175.8,134.1 L 177.2,135.0 L 177.2,135.7 L 176.8,136.2 L 175.0,136.0 L 173.7,136.6 L 172.4,137.9 L 172.6,139.0 L 172.3,139.8 L 171.6,139.9 L 171.0,140.9 L 170.8,142.3 L 170.4,142.7 L 168.3,142.8 L 167.7,143.8 L 167.2,143.9 L 165.0,142.3 L 164.2,141.6 L 163.6,141.2 L 163.6,140.3 L 163.3,139.9 L 162.4,139.2 L 162.0,139.7 L 161.9,140.2 L 161.2,140.6 L 159.7,139.9 L 158.6,139.0 L 157.0,138.1 L 155.9,137.8 L 155.0,138.2 L 154.5,138.3 L 153.9,138.9 L 153.8,140.3 L 154.4,143.6 L 155.2,145.1 L 155.6,145.6 L 156.3,145.5 L 157.4,147.7 L 158.1,147.8 L 158.5,148.2 L 158.6,149.0 L 158.8,149.6 L 158.8,150.9 L 158.2,151.2 L 157.8,151.7 L 157.3,154.5 L 156.4,155.5 L 156.3,156.0 L 156.6,156.5 L 158.4,157.1 L 159.3,157.0 L 159.7,156.6 L 159.9,154.1 L 160.6,151.7 L 160.8,150.6 L 161.7,149.6 L 162.8,149.2 L 163.6,149.3 L 166.8,150.5 L 167.6,151.1 L 168.7,152.8 L 168.8,154.1 L 168.2,155.3 L 168.1,156.8 L 168.5,157.5 L 169.2,158.2 L 171.4,158.6 L 172.4,159.0 L 173.3,159.8 L 173.9,160.6 L 173.9,161.5 L 173.4,162.6 L 171.2,164.9 L 170.7,166.0 L 169.6,167.2 L 169.6,167.5 L 170.1,168.1 L 170.5,168.6 L 170.1,169.6 L 169.4,170.2 L 169.1,171.0 L 169.7,171.6 L 169.8,172.0 L 167.7,174.3 L 164.4,175.7 L 164.0,176.2 L 163.9,176.7 L 164.2,177.8 L 165.0,178.3 L 167.6,178.6 L 168.7,178.9 L 169.7,179.4 L 170.5,180.3 L 171.2,181.6 L 172.0,182.4 L 172.8,183.5 L 172.8,185.0 L 172.9,185.3 L 173.6,185.9 L 174.4,185.7 L 174.4,185.3 L 173.8,184.8 L 174.0,184.6 L 174.7,184.7 L 176.4,185.7 L 178.1,187.1 L 179.2,188.6 L 181.9,191.0 L 183.4,190.8 L 184.6,191.1 L 185.3,191.1 L 185.5,190.4 L 185.9,190.2 L 188.2,190.1 L 190.7,189.0 L 191.2,188.7 L 191.4,188.2 L 192.2,187.9 L 193.1,188.0 L 193.4,188.4 L 193.5,188.8 L 192.7,189.9 L 192.9,190.4 L 193.8,190.7 L 195.0,190.5 L 195.8,189.8 L 196.7,189.6 L 197.3,189.0 L 196.9,188.3 L 197.5,187.7 L 198.6,187.7 L 199.2,188.3 L 199.5,189.0 L 200.1,188.7 L 200.9,187.7 L 204.0,186.1 L 204.7,185.4 L 204.7,184.5 L 205.1,184.2 L 205.6,184.4 L 206.5,185.1 L 207.2,185.5 L 207.0,186.2 L 207.0,186.6 L 207.5,186.5 L 207.9,186.1 L 208.0,185.1 L 208.8,183.8 L 209.9,182.7 L 210.4,182.7 L 211.6,181.0 L 212.3,180.5 L 212.6,180.1 L 213.3,177.7 L 214.1,176.9 L 215.5,176.4 L 216.2,175.7 L 216.1,174.4 L 215.3,173.4 L 215.5,172.9 L 216.5,172.6 L 220.4,172.6 L 221.8,173.1 L 222.2,173.6 L 221.0,173.9 L 220.1,174.8 L 219.3,176.2 L 217.3,178.7 L 213.5,182.6 L 212.1,183.3 L 211.6,183.9 L 211.7,184.4 L 210.8,185.9 L 211.0,186.1 L 212.2,185.9 L 214.4,183.9 L 215.3,183.4 L 215.7,183.3 L 216.2,182.8 L 219.2,182.7 L 219.2,183.6 L 220.0,184.1 L 221.0,185.0 L 221.0,185.6 L 221.2,185.9 L 221.6,185.8 L 222.1,185.3 L 222.3,185.5 L 222.5,186.6 L 223.8,187.9 L 224.3,188.0 L 225.4,189.0 L 227.2,189.6 L 228.4,189.5 L 229.3,189.0 L 229.9,187.7 L 229.8,187.0 L 229.8,186.4 L 231.0,185.4 L 231.9,185.1 L 234.1,183.7 L 235.7,184.0 L 236.0,183.9 L 236.0,183.2 L 235.2,182.3 L 235.3,181.7 L 235.8,181.7 L 237.6,182.8 L 238.6,183.2 L 239.3,182.8 L 239.5,182.6 L 240.7,182.3 L 241.8,181.1 L 242.7,181.1 L 244.6,182.4 L 245.8,183.2 L 246.2,183.1 L 247.0,182.6 L 248.3,180.8 L 249.5,177.6 L 250.0,175.5 L 250.6,174.9 L 251.2,173.9 L 251.6,172.6 L 252.2,172.1 L 252.7,172.0 L 253.1,172.4 L 252.3,175.1 L 252.7,175.4 L 253.5,175.3 L 254.5,174.0 L 255.4,171.6 L 255.6,168.6 L 255.2,167.2 L 255.5,166.6 L 257.9,165.5 L 258.1,165.6 L 258.3,166.5 L 259.0,167.0 L 259.1,169.5 L 259.3,170.9 L 260.4,172.1 L 259.4,174.7 L 258.9,175.3 L 258.8,175.9 L 259.1,176.3 L 260.4,178.5 L 260.5,179.3 L 261.0,179.9 L 260.3,181.5 L 259.2,181.9 L 258.7,182.4 L 258.4,183.0 L 258.6,183.2 L 259.1,183.0 L 259.5,183.4 L 259.5,183.9 L 259.0,185.5 L 259.6,186.1 L 259.2,187.6 L 258.3,187.8 L 257.9,188.5 L 257.8,190.9 L 258.2,191.9 L 258.5,192.3 L 258.9,192.1 L 259.4,191.4 L 259.7,191.8 L 259.8,192.1 L 260.3,193.0 L 261.5,193.4 L 263.2,194.8 L 265.8,196.3 L 266.7,196.2 L 267.1,195.7 L 267.5,194.8 L 268.9,194.5 L 269.6,194.1 L 270.2,194.2 L 270.4,194.5 L 271.1,195.1 L 272.1,195.2 L 273.2,196.1 L 273.8,196.3 L 274.6,195.9 L 275.2,195.8 L 276.1,196.6 L 276.8,196.5 L 277.6,195.5 L 278.3,194.7 L 280.1,194.5 L 281.7,193.6 L 282.1,193.1 L 282.6,191.2 L 283.9,189.8 L 284.3,186.8 L 284.7,185.0 L 284.9,183.5 L 285.2,182.3 L 286.6,180.8 L 286.8,179.8 L 289.5,176.7 L 290.3,177.1 L 291.0,178.2 L 292.2,178.3 L 292.3,178.7 L 291.7,180.2 L 291.6,181.6 L 292.0,182.9 L 293.5,184.2 L 293.8,184.7 L 292.8,186.2 L 292.8,187.3 L 293.8,188.2 L 295.1,188.5 L 295.6,188.5 L 295.8,187.4 L 296.1,187.0 L 297.3,187.2 L 298.5,188.1 L 299.6,187.8 L 300.8,188.3 L 301.1,187.8 L 301.1,186.9 L 300.7,186.8 L 299.8,187.2 L 299.5,187.0 L 298.6,185.7 L 298.7,185.0 L 299.1,184.7 L 300.3,185.1 L 301.1,185.1 L 301.6,185.3 L 302.5,185.1 L 303.3,185.1 L 304.2,184.0 L 304.9,183.7 L 305.5,183.8 L 305.9,184.2 L 305.9,184.6 L 305.3,185.3 L 305.5,185.6 L 306.2,185.6 L 306.2,186.0 L 305.3,187.0 L 305.3,187.4 L 305.8,187.6 L 307.2,187.5 L 307.7,187.3 L 307.9,186.9 L 307.6,186.4 L 307.0,185.8 L 307.0,184.6 L 306.8,183.9 L 307.0,183.0 L 306.1,181.5 L 306.1,180.0 L 306.2,179.7 L 306.5,179.6 L 308.0,179.6 L 308.7,180.2 L 309.1,180.1 L 309.5,179.6 L 310.5,179.3 L 311.6,178.9 L 312.7,178.7 L 313.6,178.7 L 314.7,177.7 L 314.9,178.1 L 314.7,178.8 L 314.0,180.3 L 314.5,182.1 L 314.5,183.1 L 314.8,184.1 L 315.3,184.9 L 315.8,185.4 L 318.7,185.2 L 319.8,186.1 L 320.7,186.0 L 321.2,186.3 L 321.0,186.9 L 322.2,187.1 L 323.3,186.7 L 324.3,186.0 L 325.1,186.0 L 328.1,187.0 L 328.9,188.2 L 329.7,189.0 L 330.4,189.3 L 331.5,189.9 L 332.1,189.8 L 332.4,189.6 L 333.2,192.1 L 333.2,192.2 L 333.4,193.8 L 334.0,194.6 L 334.2,195.9 L 335.5,197.1 L 335.9,197.8 L 336.4,198.2 L 338.1,199.0 L 338.5,199.9 L 336.8,202.4 L 337.4,202.4 L 338.8,203.0 L 338.7,203.4 L 337.8,203.6 L 336.0,203.3 L 335.8,203.6 L 336.7,204.2 L 342.5,204.3 L 343.3,204.7 L 344.0,205.0 L 344.6,204.9 L 344.8,204.3 L 345.3,203.7 L 346.4,203.6 L 346.5,202.4 L 347.1,202.3 L 347.1,202.3 L 350.4,202.6 L 350.9,202.8 L 350.9,203.3 L 350.6,204.1 L 351.1,204.1 L 349.4,269.3 L 347.5,269.3 L 347.1,269.1 L 346.7,269.0 L 345.4,269.0 L 344.2,269.1 L 343.3,269.7 L 342.0,269.9 L 341.6,270.2 L 340.9,271.4 L 339.0,271.6 L 338.7,271.9 L 338.7,272.9 L 338.0,274.8 L 337.4,275.5 L 336.4,276.1 L 332.5,276.8 L 332.0,277.1 L 331.7,277.5 L 331.2,278.0 L 330.5,278.4 L 329.6,277.7 L 329.0,277.4 L 328.1,278.8 L 327.8,280.2 L 327.3,281.2 L 326.8,281.6 L 326.3,281.2 L 326.1,280.5 L 325.9,279.4 L 325.1,278.8 L 323.3,278.8 L 320.9,281.2 L 320.1,282.8 L 319.2,283.0 L 318.8,282.6 L 318.3,281.6 L 317.6,281.6 L 316.7,282.0 L 316.2,282.0 L 314.6,282.1 L 313.9,282.5 L 313.6,282.9 L 312.9,284.3 L 311.6,285.9 L 310.8,287.9 L 310.0,288.7 L 309.3,289.6 L 309.6,290.5 L 309.4,291.3 L 309.3,291.9 L 309.5,292.8 L 309.3,293.8 L 308.6,294.7 L 307.8,296.2 L 307.7,299.6 L 307.9,300.4 L 308.4,301.4 L 309.2,301.9 L 309.6,302.3 L 309.8,303.3 L 309.9,303.5 L 310.7,303.7 L 311.1,304.0 L 311.2,304.5 L 312.4,305.5 L 313.0,306.4 L 314.1,307.3 L 316.4,308.5 L 318.1,308.4 L 318.8,307.5 L 319.1,306.0 L 319.1,304.3 L 319.7,302.6 L 321.6,300.7 L 323.0,300.1 L 323.6,299.6 L 324.3,299.4 L 325.4,298.2 L 325.4,297.6 L 324.4,297.0 L 324.4,296.4 L 324.1,296.4 L 323.5,297.2 L 322.5,297.3 L 321.6,296.8 L 321.4,296.3 L 321.5,289.0 L 321.8,288.5 L 323.2,288.5 L 323.9,288.7 L 324.8,289.5 L 326.0,289.6 L 326.5,290.0 L 327.5,289.2 L 328.6,288.7 L 329.4,287.9 L 330.0,286.3 L 330.9,284.7 L 331.6,283.9 L 332.9,283.1 L 333.4,283.3 L 334.0,285.1 L 334.7,285.7 L 334.9,286.5 L 334.1,288.2 L 334.1,289.3 L 334.6,290.0 L 334.6,291.0 L 334.4,291.3 L 334.6,291.5 L 335.2,291.2 L 335.8,289.9 L 335.8,288.4 L 336.3,288.0 L 336.9,288.0 L 337.1,290.2 L 338.2,291.1 L 338.5,292.5 L 338.1,293.3 L 338.1,294.3 L 339.2,295.0 L 339.7,295.7 L 339.5,297.4 L 340.0,297.7 L 341.5,297.6 L 345.3,296.0 L 346.3,295.2 L 347.1,294.4 L 347.1,294.4 L 347.7,292.7 L 348.2,292.3 L 349.6,291.4 L 350.4,291.5 L 350.9,291.8 L 352.1,291.7 L 353.0,291.0 L 354.4,291.4 L 356.3,291.5 L 356.6,291.7 L 355.9,293.6 L 355.9,294.5 L 356.5,294.5 L 358.0,292.8 L 358.4,292.8 L 359.0,293.4 L 359.8,296.1 L 360.0,297.3 L 359.8,298.1 L 359.5,299.1 L 353.9,302.7 L 353.1,303.0 L 351.6,302.8 L 350.5,303.0 L 349.8,303.4 L 349.2,304.2 L 348.2,305.1 L 347.1,305.6 L 346.0,306.2 L 344.7,306.9 L 343.6,307.4 L 341.5,308.6 L 340.7,309.1 L 339.8,310.1 L 336.0,312.5 L 333.4,314.6 L 331.6,315.4 L 329.8,315.9 L 328.9,316.4 L 327.0,316.8 L 325.1,318.5 L 324.2,319.1 L 322.7,319.3 L 320.6,318.4 L 319.0,317.3 L 318.0,317.3 L 316.5,318.1 L 314.0,320.3 L 310.9,322.6 L 309.3,325.5 L 308.7,326.2 L 306.8,327.4 L 306.1,327.5 L 303.9,327.3 L 303.0,326.7 L 302.5,327.0 L 301.9,328.5 L 301.3,329.0 L 298.7,329.9 L 297.7,330.9 L 295.1,332.3 L 292.9,332.3 L 291.6,332.6 L 290.4,332.7 L 289.0,332.1 L 288.9,331.3 L 288.4,331.0 L 286.5,332.3 L 285.5,333.2 L 285.2,333.8 L 284.5,334.4 L 282.8,334.9 L 280.0,336.2 L 277.4,337.8 L 275.9,338.2 L 274.8,337.9 L 274.0,336.8 L 274.0,336.3 L 274.2,335.7 L 273.4,335.1 L 272.6,334.0 L 271.9,333.3 L 271.7,333.1 L 271.1,331.6 L 270.4,331.1 L 269.0,330.5 L 270.6,327.9 L 271.5,326.0 L 271.5,324.7 L 271.0,323.5 L 271.0,322.5 L 271.6,321.2 L 271.9,320.3 L 271.6,319.8 L 271.0,318.7 L 270.8,317.8 L 270.9,316.1 L 271.6,314.6 L 272.8,313.0 L 273.2,312.3 L 272.7,311.4 L 273.0,309.2 L 274.5,306.0 L 274.6,305.1 L 275.3,303.8 L 276.9,302.4 L 278.0,300.9 L 278.9,299.8 L 280.2,298.5 L 282.5,298.1 L 282.8,298.2 L 283.2,298.6 L 283.6,298.5 L 283.9,297.7 L 285.0,296.6 L 285.2,295.9 L 285.9,295.3 L 286.5,295.4 L 287.1,296.2 L 287.0,297.0 L 285.7,299.8 L 285.4,300.5 L 283.5,303.3 L 283.2,304.7 L 283.1,306.2 L 282.6,307.1 L 282.6,307.9 L 283.6,308.8 L 284.3,309.1 L 285.0,309.0 L 285.4,308.7 L 285.6,308.1 L 287.6,306.0 L 287.7,305.3 L 287.7,303.7 L 287.2,303.0 L 287.0,302.2 L 287.9,300.6 L 288.9,299.8 L 288.9,298.9 L 289.1,298.1 L 288.3,297.4 L 288.6,296.5 L 288.4,295.7 L 291.0,292.3 L 291.3,290.8 L 291.0,289.5 L 290.4,288.8 L 290.1,287.0 L 289.3,286.3 L 288.8,285.7 L 287.5,285.0 L 287.1,284.7 L 286.9,283.8 L 286.3,283.3 L 286.3,282.8 L 286.5,281.9 L 286.4,280.6 L 285.9,279.7 L 285.5,278.6 L 285.7,277.9 L 286.9,277.1 L 287.8,276.7 L 288.8,275.5 L 289.9,275.2 L 291.2,274.2 L 291.7,274.1 L 292.1,272.7 L 292.5,271.9 L 293.1,271.1 L 294.0,270.9 L 293.9,270.4 L 293.1,269.7 L 293.0,268.3 L 291.4,267.2 L 289.6,264.4 L 288.9,264.0 L 287.5,263.9 L 286.4,264.3 L 285.4,265.1 L 284.5,265.5 L 284.4,265.9 L 284.8,266.4 L 285.1,267.2 L 285.2,268.1 L 285.2,269.1 L 284.9,270.5 L 282.6,273.0 L 280.2,274.2 L 279.4,275.1 L 279.4,276.2 L 279.1,277.5 L 279.1,279.3 L 278.3,280.7 L 277.6,282.5 L 277.3,283.8 L 277.3,286.4 L 277.0,286.7 L 276.6,286.9 L 275.9,286.3 L 275.4,285.6 L 273.4,285.0 L 273.0,284.6 L 272.8,283.7 L 271.6,282.5 L 271.3,281.7 L 270.8,281.2 L 270.3,281.1 L 269.9,281.2 L 269.5,282.2 L 269.4,284.4 L 269.0,285.6 L 268.2,286.8 L 267.9,288.4 L 267.1,291.4 L 266.8,291.8 L 266.1,292.0 L 265.6,291.8 L 264.1,291.7 L 264.1,292.3 L 265.3,293.3 L 266.3,293.5 L 267.1,293.9 L 268.8,296.2 L 268.8,297.2 L 268.4,298.4 L 267.6,299.9 L 266.6,300.9 L 265.5,302.2 L 263.9,306.0 L 263.4,306.5 L 262.8,306.5 L 261.8,305.8 L 260.8,304.3 L 260.2,304.0 L 258.1,304.4 L 256.8,303.7 L 256.5,304.1 L 256.3,305.8 L 255.3,307.5 L 254.6,308.4 L 251.8,311.0 L 251.0,312.0 L 250.2,312.5 L 249.8,313.3 L 248.9,314.4 L 248.8,315.1 L 248.0,317.9 L 246.8,320.1 L 245.9,321.0 L 243.7,323.0 L 240.9,324.6 L 239.3,325.2 L 236.4,326.4 L 233.2,328.3 L 232.5,329.2 L 231.9,329.4 L 231.0,329.8 L 230.0,330.1 L 228.9,331.1 L 228.3,332.0 L 227.2,332.0 L 225.9,331.7 L 224.7,330.8 L 222.7,330.7 L 222.8,329.9 L 223.7,328.4 L 223.9,325.4 L 223.9,323.6 L 224.0,322.9 L 225.5,321.5 L 225.8,320.8 L 226.3,320.1 L 226.7,318.9 L 227.0,318.1 L 226.7,316.9 L 228.1,313.4 L 229.6,310.8 L 230.8,309.5 L 231.0,308.6 L 230.4,307.7 L 230.4,306.0 L 230.8,305.2 L 230.9,303.6 L 231.4,302.3 L 231.6,300.3 L 232.7,298.3 L 232.7,297.2 L 232.4,296.4 L 232.7,295.7 L 233.4,294.4 L 236.0,293.0 L 237.5,293.0 L 238.1,292.5 L 238.3,293.8 L 238.8,294.5 L 239.3,295.0 L 239.3,295.0 L 240.8,296.0 L 241.7,296.2 L 242.3,296.8 L 242.7,297.0 L 243.6,296.6 L 244.5,297.0 L 245.5,298.4 L 246.2,298.4 L 247.3,298.9 L 248.0,299.8 L 248.4,299.5 L 248.7,298.0 L 250.6,294.5 L 251.0,294.1 L 252.4,294.1 L 253.5,294.6 L 254.4,295.8 L 255.1,296.2 L 256.3,297.1 L 256.7,297.0 L 257.8,294.5 L 257.9,292.5 L 257.5,290.9 L 256.6,288.4 L 255.0,285.6 L 253.9,283.9 L 253.1,283.3 L 251.9,282.9 L 249.6,283.0 L 246.6,283.5 L 246.1,283.8 L 244.6,283.6 L 244.4,283.3 L 245.0,282.8 L 246.3,282.1 L 246.6,281.7 L 247.1,279.7 L 247.0,278.7 L 246.1,277.0 L 245.1,276.2 L 243.6,276.1 L 244.3,274.7 L 244.6,273.8 L 244.3,272.0 L 243.7,271.1 L 243.1,270.2 L 242.8,269.2 L 242.9,268.3 L 243.3,268.0 L 245.6,268.0 L 247.6,269.7 L 248.9,270.4 L 250.1,272.0 L 251.0,273.3 L 251.8,274.1 L 252.8,275.6 L 252.9,276.4 L 253.3,277.4 L 254.6,277.4 L 256.7,278.2 L 257.3,278.1 L 258.2,277.4 L 258.2,276.5 L 257.5,275.8 L 257.5,274.3 L 257.7,273.1 L 257.5,271.9 L 257.2,271.0 L 257.7,270.4 L 258.4,270.3 L 258.9,270.5 L 259.3,271.1 L 259.4,271.6 L 259.8,272.5 L 260.2,272.3 L 260.6,270.7 L 261.3,270.2 L 261.2,267.7 L 261.7,267.3 L 263.0,267.2 L 263.8,266.2 L 264.1,265.5 L 263.5,264.9 L 262.7,264.5 L 262.2,263.4 L 261.4,262.4 L 260.6,260.6 L 260.5,259.1 L 259.8,258.5 L 259.5,257.4 L 259.2,257.2 L 258.4,257.3 L 257.6,257.7 L 256.4,257.6 L 254.8,257.1 L 253.9,257.0 L 253.2,256.0 L 252.6,255.5 L 252.6,255.2 L 252.8,253.8 L 252.4,253.4 L 251.9,253.1 L 251.5,253.5 L 251.2,254.1 L 250.2,254.1 L 248.3,253.5 L 247.9,253.0 L 247.6,252.5 L 246.5,252.1 L 246.1,251.5 L 245.7,251.5 L 244.8,251.8 L 239.7,251.8 L 239.3,251.9 L 237.2,252.2 L 236.2,252.0 L 235.6,251.6 L 234.9,251.6 L 233.1,252.2 L 231.1,252.3 L 230.2,252.5 L 228.7,252.5 L 226.8,253.0 L 225.6,253.4 L 225.6,253.4 L 224.9,253.5 L 222.0,253.6 L 218.5,254.2 L 216.7,254.7 L 211.3,254.8 L 209.4,254.4 L 208.1,254.0 L 205.5,252.9 L 203.8,252.9 L 202.6,253.6 L 200.8,253.6 L 199.7,253.8 L 199.0,254.4 L 198.3,255.9 L 197.9,256.2 L 196.7,255.1 L 195.1,255.1 L 194.2,255.5 L 192.9,256.9 L 192.5,258.1 L 191.8,258.7 L 191.6,258.4 L 191.5,257.5 L 190.9,256.2 L 190.7,255.1 L 190.7,253.9 L 189.2,252.1 L 189.4,251.6 L 188.1,251.3 L 187.1,250.3 L 185.9,248.0 L 185.4,246.1 L 185.7,245.8 L 185.7,245.2 L 185.1,244.2 L 184.4,241.6 L 184.4,241.2 L 184.1,239.4 L 183.4,238.1 L 182.4,237.0 L 181.2,236.2 L 179.0,234.5 L 176.7,233.9 L 175.4,233.3 L 174.0,233.3 L 172.9,234.1 L 170.4,234.0 L 169.5,233.4 L 168.8,232.5 L 167.9,232.2 L 167.5,232.2 L 166.5,231.0 L 165.3,229.9 L 164.1,229.8 L 162.7,230.0 L 161.4,230.7 L 160.5,231.6 L 160.4,232.2 L 160.8,235.4 L 161.4,236.2 L 161.6,237.0 L 161.4,237.6 L 161.4,238.8 L 163.0,240.2 L 164.9,241.2 L 164.9,241.2 L 166.1,241.7 L 166.2,242.3 L 166.0,243.3 L 164.1,244.4 L 163.4,245.5 L 163.4,246.4 L 163.9,247.5 L 164.8,248.5 L 165.0,249.2 L 164.0,250.3 L 163.4,250.4 L 162.1,249.7 L 161.4,248.9 L 159.8,248.2 L 158.6,248.2 L 157.1,246.9 L 155.3,246.2 L 151.2,243.5 L 150.8,242.8 L 149.9,242.4 L 148.8,242.5 L 147.5,243.3 L 146.3,244.2 L 144.5,244.5 L 141.9,244.4 L 141.6,244.0 L 141.5,243.3 L 141.0,242.4 L 140.8,242.4 L 140.1,241.4 L 138.9,241.4 L 138.0,241.9 L 136.8,242.1 L 133.5,244.7 L 132.7,244.8 L 132.1,244.6 L 131.6,243.9 L 131.5,243.8 L 131.1,243.7 L 130.1,244.2 L 128.6,244.2 L 128.3,244.0 L 129.0,243.3 L 128.8,242.9 L 127.9,242.4 L 127.0,242.4 L 127.0,244.3 L 126.6,244.9 L 126.1,244.9 L 126.1,244.6 L 126.5,243.9 L 126.4,243.4 L 124.9,241.9 L 124.7,241.6 L 125.0,241.2 L 125.1,241.0 L 124.8,239.4 L 124.2,238.8 L 123.0,238.8 L 121.4,239.2 L 120.0,238.8 L 119.0,238.4 L 117.8,238.2 L 116.7,237.7 L 116.0,237.5 L 115.4,237.7 L 114.1,238.8 L 113.6,238.9 L 112.8,238.5 L 110.0,236.3 L 109.3,235.9 L 107.5,235.8 L 106.8,235.1 L 106.6,234.2 L 106.5,233.7 L 105.7,233.3 L 104.7,233.3 L 103.8,234.2 L 103.7,234.7 L 103.9,235.8 L 106.3,237.8 L 106.3,239.7 L 106.1,240.3 L 104.2,240.8 L 102.1,240.9 L 101.6,240.6 L 101.4,239.8 L 102.1,238.7 L 102.1,238.1 L 101.2,237.7 L 101.1,237.3 L 101.2,236.9 L 101.5,236.1 L 101.5,235.3 L 101.0,235.2 L 99.9,236.2 L 98.1,236.3 L 97.4,236.9 L 96.6,238.5 L 96.0,238.9 L 94.9,237.2 L 92.3,237.0 L 91.1,237.6 L 90.0,237.5 L 88.8,236.4 L 86.6,235.0 L 84.6,233.2 L 83.6,231.7 L 82.1,227.2 L 81.9,224.7 L 81.9,223.5 L 82.3,223.3 L 83.7,223.9 L 84.6,223.6 L 85.5,222.4 L 86.4,221.2 L 86.9,220.8 L 87.4,220.9 L 87.8,221.0 L 88.6,221.0 L 89.3,220.9 L 91.6,221.0 L 92.7,220.4 L 94.2,220.4 L 95.1,220.8 L 96.1,221.8 L 96.2,222.0 L 97.3,221.8 L 98.0,221.1 L 98.6,221.1 L 99.7,221.8 L 100.6,222.2 L 101.7,222.2 L 103.0,222.4 L 104.3,222.3 L 106.1,221.5 L 108.8,218.7 L 108.7,218.1 L 108.2,217.6 L 108.3,216.7 L 108.2,215.9 L 107.6,215.7 L 106.2,215.6 L 104.0,214.5 L 103.3,213.6 L 102.7,212.6 L 96.1,206.4 L 93.9,204.8 L 93.4,204.5 L 93.3,204.2 L 93.0,203.9 L 92.3,204.6 L 91.5,206.7 L 90.7,207.4 L 88.9,208.0 L 87.8,208.1" fill="none" stroke="black" stroke-width="2"/>
</svg>