<?xml version="1.0" encoding="UTF-8"?>
<svg width="400" height="400" viewBox="0 0 400 400" xmlns="http://www.w3.org/2000/svg">
  <rect width="400" height="400" fill="white"/>
  <path d="M 186.3,213.0 L 187.4,212.6 L 188.1,212.3 L 188.8,211.4 L 189.8,211.2 L 190.7,210.4 L 190.8,209.6 L 191.5,208.6 L 192.1,207.8 L 193.0,206.9 L 194.1,206.9 L 194.5,207.0 L 194.8,207.2 L 195.4,206.8 L 196.2,207.0 L 197.1,207.6 L 197.4,207.8 L 197.8,208.5 L 197.5,209.7 L 197.5,211.6 L 198.1,211.5 L 198.4,211.7 L 199.8,211.3 L 200.0,211.7 L 200.2,212.0 L 201.0,211.9 L 202.5,210.9 L 203.8,209.8 L 204.0,209.2 L 204.8,208.4 L 206.1,207.5 L 206.3,207.2 L 206.4,206.5 L 206.8,205.8 L 206.8,205.3 L 206.4,204.7 L 205.6,204.4 L 204.8,204.3 L 204.7,204.0 L 204.8,203.2 L 204.7,202.6 L 205.8,201.4 L 205.3,200.5 L 205.4,200.0 L 206.0,199.4 L 206.8,198.9 L 207.0,198.6 L 207.6,197.2 L 208.2,196.4 L 209.4,195.9 L 210.4,194.5 L 212.0,193.5 L 213.0,192.7 L 214.2,192.7 L 214.0,192.1 L 214.2,191.7 L 213.9,191.0 L 214.1,190.6 L 213.8,190.3 L 213.0,190.1 L 211.7,190.1 L 211.7,189.5 L 212.1,189.1 L 212.9,188.6 L 213.7,188.0 L 213.8,187.7 L 213.8,186.8 L 213.5,186.5 L 212.3,186.6 L 211.4,186.8 L 210.8,186.6 L 210.3,185.7 L 210.4,185.2 L 210.5,184.7 L 210.0,184.0 L 209.6,183.9 L 206.8,183.9 L 206.0,183.5 L 205.9,183.3 L 205.4,183.0 L 205.2,183.5 L 204.9,184.0 L 204.5,184.4 L 204.1,184.4 L 203.6,184.1 L 203.4,183.5 L 202.7,182.6 L 202.4,182.3 L 202.5,181.4 L 202.3,181.2 L 201.2,181.0 L 200.7,180.5 L 200.5,179.9 L 200.6,178.7 L 200.9,178.4 L 201.5,178.1 L 201.5,175.7 L 201.0,174.4 L 201.1,173.6 L 201.0,172.9 L 200.5,172.4 L 200.2,171.4 L 199.8,170.6 L 198.8,169.5 L 198.3,168.5 L 198.6,166.9 L 199.2,166.2 L 199.9,166.0 L 200.3,166.0 L 200.7,166.1 L 200.9,165.7 L 198.7,164.4 L 198.4,163.8 L 197.9,163.5 L 197.4,163.3 L 197.1,163.6 L 196.7,164.6 L 196.5,164.9 L 195.3,165.2 L 194.0,164.9 L 192.7,164.8 L 192.6,163.6 L 191.8,162.0 L 191.4,161.7 L 191.1,161.1 L 189.3,160.1 L 187.5,160.0 L 188.8,108.3 L 189.0,108.3 L 189.6,107.9 L 190.1,107.9 L 190.5,107.3 L 190.9,106.5 L 191.1,106.3 L 191.5,106.4 L 192.1,105.9 L 192.3,105.4 L 193.9,104.4 L 195.3,103.2 L 196.0,103.1 L 196.2,102.9 L 197.2,101.4 L 197.4,101.1 L 197.8,101.4 L 198.2,102.2 L 198.6,102.1 L 198.8,101.6 L 198.8,100.6 L 199.1,99.6 L 199.4,98.6 L 198.7,96.7 L 198.3,96.3 L 198.0,96.7 L 197.5,97.4 L 196.8,97.5 L 196.2,97.4 L 196.1,97.2 L 195.8,94.9 L 195.4,93.3 L 195.4,92.8 L 195.7,92.5 L 196.1,92.5 L 196.4,92.6 L 197.2,94.0 L 197.6,93.7 L 197.9,93.2 L 198.7,92.4 L 198.7,89.4 L 283.9,45.0 L 284.2,45.3 L 285.6,45.4 L 286.0,45.6 L 287.3,46.7 L 288.5,47.5 L 289.8,48.0 L 291.0,47.9 L 291.7,47.4 L 291.9,46.8 L 299.3,59.3 L 299.4,59.4 L 299.1,59.6 L 298.3,61.0 L 297.7,61.1 L 295.9,60.8 L 294.8,60.7 L 294.7,60.8 L 294.9,61.3 L 294.9,62.1 L 295.1,62.8 L 296.0,63.6 L 296.6,64.7 L 297.3,65.3 L 297.5,65.5 L 296.9,67.3 L 296.8,67.5 L 296.7,67.5 L 295.7,66.6 L 295.0,65.7 L 294.5,65.7 L 293.9,65.3 L 292.8,65.3 L 292.6,65.5 L 292.6,65.9 L 292.4,66.5 L 291.7,67.6 L 291.4,67.8 L 291.2,67.6 L 291.0,67.2 L 290.8,67.1 L 290.1,67.3 L 288.9,68.5 L 288.2,68.6 L 288.0,68.8 L 289.3,69.4 L 290.3,69.5 L 289.6,73.1 L 288.4,73.0 L 288.0,73.2 L 287.8,73.7 L 287.6,73.9 L 287.0,74.0 L 286.3,73.4 L 286.1,73.1 L 285.4,73.0 L 284.3,72.0 L 281.9,70.9 L 281.6,71.0 L 281.9,71.3 L 281.9,71.7 L 280.7,71.7 L 280.3,72.0 L 280.4,72.2 L 281.0,72.4 L 281.3,72.6 L 281.3,73.8 L 281.0,74.5 L 281.0,75.9 L 281.1,76.1 L 281.3,77.2 L 281.6,78.1 L 282.6,79.3 L 282.4,80.0 L 283.0,80.7 L 283.1,81.2 L 283.0,81.8 L 282.9,81.9 L 282.9,82.6 L 283.2,82.9 L 283.5,82.6 L 283.7,81.8 L 284.8,81.9 L 284.9,82.2 L 284.9,83.0 L 285.0,83.2 L 285.3,83.1 L 285.7,83.1 L 286.0,83.4 L 286.5,83.8 L 287.1,83.6 L 287.5,83.3 L 287.6,82.8 L 287.1,81.8 L 286.9,81.1 L 286.7,80.3 L 287.0,79.6 L 287.4,79.2 L 288.0,78.9 L 288.2,78.5 L 288.2,78.1 L 288.8,77.2 L 289.4,77.2 L 289.7,77.5 L 290.3,79.0 L 290.8,79.5 L 291.4,79.6 L 292.3,79.2 L 292.7,79.4 L 292.7,79.7 L 292.0,80.5 L 291.9,80.8 L 292.4,81.4 L 292.4,81.8 L 292.3,82.4 L 292.4,82.8 L 292.9,83.4 L 292.5,84.0 L 292.5,84.9 L 293.5,85.7 L 293.9,86.4 L 294.9,87.1 L 295.2,87.5 L 295.1,88.1 L 294.9,89.3 L 295.5,89.4 L 296.1,88.7 L 296.3,88.7 L 296.0,89.5 L 296.1,89.7 L 296.7,89.4 L 297.2,88.9 L 297.9,93.5 L 298.0,94.3 L 297.8,95.5 L 297.5,95.9 L 296.4,97.5 L 296.0,98.4 L 296.1,98.8 L 296.7,99.3 L 297.1,99.7 L 296.7,100.4 L 296.6,101.8 L 296.1,102.9 L 296.2,103.4 L 296.3,104.0 L 296.5,104.3 L 296.5,104.6 L 296.9,105.1 L 296.7,105.9 L 297.3,106.1 L 298.7,106.2 L 299.3,106.3 L 299.8,107.2 L 300.8,107.1 L 301.0,107.5 L 299.7,109.1 L 300.2,109.1 L 300.4,109.4 L 300.8,109.3 L 301.6,108.5 L 302.0,107.5 L 302.2,105.5 L 303.0,104.3 L 303.2,104.3 L 306.5,110.6 L 306.0,111.3 L 305.1,112.5 L 305.0,113.2 L 304.9,113.7 L 304.9,114.1 L 305.2,114.3 L 305.8,114.2 L 307.3,112.9 L 307.5,112.6 L 360.0,214.6 L 360.0,214.6 L 358.7,215.2 L 358.1,215.8 L 357.7,216.6 L 257.3,250.2 L 256.9,250.3 L 256.3,250.3 L 254.9,251.0 L 252.1,250.9 L 251.3,251.1 L 250.1,252.0 L 249.0,253.3 L 248.3,254.3 L 248.0,254.8 L 247.4,255.2 L 246.4,255.1 L 246.0,254.9 L 245.5,254.9 L 245.0,254.6 L 244.2,254.5 L 243.7,254.9 L 243.3,254.9 L 242.6,254.7 L 242.2,254.7 L 239.6,256.0 L 238.6,256.1 L 237.8,256.4 L 236.9,257.4 L 236.7,257.2 L 236.5,257.4 L 236.4,258.2 L 236.1,258.5 L 235.5,258.7 L 235.3,258.6 L 234.7,257.3 L 235.1,256.2 L 234.7,254.7 L 233.9,255.2 L 234.1,256.7 L 234.3,257.2 L 234.0,258.1 L 233.9,259.1 L 233.2,259.5 L 231.9,259.5 L 231.3,259.1 L 231.0,258.3 L 230.2,258.6 L 229.8,258.3 L 227.7,258.3 L 227.3,258.0 L 227.0,257.4 L 227.0,257.2 L 225.5,257.0 L 225.0,256.8 L 224.8,256.5 L 225.0,255.9 L 225.5,255.0 L 225.6,254.5 L 225.5,254.3 L 223.7,254.3 L 223.1,254.6 L 221.9,254.9 L 221.3,255.5 L 220.0,256.6 L 218.6,257.2 L 218.2,257.7 L 217.7,258.0 L 217.2,258.0 L 216.8,258.0 L 216.4,258.6 L 216.1,259.4 L 215.6,259.9 L 214.9,260.9 L 213.8,261.3 L 213.1,262.0 L 212.7,262.5 L 211.8,263.4 L 210.1,264.2 L 208.7,265.0 L 207.6,265.1 L 206.8,266.0 L 205.9,267.1 L 204.4,268.2 L 203.4,268.2 L 202.8,268.5 L 201.9,269.7 L 201.1,270.1 L 198.7,271.0 L 197.7,271.8 L 196.8,273.3 L 196.3,273.8 L 196.2,274.5 L 195.8,275.2 L 195.6,277.6 L 195.3,278.3 L 194.6,279.0 L 194.3,279.0 L 193.5,279.5 L 191.2,280.3 L 190.8,280.6 L 190.3,281.3 L 189.6,281.9 L 188.8,282.6 L 187.6,282.6 L 187.1,283.0 L 187.0,284.3 L 186.8,285.4 L 187.3,285.9 L 187.6,287.0 L 187.4,289.2 L 187.2,290.5 L 187.0,291.4 L 186.2,292.4 L 185.7,293.9 L 185.7,294.1 L 185.1,296.4 L 184.9,297.2 L 184.2,298.6 L 183.7,299.0 L 182.8,299.6 L 181.8,300.4 L 181.1,300.7 L 180.1,300.7 L 179.1,300.8 L 178.2,300.7 L 177.5,300.3 L 176.8,300.2 L 175.6,300.2 L 174.8,300.5 L 174.0,301.5 L 173.7,302.1 L 173.5,304.6 L 173.1,306.3 L 172.7,307.1 L 172.1,307.5 L 170.4,307.7 L 169.7,308.6 L 169.4,309.1 L 168.6,309.8 L 166.2,310.2 L 166.1,310.6 L 166.6,310.9 L 167.6,311.0 L 168.0,311.2 L 168.0,311.6 L 167.1,312.6 L 166.1,313.2 L 164.9,314.3 L 164.4,315.0 L 163.5,315.8 L 162.5,316.6 L 161.5,317.9 L 161.5,318.1 L 156.1,318.5 L 156.4,318.0 L 155.6,317.7 L 155.0,317.4 L 154.5,317.0 L 153.6,315.5 L 153.8,314.8 L 154.2,314.3 L 154.2,313.5 L 153.5,313.2 L 152.7,313.1 L 152.3,313.6 L 152.3,314.9 L 152.5,315.3 L 153.1,316.2 L 152.9,317.2 L 152.7,317.6 L 150.9,318.1 L 150.3,318.6 L 149.6,318.6 L 149.1,318.5 L 148.2,319.0 L 147.5,319.7 L 147.6,319.9 L 148.2,320.0 L 148.7,320.3 L 149.1,320.8 L 149.2,321.6 L 149.8,321.6 L 127.2,336.2 L 127.1,336.1 L 126.8,335.9 L 126.2,335.7 L 123.7,335.5 L 123.2,335.8 L 122.8,335.8 L 122.5,335.6 L 122.3,335.1 L 121.3,335.8 L 120.7,336.0 L 119.6,336.0 L 119.2,335.9 L 118.2,336.0 L 117.5,336.2 L 116.6,337.1 L 116.0,337.3 L 115.5,337.8 L 115.4,338.1 L 113.2,340.2 L 112.9,340.6 L 111.4,342.0 L 110.8,342.1 L 109.6,341.4 L 108.7,341.8 L 107.3,340.5 L 106.0,339.7 L 105.8,339.3 L 104.5,339.2 L 103.5,338.5 L 102.8,338.5 L 102.3,338.0 L 101.5,337.6 L 100.5,337.9 L 100.2,338.1 L 99.1,338.6 L 97.8,339.9 L 96.9,340.4 L 94.4,343.0 L 91.6,346.9 L 91.4,347.9 L 91.6,348.6 L 92.2,350.2 L 92.8,351.3 L 92.3,351.4 L 91.6,351.0 L 90.1,351.1 L 90.1,351.1 L 89.4,350.4 L 88.2,350.4 L 87.9,350.6 L 87.2,350.7 L 86.7,351.0 L 86.0,351.2 L 85.7,351.5 L 85.6,352.0 L 85.5,352.9 L 84.2,354.2 L 84.0,354.9 L 82.7,355.0 L 82.5,354.8 L 82.5,354.2 L 83.2,353.7 L 83.2,352.6 L 83.6,352.3 L 84.1,352.1 L 84.4,351.7 L 84.5,350.3 L 85.5,349.1 L 85.6,348.4 L 85.8,348.0 L 85.8,347.2 L 86.2,346.5 L 86.2,345.8 L 87.0,344.7 L 87.7,344.1 L 87.9,343.4 L 87.7,343.4 L 86.1,344.9 L 85.2,346.1 L 84.7,346.6 L 84.0,346.6 L 84.0,346.8 L 83.7,346.9 L 83.4,346.6 L 83.4,345.9 L 83.7,344.7 L 84.2,343.2 L 84.2,341.2 L 84.5,340.6 L 84.8,340.6 L 85.2,340.3 L 85.1,339.7 L 84.4,339.6 L 84.2,339.4 L 83.5,339.4 L 82.6,340.2 L 81.5,340.5 L 81.1,340.8 L 80.6,340.9 L 80.0,341.1 L 79.4,341.9 L 78.7,342.6 L 78.1,342.6 L 77.9,342.2 L 78.4,341.2 L 78.6,340.9 L 78.5,340.7 L 78.2,340.8 L 77.5,341.3 L 77.0,341.5 L 76.8,341.1 L 77.2,340.7 L 77.7,340.6 L 78.0,340.4 L 78.3,340.0 L 78.7,339.9 L 79.7,338.6 L 79.0,337.9 L 78.0,337.9 L 77.4,336.5 L 77.0,336.4 L 76.3,335.7 L 74.7,335.9 L 73.8,336.9 L 73.3,337.5 L 73.2,338.4 L 72.6,339.0 L 71.8,339.2 L 71.3,339.6 L 70.7,339.7 L 69.8,339.0 L 69.1,336.3 L 69.1,332.3 L 69.1,330.2 L 69.2,327.8 L 70.1,326.3 L 70.5,325.2 L 70.3,323.9 L 70.9,323.1 L 71.1,322.3 L 71.5,322.1 L 71.9,321.8 L 72.3,321.5 L 73.0,321.4 L 73.6,321.0 L 74.1,320.9 L 74.3,320.1 L 74.9,319.6 L 75.3,319.4 L 75.7,319.0 L 75.8,318.6 L 76.1,318.3 L 76.7,318.2 L 77.2,317.6 L 77.3,315.9 L 77.7,314.6 L 79.5,312.9 L 81.7,312.9 L 82.2,313.0 L 82.4,313.5 L 82.7,313.7 L 82.8,314.0 L 83.1,314.2 L 83.4,314.5 L 83.9,314.6 L 84.7,314.5 L 85.7,313.7 L 86.2,313.8 L 86.7,313.8 L 87.5,313.5 L 87.8,313.4 L 88.4,312.9 L 89.9,313.0 L 90.9,313.3 L 91.3,313.3 L 91.8,313.3 L 92.2,312.9 L 92.4,312.1 L 93.5,310.9 L 93.7,310.2 L 93.6,309.8 L 93.5,309.4 L 93.6,309.1 L 94.1,308.6 L 94.2,308.5 L 94.8,307.2 L 95.5,306.5 L 96.0,306.2 L 96.5,306.1 L 98.0,305.2 L 98.6,304.4 L 99.7,303.8 L 100.2,303.4 L 102.3,301.8 L 103.0,300.9 L 103.6,300.6 L 104.0,300.5 L 104.8,299.8 L 105.6,299.7 L 105.8,299.5 L 105.9,299.0 L 106.2,298.3 L 106.2,298.0 L 105.7,297.8 L 104.2,297.8 L 104.1,297.6 L 103.9,297.5 L 103.3,297.4 L 101.4,297.6 L 100.5,297.9 L 100.2,298.0 L 98.0,299.0 L 96.4,299.5 L 94.2,299.9 L 93.4,299.6 L 92.4,299.8 L 92.1,300.1 L 91.1,300.4 L 89.9,300.9 L 89.9,300.9 L 88.7,302.2 L 87.3,302.3 L 85.7,303.3 L 85.0,303.8 L 84.6,304.0 L 84.5,304.8 L 84.2,305.4 L 83.2,306.6 L 82.0,307.3 L 79.3,307.4 L 75.4,307.4 L 75.1,307.2 L 74.4,307.1 L 72.6,308.2 L 71.2,308.6 L 70.4,308.9 L 69.5,309.4 L 66.6,309.4 L 66.0,309.2 L 65.7,309.0 L 65.1,309.0 L 64.5,308.8 L 63.4,308.8 L 62.7,309.2 L 62.0,309.2 L 61.7,309.0 L 59.8,309.1 L 59.5,309.5 L 59.3,310.4 L 59.3,310.7 L 59.7,311.0 L 59.5,312.4 L 59.2,312.9 L 58.7,313.7 L 58.3,314.1 L 57.8,314.1 L 57.0,313.7 L 56.6,313.4 L 56.6,312.0 L 57.2,311.4 L 57.0,311.2 L 56.4,311.4 L 56.5,311.1 L 56.5,310.8 L 55.6,310.8 L 55.2,311.1 L 53.2,311.2 L 52.3,311.4 L 51.6,311.2 L 51.3,311.0 L 50.9,311.3 L 50.7,311.2 L 50.5,309.4 L 52.0,308.7 L 52.1,308.6 L 52.7,307.9 L 52.8,307.2 L 52.4,306.8 L 52.3,306.4 L 51.6,306.3 L 51.1,306.5 L 50.6,307.1 L 50.3,307.4 L 49.9,307.2 L 49.3,306.1 L 49.1,304.5 L 48.6,304.4 L 48.5,304.5 L 48.5,304.4 L 48.1,302.5 L 48.5,302.4 L 49.3,301.9 L 50.6,300.5 L 50.6,299.7 L 51.4,299.2 L 51.6,298.8 L 52.3,298.3 L 52.9,298.2 L 53.1,297.9 L 52.9,297.3 L 53.3,296.8 L 53.4,296.4 L 52.8,296.0 L 52.3,296.7 L 51.5,296.8 L 51.0,297.0 L 50.6,296.8 L 50.4,297.1 L 50.1,297.5 L 48.5,298.4 L 47.8,298.3 L 47.1,298.4 L 46.4,298.7 L 46.0,298.7 L 45.2,299.1 L 43.1,293.6 L 43.0,293.4 L 43.2,293.6 L 43.9,293.6 L 44.4,293.3 L 45.2,293.3 L 45.4,292.6 L 45.5,291.6 L 46.0,290.6 L 46.4,290.3 L 47.1,290.8 L 47.6,290.6 L 48.6,289.8 L 49.7,289.7 L 50.1,289.5 L 50.8,289.4 L 51.5,288.6 L 52.5,288.0 L 53.5,287.0 L 53.5,286.5 L 52.5,286.5 L 52.1,285.9 L 51.3,286.0 L 50.2,285.7 L 54.6,282.4 L 55.2,281.6 L 55.6,281.7 L 56.0,281.9 L 56.3,281.8 L 57.0,281.1 L 56.7,280.7 L 57.5,279.8 L 57.8,279.7 L 58.5,279.1 L 59.0,278.9 L 60.5,277.3 L 60.9,276.7 L 61.4,275.7 L 61.5,275.3 L 61.8,274.8 L 61.9,274.0 L 61.6,274.0 L 61.3,274.3 L 61.0,274.8 L 60.8,275.5 L 59.9,276.8 L 58.3,278.4 L 57.8,278.4 L 57.4,278.6 L 56.5,279.3 L 55.3,280.5 L 54.0,281.5 L 53.0,282.0 L 52.3,282.5 L 52.1,283.0 L 49.2,285.4 L 48.8,285.6 L 48.1,286.2 L 48.1,286.4 L 47.9,286.7 L 47.1,286.7 L 47.0,286.4 L 46.8,286.3 L 46.3,286.5 L 45.9,286.6 L 45.6,287.2 L 45.5,287.0 L 40.0,274.1 L 40.5,274.0 L 41.0,273.5 L 40.9,273.3 L 40.5,273.1 L 40.3,272.8 L 40.3,272.3 L 41.0,271.4 L 40.7,270.9 L 41.4,269.8 L 41.8,269.1 L 43.0,268.0 L 43.0,267.6 L 43.4,267.4 L 43.4,267.6 L 43.4,268.6 L 43.2,269.4 L 43.2,270.6 L 42.4,271.9 L 42.4,272.4 L 43.0,273.2 L 43.4,273.3 L 44.7,272.8 L 45.4,272.4 L 46.3,271.4 L 46.3,271.1 L 45.9,270.8 L 45.9,270.4 L 45.2,270.4 L 45.2,270.2 L 46.5,269.5 L 47.0,268.9 L 46.9,267.5 L 46.5,267.4 L 45.1,267.3 L 44.3,266.9 L 44.2,266.9 L 44.7,266.7 L 44.9,266.4 L 44.7,266.0 L 44.4,265.8 L 44.7,265.6 L 47.9,265.4 L 48.9,265.0 L 50.8,265.0 L 50.9,264.6 L 53.9,264.4 L 55.5,264.6 L 57.5,265.4 L 57.8,265.4 L 58.3,265.4 L 58.3,264.9 L 57.8,264.6 L 57.6,264.4 L 56.6,264.2 L 55.8,263.7 L 54.5,263.7 L 53.4,263.9 L 51.7,263.9 L 50.1,264.2 L 49.5,264.4 L 48.4,264.6 L 46.6,264.9 L 45.0,265.0 L 44.6,264.9 L 44.6,264.4 L 45.0,264.2 L 45.8,263.7 L 47.4,262.3 L 47.5,262.1 L 48.9,261.8 L 49.7,261.3 L 52.6,261.2 L 54.4,260.8 L 54.8,260.9 L 55.6,261.5 L 56.3,261.5 L 56.7,261.7 L 57.8,261.8 L 60.1,261.9 L 60.8,262.1 L 62.0,262.2 L 62.5,262.6 L 63.0,262.5 L 63.2,262.2 L 64.0,262.0 L 65.2,261.3 L 66.4,261.2 L 66.9,260.8 L 69.5,259.7 L 70.2,259.2 L 70.7,258.8 L 71.6,258.1 L 73.1,258.0 L 73.6,257.5 L 75.4,257.0 L 76.6,257.1 L 77.5,256.8 L 78.1,256.8 L 78.7,257.0 L 81.3,256.5 L 82.8,255.8 L 84.2,255.7 L 86.5,254.5 L 87.5,254.0 L 89.7,253.2 L 89.7,253.2 L 90.7,253.0 L 91.1,253.1 L 91.2,253.2 L 91.0,253.9 L 91.5,254.1 L 91.8,254.3 L 91.9,254.9 L 92.9,255.0 L 93.6,255.7 L 94.5,255.3 L 95.6,255.2 L 96.3,255.0 L 96.9,254.3 L 97.8,254.1 L 99.1,253.6 L 99.5,253.6 L 100.2,253.9 L 100.8,254.1 L 101.9,254.1 L 102.8,254.3 L 103.0,254.5 L 103.8,254.4 L 104.5,254.2 L 105.5,254.5 L 106.0,254.2 L 107.0,252.7 L 107.3,251.7 L 107.6,251.1 L 108.8,249.9 L 110.0,249.1 L 112.7,247.7 L 115.4,246.6 L 116.6,246.5 L 119.5,244.2 L 120.2,243.4 L 121.5,242.2 L 122.7,241.8 L 122.9,241.5 L 123.0,240.7 L 123.8,239.5 L 125.3,238.0 L 126.2,237.2 L 126.6,236.7 L 127.2,236.6 L 127.8,236.8 L 129.0,236.2 L 129.7,236.3 L 129.9,236.6 L 130.0,236.7 L 129.9,237.3 L 130.7,237.4 L 131.7,238.3 L 131.6,238.8 L 130.0,240.3 L 129.3,241.3 L 129.3,242.1 L 130.6,243.7 L 130.6,245.0 L 129.7,247.4 L 129.0,250.5 L 128.2,251.6 L 126.3,252.8 L 125.5,253.3 L 123.8,254.4 L 123.1,255.5 L 121.5,257.9 L 119.6,259.8 L 119.1,260.4 L 119.4,260.8 L 119.9,261.8 L 120.3,262.0 L 120.9,261.8 L 121.6,261.2 L 123.0,261.3 L 123.7,260.9 L 124.1,260.4 L 124.5,259.8 L 126.1,259.0 L 126.4,258.9 L 127.7,258.6 L 128.2,258.2 L 128.6,257.5 L 129.2,257.2 L 130.9,257.2 L 131.8,257.6 L 132.8,257.5 L 134.0,257.0 L 136.2,255.8 L 136.8,255.4 L 138.0,254.8 L 139.3,253.8 L 139.9,252.7 L 141.1,251.4 L 142.5,250.6 L 143.3,249.7 L 143.4,248.5 L 143.5,247.6 L 144.2,246.2 L 145.1,245.0 L 146.0,244.3 L 146.8,244.1 L 147.3,243.6 L 146.9,242.8 L 147.4,241.2 L 148.0,240.2 L 148.4,239.4 L 149.4,238.5 L 150.6,237.1 L 151.2,236.8 L 152.0,236.8 L 152.7,236.3 L 153.3,235.6 L 154.4,234.8 L 155.4,234.4 L 156.0,234.4 L 156.9,234.6 L 157.6,235.4 L 157.9,235.9 L 158.4,236.3 L 158.7,236.9 L 159.1,237.2 L 159.8,236.8 L 160.1,236.5 L 161.4,236.0 L 161.8,235.6 L 163.2,234.7 L 163.7,234.3 L 164.1,232.7 L 164.7,231.9 L 164.8,231.3 L 164.9,229.8 L 165.8,228.8 L 166.1,228.4 L 166.6,228.1 L 167.6,228.0 L 168.5,227.5 L 168.6,226.6 L 168.8,226.3 L 170.4,225.8 L 174.4,225.7 L 175.4,225.2 L 176.2,224.4 L 176.8,224.0 L 177.1,223.6 L 177.2,223.2 L 177.3,222.6 L 177.9,221.8 L 178.5,221.4 L 179.4,221.1 L 180.2,221.0 L 182.2,219.7 L 182.7,219.7 L 183.1,220.1 L 183.9,220.0 L 184.9,219.3 L 185.7,218.5 L 185.8,218.4 L 186.4,217.3 L 186.4,216.5 L 185.7,214.9 L 185.6,214.6 L 185.6,213.9 L 185.7,213.7 L 185.9,213.3 L 186.3,213.0" fill="none" stroke="black" stroke-width="2"/>
</svg>