<?xml version="1.0" encoding="UTF-8"?>
<svg width="400" height="400" viewBox="0 0 400 400" xmlns="http://www.w3.org/2000/svg">
  <rect width="400" height="400" fill="white"/>
  <path d="M 114.4,182.8 L 114.4,182.0 L 113.1,180.9 L 112.4,180.3 L 112.7,178.6 L 114.2,175.7 L 113.5,172.2 L 112.1,170.6 L 109.0,171.6 L 106.5,171.6 L 105.9,173.3 L 108.5,176.6 L 108.8,179.4 L 107.9,182.0 L 104.9,183.1 L 101.0,182.5 L 98.4,184.2 L 96.8,184.5 L 94.5,183.1 L 92.8,183.1 L 88.7,184.9 L 85.9,185.1 L 84.2,183.8 L 85.6,182.3 L 88.4,181.2 L 89.3,180.1 L 88.7,179.0 L 84.5,177.8 L 83.9,176.7 L 84.2,173.7 L 90.1,168.4 L 91.7,167.2 L 91.2,166.1 L 89.7,166.5 L 88.0,167.2 L 86.0,166.9 L 87.8,164.2 L 88.4,162.5 L 90.8,160.5 L 91.6,157.2 L 93.3,155.7 L 96.1,156.1 L 99.8,157.7 L 103.7,158.3 L 104.5,158.3 L 110.8,162.3 L 114.1,161.9 L 114.8,159.6 L 112.6,157.6 L 110.4,157.1 L 104.8,157.7 L 104.2,157.2 L 102.8,155.7 L 103.1,153.3 L 106.5,150.2 L 107.0,147.8 L 103.0,145.7 L 103.0,143.8 L 103.9,141.2 L 103.0,140.1 L 101.7,139.0 L 101.3,136.8 L 99.3,134.9 L 99.1,133.4 L 97.4,132.3 L 96.0,133.2 L 95.7,138.8 L 90.7,139.0 L 88.8,141.2 L 81.0,143.8 L 79.6,144.0 L 78.8,144.1 L 78.2,143.9 L 76.5,143.0 L 75.6,140.8 L 77.9,138.5 L 77.1,137.2 L 72.9,136.6 L 70.3,134.1 L 69.7,131.8 L 72.9,127.9 L 74.8,124.9 L 77.3,123.8 L 77.5,122.9 L 78.7,122.3 L 79.8,121.0 L 82.0,119.8 L 87.0,118.7 L 88.2,117.5 L 88.0,110.6 L 90.1,107.5 L 94.0,106.9 L 95.9,103.8 L 99.2,103.2 L 101.4,98.8 L 103.1,97.7 L 106.1,96.5 L 108.7,94.5 L 116.2,94.3 L 116.2,94.4 L 116.6,95.9 L 117.1,94.6 L 118.0,94.3 L 119.0,95.0 L 120.4,94.5 L 121.8,94.5 L 123.7,93.6 L 125.5,94.0 L 126.2,93.3 L 127.7,93.5 L 129.8,95.0 L 130.5,95.5 L 131.8,97.8 L 131.7,100.5 L 130.9,103.7 L 130.6,105.3 L 132.7,103.5 L 134.2,102.7 L 135.3,100.3 L 137.2,99.6 L 139.5,97.3 L 140.2,97.1 L 142.3,98.4 L 143.5,98.8 L 145.2,100.1 L 146.3,98.8 L 147.2,98.3 L 148.3,98.3 L 149.4,98.8 L 150.7,100.3 L 153.8,100.8 L 154.9,100.9 L 155.7,100.1 L 156.5,98.2 L 158.3,96.3 L 159.9,94.8 L 159.9,92.2 L 161.3,91.0 L 162.5,90.8 L 165.5,92.1 L 166.8,93.4 L 167.8,93.8 L 168.0,93.2 L 167.7,90.5 L 169.9,88.1 L 170.8,85.8 L 171.7,83.1 L 170.1,81.8 L 168.7,79.6 L 168.6,78.7 L 170.0,76.7 L 170.0,75.9 L 170.0,73.8 L 170.3,73.0 L 170.9,72.4 L 173.6,71.5 L 175.7,71.2 L 178.2,70.7 L 180.4,70.7 L 181.5,70.9 L 182.5,71.4 L 184.1,73.3 L 185.0,73.5 L 185.1,71.8 L 184.8,71.0 L 183.1,70.2 L 182.6,69.5 L 182.1,66.6 L 182.3,65.9 L 182.7,65.4 L 185.3,64.7 L 187.7,64.0 L 188.7,64.7 L 190.7,66.7 L 192.1,67.7 L 193.6,67.8 L 194.8,68.4 L 198.2,68.4 L 200.6,68.5 L 201.5,67.5 L 202.0,66.7 L 202.6,64.6 L 202.8,63.9 L 205.4,63.7 L 208.5,64.2 L 209.7,64.6 L 211.2,65.8 L 211.3,66.5 L 210.2,67.3 L 209.7,68.4 L 210.3,68.6 L 212.8,67.3 L 215.1,66.6 L 218.3,65.6 L 220.3,66.1 L 222.7,66.7 L 223.3,65.9 L 223.3,63.9 L 223.1,63.4 L 221.9,62.5 L 221.7,61.8 L 222.3,59.2 L 222.7,56.9 L 223.2,54.2 L 223.4,53.3 L 223.6,52.0 L 224.2,49.8 L 225.4,48.3 L 226.1,47.9 L 227.4,48.0 L 228.4,45.6 L 230.7,43.8 L 231.3,43.2 L 232.8,43.3 L 234.2,42.6 L 234.5,41.8 L 237.0,40.0 L 251.4,56.3 L 251.7,56.6 L 251.5,56.7 L 249.6,58.7 L 248.9,62.0 L 249.8,64.8 L 252.3,67.8 L 254.2,71.9 L 257.6,75.9 L 258.0,76.4 L 258.7,83.1 L 257.9,87.3 L 253.6,94.3 L 253.6,96.3 L 257.7,97.3 L 258.7,98.6 L 260.4,103.5 L 266.7,103.7 L 268.7,105.4 L 272.4,110.6 L 275.9,113.1 L 279.5,115.5 L 282.6,117.7 L 288.3,123.2 L 291.1,125.4 L 303.5,133.1 L 310.7,136.0 L 320.9,142.9 L 323.5,145.9 L 326.4,152.8 L 326.4,157.3 L 324.7,159.6 L 319.4,159.3 L 319.2,160.4 L 320.1,164.7 L 321.2,166.2 L 324.2,166.6 L 326.8,165.7 L 329.0,165.7 L 330.2,168.9 L 330.3,172.3 L 328.4,178.7 L 328.4,180.8 L 330.1,183.4 L 330.3,191.6 L 328.7,206.4 L 325.8,217.0 L 324.5,219.3 L 320.6,222.6 L 315.3,226.1 L 306.2,227.9 L 295.0,228.4 L 289.6,227.0 L 286.6,226.8 L 284.0,230.1 L 280.8,231.6 L 280.0,233.2 L 280.6,234.4 L 282.8,234.9 L 283.1,236.4 L 282.0,239.9 L 279.8,242.5 L 279.3,245.1 L 277.1,246.4 L 276.9,251.2 L 276.2,252.2 L 274.4,255.1 L 273.9,258.5 L 272.8,259.0 L 271.6,258.3 L 270.5,258.0 L 269.7,259.7 L 268.6,260.8 L 267.5,261.1 L 267.0,260.0 L 266.6,256.9 L 263.6,256.7 L 263.6,258.4 L 262.5,258.7 L 261.4,259.5 L 260.8,261.7 L 262.0,264.3 L 266.8,269.0 L 268.0,268.6 L 268.4,266.6 L 271.9,266.4 L 273.4,266.3 L 275.9,263.7 L 278.5,263.7 L 282.9,266.5 L 290.3,270.0 L 298.4,273.6 L 302.7,276.8 L 303.8,277.4 L 306.6,279.8 L 306.9,281.3 L 306.4,283.5 L 310.3,287.3 L 310.6,289.0 L 310.4,289.9 L 310.1,290.4 L 309.5,290.9 L 307.8,292.3 L 304.0,294.3 L 303.5,295.6 L 305.4,296.6 L 305.7,300.3 L 307.9,302.8 L 304.5,307.7 L 299.8,311.8 L 299.6,313.4 L 298.4,316.2 L 299.0,318.8 L 297.3,324.6 L 294.9,324.7 L 292.4,326.9 L 291.1,326.2 L 289.6,325.6 L 288.8,326.4 L 289.4,330.3 L 288.6,331.4 L 288.1,331.2 L 285.8,331.0 L 285.8,333.8 L 283.0,334.5 L 281.7,336.9 L 280.6,338.0 L 275.6,338.6 L 273.4,341.6 L 269.4,340.9 L 264.2,342.7 L 262.5,343.6 L 260.6,347.5 L 260.1,349.9 L 257.6,350.8 L 256.5,352.5 L 255.0,352.7 L 252.9,355.4 L 251.9,355.5 L 249.8,355.9 L 246.0,356.3 L 245.1,356.8 L 240.9,358.7 L 239.8,357.8 L 239.7,357.3 L 239.5,355.9 L 239.8,352.9 L 236.7,352.9 L 234.5,353.4 L 231.4,356.2 L 230.3,356.5 L 229.4,356.0 L 228.3,355.8 L 223.1,359.7 L 221.4,360.0 L 220.8,356.6 L 218.8,355.3 L 217.4,352.3 L 215.1,352.3 L 212.1,354.3 L 211.0,354.0 L 210.7,350.6 L 209.3,349.8 L 209.8,347.8 L 211.8,345.0 L 211.4,343.9 L 208.9,343.7 L 207.5,342.9 L 204.4,343.2 L 202.6,344.4 L 198.0,347.5 L 196.6,347.7 L 196.0,347.8 L 195.9,347.5 L 195.3,346.2 L 194.1,345.6 L 193.8,345.8 L 189.7,347.8 L 188.9,347.0 L 188.6,345.9 L 185.2,345.7 L 184.3,344.0 L 187.7,340.7 L 189.3,339.6 L 189.3,338.1 L 187.7,337.9 L 185.1,338.8 L 183.4,339.0 L 182.3,337.7 L 182.3,333.2 L 181.2,332.6 L 177.8,332.6 L 176.6,331.6 L 176.6,329.4 L 179.6,325.4 L 179.6,324.0 L 177.4,323.8 L 173.3,327.7 L 170.8,328.3 L 170.2,327.3 L 172.0,319.9 L 175.6,315.4 L 176.6,311.2 L 182.2,310.0 L 183.1,308.9 L 180.5,302.8 L 178.2,302.5 L 176.0,304.8 L 172.7,306.5 L 169.1,310.7 L 167.2,310.3 L 162.4,312.0 L 161.9,311.4 L 164.2,302.7 L 165.9,300.7 L 168.7,299.4 L 170.6,298.7 L 173.9,295.6 L 173.4,293.7 L 171.4,292.9 L 171.1,292.3 L 170.8,291.2 L 171.6,289.2 L 171.0,287.3 L 172.4,286.4 L 174.6,286.4 L 176.3,284.7 L 176.5,281.4 L 178.7,279.6 L 182.9,279.6 L 185.2,280.7 L 186.0,280.9 L 188.0,280.4 L 190.1,279.1 L 192.1,279.4 L 194.1,280.8 L 195.5,280.5 L 199.9,276.9 L 202.6,277.0 L 205.3,277.1 L 207.7,272.6 L 209.3,270.3 L 208.8,267.8 L 206.2,264.5 L 205.5,261.4 L 208.0,258.3 L 208.9,256.4 L 208.8,250.8 L 205.9,247.2 L 204.7,245.0 L 204.4,241.6 L 202.6,239.0 L 201.6,237.5 L 200.9,233.8 L 201.7,228.2 L 202.6,226.4 L 203.6,224.3 L 205.5,222.9 L 205.5,216.7 L 206.1,215.0 L 204.3,210.6 L 203.7,207.0 L 204.1,204.4 L 203.4,202.8 L 202.6,202.7 L 200.5,202.5 L 198.8,202.1 L 197.7,202.6 L 196.4,205.1 L 196.5,208.2 L 197.0,208.4 L 197.6,206.8 L 198.4,206.0 L 200.4,209.6 L 200.7,211.2 L 199.8,212.4 L 196.5,212.7 L 194.0,214.9 L 192.3,215.3 L 191.2,213.3 L 189.2,212.8 L 185.9,213.7 L 184.5,211.1 L 182.5,209.8 L 180.1,208.6 L 179.3,208.6 L 176.7,209.1 L 175.2,210.0 L 174.0,209.8 L 171.2,208.7 L 170.2,208.3 L 169.0,208.9 L 167.7,210.3 L 167.7,211.4 L 168.3,212.1 L 169.1,212.5 L 168.5,214.6 L 169.0,215.7 L 170.1,216.9 L 170.6,218.3 L 169.6,219.3 L 167.9,220.3 L 165.3,220.2 L 163.3,219.5 L 161.4,220.1 L 160.5,218.5 L 159.6,217.9 L 158.2,217.6 L 156.7,217.9 L 154.2,219.2 L 153.5,218.9 L 153.4,217.5 L 152.6,217.3 L 151.1,218.7 L 150.4,220.2 L 149.4,218.2 L 148.3,217.8 L 147.7,218.9 L 147.7,220.7 L 146.7,220.8 L 145.6,219.4 L 142.9,219.4 L 141.0,221.6 L 139.9,222.3 L 138.0,222.6 L 137.7,222.1 L 138.4,221.3 L 139.2,219.2 L 139.3,218.2 L 137.7,215.6 L 136.4,214.3 L 135.8,214.1 L 134.8,215.0 L 132.9,215.2 L 131.6,214.4 L 130.6,211.7 L 130.3,211.0 L 128.2,210.5 L 127.4,209.8 L 126.5,208.2 L 125.7,207.9 L 124.9,206.4 L 125.0,204.5 L 125.3,203.9 L 126.0,203.5 L 126.6,204.4 L 126.6,205.8 L 128.2,207.0 L 129.0,208.0 L 131.3,209.1 L 133.2,211.0 L 135.4,212.1 L 136.2,210.6 L 137.1,210.2 L 137.3,209.6 L 136.1,208.4 L 135.3,207.8 L 133.8,207.4 L 131.3,205.5 L 130.6,205.5 L 128.9,204.0 L 128.0,202.0 L 126.7,201.3 L 126.1,199.8 L 126.1,198.8 L 125.3,196.8 L 124.2,194.0 L 123.0,191.4 L 121.5,188.9 L 120.9,188.1 L 118.5,187.1 L 117.7,187.6 L 117.1,187.6 L 115.5,187.6 L 113.2,186.0 L 113.2,185.2 L 114.5,183.9 L 114.7,183.0 L 114.4,182.8" fill="none" stroke="black" stroke-width="2"/>
</svg>