<?xml version="1.0" encoding="UTF-8"?>
<svg width="400" height="400" viewBox="0 0 400 400" xmlns="http://www.w3.org/2000/svg">
  <rect width="400" height="400" fill="white"/>
  <path d="M 81.6,271.9 L 76.4,265.8 L 72.9,256.0 L 72.7,247.1 L 73.8,244.8 L 73.3,241.5 L 71.2,235.6 L 72.6,232.7 L 71.4,223.8 L 69.5,219.5 L 68.6,212.5 L 66.7,207.8 L 64.9,200.1 L 64.5,192.3 L 60.9,186.5 L 59.6,182.1 L 57.5,173.3 L 50.5,163.5 L 50.0,159.8 L 47.5,158.1 L 41.2,157.5 L 40.0,156.0 L 40.3,150.4 L 40.9,147.2 L 43.5,144.1 L 47.1,142.2 L 49.9,136.6 L 49.1,133.8 L 49.7,129.9 L 52.2,125.5 L 49.6,122.3 L 50.6,120.3 L 47.7,115.3 L 47.5,114.2 L 51.9,112.7 L 56.4,112.2 L 57.8,112.1 L 57.8,109.6 L 62.6,105.8 L 70.5,103.7 L 74.9,101.8 L 77.1,99.6 L 76.7,98.1 L 73.9,95.1 L 74.0,91.2 L 64.2,82.2 L 57.9,76.9 L 97.5,46.5 L 97.9,46.2 L 101.8,49.2 L 108.8,50.2 L 113.0,53.0 L 117.4,54.5 L 119.6,56.2 L 119.0,58.7 L 120.2,60.9 L 120.9,65.4 L 122.5,68.6 L 121.5,70.8 L 120.8,74.2 L 122.7,76.7 L 123.4,78.2 L 123.4,80.1 L 122.5,81.3 L 122.1,81.9 L 122.2,87.5 L 123.7,89.2 L 123.7,93.4 L 124.6,95.3 L 124.9,95.9 L 126.8,98.8 L 128.4,100.9 L 129.9,102.4 L 136.7,105.0 L 145.2,110.2 L 153.0,112.2 L 156.3,113.1 L 167.2,119.5 L 176.2,123.1 L 176.9,126.8 L 185.8,131.1 L 185.9,134.3 L 183.4,137.3 L 184.2,140.2 L 188.0,143.9 L 196.5,147.0 L 198.3,148.4 L 199.5,150.6 L 207.3,157.5 L 216.7,162.4 L 224.1,161.9 L 227.0,164.4 L 229.7,164.7 L 232.6,163.8 L 234.6,165.7 L 241.9,165.9 L 245.2,168.0 L 249.3,167.5 L 259.5,163.7 L 272.7,163.4 L 277.6,164.7 L 284.2,165.0 L 287.9,166.3 L 292.0,167.4 L 298.7,170.9 L 301.6,170.5 L 304.6,168.5 L 308.3,167.7 L 319.3,167.1 L 331.8,164.9 L 339.1,160.7 L 343.0,160.7 L 347.3,164.3 L 355.3,164.1 L 357.8,166.9 L 358.8,168.8 L 360.0,171.3 L 359.3,176.5 L 356.9,181.1 L 356.6,184.3 L 355.9,185.1 L 354.5,191.0 L 352.0,192.9 L 350.1,194.5 L 342.9,198.3 L 334.1,200.8 L 324.9,202.3 L 322.7,204.7 L 323.9,206.1 L 323.7,207.5 L 314.5,212.2 L 310.5,218.5 L 306.9,222.3 L 301.5,225.4 L 290.1,233.7 L 277.2,247.0 L 275.1,251.4 L 274.7,262.1 L 273.2,263.9 L 269.2,265.1 L 263.3,267.9 L 263.0,268.9 L 265.2,272.3 L 263.5,276.0 L 262.9,281.2 L 259.0,288.2 L 254.3,294.6 L 244.6,303.7 L 233.7,310.5 L 233.2,310.6 L 231.5,311.1 L 215.1,320.1 L 214.2,320.5 L 213.6,320.7 L 213.0,321.0 L 212.5,321.1 L 211.7,321.2 L 211.0,321.5 L 210.4,321.8 L 209.8,322.0 L 209.1,322.3 L 208.5,322.4 L 207.7,322.7 L 207.3,323.0 L 206.9,323.3 L 206.6,323.5 L 206.1,323.8 L 205.8,323.9 L 205.5,323.9 L 205.1,324.1 L 204.6,324.3 L 204.2,324.8 L 203.9,325.1 L 203.5,325.4 L 203.2,325.4 L 202.3,325.1 L 202.0,324.9 L 201.7,324.6 L 201.4,324.3 L 201.0,324.1 L 200.5,323.8 L 199.9,323.6 L 199.2,323.3 L 198.5,323.0 L 197.7,322.9 L 197.0,322.7 L 196.1,322.4 L 195.4,322.1 L 194.5,322.0 L 193.6,321.8 L 192.6,321.7 L 191.8,321.5 L 191.4,321.5 L 190.6,321.4 L 190.1,321.4 L 189.3,321.5 L 188.6,321.5 L 188.0,321.7 L 187.3,321.8 L 186.5,322.0 L 185.8,322.1 L 185.0,322.3 L 184.3,322.4 L 183.6,322.7 L 182.8,322.9 L 182.1,323.0 L 181.5,323.2 L 180.9,323.2 L 180.2,323.3 L 179.6,323.6 L 179.0,324.1 L 178.6,324.5 L 178.0,324.8 L 177.4,325.2 L 176.8,325.5 L 176.3,325.8 L 175.9,326.1 L 175.3,326.3 L 174.9,326.4 L 174.3,326.4 L 173.8,326.6 L 173.4,326.6 L 172.8,326.9 L 172.4,327.1 L 171.9,327.4 L 171.5,327.9 L 171.0,328.2 L 170.6,328.5 L 170.4,328.8 L 170.2,329.2 L 169.9,329.5 L 169.7,329.8 L 169.6,329.9 L 169.4,330.2 L 169.1,330.5 L 168.8,330.8 L 168.5,331.1 L 168.2,331.4 L 167.8,331.9 L 167.5,332.3 L 167.1,332.7 L 166.6,333.2 L 165.9,334.2 L 165.4,334.7 L 165.0,335.1 L 164.7,335.5 L 164.3,336.1 L 163.8,336.7 L 163.4,337.2 L 162.9,337.8 L 162.5,338.3 L 162.0,338.8 L 161.8,339.4 L 161.3,340.0 L 161.0,340.6 L 160.6,341.1 L 160.1,341.7 L 159.8,342.3 L 159.4,342.8 L 158.9,343.2 L 158.4,343.5 L 157.9,343.9 L 157.5,344.2 L 157.0,344.5 L 156.6,344.7 L 156.0,344.8 L 155.4,345.1 L 155.0,345.4 L 154.4,345.7 L 153.9,346.0 L 153.5,346.3 L 153.2,346.6 L 152.8,346.9 L 152.5,347.3 L 152.0,347.8 L 151.7,348.2 L 151.3,348.7 L 151.0,349.1 L 150.7,349.4 L 150.3,349.7 L 150.0,350.1 L 149.7,350.4 L 149.5,350.7 L 149.2,351.0 L 148.9,351.5 L 148.3,352.4 L 148.2,352.6 L 147.9,352.9 L 147.7,353.1 L 147.5,353.5 L 147.2,353.7 L 147.0,353.8 L 146.7,353.8 L 145.8,353.5 L 145.5,353.4 L 145.5,353.1 L 145.4,352.6 L 145.2,352.2 L 145.2,351.8 L 145.1,351.5 L 144.9,351.2 L 144.7,350.9 L 144.5,350.4 L 144.4,350.1 L 144.1,349.7 L 143.6,349.3 L 143.3,348.8 L 142.9,348.4 L 142.4,347.9 L 142.0,347.3 L 141.7,346.9 L 141.6,346.7 L 141.4,345.7 L 141.4,345.4 L 141.4,345.1 L 141.6,344.7 L 141.9,344.4 L 142.1,343.9 L 142.3,343.7 L 142.4,343.2 L 142.4,342.8 L 142.3,342.3 L 142.0,341.7 L 141.9,341.3 L 141.6,340.9 L 141.3,340.4 L 141.1,340.0 L 140.8,339.5 L 140.7,338.9 L 140.4,338.3 L 140.1,337.9 L 139.8,337.3 L 139.5,336.7 L 139.2,336.1 L 138.9,335.4 L 138.5,334.8 L 138.2,334.4 L 137.6,333.6 L 134.0,329.1 L 130.9,329.8 L 128.0,326.9 L 128.1,319.5 L 124.6,312.7 L 123.4,310.5 L 118.0,306.1 L 113.6,297.1 L 110.9,295.2 L 107.2,293.8 L 100.3,282.2 L 89.1,271.0 L 87.0,270.7 L 85.1,276.3 L 83.5,274.4 L 81.6,271.9" fill="none" stroke="black" stroke-width="2"/>
</svg>