<?xml version="1.0" encoding="UTF-8"?>
<svg width="400" height="400" viewBox="0 0 400 400" xmlns="http://www.w3.org/2000/svg">
  <rect width="400" height="400" fill="white"/>
  <path d="M 97.0,360.0 L 97.0,354.1 L 98.3,351.0 L 98.3,348.3 L 96.9,345.0 L 97.2,341.4 L 99.4,335.6 L 99.2,331.0 L 95.4,323.7 L 83.4,314.4 L 83.4,309.9 L 78.6,304.9 L 80.3,295.3 L 78.8,288.2 L 78.6,284.9 L 79.7,268.0 L 80.8,262.1 L 81.9,222.9 L 83.0,217.3 L 96.1,186.1 L 100.9,177.4 L 105.8,173.2 L 106.7,170.5 L 112.0,163.0 L 125.5,144.4 L 134.2,137.5 L 143.1,133.7 L 148.3,132.6 L 154.1,129.3 L 158.5,123.3 L 165.2,118.9 L 170.1,114.7 L 173.6,108.3 L 182.3,103.2 L 184.8,99.0 L 188.3,92.8 L 196.4,83.7 L 201.6,76.3 L 205.6,74.3 L 208.0,73.9 L 220.2,73.2 L 226.4,66.6 L 228.6,63.3 L 235.9,57.7 L 239.0,54.4 L 244.8,52.9 L 249.4,53.3 L 261.8,59.3 L 266.9,58.8 L 271.8,53.7 L 274.3,48.6 L 276.5,46.7 L 285.6,48.0 L 291.1,45.5 L 297.9,40.0 L 298.8,40.7 L 300.2,45.3 L 304.4,50.8 L 305.5,57.5 L 307.3,58.8 L 308.2,60.6 L 318.4,64.6 L 321.4,68.1 L 319.5,73.5 L 319.2,82.6 L 311.7,91.9 L 308.2,98.9 L 308.0,99.0 L 300.2,105.4 L 298.0,109.2 L 295.3,116.3 L 284.0,132.2 L 283.3,136.9 L 276.0,146.1 L 274.9,151.5 L 269.1,157.2 L 257.8,163.0 L 254.1,166.6 L 250.7,173.0 L 249.0,180.5 L 245.7,194.7 L 242.8,198.5 L 224.8,220.2 L 221.9,226.6 L 221.5,230.8 L 220.4,235.2 L 214.6,251.4 L 214.4,258.7 L 211.5,274.7 L 206.6,279.8 L 203.1,282.2 L 200.4,283.1 L 195.8,287.8 L 192.3,294.6 L 189.8,299.8 L 188.5,308.0 L 186.9,309.5 L 182.7,313.5 L 176.9,314.6 L 175.6,319.7 L 167.9,327.2 L 164.5,334.5 L 164.8,343.4 L 163.6,343.8 L 97.0,360.0" fill="none" stroke="black" stroke-width="2"/>
</svg>