<?xml version="1.0" encoding="UTF-8"?>
<svg width="400" height="400" viewBox="0 0 400 400" xmlns="http://www.w3.org/2000/svg">
  <rect width="400" height="400" fill="white"/>
  <path d="M 102.8,203.2 L 102.9,203.2 L 103.3,203.0 L 103.5,202.9 L 103.7,202.7 L 103.8,202.7 L 104.0,202.5 L 104.1,202.3 L 104.7,201.6 L 104.8,201.3 L 104.9,201.1 L 104.9,200.6 L 105.0,200.0 L 105.3,199.4 L 105.4,199.3 L 105.3,199.0 L 105.3,198.8 L 105.5,198.6 L 105.7,198.4 L 106.5,198.2 L 106.5,198.0 L 106.6,197.9 L 106.5,197.7 L 115.6,194.2 L 115.7,194.1 L 115.6,194.2 L 115.6,194.3 L 115.7,194.5 L 115.6,194.6 L 115.6,194.7 L 115.7,194.8 L 115.9,194.7 L 116.2,194.4 L 116.4,194.2 L 116.6,194.2 L 116.8,194.2 L 116.9,194.2 L 116.9,194.3 L 116.8,194.5 L 116.8,194.7 L 117.0,194.8 L 117.1,194.9 L 117.1,195.0 L 117.0,195.1 L 116.9,195.2 L 116.9,195.4 L 117.1,195.4 L 117.2,195.3 L 117.3,195.4 L 117.3,195.6 L 117.2,195.9 L 117.2,196.1 L 117.5,196.1 L 117.5,196.0 L 117.5,195.8 L 117.5,195.8 L 117.5,195.4 L 117.6,195.2 L 117.6,194.8 L 117.7,194.6 L 118.1,194.4 L 119.1,194.4 L 119.2,194.5 L 119.2,194.6 L 119.2,194.8 L 119.2,194.8 L 119.6,194.8 L 119.8,194.8 L 120.0,194.6 L 120.1,194.4 L 120.3,194.3 L 120.4,194.2 L 120.4,193.9 L 120.7,193.4 L 120.8,193.3 L 121.0,193.3 L 121.3,193.5 L 121.5,193.6 L 121.8,193.7 L 122.2,193.8 L 122.5,193.8 L 122.5,193.7 L 122.5,193.6 L 122.6,193.6 L 122.9,193.5 L 123.0,193.4 L 123.1,193.4 L 123.3,193.1 L 123.5,193.0 L 123.5,193.0 L 123.6,192.8 L 123.6,192.7 L 123.6,192.3 L 123.7,192.2 L 124.3,192.1 L 124.3,192.1 L 124.4,192.2 L 124.5,192.5 L 124.7,192.6 L 125.2,192.7 L 125.4,192.7 L 125.6,192.6 L 125.7,192.7 L 125.8,192.6 L 125.9,192.5 L 125.9,192.3 L 126.0,192.2 L 126.2,192.1 L 126.5,192.2 L 126.5,192.2 L 126.7,191.9 L 127.0,191.7 L 127.2,191.7 L 127.4,191.8 L 127.4,191.9 L 127.5,192.1 L 127.6,192.2 L 127.7,192.3 L 127.6,192.6 L 127.7,192.8 L 127.9,192.9 L 128.1,193.0 L 128.2,193.0 L 128.3,193.1 L 128.4,193.1 L 128.5,193.0 L 128.7,192.8 L 129.0,192.7 L 129.1,192.8 L 129.4,193.0 L 129.4,193.0 L 129.5,193.1 L 129.5,193.3 L 129.6,193.4 L 129.6,193.6 L 129.4,193.8 L 129.2,194.2 L 129.2,194.3 L 129.3,194.2 L 129.5,194.1 L 129.6,194.2 L 129.7,194.2 L 129.8,194.2 L 130.0,194.1 L 130.3,194.1 L 130.5,194.0 L 130.7,193.9 L 130.8,193.8 L 130.8,193.9 L 130.9,193.9 L 131.4,193.8 L 131.7,193.7 L 131.9,193.7 L 132.1,193.7 L 132.2,193.7 L 132.3,193.7 L 132.3,193.8 L 132.3,193.9 L 132.4,193.9 L 132.5,193.7 L 132.6,193.6 L 132.6,193.5 L 132.7,193.4 L 132.8,193.4 L 133.0,193.3 L 133.2,193.3 L 133.3,193.4 L 133.5,193.5 L 133.5,193.6 L 133.6,193.6 L 133.7,193.5 L 133.8,193.3 L 133.8,193.1 L 133.9,193.0 L 134.0,192.9 L 134.2,192.9 L 134.4,192.8 L 134.5,192.8 L 134.8,192.7 L 134.9,192.7 L 135.2,192.3 L 135.5,192.4 L 135.5,192.5 L 135.5,192.6 L 135.5,192.7 L 135.6,192.7 L 135.8,192.6 L 135.9,192.4 L 136.0,192.4 L 135.9,192.3 L 135.7,192.4 L 135.6,192.3 L 135.5,192.1 L 135.5,191.9 L 135.6,191.7 L 135.8,191.5 L 136.0,191.2 L 136.3,190.6 L 136.4,190.1 L 136.5,189.9 L 136.6,189.7 L 136.9,189.2 L 137.1,189.1 L 137.2,189.0 L 137.3,188.9 L 137.3,188.8 L 137.4,188.7 L 138.1,188.5 L 138.3,188.5 L 138.4,188.6 L 138.4,188.7 L 138.4,188.8 L 138.4,188.9 L 138.4,189.0 L 138.5,189.1 L 138.6,189.0 L 138.6,189.0 L 138.8,188.7 L 139.0,188.5 L 139.4,188.5 L 139.5,188.5 L 139.5,188.6 L 139.6,188.8 L 139.6,188.9 L 139.7,188.8 L 139.8,188.7 L 139.8,188.4 L 139.9,188.3 L 140.0,188.2 L 140.2,188.1 L 140.4,188.1 L 141.0,188.3 L 141.4,188.4 L 141.5,188.5 L 141.7,188.8 L 142.0,189.0 L 142.0,189.0 L 142.1,189.1 L 142.2,189.1 L 142.2,189.2 L 142.4,189.2 L 142.5,189.2 L 142.3,189.3 L 142.3,189.5 L 142.4,189.6 L 142.5,189.6 L 143.0,189.3 L 143.2,189.4 L 143.3,189.3 L 143.5,189.2 L 143.7,189.1 L 143.8,189.0 L 143.8,189.0 L 143.8,189.0 L 143.8,189.0 L 143.8,189.0 L 143.9,188.8 L 143.9,188.8 L 143.9,188.8 L 144.0,188.9 L 144.1,188.9 L 144.1,188.9 L 144.2,188.9 L 144.2,188.9 L 144.2,188.8 L 144.2,188.7 L 144.2,188.6 L 144.2,188.5 L 144.2,188.5 L 144.1,188.5 L 144.0,188.4 L 144.0,188.3 L 144.0,188.2 L 144.0,188.0 L 144.1,187.9 L 144.1,187.8 L 144.2,187.8 L 144.2,187.8 L 144.3,187.7 L 144.4,187.7 L 144.4,187.6 L 144.4,187.5 L 144.4,187.4 L 144.4,187.3 L 144.4,187.2 L 144.4,187.2 L 144.4,187.1 L 144.5,186.9 L 144.6,186.8 L 144.6,186.6 L 144.8,186.5 L 144.9,186.4 L 145.0,186.3 L 145.0,186.3 L 145.1,186.3 L 145.3,186.2 L 145.4,186.2 L 145.6,186.1 L 145.7,186.1 L 145.9,186.1 L 146.0,186.1 L 146.1,186.2 L 146.3,186.2 L 146.3,186.2 L 146.3,186.2 L 146.4,186.1 L 146.5,186.1 L 146.5,186.0 L 146.6,186.2 L 146.6,186.3 L 146.6,186.4 L 146.6,186.4 L 146.5,186.5 L 146.5,186.7 L 146.5,186.8 L 146.5,186.8 L 146.6,186.8 L 146.6,186.8 L 146.7,186.6 L 146.7,186.6 L 146.8,186.6 L 146.9,186.8 L 146.9,186.8 L 146.9,186.9 L 147.0,186.8 L 147.1,186.7 L 147.2,186.6 L 147.3,186.4 L 147.3,186.3 L 147.3,186.2 L 147.3,186.0 L 147.3,186.0 L 147.3,185.9 L 147.3,185.8 L 147.4,185.7 L 147.5,185.6 L 147.7,185.5 L 147.8,185.4 L 147.9,185.5 L 147.9,185.5 L 148.0,185.5 L 148.0,185.5 L 148.2,185.6 L 148.3,185.7 L 148.4,185.7 L 148.4,185.8 L 148.4,186.0 L 148.4,186.0 L 148.4,186.1 L 148.5,186.1 L 148.6,186.0 L 148.7,186.0 L 148.7,186.1 L 148.7,186.1 L 148.8,186.3 L 148.9,186.3 L 148.9,186.4 L 148.9,186.5 L 148.8,186.6 L 148.8,186.6 L 148.7,186.7 L 148.7,186.7 L 148.7,186.8 L 148.7,187.0 L 148.7,187.1 L 148.7,187.0 L 148.8,186.9 L 148.8,187.0 L 148.9,187.1 L 148.9,187.1 L 149.0,187.1 L 149.0,187.1 L 148.9,187.2 L 148.8,187.3 L 148.9,187.4 L 149.0,187.5 L 149.0,187.6 L 149.0,187.9 L 149.1,187.8 L 149.2,187.8 L 149.3,187.9 L 149.4,187.9 L 149.5,188.0 L 149.6,188.1 L 149.6,188.2 L 149.6,188.2 L 149.6,188.4 L 149.6,188.4 L 149.8,188.4 L 150.0,188.4 L 150.0,188.3 L 150.1,188.0 L 150.2,187.7 L 150.3,187.5 L 150.4,187.1 L 150.5,186.6 L 150.5,186.3 L 150.5,186.2 L 150.5,185.5 L 150.6,185.3 L 150.6,185.2 L 150.7,185.1 L 150.8,184.5 L 150.9,184.2 L 150.8,183.8 L 150.9,183.6 L 151.0,183.3 L 152.6,183.0 L 152.7,183.0 L 152.8,183.1 L 152.8,183.3 L 152.8,183.4 L 152.9,183.6 L 152.7,183.8 L 152.6,184.0 L 152.6,184.2 L 152.6,184.4 L 152.5,184.7 L 152.4,184.8 L 152.4,185.2 L 152.4,185.3 L 152.4,185.5 L 152.3,185.7 L 152.2,185.8 L 152.0,185.8 L 152.0,185.8 L 151.9,186.3 L 151.8,186.6 L 151.8,187.0 L 151.7,187.1 L 151.7,187.3 L 152.0,187.5 L 152.1,187.6 L 152.2,187.6 L 152.3,187.4 L 152.5,187.4 L 153.0,187.5 L 153.1,187.5 L 153.5,187.2 L 153.7,187.1 L 153.9,187.1 L 154.0,187.2 L 153.9,187.3 L 154.0,187.4 L 154.1,187.4 L 154.3,187.1 L 154.4,186.5 L 154.4,186.3 L 154.5,186.1 L 155.5,186.2 L 155.4,186.5 L 155.4,186.7 L 155.5,186.7 L 155.6,186.7 L 155.7,186.6 L 155.8,186.5 L 155.9,186.3 L 156.0,186.2 L 156.1,186.3 L 156.1,186.3 L 156.1,186.7 L 156.1,186.8 L 156.2,186.9 L 156.1,187.1 L 156.0,187.3 L 156.1,187.8 L 156.3,188.2 L 156.4,188.3 L 156.5,188.5 L 156.5,188.7 L 156.6,188.8 L 156.6,189.0 L 156.7,189.0 L 156.7,189.0 L 156.7,189.0 L 156.8,189.0 L 156.9,188.8 L 157.1,189.0 L 157.2,189.0 L 157.3,189.0 L 157.3,189.0 L 157.4,189.0 L 157.6,188.8 L 157.7,188.8 L 158.0,188.8 L 158.1,188.8 L 158.1,188.8 L 158.4,188.9 L 158.5,188.9 L 158.5,189.0 L 158.5,189.1 L 158.6,189.2 L 158.8,189.3 L 158.9,189.6 L 159.0,189.5 L 159.4,189.1 L 159.5,189.1 L 159.6,189.0 L 159.6,189.0 L 159.7,188.9 L 160.1,188.8 L 160.4,188.6 L 160.6,188.6 L 160.9,188.8 L 161.0,188.8 L 161.1,188.8 L 161.3,188.7 L 161.5,188.7 L 161.8,188.5 L 162.0,188.3 L 162.1,188.2 L 162.8,187.6 L 163.0,187.4 L 163.2,187.2 L 163.4,187.0 L 163.5,186.6 L 163.9,186.4 L 164.0,186.3 L 164.2,186.1 L 164.3,186.0 L 164.7,186.0 L 164.8,186.0 L 165.1,186.0 L 165.5,186.2 L 165.8,186.2 L 166.0,186.1 L 166.2,186.1 L 166.5,185.9 L 167.0,185.6 L 167.4,185.3 L 167.8,185.1 L 168.0,185.1 L 168.3,185.3 L 168.8,185.6 L 169.0,185.8 L 169.0,185.9 L 168.9,186.2 L 168.8,186.5 L 168.4,187.4 L 168.2,187.8 L 167.9,188.4 L 167.6,188.8 L 167.5,189.0 L 167.4,189.2 L 167.4,189.3 L 167.5,189.4 L 167.7,189.3 L 168.0,189.1 L 168.1,189.0 L 168.1,189.0 L 168.4,188.7 L 168.5,188.6 L 168.7,188.5 L 168.9,188.4 L 168.9,188.5 L 169.1,188.4 L 169.2,188.4 L 169.3,188.5 L 169.4,188.5 L 169.5,188.3 L 169.6,188.1 L 169.8,188.0 L 170.0,188.0 L 170.2,187.9 L 170.3,187.6 L 170.5,187.5 L 170.6,187.4 L 170.8,187.4 L 171.1,187.1 L 171.5,186.7 L 171.8,186.6 L 171.8,186.6 L 171.9,186.6 L 172.0,186.5 L 172.1,186.5 L 172.3,186.5 L 172.5,186.3 L 173.1,185.8 L 173.3,185.7 L 173.6,185.3 L 173.7,185.3 L 173.7,185.3 L 173.8,185.3 L 174.2,184.9 L 174.5,184.6 L 174.7,184.4 L 174.9,184.4 L 175.0,184.4 L 175.0,184.5 L 175.1,184.3 L 175.3,184.1 L 175.5,184.0 L 175.9,184.0 L 176.2,184.1 L 176.6,184.4 L 176.9,184.5 L 177.2,184.4 L 177.6,184.3 L 177.8,184.3 L 178.0,184.1 L 178.3,184.1 L 178.6,183.9 L 178.8,183.8 L 179.1,183.6 L 179.3,183.5 L 179.9,183.4 L 180.1,183.5 L 180.3,183.4 L 180.4,183.4 L 180.6,183.4 L 180.9,183.2 L 181.2,183.2 L 181.4,183.1 L 181.7,183.0 L 182.0,182.8 L 182.2,182.6 L 182.4,182.4 L 182.7,182.2 L 182.9,182.2 L 183.0,182.2 L 183.0,182.2 L 183.6,181.6 L 183.7,181.6 L 184.0,181.2 L 184.2,181.1 L 184.4,181.1 L 184.5,181.1 L 184.7,181.1 L 184.9,180.9 L 185.1,180.8 L 185.2,180.8 L 185.7,180.1 L 186.3,179.6 L 186.6,179.4 L 186.9,179.3 L 187.1,179.2 L 187.3,179.1 L 187.6,179.1 L 187.8,179.0 L 188.1,179.0 L 188.5,178.8 L 188.7,178.7 L 188.9,178.8 L 188.9,178.9 L 189.1,178.8 L 189.2,178.8 L 189.3,178.8 L 189.4,178.7 L 189.6,178.7 L 189.8,178.7 L 190.1,178.7 L 190.4,178.8 L 190.5,178.8 L 190.6,178.8 L 190.6,178.9 L 190.9,178.9 L 191.0,178.8 L 191.2,178.7 L 191.6,178.5 L 192.1,178.3 L 192.4,178.4 L 192.7,178.5 L 192.7,178.5 L 193.1,178.7 L 193.0,178.9 L 193.0,178.9 L 193.2,178.9 L 193.6,178.8 L 193.7,178.8 L 194.1,178.6 L 194.3,178.6 L 194.5,178.7 L 194.5,178.7 L 194.6,178.7 L 194.8,178.6 L 194.9,178.7 L 195.0,178.7 L 195.0,178.8 L 195.0,178.8 L 195.0,178.8 L 195.0,178.9 L 195.1,178.9 L 195.1,178.9 L 195.2,178.8 L 195.2,178.8 L 195.2,178.7 L 195.2,178.7 L 195.4,178.5 L 195.5,178.5 L 195.6,178.4 L 195.7,178.4 L 195.8,178.4 L 196.0,178.4 L 196.0,178.4 L 196.1,178.4 L 196.3,178.3 L 196.4,178.3 L 196.6,178.2 L 196.7,178.2 L 196.8,178.2 L 196.9,178.2 L 197.1,178.2 L 197.3,178.2 L 197.4,178.2 L 197.6,178.3 L 197.7,178.3 L 197.8,178.4 L 197.9,178.4 L 198.0,178.4 L 198.1,178.5 L 198.3,178.5 L 198.4,178.5 L 198.5,178.5 L 198.6,178.5 L 198.7,178.4 L 198.8,178.3 L 199.0,178.3 L 199.1,178.2 L 199.2,178.2 L 199.3,178.1 L 199.5,178.1 L 199.7,178.1 L 199.8,178.1 L 200.0,178.1 L 200.1,178.0 L 200.3,178.0 L 200.4,178.0 L 200.6,178.0 L 200.7,178.0 L 200.9,177.9 L 201.0,177.9 L 201.2,177.9 L 201.4,177.9 L 201.4,177.9 L 201.5,178.0 L 201.6,178.0 L 201.8,177.9 L 201.9,177.9 L 202.0,177.8 L 202.2,177.8 L 202.3,177.8 L 202.4,177.8 L 202.6,177.8 L 202.8,177.8 L 202.9,177.8 L 203.1,177.8 L 203.2,177.8 L 203.4,177.8 L 203.5,177.8 L 203.7,177.8 L 203.8,177.8 L 203.9,177.8 L 204.1,177.8 L 204.3,177.8 L 204.4,177.8 L 204.6,177.8 L 204.8,177.8 L 204.9,177.8 L 204.9,177.8 L 204.9,177.8 L 204.9,178.0 L 204.9,178.0 L 205.1,178.0 L 205.1,178.0 L 205.2,177.9 L 205.2,177.9 L 205.1,177.8 L 205.3,177.7 L 205.3,177.7 L 205.3,177.6 L 205.4,177.4 L 205.5,177.3 L 205.6,177.2 L 205.6,177.2 L 205.7,177.1 L 205.8,177.1 L 205.9,177.0 L 206.1,177.0 L 206.3,177.0 L 206.3,177.0 L 206.5,177.1 L 206.6,177.1 L 206.8,177.1 L 206.8,177.0 L 206.9,177.0 L 207.1,176.9 L 207.2,176.9 L 207.3,176.9 L 207.4,177.0 L 207.5,177.0 L 207.6,177.0 L 207.6,177.0 L 207.6,177.1 L 207.7,177.1 L 207.8,177.0 L 208.0,176.9 L 208.0,176.9 L 208.1,176.8 L 208.1,176.9 L 208.2,177.0 L 208.2,177.0 L 208.3,176.9 L 208.4,176.9 L 208.4,176.8 L 208.3,176.8 L 208.4,176.7 L 208.5,176.7 L 208.5,176.7 L 208.5,176.5 L 208.6,176.3 L 208.6,176.2 L 208.7,176.1 L 208.9,175.9 L 208.9,175.8 L 209.0,175.7 L 209.0,175.7 L 209.1,175.6 L 209.2,175.5 L 209.4,175.4 L 209.5,175.4 L 209.6,175.3 L 209.8,175.2 L 209.9,175.1 L 210.0,175.0 L 210.1,174.9 L 210.1,174.9 L 210.1,174.8 L 210.1,174.7 L 210.1,174.6 L 210.0,174.6 L 210.0,174.6 L 210.0,174.6 L 210.0,174.6 L 210.0,174.5 L 210.0,174.3 L 210.1,174.2 L 210.2,174.1 L 210.3,174.0 L 210.5,173.9 L 210.6,173.8 L 210.7,173.8 L 210.8,173.8 L 210.9,173.8 L 210.9,173.9 L 211.0,173.9 L 211.1,173.8 L 211.2,173.8 L 211.3,173.7 L 211.3,173.6 L 211.2,173.6 L 211.2,173.6 L 211.2,173.6 L 211.4,173.5 L 211.4,173.4 L 211.3,173.4 L 211.3,173.5 L 211.1,173.5 L 211.0,173.5 L 211.0,173.4 L 211.0,173.2 L 211.0,173.0 L 211.0,172.9 L 211.1,172.8 L 211.1,172.6 L 211.2,172.5 L 211.2,172.5 L 211.4,172.4 L 211.6,172.4 L 211.6,172.4 L 211.6,172.4 L 211.5,172.3 L 211.3,172.3 L 211.2,172.2 L 211.2,172.2 L 211.2,172.2 L 211.2,172.0 L 211.2,171.8 L 211.2,171.7 L 211.3,171.7 L 211.3,171.6 L 211.5,171.4 L 211.6,171.3 L 211.6,171.1 L 211.7,171.0 L 211.7,170.9 L 211.7,170.9 L 211.6,170.7 L 211.6,170.7 L 211.6,170.6 L 211.6,170.5 L 211.6,170.3 L 211.6,170.2 L 211.6,170.1 L 211.7,169.9 L 211.7,169.9 L 211.8,169.8 L 211.9,169.7 L 212.0,169.7 L 212.1,169.6 L 212.2,169.6 L 212.3,169.5 L 212.3,169.4 L 212.5,169.4 L 212.6,169.3 L 212.7,169.2 L 212.8,169.1 L 212.9,169.1 L 213.1,169.0 L 213.2,168.9 L 213.4,168.8 L 213.5,168.8 L 213.5,168.7 L 213.7,168.6 L 213.7,168.6 L 213.8,168.5 L 213.9,168.4 L 214.0,168.3 L 214.2,168.3 L 214.3,168.2 L 214.4,168.2 L 214.6,168.2 L 214.7,168.1 L 214.8,168.1 L 214.9,168.1 L 215.0,168.0 L 215.2,168.0 L 215.3,167.9 L 215.5,167.8 L 215.6,167.8 L 215.8,167.7 L 215.8,167.7 L 215.8,167.8 L 215.8,167.9 L 215.9,167.9 L 215.9,167.9 L 216.0,167.8 L 216.0,167.7 L 216.0,167.6 L 216.0,167.6 L 216.0,167.5 L 216.1,167.3 L 216.3,167.2 L 216.4,167.1 L 216.5,167.0 L 216.6,166.9 L 216.6,166.9 L 216.7,166.7 L 216.7,166.6 L 216.9,166.5 L 217.0,166.4 L 217.1,166.3 L 217.2,166.2 L 218.1,166.9 L 218.1,167.0 L 217.9,167.2 L 217.4,167.8 L 217.1,168.3 L 216.9,168.6 L 216.8,168.8 L 216.6,169.2 L 216.6,169.5 L 216.5,169.8 L 216.3,170.4 L 216.3,170.4 L 216.2,170.7 L 216.0,171.4 L 216.0,171.6 L 216.0,171.6 L 215.9,171.8 L 216.0,171.9 L 216.2,172.0 L 216.5,172.2 L 217.0,172.2 L 217.2,172.3 L 217.3,172.3 L 217.6,172.1 L 217.7,172.1 L 217.8,172.2 L 217.9,172.2 L 218.1,172.0 L 218.3,171.9 L 218.4,171.8 L 218.8,171.8 L 218.9,171.7 L 219.1,171.5 L 219.4,171.4 L 219.7,171.2 L 219.7,171.2 L 220.0,171.2 L 220.2,171.1 L 220.2,171.1 L 220.6,170.9 L 221.0,170.8 L 221.6,170.7 L 221.6,170.7 L 221.8,170.6 L 222.3,170.3 L 222.3,170.3 L 222.4,170.3 L 222.6,170.3 L 222.8,170.4 L 223.2,170.7 L 223.2,170.7 L 223.3,170.8 L 223.4,170.9 L 223.5,170.9 L 223.9,170.7 L 224.0,170.6 L 224.1,170.6 L 224.2,170.5 L 224.4,170.4 L 224.6,170.3 L 224.8,170.3 L 224.8,170.3 L 225.0,170.1 L 225.1,169.8 L 225.2,169.7 L 225.2,169.5 L 225.3,169.4 L 225.4,169.3 L 225.8,169.0 L 225.9,169.0 L 226.0,169.0 L 227.0,168.8 L 227.3,168.9 L 227.8,169.0 L 228.4,169.0 L 228.5,168.9 L 228.7,169.0 L 228.8,169.0 L 228.9,168.9 L 244.5,183.9 L 244.5,183.9 L 244.3,184.4 L 244.2,184.6 L 244.1,184.8 L 243.9,185.1 L 243.8,185.2 L 243.8,185.3 L 243.8,185.4 L 243.8,185.6 L 243.8,185.6 L 243.9,185.6 L 243.9,185.5 L 244.1,185.5 L 244.1,185.5 L 244.3,185.4 L 244.3,185.4 L 244.4,185.3 L 244.6,185.2 L 244.7,185.2 L 244.8,185.3 L 244.9,185.4 L 244.9,185.4 L 244.8,185.5 L 244.8,185.5 L 244.8,185.6 L 244.9,185.6 L 245.0,185.6 L 245.1,185.7 L 245.2,185.7 L 245.3,185.7 L 245.3,185.7 L 245.4,185.9 L 245.4,186.0 L 245.6,186.2 L 245.7,186.5 L 245.7,186.7 L 245.9,186.9 L 245.9,187.0 L 245.9,187.1 L 246.0,187.1 L 246.3,187.2 L 246.4,187.4 L 246.5,187.5 L 246.6,187.6 L 246.9,187.7 L 247.1,187.8 L 247.3,187.8 L 247.4,187.8 L 247.7,187.9 L 247.7,188.0 L 247.9,188.0 L 248.1,188.0 L 248.2,188.0 L 248.3,188.0 L 248.4,188.0 L 248.5,188.0 L 248.6,188.1 L 248.8,188.2 L 249.1,188.3 L 249.5,188.3 L 249.8,188.3 L 251.1,188.6 L 251.7,188.6 L 252.4,188.7 L 252.4,188.7 L 252.6,188.7 L 252.8,188.8 L 252.8,188.8 L 252.9,188.7 L 253.0,188.6 L 253.2,188.6 L 253.4,188.4 L 253.6,188.4 L 254.4,188.3 L 255.0,188.3 L 255.0,188.3 L 255.2,188.3 L 255.3,188.3 L 255.4,188.3 L 255.6,188.3 L 255.7,188.2 L 255.9,188.2 L 256.0,188.2 L 256.1,188.2 L 256.3,188.1 L 256.4,188.1 L 256.5,188.1 L 256.6,188.1 L 256.7,188.0 L 256.9,188.0 L 257.1,188.0 L 257.2,188.0 L 257.4,187.9 L 257.5,187.8 L 257.6,187.8 L 257.8,187.8 L 257.9,187.8 L 258.0,187.8 L 258.0,187.7 L 258.0,187.7 L 258.0,187.7 L 258.1,187.6 L 258.2,187.6 L 258.2,187.6 L 258.5,187.5 L 259.0,187.5 L 259.5,187.4 L 259.6,187.3 L 259.7,187.2 L 260.1,187.1 L 260.4,186.9 L 260.7,186.9 L 260.9,186.8 L 261.2,186.7 L 261.3,186.8 L 261.5,186.8 L 261.5,186.8 L 261.6,186.8 L 261.6,186.9 L 261.8,187.0 L 262.0,187.0 L 262.1,187.1 L 262.2,187.1 L 262.6,187.0 L 263.3,186.8 L 264.0,186.5 L 264.4,186.4 L 264.6,186.4 L 264.8,186.3 L 266.4,185.9 L 267.0,185.7 L 267.2,185.6 L 267.3,185.6 L 267.5,185.6 L 268.1,185.3 L 268.5,185.2 L 268.7,185.1 L 268.8,185.1 L 268.9,185.1 L 269.0,185.0 L 269.2,185.0 L 269.5,184.8 L 269.8,184.8 L 270.3,184.7 L 271.3,184.4 L 271.6,184.3 L 271.9,184.1 L 272.9,184.0 L 273.2,183.9 L 273.6,183.7 L 273.8,183.6 L 274.4,183.6 L 274.8,183.4 L 275.0,183.3 L 275.4,183.2 L 276.0,183.1 L 276.3,183.0 L 276.5,183.0 L 276.7,182.9 L 277.0,182.9 L 277.2,182.9 L 277.3,183.0 L 277.5,183.0 L 277.7,182.9 L 277.9,182.9 L 278.1,182.8 L 278.3,182.8 L 279.4,182.8 L 279.6,182.7 L 280.0,182.8 L 280.1,182.7 L 280.3,182.6 L 280.5,182.7 L 280.6,182.7 L 281.1,182.6 L 281.6,182.5 L 282.2,182.3 L 282.7,182.1 L 283.6,182.1 L 283.9,182.0 L 283.9,182.0 L 284.2,181.9 L 285.1,181.7 L 285.7,181.5 L 286.2,181.5 L 286.4,181.5 L 286.5,181.4 L 286.8,181.3 L 287.1,181.2 L 287.2,181.2 L 287.9,181.1 L 288.4,181.1 L 288.5,181.0 L 288.9,181.0 L 289.1,181.0 L 289.4,180.9 L 290.4,180.7 L 290.9,180.6 L 291.2,180.5 L 291.5,180.5 L 291.8,180.5 L 292.1,180.5 L 292.4,180.5 L 292.5,180.5 L 292.8,180.6 L 292.8,180.7 L 292.9,180.8 L 293.1,180.8 L 293.1,180.8 L 293.4,180.8 L 293.7,180.7 L 293.9,180.6 L 294.0,180.5 L 294.0,180.4 L 294.2,180.4 L 295.2,179.7 L 295.4,179.6 L 295.7,179.5 L 295.9,179.5 L 296.0,179.5 L 296.2,179.2 L 296.7,179.0 L 296.9,179.1 L 297.2,178.9 L 297.3,178.9 L 297.5,179.0 L 297.7,179.0 L 298.1,178.9 L 298.4,178.7 L 299.1,178.4 L 299.4,178.4 L 299.7,178.4 L 300.4,178.2 L 300.9,178.0 L 301.3,178.0 L 301.3,178.0 L 301.6,178.0 L 301.9,178.0 L 301.9,178.0 L 302.1,178.0 L 302.2,178.0 L 302.4,177.9 L 302.9,177.7 L 303.1,177.6 L 303.2,177.4 L 303.3,177.3 L 303.5,177.1 L 303.6,177.1 L 303.7,177.1 L 303.7,177.2 L 303.7,177.1 L 303.6,177.0 L 303.7,176.9 L 304.0,176.7 L 304.1,176.6 L 304.4,176.3 L 305.4,175.8 L 305.6,175.6 L 305.9,175.4 L 306.2,175.3 L 306.4,175.1 L 306.6,174.9 L 306.9,174.8 L 307.3,174.6 L 307.8,174.3 L 308.8,173.7 L 309.2,173.6 L 309.6,173.3 L 309.9,173.0 L 310.0,172.9 L 310.0,172.8 L 310.9,172.3 L 311.5,171.8 L 312.3,171.1 L 312.7,170.7 L 312.9,170.5 L 313.1,170.3 L 313.3,170.1 L 313.6,169.8 L 313.9,169.3 L 314.1,169.0 L 314.5,168.3 L 314.7,168.0 L 314.7,168.0 L 315.2,167.5 L 315.4,167.4 L 316.0,166.6 L 316.3,166.2 L 316.6,165.8 L 317.0,165.4 L 317.1,165.2 L 317.3,165.1 L 317.6,164.7 L 317.7,164.5 L 318.0,164.3 L 318.4,163.8 L 318.4,163.8 L 318.6,163.6 L 318.7,163.5 L 319.2,162.9 L 320.0,162.0 L 320.0,161.9 L 320.4,161.6 L 320.6,161.4 L 320.7,161.4 L 320.9,161.2 L 321.2,160.9 L 321.4,160.8 L 321.4,160.7 L 322.0,160.1 L 322.1,160.1 L 322.4,159.8 L 323.2,159.2 L 323.9,158.6 L 324.3,158.3 L 324.9,157.8 L 325.3,157.3 L 325.6,157.0 L 325.7,156.8 L 325.9,156.4 L 326.1,156.2 L 326.3,156.0 L 326.5,155.9 L 326.8,155.6 L 327.4,155.2 L 327.7,154.8 L 327.9,154.7 L 328.0,154.6 L 328.5,154.2 L 328.8,153.8 L 329.0,153.6 L 329.1,153.4 L 329.1,153.4 L 357.5,173.2 L 357.5,173.2 L 357.5,173.2 L 358.0,173.5 L 358.0,173.6 L 358.1,173.7 L 358.1,173.9 L 358.2,174.0 L 358.7,174.1 L 358.9,174.0 L 358.9,174.0 L 358.9,174.2 L 359.0,174.4 L 359.1,174.4 L 359.2,174.4 L 359.1,174.5 L 359.2,174.6 L 359.3,174.6 L 359.3,174.7 L 359.3,174.9 L 359.4,175.0 L 359.4,174.9 L 360.0,182.3 L 360.0,182.4 L 359.7,182.6 L 359.4,182.9 L 359.2,183.0 L 358.7,183.4 L 358.4,183.5 L 358.3,183.6 L 357.9,183.6 L 357.8,183.6 L 357.6,183.5 L 357.5,183.5 L 357.3,183.5 L 357.0,183.4 L 356.8,183.5 L 356.7,183.5 L 356.5,183.4 L 355.7,183.5 L 355.3,183.5 L 355.3,183.5 L 354.8,184.0 L 354.8,184.2 L 354.7,184.4 L 354.6,184.5 L 354.7,184.7 L 354.8,185.0 L 354.8,185.1 L 354.6,185.4 L 354.4,185.6 L 354.3,185.7 L 354.2,185.8 L 353.9,185.9 L 353.8,185.8 L 353.6,185.9 L 352.9,186.3 L 352.8,186.4 L 352.7,186.6 L 352.5,186.8 L 352.5,187.0 L 352.3,186.9 L 351.8,186.8 L 351.4,186.5 L 351.3,186.4 L 351.2,186.4 L 351.1,186.3 L 351.0,186.3 L 350.6,186.5 L 350.3,186.5 L 350.0,186.8 L 349.7,187.0 L 349.6,186.9 L 349.5,186.8 L 349.3,186.8 L 349.0,187.2 L 348.9,187.2 L 348.4,187.3 L 348.2,187.3 L 348.1,187.4 L 348.0,187.5 L 347.8,187.8 L 347.7,187.9 L 347.7,187.9 L 347.3,188.1 L 347.2,188.2 L 347.0,188.2 L 346.8,188.2 L 346.7,188.1 L 346.6,188.0 L 346.5,187.9 L 346.3,187.7 L 346.1,187.6 L 346.0,187.5 L 345.9,187.4 L 345.6,187.1 L 345.6,187.1 L 345.3,186.9 L 345.3,186.9 L 345.1,186.9 L 344.8,186.9 L 344.7,187.0 L 344.4,187.0 L 344.3,187.1 L 344.2,187.1 L 344.0,187.1 L 343.8,187.1 L 343.4,187.2 L 343.3,187.4 L 343.1,187.4 L 342.9,187.2 L 342.7,187.2 L 342.5,187.5 L 342.4,187.7 L 342.2,187.9 L 342.0,188.1 L 341.9,188.1 L 341.6,188.0 L 341.3,188.1 L 340.9,188.3 L 340.6,188.4 L 340.2,188.6 L 339.9,188.9 L 339.8,189.0 L 339.5,189.3 L 339.3,189.5 L 339.3,189.6 L 339.1,189.9 L 339.1,190.3 L 339.0,190.3 L 338.7,190.5 L 338.3,191.0 L 338.1,191.0 L 338.1,191.1 L 338.0,191.3 L 337.9,191.4 L 337.9,191.4 L 337.9,191.5 L 337.9,191.7 L 337.9,191.9 L 337.8,192.0 L 337.8,192.1 L 337.8,192.3 L 337.8,192.4 L 337.8,192.4 L 337.8,192.6 L 337.7,192.7 L 337.7,192.8 L 337.6,192.9 L 337.6,193.1 L 337.6,193.2 L 337.5,193.3 L 337.5,193.5 L 337.4,193.6 L 337.4,193.7 L 337.4,193.9 L 337.3,194.0 L 337.2,194.2 L 337.2,194.3 L 337.2,194.4 L 337.2,194.6 L 337.1,194.7 L 337.1,194.8 L 337.1,194.9 L 337.0,195.1 L 337.0,195.2 L 336.9,195.3 L 336.9,195.3 L 336.9,195.5 L 336.8,195.7 L 336.8,195.8 L 336.7,196.0 L 336.6,196.2 L 336.6,196.3 L 336.5,196.4 L 336.5,196.6 L 336.4,196.7 L 336.3,196.8 L 336.2,196.9 L 336.1,197.0 L 336.1,197.2 L 336.1,197.2 L 336.1,197.4 L 336.1,197.6 L 336.2,197.6 L 331.0,202.4 L 330.9,202.3 L 330.7,202.3 L 330.6,202.2 L 330.5,202.2 L 330.4,202.2 L 330.4,202.2 L 330.3,202.3 L 330.2,202.4 L 330.1,202.5 L 329.9,202.6 L 329.8,202.7 L 329.7,202.8 L 329.7,202.8 L 329.6,202.8 L 329.6,202.8 L 329.5,202.8 L 329.4,202.9 L 329.3,202.9 L 329.3,203.0 L 329.1,203.0 L 329.0,203.0 L 329.0,203.0 L 328.9,203.0 L 328.9,202.9 L 328.9,202.9 L 328.8,203.0 L 328.6,203.0 L 328.5,203.1 L 328.3,203.1 L 328.1,203.1 L 328.0,203.1 L 327.9,203.1 L 327.9,203.1 L 327.7,203.1 L 327.6,203.1 L 327.6,203.1 L 327.5,203.1 L 327.0,203.1 L 326.9,203.1 L 326.3,203.4 L 326.3,203.4 L 325.7,203.5 L 325.6,203.6 L 325.3,203.7 L 325.3,203.7 L 325.0,203.7 L 324.9,203.8 L 324.6,203.9 L 324.4,204.0 L 324.2,204.1 L 323.9,204.3 L 323.7,204.4 L 323.5,204.5 L 323.1,204.7 L 323.0,204.7 L 322.8,204.8 L 322.4,205.2 L 322.2,205.3 L 321.9,205.3 L 321.6,205.5 L 321.6,205.5 L 321.2,205.6 L 320.7,205.6 L 320.2,205.5 L 319.5,205.5 L 319.4,205.6 L 319.2,205.6 L 319.0,205.7 L 318.6,205.7 L 318.5,205.8 L 318.4,205.8 L 318.1,205.9 L 317.9,206.0 L 317.7,206.1 L 317.4,206.3 L 317.2,206.3 L 317.1,206.3 L 317.0,206.4 L 316.8,206.4 L 316.6,206.5 L 316.2,206.5 L 315.8,206.8 L 315.5,207.1 L 315.4,207.3 L 315.4,207.5 L 315.3,207.5 L 315.3,207.7 L 315.5,207.8 L 315.7,207.9 L 315.7,208.0 L 315.9,208.1 L 316.1,208.3 L 316.3,208.7 L 316.4,209.2 L 316.5,209.5 L 316.8,210.0 L 317.0,210.2 L 317.1,210.3 L 317.3,210.3 L 317.4,210.3 L 318.1,210.4 L 318.4,210.4 L 318.5,210.5 L 318.7,210.7 L 318.7,210.7 L 318.8,210.9 L 318.8,211.2 L 318.9,212.0 L 318.9,212.4 L 318.9,212.8 L 318.9,213.2 L 318.9,213.4 L 318.8,213.6 L 318.8,213.7 L 318.7,214.5 L 318.5,215.0 L 318.5,215.0 L 318.4,215.4 L 318.4,216.0 L 318.4,216.3 L 318.4,216.3 L 318.3,216.9 L 318.2,217.3 L 318.1,218.1 L 318.0,218.4 L 318.0,218.5 L 317.8,218.6 L 317.7,218.7 L 317.6,218.8 L 317.5,218.9 L 317.3,219.0 L 317.2,219.0 L 317.0,219.1 L 316.9,219.1 L 316.8,219.1 L 316.6,219.1 L 316.4,219.2 L 316.2,219.2 L 316.1,219.2 L 315.9,219.2 L 315.7,219.3 L 315.6,219.3 L 315.4,219.3 L 314.8,219.4 L 314.5,219.4 L 313.6,219.9 L 313.0,220.1 L 312.8,220.1 L 312.6,220.2 L 312.3,220.2 L 312.1,220.2 L 311.7,220.2 L 311.6,220.2 L 310.6,220.2 L 309.8,220.3 L 309.5,220.3 L 309.0,220.5 L 308.7,220.7 L 308.3,220.9 L 308.2,221.1 L 308.2,221.2 L 308.0,221.5 L 307.8,221.6 L 307.6,221.8 L 307.6,221.9 L 307.3,222.2 L 307.1,222.5 L 306.7,223.0 L 306.5,223.1 L 306.5,223.1 L 306.3,223.1 L 306.3,223.1 L 306.2,223.2 L 306.1,223.4 L 305.9,223.5 L 305.9,223.5 L 305.3,223.8 L 305.1,224.0 L 304.9,224.2 L 304.6,224.4 L 304.5,224.5 L 304.4,224.6 L 304.3,224.8 L 304.3,224.9 L 304.3,224.9 L 304.3,225.1 L 304.3,225.1 L 289.8,228.2 L 289.8,228.0 L 289.7,228.0 L 289.5,227.9 L 289.4,227.9 L 289.4,227.8 L 289.3,227.7 L 289.2,227.7 L 289.2,227.7 L 289.2,227.8 L 289.2,227.9 L 288.9,228.0 L 288.0,228.0 L 288.0,228.0 L 287.9,228.0 L 287.6,228.0 L 287.3,227.8 L 287.3,227.7 L 286.9,227.5 L 286.8,227.5 L 286.7,227.4 L 286.2,227.2 L 286.0,227.1 L 286.0,227.1 L 285.8,227.0 L 285.6,226.9 L 285.5,226.8 L 285.3,226.8 L 285.1,226.7 L 285.1,226.7 L 284.7,226.5 L 284.7,226.5 L 284.5,226.6 L 284.4,226.6 L 284.3,226.6 L 284.1,226.6 L 284.0,226.6 L 283.9,226.6 L 283.7,226.6 L 283.6,226.6 L 283.4,226.6 L 283.3,226.6 L 283.1,226.6 L 283.0,226.6 L 282.8,226.6 L 282.6,226.6 L 282.5,226.6 L 282.5,226.6 L 282.3,226.5 L 282.2,226.7 L 282.1,226.7 L 282.0,226.8 L 282.0,226.8 L 281.9,226.8 L 281.8,226.9 L 281.8,227.0 L 281.6,227.0 L 281.6,227.0 L 281.5,227.1 L 281.3,227.1 L 281.2,227.2 L 281.0,227.2 L 280.9,227.3 L 280.8,227.3 L 280.7,227.3 L 280.6,227.3 L 280.4,227.4 L 280.2,227.4 L 280.1,227.4 L 279.3,227.5 L 278.8,227.4 L 278.7,227.3 L 278.5,227.2 L 278.2,226.9 L 278.0,226.9 L 278.0,226.7 L 277.9,226.7 L 277.8,226.8 L 277.6,226.8 L 277.3,226.9 L 277.2,226.9 L 276.9,226.9 L 276.5,227.1 L 275.9,227.2 L 275.6,227.4 L 275.4,227.4 L 275.3,227.4 L 275.2,227.4 L 275.1,227.5 L 275.1,227.7 L 275.1,227.8 L 275.2,227.9 L 275.6,228.0 L 275.7,228.0 L 275.7,228.4 L 275.6,228.6 L 275.5,228.7 L 275.3,228.8 L 275.1,228.9 L 274.9,229.0 L 274.7,229.2 L 274.5,229.4 L 274.3,229.5 L 274.1,229.6 L 274.1,229.6 L 273.9,229.7 L 273.8,229.8 L 273.4,230.0 L 273.3,230.2 L 273.0,230.7 L 272.9,230.8 L 272.7,231.0 L 272.6,231.2 L 272.5,231.5 L 272.2,232.0 L 272.2,232.0 L 272.1,232.1 L 272.1,232.2 L 272.0,232.4 L 271.6,233.2 L 271.3,233.6 L 271.1,233.7 L 271.0,233.8 L 271.0,234.0 L 271.0,234.1 L 271.5,234.4 L 271.5,234.5 L 271.7,234.6 L 271.7,234.8 L 271.8,234.9 L 272.0,235.1 L 272.0,235.2 L 272.0,235.4 L 271.9,235.5 L 271.8,235.4 L 271.8,235.2 L 271.6,235.1 L 271.6,235.0 L 271.4,234.9 L 271.3,234.9 L 271.2,234.8 L 271.2,234.6 L 271.1,234.6 L 271.0,234.5 L 270.8,234.6 L 270.6,234.7 L 270.5,234.8 L 269.9,235.1 L 269.4,235.1 L 269.1,235.0 L 269.1,234.9 L 269.1,234.8 L 269.1,234.6 L 269.0,234.4 L 268.7,234.1 L 268.6,233.9 L 268.4,233.6 L 268.3,233.5 L 268.0,233.2 L 268.0,233.1 L 268.0,233.0 L 268.0,232.9 L 267.1,232.4 L 267.1,232.4 L 266.7,232.4 L 266.4,232.2 L 266.2,232.1 L 266.1,232.0 L 266.0,231.8 L 265.8,231.8 L 265.6,231.9 L 264.6,231.9 L 264.4,231.9 L 264.2,231.9 L 264.1,232.0 L 264.1,232.1 L 263.8,232.3 L 263.6,232.5 L 263.2,232.6 L 263.0,232.7 L 262.9,232.6 L 262.8,232.6 L 262.7,232.5 L 262.5,232.6 L 262.2,232.9 L 262.0,232.9 L 261.5,233.0 L 261.3,232.9 L 261.1,232.9 L 260.9,232.8 L 260.9,232.8 L 260.8,232.7 L 260.7,232.7 L 260.5,232.6 L 260.4,232.6 L 260.2,232.9 L 260.0,233.0 L 259.9,233.0 L 259.7,233.0 L 259.6,233.1 L 259.6,233.2 L 259.5,233.3 L 259.4,233.3 L 259.3,233.4 L 259.2,233.5 L 259.2,233.6 L 259.0,233.8 L 258.7,234.0 L 258.6,234.0 L 258.3,234.1 L 257.8,233.9 L 257.7,233.8 L 257.6,233.7 L 257.6,233.7 L 257.4,233.8 L 256.9,233.7 L 256.3,233.8 L 256.3,233.7 L 256.1,233.7 L 255.9,233.8 L 255.8,233.9 L 255.7,233.9 L 255.5,233.9 L 255.3,233.9 L 255.2,233.9 L 255.2,233.9 L 255.0,234.0 L 254.8,234.0 L 254.6,234.0 L 254.4,233.9 L 254.2,233.9 L 254.1,233.9 L 253.8,234.1 L 253.6,234.1 L 253.5,234.0 L 253.3,234.0 L 253.2,234.1 L 253.1,234.0 L 253.0,234.1 L 252.9,234.1 L 252.7,234.1 L 252.6,234.3 L 252.5,234.4 L 252.5,234.4 L 218.8,235.4 L 218.2,235.4 L 218.2,235.3 L 218.0,235.3 L 217.8,235.3 L 217.8,235.3 L 217.7,235.4 L 217.7,235.5 L 217.7,235.5 L 216.5,235.4 L 216.5,235.1 L 216.4,235.0 L 216.0,234.9 L 215.8,234.9 L 215.6,234.9 L 215.4,235.1 L 215.2,235.2 L 214.9,235.2 L 214.7,235.1 L 214.6,235.0 L 214.7,234.7 L 214.7,234.7 L 214.7,234.5 L 214.7,234.5 L 214.8,234.4 L 214.9,234.4 L 215.0,234.3 L 215.1,234.2 L 215.3,234.1 L 215.4,234.1 L 215.4,234.1 L 215.5,234.0 L 215.5,234.0 L 215.6,233.9 L 215.7,233.8 L 215.8,233.7 L 215.9,233.5 L 215.9,233.4 L 215.9,233.4 L 216.0,233.3 L 216.1,233.1 L 216.2,233.1 L 216.2,233.0 L 216.1,233.0 L 216.0,233.0 L 215.9,232.9 L 215.8,232.9 L 215.7,232.9 L 215.5,232.9 L 215.5,232.9 L 215.4,232.9 L 215.2,232.8 L 215.1,232.8 L 214.9,232.9 L 214.8,233.0 L 214.7,233.0 L 214.7,233.0 L 214.6,232.9 L 214.5,232.8 L 214.4,232.5 L 214.5,232.4 L 214.6,232.3 L 214.8,232.2 L 214.9,232.2 L 215.0,232.1 L 215.0,232.1 L 215.1,232.1 L 215.0,232.0 L 215.0,232.0 L 214.9,232.0 L 214.8,232.0 L 214.7,232.1 L 214.6,232.1 L 214.5,232.2 L 214.4,232.3 L 214.4,232.3 L 214.3,232.4 L 214.3,232.4 L 214.2,232.5 L 214.1,232.4 L 213.9,232.3 L 213.9,232.3 L 213.8,232.2 L 213.6,232.1 L 213.6,232.0 L 213.6,231.9 L 213.6,231.8 L 213.6,231.7 L 213.6,231.6 L 213.7,231.5 L 213.7,231.4 L 213.7,231.4 L 213.9,231.4 L 214.0,231.3 L 214.0,231.3 L 213.9,231.1 L 213.9,231.1 L 213.9,231.1 L 213.7,231.2 L 213.6,231.2 L 213.6,231.2 L 213.5,231.0 L 213.4,230.9 L 213.3,230.8 L 213.3,230.8 L 213.3,230.8 L 213.3,230.6 L 213.3,230.4 L 213.2,230.3 L 213.1,230.2 L 213.1,230.2 L 213.0,230.1 L 212.8,230.1 L 212.7,230.0 L 212.5,230.0 L 212.5,230.0 L 212.3,230.0 L 212.2,229.9 L 212.0,229.9 L 211.9,229.9 L 211.9,230.0 L 211.9,230.0 L 211.7,230.1 L 211.6,230.1 L 211.4,230.1 L 211.2,230.1 L 211.1,230.1 L 210.9,230.1 L 210.6,230.2 L 210.4,230.3 L 210.1,230.3 L 209.8,230.3 L 209.8,230.3 L 209.2,230.0 L 209.0,229.8 L 208.9,229.8 L 208.8,229.6 L 208.8,229.6 L 208.7,229.5 L 208.8,229.3 L 208.7,229.2 L 208.5,229.2 L 208.5,229.2 L 208.5,229.0 L 208.4,228.9 L 208.2,228.9 L 208.2,228.8 L 208.1,228.7 L 208.1,228.6 L 207.8,228.6 L 207.6,228.7 L 207.2,228.7 L 206.8,228.7 L 206.8,228.7 L 206.5,228.6 L 206.4,228.6 L 206.1,228.6 L 206.1,228.6 L 206.0,228.6 L 205.9,228.6 L 205.8,228.6 L 205.7,228.6 L 205.6,228.5 L 205.6,228.5 L 205.4,228.4 L 205.3,228.3 L 205.2,228.2 L 205.2,228.2 L 205.2,228.1 L 205.2,228.0 L 205.1,227.8 L 205.1,227.8 L 205.0,227.8 L 205.0,227.7 L 204.9,227.7 L 204.8,227.6 L 204.7,227.5 L 204.6,227.4 L 204.5,227.2 L 204.5,227.0 L 204.4,227.0 L 204.4,226.9 L 204.4,226.8 L 204.4,226.6 L 204.4,226.6 L 204.3,226.5 L 204.3,226.5 L 204.3,226.5 L 204.3,226.3 L 204.3,226.2 L 204.3,226.2 L 204.4,226.2 L 204.5,226.2 L 204.5,226.0 L 204.5,225.9 L 204.5,225.9 L 204.4,225.9 L 204.3,226.0 L 204.2,226.0 L 204.3,226.1 L 204.2,226.2 L 204.2,226.3 L 204.1,226.3 L 204.1,226.4 L 203.9,226.4 L 203.6,226.4 L 203.6,226.4 L 203.5,226.4 L 203.3,226.4 L 203.3,226.4 L 203.2,226.4 L 203.1,226.4 L 203.1,226.4 L 202.9,226.4 L 202.8,226.4 L 202.7,226.5 L 202.5,226.5 L 202.4,226.5 L 202.2,226.5 L 202.1,226.4 L 202.1,226.4 L 202.0,226.4 L 201.8,226.4 L 201.7,226.3 L 201.6,226.2 L 201.4,226.1 L 201.3,226.0 L 201.3,226.0 L 201.3,225.9 L 201.4,225.8 L 201.4,225.8 L 201.3,225.8 L 201.2,225.8 L 201.2,225.8 L 201.2,225.7 L 201.2,225.6 L 201.2,225.4 L 201.3,225.2 L 201.3,225.1 L 201.4,224.9 L 201.4,224.8 L 201.4,224.8 L 201.3,224.8 L 201.2,225.0 L 201.2,225.1 L 201.2,225.3 L 201.1,225.3 L 201.0,225.5 L 201.0,225.6 L 201.0,225.6 L 200.9,225.8 L 200.8,225.9 L 200.8,226.0 L 200.7,226.1 L 200.5,226.1 L 200.4,226.1 L 200.2,226.1 L 200.2,226.1 L 200.1,226.1 L 200.1,226.1 L 200.0,226.1 L 199.8,226.0 L 199.8,226.0 L 199.8,226.0 L 199.7,225.9 L 199.7,225.9 L 199.7,225.8 L 199.7,225.8 L 199.7,225.8 L 199.8,225.7 L 199.9,225.7 L 199.9,225.6 L 199.8,225.5 L 199.8,225.3 L 199.6,225.2 L 199.5,225.1 L 199.9,224.5 L 199.8,224.4 L 199.6,224.7 L 199.7,224.8 L 199.4,225.1 L 199.3,225.2 L 199.1,225.2 L 199.0,225.2 L 199.0,225.2 L 198.8,225.2 L 198.8,225.2 L 198.7,225.3 L 198.5,225.3 L 198.5,225.4 L 198.6,225.4 L 198.5,225.5 L 198.5,225.5 L 198.4,225.5 L 198.3,225.5 L 198.1,225.5 L 198.1,225.4 L 198.1,225.3 L 198.1,225.1 L 198.1,225.0 L 198.1,224.8 L 198.1,224.7 L 198.1,224.7 L 197.9,224.7 L 198.0,224.8 L 198.0,224.9 L 198.0,225.1 L 198.0,225.2 L 198.0,225.4 L 197.9,225.5 L 197.8,225.5 L 197.6,225.6 L 197.5,225.6 L 197.4,225.6 L 197.3,225.7 L 197.3,225.7 L 197.3,225.7 L 197.2,225.7 L 197.1,225.7 L 197.0,225.8 L 196.9,225.8 L 196.7,225.7 L 196.5,225.7 L 196.4,225.6 L 196.3,225.5 L 196.3,225.5 L 196.1,225.4 L 196.0,225.3 L 196.0,225.3 L 196.0,225.2 L 195.9,225.1 L 195.9,225.1 L 195.9,225.0 L 195.9,225.0 L 195.7,224.9 L 195.7,224.9 L 195.5,224.9 L 195.0,225.1 L 194.8,225.2 L 194.8,225.2 L 194.6,225.0 L 194.6,224.7 L 194.5,224.5 L 194.4,224.4 L 194.3,224.4 L 194.1,224.5 L 194.0,224.5 L 193.7,224.2 L 193.6,224.1 L 193.4,224.1 L 193.3,224.0 L 193.2,224.0 L 193.1,224.1 L 192.6,224.2 L 192.4,224.1 L 192.4,224.1 L 192.4,224.0 L 192.2,223.8 L 192.0,223.4 L 192.0,223.3 L 192.1,223.1 L 192.1,223.0 L 192.2,223.0 L 192.3,222.9 L 192.2,222.8 L 192.0,222.7 L 192.0,222.6 L 192.0,222.5 L 191.9,222.5 L 191.8,222.6 L 191.7,222.6 L 191.5,222.4 L 191.3,222.2 L 191.3,221.9 L 191.4,221.7 L 191.4,221.6 L 191.2,221.5 L 191.1,221.5 L 190.8,221.2 L 190.7,221.2 L 190.6,221.3 L 190.3,221.3 L 190.1,221.5 L 190.0,221.5 L 190.0,221.4 L 189.9,221.4 L 189.6,221.6 L 189.6,221.7 L 189.6,221.7 L 189.4,221.9 L 189.0,222.2 L 188.6,222.3 L 188.3,222.4 L 188.1,222.6 L 187.6,223.0 L 187.4,223.2 L 186.9,223.2 L 186.8,223.1 L 186.7,223.0 L 186.7,222.9 L 186.7,222.9 L 186.6,222.8 L 186.5,222.8 L 186.2,223.0 L 185.7,223.0 L 185.5,223.1 L 184.9,223.4 L 184.7,223.6 L 184.3,223.6 L 184.3,223.6 L 184.0,223.4 L 183.9,223.3 L 183.9,223.2 L 183.9,223.1 L 184.1,222.7 L 184.2,222.5 L 184.2,222.2 L 184.2,222.1 L 184.2,222.0 L 184.2,221.5 L 184.3,221.2 L 184.4,220.7 L 184.4,220.5 L 184.8,220.0 L 184.8,220.0 L 185.0,219.9 L 185.1,219.8 L 185.3,219.6 L 185.5,219.5 L 185.8,219.1 L 185.9,218.9 L 186.2,218.4 L 186.6,217.9 L 186.7,217.8 L 187.0,217.5 L 187.1,217.3 L 187.1,217.1 L 187.4,216.6 L 187.5,216.4 L 187.5,216.2 L 187.4,216.0 L 187.4,215.8 L 187.3,215.8 L 187.3,215.7 L 187.1,215.7 L 187.1,215.6 L 187.0,215.5 L 186.9,215.6 L 186.8,215.4 L 186.7,215.4 L 186.7,215.4 L 186.5,215.3 L 186.5,215.3 L 186.3,215.3 L 186.0,215.3 L 185.8,215.5 L 185.5,215.7 L 185.2,215.8 L 185.0,215.9 L 184.8,215.8 L 184.6,215.7 L 184.3,215.8 L 183.9,215.8 L 183.7,215.7 L 183.5,215.7 L 183.0,215.7 L 182.8,215.7 L 182.3,215.7 L 182.1,215.7 L 181.9,215.6 L 181.9,215.5 L 181.8,215.4 L 181.5,215.0 L 181.3,214.6 L 181.3,214.6 L 181.2,214.3 L 181.2,214.0 L 181.2,213.9 L 181.2,213.6 L 181.3,213.5 L 181.4,213.5 L 181.5,213.4 L 181.5,213.2 L 181.5,213.1 L 181.6,212.9 L 181.7,212.6 L 181.8,212.5 L 182.0,212.3 L 182.1,212.2 L 182.0,211.9 L 182.0,211.6 L 182.0,211.5 L 181.7,211.3 L 181.1,211.2 L 180.9,211.2 L 180.7,211.2 L 180.4,211.0 L 180.2,210.9 L 179.5,210.9 L 179.4,210.8 L 178.8,210.8 L 178.5,210.8 L 178.4,210.7 L 178.3,210.7 L 178.2,210.9 L 177.7,210.9 L 177.6,210.9 L 177.4,210.8 L 177.2,210.6 L 177.2,210.4 L 177.1,210.4 L 176.8,210.3 L 176.7,210.2 L 176.5,210.1 L 176.3,210.1 L 176.2,210.0 L 176.0,210.0 L 175.9,210.0 L 175.7,210.0 L 175.5,210.1 L 175.4,210.2 L 174.9,210.3 L 174.4,210.5 L 174.2,210.7 L 174.0,210.8 L 173.8,211.0 L 173.4,211.1 L 173.1,211.2 L 172.6,211.3 L 172.4,211.4 L 171.9,211.5 L 171.7,211.4 L 171.5,211.2 L 171.4,211.2 L 171.3,211.3 L 170.8,211.2 L 170.6,211.3 L 170.2,211.6 L 170.1,211.9 L 169.6,212.6 L 169.4,212.8 L 169.0,213.1 L 168.7,213.3 L 168.4,213.4 L 168.3,213.4 L 168.1,213.5 L 168.0,213.5 L 168.1,213.2 L 168.1,212.8 L 168.0,212.7 L 167.8,212.6 L 167.4,212.6 L 167.3,212.6 L 166.8,212.6 L 166.4,212.7 L 166.1,213.0 L 165.8,213.1 L 165.5,213.2 L 165.4,213.2 L 165.3,213.2 L 165.2,213.1 L 165.1,213.1 L 165.1,213.2 L 164.7,213.8 L 164.5,214.0 L 164.4,214.1 L 164.3,214.2 L 164.1,214.4 L 163.8,214.5 L 163.5,214.9 L 163.3,215.1 L 162.5,215.5 L 162.3,215.7 L 162.3,215.7 L 162.4,216.0 L 162.3,216.2 L 161.6,216.9 L 161.1,217.6 L 161.0,217.7 L 160.9,218.0 L 160.6,218.3 L 160.5,218.6 L 160.4,218.8 L 160.2,218.8 L 159.8,219.1 L 159.6,219.6 L 159.5,219.8 L 159.5,220.0 L 159.5,220.1 L 159.4,220.0 L 159.4,220.0 L 159.4,220.0 L 159.3,219.9 L 159.2,220.0 L 159.2,220.1 L 159.4,220.2 L 159.3,220.4 L 159.4,220.5 L 159.0,221.2 L 158.7,221.6 L 158.8,221.9 L 158.6,222.0 L 158.5,222.2 L 158.5,222.3 L 158.3,222.4 L 158.0,222.3 L 156.4,221.7 L 156.1,221.6 L 155.9,221.5 L 155.9,221.3 L 156.2,220.9 L 156.2,220.8 L 156.0,220.6 L 155.8,220.6 L 155.8,220.7 L 155.8,220.7 L 155.8,220.6 L 155.8,220.5 L 155.8,220.4 L 155.3,220.0 L 155.3,220.0 L 155.1,219.6 L 155.1,219.4 L 155.3,219.0 L 155.3,218.7 L 155.2,218.3 L 155.1,218.1 L 155.0,218.0 L 154.9,217.8 L 154.7,217.5 L 154.5,217.3 L 154.5,217.2 L 154.7,216.8 L 154.7,216.7 L 154.7,216.2 L 154.8,216.0 L 154.9,215.7 L 155.0,215.5 L 155.0,215.2 L 155.0,214.8 L 155.0,214.8 L 154.9,214.8 L 154.8,215.2 L 154.7,215.2 L 154.5,215.3 L 154.1,215.1 L 153.7,214.7 L 153.4,214.5 L 153.4,214.3 L 153.2,214.2 L 153.0,214.4 L 152.2,214.9 L 152.0,215.0 L 151.8,214.9 L 151.5,214.7 L 151.4,214.5 L 151.4,214.4 L 151.4,214.3 L 151.4,213.9 L 151.3,213.8 L 151.5,213.5 L 151.4,213.5 L 151.2,213.5 L 151.1,213.5 L 150.7,213.3 L 150.6,213.3 L 150.7,213.0 L 150.7,212.9 L 151.2,212.9 L 151.2,212.8 L 151.1,212.8 L 151.1,212.6 L 151.2,212.5 L 151.3,212.5 L 151.5,212.6 L 151.5,212.6 L 151.5,212.5 L 151.5,212.5 L 151.5,212.4 L 151.6,212.3 L 151.7,212.1 L 151.7,211.7 L 151.7,211.6 L 151.7,211.5 L 151.7,211.3 L 151.7,211.3 L 151.5,211.4 L 151.4,211.5 L 151.3,211.5 L 151.1,211.4 L 151.0,211.3 L 150.8,211.1 L 150.8,211.0 L 150.8,210.9 L 150.7,210.5 L 150.5,210.4 L 150.2,210.5 L 150.1,210.5 L 150.0,210.5 L 149.7,210.5 L 149.5,210.6 L 149.0,211.0 L 148.8,211.4 L 148.6,211.7 L 148.4,212.1 L 148.2,212.3 L 148.0,212.4 L 147.6,212.4 L 147.4,212.1 L 147.4,212.1 L 147.2,212.0 L 146.8,212.1 L 146.5,212.2 L 146.4,212.2 L 145.7,212.3 L 145.4,212.2 L 145.3,212.4 L 145.0,212.6 L 144.7,212.7 L 144.5,212.6 L 144.1,212.4 L 144.0,212.4 L 143.5,212.4 L 143.2,212.4 L 142.8,212.6 L 142.5,212.9 L 142.2,213.2 L 141.9,213.4 L 141.6,213.7 L 141.2,213.9 L 141.1,214.0 L 141.0,213.9 L 141.0,213.8 L 141.1,213.4 L 141.2,213.0 L 141.3,212.6 L 141.7,211.8 L 141.7,211.4 L 141.7,211.4 L 141.5,211.2 L 141.3,211.1 L 141.3,211.1 L 141.4,211.0 L 141.3,210.9 L 141.0,211.0 L 140.8,211.1 L 140.3,211.1 L 140.0,211.2 L 139.9,211.2 L 139.7,211.4 L 139.5,211.6 L 139.3,211.6 L 139.1,211.5 L 138.9,211.5 L 138.8,211.6 L 138.5,211.6 L 138.4,211.6 L 138.4,211.7 L 138.3,211.9 L 138.1,212.2 L 138.0,212.4 L 137.7,212.6 L 137.7,212.8 L 137.7,213.2 L 137.5,214.3 L 137.4,214.7 L 137.3,214.9 L 137.2,215.3 L 137.0,215.7 L 136.9,215.8 L 136.9,215.9 L 136.9,216.2 L 136.8,216.4 L 136.5,216.7 L 136.5,216.8 L 136.6,217.0 L 136.7,217.2 L 136.8,217.3 L 137.0,217.2 L 137.2,217.1 L 137.4,216.9 L 137.9,216.4 L 138.1,216.2 L 138.3,215.9 L 138.6,215.7 L 139.1,215.2 L 139.3,215.1 L 139.6,215.0 L 140.0,214.9 L 140.0,214.9 L 140.1,215.0 L 140.2,215.1 L 140.2,215.3 L 140.0,215.6 L 139.9,215.9 L 139.5,216.2 L 138.9,216.6 L 138.5,216.8 L 138.3,217.0 L 138.2,217.1 L 137.8,217.4 L 137.4,217.8 L 137.2,218.1 L 136.8,218.2 L 136.7,218.2 L 136.6,218.2 L 136.5,218.2 L 136.1,218.3 L 136.0,218.3 L 135.8,218.3 L 135.6,218.5 L 135.4,218.8 L 135.0,219.3 L 134.8,219.5 L 134.5,219.8 L 134.4,219.9 L 134.2,219.9 L 134.2,220.0 L 134.2,220.0 L 134.0,220.1 L 133.6,220.5 L 133.4,220.5 L 133.3,220.4 L 133.3,220.6 L 133.1,220.8 L 132.9,221.2 L 132.7,221.4 L 132.5,221.6 L 132.4,221.8 L 132.3,222.0 L 132.0,222.5 L 131.9,222.8 L 131.8,223.1 L 131.6,223.2 L 131.6,223.3 L 131.4,223.5 L 131.0,223.8 L 130.9,224.1 L 130.8,224.2 L 130.8,224.4 L 130.7,224.5 L 130.8,224.7 L 130.9,225.0 L 130.8,225.2 L 130.7,225.4 L 130.4,225.6 L 130.3,225.7 L 130.3,225.9 L 130.1,226.2 L 129.8,226.4 L 129.6,226.4 L 129.2,226.7 L 128.9,227.0 L 128.6,227.0 L 128.2,227.2 L 128.0,227.3 L 127.8,227.4 L 127.6,227.3 L 127.6,227.3 L 127.4,227.4 L 127.3,227.4 L 127.0,227.3 L 126.9,227.4 L 126.6,227.4 L 126.5,227.4 L 126.5,227.6 L 126.6,227.7 L 126.6,227.9 L 126.5,228.0 L 126.5,228.0 L 126.4,228.2 L 126.2,228.4 L 125.8,229.0 L 125.7,229.1 L 125.6,229.2 L 125.4,229.3 L 125.2,229.5 L 125.1,229.6 L 124.9,229.7 L 124.7,229.9 L 124.6,229.9 L 124.5,230.1 L 124.4,230.1 L 124.3,230.0 L 124.3,230.0 L 124.2,229.9 L 124.0,229.9 L 124.0,229.9 L 124.1,230.1 L 124.1,230.2 L 123.9,230.5 L 123.8,230.7 L 123.7,230.5 L 123.5,230.4 L 123.3,230.3 L 123.2,230.2 L 123.2,230.1 L 123.2,230.1 L 123.2,229.9 L 123.4,229.5 L 123.5,229.2 L 123.6,229.0 L 123.8,229.0 L 123.9,229.0 L 124.1,229.1 L 124.1,229.1 L 124.1,229.1 L 124.1,228.9 L 124.0,228.7 L 123.9,228.4 L 124.0,228.3 L 124.4,227.6 L 124.6,227.1 L 124.6,227.0 L 124.7,226.7 L 124.9,226.6 L 125.2,226.4 L 125.2,226.2 L 125.4,225.8 L 125.6,225.7 L 126.0,225.7 L 126.1,225.6 L 126.1,225.5 L 126.1,225.2 L 126.3,225.0 L 126.5,225.0 L 126.8,225.1 L 127.0,225.2 L 127.1,225.2 L 127.2,225.2 L 127.5,225.5 L 127.7,225.5 L 127.8,225.4 L 127.9,225.3 L 127.9,225.0 L 127.9,224.9 L 127.9,224.8 L 128.0,224.6 L 128.1,224.3 L 128.1,224.0 L 128.2,223.9 L 128.4,223.8 L 128.8,223.3 L 129.0,223.1 L 129.1,222.9 L 129.3,222.9 L 129.4,222.7 L 129.5,222.5 L 129.7,222.5 L 129.8,222.3 L 129.9,222.2 L 130.1,222.2 L 130.4,222.0 L 130.6,221.7 L 130.8,221.6 L 131.0,221.4 L 131.6,220.9 L 131.8,220.8 L 131.9,220.8 L 131.9,220.6 L 132.1,220.5 L 132.2,220.4 L 132.6,220.4 L 132.7,220.3 L 132.9,220.1 L 133.0,220.0 L 133.0,220.0 L 133.1,219.9 L 133.3,219.8 L 133.7,219.4 L 133.7,219.2 L 133.7,218.8 L 133.7,218.6 L 133.7,218.1 L 133.8,218.0 L 134.2,217.7 L 134.6,217.5 L 134.7,217.4 L 134.8,217.3 L 135.0,217.0 L 135.1,216.8 L 135.2,216.5 L 135.3,216.4 L 135.3,216.4 L 135.2,216.2 L 135.2,216.0 L 135.3,215.9 L 135.0,215.7 L 134.9,215.6 L 134.9,215.5 L 134.9,215.5 L 134.8,215.4 L 134.6,215.4 L 134.4,215.5 L 134.1,215.7 L 134.0,215.7 L 133.5,215.9 L 133.2,216.2 L 133.2,216.4 L 132.4,217.1 L 132.2,217.2 L 132.1,217.1 L 132.2,216.8 L 132.2,216.7 L 132.2,216.5 L 132.2,216.3 L 132.3,216.3 L 132.6,216.1 L 132.7,216.0 L 132.7,215.8 L 132.5,215.6 L 132.5,215.6 L 132.3,215.7 L 132.2,215.7 L 132.0,215.7 L 131.8,215.7 L 131.7,215.8 L 131.6,215.8 L 131.5,215.7 L 131.4,215.8 L 131.1,216.0 L 130.8,216.0 L 129.6,216.2 L 129.4,216.3 L 129.1,216.5 L 128.8,216.6 L 128.7,216.7 L 128.3,216.7 L 128.1,216.7 L 128.0,216.7 L 127.8,216.8 L 127.2,217.0 L 127.0,217.2 L 126.3,217.5 L 125.9,217.5 L 125.6,217.6 L 125.5,217.7 L 125.3,217.7 L 125.1,217.9 L 124.9,218.1 L 124.7,218.1 L 124.1,218.4 L 124.0,218.6 L 124.0,218.6 L 124.0,218.7 L 123.7,219.1 L 123.6,219.2 L 123.5,219.4 L 123.1,220.0 L 123.0,220.0 L 122.9,220.2 L 122.7,220.3 L 122.6,220.4 L 122.5,220.6 L 122.1,221.4 L 122.0,221.6 L 122.0,221.6 L 121.9,221.6 L 121.8,221.5 L 121.5,221.4 L 121.3,221.2 L 121.1,220.9 L 121.1,220.7 L 121.2,220.6 L 121.2,220.4 L 121.1,220.4 L 120.8,220.3 L 120.6,220.3 L 120.3,220.5 L 120.2,220.5 L 120.0,220.5 L 119.8,220.6 L 119.7,220.7 L 119.7,220.8 L 119.5,221.0 L 119.4,221.0 L 119.2,220.9 L 119.1,220.7 L 118.8,220.6 L 118.2,220.6 L 118.0,220.7 L 117.9,220.7 L 117.9,220.9 L 117.9,221.1 L 117.8,221.1 L 117.7,221.2 L 117.5,221.2 L 117.3,221.2 L 117.2,221.1 L 117.0,220.9 L 116.9,220.8 L 116.7,220.8 L 116.4,220.9 L 116.4,221.0 L 116.3,221.0 L 116.2,220.8 L 116.2,220.7 L 116.1,220.5 L 116.1,220.4 L 116.0,220.3 L 115.5,220.1 L 115.4,220.1 L 115.1,220.2 L 115.0,220.2 L 114.7,220.1 L 114.5,220.0 L 114.5,220.0 L 114.4,220.0 L 114.3,220.0 L 114.1,220.1 L 113.7,220.3 L 113.3,220.4 L 113.3,220.4 L 112.8,220.7 L 112.7,220.7 L 112.7,220.7 L 112.1,220.9 L 111.7,221.2 L 111.2,221.4 L 111.1,221.5 L 111.1,221.5 L 111.2,221.6 L 111.2,221.7 L 111.1,222.1 L 111.1,222.2 L 110.8,222.3 L 110.4,222.4 L 110.2,222.5 L 109.7,222.9 L 109.4,223.1 L 109.2,223.3 L 108.8,223.3 L 108.8,223.5 L 108.4,223.8 L 107.9,224.2 L 107.2,224.8 L 106.9,224.9 L 106.4,225.3 L 106.1,225.4 L 105.9,225.6 L 105.8,225.8 L 105.9,226.2 L 106.0,226.4 L 106.0,226.6 L 106.1,226.7 L 106.1,226.9 L 106.1,226.9 L 106.1,227.2 L 106.1,227.3 L 106.2,227.5 L 106.1,227.7 L 105.9,228.1 L 105.8,228.3 L 105.5,228.4 L 105.3,228.3 L 105.3,228.2 L 105.2,228.2 L 105.0,228.3 L 104.9,228.3 L 104.7,228.4 L 104.6,228.4 L 104.5,228.4 L 104.3,228.4 L 104.0,228.6 L 104.0,228.7 L 103.9,228.8 L 103.5,228.8 L 103.2,228.9 L 103.0,229.1 L 102.6,229.3 L 102.4,229.4 L 102.1,229.6 L 101.9,229.6 L 101.8,229.6 L 101.8,229.6 L 101.2,229.8 L 101.1,229.9 L 101.2,230.1 L 101.4,230.1 L 101.4,230.3 L 101.3,230.3 L 101.5,230.4 L 101.5,230.6 L 101.4,230.9 L 101.4,231.1 L 101.2,231.2 L 101.1,231.4 L 101.0,231.5 L 100.8,231.5 L 100.7,231.6 L 100.4,231.9 L 100.2,232.0 L 100.0,232.0 L 99.8,231.9 L 99.6,231.9 L 99.5,231.9 L 99.4,231.8 L 99.3,232.0 L 99.1,232.0 L 99.0,232.0 L 98.7,232.0 L 98.6,232.1 L 98.5,232.2 L 98.3,232.3 L 98.1,232.3 L 97.9,232.3 L 97.7,232.3 L 97.6,232.4 L 97.5,232.4 L 97.2,232.6 L 97.2,232.7 L 97.1,232.7 L 96.8,233.0 L 96.6,233.0 L 96.5,233.2 L 96.4,233.2 L 96.1,233.4 L 95.9,233.5 L 95.8,233.5 L 95.7,233.5 L 95.5,233.2 L 95.4,233.1 L 95.2,233.2 L 95.1,233.3 L 95.0,233.4 L 94.9,233.5 L 94.9,233.5 L 94.6,233.8 L 94.6,234.0 L 94.7,234.1 L 94.9,234.2 L 94.9,234.3 L 94.8,234.4 L 94.4,234.8 L 94.3,234.9 L 94.4,235.1 L 94.4,235.3 L 94.5,235.5 L 94.4,235.7 L 94.2,235.9 L 94.2,236.1 L 94.1,236.3 L 93.9,236.8 L 93.9,237.0 L 93.8,237.1 L 93.8,237.1 L 93.8,237.2 L 93.9,237.3 L 93.8,237.5 L 93.8,237.7 L 94.0,237.9 L 94.1,237.9 L 94.3,238.1 L 94.3,238.4 L 94.3,238.4 L 94.2,238.5 L 93.7,238.7 L 93.7,238.8 L 93.8,238.9 L 93.8,239.1 L 93.9,239.4 L 94.0,239.5 L 94.3,239.6 L 94.5,239.7 L 94.8,240.0 L 94.6,240.2 L 94.3,240.3 L 93.7,240.5 L 93.5,240.6 L 93.4,240.7 L 93.3,240.7 L 93.0,240.7 L 93.0,240.8 L 92.7,241.0 L 92.5,241.1 L 92.4,241.0 L 92.1,241.0 L 92.0,241.0 L 92.0,241.1 L 92.1,241.3 L 92.3,241.6 L 92.3,241.8 L 92.3,241.8 L 92.1,241.8 L 91.6,241.8 L 91.3,241.7 L 91.0,241.5 L 90.9,241.4 L 91.0,241.3 L 90.9,241.2 L 90.8,241.1 L 90.6,240.9 L 90.4,240.6 L 89.9,240.1 L 89.9,239.7 L 90.0,239.6 L 90.2,239.3 L 90.2,239.2 L 90.0,238.8 L 89.9,238.7 L 89.6,238.6 L 89.2,238.4 L 89.2,238.4 L 89.0,238.3 L 88.8,238.3 L 88.7,238.3 L 88.5,238.4 L 88.3,238.5 L 87.9,238.6 L 87.3,238.6 L 87.1,238.6 L 86.9,238.4 L 86.9,238.4 L 86.9,238.4 L 87.0,238.3 L 86.8,238.2 L 86.8,238.0 L 86.9,237.9 L 86.9,237.9 L 86.8,237.7 L 86.7,237.5 L 86.8,237.5 L 86.9,237.4 L 86.9,237.4 L 86.7,237.4 L 86.5,237.5 L 85.8,237.7 L 85.1,237.7 L 84.8,237.8 L 84.5,238.0 L 84.3,238.1 L 84.1,238.2 L 84.0,238.2 L 83.9,238.2 L 83.5,238.4 L 83.4,238.4 L 82.8,238.6 L 82.5,238.9 L 82.2,239.0 L 82.0,239.1 L 81.9,239.1 L 81.7,239.3 L 81.4,239.3 L 81.3,239.2 L 81.3,239.2 L 81.3,239.1 L 81.3,239.0 L 81.0,238.9 L 80.8,239.0 L 80.7,239.0 L 80.9,239.2 L 80.8,239.2 L 80.7,239.3 L 80.4,239.3 L 80.3,239.3 L 80.3,239.2 L 80.2,239.1 L 80.2,239.1 L 80.0,239.3 L 79.3,239.4 L 78.9,239.4 L 78.8,239.5 L 78.4,239.5 L 78.2,239.6 L 77.8,239.6 L 77.4,239.7 L 77.2,239.8 L 76.7,240.1 L 76.6,240.1 L 76.5,240.1 L 76.3,240.2 L 76.0,240.3 L 75.9,240.5 L 75.9,240.5 L 75.7,240.6 L 75.4,240.9 L 75.3,241.1 L 75.3,241.2 L 75.4,241.3 L 75.4,241.4 L 75.5,241.5 L 75.5,241.6 L 75.3,241.7 L 75.3,241.9 L 75.3,242.1 L 75.3,242.3 L 75.1,242.6 L 75.0,242.8 L 74.5,243.5 L 74.5,243.8 L 74.4,244.0 L 74.3,244.2 L 74.2,244.3 L 73.8,244.3 L 73.5,244.3 L 73.1,244.0 L 73.0,243.9 L 72.8,243.7 L 72.7,243.5 L 72.8,243.2 L 72.9,243.0 L 72.9,242.8 L 72.9,242.7 L 72.9,242.6 L 72.9,242.4 L 72.8,242.3 L 72.5,242.2 L 72.3,242.2 L 72.1,242.2 L 71.6,242.5 L 71.3,242.6 L 71.0,242.7 L 70.7,242.8 L 70.5,243.0 L 70.0,243.3 L 69.7,243.3 L 69.4,243.3 L 69.2,243.0 L 69.0,242.8 L 69.0,242.7 L 69.0,242.5 L 69.0,242.5 L 68.9,242.4 L 68.7,242.5 L 68.5,242.6 L 68.2,242.8 L 67.8,243.0 L 67.6,243.2 L 67.4,243.3 L 67.0,243.4 L 66.8,243.4 L 66.7,243.4 L 66.3,243.4 L 66.0,243.4 L 65.6,243.4 L 65.5,243.4 L 65.3,243.5 L 64.8,243.7 L 64.5,243.8 L 63.9,244.3 L 63.4,244.6 L 63.3,244.7 L 63.1,244.9 L 63.0,244.9 L 62.9,244.9 L 62.7,244.9 L 62.5,245.1 L 61.8,245.2 L 61.5,245.3 L 61.3,245.4 L 61.0,245.5 L 60.9,245.6 L 60.9,245.8 L 60.9,246.0 L 60.9,246.1 L 60.7,246.1 L 60.0,246.4 L 60.0,246.6 L 59.9,246.6 L 40.2,228.7 L 40.2,228.7 L 40.3,228.6 L 40.3,228.5 L 40.3,228.4 L 40.2,228.3 L 40.1,228.1 L 40.0,227.6 L 40.0,227.5 L 40.0,227.0 L 40.0,226.6 L 40.1,226.3 L 40.5,225.8 L 40.8,225.3 L 41.2,225.0 L 41.5,224.9 L 41.8,224.8 L 42.2,224.8 L 42.6,224.8 L 42.9,224.8 L 43.2,224.8 L 43.3,224.8 L 43.3,224.7 L 43.2,224.7 L 43.1,224.6 L 43.2,224.5 L 43.2,224.4 L 43.3,224.3 L 44.2,224.1 L 44.9,224.0 L 45.1,223.9 L 45.1,223.8 L 45.2,223.8 L 45.4,223.7 L 45.5,223.6 L 45.5,223.4 L 45.6,223.2 L 45.8,223.1 L 46.1,222.9 L 46.5,222.6 L 46.7,222.6 L 46.8,222.5 L 46.8,222.4 L 46.9,222.4 L 47.1,222.1 L 47.3,221.9 L 48.2,221.7 L 48.3,221.7 L 48.4,221.7 L 48.5,221.6 L 48.5,221.6 L 48.6,221.5 L 48.6,221.3 L 48.7,221.1 L 48.7,220.9 L 48.9,220.7 L 49.3,220.5 L 49.7,220.3 L 50.0,220.1 L 50.1,220.0 L 50.3,219.9 L 50.4,219.8 L 50.5,219.8 L 50.5,219.7 L 50.9,219.7 L 50.9,219.6 L 51.2,219.5 L 51.4,219.6 L 51.6,219.6 L 51.7,219.5 L 51.8,219.5 L 51.9,219.4 L 52.0,219.4 L 52.2,219.4 L 52.2,219.3 L 52.2,219.2 L 52.3,219.3 L 52.4,219.3 L 52.4,219.3 L 52.5,219.3 L 52.5,219.2 L 52.7,219.3 L 52.8,219.3 L 52.9,219.3 L 53.0,219.0 L 52.9,218.9 L 52.9,218.8 L 53.1,218.7 L 53.6,218.7 L 53.8,218.8 L 53.9,218.8 L 54.0,218.8 L 54.0,218.7 L 54.1,218.7 L 54.4,218.7 L 54.7,218.6 L 54.9,218.3 L 55.0,218.2 L 55.1,218.1 L 55.1,218.0 L 55.0,217.9 L 54.9,217.8 L 54.7,217.7 L 54.2,217.7 L 53.6,217.4 L 53.2,217.2 L 53.0,216.9 L 53.0,216.7 L 53.1,216.5 L 53.4,216.2 L 53.7,215.8 L 54.0,215.5 L 54.4,215.1 L 54.7,214.9 L 54.9,214.7 L 55.1,214.5 L 55.9,213.5 L 55.9,213.5 L 56.0,213.5 L 56.0,213.6 L 56.0,213.5 L 56.0,213.5 L 56.0,213.4 L 56.0,213.3 L 56.4,212.8 L 56.6,212.7 L 57.0,212.6 L 57.2,212.6 L 57.5,212.6 L 58.0,212.7 L 58.4,212.8 L 58.8,212.9 L 59.5,212.9 L 59.7,212.9 L 60.3,213.0 L 60.5,213.0 L 60.8,213.3 L 61.4,213.5 L 61.4,213.6 L 61.4,213.6 L 61.2,213.8 L 61.1,214.0 L 61.1,214.7 L 61.2,214.8 L 61.5,214.8 L 61.6,214.8 L 61.7,214.9 L 62.1,214.9 L 62.3,214.9 L 62.6,215.1 L 62.8,215.4 L 63.1,215.8 L 63.2,215.9 L 63.5,216.0 L 63.7,216.0 L 63.9,215.9 L 64.1,215.9 L 64.9,216.0 L 65.8,215.9 L 66.2,215.9 L 66.4,215.8 L 66.6,215.8 L 66.8,216.0 L 67.0,216.0 L 67.1,215.9 L 67.5,215.8 L 67.8,215.7 L 68.0,215.6 L 68.2,215.5 L 68.5,215.4 L 68.9,215.4 L 69.2,215.2 L 69.4,215.1 L 69.5,214.9 L 69.7,214.8 L 70.0,214.7 L 70.7,214.7 L 71.0,214.6 L 71.1,214.7 L 71.2,214.8 L 71.3,214.8 L 71.3,214.7 L 71.4,214.8 L 71.5,214.8 L 71.7,214.9 L 71.9,214.9 L 72.0,214.8 L 72.2,214.6 L 72.4,214.4 L 72.6,214.3 L 72.9,214.3 L 73.0,214.4 L 73.0,214.5 L 73.0,214.7 L 73.1,214.9 L 73.3,215.0 L 73.7,215.0 L 73.7,215.0 L 73.8,214.9 L 74.1,214.6 L 74.4,214.3 L 74.4,214.2 L 74.3,214.1 L 73.9,214.0 L 73.8,214.0 L 73.9,213.9 L 74.1,213.9 L 74.4,213.9 L 74.4,213.8 L 74.3,213.7 L 74.0,213.7 L 73.8,213.7 L 73.7,213.8 L 73.4,213.9 L 73.3,214.0 L 73.0,213.9 L 72.8,213.7 L 72.4,213.3 L 71.8,213.3 L 71.6,213.3 L 71.3,213.3 L 71.2,213.3 L 71.1,213.2 L 71.1,213.1 L 71.5,212.8 L 71.6,212.7 L 71.5,212.4 L 71.5,212.2 L 71.6,212.1 L 71.6,212.1 L 71.8,211.9 L 72.0,211.7 L 72.3,212.0 L 72.7,212.1 L 72.9,212.1 L 73.2,212.0 L 73.4,212.0 L 73.5,212.0 L 73.7,211.7 L 73.7,211.6 L 73.5,211.5 L 73.4,211.4 L 73.3,211.4 L 73.2,211.3 L 73.2,211.1 L 73.3,211.0 L 73.5,211.1 L 73.7,211.1 L 73.7,211.0 L 73.7,210.9 L 73.6,210.7 L 73.6,210.6 L 73.7,210.5 L 74.1,210.3 L 74.2,210.3 L 74.3,210.3 L 74.4,210.4 L 74.5,210.7 L 74.8,211.1 L 74.8,211.2 L 75.0,211.2 L 75.3,211.2 L 75.5,211.3 L 75.5,211.4 L 75.7,211.5 L 75.7,211.7 L 75.8,211.9 L 76.2,212.2 L 76.4,212.5 L 76.5,212.6 L 76.8,212.6 L 77.0,212.6 L 77.2,212.7 L 77.4,212.9 L 77.6,212.9 L 77.7,212.9 L 77.7,213.0 L 77.7,213.1 L 77.8,213.1 L 77.9,213.1 L 77.9,213.0 L 77.9,213.0 L 77.9,212.9 L 78.1,212.8 L 78.3,212.5 L 78.3,212.4 L 78.5,212.4 L 78.7,212.6 L 78.8,212.7 L 79.2,213.2 L 79.6,213.5 L 79.7,213.7 L 79.7,213.7 L 79.8,213.6 L 79.9,213.4 L 79.9,213.4 L 80.0,213.3 L 80.3,213.3 L 80.6,213.2 L 80.8,212.9 L 81.1,212.6 L 81.3,212.3 L 81.4,212.3 L 81.4,212.2 L 81.2,212.1 L 81.0,212.0 L 80.9,212.0 L 80.5,211.8 L 80.4,211.7 L 80.4,211.4 L 80.3,211.2 L 80.4,211.2 L 80.5,211.3 L 80.6,211.4 L 80.9,211.8 L 81.1,211.9 L 81.2,211.9 L 81.3,212.0 L 81.5,212.0 L 81.9,212.1 L 82.1,212.2 L 82.7,212.2 L 83.0,212.2 L 83.4,212.1 L 83.7,212.1 L 83.8,212.2 L 83.9,212.4 L 84.0,212.5 L 84.1,212.5 L 84.1,212.3 L 84.3,212.3 L 84.5,212.3 L 84.6,212.4 L 84.7,212.5 L 84.8,212.6 L 85.0,212.6 L 85.0,212.7 L 85.1,212.7 L 85.5,212.9 L 85.7,213.0 L 85.9,213.0 L 86.4,213.3 L 86.7,213.4 L 86.8,213.5 L 87.4,213.6 L 87.5,213.7 L 87.5,213.8 L 87.5,213.9 L 87.8,213.9 L 88.0,213.9 L 88.0,213.9 L 88.3,213.9 L 88.4,213.8 L 88.5,213.8 L 88.8,213.9 L 89.0,213.9 L 89.4,213.8 L 89.5,213.7 L 89.6,213.8 L 89.7,213.8 L 90.1,213.6 L 90.5,213.4 L 90.9,213.4 L 91.3,213.1 L 91.4,213.1 L 91.7,212.9 L 91.9,212.6 L 92.0,212.5 L 92.2,212.5 L 92.3,212.6 L 92.4,212.6 L 92.5,212.5 L 92.6,212.6 L 92.9,212.5 L 93.1,212.5 L 93.2,212.6 L 93.2,212.7 L 93.2,212.7 L 93.3,212.7 L 93.6,212.6 L 94.0,212.5 L 94.1,212.5 L 94.3,212.4 L 94.5,212.2 L 94.6,212.1 L 95.0,211.9 L 95.4,211.6 L 95.2,211.5 L 95.3,211.4 L 95.4,211.4 L 95.4,211.4 L 95.5,211.3 L 95.4,211.2 L 95.3,211.2 L 95.2,211.4 L 95.1,211.4 L 95.1,211.4 L 95.1,211.4 L 94.5,211.2 L 94.3,211.2 L 94.3,211.1 L 94.4,211.0 L 94.7,211.0 L 94.9,210.9 L 95.3,210.5 L 95.5,210.4 L 95.8,210.3 L 96.0,210.3 L 96.3,210.2 L 96.6,210.1 L 97.1,209.9 L 97.2,209.9 L 97.2,209.7 L 97.2,209.6 L 97.3,209.4 L 97.4,209.3 L 97.4,209.2 L 97.8,209.1 L 97.9,208.9 L 98.2,208.7 L 98.3,208.7 L 98.3,208.6 L 98.5,208.5 L 99.0,208.4 L 99.1,208.4 L 99.5,208.1 L 99.7,208.0 L 100.2,207.3 L 100.3,207.1 L 100.3,207.0 L 100.4,206.7 L 100.7,206.3 L 101.4,205.4 L 101.5,205.2 L 101.6,205.0 L 101.7,204.6 L 101.8,204.4 L 102.0,204.1 L 102.0,203.9 L 102.3,203.7 L 102.5,203.5 L 102.8,203.2" fill="none" stroke="black" stroke-width="2"/>
</svg>