<?xml version="1.0" encoding="UTF-8"?>
<svg width="400" height="400" viewBox="0 0 400 400" xmlns="http://www.w3.org/2000/svg">
  <rect width="400" height="400" fill="white"/>
  <path d="M 250.1,284.2 L 249.7,281.2 L 249.2,280.2 L 248.1,277.9 L 247.4,275.4 L 244.5,271.9 L 243.0,272.7 L 241.2,271.7 L 240.1,271.7 L 238.3,270.5 L 236.1,268.8 L 234.3,268.6 L 231.9,267.5 L 231.5,266.1 L 230.3,265.1 L 228.1,263.8 L 225.7,262.4 L 223.4,260.8 L 221.1,259.2 L 218.7,257.4 L 216.6,255.7 L 214.5,254.0 L 212.3,252.8 L 210.7,252.7 L 209.9,252.4 L 208.6,251.6 L 207.7,250.8 L 205.9,248.7 L 204.0,246.7 L 202.9,245.1 L 202.7,245.0 L 200.9,243.2 L 199.1,241.6 L 196.9,239.7 L 194.7,238.0 L 192.8,236.4 L 191.0,234.7 L 188.9,232.7 L 187.2,230.8 L 185.4,228.5 L 184.1,226.6 L 182.8,224.7 L 181.5,222.9 L 180.1,220.9 L 179.0,218.5 L 177.9,216.4 L 176.4,214.2 L 174.8,211.9 L 173.5,210.0 L 172.1,207.5 L 170.6,205.0 L 169.2,203.1 L 167.0,201.2 L 165.1,199.9 L 163.1,198.7 L 161.0,197.7 L 158.7,196.9 L 156.4,196.3 L 154.0,196.0 L 151.3,196.0 L 148.5,196.4 L 146.0,196.7 L 143.3,196.8 L 140.6,196.9 L 138.0,196.8 L 135.7,196.6 L 133.5,196.1 L 131.2,195.8 L 128.5,195.3 L 126.1,194.6 L 123.8,194.0 L 121.2,193.3 L 118.6,192.6 L 115.8,191.8 L 113.9,191.3 L 111.5,190.8 L 109.7,190.4 L 106.8,189.9 L 105.5,189.8 L 105.1,188.0 L 104.7,187.8 L 102.4,187.8 L 99.7,187.9 L 97.5,188.0 L 95.3,187.8 L 92.6,187.1 L 89.8,186.4 L 87.1,185.9 L 85.4,185.6 L 85.0,185.7 L 84.2,186.6 L 83.4,186.7 L 81.1,186.2 L 78.6,185.3 L 76.3,184.6 L 73.9,184.1 L 71.3,183.8 L 68.6,183.4 L 65.8,182.6 L 63.5,181.9 L 61.2,181.5 L 60.0,180.8 L 58.6,178.5 L 57.7,175.6 L 57.6,174.2 L 59.2,172.3 L 61.1,170.9 L 62.9,169.4 L 64.9,167.5 L 66.2,166.9 L 66.2,166.1 L 65.9,165.4 L 65.4,165.3 L 64.4,165.7 L 62.4,167.7 L 60.3,169.5 L 58.7,171.0 L 57.0,172.4 L 55.4,173.4 L 54.3,173.3 L 52.0,171.9 L 49.9,170.4 L 48.0,169.0 L 46.0,167.5 L 45.7,167.3 L 44.1,166.1 L 42.3,164.7 L 40.8,163.7 L 40.0,163.0 L 40.2,162.2 L 42.0,160.7 L 44.1,159.2 L 46.3,157.5 L 48.2,156.1 L 49.7,155.4 L 52.1,156.1 L 54.9,157.2 L 56.1,157.7 L 57.5,158.2 L 59.8,159.2 L 62.1,160.3 L 62.1,160.7 L 61.2,161.9 L 61.3,162.8 L 62.0,162.8 L 63.7,160.9 L 64.3,159.2 L 63.2,158.5 L 60.9,157.7 L 58.5,156.7 L 57.5,156.3 L 141.0,79.1 L 141.9,80.4 L 143.2,81.8 L 144.8,83.6 L 146.2,85.1 L 148.2,86.6 L 150.7,87.8 L 151.3,88.5 L 152.8,90.6 L 154.1,92.3 L 155.3,94.2 L 157.0,96.0 L 156.9,97.7 L 157.6,98.7 L 157.7,99.9 L 158.2,100.9 L 159.1,101.9 L 158.4,103.0 L 159.1,103.5 L 159.7,102.5 L 160.2,102.8 L 162.6,104.2 L 163.2,104.4 L 166.1,104.4 L 168.5,104.3 L 170.1,104.4 L 170.8,104.4 L 173.5,105.3 L 175.7,105.8 L 176.2,109.9 L 166.8,109.5 L 166.8,111.2 L 168.6,111.3 L 168.6,110.4 L 171.6,110.6 L 171.6,111.4 L 173.1,111.5 L 173.1,110.6 L 176.1,110.8 L 176.1,111.5 L 177.6,111.6 L 177.6,110.8 L 180.6,110.9 L 180.5,111.7 L 182.0,111.8 L 182.1,111.0 L 185.1,111.1 L 185.1,111.9 L 187.0,112.0 L 187.1,110.4 L 177.6,109.9 L 176.8,105.9 L 178.8,105.9 L 181.2,105.8 L 183.7,105.7 L 186.8,105.3 L 186.6,105.7 L 186.4,107.7 L 190.0,108.2 L 191.9,108.4 L 192.1,106.3 L 188.0,105.9 L 188.0,105.1 L 190.8,104.4 L 193.5,103.6 L 195.1,103.6 L 198.0,104.1 L 199.1,104.7 L 200.0,104.8 L 202.8,104.5 L 202.9,103.4 L 203.9,103.0 L 206.6,102.8 L 209.2,102.4 L 212.0,101.5 L 214.3,100.8 L 216.4,99.3 L 218.7,97.9 L 220.9,96.6 L 223.1,95.5 L 225.5,94.3 L 227.9,93.9 L 230.2,92.7 L 232.5,91.1 L 234.4,89.7 L 236.5,88.1 L 238.5,86.9 L 240.5,85.8 L 242.5,84.5 L 244.3,83.2 L 246.6,81.7 L 248.4,80.0 L 250.0,78.6 L 251.5,77.3 L 252.0,76.8 L 254.0,75.2 L 256.2,74.0 L 257.3,73.7 L 259.7,72.9 L 260.6,71.9 L 263.0,71.0 L 263.3,71.3 L 268.5,69.5 L 269.8,71.2 L 271.2,70.7 L 270.7,71.8 L 268.5,71.7 L 268.5,72.4 L 272.3,72.6 L 272.4,71.9 L 271.6,71.7 L 271.8,70.3 L 273.6,69.4 L 275.2,74.5 L 276.2,74.3 L 274.4,69.0 L 276.2,68.9 L 278.8,69.6 L 281.4,70.6 L 283.6,71.8 L 286.0,72.9 L 288.4,73.9 L 289.3,74.8 L 291.1,76.2 L 292.9,77.8 L 293.9,78.8 L 295.2,80.4 L 295.2,80.5 L 295.9,82.0 L 297.2,83.5 L 298.7,85.0 L 301.5,87.5 L 302.6,88.4 L 303.5,88.7 L 304.2,89.6 L 305.2,90.7 L 307.7,94.4 L 308.5,95.4 L 309.2,96.4 L 309.8,97.1 L 310.1,97.6 L 310.5,98.0 L 310.4,98.8 L 310.4,99.9 L 310.6,100.8 L 311.1,102.1 L 311.2,102.1 L 309.0,105.3 L 309.7,105.6 L 311.9,102.4 L 315.8,105.1 L 315.4,105.5 L 314.9,105.2 L 314.8,105.3 L 314.1,106.9 L 313.8,107.5 L 313.3,108.2 L 312.6,109.4 L 311.6,109.4 L 310.7,108.6 L 310.2,109.2 L 316.4,114.4 L 316.3,114.5 L 311.6,127.9 L 313.2,128.4 L 317.8,115.4 L 321.1,116.6 L 323.3,117.4 L 321.1,123.9 L 321.0,124.2 L 320.7,125.3 L 321.0,125.4 L 321.1,125.3 L 324.0,123.4 L 326.0,118.0 L 327.5,118.5 L 327.4,118.6 L 326.6,121.2 L 326.7,122.0 L 326.8,122.1 L 328.4,122.6 L 329.0,120.2 L 329.2,120.2 L 331.2,123.9 L 330.0,124.5 L 329.7,126.0 L 329.8,127.2 L 330.1,128.1 L 330.7,129.4 L 331.4,130.6 L 331.8,131.5 L 332.1,132.5 L 330.7,133.4 L 335.4,140.4 L 336.1,140.3 L 336.7,141.8 L 337.2,142.7 L 338.1,145.1 L 338.8,146.3 L 339.3,146.8 L 338.7,147.0 L 341.0,153.9 L 342.1,153.5 L 342.5,154.8 L 342.9,156.3 L 343.4,157.7 L 344.5,160.7 L 345.1,162.0 L 345.0,163.2 L 345.0,163.9 L 345.6,165.3 L 346.4,167.1 L 347.1,168.9 L 348.7,171.8 L 349.3,173.1 L 350.3,174.3 L 351.1,175.5 L 352.2,176.3 L 352.9,177.1 L 353.2,177.7 L 353.6,179.1 L 354.4,181.2 L 354.9,182.2 L 355.7,183.4 L 356.8,184.8 L 357.7,185.2 L 358.0,185.8 L 358.3,187.5 L 358.5,190.0 L 358.8,193.0 L 359.0,196.0 L 359.3,198.8 L 359.5,201.5 L 359.7,206.6 L 360.0,212.3 L 360.0,213.6 L 359.9,214.3 L 358.9,214.0 L 358.2,215.5 L 358.1,215.4 L 357.9,213.5 L 356.0,213.5 L 356.2,216.4 L 355.7,219.3 L 355.4,220.2 L 354.9,222.3 L 354.9,222.5 L 355.3,223.1 L 353.4,229.7 L 353.1,231.0 L 352.7,230.9 L 352.6,231.0 L 352.1,232.9 L 353.2,233.0 L 352.8,234.1 L 352.6,235.3 L 350.7,234.7 L 349.2,239.5 L 349.2,239.6 L 350.6,240.0 L 350.6,240.5 L 349.5,243.1 L 349.3,244.3 L 348.3,248.1 L 348.3,248.8 L 348.7,249.8 L 348.7,249.9 L 349.1,249.9 L 348.9,250.1 L 348.8,250.7 L 348.0,251.9 L 346.6,253.8 L 345.3,254.8 L 342.8,256.2 L 337.9,256.8 L 321.1,266.5 L 318.0,268.3 L 318.0,268.4 L 319.3,270.8 L 316.0,272.8 L 315.5,271.9 L 313.4,273.1 L 313.4,273.2 L 314.0,274.3 L 313.7,274.4 L 311.0,276.7 L 309.7,277.7 L 308.8,278.7 L 308.5,279.2 L 308.3,280.6 L 308.1,280.9 L 307.1,281.6 L 304.1,282.9 L 303.2,283.6 L 303.2,283.7 L 301.2,284.1 L 300.7,284.9 L 300.5,285.5 L 300.5,285.8 L 301.4,287.0 L 303.3,287.5 L 303.4,287.6 L 304.2,288.1 L 306.7,289.0 L 308.3,289.0 L 308.7,289.3 L 309.4,290.2 L 310.1,291.6 L 310.7,292.7 L 310.8,293.5 L 310.9,293.9 L 311.8,294.3 L 312.1,294.2 L 312.6,293.6 L 313.0,292.8 L 313.1,292.7 L 314.0,293.1 L 314.6,293.2 L 315.6,293.2 L 316.6,292.8 L 317.0,292.4 L 317.2,291.6 L 317.7,290.6 L 318.9,290.1 L 319.6,290.0 L 320.3,290.0 L 320.9,290.3 L 321.1,290.5 L 321.7,291.3 L 323.2,294.0 L 324.7,295.3 L 325.2,297.9 L 325.5,299.2 L 278.9,331.1 L 278.4,329.4 L 278.1,327.0 L 279.5,324.7 L 280.3,322.1 L 280.2,322.1 L 280.6,321.1 L 279.1,320.4 L 278.4,320.4 L 278.5,320.9 L 277.1,321.6 L 276.4,321.4 L 274.5,319.3 L 274.0,317.8 L 273.7,317.0 L 272.9,315.1 L 272.1,313.0 L 270.9,310.5 L 269.4,308.4 L 268.0,306.2 L 266.9,304.6 L 265.3,302.5 L 263.4,300.3 L 263.4,298.9 L 264.2,296.3 L 264.2,295.6 L 263.6,294.2 L 262.6,291.5 L 261.9,290.4 L 260.3,290.1 L 259.7,289.7 L 257.6,288.0 L 255.9,287.0 L 253.5,285.7 L 251.5,284.3 L 250.9,284.2 L 250.1,284.2" fill="none" stroke="black" stroke-width="2"/>
</svg>