<?xml version="1.0" encoding="UTF-8"?>
<svg width="400" height="400" viewBox="0 0 400 400" xmlns="http://www.w3.org/2000/svg">
  <rect width="400" height="400" fill="white"/>
  <path d="M 177.7,207.0 L 177.3,206.9 L 175.1,205.3 L 173.7,205.2 L 172.3,204.3 L 170.4,202.5 L 168.6,201.7 L 167.4,201.6 L 166.4,200.9 L 163.4,198.3 L 160.9,197.1 L 158.5,196.3 L 157.7,195.7 L 157.7,193.5 L 158.1,192.8 L 158.3,192.3 L 157.4,191.5 L 155.4,191.1 L 152.2,190.9 L 151.9,190.7 L 151.2,190.8 L 149.6,192.2 L 147.2,192.4 L 146.0,192.7 L 144.5,193.4 L 142.3,193.6 L 141.5,193.4 L 139.6,193.4 L 136.1,191.9 L 134.5,191.5 L 133.0,190.8 L 131.4,189.3 L 130.0,189.3 L 128.5,189.0 L 128.3,188.9 L 127.4,188.3 L 127.0,188.1 L 126.4,187.8 L 124.0,187.2 L 120.2,186.0 L 119.6,185.8 L 118.0,185.4 L 115.7,183.9 L 113.8,183.9 L 111.6,182.5 L 110.6,182.3 L 108.8,181.6 L 102.6,180.5 L 100.5,179.3 L 98.0,178.2 L 96.4,177.0 L 95.7,176.2 L 94.3,175.4 L 90.7,172.0 L 89.9,171.9 L 89.5,171.6 L 88.1,171.7 L 87.7,171.3 L 87.3,171.4 L 85.5,170.6 L 85.1,170.0 L 84.6,169.4 L 83.9,168.0 L 82.5,167.2 L 81.1,166.8 L 79.9,166.6 L 79.1,166.0 L 78.4,165.7 L 77.9,165.1 L 77.2,164.3 L 75.9,163.5 L 75.0,163.1 L 73.8,163.1 L 73.2,162.6 L 72.5,162.4 L 70.2,161.2 L 69.1,160.7 L 66.7,158.7 L 65.0,158.0 L 62.9,156.7 L 62.1,155.9 L 61.9,155.1 L 61.4,154.7 L 60.0,154.4 L 59.0,152.7 L 57.5,150.4 L 57.2,149.4 L 57.2,149.3 L 56.8,148.6 L 57.2,148.4 L 58.3,147.7 L 58.7,146.8 L 58.4,146.2 L 57.2,145.5 L 56.3,145.1 L 55.1,144.5 L 53.7,144.2 L 53.6,143.7 L 54.0,143.1 L 54.0,142.8 L 53.6,142.4 L 52.4,143.1 L 51.2,144.2 L 51.2,144.2 L 50.2,144.8 L 49.7,144.8 L 48.7,144.7 L 47.7,144.5 L 47.1,144.3 L 46.7,144.1 L 45.9,143.5 L 45.1,142.7 L 44.4,142.0 L 44.2,141.6 L 44.8,140.8 L 44.8,140.5 L 44.0,140.9 L 43.8,140.8 L 43.2,139.8 L 42.6,138.9 L 42.0,137.8 L 41.6,136.8 L 41.2,135.7 L 40.9,134.7 L 40.6,133.6 L 40.6,133.2 L 40.5,133.1 L 40.5,132.2 L 40.2,131.3 L 40.1,130.4 L 40.0,130.0 L 59.0,117.0 L 59.0,117.1 L 59.8,118.0 L 60.1,118.2 L 60.4,118.3 L 61.0,118.4 L 61.7,118.4 L 62.0,118.5 L 62.2,118.6 L 62.7,119.1 L 63.2,119.4 L 63.7,119.8 L 64.3,120.1 L 64.9,120.2 L 65.1,120.3 L 65.7,120.8 L 65.7,121.0 L 65.7,121.2 L 65.5,121.7 L 65.2,122.2 L 65.0,122.4 L 64.3,122.5 L 63.9,122.6 L 63.8,122.8 L 63.5,123.6 L 63.2,124.3 L 62.9,124.8 L 62.7,124.9 L 62.1,125.2 L 61.6,125.6 L 61.1,125.9 L 60.5,125.7 L 59.9,125.7 L 59.2,125.7 L 59.1,125.6 L 58.8,125.3 L 58.4,124.9 L 58.1,124.4 L 57.9,124.1 L 57.7,123.7 L 57.4,122.9 L 57.3,122.7 L 57.2,122.7 L 57.2,122.7 L 56.9,122.7 L 56.9,122.8 L 56.9,123.1 L 57.1,123.4 L 57.2,123.6 L 58.0,125.0 L 58.6,126.1 L 58.8,126.8 L 59.4,128.1 L 60.0,129.2 L 60.3,129.5 L 60.6,130.1 L 61.2,130.3 L 62.4,130.2 L 62.6,130.3 L 62.6,130.4 L 62.6,130.7 L 62.5,131.4 L 62.6,131.5 L 63.0,131.8 L 63.4,131.8 L 64.0,131.0 L 64.4,130.6 L 64.7,130.4 L 64.9,130.3 L 65.9,130.2 L 66.7,130.3 L 67.3,130.2 L 67.8,130.0 L 68.5,129.7 L 69.7,129.2 L 71.2,129.0 L 72.0,128.9 L 72.6,129.1 L 72.9,129.3 L 73.3,129.6 L 73.5,129.7 L 73.8,129.7 L 74.2,129.4 L 74.7,129.1 L 74.9,128.8 L 75.0,128.4 L 74.9,128.2 L 74.8,127.8 L 74.7,127.6 L 74.7,127.5 L 74.9,127.1 L 75.1,126.6 L 75.2,126.0 L 75.3,125.7 L 75.3,125.5 L 75.5,125.3 L 76.1,125.0 L 76.3,124.8 L 76.5,124.5 L 76.8,124.1 L 76.7,123.7 L 76.7,123.2 L 76.7,122.8 L 77.2,122.3 L 78.3,121.4 L 79.1,120.9 L 79.8,120.6 L 80.1,120.5 L 80.3,120.4 L 80.4,120.5 L 80.5,120.6 L 80.5,121.2 L 80.5,122.0 L 80.4,122.4 L 80.4,122.6 L 80.2,122.7 L 80.0,123.0 L 80.1,123.6 L 80.0,124.6 L 79.8,125.4 L 79.6,125.7 L 80.0,126.5 L 80.8,126.4 L 81.2,126.9 L 81.4,127.5 L 81.5,128.0 L 81.4,128.2 L 81.1,128.5 L 80.7,128.7 L 80.6,128.9 L 80.6,129.0 L 81.2,129.6 L 81.7,129.8 L 82.0,129.9 L 82.8,129.8 L 83.3,129.5 L 84.4,129.5 L 84.7,129.3 L 85.4,128.8 L 85.9,128.3 L 86.0,128.0 L 86.0,127.4 L 86.0,127.0 L 85.9,126.9 L 85.0,126.2 L 85.0,126.1 L 84.9,125.5 L 84.9,125.0 L 85.2,124.4 L 85.5,123.1 L 86.2,121.7 L 86.7,120.6 L 86.9,120.2 L 87.3,119.9 L 87.6,119.8 L 87.9,119.9 L 88.0,120.0 L 88.3,120.3 L 88.4,120.7 L 88.5,121.1 L 88.7,121.4 L 89.4,121.8 L 91.0,122.4 L 91.4,122.8 L 92.1,123.5 L 92.1,123.6 L 92.1,123.7 L 91.7,123.9 L 91.3,124.2 L 90.9,124.6 L 90.7,124.8 L 90.7,125.4 L 90.9,125.8 L 91.5,126.7 L 91.6,127.3 L 91.1,127.7 L 91.1,127.9 L 91.1,128.4 L 91.8,129.7 L 91.8,129.7 L 91.8,130.0 L 91.5,130.6 L 91.0,131.5 L 90.6,132.4 L 90.6,132.7 L 90.7,133.1 L 90.7,133.2 L 90.9,133.7 L 92.1,135.1 L 92.6,135.4 L 93.1,135.5 L 93.3,135.4 L 93.7,135.2 L 93.9,135.2 L 94.6,135.4 L 94.9,135.4 L 95.5,135.0 L 95.7,134.9 L 96.0,134.9 L 96.3,135.1 L 96.5,135.3 L 96.5,135.6 L 96.4,135.9 L 95.9,136.5 L 95.8,136.8 L 95.8,137.4 L 95.8,137.8 L 95.9,138.4 L 96.0,138.6 L 96.6,139.3 L 97.0,139.5 L 97.7,139.8 L 98.1,139.8 L 98.8,140.3 L 98.9,140.6 L 99.1,140.8 L 99.3,141.2 L 99.6,141.3 L 99.9,141.3 L 100.1,141.5 L 100.5,141.7 L 100.7,141.9 L 100.8,141.9 L 100.9,141.9 L 100.9,141.8 L 101.1,142.1 L 101.8,142.3 L 102.2,142.6 L 102.5,143.0 L 102.9,143.7 L 103.1,143.8 L 103.3,144.0 L 104.1,144.2 L 104.7,144.2 L 104.8,144.1 L 105.1,144.1 L 105.5,144.2 L 105.8,144.2 L 106.2,144.3 L 106.6,144.5 L 107.1,144.7 L 107.4,144.6 L 107.8,144.5 L 108.2,144.3 L 108.4,144.0 L 108.6,143.8 L 109.2,143.8 L 109.6,143.6 L 112.9,143.8 L 114.3,143.9 L 114.7,144.1 L 114.8,144.1 L 116.2,145.7 L 117.8,146.6 L 118.6,147.1 L 118.8,147.5 L 119.3,147.7 L 120.0,147.7 L 121.4,147.7 L 121.5,147.8 L 122.8,148.5 L 124.7,148.5 L 125.6,148.8 L 126.3,149.4 L 127.0,149.6 L 127.8,150.2 L 128.4,150.4 L 129.3,151.1 L 129.6,151.7 L 130.8,151.6 L 131.9,153.3 L 132.5,153.3 L 133.0,153.7 L 134.3,154.1 L 135.2,154.8 L 135.8,154.9 L 136.8,155.3 L 137.3,155.8 L 137.5,156.0 L 138.4,156.1 L 138.7,156.1 L 139.5,157.1 L 140.3,158.0 L 141.5,158.8 L 141.5,158.9 L 142.9,160.5 L 144.1,161.1 L 145.0,162.3 L 144.8,163.3 L 145.7,164.3 L 146.3,165.5 L 146.5,166.6 L 147.5,167.4 L 150.5,167.0 L 151.8,166.6 L 153.6,166.2 L 156.5,166.1 L 157.4,166.6 L 162.9,167.3 L 163.6,168.2 L 166.2,168.2 L 167.0,168.7 L 168.3,171.1 L 168.6,172.1 L 168.8,172.5 L 170.1,173.6 L 171.2,174.2 L 173.6,175.0 L 175.2,175.0 L 176.2,175.1 L 177.7,175.0 L 178.0,175.0 L 179.8,174.4 L 181.6,174.0 L 182.8,174.1 L 184.6,174.4 L 186.4,175.0 L 187.3,175.7 L 188.6,176.6 L 191.4,176.0 L 192.3,176.0 L 193.0,176.0 L 194.0,176.3 L 195.7,177.2 L 197.9,177.2 L 198.9,177.5 L 201.4,179.5 L 202.2,179.8 L 205.9,180.1 L 208.8,180.3 L 211.0,180.9 L 213.4,181.7 L 215.2,182.7 L 217.3,183.6 L 221.6,185.2 L 223.7,186.0 L 226.3,187.4 L 226.7,187.5 L 228.9,189.1 L 230.6,189.5 L 232.4,190.2 L 234.8,191.8 L 237.8,192.4 L 242.9,195.8 L 244.8,196.4 L 246.2,197.2 L 247.4,198.3 L 249.8,199.5 L 252.2,200.9 L 256.2,204.7 L 256.8,205.2 L 258.4,205.9 L 259.7,206.9 L 261.4,207.3 L 261.7,207.3 L 262.8,207.7 L 265.8,208.0 L 270.0,211.6 L 270.8,212.7 L 271.5,213.7 L 272.3,214.4 L 273.2,215.3 L 274.8,216.6 L 277.5,218.1 L 278.2,218.3 L 280.6,219.5 L 281.7,219.6 L 281.9,220.2 L 282.7,220.6 L 284.2,221.8 L 286.2,222.5 L 289.0,223.0 L 291.6,223.7 L 292.8,224.3 L 294.0,224.5 L 296.1,226.0 L 297.6,227.4 L 298.2,227.8 L 299.1,228.3 L 301.7,229.6 L 305.0,231.0 L 305.5,231.2 L 310.0,232.5 L 312.7,233.0 L 319.6,233.9 L 321.5,234.7 L 321.8,235.3 L 323.3,235.4 L 324.5,235.7 L 324.8,235.8 L 326.1,236.1 L 326.3,236.1 L 328.7,236.8 L 328.9,236.8 L 330.3,236.9 L 332.7,237.6 L 334.0,238.4 L 334.2,238.7 L 334.5,239.2 L 334.5,239.3 L 334.7,239.5 L 336.0,239.7 L 336.5,239.2 L 337.3,239.3 L 339.0,240.2 L 341.8,242.2 L 342.2,242.2 L 342.5,242.6 L 343.8,243.7 L 344.2,243.9 L 344.9,244.6 L 345.9,245.1 L 347.6,246.3 L 350.5,248.8 L 352.0,250.6 L 352.2,250.8 L 353.0,252.0 L 353.4,252.5 L 353.5,253.6 L 353.7,254.3 L 353.6,255.2 L 352.9,255.1 L 351.1,255.7 L 349.5,256.1 L 348.4,257.2 L 347.7,257.9 L 346.8,259.7 L 345.5,260.6 L 342.6,263.8 L 341.9,265.6 L 341.8,266.6 L 342.2,267.8 L 343.0,269.0 L 344.2,269.8 L 347.0,271.9 L 354.1,273.8 L 355.3,274.4 L 356.5,275.6 L 358.2,278.7 L 359.2,279.8 L 358.5,279.9 L 358.3,280.1 L 358.6,280.6 L 359.4,280.6 L 359.7,280.8 L 359.7,281.1 L 359.3,281.4 L 359.4,281.7 L 359.6,282.0 L 359.7,282.1 L 360.0,282.4 L 359.3,283.0 L 355.5,279.4 L 355.4,279.2 L 355.3,279.2 L 355.1,279.1 L 354.9,278.6 L 354.5,278.1 L 353.7,277.2 L 353.3,276.7 L 353.0,276.2 L 352.3,275.2 L 351.9,274.8 L 351.4,274.5 L 350.5,274.2 L 349.9,274.1 L 348.5,274.2 L 347.6,274.4 L 345.5,274.8 L 343.5,274.9 L 342.6,275.0 L 342.0,275.3 L 340.9,275.7 L 340.5,276.2 L 340.0,277.2 L 339.8,277.5 L 338.1,277.7 L 337.2,276.9 L 336.8,276.3 L 336.0,276.1 L 334.9,276.1 L 333.1,274.7 L 331.5,274.1 L 330.1,274.1 L 330.0,273.7 L 330.6,273.0 L 330.5,272.4 L 329.5,272.2 L 327.9,272.9 L 326.9,273.7 L 325.7,275.2 L 325.1,275.9 L 324.9,275.8 L 324.2,275.5 L 323.8,275.4 L 323.6,275.4 L 322.9,275.7 L 322.4,276.1 L 322.2,276.3 L 321.8,276.6 L 321.7,276.8 L 321.5,277.4 L 321.3,277.5 L 320.8,278.2 L 320.6,278.6 L 320.7,278.7 L 320.8,279.0 L 320.8,279.1 L 320.8,279.1 L 320.6,279.5 L 319.6,279.6 L 318.9,280.1 L 318.3,280.0 L 316.7,279.9 L 310.8,279.2 L 308.7,279.3 L 306.9,279.2 L 306.8,279.3 L 306.3,279.1 L 304.5,278.7 L 303.0,278.1 L 301.6,276.9 L 298.6,276.9 L 298.2,276.5 L 297.7,276.1 L 297.1,275.3 L 291.6,271.1 L 288.3,268.9 L 285.6,267.8 L 285.0,267.3 L 283.6,266.0 L 281.3,265.0 L 280.0,264.6 L 278.4,264.5 L 275.0,262.6 L 273.7,261.3 L 272.1,258.3 L 270.9,256.8 L 268.2,255.5 L 267.0,255.1 L 265.9,253.9 L 265.6,253.6 L 264.7,252.4 L 264.1,251.6 L 263.3,251.1 L 261.9,249.8 L 256.6,246.7 L 256.0,246.2 L 255.0,245.9 L 254.3,245.3 L 254.2,244.9 L 253.8,244.6 L 252.9,244.1 L 252.1,243.3 L 249.5,241.4 L 247.1,240.2 L 245.3,239.1 L 241.7,234.3 L 240.1,232.0 L 239.6,230.6 L 238.3,229.8 L 237.7,229.6 L 236.3,229.9 L 235.4,230.2 L 234.1,230.3 L 233.4,230.1 L 232.1,230.3 L 231.1,230.8 L 230.9,230.7 L 229.6,231.1 L 228.0,231.5 L 225.5,230.3 L 224.6,229.7 L 223.5,229.4 L 222.8,228.9 L 222.5,228.2 L 219.8,225.9 L 219.1,225.0 L 217.8,224.5 L 216.6,224.2 L 215.6,223.9 L 210.3,222.8 L 208.6,221.6 L 208.3,221.2 L 208.3,220.7 L 207.8,220.6 L 207.6,220.2 L 206.5,219.4 L 206.2,218.8 L 204.8,218.0 L 203.6,217.7 L 201.8,217.6 L 201.1,217.8 L 199.9,217.9 L 197.4,217.1 L 195.5,216.1 L 193.8,214.8 L 191.2,213.2 L 184.9,209.3 L 184.0,208.9 L 182.0,209.0 L 179.3,207.5 L 177.7,207.0" fill="none" stroke="black" stroke-width="2"/>
</svg>