<?xml version="1.0" encoding="UTF-8"?>
<svg width="400" height="400" viewBox="0 0 400 400" xmlns="http://www.w3.org/2000/svg">
  <rect width="400" height="400" fill="white"/>
  <path d="M 62.9,305.3 L 140.6,173.6 L 140.6,173.6 L 140.8,173.6 L 141.5,173.6 L 142.3,173.4 L 142.8,172.7 L 143.1,172.4 L 143.3,171.8 L 143.9,171.9 L 144.5,171.6 L 144.9,170.8 L 144.9,169.8 L 146.0,170.0 L 146.3,169.6 L 146.6,169.0 L 147.0,168.4 L 147.3,166.9 L 147.5,166.3 L 149.4,165.6 L 149.8,165.3 L 149.8,164.8 L 149.8,164.6 L 148.8,164.5 L 148.5,164.3 L 147.8,164.2 L 147.2,164.6 L 146.6,164.7 L 146.1,165.2 L 143.7,165.2 L 149.7,154.4 L 149.7,154.5 L 150.3,154.8 L 150.7,154.8 L 151.4,154.1 L 152.0,154.2 L 152.4,154.4 L 152.8,154.3 L 153.6,153.8 L 153.9,152.9 L 154.0,152.1 L 154.9,151.7 L 154.9,150.6 L 155.9,149.9 L 156.5,149.0 L 156.7,147.8 L 156.9,147.6 L 157.9,147.3 L 158.5,146.8 L 159.7,146.7 L 161.8,145.4 L 162.5,144.8 L 163.4,144.3 L 163.7,144.0 L 163.5,143.3 L 162.9,143.2 L 162.4,143.4 L 160.8,143.4 L 160.8,143.4 L 179.8,123.5 L 180.8,123.5 L 181.7,123.1 L 186.1,120.7 L 186.9,120.1 L 186.9,119.7 L 186.6,119.2 L 185.6,119.2 L 231.5,57.0 L 231.8,57.5 L 231.9,58.2 L 232.9,59.2 L 233.9,59.0 L 234.5,58.4 L 234.6,57.3 L 235.6,56.2 L 236.8,52.4 L 236.7,51.6 L 236.5,51.1 L 243.0,46.1 L 243.0,46.1 L 243.3,46.5 L 243.8,46.6 L 244.3,46.2 L 244.6,46.1 L 245.9,45.5 L 246.7,45.4 L 247.0,45.6 L 247.1,46.4 L 247.4,46.7 L 248.5,46.6 L 249.2,46.1 L 249.6,45.0 L 249.7,43.7 L 249.5,43.4 L 259.8,40.4 L 259.9,40.8 L 260.1,41.1 L 260.5,40.7 L 260.5,40.2 L 261.1,40.0 L 261.1,40.0 L 261.4,40.6 L 261.4,41.6 L 262.0,42.6 L 262.4,42.7 L 264.1,42.0 L 264.1,42.2 L 263.4,44.0 L 262.6,45.0 L 262.4,45.4 L 262.4,46.6 L 263.5,48.0 L 263.5,48.0 L 264.3,48.9 L 264.4,49.5 L 263.9,50.2 L 264.0,51.2 L 263.9,52.4 L 263.2,53.3 L 263.1,54.7 L 263.6,55.8 L 263.6,57.5 L 263.9,59.3 L 264.3,60.0 L 264.9,62.2 L 265.0,63.1 L 265.2,63.5 L 265.7,63.5 L 266.0,63.0 L 266.8,63.0 L 267.1,64.0 L 267.2,65.9 L 267.0,66.7 L 266.7,67.8 L 266.3,68.5 L 264.8,69.4 L 262.8,70.2 L 262.8,70.6 L 263.0,71.1 L 264.5,73.0 L 264.8,73.8 L 264.9,74.5 L 264.2,75.4 L 264.1,75.7 L 264.0,76.4 L 263.4,77.0 L 262.6,77.2 L 262.1,77.8 L 261.6,78.6 L 261.5,79.1 L 261.7,79.5 L 261.7,81.6 L 261.9,82.7 L 262.2,84.1 L 262.6,85.1 L 263.2,85.8 L 264.3,86.6 L 265.6,87.1 L 267.6,87.1 L 268.5,86.7 L 268.7,86.0 L 269.3,85.9 L 270.2,86.3 L 271.3,86.4 L 271.6,86.3 L 271.9,85.6 L 272.3,85.6 L 274.7,87.3 L 276.2,88.0 L 276.4,88.1 L 279.5,89.6 L 280.8,90.5 L 281.0,90.8 L 281.0,91.3 L 279.8,93.3 L 279.0,93.5 L 278.3,94.2 L 278.1,95.1 L 278.1,97.8 L 278.3,99.0 L 278.8,100.0 L 278.8,102.4 L 279.3,103.1 L 280.1,103.7 L 280.8,103.6 L 281.5,103.0 L 282.1,103.0 L 282.8,103.4 L 283.3,103.3 L 283.6,102.9 L 285.0,102.1 L 285.3,101.7 L 285.7,100.9 L 286.1,100.4 L 287.3,100.5 L 288.1,101.0 L 288.1,102.0 L 288.3,102.4 L 289.6,103.7 L 290.7,105.4 L 291.2,105.7 L 293.1,106.7 L 294.4,107.2 L 295.4,107.5 L 297.2,108.2 L 297.7,108.1 L 298.3,107.9 L 300.4,107.4 L 303.8,106.7 L 304.6,106.7 L 304.0,106.8 L 302.6,107.6 L 301.4,107.9 L 298.3,109.4 L 297.8,109.7 L 295.2,110.8 L 293.9,111.6 L 293.3,112.5 L 293.1,113.3 L 293.4,114.3 L 293.7,114.7 L 295.1,115.6 L 296.2,115.8 L 296.2,116.2 L 295.8,116.5 L 293.2,117.1 L 290.7,117.2 L 289.4,117.4 L 287.9,118.0 L 286.4,120.0 L 286.1,120.9 L 286.1,122.6 L 286.8,123.2 L 287.2,123.3 L 291.7,123.8 L 293.3,124.1 L 296.8,123.9 L 297.1,123.8 L 297.9,123.5 L 298.2,123.0 L 298.3,122.7 L 298.3,122.7 L 298.6,122.4 L 298.9,122.2 L 299.4,121.7 L 299.6,120.9 L 299.6,119.6 L 300.3,118.4 L 300.2,117.7 L 299.7,117.0 L 299.0,116.5 L 298.3,116.3 L 298.0,116.2 L 298.0,115.5 L 298.3,115.2 L 298.4,115.0 L 300.2,114.0 L 303.0,113.4 L 305.2,112.4 L 305.8,111.9 L 307.2,110.0 L 307.8,109.9 L 308.2,110.9 L 308.2,111.4 L 307.8,112.1 L 307.8,112.7 L 307.7,114.1 L 307.4,114.5 L 306.5,114.8 L 305.7,115.4 L 304.4,117.0 L 304.2,119.5 L 304.4,120.4 L 305.6,121.6 L 306.1,122.0 L 308.7,121.9 L 309.3,121.4 L 310.8,121.1 L 311.3,120.7 L 311.5,120.2 L 312.7,118.9 L 313.7,117.5 L 314.2,116.9 L 314.3,115.9 L 314.5,115.6 L 314.5,114.7 L 314.2,113.9 L 314.0,113.0 L 313.7,112.3 L 314.1,111.5 L 314.1,110.5 L 314.7,110.1 L 315.7,109.9 L 316.2,109.6 L 316.8,109.7 L 317.4,110.1 L 317.9,110.0 L 318.5,109.5 L 319.2,109.3 L 319.4,109.4 L 319.7,109.4 L 320.9,109.5 L 321.8,109.6 L 322.7,109.6 L 323.6,108.2 L 324.0,107.9 L 323.9,106.6 L 323.7,105.7 L 323.5,104.1 L 322.8,103.5 L 322.5,103.5 L 322.2,102.9 L 321.9,101.9 L 321.7,101.1 L 322.0,99.3 L 321.9,97.2 L 321.4,94.3 L 321.5,93.9 L 321.8,93.7 L 322.2,93.8 L 322.6,94.2 L 323.9,95.0 L 326.0,96.9 L 326.6,97.3 L 327.4,97.5 L 329.4,99.3 L 330.5,99.2 L 330.8,99.0 L 331.9,98.9 L 332.3,99.2 L 333.7,100.5 L 333.7,100.8 L 333.6,101.2 L 333.4,102.0 L 333.0,102.2 L 332.7,102.9 L 332.7,104.0 L 333.0,104.1 L 333.6,103.8 L 334.6,102.7 L 335.5,102.7 L 335.9,103.0 L 336.0,103.5 L 335.8,103.9 L 335.0,105.2 L 334.5,106.7 L 334.3,107.8 L 333.7,110.1 L 333.1,110.8 L 330.8,112.5 L 330.0,113.6 L 329.4,115.3 L 329.3,116.9 L 329.1,118.2 L 328.3,120.4 L 327.2,121.9 L 327.1,122.3 L 327.7,123.1 L 328.7,123.6 L 330.0,123.7 L 330.3,123.1 L 330.4,122.3 L 331.4,122.2 L 331.9,122.8 L 331.7,123.8 L 332.1,124.8 L 331.6,125.8 L 331.6,126.9 L 332.4,127.4 L 333.8,128.1 L 334.4,128.0 L 335.6,126.8 L 336.2,125.5 L 336.6,124.4 L 337.2,123.8 L 337.9,122.2 L 338.1,120.7 L 338.6,120.2 L 339.3,119.8 L 339.8,119.5 L 340.5,119.6 L 340.9,120.7 L 341.7,121.6 L 341.4,122.7 L 340.7,123.7 L 339.9,124.5 L 339.6,125.2 L 339.4,126.1 L 338.6,128.0 L 338.6,129.0 L 339.3,130.0 L 339.4,130.5 L 339.1,131.0 L 339.0,131.7 L 339.2,132.0 L 339.8,132.2 L 304.7,168.4 L 304.3,168.1 L 302.5,166.9 L 301.9,166.2 L 301.0,165.9 L 300.6,165.5 L 300.6,164.8 L 300.4,164.6 L 300.4,163.7 L 300.1,163.8 L 299.8,164.0 L 299.5,163.9 L 299.3,163.6 L 299.3,162.6 L 298.6,161.5 L 298.5,161.3 L 298.3,161.3 L 297.2,161.4 L 297.5,160.9 L 298.3,159.7 L 298.4,159.6 L 299.7,158.0 L 300.0,157.3 L 300.5,156.9 L 300.8,156.1 L 300.7,155.1 L 300.4,154.9 L 299.2,154.4 L 298.3,153.5 L 298.3,153.4 L 297.2,153.2 L 295.0,153.2 L 294.3,153.4 L 293.7,152.8 L 291.6,152.8 L 291.1,153.4 L 290.7,153.3 L 290.6,152.6 L 290.0,152.4 L 287.4,152.4 L 285.9,153.3 L 285.4,153.8 L 284.5,153.7 L 283.7,153.0 L 283.2,152.9 L 282.5,152.7 L 281.9,152.7 L 281.4,153.1 L 280.4,153.1 L 280.3,153.7 L 279.7,153.4 L 278.7,153.7 L 278.1,154.0 L 277.3,154.2 L 276.4,154.1 L 275.9,153.5 L 274.2,153.5 L 273.7,152.9 L 273.5,152.3 L 273.6,151.4 L 273.4,150.7 L 273.5,150.2 L 273.8,150.1 L 274.7,150.2 L 275.1,150.1 L 275.6,149.7 L 275.6,149.1 L 275.2,148.0 L 273.5,147.9 L 272.3,147.5 L 271.9,146.9 L 272.6,146.8 L 271.8,145.6 L 271.3,145.5 L 270.9,145.9 L 270.5,146.9 L 269.3,147.9 L 269.4,149.8 L 269.3,150.0 L 268.7,150.1 L 268.1,150.4 L 267.7,150.5 L 267.7,149.5 L 268.1,147.6 L 268.2,146.3 L 268.0,146.0 L 266.3,145.9 L 266.2,145.5 L 266.3,145.0 L 266.2,144.6 L 264.7,143.6 L 263.7,143.1 L 263.2,143.1 L 261.9,142.7 L 260.7,142.6 L 259.4,142.7 L 257.3,143.3 L 255.6,143.4 L 254.5,142.8 L 253.7,142.7 L 253.3,142.8 L 252.7,143.6 L 251.7,145.1 L 251.4,146.1 L 250.8,146.9 L 250.3,148.2 L 249.6,148.7 L 248.0,148.8 L 245.1,148.9 L 244.0,147.7 L 243.7,147.0 L 243.5,145.4 L 243.2,144.4 L 242.5,143.6 L 241.9,143.2 L 241.1,142.8 L 237.8,142.7 L 235.7,143.0 L 234.9,143.0 L 233.9,142.7 L 232.6,142.0 L 229.9,141.8 L 226.9,141.7 L 225.4,141.2 L 224.2,140.6 L 221.9,139.7 L 219.2,138.5 L 218.2,138.3 L 216.9,137.8 L 215.5,137.6 L 212.5,137.4 L 212.2,137.3 L 210.5,137.2 L 207.7,137.3 L 206.0,137.3 L 204.9,137.7 L 203.7,138.3 L 202.2,138.8 L 199.4,139.3 L 198.4,139.8 L 198.1,140.4 L 197.8,140.7 L 195.5,140.6 L 195.2,140.9 L 195.5,141.5 L 195.1,141.7 L 194.4,142.4 L 194.4,143.0 L 194.8,143.5 L 194.9,143.8 L 194.7,144.1 L 194.0,144.3 L 192.4,144.5 L 190.9,145.2 L 190.1,145.9 L 189.7,146.8 L 189.5,147.5 L 189.8,147.8 L 189.9,148.1 L 189.4,148.7 L 189.0,149.5 L 189.0,152.3 L 188.9,153.6 L 188.4,154.5 L 187.3,156.1 L 187.3,157.3 L 187.5,158.0 L 188.0,158.4 L 189.3,158.5 L 189.6,158.6 L 189.6,159.3 L 188.7,159.8 L 188.5,159.8 L 186.6,161.5 L 186.6,161.5 L 185.4,162.3 L 185.4,165.1 L 184.9,165.7 L 185.1,167.0 L 185.2,167.3 L 186.8,167.3 L 187.1,167.5 L 187.3,168.7 L 187.8,169.8 L 187.9,170.4 L 187.0,173.3 L 185.5,179.4 L 184.7,181.8 L 184.0,183.9 L 183.9,184.9 L 183.6,185.7 L 182.4,186.7 L 181.9,187.7 L 181.3,188.6 L 180.3,189.4 L 179.3,190.8 L 178.5,191.6 L 178.2,191.7 L 177.8,191.9 L 177.2,192.5 L 176.6,192.8 L 175.8,193.1 L 175.4,193.7 L 174.3,194.7 L 173.1,195.5 L 172.8,195.7 L 172.5,196.0 L 172.4,196.5 L 171.3,197.1 L 170.9,197.8 L 170.3,198.1 L 170.0,198.4 L 170.4,199.1 L 170.2,199.5 L 170.2,199.8 L 170.6,199.9 L 170.8,200.1 L 170.3,201.3 L 170.1,203.6 L 170.0,204.2 L 167.9,205.9 L 165.4,208.6 L 164.1,209.6 L 163.6,209.8 L 162.6,210.7 L 162.3,211.5 L 161.2,213.2 L 160.4,214.4 L 160.2,216.1 L 160.7,216.6 L 161.4,216.8 L 161.4,217.2 L 161.7,217.5 L 162.2,217.6 L 162.7,218.1 L 163.5,218.4 L 164.4,218.3 L 166.0,217.9 L 166.4,217.8 L 166.1,218.0 L 164.8,218.9 L 164.7,219.5 L 164.1,219.7 L 163.7,220.1 L 163.6,220.6 L 163.2,220.7 L 162.4,220.4 L 162.3,220.7 L 162.5,220.9 L 164.1,221.5 L 165.0,221.4 L 166.0,221.0 L 167.4,220.6 L 169.0,220.7 L 170.7,219.9 L 172.4,219.3 L 173.4,218.6 L 174.5,218.5 L 175.4,217.9 L 175.8,217.0 L 175.8,215.7 L 176.1,215.5 L 176.6,215.3 L 176.7,215.3 L 178.1,215.3 L 179.3,216.8 L 180.7,218.0 L 181.3,219.5 L 181.3,221.1 L 181.4,221.8 L 181.5,223.4 L 181.7,224.1 L 182.1,225.1 L 183.6,226.9 L 186.1,229.1 L 187.2,229.7 L 188.3,231.3 L 189.5,232.1 L 191.7,233.0 L 195.7,233.0 L 196.4,233.2 L 197.8,234.0 L 198.4,234.2 L 198.9,234.9 L 199.2,235.8 L 199.6,236.3 L 200.6,237.9 L 201.2,238.5 L 201.7,238.5 L 202.2,238.0 L 203.2,237.8 L 207.1,238.0 L 207.7,237.7 L 208.4,237.9 L 209.2,238.4 L 209.7,238.3 L 209.9,238.0 L 209.8,237.5 L 209.1,236.9 L 209.2,236.2 L 209.7,236.0 L 210.2,236.0 L 210.6,235.5 L 212.4,234.9 L 212.5,234.9 L 213.9,235.1 L 215.7,235.3 L 216.5,235.6 L 217.7,235.5 L 220.9,234.8 L 225.2,234.5 L 229.0,234.4 L 231.0,234.5 L 231.8,234.4 L 232.6,233.7 L 235.8,232.7 L 237.0,231.9 L 237.9,232.0 L 238.6,232.3 L 239.8,232.2 L 240.6,231.6 L 241.0,231.2 L 242.3,230.0 L 243.2,229.0 L 243.7,228.8 L 244.3,228.8 L 244.6,228.5 L 245.0,226.7 L 245.4,225.9 L 245.7,224.3 L 245.8,222.7 L 246.1,221.9 L 246.6,221.4 L 247.2,221.6 L 247.6,221.5 L 247.9,221.1 L 247.9,220.6 L 247.5,220.2 L 246.9,220.1 L 246.7,219.8 L 246.8,219.1 L 247.9,217.6 L 247.9,216.6 L 247.4,215.7 L 246.4,214.4 L 245.8,213.8 L 244.7,213.4 L 244.0,213.2 L 243.7,212.5 L 243.4,211.1 L 243.5,210.8 L 243.8,210.4 L 244.4,210.1 L 244.8,210.2 L 245.4,211.5 L 246.4,212.3 L 247.4,212.6 L 248.1,212.6 L 248.4,212.6 L 249.3,212.6 L 249.8,212.1 L 250.4,210.5 L 250.4,206.8 L 250.1,205.5 L 249.9,205.3 L 249.9,204.8 L 250.3,204.1 L 250.6,203.1 L 250.6,201.7 L 250.4,200.8 L 250.5,198.8 L 251.3,197.3 L 252.4,195.4 L 253.5,193.0 L 254.0,191.7 L 254.7,189.5 L 256.6,185.2 L 258.0,180.0 L 259.8,176.1 L 260.4,174.6 L 260.7,174.0 L 261.9,173.6 L 262.7,173.0 L 263.0,172.6 L 263.0,170.5 L 264.1,169.6 L 264.4,169.1 L 264.3,168.6 L 264.2,168.3 L 264.2,168.1 L 264.6,167.4 L 264.6,166.8 L 263.9,166.3 L 263.9,165.6 L 264.4,164.9 L 267.0,164.8 L 267.4,165.0 L 268.1,164.9 L 268.6,164.4 L 269.2,163.4 L 269.8,162.8 L 270.2,162.8 L 270.2,163.2 L 269.9,163.9 L 269.8,164.7 L 270.3,164.6 L 271.2,163.7 L 271.6,163.1 L 273.0,161.5 L 273.1,161.3 L 273.3,160.4 L 273.2,160.0 L 272.9,159.6 L 272.2,158.7 L 272.2,156.8 L 272.6,156.4 L 273.3,156.5 L 273.4,157.2 L 273.5,158.3 L 274.1,159.6 L 274.9,160.2 L 274.9,161.1 L 274.7,161.5 L 274.2,162.2 L 272.9,163.3 L 272.9,164.1 L 272.7,164.5 L 272.7,165.1 L 273.2,165.1 L 273.7,164.8 L 274.8,164.7 L 275.3,164.5 L 275.9,164.5 L 276.5,165.0 L 278.4,165.2 L 279.1,165.3 L 278.7,165.8 L 278.7,166.7 L 278.5,168.0 L 278.0,168.4 L 278.0,169.0 L 278.2,169.9 L 278.2,171.6 L 278.5,172.2 L 279.2,172.8 L 281.4,173.3 L 282.4,172.9 L 283.7,173.0 L 284.7,173.6 L 285.3,174.2 L 285.4,174.7 L 284.7,175.3 L 284.4,176.5 L 283.8,177.3 L 282.7,178.2 L 281.1,179.4 L 280.0,179.8 L 278.8,180.7 L 277.7,181.8 L 277.4,182.6 L 275.8,184.8 L 274.3,187.6 L 273.9,188.0 L 273.3,188.7 L 273.1,190.4 L 273.7,190.7 L 274.6,190.7 L 275.5,190.1 L 276.5,189.2 L 277.0,187.8 L 278.2,186.4 L 279.0,184.7 L 279.3,184.6 L 280.3,185.0 L 281.1,185.0 L 281.3,185.4 L 280.9,185.9 L 280.5,186.0 L 280.0,186.5 L 279.6,187.0 L 279.6,188.2 L 279.4,188.9 L 279.1,189.2 L 278.1,189.1 L 277.3,189.4 L 276.5,190.2 L 275.7,191.4 L 275.6,191.9 L 276.1,192.5 L 276.7,192.9 L 276.7,193.1 L 275.7,194.1 L 275.4,194.2 L 275.1,194.1 L 273.9,194.1 L 273.2,194.6 L 272.5,194.9 L 272.1,195.4 L 272.4,196.1 L 274.1,196.9 L 274.7,196.9 L 275.1,196.6 L 275.4,196.7 L 275.4,197.1 L 275.9,197.1 L 277.5,197.7 L 277.5,197.7 L 168.1,320.2 L 167.9,320.0 L 166.9,320.0 L 164.4,320.7 L 163.6,320.7 L 162.9,320.5 L 161.6,320.3 L 159.6,320.5 L 159.3,320.0 L 160.1,319.4 L 160.1,318.8 L 159.5,318.5 L 159.1,318.5 L 158.9,318.0 L 159.9,317.5 L 159.9,317.2 L 159.5,316.9 L 158.7,316.8 L 157.8,317.5 L 157.2,317.5 L 156.6,317.1 L 156.4,316.6 L 155.7,316.6 L 155.3,317.2 L 154.9,318.6 L 153.8,319.9 L 152.9,321.3 L 152.1,322.3 L 150.9,324.2 L 150.8,324.8 L 150.2,325.8 L 150.1,326.6 L 149.7,327.4 L 149.6,328.7 L 148.8,330.1 L 148.7,330.7 L 149.0,331.3 L 149.6,331.1 L 149.7,331.2 L 149.1,333.0 L 149.0,333.3 L 147.5,336.0 L 147.4,336.4 L 147.7,336.7 L 147.7,337.5 L 147.5,338.1 L 147.9,338.6 L 148.1,338.6 L 148.1,338.7 L 136.8,347.9 L 136.4,347.8 L 134.9,348.1 L 133.2,349.3 L 131.4,350.5 L 129.4,351.4 L 127.5,352.6 L 126.8,353.5 L 126.7,353.6 L 126.8,353.7 L 126.9,353.9 L 127.7,353.8 L 128.7,353.2 L 129.4,352.8 L 130.0,352.8 L 130.4,353.3 L 130.8,353.5 L 129.7,353.8 L 126.8,355.6 L 126.7,355.6 L 125.7,355.8 L 125.1,356.6 L 124.0,357.7 L 123.7,358.3 L 123.2,359.0 L 123.2,359.0 L 104.9,359.5 L 105.1,359.5 L 105.4,359.2 L 105.7,358.9 L 105.4,358.2 L 105.1,357.6 L 104.9,357.4 L 104.2,358.5 L 104.4,359.4 L 104.5,359.6 L 89.5,360.0 L 89.6,360.0 L 89.5,359.5 L 88.9,358.4 L 87.3,356.1 L 85.8,354.3 L 85.5,353.6 L 85.1,353.2 L 84.6,353.2 L 84.3,353.4 L 83.8,354.1 L 83.5,355.0 L 83.4,355.7 L 59.0,310.5 L 58.3,309.3 L 58.3,309.1 L 58.7,309.1 L 59.0,309.4 L 59.7,308.7 L 60.4,309.2 L 61.5,308.3 L 61.7,308.0 L 61.4,307.6 L 61.7,307.3 L 62.4,307.3 L 62.7,306.8 L 63.0,306.8 L 63.3,306.5 L 63.4,306.3 L 63.4,305.8 L 62.9,305.3" fill="none" stroke="black" stroke-width="2"/>
</svg>