<?xml version="1.0" encoding="UTF-8"?>
<svg width="400" height="400" viewBox="0 0 400 400" xmlns="http://www.w3.org/2000/svg">
  <rect width="400" height="400" fill="white"/>
  <path d="M 154.6,215.2 L 155.1,214.9 L 155.5,214.6 L 155.7,214.2 L 156.1,214.1 L 157.2,213.3 L 158.1,212.8 L 158.3,212.6 L 158.4,212.3 L 158.8,211.9 L 158.5,212.1 L 158.3,211.9 L 158.4,211.5 L 158.7,211.2 L 159.0,210.9 L 159.3,210.2 L 159.3,210.0 L 159.1,209.6 L 159.0,209.3 L 158.8,209.2 L 158.8,208.5 L 159.1,208.1 L 159.7,207.6 L 160.2,207.4 L 161.2,207.4 L 161.6,207.2 L 162.0,206.9 L 162.5,206.7 L 163.3,206.1 L 164.0,205.5 L 164.3,205.0 L 164.5,204.8 L 165.1,204.7 L 165.7,204.6 L 166.2,204.2 L 166.6,203.6 L 166.9,202.9 L 166.9,201.8 L 167.3,201.1 L 167.5,200.8 L 169.0,200.1 L 169.5,200.0 L 169.8,200.1 L 169.9,200.4 L 170.0,200.6 L 170.4,200.5 L 170.9,200.2 L 170.9,200.1 L 170.5,200.2 L 170.3,199.9 L 170.4,199.7 L 171.0,199.2 L 171.8,199.1 L 172.0,198.8 L 172.1,198.4 L 172.1,198.0 L 171.7,197.5 L 171.0,196.9 L 171.0,196.6 L 171.4,196.0 L 171.5,195.4 L 171.6,195.2 L 171.6,194.6 L 171.4,194.1 L 171.5,193.0 L 171.5,192.9 L 171.9,192.1 L 173.3,190.5 L 174.3,189.8 L 174.4,189.6 L 174.1,189.5 L 174.0,189.3 L 174.1,188.9 L 174.3,188.6 L 174.9,188.3 L 175.2,188.0 L 175.5,187.5 L 175.5,186.7 L 175.9,186.3 L 176.7,185.7 L 177.3,185.5 L 178.0,185.5 L 178.7,186.0 L 178.8,185.8 L 179.1,185.1 L 178.7,184.9 L 178.6,184.7 L 178.6,184.4 L 179.2,183.3 L 179.3,182.6 L 179.6,182.2 L 180.1,181.9 L 180.4,181.3 L 180.9,180.8 L 181.0,180.8 L 181.4,180.4 L 182.2,179.5 L 182.3,179.4 L 182.6,179.1 L 183.4,178.2 L 183.8,178.1 L 183.8,178.0 L 183.5,177.8 L 183.7,177.4 L 184.0,176.9 L 184.7,176.5 L 186.2,175.8 L 186.7,175.6 L 187.1,175.3 L 189.2,174.6 L 189.6,174.3 L 189.9,173.8 L 190.6,173.3 L 192.1,171.8 L 192.3,171.0 L 192.5,170.4 L 192.6,170.3 L 192.9,170.3 L 193.0,170.2 L 192.8,169.9 L 192.8,169.7 L 192.7,169.6 L 192.7,169.5 L 192.9,169.4 L 193.2,168.9 L 193.5,168.6 L 194.2,168.3 L 194.8,168.2 L 195.1,168.4 L 195.3,168.6 L 195.4,168.6 L 195.5,168.1 L 196.1,168.0 L 196.3,168.1 L 196.7,168.3 L 197.4,168.2 L 197.7,168.0 L 198.3,167.8 L 198.5,167.6 L 198.8,167.0 L 198.8,166.2 L 199.4,165.6 L 199.7,165.2 L 200.0,165.1 L 200.7,164.3 L 201.4,164.0 L 201.8,163.5 L 201.9,163.0 L 201.9,162.8 L 202.0,162.5 L 202.4,162.1 L 203.0,161.9 L 203.9,161.8 L 204.2,161.9 L 205.2,161.9 L 205.5,162.1 L 205.9,162.1 L 206.2,161.8 L 206.8,161.7 L 207.2,161.4 L 207.5,161.4 L 207.9,161.7 L 208.1,161.8 L 208.3,162.3 L 208.3,162.7 L 208.5,163.2 L 208.5,163.9 L 209.2,163.8 L 209.3,163.6 L 209.4,163.2 L 209.8,162.4 L 209.9,161.8 L 210.0,161.7 L 210.1,161.0 L 210.9,159.6 L 212.2,158.3 L 212.6,157.3 L 213.1,156.3 L 213.2,155.7 L 213.2,155.2 L 213.6,154.4 L 213.8,153.2 L 214.0,152.4 L 214.2,151.3 L 215.0,150.3 L 215.1,149.5 L 215.2,148.5 L 215.3,148.1 L 215.2,147.7 L 215.2,147.1 L 215.5,146.8 L 215.6,146.6 L 216.3,145.9 L 216.4,145.7 L 216.5,145.1 L 216.5,144.9 L 216.2,144.8 L 216.1,144.7 L 216.1,144.1 L 216.2,144.0 L 215.7,143.5 L 215.6,143.1 L 215.5,142.5 L 215.8,141.2 L 216.1,140.4 L 216.2,140.1 L 216.1,139.5 L 216.1,138.9 L 215.9,138.7 L 215.9,138.4 L 216.3,137.9 L 216.4,136.9 L 216.3,136.6 L 216.3,136.1 L 216.5,135.3 L 216.6,134.7 L 216.4,133.9 L 216.5,133.5 L 216.7,133.1 L 216.7,132.6 L 216.6,132.4 L 216.7,131.9 L 216.7,131.3 L 216.6,131.0 L 216.6,130.3 L 216.2,128.5 L 215.9,127.9 L 215.3,127.4 L 215.1,127.0 L 215.1,126.2 L 214.9,125.9 L 214.9,125.7 L 215.1,125.5 L 215.4,125.5 L 215.5,125.3 L 215.6,124.9 L 215.6,124.2 L 215.3,123.4 L 215.2,123.3 L 214.9,122.4 L 214.6,122.0 L 214.0,121.7 L 214.2,121.3 L 214.1,121.1 L 213.3,120.9 L 213.1,120.5 L 212.9,120.4 L 212.8,120.1 L 212.7,119.9 L 212.2,119.5 L 212.2,119.2 L 212.3,118.9 L 212.1,118.7 L 211.8,118.6 L 211.0,118.6 L 210.6,118.4 L 210.3,118.4 L 210.1,118.2 L 210.1,117.9 L 210.4,117.7 L 210.4,117.4 L 210.3,117.1 L 210.3,116.8 L 210.3,116.5 L 209.0,115.6 L 208.4,115.0 L 208.4,114.9 L 209.9,115.3 L 210.4,114.9 L 210.4,114.8 L 210.2,114.6 L 210.2,114.4 L 210.3,114.3 L 210.1,114.0 L 210.0,113.8 L 208.9,113.5 L 208.0,113.5 L 208.0,113.7 L 207.9,113.9 L 207.6,113.9 L 207.6,113.9 L 225.3,77.4 L 225.4,77.3 L 225.4,77.2 L 225.8,77.2 L 226.2,77.2 L 226.6,77.3 L 227.0,77.3 L 227.2,77.3 L 227.8,77.3 L 228.3,77.3 L 228.8,77.3 L 229.2,77.4 L 229.7,77.5 L 230.0,77.7 L 230.6,77.5 L 231.1,77.4 L 231.7,77.4 L 232.3,77.4 L 232.7,77.6 L 233.2,77.7 L 233.6,77.9 L 233.6,78.5 L 233.4,78.5 L 233.4,78.6 L 233.3,79.0 L 233.4,79.1 L 234.0,79.2 L 234.3,79.2 L 234.9,79.4 L 235.0,79.6 L 235.0,79.9 L 234.8,79.8 L 234.3,79.8 L 234.3,79.8 L 234.2,80.0 L 234.2,80.2 L 234.2,80.4 L 234.8,80.4 L 235.3,80.7 L 235.6,80.9 L 235.8,81.1 L 236.3,81.2 L 236.8,81.4 L 237.4,81.4 L 237.7,81.3 L 237.9,81.2 L 238.1,80.8 L 238.8,80.7 L 239.2,80.6 L 239.5,80.6 L 239.7,80.3 L 239.9,80.2 L 240.1,79.9 L 240.4,79.7 L 241.2,79.4 L 241.3,79.3 L 241.6,79.0 L 242.4,79.1 L 242.8,79.2 L 243.2,79.2 L 243.5,79.1 L 244.2,79.0 L 244.7,78.9 L 245.0,78.7 L 245.3,78.4 L 245.4,78.2 L 245.5,78.2 L 245.5,78.2 L 245.8,78.1 L 246.1,77.9 L 246.5,77.7 L 246.6,77.5 L 246.8,77.1 L 246.7,76.7 L 247.0,76.3 L 247.0,76.1 L 247.4,75.8 L 247.4,75.2 L 247.9,74.5 L 248.2,74.5 L 344.4,88.8 L 344.4,88.9 L 344.2,89.4 L 344.0,90.4 L 344.0,91.0 L 344.1,91.2 L 343.9,91.5 L 343.9,91.7 L 344.3,92.5 L 344.4,93.7 L 344.4,93.8 L 344.5,93.9 L 344.9,95.0 L 345.0,96.3 L 345.0,97.3 L 345.2,97.8 L 345.4,99.4 L 345.4,100.5 L 345.2,100.7 L 345.0,101.0 L 344.9,101.1 L 345.1,101.3 L 345.2,102.3 L 345.3,102.7 L 344.8,103.0 L 344.6,103.5 L 344.6,103.9 L 345.0,104.6 L 345.3,104.9 L 346.2,104.9 L 346.4,104.9 L 346.7,105.1 L 346.7,105.4 L 347.0,105.6 L 347.1,105.7 L 347.0,106.4 L 347.2,106.7 L 347.3,107.2 L 347.2,107.7 L 347.3,108.2 L 347.4,108.4 L 347.4,108.7 L 347.4,108.8 L 347.3,109.1 L 347.4,110.4 L 347.8,110.8 L 348.1,111.0 L 348.5,111.3 L 348.6,111.8 L 349.1,112.8 L 349.2,113.1 L 349.3,113.8 L 349.4,114.3 L 349.5,115.1 L 349.4,115.4 L 349.1,116.4 L 348.7,116.9 L 348.3,117.8 L 347.3,118.9 L 347.3,119.0 L 346.9,119.2 L 346.6,119.3 L 346.3,119.6 L 346.1,119.7 L 346.0,119.8 L 346.0,119.9 L 345.9,119.9 L 345.4,120.5 L 344.6,121.2 L 344.3,121.4 L 343.8,121.9 L 343.4,121.9 L 343.2,122.0 L 343.0,122.3 L 342.3,123.1 L 341.8,123.5 L 341.5,123.9 L 340.5,124.8 L 340.2,124.8 L 340.0,125.1 L 339.8,125.3 L 339.7,125.5 L 339.3,125.9 L 339.1,125.9 L 339.0,126.0 L 338.8,126.2 L 338.4,126.5 L 338.0,126.5 L 337.8,126.8 L 337.6,127.1 L 337.2,127.7 L 337.3,127.9 L 337.4,128.8 L 337.4,128.9 L 337.2,129.5 L 337.2,130.3 L 337.2,130.4 L 336.7,131.1 L 336.3,132.1 L 336.0,132.5 L 335.9,132.6 L 336.1,132.8 L 336.1,133.4 L 335.8,134.2 L 335.8,134.7 L 335.6,135.0 L 335.8,135.4 L 335.9,135.8 L 335.7,136.1 L 335.7,136.6 L 335.5,137.1 L 335.5,137.5 L 335.4,138.0 L 335.8,138.9 L 335.7,139.4 L 335.5,139.9 L 335.2,141.0 L 335.4,141.2 L 335.2,141.5 L 335.2,142.1 L 335.3,142.8 L 335.2,143.1 L 335.3,143.5 L 335.2,143.7 L 335.3,144.0 L 335.5,144.3 L 335.4,145.0 L 334.9,146.0 L 334.8,146.8 L 334.8,147.0 L 334.6,147.4 L 334.1,147.9 L 334.1,148.3 L 333.6,148.9 L 333.2,149.0 L 333.1,149.2 L 333.2,149.4 L 333.2,149.5 L 332.9,149.9 L 332.1,150.5 L 331.7,150.5 L 331.3,150.6 L 331.1,150.7 L 331.0,151.1 L 330.5,151.5 L 330.0,151.5 L 329.2,151.9 L 328.6,152.0 L 328.0,152.2 L 327.9,152.2 L 327.4,152.2 L 326.8,152.8 L 326.8,153.0 L 327.3,153.4 L 327.7,153.5 L 328.1,153.5 L 328.5,153.4 L 328.9,153.4 L 329.2,153.7 L 329.1,154.1 L 329.2,154.3 L 329.5,154.4 L 329.7,154.6 L 329.7,154.9 L 329.7,154.9 L 329.6,155.2 L 329.2,155.5 L 328.9,155.6 L 328.3,156.3 L 327.8,156.6 L 327.4,157.2 L 327.3,157.9 L 327.2,158.2 L 327.2,158.5 L 327.6,158.8 L 328.3,159.1 L 328.5,159.0 L 328.8,158.9 L 329.4,158.9 L 329.7,158.7 L 330.3,158.9 L 330.3,159.1 L 330.5,159.6 L 330.7,159.6 L 331.1,159.6 L 331.2,159.9 L 331.5,159.9 L 353.7,207.3 L 353.7,207.4 L 353.7,207.5 L 353.4,207.8 L 353.2,207.9 L 352.9,207.9 L 352.9,208.0 L 352.8,208.2 L 353.2,208.5 L 353.3,208.6 L 353.1,208.7 L 352.9,208.7 L 352.8,208.7 L 352.8,208.9 L 352.9,209.0 L 353.0,209.1 L 353.3,209.3 L 353.4,209.5 L 353.3,209.6 L 352.7,209.9 L 352.5,210.0 L 352.3,210.0 L 352.1,209.9 L 352.1,209.9 L 351.7,209.9 L 351.5,209.9 L 351.4,210.0 L 351.4,210.3 L 351.6,210.5 L 351.8,210.8 L 352.1,211.0 L 352.2,211.1 L 352.3,211.2 L 352.1,211.5 L 352.1,211.5 L 351.9,211.5 L 351.8,211.7 L 351.8,212.0 L 351.9,212.2 L 351.8,212.2 L 351.8,212.4 L 351.9,212.6 L 352.0,212.9 L 352.0,213.2 L 352.1,213.3 L 352.2,213.2 L 352.6,213.0 L 352.8,213.0 L 353.0,213.1 L 353.0,213.2 L 353.0,213.7 L 353.1,213.8 L 353.3,214.0 L 353.5,214.1 L 353.8,214.1 L 354.0,214.2 L 354.1,214.2 L 354.1,214.4 L 353.9,214.6 L 353.9,214.8 L 354.0,214.8 L 354.1,215.0 L 354.4,214.9 L 354.6,214.8 L 355.0,214.8 L 355.2,214.8 L 355.2,214.6 L 355.4,214.3 L 355.5,214.2 L 355.5,214.2 L 355.8,214.2 L 356.0,214.2 L 355.9,214.5 L 355.9,214.7 L 355.9,214.9 L 355.9,215.0 L 355.8,215.3 L 355.5,215.5 L 355.4,215.8 L 355.1,216.3 L 355.0,216.6 L 354.8,216.6 L 354.6,216.4 L 354.6,216.2 L 354.5,215.9 L 354.4,215.8 L 353.9,215.9 L 353.7,216.0 L 353.7,217.0 L 353.8,217.2 L 353.9,217.6 L 354.1,218.0 L 354.4,218.1 L 355.2,218.1 L 355.3,217.9 L 355.3,217.7 L 354.9,217.1 L 355.3,216.8 L 355.6,216.7 L 355.9,216.8 L 356.0,217.1 L 356.2,217.4 L 356.3,217.6 L 356.5,217.8 L 356.8,218.4 L 357.3,218.6 L 357.5,218.5 L 357.9,218.0 L 358.3,218.0 L 358.8,218.6 L 358.8,219.0 L 358.6,219.4 L 358.6,219.8 L 358.7,220.0 L 359.1,220.2 L 359.5,220.3 L 359.6,220.7 L 360.0,221.0 L 360.0,221.1 L 359.9,221.3 L 359.9,221.7 L 359.6,222.0 L 359.3,222.2 L 358.9,222.7 L 358.6,223.2 L 358.6,223.9 L 358.9,224.3 L 358.5,224.9 L 358.4,225.3 L 358.6,225.4 L 358.8,225.5 L 353.6,226.6 L 353.6,226.5 L 353.4,226.0 L 353.2,225.6 L 353.1,225.3 L 352.8,225.2 L 352.7,225.2 L 352.5,225.2 L 352.4,225.3 L 352.2,225.9 L 352.1,226.0 L 352.1,226.1 L 351.9,226.2 L 351.5,226.0 L 351.0,226.0 L 350.7,226.0 L 350.7,225.9 L 350.7,225.7 L 350.4,225.2 L 350.3,225.2 L 349.9,225.5 L 349.7,225.7 L 349.7,226.2 L 349.6,226.3 L 349.2,226.4 L 348.9,226.4 L 348.4,226.1 L 348.2,226.1 L 348.0,226.0 L 347.8,226.0 L 347.6,225.8 L 347.5,225.8 L 347.4,225.9 L 347.5,226.2 L 347.5,226.3 L 347.4,226.8 L 347.3,226.8 L 347.1,227.0 L 347.0,227.1 L 347.0,227.4 L 347.1,227.7 L 347.3,227.9 L 347.6,228.3 L 347.7,228.4 L 347.8,228.6 L 347.7,229.1 L 347.4,229.4 L 347.1,229.8 L 346.9,230.0 L 346.8,230.0 L 346.6,230.0 L 346.3,229.8 L 346.2,229.7 L 346.2,229.6 L 346.4,229.3 L 346.4,229.0 L 346.4,228.8 L 346.2,228.5 L 346.1,228.4 L 346.0,228.4 L 345.9,228.5 L 346.1,229.0 L 346.1,229.2 L 346.0,229.3 L 345.4,229.3 L 345.3,229.3 L 345.2,229.3 L 345.2,229.7 L 345.4,230.2 L 345.5,230.3 L 345.6,230.4 L 345.8,230.5 L 346.0,230.5 L 346.1,230.5 L 346.3,230.6 L 346.4,230.7 L 346.5,230.7 L 346.7,230.6 L 347.1,230.7 L 347.2,230.8 L 347.3,230.9 L 347.2,230.9 L 338.4,233.9 L 338.2,233.8 L 337.8,233.8 L 337.5,233.8 L 337.5,233.9 L 337.8,234.4 L 337.8,234.5 L 337.8,234.8 L 337.8,234.8 L 337.4,235.0 L 337.2,234.8 L 337.1,234.7 L 337.2,234.4 L 337.1,234.4 L 336.6,234.5 L 336.0,234.4 L 335.6,234.3 L 335.5,234.3 L 335.2,234.6 L 335.0,234.6 L 335.0,234.5 L 334.6,234.6 L 334.5,234.6 L 334.3,234.4 L 334.1,233.8 L 333.5,233.3 L 333.0,232.8 L 332.7,232.7 L 332.6,232.6 L 331.9,232.6 L 331.7,232.5 L 331.3,232.7 L 330.8,232.7 L 330.7,232.6 L 330.7,232.3 L 330.1,231.9 L 330.0,231.8 L 329.8,231.3 L 329.9,230.6 L 329.9,230.3 L 329.9,230.1 L 329.6,230.0 L 329.2,230.0 L 329.0,229.2 L 328.7,228.8 L 328.6,228.6 L 328.3,228.5 L 327.9,228.8 L 327.8,228.8 L 327.5,229.3 L 327.0,229.5 L 326.3,228.9 L 326.2,228.9 L 326.1,228.6 L 325.7,228.5 L 325.6,228.6 L 325.3,228.6 L 325.1,228.6 L 324.8,228.7 L 324.7,229.2 L 324.5,229.3 L 324.0,229.3 L 323.7,229.7 L 323.7,230.3 L 323.5,230.4 L 323.4,230.3 L 323.2,230.4 L 323.4,230.7 L 323.5,230.8 L 323.4,230.9 L 323.2,231.1 L 323.0,231.2 L 322.8,231.2 L 322.8,231.7 L 322.8,231.9 L 322.8,232.2 L 322.6,231.9 L 322.4,231.9 L 322.0,232.0 L 321.8,232.2 L 321.8,232.8 L 321.7,232.9 L 321.1,232.6 L 320.6,232.5 L 320.4,232.7 L 320.3,232.9 L 320.0,233.8 L 320.3,234.1 L 320.5,234.4 L 320.3,234.9 L 320.1,235.2 L 320.0,236.1 L 319.9,236.2 L 319.8,236.6 L 319.6,237.0 L 319.6,237.8 L 319.3,238.0 L 319.3,239.0 L 319.3,239.1 L 319.1,239.6 L 318.8,239.6 L 318.8,239.4 L 318.8,239.0 L 318.9,238.1 L 319.1,237.6 L 319.2,236.3 L 319.2,235.7 L 319.2,235.1 L 319.4,234.8 L 319.4,234.6 L 319.0,234.2 L 319.0,233.9 L 319.4,233.4 L 319.6,233.0 L 319.4,232.9 L 319.4,232.0 L 319.0,231.9 L 318.7,231.9 L 318.5,232.1 L 318.4,232.4 L 318.2,232.3 L 318.0,232.3 L 317.9,232.5 L 317.8,232.7 L 317.9,233.1 L 317.6,233.0 L 317.3,233.5 L 317.2,233.8 L 317.5,234.1 L 317.6,234.5 L 317.6,234.9 L 317.2,235.1 L 316.9,235.0 L 316.5,235.1 L 316.1,235.2 L 315.8,235.9 L 315.6,235.9 L 315.6,235.7 L 315.4,235.7 L 315.3,235.9 L 315.0,235.9 L 315.0,236.1 L 315.1,236.4 L 315.0,236.5 L 315.0,237.0 L 315.2,237.3 L 315.2,237.5 L 315.2,237.5 L 315.1,237.7 L 314.9,237.8 L 314.8,237.7 L 314.7,237.7 L 314.4,237.8 L 314.3,237.8 L 314.0,238.1 L 313.8,238.3 L 313.6,238.5 L 313.3,238.9 L 313.1,239.0 L 313.0,239.0 L 312.9,239.1 L 312.7,239.1 L 312.6,239.0 L 312.6,239.0 L 312.5,238.7 L 312.4,238.6 L 312.3,238.7 L 312.2,238.8 L 312.2,239.0 L 312.2,239.1 L 312.3,239.4 L 312.5,239.8 L 312.6,239.9 L 312.6,240.2 L 312.4,240.7 L 312.3,240.7 L 312.3,240.7 L 312.2,240.7 L 312.2,240.5 L 312.3,239.9 L 312.2,239.6 L 312.1,239.5 L 311.9,239.2 L 311.9,239.0 L 311.9,239.0 L 311.9,238.6 L 311.9,238.5 L 312.0,238.3 L 312.3,238.2 L 312.3,238.2 L 312.5,238.0 L 312.6,237.7 L 312.8,237.5 L 313.0,237.4 L 313.1,237.3 L 313.1,237.1 L 313.1,236.8 L 312.9,236.6 L 312.8,236.6 L 312.7,236.7 L 312.5,236.8 L 312.4,237.1 L 312.3,237.1 L 312.0,236.8 L 311.8,236.4 L 311.7,236.3 L 311.4,236.2 L 311.3,236.1 L 311.3,235.9 L 311.2,235.8 L 311.1,235.7 L 311.0,235.7 L 310.4,235.8 L 310.3,235.9 L 310.2,236.5 L 310.1,236.6 L 309.8,236.2 L 309.6,236.6 L 309.3,237.0 L 309.2,237.6 L 309.3,238.0 L 309.3,238.5 L 309.3,238.9 L 309.3,239.0 L 309.3,239.7 L 309.2,240.3 L 309.3,240.8 L 309.6,241.2 L 309.6,241.5 L 309.9,241.8 L 309.9,242.0 L 309.6,242.0 L 309.4,242.2 L 309.4,242.6 L 309.3,242.8 L 309.3,243.1 L 308.9,243.5 L 308.6,243.5 L 308.1,243.1 L 308.0,243.1 L 307.9,243.1 L 307.6,243.4 L 307.5,243.3 L 307.5,242.7 L 307.3,242.5 L 307.1,242.3 L 306.7,242.0 L 306.5,242.0 L 306.3,241.3 L 305.9,241.1 L 305.8,240.8 L 305.8,240.7 L 306.0,240.6 L 305.9,240.4 L 305.5,240.1 L 305.3,240.0 L 305.2,240.1 L 305.4,240.6 L 305.1,240.6 L 304.7,240.4 L 304.5,240.3 L 304.2,240.0 L 303.8,240.0 L 303.4,239.9 L 303.1,240.0 L 302.8,239.9 L 302.6,240.0 L 302.6,240.3 L 302.4,240.4 L 302.0,240.0 L 301.7,240.0 L 301.4,239.9 L 301.0,239.8 L 300.6,239.8 L 300.5,239.9 L 300.7,240.1 L 300.7,240.2 L 300.2,240.5 L 300.1,240.8 L 300.1,241.4 L 299.8,241.5 L 299.8,242.0 L 299.9,242.1 L 300.1,242.5 L 300.6,242.8 L 300.9,243.0 L 300.9,243.3 L 300.8,243.5 L 300.1,243.5 L 299.8,244.2 L 299.9,245.2 L 300.0,245.4 L 300.3,245.4 L 300.4,245.4 L 300.6,246.3 L 300.7,246.5 L 300.5,246.7 L 300.8,247.0 L 300.8,247.2 L 300.7,247.4 L 300.6,247.4 L 300.3,247.8 L 300.2,247.8 L 300.1,247.9 L 300.1,248.1 L 300.0,248.6 L 300.2,248.7 L 300.4,248.9 L 300.6,249.2 L 301.4,250.1 L 301.5,250.5 L 301.5,250.7 L 301.5,251.2 L 301.4,251.7 L 301.6,252.0 L 301.8,252.0 L 302.1,251.8 L 302.3,251.9 L 302.4,252.2 L 302.6,252.5 L 302.9,252.5 L 302.9,252.7 L 302.6,253.3 L 302.6,253.5 L 303.0,253.5 L 303.3,253.7 L 304.1,254.2 L 304.1,254.6 L 304.0,254.8 L 304.0,255.1 L 304.1,255.6 L 304.1,256.4 L 304.3,256.5 L 304.5,256.6 L 304.9,256.6 L 305.5,256.2 L 305.8,255.9 L 306.2,255.9 L 306.4,255.7 L 306.6,255.2 L 306.7,254.7 L 306.9,254.5 L 307.4,254.3 L 307.5,254.2 L 307.8,253.5 L 307.8,253.4 L 307.9,253.1 L 308.0,252.8 L 308.1,252.6 L 308.2,252.1 L 308.5,251.6 L 308.7,251.4 L 308.8,251.4 L 308.8,251.6 L 308.8,251.7 L 308.7,252.2 L 308.7,252.4 L 308.3,252.8 L 308.3,253.1 L 308.4,253.1 L 308.6,253.1 L 308.8,252.9 L 309.1,252.4 L 309.5,252.1 L 309.8,252.0 L 309.8,252.0 L 310.3,251.9 L 310.6,252.0 L 310.9,252.1 L 311.0,252.4 L 311.0,252.6 L 311.1,252.7 L 311.2,252.7 L 311.7,252.7 L 312.1,252.6 L 312.4,252.6 L 312.5,252.7 L 312.6,253.3 L 312.5,253.4 L 312.2,253.5 L 312.1,253.6 L 311.9,254.0 L 311.8,254.4 L 311.9,254.5 L 312.1,254.6 L 312.5,254.5 L 312.8,254.4 L 313.0,254.2 L 313.0,253.9 L 313.1,253.8 L 313.5,253.5 L 313.7,253.6 L 313.8,253.8 L 313.9,253.8 L 314.2,253.8 L 314.4,253.6 L 314.5,253.5 L 314.5,253.2 L 314.3,253.0 L 314.2,253.0 L 313.8,253.0 L 313.8,252.8 L 313.8,252.7 L 314.0,252.4 L 314.5,252.3 L 314.6,252.0 L 314.8,251.7 L 315.2,251.4 L 315.8,250.8 L 316.0,250.8 L 316.0,250.5 L 316.2,250.3 L 316.6,250.1 L 316.5,249.9 L 316.5,249.6 L 316.6,249.4 L 316.7,248.7 L 316.5,248.5 L 316.4,248.3 L 316.4,248.2 L 316.9,248.1 L 317.0,248.0 L 317.0,247.6 L 317.4,247.3 L 317.5,247.3 L 317.4,247.5 L 317.4,247.8 L 317.1,248.1 L 317.0,248.2 L 316.9,248.3 L 316.8,248.6 L 316.8,250.3 L 316.9,250.5 L 317.0,250.7 L 317.0,250.9 L 316.8,251.0 L 316.8,251.3 L 317.4,251.3 L 317.8,251.5 L 318.2,251.9 L 318.3,252.3 L 318.5,252.5 L 319.1,252.6 L 320.4,252.6 L 320.4,252.6 L 322.2,259.1 L 322.2,259.1 L 322.0,259.1 L 322.0,259.8 L 322.0,260.1 L 321.8,260.2 L 321.5,260.4 L 321.1,260.8 L 320.7,260.8 L 320.5,260.8 L 320.2,260.6 L 320.0,260.8 L 319.8,260.8 L 319.3,260.6 L 318.9,260.8 L 318.5,260.8 L 318.1,260.6 L 317.6,260.4 L 317.3,260.4 L 316.9,260.6 L 316.7,260.7 L 316.5,260.9 L 316.5,261.3 L 316.5,261.5 L 316.4,261.8 L 316.0,262.0 L 315.6,262.1 L 314.8,262.7 L 314.8,263.1 L 314.6,263.2 L 314.3,262.9 L 313.4,262.8 L 313.2,262.5 L 312.9,262.5 L 312.4,262.9 L 312.3,263.3 L 312.4,263.6 L 312.8,263.6 L 312.8,263.8 L 312.5,263.9 L 312.3,264.1 L 312.3,264.3 L 311.8,264.7 L 311.8,265.0 L 311.8,265.5 L 312.1,265.7 L 312.5,265.9 L 312.5,266.1 L 312.4,266.3 L 312.1,266.3 L 311.8,266.2 L 311.5,266.2 L 311.5,266.3 L 311.6,266.5 L 311.4,266.6 L 311.4,266.8 L 311.8,267.0 L 312.1,266.9 L 312.3,266.8 L 312.5,267.0 L 312.8,267.4 L 313.1,267.4 L 313.6,267.3 L 314.1,267.4 L 314.3,267.7 L 314.6,267.8 L 314.9,268.1 L 315.3,268.8 L 315.5,269.0 L 315.6,269.2 L 315.1,269.9 L 315.0,270.1 L 314.8,270.2 L 314.5,270.2 L 314.1,270.4 L 313.6,270.6 L 313.3,270.9 L 313.3,271.3 L 313.4,271.5 L 313.2,271.7 L 313.2,272.0 L 313.3,272.3 L 313.4,272.4 L 313.6,272.3 L 313.8,272.2 L 313.9,272.3 L 314.0,272.7 L 314.0,272.8 L 313.9,273.1 L 313.5,273.9 L 312.9,274.0 L 312.8,273.9 L 312.7,273.8 L 312.5,273.4 L 312.4,273.5 L 312.3,274.3 L 311.8,274.5 L 311.2,275.1 L 311.0,275.1 L 310.9,275.1 L 310.9,274.8 L 310.8,274.7 L 310.9,274.5 L 310.9,274.3 L 310.6,274.2 L 310.3,274.2 L 309.5,274.3 L 309.5,274.2 L 309.4,274.1 L 308.8,274.2 L 308.3,273.8 L 308.0,273.9 L 307.9,274.0 L 307.7,273.9 L 307.4,273.8 L 307.2,273.7 L 307.1,273.3 L 306.8,273.0 L 306.8,272.8 L 306.6,272.8 L 306.6,273.1 L 306.4,273.2 L 306.3,273.5 L 306.1,273.6 L 306.0,273.8 L 306.0,273.9 L 305.3,274.5 L 305.3,275.8 L 305.1,276.2 L 304.8,276.2 L 304.4,275.9 L 304.3,275.8 L 303.7,275.9 L 303.7,276.0 L 303.5,276.1 L 302.8,275.8 L 302.7,275.5 L 302.4,275.2 L 301.9,275.2 L 301.7,275.3 L 301.7,275.9 L 301.7,276.0 L 301.5,276.0 L 301.3,275.9 L 301.3,275.9 L 301.2,275.5 L 300.9,275.4 L 300.6,275.3 L 300.5,274.8 L 300.5,274.7 L 300.2,274.7 L 299.7,275.6 L 299.5,276.0 L 299.3,275.9 L 298.5,275.9 L 298.4,276.0 L 298.4,276.6 L 298.2,276.7 L 297.9,277.1 L 297.3,277.6 L 296.7,277.7 L 296.4,277.6 L 296.3,277.5 L 296.2,277.3 L 296.0,277.2 L 295.6,277.2 L 295.3,277.3 L 295.1,277.3 L 295.0,277.3 L 294.9,277.4 L 294.5,277.2 L 294.4,277.1 L 294.4,277.0 L 294.3,276.8 L 294.1,276.7 L 293.4,276.7 L 293.2,276.8 L 293.1,277.1 L 292.9,277.5 L 292.6,277.6 L 292.5,277.7 L 292.4,277.7 L 292.2,277.8 L 291.8,277.9 L 291.6,278.0 L 291.5,278.0 L 291.2,277.7 L 290.7,277.2 L 290.2,277.3 L 289.9,277.4 L 289.7,277.4 L 289.3,277.8 L 289.4,278.0 L 289.4,278.0 L 289.5,278.4 L 289.3,278.7 L 288.6,279.0 L 288.0,279.2 L 287.3,279.1 L 286.6,278.9 L 285.6,278.4 L 285.1,278.1 L 284.1,277.6 L 283.8,277.6 L 283.7,277.7 L 283.3,277.7 L 283.0,277.9 L 282.3,277.7 L 281.8,277.7 L 281.6,277.9 L 281.2,277.9 L 281.2,277.9 L 280.8,277.5 L 280.7,277.4 L 280.5,277.4 L 280.0,278.1 L 280.0,278.1 L 279.7,278.1 L 279.4,278.4 L 279.3,278.5 L 279.1,278.7 L 278.6,278.6 L 278.3,278.8 L 278.1,278.9 L 277.6,279.2 L 277.3,279.2 L 276.9,279.0 L 276.2,279.0 L 276.1,278.9 L 275.9,278.8 L 275.7,278.8 L 275.3,278.9 L 275.1,279.0 L 274.8,279.2 L 274.0,279.5 L 273.9,279.4 L 272.9,279.5 L 271.0,279.1 L 270.0,278.9 L 268.8,278.6 L 267.8,278.6 L 267.7,278.7 L 266.9,278.8 L 266.2,278.7 L 265.9,278.6 L 265.5,278.4 L 265.0,278.4 L 264.7,278.2 L 264.7,277.9 L 264.6,278.0 L 264.2,277.8 L 263.7,278.2 L 262.8,278.6 L 261.9,278.6 L 260.6,278.5 L 259.7,278.3 L 259.2,278.2 L 258.6,278.3 L 258.1,278.5 L 256.3,279.0 L 255.0,279.2 L 254.2,279.1 L 253.2,279.1 L 252.4,279.2 L 251.9,279.4 L 251.4,279.4 L 250.3,279.7 L 249.6,280.1 L 248.8,280.7 L 248.2,281.1 L 247.8,281.3 L 246.0,282.0 L 245.5,282.1 L 245.2,282.2 L 244.6,282.7 L 244.3,282.8 L 244.1,283.3 L 244.0,283.5 L 244.4,284.0 L 244.8,285.0 L 244.8,285.1 L 244.9,285.9 L 245.5,286.8 L 245.8,287.2 L 246.0,287.5 L 246.0,287.7 L 245.9,288.0 L 245.6,288.4 L 245.5,288.5 L 245.4,288.6 L 245.3,288.7 L 245.4,288.8 L 245.5,288.9 L 245.6,289.0 L 245.5,289.1 L 245.5,289.1 L 245.4,289.2 L 245.2,289.6 L 245.1,289.9 L 245.0,290.2 L 244.9,290.5 L 244.9,290.8 L 244.8,291.2 L 245.0,291.6 L 245.1,291.8 L 245.2,292.1 L 245.3,292.4 L 245.4,292.8 L 245.5,293.2 L 245.4,293.4 L 245.5,293.6 L 245.5,293.6 L 245.6,293.9 L 245.7,294.0 L 245.6,294.5 L 245.6,294.8 L 245.7,295.0 L 245.7,295.4 L 245.7,295.9 L 245.7,296.3 L 245.7,296.6 L 245.8,297.0 L 245.8,297.3 L 245.9,297.7 L 245.9,298.0 L 246.1,298.4 L 246.1,298.7 L 246.1,299.0 L 246.1,299.3 L 245.9,299.6 L 245.7,300.0 L 245.5,300.2 L 245.4,300.3 L 245.3,300.5 L 245.2,300.7 L 245.1,301.0 L 245.0,301.3 L 244.7,301.6 L 244.6,301.7 L 244.4,301.9 L 244.1,302.1 L 243.8,302.3 L 243.8,302.4 L 243.6,302.7 L 243.4,303.1 L 243.2,303.5 L 243.0,303.9 L 242.6,304.2 L 242.6,304.3 L 242.4,304.4 L 242.4,304.5 L 242.1,304.6 L 242.0,304.6 L 241.7,304.5 L 241.4,304.5 L 241.2,304.6 L 241.2,304.7 L 241.4,304.9 L 241.4,304.9 L 241.4,305.1 L 241.1,305.4 L 240.8,305.6 L 240.6,305.6 L 240.2,305.6 L 240.0,305.5 L 239.8,305.4 L 239.5,305.2 L 239.2,305.2 L 238.8,305.2 L 238.4,305.1 L 238.0,305.1 L 237.7,305.1 L 237.5,305.1 L 237.2,304.9 L 236.9,304.6 L 236.9,304.5 L 236.9,304.4 L 236.9,304.1 L 236.8,304.0 L 236.8,303.9 L 236.8,303.8 L 236.9,303.5 L 236.9,303.1 L 237.0,302.6 L 237.1,302.2 L 236.9,301.9 L 236.6,301.6 L 236.6,301.4 L 236.5,301.0 L 236.4,300.9 L 236.2,300.7 L 235.8,300.6 L 235.5,300.4 L 235.2,300.1 L 235.1,299.7 L 235.0,299.4 L 235.0,299.0 L 235.0,298.6 L 235.0,298.2 L 234.9,297.8 L 234.9,297.5 L 234.9,297.1 L 234.9,296.7 L 234.8,296.4 L 234.8,296.1 L 234.8,295.7 L 234.8,295.3 L 234.8,294.9 L 234.8,294.5 L 234.7,294.2 L 234.7,293.8 L 234.7,293.4 L 234.6,293.1 L 234.5,292.9 L 234.6,292.8 L 234.6,292.7 L 234.9,292.4 L 234.9,292.2 L 234.8,292.1 L 234.7,292.0 L 234.6,292.0 L 234.4,292.0 L 233.4,292.1 L 232.8,292.1 L 232.6,291.8 L 232.4,291.8 L 232.3,292.0 L 231.4,292.0 L 230.6,291.8 L 230.3,291.9 L 229.6,292.1 L 229.4,292.3 L 229.3,292.8 L 228.7,293.1 L 227.9,293.1 L 227.5,293.0 L 227.0,292.9 L 226.9,292.9 L 226.0,293.0 L 225.4,292.9 L 224.6,292.9 L 223.8,293.2 L 223.0,293.8 L 222.4,294.1 L 221.4,294.3 L 220.3,294.8 L 219.9,295.0 L 219.2,295.2 L 217.6,295.2 L 217.1,295.3 L 215.8,295.3 L 215.0,295.6 L 214.6,295.5 L 214.4,295.6 L 213.8,295.6 L 213.0,295.6 L 212.6,295.9 L 212.0,296.7 L 211.9,297.7 L 212.5,297.9 L 212.7,298.3 L 212.7,299.0 L 212.8,299.2 L 213.0,299.2 L 213.1,299.5 L 213.0,300.1 L 214.0,301.4 L 214.6,302.6 L 215.0,303.6 L 215.3,304.0 L 215.6,304.3 L 215.6,304.7 L 215.5,305.3 L 215.4,305.9 L 214.9,307.2 L 214.6,307.5 L 214.7,308.3 L 214.9,308.9 L 216.3,311.0 L 216.3,311.3 L 216.2,312.1 L 216.0,312.4 L 215.7,312.4 L 215.6,312.9 L 215.5,313.1 L 215.5,313.7 L 215.9,314.1 L 216.6,315.0 L 217.1,315.5 L 217.1,316.1 L 217.3,316.2 L 217.3,316.9 L 217.0,317.0 L 217.1,317.2 L 217.3,317.2 L 217.4,317.5 L 217.5,318.5 L 217.7,319.3 L 217.9,319.9 L 217.8,320.2 L 217.9,320.4 L 218.2,321.2 L 218.2,322.8 L 217.1,324.2 L 216.7,324.4 L 216.3,324.6 L 216.1,324.7 L 214.9,324.4 L 214.5,324.2 L 214.1,323.3 L 213.4,323.5 L 213.1,323.8 L 212.8,324.3 L 212.8,324.6 L 212.6,325.0 L 212.3,325.3 L 211.7,325.5 L 211.1,325.5 L 210.8,325.3 L 210.4,325.2 L 210.3,325.1 L 210.3,324.8 L 209.8,324.7 L 209.0,324.4 L 208.8,324.4 L 208.8,323.2 L 208.6,323.1 L 208.5,322.7 L 208.5,322.4 L 208.5,321.8 L 208.5,321.0 L 208.3,320.6 L 208.3,319.9 L 207.7,319.6 L 207.3,319.1 L 207.3,318.7 L 207.4,317.9 L 207.3,317.6 L 207.3,317.3 L 207.2,317.2 L 207.2,315.2 L 206.8,314.1 L 206.7,313.2 L 206.5,312.9 L 205.9,311.4 L 205.5,310.4 L 205.3,310.1 L 205.3,310.1 L 205.1,310.2 L 205.1,310.6 L 204.9,310.7 L 204.4,310.7 L 204.0,311.2 L 203.9,311.4 L 203.3,311.5 L 203.0,311.9 L 202.6,312.0 L 202.2,312.0 L 202.0,312.1 L 201.9,312.5 L 201.5,312.6 L 201.1,312.4 L 200.7,311.7 L 200.6,310.9 L 200.7,309.7 L 200.8,309.3 L 200.5,309.0 L 200.8,308.1 L 200.8,306.8 L 201.3,306.2 L 201.3,305.6 L 201.6,305.7 L 201.9,305.4 L 202.0,305.3 L 202.1,305.2 L 202.0,304.8 L 201.5,304.7 L 201.3,304.6 L 201.2,304.6 L 201.2,305.0 L 201.1,305.0 L 200.8,304.9 L 200.5,305.0 L 199.7,304.6 L 199.4,304.6 L 199.4,304.6 L 199.0,304.5 L 198.8,304.5 L 198.6,304.5 L 198.1,304.9 L 198.0,305.1 L 197.7,305.5 L 197.5,305.5 L 197.4,305.3 L 197.3,305.2 L 197.0,305.4 L 197.0,305.6 L 196.3,306.2 L 195.5,306.7 L 195.0,306.7 L 194.5,306.5 L 194.0,306.4 L 192.6,306.9 L 192.2,306.9 L 191.9,307.0 L 191.3,306.9 L 190.7,306.6 L 189.9,306.4 L 189.0,306.3 L 187.3,306.8 L 186.2,306.8 L 186.7,306.5 L 187.5,306.2 L 188.0,305.9 L 188.4,305.7 L 188.9,305.7 L 189.5,305.3 L 189.7,305.1 L 189.9,304.7 L 189.9,304.4 L 190.3,303.9 L 190.5,303.8 L 190.9,304.0 L 191.3,304.0 L 191.9,303.7 L 192.0,303.2 L 191.5,302.1 L 190.8,301.5 L 190.4,301.4 L 189.7,300.8 L 189.4,300.7 L 189.2,300.6 L 188.8,300.6 L 188.5,301.0 L 188.4,301.3 L 188.3,301.6 L 187.9,301.6 L 187.6,301.5 L 187.4,301.3 L 187.4,301.0 L 187.5,300.8 L 187.3,300.6 L 186.7,300.6 L 186.4,300.7 L 186.1,300.7 L 185.3,300.1 L 185.0,300.0 L 184.3,300.2 L 184.0,300.4 L 183.1,300.7 L 182.5,301.2 L 182.3,301.4 L 181.6,302.0 L 181.4,302.4 L 181.2,302.6 L 181.0,302.7 L 180.8,302.5 L 180.4,302.6 L 180.3,302.7 L 180.0,302.9 L 179.4,303.1 L 179.1,303.5 L 179.1,303.7 L 179.4,303.8 L 179.4,304.1 L 179.3,304.3 L 178.8,304.4 L 178.4,304.7 L 177.9,305.5 L 177.1,306.2 L 176.5,306.4 L 176.1,306.3 L 175.8,306.2 L 174.9,306.1 L 174.3,305.8 L 174.0,305.7 L 173.6,305.4 L 173.2,305.2 L 172.9,305.4 L 172.4,304.9 L 172.2,304.7 L 172.1,304.6 L 172.2,304.1 L 172.1,303.6 L 171.5,303.6 L 171.3,303.7 L 171.3,303.9 L 171.6,304.5 L 171.4,304.5 L 171.0,304.3 L 171.0,303.8 L 170.8,303.8 L 170.7,304.1 L 170.6,304.4 L 169.5,304.7 L 168.8,305.2 L 168.6,305.7 L 168.2,306.0 L 168.4,306.1 L 168.4,306.5 L 168.2,306.6 L 166.9,306.7 L 166.3,306.4 L 165.9,306.4 L 165.3,306.2 L 165.2,306.1 L 165.2,305.8 L 165.0,305.8 L 164.5,305.9 L 164.2,305.8 L 164.0,305.6 L 163.8,305.8 L 163.5,305.8 L 162.4,305.2 L 161.8,305.0 L 161.2,304.8 L 160.9,304.8 L 160.7,304.6 L 160.8,304.3 L 160.7,304.2 L 160.4,304.3 L 159.9,304.4 L 159.5,304.1 L 159.1,304.2 L 159.0,304.4 L 158.8,304.5 L 158.6,304.8 L 158.3,304.8 L 157.4,304.6 L 157.2,304.4 L 157.1,304.2 L 156.1,304.0 L 155.4,304.0 L 155.2,303.8 L 154.3,303.7 L 154.0,303.4 L 153.3,302.1 L 153.1,301.9 L 152.9,301.2 L 152.9,300.9 L 153.2,300.6 L 153.3,300.6 L 153.7,300.3 L 154.3,299.7 L 154.5,299.6 L 154.8,299.2 L 155.1,298.5 L 155.1,298.1 L 155.0,297.2 L 155.0,296.3 L 155.4,295.4 L 155.3,294.9 L 155.1,294.4 L 154.5,293.5 L 154.3,292.8 L 154.4,291.7 L 154.6,291.2 L 154.8,291.0 L 155.0,291.0 L 155.4,290.8 L 155.6,290.4 L 155.8,290.1 L 156.0,289.8 L 157.4,289.1 L 157.7,288.9 L 157.6,288.7 L 157.1,288.2 L 156.3,287.8 L 156.1,287.5 L 155.8,287.2 L 154.7,286.9 L 153.8,286.2 L 153.7,285.8 L 153.3,285.7 L 153.1,285.7 L 152.8,286.0 L 152.4,286.0 L 152.1,286.1 L 151.0,286.1 L 150.5,286.0 L 150.1,285.7 L 149.8,285.4 L 149.5,285.4 L 148.7,285.6 L 148.0,286.1 L 147.8,286.2 L 147.2,286.2 L 146.5,286.0 L 146.3,285.9 L 146.2,285.7 L 147.1,285.5 L 147.1,285.2 L 147.0,285.1 L 146.9,285.0 L 146.6,285.1 L 146.5,285.2 L 146.0,285.2 L 145.6,285.5 L 145.5,285.9 L 145.2,286.0 L 145.0,286.2 L 144.7,286.3 L 144.5,286.1 L 144.1,286.0 L 144.0,286.1 L 143.8,286.2 L 143.7,286.0 L 143.3,286.1 L 143.0,285.9 L 142.1,285.9 L 141.9,286.1 L 141.5,286.2 L 140.5,286.3 L 140.4,286.5 L 140.6,286.7 L 140.5,286.9 L 140.7,287.0 L 140.8,287.2 L 141.0,287.2 L 141.3,287.4 L 141.9,287.5 L 142.2,287.7 L 142.3,288.1 L 142.2,288.4 L 141.7,288.6 L 141.5,288.9 L 141.2,289.1 L 140.7,289.2 L 140.7,289.5 L 140.9,289.8 L 140.6,290.0 L 140.7,290.2 L 140.6,290.3 L 140.5,290.3 L 75.3,292.8 L 75.2,292.5 L 75.2,292.5 L 74.8,292.6 L 74.5,292.8 L 74.1,293.2 L 73.8,293.4 L 73.6,293.2 L 73.5,293.1 L 73.2,293.0 L 72.9,293.2 L 72.4,293.3 L 72.1,293.2 L 71.9,292.9 L 72.0,292.2 L 71.9,292.1 L 71.8,291.9 L 71.9,291.8 L 71.7,291.7 L 71.5,291.9 L 71.4,291.7 L 70.9,291.3 L 70.6,291.3 L 70.3,291.0 L 69.5,291.0 L 68.8,291.7 L 68.5,291.9 L 68.3,292.0 L 40.6,227.9 L 40.0,226.6 L 40.4,226.7 L 40.4,227.1 L 40.5,227.2 L 40.5,227.5 L 40.6,227.9 L 40.8,228.1 L 41.2,228.3 L 41.9,228.3 L 42.2,228.1 L 42.5,227.9 L 43.1,227.5 L 43.1,227.3 L 43.7,227.2 L 44.0,226.6 L 44.1,226.1 L 44.3,226.1 L 44.6,226.3 L 44.6,226.5 L 44.8,226.5 L 45.2,225.9 L 45.5,226.1 L 45.8,225.7 L 45.9,225.4 L 46.1,225.2 L 46.3,225.2 L 46.0,226.2 L 46.1,226.4 L 46.5,226.5 L 47.2,226.4 L 47.6,226.2 L 47.7,226.0 L 48.0,225.9 L 48.3,225.9 L 48.5,226.1 L 48.8,226.0 L 49.0,225.8 L 48.9,225.5 L 49.1,225.4 L 49.7,225.8 L 50.1,225.7 L 50.4,225.5 L 51.0,225.3 L 51.1,225.2 L 51.2,224.9 L 51.6,224.2 L 51.9,221.1 L 51.5,220.8 L 51.4,220.7 L 51.2,220.4 L 50.9,220.0 L 50.7,219.8 L 50.7,219.4 L 51.0,218.5 L 51.1,218.3 L 50.9,218.2 L 50.9,218.0 L 52.0,216.9 L 52.1,216.7 L 52.1,216.4 L 52.3,216.2 L 52.5,216.2 L 52.6,216.4 L 52.7,216.2 L 52.7,215.7 L 52.1,214.9 L 52.1,214.9 L 52.0,214.2 L 52.4,213.6 L 53.7,212.4 L 54.4,212.0 L 55.0,211.5 L 55.5,211.2 L 55.7,211.0 L 56.5,209.9 L 57.3,209.9 L 57.7,209.7 L 58.0,209.7 L 58.3,209.8 L 58.7,210.1 L 58.5,210.8 L 58.7,210.9 L 58.9,210.9 L 59.3,210.8 L 59.9,210.9 L 60.1,211.2 L 60.2,211.8 L 60.5,211.8 L 60.9,211.6 L 61.0,211.6 L 61.2,211.6 L 61.1,212.0 L 61.2,212.2 L 62.2,212.3 L 62.5,212.2 L 63.6,212.2 L 64.0,212.1 L 64.5,212.1 L 65.5,213.1 L 66.2,214.1 L 66.5,215.0 L 66.5,215.0 L 66.7,215.4 L 66.6,216.3 L 66.6,217.3 L 67.4,217.3 L 67.8,217.0 L 68.2,217.2 L 68.4,217.4 L 68.2,217.5 L 67.6,217.6 L 66.9,217.8 L 66.2,217.8 L 65.2,218.0 L 64.5,218.3 L 63.4,219.5 L 63.3,220.4 L 63.1,220.6 L 62.8,220.6 L 62.7,220.8 L 62.3,221.1 L 62.2,221.0 L 61.9,221.0 L 61.8,221.1 L 61.6,221.4 L 61.9,221.5 L 62.9,222.0 L 63.2,222.0 L 63.8,221.5 L 64.4,221.0 L 64.7,220.9 L 65.2,220.9 L 65.5,221.0 L 66.1,220.9 L 66.4,221.1 L 67.1,221.2 L 67.1,221.3 L 67.0,221.5 L 66.7,221.8 L 66.5,221.8 L 66.1,222.0 L 65.5,222.6 L 65.6,222.7 L 65.8,222.8 L 66.1,222.9 L 66.5,222.8 L 67.1,222.6 L 67.5,222.6 L 67.7,222.3 L 67.8,222.1 L 68.2,222.0 L 68.2,221.9 L 67.8,221.7 L 68.0,221.4 L 68.4,221.4 L 68.8,221.5 L 69.2,221.4 L 69.7,221.1 L 70.3,220.5 L 70.3,220.3 L 70.5,220.2 L 70.8,220.1 L 70.9,220.2 L 70.8,220.4 L 71.1,220.5 L 71.2,220.5 L 71.5,220.5 L 71.7,220.5 L 71.9,220.3 L 72.0,220.5 L 72.0,220.6 L 72.3,220.6 L 73.0,220.0 L 73.1,219.8 L 73.4,219.7 L 73.4,219.8 L 73.4,220.0 L 73.4,220.2 L 73.3,220.4 L 73.6,220.6 L 74.6,220.3 L 75.2,220.3 L 75.6,220.1 L 75.7,220.2 L 75.6,220.6 L 75.7,220.7 L 76.0,220.6 L 76.4,220.5 L 76.5,220.3 L 76.9,220.4 L 77.2,220.3 L 77.5,220.1 L 77.9,220.1 L 78.3,219.8 L 78.2,219.6 L 78.0,219.5 L 78.1,218.7 L 78.3,218.4 L 78.5,218.3 L 78.8,218.2 L 79.2,218.3 L 80.4,218.4 L 81.0,217.9 L 81.1,217.6 L 81.3,217.7 L 81.6,217.8 L 82.1,217.7 L 82.5,217.8 L 83.4,217.9 L 83.8,218.0 L 83.5,218.3 L 83.6,218.4 L 84.0,218.4 L 84.2,218.2 L 84.1,218.1 L 84.1,218.0 L 84.9,217.9 L 85.3,217.7 L 86.1,218.0 L 86.3,218.0 L 86.5,217.8 L 86.9,217.9 L 86.9,217.9 L 87.1,218.1 L 87.4,218.2 L 87.5,218.5 L 87.5,218.6 L 87.2,218.8 L 86.8,218.9 L 86.6,218.9 L 86.5,219.0 L 86.6,219.1 L 86.4,219.3 L 86.5,219.4 L 86.7,219.6 L 86.8,219.7 L 86.7,219.8 L 86.8,219.9 L 87.2,219.9 L 87.4,220.0 L 87.5,220.1 L 87.8,220.1 L 87.9,220.1 L 88.0,220.1 L 88.2,220.2 L 88.3,220.2 L 88.4,220.1 L 88.7,219.9 L 89.0,219.9 L 89.2,220.1 L 89.5,220.4 L 89.8,220.7 L 90.1,221.1 L 90.4,221.4 L 90.5,221.4 L 90.6,221.5 L 90.7,221.3 L 90.4,221.0 L 90.4,220.9 L 90.4,220.8 L 90.4,220.8 L 90.3,220.8 L 90.4,220.6 L 90.6,220.5 L 90.7,220.4 L 90.7,220.3 L 90.4,220.2 L 90.1,220.5 L 90.0,220.5 L 89.7,220.1 L 89.4,219.9 L 89.6,219.8 L 89.8,219.8 L 89.9,219.8 L 90.4,219.7 L 90.7,219.6 L 91.0,219.5 L 91.2,219.4 L 91.2,219.3 L 91.0,218.9 L 90.9,218.5 L 90.8,218.1 L 90.7,217.7 L 90.6,217.4 L 90.8,217.4 L 90.8,217.4 L 90.9,217.3 L 91.3,217.2 L 91.4,217.2 L 91.4,217.1 L 91.4,217.0 L 91.1,216.7 L 90.8,216.4 L 90.5,216.1 L 90.3,215.9 L 89.9,215.7 L 89.7,215.6 L 89.5,215.7 L 89.4,215.7 L 89.4,215.6 L 89.5,215.1 L 89.5,215.0 L 89.6,214.7 L 89.7,214.5 L 89.8,214.3 L 90.4,214.5 L 90.5,214.9 L 90.7,214.9 L 90.8,214.6 L 91.1,214.6 L 91.2,214.8 L 91.3,214.9 L 91.6,214.9 L 91.8,214.8 L 92.2,214.7 L 92.5,215.0 L 93.3,214.9 L 93.6,214.7 L 93.9,214.5 L 94.8,214.3 L 95.1,214.2 L 95.3,213.8 L 95.3,212.6 L 95.6,212.4 L 95.9,212.2 L 96.4,212.2 L 96.9,212.7 L 97.3,212.9 L 97.3,213.3 L 97.5,213.4 L 98.1,212.9 L 98.3,212.9 L 98.5,213.1 L 98.8,213.4 L 99.2,213.3 L 99.6,213.6 L 99.6,214.1 L 99.4,214.4 L 99.6,214.4 L 99.8,214.5 L 99.8,215.1 L 99.8,215.1 L 99.0,215.3 L 99.0,215.5 L 99.1,215.6 L 99.5,215.5 L 99.7,215.4 L 99.8,215.2 L 100.0,215.1 L 100.0,215.1 L 100.1,215.1 L 100.1,214.4 L 100.6,214.0 L 101.0,213.8 L 101.2,213.6 L 101.8,212.7 L 102.4,212.5 L 103.1,212.5 L 103.4,213.2 L 103.7,213.5 L 104.0,213.4 L 104.2,213.2 L 104.5,212.7 L 105.2,212.0 L 105.6,211.9 L 107.1,211.8 L 107.2,211.8 L 109.3,211.4 L 109.7,211.4 L 109.9,211.6 L 110.3,211.9 L 110.3,212.3 L 110.1,212.6 L 110.2,213.1 L 110.4,213.0 L 110.6,213.1 L 111.0,213.0 L 111.5,212.8 L 111.8,212.6 L 112.1,212.7 L 112.3,212.9 L 112.6,213.0 L 113.2,212.9 L 113.9,212.9 L 114.0,213.2 L 113.9,213.5 L 113.6,213.7 L 113.3,213.5 L 113.0,213.5 L 112.8,213.7 L 113.1,213.9 L 113.1,214.4 L 113.0,214.8 L 113.2,214.9 L 113.5,214.9 L 114.0,214.5 L 115.0,214.0 L 115.4,214.0 L 115.6,214.3 L 115.6,214.5 L 115.5,215.1 L 115.5,215.1 L 115.6,215.3 L 115.3,215.6 L 115.3,215.8 L 115.4,216.0 L 115.8,216.1 L 116.4,216.1 L 116.6,215.7 L 116.7,215.3 L 117.2,215.1 L 117.2,215.1 L 117.4,214.8 L 117.2,214.3 L 117.3,214.0 L 117.5,213.8 L 118.4,213.6 L 118.7,213.3 L 118.9,212.9 L 119.7,213.3 L 119.6,214.0 L 119.5,214.2 L 119.2,214.3 L 118.9,214.6 L 118.7,214.9 L 118.8,215.0 L 119.1,215.0 L 119.7,214.7 L 119.9,214.2 L 120.2,214.0 L 120.7,214.0 L 121.2,214.3 L 121.4,215.2 L 121.4,215.2 L 121.4,215.2 L 121.8,215.4 L 122.1,215.5 L 122.4,215.5 L 122.6,215.3 L 123.0,215.2 L 123.1,215.2 L 123.5,214.7 L 123.6,214.3 L 123.6,213.8 L 123.8,213.7 L 124.0,213.7 L 124.1,213.9 L 124.9,213.9 L 125.1,214.0 L 125.5,214.6 L 125.8,214.6 L 126.0,214.3 L 126.2,214.4 L 126.7,214.4 L 126.9,214.8 L 127.1,214.9 L 127.8,214.8 L 127.9,214.4 L 128.1,214.2 L 128.6,214.1 L 128.7,213.9 L 128.9,213.5 L 129.0,213.4 L 129.5,213.2 L 130.0,213.4 L 130.3,214.0 L 130.5,214.1 L 131.5,214.1 L 132.2,213.5 L 132.7,212.9 L 133.1,212.5 L 133.4,212.4 L 133.8,212.4 L 134.0,212.5 L 134.3,212.9 L 134.3,213.2 L 134.1,213.5 L 134.3,213.7 L 134.8,213.7 L 135.2,213.4 L 136.0,213.0 L 136.4,213.0 L 136.7,213.4 L 137.0,213.5 L 137.5,213.9 L 138.0,214.2 L 138.2,214.5 L 138.0,215.2 L 138.0,215.2 L 138.0,215.5 L 138.3,215.6 L 138.4,215.9 L 138.8,216.1 L 139.0,216.6 L 139.0,217.0 L 139.2,217.1 L 139.5,217.2 L 139.6,217.0 L 139.8,217.1 L 139.9,217.3 L 140.1,217.3 L 140.1,217.1 L 140.8,216.9 L 141.1,216.6 L 141.3,216.5 L 141.6,216.6 L 141.8,216.8 L 140.9,217.6 L 140.9,217.7 L 141.3,217.7 L 141.6,217.9 L 141.5,218.1 L 141.6,218.3 L 141.5,218.4 L 141.5,218.6 L 142.2,218.6 L 142.4,218.4 L 142.7,218.4 L 142.9,218.8 L 143.1,218.9 L 143.2,219.3 L 143.5,219.5 L 144.2,219.4 L 144.3,219.2 L 144.9,219.2 L 145.0,219.0 L 145.3,218.2 L 145.8,217.8 L 145.7,217.6 L 145.5,217.5 L 145.3,217.1 L 145.4,216.8 L 145.5,216.6 L 145.7,216.0 L 145.6,215.7 L 145.7,215.4 L 145.9,215.2 L 146.0,215.2 L 146.2,215.0 L 146.5,214.9 L 147.0,214.9 L 147.2,215.0 L 147.3,215.1 L 147.3,215.2 L 147.3,215.2 L 147.3,215.3 L 147.2,215.5 L 147.2,215.8 L 147.3,215.8 L 147.5,216.2 L 147.4,216.3 L 147.5,216.6 L 147.4,216.8 L 147.5,216.9 L 147.6,216.9 L 148.1,216.7 L 148.2,216.6 L 148.5,216.0 L 148.4,215.8 L 148.4,215.5 L 148.6,215.4 L 148.8,215.2 L 149.3,215.2 L 149.4,215.3 L 149.6,215.5 L 149.3,215.8 L 149.8,215.8 L 150.0,215.7 L 150.2,215.7 L 150.5,215.5 L 150.6,215.5 L 150.8,215.8 L 150.8,216.0 L 151.0,216.0 L 151.6,215.9 L 151.7,215.9 L 151.5,216.1 L 151.5,216.2 L 151.9,216.3 L 152.1,216.5 L 152.7,216.4 L 153.2,216.3 L 153.3,216.2 L 153.8,215.9 L 154.0,215.7 L 154.1,215.4 L 154.5,215.2 L 154.6,215.2" fill="none" stroke="black" stroke-width="2"/>
</svg>