<?xml version="1.0" encoding="UTF-8"?>
<svg width="400" height="400" viewBox="0 0 400 400" xmlns="http://www.w3.org/2000/svg">
  <rect width="400" height="400" fill="white"/>
  <path d="M 51.1,207.8 L 44.8,198.4 L 42.4,198.4 L 41.2,200.8 L 40.0,200.8 L 40.2,198.0 L 44.6,192.0 L 46.4,187.5 L 48.2,185.7 L 53.3,185.5 L 56.0,183.9 L 58.1,183.6 L 61.5,180.3 L 65.3,179.4 L 71.4,181.0 L 76.8,181.6 L 78.0,182.8 L 79.2,182.6 L 79.8,181.4 L 88.9,178.3 L 100.1,179.3 L 111.0,179.3 L 112.2,179.9 L 114.0,179.7 L 121.8,175.4 L 128.7,176.0 L 134.5,177.9 L 136.9,178.2 L 139.3,179.4 L 142.6,182.2 L 151.4,184.0 L 164.0,183.8 L 167.1,183.4 L 168.3,182.2 L 180.3,182.6 L 187.0,183.3 L 189.0,184.7 L 199.9,185.9 L 201.9,187.3 L 207.7,187.9 L 219.8,187.6 L 227.6,186.7 L 229.5,186.1 L 232.5,185.2 L 253.8,186.2 L 254.8,186.8 L 256.8,186.2 L 258.1,185.3 L 265.3,185.7 L 267.7,186.3 L 270.1,187.1 L 272.6,186.9 L 279.5,186.3 L 287.4,186.3 L 290.4,186.9 L 294.3,186.7 L 295.5,186.4 L 302.7,184.3 L 309.3,183.2 L 314.8,181.6 L 324.2,180.4 L 328.4,180.1 L 332.4,177.5 L 336.6,176.9 L 339.6,175.7 L 342.6,175.4 L 346.3,176.0 L 349.3,175.7 L 355.6,173.0 L 359.2,172.4 L 360.0,172.8 L 351.4,202.9 L 339.5,203.1 L 333.5,203.7 L 330.7,203.4 L 331.3,202.2 L 331.3,200.7 L 322.6,198.4 L 314.8,199.5 L 300.9,198.6 L 293.9,201.7 L 288.2,201.7 L 287.9,200.2 L 286.6,199.0 L 282.2,199.6 L 278.2,202.6 L 272.6,202.6 L 258.7,202.5 L 251.7,202.2 L 246.6,200.7 L 243.0,201.3 L 239.3,203.7 L 229.3,204.8 L 218.8,205.4 L 216.4,203.0 L 211.8,202.6 L 208.2,203.2 L 204.0,203.6 L 202.8,202.6 L 201.0,202.2 L 190.1,202.8 L 186.5,203.7 L 183.5,204.9 L 180.2,204.9 L 177.2,205.9 L 174.2,205.9 L 171.4,206.3 L 169.4,207.3 L 168.2,208.7 L 163.9,210.6 L 160.5,212.1 L 158.7,213.6 L 153.9,213.8 L 150.9,214.4 L 149.1,216.6 L 143.1,217.2 L 135.6,219.2 L 133.0,221.3 L 127.6,221.7 L 125.8,222.5 L 123.7,223.1 L 121.7,220.7 L 117.5,220.3 L 114.3,224.6 L 111.3,226.7 L 97.8,227.6 L 96.2,226.0 L 92.6,225.4 L 89.6,225.4 L 88.4,226.0 L 77.5,226.2 L 71.3,224.1 L 66.2,219.9 L 66.4,218.0 L 68.0,214.4 L 67.6,211.8 L 65.2,210.6 L 63.2,209.8 L 62.3,208.4 L 57.4,209.6 L 53.9,209.2 L 51.1,207.8" fill="none" stroke="black" stroke-width="2"/>
</svg>