<?xml version="1.0" encoding="UTF-8"?>
<svg width="400" height="400" viewBox="0 0 400 400" xmlns="http://www.w3.org/2000/svg">
  <rect width="400" height="400" fill="white"/>
  <path d="M 59.5,270.6 L 55.6,268.7 L 55.6,264.6 L 53.5,262.3 L 47.0,262.2 L 45.7,260.0 L 45.5,254.7 L 44.1,253.2 L 41.3,253.8 L 40.0,248.2 L 44.6,243.0 L 46.5,241.3 L 51.5,240.0 L 54.9,234.5 L 58.8,232.8 L 59.5,232.2 L 60.8,231.0 L 62.5,228.5 L 64.8,223.5 L 65.2,222.4 L 66.3,221.8 L 69.3,223.3 L 75.1,224.2 L 77.4,223.4 L 78.2,222.3 L 78.8,219.3 L 80.2,218.2 L 83.3,217.6 L 84.4,216.5 L 85.0,214.3 L 84.7,212.4 L 82.3,208.4 L 80.8,208.4 L 79.2,213.4 L 78.3,215.0 L 72.2,214.9 L 67.9,216.6 L 65.5,216.8 L 63.5,215.4 L 59.5,214.7 L 55.8,214.1 L 51.6,216.6 L 50.5,215.5 L 50.5,213.6 L 55.5,213.3 L 57.5,213.4 L 59.5,211.9 L 60.8,210.9 L 63.0,208.7 L 66.4,207.6 L 74.6,202.5 L 76.5,200.2 L 78.3,196.3 L 78.1,193.6 L 75.8,190.2 L 73.1,188.8 L 70.4,184.9 L 69.1,182.1 L 67.4,179.9 L 67.4,174.9 L 71.4,169.8 L 72.3,166.5 L 71.7,163.7 L 69.6,159.5 L 67.2,156.2 L 64.2,153.0 L 61.4,151.6 L 60.3,149.4 L 60.8,148.0 L 65.3,147.3 L 64.9,145.5 L 64.8,145.2 L 67.7,143.8 L 75.1,144.6 L 78.4,145.5 L 82.5,148.6 L 86.1,151.7 L 88.8,159.8 L 89.9,161.2 L 91.0,161.5 L 101.3,161.1 L 103.2,159.2 L 103.9,156.4 L 102.2,154.2 L 100.3,152.1 L 101.2,150.3 L 101.8,148.0 L 101.6,145.2 L 100.2,141.8 L 102.1,138.8 L 102.4,137.5 L 104.1,135.2 L 103.9,131.6 L 102.0,128.8 L 102.1,123.0 L 103.6,118.2 L 104.1,114.1 L 105.8,114.1 L 105.9,112.4 L 104.4,111.9 L 104.2,110.2 L 103.9,110.0 L 101.4,108.5 L 97.5,109.0 L 100.7,104.3 L 102.9,102.1 L 102.7,99.8 L 101.7,97.4 L 101.7,92.9 L 102.2,92.4 L 104.2,89.6 L 107.6,89.0 L 111.2,86.0 L 112.3,86.4 L 113.9,90.0 L 115.0,91.2 L 122.3,91.3 L 122.6,92.6 L 126.0,101.3 L 126.9,110.0 L 127.0,111.9 L 125.6,114.6 L 123.6,117.4 L 122.1,125.4 L 123.1,126.5 L 125.1,126.3 L 127.9,124.7 L 129.4,119.8 L 132.8,114.7 L 136.5,110.1 L 138.2,110.1 L 138.4,112.1 L 136.2,115.9 L 136.2,118.4 L 139.6,129.9 L 141.7,133.0 L 143.2,133.2 L 147.1,131.1 L 149.9,130.9 L 151.0,133.1 L 150.7,147.3 L 152.6,150.4 L 154.3,154.3 L 155.9,155.9 L 157.5,156.6 L 160.1,159.0 L 163.5,166.4 L 165.2,168.8 L 166.3,168.6 L 169.4,165.9 L 172.4,165.1 L 179.1,162.3 L 181.4,161.9 L 182.5,162.5 L 188.4,162.5 L 190.6,163.1 L 190.6,166.1 L 189.3,170.8 L 192.0,173.1 L 194.5,173.6 L 197.6,173.6 L 199.5,173.1 L 211.7,160.8 L 212.9,159.4 L 215.3,158.5 L 216.4,159.0 L 216.8,161.1 L 214.0,167.7 L 213.7,172.4 L 214.5,173.5 L 218.8,173.5 L 222.1,171.8 L 228.2,171.3 L 231.6,168.3 L 233.4,167.7 L 234.3,168.5 L 233.4,172.7 L 232.3,174.1 L 227.9,176.1 L 222.7,177.7 L 220.1,179.6 L 217.3,183.5 L 214.9,188.5 L 212.1,192.2 L 207.1,197.6 L 200.2,202.2 L 197.6,203.1 L 192.9,203.9 L 187.9,208.7 L 187.9,212.8 L 188.7,214.8 L 191.3,217.0 L 195.7,217.8 L 197.6,217.8 L 199.6,217.6 L 201.5,215.0 L 204.8,215.0 L 205.2,218.9 L 208.0,222.0 L 208.2,223.7 L 206.5,225.4 L 203.5,227.1 L 197.7,228.4 L 192.7,229.5 L 189.4,231.7 L 177.1,242.6 L 175.7,245.2 L 174.0,250.2 L 174.3,253.2 L 176.2,255.4 L 177.7,255.2 L 180.5,252.4 L 182.4,251.0 L 183.8,248.4 L 186.3,246.5 L 189.9,246.5 L 190.5,247.6 L 190.7,250.7 L 191.6,251.0 L 190.5,252.1 L 187.9,252.7 L 186.8,253.4 L 186.9,256.8 L 188.8,261.0 L 190.5,262.1 L 193.3,261.8 L 195.8,260.4 L 197.5,258.2 L 197.7,257.1 L 198.5,254.9 L 197.7,253.8 L 194.0,253.2 L 194.0,252.3 L 197.7,251.5 L 200.2,251.0 L 200.2,249.0 L 199.6,247.9 L 200.2,246.5 L 201.3,245.6 L 201.3,243.8 L 202.4,243.8 L 202.7,245.1 L 203.8,247.3 L 206.6,249.3 L 211.3,249.0 L 214.4,246.4 L 215.0,245.1 L 215.7,244.0 L 220.8,243.6 L 223.0,241.7 L 225.8,241.2 L 228.3,239.2 L 229.7,236.7 L 232.8,236.7 L 232.8,235.1 L 231.1,231.7 L 233.6,229.7 L 233.6,227.5 L 238.9,227.3 L 242.2,226.2 L 243.6,224.7 L 243.0,220.3 L 243.6,216.7 L 246.9,212.1 L 248.6,208.2 L 248.6,203.2 L 244.1,198.0 L 244.4,196.9 L 247.7,192.1 L 249.0,188.5 L 249.6,184.3 L 248.5,181.5 L 249.0,179.3 L 250.1,177.6 L 254.6,177.1 L 260.2,172.4 L 260.2,167.6 L 261.8,165.9 L 264.9,164.1 L 269.8,159.8 L 271.3,157.0 L 273.0,154.8 L 273.7,149.3 L 275.4,143.7 L 277.1,140.9 L 278.5,136.7 L 282.1,130.6 L 281.5,128.9 L 280.1,126.4 L 278.7,122.2 L 279.9,119.4 L 280.4,115.5 L 281.5,113.3 L 282.6,110.0 L 283.2,108.1 L 284.9,105.8 L 287.7,105.3 L 287.3,103.8 L 285.1,101.6 L 283.6,98.1 L 282.5,97.2 L 279.2,96.1 L 277.9,94.7 L 278.1,93.6 L 278.6,89.4 L 281.2,86.9 L 282.9,83.0 L 284.5,81.9 L 285.6,81.6 L 285.1,79.7 L 285.1,78.2 L 287.5,74.1 L 289.8,73.0 L 289.8,69.3 L 291.4,68.8 L 293.1,69.3 L 298.4,73.8 L 301.8,75.8 L 303.7,76.0 L 303.7,80.8 L 305.1,84.1 L 310.1,84.6 L 312.0,85.5 L 311.8,86.3 L 309.0,87.7 L 305.9,90.5 L 305.7,92.2 L 306.2,94.4 L 308.5,96.6 L 309.0,98.3 L 308.5,99.4 L 302.9,103.6 L 299.6,103.8 L 297.3,103.3 L 292.9,103.1 L 290.4,104.2 L 289.3,105.8 L 291.8,107.5 L 292.7,109.7 L 292.7,110.0 L 292.7,114.2 L 290.1,119.4 L 287.1,128.7 L 286.8,131.4 L 283.8,137.6 L 283.0,140.9 L 282.4,146.5 L 278.7,156.5 L 278.5,162.6 L 277.7,167.6 L 271.6,176.5 L 270.5,179.9 L 270.5,186.5 L 271.6,187.7 L 274.1,188.5 L 277.4,188.2 L 281.1,186.5 L 283.0,186.2 L 285.5,184.0 L 287.2,179.0 L 288.3,177.9 L 290.8,178.2 L 291.7,180.6 L 293.0,181.8 L 297.4,182.3 L 300.8,179.9 L 302.5,177.9 L 303.3,174.5 L 303.3,171.2 L 301.9,167.8 L 305.2,160.4 L 307.5,158.6 L 311.0,157.8 L 319.2,156.7 L 319.9,156.9 L 320.3,158.0 L 322.5,158.0 L 324.2,155.8 L 333.1,152.3 L 336.6,148.8 L 340.3,146.4 L 343.1,145.8 L 347.2,146.4 L 351.4,143.2 L 359.2,142.1 L 360.0,142.7 L 360.0,143.6 L 357.6,146.4 L 349.4,151.4 L 346.1,153.0 L 336.6,158.8 L 332.2,161.7 L 326.4,164.7 L 324.2,166.8 L 321.4,166.4 L 320.2,166.8 L 318.5,167.6 L 316.5,168.1 L 315.0,167.8 L 313.1,171.1 L 311.6,171.2 L 310.9,173.2 L 310.6,174.6 L 317.4,175.5 L 320.6,175.8 L 315.0,181.4 L 314.5,189.5 L 314.5,196.8 L 312.3,199.0 L 305.9,204.0 L 293.3,204.0 L 291.7,205.5 L 287.8,210.1 L 287.8,212.7 L 289.8,214.6 L 293.7,214.9 L 297.0,212.9 L 299.5,212.9 L 298.7,215.1 L 296.4,217.7 L 290.0,220.5 L 285.3,224.1 L 280.9,226.3 L 274.7,231.6 L 267.8,238.6 L 268.4,241.4 L 265.8,245.0 L 264.5,247.8 L 262.8,249.3 L 262.2,249.7 L 175.2,304.9 L 171.2,302.2 L 170.8,302.1 L 166.4,300.5 L 162.0,299.1 L 160.7,300.2 L 161.7,303.5 L 161.7,307.8 L 161.1,310.5 L 151.9,324.4 L 150.7,324.7 L 118.3,331.2 L 118.8,330.0 L 118.8,324.1 L 116.7,321.9 L 115.0,321.3 L 111.9,318.2 L 109.8,317.1 L 110.3,315.4 L 113.1,314.0 L 116.8,313.2 L 118.5,311.6 L 119.4,308.3 L 117.1,303.7 L 111.1,297.8 L 106.9,297.8 L 100.3,292.4 L 100.3,289.4 L 101.8,287.2 L 102.9,286.9 L 104.3,287.7 L 105.1,287.7 L 106.0,282.7 L 106.9,280.3 L 106.8,273.0 L 105.7,269.7 L 101.0,262.3 L 93.6,254.4 L 88.6,252.4 L 81.7,249.9 L 76.4,249.8 L 75.1,251.2 L 72.9,260.3 L 71.5,263.7 L 63.0,270.8 L 60.3,271.0 L 59.5,270.6" fill="none" stroke="black" stroke-width="2"/>
</svg>