<?xml version="1.0" encoding="UTF-8"?>
<svg width="400" height="400" viewBox="0 0 400 400" xmlns="http://www.w3.org/2000/svg">
  <rect width="400" height="400" fill="white"/>
  <path d="M 135.1,210.1 L 128.0,199.4 L 113.6,193.8 L 111.1,187.8 L 113.4,185.7 L 116.4,183.9 L 116.6,178.1 L 112.0,172.8 L 111.8,167.0 L 102.0,160.9 L 96.2,160.7 L 89.1,166.3 L 87.4,164.4 L 88.4,157.5 L 91.4,150.8 L 90.9,147.3 L 88.1,144.3 L 81.2,142.9 L 74.9,143.1 L 71.7,132.7 L 66.6,128.5 L 67.5,121.6 L 69.4,118.1 L 66.6,114.6 L 69.1,106.5 L 70.1,95.6 L 73.8,88.2 L 72.1,85.2 L 68.9,80.3 L 69.1,74.5 L 75.4,62.0 L 80.7,54.1 L 81.6,45.6 L 85.3,40.5 L 88.8,40.0 L 97.4,41.9 L 114.8,43.7 L 120.3,47.4 L 132.4,52.5 L 135.6,59.0 L 138.4,61.3 L 147.7,63.9 L 157.2,74.1 L 157.6,79.9 L 162.5,88.2 L 163.7,88.9 L 166.2,95.8 L 169.7,99.5 L 167.8,101.2 L 165.5,102.3 L 165.3,105.1 L 170.8,113.4 L 179.4,121.3 L 180.8,127.1 L 183.1,129.4 L 198.0,138.0 L 219.3,156.3 L 240.8,172.5 L 245.7,182.0 L 252.4,189.7 L 253.3,208.9 L 258.1,210.1 L 264.9,211.7 L 269.3,216.3 L 274.2,230.5 L 277.0,233.5 L 286.2,234.4 L 285.3,240.2 L 287.6,242.5 L 291.1,243.9 L 295.0,248.1 L 296.4,253.9 L 296.0,272.4 L 290.9,279.8 L 290.4,282.1 L 291.8,286.1 L 294.1,287.9 L 297.6,288.1 L 309.6,279.1 L 313.6,279.3 L 316.3,284.7 L 315.9,296.3 L 316.8,300.9 L 320.3,303.9 L 327.7,307.6 L 330.9,314.1 L 329.3,324.5 L 333.3,328.2 L 333.4,331.0 L 331.6,331.9 L 281.0,360.0 L 269.3,352.1 L 262.1,344.9 L 250.1,322.4 L 241.7,310.6 L 232.7,303.2 L 222.5,296.5 L 213.5,289.3 L 202.1,286.5 L 199.8,284.2 L 197.0,278.2 L 196.8,271.2 L 188.7,257.1 L 182.4,239.5 L 184.1,238.3 L 187.5,238.6 L 190.8,229.3 L 188.5,224.7 L 181.7,222.8 L 178.7,221.0 L 176.6,217.2 L 174.3,218.4 L 172.9,220.7 L 175.7,227.2 L 173.9,229.3 L 163.0,223.7 L 141.9,216.1 L 136.8,212.6 L 135.1,210.1" fill="none" stroke="black" stroke-width="2"/>
</svg>