<?xml version="1.0" encoding="UTF-8"?>
<svg width="400" height="400" viewBox="0 0 400 400" xmlns="http://www.w3.org/2000/svg">
  <rect width="400" height="400" fill="white"/>
  <path d="M 150.0,187.3 L 150.6,186.7 L 150.9,186.0 L 151.0,185.3 L 151.3,184.8 L 152.0,184.7 L 152.4,184.1 L 152.4,183.5 L 151.8,183.7 L 152.4,181.9 L 152.7,180.5 L 153.4,179.6 L 153.5,179.2 L 154.3,178.4 L 154.5,177.4 L 154.8,177.2 L 154.7,176.9 L 153.9,176.4 L 154.2,176.2 L 154.8,176.5 L 155.2,176.3 L 155.3,175.2 L 156.0,174.4 L 156.1,173.7 L 156.3,173.2 L 156.3,172.3 L 156.6,171.5 L 157.0,169.9 L 158.1,168.3 L 158.4,167.3 L 158.4,167.1 L 158.5,165.7 L 158.8,164.6 L 160.5,161.5 L 160.9,161.2 L 161.3,161.4 L 161.8,160.8 L 161.7,159.7 L 161.9,159.1 L 162.0,158.9 L 162.4,158.9 L 162.8,159.1 L 163.4,159.0 L 164.7,158.0 L 166.0,156.8 L 167.9,154.0 L 168.6,154.0 L 168.8,153.7 L 168.8,152.9 L 169.8,151.9 L 169.9,151.5 L 170.3,150.9 L 170.1,150.3 L 170.5,148.9 L 171.0,148.3 L 171.4,148.3 L 171.8,148.5 L 172.5,148.0 L 173.0,147.5 L 173.6,147.2 L 174.0,146.7 L 174.1,145.4 L 173.3,145.3 L 173.1,145.0 L 173.4,144.2 L 174.1,142.8 L 174.6,142.2 L 174.5,141.1 L 174.1,140.7 L 174.4,140.1 L 174.4,139.5 L 174.4,138.7 L 174.0,136.6 L 174.1,135.1 L 173.8,133.9 L 173.0,132.9 L 172.9,132.4 L 172.2,131.8 L 172.2,131.1 L 172.4,130.5 L 172.3,130.2 L 171.4,129.2 L 170.7,127.3 L 170.2,126.7 L 170.4,125.2 L 170.0,124.5 L 169.1,123.4 L 170.4,123.0 L 171.7,122.3 L 172.2,121.2 L 172.3,120.1 L 171.7,120.1 L 171.4,121.1 L 171.0,121.7 L 169.5,122.4 L 168.9,122.5 L 168.5,122.0 L 168.3,121.7 L 168.2,121.1 L 167.9,120.1 L 167.4,119.6 L 165.8,118.4 L 165.3,117.6 L 165.2,117.0 L 164.5,116.9 L 163.9,116.3 L 163.7,116.2 L 163.2,116.0 L 163.0,115.8 L 162.5,115.7 L 161.8,116.1 L 161.3,116.4 L 161.2,116.5 L 160.7,116.6 L 160.1,116.9 L 159.4,116.9 L 159.1,116.7 L 159.4,116.3 L 159.1,115.7 L 158.7,115.9 L 158.4,116.0 L 157.4,116.3 L 157.4,116.9 L 156.8,117.1 L 153.8,117.0 L 152.4,117.6 L 150.0,117.8 L 149.0,118.0 L 146.6,118.0 L 146.1,118.1 L 145.6,117.5 L 145.1,117.1 L 144.7,116.7 L 144.7,116.3 L 145.1,115.9 L 146.2,115.8 L 146.6,115.5 L 147.1,115.5 L 147.9,116.0 L 149.1,116.1 L 150.9,115.5 L 151.6,115.1 L 156.0,113.8 L 156.2,113.8 L 156.5,114.3 L 156.8,114.2 L 156.9,113.6 L 157.2,113.5 L 157.5,113.9 L 157.8,113.9 L 157.9,113.4 L 158.4,113.6 L 158.5,113.6 L 159.0,113.8 L 159.1,114.2 L 159.4,114.1 L 159.5,113.8 L 160.4,113.7 L 161.0,113.3 L 161.1,112.3 L 161.5,111.6 L 162.0,111.3 L 162.2,111.6 L 163.6,111.3 L 163.7,110.6 L 164.8,110.5 L 165.7,110.2 L 166.0,109.6 L 167.4,109.0 L 168.5,108.9 L 169.3,108.7 L 170.1,108.9 L 170.8,109.5 L 171.0,110.2 L 170.8,111.3 L 169.2,112.7 L 169.0,113.5 L 168.6,114.3 L 168.7,114.5 L 169.5,114.6 L 169.6,115.0 L 169.9,115.4 L 170.4,115.3 L 172.7,113.4 L 173.6,113.1 L 174.1,113.1 L 175.1,112.5 L 175.4,112.1 L 175.4,110.7 L 174.6,109.9 L 173.6,109.6 L 173.2,109.2 L 173.0,108.7 L 172.7,108.2 L 173.1,107.3 L 173.6,106.6 L 174.5,106.5 L 174.9,106.6 L 175.4,107.0 L 175.6,106.9 L 175.6,106.1 L 176.1,105.6 L 177.8,105.0 L 178.6,104.5 L 180.0,104.2 L 180.5,104.5 L 180.8,104.4 L 180.9,103.8 L 181.7,103.1 L 183.1,102.4 L 183.8,102.3 L 184.4,101.7 L 184.7,100.8 L 185.4,100.1 L 186.1,99.6 L 188.0,97.8 L 188.5,97.2 L 189.4,94.2 L 190.1,93.2 L 190.7,93.2 L 190.8,93.7 L 191.5,93.5 L 192.7,93.9 L 192.8,94.6 L 193.0,94.9 L 195.4,93.3 L 196.2,92.5 L 197.3,90.8 L 197.4,89.9 L 197.6,89.2 L 197.3,89.1 L 196.7,89.5 L 196.1,89.7 L 195.6,90.1 L 194.9,90.1 L 193.8,91.1 L 193.2,91.2 L 192.7,90.6 L 192.8,90.1 L 194.2,88.6 L 194.5,87.7 L 194.5,85.8 L 194.7,85.0 L 194.7,84.3 L 194.2,84.5 L 193.6,85.3 L 193.1,85.5 L 192.4,85.2 L 192.3,84.8 L 192.4,83.2 L 192.7,82.6 L 192.6,81.9 L 192.7,81.1 L 192.6,80.2 L 192.3,80.0 L 192.5,79.5 L 193.5,78.5 L 193.6,77.9 L 194.0,77.7 L 194.0,77.2 L 193.5,76.8 L 193.6,76.2 L 193.6,75.9 L 192.2,73.9 L 192.3,73.3 L 191.0,73.4 L 190.1,73.2 L 189.0,73.6 L 188.6,73.5 L 188.4,73.2 L 188.5,71.4 L 188.0,70.3 L 188.5,69.8 L 188.1,69.3 L 188.1,68.7 L 187.6,68.3 L 188.1,67.5 L 188.0,66.9 L 187.4,66.4 L 187.3,65.5 L 187.6,65.3 L 188.0,65.0 L 187.9,63.9 L 188.1,63.1 L 188.1,62.5 L 187.9,62.5 L 213.5,55.2 L 213.7,55.2 L 213.7,55.2 L 214.3,55.7 L 214.4,56.4 L 214.8,56.7 L 214.9,57.7 L 215.1,57.8 L 215.4,57.5 L 216.1,57.9 L 217.4,58.3 L 220.2,60.1 L 220.9,60.2 L 221.3,60.5 L 221.5,61.2 L 222.0,61.9 L 222.0,62.5 L 222.1,62.9 L 223.2,62.8 L 223.6,62.7 L 224.0,62.6 L 224.9,62.5 L 225.7,63.0 L 226.1,63.6 L 226.2,64.2 L 225.6,64.7 L 224.7,65.2 L 224.3,65.5 L 224.6,65.8 L 225.7,65.2 L 227.1,65.2 L 227.1,66.2 L 227.6,66.3 L 228.2,66.9 L 227.6,67.4 L 227.5,67.6 L 228.0,68.2 L 228.5,68.2 L 228.9,67.7 L 229.7,67.8 L 230.6,67.6 L 231.4,67.6 L 232.5,68.1 L 233.0,67.9 L 233.5,67.6 L 234.9,67.6 L 235.5,67.9 L 236.2,67.6 L 236.6,67.4 L 238.0,66.1 L 238.4,66.1 L 239.0,65.6 L 239.9,65.4 L 240.7,65.4 L 241.3,64.7 L 242.1,64.4 L 242.6,64.3 L 242.8,64.1 L 243.2,64.1 L 243.4,64.3 L 243.9,64.0 L 245.0,64.0 L 246.5,63.7 L 248.1,62.8 L 249.4,62.0 L 250.8,61.2 L 251.4,60.7 L 252.2,60.5 L 252.9,60.7 L 253.9,60.5 L 255.0,59.6 L 255.7,59.1 L 256.1,57.7 L 257.5,57.5 L 258.4,56.0 L 259.0,55.3 L 259.2,54.8 L 259.7,54.2 L 259.7,53.2 L 260.4,52.1 L 260.9,51.4 L 261.1,50.2 L 261.5,49.3 L 261.5,48.5 L 261.3,47.9 L 261.9,46.8 L 262.2,46.0 L 263.1,45.2 L 264.3,44.8 L 265.5,44.5 L 267.6,44.7 L 267.8,45.3 L 268.6,45.2 L 269.3,45.0 L 269.4,44.6 L 271.1,44.0 L 271.5,43.9 L 272.2,43.8 L 272.6,43.6 L 273.2,43.5 L 273.3,43.2 L 273.2,42.5 L 274.1,41.7 L 275.4,41.9 L 275.9,41.4 L 276.0,41.0 L 276.4,40.9 L 277.5,41.0 L 277.7,41.2 L 277.6,41.8 L 277.5,42.0 L 278.5,42.1 L 279.1,41.9 L 280.2,41.2 L 280.8,40.6 L 281.8,40.4 L 282.3,40.0 L 288.7,49.5 L 288.7,49.5 L 288.4,49.8 L 288.3,51.2 L 287.6,51.6 L 287.2,52.0 L 286.8,53.2 L 288.7,54.3 L 289.5,54.1 L 289.8,53.8 L 289.8,52.3 L 290.3,51.6 L 290.6,51.8 L 290.7,52.3 L 290.8,53.3 L 291.0,53.7 L 292.0,54.8 L 292.1,55.6 L 291.8,56.0 L 291.1,56.1 L 290.2,55.7 L 288.9,55.5 L 288.0,55.1 L 287.8,55.3 L 287.9,55.8 L 288.7,56.5 L 289.2,57.0 L 289.2,57.6 L 288.5,58.1 L 285.6,58.7 L 285.1,58.3 L 283.3,58.1 L 282.4,58.3 L 281.2,59.8 L 279.8,60.9 L 280.0,62.2 L 279.5,62.8 L 279.3,63.3 L 279.7,64.0 L 280.2,65.3 L 280.2,66.7 L 280.8,68.6 L 281.2,69.2 L 281.8,69.7 L 282.9,69.6 L 284.1,69.5 L 284.9,69.0 L 284.9,68.3 L 284.7,68.0 L 285.0,67.6 L 287.0,67.2 L 288.2,67.3 L 289.3,68.0 L 290.4,69.4 L 291.0,69.8 L 291.4,69.8 L 292.5,69.3 L 293.4,69.1 L 294.5,69.5 L 294.9,69.7 L 295.7,70.3 L 296.6,71.0 L 298.1,71.8 L 298.6,72.2 L 299.6,73.5 L 299.7,74.1 L 299.4,74.4 L 298.6,74.5 L 298.3,74.1 L 297.4,74.0 L 297.1,74.3 L 297.0,74.9 L 296.5,75.2 L 295.6,75.1 L 295.3,75.3 L 295.1,75.8 L 295.5,76.9 L 296.2,77.6 L 296.1,78.9 L 295.8,79.7 L 296.4,80.4 L 297.5,81.5 L 297.5,82.3 L 297.3,82.6 L 296.7,81.7 L 296.4,81.4 L 295.6,80.7 L 295.3,79.4 L 294.7,79.4 L 294.2,79.9 L 294.1,81.6 L 294.4,82.5 L 294.2,83.2 L 294.6,83.8 L 294.7,85.1 L 295.6,85.3 L 296.3,86.1 L 296.5,86.6 L 296.6,87.1 L 296.2,87.2 L 296.0,87.2 L 295.3,87.0 L 294.2,86.1 L 293.3,85.9 L 292.7,85.5 L 291.7,84.6 L 290.4,84.0 L 289.4,84.0 L 287.8,84.7 L 286.5,84.0 L 284.7,82.9 L 284.6,82.6 L 284.0,81.9 L 284.1,81.6 L 284.1,81.2 L 283.9,81.0 L 283.5,80.3 L 283.2,80.6 L 282.8,80.0 L 282.7,79.6 L 282.5,79.5 L 282.7,79.8 L 282.7,81.3 L 281.3,81.8 L 281.3,82.3 L 281.5,82.6 L 282.8,83.0 L 283.4,82.9 L 283.9,82.7 L 285.2,83.5 L 286.2,84.1 L 286.7,84.5 L 288.0,85.6 L 288.1,86.0 L 288.4,86.7 L 288.8,87.1 L 289.9,87.2 L 290.4,87.4 L 290.4,87.8 L 289.9,88.2 L 286.9,88.3 L 284.9,88.8 L 284.2,89.1 L 283.2,89.7 L 282.6,90.1 L 282.0,90.0 L 281.2,90.8 L 281.5,90.0 L 282.4,89.0 L 282.7,88.3 L 282.4,88.2 L 281.6,88.7 L 279.9,88.6 L 279.5,87.9 L 279.0,87.8 L 276.8,88.3 L 275.8,89.6 L 275.0,90.6 L 274.2,91.3 L 273.5,91.3 L 273.0,91.7 L 271.1,92.4 L 269.7,93.0 L 268.6,93.0 L 267.9,92.7 L 267.2,92.0 L 266.4,92.0 L 266.0,92.3 L 265.9,93.4 L 266.6,95.6 L 266.4,96.0 L 265.8,96.4 L 265.3,95.4 L 264.4,95.2 L 264.1,94.8 L 263.8,94.4 L 262.8,94.4 L 261.9,93.8 L 261.3,94.0 L 261.2,94.6 L 260.3,94.6 L 260.0,94.8 L 260.0,95.3 L 260.2,96.4 L 260.7,97.0 L 261.8,97.2 L 262.2,97.6 L 262.1,99.0 L 262.5,99.3 L 263.7,99.4 L 264.1,99.6 L 264.1,100.8 L 263.8,102.0 L 262.7,102.9 L 261.8,103.4 L 260.3,103.4 L 259.4,103.2 L 259.2,103.1 L 258.4,102.9 L 253.5,102.9 L 253.0,103.6 L 251.4,103.6 L 250.6,103.1 L 249.4,103.0 L 248.1,103.3 L 246.4,104.0 L 245.5,104.4 L 244.8,104.7 L 244.3,105.1 L 244.1,106.0 L 243.2,106.5 L 242.6,107.0 L 242.0,106.9 L 241.7,107.1 L 241.8,107.5 L 244.0,108.6 L 244.6,110.0 L 244.7,111.2 L 244.5,112.1 L 243.9,112.9 L 242.5,114.0 L 241.6,114.4 L 240.7,115.2 L 239.9,115.7 L 239.0,116.4 L 238.2,116.8 L 237.1,116.9 L 236.5,117.1 L 236.1,117.5 L 235.6,118.0 L 235.0,119.0 L 234.5,119.5 L 233.8,119.8 L 233.1,120.6 L 233.1,121.2 L 233.0,121.6 L 232.0,122.2 L 231.5,122.2 L 231.1,122.4 L 230.7,123.3 L 230.6,124.2 L 229.4,125.6 L 228.5,127.2 L 227.3,128.3 L 226.8,128.8 L 226.7,129.1 L 226.3,129.3 L 224.5,131.2 L 224.2,131.9 L 223.1,132.8 L 223.0,134.2 L 221.9,135.0 L 221.8,135.5 L 221.3,135.9 L 221.3,136.6 L 220.8,138.3 L 219.4,140.0 L 219.4,140.5 L 220.1,142.6 L 219.7,143.3 L 219.6,145.0 L 219.8,146.6 L 219.6,147.1 L 220.0,147.4 L 220.0,148.0 L 220.1,148.6 L 221.6,150.0 L 222.8,151.2 L 222.7,152.4 L 221.7,154.2 L 221.5,154.6 L 221.9,155.7 L 221.4,156.8 L 220.9,157.5 L 220.8,158.2 L 220.6,158.7 L 219.2,158.8 L 218.7,159.2 L 217.8,160.9 L 217.9,161.7 L 217.9,164.2 L 217.6,165.4 L 216.9,166.3 L 215.3,167.0 L 215.5,167.2 L 215.5,167.9 L 215.8,168.2 L 216.3,167.4 L 216.9,167.0 L 217.7,167.0 L 218.5,167.2 L 218.7,167.7 L 219.4,169.0 L 219.4,169.7 L 219.8,170.3 L 219.5,171.2 L 219.4,171.8 L 219.6,173.0 L 219.3,173.6 L 219.4,174.2 L 219.7,174.2 L 220.5,174.9 L 220.6,176.1 L 221.0,176.7 L 221.1,176.8 L 220.9,178.4 L 220.6,179.0 L 220.6,179.9 L 220.9,180.3 L 221.2,181.1 L 221.4,181.5 L 221.7,182.3 L 221.7,183.4 L 221.5,183.7 L 220.8,184.2 L 220.6,184.4 L 219.9,184.6 L 219.4,185.0 L 219.6,185.4 L 218.6,186.6 L 218.4,187.9 L 217.8,188.0 L 217.7,188.2 L 218.0,188.5 L 218.0,193.5 L 217.9,193.7 L 215.9,195.8 L 215.4,196.6 L 215.2,197.6 L 214.7,198.0 L 214.7,198.5 L 214.2,199.8 L 214.2,200.6 L 214.0,201.0 L 214.4,201.6 L 214.6,202.8 L 214.7,203.1 L 214.6,203.3 L 214.7,205.4 L 214.7,207.1 L 214.4,208.0 L 214.0,208.5 L 214.0,208.9 L 213.4,209.5 L 213.2,210.5 L 212.8,210.7 L 212.7,211.4 L 211.8,212.5 L 212.4,212.6 L 212.7,213.5 L 211.9,215.1 L 212.1,215.5 L 211.8,216.3 L 211.0,217.6 L 210.8,219.1 L 210.3,219.2 L 209.9,219.8 L 209.5,220.6 L 209.2,220.9 L 208.3,221.2 L 207.5,221.2 L 206.5,221.6 L 205.8,222.3 L 205.3,222.4 L 204.7,223.4 L 204.4,223.5 L 204.0,224.0 L 204.1,224.4 L 203.9,224.7 L 203.3,224.9 L 203.3,225.5 L 202.9,225.9 L 202.7,226.3 L 203.1,226.6 L 202.8,226.9 L 202.5,227.3 L 202.7,227.8 L 202.5,228.1 L 202.0,228.1 L 202.0,228.6 L 201.7,228.9 L 201.1,228.9 L 200.6,229.2 L 200.5,229.9 L 199.8,231.3 L 199.0,232.2 L 198.9,232.7 L 199.1,233.2 L 200.1,233.3 L 200.1,233.8 L 200.3,234.2 L 200.3,235.1 L 199.8,236.3 L 199.3,236.7 L 199.0,236.8 L 199.0,235.9 L 198.2,235.9 L 197.9,236.4 L 197.9,238.1 L 198.2,238.1 L 198.3,238.7 L 197.7,240.2 L 197.4,241.5 L 197.6,241.9 L 198.2,241.9 L 197.6,243.8 L 198.3,244.5 L 198.6,244.6 L 199.1,245.4 L 200.2,246.0 L 200.2,246.8 L 200.7,246.8 L 201.2,247.0 L 200.7,247.5 L 200.7,247.9 L 201.2,247.9 L 201.5,248.0 L 201.7,248.4 L 201.4,248.9 L 200.2,249.6 L 199.5,249.4 L 198.4,249.9 L 197.6,250.7 L 197.3,251.6 L 197.0,252.7 L 197.0,253.8 L 197.8,254.5 L 197.8,255.0 L 197.5,255.8 L 197.2,255.4 L 196.8,255.7 L 196.2,255.7 L 195.5,255.9 L 195.4,255.7 L 195.0,255.6 L 194.7,255.8 L 194.7,256.1 L 195.0,256.7 L 194.8,257.1 L 194.8,257.4 L 195.4,257.5 L 195.5,257.7 L 195.8,257.9 L 195.9,258.4 L 195.3,259.1 L 194.9,259.3 L 194.6,259.1 L 193.1,259.0 L 192.8,259.5 L 192.7,260.3 L 192.5,260.8 L 192.5,261.1 L 192.9,261.4 L 194.4,261.3 L 192.9,263.7 L 192.8,264.5 L 193.2,265.0 L 193.4,265.3 L 192.5,265.3 L 192.3,266.1 L 192.5,266.6 L 193.2,267.2 L 194.0,267.2 L 194.3,267.0 L 195.2,267.1 L 195.6,266.8 L 196.0,266.8 L 196.7,267.4 L 196.9,267.8 L 196.4,269.3 L 194.9,270.2 L 194.9,270.6 L 195.1,270.9 L 195.1,271.3 L 194.0,273.4 L 193.1,274.3 L 193.0,274.9 L 193.5,276.2 L 194.1,276.8 L 194.6,276.9 L 194.7,277.2 L 194.9,277.5 L 195.7,277.7 L 196.2,278.4 L 197.9,279.6 L 197.8,280.2 L 198.0,280.5 L 198.1,281.1 L 198.3,281.4 L 199.0,281.6 L 199.1,282.0 L 198.8,282.2 L 199.3,283.3 L 200.0,283.6 L 200.5,283.6 L 201.0,282.8 L 201.2,282.6 L 202.5,282.8 L 203.3,284.1 L 204.6,285.2 L 204.9,285.7 L 205.8,286.7 L 205.5,287.3 L 204.8,288.1 L 204.8,288.5 L 204.9,288.7 L 205.6,288.5 L 205.9,288.9 L 206.5,288.5 L 206.8,288.5 L 207.4,289.5 L 207.7,290.0 L 207.8,290.3 L 208.2,290.6 L 208.3,291.0 L 209.1,292.5 L 209.7,293.3 L 211.1,295.1 L 212.4,297.3 L 214.6,299.7 L 214.9,300.3 L 215.0,301.2 L 215.0,303.0 L 215.2,303.9 L 215.6,304.5 L 215.6,305.0 L 216.4,306.3 L 217.1,306.8 L 217.9,308.2 L 218.5,309.3 L 218.3,309.9 L 218.5,310.7 L 218.3,311.0 L 217.9,311.2 L 217.5,311.6 L 217.5,311.9 L 217.2,312.5 L 217.4,312.8 L 217.8,312.8 L 218.9,312.8 L 218.8,313.5 L 219.1,314.0 L 219.2,314.5 L 219.4,315.1 L 219.8,315.4 L 220.5,315.7 L 221.0,316.0 L 221.0,316.5 L 220.3,316.5 L 220.1,316.8 L 220.4,317.1 L 222.0,317.6 L 222.9,317.4 L 223.1,317.5 L 223.0,317.9 L 224.3,319.4 L 224.7,320.0 L 224.8,320.6 L 225.0,321.1 L 225.2,321.9 L 225.7,322.2 L 225.9,322.7 L 225.6,323.4 L 226.4,323.5 L 226.7,323.8 L 226.8,324.7 L 226.1,326.5 L 226.8,327.7 L 227.8,327.9 L 228.1,328.1 L 228.4,328.5 L 228.7,328.6 L 230.0,328.3 L 231.7,329.0 L 232.4,329.9 L 232.7,330.6 L 232.9,332.7 L 232.6,333.4 L 231.9,333.9 L 231.8,334.5 L 231.4,334.9 L 231.4,335.3 L 231.8,335.8 L 232.0,337.0 L 231.8,337.9 L 229.5,340.7 L 228.8,341.2 L 228.3,341.8 L 227.6,342.4 L 227.4,342.1 L 226.5,342.0 L 226.0,342.5 L 225.5,342.6 L 225.0,343.0 L 224.7,343.7 L 225.0,343.8 L 225.4,344.1 L 226.4,344.0 L 226.4,344.7 L 225.7,345.2 L 225.7,345.5 L 225.4,346.0 L 224.9,346.9 L 224.9,348.1 L 225.2,348.8 L 225.1,348.8 L 221.5,349.2 L 221.5,349.0 L 221.5,348.3 L 221.9,347.9 L 221.7,347.6 L 220.8,347.6 L 220.3,347.8 L 220.2,348.3 L 219.6,348.9 L 219.5,349.3 L 219.5,349.4 L 118.1,360.0 L 118.2,360.0 L 118.3,359.4 L 118.0,358.7 L 117.1,358.0 L 116.8,357.3 L 116.0,357.2 L 115.4,357.1 L 114.9,357.3 L 114.1,357.3 L 113.5,356.4 L 113.5,355.4 L 114.0,354.3 L 114.2,353.4 L 113.9,352.9 L 113.7,351.6 L 112.8,350.3 L 112.2,350.0 L 111.7,349.1 L 111.0,347.9 L 110.8,346.7 L 110.5,346.1 L 110.0,345.7 L 109.8,345.4 L 109.1,345.2 L 109.4,344.3 L 109.6,343.6 L 109.5,342.3 L 108.9,341.8 L 108.7,340.6 L 107.6,339.2 L 107.7,338.9 L 107.6,338.5 L 107.4,338.4 L 106.1,337.5 L 106.2,337.1 L 105.9,336.9 L 105.4,337.6 L 104.5,337.9 L 103.9,338.6 L 103.3,338.7 L 103.1,338.4 L 103.1,338.1 L 102.5,337.8 L 101.9,337.8 L 101.4,338.0 L 100.7,337.7 L 100.4,337.7 L 100.3,337.4 L 101.0,336.4 L 101.6,336.4 L 101.9,336.7 L 102.5,336.7 L 103.5,336.4 L 103.7,336.0 L 104.4,336.1 L 104.6,336.4 L 105.3,336.2 L 105.8,335.7 L 107.2,335.7 L 107.4,335.5 L 107.8,335.1 L 107.5,334.8 L 107.2,334.8 L 106.5,335.1 L 105.5,335.4 L 105.6,335.0 L 106.5,334.0 L 107.1,333.0 L 107.4,332.1 L 107.5,331.4 L 107.4,330.7 L 107.1,330.1 L 107.4,329.2 L 107.7,329.3 L 107.9,329.4 L 108.2,330.4 L 108.8,331.6 L 108.9,332.3 L 109.7,332.8 L 111.1,332.6 L 111.8,332.4 L 113.1,332.4 L 113.9,331.8 L 114.4,331.6 L 115.1,331.6 L 116.1,332.1 L 117.8,332.6 L 118.5,332.2 L 118.9,331.7 L 118.9,330.8 L 119.4,329.0 L 119.8,328.6 L 120.5,328.6 L 120.9,329.0 L 123.7,329.1 L 124.4,328.4 L 124.4,326.8 L 123.0,325.5 L 122.9,324.6 L 122.0,324.3 L 121.9,324.1 L 121.8,323.5 L 121.1,323.3 L 120.2,323.2 L 119.0,322.3 L 119.2,321.9 L 119.9,321.7 L 120.0,321.3 L 120.6,320.7 L 121.0,320.5 L 122.4,320.5 L 122.9,321.1 L 123.5,321.1 L 123.6,321.6 L 124.3,321.6 L 125.4,320.6 L 125.8,320.4 L 126.2,319.8 L 126.4,319.5 L 126.5,318.9 L 126.9,319.0 L 127.3,319.1 L 127.7,319.0 L 128.0,318.8 L 128.3,318.9 L 128.6,319.1 L 129.0,318.7 L 129.5,317.6 L 129.6,317.1 L 129.9,316.6 L 129.8,316.2 L 129.2,315.9 L 128.4,315.8 L 128.8,315.2 L 129.1,314.9 L 129.0,314.5 L 128.3,314.2 L 127.1,314.0 L 127.1,313.7 L 127.6,313.2 L 127.5,312.9 L 127.1,312.7 L 127.0,311.8 L 126.2,311.6 L 126.4,311.3 L 126.9,310.8 L 127.1,309.9 L 127.0,309.1 L 126.7,309.1 L 126.7,308.1 L 126.4,307.7 L 126.8,307.2 L 126.9,307.0 L 126.4,306.4 L 127.6,305.5 L 130.0,302.3 L 131.0,301.2 L 129.9,301.0 L 129.6,300.6 L 130.7,300.2 L 131.1,299.9 L 131.1,299.4 L 131.6,299.0 L 132.1,298.9 L 132.4,298.7 L 133.0,298.6 L 133.6,298.2 L 134.0,297.5 L 133.9,296.9 L 134.2,296.3 L 135.1,296.1 L 135.3,296.7 L 135.9,296.6 L 136.4,296.4 L 136.8,296.3 L 136.9,295.8 L 138.0,295.7 L 138.6,295.1 L 139.1,293.5 L 139.1,290.5 L 138.9,289.7 L 138.5,289.3 L 138.6,288.2 L 138.6,287.9 L 138.4,286.4 L 138.4,283.5 L 138.8,282.2 L 139.0,279.9 L 139.8,278.0 L 140.0,277.1 L 140.3,275.0 L 140.3,274.0 L 140.1,273.7 L 141.0,273.4 L 140.9,272.6 L 141.4,272.0 L 141.3,271.6 L 142.2,270.7 L 142.7,270.8 L 142.9,270.5 L 142.9,268.3 L 142.8,267.8 L 143.2,266.9 L 143.2,265.6 L 143.1,264.5 L 142.8,264.5 L 142.5,264.7 L 142.4,264.6 L 142.5,262.7 L 143.9,261.7 L 144.3,260.8 L 144.4,259.8 L 145.0,258.1 L 144.9,257.5 L 144.8,257.2 L 145.9,254.4 L 146.2,253.8 L 146.2,253.0 L 146.0,252.8 L 145.8,252.3 L 145.8,251.6 L 145.6,251.4 L 145.4,250.8 L 145.1,250.6 L 144.9,249.5 L 144.7,248.5 L 144.2,247.9 L 144.3,247.5 L 144.9,246.9 L 144.6,246.6 L 144.1,246.7 L 143.6,246.0 L 143.7,245.1 L 143.9,244.6 L 143.9,243.6 L 143.6,242.5 L 143.7,241.7 L 144.3,241.0 L 144.1,240.1 L 144.4,239.2 L 144.2,238.3 L 144.6,237.9 L 145.2,237.9 L 145.5,237.5 L 145.5,236.8 L 145.3,236.6 L 145.6,235.2 L 144.9,234.3 L 144.5,234.5 L 144.4,234.1 L 144.2,232.3 L 144.5,232.0 L 145.1,231.8 L 145.0,230.9 L 144.4,229.8 L 144.5,229.0 L 144.9,228.5 L 144.9,228.1 L 145.5,228.1 L 145.7,227.8 L 145.6,227.4 L 145.6,227.3 L 144.9,226.8 L 144.6,226.2 L 143.9,226.1 L 143.3,225.5 L 143.2,224.7 L 142.9,224.5 L 142.4,224.6 L 141.6,225.0 L 141.2,224.9 L 140.8,224.1 L 140.8,223.5 L 140.6,223.3 L 140.0,223.2 L 139.0,223.4 L 138.1,223.8 L 137.4,224.4 L 136.0,225.9 L 134.7,227.1 L 134.4,227.4 L 133.8,228.1 L 133.3,228.4 L 131.9,229.1 L 131.3,229.6 L 131.0,230.9 L 130.1,233.5 L 129.6,233.5 L 129.4,233.0 L 129.4,232.7 L 129.2,232.4 L 128.9,232.5 L 128.9,233.0 L 127.2,234.4 L 126.7,234.5 L 125.8,234.0 L 125.5,233.7 L 124.0,233.2 L 123.8,232.9 L 124.1,232.4 L 125.4,231.1 L 125.5,230.3 L 126.2,229.0 L 126.2,228.6 L 125.8,228.0 L 126.3,227.5 L 126.7,227.4 L 127.1,227.2 L 127.4,226.8 L 127.5,225.7 L 128.0,225.2 L 129.2,225.1 L 130.0,224.4 L 131.0,224.3 L 132.3,224.3 L 133.3,224.5 L 134.5,224.7 L 135.4,224.5 L 136.9,223.8 L 138.3,222.9 L 140.0,221.1 L 140.5,221.1 L 140.7,218.7 L 140.8,218.0 L 140.7,217.7 L 140.3,217.6 L 139.8,216.9 L 139.8,216.3 L 140.8,214.8 L 140.7,213.9 L 140.4,213.6 L 139.9,214.1 L 138.8,214.6 L 137.0,215.6 L 136.4,215.7 L 135.8,215.3 L 135.6,214.8 L 135.6,214.6 L 135.9,213.5 L 136.2,211.7 L 136.4,211.2 L 136.8,210.6 L 137.3,210.5 L 137.4,210.7 L 137.6,212.0 L 137.3,212.9 L 137.5,213.3 L 138.2,213.2 L 139.3,212.3 L 139.9,212.0 L 140.5,211.5 L 140.6,210.2 L 140.3,209.6 L 140.4,208.7 L 142.3,206.6 L 142.4,205.5 L 142.8,205.2 L 143.3,205.1 L 143.7,204.7 L 144.5,203.0 L 144.9,202.2 L 144.9,201.2 L 145.1,200.9 L 145.0,199.1 L 145.5,198.2 L 145.9,197.9 L 147.2,197.9 L 147.2,197.7 L 147.2,197.3 L 147.2,196.7 L 147.3,195.8 L 147.7,195.3 L 148.9,194.0 L 149.2,193.6 L 149.0,193.3 L 148.5,193.0 L 148.6,192.6 L 149.2,191.7 L 149.2,191.1 L 149.1,191.1 L 149.4,189.6 L 149.6,189.0 L 150.0,188.5 L 149.9,187.6" fill="none" stroke="black" stroke-width="2"/>
</svg>