<?xml version="1.0" encoding="UTF-8"?>
<svg width="400" height="400" viewBox="0 0 400 400" xmlns="http://www.w3.org/2000/svg">
  <rect width="400" height="400" fill="white"/>
  <path d="M 87.5,337.0 L 89.2,335.3 L 89.8,329.6 L 89.4,326.7 L 90.3,324.8 L 95.1,329.2 L 99.3,328.8 L 100.5,326.9 L 101.4,321.8 L 99.1,318.4 L 93.6,314.3 L 91.7,314.3 L 89.6,318.2 L 86.7,319.1 L 81.0,319.3 L 78.1,318.4 L 77.4,313.0 L 71.7,307.7 L 69.4,306.1 L 69.9,304.2 L 75.7,301.6 L 78.7,297.9 L 81.6,297.0 L 81.6,295.1 L 86.0,293.8 L 86.0,290.3 L 83.1,287.1 L 75.1,286.3 L 71.3,283.8 L 64.6,283.6 L 61.9,280.8 L 57.4,272.6 L 55.4,265.9 L 56.8,260.2 L 55.1,242.1 L 50.1,233.9 L 47.6,219.4 L 47.8,209.5 L 42.3,201.6 L 41.9,199.5 L 41.3,196.9 L 44.2,195.9 L 45.7,198.0 L 47.8,199.4 L 45.0,190.2 L 44.0,184.5 L 40.0,176.3 L 40.6,172.1 L 43.1,168.3 L 42.7,162.5 L 41.0,154.9 L 41.5,146.0 L 47.1,138.3 L 49.2,130.7 L 46.9,122.7 L 48.8,121.7 L 49.3,117.4 L 51.8,115.1 L 55.6,115.3 L 59.1,113.0 L 61.9,113.3 L 63.3,114.9 L 65.2,113.9 L 65.9,107.8 L 70.3,102.1 L 71.5,89.9 L 71.1,88.0 L 58.1,87.2 L 58.3,84.7 L 62.7,79.2 L 66.5,78.3 L 69.4,79.8 L 71.8,78.4 L 70.5,74.6 L 68.6,72.5 L 68.6,69.7 L 72.0,69.9 L 76.2,70.8 L 78.5,74.6 L 83.9,72.5 L 99.1,72.7 L 100.5,74.8 L 97.4,82.8 L 98.7,83.8 L 101.6,83.4 L 108.5,76.0 L 113.2,82.3 L 114.9,86.5 L 115.3,91.8 L 122.0,91.4 L 124.9,92.6 L 129.6,90.7 L 133.6,87.0 L 134.8,76.0 L 135.2,75.0 L 135.4,72.7 L 134.8,71.2 L 135.4,70.2 L 138.6,70.8 L 140.7,70.4 L 141.1,67.2 L 144.1,65.7 L 147.0,63.0 L 150.2,64.0 L 149.8,66.4 L 145.5,70.6 L 144.3,72.3 L 149.1,76.3 L 149.5,80.2 L 151.4,81.7 L 153.3,80.2 L 157.1,82.6 L 162.2,82.5 L 165.7,78.6 L 166.5,76.2 L 185.5,85.7 L 186.6,86.2 L 187.8,90.7 L 189.7,93.5 L 193.3,97.3 L 193.7,100.8 L 192.2,108.4 L 194.5,111.2 L 201.3,124.2 L 205.1,128.2 L 205.9,131.1 L 201.5,136.2 L 199.4,142.0 L 202.3,143.9 L 202.7,148.6 L 208.4,152.6 L 207.2,157.8 L 211.4,161.6 L 211.8,164.1 L 210.9,166.9 L 210.7,170.7 L 215.8,176.1 L 218.1,180.5 L 218.7,181.4 L 219.1,186.6 L 217.9,187.1 L 215.1,190.4 L 214.5,195.2 L 215.4,197.1 L 218.1,199.5 L 223.8,204.9 L 225.7,204.5 L 225.4,202.0 L 222.9,200.5 L 222.4,199.5 L 220.6,195.7 L 222.1,193.4 L 225.0,193.4 L 227.1,189.6 L 229.0,190.8 L 230.3,192.1 L 234.1,190.4 L 237.6,191.0 L 243.1,195.7 L 247.9,196.3 L 251.8,199.5 L 252.1,199.7 L 252.4,203.5 L 255.3,202.8 L 261.4,205.8 L 271.5,207.0 L 278.6,205.6 L 282.4,204.3 L 288.1,204.5 L 293.4,203.5 L 297.3,205.6 L 300.1,204.3 L 300.9,199.5 L 301.3,197.6 L 301.5,191.0 L 302.8,187.7 L 304.5,182.4 L 306.4,181.0 L 309.3,181.6 L 309.7,182.6 L 311.9,185.1 L 313.8,184.1 L 314.4,182.6 L 314.6,171.7 L 313.8,167.9 L 314.4,165.0 L 316.3,162.7 L 319.6,165.2 L 327.2,165.2 L 344.7,175.9 L 344.9,180.1 L 347.8,183.3 L 352.4,188.7 L 354.5,185.1 L 356.4,183.5 L 358.7,183.7 L 359.6,184.1 L 360.0,188.5 L 359.0,191.3 L 354.1,197.8 L 354.1,199.5 L 353.9,206.4 L 352.0,208.3 L 331.4,208.3 L 331.4,211.6 L 334.6,213.7 L 342.8,212.3 L 348.6,213.8 L 349.5,215.9 L 348.4,217.7 L 343.6,219.0 L 340.2,221.5 L 337.7,226.1 L 333.9,231.2 L 335.2,234.1 L 335.0,239.4 L 331.2,242.1 L 322.1,241.9 L 321.7,240.0 L 322.2,234.8 L 321.3,233.9 L 318.0,235.2 L 317.5,237.1 L 313.1,238.4 L 310.2,242.1 L 307.7,246.8 L 307.0,256.4 L 309.8,260.2 L 310.2,265.9 L 307.2,270.7 L 307.2,274.1 L 304.7,276.4 L 301.3,275.3 L 297.4,275.3 L 294.2,278.5 L 293.4,284.6 L 288.7,283.6 L 288.6,283.7 L 286.8,283.5 L 285.4,283.5 L 284.5,285.0 L 283.1,288.0 L 281.2,288.0 L 278.4,286.9 L 277.0,286.5 L 275.5,283.6 L 275.3,281.9 L 277.6,281.5 L 278.8,280.2 L 279.0,277.5 L 279.0,275.3 L 276.7,272.6 L 276.1,270.9 L 276.3,268.2 L 275.7,267.4 L 273.8,266.7 L 271.9,266.9 L 270.9,265.9 L 269.8,264.8 L 268.8,265.0 L 268.5,265.9 L 267.9,267.2 L 266.6,268.6 L 266.2,270.5 L 265.8,272.6 L 263.9,274.9 L 263.5,277.5 L 263.3,280.0 L 264.5,280.2 L 266.4,279.8 L 267.1,280.6 L 266.9,281.7 L 266.0,283.1 L 265.4,284.4 L 265.0,285.4 L 263.7,286.1 L 263.1,288.8 L 263.3,293.0 L 262.4,293.4 L 261.8,292.6 L 262.0,291.1 L 261.4,289.9 L 260.6,289.6 L 259.7,290.1 L 259.3,291.3 L 258.9,292.8 L 258.4,292.8 L 257.8,291.8 L 257.8,289.9 L 258.2,288.4 L 258.2,287.5 L 257.8,285.2 L 258.4,283.3 L 258.4,280.8 L 257.8,275.6 L 255.9,271.4 L 253.4,268.4 L 253.0,269.0 L 252.1,269.9 L 251.5,271.2 L 250.3,272.6 L 250.0,274.1 L 250.0,277.0 L 249.0,278.1 L 248.6,279.6 L 249.4,281.4 L 251.1,282.7 L 253.6,284.4 L 253.6,285.4 L 253.2,286.1 L 252.1,286.3 L 251.5,287.5 L 251.5,289.6 L 252.1,292.2 L 252.1,294.5 L 253.6,297.8 L 254.2,299.7 L 254.9,299.9 L 256.3,300.0 L 257.4,301.0 L 258.0,301.6 L 259.5,301.4 L 261.4,301.4 L 262.0,303.3 L 262.6,305.8 L 262.4,306.5 L 261.6,307.1 L 260.5,306.7 L 260.1,306.9 L 260.5,307.9 L 261.6,309.8 L 262.2,311.1 L 263.5,312.1 L 263.7,313.4 L 262.4,314.2 L 260.8,312.8 L 258.9,311.5 L 257.6,310.2 L 257.0,310.7 L 256.3,312.8 L 255.3,314.0 L 253.8,315.7 L 252.3,315.7 L 251.5,314.7 L 251.3,314.0 L 250.5,312.8 L 249.4,311.5 L 248.2,309.8 L 247.1,309.8 L 246.5,310.5 L 244.8,311.5 L 242.5,312.8 L 240.8,312.8 L 238.9,312.4 L 237.0,312.1 L 235.9,312.8 L 233.9,314.3 L 232.0,315.1 L 229.9,316.4 L 228.8,317.4 L 229.0,319.7 L 228.0,320.6 L 226.7,322.4 L 225.2,325.0 L 223.3,325.8 L 221.5,327.1 L 220.6,329.2 L 220.6,332.3 L 221.0,333.6 L 87.5,337.0" fill="none" stroke="black" stroke-width="2"/>
</svg>