<?xml version="1.0" encoding="UTF-8"?>
<svg width="400" height="400" viewBox="0 0 400 400" xmlns="http://www.w3.org/2000/svg">
  <rect width="400" height="400" fill="white"/>
  <path d="M 126.6,313.6 L 126.6,309.7 L 122.7,304.7 L 123.5,301.9 L 123.4,298.8 L 122.3,297.4 L 122.3,294.3 L 124.9,288.4 L 124.4,283.7 L 122.9,279.0 L 120.9,266.2 L 119.8,261.8 L 118.5,259.5 L 118.5,252.9 L 120.1,246.7 L 122.0,242.8 L 125.1,241.8 L 128.2,241.8 L 131.6,239.5 L 134.6,238.6 L 140.2,232.5 L 139.7,227.0 L 130.8,227.5 L 131.2,222.3 L 131.9,220.0 L 129.9,215.0 L 129.6,211.9 L 123.4,211.1 L 121.3,209.2 L 121.3,204.8 L 127.6,196.3 L 127.2,195.5 L 125.1,190.8 L 126.3,187.2 L 129.0,184.5 L 132.9,183.3 L 141.9,182.0 L 143.2,180.5 L 137.9,175.8 L 120.7,176.0 L 114.6,179.6 L 108.4,181.1 L 94.3,182.0 L 88.4,183.9 L 82.1,184.4 L 80.1,182.8 L 79.0,176.3 L 74.5,172.5 L 72.3,170.3 L 69.7,170.0 L 60.3,172.8 L 54.0,173.2 L 50.5,174.9 L 43.1,175.2 L 40.0,174.1 L 41.6,172.4 L 58.3,162.7 L 65.3,159.3 L 70.8,156.8 L 74.2,154.0 L 77.3,152.4 L 77.6,149.0 L 80.4,146.1 L 82.8,144.9 L 83.6,143.8 L 81.5,138.8 L 75.4,139.1 L 75.4,138.8 L 73.7,131.0 L 72.2,129.4 L 60.4,128.4 L 55.3,124.3 L 55.0,124.0 L 53.7,121.3 L 54.0,116.6 L 57.2,111.2 L 61.9,107.3 L 66.8,105.7 L 68.1,103.7 L 72.8,100.1 L 75.9,96.2 L 78.6,93.5 L 80.1,90.4 L 79.6,89.2 L 75.4,86.5 L 72.0,85.6 L 89.1,51.6 L 89.6,54.8 L 93.2,56.4 L 96.7,55.9 L 99.8,53.9 L 104.0,52.3 L 108.7,49.7 L 110.2,46.4 L 113.4,44.1 L 114.1,43.9 L 116.5,43.3 L 124.0,48.0 L 139.9,47.6 L 142.2,48.0 L 144.6,48.3 L 149.7,51.7 L 156.4,55.1 L 160.4,59.0 L 164.1,69.2 L 164.7,73.4 L 169.1,84.0 L 178.5,96.4 L 180.8,102.6 L 181.3,107.7 L 179.7,114.8 L 179.9,122.6 L 186.7,135.1 L 188.3,136.6 L 193.6,141.6 L 195.9,144.4 L 199.8,149.0 L 201.9,151.3 L 209.7,159.1 L 219.9,166.5 L 223.7,169.2 L 224.2,169.7 L 229.2,174.1 L 252.3,194.2 L 254.4,195.5 L 257.0,197.0 L 264.2,201.2 L 268.4,204.1 L 278.9,211.5 L 280.2,212.5 L 280.7,213.1 L 294.8,221.1 L 298.2,224.2 L 303.3,230.8 L 311.9,237.0 L 315.8,245.4 L 321.0,254.0 L 328.5,257.9 L 330.5,261.0 L 331.6,266.5 L 332.5,269.3 L 333.6,272.3 L 337.1,276.0 L 337.4,276.3 L 345.5,290.5 L 345.5,292.6 L 348.1,295.2 L 351.4,301.5 L 353.0,310.0 L 354.5,313.2 L 355.3,315.2 L 356.4,317.4 L 358.4,319.4 L 359.7,322.5 L 360.0,325.3 L 359.2,327.8 L 358.6,328.9 L 356.7,332.7 L 353.9,337.5 L 353.4,337.8 L 352.8,338.5 L 352.0,338.6 L 346.7,336.7 L 346.0,336.3 L 343.0,336.4 L 343.5,338.9 L 345.3,341.9 L 345.0,342.8 L 344.2,343.6 L 340.6,345.2 L 341.0,347.4 L 340.6,347.8 L 336.6,349.1 L 334.4,350.3 L 331.7,352.8 L 330.5,354.5 L 329.6,356.6 L 328.8,356.7 L 328.2,355.8 L 327.8,353.4 L 325.8,352.4 L 323.9,351.9 L 321.3,353.3 L 317.4,353.4 L 312.4,352.8 L 307.2,351.9 L 301.5,351.3 L 298.5,350.8 L 275.1,347.5 L 270.9,344.5 L 263.7,334.4 L 261.0,333.2 L 255.9,332.8 L 255.1,330.5 L 256.4,327.7 L 243.7,317.4 L 240.1,310.7 L 232.0,310.0 L 224.2,302.6 L 220.1,301.0 L 219.9,301.1 L 214.4,302.2 L 207.8,305.1 L 200.8,311.0 L 196.6,315.2 L 185.6,332.1 L 168.2,342.4 L 160.8,344.7 L 156.1,344.7 L 150.2,343.1 L 145.5,340.2 L 141.9,335.8 L 141.2,331.1 L 131.8,323.8 L 126.6,313.6" fill="none" stroke="black" stroke-width="2"/>
</svg>