<?xml version="1.0" encoding="UTF-8"?>
<svg width="400" height="400" viewBox="0 0 400 400" xmlns="http://www.w3.org/2000/svg">
  <rect width="400" height="400" fill="white"/>
  <path d="M 154.4,173.9 L 151.8,171.7 L 149.1,167.5 L 149.8,164.8 L 148.8,162.5 L 150.3,161.0 L 154.1,159.5 L 154.9,157.7 L 153.0,155.7 L 145.7,153.0 L 144.7,153.0 L 138.9,156.8 L 135.6,157.2 L 121.1,154.2 L 113.1,151.7 L 110.8,154.0 L 104.7,157.7 L 100.9,158.1 L 97.6,155.4 L 91.5,154.2 L 84.6,153.4 L 81.2,150.4 L 80.8,142.8 L 77.5,139.3 L 71.7,136.2 L 67.2,133.2 L 60.3,131.2 L 57.0,131.2 L 54.0,132.0 L 52.0,131.7 L 52.0,129.7 L 53.6,127.9 L 52.1,126.7 L 48.6,126.2 L 47.1,125.5 L 48.3,124.4 L 48.3,122.4 L 47.6,119.8 L 40.0,116.8 L 49.7,92.9 L 49.8,92.6 L 53.3,92.9 L 59.9,95.5 L 66.7,97.2 L 68.5,99.0 L 65.8,101.6 L 65.5,103.1 L 66.6,105.5 L 74.2,107.8 L 84.0,107.5 L 86.8,104.8 L 86.0,101.4 L 87.5,100.2 L 92.9,99.5 L 100.1,97.3 L 111.1,97.3 L 113.8,98.9 L 115.3,101.1 L 117.5,103.1 L 123.2,104.3 L 130.8,104.6 L 135.4,105.9 L 136.2,107.8 L 139.2,110.4 L 144.8,117.2 L 146.6,119.5 L 149.7,122.7 L 152.7,126.8 L 155.3,132.9 L 154.5,135.6 L 157.3,138.7 L 164.4,137.5 L 177.8,140.7 L 183.9,143.7 L 190.3,146.1 L 194.8,150.7 L 213.4,154.9 L 221.7,157.7 L 230.1,158.7 L 234.6,161.2 L 242.2,169.8 L 253.8,189.0 L 255.3,191.3 L 259.9,195.1 L 272.0,208.4 L 284.8,217.2 L 295.4,223.0 L 299.7,223.8 L 302.7,225.3 L 315.2,226.2 L 319.7,227.3 L 323.8,234.9 L 328.8,242.2 L 330.0,244.1 L 334.0,251.3 L 334.8,251.7 L 338.3,252.5 L 339.8,254.0 L 340.9,258.6 L 344.2,262.8 L 344.0,271.6 L 351.3,291.2 L 359.2,301.6 L 360.0,304.3 L 358.5,307.4 L 357.0,307.4 L 350.9,303.4 L 340.7,294.7 L 333.9,287.0 L 330.5,282.9 L 331.6,281.4 L 331.3,279.8 L 324.7,275.6 L 321.7,275.1 L 310.8,268.6 L 299.1,263.7 L 279.0,257.8 L 270.6,254.5 L 269.9,252.5 L 269.9,250.5 L 273.2,249.9 L 276.3,246.9 L 276.9,244.1 L 277.2,242.6 L 276.7,241.9 L 273.7,232.4 L 270.6,230.8 L 261.5,231.5 L 257.0,231.5 L 252.6,227.7 L 250.3,227.3 L 249.1,225.0 L 248.8,214.0 L 239.3,201.7 L 230.7,194.6 L 214.4,184.9 L 200.7,178.8 L 189.3,176.8 L 176.7,175.3 L 175.2,173.0 L 174.6,172.6 L 172.9,172.9 L 168.4,176.7 L 164.6,177.1 L 158.5,175.4 L 154.4,173.9" fill="none" stroke="black" stroke-width="2"/>
</svg>