<?xml version="1.0" encoding="UTF-8"?>
<svg width="400" height="400" viewBox="0 0 400 400" xmlns="http://www.w3.org/2000/svg">
  <rect width="400" height="400" fill="white"/>
  <path d="M 170.9,143.6 L 170.6,141.3 L 169.5,140.1 L 169.7,137.5 L 170.3,135.6 L 169.3,132.9 L 168.2,131.9 L 168.2,130.1 L 167.7,128.6 L 166.4,127.0 L 163.8,125.4 L 162.3,124.6 L 160.5,123.4 L 157.7,122.0 L 156.9,121.5 L 154.4,119.9 L 152.9,119.2 L 150.5,116.8 L 149.6,114.8 L 148.3,113.5 L 145.5,111.8 L 144.7,111.4 L 142.7,110.4 L 141.2,109.6 L 140.8,109.4 L 139.1,108.5 L 138.1,108.3 L 131.0,109.5 L 129.5,111.0 L 128.5,111.6 L 126.5,111.4 L 125.0,111.8 L 123.5,112.5 L 122.2,112.8 L 120.4,113.5 L 119.5,113.8 L 118.0,114.2 L 116.7,114.8 L 115.5,114.9 L 111.9,113.8 L 107.7,113.2 L 102.6,113.2 L 101.9,112.7 L 101.1,112.0 L 100.1,111.7 L 98.9,111.7 L 97.1,110.9 L 110.4,41.1 L 110.5,40.6 L 110.9,41.1 L 112.5,40.9 L 114.0,40.0 L 115.1,40.2 L 116.0,40.5 L 117.1,40.5 L 118.4,40.9 L 120.1,40.6 L 121.4,41.1 L 122.4,40.8 L 123.6,40.6 L 125.7,42.5 L 127.1,43.0 L 129.1,42.9 L 131.4,42.1 L 132.9,42.2 L 133.2,42.5 L 133.7,43.1 L 135.3,43.8 L 136.1,45.2 L 136.9,46.1 L 138.7,48.8 L 139.4,49.3 L 140.8,49.6 L 143.3,50.0 L 144.4,50.2 L 147.3,51.0 L 149.5,51.4 L 154.8,51.0 L 156.6,51.0 L 158.5,51.2 L 159.8,52.2 L 159.9,53.2 L 157.8,54.9 L 157.9,57.5 L 156.6,58.2 L 156.6,59.1 L 157.8,60.2 L 158.9,60.6 L 160.7,60.5 L 161.2,60.2 L 163.7,59.6 L 165.3,60.0 L 166.1,60.4 L 167.2,60.4 L 167.9,60.7 L 168.3,61.0 L 169.5,61.9 L 170.7,61.8 L 170.9,61.2 L 170.9,61.1 L 171.4,60.3 L 173.2,59.4 L 175.0,59.4 L 175.8,60.3 L 176.4,61.4 L 176.4,63.1 L 175.6,63.7 L 175.1,64.2 L 174.8,64.7 L 175.2,65.0 L 176.8,64.7 L 178.8,64.3 L 179.3,64.8 L 179.9,65.9 L 180.1,67.5 L 180.1,67.6 L 180.4,68.1 L 181.1,68.0 L 184.1,68.0 L 184.6,68.0 L 185.2,67.8 L 185.7,67.6 L 186.6,67.3 L 187.5,67.7 L 188.4,69.0 L 188.4,72.8 L 188.4,73.4 L 188.1,74.2 L 186.9,75.5 L 186.5,77.5 L 186.3,78.0 L 183.6,79.3 L 183.3,80.1 L 183.5,80.6 L 185.0,80.8 L 185.2,81.3 L 185.6,81.7 L 186.7,81.8 L 188.5,81.2 L 191.2,80.9 L 192.7,81.1 L 194.2,82.5 L 196.7,82.4 L 197.6,82.7 L 197.8,83.2 L 197.9,83.5 L 196.9,85.0 L 196.9,86.2 L 197.9,86.9 L 199.7,87.2 L 200.3,87.5 L 202.1,88.4 L 202.2,88.4 L 204.0,88.5 L 205.6,88.9 L 208.9,90.5 L 211.4,91.4 L 212.1,92.0 L 213.5,94.2 L 214.4,95.1 L 216.4,95.0 L 217.0,93.5 L 216.3,92.3 L 216.0,91.8 L 216.6,92.0 L 217.3,92.3 L 218.4,93.6 L 219.4,94.7 L 219.4,94.7 L 219.8,95.2 L 219.9,95.3 L 221.1,95.8 L 221.7,95.9 L 222.8,96.8 L 223.5,96.7 L 224.5,96.2 L 225.5,96.2 L 225.8,96.8 L 225.8,97.4 L 225.7,98.1 L 222.9,98.2 L 221.3,97.6 L 219.4,97.3 L 218.2,97.1 L 218.0,97.1 L 217.5,97.1 L 217.2,97.2 L 215.2,97.3 L 213.8,96.7 L 211.9,96.7 L 209.7,97.5 L 207.7,98.5 L 206.8,99.4 L 206.8,101.9 L 206.8,102.0 L 207.1,102.5 L 208.3,102.4 L 208.9,101.9 L 209.7,101.2 L 210.7,100.7 L 212.8,100.5 L 213.4,101.2 L 213.1,101.9 L 213.1,102.0 L 212.4,102.2 L 211.8,102.7 L 211.6,104.0 L 208.7,106.9 L 208.6,107.4 L 209.6,109.4 L 210.0,111.4 L 210.6,112.0 L 213.7,112.2 L 214.7,112.4 L 215.4,113.6 L 215.4,117.8 L 215.6,120.3 L 215.9,121.0 L 216.8,120.9 L 217.5,119.9 L 218.7,119.5 L 219.5,119.6 L 220.4,120.0 L 220.6,120.6 L 221.0,122.5 L 223.4,123.0 L 224.1,122.6 L 225.5,121.8 L 225.9,121.8 L 226.4,122.2 L 227.9,124.0 L 228.8,123.8 L 230.2,122.2 L 232.1,122.2 L 232.3,122.7 L 232.9,124.1 L 233.3,125.3 L 234.7,126.7 L 236.3,127.3 L 238.1,128.5 L 240.0,128.0 L 242.3,128.2 L 243.7,128.9 L 245.2,130.5 L 249.5,132.0 L 258.5,134.8 L 259.6,135.2 L 264.3,137.0 L 266.4,138.9 L 268.4,140.0 L 271.3,141.2 L 273.4,141.7 L 275.2,142.3 L 276.9,143.6 L 278.8,145.7 L 280.5,150.8 L 281.2,152.0 L 281.2,152.4 L 282.3,154.5 L 282.8,155.0 L 284.2,156.1 L 285.4,158.1 L 286.4,161.2 L 286.5,162.6 L 286.6,163.3 L 286.3,165.6 L 284.0,169.8 L 283.9,169.9 L 283.5,170.1 L 283.4,170.7 L 283.8,170.9 L 284.1,171.0 L 284.2,171.7 L 284.5,172.1 L 284.7,173.3 L 283.4,175.2 L 283.3,176.0 L 284.0,176.7 L 283.5,177.3 L 282.8,177.6 L 282.4,177.8 L 280.0,178.2 L 276.7,180.4 L 276.4,182.7 L 275.4,183.3 L 274.4,184.4 L 274.0,185.4 L 274.3,187.2 L 274.8,187.7 L 275.8,187.4 L 276.3,187.7 L 276.6,188.8 L 277.8,189.0 L 278.3,189.4 L 279.7,189.6 L 280.2,190.0 L 280.1,191.4 L 279.4,192.2 L 279.5,196.7 L 279.5,199.6 L 279.7,203.1 L 280.2,204.3 L 280.3,205.7 L 279.5,206.2 L 278.3,206.3 L 277.5,207.3 L 277.3,208.1 L 277.9,209.0 L 278.0,209.5 L 278.8,210.8 L 279.3,211.4 L 279.7,211.7 L 279.8,212.7 L 278.5,214.5 L 278.5,215.8 L 280.9,216.5 L 282.6,218.2 L 284.7,219.6 L 287.6,223.2 L 287.6,224.3 L 286.5,225.3 L 286.3,225.8 L 286.6,226.3 L 287.6,227.3 L 287.3,227.7 L 285.6,228.1 L 285.2,228.5 L 284.7,229.0 L 284.6,230.2 L 283.9,230.6 L 283.9,231.5 L 282.6,232.5 L 281.9,233.5 L 282.6,234.0 L 283.5,234.4 L 284.0,235.4 L 285.5,236.7 L 285.7,237.8 L 286.2,241.8 L 285.4,244.1 L 285.4,244.8 L 284.2,246.8 L 282.7,246.9 L 282.0,247.4 L 281.7,247.7 L 280.6,249.0 L 280.4,250.2 L 281.2,251.2 L 281.3,251.5 L 281.3,251.8 L 280.9,252.2 L 280.7,252.5 L 279.3,253.9 L 278.9,254.7 L 280.1,258.2 L 281.0,258.7 L 280.8,259.2 L 279.9,260.9 L 279.7,262.4 L 278.6,265.9 L 277.3,267.2 L 276.1,267.9 L 274.9,268.9 L 272.2,269.2 L 271.7,269.8 L 272.0,270.3 L 272.6,270.6 L 272.8,271.1 L 273.8,273.2 L 274.3,274.9 L 274.9,275.5 L 276.2,276.0 L 276.5,276.3 L 276.9,276.7 L 276.7,277.7 L 276.6,279.1 L 276.9,279.9 L 276.9,280.7 L 275.2,281.3 L 274.8,282.1 L 275.1,282.6 L 276.8,282.6 L 277.0,284.0 L 277.8,285.7 L 278.2,287.5 L 278.7,288.5 L 279.5,288.3 L 281.5,286.2 L 281.8,286.3 L 282.5,287.2 L 282.6,288.2 L 281.3,291.1 L 281.6,292.0 L 280.5,293.1 L 280.4,293.6 L 279.7,294.6 L 278.0,295.4 L 276.8,297.9 L 276.9,299.7 L 277.3,300.4 L 278.3,300.9 L 279.8,302.6 L 280.8,304.4 L 282.3,305.5 L 282.9,305.5 L 284.4,305.6 L 285.9,306.4 L 288.9,308.7 L 291.1,310.3 L 291.5,310.5 L 296.8,312.2 L 298.3,313.9 L 299.3,314.9 L 300.3,316.9 L 300.4,318.1 L 300.3,318.5 L 299.8,318.6 L 299.6,318.6 L 298.5,318.4 L 295.5,318.5 L 293.6,318.6 L 291.8,319.4 L 291.1,319.5 L 290.3,319.8 L 287.7,319.0 L 286.5,318.8 L 286.0,318.9 L 283.7,319.2 L 283.0,319.4 L 283.0,320.2 L 284.0,321.6 L 287.7,323.5 L 290.1,324.4 L 291.1,325.2 L 293.0,326.6 L 296.1,330.6 L 298.7,332.9 L 298.5,333.1 L 298.3,333.4 L 296.3,333.6 L 295.5,333.4 L 292.8,332.7 L 291.3,333.1 L 291.1,333.3 L 290.8,333.5 L 290.7,335.0 L 291.1,335.5 L 293.3,337.6 L 294.6,339.1 L 294.9,343.2 L 295.5,343.4 L 296.0,343.0 L 296.5,343.0 L 296.8,344.9 L 298.0,343.7 L 298.5,343.8 L 298.9,344.4 L 298.6,347.3 L 299.9,349.3 L 300.4,349.4 L 301.9,348.8 L 302.8,348.6 L 302.8,349.3 L 302.1,349.4 L 300.9,350.2 L 299.6,350.7 L 298.3,351.5 L 296.9,351.7 L 296.2,351.3 L 295.9,350.3 L 296.1,347.4 L 295.8,346.9 L 295.3,347.6 L 294.7,349.7 L 295.1,350.4 L 294.9,352.1 L 295.9,352.5 L 296.2,353.8 L 298.0,354.4 L 300.0,355.4 L 302.0,356.0 L 302.9,357.1 L 302.2,358.4 L 302.1,359.0 L 302.2,359.5 L 302.1,359.8 L 300.2,360.0 L 298.6,359.3 L 297.4,358.4 L 297.1,358.4 L 296.4,357.9 L 295.1,357.8 L 292.8,357.1 L 291.1,356.9 L 290.0,356.7 L 289.4,356.4 L 287.9,356.2 L 286.7,356.3 L 284.8,356.7 L 284.4,358.1 L 283.1,359.0 L 282.9,359.1 L 281.1,359.4 L 280.4,358.9 L 280.1,358.7 L 279.5,357.4 L 279.3,356.7 L 278.2,356.0 L 276.4,355.4 L 274.5,355.2 L 268.3,350.3 L 267.8,348.8 L 267.9,347.0 L 268.2,346.3 L 267.0,344.8 L 266.0,344.0 L 265.8,342.9 L 265.4,342.9 L 264.0,344.3 L 262.9,344.2 L 261.8,343.3 L 260.9,341.3 L 259.9,340.7 L 259.5,340.3 L 259.0,338.8 L 257.9,337.3 L 254.4,334.7 L 252.7,334.3 L 250.1,334.1 L 248.3,333.2 L 246.3,331.0 L 244.3,328.2 L 241.2,326.1 L 239.0,323.5 L 236.4,318.9 L 235.7,318.1 L 235.8,317.9 L 235.9,316.9 L 236.4,316.6 L 236.9,316.6 L 237.6,316.9 L 241.0,318.7 L 242.6,318.5 L 245.4,317.1 L 246.5,315.6 L 247.3,312.9 L 247.3,312.7 L 247.3,311.3 L 246.0,308.5 L 245.4,306.5 L 244.4,304.8 L 242.9,303.8 L 236.1,301.0 L 233.8,299.2 L 233.4,298.0 L 233.7,293.0 L 233.4,291.5 L 233.9,288.9 L 232.1,285.9 L 230.0,281.3 L 229.1,278.6 L 227.9,276.7 L 226.0,273.9 L 226.1,271.6 L 227.1,271.6 L 230.2,273.0 L 234.4,274.4 L 235.7,275.5 L 237.1,276.8 L 238.3,279.9 L 238.6,282.4 L 239.9,283.9 L 240.9,283.6 L 242.8,282.4 L 243.6,282.2 L 244.1,280.7 L 244.0,279.1 L 243.1,277.2 L 243.2,276.2 L 244.9,273.6 L 245.7,271.8 L 247.3,268.1 L 248.9,264.7 L 248.8,263.3 L 246.6,258.8 L 245.6,257.3 L 243.7,255.6 L 241.4,252.8 L 241.1,252.2 L 239.0,246.8 L 238.6,246.5 L 237.8,246.1 L 237.2,245.9 L 237.1,245.9 L 236.8,245.8 L 235.3,245.9 L 234.8,245.9 L 234.4,246.2 L 233.0,247.4 L 231.8,247.6 L 231.0,247.1 L 231.1,245.9 L 231.1,245.6 L 232.6,245.0 L 233.3,242.7 L 233.2,241.4 L 231.9,239.8 L 230.9,239.6 L 230.2,239.7 L 228.9,240.3 L 227.5,240.1 L 226.0,239.7 L 223.5,240.0 L 222.5,240.4 L 222.5,240.3 L 219.5,239.3 L 219.1,239.2 L 217.6,236.5 L 216.6,234.1 L 217.2,232.8 L 218.9,230.4 L 219.9,227.9 L 221.4,222.8 L 222.7,221.2 L 224.7,219.0 L 224.9,218.0 L 224.5,216.5 L 224.7,215.3 L 226.0,213.4 L 227.7,211.2 L 227.8,211.0 L 227.9,210.8 L 228.7,208.4 L 230.3,201.9 L 230.5,200.9 L 230.4,197.5 L 230.2,196.4 L 229.5,195.4 L 228.5,194.9 L 226.6,194.9 L 224.6,195.2 L 221.9,195.6 L 219.8,196.6 L 216.6,198.4 L 214.7,198.9 L 213.1,199.7 L 210.8,199.8 L 208.3,199.2 L 207.3,197.7 L 206.6,197.1 L 207.6,195.4 L 207.6,194.4 L 206.4,193.8 L 205.8,194.4 L 204.6,194.8 L 204.6,195.8 L 204.8,196.6 L 204.8,197.3 L 204.3,197.5 L 202.4,196.3 L 199.8,194.2 L 199.6,192.0 L 198.7,191.1 L 195.5,190.1 L 194.5,189.5 L 194.5,189.5 L 193.5,188.1 L 193.3,187.4 L 193.2,187.1 L 193.1,185.3 L 192.6,184.8 L 190.6,182.8 L 189.7,182.4 L 186.6,182.4 L 186.1,181.8 L 186.2,179.8 L 186.8,178.3 L 186.8,174.7 L 186.5,172.5 L 186.4,172.1 L 186.4,169.6 L 186.2,167.9 L 186.0,167.4 L 185.9,167.1 L 186.0,165.2 L 187.1,164.0 L 187.4,162.7 L 187.2,158.6 L 186.7,155.4 L 186.1,154.1 L 185.6,153.7 L 184.6,153.8 L 183.5,154.2 L 182.5,153.6 L 182.0,153.0 L 181.7,151.7 L 180.3,150.1 L 179.1,149.5 L 178.5,149.3 L 177.5,148.1 L 177.4,147.2 L 176.6,146.9 L 175.5,146.7 L 171.9,145.6 L 170.9,143.6" fill="none" stroke="black" stroke-width="2"/>
</svg>