<?xml version="1.0" encoding="UTF-8"?>
<svg width="400" height="400" viewBox="0 0 400 400" xmlns="http://www.w3.org/2000/svg">
  <rect width="400" height="400" fill="white"/>
  <path d="M 266.3,360.0 L 262.5,358.6 L 257.0,354.5 L 254.4,354.5 L 251.2,355.9 L 245.4,351.1 L 228.6,348.4 L 221.9,348.8 L 217.8,350.1 L 214.2,348.2 L 214.2,345.9 L 215.1,341.1 L 214.2,337.2 L 212.2,337.2 L 209.4,339.5 L 205.5,337.0 L 198.0,328.3 L 194.7,323.3 L 190.3,323.3 L 186.6,320.4 L 183.1,314.5 L 181.2,313.5 L 175.6,308.1 L 170.8,306.7 L 167.3,306.6 L 158.7,307.9 L 153.9,307.3 L 152.5,306.9 L 146.7,301.9 L 144.4,299.0 L 144.0,290.0 L 137.5,283.6 L 133.6,274.8 L 129.8,273.8 L 125.0,273.2 L 122.6,270.9 L 119.4,260.7 L 114.2,255.3 L 114.4,248.6 L 115.3,246.2 L 121.1,244.7 L 133.0,244.9 L 135.5,242.6 L 136.5,238.3 L 139.6,231.0 L 142.5,230.6 L 145.8,233.5 L 149.6,233.5 L 153.1,227.0 L 153.7,224.5 L 153.7,216.4 L 156.7,212.9 L 158.1,209.6 L 165.8,207.3 L 169.5,198.6 L 172.4,195.9 L 175.2,195.0 L 177.8,191.1 L 176.8,183.4 L 171.2,176.1 L 167.0,160.7 L 163.3,154.7 L 160.4,145.6 L 157.1,141.2 L 155.2,137.4 L 157.3,133.5 L 161.8,126.8 L 158.3,124.3 L 159.4,116.2 L 162.3,109.0 L 169.3,105.8 L 181.2,103.3 L 182.2,106.9 L 184.1,105.0 L 184.9,90.9 L 192.8,75.7 L 194.1,73.8 L 196.6,67.6 L 197.4,53.5 L 197.3,40.0 L 217.6,42.9 L 218.9,43.1 L 218.2,45.6 L 217.6,52.4 L 218.6,53.0 L 222.3,62.0 L 220.9,66.4 L 219.8,74.2 L 219.8,79.4 L 222.5,89.6 L 218.8,102.1 L 218.2,114.0 L 214.8,125.6 L 216.1,136.8 L 214.9,145.3 L 210.5,154.5 L 209.2,172.8 L 201.8,189.0 L 201.6,202.1 L 203.0,206.3 L 203.0,213.1 L 203.8,216.9 L 205.1,233.9 L 207.8,244.1 L 208.6,251.8 L 210.5,256.1 L 210.9,259.5 L 207.0,267.6 L 208.2,270.1 L 206.3,270.9 L 205.7,273.7 L 205.4,278.3 L 206.0,282.6 L 205.4,283.8 L 206.3,288.3 L 206.9,290.8 L 207.4,293.1 L 208.8,296.3 L 211.2,296.7 L 216.7,306.1 L 220.0,305.6 L 225.4,303.6 L 228.9,302.3 L 229.8,299.3 L 231.1,299.0 L 232.9,300.4 L 235.5,299.3 L 236.5,296.9 L 238.8,303.3 L 242.1,305.8 L 245.0,304.8 L 248.5,304.8 L 249.8,313.1 L 252.1,315.4 L 261.6,321.8 L 266.0,327.8 L 271.8,327.4 L 273.7,325.4 L 274.3,318.7 L 279.1,318.7 L 279.5,327.0 L 281.2,329.3 L 283.2,335.3 L 285.8,336.5 L 266.3,360.0" fill="none" stroke="black" stroke-width="2"/>
</svg>