<?xml version="1.0" encoding="UTF-8"?>
<svg width="400" height="400" viewBox="0 0 400 400" xmlns="http://www.w3.org/2000/svg">
  <rect width="400" height="400" fill="white"/>
  <path d="M 346.9,231.1 L 345.9,231.0 L 343.3,227.4 L 341.9,228.1 L 341.6,232.1 L 339.7,235.9 L 338.0,235.9 L 334.0,230.2 L 327.3,230.2 L 323.0,231.0 L 318.0,230.8 L 315.2,228.7 L 316.3,224.8 L 312.3,223.0 L 308.1,223.0 L 303.3,227.5 L 299.5,230.1 L 292.4,231.1 L 287.7,231.5 L 278.8,227.1 L 275.2,227.1 L 272.4,225.7 L 268.8,226.4 L 263.8,225.7 L 259.3,227.4 L 254.8,232.4 L 251.7,235.2 L 244.1,234.5 L 242.4,233.1 L 242.0,229.5 L 241.0,228.1 L 238.2,227.0 L 229.6,228.0 L 218.6,228.4 L 212.9,229.7 L 206.3,233.0 L 204.2,235.4 L 201.1,239.7 L 196.4,243.7 L 192.8,243.9 L 192.1,240.7 L 188.5,238.9 L 187.1,238.5 L 185.7,237.5 L 181.1,238.2 L 179.9,235.4 L 178.9,232.8 L 178.7,230.7 L 178.0,229.2 L 177.5,227.5 L 175.8,226.0 L 173.7,223.1 L 168.0,220.0 L 166.1,217.1 L 165.8,211.4 L 163.7,207.1 L 150.2,205.2 L 143.0,204.1 L 135.2,203.7 L 130.9,204.9 L 126.6,205.1 L 116.3,208.0 L 108.0,208.0 L 104.5,210.8 L 97.1,212.1 L 94.2,212.6 L 91.6,211.1 L 87.1,211.1 L 86.4,210.4 L 85.9,207.6 L 83.8,206.4 L 75.0,206.0 L 68.1,202.9 L 64.0,202.0 L 58.5,199.6 L 52.1,198.4 L 48.6,196.7 L 40.4,189.9 L 40.0,188.7 L 42.1,185.2 L 42.6,183.7 L 46.6,179.9 L 47.9,179.6 L 51.1,178.9 L 54.0,178.9 L 57.3,181.0 L 61.4,184.6 L 66.8,184.3 L 69.0,181.5 L 72.2,180.0 L 76.1,181.0 L 78.9,184.3 L 86.4,183.6 L 90.4,180.0 L 96.1,180.5 L 97.2,181.2 L 97.9,181.5 L 107.8,181.9 L 113.2,185.4 L 116.0,188.7 L 121.7,192.7 L 126.0,194.2 L 129.6,193.7 L 139.1,191.3 L 150.2,190.6 L 150.3,190.6 L 155.3,194.2 L 159.8,195.0 L 163.4,198.9 L 170.8,200.7 L 174.8,200.0 L 178.7,198.3 L 183.7,197.9 L 187.9,196.4 L 189.1,193.6 L 193.4,188.0 L 195.9,185.4 L 197.6,184.5 L 199.5,183.7 L 206.9,183.3 L 212.3,184.5 L 214.8,186.3 L 218.3,186.6 L 226.2,189.4 L 228.3,189.4 L 230.4,186.7 L 233.7,186.3 L 234.7,188.2 L 237.6,188.4 L 238.7,189.9 L 240.9,189.9 L 243.3,191.3 L 246.9,189.9 L 250.8,187.4 L 253.3,187.2 L 257.6,187.4 L 259.7,188.2 L 263.3,188.6 L 265.4,190.7 L 267.5,192.2 L 269.7,199.0 L 271.1,200.0 L 271.4,203.3 L 275.4,207.8 L 278.8,209.3 L 286.4,208.3 L 287.8,210.1 L 289.2,209.4 L 291.1,207.6 L 296.4,206.6 L 298.2,205.4 L 298.9,193.0 L 300.6,190.2 L 304.3,188.4 L 307.5,185.2 L 307.5,180.6 L 305.3,177.7 L 305.8,175.2 L 308.2,173.5 L 311.8,173.8 L 312.9,175.2 L 313.2,178.0 L 314.3,180.2 L 314.3,183.7 L 316.0,185.2 L 316.5,187.0 L 315.6,189.9 L 313.2,190.2 L 311.3,191.6 L 311.1,197.0 L 312.5,198.0 L 315.3,197.7 L 317.8,195.6 L 318.5,190.2 L 321.3,189.6 L 324.3,186.3 L 323.6,184.6 L 326.0,181.7 L 327.9,174.9 L 325.3,174.6 L 323.2,172.8 L 321.0,171.8 L 321.9,170.3 L 323.3,169.2 L 322.2,167.0 L 323.3,164.9 L 322.2,163.9 L 320.8,163.2 L 320.8,158.5 L 323.3,156.1 L 326.5,156.1 L 328.3,159.6 L 329.3,159.6 L 332.2,156.8 L 334.3,157.1 L 337.6,161.1 L 338.6,161.1 L 341.4,165.6 L 341.7,167.2 L 342.6,172.0 L 340.3,171.8 L 339.6,173.6 L 341.7,176.0 L 341.0,181.7 L 339.6,183.6 L 339.2,189.3 L 340.6,190.7 L 342.4,193.9 L 342.7,196.0 L 341.3,197.9 L 341.3,199.3 L 343.9,200.3 L 346.7,200.7 L 348.9,202.9 L 351.3,201.7 L 355.6,204.3 L 357.0,207.8 L 358.0,212.1 L 359.4,214.0 L 360.0,213.7 L 347.3,230.5 L 346.9,231.1" fill="none" stroke="black" stroke-width="2"/>
</svg>