<?xml version="1.0" encoding="UTF-8"?>
<svg width="400" height="400" viewBox="0 0 400 400" xmlns="http://www.w3.org/2000/svg">
  <rect width="400" height="400" fill="white"/>
  <path d="M 134.7,240.2 L 134.8,240.2 L 136.7,238.9 L 138.3,238.1 L 139.6,237.6 L 144.9,234.0 L 145.8,232.2 L 146.1,228.3 L 147.0,226.1 L 147.3,225.2 L 147.2,223.4 L 147.1,222.7 L 147.6,221.2 L 147.8,220.2 L 148.5,219.0 L 148.9,218.6 L 149.4,218.8 L 149.7,219.2 L 150.1,219.4 L 150.9,218.6 L 152.2,216.3 L 154.2,215.4 L 155.2,215.7 L 155.9,215.4 L 157.6,213.9 L 162.5,211.8 L 163.0,211.5 L 163.4,211.2 L 164.9,209.6 L 166.0,209.1 L 167.4,208.1 L 168.3,207.2 L 169.9,206.5 L 170.5,206.0 L 171.6,205.2 L 176.2,203.3 L 177.9,202.9 L 179.1,202.4 L 185.3,198.8 L 187.8,197.0 L 190.6,195.7 L 191.8,195.0 L 193.4,193.8 L 194.2,193.4 L 196.2,192.5 L 196.2,191.2 L 197.1,190.0 L 198.5,188.7 L 200.0,187.8 L 202.9,186.8 L 203.6,185.5 L 206.6,182.5 L 211.1,179.7 L 211.7,179.0 L 211.9,178.1 L 211.5,177.5 L 209.4,177.9 L 209.2,177.6 L 210.3,176.3 L 211.8,171.7 L 212.9,170.8 L 213.6,170.4 L 214.2,169.9 L 217.6,167.6 L 219.4,166.8 L 220.7,166.3 L 221.7,165.7 L 222.6,164.1 L 224.3,161.5 L 225.3,160.8 L 226.6,160.4 L 226.8,160.0 L 226.8,159.3 L 226.7,157.4 L 227.1,155.7 L 229.2,153.3 L 231.9,152.0 L 234.7,149.4 L 235.8,147.7 L 236.1,147.0 L 237.4,145.9 L 238.0,145.6 L 239.1,145.2 L 241.0,144.3 L 242.3,143.5 L 244.7,142.5 L 247.5,141.2 L 248.8,140.9 L 250.0,139.9 L 251.1,138.7 L 252.7,137.6 L 256.4,134.2 L 256.9,133.5 L 257.0,133.2 L 257.3,132.2 L 261.3,128.1 L 264.0,126.6 L 265.4,126.2 L 266.6,125.5 L 267.4,124.8 L 268.7,123.4 L 270.5,122.1 L 271.9,120.9 L 272.7,119.6 L 273.5,118.9 L 279.9,114.8 L 282.4,113.7 L 284.1,112.7 L 287.5,110.6 L 289.0,109.5 L 289.4,108.7 L 289.7,109.1 L 293.3,109.0 L 303.5,107.9 L 310.9,106.9 L 311.7,106.8 L 319.9,106.3 L 323.2,104.0 L 328.6,100.9 L 336.5,95.2 L 340.5,89.3 L 343.4,83.3 L 344.3,78.7 L 348.0,75.7 L 351.7,71.9 L 357.7,68.3 L 360.0,70.8 L 359.7,71.3 L 359.0,72.1 L 356.9,72.1 L 356.3,73.5 L 355.4,74.0 L 354.8,75.6 L 354.4,75.9 L 353.5,76.1 L 351.4,75.7 L 350.4,75.9 L 345.8,78.6 L 345.2,79.1 L 344.5,80.3 L 343.8,83.3 L 342.5,87.7 L 342.4,88.1 L 342.1,90.9 L 341.3,93.0 L 340.5,94.1 L 339.3,95.5 L 338.1,98.9 L 337.5,101.3 L 337.3,101.6 L 336.9,103.9 L 336.5,105.2 L 336.3,107.0 L 337.4,111.9 L 338.4,115.1 L 339.7,119.3 L 339.9,120.8 L 340.5,122.3 L 340.1,124.9 L 339.6,126.2 L 339.2,126.7 L 336.7,126.6 L 336.1,126.7 L 335.7,128.2 L 335.1,128.7 L 334.3,129.0 L 333.3,128.8 L 333.0,128.5 L 332.5,128.5 L 330.8,129.0 L 329.6,129.1 L 328.7,129.8 L 327.3,129.9 L 326.9,129.6 L 325.1,128.9 L 324.4,129.3 L 322.6,130.8 L 322.1,131.6 L 321.5,133.1 L 321.9,133.7 L 324.1,134.2 L 325.9,134.8 L 327.4,134.8 L 328.5,134.1 L 329.8,133.9 L 333.1,132.3 L 336.3,132.2 L 337.0,132.0 L 340.2,131.8 L 340.7,132.0 L 341.0,132.7 L 341.1,133.3 L 340.6,133.7 L 340.1,135.7 L 340.0,137.2 L 340.4,138.9 L 340.5,140.1 L 340.2,141.2 L 340.2,141.4 L 339.2,143.2 L 337.5,144.4 L 336.1,145.2 L 333.6,146.0 L 333.2,146.8 L 332.4,147.2 L 331.9,147.6 L 331.4,148.8 L 330.7,149.0 L 329.6,148.6 L 328.8,147.9 L 328.4,147.3 L 327.2,146.7 L 326.4,146.5 L 326.2,146.2 L 324.1,145.8 L 322.9,146.1 L 319.8,148.5 L 317.0,148.8 L 313.6,149.3 L 312.6,149.5 L 311.3,150.3 L 309.4,151.8 L 308.9,152.8 L 306.9,154.1 L 305.7,154.4 L 304.8,155.3 L 304.0,155.3 L 302.2,154.8 L 301.0,154.5 L 300.0,153.8 L 299.3,153.9 L 298.6,154.5 L 298.1,154.0 L 297.4,152.4 L 297.5,150.4 L 297.9,149.2 L 298.9,148.8 L 300.1,147.0 L 300.5,144.4 L 302.3,141.3 L 302.3,140.1 L 300.4,139.9 L 297.9,140.1 L 296.3,140.5 L 295.0,141.0 L 294.1,141.2 L 291.6,142.4 L 291.2,143.0 L 291.2,143.9 L 290.9,144.6 L 288.8,146.5 L 287.6,147.8 L 286.2,149.7 L 285.9,150.7 L 285.4,151.5 L 279.6,154.6 L 277.8,156.1 L 276.9,158.5 L 276.0,161.0 L 275.8,161.5 L 276.4,162.8 L 275.4,164.8 L 274.5,165.1 L 273.3,165.1 L 267.7,168.3 L 263.9,169.7 L 263.4,170.9 L 263.1,171.7 L 262.9,173.3 L 261.0,177.7 L 260.4,178.3 L 259.8,178.5 L 259.2,179.0 L 258.5,181.0 L 258.1,181.3 L 257.2,181.6 L 256.3,182.0 L 254.4,182.8 L 249.7,185.7 L 248.8,186.5 L 247.4,187.5 L 244.6,189.0 L 239.7,191.4 L 239.0,192.2 L 235.4,194.5 L 233.4,195.1 L 231.5,196.2 L 231.0,196.1 L 226.4,197.9 L 225.2,198.5 L 224.5,199.1 L 224.2,200.2 L 221.5,201.7 L 220.7,202.4 L 219.0,203.4 L 218.0,204.9 L 217.9,205.8 L 217.0,208.1 L 216.4,209.3 L 216.0,210.8 L 216.7,211.4 L 216.4,212.7 L 215.9,213.8 L 213.8,215.6 L 212.1,216.3 L 211.0,216.8 L 206.6,218.1 L 206.2,219.0 L 205.7,220.1 L 203.3,222.3 L 202.0,224.6 L 200.6,226.2 L 199.9,226.4 L 197.1,228.5 L 192.9,230.7 L 190.5,231.6 L 189.2,232.2 L 184.7,234.7 L 184.3,235.2 L 183.7,235.4 L 182.7,236.9 L 180.9,239.0 L 180.7,239.7 L 181.5,242.1 L 181.5,243.1 L 182.2,244.7 L 182.2,244.8 L 181.8,245.9 L 180.6,246.8 L 178.7,247.0 L 177.3,248.7 L 176.7,249.0 L 175.3,249.4 L 174.8,250.1 L 173.9,250.9 L 173.5,251.5 L 169.8,253.8 L 168.3,254.2 L 166.2,255.1 L 165.2,255.8 L 164.1,256.3 L 163.7,256.6 L 163.7,257.4 L 163.4,258.1 L 162.6,259.2 L 160.8,260.9 L 159.6,262.7 L 155.5,265.1 L 153.4,267.2 L 152.8,268.0 L 151.2,269.3 L 150.2,270.0 L 149.4,271.2 L 147.9,275.1 L 147.5,275.5 L 147.2,276.1 L 147.7,276.4 L 147.9,277.0 L 147.7,278.3 L 147.0,279.4 L 145.1,280.7 L 144.0,281.2 L 139.0,284.6 L 137.1,286.8 L 136.7,288.1 L 135.1,289.7 L 134.2,291.2 L 134.1,291.6 L 132.2,293.1 L 131.0,293.7 L 129.8,294.7 L 129.4,294.9 L 129.1,295.2 L 126.6,296.0 L 124.8,297.7 L 124.0,298.9 L 124.3,299.2 L 124.6,300.0 L 124.8,302.5 L 124.8,304.8 L 124.4,306.6 L 124.0,307.5 L 122.6,308.3 L 121.0,308.6 L 116.2,309.2 L 114.9,309.6 L 114.1,310.3 L 113.5,310.3 L 111.6,309.6 L 110.6,309.6 L 109.3,310.1 L 108.0,311.1 L 107.1,311.2 L 106.5,311.6 L 105.5,313.0 L 105.3,315.4 L 105.0,316.4 L 104.0,317.7 L 96.6,323.4 L 92.9,325.5 L 91.9,326.6 L 88.4,329.9 L 87.5,330.1 L 87.1,330.4 L 86.7,331.2 L 86.2,331.7 L 85.7,331.7 L 85.5,331.1 L 85.5,330.5 L 86.0,329.8 L 86.6,328.0 L 90.4,323.7 L 91.7,321.9 L 93.8,319.7 L 94.6,318.3 L 96.1,315.2 L 97.1,313.7 L 102.4,308.2 L 103.9,306.1 L 105.1,305.0 L 106.3,304.4 L 108.2,303.0 L 109.5,302.2 L 109.7,302.0 L 110.2,301.8 L 110.6,301.3 L 111.1,300.6 L 112.1,299.5 L 112.1,298.7 L 111.4,297.9 L 110.1,297.7 L 109.9,297.6 L 109.5,297.3 L 108.0,297.5 L 107.5,298.1 L 106.3,298.7 L 102.4,298.7 L 99.9,299.4 L 98.4,300.0 L 96.9,300.0 L 95.7,299.6 L 93.4,298.4 L 92.0,298.1 L 89.4,297.9 L 89.4,297.3 L 90.5,296.7 L 91.0,296.0 L 90.3,295.5 L 89.0,295.6 L 86.0,296.6 L 86.2,297.0 L 88.8,297.8 L 86.3,300.7 L 85.4,301.5 L 83.7,302.6 L 82.1,303.2 L 80.9,303.2 L 80.1,302.8 L 79.0,302.1 L 76.6,302.3 L 74.2,302.8 L 72.4,303.6 L 71.2,303.9 L 66.6,307.0 L 65.0,307.7 L 64.6,308.1 L 64.4,308.2 L 63.5,309.0 L 62.8,309.8 L 61.7,311.6 L 61.4,312.0 L 61.3,312.0 L 61.0,311.8 L 41.0,300.2 L 40.9,300.2 L 41.1,300.2 L 41.4,299.6 L 41.7,298.7 L 41.5,297.9 L 40.3,296.9 L 40.0,295.9 L 40.1,294.7 L 40.7,293.6 L 41.8,292.7 L 43.9,292.0 L 47.4,291.2 L 48.1,291.5 L 48.6,291.1 L 49.7,289.5 L 50.4,286.7 L 50.7,286.2 L 52.0,285.2 L 53.5,283.6 L 58.2,281.3 L 61.1,279.5 L 61.4,279.2 L 62.8,277.8 L 63.1,275.6 L 63.7,274.2 L 64.6,273.8 L 66.1,273.9 L 68.0,272.3 L 68.1,272.2 L 70.7,271.1 L 72.2,270.1 L 75.4,268.5 L 77.0,267.4 L 78.5,265.9 L 79.9,265.0 L 82.7,262.7 L 84.9,261.7 L 89.1,260.7 L 90.4,259.5 L 92.8,258.2 L 94.9,257.9 L 98.1,257.0 L 99.6,256.0 L 100.7,255.0 L 101.7,254.7 L 103.0,254.7 L 104.9,253.8 L 107.3,252.4 L 110.6,251.4 L 112.0,250.8 L 116.1,249.5 L 117.6,248.8 L 119.9,248.1 L 121.2,248.1 L 123.5,247.0 L 124.7,246.2 L 127.4,242.6 L 128.6,241.7 L 130.0,241.0 L 133.1,240.8 L 134.7,240.2" fill="none" stroke="black" stroke-width="2"/>
</svg>