<?xml version="1.0" encoding="UTF-8"?>
<svg width="400" height="400" viewBox="0 0 400 400" xmlns="http://www.w3.org/2000/svg">
  <rect width="400" height="400" fill="white"/>
  <path d="M 127.5,232.9 L 127.7,232.2 L 127.4,231.4 L 126.2,230.8 L 125.6,229.7 L 125.1,228.5 L 125.3,227.2 L 126.0,223.1 L 126.6,222.2 L 127.5,219.9 L 127.8,218.4 L 128.0,217.6 L 127.3,213.8 L 126.7,213.5 L 125.5,213.5 L 123.4,211.3 L 121.1,209.2 L 119.6,207.5 L 119.1,206.5 L 118.4,204.3 L 117.2,201.2 L 116.5,200.1 L 116.1,199.1 L 114.9,197.1 L 114.7,193.7 L 113.8,192.0 L 112.7,191.0 L 112.0,190.6 L 110.4,190.1 L 107.5,189.9 L 106.7,190.1 L 104.6,190.1 L 103.4,190.5 L 102.4,190.5 L 102.3,190.4 L 101.7,190.1 L 100.2,189.7 L 96.8,189.4 L 95.3,189.5 L 94.4,189.2 L 92.2,189.0 L 88.6,189.8 L 88.1,190.5 L 84.9,191.4 L 80.0,193.7 L 79.9,195.2 L 79.5,196.0 L 79.3,196.9 L 79.5,197.7 L 79.4,198.8 L 78.2,200.0 L 77.9,200.5 L 77.6,201.6 L 77.0,202.4 L 76.9,204.3 L 74.7,206.6 L 73.3,207.3 L 71.9,207.6 L 71.2,208.1 L 70.3,207.8 L 69.9,207.4 L 69.8,206.5 L 68.6,205.4 L 67.0,203.2 L 65.4,202.0 L 63.2,201.5 L 62.7,200.8 L 62.5,200.3 L 61.0,198.8 L 59.6,198.2 L 58.1,197.8 L 56.2,197.7 L 54.8,197.8 L 54.1,197.7 L 53.7,197.5 L 52.1,196.8 L 51.0,196.1 L 46.5,195.7 L 44.3,195.3 L 42.5,195.5 L 41.2,195.0 L 40.0,195.0 L 43.7,151.1 L 43.7,151.1 L 43.9,151.1 L 44.5,151.1 L 45.1,150.8 L 45.2,150.1 L 45.8,150.3 L 46.3,151.0 L 47.1,150.7 L 48.0,150.9 L 48.6,151.1 L 51.7,151.2 L 52.0,151.6 L 52.2,152.1 L 52.0,152.8 L 52.5,153.1 L 53.7,153.0 L 54.3,152.8 L 54.5,152.2 L 54.9,151.9 L 56.4,152.0 L 56.8,152.4 L 58.1,152.4 L 60.0,151.5 L 61.1,150.5 L 62.3,149.7 L 64.2,149.4 L 65.6,149.4 L 67.4,148.9 L 68.6,148.2 L 70.3,146.7 L 72.8,145.4 L 74.5,144.1 L 79.1,142.5 L 79.8,142.1 L 80.6,141.6 L 82.0,140.6 L 83.7,140.4 L 84.3,139.8 L 86.2,139.2 L 86.3,138.8 L 87.9,137.8 L 88.8,137.6 L 89.6,137.8 L 92.0,137.2 L 92.8,137.1 L 93.6,137.2 L 94.4,137.8 L 96.0,138.2 L 99.8,138.1 L 100.8,137.9 L 105.4,137.2 L 108.5,136.6 L 112.8,136.9 L 113.6,137.5 L 114.1,137.4 L 116.1,136.3 L 117.0,136.3 L 118.4,137.4 L 119.3,137.2 L 122.0,138.6 L 123.4,139.5 L 124.9,139.3 L 125.5,139.8 L 126.7,140.3 L 127.9,140.2 L 129.7,139.6 L 131.8,139.2 L 132.6,138.8 L 135.2,136.8 L 135.3,136.6 L 136.5,136.7 L 137.6,136.7 L 140.2,135.4 L 142.4,135.0 L 145.4,134.1 L 146.0,133.6 L 148.2,132.9 L 151.8,132.4 L 153.1,132.1 L 153.9,131.7 L 155.5,131.4 L 155.6,131.4 L 156.7,131.4 L 159.4,131.0 L 164.6,131.3 L 167.9,130.5 L 169.1,129.7 L 169.5,129.4 L 170.6,129.1 L 172.1,129.4 L 172.4,129.6 L 173.8,130.9 L 174.6,132.1 L 175.5,132.8 L 176.5,133.3 L 179.1,133.5 L 180.2,133.3 L 181.9,133.4 L 184.0,134.5 L 188.4,136.5 L 189.0,137.7 L 190.5,138.6 L 191.8,138.6 L 193.6,137.5 L 196.0,137.5 L 197.0,138.1 L 198.0,139.2 L 198.1,140.0 L 197.9,140.8 L 198.2,141.2 L 198.2,142.0 L 198.7,142.9 L 200.3,144.6 L 200.5,145.2 L 201.1,145.6 L 201.5,145.7 L 202.5,147.2 L 202.6,147.5 L 202.5,148.4 L 202.4,148.7 L 204.2,148.8 L 204.8,149.1 L 205.1,149.6 L 205.3,149.8 L 205.7,150.8 L 205.7,152.5 L 204.5,155.0 L 203.6,160.1 L 203.3,163.4 L 202.8,164.7 L 202.7,165.7 L 202.9,167.1 L 203.3,167.6 L 206.4,167.9 L 209.6,170.6 L 211.5,171.7 L 212.8,172.7 L 215.3,175.5 L 216.4,176.5 L 216.8,177.7 L 218.5,178.9 L 219.4,178.8 L 220.6,178.3 L 222.4,177.7 L 223.3,177.2 L 223.8,177.2 L 224.3,177.6 L 224.7,177.5 L 226.7,176.1 L 227.3,175.6 L 227.8,175.2 L 229.8,173.8 L 230.0,171.6 L 231.2,170.4 L 231.9,169.3 L 231.9,167.5 L 230.5,165.7 L 229.4,164.8 L 228.8,163.4 L 229.8,156.2 L 230.2,154.9 L 230.3,153.3 L 230.4,152.6 L 230.6,151.5 L 230.8,147.1 L 230.5,145.1 L 230.7,143.9 L 231.3,142.4 L 229.9,139.5 L 229.5,137.6 L 229.6,134.9 L 230.0,133.3 L 230.5,132.4 L 230.9,131.6 L 231.0,131.2 L 231.5,130.2 L 232.1,128.4 L 232.3,128.3 L 234.6,129.7 L 236.7,129.8 L 237.2,130.1 L 237.5,131.3 L 238.0,131.2 L 238.8,130.2 L 238.8,129.5 L 237.7,128.7 L 237.8,127.6 L 238.4,125.8 L 239.4,124.1 L 241.2,123.1 L 242.7,122.8 L 243.9,123.0 L 245.4,124.2 L 246.2,125.3 L 246.4,126.2 L 245.6,127.5 L 244.3,129.1 L 243.7,129.3 L 243.4,129.8 L 242.2,129.8 L 242.0,130.3 L 243.5,130.7 L 243.5,131.7 L 243.7,132.1 L 244.3,131.9 L 244.9,131.2 L 244.9,129.4 L 246.4,127.5 L 248.0,125.0 L 249.6,123.8 L 253.3,123.1 L 254.0,122.9 L 255.6,122.0 L 257.3,122.0 L 258.5,122.6 L 261.1,124.8 L 263.0,124.9 L 264.1,124.6 L 265.7,124.6 L 266.1,124.8 L 269.2,125.5 L 270.2,126.0 L 270.6,126.7 L 271.4,127.2 L 271.9,127.2 L 272.8,127.2 L 274.2,126.6 L 280.3,127.0 L 282.1,127.5 L 282.4,127.7 L 283.3,129.0 L 282.8,129.9 L 281.0,131.3 L 280.1,132.6 L 279.6,133.1 L 278.2,133.4 L 275.8,135.0 L 275.2,135.6 L 275.1,135.8 L 274.6,137.0 L 273.9,138.3 L 273.6,139.7 L 273.8,140.7 L 275.0,140.9 L 275.7,140.8 L 276.8,140.1 L 277.4,139.4 L 278.7,139.3 L 279.5,138.0 L 281.0,136.4 L 281.1,136.3 L 281.4,135.3 L 282.3,134.9 L 283.4,134.7 L 284.3,134.9 L 285.3,135.4 L 287.5,136.3 L 289.5,136.3 L 292.4,135.2 L 294.2,133.7 L 295.7,132.2 L 297.3,131.3 L 298.4,130.9 L 299.2,130.9 L 299.9,131.3 L 300.5,131.9 L 301.1,133.4 L 301.4,135.9 L 301.5,137.3 L 301.6,138.3 L 301.7,138.3 L 302.4,138.7 L 302.6,139.5 L 303.4,139.6 L 304.0,139.9 L 306.3,139.3 L 307.2,139.8 L 309.9,142.4 L 312.9,144.3 L 313.9,144.5 L 315.6,145.4 L 316.5,145.3 L 317.6,144.3 L 317.9,142.6 L 319.5,140.6 L 320.2,140.1 L 320.8,139.6 L 323.6,138.1 L 328.2,137.5 L 330.4,137.4 L 334.3,136.3 L 338.6,135.7 L 341.1,135.1 L 345.0,134.9 L 346.9,135.0 L 349.0,135.4 L 349.7,135.5 L 350.6,135.6 L 351.1,135.8 L 353.0,136.1 L 354.6,136.1 L 355.0,136.5 L 355.9,136.8 L 356.5,137.0 L 359.1,136.9 L 359.7,136.7 L 360.0,137.2 L 359.6,139.8 L 359.5,140.6 L 358.9,140.6 L 358.4,139.9 L 356.5,139.8 L 355.3,140.1 L 354.1,140.7 L 352.6,141.0 L 350.2,142.9 L 349.3,143.6 L 348.4,144.5 L 345.2,148.6 L 344.0,150.3 L 342.9,151.6 L 339.7,153.2 L 336.4,154.1 L 333.7,155.4 L 329.4,156.2 L 327.3,156.2 L 325.8,155.8 L 324.7,154.9 L 323.2,151.4 L 323.8,149.7 L 324.3,148.7 L 324.1,148.2 L 323.3,147.6 L 321.5,147.2 L 319.9,146.2 L 319.3,145.7 L 317.2,145.8 L 316.2,146.2 L 315.2,146.9 L 315.4,147.8 L 317.2,149.9 L 318.5,152.1 L 319.4,154.9 L 320.2,156.7 L 321.6,158.1 L 323.4,160.4 L 323.5,161.3 L 323.2,162.7 L 322.2,163.9 L 320.8,164.7 L 319.0,166.6 L 318.5,167.6 L 318.0,168.8 L 317.5,170.2 L 316.6,171.1 L 315.5,171.8 L 314.4,172.2 L 312.1,173.3 L 309.6,173.8 L 307.4,175.8 L 304.9,176.9 L 303.7,177.6 L 302.4,178.2 L 301.0,179.5 L 301.0,180.3 L 301.8,180.8 L 301.9,181.1 L 301.6,181.5 L 302.1,182.0 L 302.1,183.0 L 303.5,183.7 L 303.3,184.0 L 303.5,184.7 L 303.8,185.1 L 303.8,185.8 L 302.9,186.9 L 301.0,188.2 L 300.3,188.6 L 299.1,188.7 L 295.9,189.7 L 293.1,190.8 L 291.8,191.0 L 291.7,190.5 L 291.3,190.1 L 288.1,191.0 L 286.5,191.0 L 285.4,190.7 L 282.1,189.1 L 280.7,188.9 L 280.0,188.2 L 280.1,187.5 L 280.0,187.2 L 278.1,186.2 L 276.1,185.9 L 275.0,186.0 L 272.2,187.3 L 271.3,188.1 L 269.2,191.0 L 268.9,192.5 L 269.0,192.9 L 270.0,193.2 L 270.1,194.6 L 268.4,199.0 L 266.2,200.9 L 264.9,200.9 L 262.7,200.9 L 261.2,201.1 L 255.1,202.7 L 252.3,203.9 L 251.6,204.7 L 250.2,207.0 L 250.7,207.9 L 250.5,209.4 L 250.0,209.8 L 249.4,210.3 L 249.7,211.0 L 249.6,213.0 L 249.8,213.7 L 250.1,214.2 L 250.4,216.2 L 250.1,216.8 L 250.8,218.1 L 250.9,219.4 L 250.6,220.2 L 250.7,221.1 L 250.5,222.2 L 249.3,223.2 L 247.8,224.4 L 245.0,225.7 L 242.2,227.4 L 241.7,228.4 L 241.2,230.1 L 239.8,231.5 L 238.4,231.7 L 237.3,233.1 L 237.2,233.5 L 237.4,233.9 L 238.0,234.5 L 238.4,235.5 L 239.3,236.6 L 240.7,237.0 L 241.7,237.8 L 242.7,238.3 L 244.2,238.2 L 246.4,237.5 L 247.4,237.6 L 248.4,238.4 L 248.6,238.8 L 248.9,239.4 L 248.7,244.2 L 248.5,246.3 L 248.2,246.7 L 248.0,247.4 L 247.8,249.2 L 247.7,250.2 L 246.2,251.9 L 243.6,255.8 L 242.1,257.5 L 241.9,258.4 L 242.3,260.2 L 242.1,260.9 L 240.8,262.1 L 239.1,263.3 L 237.6,264.2 L 233.9,264.4 L 228.2,265.8 L 227.0,265.3 L 226.1,264.3 L 225.8,263.6 L 225.0,262.9 L 223.4,262.2 L 223.0,261.8 L 222.9,261.5 L 222.9,261.5 L 222.0,261.2 L 220.9,261.7 L 220.1,261.7 L 219.4,260.9 L 218.0,260.9 L 217.9,260.4 L 217.5,259.0 L 216.6,258.4 L 216.1,257.7 L 216.3,256.4 L 216.8,255.5 L 218.4,253.9 L 218.9,252.0 L 219.1,249.8 L 218.7,248.7 L 217.4,247.0 L 217.2,246.2 L 217.3,244.4 L 216.3,243.4 L 215.6,243.0 L 215.2,242.8 L 214.4,243.0 L 213.6,243.3 L 212.6,243.6 L 212.2,243.9 L 210.7,243.8 L 210.9,244.5 L 211.3,244.7 L 211.3,245.2 L 210.7,245.6 L 210.1,246.0 L 208.9,246.5 L 208.1,247.1 L 207.6,248.0 L 207.1,250.1 L 207.3,250.5 L 207.3,251.1 L 206.6,251.8 L 205.1,252.3 L 203.9,253.2 L 202.9,255.0 L 202.8,255.7 L 203.0,257.5 L 203.5,258.2 L 203.2,258.9 L 202.7,259.2 L 202.1,260.0 L 201.6,259.6 L 200.7,259.4 L 199.1,260.6 L 198.4,260.6 L 194.5,259.5 L 193.5,258.7 L 192.3,257.5 L 191.6,257.0 L 190.7,255.9 L 188.4,255.5 L 187.4,255.2 L 186.1,255.0 L 183.9,254.3 L 183.5,254.3 L 182.8,254.7 L 181.9,254.9 L 180.9,255.7 L 178.1,255.7 L 176.9,255.3 L 175.8,254.8 L 172.8,254.2 L 172.7,253.8 L 172.8,252.1 L 171.3,251.4 L 170.0,250.0 L 169.1,249.5 L 166.8,249.2 L 163.1,250.0 L 161.3,250.7 L 160.4,252.1 L 158.8,253.0 L 157.6,253.4 L 156.5,254.3 L 154.3,255.7 L 152.5,256.2 L 151.5,257.4 L 151.7,258.6 L 150.9,259.1 L 150.7,259.9 L 150.9,260.5 L 150.9,261.4 L 151.2,263.0 L 150.9,264.5 L 150.1,265.5 L 147.2,267.6 L 145.8,267.9 L 145.4,268.1 L 143.4,268.4 L 142.5,268.6 L 141.1,268.9 L 139.9,269.6 L 137.9,270.2 L 135.9,271.5 L 135.3,272.0 L 134.6,273.3 L 133.8,273.7 L 133.3,274.1 L 134.1,274.9 L 133.8,276.2 L 133.6,276.5 L 131.5,278.0 L 130.7,278.0 L 130.0,277.7 L 129.8,277.3 L 128.6,277.7 L 128.4,277.5 L 128.5,276.5 L 127.7,275.6 L 127.0,275.3 L 127.0,275.0 L 128.6,274.3 L 129.2,274.0 L 130.9,274.1 L 131.4,273.6 L 132.1,270.9 L 133.3,269.7 L 133.7,266.8 L 133.3,266.0 L 131.4,265.3 L 130.6,265.2 L 125.8,266.3 L 124.6,266.8 L 123.0,268.2 L 121.8,268.4 L 120.2,268.4 L 119.7,268.0 L 119.8,266.3 L 121.5,263.1 L 121.6,262.5 L 122.2,261.5 L 122.6,260.7 L 123.0,260.3 L 123.8,260.2 L 125.6,260.3 L 127.7,259.8 L 129.9,258.3 L 132.3,257.2 L 133.5,256.4 L 135.4,254.8 L 136.5,253.7 L 137.1,253.5 L 139.0,252.4 L 139.7,251.6 L 140.2,251.1 L 140.9,250.8 L 142.4,248.7 L 143.6,246.6 L 144.4,244.6 L 144.7,242.5 L 144.8,241.6 L 144.3,240.5 L 143.5,239.2 L 143.1,238.5 L 142.9,237.5 L 143.1,236.2 L 144.3,234.9 L 144.7,233.7 L 144.8,231.3 L 145.7,229.6 L 145.9,228.4 L 145.8,227.3 L 146.0,227.0 L 144.9,226.3 L 144.8,225.5 L 144.9,224.9 L 146.0,222.8 L 146.9,222.1 L 147.4,221.6 L 147.9,220.9 L 148.3,220.8 L 148.3,220.2 L 147.5,219.6 L 147.1,219.5 L 145.2,218.8 L 142.7,218.1 L 141.6,218.1 L 139.5,218.5 L 138.2,219.9 L 137.7,221.9 L 137.2,223.2 L 136.6,224.1 L 136.2,225.3 L 134.0,226.9 L 132.9,228.3 L 129.1,231.7 L 128.4,233.0 L 127.9,233.3 L 127.5,232.9" fill="none" stroke="black" stroke-width="2"/>
</svg>