<?xml version="1.0" encoding="UTF-8"?>
<svg width="400" height="400" viewBox="0 0 400 400" xmlns="http://www.w3.org/2000/svg">
  <rect width="400" height="400" fill="white"/>
  <path d="M 98.5,221.7 L 94.6,219.7 L 93.0,217.8 L 93.8,203.8 L 97.3,202.2 L 100.9,202.0 L 102.9,199.2 L 105.3,195.9 L 112.3,189.1 L 113.2,186.9 L 116.4,187.1 L 116.0,184.0 L 112.2,182.4 L 110.1,180.6 L 109.0,177.9 L 105.0,176.8 L 103.4,175.8 L 100.0,175.6 L 97.4,186.5 L 94.2,188.5 L 91.8,191.4 L 90.7,195.7 L 87.2,195.9 L 86.0,195.4 L 84.2,195.3 L 82.4,193.5 L 81.2,193.4 L 80.2,195.1 L 72.0,199.9 L 66.8,200.9 L 54.4,200.6 L 48.6,195.4 L 47.4,192.7 L 47.9,183.5 L 45.5,179.4 L 44.4,176.3 L 45.6,171.5 L 48.5,168.9 L 51.5,168.4 L 56.1,164.2 L 55.9,161.5 L 54.5,160.5 L 52.4,160.5 L 48.2,163.8 L 45.2,164.1 L 42.2,160.2 L 42.1,150.7 L 40.0,148.4 L 40.6,146.2 L 47.6,144.4 L 51.5,144.7 L 57.6,146.7 L 58.9,147.7 L 59.3,149.9 L 67.9,149.5 L 70.2,149.7 L 74.1,151.3 L 77.6,151.8 L 79.1,154.6 L 82.6,151.4 L 86.9,150.2 L 88.6,150.7 L 92.2,148.8 L 93.5,147.5 L 93.7,145.4 L 89.7,144.7 L 89.0,143.7 L 87.2,137.5 L 88.6,128.9 L 90.0,127.6 L 91.8,126.3 L 91.9,123.7 L 94.0,120.7 L 94.9,118.2 L 99.7,112.3 L 101.2,109.8 L 104.7,99.0 L 105.9,98.0 L 112.1,93.2 L 112.4,89.7 L 110.8,86.5 L 108.4,83.8 L 105.3,83.2 L 102.0,80.7 L 101.8,77.7 L 99.6,76.6 L 98.3,70.0 L 96.1,65.2 L 93.8,63.2 L 91.4,59.1 L 91.5,57.3 L 93.3,55.6 L 93.3,55.6 L 187.9,45.4 L 189.0,45.3 L 189.0,45.5 L 192.3,47.0 L 192.4,51.8 L 196.8,52.0 L 199.5,53.5 L 202.1,52.3 L 207.0,52.3 L 209.9,53.8 L 213.1,58.3 L 216.9,68.2 L 217.0,75.3 L 215.7,81.3 L 212.8,87.4 L 209.0,92.0 L 197.1,100.9 L 192.9,101.7 L 193.9,106.4 L 194.1,107.7 L 191.3,109.4 L 190.8,111.6 L 194.2,118.3 L 199.7,123.5 L 210.6,125.3 L 217.3,129.5 L 223.8,132.0 L 233.0,138.7 L 235.4,139.1 L 244.8,140.5 L 249.2,141.1 L 253.3,143.8 L 272.1,151.8 L 283.8,151.8 L 293.9,150.7 L 304.4,150.4 L 308.4,151.0 L 310.7,152.3 L 319.3,160.5 L 318.8,167.5 L 320.4,170.7 L 320.2,175.1 L 321.6,179.1 L 321.9,183.5 L 323.9,191.6 L 328.9,198.5 L 330.2,205.1 L 330.9,206.9 L 331.8,208.6 L 329.2,214.2 L 326.8,216.8 L 328.8,219.4 L 326.5,225.9 L 319.9,239.2 L 319.3,242.2 L 317.7,245.2 L 313.5,251.1 L 312.2,264.6 L 313.1,271.7 L 313.1,277.6 L 313.7,281.9 L 319.4,291.0 L 320.7,291.5 L 326.1,296.3 L 328.0,300.8 L 330.7,302.3 L 335.0,303.4 L 346.0,309.8 L 356.4,313.2 L 358.0,321.0 L 359.7,323.8 L 359.1,325.9 L 359.8,329.4 L 358.6,332.9 L 359.2,337.3 L 360.0,337.9 L 359.4,338.4 L 340.8,354.7 L 340.3,353.3 L 339.5,352.4 L 337.2,353.6 L 334.0,353.8 L 330.4,351.5 L 329.1,346.5 L 325.7,348.6 L 324.0,346.7 L 323.8,343.0 L 318.6,341.6 L 315.9,335.1 L 315.6,332.6 L 314.2,328.8 L 309.7,320.3 L 304.7,317.5 L 300.6,312.7 L 298.8,312.7 L 298.2,315.3 L 298.4,318.8 L 298.2,322.4 L 298.1,323.6 L 295.7,326.5 L 294.7,329.6 L 293.6,339.5 L 295.4,346.8 L 296.1,347.8 L 292.1,349.4 L 292.4,347.0 L 291.0,346.5 L 289.9,343.8 L 285.4,337.0 L 280.1,331.4 L 278.9,326.9 L 280.1,324.3 L 277.6,320.6 L 272.6,317.3 L 271.4,315.4 L 270.8,308.5 L 269.2,306.5 L 262.7,306.1 L 258.6,301.1 L 257.5,296.6 L 253.7,290.1 L 255.5,288.1 L 255.1,286.3 L 248.5,285.5 L 238.0,276.6 L 233.7,275.5 L 232.0,275.3 L 229.2,269.9 L 227.4,271.5 L 223.7,273.1 L 222.7,272.0 L 211.0,258.7 L 207.3,252.7 L 203.6,249.5 L 197.6,247.7 L 194.4,249.3 L 192.9,250.4 L 185.0,252.3 L 183.3,251.8 L 180.3,249.4 L 169.8,243.5 L 167.0,242.5 L 157.4,241.9 L 152.2,242.5 L 150.3,244.1 L 147.3,249.3 L 146.4,249.5 L 141.6,249.8 L 138.1,247.7 L 136.4,241.9 L 137.4,240.7 L 139.4,236.3 L 139.0,235.1 L 133.8,234.4 L 129.6,237.2 L 123.8,236.8 L 118.6,237.9 L 113.7,237.9 L 110.0,233.7 L 110.2,230.2 L 112.1,228.6 L 110.9,226.7 L 109.8,222.8 L 107.7,220.8 L 98.5,221.7" fill="none" stroke="black" stroke-width="2"/>
</svg>