<?xml version="1.0" encoding="UTF-8"?>
<svg width="400" height="400" viewBox="0 0 400 400" xmlns="http://www.w3.org/2000/svg">
  <rect width="400" height="400" fill="white"/>
  <path d="M 113.0,193.2 L 113.0,192.6 L 113.0,192.0 L 112.8,191.6 L 112.8,191.5 L 112.6,191.2 L 112.2,190.8 L 111.7,190.5 L 111.1,190.3 L 110.9,190.1 L 111.0,190.0 L 111.3,189.8 L 111.9,189.8 L 113.1,189.8 L 114.2,189.6 L 114.7,189.4 L 114.7,189.1 L 114.3,188.6 L 113.8,188.3 L 113.3,188.2 L 112.1,188.0 L 111.7,187.8 L 111.7,187.6 L 111.9,187.4 L 111.9,187.1 L 111.6,186.7 L 110.7,186.4 L 110.2,186.2 L 109.9,185.6 L 109.7,185.1 L 109.4,184.8 L 109.3,184.7 L 109.8,184.2 L 109.7,183.4 L 109.5,182.8 L 109.2,182.6 L 108.9,182.5 L 108.3,182.4 L 107.7,182.4 L 107.2,182.5 L 106.3,182.4 L 105.8,182.4 L 105.2,182.5 L 104.6,182.5 L 104.1,182.3 L 102.8,182.4 L 102.2,182.2 L 102.0,182.3 L 102.0,182.4 L 101.6,182.6 L 101.0,182.8 L 100.4,182.9 L 99.8,182.8 L 99.3,182.9 L 97.6,182.7 L 97.0,182.8 L 95.8,183.3 L 95.3,183.6 L 94.3,184.3 L 93.6,184.2 L 93.5,184.1 L 93.6,183.6 L 93.8,182.3 L 93.9,181.8 L 94.0,181.2 L 93.8,180.9 L 93.6,180.8 L 93.0,180.5 L 92.2,179.7 L 92.1,179.5 L 91.6,179.0 L 91.8,178.8 L 91.8,178.6 L 92.1,178.4 L 92.7,178.3 L 93.8,178.3 L 94.4,178.4 L 95.5,178.7 L 96.1,178.6 L 96.6,178.5 L 97.1,178.2 L 97.7,178.1 L 98.8,177.7 L 99.4,177.6 L 99.6,177.4 L 99.7,177.4 L 100.4,177.6 L 101.0,177.7 L 101.6,177.6 L 101.7,177.5 L 102.2,177.5 L 102.8,177.7 L 103.5,177.7 L 104.6,177.6 L 105.2,177.6 L 106.3,177.8 L 106.6,177.7 L 106.7,177.0 L 106.4,176.7 L 105.8,176.5 L 105.9,176.0 L 105.8,175.5 L 105.6,175.1 L 105.5,174.9 L 105.6,174.8 L 105.9,174.2 L 106.7,173.6 L 107.5,173.4 L 108.0,173.6 L 108.4,174.2 L 108.6,174.7 L 109.0,175.1 L 110.1,175.5 L 110.8,175.4 L 111.1,175.1 L 111.8,175.6 L 112.4,175.5 L 113.4,174.6 L 113.9,173.0 L 113.9,172.4 L 114.2,171.6 L 114.1,171.1 L 112.3,170.2 L 111.0,169.9 L 110.2,169.4 L 109.7,168.5 L 108.1,167.4 L 107.1,166.0 L 107.0,165.2 L 105.6,165.2 L 104.0,164.7 L 103.1,164.1 L 102.9,163.6 L 103.0,162.6 L 103.2,162.0 L 102.5,160.8 L 101.9,158.7 L 101.2,157.9 L 99.6,156.8 L 99.3,155.9 L 99.2,155.3 L 98.1,154.2 L 97.9,153.6 L 98.0,152.0 L 98.6,151.5 L 98.6,150.9 L 97.8,149.7 L 97.1,149.3 L 95.2,149.1 L 94.7,149.7 L 92.1,149.5 L 90.8,149.0 L 87.1,148.6 L 86.6,148.5 L 84.7,147.9 L 83.4,147.2 L 82.4,146.4 L 82.4,146.1 L 82.6,145.1 L 82.7,144.8 L 82.9,144.8 L 83.0,144.7 L 84.0,145.1 L 92.8,145.5 L 93.8,145.4 L 93.9,144.9 L 93.3,144.0 L 92.8,143.3 L 92.0,141.5 L 91.0,140.2 L 90.5,139.9 L 89.6,138.8 L 88.5,136.4 L 88.5,135.4 L 87.7,133.8 L 87.9,131.8 L 87.7,131.6 L 86.6,130.3 L 85.8,129.5 L 84.3,128.6 L 82.9,127.4 L 82.3,126.7 L 82.0,125.7 L 82.1,123.4 L 82.5,122.7 L 82.7,121.5 L 82.3,120.8 L 81.0,119.5 L 79.5,119.2 L 76.8,119.3 L 76.3,119.4 L 74.4,119.3 L 73.3,118.5 L 72.9,117.9 L 72.8,117.1 L 72.9,115.8 L 73.5,115.5 L 74.1,115.4 L 74.1,114.9 L 73.5,114.1 L 73.3,113.7 L 73.5,113.0 L 74.4,112.1 L 75.2,112.0 L 75.8,112.4 L 76.4,113.2 L 76.6,113.4 L 77.4,113.4 L 77.7,113.1 L 77.7,112.3 L 77.3,111.7 L 76.5,111.4 L 76.1,110.1 L 75.3,109.2 L 73.3,108.0 L 72.1,107.6 L 71.4,106.9 L 70.5,106.4 L 69.5,105.7 L 68.2,105.5 L 67.6,105.0 L 67.1,104.1 L 65.9,103.9 L 65.2,103.3 L 63.8,102.8 L 62.4,102.1 L 61.5,101.3 L 61.4,100.8 L 61.4,100.3 L 61.1,99.5 L 61.2,99.0 L 61.8,98.2 L 63.9,97.8 L 64.0,97.2 L 63.7,96.7 L 63.0,96.6 L 62.3,97.0 L 61.8,97.1 L 61.7,96.6 L 61.2,96.2 L 60.6,96.0 L 60.6,95.3 L 60.3,94.8 L 59.5,94.3 L 55.7,94.0 L 54.5,94.4 L 53.5,94.6 L 53.0,94.7 L 52.5,94.7 L 50.9,94.7 L 49.8,94.0 L 49.2,94.1 L 48.8,94.4 L 47.5,94.3 L 46.7,94.3 L 45.4,94.9 L 44.3,95.0 L 43.7,94.6 L 42.8,93.5 L 41.7,92.9 L 41.4,92.3 L 40.9,91.0 L 40.0,90.1 L 40.1,87.9 L 40.3,87.0 L 40.6,85.7 L 41.0,85.0 L 41.6,84.8 L 42.9,84.8 L 44.1,84.7 L 44.9,85.0 L 46.3,85.0 L 47.3,84.5 L 47.5,84.2 L 47.4,83.6 L 46.3,82.3 L 45.5,82.1 L 45.1,81.9 L 45.2,81.5 L 46.3,81.5 L 46.5,81.2 L 45.9,80.4 L 45.4,79.9 L 45.1,78.8 L 44.1,78.0 L 43.5,78.0 L 43.2,77.8 L 43.1,77.1 L 43.1,77.0 L 43.1,76.6 L 43.4,76.4 L 44.8,75.9 L 46.0,76.2 L 47.7,75.5 L 49.7,75.6 L 50.4,75.8 L 51.1,75.8 L 51.6,75.4 L 51.4,75.0 L 50.8,74.7 L 50.1,74.5 L 48.9,73.6 L 118.5,51.1 L 119.0,51.6 L 119.5,51.5 L 119.7,51.1 L 120.1,50.8 L 120.6,51.0 L 120.9,51.4 L 121.3,51.6 L 121.8,51.6 L 123.3,50.3 L 123.7,49.3 L 123.9,49.0 L 124.2,48.2 L 124.6,48.2 L 125.6,48.8 L 125.8,49.1 L 125.8,49.5 L 125.4,50.6 L 124.0,51.7 L 123.8,52.3 L 124.1,52.8 L 124.8,52.9 L 126.1,53.4 L 127.3,53.3 L 128.6,52.9 L 129.5,51.3 L 130.5,51.4 L 131.0,51.8 L 131.0,52.4 L 131.1,52.8 L 132.0,53.5 L 132.8,53.4 L 133.5,53.2 L 134.3,53.1 L 136.2,53.3 L 136.7,53.4 L 136.5,55.3 L 136.7,55.7 L 136.9,55.6 L 137.2,55.5 L 139.0,54.2 L 139.9,53.3 L 140.7,53.0 L 142.0,52.8 L 143.0,52.0 L 143.7,51.8 L 144.5,52.4 L 145.3,52.4 L 145.5,52.9 L 145.3,53.1 L 144.5,53.6 L 143.5,54.4 L 143.3,55.0 L 143.5,55.6 L 144.0,55.6 L 145.1,54.2 L 146.8,52.8 L 147.6,51.7 L 148.1,51.5 L 149.1,51.7 L 149.8,52.1 L 150.2,52.9 L 150.4,54.0 L 149.9,54.6 L 149.7,54.8 L 149.1,55.3 L 148.5,57.5 L 149.0,58.4 L 148.7,59.1 L 147.7,59.4 L 147.0,60.3 L 146.9,60.9 L 147.2,61.5 L 148.6,62.4 L 149.9,62.4 L 151.2,61.5 L 152.1,60.5 L 152.8,60.3 L 153.3,61.0 L 153.8,60.9 L 154.9,60.0 L 155.3,59.4 L 156.1,59.1 L 156.8,59.1 L 157.0,59.6 L 157.3,60.1 L 158.0,60.3 L 158.4,60.9 L 158.7,60.9 L 159.5,59.9 L 160.1,59.9 L 160.2,60.9 L 160.7,61.5 L 161.4,61.4 L 162.1,60.5 L 163.7,59.7 L 163.8,59.3 L 163.7,58.8 L 163.0,58.3 L 162.1,57.9 L 161.9,57.6 L 161.9,57.0 L 162.1,56.6 L 162.4,56.3 L 163.0,56.1 L 163.6,57.0 L 165.6,57.7 L 166.0,58.3 L 166.2,58.4 L 167.1,57.6 L 167.5,57.8 L 169.4,59.5 L 170.6,60.3 L 171.3,60.2 L 172.2,59.7 L 173.8,59.6 L 174.7,59.5 L 175.9,59.6 L 178.1,60.8 L 180.1,61.2 L 181.9,61.7 L 183.2,62.5 L 187.7,62.7 L 190.8,62.5 L 192.1,62.2 L 193.1,62.9 L 192.9,63.8 L 192.5,63.9 L 192.3,63.5 L 192.1,63.8 L 192.1,64.8 L 190.1,65.5 L 188.6,66.3 L 188.2,66.9 L 187.9,69.0 L 188.8,70.9 L 189.0,71.2 L 189.0,71.9 L 188.6,73.2 L 188.1,74.2 L 186.5,76.0 L 186.3,76.7 L 186.6,77.5 L 185.6,79.8 L 185.2,80.4 L 183.6,81.5 L 183.1,81.6 L 182.5,81.1 L 179.6,81.0 L 177.3,80.2 L 174.0,79.4 L 173.5,79.0 L 173.2,78.7 L 171.6,78.0 L 171.4,77.4 L 170.5,77.3 L 169.8,76.2 L 169.6,75.5 L 168.9,74.5 L 167.6,74.4 L 166.3,74.6 L 164.4,75.4 L 163.6,75.4 L 163.2,75.1 L 162.1,75.0 L 161.0,75.6 L 159.5,76.9 L 159.2,76.9 L 158.7,76.4 L 158.0,76.3 L 156.6,76.6 L 155.9,77.3 L 155.4,78.1 L 155.7,78.5 L 157.7,78.6 L 159.1,78.0 L 160.4,78.0 L 161.4,78.4 L 161.8,79.0 L 161.7,81.3 L 161.4,82.1 L 160.0,82.0 L 158.9,82.3 L 157.2,83.7 L 156.1,84.3 L 154.0,84.2 L 152.7,83.7 L 151.8,83.0 L 151.2,82.3 L 151.0,82.1 L 150.4,82.0 L 149.0,82.1 L 148.3,82.5 L 147.7,83.3 L 147.1,83.8 L 145.5,84.0 L 145.1,84.2 L 145.1,84.8 L 145.6,85.1 L 146.2,85.9 L 146.2,86.6 L 145.6,88.4 L 144.8,88.4 L 143.9,88.0 L 142.5,87.7 L 141.7,87.3 L 140.9,86.5 L 140.0,86.0 L 137.8,86.3 L 137.1,86.8 L 136.5,86.8 L 136.1,86.6 L 135.3,86.7 L 134.6,86.8 L 134.4,87.5 L 133.8,88.2 L 133.6,88.4 L 133.4,89.1 L 133.6,89.6 L 133.8,89.9 L 135.0,90.5 L 135.4,91.2 L 135.5,91.7 L 135.2,92.7 L 134.6,93.6 L 134.5,95.0 L 134.0,95.3 L 133.2,95.5 L 133.1,95.3 L 132.3,94.4 L 131.3,94.1 L 130.9,94.2 L 130.8,94.8 L 131.2,95.2 L 132.4,95.6 L 133.0,95.9 L 133.0,96.0 L 134.0,96.3 L 135.0,96.9 L 134.9,97.7 L 135.1,98.0 L 136.4,99.3 L 137.1,99.6 L 138.1,100.6 L 140.2,101.3 L 141.1,102.8 L 142.3,103.1 L 143.8,104.5 L 144.7,104.9 L 145.2,105.4 L 145.3,106.9 L 145.5,107.2 L 147.3,107.7 L 149.6,109.3 L 151.8,110.4 L 152.7,110.6 L 154.6,111.7 L 156.0,111.7 L 156.4,111.8 L 156.7,112.1 L 157.8,113.4 L 160.9,115.4 L 160.9,115.8 L 159.7,117.9 L 158.3,118.0 L 157.1,118.2 L 155.9,119.0 L 153.9,118.9 L 151.6,118.4 L 148.4,118.0 L 147.1,117.6 L 146.2,117.0 L 144.8,116.2 L 143.9,116.1 L 142.8,115.6 L 142.2,115.7 L 141.9,116.1 L 141.5,116.4 L 141.3,117.6 L 140.6,118.0 L 140.5,118.7 L 141.2,119.5 L 142.3,120.1 L 142.7,120.5 L 142.6,121.0 L 142.0,121.6 L 141.0,121.6 L 140.0,121.0 L 138.1,120.8 L 136.1,119.9 L 135.1,120.2 L 132.6,119.8 L 131.7,119.4 L 131.1,119.3 L 131.0,119.5 L 131.4,119.9 L 132.2,121.0 L 133.0,121.8 L 134.3,122.4 L 135.0,122.4 L 135.6,122.3 L 135.8,122.8 L 135.5,123.1 L 133.9,123.4 L 132.8,124.3 L 131.6,124.4 L 131.5,124.8 L 132.2,125.6 L 133.0,127.5 L 134.0,128.3 L 134.9,128.1 L 135.9,127.4 L 136.8,127.3 L 138.2,127.4 L 138.4,127.7 L 138.4,128.9 L 139.0,129.2 L 139.4,129.6 L 139.4,130.2 L 140.1,131.5 L 140.1,131.9 L 138.9,132.5 L 138.8,133.1 L 139.0,133.9 L 139.9,134.9 L 140.7,135.5 L 141.5,135.6 L 142.1,136.1 L 142.8,136.3 L 144.5,137.0 L 145.7,138.2 L 146.3,139.5 L 147.1,140.3 L 148.7,141.1 L 149.9,141.5 L 152.3,141.6 L 153.2,141.3 L 153.4,140.8 L 153.0,139.9 L 153.1,139.4 L 154.5,138.4 L 156.6,137.6 L 157.3,137.7 L 158.6,138.2 L 159.0,138.5 L 161.1,139.1 L 163.0,139.1 L 163.7,138.8 L 164.0,138.3 L 164.1,137.7 L 164.6,137.4 L 164.5,136.4 L 163.5,135.3 L 163.7,134.3 L 163.4,134.4 L 163.1,134.8 L 163.0,135.4 L 163.7,136.2 L 163.8,136.5 L 162.0,136.4 L 160.7,135.4 L 160.1,134.4 L 160.0,133.7 L 160.0,133.7 L 161.6,131.1 L 162.4,131.0 L 163.1,131.1 L 163.4,131.7 L 163.4,132.2 L 164.2,133.5 L 164.4,133.5 L 166.7,134.0 L 168.2,134.0 L 168.6,133.7 L 168.4,131.5 L 168.5,131.0 L 168.5,130.9 L 169.0,130.3 L 170.5,130.2 L 170.8,130.5 L 170.9,131.6 L 172.5,132.6 L 174.5,133.3 L 175.2,133.8 L 175.5,134.8 L 176.5,135.5 L 177.9,135.9 L 183.5,135.9 L 185.4,134.9 L 186.8,134.1 L 187.4,133.8 L 188.4,134.0 L 189.1,134.8 L 189.0,135.5 L 189.3,135.8 L 190.7,136.8 L 192.1,137.7 L 193.1,137.9 L 193.4,138.3 L 193.8,138.2 L 193.7,137.6 L 194.1,137.6 L 194.4,138.1 L 194.5,138.9 L 194.9,139.3 L 197.5,140.6 L 199.1,141.0 L 199.8,141.4 L 200.1,142.0 L 200.1,142.8 L 199.8,143.1 L 198.3,143.0 L 197.5,143.9 L 196.6,144.0 L 196.4,144.2 L 196.3,144.8 L 198.1,145.9 L 200.8,146.5 L 202.5,146.5 L 203.2,146.1 L 204.0,145.4 L 204.9,145.3 L 206.5,145.5 L 208.3,147.1 L 210.4,148.2 L 211.7,149.3 L 212.9,150.9 L 213.0,151.1 L 213.2,151.6 L 213.7,152.6 L 214.1,154.1 L 214.4,154.7 L 215.0,157.3 L 215.0,158.5 L 214.8,159.8 L 214.3,159.9 L 213.7,160.6 L 213.4,161.2 L 213.6,161.9 L 214.0,162.0 L 214.7,161.8 L 215.1,161.4 L 215.8,161.5 L 216.3,162.5 L 217.0,162.6 L 217.5,162.8 L 218.0,162.8 L 218.2,162.3 L 218.2,161.7 L 219.0,161.5 L 219.6,162.3 L 219.9,162.6 L 221.2,162.7 L 221.9,163.0 L 222.8,163.1 L 223.5,163.4 L 224.1,163.1 L 225.9,163.2 L 226.6,163.3 L 227.6,163.8 L 228.7,163.7 L 228.8,163.0 L 228.0,162.7 L 226.7,162.6 L 226.8,162.1 L 227.6,161.0 L 228.8,161.5 L 229.4,161.9 L 230.2,162.0 L 231.5,162.4 L 232.4,162.4 L 232.5,161.9 L 232.3,161.4 L 232.8,160.1 L 232.8,159.5 L 232.5,158.8 L 229.5,157.1 L 229.1,156.7 L 229.2,155.0 L 229.3,154.5 L 229.7,154.6 L 230.5,154.8 L 231.3,155.0 L 231.4,155.2 L 231.5,155.4 L 232.3,155.7 L 233.6,155.8 L 234.4,155.8 L 235.5,156.5 L 235.8,156.5 L 236.4,156.3 L 237.1,156.7 L 237.6,156.8 L 238.5,157.7 L 239.0,157.7 L 239.8,156.9 L 239.6,155.8 L 239.2,155.6 L 239.0,155.7 L 238.6,156.0 L 237.9,155.7 L 237.9,155.5 L 237.7,154.8 L 237.0,154.2 L 236.8,153.8 L 236.4,153.1 L 236.3,152.1 L 236.1,151.9 L 235.2,151.7 L 234.9,151.2 L 235.3,143.7 L 235.1,142.4 L 234.4,141.2 L 233.6,139.8 L 232.2,138.9 L 230.7,138.0 L 230.0,137.0 L 230.4,137.0 L 231.9,137.8 L 233.0,138.9 L 234.3,139.4 L 234.5,139.7 L 234.6,139.9 L 235.4,140.6 L 235.8,140.6 L 235.7,140.1 L 235.1,139.4 L 235.2,139.0 L 235.9,138.5 L 236.6,138.1 L 236.6,137.4 L 236.4,137.0 L 235.4,136.8 L 235.1,136.2 L 235.2,135.3 L 236.1,134.5 L 237.4,134.1 L 238.6,134.7 L 239.6,135.1 L 240.3,135.1 L 240.5,134.6 L 241.1,134.0 L 241.2,132.4 L 241.0,130.9 L 241.0,130.4 L 241.6,130.2 L 243.9,129.6 L 244.7,129.6 L 246.2,129.8 L 246.7,130.1 L 246.7,131.0 L 246.8,131.6 L 246.8,132.9 L 247.1,133.3 L 247.7,133.4 L 248.1,134.1 L 248.4,134.0 L 248.7,133.1 L 249.3,132.8 L 249.5,131.6 L 251.1,130.1 L 252.9,129.1 L 254.8,128.5 L 256.4,128.3 L 257.4,128.5 L 258.3,128.9 L 258.7,129.4 L 259.2,129.6 L 259.7,130.6 L 260.3,130.7 L 260.6,131.0 L 260.9,131.5 L 261.7,131.7 L 262.8,132.7 L 262.8,133.9 L 263.6,135.1 L 263.8,135.8 L 263.9,138.1 L 264.3,139.7 L 263.2,140.8 L 263.1,141.4 L 263.4,142.3 L 263.9,143.0 L 264.4,142.9 L 264.8,142.3 L 265.7,142.3 L 268.2,140.8 L 269.1,139.9 L 269.4,138.9 L 270.0,138.1 L 270.3,137.1 L 270.7,136.1 L 271.4,135.2 L 271.8,134.0 L 271.8,132.6 L 271.5,131.8 L 272.7,131.8 L 273.7,131.1 L 273.9,130.6 L 274.5,130.2 L 275.0,130.3 L 275.5,131.0 L 276.2,130.9 L 277.2,130.9 L 278.4,130.4 L 279.1,130.7 L 279.3,130.7 L 279.2,129.5 L 281.3,129.6 L 281.3,130.1 L 280.8,130.8 L 280.7,131.3 L 281.5,131.5 L 281.6,131.9 L 281.1,132.4 L 280.9,135.3 L 281.2,137.0 L 282.4,138.8 L 283.3,141.0 L 283.8,141.6 L 284.2,141.9 L 284.6,142.4 L 284.9,143.2 L 285.8,144.0 L 286.6,145.8 L 288.3,147.1 L 289.4,147.6 L 289.8,148.4 L 290.0,149.4 L 290.3,150.2 L 290.9,150.6 L 291.2,150.5 L 291.6,149.5 L 292.0,149.0 L 292.8,148.6 L 293.3,148.2 L 294.3,148.4 L 296.0,149.4 L 296.3,149.4 L 296.6,148.7 L 296.7,148.7 L 297.0,149.0 L 297.7,149.2 L 297.8,149.4 L 296.8,150.0 L 295.9,150.0 L 295.2,149.6 L 294.2,149.2 L 293.5,149.3 L 293.4,149.9 L 293.0,150.8 L 291.7,151.2 L 291.2,151.6 L 291.1,152.8 L 291.4,154.1 L 290.7,154.5 L 289.4,154.5 L 288.7,155.0 L 287.8,155.0 L 285.8,152.6 L 284.1,150.7 L 282.2,148.8 L 281.3,148.3 L 278.0,148.2 L 277.2,148.8 L 276.8,148.8 L 275.8,147.5 L 275.3,147.2 L 275.1,147.1 L 274.6,146.9 L 273.3,146.7 L 272.8,146.9 L 271.8,148.3 L 271.6,149.1 L 271.2,149.6 L 270.5,149.9 L 270.2,150.3 L 270.5,150.9 L 270.1,151.5 L 270.0,152.1 L 270.2,152.7 L 270.6,154.0 L 271.1,154.7 L 271.7,154.8 L 272.0,155.0 L 271.8,155.5 L 271.8,156.0 L 272.2,156.2 L 272.7,156.4 L 272.7,157.2 L 272.7,157.6 L 272.8,158.1 L 273.3,159.1 L 274.5,160.1 L 274.8,160.4 L 275.0,161.1 L 275.9,162.6 L 276.1,163.7 L 275.5,164.1 L 275.5,164.8 L 276.3,165.7 L 277.0,165.9 L 277.1,166.4 L 277.6,167.1 L 277.7,168.1 L 278.6,168.1 L 279.1,169.4 L 280.7,170.3 L 280.9,170.7 L 281.6,171.4 L 282.4,171.9 L 284.2,173.2 L 284.3,174.5 L 285.5,177.4 L 285.8,178.5 L 287.5,182.1 L 289.2,184.2 L 289.6,185.1 L 289.5,187.2 L 288.9,188.1 L 288.7,188.2 L 288.2,188.2 L 287.0,187.4 L 286.6,187.3 L 285.8,186.7 L 285.2,186.8 L 285.1,187.4 L 285.5,188.2 L 285.4,190.2 L 285.7,191.1 L 286.2,191.7 L 286.3,192.2 L 286.6,192.6 L 287.8,193.2 L 288.5,193.9 L 289.0,194.6 L 288.7,195.2 L 289.2,195.8 L 289.1,197.1 L 288.6,198.8 L 287.6,199.7 L 287.4,200.4 L 286.9,200.7 L 286.4,201.4 L 286.3,201.9 L 286.6,203.6 L 288.6,207.7 L 289.9,209.9 L 290.7,212.3 L 291.4,214.0 L 292.5,216.0 L 294.3,218.5 L 294.8,219.6 L 295.5,220.9 L 296.2,222.8 L 297.5,224.0 L 298.2,225.2 L 298.8,225.7 L 299.1,226.2 L 300.8,227.5 L 301.3,227.5 L 301.7,226.9 L 302.0,226.8 L 304.6,229.0 L 305.8,229.8 L 307.3,231.0 L 307.9,231.4 L 308.6,232.2 L 310.3,233.5 L 311.1,233.5 L 311.5,233.1 L 312.1,232.6 L 312.7,232.8 L 315.0,235.2 L 316.1,235.5 L 317.5,236.4 L 318.2,236.7 L 318.7,237.0 L 319.7,237.0 L 320.8,237.3 L 320.6,237.8 L 320.6,238.2 L 321.2,238.6 L 321.1,239.4 L 320.4,240.0 L 319.9,240.6 L 319.7,242.5 L 320.0,244.7 L 320.3,245.2 L 320.4,245.9 L 321.0,246.6 L 322.3,246.9 L 322.6,247.2 L 322.7,247.7 L 322.0,249.7 L 322.0,251.4 L 322.3,252.9 L 322.6,253.7 L 323.4,254.3 L 323.5,254.9 L 323.7,255.2 L 323.6,256.6 L 323.9,257.2 L 323.8,258.0 L 324.2,258.9 L 325.4,259.7 L 326.3,259.6 L 327.1,259.3 L 328.7,259.4 L 330.4,258.6 L 331.5,259.3 L 331.8,259.9 L 331.6,260.9 L 331.2,262.0 L 330.7,263.1 L 330.5,263.8 L 330.7,265.1 L 331.3,265.9 L 332.0,266.2 L 332.0,266.4 L 332.9,266.8 L 333.3,267.6 L 333.2,269.3 L 334.1,268.9 L 335.4,268.8 L 335.6,268.6 L 335.8,268.3 L 336.3,268.2 L 336.6,267.5 L 337.6,266.5 L 338.4,264.5 L 339.1,263.6 L 340.3,263.7 L 341.6,264.0 L 343.0,264.5 L 343.9,265.0 L 344.4,264.9 L 344.5,267.2 L 345.2,268.1 L 345.4,268.9 L 344.4,269.9 L 344.6,270.6 L 345.6,270.8 L 346.0,271.2 L 346.1,272.1 L 346.5,272.8 L 346.5,274.9 L 346.8,276.6 L 346.1,279.0 L 346.0,280.2 L 346.5,280.9 L 347.5,281.0 L 347.9,281.4 L 348.0,282.2 L 348.4,282.6 L 348.9,282.9 L 349.0,283.5 L 348.8,284.5 L 349.4,285.2 L 349.5,285.7 L 349.6,285.9 L 350.0,286.5 L 350.5,287.1 L 351.3,288.7 L 351.8,290.0 L 352.4,290.6 L 352.5,292.4 L 352.7,293.3 L 353.4,293.6 L 354.0,293.3 L 355.0,293.4 L 355.0,294.5 L 355.3,294.8 L 355.2,296.1 L 355.7,296.7 L 355.7,298.6 L 356.0,299.0 L 356.3,299.1 L 357.0,298.7 L 358.0,299.3 L 358.3,299.2 L 359.1,298.7 L 359.8,298.7 L 360.0,298.9 L 359.9,298.9 L 358.4,300.4 L 358.4,300.4 L 358.0,300.2 L 357.8,300.6 L 357.9,300.9 L 307.3,351.8 L 307.8,348.9 L 308.1,344.1 L 308.0,343.3 L 307.6,342.3 L 307.6,341.1 L 307.0,338.7 L 307.0,337.9 L 306.2,337.0 L 305.7,335.7 L 305.5,335.3 L 305.3,334.4 L 304.9,333.4 L 304.9,331.0 L 304.8,329.5 L 303.9,327.8 L 303.3,326.0 L 302.5,324.6 L 302.0,324.1 L 301.3,322.4 L 300.8,320.7 L 300.2,318.1 L 299.6,317.4 L 298.6,317.1 L 297.4,316.1 L 296.9,314.9 L 296.6,314.7 L 296.1,314.9 L 294.8,315.8 L 293.1,315.7 L 291.7,314.9 L 291.4,314.6 L 291.5,314.3 L 291.9,313.9 L 291.8,313.5 L 291.2,312.9 L 290.8,312.7 L 290.6,313.1 L 290.9,313.6 L 290.9,314.0 L 290.3,314.1 L 287.2,311.8 L 286.2,310.4 L 285.1,309.8 L 284.9,309.6 L 285.1,308.9 L 285.1,308.7 L 285.0,308.3 L 285.1,306.4 L 285.5,305.9 L 286.4,305.8 L 286.9,304.1 L 287.8,302.5 L 288.3,302.4 L 288.0,301.4 L 287.3,300.6 L 285.8,298.6 L 283.7,297.4 L 282.2,295.8 L 281.6,295.1 L 281.0,293.9 L 279.3,292.2 L 278.8,292.0 L 278.1,292.5 L 277.6,292.5 L 277.3,292.1 L 276.6,291.6 L 276.3,292.0 L 275.9,292.1 L 275.2,291.6 L 274.6,291.3 L 273.9,291.5 L 273.5,291.9 L 273.0,292.2 L 272.3,292.2 L 272.1,292.0 L 271.4,291.9 L 270.6,292.3 L 269.3,292.4 L 268.4,292.0 L 268.1,291.6 L 268.0,290.5 L 268.0,288.3 L 267.6,287.6 L 267.4,286.5 L 267.9,285.9 L 268.1,285.5 L 268.0,285.0 L 267.2,284.5 L 267.1,283.6 L 267.0,283.1 L 266.4,282.0 L 265.4,281.1 L 264.8,280.8 L 263.9,280.3 L 262.8,280.4 L 262.4,280.6 L 261.1,281.3 L 260.6,281.4 L 260.6,280.5 L 260.7,280.0 L 260.5,279.1 L 260.3,277.6 L 260.8,275.9 L 261.5,274.8 L 262.4,274.1 L 263.4,273.7 L 264.2,273.5 L 264.9,273.5 L 265.6,272.9 L 265.7,271.9 L 264.7,270.7 L 264.8,270.4 L 265.8,270.0 L 266.0,269.6 L 266.3,269.4 L 266.7,269.4 L 267.1,269.1 L 267.6,269.1 L 267.8,268.3 L 268.0,268.1 L 268.0,267.4 L 268.3,267.1 L 268.3,265.9 L 267.5,264.2 L 267.8,263.5 L 267.8,262.2 L 267.5,261.1 L 267.1,260.5 L 266.2,260.5 L 265.4,259.6 L 264.8,259.4 L 264.2,259.1 L 263.9,258.6 L 263.6,258.5 L 263.3,258.0 L 263.3,257.4 L 263.1,257.0 L 263.4,256.0 L 262.7,255.1 L 262.2,254.9 L 261.5,255.4 L 260.9,255.4 L 260.1,255.0 L 258.8,254.8 L 257.9,255.6 L 257.0,255.6 L 255.7,254.9 L 255.1,254.2 L 254.3,251.9 L 254.4,250.1 L 255.3,248.9 L 255.6,247.6 L 255.3,246.8 L 254.8,246.6 L 253.3,245.1 L 252.5,244.5 L 251.8,243.7 L 251.8,243.2 L 250.5,242.3 L 248.1,240.3 L 247.7,239.7 L 245.9,239.1 L 244.9,238.5 L 243.6,238.3 L 242.7,237.7 L 241.5,236.5 L 239.6,235.1 L 237.8,234.0 L 237.6,233.9 L 235.1,232.6 L 234.3,232.4 L 229.6,230.6 L 229.2,230.4 L 227.8,229.7 L 220.8,227.9 L 220.0,227.4 L 216.5,226.1 L 214.4,225.1 L 213.1,224.8 L 210.9,223.5 L 210.1,223.0 L 210.0,222.7 L 210.1,221.6 L 210.7,221.1 L 210.5,220.6 L 209.7,219.9 L 209.6,219.5 L 209.0,219.2 L 208.8,219.0 L 208.8,219.1 L 208.0,218.5 L 207.0,218.4 L 206.8,218.0 L 206.7,217.4 L 206.1,217.2 L 205.5,217.8 L 205.2,218.2 L 205.4,218.8 L 206.0,218.8 L 206.3,218.9 L 206.8,219.3 L 206.6,219.9 L 206.9,220.4 L 208.1,220.6 L 208.4,220.8 L 208.3,221.8 L 207.7,222.4 L 206.4,222.4 L 205.8,222.2 L 204.6,221.8 L 202.3,221.5 L 199.4,220.5 L 195.2,220.2 L 194.2,219.7 L 192.7,219.3 L 191.1,218.8 L 190.0,218.7 L 189.0,218.9 L 187.7,218.8 L 187.0,218.4 L 186.4,218.3 L 185.6,218.9 L 185.5,220.5 L 185.2,221.3 L 185.2,221.2 L 184.0,221.8 L 183.4,222.2 L 183.3,222.3 L 183.3,222.4 L 183.2,222.5 L 182.3,222.5 L 181.7,222.3 L 181.6,222.4 L 181.4,222.0 L 180.9,222.1 L 180.5,222.3 L 180.5,222.4 L 179.2,222.2 L 178.4,222.2 L 178.3,222.1 L 177.3,221.6 L 176.2,221.0 L 175.1,220.6 L 173.6,219.9 L 172.8,219.3 L 171.6,218.9 L 164.9,215.7 L 162.4,214.3 L 161.9,214.3 L 157.7,212.6 L 155.6,212.3 L 152.2,210.8 L 148.3,209.6 L 147.2,209.0 L 145.7,208.6 L 141.1,206.7 L 140.1,206.2 L 139.6,205.9 L 139.0,205.6 L 138.4,205.4 L 137.8,205.2 L 137.4,205.0 L 136.9,204.9 L 136.3,204.7 L 135.7,204.6 L 135.1,204.5 L 134.6,204.6 L 133.3,204.6 L 131.2,204.3 L 130.5,204.2 L 130.0,204.0 L 129.4,203.8 L 128.4,203.8 L 127.4,203.9 L 126.8,204.1 L 126.2,204.1 L 124.2,203.9 L 123.2,203.9 L 122.6,203.8 L 121.5,203.7 L 120.5,203.7 L 120.1,203.7 L 117.3,203.6 L 116.8,203.7 L 116.4,203.7 L 115.9,203.6 L 114.9,203.8 L 114.3,203.7 L 113.3,203.6 L 112.7,203.4 L 111.6,203.1 L 111.0,202.9 L 110.5,202.7 L 109.9,202.5 L 109.0,202.5 L 108.5,202.5 L 107.9,202.2 L 107.3,201.9 L 106.8,201.7 L 106.0,201.8 L 105.7,201.7 L 105.7,201.5 L 106.0,201.3 L 106.7,201.2 L 107.2,201.3 L 109.6,201.4 L 110.7,201.6 L 111.2,201.7 L 111.6,201.9 L 112.1,202.1 L 112.6,202.4 L 113.0,202.7 L 113.5,203.1 L 113.7,203.0 L 113.9,202.6 L 114.2,202.4 L 114.7,202.3 L 115.5,202.3 L 116.7,202.5 L 117.2,202.5 L 117.8,202.3 L 118.7,202.0 L 120.0,201.8 L 121.7,201.6 L 122.2,201.4 L 123.2,200.8 L 123.5,200.4 L 123.8,200.2 L 124.3,200.1 L 124.9,199.7 L 124.5,199.6 L 124.5,199.3 L 124.6,198.8 L 124.6,198.5 L 124.2,198.4 L 123.1,198.8 L 122.5,198.7 L 122.0,198.3 L 121.9,198.0 L 121.6,197.8 L 121.5,197.6 L 121.1,197.2 L 120.6,197.0 L 120.0,196.7 L 119.5,196.5 L 117.9,196.0 L 117.3,195.7 L 116.9,195.5 L 116.3,195.4 L 115.7,195.4 L 115.2,195.1 L 114.5,195.0 L 114.0,194.7 L 113.5,194.3 L 113.1,194.0 L 112.9,193.7 L 113.0,193.2 L 113.0,193.2" fill="none" stroke="black" stroke-width="2"/>
</svg>