<?xml version="1.0" encoding="UTF-8"?>
<svg width="400" height="400" viewBox="0 0 400 400" xmlns="http://www.w3.org/2000/svg">
  <rect width="400" height="400" fill="white"/>
  <path d="M 135.7,259.1 L 135.8,258.4 L 137.4,255.6 L 138.0,254.1 L 138.5,251.7 L 138.3,250.7 L 138.5,249.9 L 138.9,249.4 L 139.1,248.0 L 139.7,247.8 L 140.4,247.8 L 141.3,248.9 L 141.6,248.9 L 141.9,248.3 L 142.3,246.5 L 142.6,245.7 L 142.6,245.0 L 143.4,244.8 L 143.7,243.5 L 143.7,242.6 L 143.1,242.1 L 143.2,241.1 L 143.6,240.6 L 143.8,239.4 L 143.7,238.0 L 143.9,236.3 L 144.2,235.2 L 144.7,233.6 L 144.8,232.5 L 145.2,232.1 L 145.8,230.1 L 146.3,229.6 L 147.2,228.8 L 147.9,228.4 L 148.2,228.8 L 148.5,228.6 L 148.7,228.2 L 148.6,227.9 L 148.2,227.7 L 148.3,225.9 L 148.4,225.3 L 190.9,182.6 L 190.9,182.6 L 191.3,182.6 L 191.3,182.2 L 192.6,180.9 L 192.6,180.8 L 193.0,181.2 L 193.8,181.2 L 195.0,180.0 L 195.3,179.8 L 196.0,178.6 L 196.1,177.7 L 197.4,177.0 L 198.1,175.8 L 198.5,174.4 L 198.8,173.1 L 200.1,171.9 L 201.0,171.7 L 201.7,170.9 L 202.0,170.4 L 202.4,169.6 L 202.2,169.2 L 202.8,168.1 L 203.1,166.9 L 203.0,166.1 L 202.7,165.5 L 202.5,164.7 L 202.5,163.9 L 202.4,163.3 L 202.5,163.0 L 202.8,162.8 L 202.7,162.4 L 202.4,162.0 L 202.5,161.5 L 203.1,160.8 L 202.8,159.3 L 203.1,158.8 L 203.0,158.0 L 202.4,155.9 L 202.6,155.6 L 203.5,155.3 L 204.6,155.5 L 205.7,156.2 L 205.7,156.6 L 206.2,157.0 L 206.7,157.0 L 207.1,156.4 L 207.3,156.4 L 207.8,155.6 L 208.0,154.2 L 208.5,153.7 L 208.7,153.6 L 208.9,152.7 L 208.9,151.8 L 208.9,151.6 L 209.2,151.4 L 210.4,151.2 L 210.8,151.4 L 210.9,151.7 L 211.3,152.3 L 211.9,152.8 L 212.5,152.7 L 212.7,152.1 L 212.9,151.2 L 213.3,151.1 L 213.6,150.3 L 213.5,149.6 L 213.1,149.0 L 213.5,147.6 L 213.3,147.2 L 213.4,146.9 L 213.6,146.6 L 213.8,145.7 L 213.2,144.7 L 213.1,143.8 L 213.3,143.0 L 213.0,141.6 L 213.0,140.9 L 212.6,140.6 L 212.8,139.3 L 212.7,137.2 L 211.5,135.7 L 211.4,135.1 L 211.4,132.6 L 211.5,132.0 L 212.5,130.6 L 212.3,130.0 L 213.0,129.2 L 213.1,128.5 L 212.7,126.9 L 212.5,125.1 L 212.6,124.6 L 212.6,122.4 L 212.4,121.9 L 212.5,121.5 L 212.7,121.5 L 215.7,123.0 L 216.7,123.2 L 217.2,123.9 L 217.6,123.8 L 217.8,121.8 L 218.3,121.3 L 219.6,120.5 L 221.5,120.1 L 222.3,120.2 L 222.9,120.5 L 223.1,120.9 L 223.5,121.1 L 223.5,122.2 L 223.9,122.7 L 224.2,123.3 L 224.8,123.7 L 226.0,124.4 L 226.9,124.6 L 227.0,125.0 L 227.3,125.3 L 227.8,125.2 L 228.3,124.9 L 229.1,124.2 L 229.3,123.3 L 229.5,122.9 L 229.8,122.2 L 230.1,121.0 L 230.3,120.7 L 230.1,119.1 L 229.9,116.1 L 230.1,111.5 L 230.7,110.4 L 231.3,109.4 L 231.8,108.8 L 232.8,108.5 L 234.0,108.4 L 234.4,108.6 L 234.4,109.2 L 234.6,109.5 L 234.8,109.3 L 234.8,108.8 L 235.2,108.7 L 235.4,108.8 L 235.6,109.0 L 235.8,108.6 L 236.0,106.3 L 235.7,104.2 L 236.4,102.8 L 236.8,102.2 L 236.9,101.6 L 236.7,101.1 L 236.7,100.5 L 236.2,100.1 L 235.9,99.4 L 235.9,98.7 L 235.3,98.5 L 234.9,98.0 L 234.5,97.1 L 234.6,96.6 L 235.5,95.8 L 235.8,94.6 L 235.0,93.8 L 234.4,91.2 L 234.3,89.5 L 234.1,88.2 L 234.0,87.3 L 233.5,86.2 L 233.2,84.2 L 232.6,83.7 L 232.9,82.8 L 233.1,81.5 L 233.1,80.4 L 232.2,78.7 L 232.1,75.4 L 231.5,74.4 L 231.0,72.5 L 230.8,71.7 L 230.2,68.7 L 230.3,66.0 L 229.6,62.5 L 229.4,62.1 L 229.5,60.0 L 229.4,59.6 L 229.6,59.4 L 230.4,59.4 L 230.9,59.4 L 231.4,59.5 L 232.0,59.3 L 232.7,58.7 L 233.2,59.9 L 233.5,60.5 L 234.6,61.9 L 234.6,63.2 L 234.8,64.0 L 234.8,65.4 L 235.0,66.0 L 235.7,66.8 L 236.1,66.7 L 236.3,66.3 L 236.8,64.5 L 236.9,63.1 L 236.4,60.7 L 236.2,59.4 L 236.3,58.2 L 237.0,57.0 L 237.7,54.9 L 238.0,52.8 L 238.7,52.1 L 238.6,51.3 L 237.5,51.3 L 237.4,50.6 L 237.6,49.5 L 238.5,47.9 L 240.2,44.3 L 241.0,43.1 L 242.3,41.9 L 242.6,41.1 L 243.0,40.3 L 243.2,40.0 L 256.4,47.6 L 256.2,48.3 L 255.7,49.0 L 255.9,50.0 L 256.0,52.9 L 256.2,54.7 L 256.4,55.1 L 256.7,55.4 L 257.4,55.4 L 258.8,56.6 L 259.1,57.2 L 259.7,58.6 L 259.8,58.8 L 260.0,61.2 L 260.7,63.0 L 260.5,65.8 L 260.2,66.6 L 260.0,67.7 L 259.0,69.5 L 258.8,70.4 L 258.9,71.8 L 259.4,74.3 L 259.5,75.2 L 259.7,76.8 L 259.5,79.0 L 259.4,83.6 L 259.6,84.9 L 259.3,85.4 L 258.5,87.9 L 258.2,89.4 L 257.9,92.9 L 258.2,94.6 L 258.9,96.3 L 259.4,98.0 L 259.1,99.1 L 258.6,99.7 L 257.6,101.5 L 257.6,103.0 L 257.9,103.8 L 258.1,104.7 L 258.7,105.6 L 259.7,106.7 L 260.0,108.4 L 260.7,111.5 L 260.8,113.2 L 260.6,113.8 L 260.5,115.2 L 260.9,116.2 L 261.1,117.6 L 261.9,119.5 L 262.0,120.1 L 261.5,120.6 L 261.3,121.0 L 261.4,122.0 L 261.7,122.7 L 262.3,123.4 L 264.1,124.8 L 264.3,125.3 L 264.2,126.6 L 264.2,128.4 L 264.4,129.4 L 265.5,131.8 L 266.2,132.7 L 266.7,133.1 L 267.5,133.4 L 268.2,133.9 L 269.2,134.2 L 269.9,134.8 L 270.3,135.8 L 271.1,138.5 L 271.2,139.5 L 270.6,140.7 L 269.8,141.7 L 269.6,143.3 L 269.3,144.2 L 268.6,144.7 L 266.9,145.1 L 266.3,145.9 L 265.7,147.3 L 264.6,151.1 L 264.6,152.8 L 265.1,154.5 L 265.9,155.5 L 266.1,156.4 L 266.0,158.4 L 265.9,159.0 L 265.8,159.1 L 264.8,160.1 L 264.6,160.8 L 264.3,161.5 L 263.0,162.2 L 261.9,163.3 L 261.7,164.1 L 262.0,164.4 L 262.3,164.5 L 262.4,165.9 L 264.5,167.8 L 265.1,168.6 L 265.4,169.6 L 265.9,170.4 L 266.7,170.9 L 268.4,172.8 L 269.5,174.8 L 270.3,175.7 L 271.4,175.9 L 272.1,176.8 L 272.3,176.9 L 272.6,177.1 L 272.8,177.7 L 273.2,178.0 L 273.5,177.9 L 273.9,177.5 L 274.6,176.9 L 275.6,176.6 L 276.7,176.7 L 277.4,176.9 L 278.2,178.1 L 278.9,179.5 L 279.4,181.0 L 279.3,182.5 L 279.6,182.9 L 279.7,183.1 L 280.4,183.4 L 280.4,183.9 L 280.8,184.1 L 281.3,184.7 L 281.8,185.1 L 281.9,185.5 L 281.7,186.6 L 280.8,187.6 L 280.2,189.0 L 279.6,189.5 L 278.6,189.7 L 278.1,189.5 L 277.3,189.7 L 275.2,190.8 L 274.6,190.8 L 274.1,190.3 L 274.0,189.8 L 274.4,189.0 L 274.5,188.7 L 274.4,188.4 L 273.5,187.9 L 272.8,188.0 L 272.2,188.4 L 272.1,189.0 L 271.8,189.4 L 271.7,189.8 L 272.6,190.9 L 272.6,191.2 L 271.9,191.1 L 271.5,191.6 L 271.1,191.7 L 270.8,192.0 L 270.5,192.0 L 270.0,191.7 L 269.5,191.9 L 269.4,192.4 L 269.5,192.8 L 269.9,192.9 L 270.3,193.1 L 270.1,193.4 L 270.1,193.9 L 270.9,194.0 L 271.1,194.5 L 271.0,195.8 L 270.7,196.9 L 269.7,198.2 L 269.9,198.6 L 269.6,200.9 L 269.7,201.5 L 269.7,202.4 L 269.7,202.6 L 270.0,203.3 L 270.1,204.2 L 270.1,205.0 L 269.9,205.2 L 269.3,205.7 L 268.3,205.5 L 267.8,205.5 L 267.2,205.9 L 267.0,206.2 L 266.7,207.4 L 265.4,208.7 L 265.4,209.5 L 264.9,210.3 L 264.8,211.2 L 264.6,212.4 L 264.4,213.0 L 263.9,214.3 L 263.4,214.8 L 262.7,215.8 L 262.2,216.1 L 260.8,216.2 L 259.8,215.3 L 259.7,214.6 L 259.3,214.2 L 258.4,213.6 L 257.9,212.7 L 257.7,211.5 L 257.9,208.7 L 258.4,206.5 L 258.4,205.9 L 258.0,205.1 L 258.1,204.0 L 258.7,202.7 L 258.2,201.5 L 258.3,201.3 L 258.3,201.1 L 258.9,200.3 L 258.8,199.6 L 258.2,199.1 L 257.6,198.9 L 256.8,199.1 L 256.2,199.9 L 255.6,200.2 L 254.8,201.0 L 253.1,202.7 L 251.9,203.3 L 251.1,204.2 L 250.8,204.7 L 249.8,205.5 L 249.2,205.6 L 248.9,205.6 L 247.0,205.5 L 246.6,205.6 L 245.3,205.6 L 245.0,205.7 L 245.0,206.3 L 244.6,206.8 L 244.5,207.9 L 244.2,208.2 L 243.4,208.8 L 242.5,209.5 L 241.3,210.9 L 241.0,212.2 L 241.1,213.3 L 241.5,215.0 L 241.5,216.1 L 241.3,216.3 L 240.8,216.8 L 240.4,217.3 L 240.2,217.7 L 240.0,218.3 L 239.7,218.8 L 239.7,219.1 L 239.8,219.4 L 239.5,219.8 L 239.4,220.1 L 238.7,221.1 L 238.0,222.4 L 237.9,224.2 L 237.7,224.6 L 237.6,225.3 L 236.9,225.3 L 235.7,228.1 L 235.0,229.1 L 233.9,229.5 L 233.3,229.9 L 232.8,230.0 L 232.7,229.4 L 232.6,229.3 L 232.1,230.0 L 232.0,230.3 L 232.7,230.4 L 232.7,231.1 L 232.9,231.4 L 233.3,232.3 L 233.3,234.4 L 233.2,234.4 L 232.1,234.4 L 231.4,235.6 L 230.3,236.9 L 229.2,238.3 L 229.0,240.1 L 228.8,240.7 L 227.9,241.1 L 227.3,241.5 L 226.3,241.4 L 225.7,241.9 L 225.0,242.8 L 224.9,243.3 L 225.1,243.4 L 225.2,243.8 L 225.0,244.7 L 224.2,246.0 L 224.1,247.5 L 224.4,249.1 L 224.4,250.3 L 224.7,250.7 L 224.7,251.2 L 224.2,251.6 L 223.4,252.5 L 223.2,253.8 L 222.9,254.1 L 222.7,256.3 L 222.9,257.4 L 223.3,258.7 L 224.7,261.1 L 224.8,262.3 L 224.3,264.1 L 224.0,265.5 L 223.5,267.6 L 223.3,269.0 L 223.6,270.1 L 224.1,270.7 L 224.4,271.6 L 224.9,272.2 L 225.5,273.0 L 225.3,273.5 L 224.7,276.1 L 224.0,278.4 L 223.5,279.3 L 223.0,279.7 L 222.8,280.2 L 222.0,280.9 L 221.9,281.2 L 221.7,281.7 L 221.5,282.8 L 221.2,283.8 L 221.9,284.2 L 221.9,284.9 L 222.8,286.0 L 222.9,286.2 L 222.4,286.3 L 222.2,286.6 L 222.4,287.1 L 222.7,287.1 L 222.8,286.7 L 223.4,286.9 L 224.3,287.8 L 225.0,288.2 L 226.1,288.2 L 226.6,288.0 L 227.7,288.0 L 230.9,286.0 L 232.1,285.9 L 232.8,285.6 L 233.1,285.9 L 233.9,285.9 L 234.3,285.6 L 235.8,285.9 L 236.3,286.2 L 241.2,286.4 L 241.5,286.4 L 243.2,286.4 L 245.0,286.3 L 245.7,286.0 L 246.4,285.2 L 247.0,285.4 L 247.8,285.3 L 248.3,285.2 L 248.7,285.3 L 249.7,285.2 L 250.3,285.5 L 253.2,285.8 L 254.1,286.0 L 255.6,286.2 L 256.3,286.6 L 256.5,287.3 L 256.7,287.6 L 258.4,287.4 L 259.1,287.7 L 259.9,288.5 L 259.5,288.8 L 258.6,288.8 L 257.9,288.9 L 256.3,288.8 L 254.9,289.1 L 254.4,289.9 L 253.9,290.2 L 253.6,290.6 L 252.5,290.9 L 251.8,291.2 L 249.8,291.3 L 248.8,291.3 L 247.8,291.6 L 246.9,292.4 L 246.0,292.4 L 245.5,292.7 L 245.2,292.8 L 245.1,293.2 L 245.2,294.8 L 244.9,295.3 L 244.8,295.8 L 245.1,296.5 L 244.8,296.9 L 244.8,297.9 L 242.8,298.6 L 241.8,299.0 L 241.1,299.3 L 241.1,299.7 L 241.5,299.8 L 242.0,300.2 L 242.4,300.4 L 243.9,300.6 L 244.7,301.5 L 245.4,301.8 L 246.1,301.9 L 246.3,302.1 L 246.4,302.8 L 246.0,303.4 L 246.3,304.1 L 246.3,305.2 L 245.8,305.6 L 245.6,306.2 L 246.4,306.3 L 247.0,306.7 L 247.6,306.8 L 248.0,307.0 L 247.7,307.4 L 248.0,307.6 L 249.9,307.8 L 251.1,308.0 L 252.6,308.5 L 253.0,308.8 L 256.4,309.0 L 256.6,309.0 L 256.6,309.1 L 254.7,320.2 L 254.5,320.2 L 253.8,320.4 L 252.6,321.3 L 252.5,321.8 L 251.9,322.3 L 251.7,322.7 L 251.4,323.0 L 251.0,323.1 L 250.4,323.3 L 250.2,323.7 L 250.0,324.4 L 249.8,324.8 L 249.7,325.4 L 249.5,326.0 L 249.7,327.5 L 249.9,328.0 L 250.0,328.9 L 250.1,329.2 L 250.1,330.3 L 250.2,332.2 L 250.4,332.5 L 250.6,335.1 L 250.2,336.4 L 250.1,336.5 L 248.9,337.5 L 247.6,339.1 L 247.4,340.2 L 246.8,341.2 L 246.3,341.8 L 245.7,342.1 L 244.9,342.2 L 244.4,341.6 L 244.0,341.5 L 243.1,342.3 L 241.0,344.3 L 240.3,345.3 L 240.2,346.7 L 239.7,347.5 L 239.5,348.3 L 239.2,349.4 L 237.9,349.9 L 236.0,349.9 L 235.5,350.1 L 235.3,350.2 L 234.5,351.0 L 234.2,351.0 L 233.7,350.4 L 232.7,348.8 L 232.6,348.3 L 233.1,347.6 L 234.0,346.6 L 234.6,346.2 L 235.6,345.1 L 236.0,344.4 L 236.1,344.2 L 236.2,343.5 L 236.1,343.4 L 236.0,342.9 L 236.2,341.0 L 236.4,340.8 L 236.8,340.2 L 238.4,339.1 L 239.5,337.7 L 239.5,337.5 L 238.7,337.4 L 238.5,337.2 L 238.6,336.9 L 239.9,335.5 L 240.4,335.3 L 240.8,335.3 L 241.1,335.8 L 241.8,336.2 L 243.0,336.1 L 243.5,335.9 L 246.7,332.9 L 247.1,331.8 L 246.6,331.2 L 246.1,330.5 L 245.3,329.4 L 244.7,329.3 L 244.4,328.2 L 243.9,328.0 L 243.1,326.8 L 242.4,326.5 L 242.0,325.5 L 241.7,323.7 L 240.9,322.8 L 240.3,322.7 L 239.6,323.1 L 239.1,323.3 L 238.3,322.6 L 238.1,322.5 L 237.3,322.2 L 236.8,321.7 L 236.6,321.2 L 236.2,320.9 L 235.3,321.1 L 234.5,320.2 L 234.2,320.1 L 233.1,319.3 L 232.2,319.2 L 232.1,318.8 L 231.0,318.7 L 230.3,318.9 L 229.1,320.0 L 229.0,320.5 L 228.4,321.5 L 228.2,322.5 L 226.4,325.6 L 225.6,327.2 L 224.8,328.0 L 224.6,328.6 L 224.1,329.6 L 222.6,331.6 L 222.3,332.1 L 222.0,332.2 L 221.7,331.8 L 222.1,329.0 L 222.6,328.0 L 224.2,325.5 L 224.4,324.7 L 224.8,322.9 L 225.8,320.2 L 225.8,319.6 L 225.6,319.1 L 225.7,318.1 L 225.9,317.2 L 225.8,316.7 L 225.0,316.3 L 222.9,316.1 L 221.9,315.2 L 221.2,315.1 L 220.0,315.8 L 218.3,316.2 L 217.0,317.0 L 216.1,317.8 L 215.3,319.2 L 214.9,319.1 L 214.3,319.4 L 213.4,319.5 L 212.8,319.7 L 212.4,320.1 L 212.3,322.2 L 212.4,322.7 L 213.2,324.0 L 213.2,325.9 L 213.3,326.6 L 213.6,327.0 L 213.6,328.1 L 213.8,328.7 L 214.1,328.9 L 214.3,329.3 L 214.9,329.5 L 215.3,329.8 L 215.2,331.7 L 215.4,332.1 L 215.5,332.9 L 215.9,334.2 L 215.9,335.1 L 216.1,335.3 L 216.3,337.2 L 217.1,337.3 L 218.1,338.3 L 218.4,338.2 L 219.0,337.7 L 220.0,336.2 L 220.4,336.0 L 221.1,336.2 L 221.6,336.6 L 221.4,337.7 L 220.7,338.4 L 220.7,339.4 L 220.9,339.5 L 221.3,339.2 L 221.6,339.3 L 221.5,339.7 L 221.5,340.2 L 221.9,340.1 L 222.8,340.5 L 222.6,340.8 L 220.8,342.3 L 219.0,344.7 L 218.9,345.4 L 219.0,345.8 L 219.0,346.5 L 218.5,347.0 L 218.1,347.5 L 217.4,347.5 L 217.3,347.9 L 216.7,348.6 L 216.1,349.7 L 215.9,350.9 L 215.6,351.0 L 215.2,350.8 L 214.7,350.9 L 213.5,352.1 L 213.2,352.3 L 212.4,353.0 L 211.4,353.2 L 211.2,353.6 L 210.8,354.2 L 210.7,354.7 L 210.5,354.9 L 210.3,354.5 L 210.4,353.9 L 210.7,353.6 L 211.6,351.8 L 211.8,351.4 L 212.4,350.7 L 212.1,350.3 L 212.0,349.9 L 211.4,349.4 L 210.3,349.1 L 210.1,348.9 L 209.6,348.9 L 209.3,348.7 L 208.7,348.5 L 208.3,348.3 L 208.1,348.3 L 207.7,348.4 L 207.4,348.1 L 206.4,347.7 L 205.4,347.5 L 204.8,347.4 L 203.9,347.8 L 202.9,347.9 L 202.3,348.3 L 201.0,349.0 L 200.0,349.7 L 199.5,350.4 L 199.3,351.1 L 199.4,352.2 L 199.4,353.6 L 198.8,354.1 L 197.3,354.8 L 196.1,354.9 L 195.4,354.3 L 195.4,352.8 L 195.2,351.9 L 194.7,351.4 L 193.6,350.8 L 192.3,350.6 L 190.6,350.8 L 190.2,351.1 L 189.7,352.2 L 188.8,352.8 L 188.2,352.8 L 187.6,352.2 L 187.1,351.6 L 187.1,351.1 L 187.2,350.0 L 186.6,350.0 L 186.4,350.6 L 186.2,350.4 L 185.9,349.9 L 185.3,348.9 L 185.1,348.1 L 185.4,346.6 L 185.2,346.3 L 184.8,346.2 L 184.0,346.8 L 183.2,347.7 L 181.5,349.2 L 180.4,350.0 L 179.2,350.7 L 177.1,353.2 L 176.2,355.2 L 176.1,355.6 L 176.2,356.1 L 176.2,357.0 L 175.9,357.2 L 175.2,356.6 L 173.1,355.4 L 172.0,354.2 L 171.6,354.1 L 170.8,354.7 L 169.7,355.0 L 169.2,355.4 L 168.9,356.3 L 167.6,358.5 L 167.0,359.4 L 166.6,360.0 L 166.2,360.0 L 166.0,359.8 L 165.0,359.9 L 164.3,359.6 L 163.6,359.1 L 163.1,358.7 L 161.7,358.7 L 161.4,358.5 L 161.1,358.3 L 158.9,357.2 L 157.4,357.0 L 157.2,356.6 L 157.1,354.9 L 157.1,350.6 L 156.9,349.8 L 156.8,348.3 L 156.0,346.7 L 155.2,345.9 L 154.5,345.6 L 153.3,345.2 L 152.6,344.8 L 152.1,344.5 L 151.5,344.5 L 150.4,345.8 L 149.9,345.9 L 148.5,346.7 L 146.9,348.1 L 145.9,348.3 L 144.4,347.8 L 143.8,347.2 L 143.4,345.8 L 142.3,344.5 L 141.1,343.8 L 140.9,343.6 L 139.8,343.5 L 139.1,343.7 L 138.7,344.6 L 137.9,345.5 L 137.8,346.5 L 137.9,346.8 L 137.6,346.7 L 137.5,346.5 L 136.0,346.4 L 135.5,346.8 L 135.0,347.0 L 134.2,347.2 L 133.5,347.5 L 131.0,347.7 L 129.3,347.8 L 128.7,347.6 L 128.1,347.2 L 126.7,346.8 L 123.5,344.8 L 122.6,343.9 L 121.6,343.0 L 121.5,342.1 L 122.0,341.4 L 122.5,338.9 L 122.3,338.0 L 122.1,337.2 L 121.5,336.5 L 120.6,335.8 L 120.3,334.9 L 120.3,333.6 L 119.6,331.9 L 118.4,331.6 L 118.1,331.3 L 118.4,331.0 L 119.2,330.9 L 120.6,329.4 L 121.0,327.4 L 122.5,325.7 L 122.9,324.6 L 123.1,323.6 L 123.4,322.9 L 124.2,321.6 L 124.6,320.6 L 124.6,320.2 L 124.6,319.6 L 125.1,318.8 L 126.3,315.5 L 127.5,314.2 L 127.7,313.7 L 127.6,313.3 L 127.8,310.9 L 128.1,309.4 L 128.9,306.9 L 129.6,305.6 L 129.6,304.5 L 129.5,304.4 L 129.9,303.8 L 130.4,303.1 L 131.5,300.5 L 131.8,300.2 L 132.4,300.2 L 133.8,297.8 L 134.0,296.7 L 133.0,296.8 L 132.4,296.5 L 132.0,295.7 L 131.8,293.2 L 131.9,291.4 L 132.3,290.6 L 132.7,289.8 L 133.9,289.1 L 134.1,289.4 L 134.2,290.1 L 134.1,290.5 L 134.2,290.8 L 134.5,290.7 L 135.1,289.3 L 135.3,288.0 L 135.1,287.8 L 134.7,288.0 L 134.2,288.1 L 133.8,287.7 L 133.5,286.6 L 133.3,286.3 L 133.5,284.2 L 134.7,280.2 L 135.2,279.0 L 136.0,278.2 L 136.6,276.8 L 137.4,275.7 L 137.7,274.7 L 138.3,273.3 L 138.5,272.9 L 139.1,271.1 L 139.4,270.2 L 139.7,268.2 L 139.5,267.9 L 139.5,267.4 L 139.2,267.1 L 139.1,266.0 L 139.0,265.7 L 138.7,265.6 L 138.4,266.3 L 137.3,266.4 L 136.5,265.9 L 136.2,265.7 L 135.0,263.6 L 135.1,263.0 L 135.3,261.9 L 135.9,260.8 L 135.9,259.8 L 135.7,259.1" fill="none" stroke="black" stroke-width="2"/>
</svg>