<?xml version="1.0" encoding="UTF-8"?>
<svg width="400" height="400" viewBox="0 0 400 400" xmlns="http://www.w3.org/2000/svg">
  <rect width="400" height="400" fill="white"/>
  <path d="M 157.7,205.2 L 157.6,199.4 L 155.0,195.5 L 145.5,185.8 L 144.2,183.4 L 141.7,180.7 L 139.6,180.2 L 138.0,177.6 L 134.6,175.8 L 131.2,179.7 L 129.2,180.0 L 126.5,176.9 L 124.7,172.6 L 125.2,167.8 L 128.5,162.7 L 130.6,156.4 L 133.0,154.8 L 133.8,151.9 L 131.5,150.6 L 130.2,148.5 L 131.0,143.1 L 132.9,132.4 L 133.6,130.1 L 133.7,123.1 L 132.6,117.7 L 133.0,115.8 L 134.0,114.0 L 135.7,113.0 L 136.1,102.5 L 133.9,97.6 L 135.3,94.8 L 133.8,92.4 L 133.4,87.7 L 130.8,81.8 L 129.9,78.3 L 128.9,65.9 L 130.3,53.2 L 129.9,48.4 L 128.4,44.6 L 128.1,40.6 L 128.3,40.0 L 131.4,42.7 L 135.0,46.7 L 136.0,49.7 L 135.7,55.2 L 136.9,58.2 L 140.3,59.6 L 142.6,60.9 L 143.0,62.9 L 145.1,63.3 L 147.1,64.4 L 147.5,66.1 L 150.4,66.7 L 151.6,65.8 L 152.8,65.6 L 157.1,67.5 L 159.5,70.1 L 161.3,69.6 L 163.7,67.9 L 164.7,63.7 L 166.2,60.5 L 168.0,60.0 L 171.1,56.7 L 172.5,53.3 L 172.9,49.5 L 216.0,58.8 L 216.1,58.8 L 216.1,59.3 L 217.0,64.3 L 216.3,67.5 L 215.0,69.7 L 213.8,73.8 L 210.4,79.2 L 208.1,82.2 L 207.5,87.4 L 208.4,91.0 L 207.9,98.2 L 208.3,100.0 L 208.2,105.2 L 209.2,107.1 L 214.3,112.0 L 217.6,114.0 L 221.4,118.3 L 223.4,119.3 L 227.0,123.5 L 230.1,123.7 L 231.5,125.2 L 231.7,128.2 L 229.3,133.6 L 228.8,136.8 L 230.4,140.9 L 236.3,148.0 L 238.6,149.1 L 240.2,150.3 L 240.6,154.6 L 242.9,158.8 L 243.7,161.8 L 243.8,164.8 L 243.1,167.0 L 241.2,168.7 L 232.8,168.5 L 229.5,166.1 L 226.1,166.9 L 225.6,168.1 L 222.7,170.5 L 222.0,173.1 L 216.5,180.9 L 215.8,184.4 L 213.5,186.9 L 214.0,189.5 L 213.1,205.5 L 212.1,209.2 L 209.6,211.5 L 207.5,211.8 L 201.5,204.3 L 200.4,203.9 L 199.1,205.0 L 198.7,211.9 L 197.2,212.5 L 194.5,206.2 L 192.8,203.4 L 191.3,203.4 L 191.3,205.2 L 193.2,208.5 L 193.0,210.2 L 195.1,213.8 L 194.6,222.6 L 196.2,230.4 L 197.2,233.8 L 204.6,250.7 L 206.7,254.5 L 209.5,253.7 L 210.6,254.4 L 211.6,255.9 L 214.8,256.4 L 217.6,258.3 L 220.7,265.1 L 222.3,272.5 L 221.7,282.1 L 223.0,291.6 L 226.0,298.6 L 226.6,303.4 L 227.8,307.8 L 227.1,309.5 L 225.8,308.9 L 224.8,309.4 L 224.5,311.5 L 224.8,315.5 L 226.8,320.3 L 230.6,324.6 L 236.2,325.0 L 238.1,327.0 L 240.1,326.9 L 240.8,325.8 L 242.0,318.5 L 244.3,315.2 L 244.2,313.4 L 240.3,309.7 L 236.5,308.6 L 234.3,306.8 L 232.7,304.3 L 233.2,300.2 L 234.4,295.9 L 235.3,289.6 L 235.6,283.7 L 239.2,280.1 L 241.9,280.4 L 243.7,281.0 L 250.7,281.4 L 252.5,279.9 L 254.5,279.3 L 264.5,274.4 L 269.1,275.0 L 270.5,275.9 L 272.1,278.1 L 274.7,283.5 L 275.3,287.9 L 274.0,291.2 L 270.0,295.4 L 267.5,297.1 L 265.6,299.2 L 264.3,301.6 L 260.3,304.2 L 256.0,309.2 L 254.0,313.7 L 251.8,316.9 L 249.6,323.3 L 250.0,327.4 L 251.1,332.5 L 253.5,336.4 L 257.0,348.3 L 258.3,353.9 L 258.9,359.2 L 257.7,360.0 L 255.5,358.1 L 250.4,350.3 L 247.5,344.9 L 245.4,342.3 L 242.9,343.4 L 241.1,345.3 L 240.6,348.0 L 239.0,351.3 L 236.1,354.9 L 230.6,349.9 L 229.0,347.2 L 228.6,344.3 L 227.1,340.1 L 226.6,334.8 L 225.8,333.3 L 220.6,332.1 L 218.6,330.0 L 215.4,315.3 L 213.0,307.0 L 211.1,303.4 L 206.9,296.7 L 206.7,295.5 L 205.6,294.8 L 204.3,295.6 L 202.3,299.3 L 199.1,296.2 L 198.1,292.3 L 197.5,287.7 L 197.5,282.5 L 196.7,280.6 L 194.8,280.0 L 193.6,274.4 L 192.5,263.2 L 190.7,259.3 L 188.8,257.2 L 184.3,249.1 L 180.7,241.2 L 179.4,235.6 L 177.2,231.4 L 174.9,231.0 L 170.8,226.4 L 168.4,221.8 L 161.0,210.8 L 160.2,208.3 L 158.5,207.0 L 157.7,205.2" fill="none" stroke="black" stroke-width="2"/>
</svg>