<?xml version="1.0" encoding="UTF-8"?>
<svg width="400" height="400" viewBox="0 0 400 400" xmlns="http://www.w3.org/2000/svg">
  <rect width="400" height="400" fill="white"/>
  <path d="M 76.5,186.2 L 76.1,187.7 L 74.7,189.3 L 74.3,190.5 L 74.4,193.9 L 74.2,196.5 L 74.3,200.0 L 75.6,201.0 L 78.4,201.5 L 80.6,202.3 L 82.8,201.9 L 84.1,203.8 L 85.2,205.1 L 86.9,206.4 L 88.0,207.5 L 88.9,208.7 L 89.1,210.2 L 91.7,213.6 L 94.7,216.1 L 96.2,216.5 L 96.9,217.3 L 98.4,218.2 L 101.4,220.6 L 102.4,222.0 L 103.0,222.3 L 104.9,224.3 L 104.8,226.2 L 104.4,227.1 L 104.2,228.5 L 102.0,230.9 L 99.6,232.2 L 99.1,234.4 L 100.5,235.3 L 99.9,236.4 L 101.2,237.0 L 102.1,236.8 L 102.9,236.2 L 103.9,236.1 L 104.7,235.3 L 104.9,234.7 L 108.2,232.6 L 109.3,231.7 L 109.6,228.5 L 113.0,223.2 L 114.1,223.2 L 114.9,223.2 L 115.6,222.4 L 115.8,218.6 L 115.1,217.2 L 116.1,213.4 L 117.2,213.0 L 119.2,212.9 L 121.2,211.6 L 122.8,211.3 L 124.1,210.7 L 124.7,210.9 L 123.4,212.9 L 123.4,213.5 L 124.1,214.4 L 125.2,214.1 L 131.3,211.0 L 133.5,209.0 L 135.1,205.5 L 137.7,203.1 L 139.3,202.4 L 140.3,201.3 L 140.1,200.9 L 141.7,199.3 L 142.2,198.0 L 142.5,195.4 L 144.3,193.3 L 145.3,193.0 L 145.6,192.8 L 146.1,192.3 L 146.6,190.9 L 148.4,190.0 L 149.6,188.6 L 150.0,188.5 L 153.7,188.5 L 158.7,186.8 L 160.3,185.9 L 164.2,182.2 L 165.1,180.4 L 166.6,179.5 L 167.6,178.7 L 168.3,176.8 L 172.1,173.2 L 174.2,167.4 L 174.4,165.3 L 176.2,162.2 L 176.9,159.0 L 177.7,157.2 L 178.7,156.3 L 180.0,155.5 L 183.7,152.4 L 184.6,151.3 L 184.5,150.1 L 184.0,149.5 L 184.3,148.1 L 187.3,145.6 L 187.9,144.2 L 187.7,142.7 L 188.7,140.3 L 191.3,136.7 L 193.6,135.2 L 195.0,133.1 L 195.9,131.3 L 198.7,128.2 L 199.4,126.3 L 199.3,125.5 L 198.6,124.5 L 198.5,123.2 L 197.5,121.7 L 194.5,120.1 L 191.8,118.2 L 191.6,115.6 L 190.8,114.3 L 188.8,108.0 L 188.9,107.4 L 189.4,107.4 L 190.7,108.3 L 192.1,108.2 L 193.2,107.5 L 194.1,106.0 L 195.3,104.7 L 195.7,102.6 L 195.6,101.6 L 196.1,101.6 L 197.5,103.3 L 200.1,104.8 L 201.2,105.9 L 204.6,110.0 L 204.9,111.9 L 206.0,113.0 L 208.0,113.0 L 210.3,112.4 L 218.0,108.8 L 223.0,104.9 L 226.8,102.8 L 228.2,101.2 L 231.8,99.0 L 236.6,97.3 L 240.8,96.3 L 243.6,96.0 L 245.5,96.2 L 247.3,95.0 L 250.2,95.0 L 251.6,94.2 L 259.9,92.9 L 263.8,91.6 L 266.5,89.6 L 270.6,86.0 L 273.6,83.1 L 276.7,80.6 L 277.4,80.0 L 280.6,78.3 L 287.9,71.8 L 290.1,69.1 L 290.9,68.5 L 303.5,63.1 L 310.7,56.8 L 311.2,56.7 L 317.3,51.8 L 317.4,51.8 L 318.3,51.4 L 319.3,51.3 L 321.4,49.5 L 322.4,49.1 L 323.0,47.9 L 324.2,46.4 L 325.2,45.7 L 332.0,41.4 L 335.8,40.0 L 338.0,40.1 L 340.4,41.2 L 342.0,41.0 L 343.2,41.2 L 343.3,42.0 L 342.9,43.0 L 341.0,46.8 L 339.9,50.0 L 340.0,51.9 L 340.4,53.3 L 342.5,54.7 L 344.3,56.1 L 344.7,57.6 L 345.4,58.7 L 346.3,59.6 L 346.2,61.2 L 345.5,61.9 L 343.8,62.0 L 341.4,62.8 L 340.6,62.1 L 336.6,63.0 L 334.1,64.4 L 332.0,65.1 L 331.0,65.7 L 328.4,67.3 L 324.0,68.3 L 322.5,68.4 L 318.5,69.1 L 317.1,69.6 L 315.6,70.6 L 311.4,73.5 L 309.5,74.6 L 309.3,75.4 L 310.0,76.4 L 310.1,78.1 L 309.1,79.2 L 306.8,80.1 L 305.6,80.9 L 304.5,83.1 L 303.4,87.5 L 302.2,90.3 L 300.6,92.7 L 299.3,94.2 L 296.9,94.2 L 295.9,94.6 L 295.9,95.8 L 295.3,96.8 L 294.0,97.5 L 292.5,96.9 L 290.5,96.6 L 289.0,97.8 L 287.8,98.2 L 285.0,100.5 L 283.1,101.2 L 281.4,102.5 L 280.9,104.0 L 280.1,105.0 L 278.9,105.3 L 274.9,104.0 L 274.6,103.3 L 274.3,101.4 L 273.6,100.6 L 272.1,100.5 L 271.6,101.4 L 272.1,103.3 L 272.1,105.8 L 270.8,107.0 L 267.7,108.3 L 265.4,108.3 L 263.6,107.0 L 263.0,106.8 L 262.7,107.0 L 260.4,106.9 L 258.9,105.8 L 258.0,104.3 L 254.4,103.6 L 253.7,104.2 L 253.5,107.8 L 253.9,108.3 L 255.1,108.5 L 255.8,109.0 L 257.1,109.4 L 257.8,110.5 L 260.5,113.0 L 262.2,115.0 L 262.7,117.7 L 262.1,121.7 L 259.9,123.7 L 256.5,127.6 L 254.6,130.6 L 254.5,133.2 L 255.4,135.6 L 257.1,136.7 L 258.1,136.6 L 260.6,134.9 L 264.2,130.5 L 266.6,127.2 L 268.9,122.6 L 269.9,121.8 L 271.1,119.5 L 271.5,117.4 L 273.2,115.9 L 274.3,116.0 L 276.3,117.5 L 278.2,117.5 L 280.0,118.1 L 281.2,119.7 L 282.9,121.7 L 283.7,124.5 L 284.5,126.7 L 284.5,127.8 L 283.7,129.1 L 285.9,132.2 L 286.2,133.5 L 285.9,134.4 L 284.9,135.4 L 284.4,137.9 L 284.5,142.3 L 283.7,146.5 L 284.2,147.8 L 287.5,152.4 L 286.9,153.0 L 285.4,152.9 L 284.4,152.8 L 282.4,153.8 L 281.1,155.3 L 281.1,155.9 L 281.0,157.9 L 281.5,159.5 L 281.3,160.2 L 279.8,161.3 L 278.1,161.3 L 276.6,160.5 L 275.6,161.2 L 274.1,161.4 L 271.6,163.4 L 269.4,164.5 L 266.7,164.8 L 264.5,165.6 L 263.0,167.4 L 262.2,167.5 L 257.4,164.7 L 256.4,163.3 L 255.3,160.4 L 255.7,157.3 L 256.4,155.2 L 256.4,154.4 L 256.7,150.7 L 256.4,147.9 L 256.3,144.4 L 255.1,140.2 L 254.4,139.4 L 252.6,138.7 L 250.7,138.9 L 248.0,140.2 L 246.7,140.5 L 245.4,139.5 L 244.6,139.4 L 244.4,140.9 L 246.0,142.1 L 246.1,143.5 L 246.6,144.9 L 247.7,145.4 L 248.4,146.8 L 248.4,148.4 L 247.8,150.6 L 247.0,152.2 L 246.0,153.8 L 245.1,155.0 L 246.5,158.5 L 246.5,160.0 L 245.8,161.6 L 243.5,163.0 L 242.3,165.4 L 242.0,167.1 L 242.8,168.8 L 242.9,170.4 L 242.3,172.2 L 239.9,175.2 L 238.2,176.2 L 235.3,176.3 L 234.3,177.5 L 233.7,180.1 L 236.8,184.2 L 237.2,185.1 L 237.5,186.1 L 239.8,188.0 L 242.5,193.2 L 244.0,194.6 L 245.7,194.5 L 246.5,193.6 L 248.5,190.1 L 249.4,189.9 L 250.6,190.6 L 251.9,191.1 L 253.2,191.8 L 254.0,193.6 L 253.2,196.2 L 254.1,196.7 L 255.3,197.8 L 256.5,198.2 L 257.4,198.9 L 258.0,201.6 L 257.8,202.7 L 257.9,203.5 L 258.3,205.1 L 259.8,208.2 L 261.4,210.0 L 260.4,211.2 L 260.2,214.0 L 260.5,215.6 L 262.4,217.8 L 264.1,219.2 L 264.6,220.8 L 264.5,223.7 L 263.2,224.4 L 262.0,225.8 L 261.8,227.1 L 263.2,231.1 L 261.7,233.5 L 261.2,237.8 L 260.0,239.3 L 259.7,240.8 L 260.2,242.7 L 259.3,244.5 L 260.0,245.5 L 262.5,246.1 L 263.7,247.0 L 265.5,250.1 L 265.9,252.4 L 266.4,254.0 L 265.7,255.3 L 266.3,256.3 L 266.3,258.4 L 265.0,259.9 L 263.2,262.5 L 262.6,262.9 L 262.2,261.9 L 259.4,261.8 L 257.5,262.0 L 256.1,261.3 L 255.3,260.5 L 253.8,259.3 L 253.2,258.0 L 252.9,255.9 L 251.9,254.8 L 249.1,252.9 L 248.1,251.6 L 248.2,249.3 L 248.6,248.1 L 248.0,246.5 L 247.6,246.0 L 247.0,246.5 L 246.2,248.9 L 244.7,250.8 L 243.7,252.6 L 243.8,255.7 L 244.5,259.5 L 245.3,261.6 L 246.0,263.9 L 246.0,266.4 L 245.0,268.2 L 243.3,269.2 L 235.9,269.2 L 233.9,269.6 L 230.8,269.7 L 228.0,267.7 L 226.3,265.5 L 225.0,263.3 L 224.1,262.3 L 220.1,260.3 L 219.1,260.1 L 218.1,259.5 L 217.6,257.0 L 216.9,255.2 L 217.8,251.8 L 219.0,250.2 L 220.6,249.2 L 221.9,247.4 L 222.6,245.6 L 223.8,243.7 L 225.5,242.2 L 229.5,233.8 L 231.4,232.0 L 233.8,227.2 L 235.0,225.7 L 236.1,222.0 L 237.8,220.6 L 240.2,217.0 L 240.9,215.1 L 240.2,212.9 L 239.9,211.1 L 239.4,209.1 L 238.5,207.6 L 237.9,205.2 L 236.8,203.9 L 234.6,202.8 L 233.3,201.6 L 233.2,201.1 L 233.1,200.4 L 233.2,198.1 L 232.4,196.5 L 230.9,195.1 L 230.5,193.7 L 230.0,192.5 L 229.5,190.2 L 228.9,189.1 L 228.9,185.9 L 228.5,181.5 L 226.3,178.9 L 222.5,177.1 L 221.6,176.1 L 221.2,175.1 L 218.2,171.2 L 217.1,167.4 L 216.1,166.9 L 212.6,166.1 L 211.4,165.3 L 210.3,163.0 L 210.2,161.7 L 209.9,161.5 L 209.0,162.0 L 208.2,163.7 L 206.6,165.4 L 205.4,166.3 L 203.9,168.2 L 202.3,168.8 L 199.0,170.3 L 197.4,170.3 L 196.0,170.1 L 193.5,171.4 L 192.8,172.2 L 191.8,175.0 L 191.6,177.3 L 191.2,178.2 L 190.4,178.3 L 189.1,177.0 L 187.1,177.0 L 186.4,177.6 L 186.6,179.6 L 186.1,181.3 L 186.4,181.5 L 188.0,181.1 L 190.0,182.1 L 190.4,182.6 L 188.9,184.0 L 188.6,185.1 L 189.2,186.5 L 190.9,189.2 L 191.4,189.6 L 192.3,191.1 L 192.4,192.3 L 193.2,192.7 L 195.5,195.7 L 195.8,197.3 L 195.8,197.6 L 195.5,198.9 L 193.9,200.1 L 192.1,202.8 L 191.0,203.7 L 188.6,206.9 L 185.8,208.7 L 184.5,209.2 L 183.9,210.1 L 183.1,213.1 L 181.9,212.5 L 181.0,212.1 L 179.1,212.4 L 177.4,214.3 L 175.9,216.4 L 175.8,218.4 L 176.6,220.8 L 175.9,227.6 L 172.9,230.4 L 172.7,231.3 L 171.9,232.8 L 169.0,235.7 L 168.9,237.3 L 166.7,238.4 L 165.0,240.6 L 164.8,242.2 L 165.3,245.8 L 166.2,246.9 L 166.1,248.0 L 164.5,248.8 L 163.1,251.9 L 162.9,253.9 L 163.4,257.2 L 165.8,259.5 L 168.1,261.0 L 169.2,263.2 L 171.5,265.4 L 173.9,265.9 L 179.3,265.9 L 183.0,267.3 L 184.9,269.3 L 186.2,270.3 L 187.6,272.6 L 187.3,273.5 L 187.0,275.0 L 187.9,276.2 L 188.5,280.2 L 184.2,288.7 L 181.7,292.5 L 180.7,292.5 L 177.5,291.9 L 174.1,291.7 L 172.6,293.0 L 171.9,295.3 L 170.9,297.1 L 170.7,301.9 L 173.3,301.9 L 175.2,301.5 L 178.5,299.8 L 181.5,299.9 L 186.0,296.7 L 189.9,296.8 L 192.6,296.0 L 194.7,296.5 L 196.3,296.2 L 197.9,295.7 L 201.1,296.2 L 206.0,296.2 L 208.2,296.3 L 209.7,296.8 L 211.5,296.7 L 212.8,296.2 L 218.4,295.2 L 220.5,294.5 L 223.3,291.5 L 224.9,291.6 L 226.6,293.1 L 227.8,294.7 L 228.1,296.6 L 228.0,297.1 L 226.2,298.0 L 223.3,301.7 L 221.4,302.9 L 219.8,303.4 L 218.7,304.4 L 217.1,304.7 L 214.5,305.9 L 212.3,307.2 L 209.8,307.9 L 208.5,308.8 L 208.3,309.4 L 208.8,310.9 L 207.4,313.2 L 205.4,314.4 L 206.3,315.3 L 207.5,315.2 L 209.0,314.6 L 210.5,314.7 L 211.1,314.3 L 214.1,316.1 L 216.9,316.1 L 217.9,318.2 L 217.9,319.3 L 216.0,320.3 L 213.6,319.8 L 211.6,318.9 L 207.3,318.6 L 205.3,318.1 L 204.1,318.9 L 203.1,320.7 L 202.0,324.1 L 200.9,326.2 L 199.0,328.0 L 198.9,329.2 L 198.3,331.0 L 198.7,331.2 L 198.8,332.1 L 199.8,332.8 L 199.8,334.3 L 198.4,334.8 L 196.5,338.1 L 195.8,338.8 L 196.4,339.9 L 197.0,340.5 L 202.2,339.6 L 204.3,340.6 L 205.6,342.0 L 205.7,342.6 L 207.0,343.9 L 207.7,346.0 L 207.6,349.4 L 206.9,350.3 L 204.7,350.9 L 200.4,352.6 L 198.9,352.6 L 196.7,353.6 L 194.5,353.8 L 194.2,353.4 L 193.3,352.9 L 192.6,353.8 L 191.9,357.3 L 191.8,359.4 L 192.2,360.0 L 190.6,360.0 L 190.9,359.0 L 190.9,355.5 L 189.4,351.5 L 189.4,350.4 L 188.9,349.1 L 189.0,347.8 L 191.6,341.5 L 192.6,340.6 L 193.3,340.3 L 193.6,339.7 L 194.5,339.5 L 194.9,339.0 L 195.4,337.7 L 196.1,334.7 L 195.6,334.2 L 194.8,335.5 L 193.9,333.1 L 195.3,330.9 L 195.4,330.0 L 194.7,328.8 L 194.5,327.7 L 192.2,326.5 L 190.6,325.3 L 188.3,324.2 L 187.3,323.4 L 187.6,318.3 L 185.4,316.6 L 183.8,315.7 L 174.9,314.6 L 166.1,316.0 L 162.2,316.0 L 158.9,315.0 L 160.1,313.5 L 160.5,312.8 L 159.9,311.1 L 156.7,308.3 L 156.4,306.6 L 156.3,303.0 L 155.6,301.6 L 151.9,297.4 L 149.5,296.6 L 147.7,296.8 L 145.0,294.6 L 144.8,293.8 L 146.0,291.4 L 145.8,289.2 L 144.9,287.0 L 145.1,285.9 L 144.3,284.6 L 144.8,283.7 L 145.8,283.8 L 147.2,283.7 L 147.7,283.1 L 147.9,279.8 L 149.1,278.8 L 149.7,278.7 L 150.5,277.7 L 151.9,277.6 L 152.0,276.1 L 151.8,274.7 L 152.2,273.8 L 151.7,273.5 L 150.1,274.3 L 145.4,278.3 L 143.4,279.1 L 142.9,278.4 L 142.1,279.0 L 142.3,280.3 L 141.6,282.1 L 142.7,282.8 L 142.9,283.4 L 142.5,284.7 L 140.9,285.7 L 139.0,285.8 L 138.2,284.6 L 137.8,283.6 L 136.3,281.4 L 136.1,280.5 L 133.9,279.2 L 132.3,277.6 L 130.9,276.5 L 130.3,275.0 L 129.1,274.7 L 127.1,276.1 L 126.9,278.2 L 127.5,279.1 L 129.8,280.4 L 131.2,281.5 L 131.3,282.9 L 132.1,284.8 L 131.9,287.5 L 133.5,288.1 L 134.8,288.1 L 136.1,287.9 L 137.4,288.3 L 138.3,289.2 L 139.4,291.5 L 139.1,297.8 L 138.1,299.8 L 134.6,303.2 L 132.8,304.6 L 130.1,304.9 L 127.7,305.5 L 125.0,307.5 L 123.4,309.9 L 123.2,311.2 L 123.9,313.1 L 124.3,313.7 L 124.5,315.9 L 125.2,316.7 L 127.1,317.3 L 129.4,319.3 L 129.5,319.9 L 128.7,320.8 L 126.8,321.8 L 122.7,323.3 L 119.2,325.1 L 117.0,325.9 L 115.8,326.7 L 113.9,327.5 L 110.4,327.8 L 107.1,327.8 L 104.3,326.5 L 104.1,326.5 L 102.5,325.1 L 102.1,323.7 L 104.1,319.6 L 104.1,318.6 L 103.2,318.0 L 100.6,317.9 L 100.1,317.2 L 100.4,315.6 L 100.8,314.6 L 100.1,312.8 L 101.1,310.3 L 101.7,307.4 L 102.1,301.0 L 102.9,299.2 L 102.8,298.3 L 102.1,297.4 L 102.0,292.9 L 102.9,291.8 L 103.9,291.7 L 104.2,290.6 L 103.1,289.3 L 103.2,287.6 L 104.4,286.1 L 105.9,285.9 L 106.7,286.1 L 106.9,286.4 L 107.9,288.6 L 108.5,289.9 L 109.5,291.1 L 110.4,291.0 L 110.9,290.4 L 112.1,288.3 L 112.4,286.4 L 112.9,285.4 L 114.2,282.1 L 113.4,278.0 L 112.5,276.9 L 110.4,275.5 L 109.1,275.9 L 108.8,276.0 L 106.5,276.2 L 106.4,275.5 L 105.8,275.2 L 105.3,275.7 L 103.7,276.4 L 102.6,278.1 L 101.2,283.8 L 100.6,284.7 L 98.8,284.7 L 95.6,282.2 L 94.4,280.9 L 94.4,279.0 L 93.8,278.1 L 90.7,277.7 L 88.3,278.2 L 86.6,276.7 L 86.2,276.0 L 85.9,274.9 L 85.0,274.7 L 83.5,275.9 L 81.9,276.2 L 80.9,276.3 L 79.2,275.2 L 78.0,274.6 L 75.3,272.0 L 74.2,270.3 L 73.3,268.8 L 73.8,267.2 L 73.1,265.8 L 74.4,263.9 L 75.1,262.6 L 75.6,259.8 L 77.2,257.0 L 78.8,255.7 L 82.0,251.6 L 83.3,250.9 L 86.3,250.1 L 87.3,249.5 L 87.4,247.3 L 87.0,246.2 L 87.0,243.3 L 85.9,241.1 L 85.1,240.4 L 84.5,240.2 L 83.2,241.4 L 82.3,241.6 L 80.5,241.1 L 79.1,240.8 L 78.0,241.2 L 74.5,241.2 L 72.3,239.9 L 70.9,239.5 L 70.7,237.8 L 70.8,236.0 L 70.0,233.8 L 68.7,227.3 L 66.5,224.7 L 64.8,221.3 L 64.0,219.1 L 62.6,217.3 L 62.7,213.9 L 60.7,209.8 L 60.6,209.1 L 59.5,207.7 L 58.2,207.4 L 56.6,208.9 L 55.5,209.0 L 54.0,207.6 L 53.9,206.3 L 53.7,205.3 L 53.9,204.1 L 54.9,203.2 L 55.5,201.8 L 55.2,200.3 L 55.9,199.0 L 56.1,196.8 L 54.2,193.2 L 53.8,190.7 L 54.0,186.7 L 53.9,186.6 L 61.0,182.4 L 61.2,182.3 L 61.4,182.5 L 62.5,182.3 L 63.6,180.3 L 63.9,179.2 L 66.5,178.4 L 68.3,178.4 L 74.3,180.4 L 75.7,181.3 L 76.9,183.1 L 76.8,184.9 L 76.5,186.2" fill="none" stroke="black" stroke-width="2"/>
</svg>