<?xml version="1.0" encoding="UTF-8"?>
<svg width="400" height="400" viewBox="0 0 400 400" xmlns="http://www.w3.org/2000/svg">
  <rect width="400" height="400" fill="white"/>
  <path d="M 70.2,128.5 L 72.3,128.2 L 74.1,126.1 L 74.2,125.3 L 75.4,125.0 L 77.1,124.9 L 77.7,123.7 L 78.6,123.3 L 79.3,122.6 L 80.0,121.6 L 84.0,121.5 L 85.5,119.5 L 85.1,119.0 L 86.0,118.2 L 86.1,117.3 L 85.2,116.0 L 83.8,115.7 L 83.2,115.1 L 80.4,114.7 L 79.4,114.1 L 79.9,113.3 L 82.0,112.4 L 86.5,112.7 L 87.8,112.4 L 89.4,112.4 L 89.8,111.4 L 89.4,110.7 L 91.0,108.4 L 90.9,106.2 L 89.2,104.7 L 88.8,104.4 L 88.6,101.2 L 88.6,101.0 L 89.6,101.5 L 93.1,103.9 L 102.0,107.7 L 102.4,107.6 L 103.2,107.1 L 104.2,108.2 L 106.6,106.7 L 108.3,106.4 L 110.6,107.5 L 112.4,108.1 L 114.0,107.9 L 115.2,107.6 L 117.5,105.7 L 118.4,103.8 L 119.4,103.7 L 120.2,103.1 L 121.0,103.5 L 122.0,103.6 L 122.5,102.9 L 122.5,101.7 L 123.3,101.1 L 122.6,100.1 L 123.4,96.3 L 125.0,96.0 L 126.2,96.1 L 126.8,96.7 L 130.4,95.5 L 134.2,92.4 L 134.8,92.2 L 135.5,91.2 L 138.0,90.2 L 139.1,88.7 L 139.4,88.4 L 143.8,86.7 L 144.3,87.2 L 143.8,88.7 L 145.8,88.4 L 146.9,87.4 L 147.8,86.6 L 150.3,84.5 L 154.0,82.5 L 157.6,84.8 L 158.4,86.8 L 156.1,90.0 L 158.0,92.0 L 158.4,93.2 L 159.9,92.5 L 161.0,91.7 L 162.0,92.0 L 162.4,92.4 L 164.2,91.5 L 164.7,90.1 L 168.8,87.7 L 169.0,87.0 L 171.1,85.6 L 176.0,83.1 L 177.8,83.5 L 178.8,84.4 L 178.4,85.4 L 179.2,87.7 L 181.8,87.6 L 184.5,85.5 L 186.9,85.7 L 190.2,83.7 L 191.2,83.9 L 191.3,85.8 L 191.8,86.4 L 193.3,86.6 L 193.5,87.9 L 190.0,90.5 L 186.4,90.0 L 183.8,91.9 L 183.7,92.9 L 184.5,92.7 L 185.1,93.2 L 184.4,93.7 L 184.4,95.0 L 186.6,94.5 L 187.8,93.1 L 188.2,94.0 L 187.2,94.9 L 186.8,96.9 L 186.1,98.4 L 186.9,99.5 L 190.1,99.3 L 194.2,96.4 L 194.7,96.7 L 195.4,96.6 L 198.3,95.2 L 199.4,93.8 L 199.8,92.0 L 197.8,90.4 L 197.6,89.4 L 197.3,88.5 L 197.5,87.7 L 198.1,87.4 L 198.7,87.6 L 199.6,86.8 L 201.2,87.4 L 202.8,86.6 L 203.9,85.9 L 204.8,86.7 L 205.8,85.4 L 207.8,86.3 L 209.7,85.3 L 211.1,85.1 L 217.4,81.0 L 220.4,78.6 L 224.0,76.6 L 224.7,75.4 L 225.4,75.0 L 226.1,74.4 L 227.2,71.9 L 229.3,70.0 L 229.9,67.3 L 236.7,63.9 L 240.6,60.4 L 241.7,60.0 L 242.7,59.9 L 245.0,60.6 L 249.0,60.9 L 250.1,60.7 L 253.4,61.0 L 255.8,60.6 L 258.7,61.2 L 265.0,63.0 L 264.6,63.5 L 261.4,64.7 L 255.6,69.7 L 254.0,70.5 L 253.9,72.7 L 254.7,73.3 L 256.8,74.5 L 260.0,74.3 L 265.4,74.6 L 267.4,73.5 L 270.9,74.3 L 274.6,73.5 L 275.9,73.0 L 285.3,71.5 L 287.1,70.9 L 289.6,72.0 L 290.0,72.8 L 295.0,73.1 L 297.4,72.7 L 299.5,71.4 L 301.1,69.9 L 302.6,69.9 L 303.8,69.3 L 304.5,69.5 L 304.1,70.3 L 303.1,70.5 L 300.6,72.2 L 301.9,73.2 L 303.9,73.9 L 305.1,73.3 L 307.5,74.2 L 308.5,76.5 L 308.5,81.3 L 307.6,82.9 L 304.7,83.3 L 302.7,84.2 L 300.2,87.0 L 299.1,87.8 L 296.7,87.8 L 292.7,88.7 L 289.9,86.0 L 288.3,84.8 L 285.1,84.3 L 279.4,86.6 L 270.6,94.0 L 268.4,97.9 L 265.0,101.1 L 263.4,101.6 L 261.4,101.9 L 257.8,105.2 L 257.5,106.0 L 257.1,106.4 L 256.8,107.6 L 258.9,108.9 L 259.7,109.2 L 260.5,109.8 L 261.9,109.7 L 263.7,109.0 L 265.4,108.1 L 266.8,108.2 L 268.1,106.3 L 270.6,105.2 L 274.1,104.9 L 276.1,105.5 L 281.3,105.9 L 282.6,106.3 L 284.3,105.4 L 288.4,102.7 L 291.9,101.5 L 295.3,100.9 L 298.1,102.1 L 300.0,103.7 L 301.6,106.7 L 304.4,113.2 L 304.7,115.1 L 304.0,116.4 L 302.2,119.1 L 301.0,122.9 L 300.2,128.6 L 297.6,132.8 L 294.2,136.7 L 291.2,137.1 L 287.3,138.5 L 285.7,138.5 L 284.7,138.8 L 283.4,140.3 L 282.6,140.3 L 281.8,140.8 L 281.7,143.0 L 280.5,143.5 L 280.7,144.7 L 281.7,146.8 L 283.1,148.5 L 286.3,149.4 L 286.1,150.3 L 276.3,150.5 L 274.1,151.9 L 272.7,152.2 L 268.6,151.0 L 265.8,150.7 L 264.2,152.0 L 261.6,155.8 L 254.4,159.1 L 250.8,161.3 L 248.5,163.8 L 247.2,166.1 L 245.2,167.8 L 242.7,168.8 L 239.1,170.6 L 235.0,173.0 L 232.6,174.2 L 232.5,174.2 L 231.6,174.4 L 228.9,176.9 L 225.0,182.4 L 222.6,184.9 L 218.7,187.8 L 213.6,190.1 L 205.6,193.1 L 203.5,194.9 L 202.0,197.4 L 201.7,199.2 L 202.0,200.0 L 204.0,200.9 L 214.8,201.2 L 217.2,202.3 L 218.9,202.0 L 221.3,202.9 L 227.6,203.7 L 229.1,205.0 L 232.6,205.4 L 234.4,206.4 L 237.9,206.7 L 243.1,208.1 L 247.2,208.5 L 249.5,209.4 L 253.5,209.9 L 254.9,210.3 L 257.4,212.6 L 260.3,214.2 L 266.6,218.9 L 266.9,219.8 L 265.6,220.1 L 260.7,220.1 L 259.1,219.5 L 257.0,219.4 L 255.1,219.5 L 248.5,217.9 L 242.7,217.2 L 240.1,215.6 L 234.5,214.6 L 233.2,213.0 L 227.2,212.3 L 218.4,210.6 L 210.6,210.5 L 210.5,212.5 L 211.6,214.4 L 214.3,215.9 L 215.8,217.8 L 215.7,219.5 L 213.6,221.4 L 210.9,222.1 L 206.6,221.8 L 205.4,220.6 L 204.3,219.9 L 203.4,220.2 L 203.3,222.8 L 203.3,223.8 L 202.5,225.6 L 201.7,226.1 L 199.1,222.6 L 198.9,222.4 L 193.2,216.9 L 191.6,215.2 L 190.0,214.3 L 187.0,214.5 L 181.6,215.4 L 177.8,215.2 L 176.4,215.5 L 176.0,216.3 L 176.7,218.9 L 177.7,220.3 L 179.0,222.2 L 181.3,224.1 L 186.5,229.3 L 188.3,229.8 L 189.4,231.4 L 191.0,231.7 L 191.6,230.7 L 193.5,230.9 L 196.2,231.8 L 197.5,232.9 L 197.0,238.7 L 197.3,239.8 L 199.6,241.2 L 200.0,242.4 L 200.7,243.3 L 206.1,245.9 L 211.2,251.6 L 212.4,251.9 L 214.2,251.2 L 216.0,251.4 L 218.1,253.5 L 218.4,255.3 L 219.9,256.9 L 223.3,259.1 L 227.1,259.1 L 231.1,258.8 L 234.2,256.6 L 239.1,251.9 L 240.0,249.6 L 240.5,249.2 L 243.9,250.8 L 249.7,251.7 L 252.8,252.9 L 252.5,257.9 L 254.5,260.8 L 255.1,261.4 L 255.4,262.6 L 254.8,263.8 L 254.6,266.0 L 255.2,267.4 L 255.0,268.6 L 254.0,269.1 L 251.4,269.8 L 249.4,270.9 L 247.9,272.2 L 246.6,274.4 L 246.1,278.4 L 245.6,280.0 L 244.0,280.1 L 242.4,277.2 L 241.2,273.9 L 240.5,272.9 L 239.4,271.8 L 236.6,270.3 L 233.8,270.1 L 232.1,272.2 L 231.8,275.0 L 232.3,276.4 L 232.6,278.6 L 234.2,281.9 L 235.9,283.4 L 239.3,284.8 L 240.9,286.5 L 243.5,285.7 L 244.9,285.8 L 245.8,287.0 L 248.6,287.1 L 250.6,287.7 L 252.9,289.8 L 257.8,291.3 L 261.3,294.1 L 263.4,294.0 L 264.8,292.9 L 269.6,292.5 L 273.6,290.9 L 275.5,291.0 L 276.4,289.8 L 277.5,287.5 L 278.8,286.9 L 281.3,286.9 L 282.8,286.0 L 284.3,284.7 L 288.5,284.1 L 292.2,283.9 L 295.4,285.1 L 301.4,285.6 L 305.3,286.3 L 308.4,285.4 L 310.1,285.6 L 318.6,288.3 L 320.1,289.3 L 328.7,289.8 L 330.2,290.9 L 331.1,293.2 L 332.6,294.1 L 334.2,294.0 L 337.5,291.6 L 342.3,291.2 L 347.3,289.4 L 350.9,288.6 L 352.7,287.6 L 358.5,287.8 L 360.0,288.7 L 359.3,291.1 L 358.9,291.2 L 355.7,294.8 L 352.2,296.4 L 347.1,298.5 L 345.4,299.4 L 343.2,302.5 L 341.9,302.0 L 340.1,301.9 L 338.6,302.8 L 338.6,303.6 L 341.0,304.4 L 341.9,305.2 L 341.2,305.9 L 326.2,305.1 L 323.3,305.2 L 315.9,306.6 L 311.7,306.8 L 308.8,307.4 L 307.0,308.5 L 305.5,310.5 L 302.5,313.1 L 301.6,313.2 L 299.7,311.3 L 298.6,308.8 L 297.3,307.7 L 296.0,305.1 L 293.9,303.3 L 290.9,302.8 L 288.4,301.5 L 286.3,301.5 L 283.1,302.3 L 281.1,302.0 L 280.1,301.0 L 277.4,300.8 L 277.0,299.0 L 275.6,298.7 L 274.6,299.7 L 274.0,302.2 L 271.9,304.3 L 271.7,305.2 L 275.5,305.1 L 276.2,305.9 L 279.4,306.1 L 280.4,307.2 L 280.3,308.8 L 281.2,310.2 L 283.8,312.0 L 286.0,312.3 L 287.5,313.5 L 288.7,314.2 L 289.7,315.3 L 289.7,317.1 L 288.6,319.0 L 286.6,320.3 L 284.9,321.8 L 284.4,323.3 L 288.5,328.2 L 289.4,329.0 L 291.2,329.6 L 292.0,330.0 L 291.8,332.0 L 291.1,332.7 L 290.0,333.2 L 288.4,333.8 L 287.7,334.9 L 290.1,337.6 L 289.7,338.8 L 288.6,340.1 L 285.2,340.1 L 282.1,338.8 L 280.2,337.7 L 275.4,337.2 L 275.0,336.8 L 275.3,335.2 L 276.5,334.7 L 280.2,334.1 L 281.6,333.2 L 281.5,332.2 L 281.6,330.8 L 280.3,328.5 L 279.4,327.4 L 275.6,326.6 L 274.5,325.0 L 272.8,324.7 L 267.1,325.5 L 265.1,326.6 L 264.3,327.4 L 265.3,331.2 L 266.4,333.1 L 266.5,334.7 L 263.3,336.1 L 260.7,338.5 L 260.1,336.9 L 260.0,331.3 L 259.6,330.9 L 258.8,327.9 L 258.4,324.6 L 257.3,322.8 L 257.2,317.9 L 256.4,316.4 L 255.7,315.9 L 254.0,315.4 L 253.5,315.0 L 253.4,313.2 L 252.6,311.3 L 251.5,311.3 L 249.5,311.4 L 248.0,310.3 L 246.2,307.8 L 245.8,306.5 L 243.9,303.8 L 243.0,300.6 L 241.9,299.9 L 237.1,299.1 L 232.1,296.2 L 229.7,293.4 L 229.2,291.2 L 227.7,289.3 L 227.5,286.5 L 222.5,282.2 L 216.8,274.9 L 215.4,272.3 L 213.5,270.5 L 211.9,269.5 L 209.9,267.3 L 209.0,265.7 L 207.7,264.0 L 206.7,262.4 L 204.4,259.5 L 203.0,259.1 L 194.1,260.8 L 192.0,260.9 L 186.8,255.8 L 182.6,252.6 L 179.5,249.7 L 169.3,240.6 L 166.5,238.4 L 160.7,234.9 L 159.6,233.7 L 156.5,231.9 L 154.9,231.8 L 153.6,229.9 L 148.9,226.0 L 146.5,225.3 L 144.8,224.4 L 140.8,223.2 L 135.5,222.5 L 130.1,222.1 L 128.5,222.5 L 126.3,224.2 L 125.3,224.9 L 123.6,227.1 L 122.9,229.9 L 121.5,232.5 L 118.6,234.7 L 116.2,234.9 L 108.2,232.0 L 105.7,230.5 L 103.0,226.4 L 102.2,222.7 L 99.9,219.6 L 98.4,218.5 L 98.3,216.5 L 96.6,214.6 L 94.2,212.4 L 90.0,208.6 L 86.2,205.6 L 85.3,204.4 L 84.0,201.9 L 78.1,198.6 L 76.6,198.3 L 75.1,196.7 L 73.6,196.1 L 71.9,194.2 L 69.7,194.1 L 67.3,194.3 L 63.3,192.4 L 61.3,192.4 L 59.0,192.7 L 57.0,192.9 L 56.7,190.7 L 55.4,189.0 L 54.5,184.8 L 54.6,182.8 L 53.1,181.3 L 52.5,178.9 L 50.3,176.9 L 49.6,177.1 L 49.1,178.3 L 48.3,177.9 L 47.6,176.2 L 46.1,174.9 L 44.6,174.5 L 42.7,174.3 L 41.8,173.2 L 41.9,168.7 L 40.4,167.5 L 40.0,166.9 L 45.2,160.5 L 45.4,160.4 L 45.6,160.6 L 49.8,160.8 L 50.5,162.4 L 52.5,164.5 L 52.6,164.5 L 58.7,167.6 L 60.5,167.4 L 62.9,167.2 L 65.2,165.7 L 65.9,165.2 L 65.9,165.2 L 67.3,163.2 L 68.1,161.7 L 68.6,160.1 L 68.5,158.9 L 67.7,158.3 L 64.2,152.5 L 64.1,151.3 L 62.4,149.0 L 59.8,146.6 L 59.7,145.7 L 60.6,142.0 L 60.7,141.9 L 60.6,141.9 L 64.9,124.4 L 65.5,121.9 L 66.2,122.7 L 66.4,123.5 L 65.3,124.4 L 66.7,126.4 L 69.1,127.8" fill="none" stroke="black" stroke-width="2"/>
</svg>