<?xml version="1.0" encoding="UTF-8"?>
<svg width="400" height="400" viewBox="0 0 400 400" xmlns="http://www.w3.org/2000/svg">
  <rect width="400" height="400" fill="white"/>
  <path d="M 125.7,273.5 L 128.4,270.4 L 129.5,268.8 L 131.6,267.6 L 133.0,266.0 L 133.4,265.0 L 134.8,264.2 L 137.2,260.3 L 136.0,257.4 L 136.3,255.3 L 137.1,253.8 L 138.6,252.2 L 138.7,250.8 L 139.0,249.9 L 138.7,249.2 L 138.1,248.5 L 138.4,247.0 L 140.1,245.3 L 140.9,243.5 L 141.4,242.8 L 141.3,241.8 L 142.1,239.4 L 144.2,235.4 L 144.1,233.9 L 143.3,232.2 L 143.4,231.0 L 141.6,228.9 L 141.9,227.1 L 143.0,225.1 L 145.9,221.8 L 147.0,219.3 L 147.7,216.5 L 148.3,215.7 L 149.6,214.8 L 150.1,212.4 L 153.7,209.0 L 157.5,205.0 L 157.7,203.6 L 156.8,202.6 L 155.6,201.9 L 155.7,200.5 L 157.9,196.8 L 159.5,194.5 L 160.1,192.6 L 160.2,191.4 L 162.1,189.3 L 165.4,184.9 L 166.2,182.2 L 166.2,178.9 L 166.2,178.9 L 169.1,169.0 L 170.5,167.8 L 171.3,166.5 L 174.4,165.2 L 176.3,163.5 L 177.4,161.5 L 178.9,160.5 L 180.4,159.8 L 181.2,158.3 L 181.7,156.0 L 182.1,151.9 L 182.8,150.1 L 183.2,148.8 L 183.5,147.2 L 185.0,144.5 L 186.6,142.6 L 189.7,141.4 L 193.1,139.1 L 198.8,133.4 L 200.2,131.7 L 203.0,128.8 L 203.8,126.9 L 203.9,124.4 L 203.9,123.7 L 204.4,122.1 L 204.6,118.3 L 205.0,116.6 L 205.2,114.2 L 206.2,112.8 L 207.8,108.7 L 211.3,103.2 L 212.0,100.2 L 215.6,96.3 L 216.2,94.4 L 217.4,93.3 L 218.8,92.5 L 220.4,90.5 L 220.7,86.5 L 221.6,85.2 L 225.0,83.3 L 227.4,81.2 L 228.1,79.5 L 229.9,77.7 L 230.7,75.1 L 233.5,70.4 L 235.5,68.0 L 238.1,63.1 L 238.4,61.1 L 239.2,59.7 L 240.3,53.9 L 242.1,50.1 L 242.2,47.6 L 243.2,45.7 L 244.0,43.0 L 245.7,41.3 L 246.0,40.0 L 281.7,50.9 L 281.5,51.4 L 281.9,52.1 L 282.0,53.8 L 286.9,59.4 L 287.1,60.9 L 287.8,63.4 L 289.1,67.2 L 288.7,68.4 L 287.8,68.5 L 287.5,68.2 L 285.7,65.4 L 284.3,63.5 L 279.5,62.2 L 276.7,61.8 L 275.8,62.5 L 275.6,63.5 L 276.0,64.5 L 276.3,65.7 L 274.6,68.8 L 274.9,69.6 L 276.3,70.5 L 277.5,71.8 L 278.4,76.0 L 278.3,76.8 L 276.6,76.3 L 274.5,79.3 L 272.5,80.4 L 269.8,80.2 L 269.1,80.5 L 268.5,81.8 L 267.3,82.0 L 262.3,84.2 L 260.1,84.2 L 258.5,83.5 L 257.4,84.5 L 256.1,86.7 L 255.1,87.0 L 253.7,87.9 L 252.3,90.1 L 249.9,92.6 L 249.7,94.6 L 248.5,94.7 L 247.2,95.4 L 246.9,96.4 L 245.4,96.7 L 243.6,97.7 L 241.5,100.5 L 238.6,102.9 L 235.1,107.1 L 232.9,110.3 L 228.5,115.3 L 227.6,116.9 L 224.7,119.1 L 222.1,122.4 L 221.4,126.0 L 221.4,126.1 L 219.0,127.1 L 218.9,128.4 L 219.6,128.8 L 220.8,130.1 L 221.3,132.1 L 222.2,132.6 L 222.4,133.3 L 222.0,134.6 L 218.4,138.0 L 215.7,142.8 L 213.4,145.0 L 212.6,147.2 L 212.3,149.5 L 212.6,150.5 L 212.5,155.2 L 213.5,155.6 L 217.2,155.7 L 218.4,156.4 L 218.7,157.7 L 220.9,159.0 L 221.2,159.4 L 221.3,159.9 L 219.8,160.6 L 217.8,162.2 L 216.0,163.7 L 215.3,164.9 L 211.8,166.8 L 209.8,168.6 L 210.5,169.3 L 210.7,170.8 L 210.3,171.9 L 208.6,173.4 L 206.7,175.6 L 206.1,177.6 L 207.7,181.2 L 207.9,181.6 L 210.5,185.1 L 210.3,186.5 L 207.3,190.7 L 201.5,192.4 L 195.6,192.1 L 194.2,192.6 L 193.4,193.3 L 192.4,193.7 L 191.9,193.0 L 190.6,195.5 L 189.4,196.7 L 189.2,199.0 L 191.0,200.2 L 193.2,200.0 L 196.4,202.2 L 199.2,206.7 L 200.8,208.4 L 202.4,211.7 L 204.7,213.4 L 207.7,214.1 L 212.5,214.5 L 214.3,216.0 L 215.0,216.4 L 217.0,216.1 L 219.4,216.7 L 220.4,217.6 L 216.7,217.5 L 215.0,218.4 L 213.9,221.6 L 214.0,224.0 L 213.5,225.5 L 210.8,228.7 L 210.2,230.2 L 208.4,232.1 L 205.1,234.6 L 202.8,234.8 L 198.7,235.8 L 196.3,237.3 L 194.4,240.2 L 194.1,244.7 L 193.8,246.1 L 194.8,247.4 L 198.5,249.1 L 199.2,249.9 L 199.6,250.0 L 201.3,249.5 L 203.4,249.3 L 206.7,249.7 L 210.9,251.7 L 213.7,254.3 L 214.4,256.0 L 215.8,256.9 L 217.4,258.3 L 220.3,264.4 L 222.1,265.3 L 224.6,265.2 L 230.2,263.6 L 236.5,262.2 L 238.7,262.1 L 241.3,262.9 L 248.9,263.3 L 251.4,264.5 L 255.6,265.5 L 261.5,270.0 L 263.0,270.6 L 264.0,271.7 L 264.9,273.2 L 263.8,274.3 L 261.4,275.4 L 261.2,276.7 L 261.5,277.7 L 261.1,281.9 L 261.8,284.4 L 262.7,286.0 L 264.3,287.1 L 265.7,287.0 L 267.7,284.7 L 271.7,278.4 L 272.1,276.4 L 272.7,277.5 L 272.3,280.1 L 270.1,283.0 L 269.8,283.7 L 270.3,284.3 L 269.8,284.7 L 267.0,287.7 L 263.1,290.5 L 262.1,290.6 L 257.5,289.2 L 255.3,289.3 L 253.7,289.9 L 249.6,292.8 L 247.9,295.0 L 244.0,298.0 L 242.0,299.3 L 239.9,300.0 L 238.9,300.1 L 237.2,299.3 L 235.0,297.6 L 233.9,296.2 L 233.5,294.5 L 232.0,292.6 L 229.3,290.7 L 222.7,282.0 L 221.1,281.0 L 217.2,280.2 L 212.9,278.5 L 208.4,278.3 L 206.0,280.2 L 201.4,282.8 L 200.4,283.9 L 200.1,284.9 L 199.3,286.3 L 195.3,288.5 L 192.7,290.7 L 191.2,293.1 L 191.1,294.3 L 192.3,294.7 L 193.2,295.4 L 193.9,296.6 L 193.1,298.6 L 191.3,300.5 L 189.8,300.9 L 187.7,301.8 L 186.7,302.6 L 186.5,303.4 L 187.7,304.5 L 190.7,306.1 L 192.7,305.9 L 196.7,307.3 L 199.1,308.0 L 200.1,309.0 L 200.6,311.5 L 200.4,311.8 L 196.2,311.8 L 195.5,312.4 L 193.7,313.5 L 192.3,313.6 L 191.0,312.9 L 186.0,312.8 L 184.9,313.5 L 184.5,314.7 L 183.8,315.5 L 183.6,316.4 L 182.9,317.0 L 181.8,315.9 L 180.4,316.5 L 180.1,317.2 L 181.8,318.4 L 182.6,320.0 L 183.8,320.2 L 184.4,320.5 L 184.5,321.5 L 183.8,322.4 L 181.4,322.6 L 181.4,323.3 L 184.1,323.4 L 184.4,324.0 L 184.7,324.5 L 184.6,325.8 L 182.6,326.5 L 181.8,327.6 L 181.7,328.1 L 179.5,330.9 L 179.1,332.7 L 177.4,333.8 L 176.0,333.8 L 175.1,332.5 L 175.0,330.5 L 174.4,329.9 L 173.1,329.7 L 172.4,329.0 L 169.6,328.7 L 168.0,326.9 L 164.5,326.7 L 161.7,328.4 L 160.2,328.5 L 158.7,329.9 L 157.3,330.4 L 155.7,332.4 L 155.0,334.1 L 156.4,336.3 L 156.5,338.4 L 158.5,341.3 L 159.2,344.0 L 159.3,345.6 L 159.7,347.7 L 157.8,349.8 L 156.0,350.4 L 152.2,353.7 L 148.0,356.6 L 148.0,359.1 L 147.9,359.1 L 111.8,360.0 L 111.9,357.4 L 110.9,351.7 L 111.2,350.5 L 112.4,349.4 L 112.8,348.8 L 112.4,346.7 L 112.6,345.6 L 114.1,345.4 L 115.9,342.0 L 114.1,338.3 L 114.4,337.1 L 116.6,334.1 L 116.8,332.6 L 117.8,331.8 L 119.7,331.7 L 120.9,330.6 L 121.4,328.5 L 122.6,326.6 L 122.5,325.5 L 121.8,324.5 L 121.4,321.5 L 122.1,320.0 L 121.9,318.8 L 121.0,318.0 L 120.9,317.9 L 121.1,316.9 L 121.7,315.8 L 121.8,314.6 L 122.6,313.8 L 123.7,313.2 L 124.0,312.5 L 125.1,311.8 L 127.1,311.4 L 129.2,310.7 L 130.1,309.9 L 130.5,308.6 L 129.5,308.0 L 128.3,308.2 L 127.2,309.4 L 126.9,309.2 L 127.1,305.0 L 126.8,301.8 L 127.0,301.2 L 128.2,299.9 L 128.5,298.2 L 129.2,297.9 L 130.0,297.8 L 130.3,295.1 L 131.4,294.2 L 132.4,293.9 L 133.5,291.9 L 136.3,289.6 L 136.2,287.6 L 137.9,285.8 L 139.1,285.2 L 139.1,284.4 L 138.6,283.3 L 139.4,280.7 L 138.7,279.0 L 137.7,278.1 L 134.9,277.6 L 132.4,274.5 L 130.4,273.4 L 128.8,273.3 L 125.7,273.5" fill="none" stroke="black" stroke-width="2"/>
</svg>