<?xml version="1.0" encoding="UTF-8"?>
<svg width="400" height="400" viewBox="0 0 400 400" xmlns="http://www.w3.org/2000/svg">
  <rect width="400" height="400" fill="white"/>
  <path d="M 117.6,195.1 L 123.6,190.9 L 146.3,175.0 L 159.3,165.9 L 172.5,156.6 L 221.5,122.3 L 242.6,107.5 L 270.4,88.0 L 284.3,78.3 L 286.1,77.0 L 301.7,66.1 L 358.6,102.3 L 358.6,102.3 L 358.6,102.3 L 358.3,102.5 L 358.0,102.5 L 357.9,102.5 L 357.8,102.6 L 357.6,102.9 L 357.6,103.2 L 357.8,103.2 L 357.9,103.2 L 357.9,103.4 L 357.9,103.5 L 357.8,103.6 L 357.7,103.4 L 357.6,103.4 L 357.3,103.6 L 357.0,104.1 L 357.0,104.3 L 357.1,104.4 L 357.1,104.7 L 357.2,104.7 L 357.3,104.8 L 357.2,104.8 L 357.2,105.3 L 357.4,105.3 L 357.8,105.4 L 358.0,105.2 L 357.9,105.1 L 357.9,105.0 L 358.0,104.9 L 358.0,104.7 L 357.9,104.5 L 357.9,104.3 L 358.2,104.5 L 358.1,104.9 L 358.2,105.1 L 358.3,105.1 L 358.5,105.0 L 358.6,105.1 L 358.6,105.3 L 358.7,105.2 L 358.8,105.2 L 358.9,105.1 L 359.1,104.9 L 359.3,104.6 L 359.5,104.8 L 359.7,104.7 L 359.6,104.6 L 359.5,104.6 L 359.3,104.4 L 359.5,104.2 L 359.6,103.6 L 359.7,103.7 L 359.8,103.7 L 359.9,103.7 L 359.9,103.9 L 360.0,104.1 L 360.0,104.1 L 359.9,104.3 L 360.0,104.3 L 360.0,104.3 L 313.7,166.6 L 307.8,173.8 L 307.8,173.8 L 307.6,173.6 L 307.5,173.6 L 307.5,173.7 L 307.5,173.8 L 307.5,174.1 L 307.3,174.4 L 307.3,174.4 L 270.1,220.4 L 263.4,240.2 L 260.4,249.4 L 259.2,250.4 L 241.0,263.7 L 226.1,274.0 L 184.5,294.5 L 156.9,307.7 L 156.9,307.7 L 156.8,307.5 L 156.7,307.4 L 156.6,307.4 L 156.5,307.4 L 156.2,307.2 L 156.1,307.3 L 156.1,307.6 L 156.1,307.7 L 156.1,307.8 L 156.2,307.9 L 156.2,308.0 L 156.4,308.0 L 156.4,307.9 L 156.6,307.8 L 156.6,307.9 L 153.1,309.5 L 148.2,311.6 L 148.2,311.6 L 148.1,311.5 L 148.0,311.4 L 148.0,311.4 L 148.1,311.6 L 148.1,311.6 L 138.8,315.5 L 138.7,315.3 L 138.6,315.3 L 138.7,315.5 L 138.7,315.5 L 138.6,315.5 L 138.5,315.4 L 138.4,315.4 L 138.4,315.6 L 94.2,333.9 L 94.2,333.8 L 94.1,333.6 L 94.0,333.5 L 93.8,333.4 L 93.7,333.3 L 93.5,333.3 L 93.3,333.1 L 93.2,333.1 L 93.1,333.2 L 93.0,333.4 L 93.2,333.4 L 93.2,333.5 L 93.0,333.6 L 93.0,333.5 L 86.9,323.8 L 86.9,323.8 L 87.0,323.8 L 87.0,323.7 L 87.0,323.7 L 86.9,323.7 L 86.8,323.7 L 40.0,249.6 L 117.6,195.1" fill="none" stroke="black" stroke-width="2"/>
</svg>