<?xml version="1.0" encoding="UTF-8"?>
<svg width="400" height="400" viewBox="0 0 400 400" xmlns="http://www.w3.org/2000/svg">
  <rect width="400" height="400" fill="white"/>
  <path d="M 162.9,157.3 L 163.0,156.9 L 164.3,153.8 L 164.8,151.5 L 165.5,150.7 L 165.8,149.5 L 165.4,149.1 L 165.3,148.4 L 164.8,147.8 L 164.8,146.9 L 164.3,145.5 L 163.5,144.3 L 163.3,142.9 L 162.6,141.8 L 161.9,141.3 L 161.1,141.0 L 159.9,140.9 L 159.9,140.1 L 158.9,139.2 L 158.0,138.8 L 157.8,138.8 L 157.1,138.2 L 156.1,138.0 L 155.7,137.5 L 154.9,137.1 L 153.7,137.1 L 153.5,139.4 L 153.3,140.1 L 152.2,140.4 L 149.6,140.3 L 148.6,139.8 L 147.0,138.7 L 146.7,138.2 L 145.7,135.2 L 145.8,132.9 L 145.4,131.9 L 145.4,131.4 L 144.5,130.0 L 144.4,129.4 L 143.9,128.7 L 143.3,128.2 L 142.2,128.5 L 141.8,129.0 L 141.2,130.3 L 140.6,130.6 L 139.7,130.6 L 139.2,130.0 L 138.4,129.5 L 137.3,129.2 L 136.8,128.4 L 136.7,127.7 L 136.2,127.2 L 134.8,126.7 L 133.5,126.5 L 132.1,125.7 L 129.2,124.8 L 127.9,124.3 L 127.1,123.6 L 125.5,122.9 L 125.4,122.5 L 125.1,122.3 L 124.4,121.8 L 123.5,122.0 L 122.0,122.2 L 119.9,122.2 L 119.0,121.8 L 118.7,120.3 L 118.0,120.0 L 115.6,119.6 L 115.0,118.8 L 115.1,118.4 L 116.3,117.6 L 115.9,116.8 L 113.9,115.6 L 112.5,114.8 L 111.8,115.1 L 111.2,114.8 L 110.8,114.4 L 110.7,113.7 L 111.0,113.2 L 110.7,111.3 L 110.2,110.7 L 109.1,110.0 L 109.3,109.7 L 109.7,109.4 L 109.3,108.4 L 108.7,107.9 L 108.7,107.1 L 107.8,106.6 L 107.4,106.6 L 157.3,70.2 L 157.6,70.0 L 157.6,70.2 L 157.2,71.4 L 157.0,73.3 L 157.2,74.5 L 157.8,75.1 L 158.4,76.6 L 159.4,77.6 L 159.9,79.0 L 160.3,79.6 L 162.3,80.8 L 163.7,81.2 L 164.5,82.1 L 165.3,82.6 L 166.4,82.6 L 167.3,82.4 L 168.2,82.7 L 168.9,83.4 L 170.2,83.8 L 171.3,83.7 L 172.2,83.2 L 172.6,83.3 L 172.9,83.6 L 173.1,84.4 L 172.8,85.3 L 172.6,86.5 L 172.9,87.4 L 172.5,88.0 L 172.6,89.2 L 173.4,90.8 L 174.9,91.8 L 176.1,92.1 L 176.7,91.9 L 177.8,92.0 L 178.7,92.5 L 179.1,93.1 L 179.3,93.7 L 180.2,94.6 L 181.8,95.3 L 182.4,96.0 L 182.3,96.9 L 181.9,96.9 L 180.5,96.4 L 179.5,96.2 L 178.9,96.5 L 178.8,97.3 L 179.5,99.0 L 180.3,99.7 L 180.6,100.1 L 181.3,100.8 L 183.2,101.1 L 183.6,100.9 L 183.7,100.5 L 184.0,100.3 L 184.2,100.7 L 184.7,102.4 L 185.1,103.2 L 185.1,103.5 L 184.6,105.0 L 184.7,106.3 L 184.8,106.5 L 186.6,107.0 L 188.0,107.1 L 188.5,107.6 L 189.6,107.7 L 190.4,108.0 L 190.9,108.4 L 192.8,108.5 L 194.1,108.8 L 194.6,109.0 L 195.2,110.2 L 195.8,110.2 L 196.7,110.8 L 197.9,111.4 L 198.4,112.2 L 198.6,114.0 L 199.0,115.3 L 199.4,115.8 L 200.4,116.5 L 202.6,116.9 L 204.7,116.8 L 205.4,117.0 L 206.0,117.3 L 207.3,117.6 L 208.2,119.4 L 208.9,120.0 L 209.7,120.2 L 210.6,120.7 L 212.2,121.0 L 213.4,121.4 L 213.9,121.7 L 214.8,121.8 L 215.2,122.1 L 215.2,122.5 L 215.6,122.8 L 216.1,123.7 L 217.1,124.2 L 217.8,124.3 L 218.4,124.9 L 219.3,125.2 L 219.7,125.9 L 221.0,127.1 L 222.7,127.8 L 223.7,128.1 L 224.6,128.3 L 224.8,128.7 L 225.8,129.8 L 228.7,130.6 L 229.6,130.5 L 230.7,130.8 L 230.8,131.9 L 231.2,132.2 L 232.3,132.4 L 233.5,132.9 L 234.1,133.4 L 236.1,133.9 L 238.4,135.1 L 239.0,135.8 L 240.0,136.5 L 241.3,137.8 L 242.2,138.4 L 243.2,139.2 L 244.9,139.8 L 244.9,139.8 L 246.5,140.2 L 247.4,140.0 L 248.3,140.6 L 249.1,140.3 L 249.6,140.0 L 251.2,140.1 L 252.4,140.9 L 253.3,141.6 L 253.8,141.6 L 254.2,142.2 L 254.7,142.8 L 255.3,143.0 L 255.9,143.5 L 256.3,143.6 L 257.2,143.5 L 258.8,143.8 L 259.4,144.6 L 259.5,145.8 L 260.5,146.4 L 261.6,146.8 L 263.2,146.9 L 264.7,147.3 L 265.4,147.9 L 266.5,148.0 L 267.6,148.5 L 270.3,148.6 L 270.8,149.0 L 270.9,149.4 L 271.1,150.0 L 272.2,150.9 L 273.6,151.1 L 274.3,151.9 L 275.4,152.3 L 276.6,152.9 L 278.0,153.1 L 278.9,153.3 L 279.7,154.2 L 280.9,154.9 L 281.9,156.0 L 284.4,157.3 L 285.8,158.2 L 287.6,159.0 L 288.3,160.0 L 288.9,161.1 L 288.9,163.6 L 289.6,164.4 L 290.8,165.1 L 291.5,165.9 L 293.2,167.2 L 295.3,167.9 L 296.3,167.9 L 296.9,167.6 L 297.3,168.1 L 297.5,168.0 L 298.3,168.3 L 299.6,169.2 L 300.2,169.0 L 302.5,170.4 L 302.6,170.5 L 303.2,171.4 L 304.7,172.0 L 307.1,173.7 L 307.6,174.3 L 309.6,176.0 L 311.0,176.8 L 311.6,178.3 L 312.6,179.1 L 312.9,179.8 L 313.7,180.3 L 314.6,181.2 L 315.3,181.3 L 315.7,181.7 L 315.9,182.2 L 316.3,182.7 L 318.1,183.3 L 319.2,183.2 L 322.2,184.8 L 323.3,185.0 L 324.3,184.9 L 325.5,185.3 L 326.9,186.7 L 327.1,186.8 L 328.1,187.2 L 329.2,188.0 L 331.1,189.7 L 331.9,190.2 L 334.4,192.3 L 334.5,193.0 L 334.8,194.6 L 335.9,195.8 L 336.6,195.9 L 337.2,196.5 L 338.0,197.4 L 338.1,199.5 L 338.3,200.5 L 338.7,201.0 L 339.7,201.1 L 340.2,201.7 L 340.7,202.0 L 341.2,202.5 L 342.3,202.9 L 342.5,203.2 L 342.6,206.2 L 342.8,206.4 L 343.0,206.4 L 343.4,206.6 L 343.6,207.1 L 344.5,207.8 L 344.5,208.8 L 344.9,209.4 L 345.5,209.2 L 345.9,208.8 L 346.3,207.9 L 346.3,207.2 L 346.4,206.4 L 346.9,206.2 L 348.0,206.3 L 348.2,206.6 L 348.3,207.2 L 348.4,208.0 L 349.5,209.2 L 350.3,209.4 L 351.2,209.1 L 352.9,210.5 L 352.3,211.1 L 352.2,211.7 L 352.4,213.6 L 352.6,214.2 L 353.0,215.5 L 352.7,215.8 L 352.5,216.0 L 352.7,216.4 L 353.3,217.1 L 353.3,217.6 L 353.5,218.6 L 354.0,219.2 L 354.8,219.2 L 355.7,220.3 L 356.9,220.8 L 358.4,220.6 L 359.3,221.2 L 360.0,222.3 L 360.0,222.8 L 359.7,223.3 L 359.3,223.7 L 359.5,224.1 L 359.4,225.5 L 358.7,226.0 L 357.9,227.2 L 357.3,228.3 L 356.8,229.1 L 356.3,229.5 L 355.0,229.2 L 354.6,229.3 L 354.0,229.9 L 353.8,230.6 L 352.8,231.2 L 352.4,232.6 L 352.0,233.7 L 350.7,234.7 L 350.6,235.3 L 352.4,236.1 L 352.9,236.6 L 353.0,237.0 L 352.9,237.0 L 351.0,237.1 L 350.0,237.8 L 349.9,239.3 L 350.5,240.9 L 349.3,242.2 L 349.2,243.5 L 349.3,245.1 L 349.6,246.1 L 349.7,247.4 L 349.0,248.2 L 349.3,249.7 L 349.0,250.2 L 348.3,250.8 L 347.2,250.8 L 345.7,251.0 L 345.1,251.6 L 343.6,253.8 L 343.4,254.7 L 343.9,257.3 L 343.7,259.1 L 343.0,260.7 L 340.8,261.7 L 339.4,263.6 L 339.2,264.6 L 339.0,265.5 L 338.0,266.5 L 336.9,268.1 L 334.8,269.0 L 333.0,270.2 L 332.1,271.1 L 331.8,273.1 L 331.7,273.4 L 330.7,273.7 L 329.8,274.3 L 329.1,275.2 L 328.0,276.3 L 327.5,278.8 L 327.1,279.5 L 327.0,279.9 L 327.3,280.6 L 327.3,281.1 L 327.1,282.8 L 327.0,283.3 L 327.2,284.5 L 326.8,284.7 L 326.2,289.0 L 325.6,290.5 L 324.9,292.4 L 323.9,294.6 L 323.7,296.9 L 324.0,299.3 L 324.0,300.8 L 323.6,302.4 L 322.8,303.3 L 322.2,303.1 L 321.6,303.6 L 321.2,304.6 L 319.6,306.1 L 318.2,307.8 L 317.7,308.9 L 317.5,310.3 L 317.4,311.2 L 317.0,311.6 L 315.8,310.8 L 315.4,310.8 L 313.8,310.5 L 313.5,310.1 L 313.3,309.7 L 312.6,309.3 L 311.2,309.2 L 309.9,309.7 L 309.1,310.5 L 308.9,311.5 L 308.6,312.1 L 307.4,312.7 L 306.8,313.2 L 306.1,314.2 L 305.6,315.7 L 305.7,316.9 L 306.0,317.1 L 306.9,318.5 L 307.2,319.6 L 308.2,320.6 L 308.5,321.8 L 308.9,322.6 L 310.1,324.3 L 309.8,325.0 L 309.6,326.0 L 309.8,327.5 L 309.8,327.8 L 309.1,328.3 L 309.3,329.4 L 309.0,329.8 L 308.7,330.0 L 308.2,329.5 L 308.3,328.7 L 308.7,328.0 L 309.0,327.1 L 309.0,324.7 L 308.6,323.9 L 307.6,322.4 L 307.4,322.0 L 306.6,321.1 L 305.9,320.9 L 305.3,320.6 L 302.9,320.4 L 302.3,320.7 L 301.9,321.4 L 300.9,322.5 L 299.8,323.3 L 299.0,322.1 L 298.7,321.8 L 298.0,320.9 L 297.2,321.0 L 294.4,323.1 L 293.7,323.2 L 293.2,322.8 L 292.9,322.1 L 293.0,320.9 L 291.9,319.7 L 291.4,318.5 L 291.3,317.4 L 291.5,316.3 L 292.3,315.5 L 293.0,315.8 L 294.1,314.6 L 294.7,313.5 L 294.5,313.3 L 293.4,313.4 L 294.2,311.8 L 294.6,310.4 L 295.1,309.6 L 294.8,308.8 L 295.0,308.3 L 298.5,302.3 L 299.0,301.2 L 299.8,300.5 L 301.0,298.7 L 301.6,295.8 L 301.9,295.0 L 302.1,293.7 L 302.5,292.8 L 302.7,291.8 L 302.4,291.4 L 298.4,295.1 L 297.3,296.7 L 294.8,301.4 L 292.7,303.9 L 292.0,305.1 L 291.7,308.4 L 290.6,310.8 L 287.6,314.1 L 286.5,314.8 L 284.1,314.8 L 284.1,313.7 L 283.6,313.7 L 282.5,314.1 L 280.7,314.6 L 280.1,315.0 L 279.9,315.3 L 279.4,315.1 L 278.8,315.2 L 278.4,314.9 L 278.6,315.5 L 277.5,314.8 L 277.3,314.9 L 276.7,314.8 L 277.3,314.5 L 277.6,314.7 L 277.9,314.3 L 278.1,313.9 L 278.6,313.7 L 280.2,313.7 L 280.8,313.8 L 281.3,313.5 L 281.4,313.0 L 281.0,312.4 L 281.0,312.0 L 281.4,311.8 L 282.2,311.1 L 282.8,310.7 L 283.0,310.5 L 283.0,310.3 L 282.3,309.5 L 282.2,309.2 L 282.2,308.6 L 282.6,308.3 L 282.7,308.0 L 283.1,307.7 L 283.4,307.2 L 283.4,306.9 L 283.3,306.7 L 283.6,306.3 L 283.9,305.6 L 284.6,304.8 L 284.9,303.7 L 287.1,300.1 L 287.0,299.0 L 287.2,297.8 L 289.8,294.2 L 292.2,290.7 L 293.3,288.3 L 294.6,286.1 L 294.7,285.8 L 295.9,284.3 L 296.8,282.8 L 297.4,282.0 L 298.4,280.2 L 298.5,280.1 L 300.5,277.4 L 305.3,273.0 L 306.2,271.8 L 306.6,271.2 L 308.1,267.5 L 308.7,265.5 L 309.3,262.7 L 310.6,259.7 L 310.8,258.4 L 311.3,255.9 L 312.4,253.3 L 313.5,249.7 L 313.9,245.8 L 314.1,245.0 L 314.0,244.0 L 314.6,240.4 L 314.8,237.8 L 314.2,235.3 L 313.6,234.0 L 313.0,232.5 L 311.0,228.3 L 310.5,227.3 L 309.6,226.1 L 309.0,225.7 L 308.7,225.7 L 308.4,225.6 L 306.5,224.5 L 305.1,223.4 L 304.0,221.2 L 303.0,219.9 L 302.6,218.8 L 302.2,218.0 L 298.2,214.6 L 296.9,213.2 L 294.3,208.8 L 292.8,207.5 L 292.3,207.3 L 291.3,206.3 L 290.4,205.7 L 286.8,204.0 L 286.0,203.8 L 283.0,202.4 L 280.8,201.2 L 279.8,200.9 L 278.6,200.3 L 276.5,199.5 L 275.3,198.9 L 273.9,198.9 L 272.7,199.2 L 270.5,198.7 L 270.1,198.4 L 270.0,197.8 L 269.4,197.4 L 269.2,197.1 L 268.9,196.9 L 268.6,196.8 L 268.4,197.5 L 268.1,197.6 L 267.9,197.6 L 266.4,195.9 L 264.4,195.1 L 263.3,195.0 L 262.2,194.2 L 261.8,194.1 L 261.9,194.8 L 261.5,194.8 L 259.0,193.1 L 258.1,192.4 L 256.6,191.9 L 254.8,191.3 L 253.1,191.2 L 252.0,191.5 L 249.9,191.4 L 249.0,191.6 L 248.5,191.5 L 248.3,190.6 L 247.7,190.2 L 246.0,190.0 L 245.8,189.6 L 245.4,189.0 L 244.6,188.7 L 243.7,188.5 L 242.6,188.1 L 238.4,187.3 L 236.7,186.3 L 235.1,184.7 L 235.0,183.8 L 234.0,182.9 L 232.9,182.7 L 230.6,183.0 L 230.1,182.7 L 229.1,182.5 L 228.1,183.2 L 225.8,184.1 L 224.6,184.7 L 222.2,186.8 L 221.9,186.9 L 219.9,187.2 L 218.8,186.1 L 217.3,185.7 L 217.2,185.6 L 216.4,185.0 L 215.5,183.9 L 215.6,183.3 L 217.3,181.7 L 217.5,180.9 L 217.3,179.9 L 217.1,179.5 L 216.5,179.6 L 216.0,180.1 L 214.9,180.3 L 214.4,180.2 L 214.1,179.6 L 214.4,179.0 L 213.5,176.7 L 212.0,175.4 L 211.5,175.1 L 211.1,174.3 L 209.5,173.4 L 207.9,172.8 L 206.8,172.5 L 205.9,172.4 L 205.3,172.5 L 202.6,171.0 L 201.5,169.8 L 200.7,169.0 L 199.0,168.9 L 198.4,168.4 L 197.5,168.2 L 197.4,168.0 L 196.3,166.9 L 196.0,166.8 L 195.6,167.0 L 195.4,167.8 L 195.7,168.9 L 196.1,169.4 L 197.5,170.2 L 197.9,171.0 L 197.8,171.8 L 197.6,172.7 L 197.2,173.1 L 196.4,172.8 L 196.1,173.3 L 195.2,173.5 L 194.3,173.8 L 194.1,174.5 L 194.6,175.9 L 194.3,176.7 L 193.6,177.4 L 192.6,177.7 L 191.8,177.4 L 188.5,177.2 L 188.1,177.3 L 187.8,177.9 L 188.0,178.8 L 170.6,190.1 L 170.8,189.3 L 171.4,188.3 L 171.4,187.1 L 171.0,186.6 L 170.3,186.5 L 169.0,185.6 L 168.1,184.8 L 167.0,184.4 L 166.6,184.1 L 166.0,183.9 L 162.7,184.5 L 161.9,184.9 L 158.7,187.8 L 158.1,189.0 L 156.3,190.6 L 155.5,190.6 L 155.3,190.5 L 155.0,189.9 L 154.4,189.3 L 153.1,188.4 L 151.6,188.3 L 150.2,186.9 L 149.5,186.4 L 147.2,185.7 L 145.1,185.7 L 144.1,185.2 L 141.3,184.9 L 140.2,185.2 L 139.3,186.0 L 139.2,187.1 L 138.5,188.2 L 138.7,188.9 L 138.2,189.3 L 137.3,189.7 L 132.7,189.5 L 130.4,188.5 L 128.7,188.9 L 125.6,190.3 L 124.5,190.9 L 124.0,192.7 L 123.6,193.1 L 122.8,193.2 L 119.8,192.0 L 119.0,191.5 L 117.4,191.1 L 116.3,191.5 L 115.8,191.5 L 115.5,191.3 L 112.5,190.9 L 111.7,191.1 L 111.6,190.9 L 110.3,191.2 L 109.5,190.2 L 108.7,189.0 L 108.2,188.6 L 107.5,188.5 L 107.0,188.7 L 106.5,189.0 L 102.3,190.1 L 100.6,191.0 L 100.4,191.7 L 100.7,193.6 L 101.0,194.4 L 76.4,206.1 L 76.5,206.0 L 76.9,205.0 L 76.8,204.4 L 76.7,204.0 L 76.2,203.7 L 75.8,203.6 L 75.3,203.6 L 74.5,204.2 L 73.8,204.2 L 73.2,204.4 L 72.7,204.4 L 72.3,204.2 L 71.8,204.3 L 71.3,204.2 L 70.7,204.4 L 70.4,204.4 L 69.4,204.8 L 68.7,205.5 L 68.3,205.6 L 67.9,206.0 L 67.4,205.9 L 67.0,205.5 L 66.3,204.6 L 66.3,204.4 L 66.5,203.9 L 66.8,203.8 L 67.4,204.1 L 67.8,204.1 L 68.3,203.4 L 68.5,202.8 L 68.4,202.5 L 66.8,201.2 L 66.7,200.8 L 66.7,200.1 L 67.0,199.5 L 67.9,198.1 L 67.8,197.9 L 67.6,197.7 L 67.5,197.4 L 68.2,196.6 L 68.3,196.2 L 68.0,195.6 L 67.3,194.9 L 66.6,194.3 L 66.0,194.0 L 64.9,193.0 L 64.9,192.5 L 65.3,191.6 L 65.2,191.2 L 65.1,191.1 L 64.8,191.1 L 64.3,190.7 L 63.8,190.6 L 63.3,190.2 L 62.3,189.7 L 61.7,189.7 L 61.4,189.5 L 60.1,189.4 L 59.4,189.6 L 58.5,190.0 L 58.4,190.2 L 58.3,191.0 L 58.4,191.6 L 58.1,192.6 L 58.3,193.3 L 58.0,194.4 L 57.7,194.8 L 57.6,195.3 L 57.6,195.9 L 57.5,196.3 L 57.3,196.4 L 57.1,196.4 L 57.0,196.1 L 56.9,195.3 L 57.0,194.3 L 56.9,194.0 L 56.7,193.9 L 56.3,194.2 L 55.7,194.3 L 55.1,195.0 L 54.7,195.2 L 54.7,193.1 L 54.5,192.0 L 54.1,191.7 L 53.7,191.7 L 52.7,191.7 L 50.7,192.0 L 48.9,192.7 L 47.9,193.2 L 47.5,193.3 L 47.1,193.2 L 47.1,193.2 L 46.4,193.7 L 44.8,194.3 L 43.9,194.3 L 43.8,193.6 L 44.2,192.5 L 44.8,191.8 L 46.1,190.8 L 46.9,189.6 L 47.1,189.3 L 46.9,188.6 L 46.0,188.2 L 44.8,188.1 L 43.8,188.4 L 42.5,188.5 L 41.7,189.0 L 41.5,189.6 L 40.7,189.6 L 40.6,188.8 L 40.4,188.4 L 40.3,188.1 L 40.0,187.6 L 40.5,186.5 L 40.9,185.4 L 40.7,184.7 L 41.0,183.9 L 40.9,183.5 L 40.4,183.1 L 41.5,181.5 L 41.9,180.7 L 42.1,179.5 L 43.0,177.9 L 43.1,177.7 L 90.2,118.5 L 90.4,118.5 L 90.9,118.3 L 91.3,117.5 L 91.5,115.4 L 91.9,115.2 L 92.9,115.2 L 93.1,114.8 L 93.3,113.7 L 93.7,113.6 L 94.9,113.7 L 97.6,113.9 L 98.3,113.4 L 98.9,112.5 L 99.0,112.0 L 100.9,111.3 L 101.5,110.9 L 102.5,110.8 L 102.7,110.5 L 102.3,109.8 L 103.1,109.1 L 103.7,109.3 L 104.4,110.0 L 104.8,111.1 L 105.5,111.9 L 105.5,112.4 L 104.6,112.9 L 104.5,113.2 L 104.7,114.2 L 105.3,115.2 L 105.8,116.6 L 105.9,117.2 L 106.2,117.5 L 106.4,118.4 L 106.0,118.8 L 105.2,118.8 L 105.0,118.5 L 105.6,117.8 L 105.6,117.5 L 105.4,116.8 L 104.7,115.7 L 104.3,114.9 L 102.7,113.1 L 102.9,112.5 L 102.4,112.2 L 101.5,112.3 L 101.2,113.0 L 100.3,113.4 L 100.3,114.2 L 100.1,114.8 L 98.9,114.9 L 98.4,115.2 L 98.3,116.0 L 98.9,116.6 L 100.5,116.8 L 101.4,116.5 L 102.2,116.9 L 102.3,117.7 L 102.7,118.3 L 102.4,118.7 L 102.0,119.1 L 101.7,119.6 L 101.4,120.9 L 101.2,121.4 L 101.1,122.4 L 101.2,122.6 L 101.1,124.2 L 101.5,124.8 L 102.3,124.7 L 103.0,124.4 L 105.2,124.5 L 107.2,124.0 L 107.6,124.2 L 107.8,124.7 L 107.6,124.9 L 106.8,125.3 L 105.9,125.5 L 105.0,126.1 L 105.0,127.0 L 105.1,127.9 L 104.8,128.8 L 104.1,129.2 L 103.6,129.9 L 103.2,130.1 L 102.8,129.7 L 103.0,129.0 L 103.8,128.3 L 103.9,127.4 L 103.7,127.0 L 102.0,126.5 L 101.4,126.7 L 100.9,127.3 L 101.0,127.8 L 100.9,128.2 L 100.0,128.4 L 99.4,128.9 L 99.7,129.8 L 100.0,130.3 L 100.8,130.3 L 101.5,130.0 L 101.8,130.2 L 101.7,130.8 L 101.2,131.1 L 100.6,131.8 L 100.4,132.8 L 100.2,133.5 L 100.1,135.1 L 100.2,135.3 L 101.0,135.2 L 101.5,134.4 L 102.0,134.2 L 103.7,134.5 L 104.1,134.2 L 105.5,133.6 L 106.7,133.6 L 108.0,132.9 L 108.0,132.5 L 107.7,131.3 L 107.9,129.9 L 108.2,128.7 L 108.6,128.7 L 109.6,129.1 L 110.2,129.0 L 110.8,128.5 L 111.4,128.8 L 111.7,128.1 L 112.1,128.2 L 112.7,128.8 L 112.8,128.9 L 113.0,129.5 L 113.7,130.1 L 114.9,131.0 L 115.0,131.6 L 115.7,132.4 L 116.9,133.0 L 117.4,133.8 L 118.5,134.1 L 119.6,134.8 L 121.0,135.1 L 121.4,135.3 L 121.7,135.9 L 123.5,137.1 L 123.5,137.8 L 123.7,138.1 L 124.4,138.6 L 125.0,138.2 L 125.7,139.3 L 125.8,139.9 L 125.3,141.1 L 124.9,141.5 L 123.8,142.0 L 123.1,142.6 L 123.0,143.5 L 123.3,144.3 L 123.0,145.0 L 123.2,145.7 L 124.0,146.5 L 124.9,147.0 L 125.5,148.5 L 125.6,150.4 L 126.4,151.2 L 129.5,151.5 L 130.1,152.4 L 129.5,153.1 L 129.3,153.7 L 129.6,154.1 L 130.0,154.7 L 130.4,155.9 L 129.8,155.9 L 128.5,155.6 L 126.5,155.8 L 126.1,156.1 L 126.0,156.8 L 126.6,157.4 L 128.5,159.0 L 129.1,159.0 L 129.8,158.4 L 131.4,158.6 L 131.5,156.9 L 131.9,156.8 L 132.2,157.3 L 133.0,157.8 L 134.0,158.0 L 134.4,158.6 L 134.2,158.8 L 134.2,159.2 L 134.6,159.2 L 134.6,158.9 L 134.7,158.7 L 135.8,158.4 L 136.4,157.7 L 136.9,158.2 L 137.7,158.1 L 138.4,157.1 L 138.8,156.8 L 140.0,157.2 L 142.6,157.6 L 145.6,158.6 L 147.2,158.9 L 148.1,158.5 L 148.5,159.0 L 149.1,159.3 L 149.8,160.3 L 150.7,160.4 L 151.8,160.0 L 152.9,159.8 L 153.8,161.3 L 154.3,162.4 L 154.9,163.1 L 155.9,163.5 L 156.9,163.6 L 158.0,164.1 L 159.0,164.3 L 161.2,164.7 L 165.7,164.9 L 166.1,164.5 L 166.5,164.0 L 166.8,163.8 L 167.2,163.4 L 167.6,163.0 L 166.1,160.6 L 164.5,160.3 L 163.7,159.3 L 164.0,158.9 L 163.6,158.4 L 162.8,158.3 L 162.9,157.3" fill="none" stroke="black" stroke-width="2"/>
</svg>