<?xml version="1.0" encoding="UTF-8"?>
<svg width="400" height="400" viewBox="0 0 400 400" xmlns="http://www.w3.org/2000/svg">
  <rect width="400" height="400" fill="white"/>
  <path d="M 235.8,360.0 L 235.9,358.8 L 236.5,358.0 L 237.7,356.2 L 237.1,355.2 L 235.9,356.3 L 234.8,356.4 L 234.9,355.1 L 237.3,352.7 L 237.4,350.4 L 236.1,347.5 L 236.5,344.0 L 238.6,340.5 L 239.1,331.5 L 239.1,328.4 L 237.4,326.6 L 229.6,322.7 L 226.8,321.7 L 215.4,320.8 L 214.6,319.9 L 214.6,315.7 L 214.5,315.2 L 213.5,314.6 L 205.4,315.7 L 200.5,315.1 L 194.7,315.1 L 192.3,315.3 L 190.6,316.1 L 189.2,318.4 L 188.9,320.5 L 192.3,325.6 L 193.9,326.9 L 197.3,326.7 L 198.9,327.3 L 200.5,328.6 L 200.9,329.4 L 196.7,330.6 L 194.2,330.8 L 191.6,333.1 L 189.8,334.1 L 190.1,337.8 L 190.8,339.9 L 191.0,341.7 L 190.5,342.5 L 188.4,343.1 L 186.4,344.6 L 185.4,344.7 L 183.3,343.1 L 180.5,342.4 L 179.5,341.1 L 179.4,339.2 L 177.5,337.1 L 177.4,336.4 L 176.3,334.5 L 173.1,333.9 L 172.3,333.5 L 171.5,334.2 L 168.5,335.5 L 165.5,337.3 L 161.0,338.5 L 157.2,340.3 L 156.9,340.7 L 155.8,341.5 L 155.3,341.1 L 154.7,339.6 L 155.4,332.4 L 156.8,328.8 L 158.0,326.9 L 160.6,323.5 L 164.9,319.5 L 169.6,316.9 L 174.7,314.9 L 178.0,311.6 L 179.5,309.3 L 179.6,307.8 L 179.3,306.2 L 179.7,303.9 L 182.4,299.0 L 182.9,296.7 L 184.5,294.4 L 185.1,292.3 L 187.1,288.6 L 189.7,286.7 L 191.0,285.1 L 194.2,282.3 L 196.5,279.1 L 197.0,275.2 L 198.4,271.6 L 197.7,262.3 L 197.4,261.5 L 197.3,257.6 L 196.1,255.3 L 196.1,251.3 L 194.7,247.4 L 194.5,244.5 L 193.4,242.3 L 192.8,239.9 L 193.4,237.6 L 191.0,230.1 L 191.2,226.6 L 192.6,224.2 L 193.0,223.4 L 193.2,220.6 L 191.3,217.6 L 189.2,215.0 L 188.1,213.1 L 185.5,211.1 L 183.2,209.7 L 181.4,207.4 L 178.8,199.6 L 177.8,195.9 L 177.4,192.8 L 177.6,190.1 L 174.7,186.3 L 173.6,180.4 L 173.9,176.2 L 174.6,174.8 L 174.1,171.4 L 172.4,168.7 L 172.5,165.8 L 171.9,164.8 L 170.7,160.1 L 168.5,156.7 L 168.1,156.1 L 166.6,153.7 L 163.9,151.6 L 161.9,151.0 L 156.6,148.0 L 154.8,145.9 L 153.5,142.7 L 154.2,140.3 L 154.2,137.8 L 153.3,136.7 L 151.7,136.3 L 151.3,135.0 L 148.3,132.4 L 147.5,132.1 L 147.0,131.3 L 146.1,129.0 L 142.3,126.1 L 139.9,125.3 L 138.6,123.8 L 138.7,122.4 L 136.9,121.0 L 136.6,119.8 L 134.8,118.5 L 129.2,120.0 L 127.2,120.3 L 125.2,118.7 L 124.1,116.9 L 121.2,112.5 L 120.4,108.9 L 120.0,105.8 L 120.3,104.5 L 121.7,102.2 L 122.3,101.3 L 123.3,98.9 L 122.7,97.6 L 122.4,97.2 L 120.3,92.8 L 117.5,89.5 L 115.2,85.9 L 114.2,84.8 L 114.0,80.9 L 113.0,78.7 L 112.4,76.5 L 110.7,74.7 L 110.2,74.5 L 130.8,40.3 L 130.9,40.0 L 131.3,40.8 L 131.4,41.0 L 133.0,42.4 L 133.7,43.9 L 133.8,49.8 L 134.1,51.9 L 137.1,59.3 L 138.2,62.6 L 138.6,65.1 L 139.3,66.7 L 140.4,70.7 L 141.1,72.0 L 143.1,77.9 L 144.9,80.2 L 147.7,81.6 L 150.7,82.2 L 156.8,86.5 L 159.2,87.8 L 163.4,92.1 L 165.7,95.1 L 170.7,98.0 L 171.5,98.1 L 174.1,100.0 L 173.9,103.1 L 174.1,107.2 L 174.2,110.1 L 173.2,111.9 L 172.9,113.7 L 173.1,115.7 L 175.1,117.1 L 176.3,119.0 L 177.2,120.1 L 177.8,121.4 L 176.6,123.4 L 176.8,126.5 L 177.7,128.0 L 177.9,129.6 L 180.5,134.7 L 186.0,141.6 L 187.7,143.2 L 188.8,146.1 L 190.9,148.6 L 191.8,150.5 L 194.4,152.1 L 199.0,157.2 L 201.0,158.3 L 202.0,158.1 L 204.8,154.9 L 205.6,154.6 L 207.8,154.5 L 211.4,156.0 L 214.9,158.3 L 219.0,162.0 L 221.7,164.0 L 224.1,168.0 L 225.9,170.0 L 226.4,172.9 L 227.2,174.0 L 228.8,174.3 L 230.3,175.6 L 231.1,177.3 L 232.2,179.0 L 232.8,179.6 L 232.7,181.1 L 230.9,185.1 L 229.3,186.2 L 224.5,188.0 L 221.0,191.0 L 219.0,193.2 L 218.6,197.3 L 219.7,198.6 L 222.5,205.3 L 223.5,211.5 L 225.7,222.8 L 227.6,226.3 L 230.6,232.5 L 233.6,234.9 L 236.0,236.5 L 237.5,237.8 L 237.8,240.7 L 240.1,242.3 L 242.4,242.0 L 245.4,239.3 L 246.3,237.7 L 248.3,236.2 L 250.9,233.5 L 252.4,233.1 L 260.9,228.3 L 262.4,227.0 L 266.5,226.6 L 268.2,226.1 L 272.1,226.9 L 273.6,228.1 L 273.7,229.1 L 276.3,234.7 L 274.9,238.1 L 273.2,239.3 L 270.8,241.4 L 268.9,245.6 L 268.4,251.1 L 266.0,253.7 L 265.6,260.6 L 267.1,266.2 L 267.1,268.7 L 265.3,271.9 L 264.6,272.7 L 264.3,274.3 L 265.0,277.0 L 265.3,279.1 L 266.6,279.9 L 267.6,281.0 L 267.5,282.6 L 266.1,285.5 L 265.9,289.2 L 262.7,291.4 L 262.0,291.8 L 261.2,293.0 L 261.7,294.2 L 261.9,298.3 L 261.1,300.3 L 257.0,304.9 L 256.5,307.9 L 254.5,310.6 L 254.3,315.2 L 254.8,317.2 L 257.7,319.4 L 258.6,319.1 L 260.1,317.8 L 261.1,317.8 L 267.4,318.0 L 271.9,316.2 L 274.8,314.7 L 277.4,312.8 L 279.3,312.9 L 279.6,313.3 L 287.9,319.4 L 289.8,322.1 L 288.7,323.9 L 287.9,325.8 L 286.8,330.8 L 286.0,331.8 L 282.9,333.3 L 281.6,334.6 L 282.2,337.1 L 282.1,341.0 L 281.2,343.0 L 279.4,345.8 L 278.9,347.4 L 275.1,349.0 L 273.1,351.4 L 268.5,355.2 L 265.7,355.2 L 262.5,353.0 L 260.6,352.9 L 259.0,353.1 L 257.7,353.1 L 255.3,352.3 L 254.6,351.5 L 254.4,350.8 L 253.4,350.1 L 251.0,349.2 L 248.1,349.6 L 243.8,351.9 L 238.4,357.1 L 237.1,358.6 L 236.7,359.8 L 235.8,360.0" fill="none" stroke="black" stroke-width="2"/>
</svg>