<?xml version="1.0" encoding="UTF-8"?>
<svg width="400" height="400" viewBox="0 0 400 400" xmlns="http://www.w3.org/2000/svg">
  <rect width="400" height="400" fill="white"/>
  <path d="M 126.7,251.6 L 114.8,169.4 L 115.3,169.3 L 115.6,169.1 L 115.7,168.2 L 115.2,168.1 L 114.8,168.4 L 114.7,168.6 L 112.0,150.2 L 112.1,150.2 L 112.2,149.9 L 111.9,149.0 L 111.9,149.0 L 111.1,143.7 L 111.4,143.7 L 111.7,143.2 L 111.5,143.0 L 111.1,143.4 L 110.5,138.7 L 111.2,139.2 L 111.7,139.1 L 112.0,139.0 L 112.5,139.2 L 113.1,139.2 L 114.0,138.8 L 114.5,138.8 L 115.0,138.0 L 115.3,137.2 L 116.5,136.3 L 116.7,135.6 L 117.1,135.3 L 118.1,135.3 L 118.0,135.0 L 117.2,134.9 L 117.3,133.8 L 117.9,132.7 L 118.5,132.3 L 118.4,132.1 L 117.4,131.9 L 117.5,129.7 L 117.3,129.4 L 117.0,129.3 L 118.9,124.7 L 119.2,124.7 L 120.4,124.1 L 120.9,123.3 L 120.9,122.6 L 120.4,122.1 L 120.1,122.1 L 120.0,122.1 L 121.4,118.9 L 121.7,118.9 L 122.7,118.2 L 122.1,117.9 L 122.3,117.5 L 122.2,117.3 L 122.3,117.0 L 122.2,116.9 L 123.5,113.8 L 123.6,113.7 L 123.8,113.6 L 123.7,113.5 L 123.7,113.5 L 126.6,106.6 L 126.8,106.2 L 127.1,106.6 L 127.7,106.6 L 128.3,106.4 L 129.7,106.2 L 131.7,105.6 L 134.3,104.4 L 135.4,103.7 L 135.5,103.2 L 135.5,102.9 L 135.2,102.5 L 134.6,102.4 L 133.6,102.7 L 133.0,102.8 L 132.6,102.4 L 131.7,102.4 L 129.1,103.2 L 128.5,104.0 L 128.2,103.7 L 126.8,105.4 L 151.4,60.4 L 151.7,60.6 L 152.3,60.5 L 152.5,60.1 L 152.5,59.4 L 152.2,59.1 L 152.2,59.1 L 156.5,51.5 L 156.6,51.3 L 156.6,51.5 L 158.3,51.5 L 158.6,51.5 L 159.1,51.7 L 159.6,51.7 L 160.3,51.0 L 160.8,50.5 L 161.8,49.9 L 162.6,49.9 L 164.6,49.0 L 165.3,48.3 L 165.6,47.7 L 165.7,47.2 L 166.0,47.1 L 165.9,46.5 L 165.6,46.0 L 165.6,45.8 L 165.9,45.9 L 166.9,46.6 L 167.6,46.3 L 168.2,45.8 L 168.3,45.2 L 167.6,44.4 L 167.7,44.2 L 168.5,44.1 L 168.8,43.9 L 169.9,44.0 L 170.6,44.3 L 171.5,44.3 L 173.0,43.7 L 173.6,43.7 L 174.9,44.9 L 176.0,45.0 L 176.5,45.5 L 176.4,46.0 L 175.9,46.4 L 175.9,46.8 L 176.4,46.9 L 176.9,47.2 L 177.1,47.9 L 177.8,48.7 L 178.1,48.7 L 178.2,47.8 L 178.1,47.2 L 178.1,47.0 L 178.5,46.9 L 178.5,46.5 L 178.1,46.1 L 178.3,45.6 L 178.7,45.1 L 179.0,44.2 L 178.8,42.8 L 178.4,41.3 L 178.3,40.3 L 183.0,40.0 L 183.1,40.0 L 183.1,40.0 L 183.5,40.5 L 183.9,40.6 L 184.2,40.9 L 183.6,41.2 L 182.6,42.1 L 182.5,42.4 L 182.7,42.8 L 181.5,43.9 L 181.4,44.5 L 182.1,44.6 L 182.4,44.9 L 180.1,45.9 L 179.6,46.3 L 179.7,47.1 L 180.2,47.6 L 181.2,47.6 L 182.6,46.4 L 182.7,46.1 L 183.8,46.1 L 183.9,46.0 L 184.9,45.5 L 185.6,45.0 L 186.5,45.1 L 187.3,44.4 L 188.9,44.5 L 188.7,44.8 L 186.9,45.4 L 186.0,46.0 L 185.0,47.3 L 184.9,47.8 L 185.6,48.2 L 186.4,48.3 L 187.2,48.9 L 187.2,49.1 L 185.6,49.6 L 185.0,49.4 L 184.2,49.4 L 183.5,49.7 L 182.4,50.3 L 181.1,50.7 L 180.3,51.1 L 180.2,51.4 L 180.4,52.2 L 181.4,54.6 L 181.6,54.9 L 182.9,56.3 L 183.1,56.5 L 184.2,56.7 L 184.5,57.0 L 183.9,58.3 L 183.0,58.9 L 182.7,58.9 L 182.5,58.9 L 181.7,58.5 L 180.8,58.2 L 178.2,59.8 L 177.4,60.4 L 177.2,61.2 L 177.0,64.4 L 177.6,65.2 L 178.4,65.7 L 178.5,66.4 L 178.6,66.7 L 179.4,66.7 L 181.4,66.2 L 182.0,66.1 L 185.1,65.8 L 185.6,65.6 L 185.5,64.8 L 184.8,63.1 L 185.0,62.7 L 185.4,62.7 L 185.4,63.0 L 185.7,63.5 L 186.3,63.8 L 186.2,64.7 L 186.6,65.1 L 188.0,65.1 L 190.0,64.4 L 191.0,64.4 L 193.8,62.5 L 195.3,61.8 L 195.5,61.5 L 195.2,61.3 L 193.8,61.5 L 193.7,61.3 L 194.8,60.5 L 197.2,60.0 L 198.9,59.5 L 199.8,59.6 L 201.0,59.3 L 201.5,58.9 L 201.2,58.6 L 200.8,58.4 L 200.6,57.9 L 201.1,57.6 L 201.7,57.6 L 202.4,58.0 L 202.8,58.7 L 203.1,58.6 L 203.3,57.9 L 203.6,57.7 L 204.4,57.7 L 204.8,58.3 L 206.0,58.3 L 207.0,57.9 L 207.5,57.3 L 207.9,57.6 L 208.2,57.9 L 208.5,57.9 L 208.9,57.5 L 210.0,57.4 L 210.9,57.7 L 211.7,57.6 L 212.5,57.4 L 212.8,57.3 L 212.8,57.4 L 212.8,58.7 L 212.5,58.7 L 210.9,59.1 L 209.2,59.4 L 206.0,60.4 L 204.0,61.9 L 203.3,62.9 L 203.4,63.3 L 202.9,63.7 L 202.2,65.1 L 200.6,66.5 L 200.3,66.7 L 200.3,65.7 L 200.3,62.6 L 199.9,61.9 L 199.0,61.5 L 198.1,61.7 L 197.0,62.3 L 195.6,63.4 L 192.6,65.6 L 191.7,65.6 L 188.9,67.0 L 188.5,67.3 L 188.3,68.0 L 187.9,67.9 L 187.4,68.7 L 186.5,69.8 L 185.1,71.2 L 183.8,72.7 L 184.2,75.2 L 184.6,75.6 L 185.3,76.9 L 186.4,76.9 L 187.8,78.3 L 188.8,78.5 L 189.4,78.9 L 189.5,79.3 L 189.0,79.8 L 188.9,80.3 L 189.1,80.6 L 189.9,80.7 L 187.5,85.7 L 186.0,85.1 L 184.8,85.0 L 184.0,85.3 L 183.4,86.2 L 182.7,87.7 L 180.9,89.2 L 180.7,92.1 L 180.9,92.6 L 181.1,93.5 L 181.4,94.0 L 182.0,95.0 L 182.7,95.7 L 183.3,95.7 L 183.6,95.4 L 185.1,95.5 L 185.8,96.6 L 185.5,99.1 L 185.0,99.1 L 184.0,97.9 L 183.8,98.1 L 183.9,100.3 L 183.8,100.8 L 183.4,100.5 L 183.5,100.3 L 183.0,99.7 L 182.5,100.3 L 181.7,100.3 L 181.6,100.6 L 182.0,101.5 L 181.9,102.9 L 182.0,103.9 L 182.2,104.1 L 182.9,104.1 L 183.5,103.3 L 183.6,102.4 L 183.9,102.5 L 184.1,103.0 L 184.0,103.4 L 184.2,103.9 L 184.5,103.8 L 185.5,102.7 L 185.6,102.1 L 186.0,101.6 L 186.1,101.3 L 185.7,100.9 L 185.9,99.7 L 186.2,99.9 L 187.2,101.0 L 187.2,101.7 L 186.7,102.5 L 186.5,103.8 L 186.0,104.5 L 185.9,105.3 L 185.9,106.7 L 186.6,107.1 L 186.9,107.1 L 187.8,106.5 L 188.0,105.9 L 188.4,105.4 L 188.0,105.2 L 187.9,105.3 L 187.5,105.4 L 186.9,104.8 L 186.6,104.7 L 186.8,104.1 L 187.4,103.6 L 187.8,103.8 L 188.1,103.5 L 188.3,103.7 L 188.7,104.3 L 189.0,104.1 L 189.4,103.3 L 189.8,103.4 L 190.0,103.7 L 189.3,104.6 L 189.9,104.9 L 189.9,105.2 L 189.6,105.5 L 189.5,106.1 L 189.0,105.9 L 188.6,105.9 L 188.1,107.0 L 188.3,107.4 L 187.2,108.5 L 186.1,109.0 L 185.3,109.1 L 184.5,108.1 L 184.9,107.4 L 184.6,107.0 L 184.1,106.8 L 183.6,107.0 L 183.5,107.5 L 184.0,108.1 L 183.6,108.6 L 183.4,110.0 L 183.2,110.9 L 183.0,111.0 L 182.8,110.7 L 182.7,109.7 L 182.7,108.3 L 182.3,107.6 L 182.0,107.4 L 181.9,106.7 L 181.8,105.6 L 181.5,104.7 L 181.5,104.1 L 179.6,101.4 L 179.0,100.9 L 178.7,100.8 L 177.7,100.4 L 176.9,100.3 L 175.9,100.8 L 175.1,101.7 L 174.9,102.6 L 174.3,103.1 L 173.8,103.9 L 173.7,105.6 L 174.4,106.4 L 174.5,106.7 L 175.1,107.2 L 176.1,107.1 L 176.9,106.4 L 177.0,106.8 L 178.0,107.4 L 178.1,107.4 L 178.8,107.5 L 179.5,108.1 L 180.2,108.1 L 180.7,107.6 L 181.5,107.7 L 181.6,107.8 L 181.5,108.2 L 180.1,110.1 L 179.6,109.9 L 179.3,110.2 L 178.4,111.2 L 178.1,111.3 L 178.0,110.5 L 177.8,110.3 L 177.8,110.3 L 177.3,110.9 L 177.0,112.1 L 177.2,113.8 L 177.4,114.1 L 177.7,114.4 L 178.1,115.9 L 178.4,116.7 L 178.7,117.3 L 179.1,117.7 L 179.0,118.1 L 180.1,118.7 L 180.2,118.9 L 180.5,120.3 L 180.9,121.3 L 180.9,121.9 L 181.1,122.2 L 182.6,122.2 L 183.6,121.7 L 184.0,121.1 L 184.2,119.5 L 184.5,119.6 L 185.4,120.1 L 186.2,120.1 L 186.7,119.7 L 187.3,119.6 L 187.4,119.5 L 188.8,119.3 L 190.0,119.0 L 190.9,119.2 L 192.0,119.8 L 192.0,120.0 L 191.9,120.2 L 189.8,121.2 L 188.6,121.5 L 186.8,121.7 L 186.5,122.0 L 185.9,125.0 L 186.3,126.5 L 187.2,128.7 L 187.9,129.6 L 187.6,129.8 L 188.3,132.6 L 188.6,132.9 L 189.3,134.0 L 190.2,134.5 L 190.4,135.0 L 190.7,135.3 L 191.1,135.5 L 191.6,135.6 L 192.1,135.6 L 192.3,135.8 L 191.5,136.3 L 191.3,136.8 L 191.5,137.3 L 191.9,137.8 L 192.2,137.9 L 192.8,138.6 L 193.5,138.7 L 193.8,138.8 L 193.9,139.7 L 194.0,140.4 L 194.6,140.8 L 194.9,142.1 L 195.3,142.3 L 195.8,142.1 L 196.7,143.3 L 197.3,143.3 L 198.0,142.7 L 198.8,141.5 L 199.1,142.1 L 199.5,142.3 L 199.2,142.8 L 199.1,143.6 L 199.1,144.5 L 199.6,144.7 L 199.9,144.8 L 200.5,145.0 L 201.0,144.9 L 202.2,144.9 L 202.4,144.7 L 202.9,144.7 L 202.8,145.2 L 202.3,146.5 L 201.7,147.3 L 201.6,148.3 L 203.3,148.5 L 203.1,148.8 L 201.8,149.1 L 201.1,149.6 L 201.0,149.9 L 202.1,150.6 L 203.5,150.5 L 204.1,150.7 L 206.0,150.9 L 207.8,150.8 L 208.1,151.0 L 208.1,151.3 L 208.3,151.6 L 208.3,151.8 L 207.4,152.9 L 207.4,153.4 L 208.3,153.5 L 208.7,153.7 L 208.5,153.9 L 208.5,154.3 L 210.7,154.3 L 212.6,154.2 L 213.2,153.3 L 213.6,153.5 L 214.4,154.1 L 215.2,154.5 L 215.4,155.0 L 214.4,155.7 L 213.2,155.8 L 213.0,156.2 L 211.7,156.4 L 211.3,156.6 L 211.1,156.9 L 210.4,157.5 L 209.8,157.5 L 209.1,157.7 L 206.7,157.9 L 206.7,158.5 L 207.2,158.9 L 208.7,158.8 L 209.3,158.6 L 209.5,158.8 L 209.5,159.3 L 208.7,159.7 L 208.6,160.0 L 208.4,160.3 L 207.9,160.5 L 207.8,160.8 L 208.1,161.3 L 208.6,161.2 L 208.8,161.1 L 208.8,160.8 L 209.4,160.8 L 210.0,161.1 L 210.9,161.9 L 211.3,161.8 L 211.7,161.5 L 213.0,161.5 L 215.1,161.1 L 216.2,161.5 L 217.2,161.4 L 217.3,160.8 L 218.4,160.7 L 218.8,160.6 L 219.0,159.9 L 221.2,159.5 L 222.1,159.6 L 222.3,159.8 L 222.2,160.2 L 222.1,160.5 L 222.2,160.6 L 225.0,160.6 L 225.7,160.3 L 225.2,159.8 L 225.4,159.6 L 227.0,159.7 L 227.9,161.3 L 227.6,161.8 L 227.5,162.3 L 227.6,163.2 L 228.6,164.8 L 229.1,165.2 L 230.1,165.7 L 230.1,166.9 L 229.3,167.2 L 229.1,167.5 L 229.5,167.7 L 231.6,167.7 L 231.6,167.3 L 231.3,166.9 L 231.4,166.4 L 232.9,165.8 L 234.8,165.1 L 234.8,165.1 L 237.3,165.1 L 238.2,164.5 L 238.2,163.3 L 238.0,162.7 L 238.4,162.4 L 239.1,162.5 L 239.5,163.1 L 240.2,163.5 L 241.8,164.2 L 242.8,164.3 L 243.3,164.1 L 244.4,164.2 L 244.8,164.6 L 245.7,164.9 L 246.6,165.5 L 246.9,165.4 L 247.3,164.9 L 247.7,164.9 L 248.4,165.4 L 249.2,165.5 L 250.0,165.8 L 251.1,165.9 L 252.6,165.8 L 253.1,166.0 L 253.5,166.6 L 253.7,167.3 L 256.3,169.9 L 256.3,170.1 L 254.6,180.3 L 254.6,180.3 L 252.8,179.5 L 252.0,179.4 L 251.5,179.7 L 251.1,180.4 L 251.1,180.9 L 251.3,181.5 L 251.5,181.9 L 252.4,182.5 L 253.1,182.5 L 254.2,182.8 L 253.9,184.6 L 252.8,184.5 L 251.2,185.0 L 247.4,185.3 L 246.1,185.3 L 245.7,184.9 L 245.4,184.4 L 245.0,184.3 L 243.4,184.8 L 242.9,185.1 L 242.3,186.6 L 241.8,186.9 L 240.8,187.7 L 237.9,188.0 L 237.5,188.2 L 237.6,188.7 L 237.9,189.1 L 238.8,190.1 L 239.4,191.0 L 239.5,191.7 L 239.7,192.0 L 239.8,193.0 L 240.3,193.6 L 241.6,193.8 L 242.2,194.3 L 242.2,194.9 L 241.2,196.1 L 241.2,196.6 L 242.1,197.1 L 242.6,197.7 L 241.8,197.7 L 241.5,198.2 L 241.1,198.2 L 240.4,197.8 L 238.7,196.4 L 237.5,195.8 L 235.3,193.3 L 234.1,191.3 L 233.1,190.2 L 233.1,190.1 L 232.2,190.2 L 231.7,190.4 L 231.6,191.1 L 231.4,191.2 L 229.8,189.4 L 228.9,189.0 L 228.5,189.0 L 228.3,190.0 L 227.7,189.9 L 227.3,189.4 L 226.8,188.4 L 225.9,187.9 L 225.0,187.7 L 224.3,187.1 L 223.4,186.5 L 223.1,186.2 L 220.8,185.9 L 220.2,185.4 L 218.2,185.2 L 216.6,185.3 L 215.7,185.7 L 215.2,186.4 L 214.9,187.2 L 214.1,187.6 L 212.8,187.6 L 211.5,188.0 L 210.3,187.8 L 209.3,188.1 L 207.6,188.1 L 206.8,188.9 L 206.3,189.1 L 205.6,188.8 L 203.8,188.6 L 203.8,189.3 L 203.3,189.5 L 202.4,190.3 L 202.3,191.7 L 203.0,191.9 L 203.8,192.8 L 204.7,193.5 L 205.5,193.8 L 205.8,194.1 L 205.3,194.3 L 204.2,194.3 L 204.0,193.8 L 203.7,193.5 L 203.1,193.3 L 202.8,193.2 L 202.2,193.7 L 202.4,194.3 L 201.9,194.9 L 203.3,195.8 L 203.6,196.4 L 202.2,197.6 L 202.1,198.2 L 202.5,198.5 L 203.0,198.3 L 203.4,197.7 L 204.8,197.8 L 206.2,198.1 L 206.9,198.6 L 207.7,199.0 L 208.4,199.7 L 209.5,201.4 L 210.2,202.5 L 210.7,203.6 L 211.4,204.6 L 212.1,205.0 L 213.4,205.4 L 214.2,205.3 L 214.6,204.7 L 215.4,204.7 L 215.9,205.3 L 215.9,205.7 L 215.4,206.1 L 214.5,206.4 L 214.0,206.9 L 212.0,207.4 L 211.4,207.4 L 210.9,207.2 L 210.3,207.1 L 209.9,207.2 L 210.2,208.0 L 210.0,208.2 L 209.7,208.2 L 208.8,207.9 L 208.1,207.4 L 207.6,207.4 L 206.9,206.8 L 206.6,206.9 L 205.4,208.1 L 203.8,209.0 L 203.0,208.8 L 203.0,209.6 L 203.5,210.3 L 204.3,210.2 L 205.3,209.6 L 206.3,209.4 L 207.1,209.4 L 207.9,209.0 L 208.4,209.1 L 209.3,209.7 L 209.9,209.8 L 210.8,211.6 L 212.5,212.1 L 214.2,212.3 L 215.4,212.3 L 217.0,212.6 L 218.0,212.7 L 218.0,212.8 L 219.3,213.3 L 219.7,214.1 L 220.4,214.3 L 221.4,214.4 L 222.5,214.5 L 223.7,215.0 L 224.2,214.8 L 225.6,213.3 L 225.7,213.3 L 226.1,213.1 L 228.4,212.4 L 229.0,212.5 L 230.1,212.8 L 231.0,213.0 L 231.5,213.1 L 231.5,213.1 L 232.3,213.6 L 232.4,213.7 L 232.4,213.8 L 232.7,214.0 L 233.0,213.9 L 234.0,215.7 L 233.5,216.3 L 233.4,217.6 L 233.2,218.0 L 233.0,218.5 L 233.0,219.0 L 234.0,220.2 L 234.3,220.8 L 234.1,221.4 L 234.5,222.1 L 234.6,222.8 L 235.1,223.9 L 236.0,224.4 L 238.5,224.6 L 239.8,224.1 L 240.9,224.2 L 241.8,225.1 L 244.9,225.1 L 246.1,224.7 L 247.9,224.4 L 248.6,224.0 L 248.8,223.4 L 249.3,223.0 L 248.8,222.0 L 248.2,221.3 L 248.0,220.5 L 248.4,220.4 L 249.3,220.4 L 249.6,219.9 L 249.4,219.5 L 249.3,219.4 L 249.4,218.8 L 250.1,218.2 L 250.6,217.1 L 250.7,216.4 L 250.3,215.4 L 250.2,215.0 L 250.2,214.9 L 250.4,214.4 L 251.1,213.7 L 251.6,213.3 L 251.6,213.0 L 251.5,212.6 L 251.5,212.4 L 251.7,212.2 L 251.7,211.6 L 251.3,210.4 L 250.9,209.9 L 250.5,208.9 L 250.5,208.9 L 251.0,208.4 L 251.3,208.5 L 253.7,208.7 L 254.2,209.1 L 256.7,211.3 L 256.6,211.6 L 256.1,211.7 L 256.1,212.1 L 257.0,212.1 L 257.7,211.9 L 258.9,212.2 L 259.8,212.3 L 260.4,212.5 L 260.8,212.9 L 261.0,213.5 L 262.1,213.5 L 262.9,213.5 L 264.1,212.2 L 264.7,211.8 L 265.9,212.0 L 266.9,211.9 L 267.4,211.9 L 268.0,211.4 L 267.9,209.8 L 268.0,209.5 L 268.8,209.6 L 269.0,210.3 L 269.7,210.8 L 270.6,211.2 L 270.9,211.1 L 271.1,210.6 L 270.9,209.6 L 272.0,208.8 L 272.0,208.6 L 278.1,210.3 L 278.3,210.4 L 278.0,212.0 L 278.1,213.0 L 278.9,213.7 L 280.3,214.9 L 281.3,217.0 L 281.3,217.1 L 281.4,218.2 L 282.1,220.6 L 282.5,221.2 L 283.7,221.9 L 286.2,221.9 L 286.9,221.7 L 288.8,220.7 L 289.1,220.8 L 289.4,221.2 L 289.5,228.1 L 288.4,228.0 L 287.5,227.5 L 286.7,227.4 L 285.6,229.1 L 285.5,230.2 L 286.4,231.5 L 286.2,232.5 L 285.0,235.0 L 284.5,235.5 L 284.0,236.5 L 283.0,237.4 L 281.9,238.1 L 281.6,237.5 L 281.2,237.3 L 280.7,238.0 L 280.4,239.0 L 280.0,239.0 L 279.9,238.3 L 279.3,237.9 L 279.4,237.4 L 279.6,236.8 L 279.4,236.1 L 278.2,235.5 L 277.8,236.4 L 277.9,237.6 L 278.1,238.0 L 278.6,238.4 L 278.6,238.7 L 278.4,239.2 L 278.5,240.0 L 278.3,240.5 L 278.3,240.9 L 278.8,242.1 L 279.2,242.0 L 279.9,240.5 L 280.2,240.3 L 280.5,240.8 L 280.5,241.2 L 280.5,242.3 L 280.8,243.8 L 280.6,244.2 L 280.8,245.9 L 281.2,247.4 L 281.0,247.5 L 273.9,249.8 L 273.0,249.5 L 271.9,249.5 L 271.8,250.1 L 271.8,250.5 L 258.4,255.0 L 258.1,254.9 L 257.7,254.8 L 256.8,254.7 L 256.5,252.8 L 255.8,252.4 L 254.6,252.2 L 254.3,252.6 L 253.5,252.8 L 253.2,252.6 L 253.3,251.9 L 253.6,251.4 L 253.7,250.6 L 254.6,249.7 L 254.6,249.5 L 253.1,249.3 L 252.7,249.7 L 252.4,249.7 L 251.7,249.6 L 251.4,249.5 L 250.4,248.9 L 249.2,248.5 L 248.1,247.8 L 247.5,247.3 L 246.9,247.3 L 247.0,247.6 L 246.8,247.8 L 245.5,247.8 L 245.2,247.9 L 243.3,248.2 L 243.3,248.5 L 244.1,248.8 L 244.0,249.3 L 243.5,249.3 L 242.4,249.0 L 242.3,248.5 L 241.4,247.9 L 239.4,247.7 L 239.0,248.0 L 237.6,248.0 L 237.3,248.4 L 237.8,249.0 L 237.5,249.1 L 235.6,249.4 L 235.7,249.4 L 235.3,249.0 L 233.3,248.0 L 233.4,246.5 L 233.3,246.1 L 233.5,245.5 L 232.2,244.3 L 231.5,243.9 L 230.3,244.1 L 229.4,244.5 L 229.4,244.5 L 227.0,244.4 L 226.6,244.1 L 226.1,243.9 L 225.6,244.0 L 225.0,244.7 L 224.9,245.6 L 225.3,246.4 L 225.5,246.6 L 219.8,260.9 L 219.7,260.8 L 219.0,260.3 L 217.7,260.2 L 216.6,260.2 L 215.0,260.8 L 212.4,260.7 L 212.0,260.4 L 211.7,260.0 L 211.3,259.9 L 210.8,260.2 L 209.0,260.2 L 209.0,260.6 L 210.4,261.1 L 210.7,261.8 L 211.0,262.0 L 211.6,262.5 L 212.7,262.5 L 212.7,262.2 L 212.6,261.7 L 212.8,261.5 L 213.6,261.6 L 213.9,262.2 L 214.5,262.8 L 216.3,263.9 L 217.0,264.2 L 217.3,264.4 L 217.0,265.1 L 217.1,265.9 L 217.1,266.7 L 216.7,267.0 L 214.8,267.0 L 214.7,267.1 L 214.8,267.5 L 215.7,267.7 L 216.4,268.8 L 216.9,269.4 L 217.5,269.7 L 218.3,269.9 L 218.9,270.6 L 219.1,271.4 L 218.8,272.3 L 218.3,272.3 L 216.7,271.7 L 216.3,273.5 L 216.5,273.9 L 216.4,275.2 L 216.1,275.3 L 215.8,275.1 L 215.4,275.0 L 215.0,275.1 L 214.9,275.5 L 215.1,276.1 L 216.3,278.0 L 216.2,278.2 L 215.8,278.8 L 215.0,278.0 L 213.9,277.3 L 212.3,277.6 L 212.0,277.5 L 211.2,274.9 L 211.1,273.8 L 210.9,273.2 L 211.0,272.6 L 210.0,271.6 L 209.1,270.8 L 206.1,270.4 L 205.6,270.6 L 205.5,271.6 L 204.3,271.6 L 203.7,271.3 L 203.3,270.7 L 202.1,270.2 L 201.9,269.9 L 201.9,269.4 L 202.5,269.0 L 202.5,268.7 L 202.1,268.4 L 200.7,268.1 L 200.3,268.2 L 200.2,269.0 L 200.4,269.7 L 200.4,270.2 L 201.0,270.6 L 201.1,270.9 L 201.5,271.3 L 201.5,271.7 L 201.1,271.8 L 200.3,271.1 L 200.1,270.7 L 200.0,270.3 L 199.3,269.9 L 198.5,268.8 L 198.8,268.2 L 197.9,267.5 L 197.6,267.1 L 199.1,265.7 L 199.1,264.9 L 198.7,264.3 L 198.3,264.0 L 197.6,264.1 L 197.3,264.6 L 197.0,264.6 L 196.4,264.2 L 196.0,263.4 L 195.4,263.4 L 194.9,263.7 L 194.8,264.1 L 195.6,265.1 L 195.0,265.7 L 194.9,266.2 L 195.6,267.0 L 196.6,267.9 L 197.0,268.1 L 197.1,268.5 L 196.8,268.5 L 196.6,268.3 L 196.4,268.1 L 194.4,267.2 L 192.6,267.2 L 192.2,266.3 L 191.7,266.1 L 190.4,265.9 L 190.2,266.3 L 190.0,266.4 L 189.5,266.1 L 189.0,266.1 L 188.9,266.3 L 189.7,267.3 L 190.0,268.2 L 190.8,269.5 L 190.9,269.8 L 189.2,270.5 L 188.2,270.5 L 187.9,270.2 L 187.6,269.7 L 186.4,269.5 L 186.4,270.8 L 186.5,271.3 L 186.4,272.4 L 186.5,273.7 L 187.0,275.7 L 187.6,277.8 L 188.2,279.2 L 188.8,279.7 L 190.1,280.2 L 190.6,280.1 L 191.1,279.6 L 191.0,279.1 L 189.5,277.4 L 189.5,276.9 L 189.1,276.6 L 189.0,275.9 L 188.8,275.6 L 188.6,275.3 L 188.3,274.2 L 188.2,273.5 L 188.0,273.0 L 188.2,272.2 L 188.2,271.6 L 188.8,271.8 L 189.6,272.4 L 190.0,273.1 L 190.8,273.2 L 191.1,272.7 L 191.3,272.7 L 191.6,272.9 L 193.0,273.1 L 193.3,273.6 L 193.6,273.5 L 193.9,273.2 L 193.9,272.7 L 195.3,272.8 L 196.2,274.0 L 196.6,274.1 L 197.2,273.7 L 197.6,274.1 L 199.3,274.3 L 200.4,275.1 L 200.4,275.5 L 199.6,276.2 L 199.5,276.5 L 199.6,276.7 L 199.9,277.4 L 201.1,279.0 L 202.2,279.8 L 203.8,280.6 L 204.4,280.6 L 204.9,280.6 L 205.7,281.1 L 206.8,281.9 L 206.9,282.8 L 208.3,283.5 L 208.2,288.9 L 207.7,289.1 L 206.2,289.0 L 203.8,288.7 L 202.5,288.5 L 201.3,288.2 L 199.4,288.1 L 198.0,288.8 L 197.4,288.8 L 196.9,288.4 L 195.6,288.2 L 194.8,288.3 L 194.3,288.3 L 193.8,288.0 L 192.5,287.7 L 192.3,288.4 L 192.1,288.7 L 192.0,289.4 L 191.5,289.5 L 191.4,289.7 L 192.0,290.4 L 192.9,290.5 L 194.1,291.0 L 194.2,291.5 L 194.3,291.7 L 194.2,291.8 L 194.0,291.8 L 193.8,291.9 L 193.1,292.2 L 192.7,292.5 L 192.6,292.8 L 192.6,293.0 L 193.0,293.1 L 193.3,292.9 L 193.5,292.7 L 194.1,292.5 L 194.6,292.6 L 196.6,293.5 L 198.4,294.3 L 198.7,294.5 L 198.7,295.1 L 198.6,296.3 L 198.3,297.5 L 198.2,297.7 L 197.8,297.6 L 197.3,297.4 L 196.8,297.3 L 196.5,297.3 L 196.1,297.2 L 195.9,297.3 L 195.8,297.4 L 194.5,297.1 L 194.1,297.1 L 193.9,297.0 L 193.6,297.0 L 193.3,296.9 L 193.0,296.7 L 192.8,296.5 L 192.7,296.2 L 192.8,296.0 L 193.0,295.8 L 193.1,295.1 L 193.4,294.8 L 193.7,294.2 L 193.6,294.0 L 193.3,294.0 L 192.9,294.7 L 192.5,295.3 L 192.4,295.2 L 192.3,295.2 L 191.8,295.0 L 191.5,295.1 L 191.4,295.2 L 191.3,295.4 L 191.3,295.5 L 191.6,295.9 L 192.2,296.8 L 192.5,297.0 L 192.8,297.3 L 193.3,297.5 L 193.5,297.6 L 194.4,298.3 L 195.3,299.1 L 195.3,299.3 L 195.6,299.5 L 195.6,299.5 L 195.8,299.7 L 195.7,300.2 L 195.7,301.1 L 196.2,302.9 L 196.2,303.5 L 194.9,302.5 L 193.9,301.4 L 192.6,300.4 L 191.1,300.2 L 191.0,300.3 L 191.0,301.4 L 190.9,302.7 L 190.4,302.9 L 190.0,303.1 L 190.3,303.8 L 189.9,304.5 L 189.8,305.1 L 190.1,305.8 L 190.2,306.1 L 190.4,306.7 L 190.8,307.1 L 191.5,307.3 L 191.5,308.1 L 191.5,308.1 L 192.4,310.3 L 192.5,312.3 L 192.7,313.6 L 193.1,314.5 L 192.9,314.7 L 190.3,314.6 L 189.5,314.8 L 188.9,315.2 L 188.5,316.6 L 189.2,317.5 L 190.0,318.1 L 190.2,318.8 L 190.7,319.5 L 191.5,319.7 L 191.4,321.2 L 191.1,321.4 L 189.4,321.8 L 188.5,322.6 L 188.3,324.3 L 187.9,324.6 L 187.7,324.9 L 188.1,326.1 L 188.5,327.0 L 188.5,327.9 L 187.8,329.3 L 187.2,330.2 L 186.9,333.0 L 187.1,335.5 L 187.2,335.8 L 186.9,337.2 L 186.8,338.0 L 186.8,338.9 L 186.6,339.5 L 185.9,339.8 L 185.6,342.7 L 182.9,342.6 L 182.6,342.2 L 181.9,340.6 L 181.0,340.2 L 181.0,338.6 L 180.7,338.1 L 180.6,338.1 L 179.3,337.8 L 178.5,338.6 L 178.4,342.9 L 179.2,344.0 L 179.3,345.8 L 179.4,346.8 L 179.9,347.3 L 180.0,348.1 L 180.3,349.0 L 180.7,349.3 L 181.3,350.3 L 182.4,351.0 L 182.9,350.9 L 183.2,350.6 L 183.4,349.9 L 183.7,349.6 L 183.9,350.0 L 183.8,351.9 L 183.5,353.7 L 183.3,353.6 L 182.6,353.8 L 182.2,354.4 L 181.9,354.5 L 180.7,352.4 L 180.2,352.2 L 179.9,352.5 L 179.3,352.4 L 178.6,353.2 L 178.5,355.3 L 178.3,355.6 L 178.0,355.2 L 177.4,354.4 L 176.8,354.3 L 176.4,354.6 L 176.3,355.7 L 176.6,357.4 L 176.9,357.7 L 178.2,359.4 L 178.2,359.8 L 177.7,360.0 L 177.2,360.0 L 176.4,359.1 L 175.0,358.1 L 174.7,357.6 L 174.7,356.5 L 174.6,356.3 L 173.8,356.0 L 172.8,356.1 L 171.8,357.1 L 171.1,358.0 L 170.5,357.4 L 169.8,356.1 L 169.7,355.6 L 169.1,355.0 L 168.2,354.8 L 167.6,354.5 L 165.9,354.5 L 165.9,352.6 L 165.7,352.3 L 165.3,352.2 L 165.0,352.6 L 165.0,352.5 L 163.2,336.7 L 163.3,336.6 L 163.6,336.1 L 164.6,335.9 L 164.8,335.7 L 164.8,335.3 L 165.6,334.9 L 168.2,334.1 L 168.7,332.7 L 168.9,332.4 L 168.9,331.9 L 168.1,331.8 L 167.7,331.4 L 167.4,330.6 L 167.5,329.8 L 168.0,329.7 L 168.7,329.6 L 169.6,328.7 L 170.7,328.2 L 171.3,327.4 L 171.2,326.6 L 170.9,326.0 L 170.8,325.3 L 170.1,324.8 L 168.1,324.4 L 167.8,323.6 L 167.8,321.7 L 167.9,321.3 L 168.7,321.2 L 169.5,320.6 L 170.1,319.6 L 170.6,319.1 L 170.7,317.7 L 171.7,317.1 L 172.0,316.7 L 173.0,316.6 L 173.8,316.0 L 173.9,313.8 L 173.7,312.7 L 173.7,311.6 L 173.4,309.6 L 173.5,309.3 L 174.0,309.2 L 174.2,309.0 L 174.1,308.2 L 173.2,306.3 L 172.8,305.5 L 172.7,305.0 L 171.4,301.9 L 171.2,300.8 L 171.1,299.9 L 171.2,298.4 L 169.9,296.4 L 169.9,295.2 L 169.6,294.5 L 168.8,293.7 L 168.2,292.6 L 167.8,291.4 L 167.8,290.4 L 167.0,289.1 L 166.9,287.9 L 166.1,286.7 L 165.8,285.9 L 165.4,285.0 L 165.5,283.7 L 165.9,283.9 L 166.2,284.5 L 166.8,285.1 L 167.5,285.8 L 167.7,285.7 L 167.9,285.3 L 167.2,284.0 L 167.1,283.5 L 165.7,282.2 L 165.4,281.4 L 164.7,280.6 L 164.7,280.4 L 164.2,279.9 L 163.7,279.8 L 163.6,280.9 L 163.4,281.0 L 162.5,279.8 L 161.8,278.6 L 160.7,276.5 L 159.7,275.7 L 159.1,275.4 L 158.7,275.0 L 158.8,274.8 L 157.9,274.2 L 155.9,273.9 L 154.2,273.8 L 153.9,273.5 L 153.6,273.0 L 153.3,272.3 L 152.8,271.7 L 153.1,270.6 L 152.4,270.0 L 152.0,269.0 L 150.9,267.5 L 148.7,265.1 L 148.5,264.3 L 148.4,263.4 L 149.0,263.0 L 148.9,262.7 L 147.9,262.5 L 147.5,262.2 L 146.5,262.0 L 146.2,261.4 L 145.5,261.1 L 145.5,260.6 L 145.1,260.5 L 144.9,260.8 L 145.0,261.3 L 144.7,261.5 L 144.0,262.1 L 143.0,262.2 L 142.5,263.0 L 141.2,262.8 L 140.6,263.0 L 138.0,262.9 L 137.9,264.0 L 137.7,263.3 L 136.4,257.6 L 136.5,257.6 L 138.6,256.9 L 139.7,256.0 L 140.0,256.2 L 140.3,256.8 L 139.6,257.4 L 139.5,257.9 L 139.7,258.1 L 140.8,258.3 L 141.3,258.7 L 142.7,258.7 L 144.1,258.5 L 144.5,258.1 L 144.5,257.6 L 143.9,256.9 L 143.6,256.3 L 143.8,255.1 L 143.3,254.6 L 143.2,254.1 L 142.6,253.7 L 141.7,253.9 L 140.9,254.1 L 140.2,254.0 L 139.6,253.7 L 138.4,253.7 L 138.3,253.1 L 137.5,252.8 L 137.2,253.6 L 135.9,254.4 L 135.0,254.5 L 134.8,254.2 L 135.3,253.4 L 135.2,252.9 L 134.8,252.4 L 134.9,252.1 L 135.7,251.4 L 135.6,251.1 L 134.3,250.5 L 133.6,250.3 L 133.2,249.6 L 132.6,249.4 L 131.3,249.5 L 128.2,249.4 L 127.9,249.7 L 127.6,250.6 L 127.3,250.8 L 126.8,251.1 L 126.7,251.6" fill="none" stroke="black" stroke-width="2"/>
</svg>