<?xml version="1.0" encoding="UTF-8"?>
<svg width="400" height="400" viewBox="0 0 400 400" xmlns="http://www.w3.org/2000/svg">
  <rect width="400" height="400" fill="white"/>
  <path d="M 94.7,235.4 L 113.8,216.0 L 117.9,211.8 L 141.1,188.2 L 164.2,164.6 L 164.6,164.2 L 170.9,157.8 L 243.5,83.8 L 345.7,189.9 L 358.3,192.8 L 360.0,192.8 L 360.0,192.8 L 360.0,192.9 L 359.9,192.9 L 359.9,193.1 L 359.8,193.1 L 359.4,193.3 L 359.3,193.3 L 359.1,193.5 L 358.9,193.6 L 358.9,193.6 L 358.9,193.6 L 358.9,193.5 L 358.8,193.5 L 358.7,193.6 L 358.7,193.6 L 358.6,193.7 L 358.8,193.7 L 358.8,193.8 L 358.5,194.1 L 358.4,194.3 L 358.3,194.7 L 358.3,194.9 L 358.1,195.1 L 357.9,195.5 L 357.5,195.5 L 357.3,195.5 L 357.2,195.6 L 357.0,195.6 L 356.9,195.6 L 356.9,195.5 L 356.8,195.4 L 356.8,195.3 L 356.7,195.2 L 356.5,195.2 L 356.5,195.1 L 356.1,194.7 L 356.0,194.7 L 356.0,194.6 L 355.8,194.5 L 355.6,194.6 L 355.4,194.8 L 355.3,194.9 L 355.2,195.0 L 355.2,195.1 L 355.1,195.2 L 355.0,195.3 L 355.0,195.5 L 354.8,195.7 L 354.7,195.9 L 354.7,196.1 L 354.8,196.2 L 354.8,196.4 L 354.9,196.5 L 354.9,196.6 L 354.9,196.8 L 355.0,196.9 L 355.0,197.1 L 355.1,197.2 L 355.1,197.3 L 355.2,197.4 L 355.2,197.6 L 355.3,197.8 L 355.4,198.0 L 355.5,198.2 L 355.5,198.3 L 355.5,198.4 L 355.3,198.2 L 355.1,198.0 L 354.9,197.8 L 354.8,197.7 L 354.7,197.6 L 354.7,197.4 L 354.7,197.4 L 354.6,197.3 L 354.5,197.3 L 354.4,197.3 L 354.3,197.3 L 354.2,197.3 L 354.2,197.2 L 354.0,197.1 L 353.9,197.3 L 353.9,197.4 L 353.8,197.4 L 353.8,197.4 L 353.7,197.6 L 353.8,197.6 L 353.8,197.8 L 353.8,197.8 L 353.7,197.8 L 353.6,197.7 L 353.6,197.8 L 353.5,197.9 L 353.6,197.9 L 353.7,197.9 L 353.7,198.0 L 353.9,198.0 L 353.9,198.2 L 353.9,198.2 L 353.9,198.2 L 353.8,198.3 L 353.8,198.4 L 353.8,198.5 L 353.8,198.6 L 353.7,198.5 L 353.6,198.5 L 353.6,198.7 L 353.4,198.8 L 353.4,198.9 L 353.4,199.2 L 353.5,199.3 L 353.6,199.4 L 353.8,199.4 L 353.9,199.3 L 354.0,199.2 L 354.0,199.1 L 354.1,199.1 L 354.2,199.2 L 354.2,199.3 L 354.2,199.3 L 354.3,199.3 L 354.3,199.2 L 354.4,199.1 L 354.5,199.3 L 354.5,199.4 L 354.4,199.6 L 354.3,199.6 L 354.3,199.9 L 354.4,200.1 L 354.3,200.1 L 354.2,200.1 L 354.0,200.0 L 353.9,199.8 L 353.8,199.6 L 353.8,199.6 L 353.6,199.6 L 353.3,199.7 L 353.2,199.7 L 353.2,199.7 L 353.1,199.7 L 353.0,199.8 L 353.0,199.9 L 352.9,199.9 L 353.0,200.0 L 352.9,200.5 L 352.9,200.6 L 352.7,200.6 L 352.3,200.5 L 352.2,200.3 L 352.1,200.2 L 352.0,200.1 L 351.8,200.2 L 351.7,200.2 L 351.6,200.2 L 351.6,200.1 L 351.5,200.1 L 351.2,200.1 L 351.1,200.2 L 351.0,200.2 L 351.0,200.1 L 351.0,200.0 L 350.9,200.1 L 350.7,200.3 L 350.7,200.5 L 350.6,200.5 L 350.4,200.6 L 350.1,201.1 L 350.1,201.3 L 350.1,201.4 L 350.6,202.1 L 350.7,202.2 L 350.8,202.2 L 350.8,202.3 L 350.7,202.2 L 350.7,202.2 L 350.4,202.0 L 350.3,201.9 L 350.2,201.7 L 350.0,201.5 L 350.0,201.3 L 349.8,201.2 L 349.8,201.3 L 349.8,201.3 L 349.9,201.5 L 349.9,201.6 L 349.9,201.5 L 349.7,201.4 L 349.5,201.4 L 349.5,201.4 L 349.4,201.6 L 349.1,201.8 L 349.0,201.8 L 348.9,201.9 L 348.8,201.9 L 348.7,201.8 L 348.3,201.8 L 348.2,202.0 L 348.3,202.2 L 348.3,202.3 L 348.2,202.4 L 348.1,202.4 L 348.1,202.4 L 348.1,202.3 L 347.8,202.3 L 347.7,202.4 L 347.6,202.3 L 347.5,202.3 L 347.3,202.3 L 347.2,202.2 L 347.2,202.2 L 347.0,202.5 L 347.0,202.6 L 347.0,202.7 L 347.1,202.8 L 347.2,202.9 L 347.5,203.2 L 347.7,203.3 L 347.9,203.3 L 348.0,203.5 L 348.1,203.5 L 348.0,203.6 L 347.6,203.6 L 347.6,203.6 L 347.9,204.0 L 348.0,204.1 L 348.0,204.1 L 348.1,204.2 L 348.1,204.2 L 348.2,204.4 L 348.3,204.5 L 348.4,204.6 L 348.5,204.7 L 348.5,204.7 L 348.7,204.8 L 348.7,204.8 L 348.8,204.9 L 348.9,204.9 L 348.9,205.0 L 348.9,205.0 L 348.8,205.1 L 348.7,205.2 L 348.7,205.2 L 348.7,205.1 L 348.6,205.0 L 348.5,205.0 L 348.5,205.3 L 348.5,205.4 L 348.5,205.6 L 348.4,205.6 L 348.3,205.5 L 348.2,205.5 L 348.2,205.0 L 348.3,204.9 L 348.3,204.8 L 348.2,204.8 L 348.0,204.6 L 348.0,204.5 L 347.9,204.4 L 347.9,204.4 L 348.0,204.4 L 348.0,204.4 L 348.1,204.3 L 348.0,204.2 L 348.0,204.2 L 348.0,204.1 L 347.8,204.0 L 347.7,204.0 L 347.6,203.8 L 347.4,203.6 L 347.2,203.3 L 347.1,203.3 L 347.0,203.3 L 346.8,203.2 L 346.8,203.0 L 346.8,203.0 L 346.7,202.9 L 346.6,202.9 L 346.7,203.0 L 346.7,203.2 L 346.6,203.4 L 346.6,203.5 L 346.5,203.3 L 346.4,203.2 L 346.3,203.1 L 346.3,203.1 L 346.2,203.1 L 346.2,203.2 L 346.1,203.2 L 346.0,203.3 L 346.0,203.5 L 346.1,203.7 L 346.1,203.9 L 346.2,204.0 L 346.2,204.0 L 346.4,204.1 L 346.5,204.2 L 346.6,204.2 L 346.8,204.3 L 346.8,204.4 L 346.7,204.4 L 346.7,204.4 L 346.5,204.3 L 346.4,204.2 L 346.1,204.2 L 346.0,204.1 L 345.9,204.0 L 345.9,203.9 L 345.7,203.9 L 345.6,203.9 L 345.6,203.9 L 345.6,204.0 L 345.7,204.1 L 345.6,204.2 L 345.6,204.3 L 345.6,204.3 L 345.6,204.5 L 345.7,204.5 L 345.9,204.6 L 346.0,204.7 L 346.4,204.5 L 346.5,204.5 L 346.5,204.6 L 346.5,204.6 L 346.3,204.7 L 346.1,204.8 L 345.9,205.0 L 345.8,205.1 L 345.8,205.1 L 345.8,205.2 L 345.8,205.3 L 346.0,205.4 L 346.1,205.5 L 346.1,205.6 L 346.4,205.9 L 346.5,205.9 L 346.6,206.0 L 346.8,206.1 L 347.0,206.1 L 347.1,206.1 L 347.2,206.2 L 347.3,206.4 L 347.4,206.5 L 347.6,206.5 L 347.8,206.4 L 347.9,206.2 L 347.8,206.1 L 347.9,206.0 L 348.0,206.0 L 348.0,206.1 L 348.0,206.2 L 348.0,206.2 L 347.9,206.3 L 347.9,206.6 L 348.0,206.7 L 348.0,206.8 L 348.2,206.9 L 348.3,206.9 L 348.2,207.0 L 348.1,207.0 L 347.9,206.9 L 347.7,206.9 L 347.3,206.8 L 347.2,206.7 L 347.0,206.6 L 346.8,206.5 L 346.6,206.3 L 346.5,206.3 L 346.4,206.2 L 346.2,206.1 L 346.1,206.0 L 345.6,206.0 L 345.5,206.0 L 345.4,205.9 L 345.3,205.9 L 345.1,206.1 L 345.0,206.2 L 344.9,206.2 L 344.8,206.4 L 344.5,206.7 L 344.1,206.8 L 344.0,206.9 L 343.9,207.0 L 343.9,207.1 L 343.9,207.3 L 344.0,207.4 L 344.3,207.4 L 344.6,207.4 L 344.7,207.3 L 344.7,207.3 L 344.7,207.4 L 344.7,207.5 L 344.7,207.6 L 344.6,207.6 L 344.5,207.5 L 344.4,207.6 L 344.4,207.7 L 344.4,207.7 L 344.6,207.9 L 344.7,207.9 L 344.7,207.8 L 344.9,207.7 L 345.0,207.7 L 345.0,207.7 L 345.0,207.8 L 344.9,207.8 L 345.0,207.9 L 345.4,207.9 L 345.6,207.9 L 345.8,207.8 L 345.9,207.8 L 346.1,207.5 L 346.3,207.3 L 346.4,207.2 L 346.5,207.2 L 346.7,207.3 L 346.8,207.3 L 346.9,207.3 L 346.8,207.4 L 346.6,207.5 L 346.5,207.6 L 346.4,207.7 L 346.4,207.7 L 346.6,207.7 L 346.7,207.7 L 346.7,207.7 L 346.7,207.7 L 346.6,207.8 L 346.3,207.9 L 346.2,208.0 L 346.1,208.2 L 346.2,208.3 L 346.2,208.5 L 346.2,208.6 L 346.2,208.6 L 346.3,208.7 L 346.3,208.8 L 346.3,209.1 L 346.4,209.1 L 346.6,209.3 L 346.9,209.5 L 347.0,209.4 L 347.1,209.3 L 347.1,209.2 L 347.1,209.1 L 347.1,209.0 L 347.2,209.0 L 347.5,209.1 L 347.5,209.2 L 347.6,209.3 L 347.8,209.4 L 347.8,209.5 L 347.8,209.7 L 347.7,209.7 L 347.6,209.8 L 347.4,210.0 L 347.4,210.1 L 347.3,210.3 L 347.1,210.4 L 347.1,210.4 L 347.0,210.5 L 347.0,210.7 L 347.1,210.9 L 347.2,211.1 L 347.7,211.5 L 348.1,211.7 L 348.2,211.7 L 348.6,211.4 L 348.7,211.1 L 348.8,211.1 L 348.8,211.0 L 348.9,210.9 L 349.0,210.9 L 349.3,211.1 L 349.5,211.1 L 349.7,211.1 L 349.8,211.1 L 349.8,211.1 L 349.4,211.4 L 349.4,211.5 L 349.4,211.7 L 349.6,211.8 L 349.7,211.9 L 349.8,211.9 L 349.9,212.0 L 349.9,212.0 L 349.9,212.2 L 349.9,212.3 L 349.9,212.3 L 349.9,212.4 L 349.9,212.4 L 349.9,212.4 L 350.0,212.4 L 350.0,212.2 L 350.0,212.0 L 350.0,212.0 L 350.0,211.9 L 350.1,211.9 L 350.2,211.9 L 350.2,211.9 L 350.4,211.8 L 350.4,211.7 L 350.3,211.6 L 350.4,211.5 L 350.5,211.5 L 350.6,211.6 L 351.1,211.6 L 351.2,211.6 L 351.4,211.7 L 351.4,211.8 L 351.5,211.8 L 351.6,211.7 L 351.8,211.7 L 351.9,211.7 L 351.9,211.8 L 351.8,211.9 L 351.6,212.1 L 351.6,212.2 L 351.6,212.3 L 351.7,212.3 L 351.8,212.4 L 351.8,212.5 L 352.0,212.6 L 352.0,212.6 L 352.2,212.6 L 352.3,212.7 L 352.3,212.7 L 352.3,212.8 L 352.1,212.9 L 352.1,213.0 L 351.9,213.0 L 351.8,213.0 L 351.7,213.1 L 351.6,213.2 L 351.6,213.3 L 351.6,213.6 L 351.6,213.7 L 351.5,213.7 L 351.4,213.6 L 351.4,213.3 L 351.4,213.2 L 351.2,213.3 L 351.2,213.4 L 351.1,213.3 L 350.9,213.3 L 350.9,213.3 L 350.9,213.3 L 350.9,213.2 L 350.9,213.2 L 350.9,213.1 L 350.9,213.0 L 350.8,213.0 L 350.7,213.0 L 350.7,213.1 L 350.6,213.1 L 350.4,213.2 L 350.3,213.2 L 350.3,213.3 L 350.3,213.3 L 350.3,213.3 L 350.2,213.2 L 350.1,213.2 L 350.1,213.1 L 350.0,213.1 L 349.9,213.0 L 349.7,212.8 L 349.7,212.7 L 349.7,212.6 L 349.7,212.6 L 349.6,212.5 L 349.6,212.5 L 349.5,212.5 L 349.5,212.5 L 349.5,212.5 L 349.6,212.7 L 349.7,212.9 L 349.7,213.0 L 349.8,213.0 L 349.8,213.0 L 349.9,213.1 L 350.0,213.2 L 350.1,213.3 L 350.2,213.4 L 350.2,213.5 L 350.1,213.5 L 350.1,213.5 L 350.2,213.6 L 350.2,213.7 L 350.2,213.8 L 350.3,213.8 L 350.5,213.8 L 350.6,213.7 L 350.7,213.7 L 350.8,213.8 L 350.7,214.0 L 350.7,214.2 L 350.5,214.5 L 350.5,214.8 L 350.5,214.9 L 350.6,215.0 L 350.7,215.1 L 350.9,215.1 L 351.2,215.1 L 351.4,215.1 L 351.6,214.9 L 351.6,215.0 L 351.6,215.1 L 351.4,215.3 L 351.3,215.4 L 351.3,215.6 L 351.3,215.9 L 351.2,216.1 L 351.2,216.3 L 351.2,216.5 L 351.2,216.5 L 351.2,216.6 L 351.6,216.6 L 351.6,216.6 L 351.8,216.7 L 351.9,216.8 L 351.9,216.8 L 356.4,225.8 L 356.4,225.9 L 356.4,226.0 L 356.5,226.3 L 356.6,226.4 L 356.8,226.5 L 357.0,226.7 L 357.1,227.2 L 357.3,227.7 L 357.4,228.0 L 357.4,228.3 L 357.1,228.6 L 357.1,228.7 L 357.1,229.1 L 357.2,229.4 L 357.4,229.7 L 357.6,230.0 L 357.7,230.3 L 357.8,230.4 L 357.9,230.5 L 358.0,230.6 L 358.1,230.7 L 358.1,231.0 L 358.1,231.1 L 358.3,231.1 L 358.4,231.2 L 358.4,231.5 L 358.3,231.6 L 358.2,231.7 L 358.1,231.7 L 358.0,231.7 L 357.8,231.8 L 357.7,232.0 L 357.6,232.2 L 357.5,232.3 L 357.3,232.4 L 357.1,232.6 L 356.6,232.9 L 356.6,232.9 L 356.6,232.9 L 354.7,232.0 L 354.7,232.0 L 354.6,231.7 L 354.5,231.2 L 354.5,231.1 L 354.3,230.9 L 354.2,230.6 L 354.2,230.5 L 354.1,230.2 L 354.1,230.1 L 354.0,230.0 L 353.9,229.9 L 353.8,229.7 L 353.9,229.5 L 353.8,229.3 L 353.8,229.1 L 353.8,229.0 L 353.7,228.9 L 353.6,228.9 L 353.5,228.8 L 353.5,228.8 L 353.5,228.5 L 353.4,228.4 L 353.3,228.4 L 353.3,228.3 L 353.2,228.2 L 353.1,228.1 L 352.9,228.1 L 352.8,228.1 L 352.7,228.1 L 352.6,228.2 L 351.8,228.8 L 351.6,229.2 L 351.5,229.5 L 351.4,229.7 L 351.3,229.8 L 351.3,229.8 L 351.3,229.8 L 351.3,229.9 L 351.2,229.9 L 351.0,230.0 L 351.0,229.9 L 351.0,229.8 L 351.0,229.8 L 351.0,229.7 L 351.0,229.7 L 351.0,229.7 L 350.8,229.8 L 350.8,229.9 L 350.8,230.0 L 348.5,230.6 L 348.4,230.6 L 348.4,230.5 L 348.3,230.3 L 348.2,230.3 L 348.1,230.3 L 348.0,230.2 L 348.0,230.3 L 347.8,230.5 L 347.6,230.6 L 347.5,230.7 L 347.5,230.8 L 347.5,231.0 L 347.6,231.2 L 347.8,231.4 L 347.9,231.6 L 348.1,231.7 L 348.3,231.7 L 348.6,231.8 L 348.6,232.0 L 348.6,232.2 L 348.6,232.1 L 348.5,232.2 L 348.5,232.2 L 348.6,232.3 L 348.6,232.4 L 348.5,234.1 L 348.5,234.2 L 348.4,234.3 L 348.4,234.2 L 348.3,234.2 L 348.3,234.2 L 348.2,234.0 L 348.1,233.9 L 347.8,233.9 L 347.7,234.0 L 347.6,234.0 L 347.4,233.9 L 346.9,234.0 L 346.7,234.0 L 346.5,234.1 L 346.4,234.3 L 346.2,234.4 L 346.1,234.4 L 346.1,234.4 L 346.1,234.5 L 346.0,234.6 L 346.0,234.7 L 345.9,234.7 L 345.9,234.7 L 345.8,234.9 L 345.8,235.0 L 345.7,235.1 L 345.7,235.3 L 345.7,235.4 L 345.8,235.7 L 345.9,236.2 L 345.9,236.5 L 345.9,236.5 L 345.6,236.7 L 345.5,236.7 L 345.3,236.4 L 345.2,236.3 L 345.2,236.4 L 345.2,236.5 L 345.1,236.5 L 344.8,236.2 L 344.7,236.2 L 344.6,236.2 L 344.6,236.4 L 344.8,236.6 L 344.7,236.7 L 342.3,237.0 L 342.2,237.0 L 342.1,236.8 L 342.0,236.7 L 341.9,236.7 L 341.9,236.8 L 341.6,236.7 L 341.5,236.6 L 340.9,236.2 L 340.5,236.1 L 340.4,236.0 L 340.2,236.0 L 339.7,235.9 L 339.5,235.9 L 339.4,236.1 L 339.4,236.3 L 339.3,236.3 L 339.3,236.3 L 339.2,236.5 L 339.3,236.6 L 339.3,236.6 L 339.3,236.8 L 339.3,237.0 L 339.6,237.1 L 339.7,237.1 L 339.8,237.1 L 339.9,237.1 L 340.0,237.2 L 340.0,237.3 L 340.0,237.4 L 340.2,237.4 L 340.3,237.4 L 340.5,237.5 L 340.6,237.6 L 340.5,237.7 L 340.4,237.7 L 340.2,237.9 L 340.2,238.0 L 340.3,238.1 L 340.4,238.2 L 340.5,238.4 L 340.5,238.5 L 340.4,238.6 L 340.4,238.9 L 340.4,239.1 L 340.5,239.3 L 340.5,239.5 L 340.6,239.6 L 340.6,239.7 L 341.0,239.9 L 341.2,240.2 L 341.2,240.4 L 341.1,240.5 L 341.1,240.6 L 340.8,240.8 L 340.6,240.9 L 340.4,241.1 L 340.3,241.4 L 340.2,241.8 L 340.3,242.0 L 340.3,242.3 L 340.2,242.4 L 340.2,242.5 L 340.3,242.7 L 340.4,242.8 L 340.6,243.4 L 340.9,243.9 L 341.3,244.3 L 341.4,244.5 L 341.6,244.8 L 341.8,245.1 L 341.9,245.3 L 342.6,245.7 L 343.0,245.9 L 343.3,246.0 L 343.9,246.2 L 344.4,246.3 L 344.8,246.4 L 345.0,246.6 L 345.2,246.7 L 345.4,246.8 L 345.5,246.9 L 345.6,246.9 L 345.8,247.2 L 345.9,247.2 L 346.0,247.4 L 346.1,247.6 L 346.2,247.7 L 346.2,247.9 L 346.3,248.0 L 346.4,248.1 L 346.5,248.1 L 346.6,248.2 L 346.7,248.3 L 346.7,248.4 L 346.9,248.7 L 347.0,248.8 L 347.2,249.1 L 347.3,249.2 L 347.3,249.4 L 347.3,249.4 L 347.2,249.5 L 347.1,249.8 L 347.1,249.9 L 347.1,250.0 L 347.1,250.1 L 347.0,250.2 L 346.8,250.2 L 346.6,250.2 L 346.4,250.2 L 346.3,250.1 L 346.2,250.0 L 346.0,249.8 L 345.8,249.7 L 345.6,249.6 L 345.5,249.5 L 345.4,249.5 L 345.2,249.3 L 345.0,249.1 L 344.9,249.0 L 344.7,248.9 L 344.6,248.8 L 344.4,248.8 L 344.2,248.6 L 344.0,248.6 L 343.9,248.6 L 343.5,248.6 L 343.3,248.6 L 343.1,248.7 L 343.1,248.7 L 342.8,248.8 L 342.7,248.9 L 342.5,248.9 L 342.4,248.9 L 342.0,249.1 L 341.8,249.2 L 341.5,249.4 L 341.2,249.5 L 341.1,249.4 L 340.9,249.3 L 340.7,249.3 L 340.5,249.1 L 340.4,248.9 L 340.2,248.6 L 339.9,248.6 L 339.8,248.6 L 339.6,248.7 L 339.5,248.8 L 339.5,249.0 L 339.5,249.0 L 339.5,249.1 L 339.5,249.2 L 339.6,249.4 L 339.7,249.8 L 339.7,249.9 L 339.6,250.0 L 339.6,250.3 L 339.5,250.3 L 339.4,250.4 L 339.2,250.4 L 339.1,250.3 L 339.1,250.2 L 339.0,250.1 L 338.9,250.0 L 338.9,250.1 L 338.8,250.2 L 338.7,250.2 L 338.7,250.1 L 338.7,250.0 L 338.6,249.9 L 338.5,250.0 L 338.5,250.1 L 338.6,250.1 L 338.6,250.2 L 338.6,250.6 L 338.6,250.7 L 338.6,250.8 L 338.6,250.9 L 338.6,251.1 L 338.6,251.3 L 338.7,251.6 L 338.7,251.8 L 338.8,251.9 L 338.8,252.0 L 338.8,252.1 L 339.0,252.2 L 339.1,252.3 L 339.5,252.6 L 339.5,252.6 L 339.6,252.8 L 340.2,253.1 L 340.2,253.2 L 340.1,253.3 L 340.0,253.8 L 339.9,254.3 L 340.0,254.6 L 340.1,254.8 L 340.2,254.9 L 340.1,254.9 L 340.1,255.0 L 340.2,255.0 L 340.3,255.2 L 340.5,255.0 L 340.5,255.0 L 340.6,254.9 L 340.7,254.8 L 340.8,254.8 L 340.9,254.9 L 341.5,255.4 L 341.8,255.7 L 341.8,255.9 L 342.0,256.2 L 342.1,256.6 L 342.2,256.8 L 342.0,257.0 L 342.1,257.2 L 342.1,257.3 L 342.1,257.5 L 342.1,257.8 L 342.0,257.9 L 341.8,258.0 L 341.3,258.1 L 341.0,258.4 L 340.7,258.7 L 340.4,259.1 L 340.2,259.4 L 340.0,259.9 L 340.0,260.0 L 339.9,260.1 L 339.8,260.2 L 339.6,260.6 L 339.6,261.0 L 339.6,261.1 L 339.6,261.1 L 339.5,261.4 L 339.3,262.0 L 339.2,262.2 L 339.0,262.4 L 338.9,262.3 L 338.7,262.4 L 338.6,262.4 L 338.6,262.6 L 338.7,262.7 L 338.8,262.7 L 339.0,262.7 L 339.1,262.8 L 339.3,262.9 L 339.5,262.9 L 339.7,262.9 L 339.8,262.8 L 340.1,262.7 L 340.6,262.7 L 340.8,262.7 L 340.9,262.7 L 341.0,262.9 L 341.0,263.0 L 340.9,263.1 L 340.8,263.3 L 340.7,263.4 L 340.5,263.6 L 340.4,263.8 L 340.3,264.2 L 340.4,264.3 L 340.5,264.4 L 340.7,264.4 L 340.7,264.5 L 340.7,264.7 L 340.5,264.6 L 340.4,264.7 L 340.3,264.9 L 340.2,265.1 L 340.2,265.3 L 340.1,265.3 L 339.9,265.6 L 339.7,265.9 L 339.6,266.3 L 339.5,266.7 L 339.8,266.7 L 339.9,266.7 L 339.8,267.3 L 339.8,267.3 L 339.5,267.5 L 339.4,267.5 L 339.2,267.6 L 339.0,267.6 L 338.4,267.4 L 338.3,267.4 L 338.2,267.3 L 338.0,267.3 L 337.9,267.4 L 337.8,267.6 L 337.7,267.6 L 337.6,267.7 L 337.3,267.7 L 337.3,267.8 L 337.1,268.0 L 337.1,268.0 L 335.4,268.0 L 335.4,267.8 L 335.2,267.5 L 334.8,267.2 L 334.8,267.1 L 334.6,267.0 L 334.6,266.9 L 334.5,266.8 L 334.3,266.8 L 333.9,266.7 L 333.7,266.8 L 333.2,267.0 L 333.0,267.0 L 332.8,267.0 L 332.8,267.0 L 332.5,267.0 L 332.0,267.0 L 331.9,267.1 L 331.6,267.2 L 331.6,267.3 L 331.6,267.4 L 331.6,267.5 L 331.6,267.6 L 331.4,267.6 L 331.3,267.5 L 331.3,267.6 L 331.3,267.6 L 331.0,267.8 L 330.8,267.8 L 330.6,267.9 L 330.3,267.8 L 330.0,267.9 L 329.6,267.8 L 329.3,267.7 L 329.1,267.7 L 329.0,267.7 L 328.8,267.7 L 328.6,267.8 L 328.4,267.9 L 328.4,267.9 L 328.1,268.0 L 327.9,268.1 L 327.8,268.1 L 327.7,268.0 L 327.6,268.1 L 327.6,268.4 L 327.9,268.8 L 328.0,268.8 L 328.1,268.9 L 328.1,269.0 L 328.3,269.1 L 328.4,269.2 L 328.4,269.3 L 328.4,269.3 L 328.3,269.3 L 328.3,269.4 L 328.4,269.4 L 328.3,269.4 L 328.1,269.3 L 328.0,269.3 L 327.8,269.2 L 327.7,269.4 L 327.6,269.4 L 327.6,269.4 L 327.6,269.5 L 327.8,269.8 L 328.1,270.0 L 328.1,270.1 L 328.2,270.2 L 328.3,270.3 L 328.4,270.3 L 328.3,270.5 L 328.2,270.6 L 328.1,270.5 L 328.0,270.4 L 327.8,270.4 L 327.7,270.5 L 327.6,270.6 L 327.4,270.8 L 327.3,270.8 L 327.3,270.7 L 327.2,270.6 L 327.1,270.4 L 327.0,270.4 L 326.8,270.4 L 326.7,270.6 L 326.6,270.5 L 326.6,270.4 L 326.6,270.3 L 326.5,270.3 L 326.4,270.2 L 326.4,270.3 L 326.1,270.3 L 325.9,270.3 L 325.9,270.3 L 325.9,270.4 L 326.1,270.5 L 326.2,270.5 L 326.3,270.5 L 326.3,270.6 L 326.4,270.7 L 326.5,270.9 L 326.6,271.2 L 326.6,271.5 L 326.8,271.7 L 326.8,271.9 L 326.8,272.3 L 326.8,272.5 L 326.8,272.6 L 327.0,272.7 L 327.1,272.8 L 327.1,272.9 L 326.6,273.0 L 326.4,273.2 L 326.3,273.3 L 326.2,273.4 L 326.2,273.5 L 326.3,273.8 L 326.5,274.1 L 326.6,274.2 L 326.8,274.5 L 327.1,274.7 L 327.3,274.7 L 327.6,274.7 L 327.7,274.7 L 327.7,274.9 L 327.7,275.0 L 327.6,275.1 L 327.4,275.1 L 327.0,275.2 L 326.9,275.3 L 326.9,275.5 L 326.9,275.6 L 326.9,275.7 L 326.9,275.8 L 326.9,275.8 L 326.8,276.0 L 326.9,276.0 L 326.9,276.1 L 326.8,276.2 L 326.8,276.3 L 326.8,276.4 L 327.0,276.5 L 327.0,276.7 L 326.8,277.0 L 326.3,277.4 L 326.1,277.5 L 326.0,277.6 L 326.0,277.7 L 325.9,277.9 L 325.9,277.9 L 326.0,278.0 L 326.1,278.1 L 325.9,278.3 L 325.7,278.4 L 325.5,278.4 L 325.1,278.3 L 324.9,278.2 L 324.8,278.0 L 324.7,277.8 L 324.6,277.6 L 324.3,277.6 L 324.2,277.6 L 324.1,277.5 L 324.0,277.4 L 323.9,277.3 L 323.8,277.2 L 323.6,277.2 L 323.5,277.3 L 323.5,277.3 L 323.5,277.4 L 323.5,277.5 L 323.5,277.5 L 321.0,278.1 L 320.8,277.8 L 320.5,277.6 L 320.2,277.4 L 320.2,277.3 L 320.1,277.2 L 320.1,277.2 L 320.1,277.2 L 320.1,277.2 L 320.2,277.1 L 320.2,276.7 L 320.3,276.6 L 320.3,276.5 L 320.2,276.4 L 320.2,276.4 L 320.2,276.3 L 320.2,276.2 L 320.3,276.1 L 320.3,276.0 L 320.3,275.9 L 320.2,275.8 L 320.2,275.7 L 320.1,275.7 L 320.0,275.7 L 319.9,275.6 L 319.8,275.5 L 319.8,275.4 L 319.9,275.2 L 319.9,275.1 L 319.9,274.9 L 319.8,274.9 L 319.8,274.8 L 319.7,274.7 L 319.6,274.6 L 319.5,274.6 L 319.4,274.3 L 319.2,274.3 L 319.1,274.2 L 319.0,274.1 L 318.9,274.1 L 318.8,274.0 L 318.7,274.0 L 318.6,273.9 L 318.5,273.9 L 318.2,273.9 L 318.3,273.8 L 318.2,273.8 L 318.0,273.8 L 317.8,273.9 L 317.6,273.9 L 317.5,274.0 L 317.1,274.1 L 316.9,274.1 L 316.7,274.1 L 316.5,274.1 L 316.4,274.2 L 316.1,274.2 L 316.0,274.3 L 315.9,274.4 L 315.8,274.6 L 315.8,274.7 L 315.8,274.9 L 315.8,275.1 L 315.7,275.3 L 315.7,275.4 L 315.8,275.5 L 315.8,275.6 L 315.8,275.6 L 315.8,275.6 L 315.7,275.7 L 315.7,275.8 L 315.7,275.9 L 315.6,276.0 L 315.5,276.0 L 315.4,275.9 L 315.3,275.9 L 315.3,275.9 L 315.2,275.8 L 315.2,275.9 L 315.0,275.9 L 314.8,275.9 L 314.7,276.0 L 314.5,276.0 L 314.4,276.0 L 314.3,276.0 L 314.1,276.0 L 314.0,276.1 L 314.0,276.3 L 314.0,276.3 L 313.9,276.5 L 313.9,276.6 L 314.0,276.7 L 313.9,276.9 L 313.8,277.0 L 313.8,277.0 L 314.0,277.0 L 314.0,277.1 L 314.2,277.1 L 314.3,277.2 L 314.8,277.2 L 314.8,277.3 L 314.9,277.4 L 315.0,277.6 L 314.9,277.9 L 314.0,278.2 L 313.9,278.3 L 313.8,278.4 L 313.9,278.4 L 314.1,278.3 L 314.3,278.3 L 314.4,278.3 L 314.4,278.2 L 314.9,278.1 L 314.9,278.2 L 314.7,278.3 L 314.6,278.4 L 314.5,278.6 L 314.6,278.8 L 314.7,278.9 L 314.8,279.0 L 314.9,279.1 L 314.9,279.2 L 314.8,279.2 L 314.8,279.4 L 314.7,279.5 L 314.7,279.5 L 314.6,279.5 L 314.4,279.5 L 314.3,279.4 L 314.3,279.5 L 314.3,279.6 L 314.3,279.6 L 313.9,279.6 L 313.7,279.5 L 313.6,279.6 L 313.4,279.8 L 313.3,280.3 L 313.4,280.5 L 313.3,280.8 L 313.3,280.9 L 313.3,281.0 L 313.2,281.0 L 313.0,281.0 L 313.0,281.0 L 312.9,281.0 L 312.6,281.0 L 312.2,280.9 L 312.0,280.8 L 311.8,280.6 L 311.7,280.3 L 311.6,280.2 L 311.3,280.1 L 310.9,280.3 L 310.8,280.5 L 310.7,280.6 L 310.7,280.9 L 310.5,281.1 L 310.5,281.3 L 310.5,281.4 L 310.5,281.9 L 310.5,282.1 L 310.5,282.1 L 310.1,282.1 L 309.9,282.2 L 309.8,282.3 L 309.8,282.4 L 309.5,282.6 L 309.2,282.9 L 309.2,283.0 L 309.2,283.2 L 309.2,283.2 L 309.2,283.3 L 309.4,283.4 L 309.6,283.6 L 309.6,283.7 L 309.6,283.8 L 309.8,283.9 L 310.0,284.0 L 310.1,284.0 L 310.5,284.0 L 310.7,284.0 L 311.0,283.7 L 311.1,283.7 L 311.3,283.6 L 311.5,283.4 L 311.5,283.4 L 311.6,283.4 L 312.0,283.4 L 312.3,283.4 L 312.8,283.4 L 313.1,283.3 L 313.2,283.3 L 313.2,283.4 L 313.4,283.6 L 313.5,283.8 L 313.5,283.8 L 313.4,284.0 L 313.2,284.1 L 313.1,284.2 L 313.1,284.3 L 312.8,284.3 L 312.3,284.4 L 312.2,284.5 L 312.2,284.5 L 312.2,284.7 L 312.3,284.8 L 312.4,284.9 L 312.4,284.9 L 312.4,284.9 L 312.3,285.1 L 312.3,285.1 L 312.2,285.3 L 312.1,285.4 L 312.1,285.5 L 311.9,285.6 L 311.9,285.6 L 312.0,285.9 L 312.1,285.9 L 312.1,285.9 L 312.1,286.1 L 312.1,286.2 L 311.8,286.5 L 311.7,286.6 L 311.7,286.9 L 311.9,287.3 L 311.9,287.3 L 312.0,287.4 L 312.0,287.6 L 312.1,287.7 L 312.3,287.7 L 312.4,287.6 L 312.4,287.5 L 312.8,287.4 L 313.0,287.4 L 313.2,287.4 L 313.4,287.4 L 313.4,287.5 L 313.5,287.5 L 313.6,287.4 L 313.8,287.4 L 313.9,287.5 L 313.9,287.7 L 313.9,288.0 L 314.2,288.0 L 314.6,288.1 L 314.8,288.2 L 314.8,288.2 L 314.8,288.3 L 314.8,288.4 L 314.7,288.8 L 314.6,289.0 L 314.4,289.1 L 314.3,289.2 L 314.1,289.3 L 313.9,289.5 L 313.8,289.4 L 313.7,289.5 L 313.7,289.5 L 313.6,289.6 L 313.5,289.7 L 313.3,289.9 L 313.3,290.0 L 313.2,290.0 L 313.1,290.1 L 313.0,290.2 L 313.2,290.3 L 313.2,290.3 L 313.2,290.4 L 313.2,290.5 L 313.1,290.5 L 313.0,290.6 L 312.8,290.6 L 312.6,290.5 L 312.6,290.4 L 312.5,290.3 L 312.2,290.1 L 312.0,289.9 L 311.6,289.8 L 311.2,289.7 L 311.1,289.7 L 311.1,289.5 L 311.0,289.5 L 310.9,289.7 L 310.7,289.7 L 310.6,289.7 L 310.4,289.6 L 310.3,289.6 L 310.1,289.7 L 310.1,289.8 L 309.9,290.0 L 309.8,290.0 L 309.5,290.2 L 309.4,290.4 L 308.6,291.0 L 308.5,291.2 L 308.3,291.4 L 308.1,291.6 L 308.0,291.7 L 307.9,292.0 L 307.8,292.3 L 307.6,292.7 L 307.4,292.9 L 307.4,292.9 L 307.4,293.0 L 307.4,293.0 L 307.3,293.1 L 307.3,293.2 L 307.2,293.3 L 307.0,293.4 L 306.8,293.6 L 306.7,293.6 L 306.6,293.6 L 306.6,293.6 L 306.5,293.6 L 306.4,293.6 L 306.4,293.5 L 306.3,293.5 L 306.2,293.4 L 306.1,293.3 L 306.0,293.2 L 305.9,293.1 L 305.8,293.1 L 305.7,293.1 L 305.4,292.9 L 305.3,292.8 L 304.9,292.7 L 304.8,292.7 L 304.6,292.7 L 304.4,292.7 L 304.4,292.7 L 304.4,292.7 L 304.4,292.7 L 304.3,292.8 L 304.4,292.9 L 304.5,293.0 L 304.6,293.1 L 304.7,293.2 L 304.8,293.2 L 304.7,293.5 L 304.8,293.5 L 305.0,293.8 L 305.0,293.9 L 305.1,294.0 L 305.1,294.1 L 305.0,294.2 L 304.7,294.4 L 304.6,294.3 L 304.6,294.1 L 304.5,294.1 L 304.5,294.0 L 304.5,294.0 L 304.4,294.1 L 304.2,294.0 L 304.2,293.9 L 304.2,293.8 L 304.1,293.9 L 304.0,293.8 L 303.9,293.8 L 303.7,293.6 L 303.5,293.5 L 303.1,293.5 L 302.6,293.4 L 302.4,293.4 L 301.4,293.3 L 301.2,293.3 L 300.9,293.3 L 300.7,293.3 L 300.2,293.4 L 300.2,293.4 L 299.9,293.5 L 299.6,293.6 L 299.5,293.6 L 298.9,293.8 L 298.7,293.9 L 298.6,293.9 L 298.1,294.0 L 298.0,294.0 L 297.9,294.1 L 297.8,294.2 L 297.5,294.3 L 297.4,294.5 L 297.3,294.6 L 297.2,294.7 L 297.0,295.1 L 296.9,295.3 L 296.9,295.3 L 296.7,295.4 L 296.7,295.5 L 296.6,295.8 L 296.6,295.9 L 296.5,296.0 L 296.4,296.0 L 296.3,296.1 L 296.2,296.1 L 296.1,296.2 L 296.1,296.4 L 296.0,296.4 L 296.0,296.5 L 296.0,296.7 L 296.2,296.8 L 296.5,296.9 L 296.5,297.0 L 296.5,297.1 L 296.3,297.0 L 296.2,297.1 L 296.3,297.2 L 296.3,297.2 L 296.1,297.2 L 296.0,297.3 L 295.8,297.3 L 295.7,297.4 L 295.7,297.4 L 295.6,297.5 L 295.5,297.4 L 295.4,297.4 L 295.2,297.5 L 295.1,297.5 L 295.1,297.6 L 294.9,297.6 L 294.7,297.8 L 294.6,297.9 L 294.5,298.0 L 294.4,298.2 L 294.6,298.5 L 294.8,298.7 L 295.0,298.7 L 295.0,298.9 L 295.2,299.1 L 295.2,299.1 L 295.2,299.2 L 295.0,299.5 L 294.8,299.6 L 294.5,299.6 L 294.4,299.7 L 294.3,299.7 L 294.2,299.5 L 294.1,299.5 L 294.1,299.6 L 294.0,299.7 L 293.9,299.8 L 293.9,299.9 L 293.7,299.9 L 293.5,299.9 L 293.4,300.0 L 293.4,300.1 L 293.4,300.2 L 293.4,300.3 L 293.3,300.3 L 293.1,300.2 L 293.0,300.3 L 292.6,300.2 L 292.6,300.2 L 292.5,300.3 L 292.5,300.4 L 292.5,300.4 L 285.5,305.5 L 285.1,305.5 L 284.9,305.5 L 284.7,305.6 L 284.8,305.7 L 284.7,305.8 L 284.4,305.7 L 284.1,305.8 L 284.0,305.8 L 284.0,305.7 L 283.9,305.7 L 283.8,305.6 L 283.5,305.6 L 283.3,305.6 L 283.1,305.7 L 283.0,305.8 L 282.8,306.0 L 282.8,306.1 L 282.6,306.1 L 282.4,306.2 L 282.3,306.3 L 282.3,306.6 L 282.4,306.7 L 282.5,306.9 L 282.6,306.9 L 282.9,307.2 L 283.0,307.2 L 283.0,307.2 L 276.4,315.5 L 276.4,315.5 L 276.3,315.4 L 276.3,315.4 L 276.3,315.5 L 276.2,315.5 L 276.1,315.5 L 276.1,315.5 L 275.9,315.5 L 275.8,315.5 L 275.6,315.5 L 275.5,315.6 L 275.5,315.6 L 275.4,315.6 L 243.6,311.0 L 82.0,316.1 L 82.0,316.0 L 81.9,316.0 L 81.9,315.9 L 81.8,315.9 L 81.8,316.0 L 81.8,316.1 L 81.3,316.1 L 81.3,316.1 L 81.3,316.1 L 81.3,316.0 L 81.3,315.8 L 81.3,315.8 L 81.3,315.7 L 81.2,315.7 L 81.2,315.9 L 81.1,316.0 L 81.1,316.1 L 80.5,316.2 L 80.5,316.2 L 80.5,316.1 L 80.6,316.0 L 80.7,315.9 L 80.8,315.8 L 80.8,315.8 L 80.8,315.6 L 80.8,315.5 L 80.8,315.5 L 80.6,315.4 L 80.5,315.4 L 80.4,315.4 L 80.2,315.5 L 80.1,315.5 L 79.9,315.5 L 79.9,315.6 L 80.0,315.9 L 80.1,315.9 L 80.1,315.9 L 80.1,316.2 L 80.1,316.2 L 79.3,316.2 L 79.3,316.1 L 79.3,316.0 L 79.2,315.8 L 79.2,315.6 L 79.0,315.4 L 78.9,315.4 L 78.8,315.4 L 78.6,315.3 L 78.5,315.3 L 78.5,315.3 L 78.4,315.3 L 78.4,315.4 L 78.3,315.5 L 78.2,315.4 L 78.1,315.2 L 77.8,315.1 L 77.8,315.1 L 77.7,315.1 L 40.0,291.1 L 40.2,291.0 L 48.4,282.6 L 56.6,274.2 L 71.6,259.0 L 82.7,247.7 L 85.2,245.1 L 94.7,235.4" fill="none" stroke="black" stroke-width="2"/>
</svg>