<?xml version="1.0" encoding="UTF-8"?>
<svg width="400" height="400" viewBox="0 0 400 400" xmlns="http://www.w3.org/2000/svg">
  <rect width="400" height="400" fill="white"/>
  <path d="M 81.1,179.4 L 74.1,175.9 L 66.2,172.2 L 62.1,168.5 L 49.1,149.6 L 47.1,144.9 L 40.0,136.3 L 40.1,135.4 L 44.1,105.7 L 45.7,103.3 L 48.0,102.4 L 63.4,104.5 L 66.2,103.7 L 71.2,103.0 L 76.6,105.1 L 87.1,107.4 L 95.7,110.2 L 101.4,109.7 L 106.6,106.6 L 124.5,105.6 L 131.3,104.5 L 144.0,107.5 L 145.1,107.8 L 157.5,106.7 L 165.4,105.2 L 175.5,104.6 L 211.5,95.1 L 226.6,92.9 L 233.7,96.3 L 254.3,95.5 L 258.8,98.0 L 281.1,128.0 L 287.3,133.5 L 306.9,143.8 L 314.6,151.7 L 322.3,160.3 L 327.2,167.9 L 338.7,182.8 L 339.7,189.1 L 341.9,196.0 L 349.0,203.4 L 354.6,211.1 L 354.5,216.2 L 351.8,223.8 L 350.5,230.3 L 351.3,233.8 L 356.5,238.1 L 360.0,243.3 L 359.1,259.5 L 355.9,270.4 L 346.5,282.4 L 341.5,287.5 L 330.3,292.5 L 329.5,296.5 L 331.1,303.3 L 330.8,307.1 L 326.7,302.9 L 320.3,292.2 L 321.4,287.9 L 325.8,281.6 L 325.9,276.0 L 321.0,273.3 L 302.2,271.1 L 295.4,267.6 L 278.6,249.4 L 267.8,243.5 L 258.4,235.9 L 250.6,231.2 L 247.2,224.8 L 242.6,215.0 L 234.9,206.5 L 225.5,199.5 L 210.8,189.7 L 199.0,179.6 L 192.2,173.4 L 181.4,169.7 L 176.7,167.5 L 168.9,157.6 L 159.2,154.9 L 154.2,155.5 L 145.3,155.3 L 139.4,156.2 L 134.0,157.0 L 116.1,164.0 L 108.2,163.0 L 95.9,165.4 L 87.6,170.2 L 84.9,175.5" fill="none" stroke="black" stroke-width="2"/>
</svg>