<?xml version="1.0" encoding="UTF-8"?>
<svg width="400" height="400" viewBox="0 0 400 400" xmlns="http://www.w3.org/2000/svg">
  <rect width="400" height="400" fill="white"/>
  <path d="M 138.5,360.0 L 138.4,359.8 L 93.6,203.5 L 93.6,203.3 L 93.8,203.4 L 94.2,203.4 L 94.5,203.2 L 95.4,203.4 L 95.8,203.5 L 96.2,203.4 L 96.3,203.1 L 96.3,202.8 L 96.6,202.5 L 96.7,201.8 L 96.1,200.1 L 95.8,198.6 L 95.8,198.2 L 96.4,197.5 L 96.4,197.0 L 95.9,195.9 L 95.8,195.7 L 95.7,195.2 L 95.5,194.7 L 95.1,194.5 L 94.7,194.4 L 94.3,194.1 L 94.1,193.5 L 93.8,193.4 L 93.4,193.4 L 92.9,193.4 L 98.5,179.8 L 98.8,179.9 L 99.9,179.9 L 100.0,179.8 L 100.8,179.2 L 100.9,178.9 L 101.1,178.8 L 107.3,177.9 L 107.4,177.9 L 107.4,178.1 L 107.1,179.3 L 107.0,180.8 L 107.3,181.5 L 107.7,182.1 L 108.6,181.9 L 109.3,181.4 L 109.8,181.7 L 109.7,181.9 L 109.8,182.8 L 110.2,183.3 L 110.6,183.4 L 111.1,182.7 L 111.5,182.8 L 112.1,183.4 L 112.8,184.0 L 113.5,184.0 L 113.9,183.6 L 114.0,183.3 L 114.8,183.4 L 115.5,183.9 L 116.0,184.6 L 116.6,184.9 L 118.1,185.0 L 119.8,184.2 L 120.1,184.3 L 120.1,185.1 L 119.2,186.4 L 119.0,186.9 L 119.2,187.6 L 119.7,188.2 L 120.9,188.8 L 121.3,189.3 L 122.1,189.3 L 122.5,189.5 L 123.2,189.6 L 123.7,189.9 L 124.0,190.4 L 124.3,190.5 L 124.6,190.7 L 125.1,190.9 L 125.9,190.9 L 126.3,190.9 L 126.5,190.9 L 126.7,190.8 L 126.8,191.0 L 127.1,191.2 L 127.4,191.4 L 127.9,192.0 L 127.9,192.2 L 127.9,192.4 L 127.5,193.2 L 127.2,193.3 L 127.0,193.3 L 126.3,192.8 L 125.7,192.6 L 125.2,192.8 L 124.9,192.7 L 124.2,192.1 L 123.5,192.0 L 123.2,191.8 L 122.8,191.7 L 122.3,191.8 L 121.9,191.9 L 120.4,191.8 L 120.3,191.5 L 120.0,191.3 L 119.1,191.4 L 118.9,191.7 L 119.0,192.0 L 119.0,192.4 L 118.5,193.5 L 117.7,193.9 L 117.3,194.5 L 117.6,195.0 L 118.3,195.3 L 118.8,195.9 L 119.3,195.9 L 120.2,195.3 L 121.1,195.2 L 121.8,194.8 L 122.0,194.8 L 121.9,195.1 L 121.6,195.5 L 121.4,196.1 L 121.1,196.4 L 121.1,196.8 L 121.2,196.8 L 121.3,197.0 L 121.0,197.2 L 121.0,197.5 L 121.5,197.9 L 122.3,198.1 L 123.0,198.3 L 123.1,198.3 L 123.2,198.3 L 123.8,198.2 L 124.2,198.4 L 124.5,198.5 L 126.5,198.9 L 127.3,198.8 L 127.5,198.7 L 127.8,198.5 L 128.2,197.9 L 128.9,197.4 L 129.1,197.5 L 129.5,197.8 L 129.6,198.0 L 129.6,198.9 L 129.6,198.9 L 129.9,199.3 L 130.6,199.4 L 130.9,199.7 L 130.6,200.3 L 130.8,200.6 L 131.2,200.8 L 131.9,201.0 L 132.7,200.9 L 134.3,199.8 L 134.6,199.8 L 134.8,200.1 L 134.9,201.1 L 135.2,201.4 L 135.8,201.6 L 136.5,202.5 L 138.1,202.7 L 138.4,202.9 L 139.7,203.0 L 140.2,202.7 L 140.4,202.3 L 140.4,200.8 L 140.7,200.5 L 141.3,200.4 L 142.1,200.4 L 142.7,200.1 L 142.8,200.1 L 143.1,199.7 L 144.3,199.2 L 144.6,199.0 L 144.7,198.3 L 145.5,198.0 L 146.3,197.5 L 147.2,197.2 L 147.2,196.9 L 146.9,196.5 L 147.0,195.9 L 147.4,195.4 L 147.9,195.1 L 148.4,194.8 L 149.3,194.8 L 150.7,194.8 L 151.0,194.8 L 151.6,194.6 L 153.3,194.7 L 153.9,194.4 L 155.1,194.0 L 155.5,193.7 L 155.6,193.0 L 156.2,192.2 L 157.0,191.9 L 157.7,191.3 L 157.9,191.3 L 158.0,191.4 L 158.3,191.6 L 158.9,191.4 L 159.2,190.9 L 159.4,190.1 L 160.0,189.5 L 160.6,188.8 L 161.3,188.3 L 161.8,188.1 L 162.4,188.3 L 163.1,187.8 L 163.6,187.1 L 164.2,186.9 L 165.1,186.9 L 165.9,186.6 L 167.0,185.2 L 167.5,184.5 L 168.2,183.9 L 169.0,183.5 L 169.9,183.4 L 170.5,183.1 L 171.2,182.5 L 171.7,181.2 L 172.4,181.1 L 173.2,181.2 L 174.1,181.6 L 174.8,182.1 L 175.3,182.7 L 175.3,182.8 L 175.4,183.5 L 175.8,184.3 L 176.0,184.4 L 176.3,184.5 L 176.7,185.1 L 177.3,185.1 L 177.8,184.9 L 178.3,185.2 L 178.7,184.4 L 178.9,183.6 L 179.6,183.2 L 180.5,183.2 L 181.1,183.2 L 181.5,183.3 L 183.2,183.0 L 183.4,182.6 L 182.9,181.7 L 183.2,180.8 L 183.7,180.1 L 184.3,179.5 L 184.7,179.4 L 185.8,180.3 L 185.9,179.5 L 186.6,179.1 L 187.5,179.1 L 188.4,179.3 L 189.0,179.2 L 189.7,178.7 L 190.1,177.9 L 190.5,177.2 L 190.1,176.5 L 189.8,175.8 L 189.8,175.4 L 190.4,175.2 L 190.6,175.4 L 191.1,176.1 L 191.7,176.5 L 192.1,176.1 L 193.0,174.6 L 193.5,173.9 L 194.1,173.2 L 194.5,172.7 L 194.7,171.8 L 194.6,171.6 L 195.8,170.8 L 195.6,170.6 L 194.5,171.4 L 193.9,171.1 L 193.3,170.7 L 193.5,169.9 L 194.0,169.1 L 194.9,168.9 L 194.8,168.7 L 193.9,168.5 L 193.7,168.3 L 193.6,167.6 L 193.9,166.9 L 194.6,166.4 L 194.9,165.6 L 195.4,164.8 L 196.1,164.2 L 196.7,163.6 L 198.1,162.5 L 198.4,162.6 L 198.9,163.3 L 199.1,163.3 L 199.1,162.9 L 198.8,162.3 L 198.9,162.1 L 198.7,161.6 L 198.7,161.3 L 199.0,161.2 L 199.8,161.2 L 200.6,160.8 L 201.1,160.4 L 200.6,159.6 L 200.2,158.9 L 200.1,158.0 L 199.9,157.1 L 199.6,157.0 L 198.8,157.1 L 197.9,157.2 L 197.3,157.3 L 196.6,157.8 L 195.8,158.1 L 194.9,158.2 L 194.0,158.3 L 193.1,158.2 L 192.3,157.8 L 191.6,157.3 L 190.7,155.8 L 190.3,154.1 L 190.2,153.2 L 189.7,151.6 L 189.3,149.9 L 189.1,149.1 L 188.9,148.2 L 188.8,146.5 L 188.8,145.6 L 189.0,144.8 L 189.1,143.9 L 188.9,139.5 L 189.0,137.7 L 188.9,136.8 L 189.1,136.3 L 189.3,135.8 L 189.2,135.7 L 188.9,135.5 L 188.9,134.6 L 188.8,133.7 L 188.8,132.9 L 188.6,132.3 L 188.1,131.6 L 187.2,131.0 L 186.6,130.6 L 184.9,130.1 L 183.2,129.6 L 182.4,129.3 L 181.7,128.9 L 181.0,128.4 L 180.2,128.0 L 179.9,127.7 L 180.2,127.1 L 180.2,126.9 L 180.7,126.8 L 180.6,126.6 L 180.2,126.7 L 180.1,126.6 L 180.6,126.2 L 180.4,126.1 L 180.6,125.9 L 180.7,125.6 L 180.0,126.0 L 179.4,126.4 L 178.5,126.5 L 177.6,126.6 L 175.9,126.6 L 170.6,126.0 L 169.7,126.1 L 168.9,126.3 L 168.0,126.4 L 167.1,126.3 L 166.7,126.1 L 166.7,125.7 L 166.8,125.7 L 167.6,125.4 L 168.0,124.6 L 168.5,124.3 L 170.3,124.0 L 170.9,124.2 L 171.4,124.7 L 172.3,124.6 L 173.0,124.6 L 173.3,124.2 L 173.1,123.8 L 173.0,123.4 L 172.1,123.2 L 172.0,122.4 L 171.1,122.1 L 170.9,121.8 L 171.1,121.6 L 172.0,121.4 L 172.7,121.0 L 174.4,120.3 L 175.0,119.9 L 175.1,119.7 L 175.5,119.3 L 174.8,119.0 L 173.9,118.9 L 173.4,118.7 L 173.3,118.3 L 173.5,117.8 L 174.2,117.4 L 174.4,117.0 L 174.4,116.1 L 174.7,115.3 L 176.0,114.4 L 176.7,114.0 L 176.7,113.1 L 176.5,112.3 L 175.7,112.1 L 175.2,112.3 L 174.9,112.5 L 173.7,111.8 L 173.2,111.2 L 172.3,111.0 L 171.5,110.9 L 169.7,111.4 L 169.0,111.5 L 167.8,111.4 L 167.9,111.0 L 168.4,110.7 L 169.1,110.6 L 169.4,110.3 L 169.3,110.2 L 168.7,110.2 L 168.8,109.9 L 169.4,109.1 L 170.0,108.7 L 170.5,108.5 L 171.8,107.4 L 172.9,107.0 L 172.9,106.7 L 172.3,106.2 L 171.8,105.9 L 171.7,105.6 L 171.6,105.5 L 171.1,105.5 L 170.7,105.9 L 169.5,105.8 L 169.1,105.6 L 168.7,105.1 L 168.3,104.0 L 168.2,103.6 L 168.2,103.3 L 168.7,102.8 L 168.6,102.5 L 168.2,102.1 L 167.2,101.9 L 166.5,101.8 L 166.2,101.7 L 165.5,101.2 L 165.4,100.8 L 165.5,100.0 L 165.8,99.7 L 165.8,99.5 L 165.0,98.9 L 164.4,98.1 L 163.2,98.1 L 162.5,98.3 L 160.3,98.2 L 160.1,98.4 L 159.4,98.9 L 159.3,99.3 L 159.3,99.8 L 159.1,100.9 L 158.4,101.3 L 158.1,101.8 L 156.8,102.4 L 154.9,102.3 L 154.5,102.0 L 154.3,101.4 L 154.7,100.2 L 154.7,99.5 L 154.3,98.4 L 154.4,96.9 L 154.2,95.9 L 154.0,95.6 L 153.4,95.5 L 153.3,95.3 L 153.4,94.3 L 153.3,93.2 L 153.7,92.8 L 153.5,92.6 L 153.1,92.3 L 152.8,91.9 L 152.7,91.6 L 152.2,90.7 L 151.9,89.5 L 151.9,88.3 L 151.8,87.5 L 152.0,86.4 L 152.4,85.7 L 153.1,85.1 L 153.7,84.1 L 153.7,83.3 L 152.3,81.9 L 152.0,80.9 L 151.3,79.6 L 151.4,78.4 L 151.8,77.1 L 152.0,77.0 L 152.7,77.2 L 153.2,76.8 L 153.6,76.0 L 153.9,74.8 L 154.4,73.9 L 154.4,73.3 L 154.4,72.8 L 155.0,72.1 L 155.2,71.6 L 154.9,70.3 L 154.4,70.3 L 153.3,70.7 L 152.5,70.7 L 152.6,70.5 L 153.0,70.2 L 153.2,69.7 L 153.2,69.5 L 152.8,69.3 L 152.6,69.1 L 151.8,68.5 L 151.2,68.8 L 150.4,69.4 L 149.8,69.6 L 149.7,69.4 L 150.0,68.2 L 150.0,68.1 L 177.5,44.6 L 177.6,44.8 L 177.8,45.3 L 178.1,45.6 L 178.3,45.5 L 178.5,45.3 L 178.5,45.0 L 178.3,44.7 L 178.4,43.9 L 181.8,41.8 L 181.7,42.0 L 181.8,42.4 L 182.0,42.7 L 182.3,42.6 L 182.5,42.5 L 183.0,42.5 L 183.1,41.4 L 183.3,40.9 L 184.4,40.2 L 184.7,40.0 L 184.6,40.2 L 184.7,42.2 L 185.1,43.6 L 185.6,45.0 L 185.7,46.6 L 186.2,47.3 L 186.3,47.7 L 185.9,47.7 L 185.6,47.8 L 185.5,48.2 L 185.9,48.8 L 187.0,49.4 L 187.5,49.7 L 188.3,50.1 L 188.7,50.3 L 189.2,50.6 L 190.0,51.0 L 191.1,51.1 L 193.9,50.3 L 194.9,49.7 L 195.8,49.4 L 196.6,49.6 L 196.9,49.8 L 197.2,49.9 L 197.5,50.4 L 197.4,51.0 L 197.0,51.0 L 196.8,50.9 L 196.6,50.9 L 196.2,51.6 L 195.6,52.2 L 195.5,52.6 L 195.6,52.8 L 196.1,52.9 L 196.4,52.9 L 196.6,52.7 L 197.1,52.6 L 197.6,52.6 L 197.5,51.9 L 197.6,51.5 L 198.0,51.4 L 199.6,51.6 L 199.8,51.7 L 200.2,52.7 L 200.2,53.6 L 199.8,54.0 L 199.7,54.3 L 200.3,54.4 L 201.1,55.4 L 202.0,55.6 L 202.3,56.0 L 202.8,57.3 L 202.9,58.1 L 202.8,59.8 L 202.7,61.9 L 202.3,62.9 L 200.5,66.5 L 199.9,67.0 L 199.3,67.4 L 198.6,67.4 L 198.4,67.2 L 197.9,66.0 L 197.6,65.8 L 197.3,66.0 L 196.8,66.6 L 195.4,67.2 L 195.3,67.4 L 195.1,67.4 L 194.6,66.6 L 194.3,65.7 L 193.8,66.0 L 193.6,66.0 L 193.1,65.3 L 192.7,65.2 L 191.9,66.2 L 191.4,65.8 L 190.7,65.5 L 190.3,65.5 L 190.1,65.9 L 190.2,66.5 L 190.1,67.7 L 190.3,68.2 L 190.7,69.2 L 190.9,69.7 L 191.9,70.9 L 192.4,71.0 L 193.3,71.7 L 194.2,71.7 L 194.7,71.4 L 195.0,71.5 L 195.5,71.8 L 195.6,72.4 L 195.5,74.5 L 196.2,77.3 L 196.8,78.5 L 197.4,79.5 L 198.5,79.9 L 202.6,82.8 L 203.8,83.4 L 204.7,83.8 L 205.9,83.9 L 206.8,83.6 L 207.3,83.5 L 207.8,83.8 L 208.7,84.8 L 210.1,86.3 L 210.7,87.0 L 211.1,88.1 L 211.2,89.0 L 211.0,89.3 L 210.9,89.7 L 211.1,90.3 L 211.6,90.7 L 213.1,91.4 L 214.2,91.6 L 215.0,91.7 L 215.8,92.3 L 217.0,93.0 L 218.1,93.5 L 218.8,93.7 L 220.0,93.9 L 221.2,93.9 L 221.4,93.8 L 222.6,93.4 L 224.1,93.4 L 224.8,93.6 L 225.8,94.0 L 226.5,94.5 L 226.5,94.9 L 226.9,96.7 L 227.7,97.4 L 228.2,97.6 L 229.6,97.7 L 230.2,97.6 L 231.0,97.7 L 231.7,97.8 L 232.4,97.9 L 232.7,98.1 L 233.0,98.5 L 233.5,99.7 L 233.5,100.6 L 233.3,101.4 L 233.0,101.7 L 232.3,101.8 L 231.0,102.2 L 230.2,102.7 L 229.7,103.4 L 229.1,103.9 L 229.1,104.2 L 228.9,104.6 L 228.0,105.5 L 227.9,106.1 L 228.3,107.2 L 229.4,108.4 L 230.6,108.9 L 231.2,108.9 L 232.5,108.4 L 233.4,107.9 L 234.1,107.5 L 234.2,107.5 L 234.6,107.2 L 259.9,149.3 L 260.0,149.5 L 259.6,149.8 L 258.9,150.0 L 258.3,149.8 L 257.7,150.0 L 256.0,151.7 L 254.3,152.6 L 254.1,153.2 L 253.3,154.3 L 253.2,154.8 L 253.2,155.5 L 253.9,157.2 L 254.5,157.8 L 255.3,158.1 L 256.3,158.1 L 256.6,157.7 L 257.1,156.8 L 257.6,156.5 L 259.3,155.8 L 259.7,156.0 L 259.8,156.2 L 259.9,157.3 L 261.0,159.8 L 261.4,160.8 L 261.6,161.2 L 262.5,161.3 L 262.9,161.3 L 263.6,161.0 L 264.1,161.1 L 264.8,161.8 L 265.5,163.2 L 266.5,163.3 L 267.2,163.6 L 268.2,164.6 L 268.8,165.0 L 269.1,165.0 L 269.9,164.6 L 270.4,164.5 L 271.0,164.6 L 271.8,164.8 L 273.1,164.9 L 274.3,164.7 L 274.9,164.7 L 275.9,165.0 L 276.3,165.4 L 276.4,165.7 L 276.0,166.3 L 275.9,167.4 L 276.4,167.8 L 277.0,168.7 L 276.9,170.2 L 277.3,170.5 L 277.5,171.0 L 277.4,171.7 L 277.0,171.9 L 276.8,172.4 L 276.5,173.0 L 276.5,173.8 L 277.1,175.0 L 277.3,176.2 L 278.3,177.9 L 279.3,178.8 L 280.4,178.9 L 280.8,179.3 L 281.5,179.7 L 282.0,180.4 L 282.5,180.8 L 283.6,181.9 L 284.3,183.1 L 284.3,184.1 L 284.3,184.8 L 284.3,185.4 L 284.6,186.3 L 284.7,186.7 L 284.7,187.7 L 284.6,187.9 L 284.4,188.4 L 284.0,188.8 L 283.2,189.2 L 282.9,189.3 L 282.0,189.4 L 281.4,189.4 L 280.9,189.3 L 279.7,188.8 L 277.9,188.4 L 277.0,188.1 L 276.8,188.0 L 276.5,187.7 L 276.3,187.6 L 276.8,186.8 L 276.7,186.6 L 276.1,186.1 L 275.7,186.4 L 275.6,186.6 L 275.5,186.6 L 275.3,186.3 L 275.1,186.4 L 274.9,185.8 L 274.7,185.4 L 273.8,183.9 L 273.1,182.9 L 272.8,182.2 L 272.8,181.9 L 273.0,180.7 L 272.8,180.3 L 272.6,180.1 L 272.0,179.5 L 271.6,179.0 L 271.1,178.6 L 270.9,178.3 L 270.3,177.8 L 269.9,177.6 L 269.2,177.5 L 268.1,177.5 L 267.8,176.9 L 267.3,176.4 L 266.6,176.0 L 266.1,175.8 L 265.5,175.8 L 265.3,175.7 L 264.8,176.1 L 264.4,176.0 L 263.6,175.8 L 263.3,175.7 L 263.0,175.2 L 262.6,174.0 L 262.1,173.3 L 261.8,172.8 L 261.6,172.5 L 261.2,171.1 L 261.2,170.2 L 261.1,170.0 L 260.7,169.7 L 260.2,169.4 L 259.6,169.2 L 259.0,169.2 L 258.8,169.3 L 258.8,169.4 L 258.9,169.6 L 259.7,169.6 L 260.4,170.0 L 260.7,170.3 L 260.8,170.6 L 260.8,171.2 L 260.6,171.5 L 260.4,171.8 L 259.1,172.1 L 258.9,172.2 L 258.6,172.6 L 258.5,173.2 L 258.4,174.0 L 258.2,175.6 L 257.1,178.5 L 258.1,181.0 L 258.4,182.2 L 257.9,184.0 L 257.0,185.4 L 256.8,186.2 L 257.1,187.1 L 257.6,187.8 L 258.1,188.2 L 258.9,188.4 L 260.0,189.1 L 260.5,189.7 L 260.7,189.8 L 261.4,189.7 L 261.9,190.5 L 262.4,191.0 L 262.9,191.5 L 263.3,192.2 L 264.2,192.9 L 264.9,193.6 L 265.4,194.4 L 267.5,196.0 L 268.9,197.0 L 269.8,197.2 L 270.5,197.0 L 271.2,197.4 L 271.6,197.4 L 273.0,198.3 L 274.1,198.8 L 274.1,199.4 L 273.8,200.2 L 273.6,202.3 L 273.6,202.6 L 273.9,203.3 L 274.6,203.7 L 275.8,203.8 L 276.4,204.0 L 277.2,204.7 L 277.9,204.8 L 278.4,205.2 L 279.1,205.3 L 279.6,205.8 L 282.3,206.2 L 283.1,206.4 L 284.5,207.5 L 285.3,208.2 L 288.0,209.6 L 289.4,211.2 L 290.2,213.2 L 290.6,213.6 L 291.1,214.1 L 291.3,214.4 L 292.1,215.4 L 292.7,216.0 L 293.6,216.6 L 294.0,217.0 L 294.8,217.7 L 295.3,218.8 L 297.0,220.3 L 297.8,220.7 L 298.4,221.1 L 299.1,221.5 L 300.6,221.7 L 301.9,222.7 L 302.4,223.3 L 302.7,224.0 L 303.6,224.9 L 303.8,225.5 L 304.9,226.8 L 305.8,227.2 L 305.8,227.2 L 306.7,228.4 L 307.1,229.3 L 307.1,229.7 L 306.8,230.1 L 306.8,230.4 L 307.1,232.4 L 307.0,234.0 L 306.1,234.6 L 305.6,234.6 L 304.5,234.4 L 303.3,233.8 L 299.9,233.6 L 299.2,233.6 L 298.5,233.8 L 298.1,234.2 L 298.0,234.9 L 298.4,235.4 L 298.6,235.9 L 298.6,236.5 L 298.7,237.0 L 298.7,238.5 L 299.0,238.7 L 299.1,239.2 L 299.7,240.2 L 300.9,242.7 L 301.2,243.5 L 301.5,244.2 L 300.9,244.1 L 298.0,242.5 L 297.4,241.7 L 296.8,240.7 L 295.0,238.5 L 294.5,237.8 L 294.1,236.5 L 293.5,235.4 L 292.3,234.3 L 290.5,233.2 L 289.7,233.0 L 288.7,232.7 L 288.3,232.4 L 288.2,232.1 L 288.1,231.8 L 287.3,231.1 L 285.9,229.6 L 285.2,229.0 L 284.8,228.4 L 284.2,227.7 L 283.2,227.3 L 281.8,226.3 L 280.8,225.6 L 279.8,224.9 L 278.6,223.2 L 277.8,222.6 L 276.5,221.7 L 275.8,221.0 L 275.7,220.7 L 275.1,220.3 L 274.6,219.9 L 273.4,219.3 L 272.2,219.1 L 271.2,219.0 L 269.0,218.7 L 268.4,218.4 L 266.8,218.0 L 266.3,217.6 L 265.9,216.9 L 265.4,216.0 L 265.4,216.0 L 264.7,215.2 L 262.9,213.7 L 262.4,213.1 L 261.3,212.4 L 260.6,211.3 L 260.4,210.8 L 259.4,209.8 L 259.1,208.4 L 258.4,207.2 L 257.6,206.4 L 257.0,205.9 L 256.5,205.5 L 255.9,204.9 L 252.8,203.3 L 251.8,202.5 L 250.7,202.1 L 249.1,201.9 L 247.7,201.1 L 247.3,200.7 L 245.4,200.4 L 245.3,200.4 L 245.1,201.0 L 245.0,202.0 L 245.4,202.3 L 246.1,203.1 L 245.9,203.5 L 245.6,203.5 L 244.6,202.7 L 244.0,202.8 L 243.0,203.2 L 242.3,203.5 L 241.4,203.5 L 240.4,203.7 L 239.9,204.1 L 239.3,204.4 L 238.7,204.4 L 238.3,204.3 L 237.9,204.2 L 237.5,204.3 L 237.1,204.6 L 237.0,205.1 L 237.4,205.6 L 237.8,206.9 L 238.6,208.4 L 238.9,209.2 L 239.1,209.5 L 239.0,210.5 L 238.8,210.8 L 238.2,210.8 L 237.9,210.7 L 237.6,210.9 L 237.5,211.3 L 238.2,212.0 L 238.3,212.3 L 237.9,212.7 L 237.5,212.7 L 237.2,213.0 L 237.2,213.2 L 237.3,213.3 L 237.6,213.8 L 237.2,214.0 L 236.2,213.8 L 236.0,214.0 L 235.7,214.2 L 235.7,214.5 L 236.1,215.2 L 236.7,215.5 L 237.1,215.5 L 237.5,215.9 L 237.5,216.5 L 237.8,216.8 L 238.4,216.8 L 239.0,216.5 L 239.6,215.6 L 240.2,214.9 L 241.3,215.0 L 241.9,215.3 L 242.3,215.6 L 242.4,215.9 L 242.1,216.3 L 241.9,216.3 L 241.5,216.0 L 241.2,216.1 L 240.8,216.8 L 240.3,218.1 L 240.2,218.8 L 240.3,219.2 L 240.9,219.6 L 241.3,220.5 L 241.8,220.7 L 241.8,220.9 L 242.0,221.2 L 242.7,221.2 L 243.2,220.9 L 243.5,221.3 L 244.3,221.3 L 244.9,221.0 L 245.2,220.5 L 245.8,220.1 L 246.7,219.3 L 246.8,218.8 L 247.1,218.6 L 247.8,218.6 L 248.1,218.6 L 248.5,218.8 L 249.2,219.4 L 250.6,219.5 L 251.0,219.5 L 251.4,220.1 L 251.5,220.7 L 251.5,220.8 L 251.6,221.4 L 250.9,222.6 L 250.4,223.8 L 250.1,224.6 L 249.9,225.9 L 249.6,225.9 L 249.3,226.1 L 249.1,226.7 L 249.2,226.9 L 248.7,227.5 L 248.7,228.0 L 249.5,228.5 L 249.5,230.1 L 249.7,231.2 L 249.7,232.2 L 249.7,232.4 L 249.5,232.9 L 248.6,233.8 L 247.8,234.2 L 247.4,234.5 L 246.8,234.9 L 246.0,234.8 L 245.6,234.6 L 245.6,233.8 L 245.1,233.1 L 244.7,232.7 L 244.3,232.4 L 243.6,231.7 L 243.1,231.6 L 242.3,231.9 L 241.5,232.4 L 240.7,233.5 L 239.8,234.2 L 238.7,234.8 L 238.6,235.5 L 238.8,236.2 L 239.3,236.2 L 240.4,235.8 L 240.8,235.7 L 241.0,236.0 L 241.2,236.2 L 240.8,236.8 L 240.6,237.0 L 240.4,237.3 L 239.8,237.2 L 239.5,237.6 L 239.5,238.5 L 239.8,238.7 L 239.5,239.2 L 239.6,239.4 L 240.2,239.7 L 240.2,240.5 L 240.0,240.8 L 239.0,241.0 L 238.3,241.5 L 238.2,241.9 L 238.4,242.6 L 238.8,243.5 L 239.1,243.9 L 239.1,244.4 L 239.4,245.3 L 239.8,245.6 L 240.2,246.2 L 241.0,247.9 L 241.5,248.2 L 242.9,249.9 L 243.6,250.1 L 244.7,250.8 L 246.2,251.8 L 247.4,252.7 L 248.3,253.4 L 249.3,254.6 L 249.7,255.3 L 249.9,256.1 L 250.0,257.3 L 250.0,257.3 L 249.7,257.9 L 248.7,258.5 L 248.2,258.5 L 247.8,258.3 L 247.3,258.0 L 247.0,258.1 L 246.9,258.5 L 247.1,259.0 L 246.4,259.4 L 245.5,259.8 L 245.5,259.8 L 244.6,259.8 L 244.0,259.6 L 243.2,259.5 L 242.8,259.4 L 242.4,258.8 L 242.3,258.6 L 242.2,258.3 L 241.8,257.7 L 241.7,257.4 L 241.2,256.7 L 241.2,256.1 L 241.0,255.8 L 240.4,255.7 L 239.6,256.2 L 239.1,256.9 L 239.0,257.5 L 239.6,259.5 L 240.5,260.9 L 240.7,261.6 L 240.6,262.1 L 240.2,262.4 L 238.7,263.1 L 237.9,263.1 L 236.5,262.3 L 235.9,261.6 L 235.6,260.8 L 235.7,259.4 L 236.5,257.9 L 236.4,257.2 L 235.9,256.5 L 235.4,256.4 L 235.4,256.6 L 234.2,257.1 L 233.3,257.7 L 232.9,258.2 L 232.8,258.5 L 232.6,259.1 L 231.7,260.0 L 230.8,260.6 L 230.5,260.6 L 230.2,260.7 L 229.7,260.5 L 229.0,260.4 L 228.5,260.6 L 227.8,260.8 L 226.6,260.1 L 226.5,259.6 L 225.8,259.0 L 224.9,258.6 L 223.8,258.4 L 222.7,257.8 L 221.8,257.1 L 221.4,257.1 L 221.3,257.4 L 220.2,258.5 L 220.1,259.2 L 220.7,260.5 L 220.7,260.9 L 220.0,260.8 L 220.1,261.0 L 219.9,261.2 L 219.6,261.2 L 219.4,261.2 L 217.6,259.7 L 217.3,259.5 L 216.8,259.3 L 216.0,259.4 L 214.9,260.7 L 214.9,261.1 L 214.4,261.3 L 214.3,262.0 L 214.6,262.1 L 214.9,262.0 L 215.4,262.0 L 216.2,262.3 L 217.1,263.1 L 217.5,264.0 L 218.9,265.1 L 219.2,265.5 L 219.1,266.1 L 219.1,266.3 L 219.2,267.0 L 219.4,267.9 L 219.4,268.8 L 219.4,269.5 L 218.6,271.9 L 218.5,272.2 L 217.6,273.7 L 217.0,274.4 L 216.5,275.3 L 216.4,275.5 L 215.7,275.8 L 214.4,275.7 L 214.3,275.7 L 213.7,275.0 L 213.6,274.9 L 212.7,274.7 L 212.5,274.6 L 212.1,274.4 L 210.4,273.0 L 209.5,272.3 L 208.7,272.2 L 207.6,273.1 L 207.4,273.8 L 207.0,274.4 L 206.9,274.7 L 206.7,275.1 L 206.9,275.6 L 207.2,276.3 L 207.5,277.0 L 207.9,278.0 L 208.6,278.7 L 208.9,278.8 L 208.8,280.6 L 208.6,281.4 L 208.1,281.9 L 207.9,281.9 L 207.5,281.5 L 207.3,281.4 L 206.6,281.6 L 206.1,282.2 L 205.9,283.3 L 206.3,284.3 L 206.4,284.8 L 206.2,285.2 L 205.6,285.5 L 204.9,285.6 L 204.2,285.9 L 203.4,286.6 L 202.9,286.9 L 202.6,287.2 L 202.5,287.7 L 202.2,288.1 L 202.1,288.3 L 202.8,288.4 L 203.3,288.7 L 203.7,289.3 L 203.7,289.7 L 203.0,289.8 L 202.8,290.9 L 202.9,291.5 L 203.4,293.0 L 203.8,293.2 L 204.1,293.4 L 204.0,294.3 L 204.0,294.6 L 203.1,295.5 L 202.3,295.4 L 202.0,295.4 L 200.4,294.4 L 199.7,294.1 L 199.3,294.0 L 198.7,294.2 L 198.4,294.6 L 197.7,294.6 L 197.7,294.3 L 197.2,294.2 L 196.6,294.5 L 195.9,294.5 L 195.3,294.2 L 194.9,293.9 L 194.7,293.5 L 194.8,293.3 L 195.2,292.8 L 195.0,292.6 L 194.5,292.7 L 194.1,292.7 L 193.9,292.4 L 193.6,292.3 L 193.1,292.5 L 192.5,292.5 L 191.8,293.3 L 191.7,293.7 L 191.0,294.4 L 191.1,294.8 L 190.9,295.0 L 190.8,295.3 L 191.1,295.4 L 191.7,295.1 L 191.9,295.4 L 192.0,296.2 L 191.9,296.4 L 191.8,296.8 L 192.5,296.9 L 193.0,297.4 L 193.5,298.2 L 193.5,299.1 L 193.4,299.6 L 193.3,300.0 L 192.3,301.8 L 191.8,302.5 L 191.3,302.7 L 191.3,302.7 L 189.1,302.6 L 187.9,301.9 L 187.5,301.5 L 187.1,300.9 L 186.7,300.7 L 185.9,300.7 L 185.9,301.0 L 186.1,301.4 L 186.1,302.3 L 185.9,302.9 L 185.8,303.7 L 185.7,303.7 L 185.5,303.9 L 185.6,304.2 L 185.5,305.1 L 184.9,306.0 L 185.1,306.1 L 185.7,306.2 L 186.0,306.3 L 186.1,306.4 L 186.2,306.7 L 186.3,307.1 L 186.6,307.9 L 187.0,308.6 L 187.4,308.9 L 187.9,309.1 L 187.9,309.1 L 187.9,309.3 L 188.0,312.9 L 188.0,314.2 L 187.9,314.6 L 187.8,314.8 L 187.2,315.0 L 187.0,315.9 L 187.4,316.2 L 187.8,316.7 L 187.7,317.6 L 187.9,318.1 L 188.1,318.5 L 187.9,319.1 L 187.6,320.2 L 187.1,321.2 L 186.9,321.9 L 186.4,322.0 L 186.4,322.1 L 186.0,322.3 L 185.6,322.4 L 184.4,324.6 L 184.1,326.5 L 184.7,327.4 L 185.4,327.7 L 185.6,328.5 L 185.6,328.8 L 185.5,329.4 L 185.5,329.7 L 184.8,330.5 L 184.0,330.8 L 183.4,330.6 L 183.2,330.0 L 182.9,330.0 L 182.8,330.4 L 182.5,330.5 L 182.5,331.6 L 183.1,333.5 L 183.4,333.8 L 178.3,357.1 L 178.2,357.1 L 176.4,356.9 L 175.8,357.0 L 174.4,357.1 L 172.8,356.8 L 172.7,356.2 L 172.4,355.9 L 172.1,355.6 L 171.6,355.6 L 171.4,355.7 L 171.2,356.2 L 170.9,356.3 L 170.8,356.0 L 170.9,355.2 L 171.1,355.0 L 171.3,354.6 L 171.9,354.4 L 172.2,354.3 L 172.2,354.1 L 172.1,354.0 L 172.1,353.7 L 171.9,353.7 L 171.2,353.9 L 171.1,353.8 L 171.6,353.3 L 171.5,353.0 L 171.4,352.7 L 170.8,352.6 L 170.0,353.1 L 170.0,353.5 L 169.8,353.6 L 169.1,353.9 L 168.8,354.0 L 168.3,354.3 L 166.3,355.0 L 165.3,355.4 L 164.6,355.6 L 164.3,355.6 L 163.4,355.0 L 160.4,354.6 L 159.8,354.3 L 159.5,354.1 L 159.5,354.0 L 159.3,353.7 L 158.3,353.0 L 157.6,352.9 L 156.4,353.0 L 153.6,355.6 L 152.7,356.5 L 152.2,357.7 L 151.8,358.2 L 151.2,358.6 L 149.7,358.6 L 149.2,358.3 L 149.0,357.8 L 148.4,357.4 L 147.5,356.1 L 147.1,355.5 L 146.3,355.2 L 145.1,355.1 L 144.0,355.5 L 143.6,356.0 L 142.9,356.3 L 142.4,356.6 L 142.1,356.9 L 141.5,357.2 L 141.2,357.3 L 141.1,357.4 L 141.6,358.3 L 141.3,358.9 L 140.8,359.3 L 140.4,359.3 L 139.5,359.9 L 138.7,359.9 L 138.5,360.0" fill="none" stroke="black" stroke-width="2"/>
</svg>