<?xml version="1.0" encoding="UTF-8"?>
<svg width="400" height="400" viewBox="0 0 400 400" xmlns="http://www.w3.org/2000/svg">
  <rect width="400" height="400" fill="white"/>
  <path d="M 40.5,197.8 L 73.2,184.3 L 73.2,184.4 L 73.2,184.5 L 73.3,184.6 L 73.4,184.6 L 73.4,184.5 L 73.4,184.4 L 73.3,184.2 L 73.3,184.2 L 73.4,184.2 L 73.4,184.2 L 73.4,184.2 L 80.3,181.3 L 80.5,181.5 L 80.5,181.4 L 80.5,181.4 L 80.4,181.3 L 84.1,179.8 L 86.6,178.6 L 86.6,178.7 L 86.7,178.7 L 86.7,178.9 L 86.8,178.9 L 86.9,178.8 L 86.8,178.7 L 86.8,178.6 L 86.9,178.7 L 86.9,178.6 L 86.9,178.5 L 86.9,178.5 L 107.2,168.7 L 138.0,153.6 L 149.0,145.9 L 162.4,136.1 L 348.5,147.9 L 348.4,148.0 L 348.4,148.1 L 348.5,148.3 L 348.8,148.5 L 348.9,148.5 L 349.2,148.3 L 349.3,148.0 L 349.4,148.0 L 349.4,148.0 L 349.4,148.3 L 349.4,148.5 L 349.5,148.6 L 349.7,148.7 L 349.9,148.8 L 348.5,152.2 L 348.4,152.2 L 348.3,152.2 L 348.2,152.3 L 348.1,152.4 L 348.0,152.5 L 348.1,152.5 L 348.2,152.5 L 348.2,152.6 L 348.2,152.7 L 348.2,152.9 L 348.1,153.0 L 348.0,153.0 L 347.9,153.0 L 347.8,153.1 L 347.8,153.1 L 347.8,153.1 L 347.7,153.1 L 347.6,153.1 L 347.6,153.0 L 347.6,152.8 L 347.4,152.6 L 347.3,152.6 L 347.3,152.5 L 347.1,152.1 L 347.0,152.0 L 347.0,151.7 L 346.9,151.5 L 346.8,151.5 L 346.7,151.4 L 346.6,151.5 L 346.6,151.6 L 346.6,151.7 L 346.6,151.7 L 346.5,151.8 L 346.5,151.9 L 346.6,152.0 L 346.6,152.1 L 346.6,152.1 L 346.4,152.3 L 346.4,152.4 L 346.2,152.4 L 346.1,152.5 L 346.1,152.5 L 346.1,152.6 L 346.3,152.7 L 346.3,152.8 L 346.2,152.9 L 346.2,152.9 L 346.1,152.7 L 346.0,152.6 L 346.0,152.6 L 345.8,152.5 L 345.7,152.6 L 345.7,152.8 L 345.7,152.8 L 345.5,152.8 L 345.4,152.9 L 345.2,152.9 L 345.2,153.0 L 345.1,153.0 L 345.0,152.9 L 345.0,152.9 L 344.9,153.0 L 345.0,153.2 L 345.1,153.2 L 345.0,153.3 L 345.1,153.3 L 345.1,153.4 L 345.1,153.5 L 345.0,153.5 L 344.9,153.4 L 345.0,153.2 L 344.8,153.2 L 344.7,153.2 L 344.6,153.4 L 344.5,153.5 L 344.5,153.6 L 344.5,153.6 L 344.5,153.8 L 344.5,153.9 L 344.3,154.0 L 344.2,154.1 L 344.3,154.1 L 344.5,154.2 L 344.5,154.2 L 344.5,154.4 L 344.6,154.6 L 344.6,154.7 L 344.4,154.8 L 344.2,154.6 L 344.1,154.6 L 344.0,154.6 L 343.9,154.6 L 343.8,154.7 L 343.8,154.7 L 343.9,154.8 L 344.0,154.9 L 344.0,155.0 L 343.9,155.0 L 343.8,154.9 L 343.7,154.8 L 343.6,154.9 L 343.7,155.1 L 343.7,155.3 L 343.7,155.4 L 343.7,155.5 L 343.7,155.6 L 343.6,155.8 L 343.6,155.9 L 343.6,156.0 L 343.6,156.2 L 343.6,156.3 L 343.8,156.3 L 344.0,156.1 L 344.1,156.0 L 344.5,156.0 L 344.6,155.9 L 344.6,155.8 L 344.7,155.7 L 344.7,155.5 L 344.8,155.3 L 345.0,155.2 L 345.1,155.2 L 345.1,155.1 L 345.0,154.9 L 345.1,154.6 L 345.2,154.4 L 345.2,154.3 L 345.3,154.4 L 345.3,154.4 L 345.3,154.7 L 345.3,154.8 L 345.3,154.9 L 345.4,154.9 L 345.4,154.9 L 345.4,154.7 L 345.4,154.5 L 345.5,154.5 L 345.7,154.3 L 345.7,154.3 L 345.8,154.3 L 345.8,154.4 L 345.7,154.8 L 345.7,154.9 L 345.8,155.0 L 345.6,155.0 L 345.6,155.1 L 345.7,155.2 L 345.8,155.2 L 345.9,155.2 L 345.9,155.2 L 346.0,155.2 L 345.9,155.0 L 346.0,154.8 L 346.1,154.8 L 346.2,154.9 L 346.2,155.0 L 346.2,155.2 L 346.3,155.3 L 346.5,155.3 L 346.6,155.3 L 346.8,155.0 L 346.9,155.0 L 346.9,155.1 L 347.0,155.1 L 347.0,155.1 L 347.0,155.1 L 347.0,155.1 L 347.0,155.1 L 347.1,155.2 L 347.3,155.5 L 347.3,155.6 L 347.4,155.7 L 347.5,155.7 L 347.5,155.6 L 347.5,155.4 L 347.6,155.3 L 347.6,155.4 L 347.8,155.4 L 347.8,155.3 L 347.8,155.2 L 347.7,155.2 L 347.6,155.2 L 347.6,154.9 L 347.8,154.8 L 347.9,154.8 L 348.2,154.8 L 348.3,154.7 L 348.5,154.7 L 348.6,154.7 L 348.6,154.7 L 348.7,154.8 L 360.0,194.3 L 360.0,194.3 L 359.9,194.4 L 347.0,197.8 L 347.0,197.8 L 347.0,197.5 L 347.0,197.3 L 347.0,197.3 L 347.0,197.2 L 346.6,197.2 L 346.4,197.4 L 346.4,197.6 L 346.4,197.8 L 346.5,198.0 L 346.1,198.1 L 346.0,197.9 L 345.9,197.8 L 345.9,197.9 L 345.9,198.0 L 345.9,198.1 L 345.4,198.4 L 345.2,198.5 L 345.1,198.6 L 345.0,198.6 L 344.9,198.7 L 344.9,198.7 L 345.0,198.6 L 345.0,198.5 L 345.0,198.4 L 344.9,198.5 L 344.8,198.4 L 344.7,198.4 L 344.6,198.5 L 344.4,198.7 L 344.5,198.7 L 344.5,198.9 L 344.3,198.9 L 344.3,198.8 L 344.3,198.8 L 344.0,198.9 L 343.7,199.0 L 343.6,199.1 L 343.5,199.2 L 343.6,199.3 L 343.4,199.5 L 343.3,199.5 L 343.4,199.6 L 343.6,199.6 L 343.6,199.7 L 343.5,199.8 L 343.5,199.8 L 343.5,199.9 L 343.7,200.1 L 343.8,200.2 L 343.7,200.6 L 343.6,200.6 L 343.6,200.7 L 343.7,200.7 L 342.0,206.0 L 342.0,205.9 L 341.9,206.0 L 341.8,206.0 L 341.8,206.1 L 341.8,206.2 L 341.9,206.3 L 341.0,209.2 L 340.9,209.2 L 340.7,209.1 L 340.6,209.1 L 340.5,209.1 L 340.5,209.2 L 340.2,209.1 L 340.2,209.3 L 340.2,209.4 L 340.1,209.5 L 339.9,209.5 L 339.6,209.5 L 339.6,209.5 L 339.5,209.6 L 339.4,209.7 L 339.4,209.9 L 339.2,209.9 L 339.2,210.1 L 339.1,210.1 L 339.0,210.1 L 338.7,210.1 L 338.7,210.3 L 338.9,210.8 L 339.2,211.1 L 339.3,211.3 L 339.4,211.4 L 339.7,211.7 L 340.1,211.8 L 340.1,211.8 L 340.2,211.8 L 341.7,214.6 L 341.9,215.1 L 341.9,215.1 L 341.8,215.1 L 341.8,215.2 L 341.6,215.2 L 341.6,215.2 L 341.5,215.1 L 341.3,215.1 L 341.2,215.1 L 340.7,215.5 L 340.5,215.8 L 340.4,215.9 L 340.2,216.1 L 339.9,216.2 L 339.6,216.2 L 339.1,216.4 L 339.0,216.5 L 339.0,216.6 L 339.0,216.8 L 339.1,216.9 L 339.0,217.0 L 338.7,217.0 L 338.6,217.0 L 338.4,217.0 L 338.2,217.1 L 338.2,217.2 L 338.3,217.4 L 338.2,217.5 L 338.1,217.4 L 338.0,217.4 L 337.9,217.5 L 337.8,217.4 L 337.7,217.4 L 337.5,217.5 L 337.4,217.5 L 337.2,217.5 L 337.1,217.7 L 337.0,217.7 L 336.8,217.7 L 336.6,217.7 L 336.5,217.9 L 336.4,218.0 L 336.3,218.1 L 336.2,218.1 L 336.2,218.2 L 336.1,218.3 L 335.9,218.3 L 335.9,218.4 L 335.9,218.5 L 335.8,218.5 L 335.7,218.5 L 335.6,218.4 L 335.6,218.4 L 335.3,218.5 L 335.2,218.6 L 335.0,218.7 L 335.0,218.7 L 335.0,218.8 L 334.5,218.9 L 334.5,218.9 L 334.6,219.0 L 334.6,219.1 L 334.5,219.2 L 334.4,219.1 L 334.3,219.2 L 334.2,219.2 L 334.2,219.2 L 334.0,219.3 L 333.7,219.4 L 333.5,219.5 L 333.5,219.6 L 333.6,219.8 L 333.6,219.9 L 333.5,220.0 L 333.4,220.1 L 333.3,220.3 L 333.3,220.4 L 333.4,220.5 L 333.3,220.6 L 333.4,220.8 L 334.2,220.8 L 334.2,221.0 L 334.2,221.1 L 334.1,221.1 L 334.0,221.2 L 333.8,221.4 L 333.9,221.5 L 333.8,221.6 L 333.6,221.7 L 333.6,221.9 L 333.7,222.0 L 333.8,222.1 L 333.9,222.1 L 334.1,222.1 L 334.1,222.1 L 334.3,222.1 L 334.4,222.0 L 334.6,222.0 L 334.8,222.1 L 335.3,222.5 L 335.5,222.5 L 335.5,222.6 L 335.5,222.7 L 335.6,222.7 L 335.6,222.6 L 335.6,222.5 L 335.9,222.4 L 336.1,222.4 L 336.2,222.5 L 336.2,222.5 L 336.2,222.7 L 336.2,222.9 L 336.2,223.0 L 336.2,223.0 L 336.1,223.1 L 336.2,223.1 L 335.8,223.4 L 335.4,223.7 L 334.9,224.2 L 334.6,224.4 L 334.5,224.4 L 334.1,224.7 L 333.8,224.7 L 333.7,224.8 L 333.5,224.8 L 333.3,224.8 L 332.9,224.9 L 332.8,224.9 L 332.6,224.9 L 332.6,224.9 L 332.6,225.0 L 332.6,225.4 L 332.6,225.6 L 332.7,225.7 L 332.6,225.9 L 332.7,226.1 L 332.8,226.3 L 332.7,226.4 L 332.6,226.6 L 332.7,226.8 L 332.9,227.0 L 333.3,227.0 L 333.5,227.1 L 333.8,227.1 L 334.0,227.0 L 334.2,226.9 L 334.5,226.8 L 335.0,226.9 L 335.2,226.7 L 335.4,226.7 L 335.5,226.7 L 335.6,226.7 L 335.9,226.6 L 336.1,226.6 L 336.3,226.5 L 336.6,226.0 L 336.9,226.0 L 337.4,226.0 L 337.4,226.0 L 337.3,226.1 L 337.2,226.2 L 337.3,226.3 L 337.4,226.3 L 337.6,226.1 L 337.6,225.9 L 337.8,225.5 L 337.8,225.5 L 337.9,225.4 L 338.1,225.3 L 338.3,225.1 L 338.4,225.0 L 338.6,224.8 L 338.6,224.8 L 338.8,224.7 L 339.0,224.7 L 339.2,224.5 L 339.3,224.4 L 339.4,224.3 L 339.4,224.2 L 339.5,224.2 L 339.6,224.1 L 339.8,224.0 L 340.0,224.0 L 340.2,223.9 L 340.3,224.0 L 340.4,224.1 L 340.5,224.2 L 340.6,224.2 L 340.7,224.2 L 340.7,224.1 L 340.6,224.0 L 340.4,223.9 L 340.3,223.8 L 340.3,223.7 L 340.3,223.6 L 340.4,223.5 L 340.5,223.3 L 340.6,223.1 L 341.0,222.8 L 341.2,222.7 L 341.6,222.4 L 341.9,222.4 L 342.0,222.3 L 342.0,222.1 L 342.1,221.9 L 342.0,221.8 L 341.8,221.6 L 341.7,221.5 L 341.5,221.2 L 341.4,221.1 L 341.3,221.0 L 341.2,221.1 L 340.8,221.4 L 340.7,221.4 L 340.6,221.4 L 340.6,221.3 L 340.5,221.2 L 340.3,221.0 L 340.1,221.0 L 340.1,221.0 L 339.7,221.1 L 339.1,221.4 L 338.8,221.4 L 338.5,221.5 L 338.2,221.6 L 337.7,221.6 L 337.7,221.6 L 337.6,221.6 L 337.6,221.6 L 337.6,221.6 L 337.2,221.7 L 337.3,221.4 L 337.4,221.2 L 337.9,220.8 L 338.0,220.8 L 338.2,220.8 L 338.3,220.8 L 338.4,220.8 L 338.6,220.6 L 338.7,220.5 L 338.8,220.5 L 339.1,220.2 L 339.2,220.2 L 339.5,219.9 L 339.6,219.7 L 339.6,219.6 L 339.5,219.5 L 339.5,219.5 L 339.3,219.4 L 339.3,219.3 L 339.4,219.1 L 339.5,219.0 L 339.8,218.6 L 340.3,218.3 L 340.5,218.3 L 340.7,218.1 L 340.8,218.0 L 340.8,218.0 L 341.1,218.1 L 341.2,218.1 L 341.2,218.1 L 341.3,218.4 L 341.3,218.5 L 341.7,219.1 L 341.9,219.5 L 341.9,219.9 L 341.9,219.9 L 342.0,220.5 L 342.0,220.5 L 341.8,220.6 L 341.8,220.7 L 341.9,220.9 L 342.0,221.0 L 342.1,221.0 L 342.2,220.9 L 342.4,220.9 L 342.8,221.0 L 342.9,221.0 L 343.0,221.1 L 343.2,221.1 L 343.2,221.1 L 343.3,221.1 L 343.3,221.1 L 343.4,221.3 L 343.5,221.5 L 343.5,221.6 L 343.5,221.7 L 343.5,221.9 L 343.5,221.9 L 343.6,222.0 L 343.7,222.0 L 343.8,222.1 L 343.8,222.1 L 343.8,222.2 L 343.9,222.2 L 344.2,222.2 L 344.5,222.2 L 344.6,222.2 L 344.6,222.3 L 344.7,222.3 L 344.8,222.3 L 344.9,222.2 L 345.0,222.1 L 345.0,222.0 L 345.3,221.8 L 346.1,222.0 L 346.1,222.0 L 346.0,222.1 L 345.9,222.2 L 345.8,222.3 L 345.8,222.4 L 345.7,222.5 L 345.6,222.4 L 345.5,222.5 L 345.4,222.6 L 345.3,222.7 L 345.2,222.8 L 345.0,222.9 L 345.0,222.9 L 344.9,222.9 L 344.9,222.9 L 344.8,222.8 L 344.8,222.9 L 344.8,222.9 L 344.8,223.0 L 344.8,223.1 L 344.7,223.1 L 344.7,223.1 L 344.6,223.1 L 344.6,223.2 L 344.5,223.3 L 344.5,223.4 L 344.3,223.5 L 344.2,223.5 L 344.1,223.6 L 344.0,223.6 L 343.9,223.6 L 343.8,223.5 L 343.7,223.5 L 343.7,223.4 L 343.6,223.4 L 343.6,223.4 L 343.6,223.5 L 343.6,223.6 L 343.5,223.6 L 343.5,223.6 L 343.4,223.5 L 343.4,223.5 L 343.4,223.6 L 343.4,223.7 L 343.3,223.8 L 343.3,223.8 L 343.1,223.8 L 343.0,223.9 L 343.0,223.9 L 342.8,223.9 L 342.7,223.9 L 342.6,224.0 L 342.4,224.0 L 342.3,224.1 L 342.1,224.1 L 342.0,224.1 L 342.0,224.1 L 341.8,224.2 L 341.8,224.2 L 341.6,224.3 L 341.5,224.4 L 341.4,224.5 L 341.4,224.6 L 341.2,224.6 L 341.2,224.7 L 341.1,224.7 L 341.0,224.6 L 341.0,224.6 L 341.0,224.6 L 341.1,224.7 L 341.1,224.8 L 341.1,224.8 L 340.9,224.9 L 340.9,224.9 L 340.4,225.1 L 340.3,225.2 L 340.2,225.3 L 340.1,225.4 L 339.9,225.5 L 339.7,225.7 L 339.5,226.0 L 339.2,226.2 L 339.0,226.4 L 338.8,226.5 L 338.6,226.6 L 338.6,226.8 L 338.5,227.0 L 338.4,227.1 L 338.3,227.2 L 338.4,227.3 L 338.4,227.4 L 338.3,227.4 L 338.2,227.5 L 338.3,227.6 L 338.3,227.7 L 338.2,227.8 L 338.2,227.9 L 337.9,228.0 L 337.7,228.2 L 337.4,228.5 L 337.0,228.7 L 336.8,228.8 L 336.7,229.0 L 336.6,229.2 L 336.5,229.3 L 336.3,229.3 L 336.3,229.3 L 336.1,229.2 L 336.0,229.1 L 335.9,229.1 L 335.7,229.1 L 335.6,229.2 L 335.4,229.4 L 335.3,229.5 L 334.9,229.6 L 334.9,229.7 L 334.8,229.9 L 334.9,230.0 L 334.9,230.0 L 334.9,230.1 L 334.7,230.2 L 334.6,230.2 L 334.6,230.2 L 334.5,230.0 L 334.4,230.0 L 334.2,230.2 L 334.2,230.3 L 334.3,230.4 L 334.3,230.7 L 334.2,230.8 L 334.2,230.9 L 334.1,231.1 L 334.0,231.1 L 333.8,231.2 L 333.8,231.4 L 333.8,231.5 L 333.8,231.5 L 333.8,231.6 L 333.7,231.7 L 333.3,232.0 L 333.3,231.9 L 333.2,231.8 L 333.1,231.8 L 333.1,231.7 L 333.0,231.7 L 332.9,231.8 L 332.9,232.0 L 333.0,232.0 L 333.0,232.2 L 329.3,235.1 L 329.2,235.0 L 329.1,234.9 L 328.6,234.7 L 328.0,234.7 L 327.7,234.9 L 327.2,235.2 L 326.9,235.3 L 326.7,235.5 L 326.4,235.6 L 326.4,235.7 L 326.4,235.7 L 326.5,235.8 L 326.7,235.9 L 326.7,235.9 L 326.8,235.9 L 326.8,236.0 L 326.7,236.1 L 326.6,236.1 L 326.5,236.2 L 326.6,236.3 L 326.8,236.4 L 327.0,236.5 L 327.0,236.7 L 327.0,236.8 L 327.0,236.9 L 326.7,237.1 L 326.5,237.2 L 326.3,237.2 L 326.3,237.0 L 326.2,236.9 L 326.1,236.9 L 325.9,236.9 L 325.5,236.7 L 325.4,236.7 L 325.3,236.7 L 325.3,236.6 L 325.0,236.6 L 325.0,236.5 L 325.0,236.4 L 324.9,236.3 L 324.7,236.2 L 324.6,236.3 L 324.6,236.4 L 324.6,236.5 L 324.7,236.6 L 324.8,236.7 L 324.8,236.8 L 324.7,236.8 L 324.6,237.0 L 324.5,237.2 L 324.6,237.4 L 324.7,237.4 L 324.6,237.5 L 324.5,237.7 L 324.1,237.9 L 324.1,237.9 L 324.0,238.0 L 323.8,238.0 L 323.4,238.1 L 323.1,237.8 L 323.0,237.7 L 322.9,237.5 L 322.6,237.3 L 322.6,237.3 L 322.6,237.3 L 322.6,237.2 L 322.6,237.2 L 322.6,237.2 L 322.4,237.1 L 322.3,237.2 L 322.1,237.2 L 321.8,237.2 L 321.7,237.1 L 321.7,237.1 L 321.7,237.1 L 321.6,237.2 L 321.5,237.2 L 321.3,237.3 L 321.1,237.5 L 320.9,237.5 L 320.6,237.6 L 320.5,237.7 L 320.3,237.7 L 319.9,237.8 L 319.2,238.0 L 318.8,238.1 L 318.5,238.4 L 318.4,238.5 L 318.2,238.5 L 318.0,238.7 L 317.8,238.7 L 317.4,238.8 L 317.0,239.1 L 316.5,239.7 L 316.3,239.8 L 316.1,240.0 L 316.0,240.1 L 316.1,240.2 L 316.1,240.2 L 316.1,240.3 L 315.8,240.5 L 315.6,240.6 L 315.4,240.7 L 315.4,240.7 L 315.2,240.8 L 315.0,240.9 L 314.9,241.0 L 315.1,241.1 L 315.2,241.3 L 315.3,241.4 L 315.4,241.5 L 315.5,241.7 L 315.5,241.7 L 315.4,242.3 L 315.3,242.5 L 315.2,242.5 L 315.0,242.4 L 314.7,242.2 L 314.6,242.0 L 314.4,241.9 L 314.4,241.8 L 314.3,241.8 L 314.2,241.8 L 314.1,241.8 L 313.9,241.8 L 313.8,241.9 L 313.6,241.9 L 313.5,242.0 L 313.5,242.1 L 313.4,242.2 L 313.4,242.3 L 313.3,242.4 L 313.2,242.5 L 313.2,242.6 L 313.1,242.6 L 313.0,242.6 L 313.0,242.7 L 313.0,242.8 L 312.9,242.8 L 312.9,242.7 L 312.9,242.7 L 312.7,242.6 L 312.7,242.6 L 312.7,242.6 L 312.8,242.7 L 312.7,242.8 L 312.7,242.8 L 312.6,242.8 L 312.6,242.8 L 312.5,242.8 L 312.3,242.7 L 312.3,242.7 L 312.3,242.6 L 312.2,242.6 L 312.1,242.7 L 312.0,242.7 L 311.9,242.6 L 311.8,242.6 L 311.7,242.6 L 311.6,242.6 L 311.6,242.5 L 311.6,242.5 L 311.5,242.5 L 311.5,242.6 L 311.5,242.6 L 311.5,242.7 L 311.5,242.8 L 311.4,242.9 L 311.4,243.0 L 311.4,243.0 L 311.2,243.1 L 311.1,243.1 L 310.9,243.1 L 310.8,243.0 L 310.6,243.0 L 310.5,242.9 L 310.4,242.9 L 310.3,242.8 L 310.2,242.8 L 310.0,242.7 L 309.9,242.6 L 309.9,242.6 L 309.8,242.6 L 309.8,242.7 L 309.8,242.7 L 309.9,242.8 L 310.0,242.8 L 310.0,242.8 L 309.9,242.9 L 309.9,243.0 L 309.8,243.1 L 309.8,243.1 L 309.7,243.2 L 309.6,243.3 L 309.5,243.4 L 309.4,243.5 L 309.4,243.5 L 309.3,243.6 L 309.3,243.7 L 309.3,243.9 L 309.4,244.1 L 309.5,244.2 L 309.4,244.2 L 309.2,244.0 L 309.1,244.0 L 308.8,244.1 L 308.6,244.2 L 308.5,244.2 L 308.2,244.5 L 307.7,245.0 L 307.6,244.9 L 307.5,244.9 L 307.0,245.4 L 306.7,245.5 L 306.3,245.8 L 306.2,246.0 L 306.2,246.0 L 306.1,246.0 L 306.1,246.0 L 306.0,245.9 L 305.6,245.9 L 305.5,245.9 L 305.4,245.9 L 305.3,245.8 L 305.3,245.6 L 305.2,245.5 L 305.2,245.5 L 305.1,245.6 L 305.0,246.0 L 304.8,246.1 L 304.7,246.1 L 304.6,246.2 L 304.6,246.2 L 304.5,246.3 L 304.4,246.3 L 304.5,246.1 L 304.5,246.1 L 304.6,246.0 L 304.8,246.0 L 304.9,245.9 L 304.9,245.8 L 304.9,245.7 L 304.9,245.6 L 304.9,245.6 L 305.0,245.5 L 305.1,245.3 L 305.3,245.1 L 305.4,245.0 L 305.5,244.9 L 305.7,244.8 L 305.9,244.6 L 306.0,244.5 L 306.1,244.4 L 306.2,244.4 L 307.1,244.1 L 307.6,243.8 L 308.4,243.4 L 308.6,243.3 L 308.7,243.2 L 308.8,243.1 L 309.0,242.9 L 309.1,242.8 L 309.6,242.6 L 309.7,242.6 L 309.7,242.7 L 309.8,242.6 L 310.2,242.3 L 310.5,242.2 L 310.9,242.0 L 311.1,241.8 L 311.2,241.7 L 311.2,241.6 L 311.2,241.6 L 311.2,241.6 L 311.4,241.4 L 311.6,241.4 L 311.9,241.4 L 312.1,241.3 L 312.1,241.3 L 312.4,241.2 L 312.7,240.9 L 312.7,240.9 L 312.9,240.9 L 313.2,240.7 L 313.3,240.5 L 313.6,240.2 L 313.8,240.0 L 314.3,239.5 L 314.3,239.3 L 314.3,239.1 L 314.2,238.9 L 314.0,238.8 L 314.0,238.7 L 314.0,238.5 L 313.9,238.4 L 313.9,237.9 L 313.9,237.8 L 314.0,237.7 L 314.0,237.6 L 313.8,237.3 L 313.8,237.1 L 313.8,237.0 L 313.8,236.4 L 313.9,236.2 L 314.0,235.3 L 313.9,235.1 L 313.7,234.9 L 313.6,234.9 L 313.4,234.9 L 313.3,234.9 L 313.3,234.9 L 313.1,234.8 L 313.0,234.8 L 312.9,234.6 L 312.8,234.5 L 312.8,234.4 L 312.8,234.2 L 313.1,234.0 L 313.1,233.9 L 313.0,233.9 L 312.9,233.7 L 312.8,233.7 L 312.7,233.7 L 311.7,233.6 L 311.4,233.9 L 311.2,233.9 L 311.0,233.9 L 310.9,233.9 L 310.8,234.0 L 310.7,234.0 L 310.6,234.1 L 310.6,234.2 L 310.6,234.3 L 310.6,234.5 L 310.7,234.6 L 310.6,234.8 L 310.6,234.9 L 310.6,235.0 L 310.6,235.1 L 310.4,235.4 L 310.4,235.4 L 310.2,235.2 L 310.1,235.1 L 309.9,235.1 L 309.8,235.2 L 309.6,235.5 L 309.4,235.7 L 309.4,235.7 L 309.3,235.7 L 309.1,235.8 L 308.7,236.1 L 308.5,236.1 L 308.4,236.1 L 308.1,236.2 L 307.5,236.4 L 307.3,236.4 L 307.2,236.4 L 307.1,236.5 L 306.6,236.8 L 306.1,237.0 L 306.0,236.9 L 306.0,236.9 L 305.9,236.9 L 305.9,237.0 L 306.0,237.0 L 306.0,237.0 L 305.9,237.2 L 305.9,237.3 L 305.9,237.3 L 305.7,237.4 L 305.5,237.3 L 305.5,237.4 L 305.5,237.7 L 305.4,237.7 L 305.4,237.6 L 305.3,237.6 L 305.3,237.7 L 305.3,237.8 L 305.4,237.9 L 305.6,237.9 L 305.7,237.8 L 305.9,237.8 L 306.0,237.8 L 306.1,237.9 L 306.2,238.0 L 306.2,238.2 L 306.1,238.4 L 306.2,238.5 L 306.4,238.5 L 306.5,238.6 L 306.6,238.5 L 306.7,238.6 L 306.5,238.7 L 306.3,238.8 L 306.1,238.9 L 305.9,239.0 L 305.6,239.1 L 305.3,239.2 L 305.2,239.3 L 304.7,239.4 L 304.6,239.5 L 304.4,239.5 L 304.3,239.5 L 304.3,239.5 L 304.4,239.3 L 304.4,239.2 L 304.4,239.1 L 304.5,239.1 L 304.5,238.9 L 304.5,238.8 L 304.4,238.8 L 304.3,238.6 L 304.2,238.6 L 304.2,238.7 L 303.9,238.9 L 303.7,238.9 L 303.5,238.9 L 303.3,238.9 L 303.0,238.9 L 302.9,238.8 L 302.8,238.9 L 302.7,238.9 L 302.7,239.1 L 302.7,239.2 L 302.7,239.4 L 302.6,239.4 L 302.6,239.6 L 302.5,239.7 L 302.4,239.8 L 302.0,239.8 L 301.6,239.9 L 301.3,240.1 L 301.3,240.2 L 301.1,240.3 L 301.0,240.3 L 301.0,240.3 L 300.4,240.2 L 300.3,240.3 L 300.3,240.5 L 300.1,240.6 L 300.1,240.6 L 300.4,240.7 L 300.5,240.7 L 300.5,240.8 L 300.5,240.8 L 300.7,240.8 L 300.8,240.7 L 301.0,240.7 L 301.0,240.7 L 301.3,240.8 L 301.8,240.7 L 301.9,240.7 L 302.2,240.8 L 303.1,240.6 L 303.4,240.5 L 303.5,240.5 L 303.5,240.5 L 303.5,240.6 L 303.1,240.8 L 303.1,240.9 L 303.2,241.0 L 303.5,241.0 L 303.7,241.0 L 304.2,240.8 L 304.5,240.8 L 305.0,240.9 L 305.1,241.0 L 305.1,241.1 L 305.0,241.2 L 305.1,241.2 L 305.2,241.2 L 305.6,241.3 L 305.6,241.4 L 305.5,241.3 L 305.3,241.4 L 305.3,241.5 L 305.2,241.6 L 305.0,241.8 L 304.9,241.8 L 304.8,241.8 L 304.6,241.9 L 304.5,242.0 L 304.3,242.1 L 304.0,242.2 L 303.8,242.3 L 303.7,242.3 L 303.7,242.2 L 303.8,242.0 L 303.7,241.9 L 303.5,241.7 L 303.4,241.5 L 303.2,241.4 L 303.1,241.4 L 302.8,241.5 L 302.1,241.6 L 301.9,241.7 L 301.8,241.8 L 301.6,241.4 L 301.5,241.3 L 301.4,241.3 L 301.3,241.3 L 300.9,241.4 L 300.5,241.4 L 300.4,241.5 L 300.4,241.9 L 300.6,242.0 L 300.6,242.2 L 300.1,242.3 L 300.0,242.4 L 299.9,242.8 L 299.9,242.8 L 299.8,243.0 L 299.8,243.0 L 299.7,243.0 L 299.7,242.9 L 299.6,242.9 L 299.6,242.8 L 299.5,242.8 L 299.4,242.9 L 299.4,242.9 L 299.4,243.0 L 299.4,243.1 L 299.5,243.2 L 299.6,243.3 L 299.7,243.4 L 299.8,243.5 L 299.8,243.5 L 299.7,243.6 L 299.7,243.7 L 299.6,243.6 L 299.6,243.6 L 299.6,243.5 L 299.6,243.5 L 299.6,243.7 L 299.6,243.8 L 299.7,244.0 L 299.8,244.0 L 299.7,244.1 L 299.7,244.1 L 299.5,244.0 L 299.5,244.0 L 299.4,243.9 L 299.4,243.7 L 299.4,243.6 L 299.4,243.4 L 299.3,243.3 L 299.3,243.1 L 299.2,243.0 L 298.9,243.0 L 298.8,243.1 L 298.7,243.1 L 298.7,243.1 L 298.6,243.0 L 298.4,242.9 L 298.2,242.7 L 298.1,242.7 L 297.8,242.8 L 297.2,242.8 L 297.1,242.9 L 296.9,243.1 L 296.7,243.3 L 296.5,243.3 L 296.2,243.7 L 296.0,243.8 L 295.9,243.8 L 295.9,243.8 L 295.9,243.7 L 296.0,243.2 L 296.1,243.0 L 296.1,243.0 L 296.0,242.9 L 295.9,242.9 L 295.7,243.0 L 295.5,243.0 L 295.3,243.1 L 295.2,243.2 L 295.1,243.4 L 294.9,243.5 L 294.5,243.7 L 294.4,243.7 L 294.1,243.8 L 294.0,243.9 L 293.9,243.9 L 293.8,243.9 L 293.8,243.8 L 293.8,243.6 L 293.9,243.4 L 293.9,243.3 L 293.9,242.9 L 293.9,242.8 L 293.3,243.0 L 293.0,243.1 L 292.8,243.3 L 292.6,243.6 L 292.5,243.7 L 292.6,243.7 L 292.8,243.8 L 293.0,243.8 L 293.1,243.8 L 293.2,243.9 L 293.2,244.0 L 292.8,244.2 L 292.7,244.2 L 292.7,244.2 L 292.7,244.3 L 292.6,244.4 L 292.5,244.5 L 292.3,244.6 L 292.1,244.6 L 292.0,244.5 L 292.0,244.6 L 292.0,244.9 L 291.9,244.9 L 291.7,244.8 L 291.5,244.6 L 291.3,244.6 L 291.1,244.6 L 291.0,244.6 L 291.1,244.8 L 291.1,244.8 L 291.1,244.9 L 290.9,244.8 L 290.8,244.9 L 290.6,245.1 L 290.6,245.2 L 290.5,245.1 L 290.5,245.1 L 290.2,245.1 L 289.9,245.3 L 289.7,245.4 L 289.6,245.6 L 289.6,245.6 L 289.5,245.8 L 289.5,245.8 L 289.4,245.6 L 289.4,245.5 L 289.4,245.5 L 289.3,245.5 L 289.2,245.6 L 289.2,245.7 L 289.1,245.8 L 289.1,245.8 L 289.0,246.1 L 289.1,246.3 L 289.1,246.4 L 289.2,246.4 L 289.3,246.5 L 289.3,246.6 L 289.2,246.7 L 289.2,246.8 L 289.2,246.9 L 289.3,247.1 L 289.0,247.4 L 288.8,247.5 L 288.7,247.5 L 288.6,247.4 L 288.4,247.3 L 288.3,247.4 L 288.3,247.4 L 288.2,247.5 L 288.1,247.7 L 288.1,248.0 L 288.2,248.1 L 288.4,248.1 L 288.6,248.2 L 288.6,248.2 L 288.9,248.3 L 289.0,248.4 L 289.0,248.4 L 289.0,248.6 L 289.0,248.8 L 288.9,248.9 L 288.8,249.0 L 288.1,249.4 L 287.9,249.5 L 287.6,249.8 L 287.5,250.0 L 287.3,250.1 L 287.2,250.1 L 287.0,250.0 L 286.9,249.8 L 286.9,249.5 L 286.7,249.3 L 286.6,249.3 L 286.4,249.4 L 286.3,249.5 L 286.0,250.0 L 286.0,250.1 L 286.1,250.2 L 286.1,250.3 L 286.1,250.4 L 285.9,250.4 L 285.8,250.3 L 285.7,250.2 L 285.7,250.3 L 285.6,250.4 L 285.5,250.5 L 285.5,250.4 L 285.4,250.4 L 285.4,250.7 L 285.4,250.8 L 285.5,250.9 L 285.6,250.9 L 285.5,251.1 L 285.5,251.2 L 285.5,251.2 L 285.6,251.2 L 285.8,251.1 L 286.0,251.1 L 286.3,251.0 L 286.4,251.1 L 286.4,251.2 L 286.3,251.4 L 286.4,251.5 L 286.6,251.5 L 286.8,251.5 L 286.8,251.6 L 286.9,251.8 L 287.0,251.9 L 287.0,252.0 L 286.8,252.1 L 286.7,252.2 L 286.4,252.2 L 286.1,252.2 L 286.1,252.2 L 286.0,252.2 L 285.8,252.2 L 285.6,252.2 L 285.3,252.3 L 285.2,252.4 L 285.0,252.5 L 284.9,252.6 L 284.8,252.8 L 284.6,253.0 L 284.0,252.9 L 283.8,253.0 L 283.6,253.2 L 283.5,253.2 L 283.4,253.1 L 283.4,252.8 L 283.4,252.6 L 283.4,252.5 L 283.3,252.3 L 283.1,252.1 L 283.0,252.0 L 282.7,252.0 L 282.5,252.0 L 282.3,252.0 L 282.3,251.9 L 282.4,251.8 L 282.4,251.8 L 282.2,251.8 L 282.0,251.9 L 282.0,252.0 L 281.9,252.0 L 281.8,252.4 L 281.7,252.9 L 281.6,253.3 L 281.5,253.4 L 281.5,253.7 L 281.4,253.9 L 281.4,254.0 L 281.3,254.2 L 281.2,254.6 L 281.2,254.8 L 281.2,254.8 L 281.0,254.9 L 280.9,254.9 L 280.9,254.9 L 280.8,254.9 L 280.6,254.7 L 280.4,254.6 L 280.2,254.5 L 280.0,254.5 L 279.7,254.5 L 279.6,254.5 L 279.5,254.4 L 279.3,254.4 L 279.3,254.4 L 279.1,253.9 L 279.0,253.9 L 279.0,253.8 L 278.9,253.8 L 278.5,254.1 L 278.4,254.2 L 278.1,254.4 L 277.9,254.5 L 277.7,254.6 L 277.6,254.7 L 277.5,254.7 L 277.3,254.8 L 277.2,254.8 L 277.1,254.8 L 277.1,255.0 L 277.1,255.0 L 277.0,255.0 L 276.9,255.0 L 276.9,255.0 L 276.8,255.0 L 276.7,255.1 L 276.7,255.3 L 276.7,255.3 L 276.6,255.2 L 276.4,255.3 L 276.2,255.4 L 276.1,255.5 L 276.1,255.8 L 276.0,255.8 L 275.9,255.9 L 275.8,255.8 L 275.7,255.8 L 275.5,256.0 L 275.5,255.9 L 275.4,255.9 L 275.2,256.0 L 275.2,256.1 L 275.1,256.1 L 275.1,256.2 L 275.1,256.4 L 275.1,256.6 L 275.1,256.7 L 275.3,256.9 L 275.4,257.0 L 275.4,257.1 L 275.3,257.1 L 275.3,257.2 L 275.3,257.3 L 275.6,257.3 L 275.8,257.4 L 275.8,257.5 L 275.9,257.6 L 275.9,257.7 L 275.9,257.8 L 275.8,257.8 L 275.4,257.5 L 275.2,257.5 L 274.7,257.4 L 274.6,257.5 L 274.6,257.6 L 274.8,257.6 L 274.8,257.7 L 274.7,257.7 L 274.5,257.7 L 274.5,257.7 L 274.4,257.8 L 274.5,257.9 L 274.7,257.9 L 274.9,258.0 L 275.0,258.2 L 275.0,258.2 L 274.7,258.1 L 274.5,258.0 L 274.4,258.1 L 274.4,258.2 L 274.4,258.2 L 274.5,258.3 L 274.5,258.3 L 274.5,258.4 L 274.7,258.4 L 274.7,258.5 L 274.6,258.6 L 274.5,258.7 L 274.5,258.8 L 274.5,258.9 L 274.6,258.9 L 274.7,258.9 L 274.7,258.9 L 274.7,258.8 L 274.7,258.7 L 274.7,258.7 L 274.8,258.6 L 274.8,258.6 L 274.9,258.6 L 275.1,258.5 L 275.1,258.5 L 275.2,258.5 L 275.3,258.5 L 275.3,258.5 L 275.3,258.5 L 275.3,258.6 L 275.2,258.7 L 275.1,258.8 L 275.0,258.8 L 274.9,258.9 L 274.8,259.0 L 274.7,259.1 L 274.6,259.1 L 274.6,259.0 L 274.5,259.0 L 274.5,259.0 L 274.4,259.0 L 274.5,259.1 L 274.4,259.1 L 274.3,259.1 L 274.3,259.1 L 274.2,259.0 L 274.1,259.0 L 274.0,259.0 L 274.0,259.1 L 274.1,259.1 L 274.2,259.2 L 274.3,259.2 L 274.4,259.2 L 274.6,259.2 L 274.6,259.3 L 274.6,259.3 L 274.5,259.4 L 274.5,259.4 L 274.0,259.7 L 273.6,260.0 L 273.3,260.1 L 273.2,260.2 L 273.0,260.3 L 272.8,260.4 L 272.6,260.4 L 272.6,260.3 L 272.6,259.9 L 272.5,259.9 L 272.5,260.0 L 272.3,260.1 L 272.3,260.2 L 272.4,260.4 L 272.4,260.5 L 272.3,260.6 L 272.2,260.6 L 272.0,260.3 L 271.9,260.3 L 271.8,260.3 L 271.5,260.1 L 271.2,260.1 L 271.2,260.0 L 271.1,260.1 L 270.9,260.2 L 270.8,260.1 L 270.8,260.1 L 270.8,260.0 L 270.7,259.9 L 270.7,259.9 L 270.6,260.0 L 270.6,260.1 L 270.5,260.0 L 242.2,251.8 L 242.2,251.8 L 242.2,251.7 L 242.3,251.5 L 242.3,251.5 L 242.3,251.2 L 242.3,251.1 L 242.0,251.1 L 241.9,251.0 L 241.9,250.9 L 241.7,250.9 L 241.6,250.9 L 241.2,250.9 L 240.9,251.0 L 240.6,250.9 L 240.6,250.9 L 240.5,251.1 L 240.5,251.2 L 240.3,251.3 L 240.1,251.5 L 240.0,251.6 L 239.6,251.4 L 239.5,251.5 L 239.5,251.6 L 239.5,251.9 L 239.6,252.1 L 239.5,252.2 L 239.5,252.6 L 239.5,252.9 L 239.5,253.1 L 239.4,253.3 L 239.4,253.4 L 239.2,253.1 L 239.2,252.8 L 239.2,252.7 L 239.0,252.7 L 239.0,252.7 L 238.9,252.8 L 238.7,252.7 L 238.6,252.5 L 238.6,252.4 L 238.5,252.4 L 238.4,252.5 L 238.3,252.6 L 238.3,252.7 L 238.5,252.7 L 238.5,252.9 L 238.4,252.9 L 238.2,252.9 L 238.0,252.8 L 237.8,252.8 L 237.6,252.9 L 237.4,252.9 L 237.4,252.9 L 237.2,253.0 L 236.9,253.0 L 236.6,253.1 L 236.5,253.2 L 236.3,253.3 L 236.2,253.4 L 236.1,253.5 L 236.1,253.6 L 236.2,253.7 L 236.4,253.9 L 236.5,254.0 L 236.5,254.1 L 236.5,254.1 L 236.4,254.0 L 236.1,253.9 L 235.7,253.6 L 235.3,253.5 L 235.1,253.6 L 235.1,253.7 L 235.0,253.9 L 235.0,254.1 L 234.8,254.3 L 234.8,254.4 L 234.6,254.5 L 234.5,254.8 L 234.3,255.0 L 234.2,255.1 L 234.1,255.2 L 234.0,255.3 L 234.0,255.3 L 233.8,255.3 L 233.5,255.3 L 233.3,255.3 L 233.1,255.4 L 233.0,255.5 L 232.9,255.7 L 232.9,255.8 L 232.9,255.9 L 232.8,255.9 L 232.7,255.8 L 232.6,255.8 L 232.5,255.9 L 232.5,256.0 L 232.4,256.1 L 232.4,256.3 L 232.4,256.5 L 232.5,256.5 L 232.7,256.5 L 232.8,256.4 L 232.9,256.3 L 233.0,256.2 L 233.0,256.1 L 233.1,256.0 L 233.3,255.8 L 233.4,255.8 L 233.5,255.8 L 233.6,255.8 L 233.6,255.9 L 233.5,256.1 L 233.3,256.3 L 233.1,256.4 L 233.1,256.6 L 233.0,256.7 L 233.0,256.8 L 233.1,256.9 L 233.1,257.0 L 233.3,257.3 L 233.2,257.5 L 233.3,257.6 L 233.4,257.6 L 233.6,257.6 L 233.7,257.6 L 233.8,257.8 L 233.8,257.9 L 233.8,258.0 L 233.6,258.1 L 233.5,258.2 L 233.4,258.1 L 233.4,257.9 L 233.4,257.8 L 233.3,257.8 L 232.9,258.1 L 232.9,258.1 L 233.0,258.3 L 233.1,258.3 L 233.2,258.4 L 233.2,258.6 L 233.2,258.8 L 233.1,258.9 L 232.9,259.1 L 232.8,259.3 L 232.5,259.4 L 232.4,259.5 L 232.4,259.7 L 232.4,260.0 L 232.5,260.1 L 232.6,260.2 L 232.4,260.4 L 232.4,260.7 L 232.5,261.0 L 232.5,261.2 L 232.4,261.2 L 232.0,261.2 L 232.1,261.2 L 232.2,261.1 L 232.2,261.1 L 232.2,260.9 L 232.1,260.6 L 232.0,260.6 L 232.0,260.7 L 231.9,261.1 L 232.0,261.2 L 231.9,261.3 L 231.9,261.3 L 231.7,261.3 L 231.7,261.1 L 231.8,261.0 L 231.8,260.8 L 231.9,260.6 L 231.7,260.5 L 231.7,260.5 L 231.5,260.6 L 231.5,260.6 L 231.4,260.5 L 231.4,260.6 L 231.4,260.7 L 231.4,260.7 L 231.4,260.8 L 231.3,260.7 L 231.2,260.7 L 231.2,260.7 L 231.2,261.0 L 231.4,261.1 L 231.5,261.1 L 231.6,261.3 L 231.6,261.3 L 231.3,261.3 L 231.0,261.3 L 230.9,261.3 L 230.8,261.4 L 230.4,261.5 L 230.4,261.5 L 230.3,261.4 L 230.1,261.4 L 230.1,261.2 L 230.1,261.2 L 229.9,261.2 L 229.9,261.1 L 229.7,261.0 L 229.7,261.0 L 229.6,261.1 L 229.4,261.2 L 229.2,261.3 L 229.1,261.2 L 229.2,261.1 L 229.2,261.1 L 229.2,261.0 L 229.2,261.0 L 229.0,261.1 L 229.0,261.1 L 228.8,261.1 L 228.7,261.1 L 228.6,261.2 L 228.6,261.5 L 228.5,261.5 L 228.4,261.5 L 228.4,261.5 L 228.3,261.7 L 228.3,261.8 L 227.9,261.8 L 227.9,261.8 L 227.9,261.8 L 227.4,261.7 L 227.3,261.8 L 227.3,261.9 L 227.3,261.9 L 226.8,262.0 L 226.9,261.7 L 226.8,261.7 L 226.6,261.7 L 226.6,261.5 L 226.4,261.5 L 226.3,261.6 L 226.3,261.7 L 226.3,261.7 L 226.3,261.7 L 226.3,261.7 L 226.3,261.8 L 226.1,261.9 L 226.0,262.0 L 225.9,262.0 L 225.9,262.1 L 225.8,262.1 L 225.8,262.1 L 225.3,262.3 L 225.2,262.3 L 225.0,262.3 L 225.0,262.3 L 225.0,262.5 L 225.1,262.6 L 225.1,262.7 L 225.1,262.8 L 225.1,262.9 L 224.7,263.0 L 224.4,263.1 L 224.4,263.1 L 224.3,263.2 L 224.0,263.2 L 223.9,263.1 L 223.8,263.0 L 223.8,262.9 L 223.9,262.8 L 224.2,262.8 L 224.4,262.6 L 224.5,262.6 L 224.5,262.5 L 224.4,262.4 L 224.4,262.4 L 224.3,262.4 L 224.1,262.4 L 224.1,262.4 L 224.1,262.3 L 224.2,262.2 L 224.3,262.1 L 224.3,261.9 L 224.2,261.8 L 223.9,261.7 L 223.6,261.8 L 223.4,262.1 L 223.4,262.3 L 223.4,262.4 L 223.6,262.5 L 223.6,262.5 L 223.4,262.6 L 223.2,262.6 L 223.0,262.6 L 222.9,262.7 L 222.8,262.9 L 222.7,263.3 L 222.8,263.7 L 222.9,263.8 L 222.9,263.9 L 222.8,263.9 L 220.6,263.2 L 220.8,263.1 L 220.8,263.0 L 221.1,262.6 L 221.2,262.2 L 221.4,261.8 L 221.4,261.6 L 221.5,261.4 L 221.6,261.3 L 221.7,261.1 L 221.7,260.9 L 221.7,260.8 L 221.8,260.6 L 221.9,260.4 L 221.9,260.4 L 221.8,260.2 L 221.9,259.8 L 221.9,259.7 L 221.9,259.4 L 221.9,259.2 L 221.9,259.0 L 221.9,258.9 L 221.9,258.8 L 222.0,258.7 L 221.9,258.6 L 221.7,258.5 L 221.7,258.4 L 221.7,258.3 L 221.7,258.3 L 221.8,258.2 L 221.8,258.2 L 221.9,258.2 L 221.9,258.2 L 221.9,258.1 L 222.1,258.0 L 222.2,257.9 L 222.3,257.8 L 222.3,257.8 L 222.2,257.7 L 222.2,257.7 L 222.1,257.8 L 222.0,257.8 L 222.0,257.7 L 222.0,257.7 L 222.0,257.6 L 222.0,257.6 L 222.1,257.6 L 222.4,257.4 L 222.4,257.3 L 222.5,257.2 L 222.4,257.1 L 222.3,257.1 L 222.3,257.0 L 222.3,257.0 L 222.5,256.9 L 222.4,256.8 L 222.3,256.8 L 222.3,256.7 L 222.2,256.7 L 222.1,256.6 L 222.1,256.5 L 222.2,256.5 L 222.2,256.2 L 222.2,256.2 L 222.2,256.2 L 222.1,256.0 L 222.1,256.0 L 222.2,255.9 L 222.2,255.7 L 222.2,255.6 L 222.1,255.6 L 222.1,255.5 L 222.1,255.5 L 222.1,255.4 L 222.2,255.3 L 222.1,255.2 L 222.0,255.0 L 222.0,255.0 L 222.0,254.9 L 222.1,254.9 L 222.1,254.9 L 222.1,254.9 L 222.1,254.8 L 222.0,254.8 L 222.0,254.8 L 221.9,254.7 L 221.9,254.7 L 221.9,254.7 L 221.8,254.7 L 221.8,254.7 L 221.7,254.5 L 221.7,254.5 L 222.0,254.4 L 222.2,254.3 L 222.2,254.3 L 222.3,254.2 L 222.3,254.2 L 222.2,254.1 L 222.1,254.2 L 221.9,254.3 L 221.8,254.4 L 221.7,254.4 L 221.7,254.4 L 221.7,254.3 L 221.7,254.3 L 221.7,254.2 L 221.7,254.2 L 221.8,254.2 L 221.9,254.1 L 221.9,254.0 L 221.9,254.0 L 221.9,253.9 L 221.8,253.8 L 221.8,253.7 L 221.7,253.7 L 221.6,253.6 L 221.5,253.6 L 221.4,253.6 L 221.4,253.6 L 221.4,253.6 L 221.4,253.5 L 221.3,253.4 L 221.3,253.3 L 221.4,253.3 L 221.4,253.3 L 221.3,253.2 L 221.1,253.1 L 221.1,253.1 L 221.0,253.2 L 220.9,253.2 L 220.9,253.4 L 221.0,253.5 L 221.0,253.6 L 220.9,253.6 L 220.9,253.6 L 220.9,253.5 L 220.8,253.5 L 220.8,253.6 L 220.8,253.6 L 220.7,253.6 L 220.7,253.6 L 220.7,253.6 L 220.7,253.7 L 220.7,253.9 L 220.7,253.9 L 220.6,253.8 L 220.6,253.8 L 220.5,253.7 L 220.4,253.6 L 220.4,253.6 L 220.2,253.4 L 220.2,253.4 L 220.4,253.3 L 220.3,253.3 L 220.3,253.3 L 220.1,253.3 L 220.0,253.3 L 219.9,253.1 L 219.8,253.1 L 219.8,253.2 L 219.8,253.2 L 219.7,253.3 L 219.7,253.4 L 219.7,253.6 L 219.7,253.8 L 219.7,253.9 L 219.8,253.9 L 219.8,253.9 L 219.9,254.0 L 219.9,254.2 L 219.9,254.2 L 219.9,254.2 L 219.8,254.1 L 219.6,254.0 L 219.4,253.9 L 219.2,253.9 L 219.1,253.9 L 219.1,253.9 L 219.0,253.8 L 218.9,253.8 L 218.8,253.9 L 218.8,253.9 L 218.7,254.0 L 218.7,254.2 L 218.7,254.2 L 218.6,254.4 L 218.6,254.6 L 218.6,254.8 L 218.5,255.0 L 218.5,255.1 L 218.4,255.2 L 218.4,255.2 L 218.5,255.3 L 218.5,255.3 L 218.5,255.3 L 218.4,255.4 L 218.3,255.4 L 218.3,255.4 L 218.2,255.3 L 218.2,255.2 L 218.1,255.1 L 218.0,255.0 L 217.8,254.9 L 217.7,254.9 L 217.5,255.0 L 217.4,255.1 L 217.3,255.1 L 217.3,255.0 L 217.2,255.0 L 217.1,254.9 L 217.1,254.9 L 216.9,254.9 L 216.8,254.9 L 216.8,254.9 L 216.6,254.7 L 216.5,254.7 L 216.5,254.7 L 216.5,254.8 L 216.5,254.8 L 216.5,254.9 L 216.6,255.0 L 216.6,255.1 L 216.7,255.2 L 216.7,255.4 L 216.7,255.4 L 216.7,255.4 L 216.6,255.4 L 216.6,255.2 L 216.5,255.1 L 216.4,255.0 L 216.3,255.0 L 216.3,255.0 L 216.2,254.8 L 216.1,254.7 L 216.1,254.7 L 216.2,254.6 L 216.2,254.6 L 216.2,254.4 L 216.2,254.3 L 216.1,254.2 L 216.1,254.0 L 216.0,254.0 L 215.9,254.0 L 215.9,253.9 L 215.9,253.8 L 215.9,253.7 L 215.9,253.6 L 215.9,253.6 L 215.8,253.4 L 215.8,253.3 L 215.9,253.3 L 215.9,253.2 L 215.8,253.2 L 215.9,253.1 L 216.0,253.1 L 216.1,253.1 L 216.3,253.0 L 216.4,253.1 L 216.5,253.1 L 216.5,253.0 L 216.5,252.9 L 216.5,252.9 L 216.7,252.9 L 216.9,252.9 L 216.9,252.9 L 217.0,253.0 L 217.0,253.0 L 217.1,253.1 L 217.1,253.1 L 217.1,253.0 L 217.1,253.0 L 217.1,252.9 L 217.1,252.8 L 217.1,252.8 L 217.1,252.7 L 217.2,252.8 L 217.3,252.8 L 217.3,252.9 L 217.3,253.0 L 217.4,253.0 L 217.5,253.0 L 217.6,252.8 L 217.7,252.7 L 217.7,252.6 L 217.8,252.5 L 217.8,252.5 L 217.9,252.4 L 218.0,252.4 L 217.9,252.3 L 217.9,252.3 L 217.9,252.2 L 217.9,252.2 L 218.0,252.1 L 218.1,252.0 L 218.3,251.9 L 218.4,251.7 L 218.6,251.6 L 218.7,251.5 L 218.8,251.5 L 218.8,251.5 L 218.8,251.5 L 218.8,251.6 L 218.8,251.7 L 218.9,251.6 L 219.0,251.6 L 219.0,251.5 L 219.2,251.4 L 219.3,251.3 L 219.3,251.2 L 219.3,251.1 L 219.2,251.1 L 219.2,251.1 L 219.3,251.0 L 219.4,251.0 L 219.4,250.9 L 219.5,250.8 L 219.5,250.8 L 219.4,250.8 L 219.4,250.7 L 219.3,250.8 L 219.3,250.8 L 219.3,250.9 L 219.2,251.0 L 219.2,251.0 L 219.0,251.0 L 218.9,251.1 L 218.9,251.1 L 218.9,251.0 L 218.9,250.9 L 218.8,250.9 L 218.8,250.8 L 218.7,250.7 L 218.7,250.6 L 218.7,250.6 L 218.8,250.4 L 218.8,250.3 L 218.8,250.3 L 218.6,250.3 L 218.6,250.3 L 218.5,250.2 L 218.4,250.2 L 218.4,250.2 L 218.3,250.2 L 218.3,250.2 L 218.1,250.3 L 218.0,250.3 L 218.0,250.3 L 218.0,250.2 L 218.0,250.2 L 217.9,250.3 L 217.9,250.3 L 217.7,250.3 L 217.7,250.4 L 217.6,250.4 L 217.6,250.5 L 217.5,250.5 L 217.5,250.4 L 217.5,250.3 L 217.4,250.3 L 217.3,250.4 L 217.3,250.4 L 217.3,250.4 L 217.3,250.2 L 217.3,250.1 L 217.4,250.1 L 217.4,250.0 L 217.4,249.8 L 217.4,249.7 L 217.5,249.6 L 217.6,249.6 L 217.7,249.6 L 217.7,249.6 L 217.7,249.5 L 217.6,249.4 L 217.6,249.4 L 217.5,249.4 L 217.5,249.3 L 217.4,249.3 L 217.3,249.4 L 217.3,249.4 L 217.3,249.4 L 217.2,249.2 L 217.2,249.2 L 217.1,249.1 L 217.1,249.1 L 217.1,249.0 L 217.2,249.1 L 217.2,249.0 L 217.2,249.0 L 217.1,248.9 L 217.1,248.9 L 217.1,248.9 L 217.1,248.9 L 217.0,249.1 L 217.0,249.1 L 216.9,249.1 L 216.8,249.2 L 216.7,249.3 L 216.7,249.3 L 216.6,249.3 L 216.4,249.4 L 216.4,249.4 L 216.4,249.4 L 216.4,249.5 L 216.4,249.5 L 216.5,249.5 L 216.7,249.4 L 216.7,249.4 L 216.7,249.5 L 216.7,249.6 L 216.7,249.7 L 216.6,249.9 L 216.6,250.0 L 216.6,250.1 L 216.6,250.0 L 216.4,249.9 L 216.3,249.9 L 216.3,249.9 L 216.2,249.8 L 216.1,249.7 L 216.1,249.7 L 216.0,249.8 L 215.8,249.9 L 215.7,250.0 L 215.7,250.2 L 215.7,250.4 L 215.6,250.4 L 215.5,250.3 L 215.5,250.3 L 215.4,250.4 L 215.4,250.4 L 215.4,250.3 L 215.5,250.2 L 215.5,250.1 L 215.4,250.1 L 215.4,250.1 L 215.3,250.1 L 215.2,250.2 L 215.2,250.2 L 215.1,250.2 L 215.0,250.3 L 214.9,250.3 L 214.9,250.4 L 214.8,250.4 L 204.2,245.3 L 178.6,241.4 L 83.3,237.4 L 44.1,241.4 L 44.1,241.4 L 44.0,241.3 L 40.0,198.4 L 40.0,198.4 L 40.1,198.5 L 40.2,198.6 L 40.3,198.6 L 40.4,198.5 L 40.5,198.4 L 40.5,198.2 L 40.5,198.2 L 40.5,198.2 L 40.5,198.1 L 40.5,198.0 L 40.5,197.8" fill="none" stroke="black" stroke-width="2"/>
</svg>