<?xml version="1.0" encoding="UTF-8"?>
<svg width="400" height="400" viewBox="0 0 400 400" xmlns="http://www.w3.org/2000/svg">
  <rect width="400" height="400" fill="white"/>
  <path d="M 41.2,330.2 L 41.3,329.9 L 40.5,329.4 L 40.6,328.6 L 42.2,327.0 L 42.0,326.2 L 40.1,321.9 L 40.0,316.9 L 40.5,312.9 L 41.8,311.4 L 42.2,310.4 L 43.1,307.1 L 44.1,306.2 L 45.4,305.8 L 46.1,305.0 L 47.3,300.9 L 49.5,300.0 L 50.1,299.2 L 49.9,297.5 L 51.6,296.7 L 52.3,290.3 L 54.4,285.4 L 54.9,282.0 L 56.5,278.8 L 57.2,275.5 L 58.6,268.2 L 60.6,263.3 L 61.5,257.4 L 61.4,254.5 L 60.3,252.3 L 60.7,249.8 L 60.7,249.5 L 62.5,248.0 L 62.3,246.6 L 60.6,245.9 L 60.9,243.9 L 61.0,243.0 L 62.6,241.0 L 63.2,239.4 L 63.7,236.1 L 64.2,234.9 L 64.8,233.5 L 65.2,228.5 L 67.1,226.6 L 68.4,225.4 L 68.9,223.9 L 68.6,222.7 L 69.9,220.1 L 72.1,217.5 L 73.0,212.9 L 74.8,209.4 L 75.4,207.4 L 80.2,197.2 L 80.1,195.7 L 80.4,192.2 L 81.4,186.8 L 80.9,185.5 L 83.1,182.6 L 84.2,179.8 L 85.2,171.4 L 84.9,167.8 L 83.7,164.6 L 84.0,163.8 L 84.9,163.4 L 86.6,160.4 L 87.0,157.6 L 86.3,156.5 L 86.7,153.8 L 87.1,153.0 L 85.2,150.8 L 85.4,149.2 L 83.1,147.8 L 79.8,147.1 L 78.9,144.9 L 79.2,142.0 L 81.3,140.8 L 82.4,138.5 L 83.1,135.3 L 84.1,133.6 L 84.1,131.4 L 84.0,131.2 L 83.6,129.4 L 84.4,125.7 L 84.8,118.8 L 83.3,117.4 L 82.5,117.2 L 136.5,75.7 L 136.5,76.0 L 137.5,76.8 L 139.8,76.8 L 140.8,75.2 L 141.1,72.2 L 147.7,67.1 L 148.8,66.3 L 148.6,67.1 L 149.4,70.6 L 152.7,74.4 L 154.5,75.2 L 155.7,76.6 L 158.0,78.7 L 158.6,80.0 L 160.4,81.6 L 161.3,83.4 L 163.3,88.6 L 167.1,92.3 L 167.5,92.5 L 168.7,93.0 L 169.6,92.7 L 170.8,92.8 L 172.6,94.4 L 174.1,94.7 L 175.2,96.3 L 176.5,96.5 L 177.5,96.3 L 181.0,97.7 L 184.6,97.9 L 186.6,98.5 L 188.7,98.5 L 192.8,95.7 L 195.4,95.2 L 198.0,96.5 L 203.8,100.8 L 205.4,103.8 L 205.8,106.0 L 206.4,107.9 L 206.4,108.6 L 206.1,109.0 L 205.0,109.5 L 204.5,110.0 L 203.7,110.9 L 203.6,112.8 L 203.7,115.3 L 203.7,117.5 L 203.7,119.2 L 203.7,121.6 L 203.8,123.5 L 203.3,124.7 L 203.9,126.4 L 204.3,126.9 L 204.8,126.8 L 205.7,127.6 L 207.0,129.3 L 208.9,130.7 L 209.7,130.7 L 210.8,129.4 L 211.8,127.9 L 212.3,127.5 L 213.8,127.5 L 215.1,128.1 L 215.2,128.2 L 215.6,128.5 L 218.0,129.6 L 219.5,131.4 L 220.5,133.8 L 221.2,136.4 L 220.9,142.4 L 220.9,142.7 L 220.5,144.0 L 220.0,145.4 L 217.8,147.8 L 210.4,152.7 L 207.6,155.6 L 205.4,156.9 L 204.0,158.1 L 205.0,159.0 L 207.7,159.6 L 207.8,161.3 L 206.6,162.7 L 206.3,164.0 L 207.6,165.8 L 211.2,166.6 L 212.6,166.6 L 216.7,162.9 L 219.5,163.1 L 221.8,165.5 L 221.8,165.6 L 225.2,168.2 L 226.9,168.2 L 230.0,165.7 L 231.2,164.1 L 232.8,162.7 L 233.8,160.7 L 235.0,159.1 L 238.9,155.8 L 239.6,155.4 L 242.4,154.2 L 248.0,151.6 L 255.0,153.0 L 255.9,153.2 L 257.4,154.4 L 259.5,157.0 L 259.6,157.6 L 259.8,158.3 L 259.2,160.0 L 258.3,161.6 L 259.0,163.7 L 259.5,164.9 L 259.4,167.6 L 258.4,170.1 L 255.6,172.6 L 256.0,173.5 L 258.9,173.7 L 258.8,173.9 L 257.4,176.7 L 256.3,177.3 L 254.6,176.2 L 253.7,175.6 L 249.1,175.3 L 246.2,177.7 L 244.0,181.4 L 240.0,182.4 L 237.8,189.1 L 238.1,190.8 L 238.0,192.8 L 239.6,193.9 L 242.2,200.4 L 243.2,201.6 L 245.0,204.1 L 245.1,206.0 L 246.2,207.8 L 246.3,209.5 L 246.7,211.4 L 246.9,212.0 L 248.8,215.1 L 249.7,217.1 L 249.2,217.9 L 247.5,217.9 L 246.3,217.9 L 243.8,214.1 L 241.1,213.4 L 239.1,212.1 L 232.7,211.6 L 230.1,212.2 L 226.3,215.9 L 226.0,220.1 L 227.5,222.1 L 227.9,222.9 L 227.0,224.4 L 228.1,225.9 L 228.6,227.8 L 229.8,229.9 L 231.5,230.6 L 232.8,232.0 L 237.3,231.9 L 237.2,233.8 L 238.5,233.5 L 240.7,232.0 L 241.0,231.2 L 246.5,230.5 L 249.8,229.2 L 253.0,226.9 L 252.5,224.3 L 251.2,222.8 L 251.1,222.0 L 251.0,221.7 L 251.4,219.8 L 254.0,217.3 L 256.1,216.4 L 258.9,216.0 L 260.7,216.3 L 261.0,216.6 L 262.5,218.2 L 264.5,219.5 L 265.6,219.5 L 269.0,217.1 L 271.7,216.6 L 273.5,215.9 L 278.4,216.3 L 278.8,216.3 L 279.9,217.4 L 280.1,217.5 L 279.9,219.0 L 279.3,219.5 L 277.1,220.8 L 274.1,223.5 L 273.4,224.4 L 274.0,228.6 L 274.9,231.6 L 276.8,234.1 L 276.9,236.0 L 275.9,237.2 L 272.6,237.1 L 270.2,235.7 L 266.8,232.5 L 265.2,232.1 L 263.8,232.9 L 263.6,235.8 L 263.8,240.9 L 263.1,242.7 L 262.0,243.3 L 260.5,243.1 L 259.5,243.0 L 258.3,241.3 L 257.2,238.6 L 253.6,237.3 L 250.4,237.4 L 247.8,239.1 L 245.8,241.7 L 245.4,243.8 L 245.7,246.0 L 248.6,249.4 L 248.8,251.1 L 251.8,251.1 L 253.1,250.8 L 259.1,248.4 L 260.1,247.7 L 261.0,245.1 L 262.3,244.1 L 264.7,246.6 L 265.5,246.9 L 266.2,248.2 L 267.7,248.2 L 275.6,243.0 L 277.2,239.3 L 279.1,237.9 L 285.8,236.3 L 291.8,235.4 L 295.0,234.4 L 302.8,230.1 L 306.0,228.9 L 310.9,226.5 L 311.4,224.6 L 310.7,220.2 L 311.1,218.3 L 314.8,214.4 L 316.6,211.2 L 319.0,210.0 L 321.4,207.9 L 324.4,208.2 L 325.8,209.6 L 328.3,207.5 L 330.7,206.2 L 333.2,204.0 L 334.9,200.5 L 335.5,197.8 L 339.0,192.2 L 340.8,191.4 L 346.4,190.3 L 347.8,190.3 L 348.0,190.1 L 349.2,189.0 L 349.4,188.7 L 354.3,187.3 L 355.3,187.0 L 355.2,187.2 L 356.4,189.0 L 356.2,190.9 L 357.0,191.4 L 357.5,191.8 L 358.6,193.0 L 359.8,196.0 L 359.5,197.8 L 359.2,198.9 L 360.0,201.1 L 359.8,203.7 L 357.9,206.9 L 356.9,208.9 L 352.3,212.8 L 352.0,214.7 L 351.2,216.7 L 351.8,218.6 L 351.9,221.0 L 350.3,224.7 L 349.7,229.7 L 350.4,233.7 L 349.6,239.2 L 352.1,242.1 L 350.4,242.2 L 348.5,241.4 L 347.7,239.2 L 348.0,234.6 L 346.2,233.0 L 344.2,230.1 L 343.4,228.9 L 341.6,227.7 L 340.5,228.9 L 340.3,230.4 L 338.6,230.7 L 337.9,230.4 L 335.5,229.8 L 333.1,228.3 L 330.6,226.2 L 328.6,225.9 L 325.5,226.2 L 323.2,227.5 L 322.2,228.1 L 320.7,229.7 L 317.9,231.5 L 315.5,231.6 L 313.3,230.8 L 310.5,230.7 L 309.2,231.5 L 306.1,235.8 L 301.4,238.8 L 296.4,242.6 L 293.8,243.9 L 288.8,245.5 L 287.5,246.2 L 286.0,249.0 L 284.4,250.4 L 280.7,251.5 L 277.8,253.4 L 275.4,254.4 L 275.2,254.5 L 273.0,256.2 L 270.5,261.1 L 268.4,263.7 L 266.4,264.1 L 266.1,265.4 L 268.0,267.2 L 268.1,269.3 L 264.1,274.4 L 263.0,277.1 L 262.6,280.3 L 260.0,282.0 L 258.8,282.1 L 258.7,282.0 L 257.4,280.7 L 256.8,280.1 L 251.4,278.0 L 251.1,277.9 L 250.4,278.0 L 249.4,278.1 L 248.4,279.3 L 246.7,280.9 L 244.1,283.6 L 243.7,285.7 L 242.5,288.1 L 237.0,293.5 L 232.1,298.6 L 230.2,301.5 L 229.0,301.8 L 228.8,301.9 L 227.6,299.2 L 226.0,298.0 L 223.2,297.1 L 217.1,293.3 L 214.8,293.1 L 210.8,295.1 L 209.2,296.8 L 208.6,298.7 L 207.0,300.1 L 205.1,300.7 L 204.9,300.8 L 203.7,302.6 L 203.4,304.4 L 205.0,309.2 L 205.1,309.4 L 205.1,311.1 L 203.3,314.3 L 202.6,323.4 L 202.5,325.1 L 202.7,327.2 L 204.3,329.4 L 204.2,330.5 L 203.5,330.4 L 200.5,327.9 L 198.3,327.1 L 195.2,326.6 L 192.6,326.8 L 190.4,328.8 L 188.5,330.9 L 188.4,330.9 L 186.4,330.9 L 184.6,332.0 L 180.4,332.0 L 173.2,331.5 L 171.0,333.7 L 171.0,332.9 L 171.2,329.7 L 170.9,329.0 L 170.8,328.2 L 170.2,327.3 L 168.6,326.1 L 167.1,326.0 L 166.4,329.5 L 164.6,331.1 L 164.1,331.1 L 161.6,331.0 L 158.4,329.1 L 157.8,328.2 L 157.8,326.1 L 157.8,324.7 L 155.5,320.8 L 153.7,319.4 L 153.2,318.6 L 152.6,317.2 L 151.8,316.7 L 148.7,318.1 L 148.2,318.9 L 146.3,319.3 L 145.7,318.8 L 146.2,316.3 L 149.2,310.9 L 149.4,310.6 L 150.6,308.0 L 149.7,307.2 L 148.0,305.6 L 147.3,304.3 L 147.4,300.3 L 150.2,299.5 L 152.8,299.1 L 155.7,299.7 L 158.1,300.8 L 158.8,301.2 L 162.3,305.3 L 163.7,305.3 L 165.5,304.5 L 167.8,304.5 L 170.9,303.3 L 171.1,300.4 L 170.8,299.5 L 171.7,298.5 L 173.6,296.3 L 175.1,295.4 L 176.4,295.3 L 176.4,294.6 L 176.5,293.8 L 177.6,292.4 L 177.8,290.9 L 176.2,289.8 L 174.2,288.7 L 173.3,286.5 L 170.9,285.1 L 167.8,282.3 L 164.2,281.3 L 163.2,280.7 L 162.4,280.2 L 161.8,279.3 L 163.4,276.2 L 163.8,275.5 L 164.4,274.0 L 165.9,273.0 L 165.5,271.7 L 170.0,269.2 L 171.0,268.0 L 172.3,267.6 L 172.3,267.0 L 171.3,265.9 L 172.6,263.9 L 174.3,262.5 L 173.5,258.3 L 170.2,254.4 L 166.9,253.3 L 160.5,251.9 L 158.0,252.8 L 153.9,255.0 L 151.9,255.6 L 148.8,257.7 L 146.9,258.0 L 144.2,259.1 L 142.8,259.1 L 138.7,257.1 L 134.9,253.8 L 131.4,250.8 L 128.6,249.3 L 127.2,247.7 L 126.2,245.1 L 124.6,243.9 L 123.3,243.6 L 121.9,244.9 L 123.2,247.6 L 123.7,249.6 L 122.7,249.7 L 120.7,247.6 L 118.3,246.2 L 113.5,250.4 L 114.7,251.8 L 113.2,255.9 L 114.0,257.1 L 114.2,259.4 L 114.1,259.4 L 113.5,260.4 L 107.5,261.9 L 105.8,262.3 L 103.0,264.2 L 99.6,264.3 L 97.2,265.8 L 93.6,269.4 L 89.6,276.3 L 87.8,277.9 L 85.8,278.0 L 85.2,278.0 L 82.0,276.2 L 80.0,275.2 L 78.9,273.0 L 79.2,272.0 L 79.9,270.8 L 79.6,269.9 L 76.7,268.6 L 76.1,267.7 L 76.9,265.8 L 76.4,265.2 L 74.0,265.6 L 72.8,266.5 L 72.9,268.9 L 70.9,271.7 L 65.5,275.9 L 65.1,276.3 L 60.7,278.9 L 59.6,281.3 L 58.0,283.3 L 57.6,288.1 L 58.5,290.6 L 57.6,292.4 L 56.3,294.4 L 55.8,297.7 L 55.0,299.6 L 54.5,302.1 L 53.7,304.5 L 53.4,308.5 L 52.3,311.4 L 51.6,315.3 L 51.0,317.0 L 49.5,317.9 L 48.5,319.1 L 48.8,321.0 L 48.2,323.3 L 46.5,326.1 L 45.7,328.0 L 44.0,331.2 L 44.0,331.3 L 43.8,331.2 L 41.2,330.2" fill="none" stroke="black" stroke-width="2"/>
</svg>