<?xml version="1.0" encoding="UTF-8"?>
<svg width="400" height="400" viewBox="0 0 400 400" xmlns="http://www.w3.org/2000/svg">
  <rect width="400" height="400" fill="white"/>
  <path d="M 114.2,217.9 L 115.2,216.1 L 123.3,208.8 L 123.8,206.8 L 126.9,206.0 L 128.7,205.1 L 132.9,202.1 L 136.3,202.0 L 141.4,198.0 L 141.8,194.2 L 144.3,192.4 L 153.2,193.1 L 159.2,190.2 L 162.0,185.9 L 164.1,184.1 L 165.2,181.9 L 172.6,173.4 L 175.8,169.1 L 177.0,164.3 L 178.0,162.1 L 180.3,155.6 L 181.2,154.6 L 182.3,154.4 L 182.7,146.8 L 184.3,143.4 L 184.2,140.3 L 183.4,137.6 L 183.8,134.0 L 183.1,132.4 L 183.7,131.4 L 185.3,131.1 L 186.9,133.3 L 189.2,133.5 L 191.7,131.9 L 193.1,132.8 L 192.0,136.5 L 193.0,140.8 L 194.8,143.4 L 195.8,143.8 L 198.0,145.3 L 201.0,146.3 L 200.1,147.3 L 197.3,147.5 L 195.2,149.9 L 193.8,152.1 L 193.5,155.2 L 193.7,156.0 L 194.8,157.6 L 197.9,157.6 L 201.5,155.6 L 203.6,154.3 L 205.4,151.8 L 208.6,150.6 L 211.8,149.8 L 216.4,146.4 L 218.0,145.8 L 220.6,143.1 L 221.7,140.9 L 221.9,138.6 L 225.2,136.6 L 229.1,136.2 L 232.9,136.5 L 232.8,140.8 L 237.2,143.3 L 242.3,143.7 L 246.4,141.5 L 248.0,137.0 L 247.5,134.6 L 246.4,133.3 L 247.7,132.3 L 251.0,132.7 L 256.1,135.9 L 262.3,135.9 L 265.6,133.9 L 269.4,130.8 L 272.8,128.1 L 274.1,124.3 L 277.9,121.3 L 282.9,120.7 L 287.5,121.1 L 289.8,121.3 L 293.1,119.3 L 297.3,120.7 L 301.7,122.6 L 310.6,122.1 L 311.9,120.6 L 312.9,118.4 L 314.2,117.5 L 315.4,117.1 L 316.3,115.7 L 318.4,114.3 L 322.5,115.2 L 325.1,116.9 L 327.8,116.6 L 330.0,117.6 L 332.0,117.3 L 338.4,111.4 L 342.7,107.6 L 345.0,106.8 L 346.3,106.4 L 347.6,104.4 L 349.9,102.6 L 351.6,102.8 L 352.6,103.2 L 360.0,105.4 L 359.6,106.8 L 359.7,110.5 L 358.9,112.6 L 358.5,116.1 L 357.7,116.8 L 356.2,118.3 L 354.3,118.6 L 353.7,118.7 L 351.2,118.5 L 348.2,117.9 L 345.5,117.2 L 342.7,118.9 L 342.3,121.5 L 338.9,121.6 L 334.2,125.4 L 329.7,131.7 L 326.7,134.2 L 315.7,140.0 L 311.1,139.9 L 309.9,136.2 L 306.9,134.8 L 303.8,135.2 L 301.1,135.4 L 298.8,135.9 L 293.0,138.0 L 287.0,140.8 L 283.5,140.8 L 281.3,142.2 L 280.2,146.2 L 276.8,146.2 L 274.4,150.6 L 271.3,153.9 L 265.1,153.9 L 256.2,158.0 L 252.3,161.5 L 248.8,161.5 L 244.0,162.9 L 241.1,164.9 L 239.3,167.1 L 236.5,168.7 L 231.2,171.2 L 226.3,174.2 L 223.2,177.6 L 217.7,181.4 L 213.8,182.1 L 212.4,184.3 L 205.8,188.6 L 204.9,190.1 L 202.7,192.0 L 196.0,197.9 L 193.9,198.2 L 188.7,196.7 L 187.0,197.8 L 183.6,197.8 L 180.7,195.5 L 177.9,195.7 L 176.8,196.2 L 174.0,196.7 L 170.7,198.7 L 166.7,199.9 L 159.6,205.0 L 150.0,215.2 L 144.6,218.4 L 140.8,220.4 L 139.7,221.0 L 133.4,226.4 L 131.7,227.8 L 125.6,230.6 L 118.8,236.5 L 115.0,242.3 L 114.7,245.8 L 113.3,247.1 L 112.4,249.3 L 110.9,251.5 L 111.3,256.1 L 105.8,257.2 L 103.6,258.8 L 101.8,264.8 L 106.6,267.7 L 108.8,269.0 L 108.9,271.1 L 103.1,271.1 L 100.1,269.3 L 97.8,269.8 L 95.4,269.9 L 93.8,270.6 L 94.5,272.2 L 95.1,273.8 L 89.7,273.6 L 88.1,274.2 L 88.6,277.0 L 87.7,278.0 L 84.1,278.8 L 84.0,280.3 L 82.4,280.9 L 79.1,282.9 L 76.1,285.3 L 73.7,285.8 L 68.2,286.8 L 67.9,285.6 L 66.3,282.8 L 64.0,282.4 L 59.4,285.5 L 54.2,291.1 L 51.9,295.0 L 51.1,297.4 L 50.1,295.3 L 40.0,275.1 L 41.3,274.7 L 54.8,267.2 L 61.5,263.3 L 64.8,260.6 L 69.6,258.7 L 79.7,251.3 L 83.7,247.5 L 93.6,240.0 L 97.5,236.9 L 100.5,234.1 L 104.7,227.7 L 106.4,225.6 L 106.8,224.4 L 110.3,221.8 L 113.7,219.0 L 114.2,217.9" fill="none" stroke="black" stroke-width="2"/>
</svg>