<?xml version="1.0" encoding="UTF-8"?>
<svg width="400" height="400" viewBox="0 0 400 400" xmlns="http://www.w3.org/2000/svg">
  <rect width="400" height="400" fill="white"/>
  <path d="M 60.7,234.2 L 82.4,214.6 L 84.3,212.9 L 84.6,213.2 L 84.5,214.0 L 83.2,214.1 L 82.7,214.8 L 83.1,215.3 L 83.7,216.0 L 84.3,216.1 L 84.9,215.9 L 86.2,216.0 L 87.0,216.2 L 86.8,216.5 L 86.7,216.9 L 88.2,216.9 L 89.7,216.5 L 91.0,215.8 L 91.6,215.7 L 92.5,215.2 L 93.5,215.3 L 93.9,215.4 L 94.3,215.3 L 96.9,213.7 L 100.3,212.5 L 101.8,211.2 L 103.6,210.2 L 103.9,209.7 L 103.3,209.1 L 102.6,208.9 L 101.2,208.9 L 101.0,207.0 L 101.2,206.4 L 101.8,206.1 L 102.0,205.6 L 101.9,204.9 L 101.7,204.1 L 102.3,203.0 L 102.3,201.5 L 102.9,200.0 L 102.6,199.4 L 102.2,199.3 L 118.1,196.7 L 118.5,196.7 L 118.4,196.8 L 119.0,197.5 L 120.7,197.7 L 121.1,198.2 L 122.1,200.4 L 121.9,200.9 L 122.1,201.4 L 123.3,201.4 L 126.9,200.4 L 128.0,200.6 L 128.9,201.3 L 131.5,200.9 L 136.5,199.0 L 138.1,198.7 L 139.3,198.8 L 139.5,199.2 L 139.4,199.7 L 139.4,199.8 L 137.7,201.2 L 138.3,202.2 L 138.9,202.1 L 142.0,200.9 L 145.2,199.2 L 146.3,198.9 L 147.0,198.9 L 147.3,199.1 L 148.1,199.1 L 150.1,198.2 L 152.8,197.2 L 155.2,197.0 L 157.3,196.1 L 159.6,195.0 L 160.0,194.9 L 161.3,194.5 L 165.1,193.8 L 170.1,193.1 L 172.3,192.7 L 173.9,191.9 L 177.0,189.7 L 180.7,185.9 L 184.2,181.0 L 186.5,179.1 L 186.6,179.0 L 188.3,177.8 L 189.2,177.2 L 191.0,176.3 L 193.2,174.6 L 194.4,174.2 L 195.7,172.7 L 196.5,171.5 L 197.9,170.6 L 199.4,169.4 L 201.0,168.2 L 201.9,167.7 L 202.8,166.9 L 202.8,166.3 L 202.9,166.0 L 202.9,165.2 L 203.7,164.4 L 204.4,163.8 L 205.1,163.2 L 206.0,162.8 L 206.9,162.1 L 207.7,161.4 L 208.6,160.9 L 209.4,160.3 L 209.7,160.2 L 209.8,160.3 L 209.9,160.3 L 210.0,160.3 L 210.4,160.7 L 210.7,161.5 L 210.5,162.1 L 209.9,162.9 L 210.0,163.4 L 209.4,164.1 L 209.2,164.7 L 209.3,165.3 L 209.3,166.2 L 209.5,166.4 L 209.8,166.5 L 210.9,166.0 L 211.9,165.5 L 212.9,165.0 L 213.8,164.5 L 214.0,164.4 L 214.8,163.8 L 215.8,163.2 L 216.5,162.7 L 216.9,162.4 L 217.7,162.1 L 218.6,161.8 L 219.2,161.2 L 220.3,160.6 L 221.1,160.2 L 222.1,159.9 L 222.8,159.5 L 223.6,159.2 L 224.4,158.8 L 225.0,158.3 L 225.7,157.8 L 226.5,157.4 L 227.2,157.0 L 228.0,156.7 L 228.8,156.4 L 229.7,156.0 L 230.4,155.7 L 231.3,155.3 L 232.0,154.9 L 232.7,154.5 L 233.4,154.1 L 234.1,153.7 L 235.2,153.2 L 236.0,152.7 L 236.8,151.9 L 237.5,151.2 L 237.8,150.7 L 237.9,150.3 L 237.9,149.9 L 238.8,148.1 L 241.0,145.0 L 241.7,143.2 L 242.3,140.9 L 243.0,139.6 L 243.1,138.4 L 243.4,137.2 L 243.3,136.2 L 243.7,135.8 L 244.4,135.7 L 244.6,135.3 L 244.5,133.9 L 244.5,132.9 L 244.9,131.7 L 245.0,129.3 L 244.8,128.2 L 245.1,127.6 L 246.2,126.4 L 247.1,126.8 L 248.6,126.0 L 248.9,125.6 L 249.0,124.6 L 249.6,124.1 L 252.0,123.9 L 252.3,123.9 L 252.8,124.3 L 253.4,124.2 L 254.1,123.7 L 254.8,123.2 L 255.0,122.6 L 255.8,121.9 L 255.8,121.9 L 255.8,121.9 L 257.2,120.0 L 257.5,119.7 L 258.0,119.3 L 258.3,120.5 L 258.3,120.9 L 258.5,122.1 L 258.7,122.4 L 258.3,123.1 L 258.4,123.4 L 258.6,124.4 L 258.9,124.6 L 259.9,125.2 L 260.3,125.7 L 261.0,126.4 L 261.9,127.2 L 262.2,127.4 L 263.2,127.4 L 264.2,127.4 L 264.8,127.5 L 265.5,127.3 L 265.8,127.2 L 266.3,127.3 L 266.4,127.5 L 266.7,127.5 L 267.2,127.1 L 267.4,127.1 L 268.0,127.4 L 268.4,127.5 L 269.4,127.4 L 270.5,127.0 L 271.5,126.4 L 272.2,125.7 L 272.3,125.4 L 272.4,125.2 L 272.8,124.6 L 272.9,124.7 L 273.1,124.6 L 273.1,124.6 L 273.3,124.9 L 273.8,125.3 L 274.5,126.1 L 274.8,126.2 L 275.1,126.2 L 276.3,126.1 L 277.3,125.8 L 278.5,125.5 L 279.6,125.4 L 280.5,125.3 L 280.8,125.4 L 281.6,125.7 L 282.6,126.3 L 282.9,126.2 L 283.9,126.1 L 284.1,126.1 L 284.9,125.8 L 285.4,125.4 L 285.8,125.4 L 286.2,126.0 L 286.5,126.0 L 286.5,125.7 L 286.3,125.0 L 286.7,124.7 L 287.5,124.5 L 288.4,124.5 L 289.4,124.6 L 290.0,124.5 L 292.3,124.7 L 292.4,124.7 L 293.8,124.8 L 296.8,125.1 L 303.8,124.2 L 308.3,123.0 L 308.6,123.0 L 312.5,121.1 L 313.0,121.5 L 313.3,121.4 L 313.7,121.0 L 314.8,120.8 L 315.0,120.8 L 315.6,121.0 L 315.8,120.5 L 320.4,120.9 L 324.1,121.2 L 325.3,120.9 L 327.5,120.6 L 329.1,120.2 L 330.4,119.5 L 332.9,118.9 L 338.7,116.7 L 340.7,116.0 L 342.5,116.0 L 345.6,114.8 L 346.8,114.1 L 350.3,112.7 L 353.1,110.9 L 353.5,109.9 L 354.3,109.2 L 354.8,108.8 L 355.1,108.0 L 355.8,107.6 L 356.0,107.5 L 359.6,107.8 L 360.0,107.7 L 358.5,108.9 L 358.2,108.8 L 356.3,109.2 L 355.5,109.8 L 355.2,111.0 L 355.2,111.1 L 354.9,112.0 L 353.1,114.2 L 352.2,115.3 L 351.5,116.1 L 350.8,116.3 L 350.7,117.8 L 350.3,119.0 L 350.7,119.6 L 351.6,119.8 L 352.2,120.3 L 352.1,120.9 L 350.7,120.8 L 346.8,120.5 L 344.4,119.6 L 343.1,119.5 L 342.9,119.9 L 341.5,121.5 L 341.4,122.0 L 341.6,122.4 L 342.0,122.4 L 343.5,120.7 L 344.4,120.3 L 346.2,121.1 L 346.4,121.7 L 344.4,123.8 L 343.9,124.4 L 344.5,125.2 L 343.5,125.7 L 342.9,126.3 L 342.8,126.4 L 342.6,126.7 L 341.9,127.2 L 338.9,127.3 L 337.3,128.1 L 337.3,128.2 L 337.1,128.4 L 335.5,129.6 L 334.3,129.7 L 332.0,130.8 L 330.4,131.2 L 328.4,132.8 L 326.3,132.9 L 324.4,133.3 L 323.5,133.4 L 322.5,133.4 L 321.6,133.6 L 320.6,133.8 L 319.6,134.0 L 318.4,134.4 L 317.4,134.7 L 316.3,135.1 L 315.5,135.5 L 314.6,135.7 L 313.9,136.1 L 313.3,136.4 L 312.9,136.7 L 312.5,136.6 L 312.4,136.2 L 312.0,135.9 L 312.0,136.1 L 312.0,136.7 L 312.0,136.8 L 311.5,137.2 L 310.8,137.9 L 310.6,138.0 L 309.7,138.5 L 308.8,138.7 L 307.8,139.0 L 307.0,139.4 L 305.8,139.7 L 305.2,139.9 L 304.8,140.0 L 303.7,140.2 L 302.9,140.5 L 302.1,141.0 L 301.7,141.4 L 301.5,141.6 L 301.4,141.8 L 301.0,141.8 L 300.9,141.9 L 300.6,142.1 L 299.9,142.6 L 298.9,143.0 L 298.0,143.5 L 297.8,143.5 L 295.4,144.1 L 292.5,144.2 L 291.0,144.6 L 288.0,145.1 L 284.8,145.3 L 283.4,145.8 L 281.4,147.3 L 281.1,147.5 L 276.8,150.3 L 276.4,150.3 L 275.1,151.0 L 274.5,151.8 L 272.2,153.6 L 269.6,154.7 L 268.1,155.7 L 266.5,156.4 L 263.3,158.4 L 262.4,159.4 L 260.6,160.4 L 259.2,161.6 L 258.1,162.1 L 256.5,163.5 L 255.4,164.1 L 255.2,164.5 L 256.1,164.5 L 257.7,163.6 L 258.2,163.7 L 258.4,163.8 L 258.5,163.8 L 259.0,165.2 L 258.9,166.2 L 258.0,167.7 L 257.7,168.2 L 253.2,172.0 L 249.1,176.6 L 247.7,177.7 L 247.6,177.9 L 247.0,178.0 L 246.4,178.6 L 245.1,179.4 L 243.9,180.5 L 243.9,181.1 L 243.8,181.7 L 243.9,182.5 L 244.9,182.7 L 245.3,182.4 L 245.8,182.5 L 246.1,182.8 L 246.9,184.7 L 247.1,185.0 L 247.6,185.9 L 247.8,187.6 L 247.7,187.7 L 247.3,188.9 L 246.8,189.5 L 246.5,190.4 L 246.7,190.8 L 247.5,190.9 L 248.5,191.1 L 248.5,191.2 L 248.6,191.4 L 248.7,192.5 L 249.1,193.5 L 249.1,193.6 L 249.0,193.9 L 248.3,194.6 L 247.5,195.1 L 246.7,195.7 L 245.7,196.4 L 245.1,196.7 L 244.4,197.1 L 243.6,197.7 L 242.8,198.2 L 241.9,199.0 L 241.4,199.8 L 241.3,200.8 L 241.2,201.9 L 240.6,202.8 L 240.4,203.9 L 240.5,205.0 L 240.2,206.1 L 240.2,206.8 L 240.1,208.0 L 239.8,208.5 L 239.4,208.9 L 239.0,209.5 L 238.6,209.9 L 238.5,210.1 L 237.8,210.8 L 237.1,211.1 L 236.3,211.4 L 235.3,211.6 L 234.8,211.5 L 234.2,211.0 L 233.5,210.2 L 232.7,209.8 L 231.7,209.4 L 230.8,208.9 L 229.7,208.6 L 229.5,208.0 L 229.1,208.4 L 228.2,208.2 L 227.2,208.5 L 226.0,208.4 L 224.9,208.3 L 224.5,208.4 L 223.7,208.8 L 223.0,209.1 L 222.0,209.1 L 221.8,208.9 L 221.6,208.6 L 220.8,209.0 L 220.6,209.5 L 220.4,209.6 L 219.9,210.0 L 219.0,210.7 L 218.2,211.1 L 217.2,211.6 L 216.5,211.9 L 215.9,212.5 L 215.2,213.1 L 214.7,213.8 L 214.3,214.7 L 213.8,215.6 L 213.7,215.9 L 213.5,216.4 L 213.0,217.3 L 212.2,217.8 L 211.5,218.1 L 210.8,218.6 L 210.5,218.9 L 210.1,219.7 L 210.1,220.4 L 210.7,221.4 L 210.6,222.5 L 210.3,223.6 L 209.8,224.5 L 209.8,224.6 L 209.8,224.8 L 209.6,225.0 L 209.4,225.0 L 209.1,225.0 L 208.2,224.6 L 207.4,224.3 L 207.2,224.3 L 206.2,224.9 L 205.3,225.5 L 205.0,226.1 L 205.5,227.1 L 205.4,227.2 L 205.2,227.4 L 204.2,227.6 L 203.2,227.6 L 202.2,227.5 L 201.1,227.5 L 200.0,227.4 L 198.9,227.5 L 197.8,227.5 L 197.4,227.5 L 196.3,227.6 L 195.1,228.0 L 193.2,228.4 L 190.3,228.9 L 189.2,229.6 L 188.9,230.1 L 186.3,231.6 L 186.1,232.6 L 186.1,232.9 L 186.5,233.8 L 186.4,235.0 L 185.3,238.2 L 185.0,238.8 L 182.9,239.6 L 182.7,240.0 L 182.8,240.4 L 183.5,240.7 L 183.6,241.4 L 182.3,242.2 L 182.2,242.3 L 181.9,243.0 L 182.1,243.5 L 182.2,243.6 L 182.2,244.5 L 182.0,245.1 L 181.8,245.7 L 181.9,245.8 L 182.3,246.2 L 182.3,247.4 L 181.7,248.2 L 181.6,248.4 L 180.9,248.7 L 180.4,249.5 L 180.4,249.9 L 180.8,250.3 L 180.9,250.7 L 180.1,251.2 L 179.9,251.5 L 180.5,252.7 L 180.5,253.3 L 180.4,253.9 L 179.9,254.4 L 178.8,255.8 L 177.8,256.6 L 177.1,257.3 L 176.0,257.3 L 174.4,257.7 L 174.1,257.9 L 173.9,260.2 L 173.1,260.8 L 170.6,261.6 L 169.8,261.6 L 169.2,261.6 L 168.5,260.3 L 167.1,259.2 L 167.0,259.0 L 166.4,257.9 L 166.0,257.0 L 165.1,253.0 L 164.9,251.5 L 164.9,251.0 L 165.4,250.3 L 165.4,249.6 L 165.0,249.2 L 164.1,249.1 L 163.9,248.5 L 163.1,248.3 L 161.5,248.8 L 160.1,249.6 L 158.4,249.6 L 157.4,249.3 L 156.0,247.8 L 155.4,247.7 L 153.1,248.5 L 152.5,248.2 L 151.7,247.9 L 149.6,248.7 L 147.9,248.6 L 142.4,251.3 L 140.8,252.3 L 137.8,254.0 L 135.5,254.5 L 134.9,254.7 L 133.2,254.8 L 133.1,254.8 L 132.5,254.6 L 130.5,254.5 L 129.7,254.4 L 128.8,254.4 L 128.2,254.6 L 127.6,254.6 L 127.0,255.1 L 126.0,255.3 L 125.0,255.4 L 124.1,255.2 L 123.1,255.2 L 122.8,255.1 L 122.3,254.6 L 121.8,253.9 L 121.4,253.8 L 121.4,254.1 L 122.1,255.0 L 122.0,255.3 L 121.7,255.4 L 120.7,255.7 L 119.7,255.8 L 118.6,256.0 L 117.5,256.3 L 116.4,256.7 L 115.4,257.0 L 114.3,257.5 L 113.3,258.2 L 112.7,258.7 L 112.0,259.3 L 111.3,259.9 L 110.6,260.4 L 110.0,260.9 L 109.4,261.6 L 108.8,262.2 L 107.9,262.9 L 107.2,263.5 L 106.6,264.0 L 105.9,264.5 L 105.3,265.1 L 104.3,265.8 L 103.4,266.5 L 102.7,267.3 L 102.6,267.7 L 102.2,268.7 L 101.4,269.6 L 100.6,270.4 L 99.6,271.1 L 98.8,271.4 L 98.1,271.8 L 97.1,272.2 L 97.1,272.3 L 96.0,272.6 L 94.9,272.8 L 93.9,273.0 L 92.9,273.1 L 92.8,273.1 L 91.9,273.1 L 91.0,273.3 L 90.1,273.3 L 89.1,273.5 L 88.1,273.5 L 87.2,273.4 L 86.9,273.5 L 86.4,273.9 L 85.9,274.5 L 85.6,274.8 L 84.5,275.3 L 83.7,275.9 L 82.8,276.4 L 82.1,276.8 L 81.7,276.8 L 81.5,276.7 L 81.3,276.8 L 80.4,277.1 L 79.5,277.6 L 78.6,278.0 L 77.7,278.4 L 76.8,278.7 L 75.7,278.9 L 74.6,279.1 L 73.6,279.3 L 72.5,279.4 L 71.5,279.6 L 71.4,279.6 L 70.5,279.8 L 69.5,280.2 L 68.6,280.6 L 68.5,280.6 L 67.7,281.0 L 66.7,281.4 L 65.8,281.9 L 65.6,282.0 L 64.6,282.4 L 63.7,282.8 L 62.8,283.3 L 61.9,283.7 L 61.0,284.1 L 60.1,284.5 L 59.2,284.9 L 58.3,285.3 L 57.4,285.8 L 57.0,286.0 L 56.6,286.3 L 55.8,286.8 L 55.7,286.8 L 54.7,287.5 L 54.1,287.5 L 53.9,287.6 L 53.8,287.8 L 53.3,288.3 L 52.5,288.9 L 51.9,289.2 L 51.8,289.3 L 50.9,289.7 L 49.8,290.1 L 49.4,290.1 L 49.0,290.2 L 48.8,290.5 L 47.7,291.0 L 46.8,291.3 L 45.9,291.6 L 45.0,291.8 L 44.1,292.2 L 43.0,292.5 L 42.8,292.5 L 42.7,292.2 L 42.8,292.0 L 43.0,291.0 L 42.8,290.5 L 42.9,290.0 L 43.2,289.5 L 43.7,288.4 L 43.7,288.1 L 44.1,287.0 L 44.5,285.9 L 44.9,284.8 L 45.1,283.8 L 45.1,283.2 L 45.1,283.0 L 45.6,282.8 L 45.8,282.6 L 45.4,282.2 L 45.6,282.0 L 46.2,282.2 L 46.5,282.1 L 45.6,281.4 L 45.7,280.9 L 46.0,279.9 L 46.2,279.6 L 46.2,279.4 L 46.0,279.4 L 45.8,279.2 L 45.7,279.0 L 45.3,278.0 L 44.8,277.1 L 44.4,276.1 L 43.8,275.1 L 43.3,274.6 L 43.0,274.3 L 42.1,273.6 L 41.3,272.7 L 41.0,271.8 L 40.8,270.9 L 40.6,269.7 L 40.6,268.6 L 40.9,268.0 L 41.7,267.1 L 41.7,266.5 L 41.4,265.9 L 41.2,265.6 L 40.8,264.6 L 40.7,263.6 L 40.9,262.6 L 40.7,262.4 L 40.4,262.3 L 40.2,262.0 L 40.1,261.6 L 40.0,260.8 L 40.1,259.6 L 40.3,258.5 L 40.5,257.4 L 40.8,256.4 L 40.9,255.5 L 41.0,255.3 L 41.4,254.3 L 41.7,253.4 L 42.1,252.4 L 42.8,251.5 L 43.7,250.9 L 44.5,250.3 L 45.2,249.6 L 45.5,249.5 L 46.3,248.9 L 47.2,248.3 L 48.0,247.8 L 48.6,246.9 L 48.9,245.9 L 49.3,245.5 L 49.9,245.3 L 50.4,244.6 L 50.7,243.8 L 51.0,243.4 L 51.8,242.6 L 52.4,242.0 L 52.6,241.5 L 52.6,241.4 L 60.0,234.8 L 60.0,234.9 L 59.7,235.3 L 59.7,235.6 L 60.0,236.0 L 60.4,236.4 L 61.6,237.0 L 61.7,237.1 L 63.0,236.6 L 63.3,236.3 L 63.4,235.6 L 63.5,235.3 L 64.3,234.8 L 64.1,234.5 L 63.8,234.3 L 62.8,234.1 L 61.9,234.2 L 61.3,234.3 L 60.7,234.2" fill="none" stroke="black" stroke-width="2"/>
</svg>