<?xml version="1.0" encoding="UTF-8"?>
<svg width="400" height="400" viewBox="0 0 400 400" xmlns="http://www.w3.org/2000/svg">
  <rect width="400" height="400" fill="white"/>
  <path d="M 184.1,261.2 L 184.1,261.1 L 185.8,255.6 L 186.3,253.8 L 188.8,250.3 L 189.8,249.4 L 192.2,248.7 L 199.0,241.8 L 199.5,239.1 L 200.2,237.2 L 199.4,235.3 L 199.5,232.5 L 198.6,229.6 L 192.7,220.6 L 192.7,215.8 L 191.1,215.7 L 183.5,220.6 L 181.8,223.3 L 180.8,226.0 L 180.1,226.9 L 176.4,228.4 L 169.7,228.7 L 166.2,229.3 L 164.7,230.1 L 162.3,229.9 L 159.8,227.8 L 159.4,226.8 L 157.8,223.9 L 158.1,220.1 L 158.9,217.4 L 158.9,214.6 L 154.8,203.8 L 155.2,198.2 L 155.0,197.3 L 154.9,194.4 L 155.3,192.6 L 157.1,190.9 L 160.2,193.1 L 160.8,192.2 L 160.7,190.3 L 159.3,185.4 L 158.1,183.4 L 154.0,182.1 L 149.4,182.6 L 147.7,181.5 L 146.5,179.5 L 146.1,174.8 L 146.8,173.9 L 146.7,168.3 L 147.2,167.4 L 146.0,161.6 L 145.8,155.0 L 145.0,150.2 L 142.4,147.2 L 139.2,145.0 L 130.5,142.3 L 126.7,140.1 L 121.8,139.6 L 120.5,138.5 L 120.0,136.6 L 120.1,133.8 L 121.0,131.1 L 122.9,129.4 L 126.7,128.8 L 128.4,128.0 L 130.9,127.3 L 130.9,126.4 L 130.2,122.5 L 131.0,118.8 L 133.0,115.3 L 136.5,112.8 L 137.9,110.1 L 137.9,108.2 L 134.8,106.0 L 134.5,104.1 L 135.6,102.4 L 137.5,102.5 L 138.3,101.7 L 138.0,98.8 L 136.5,95.9 L 136.2,93.0 L 136.9,85.5 L 139.5,80.1 L 139.5,78.3 L 138.2,77.2 L 131.5,76.6 L 124.4,75.0 L 122.0,72.9 L 120.6,69.9 L 120.2,65.2 L 121.0,58.7 L 123.0,53.2 L 123.9,51.4 L 123.1,51.3 L 135.3,42.6 L 138.9,40.0 L 135.5,44.0 L 135.2,45.6 L 136.2,50.7 L 137.8,53.7 L 141.2,56.8 L 142.1,59.7 L 141.9,63.5 L 145.8,67.6 L 150.6,71.8 L 154.5,76.9 L 158.2,82.8 L 161.4,86.0 L 163.2,88.0 L 166.8,94.9 L 169.6,97.1 L 179.4,98.0 L 187.2,100.6 L 188.5,101.7 L 188.8,106.4 L 187.8,111.0 L 186.8,111.9 L 186.6,113.7 L 185.0,114.5 L 185.6,116.5 L 187.6,119.5 L 189.1,120.5 L 191.9,123.6 L 194.1,124.8 L 196.0,127.8 L 197.0,130.7 L 194.9,131.4 L 194.6,134.2 L 196.2,139.1 L 198.0,142.1 L 200.6,144.2 L 207.8,147.7 L 210.0,149.8 L 212.1,155.6 L 211.2,161.2 L 214.6,169.0 L 214.8,169.0 L 215.7,173.8 L 215.0,174.7 L 212.0,176.3 L 211.4,177.2 L 212.1,179.1 L 216.6,184.3 L 217.9,189.1 L 220.0,192.1 L 227.7,192.8 L 229.2,193.9 L 228.8,198.6 L 230.4,200.6 L 232.8,202.7 L 241.3,202.6 L 245.1,200.1 L 250.1,199.6 L 258.3,196.6 L 262.2,193.2 L 263.4,193.4 L 266.1,192.7 L 266.6,191.8 L 269.6,190.2 L 272.4,187.6 L 274.9,185.0 L 276.7,182.4 L 277.9,178.7 L 278.6,177.9 L 279.2,178.9 L 278.3,182.5 L 278.7,184.5 L 279.9,185.5 L 279.9,186.4 L 280.0,186.4 L 279.9,187.4 L 280.0,189.3 L 279.3,191.1 L 276.6,193.7 L 273.8,195.3 L 272.1,197.9 L 268.8,199.5 L 265.4,203.9 L 265.0,205.7 L 265.2,208.6 L 266.1,211.5 L 265.8,216.1 L 268.8,219.2 L 268.6,223.0 L 267.9,225.7 L 263.4,228.1 L 263.0,230.0 L 263.9,232.0 L 263.1,233.8 L 261.6,238.3 L 260.6,239.2 L 258.9,238.1 L 258.1,237.0 L 255.6,237.8 L 254.0,239.5 L 255.0,241.5 L 254.1,243.3 L 256.7,245.4 L 259.5,246.6 L 261.8,246.8 L 263.3,247.9 L 263.9,248.9 L 264.0,250.8 L 262.1,252.5 L 259.1,254.1 L 254.0,253.6 L 251.1,252.4 L 244.1,251.7 L 240.7,253.3 L 232.0,260.0 L 227.0,262.3 L 226.6,264.9 L 226.6,265.0 L 226.9,268.9 L 228.2,271.8 L 228.3,273.7 L 227.4,276.5 L 224.4,278.1 L 223.9,279.0 L 224.5,280.0 L 224.7,283.7 L 225.8,284.8 L 227.6,285.0 L 230.8,286.2 L 235.2,286.6 L 237.1,285.9 L 243.0,285.5 L 244.8,284.7 L 245.2,285.7 L 244.3,286.5 L 243.7,289.3 L 242.3,291.0 L 240.0,292.8 L 239.1,293.6 L 235.5,296.0 L 230.8,302.2 L 228.7,304.8 L 221.9,309.8 L 219.9,309.6 L 215.5,313.0 L 211.8,318.3 L 210.8,321.9 L 210.5,325.7 L 209.5,331.2 L 210.1,335.0 L 209.0,338.7 L 208.8,342.4 L 208.1,345.2 L 206.8,346.9 L 202.0,349.3 L 201.0,350.2 L 200.6,350.7 L 199.5,351.9 L 196.6,352.6 L 193.0,353.2 L 189.2,356.6 L 184.1,358.9 L 181.2,359.6 L 175.7,360.0 L 170.0,359.5 L 166.1,357.2 L 163.2,357.9 L 157.2,357.3 L 155.2,356.2 L 151.6,354.9 L 147.8,351.7 L 147.5,349.8 L 146.7,343.2 L 147.3,339.5 L 149.5,333.1 L 151.6,329.5 L 154.0,324.1 L 157.2,319.7 L 157.9,316.9 L 158.7,310.4 L 159.9,307.7 L 161.7,305.1 L 162.6,303.3 L 164.5,300.6 L 165.1,298.8 L 168.2,296.3 L 171.1,291.9 L 173.3,288.3 L 174.5,286.6 L 175.9,284.8 L 178.7,280.4 L 182.1,278.8 L 182.9,275.1 L 183.0,273.2 L 183.7,271.4 L 183.4,269.5 L 182.3,265.7 L 182.5,262.8" fill="none" stroke="black" stroke-width="2"/>
</svg>