<?xml version="1.0" encoding="UTF-8"?>
<svg width="400" height="400" viewBox="0 0 400 400" xmlns="http://www.w3.org/2000/svg">
  <rect width="400" height="400" fill="white"/>
  <path d="M 40.0,307.9 L 40.1,307.1 L 57.4,174.2 L 57.8,171.9 L 58.8,171.5 L 61.2,171.7 L 62.9,175.0 L 64.2,175.6 L 70.7,176.2 L 74.0,174.6 L 79.4,170.9 L 84.0,171.2 L 84.8,170.8 L 85.5,169.9 L 85.8,168.8 L 86.9,168.5 L 89.4,168.9 L 91.6,169.2 L 91.7,168.6 L 90.3,166.9 L 90.0,166.0 L 90.1,164.6 L 89.7,163.9 L 90.1,162.8 L 91.1,162.7 L 93.6,163.1 L 96.1,162.6 L 96.8,162.8 L 96.8,163.6 L 95.5,164.7 L 95.5,165.5 L 96.6,165.6 L 97.7,165.1 L 98.1,165.1 L 98.6,165.3 L 98.5,166.2 L 96.9,168.2 L 96.5,168.7 L 95.5,169.0 L 93.1,169.0 L 92.8,169.7 L 94.4,170.6 L 93.0,173.0 L 90.7,175.8 L 90.6,176.8 L 92.2,176.8 L 95.1,173.9 L 95.7,172.8 L 100.5,167.9 L 104.8,165.0 L 110.1,162.2 L 118.9,159.7 L 122.9,159.2 L 125.1,159.0 L 125.9,158.4 L 125.9,157.6 L 125.2,156.3 L 125.1,155.1 L 125.7,154.8 L 127.2,156.4 L 127.9,156.2 L 128.7,155.2 L 129.1,154.9 L 131.3,154.3 L 133.8,153.6 L 134.6,154.1 L 134.2,156.1 L 133.2,157.5 L 133.4,158.1 L 134.1,158.4 L 134.9,158.4 L 135.4,157.9 L 136.8,157.4 L 139.4,157.0 L 140.7,154.9 L 141.8,155.2 L 143.6,157.1 L 144.8,158.9 L 145.9,160.6 L 146.6,161.0 L 149.0,160.3 L 151.1,159.4 L 150.7,157.4 L 151.0,157.0 L 153.1,155.5 L 154.9,154.2 L 156.1,152.1 L 156.4,151.6 L 157.2,150.3 L 157.6,149.8 L 159.0,147.2 L 161.1,146.1 L 164.6,145.2 L 166.9,145.0 L 168.8,143.9 L 168.6,142.7 L 166.2,139.8 L 166.0,136.7 L 165.8,135.3 L 166.1,133.5 L 168.3,132.2 L 172.5,130.8 L 174.5,131.0 L 176.2,131.6 L 180.0,131.7 L 190.6,129.7 L 203.5,122.4 L 207.7,118.8 L 211.3,113.9 L 212.8,104.2 L 212.8,104.0 L 214.8,101.7 L 217.1,101.0 L 220.6,101.8 L 221.1,101.9 L 225.1,103.8 L 226.2,105.1 L 226.2,106.9 L 223.0,109.5 L 222.8,112.4 L 223.7,113.6 L 226.8,114.8 L 229.5,114.8 L 233.0,113.2 L 236.1,111.2 L 238.8,108.5 L 240.6,106.3 L 247.5,106.8 L 251.3,105.3 L 256.9,102.3 L 259.1,100.7 L 262.6,97.0 L 266.1,95.1 L 269.5,92.2 L 271.7,92.7 L 274.7,94.3 L 276.1,94.3 L 277.5,93.3 L 279.2,92.1 L 281.5,92.3 L 285.2,95.6 L 289.7,103.9 L 290.6,106.9 L 289.6,109.7 L 288.8,116.4 L 287.4,118.5 L 287.0,120.0 L 294.8,130.2 L 296.9,129.7 L 299.0,131.3 L 301.6,131.3 L 316.5,130.3 L 318.4,129.3 L 320.9,129.4 L 324.2,127.9 L 324.4,127.5 L 330.5,123.4 L 334.4,121.8 L 338.1,119.0 L 340.2,115.6 L 342.5,110.4 L 344.5,108.8 L 347.2,108.6 L 350.5,109.2 L 353.2,111.0 L 354.3,112.9 L 354.5,114.5 L 352.0,116.7 L 351.8,122.5 L 352.3,124.6 L 354.9,126.0 L 356.9,128.8 L 359.0,134.5 L 360.0,140.4 L 359.7,143.7 L 358.2,145.4 L 354.6,146.8 L 352.7,148.2 L 351.8,155.3 L 352.9,158.1 L 355.4,160.1 L 355.2,163.2 L 354.5,167.5 L 355.6,169.3 L 355.3,169.9 L 354.4,171.8 L 353.0,173.8 L 352.6,173.6 L 351.6,172.7 L 349.4,173.4 L 348.8,174.0 L 349.1,175.2 L 348.8,176.0 L 348.0,176.6 L 346.3,177.4 L 345.0,177.5 L 343.9,177.3 L 342.6,176.6 L 341.5,175.0 L 341.0,174.4 L 340.2,172.2 L 338.9,168.7 L 336.1,167.0 L 332.3,162.6 L 328.7,161.6 L 328.3,161.5 L 321.2,161.3 L 320.1,162.8 L 319.1,163.6 L 317.0,162.8 L 313.4,162.5 L 312.2,163.3 L 311.6,165.0 L 311.0,169.4 L 308.8,171.0 L 307.9,172.3 L 306.5,173.5 L 302.9,173.4 L 298.8,173.7 L 298.5,175.4 L 298.4,177.7 L 295.5,179.8 L 294.7,182.0 L 291.9,182.6 L 290.0,184.0 L 289.2,187.5 L 290.4,188.9 L 290.5,190.6 L 289.1,193.1 L 285.7,195.5 L 281.3,195.3 L 278.7,194.6 L 278.6,194.6 L 276.4,193.0 L 276.1,191.2 L 278.0,187.5 L 278.2,185.3 L 276.9,182.0 L 277.0,180.1 L 276.6,179.1 L 272.2,179.6 L 269.3,180.7 L 267.3,181.8 L 267.1,184.1 L 265.7,184.7 L 261.8,183.7 L 260.5,185.4 L 259.6,184.9 L 258.3,184.5 L 256.1,184.7 L 255.8,187.8 L 254.2,191.7 L 251.2,192.5 L 248.9,192.8 L 247.8,191.3 L 245.5,191.8 L 242.8,193.8 L 239.1,194.7 L 235.6,196.4 L 232.6,197.1 L 230.5,198.4 L 230.2,200.6 L 229.3,201.4 L 226.3,205.4 L 226.5,207.4 L 229.3,210.8 L 231.1,212.2 L 231.3,213.1 L 229.6,214.4 L 229.3,215.6 L 230.7,217.2 L 233.2,218.6 L 237.1,222.1 L 240.0,224.2 L 242.7,224.7 L 250.7,223.4 L 253.4,223.5 L 253.8,223.9 L 255.2,225.3 L 255.7,226.2 L 256.9,228.8 L 257.7,232.2 L 257.3,233.1 L 257.1,233.5 L 255.1,235.6 L 255.5,236.5 L 257.5,236.0 L 259.0,237.3 L 259.3,238.7 L 257.9,239.9 L 254.6,240.6 L 254.4,240.6 L 249.9,242.9 L 249.6,243.0 L 246.9,243.5 L 245.1,244.2 L 244.8,246.6 L 239.2,251.1 L 236.5,251.4 L 233.7,252.3 L 232.3,253.5 L 232.5,255.8 L 228.2,260.5 L 227.6,262.1 L 228.2,263.6 L 225.8,268.8 L 225.6,271.0 L 225.4,272.6 L 223.8,275.2 L 218.9,279.8 L 218.0,280.2 L 217.2,280.7 L 213.5,282.6 L 207.7,285.0 L 207.5,285.0 L 203.4,287.0 L 199.9,290.0 L 198.0,291.7 L 197.4,292.1 L 195.4,293.0 L 195.1,292.5 L 195.3,290.1 L 195.7,287.8 L 195.9,285.8 L 196.0,285.3 L 195.7,283.1 L 195.1,281.4 L 193.7,279.2 L 192.5,277.8 L 191.8,275.7 L 192.2,274.6 L 192.3,274.0 L 191.7,273.5 L 191.9,271.4 L 191.8,270.9 L 191.2,270.6 L 191.1,269.9 L 191.5,269.4 L 193.1,267.8 L 194.1,265.7 L 194.4,263.8 L 194.7,261.5 L 194.8,258.9 L 195.0,256.6 L 195.2,254.0 L 195.0,251.6 L 193.5,250.4 L 193.7,246.8 L 192.4,246.3 L 188.6,248.6 L 186.4,249.5 L 183.5,249.7 L 183.2,249.0 L 181.4,248.7 L 180.3,250.4 L 177.4,251.0 L 173.3,252.3 L 172.8,253.3 L 171.9,253.4 L 169.7,252.6 L 169.2,253.0 L 168.7,254.3 L 170.3,256.4 L 173.2,258.1 L 173.8,259.2 L 172.8,260.9 L 168.5,261.0 L 166.2,261.4 L 164.1,264.2 L 164.3,267.0 L 161.7,271.3 L 158.5,273.4 L 154.7,273.5 L 153.8,273.9 L 152.2,274.0 L 149.6,273.0 L 148.7,272.8 L 146.5,270.5 L 145.2,270.2 L 144.3,270.0 L 137.5,270.5 L 132.7,271.3 L 131.1,271.6 L 119.8,276.4 L 118.0,276.4 L 116.9,274.3 L 117.4,273.2 L 122.4,271.1 L 122.3,270.4 L 121.7,269.4 L 120.2,269.0 L 118.0,270.0 L 116.9,270.3 L 111.2,272.6 L 102.1,277.2 L 93.5,282.1 L 84.6,286.0 L 83.2,286.5 L 79.9,288.2 L 76.9,291.3 L 72.5,295.1 L 64.8,298.1 L 58.6,299.3 L 56.6,301.7 L 52.2,303.0 L 45.8,304.3 L 41.3,307.4 L 40.0,307.9" fill="none" stroke="black" stroke-width="2"/>
</svg>