<?xml version="1.0" encoding="UTF-8"?>
<svg width="400" height="400" viewBox="0 0 400 400" xmlns="http://www.w3.org/2000/svg">
  <rect width="400" height="400" fill="white"/>
  <path d="M 122.6,238.3 L 122.8,237.5 L 123.6,236.6 L 123.7,235.4 L 124.6,234.7 L 125.8,234.5 L 127.9,234.3 L 128.6,234.6 L 128.8,235.1 L 131.1,235.5 L 131.7,235.7 L 132.4,235.6 L 133.8,234.8 L 133.8,234.1 L 133.8,233.8 L 133.3,233.5 L 131.8,233.4 L 130.4,233.1 L 130.3,233.0 L 131.3,232.4 L 130.1,232.8 L 129.7,233.1 L 128.6,233.2 L 127.8,233.0 L 126.7,232.1 L 126.9,231.8 L 128.2,230.8 L 129.8,230.5 L 131.0,229.7 L 131.4,229.0 L 131.6,227.7 L 131.3,226.1 L 131.4,225.0 L 132.2,224.0 L 133.4,223.2 L 134.1,223.9 L 134.5,223.9 L 134.7,223.2 L 135.2,223.1 L 136.6,223.8 L 137.2,224.7 L 138.2,224.9 L 139.0,224.4 L 139.4,224.3 L 140.2,224.7 L 140.8,225.5 L 140.6,226.0 L 140.3,226.3 L 140.6,226.7 L 140.5,226.9 L 140.6,227.5 L 141.2,227.9 L 142.0,227.5 L 143.2,227.7 L 143.1,228.1 L 141.8,229.1 L 141.5,229.7 L 142.0,230.3 L 142.6,230.6 L 143.3,231.2 L 143.7,231.1 L 144.4,231.1 L 145.1,230.9 L 146.5,231.0 L 147.0,230.8 L 147.4,230.5 L 148.5,230.4 L 149.7,229.9 L 151.9,230.1 L 153.2,229.8 L 153.5,229.2 L 153.1,228.1 L 153.5,227.5 L 153.4,224.6 L 153.0,224.1 L 151.8,224.3 L 147.4,226.2 L 145.7,226.2 L 145.5,225.8 L 145.8,224.7 L 145.3,223.3 L 145.2,221.8 L 146.4,220.8 L 147.3,220.4 L 147.3,220.0 L 146.4,219.3 L 146.5,218.2 L 147.5,216.9 L 148.7,214.1 L 150.1,212.5 L 150.5,211.2 L 151.0,210.7 L 151.5,210.5 L 151.7,208.7 L 152.4,208.1 L 153.8,207.8 L 154.5,207.1 L 154.8,206.3 L 154.6,205.1 L 154.2,204.0 L 153.8,203.6 L 153.6,202.9 L 151.9,201.3 L 150.1,200.1 L 149.4,199.2 L 148.1,198.7 L 147.0,198.5 L 146.7,198.2 L 146.1,198.1 L 145.3,198.6 L 144.9,198.6 L 144.1,197.5 L 143.5,197.5 L 142.9,197.8 L 142.1,197.9 L 140.9,197.4 L 140.6,196.4 L 139.8,196.0 L 137.2,195.7 L 135.0,195.0 L 134.4,194.6 L 133.9,192.7 L 133.1,192.3 L 133.2,191.9 L 134.0,191.3 L 134.0,190.8 L 133.7,190.3 L 132.5,190.0 L 131.2,190.1 L 129.8,190.8 L 128.9,190.8 L 127.4,190.1 L 126.5,189.4 L 125.5,187.4 L 124.7,186.7 L 125.1,185.9 L 127.4,183.9 L 128.1,182.2 L 128.6,181.7 L 128.2,180.7 L 129.7,179.3 L 130.0,178.3 L 129.9,177.7 L 129.5,177.5 L 129.2,177.0 L 129.2,176.2 L 128.6,175.6 L 127.0,175.0 L 123.6,174.7 L 122.6,173.6 L 120.8,172.7 L 119.9,172.5 L 119.5,172.8 L 118.7,173.8 L 118.3,173.9 L 118.0,173.5 L 118.3,172.8 L 117.8,172.2 L 117.1,171.8 L 116.9,170.9 L 115.0,170.4 L 114.2,169.9 L 113.1,168.6 L 111.8,168.4 L 111.5,167.6 L 107.3,167.4 L 105.9,167.7 L 105.3,167.9 L 103.5,169.6 L 100.9,171.5 L 98.9,172.6 L 96.8,173.7 L 95.4,174.0 L 94.6,174.6 L 93.5,175.1 L 92.2,175.0 L 91.3,175.3 L 90.4,175.3 L 89.7,174.3 L 89.6,173.1 L 89.5,172.7 L 89.1,172.6 L 89.3,170.0 L 89.2,169.3 L 88.3,168.3 L 87.1,168.0 L 86.8,167.8 L 86.4,167.5 L 85.4,166.6 L 82.1,166.3 L 81.5,166.4 L 80.5,167.3 L 79.7,167.3 L 79.5,167.0 L 79.4,166.5 L 79.2,166.1 L 78.6,166.0 L 76.6,166.7 L 75.4,167.9 L 73.8,167.9 L 73.5,167.9 L 73.1,167.4 L 72.7,166.1 L 71.9,165.8 L 70.9,165.7 L 69.1,165.5 L 67.3,165.5 L 64.8,166.1 L 63.9,166.1 L 62.0,166.3 L 58.4,166.0 L 57.4,165.3 L 57.6,164.6 L 57.8,164.2 L 57.8,163.7 L 56.1,163.2 L 55.7,163.4 L 55.1,163.7 L 51.4,163.5 L 49.9,162.8 L 49.3,161.8 L 48.5,160.8 L 49.4,160.2 L 50.7,159.9 L 51.7,160.5 L 52.9,160.6 L 53.8,160.2 L 55.0,160.0 L 55.9,160.2 L 57.7,160.2 L 59.3,160.8 L 63.7,161.3 L 66.1,161.3 L 67.3,161.9 L 69.6,162.3 L 70.3,162.9 L 71.9,162.5 L 72.4,162.8 L 75.0,162.9 L 77.2,162.6 L 78.7,162.1 L 79.7,161.9 L 82.2,162.4 L 82.4,163.3 L 82.7,163.5 L 83.2,163.5 L 83.9,162.9 L 86.5,163.7 L 86.8,163.8 L 87.7,164.3 L 90.8,164.1 L 91.9,163.4 L 93.5,163.4 L 95.6,162.3 L 96.2,161.6 L 96.7,160.4 L 97.7,159.0 L 98.2,158.9 L 98.7,158.8 L 98.9,158.2 L 98.5,157.6 L 98.6,156.8 L 99.2,155.6 L 99.8,154.1 L 100.7,152.9 L 101.0,152.1 L 101.2,152.1 L 101.5,152.3 L 101.5,153.4 L 102.5,153.4 L 103.8,152.7 L 104.5,151.7 L 105.5,151.1 L 106.9,150.4 L 107.0,149.4 L 107.5,149.3 L 108.2,149.5 L 108.4,150.2 L 107.8,152.5 L 107.1,153.4 L 107.1,154.4 L 106.5,155.9 L 106.0,156.8 L 105.6,158.0 L 105.9,159.3 L 105.1,160.0 L 104.8,162.4 L 105.3,163.0 L 106.0,163.5 L 106.8,163.5 L 108.1,163.1 L 109.3,163.0 L 111.3,162.6 L 112.2,162.6 L 112.7,162.5 L 113.5,162.7 L 114.0,162.6 L 114.2,161.9 L 114.8,161.2 L 115.2,159.9 L 116.3,158.7 L 117.9,158.3 L 118.9,157.4 L 120.4,157.5 L 121.9,156.7 L 122.4,155.6 L 123.3,154.1 L 123.8,152.7 L 124.6,151.8 L 125.2,151.3 L 126.2,149.8 L 127.4,149.2 L 129.4,149.7 L 129.4,149.8 L 129.4,151.0 L 129.6,151.6 L 130.3,151.6 L 130.6,151.0 L 131.1,149.0 L 132.2,147.5 L 133.0,146.1 L 133.7,145.0 L 134.8,144.4 L 135.3,143.5 L 135.5,142.1 L 136.3,141.3 L 137.5,141.5 L 138.0,142.2 L 138.5,141.8 L 139.1,141.0 L 140.8,138.1 L 142.3,137.0 L 143.5,135.5 L 144.1,135.3 L 145.3,135.6 L 145.9,135.4 L 146.7,135.5 L 147.2,135.2 L 147.6,134.8 L 148.2,134.7 L 148.7,134.0 L 148.6,132.7 L 148.7,132.1 L 151.2,129.6 L 151.6,129.0 L 152.6,128.9 L 154.3,127.0 L 155.3,124.8 L 155.4,122.7 L 155.7,122.3 L 155.3,121.8 L 155.5,120.9 L 156.2,120.1 L 156.5,119.2 L 157.2,118.6 L 158.2,118.4 L 158.6,117.5 L 159.0,116.0 L 159.7,114.9 L 160.6,114.3 L 160.9,115.1 L 161.4,115.1 L 162.1,114.2 L 163.4,113.3 L 164.1,113.7 L 164.5,113.6 L 165.1,112.9 L 165.7,112.7 L 166.2,112.2 L 167.6,112.4 L 168.7,111.2 L 171.3,107.3 L 171.4,106.2 L 172.1,106.1 L 172.3,106.2 L 172.4,106.7 L 172.4,107.0 L 173.2,107.6 L 173.3,107.5 L 173.5,107.6 L 174.0,107.5 L 174.2,107.3 L 174.8,107.2 L 174.8,107.3 L 175.2,107.3 L 177.6,106.0 L 179.5,103.5 L 180.0,102.5 L 179.5,101.1 L 178.7,101.0 L 179.3,102.3 L 178.8,103.6 L 176.9,105.7 L 175.9,105.9 L 175.6,106.1 L 175.6,106.7 L 174.6,106.5 L 174.3,106.3 L 174.2,106.0 L 174.7,104.8 L 175.0,103.6 L 174.0,102.3 L 173.2,102.3 L 172.9,102.2 L 173.0,101.1 L 174.1,100.5 L 174.6,99.9 L 175.4,99.6 L 175.9,99.3 L 175.8,96.1 L 176.1,95.3 L 177.1,94.9 L 177.5,95.3 L 177.9,95.2 L 178.2,94.8 L 178.3,94.3 L 179.6,93.2 L 180.0,92.4 L 180.5,92.4 L 180.5,94.4 L 181.1,94.8 L 181.7,94.8 L 182.8,94.2 L 183.0,93.1 L 183.6,92.6 L 183.9,91.6 L 183.7,90.5 L 183.5,90.4 L 183.3,90.1 L 184.6,89.5 L 185.0,89.3 L 184.8,90.5 L 185.3,91.0 L 186.1,91.0 L 186.5,90.7 L 187.0,90.6 L 187.4,89.1 L 188.2,87.8 L 196.8,83.6 L 197.0,83.5 L 197.2,83.9 L 197.6,83.7 L 197.8,83.3 L 198.1,83.3 L 198.7,84.5 L 199.5,84.8 L 200.3,84.7 L 201.4,83.9 L 202.0,83.7 L 202.4,84.3 L 203.1,84.3 L 204.6,83.7 L 205.3,83.2 L 205.7,83.4 L 206.1,83.8 L 207.8,84.0 L 209.6,82.8 L 211.2,82.1 L 213.8,80.0 L 214.2,79.9 L 215.1,78.3 L 215.7,76.6 L 215.9,75.9 L 216.6,75.2 L 217.0,73.8 L 217.2,73.1 L 217.2,72.0 L 217.1,70.4 L 215.0,66.4 L 214.5,65.1 L 213.3,63.9 L 212.4,64.0 L 212.2,63.4 L 212.3,63.4 L 219.6,62.3 L 220.0,62.2 L 219.7,64.3 L 220.2,65.4 L 220.3,67.5 L 220.7,68.1 L 221.2,68.0 L 221.6,67.2 L 222.2,66.6 L 223.7,66.7 L 224.5,66.0 L 225.1,66.1 L 225.2,66.6 L 224.8,67.5 L 224.7,68.6 L 226.1,70.6 L 226.8,70.5 L 227.3,70.3 L 227.8,70.5 L 229.0,69.5 L 229.2,70.0 L 229.4,70.7 L 228.9,71.3 L 229.2,72.0 L 230.2,72.2 L 230.5,72.9 L 231.7,73.4 L 232.5,73.2 L 232.8,72.8 L 232.9,72.0 L 233.5,70.3 L 233.7,70.2 L 233.8,71.1 L 234.0,71.8 L 234.5,71.7 L 234.8,69.1 L 234.7,68.1 L 234.9,66.6 L 235.8,65.9 L 236.3,64.6 L 236.1,64.4 L 235.4,64.7 L 234.9,64.6 L 234.2,64.0 L 233.3,64.3 L 232.9,64.1 L 233.0,64.1 L 234.0,63.6 L 273.8,43.8 L 274.3,44.0 L 275.2,44.0 L 276.1,43.4 L 277.0,42.6 L 277.6,42.0 L 278.5,41.6 L 278.9,40.7 L 279.3,40.7 L 279.9,41.3 L 280.3,41.2 L 280.5,40.2 L 280.8,40.0 L 282.1,40.9 L 283.4,41.9 L 283.8,42.3 L 283.7,43.0 L 282.6,43.3 L 282.5,44.3 L 282.8,44.6 L 283.3,44.8 L 283.4,46.3 L 284.5,46.3 L 284.8,46.0 L 284.9,44.7 L 285.2,44.6 L 286.0,45.0 L 286.2,46.3 L 287.3,46.2 L 287.8,45.7 L 288.1,45.0 L 289.2,45.7 L 289.4,46.2 L 289.2,46.5 L 288.7,47.0 L 288.5,47.9 L 288.6,48.0 L 288.6,48.8 L 288.4,49.1 L 286.5,51.6 L 286.4,52.6 L 286.6,54.7 L 287.7,55.4 L 288.7,55.4 L 289.3,54.1 L 290.0,54.2 L 290.2,54.4 L 290.3,54.7 L 290.0,55.3 L 288.5,57.4 L 287.5,58.3 L 287.0,59.4 L 287.2,59.8 L 289.3,60.3 L 290.6,60.4 L 291.6,60.3 L 292.7,59.2 L 294.0,58.2 L 297.4,58.2 L 298.7,57.8 L 300.3,57.0 L 301.6,56.9 L 302.3,57.0 L 302.2,57.8 L 301.5,58.1 L 299.6,59.6 L 298.2,60.5 L 292.8,61.2 L 291.1,61.9 L 288.6,64.0 L 286.0,65.2 L 283.7,66.6 L 281.6,67.7 L 279.4,69.6 L 278.7,70.7 L 277.1,72.3 L 276.8,73.7 L 276.4,74.1 L 273.9,74.9 L 273.4,75.2 L 273.2,75.6 L 273.4,77.2 L 273.8,77.7 L 274.7,78.0 L 275.1,78.2 L 275.1,80.4 L 275.6,80.9 L 276.7,81.1 L 277.1,81.3 L 276.7,82.1 L 275.9,82.8 L 274.7,83.2 L 272.9,83.2 L 272.1,82.9 L 271.2,83.4 L 266.7,84.1 L 265.6,85.8 L 264.0,86.7 L 261.8,86.9 L 260.7,87.8 L 260.6,89.3 L 262.2,91.2 L 264.1,92.4 L 265.6,93.6 L 265.9,94.3 L 264.9,95.2 L 264.8,95.2 L 262.6,93.3 L 261.7,93.1 L 261.1,93.5 L 260.9,94.4 L 261.0,95.4 L 261.7,96.6 L 262.0,97.2 L 261.7,98.0 L 260.9,98.1 L 260.3,97.4 L 259.8,95.9 L 259.1,94.7 L 259.0,92.6 L 258.6,91.2 L 257.9,90.0 L 257.5,89.9 L 256.8,90.2 L 255.2,90.1 L 253.3,91.4 L 252.9,91.9 L 253.3,93.3 L 253.0,93.7 L 252.1,93.4 L 251.7,93.7 L 250.7,94.3 L 250.5,94.8 L 251.6,95.8 L 253.1,95.2 L 253.5,95.4 L 254.0,96.0 L 254.0,97.4 L 254.3,98.2 L 256.0,100.3 L 256.5,101.7 L 256.6,103.3 L 257.2,103.6 L 257.5,105.1 L 258.1,105.8 L 260.2,107.3 L 262.6,107.4 L 263.4,107.4 L 265.9,107.4 L 267.4,106.4 L 268.4,106.4 L 268.5,105.7 L 269.6,106.3 L 270.8,106.3 L 271.6,105.6 L 271.7,104.7 L 271.3,103.5 L 270.6,102.8 L 269.1,102.2 L 268.3,101.5 L 267.8,99.8 L 265.2,97.2 L 265.4,96.8 L 265.7,96.5 L 266.7,97.3 L 268.4,97.4 L 268.8,96.8 L 269.3,95.7 L 269.9,95.4 L 270.3,95.7 L 271.0,95.7 L 271.9,95.2 L 271.8,94.8 L 271.4,94.4 L 271.5,93.4 L 272.5,92.3 L 273.2,92.2 L 274.2,92.3 L 274.3,92.5 L 274.3,93.8 L 274.8,95.3 L 274.8,96.3 L 272.8,98.0 L 271.9,99.3 L 271.7,99.4 L 270.9,99.4 L 270.7,100.2 L 270.8,100.8 L 273.0,103.0 L 273.4,104.7 L 274.6,106.7 L 275.9,107.2 L 277.1,107.1 L 278.2,106.2 L 278.8,105.5 L 279.4,105.7 L 280.4,106.4 L 281.7,106.4 L 285.8,105.4 L 288.5,105.4 L 288.7,105.5 L 289.3,105.4 L 290.8,104.8 L 293.3,104.7 L 295.2,104.0 L 300.4,103.4 L 302.4,102.7 L 304.3,102.6 L 305.4,102.5 L 306.3,102.1 L 308.4,103.5 L 306.4,103.8 L 304.8,104.4 L 302.9,104.6 L 302.1,105.3 L 302.0,105.9 L 302.8,106.6 L 303.6,106.6 L 304.3,106.5 L 305.5,106.7 L 306.2,107.3 L 306.4,107.7 L 305.6,108.8 L 304.2,109.4 L 302.6,109.6 L 301.5,110.5 L 301.4,112.4 L 302.1,113.1 L 302.5,112.9 L 303.4,112.4 L 303.6,112.7 L 303.7,113.8 L 305.1,115.6 L 304.3,116.2 L 304.1,116.8 L 304.7,117.1 L 307.4,118.7 L 308.2,119.7 L 309.2,119.9 L 310.2,119.6 L 312.6,119.8 L 313.6,120.4 L 313.6,120.9 L 311.8,122.1 L 310.2,122.7 L 308.7,124.5 L 307.0,123.2 L 306.0,122.6 L 304.9,122.2 L 304.3,121.3 L 304.1,120.8 L 303.8,120.4 L 302.3,120.3 L 301.4,120.6 L 301.0,120.6 L 300.3,120.1 L 299.7,120.3 L 299.5,121.5 L 297.6,123.4 L 297.3,125.0 L 294.5,124.7 L 293.0,124.4 L 290.9,124.6 L 290.3,125.0 L 289.6,126.1 L 288.6,126.1 L 285.7,124.9 L 283.3,125.3 L 282.2,126.0 L 281.4,126.9 L 281.2,128.6 L 282.1,129.4 L 284.1,129.8 L 284.3,130.4 L 283.8,130.8 L 281.7,131.2 L 281.4,131.6 L 285.9,136.9 L 286.4,137.1 L 286.7,137.5 L 286.2,137.9 L 285.1,138.4 L 283.3,138.5 L 281.8,138.0 L 280.3,136.9 L 279.8,137.2 L 279.7,138.0 L 279.9,138.9 L 279.6,139.3 L 279.0,139.4 L 276.7,137.8 L 275.1,137.5 L 273.5,137.7 L 269.8,138.3 L 267.9,138.9 L 265.2,140.4 L 264.5,140.9 L 264.2,141.0 L 263.6,141.0 L 263.2,140.0 L 263.5,139.4 L 264.2,139.0 L 265.4,138.7 L 266.1,137.8 L 266.7,136.1 L 266.4,135.5 L 266.1,135.2 L 264.9,135.1 L 263.0,135.8 L 261.8,135.8 L 260.7,135.9 L 259.4,136.3 L 258.0,136.3 L 257.7,135.5 L 257.9,135.1 L 258.7,134.7 L 259.7,134.3 L 260.7,133.5 L 260.9,133.5 L 263.0,133.7 L 264.0,133.4 L 265.3,133.4 L 265.8,132.6 L 266.6,130.9 L 265.8,128.3 L 264.9,127.5 L 262.7,127.0 L 261.6,127.0 L 261.5,127.0 L 260.4,127.9 L 259.3,128.0 L 258.3,128.5 L 257.6,128.5 L 256.9,127.8 L 257.0,126.7 L 258.5,126.6 L 259.1,125.3 L 258.9,124.4 L 258.2,123.4 L 258.4,122.7 L 259.4,122.7 L 261.0,123.3 L 261.9,123.3 L 265.3,123.3 L 267.6,124.1 L 269.2,124.2 L 270.2,123.6 L 270.5,123.0 L 270.5,122.3 L 270.4,121.6 L 271.3,120.6 L 271.4,119.9 L 274.0,116.8 L 274.5,115.8 L 275.1,116.3 L 275.6,116.3 L 275.5,115.5 L 274.9,115.1 L 274.5,115.4 L 273.6,113.9 L 272.4,112.7 L 269.9,111.2 L 266.3,109.6 L 264.2,108.8 L 263.3,108.7 L 261.6,108.5 L 259.9,108.8 L 258.8,108.8 L 257.9,108.9 L 257.7,109.3 L 258.4,110.2 L 257.4,111.0 L 255.8,111.1 L 254.7,110.8 L 253.5,110.7 L 253.3,110.0 L 253.8,109.4 L 253.3,108.0 L 252.5,107.5 L 251.9,106.8 L 251.8,106.2 L 250.7,105.6 L 249.7,105.5 L 248.9,105.0 L 245.7,101.7 L 244.3,101.3 L 243.7,100.7 L 242.4,100.5 L 241.4,100.8 L 240.2,101.8 L 239.2,101.8 L 239.0,102.5 L 239.7,103.1 L 239.9,104.1 L 239.5,104.4 L 239.0,104.4 L 237.9,104.0 L 238.0,103.8 L 237.6,103.4 L 236.8,103.5 L 236.5,105.3 L 238.0,105.7 L 238.0,106.2 L 236.7,107.3 L 236.3,107.8 L 235.2,108.7 L 235.0,109.8 L 236.5,111.7 L 237.1,112.0 L 238.8,111.8 L 239.5,112.6 L 241.1,112.9 L 241.9,113.1 L 243.4,112.8 L 247.2,112.7 L 247.4,113.0 L 247.2,113.6 L 246.6,113.8 L 246.2,114.1 L 245.8,114.7 L 245.7,115.6 L 246.0,116.0 L 246.1,116.9 L 246.8,117.8 L 246.4,118.5 L 246.0,118.6 L 245.8,118.3 L 244.8,117.5 L 243.2,117.8 L 242.3,118.1 L 240.8,119.5 L 239.8,119.8 L 238.3,119.8 L 237.6,120.3 L 237.3,121.1 L 237.4,122.5 L 238.3,124.0 L 239.4,124.8 L 240.2,124.8 L 241.7,124.2 L 241.8,123.6 L 243.6,123.6 L 245.5,125.1 L 246.8,125.7 L 246.9,126.4 L 246.4,127.3 L 245.8,127.5 L 244.9,128.1 L 244.7,129.7 L 242.7,129.3 L 241.8,129.7 L 238.8,129.6 L 238.3,130.1 L 238.2,130.6 L 238.9,131.7 L 240.1,132.0 L 243.6,132.5 L 244.6,133.0 L 245.3,132.8 L 245.5,133.0 L 245.4,133.7 L 244.6,133.7 L 243.9,134.0 L 243.9,134.6 L 245.4,135.4 L 246.4,135.4 L 246.6,134.6 L 247.2,134.2 L 248.3,134.0 L 249.9,132.9 L 249.7,132.0 L 250.2,131.8 L 251.4,132.2 L 252.2,132.7 L 252.3,133.3 L 252.9,133.4 L 253.4,132.8 L 253.7,132.1 L 254.5,130.5 L 255.0,130.1 L 255.5,130.1 L 256.2,130.4 L 257.2,131.3 L 258.1,131.3 L 258.7,131.0 L 259.0,130.6 L 259.4,130.5 L 259.7,130.5 L 260.0,130.7 L 260.2,131.1 L 259.9,131.9 L 260.0,132.9 L 259.0,132.8 L 258.1,132.5 L 257.2,132.7 L 256.5,133.4 L 256.3,134.3 L 255.0,135.1 L 254.0,135.6 L 252.8,135.5 L 252.2,134.8 L 251.5,135.6 L 250.1,135.5 L 249.2,136.0 L 248.2,137.0 L 248.5,137.8 L 248.3,138.3 L 245.9,138.2 L 245.5,138.7 L 245.8,139.0 L 245.6,140.1 L 247.1,141.9 L 248.4,142.5 L 248.3,143.3 L 249.2,143.7 L 249.7,144.2 L 251.2,144.5 L 251.8,144.3 L 252.2,144.5 L 252.3,145.1 L 252.4,145.8 L 253.8,147.3 L 254.6,147.5 L 255.6,148.4 L 256.0,148.7 L 256.7,149.8 L 256.8,150.2 L 256.2,150.3 L 253.8,149.4 L 252.1,148.9 L 250.4,149.1 L 250.4,147.9 L 250.5,147.1 L 249.7,145.9 L 248.6,144.7 L 247.8,143.9 L 246.4,143.1 L 245.0,142.9 L 243.7,143.4 L 241.5,143.6 L 240.5,143.9 L 239.7,144.2 L 237.3,144.2 L 236.8,144.5 L 236.7,145.3 L 235.5,145.7 L 234.4,146.3 L 233.4,146.8 L 231.7,148.5 L 227.1,150.4 L 225.2,152.1 L 224.5,152.3 L 224.2,151.9 L 223.6,151.6 L 221.7,151.9 L 221.0,151.6 L 220.3,151.8 L 220.7,152.8 L 220.0,153.8 L 219.8,154.7 L 221.5,155.0 L 222.8,155.3 L 222.9,155.8 L 222.5,156.3 L 221.8,157.7 L 222.1,158.4 L 222.8,158.5 L 222.9,159.0 L 222.3,159.7 L 222.3,160.4 L 224.2,161.1 L 224.8,161.6 L 224.8,162.6 L 224.9,163.4 L 226.9,164.9 L 227.1,165.6 L 227.0,165.7 L 226.3,165.7 L 225.1,165.1 L 222.6,163.3 L 221.9,162.6 L 221.1,162.4 L 220.4,163.3 L 219.5,165.0 L 220.3,165.8 L 220.0,166.4 L 220.4,166.8 L 220.8,167.8 L 221.5,169.0 L 221.2,169.4 L 218.3,169.3 L 217.3,169.4 L 216.3,170.1 L 216.3,170.7 L 216.9,171.4 L 215.7,172.2 L 215.5,173.0 L 214.7,173.4 L 214.3,174.0 L 211.3,176.4 L 210.7,177.8 L 209.3,178.7 L 207.6,180.4 L 206.9,180.6 L 206.7,180.6 L 206.4,182.0 L 206.0,182.0 L 205.6,181.6 L 203.4,181.3 L 202.7,181.6 L 202.0,182.6 L 201.3,182.7 L 201.1,184.0 L 201.2,184.7 L 201.9,184.9 L 202.5,184.5 L 204.0,186.4 L 203.9,188.3 L 204.6,190.6 L 205.7,191.0 L 206.0,191.0 L 207.8,190.6 L 210.8,190.8 L 212.0,190.9 L 212.6,190.5 L 214.0,190.8 L 214.9,191.2 L 216.2,191.3 L 217.4,190.0 L 217.6,189.6 L 219.3,187.7 L 222.1,187.9 L 222.8,187.1 L 223.1,186.3 L 223.5,186.1 L 224.5,186.1 L 225.5,185.6 L 226.0,185.7 L 226.5,186.1 L 227.2,187.2 L 227.8,187.2 L 228.8,186.5 L 229.6,185.3 L 230.2,184.6 L 231.9,184.2 L 232.9,183.0 L 234.4,183.0 L 235.1,182.7 L 235.4,181.9 L 235.5,180.6 L 237.3,178.2 L 237.7,178.0 L 238.6,178.4 L 240.6,179.0 L 241.0,179.9 L 242.3,180.1 L 242.3,181.2 L 242.7,181.4 L 243.3,181.9 L 244.5,182.7 L 245.3,183.7 L 245.9,183.6 L 246.9,183.1 L 248.1,183.2 L 248.3,183.5 L 248.3,183.7 L 248.0,184.0 L 246.8,184.7 L 244.1,184.9 L 240.2,184.6 L 237.5,185.9 L 236.7,186.8 L 235.1,187.7 L 234.1,187.9 L 232.9,188.7 L 231.3,188.7 L 230.2,189.0 L 229.3,190.2 L 228.4,191.0 L 226.3,193.3 L 225.5,193.6 L 224.5,194.6 L 223.4,194.3 L 222.9,194.8 L 222.4,194.8 L 221.1,195.9 L 220.5,198.1 L 219.7,198.7 L 218.6,198.7 L 216.1,197.7 L 215.2,197.7 L 214.4,197.3 L 213.6,197.1 L 212.8,197.2 L 211.6,198.2 L 211.0,198.5 L 210.2,198.2 L 208.3,197.9 L 207.9,197.3 L 205.9,197.1 L 205.4,197.2 L 205.0,197.2 L 204.0,197.2 L 203.0,198.6 L 202.8,199.2 L 203.0,201.1 L 203.6,202.1 L 204.8,202.6 L 204.9,202.7 L 205.4,203.4 L 206.3,203.8 L 206.8,204.6 L 207.6,204.6 L 208.3,204.4 L 208.7,204.5 L 209.0,205.8 L 210.5,207.0 L 212.5,207.3 L 212.7,208.3 L 215.4,208.7 L 216.7,208.2 L 218.3,208.3 L 219.3,208.9 L 219.9,209.1 L 220.7,208.5 L 222.0,208.5 L 223.2,208.8 L 224.2,209.5 L 225.9,211.2 L 227.3,212.0 L 230.4,212.8 L 230.4,213.5 L 230.1,213.9 L 230.7,214.3 L 231.4,214.5 L 231.9,214.9 L 234.3,215.1 L 235.0,215.6 L 239.3,215.9 L 239.9,215.8 L 240.8,214.7 L 240.7,214.0 L 241.3,213.8 L 241.5,214.0 L 243.5,215.1 L 243.4,215.8 L 243.6,216.3 L 244.3,216.3 L 245.3,216.7 L 246.5,216.6 L 246.7,216.5 L 248.0,215.6 L 253.2,216.1 L 253.7,217.6 L 254.2,218.5 L 255.0,220.1 L 255.6,220.8 L 256.9,221.4 L 259.2,221.0 L 260.0,221.4 L 261.7,222.5 L 262.6,223.6 L 264.0,224.5 L 267.3,224.9 L 270.4,225.8 L 274.7,225.8 L 276.1,225.5 L 277.5,225.7 L 278.7,226.2 L 281.3,226.3 L 282.3,226.2 L 285.1,226.2 L 286.4,226.5 L 286.5,226.7 L 288.2,227.2 L 289.1,227.1 L 290.4,226.6 L 292.5,226.3 L 293.6,225.9 L 295.7,225.8 L 296.3,226.0 L 296.5,226.2 L 297.6,228.0 L 297.6,229.1 L 298.3,230.3 L 300.2,231.8 L 301.5,232.5 L 303.2,232.5 L 304.9,232.2 L 305.5,232.4 L 306.8,233.9 L 308.7,234.6 L 313.9,235.2 L 314.5,235.8 L 315.7,235.5 L 316.9,235.7 L 320.6,235.6 L 321.1,236.1 L 321.1,236.3 L 322.4,236.7 L 322.7,237.4 L 323.3,237.4 L 323.3,237.4 L 324.5,236.9 L 325.4,236.8 L 326.0,237.4 L 327.4,237.7 L 328.6,239.0 L 329.4,239.5 L 331.2,239.6 L 333.3,239.1 L 334.2,238.0 L 335.6,237.5 L 336.9,237.5 L 338.2,236.2 L 340.6,235.5 L 343.4,235.8 L 344.5,236.1 L 345.4,235.4 L 345.7,234.4 L 345.8,232.9 L 346.5,232.0 L 351.4,282.2 L 351.5,282.5 L 350.9,282.6 L 350.3,283.5 L 349.9,284.6 L 349.6,284.9 L 347.9,285.1 L 345.3,284.1 L 344.1,284.2 L 342.7,283.5 L 341.4,283.1 L 340.9,283.3 L 340.0,283.2 L 338.5,283.2 L 337.4,284.1 L 337.0,284.3 L 336.4,284.0 L 335.4,284.3 L 334.8,285.2 L 334.8,286.1 L 336.0,286.7 L 336.2,287.7 L 336.6,288.2 L 336.5,288.6 L 335.8,288.6 L 334.7,287.5 L 333.6,287.1 L 332.6,287.2 L 331.3,286.3 L 329.5,286.1 L 328.5,285.2 L 328.4,284.5 L 326.9,284.3 L 326.3,284.0 L 324.8,284.5 L 324.6,284.3 L 324.7,283.5 L 324.2,283.2 L 324.0,283.2 L 323.2,283.8 L 322.9,285.0 L 322.0,284.9 L 321.0,285.5 L 320.9,286.7 L 322.4,287.0 L 322.7,287.5 L 322.5,288.0 L 322.0,288.2 L 320.3,289.5 L 320.1,290.3 L 320.4,290.9 L 320.5,291.7 L 321.0,292.7 L 320.9,293.8 L 320.0,294.5 L 318.6,294.6 L 318.0,293.9 L 318.0,293.8 L 318.1,292.6 L 318.1,292.5 L 318.4,292.0 L 318.2,291.3 L 318.2,291.2 L 318.3,291.2 L 318.6,290.8 L 318.5,290.1 L 318.4,290.0 L 317.7,289.1 L 317.8,288.3 L 317.6,287.7 L 316.8,287.5 L 316.0,288.0 L 314.0,287.8 L 313.5,287.4 L 312.8,287.2 L 312.4,287.5 L 311.8,287.5 L 310.8,286.7 L 310.2,286.6 L 310.1,287.4 L 309.5,288.0 L 309.1,288.8 L 308.2,289.5 L 306.7,289.6 L 306.5,290.0 L 305.7,290.1 L 305.5,290.4 L 304.4,290.8 L 304.1,292.2 L 304.5,293.5 L 304.7,294.5 L 307.8,298.3 L 307.7,299.3 L 308.3,300.3 L 309.6,301.6 L 310.4,303.0 L 311.9,304.2 L 312.6,305.6 L 313.2,306.6 L 316.1,308.5 L 316.6,308.8 L 317.3,309.4 L 320.1,311.1 L 321.7,311.5 L 323.2,312.2 L 323.7,312.9 L 323.8,313.8 L 323.4,314.5 L 324.0,315.2 L 323.9,315.4 L 322.8,315.4 L 320.2,313.0 L 318.1,312.0 L 317.4,311.4 L 316.4,310.3 L 316.0,309.8 L 315.0,309.4 L 313.7,309.4 L 312.0,309.8 L 310.0,308.6 L 308.6,307.1 L 308.1,306.5 L 304.2,304.7 L 302.9,304.8 L 302.4,304.2 L 302.4,303.8 L 301.0,302.7 L 299.9,301.5 L 299.2,300.6 L 298.5,300.4 L 298.1,299.9 L 298.3,298.7 L 297.7,298.1 L 296.4,297.4 L 295.6,297.4 L 294.7,298.2 L 294.5,298.1 L 294.2,297.4 L 293.3,297.1 L 291.5,297.7 L 291.0,297.9 L 290.6,295.7 L 291.5,294.6 L 291.7,293.8 L 291.6,293.4 L 290.9,293.0 L 289.7,293.0 L 288.6,291.0 L 287.9,290.2 L 286.7,289.5 L 286.4,289.2 L 285.7,289.0 L 284.9,289.4 L 284.3,289.4 L 283.6,289.7 L 282.8,289.8 L 282.8,288.8 L 282.0,288.2 L 282.2,287.5 L 283.1,286.6 L 283.1,286.0 L 282.3,285.8 L 282.2,282.7 L 281.8,281.6 L 280.1,279.5 L 277.9,278.5 L 274.1,278.2 L 273.9,278.0 L 272.3,277.8 L 271.0,278.1 L 269.9,278.1 L 269.4,277.8 L 268.4,277.8 L 268.0,277.5 L 266.3,277.5 L 265.4,276.6 L 264.7,275.9 L 262.8,275.1 L 261.6,274.9 L 261.1,274.5 L 260.9,273.8 L 261.1,271.4 L 261.7,270.9 L 262.0,270.2 L 261.6,269.6 L 260.1,268.2 L 259.4,268.0 L 258.7,268.2 L 257.9,269.2 L 257.7,270.0 L 258.0,271.0 L 258.0,271.6 L 256.9,271.5 L 255.4,270.8 L 252.3,270.6 L 250.5,270.7 L 249.9,271.1 L 248.0,272.6 L 247.9,272.5 L 246.3,271.9 L 246.0,272.7 L 245.2,273.5 L 245.0,274.0 L 244.7,274.4 L 243.1,274.7 L 242.8,275.1 L 242.1,275.7 L 240.6,276.6 L 240.0,276.8 L 238.9,275.5 L 238.2,275.2 L 237.0,275.3 L 235.6,275.6 L 234.8,276.2 L 233.6,276.1 L 231.9,276.7 L 230.7,277.4 L 230.5,278.2 L 230.2,278.6 L 229.5,278.1 L 229.2,278.4 L 229.0,279.1 L 229.5,279.8 L 230.5,279.7 L 230.7,281.1 L 230.6,282.5 L 230.3,283.1 L 229.7,283.5 L 229.6,284.3 L 229.9,285.2 L 229.9,286.2 L 229.0,286.6 L 227.6,286.6 L 226.5,286.1 L 224.0,285.5 L 223.2,285.4 L 223.8,284.5 L 223.3,283.7 L 222.5,283.3 L 221.7,282.7 L 221.8,281.6 L 220.7,281.5 L 220.6,281.9 L 219.8,282.6 L 219.0,282.6 L 218.7,281.8 L 217.8,281.7 L 216.4,282.2 L 215.6,282.6 L 215.5,283.5 L 215.0,284.1 L 213.2,284.1 L 212.7,282.5 L 211.7,280.5 L 210.5,280.0 L 209.5,280.0 L 209.2,281.1 L 208.7,281.9 L 208.1,281.9 L 207.8,280.9 L 207.1,280.8 L 206.6,279.7 L 206.3,279.3 L 205.7,279.3 L 203.3,280.5 L 202.3,281.5 L 201.8,282.4 L 201.5,284.8 L 201.8,286.3 L 202.5,286.8 L 204.2,287.1 L 204.6,288.6 L 203.8,289.4 L 203.0,289.5 L 202.8,289.1 L 201.4,287.5 L 199.3,289.1 L 196.5,291.7 L 195.7,292.4 L 193.8,293.6 L 193.7,294.4 L 194.3,294.9 L 196.0,295.4 L 196.1,295.6 L 196.5,296.3 L 197.1,296.5 L 197.7,295.9 L 198.3,296.0 L 199.2,295.9 L 199.4,296.2 L 198.8,297.4 L 198.7,298.3 L 198.1,300.8 L 196.5,301.6 L 195.5,302.3 L 194.5,303.0 L 194.3,304.9 L 194.5,305.6 L 194.6,306.3 L 195.1,306.7 L 195.3,306.9 L 195.4,307.3 L 195.0,307.6 L 194.7,307.8 L 194.2,308.5 L 193.4,309.2 L 191.9,309.5 L 191.5,310.2 L 191.2,310.6 L 190.1,310.7 L 189.8,311.8 L 189.0,312.7 L 188.4,313.7 L 187.6,314.3 L 186.3,316.4 L 185.8,316.4 L 183.9,316.9 L 181.6,318.0 L 181.1,318.8 L 180.2,319.7 L 179.6,321.7 L 178.8,321.8 L 177.6,322.6 L 176.3,322.3 L 175.8,322.5 L 175.7,323.3 L 175.9,324.0 L 176.6,324.1 L 177.2,324.5 L 177.4,325.1 L 178.4,326.1 L 179.6,326.1 L 180.8,326.9 L 180.7,327.3 L 178.2,327.2 L 177.6,327.6 L 177.5,328.4 L 177.2,329.2 L 176.7,329.2 L 176.3,328.9 L 175.1,328.9 L 174.0,330.0 L 173.8,330.8 L 173.9,331.5 L 173.9,332.6 L 174.3,333.3 L 176.0,333.7 L 176.9,333.7 L 177.7,333.5 L 181.2,333.7 L 181.8,334.6 L 181.5,335.2 L 180.1,335.9 L 179.9,336.5 L 180.7,337.5 L 180.5,339.1 L 180.7,339.7 L 183.1,340.0 L 183.3,340.6 L 182.6,341.5 L 182.7,343.9 L 182.6,344.5 L 181.7,345.1 L 180.8,345.3 L 179.2,345.7 L 178.2,346.1 L 176.0,346.0 L 174.6,346.3 L 173.0,346.1 L 170.6,346.6 L 167.1,349.4 L 167.0,350.7 L 166.2,352.5 L 166.2,355.0 L 164.8,356.1 L 164.2,357.6 L 162.3,359.6 L 161.9,359.7 L 161.9,358.8 L 161.2,358.7 L 160.6,359.4 L 160.8,357.3 L 161.4,355.8 L 161.7,352.6 L 161.0,351.3 L 161.0,350.3 L 160.5,349.2 L 159.7,348.6 L 158.5,348.1 L 157.7,348.4 L 157.2,348.3 L 156.6,347.9 L 155.7,347.7 L 154.6,346.5 L 152.5,346.3 L 150.9,346.9 L 149.6,347.1 L 147.7,348.6 L 147.1,349.5 L 145.7,350.4 L 144.2,350.5 L 143.2,351.1 L 142.4,351.4 L 140.7,351.5 L 140.1,350.7 L 137.8,348.5 L 137.7,347.9 L 137.8,347.5 L 138.6,347.2 L 139.4,346.8 L 139.9,345.9 L 140.3,345.3 L 141.1,345.5 L 141.5,345.9 L 142.3,345.9 L 142.9,345.7 L 143.5,346.1 L 144.0,346.8 L 143.6,347.7 L 143.9,348.3 L 145.2,348.4 L 146.4,348.2 L 147.3,347.7 L 148.9,346.5 L 152.0,344.5 L 153.1,344.1 L 155.0,343.1 L 155.8,342.7 L 157.1,341.7 L 157.9,340.7 L 157.6,339.9 L 158.2,338.4 L 158.4,338.0 L 159.3,337.6 L 159.4,336.6 L 159.1,335.5 L 158.2,335.3 L 157.6,335.5 L 157.0,335.6 L 156.8,334.3 L 155.4,332.6 L 155.0,332.2 L 154.8,331.3 L 154.5,330.6 L 153.8,330.5 L 153.2,330.9 L 152.0,331.0 L 150.5,330.9 L 149.7,330.4 L 146.1,330.0 L 144.6,329.6 L 144.0,330.0 L 143.2,329.9 L 142.4,330.1 L 141.5,330.7 L 140.7,332.1 L 140.3,334.7 L 140.5,337.5 L 141.6,339.9 L 141.8,340.0 L 142.1,340.8 L 141.5,342.1 L 140.4,343.0 L 138.7,341.9 L 137.4,342.0 L 135.3,342.8 L 134.1,344.2 L 132.2,345.1 L 131.7,345.6 L 131.5,346.4 L 131.1,347.0 L 130.2,347.0 L 129.3,347.5 L 129.2,348.1 L 130.3,348.4 L 130.3,348.8 L 129.7,349.3 L 128.9,349.5 L 128.1,350.0 L 127.5,351.0 L 127.2,351.2 L 126.7,351.4 L 125.6,351.7 L 123.5,351.4 L 122.7,351.2 L 120.5,351.2 L 120.5,350.7 L 122.2,350.4 L 122.5,349.9 L 122.1,349.4 L 121.2,349.2 L 121.1,348.2 L 120.8,347.8 L 119.7,346.8 L 118.9,346.7 L 117.9,345.7 L 116.8,345.6 L 116.5,346.0 L 115.1,346.5 L 115.0,347.6 L 115.4,348.3 L 116.2,348.7 L 116.7,351.1 L 117.2,351.7 L 117.0,352.2 L 115.3,353.3 L 113.4,353.0 L 112.3,353.1 L 108.8,354.9 L 106.9,355.5 L 105.9,355.5 L 105.2,356.4 L 104.9,357.6 L 101.6,360.0 L 101.1,360.0 L 100.7,358.5 L 100.1,357.6 L 100.3,357.0 L 100.6,356.4 L 100.3,355.1 L 99.1,353.8 L 96.7,353.6 L 96.0,353.1 L 95.7,352.5 L 95.3,352.3 L 95.6,351.6 L 95.4,350.7 L 95.0,349.7 L 93.9,349.4 L 93.6,348.9 L 93.7,347.9 L 94.1,347.8 L 93.9,347.1 L 92.7,346.8 L 92.1,346.9 L 91.2,347.0 L 91.0,346.5 L 91.6,345.7 L 92.8,344.5 L 93.4,344.3 L 93.7,344.5 L 93.4,346.0 L 93.6,346.4 L 94.7,346.3 L 95.6,345.5 L 96.7,343.1 L 96.9,342.1 L 98.0,341.2 L 98.9,341.2 L 99.0,341.5 L 98.8,342.3 L 99.2,342.7 L 100.2,342.6 L 100.8,342.0 L 101.5,339.0 L 103.2,337.8 L 104.0,336.5 L 104.4,335.1 L 104.8,334.7 L 105.4,334.6 L 105.8,334.0 L 106.5,333.7 L 107.2,333.5 L 108.5,332.5 L 108.9,332.7 L 110.4,332.7 L 111.1,332.8 L 112.6,332.1 L 113.8,332.1 L 114.5,331.4 L 117.1,331.3 L 118.1,330.1 L 118.3,329.4 L 119.1,328.7 L 120.3,326.5 L 120.3,325.6 L 120.1,324.7 L 120.2,324.3 L 119.7,323.2 L 120.0,321.2 L 121.2,320.1 L 122.0,318.3 L 122.3,317.9 L 122.7,316.5 L 122.8,316.1 L 123.5,314.7 L 123.7,312.5 L 123.5,311.5 L 123.4,310.3 L 123.1,309.9 L 122.7,309.8 L 121.9,309.9 L 119.5,309.6 L 118.5,310.4 L 117.8,310.9 L 116.5,311.1 L 115.8,311.5 L 115.1,311.5 L 114.8,311.3 L 113.0,311.2 L 112.5,311.3 L 111.9,310.9 L 111.6,309.9 L 112.2,309.1 L 112.1,307.8 L 111.7,307.5 L 111.6,307.0 L 111.4,305.5 L 111.0,303.9 L 109.9,302.7 L 108.6,301.8 L 107.3,300.9 L 106.2,299.7 L 105.9,298.8 L 104.5,298.1 L 104.0,297.7 L 104.3,297.4 L 105.5,297.1 L 107.3,296.4 L 108.6,296.6 L 110.0,297.2 L 111.6,298.7 L 113.0,299.3 L 114.6,299.6 L 114.9,299.9 L 115.3,300.3 L 115.9,300.3 L 116.2,300.0 L 117.7,299.9 L 119.1,300.1 L 120.6,300.5 L 120.8,300.1 L 120.5,298.5 L 119.0,298.5 L 118.1,298.9 L 117.3,299.0 L 115.8,298.8 L 114.9,298.3 L 115.0,297.8 L 116.0,296.6 L 117.2,295.6 L 118.1,295.2 L 118.8,294.7 L 119.2,294.6 L 120.2,295.0 L 120.1,295.8 L 120.2,296.3 L 120.6,296.4 L 121.4,295.7 L 121.6,295.1 L 121.0,294.1 L 121.5,293.0 L 122.7,292.4 L 123.1,292.1 L 123.2,291.5 L 122.2,289.9 L 122.4,288.9 L 123.9,287.3 L 124.2,285.2 L 124.9,284.6 L 125.4,284.5 L 125.6,284.2 L 125.7,283.3 L 126.5,282.7 L 128.1,282.9 L 128.9,283.6 L 129.1,284.1 L 130.0,285.1 L 132.7,285.4 L 134.2,285.9 L 135.0,286.4 L 136.5,286.9 L 137.4,286.9 L 138.1,286.2 L 140.1,285.2 L 140.4,284.2 L 140.6,283.1 L 140.4,282.5 L 141.2,281.4 L 141.2,280.5 L 140.7,279.7 L 140.3,279.2 L 140.3,278.4 L 140.6,277.6 L 140.7,276.4 L 141.7,276.2 L 142.7,276.4 L 143.0,277.2 L 143.5,276.7 L 143.6,275.7 L 143.3,274.5 L 142.4,273.4 L 140.0,271.6 L 139.8,271.2 L 139.9,270.9 L 141.8,271.0 L 142.1,270.4 L 142.3,268.8 L 141.8,267.9 L 141.1,267.1 L 140.9,266.4 L 141.8,265.4 L 142.5,265.4 L 143.1,266.0 L 143.5,265.9 L 144.1,264.8 L 145.0,264.5 L 145.4,263.5 L 144.9,262.7 L 144.1,262.2 L 144.3,261.7 L 144.9,261.0 L 145.0,259.0 L 146.1,258.2 L 146.1,257.4 L 145.8,257.0 L 144.0,257.1 L 143.4,256.5 L 143.0,256.2 L 141.6,256.0 L 141.2,255.6 L 140.9,252.1 L 139.6,250.4 L 139.3,249.4 L 138.8,249.0 L 138.4,247.2 L 137.9,246.8 L 135.3,246.1 L 135.0,246.2 L 134.5,246.8 L 132.9,246.5 L 131.7,246.0 L 129.7,245.8 L 129.4,245.3 L 129.6,244.7 L 131.9,244.3 L 132.2,243.7 L 132.1,243.1 L 131.2,241.6 L 130.5,241.2 L 130.1,240.5 L 127.8,240.3 L 127.1,240.9 L 126.5,241.6 L 126.6,243.1 L 127.2,244.1 L 126.9,246.3 L 125.4,247.1 L 124.0,247.0 L 122.6,245.7 L 122.8,244.4 L 123.8,243.8 L 124.4,243.7 L 124.5,242.1 L 124.7,241.9 L 125.1,241.4 L 125.4,241.3 L 125.4,240.5 L 124.5,240.0 L 123.0,239.4 L 122.8,239.2 L 122.8,238.8 L 122.6,238.3" fill="none" stroke="black" stroke-width="2"/>
</svg>