<?xml version="1.0" encoding="UTF-8"?>
<svg width="400" height="400" viewBox="0 0 400 400" xmlns="http://www.w3.org/2000/svg">
  <rect width="400" height="400" fill="white"/>
  <path d="M 237.6,306.4 L 239.2,304.6 L 240.6,303.3 L 241.0,299.9 L 242.4,297.0 L 241.3,294.6 L 240.0,293.0 L 236.7,291.0 L 233.3,290.4 L 231.4,289.3 L 230.0,287.7 L 228.4,284.9 L 226.7,284.5 L 224.0,282.2 L 223.2,280.0 L 222.3,278.9 L 222.0,273.0 L 221.2,270.6 L 219.1,267.3 L 218.9,264.6 L 219.3,259.8 L 219.8,257.8 L 220.6,255.9 L 220.7,253.7 L 219.7,251.6 L 216.6,248.4 L 215.7,246.4 L 213.2,243.0 L 212.5,240.8 L 212.9,236.3 L 214.4,232.7 L 215.6,226.8 L 215.2,225.9 L 214.4,225.3 L 211.4,224.3 L 209.0,223.1 L 201.8,216.7 L 201.2,214.7 L 201.3,212.9 L 201.9,211.5 L 203.4,205.9 L 203.5,201.0 L 203.7,197.0 L 202.4,195.4 L 200.5,194.8 L 199.6,193.7 L 199.8,191.6 L 202.6,188.7 L 205.8,188.3 L 205.9,188.4 L 205.8,188.3 L 206.0,189.7 L 206.5,189.8 L 207.0,189.8 L 207.1,189.0 L 207.0,188.7 L 206.8,188.1 L 207.0,188.1 L 211.7,187.5 L 212.1,187.3 L 212.4,186.9 L 212.5,185.9 L 211.4,185.2 L 209.8,184.5 L 208.1,184.2 L 203.0,185.3 L 202.1,185.6 L 196.5,185.9 L 195.4,185.8 L 194.5,185.7 L 193.2,184.7 L 191.8,184.5 L 188.7,185.1 L 186.8,185.3 L 184.1,186.4 L 174.9,188.1 L 167.1,189.2 L 164.9,189.3 L 164.5,188.9 L 164.3,187.7 L 163.0,186.8 L 162.8,186.0 L 163.1,183.7 L 164.3,182.8 L 166.3,182.2 L 166.2,181.3 L 165.1,179.7 L 161.5,176.5 L 158.4,174.7 L 154.1,172.6 L 153.6,171.8 L 153.9,170.6 L 156.4,167.7 L 156.3,167.0 L 155.2,166.3 L 152.3,165.8 L 151.1,164.9 L 150.3,163.7 L 150.5,161.6 L 151.4,160.1 L 151.0,159.3 L 149.6,158.9 L 149.9,157.9 L 150.8,157.6 L 153.2,157.5 L 155.0,156.5 L 156.3,154.7 L 156.0,153.8 L 153.2,153.5 L 146.1,156.4 L 137.8,159.2 L 135.5,159.2 L 131.7,159.7 L 128.9,160.4 L 125.7,163.0 L 124.1,164.3 L 123.9,164.8 L 125.4,165.8 L 125.3,166.9 L 125.1,167.2 L 123.8,168.8 L 122.9,173.7 L 121.8,174.6 L 120.2,175.3 L 116.1,176.1 L 116.0,176.1 L 113.5,177.5 L 112.9,177.6 L 112.1,176.5 L 111.2,176.9 L 111.0,177.9 L 110.5,178.7 L 109.1,178.7 L 108.2,178.9 L 108.0,179.7 L 110.2,182.1 L 112.6,182.2 L 113.4,182.8 L 113.0,183.2 L 105.4,186.8 L 100.8,188.5 L 93.2,188.6 L 89.4,188.8 L 87.1,188.7 L 85.3,189.4 L 83.6,189.4 L 79.3,187.0 L 76.5,185.7 L 75.2,184.2 L 74.5,182.4 L 72.8,180.2 L 71.8,175.6 L 71.1,174.1 L 69.5,171.7 L 65.7,170.3 L 64.4,169.2 L 63.0,166.8 L 63.2,165.1 L 66.0,161.2 L 67.9,159.5 L 68.3,158.1 L 67.8,157.4 L 65.4,157.3 L 63.4,157.4 L 62.1,157.0 L 60.9,156.0 L 59.9,155.7 L 60.0,154.9 L 60.9,153.2 L 61.4,150.6 L 63.2,147.1 L 63.2,144.8 L 62.6,142.6 L 61.7,141.5 L 60.4,140.7 L 60.1,140.1 L 60.3,138.4 L 60.6,137.3 L 60.2,135.3 L 59.2,134.1 L 56.6,133.0 L 56.0,132.9 L 54.9,132.2 L 53.2,132.0 L 52.4,130.6 L 52.5,128.9 L 53.5,127.9 L 53.4,126.0 L 55.8,125.3 L 56.2,124.3 L 55.9,123.9 L 54.6,123.6 L 53.3,123.9 L 51.5,125.3 L 50.7,125.4 L 49.3,124.5 L 48.6,123.0 L 48.3,121.3 L 48.3,119.3 L 47.3,117.2 L 46.1,115.9 L 45.1,114.7 L 41.6,111.5 L 40.3,110.0 L 40.0,110.0 L 239.6,49.0 L 240.2,48.9 L 240.1,48.9 L 239.1,51.1 L 238.1,52.2 L 236.0,53.2 L 236.4,54.3 L 234.4,56.6 L 232.9,57.2 L 230.5,58.4 L 229.1,59.6 L 228.9,60.2 L 229.5,62.8 L 229.8,65.7 L 229.7,70.8 L 230.2,71.5 L 231.4,71.7 L 233.3,72.4 L 235.1,72.5 L 236.1,71.8 L 237.6,71.9 L 237.8,71.7 L 239.2,71.8 L 241.3,73.7 L 241.6,74.7 L 241.6,76.4 L 240.6,80.0 L 239.8,82.0 L 239.4,82.1 L 238.8,83.2 L 237.1,84.9 L 235.7,86.1 L 234.7,87.1 L 234.5,88.2 L 234.8,89.1 L 235.3,91.8 L 236.4,95.3 L 236.0,101.4 L 236.1,101.6 L 235.9,103.3 L 235.4,103.9 L 233.8,109.2 L 233.9,111.6 L 234.7,113.8 L 238.6,117.9 L 239.7,119.4 L 240.2,120.9 L 239.8,124.9 L 238.5,129.1 L 237.8,130.4 L 236.6,131.5 L 234.5,132.5 L 231.5,133.3 L 231.5,133.3 L 229.9,134.5 L 223.9,137.2 L 224.2,137.8 L 225.8,139.0 L 227.4,138.9 L 230.6,140.1 L 232.3,140.5 L 234.7,142.5 L 235.8,142.5 L 239.5,140.3 L 240.6,140.4 L 242.2,142.5 L 242.9,144.1 L 243.8,148.2 L 247.7,150.7 L 250.6,150.8 L 253.7,150.1 L 255.9,150.6 L 257.3,149.5 L 260.2,149.2 L 262.4,149.4 L 264.8,150.7 L 265.4,151.2 L 265.7,151.0 L 266.9,151.4 L 267.9,152.6 L 269.1,154.4 L 270.0,156.9 L 270.4,157.5 L 270.7,159.0 L 270.4,162.1 L 269.9,162.6 L 269.2,165.3 L 269.0,166.0 L 267.2,169.9 L 264.0,174.7 L 262.9,175.9 L 262.0,178.0 L 261.8,180.4 L 261.5,182.0 L 261.7,183.0 L 261.9,184.0 L 263.4,185.9 L 264.7,187.7 L 266.9,189.8 L 268.4,191.1 L 270.3,192.7 L 270.6,193.2 L 271.1,195.9 L 271.0,198.7 L 270.4,200.9 L 269.4,202.4 L 268.3,204.8 L 267.9,208.1 L 268.4,209.9 L 270.4,212.5 L 276.3,216.3 L 277.0,217.4 L 276.9,219.6 L 276.3,221.4 L 275.6,224.8 L 275.0,226.6 L 272.2,230.4 L 272.0,232.1 L 274.0,236.0 L 277.1,236.9 L 278.2,237.9 L 279.4,243.4 L 279.5,244.8 L 278.4,247.3 L 278.0,248.7 L 278.7,249.6 L 280.7,249.7 L 281.6,249.4 L 282.3,249.1 L 283.1,249.2 L 284.4,250.3 L 286.2,250.3 L 288.0,249.6 L 289.6,250.0 L 290.7,250.4 L 293.4,250.9 L 297.1,251.1 L 298.4,251.5 L 299.4,252.9 L 299.3,255.5 L 300.7,256.3 L 301.9,258.3 L 303.4,259.3 L 304.3,260.8 L 304.9,263.5 L 305.2,265.7 L 305.6,266.6 L 306.8,267.9 L 308.1,269.5 L 312.4,270.3 L 315.1,271.4 L 317.2,272.8 L 318.5,274.8 L 320.2,278.2 L 321.1,283.9 L 322.8,284.2 L 324.4,285.3 L 325.9,287.5 L 325.5,292.1 L 326.4,293.2 L 329.1,293.4 L 330.3,294.0 L 332.3,296.3 L 333.9,297.3 L 336.6,297.3 L 338.8,296.8 L 339.5,296.7 L 340.0,297.0 L 341.0,298.5 L 342.1,299.2 L 342.9,300.3 L 342.7,303.2 L 343.6,304.0 L 345.4,304.7 L 346.8,305.1 L 348.0,305.8 L 348.4,307.0 L 349.0,307.8 L 351.0,308.3 L 352.2,309.7 L 352.6,311.1 L 352.1,313.1 L 351.6,313.9 L 349.7,314.8 L 348.3,315.6 L 347.9,316.4 L 348.3,316.8 L 349.7,318.0 L 349.7,318.8 L 348.5,319.8 L 348.3,320.5 L 348.5,321.1 L 349.9,321.4 L 351.0,322.3 L 353.5,322.5 L 355.2,325.0 L 356.4,325.4 L 357.2,326.6 L 357.2,327.4 L 357.6,328.3 L 358.7,328.9 L 360.0,330.3 L 360.0,330.5 L 360.0,331.7 L 358.4,332.5 L 357.9,334.2 L 353.7,336.1 L 352.2,337.4 L 352.4,338.2 L 353.2,338.3 L 352.7,338.8 L 337.8,351.1 L 337.7,350.9 L 336.7,350.6 L 334.2,350.8 L 332.6,349.9 L 328.7,349.9 L 326.5,349.5 L 324.8,348.4 L 324.3,345.1 L 325.1,342.9 L 324.5,341.8 L 324.4,341.5 L 324.1,341.4 L 323.3,339.7 L 320.8,337.1 L 319.4,336.6 L 315.3,337.2 L 312.3,338.6 L 310.4,340.1 L 308.3,341.1 L 306.5,341.0 L 304.1,339.5 L 300.6,336.9 L 299.9,336.1 L 300.2,334.5 L 300.7,333.3 L 299.9,331.4 L 298.1,329.7 L 294.2,329.4 L 291.6,329.9 L 284.9,333.3 L 279.9,335.2 L 276.2,336.3 L 273.4,336.5 L 272.3,336.5 L 270.3,337.2 L 268.5,337.3 L 267.5,336.1 L 267.7,334.8 L 271.0,332.6 L 273.9,331.4 L 275.2,330.9 L 275.5,330.7 L 275.8,329.1 L 275.5,328.2 L 274.3,328.4 L 274.2,328.4 L 270.9,329.7 L 267.8,330.4 L 263.6,332.1 L 262.0,332.6 L 258.6,335.3 L 258.3,335.4 L 257.8,336.1 L 258.0,336.4 L 260.0,336.0 L 261.4,335.8 L 261.4,337.0 L 259.4,339.1 L 255.7,340.0 L 252.8,339.8 L 251.6,339.6 L 249.6,339.0 L 249.3,339.1 L 245.2,338.5 L 242.8,337.7 L 241.4,336.3 L 240.7,334.0 L 240.4,333.6 L 239.6,332.1 L 239.3,329.0 L 238.1,327.2 L 238.6,324.9 L 238.4,323.9 L 235.1,322.9 L 234.3,322.0 L 234.5,319.4 L 234.7,318.7 L 235.3,317.2 L 235.3,315.2 L 234.9,313.1 L 235.2,311.5 L 235.8,309.9 L 236.3,307.8 L 237.6,306.4" fill="none" stroke="black" stroke-width="2"/>
</svg>