<?xml version="1.0" encoding="UTF-8"?>
<svg width="400" height="400" viewBox="0 0 400 400" xmlns="http://www.w3.org/2000/svg">
  <rect width="400" height="400" fill="white"/>
  <path d="M 69.7,227.0 L 69.8,226.7 L 70.2,225.1 L 69.7,224.4 L 67.7,224.1 L 67.3,222.4 L 68.1,219.0 L 69.7,218.0 L 71.5,216.5 L 73.2,213.7 L 73.4,211.2 L 74.0,210.2 L 74.5,205.6 L 75.7,203.7 L 77.4,201.7 L 77.3,199.7 L 79.3,196.0 L 80.2,194.9 L 82.3,193.6 L 83.2,192.3 L 85.4,188.9 L 86.4,186.5 L 86.6,184.9 L 86.0,184.2 L 85.8,182.4 L 85.1,181.5 L 85.2,179.8 L 85.7,178.5 L 85.1,177.0 L 85.3,174.8 L 84.7,172.1 L 84.1,171.0 L 84.4,169.6 L 86.0,165.0 L 84.6,161.4 L 84.5,158.8 L 84.7,154.5 L 85.2,149.1 L 84.2,146.2 L 83.2,144.4 L 80.8,138.5 L 79.2,135.5 L 77.4,130.6 L 74.2,125.0 L 74.3,122.9 L 74.8,121.0 L 74.4,118.1 L 73.6,114.3 L 73.3,111.6 L 71.8,108.1 L 70.8,106.3 L 70.7,103.7 L 70.9,101.0 L 70.5,98.3 L 70.7,94.0 L 70.2,92.0 L 69.7,91.3 L 68.8,90.6 L 66.2,90.0 L 64.2,90.2 L 58.9,91.2 L 54.5,91.2 L 52.1,91.6 L 49.7,91.6 L 48.3,90.1 L 47.2,86.9 L 47.2,86.0 L 46.2,83.9 L 45.3,81.2 L 43.5,78.9 L 41.8,75.5 L 41.1,72.5 L 41.9,68.7 L 42.1,66.5 L 42.5,65.5 L 44.5,58.9 L 45.8,55.4 L 48.0,48.4 L 49.0,46.8 L 49.6,44.6 L 52.0,40.0 L 52.0,40.0 L 173.9,48.5 L 174.7,48.6 L 174.7,48.6 L 176.1,49.8 L 176.7,50.1 L 177.5,51.0 L 178.1,52.7 L 179.3,53.1 L 181.3,55.5 L 181.4,57.0 L 179.7,59.5 L 179.1,62.6 L 177.3,64.4 L 176.9,65.6 L 177.4,67.5 L 179.3,70.2 L 180.4,74.2 L 180.9,80.4 L 181.4,83.4 L 182.4,87.9 L 183.6,89.8 L 184.1,91.8 L 186.1,95.3 L 186.8,98.8 L 186.7,103.0 L 187.6,107.0 L 188.2,108.2 L 188.4,109.6 L 187.7,110.1 L 187.3,110.8 L 188.6,112.2 L 189.1,114.2 L 190.3,114.7 L 190.8,116.0 L 190.2,117.1 L 190.2,118.4 L 192.0,123.3 L 195.4,127.7 L 195.6,128.9 L 198.0,130.1 L 198.7,131.6 L 199.9,132.4 L 200.5,133.4 L 200.8,135.6 L 201.6,136.1 L 201.7,137.3 L 203.5,140.7 L 203.6,141.9 L 201.8,144.7 L 201.6,147.8 L 202.4,149.8 L 203.2,153.2 L 204.7,154.7 L 206.4,157.3 L 205.9,160.0 L 206.0,162.3 L 207.6,164.7 L 208.8,168.5 L 209.8,171.2 L 211.8,172.0 L 212.1,173.2 L 213.3,174.7 L 213.9,177.9 L 213.7,180.4 L 212.6,181.9 L 212.4,182.7 L 213.7,184.1 L 214.4,183.9 L 214.6,182.9 L 215.1,182.7 L 217.3,184.9 L 217.5,186.5 L 218.5,187.7 L 217.2,192.0 L 217.0,193.5 L 218.4,195.2 L 219.4,195.1 L 222.2,195.9 L 222.9,195.9 L 223.7,196.3 L 226.6,199.7 L 228.0,199.3 L 228.5,199.7 L 230.0,199.8 L 231.0,199.2 L 232.6,199.3 L 237.2,202.1 L 241.4,205.2 L 244.5,206.9 L 245.7,208.0 L 250.3,210.0 L 255.0,214.1 L 255.6,215.6 L 254.9,217.7 L 255.2,218.8 L 255.1,221.9 L 254.5,223.0 L 252.4,224.2 L 249.6,226.4 L 248.2,228.1 L 247.4,231.7 L 247.1,233.5 L 247.6,234.4 L 247.5,236.1 L 249.0,238.2 L 249.6,238.6 L 250.2,237.4 L 251.3,237.4 L 253.3,236.7 L 255.6,239.7 L 256.7,240.0 L 262.4,243.1 L 264.4,244.6 L 267.0,248.8 L 267.7,249.0 L 268.3,249.5 L 268.5,250.7 L 267.4,251.9 L 266.7,254.1 L 267.2,256.3 L 268.8,258.4 L 270.5,258.2 L 272.2,257.2 L 272.7,255.9 L 273.0,254.3 L 274.4,253.1 L 276.0,253.0 L 277.4,253.7 L 279.4,253.5 L 281.3,254.7 L 282.6,256.3 L 283.4,257.5 L 283.0,258.4 L 282.9,259.6 L 282.2,261.8 L 278.4,265.8 L 276.7,266.4 L 274.5,267.8 L 272.4,268.1 L 271.1,268.9 L 270.8,272.7 L 272.2,274.7 L 272.1,277.9 L 273.1,278.5 L 278.3,278.9 L 278.8,280.5 L 280.5,280.2 L 281.6,279.0 L 284.2,279.1 L 284.9,278.5 L 285.4,277.7 L 287.6,276.3 L 287.9,276.2 L 289.2,276.4 L 290.3,277.1 L 291.3,277.2 L 293.2,276.1 L 294.3,276.2 L 298.6,274.0 L 302.4,272.4 L 305.5,270.0 L 311.5,266.6 L 312.2,266.4 L 317.1,264.5 L 319.2,262.1 L 320.7,259.6 L 322.1,258.4 L 324.1,257.3 L 326.7,254.9 L 328.0,255.0 L 329.3,253.2 L 329.8,251.9 L 330.0,249.9 L 332.2,248.2 L 333.3,247.6 L 333.8,245.7 L 335.8,242.6 L 335.6,241.3 L 335.1,240.0 L 335.0,239.9 L 336.0,238.7 L 337.0,238.8 L 337.6,239.5 L 338.6,239.6 L 338.6,238.9 L 338.2,237.6 L 339.2,235.7 L 341.0,228.6 L 340.1,227.2 L 341.2,227.3 L 342.3,228.1 L 341.8,232.0 L 343.8,234.8 L 343.5,240.0 L 343.6,240.8 L 343.8,241.4 L 345.8,243.5 L 348.9,245.1 L 349.5,245.8 L 349.4,246.5 L 350.1,248.5 L 349.6,249.8 L 348.9,251.1 L 348.0,254.3 L 347.7,256.2 L 349.9,258.4 L 351.9,260.5 L 351.9,263.2 L 353.4,264.0 L 354.0,265.4 L 355.3,266.1 L 358.9,272.4 L 358.4,276.3 L 357.4,278.8 L 353.8,285.1 L 352.0,287.5 L 349.3,288.6 L 347.5,290.4 L 346.5,292.3 L 345.6,294.8 L 341.8,300.4 L 341.4,305.6 L 341.6,305.6 L 341.7,310.9 L 343.2,312.4 L 343.1,313.7 L 344.6,314.5 L 346.5,315.3 L 347.2,316.0 L 347.9,317.4 L 348.0,319.4 L 347.3,320.7 L 347.0,324.6 L 345.3,329.0 L 343.2,331.5 L 340.4,333.8 L 335.2,337.3 L 333.0,338.4 L 332.2,339.6 L 331.5,342.2 L 330.3,344.1 L 330.9,344.8 L 330.7,346.7 L 331.0,347.4 L 329.3,349.2 L 326.9,351.0 L 325.4,352.8 L 324.2,352.7 L 322.2,354.5 L 320.5,355.0 L 320.3,357.6 L 319.3,358.2 L 317.9,360.0 L 317.2,359.9 L 153.2,344.8 L 154.4,344.1 L 154.5,342.6 L 156.6,341.2 L 156.9,339.9 L 156.6,339.3 L 154.4,339.9 L 150.5,339.7 L 148.5,339.0 L 147.2,337.9 L 147.3,335.7 L 147.0,334.2 L 147.2,331.7 L 144.1,329.7 L 140.1,328.0 L 139.4,327.2 L 139.0,325.6 L 139.2,324.3 L 140.3,323.5 L 141.9,320.6 L 142.2,318.4 L 143.3,317.5 L 142.6,315.4 L 141.4,314.7 L 141.1,313.7 L 141.7,308.6 L 143.7,306.5 L 143.5,305.3 L 144.2,304.5 L 143.9,303.9 L 139.3,303.7 L 138.3,303.9 L 136.7,303.4 L 134.1,303.6 L 129.9,304.8 L 127.6,306.1 L 126.0,307.8 L 120.9,312.0 L 118.3,312.1 L 117.4,312.0 L 115.8,311.4 L 115.2,311.0 L 111.8,310.8 L 111.0,310.2 L 105.4,310.6 L 105.2,310.4 L 103.7,308.4 L 102.1,308.2 L 101.6,306.9 L 99.5,307.1 L 95.5,308.4 L 90.1,309.1 L 86.5,310.1 L 83.9,312.2 L 81.9,314.8 L 80.6,315.9 L 80.2,315.4 L 80.6,313.7 L 80.5,313.4 L 78.4,313.2 L 76.4,312.7 L 73.5,312.3 L 72.5,312.7 L 70.2,314.2 L 67.4,314.6 L 66.8,314.2 L 66.3,314.2 L 65.5,315.4 L 64.7,316.0 L 63.4,315.2 L 63.8,313.9 L 62.6,313.4 L 61.8,315.0 L 61.3,315.4 L 59.8,315.4 L 59.3,315.4 L 58.7,314.9 L 58.4,314.2 L 57.5,313.6 L 54.7,313.2 L 54.3,312.5 L 54.6,309.4 L 56.2,307.3 L 57.1,305.7 L 59.0,303.7 L 60.9,299.6 L 61.9,295.9 L 61.0,291.4 L 58.4,282.5 L 55.0,273.7 L 52.1,270.3 L 50.7,268.4 L 50.6,267.4 L 50.0,265.4 L 49.6,260.4 L 50.1,256.0 L 51.1,252.6 L 52.2,250.8 L 52.6,247.5 L 53.9,244.5 L 55.0,243.4 L 55.9,241.8 L 60.7,238.1 L 61.7,236.6 L 62.2,234.8 L 62.6,234.0 L 68.7,228.7 L 69.7,227.0" fill="none" stroke="black" stroke-width="2"/>
</svg>