<?xml version="1.0" encoding="UTF-8"?>
<svg width="400" height="400" viewBox="0 0 400 400" xmlns="http://www.w3.org/2000/svg">
  <rect width="400" height="400" fill="white"/>
  <path d="M 40.0,239.4 L 40.1,239.4 L 40.3,239.0 L 42.7,237.4 L 43.2,237.0 L 43.6,236.9 L 43.8,237.1 L 44.3,237.3 L 45.3,237.3 L 45.6,237.1 L 46.2,236.2 L 46.4,235.5 L 46.9,235.3 L 46.9,235.2 L 47.0,234.9 L 46.9,234.7 L 46.7,234.4 L 47.0,233.7 L 47.5,233.2 L 48.0,232.9 L 50.1,231.6 L 50.5,231.3 L 50.6,231.3 L 50.7,231.2 L 51.1,230.8 L 51.9,230.1 L 53.3,228.6 L 53.8,228.0 L 55.2,227.1 L 56.4,226.5 L 57.8,225.9 L 57.9,225.7 L 58.2,225.6 L 59.4,225.3 L 59.8,225.3 L 60.6,224.7 L 61.1,224.2 L 61.3,223.8 L 61.7,223.6 L 62.4,223.4 L 62.8,222.9 L 63.6,222.0 L 64.0,221.9 L 64.6,221.9 L 64.9,222.1 L 65.2,222.1 L 65.2,221.6 L 65.5,221.0 L 65.8,220.6 L 66.4,220.2 L 66.5,219.6 L 66.7,219.4 L 67.1,219.1 L 67.2,219.0 L 67.1,219.0 L 67.2,218.4 L 67.7,217.8 L 68.7,217.1 L 68.8,217.0 L 69.4,216.5 L 69.6,216.3 L 69.5,216.1 L 69.6,215.9 L 69.8,215.6 L 69.8,215.3 L 69.6,215.2 L 69.3,215.5 L 69.1,215.6 L 69.2,215.2 L 69.4,215.0 L 69.4,214.7 L 69.2,214.4 L 69.0,214.3 L 68.7,214.1 L 68.1,214.2 L 68.0,214.1 L 68.0,214.1 L 67.7,213.6 L 67.6,213.0 L 67.5,212.4 L 67.6,212.1 L 67.9,211.5 L 68.4,211.1 L 68.9,210.7 L 69.4,210.3 L 69.9,209.9 L 70.3,209.5 L 70.7,209.0 L 71.1,209.0 L 71.1,209.2 L 71.2,209.3 L 71.3,209.2 L 71.3,207.9 L 70.9,207.7 L 70.7,207.3 L 69.8,206.6 L 70.0,206.2 L 70.1,206.2 L 70.4,205.7 L 70.4,205.3 L 70.6,205.2 L 70.7,205.0 L 70.6,204.4 L 70.4,203.8 L 70.3,203.7 L 70.1,203.4 L 69.8,202.9 L 69.4,202.5 L 70.9,200.7 L 71.0,200.5 L 71.0,200.8 L 71.3,201.2 L 71.4,201.5 L 71.6,201.8 L 71.7,202.1 L 72.0,202.6 L 71.9,204.1 L 72.1,204.7 L 72.5,205.2 L 73.0,205.6 L 73.4,205.6 L 74.0,205.3 L 74.7,205.4 L 75.1,205.5 L 75.4,205.5 L 76.8,204.9 L 78.9,203.5 L 79.2,203.4 L 80.9,201.7 L 81.1,201.5 L 81.9,200.9 L 82.6,200.6 L 83.6,200.8 L 83.6,200.9 L 83.7,201.1 L 84.0,201.5 L 84.4,201.4 L 84.9,201.0 L 84.9,201.0 L 144.0,204.2 L 144.2,204.2 L 144.1,204.6 L 144.2,204.9 L 144.8,205.1 L 145.0,205.3 L 144.8,205.8 L 144.9,206.6 L 145.2,206.9 L 145.1,207.6 L 144.8,208.2 L 144.4,208.5 L 144.1,209.3 L 143.6,209.7 L 143.6,211.0 L 143.2,211.3 L 143.2,211.7 L 143.9,213.0 L 144.3,213.7 L 144.9,214.1 L 145.8,214.2 L 146.3,213.8 L 146.5,213.4 L 148.4,213.6 L 149.2,213.9 L 149.9,214.4 L 150.7,214.7 L 151.5,215.1 L 152.3,215.8 L 152.5,216.1 L 152.3,216.8 L 152.4,217.1 L 153.0,217.3 L 153.4,217.5 L 153.7,217.9 L 154.1,218.6 L 154.4,219.1 L 154.9,219.1 L 155.6,218.7 L 156.0,218.1 L 156.5,217.5 L 157.1,217.2 L 157.8,217.0 L 158.3,216.8 L 159.2,216.3 L 159.8,216.0 L 160.3,215.9 L 162.6,216.1 L 163.3,215.8 L 164.3,215.3 L 165.1,214.9 L 165.6,214.3 L 166.0,214.0 L 166.3,213.8 L 166.6,213.7 L 167.8,214.0 L 168.0,214.2 L 168.1,214.7 L 168.5,214.7 L 169.0,214.4 L 169.2,214.1 L 169.3,213.8 L 169.6,213.3 L 169.7,213.2 L 170.1,212.7 L 170.7,212.6 L 170.9,212.5 L 170.9,211.5 L 170.6,210.6 L 170.1,210.3 L 169.5,209.9 L 169.2,209.5 L 169.2,208.9 L 169.3,208.4 L 170.6,206.9 L 171.8,206.0 L 172.4,205.8 L 173.0,205.6 L 173.8,205.2 L 173.8,204.6 L 173.8,204.4 L 174.0,204.4 L 174.1,204.3 L 174.1,204.1 L 174.1,203.9 L 174.2,203.8 L 174.3,203.6 L 174.3,203.6 L 174.5,203.5 L 174.5,203.5 L 174.6,203.3 L 174.6,203.2 L 174.6,203.0 L 174.8,202.9 L 174.8,202.9 L 174.9,201.9 L 174.9,201.4 L 174.7,201.1 L 174.7,200.7 L 176.6,199.8 L 177.3,199.2 L 178.0,198.9 L 178.1,198.9 L 179.5,198.6 L 181.2,198.7 L 181.6,199.3 L 182.2,200.1 L 182.5,200.3 L 182.8,200.4 L 182.9,200.0 L 182.4,199.3 L 182.2,198.7 L 182.3,198.5 L 182.5,198.4 L 182.9,198.4 L 183.2,198.1 L 183.3,197.3 L 184.1,196.4 L 184.9,196.0 L 185.0,195.0 L 185.3,193.9 L 185.5,193.6 L 186.1,193.1 L 187.1,192.7 L 187.8,192.6 L 188.1,192.7 L 188.6,193.4 L 188.8,193.9 L 189.2,194.6 L 189.6,195.1 L 189.7,195.6 L 189.9,196.0 L 190.2,195.8 L 190.6,195.7 L 190.8,195.7 L 191.2,195.9 L 192.3,195.5 L 192.8,195.4 L 193.7,195.0 L 195.1,194.1 L 196.4,193.5 L 196.7,193.5 L 197.6,193.2 L 199.3,192.6 L 199.9,192.1 L 200.5,192.0 L 201.3,191.8 L 201.6,191.5 L 201.7,191.3 L 201.7,191.0 L 201.9,190.5 L 203.3,189.4 L 205.1,188.1 L 206.1,187.8 L 207.2,187.8 L 207.7,187.5 L 207.9,186.0 L 208.0,185.7 L 208.6,185.0 L 209.0,184.7 L 209.9,184.9 L 209.9,184.9 L 210.3,185.8 L 210.7,186.1 L 211.0,186.2 L 211.4,185.6 L 211.8,185.3 L 211.9,184.7 L 216.7,186.3 L 216.8,186.3 L 216.9,186.7 L 217.5,186.8 L 218.1,186.5 L 218.4,186.2 L 218.7,186.2 L 219.5,186.6 L 220.2,186.9 L 220.7,187.1 L 221.2,187.8 L 221.3,188.1 L 221.7,188.6 L 221.6,189.6 L 221.9,190.0 L 222.4,190.2 L 222.8,190.1 L 224.7,189.3 L 225.1,189.0 L 225.8,188.1 L 226.0,187.7 L 227.3,186.4 L 227.5,186.2 L 228.5,186.3 L 228.9,186.2 L 229.3,186.3 L 229.8,186.0 L 231.0,186.1 L 231.2,186.3 L 231.5,186.1 L 232.0,185.8 L 232.3,185.7 L 232.5,185.7 L 232.7,185.1 L 233.0,184.8 L 233.1,184.8 L 233.3,185.0 L 233.5,184.8 L 233.7,184.4 L 233.9,184.1 L 234.0,183.3 L 234.2,183.1 L 234.2,182.8 L 233.9,182.4 L 233.7,182.3 L 233.3,181.7 L 232.6,181.5 L 232.5,181.2 L 232.5,180.5 L 232.5,180.2 L 232.8,179.2 L 233.6,178.2 L 234.9,177.0 L 235.6,176.1 L 236.8,175.2 L 237.8,174.5 L 238.1,174.3 L 238.2,174.2 L 238.1,173.5 L 237.7,172.5 L 237.1,172.1 L 237.0,171.8 L 236.6,170.6 L 236.3,170.2 L 235.8,170.2 L 235.5,170.3 L 234.9,171.1 L 234.5,171.4 L 234.0,171.3 L 233.5,170.9 L 233.3,170.8 L 233.2,170.1 L 233.3,169.5 L 233.9,168.7 L 234.5,168.1 L 234.6,167.8 L 234.6,167.5 L 234.0,167.2 L 233.6,166.2 L 233.6,165.7 L 233.3,165.2 L 233.2,165.2 L 233.2,165.2 L 322.1,95.4 L 322.2,95.6 L 322.4,95.6 L 322.6,95.3 L 322.5,95.0 L 323.5,94.2 L 323.6,94.2 L 323.6,94.3 L 324.2,94.8 L 324.9,95.0 L 325.2,95.1 L 325.4,94.9 L 325.6,94.3 L 325.9,94.1 L 326.2,94.2 L 326.3,94.3 L 326.3,94.7 L 326.4,94.8 L 326.7,94.7 L 326.8,94.6 L 326.9,94.1 L 327.1,93.9 L 327.8,93.8 L 328.9,93.9 L 329.4,94.0 L 330.0,94.2 L 330.9,95.4 L 330.9,95.6 L 330.4,96.0 L 330.3,96.4 L 330.9,97.2 L 331.7,97.5 L 332.3,98.2 L 332.9,98.4 L 335.0,98.8 L 335.2,98.8 L 335.0,99.1 L 335.0,99.4 L 335.2,99.4 L 336.0,99.6 L 336.4,99.7 L 337.3,99.8 L 337.8,99.5 L 338.9,99.1 L 339.5,99.1 L 357.5,162.5 L 357.5,162.5 L 357.1,162.5 L 356.7,162.1 L 356.8,161.5 L 356.6,161.5 L 356.3,161.8 L 356.2,162.1 L 355.9,162.5 L 355.3,163.8 L 354.8,164.2 L 352.5,165.8 L 350.8,166.6 L 349.8,166.7 L 349.4,167.0 L 349.1,167.3 L 348.1,167.7 L 346.4,168.0 L 345.0,167.4 L 344.7,167.2 L 343.8,167.0 L 342.9,166.9 L 342.5,167.2 L 342.4,167.3 L 341.8,167.6 L 341.0,168.3 L 340.4,168.8 L 339.2,169.8 L 339.1,170.1 L 339.2,170.4 L 339.7,171.0 L 339.9,171.5 L 339.8,172.0 L 339.5,172.9 L 339.3,173.6 L 338.9,174.2 L 338.3,174.6 L 337.4,174.5 L 336.6,174.6 L 336.0,174.7 L 335.6,175.0 L 334.6,176.1 L 334.5,176.4 L 334.9,176.4 L 335.0,176.6 L 335.5,176.8 L 336.1,177.5 L 336.9,177.6 L 337.3,177.8 L 337.5,178.1 L 337.5,178.5 L 337.1,179.1 L 337.0,179.4 L 337.1,179.6 L 337.8,180.1 L 338.4,180.8 L 339.0,181.2 L 339.6,181.1 L 340.4,181.0 L 341.1,180.8 L 342.0,180.9 L 343.4,181.1 L 344.7,180.8 L 345.5,180.7 L 345.7,180.4 L 345.8,180.2 L 347.6,179.1 L 349.3,178.4 L 350.2,178.2 L 352.3,177.1 L 353.1,176.8 L 354.2,176.3 L 355.0,176.0 L 355.5,175.9 L 356.1,175.8 L 357.6,175.9 L 357.8,176.0 L 358.5,176.2 L 358.6,176.4 L 358.5,176.7 L 358.1,177.3 L 358.0,178.1 L 358.5,178.5 L 358.6,178.8 L 358.3,179.1 L 358.2,179.4 L 357.5,180.2 L 357.6,180.8 L 357.5,181.5 L 357.4,181.6 L 357.4,182.0 L 357.6,182.2 L 358.2,182.1 L 358.9,182.1 L 359.8,182.4 L 360.0,182.5 L 359.6,183.2 L 359.4,184.0 L 359.0,184.9 L 358.4,186.0 L 356.8,187.1 L 355.6,188.8 L 355.2,189.1 L 354.8,189.1 L 354.3,188.7 L 353.7,187.2 L 353.3,186.3 L 353.0,186.0 L 352.5,185.4 L 352.1,185.2 L 351.5,185.0 L 350.0,184.7 L 349.0,184.3 L 348.5,183.9 L 348.3,182.8 L 348.0,182.2 L 346.9,181.6 L 345.4,181.3 L 344.4,181.4 L 343.8,181.5 L 342.9,181.9 L 341.6,182.3 L 341.0,182.4 L 340.3,182.7 L 339.5,182.7 L 338.7,182.7 L 336.4,181.6 L 334.2,181.4 L 333.4,181.5 L 332.8,181.5 L 331.5,181.5 L 330.6,181.4 L 330.3,181.6 L 329.6,181.8 L 329.5,182.0 L 329.3,181.9 L 328.5,182.5 L 325.6,183.9 L 325.1,184.2 L 325.0,184.6 L 325.1,185.0 L 325.2,185.5 L 325.5,186.5 L 325.8,186.7 L 327.0,186.8 L 328.7,186.1 L 329.3,185.9 L 330.6,185.3 L 332.3,184.4 L 332.5,184.0 L 332.8,183.4 L 333.3,183.0 L 333.7,182.9 L 334.1,182.9 L 334.6,183.1 L 335.4,183.0 L 335.4,183.0 L 336.5,182.8 L 336.9,182.8 L 337.3,183.2 L 337.5,183.5 L 337.6,184.0 L 337.3,184.7 L 336.9,185.1 L 336.4,185.4 L 335.5,185.5 L 334.9,185.6 L 334.7,185.9 L 334.4,186.0 L 333.8,186.3 L 333.4,186.6 L 332.9,187.4 L 332.4,187.6 L 331.7,187.9 L 331.4,188.2 L 331.3,188.7 L 331.3,188.8 L 331.3,189.2 L 330.9,189.5 L 330.8,189.9 L 331.5,190.7 L 331.6,190.8 L 331.4,191.3 L 331.2,192.3 L 330.7,192.7 L 330.6,193.0 L 330.2,193.3 L 329.2,193.7 L 328.9,193.8 L 328.3,194.1 L 328.1,194.3 L 327.3,194.7 L 326.0,195.0 L 325.5,195.3 L 324.8,195.3 L 323.6,195.5 L 323.0,195.3 L 322.7,195.4 L 321.1,196.4 L 320.7,196.5 L 320.1,196.3 L 320.0,196.3 L 319.1,196.5 L 318.3,197.3 L 318.3,197.8 L 318.0,198.2 L 317.5,198.7 L 317.2,198.6 L 316.7,198.3 L 316.1,198.2 L 315.4,198.5 L 314.7,198.9 L 313.9,198.8 L 313.8,198.6 L 313.5,198.4 L 312.9,198.7 L 312.8,198.7 L 312.9,198.9 L 313.3,199.1 L 313.3,199.6 L 312.8,200.3 L 312.1,200.9 L 311.6,200.9 L 311.0,201.5 L 310.9,201.6 L 310.7,201.8 L 310.3,202.1 L 309.4,202.0 L 308.0,202.5 L 307.9,202.8 L 307.2,203.2 L 307.1,203.4 L 307.2,203.6 L 308.8,204.4 L 309.1,204.7 L 309.8,205.1 L 310.8,205.4 L 311.2,205.7 L 311.4,206.3 L 311.3,206.7 L 311.2,207.1 L 310.8,207.3 L 309.9,207.3 L 309.6,207.4 L 309.6,207.7 L 309.9,208.1 L 310.5,208.3 L 310.5,208.3 L 307.2,215.6 L 307.1,215.8 L 306.6,215.6 L 306.3,215.5 L 305.8,215.2 L 304.2,215.1 L 303.9,214.9 L 303.4,214.8 L 302.1,215.5 L 301.7,215.6 L 301.3,216.1 L 299.7,216.9 L 299.2,217.5 L 298.0,218.1 L 297.6,218.2 L 297.5,218.5 L 297.3,218.7 L 296.8,218.8 L 296.4,219.1 L 296.2,219.5 L 295.8,220.0 L 294.9,220.2 L 294.4,220.7 L 294.4,221.0 L 294.7,221.2 L 295.1,222.4 L 295.0,222.7 L 294.2,223.4 L 293.9,224.1 L 293.6,224.2 L 293.2,224.5 L 292.7,225.1 L 292.6,225.7 L 292.7,226.2 L 292.9,226.5 L 293.5,227.5 L 293.6,227.8 L 293.9,228.3 L 295.2,229.6 L 295.5,229.6 L 296.2,229.3 L 296.9,229.4 L 297.2,229.6 L 297.4,230.0 L 297.9,231.5 L 298.3,232.3 L 298.3,232.8 L 297.8,233.9 L 297.5,234.2 L 296.8,234.5 L 295.7,234.4 L 295.5,234.0 L 295.3,233.8 L 295.1,233.7 L 294.9,233.5 L 294.8,233.3 L 294.6,233.3 L 294.0,233.6 L 293.3,234.3 L 292.5,234.9 L 292.0,235.2 L 291.3,235.8 L 290.5,236.0 L 289.8,236.4 L 288.9,236.5 L 288.0,235.8 L 288.0,235.1 L 288.3,234.7 L 288.3,234.5 L 288.0,234.0 L 287.9,233.5 L 287.2,232.8 L 287.0,232.4 L 286.6,232.4 L 285.7,232.7 L 285.4,232.8 L 284.9,232.4 L 284.1,232.0 L 283.5,231.9 L 283.2,231.6 L 282.7,231.4 L 282.1,231.5 L 281.6,231.6 L 281.2,231.5 L 280.8,231.7 L 279.7,232.4 L 279.3,232.3 L 278.6,232.6 L 278.1,232.6 L 277.7,232.8 L 277.4,233.1 L 277.2,233.8 L 277.3,234.3 L 277.7,234.8 L 279.4,236.9 L 280.3,238.5 L 281.2,238.6 L 281.4,238.7 L 281.4,239.1 L 281.1,239.9 L 280.7,240.6 L 280.2,241.1 L 279.1,241.5 L 278.6,241.3 L 277.9,241.4 L 276.7,241.2 L 276.4,241.1 L 276.4,240.6 L 276.9,240.1 L 277.1,239.6 L 276.9,238.7 L 277.0,237.8 L 276.9,237.7 L 276.1,237.6 L 274.3,239.1 L 274.2,239.2 L 274.4,239.7 L 274.4,240.0 L 274.2,240.5 L 273.7,241.0 L 273.0,241.2 L 272.7,241.5 L 272.5,241.5 L 272.2,241.1 L 272.0,241.3 L 272.0,241.6 L 272.4,241.8 L 272.7,241.9 L 273.2,241.7 L 273.6,241.8 L 274.6,241.5 L 275.3,241.4 L 275.4,241.6 L 274.3,242.5 L 273.9,243.3 L 273.4,243.6 L 272.9,243.8 L 272.4,244.3 L 272.4,244.6 L 272.1,245.1 L 272.4,246.1 L 272.7,246.1 L 273.6,246.5 L 274.2,246.6 L 274.8,246.3 L 275.5,246.2 L 276.1,245.9 L 278.6,245.8 L 279.0,245.7 L 280.7,245.7 L 281.4,245.6 L 281.8,245.6 L 282.0,245.8 L 282.2,246.0 L 282.5,246.5 L 282.4,247.3 L 282.2,247.7 L 281.7,247.8 L 281.7,247.9 L 282.0,248.5 L 282.0,248.9 L 281.9,249.4 L 281.6,249.7 L 281.1,249.8 L 280.4,250.1 L 280.0,250.1 L 279.7,249.9 L 279.2,249.7 L 277.5,249.5 L 276.8,249.8 L 276.3,250.0 L 275.6,250.6 L 275.1,251.6 L 274.7,251.8 L 274.4,252.1 L 273.5,253.2 L 272.6,254.6 L 272.5,254.9 L 272.3,255.1 L 272.2,255.5 L 272.2,255.7 L 272.0,256.0 L 271.9,256.2 L 271.5,256.6 L 270.8,256.9 L 269.6,257.7 L 269.2,258.0 L 269.2,258.4 L 269.0,258.8 L 268.4,259.1 L 267.7,259.5 L 267.6,259.7 L 266.6,260.4 L 266.1,260.4 L 264.8,260.9 L 264.8,261.2 L 265.0,261.2 L 265.2,261.4 L 265.2,261.4 L 265.0,261.4 L 254.1,259.5 L 254.1,258.7 L 254.4,258.1 L 254.5,257.1 L 254.5,256.6 L 254.6,256.2 L 254.9,255.7 L 255.3,255.6 L 255.5,255.3 L 255.7,255.1 L 255.9,254.5 L 256.2,254.0 L 256.5,253.9 L 256.7,253.4 L 256.7,253.1 L 256.5,252.7 L 255.7,252.5 L 255.2,252.5 L 255.0,252.3 L 254.6,252.2 L 254.3,252.4 L 254.1,252.7 L 253.4,253.3 L 252.8,253.4 L 252.0,253.3 L 251.7,253.1 L 251.5,253.1 L 251.6,252.6 L 251.1,251.9 L 251.3,251.3 L 251.2,251.1 L 250.8,250.4 L 250.8,249.9 L 251.2,249.5 L 250.9,248.8 L 250.5,248.1 L 250.2,248.1 L 250.1,248.2 L 249.5,248.5 L 249.3,249.1 L 248.9,249.1 L 248.5,249.2 L 248.3,249.5 L 248.0,249.8 L 247.4,249.8 L 246.5,249.0 L 244.9,249.2 L 243.2,250.2 L 242.9,250.3 L 240.9,251.3 L 240.5,251.4 L 239.9,251.8 L 239.8,252.3 L 239.5,252.4 L 239.4,252.8 L 239.6,252.9 L 239.6,253.3 L 239.2,254.1 L 239.0,254.2 L 238.0,254.6 L 237.2,254.5 L 236.1,254.2 L 235.8,253.9 L 235.6,253.9 L 234.7,254.2 L 234.1,254.4 L 233.9,254.7 L 233.8,255.5 L 233.6,255.8 L 233.4,256.3 L 232.5,256.9 L 231.8,257.0 L 231.6,257.1 L 231.4,257.4 L 231.2,257.4 L 231.0,257.5 L 230.7,257.8 L 230.1,258.8 L 229.4,258.7 L 229.2,259.0 L 229.0,259.6 L 229.0,259.7 L 228.9,259.6 L 226.7,257.4 L 226.7,257.3 L 226.5,256.8 L 225.9,255.7 L 225.7,255.2 L 225.6,254.4 L 225.8,253.6 L 226.6,252.0 L 226.7,251.2 L 226.5,250.7 L 226.3,250.4 L 226.1,249.9 L 226.2,249.1 L 226.4,248.8 L 226.6,248.3 L 227.0,247.5 L 227.5,246.9 L 228.0,246.6 L 228.2,246.0 L 228.4,245.8 L 229.1,245.9 L 229.5,245.6 L 229.9,245.5 L 230.1,245.2 L 230.3,245.0 L 230.6,245.1 L 230.9,245.6 L 231.2,246.9 L 232.2,246.7 L 232.4,246.7 L 232.9,246.9 L 233.1,247.1 L 233.1,247.6 L 232.9,247.9 L 232.1,248.5 L 231.5,248.9 L 231.5,249.3 L 231.4,250.0 L 231.2,250.5 L 231.1,251.3 L 230.9,251.6 L 230.8,251.8 L 231.0,252.1 L 231.7,251.9 L 231.9,252.1 L 232.4,251.9 L 232.9,251.7 L 234.1,250.5 L 234.9,249.6 L 235.1,249.3 L 235.9,248.5 L 236.1,247.9 L 236.7,247.1 L 236.8,246.5 L 236.8,245.8 L 236.9,245.3 L 237.1,245.0 L 237.6,244.9 L 237.9,244.6 L 238.2,244.0 L 238.3,243.5 L 238.9,243.1 L 239.3,242.0 L 239.1,241.3 L 239.0,241.1 L 238.2,241.0 L 237.5,240.8 L 236.0,241.3 L 235.9,241.3 L 235.6,241.1 L 235.4,241.3 L 234.8,241.4 L 234.4,241.5 L 234.2,241.0 L 233.4,240.9 L 233.1,240.7 L 232.8,240.9 L 232.2,241.5 L 231.6,241.6 L 231.2,241.9 L 231.0,242.0 L 230.7,242.0 L 230.0,242.1 L 229.0,242.5 L 228.8,243.1 L 228.7,243.3 L 228.3,243.4 L 227.7,242.7 L 227.7,242.2 L 227.7,241.5 L 228.1,240.6 L 228.1,240.3 L 228.0,239.9 L 228.3,239.6 L 228.3,239.5 L 227.7,239.1 L 227.1,238.4 L 226.8,237.8 L 226.4,237.1 L 226.3,236.8 L 226.6,236.5 L 226.5,236.3 L 226.1,236.6 L 225.6,236.6 L 225.3,236.4 L 224.9,235.5 L 225.0,234.1 L 224.7,233.7 L 224.6,233.1 L 224.4,232.9 L 224.2,232.7 L 223.5,233.0 L 222.6,233.0 L 221.6,233.3 L 221.2,233.7 L 220.5,233.6 L 220.0,233.8 L 219.9,234.1 L 220.0,234.6 L 220.4,235.0 L 220.7,235.8 L 219.7,237.7 L 219.2,238.1 L 218.5,238.5 L 218.0,238.5 L 217.7,238.1 L 217.4,238.1 L 217.0,238.2 L 216.8,238.0 L 216.2,237.5 L 215.8,237.6 L 214.9,237.5 L 214.2,237.8 L 213.9,238.1 L 213.8,238.6 L 213.7,239.4 L 213.7,239.6 L 214.7,239.6 L 215.6,239.2 L 215.9,239.4 L 216.0,240.1 L 215.8,240.6 L 215.0,241.5 L 213.6,242.3 L 212.9,242.3 L 212.4,242.4 L 212.2,242.5 L 211.9,243.1 L 211.7,243.3 L 210.4,243.7 L 209.4,243.9 L 208.8,243.8 L 208.3,243.6 L 207.9,243.6 L 207.6,243.2 L 207.6,242.9 L 207.6,242.7 L 208.1,242.1 L 208.1,241.5 L 208.0,241.0 L 207.8,240.8 L 205.4,240.6 L 205.1,240.7 L 205.0,241.0 L 204.1,241.1 L 203.9,241.2 L 203.6,241.1 L 203.4,240.7 L 203.3,240.2 L 203.0,240.2 L 201.6,240.2 L 200.6,240.6 L 200.0,240.9 L 199.7,242.0 L 199.6,242.3 L 198.7,243.0 L 198.0,243.3 L 197.4,243.2 L 196.7,243.0 L 196.2,243.1 L 196.1,243.5 L 194.6,244.3 L 193.8,244.9 L 193.7,245.2 L 193.8,245.4 L 193.7,245.5 L 193.6,245.7 L 193.6,245.7 L 194.0,246.0 L 194.1,246.4 L 193.9,246.5 L 193.9,247.2 L 194.2,247.4 L 194.2,247.5 L 193.7,247.8 L 193.6,248.1 L 193.9,248.5 L 195.1,248.6 L 195.4,248.8 L 195.6,249.1 L 195.6,249.8 L 195.5,250.1 L 195.1,250.4 L 194.2,251.0 L 193.5,251.7 L 192.9,252.0 L 192.7,252.3 L 192.1,252.4 L 191.3,252.5 L 190.7,252.6 L 190.2,252.5 L 189.3,252.6 L 188.9,252.8 L 188.5,253.2 L 187.6,253.9 L 187.0,254.0 L 185.6,253.9 L 185.4,253.9 L 183.6,254.7 L 182.8,255.1 L 182.5,255.4 L 181.6,256.2 L 181.6,256.5 L 182.3,256.9 L 182.3,257.4 L 182.4,257.5 L 182.7,257.4 L 183.0,257.3 L 183.1,257.4 L 182.6,258.2 L 181.8,258.8 L 181.6,259.1 L 181.1,259.4 L 181.1,259.7 L 181.1,259.9 L 181.1,260.5 L 180.8,260.8 L 180.3,260.8 L 179.8,260.9 L 179.4,261.2 L 179.0,261.5 L 178.9,261.6 L 179.1,261.8 L 179.2,262.0 L 179.5,262.3 L 179.5,262.7 L 179.4,262.8 L 178.7,263.1 L 178.5,263.2 L 178.6,263.6 L 178.4,263.9 L 178.2,264.0 L 177.8,264.1 L 176.7,264.4 L 176.6,264.8 L 176.3,265.0 L 175.9,265.1 L 175.7,265.2 L 175.4,265.4 L 175.2,265.7 L 174.3,265.9 L 173.9,266.4 L 173.0,266.8 L 172.9,267.3 L 172.5,267.6 L 172.3,267.9 L 172.1,268.0 L 171.9,268.3 L 171.5,268.6 L 171.1,268.6 L 171.0,268.4 L 171.0,268.2 L 171.1,268.1 L 170.8,267.9 L 170.4,267.9 L 170.4,268.2 L 169.9,268.3 L 169.8,268.5 L 170.0,268.8 L 169.9,269.0 L 169.8,269.4 L 169.2,269.5 L 168.6,269.8 L 168.2,270.1 L 167.5,270.5 L 166.8,271.3 L 166.1,271.9 L 165.9,272.3 L 165.8,272.8 L 165.8,273.0 L 166.4,273.2 L 167.0,273.6 L 167.3,273.9 L 167.3,274.6 L 167.4,274.8 L 167.9,274.6 L 168.3,274.7 L 168.4,275.0 L 168.6,276.7 L 168.3,277.0 L 167.8,277.3 L 167.1,277.5 L 166.6,277.8 L 166.6,278.1 L 166.4,278.3 L 166.0,279.5 L 165.9,279.7 L 165.4,280.0 L 163.5,280.8 L 162.2,281.5 L 161.5,281.4 L 161.2,281.5 L 160.4,281.8 L 159.6,282.4 L 159.5,282.7 L 159.4,283.0 L 158.4,283.7 L 158.4,283.7 L 158.2,283.9 L 158.1,284.0 L 158.1,284.2 L 158.4,284.2 L 158.6,284.7 L 158.9,285.6 L 159.1,285.8 L 159.6,285.8 L 160.2,285.7 L 160.6,285.2 L 160.7,284.8 L 161.6,284.8 L 162.1,285.4 L 162.2,285.7 L 162.5,286.2 L 162.8,286.6 L 162.8,286.9 L 162.4,287.7 L 162.3,289.8 L 162.2,290.5 L 162.1,290.6 L 161.5,291.5 L 161.5,291.7 L 161.5,293.3 L 161.4,294.3 L 161.3,294.6 L 161.1,295.1 L 160.8,295.4 L 159.0,296.4 L 158.0,296.6 L 157.5,296.9 L 156.9,297.5 L 156.5,298.1 L 156.4,298.9 L 156.4,299.1 L 155.5,300.0 L 154.5,300.5 L 154.1,300.5 L 153.8,300.1 L 153.5,300.1 L 153.1,300.4 L 152.7,300.5 L 152.4,300.7 L 152.4,301.0 L 152.2,301.1 L 151.8,301.3 L 151.8,300.9 L 151.6,300.9 L 150.4,301.3 L 149.7,301.6 L 149.5,301.9 L 149.0,302.3 L 148.3,302.6 L 147.6,302.5 L 147.4,302.3 L 147.1,302.1 L 146.2,302.5 L 145.7,302.6 L 145.3,302.8 L 145.2,302.9 L 145.4,303.1 L 145.5,303.4 L 145.1,303.9 L 144.6,304.2 L 144.2,304.5 L 143.0,305.0 L 142.0,305.1 L 141.8,305.1 L 140.9,305.3 L 140.4,305.7 L 139.7,306.2 L 139.2,306.1 L 138.8,305.8 L 138.5,305.2 L 138.4,305.1 L 138.3,304.9 L 138.2,304.9 L 138.2,304.7 L 138.3,303.9 L 138.7,303.0 L 139.2,302.5 L 140.0,301.9 L 140.2,301.6 L 140.3,300.7 L 140.1,300.3 L 139.6,300.1 L 139.0,300.2 L 138.5,300.2 L 138.0,300.3 L 137.4,300.1 L 136.2,299.1 L 135.9,298.6 L 135.7,298.1 L 135.7,297.9 L 135.8,297.0 L 136.0,296.3 L 136.7,295.8 L 137.0,295.0 L 137.6,293.9 L 138.2,293.3 L 139.0,292.9 L 139.7,292.8 L 141.3,292.3 L 142.3,291.9 L 142.6,291.9 L 142.8,291.7 L 143.2,291.6 L 144.2,290.9 L 144.7,290.5 L 144.7,290.1 L 144.7,290.1 L 144.4,289.8 L 144.5,289.6 L 144.2,288.9 L 144.0,288.9 L 142.4,289.4 L 141.8,289.4 L 141.2,289.1 L 140.9,288.8 L 141.3,288.2 L 141.3,287.8 L 141.1,287.7 L 140.2,287.6 L 139.8,287.4 L 138.6,287.3 L 138.4,286.9 L 138.3,286.6 L 138.1,285.6 L 138.1,285.2 L 138.4,285.1 L 139.1,285.0 L 139.7,284.7 L 139.7,284.4 L 140.0,284.3 L 140.0,283.8 L 139.7,282.9 L 139.3,282.6 L 138.5,282.2 L 138.2,282.0 L 137.5,282.3 L 135.9,282.6 L 135.0,282.5 L 134.0,282.9 L 133.9,282.9 L 132.9,282.8 L 132.1,282.9 L 131.8,282.4 L 131.4,282.2 L 131.1,281.5 L 130.9,281.1 L 130.8,280.8 L 130.7,280.6 L 130.5,280.9 L 130.2,280.7 L 130.0,280.9 L 129.9,280.9 L 129.0,281.0 L 127.9,281.2 L 127.0,281.1 L 126.7,281.4 L 126.0,281.3 L 125.7,281.5 L 125.6,281.6 L 125.6,282.1 L 125.5,282.3 L 125.1,282.1 L 124.7,281.7 L 124.4,281.7 L 123.3,281.7 L 122.8,282.2 L 121.1,282.3 L 119.8,282.7 L 119.3,283.0 L 119.1,283.6 L 118.3,283.6 L 116.3,284.0 L 115.3,284.6 L 114.6,284.8 L 114.1,284.6 L 113.6,284.3 L 113.1,284.2 L 112.1,284.4 L 111.0,284.7 L 110.6,285.0 L 109.8,284.9 L 108.7,285.1 L 107.8,285.0 L 107.5,285.2 L 106.4,285.4 L 105.9,285.3 L 105.8,285.2 L 105.3,285.1 L 105.0,285.2 L 104.4,285.2 L 104.2,285.3 L 104.1,285.7 L 103.8,285.6 L 103.7,285.3 L 103.2,285.2 L 102.9,285.5 L 102.6,285.8 L 101.6,285.9 L 101.4,286.1 L 101.2,286.2 L 99.8,286.5 L 98.7,286.9 L 97.9,287.5 L 97.4,287.6 L 97.3,287.8 L 97.4,288.0 L 97.4,288.1 L 97.2,288.6 L 96.7,289.0 L 96.6,289.4 L 96.7,290.0 L 96.8,290.7 L 97.1,291.4 L 97.1,291.7 L 96.9,292.3 L 96.9,292.4 L 96.2,292.8 L 94.1,294.4 L 93.9,294.3 L 93.3,294.8 L 92.9,295.2 L 92.7,295.2 L 91.9,294.6 L 91.2,294.4 L 87.6,293.6 L 87.0,293.5 L 85.4,293.9 L 84.3,294.1 L 83.9,294.1 L 83.8,294.1 L 81.6,294.7 L 81.1,294.9 L 80.7,295.1 L 80.1,295.3 L 78.4,295.7 L 77.5,296.1 L 76.9,296.5 L 76.6,296.1 L 52.4,258.6 L 52.6,258.4 L 52.8,258.0 L 52.8,257.9 L 52.8,257.6 L 52.7,257.3 L 52.5,257.1 L 52.2,257.0 L 52.0,257.1 L 51.9,257.3 L 51.8,257.6 L 40.0,239.4 L 40.0,239.4" fill="none" stroke="black" stroke-width="2"/>
</svg>