<?xml version="1.0" encoding="UTF-8"?>
<svg width="400" height="400" viewBox="0 0 400 400" xmlns="http://www.w3.org/2000/svg">
  <rect width="400" height="400" fill="white"/>
  <path d="M 144.6,167.3 L 143.6,160.5 L 143.5,154.4 L 144.7,150.7 L 146.9,146.8 L 150.8,142.2 L 151.1,141.3 L 151.5,140.5 L 152.1,137.4 L 154.8,132.9 L 157.9,129.2 L 158.5,127.0 L 158.3,124.3 L 158.6,122.2 L 159.7,119.2 L 160.2,116.8 L 161.3,115.5 L 163.7,112.4 L 164.3,110.3 L 166.1,106.7 L 167.6,103.1 L 168.3,99.0 L 167.4,96.9 L 166.3,90.9 L 166.2,89.8 L 166.2,89.5 L 165.2,86.5 L 165.5,83.6 L 166.1,82.6 L 168.3,81.4 L 167.8,80.9 L 165.8,80.4 L 166.4,78.9 L 167.5,78.1 L 168.7,75.4 L 170.2,73.6 L 172.5,71.7 L 174.7,69.8 L 175.7,69.8 L 176.1,69.9 L 179.1,68.3 L 180.8,61.4 L 178.1,57.8 L 236.2,40.1 L 236.4,40.0 L 236.9,41.1 L 238.4,41.5 L 243.0,44.2 L 244.6,45.6 L 245.5,47.0 L 245.4,47.4 L 245.6,50.2 L 242.6,50.9 L 242.1,53.1 L 242.2,55.6 L 243.2,56.8 L 243.8,58.2 L 243.6,59.1 L 244.1,61.2 L 244.5,61.4 L 245.7,64.1 L 246.5,64.6 L 247.1,64.9 L 247.0,67.3 L 247.0,67.5 L 247.0,67.7 L 246.9,68.6 L 246.0,73.8 L 244.7,79.4 L 243.8,81.7 L 243.1,85.3 L 242.2,86.9 L 240.9,89.2 L 239.5,90.5 L 238.5,93.0 L 235.9,98.0 L 231.8,101.8 L 230.6,102.2 L 229.8,101.3 L 227.4,103.1 L 228.0,103.4 L 227.3,104.3 L 228.2,104.9 L 226.4,106.4 L 220.4,110.7 L 219.7,110.0 L 219.1,110.7 L 219.6,111.3 L 219.0,112.2 L 219.3,112.9 L 218.2,113.5 L 217.3,112.2 L 215.0,114.0 L 212.9,118.1 L 212.0,119.4 L 214.5,121.9 L 213.3,123.5 L 212.7,123.9 L 212.3,125.2 L 211.6,126.3 L 210.7,127.1 L 210.4,127.8 L 210.9,128.5 L 210.7,129.8 L 211.4,130.4 L 212.4,133.7 L 212.0,134.8 L 212.5,135.6 L 213.7,134.4 L 215.1,134.4 L 215.8,135.0 L 214.8,136.6 L 215.0,138.2 L 216.5,138.8 L 216.7,139.5 L 215.4,140.9 L 217.4,147.5 L 217.6,150.0 L 217.6,151.7 L 219.2,158.8 L 222.2,164.6 L 222.6,167.1 L 221.1,167.4 L 220.9,168.0 L 219.7,172.0 L 218.9,173.3 L 219.5,174.3 L 220.8,176.8 L 220.7,179.3 L 220.1,180.8 L 218.2,182.4 L 214.9,182.3 L 211.7,183.5 L 211.6,184.6 L 212.7,186.5 L 214.8,187.6 L 214.3,191.4 L 210.4,195.9 L 207.2,198.7 L 201.1,203.3 L 199.7,204.6 L 196.7,204.2 L 196.1,204.3 L 195.6,205.6 L 195.3,209.3 L 196.6,209.8 L 198.0,210.7 L 199.1,211.0 L 201.1,213.6 L 202.7,214.8 L 203.9,216.6 L 204.1,216.9 L 204.8,221.5 L 206.3,223.6 L 207.3,226.9 L 210.3,230.9 L 210.6,232.4 L 212.6,236.5 L 217.4,242.1 L 219.8,243.0 L 224.2,248.9 L 225.7,250.3 L 229.3,256.1 L 232.0,259.2 L 233.7,263.0 L 240.2,275.3 L 243.5,282.1 L 246.6,296.4 L 248.5,302.4 L 248.7,303.8 L 251.2,309.2 L 254.5,318.8 L 255.5,321.9 L 256.8,329.1 L 256.4,333.3 L 256.6,335.2 L 256.9,337.2 L 256.6,339.8 L 255.7,341.6 L 254.5,342.8 L 253.3,341.8 L 252.8,343.5 L 252.3,344.6 L 249.8,346.0 L 247.7,347.5 L 244.5,351.8 L 238.5,356.0 L 237.4,357.3 L 234.1,360.0 L 234.1,360.0 L 233.6,359.8 L 218.9,352.5 L 219.3,350.2 L 217.4,341.1 L 216.1,337.4 L 215.7,335.0 L 215.8,331.5 L 215.1,326.5 L 215.6,320.6 L 215.0,318.1 L 214.4,315.5 L 214.8,313.6 L 215.9,311.7 L 216.0,311.3 L 216.1,310.0 L 213.9,303.2 L 213.9,300.9 L 212.3,302.3 L 211.8,302.0 L 212.4,300.8 L 212.3,299.8 L 211.0,299.6 L 209.0,299.9 L 206.3,294.4 L 204.7,293.2 L 204.9,292.3 L 205.5,291.0 L 204.7,289.4 L 202.8,288.0 L 200.8,285.8 L 197.6,284.1 L 191.0,278.8 L 189.5,276.8 L 189.2,272.9 L 188.5,271.0 L 187.9,270.0 L 187.8,269.2 L 186.7,268.9 L 185.4,267.3 L 182.1,264.4 L 180.5,263.3 L 179.6,262.0 L 174.7,261.0 L 172.9,260.1 L 170.9,258.0 L 169.6,254.4 L 169.4,253.9 L 168.8,253.1 L 161.4,253.3 L 156.6,250.5 L 156.1,249.7 L 155.8,248.2 L 153.7,245.4 L 151.7,238.4 L 151.7,236.5 L 151.1,232.4 L 148.2,220.2 L 146.4,214.8 L 145.6,211.1 L 145.3,208.7 L 144.8,205.3 L 145.2,200.7 L 146.0,197.8 L 147.0,195.4 L 147.0,193.9 L 146.0,190.7 L 145.9,188.4 L 144.7,185.2 L 144.4,183.2 L 143.5,181.5 L 143.1,178.8 L 144.6,167.3" fill="none" stroke="black" stroke-width="2"/>
</svg>