<?xml version="1.0" encoding="UTF-8"?>
<svg width="400" height="400" viewBox="0 0 400 400" xmlns="http://www.w3.org/2000/svg">
  <rect width="400" height="400" fill="white"/>
  <path d="M 162.3,241.0 L 162.8,240.9 L 164.5,239.6 L 165.8,238.3 L 166.2,237.6 L 167.6,236.4 L 168.8,235.2 L 169.1,234.4 L 169.8,233.1 L 170.1,232.7 L 171.0,231.7 L 171.2,231.3 L 171.9,230.8 L 172.4,230.3 L 174.0,229.6 L 174.9,228.5 L 176.2,228.0 L 176.4,227.6 L 177.2,227.0 L 177.5,226.9 L 177.8,226.4 L 178.8,225.4 L 179.7,224.3 L 179.8,223.9 L 180.1,223.5 L 179.9,222.6 L 180.7,222.2 L 180.9,221.6 L 181.4,221.2 L 181.5,220.9 L 182.4,219.5 L 182.7,217.5 L 182.8,217.1 L 183.6,216.9 L 183.9,216.2 L 184.4,215.4 L 184.7,214.7 L 185.0,214.3 L 185.3,213.4 L 185.6,212.9 L 185.7,211.9 L 187.5,210.5 L 188.3,210.1 L 190.1,208.2 L 190.9,208.0 L 191.7,207.1 L 191.8,206.5 L 192.0,206.1 L 192.1,205.8 L 193.3,204.9 L 194.9,203.9 L 195.5,203.7 L 195.9,203.3 L 196.0,202.8 L 196.2,202.7 L 197.6,201.6 L 198.7,200.4 L 199.0,199.9 L 199.5,199.6 L 200.0,199.3 L 200.3,198.6 L 200.8,198.3 L 201.0,198.1 L 201.4,197.8 L 201.6,197.5 L 201.8,197.3 L 202.0,197.2 L 202.1,197.1 L 202.4,196.6 L 202.6,196.5 L 203.0,195.9 L 203.5,195.6 L 203.6,195.2 L 204.2,194.9 L 204.3,194.6 L 204.4,194.3 L 206.1,193.2 L 206.7,193.0 L 207.0,192.4 L 207.8,192.1 L 209.6,191.2 L 209.9,191.1 L 210.7,191.0 L 211.7,191.1 L 214.4,190.2 L 214.6,190.1 L 215.7,189.4 L 217.5,188.0 L 217.8,187.4 L 217.9,186.9 L 218.8,185.7 L 220.0,185.0 L 220.7,184.5 L 220.8,184.2 L 221.2,184.0 L 221.3,183.2 L 222.9,181.0 L 223.4,180.9 L 223.8,180.8 L 224.3,180.5 L 224.6,180.3 L 225.6,179.7 L 225.8,179.6 L 226.3,179.3 L 226.9,179.1 L 227.3,179.0 L 227.7,178.8 L 228.4,178.5 L 228.7,178.5 L 229.3,178.8 L 229.6,178.9 L 230.5,178.7 L 230.8,178.6 L 231.0,178.3 L 231.1,178.0 L 231.0,177.9 L 230.8,177.8 L 230.1,177.8 L 229.7,178.0 L 229.5,177.9 L 229.5,177.8 L 229.6,177.6 L 230.1,177.3 L 230.1,177.3 L 230.5,177.0 L 231.0,176.8 L 231.2,176.8 L 231.3,176.9 L 231.4,177.2 L 231.5,177.2 L 231.7,177.2 L 231.9,177.1 L 231.9,177.0 L 231.9,176.6 L 232.0,176.5 L 232.2,176.4 L 234.1,175.7 L 235.4,175.2 L 236.5,174.8 L 237.6,174.2 L 238.7,173.9 L 239.8,173.7 L 241.9,172.9 L 243.4,172.7 L 245.9,172.6 L 247.2,172.3 L 249.3,171.4 L 251.2,170.1 L 252.0,169.6 L 252.2,169.2 L 252.9,168.8 L 254.2,167.7 L 254.3,167.2 L 254.8,166.8 L 255.0,166.4 L 255.7,166.1 L 255.8,165.4 L 256.9,163.8 L 257.5,163.3 L 258.2,162.3 L 258.4,161.8 L 258.7,161.0 L 258.9,160.9 L 259.1,160.6 L 259.2,160.2 L 259.4,160.0 L 260.1,159.3 L 260.8,158.5 L 261.1,157.9 L 261.0,157.3 L 261.3,156.8 L 261.7,153.7 L 262.2,152.8 L 263.0,151.5 L 263.1,150.6 L 263.4,148.2 L 263.9,146.0 L 264.1,145.2 L 264.0,144.6 L 264.1,144.3 L 264.4,144.1 L 264.5,143.9 L 265.1,140.1 L 265.2,137.4 L 265.3,136.8 L 265.3,135.3 L 265.2,133.3 L 264.8,131.1 L 264.7,130.3 L 264.6,129.8 L 264.2,127.2 L 264.0,124.9 L 264.1,124.5 L 264.8,124.1 L 265.1,122.5 L 265.0,121.9 L 265.2,121.6 L 265.8,118.5 L 265.7,118.3 L 266.2,115.4 L 266.5,114.7 L 266.6,112.8 L 266.8,112.1 L 266.8,111.9 L 267.0,110.5 L 267.0,110.1 L 267.1,109.2 L 267.2,107.2 L 267.0,105.7 L 266.4,105.2 L 265.8,104.7 L 265.8,104.7 L 265.5,104.1 L 265.4,103.9 L 264.6,103.8 L 264.3,103.5 L 264.2,103.4 L 263.5,103.1 L 263.0,102.6 L 262.7,102.1 L 262.6,101.6 L 262.6,100.9 L 262.5,100.1 L 262.6,99.5 L 262.7,98.9 L 262.9,98.3 L 263.1,97.6 L 263.2,97.0 L 263.2,96.4 L 263.2,95.8 L 263.3,95.1 L 263.2,94.5 L 263.2,94.0 L 263.2,93.7 L 263.1,93.3 L 263.1,93.0 L 263.1,92.4 L 263.2,92.2 L 263.5,91.7 L 263.7,91.3 L 263.7,91.2 L 264.0,90.5 L 264.1,90.2 L 264.3,90.0 L 264.4,89.6 L 264.5,89.4 L 264.7,88.9 L 264.7,88.8 L 264.9,88.4 L 265.0,88.3 L 265.2,87.8 L 265.5,87.2 L 265.7,86.5 L 265.6,85.7 L 265.4,85.4 L 265.4,85.2 L 265.3,84.4 L 265.1,83.9 L 264.8,83.4 L 264.4,82.9 L 264.3,82.7 L 264.2,82.0 L 264.0,81.4 L 263.7,80.9 L 263.3,80.2 L 263.1,79.6 L 263.1,79.0 L 262.9,78.5 L 262.7,77.9 L 262.9,77.6 L 263.0,77.5 L 262.9,77.2 L 262.9,76.9 L 262.7,76.3 L 262.6,75.7 L 262.5,75.5 L 262.5,75.4 L 262.4,74.9 L 262.4,74.2 L 262.6,73.7 L 262.8,73.1 L 263.0,72.9 L 263.1,72.1 L 263.1,71.6 L 263.2,71.0 L 263.0,70.4 L 262.9,69.8 L 262.7,69.3 L 262.6,68.7 L 262.3,68.1 L 262.1,67.9 L 261.9,67.4 L 261.7,66.9 L 261.7,66.6 L 261.7,66.0 L 261.6,65.4 L 261.4,64.8 L 261.3,64.2 L 261.1,63.6 L 261.0,63.3 L 260.9,63.0 L 260.6,62.3 L 260.1,61.8 L 259.7,61.4 L 259.5,61.3 L 259.1,60.6 L 258.9,60.3 L 258.9,59.6 L 258.8,59.0 L 258.7,58.3 L 258.6,57.6 L 258.4,57.0 L 258.3,56.3 L 258.2,56.1 L 257.7,55.8 L 257.7,55.8 L 257.7,55.6 L 257.8,54.9 L 257.8,54.7 L 257.8,54.5 L 257.5,54.2 L 256.8,53.8 L 256.7,53.2 L 256.6,52.5 L 256.5,51.8 L 256.4,51.0 L 256.4,50.4 L 256.3,49.7 L 256.4,49.5 L 256.4,49.1 L 256.5,48.7 L 256.2,48.0 L 256.1,47.9 L 255.9,47.2 L 255.5,46.6 L 255.4,46.2 L 255.4,46.2 L 255.8,45.9 L 255.9,45.7 L 256.0,45.1 L 256.0,44.3 L 255.9,43.9 L 256.0,43.2 L 256.1,42.5 L 256.1,41.8 L 256.2,41.2 L 256.3,40.7 L 256.3,40.5 L 256.2,40.0 L 256.4,40.0 L 299.5,51.1 L 306.3,52.9 L 306.2,53.9 L 306.3,54.5 L 305.8,56.1 L 304.9,57.0 L 304.7,57.9 L 304.7,59.0 L 304.5,59.8 L 304.5,59.8 L 304.5,59.9 L 302.8,62.0 L 302.0,63.2 L 301.2,63.9 L 301.0,64.5 L 300.2,66.8 L 299.9,67.9 L 300.0,68.3 L 300.0,68.9 L 299.8,69.5 L 299.6,70.6 L 299.7,71.3 L 299.4,74.0 L 298.8,74.2 L 298.7,74.5 L 298.9,74.7 L 298.9,75.4 L 299.1,75.9 L 299.1,76.3 L 299.1,76.8 L 298.9,78.3 L 299.1,79.4 L 299.1,80.8 L 299.0,82.1 L 299.1,83.4 L 299.5,84.7 L 299.3,85.9 L 298.7,87.2 L 298.4,88.7 L 298.8,91.7 L 298.4,94.4 L 298.4,94.5 L 298.2,95.0 L 298.0,96.0 L 297.6,97.1 L 298.0,98.1 L 298.1,99.0 L 298.4,99.5 L 297.7,102.1 L 297.6,103.0 L 297.9,104.0 L 297.9,104.5 L 298.0,105.2 L 297.8,106.7 L 297.8,106.8 L 297.5,107.3 L 297.5,107.4 L 296.8,107.8 L 296.5,107.8 L 296.2,107.9 L 296.1,108.3 L 295.4,109.3 L 295.2,111.0 L 295.3,111.7 L 294.9,112.2 L 294.5,113.9 L 294.5,114.9 L 295.2,116.3 L 295.8,117.6 L 297.3,118.3 L 298.1,118.7 L 298.4,119.3 L 298.7,120.4 L 298.8,121.5 L 299.2,122.6 L 299.7,123.3 L 299.5,123.6 L 299.3,125.6 L 299.0,126.0 L 298.8,127.3 L 299.2,127.9 L 299.0,129.6 L 299.8,132.0 L 300.4,132.2 L 300.5,132.2 L 300.9,132.9 L 301.1,133.6 L 301.2,134.0 L 301.1,134.8 L 301.2,135.0 L 301.3,135.3 L 301.4,135.9 L 301.0,138.0 L 301.0,140.1 L 300.9,140.8 L 300.6,141.3 L 300.0,141.9 L 299.4,143.8 L 299.3,143.9 L 299.2,145.0 L 299.0,145.6 L 299.1,145.9 L 299.1,146.5 L 298.7,146.8 L 298.1,148.1 L 297.6,148.4 L 296.9,149.2 L 296.8,149.9 L 296.3,150.8 L 296.2,152.2 L 295.6,153.6 L 295.4,154.8 L 295.0,156.0 L 294.8,157.6 L 294.4,161.0 L 294.5,162.1 L 294.4,163.5 L 294.6,163.8 L 293.4,166.6 L 293.3,167.6 L 292.8,169.6 L 292.6,169.9 L 292.3,171.2 L 292.0,173.4 L 292.1,174.0 L 291.9,174.4 L 291.6,176.3 L 291.8,176.7 L 291.5,177.7 L 291.4,178.5 L 291.4,179.6 L 291.0,180.9 L 290.4,181.6 L 290.5,182.0 L 289.8,183.5 L 289.4,184.9 L 288.6,186.5 L 288.3,187.2 L 288.0,187.7 L 287.5,188.4 L 287.1,189.3 L 286.2,190.8 L 286.0,191.5 L 284.8,193.2 L 284.2,194.7 L 283.3,196.5 L 283.2,197.1 L 283.0,197.4 L 282.2,198.4 L 281.0,199.3 L 278.9,200.4 L 277.9,201.0 L 276.7,202.2 L 275.7,203.6 L 275.1,204.5 L 273.2,208.0 L 273.1,208.3 L 273.0,208.4 L 272.8,208.7 L 272.1,209.6 L 271.3,210.6 L 271.2,210.5 L 271.1,210.4 L 271.1,210.4 L 271.0,210.5 L 270.8,210.7 L 270.8,210.8 L 270.9,210.9 L 270.9,211.0 L 270.8,211.1 L 270.5,211.5 L 270.2,211.7 L 269.1,212.7 L 268.1,213.6 L 266.9,214.4 L 266.2,215.1 L 262.0,218.1 L 257.4,221.9 L 256.7,222.3 L 256.7,222.3 L 256.4,222.4 L 256.0,223.0 L 255.6,223.3 L 255.3,223.6 L 254.8,224.1 L 254.1,224.9 L 253.3,225.6 L 253.2,225.8 L 252.8,226.3 L 251.7,227.1 L 250.7,227.6 L 250.1,228.3 L 247.3,230.4 L 245.9,231.2 L 244.8,231.8 L 242.9,233.1 L 240.3,234.7 L 237.9,235.9 L 235.6,237.4 L 234.2,238.7 L 233.7,238.9 L 231.9,240.3 L 231.2,240.3 L 230.9,240.8 L 230.1,241.4 L 229.3,241.7 L 227.5,243.1 L 225.9,244.0 L 223.5,245.6 L 222.7,245.8 L 221.1,246.9 L 220.6,247.3 L 219.0,248.4 L 218.2,248.8 L 216.8,249.9 L 215.0,250.9 L 213.8,252.1 L 213.7,252.4 L 212.9,252.9 L 212.0,253.1 L 211.2,253.7 L 210.3,254.1 L 209.0,254.9 L 208.3,255.2 L 207.4,256.5 L 206.7,257.2 L 205.9,259.0 L 205.6,259.4 L 205.6,259.4 L 205.1,259.8 L 205.0,260.5 L 204.8,260.9 L 204.3,262.4 L 203.5,264.1 L 203.2,265.2 L 202.0,267.2 L 201.6,268.5 L 201.6,268.5 L 201.3,269.3 L 201.1,270.8 L 200.5,272.2 L 199.4,274.8 L 198.9,276.0 L 198.5,276.5 L 198.5,276.8 L 198.4,277.4 L 198.0,277.6 L 197.9,278.3 L 197.6,278.6 L 197.5,278.8 L 197.3,279.5 L 196.4,280.9 L 195.4,282.0 L 193.0,285.8 L 192.0,287.8 L 192.1,288.3 L 191.4,289.1 L 191.1,290.0 L 189.5,293.2 L 188.7,293.8 L 188.1,294.3 L 187.5,295.2 L 186.1,296.5 L 183.8,300.1 L 183.0,301.5 L 182.3,302.1 L 181.3,302.8 L 180.6,303.5 L 180.6,303.7 L 179.3,304.8 L 178.3,305.5 L 178.2,305.9 L 177.7,306.3 L 177.3,307.2 L 176.2,308.6 L 176.1,308.9 L 175.4,309.4 L 175.4,309.7 L 174.5,310.4 L 174.3,310.6 L 174.2,311.1 L 173.8,311.5 L 173.5,312.1 L 173.0,312.6 L 172.4,313.5 L 171.9,314.0 L 171.2,315.2 L 170.6,315.8 L 170.0,317.1 L 169.7,317.5 L 169.4,318.1 L 168.7,319.2 L 168.5,321.0 L 168.3,321.2 L 168.4,321.6 L 167.8,322.3 L 167.4,323.1 L 167.3,323.7 L 167.6,324.2 L 167.3,324.8 L 167.4,325.8 L 167.3,326.6 L 165.0,330.6 L 164.9,330.7 L 163.4,331.3 L 162.8,332.0 L 162.5,332.7 L 162.1,333.3 L 161.4,334.0 L 161.2,335.8 L 161.2,335.9 L 161.5,336.3 L 161.5,337.0 L 161.5,337.0 L 161.5,337.0 L 130.2,359.5 L 128.9,359.3 L 127.2,359.1 L 126.5,359.3 L 125.6,359.6 L 123.7,359.8 L 123.2,360.0 L 122.3,359.7 L 121.3,359.8 L 121.0,359.8 L 120.7,359.8 L 120.4,359.9 L 93.7,338.6 L 94.0,338.2 L 94.7,337.9 L 95.0,337.7 L 95.3,337.7 L 95.4,337.7 L 95.7,337.6 L 96.1,337.1 L 96.3,336.7 L 96.8,336.3 L 97.5,336.0 L 98.1,335.7 L 98.8,335.3 L 99.4,334.9 L 100.0,334.5 L 100.6,334.1 L 101.2,333.7 L 101.7,333.3 L 102.2,333.0 L 102.7,332.6 L 103.3,332.2 L 103.7,331.9 L 104.2,331.5 L 104.8,331.0 L 105.2,330.7 L 105.3,330.5 L 105.9,330.1 L 106.5,329.6 L 106.9,329.1 L 107.4,328.7 L 108.0,328.2 L 108.7,327.9 L 109.2,327.5 L 109.7,327.1 L 110.1,326.6 L 110.5,326.2 L 111.1,325.8 L 111.5,325.2 L 112.0,324.6 L 112.5,324.1 L 112.9,323.6 L 113.4,323.1 L 113.9,322.7 L 114.3,322.2 L 114.7,321.7 L 115.2,321.3 L 115.7,320.8 L 116.0,320.4 L 116.5,320.0 L 116.7,319.7 L 116.8,319.4 L 116.8,318.9 L 116.8,318.8 L 117.3,318.2 L 117.7,317.8 L 118.3,317.3 L 118.7,316.9 L 119.2,316.4 L 119.6,316.0 L 119.8,315.7 L 119.9,315.2 L 119.9,315.1 L 119.9,315.0 L 119.7,314.4 L 119.8,313.7 L 120.1,313.1 L 120.4,312.4 L 120.7,311.8 L 121.1,311.3 L 121.5,310.7 L 121.9,310.1 L 122.3,309.4 L 122.6,309.0 L 122.7,308.8 L 123.0,308.4 L 123.3,307.8 L 123.6,307.1 L 123.8,306.9 L 124.1,306.3 L 124.3,305.6 L 124.4,304.9 L 124.5,304.3 L 124.5,303.9 L 124.8,303.3 L 125.0,302.8 L 125.4,302.1 L 125.7,301.5 L 126.1,301.0 L 126.5,300.6 L 126.8,300.0 L 127.3,299.4 L 127.6,298.9 L 128.2,298.3 L 128.3,298.2 L 128.4,297.5 L 128.6,296.7 L 128.9,296.1 L 129.1,295.4 L 129.3,294.8 L 129.4,294.1 L 129.5,293.5 L 129.6,292.8 L 129.9,292.1 L 130.0,291.4 L 130.1,290.7 L 130.0,290.0 L 130.0,289.8 L 129.9,289.3 L 129.7,288.7 L 129.4,288.0 L 129.3,287.5 L 129.3,287.3 L 129.7,286.6 L 129.8,286.0 L 129.9,285.5 L 130.0,285.4 L 130.1,284.8 L 130.2,284.0 L 130.2,283.4 L 130.3,282.6 L 130.3,282.4 L 130.7,281.7 L 130.7,281.5 L 130.8,281.2 L 130.5,280.6 L 130.5,280.2 L 130.7,279.8 L 130.9,279.4 L 130.9,279.1 L 131.0,278.8 L 131.1,277.6 L 131.1,276.8 L 131.2,275.8 L 131.8,274.7 L 132.0,274.0 L 132.8,273.0 L 133.1,271.6 L 133.4,271.1 L 133.6,270.9 L 133.7,270.3 L 134.1,270.2 L 134.3,269.5 L 134.6,269.3 L 134.9,269.0 L 135.1,268.6 L 136.4,267.3 L 136.8,267.1 L 137.1,266.6 L 137.7,266.1 L 137.9,265.5 L 138.3,265.1 L 138.7,264.2 L 139.2,263.7 L 139.8,263.2 L 139.9,263.1 L 140.6,262.0 L 141.2,261.5 L 141.4,261.3 L 141.9,260.9 L 142.2,260.2 L 142.6,259.9 L 143.0,259.9 L 143.3,259.7 L 143.9,259.7 L 144.2,259.2 L 145.9,258.2 L 146.4,258.2 L 146.9,257.8 L 147.2,257.3 L 148.0,256.7 L 148.2,255.9 L 148.6,255.4 L 149.3,254.4 L 149.6,254.2 L 150.0,253.9 L 150.4,253.8 L 150.9,253.1 L 151.5,252.7 L 151.6,252.5 L 151.9,252.3 L 152.4,251.9 L 152.5,251.6 L 153.6,250.5 L 153.8,250.1 L 154.2,249.9 L 154.4,249.6 L 155.2,249.0 L 155.5,248.5 L 156.5,247.6 L 157.7,245.9 L 157.9,245.3 L 158.8,244.4 L 159.3,243.8 L 159.9,243.3 L 160.1,243.2 L 160.2,242.9 L 160.7,242.4 L 160.7,242.2 L 161.9,241.5 L 162.1,241.3 L 162.3,241.0" fill="none" stroke="black" stroke-width="2"/>
</svg>