<?xml version="1.0" encoding="UTF-8"?>
<svg width="400" height="400" viewBox="0 0 400 400" xmlns="http://www.w3.org/2000/svg">
  <rect width="400" height="400" fill="white"/>
  <path d="M 129.6,188.4 L 129.7,187.6 L 129.6,187.2 L 129.6,186.9 L 129.4,186.6 L 128.8,186.2 L 129.0,185.9 L 128.4,185.4 L 128.2,184.7 L 127.8,185.0 L 127.5,184.9 L 126.6,183.7 L 126.6,183.2 L 126.6,182.4 L 126.2,181.7 L 126.3,180.5 L 126.5,179.9 L 126.5,179.1 L 126.6,178.5 L 125.4,177.9 L 125.1,177.4 L 125.2,176.9 L 125.8,176.5 L 126.0,176.5 L 126.2,176.3 L 126.2,175.8 L 125.9,175.0 L 125.3,174.9 L 124.1,175.2 L 123.4,174.9 L 123.3,174.8 L 122.8,174.3 L 122.3,173.4 L 122.1,171.9 L 122.2,170.9 L 122.4,170.1 L 123.0,168.8 L 123.3,168.5 L 123.1,168.1 L 123.4,167.5 L 123.1,167.1 L 122.6,167.1 L 122.6,167.1 L 121.6,166.1 L 120.8,165.7 L 119.2,163.8 L 118.9,163.4 L 118.5,162.9 L 118.1,162.3 L 118.1,161.8 L 118.3,161.0 L 118.4,160.6 L 118.5,159.6 L 118.9,158.1 L 119.1,157.8 L 119.3,156.9 L 120.1,156.5 L 120.9,156.2 L 121.5,155.6 L 121.3,155.2 L 120.4,154.7 L 119.4,154.2 L 119.0,154.1 L 118.4,153.7 L 118.4,153.5 L 118.0,153.2 L 118.0,152.9 L 118.5,152.6 L 118.2,152.2 L 116.8,152.8 L 116.0,152.9 L 115.4,153.1 L 114.5,153.0 L 114.3,152.8 L 114.6,151.7 L 114.6,151.3 L 113.0,149.9 L 112.9,149.9 L 111.9,149.0 L 110.3,147.8 L 109.9,146.5 L 110.1,145.5 L 109.6,145.2 L 108.1,145.0 L 107.1,145.2 L 106.3,145.4 L 105.6,145.3 L 104.5,144.8 L 103.8,144.2 L 103.7,144.2 L 102.5,144.0 L 102.3,144.0 L 101.2,144.1 L 100.8,144.0 L 98.7,141.9 L 98.0,141.6 L 97.6,141.3 L 97.6,141.3 L 97.1,140.0 L 96.1,138.5 L 94.8,137.2 L 94.1,136.4 L 94.1,136.3 L 93.6,135.9 L 93.4,135.4 L 92.2,134.9 L 89.4,133.1 L 88.9,132.5 L 88.0,130.8 L 86.2,128.9 L 83.7,127.6 L 83.5,127.4 L 82.8,126.7 L 81.4,125.8 L 80.5,124.8 L 79.1,123.7 L 79.0,123.6 L 78.2,122.3 L 77.6,120.9 L 77.4,120.5 L 76.4,118.1 L 75.5,117.1 L 74.5,116.5 L 73.9,116.0 L 73.3,115.1 L 73.2,114.5 L 73.3,113.9 L 73.5,113.3 L 73.4,111.4 L 73.1,110.3 L 72.3,108.7 L 72.4,107.1 L 72.1,105.1 L 71.9,104.3 L 72.3,103.4 L 73.1,103.4 L 73.2,103.1 L 72.7,102.6 L 72.1,102.4 L 71.4,101.5 L 71.4,100.8 L 71.6,100.6 L 70.0,98.5 L 70.2,97.9 L 70.6,97.6 L 71.0,97.0 L 70.6,96.5 L 70.7,95.4 L 71.0,94.7 L 70.6,93.9 L 70.8,93.5 L 71.4,93.2 L 71.2,93.0 L 70.5,92.5 L 70.5,91.6 L 70.3,91.0 L 69.1,89.8 L 68.4,89.4 L 68.2,89.1 L 68.1,88.8 L 67.8,88.7 L 66.8,88.7 L 66.3,89.2 L 65.7,89.3 L 65.0,89.7 L 63.0,90.5 L 62.9,90.5 L 62.1,90.5 L 59.7,89.2 L 59.3,89.1 L 59.3,89.1 L 58.9,88.2 L 58.6,87.0 L 58.7,86.1 L 58.2,84.8 L 57.9,84.1 L 57.3,83.4 L 57.3,82.9 L 57.3,82.6 L 57.8,81.7 L 58.0,80.4 L 59.2,79.4 L 59.4,78.8 L 59.5,78.6 L 59.4,78.0 L 59.0,77.6 L 58.6,77.2 L 58.2,77.3 L 58.0,77.3 L 57.2,77.8 L 56.5,77.7 L 55.0,76.7 L 54.6,76.6 L 54.3,76.5 L 53.7,76.3 L 52.8,75.7 L 51.9,74.9 L 51.3,74.1 L 50.3,73.6 L 49.5,73.3 L 49.1,73.0 L 49.0,72.9 L 48.3,72.0 L 48.1,71.3 L 47.2,70.6 L 45.5,69.8 L 44.5,69.5 L 44.1,68.4 L 43.6,67.8 L 42.8,67.5 L 41.9,66.8 L 41.7,66.6 L 41.0,65.7 L 40.4,64.5 L 40.0,64.0 L 78.7,56.9 L 91.5,54.6 L 151.7,43.5 L 151.7,43.5 L 151.8,44.5 L 152.0,45.1 L 152.5,45.2 L 153.3,45.2 L 154.0,44.7 L 154.7,44.8 L 155.3,45.1 L 155.8,45.8 L 156.1,46.4 L 156.3,46.9 L 156.2,47.8 L 155.7,47.9 L 154.9,48.4 L 153.6,47.8 L 152.6,46.8 L 152.4,48.1 L 152.7,48.3 L 152.4,49.1 L 152.0,49.5 L 152.0,51.4 L 152.2,51.9 L 152.6,52.0 L 153.3,52.8 L 153.9,52.9 L 154.1,53.2 L 154.3,53.3 L 155.0,53.0 L 155.3,53.2 L 155.4,53.5 L 155.1,54.0 L 155.2,54.3 L 156.2,54.4 L 157.8,53.4 L 158.6,53.7 L 159.3,54.5 L 159.6,55.1 L 159.3,55.4 L 159.7,56.0 L 159.8,56.7 L 160.0,56.7 L 160.7,56.5 L 160.9,56.7 L 161.0,57.4 L 160.7,58.2 L 161.2,58.4 L 161.5,58.9 L 161.3,60.2 L 161.2,60.7 L 161.3,60.9 L 161.9,60.7 L 162.6,60.8 L 163.5,61.5 L 163.7,62.2 L 164.0,62.3 L 164.3,62.8 L 164.8,63.0 L 166.2,64.5 L 166.4,65.1 L 166.4,65.2 L 166.4,65.2 L 166.4,65.6 L 166.8,65.9 L 167.1,67.0 L 167.8,68.1 L 168.0,68.3 L 168.1,68.4 L 168.8,68.8 L 168.9,68.9 L 169.0,69.1 L 169.3,69.4 L 169.5,69.7 L 169.6,69.9 L 169.9,70.3 L 170.3,71.2 L 170.3,71.2 L 170.3,71.2 L 170.6,71.8 L 171.3,72.6 L 172.2,72.8 L 173.4,74.1 L 176.8,78.7 L 177.4,79.6 L 177.4,80.0 L 177.5,80.5 L 177.7,80.7 L 178.2,80.9 L 178.4,81.3 L 179.4,82.9 L 179.9,84.1 L 179.8,84.9 L 179.9,85.6 L 180.6,86.9 L 180.7,87.1 L 181.3,88.9 L 182.0,90.7 L 182.3,91.8 L 182.9,93.1 L 183.5,93.8 L 184.5,95.8 L 184.7,98.0 L 185.0,99.2 L 185.1,100.6 L 185.5,101.4 L 185.8,103.1 L 185.8,103.7 L 186.1,105.6 L 186.1,107.6 L 185.8,109.7 L 185.7,111.0 L 186.0,113.1 L 185.8,114.3 L 185.2,116.2 L 185.2,117.0 L 184.7,117.7 L 184.5,118.2 L 184.7,119.1 L 184.4,120.3 L 183.7,121.1 L 183.7,123.0 L 183.9,123.5 L 183.9,124.1 L 183.2,124.7 L 183.0,125.2 L 183.0,126.5 L 183.2,127.4 L 183.1,128.3 L 183.2,128.4 L 184.6,128.9 L 185.4,129.5 L 185.8,129.2 L 186.2,129.1 L 188.1,131.0 L 189.0,131.1 L 189.6,130.8 L 189.8,129.7 L 190.2,129.5 L 190.4,129.3 L 190.8,129.3 L 191.1,129.3 L 191.7,129.3 L 192.0,129.3 L 193.7,129.4 L 194.8,129.7 L 195.2,129.8 L 195.3,129.9 L 195.6,130.2 L 196.4,130.9 L 196.7,131.1 L 197.0,131.2 L 197.3,131.4 L 199.4,132.7 L 200.1,132.9 L 200.7,133.3 L 201.1,133.2 L 202.9,133.3 L 204.2,133.8 L 208.8,136.3 L 209.6,137.1 L 209.8,137.7 L 209.8,137.8 L 209.9,138.0 L 209.8,139.1 L 209.4,140.1 L 209.3,140.3 L 208.8,140.8 L 208.8,141.1 L 209.2,141.3 L 209.4,141.6 L 209.3,141.7 L 209.5,142.0 L 209.6,142.3 L 209.5,142.7 L 210.6,142.8 L 210.8,143.2 L 211.2,143.3 L 211.9,143.7 L 212.0,144.0 L 211.3,144.4 L 211.3,144.6 L 211.7,144.6 L 212.6,144.1 L 212.8,144.1 L 212.9,144.3 L 212.9,144.7 L 212.9,145.1 L 212.5,145.4 L 213.4,145.5 L 213.6,145.4 L 213.3,144.9 L 214.0,144.7 L 214.4,144.9 L 214.9,144.6 L 215.4,143.6 L 215.9,143.5 L 216.4,143.6 L 216.8,144.0 L 216.8,144.4 L 216.3,145.5 L 216.4,145.8 L 216.9,145.9 L 217.5,146.5 L 218.0,146.5 L 218.5,146.1 L 218.4,145.8 L 217.8,145.4 L 217.9,145.0 L 218.3,144.6 L 218.6,144.4 L 219.2,144.5 L 219.3,144.0 L 219.2,143.7 L 219.5,143.4 L 220.1,143.0 L 224.6,142.3 L 225.8,142.4 L 226.3,142.1 L 227.0,142.2 L 227.9,142.1 L 228.3,141.9 L 228.5,141.8 L 228.7,141.7 L 231.1,142.1 L 231.9,141.5 L 233.2,141.6 L 234.6,140.9 L 234.8,140.9 L 236.1,141.0 L 236.4,140.9 L 237.6,140.5 L 238.6,140.4 L 239.9,140.3 L 239.9,140.3 L 242.1,140.3 L 243.6,140.1 L 244.6,140.1 L 246.1,140.3 L 247.6,140.5 L 248.4,140.4 L 248.6,140.4 L 250.0,140.4 L 250.4,140.4 L 254.7,141.0 L 259.2,141.7 L 259.7,141.8 L 259.8,141.9 L 260.0,142.0 L 260.7,142.2 L 263.6,142.6 L 264.1,142.8 L 265.1,143.0 L 267.2,144.0 L 267.3,144.1 L 267.5,144.2 L 267.5,144.2 L 267.7,144.2 L 269.0,144.4 L 270.1,145.0 L 271.2,145.7 L 272.4,146.8 L 272.6,146.8 L 272.8,146.9 L 273.4,147.2 L 274.4,147.3 L 274.8,147.2 L 275.9,147.1 L 276.9,146.9 L 278.0,147.1 L 278.3,147.2 L 283.0,148.3 L 287.7,149.6 L 288.1,149.7 L 288.8,149.7 L 291.5,150.3 L 292.2,150.8 L 292.6,150.6 L 293.3,150.8 L 295.2,151.3 L 302.6,152.4 L 303.8,152.4 L 304.9,152.4 L 306.1,152.4 L 306.3,152.3 L 307.0,152.3 L 308.7,152.1 L 310.1,152.2 L 314.2,152.2 L 315.3,152.4 L 315.6,152.5 L 316.4,152.7 L 317.2,152.9 L 318.4,153.1 L 318.6,153.2 L 319.1,153.5 L 319.4,153.4 L 319.5,153.4 L 319.8,153.5 L 319.9,153.5 L 320.3,153.8 L 320.7,153.7 L 321.3,153.9 L 321.3,154.0 L 321.5,154.1 L 321.9,154.2 L 322.7,154.2 L 322.9,154.3 L 323.7,154.2 L 324.5,154.2 L 324.6,154.2 L 325.4,154.2 L 326.4,154.0 L 328.0,154.2 L 329.3,154.6 L 330.3,155.0 L 331.5,155.2 L 332.4,155.4 L 333.1,155.8 L 333.2,156.0 L 333.3,156.3 L 333.3,156.8 L 333.4,156.9 L 333.5,157.2 L 333.7,157.5 L 333.6,157.5 L 333.6,157.7 L 333.5,157.8 L 333.4,157.9 L 333.2,158.1 L 333.3,158.2 L 333.4,158.3 L 333.4,158.2 L 333.6,158.2 L 333.8,158.0 L 333.9,157.9 L 334.0,157.9 L 334.2,158.1 L 334.2,158.1 L 334.4,158.4 L 334.4,158.5 L 334.7,159.0 L 334.5,159.3 L 334.5,159.5 L 334.3,159.7 L 334.0,160.1 L 334.0,160.1 L 333.9,160.4 L 333.9,160.5 L 334.0,160.6 L 334.1,160.7 L 334.4,160.8 L 334.5,160.8 L 334.8,160.8 L 334.9,160.8 L 335.4,160.7 L 335.5,160.7 L 335.5,160.8 L 335.5,161.1 L 335.5,161.2 L 335.6,161.5 L 335.6,161.5 L 335.8,161.5 L 335.8,161.6 L 335.8,161.3 L 335.8,160.9 L 336.0,160.2 L 336.2,160.1 L 336.6,160.0 L 336.8,160.1 L 337.3,160.1 L 337.7,159.9 L 338.6,159.7 L 339.3,159.6 L 339.5,159.7 L 340.0,160.2 L 340.1,160.5 L 340.1,160.7 L 340.1,161.1 L 340.1,161.2 L 339.8,162.0 L 339.4,162.5 L 338.3,162.5 L 337.4,162.9 L 337.0,163.3 L 337.8,163.9 L 337.9,164.2 L 337.8,164.3 L 337.5,164.2 L 337.2,164.2 L 336.9,164.2 L 336.7,164.3 L 336.4,164.4 L 336.0,164.5 L 335.7,164.6 L 335.5,164.7 L 335.2,164.9 L 334.9,165.1 L 334.6,165.4 L 334.4,165.6 L 334.1,165.5 L 333.9,165.6 L 333.7,165.6 L 333.7,165.6 L 333.4,165.8 L 333.2,166.1 L 333.1,166.1 L 332.6,166.5 L 332.7,167.2 L 332.2,167.4 L 331.6,167.7 L 331.4,168.0 L 331.6,168.5 L 332.4,168.7 L 332.6,168.9 L 332.8,169.3 L 332.2,169.5 L 332.2,169.8 L 331.8,169.9 L 331.5,170.3 L 330.7,170.6 L 330.4,171.1 L 329.9,171.4 L 329.6,171.4 L 329.1,170.9 L 328.7,170.8 L 328.1,171.3 L 327.8,171.8 L 327.9,172.2 L 327.9,172.5 L 327.9,172.7 L 328.3,173.0 L 328.9,173.3 L 329.3,173.3 L 330.1,173.5 L 330.3,173.4 L 330.5,173.4 L 330.7,173.3 L 330.7,173.4 L 330.8,173.6 L 330.9,173.6 L 331.2,173.6 L 331.5,173.5 L 331.6,173.4 L 331.7,173.3 L 331.7,173.1 L 331.7,172.9 L 331.7,172.8 L 331.7,172.6 L 331.8,172.4 L 331.9,172.2 L 332.0,172.2 L 332.2,172.2 L 332.4,172.2 L 332.6,172.2 L 332.8,172.2 L 332.9,172.1 L 333.0,171.9 L 333.1,171.8 L 333.4,171.8 L 333.4,171.8 L 333.5,171.7 L 333.5,171.5 L 333.6,171.3 L 333.8,171.2 L 334.0,171.0 L 334.3,170.9 L 334.6,170.9 L 334.8,171.0 L 334.9,171.1 L 335.0,171.2 L 335.1,171.3 L 335.3,171.4 L 335.4,171.4 L 335.6,171.3 L 335.6,171.4 L 335.8,171.3 L 335.8,171.2 L 335.9,171.0 L 335.9,170.7 L 335.9,170.7 L 335.5,170.4 L 335.4,170.4 L 335.3,170.2 L 335.4,170.0 L 335.6,169.8 L 335.7,169.7 L 335.8,169.6 L 336.2,169.4 L 336.3,169.3 L 336.4,169.1 L 336.5,168.9 L 336.6,168.8 L 337.0,168.5 L 337.1,168.4 L 337.2,168.2 L 337.4,168.1 L 337.5,168.1 L 337.9,168.2 L 338.1,168.1 L 338.3,168.1 L 338.6,167.8 L 338.9,167.5 L 339.2,167.3 L 339.4,167.2 L 339.7,167.0 L 340.0,166.8 L 340.2,166.8 L 340.3,166.8 L 340.8,167.2 L 341.2,167.4 L 341.5,167.4 L 341.8,166.7 L 341.9,166.4 L 342.5,166.3 L 343.0,166.5 L 343.0,167.0 L 343.1,167.4 L 343.4,167.4 L 343.6,166.5 L 344.1,166.4 L 344.1,166.4 L 344.5,166.5 L 344.5,166.6 L 344.6,166.9 L 344.6,167.4 L 344.6,167.9 L 344.6,168.2 L 344.7,168.6 L 344.8,168.7 L 344.9,168.7 L 345.0,168.7 L 345.2,168.4 L 345.4,168.4 L 345.6,168.3 L 345.8,168.1 L 345.9,167.8 L 346.0,167.3 L 346.1,166.7 L 346.2,166.4 L 346.2,166.4 L 346.3,166.4 L 346.5,166.4 L 347.2,166.5 L 348.0,166.6 L 348.3,166.6 L 349.3,166.5 L 349.4,166.6 L 349.5,167.0 L 349.7,167.2 L 350.0,167.6 L 352.3,167.6 L 353.1,167.8 L 353.6,168.2 L 354.4,168.7 L 356.7,169.6 L 356.9,169.9 L 356.8,169.9 L 355.6,169.9 L 355.4,170.1 L 356.1,172.3 L 355.7,173.6 L 355.1,174.2 L 355.1,175.0 L 355.1,175.9 L 356.1,177.7 L 356.3,178.4 L 358.7,181.3 L 359.1,182.0 L 359.5,184.3 L 359.9,184.7 L 359.9,184.8 L 359.8,185.3 L 360.0,188.4 L 359.7,190.8 L 359.5,191.5 L 358.7,192.4 L 358.1,192.8 L 357.6,193.2 L 357.1,193.4 L 356.9,193.6 L 356.6,193.7 L 356.4,194.7 L 356.3,195.3 L 356.2,196.0 L 356.4,197.0 L 356.8,197.8 L 356.9,198.6 L 356.6,199.5 L 356.9,200.5 L 324.3,218.4 L 324.3,218.1 L 323.7,217.9 L 322.9,218.0 L 322.3,218.3 L 321.5,218.8 L 320.9,219.4 L 320.4,219.7 L 319.9,220.1 L 319.5,220.1 L 319.0,220.5 L 318.2,220.9 L 317.1,221.0 L 316.9,221.8 L 316.7,222.7 L 316.4,223.4 L 315.8,224.6 L 314.5,225.7 L 313.5,226.3 L 312.8,226.9 L 312.4,227.1 L 311.8,227.7 L 310.2,228.4 L 310.0,228.5 L 308.6,228.5 L 305.5,228.0 L 304.8,228.2 L 304.3,228.2 L 302.4,228.6 L 301.0,228.4 L 300.4,228.5 L 298.8,228.4 L 298.0,228.3 L 297.6,228.2 L 297.2,228.0 L 297.0,227.9 L 296.7,227.6 L 296.3,227.2 L 295.5,226.1 L 295.3,225.8 L 295.2,224.9 L 295.5,224.1 L 295.8,223.7 L 295.7,223.4 L 295.4,223.1 L 295.0,223.3 L 294.5,222.2 L 293.3,222.0 L 292.8,221.6 L 292.4,221.4 L 287.8,223.1 L 287.4,223.3 L 286.4,223.7 L 285.6,224.6 L 285.4,225.5 L 285.9,227.7 L 286.6,228.8 L 287.5,230.4 L 287.3,231.5 L 287.3,232.4 L 288.6,234.8 L 288.7,235.5 L 288.7,235.6 L 288.5,236.4 L 287.5,238.4 L 286.7,239.4 L 285.0,241.9 L 284.8,242.8 L 284.9,243.8 L 284.8,244.5 L 285.0,245.3 L 284.7,246.9 L 284.7,247.5 L 284.8,248.4 L 284.6,249.9 L 284.5,251.4 L 284.6,252.1 L 284.6,252.9 L 284.0,255.3 L 283.6,256.8 L 283.5,257.8 L 284.1,258.8 L 284.5,259.8 L 284.3,261.0 L 283.9,262.4 L 283.4,263.4 L 283.1,264.9 L 283.0,267.6 L 282.1,269.5 L 281.8,271.0 L 281.9,272.6 L 282.1,273.4 L 282.2,275.7 L 282.6,277.5 L 282.7,278.5 L 282.8,278.9 L 282.8,279.5 L 283.1,280.3 L 283.5,282.6 L 283.5,282.9 L 283.9,283.8 L 284.2,285.0 L 284.4,288.0 L 284.3,288.2 L 283.7,289.8 L 282.3,292.0 L 281.6,294.0 L 281.3,295.7 L 281.6,296.7 L 282.2,298.4 L 282.6,298.7 L 283.9,300.5 L 284.4,301.6 L 284.6,302.9 L 284.6,303.0 L 284.4,303.3 L 284.5,304.4 L 284.7,304.8 L 284.7,305.3 L 284.7,306.0 L 284.6,307.1 L 284.5,307.6 L 283.8,308.6 L 282.8,309.4 L 282.6,309.7 L 282.5,309.8 L 282.0,309.9 L 279.5,311.4 L 279.2,311.6 L 278.2,311.6 L 277.7,312.0 L 276.7,312.7 L 276.2,313.4 L 275.6,313.6 L 274.8,313.7 L 274.8,313.6 L 274.6,313.5 L 274.4,313.4 L 274.1,313.4 L 274.1,313.3 L 274.0,313.2 L 273.9,313.2 L 273.8,313.3 L 273.4,313.4 L 273.0,313.7 L 272.6,313.9 L 272.2,314.1 L 271.9,314.3 L 271.6,314.5 L 271.3,314.7 L 271.3,314.7 L 271.0,314.9 L 270.8,315.0 L 270.7,315.0 L 270.6,315.1 L 270.4,315.2 L 270.4,315.2 L 270.3,315.2 L 270.1,315.3 L 269.5,315.6 L 268.7,316.0 L 267.5,316.8 L 267.0,317.2 L 266.9,317.2 L 266.9,317.3 L 266.6,317.6 L 266.6,317.6 L 266.5,317.6 L 266.2,317.6 L 265.9,317.5 L 265.7,317.3 L 265.5,317.0 L 265.3,316.7 L 265.2,316.4 L 265.0,316.2 L 265.0,316.0 L 264.9,315.8 L 264.8,315.6 L 264.7,315.6 L 264.6,315.5 L 264.2,315.5 L 263.8,315.5 L 263.4,315.5 L 262.9,315.5 L 262.5,315.4 L 262.2,315.3 L 261.9,315.3 L 261.5,315.4 L 261.3,315.5 L 261.1,315.5 L 261.0,315.6 L 260.8,315.7 L 260.6,316.0 L 260.6,316.2 L 260.5,316.4 L 260.3,316.9 L 260.2,317.3 L 260.1,317.7 L 260.0,318.0 L 259.8,318.3 L 259.7,318.6 L 259.7,319.0 L 259.6,319.3 L 259.6,319.5 L 259.7,319.6 L 259.8,319.6 L 260.2,319.7 L 260.6,319.8 L 261.0,319.8 L 261.2,319.9 L 261.3,320.0 L 261.4,320.1 L 261.5,320.2 L 261.6,320.3 L 261.6,320.3 L 261.7,320.3 L 261.8,320.1 L 261.9,319.7 L 262.0,319.3 L 262.2,319.0 L 262.3,318.7 L 262.4,318.6 L 262.5,318.6 L 262.6,318.7 L 262.9,318.8 L 263.2,319.0 L 263.3,319.1 L 263.5,319.2 L 263.8,319.3 L 264.1,319.5 L 264.2,319.6 L 264.2,319.6 L 264.3,319.7 L 264.3,319.8 L 264.3,319.9 L 264.2,320.1 L 264.2,320.2 L 264.2,320.3 L 264.2,320.5 L 264.2,320.7 L 264.2,320.8 L 264.2,320.9 L 264.2,321.0 L 264.2,322.0 L 264.0,322.7 L 264.0,323.4 L 264.0,323.6 L 264.3,323.9 L 264.1,324.5 L 264.0,324.6 L 264.0,324.6 L 264.0,324.7 L 263.9,324.7 L 263.9,324.7 L 263.8,324.8 L 263.8,324.8 L 263.8,324.9 L 263.7,324.9 L 263.7,324.9 L 263.7,325.0 L 263.6,325.0 L 263.6,325.1 L 263.5,325.2 L 263.5,325.2 L 263.5,325.2 L 263.5,325.2 L 263.4,325.3 L 263.4,325.3 L 263.3,325.4 L 263.3,325.4 L 263.3,325.5 L 263.2,325.5 L 263.2,325.6 L 263.2,325.6 L 263.2,325.7 L 263.1,325.7 L 263.1,325.8 L 263.1,325.8 L 263.1,325.9 L 263.0,325.9 L 263.0,326.0 L 263.0,326.0 L 263.0,326.1 L 263.0,326.2 L 263.0,326.2 L 263.0,326.2 L 263.0,326.3 L 263.0,326.3 L 263.0,326.4 L 263.1,326.4 L 263.1,326.5 L 263.1,326.5 L 263.2,326.6 L 263.2,326.6 L 263.3,326.7 L 263.4,326.7 L 263.4,326.8 L 263.4,326.8 L 263.5,326.8 L 263.5,326.8 L 263.6,326.8 L 263.6,326.9 L 263.7,326.9 L 263.7,326.9 L 263.8,326.9 L 263.8,326.9 L 263.9,326.9 L 263.9,326.9 L 263.9,326.9 L 264.0,326.9 L 264.1,327.0 L 264.1,327.0 L 264.2,327.0 L 264.2,326.9 L 264.3,326.9 L 264.3,326.9 L 264.4,326.9 L 264.4,326.8 L 264.4,326.8 L 264.4,326.8 L 264.4,326.7 L 264.5,326.7 L 264.5,326.6 L 264.5,326.6 L 264.5,326.5 L 264.5,326.5 L 264.5,326.4 L 264.6,326.4 L 264.6,326.4 L 264.6,326.3 L 264.6,326.3 L 264.7,326.3 L 264.7,326.2 L 264.8,326.2 L 264.8,326.2 L 264.9,326.2 L 264.9,326.2 L 265.0,326.2 L 265.0,326.2 L 265.0,326.2 L 265.0,326.2 L 265.1,326.2 L 265.1,326.3 L 265.2,326.3 L 265.2,326.3 L 265.2,326.3 L 265.3,326.3 L 265.3,326.4 L 265.4,326.4 L 265.4,326.5 L 265.4,326.6 L 265.4,326.6 L 265.4,326.6 L 265.4,326.7 L 265.3,326.7 L 265.3,326.8 L 265.3,326.8 L 265.2,326.9 L 265.2,326.9 L 265.2,326.9 L 265.2,327.0 L 265.2,327.0 L 265.2,327.1 L 265.2,327.1 L 265.2,327.2 L 265.2,327.2 L 265.3,327.3 L 265.3,327.3 L 265.3,327.4 L 265.4,327.4 L 265.4,327.4 L 265.5,327.4 L 265.6,327.4 L 265.6,327.4 L 265.7,327.4 L 265.7,327.4 L 265.7,327.4 L 265.8,327.4 L 265.9,327.4 L 265.9,327.3 L 266.0,327.3 L 266.0,327.3 L 266.1,327.3 L 266.1,327.2 L 266.2,327.2 L 266.2,327.2 L 266.2,327.2 L 266.3,327.1 L 266.3,327.1 L 266.4,327.1 L 266.4,327.1 L 266.4,327.1 L 266.5,327.2 L 266.5,327.2 L 266.6,327.2 L 266.6,327.3 L 266.7,327.3 L 266.7,327.4 L 266.8,327.4 L 266.9,327.5 L 266.9,327.5 L 267.0,327.5 L 267.0,327.6 L 267.1,327.6 L 267.2,327.7 L 267.2,327.7 L 267.3,327.7 L 267.4,327.8 L 267.4,327.8 L 267.5,327.8 L 267.6,327.9 L 267.7,327.9 L 267.7,327.9 L 267.8,328.0 L 267.9,328.0 L 267.9,328.0 L 268.0,328.0 L 268.1,328.1 L 268.1,328.1 L 268.2,328.2 L 268.3,328.2 L 268.4,328.2 L 268.4,328.3 L 268.5,328.3 L 268.6,328.3 L 268.6,328.4 L 268.7,328.4 L 268.7,328.5 L 268.9,328.5 L 269.0,328.6 L 269.2,328.6 L 269.5,328.7 L 269.6,328.7 L 269.8,328.6 L 270.3,328.7 L 270.9,329.0 L 272.2,329.9 L 273.1,330.3 L 275.0,331.1 L 275.1,331.2 L 275.4,331.5 L 275.3,332.1 L 275.4,333.8 L 275.4,333.8 L 275.4,333.9 L 275.4,334.1 L 275.5,334.3 L 275.5,334.5 L 275.6,334.8 L 275.7,334.9 L 275.8,335.1 L 275.9,335.3 L 276.0,335.5 L 276.3,335.7 L 276.5,335.9 L 276.8,336.0 L 277.1,336.2 L 277.3,336.3 L 277.6,336.5 L 277.9,336.6 L 278.2,336.8 L 278.4,336.9 L 278.7,337.0 L 278.9,337.1 L 279.1,337.2 L 279.3,337.3 L 279.3,337.4 L 279.4,337.5 L 279.4,337.6 L 279.7,337.6 L 279.8,337.7 L 280.1,337.8 L 280.4,338.0 L 280.6,338.2 L 280.7,338.3 L 280.7,338.3 L 280.7,338.4 L 280.7,338.5 L 280.8,338.5 L 280.9,338.5 L 281.1,338.6 L 281.3,338.7 L 281.5,338.8 L 281.6,339.1 L 281.6,339.2 L 281.6,339.3 L 281.6,339.5 L 281.6,339.6 L 281.6,339.8 L 281.6,340.1 L 281.7,340.4 L 281.7,340.5 L 281.9,340.7 L 282.1,340.9 L 282.2,341.1 L 282.3,341.4 L 282.5,341.7 L 282.6,342.0 L 282.7,342.1 L 282.8,342.4 L 283.0,342.8 L 283.0,342.9 L 283.1,342.8 L 283.2,342.9 L 283.2,343.0 L 283.2,343.0 L 283.0,344.3 L 283.2,345.4 L 283.0,346.8 L 282.4,347.2 L 282.4,347.5 L 282.3,348.2 L 281.9,348.9 L 281.6,349.0 L 281.5,348.7 L 281.6,348.2 L 281.2,348.2 L 281.0,348.3 L 280.6,348.3 L 280.1,348.2 L 280.3,347.9 L 280.8,347.5 L 280.7,347.2 L 280.5,346.8 L 280.4,346.5 L 280.7,346.2 L 280.6,346.0 L 281.0,345.7 L 281.2,345.7 L 281.1,345.5 L 281.2,345.2 L 280.8,345.1 L 280.3,345.6 L 279.9,345.7 L 279.5,346.3 L 279.0,347.7 L 277.8,347.6 L 277.8,347.5 L 277.8,347.2 L 277.6,346.8 L 277.4,346.8 L 277.2,347.4 L 277.0,347.2 L 276.5,347.3 L 277.1,345.8 L 278.2,345.4 L 278.9,344.0 L 279.8,342.6 L 280.0,342.0 L 280.5,341.3 L 280.3,340.7 L 279.4,340.5 L 279.1,340.2 L 276.9,338.8 L 275.9,338.4 L 273.5,338.0 L 273.0,337.7 L 271.9,337.7 L 271.4,338.1 L 271.3,337.8 L 271.4,337.2 L 271.1,336.9 L 270.4,336.8 L 269.8,335.9 L 270.0,335.3 L 269.9,335.1 L 269.5,335.2 L 268.3,334.9 L 267.7,334.5 L 267.4,334.2 L 266.4,333.3 L 266.0,333.2 L 266.0,332.7 L 265.5,332.7 L 264.4,332.2 L 262.6,331.7 L 261.9,331.3 L 261.4,331.2 L 261.3,331.2 L 260.2,331.4 L 259.6,331.4 L 259.3,331.6 L 259.1,332.0 L 259.2,332.8 L 259.0,333.0 L 258.4,333.2 L 258.7,333.4 L 258.9,333.6 L 259.4,334.5 L 259.4,335.3 L 258.9,336.7 L 257.8,338.9 L 256.6,342.3 L 255.8,344.3 L 255.5,345.7 L 255.5,347.8 L 254.7,349.3 L 253.8,350.2 L 253.4,350.5 L 252.4,351.3 L 251.7,351.6 L 250.7,352.5 L 247.2,354.8 L 245.1,356.4 L 245.1,356.5 L 245.0,356.4 L 231.9,344.1 L 227.6,340.0 L 227.6,339.9 L 227.4,339.7 L 227.2,339.8 L 226.6,339.7 L 226.4,339.8 L 225.8,339.9 L 225.6,340.2 L 225.3,340.5 L 224.7,340.6 L 223.9,340.2 L 223.3,340.2 L 222.2,341.0 L 221.5,341.4 L 221.1,341.4 L 220.8,341.4 L 219.2,340.0 L 219.3,339.8 L 219.9,339.4 L 220.0,339.0 L 220.2,339.0 L 221.1,339.2 L 221.4,338.4 L 221.3,337.3 L 221.4,336.9 L 222.5,337.2 L 223.1,337.5 L 223.3,337.0 L 223.8,336.5 L 224.3,336.4 L 224.8,336.4 L 225.0,336.1 L 225.4,335.9 L 225.9,335.9 L 225.9,335.5 L 225.9,334.7 L 226.1,334.3 L 226.0,333.5 L 226.2,332.6 L 226.5,332.5 L 226.6,331.7 L 227.2,331.0 L 227.3,330.2 L 227.6,329.7 L 227.8,328.6 L 228.0,328.1 L 228.0,327.2 L 228.2,325.9 L 228.1,325.4 L 228.5,324.0 L 228.3,323.5 L 228.6,323.2 L 228.4,323.0 L 228.2,322.9 L 228.0,322.5 L 227.4,322.2 L 226.6,321.4 L 226.5,320.4 L 226.3,319.9 L 226.5,318.7 L 226.9,318.8 L 227.1,319.1 L 227.3,318.8 L 227.4,318.2 L 227.7,317.8 L 228.1,317.9 L 228.3,317.5 L 228.8,317.1 L 228.7,316.3 L 228.8,313.8 L 228.4,312.9 L 228.2,312.6 L 227.5,313.3 L 226.9,313.5 L 225.9,314.4 L 223.2,315.9 L 223.1,316.4 L 222.7,316.9 L 221.9,316.9 L 221.8,316.5 L 221.6,316.4 L 221.4,316.5 L 221.5,317.1 L 221.4,317.7 L 220.4,317.8 L 219.7,318.2 L 219.3,318.4 L 218.2,319.3 L 217.6,319.3 L 217.4,319.2 L 216.2,318.5 L 216.1,318.4 L 215.9,318.1 L 216.0,317.2 L 215.7,316.7 L 214.8,316.1 L 214.6,315.5 L 214.8,314.8 L 215.4,314.1 L 216.3,312.3 L 216.4,312.2 L 216.6,311.7 L 216.5,309.8 L 215.9,308.2 L 216.1,306.6 L 216.3,305.8 L 216.6,305.6 L 217.3,305.7 L 217.4,305.7 L 217.5,305.0 L 217.4,304.9 L 217.4,304.8 L 217.2,304.6 L 216.8,304.7 L 216.9,304.3 L 216.9,304.0 L 217.4,303.1 L 217.6,302.3 L 217.1,302.0 L 216.8,301.4 L 216.5,301.1 L 216.0,300.9 L 215.6,300.4 L 215.6,299.7 L 215.3,299.4 L 215.3,299.0 L 215.1,298.7 L 215.0,298.1 L 215.0,297.8 L 215.4,297.2 L 215.3,296.7 L 214.9,296.0 L 214.0,295.0 L 213.3,294.9 L 213.5,293.8 L 211.9,293.1 L 211.1,292.3 L 210.6,292.0 L 210.3,291.5 L 210.3,290.3 L 209.3,289.6 L 208.6,288.6 L 208.2,287.7 L 208.6,286.5 L 208.7,286.2 L 209.9,285.2 L 210.4,284.8 L 211.3,284.6 L 210.5,282.7 L 210.1,282.3 L 210.2,281.7 L 210.6,281.6 L 210.7,280.5 L 210.1,279.5 L 210.0,279.2 L 210.0,278.9 L 210.2,278.5 L 210.7,278.1 L 211.0,278.0 L 211.3,277.9 L 211.9,277.3 L 212.0,277.4 L 212.3,277.6 L 212.7,277.6 L 213.0,277.4 L 213.5,277.2 L 213.4,276.9 L 212.3,276.7 L 212.0,276.6 L 211.5,276.2 L 211.4,275.5 L 211.7,274.5 L 211.7,274.2 L 212.8,272.9 L 213.9,272.6 L 214.5,272.4 L 214.9,272.8 L 215.2,272.8 L 215.6,272.6 L 215.6,271.9 L 215.5,271.3 L 215.7,270.9 L 215.5,270.7 L 215.9,269.6 L 216.3,269.3 L 216.5,268.9 L 216.8,268.3 L 216.9,268.1 L 217.5,267.6 L 218.6,267.0 L 219.2,266.5 L 219.6,266.4 L 220.2,265.3 L 220.2,265.2 L 220.1,265.0 L 218.8,264.4 L 218.0,264.1 L 217.0,263.6 L 216.3,262.9 L 216.3,262.6 L 216.3,262.4 L 215.8,262.3 L 214.6,263.0 L 213.5,263.8 L 213.1,264.4 L 212.9,264.7 L 210.9,265.9 L 209.2,266.3 L 207.3,267.0 L 205.7,267.9 L 204.5,268.3 L 203.9,268.3 L 203.6,268.3 L 203.1,267.9 L 203.1,267.8 L 202.9,267.4 L 202.9,267.1 L 201.6,266.7 L 201.7,266.3 L 202.1,266.0 L 202.6,266.2 L 203.1,266.6 L 203.6,266.6 L 203.8,266.4 L 203.9,266.0 L 203.7,265.7 L 203.0,265.6 L 203.1,265.1 L 202.9,264.8 L 202.0,264.6 L 202.1,264.4 L 201.9,264.0 L 201.5,264.0 L 200.1,264.0 L 198.1,263.9 L 197.9,263.9 L 197.2,264.0 L 196.3,264.1 L 194.8,264.0 L 194.4,264.0 L 193.7,264.0 L 191.9,264.1 L 191.7,263.8 L 191.8,263.6 L 192.0,263.3 L 192.4,263.3 L 192.4,263.3 L 192.6,263.2 L 192.6,263.2 L 193.0,262.9 L 193.4,263.1 L 194.2,263.2 L 194.9,263.5 L 195.5,263.4 L 196.2,263.0 L 197.6,263.3 L 198.5,263.0 L 199.7,262.9 L 200.9,262.4 L 201.3,261.9 L 201.9,261.5 L 202.5,260.0 L 202.7,258.7 L 202.6,258.3 L 202.0,257.9 L 201.1,258.0 L 200.0,258.7 L 199.7,259.2 L 199.4,259.4 L 198.7,259.5 L 198.1,258.9 L 197.3,258.7 L 196.6,258.9 L 195.6,258.8 L 194.9,258.2 L 194.6,257.9 L 194.3,257.7 L 194.1,257.2 L 193.8,256.8 L 193.4,256.5 L 192.9,256.0 L 192.0,255.8 L 191.5,255.8 L 190.6,255.9 L 189.7,255.9 L 189.1,256.2 L 188.2,256.3 L 186.5,255.6 L 185.7,255.4 L 184.8,255.5 L 184.1,255.4 L 183.7,255.0 L 182.9,254.7 L 181.4,253.5 L 180.8,252.7 L 180.2,252.0 L 179.5,251.3 L 178.9,250.1 L 178.8,248.6 L 178.6,247.7 L 178.6,244.9 L 177.9,242.7 L 177.8,242.0 L 177.7,241.7 L 177.6,241.6 L 177.4,241.1 L 177.7,240.0 L 177.8,239.4 L 177.4,238.2 L 177.7,236.8 L 177.4,235.4 L 177.3,234.6 L 177.1,234.0 L 176.9,232.5 L 176.8,230.1 L 176.9,228.4 L 177.0,227.8 L 177.0,226.6 L 177.1,225.3 L 177.0,224.9 L 177.1,224.1 L 176.9,223.3 L 177.1,222.6 L 177.2,221.8 L 177.8,221.2 L 177.7,220.6 L 178.0,220.0 L 178.7,219.3 L 178.7,218.4 L 178.2,217.6 L 177.6,217.4 L 176.8,215.9 L 176.2,215.6 L 175.9,215.7 L 175.9,216.3 L 175.6,216.6 L 175.1,216.5 L 174.7,216.8 L 173.1,216.7 L 172.7,217.0 L 171.9,217.1 L 171.1,217.4 L 170.5,217.4 L 169.6,218.0 L 169.1,219.1 L 168.6,219.3 L 167.5,219.6 L 165.8,219.7 L 163.5,219.4 L 162.2,218.9 L 161.6,218.6 L 161.4,218.4 L 161.1,218.2 L 160.4,217.7 L 160.2,217.4 L 160.2,217.4 L 159.8,217.0 L 159.1,216.2 L 159.1,216.1 L 158.9,215.9 L 157.5,215.7 L 156.4,214.9 L 155.6,214.1 L 155.3,213.2 L 155.3,213.2 L 154.8,211.7 L 154.4,209.3 L 154.4,207.8 L 153.3,206.6 L 153.1,206.1 L 153.3,205.6 L 153.1,205.3 L 152.2,205.1 L 152.0,204.5 L 152.2,203.8 L 152.6,203.3 L 152.8,202.9 L 152.9,202.9 L 153.3,202.5 L 153.6,202.5 L 153.8,202.3 L 154.3,201.2 L 154.0,200.7 L 153.9,200.1 L 153.4,199.9 L 153.4,199.2 L 153.2,198.9 L 153.2,198.1 L 152.5,197.4 L 153.3,196.9 L 153.0,196.0 L 152.3,195.7 L 152.4,194.8 L 152.6,194.5 L 152.5,194.2 L 152.0,194.0 L 150.7,191.8 L 150.4,191.4 L 149.6,191.1 L 149.5,191.2 L 149.2,191.3 L 149.0,191.6 L 148.6,191.8 L 147.9,192.8 L 147.6,193.5 L 147.7,194.1 L 147.6,194.5 L 146.9,194.4 L 146.8,194.9 L 146.6,195.4 L 146.8,195.8 L 146.4,196.5 L 146.1,196.8 L 146.1,197.8 L 146.3,198.0 L 146.4,198.3 L 146.2,198.7 L 145.9,198.7 L 145.6,198.8 L 145.4,199.7 L 145.4,199.7 L 144.8,200.0 L 144.8,200.0 L 141.2,199.5 L 140.2,199.1 L 140.1,199.0 L 139.4,198.9 L 138.8,198.5 L 138.3,198.1 L 137.8,197.4 L 136.6,196.4 L 135.8,195.7 L 134.8,195.0 L 134.1,194.7 L 132.4,193.4 L 132.0,192.8 L 129.7,189.7 L 129.7,188.6 L 129.6,188.4 L 129.6,188.4" fill="none" stroke="black" stroke-width="2"/>
</svg>