<?xml version="1.0" encoding="UTF-8"?>
<svg width="400" height="400" viewBox="0 0 400 400" xmlns="http://www.w3.org/2000/svg">
  <rect width="400" height="400" fill="white"/>
  <path d="M 183.5,232.7 L 183.5,232.7 L 184.1,232.1 L 184.8,231.1 L 185.7,229.0 L 186.0,228.1 L 187.0,228.4 L 187.1,228.4 L 187.3,228.3 L 187.2,228.3 L 187.2,228.1 L 187.2,227.8 L 187.2,227.8 L 187.2,227.8 L 187.3,227.7 L 187.5,227.6 L 187.5,227.2 L 187.2,227.2 L 187.1,226.8 L 187.2,226.7 L 187.0,226.6 L 187.0,226.6 L 186.9,226.6 L 186.6,226.5 L 186.7,226.2 L 186.7,226.2 L 186.9,226.0 L 186.9,225.9 L 186.9,225.7 L 186.9,225.6 L 186.6,225.3 L 186.7,225.1 L 187.3,225.2 L 187.5,225.4 L 187.5,225.3 L 187.6,225.0 L 187.8,224.8 L 187.4,224.6 L 186.8,224.4 L 186.9,224.3 L 186.7,224.2 L 186.7,224.2 L 186.8,223.8 L 186.9,223.7 L 187.1,223.6 L 187.1,223.6 L 187.6,223.5 L 187.9,223.4 L 188.0,223.5 L 188.0,223.6 L 188.4,222.8 L 188.8,221.9 L 189.0,221.6 L 189.1,221.5 L 189.0,221.3 L 188.8,221.2 L 188.6,220.7 L 188.6,220.7 L 189.2,219.8 L 190.1,217.8 L 190.4,216.9 L 191.0,214.8 L 191.1,213.5 L 190.9,210.3 L 190.5,207.8 L 190.4,206.9 L 190.3,206.0 L 190.2,201.5 L 189.9,196.0 L 189.7,194.0 L 190.0,190.5 L 189.8,189.6 L 189.6,189.2 L 189.1,188.4 L 188.6,187.6 L 188.1,186.2 L 187.9,185.8 L 186.9,184.0 L 186.4,182.3 L 186.0,178.7 L 186.1,178.0 L 186.3,177.6 L 186.3,176.8 L 185.8,175.4 L 185.4,175.0 L 185.1,174.9 L 184.8,174.3 L 184.3,174.2 L 183.5,174.4 L 183.4,174.5 L 182.9,174.4 L 182.5,174.3 L 182.3,174.0 L 182.3,173.7 L 181.9,173.3 L 181.0,173.0 L 180.4,172.3 L 180.2,171.5 L 180.1,170.4 L 180.3,169.7 L 180.8,169.1 L 181.4,168.4 L 181.5,168.1 L 180.8,167.7 L 180.5,167.4 L 179.7,167.2 L 179.5,167.6 L 178.5,168.1 L 177.6,168.3 L 176.7,168.2 L 175.2,167.8 L 174.0,167.3 L 172.9,166.5 L 171.4,164.1 L 168.6,161.9 L 168.0,161.6 L 168.0,161.3 L 167.5,161.0 L 164.6,158.5 L 164.2,157.7 L 164.0,157.0 L 164.2,155.9 L 163.8,155.7 L 162.9,155.7 L 162.2,154.8 L 162.0,154.2 L 161.8,152.9 L 161.5,152.3 L 161.6,151.6 L 161.2,151.4 L 160.3,151.1 L 159.8,150.6 L 159.5,149.7 L 159.0,149.7 L 158.3,149.1 L 157.8,149.0 L 157.2,149.1 L 156.6,148.7 L 156.1,148.0 L 156.5,147.1 L 156.8,145.7 L 156.3,145.4 L 154.4,145.1 L 153.5,146.3 L 153.3,147.1 L 152.9,147.5 L 151.4,147.3 L 149.9,147.1 L 149.4,146.6 L 147.7,146.4 L 145.3,144.0 L 145.2,143.7 L 145.3,143.4 L 144.6,143.3 L 144.6,142.2 L 145.0,141.9 L 144.8,141.7 L 144.6,141.9 L 144.6,142.1 L 144.5,142.2 L 144.4,142.3 L 143.6,142.6 L 142.4,142.7 L 140.8,142.5 L 140.4,142.6 L 139.7,142.5 L 139.6,142.6 L 139.6,142.6 L 130.4,123.6 L 131.6,123.4 L 132.2,122.8 L 132.9,122.5 L 133.1,122.0 L 133.2,121.7 L 133.2,121.5 L 132.9,121.2 L 133.0,120.2 L 132.1,118.5 L 131.5,118.4 L 131.2,117.9 L 131.3,116.7 L 131.7,116.0 L 131.2,115.2 L 130.6,115.0 L 130.1,113.9 L 129.5,113.6 L 129.6,113.5 L 130.6,113.2 L 130.8,112.9 L 130.1,112.5 L 129.7,111.9 L 129.1,111.6 L 128.8,110.7 L 128.5,110.5 L 128.6,109.8 L 126.9,107.4 L 126.6,107.3 L 126.3,107.0 L 125.3,106.9 L 125.1,106.6 L 125.5,106.2 L 124.3,105.3 L 124.3,103.6 L 124.4,103.3 L 124.3,102.9 L 124.8,102.4 L 124.8,102.0 L 124.4,101.0 L 124.5,100.5 L 124.4,100.2 L 124.4,99.8 L 124.3,99.5 L 123.6,98.6 L 123.2,97.8 L 123.5,97.2 L 122.8,96.3 L 122.5,96.2 L 122.7,95.7 L 122.4,95.3 L 122.4,95.0 L 122.0,94.6 L 122.2,94.3 L 122.1,94.0 L 122.4,93.6 L 121.9,92.9 L 123.0,92.3 L 123.3,92.2 L 123.2,91.9 L 122.9,91.8 L 122.5,91.2 L 121.6,90.9 L 121.4,90.4 L 120.9,89.9 L 120.8,89.5 L 120.9,89.2 L 121.3,88.7 L 121.3,88.5 L 120.3,88.2 L 120.1,88.0 L 152.0,60.0 L 174.3,40.3 L 174.7,40.0 L 176.5,40.3 L 176.7,40.5 L 179.0,40.9 L 179.2,41.2 L 179.7,41.3 L 180.4,42.0 L 181.9,42.1 L 183.3,42.3 L 183.6,42.6 L 183.2,43.0 L 183.1,43.4 L 185.0,43.7 L 185.8,44.1 L 185.8,44.3 L 184.5,44.4 L 184.2,44.5 L 184.0,45.0 L 184.4,45.3 L 185.9,45.4 L 186.1,45.8 L 186.8,45.8 L 187.7,45.1 L 188.6,45.3 L 189.8,46.8 L 191.0,47.3 L 193.5,48.3 L 194.7,49.5 L 195.2,50.8 L 195.1,51.9 L 194.7,52.5 L 194.2,52.7 L 192.5,52.8 L 192.5,53.7 L 192.3,54.0 L 191.4,54.0 L 191.1,54.1 L 190.0,54.0 L 189.9,54.4 L 190.9,55.2 L 191.2,55.9 L 191.4,56.4 L 192.1,56.5 L 192.9,56.2 L 193.2,56.3 L 193.3,56.4 L 193.6,57.5 L 193.3,57.6 L 192.9,58.0 L 191.9,58.6 L 192.1,59.1 L 193.0,59.3 L 192.8,60.1 L 193.0,60.4 L 193.8,60.9 L 194.2,61.7 L 194.7,62.4 L 196.8,62.8 L 198.1,63.6 L 198.8,64.5 L 199.1,65.2 L 199.2,65.3 L 199.1,65.7 L 199.0,66.1 L 198.1,67.8 L 198.2,68.0 L 198.5,68.1 L 198.4,68.6 L 197.9,68.7 L 196.6,68.2 L 196.2,68.3 L 196.1,68.6 L 196.6,69.4 L 196.7,69.9 L 197.1,70.2 L 197.4,70.5 L 197.4,71.0 L 197.2,71.2 L 196.8,71.2 L 196.2,70.3 L 195.8,70.1 L 195.5,70.3 L 195.6,71.7 L 195.8,72.0 L 196.3,72.3 L 196.5,72.6 L 196.8,73.1 L 196.9,73.8 L 197.1,74.3 L 197.0,74.5 L 197.0,74.8 L 196.8,74.8 L 194.9,74.5 L 193.2,73.2 L 192.5,73.0 L 192.2,73.4 L 191.7,73.5 L 191.2,73.6 L 191.9,74.5 L 193.6,74.8 L 194.1,75.2 L 194.8,75.3 L 195.3,75.1 L 196.9,75.5 L 197.5,75.9 L 197.4,76.4 L 197.8,76.7 L 197.6,78.4 L 197.3,78.6 L 196.5,78.8 L 196.2,79.0 L 195.6,79.7 L 195.4,80.3 L 194.9,80.7 L 194.0,80.6 L 192.6,80.0 L 192.1,79.2 L 191.5,78.9 L 190.5,78.7 L 190.0,78.8 L 190.0,79.2 L 190.3,79.8 L 189.9,80.0 L 189.9,80.4 L 190.6,80.9 L 190.9,81.4 L 190.5,81.8 L 190.1,81.8 L 189.5,81.5 L 189.3,81.6 L 189.5,82.7 L 189.1,82.9 L 189.2,83.2 L 189.8,83.8 L 190.4,83.8 L 191.7,83.8 L 192.0,84.0 L 191.8,84.6 L 191.9,84.7 L 192.7,84.7 L 193.1,84.5 L 193.4,84.5 L 193.5,84.9 L 193.8,85.3 L 194.7,85.2 L 195.4,85.1 L 195.4,85.3 L 195.4,85.5 L 195.3,85.9 L 195.3,86.3 L 196.0,86.4 L 196.2,86.6 L 196.2,87.3 L 195.8,87.6 L 196.1,88.0 L 196.0,88.2 L 196.1,88.4 L 197.0,88.6 L 197.7,88.7 L 198.2,89.2 L 199.1,89.9 L 199.5,89.9 L 199.6,89.6 L 200.2,89.6 L 200.8,89.3 L 201.1,88.9 L 202.7,88.8 L 204.2,88.9 L 204.5,89.2 L 204.3,89.7 L 204.9,90.2 L 205.3,90.2 L 205.6,90.1 L 206.2,90.2 L 207.1,89.5 L 209.6,89.7 L 210.5,90.4 L 211.1,90.5 L 211.7,90.8 L 212.7,91.0 L 213.1,91.5 L 213.0,92.2 L 213.9,92.9 L 214.2,92.8 L 213.9,92.2 L 214.1,92.1 L 215.6,92.7 L 215.9,92.2 L 217.1,92.3 L 217.9,92.7 L 218.1,93.0 L 218.1,93.2 L 219.2,93.9 L 219.6,93.9 L 219.7,93.4 L 219.5,92.3 L 219.6,92.2 L 221.7,92.5 L 223.5,93.4 L 224.5,93.4 L 225.0,93.2 L 225.6,93.5 L 226.2,93.5 L 226.6,93.3 L 227.8,93.9 L 228.4,94.4 L 228.4,94.8 L 228.9,95.5 L 229.1,95.7 L 229.9,95.9 L 231.9,97.2 L 232.2,98.1 L 231.8,98.7 L 231.1,99.4 L 231.0,99.8 L 230.6,100.1 L 230.4,100.9 L 229.7,100.8 L 229.2,101.0 L 229.2,101.5 L 229.4,101.9 L 230.4,102.1 L 230.5,101.8 L 231.0,101.7 L 231.4,102.8 L 231.1,103.0 L 231.0,103.4 L 231.7,103.8 L 231.5,104.0 L 231.3,104.4 L 232.2,105.5 L 232.3,106.0 L 232.5,106.4 L 232.8,106.7 L 232.7,107.3 L 232.9,107.6 L 232.7,107.8 L 232.6,108.4 L 232.8,109.0 L 233.7,109.8 L 234.1,109.8 L 234.7,109.6 L 234.8,109.2 L 234.2,108.2 L 234.3,107.7 L 234.5,107.4 L 234.7,106.9 L 236.4,106.9 L 238.2,107.3 L 238.8,107.1 L 239.0,106.5 L 239.3,106.2 L 239.3,105.8 L 239.2,105.5 L 239.4,104.8 L 240.0,104.2 L 240.6,103.9 L 241.7,103.6 L 243.0,103.6 L 243.6,104.0 L 244.6,105.7 L 245.0,105.8 L 245.5,107.4 L 246.0,108.5 L 246.3,108.3 L 246.5,106.7 L 246.7,106.9 L 247.2,107.4 L 247.6,107.1 L 247.7,106.9 L 248.2,106.9 L 248.4,106.6 L 248.3,106.2 L 248.5,105.9 L 248.9,106.0 L 249.2,105.6 L 249.8,105.6 L 250.5,106.2 L 250.5,106.5 L 250.6,106.7 L 251.1,106.7 L 251.5,106.3 L 251.6,106.1 L 252.0,106.0 L 252.9,105.3 L 254.4,104.6 L 255.3,104.5 L 255.9,104.7 L 256.1,105.1 L 256.0,105.2 L 255.8,106.4 L 255.5,106.6 L 254.6,107.2 L 254.4,107.8 L 254.5,108.2 L 253.9,108.8 L 254.0,109.1 L 253.8,109.5 L 253.0,110.0 L 253.6,110.7 L 254.1,110.8 L 254.2,110.5 L 255.2,110.3 L 255.5,110.5 L 255.5,111.2 L 254.7,111.8 L 254.7,111.9 L 254.7,112.1 L 255.3,112.0 L 255.3,112.0 L 255.5,112.0 L 255.9,112.1 L 255.9,112.5 L 255.3,113.0 L 255.5,113.3 L 256.1,113.2 L 256.8,113.5 L 256.8,114.0 L 256.1,114.5 L 256.0,115.2 L 256.6,115.3 L 256.8,115.6 L 257.1,115.6 L 257.3,114.9 L 257.6,114.8 L 258.1,114.8 L 258.9,114.2 L 259.5,114.3 L 260.1,113.8 L 260.1,113.8 L 260.1,114.0 L 260.1,114.3 L 260.2,114.5 L 260.2,114.6 L 259.8,114.8 L 259.8,115.1 L 260.0,115.4 L 260.0,116.2 L 260.3,116.2 L 260.5,116.1 L 260.5,116.1 L 260.6,116.3 L 260.7,116.6 L 260.8,116.9 L 261.0,117.2 L 261.1,117.6 L 261.4,118.1 L 261.5,118.4 L 261.5,118.6 L 261.0,118.6 L 260.3,118.7 L 260.2,118.9 L 260.0,119.3 L 260.2,119.7 L 260.4,119.7 L 261.0,119.5 L 261.2,119.6 L 261.2,120.1 L 261.5,120.2 L 261.7,120.0 L 262.4,120.6 L 263.0,120.7 L 263.1,120.5 L 263.1,120.5 L 263.2,120.6 L 263.3,120.8 L 263.6,121.0 L 263.8,121.2 L 264.1,121.5 L 264.5,121.8 L 264.8,122.0 L 264.8,122.0 L 278.7,147.8 L 278.9,148.1 L 278.9,148.3 L 278.5,148.4 L 278.1,149.1 L 278.3,149.4 L 277.7,149.9 L 277.2,150.0 L 276.8,149.7 L 276.6,149.8 L 276.4,150.7 L 276.8,151.8 L 276.6,152.0 L 276.1,152.1 L 276.0,152.6 L 276.0,152.7 L 275.7,153.1 L 275.5,153.5 L 275.3,153.9 L 275.0,154.3 L 274.7,154.7 L 274.5,155.1 L 274.2,155.7 L 274.0,156.2 L 273.9,156.3 L 273.6,156.0 L 273.4,155.7 L 273.7,155.6 L 273.9,155.3 L 273.5,155.0 L 273.2,155.1 L 272.7,155.0 L 272.3,155.2 L 272.5,156.2 L 272.9,157.0 L 273.2,157.3 L 273.3,157.5 L 273.2,157.7 L 273.1,157.7 L 272.7,157.6 L 272.6,157.8 L 272.8,158.3 L 272.9,158.4 L 272.7,158.9 L 272.6,159.3 L 272.4,159.5 L 272.3,159.2 L 272.3,158.5 L 272.1,158.1 L 271.8,158.1 L 271.6,158.5 L 271.2,158.2 L 270.9,158.5 L 270.6,158.8 L 270.6,159.6 L 270.7,159.8 L 271.2,159.7 L 271.3,160.0 L 271.4,161.3 L 271.5,162.0 L 271.8,162.3 L 271.8,162.4 L 271.8,162.8 L 271.8,163.0 L 271.8,163.0 L 271.8,163.1 L 271.9,163.1 L 272.0,163.2 L 272.0,163.2 L 272.2,163.2 L 272.2,163.0 L 272.3,162.8 L 272.3,162.7 L 272.4,162.8 L 272.8,162.8 L 272.9,162.8 L 273.2,162.5 L 273.2,162.1 L 273.0,161.9 L 273.0,161.8 L 272.8,160.8 L 272.9,160.7 L 273.2,160.9 L 273.3,161.1 L 273.5,161.4 L 273.9,162.0 L 274.1,161.9 L 273.5,160.7 L 273.4,160.5 L 273.4,160.4 L 273.2,160.2 L 273.0,159.9 L 272.9,159.9 L 272.8,159.7 L 273.0,159.4 L 273.1,158.9 L 273.3,158.5 L 273.4,158.1 L 273.6,157.8 L 273.7,157.6 L 273.8,157.5 L 274.2,157.3 L 274.3,156.8 L 274.2,156.6 L 274.2,156.5 L 274.3,156.3 L 274.5,155.9 L 274.7,155.5 L 274.9,155.1 L 275.1,154.7 L 275.2,154.6 L 275.3,154.8 L 275.7,155.2 L 275.7,155.3 L 276.1,155.8 L 276.4,156.0 L 276.7,156.2 L 276.5,156.6 L 276.7,157.1 L 277.1,157.4 L 278.6,157.7 L 279.1,158.2 L 279.1,159.6 L 279.5,160.1 L 280.2,160.3 L 280.5,160.6 L 280.7,160.8 L 281.9,160.8 L 281.9,160.8 L 282.8,161.1 L 282.9,161.1 L 283.0,161.7 L 283.3,161.7 L 283.3,161.8 L 283.6,162.7 L 283.6,162.8 L 283.5,163.0 L 283.5,163.2 L 283.7,163.2 L 283.7,163.2 L 283.7,163.5 L 283.7,163.8 L 283.8,164.2 L 283.8,164.5 L 283.9,164.8 L 283.9,164.9 L 283.9,165.2 L 283.6,166.1 L 283.2,166.6 L 283.3,167.1 L 283.5,167.4 L 283.3,167.5 L 283.2,167.3 L 283.0,167.1 L 282.8,167.1 L 282.7,167.4 L 282.4,167.6 L 281.9,168.6 L 281.3,169.3 L 280.8,171.1 L 281.5,172.5 L 281.9,173.0 L 282.3,173.8 L 282.9,174.5 L 283.5,174.6 L 283.8,174.2 L 286.0,177.0 L 286.0,177.1 L 285.9,177.4 L 286.0,177.9 L 286.4,178.6 L 286.3,179.2 L 286.0,180.9 L 286.3,181.2 L 287.0,181.4 L 287.7,182.8 L 290.6,186.7 L 291.7,187.6 L 292.0,188.0 L 292.5,188.3 L 292.9,188.7 L 295.3,190.1 L 295.8,190.1 L 291.8,207.8 L 291.0,206.9 L 290.2,205.8 L 289.7,205.4 L 289.6,205.6 L 289.9,206.6 L 290.7,208.0 L 290.9,209.6 L 291.3,210.1 L 290.8,212.6 L 290.5,212.8 L 290.4,213.0 L 290.5,213.2 L 290.6,213.2 L 289.8,216.8 L 285.4,236.8 L 284.9,236.7 L 284.6,236.3 L 284.4,236.0 L 283.7,235.5 L 283.1,235.1 L 282.8,234.9 L 282.4,234.5 L 282.2,234.5 L 281.4,234.5 L 281.3,234.6 L 281.6,235.3 L 282.4,235.4 L 282.6,235.4 L 282.9,236.0 L 283.0,236.2 L 282.6,236.3 L 282.6,236.3 L 282.1,236.6 L 282.2,237.2 L 282.4,237.5 L 282.2,237.9 L 281.9,238.2 L 281.1,238.5 L 280.2,239.9 L 279.7,241.3 L 279.1,244.2 L 278.8,245.0 L 278.2,245.7 L 277.0,246.1 L 276.9,246.5 L 277.8,246.9 L 278.0,247.2 L 277.6,247.7 L 277.5,249.4 L 277.1,249.9 L 276.6,249.9 L 276.3,249.6 L 275.8,249.6 L 275.1,249.8 L 274.2,250.9 L 273.0,251.5 L 272.2,251.8 L 271.5,252.4 L 271.0,252.7 L 269.7,252.7 L 269.0,253.1 L 268.7,254.2 L 267.9,255.3 L 267.1,255.8 L 266.8,255.8 L 265.1,257.1 L 263.9,257.7 L 262.8,257.6 L 261.6,257.0 L 260.9,256.6 L 259.9,256.3 L 258.0,255.9 L 255.4,255.8 L 254.1,256.0 L 253.1,255.9 L 251.6,255.7 L 251.1,255.1 L 250.3,255.3 L 250.0,255.6 L 249.7,255.7 L 249.0,255.8 L 248.3,255.7 L 247.8,255.2 L 246.9,255.2 L 246.6,255.4 L 246.3,256.2 L 244.7,256.8 L 244.4,257.2 L 243.8,257.5 L 243.4,258.5 L 242.8,258.9 L 242.6,259.3 L 242.5,259.4 L 241.8,260.4 L 241.9,260.7 L 241.7,261.3 L 241.1,262.2 L 240.7,263.2 L 240.6,264.1 L 239.2,265.2 L 238.5,266.0 L 236.8,267.7 L 235.0,269.1 L 234.7,269.3 L 233.9,269.6 L 233.0,270.1 L 231.7,271.1 L 230.7,271.7 L 230.3,272.2 L 229.0,272.7 L 228.6,273.5 L 227.8,274.0 L 227.4,274.5 L 226.5,275.3 L 226.4,275.8 L 226.0,276.4 L 224.8,277.3 L 223.8,278.5 L 222.5,279.4 L 221.3,280.7 L 219.2,282.9 L 219.0,283.3 L 218.5,283.7 L 217.6,284.0 L 217.0,284.2 L 216.1,284.6 L 215.9,285.0 L 216.0,285.8 L 215.2,287.2 L 214.3,288.0 L 212.1,288.7 L 211.3,289.5 L 210.6,289.7 L 209.6,289.6 L 209.5,289.7 L 208.6,290.4 L 208.3,290.8 L 207.8,291.7 L 207.4,292.9 L 206.6,294.2 L 206.5,294.9 L 205.0,296.9 L 204.7,298.1 L 203.6,299.4 L 203.1,300.5 L 202.4,302.2 L 201.9,302.4 L 201.3,304.5 L 200.9,305.4 L 200.4,306.0 L 200.4,306.1 L 200.4,306.3 L 200.6,306.8 L 200.3,307.0 L 200.2,307.6 L 200.0,308.0 L 200.1,308.7 L 199.5,310.0 L 199.7,310.6 L 199.7,311.0 L 199.3,311.6 L 199.3,313.2 L 199.4,314.8 L 199.4,315.4 L 198.4,318.6 L 198.3,318.7 L 197.8,319.4 L 198.2,319.9 L 197.8,322.4 L 197.5,323.1 L 197.0,323.6 L 196.9,324.8 L 197.1,325.8 L 197.0,326.5 L 197.0,326.6 L 196.9,327.5 L 196.9,327.7 L 196.3,330.4 L 195.9,331.2 L 195.2,331.4 L 195.0,331.9 L 194.5,332.4 L 194.8,333.3 L 194.3,333.5 L 194.2,333.7 L 194.3,333.9 L 194.7,334.1 L 195.4,333.8 L 196.7,336.0 L 196.7,337.3 L 197.0,338.8 L 197.0,339.5 L 197.2,340.5 L 197.2,342.8 L 197.2,343.9 L 197.5,344.7 L 197.5,345.7 L 197.2,346.7 L 196.9,347.8 L 196.6,348.3 L 197.0,348.5 L 197.1,348.7 L 197.4,349.0 L 197.6,350.2 L 197.4,351.8 L 197.1,352.7 L 196.6,353.5 L 196.1,353.6 L 195.5,353.9 L 194.8,355.3 L 194.1,355.3 L 194.0,355.5 L 194.4,355.9 L 194.9,356.6 L 194.9,357.0 L 194.5,358.1 L 194.4,359.0 L 194.3,359.0 L 193.1,360.0 L 192.8,359.7 L 152.0,314.6 L 148.9,311.2 L 149.6,311.1 L 150.2,311.2 L 150.3,311.0 L 149.8,310.8 L 149.9,310.3 L 150.7,310.2 L 150.9,310.0 L 150.9,309.7 L 150.7,309.4 L 150.4,309.4 L 150.2,309.2 L 150.4,309.0 L 150.2,308.7 L 149.7,308.5 L 149.1,308.9 L 148.9,308.6 L 148.5,308.6 L 148.4,308.8 L 148.0,309.2 L 147.6,309.2 L 147.4,309.3 L 147.6,309.8 L 143.7,305.4 L 143.7,305.4 L 144.8,305.7 L 145.4,306.2 L 145.6,306.5 L 145.9,306.4 L 146.2,306.5 L 146.6,306.5 L 146.6,306.7 L 146.9,306.9 L 147.1,306.7 L 147.5,306.8 L 147.9,306.7 L 148.3,306.6 L 148.3,306.3 L 148.0,306.2 L 147.8,306.3 L 147.4,306.4 L 147.1,306.4 L 146.7,306.2 L 146.4,306.0 L 146.2,305.8 L 146.1,305.6 L 145.7,305.6 L 145.5,305.8 L 145.3,305.8 L 145.1,305.6 L 145.1,305.6 L 145.1,305.3 L 144.9,305.2 L 144.7,305.1 L 144.6,304.9 L 144.4,304.7 L 144.2,304.5 L 143.9,304.3 L 143.7,304.1 L 143.6,304.0 L 143.4,303.9 L 142.2,302.7 L 141.9,302.2 L 142.0,302.0 L 142.1,301.8 L 142.4,301.7 L 142.6,301.6 L 142.9,301.6 L 143.1,301.3 L 143.5,301.3 L 144.0,301.2 L 144.3,301.2 L 144.7,301.2 L 145.1,301.1 L 145.3,301.0 L 145.6,301.2 L 145.9,301.5 L 146.3,301.6 L 146.6,301.6 L 146.7,301.3 L 146.8,301.2 L 146.7,300.9 L 146.7,300.8 L 147.0,300.8 L 147.4,300.9 L 147.5,301.0 L 147.6,300.7 L 147.4,300.5 L 147.0,300.3 L 146.7,300.1 L 146.5,299.9 L 146.4,299.5 L 146.4,299.3 L 146.5,298.6 L 145.0,297.4 L 145.6,295.9 L 146.0,295.8 L 146.7,295.7 L 146.7,295.4 L 145.8,294.7 L 145.3,294.6 L 144.8,294.2 L 144.9,293.7 L 145.7,293.8 L 146.2,294.0 L 147.0,293.7 L 147.6,293.4 L 148.1,293.3 L 148.4,292.8 L 148.9,292.5 L 148.7,292.0 L 148.3,291.6 L 147.3,290.3 L 147.3,289.6 L 147.4,289.2 L 147.8,288.9 L 148.4,288.8 L 148.7,288.0 L 148.6,287.6 L 147.3,287.2 L 146.7,287.3 L 145.1,288.2 L 144.2,288.4 L 142.8,289.0 L 141.9,289.2 L 140.6,290.1 L 140.3,290.5 L 140.1,291.3 L 140.4,292.0 L 140.8,292.3 L 142.2,292.7 L 142.5,292.5 L 143.0,292.3 L 143.3,292.8 L 143.2,293.0 L 143.1,293.2 L 143.5,293.7 L 143.5,294.2 L 143.1,294.3 L 142.4,294.4 L 141.6,294.8 L 140.8,295.0 L 140.4,295.1 L 139.7,295.7 L 137.7,296.1 L 136.5,296.0 L 136.0,296.4 L 135.8,297.1 L 134.6,296.9 L 134.3,297.0 L 133.9,297.0 L 133.4,297.4 L 133.3,297.7 L 132.9,297.8 L 132.7,298.2 L 132.5,298.0 L 132.8,297.6 L 132.3,297.1 L 132.1,296.9 L 132.5,296.1 L 131.9,295.8 L 131.3,295.7 L 130.5,295.2 L 130.0,295.1 L 130.0,295.1 L 118.8,282.5 L 118.8,282.5 L 119.4,282.0 L 119.5,281.9 L 119.3,281.5 L 118.8,281.9 L 118.4,282.0 L 117.2,280.7 L 118.3,279.6 L 119.2,279.2 L 120.3,278.4 L 121.0,277.6 L 121.5,277.4 L 121.6,277.1 L 121.3,276.9 L 120.1,276.3 L 119.9,276.0 L 119.9,275.8 L 120.2,275.7 L 120.3,275.4 L 120.0,275.1 L 118.9,275.0 L 118.7,275.2 L 118.8,275.7 L 118.4,276.1 L 117.7,276.1 L 117.2,276.8 L 114.8,277.3 L 114.0,277.4 L 113.3,278.1 L 111.7,278.1 L 111.9,277.9 L 111.9,277.5 L 111.4,277.0 L 111.6,276.6 L 111.4,276.2 L 110.9,276.1 L 110.0,276.2 L 109.0,276.5 L 108.5,276.5 L 108.2,276.0 L 107.8,276.0 L 107.4,276.8 L 106.6,276.7 L 106.0,276.9 L 105.6,276.9 L 105.1,277.5 L 104.2,277.1 L 106.0,275.3 L 106.5,275.2 L 107.4,274.7 L 107.7,274.2 L 107.6,274.0 L 107.5,273.9 L 107.3,274.0 L 111.5,269.6 L 111.5,270.0 L 111.6,270.1 L 112.1,270.1 L 112.4,269.9 L 112.5,269.2 L 112.3,269.0 L 111.8,269.5 L 111.6,269.5 L 116.7,264.2 L 116.8,264.5 L 117.4,264.6 L 118.6,263.9 L 119.2,263.8 L 119.4,264.5 L 119.9,264.6 L 120.4,264.3 L 120.7,264.5 L 121.2,264.6 L 121.4,265.1 L 121.9,265.2 L 122.2,265.1 L 122.6,264.1 L 123.0,263.9 L 123.8,264.2 L 124.2,265.2 L 124.0,266.2 L 124.1,266.4 L 124.2,266.7 L 124.9,266.7 L 125.2,266.6 L 126.3,266.7 L 126.6,266.6 L 127.3,266.4 L 127.2,266.2 L 126.9,266.0 L 126.4,265.3 L 126.6,264.7 L 126.9,264.5 L 128.7,264.6 L 128.9,264.5 L 129.0,264.7 L 129.4,264.7 L 130.3,264.2 L 131.2,264.1 L 132.2,263.5 L 132.9,263.5 L 133.3,263.4 L 134.1,263.4 L 134.2,263.5 L 134.8,263.2 L 136.9,263.5 L 137.7,263.0 L 138.1,263.0 L 138.5,262.5 L 138.9,261.2 L 139.6,260.7 L 140.7,260.5 L 140.8,260.8 L 140.8,261.3 L 141.1,261.2 L 141.3,261.0 L 141.5,260.0 L 141.9,259.7 L 142.6,259.8 L 142.9,259.5 L 142.9,259.2 L 142.0,258.8 L 142.1,258.4 L 141.8,258.1 L 142.0,257.4 L 142.5,257.2 L 142.5,256.9 L 142.1,256.7 L 142.3,256.0 L 142.6,255.4 L 142.5,254.4 L 142.5,254.4 L 142.9,253.9 L 143.0,253.8 L 143.1,253.8 L 143.1,253.7 L 143.0,253.5 L 142.9,253.1 L 142.9,253.1 L 142.9,253.0 L 142.8,252.8 L 142.2,252.8 L 142.1,252.8 L 142.2,252.2 L 142.0,251.5 L 142.1,251.1 L 142.4,250.9 L 142.7,250.7 L 142.5,249.8 L 142.5,249.4 L 142.1,249.0 L 142.0,248.5 L 142.2,248.1 L 142.8,247.2 L 143.0,246.8 L 142.5,246.6 L 152.0,239.4 L 160.0,233.3 L 160.6,234.3 L 161.2,235.1 L 161.7,235.1 L 162.2,235.1 L 162.8,235.5 L 165.7,238.4 L 166.4,238.5 L 167.0,238.8 L 167.7,238.8 L 168.4,238.5 L 169.6,238.4 L 172.6,239.3 L 173.8,239.5 L 175.4,239.1 L 177.7,238.0 L 178.2,237.9 L 179.3,237.4 L 179.9,236.9 L 180.4,236.6 L 181.2,235.4 L 182.5,234.2 L 183.5,232.7" fill="none" stroke="black" stroke-width="2"/>
</svg>