<?xml version="1.0" encoding="UTF-8"?>
<svg width="400" height="400" viewBox="0 0 400 400" xmlns="http://www.w3.org/2000/svg">
  <rect width="400" height="400" fill="white"/>
  <path d="M 207.4,195.1 L 205.7,194.6 L 202.0,190.7 L 201.6,190.2 L 199.4,186.0 L 198.9,180.7 L 200.3,179.8 L 198.9,178.9 L 193.6,178.1 L 191.4,177.7 L 189.8,175.5 L 190.4,170.3 L 193.2,166.2 L 193.8,159.7 L 192.4,156.8 L 190.9,154.3 L 189.4,151.4 L 185.2,145.7 L 183.5,140.0 L 182.9,139.1 L 176.8,134.1 L 172.7,131.9 L 164.9,127.1 L 160.7,125.0 L 157.2,121.6 L 147.5,113.9 L 144.9,111.6 L 141.9,110.2 L 133.4,110.4 L 128.8,109.4 L 122.9,107.2 L 119.8,104.8 L 118.6,100.9 L 116.6,98.4 L 114.2,97.9 L 108.6,95.1 L 108.8,92.7 L 111.3,91.8 L 111.7,90.4 L 110.9,89.3 L 109.3,89.6 L 108.2,91.4 L 105.9,91.3 L 104.7,89.7 L 103.7,89.3 L 99.2,89.5 L 96.9,90.1 L 92.9,92.4 L 92.8,93.1 L 62.0,67.8 L 63.3,67.1 L 67.2,62.7 L 69.5,59.3 L 69.6,57.8 L 69.7,56.4 L 68.9,54.5 L 70.2,54.2 L 75.8,53.6 L 79.0,53.1 L 81.0,51.6 L 82.6,51.0 L 85.4,50.2 L 86.2,49.2 L 87.0,48.6 L 88.6,48.3 L 91.2,47.6 L 91.2,47.3 L 90.9,47.0 L 89.0,47.3 L 88.3,47.1 L 88.4,46.6 L 88.9,46.1 L 90.5,45.2 L 91.1,45.9 L 91.5,46.0 L 91.8,44.9 L 92.3,44.6 L 94.7,44.8 L 94.9,44.5 L 94.9,43.9 L 95.3,42.5 L 96.1,42.3 L 96.9,42.3 L 98.4,41.8 L 101.3,41.6 L 103.7,41.3 L 107.7,41.3 L 109.1,41.2 L 115.1,40.3 L 118.4,40.6 L 125.7,41.2 L 130.0,40.0 L 133.0,40.4 L 133.4,40.7 L 135.1,41.2 L 135.4,41.2 L 136.4,42.9 L 139.4,44.7 L 143.0,45.2 L 143.6,45.1 L 145.8,44.6 L 151.8,43.9 L 157.2,44.5 L 162.5,45.1 L 163.1,46.3 L 170.8,50.1 L 172.0,52.5 L 171.2,54.4 L 171.1,56.0 L 173.3,59.6 L 173.5,61.4 L 174.4,62.3 L 176.3,63.0 L 177.6,64.6 L 178.2,69.1 L 182.7,74.7 L 184.8,79.2 L 184.9,82.2 L 185.5,83.2 L 187.6,84.3 L 190.3,84.9 L 198.6,85.9 L 202.1,87.2 L 204.8,89.5 L 208.9,96.3 L 213.2,96.9 L 216.3,96.3 L 216.6,96.4 L 219.3,97.8 L 226.2,99.3 L 231.3,102.4 L 234.3,106.0 L 237.0,107.4 L 238.3,109.9 L 239.7,111.7 L 241.2,113.8 L 242.6,114.4 L 244.9,114.7 L 247.6,115.6 L 248.7,116.3 L 251.3,117.2 L 252.3,116.6 L 253.0,116.2 L 255.3,114.7 L 256.9,114.4 L 259.6,114.2 L 262.3,113.7 L 265.0,114.0 L 267.8,114.4 L 270.3,114.8 L 273.1,115.1 L 275.8,115.1 L 277.0,115.4 L 278.2,115.2 L 280.6,115.5 L 282.9,116.0 L 283.8,116.5 L 285.2,115.8 L 286.1,115.9 L 288.5,117.2 L 290.8,118.5 L 292.9,119.9 L 293.7,120.8 L 295.5,121.3 L 297.0,121.9 L 299.4,123.1 L 301.8,124.1 L 302.8,125.0 L 304.8,126.5 L 306.4,128.3 L 307.0,128.6 L 309.5,129.8 L 311.3,131.5 L 312.2,131.9 L 314.6,133.4 L 316.6,134.8 L 317.0,135.3 L 318.1,136.8 L 318.6,137.4 L 319.2,140.2 L 319.0,143.1 L 318.8,143.4 L 318.5,145.5 L 318.3,148.3 L 317.1,150.9 L 315.7,153.4 L 314.4,155.9 L 314.2,158.2 L 314.5,159.5 L 315.0,162.1 L 315.3,164.7 L 315.4,167.2 L 315.6,168.7 L 315.7,169.6 L 315.3,170.8 L 315.0,172.2 L 314.9,173.3 L 314.8,174.7 L 315.2,176.0 L 316.1,178.6 L 316.7,180.9 L 317.3,182.0 L 318.9,184.2 L 318.9,185.1 L 320.2,186.7 L 321.1,187.1 L 322.9,189.0 L 324.2,191.1 L 325.8,192.9 L 327.3,193.5 L 329.0,194.9 L 331.3,196.2 L 332.1,197.7 L 332.8,198.4 L 333.1,198.9 L 333.2,200.4 L 333.8,201.6 L 334.5,204.4 L 335.0,205.8 L 335.7,208.2 L 336.3,210.6 L 336.5,210.8 L 336.7,215.9 L 338.0,224.5 L 336.7,236.7 L 334.8,239.4 L 332.4,241.3 L 323.5,242.9 L 315.3,244.8 L 312.7,247.2 L 311.9,251.3 L 312.4,254.3 L 312.2,259.5 L 312.0,261.9 L 311.3,265.8 L 305.1,270.6 L 302.5,272.6 L 298.9,277.1 L 295.6,283.6 L 290.9,291.1 L 290.9,295.2 L 291.0,295.4 L 291.2,296.2 L 292.4,298.9 L 293.3,299.7 L 294.9,301.7 L 295.1,303.4 L 296.9,319.0 L 297.0,319.4 L 291.4,324.6 L 291.0,326.1 L 291.8,329.4 L 291.5,333.0 L 289.7,335.8 L 289.2,337.9 L 290.7,341.4 L 291.4,342.5 L 291.6,343.4 L 292.4,345.7 L 292.5,346.7 L 293.6,348.9 L 294.4,350.6 L 295.0,351.2 L 296.2,353.3 L 295.9,356.2 L 295.3,357.6 L 294.3,358.5 L 293.3,359.0 L 292.6,359.4 L 290.9,360.0 L 288.1,359.6 L 285.7,359.2 L 284.7,359.0 L 283.0,358.7 L 280.6,357.8 L 278.3,356.8 L 276.0,355.2 L 274.1,353.7 L 273.5,353.0 L 273.8,350.7 L 274.1,348.4 L 274.2,345.8 L 273.6,345.0 L 272.6,344.6 L 271.0,345.0 L 270.2,345.8 L 269.8,347.0 L 269.2,349.7 L 268.4,350.4 L 267.8,350.6 L 265.0,351.4 L 264.1,351.3 L 263.7,351.3 L 261.1,351.0 L 259.0,350.8 L 256.7,350.0 L 254.0,348.9 L 251.3,348.5 L 248.7,348.0 L 246.0,348.1 L 244.5,347.9 L 242.2,347.7 L 239.7,347.6 L 239.3,347.6 L 237.5,347.4 L 235.3,346.9 L 234.2,346.2 L 232.9,345.7 L 231.6,345.2 L 230.5,344.3 L 229.7,343.1 L 229.2,342.6 L 228.9,342.4 L 227.9,341.1 L 227.8,340.8 L 227.6,340.2 L 227.6,338.7 L 227.1,337.3 L 225.6,336.1 L 224.7,334.9 L 223.5,332.9 L 223.6,330.7 L 223.0,329.6 L 222.2,329.6 L 222.4,327.6 L 222.3,327.5 L 222.4,325.0 L 221.5,322.7 L 221.5,321.0 L 221.2,318.4 L 221.5,317.6 L 222.5,315.1 L 222.6,313.4 L 222.4,312.6 L 221.8,311.9 L 220.1,311.2 L 217.4,310.7 L 216.7,310.3 L 216.2,309.5 L 215.0,307.6 L 214.5,305.0 L 214.0,302.8 L 214.0,300.2 L 214.1,297.5 L 213.6,295.8 L 213.5,293.5 L 212.6,292.2 L 211.1,291.3 L 210.6,291.3 L 208.7,290.7 L 207.4,290.6 L 206.1,290.6 L 203.3,288.9 L 200.0,286.8 L 198.9,286.7 L 188.7,285.2 L 186.7,284.8 L 185.7,282.6 L 185.8,278.5 L 184.8,276.8 L 185.4,273.9 L 188.2,271.3 L 189.1,269.1 L 190.8,265.3 L 194.8,260.3 L 195.1,259.9 L 197.4,258.2 L 198.6,258.1 L 201.0,255.3 L 201.8,255.1 L 205.8,254.1 L 208.4,253.5 L 211.9,251.2 L 217.3,250.0 L 220.8,247.4 L 225.8,242.2 L 234.4,236.6 L 235.3,235.0 L 238.0,228.4 L 238.3,224.0 L 233.5,217.1 L 227.7,213.9 L 226.0,212.2 L 224.6,211.8 L 219.4,205.9 L 219.3,204.7 L 219.6,202.9 L 218.1,202.3 L 215.9,202.0 L 213.5,199.9 L 212.7,198.5 L 212.1,197.0 L 209.1,195.6 L 207.4,195.1" fill="none" stroke="black" stroke-width="2"/>
</svg>