<?xml version="1.0" encoding="UTF-8"?>
<svg width="400" height="400" viewBox="0 0 400 400" xmlns="http://www.w3.org/2000/svg">
  <rect width="400" height="400" fill="white"/>
  <path d="M 95.4,271.9 L 95.8,271.2 L 96.1,269.1 L 96.0,267.2 L 95.7,265.7 L 94.9,264.1 L 94.6,262.7 L 94.0,261.7 L 94.6,257.6 L 95.1,256.4 L 94.9,254.4 L 95.4,252.8 L 96.8,251.8 L 98.0,251.6 L 98.4,251.1 L 98.8,247.7 L 100.2,245.8 L 101.5,244.5 L 101.8,242.7 L 102.9,241.9 L 102.4,241.0 L 99.2,240.3 L 93.7,239.4 L 91.8,239.8 L 89.4,239.6 L 87.9,238.8 L 86.4,238.6 L 85.2,238.3 L 84.2,237.5 L 82.2,236.6 L 81.2,235.9 L 79.4,235.1 L 70.5,234.2 L 70.2,234.7 L 69.8,234.1 L 69.6,234.3 L 70.0,234.9 L 69.7,235.5 L 68.4,236.4 L 67.5,238.1 L 66.7,238.8 L 63.1,238.3 L 62.1,237.2 L 59.9,237.8 L 56.8,237.4 L 54.1,237.4 L 53.9,237.5 L 53.3,237.5 L 48.6,235.7 L 47.8,235.0 L 46.2,234.4 L 44.4,233.9 L 44.1,234.0 L 43.1,232.6 L 41.8,230.3 L 41.8,229.3 L 42.0,227.4 L 41.2,225.5 L 40.7,223.5 L 40.4,222.4 L 40.0,221.3 L 40.4,220.0 L 40.6,219.8 L 40.6,218.2 L 40.4,216.7 L 41.1,214.6 L 41.3,213.0 L 40.6,212.0 L 40.1,209.8 L 40.5,207.4 L 40.7,206.6 L 42.2,207.1 L 43.0,206.0 L 43.3,206.0 L 44.3,204.4 L 42.9,203.8 L 43.0,203.6 L 44.4,203.8 L 44.1,203.2 L 42.5,202.4 L 42.0,201.1 L 42.3,199.4 L 43.3,198.7 L 44.2,198.9 L 44.9,198.9 L 46.1,198.6 L 46.2,198.6 L 46.9,198.2 L 47.2,197.5 L 46.8,196.6 L 46.1,196.9 L 46.0,196.9 L 45.1,196.3 L 44.2,195.7 L 45.0,192.9 L 43.4,190.7 L 43.1,188.8 L 43.0,188.6 L 43.6,186.2 L 44.1,185.7 L 45.1,184.9 L 45.5,184.8 L 45.5,184.8 L 45.6,184.8 L 45.9,184.5 L 46.1,183.8 L 45.8,183.1 L 45.2,182.4 L 45.0,181.5 L 45.3,179.2 L 45.9,177.9 L 46.5,178.2 L 48.4,176.6 L 48.6,175.9 L 48.8,175.0 L 48.6,174.4 L 51.6,172.2 L 53.9,170.1 L 57.2,167.5 L 57.9,167.2 L 59.1,166.4 L 61.1,165.3 L 61.8,163.9 L 63.5,162.4 L 66.7,159.9 L 67.8,159.3 L 71.0,158.5 L 72.6,157.8 L 74.8,156.2 L 76.4,154.2 L 76.9,150.6 L 77.8,149.7 L 79.9,149.0 L 80.7,147.7 L 82.7,146.6 L 83.3,146.2 L 86.0,145.3 L 93.4,143.7 L 95.2,143.7 L 96.3,143.7 L 97.1,142.9 L 99.7,137.6 L 101.0,136.2 L 102.0,135.4 L 102.2,134.5 L 102.8,131.4 L 104.4,130.2 L 104.9,129.1 L 105.3,127.7 L 106.1,127.4 L 107.7,127.2 L 110.6,126.1 L 111.6,125.4 L 112.5,123.9 L 112.4,123.1 L 111.2,122.0 L 108.3,122.0 L 106.8,120.8 L 105.5,120.6 L 104.6,120.7 L 103.0,121.8 L 101.0,124.2 L 97.2,127.1 L 96.8,127.2 L 94.4,128.0 L 90.4,130.5 L 89.2,130.5 L 87.6,129.9 L 86.7,129.1 L 85.8,128.2 L 84.4,126.8 L 83.5,124.7 L 83.6,123.5 L 84.6,122.2 L 87.0,120.1 L 87.0,119.9 L 88.0,118.1 L 88.7,117.1 L 90.5,116.1 L 92.2,114.3 L 94.0,113.5 L 96.2,112.2 L 97.2,111.4 L 98.4,109.4 L 98.8,108.8 L 101.3,106.9 L 103.8,106.2 L 104.6,106.5 L 106.1,106.5 L 106.3,106.3 L 106.9,106.3 L 108.0,105.7 L 108.5,103.8 L 109.3,103.6 L 111.3,103.7 L 112.3,103.9 L 113.7,103.5 L 115.1,102.5 L 117.4,101.8 L 117.6,101.9 L 119.1,101.7 L 120.5,100.9 L 121.7,99.5 L 122.4,99.2 L 123.7,98.9 L 124.7,98.5 L 127.2,96.5 L 127.9,95.5 L 129.4,94.4 L 129.9,94.6 L 130.6,95.2 L 130.9,95.7 L 131.3,96.8 L 130.7,97.9 L 128.9,99.8 L 127.1,102.4 L 124.0,104.4 L 123.8,105.1 L 122.6,106.3 L 122.5,107.2 L 123.0,107.9 L 125.1,109.1 L 130.5,108.3 L 132.7,108.7 L 134.0,109.5 L 134.8,109.5 L 135.9,108.2 L 137.0,107.5 L 138.0,107.4 L 138.5,107.6 L 139.1,108.2 L 140.7,108.3 L 142.1,107.8 L 143.0,106.2 L 146.6,103.6 L 156.7,111.2 L 156.7,111.2 L 156.7,111.2 L 182.2,130.5 L 182.3,130.6 L 181.3,131.4 L 180.2,132.2 L 179.0,132.2 L 177.4,133.7 L 177.7,134.2 L 178.3,134.4 L 178.6,134.9 L 178.4,136.8 L 179.3,137.1 L 180.3,137.6 L 180.4,139.3 L 180.8,140.1 L 181.7,140.5 L 183.1,140.3 L 183.8,140.9 L 184.7,141.1 L 187.7,141.2 L 188.5,141.6 L 189.0,142.4 L 189.0,143.5 L 189.4,144.2 L 191.2,144.7 L 192.9,145.7 L 193.4,146.6 L 192.9,147.3 L 192.8,148.3 L 193.2,148.9 L 195.0,150.1 L 195.8,150.9 L 195.7,152.5 L 196.0,153.1 L 197.2,154.0 L 198.4,155.4 L 198.1,156.6 L 196.8,158.5 L 192.9,161.4 L 189.7,162.5 L 186.6,162.5 L 181.6,161.9 L 179.6,161.1 L 177.1,159.5 L 173.2,155.6 L 170.4,154.2 L 169.9,153.5 L 168.7,152.3 L 166.8,151.4 L 164.4,150.9 L 161.9,150.8 L 159.6,150.5 L 156.3,149.2 L 154.2,148.7 L 152.9,148.8 L 151.6,149.9 L 148.8,151.2 L 147.5,152.3 L 145.4,154.8 L 145.9,155.6 L 144.9,156.4 L 145.6,158.0 L 145.3,159.7 L 144.4,160.6 L 144.7,160.8 L 144.8,161.7 L 146.8,163.1 L 147.2,164.5 L 148.3,165.6 L 152.2,167.6 L 152.6,169.1 L 151.9,170.3 L 152.0,170.4 L 151.6,172.1 L 150.2,171.8 L 148.5,172.3 L 146.5,172.4 L 145.6,173.5 L 144.6,174.1 L 142.1,174.2 L 140.6,173.9 L 138.4,174.0 L 137.5,174.6 L 137.0,178.4 L 136.2,179.1 L 134.6,179.9 L 130.3,179.4 L 128.6,179.2 L 125.4,178.4 L 124.9,178.0 L 123.3,176.8 L 122.1,176.4 L 121.5,176.3 L 120.9,176.5 L 120.6,176.7 L 120.4,177.2 L 120.7,178.0 L 121.9,179.7 L 117.5,183.6 L 115.3,183.7 L 114.1,184.6 L 110.1,187.7 L 108.3,188.3 L 105.8,188.7 L 104.2,188.6 L 100.3,188.8 L 99.2,190.0 L 99.7,190.5 L 101.4,190.5 L 103.4,190.6 L 104.8,190.4 L 109.2,190.8 L 111.1,190.2 L 111.8,189.7 L 113.3,189.5 L 115.4,189.7 L 119.6,188.9 L 120.8,188.5 L 122.6,187.2 L 125.6,186.9 L 126.8,187.2 L 126.9,187.4 L 125.7,187.9 L 125.9,188.7 L 126.1,189.0 L 126.3,189.7 L 126.8,190.3 L 129.1,191.4 L 131.5,192.5 L 136.0,193.4 L 138.1,194.3 L 139.1,195.3 L 138.6,196.0 L 138.9,196.6 L 139.7,196.5 L 140.8,195.8 L 143.5,196.3 L 144.8,196.7 L 148.9,197.1 L 149.9,196.7 L 152.1,196.7 L 153.9,196.4 L 156.3,197.1 L 158.2,196.8 L 160.9,198.2 L 161.5,198.1 L 161.9,197.3 L 162.8,197.1 L 164.1,197.0 L 168.7,197.6 L 170.2,197.6 L 178.7,199.0 L 181.9,199.9 L 192.5,202.3 L 193.8,203.2 L 193.9,203.2 L 194.7,203.4 L 196.1,203.2 L 196.9,203.7 L 200.6,204.5 L 201.4,204.8 L 203.8,205.9 L 206.2,206.0 L 206.7,205.8 L 210.7,206.2 L 213.8,205.8 L 215.7,205.8 L 217.4,205.0 L 217.7,203.3 L 218.6,202.0 L 219.0,199.8 L 219.5,199.8 L 220.0,200.4 L 220.5,200.2 L 220.6,199.7 L 220.4,198.8 L 219.5,198.6 L 218.9,198.0 L 219.1,197.1 L 219.3,196.6 L 220.4,196.2 L 220.6,195.3 L 221.1,195.5 L 221.9,196.3 L 222.4,196.1 L 222.4,194.8 L 221.4,193.2 L 221.7,192.1 L 222.5,190.9 L 223.5,189.8 L 225.0,189.2 L 226.9,189.2 L 228.4,189.7 L 230.6,190.0 L 232.6,192.0 L 232.5,192.5 L 231.5,193.7 L 231.2,194.6 L 231.5,195.4 L 233.2,196.0 L 233.6,195.8 L 233.9,195.2 L 235.5,194.0 L 236.3,194.4 L 237.1,195.8 L 238.5,197.5 L 239.4,198.1 L 240.3,199.0 L 241.2,199.4 L 241.8,200.1 L 241.9,201.4 L 243.6,203.0 L 244.6,203.2 L 245.2,203.3 L 246.0,203.6 L 248.2,203.6 L 249.3,202.7 L 250.4,202.2 L 251.2,202.7 L 252.4,203.8 L 253.4,204.3 L 254.0,204.5 L 254.7,204.6 L 257.0,204.9 L 257.4,205.1 L 258.9,207.2 L 259.5,208.3 L 259.5,208.6 L 258.7,208.9 L 257.2,210.5 L 256.3,210.6 L 255.9,210.2 L 257.0,208.4 L 257.1,207.6 L 257.0,207.4 L 255.5,206.8 L 254.3,207.2 L 251.5,208.8 L 248.0,210.3 L 247.0,211.1 L 246.6,212.0 L 248.9,213.7 L 249.0,213.8 L 249.0,213.8 L 248.9,214.0 L 248.5,214.5 L 247.4,216.2 L 245.4,216.8 L 245.2,217.2 L 245.7,218.2 L 246.2,218.1 L 246.9,217.6 L 250.5,217.7 L 251.0,218.1 L 252.5,218.2 L 253.9,217.6 L 254.0,217.1 L 253.3,216.1 L 253.4,215.9 L 255.4,216.2 L 256.1,214.9 L 256.1,214.9 L 256.1,214.8 L 256.2,214.4 L 257.4,213.1 L 258.3,213.6 L 259.2,214.4 L 261.5,215.0 L 265.5,215.6 L 266.2,215.4 L 266.8,215.4 L 267.4,214.7 L 268.1,213.5 L 268.7,213.0 L 269.7,212.9 L 270.8,212.3 L 271.6,212.1 L 272.4,211.5 L 273.2,211.2 L 276.0,211.5 L 277.1,211.1 L 277.8,210.9 L 278.9,210.1 L 279.4,208.4 L 279.7,208.1 L 280.7,207.0 L 281.3,206.9 L 284.8,207.3 L 285.5,207.2 L 286.4,207.5 L 287.4,208.6 L 288.8,209.3 L 289.3,209.5 L 292.4,210.5 L 296.1,210.4 L 304.0,211.8 L 304.9,211.7 L 306.5,211.1 L 307.5,211.0 L 308.7,211.5 L 309.8,211.7 L 311.5,210.9 L 314.7,211.2 L 316.3,210.7 L 317.5,210.1 L 325.3,210.2 L 327.2,210.3 L 330.1,210.6 L 330.4,210.8 L 331.1,211.2 L 332.1,212.1 L 334.2,213.5 L 336.7,214.2 L 339.5,215.5 L 341.4,216.8 L 341.6,216.9 L 344.6,218.6 L 346.1,219.0 L 349.3,220.5 L 352.3,220.8 L 353.7,219.9 L 354.9,219.8 L 358.3,221.3 L 360.0,221.6 L 357.8,230.0 L 357.5,231.3 L 357.1,231.1 L 355.6,230.6 L 354.4,230.2 L 353.8,230.6 L 353.5,231.3 L 353.8,231.9 L 353.8,232.9 L 353.2,234.3 L 352.2,235.0 L 350.6,235.1 L 348.7,232.5 L 346.4,232.2 L 345.0,232.4 L 340.9,236.7 L 338.9,238.2 L 337.3,238.1 L 335.2,238.9 L 333.3,239.0 L 331.4,238.4 L 328.7,238.6 L 327.7,239.4 L 327.1,240.6 L 325.5,241.3 L 323.1,242.2 L 321.9,243.3 L 319.1,244.1 L 317.2,243.9 L 316.1,242.6 L 315.4,242.4 L 314.7,242.8 L 314.3,243.7 L 315.0,244.0 L 315.5,244.4 L 315.1,245.0 L 314.8,246.2 L 314.3,246.9 L 314.0,248.6 L 313.1,249.7 L 312.3,249.8 L 311.1,248.6 L 310.0,248.3 L 308.3,249.6 L 307.9,250.0 L 307.6,251.1 L 308.1,252.9 L 308.2,253.1 L 308.5,253.6 L 309.5,253.9 L 311.7,253.8 L 312.6,253.5 L 315.6,252.5 L 316.1,252.6 L 316.1,253.4 L 315.9,253.8 L 315.1,255.4 L 313.8,257.8 L 312.4,258.8 L 310.6,259.5 L 309.6,259.6 L 308.3,257.8 L 308.2,256.6 L 307.5,255.9 L 304.3,255.4 L 303.1,255.5 L 300.5,254.6 L 299.6,254.3 L 298.9,252.8 L 298.8,252.2 L 298.6,250.8 L 297.7,248.6 L 298.0,248.1 L 298.9,247.4 L 298.5,246.9 L 297.2,247.2 L 296.5,246.3 L 293.0,244.2 L 291.0,243.7 L 289.7,243.2 L 289.5,241.6 L 289.2,240.5 L 288.7,239.8 L 288.2,240.1 L 288.0,241.3 L 288.8,242.8 L 289.3,243.0 L 290.0,244.0 L 290.3,244.7 L 290.2,247.1 L 290.2,247.4 L 287.7,250.7 L 286.8,251.1 L 285.7,251.5 L 284.5,251.3 L 283.7,250.8 L 282.0,249.9 L 281.6,248.7 L 279.2,248.4 L 278.0,249.3 L 277.9,250.3 L 277.5,253.0 L 277.0,253.5 L 274.9,253.2 L 273.8,253.4 L 273.2,253.7 L 270.9,255.1 L 269.9,256.8 L 268.9,257.9 L 267.2,258.0 L 265.2,258.6 L 263.3,259.8 L 261.3,261.6 L 257.8,263.1 L 256.2,264.9 L 256.0,265.6 L 256.3,265.8 L 257.6,265.7 L 258.1,266.0 L 257.4,267.3 L 254.5,270.2 L 253.3,271.0 L 249.3,272.6 L 248.0,272.4 L 247.1,272.0 L 246.0,272.4 L 245.2,273.5 L 244.1,274.5 L 242.3,276.2 L 243.8,276.7 L 244.3,277.4 L 241.1,279.4 L 241.0,280.0 L 244.4,279.4 L 247.1,278.2 L 248.9,279.0 L 249.4,279.5 L 250.2,279.4 L 253.0,277.7 L 255.4,277.3 L 256.9,277.5 L 260.1,276.3 L 261.2,276.9 L 261.4,277.2 L 260.8,277.9 L 258.3,280.2 L 257.3,280.2 L 255.9,280.9 L 254.3,281.2 L 253.2,282.0 L 251.3,282.9 L 250.9,283.3 L 248.9,283.9 L 247.1,284.9 L 246.5,286.5 L 245.8,287.2 L 244.1,287.9 L 242.1,289.2 L 240.1,290.1 L 237.9,291.8 L 237.4,294.1 L 236.8,295.3 L 234.6,296.5 L 234.1,299.0 L 233.7,299.5 L 232.4,298.7 L 229.9,298.3 L 228.1,297.7 L 227.2,297.8 L 224.6,300.6 L 223.5,300.8 L 222.2,300.8 L 222.3,300.3 L 222.9,297.5 L 223.4,296.7 L 223.6,295.2 L 222.9,292.8 L 223.0,291.4 L 222.3,290.5 L 221.6,290.4 L 217.8,291.4 L 214.3,293.4 L 213.5,294.5 L 213.7,294.8 L 214.9,295.3 L 215.3,296.3 L 215.0,298.0 L 214.5,298.5 L 212.3,298.8 L 211.3,299.4 L 211.2,299.8 L 211.8,300.7 L 211.6,301.5 L 209.4,302.8 L 209.2,302.7 L 180.9,299.8 L 181.0,299.1 L 180.0,298.1 L 180.5,297.5 L 179.9,296.8 L 179.7,296.7 L 178.4,296.1 L 177.3,296.1 L 176.4,296.7 L 176.6,297.3 L 177.7,297.4 L 177.7,298.3 L 176.6,299.4 L 166.8,298.3 L 168.1,297.7 L 169.1,296.8 L 169.8,295.4 L 169.9,294.2 L 169.2,293.6 L 164.5,292.9 L 164.3,293.0 L 163.6,293.1 L 161.6,292.4 L 161.3,291.9 L 161.3,291.7 L 162.2,290.7 L 161.9,290.1 L 161.7,289.9 L 160.6,289.0 L 159.1,288.5 L 154.9,288.2 L 153.6,288.4 L 152.4,289.0 L 151.8,289.0 L 150.3,289.0 L 149.2,289.6 L 148.2,289.9 L 148.0,289.9 L 144.5,290.5 L 142.9,291.0 L 142.7,291.6 L 143.0,292.8 L 144.2,293.9 L 147.2,294.9 L 147.6,295.5 L 146.9,295.8 L 145.4,295.9 L 140.4,295.3 L 139.1,296.3 L 138.6,297.2 L 136.3,297.1 L 135.3,298.1 L 135.1,299.1 L 136.1,299.7 L 136.8,301.1 L 136.8,302.1 L 135.1,302.7 L 134.6,304.6 L 133.8,305.1 L 132.3,305.2 L 130.8,305.6 L 128.9,305.5 L 127.3,304.9 L 127.8,304.4 L 129.4,303.8 L 129.6,303.3 L 127.9,302.8 L 125.7,300.9 L 124.7,300.8 L 120.1,301.1 L 117.5,300.6 L 114.7,302.0 L 112.8,301.9 L 111.9,302.1 L 110.0,302.9 L 109.6,304.9 L 109.4,304.9 L 99.5,304.2 L 98.2,304.1 L 98.7,303.4 L 98.7,302.6 L 98.3,301.1 L 97.8,300.5 L 96.5,299.4 L 95.9,298.7 L 95.3,296.0 L 94.4,292.8 L 93.7,289.7 L 93.4,286.7 L 94.2,285.3 L 94.1,283.9 L 94.0,283.6 L 93.5,282.2 L 93.2,280.7 L 93.3,278.9 L 93.2,277.0 L 93.8,275.2 L 95.0,272.6 L 95.4,271.9" fill="none" stroke="black" stroke-width="2"/>
</svg>