<?xml version="1.0" encoding="UTF-8"?>
<svg width="400" height="400" viewBox="0 0 400 400" xmlns="http://www.w3.org/2000/svg">
  <rect width="400" height="400" fill="white"/>
  <path d="M 43.8,204.7 L 43.1,177.6 L 43.6,178.1 L 45.0,177.9 L 47.3,177.2 L 49.9,176.6 L 50.5,176.1 L 50.5,174.5 L 50.0,173.1 L 52.7,170.4 L 52.2,169.5 L 50.7,168.8 L 46.4,168.6 L 44.1,169.2 L 42.2,170.4 L 40.4,169.9 L 40.0,169.5 L 41.4,166.9 L 43.4,166.5 L 50.3,166.6 L 58.2,167.3 L 59.9,168.4 L 59.3,169.8 L 58.5,170.6 L 58.9,171.5 L 62.4,172.0 L 63.1,173.3 L 66.5,174.8 L 69.4,174.7 L 70.9,174.2 L 72.2,174.4 L 74.7,173.3 L 77.4,172.8 L 81.9,171.5 L 84.7,172.4 L 87.7,174.3 L 89.8,175.0 L 91.7,176.6 L 92.4,178.6 L 91.6,179.8 L 89.8,180.6 L 84.5,179.9 L 82.8,178.3 L 77.2,179.0 L 75.8,180.3 L 75.4,180.5 L 75.0,181.5 L 79.1,185.1 L 79.3,185.1 L 81.3,185.6 L 83.4,186.6 L 87.0,187.7 L 92.2,187.8 L 96.2,188.2 L 99.9,189.8 L 100.8,189.9 L 103.1,191.2 L 104.5,191.9 L 107.1,191.9 L 108.8,190.6 L 110.6,188.5 L 111.7,188.2 L 115.2,186.8 L 117.4,186.3 L 123.8,184.6 L 125.8,183.4 L 125.5,182.1 L 121.0,178.0 L 121.3,175.6 L 122.7,175.0 L 124.8,175.1 L 128.7,171.9 L 133.9,171.0 L 136.4,171.5 L 139.3,172.6 L 144.2,173.1 L 150.6,171.7 L 153.6,171.6 L 156.4,170.5 L 162.3,169.7 L 166.0,168.4 L 169.4,166.6 L 171.1,166.2 L 181.2,163.9 L 186.9,161.7 L 189.2,160.5 L 190.7,156.1 L 190.2,154.7 L 188.0,152.4 L 187.6,149.5 L 189.1,147.2 L 195.9,143.9 L 197.7,141.3 L 201.7,139.1 L 202.9,137.8 L 203.0,135.8 L 201.9,133.3 L 201.0,132.1 L 199.8,131.5 L 195.5,131.4 L 193.9,131.7 L 192.4,132.9 L 190.2,135.1 L 189.6,138.0 L 188.7,139.8 L 187.7,140.6 L 185.2,141.5 L 178.9,142.1 L 173.2,143.6 L 172.6,143.8 L 169.6,143.6 L 166.3,141.4 L 157.1,141.4 L 154.4,141.8 L 150.6,141.6 L 147.1,139.1 L 145.9,138.5 L 143.3,138.6 L 144.2,135.5 L 143.8,133.7 L 144.4,130.7 L 146.3,129.5 L 147.1,126.6 L 149.5,124.8 L 153.6,124.7 L 156.1,125.6 L 157.6,125.5 L 160.2,123.6 L 163.1,123.1 L 164.6,118.6 L 165.4,114.8 L 167.4,112.9 L 171.7,111.2 L 176.6,107.5 L 177.4,106.9 L 182.2,102.4 L 195.3,98.7 L 200.8,98.6 L 212.6,100.2 L 217.2,101.5 L 220.7,101.8 L 225.1,101.6 L 227.2,103.0 L 230.4,103.2 L 232.2,102.6 L 234.0,101.1 L 235.7,101.2 L 236.2,100.4 L 236.4,98.7 L 238.8,96.0 L 240.3,94.3 L 242.1,93.7 L 244.5,93.6 L 245.6,89.9 L 246.9,87.7 L 250.1,88.6 L 252.1,88.7 L 253.5,87.5 L 256.9,84.0 L 259.1,80.4 L 259.9,78.4 L 262.1,77.2 L 267.9,76.1 L 270.3,74.1 L 273.1,69.3 L 275.5,66.2 L 282.0,64.3 L 286.4,63.8 L 287.7,64.7 L 288.8,65.0 L 289.3,66.7 L 289.0,69.8 L 286.5,75.1 L 284.7,79.9 L 285.9,80.8 L 287.2,80.8 L 289.9,78.5 L 291.9,77.9 L 295.2,79.7 L 297.3,80.1 L 302.3,78.6 L 306.3,79.2 L 309.5,81.1 L 313.0,84.0 L 316.1,88.3 L 318.6,91.0 L 319.9,91.0 L 321.7,90.0 L 324.8,86.1 L 326.7,87.2 L 326.4,89.0 L 327.0,90.9 L 328.5,93.9 L 329.2,94.9 L 335.2,101.1 L 339.9,103.1 L 342.1,105.7 L 347.6,111.5 L 352.1,115.4 L 357.6,122.4 L 360.0,127.8 L 359.8,130.5 L 358.8,133.1 L 353.0,140.8 L 334.6,155.2 L 333.5,157.2 L 331.9,158.0 L 328.7,159.3 L 320.0,160.3 L 317.3,160.5 L 307.4,160.8 L 301.3,161.4 L 293.8,158.4 L 281.8,156.3 L 278.5,156.9 L 274.1,160.2 L 272.1,160.9 L 269.5,161.0 L 262.8,159.4 L 260.7,159.8 L 257.6,161.7 L 256.7,163.5 L 255.7,168.9 L 256.6,169.9 L 261.1,170.6 L 262.4,171.8 L 262.9,177.3 L 263.3,178.6 L 264.5,179.9 L 266.0,181.0 L 270.2,180.8 L 272.8,181.9 L 275.2,184.4 L 276.7,184.8 L 278.0,184.6 L 279.9,184.8 L 280.4,186.8 L 283.3,189.6 L 285.8,190.0 L 288.7,191.2 L 290.3,194.5 L 291.9,196.6 L 293.9,198.0 L 295.5,200.8 L 296.5,205.4 L 297.1,207.7 L 298.1,208.9 L 300.0,209.9 L 302.2,212.5 L 302.5,213.0 L 303.5,215.2 L 304.0,217.9 L 303.4,222.6 L 305.3,224.1 L 308.3,225.4 L 310.5,227.0 L 313.9,231.6 L 316.9,238.6 L 318.7,241.3 L 320.0,245.6 L 320.7,248.7 L 322.7,250.6 L 323.2,253.3 L 322.7,257.3 L 320.9,261.0 L 317.7,264.6 L 315.3,267.0 L 312.9,268.9 L 307.8,270.9 L 306.6,271.8 L 305.6,275.1 L 303.2,277.8 L 303.0,278.2 L 299.5,279.2 L 276.7,283.5 L 268.3,285.5 L 265.7,286.6 L 261.5,289.7 L 261.3,291.6 L 265.1,295.1 L 266.5,297.3 L 266.5,298.8 L 265.8,300.4 L 263.2,302.2 L 260.2,302.6 L 252.8,302.4 L 250.7,302.7 L 248.8,304.9 L 248.1,307.6 L 245.5,308.7 L 242.3,311.5 L 240.8,312.9 L 240.0,316.7 L 236.9,320.8 L 232.2,324.0 L 227.2,328.3 L 226.6,329.7 L 228.8,332.8 L 229.0,333.9 L 228.4,334.2 L 224.4,336.2 L 224.1,335.8 L 223.2,335.4 L 222.3,334.2 L 223.4,333.0 L 222.9,332.1 L 222.2,331.8 L 218.8,332.2 L 216.2,332.0 L 215.3,331.3 L 215.2,330.4 L 214.0,329.3 L 212.3,329.5 L 208.7,332.3 L 207.1,332.3 L 205.0,331.6 L 205.2,330.7 L 210.4,328.8 L 212.1,327.8 L 211.7,326.9 L 210.3,326.1 L 208.1,325.7 L 208.2,324.7 L 209.4,324.0 L 212.0,324.8 L 216.0,324.1 L 218.1,323.1 L 220.3,320.8 L 222.4,318.3 L 230.0,313.1 L 230.2,311.7 L 228.8,309.5 L 226.6,309.1 L 224.3,307.0 L 222.3,302.8 L 222.8,301.2 L 226.6,297.0 L 227.9,295.1 L 227.3,294.3 L 218.6,290.3 L 214.8,287.8 L 210.8,284.0 L 210.6,283.7 L 201.6,271.5 L 200.1,270.0 L 196.9,269.1 L 194.8,269.1 L 193.3,269.3 L 189.8,274.6 L 185.1,273.9 L 183.5,273.2 L 180.8,270.7 L 178.4,269.5 L 173.8,268.6 L 165.5,269.2 L 158.5,270.6 L 154.4,273.6 L 149.4,278.0 L 146.8,280.2 L 146.0,282.7 L 144.6,283.8 L 142.3,284.6 L 127.3,292.8 L 124.5,294.7 L 122.6,296.4 L 120.7,299.4 L 120.2,302.7 L 120.4,304.0 L 121.5,304.4 L 126.3,301.8 L 127.8,302.1 L 129.5,303.6 L 129.3,305.1 L 127.5,307.0 L 126.5,311.4 L 124.1,313.2 L 116.2,314.4 L 115.6,313.7 L 118.8,310.7 L 119.1,309.2 L 118.3,308.4 L 116.6,308.6 L 110.3,313.3 L 109.6,315.4 L 108.6,316.3 L 106.5,317.1 L 104.1,317.2 L 102.6,316.1 L 102.8,313.8 L 100.0,312.7 L 96.1,313.1 L 92.5,314.3 L 91.6,314.7 L 87.4,316.9 L 82.4,319.3 L 79.8,320.4 L 77.5,320.3 L 74.8,317.7 L 76.4,315.2 L 78.0,313.5 L 80.7,312.6 L 83.7,310.2 L 87.5,307.5 L 88.9,306.1 L 92.1,304.7 L 92.6,304.6 L 94.8,304.0 L 104.9,299.5 L 107.6,297.7 L 107.0,297.0 L 104.4,297.2 L 99.9,296.0 L 98.7,294.9 L 96.8,292.8 L 97.2,290.8 L 97.0,288.7 L 94.1,288.2 L 93.4,288.2 L 92.5,287.1 L 92.4,285.0 L 93.0,284.7 L 94.3,285.5 L 96.2,286.6 L 97.2,286.1 L 95.9,281.2 L 96.9,277.0 L 103.2,274.1 L 103.4,273.8 L 103.7,273.3 L 103.3,271.9 L 97.9,265.4 L 97.7,262.7 L 96.6,261.4 L 95.9,260.6 L 92.4,257.9 L 91.4,256.1 L 91.4,255.4 L 91.0,253.8 L 90.9,251.7 L 90.0,250.5 L 89.3,250.4 L 88.0,251.1 L 86.2,254.5 L 85.4,255.6 L 83.9,255.6 L 82.6,254.2 L 83.2,249.9 L 80.6,248.9 L 79.6,246.4 L 78.1,244.9 L 76.9,244.1 L 75.1,244.7 L 74.3,244.2 L 73.9,242.8 L 74.1,241.0 L 73.0,240.1 L 71.3,239.7 L 70.4,238.7 L 68.9,238.4 L 68.5,239.5 L 70.2,241.6 L 69.2,242.4 L 65.2,243.6 L 63.6,245.5 L 61.9,245.4 L 60.5,244.6 L 59.8,243.7 L 60.8,241.2 L 60.5,240.0 L 58.6,240.0 L 55.8,242.6 L 54.6,241.8 L 50.6,241.4 L 49.2,243.6 L 49.1,243.7 L 48.9,242.2 L 46.7,221.9 L 46.6,220.7 L 49.4,222.4 L 50.8,222.4 L 53.2,221.0 L 53.7,220.2 L 56.3,218.2 L 58.4,217.0 L 59.2,216.2 L 58.6,215.3 L 57.0,214.8 L 49.9,216.4 L 47.8,216.1 L 47.3,213.5 L 45.4,213.2 L 44.0,213.4 L 43.9,209.2 L 45.4,208.9 L 48.5,206.9 L 50.0,206.6 L 52.9,204.8 L 53.5,204.2 L 53.0,203.3 L 48.2,202.6 L 45.0,203.7 L 43.8,204.7" fill="none" stroke="black" stroke-width="2"/>
</svg>