<?xml version="1.0" encoding="UTF-8"?>
<svg width="400" height="400" viewBox="0 0 400 400" xmlns="http://www.w3.org/2000/svg">
  <rect width="400" height="400" fill="white"/>
  <path d="M 40.0,233.4 L 40.2,233.1 L 135.8,128.9 L 136.2,128.4 L 136.3,129.0 L 136.6,129.6 L 137.8,129.5 L 140.7,129.5 L 140.9,129.3 L 142.3,129.1 L 143.6,129.6 L 144.4,130.7 L 145.4,133.9 L 146.0,134.3 L 146.9,134.0 L 148.8,134.8 L 150.3,135.9 L 152.1,137.9 L 154.1,139.6 L 157.3,143.8 L 157.1,144.2 L 153.8,144.4 L 152.9,144.9 L 152.8,145.6 L 153.5,146.2 L 155.3,146.6 L 156.5,146.2 L 157.1,146.9 L 158.4,146.5 L 158.9,146.7 L 159.4,148.1 L 160.7,149.2 L 164.4,150.4 L 167.4,151.0 L 169.5,152.1 L 170.6,152.2 L 173.2,150.7 L 175.3,150.9 L 177.3,153.1 L 179.1,153.5 L 181.2,154.9 L 183.3,155.1 L 185.2,154.1 L 186.8,153.7 L 189.5,152.9 L 191.8,152.5 L 194.9,152.5 L 199.3,154.1 L 200.1,154.1 L 201.2,153.3 L 202.4,151.9 L 207.7,150.7 L 209.6,150.0 L 211.7,149.2 L 226.9,148.4 L 230.2,146.7 L 232.3,146.5 L 235.5,147.0 L 237.4,147.0 L 243.6,146.2 L 250.8,144.2 L 253.2,143.8 L 256.7,143.7 L 261.3,144.1 L 262.9,144.7 L 266.5,146.9 L 268.3,148.3 L 269.1,148.3 L 269.6,147.0 L 269.7,145.9 L 270.7,145.2 L 272.6,145.1 L 277.1,145.8 L 278.2,146.2 L 279.8,146.7 L 283.1,149.0 L 284.9,149.3 L 285.5,149.1 L 286.7,149.1 L 288.0,149.6 L 290.4,149.9 L 291.2,149.3 L 293.6,149.6 L 296.0,150.4 L 304.1,151.7 L 304.6,152.1 L 303.6,153.0 L 304.0,153.4 L 305.4,153.4 L 306.2,152.9 L 306.5,152.2 L 313.9,152.4 L 317.1,151.7 L 320.6,150.6 L 322.4,150.4 L 325.2,150.8 L 327.1,151.8 L 328.9,151.9 L 330.3,151.2 L 332.1,151.9 L 336.4,151.3 L 338.8,151.9 L 340.0,151.1 L 342.3,151.3 L 343.2,151.0 L 343.3,151.2 L 360.0,260.9 L 359.0,261.4 L 357.2,262.8 L 357.0,264.3 L 356.1,265.0 L 354.6,265.9 L 354.3,266.7 L 354.7,267.6 L 354.4,269.2 L 353.5,270.2 L 350.1,271.6 L 348.6,271.6 L 343.9,268.3 L 340.7,264.6 L 338.2,262.4 L 337.9,262.6 L 336.0,260.9 L 334.6,260.4 L 331.8,260.5 L 330.4,260.2 L 326.7,257.3 L 325.1,256.7 L 320.1,256.6 L 317.2,257.4 L 313.4,260.2 L 310.3,262.3 L 307.4,263.2 L 302.5,265.2 L 301.4,265.3 L 299.4,265.2 L 297.2,263.9 L 293.7,262.1 L 291.8,261.6 L 286.9,261.0 L 281.7,260.8 L 276.8,261.2 L 276.5,261.4 L 276.1,261.1 L 273.4,261.6 L 267.3,263.3 L 264.6,263.2 L 262.2,262.6 L 261.6,262.6 L 261.3,262.7 L 258.8,262.5 L 257.8,261.8 L 256.3,260.0 L 252.1,258.3 L 250.6,257.1 L 250.3,256.5 L 251.2,255.3 L 250.6,254.6 L 245.7,253.9 L 244.9,253.4 L 244.7,252.8 L 244.0,252.1 L 242.4,252.4 L 240.7,253.8 L 241.4,254.6 L 241.3,255.2 L 240.1,255.3 L 239.5,255.3 L 236.1,256.0 L 234.5,255.9 L 228.4,254.7 L 223.7,253.3 L 218.6,252.6 L 214.3,252.4 L 211.6,252.4 L 210.3,252.7 L 208.8,252.9 L 205.4,253.9 L 199.4,255.2 L 192.7,256.3 L 190.5,256.6 L 184.9,256.0 L 175.4,253.7 L 171.7,252.2 L 165.8,251.4 L 162.9,251.4 L 159.6,250.9 L 154.4,248.7 L 152.7,248.2 L 145.9,247.3 L 143.7,246.5 L 138.9,245.5 L 135.7,244.4 L 131.5,242.3 L 130.2,242.3 L 126.1,240.4 L 125.1,240.3 L 119.0,239.5 L 115.7,239.5 L 109.5,238.8 L 105.3,237.1 L 97.4,233.7 L 91.7,232.0 L 86.7,231.0 L 78.9,228.8 L 76.0,228.1 L 72.5,227.3 L 68.7,227.2 L 65.7,227.5 L 60.8,226.9 L 58.4,227.2 L 57.0,227.9 L 56.3,228.5 L 53.6,229.3 L 52.1,230.7 L 49.5,231.6 L 47.7,231.5 L 46.0,232.1 L 43.9,233.0 L 40.0,233.4" fill="none" stroke="black" stroke-width="2"/>
</svg>