<?xml version="1.0" encoding="UTF-8"?>
<svg width="400" height="400" viewBox="0 0 400 400" xmlns="http://www.w3.org/2000/svg">
  <rect width="400" height="400" fill="white"/>
  <path d="M 225.0,304.2 L 225.0,304.0 L 225.0,303.7 L 224.9,303.4 L 224.9,303.1 L 224.3,301.3 L 224.2,300.7 L 224.1,300.4 L 223.8,299.1 L 223.6,298.6 L 223.3,297.3 L 223.2,296.3 L 223.0,295.5 L 222.7,294.6 L 222.1,293.5 L 221.6,293.0 L 221.4,292.5 L 221.4,292.5 L 220.9,291.8 L 220.7,291.4 L 220.2,290.8 L 219.6,289.9 L 218.5,288.5 L 217.8,287.7 L 217.7,287.6 L 217.7,287.5 L 217.5,287.2 L 217.1,286.4 L 217.1,286.2 L 217.0,286.1 L 216.8,285.5 L 216.5,285.1 L 216.1,284.6 L 215.6,284.1 L 215.2,283.9 L 214.6,283.4 L 214.1,283.2 L 213.9,283.2 L 213.5,282.8 L 213.2,282.4 L 212.6,281.4 L 212.1,280.9 L 212.0,280.8 L 211.9,280.3 L 211.7,279.8 L 211.1,278.2 L 210.5,277.1 L 209.5,275.6 L 209.3,275.4 L 209.1,274.8 L 208.7,274.2 L 208.3,273.3 L 207.9,272.7 L 207.7,272.3 L 207.5,271.9 L 207.3,271.6 L 207.0,270.8 L 206.5,269.8 L 205.8,268.2 L 205.4,267.4 L 204.7,265.7 L 203.9,264.3 L 203.8,264.2 L 203.7,264.0 L 203.7,264.0 L 203.4,263.7 L 203.4,263.2 L 203.5,263.1 L 203.6,263.0 L 203.7,262.0 L 203.6,261.0 L 203.6,259.9 L 203.6,259.1 L 203.7,257.8 L 203.7,257.4 L 203.6,256.7 L 203.1,254.5 L 202.9,253.4 L 202.9,253.3 L 202.9,253.1 L 202.8,253.0 L 202.7,252.7 L 202.6,252.4 L 202.6,252.4 L 202.5,252.4 L 202.3,252.4 L 202.0,252.5 L 201.7,252.6 L 201.6,252.7 L 201.4,252.8 L 201.3,252.9 L 201.3,252.9 L 201.1,253.0 L 200.8,253.1 L 200.6,253.2 L 200.3,253.2 L 200.1,253.3 L 199.8,253.3 L 199.5,253.4 L 199.3,253.5 L 199.1,253.5 L 198.8,253.6 L 198.5,253.6 L 198.2,253.6 L 198.0,253.7 L 197.8,253.8 L 197.5,253.9 L 197.3,254.0 L 197.0,254.0 L 196.8,254.1 L 196.5,254.2 L 196.3,254.3 L 196.0,254.3 L 195.8,254.4 L 195.5,254.4 L 195.3,254.5 L 195.0,254.6 L 194.8,254.6 L 194.5,254.7 L 194.3,254.7 L 194.1,254.7 L 193.8,254.7 L 193.6,254.7 L 193.3,254.7 L 193.1,254.7 L 193.1,254.7 L 193.0,254.6 L 192.8,254.4 L 192.6,254.2 L 192.5,254.2 L 192.2,254.2 L 192.0,254.1 L 191.7,254.0 L 191.6,254.0 L 191.6,253.9 L 191.6,253.9 L 191.6,253.9 L 191.8,253.8 L 192.1,253.8 L 192.2,253.8 L 192.3,253.7 L 192.3,253.5 L 192.3,253.4 L 192.2,253.3 L 192.3,253.0 L 192.3,252.9 L 192.1,252.7 L 192.0,252.7 L 191.9,252.7 L 191.8,252.7 L 191.8,252.6 L 191.7,252.5 L 191.6,252.4 L 191.5,252.3 L 191.5,252.1 L 191.5,252.1 L 191.8,251.9 L 191.8,251.8 L 191.9,251.7 L 191.9,251.6 L 191.8,251.6 L 191.7,251.7 L 191.5,251.8 L 191.4,251.8 L 191.2,251.7 L 191.2,251.7 L 191.3,251.6 L 191.5,251.4 L 191.6,251.3 L 191.8,251.3 L 191.8,251.3 L 191.6,251.2 L 191.7,251.1 L 191.7,251.1 L 191.8,251.0 L 191.8,250.7 L 191.8,250.6 L 191.8,250.5 L 191.5,250.4 L 191.4,250.4 L 191.4,250.3 L 191.5,250.2 L 191.5,250.0 L 191.4,250.0 L 191.4,249.7 L 191.5,249.4 L 191.5,249.2 L 191.5,249.2 L 191.3,249.1 L 191.3,249.0 L 191.1,248.9 L 191.1,248.8 L 191.1,248.7 L 191.1,248.6 L 191.2,248.5 L 191.2,248.4 L 191.2,248.2 L 191.3,248.1 L 191.3,247.8 L 191.3,247.5 L 191.2,247.4 L 191.2,247.4 L 191.3,247.2 L 191.2,247.1 L 191.1,246.9 L 191.0,246.9 L 190.9,246.8 L 190.9,246.7 L 190.9,246.6 L 190.9,246.5 L 190.9,246.5 L 190.9,246.3 L 191.0,246.0 L 191.1,245.8 L 191.1,245.8 L 191.2,245.7 L 191.2,245.6 L 191.2,245.5 L 191.2,245.5 L 191.2,245.4 L 191.3,245.3 L 191.4,245.1 L 191.5,244.8 L 191.5,244.8 L 191.6,244.6 L 191.7,244.5 L 191.8,244.4 L 192.0,244.3 L 192.2,244.1 L 192.4,243.9 L 192.6,243.7 L 192.8,243.6 L 193.0,243.4 L 193.2,243.3 L 193.4,243.1 L 193.5,243.1 L 193.7,242.9 L 193.9,242.7 L 194.0,242.7 L 194.0,242.7 L 194.3,242.5 L 194.5,242.4 L 194.5,242.4 L 194.6,242.3 L 194.7,242.2 L 194.8,242.2 L 194.9,242.2 L 195.0,242.1 L 195.2,242.0 L 195.4,241.8 L 195.5,241.7 L 195.5,241.7 L 195.7,241.5 L 195.9,241.4 L 196.0,241.3 L 196.2,241.2 L 196.3,241.1 L 196.5,241.0 L 196.7,240.9 L 197.0,240.8 L 197.2,240.7 L 197.5,240.7 L 197.8,240.6 L 198.0,240.5 L 198.3,240.5 L 198.5,240.4 L 198.6,240.4 L 198.7,240.4 L 198.9,240.3 L 199.1,240.2 L 199.4,240.1 L 199.5,240.1 L 199.6,240.0 L 199.7,239.9 L 199.7,239.8 L 199.7,239.8 L 199.8,239.7 L 200.1,239.8 L 200.4,239.7 L 200.5,239.7 L 200.6,239.6 L 200.7,239.5 L 200.9,239.3 L 201.0,239.2 L 200.9,239.1 L 200.9,239.0 L 200.9,238.9 L 201.0,238.7 L 201.0,238.4 L 201.1,238.2 L 201.2,237.9 L 201.4,237.7 L 201.6,237.5 L 201.7,237.2 L 201.5,237.0 L 201.5,236.8 L 201.4,236.6 L 201.4,236.5 L 201.3,236.2 L 201.4,235.9 L 201.5,235.7 L 201.5,235.6 L 201.6,235.4 L 201.7,235.3 L 201.5,235.0 L 201.5,234.9 L 201.4,234.6 L 201.4,234.4 L 201.3,234.3 L 201.3,234.0 L 201.2,233.7 L 201.1,233.5 L 201.0,233.4 L 200.9,233.1 L 200.9,232.8 L 200.8,232.7 L 200.7,232.5 L 200.5,232.3 L 200.4,232.0 L 200.3,231.7 L 200.4,231.4 L 200.4,231.3 L 200.3,231.0 L 200.2,230.7 L 200.1,230.6 L 199.9,230.4 L 199.9,230.1 L 199.8,230.0 L 199.8,229.8 L 199.8,229.7 L 199.8,229.5 L 199.7,229.2 L 199.8,229.0 L 199.7,229.0 L 199.6,228.7 L 199.7,228.5 L 199.8,228.2 L 199.8,227.9 L 199.8,227.8 L 199.7,227.8 L 199.6,227.8 L 199.5,227.7 L 199.5,227.6 L 199.6,227.5 L 199.7,227.4 L 199.8,227.2 L 199.8,227.0 L 199.8,226.9 L 199.8,226.6 L 199.7,226.3 L 199.6,226.0 L 199.6,225.8 L 199.4,225.6 L 199.3,225.5 L 199.1,225.3 L 199.0,225.1 L 198.8,224.9 L 198.7,224.6 L 198.6,224.4 L 198.5,224.1 L 198.4,223.8 L 198.4,223.6 L 198.4,223.6 L 198.3,223.3 L 198.2,223.0 L 198.2,222.8 L 198.1,222.5 L 198.0,222.2 L 198.0,221.9 L 198.0,221.7 L 198.1,221.6 L 198.1,221.6 L 198.0,221.5 L 198.1,221.2 L 198.2,220.9 L 198.2,220.7 L 198.2,220.6 L 198.1,220.4 L 198.1,220.2 L 198.2,219.9 L 198.2,219.6 L 198.2,219.4 L 198.1,219.2 L 198.0,218.9 L 197.9,218.7 L 197.7,218.6 L 197.5,218.4 L 197.4,218.3 L 197.3,218.1 L 197.2,218.0 L 197.0,217.7 L 196.8,217.5 L 196.7,217.2 L 196.5,217.0 L 196.4,216.7 L 196.3,216.4 L 196.2,216.2 L 196.2,216.0 L 196.1,215.7 L 196.0,215.4 L 195.9,215.2 L 195.9,214.9 L 195.8,214.6 L 195.8,214.3 L 195.7,214.0 L 195.7,214.0 L 195.6,213.8 L 195.6,213.5 L 195.6,213.2 L 195.6,213.0 L 195.6,213.0 L 195.6,212.7 L 195.6,212.4 L 195.6,212.2 L 195.6,211.9 L 195.6,211.7 L 195.7,211.4 L 195.7,211.2 L 195.7,210.9 L 195.7,210.7 L 195.6,210.4 L 195.5,210.1 L 195.5,209.8 L 195.4,209.5 L 195.4,209.4 L 195.4,209.2 L 195.4,208.9 L 195.3,208.7 L 195.4,208.4 L 195.3,208.1 L 195.3,207.8 L 195.3,207.5 L 195.2,207.3 L 195.2,207.0 L 195.1,206.7 L 195.1,206.4 L 195.2,206.1 L 195.1,206.0 L 195.0,205.7 L 195.0,205.5 L 195.0,205.4 L 194.9,205.1 L 194.9,204.9 L 194.9,204.6 L 194.9,204.5 L 194.8,204.4 L 194.8,204.2 L 194.8,204.1 L 194.8,203.9 L 194.6,203.7 L 194.4,203.5 L 194.2,203.5 L 194.0,203.4 L 193.8,203.3 L 193.8,203.2 L 193.7,203.1 L 193.8,203.0 L 193.8,202.9 L 193.7,202.6 L 193.7,202.6 L 193.6,202.4 L 193.6,202.2 L 193.4,202.1 L 193.2,202.0 L 193.1,201.7 L 192.9,201.5 L 192.8,201.3 L 192.6,201.1 L 192.4,200.8 L 192.4,200.7 L 192.4,200.6 L 192.4,200.5 L 192.4,200.5 L 192.4,200.5 L 192.5,200.2 L 192.5,199.0 L 191.7,197.4 L 191.3,197.1 L 191.0,197.0 L 190.7,196.8 L 190.2,196.8 L 189.9,196.7 L 189.7,196.6 L 188.8,196.4 L 188.4,196.2 L 187.9,195.8 L 187.6,195.6 L 186.9,194.9 L 186.7,194.7 L 186.2,193.9 L 185.6,193.2 L 185.1,192.5 L 184.7,192.4 L 184.4,192.1 L 184.1,191.6 L 183.5,191.1 L 183.3,190.8 L 182.8,190.4 L 182.0,189.9 L 181.2,189.2 L 180.7,188.9 L 180.1,188.5 L 179.1,187.9 L 178.5,187.6 L 177.5,187.1 L 176.9,186.8 L 176.4,186.5 L 175.7,186.3 L 174.6,185.7 L 174.3,185.5 L 174.0,184.9 L 173.3,184.3 L 172.8,183.5 L 172.5,182.1 L 172.3,181.8 L 172.1,181.1 L 172.1,180.8 L 172.1,180.4 L 171.9,179.8 L 171.8,179.6 L 171.8,179.5 L 171.8,179.4 L 171.6,179.1 L 171.6,179.0 L 171.6,178.9 L 171.5,178.9 L 171.3,178.7 L 171.5,178.5 L 171.4,178.5 L 171.4,178.4 L 171.3,178.3 L 171.1,178.2 L 171.0,178.1 L 171.0,178.0 L 170.9,178.0 L 171.0,177.7 L 170.9,177.7 L 170.9,178.0 L 170.8,177.9 L 170.8,177.5 L 170.8,177.3 L 171.0,175.4 L 171.0,175.3 L 171.1,175.2 L 171.2,174.8 L 171.3,174.4 L 171.4,174.1 L 171.5,173.8 L 171.4,173.4 L 171.2,173.0 L 171.0,172.7 L 170.9,172.5 L 170.8,172.4 L 170.8,172.0 L 170.8,171.6 L 170.8,170.9 L 170.8,170.7 L 171.2,170.2 L 171.3,169.5 L 171.4,169.5 L 171.4,169.1 L 171.3,168.7 L 171.2,168.5 L 171.2,168.5 L 170.9,168.2 L 170.8,167.8 L 170.9,167.5 L 171.1,167.1 L 171.2,166.7 L 171.2,166.3 L 171.2,165.9 L 171.1,165.5 L 171.1,165.1 L 171.2,164.7 L 171.3,164.3 L 171.4,164.2 L 171.5,164.1 L 171.5,164.1 L 171.7,163.7 L 171.8,163.4 L 172.1,163.0 L 172.1,162.9 L 172.0,162.9 L 171.9,162.5 L 171.8,162.4 L 171.5,162.1 L 171.5,161.8 L 171.4,161.4 L 171.3,161.1 L 171.4,160.9 L 171.5,160.8 L 171.5,160.8 L 171.8,159.6 L 171.8,159.4 L 171.9,159.2 L 172.1,158.8 L 172.5,158.5 L 172.6,158.4 L 172.7,157.7 L 173.1,157.2 L 173.6,156.7 L 173.7,156.4 L 173.8,156.1 L 173.9,155.8 L 174.0,155.4 L 174.1,154.5 L 174.1,154.2 L 174.0,154.1 L 174.0,154.0 L 174.1,153.8 L 174.2,153.5 L 174.4,152.9 L 174.5,152.4 L 174.5,152.2 L 174.4,151.9 L 174.3,151.8 L 174.3,151.5 L 174.4,151.2 L 174.6,150.7 L 175.1,150.2 L 175.5,150.2 L 175.7,150.2 L 175.9,150.1 L 175.9,149.7 L 175.7,149.5 L 175.4,149.4 L 175.1,149.1 L 175.1,148.8 L 174.9,148.7 L 174.9,148.4 L 174.8,148.2 L 174.6,148.2 L 174.4,148.2 L 173.6,148.0 L 173.4,147.9 L 173.5,147.5 L 173.6,147.4 L 173.6,147.2 L 173.4,147.0 L 173.5,146.6 L 173.6,146.1 L 173.7,145.9 L 173.7,145.6 L 173.6,145.4 L 173.6,145.0 L 173.5,144.9 L 173.2,145.0 L 172.4,144.4 L 171.9,144.2 L 171.6,144.0 L 170.9,143.3 L 170.4,142.6 L 170.3,142.3 L 170.0,141.8 L 169.7,141.4 L 169.6,141.0 L 169.5,140.7 L 169.5,140.2 L 169.4,140.0 L 169.4,139.9 L 169.3,139.5 L 169.2,139.2 L 168.9,138.0 L 168.8,137.7 L 168.7,137.1 L 168.7,136.4 L 168.6,135.9 L 168.4,135.4 L 168.1,134.3 L 167.9,133.4 L 167.8,132.6 L 167.8,131.8 L 167.7,131.6 L 167.7,131.1 L 167.8,130.6 L 168.0,130.0 L 168.0,129.7 L 168.2,129.3 L 168.2,128.8 L 168.2,128.8 L 168.1,128.1 L 167.9,127.7 L 167.4,127.1 L 166.9,126.3 L 166.7,125.8 L 166.3,124.5 L 166.2,124.4 L 166.3,123.8 L 166.2,123.6 L 166.2,123.5 L 166.0,121.6 L 166.0,120.2 L 166.1,119.1 L 166.3,118.5 L 166.4,117.2 L 166.3,116.9 L 166.3,116.4 L 166.4,116.1 L 166.3,115.7 L 166.2,115.6 L 166.4,115.3 L 166.4,114.8 L 166.3,114.5 L 166.3,114.1 L 166.5,112.5 L 166.7,112.3 L 167.3,112.4 L 167.5,112.3 L 167.6,112.2 L 167.7,111.8 L 167.8,111.5 L 167.6,111.3 L 167.3,111.0 L 166.9,110.3 L 166.6,110.1 L 166.4,109.9 L 166.2,109.6 L 165.7,109.5 L 165.4,109.5 L 164.6,109.1 L 164.2,108.8 L 163.8,108.4 L 163.5,108.0 L 163.3,107.9 L 162.5,107.2 L 162.5,107.0 L 162.4,106.9 L 162.6,106.0 L 162.5,105.7 L 162.3,105.2 L 161.7,104.2 L 161.4,104.0 L 161.5,103.6 L 161.3,102.9 L 161.0,102.3 L 160.4,100.8 L 160.2,99.9 L 160.0,98.6 L 160.0,98.0 L 160.0,97.6 L 160.1,96.8 L 160.1,96.3 L 160.0,96.1 L 159.9,95.7 L 159.6,95.1 L 159.1,94.3 L 158.5,93.9 L 158.2,93.9 L 157.8,93.8 L 157.6,93.7 L 157.6,93.7 L 157.1,93.2 L 156.6,92.9 L 156.3,92.3 L 156.3,92.2 L 155.8,91.4 L 155.7,91.2 L 155.6,91.0 L 155.6,90.8 L 155.5,90.6 L 155.3,90.0 L 155.3,89.7 L 155.1,89.5 L 154.8,89.3 L 154.5,89.0 L 154.4,88.5 L 154.3,88.0 L 154.3,87.8 L 154.2,87.7 L 153.9,87.3 L 153.7,87.2 L 153.5,87.0 L 152.8,86.9 L 152.7,86.7 L 152.5,86.1 L 152.0,85.5 L 151.5,84.5 L 151.4,84.3 L 151.3,84.1 L 151.1,84.0 L 150.7,83.6 L 150.6,83.3 L 150.6,82.9 L 150.4,82.4 L 150.3,81.9 L 150.0,81.5 L 149.6,81.0 L 149.5,80.6 L 149.3,80.2 L 149.1,79.4 L 149.2,79.0 L 149.2,78.9 L 149.0,78.6 L 148.8,78.4 L 148.7,78.2 L 148.5,78.0 L 148.2,77.6 L 147.4,76.3 L 147.2,75.8 L 147.1,75.3 L 147.0,75.0 L 147.1,74.7 L 147.2,74.4 L 147.3,73.8 L 147.2,73.6 L 147.0,73.3 L 147.0,73.2 L 146.8,73.0 L 146.6,72.6 L 146.6,72.2 L 146.5,71.7 L 146.4,70.9 L 146.5,70.1 L 146.6,69.6 L 146.6,69.3 L 146.5,69.3 L 146.5,69.2 L 146.1,68.4 L 146.0,67.9 L 146.0,67.7 L 146.0,67.3 L 145.9,66.3 L 145.9,66.2 L 145.9,66.0 L 145.8,65.8 L 145.9,64.8 L 146.0,64.4 L 146.1,63.8 L 146.2,63.2 L 146.2,62.7 L 146.3,61.9 L 146.3,61.5 L 146.2,60.8 L 146.3,60.3 L 146.5,59.8 L 146.9,58.4 L 147.1,57.7 L 147.3,56.8 L 147.4,56.4 L 147.6,55.4 L 147.7,55.2 L 147.6,55.2 L 147.7,55.0 L 147.6,54.7 L 147.5,54.2 L 147.4,53.9 L 147.4,52.9 L 147.4,52.1 L 147.5,50.9 L 147.5,50.4 L 147.2,49.9 L 181.1,40.0 L 181.2,40.8 L 181.4,41.7 L 181.7,42.5 L 182.1,43.1 L 182.4,43.6 L 183.0,44.6 L 183.4,45.2 L 184.0,46.2 L 184.0,46.3 L 185.4,48.2 L 186.3,49.5 L 186.8,50.7 L 186.8,51.1 L 186.9,51.5 L 186.9,51.6 L 187.0,51.7 L 186.7,51.8 L 186.9,52.2 L 187.0,52.2 L 187.2,52.2 L 187.5,52.9 L 187.6,53.2 L 187.8,53.6 L 188.0,54.1 L 188.1,54.6 L 188.1,55.2 L 188.0,55.2 L 187.6,54.8 L 187.6,54.8 L 187.9,55.2 L 187.7,55.3 L 187.8,55.3 L 187.7,55.5 L 187.8,55.6 L 187.9,55.8 L 187.9,56.2 L 187.7,56.8 L 187.6,56.9 L 187.4,57.5 L 187.2,57.7 L 187.0,58.0 L 186.8,58.1 L 186.5,58.2 L 186.0,58.3 L 185.1,58.9 L 184.6,59.5 L 184.5,59.7 L 184.1,60.2 L 183.9,60.4 L 183.3,61.0 L 182.5,61.7 L 182.1,61.9 L 181.0,62.3 L 180.2,62.5 L 179.5,62.5 L 178.7,63.0 L 178.5,63.3 L 177.8,64.0 L 177.3,64.3 L 177.0,64.5 L 176.7,64.8 L 176.6,65.0 L 176.4,65.5 L 176.0,65.9 L 175.7,66.3 L 175.1,66.8 L 174.3,67.4 L 174.1,67.8 L 174.0,68.1 L 173.9,68.3 L 174.0,68.5 L 173.9,69.0 L 173.8,69.1 L 173.8,69.2 L 173.9,69.2 L 174.0,69.3 L 173.8,69.4 L 173.8,69.4 L 173.9,69.6 L 173.9,69.9 L 174.0,70.1 L 174.0,70.3 L 174.2,70.4 L 174.3,70.5 L 174.9,71.2 L 175.0,71.6 L 175.3,72.0 L 175.5,72.2 L 175.7,72.5 L 175.8,72.7 L 176.1,72.9 L 176.5,73.3 L 177.1,74.1 L 177.2,74.3 L 177.5,74.4 L 177.7,74.6 L 177.8,74.7 L 178.8,75.7 L 179.2,76.4 L 179.3,76.8 L 179.4,77.1 L 179.5,77.2 L 179.7,77.3 L 179.9,77.5 L 180.2,78.2 L 180.1,78.6 L 180.3,79.0 L 180.5,79.2 L 180.7,79.5 L 180.7,80.0 L 180.7,80.1 L 181.1,80.5 L 181.6,81.3 L 183.0,83.4 L 183.4,83.8 L 184.3,85.7 L 184.5,86.1 L 184.6,86.2 L 184.7,86.5 L 184.8,86.5 L 185.2,86.9 L 185.5,87.6 L 185.5,87.9 L 185.7,88.4 L 185.9,88.8 L 186.1,89.5 L 186.2,90.1 L 186.3,90.6 L 186.5,90.9 L 186.7,91.5 L 186.9,92.1 L 187.0,92.2 L 187.1,92.6 L 187.2,93.7 L 187.4,94.2 L 187.9,94.9 L 188.2,95.9 L 188.4,97.0 L 188.6,97.2 L 188.6,97.2 L 188.7,97.3 L 189.1,98.4 L 189.5,99.1 L 189.7,100.0 L 189.8,100.4 L 189.8,100.7 L 190.0,101.2 L 190.0,101.3 L 190.0,101.6 L 190.1,101.8 L 190.1,101.9 L 190.1,102.5 L 190.1,102.9 L 190.1,103.6 L 190.2,104.0 L 190.2,104.4 L 190.0,104.7 L 189.8,105.0 L 189.9,105.3 L 189.8,105.8 L 189.9,105.9 L 189.6,107.5 L 190.2,110.1 L 189.9,110.6 L 189.8,111.2 L 189.7,111.3 L 189.9,111.7 L 189.9,111.7 L 190.0,112.3 L 190.4,113.0 L 190.6,113.1 L 190.8,113.5 L 190.9,113.9 L 191.0,114.3 L 191.2,115.1 L 191.3,115.7 L 191.4,116.4 L 191.3,116.5 L 191.2,116.8 L 191.3,116.9 L 191.6,117.2 L 191.7,117.9 L 191.7,118.3 L 191.7,118.5 L 191.6,119.1 L 191.3,119.9 L 190.9,121.4 L 190.7,121.7 L 190.6,122.3 L 190.6,122.5 L 190.7,122.7 L 190.7,122.9 L 190.7,122.9 L 190.8,123.7 L 190.8,123.7 L 190.7,124.2 L 190.6,124.7 L 190.4,125.1 L 190.2,125.5 L 189.8,125.9 L 189.4,126.0 L 189.3,125.9 L 189.2,125.9 L 188.9,126.1 L 188.7,126.5 L 188.8,126.6 L 189.0,127.3 L 189.5,127.7 L 189.5,127.9 L 190.0,128.6 L 189.9,129.4 L 190.1,129.9 L 190.4,130.2 L 190.6,130.4 L 191.2,130.9 L 192.2,131.7 L 192.3,131.8 L 192.1,132.0 L 192.8,133.1 L 193.0,133.3 L 193.2,134.2 L 193.3,134.5 L 193.3,134.8 L 193.3,134.8 L 193.4,135.2 L 193.1,136.1 L 193.0,136.2 L 193.0,136.4 L 193.1,136.6 L 193.1,137.0 L 193.1,137.5 L 193.2,138.3 L 193.3,138.7 L 193.5,139.1 L 193.8,139.9 L 193.8,140.5 L 193.9,141.0 L 194.2,141.4 L 194.5,141.8 L 194.6,142.3 L 195.0,142.9 L 195.8,144.3 L 195.9,144.4 L 196.1,144.9 L 196.5,145.4 L 196.6,146.3 L 196.6,146.6 L 196.6,147.0 L 196.6,147.7 L 196.4,148.2 L 196.4,149.4 L 196.4,149.9 L 196.4,150.1 L 196.6,150.3 L 196.8,151.2 L 197.1,152.3 L 197.2,152.6 L 197.4,153.2 L 197.4,153.5 L 197.6,154.2 L 197.8,154.7 L 198.0,155.6 L 198.2,156.3 L 198.3,156.9 L 198.3,158.0 L 198.2,159.2 L 198.1,159.5 L 198.0,159.8 L 197.7,160.2 L 197.1,160.7 L 196.9,160.9 L 196.8,161.5 L 196.9,162.2 L 197.0,162.7 L 197.1,162.9 L 197.4,163.2 L 198.2,164.3 L 198.4,164.6 L 198.5,164.7 L 199.0,166.2 L 199.0,166.3 L 199.1,166.8 L 199.0,167.7 L 198.8,168.8 L 198.1,169.4 L 197.5,169.9 L 197.5,170.1 L 197.6,170.4 L 197.6,170.6 L 197.9,171.0 L 198.8,171.5 L 199.0,171.7 L 199.2,172.3 L 199.2,172.6 L 199.4,172.8 L 199.6,173.0 L 200.0,173.7 L 200.3,173.9 L 200.3,174.0 L 200.8,174.3 L 201.1,174.4 L 201.1,174.4 L 201.3,174.5 L 201.9,175.3 L 202.1,175.5 L 202.5,176.0 L 202.6,176.2 L 202.7,176.4 L 203.0,176.7 L 203.2,177.0 L 203.4,178.2 L 203.7,178.5 L 204.5,179.1 L 205.1,179.5 L 205.8,180.2 L 206.2,180.7 L 206.2,180.7 L 206.7,181.3 L 207.8,182.1 L 208.2,182.5 L 208.9,183.2 L 209.2,183.6 L 209.7,184.2 L 210.1,184.4 L 210.1,184.5 L 210.1,184.6 L 211.0,186.1 L 211.0,186.2 L 211.3,187.0 L 211.6,187.4 L 211.6,187.5 L 211.7,187.9 L 211.8,187.9 L 211.8,187.8 L 212.0,187.9 L 212.0,188.1 L 211.9,188.1 L 211.8,188.0 L 211.8,188.1 L 212.0,188.4 L 212.0,188.4 L 212.1,188.8 L 212.1,188.9 L 212.1,188.9 L 212.2,189.2 L 212.2,189.4 L 211.8,189.5 L 211.8,189.5 L 212.2,189.6 L 212.2,190.8 L 212.3,191.7 L 212.6,192.4 L 212.8,193.6 L 212.8,194.0 L 212.8,194.2 L 212.6,194.5 L 212.4,196.0 L 212.4,196.2 L 212.3,196.4 L 212.3,196.4 L 212.2,196.6 L 212.0,197.0 L 211.8,197.3 L 211.7,197.7 L 211.7,197.9 L 212.0,198.7 L 212.4,199.4 L 212.5,199.6 L 212.4,200.0 L 212.1,200.1 L 211.8,200.5 L 211.7,201.8 L 212.0,202.4 L 212.2,203.0 L 212.2,203.1 L 212.2,203.1 L 212.4,203.4 L 212.5,203.5 L 212.6,203.8 L 212.6,203.8 L 212.7,204.0 L 212.7,204.3 L 212.8,204.4 L 212.8,204.5 L 212.9,204.8 L 212.9,205.1 L 213.0,205.4 L 213.0,205.5 L 213.3,205.6 L 213.4,205.8 L 213.4,205.9 L 213.7,206.1 L 213.8,206.3 L 214.0,206.3 L 214.1,206.5 L 214.1,206.8 L 214.1,206.9 L 214.0,206.9 L 214.1,207.2 L 214.2,207.3 L 214.5,207.4 L 214.7,207.6 L 214.8,207.7 L 215.0,207.9 L 215.0,208.0 L 215.2,208.2 L 215.3,208.3 L 215.4,208.5 L 215.4,208.7 L 215.4,208.8 L 215.5,208.9 L 215.7,209.1 L 215.9,209.3 L 216.2,209.4 L 216.2,209.6 L 216.2,209.6 L 216.4,209.9 L 216.5,210.1 L 216.5,210.3 L 216.6,210.5 L 216.6,210.8 L 216.6,210.9 L 216.7,211.2 L 216.6,211.5 L 216.6,211.5 L 216.4,211.8 L 216.3,212.0 L 216.2,212.1 L 216.1,212.3 L 216.2,212.4 L 216.2,212.7 L 216.2,212.9 L 216.2,213.2 L 216.2,213.3 L 216.4,213.3 L 216.4,213.6 L 216.5,213.9 L 216.5,214.1 L 216.5,214.3 L 216.3,214.5 L 216.3,214.6 L 216.2,214.7 L 216.1,214.9 L 216.1,215.0 L 216.1,215.2 L 216.2,215.4 L 216.3,215.6 L 216.4,215.7 L 216.5,216.0 L 216.6,216.2 L 216.7,216.3 L 216.8,216.3 L 216.9,216.6 L 217.0,216.7 L 217.2,216.9 L 217.4,217.0 L 217.5,217.1 L 217.7,217.2 L 217.8,217.3 L 218.0,217.5 L 218.1,217.6 L 218.3,217.8 L 218.5,217.9 L 218.6,218.1 L 218.7,218.3 L 218.8,218.5 L 219.0,218.6 L 219.1,218.8 L 219.1,219.0 L 219.3,219.3 L 219.5,219.5 L 219.6,219.5 L 219.7,219.5 L 219.8,219.8 L 220.0,220.0 L 220.1,220.2 L 220.3,220.4 L 220.5,220.6 L 220.5,220.8 L 220.6,221.0 L 220.7,221.2 L 220.8,221.4 L 221.0,221.6 L 221.1,221.8 L 221.2,222.0 L 221.4,222.2 L 221.5,222.4 L 221.6,222.6 L 221.6,222.9 L 221.7,223.1 L 221.9,223.3 L 221.9,223.6 L 222.0,223.7 L 222.0,223.8 L 222.0,224.0 L 221.9,224.3 L 221.8,224.5 L 221.8,224.8 L 221.7,225.0 L 221.6,225.3 L 221.6,225.5 L 221.6,225.7 L 221.5,226.1 L 221.5,226.3 L 221.5,226.6 L 221.5,226.9 L 221.5,227.2 L 221.5,227.4 L 221.4,227.7 L 221.4,227.9 L 221.5,228.1 L 221.5,228.3 L 221.5,228.6 L 221.5,228.8 L 221.5,229.0 L 221.5,229.0 L 221.5,229.3 L 221.5,229.6 L 221.4,229.8 L 221.4,230.1 L 221.4,230.3 L 221.3,230.5 L 221.3,230.7 L 221.2,231.0 L 221.2,231.3 L 221.2,231.6 L 221.2,231.7 L 221.1,232.0 L 221.1,232.2 L 221.2,232.4 L 221.2,232.5 L 221.4,232.5 L 221.7,232.7 L 221.8,232.7 L 221.9,232.9 L 222.0,233.2 L 222.1,233.4 L 222.2,233.6 L 222.3,233.8 L 222.4,234.0 L 222.5,234.2 L 222.6,234.4 L 222.6,234.6 L 222.7,234.9 L 222.7,235.2 L 222.8,235.5 L 222.8,235.8 L 222.9,236.0 L 222.9,236.2 L 222.9,236.4 L 222.9,236.7 L 222.9,236.8 L 222.9,236.9 L 222.8,237.1 L 222.7,237.3 L 222.6,237.6 L 222.5,237.8 L 222.5,238.0 L 222.4,238.2 L 222.4,238.5 L 222.4,238.7 L 222.3,238.9 L 222.4,239.1 L 222.4,239.3 L 222.5,239.5 L 222.6,239.7 L 222.7,240.0 L 222.7,240.2 L 222.8,240.4 L 222.9,240.6 L 223.0,240.9 L 223.0,241.1 L 223.1,241.3 L 223.2,241.6 L 223.2,241.8 L 223.2,242.0 L 223.4,242.2 L 223.4,242.5 L 223.4,242.7 L 223.4,242.9 L 223.4,243.0 L 223.5,243.2 L 223.6,243.5 L 223.6,243.6 L 223.8,243.9 L 223.9,244.1 L 224.0,244.4 L 224.1,244.6 L 224.2,244.8 L 224.4,245.0 L 224.4,245.2 L 224.4,245.4 L 224.5,245.7 L 224.6,246.0 L 224.6,246.3 L 224.7,246.5 L 224.7,246.8 L 224.7,246.8 L 224.8,247.1 L 224.8,247.4 L 224.9,247.7 L 224.9,248.0 L 224.9,248.2 L 224.9,248.5 L 224.9,248.7 L 224.8,249.0 L 224.7,249.1 L 224.7,249.2 L 224.7,249.4 L 224.7,249.7 L 224.7,249.8 L 224.6,250.1 L 224.5,250.3 L 224.4,250.5 L 224.2,250.7 L 224.0,250.9 L 223.8,251.1 L 223.6,251.2 L 223.5,251.4 L 223.3,251.6 L 223.2,251.6 L 223.1,251.7 L 222.9,251.9 L 222.8,252.0 L 222.6,252.2 L 222.5,252.4 L 222.3,252.6 L 222.1,252.8 L 222.0,253.0 L 221.9,253.3 L 221.7,253.5 L 221.5,253.8 L 221.4,254.0 L 221.2,254.2 L 221.2,254.3 L 221.2,254.6 L 221.1,254.6 L 221.1,254.6 L 221.0,254.5 L 220.8,254.3 L 220.6,254.1 L 220.5,254.1 L 220.4,254.0 L 220.3,254.0 L 220.2,254.0 L 220.0,254.0 L 219.8,254.2 L 219.5,254.4 L 219.4,254.6 L 219.3,254.7 L 219.2,254.8 L 219.1,255.1 L 218.9,255.3 L 218.8,255.5 L 218.7,255.6 L 218.8,255.6 L 219.0,255.7 L 219.3,255.8 L 219.5,256.0 L 219.6,256.0 L 219.8,256.1 L 231.4,271.6 L 231.4,271.6 L 231.1,272.0 L 231.1,272.4 L 231.2,272.9 L 231.5,273.4 L 232.2,274.3 L 232.2,274.5 L 232.4,274.9 L 232.7,275.2 L 233.5,277.2 L 233.9,277.9 L 234.2,278.2 L 234.4,278.5 L 234.8,278.9 L 234.8,279.2 L 234.9,279.4 L 235.2,279.8 L 235.5,280.3 L 236.1,281.0 L 237.0,282.7 L 237.4,283.1 L 237.7,283.6 L 238.4,284.7 L 238.8,285.5 L 238.9,286.0 L 239.1,286.2 L 239.1,286.3 L 239.1,286.8 L 239.2,286.9 L 239.4,287.0 L 239.7,287.9 L 239.9,288.2 L 239.8,288.7 L 239.7,288.9 L 239.6,289.1 L 239.8,289.6 L 240.1,289.9 L 240.4,290.2 L 240.7,291.3 L 240.6,291.5 L 240.8,291.7 L 241.1,292.0 L 241.0,292.4 L 241.1,292.5 L 241.1,292.7 L 241.0,292.7 L 241.0,293.0 L 241.1,293.0 L 241.2,293.2 L 241.3,293.4 L 241.5,293.6 L 241.6,294.2 L 241.7,294.4 L 241.9,294.9 L 242.1,295.5 L 242.2,296.1 L 242.3,296.4 L 242.4,296.9 L 242.4,297.1 L 242.5,297.4 L 242.5,298.0 L 243.0,298.8 L 243.2,299.0 L 243.4,299.6 L 243.6,299.8 L 243.9,300.5 L 244.0,300.7 L 243.6,301.3 L 243.5,301.7 L 243.4,302.5 L 243.8,303.0 L 243.9,303.0 L 244.0,303.0 L 244.3,303.4 L 244.4,303.6 L 244.5,303.8 L 244.6,304.0 L 244.9,304.5 L 245.1,304.8 L 245.9,305.3 L 246.2,305.6 L 246.3,306.3 L 246.2,307.3 L 246.3,307.3 L 246.4,307.4 L 246.5,307.5 L 246.5,307.7 L 246.2,308.0 L 246.1,308.2 L 245.9,308.7 L 245.9,309.0 L 245.9,309.5 L 246.1,310.2 L 246.2,310.7 L 246.2,310.9 L 246.3,310.9 L 246.5,311.2 L 246.5,311.8 L 246.6,311.9 L 246.6,312.2 L 246.5,312.5 L 246.3,312.7 L 246.3,313.0 L 246.3,313.3 L 246.4,313.6 L 246.5,313.7 L 246.5,313.8 L 246.7,314.0 L 246.9,314.1 L 247.1,314.3 L 247.3,314.5 L 247.6,314.5 L 247.9,314.6 L 248.1,314.6 L 248.4,314.7 L 248.5,314.9 L 248.5,315.0 L 248.7,315.1 L 248.7,315.1 L 249.0,315.2 L 249.0,315.3 L 249.1,315.3 L 249.1,315.2 L 249.2,315.2 L 249.2,315.3 L 249.3,315.4 L 249.4,315.6 L 249.6,315.8 L 249.7,316.1 L 249.9,316.4 L 250.0,316.7 L 250.1,316.8 L 250.1,317.1 L 250.1,317.4 L 250.0,317.9 L 250.0,318.3 L 249.9,319.4 L 249.9,319.7 L 249.9,320.3 L 249.8,320.4 L 250.0,320.7 L 250.1,321.2 L 250.3,321.9 L 250.5,322.0 L 251.6,323.8 L 251.9,324.4 L 252.0,324.4 L 252.1,324.6 L 252.1,324.8 L 252.1,325.0 L 252.2,325.1 L 252.8,326.3 L 252.7,326.7 L 252.6,326.9 L 252.4,327.1 L 252.2,327.3 L 252.0,327.7 L 251.9,327.9 L 251.8,328.1 L 251.8,328.5 L 251.9,328.7 L 252.1,329.1 L 252.3,329.6 L 252.9,330.7 L 253.0,330.8 L 253.2,331.3 L 253.5,331.8 L 253.6,332.0 L 253.6,333.1 L 253.7,333.2 L 253.9,333.5 L 254.0,334.2 L 254.0,334.2 L 254.1,334.4 L 254.2,334.7 L 254.2,335.0 L 254.2,335.2 L 254.1,335.3 L 254.1,335.5 L 254.0,335.7 L 253.8,335.9 L 253.6,336.2 L 253.5,336.3 L 253.4,336.4 L 253.2,336.6 L 253.1,336.8 L 252.9,337.0 L 252.8,337.2 L 252.7,337.4 L 252.6,337.7 L 252.6,338.0 L 252.5,338.1 L 252.4,338.3 L 252.3,338.5 L 252.3,338.7 L 252.2,339.0 L 252.1,339.3 L 252.0,339.6 L 252.0,339.7 L 251.9,339.9 L 252.0,340.2 L 251.9,340.3 L 251.9,340.4 L 252.0,340.6 L 252.0,340.9 L 252.0,341.2 L 252.1,341.5 L 252.2,341.8 L 252.3,342.0 L 252.3,342.0 L 252.5,342.3 L 252.6,342.4 L 252.5,342.5 L 252.6,342.6 L 252.7,342.8 L 252.7,343.1 L 252.7,343.3 L 252.6,343.6 L 252.5,343.8 L 252.4,344.0 L 252.3,344.3 L 252.2,344.4 L 252.0,344.7 L 251.7,345.1 L 251.6,345.2 L 251.3,345.8 L 250.9,346.6 L 250.5,347.0 L 249.8,347.4 L 249.7,347.5 L 249.6,347.6 L 249.2,348.1 L 249.1,348.7 L 249.0,349.1 L 248.7,349.2 L 248.5,349.4 L 248.3,349.8 L 248.1,350.0 L 248.1,350.3 L 247.5,351.2 L 247.2,351.5 L 246.8,351.9 L 246.5,352.2 L 246.2,352.4 L 245.8,352.8 L 245.7,352.9 L 245.4,353.2 L 245.0,353.5 L 244.7,353.8 L 244.5,354.1 L 243.8,354.6 L 243.4,354.8 L 243.0,355.1 L 242.6,355.1 L 242.5,355.1 L 242.2,355.6 L 241.9,355.8 L 241.8,355.9 L 241.7,356.9 L 241.4,357.2 L 241.0,357.2 L 240.4,357.2 L 240.2,357.1 L 239.8,357.1 L 239.3,357.1 L 239.1,357.1 L 238.4,357.0 L 238.3,356.9 L 238.3,356.9 L 238.0,356.8 L 237.8,356.8 L 237.8,356.8 L 237.7,356.6 L 237.5,356.7 L 237.4,356.7 L 237.0,356.7 L 236.7,356.7 L 236.3,356.7 L 236.0,356.7 L 235.8,356.7 L 235.0,356.3 L 234.6,356.1 L 233.6,355.5 L 232.4,355.3 L 231.9,355.4 L 231.4,355.5 L 231.0,355.6 L 230.1,355.7 L 229.8,355.8 L 229.6,355.8 L 229.3,355.9 L 228.6,356.1 L 227.8,356.3 L 227.4,356.5 L 227.4,356.5 L 226.9,356.9 L 226.9,356.9 L 226.4,357.0 L 225.5,357.8 L 225.2,358.0 L 224.6,358.5 L 224.2,359.0 L 224.0,359.1 L 223.8,359.2 L 223.4,359.6 L 223.2,359.7 L 222.9,360.0 L 222.8,360.0 L 222.7,360.0 L 222.2,359.7 L 221.4,359.5 L 221.1,359.5 L 220.9,359.3 L 220.8,359.4 L 220.8,359.6 L 220.8,359.7 L 217.4,358.4 L 217.1,358.3 L 217.1,358.2 L 217.1,358.1 L 217.0,357.9 L 216.9,357.7 L 216.7,357.6 L 216.4,357.5 L 216.2,357.4 L 215.9,357.3 L 215.8,357.2 L 215.7,357.1 L 215.6,357.0 L 215.6,357.0 L 215.6,356.8 L 215.7,356.5 L 215.9,356.2 L 216.2,356.0 L 216.3,355.5 L 216.5,354.4 L 216.4,354.1 L 216.4,354.0 L 216.4,353.7 L 216.4,353.4 L 216.2,353.1 L 216.2,352.9 L 216.0,352.7 L 216.0,352.5 L 216.0,352.4 L 216.2,351.9 L 216.5,351.7 L 216.7,351.4 L 216.7,351.2 L 217.2,350.8 L 217.3,350.3 L 217.5,350.1 L 217.5,350.0 L 217.7,349.8 L 217.8,349.6 L 218.1,349.3 L 218.2,349.1 L 218.4,349.1 L 218.8,348.5 L 218.9,348.5 L 219.1,348.4 L 219.9,348.3 L 220.0,348.3 L 220.1,348.2 L 220.2,348.0 L 220.4,347.9 L 220.5,347.7 L 221.0,347.3 L 221.3,347.2 L 221.6,347.1 L 221.7,347.0 L 222.1,346.5 L 222.2,346.2 L 222.3,346.0 L 222.5,345.9 L 222.8,345.6 L 223.4,345.5 L 223.6,345.4 L 223.6,345.2 L 223.7,345.1 L 223.9,345.3 L 224.0,345.3 L 224.7,344.9 L 224.9,344.9 L 226.2,344.4 L 226.4,344.2 L 226.5,344.3 L 226.8,344.3 L 227.1,344.2 L 227.4,343.9 L 227.5,343.7 L 227.7,343.7 L 227.9,343.8 L 228.1,343.7 L 228.3,343.6 L 228.7,343.6 L 229.0,343.5 L 229.3,343.5 L 229.7,343.4 L 230.0,343.5 L 230.4,343.3 L 230.8,343.2 L 230.9,343.1 L 231.4,343.1 L 232.0,343.0 L 232.8,343.1 L 233.1,343.0 L 233.4,343.0 L 233.5,342.6 L 233.7,342.5 L 233.7,342.3 L 233.9,342.2 L 234.0,342.2 L 234.3,341.8 L 234.3,341.6 L 234.3,341.2 L 234.2,340.9 L 234.3,340.4 L 234.4,340.1 L 234.6,339.2 L 234.9,338.0 L 235.2,337.5 L 235.4,337.3 L 235.4,337.0 L 235.6,336.6 L 235.7,336.2 L 235.9,336.2 L 236.1,336.1 L 236.6,335.8 L 236.7,335.5 L 236.7,335.3 L 236.9,335.0 L 236.9,335.0 L 236.9,334.7 L 236.8,334.5 L 236.7,334.2 L 236.8,333.6 L 237.0,333.3 L 237.0,332.7 L 236.8,332.5 L 236.7,332.1 L 236.7,331.8 L 236.7,331.6 L 236.9,331.5 L 236.8,331.4 L 236.9,331.2 L 236.9,330.8 L 237.3,329.9 L 237.6,329.4 L 237.7,329.1 L 237.8,328.9 L 237.9,328.8 L 238.0,328.6 L 238.3,328.4 L 238.3,328.0 L 238.2,327.9 L 237.9,327.6 L 237.5,327.3 L 237.2,327.2 L 236.8,326.8 L 236.8,326.8 L 236.7,326.6 L 236.7,326.3 L 236.7,325.9 L 236.5,325.8 L 236.4,325.8 L 236.4,326.2 L 236.5,326.3 L 236.4,326.4 L 236.3,326.4 L 236.1,326.1 L 236.0,325.8 L 236.1,325.6 L 236.1,325.6 L 236.2,325.5 L 236.0,325.1 L 235.8,324.8 L 235.5,324.5 L 234.7,323.6 L 234.1,323.1 L 233.8,322.5 L 233.5,322.3 L 233.4,321.9 L 233.0,321.2 L 232.8,320.8 L 232.7,320.7 L 232.7,320.4 L 232.7,320.2 L 232.0,319.3 L 231.8,318.8 L 231.7,318.5 L 231.8,318.4 L 231.7,318.0 L 231.8,317.2 L 231.6,316.6 L 230.9,315.6 L 230.7,315.3 L 230.4,314.9 L 230.1,314.4 L 229.7,313.7 L 229.3,313.2 L 228.9,312.4 L 228.4,311.9 L 227.5,310.0 L 227.3,309.5 L 227.3,309.1 L 227.1,308.8 L 227.1,308.7 L 226.8,308.7 L 226.6,308.2 L 226.1,306.9 L 225.9,306.5 L 225.7,306.1 L 225.2,304.8 L 225.1,304.4" fill="none" stroke="black" stroke-width="2"/>
</svg>