<?xml version="1.0" encoding="UTF-8"?>
<svg width="400" height="400" viewBox="0 0 400 400" xmlns="http://www.w3.org/2000/svg">
  <rect width="400" height="400" fill="white"/>
  <path d="M 40.0,219.4 L 40.1,218.5 L 45.7,184.7 L 46.0,184.5 L 46.0,184.0 L 45.9,183.8 L 46.8,178.3 L 46.9,178.2 L 47.0,178.3 L 48.6,178.6 L 50.3,179.3 L 52.3,179.5 L 53.8,179.4 L 54.5,179.2 L 55.3,179.3 L 56.6,178.7 L 57.3,179.1 L 58.0,179.6 L 58.1,180.3 L 58.3,180.7 L 59.9,181.5 L 60.8,181.2 L 62.3,181.4 L 63.2,181.7 L 64.0,182.5 L 64.5,182.7 L 64.6,182.8 L 65.4,183.1 L 65.6,183.5 L 66.5,184.0 L 67.6,184.6 L 68.6,185.1 L 69.7,185.5 L 70.8,185.8 L 71.9,186.1 L 73.0,186.3 L 74.1,186.4 L 75.3,186.5 L 76.5,186.5 L 77.6,186.6 L 78.8,186.6 L 79.9,186.6 L 81.1,186.7 L 82.3,186.6 L 83.4,186.7 L 84.5,186.7 L 85.7,186.7 L 86.9,186.7 L 88.1,186.5 L 88.9,186.2 L 90.0,185.8 L 91.0,185.3 L 92.0,185.2 L 93.1,184.8 L 93.1,184.4 L 93.6,184.0 L 94.8,183.7 L 95.9,183.4 L 96.4,183.2 L 96.4,182.8 L 95.9,182.7 L 95.8,182.5 L 95.6,182.5 L 95.2,181.3 L 96.0,180.4 L 96.4,180.1 L 97.6,180.1 L 97.7,179.8 L 97.1,179.6 L 97.0,179.4 L 98.1,178.9 L 98.8,178.7 L 99.5,178.5 L 100.6,178.0 L 100.5,176.9 L 100.6,176.5 L 101.4,176.0 L 101.6,175.6 L 102.2,175.4 L 103.2,174.8 L 104.2,174.1 L 104.8,174.0 L 105.0,173.3 L 105.2,173.3 L 105.5,173.1 L 105.9,173.1 L 106.3,172.8 L 107.0,172.4 L 108.1,172.5 L 109.2,172.9 L 109.6,173.2 L 109.6,173.5 L 109.0,174.1 L 108.7,174.9 L 108.3,176.0 L 108.4,176.4 L 109.1,176.8 L 110.3,176.9 L 110.6,177.2 L 111.0,177.3 L 111.2,177.1 L 111.1,176.3 L 111.1,175.7 L 111.7,175.7 L 111.8,175.7 L 112.0,175.6 L 112.5,175.7 L 112.6,176.5 L 114.8,176.5 L 115.6,175.9 L 116.9,176.1 L 118.1,175.7 L 118.4,175.5 L 118.6,174.2 L 119.3,173.4 L 120.8,172.6 L 121.7,171.7 L 122.4,171.6 L 122.8,171.2 L 123.0,170.4 L 124.7,169.1 L 124.9,168.9 L 124.9,168.9 L 125.0,168.9 L 125.1,168.8 L 125.2,168.5 L 125.4,168.3 L 125.8,168.7 L 126.5,168.8 L 128.6,168.3 L 129.6,168.4 L 130.0,168.8 L 130.9,169.0 L 131.5,168.7 L 131.8,168.7 L 132.0,167.3 L 132.4,166.9 L 132.5,166.4 L 132.9,166.0 L 132.9,165.7 L 131.9,164.3 L 132.2,164.0 L 132.6,163.6 L 132.8,163.4 L 132.9,163.4 L 132.9,163.4 L 132.9,163.4 L 133.0,163.3 L 133.9,162.2 L 134.1,160.9 L 134.7,160.1 L 135.7,159.5 L 136.0,158.3 L 136.3,158.0 L 137.8,157.9 L 137.8,157.9 L 138.9,157.9 L 140.1,158.9 L 140.9,159.2 L 141.6,159.1 L 142.1,159.1 L 142.6,159.4 L 144.1,160.2 L 144.9,160.9 L 145.6,161.1 L 146.7,160.4 L 147.5,160.6 L 148.3,161.8 L 148.9,162.1 L 149.9,163.2 L 151.9,164.5 L 152.5,165.1 L 151.7,165.8 L 151.7,165.9 L 151.5,165.9 L 151.5,165.9 L 151.5,166.0 L 151.3,166.7 L 150.4,167.4 L 146.0,166.7 L 144.6,166.3 L 143.5,166.3 L 143.0,166.4 L 142.2,166.9 L 140.4,168.8 L 139.9,169.6 L 139.2,170.4 L 138.6,170.7 L 137.7,170.2 L 136.9,170.0 L 136.7,170.1 L 135.9,170.5 L 135.0,170.6 L 134.1,170.5 L 133.8,170.3 L 132.9,170.0 L 132.4,170.1 L 132.7,170.6 L 132.4,171.0 L 133.1,171.6 L 134.0,171.3 L 134.2,171.5 L 134.3,171.6 L 136.5,172.6 L 137.8,173.2 L 137.8,173.3 L 137.7,174.1 L 137.8,174.4 L 140.3,174.8 L 141.1,175.1 L 141.8,175.5 L 142.5,175.7 L 143.4,176.0 L 144.2,176.6 L 145.3,176.8 L 146.8,177.6 L 150.3,178.3 L 151.5,178.8 L 152.4,179.9 L 152.5,179.9 L 154.0,180.3 L 156.6,180.5 L 157.3,181.5 L 157.7,182.2 L 158.7,181.9 L 158.9,181.5 L 158.9,181.0 L 161.3,181.0 L 162.4,180.9 L 162.6,180.9 L 164.3,181.1 L 165.1,181.7 L 166.4,181.7 L 167.7,181.8 L 170.2,182.8 L 171.1,183.7 L 171.3,183.7 L 172.1,185.0 L 172.8,186.7 L 172.8,187.2 L 173.0,188.2 L 172.8,189.6 L 172.1,190.3 L 172.0,190.5 L 172.7,190.6 L 172.5,191.3 L 173.6,192.9 L 174.2,193.2 L 175.5,194.4 L 176.4,194.9 L 177.8,195.2 L 178.6,195.6 L 180.4,195.8 L 181.1,195.8 L 182.0,196.0 L 183.8,195.9 L 184.4,195.5 L 186.1,195.6 L 187.4,195.5 L 188.5,195.6 L 189.2,195.6 L 192.1,195.8 L 192.3,195.6 L 193.5,195.5 L 194.2,195.6 L 194.2,195.3 L 193.5,194.3 L 193.7,193.8 L 194.4,193.3 L 195.8,193.4 L 195.9,193.7 L 196.3,193.6 L 196.7,193.4 L 197.7,193.6 L 198.4,194.1 L 198.5,194.3 L 197.7,195.0 L 198.0,195.2 L 198.3,195.0 L 199.1,195.1 L 199.7,196.9 L 199.4,197.1 L 199.7,197.5 L 199.4,198.8 L 199.8,200.2 L 200.5,201.6 L 201.1,202.0 L 201.9,202.8 L 203.1,203.7 L 203.2,204.0 L 203.7,204.4 L 204.4,204.3 L 204.9,204.6 L 205.9,205.0 L 207.4,205.1 L 207.6,204.4 L 207.4,204.1 L 207.9,203.7 L 208.5,203.5 L 209.6,203.7 L 210.1,204.0 L 210.2,204.3 L 210.0,204.6 L 210.2,204.9 L 210.6,205.0 L 210.8,205.5 L 211.5,205.2 L 212.3,205.3 L 213.0,205.8 L 214.6,206.0 L 215.4,206.6 L 216.4,206.6 L 217.2,207.0 L 218.0,207.8 L 218.2,208.4 L 218.7,208.7 L 219.3,208.6 L 219.7,208.5 L 220.9,208.7 L 220.9,209.7 L 221.5,209.6 L 221.4,208.6 L 222.0,208.7 L 222.9,208.7 L 223.4,208.8 L 224.0,208.3 L 224.8,208.1 L 226.0,208.1 L 226.4,208.3 L 227.3,208.3 L 229.5,208.6 L 230.1,209.2 L 230.3,209.5 L 231.1,209.2 L 230.9,208.2 L 232.0,207.7 L 233.3,207.6 L 234.9,207.6 L 236.3,207.7 L 237.4,208.0 L 238.0,208.0 L 239.8,207.8 L 242.3,208.3 L 243.5,208.9 L 244.2,208.9 L 244.7,208.8 L 244.9,209.0 L 243.5,209.7 L 243.7,210.3 L 243.1,210.8 L 243.4,211.2 L 244.1,210.9 L 245.4,210.1 L 245.6,209.7 L 245.9,209.4 L 245.8,209.1 L 245.9,208.8 L 246.2,208.7 L 250.0,209.2 L 250.7,208.9 L 251.6,209.2 L 251.6,209.6 L 252.5,211.1 L 255.8,209.7 L 255.5,208.9 L 256.2,208.6 L 256.2,208.6 L 256.5,209.4 L 257.5,209.0 L 258.0,207.7 L 258.4,206.4 L 258.3,206.2 L 258.2,206.1 L 257.7,205.9 L 257.0,205.4 L 256.8,204.7 L 257.0,204.1 L 257.6,203.7 L 259.5,203.5 L 259.8,203.1 L 260.0,202.4 L 261.0,201.7 L 263.5,201.1 L 264.9,201.2 L 265.1,201.7 L 265.3,201.4 L 265.4,200.9 L 266.0,200.3 L 266.1,200.3 L 267.4,200.1 L 267.8,200.1 L 268.0,201.8 L 267.6,202.2 L 267.6,203.2 L 269.9,203.3 L 269.5,202.8 L 269.7,200.6 L 269.8,200.5 L 270.0,200.8 L 270.6,200.7 L 270.6,200.4 L 272.1,200.3 L 272.2,200.2 L 272.1,199.7 L 272.7,199.7 L 273.4,200.0 L 273.8,200.3 L 273.6,200.7 L 273.5,201.1 L 273.8,201.1 L 274.2,200.3 L 275.1,201.0 L 276.6,201.6 L 276.7,201.6 L 278.2,202.9 L 279.0,204.5 L 280.5,206.0 L 282.2,206.9 L 284.3,207.4 L 284.6,207.6 L 285.3,207.8 L 286.4,208.1 L 287.3,208.8 L 288.9,209.6 L 289.4,209.6 L 289.8,209.2 L 291.1,209.3 L 291.5,209.6 L 293.5,209.6 L 294.2,209.3 L 294.9,208.9 L 296.3,209.1 L 297.2,208.8 L 298.8,208.9 L 300.0,208.7 L 301.8,206.7 L 302.0,206.0 L 302.7,205.5 L 303.7,205.2 L 305.8,203.8 L 306.1,204.4 L 307.1,204.0 L 307.1,203.7 L 307.8,203.5 L 307.8,202.9 L 311.5,202.0 L 312.0,201.9 L 313.1,201.1 L 314.6,200.7 L 316.1,200.6 L 316.7,200.5 L 316.6,200.9 L 320.3,200.6 L 320.3,201.1 L 322.6,201.0 L 322.7,201.5 L 323.6,201.5 L 324.2,201.0 L 325.8,201.1 L 325.8,200.8 L 326.4,200.8 L 326.5,200.3 L 327.8,200.4 L 329.1,200.6 L 329.8,201.0 L 331.0,200.9 L 332.9,200.9 L 335.5,200.8 L 337.6,200.7 L 337.6,201.6 L 337.5,201.8 L 339.0,201.9 L 339.0,201.5 L 339.7,201.5 L 339.8,201.4 L 340.6,201.5 L 340.6,201.6 L 342.5,201.5 L 343.1,201.4 L 343.1,201.4 L 343.1,201.6 L 343.9,201.6 L 344.0,200.9 L 344.3,200.9 L 345.4,201.0 L 346.7,201.3 L 348.8,201.7 L 349.8,202.1 L 353.4,202.8 L 356.8,204.0 L 358.6,204.5 L 359.7,205.0 L 360.0,205.5 L 359.9,206.9 L 359.3,207.5 L 357.7,208.4 L 356.6,208.6 L 354.9,209.2 L 353.8,209.9 L 353.7,210.4 L 352.3,211.7 L 351.9,212.4 L 350.2,213.0 L 347.7,215.3 L 347.6,216.0 L 347.7,216.4 L 344.0,216.4 L 344.0,216.3 L 344.3,216.3 L 344.4,216.1 L 343.9,215.8 L 342.8,215.3 L 341.4,214.9 L 339.2,214.8 L 335.4,214.9 L 333.6,215.1 L 333.0,215.2 L 332.2,215.7 L 331.1,215.9 L 331.0,215.6 L 330.7,215.4 L 328.1,215.4 L 326.2,215.8 L 325.2,216.2 L 324.1,216.4 L 323.4,216.7 L 322.9,217.2 L 322.6,217.6 L 322.3,218.0 L 322.4,218.6 L 322.8,219.5 L 322.7,221.0 L 322.3,222.3 L 322.0,223.2 L 321.4,223.6 L 320.6,223.8 L 319.8,223.5 L 319.6,223.0 L 318.9,223.1 L 318.6,223.2 L 318.5,223.4 L 319.0,223.6 L 319.2,223.7 L 318.6,224.3 L 315.5,224.1 L 315.4,224.4 L 316.0,224.9 L 316.0,225.1 L 315.8,225.4 L 314.6,225.6 L 314.5,225.9 L 314.9,226.4 L 315.6,226.6 L 316.0,227.0 L 316.7,227.4 L 316.5,227.7 L 314.8,228.1 L 313.1,226.9 L 312.2,226.1 L 310.5,225.7 L 309.3,225.3 L 309.3,225.2 L 308.8,224.6 L 308.9,223.9 L 309.0,223.7 L 308.9,223.4 L 307.2,223.2 L 306.5,223.8 L 306.3,224.2 L 307.1,225.3 L 307.2,225.7 L 306.4,227.1 L 307.5,228.0 L 307.5,228.4 L 306.5,228.7 L 303.9,228.6 L 301.7,229.4 L 300.8,229.0 L 298.8,228.6 L 298.3,228.3 L 297.7,228.3 L 297.4,228.7 L 296.9,229.2 L 289.1,225.5 L 290.2,224.8 L 290.8,224.8 L 291.3,225.0 L 291.9,224.6 L 291.9,224.4 L 290.8,224.0 L 290.6,223.8 L 289.2,223.4 L 288.6,223.2 L 287.6,223.2 L 286.1,223.7 L 284.6,223.9 L 282.0,224.9 L 281.3,225.3 L 281.1,226.3 L 280.0,226.8 L 278.7,226.7 L 277.5,226.3 L 276.3,226.4 L 275.4,226.6 L 274.1,226.9 L 273.5,227.4 L 272.9,228.1 L 272.0,228.8 L 271.8,230.6 L 271.3,231.0 L 271.3,231.0 L 271.2,231.0 L 261.2,233.7 L 261.1,233.7 L 261.0,233.5 L 260.7,233.2 L 260.7,232.0 L 259.4,231.1 L 258.3,230.2 L 257.9,230.2 L 257.2,230.3 L 256.6,230.3 L 255.5,230.9 L 254.1,231.5 L 252.6,231.9 L 249.1,231.5 L 248.4,231.7 L 247.5,231.6 L 247.1,231.9 L 246.8,232.0 L 245.3,232.0 L 243.4,232.1 L 242.5,232.4 L 241.3,232.4 L 240.9,232.9 L 240.3,233.4 L 236.6,235.4 L 235.1,236.5 L 234.9,237.1 L 233.8,237.4 L 233.7,237.7 L 235.0,237.9 L 235.0,238.3 L 231.3,238.5 L 231.2,238.5 L 231.4,238.4 L 231.7,238.2 L 232.0,237.6 L 233.0,237.1 L 233.2,236.9 L 233.0,236.6 L 232.3,236.6 L 231.8,236.9 L 230.6,236.5 L 230.2,236.3 L 229.8,236.1 L 226.5,237.3 L 225.9,237.7 L 225.9,238.6 L 225.5,239.0 L 217.7,238.9 L 217.5,238.7 L 217.4,238.4 L 217.1,238.0 L 217.1,237.4 L 216.7,237.1 L 215.9,236.9 L 215.7,236.6 L 215.7,236.0 L 215.2,235.8 L 214.0,235.5 L 213.3,234.2 L 213.3,233.5 L 212.9,233.0 L 213.2,232.4 L 213.0,231.9 L 212.5,231.5 L 211.7,230.1 L 211.3,229.9 L 210.8,229.6 L 209.5,229.4 L 208.5,230.3 L 206.9,230.7 L 204.8,230.5 L 204.4,230.3 L 201.8,229.9 L 201.1,229.6 L 200.0,229.5 L 199.2,230.1 L 197.9,231.2 L 197.8,231.7 L 198.2,232.1 L 198.1,233.4 L 197.3,233.9 L 195.6,234.3 L 195.0,234.5 L 193.3,234.5 L 192.6,234.6 L 192.3,234.7 L 191.9,235.2 L 192.3,235.5 L 192.5,236.2 L 193.4,237.0 L 194.1,237.2 L 193.9,237.3 L 177.4,242.1 L 177.2,242.0 L 177.3,241.9 L 178.0,240.0 L 176.3,239.7 L 176.2,240.6 L 175.4,240.5 L 172.8,239.8 L 167.7,239.1 L 166.7,239.1 L 164.4,238.7 L 163.9,238.3 L 163.4,238.0 L 161.6,237.9 L 160.7,237.8 L 159.0,238.1 L 157.8,238.3 L 157.3,237.8 L 157.8,237.3 L 157.7,237.1 L 157.3,237.1 L 155.6,237.3 L 154.6,236.8 L 153.9,236.5 L 153.2,236.5 L 153.0,236.7 L 151.5,236.6 L 148.8,236.3 L 148.1,236.5 L 146.7,236.5 L 144.9,236.3 L 142.7,235.7 L 142.5,235.5 L 141.5,235.2 L 139.5,233.9 L 137.8,233.3 L 137.1,233.0 L 136.3,232.8 L 133.9,232.8 L 133.0,233.1 L 131.9,233.6 L 130.9,234.1 L 130.7,233.9 L 130.6,233.8 L 129.2,234.7 L 128.5,234.9 L 125.6,235.2 L 123.9,234.1 L 122.6,232.2 L 120.7,228.8 L 120.5,228.1 L 120.2,227.8 L 120.2,227.7 L 119.8,227.9 L 119.6,228.0 L 118.2,227.6 L 117.7,227.2 L 117.2,227.0 L 117.0,226.9 L 117.0,226.9 L 117.0,226.8 L 116.9,226.7 L 115.7,226.6 L 114.7,227.1 L 113.7,227.4 L 113.1,227.6 L 112.2,228.4 L 111.8,229.2 L 111.5,229.2 L 110.8,229.6 L 109.7,229.6 L 109.1,229.8 L 108.1,230.4 L 105.1,230.0 L 104.0,230.2 L 102.8,230.1 L 101.6,230.6 L 99.2,230.9 L 98.1,230.9 L 97.2,230.5 L 94.0,228.4 L 93.2,228.3 L 91.2,228.5 L 90.2,229.2 L 88.8,230.2 L 87.3,230.0 L 85.2,229.6 L 84.0,228.8 L 82.6,227.0 L 81.3,226.4 L 79.9,226.5 L 79.5,226.4 L 79.4,226.4 L 78.3,225.4 L 76.4,224.7 L 75.2,223.7 L 74.5,222.8 L 74.1,222.0 L 73.9,221.4 L 73.7,220.9 L 73.2,220.4 L 73.2,220.2 L 73.2,219.9 L 73.0,219.7 L 72.1,219.5 L 71.3,219.7 L 70.5,220.0 L 70.1,220.0 L 70.2,219.3 L 68.7,219.2 L 68.6,219.7 L 68.3,219.6 L 66.7,219.4 L 65.4,218.8 L 64.5,218.2 L 63.9,218.2 L 63.4,218.3 L 63.3,218.1 L 63.5,217.4 L 63.9,216.7 L 66.6,215.1 L 69.0,214.5 L 69.1,214.4 L 69.2,214.5 L 69.0,214.6 L 69.2,215.0 L 70.4,214.3 L 70.2,213.9 L 70.5,213.6 L 70.9,212.6 L 71.1,212.2 L 72.1,211.9 L 71.9,211.4 L 71.2,211.2 L 69.5,211.1 L 68.3,211.0 L 66.1,211.5 L 65.4,212.0 L 65.2,212.5 L 64.6,213.5 L 63.5,214.7 L 62.8,216.0 L 62.5,217.3 L 62.3,218.1 L 62.0,218.6 L 61.5,218.8 L 59.7,219.0 L 59.2,219.3 L 59.2,220.0 L 58.8,220.5 L 57.8,220.6 L 57.3,221.4 L 56.4,222.3 L 55.8,222.7 L 52.7,222.9 L 49.3,224.2 L 46.9,224.8 L 45.4,224.6 L 44.3,223.8 L 43.5,223.9 L 42.8,223.6 L 41.6,223.2 L 41.5,222.2 L 40.5,222.1 L 40.5,222.0 L 40.5,220.2 L 40.7,220.1 L 40.7,219.5" fill="none" stroke="black" stroke-width="2"/>
</svg>