<?xml version="1.0" encoding="UTF-8"?>
<svg width="400" height="400" viewBox="0 0 400 400" xmlns="http://www.w3.org/2000/svg">
  <rect width="400" height="400" fill="white"/>
  <path d="M 131.3,221.5 L 131.9,221.0 L 132.3,219.8 L 132.3,218.5 L 132.8,217.5 L 133.0,216.1 L 132.8,216.0 L 132.4,215.9 L 132.3,215.6 L 132.3,214.7 L 132.6,213.6 L 133.5,212.5 L 134.8,211.4 L 136.3,210.9 L 138.1,209.4 L 138.3,209.0 L 137.6,205.6 L 136.6,203.1 L 136.3,201.9 L 136.1,200.4 L 135.6,199.8 L 135.4,199.6 L 135.2,199.4 L 134.9,198.8 L 134.8,198.7 L 134.6,198.1 L 134.7,197.6 L 135.6,197.3 L 136.4,196.9 L 137.2,196.4 L 137.9,195.8 L 138.2,195.4 L 138.3,194.5 L 138.3,193.8 L 137.7,193.1 L 137.1,192.4 L 136.8,192.1 L 136.4,192.2 L 135.5,192.2 L 134.5,192.2 L 134.2,192.2 L 133.9,191.7 L 133.8,191.6 L 133.7,190.8 L 133.0,188.3 L 132.2,186.1 L 131.9,185.8 L 131.7,185.7 L 131.2,185.1 L 130.5,183.5 L 130.3,182.8 L 129.6,181.9 L 129.0,181.1 L 128.4,180.0 L 126.7,177.6 L 125.6,175.7 L 125.0,173.8 L 124.9,173.1 L 124.4,171.3 L 124.1,169.8 L 124.2,168.3 L 124.6,165.8 L 125.5,163.1 L 125.6,162.8 L 125.8,162.4 L 126.3,162.3 L 126.5,162.0 L 126.5,161.2 L 126.5,160.7 L 126.7,160.4 L 126.9,159.7 L 128.1,157.5 L 129.4,155.5 L 129.7,155.0 L 130.3,154.2 L 130.5,154.1 L 130.6,154.2 L 130.7,154.3 L 131.0,154.2 L 131.4,154.1 L 131.7,153.9 L 132.1,153.7 L 132.2,153.3 L 132.9,152.8 L 133.0,152.8 L 133.1,152.6 L 133.1,152.4 L 133.0,152.3 L 133.0,152.2 L 133.4,151.9 L 133.9,151.0 L 134.2,150.8 L 134.5,151.0 L 135.1,151.2 L 135.5,150.3 L 136.0,149.2 L 136.0,149.1 L 136.6,148.9 L 137.4,148.5 L 138.3,148.1 L 138.5,148.3 L 138.7,148.2 L 138.7,148.0 L 138.8,147.7 L 138.8,147.1 L 139.4,146.6 L 139.2,146.3 L 139.1,146.1 L 139.7,146.3 L 139.8,146.2 L 139.3,145.7 L 139.6,145.1 L 139.7,144.8 L 139.4,144.7 L 139.4,144.6 L 139.2,144.3 L 139.1,144.2 L 138.1,142.5 L 138.4,141.2 L 138.9,140.0 L 138.6,138.8 L 138.1,138.4 L 137.9,137.8 L 137.7,137.6 L 137.7,136.7 L 137.4,136.5 L 137.5,135.6 L 137.1,134.2 L 137.4,133.5 L 137.1,132.4 L 137.1,131.8 L 136.7,131.6 L 136.5,131.4 L 136.3,130.8 L 135.9,130.5 L 134.7,130.3 L 133.4,130.5 L 133.2,130.3 L 133.2,129.7 L 132.2,129.1 L 131.8,129.0 L 130.7,129.9 L 129.6,129.8 L 129.1,129.5 L 129.0,129.4 L 128.4,128.5 L 128.3,127.7 L 128.8,127.0 L 128.8,126.5 L 128.2,125.3 L 127.8,124.8 L 127.9,123.3 L 128.4,122.3 L 128.3,122.2 L 127.8,122.5 L 127.1,122.7 L 126.8,123.2 L 126.9,124.0 L 126.7,125.1 L 126.4,125.4 L 125.9,125.4 L 125.1,125.9 L 124.8,126.0 L 124.3,125.5 L 124.0,125.0 L 123.9,124.5 L 123.6,124.3 L 122.8,123.9 L 122.0,124.4 L 121.6,124.4 L 121.2,124.2 L 121.1,123.9 L 120.9,123.7 L 120.3,123.8 L 119.4,124.5 L 118.7,124.5 L 118.1,124.2 L 117.9,123.7 L 118.2,123.3 L 118.8,123.0 L 118.9,122.8 L 118.7,122.6 L 118.1,122.7 L 116.1,123.4 L 115.0,123.5 L 114.2,123.4 L 113.4,124.0 L 113.2,124.0 L 112.4,124.5 L 111.3,124.5 L 111.2,124.6 L 111.3,125.0 L 111.3,125.6 L 110.8,126.0 L 110.0,126.1 L 108.0,125.2 L 107.6,125.0 L 106.5,125.2 L 105.9,125.5 L 105.0,125.6 L 104.7,126.1 L 104.4,126.3 L 104.1,126.0 L 103.2,125.9 L 102.1,125.8 L 101.7,125.9 L 101.1,126.7 L 100.8,126.9 L 100.1,126.7 L 99.7,126.9 L 99.0,126.3 L 98.5,126.4 L 97.4,127.0 L 97.0,126.9 L 96.2,126.0 L 95.9,125.8 L 95.7,125.4 L 108.4,109.7 L 164.9,40.0 L 165.0,40.0 L 165.4,40.6 L 165.7,41.2 L 165.8,41.5 L 166.8,42.0 L 167.4,42.7 L 167.8,43.6 L 168.2,44.9 L 169.0,47.0 L 169.5,47.6 L 170.7,49.8 L 171.0,50.7 L 170.8,51.4 L 170.8,52.7 L 170.8,53.1 L 171.4,53.2 L 171.6,53.8 L 171.6,54.5 L 174.0,57.5 L 174.4,58.6 L 174.2,59.8 L 173.9,60.2 L 173.5,60.6 L 173.1,60.7 L 172.9,61.3 L 173.0,61.9 L 172.9,62.6 L 172.8,62.7 L 172.5,63.3 L 172.0,63.7 L 172.6,64.6 L 172.4,65.1 L 172.1,65.3 L 171.9,66.0 L 172.4,66.5 L 172.8,67.6 L 173.9,68.7 L 175.5,69.9 L 177.6,71.0 L 178.1,71.1 L 178.9,71.3 L 179.2,71.7 L 181.0,71.6 L 182.2,71.9 L 182.9,72.2 L 183.8,72.5 L 184.7,73.1 L 188.6,73.9 L 192.1,75.8 L 193.1,76.1 L 193.9,76.6 L 194.8,76.9 L 195.6,77.8 L 196.2,79.4 L 196.2,80.4 L 196.5,81.6 L 196.4,82.4 L 196.7,82.8 L 197.7,83.2 L 198.8,83.8 L 199.9,87.1 L 201.4,89.2 L 202.6,90.5 L 203.3,91.3 L 205.1,92.7 L 206.3,93.7 L 207.9,94.5 L 209.8,95.7 L 209.9,95.7 L 210.3,95.9 L 211.8,96.4 L 213.4,97.4 L 214.0,97.7 L 215.0,98.6 L 216.0,99.1 L 217.1,99.4 L 218.3,100.0 L 219.9,100.6 L 220.9,101.1 L 221.4,101.4 L 221.4,101.4 L 221.6,101.5 L 221.8,101.8 L 221.9,102.1 L 221.9,102.3 L 221.9,102.6 L 222.3,102.7 L 222.5,102.6 L 222.8,102.3 L 223.0,102.1 L 223.3,102.2 L 223.9,102.5 L 224.2,103.1 L 225.3,103.8 L 225.8,103.9 L 226.3,104.1 L 228.5,104.7 L 230.3,105.6 L 230.4,105.6 L 230.6,105.7 L 232.2,106.0 L 233.0,106.3 L 233.6,107.2 L 233.8,107.5 L 234.2,108.0 L 234.3,108.8 L 234.1,110.0 L 234.2,110.6 L 233.9,111.5 L 234.0,112.0 L 233.5,113.2 L 233.6,113.6 L 234.2,114.0 L 236.3,114.0 L 236.4,114.0 L 236.4,114.0 L 236.5,114.4 L 236.5,114.4 L 236.6,114.3 L 236.7,114.0 L 237.0,113.9 L 237.7,113.8 L 238.3,114.1 L 239.3,115.1 L 240.5,115.9 L 241.7,116.2 L 242.4,116.3 L 243.0,115.3 L 243.5,114.9 L 244.1,113.6 L 244.3,113.5 L 245.0,113.7 L 245.4,113.6 L 246.2,113.8 L 246.6,113.8 L 247.1,113.5 L 247.3,114.5 L 247.5,115.4 L 247.7,116.2 L 248.2,116.9 L 248.8,117.7 L 249.3,118.5 L 249.9,119.2 L 250.1,119.5 L 250.4,120.0 L 250.4,120.1 L 250.3,120.2 L 250.0,120.4 L 249.9,120.4 L 249.4,121.1 L 248.7,121.5 L 248.5,121.8 L 248.8,122.4 L 248.7,123.3 L 248.4,123.6 L 248.0,124.0 L 247.6,124.7 L 246.8,124.7 L 246.2,125.6 L 246.1,126.1 L 246.3,126.4 L 246.7,127.6 L 246.8,129.2 L 247.3,131.1 L 247.2,131.3 L 247.0,131.7 L 246.9,132.0 L 248.0,133.3 L 248.4,133.3 L 248.8,133.2 L 250.6,132.5 L 251.1,132.1 L 251.2,132.0 L 251.5,131.8 L 251.7,131.8 L 251.7,131.8 L 251.8,131.7 L 251.9,131.7 L 252.4,131.2 L 252.8,131.1 L 253.6,130.2 L 255.2,129.5 L 255.6,129.2 L 287.0,159.2 L 295.1,166.9 L 295.1,167.0 L 294.6,168.9 L 294.7,169.5 L 294.3,170.0 L 294.3,170.7 L 294.2,170.9 L 294.0,171.2 L 293.5,172.9 L 293.3,173.6 L 293.4,173.9 L 293.9,174.0 L 294.4,174.6 L 294.3,175.4 L 294.6,175.7 L 294.9,176.0 L 294.9,176.6 L 295.1,177.4 L 295.6,177.7 L 295.6,178.2 L 296.0,178.2 L 296.4,178.3 L 296.8,178.2 L 296.8,178.3 L 296.6,178.8 L 297.2,179.0 L 297.3,179.4 L 297.9,179.7 L 298.5,180.3 L 298.9,181.5 L 298.9,182.0 L 298.7,182.3 L 298.6,182.8 L 298.8,183.5 L 299.1,183.7 L 299.6,184.3 L 300.1,184.5 L 300.3,184.9 L 300.6,184.8 L 300.7,184.4 L 301.1,184.0 L 301.0,183.9 L 301.0,183.7 L 301.7,184.0 L 302.4,183.9 L 302.4,184.3 L 302.2,184.6 L 302.2,184.9 L 302.8,184.8 L 303.0,185.0 L 303.0,185.6 L 303.4,185.7 L 303.6,185.9 L 303.1,186.1 L 303.0,186.4 L 303.5,186.8 L 303.7,186.7 L 303.9,186.7 L 304.1,186.8 L 304.1,187.4 L 304.3,187.9 L 304.1,188.2 L 303.6,188.5 L 299.6,190.3 L 298.5,190.9 L 298.6,191.1 L 298.4,191.1 L 298.3,191.2 L 298.2,191.0 L 297.8,191.1 L 291.9,193.7 L 291.6,192.8 L 291.6,192.4 L 291.8,191.4 L 291.1,190.0 L 290.2,188.7 L 289.8,188.0 L 289.1,187.2 L 288.8,187.1 L 287.0,186.6 L 286.7,186.7 L 286.5,187.2 L 286.6,187.5 L 286.4,187.8 L 286.3,188.7 L 285.7,189.2 L 285.3,189.2 L 285.0,188.9 L 283.7,188.8 L 283.2,188.8 L 282.9,189.3 L 282.5,189.6 L 281.7,190.0 L 280.9,190.6 L 280.8,191.0 L 281.1,191.7 L 281.0,192.2 L 280.8,192.7 L 279.8,193.8 L 279.7,194.5 L 280.0,194.9 L 279.3,195.7 L 279.3,196.4 L 279.7,196.4 L 280.6,195.9 L 280.8,196.1 L 280.6,197.2 L 280.4,197.5 L 279.9,197.5 L 278.9,198.0 L 278.3,198.3 L 278.0,198.8 L 277.6,201.2 L 277.3,201.8 L 276.8,203.3 L 276.5,203.8 L 276.2,204.8 L 276.0,205.1 L 275.3,204.3 L 275.0,204.5 L 274.8,205.2 L 274.5,205.3 L 274.7,203.9 L 275.1,202.8 L 276.1,197.4 L 276.7,195.5 L 276.6,195.0 L 276.0,194.6 L 275.5,194.5 L 274.5,193.1 L 274.0,192.4 L 273.8,192.3 L 273.4,191.8 L 273.0,191.7 L 272.2,192.3 L 271.8,192.3 L 271.5,192.1 L 271.4,192.1 L 270.6,192.6 L 269.1,192.5 L 267.9,193.3 L 267.3,194.5 L 267.0,194.8 L 266.0,194.9 L 265.9,194.9 L 265.2,195.1 L 264.8,195.3 L 264.7,195.7 L 265.3,195.9 L 265.8,195.9 L 265.9,195.9 L 266.4,195.9 L 266.9,196.0 L 267.5,197.0 L 268.1,197.4 L 268.1,198.6 L 266.9,199.7 L 266.7,200.4 L 266.1,200.9 L 265.4,201.0 L 265.1,201.1 L 264.4,201.5 L 264.0,201.8 L 263.8,202.4 L 263.2,202.8 L 263.1,203.3 L 262.9,203.3 L 262.6,203.1 L 262.2,203.1 L 262.1,203.3 L 262.4,203.8 L 262.7,204.0 L 262.9,204.2 L 262.9,205.0 L 262.6,205.7 L 262.0,206.2 L 261.9,206.7 L 261.1,207.0 L 261.0,207.7 L 260.6,207.8 L 260.6,208.4 L 259.8,208.5 L 259.3,208.6 L 259.1,209.1 L 258.7,209.5 L 258.5,210.4 L 258.0,210.6 L 257.5,210.8 L 257.5,211.1 L 257.7,211.4 L 257.6,211.9 L 257.5,212.1 L 256.6,212.4 L 256.4,212.9 L 256.0,213.3 L 255.7,213.7 L 255.3,214.4 L 255.4,215.0 L 256.1,216.9 L 255.8,217.5 L 255.3,217.6 L 255.0,217.8 L 255.2,218.3 L 255.2,220.5 L 255.5,221.1 L 256.1,222.0 L 256.1,222.7 L 256.4,222.8 L 256.8,223.3 L 257.8,223.6 L 258.2,224.0 L 258.1,224.5 L 257.9,225.0 L 257.8,225.5 L 257.6,225.8 L 257.0,226.1 L 255.8,226.2 L 255.4,227.6 L 254.8,228.8 L 253.7,230.6 L 251.1,235.3 L 250.3,235.6 L 249.7,236.1 L 248.4,237.3 L 247.2,237.8 L 246.9,238.6 L 245.4,240.3 L 244.4,240.9 L 243.6,240.8 L 242.6,240.4 L 241.1,240.6 L 240.6,240.9 L 240.4,241.4 L 240.0,241.9 L 239.6,242.6 L 239.3,242.5 L 238.5,243.0 L 238.4,243.1 L 238.2,243.4 L 238.5,243.5 L 239.1,243.7 L 239.6,244.1 L 239.4,244.2 L 215.6,253.5 L 215.6,253.5 L 215.8,253.4 L 216.0,253.3 L 216.1,253.1 L 215.8,253.0 L 215.5,253.1 L 215.2,253.3 L 215.2,253.5 L 214.4,254.0 L 214.3,254.0 L 214.3,254.0 L 214.1,253.6 L 213.5,253.5 L 213.0,253.9 L 212.4,254.9 L 212.3,254.8 L 211.9,255.0 L 211.4,256.0 L 211.5,256.2 L 211.6,256.8 L 210.6,257.0 L 204.1,258.3 L 204.1,258.2 L 204.0,257.7 L 203.4,257.1 L 203.1,256.5 L 202.5,256.1 L 202.2,256.1 L 201.6,257.3 L 201.2,257.8 L 201.0,258.6 L 200.6,259.8 L 200.2,260.0 L 200.0,258.7 L 199.5,258.2 L 199.2,257.7 L 198.9,257.6 L 198.3,258.1 L 198.4,258.9 L 198.2,259.4 L 198.3,259.6 L 198.0,259.7 L 197.4,260.4 L 197.0,261.2 L 197.1,261.3 L 197.0,262.1 L 196.5,262.8 L 196.1,262.9 L 195.0,262.8 L 194.8,263.0 L 193.6,265.3 L 193.5,266.0 L 193.7,266.6 L 193.7,267.1 L 193.4,267.4 L 193.1,267.5 L 193.0,267.4 L 192.5,267.2 L 191.6,267.0 L 190.6,267.3 L 190.1,267.6 L 189.6,268.8 L 189.0,269.8 L 188.9,270.5 L 190.1,270.7 L 190.3,270.9 L 190.3,271.7 L 190.0,272.4 L 190.1,272.6 L 190.4,272.5 L 190.7,272.1 L 191.2,272.2 L 191.3,272.1 L 191.6,272.1 L 191.9,271.9 L 192.2,271.9 L 192.4,272.6 L 193.4,272.5 L 194.0,272.0 L 194.5,271.3 L 194.8,271.3 L 194.9,271.4 L 195.3,272.5 L 195.7,272.8 L 195.7,272.8 L 203.5,295.1 L 203.5,295.2 L 202.8,295.5 L 202.4,296.2 L 202.0,297.0 L 201.2,297.9 L 200.5,298.1 L 199.2,298.2 L 198.1,298.5 L 196.5,299.8 L 195.2,301.0 L 194.8,301.5 L 193.9,302.2 L 193.0,303.5 L 192.6,304.1 L 192.2,304.4 L 191.2,304.7 L 190.8,305.1 L 189.4,307.6 L 189.3,308.3 L 189.8,308.9 L 189.6,309.6 L 188.8,310.6 L 188.0,310.8 L 187.6,311.0 L 187.5,311.5 L 187.8,311.9 L 187.7,312.3 L 187.1,312.9 L 185.8,313.0 L 185.4,313.5 L 185.3,314.2 L 185.4,314.6 L 185.7,314.7 L 186.0,314.3 L 186.4,314.3 L 186.8,314.9 L 186.9,315.6 L 186.9,316.0 L 186.9,316.1 L 172.6,329.4 L 172.3,329.0 L 171.1,329.6 L 168.7,329.8 L 168.3,330.0 L 167.9,330.1 L 167.0,330.6 L 166.9,331.3 L 166.3,331.3 L 165.7,331.5 L 165.4,331.7 L 165.4,332.2 L 165.5,332.6 L 165.5,333.0 L 165.4,333.3 L 165.0,333.3 L 164.9,332.8 L 164.8,332.4 L 164.3,332.2 L 163.4,332.1 L 162.6,331.6 L 162.8,331.3 L 162.5,331.1 L 162.4,331.0 L 161.9,330.7 L 161.2,330.6 L 160.5,330.8 L 160.0,330.7 L 159.3,330.9 L 158.4,330.8 L 157.4,331.4 L 156.3,331.6 L 155.9,331.4 L 155.5,331.8 L 155.1,332.2 L 154.7,332.1 L 154.4,332.4 L 154.1,333.6 L 152.7,334.6 L 151.8,335.0 L 150.3,335.2 L 148.7,336.4 L 147.1,337.5 L 145.9,337.7 L 144.9,338.0 L 144.2,338.1 L 143.0,338.6 L 142.0,339.5 L 140.5,340.3 L 140.3,341.0 L 140.0,341.0 L 140.0,341.0 L 139.8,341.0 L 139.8,340.9 L 139.5,340.9 L 139.1,341.3 L 138.6,341.8 L 139.0,342.0 L 139.8,342.9 L 140.1,342.9 L 139.8,346.9 L 139.3,352.4 L 139.2,352.8 L 137.7,352.7 L 137.3,352.8 L 136.0,352.7 L 135.8,353.2 L 135.9,353.3 L 136.0,353.5 L 136.4,354.0 L 136.6,353.9 L 136.9,354.1 L 137.1,354.3 L 136.5,354.3 L 136.5,354.5 L 136.5,354.5 L 136.7,354.7 L 136.7,354.8 L 136.5,354.8 L 121.7,360.0 L 121.5,359.7 L 121.0,359.0 L 120.3,358.3 L 119.8,356.9 L 119.4,355.1 L 119.3,354.2 L 119.4,353.1 L 119.3,350.1 L 119.2,348.8 L 118.6,347.1 L 118.7,345.9 L 118.4,341.6 L 118.4,339.7 L 118.6,338.5 L 119.8,334.4 L 120.9,331.2 L 122.6,326.4 L 123.3,323.7 L 123.4,322.0 L 123.4,322.0 L 123.6,321.9 L 124.5,322.0 L 125.0,322.0 L 124.8,321.4 L 124.8,320.9 L 124.1,320.8 L 123.9,320.6 L 124.2,319.9 L 124.3,319.1 L 125.0,318.1 L 125.1,318.1 L 126.0,318.4 L 126.3,317.6 L 126.3,317.2 L 125.6,316.8 L 125.7,316.4 L 125.6,316.2 L 125.8,315.9 L 126.3,315.5 L 127.1,315.6 L 127.5,315.2 L 128.0,314.7 L 128.5,314.4 L 128.6,313.9 L 129.0,313.4 L 130.1,313.5 L 130.4,313.0 L 130.5,311.8 L 130.4,310.9 L 131.0,309.7 L 131.3,308.6 L 131.6,307.9 L 131.8,307.5 L 131.9,307.2 L 132.4,306.7 L 132.9,306.1 L 133.0,305.5 L 132.5,305.1 L 132.2,304.8 L 131.4,304.6 L 129.9,303.5 L 128.9,303.0 L 129.0,302.8 L 128.3,302.5 L 128.3,302.7 L 127.9,302.5 L 126.7,302.0 L 126.0,301.8 L 124.1,301.9 L 123.7,302.3 L 122.4,303.1 L 121.8,303.0 L 120.6,302.6 L 119.6,301.6 L 118.8,300.7 L 118.3,299.8 L 117.8,299.1 L 117.5,297.8 L 115.4,294.5 L 115.0,293.5 L 114.7,293.1 L 114.7,292.9 L 114.6,292.6 L 115.1,292.3 L 115.3,291.8 L 115.5,291.7 L 115.5,291.7 L 115.5,291.5 L 115.3,291.4 L 115.0,290.6 L 114.5,289.9 L 114.1,289.4 L 114.1,289.7 L 114.0,290.2 L 113.8,290.2 L 113.5,289.9 L 113.2,290.1 L 113.2,290.2 L 113.0,290.2 L 112.7,289.9 L 112.3,289.2 L 112.4,289.0 L 112.6,288.8 L 112.7,288.7 L 113.3,288.2 L 113.5,287.9 L 113.0,287.1 L 112.4,286.5 L 111.9,286.1 L 114.7,281.6 L 114.8,281.8 L 115.3,282.2 L 115.7,282.0 L 116.4,281.4 L 117.1,280.9 L 117.2,281.2 L 117.0,282.0 L 117.1,282.4 L 117.4,282.4 L 118.0,281.8 L 118.3,281.6 L 119.1,281.6 L 119.6,281.7 L 119.0,282.3 L 118.3,283.0 L 117.9,283.5 L 118.2,283.8 L 119.1,284.1 L 119.7,284.1 L 120.2,283.9 L 120.8,283.4 L 121.3,283.4 L 121.5,283.5 L 121.2,284.3 L 121.3,285.2 L 121.5,285.5 L 122.4,285.3 L 123.0,285.4 L 123.3,286.1 L 123.0,286.6 L 123.0,287.3 L 123.4,287.6 L 123.6,287.6 L 123.8,287.6 L 124.1,288.1 L 124.6,288.3 L 125.2,288.3 L 125.5,288.0 L 125.4,287.7 L 125.5,287.3 L 126.0,286.8 L 126.1,285.9 L 126.1,285.1 L 126.0,284.1 L 125.9,284.0 L 125.6,283.2 L 125.0,281.5 L 124.5,278.1 L 124.5,276.6 L 124.3,275.9 L 124.0,275.0 L 124.2,274.5 L 124.8,273.8 L 125.3,273.4 L 126.3,273.4 L 127.0,273.5 L 127.4,273.9 L 128.3,273.9 L 129.1,273.5 L 129.3,273.2 L 129.4,272.3 L 129.2,271.6 L 128.7,271.3 L 128.5,270.9 L 128.5,270.8 L 128.6,270.4 L 128.4,270.2 L 128.1,270.0 L 128.1,269.5 L 128.3,269.2 L 128.7,269.0 L 128.5,268.7 L 128.1,268.2 L 128.0,267.3 L 128.1,266.8 L 128.7,266.8 L 128.7,266.6 L 127.7,265.4 L 127.8,264.8 L 127.9,264.2 L 128.0,263.3 L 127.7,261.6 L 127.4,258.5 L 127.3,258.0 L 127.3,257.1 L 126.8,256.5 L 126.8,255.5 L 126.6,254.8 L 126.6,254.2 L 125.6,253.1 L 125.6,252.6 L 125.8,251.9 L 125.8,251.4 L 125.5,250.3 L 125.7,249.3 L 125.5,248.9 L 125.1,248.5 L 125.0,247.9 L 125.0,247.6 L 125.0,247.1 L 124.6,247.0 L 124.2,246.4 L 123.3,244.2 L 123.0,243.0 L 122.9,242.8 L 123.4,242.6 L 123.5,242.6 L 123.7,242.4 L 123.4,241.8 L 123.3,241.9 L 123.5,242.4 L 123.0,242.6 L 122.9,242.5 L 122.5,241.2 L 122.4,240.3 L 121.6,239.4 L 121.5,239.2 L 120.9,237.9 L 120.7,236.9 L 120.2,235.7 L 119.9,234.9 L 119.8,233.1 L 120.0,231.5 L 120.8,230.0 L 122.0,228.3 L 122.9,227.7 L 123.1,227.6 L 124.0,227.6 L 124.5,227.3 L 125.7,227.4 L 126.6,226.9 L 127.0,226.9 L 127.3,226.6 L 127.6,225.4 L 128.9,223.8 L 129.2,223.0 L 129.8,222.3 L 130.0,222.0 L 130.3,221.9 L 130.8,221.9 L 131.3,221.5" fill="none" stroke="black" stroke-width="2"/>
</svg>