<?xml version="1.0" encoding="UTF-8"?>
<svg width="400" height="400" viewBox="0 0 400 400" xmlns="http://www.w3.org/2000/svg">
  <rect width="400" height="400" fill="white"/>
  <path d="M 93.2,230.3 L 113.5,214.3 L 134.8,197.5 L 144.7,189.7 L 170.9,169.0 L 180.1,161.8 L 225.4,126.0 L 228.4,123.7 L 270.0,90.9 L 285.8,78.4 L 296.7,69.8 L 305.8,63.0 L 316.0,76.5 L 317.5,78.4 L 351.9,123.7 L 357.8,131.6 L 357.7,131.5 L 357.4,131.5 L 357.3,131.6 L 357.2,131.9 L 357.2,131.9 L 357.1,131.9 L 357.0,132.0 L 356.9,132.2 L 356.8,132.4 L 356.8,132.4 L 356.8,132.5 L 356.9,132.6 L 356.7,133.4 L 356.9,133.9 L 356.9,134.3 L 356.8,134.6 L 356.9,134.8 L 357.2,134.9 L 357.2,135.1 L 357.3,135.1 L 357.4,135.2 L 357.5,135.5 L 357.7,135.7 L 357.6,135.8 L 357.6,135.9 L 357.7,136.3 L 357.6,136.6 L 357.8,136.9 L 357.8,137.1 L 357.9,137.5 L 358.0,138.0 L 358.0,138.1 L 358.0,138.5 L 358.1,138.6 L 358.1,138.7 L 358.3,138.9 L 358.5,139.1 L 359.2,140.2 L 359.4,140.6 L 359.6,141.4 L 359.8,141.7 L 359.9,142.3 L 360.0,142.4 L 360.0,142.4 L 338.4,169.0 L 333.5,175.0 L 333.5,175.0 L 333.4,174.9 L 332.6,174.8 L 332.5,174.9 L 332.8,175.1 L 332.7,175.2 L 332.6,175.4 L 332.3,175.5 L 332.0,175.5 L 331.8,175.3 L 331.6,175.3 L 331.5,175.4 L 331.4,175.3 L 330.4,175.1 L 329.1,175.0 L 328.7,175.2 L 328.0,175.6 L 327.4,176.4 L 327.2,176.5 L 326.8,176.7 L 326.5,176.8 L 326.3,176.9 L 325.9,177.0 L 325.3,177.0 L 325.1,177.3 L 325.1,177.6 L 325.1,177.9 L 325.3,178.8 L 325.2,179.1 L 325.1,179.2 L 324.9,179.2 L 324.2,179.2 L 324.0,179.3 L 323.4,179.5 L 323.6,179.8 L 323.9,180.0 L 324.2,180.0 L 324.6,180.0 L 324.8,180.0 L 325.0,179.9 L 325.4,180.1 L 325.6,180.1 L 325.8,180.1 L 325.9,180.1 L 326.2,180.1 L 326.3,180.1 L 326.7,180.2 L 326.9,180.4 L 327.0,180.5 L 327.2,180.5 L 327.7,180.2 L 328.0,180.2 L 328.1,180.2 L 328.3,180.3 L 328.8,180.8 L 329.0,181.1 L 329.4,181.5 L 331.0,182.6 L 331.4,182.7 L 331.5,182.9 L 331.5,182.9 L 332.1,183.2 L 332.2,183.4 L 332.6,183.9 L 332.9,184.2 L 333.0,184.2 L 333.1,184.4 L 333.3,185.3 L 333.3,185.3 L 333.4,185.6 L 334.1,186.1 L 334.5,186.6 L 334.7,187.1 L 334.8,187.5 L 335.0,187.9 L 335.2,188.0 L 334.8,188.6 L 334.9,188.7 L 335.0,188.9 L 335.2,189.0 L 335.0,190.1 L 335.1,190.3 L 334.9,190.7 L 334.9,191.1 L 335.0,191.1 L 335.1,191.0 L 335.2,190.9 L 335.4,190.8 L 335.5,190.8 L 335.5,191.1 L 335.5,191.3 L 335.7,191.6 L 335.7,191.6 L 335.8,191.6 L 335.9,191.6 L 335.9,192.0 L 335.9,192.2 L 335.9,192.3 L 336.1,192.6 L 336.3,192.9 L 336.3,193.2 L 336.3,193.4 L 336.1,193.4 L 335.6,193.5 L 335.4,193.6 L 335.4,193.8 L 335.4,193.8 L 334.8,194.1 L 334.6,194.2 L 334.0,194.2 L 333.8,194.0 L 333.5,194.0 L 333.3,194.0 L 333.1,193.8 L 332.9,193.6 L 332.8,193.6 L 332.7,193.7 L 332.6,193.9 L 332.4,194.0 L 332.2,194.0 L 331.9,194.2 L 331.7,194.2 L 331.5,194.3 L 331.2,194.3 L 331.0,194.2 L 330.8,194.0 L 330.7,193.9 L 330.5,194.0 L 330.1,193.9 L 329.7,194.0 L 329.3,194.0 L 329.0,193.8 L 328.7,193.8 L 328.6,193.7 L 328.3,193.7 L 328.1,193.8 L 328.0,193.7 L 327.8,193.5 L 327.3,193.4 L 327.2,193.5 L 327.1,193.7 L 326.8,193.8 L 326.4,193.9 L 325.4,193.9 L 324.9,193.8 L 324.7,193.8 L 324.4,193.6 L 324.2,193.6 L 324.0,193.4 L 323.9,193.4 L 323.5,193.3 L 323.4,193.2 L 323.3,193.0 L 323.2,192.8 L 323.0,192.7 L 322.6,192.3 L 322.6,192.1 L 322.6,192.0 L 322.3,192.0 L 322.2,191.8 L 321.9,191.8 L 321.7,191.7 L 321.4,191.9 L 321.0,191.8 L 320.9,191.6 L 321.0,191.4 L 321.1,191.3 L 321.1,191.2 L 320.9,190.9 L 320.9,190.7 L 320.5,190.6 L 320.3,190.4 L 320.3,190.2 L 320.1,190.0 L 320.1,189.9 L 319.6,189.8 L 319.4,189.9 L 319.1,190.1 L 318.8,190.1 L 318.7,190.0 L 318.6,190.0 L 318.6,190.3 L 318.9,190.8 L 319.1,191.0 L 319.6,191.1 L 319.7,191.4 L 319.9,191.5 L 320.0,191.6 L 319.9,191.9 L 319.8,192.3 L 319.6,192.7 L 319.2,192.9 L 318.7,193.1 L 318.3,193.1 L 318.0,193.0 L 317.8,192.9 L 317.7,192.9 L 317.4,192.7 L 317.0,192.8 L 316.9,192.9 L 316.6,192.7 L 316.5,192.7 L 316.2,192.5 L 315.9,192.5 L 315.7,192.5 L 315.5,192.6 L 315.2,192.8 L 315.0,192.8 L 314.7,192.7 L 314.6,192.7 L 314.5,192.9 L 314.5,192.9 L 314.4,192.7 L 314.1,192.7 L 313.8,192.8 L 313.8,192.8 L 313.6,192.8 L 313.6,192.8 L 313.5,193.0 L 313.3,193.1 L 313.4,193.2 L 313.3,193.4 L 313.3,193.4 L 312.9,193.6 L 312.7,193.8 L 312.5,194.3 L 312.4,194.3 L 312.1,194.3 L 312.1,194.5 L 312.2,194.9 L 312.3,195.0 L 312.1,195.5 L 312.1,195.5 L 312.0,195.7 L 311.9,195.9 L 311.1,196.5 L 310.7,196.8 L 310.1,197.2 L 309.8,197.3 L 309.4,197.4 L 309.4,197.3 L 309.3,197.2 L 308.8,197.3 L 308.2,197.2 L 307.3,197.2 L 306.9,196.8 L 306.7,196.6 L 306.2,196.2 L 305.8,196.1 L 305.6,196.2 L 305.0,196.2 L 304.9,196.3 L 304.8,196.8 L 304.8,196.9 L 304.9,197.1 L 304.8,197.2 L 304.5,197.3 L 304.5,197.5 L 304.3,197.5 L 304.2,197.6 L 304.1,197.7 L 304.2,197.9 L 304.4,198.1 L 304.7,198.2 L 304.8,198.3 L 304.8,198.5 L 304.5,199.1 L 304.3,199.2 L 303.9,199.4 L 303.9,199.2 L 303.8,199.2 L 303.7,199.3 L 303.7,199.5 L 303.5,199.6 L 303.3,199.6 L 303.2,199.6 L 303.1,199.4 L 303.0,199.3 L 302.9,199.3 L 302.9,199.6 L 303.0,199.7 L 303.0,199.9 L 303.0,200.2 L 303.1,200.3 L 303.1,200.3 L 303.2,200.4 L 303.2,200.5 L 303.1,200.5 L 302.9,200.6 L 302.7,200.7 L 302.7,200.9 L 302.7,201.0 L 303.0,201.2 L 303.4,201.7 L 303.3,201.9 L 303.1,202.1 L 303.0,202.2 L 303.1,202.6 L 303.0,202.9 L 302.6,203.2 L 302.3,203.2 L 302.2,203.2 L 302.1,203.5 L 301.9,203.4 L 300.9,203.6 L 300.9,203.8 L 301.0,204.0 L 301.1,204.1 L 301.0,204.1 L 300.9,204.1 L 300.7,204.0 L 300.5,204.1 L 300.5,204.2 L 300.7,204.4 L 300.7,204.6 L 300.6,204.8 L 300.0,204.7 L 299.8,204.8 L 299.7,204.9 L 299.6,204.9 L 299.6,205.1 L 299.6,205.3 L 299.5,205.3 L 299.4,205.3 L 299.2,205.3 L 298.8,205.0 L 298.6,204.9 L 298.4,204.8 L 298.2,205.0 L 298.1,204.9 L 297.9,204.9 L 297.7,204.8 L 297.5,204.9 L 297.0,204.7 L 296.7,204.6 L 296.5,204.5 L 296.2,204.5 L 295.8,204.6 L 295.5,204.6 L 295.4,204.5 L 295.2,204.4 L 294.9,204.2 L 294.7,204.1 L 294.5,204.0 L 294.4,204.1 L 294.3,204.3 L 294.4,204.5 L 294.7,204.6 L 294.8,204.6 L 294.6,204.8 L 294.4,204.8 L 294.3,204.8 L 294.2,205.2 L 294.5,205.7 L 294.8,206.0 L 294.8,206.1 L 294.1,206.0 L 293.8,206.1 L 293.6,206.1 L 293.3,205.9 L 293.1,205.9 L 292.9,206.0 L 292.7,205.9 L 292.5,205.8 L 292.2,205.8 L 292.1,205.9 L 292.2,206.2 L 292.1,206.3 L 291.9,206.2 L 291.4,206.1 L 291.0,206.2 L 290.9,206.3 L 290.9,206.4 L 290.9,206.5 L 290.9,206.6 L 290.7,206.5 L 290.5,206.4 L 290.5,206.4 L 290.2,206.4 L 290.2,206.4 L 290.1,206.5 L 290.1,206.6 L 290.3,206.8 L 290.5,206.8 L 290.7,206.9 L 291.0,206.9 L 291.1,207.0 L 291.0,207.2 L 290.6,207.6 L 290.6,207.8 L 290.7,208.0 L 291.1,207.8 L 291.5,207.8 L 291.5,207.8 L 291.6,208.1 L 291.7,208.2 L 292.0,208.1 L 292.3,208.0 L 292.5,208.0 L 292.6,208.2 L 292.6,208.4 L 292.4,208.5 L 292.4,208.6 L 292.6,208.7 L 292.7,208.7 L 292.6,208.9 L 292.3,209.0 L 292.2,209.1 L 292.2,209.2 L 292.7,209.3 L 292.8,209.4 L 292.5,209.6 L 292.4,209.7 L 292.4,209.9 L 292.5,210.1 L 292.7,210.2 L 292.8,210.4 L 292.8,210.8 L 293.0,211.0 L 293.0,211.1 L 292.7,211.2 L 292.6,211.3 L 292.5,211.4 L 292.6,211.5 L 293.0,211.5 L 293.2,211.5 L 293.3,211.6 L 293.4,212.0 L 293.4,212.2 L 293.5,212.3 L 293.8,212.3 L 294.0,212.5 L 294.1,212.5 L 294.1,212.7 L 294.2,213.0 L 294.3,213.1 L 294.5,213.0 L 294.5,212.9 L 294.5,212.7 L 294.6,212.6 L 294.8,212.6 L 295.4,212.6 L 295.7,212.5 L 295.8,212.5 L 296.0,212.6 L 296.1,212.7 L 296.0,213.1 L 296.3,213.4 L 296.5,213.6 L 296.9,213.7 L 297.5,213.8 L 297.7,213.7 L 298.0,213.6 L 298.2,213.6 L 298.4,213.6 L 298.9,213.5 L 299.3,213.5 L 299.4,213.8 L 299.6,213.8 L 299.7,213.8 L 299.9,213.9 L 300.4,214.0 L 300.6,214.3 L 300.8,214.0 L 301.0,214.0 L 301.0,214.1 L 301.2,214.2 L 301.2,214.5 L 301.4,214.6 L 301.4,215.0 L 301.7,215.2 L 301.8,215.2 L 301.9,214.7 L 302.0,214.7 L 302.0,214.8 L 302.0,215.1 L 302.1,215.5 L 302.1,215.8 L 302.2,215.7 L 302.3,215.7 L 302.5,215.8 L 302.5,216.0 L 302.4,216.4 L 302.5,216.4 L 302.8,216.4 L 302.9,216.4 L 303.0,216.6 L 303.2,216.6 L 303.3,217.0 L 303.3,217.2 L 303.4,217.4 L 303.4,217.4 L 303.6,217.2 L 303.6,217.2 L 303.8,217.6 L 303.7,217.8 L 303.6,218.2 L 303.4,218.4 L 303.5,218.4 L 303.7,218.4 L 303.8,218.3 L 303.8,218.2 L 304.0,218.0 L 304.1,217.8 L 304.1,217.8 L 304.2,217.9 L 304.1,218.3 L 303.9,218.4 L 303.7,218.6 L 303.3,218.8 L 302.9,218.7 L 302.7,218.5 L 302.2,218.4 L 301.9,218.5 L 301.5,218.7 L 300.9,219.0 L 300.1,218.9 L 299.5,218.6 L 299.0,218.5 L 298.8,218.3 L 298.6,218.3 L 298.4,218.3 L 298.0,218.5 L 297.8,218.5 L 297.6,218.2 L 297.2,218.4 L 297.0,218.6 L 296.8,218.8 L 296.8,218.9 L 297.0,219.1 L 297.0,219.3 L 297.0,219.3 L 296.6,219.2 L 296.3,219.5 L 296.2,219.5 L 296.0,219.4 L 295.6,219.3 L 295.6,219.4 L 295.5,219.6 L 295.1,219.7 L 295.1,219.7 L 294.6,219.7 L 294.5,219.8 L 294.3,220.0 L 294.0,220.0 L 294.0,220.0 L 294.3,220.3 L 294.3,220.5 L 294.2,220.6 L 294.0,220.6 L 293.8,220.7 L 293.4,220.8 L 292.9,220.8 L 292.4,221.1 L 292.5,221.2 L 292.5,221.4 L 292.0,221.9 L 291.9,222.1 L 291.7,222.1 L 291.5,222.2 L 291.3,222.5 L 291.6,223.0 L 291.5,223.0 L 291.0,222.9 L 290.8,222.9 L 290.7,223.1 L 290.8,223.2 L 291.0,223.2 L 291.4,223.3 L 291.5,223.3 L 291.8,223.4 L 292.2,223.4 L 292.5,223.5 L 293.4,223.6 L 293.6,223.7 L 293.8,223.8 L 294.1,223.9 L 294.3,223.9 L 294.7,223.8 L 294.7,223.9 L 295.0,223.9 L 295.4,223.8 L 295.6,223.7 L 296.0,223.7 L 296.0,223.7 L 296.1,223.8 L 296.2,223.7 L 296.3,223.6 L 296.2,223.6 L 296.1,223.4 L 296.1,223.1 L 296.2,223.1 L 296.3,223.2 L 296.6,223.5 L 296.8,223.7 L 296.8,223.6 L 296.8,223.4 L 297.0,223.3 L 297.1,223.3 L 297.1,223.3 L 297.2,223.2 L 297.4,222.9 L 297.5,222.7 L 297.7,222.4 L 297.9,222.4 L 298.1,222.3 L 298.4,222.2 L 299.1,221.7 L 299.4,221.6 L 299.8,221.6 L 300.0,221.8 L 300.7,221.8 L 300.9,221.8 L 301.5,221.8 L 301.7,221.7 L 302.0,221.8 L 302.0,221.8 L 301.9,222.1 L 302.1,222.1 L 302.4,221.9 L 302.7,221.9 L 302.8,222.1 L 303.0,222.1 L 303.1,222.2 L 303.2,222.2 L 303.4,222.1 L 303.4,222.0 L 303.5,221.9 L 303.6,222.0 L 303.7,222.1 L 303.8,222.1 L 303.9,222.1 L 304.0,222.0 L 304.4,221.9 L 304.8,221.8 L 305.6,221.5 L 306.4,221.6 L 306.5,221.7 L 306.8,221.7 L 307.2,221.5 L 307.4,221.5 L 307.7,221.7 L 307.9,221.6 L 308.1,221.5 L 308.3,221.6 L 308.5,221.9 L 308.6,222.1 L 308.8,222.0 L 309.1,221.8 L 309.2,222.1 L 309.4,222.1 L 309.6,222.0 L 309.7,222.1 L 309.8,222.0 L 309.9,221.4 L 310.0,221.4 L 310.0,221.4 L 310.2,221.8 L 310.2,222.1 L 310.4,222.2 L 310.8,222.2 L 311.1,222.0 L 311.2,221.7 L 311.3,221.6 L 311.4,221.7 L 311.5,221.9 L 311.6,221.9 L 311.9,221.7 L 312.0,221.7 L 312.2,221.9 L 312.6,221.7 L 312.7,221.5 L 312.8,221.3 L 313.1,221.1 L 313.3,220.9 L 313.7,220.9 L 314.0,221.2 L 314.1,221.4 L 314.2,221.4 L 314.4,221.2 L 314.7,221.2 L 315.0,221.2 L 315.4,221.0 L 315.6,220.9 L 315.9,220.8 L 316.1,220.7 L 316.3,220.2 L 316.3,220.0 L 316.2,220.0 L 316.1,220.0 L 316.1,219.6 L 316.1,219.5 L 316.1,219.4 L 316.1,219.2 L 315.9,218.7 L 315.7,218.3 L 315.2,216.6 L 315.0,216.1 L 314.9,215.7 L 314.8,215.5 L 314.6,215.0 L 314.8,213.7 L 314.9,213.6 L 315.3,213.5 L 315.4,213.4 L 315.5,213.1 L 315.9,212.9 L 316.1,212.8 L 316.1,212.6 L 316.7,212.6 L 316.9,212.6 L 317.1,212.7 L 317.1,212.5 L 317.1,212.2 L 317.0,212.0 L 317.1,211.9 L 317.2,211.9 L 317.4,212.1 L 317.6,212.4 L 318.0,212.6 L 318.2,212.6 L 318.3,212.7 L 318.4,212.7 L 318.5,212.7 L 318.7,213.0 L 319.2,213.2 L 319.6,213.2 L 319.8,213.1 L 320.6,213.4 L 320.8,213.4 L 320.9,213.4 L 321.0,213.5 L 321.2,213.5 L 321.2,213.5 L 321.6,213.5 L 321.7,213.7 L 321.8,213.7 L 322.2,213.8 L 322.3,213.7 L 322.7,213.7 L 322.9,213.8 L 323.0,213.8 L 323.2,213.9 L 323.3,213.8 L 323.4,213.8 L 323.6,213.6 L 323.8,213.5 L 323.9,213.2 L 324.1,213.0 L 324.2,212.9 L 324.4,212.9 L 324.5,212.7 L 324.5,212.4 L 324.4,212.0 L 324.4,211.8 L 324.5,211.4 L 324.6,211.4 L 325.2,211.0 L 325.3,210.9 L 325.5,210.1 L 325.5,209.9 L 325.4,209.8 L 325.2,209.8 L 325.0,209.7 L 325.0,209.6 L 325.0,209.6 L 325.4,209.7 L 325.7,209.8 L 325.8,210.0 L 325.9,209.9 L 326.0,209.8 L 326.1,209.7 L 326.2,209.2 L 326.4,209.0 L 326.4,209.2 L 326.4,209.6 L 326.3,209.8 L 326.4,209.8 L 326.4,209.8 L 326.5,209.8 L 326.6,209.7 L 326.8,209.7 L 327.2,209.4 L 327.2,209.5 L 327.1,209.8 L 327.2,209.9 L 327.2,209.9 L 327.3,209.9 L 327.4,209.9 L 327.7,209.7 L 327.9,209.9 L 327.9,209.9 L 327.9,209.9 L 328.0,209.9 L 328.1,209.9 L 328.2,209.9 L 328.3,210.0 L 328.7,210.3 L 328.7,210.3 L 328.9,210.0 L 328.9,210.0 L 328.9,210.0 L 329.0,210.0 L 329.0,210.1 L 329.0,210.4 L 329.1,210.5 L 329.2,210.5 L 329.5,210.3 L 329.7,210.4 L 329.8,210.6 L 330.1,210.8 L 330.1,210.8 L 329.9,211.0 L 329.9,211.1 L 330.2,211.0 L 330.6,211.3 L 330.8,211.7 L 331.0,211.9 L 331.2,211.9 L 331.4,212.4 L 331.5,212.5 L 331.8,212.7 L 332.1,213.2 L 332.5,213.4 L 332.6,213.6 L 332.8,213.8 L 333.0,214.1 L 333.0,214.4 L 333.0,214.5 L 332.9,214.8 L 333.0,214.9 L 333.1,214.9 L 333.2,215.4 L 333.2,216.0 L 333.3,216.0 L 333.5,215.9 L 333.7,216.3 L 334.1,216.9 L 334.2,217.1 L 334.2,217.1 L 334.1,217.0 L 333.8,217.0 L 333.7,216.8 L 333.6,216.5 L 332.9,216.4 L 332.8,216.5 L 332.6,216.7 L 332.5,217.1 L 332.6,217.5 L 332.5,217.8 L 332.5,218.1 L 332.6,218.2 L 332.7,218.3 L 332.6,218.5 L 332.7,218.7 L 332.8,218.8 L 333.3,219.3 L 333.5,219.7 L 333.5,219.9 L 333.4,220.1 L 333.4,220.2 L 333.8,220.8 L 334.0,221.1 L 334.2,221.3 L 334.5,221.4 L 334.9,222.1 L 335.0,222.5 L 335.3,223.4 L 335.3,223.8 L 335.6,224.2 L 336.0,225.0 L 336.4,225.8 L 336.5,226.2 L 336.8,226.8 L 336.8,226.8 L 337.3,228.0 L 337.5,228.2 L 337.5,228.3 L 337.7,228.7 L 337.9,228.9 L 337.9,229.3 L 338.0,229.4 L 338.0,229.6 L 338.2,229.9 L 338.3,230.2 L 338.6,230.6 L 338.6,230.7 L 338.8,230.9 L 339.0,231.1 L 339.2,231.4 L 339.3,231.7 L 339.3,232.0 L 339.6,232.2 L 339.7,232.3 L 339.7,232.6 L 339.8,232.7 L 340.2,233.0 L 340.3,233.1 L 340.4,233.2 L 340.3,233.4 L 340.0,233.6 L 339.7,233.8 L 339.4,234.1 L 339.2,234.3 L 339.2,234.4 L 339.3,234.4 L 339.5,234.2 L 339.8,234.0 L 340.1,233.8 L 340.2,233.9 L 340.4,234.2 L 340.6,234.5 L 340.8,234.7 L 339.7,236.4 L 339.6,236.3 L 339.5,236.2 L 339.4,236.3 L 339.4,236.3 L 339.2,236.6 L 339.0,236.8 L 339.0,236.8 L 339.0,236.8 L 338.8,236.7 L 338.6,236.5 L 338.6,236.3 L 338.3,236.3 L 338.1,236.1 L 338.0,236.0 L 337.9,235.7 L 338.0,235.7 L 338.0,235.6 L 338.2,235.3 L 338.5,235.1 L 338.8,234.9 L 339.0,234.6 L 339.1,234.5 L 339.0,234.4 L 338.7,234.6 L 338.4,234.9 L 338.1,235.1 L 337.8,235.3 L 337.6,235.3 L 337.5,235.4 L 337.4,235.7 L 337.4,235.8 L 337.3,235.8 L 337.2,235.9 L 336.8,235.6 L 336.6,235.5 L 336.6,235.3 L 336.6,235.3 L 336.5,235.2 L 336.4,235.2 L 336.4,235.0 L 336.1,235.2 L 335.8,235.4 L 335.5,235.6 L 335.2,235.8 L 334.8,235.9 L 334.8,236.2 L 334.8,236.2 L 334.4,236.4 L 333.6,236.6 L 333.5,236.8 L 333.4,236.9 L 333.1,236.9 L 332.4,236.8 L 332.1,236.8 L 332.0,237.0 L 332.2,237.4 L 332.2,237.6 L 332.1,237.6 L 332.1,237.7 L 332.1,237.7 L 331.8,237.8 L 331.3,237.7 L 331.2,237.6 L 331.0,237.5 L 330.8,237.4 L 330.7,237.5 L 330.6,237.5 L 330.4,237.7 L 330.0,237.6 L 329.7,237.7 L 329.4,238.0 L 329.1,238.4 L 329.0,238.6 L 328.7,239.0 L 328.6,239.2 L 328.5,239.9 L 328.2,240.6 L 328.1,240.9 L 328.1,241.3 L 328.0,242.0 L 328.1,242.2 L 328.3,242.3 L 328.3,242.4 L 328.3,242.6 L 328.1,243.6 L 327.9,244.0 L 327.8,244.3 L 327.5,245.8 L 327.4,246.2 L 327.2,246.4 L 327.2,246.6 L 327.2,246.7 L 327.2,247.2 L 327.3,247.3 L 327.3,247.8 L 327.2,248.3 L 327.2,248.7 L 327.3,248.8 L 327.4,249.1 L 327.3,249.5 L 327.1,249.7 L 327.0,250.4 L 327.1,250.5 L 327.1,250.7 L 327.0,250.8 L 326.8,250.8 L 326.6,250.6 L 326.3,250.5 L 326.2,250.4 L 326.2,250.1 L 326.0,249.9 L 325.9,249.6 L 325.7,249.4 L 325.6,249.3 L 325.4,249.3 L 325.3,249.2 L 325.0,249.0 L 324.8,249.1 L 324.2,249.6 L 324.2,249.9 L 324.2,250.1 L 324.4,250.3 L 324.7,250.3 L 325.2,249.9 L 325.4,249.9 L 325.6,249.9 L 325.6,250.0 L 325.4,250.2 L 325.4,250.4 L 325.3,250.7 L 325.5,250.9 L 325.5,251.1 L 325.4,251.1 L 325.2,250.9 L 324.7,251.0 L 324.6,251.1 L 324.6,251.2 L 324.8,251.5 L 324.9,251.8 L 325.4,252.7 L 325.6,252.8 L 325.7,253.1 L 326.3,253.1 L 326.4,253.3 L 326.5,253.5 L 326.7,253.6 L 326.7,253.8 L 326.7,253.8 L 326.6,254.0 L 326.6,254.3 L 326.7,254.5 L 326.8,254.5 L 327.3,254.3 L 327.5,254.4 L 327.6,254.6 L 327.5,254.8 L 327.4,254.9 L 327.3,255.4 L 327.6,255.7 L 327.7,255.7 L 327.9,255.9 L 327.9,256.2 L 327.8,256.4 L 327.8,256.5 L 327.5,256.8 L 327.4,256.9 L 327.2,256.8 L 327.0,256.7 L 326.7,256.6 L 326.6,256.7 L 326.6,257.1 L 326.3,257.1 L 325.9,257.0 L 325.6,257.0 L 325.3,256.9 L 325.1,256.9 L 325.1,256.9 L 324.7,256.8 L 324.4,256.8 L 324.0,256.7 L 323.7,256.7 L 323.3,256.6 L 323.0,256.6 L 322.6,256.5 L 322.3,256.5 L 321.9,256.4 L 321.6,256.4 L 321.2,256.3 L 320.9,256.3 L 320.6,256.1 L 320.4,256.1 L 320.2,256.1 L 320.2,256.1 L 319.1,255.9 L 319.1,255.9 L 319.0,255.9 L 318.9,255.9 L 318.9,255.9 L 318.6,255.8 L 318.3,255.7 L 318.0,255.6 L 318.0,255.7 L 317.9,255.8 L 318.1,255.8 L 318.3,255.9 L 318.3,256.0 L 318.2,256.1 L 318.0,256.2 L 318.0,256.3 L 318.0,256.3 L 317.9,256.6 L 317.9,257.0 L 318.0,257.1 L 318.6,257.2 L 318.7,257.3 L 319.0,257.3 L 319.0,257.3 L 319.6,257.1 L 320.2,256.8 L 320.3,256.8 L 320.5,256.8 L 320.6,256.8 L 320.6,256.8 L 320.7,256.9 L 320.9,256.8 L 321.0,256.8 L 321.2,256.5 L 321.5,256.6 L 321.9,256.6 L 322.2,256.7 L 322.6,256.7 L 322.9,256.8 L 323.3,256.8 L 323.6,256.9 L 324.0,256.9 L 324.3,257.0 L 324.7,257.0 L 325.2,257.1 L 325.5,257.2 L 325.6,257.2 L 325.7,257.2 L 325.6,257.3 L 325.7,257.5 L 325.8,257.6 L 325.9,257.6 L 325.8,257.9 L 325.8,257.9 L 325.7,257.9 L 325.0,257.8 L 324.9,257.9 L 324.9,258.1 L 325.2,258.3 L 325.2,258.4 L 325.1,258.5 L 324.6,258.9 L 324.6,258.7 L 324.4,258.8 L 324.2,258.9 L 324.3,259.0 L 324.0,259.0 L 323.9,259.1 L 323.9,259.0 L 323.5,259.1 L 323.5,259.2 L 323.3,259.3 L 323.2,259.4 L 323.1,259.5 L 323.1,259.5 L 316.0,258.1 L 311.2,257.1 L 311.3,256.9 L 311.3,256.7 L 311.0,256.3 L 310.7,255.9 L 310.3,255.3 L 310.1,254.8 L 309.8,254.1 L 309.6,253.5 L 309.6,253.3 L 309.6,253.2 L 309.6,253.1 L 309.7,252.8 L 309.7,252.4 L 309.9,252.5 L 310.2,252.6 L 310.6,252.6 L 310.9,252.7 L 311.3,252.9 L 311.6,253.0 L 311.9,253.1 L 312.2,253.3 L 312.6,253.4 L 312.9,253.5 L 313.2,253.7 L 313.5,253.8 L 313.5,253.7 L 313.5,253.6 L 313.2,253.4 L 312.9,253.3 L 312.5,253.2 L 312.2,253.0 L 311.9,252.9 L 311.5,252.8 L 311.2,252.7 L 311.1,252.6 L 311.1,252.4 L 311.0,252.5 L 311.0,252.5 L 310.8,252.5 L 310.8,252.3 L 310.6,252.3 L 310.6,252.0 L 310.4,251.9 L 310.3,251.9 L 309.9,251.9 L 309.7,251.9 L 309.6,251.8 L 309.6,251.8 L 309.9,250.9 L 310.1,249.8 L 310.2,249.5 L 310.6,249.2 L 311.2,248.9 L 311.6,247.7 L 311.4,247.3 L 311.0,247.2 L 310.8,247.1 L 310.4,247.0 L 310.3,247.1 L 310.0,247.4 L 309.8,247.6 L 309.7,247.8 L 309.4,247.9 L 309.0,247.9 L 308.9,248.0 L 308.6,248.3 L 308.6,248.5 L 308.3,248.7 L 308.0,249.0 L 307.5,249.1 L 307.2,249.3 L 307.1,249.5 L 306.9,249.6 L 306.7,249.6 L 306.5,249.5 L 306.3,249.5 L 306.0,249.7 L 305.9,250.1 L 305.6,250.3 L 304.9,250.5 L 304.8,250.5 L 304.8,250.5 L 304.4,250.5 L 304.2,250.5 L 303.9,250.3 L 303.8,250.4 L 303.8,250.5 L 303.9,250.8 L 303.9,251.1 L 303.9,251.2 L 303.9,251.3 L 303.7,251.6 L 303.6,251.7 L 303.3,251.8 L 303.0,251.8 L 302.5,251.9 L 302.2,251.9 L 301.9,251.6 L 301.5,251.5 L 301.2,251.1 L 301.2,250.9 L 301.1,250.6 L 301.0,250.5 L 300.9,250.4 L 300.6,249.9 L 300.5,249.6 L 300.5,249.5 L 300.6,249.5 L 300.6,249.4 L 300.6,249.3 L 300.4,249.2 L 300.4,249.2 L 300.0,249.4 L 299.8,249.4 L 298.9,249.3 L 298.8,249.2 L 298.5,249.0 L 298.5,248.8 L 298.4,248.8 L 298.1,248.9 L 297.6,249.3 L 297.2,249.4 L 296.5,249.7 L 296.2,249.7 L 296.0,249.6 L 295.7,249.5 L 295.3,249.7 L 294.9,249.9 L 294.1,250.0 L 293.7,250.0 L 293.1,250.0 L 292.7,250.0 L 292.3,249.8 L 292.1,249.7 L 291.6,249.4 L 291.2,249.0 L 290.8,248.4 L 290.6,248.3 L 290.4,248.3 L 290.3,248.3 L 290.3,248.4 L 290.4,248.5 L 290.7,248.8 L 291.1,249.8 L 291.5,250.3 L 291.6,250.5 L 291.8,250.8 L 292.2,251.0 L 292.3,251.1 L 292.5,251.4 L 292.8,251.7 L 293.1,251.7 L 293.5,252.1 L 294.2,252.6 L 294.6,253.0 L 295.1,253.7 L 295.2,254.3 L 295.2,254.7 L 295.1,254.9 L 295.0,255.0 L 294.7,255.1 L 294.6,255.2 L 294.5,255.3 L 294.4,255.6 L 294.6,256.0 L 294.9,256.1 L 294.9,256.4 L 295.0,256.6 L 295.0,256.8 L 295.1,257.0 L 295.2,257.1 L 295.3,257.2 L 295.3,257.3 L 295.2,257.3 L 294.6,257.1 L 294.6,257.0 L 294.3,256.9 L 294.1,257.2 L 294.0,257.5 L 294.2,257.6 L 294.4,257.6 L 294.5,257.5 L 294.6,257.4 L 294.9,257.6 L 294.9,257.6 L 294.6,257.6 L 294.6,257.8 L 294.7,258.0 L 294.6,258.1 L 294.5,258.1 L 294.4,258.3 L 294.5,258.4 L 294.4,258.5 L 294.0,258.4 L 293.8,258.5 L 293.6,258.6 L 293.5,258.7 L 293.4,259.1 L 293.2,259.6 L 293.2,259.8 L 293.3,260.1 L 293.3,260.4 L 293.3,260.4 L 293.3,260.4 L 293.3,260.5 L 293.4,260.7 L 293.5,260.9 L 293.6,260.8 L 294.0,261.2 L 294.2,261.3 L 294.5,261.4 L 294.7,261.4 L 294.8,261.1 L 294.9,260.9 L 294.8,260.6 L 294.8,260.6 L 294.9,260.6 L 295.0,260.6 L 295.0,260.6 L 295.0,260.6 L 295.0,260.6 L 295.1,260.8 L 295.3,260.8 L 295.7,261.1 L 295.8,261.3 L 295.9,261.5 L 296.0,261.4 L 296.1,261.3 L 296.0,261.1 L 296.3,261.0 L 296.4,260.8 L 296.4,260.8 L 296.4,260.7 L 296.4,260.6 L 296.6,260.5 L 296.7,260.4 L 297.0,260.5 L 297.0,260.6 L 296.9,260.9 L 296.9,260.9 L 296.8,261.0 L 296.7,261.2 L 296.7,261.3 L 296.8,261.4 L 297.0,261.7 L 297.0,261.8 L 297.1,262.1 L 297.1,262.5 L 297.5,262.9 L 297.7,263.1 L 298.3,263.4 L 298.6,263.5 L 299.4,263.5 L 299.6,263.6 L 296.3,276.7 L 296.2,276.8 L 296.2,276.8 L 295.9,276.8 L 295.7,276.9 L 295.7,276.9 L 295.5,276.9 L 294.5,277.0 L 293.4,277.0 L 292.6,276.2 L 292.2,276.1 L 291.4,275.9 L 289.9,275.9 L 289.3,275.9 L 288.7,275.9 L 287.4,275.5 L 286.3,275.5 L 285.9,275.6 L 285.3,276.1 L 284.9,276.3 L 284.5,276.4 L 284.1,276.4 L 284.1,276.4 L 283.1,276.3 L 282.6,276.3 L 282.2,276.3 L 282.0,276.3 L 281.0,276.0 L 279.7,275.8 L 278.7,275.3 L 278.0,275.1 L 277.4,275.0 L 275.8,274.2 L 275.5,273.9 L 275.1,273.4 L 275.1,273.2 L 275.0,272.9 L 275.0,272.7 L 275.2,272.4 L 275.2,272.2 L 275.1,272.1 L 274.9,272.0 L 274.5,272.0 L 274.2,272.0 L 273.7,272.0 L 273.3,272.1 L 273.2,272.0 L 272.9,272.1 L 272.5,272.2 L 272.2,272.0 L 271.4,271.9 L 271.0,272.0 L 270.4,272.0 L 270.3,272.0 L 270.0,272.0 L 269.1,272.0 L 268.8,271.7 L 268.7,271.7 L 268.6,271.7 L 268.4,271.9 L 268.3,272.0 L 268.2,272.0 L 268.0,271.9 L 267.8,271.9 L 267.5,271.8 L 267.2,271.7 L 266.9,271.5 L 266.6,271.3 L 266.3,271.0 L 266.2,270.8 L 266.2,270.7 L 266.5,270.6 L 266.5,270.5 L 266.8,270.4 L 266.8,270.4 L 266.6,270.4 L 266.6,270.5 L 266.5,270.5 L 266.2,270.6 L 266.0,270.6 L 265.9,270.4 L 265.6,270.2 L 265.5,270.1 L 265.4,269.9 L 265.5,269.9 L 265.6,269.6 L 265.6,269.3 L 265.3,269.3 L 265.3,269.1 L 265.3,269.0 L 265.3,268.8 L 265.3,268.8 L 265.2,268.7 L 264.8,268.4 L 264.7,268.2 L 264.5,267.8 L 264.4,267.3 L 264.5,267.0 L 264.6,266.8 L 264.6,266.7 L 264.4,266.2 L 264.3,265.8 L 264.5,265.1 L 264.5,264.9 L 264.3,264.6 L 263.8,264.3 L 263.8,264.2 L 263.6,264.2 L 263.4,264.2 L 263.0,264.2 L 262.9,264.2 L 261.6,264.1 L 261.0,264.2 L 260.8,264.2 L 260.6,264.4 L 260.3,264.7 L 259.8,265.1 L 259.7,265.2 L 259.7,265.8 L 259.7,266.5 L 259.8,267.1 L 259.9,267.3 L 260.2,267.7 L 260.7,268.1 L 261.2,268.4 L 261.5,268.6 L 261.6,268.9 L 261.7,269.2 L 261.8,269.7 L 261.8,270.1 L 261.3,270.9 L 261.1,271.2 L 260.7,271.3 L 260.6,271.4 L 260.7,271.5 L 260.7,271.6 L 260.3,271.6 L 259.9,271.7 L 259.4,271.9 L 259.0,272.2 L 258.7,272.4 L 257.4,272.7 L 257.2,272.8 L 256.1,273.5 L 255.9,273.7 L 255.6,273.8 L 255.2,273.9 L 255.0,274.0 L 254.9,274.2 L 254.7,274.4 L 254.6,274.9 L 254.3,275.1 L 253.7,275.5 L 253.5,275.6 L 253.1,275.6 L 252.8,275.8 L 252.6,276.0 L 252.6,276.3 L 252.0,276.7 L 251.9,276.8 L 251.8,276.9 L 251.7,276.9 L 251.2,277.4 L 250.6,277.7 L 249.7,278.3 L 249.4,278.5 L 249.3,278.6 L 249.2,278.7 L 249.4,278.8 L 249.7,279.5 L 249.7,279.7 L 249.8,279.8 L 249.7,279.9 L 249.3,280.2 L 249.2,280.4 L 249.4,280.6 L 249.3,280.7 L 249.0,281.4 L 249.0,281.4 L 248.7,281.7 L 248.7,281.8 L 248.4,282.1 L 247.6,282.8 L 247.2,283.0 L 246.8,283.1 L 246.6,283.2 L 246.1,283.7 L 246.3,283.9 L 246.3,284.2 L 246.2,284.3 L 246.1,284.4 L 246.1,284.4 L 245.9,284.6 L 245.8,284.7 L 245.5,284.9 L 245.3,285.5 L 244.8,285.8 L 244.2,286.2 L 244.1,286.3 L 244.2,286.4 L 244.4,286.5 L 244.5,286.6 L 244.6,286.8 L 244.5,287.2 L 244.3,287.4 L 244.2,287.5 L 243.9,287.7 L 243.9,287.8 L 244.2,288.0 L 225.4,298.1 L 212.7,304.9 L 192.8,315.6 L 180.1,314.5 L 158.2,312.7 L 158.2,312.5 L 158.2,312.5 L 158.2,312.0 L 158.2,311.9 L 158.4,311.6 L 158.5,311.4 L 158.4,311.3 L 158.2,311.3 L 158.2,311.2 L 158.2,311.1 L 158.5,310.7 L 158.5,310.6 L 158.4,310.4 L 158.1,310.4 L 157.4,310.5 L 156.7,310.9 L 156.4,311.3 L 156.3,311.4 L 156.2,311.7 L 156.3,311.8 L 156.3,312.0 L 156.1,312.2 L 156.0,312.3 L 156.0,312.4 L 156.1,312.5 L 156.1,312.6 L 156.1,312.7 L 155.9,312.8 L 155.9,312.9 L 155.9,313.0 L 155.4,313.8 L 155.3,313.9 L 155.3,314.0 L 154.1,315.9 L 154.1,316.0 L 154.0,316.0 L 153.5,316.3 L 153.5,316.6 L 153.3,316.8 L 153.3,317.1 L 153.1,317.2 L 152.9,317.2 L 152.9,317.2 L 152.8,317.0 L 152.6,317.0 L 152.4,317.1 L 152.4,317.3 L 152.2,317.4 L 152.1,317.3 L 152.0,317.2 L 151.7,317.3 L 151.3,317.6 L 151.0,317.7 L 150.8,317.9 L 150.7,318.0 L 150.5,318.1 L 150.0,318.2 L 149.8,318.3 L 149.2,318.6 L 149.0,318.8 L 149.0,319.0 L 148.9,319.1 L 148.5,319.1 L 148.4,319.2 L 148.3,319.3 L 148.2,319.5 L 148.2,319.5 L 148.3,319.5 L 148.5,319.5 L 149.0,319.3 L 149.3,319.3 L 149.3,319.4 L 149.2,319.5 L 149.2,319.6 L 149.4,319.7 L 149.4,319.7 L 149.1,319.9 L 149.1,319.9 L 149.0,319.9 L 148.8,320.1 L 148.6,320.2 L 148.3,320.2 L 148.3,320.2 L 148.0,320.2 L 147.7,320.3 L 147.7,320.4 L 148.0,320.5 L 148.0,320.6 L 148.0,320.6 L 147.8,320.7 L 147.7,320.8 L 147.7,320.9 L 147.5,320.9 L 145.7,321.5 L 145.7,321.5 L 145.7,321.6 L 134.8,325.2 L 119.9,330.2 L 119.8,330.2 L 119.8,330.2 L 119.6,330.2 L 119.5,330.3 L 119.4,330.4 L 119.2,330.7 L 118.9,330.6 L 118.8,330.6 L 118.6,330.9 L 118.5,331.2 L 118.5,331.2 L 118.3,331.3 L 116.8,332.2 L 116.8,332.1 L 116.6,332.2 L 116.6,332.3 L 110.4,335.8 L 110.3,335.8 L 110.1,336.0 L 110.1,336.0 L 109.3,336.4 L 109.3,336.4 L 109.4,336.3 L 109.3,336.0 L 109.3,336.0 L 109.0,336.0 L 108.8,336.0 L 108.5,336.2 L 108.3,336.6 L 108.2,336.9 L 108.2,336.9 L 108.2,337.0 L 108.0,337.0 L 108.0,336.9 L 107.9,336.9 L 107.9,336.8 L 107.9,336.8 L 107.9,336.6 L 107.7,336.3 L 107.4,336.2 L 107.2,335.8 L 107.0,335.7 L 107.0,335.4 L 106.3,335.0 L 106.0,334.8 L 106.0,334.6 L 106.1,334.0 L 106.2,334.0 L 106.5,333.9 L 106.6,333.7 L 106.8,333.7 L 106.9,333.6 L 106.8,333.5 L 106.6,333.5 L 106.6,333.3 L 107.0,333.1 L 107.0,332.8 L 106.9,332.7 L 106.7,332.6 L 106.0,332.6 L 106.0,332.5 L 106.4,332.2 L 106.4,331.8 L 106.6,331.5 L 107.4,330.9 L 107.4,330.8 L 107.3,330.8 L 107.5,330.5 L 107.4,330.4 L 107.1,330.3 L 107.1,330.1 L 107.3,329.9 L 108.0,329.4 L 107.9,329.2 L 108.5,328.7 L 108.6,328.5 L 108.6,328.5 L 108.5,328.4 L 108.3,328.5 L 108.1,328.6 L 107.9,328.6 L 107.8,328.6 L 107.7,328.8 L 107.6,328.9 L 107.5,329.0 L 107.2,328.8 L 107.1,328.8 L 107.0,328.9 L 106.8,328.9 L 106.7,328.8 L 106.7,328.8 L 106.6,328.9 L 106.5,329.0 L 106.2,329.1 L 105.9,329.3 L 105.9,329.4 L 105.5,329.5 L 105.3,329.6 L 105.3,329.5 L 105.4,329.2 L 105.2,329.0 L 105.3,328.8 L 105.0,328.7 L 105.0,328.6 L 105.5,328.2 L 105.5,328.1 L 105.4,328.0 L 104.8,328.5 L 104.3,328.8 L 104.1,328.9 L 104.0,329.2 L 104.1,329.2 L 104.4,329.1 L 104.5,329.1 L 104.5,329.2 L 104.3,329.4 L 104.3,329.6 L 104.3,329.8 L 104.3,329.9 L 104.1,330.4 L 103.9,330.7 L 103.7,330.8 L 103.6,330.8 L 103.4,330.8 L 103.3,330.6 L 103.2,330.2 L 103.1,330.0 L 103.2,329.8 L 103.2,329.7 L 103.2,329.6 L 102.9,329.7 L 102.8,329.8 L 102.7,330.2 L 102.5,330.1 L 102.4,330.2 L 102.4,330.7 L 102.2,330.8 L 102.0,331.0 L 102.0,331.3 L 101.7,331.6 L 101.3,332.0 L 101.1,332.0 L 100.8,332.2 L 100.6,332.4 L 100.4,332.4 L 99.9,332.4 L 99.5,332.5 L 99.1,332.5 L 98.5,332.3 L 97.6,332.1 L 97.3,331.9 L 97.3,331.9 L 96.7,331.7 L 96.2,331.3 L 95.9,331.2 L 95.8,331.1 L 95.4,331.0 L 95.3,330.9 L 95.1,330.7 L 95.1,330.4 L 95.0,330.3 L 94.7,330.4 L 94.2,330.3 L 93.9,330.2 L 93.6,329.8 L 93.3,329.5 L 93.0,329.4 L 92.6,329.3 L 92.2,329.0 L 92.0,328.8 L 91.6,328.8 L 91.3,328.6 L 91.1,328.4 L 91.0,328.3 L 90.7,327.5 L 90.7,327.3 L 90.7,327.3 L 90.6,326.9 L 90.6,326.6 L 90.4,326.4 L 90.1,326.0 L 89.6,325.7 L 89.3,325.5 L 89.0,325.0 L 88.6,324.5 L 88.6,324.5 L 88.6,324.3 L 88.5,324.0 L 88.2,323.6 L 88.1,323.5 L 88.1,323.3 L 88.2,322.5 L 88.2,322.3 L 88.1,322.3 L 88.0,322.2 L 88.0,321.9 L 87.8,321.8 L 87.8,321.6 L 87.3,321.2 L 87.3,321.1 L 87.0,321.0 L 86.5,320.6 L 86.2,320.4 L 85.9,320.4 L 85.7,320.4 L 84.5,320.4 L 84.1,320.5 L 84.1,320.4 L 84.2,320.2 L 84.1,320.2 L 83.7,320.3 L 83.3,320.5 L 83.3,320.4 L 83.1,320.5 L 82.9,320.4 L 82.5,320.5 L 82.3,320.5 L 82.2,320.6 L 81.8,320.5 L 81.6,320.6 L 81.5,320.6 L 81.5,320.5 L 81.4,320.4 L 80.9,320.3 L 80.7,320.4 L 80.6,320.4 L 80.5,320.3 L 80.5,320.1 L 80.4,320.0 L 80.2,320.2 L 80.0,320.0 L 79.9,320.0 L 79.5,320.0 L 79.5,319.8 L 79.3,319.7 L 78.9,319.7 L 78.7,319.7 L 78.6,319.6 L 78.4,319.3 L 78.3,319.2 L 78.3,319.0 L 78.1,318.9 L 78.1,318.8 L 78.1,318.6 L 78.0,318.5 L 77.7,318.5 L 77.5,318.3 L 77.1,318.3 L 77.1,318.0 L 76.9,317.9 L 76.6,317.8 L 76.6,317.7 L 76.6,317.6 L 76.4,317.4 L 76.2,317.2 L 76.2,316.9 L 75.9,316.8 L 75.8,316.6 L 75.7,316.0 L 75.5,315.7 L 75.8,315.4 L 76.0,315.3 L 76.0,315.1 L 76.0,315.1 L 75.8,315.1 L 75.6,315.2 L 74.8,315.5 L 74.6,315.6 L 74.6,315.5 L 66.1,304.9 L 44.3,277.6 L 40.0,272.3 L 44.3,268.9 L 56.1,259.6 L 89.6,233.2 L 92.3,231.1 L 93.2,230.3" fill="none" stroke="black" stroke-width="2"/>
</svg>