<?xml version="1.0" encoding="UTF-8"?>
<svg width="400" height="400" viewBox="0 0 400 400" xmlns="http://www.w3.org/2000/svg">
  <rect width="400" height="400" fill="white"/>
  <path d="M 76.4,272.1 L 40.3,168.2 L 40.0,167.5 L 40.6,167.9 L 41.2,167.9 L 42.1,167.7 L 43.7,167.6 L 45.8,167.3 L 47.7,166.6 L 48.3,166.4 L 49.5,165.9 L 50.6,165.8 L 51.7,165.3 L 52.3,165.5 L 54.6,164.7 L 56.2,164.4 L 56.6,164.5 L 56.8,164.9 L 57.5,165.3 L 58.3,165.1 L 59.0,164.6 L 59.1,164.2 L 59.5,163.7 L 59.7,163.3 L 61.5,162.5 L 63.9,162.4 L 65.1,162.2 L 65.7,162.0 L 65.7,162.0 L 65.9,162.1 L 66.1,162.2 L 66.8,162.2 L 68.6,161.4 L 69.0,161.3 L 69.6,161.6 L 70.0,161.6 L 70.9,161.2 L 71.1,161.0 L 71.2,160.8 L 73.5,160.3 L 76.7,159.4 L 79.2,158.4 L 81.3,158.5 L 82.6,157.8 L 83.3,157.5 L 84.1,156.9 L 85.2,156.4 L 88.1,156.1 L 89.5,155.8 L 90.6,155.3 L 92.2,155.5 L 95.2,154.8 L 95.4,154.3 L 96.5,154.4 L 98.0,153.8 L 98.9,153.2 L 99.6,152.9 L 100.7,153.0 L 101.1,153.1 L 102.0,153.1 L 102.7,152.9 L 103.1,152.3 L 104.9,152.5 L 105.7,152.0 L 108.1,151.6 L 108.4,151.7 L 108.8,151.7 L 109.1,151.9 L 109.1,152.4 L 108.5,152.6 L 108.4,153.0 L 108.8,153.2 L 109.5,153.2 L 109.5,153.1 L 109.9,153.0 L 110.1,153.2 L 110.8,153.2 L 111.4,152.8 L 112.9,152.7 L 113.5,152.2 L 114.1,152.1 L 115.4,151.1 L 116.1,151.2 L 116.6,151.6 L 117.0,151.5 L 117.9,151.0 L 118.9,150.9 L 120.9,151.2 L 121.4,151.0 L 121.7,151.3 L 122.3,151.0 L 122.7,151.0 L 123.0,151.3 L 123.1,151.9 L 123.0,152.4 L 122.9,152.9 L 123.9,152.9 L 125.6,152.5 L 126.7,152.5 L 128.2,152.2 L 128.8,152.2 L 131.6,151.3 L 134.3,150.6 L 136.0,150.0 L 137.8,149.5 L 138.8,149.4 L 140.0,149.5 L 140.9,149.1 L 141.4,148.4 L 142.1,148.0 L 142.8,147.9 L 144.3,147.4 L 145.5,147.0 L 146.2,146.9 L 147.9,147.1 L 149.6,146.8 L 151.4,146.3 L 151.7,146.0 L 151.8,145.7 L 154.5,144.7 L 155.6,144.4 L 156.8,143.4 L 157.8,143.2 L 159.8,142.2 L 160.7,141.5 L 161.3,141.3 L 161.9,140.8 L 161.5,140.3 L 161.7,139.7 L 163.3,138.6 L 164.5,138.2 L 168.3,136.6 L 169.6,135.3 L 170.1,134.9 L 172.4,134.3 L 174.2,133.9 L 174.7,133.5 L 174.9,133.2 L 175.4,132.7 L 176.3,132.4 L 177.7,131.3 L 178.6,130.5 L 178.9,130.1 L 180.0,130.0 L 180.5,130.0 L 183.0,129.4 L 184.3,128.8 L 186.2,128.4 L 190.9,127.0 L 191.5,127.2 L 192.2,127.5 L 193.1,127.6 L 194.3,127.1 L 194.7,126.8 L 195.2,126.4 L 196.0,126.2 L 196.7,126.1 L 198.0,125.8 L 199.3,125.8 L 200.6,126.1 L 201.4,126.5 L 202.0,127.5 L 201.9,128.0 L 202.0,128.5 L 202.0,129.2 L 202.6,129.6 L 203.4,129.7 L 203.8,130.0 L 204.4,130.0 L 205.1,129.8 L 205.1,129.3 L 205.4,129.1 L 206.0,129.3 L 206.6,129.6 L 207.5,129.1 L 209.2,128.8 L 212.0,128.1 L 213.8,127.4 L 217.2,126.5 L 218.7,126.6 L 222.6,125.7 L 223.7,125.7 L 224.0,125.6 L 224.9,125.4 L 225.9,125.1 L 226.6,125.0 L 228.2,125.1 L 229.6,124.3 L 234.8,123.6 L 235.8,123.2 L 238.0,122.1 L 239.0,121.5 L 239.9,120.6 L 241.8,119.8 L 243.2,119.5 L 245.2,119.7 L 245.7,119.5 L 246.6,118.8 L 247.4,118.7 L 248.3,118.4 L 248.5,118.4 L 254.1,118.9 L 275.6,120.7 L 286.2,121.6 L 286.2,121.7 L 287.7,121.8 L 288.9,121.8 L 289.1,121.6 L 291.6,121.5 L 292.0,121.6 L 292.0,121.8 L 292.9,122.1 L 293.8,122.1 L 294.7,121.7 L 295.6,121.6 L 296.8,122.0 L 297.4,121.9 L 298.6,122.1 L 299.6,122.4 L 301.6,122.6 L 303.1,122.3 L 304.0,122.4 L 304.5,122.0 L 306.2,122.0 L 307.5,122.5 L 308.7,123.0 L 309.5,123.8 L 310.1,124.9 L 310.0,125.8 L 308.6,127.2 L 308.8,127.3 L 310.7,126.6 L 311.4,126.6 L 311.9,126.8 L 312.5,126.9 L 313.6,126.9 L 314.2,127.2 L 315.0,127.4 L 315.6,127.7 L 316.8,127.7 L 317.4,127.4 L 318.4,127.5 L 318.6,127.3 L 319.1,127.3 L 320.2,127.2 L 321.4,127.2 L 322.0,127.3 L 322.4,127.2 L 323.2,127.2 L 323.7,126.8 L 326.1,126.8 L 326.7,126.9 L 328.3,126.9 L 329.2,126.6 L 330.4,127.0 L 332.8,127.3 L 333.0,127.8 L 331.9,128.0 L 331.0,128.7 L 330.1,128.8 L 329.8,129.1 L 330.3,129.1 L 330.4,128.9 L 330.8,129.0 L 331.7,128.9 L 333.2,128.4 L 333.9,128.4 L 335.1,127.9 L 335.8,127.7 L 336.0,127.9 L 336.6,128.0 L 337.1,127.9 L 337.4,128.1 L 337.2,128.3 L 336.5,128.7 L 336.2,129.1 L 336.5,129.3 L 337.1,129.3 L 338.1,128.9 L 339.0,128.8 L 339.7,128.4 L 341.1,128.4 L 341.3,128.3 L 341.4,127.6 L 341.7,127.4 L 342.1,127.5 L 342.8,127.6 L 343.1,127.4 L 343.9,127.5 L 344.5,127.9 L 345.4,128.8 L 345.7,128.8 L 345.9,128.9 L 346.4,128.7 L 347.5,129.3 L 347.5,129.6 L 347.1,130.6 L 347.5,131.1 L 348.1,131.1 L 348.5,130.7 L 348.9,130.7 L 349.4,131.1 L 349.5,131.3 L 349.4,131.7 L 348.6,132.7 L 347.5,133.6 L 346.2,134.2 L 345.3,134.7 L 345.3,135.1 L 346.1,135.2 L 347.5,135.1 L 349.4,135.3 L 350.2,135.8 L 351.0,135.9 L 351.6,135.7 L 352.0,135.7 L 353.1,136.2 L 353.7,136.9 L 354.0,138.0 L 353.9,138.7 L 353.6,139.1 L 352.7,139.4 L 352.4,139.8 L 351.7,140.4 L 348.9,141.1 L 347.7,142.3 L 346.6,143.0 L 345.3,143.4 L 344.5,143.8 L 343.9,144.0 L 343.5,144.1 L 343.2,144.4 L 343.0,144.5 L 341.9,145.0 L 340.9,145.5 L 340.4,145.6 L 339.9,145.8 L 337.9,146.7 L 336.3,147.6 L 335.3,147.9 L 334.2,148.3 L 333.1,148.9 L 332.1,149.9 L 330.6,150.5 L 329.7,150.7 L 328.3,150.7 L 323.8,152.3 L 322.5,152.7 L 321.5,153.0 L 319.7,153.3 L 318.9,153.6 L 317.8,153.9 L 316.3,154.3 L 315.6,154.6 L 314.5,155.0 L 314.4,155.3 L 313.3,156.6 L 313.2,157.0 L 313.3,158.1 L 313.7,158.4 L 314.4,158.4 L 315.2,158.1 L 318.5,157.9 L 320.7,158.7 L 321.2,158.7 L 322.8,158.2 L 324.9,158.3 L 325.7,157.8 L 326.3,157.7 L 327.9,158.0 L 328.7,157.7 L 329.2,158.0 L 330.3,158.1 L 331.3,158.5 L 332.2,159.1 L 333.5,159.2 L 334.1,159.1 L 338.4,159.2 L 339.0,158.9 L 340.3,159.1 L 341.1,159.3 L 341.7,159.3 L 342.2,159.0 L 342.7,158.4 L 344.3,157.3 L 344.5,156.7 L 344.8,156.5 L 345.4,156.7 L 345.9,156.4 L 346.1,156.0 L 346.9,155.8 L 347.3,155.9 L 347.4,156.3 L 348.4,156.6 L 348.9,157.4 L 349.9,159.2 L 349.9,160.3 L 349.2,162.1 L 347.5,163.0 L 346.7,163.4 L 346.0,163.8 L 345.4,163.8 L 344.4,164.9 L 343.6,165.3 L 342.1,165.6 L 341.4,165.9 L 341.2,166.1 L 341.0,166.5 L 341.3,166.9 L 341.4,167.7 L 342.1,168.0 L 341.0,168.9 L 340.7,169.1 L 339.8,169.1 L 339.4,169.3 L 339.4,169.6 L 340.1,169.8 L 340.0,170.3 L 340.2,170.6 L 340.8,170.7 L 342.0,170.8 L 343.1,170.3 L 344.1,169.8 L 345.2,169.2 L 345.4,168.5 L 345.7,168.3 L 346.2,168.2 L 347.0,168.4 L 347.6,168.1 L 348.3,168.3 L 349.2,168.7 L 351.5,168.9 L 352.7,168.8 L 354.2,168.4 L 354.8,168.4 L 354.8,168.6 L 353.5,169.7 L 352.7,169.9 L 351.2,169.9 L 350.9,170.5 L 350.4,170.8 L 349.6,171.0 L 348.7,171.0 L 347.8,169.8 L 347.6,169.6 L 347.5,170.4 L 348.1,170.9 L 348.4,171.3 L 347.6,171.9 L 347.6,172.1 L 350.0,172.4 L 350.8,172.2 L 351.7,172.9 L 352.2,172.8 L 352.9,172.2 L 353.3,172.1 L 354.6,173.1 L 354.9,173.1 L 355.3,172.8 L 355.7,172.7 L 356.6,172.7 L 357.6,172.4 L 358.6,172.7 L 359.3,172.6 L 359.7,172.9 L 360.0,173.5 L 360.0,174.1 L 359.2,174.8 L 358.5,175.8 L 357.2,176.7 L 355.2,177.8 L 355.0,177.9 L 353.7,178.1 L 353.4,178.2 L 351.6,178.7 L 351.4,179.0 L 350.3,179.7 L 349.0,180.1 L 348.1,180.9 L 347.1,181.3 L 345.6,181.6 L 343.1,181.6 L 342.9,181.5 L 341.9,181.5 L 341.1,181.8 L 339.5,181.8 L 338.6,181.9 L 337.5,182.1 L 336.8,182.4 L 335.4,183.2 L 334.8,184.1 L 334.9,184.7 L 335.5,185.1 L 336.5,185.1 L 337.0,185.0 L 337.8,185.1 L 337.8,185.5 L 337.5,185.9 L 337.2,186.1 L 338.4,186.1 L 338.7,186.2 L 338.8,186.7 L 339.0,186.6 L 339.7,186.1 L 340.5,186.2 L 340.7,186.5 L 340.5,187.3 L 339.8,187.8 L 338.8,188.3 L 337.3,189.6 L 336.3,189.6 L 335.6,189.9 L 335.6,190.3 L 337.0,190.1 L 337.8,190.0 L 338.6,189.6 L 339.7,189.1 L 340.6,189.1 L 342.8,188.4 L 343.9,188.2 L 345.2,188.3 L 346.1,188.1 L 347.3,188.2 L 350.4,187.9 L 350.9,188.4 L 351.4,188.3 L 353.0,188.6 L 353.5,188.6 L 353.4,189.0 L 352.6,189.6 L 352.4,189.7 L 352.1,189.9 L 352.2,190.2 L 353.9,190.2 L 354.0,190.3 L 354.0,190.5 L 353.3,190.9 L 353.2,191.3 L 352.6,191.8 L 351.7,192.2 L 350.8,193.2 L 349.8,194.6 L 348.1,196.4 L 345.4,198.9 L 344.0,199.8 L 343.5,200.0 L 341.6,200.5 L 340.1,201.0 L 338.4,201.5 L 337.2,202.0 L 336.7,202.4 L 335.5,202.6 L 328.7,205.8 L 326.4,206.7 L 324.5,207.3 L 323.2,207.8 L 322.0,207.9 L 321.1,207.8 L 319.9,207.2 L 319.8,206.7 L 319.3,206.4 L 317.5,206.2 L 316.4,205.8 L 316.1,205.5 L 316.2,205.2 L 316.8,204.8 L 317.2,204.4 L 317.1,204.1 L 316.7,204.2 L 315.9,204.1 L 314.1,204.5 L 311.7,205.0 L 309.8,204.9 L 308.7,204.2 L 306.9,203.5 L 306.4,203.2 L 305.9,203.2 L 304.5,202.4 L 303.8,202.0 L 302.7,201.7 L 302.1,201.1 L 301.6,200.9 L 301.3,200.6 L 301.3,199.7 L 301.1,199.1 L 300.7,198.9 L 300.7,198.4 L 301.5,197.8 L 301.5,197.0 L 302.1,196.8 L 301.8,196.6 L 301.5,196.8 L 300.8,196.7 L 300.5,197.0 L 299.8,197.2 L 298.9,197.2 L 298.4,196.6 L 297.6,196.5 L 297.2,196.9 L 296.0,197.6 L 293.5,197.3 L 292.0,197.3 L 291.3,197.8 L 291.1,198.1 L 290.5,198.4 L 290.3,198.7 L 290.6,198.8 L 290.8,199.1 L 290.1,199.4 L 286.5,200.4 L 285.4,200.4 L 283.4,201.5 L 281.8,202.7 L 279.8,203.5 L 279.7,204.0 L 278.9,204.1 L 278.8,204.4 L 279.3,204.6 L 279.5,204.9 L 278.6,205.5 L 278.2,205.5 L 278.0,205.1 L 277.8,204.8 L 276.4,204.7 L 275.9,204.8 L 275.0,205.5 L 274.8,205.8 L 273.7,206.7 L 273.2,206.7 L 273.2,206.6 L 273.1,205.6 L 272.5,205.5 L 271.4,205.6 L 271.1,205.7 L 271.1,206.1 L 270.9,206.6 L 270.1,207.3 L 269.8,207.3 L 269.8,207.3 L 269.5,207.0 L 268.6,206.9 L 267.5,207.4 L 267.3,207.3 L 266.7,206.6 L 265.3,206.1 L 264.2,206.6 L 262.8,206.5 L 262.5,206.8 L 262.6,207.2 L 261.9,207.9 L 261.2,208.2 L 260.8,208.6 L 260.0,208.8 L 260.0,209.1 L 260.4,209.3 L 261.3,209.2 L 261.7,209.2 L 261.7,209.7 L 261.1,210.4 L 260.6,210.7 L 256.6,211.6 L 254.6,212.6 L 254.0,213.2 L 253.3,213.9 L 251.3,214.0 L 250.5,214.9 L 250.6,215.1 L 251.5,215.1 L 252.2,216.0 L 252.8,216.4 L 252.7,217.3 L 252.3,218.2 L 251.5,219.0 L 250.7,219.4 L 249.8,219.5 L 249.4,220.0 L 249.3,220.2 L 249.0,220.4 L 248.4,220.4 L 248.2,220.8 L 247.0,221.5 L 246.9,221.8 L 246.2,221.9 L 245.2,223.2 L 244.5,223.8 L 244.1,224.0 L 242.7,223.9 L 239.8,223.5 L 238.1,223.2 L 237.6,223.5 L 237.1,225.0 L 237.6,225.7 L 238.1,225.8 L 239.6,225.9 L 239.8,226.2 L 173.4,281.4 L 173.1,281.6 L 172.9,281.3 L 173.0,281.1 L 173.2,280.9 L 172.9,280.7 L 172.6,280.6 L 172.0,279.9 L 171.6,279.8 L 171.5,280.1 L 170.8,280.2 L 169.0,278.8 L 168.3,277.8 L 168.0,276.5 L 168.0,276.0 L 166.4,274.3 L 165.3,273.6 L 164.0,273.1 L 162.5,272.1 L 160.8,270.3 L 159.9,269.8 L 158.3,268.3 L 157.8,268.1 L 157.6,267.8 L 157.3,267.7 L 156.8,267.8 L 156.0,268.1 L 154.9,268.3 L 153.3,268.3 L 150.9,267.2 L 148.4,265.6 L 147.3,265.0 L 144.7,264.3 L 142.4,262.6 L 142.0,262.3 L 141.3,262.4 L 140.4,261.8 L 140.4,261.4 L 139.1,261.3 L 138.4,261.5 L 137.5,261.6 L 136.4,261.4 L 135.7,261.5 L 133.7,262.1 L 133.0,262.1 L 132.3,261.6 L 131.8,261.7 L 130.8,261.7 L 129.9,261.9 L 128.5,261.8 L 128.1,261.6 L 127.3,261.5 L 125.8,260.8 L 125.4,260.3 L 124.7,260.1 L 123.9,259.8 L 123.3,259.0 L 123.2,258.7 L 122.5,258.4 L 121.4,257.5 L 119.8,257.4 L 118.8,257.7 L 117.9,257.6 L 116.8,257.9 L 116.1,258.0 L 116.0,258.2 L 116.1,258.9 L 116.6,259.6 L 117.3,259.8 L 118.1,260.1 L 118.3,261.0 L 117.5,263.8 L 117.2,264.6 L 116.7,265.0 L 115.5,265.1 L 113.9,265.6 L 113.1,265.6 L 112.9,265.8 L 113.0,266.0 L 112.2,266.5 L 111.9,266.6 L 111.7,267.1 L 111.4,267.2 L 110.9,267.7 L 109.9,268.5 L 109.8,269.0 L 109.4,269.3 L 108.8,269.3 L 108.3,268.9 L 107.8,269.0 L 106.3,269.2 L 106.0,269.4 L 105.3,269.4 L 104.6,269.1 L 103.7,269.3 L 103.3,269.0 L 101.9,269.3 L 100.1,269.9 L 99.3,269.8 L 98.6,269.5 L 98.5,269.5 L 97.8,269.4 L 97.2,268.9 L 96.7,269.0 L 96.3,268.8 L 95.3,269.0 L 93.2,269.8 L 91.9,269.8 L 89.4,270.8 L 87.3,271.6 L 86.5,271.8 L 85.2,272.1 L 84.4,272.5 L 83.1,272.6 L 82.9,272.2 L 82.6,272.1 L 80.5,272.8 L 79.9,272.8 L 78.8,272.2 L 78.3,272.1 L 77.4,272.2 L 77.2,271.9 L 76.8,271.9 L 76.4,272.1" fill="none" stroke="black" stroke-width="2"/>
</svg>