<?xml version="1.0" encoding="UTF-8"?>
<svg width="400" height="400" viewBox="0 0 400 400" xmlns="http://www.w3.org/2000/svg">
  <rect width="400" height="400" fill="white"/>
  <path d="M 43.6,212.0 L 43.8,211.9 L 44.2,211.0 L 44.5,210.9 L 45.0,210.8 L 45.0,211.0 L 45.2,211.0 L 45.5,211.1 L 45.5,210.8 L 46.2,211.1 L 46.3,211.0 L 45.6,210.7 L 46.0,210.7 L 46.5,210.6 L 47.3,210.4 L 47.8,210.3 L 48.3,210.2 L 49.0,210.0 L 49.2,210.0 L 49.3,210.1 L 49.5,210.1 L 50.2,209.9 L 50.4,209.7 L 51.1,209.7 L 51.6,209.4 L 51.9,209.3 L 52.5,209.3 L 53.3,208.9 L 54.6,208.4 L 55.6,207.8 L 55.7,207.7 L 56.1,207.5 L 56.9,207.1 L 57.7,206.9 L 59.4,206.2 L 61.4,205.5 L 62.6,205.2 L 64.7,204.5 L 66.4,203.4 L 66.9,203.1 L 67.3,202.7 L 68.2,202.6 L 68.9,202.0 L 69.3,201.9 L 69.6,201.6 L 70.0,201.4 L 70.5,200.9 L 70.9,200.8 L 71.2,200.9 L 71.4,200.7 L 71.5,200.4 L 71.7,200.2 L 71.6,199.6 L 71.6,199.4 L 71.8,199.3 L 71.8,199.3 L 72.7,199.1 L 72.8,199.3 L 73.1,199.8 L 73.3,200.0 L 73.8,200.0 L 74.0,199.9 L 74.1,199.6 L 74.4,199.5 L 74.6,199.6 L 74.6,199.6 L 74.8,199.9 L 74.8,200.3 L 75.0,200.4 L 75.5,200.5 L 76.0,200.2 L 76.1,200.3 L 76.6,200.4 L 77.1,200.1 L 77.5,199.8 L 77.8,200.0 L 78.2,199.8 L 78.3,199.7 L 78.5,198.8 L 78.5,198.7 L 78.8,199.0 L 78.9,199.1 L 79.5,199.1 L 79.5,199.3 L 79.4,199.8 L 79.5,199.8 L 79.9,199.8 L 80.0,199.8 L 80.2,199.5 L 80.5,199.4 L 80.8,199.6 L 81.0,199.4 L 81.4,199.3 L 81.6,199.1 L 81.8,199.2 L 82.2,199.5 L 82.6,199.5 L 83.0,199.4 L 83.1,199.6 L 83.7,200.3 L 84.0,200.7 L 84.3,201.4 L 84.3,201.7 L 84.3,202.1 L 84.6,202.5 L 84.8,202.8 L 85.3,202.9 L 85.5,202.8 L 85.6,202.9 L 85.5,203.2 L 85.1,203.4 L 85.1,203.5 L 85.2,203.6 L 85.4,203.6 L 85.6,203.4 L 86.1,203.4 L 86.2,203.2 L 86.5,203.0 L 86.9,203.0 L 87.8,203.1 L 88.7,202.8 L 89.3,202.5 L 89.7,202.2 L 92.6,200.9 L 93.0,200.7 L 94.1,200.1 L 95.9,199.6 L 97.1,199.2 L 98.7,198.4 L 99.7,197.7 L 101.2,196.9 L 101.7,196.5 L 102.1,196.4 L 102.2,195.9 L 102.1,195.6 L 102.2,195.1 L 102.2,195.1 L 103.3,195.6 L 103.8,195.6 L 104.8,195.3 L 105.4,195.1 L 105.4,195.1 L 106.5,194.7 L 106.9,194.8 L 107.5,195.1 L 108.3,195.3 L 108.3,195.3 L 108.7,195.6 L 109.3,195.9 L 110.7,196.7 L 111.9,196.9 L 112.5,196.9 L 113.7,196.8 L 113.9,196.8 L 114.4,196.9 L 114.9,197.2 L 115.6,197.4 L 116.0,197.5 L 116.4,197.4 L 116.9,197.2 L 117.7,196.9 L 118.6,197.0 L 119.3,197.5 L 119.7,198.0 L 119.9,198.5 L 120.1,198.4 L 120.3,198.4 L 120.9,198.4 L 121.7,198.4 L 122.5,198.1 L 123.3,197.9 L 124.0,197.8 L 125.0,197.5 L 126.4,197.2 L 126.9,197.1 L 127.7,196.9 L 129.9,196.8 L 130.7,196.6 L 131.8,196.1 L 132.4,196.1 L 132.9,196.0 L 133.6,195.8 L 133.8,195.8 L 134.2,195.6 L 135.4,195.4 L 135.8,195.5 L 136.2,195.5 L 137.0,195.1 L 137.8,194.7 L 138.8,194.4 L 140.2,193.7 L 140.7,193.2 L 141.9,192.3 L 142.2,192.1 L 143.0,191.2 L 143.3,190.8 L 143.4,190.5 L 143.4,190.2 L 143.3,189.8 L 143.2,189.0 L 143.2,188.9 L 143.2,188.9 L 143.3,188.7 L 143.3,188.4 L 143.3,188.2 L 143.5,188.2 L 143.5,188.1 L 143.3,188.1 L 143.3,188.0 L 143.3,187.9 L 143.3,187.7 L 143.0,187.8 L 142.6,186.9 L 142.5,186.2 L 142.5,185.9 L 142.4,185.5 L 142.4,185.2 L 142.3,185.0 L 142.4,184.3 L 142.2,183.7 L 142.1,183.5 L 142.4,183.2 L 142.4,182.7 L 142.4,182.5 L 142.7,182.1 L 142.8,181.4 L 142.4,180.7 L 142.5,180.0 L 142.6,179.8 L 142.2,179.5 L 142.0,179.2 L 142.1,178.5 L 141.9,178.3 L 142.0,178.3 L 145.3,177.9 L 145.3,178.1 L 145.4,178.1 L 145.4,178.3 L 145.9,179.5 L 146.1,179.5 L 146.4,178.9 L 146.4,178.8 L 146.3,178.6 L 146.6,178.4 L 147.2,178.5 L 147.4,178.9 L 147.5,179.2 L 147.8,179.2 L 147.9,178.7 L 148.1,178.7 L 148.4,179.2 L 148.6,179.3 L 148.9,179.8 L 148.9,180.2 L 149.1,180.3 L 149.1,180.5 L 149.4,180.8 L 149.3,181.0 L 149.3,181.2 L 149.6,181.4 L 149.5,181.6 L 149.6,181.8 L 150.0,181.9 L 150.6,182.0 L 150.7,182.2 L 151.0,182.3 L 151.4,182.3 L 152.0,182.5 L 152.4,182.6 L 152.7,183.0 L 152.8,183.3 L 152.8,183.6 L 152.9,183.7 L 153.0,183.8 L 153.5,183.8 L 153.7,183.9 L 153.6,184.2 L 153.8,184.3 L 153.9,184.3 L 154.3,184.8 L 154.9,185.5 L 154.9,185.8 L 155.1,185.9 L 155.2,186.1 L 155.2,186.4 L 155.3,186.7 L 155.2,187.1 L 155.3,187.2 L 155.2,187.5 L 155.0,188.0 L 154.6,188.6 L 154.3,188.8 L 153.4,189.0 L 153.3,189.0 L 152.9,189.1 L 152.2,189.5 L 152.0,189.7 L 151.4,190.1 L 151.3,190.2 L 150.8,190.3 L 150.2,190.4 L 150.0,190.5 L 149.9,190.7 L 150.0,191.0 L 150.2,191.1 L 150.5,191.0 L 150.8,191.1 L 151.2,191.0 L 151.6,191.1 L 152.2,191.2 L 152.7,191.2 L 152.8,191.4 L 152.7,191.7 L 152.6,191.9 L 152.2,192.1 L 151.5,192.2 L 150.3,192.6 L 150.2,192.7 L 150.0,192.9 L 150.1,193.2 L 150.1,193.4 L 150.2,193.5 L 150.0,193.7 L 149.9,194.1 L 150.0,194.2 L 150.1,194.2 L 150.4,193.9 L 150.5,193.7 L 150.8,193.5 L 151.0,193.5 L 151.2,193.5 L 151.6,193.4 L 151.7,193.6 L 152.1,193.5 L 152.8,193.2 L 152.9,193.4 L 153.3,193.9 L 153.4,194.1 L 153.6,194.0 L 153.7,193.7 L 154.0,193.4 L 154.9,193.2 L 155.1,193.2 L 155.3,193.1 L 155.6,193.1 L 155.9,193.0 L 156.2,193.0 L 156.4,193.2 L 156.8,193.0 L 157.1,193.0 L 157.7,192.8 L 158.1,192.8 L 158.5,192.6 L 159.1,192.2 L 160.0,191.8 L 160.7,191.3 L 160.9,191.0 L 160.8,190.8 L 161.0,190.5 L 161.8,190.1 L 162.0,189.9 L 162.3,189.5 L 162.6,189.2 L 163.0,188.9 L 163.3,188.5 L 163.8,188.1 L 164.1,188.0 L 164.2,188.0 L 164.6,188.1 L 164.9,188.4 L 165.5,188.3 L 165.8,188.1 L 165.8,187.8 L 166.0,187.8 L 166.1,187.7 L 167.0,187.6 L 167.3,187.8 L 167.7,188.1 L 167.6,189.3 L 167.6,189.4 L 168.0,189.3 L 169.4,188.8 L 169.8,188.8 L 171.8,188.2 L 174.3,187.6 L 174.9,187.3 L 175.7,187.0 L 176.4,187.0 L 176.9,186.8 L 177.2,186.5 L 178.0,186.3 L 178.4,186.2 L 178.5,185.8 L 178.7,185.6 L 178.9,185.6 L 178.9,185.6 L 179.3,185.5 L 180.4,185.4 L 180.6,185.5 L 181.1,185.0 L 181.8,185.0 L 181.9,185.2 L 181.9,185.4 L 182.2,185.4 L 182.6,185.3 L 182.8,185.3 L 183.2,185.2 L 184.0,184.9 L 184.3,184.6 L 184.5,184.3 L 184.4,184.2 L 184.6,184.2 L 184.9,184.2 L 185.1,184.0 L 185.6,184.0 L 186.2,183.8 L 186.8,183.8 L 186.9,183.7 L 187.3,183.4 L 187.9,183.2 L 188.4,183.1 L 188.6,183.0 L 188.9,183.0 L 189.0,183.0 L 189.2,182.6 L 189.6,182.6 L 190.0,182.4 L 190.4,182.3 L 191.1,181.9 L 192.1,181.5 L 192.8,181.2 L 193.0,181.0 L 193.4,180.7 L 194.0,180.6 L 194.6,180.0 L 195.0,179.7 L 195.3,179.6 L 195.7,179.3 L 196.5,179.1 L 197.1,178.7 L 197.9,178.3 L 198.9,177.6 L 199.4,177.1 L 199.6,177.0 L 199.9,176.6 L 200.3,176.4 L 200.5,176.3 L 201.1,176.2 L 202.2,176.3 L 202.3,176.2 L 203.4,176.0 L 203.8,175.7 L 204.5,175.6 L 205.1,175.2 L 205.4,175.1 L 206.2,175.2 L 206.4,175.4 L 207.6,175.1 L 208.0,175.1 L 208.4,175.2 L 209.1,175.5 L 209.5,175.7 L 210.2,175.7 L 210.5,175.6 L 211.2,175.4 L 212.2,174.8 L 213.3,173.7 L 213.7,173.5 L 214.1,173.6 L 214.5,173.6 L 214.8,173.9 L 215.0,173.9 L 215.3,173.8 L 215.5,173.8 L 215.7,173.7 L 215.9,173.8 L 216.1,174.0 L 216.5,175.0 L 216.6,175.1 L 216.9,175.1 L 217.1,175.0 L 217.1,174.7 L 217.2,174.6 L 217.4,174.5 L 217.5,174.4 L 217.7,174.4 L 218.3,173.9 L 218.2,173.8 L 218.1,173.8 L 217.9,173.6 L 217.8,173.6 L 217.9,173.2 L 218.6,172.5 L 219.0,172.3 L 219.7,172.1 L 219.8,171.9 L 220.1,172.1 L 220.3,171.9 L 220.4,171.8 L 220.6,171.7 L 220.6,171.6 L 220.9,171.8 L 221.1,171.9 L 221.1,172.3 L 221.3,172.5 L 221.6,172.7 L 221.8,173.0 L 222.0,173.3 L 222.3,173.7 L 222.5,173.6 L 222.7,173.7 L 223.0,173.7 L 223.3,173.6 L 223.3,173.5 L 223.5,173.4 L 224.3,173.3 L 224.5,173.3 L 224.7,173.2 L 224.7,172.9 L 224.9,172.6 L 225.3,172.2 L 225.9,171.7 L 226.3,171.6 L 226.8,171.6 L 227.6,171.5 L 228.1,171.8 L 228.4,171.8 L 228.6,172.0 L 228.7,172.1 L 229.0,172.3 L 229.4,172.3 L 229.6,172.2 L 229.6,171.9 L 229.8,171.7 L 229.7,171.5 L 229.6,171.2 L 229.6,170.9 L 229.6,170.6 L 229.9,170.3 L 230.1,170.2 L 230.3,170.1 L 230.3,169.8 L 230.3,169.5 L 230.3,169.5 L 230.6,169.5 L 231.2,169.8 L 231.5,169.8 L 231.8,169.6 L 232.2,169.7 L 232.6,169.4 L 232.9,169.3 L 233.5,169.2 L 233.8,169.1 L 233.9,169.1 L 234.0,169.2 L 233.9,169.5 L 233.9,169.7 L 233.9,169.7 L 234.2,169.7 L 234.2,169.4 L 234.5,169.4 L 234.6,169.3 L 234.8,169.5 L 235.0,169.6 L 235.2,169.7 L 235.3,169.9 L 234.9,170.5 L 235.1,170.7 L 235.1,170.9 L 235.1,171.0 L 235.2,171.1 L 235.4,171.1 L 235.6,171.0 L 235.7,170.9 L 236.0,170.9 L 236.1,171.2 L 236.3,171.1 L 236.5,171.0 L 236.9,171.3 L 237.3,171.3 L 237.6,171.1 L 237.8,171.1 L 237.9,171.2 L 238.2,171.3 L 238.7,170.9 L 238.8,170.7 L 239.1,170.7 L 239.2,170.5 L 239.5,170.5 L 239.9,170.2 L 240.2,170.0 L 240.9,169.5 L 241.1,169.2 L 241.4,169.1 L 242.4,169.2 L 242.6,169.1 L 243.1,169.1 L 243.3,169.1 L 243.5,169.0 L 243.7,169.1 L 243.8,169.2 L 244.3,169.2 L 244.6,169.3 L 245.0,169.2 L 245.3,169.2 L 245.5,169.2 L 245.5,169.3 L 245.5,169.3 L 246.3,169.4 L 246.5,169.4 L 246.5,169.3 L 246.7,169.1 L 246.8,169.1 L 247.2,169.2 L 247.6,169.5 L 247.8,169.6 L 248.0,170.3 L 248.0,170.6 L 248.1,170.9 L 248.3,170.9 L 248.5,171.1 L 248.7,171.3 L 248.9,171.9 L 248.9,172.2 L 248.5,172.7 L 248.5,172.7 L 248.7,172.7 L 249.0,172.6 L 249.6,172.6 L 249.9,172.3 L 251.1,172.5 L 251.5,172.2 L 252.0,171.8 L 252.5,171.6 L 252.7,171.4 L 253.2,171.4 L 253.5,171.8 L 253.6,172.2 L 253.7,172.3 L 253.8,172.5 L 253.7,172.7 L 253.8,172.9 L 254.1,172.9 L 254.3,172.7 L 254.4,172.5 L 254.4,172.5 L 254.6,172.7 L 254.9,172.6 L 255.1,172.4 L 255.2,172.1 L 256.3,171.3 L 257.7,170.7 L 258.4,170.5 L 258.7,170.4 L 259.4,169.8 L 259.7,169.8 L 260.1,169.8 L 261.0,169.6 L 261.9,169.7 L 262.1,169.8 L 262.3,169.8 L 262.3,170.0 L 262.6,170.0 L 262.8,170.2 L 262.9,170.1 L 263.4,170.2 L 263.7,170.4 L 264.0,170.4 L 264.2,170.3 L 264.3,170.1 L 265.0,169.7 L 265.3,169.6 L 266.0,169.7 L 266.3,169.6 L 266.8,169.5 L 267.0,169.6 L 267.4,169.8 L 267.6,169.7 L 268.1,169.2 L 268.6,169.1 L 268.9,169.2 L 270.0,169.2 L 270.1,169.0 L 270.3,169.0 L 270.6,169.1 L 270.8,169.0 L 271.0,169.0 L 271.1,169.0 L 271.2,169.1 L 271.5,168.9 L 271.7,168.8 L 271.9,168.8 L 272.0,168.7 L 272.2,168.7 L 273.0,168.5 L 273.5,168.2 L 273.7,168.0 L 274.1,167.7 L 274.3,167.4 L 274.7,167.1 L 275.5,166.4 L 276.2,165.8 L 276.8,165.2 L 277.8,164.6 L 278.5,164.2 L 278.9,164.1 L 279.3,163.9 L 279.4,163.8 L 280.9,163.5 L 281.6,163.4 L 282.1,163.4 L 282.7,163.2 L 283.3,163.1 L 284.0,163.1 L 284.7,163.3 L 285.0,163.5 L 285.1,163.6 L 285.2,163.7 L 285.6,163.6 L 285.8,163.4 L 286.4,163.3 L 286.9,163.1 L 287.9,163.0 L 288.2,163.1 L 288.3,163.1 L 288.6,163.4 L 288.7,163.7 L 289.0,164.0 L 289.1,164.0 L 289.5,163.7 L 289.7,163.6 L 290.0,163.6 L 290.3,163.6 L 290.7,163.4 L 291.4,163.0 L 292.7,162.6 L 293.5,162.4 L 293.8,162.1 L 294.3,161.8 L 294.7,161.7 L 296.6,161.8 L 297.2,161.6 L 297.4,161.3 L 297.8,161.1 L 298.1,161.0 L 298.4,161.0 L 298.8,161.1 L 298.9,161.1 L 298.9,161.3 L 299.0,161.3 L 299.3,161.1 L 299.7,161.1 L 300.0,160.9 L 299.9,160.8 L 299.5,161.0 L 299.3,160.8 L 299.6,160.8 L 299.6,160.5 L 300.9,159.5 L 301.3,159.3 L 301.7,159.3 L 301.9,159.2 L 303.1,158.8 L 303.3,158.7 L 303.5,158.6 L 304.2,158.1 L 304.7,157.9 L 305.1,157.8 L 306.1,157.3 L 306.3,157.2 L 306.8,156.6 L 307.2,156.3 L 307.4,156.3 L 307.6,156.1 L 308.3,156.0 L 308.7,156.0 L 309.8,155.7 L 310.5,155.4 L 311.0,155.0 L 322.5,172.3 L 360.0,228.4 L 359.5,228.3 L 359.3,228.4 L 359.1,228.3 L 358.8,228.2 L 358.6,228.3 L 358.3,228.3 L 357.4,228.5 L 356.2,228.6 L 354.8,228.5 L 354.6,228.6 L 354.3,228.5 L 353.7,228.6 L 353.2,228.6 L 352.7,228.7 L 351.9,228.6 L 351.3,228.6 L 351.0,228.6 L 350.6,228.5 L 348.4,228.6 L 348.2,228.7 L 347.2,228.9 L 346.4,229.0 L 344.5,228.8 L 344.3,228.7 L 343.7,228.6 L 343.5,228.6 L 342.0,228.5 L 341.2,228.4 L 340.8,228.3 L 340.7,228.2 L 340.1,227.9 L 339.3,227.8 L 336.3,228.0 L 334.1,228.4 L 333.5,228.4 L 330.6,228.6 L 328.8,229.0 L 328.3,229.0 L 327.2,229.1 L 325.7,229.1 L 324.1,229.1 L 322.5,229.0 L 320.6,229.3 L 319.7,229.7 L 319.2,230.1 L 318.9,230.2 L 318.6,230.0 L 318.6,230.1 L 318.6,230.4 L 318.3,230.7 L 317.8,230.9 L 317.1,231.0 L 316.6,231.2 L 315.7,231.3 L 314.9,231.5 L 314.2,231.6 L 313.6,231.8 L 312.8,231.9 L 312.2,231.9 L 311.9,232.0 L 311.6,232.0 L 311.4,232.0 L 310.5,232.1 L 310.2,232.1 L 309.1,232.2 L 307.8,232.5 L 306.5,232.9 L 305.5,233.4 L 305.1,233.3 L 304.9,233.5 L 304.5,233.6 L 304.1,233.6 L 303.1,233.6 L 302.9,233.8 L 302.3,233.9 L 301.9,234.1 L 301.7,234.1 L 301.4,234.3 L 301.3,234.4 L 300.6,234.5 L 300.4,234.5 L 299.7,235.0 L 299.3,235.0 L 299.1,235.1 L 299.0,235.2 L 299.0,235.4 L 299.3,235.4 L 299.4,235.6 L 299.2,235.8 L 299.2,235.8 L 242.0,228.1 L 241.9,228.1 L 241.9,228.1 L 241.8,227.9 L 241.6,227.9 L 241.3,227.5 L 241.1,227.4 L 241.1,227.2 L 241.3,227.1 L 241.5,227.0 L 241.4,226.8 L 241.1,226.4 L 240.8,226.2 L 240.5,226.2 L 240.3,226.4 L 240.3,226.8 L 239.9,226.7 L 239.6,226.6 L 239.2,226.1 L 238.1,225.4 L 237.5,225.1 L 236.7,224.7 L 235.3,224.2 L 234.4,223.5 L 234.2,223.1 L 233.9,221.9 L 233.6,221.3 L 232.7,220.2 L 232.3,219.8 L 232.0,219.5 L 231.6,219.1 L 231.6,218.8 L 231.6,218.7 L 231.3,218.4 L 231.1,218.3 L 230.7,218.3 L 229.7,217.5 L 229.2,217.1 L 228.9,216.4 L 228.9,215.8 L 228.4,215.7 L 228.3,215.6 L 227.8,215.4 L 227.1,215.4 L 226.3,215.3 L 225.7,215.1 L 225.4,215.0 L 225.1,214.9 L 223.5,214.2 L 222.0,213.6 L 221.2,213.1 L 220.1,212.6 L 219.7,212.5 L 219.2,212.2 L 218.5,212.1 L 216.6,211.8 L 215.2,211.7 L 214.9,211.7 L 214.5,211.6 L 214.3,211.5 L 214.2,211.5 L 212.2,211.3 L 211.8,211.2 L 211.4,211.0 L 210.5,210.8 L 210.3,210.5 L 209.9,210.3 L 209.3,210.3 L 208.9,210.4 L 208.5,210.3 L 207.2,210.4 L 206.4,210.5 L 205.5,210.6 L 205.2,210.5 L 204.7,210.5 L 204.5,210.6 L 204.2,210.7 L 203.7,210.7 L 203.1,210.6 L 202.8,210.7 L 201.4,210.8 L 200.2,211.0 L 199.8,211.1 L 199.5,211.2 L 199.4,211.3 L 198.5,211.3 L 198.3,211.5 L 197.9,211.6 L 197.2,211.8 L 196.0,212.0 L 195.5,212.1 L 195.0,212.2 L 194.0,212.8 L 193.6,213.0 L 193.0,212.9 L 192.4,213.7 L 192.0,214.8 L 191.3,215.3 L 191.1,215.6 L 190.8,216.1 L 190.7,216.8 L 190.4,217.2 L 190.1,217.3 L 190.0,217.4 L 189.8,217.6 L 189.6,217.6 L 189.5,217.5 L 189.5,217.2 L 189.1,217.1 L 189.1,216.8 L 188.9,216.9 L 188.9,217.2 L 188.2,217.1 L 188.0,216.9 L 187.9,216.9 L 187.6,217.0 L 187.0,217.5 L 186.6,217.8 L 186.6,218.1 L 186.5,218.1 L 186.3,218.2 L 186.2,218.2 L 186.2,218.2 L 186.0,218.5 L 185.7,219.0 L 185.1,219.3 L 184.4,219.4 L 182.8,219.5 L 182.2,219.5 L 180.6,219.6 L 179.8,219.7 L 179.5,219.6 L 179.0,219.7 L 177.7,219.7 L 176.7,219.8 L 175.8,219.9 L 175.4,220.0 L 175.0,220.1 L 174.5,220.3 L 174.4,220.3 L 174.4,220.3 L 174.4,220.3 L 174.3,220.3 L 173.8,220.3 L 173.4,220.4 L 173.1,220.6 L 172.1,220.8 L 171.1,221.1 L 170.4,221.5 L 169.9,221.6 L 169.1,221.8 L 167.2,223.1 L 166.0,223.6 L 165.2,224.1 L 164.7,224.4 L 163.4,224.9 L 162.8,225.4 L 162.6,226.5 L 163.0,226.9 L 163.0,227.2 L 162.7,227.9 L 162.5,228.1 L 162.3,228.3 L 161.9,228.3 L 161.6,228.1 L 161.2,228.2 L 160.7,228.3 L 160.6,228.4 L 160.4,228.5 L 160.3,228.6 L 159.9,229.0 L 159.5,229.1 L 159.0,229.2 L 158.5,229.4 L 157.5,229.7 L 156.4,229.8 L 155.2,230.0 L 153.2,230.3 L 151.8,230.7 L 151.3,230.8 L 149.7,231.2 L 149.4,231.4 L 149.1,231.4 L 148.0,231.5 L 147.7,231.5 L 145.8,231.5 L 145.5,231.5 L 144.4,231.4 L 144.0,231.3 L 143.3,231.0 L 141.4,230.9 L 140.9,230.9 L 139.9,230.9 L 138.7,230.9 L 138.2,230.9 L 137.0,231.2 L 136.4,231.3 L 136.2,231.5 L 135.9,231.9 L 135.3,232.3 L 134.8,232.7 L 134.3,233.5 L 134.2,233.8 L 126.1,234.3 L 125.7,233.6 L 125.2,233.3 L 125.0,233.1 L 124.3,232.8 L 122.4,232.5 L 121.6,232.5 L 119.9,232.8 L 119.2,232.7 L 118.8,232.9 L 118.3,233.0 L 117.7,232.9 L 117.4,233.0 L 117.1,233.3 L 116.7,233.6 L 116.1,233.7 L 115.3,234.1 L 115.1,234.2 L 114.5,234.7 L 113.4,235.7 L 113.3,235.9 L 112.9,236.1 L 112.4,236.2 L 112.2,236.3 L 111.9,236.1 L 111.8,235.8 L 111.6,235.7 L 111.4,235.5 L 111.1,235.7 L 110.9,235.6 L 110.9,235.6 L 110.1,235.4 L 110.0,235.5 L 109.9,235.5 L 104.8,235.2 L 104.7,234.9 L 104.8,234.7 L 104.6,234.5 L 103.9,234.4 L 103.7,234.2 L 103.8,233.3 L 104.1,232.8 L 104.5,232.8 L 104.5,232.7 L 104.6,232.4 L 104.6,232.1 L 104.6,231.8 L 104.5,231.6 L 104.2,231.3 L 103.6,231.1 L 103.4,231.2 L 102.7,231.2 L 101.1,231.4 L 100.4,231.4 L 99.9,231.4 L 99.5,231.1 L 99.4,230.9 L 99.4,230.8 L 97.1,230.4 L 96.8,230.1 L 96.6,229.9 L 96.0,229.8 L 95.4,229.8 L 94.8,229.9 L 93.2,230.1 L 92.4,230.2 L 91.3,230.5 L 90.7,230.9 L 90.5,230.8 L 90.1,230.6 L 89.8,230.5 L 88.7,230.6 L 88.1,230.7 L 87.5,230.9 L 87.2,231.2 L 86.8,231.4 L 86.2,231.7 L 85.8,231.9 L 84.9,232.5 L 84.4,232.7 L 84.0,233.0 L 84.0,233.3 L 83.8,233.7 L 83.9,233.8 L 83.8,233.8 L 82.2,234.4 L 82.3,234.3 L 82.2,234.2 L 81.8,234.1 L 81.5,234.2 L 81.0,234.2 L 81.0,234.3 L 81.0,234.4 L 81.7,234.5 L 82.1,234.4 L 75.2,236.6 L 73.7,237.1 L 73.4,236.6 L 72.7,236.3 L 72.3,236.3 L 72.2,236.5 L 72.3,236.7 L 72.5,236.8 L 72.5,236.9 L 72.3,236.9 L 71.9,237.1 L 71.9,237.1 L 71.5,237.1 L 71.2,237.2 L 70.6,237.1 L 70.3,237.2 L 70.1,237.2 L 69.9,237.0 L 69.7,237.1 L 69.5,237.1 L 69.4,237.1 L 69.0,236.8 L 68.7,236.6 L 68.0,236.5 L 67.8,236.6 L 66.3,236.4 L 65.9,236.4 L 65.7,236.5 L 65.6,236.6 L 65.2,236.8 L 64.8,237.0 L 64.7,237.5 L 64.5,237.6 L 64.5,237.6 L 64.1,237.4 L 63.8,237.2 L 63.2,237.1 L 62.5,237.2 L 61.8,237.6 L 61.0,237.8 L 60.5,237.8 L 58.9,237.6 L 58.7,237.7 L 58.7,237.8 L 58.6,237.9 L 58.0,237.9 L 57.5,238.2 L 57.1,238.4 L 56.9,238.6 L 56.5,238.7 L 55.4,239.1 L 53.8,239.3 L 53.1,239.3 L 51.2,239.9 L 50.6,239.9 L 49.2,240.3 L 48.7,240.4 L 48.5,240.6 L 48.4,240.6 L 48.4,240.4 L 48.2,240.4 L 47.7,240.4 L 47.4,240.6 L 47.3,240.9 L 47.4,241.1 L 48.1,241.1 L 48.3,241.5 L 48.3,241.6 L 48.3,241.9 L 47.4,243.1 L 46.7,243.7 L 46.2,244.2 L 46.0,244.3 L 45.7,244.5 L 44.6,244.7 L 43.6,245.0 L 43.1,245.0 L 41.8,244.5 L 41.1,244.4 L 40.6,244.5 L 40.0,244.6 L 40.0,244.6 L 40.4,236.6 L 41.5,214.3 L 41.5,214.1 L 41.6,214.2 L 41.9,214.2 L 42.1,214.2 L 42.7,214.3 L 43.0,214.1 L 43.1,213.9 L 43.6,213.6 L 43.6,213.4 L 43.4,213.4 L 43.0,213.4 L 42.2,213.4 L 42.6,212.9 L 43.3,211.8 L 43.4,211.7 L 43.6,212.0" fill="none" stroke="black" stroke-width="2"/>
</svg>