<?xml version="1.0" encoding="UTF-8"?>
<svg width="400" height="400" viewBox="0 0 400 400" xmlns="http://www.w3.org/2000/svg">
  <rect width="400" height="400" fill="white"/>
  <path d="M 52.2,206.9 L 52.3,206.2 L 55.3,193.7 L 56.1,187.6 L 57.4,184.4 L 55.8,179.1 L 56.5,175.6 L 59.6,167.6 L 60.2,167.0 L 61.2,165.0 L 61.0,162.7 L 60.4,160.8 L 60.4,158.0 L 59.2,153.7 L 58.5,146.9 L 58.3,141.3 L 60.1,132.9 L 63.3,126.1 L 63.7,123.2 L 63.3,121.1 L 63.7,114.4 L 64.2,110.6 L 63.2,101.0 L 63.8,97.6 L 64.9,90.2 L 67.2,82.9 L 67.3,81.6 L 69.5,73.5 L 70.0,69.0 L 71.1,59.9 L 76.4,50.9 L 77.0,46.9 L 77.3,40.0 L 150.4,77.2 L 150.3,78.0 L 150.8,79.2 L 150.0,81.4 L 146.6,84.8 L 146.2,86.0 L 147.2,87.3 L 149.2,87.3 L 150.9,86.8 L 152.3,87.2 L 155.4,90.1 L 157.9,91.4 L 161.1,92.1 L 162.9,93.7 L 166.6,94.2 L 173.3,95.9 L 175.6,95.6 L 175.8,97.7 L 176.9,97.8 L 178.6,98.6 L 179.6,98.2 L 182.0,95.8 L 183.9,95.1 L 186.2,95.4 L 187.0,96.7 L 187.5,98.1 L 190.2,98.4 L 193.7,96.2 L 194.8,94.7 L 201.1,94.1 L 204.2,93.4 L 205.3,91.7 L 206.7,90.3 L 206.4,89.3 L 209.5,86.0 L 211.0,85.5 L 215.6,85.7 L 216.9,84.3 L 217.1,82.9 L 218.6,80.4 L 220.9,77.3 L 221.8,77.6 L 269.7,94.5 L 269.9,94.6 L 270.5,95.5 L 273.0,97.0 L 277.4,97.3 L 281.0,95.9 L 283.3,97.6 L 283.9,98.4 L 286.4,98.7 L 287.9,99.9 L 290.6,103.2 L 294.6,104.4 L 296.2,106.1 L 297.2,108.9 L 300.8,109.6 L 302.3,110.8 L 306.2,111.5 L 308.3,112.2 L 309.6,113.4 L 310.7,116.5 L 310.8,118.1 L 303.3,129.6 L 302.6,132.7 L 302.9,136.1 L 303.3,138.3 L 307.1,138.9 L 310.0,139.6 L 311.5,140.5 L 315.1,141.0 L 315.4,141.1 L 319.2,142.2 L 324.0,145.0 L 327.4,147.7 L 329.9,151.0 L 332.5,157.3 L 333.4,157.7 L 335.8,157.1 L 338.3,157.2 L 342.8,158.3 L 345.9,159.6 L 348.0,162.0 L 349.1,166.0 L 349.5,172.0 L 349.3,175.0 L 348.7,176.8 L 347.1,187.1 L 344.5,194.4 L 344.7,196.2 L 343.4,202.4 L 342.7,204.6 L 341.5,213.6 L 341.6,215.9 L 340.8,222.0 L 339.3,223.7 L 337.6,232.0 L 339.9,233.8 L 344.3,237.2 L 345.3,238.8 L 346.3,243.1 L 346.6,249.5 L 346.4,253.6 L 345.6,257.2 L 338.1,288.0 L 336.7,291.5 L 336.3,295.0 L 336.4,297.4 L 334.4,305.5 L 333.4,308.1 L 333.1,310.3 L 332.3,312.8 L 330.3,315.8 L 326.4,320.5 L 315.7,328.5 L 315.4,328.8 L 314.5,332.8 L 309.7,337.2 L 297.4,346.9 L 296.0,348.2 L 294.3,349.9 L 289.3,355.5 L 286.0,360.0 L 230.7,347.7 L 231.1,345.0 L 231.7,343.7 L 230.0,341.0 L 229.9,339.4 L 231.0,334.6 L 230.2,334.1 L 227.3,335.1 L 223.5,337.8 L 214.2,336.8 L 208.5,336.5 L 207.5,335.2 L 208.7,326.7 L 205.4,323.4 L 204.2,321.4 L 204.8,318.5 L 205.1,318.2 L 206.8,316.1 L 208.3,312.5 L 209.7,302.8 L 210.6,299.3 L 210.4,297.6 L 210.7,294.9 L 210.0,293.4 L 208.3,291.8 L 206.8,289.7 L 203.4,287.5 L 202.0,285.9 L 200.5,285.8 L 198.0,286.8 L 190.0,287.5 L 188.7,288.5 L 185.9,289.5 L 183.2,289.4 L 182.6,288.4 L 182.2,286.2 L 180.1,284.4 L 179.5,283.6 L 177.6,282.7 L 174.9,282.1 L 171.6,282.6 L 167.2,284.1 L 163.4,283.8 L 161.3,281.9 L 157.5,279.5 L 154.7,279.6 L 145.6,282.2 L 139.5,284.8 L 135.5,287.0 L 132.0,289.8 L 130.8,291.4 L 127.2,294.2 L 125.5,296.7 L 120.1,303.2 L 116.6,304.6 L 116.1,307.0 L 114.6,309.6 L 114.5,309.7 L 112.5,311.7 L 108.6,312.9 L 107.1,314.2 L 106.4,314.0 L 104.6,313.1 L 104.2,309.6 L 105.4,308.9 L 106.2,308.5 L 107.6,306.6 L 110.4,304.9 L 110.9,300.9 L 118.3,288.9 L 124.0,276.8 L 125.8,274.9 L 128.0,271.3 L 127.8,267.6 L 130.3,263.8 L 132.2,261.7 L 134.0,257.3 L 133.6,256.1 L 132.5,254.4 L 132.6,251.9 L 130.9,250.9 L 131.1,247.5 L 128.0,244.3 L 119.7,242.8 L 117.4,241.6 L 116.2,241.2 L 115.0,240.4 L 113.0,239.6 L 109.1,236.5 L 106.1,235.0 L 101.1,233.9 L 95.0,233.1 L 88.7,233.4 L 85.6,234.1 L 83.7,235.2 L 81.6,237.3 L 80.9,238.1 L 78.3,239.1 L 76.0,239.1 L 75.1,237.4 L 74.0,237.0 L 73.5,235.7 L 71.7,236.7 L 70.3,236.9 L 65.7,233.8 L 65.8,231.1 L 64.5,230.4 L 62.2,230.4 L 61.1,231.1 L 56.9,232.0 L 57.0,229.2 L 53.0,224.7 L 52.4,221.0 L 50.7,218.5 L 50.5,216.2 L 51.1,214.6 L 52.2,206.9" fill="none" stroke="black" stroke-width="2"/>
</svg>