<?xml version="1.0" encoding="UTF-8"?>
<svg width="400" height="400" viewBox="0 0 400 400" xmlns="http://www.w3.org/2000/svg">
  <rect width="400" height="400" fill="white"/>
  <path d="M 138.5,206.4 L 139.5,206.2 L 140.0,205.1 L 140.6,204.0 L 140.8,202.9 L 140.6,201.8 L 140.8,201.0 L 141.5,199.8 L 142.0,199.2 L 142.0,199.2 L 142.1,199.1 L 145.2,196.7 L 145.5,196.5 L 146.3,195.6 L 151.7,192.8 L 154.4,192.0 L 155.7,191.1 L 156.8,189.8 L 158.7,188.5 L 159.6,188.0 L 161.4,186.4 L 163.7,184.0 L 165.4,182.9 L 166.5,182.1 L 167.8,179.7 L 170.5,177.2 L 172.6,176.4 L 173.0,175.8 L 173.2,175.1 L 175.0,172.9 L 177.4,170.7 L 178.9,169.8 L 180.4,167.2 L 181.7,165.5 L 186.2,160.9 L 186.7,160.5 L 188.0,159.7 L 189.9,158.9 L 191.0,158.2 L 191.8,157.5 L 192.9,155.7 L 193.6,154.9 L 194.5,154.3 L 197.4,153.3 L 199.9,148.0 L 200.7,146.1 L 202.3,144.6 L 204.5,142.7 L 205.6,141.6 L 208.3,139.7 L 208.5,139.3 L 208.7,139.1 L 210.4,137.5 L 212.7,135.8 L 216.7,132.1 L 221.3,128.6 L 222.8,127.8 L 225.6,125.9 L 227.5,125.2 L 229.2,124.2 L 230.5,122.8 L 233.0,121.6 L 233.8,121.0 L 234.7,119.8 L 237.8,117.6 L 239.8,115.4 L 240.1,114.5 L 240.5,114.1 L 245.4,110.1 L 246.4,109.7 L 246.6,109.9 L 247.4,109.3 L 250.6,107.0 L 252.9,106.6 L 255.1,105.6 L 255.7,105.6 L 256.3,105.1 L 258.1,104.6 L 259.2,103.9 L 261.1,102.9 L 262.8,101.7 L 263.8,100.5 L 265.0,98.7 L 265.3,97.8 L 268.0,94.7 L 269.0,93.3 L 273.7,90.0 L 275.8,88.9 L 278.2,88.0 L 280.2,86.7 L 281.3,86.5 L 282.0,85.6 L 282.9,84.1 L 283.2,83.7 L 284.1,82.0 L 285.5,79.9 L 287.9,77.7 L 289.6,74.9 L 291.1,73.7 L 291.8,73.5 L 294.2,73.1 L 295.3,73.2 L 295.6,73.6 L 296.6,73.5 L 296.9,74.1 L 297.4,74.1 L 299.7,72.9 L 301.8,71.3 L 303.5,69.6 L 305.9,69.0 L 307.5,68.4 L 308.9,68.3 L 310.9,67.2 L 311.2,66.9 L 311.7,66.8 L 312.3,66.3 L 312.9,66.1 L 360.0,141.1 L 360.0,141.2 L 359.8,141.3 L 357.9,142.2 L 356.9,143.2 L 352.6,145.9 L 349.9,147.1 L 347.6,147.9 L 347.0,148.2 L 346.7,147.6 L 346.2,147.8 L 346.5,148.4 L 339.6,151.7 L 338.3,152.1 L 336.7,153.0 L 333.9,154.1 L 332.8,154.7 L 331.7,155.3 L 324.9,159.8 L 320.9,163.9 L 319.6,164.8 L 314.3,167.7 L 310.1,170.7 L 306.4,173.8 L 303.6,175.4 L 302.3,176.1 L 300.8,177.2 L 300.7,177.9 L 297.2,180.7 L 290.4,185.4 L 289.2,185.7 L 288.4,186.5 L 287.9,188.4 L 285.3,190.5 L 275.5,195.8 L 269.6,198.5 L 267.7,199.4 L 264.3,200.3 L 260.5,202.2 L 254.8,207.0 L 252.1,209.3 L 250.4,210.3 L 247.1,212.9 L 242.4,215.9 L 239.9,218.9 L 238.2,220.0 L 236.2,220.9 L 233.5,222.5 L 232.5,223.5 L 231.0,225.3 L 230.1,225.3 L 228.3,226.7 L 226.3,227.5 L 225.8,227.8 L 224.1,228.8 L 223.0,229.2 L 221.5,229.8 L 220.0,230.4 L 218.8,231.4 L 218.2,232.5 L 217.7,234.0 L 217.1,235.5 L 216.5,237.0 L 215.8,238.5 L 215.0,239.9 L 214.7,240.1 L 215.1,239.0 L 215.7,237.5 L 216.2,236.0 L 216.8,234.5 L 217.0,233.5 L 216.8,233.3 L 215.7,234.0 L 214.7,234.6 L 214.2,234.4 L 213.9,233.9 L 214.2,233.6 L 215.6,232.6 L 215.4,232.1 L 214.6,232.6 L 213.2,233.5 L 214.1,234.9 L 213.5,235.8 L 212.4,237.0 L 211.2,238.1 L 209.4,238.6 L 206.6,239.8 L 204.7,239.8 L 201.8,240.4 L 199.1,241.4 L 197.7,241.9 L 194.1,243.7 L 191.2,245.0 L 188.5,246.2 L 185.5,247.5 L 178.7,249.9 L 176.8,250.8 L 174.8,251.5 L 166.9,253.6 L 163.8,254.1 L 161.7,254.0 L 160.2,253.6 L 158.1,255.2 L 156.3,256.2 L 154.1,256.7 L 152.0,257.4 L 148.4,259.7 L 147.4,260.1 L 146.5,260.9 L 144.1,262.3 L 139.7,264.9 L 137.4,265.6 L 136.7,266.7 L 136.4,267.5 L 135.4,269.6 L 133.9,271.0 L 133.9,271.1 L 130.3,275.1 L 129.2,276.0 L 127.8,277.0 L 126.8,278.2 L 125.5,278.8 L 123.6,280.3 L 119.3,283.2 L 116.7,283.6 L 115.4,284.1 L 114.0,286.2 L 113.7,287.1 L 113.6,287.2 L 113.5,288.1 L 113.7,289.4 L 111.1,292.3 L 105.6,296.6 L 104.6,297.2 L 103.4,298.2 L 102.2,298.7 L 100.0,299.9 L 97.9,301.7 L 95.9,303.7 L 94.0,304.9 L 92.8,305.2 L 91.5,306.4 L 89.0,309.3 L 88.7,309.9 L 86.6,312.3 L 85.9,312.9 L 85.3,313.6 L 83.8,314.8 L 82.7,315.8 L 81.9,316.3 L 81.4,316.5 L 80.7,317.2 L 79.8,318.0 L 77.4,319.6 L 76.3,320.7 L 74.7,321.8 L 72.0,323.8 L 71.3,324.7 L 69.3,326.4 L 67.1,326.9 L 66.7,326.8 L 65.8,327.5 L 65.6,327.5 L 65.3,327.5 L 65.3,327.7 L 63.4,329.4 L 62.2,330.6 L 59.9,332.2 L 59.1,331.6 L 57.2,330.9 L 52.8,329.5 L 51.2,328.1 L 50.5,328.7 L 49.7,329.6 L 48.1,329.8 L 47.1,330.4 L 46.6,331.2 L 47.1,332.1 L 48.8,332.5 L 49.4,332.7 L 50.3,332.7 L 50.7,333.1 L 50.4,333.4 L 50.1,333.8 L 49.4,333.8 L 47.8,333.6 L 47.1,333.9 L 46.3,333.3 L 46.4,332.2 L 44.9,330.9 L 45.0,330.8 L 45.0,330.5 L 43.9,330.0 L 42.5,330.5 L 41.7,331.5 L 41.6,332.1 L 41.1,332.8 L 40.6,332.1 L 40.7,331.3 L 42.4,329.5 L 44.4,328.8 L 45.1,328.8 L 45.5,329.4 L 46.6,329.3 L 46.7,328.9 L 46.4,328.4 L 46.7,328.0 L 46.5,327.6 L 46.7,327.3 L 47.7,326.6 L 47.3,326.3 L 46.1,326.7 L 44.3,327.0 L 42.2,327.9 L 40.8,328.7 L 40.0,328.7 L 40.2,328.3 L 42.1,327.3 L 43.3,326.8 L 43.9,326.1 L 45.1,325.6 L 46.2,324.2 L 45.2,323.4 L 44.9,323.2 L 41.4,320.7 L 41.6,320.1 L 42.3,318.5 L 43.5,317.0 L 43.6,316.8 L 43.9,316.2 L 44.4,314.3 L 44.6,313.9 L 45.1,312.9 L 45.1,312.8 L 45.6,310.9 L 46.4,309.8 L 46.6,309.0 L 47.4,308.1 L 47.6,306.5 L 48.6,305.5 L 49.2,304.5 L 51.3,303.2 L 51.3,302.1 L 52.2,301.5 L 52.5,300.6 L 52.2,300.0 L 52.2,299.2 L 52.7,299.0 L 53.3,297.3 L 53.2,297.1 L 54.3,295.6 L 55.2,294.8 L 55.5,294.0 L 56.9,291.3 L 57.6,290.5 L 58.0,290.5 L 58.1,290.1 L 59.0,289.1 L 59.9,287.8 L 61.9,285.9 L 62.1,285.2 L 64.1,283.6 L 66.1,282.8 L 67.0,282.1 L 67.1,281.5 L 67.5,280.1 L 68.9,278.8 L 69.5,278.5 L 70.2,278.0 L 74.5,274.6 L 77.5,272.6 L 78.2,271.8 L 79.4,270.1 L 81.5,268.3 L 82.3,268.0 L 82.8,267.6 L 83.1,266.7 L 84.1,266.0 L 84.9,265.2 L 85.2,265.3 L 85.6,265.1 L 86.6,264.6 L 87.3,264.5 L 89.2,262.2 L 89.7,262.1 L 89.9,261.5 L 90.1,260.6 L 90.7,259.9 L 91.3,259.5 L 92.2,259.2 L 93.3,258.2 L 93.7,258.0 L 93.6,257.2 L 94.6,254.9 L 95.6,253.7 L 96.2,253.4 L 96.6,252.2 L 97.8,251.1 L 97.9,250.5 L 98.6,250.4 L 99.7,249.6 L 101.1,249.7 L 101.6,250.0 L 102.2,249.7 L 102.2,248.8 L 103.2,248.0 L 104.6,247.8 L 105.4,247.8 L 107.2,244.9 L 106.3,241.6 L 106.3,239.8 L 107.5,237.8 L 108.3,237.0 L 109.2,235.4 L 110.4,234.1 L 111.5,233.6 L 113.1,233.3 L 114.3,232.6 L 114.6,232.0 L 114.9,231.8 L 114.8,230.3 L 115.2,228.1 L 116.1,226.7 L 117.3,225.6 L 118.5,224.8 L 119.4,222.8 L 119.9,221.0 L 120.3,218.5 L 120.8,217.1 L 121.3,215.7 L 123.2,212.9 L 125.1,210.7 L 127.4,208.4 L 128.4,207.7 L 129.9,206.2 L 132.1,205.7 L 134.6,206.0 L 136.7,206.5 L 138.5,206.4" fill="none" stroke="black" stroke-width="2"/>
</svg>