<?xml version="1.0" encoding="UTF-8"?>
<svg width="400" height="400" viewBox="0 0 400 400" xmlns="http://www.w3.org/2000/svg">
  <rect width="400" height="400" fill="white"/>
  <path d="M 231.8,181.8 L 231.8,181.7 L 232.2,181.2 L 232.5,181.0 L 232.7,180.6 L 233.0,180.5 L 233.4,180.4 L 233.9,180.1 L 234.0,179.8 L 235.2,179.1 L 235.5,178.6 L 236.0,178.0 L 236.4,177.2 L 236.6,176.8 L 236.3,175.9 L 237.2,175.0 L 237.9,173.9 L 238.2,173.0 L 239.1,172.1 L 239.9,171.4 L 240.8,171.0 L 242.3,170.4 L 243.2,170.2 L 244.6,169.9 L 245.4,169.5 L 246.5,168.7 L 248.1,166.7 L 248.4,166.1 L 249.3,165.3 L 250.2,164.6 L 250.6,163.9 L 251.6,163.3 L 252.2,162.4 L 252.5,161.4 L 252.4,161.0 L 252.3,160.5 L 252.4,159.6 L 252.2,158.9 L 252.2,158.7 L 252.5,158.6 L 252.9,158.8 L 253.3,159.5 L 253.6,159.5 L 254.3,159.0 L 254.7,158.6 L 254.7,157.9 L 254.6,157.8 L 254.3,157.6 L 253.7,157.9 L 253.1,157.9 L 252.8,157.7 L 252.7,157.3 L 252.7,156.8 L 251.8,156.4 L 251.8,156.2 L 252.2,155.9 L 252.4,155.4 L 253.4,154.4 L 254.4,153.5 L 255.1,152.7 L 255.6,152.7 L 255.9,152.4 L 256.4,152.6 L 256.9,152.6 L 257.0,152.4 L 257.2,152.2 L 256.8,152.0 L 256.4,152.0 L 255.8,152.2 L 255.5,152.0 L 255.6,151.4 L 254.6,151.1 L 254.7,150.7 L 254.9,150.3 L 255.1,150.0 L 255.6,149.5 L 257.1,149.1 L 257.3,149.0 L 257.3,149.0 L 258.3,148.4 L 258.7,148.0 L 259.4,148.0 L 259.8,147.6 L 259.9,147.3 L 260.2,147.1 L 260.2,146.7 L 260.5,146.3 L 261.4,145.5 L 261.9,144.6 L 262.0,144.0 L 263.2,143.1 L 264.9,142.0 L 266.8,141.2 L 267.3,140.6 L 267.7,140.2 L 267.8,139.6 L 267.6,139.2 L 267.4,138.9 L 266.7,139.0 L 265.8,138.9 L 265.4,138.4 L 264.9,137.5 L 264.5,136.9 L 264.5,136.3 L 264.3,136.1 L 263.3,136.3 L 263.1,136.2 L 262.2,135.5 L 261.1,135.0 L 260.3,135.0 L 260.4,134.8 L 261.0,134.2 L 261.0,134.0 L 263.2,133.1 L 263.8,132.8 L 264.6,132.6 L 265.8,131.7 L 266.0,131.1 L 265.9,130.9 L 265.7,130.6 L 265.6,130.3 L 265.5,130.0 L 265.3,129.8 L 264.8,129.8 L 264.3,129.8 L 263.8,129.8 L 263.4,129.8 L 263.1,129.2 L 263.2,129.0 L 264.4,128.3 L 264.7,128.5 L 266.6,128.6 L 268.5,128.4 L 269.3,128.2 L 270.1,127.8 L 270.8,127.1 L 271.5,126.7 L 272.0,125.9 L 273.1,124.7 L 273.4,123.8 L 273.0,123.6 L 273.2,123.4 L 273.7,122.6 L 273.8,121.9 L 273.6,121.7 L 273.0,121.8 L 272.3,123.3 L 271.7,123.3 L 271.1,123.1 L 270.5,122.6 L 271.1,121.6 L 271.0,121.4 L 270.8,120.9 L 270.5,120.9 L 270.1,121.0 L 269.2,121.5 L 269.1,121.9 L 268.7,122.0 L 268.3,121.9 L 268.1,122.0 L 267.6,122.6 L 267.0,123.2 L 266.2,123.6 L 265.6,123.6 L 265.1,123.3 L 264.6,122.9 L 263.7,122.8 L 263.2,122.9 L 262.7,122.7 L 261.5,121.8 L 261.1,121.6 L 261.1,121.6 L 261.4,121.0 L 262.1,120.5 L 262.1,120.1 L 263.0,118.7 L 263.1,118.3 L 263.1,117.9 L 262.9,117.3 L 263.2,116.8 L 264.4,116.2 L 264.7,115.9 L 264.9,115.6 L 265.5,115.6 L 266.5,115.1 L 266.8,114.9 L 267.2,114.1 L 267.2,113.6 L 267.1,113.5 L 266.9,113.4 L 266.3,113.6 L 265.1,113.8 L 264.3,114.0 L 263.7,114.1 L 262.4,114.6 L 261.9,114.6 L 261.0,114.1 L 260.4,114.0 L 260.3,113.7 L 260.3,113.2 L 261.0,112.8 L 260.6,112.3 L 260.8,111.9 L 261.0,111.7 L 261.7,111.6 L 262.1,111.4 L 263.0,111.2 L 264.7,111.0 L 268.3,109.8 L 268.7,109.4 L 269.2,109.2 L 269.8,108.0 L 270.5,107.5 L 270.6,107.3 L 270.8,106.3 L 271.4,105.9 L 271.6,104.8 L 272.0,104.5 L 272.3,104.2 L 272.4,103.5 L 272.8,103.2 L 273.0,103.3 L 273.2,103.4 L 273.6,103.3 L 273.9,103.0 L 274.3,102.8 L 274.3,102.5 L 274.2,102.2 L 273.9,102.2 L 273.7,102.5 L 273.2,102.6 L 272.5,102.5 L 272.1,102.7 L 271.1,102.7 L 270.7,102.1 L 270.4,101.9 L 270.5,101.4 L 270.5,100.4 L 270.9,98.9 L 271.5,98.1 L 272.0,97.9 L 272.5,97.8 L 273.3,97.4 L 273.6,97.1 L 274.3,96.7 L 274.9,96.2 L 275.8,95.7 L 276.1,95.4 L 276.3,95.4 L 277.3,94.7 L 277.6,94.3 L 277.6,94.1 L 277.1,93.8 L 277.1,93.8 L 277.1,93.5 L 277.2,92.4 L 277.0,92.0 L 276.6,91.9 L 276.2,92.1 L 276.0,91.9 L 276.0,91.6 L 276.4,90.7 L 277.4,90.0 L 277.6,89.6 L 278.0,89.3 L 278.4,89.2 L 278.9,88.6 L 279.0,88.3 L 280.7,87.2 L 280.9,86.7 L 281.1,85.6 L 282.0,85.1 L 282.1,84.8 L 282.1,84.0 L 281.8,83.6 L 280.6,83.4 L 280.3,83.1 L 279.7,83.1 L 278.5,83.2 L 277.7,83.2 L 277.1,83.0 L 276.8,82.6 L 276.7,82.1 L 276.8,81.5 L 277.2,81.0 L 277.9,79.6 L 277.9,79.4 L 277.6,79.3 L 277.1,78.8 L 277.0,78.3 L 277.4,77.7 L 277.9,76.9 L 278.3,76.3 L 279.4,74.5 L 279.6,74.1 L 279.8,73.0 L 280.3,70.2 L 280.5,69.9 L 281.1,69.9 L 281.6,69.3 L 282.3,68.8 L 282.8,67.7 L 282.9,66.8 L 282.7,66.5 L 282.7,66.1 L 282.3,65.8 L 281.6,65.7 L 281.4,65.5 L 280.7,65.3 L 280.7,65.0 L 281.2,64.8 L 281.2,64.1 L 281.4,63.8 L 281.3,63.5 L 280.7,63.4 L 280.2,63.5 L 279.8,63.6 L 279.5,63.4 L 279.5,63.1 L 279.3,63.0 L 278.2,62.9 L 277.1,63.1 L 276.0,63.4 L 274.9,63.7 L 273.8,63.8 L 272.8,64.3 L 271.8,65.1 L 271.6,65.5 L 271.0,65.6 L 270.3,65.9 L 269.1,66.9 L 268.5,68.3 L 268.2,68.8 L 268.1,68.7 L 267.7,68.1 L 267.9,67.6 L 267.7,66.9 L 268.0,66.6 L 268.0,66.3 L 267.9,66.0 L 268.0,65.7 L 268.1,65.5 L 267.9,65.3 L 267.7,65.3 L 267.8,65.0 L 268.2,64.5 L 268.4,64.2 L 268.1,63.9 L 267.8,63.9 L 267.8,63.6 L 268.1,63.1 L 268.4,62.9 L 268.8,62.9 L 269.0,62.7 L 269.0,62.4 L 268.9,62.2 L 269.1,60.6 L 269.3,60.3 L 269.1,59.9 L 269.1,59.6 L 268.9,59.4 L 268.0,59.5 L 267.3,59.7 L 266.7,59.8 L 266.3,59.8 L 266.1,59.5 L 266.2,58.7 L 265.8,58.2 L 265.8,57.7 L 266.5,57.2 L 266.9,57.2 L 267.7,56.7 L 268.2,56.2 L 268.4,56.0 L 268.5,55.5 L 268.0,55.1 L 267.6,55.0 L 266.8,55.1 L 265.8,55.6 L 264.8,56.5 L 264.4,56.5 L 264.3,56.4 L 264.4,56.2 L 264.7,55.8 L 264.5,55.4 L 264.6,55.1 L 265.0,54.6 L 264.9,54.3 L 264.8,54.2 L 264.5,54.3 L 264.3,54.1 L 264.2,53.2 L 264.0,53.1 L 263.6,53.2 L 263.3,53.3 L 262.9,53.3 L 262.4,53.7 L 262.2,53.6 L 262.2,52.9 L 261.9,52.7 L 261.7,52.4 L 261.8,51.8 L 261.4,51.4 L 260.8,51.3 L 260.7,51.1 L 260.5,50.9 L 260.2,50.8 L 259.8,51.0 L 259.4,51.0 L 259.4,50.8 L 259.5,50.8 L 259.3,50.6 L 258.9,50.7 L 258.7,51.0 L 258.1,51.3 L 257.1,52.1 L 256.7,52.1 L 256.6,52.0 L 256.3,52.0 L 255.4,52.4 L 254.7,52.4 L 254.4,51.9 L 254.4,51.5 L 255.0,51.1 L 256.5,50.5 L 256.8,50.3 L 257.5,49.9 L 257.7,49.7 L 258.1,49.4 L 258.4,49.6 L 258.7,49.5 L 258.7,49.4 L 270.3,52.9 L 281.0,56.1 L 344.4,75.0 L 343.9,75.1 L 343.6,75.2 L 343.9,75.9 L 344.5,75.9 L 344.9,75.7 L 345.2,75.7 L 345.8,75.5 L 346.6,75.5 L 346.9,75.8 L 346.9,76.1 L 346.9,76.5 L 346.2,77.0 L 345.8,77.0 L 345.1,77.1 L 344.4,77.6 L 344.2,77.3 L 343.7,77.2 L 343.3,76.9 L 342.5,76.7 L 341.9,77.4 L 342.0,78.4 L 342.2,78.7 L 342.7,78.9 L 343.3,78.8 L 343.7,79.2 L 343.7,79.6 L 344.1,80.0 L 344.3,80.1 L 344.7,80.6 L 345.0,81.2 L 345.0,81.8 L 344.8,82.2 L 344.3,82.3 L 343.6,82.4 L 343.1,82.7 L 343.0,83.3 L 342.7,83.7 L 341.4,85.1 L 340.7,85.4 L 340.2,85.6 L 340.1,86.0 L 339.9,86.3 L 339.8,86.7 L 340.1,86.6 L 340.6,86.7 L 341.0,87.2 L 340.9,87.8 L 339.4,88.9 L 338.8,88.8 L 337.9,89.0 L 336.8,89.5 L 335.3,90.4 L 334.9,90.6 L 334.6,90.8 L 333.7,91.5 L 333.6,92.2 L 333.9,92.3 L 334.0,92.5 L 333.6,93.2 L 333.7,93.4 L 333.5,93.7 L 333.5,94.3 L 333.8,94.6 L 334.0,95.0 L 333.6,96.2 L 333.0,96.9 L 332.9,96.9 L 332.9,97.5 L 332.9,97.6 L 333.0,97.8 L 334.1,97.8 L 337.2,97.2 L 339.7,96.4 L 340.6,96.1 L 342.4,95.8 L 343.1,95.5 L 346.5,95.0 L 347.6,95.1 L 349.1,94.9 L 349.4,95.1 L 349.4,95.4 L 349.7,95.3 L 350.1,95.1 L 350.1,94.7 L 350.6,94.5 L 350.8,94.4 L 351.8,94.1 L 353.8,92.7 L 355.1,92.2 L 360.0,99.3 L 359.6,99.6 L 359.5,100.1 L 360.0,100.7 L 360.0,101.4 L 359.8,101.9 L 359.6,102.1 L 358.8,102.6 L 358.4,103.0 L 358.3,103.4 L 358.5,103.7 L 358.5,104.2 L 358.4,104.4 L 357.7,104.9 L 357.6,105.2 L 357.7,105.6 L 357.5,106.1 L 356.6,106.9 L 356.3,107.6 L 355.4,108.3 L 354.8,108.4 L 354.2,108.8 L 353.3,108.9 L 353.1,109.1 L 352.9,109.6 L 352.9,110.1 L 353.4,111.2 L 353.3,111.8 L 353.0,112.2 L 351.2,113.3 L 350.9,113.7 L 350.3,114.0 L 350.1,114.1 L 349.9,114.4 L 348.8,114.8 L 347.7,115.8 L 347.2,116.3 L 347.1,116.6 L 347.2,117.3 L 347.5,117.8 L 348.5,118.2 L 348.9,118.9 L 349.5,119.4 L 349.6,120.4 L 349.0,121.3 L 348.8,121.8 L 348.0,122.3 L 346.7,123.1 L 345.8,123.6 L 345.0,124.0 L 344.9,124.3 L 345.1,124.5 L 345.1,124.7 L 345.2,124.8 L 345.6,124.9 L 345.8,125.2 L 345.8,125.7 L 345.5,126.1 L 344.8,126.9 L 345.2,127.3 L 345.4,127.9 L 345.4,128.3 L 345.2,129.0 L 345.4,129.6 L 345.6,129.9 L 346.2,130.0 L 347.3,130.1 L 347.5,130.2 L 347.8,130.7 L 348.9,131.8 L 349.7,132.9 L 349.8,133.7 L 349.6,134.5 L 349.4,135.0 L 348.0,136.9 L 347.3,137.4 L 347.7,138.0 L 347.8,138.3 L 347.7,139.3 L 347.4,139.7 L 347.0,140.7 L 346.5,140.7 L 346.5,141.2 L 346.8,141.6 L 347.8,141.8 L 348.1,142.0 L 348.2,142.5 L 348.4,142.8 L 348.5,143.0 L 348.7,143.4 L 349.5,143.6 L 350.1,144.0 L 350.6,144.2 L 351.0,144.4 L 351.7,146.6 L 351.9,147.6 L 351.5,149.0 L 351.1,149.4 L 350.8,149.8 L 350.9,150.2 L 350.4,150.6 L 350.0,151.1 L 349.4,151.7 L 348.5,152.0 L 348.4,151.8 L 348.1,151.8 L 347.9,152.1 L 347.2,152.8 L 347.0,153.5 L 347.2,153.8 L 347.4,153.8 L 347.6,154.0 L 347.6,154.5 L 347.7,155.1 L 348.3,156.0 L 348.5,155.9 L 348.6,155.6 L 349.0,155.3 L 349.8,155.3 L 350.2,155.2 L 350.6,155.3 L 350.9,155.7 L 351.2,155.4 L 351.5,155.0 L 351.9,154.6 L 352.2,154.5 L 353.2,155.2 L 353.6,155.5 L 354.0,156.2 L 354.2,156.8 L 354.6,157.5 L 354.6,157.7 L 354.6,158.5 L 354.0,159.7 L 353.6,160.1 L 353.2,160.2 L 352.8,160.6 L 352.2,162.2 L 351.6,163.2 L 350.8,163.9 L 349.5,165.1 L 349.2,165.6 L 348.8,165.9 L 347.9,166.2 L 347.4,166.6 L 347.6,167.2 L 347.3,167.4 L 347.1,168.1 L 346.1,168.4 L 345.9,168.6 L 345.8,169.2 L 345.2,169.6 L 344.2,170.1 L 344.1,170.4 L 343.7,171.0 L 343.6,171.6 L 343.6,172.4 L 343.7,172.7 L 344.4,174.0 L 344.4,174.0 L 344.8,174.6 L 344.8,175.0 L 344.5,175.5 L 344.4,175.9 L 345.1,176.7 L 344.9,176.9 L 345.0,177.3 L 345.2,177.4 L 345.5,177.5 L 346.0,178.0 L 346.3,178.8 L 346.5,179.1 L 347.4,179.2 L 347.7,179.4 L 348.0,180.0 L 348.2,181.9 L 347.9,182.6 L 347.2,183.1 L 346.8,183.0 L 346.7,183.3 L 346.4,183.6 L 345.9,183.6 L 345.7,183.6 L 345.6,183.8 L 345.2,184.2 L 345.3,184.5 L 345.4,184.7 L 345.9,184.7 L 346.1,184.6 L 346.9,184.4 L 347.1,184.7 L 347.4,185.2 L 347.4,185.8 L 347.4,186.0 L 348.1,186.1 L 349.5,186.6 L 349.8,187.0 L 349.7,188.0 L 349.5,188.7 L 348.9,189.4 L 348.0,190.0 L 347.2,189.9 L 346.8,190.3 L 346.3,190.3 L 345.9,190.8 L 345.1,191.1 L 342.6,193.4 L 341.9,194.3 L 340.8,195.3 L 339.3,197.1 L 338.6,198.1 L 338.1,198.7 L 337.5,199.0 L 335.8,199.4 L 335.1,199.4 L 335.1,198.9 L 334.7,198.8 L 334.0,199.0 L 333.9,198.9 L 334.2,198.0 L 334.2,197.6 L 334.4,197.5 L 334.3,197.1 L 333.6,197.1 L 333.2,196.6 L 332.8,196.6 L 332.3,196.8 L 332.2,196.9 L 331.8,197.2 L 331.7,197.8 L 331.6,198.0 L 331.5,198.4 L 331.7,198.9 L 332.3,199.3 L 332.5,199.9 L 332.4,200.3 L 332.1,200.5 L 332.1,200.8 L 332.4,201.0 L 332.3,201.7 L 333.0,202.9 L 333.0,203.2 L 332.3,204.1 L 331.8,204.6 L 331.4,204.8 L 330.9,204.5 L 330.8,205.0 L 330.6,204.9 L 330.4,205.1 L 330.3,205.4 L 330.0,205.5 L 329.6,204.7 L 329.2,204.5 L 327.9,204.3 L 327.9,203.8 L 327.6,203.6 L 327.3,203.4 L 326.8,203.1 L 325.9,202.8 L 325.5,202.9 L 325.2,202.8 L 325.1,202.7 L 324.8,202.8 L 324.8,203.2 L 324.6,203.3 L 324.2,203.3 L 323.9,203.0 L 323.1,202.9 L 322.9,202.9 L 322.7,202.7 L 322.9,201.8 L 322.8,201.4 L 322.6,201.1 L 322.5,200.9 L 322.3,200.6 L 322.0,200.5 L 321.2,200.7 L 320.8,201.1 L 320.0,201.6 L 319.5,201.6 L 319.0,202.0 L 318.4,202.0 L 318.0,202.1 L 317.1,202.1 L 316.4,201.7 L 315.9,201.0 L 315.5,200.6 L 315.3,200.3 L 315.1,199.9 L 314.8,199.6 L 314.1,199.2 L 313.5,199.2 L 312.7,199.4 L 312.1,199.3 L 311.1,199.2 L 310.3,199.4 L 309.0,199.2 L 309.0,199.2 L 308.6,199.0 L 308.3,198.2 L 308.4,197.6 L 308.1,197.3 L 307.5,197.4 L 307.3,197.2 L 307.3,196.7 L 305.2,196.3 L 304.1,196.9 L 302.6,197.4 L 301.2,198.1 L 300.4,198.3 L 298.9,198.1 L 298.0,198.2 L 297.8,198.0 L 297.2,197.6 L 296.2,197.5 L 295.9,197.6 L 295.3,198.1 L 293.9,198.8 L 292.5,199.3 L 291.7,199.8 L 291.2,199.7 L 290.4,200.0 L 289.9,200.3 L 289.7,200.5 L 289.7,200.8 L 289.3,201.1 L 288.3,201.4 L 287.9,201.6 L 287.8,202.0 L 286.7,202.6 L 286.3,202.6 L 285.6,202.8 L 285.1,203.1 L 284.3,203.0 L 283.8,203.1 L 283.1,203.1 L 282.9,202.9 L 282.8,202.5 L 282.6,202.4 L 282.4,202.4 L 281.9,202.8 L 281.5,202.7 L 281.1,202.4 L 281.1,201.8 L 281.0,201.5 L 281.3,201.1 L 280.9,200.8 L 280.5,200.7 L 279.9,200.8 L 279.3,201.4 L 279.3,201.8 L 279.4,202.0 L 279.6,202.2 L 279.9,202.3 L 280.2,202.6 L 280.1,203.0 L 279.9,203.3 L 279.8,203.2 L 279.4,203.7 L 279.2,204.1 L 278.9,204.6 L 278.4,204.8 L 278.1,204.6 L 277.8,204.6 L 277.7,204.9 L 277.2,204.9 L 276.6,205.4 L 276.1,205.2 L 275.9,205.3 L 275.7,205.7 L 275.5,206.1 L 275.1,206.6 L 274.0,207.4 L 273.9,207.8 L 273.6,208.4 L 273.8,208.7 L 273.8,209.5 L 273.9,210.1 L 273.9,211.0 L 273.6,211.6 L 272.9,212.1 L 272.6,212.1 L 272.1,212.5 L 271.3,212.8 L 271.2,213.4 L 272.0,214.3 L 272.0,215.4 L 272.4,216.0 L 272.5,216.6 L 272.5,217.9 L 272.2,218.2 L 271.0,218.9 L 270.7,218.8 L 270.5,219.1 L 269.7,219.7 L 269.3,219.7 L 268.7,219.8 L 267.4,220.3 L 266.6,220.7 L 266.0,220.7 L 264.7,220.9 L 264.0,221.2 L 263.5,221.2 L 263.2,221.4 L 262.9,222.5 L 263.0,223.0 L 262.8,223.4 L 262.9,223.6 L 263.3,223.9 L 263.3,224.2 L 263.2,224.7 L 262.1,225.3 L 261.1,225.8 L 260.3,226.2 L 259.8,226.5 L 259.5,226.6 L 258.8,226.9 L 257.8,226.9 L 256.9,227.4 L 256.4,227.4 L 256.2,227.2 L 256.0,227.1 L 254.9,227.4 L 254.0,228.0 L 253.7,228.4 L 253.3,228.8 L 252.9,228.9 L 252.6,229.1 L 252.5,229.6 L 252.6,230.1 L 252.9,230.2 L 253.1,230.4 L 253.0,231.1 L 252.7,231.7 L 251.9,232.6 L 251.4,232.8 L 251.2,233.2 L 251.0,234.0 L 250.7,234.3 L 250.6,235.2 L 250.7,235.6 L 251.1,235.6 L 251.3,235.8 L 251.4,236.5 L 251.6,237.3 L 251.5,237.5 L 250.9,237.6 L 250.7,237.7 L 250.7,238.0 L 251.6,239.2 L 251.6,239.7 L 251.9,240.4 L 252.2,240.6 L 252.4,240.5 L 252.8,240.7 L 253.4,241.5 L 253.8,241.8 L 254.4,242.5 L 255.1,242.9 L 255.4,243.4 L 255.5,244.3 L 255.3,245.2 L 255.1,245.7 L 254.9,246.0 L 254.1,245.9 L 254.0,246.0 L 254.1,246.2 L 253.6,247.4 L 253.8,248.0 L 254.0,248.0 L 254.3,248.4 L 255.8,248.5 L 256.0,248.7 L 256.0,249.1 L 256.4,249.8 L 256.3,249.9 L 255.9,250.1 L 255.2,249.7 L 254.5,249.9 L 253.6,251.1 L 253.2,251.4 L 253.1,252.2 L 252.9,252.5 L 252.8,253.0 L 253.0,253.4 L 253.5,253.9 L 254.3,254.1 L 254.6,254.2 L 255.2,254.4 L 256.3,254.4 L 257.7,253.9 L 258.2,253.8 L 258.8,253.8 L 259.2,254.2 L 259.3,254.4 L 259.5,254.8 L 259.5,255.5 L 259.5,255.8 L 259.8,255.9 L 260.1,256.5 L 260.6,257.0 L 260.8,258.4 L 259.7,260.3 L 259.3,260.6 L 258.6,260.7 L 258.3,260.7 L 257.5,261.0 L 257.3,261.2 L 257.2,261.8 L 257.0,262.1 L 256.8,262.3 L 256.4,263.1 L 255.9,263.6 L 255.4,263.6 L 255.1,263.7 L 255.0,263.3 L 254.8,263.2 L 254.4,263.4 L 254.0,263.3 L 253.7,263.0 L 252.6,262.9 L 251.6,263.4 L 250.2,263.3 L 249.8,263.4 L 249.3,264.0 L 248.6,264.1 L 248.3,264.4 L 248.0,264.8 L 247.7,265.0 L 247.9,265.7 L 248.0,265.9 L 248.7,266.0 L 248.6,266.4 L 248.8,266.6 L 249.3,266.8 L 249.7,266.9 L 250.3,267.2 L 250.7,267.8 L 251.0,268.3 L 250.7,268.6 L 250.8,269.2 L 251.9,270.3 L 251.9,270.8 L 251.4,271.2 L 251.1,271.4 L 251.0,271.7 L 251.1,272.2 L 251.1,273.0 L 250.9,273.3 L 250.8,273.6 L 250.6,273.9 L 250.5,274.9 L 250.7,275.1 L 251.0,274.9 L 251.3,274.9 L 251.5,275.3 L 251.5,276.2 L 251.5,276.3 L 251.6,276.7 L 252.5,277.4 L 253.0,277.8 L 253.1,278.3 L 253.7,279.1 L 253.6,279.6 L 253.3,280.2 L 252.6,280.6 L 252.3,280.5 L 252.1,280.2 L 251.2,279.7 L 250.9,279.3 L 250.6,279.3 L 250.3,280.1 L 249.9,280.4 L 249.2,280.2 L 247.7,280.2 L 247.2,280.0 L 246.9,280.2 L 246.5,281.7 L 246.4,282.8 L 248.2,284.6 L 248.8,284.9 L 250.0,285.6 L 250.1,286.0 L 250.1,286.2 L 249.9,286.9 L 249.4,288.0 L 249.3,288.0 L 249.2,288.1 L 249.1,288.1 L 249.1,288.1 L 249.1,288.1 L 249.1,288.2 L 249.0,289.7 L 249.1,290.4 L 249.1,290.9 L 248.6,291.7 L 248.5,292.1 L 248.5,292.5 L 248.4,292.9 L 248.3,293.1 L 248.3,294.7 L 248.1,295.3 L 247.8,295.9 L 247.5,296.7 L 247.6,297.2 L 247.9,297.5 L 248.4,297.8 L 248.6,298.1 L 248.6,298.6 L 249.4,298.7 L 249.9,298.9 L 251.0,299.0 L 251.6,298.9 L 252.5,299.0 L 252.9,299.2 L 253.4,299.9 L 253.4,300.0 L 255.6,301.8 L 256.2,301.9 L 257.0,302.6 L 257.6,302.9 L 258.7,302.9 L 258.9,303.0 L 258.8,303.6 L 258.7,303.9 L 258.3,304.0 L 258.2,304.2 L 258.3,304.5 L 258.1,305.0 L 257.9,305.2 L 257.3,305.2 L 255.2,304.1 L 253.8,303.9 L 253.3,303.6 L 253.1,303.4 L 251.9,302.4 L 251.2,302.0 L 249.7,301.9 L 248.7,302.2 L 248.3,302.2 L 247.7,302.1 L 247.4,302.1 L 247.1,302.1 L 246.2,302.7 L 245.7,302.7 L 244.5,302.7 L 243.4,302.9 L 242.8,302.6 L 241.8,302.6 L 241.1,302.3 L 240.7,302.4 L 239.4,302.3 L 239.2,302.4 L 239.1,303.3 L 238.8,303.8 L 238.5,304.1 L 237.3,305.3 L 236.8,306.0 L 236.7,306.6 L 236.9,306.8 L 237.4,306.6 L 237.7,306.5 L 237.9,306.6 L 237.9,306.9 L 237.6,307.5 L 237.5,308.2 L 237.1,308.5 L 236.6,308.4 L 236.5,308.5 L 236.7,308.7 L 236.7,309.0 L 236.5,309.1 L 236.3,308.8 L 235.8,308.7 L 235.6,308.9 L 235.5,309.4 L 235.7,309.5 L 235.9,309.4 L 236.1,309.7 L 236.3,309.7 L 236.4,309.7 L 235.9,310.1 L 222.1,321.1 L 222.1,321.1 L 220.1,320.8 L 219.7,320.9 L 217.2,322.0 L 216.4,322.1 L 216.1,322.1 L 214.4,321.9 L 213.7,321.4 L 213.2,320.8 L 212.9,320.0 L 212.8,319.5 L 214.0,318.3 L 214.4,317.6 L 214.9,317.2 L 215.1,317.2 L 215.3,316.9 L 215.2,316.4 L 215.0,316.1 L 214.6,316.0 L 213.2,316.6 L 212.8,317.1 L 212.5,317.7 L 212.1,318.0 L 211.4,318.1 L 211.3,318.3 L 211.0,318.4 L 210.1,318.2 L 209.6,317.9 L 209.4,317.6 L 209.0,317.0 L 208.6,316.3 L 208.3,315.7 L 208.0,314.9 L 208.1,313.1 L 208.8,312.9 L 209.2,312.9 L 209.5,312.7 L 209.6,312.3 L 208.8,311.5 L 208.4,311.3 L 208.1,311.0 L 208.0,310.5 L 208.2,309.3 L 208.5,308.8 L 209.1,308.2 L 209.4,307.7 L 209.4,307.4 L 209.1,306.9 L 208.2,306.0 L 208.1,305.7 L 208.1,305.3 L 207.7,304.7 L 207.5,303.9 L 207.6,303.0 L 207.4,302.6 L 207.3,302.0 L 207.0,301.7 L 206.4,301.7 L 205.6,300.6 L 205.0,300.3 L 204.3,300.0 L 202.9,299.8 L 201.7,300.0 L 201.3,300.0 L 199.4,299.9 L 199.0,299.7 L 198.8,299.3 L 198.9,299.2 L 199.5,298.6 L 199.4,298.2 L 199.7,297.8 L 200.1,297.4 L 200.1,296.9 L 200.0,296.7 L 199.3,296.6 L 198.6,296.3 L 198.5,295.7 L 198.6,294.7 L 198.7,293.0 L 198.6,292.2 L 198.3,291.8 L 198.0,291.7 L 197.5,291.5 L 196.8,290.8 L 196.3,290.7 L 195.9,290.2 L 195.5,289.4 L 195.3,289.1 L 194.9,289.0 L 194.2,289.5 L 192.9,290.1 L 190.9,290.7 L 190.1,290.7 L 189.7,291.0 L 189.2,291.4 L 188.0,291.6 L 187.8,291.9 L 187.3,292.3 L 186.3,293.0 L 185.4,293.3 L 184.7,293.6 L 183.5,293.5 L 182.9,293.2 L 182.5,292.9 L 182.3,292.2 L 182.0,291.9 L 181.9,291.6 L 182.2,291.3 L 182.2,291.0 L 181.1,290.7 L 180.1,290.5 L 179.4,290.7 L 179.0,291.2 L 178.3,291.7 L 177.0,291.7 L 175.9,292.5 L 175.2,292.9 L 174.9,293.1 L 173.6,293.8 L 172.8,294.3 L 172.5,294.4 L 172.2,294.2 L 171.8,294.1 L 171.3,294.2 L 171.1,294.5 L 171.3,294.9 L 171.3,295.6 L 170.8,295.9 L 170.3,295.9 L 170.0,295.7 L 169.6,295.6 L 169.0,295.9 L 167.9,296.2 L 167.5,296.3 L 167.1,296.7 L 166.8,297.1 L 166.6,297.6 L 166.0,298.0 L 165.4,298.0 L 164.2,298.9 L 163.5,299.2 L 163.0,299.3 L 162.3,299.4 L 161.6,299.5 L 161.3,299.6 L 160.4,299.6 L 159.8,300.0 L 158.5,300.5 L 157.6,300.5 L 157.6,300.5 L 157.0,300.5 L 155.7,301.3 L 154.4,302.3 L 154.0,302.8 L 153.7,304.8 L 153.2,305.4 L 152.9,305.6 L 149.5,307.7 L 147.3,308.6 L 146.3,309.4 L 146.1,310.3 L 146.6,312.6 L 146.6,314.0 L 146.6,314.6 L 146.6,314.9 L 146.5,315.5 L 146.4,317.3 L 146.3,319.1 L 146.3,319.5 L 145.9,322.0 L 145.5,323.4 L 144.8,325.0 L 144.7,325.2 L 143.6,326.4 L 142.4,326.3 L 142.1,326.4 L 142.1,326.9 L 141.7,327.1 L 141.1,327.0 L 140.1,327.4 L 139.2,327.3 L 138.9,327.2 L 139.0,327.0 L 139.3,326.7 L 139.3,326.5 L 138.8,326.3 L 138.2,326.4 L 137.4,326.2 L 136.9,326.4 L 136.7,326.6 L 136.4,327.4 L 136.0,327.8 L 134.9,327.7 L 134.6,327.9 L 134.8,328.2 L 134.7,328.5 L 134.3,328.5 L 134.0,328.8 L 133.3,329.3 L 133.5,330.2 L 133.9,330.5 L 133.8,331.4 L 133.4,331.9 L 133.6,332.1 L 133.6,332.5 L 133.8,332.7 L 133.9,333.0 L 134.1,333.2 L 134.2,333.3 L 134.6,334.1 L 135.0,333.9 L 135.1,334.0 L 135.0,334.6 L 135.2,335.0 L 135.4,335.2 L 135.6,334.9 L 136.1,335.1 L 136.4,335.2 L 136.3,335.3 L 120.0,350.5 L 119.9,350.3 L 119.2,350.2 L 119.0,350.1 L 122.6,345.8 L 122.9,345.7 L 123.4,345.7 L 123.6,345.5 L 123.7,344.8 L 123.9,344.5 L 123.7,344.1 L 123.6,343.8 L 123.5,343.6 L 123.6,343.3 L 123.5,343.1 L 123.1,342.8 L 122.5,342.8 L 122.2,343.0 L 122.1,343.8 L 122.6,344.2 L 122.3,344.5 L 122.4,344.9 L 122.0,344.9 L 122.0,345.3 L 122.1,345.4 L 122.1,345.6 L 117.9,350.5 L 117.5,350.5 L 117.5,349.9 L 117.5,349.1 L 117.5,348.8 L 117.7,348.1 L 117.5,348.0 L 117.4,348.0 L 117.3,348.8 L 117.0,349.2 L 116.9,349.7 L 116.8,350.4 L 116.6,350.6 L 116.0,350.5 L 115.3,350.1 L 114.9,349.8 L 114.5,349.4 L 113.8,348.9 L 113.6,348.7 L 113.0,348.6 L 112.1,348.1 L 111.6,347.7 L 111.3,347.4 L 111.7,347.0 L 112.0,346.8 L 111.9,346.1 L 112.1,344.9 L 112.6,344.3 L 112.5,344.0 L 112.5,343.6 L 112.0,343.4 L 111.3,343.3 L 110.6,343.1 L 110.1,342.6 L 109.6,342.5 L 109.4,342.7 L 107.8,343.8 L 106.6,344.1 L 105.5,344.0 L 105.2,344.1 L 105.2,344.2 L 105.7,344.6 L 105.6,344.9 L 105.7,345.1 L 106.0,345.2 L 106.2,345.7 L 106.4,346.1 L 105.8,346.3 L 104.7,346.4 L 103.5,346.4 L 102.3,346.5 L 101.8,347.1 L 101.5,347.3 L 100.8,347.7 L 100.0,347.8 L 99.4,347.8 L 99.1,348.0 L 98.7,348.7 L 98.2,349.3 L 97.8,349.5 L 97.6,349.4 L 97.6,349.1 L 97.6,348.8 L 97.4,348.6 L 97.1,348.7 L 96.7,349.0 L 95.9,349.2 L 95.6,349.2 L 95.4,349.0 L 95.3,348.6 L 95.1,348.5 L 94.7,348.4 L 94.6,348.1 L 94.7,347.5 L 94.4,347.2 L 93.7,346.8 L 93.3,346.5 L 93.3,346.5 L 93.5,346.4 L 93.9,346.5 L 94.5,346.0 L 95.2,345.6 L 95.8,345.1 L 96.4,344.6 L 96.8,344.2 L 96.9,343.5 L 96.7,342.7 L 96.5,342.5 L 96.1,342.1 L 95.4,341.9 L 94.0,341.3 L 93.8,341.1 L 93.7,340.9 L 93.4,340.6 L 93.4,339.9 L 93.4,338.7 L 93.4,338.5 L 93.4,338.0 L 93.3,337.5 L 93.4,337.1 L 93.6,336.9 L 93.9,336.8 L 94.4,336.6 L 95.0,336.7 L 95.0,336.4 L 94.7,336.0 L 93.7,335.9 L 93.6,335.9 L 93.1,335.3 L 93.1,334.9 L 92.2,334.2 L 92.0,333.8 L 91.4,333.6 L 91.2,333.3 L 91.1,333.0 L 91.4,331.1 L 91.1,330.6 L 89.8,331.0 L 86.9,332.2 L 86.4,332.6 L 86.2,333.1 L 86.4,333.4 L 87.5,333.8 L 87.3,334.0 L 87.5,334.1 L 88.3,334.5 L 88.4,334.7 L 88.0,336.2 L 87.7,336.7 L 87.6,336.8 L 87.0,337.0 L 86.8,336.8 L 86.7,336.4 L 86.1,336.9 L 85.4,337.2 L 84.6,337.5 L 83.9,337.8 L 83.2,337.9 L 82.4,337.9 L 81.8,337.8 L 81.7,337.7 L 81.6,337.4 L 80.8,337.3 L 80.8,337.4 L 80.6,338.1 L 80.4,338.7 L 80.2,339.0 L 79.7,339.1 L 78.9,339.1 L 78.5,339.0 L 76.8,338.6 L 75.7,338.2 L 75.5,338.3 L 75.3,337.9 L 74.1,337.6 L 72.6,337.4 L 71.5,337.1 L 69.3,335.9 L 69.0,335.6 L 67.1,334.5 L 66.9,334.3 L 66.9,334.0 L 67.0,333.8 L 67.8,332.8 L 67.4,332.6 L 67.1,332.5 L 66.6,332.4 L 66.6,332.4 L 66.3,332.4 L 65.7,332.5 L 65.4,332.8 L 65.2,333.7 L 64.8,333.7 L 64.6,333.6 L 63.8,333.4 L 63.7,333.2 L 63.4,333.0 L 63.2,333.4 L 62.4,333.4 L 57.8,332.8 L 57.6,332.9 L 57.2,332.9 L 56.9,333.1 L 52.3,333.3 L 50.3,333.4 L 48.9,333.5 L 48.0,333.4 L 48.0,333.3 L 40.0,296.2 L 42.2,295.6 L 43.5,294.6 L 44.3,294.3 L 45.1,293.7 L 45.4,293.5 L 45.4,293.2 L 46.3,292.2 L 47.0,291.5 L 48.1,290.7 L 48.7,290.3 L 50.6,288.6 L 52.0,287.4 L 54.3,285.8 L 55.1,285.1 L 56.0,284.6 L 56.5,284.4 L 57.3,284.1 L 58.3,283.6 L 59.2,283.1 L 59.6,282.8 L 60.7,282.3 L 62.0,281.8 L 63.2,281.0 L 65.4,279.3 L 66.0,279.3 L 66.1,279.0 L 67.4,278.0 L 67.8,277.8 L 68.5,277.1 L 68.7,276.7 L 69.0,276.4 L 69.9,275.4 L 71.0,274.4 L 71.6,274.1 L 71.9,273.7 L 72.8,272.9 L 72.9,272.7 L 73.1,272.4 L 73.2,271.8 L 73.6,270.4 L 73.6,270.4 L 73.7,270.4 L 74.1,270.1 L 74.6,269.4 L 75.0,268.5 L 75.0,268.5 L 75.0,268.5 L 76.0,268.1 L 78.6,266.1 L 79.3,265.6 L 80.4,264.6 L 81.4,263.3 L 81.5,262.8 L 81.6,262.1 L 81.9,261.6 L 82.6,260.5 L 82.7,260.0 L 82.7,259.5 L 82.8,258.6 L 83.4,257.8 L 83.5,257.3 L 83.9,256.2 L 84.6,255.1 L 85.0,254.5 L 85.2,254.0 L 85.2,253.7 L 85.1,253.4 L 85.0,253.1 L 84.7,252.8 L 83.7,252.7 L 106.9,229.1 L 107.3,228.7 L 107.4,228.7 L 108.2,228.4 L 108.8,228.3 L 109.2,228.6 L 110.0,228.5 L 110.3,228.2 L 110.3,227.9 L 110.4,227.9 L 111.0,228.1 L 111.4,228.1 L 111.8,227.9 L 112.5,228.0 L 113.1,227.5 L 114.0,227.6 L 114.9,227.4 L 115.6,227.4 L 116.4,227.4 L 116.6,227.2 L 117.1,226.5 L 117.5,226.2 L 117.9,226.1 L 118.2,226.3 L 118.4,226.6 L 118.5,227.0 L 118.2,227.6 L 117.9,227.9 L 117.4,228.0 L 117.0,228.2 L 116.9,229.1 L 116.3,229.9 L 115.7,230.4 L 115.6,231.1 L 116.0,231.6 L 116.3,231.6 L 116.6,231.3 L 117.1,230.9 L 117.6,231.1 L 118.6,231.3 L 119.5,231.4 L 120.0,231.2 L 120.9,231.3 L 121.2,231.7 L 121.3,232.2 L 120.9,232.4 L 120.3,232.5 L 119.5,232.8 L 119.0,233.1 L 118.8,234.0 L 118.9,234.2 L 119.2,234.3 L 119.4,234.7 L 119.9,235.1 L 120.6,235.5 L 121.2,235.6 L 121.3,235.3 L 121.4,234.7 L 122.2,234.2 L 122.7,234.2 L 123.0,233.9 L 123.1,233.5 L 123.3,233.4 L 123.7,233.5 L 123.7,233.3 L 123.3,232.7 L 123.3,232.5 L 123.5,232.3 L 123.4,231.9 L 123.6,231.8 L 124.3,231.5 L 125.1,230.9 L 125.5,230.4 L 125.7,230.3 L 126.5,230.3 L 126.9,230.0 L 127.7,229.9 L 128.4,229.8 L 129.1,229.8 L 129.3,230.2 L 129.3,230.5 L 128.8,231.0 L 128.3,231.2 L 128.2,231.6 L 128.6,231.9 L 129.0,231.9 L 129.2,231.1 L 129.4,230.9 L 130.1,231.0 L 130.1,231.2 L 129.9,231.4 L 130.0,231.6 L 130.3,231.6 L 130.5,231.4 L 130.8,231.4 L 131.1,231.3 L 131.3,231.5 L 131.7,231.6 L 131.8,232.2 L 132.3,232.1 L 132.7,231.8 L 133.7,231.9 L 134.2,231.7 L 134.7,231.3 L 135.0,230.9 L 135.4,231.3 L 135.6,231.5 L 135.3,231.9 L 135.2,232.1 L 135.2,232.4 L 135.5,232.5 L 135.5,232.8 L 135.2,232.9 L 134.6,233.0 L 134.5,233.2 L 134.6,233.4 L 135.1,233.5 L 135.8,233.3 L 136.4,233.3 L 136.4,233.5 L 136.8,233.6 L 137.1,233.4 L 137.2,233.1 L 137.7,232.6 L 137.9,232.0 L 137.9,230.5 L 137.6,230.2 L 137.9,229.8 L 138.0,229.6 L 138.4,229.6 L 138.8,229.4 L 138.9,229.6 L 139.0,230.3 L 139.3,230.7 L 139.8,230.7 L 140.4,230.6 L 140.7,230.6 L 141.6,230.5 L 142.1,230.5 L 142.6,230.2 L 143.0,230.2 L 143.1,230.4 L 142.7,230.9 L 142.9,231.0 L 143.4,231.1 L 143.7,230.9 L 143.8,230.3 L 144.2,230.0 L 144.8,229.9 L 145.4,230.0 L 145.7,230.3 L 145.9,230.6 L 147.4,230.5 L 148.2,230.2 L 148.6,230.0 L 148.8,229.6 L 148.8,228.9 L 148.8,228.5 L 148.4,228.1 L 147.7,227.5 L 147.4,227.4 L 147.0,227.5 L 144.7,227.4 L 144.4,227.2 L 144.3,226.8 L 144.4,226.4 L 144.9,225.9 L 146.0,225.5 L 146.2,225.3 L 146.2,224.8 L 146.0,224.4 L 145.8,224.3 L 145.4,224.3 L 145.2,224.0 L 144.8,223.9 L 144.2,223.3 L 143.9,223.3 L 143.6,223.4 L 142.3,223.7 L 141.0,224.2 L 140.5,224.2 L 139.9,223.8 L 139.1,223.3 L 138.8,223.3 L 138.7,222.7 L 139.0,222.3 L 138.6,221.8 L 138.0,221.7 L 137.3,221.2 L 137.2,220.8 L 136.4,220.7 L 136.2,220.6 L 135.4,220.8 L 133.2,221.3 L 132.7,221.3 L 132.2,220.9 L 131.6,220.4 L 131.1,219.9 L 130.7,219.5 L 130.4,219.2 L 130.1,218.9 L 129.7,218.5 L 129.4,218.0 L 129.1,217.4 L 129.0,216.9 L 129.0,216.6 L 129.2,216.4 L 129.4,216.2 L 129.8,216.1 L 129.8,215.7 L 129.6,215.7 L 129.6,214.8 L 129.6,214.6 L 129.9,214.1 L 129.9,213.9 L 129.7,213.7 L 128.9,213.5 L 128.9,213.3 L 128.1,213.2 L 128.0,213.5 L 127.9,214.1 L 127.9,214.5 L 127.8,215.1 L 127.3,215.0 L 127.2,214.8 L 127.2,214.4 L 127.2,214.2 L 126.6,213.9 L 126.2,214.1 L 126.0,214.1 L 126.0,213.9 L 125.9,211.3 L 125.9,211.2 L 126.2,211.5 L 126.7,211.6 L 127.1,212.0 L 127.4,212.0 L 127.7,211.9 L 127.8,212.0 L 128.1,211.9 L 128.1,212.2 L 127.9,212.4 L 128.1,212.5 L 129.1,212.5 L 129.5,212.0 L 130.8,212.1 L 131.2,212.5 L 132.1,212.6 L 132.1,213.0 L 132.2,213.1 L 132.7,212.9 L 133.7,213.3 L 134.1,213.6 L 135.0,214.2 L 136.0,214.5 L 136.9,215.3 L 139.8,215.6 L 140.4,215.8 L 140.8,215.7 L 141.2,215.8 L 141.6,216.0 L 142.2,216.3 L 142.4,216.6 L 142.7,217.1 L 143.0,216.9 L 143.5,216.9 L 144.1,217.1 L 146.6,218.5 L 147.6,218.5 L 147.8,218.3 L 148.0,217.8 L 148.4,217.4 L 148.6,217.0 L 149.7,216.9 L 151.0,217.2 L 152.8,218.2 L 153.6,218.5 L 154.5,219.0 L 154.9,219.4 L 155.6,219.5 L 157.2,220.4 L 157.7,221.0 L 158.7,221.9 L 159.3,222.2 L 160.5,223.3 L 161.3,223.9 L 162.4,224.6 L 163.6,225.4 L 165.3,226.3 L 166.3,226.8 L 167.0,227.2 L 167.1,227.3 L 171.1,228.4 L 171.8,228.5 L 173.3,227.8 L 174.3,227.7 L 174.8,227.7 L 175.5,227.3 L 176.0,226.9 L 176.7,226.5 L 176.6,226.3 L 176.4,226.0 L 176.3,225.4 L 176.0,225.1 L 176.0,223.9 L 175.8,223.2 L 175.8,222.3 L 175.6,221.9 L 175.5,221.0 L 176.3,219.8 L 176.4,219.2 L 176.9,218.9 L 178.4,218.5 L 178.4,218.5 L 178.5,218.6 L 179.3,218.7 L 179.8,219.0 L 183.5,219.5 L 184.2,219.9 L 184.6,219.9 L 185.6,219.2 L 186.1,218.7 L 186.5,218.6 L 187.1,218.0 L 187.2,217.9 L 187.5,217.6 L 187.4,216.5 L 187.3,216.3 L 186.9,215.1 L 185.5,213.8 L 184.9,213.3 L 184.3,212.8 L 183.8,212.2 L 183.8,211.2 L 183.5,210.8 L 183.0,210.5 L 182.2,210.0 L 182.1,209.9 L 182.2,209.7 L 182.1,209.2 L 182.5,209.3 L 182.8,210.0 L 183.1,210.3 L 183.7,210.4 L 184.1,210.7 L 184.4,210.7 L 184.6,210.5 L 184.6,210.3 L 185.2,210.3 L 186.0,210.1 L 186.4,209.6 L 186.9,209.2 L 187.7,209.0 L 188.1,208.8 L 188.9,208.0 L 189.4,207.3 L 189.2,207.0 L 188.4,206.5 L 188.3,206.5 L 188.2,206.2 L 188.4,205.7 L 188.8,205.2 L 189.0,205.1 L 189.9,204.4 L 192.3,203.5 L 195.1,202.8 L 195.7,202.4 L 197.0,201.1 L 199.0,200.1 L 199.9,199.9 L 203.0,199.5 L 203.9,199.5 L 205.2,198.4 L 205.6,198.3 L 206.0,197.7 L 206.4,197.2 L 206.7,196.6 L 206.9,196.0 L 207.0,195.3 L 207.4,194.7 L 208.7,193.6 L 208.9,193.0 L 209.6,192.2 L 213.2,189.1 L 214.5,188.4 L 215.4,187.7 L 216.3,187.2 L 217.9,186.5 L 220.4,185.6 L 221.8,185.4 L 222.5,185.3 L 224.9,184.6 L 225.6,184.2 L 226.6,182.9 L 227.5,182.0 L 227.9,181.9 L 228.6,181.7 L 229.7,181.8 L 230.1,182.0 L 230.1,182.5 L 230.3,182.5 L 231.2,182.1 L 231.8,181.8" fill="none" stroke="black" stroke-width="2"/>
</svg>