<?xml version="1.0" encoding="UTF-8"?>
<svg width="400" height="400" viewBox="0 0 400 400" xmlns="http://www.w3.org/2000/svg">
  <rect width="400" height="400" fill="white"/>
  <path d="M 193.3,211.6 L 193.8,210.9 L 193.9,208.1 L 193.8,205.0 L 190.2,199.6 L 190.2,198.2 L 190.7,196.5 L 191.2,195.2 L 194.5,191.4 L 194.0,190.8 L 193.8,189.4 L 194.0,186.9 L 193.5,186.0 L 191.5,184.6 L 191.1,183.1 L 191.1,181.1 L 191.8,179.5 L 192.4,178.6 L 191.7,176.3 L 190.4,175.7 L 189.3,175.0 L 188.9,174.6 L 186.2,174.3 L 182.0,175.5 L 178.2,176.9 L 173.7,177.7 L 171.8,177.5 L 171.0,177.0 L 169.9,176.6 L 169.3,176.2 L 166.7,175.6 L 165.6,174.8 L 165.4,174.3 L 165.7,173.6 L 165.8,173.2 L 164.8,172.2 L 161.1,171.9 L 160.1,172.1 L 158.9,172.6 L 157.9,173.0 L 156.0,173.2 L 152.2,173.0 L 151.0,172.6 L 150.7,172.0 L 150.8,170.9 L 151.3,170.6 L 151.8,170.1 L 151.4,169.6 L 149.8,168.5 L 148.5,167.9 L 147.9,167.8 L 146.3,166.6 L 145.0,165.7 L 143.8,165.5 L 140.1,165.3 L 138.6,164.9 L 131.7,164.0 L 126.6,164.2 L 123.9,164.1 L 123.1,163.0 L 122.1,162.6 L 121.5,161.8 L 120.6,161.7 L 120.6,161.2 L 120.7,160.6 L 121.9,159.3 L 123.0,158.5 L 123.4,158.0 L 122.8,157.3 L 121.7,156.7 L 120.8,154.5 L 120.9,153.2 L 121.0,152.7 L 121.5,152.5 L 122.3,152.5 L 122.5,152.2 L 121.3,151.3 L 120.4,151.1 L 119.4,149.7 L 118.6,149.0 L 118.2,147.5 L 118.3,145.4 L 117.9,144.9 L 117.4,145.1 L 113.3,147.6 L 112.2,147.9 L 112.1,148.0 L 111.2,148.0 L 110.1,147.0 L 111.3,147.5 L 112.0,147.6 L 114.6,146.0 L 114.0,145.6 L 113.3,144.9 L 113.5,144.5 L 114.2,144.3 L 115.6,144.3 L 118.8,143.4 L 119.6,142.7 L 119.6,142.0 L 118.9,141.4 L 117.4,141.0 L 115.1,141.0 L 112.9,141.2 L 110.3,141.4 L 108.7,141.2 L 108.4,140.7 L 108.4,139.7 L 107.8,139.3 L 107.4,138.8 L 107.3,137.6 L 107.8,137.3 L 109.1,137.1 L 109.2,136.7 L 108.6,136.2 L 108.9,135.2 L 109.0,134.4 L 109.8,133.7 L 110.0,132.9 L 111.1,132.1 L 112.4,131.5 L 112.8,130.6 L 112.4,130.3 L 110.1,130.8 L 109.3,130.6 L 108.7,129.7 L 109.1,128.1 L 110.0,127.4 L 110.9,127.1 L 112.5,125.8 L 112.5,125.3 L 112.8,124.9 L 112.4,124.0 L 113.7,123.6 L 113.7,123.2 L 113.3,122.7 L 112.2,122.5 L 110.7,122.7 L 110.6,122.5 L 109.2,121.6 L 108.2,121.4 L 107.2,121.7 L 104.9,121.8 L 102.9,121.7 L 101.8,121.4 L 101.1,121.0 L 98.9,121.8 L 97.8,121.9 L 96.2,121.8 L 96.1,121.7 L 95.7,121.5 L 95.3,120.6 L 94.1,119.5 L 92.7,118.2 L 90.4,117.2 L 89.4,116.1 L 88.4,115.6 L 87.2,114.5 L 84.6,113.9 L 82.6,113.0 L 81.1,111.8 L 80.5,111.1 L 80.2,110.0 L 80.3,108.6 L 80.8,108.3 L 80.2,107.8 L 75.5,106.7 L 74.1,107.1 L 72.2,107.2 L 70.9,107.1 L 70.2,106.8 L 69.4,106.6 L 68.8,106.0 L 67.4,107.2 L 66.7,107.0 L 66.4,106.1 L 65.9,106.2 L 65.4,106.6 L 64.0,106.2 L 63.2,105.4 L 62.9,104.8 L 62.2,104.7 L 61.4,104.2 L 59.1,102.2 L 55.9,100.4 L 54.5,100.0 L 54.0,99.7 L 53.6,99.1 L 53.2,99.3 L 49.2,98.9 L 47.3,98.6 L 46.0,99.1 L 45.3,98.2 L 43.2,97.7 L 41.5,96.8 L 40.1,95.0 L 40.0,93.7 L 40.5,92.6 L 41.1,91.8 L 41.3,90.8 L 41.8,90.6 L 42.0,89.1 L 42.6,88.5 L 42.3,87.8 L 42.3,86.3 L 42.4,85.4 L 43.8,83.9 L 43.8,83.3 L 42.7,81.9 L 41.7,81.3 L 40.6,81.3 L 40.8,81.1 L 69.6,48.1 L 69.8,48.4 L 71.4,48.5 L 72.9,48.2 L 74.3,47.4 L 75.3,47.5 L 75.8,47.4 L 76.6,47.5 L 77.2,49.6 L 77.8,50.4 L 78.0,50.2 L 78.6,50.1 L 79.5,51.0 L 79.5,51.9 L 80.2,53.9 L 80.8,54.1 L 81.7,55.4 L 81.9,56.1 L 82.3,56.6 L 82.3,57.1 L 84.0,57.3 L 83.8,59.0 L 83.9,59.5 L 85.2,59.4 L 85.9,58.5 L 86.4,58.5 L 88.0,60.2 L 87.7,60.5 L 87.4,62.2 L 88.0,63.3 L 87.8,64.9 L 88.5,66.2 L 89.8,67.2 L 90.0,67.9 L 89.2,69.4 L 89.7,70.9 L 90.3,71.9 L 91.3,73.2 L 92.3,73.9 L 93.0,74.6 L 93.0,75.5 L 94.2,76.4 L 95.4,77.0 L 96.6,78.3 L 97.6,78.6 L 98.7,79.6 L 99.7,80.2 L 100.8,80.0 L 102.1,80.0 L 103.0,80.6 L 105.1,80.9 L 106.5,81.9 L 107.7,82.6 L 108.2,82.5 L 108.6,82.2 L 109.4,82.6 L 109.8,82.8 L 111.0,83.7 L 112.3,84.1 L 113.3,83.7 L 114.3,84.6 L 115.0,84.5 L 115.9,84.9 L 116.9,85.1 L 118.2,84.9 L 119.9,86.7 L 120.6,87.0 L 121.4,87.6 L 122.7,88.2 L 122.8,88.7 L 122.8,89.3 L 123.4,89.7 L 123.8,89.3 L 124.1,89.5 L 125.7,89.9 L 127.6,90.3 L 128.5,90.1 L 129.2,90.4 L 129.8,90.5 L 131.1,91.3 L 132.8,91.0 L 133.4,91.4 L 133.4,92.3 L 134.2,93.1 L 135.7,94.0 L 136.5,95.1 L 137.2,95.3 L 138.6,94.8 L 143.8,95.3 L 144.4,94.9 L 144.6,96.1 L 145.2,96.9 L 146.2,97.2 L 147.1,97.2 L 147.5,97.0 L 148.4,97.0 L 149.5,96.4 L 150.0,96.6 L 150.1,96.9 L 150.7,96.9 L 151.7,96.5 L 153.0,96.5 L 154.6,95.9 L 155.6,95.8 L 156.2,95.4 L 156.8,95.6 L 157.4,96.0 L 158.4,96.1 L 159.2,97.1 L 159.4,97.6 L 159.9,97.8 L 161.6,99.2 L 163.2,99.1 L 163.5,99.6 L 163.2,104.3 L 163.6,104.9 L 164.6,105.2 L 165.3,105.8 L 165.4,106.3 L 166.5,106.9 L 168.8,107.5 L 170.0,108.1 L 173.3,108.2 L 174.3,108.0 L 175.0,108.1 L 175.3,107.9 L 176.3,108.4 L 177.1,108.4 L 178.5,108.1 L 179.6,108.1 L 180.6,108.2 L 180.9,107.7 L 182.8,107.7 L 184.5,108.3 L 185.7,108.4 L 187.6,108.6 L 190.7,108.4 L 192.5,109.5 L 192.8,110.7 L 192.9,111.8 L 193.3,112.9 L 193.5,113.0 L 194.0,113.6 L 195.7,113.7 L 196.4,113.3 L 198.5,113.4 L 200.1,112.8 L 204.0,112.7 L 205.5,112.1 L 206.2,112.4 L 209.0,112.8 L 209.5,113.4 L 210.1,113.7 L 210.5,114.2 L 212.3,114.4 L 212.8,114.7 L 212.7,115.8 L 213.0,116.4 L 213.8,116.4 L 214.3,116.0 L 214.9,115.9 L 215.8,116.4 L 216.3,117.5 L 216.6,119.0 L 216.3,119.6 L 215.3,119.8 L 214.3,120.6 L 215.0,123.8 L 216.3,125.5 L 217.1,125.5 L 218.7,124.3 L 219.5,124.4 L 220.8,124.9 L 221.8,125.6 L 222.4,125.5 L 225.2,125.9 L 225.7,126.2 L 226.3,127.5 L 226.3,128.2 L 226.3,128.4 L 226.5,129.1 L 225.9,129.8 L 225.7,131.7 L 224.7,131.8 L 223.9,132.2 L 226.1,134.2 L 228.0,134.6 L 228.1,134.9 L 228.5,135.5 L 228.6,136.1 L 227.8,137.0 L 228.3,137.5 L 230.3,137.9 L 231.0,138.2 L 230.9,138.8 L 231.5,139.2 L 234.1,140.2 L 235.4,140.1 L 237.1,140.5 L 237.8,140.2 L 239.2,140.1 L 245.1,140.9 L 246.7,141.7 L 247.2,142.5 L 247.7,143.0 L 248.7,143.4 L 249.5,144.3 L 249.9,144.4 L 251.7,144.4 L 252.3,144.7 L 253.4,144.6 L 256.1,144.8 L 257.6,145.4 L 258.7,146.1 L 259.7,147.0 L 262.1,147.4 L 264.5,148.0 L 265.6,147.9 L 267.1,148.2 L 268.1,149.0 L 268.6,149.9 L 270.6,150.2 L 271.3,150.6 L 272.4,150.8 L 273.1,151.2 L 273.9,152.2 L 275.2,152.8 L 276.6,153.8 L 277.3,154.0 L 278.1,156.5 L 279.7,158.1 L 280.4,158.0 L 280.8,158.0 L 281.0,158.8 L 281.6,159.3 L 282.0,160.3 L 283.1,161.6 L 284.6,162.9 L 286.9,163.5 L 290.9,165.2 L 292.5,166.1 L 293.9,166.4 L 294.5,166.8 L 295.2,166.6 L 296.2,167.0 L 298.3,168.3 L 299.4,169.1 L 302.0,169.7 L 302.9,170.8 L 302.8,171.3 L 303.4,172.2 L 304.4,172.8 L 306.4,173.6 L 307.8,173.7 L 308.3,174.2 L 308.7,174.3 L 309.4,173.4 L 311.6,173.6 L 311.9,173.7 L 315.2,175.1 L 316.5,175.9 L 317.8,176.6 L 321.3,178.2 L 325.7,180.4 L 330.3,183.3 L 334.9,186.3 L 338.4,190.6 L 339.4,192.2 L 339.5,193.7 L 340.2,194.7 L 340.1,195.2 L 339.6,196.1 L 339.1,198.8 L 338.5,200.6 L 337.8,201.1 L 335.8,201.6 L 334.8,202.0 L 334.6,202.5 L 335.1,203.2 L 335.8,203.3 L 337.0,203.6 L 338.8,204.6 L 339.3,205.3 L 339.8,207.3 L 340.3,208.5 L 341.3,210.0 L 340.4,214.1 L 340.5,215.2 L 340.4,216.8 L 340.8,217.5 L 342.0,217.8 L 342.6,218.9 L 344.0,220.4 L 344.9,221.7 L 349.2,223.5 L 352.5,225.3 L 353.2,226.0 L 355.9,227.1 L 357.9,229.0 L 358.8,230.7 L 359.3,232.5 L 359.6,233.4 L 359.3,235.6 L 360.0,238.4 L 360.0,238.6 L 360.0,241.0 L 360.0,241.2 L 359.5,245.0 L 359.5,249.1 L 358.8,251.8 L 358.2,252.4 L 357.2,253.3 L 356.0,254.0 L 355.3,254.0 L 353.0,255.1 L 351.9,256.2 L 351.4,257.4 L 351.1,257.9 L 350.6,259.9 L 349.6,260.4 L 349.5,261.2 L 349.6,261.6 L 348.6,263.2 L 348.3,264.7 L 348.9,265.4 L 351.9,266.2 L 352.3,267.1 L 352.5,269.5 L 352.3,271.2 L 352.4,272.3 L 352.3,274.1 L 352.3,276.5 L 352.8,280.8 L 352.2,282.6 L 351.7,284.6 L 350.4,288.0 L 349.8,291.7 L 349.4,292.9 L 347.4,297.1 L 347.0,298.1 L 347.5,298.7 L 348.1,300.3 L 348.8,301.1 L 349.6,301.6 L 351.5,302.4 L 351.9,302.0 L 352.5,301.7 L 353.2,301.5 L 354.6,301.9 L 354.6,301.9 L 260.8,352.6 L 260.2,350.3 L 259.7,349.9 L 259.3,349.9 L 258.6,348.8 L 256.8,342.6 L 256.2,336.4 L 255.8,335.0 L 255.3,330.7 L 256.1,327.2 L 256.7,325.7 L 256.6,324.6 L 256.8,323.0 L 256.2,322.3 L 255.8,321.3 L 255.5,319.0 L 254.8,314.1 L 254.1,311.7 L 253.4,310.2 L 253.4,308.8 L 253.0,307.6 L 252.9,306.7 L 252.4,304.9 L 252.2,303.1 L 252.3,301.6 L 252.1,300.9 L 252.2,299.1 L 252.0,298.1 L 252.0,297.8 L 252.1,296.7 L 251.3,296.0 L 250.2,294.1 L 249.5,287.0 L 248.9,285.8 L 249.3,283.9 L 250.0,282.6 L 251.1,281.7 L 250.8,281.0 L 250.8,279.7 L 252.0,277.8 L 252.1,276.9 L 250.6,276.3 L 249.3,275.9 L 245.8,275.2 L 243.7,273.8 L 242.3,273.4 L 240.1,273.2 L 237.8,272.4 L 236.4,271.4 L 234.7,269.6 L 234.5,269.7 L 234.2,269.7 L 233.7,270.0 L 228.8,269.5 L 227.5,269.1 L 225.5,267.7 L 224.2,265.9 L 223.6,264.0 L 223.4,262.4 L 224.1,261.4 L 223.8,260.5 L 221.8,258.8 L 220.5,258.5 L 219.5,257.3 L 217.4,253.1 L 217.0,250.6 L 215.8,248.3 L 215.6,247.1 L 215.7,244.8 L 216.0,244.3 L 215.3,243.3 L 214.5,241.5 L 213.6,240.2 L 211.8,239.0 L 211.2,238.2 L 210.2,237.5 L 209.5,236.6 L 209.4,235.5 L 209.5,233.7 L 208.9,232.7 L 209.0,229.9 L 209.7,228.7 L 209.0,227.9 L 208.1,227.6 L 207.3,227.0 L 206.2,226.8 L 205.7,226.3 L 205.0,226.2 L 204.4,224.8 L 203.7,224.5 L 202.2,222.3 L 201.1,219.9 L 200.7,219.7 L 199.2,218.7 L 197.8,216.9 L 195.9,215.0 L 193.7,212.0 L 193.3,211.6" fill="none" stroke="black" stroke-width="2"/>
</svg>