<?xml version="1.0" encoding="UTF-8"?>
<svg width="400" height="400" viewBox="0 0 400 400" xmlns="http://www.w3.org/2000/svg">
  <rect width="400" height="400" fill="white"/>
  <path d="M 127.8,186.4 L 128.0,185.6 L 128.8,185.7 L 130.0,186.3 L 138.8,186.8 L 140.9,184.9 L 143.7,181.5 L 143.6,181.3 L 143.7,181.1 L 145.0,179.9 L 147.6,178.1 L 149.2,177.8 L 150.2,178.4 L 151.7,179.5 L 152.7,178.9 L 153.8,178.1 L 154.3,178.9 L 154.6,179.5 L 157.6,177.7 L 157.1,176.8 L 158.6,175.4 L 159.6,174.6 L 162.7,175.1 L 164.0,173.5 L 163.1,173.0 L 161.8,172.5 L 160.1,169.7 L 159.6,167.7 L 160.5,167.3 L 162.3,167.9 L 163.8,168.8 L 164.6,168.7 L 164.5,167.1 L 165.5,167.3 L 169.0,168.0 L 168.8,170.3 L 168.7,170.8 L 170.2,171.0 L 171.4,175.3 L 172.8,175.2 L 175.9,172.7 L 178.8,172.8 L 180.3,174.3 L 180.6,175.2 L 184.6,173.8 L 186.9,173.8 L 192.5,171.2 L 195.8,170.3 L 197.8,171.6 L 199.7,172.3 L 202.3,172.4 L 203.3,172.2 L 204.9,171.7 L 206.5,170.4 L 212.2,168.4 L 213.4,169.0 L 214.5,168.7 L 215.4,166.9 L 217.9,164.9 L 219.6,165.3 L 220.4,165.8 L 224.2,165.7 L 227.2,163.4 L 228.0,163.6 L 228.9,164.8 L 229.8,164.1 L 231.6,162.0 L 231.3,160.6 L 232.2,160.1 L 234.8,161.6 L 236.0,161.5 L 238.0,160.9 L 240.9,163.0 L 243.4,163.7 L 245.3,166.8 L 255.7,169.0 L 260.6,169.4 L 264.3,168.2 L 275.2,166.6 L 283.7,167.5 L 285.9,167.1 L 289.5,165.0 L 290.8,165.0 L 292.6,164.0 L 299.3,164.3 L 302.3,163.4 L 306.3,164.1 L 306.8,164.9 L 312.5,163.7 L 317.2,163.7 L 320.9,163.1 L 327.9,162.5 L 331.5,161.2 L 333.2,160.8 L 334.5,160.1 L 335.9,158.4 L 337.5,157.7 L 340.9,157.2 L 342.3,156.6 L 342.9,157.8 L 345.7,157.8 L 346.8,157.8 L 348.5,157.9 L 348.5,156.4 L 348.1,156.3 L 348.3,154.9 L 350.8,153.6 L 352.9,155.0 L 354.3,156.1 L 355.4,155.7 L 355.4,154.6 L 354.2,153.7 L 353.5,153.1 L 354.5,150.8 L 355.9,150.9 L 358.6,151.2 L 359.0,149.5 L 360.0,148.9 L 358.6,171.5 L 358.5,171.5 L 355.3,171.6 L 352.3,172.4 L 351.3,173.2 L 350.5,174.1 L 348.3,174.5 L 347.0,175.9 L 344.1,177.4 L 342.2,179.0 L 342.3,179.8 L 343.5,181.3 L 342.2,184.4 L 341.5,187.6 L 340.4,189.0 L 339.3,189.3 L 338.2,189.8 L 336.0,192.3 L 335.4,193.3 L 335.0,195.8 L 333.4,196.3 L 331.9,195.9 L 329.7,193.9 L 329.3,192.0 L 329.5,188.7 L 329.6,188.1 L 330.1,187.9 L 330.1,187.4 L 330.9,186.2 L 331.0,184.8 L 331.8,184.0 L 331.2,182.9 L 330.1,182.4 L 330.2,179.8 L 332.1,178.3 L 332.0,177.3 L 330.5,176.1 L 328.1,176.3 L 326.9,177.9 L 324.5,177.5 L 323.8,177.0 L 322.5,177.1 L 321.1,177.4 L 319.1,177.5 L 317.2,178.5 L 315.6,179.6 L 313.6,179.4 L 311.4,179.4 L 310.6,179.5 L 308.9,180.1 L 303.2,180.4 L 300.1,181.5 L 297.4,181.6 L 295.6,182.4 L 291.6,182.2 L 289.0,181.4 L 284.2,181.8 L 279.7,182.7 L 276.4,183.8 L 276.3,184.8 L 274.9,185.5 L 274.4,186.3 L 274.7,187.6 L 278.7,189.2 L 278.4,191.4 L 280.6,191.3 L 281.9,192.5 L 282.7,194.5 L 282.9,195.8 L 282.9,196.6 L 279.1,196.3 L 278.8,197.2 L 276.5,196.8 L 275.2,197.3 L 273.9,197.4 L 270.6,196.3 L 265.5,195.7 L 263.0,195.8 L 260.7,197.0 L 260.6,198.0 L 260.4,198.9 L 260.4,199.3 L 259.7,199.8 L 254.6,199.6 L 252.9,200.6 L 250.9,199.6 L 245.9,200.2 L 244.0,202.4 L 243.0,201.7 L 241.2,201.5 L 234.5,204.0 L 231.6,203.6 L 229.5,202.1 L 228.2,200.5 L 228.8,199.8 L 234.2,197.8 L 236.7,196.7 L 236.7,196.6 L 237.0,195.9 L 236.7,194.6 L 239.4,193.3 L 239.5,192.6 L 236.6,192.3 L 229.2,192.2 L 219.4,195.0 L 219.0,195.2 L 216.9,195.0 L 216.7,194.8 L 216.4,194.2 L 216.8,192.8 L 220.3,189.4 L 220.5,188.2 L 218.7,187.3 L 212.7,188.7 L 209.4,188.0 L 207.2,188.2 L 201.8,187.5 L 196.2,186.8 L 194.1,189.0 L 192.9,188.9 L 190.5,190.7 L 188.1,191.9 L 186.1,191.7 L 185.6,191.8 L 185.1,192.0 L 184.9,193.8 L 184.2,193.9 L 183.3,194.7 L 181.3,195.2 L 179.2,195.2 L 177.8,196.7 L 176.4,197.4 L 172.7,198.4 L 167.3,201.5 L 166.9,202.7 L 165.7,204.0 L 165.3,205.5 L 162.8,207.0 L 162.5,209.1 L 163.0,210.0 L 164.2,210.4 L 163.0,211.7 L 160.1,213.2 L 157.9,213.6 L 155.9,214.8 L 153.2,214.7 L 151.1,214.4 L 148.6,216.4 L 148.4,217.7 L 149.9,218.9 L 152.6,219.2 L 154.7,219.3 L 155.7,219.9 L 155.8,220.7 L 156.7,222.3 L 159.1,223.0 L 161.2,226.2 L 161.5,227.1 L 161.0,228.3 L 159.5,228.3 L 157.7,228.9 L 157.4,229.9 L 158.3,232.8 L 160.3,234.0 L 160.3,235.1 L 158.0,236.5 L 158.4,237.9 L 158.6,238.0 L 161.0,238.4 L 162.6,240.3 L 165.7,242.5 L 167.2,242.9 L 170.1,244.6 L 173.8,248.2 L 175.2,249.2 L 176.6,251.1 L 173.9,250.9 L 170.7,249.5 L 166.4,248.7 L 163.1,245.0 L 159.3,242.2 L 158.3,238.5 L 157.9,238.3 L 157.1,237.9 L 155.0,235.7 L 151.3,234.5 L 150.7,234.6 L 149.6,235.3 L 149.0,236.4 L 148.2,237.2 L 145.9,237.2 L 139.9,234.7 L 135.2,231.8 L 135.1,230.9 L 131.7,228.0 L 128.7,228.5 L 127.8,229.0 L 125.7,229.1 L 124.8,230.9 L 122.3,232.5 L 121.1,232.5 L 120.7,233.5 L 122.4,235.7 L 123.7,236.2 L 127.9,236.8 L 129.6,238.2 L 129.1,238.8 L 123.9,240.0 L 121.3,240.4 L 118.2,241.7 L 115.2,243.4 L 112.8,245.8 L 108.8,247.6 L 107.5,247.7 L 108.7,245.1 L 110.3,243.8 L 111.1,239.5 L 111.8,239.1 L 112.7,239.7 L 115.1,239.6 L 118.1,237.5 L 118.2,236.8 L 116.7,236.4 L 116.7,235.3 L 115.6,234.1 L 114.3,236.1 L 113.0,236.2 L 112.9,234.9 L 110.9,232.5 L 109.0,231.4 L 107.4,231.9 L 106.6,233.3 L 108.7,235.6 L 107.1,238.1 L 106.0,238.4 L 103.5,239.8 L 101.9,239.2 L 96.6,239.0 L 95.2,237.5 L 95.5,236.5 L 96.8,236.1 L 98.7,235.0 L 99.8,234.1 L 100.6,233.9 L 100.8,232.2 L 100.1,231.7 L 97.1,231.1 L 97.1,229.5 L 97.7,228.8 L 99.8,229.0 L 100.5,225.7 L 101.5,224.9 L 102.3,224.3 L 102.0,223.8 L 101.6,223.3 L 100.0,222.2 L 100.3,221.5 L 98.9,221.1 L 98.7,221.9 L 96.5,222.6 L 93.7,222.9 L 93.0,223.7 L 93.3,225.3 L 94.0,228.3 L 93.8,231.4 L 93.0,234.0 L 92.3,234.6 L 89.1,233.9 L 86.0,234.5 L 83.1,234.7 L 81.4,234.5 L 82.4,233.3 L 85.6,232.7 L 87.2,233.8 L 90.3,232.6 L 91.2,231.0 L 91.6,228.4 L 91.3,227.6 L 89.3,225.2 L 87.9,224.6 L 88.4,223.3 L 89.7,222.1 L 89.4,221.6 L 88.0,222.1 L 85.4,223.7 L 83.6,224.2 L 82.5,223.4 L 81.5,223.8 L 79.6,223.8 L 79.8,222.7 L 80.7,222.0 L 80.3,221.1 L 78.9,221.0 L 77.3,221.8 L 73.3,222.4 L 72.6,224.1 L 71.6,225.7 L 68.5,226.6 L 66.7,228.3 L 64.2,229.4 L 62.0,231.0 L 62.4,231.9 L 61.1,233.5 L 59.7,236.0 L 56.6,237.5 L 55.1,239.2 L 53.5,240.5 L 52.2,240.8 L 50.1,238.8 L 47.6,238.9 L 44.7,240.7 L 43.3,241.5 L 42.8,242.3 L 43.0,243.3 L 42.9,243.1 L 40.0,240.5 L 41.4,240.3 L 43.4,239.0 L 44.8,237.3 L 45.1,236.7 L 48.5,236.7 L 49.8,236.4 L 50.5,237.2 L 52.2,237.4 L 52.9,235.6 L 56.1,233.8 L 58.2,233.1 L 61.0,231.5 L 60.6,229.4 L 61.3,228.6 L 63.1,227.4 L 63.5,226.1 L 65.4,225.0 L 69.4,224.6 L 70.5,223.7 L 68.5,221.7 L 69.6,221.0 L 71.6,222.4 L 72.8,221.7 L 73.5,221.7 L 73.7,220.1 L 76.8,218.2 L 77.3,216.9 L 76.3,216.2 L 75.1,215.7 L 72.9,213.8 L 69.6,213.4 L 67.2,215.2 L 66.8,216.7 L 67.8,216.8 L 68.4,217.5 L 68.1,219.8 L 67.0,219.8 L 66.0,218.7 L 63.6,218.4 L 63.6,217.3 L 62.0,216.5 L 59.8,217.3 L 56.6,220.9 L 55.1,220.9 L 55.4,218.8 L 55.9,218.0 L 56.0,217.5 L 55.0,216.3 L 53.1,215.8 L 50.4,216.5 L 47.7,216.6 L 47.4,217.2 L 46.8,217.8 L 47.0,199.8 L 47.0,199.7 L 47.4,199.7 L 49.2,200.8 L 49.6,200.8 L 51.1,200.8 L 52.9,201.5 L 55.4,201.4 L 59.3,200.8 L 63.5,199.5 L 64.6,199.6 L 65.9,200.6 L 70.8,201.7 L 72.4,202.2 L 76.3,202.9 L 78.6,205.1 L 80.7,205.2 L 81.2,204.7 L 82.7,205.1 L 85.6,206.5 L 86.7,206.4 L 86.9,207.5 L 88.7,207.4 L 88.6,206.8 L 92.3,206.7 L 95.7,206.6 L 98.5,205.4 L 98.8,206.0 L 102.1,205.3 L 104.1,207.3 L 106.8,207.7 L 106.7,206.8 L 105.3,204.8 L 105.4,203.9 L 107.5,203.0 L 109.1,204.8 L 110.0,205.8 L 110.0,205.3 L 109.9,203.9 L 110.6,202.2 L 110.0,199.5 L 110.4,199.2 L 111.9,200.0 L 114.1,197.6 L 114.5,196.4 L 113.7,195.4 L 115.2,194.2 L 116.5,192.1 L 117.4,189.7 L 117.8,187.9 L 119.2,187.3 L 122.2,188.5 L 123.8,188.8 L 124.3,188.9 L 125.6,188.7 L 127.5,187.5" fill="none" stroke="black" stroke-width="2"/>
</svg>