<?xml version="1.0" encoding="UTF-8"?>
<svg width="400" height="400" viewBox="0 0 400 400" xmlns="http://www.w3.org/2000/svg">
  <rect width="400" height="400" fill="white"/>
  <path d="M 136.1,237.0 L 136.4,235.1 L 140.3,230.4 L 143.5,227.7 L 145.9,227.3 L 149.1,224.5 L 152.0,218.2 L 154.3,215.4 L 157.8,216.4 L 158.6,215.4 L 157.6,212.2 L 158.0,209.4 L 159.5,207.3 L 162.4,203.0 L 164.8,200.1 L 164.8,196.0 L 165.6,192.5 L 167.6,190.9 L 171.3,189.4 L 172.6,187.6 L 171.9,183.4 L 170.7,179.9 L 170.0,179.0 L 163.7,180.1 L 160.3,182.5 L 157.0,182.1 L 154.2,184.1 L 151.1,184.0 L 149.2,182.5 L 148.0,182.0 L 144.6,184.2 L 142.5,184.2 L 139.5,181.2 L 137.2,180.9 L 134.2,175.6 L 134.0,168.9 L 135.2,161.6 L 136.7,157.6 L 137.9,156.6 L 139.6,156.1 L 140.5,154.7 L 143.1,154.5 L 144.1,153.1 L 144.6,150.6 L 146.7,148.5 L 149.0,144.6 L 150.1,144.0 L 155.2,144.3 L 157.2,143.3 L 161.4,137.1 L 163.7,130.7 L 164.9,129.3 L 166.3,128.2 L 166.0,126.6 L 164.8,125.1 L 164.7,122.3 L 164.7,122.2 L 162.2,119.0 L 161.1,117.7 L 157.2,116.9 L 153.4,116.9 L 150.6,119.3 L 149.6,119.4 L 147.7,117.5 L 144.9,119.8 L 144.8,120.1 L 143.9,120.9 L 141.9,120.7 L 140.7,118.8 L 138.6,119.1 L 137.0,119.2 L 134.8,120.2 L 133.1,122.0 L 129.3,123.5 L 128.9,124.5 L 128.3,128.3 L 127.0,129.6 L 125.7,129.7 L 125.8,129.3 L 126.7,125.7 L 127.3,123.4 L 128.6,119.7 L 130.1,116.6 L 132.4,114.2 L 135.3,114.0 L 137.6,113.8 L 137.9,113.7 L 139.5,112.3 L 139.0,111.8 L 139.2,111.1 L 140.2,109.6 L 140.8,107.1 L 143.1,102.8 L 144.6,101.7 L 147.2,101.4 L 150.2,99.5 L 156.6,94.3 L 160.7,90.5 L 166.2,89.4 L 170.8,87.6 L 172.7,87.3 L 172.7,87.3 L 175.4,84.5 L 176.8,85.5 L 177.7,84.4 L 177.9,82.8 L 178.9,81.4 L 178.7,80.3 L 180.3,78.4 L 181.5,77.6 L 181.5,75.4 L 180.1,71.4 L 180.0,70.3 L 177.2,68.4 L 174.2,64.7 L 172.2,64.4 L 172.2,64.1 L 185.1,53.5 L 185.7,53.1 L 185.8,53.5 L 188.7,61.3 L 192.1,66.2 L 194.8,66.2 L 197.1,66.3 L 202.4,70.9 L 206.3,69.0 L 208.1,67.2 L 210.5,66.7 L 211.8,68.7 L 213.3,69.8 L 215.3,69.8 L 217.0,68.5 L 217.3,63.9 L 216.7,62.8 L 216.6,61.8 L 215.1,60.8 L 213.4,58.0 L 212.9,55.6 L 213.5,55.1 L 215.4,56.4 L 217.4,59.0 L 220.3,60.4 L 222.2,58.3 L 222.9,56.3 L 224.5,54.2 L 223.3,53.0 L 220.6,52.4 L 217.7,48.7 L 217.7,47.1 L 217.5,47.0 L 218.1,45.7 L 218.4,44.8 L 220.4,45.1 L 221.4,46.0 L 219.4,47.1 L 220.0,48.2 L 221.4,48.1 L 223.0,47.3 L 223.7,46.4 L 226.1,45.6 L 226.5,43.6 L 229.4,41.3 L 235.0,40.0 L 235.5,40.1 L 239.1,41.0 L 241.0,42.0 L 246.1,45.3 L 247.6,45.7 L 251.8,44.7 L 253.9,46.2 L 253.9,48.6 L 252.1,50.4 L 251.6,52.4 L 252.0,54.0 L 251.7,56.0 L 245.7,58.4 L 242.6,58.0 L 241.5,59.5 L 238.6,59.6 L 236.4,60.9 L 236.5,63.5 L 238.6,66.0 L 237.3,67.4 L 238.7,69.1 L 236.8,72.0 L 235.5,73.2 L 235.3,75.5 L 234.6,76.4 L 232.9,76.4 L 232.0,76.6 L 229.7,77.2 L 227.2,78.4 L 225.3,81.2 L 222.9,83.2 L 219.3,83.1 L 217.9,82.3 L 217.8,81.3 L 216.8,80.2 L 212.8,81.2 L 212.2,82.1 L 214.2,84.8 L 212.5,85.9 L 209.9,85.7 L 206.5,88.2 L 206.4,90.4 L 206.4,91.3 L 204.5,94.1 L 204.9,97.3 L 205.3,97.9 L 207.1,97.8 L 207.5,95.0 L 208.7,95.2 L 210.2,95.9 L 213.3,95.7 L 219.2,94.4 L 219.1,91.6 L 219.1,91.5 L 220.7,90.2 L 223.6,90.6 L 225.6,92.2 L 230.2,95.9 L 231.2,96.6 L 234.4,97.6 L 241.6,97.4 L 241.7,96.2 L 240.8,93.7 L 240.6,92.9 L 241.4,88.7 L 242.0,88.2 L 244.4,85.1 L 245.9,84.0 L 249.3,83.7 L 253.5,84.8 L 258.0,88.4 L 258.3,90.3 L 258.6,90.6 L 266.4,92.0 L 266.4,93.4 L 264.3,94.6 L 263.9,95.6 L 264.2,95.8 L 265.5,96.6 L 269.9,96.9 L 270.5,96.4 L 271.0,96.0 L 272.4,96.6 L 272.7,96.8 L 272.9,101.9 L 271.2,103.2 L 268.3,103.2 L 265.1,104.1 L 247.4,107.0 L 243.9,106.5 L 239.3,103.9 L 234.9,103.1 L 231.3,103.2 L 229.4,105.1 L 224.8,109.8 L 219.2,113.5 L 216.3,117.4 L 216.3,119.6 L 215.3,120.1 L 214.8,121.0 L 216.1,122.7 L 214.0,125.3 L 213.5,129.7 L 214.3,135.4 L 213.9,136.9 L 214.1,141.6 L 219.7,146.5 L 222.8,148.2 L 224.9,148.2 L 225.4,148.0 L 231.4,145.9 L 233.0,147.1 L 232.0,149.6 L 233.1,150.7 L 235.2,150.8 L 238.7,149.7 L 244.5,156.6 L 244.2,159.4 L 242.4,159.4 L 239.3,157.5 L 238.3,157.4 L 235.4,159.6 L 230.7,163.9 L 230.3,165.6 L 232.2,172.1 L 233.6,174.4 L 237.4,174.8 L 238.5,176.3 L 238.8,178.4 L 238.5,179.9 L 236.9,180.7 L 236.1,182.2 L 237.8,185.5 L 239.1,185.4 L 242.8,183.0 L 244.7,180.2 L 246.9,179.3 L 250.2,179.2 L 252.1,178.8 L 254.7,179.6 L 262.2,184.9 L 264.4,184.7 L 267.6,183.0 L 269.2,182.7 L 271.2,181.4 L 272.2,181.5 L 277.8,184.8 L 278.9,184.4 L 279.3,185.5 L 278.2,189.8 L 277.7,193.4 L 279.5,194.1 L 279.6,194.9 L 278.4,200.1 L 271.9,202.9 L 266.6,203.6 L 254.0,209.5 L 246.6,215.0 L 244.5,215.5 L 241.9,215.8 L 240.6,217.4 L 240.2,218.1 L 238.5,220.2 L 236.7,225.7 L 232.0,230.0 L 228.4,230.1 L 228.1,226.5 L 227.3,225.9 L 226.5,227.0 L 225.4,227.2 L 224.6,225.0 L 224.7,222.1 L 222.9,220.4 L 221.0,223.0 L 218.2,224.2 L 217.8,224.4 L 216.9,225.0 L 211.3,228.2 L 210.2,230.5 L 207.0,233.9 L 208.6,234.9 L 208.6,237.4 L 210.1,239.7 L 213.9,238.3 L 216.8,239.2 L 220.4,240.2 L 222.3,239.1 L 222.9,236.2 L 224.5,234.0 L 225.6,233.7 L 226.7,235.1 L 225.7,243.3 L 228.4,252.4 L 230.1,255.1 L 236.3,255.9 L 239.0,254.9 L 240.5,255.7 L 243.3,257.6 L 242.8,262.2 L 241.8,263.7 L 240.8,264.0 L 239.3,261.3 L 238.2,261.1 L 234.4,263.0 L 231.0,269.5 L 228.9,271.3 L 226.0,271.3 L 225.2,270.0 L 225.3,267.0 L 222.6,264.0 L 221.0,262.8 L 219.2,262.1 L 215.2,265.0 L 214.3,265.7 L 212.0,267.7 L 208.4,273.9 L 207.4,280.2 L 208.7,287.9 L 208.2,294.3 L 207.3,295.3 L 204.7,295.5 L 199.5,291.2 L 197.6,290.1 L 193.2,290.2 L 188.7,292.9 L 186.2,296.2 L 181.9,299.6 L 181.4,301.3 L 182.0,302.9 L 182.1,304.5 L 180.9,305.0 L 166.0,296.3 L 165.3,295.7 L 164.5,295.6 L 163.2,296.2 L 163.5,297.6 L 163.4,297.8 L 161.7,301.5 L 160.8,305.3 L 159.3,307.7 L 158.1,308.3 L 157.9,306.2 L 156.9,304.1 L 154.6,303.6 L 152.9,304.1 L 150.2,307.1 L 147.6,310.2 L 143.9,311.0 L 142.0,311.9 L 141.5,314.1 L 140.1,316.4 L 137.5,319.6 L 134.2,320.0 L 132.0,321.0 L 131.4,323.0 L 130.8,325.4 L 129.3,326.4 L 125.2,326.1 L 124.8,327.5 L 125.8,328.2 L 129.9,328.6 L 133.9,329.0 L 137.2,330.1 L 139.0,331.7 L 139.5,334.5 L 140.6,337.0 L 142.6,340.4 L 142.9,342.8 L 143.4,346.8 L 144.8,350.5 L 144.9,354.2 L 145.5,355.8 L 147.9,358.8 L 147.9,358.9 L 148.1,360.0 L 147.1,360.0 L 143.2,358.8 L 141.7,355.6 L 140.1,353.6 L 137.0,352.9 L 133.2,352.0 L 131.3,350.7 L 130.0,348.4 L 128.9,345.4 L 126.0,342.7 L 124.5,339.6 L 124.4,339.1 L 121.3,337.5 L 120.4,336.6 L 120.5,336.3 L 122.6,336.6 L 125.2,339.5 L 127.6,342.4 L 130.5,345.1 L 132.1,348.9 L 134.0,351.1 L 137.6,352.1 L 140.0,351.6 L 140.2,349.8 L 138.5,347.5 L 138.5,346.9 L 138.9,346.3 L 139.4,343.8 L 140.6,340.6 L 139.9,338.5 L 138.3,335.6 L 137.7,333.2 L 134.9,331.3 L 131.7,330.1 L 128.6,329.8 L 126.9,329.7 L 124.1,328.1 L 123.0,324.3 L 123.0,321.3 L 124.6,317.6 L 125.1,314.5 L 124.6,310.6 L 124.8,306.6 L 124.0,304.5 L 122.2,300.9 L 121.4,297.0 L 121.2,293.0 L 121.5,288.9 L 122.6,286.3 L 123.3,283.0 L 123.7,279.0 L 125.5,276.6 L 128.2,273.7 L 130.0,270.3 L 131.2,269.1 L 131.6,268.9 L 134.2,268.5 L 134.8,268.1 L 143.0,268.8 L 144.5,267.7 L 146.3,261.5 L 146.6,259.6 L 146.8,258.2 L 147.1,257.7 L 149.4,256.4 L 152.4,253.6 L 154.6,253.4 L 156.9,255.4 L 158.8,259.0 L 159.8,262.5 L 159.8,266.6 L 160.0,266.8 L 160.4,267.5 L 161.4,269.1 L 165.8,270.9 L 167.9,270.5 L 169.4,269.3 L 172.6,267.9 L 181.3,268.7 L 182.6,269.4 L 185.8,270.1 L 186.1,272.2 L 187.7,272.1 L 189.1,271.0 L 189.6,269.3 L 194.3,268.5 L 198.1,265.3 L 199.7,265.1 L 201.8,265.1 L 202.4,264.1 L 201.4,263.0 L 198.3,261.7 L 197.6,260.7 L 197.9,258.6 L 198.9,257.2 L 198.8,255.6 L 198.3,253.3 L 198.4,252.3 L 197.9,249.9 L 195.6,248.0 L 194.1,247.8 L 193.4,250.9 L 191.1,253.1 L 189.3,253.2 L 184.4,254.7 L 181.4,256.0 L 170.5,258.6 L 169.5,259.2 L 164.8,258.7 L 164.3,258.7 L 161.2,257.7 L 158.5,254.6 L 157.4,253.3 L 157.9,250.9 L 158.7,249.1 L 158.6,246.4 L 158.0,246.1 L 157.8,241.8 L 156.9,240.3 L 146.9,243.7 L 143.8,243.5 L 141.2,244.0 L 138.9,244.0 L 137.7,242.6 L 136.0,237.7 L 136.1,237.0" fill="none" stroke="black" stroke-width="2"/>
</svg>