<?xml version="1.0" encoding="UTF-8"?>
<svg width="400" height="400" viewBox="0 0 400 400" xmlns="http://www.w3.org/2000/svg">
  <rect width="400" height="400" fill="white"/>
  <path d="M 110.3,238.9 L 109.7,238.2 L 108.8,237.5 L 108.5,237.0 L 108.5,236.2 L 108.2,236.1 L 107.8,236.2 L 107.3,235.5 L 106.6,234.6 L 103.8,231.5 L 103.2,229.9 L 101.0,226.8 L 98.8,224.2 L 98.6,223.8 L 98.0,223.0 L 97.5,222.0 L 97.6,221.5 L 97.4,221.5 L 97.1,221.5 L 96.5,220.8 L 94.2,218.2 L 93.9,217.7 L 93.8,217.6 L 91.3,215.4 L 91.0,215.1 L 90.5,214.7 L 90.5,214.0 L 90.2,214.0 L 89.9,214.0 L 89.4,213.3 L 89.1,212.9 L 89.1,212.5 L 89.5,212.2 L 89.4,212.1 L 88.9,212.0 L 88.5,211.1 L 88.0,210.5 L 87.9,210.3 L 87.4,209.3 L 86.6,208.6 L 86.0,207.7 L 85.4,206.8 L 85.0,205.7 L 84.8,205.3 L 84.0,204.5 L 83.4,203.8 L 83.6,203.3 L 83.2,203.4 L 82.8,203.4 L 82.3,203.0 L 82.0,202.5 L 81.8,202.1 L 80.7,201.9 L 79.5,201.6 L 78.5,201.1 L 77.5,200.6 L 76.4,200.1 L 75.3,199.7 L 74.5,199.4 L 73.4,199.2 L 72.5,199.1 L 72.2,199.0 L 71.4,198.3 L 71.1,198.2 L 70.9,198.4 L 71.6,199.1 L 72.1,199.8 L 71.9,200.4 L 71.9,201.0 L 71.9,201.2 L 70.3,198.6 L 68.4,195.6 L 69.2,195.1 L 69.4,195.7 L 69.8,196.8 L 70.4,197.8 L 70.7,198.0 L 70.9,197.8 L 70.8,197.4 L 70.2,196.5 L 69.8,195.4 L 69.7,194.7 L 70.0,193.8 L 70.2,193.6 L 70.2,193.4 L 70.6,192.7 L 70.7,191.1 L 70.4,190.4 L 69.4,189.2 L 68.5,188.5 L 67.2,186.9 L 65.6,184.8 L 65.4,183.9 L 65.5,183.2 L 66.0,182.4 L 66.6,181.6 L 67.7,180.7 L 67.9,179.9 L 69.1,179.2 L 69.3,178.4 L 69.1,177.8 L 68.4,177.2 L 66.4,175.9 L 62.5,174.8 L 60.8,173.8 L 59.8,172.8 L 58.1,171.5 L 57.7,170.8 L 56.7,170.2 L 56.3,169.6 L 56.1,168.2 L 55.5,167.2 L 55.4,166.5 L 55.7,165.0 L 56.6,164.0 L 56.7,163.2 L 54.1,160.2 L 53.9,159.2 L 53.6,158.6 L 53.5,157.8 L 53.2,157.2 L 53.1,156.3 L 52.0,155.6 L 51.2,154.8 L 51.1,154.0 L 50.3,153.3 L 49.4,152.8 L 48.3,152.1 L 47.6,151.4 L 47.2,150.7 L 47.2,150.3 L 45.3,148.3 L 45.2,146.9 L 44.7,146.2 L 44.2,145.9 L 42.8,145.0 L 42.7,145.0 L 42.4,144.7 L 42.2,144.4 L 42.2,143.9 L 41.6,143.2 L 41.6,142.6 L 40.9,142.1 L 40.2,141.8 L 40.0,141.6 L 40.0,141.6 L 40.0,141.5 L 95.2,61.6 L 99.3,55.6 L 99.4,55.4 L 99.5,55.9 L 99.8,56.4 L 100.3,57.6 L 100.3,58.3 L 99.9,60.2 L 100.5,60.9 L 101.2,62.6 L 101.8,64.8 L 101.7,65.8 L 100.8,66.4 L 100.7,67.1 L 100.8,67.2 L 101.5,66.7 L 102.7,67.3 L 103.3,68.0 L 103.6,69.6 L 104.1,71.2 L 104.4,71.6 L 105.3,72.3 L 105.7,73.2 L 105.4,74.7 L 105.5,75.4 L 105.6,75.9 L 105.7,76.6 L 105.6,78.0 L 105.3,78.9 L 105.2,80.1 L 104.7,81.5 L 104.5,83.6 L 105.3,84.3 L 106.1,84.8 L 106.9,85.4 L 107.3,86.2 L 108.1,90.5 L 108.1,91.5 L 107.8,92.3 L 107.2,92.5 L 106.7,92.7 L 105.9,94.0 L 105.8,94.8 L 106.1,94.8 L 106.4,94.1 L 106.7,94.0 L 107.3,94.8 L 107.8,94.8 L 108.5,94.4 L 108.9,94.6 L 109.4,95.6 L 110.2,98.0 L 110.6,98.8 L 111.0,99.4 L 111.4,100.5 L 111.2,102.5 L 111.8,102.8 L 112.3,102.8 L 112.6,102.0 L 113.9,101.7 L 115.0,102.1 L 115.5,102.6 L 117.5,103.4 L 118.4,104.3 L 119.0,105.4 L 120.0,106.5 L 120.7,107.7 L 122.0,110.1 L 124.2,112.9 L 125.5,114.3 L 125.7,115.0 L 125.9,116.1 L 125.8,118.0 L 125.7,118.1 L 125.5,119.7 L 125.7,120.2 L 126.8,121.2 L 127.2,121.1 L 127.5,120.7 L 127.6,120.4 L 127.9,120.2 L 128.6,120.3 L 129.0,120.6 L 129.3,121.0 L 130.1,121.1 L 132.1,122.9 L 133.9,124.9 L 134.5,125.5 L 135.5,126.0 L 136.2,127.2 L 138.7,129.3 L 139.0,129.6 L 139.9,130.7 L 140.8,131.6 L 141.2,131.7 L 141.7,132.1 L 142.8,133.6 L 143.3,134.5 L 143.7,136.1 L 143.6,137.2 L 143.3,138.1 L 143.0,140.1 L 143.4,141.3 L 143.8,141.8 L 144.4,142.7 L 144.4,143.6 L 145.1,145.0 L 145.1,145.6 L 144.8,149.2 L 144.1,151.3 L 144.0,151.5 L 143.9,152.4 L 144.5,153.4 L 144.5,153.7 L 143.9,153.3 L 143.6,153.7 L 142.6,155.7 L 142.5,156.1 L 142.0,157.1 L 141.7,157.2 L 141.5,158.3 L 141.2,158.9 L 140.4,158.9 L 139.9,159.7 L 139.9,159.9 L 140.1,160.3 L 141.0,160.6 L 141.1,161.0 L 140.8,161.4 L 140.5,161.3 L 140.0,161.0 L 139.7,161.0 L 139.8,161.4 L 140.1,161.8 L 140.0,162.2 L 140.0,162.4 L 140.2,163.1 L 140.7,163.7 L 141.2,164.7 L 141.5,166.7 L 141.9,167.4 L 142.1,168.3 L 141.9,172.6 L 142.1,174.4 L 142.1,175.3 L 142.2,176.0 L 142.1,177.5 L 142.9,178.8 L 143.7,180.9 L 143.7,181.9 L 143.9,182.9 L 145.9,185.5 L 146.5,186.7 L 147.4,188.1 L 147.8,189.1 L 149.1,189.9 L 149.2,190.0 L 149.5,190.6 L 152.9,192.7 L 153.6,193.4 L 153.9,194.4 L 155.1,197.1 L 156.5,198.2 L 157.9,199.5 L 158.8,200.6 L 159.6,202.0 L 160.2,203.5 L 160.5,204.6 L 161.6,206.2 L 162.1,208.4 L 163.0,209.6 L 163.7,210.2 L 164.2,210.1 L 165.7,209.0 L 167.4,208.4 L 168.9,208.2 L 169.5,208.3 L 169.9,208.6 L 171.6,208.4 L 173.1,208.7 L 173.3,208.7 L 174.9,209.2 L 177.9,210.0 L 179.8,211.0 L 180.4,211.6 L 181.1,211.9 L 182.0,212.1 L 183.4,213.0 L 183.9,213.4 L 184.5,213.7 L 186.4,215.6 L 187.1,216.0 L 188.5,217.2 L 189.6,218.3 L 190.4,218.6 L 191.8,219.5 L 193.4,219.8 L 194.5,220.3 L 195.4,221.2 L 196.3,222.5 L 196.5,223.5 L 196.1,224.3 L 196.6,225.2 L 197.2,226.0 L 197.7,227.4 L 199.1,228.4 L 199.9,229.5 L 200.2,229.7 L 200.6,230.9 L 201.1,231.5 L 202.1,232.2 L 203.2,232.7 L 205.7,233.7 L 207.5,233.9 L 208.9,234.3 L 209.9,234.6 L 210.6,235.5 L 211.2,237.2 L 211.4,238.7 L 211.8,239.3 L 212.3,240.0 L 212.7,241.2 L 213.2,243.5 L 213.6,244.4 L 214.3,244.9 L 215.0,247.3 L 215.3,247.6 L 216.4,248.8 L 217.1,249.3 L 217.5,249.5 L 218.5,250.4 L 218.9,251.3 L 219.6,252.0 L 220.9,252.6 L 221.8,253.4 L 222.0,253.8 L 222.1,255.0 L 223.0,256.2 L 223.6,257.7 L 224.3,258.9 L 225.1,260.0 L 226.9,261.1 L 228.0,261.4 L 229.7,261.4 L 232.9,260.7 L 234.5,259.9 L 235.2,259.3 L 236.7,258.9 L 238.1,258.8 L 239.1,258.9 L 240.5,259.9 L 240.9,260.0 L 242.2,260.2 L 245.2,259.9 L 246.8,259.4 L 249.5,259.1 L 250.5,258.9 L 251.4,258.3 L 251.7,258.3 L 252.4,259.0 L 252.6,260.7 L 252.0,261.0 L 251.2,261.6 L 251.2,262.2 L 251.5,262.2 L 252.4,261.4 L 252.5,261.3 L 252.5,262.0 L 252.1,262.9 L 252.2,263.2 L 252.4,263.2 L 253.1,263.3 L 253.7,262.3 L 254.1,262.0 L 254.1,262.3 L 253.5,263.6 L 252.2,264.7 L 251.9,265.0 L 252.1,265.6 L 252.4,266.0 L 253.7,266.3 L 254.2,266.5 L 255.0,268.1 L 255.2,268.4 L 256.1,269.4 L 256.8,271.3 L 256.9,271.6 L 256.7,274.1 L 256.4,275.1 L 255.4,275.8 L 254.5,276.1 L 252.0,276.8 L 251.1,276.8 L 250.3,276.9 L 247.8,277.4 L 246.7,277.0 L 245.6,276.9 L 244.9,277.1 L 244.2,277.8 L 243.9,280.3 L 243.9,281.3 L 244.6,283.4 L 245.3,284.4 L 246.0,285.0 L 246.7,285.8 L 247.5,286.5 L 248.1,286.6 L 249.0,286.8 L 249.5,287.0 L 250.1,287.3 L 250.6,288.0 L 250.7,288.4 L 250.5,289.0 L 250.4,290.1 L 250.5,291.5 L 250.9,291.9 L 251.7,291.9 L 253.0,291.3 L 253.3,291.2 L 255.7,290.5 L 256.4,290.3 L 258.0,290.4 L 258.8,289.9 L 261.3,289.2 L 262.9,289.2 L 265.3,288.5 L 267.1,288.0 L 269.0,287.4 L 271.0,286.9 L 273.1,286.9 L 275.9,286.6 L 277.1,286.3 L 281.3,286.4 L 282.1,286.6 L 283.1,286.6 L 283.6,286.3 L 284.1,285.8 L 285.8,285.4 L 286.8,284.7 L 288.0,284.4 L 290.3,284.0 L 291.5,283.6 L 294.4,282.5 L 296.4,281.8 L 304.7,280.1 L 308.0,279.8 L 310.7,279.3 L 315.4,278.7 L 318.6,278.4 L 322.0,278.4 L 323.8,278.4 L 323.9,278.3 L 327.5,278.3 L 329.8,278.1 L 331.1,278.2 L 331.7,278.4 L 332.6,279.1 L 333.1,279.9 L 333.8,280.3 L 334.5,280.6 L 336.9,282.1 L 339.5,283.3 L 341.0,284.5 L 341.2,285.0 L 342.9,287.7 L 343.7,288.7 L 345.2,290.0 L 348.0,291.7 L 350.4,293.5 L 351.4,294.6 L 352.4,295.4 L 353.1,296.7 L 354.4,298.8 L 355.5,299.0 L 356.3,299.2 L 357.2,299.9 L 358.0,301.3 L 358.2,302.5 L 358.5,303.2 L 358.8,304.9 L 359.4,306.4 L 359.8,308.0 L 360.0,310.0 L 359.9,312.9 L 359.4,316.0 L 358.2,317.2 L 358.1,317.3 L 358.0,318.0 L 331.2,337.0 L 320.4,344.6 L 319.8,343.5 L 319.6,342.9 L 318.7,342.7 L 318.0,342.2 L 316.4,340.4 L 315.7,340.1 L 314.8,340.1 L 314.1,340.3 L 313.5,340.2 L 309.5,334.8 L 309.0,334.5 L 307.9,334.1 L 307.3,333.7 L 307.3,332.3 L 307.0,332.4 L 306.4,333.4 L 306.1,333.4 L 305.4,333.1 L 304.6,333.0 L 304.3,333.3 L 304.1,334.3 L 303.9,335.0 L 303.3,335.6 L 301.1,336.7 L 300.4,336.7 L 298.6,337.0 L 297.1,337.7 L 296.0,338.5 L 294.5,340.1 L 293.2,341.0 L 291.4,341.6 L 288.6,341.6 L 286.8,341.5 L 286.8,341.5 L 286.1,341.0 L 286.0,340.9 L 285.7,340.9 L 285.1,340.2 L 284.6,339.2 L 284.6,338.7 L 284.1,338.2 L 283.9,337.3 L 283.2,337.2 L 282.1,336.1 L 281.5,335.8 L 281.0,335.2 L 281.0,334.8 L 280.7,334.7 L 279.5,335.0 L 279.0,335.8 L 277.5,335.7 L 277.3,336.1 L 276.9,336.4 L 276.0,336.4 L 275.7,335.8 L 275.2,335.6 L 273.9,335.6 L 273.5,336.2 L 271.8,337.7 L 269.0,340.1 L 267.8,340.7 L 267.3,341.2 L 267.1,341.4 L 265.2,342.2 L 263.2,342.6 L 262.4,342.6 L 260.3,342.2 L 258.6,342.0 L 257.1,341.9 L 255.8,341.4 L 253.8,340.8 L 249.5,340.4 L 248.6,340.0 L 248.0,340.0 L 247.1,339.3 L 246.8,339.1 L 245.6,339.0 L 245.3,339.0 L 239.5,338.6 L 239.3,338.6 L 236.8,339.1 L 234.2,338.7 L 232.9,339.0 L 231.0,339.2 L 226.6,339.0 L 221.5,336.9 L 221.1,336.8 L 218.3,336.4 L 215.8,335.6 L 213.6,334.8 L 212.2,334.2 L 210.0,332.6 L 209.4,332.2 L 208.7,331.4 L 207.7,330.7 L 207.2,329.8 L 207.0,328.9 L 206.5,328.2 L 202.3,324.8 L 200.9,323.2 L 199.2,321.1 L 193.8,314.3 L 193.2,313.9 L 192.1,312.5 L 189.6,309.5 L 187.9,306.6 L 186.9,304.6 L 185.3,301.5 L 184.9,301.1 L 183.5,298.5 L 182.0,296.3 L 178.6,292.8 L 178.1,291.9 L 178.2,291.0 L 178.6,290.3 L 178.4,289.6 L 178.7,288.8 L 178.5,287.7 L 178.1,287.2 L 177.5,286.9 L 177.1,286.6 L 176.3,286.3 L 176.2,286.3 L 175.5,285.9 L 174.8,285.5 L 174.3,285.0 L 174.0,284.7 L 173.1,284.0 L 172.0,283.7 L 171.0,283.0 L 170.1,282.7 L 169.1,282.2 L 168.0,281.7 L 166.9,281.4 L 166.2,281.2 L 165.2,280.7 L 164.1,280.3 L 163.1,279.8 L 162.7,279.7 L 162.3,279.7 L 161.6,279.1 L 160.8,278.7 L 160.6,278.6 L 158.3,277.6 L 156.0,276.1 L 153.6,275.1 L 151.4,273.9 L 150.5,272.9 L 150.1,272.3 L 150.0,272.0 L 148.7,270.8 L 147.9,270.4 L 145.6,269.7 L 145.2,269.7 L 143.5,269.0 L 143.0,268.5 L 142.3,268.3 L 140.8,268.0 L 138.7,267.7 L 136.0,267.1 L 134.6,266.7 L 134.1,266.0 L 133.5,265.0 L 132.4,264.0 L 131.8,263.3 L 131.6,263.2 L 131.2,263.3 L 130.8,262.4 L 128.4,260.8 L 125.5,259.1 L 124.6,258.3 L 123.7,257.1 L 122.3,254.9 L 122.2,254.0 L 122.2,252.9 L 120.2,250.2 L 119.9,249.8 L 118.9,249.1 L 117.1,248.1 L 115.6,246.8 L 114.8,245.7 L 113.9,243.0 L 113.0,241.8 L 112.6,241.2 L 112.0,240.8 L 110.3,238.9" fill="none" stroke="black" stroke-width="2"/>
</svg>