<?xml version="1.0" encoding="UTF-8"?>
<svg width="400" height="400" viewBox="0 0 400 400" xmlns="http://www.w3.org/2000/svg">
  <rect width="400" height="400" fill="white"/>
  <path d="M 40.0,186.0 L 42.0,184.9 L 47.9,183.8 L 50.6,183.1 L 57.5,182.1 L 60.0,181.0 L 61.1,179.9 L 62.9,177.7 L 65.5,177.3 L 72.9,178.1 L 74.8,176.8 L 77.1,174.9 L 77.6,172.2 L 79.8,170.9 L 82.7,168.0 L 92.6,162.8 L 94.4,162.8 L 106.2,160.8 L 107.6,159.4 L 108.6,155.5 L 109.8,154.3 L 111.1,154.2 L 114.1,149.9 L 116.0,148.3 L 126.3,148.1 L 129.9,146.8 L 133.0,146.9 L 134.0,146.5 L 138.0,145.3 L 140.6,144.2 L 141.8,142.6 L 142.2,141.7 L 143.9,137.4 L 145.8,135.0 L 148.1,134.2 L 157.0,135.1 L 160.8,132.9 L 162.8,132.5 L 164.8,131.4 L 168.7,126.9 L 174.1,124.2 L 176.4,121.3 L 180.0,119.5 L 184.0,115.8 L 189.5,116.2 L 192.1,114.3 L 193.5,110.4 L 195.4,108.7 L 201.5,105.4 L 206.2,103.5 L 208.1,98.3 L 210.0,95.9 L 218.8,89.7 L 220.2,88.1 L 222.9,87.2 L 224.2,87.4 L 230.3,90.1 L 231.2,90.2 L 233.1,90.5 L 235.7,90.4 L 238.9,92.0 L 246.0,92.9 L 248.9,94.7 L 250.5,95.7 L 253.7,95.9 L 258.7,94.7 L 260.7,94.7 L 264.4,97.2 L 267.5,96.9 L 271.8,99.3 L 272.8,100.6 L 272.9,103.0 L 273.7,103.1 L 274.8,102.1 L 276.5,102.1 L 278.2,102.7 L 280.6,104.9 L 282.1,105.3 L 283.9,105.0 L 285.5,104.7 L 286.3,105.2 L 288.9,108.7 L 289.3,109.6 L 291.2,111.3 L 292.7,111.3 L 297.0,109.4 L 298.7,109.1 L 299.9,108.1 L 301.5,107.9 L 302.0,108.4 L 306.0,106.7 L 306.9,106.6 L 307.0,105.9 L 309.0,104.6 L 313.1,105.0 L 315.5,105.9 L 319.9,107.0 L 321.6,107.6 L 321.7,108.3 L 325.0,109.0 L 331.8,109.8 L 333.2,111.0 L 338.1,111.5 L 343.3,113.3 L 343.9,113.2 L 350.2,114.2 L 352.1,112.1 L 354.0,113.1 L 354.8,113.1 L 355.0,115.3 L 355.3,116.5 L 354.5,120.2 L 354.4,120.3 L 354.8,121.2 L 354.3,122.1 L 352.7,123.5 L 352.6,123.4 L 352.3,123.3 L 351.6,122.5 L 351.4,122.8 L 352.0,123.9 L 351.8,124.0 L 350.5,124.8 L 349.7,126.4 L 349.5,128.5 L 350.0,132.1 L 350.7,133.4 L 350.6,134.3 L 349.5,135.7 L 349.3,136.9 L 349.7,138.2 L 350.3,138.3 L 352.1,138.3 L 352.9,138.7 L 352.9,139.6 L 353.2,140.9 L 353.9,141.7 L 354.1,141.8 L 354.4,142.1 L 356.5,144.0 L 356.7,145.6 L 356.3,146.2 L 354.2,149.0 L 354.1,149.2 L 353.5,149.7 L 352.9,150.0 L 352.5,150.2 L 352.4,152.0 L 352.5,152.7 L 354.1,154.1 L 354.4,154.4 L 354.0,154.6 L 353.3,154.8 L 353.0,154.6 L 352.4,154.8 L 352.3,155.1 L 352.7,156.0 L 353.3,155.9 L 353.6,155.3 L 354.3,155.0 L 354.7,155.0 L 354.7,155.2 L 354.9,158.2 L 355.1,158.4 L 356.1,160.2 L 357.4,161.8 L 358.6,163.2 L 360.0,165.6 L 359.8,167.7 L 358.3,168.7 L 357.7,169.5 L 358.7,170.3 L 359.7,170.3 L 354.9,192.3 L 354.8,192.4 L 349.2,191.6 L 346.5,192.6 L 344.2,194.3 L 341.5,195.7 L 336.6,195.4 L 333.7,194.9 L 325.2,195.3 L 320.1,196.0 L 315.0,197.4 L 294.4,199.6 L 279.6,204.7 L 276.4,206.9 L 274.1,209.3 L 273.4,210.0 L 268.0,215.0 L 265.4,217.1 L 264.9,217.9 L 263.1,218.8 L 260.8,218.8 L 260.4,218.5 L 257.9,217.8 L 255.9,216.6 L 254.4,216.3 L 254.2,216.2 L 253.7,215.6 L 253.8,214.3 L 252.4,214.3 L 252.4,212.4 L 251.4,212.4 L 251.5,214.1 L 251.2,214.5 L 251.2,214.7 L 248.6,214.2 L 248.4,214.1 L 248.7,212.5 L 247.8,212.3 L 247.7,213.7 L 247.5,213.7 L 246.0,212.5 L 243.0,212.6 L 241.3,211.2 L 241.5,207.5 L 239.8,206.5 L 236.9,206.3 L 229.9,209.8 L 227.4,208.9 L 224.0,208.3 L 221.6,204.8 L 217.9,203.2 L 214.5,203.3 L 213.3,202.5 L 212.5,201.6 L 211.8,200.0 L 209.8,199.1 L 209.3,199.1 L 206.1,200.0 L 203.8,201.1 L 200.1,203.7 L 199.6,204.5 L 199.5,205.3 L 198.3,206.9 L 193.4,208.8 L 191.4,209.0 L 188.2,211.4 L 186.9,213.2 L 186.5,215.1 L 186.6,219.7 L 186.3,223.2 L 184.8,226.9 L 185.1,228.7 L 184.5,233.7 L 183.7,235.8 L 182.2,238.2 L 179.9,239.6 L 178.0,241.6 L 176.7,245.3 L 173.8,248.9 L 171.7,250.6 L 166.4,252.2 L 162.2,254.7 L 158.2,258.4 L 152.4,263.1 L 150.2,263.8 L 149.0,264.3 L 146.6,265.7 L 132.2,278.0 L 132.1,278.0 L 132.1,278.0 L 131.9,278.0 L 131.2,278.7 L 130.5,279.2 L 126.2,280.1 L 122.8,282.9 L 121.1,283.7 L 119.6,284.4 L 115.7,287.0 L 113.3,289.6 L 110.6,294.0 L 108.7,295.8 L 108.2,301.7 L 107.1,304.4 L 105.6,306.4 L 103.5,307.7 L 97.2,309.2 L 96.2,310.6 L 94.4,312.1 L 93.0,312.8" fill="none" stroke="black" stroke-width="2"/>
</svg>