<?xml version="1.0" encoding="UTF-8"?>
<svg width="400" height="400" viewBox="0 0 400 400" xmlns="http://www.w3.org/2000/svg">
  <rect width="400" height="400" fill="white"/>
  <path d="M 87.9,228.9 L 89.8,227.8 L 92.0,223.6 L 94.4,221.1 L 95.6,217.8 L 98.3,215.7 L 101.9,213.2 L 105.5,212.0 L 112.5,209.2 L 116.7,206.3 L 119.8,204.9 L 129.5,199.7 L 130.7,199.6 L 135.6,196.6 L 138.8,194.5 L 139.3,193.7 L 142.7,190.3 L 144.9,185.8 L 146.2,182.0 L 146.9,177.0 L 148.1,176.2 L 157.4,174.4 L 174.7,175.7 L 177.5,174.8 L 180.8,172.6 L 185.1,169.0 L 187.9,167.8 L 190.5,165.4 L 191.4,163.3 L 191.5,163.0 L 191.9,159.8 L 190.8,155.1 L 190.8,151.8 L 189.7,148.1 L 188.4,145.4 L 188.6,139.8 L 187.5,137.9 L 188.2,131.4 L 186.5,128.6 L 184.5,124.4 L 182.9,122.3 L 182.6,118.7 L 177.4,111.3 L 174.1,105.6 L 169.8,99.7 L 166.5,95.4 L 159.9,88.7 L 156.0,85.9 L 155.7,85.7 L 155.9,85.5 L 194.1,51.8 L 197.1,49.2 L 197.7,50.2 L 199.4,51.3 L 202.2,51.4 L 204.0,50.5 L 204.6,50.1 L 205.2,48.8 L 204.6,47.7 L 219.6,54.9 L 219.5,55.4 L 220.8,57.1 L 223.1,60.8 L 230.6,68.9 L 232.6,69.7 L 234.1,69.3 L 236.2,69.3 L 237.8,70.5 L 239.4,73.8 L 239.8,76.1 L 237.1,81.3 L 236.7,85.4 L 238.0,87.1 L 241.0,87.9 L 242.5,88.7 L 245.5,93.6 L 246.7,94.6 L 249.1,95.1 L 251.4,99.1 L 253.6,100.6 L 257.0,101.8 L 260.7,104.5 L 262.3,106.4 L 262.8,109.4 L 264.3,112.6 L 267.7,116.0 L 271.4,117.0 L 280.6,117.8 L 283.2,118.1 L 288.1,117.7 L 289.8,118.1 L 290.4,118.6 L 291.3,120.7 L 290.6,122.6 L 289.6,123.6 L 287.3,124.9 L 283.7,126.1 L 279.8,125.7 L 276.7,125.3 L 274.0,125.8 L 272.3,127.1 L 271.7,129.0 L 267.8,128.4 L 267.4,129.0 L 267.8,129.9 L 269.1,130.5 L 270.4,131.8 L 269.5,135.4 L 269.5,139.4 L 270.3,142.1 L 274.4,146.5 L 276.1,147.6 L 277.7,147.3 L 277.8,147.2 L 279.8,146.2 L 279.5,145.2 L 278.0,144.7 L 277.5,144.4 L 277.7,141.1 L 275.1,136.2 L 276.3,135.5 L 278.6,136.6 L 278.8,136.9 L 284.1,143.3 L 285.6,145.9 L 287.0,148.9 L 289.3,152.7 L 293.4,155.4 L 297.2,156.6 L 301.9,156.9 L 304.1,156.6 L 306.2,157.4 L 312.2,157.3 L 313.3,157.4 L 315.9,157.5 L 318.0,158.6 L 321.2,159.7 L 322.8,161.3 L 324.3,164.5 L 327.0,168.3 L 324.3,170.7 L 323.8,175.4 L 323.7,176.6 L 321.0,178.3 L 313.1,181.7 L 311.9,183.7 L 310.5,184.2 L 309.3,184.4 L 303.6,184.2 L 300.0,185.4 L 294.5,187.9 L 290.5,188.2 L 283.9,190.8 L 280.0,195.2 L 277.1,196.9 L 273.9,196.8 L 273.1,197.0 L 272.5,197.1 L 271.5,198.3 L 268.6,200.7 L 264.1,201.1 L 260.0,203.9 L 256.8,205.8 L 253.0,210.5 L 250.8,214.7 L 249.5,218.3 L 249.3,219.0 L 249.4,221.6 L 250.4,224.6 L 250.9,228.4 L 251.7,231.4 L 254.3,233.8 L 258.1,236.2 L 262.5,239.5 L 268.8,243.4 L 271.9,245.2 L 273.6,248.0 L 273.7,249.8 L 272.4,251.0 L 269.5,251.6 L 268.5,252.1 L 268.1,254.3 L 269.0,255.7 L 276.7,260.9 L 282.2,262.8 L 285.3,262.9 L 289.4,261.6 L 296.9,261.1 L 299.2,260.4 L 302.5,260.7 L 310.7,261.1 L 315.3,260.7 L 317.9,261.4 L 322.0,258.5 L 325.4,258.2 L 326.3,258.4 L 326.3,258.7 L 326.4,259.5 L 326.2,260.7 L 326.0,262.0 L 326.8,262.2 L 327.2,258.8 L 327.4,258.7 L 329.4,259.0 L 332.9,257.3 L 333.6,257.3 L 336.9,257.6 L 338.8,256.0 L 343.0,255.8 L 347.6,254.3 L 350.4,254.8 L 352.3,257.5 L 353.8,258.1 L 356.1,258.1 L 357.6,257.8 L 359.6,260.5 L 360.0,262.3 L 359.8,262.9 L 359.4,266.4 L 354.9,268.8 L 351.7,270.0 L 347.5,270.0 L 336.5,272.1 L 333.9,273.7 L 332.0,275.3 L 324.7,281.5 L 318.6,284.0 L 312.4,284.4 L 310.3,285.8 L 309.2,287.4 L 306.6,289.8 L 299.0,290.3 L 286.9,294.2 L 282.7,296.0 L 279.9,297.9 L 271.3,299.6 L 267.3,299.5 L 264.0,300.2 L 263.5,299.8 L 261.6,297.8 L 259.9,298.5 L 257.1,298.4 L 255.7,298.9 L 255.7,299.8 L 256.5,302.1 L 258.1,303.4 L 261.4,303.2 L 262.4,304.5 L 261.5,305.3 L 258.5,306.2 L 256.5,306.3 L 253.7,305.3 L 251.0,306.0 L 249.3,307.3 L 250.1,308.5 L 253.4,310.6 L 255.3,313.4 L 255.1,315.4 L 253.2,317.5 L 241.3,323.2 L 239.9,323.5 L 238.5,324.3 L 238.2,325.3 L 238.5,326.7 L 239.2,328.7 L 239.0,330.1 L 237.0,330.7 L 235.2,330.6 L 232.7,328.9 L 232.4,327.1 L 232.3,327.0 L 231.6,325.1 L 229.9,323.8 L 224.7,323.2 L 222.6,323.8 L 221.5,325.9 L 220.8,327.0 L 219.8,327.2 L 217.4,325.7 L 214.1,325.3 L 211.9,326.8 L 213.5,329.2 L 212.9,330.7 L 213.2,332.2 L 211.9,333.3 L 210.2,333.3 L 208.1,331.9 L 204.9,331.4 L 202.0,329.5 L 199.3,329.2 L 198.4,329.6 L 195.8,328.0 L 190.2,329.9 L 184.9,329.5 L 182.7,329.5 L 179.4,330.3 L 175.8,333.0 L 172.0,332.9 L 170.5,333.3 L 168.2,335.8 L 165.5,337.9 L 159.3,340.6 L 153.4,342.6 L 150.5,342.1 L 145.6,342.2 L 142.2,342.9 L 138.2,345.8 L 137.3,346.2 L 136.5,345.7 L 135.1,343.3 L 131.3,341.7 L 129.4,341.4 L 121.3,345.0 L 118.2,344.9 L 113.9,343.6 L 107.7,343.6 L 104.7,345.1 L 101.8,345.6 L 97.9,347.0 L 93.5,347.4 L 91.4,349.0 L 90.6,350.6 L 89.4,351.9 L 88.2,352.2 L 86.4,352.3 L 84.4,351.8 L 83.0,350.8 L 82.9,349.9 L 81.7,346.5 L 81.3,343.4 L 81.7,342.8 L 81.3,342.4 L 78.9,340.8 L 78.5,340.1 L 76.7,339.9 L 76.5,339.6 L 74.1,338.9 L 70.7,338.4 L 67.3,338.6 L 63.8,339.0 L 61.4,338.6 L 60.6,338.5 L 58.6,338.9 L 55.5,340.4 L 55.2,343.7 L 53.3,341.1 L 52.1,340.5 L 48.7,339.9 L 49.0,338.8 L 50.7,335.9 L 52.3,332.9 L 50.6,332.2 L 47.9,334.4 L 45.0,336.3 L 42.6,336.3 L 41.1,335.1 L 40.9,334.9 L 40.0,334.2 L 42.3,333.5 L 45.5,332.5 L 48.1,330.4 L 50.8,329.0 L 54.3,328.9 L 57.6,328.7 L 60.9,327.9 L 62.4,328.1 L 64.2,328.2 L 67.6,328.9 L 71.0,328.7 L 74.3,328.6 L 74.8,328.5 L 78.8,328.3 L 79.4,327.0 L 81.6,324.7 L 83.7,319.5 L 85.4,318.7 L 88.3,318.8 L 88.8,318.0 L 88.2,316.6 L 86.8,315.8 L 84.6,315.4 L 80.3,312.7 L 76.4,311.5 L 73.4,310.9 L 67.2,311.0 L 65.1,311.8 L 64.7,311.8 L 63.9,312.2 L 61.5,313.2 L 58.7,315.1 L 56.2,317.2 L 53.9,319.6 L 50.5,319.9 L 48.6,319.6 L 49.2,318.3 L 49.7,316.5 L 48.8,314.6 L 47.5,315.0 L 46.6,315.1 L 46.4,312.2 L 46.0,309.1 L 44.8,305.9 L 44.1,303.6 L 46.2,301.0 L 48.0,299.2 L 48.1,299.0 L 48.2,298.9 L 48.3,298.9 L 48.6,298.6 L 48.9,298.3 L 50.9,297.0 L 52.2,296.7 L 53.2,295.1 L 54.8,293.2 L 55.5,291.8 L 56.1,288.1 L 57.3,285.0 L 59.7,281.2 L 60.7,278.4 L 62.1,277.7 L 63.9,275.4 L 66.2,274.2 L 67.5,272.5 L 67.8,269.0 L 67.9,268.8 L 68.9,266.9 L 72.6,262.7 L 76.6,259.1 L 77.6,257.5 L 81.2,253.0 L 82.7,251.6 L 82.7,251.2 L 84.3,246.2 L 84.5,244.3 L 83.6,242.4 L 84.0,238.1 L 84.7,236.8 L 85.9,234.7 L 86.8,232.6 L 87.6,229.6" fill="none" stroke="black" stroke-width="2"/>
</svg>