<?xml version="1.0" encoding="UTF-8"?>
<svg width="400" height="400" viewBox="0 0 400 400" xmlns="http://www.w3.org/2000/svg">
  <rect width="400" height="400" fill="white"/>
  <path d="M 106.5,280.0 L 40.0,146.0 L 43.7,146.2 L 51.5,145.6 L 59.2,142.7 L 65.7,139.4 L 71.2,134.6 L 77.8,130.6 L 80.5,129.8 L 84.0,129.3 L 87.2,128.1 L 92.1,127.7 L 104.2,127.5 L 122.9,128.2 L 126.6,129.6 L 147.8,132.5 L 164.1,132.2 L 171.2,131.5 L 197.1,133.7 L 201.5,132.4 L 206.5,131.8 L 211.3,132.8 L 217.2,135.1 L 221.8,135.5 L 225.9,136.5 L 230.1,136.3 L 231.7,136.0 L 236.2,134.1 L 237.2,133.8 L 239.1,133.9 L 240.4,133.1 L 241.6,132.5 L 241.8,132.5 L 242.4,133.7 L 243.1,133.6 L 243.0,132.6 L 243.2,130.6 L 243.9,130.3 L 247.0,129.8 L 251.7,128.9 L 256.5,128.1 L 258.6,127.6 L 261.1,125.9 L 264.0,123.6 L 268.2,121.5 L 272.1,119.3 L 274.8,117.2 L 276.0,116.1 L 276.8,116.4 L 278.2,118.3 L 280.3,120.3 L 281.8,120.6 L 282.1,120.2 L 281.5,119.3 L 279.0,116.6 L 277.9,114.8 L 278.2,114.3 L 280.2,112.8 L 284.6,110.7 L 288.0,109.5 L 289.3,108.3 L 294.1,107.9 L 298.9,108.4 L 301.4,108.7 L 303.7,109.0 L 308.4,109.7 L 313.3,110.0 L 318.0,110.6 L 320.3,111.1 L 321.8,111.7 L 326.6,112.1 L 328.6,112.7 L 329.7,114.1 L 329.7,115.5 L 330.5,115.6 L 332.2,113.9 L 332.9,114.4 L 332.8,115.2 L 332.9,116.3 L 333.7,117.1 L 334.8,117.3 L 335.3,117.0 L 336.1,116.0 L 337.4,116.0 L 338.4,116.7 L 341.9,119.9 L 344.5,122.8 L 347.1,126.8 L 348.7,128.2 L 351.3,129.2 L 351.4,129.3 L 353.0,133.6 L 354.5,137.4 L 356.0,142.1 L 357.4,146.6 L 358.3,149.9 L 359.0,153.8 L 359.5,157.3 L 360.0,161.0 L 359.4,165.1 L 357.5,166.3 L 357.3,169.9 L 358.0,174.8 L 359.2,177.0 L 359.7,181.0 L 359.9,181.8 L 358.0,185.1 L 357.9,185.9 L 358.6,186.8 L 358.0,187.9 L 355.8,190.0 L 352.8,191.6 L 349.6,193.3 L 345.7,196.2 L 341.7,198.9 L 338.8,200.2 L 335.8,200.9 L 334.9,201.0 L 330.2,201.6 L 325.4,202.2 L 320.7,203.4 L 316.1,204.4 L 311.4,205.3 L 307.8,205.6 L 302.9,205.1 L 299.8,205.3 L 295.1,206.6 L 292.1,207.8 L 291.8,207.9 L 288.8,209.7 L 285.2,212.7 L 282.9,216.0 L 282.4,217.7 L 281.9,222.4 L 281.4,225.4 L 279.1,229.6 L 278.3,231.0 L 277.7,233.5 L 276.0,237.8 L 275.2,239.9 L 272.5,243.8 L 269.9,247.5 L 268.0,249.3 L 267.1,249.6 L 265.5,249.1 L 263.8,248.5 L 262.6,248.6 L 262.2,249.1 L 261.4,250.3 L 259.0,251.5 L 259.3,253.4 L 259.4,254.3 L 257.5,254.7 L 256.8,254.4 L 255.8,252.9 L 253.7,253.1 L 251.8,254.0 L 249.6,253.7 L 248.9,253.0 L 248.6,251.8 L 248.5,250.6 L 247.6,250.0 L 245.8,250.0 L 243.5,250.9 L 243.5,251.7 L 243.9,252.8 L 243.2,253.5 L 238.7,255.3 L 236.9,256.0 L 232.1,256.1 L 229.4,256.5 L 226.2,257.8 L 225.6,258.7 L 225.1,263.6 L 225.8,264.4 L 227.1,265.1 L 227.3,265.4 L 226.6,265.9 L 224.8,265.6 L 224.3,265.1 L 223.6,262.9 L 222.8,259.7 L 221.7,257.5 L 220.1,256.1 L 218.2,255.2 L 215.9,254.5 L 214.6,251.7 L 213.2,250.7 L 210.9,250.0 L 207.2,249.7 L 205.4,250.7 L 201.3,254.2 L 193.4,258.0 L 192.6,258.2 L 190.0,262.2 L 187.0,263.4 L 186.0,266.6 L 180.7,270.7 L 178.2,271.3 L 175.8,273.3 L 174.4,275.2 L 169.5,277.7 L 165.1,281.6 L 159.8,284.7 L 156.6,285.8 L 153.1,289.4 L 149.5,291.8 L 146.7,292.1 L 134.5,289.3 L 129.4,289.5 L 125.7,287.6 L 120.7,286.5 L 117.1,282.4 L 117.4,279.9 L 113.7,277.4 L 110.9,277.1 L 108.9,278.7 L 106.5,280.0" fill="none" stroke="black" stroke-width="2"/>
</svg>