<?xml version="1.0" encoding="UTF-8"?>
<svg width="400" height="400" viewBox="0 0 400 400" xmlns="http://www.w3.org/2000/svg">
  <rect width="400" height="400" fill="white"/>
  <path d="M 65.4,172.2 L 66.6,166.6 L 68.1,164.9 L 71.5,164.3 L 73.1,164.3 L 75.9,162.3 L 77.3,161.7 L 77.5,161.4 L 79.2,160.7 L 80.4,158.9 L 80.8,157.9 L 82.4,157.3 L 83.0,155.8 L 84.4,154.4 L 85.9,149.2 L 86.5,142.0 L 86.1,141.2 L 87.3,136.7 L 88.9,135.2 L 88.9,135.0 L 89.6,133.0 L 90.3,128.7 L 89.9,127.1 L 90.6,125.3 L 90.7,123.6 L 90.3,120.8 L 89.1,118.7 L 89.6,114.1 L 87.1,105.5 L 87.2,103.2 L 86.1,99.4 L 85.0,97.5 L 124.4,68.9 L 148.5,51.4 L 150.1,54.2 L 152.9,55.3 L 155.4,55.0 L 159.3,53.9 L 161.3,54.2 L 167.9,56.2 L 169.6,56.3 L 171.3,55.7 L 172.8,55.8 L 174.0,55.6 L 177.4,55.9 L 177.8,55.6 L 179.3,55.7 L 181.6,56.0 L 186.3,57.8 L 205.0,61.5 L 213.3,65.1 L 219.5,65.3 L 222.3,64.3 L 223.1,63.5 L 225.4,63.8 L 227.2,65.7 L 231.3,66.7 L 239.5,67.7 L 243.4,66.8 L 245.1,67.5 L 247.7,67.7 L 250.0,67.4 L 255.7,65.6 L 258.1,64.8 L 258.3,64.7 L 261.6,68.2 L 262.4,69.0 L 259.1,71.2 L 256.7,74.1 L 257.9,74.4 L 259.9,75.9 L 262.0,76.0 L 265.6,75.0 L 267.3,73.9 L 269.1,74.0 L 269.7,73.7 L 270.2,74.1 L 283.3,87.1 L 289.5,93.2 L 289.0,93.3 L 288.7,93.9 L 286.6,95.9 L 284.3,96.0 L 283.8,97.2 L 282.3,97.8 L 280.1,99.8 L 279.4,101.5 L 279.7,103.5 L 278.2,105.0 L 277.9,105.6 L 278.6,106.8 L 276.7,107.9 L 274.5,109.9 L 273.0,110.0 L 272.0,111.4 L 271.3,112.9 L 269.5,114.8 L 272.6,115.1 L 273.3,116.6 L 275.0,117.8 L 275.0,119.0 L 273.7,120.3 L 272.5,120.5 L 272.8,122.1 L 273.7,122.8 L 278.4,123.5 L 280.7,125.0 L 283.1,126.4 L 284.3,126.6 L 286.3,127.2 L 292.5,128.9 L 300.3,130.1 L 300.6,131.0 L 301.4,131.3 L 302.9,130.4 L 306.5,130.9 L 309.4,131.7 L 310.5,133.3 L 311.9,132.7 L 328.7,135.3 L 330.2,135.1 L 334.8,136.6 L 338.1,136.7 L 340.7,135.8 L 341.3,135.8 L 343.1,135.2 L 344.7,135.8 L 346.4,136.1 L 347.9,136.5 L 349.3,137.1 L 353.5,136.4 L 356.9,136.9 L 358.2,137.5 L 358.7,137.7 L 359.1,137.8 L 360.0,139.1 L 358.6,139.3 L 357.8,138.9 L 355.8,137.9 L 355.6,137.7 L 355.2,137.7 L 353.2,137.9 L 352.5,138.0 L 350.1,139.2 L 349.8,139.3 L 349.6,139.3 L 346.1,138.9 L 345.3,138.8 L 344.0,138.2 L 342.7,137.7 L 342.3,137.6 L 341.2,137.6 L 340.9,138.7 L 340.4,140.3 L 340.0,140.5 L 339.6,140.6 L 337.3,140.4 L 335.8,139.1 L 334.9,139.7 L 333.4,139.6 L 325.8,137.7 L 324.0,138.1 L 322.3,138.0 L 321.1,137.2 L 318.7,137.6 L 316.9,137.3 L 310.7,134.8 L 309.7,135.8 L 308.0,136.0 L 306.5,136.7 L 304.6,136.9 L 304.3,137.7 L 303.6,138.4 L 302.6,138.4 L 300.9,137.1 L 300.4,137.5 L 300.1,138.4 L 299.7,138.7 L 297.2,138.7 L 297.0,139.7 L 295.9,140.6 L 294.3,141.3 L 294.0,142.1 L 294.0,143.1 L 296.1,144.9 L 295.7,145.1 L 295.0,145.5 L 294.1,146.0 L 292.5,145.7 L 288.3,144.3 L 287.7,144.9 L 288.2,145.8 L 287.1,146.4 L 286.1,146.8 L 285.6,146.6 L 283.0,145.6 L 285.6,145.2 L 285.4,143.3 L 284.3,142.3 L 283.7,142.6 L 282.7,145.4 L 281.7,143.1 L 279.6,142.6 L 275.8,141.6 L 274.6,141.9 L 272.1,141.8 L 271.6,142.5 L 273.6,143.8 L 273.4,144.5 L 271.0,145.3 L 268.6,145.1 L 267.1,144.1 L 266.4,143.9 L 262.5,143.2 L 261.2,143.6 L 260.9,144.3 L 259.8,145.5 L 260.4,146.9 L 258.7,148.8 L 257.6,150.9 L 256.6,151.0 L 254.6,152.5 L 253.9,152.6 L 252.8,153.4 L 253.8,154.8 L 253.7,155.3 L 254.0,155.8 L 255.7,156.4 L 256.9,157.2 L 256.0,157.8 L 256.6,158.5 L 257.2,159.9 L 256.8,160.2 L 247.4,159.4 L 247.0,159.7 L 247.3,160.5 L 248.3,161.2 L 249.3,162.5 L 251.3,163.4 L 251.6,164.3 L 254.7,164.7 L 256.4,166.7 L 255.9,167.2 L 255.6,169.1 L 257.0,170.0 L 257.7,171.5 L 259.3,172.7 L 259.9,172.2 L 259.7,171.6 L 260.5,170.6 L 262.3,169.3 L 266.2,167.6 L 267.5,167.8 L 268.3,166.6 L 268.5,165.1 L 270.2,164.4 L 273.2,164.7 L 274.3,163.5 L 275.0,163.0 L 275.5,163.6 L 275.8,163.7 L 277.4,166.3 L 282.5,166.8 L 283.8,165.9 L 285.0,165.7 L 285.7,165.8 L 286.4,165.5 L 288.9,166.6 L 289.8,167.6 L 290.1,168.6 L 291.3,169.4 L 291.5,169.9 L 291.7,170.3 L 296.7,172.1 L 297.5,173.2 L 296.2,173.7 L 296.6,174.2 L 300.4,175.2 L 300.7,176.1 L 302.1,177.3 L 301.6,177.7 L 303.1,179.0 L 305.3,179.9 L 307.1,181.0 L 310.6,181.2 L 312.1,180.8 L 317.2,181.2 L 320.1,184.0 L 320.0,185.5 L 321.7,185.7 L 323.8,187.0 L 325.6,186.7 L 327.0,187.3 L 328.9,189.8 L 328.5,190.4 L 330.2,190.5 L 331.1,189.7 L 332.8,189.8 L 333.3,190.0 L 333.5,190.3 L 334.4,191.6 L 340.9,192.6 L 341.1,192.6 L 341.6,192.6 L 344.0,193.4 L 345.5,195.4 L 345.1,197.8 L 345.2,198.2 L 346.3,203.8 L 349.7,206.7 L 350.4,208.0 L 350.4,208.3 L 350.7,254.3 L 350.7,267.1 L 345.6,266.6 L 344.3,265.6 L 343.9,265.9 L 343.4,266.0 L 340.6,265.9 L 340.0,266.8 L 337.6,267.3 L 337.1,269.3 L 336.4,269.1 L 335.9,268.7 L 335.2,268.2 L 335.6,266.9 L 334.7,266.6 L 334.2,266.9 L 333.0,267.7 L 332.9,268.4 L 334.1,268.7 L 335.0,268.9 L 335.3,270.3 L 333.4,275.9 L 332.8,277.8 L 332.2,278.6 L 331.5,279.8 L 327.6,281.7 L 324.4,282.5 L 323.8,282.5 L 323.5,282.4 L 322.1,282.3 L 318.5,283.1 L 311.7,285.0 L 307.5,285.7 L 303.7,285.5 L 298.4,286.4 L 295.7,286.3 L 289.5,288.5 L 282.2,291.2 L 280.9,292.2 L 280.1,294.1 L 277.8,296.2 L 274.4,296.1 L 274.0,296.1 L 273.2,296.0 L 270.2,296.4 L 268.9,296.5 L 267.0,297.0 L 265.4,296.8 L 265.1,296.6 L 264.9,296.8 L 264.2,297.3 L 262.5,298.0 L 261.7,298.9 L 260.8,299.1 L 257.6,301.7 L 257.0,302.8 L 255.5,303.9 L 255.4,304.1 L 254.6,305.7 L 252.4,306.6 L 251.9,309.6 L 251.3,311.5 L 250.0,313.2 L 247.7,313.4 L 244.1,313.3 L 241.7,313.5 L 240.1,313.8 L 239.2,314.4 L 236.2,315.5 L 234.6,317.6 L 232.6,318.1 L 232.1,319.9 L 230.5,321.4 L 229.2,321.3 L 226.8,323.1 L 225.3,323.7 L 223.9,326.0 L 220.1,329.0 L 219.6,330.8 L 221.0,332.8 L 215.9,336.2 L 214.9,338.0 L 215.2,339.8 L 213.5,340.9 L 213.2,341.2 L 211.2,341.1 L 208.2,342.4 L 206.0,343.0 L 204.3,344.2 L 203.2,344.9 L 202.8,345.2 L 202.0,346.6 L 200.4,348.5 L 200.4,348.6 L 200.2,348.5 L 175.1,325.4 L 175.5,323.9 L 180.4,319.2 L 183.1,315.5 L 184.0,313.6 L 185.0,309.6 L 186.1,309.8 L 186.7,308.7 L 187.0,306.4 L 186.7,303.3 L 188.3,302.0 L 187.4,300.5 L 187.9,299.9 L 188.0,298.7 L 189.3,297.6 L 189.9,296.3 L 189.6,295.4 L 189.4,294.7 L 189.5,293.8 L 189.1,292.9 L 189.0,290.6 L 190.1,289.0 L 190.0,288.1 L 189.3,287.9 L 188.3,288.1 L 188.0,287.6 L 189.7,285.3 L 189.8,282.9 L 189.2,282.0 L 189.8,280.5 L 191.0,279.4 L 193.5,279.4 L 194.7,279.0 L 196.7,276.2 L 197.7,275.6 L 199.6,273.5 L 200.3,273.4 L 202.5,270.7 L 202.5,269.4 L 200.8,266.6 L 199.8,265.9 L 197.8,266.2 L 196.8,265.6 L 195.5,263.7 L 194.2,262.5 L 193.3,260.5 L 193.7,259.2 L 194.2,258.3 L 193.0,256.4 L 193.4,254.7 L 195.2,253.4 L 195.4,251.8 L 199.2,252.1 L 199.6,250.5 L 201.0,250.7 L 202.2,251.2 L 203.1,250.6 L 203.2,248.7 L 203.2,247.7 L 203.3,245.5 L 202.1,244.1 L 196.0,243.2 L 194.5,241.4 L 194.5,240.1 L 193.4,238.6 L 191.9,237.0 L 192.1,236.8 L 192.6,236.3 L 194.3,236.0 L 195.9,235.3 L 196.2,234.0 L 196.2,231.5 L 195.8,230.6 L 193.5,230.1 L 192.4,230.3 L 190.7,232.4 L 190.0,234.0 L 189.2,234.3 L 186.4,232.3 L 185.3,231.0 L 185.9,229.9 L 185.3,227.1 L 183.7,226.7 L 183.6,226.3 L 182.1,225.8 L 179.8,226.1 L 176.4,227.7 L 173.3,231.6 L 172.3,234.6 L 171.4,235.4 L 170.5,233.9 L 167.9,233.5 L 167.0,233.9 L 167.8,234.8 L 167.9,235.5 L 167.0,235.4 L 166.3,236.1 L 166.8,237.0 L 166.6,237.9 L 165.8,238.0 L 164.8,237.2 L 163.3,237.6 L 161.9,238.7 L 160.1,238.9 L 158.8,239.4 L 157.9,241.8 L 157.9,242.3 L 159.3,244.1 L 158.2,244.9 L 157.0,248.7 L 152.7,252.2 L 150.4,254.1 L 147.5,254.2 L 146.2,255.2 L 144.7,257.7 L 144.0,259.8 L 143.2,260.9 L 142.9,262.2 L 140.1,264.8 L 136.5,266.1 L 131.8,265.8 L 130.8,265.7 L 128.9,265.2 L 126.6,265.2 L 123.7,267.9 L 123.2,269.7 L 122.6,271.2 L 121.3,272.1 L 118.8,276.2 L 116.9,278.4 L 116.1,279.8 L 115.6,283.0 L 116.9,284.7 L 118.9,286.6 L 121.2,286.9 L 122.5,288.7 L 123.2,288.7 L 125.0,291.0 L 127.4,291.5 L 129.5,293.0 L 131.4,292.7 L 132.1,293.4 L 129.5,294.9 L 127.5,296.9 L 127.0,298.8 L 128.2,300.3 L 129.0,301.1 L 128.3,301.2 L 124.4,301.6 L 53.7,310.0 L 52.9,310.1 L 52.8,309.9 L 53.3,307.8 L 54.8,305.8 L 54.9,304.2 L 52.9,301.1 L 53.3,298.4 L 50.8,293.0 L 50.8,291.7 L 52.0,290.5 L 52.1,288.4 L 50.2,285.5 L 48.3,283.4 L 48.1,281.8 L 48.7,280.6 L 48.9,279.2 L 46.3,274.9 L 45.0,273.1 L 44.2,272.4 L 44.4,269.6 L 42.4,266.3 L 41.4,264.1 L 41.4,259.3 L 41.7,258.2 L 43.8,256.2 L 43.5,255.4 L 41.9,253.6 L 42.0,251.7 L 41.4,250.1 L 41.7,247.6 L 41.5,246.4 L 41.7,245.1 L 41.0,244.4 L 41.3,242.0 L 41.2,237.7 L 40.4,227.4 L 40.0,226.8 L 40.5,223.8 L 41.5,222.2 L 42.3,219.2 L 42.9,218.2 L 43.6,216.0 L 44.5,215.0 L 48.4,205.6 L 48.8,202.2 L 48.4,199.8 L 47.0,194.7 L 48.2,190.0 L 49.4,188.2 L 50.5,187.4 L 53.9,186.7 L 58.3,185.2 L 61.1,182.5 L 62.7,179.2 L 65.1,173.9 L 65.4,172.2" fill="none" stroke="black" stroke-width="2"/>
</svg>