<?xml version="1.0" encoding="UTF-8"?>
<svg width="400" height="400" viewBox="0 0 400 400" xmlns="http://www.w3.org/2000/svg">
  <rect width="400" height="400" fill="white"/>
  <path d="M 335.5,316.4 L 335.4,316.3 L 185.9,254.3 L 44.4,195.6 L 44.4,195.2 L 43.6,192.9 L 40.0,189.6 L 40.4,188.6 L 43.4,187.9 L 46.1,187.5 L 47.8,185.6 L 49.1,184.6 L 52.3,184.3 L 53.9,184.6 L 57.7,181.6 L 61.6,181.2 L 63.8,181.5 L 64.9,181.4 L 67.4,180.3 L 71.2,175.6 L 73.5,175.0 L 75.2,173.3 L 78.2,173.0 L 82.5,171.8 L 85.4,171.7 L 87.7,170.6 L 94.9,172.1 L 98.5,170.7 L 99.8,169.5 L 99.7,168.7 L 97.7,168.0 L 98.6,166.6 L 100.5,166.4 L 104.1,164.6 L 109.4,162.8 L 111.1,162.5 L 115.7,161.0 L 121.2,160.8 L 124.4,160.1 L 128.4,158.4 L 132.0,157.3 L 134.9,155.1 L 138.2,155.5 L 141.7,153.0 L 145.6,154.1 L 148.2,154.5 L 151.1,153.7 L 153.2,152.6 L 154.7,152.3 L 158.1,150.4 L 160.2,148.8 L 160.1,147.6 L 157.4,146.7 L 157.9,145.6 L 162.8,142.0 L 167.2,141.9 L 173.1,141.1 L 180.5,138.8 L 190.0,136.6 L 197.3,135.0 L 206.1,127.7 L 209.7,125.4 L 214.6,121.7 L 218.8,121.1 L 222.1,121.2 L 225.1,120.4 L 228.9,120.7 L 231.7,119.4 L 235.2,118.3 L 237.8,116.5 L 239.5,115.8 L 243.5,113.9 L 248.1,113.9 L 249.9,112.2 L 250.5,110.2 L 251.2,108.8 L 251.0,106.9 L 252.9,103.4 L 252.8,101.0 L 254.2,95.7 L 258.2,86.7 L 260.3,85.1 L 261.9,85.6 L 263.1,87.4 L 264.3,87.8 L 265.5,90.6 L 266.5,92.0 L 271.7,92.7 L 274.6,97.2 L 275.6,97.1 L 278.0,95.2 L 279.5,95.0 L 287.1,88.5 L 289.2,85.9 L 289.3,83.7 L 289.2,83.6 L 332.7,87.8 L 333.6,87.8 L 332.9,87.9 L 330.4,90.2 L 329.7,94.6 L 326.4,99.4 L 324.7,106.1 L 323.8,111.0 L 323.9,114.9 L 325.0,119.3 L 326.6,121.6 L 336.2,129.5 L 348.1,131.3 L 351.8,132.8 L 354.0,135.4 L 355.7,138.3 L 356.4,143.0 L 355.3,145.9 L 349.1,157.0 L 347.5,167.1 L 347.0,173.7 L 347.4,177.5 L 350.0,184.4 L 351.6,187.7 L 351.0,192.4 L 349.0,197.6 L 347.0,200.0 L 345.9,202.9 L 345.2,205.7 L 345.7,207.4 L 347.5,209.7 L 351.4,211.2 L 354.3,214.2 L 355.1,216.5 L 357.0,222.0 L 359.1,225.4 L 360.0,227.9 L 359.5,231.2 L 357.9,235.5 L 357.3,236.4 L 355.5,245.5 L 353.7,250.2 L 352.1,255.7 L 351.8,261.4 L 350.9,267.8 L 349.7,270.4 L 346.4,273.8 L 344.8,276.6 L 344.2,280.8 L 344.1,281.3 L 344.7,285.5 L 343.1,296.7 L 342.1,300.0 L 339.5,304.4 L 338.8,308.6 L 337.3,310.1 L 337.0,311.9 L 335.7,314.6" fill="none" stroke="black" stroke-width="2"/>
</svg>