<?xml version="1.0" encoding="UTF-8"?>
<svg width="400" height="400" viewBox="0 0 400 400" xmlns="http://www.w3.org/2000/svg">
  <rect width="400" height="400" fill="white"/>
  <path d="M 49.3,227.3 L 49.3,227.3 L 47.1,216.9 L 40.0,184.9 L 40.1,184.9 L 40.5,184.8 L 40.9,184.4 L 41.2,184.2 L 41.5,184.0 L 42.2,183.7 L 42.5,183.5 L 42.6,183.2 L 42.4,182.4 L 42.2,182.0 L 41.9,181.9 L 41.7,181.8 L 41.5,181.6 L 41.5,181.6 L 41.5,181.5 L 41.5,181.5 L 41.4,181.2 L 41.8,180.9 L 42.1,181.0 L 42.5,181.4 L 43.0,181.5 L 43.4,181.3 L 43.6,181.0 L 43.7,180.9 L 44.2,180.6 L 44.3,180.5 L 44.2,180.3 L 44.3,180.1 L 44.4,180.1 L 44.4,179.9 L 44.3,179.8 L 44.7,179.3 L 44.7,178.9 L 44.9,178.8 L 45.0,178.3 L 45.1,178.1 L 45.4,178.5 L 45.6,178.6 L 45.6,178.9 L 45.7,178.9 L 46.0,178.7 L 45.6,177.9 L 45.7,177.6 L 46.2,177.2 L 46.4,177.2 L 46.6,177.0 L 46.7,177.0 L 47.0,177.4 L 47.3,177.5 L 47.7,177.5 L 47.9,177.4 L 48.0,177.5 L 48.1,177.8 L 48.3,177.7 L 48.6,177.6 L 48.8,177.7 L 48.9,177.9 L 48.8,178.6 L 48.9,178.8 L 49.1,178.8 L 49.3,178.8 L 49.5,178.8 L 49.8,179.3 L 50.2,179.4 L 50.6,178.9 L 50.9,178.9 L 51.0,178.5 L 51.2,178.3 L 51.3,178.1 L 51.6,177.9 L 51.7,177.8 L 51.8,177.7 L 51.9,177.5 L 51.9,177.2 L 52.0,177.1 L 52.3,176.9 L 52.4,177.0 L 52.4,177.2 L 52.4,177.3 L 52.3,177.4 L 52.5,177.7 L 52.4,177.9 L 52.3,178.2 L 52.4,178.5 L 52.2,178.8 L 51.9,179.5 L 52.0,179.7 L 52.1,179.8 L 52.4,179.9 L 52.7,179.6 L 52.9,178.7 L 53.1,178.4 L 52.9,178.2 L 53.0,178.0 L 53.3,177.8 L 53.4,177.9 L 54.0,178.6 L 54.2,178.6 L 54.5,178.4 L 54.4,178.2 L 54.5,178.1 L 54.5,177.9 L 54.6,177.7 L 54.6,177.4 L 54.9,177.4 L 54.8,177.2 L 54.4,177.1 L 53.7,177.0 L 53.9,176.5 L 54.1,176.4 L 54.8,176.2 L 55.2,176.1 L 55.8,176.0 L 56.3,175.8 L 56.4,175.7 L 56.5,175.5 L 56.8,175.3 L 56.9,174.9 L 57.0,174.8 L 57.3,174.8 L 57.6,174.6 L 57.7,174.3 L 57.9,174.3 L 58.0,174.5 L 58.1,174.3 L 58.2,174.1 L 58.4,174.0 L 58.6,173.9 L 58.5,173.7 L 58.5,173.5 L 58.2,173.3 L 57.8,172.7 L 57.9,172.5 L 58.7,172.1 L 59.0,171.9 L 59.2,171.8 L 59.6,172.2 L 59.8,172.1 L 59.9,171.7 L 59.9,171.5 L 60.2,171.5 L 61.2,171.5 L 61.6,171.3 L 61.7,171.3 L 61.7,171.5 L 61.9,171.4 L 61.8,170.7 L 61.9,170.5 L 62.1,170.4 L 62.3,170.3 L 62.4,170.3 L 62.3,169.8 L 62.8,169.4 L 62.9,169.4 L 63.1,169.6 L 63.3,169.7 L 63.7,169.4 L 64.0,169.3 L 63.8,169.2 L 63.4,169.1 L 63.4,168.9 L 63.5,168.8 L 63.3,168.7 L 63.0,168.4 L 62.8,168.2 L 62.4,168.1 L 62.1,167.8 L 62.2,167.6 L 62.4,167.5 L 63.1,167.8 L 63.3,167.7 L 63.4,167.3 L 63.2,167.2 L 62.7,167.1 L 62.8,166.9 L 63.7,166.5 L 63.7,166.2 L 63.7,166.1 L 63.6,165.9 L 63.6,165.8 L 63.6,165.6 L 63.5,165.6 L 63.5,165.5 L 63.5,165.4 L 63.6,165.3 L 63.8,165.3 L 64.0,165.3 L 64.1,165.2 L 64.1,165.1 L 64.1,165.1 L 64.1,165.0 L 64.0,165.1 L 63.8,165.2 L 63.6,165.1 L 63.6,165.0 L 63.6,165.0 L 63.5,164.7 L 63.4,164.8 L 63.4,164.7 L 63.2,164.5 L 63.1,164.5 L 62.8,164.5 L 62.5,164.4 L 62.1,164.4 L 62.0,164.4 L 61.8,164.3 L 61.7,164.3 L 61.5,164.2 L 61.3,164.2 L 61.3,164.1 L 61.2,164.2 L 61.1,164.3 L 60.9,164.3 L 60.7,164.3 L 60.6,164.3 L 60.4,164.3 L 60.1,164.3 L 59.7,164.3 L 59.4,164.2 L 59.3,164.1 L 59.3,163.9 L 59.4,163.7 L 59.5,163.6 L 59.6,163.5 L 59.8,163.4 L 60.0,163.4 L 60.0,163.4 L 60.2,163.3 L 60.4,163.3 L 60.8,163.2 L 61.0,163.1 L 61.0,163.1 L 61.2,163.1 L 61.1,163.0 L 61.3,163.0 L 61.2,162.9 L 61.3,162.8 L 61.5,162.8 L 61.6,162.8 L 61.7,162.8 L 61.8,162.7 L 61.7,162.6 L 61.7,162.5 L 61.7,162.4 L 62.0,162.2 L 62.0,162.2 L 62.1,162.5 L 62.0,162.7 L 62.3,162.8 L 62.6,162.8 L 62.6,162.8 L 62.8,162.9 L 62.8,163.0 L 63.4,163.1 L 63.4,163.0 L 63.1,163.0 L 63.1,162.9 L 63.2,162.8 L 63.1,162.7 L 63.1,162.7 L 63.0,162.6 L 63.1,162.6 L 62.9,162.5 L 62.9,162.6 L 62.7,162.5 L 62.7,162.4 L 62.8,162.1 L 62.7,162.0 L 62.8,161.9 L 62.8,161.7 L 62.8,161.5 L 63.1,161.5 L 63.4,161.6 L 63.5,161.6 L 63.9,161.7 L 64.0,161.7 L 64.0,161.7 L 64.2,161.7 L 64.5,161.7 L 64.5,161.6 L 64.6,161.6 L 64.6,161.7 L 64.7,161.7 L 65.0,161.8 L 65.1,161.8 L 65.1,161.7 L 65.2,161.3 L 65.2,161.1 L 65.1,161.0 L 65.0,161.0 L 64.9,161.0 L 64.8,160.7 L 64.8,160.6 L 64.8,160.5 L 65.0,160.3 L 65.1,160.3 L 65.2,160.2 L 65.2,160.2 L 65.5,160.3 L 65.7,160.3 L 66.0,160.2 L 66.2,160.3 L 66.4,160.3 L 66.5,160.0 L 67.0,159.8 L 67.5,159.7 L 67.6,159.6 L 67.8,159.5 L 68.1,159.6 L 68.2,159.4 L 68.7,159.2 L 68.9,159.1 L 70.1,158.3 L 70.2,158.1 L 70.5,158.0 L 71.1,158.0 L 72.1,157.7 L 73.1,157.1 L 74.0,156.6 L 74.2,156.4 L 75.3,155.9 L 76.3,155.4 L 76.5,154.9 L 76.8,154.8 L 76.9,154.7 L 77.0,154.4 L 77.4,153.9 L 77.8,153.6 L 78.2,153.7 L 78.7,153.3 L 78.9,153.1 L 78.9,152.8 L 79.3,152.5 L 79.4,152.5 L 79.7,152.1 L 80.0,151.6 L 80.7,150.3 L 80.8,149.8 L 81.0,149.5 L 81.1,149.1 L 81.3,149.1 L 86.1,150.8 L 86.0,150.9 L 85.7,151.2 L 85.7,151.8 L 85.9,152.8 L 86.0,153.0 L 86.1,153.3 L 86.3,153.3 L 86.4,153.4 L 86.6,153.6 L 86.4,154.1 L 86.8,154.9 L 86.9,154.9 L 86.9,155.0 L 87.0,155.0 L 87.1,154.9 L 87.3,154.8 L 87.3,154.8 L 87.3,154.7 L 87.4,154.6 L 87.4,154.6 L 87.5,154.6 L 87.6,154.6 L 87.6,154.6 L 87.7,154.6 L 87.6,154.9 L 87.6,155.0 L 87.7,155.2 L 87.7,155.3 L 87.7,155.4 L 87.8,155.6 L 87.8,155.7 L 87.8,155.7 L 87.8,155.8 L 87.7,155.9 L 87.7,155.9 L 87.6,155.8 L 87.6,155.8 L 87.5,155.9 L 87.5,155.9 L 87.6,155.9 L 87.6,156.0 L 87.5,156.0 L 87.4,156.0 L 87.3,156.0 L 87.2,156.1 L 87.2,156.1 L 87.2,156.1 L 87.2,156.2 L 87.2,156.2 L 87.3,156.2 L 87.3,156.3 L 87.3,156.3 L 87.3,156.3 L 87.2,156.4 L 87.1,156.4 L 87.1,156.4 L 87.0,156.5 L 87.0,156.6 L 86.9,156.6 L 86.8,156.6 L 86.7,156.6 L 86.7,156.6 L 86.6,156.7 L 86.5,156.7 L 86.4,156.8 L 86.2,156.8 L 86.2,156.8 L 86.2,157.0 L 86.2,157.0 L 86.3,157.1 L 86.3,157.1 L 86.4,157.1 L 86.6,157.1 L 86.8,157.1 L 86.8,157.1 L 86.8,157.3 L 86.7,157.5 L 86.6,157.6 L 86.6,157.7 L 86.6,157.7 L 86.5,157.7 L 86.5,157.5 L 86.5,157.5 L 86.4,157.5 L 86.4,157.5 L 86.4,157.5 L 86.3,157.6 L 86.2,157.7 L 86.1,157.7 L 86.1,157.7 L 86.1,157.8 L 86.1,158.0 L 86.2,158.1 L 86.1,158.2 L 86.1,158.2 L 86.0,158.2 L 86.0,158.2 L 85.9,158.3 L 85.9,158.4 L 85.8,158.4 L 85.8,158.3 L 85.8,158.3 L 85.8,158.3 L 85.7,158.3 L 85.6,158.3 L 85.6,158.3 L 85.6,158.4 L 85.7,158.4 L 85.7,158.5 L 85.7,158.6 L 85.6,158.6 L 85.6,158.6 L 85.5,158.6 L 85.4,158.6 L 85.4,158.7 L 85.3,158.8 L 85.3,158.8 L 85.2,158.7 L 85.1,158.7 L 85.0,158.7 L 85.0,158.8 L 84.8,158.9 L 84.7,158.9 L 84.6,158.9 L 84.6,158.9 L 84.6,159.0 L 84.6,159.0 L 84.6,159.2 L 84.6,159.2 L 84.4,159.3 L 84.4,159.3 L 84.4,159.5 L 84.5,159.7 L 84.6,160.0 L 84.6,160.6 L 84.8,160.7 L 84.8,160.9 L 85.2,161.1 L 86.0,161.4 L 86.1,161.4 L 86.3,160.7 L 86.7,160.7 L 86.8,160.3 L 86.7,160.2 L 86.7,160.0 L 86.9,159.9 L 87.0,159.8 L 86.9,159.6 L 87.0,159.3 L 87.2,159.2 L 87.3,158.9 L 87.4,158.9 L 87.6,159.2 L 87.8,159.2 L 87.9,159.1 L 87.9,158.6 L 87.9,158.5 L 88.1,158.6 L 88.2,158.9 L 88.3,159.1 L 88.5,159.1 L 88.8,158.8 L 88.9,158.5 L 89.0,158.0 L 89.1,157.8 L 89.1,157.8 L 89.1,157.7 L 89.1,157.6 L 89.1,157.5 L 89.1,157.5 L 89.1,157.5 L 89.1,157.5 L 89.2,157.3 L 89.2,157.3 L 89.1,157.1 L 89.1,157.1 L 89.1,157.1 L 89.2,157.1 L 89.2,157.1 L 89.2,157.2 L 89.2,157.3 L 89.2,157.5 L 89.3,157.6 L 89.3,157.6 L 89.4,157.6 L 89.5,157.6 L 89.6,157.5 L 89.6,157.4 L 89.6,157.2 L 89.7,157.1 L 89.7,157.0 L 89.7,157.0 L 89.7,156.9 L 89.7,156.8 L 89.7,156.8 L 89.8,156.8 L 89.8,156.7 L 89.8,156.7 L 89.7,156.6 L 89.7,156.6 L 89.7,156.5 L 89.9,156.5 L 90.0,156.5 L 90.0,156.4 L 90.1,156.4 L 90.1,156.3 L 90.1,156.2 L 90.0,156.2 L 89.8,156.1 L 89.7,156.0 L 89.5,156.0 L 89.5,156.1 L 89.5,156.1 L 89.4,156.2 L 89.5,156.3 L 89.5,156.4 L 89.4,156.4 L 89.4,156.4 L 89.3,156.5 L 89.2,156.5 L 89.2,156.6 L 89.2,156.7 L 89.2,156.8 L 89.2,156.8 L 89.1,156.7 L 89.0,156.7 L 89.0,156.6 L 88.9,156.5 L 88.9,156.4 L 88.9,156.4 L 88.7,156.3 L 88.5,156.2 L 88.5,156.1 L 88.5,156.0 L 88.5,155.9 L 88.5,155.9 L 88.6,155.8 L 88.6,155.8 L 88.7,155.7 L 88.7,155.5 L 88.8,155.4 L 88.8,155.2 L 88.8,155.1 L 88.7,155.1 L 88.8,155.0 L 88.9,155.0 L 88.9,154.9 L 88.9,154.9 L 88.9,154.9 L 88.9,154.8 L 88.7,154.9 L 88.6,154.9 L 88.5,155.1 L 88.5,155.1 L 88.5,155.2 L 88.4,155.3 L 88.3,155.4 L 88.2,155.4 L 88.1,155.5 L 88.1,155.5 L 88.0,155.5 L 88.0,155.5 L 87.9,155.4 L 87.8,155.2 L 87.8,154.9 L 87.8,154.7 L 87.8,154.5 L 87.9,154.3 L 87.8,154.1 L 87.9,154.0 L 87.9,154.0 L 88.2,154.0 L 88.3,154.0 L 88.3,153.9 L 88.3,153.8 L 88.3,153.7 L 88.3,153.6 L 88.3,153.3 L 88.5,153.1 L 88.5,152.7 L 88.6,152.6 L 88.6,152.3 L 88.5,152.0 L 88.3,151.8 L 88.2,151.7 L 88.3,151.4 L 88.3,151.1 L 88.3,151.1 L 88.3,150.9 L 88.3,150.8 L 88.3,150.7 L 88.3,150.7 L 88.1,150.5 L 88.0,150.5 L 88.0,150.5 L 88.7,150.4 L 89.3,150.4 L 89.3,150.4 L 89.3,150.4 L 93.7,149.9 L 93.7,150.0 L 93.7,150.3 L 93.8,150.3 L 93.9,150.3 L 93.9,150.1 L 93.8,149.9 L 94.1,149.9 L 94.1,149.9 L 94.3,149.9 L 94.5,150.0 L 94.5,150.5 L 94.6,150.8 L 94.8,150.7 L 95.0,150.6 L 95.5,150.2 L 95.7,150.2 L 95.9,150.5 L 96.5,150.6 L 96.5,150.8 L 96.5,150.9 L 96.6,151.1 L 96.4,151.3 L 96.4,151.4 L 96.2,151.6 L 96.0,152.0 L 96.0,152.3 L 96.2,152.4 L 96.3,152.4 L 96.4,152.6 L 96.5,152.8 L 96.6,152.9 L 96.4,153.1 L 96.3,153.1 L 95.9,153.1 L 95.8,153.2 L 95.8,153.4 L 95.9,153.5 L 96.1,153.5 L 96.2,153.3 L 96.4,153.3 L 96.6,153.3 L 96.7,153.5 L 97.0,153.7 L 97.0,154.2 L 97.1,154.5 L 97.1,154.6 L 96.9,155.0 L 96.8,155.0 L 96.6,155.2 L 96.3,155.6 L 96.2,155.9 L 96.1,156.0 L 96.0,156.3 L 95.8,156.6 L 95.5,156.8 L 95.1,157.3 L 95.1,157.5 L 94.7,158.0 L 94.6,158.1 L 94.4,158.2 L 94.4,158.3 L 94.2,158.4 L 94.0,158.5 L 93.8,158.6 L 93.7,158.6 L 93.7,158.7 L 93.6,158.8 L 93.6,158.8 L 93.7,158.9 L 93.7,158.9 L 93.8,158.9 L 93.8,159.0 L 93.8,159.1 L 93.8,159.1 L 93.8,159.1 L 93.7,159.1 L 93.6,159.0 L 93.5,158.9 L 93.3,158.8 L 93.2,158.7 L 93.1,158.6 L 92.9,158.5 L 92.8,158.4 L 92.6,158.3 L 92.5,158.2 L 92.4,158.1 L 92.2,158.0 L 92.1,157.9 L 92.0,157.9 L 91.8,157.8 L 91.7,157.7 L 91.6,157.7 L 91.5,157.7 L 91.5,157.7 L 91.4,157.7 L 91.4,157.8 L 91.4,157.9 L 91.4,157.9 L 91.4,157.9 L 91.6,158.0 L 91.8,158.1 L 92.0,158.1 L 92.1,158.2 L 92.3,158.3 L 92.4,158.4 L 92.6,158.5 L 92.7,158.6 L 92.9,158.7 L 92.9,158.7 L 92.9,158.8 L 92.9,158.8 L 92.7,158.8 L 92.7,158.7 L 92.7,158.8 L 92.6,158.9 L 92.6,159.0 L 92.4,159.3 L 92.3,159.4 L 92.2,159.5 L 91.9,159.4 L 91.8,159.3 L 91.7,159.4 L 91.7,159.5 L 91.6,159.6 L 91.4,159.7 L 91.2,159.7 L 91.1,159.7 L 91.0,159.9 L 91.0,160.0 L 91.3,160.1 L 91.6,160.1 L 91.7,160.2 L 91.8,160.4 L 91.8,160.5 L 91.7,160.5 L 91.8,160.6 L 91.9,160.6 L 92.0,160.6 L 92.2,160.4 L 92.5,159.9 L 92.6,159.8 L 92.6,159.7 L 92.6,159.6 L 92.8,159.9 L 92.9,160.1 L 92.9,160.2 L 93.0,160.2 L 93.1,159.7 L 93.1,159.7 L 93.1,159.6 L 93.3,159.3 L 93.5,159.2 L 93.8,159.4 L 93.8,159.4 L 94.1,159.5 L 94.1,159.9 L 94.1,160.0 L 94.4,160.1 L 94.8,160.3 L 94.9,160.5 L 94.9,160.7 L 94.7,160.9 L 94.6,161.1 L 94.8,161.5 L 95.0,161.6 L 95.6,162.0 L 96.5,162.1 L 97.0,161.5 L 97.2,161.5 L 97.2,161.6 L 97.1,161.8 L 97.2,162.0 L 97.1,162.2 L 97.2,162.3 L 97.1,162.4 L 97.0,162.5 L 97.2,162.8 L 97.1,162.9 L 97.1,163.0 L 97.0,163.6 L 97.2,163.9 L 97.7,164.1 L 98.1,163.9 L 99.1,163.9 L 99.5,163.8 L 99.7,163.7 L 99.2,163.3 L 98.9,163.2 L 99.0,163.0 L 99.2,163.0 L 99.2,162.8 L 98.4,162.6 L 98.4,162.5 L 98.4,162.5 L 98.6,162.4 L 99.0,162.5 L 99.4,162.6 L 99.7,162.4 L 100.0,162.4 L 100.4,162.4 L 100.7,162.3 L 101.2,161.9 L 101.4,161.5 L 101.7,161.2 L 102.0,160.9 L 102.3,160.7 L 102.4,160.7 L 102.6,160.9 L 102.6,161.4 L 102.6,161.6 L 102.9,161.8 L 103.3,161.8 L 103.6,161.8 L 103.6,161.7 L 103.8,161.6 L 103.9,161.6 L 104.3,161.3 L 105.1,161.0 L 105.5,161.0 L 106.0,161.1 L 106.1,161.0 L 106.2,160.8 L 106.5,160.9 L 106.8,160.6 L 107.0,160.6 L 107.2,160.6 L 107.3,160.4 L 107.2,160.3 L 107.3,160.2 L 107.5,160.2 L 107.7,160.3 L 108.0,160.0 L 108.0,159.8 L 108.1,159.7 L 108.2,159.7 L 108.4,159.5 L 108.7,159.5 L 108.8,159.1 L 109.0,159.1 L 109.0,159.5 L 109.2,159.4 L 109.3,159.2 L 109.6,159.2 L 110.0,158.9 L 110.0,158.7 L 110.3,158.5 L 110.5,158.2 L 110.5,157.7 L 110.6,157.5 L 110.5,157.1 L 110.4,156.9 L 110.2,156.8 L 110.3,156.5 L 110.1,156.2 L 109.7,155.4 L 109.5,155.3 L 109.5,155.0 L 109.6,154.5 L 109.6,154.3 L 110.1,153.9 L 110.2,153.6 L 110.3,153.5 L 110.4,153.3 L 110.3,153.3 L 110.2,153.0 L 110.1,153.0 L 110.3,152.8 L 110.0,152.1 L 110.0,152.1 L 110.3,151.8 L 110.6,151.5 L 110.5,151.4 L 110.9,150.8 L 111.2,150.3 L 111.5,149.8 L 111.6,149.4 L 111.9,149.1 L 112.3,148.3 L 112.5,148.0 L 112.6,147.2 L 112.6,146.5 L 112.6,146.3 L 112.7,146.1 L 112.7,145.4 L 112.7,145.0 L 112.6,144.7 L 112.5,144.7 L 112.5,144.4 L 112.8,143.7 L 112.5,142.2 L 112.3,141.7 L 112.1,141.4 L 112.2,140.6 L 112.4,140.5 L 112.3,140.2 L 112.2,140.2 L 112.0,140.4 L 111.8,140.4 L 111.6,140.3 L 111.7,139.9 L 111.8,139.7 L 111.9,139.5 L 111.8,139.2 L 111.7,139.0 L 111.6,139.1 L 111.5,139.6 L 111.1,139.6 L 111.0,139.3 L 110.9,139.2 L 110.7,139.3 L 110.6,139.2 L 110.6,138.9 L 110.5,138.7 L 110.4,138.7 L 110.2,138.9 L 110.0,139.0 L 109.7,139.3 L 109.4,139.3 L 109.2,139.5 L 109.0,139.5 L 108.7,139.9 L 108.6,139.9 L 108.5,139.6 L 108.2,139.7 L 108.2,139.6 L 108.4,139.3 L 108.4,139.1 L 108.3,139.0 L 108.1,139.2 L 108.0,139.3 L 107.9,139.3 L 107.8,139.3 L 107.5,138.9 L 107.7,138.9 L 107.8,138.6 L 108.0,138.2 L 107.8,137.7 L 107.4,137.5 L 107.6,137.0 L 107.6,136.7 L 107.5,136.4 L 107.5,136.2 L 107.6,136.2 L 107.8,136.3 L 108.0,136.0 L 108.2,135.9 L 108.4,135.8 L 108.5,135.7 L 108.4,135.6 L 108.4,135.4 L 108.5,135.0 L 108.5,135.0 L 108.6,134.8 L 108.9,134.8 L 109.0,135.0 L 109.1,135.1 L 109.2,135.1 L 109.4,134.9 L 109.4,134.6 L 109.6,134.6 L 109.7,134.8 L 109.6,135.1 L 110.1,135.4 L 110.3,135.4 L 110.4,135.3 L 110.7,134.9 L 110.7,134.5 L 110.6,134.3 L 110.5,134.1 L 110.4,134.2 L 110.1,134.6 L 110.0,134.5 L 110.1,133.9 L 110.0,133.7 L 109.8,133.5 L 109.8,133.3 L 110.0,133.2 L 110.0,133.0 L 109.7,132.7 L 109.6,132.5 L 109.8,132.5 L 110.1,132.6 L 110.1,132.5 L 110.0,132.2 L 109.7,131.8 L 109.6,131.6 L 109.6,131.4 L 109.5,131.3 L 109.4,131.2 L 109.1,130.7 L 109.1,130.1 L 109.1,130.0 L 109.0,129.7 L 108.9,129.6 L 108.7,129.2 L 108.4,129.0 L 108.3,128.2 L 108.5,127.6 L 108.7,127.0 L 108.9,126.5 L 109.0,126.3 L 109.1,126.2 L 109.2,126.1 L 109.3,126.3 L 109.4,126.4 L 109.6,126.4 L 109.8,126.2 L 110.0,125.9 L 110.8,125.9 L 111.2,125.8 L 111.6,125.6 L 112.0,125.4 L 112.5,125.2 L 113.3,125.0 L 114.1,124.9 L 114.4,124.9 L 114.7,125.1 L 115.0,125.0 L 115.1,125.2 L 115.2,125.4 L 115.5,125.4 L 115.6,125.6 L 115.5,125.8 L 115.0,126.0 L 115.1,126.4 L 115.1,126.5 L 115.4,126.3 L 115.5,126.3 L 115.6,126.4 L 115.6,126.8 L 115.9,126.8 L 116.0,127.0 L 115.8,127.2 L 115.7,127.5 L 115.5,127.6 L 115.4,127.8 L 115.4,128.1 L 115.2,128.3 L 115.3,128.9 L 115.7,129.0 L 115.9,129.1 L 116.0,129.4 L 115.9,129.8 L 116.2,130.0 L 116.5,130.6 L 116.7,130.7 L 116.8,130.6 L 117.0,130.5 L 118.6,130.5 L 118.8,130.7 L 119.0,130.9 L 119.0,131.1 L 119.0,131.6 L 118.9,131.8 L 119.1,132.2 L 119.0,132.5 L 118.8,132.8 L 118.3,133.3 L 118.0,133.7 L 117.4,134.0 L 117.3,134.4 L 117.0,134.9 L 116.8,135.7 L 116.6,136.2 L 116.4,136.3 L 116.3,136.4 L 116.3,136.6 L 116.4,137.3 L 116.9,137.4 L 117.1,137.6 L 117.1,138.0 L 117.4,138.4 L 117.2,139.4 L 117.1,139.8 L 116.9,140.0 L 116.7,140.2 L 116.7,140.3 L 116.9,140.8 L 117.1,141.6 L 117.2,142.0 L 117.3,142.2 L 117.3,142.7 L 117.4,143.0 L 117.4,143.4 L 117.4,143.9 L 117.8,144.0 L 118.0,143.9 L 118.2,144.2 L 118.3,144.4 L 118.5,145.0 L 118.7,145.2 L 118.9,145.5 L 119.6,145.8 L 119.9,146.0 L 120.1,146.3 L 120.4,146.3 L 120.7,146.2 L 121.0,146.4 L 121.2,146.2 L 121.7,146.3 L 121.9,146.1 L 122.0,146.1 L 122.1,146.3 L 122.1,146.4 L 121.9,146.7 L 121.9,146.8 L 121.9,146.9 L 122.1,146.9 L 122.3,146.8 L 122.3,146.3 L 122.6,145.9 L 122.8,145.8 L 123.2,145.8 L 123.5,145.8 L 123.6,145.9 L 123.8,146.1 L 124.0,146.0 L 124.1,146.0 L 124.4,146.1 L 124.6,146.2 L 124.6,146.4 L 124.9,146.4 L 125.3,146.5 L 125.4,146.7 L 125.5,146.8 L 125.6,147.1 L 125.6,147.1 L 125.6,147.4 L 125.1,147.6 L 125.0,147.8 L 124.7,147.9 L 124.6,148.3 L 124.2,148.3 L 124.0,148.4 L 124.0,149.0 L 123.6,149.4 L 123.4,149.4 L 123.3,149.5 L 123.2,149.6 L 123.1,149.6 L 122.8,149.4 L 122.5,149.3 L 121.8,149.6 L 121.3,150.1 L 120.8,150.4 L 120.7,150.6 L 120.3,150.9 L 120.0,150.9 L 119.5,151.3 L 118.8,151.7 L 118.6,151.8 L 118.5,151.9 L 118.5,152.0 L 118.2,152.2 L 118.1,152.4 L 118.2,152.7 L 117.8,153.2 L 117.7,153.5 L 117.5,153.7 L 117.1,153.8 L 116.7,154.4 L 116.5,154.9 L 117.0,154.9 L 117.1,154.9 L 117.4,154.8 L 117.6,154.9 L 117.6,155.1 L 117.6,155.3 L 117.3,155.3 L 116.9,155.3 L 116.8,155.3 L 116.5,155.5 L 116.1,155.6 L 115.8,155.8 L 115.7,156.1 L 115.8,156.3 L 115.7,156.4 L 115.7,156.5 L 115.8,156.8 L 115.5,157.0 L 115.7,157.3 L 116.0,157.4 L 116.0,157.8 L 116.1,157.8 L 116.2,157.9 L 116.5,157.9 L 116.8,157.9 L 117.0,157.9 L 117.2,158.1 L 117.6,158.3 L 117.8,158.3 L 118.1,158.1 L 118.1,157.8 L 118.1,157.6 L 118.1,157.5 L 118.5,157.4 L 118.7,157.0 L 118.8,157.1 L 118.9,157.2 L 118.9,157.3 L 118.9,157.6 L 118.9,157.7 L 119.3,157.7 L 119.4,157.6 L 119.6,157.5 L 119.8,157.5 L 120.2,157.2 L 120.3,156.9 L 120.4,156.9 L 120.5,157.0 L 120.7,157.2 L 120.9,157.2 L 121.0,157.4 L 121.2,157.4 L 121.4,157.2 L 121.5,156.5 L 121.6,156.5 L 121.8,156.8 L 121.9,156.8 L 122.1,156.5 L 122.2,156.6 L 122.4,156.8 L 122.6,156.7 L 122.8,156.5 L 123.2,155.8 L 123.6,155.5 L 124.0,155.5 L 124.2,155.4 L 124.5,155.6 L 124.7,155.4 L 125.2,154.6 L 125.3,154.8 L 125.4,155.0 L 125.1,155.3 L 125.0,155.5 L 125.1,155.6 L 125.3,155.7 L 125.5,155.5 L 125.5,155.3 L 125.6,155.2 L 125.8,155.4 L 125.9,155.3 L 126.3,154.5 L 126.6,154.3 L 126.8,154.4 L 126.8,154.7 L 126.8,154.8 L 127.5,154.9 L 127.8,154.7 L 127.9,154.4 L 128.1,154.3 L 128.3,154.3 L 128.3,154.5 L 128.3,154.8 L 128.4,154.8 L 128.5,154.5 L 128.8,154.3 L 129.0,153.9 L 129.2,153.9 L 129.3,154.0 L 129.2,154.5 L 129.4,154.4 L 129.5,154.2 L 129.7,154.2 L 129.9,154.3 L 130.0,154.4 L 130.0,154.6 L 130.2,154.5 L 130.4,154.0 L 130.4,153.8 L 130.5,153.6 L 130.8,153.8 L 131.2,153.8 L 131.6,153.6 L 132.3,153.7 L 132.6,153.6 L 132.8,153.6 L 133.1,153.7 L 134.2,153.1 L 134.5,153.4 L 134.9,153.4 L 135.5,153.1 L 135.5,152.8 L 135.9,152.5 L 136.1,152.5 L 136.4,152.4 L 136.8,152.3 L 137.0,152.1 L 137.3,152.1 L 137.7,151.9 L 138.0,151.7 L 138.2,151.6 L 138.5,151.9 L 139.0,151.9 L 139.3,151.8 L 139.4,151.8 L 139.8,151.8 L 140.5,151.2 L 141.5,150.9 L 142.1,150.7 L 142.5,150.5 L 142.6,150.6 L 142.8,151.1 L 142.7,151.2 L 142.5,151.3 L 142.4,151.7 L 142.5,151.9 L 142.5,152.1 L 142.3,152.2 L 142.4,152.4 L 142.3,152.6 L 142.4,152.7 L 142.6,152.7 L 142.9,152.5 L 143.7,151.8 L 143.9,151.6 L 144.1,151.5 L 144.2,151.7 L 144.3,151.7 L 145.0,151.4 L 145.3,151.1 L 145.6,151.0 L 145.7,150.6 L 145.8,150.6 L 145.9,150.7 L 146.1,150.7 L 146.2,150.9 L 146.6,151.2 L 147.0,151.2 L 147.4,151.0 L 147.7,150.5 L 147.9,150.4 L 148.1,150.4 L 148.1,150.0 L 148.3,150.0 L 148.4,150.2 L 148.5,150.2 L 148.9,150.0 L 149.0,149.9 L 149.3,150.0 L 149.9,149.6 L 150.4,149.0 L 150.6,148.9 L 150.9,148.8 L 152.8,147.4 L 153.1,147.7 L 153.2,147.7 L 153.6,147.1 L 153.8,146.9 L 154.2,146.8 L 154.5,146.4 L 155.3,145.9 L 155.7,145.3 L 155.8,145.1 L 156.0,145.0 L 156.1,145.1 L 156.0,145.8 L 156.1,145.8 L 156.2,145.9 L 156.1,146.0 L 156.0,146.5 L 155.9,146.7 L 155.9,146.9 L 156.3,146.8 L 157.4,145.5 L 157.4,145.1 L 157.5,145.0 L 157.7,145.1 L 157.7,145.2 L 157.8,145.2 L 158.2,144.9 L 158.2,144.7 L 158.1,144.5 L 158.0,144.4 L 158.0,144.3 L 158.2,144.3 L 158.5,144.3 L 158.6,144.7 L 158.8,144.7 L 159.1,144.2 L 159.3,143.8 L 159.4,143.7 L 159.7,143.7 L 160.0,143.1 L 160.3,143.3 L 160.3,143.5 L 160.4,143.4 L 160.7,143.2 L 161.0,142.8 L 161.1,142.6 L 161.3,142.4 L 161.4,142.1 L 161.2,141.9 L 160.9,142.2 L 160.8,142.2 L 160.7,141.9 L 160.6,141.7 L 160.8,141.5 L 160.9,141.3 L 160.8,141.1 L 160.9,140.9 L 161.0,140.8 L 161.1,140.7 L 161.2,140.3 L 161.5,140.2 L 161.8,140.1 L 162.1,140.1 L 162.7,139.9 L 163.3,139.8 L 165.0,140.0 L 165.3,139.8 L 165.6,139.7 L 165.8,139.7 L 166.1,139.5 L 167.1,139.1 L 167.6,138.9 L 168.3,138.9 L 168.8,139.2 L 169.0,139.3 L 169.2,139.1 L 169.6,138.9 L 170.5,138.3 L 170.6,138.0 L 171.3,137.5 L 171.6,137.2 L 171.4,137.0 L 171.5,136.9 L 171.7,136.8 L 171.9,136.8 L 172.1,136.5 L 172.5,136.4 L 172.6,136.0 L 172.7,135.9 L 172.9,135.8 L 173.3,135.2 L 173.8,134.9 L 174.8,134.5 L 175.3,134.2 L 175.7,133.5 L 176.2,133.1 L 177.2,132.3 L 177.8,132.0 L 178.2,131.9 L 179.7,131.4 L 180.2,131.4 L 180.5,131.5 L 180.7,131.7 L 180.9,132.3 L 180.8,132.8 L 180.9,132.9 L 181.1,132.9 L 181.2,132.7 L 181.4,132.6 L 181.6,132.3 L 182.1,131.9 L 182.3,131.6 L 182.4,131.5 L 182.7,131.2 L 182.9,131.1 L 183.5,131.4 L 183.5,131.6 L 183.7,131.6 L 183.9,131.4 L 184.3,131.5 L 184.9,131.3 L 185.0,131.6 L 185.0,131.7 L 185.1,131.9 L 185.5,131.9 L 185.5,131.7 L 185.5,131.2 L 185.4,130.8 L 185.3,130.7 L 185.1,130.7 L 184.9,130.2 L 184.7,129.2 L 184.8,128.9 L 185.1,128.5 L 185.6,128.0 L 185.6,127.6 L 186.2,127.1 L 186.3,126.9 L 186.5,127.0 L 186.7,127.1 L 187.6,127.2 L 188.1,127.0 L 188.6,126.7 L 189.1,126.5 L 190.1,126.3 L 190.7,126.1 L 191.2,126.2 L 191.2,126.4 L 191.2,126.5 L 191.1,127.0 L 191.1,127.0 L 191.5,126.8 L 191.6,126.6 L 191.4,126.4 L 191.8,126.0 L 192.8,125.8 L 193.3,125.5 L 193.7,124.8 L 194.8,124.0 L 195.4,123.7 L 196.5,122.9 L 197.1,122.6 L 197.2,122.4 L 197.4,122.4 L 198.2,121.9 L 198.9,121.4 L 199.3,121.3 L 199.5,121.1 L 200.4,120.7 L 200.9,120.5 L 201.3,120.3 L 201.7,120.3 L 202.3,119.9 L 202.6,119.8 L 202.9,119.8 L 204.0,119.2 L 205.0,118.7 L 205.5,118.4 L 205.6,118.1 L 206.3,118.2 L 207.1,118.1 L 208.1,117.8 L 208.5,117.6 L 209.1,117.5 L 209.7,117.6 L 210.4,117.8 L 210.4,117.8 L 211.2,117.9 L 211.7,118.0 L 212.1,118.3 L 212.4,118.6 L 212.3,118.9 L 212.2,119.3 L 212.8,119.1 L 213.0,118.9 L 213.2,118.5 L 213.5,118.1 L 213.5,117.9 L 213.7,117.7 L 213.6,117.5 L 213.8,117.0 L 214.0,116.4 L 214.4,115.7 L 215.0,115.2 L 215.1,115.0 L 215.1,114.7 L 215.5,114.5 L 215.6,114.6 L 216.0,114.3 L 216.2,114.1 L 216.7,113.6 L 217.5,113.1 L 218.4,112.8 L 218.9,112.6 L 220.3,111.8 L 221.2,111.5 L 221.3,111.5 L 221.5,111.4 L 221.5,111.4 L 221.6,111.4 L 221.7,111.4 L 221.8,111.4 L 222.0,111.4 L 222.3,111.4 L 222.5,111.4 L 222.6,111.4 L 222.6,111.4 L 222.6,111.4 L 222.7,111.6 L 222.9,111.7 L 223.0,111.7 L 223.0,111.7 L 223.0,111.7 L 223.1,111.6 L 223.1,111.6 L 223.1,111.4 L 223.1,111.4 L 223.1,111.4 L 223.0,111.4 L 223.0,111.4 L 222.8,111.4 L 222.7,111.4 L 222.7,111.3 L 222.7,111.2 L 222.7,111.2 L 222.7,111.1 L 222.9,111.0 L 223.0,110.9 L 223.2,110.8 L 223.3,110.6 L 223.5,110.6 L 223.5,110.6 L 223.7,110.5 L 224.2,110.1 L 224.3,110.0 L 224.4,109.7 L 224.6,109.6 L 224.7,109.4 L 225.0,108.9 L 225.2,108.8 L 225.2,108.6 L 225.8,107.9 L 225.8,107.7 L 226.0,107.6 L 226.6,107.4 L 226.9,107.3 L 227.2,106.9 L 227.3,106.9 L 227.5,106.7 L 227.7,106.6 L 227.8,106.0 L 227.9,105.8 L 228.1,105.6 L 228.8,104.7 L 229.3,104.0 L 229.5,103.8 L 229.7,103.8 L 229.7,103.7 L 229.7,103.6 L 229.6,103.4 L 229.6,103.0 L 229.7,102.9 L 230.4,102.5 L 230.5,102.3 L 230.4,102.2 L 230.6,102.1 L 230.5,102.0 L 231.1,101.5 L 231.2,101.3 L 231.5,101.1 L 231.6,100.8 L 232.1,100.1 L 232.3,99.5 L 232.9,101.0 L 233.2,101.6 L 233.1,101.6 L 232.8,102.2 L 232.7,103.1 L 232.8,103.5 L 232.8,104.0 L 232.8,104.3 L 232.8,104.5 L 232.7,104.8 L 232.2,105.1 L 232.2,105.7 L 232.1,105.8 L 232.1,105.9 L 232.2,106.0 L 232.4,106.5 L 232.9,107.1 L 233.3,107.1 L 233.6,107.1 L 233.9,107.2 L 234.3,107.6 L 234.5,107.6 L 234.6,107.4 L 234.9,107.3 L 235.2,107.3 L 235.9,107.5 L 236.5,107.8 L 236.9,108.1 L 237.5,108.5 L 237.7,108.7 L 237.8,109.0 L 237.8,109.1 L 237.9,109.2 L 237.9,109.4 L 238.0,109.7 L 238.0,110.2 L 238.5,110.4 L 239.3,110.5 L 239.4,110.4 L 239.6,110.6 L 240.1,110.6 L 240.4,110.6 L 240.7,110.4 L 241.0,110.1 L 241.2,109.8 L 241.1,109.7 L 241.3,109.7 L 241.7,109.7 L 241.8,109.0 L 242.6,107.7 L 242.8,107.4 L 243.9,106.9 L 245.6,105.5 L 246.0,105.5 L 246.4,105.4 L 246.5,105.5 L 246.4,105.7 L 246.8,105.8 L 247.1,105.5 L 247.2,105.3 L 247.5,105.3 L 247.8,105.4 L 248.1,105.4 L 248.3,105.3 L 249.2,105.1 L 249.6,105.1 L 249.9,105.0 L 250.3,105.2 L 250.9,104.6 L 251.6,104.3 L 252.0,104.2 L 253.0,103.7 L 253.6,103.5 L 253.8,103.5 L 253.9,103.5 L 254.0,103.4 L 254.4,103.3 L 255.0,103.3 L 255.6,103.4 L 256.8,103.9 L 257.1,104.1 L 257.3,104.2 L 257.8,104.4 L 258.2,104.6 L 258.9,105.1 L 258.9,105.5 L 259.2,105.6 L 259.5,106.1 L 259.3,106.5 L 259.0,106.7 L 258.9,107.0 L 259.0,107.1 L 259.4,107.0 L 259.5,107.1 L 259.8,107.1 L 260.8,106.7 L 261.2,106.7 L 261.4,106.5 L 261.4,106.4 L 261.7,106.4 L 261.9,106.7 L 262.5,106.7 L 263.2,106.5 L 263.9,106.0 L 264.0,105.8 L 264.4,105.8 L 264.5,105.9 L 264.8,105.7 L 264.9,105.5 L 265.0,105.4 L 265.7,105.6 L 266.0,105.7 L 266.5,106.0 L 266.9,105.9 L 267.1,106.0 L 267.0,106.2 L 267.5,106.3 L 267.6,106.4 L 268.1,106.2 L 268.1,105.9 L 268.1,105.8 L 268.4,105.7 L 268.5,105.8 L 268.6,105.6 L 268.7,105.4 L 268.9,105.4 L 269.2,105.4 L 269.5,105.3 L 270.4,105.3 L 270.7,105.5 L 270.9,105.5 L 271.5,105.2 L 271.9,105.3 L 272.0,105.4 L 272.5,105.4 L 273.1,105.4 L 273.5,105.4 L 274.3,105.0 L 274.7,105.0 L 275.2,104.8 L 275.6,104.7 L 275.8,104.7 L 275.8,104.6 L 276.2,104.7 L 276.9,104.5 L 277.0,104.4 L 277.3,103.9 L 277.5,103.7 L 278.4,103.5 L 279.2,103.3 L 279.3,103.5 L 280.2,103.7 L 280.9,103.3 L 281.2,103.4 L 281.8,103.3 L 282.4,103.2 L 282.6,103.3 L 282.7,103.3 L 282.8,103.2 L 282.9,103.1 L 283.1,103.2 L 283.5,103.6 L 283.4,103.8 L 283.5,104.0 L 283.6,104.1 L 283.3,104.4 L 283.4,104.6 L 284.0,104.7 L 284.3,104.6 L 284.4,104.4 L 284.7,104.2 L 284.9,104.2 L 284.9,104.4 L 284.9,104.6 L 285.0,104.7 L 285.6,104.8 L 286.4,104.5 L 286.7,104.3 L 287.0,104.2 L 287.1,104.0 L 287.4,104.1 L 288.1,104.0 L 288.3,103.9 L 288.5,104.0 L 288.6,104.1 L 288.7,104.2 L 288.6,104.4 L 288.5,104.6 L 288.7,104.6 L 288.8,104.5 L 288.9,104.7 L 289.2,104.8 L 289.1,105.1 L 288.9,105.5 L 289.0,105.7 L 289.1,105.9 L 289.4,106.0 L 289.5,106.1 L 289.8,106.1 L 290.0,106.0 L 290.3,106.1 L 290.3,106.1 L 290.7,106.0 L 290.9,105.9 L 290.9,106.0 L 290.8,106.0 L 290.8,106.1 L 290.8,106.3 L 291.9,106.3 L 292.8,106.0 L 293.1,105.8 L 293.9,105.6 L 294.1,106.1 L 294.1,106.1 L 294.1,106.2 L 293.6,106.3 L 293.7,106.4 L 293.5,106.5 L 293.5,106.6 L 293.8,106.7 L 294.0,106.5 L 294.1,106.5 L 294.4,106.6 L 294.5,106.7 L 294.6,106.7 L 294.7,106.9 L 295.1,106.9 L 295.5,106.8 L 295.7,106.8 L 295.8,106.9 L 295.6,107.1 L 295.6,107.2 L 296.1,107.2 L 296.6,107.1 L 296.9,106.9 L 296.9,106.7 L 297.4,106.5 L 298.4,106.3 L 299.2,105.9 L 299.5,105.7 L 300.0,105.6 L 300.3,105.5 L 300.3,105.5 L 300.5,105.5 L 300.7,105.7 L 300.9,105.8 L 301.1,105.9 L 301.3,106.0 L 301.5,106.4 L 301.5,106.5 L 301.6,106.9 L 302.4,106.9 L 302.8,106.8 L 303.8,107.0 L 303.9,107.2 L 304.2,107.2 L 305.1,107.2 L 305.8,107.1 L 306.3,106.8 L 306.6,106.8 L 307.6,107.0 L 307.9,106.8 L 308.0,106.9 L 308.4,106.9 L 308.8,106.8 L 308.8,106.9 L 308.9,107.1 L 309.0,107.1 L 309.2,107.0 L 309.9,106.2 L 310.6,106.3 L 310.8,106.2 L 311.4,106.3 L 311.5,106.5 L 311.7,106.7 L 311.7,107.0 L 311.5,107.5 L 311.6,107.7 L 311.5,107.9 L 311.8,108.2 L 312.2,108.2 L 313.5,108.1 L 313.6,108.2 L 313.8,108.3 L 314.0,108.2 L 314.2,108.3 L 314.5,108.2 L 314.9,108.0 L 315.5,107.4 L 315.9,107.1 L 316.0,107.0 L 316.5,106.8 L 317.2,106.1 L 317.6,106.1 L 317.7,106.0 L 317.9,105.6 L 318.1,105.7 L 318.4,105.8 L 318.8,105.5 L 319.2,105.1 L 319.5,104.7 L 319.5,104.5 L 319.4,104.4 L 319.5,104.4 L 330.9,103.0 L 331.5,102.9 L 331.6,102.9 L 331.7,103.1 L 331.9,103.3 L 332.0,103.4 L 332.1,103.4 L 332.3,103.5 L 332.3,103.7 L 332.1,104.0 L 332.2,104.4 L 331.9,104.6 L 331.4,105.4 L 331.5,105.6 L 331.6,105.7 L 331.7,105.8 L 331.8,105.9 L 331.8,106.2 L 331.5,106.6 L 331.4,107.0 L 331.7,107.1 L 332.0,107.1 L 333.6,106.5 L 333.6,106.5 L 333.8,106.9 L 334.0,106.9 L 334.3,106.7 L 335.1,106.8 L 335.2,106.8 L 335.5,106.8 L 335.7,106.8 L 335.9,106.7 L 336.3,106.7 L 336.4,107.0 L 336.4,107.1 L 336.6,107.2 L 336.5,107.4 L 336.6,107.6 L 336.7,107.6 L 337.1,107.3 L 337.4,107.3 L 337.6,107.2 L 337.7,107.4 L 337.9,107.6 L 338.9,107.0 L 339.0,106.8 L 339.0,106.8 L 343.0,110.5 L 343.0,110.5 L 343.0,110.8 L 343.1,111.0 L 343.0,111.5 L 343.2,111.8 L 343.0,112.8 L 343.0,113.3 L 343.0,113.6 L 343.0,113.7 L 343.1,113.9 L 342.9,114.0 L 342.7,114.2 L 342.5,114.2 L 342.4,114.3 L 342.7,115.2 L 343.5,115.6 L 343.7,115.9 L 343.5,116.0 L 343.5,116.3 L 343.7,116.4 L 343.6,116.7 L 344.0,116.7 L 344.2,116.8 L 344.4,116.8 L 344.5,116.9 L 344.6,116.9 L 344.8,117.0 L 345.1,117.0 L 345.3,116.9 L 345.7,116.9 L 346.2,117.1 L 346.3,117.0 L 346.3,116.9 L 346.5,116.8 L 346.7,116.9 L 347.0,117.0 L 347.3,117.0 L 347.5,116.9 L 347.8,116.6 L 348.1,116.6 L 349.8,117.4 L 350.7,117.4 L 350.9,117.3 L 351.0,117.3 L 351.3,117.2 L 351.5,117.2 L 351.7,117.2 L 351.9,117.2 L 352.1,117.1 L 352.5,117.3 L 353.1,117.0 L 353.5,116.8 L 353.8,116.8 L 354.0,116.7 L 354.2,116.8 L 354.7,116.6 L 356.2,116.8 L 356.5,116.8 L 356.9,116.7 L 357.7,116.9 L 358.0,117.1 L 358.1,117.2 L 358.6,117.3 L 359.1,117.1 L 359.3,117.3 L 359.4,117.4 L 359.9,117.6 L 360.0,117.8 L 359.9,118.0 L 359.6,118.1 L 359.2,118.2 L 359.1,118.1 L 358.9,118.2 L 358.9,118.3 L 358.7,118.5 L 358.8,118.6 L 358.6,118.9 L 358.8,119.1 L 358.6,119.2 L 358.6,119.4 L 358.8,119.5 L 358.9,119.6 L 358.7,119.9 L 358.8,120.0 L 358.5,120.3 L 358.5,120.4 L 358.2,120.7 L 358.1,120.8 L 358.0,121.0 L 357.7,121.0 L 357.5,121.2 L 357.0,121.3 L 355.9,121.4 L 355.6,121.4 L 355.2,121.6 L 354.4,122.0 L 353.6,122.4 L 352.9,122.9 L 352.7,122.9 L 352.4,122.8 L 352.2,122.8 L 352.2,122.9 L 352.4,122.9 L 352.4,123.0 L 352.2,123.2 L 352.3,123.3 L 352.0,123.6 L 351.5,123.9 L 351.2,124.2 L 350.8,124.4 L 350.0,124.7 L 348.8,124.9 L 346.3,125.3 L 345.6,125.2 L 345.2,125.2 L 345.0,125.2 L 344.6,125.2 L 344.0,125.4 L 343.9,125.4 L 342.7,125.4 L 340.6,125.5 L 339.9,125.6 L 338.3,125.6 L 338.2,125.6 L 338.1,125.7 L 337.8,125.6 L 337.0,125.8 L 336.8,125.7 L 336.7,125.7 L 336.6,125.6 L 336.5,125.7 L 336.3,125.8 L 336.2,125.9 L 336.2,125.9 L 336.1,125.8 L 336.1,125.7 L 336.0,125.7 L 335.7,125.7 L 334.7,126.1 L 334.0,126.3 L 333.3,126.5 L 332.5,126.7 L 332.0,126.9 L 331.6,127.0 L 331.2,127.0 L 330.2,127.0 L 329.6,127.1 L 328.3,127.0 L 328.3,126.8 L 328.1,126.5 L 327.9,126.3 L 327.3,126.3 L 327.3,126.3 L 327.1,126.3 L 327.1,126.3 L 325.1,126.6 L 323.7,126.8 L 322.6,126.8 L 321.7,126.9 L 320.7,127.2 L 319.5,127.7 L 319.1,127.7 L 317.9,127.6 L 317.5,127.7 L 317.0,128.0 L 316.8,128.0 L 316.7,128.0 L 316.8,127.9 L 316.8,127.7 L 316.8,127.6 L 316.3,127.5 L 314.6,128.0 L 314.0,128.7 L 313.3,129.3 L 312.9,129.4 L 312.5,129.7 L 312.2,129.8 L 311.2,129.7 L 310.7,129.7 L 309.0,130.1 L 308.0,130.0 L 307.7,129.8 L 307.6,129.4 L 307.0,128.9 L 306.5,128.6 L 305.7,128.5 L 303.6,129.1 L 303.2,129.4 L 302.5,129.4 L 301.9,129.7 L 301.6,129.6 L 301.2,129.7 L 300.6,129.6 L 299.9,129.5 L 299.5,129.5 L 299.1,129.7 L 298.8,129.9 L 298.7,130.2 L 298.9,130.3 L 298.9,130.5 L 298.5,130.8 L 298.2,130.8 L 298.1,130.9 L 297.9,131.0 L 297.6,131.0 L 297.2,131.1 L 297.1,131.1 L 296.9,131.2 L 296.3,130.9 L 296.2,130.9 L 296.1,131.1 L 296.1,131.7 L 296.0,131.6 L 295.5,132.0 L 294.6,132.5 L 294.4,132.6 L 293.9,133.1 L 293.6,133.5 L 292.6,134.2 L 292.3,134.3 L 292.2,134.4 L 291.1,135.0 L 291.0,134.9 L 290.9,134.9 L 290.8,135.1 L 290.1,134.9 L 289.2,134.9 L 288.2,135.1 L 287.8,135.2 L 287.6,135.2 L 287.5,135.2 L 287.4,135.3 L 287.2,135.4 L 285.8,136.2 L 285.3,136.4 L 283.4,136.1 L 283.1,136.0 L 281.6,136.3 L 281.3,136.3 L 281.1,136.2 L 281.0,136.0 L 281.0,135.7 L 280.8,135.6 L 280.1,135.8 L 279.7,135.9 L 279.5,136.0 L 278.7,136.0 L 278.6,135.9 L 278.6,135.6 L 278.7,135.3 L 279.1,135.0 L 279.2,134.8 L 279.2,134.7 L 278.6,134.6 L 278.4,135.2 L 278.0,135.3 L 277.6,135.5 L 276.5,135.5 L 276.1,135.7 L 275.8,135.7 L 275.5,135.2 L 275.2,135.1 L 274.4,134.5 L 274.5,134.3 L 274.5,134.2 L 273.5,134.1 L 273.1,134.2 L 272.9,134.0 L 272.6,134.0 L 272.5,133.8 L 272.1,133.7 L 271.9,133.8 L 271.3,134.0 L 271.0,134.0 L 270.7,133.8 L 270.0,133.6 L 269.5,133.3 L 269.2,133.0 L 269.1,132.7 L 268.7,132.4 L 268.5,132.4 L 268.4,132.3 L 268.3,132.2 L 267.9,132.2 L 267.2,131.8 L 267.2,131.5 L 267.4,131.2 L 267.3,130.9 L 267.0,130.7 L 266.6,130.6 L 266.3,130.7 L 266.1,130.7 L 265.5,130.9 L 265.2,131.0 L 265.2,131.2 L 265.1,131.3 L 264.8,131.3 L 264.6,131.4 L 263.8,131.5 L 263.4,131.5 L 263.1,131.5 L 263.1,131.7 L 262.6,132.0 L 262.3,132.1 L 261.4,132.7 L 260.9,133.0 L 260.2,132.9 L 259.6,133.1 L 259.1,133.3 L 258.6,133.3 L 258.3,133.1 L 258.1,133.1 L 257.7,133.2 L 257.6,133.3 L 257.2,133.4 L 257.2,133.6 L 257.0,133.7 L 256.7,133.8 L 256.5,133.7 L 255.9,133.7 L 255.2,134.2 L 254.9,134.1 L 254.5,134.3 L 253.6,134.4 L 253.5,134.4 L 253.1,134.1 L 252.6,134.1 L 252.2,134.0 L 251.4,134.0 L 251.0,134.0 L 250.7,133.9 L 250.3,134.0 L 249.6,134.3 L 249.5,134.6 L 249.2,134.7 L 249.1,134.9 L 248.8,134.9 L 248.7,134.9 L 248.2,135.0 L 247.9,135.2 L 247.7,135.2 L 247.5,135.3 L 247.1,135.7 L 247.0,135.8 L 246.8,135.7 L 245.9,136.3 L 245.4,136.7 L 245.0,137.2 L 244.9,137.4 L 244.3,137.7 L 243.9,137.7 L 243.5,137.8 L 243.2,137.9 L 243.0,138.0 L 242.7,138.5 L 242.0,138.8 L 241.7,138.7 L 241.3,139.1 L 241.2,139.2 L 241.4,139.5 L 241.2,139.8 L 241.1,139.9 L 240.3,139.8 L 239.9,140.0 L 239.7,140.0 L 239.5,140.2 L 239.2,140.3 L 238.9,140.5 L 238.4,140.7 L 237.9,141.1 L 237.4,141.4 L 237.3,141.7 L 236.6,142.2 L 236.5,142.4 L 236.2,142.7 L 236.0,142.7 L 235.7,143.0 L 235.4,143.0 L 235.0,143.3 L 234.6,143.5 L 234.4,143.5 L 234.1,143.9 L 233.7,144.2 L 233.1,144.8 L 232.8,145.0 L 232.3,145.3 L 232.1,145.4 L 232.0,145.5 L 231.8,145.7 L 231.4,146.0 L 230.3,147.0 L 230.0,147.2 L 229.4,147.6 L 228.6,148.0 L 228.3,148.0 L 227.9,148.2 L 227.6,148.8 L 226.1,149.7 L 225.1,150.6 L 224.7,151.1 L 224.0,151.8 L 223.5,152.2 L 223.3,152.4 L 222.7,153.0 L 222.3,153.4 L 221.6,154.1 L 221.2,154.7 L 220.8,155.0 L 220.7,155.0 L 220.6,154.9 L 220.4,154.9 L 219.8,156.0 L 219.4,156.4 L 219.3,156.5 L 218.9,156.8 L 218.6,157.1 L 218.1,157.7 L 218.0,157.9 L 218.0,158.0 L 217.7,158.4 L 217.5,158.5 L 217.3,158.7 L 217.0,159.5 L 216.8,159.9 L 216.3,160.3 L 216.0,160.3 L 215.3,161.0 L 215.2,161.1 L 214.9,161.6 L 214.4,162.1 L 214.1,162.4 L 214.0,162.5 L 213.8,162.7 L 213.6,162.8 L 213.6,162.9 L 212.8,163.3 L 212.4,163.5 L 211.9,163.9 L 211.5,164.4 L 211.4,164.5 L 210.4,165.2 L 209.9,165.4 L 209.6,165.5 L 209.3,165.6 L 209.0,165.9 L 208.7,166.2 L 208.6,166.4 L 208.4,166.5 L 208.3,166.7 L 207.8,167.1 L 207.3,167.6 L 207.1,168.0 L 206.5,168.4 L 206.2,168.7 L 206.1,168.9 L 205.7,169.1 L 205.2,169.6 L 205.1,169.8 L 204.8,170.0 L 204.4,170.8 L 204.0,172.1 L 203.9,172.7 L 203.5,173.2 L 203.4,173.7 L 203.2,173.9 L 203.0,175.5 L 203.0,175.8 L 202.9,176.6 L 202.9,177.2 L 202.7,177.5 L 202.7,177.6 L 202.6,177.9 L 202.5,178.8 L 202.7,178.9 L 203.0,179.6 L 203.1,180.8 L 203.1,181.4 L 203.1,181.4 L 202.8,182.2 L 202.5,182.9 L 202.3,183.3 L 201.6,184.1 L 201.2,184.3 L 200.7,184.9 L 200.5,184.8 L 200.5,184.9 L 200.0,185.8 L 199.9,186.1 L 199.9,186.1 L 199.4,186.6 L 199.3,186.9 L 199.4,187.2 L 199.3,187.4 L 199.6,188.1 L 199.6,188.1 L 199.5,188.7 L 199.6,188.8 L 199.7,188.8 L 199.8,189.0 L 200.1,189.0 L 200.2,189.4 L 200.0,189.5 L 200.0,189.7 L 200.0,189.7 L 200.2,189.7 L 200.3,189.8 L 200.5,190.0 L 200.9,190.7 L 201.2,190.7 L 201.4,190.5 L 201.6,190.1 L 202.0,189.8 L 202.1,189.6 L 202.4,189.4 L 202.6,189.5 L 202.7,189.7 L 202.6,189.9 L 202.7,190.0 L 202.7,190.3 L 202.7,190.4 L 202.7,190.6 L 203.0,190.7 L 203.3,190.7 L 203.4,190.9 L 203.6,190.9 L 203.7,191.1 L 203.6,191.2 L 203.5,191.8 L 203.5,191.8 L 203.7,191.7 L 204.2,191.1 L 204.3,190.7 L 204.6,190.4 L 204.7,190.4 L 204.9,190.3 L 205.0,190.3 L 205.0,190.3 L 205.4,190.4 L 205.4,190.6 L 205.2,190.7 L 205.2,190.8 L 205.3,190.9 L 205.4,191.1 L 205.3,191.2 L 205.3,191.4 L 206.0,191.5 L 206.5,191.3 L 207.2,190.8 L 207.4,190.6 L 207.6,190.6 L 207.8,190.2 L 208.1,189.9 L 208.6,189.6 L 209.0,189.5 L 209.2,189.4 L 209.3,189.3 L 209.7,189.3 L 210.2,189.2 L 210.7,189.2 L 211.0,189.0 L 211.3,188.8 L 211.5,188.5 L 211.6,188.5 L 211.7,188.5 L 211.8,188.7 L 211.7,189.0 L 211.5,189.4 L 211.0,190.4 L 210.8,190.6 L 210.7,192.0 L 210.5,192.2 L 210.5,192.4 L 210.5,192.7 L 210.7,192.7 L 210.9,192.5 L 211.0,192.2 L 211.4,192.1 L 211.6,191.9 L 211.8,192.1 L 212.0,192.1 L 212.2,192.0 L 212.3,191.7 L 212.8,191.1 L 213.0,190.8 L 213.2,190.5 L 213.6,190.4 L 213.7,190.3 L 214.0,190.0 L 214.4,189.8 L 214.6,189.5 L 214.8,189.3 L 215.3,189.3 L 215.5,189.2 L 215.8,189.1 L 216.1,188.9 L 216.2,188.9 L 216.5,188.8 L 216.9,188.7 L 217.5,188.3 L 217.8,188.2 L 217.8,188.2 L 218.0,188.1 L 218.1,188.2 L 218.6,188.1 L 218.8,188.0 L 219.2,188.0 L 219.4,188.2 L 219.7,188.1 L 220.1,188.4 L 220.4,188.7 L 220.6,189.0 L 220.7,189.3 L 220.9,189.6 L 220.8,191.0 L 220.7,191.2 L 220.5,191.9 L 220.4,192.7 L 220.3,193.0 L 220.4,193.2 L 220.2,193.5 L 220.2,193.7 L 220.3,193.8 L 220.4,193.9 L 220.3,194.2 L 220.2,194.7 L 220.4,194.9 L 220.6,194.8 L 220.9,194.6 L 221.3,194.5 L 221.5,194.5 L 221.4,194.7 L 221.2,195.0 L 221.4,195.6 L 221.7,195.8 L 221.9,195.8 L 222.1,195.5 L 222.3,195.4 L 223.0,194.6 L 223.2,194.5 L 223.4,194.7 L 223.5,194.9 L 223.2,195.3 L 223.2,195.6 L 223.1,195.9 L 223.0,196.1 L 222.8,196.3 L 222.9,196.4 L 222.9,196.6 L 222.7,196.7 L 222.6,197.5 L 222.3,197.7 L 222.3,197.9 L 222.2,198.0 L 222.3,198.3 L 222.5,198.5 L 222.6,198.5 L 222.8,198.4 L 223.3,198.1 L 223.5,198.0 L 223.8,197.6 L 224.2,197.3 L 224.5,197.4 L 224.5,197.6 L 224.6,197.8 L 224.8,197.8 L 225.1,197.5 L 225.7,197.3 L 226.0,197.2 L 226.5,196.8 L 234.9,204.1 L 235.0,204.2 L 234.9,204.4 L 234.7,205.2 L 234.7,206.4 L 234.3,207.0 L 234.2,207.2 L 233.9,207.8 L 233.6,208.3 L 233.7,208.5 L 233.7,208.8 L 233.8,208.9 L 233.9,209.2 L 233.7,209.3 L 233.8,209.6 L 233.8,209.9 L 233.7,210.1 L 233.6,210.5 L 233.6,210.7 L 233.6,211.1 L 233.4,211.3 L 233.4,211.3 L 233.3,211.4 L 233.3,211.5 L 232.9,212.0 L 232.3,212.5 L 232.0,213.1 L 231.9,213.5 L 231.9,213.6 L 231.6,214.2 L 231.6,214.5 L 231.3,214.7 L 231.2,215.1 L 231.1,215.3 L 231.1,215.5 L 231.2,215.6 L 231.3,215.7 L 230.7,216.7 L 230.6,217.3 L 230.4,217.6 L 230.2,217.8 L 230.1,218.5 L 230.2,218.6 L 230.7,218.7 L 230.8,219.0 L 231.0,218.9 L 231.2,218.7 L 231.4,218.6 L 231.6,218.6 L 231.7,218.9 L 231.7,219.5 L 231.5,220.0 L 231.3,220.2 L 231.0,220.2 L 230.7,220.4 L 230.5,220.6 L 230.5,220.6 L 230.0,221.1 L 229.9,221.2 L 230.1,221.3 L 230.0,221.9 L 230.0,222.0 L 230.2,222.0 L 230.3,222.0 L 230.4,222.0 L 230.5,221.9 L 230.6,221.8 L 230.7,221.8 L 231.3,221.3 L 231.4,221.3 L 231.5,221.4 L 232.0,221.2 L 232.3,221.0 L 232.5,220.9 L 232.7,220.8 L 233.1,220.4 L 233.3,220.3 L 234.0,219.7 L 235.5,218.1 L 235.6,218.0 L 235.8,218.2 L 235.7,218.7 L 235.3,219.7 L 235.1,220.3 L 235.4,220.5 L 235.3,221.1 L 235.3,221.4 L 234.9,221.7 L 234.9,222.1 L 234.6,222.3 L 234.4,222.7 L 233.9,222.9 L 233.7,222.9 L 233.5,223.0 L 233.6,223.1 L 233.6,223.2 L 233.5,223.3 L 233.4,223.5 L 233.0,223.8 L 232.9,224.0 L 232.7,224.1 L 232.7,224.4 L 232.6,224.5 L 232.3,224.5 L 232.1,224.9 L 231.9,224.9 L 231.9,225.1 L 231.6,225.3 L 231.6,225.7 L 231.2,225.8 L 231.2,225.8 L 227.0,230.7 L 226.9,230.7 L 226.8,230.7 L 226.7,230.8 L 226.6,230.9 L 226.5,231.1 L 226.4,231.2 L 226.2,231.2 L 226.0,231.3 L 225.7,231.4 L 225.4,231.4 L 225.2,231.5 L 225.0,231.5 L 224.9,231.5 L 224.7,231.4 L 224.6,231.3 L 224.5,231.1 L 224.4,230.9 L 224.2,230.7 L 224.0,230.5 L 223.9,230.3 L 223.8,230.1 L 223.6,229.9 L 223.5,229.8 L 223.5,229.6 L 223.5,229.5 L 223.5,229.3 L 223.5,229.1 L 223.5,228.9 L 223.5,228.8 L 223.4,228.6 L 223.3,228.5 L 223.3,228.3 L 223.3,228.3 L 223.2,228.3 L 223.1,228.2 L 223.1,228.2 L 223.1,228.0 L 223.1,227.9 L 223.1,227.7 L 223.1,227.7 L 222.9,227.7 L 222.9,227.7 L 222.8,227.7 L 222.7,227.6 L 222.7,227.6 L 222.7,227.5 L 222.6,227.5 L 222.5,227.6 L 222.4,227.6 L 222.3,227.6 L 222.3,227.7 L 222.2,227.7 L 222.0,227.8 L 221.8,227.8 L 221.7,227.8 L 221.6,227.8 L 221.3,227.7 L 221.1,227.7 L 220.9,227.5 L 220.8,227.5 L 220.8,227.4 L 220.8,227.2 L 220.8,227.0 L 220.8,226.7 L 220.9,226.5 L 220.9,226.5 L 220.9,226.4 L 220.8,226.4 L 220.7,226.3 L 220.6,226.2 L 220.6,226.2 L 220.5,226.2 L 220.5,226.3 L 220.3,226.2 L 220.3,226.2 L 220.1,226.1 L 220.0,226.0 L 220.0,225.9 L 220.0,225.8 L 220.0,225.7 L 220.0,225.6 L 220.0,225.5 L 220.0,225.5 L 219.9,225.5 L 219.8,225.4 L 219.8,225.5 L 219.7,225.5 L 219.7,225.5 L 219.6,225.4 L 219.5,225.3 L 219.4,225.1 L 219.4,225.1 L 219.3,224.9 L 219.3,224.7 L 219.3,224.5 L 219.3,224.3 L 219.4,224.1 L 219.4,223.9 L 219.4,223.7 L 219.5,223.5 L 219.5,223.4 L 219.6,223.3 L 219.6,223.2 L 219.7,223.1 L 219.7,223.1 L 219.7,222.9 L 219.7,222.9 L 219.6,222.9 L 219.6,222.9 L 219.5,222.9 L 219.5,222.9 L 219.4,222.9 L 219.4,222.7 L 219.4,222.7 L 219.5,222.5 L 219.5,222.4 L 219.4,222.3 L 219.4,222.3 L 219.3,222.2 L 219.3,222.2 L 219.2,222.2 L 219.1,222.3 L 219.1,222.3 L 219.0,222.3 L 219.0,222.1 L 219.0,222.0 L 219.0,221.9 L 219.1,221.7 L 219.1,221.6 L 219.1,221.6 L 219.1,221.5 L 219.1,221.4 L 219.0,221.2 L 219.0,221.2 L 218.9,221.1 L 218.7,221.1 L 218.5,221.1 L 218.4,221.1 L 218.2,221.2 L 218.1,221.2 L 217.9,221.2 L 217.7,221.2 L 217.7,221.3 L 217.6,221.3 L 217.6,221.3 L 217.4,221.3 L 217.3,221.3 L 217.1,221.3 L 217.0,221.4 L 216.8,221.4 L 216.8,221.4 L 216.7,221.4 L 216.6,221.4 L 216.5,221.3 L 216.5,221.2 L 216.5,221.1 L 216.6,221.0 L 216.6,221.0 L 216.5,221.0 L 216.4,221.0 L 216.4,221.0 L 216.3,221.0 L 216.3,220.9 L 216.3,220.9 L 216.3,220.8 L 216.3,220.7 L 216.3,220.6 L 216.2,220.6 L 216.1,220.6 L 216.0,220.5 L 215.9,220.5 L 215.8,220.5 L 215.7,220.6 L 215.6,220.5 L 215.4,220.5 L 215.2,220.5 L 215.0,220.5 L 214.9,220.4 L 214.8,220.4 L 214.8,220.3 L 214.7,220.2 L 214.6,220.2 L 214.5,220.2 L 214.5,220.2 L 214.5,220.2 L 214.4,220.2 L 214.3,220.1 L 214.2,220.1 L 214.2,220.0 L 214.2,219.9 L 214.2,219.9 L 214.2,219.7 L 214.2,219.6 L 214.2,219.5 L 214.2,219.4 L 214.3,219.2 L 214.3,219.1 L 214.3,219.1 L 214.4,219.1 L 214.4,218.8 L 214.4,218.7 L 214.5,218.7 L 214.4,218.6 L 213.4,218.5 L 213.2,218.8 L 212.9,218.7 L 212.7,218.8 L 212.7,219.0 L 212.5,219.2 L 212.2,219.3 L 212.0,219.1 L 212.0,218.9 L 212.0,218.8 L 212.2,218.7 L 212.3,218.7 L 212.3,218.6 L 212.2,218.5 L 212.4,218.2 L 212.4,217.6 L 212.6,217.4 L 212.7,216.9 L 212.6,216.9 L 212.5,217.0 L 212.3,217.1 L 212.1,217.4 L 211.9,217.5 L 211.8,217.7 L 211.0,218.3 L 210.8,218.8 L 210.7,219.1 L 210.4,219.8 L 210.2,220.4 L 209.4,220.2 L 203.7,218.9 L 203.6,218.9 L 203.7,218.7 L 204.0,218.3 L 204.0,218.2 L 204.0,218.1 L 204.2,217.8 L 204.2,217.6 L 204.1,217.5 L 203.9,217.6 L 203.7,218.1 L 203.6,218.1 L 203.5,218.2 L 203.4,218.4 L 203.1,218.8 L 203.1,219.1 L 203.1,219.4 L 202.9,219.4 L 202.8,219.6 L 202.7,219.6 L 202.6,219.5 L 202.3,219.4 L 202.1,218.6 L 201.9,218.1 L 201.8,217.9 L 201.7,217.9 L 201.7,217.7 L 201.5,217.5 L 201.4,217.3 L 201.4,216.8 L 201.2,216.6 L 200.8,216.3 L 200.6,216.2 L 199.9,216.1 L 199.7,215.9 L 199.6,215.5 L 199.7,215.1 L 199.6,214.7 L 199.3,214.1 L 199.1,213.1 L 199.0,212.8 L 199.4,209.8 L 199.2,209.5 L 199.1,209.1 L 199.2,208.9 L 199.8,207.9 L 199.9,207.5 L 200.0,207.4 L 199.8,207.3 L 199.4,207.0 L 199.2,207.0 L 198.5,207.1 L 197.6,207.0 L 197.1,206.7 L 196.7,206.4 L 196.7,206.4 L 196.7,206.3 L 196.3,206.0 L 196.1,205.7 L 196.1,205.6 L 196.1,205.6 L 196.2,205.5 L 196.1,205.1 L 196.1,204.6 L 196.0,204.3 L 195.9,203.8 L 195.8,203.5 L 195.8,203.0 L 195.7,202.7 L 195.5,202.5 L 195.4,202.2 L 195.2,201.9 L 194.9,201.3 L 194.2,201.2 L 194.1,201.0 L 193.8,200.9 L 193.7,200.7 L 193.6,200.1 L 193.5,199.9 L 193.1,199.9 L 192.8,199.6 L 192.2,199.5 L 191.7,199.6 L 191.4,199.5 L 191.0,199.2 L 190.8,199.1 L 189.9,199.0 L 189.7,198.7 L 189.2,198.6 L 189.0,198.4 L 188.7,198.6 L 188.5,198.5 L 188.2,198.2 L 187.5,198.0 L 187.4,198.0 L 187.2,198.1 L 187.0,198.0 L 186.7,197.9 L 186.5,197.6 L 185.9,197.2 L 185.4,197.1 L 185.2,197.1 L 185.2,197.1 L 184.7,197.1 L 184.4,197.1 L 184.0,196.7 L 183.5,196.3 L 182.6,195.8 L 182.1,195.4 L 181.7,195.3 L 181.2,194.6 L 181.0,194.4 L 180.7,194.5 L 180.4,194.7 L 179.8,194.2 L 179.4,194.2 L 178.9,193.9 L 178.7,193.7 L 178.5,193.0 L 178.0,192.1 L 177.6,191.5 L 177.5,191.5 L 177.4,191.5 L 177.3,191.5 L 177.2,191.8 L 177.2,191.9 L 177.3,192.0 L 177.2,192.1 L 177.1,192.1 L 176.9,192.1 L 176.8,192.0 L 176.7,191.9 L 176.5,191.5 L 176.3,191.2 L 176.1,191.1 L 175.7,191.0 L 175.2,190.8 L 174.7,190.7 L 174.2,190.6 L 174.2,190.6 L 174.2,190.7 L 174.4,190.8 L 174.5,191.1 L 174.7,191.3 L 174.7,191.4 L 174.7,191.4 L 174.2,191.2 L 174.2,191.1 L 174.1,190.9 L 174.0,190.8 L 173.9,190.8 L 173.7,190.7 L 173.7,190.6 L 173.7,190.5 L 173.8,190.5 L 173.9,190.5 L 174.2,190.6 L 174.3,190.5 L 174.3,190.4 L 174.2,190.4 L 174.0,190.2 L 174.0,190.2 L 173.9,190.1 L 173.9,190.0 L 173.8,189.9 L 173.5,190.0 L 173.3,190.0 L 173.1,189.7 L 172.9,189.4 L 172.5,189.3 L 172.5,189.3 L 172.2,189.3 L 172.0,189.4 L 171.0,189.2 L 170.8,189.2 L 170.2,189.0 L 170.0,188.9 L 168.8,188.7 L 168.0,188.6 L 167.8,188.5 L 166.6,188.4 L 166.1,188.4 L 165.5,188.6 L 164.9,189.1 L 164.5,189.3 L 163.3,189.1 L 162.7,189.1 L 162.1,189.1 L 161.3,189.2 L 161.0,189.5 L 160.4,189.9 L 159.9,190.4 L 159.8,190.7 L 159.2,190.9 L 158.3,192.0 L 158.3,192.3 L 158.0,192.5 L 157.9,192.6 L 157.7,192.5 L 157.6,192.5 L 157.2,192.8 L 157.2,192.9 L 156.7,193.2 L 156.6,193.4 L 156.5,193.6 L 156.2,193.8 L 155.8,194.6 L 155.8,194.9 L 155.7,195.0 L 155.6,194.9 L 155.4,195.0 L 155.3,195.2 L 155.4,195.5 L 155.3,195.6 L 155.0,195.5 L 154.7,195.4 L 154.5,195.4 L 154.3,195.7 L 154.0,195.7 L 153.8,195.9 L 153.6,196.2 L 153.4,196.4 L 153.3,196.5 L 153.0,196.8 L 153.0,196.9 L 152.8,197.0 L 152.7,197.1 L 152.5,197.4 L 152.7,197.6 L 152.5,197.9 L 152.4,198.2 L 152.3,198.2 L 152.1,198.4 L 151.8,198.5 L 151.6,198.7 L 151.6,198.7 L 151.7,198.8 L 151.6,198.8 L 151.4,199.3 L 151.2,199.5 L 150.9,199.8 L 150.3,199.8 L 150.1,199.9 L 149.6,200.4 L 149.4,200.6 L 148.6,200.5 L 148.2,200.8 L 148.1,200.9 L 147.5,201.4 L 146.7,201.9 L 146.4,202.0 L 145.8,202.1 L 145.1,202.4 L 144.1,202.9 L 143.5,203.2 L 143.4,203.2 L 142.9,203.5 L 142.2,203.7 L 141.0,204.2 L 139.9,204.4 L 138.7,205.1 L 137.8,205.4 L 137.3,206.1 L 136.6,206.4 L 136.1,206.9 L 134.9,207.4 L 134.4,207.8 L 134.2,207.8 L 134.1,207.9 L 134.1,208.0 L 134.0,208.1 L 133.5,208.0 L 133.1,208.2 L 132.4,208.5 L 132.1,208.6 L 131.5,208.9 L 131.4,209.0 L 131.2,209.1 L 130.9,209.2 L 130.5,209.7 L 129.5,210.5 L 129.0,211.2 L 128.3,212.1 L 128.1,212.7 L 127.5,213.4 L 126.9,213.9 L 126.2,214.6 L 125.1,215.2 L 124.6,215.8 L 124.6,216.2 L 124.8,216.5 L 125.2,217.3 L 125.1,217.9 L 125.0,218.1 L 124.8,218.6 L 124.4,218.9 L 124.2,219.5 L 123.4,220.5 L 123.4,220.6 L 123.3,220.7 L 123.2,220.8 L 123.1,221.2 L 122.9,221.5 L 122.8,222.0 L 122.6,222.5 L 122.8,222.8 L 122.8,223.1 L 122.7,223.4 L 123.0,223.5 L 123.5,224.1 L 123.5,224.5 L 123.8,225.0 L 124.1,225.2 L 125.2,226.2 L 125.6,226.4 L 126.0,226.6 L 126.2,226.8 L 126.6,226.9 L 126.9,227.1 L 126.9,227.3 L 127.1,227.4 L 127.1,227.6 L 127.6,228.0 L 128.0,228.1 L 128.1,228.2 L 128.1,228.4 L 128.5,228.3 L 128.6,228.3 L 128.9,228.4 L 129.1,228.6 L 129.4,228.6 L 129.9,228.6 L 130.6,228.7 L 131.2,228.9 L 131.8,229.1 L 132.1,229.4 L 132.1,229.4 L 133.2,229.9 L 133.6,230.1 L 134.9,231.2 L 135.3,231.3 L 135.6,231.9 L 135.7,232.3 L 136.0,232.7 L 136.4,233.0 L 137.2,233.8 L 137.7,234.5 L 137.7,234.9 L 137.8,235.3 L 138.1,235.8 L 138.0,236.1 L 137.8,236.4 L 137.7,236.8 L 137.8,236.9 L 137.7,237.1 L 137.5,237.3 L 137.5,237.3 L 137.3,237.1 L 137.1,237.0 L 136.8,237.3 L 136.3,238.1 L 136.1,238.9 L 135.9,239.2 L 135.9,239.2 L 135.6,239.2 L 134.9,239.2 L 134.9,239.0 L 134.9,238.7 L 134.7,238.5 L 134.6,238.4 L 134.4,238.2 L 133.9,238.1 L 133.6,238.3 L 133.5,238.4 L 133.3,238.5 L 133.2,238.4 L 132.8,238.3 L 132.5,238.1 L 132.2,238.0 L 132.2,237.2 L 131.9,237.0 L 131.8,236.7 L 131.7,236.8 L 131.4,237.4 L 131.3,237.5 L 131.3,237.5 L 131.0,237.5 L 130.8,237.4 L 130.9,237.1 L 131.2,236.6 L 131.4,236.1 L 132.1,234.7 L 132.2,233.9 L 132.0,233.5 L 131.9,233.2 L 131.7,233.2 L 131.7,233.2 L 131.2,233.2 L 130.5,233.6 L 129.7,234.3 L 129.7,234.6 L 129.5,234.7 L 129.5,234.8 L 129.8,234.9 L 129.8,235.0 L 129.8,235.7 L 129.7,235.8 L 128.9,235.9 L 128.2,235.9 L 128.2,235.8 L 128.3,235.6 L 128.1,235.5 L 128.0,235.2 L 127.8,234.9 L 127.8,234.5 L 127.7,234.3 L 127.5,233.7 L 127.2,233.1 L 127.0,232.6 L 126.7,232.2 L 126.4,231.7 L 126.1,231.4 L 125.6,231.0 L 124.9,230.7 L 124.7,230.6 L 124.5,230.3 L 124.0,230.2 L 123.7,229.8 L 123.6,229.3 L 123.4,228.6 L 123.3,228.5 L 123.1,228.6 L 122.8,228.6 L 122.6,228.6 L 122.4,228.8 L 122.1,228.9 L 121.9,228.9 L 121.6,228.5 L 121.4,228.0 L 121.2,227.9 L 121.0,227.6 L 120.9,227.4 L 120.6,227.2 L 120.3,227.2 L 120.1,227.3 L 120.1,227.6 L 120.4,228.0 L 120.3,228.2 L 120.2,228.4 L 120.4,228.7 L 120.3,229.2 L 120.4,229.4 L 120.5,229.6 L 120.6,229.6 L 120.7,229.7 L 120.5,230.4 L 120.1,230.7 L 119.9,230.7 L 120.0,230.4 L 119.5,230.2 L 119.1,230.0 L 118.4,229.1 L 118.3,229.1 L 118.1,228.7 L 116.8,228.3 L 116.3,228.3 L 116.0,228.5 L 115.6,228.6 L 115.0,228.8 L 114.7,228.9 L 114.3,228.9 L 114.0,228.9 L 113.5,229.6 L 113.3,230.2 L 113.1,230.7 L 112.8,231.0 L 112.8,231.3 L 112.6,231.7 L 112.6,232.2 L 112.4,232.7 L 112.3,233.1 L 112.4,233.9 L 112.5,234.4 L 112.4,235.2 L 112.1,235.9 L 111.8,236.5 L 111.8,236.8 L 111.9,236.8 L 112.1,236.8 L 112.3,237.0 L 112.5,237.3 L 112.5,238.4 L 112.4,238.8 L 112.5,239.3 L 112.8,239.7 L 112.9,239.9 L 112.5,241.0 L 112.5,241.6 L 112.7,242.5 L 112.6,244.3 L 113.2,245.6 L 113.5,246.3 L 113.6,246.5 L 113.6,247.0 L 114.0,248.2 L 114.4,249.0 L 114.6,250.1 L 115.1,251.3 L 116.0,252.7 L 116.4,253.6 L 116.9,255.2 L 117.0,255.6 L 117.0,256.1 L 116.7,256.7 L 116.6,257.5 L 116.7,257.9 L 116.8,258.4 L 116.7,258.8 L 116.9,259.4 L 116.9,259.9 L 116.9,260.5 L 116.5,261.0 L 116.4,261.4 L 116.4,261.8 L 116.2,262.2 L 116.1,262.4 L 116.3,262.9 L 116.3,263.4 L 116.5,263.8 L 116.8,264.9 L 117.0,265.2 L 117.2,265.2 L 117.3,265.1 L 117.3,264.4 L 117.3,263.8 L 117.4,263.4 L 117.2,262.4 L 117.4,261.6 L 117.6,260.9 L 117.7,260.9 L 117.9,261.3 L 117.9,261.7 L 117.9,261.9 L 117.7,263.5 L 117.7,263.9 L 118.0,264.7 L 118.0,265.1 L 118.0,265.2 L 118.0,265.2 L 118.1,265.5 L 118.1,265.8 L 117.9,266.3 L 117.7,266.7 L 117.6,266.8 L 117.5,266.7 L 117.4,266.9 L 117.5,267.2 L 117.7,267.6 L 117.7,267.8 L 117.6,268.0 L 117.3,268.0 L 116.9,267.6 L 116.5,267.3 L 116.2,267.2 L 115.8,266.6 L 115.8,266.4 L 115.6,266.4 L 115.6,266.6 L 115.7,267.6 L 115.5,267.8 L 115.1,267.8 L 114.8,267.6 L 114.6,267.2 L 114.3,266.8 L 114.1,266.2 L 113.9,266.1 L 113.7,266.0 L 113.3,266.2 L 113.0,266.2 L 113.0,266.5 L 112.8,266.6 L 112.5,266.9 L 111.5,267.7 L 111.2,268.0 L 110.8,268.4 L 110.3,269.1 L 110.2,269.9 L 109.9,271.0 L 109.8,271.7 L 109.5,272.6 L 109.0,273.1 L 108.8,273.0 L 108.6,273.1 L 108.4,274.2 L 108.4,274.6 L 108.5,275.1 L 108.6,275.7 L 108.6,275.9 L 108.5,276.5 L 108.4,276.7 L 108.2,276.8 L 108.3,276.9 L 108.2,277.2 L 108.1,277.3 L 107.9,277.1 L 107.7,276.1 L 107.4,276.2 L 107.3,276.6 L 107.4,277.3 L 107.5,277.5 L 107.5,277.8 L 107.6,278.1 L 107.7,278.1 L 108.0,277.9 L 108.0,278.0 L 108.1,278.2 L 108.1,278.4 L 108.1,278.7 L 108.1,278.9 L 107.8,279.1 L 107.7,279.0 L 107.6,279.1 L 107.5,279.2 L 107.6,279.5 L 107.7,279.8 L 107.4,280.4 L 107.3,280.5 L 107.1,280.0 L 107.1,279.8 L 107.0,279.6 L 106.8,279.6 L 106.5,279.9 L 106.4,280.3 L 106.6,280.6 L 106.5,281.2 L 106.3,281.2 L 106.2,281.0 L 106.2,280.7 L 106.2,280.5 L 106.2,280.4 L 106.3,280.2 L 106.1,280.3 L 106.0,280.3 L 106.0,280.6 L 106.1,282.2 L 106.0,282.3 L 105.9,282.3 L 105.6,281.7 L 105.5,281.8 L 105.4,282.8 L 105.5,283.0 L 105.4,283.2 L 105.5,283.9 L 105.4,284.3 L 105.0,284.9 L 104.8,285.5 L 105.0,286.4 L 104.9,287.4 L 104.8,287.7 L 104.7,287.9 L 104.5,288.1 L 104.2,288.1 L 104.0,288.3 L 104.0,288.9 L 103.9,289.2 L 103.7,289.5 L 103.6,289.8 L 103.4,289.9 L 103.4,290.3 L 103.3,290.9 L 103.4,291.7 L 103.5,293.1 L 103.5,293.2 L 103.5,293.8 L 103.7,294.3 L 103.8,294.8 L 104.1,295.2 L 104.2,295.4 L 104.1,295.7 L 104.2,295.8 L 104.3,295.6 L 104.4,295.8 L 104.6,295.8 L 104.6,296.3 L 104.6,297.2 L 104.4,297.8 L 104.3,297.9 L 104.1,298.1 L 104.0,298.4 L 104.0,298.4 L 88.0,299.7 L 82.1,300.2 L 82.1,299.9 L 82.0,299.6 L 82.1,298.9 L 82.1,298.8 L 82.0,298.4 L 81.8,298.2 L 81.4,298.5 L 81.1,297.8 L 81.1,297.5 L 81.1,297.2 L 80.8,296.2 L 80.7,296.1 L 80.6,296.2 L 80.6,296.3 L 80.5,296.3 L 80.2,295.4 L 80.1,295.1 L 79.9,295.2 L 79.9,295.5 L 79.6,296.1 L 79.5,296.3 L 79.6,296.8 L 79.7,297.0 L 79.7,297.4 L 79.7,297.4 L 80.1,297.5 L 79.9,298.6 L 79.9,299.3 L 79.6,299.4 L 79.4,299.3 L 79.3,299.4 L 79.1,300.0 L 79.2,300.5 L 79.2,300.5 L 59.7,299.4 L 59.7,299.2 L 59.7,299.1 L 59.3,299.0 L 59.3,299.4 L 58.0,299.3 L 58.1,298.9 L 58.1,298.3 L 57.9,297.8 L 57.9,297.6 L 58.1,297.4 L 58.0,297.1 L 57.9,296.5 L 57.9,296.5 L 58.0,296.3 L 58.1,296.1 L 58.2,295.8 L 58.4,295.7 L 58.3,295.4 L 58.3,295.4 L 58.3,294.9 L 58.4,294.6 L 58.7,294.2 L 58.8,293.1 L 58.7,292.7 L 58.6,292.2 L 58.6,291.2 L 58.3,290.5 L 58.3,290.1 L 58.2,289.7 L 57.9,289.2 L 57.9,289.0 L 57.7,288.2 L 57.8,287.6 L 58.0,287.5 L 58.1,287.7 L 58.8,288.9 L 58.9,288.9 L 58.8,287.9 L 58.9,287.1 L 58.6,286.7 L 58.4,285.8 L 58.4,285.8 L 58.2,285.8 L 58.2,286.0 L 57.9,286.5 L 57.8,287.1 L 57.5,287.1 L 57.3,287.2 L 57.2,287.2 L 57.2,287.1 L 57.4,286.4 L 57.5,286.0 L 57.6,286.0 L 57.9,285.9 L 58.0,285.7 L 58.1,285.0 L 57.9,284.2 L 57.9,283.9 L 57.6,283.4 L 57.5,283.0 L 57.6,282.7 L 57.7,282.8 L 57.9,283.4 L 58.0,283.8 L 58.2,284.0 L 58.3,284.0 L 58.3,283.5 L 58.3,283.1 L 58.2,282.5 L 58.2,282.1 L 58.5,281.7 L 58.5,281.1 L 58.4,280.5 L 58.5,280.2 L 58.4,279.9 L 58.5,279.7 L 58.7,279.4 L 58.7,278.8 L 58.7,278.4 L 59.0,278.1 L 59.0,277.8 L 58.8,277.3 L 58.8,276.6 L 58.6,275.9 L 58.4,275.3 L 58.0,274.7 L 57.8,274.5 L 57.7,274.1 L 57.6,273.9 L 57.4,273.8 L 57.0,273.9 L 56.6,274.2 L 56.5,274.6 L 56.3,274.9 L 56.1,274.9 L 56.0,274.8 L 56.0,274.2 L 55.9,274.3 L 55.5,275.3 L 55.3,275.6 L 55.1,275.9 L 54.7,276.3 L 54.2,276.5 L 53.8,277.0 L 53.6,277.6 L 53.5,277.8 L 53.3,278.6 L 53.6,279.3 L 53.6,279.7 L 53.4,280.0 L 53.0,280.3 L 52.7,280.2 L 52.6,280.2 L 52.6,280.1 L 52.4,279.6 L 52.2,279.6 L 52.0,279.8 L 51.9,280.3 L 51.8,280.6 L 51.6,280.8 L 51.4,280.8 L 51.2,280.0 L 51.2,279.1 L 51.4,279.1 L 51.5,278.9 L 51.6,277.8 L 51.8,277.7 L 52.1,276.8 L 52.2,276.1 L 52.4,275.8 L 52.4,275.6 L 52.3,275.3 L 52.4,275.1 L 52.5,274.8 L 52.7,274.2 L 52.7,273.5 L 53.0,272.1 L 52.9,271.6 L 53.0,271.2 L 53.2,270.7 L 53.6,268.3 L 53.5,267.8 L 53.3,267.7 L 53.2,267.7 L 53.2,267.3 L 53.3,266.7 L 53.4,266.1 L 53.3,265.8 L 53.1,265.7 L 53.0,265.6 L 52.9,265.7 L 52.8,265.8 L 52.7,265.9 L 52.6,265.9 L 52.4,265.3 L 52.0,265.0 L 52.0,264.7 L 52.1,264.3 L 52.1,264.1 L 52.2,263.6 L 52.1,263.5 L 51.7,263.3 L 51.7,263.1 L 51.7,262.4 L 51.6,261.9 L 51.7,261.9 L 52.0,262.4 L 52.1,262.8 L 52.4,263.3 L 52.6,263.4 L 52.8,262.5 L 53.0,262.6 L 53.2,262.9 L 53.0,263.3 L 53.1,263.6 L 53.2,263.5 L 53.6,262.9 L 53.7,263.0 L 53.7,263.8 L 53.7,263.9 L 53.9,263.9 L 54.0,263.8 L 54.3,262.8 L 54.4,262.3 L 54.5,262.1 L 54.6,261.6 L 54.9,261.4 L 54.9,261.1 L 54.8,260.8 L 54.8,260.7 L 55.0,260.7 L 55.0,260.5 L 54.9,260.4 L 54.9,260.2 L 54.7,260.0 L 54.7,259.8 L 54.6,259.7 L 54.6,259.7 L 54.4,259.7 L 54.5,259.3 L 54.6,259.2 L 54.6,259.1 L 54.7,258.4 L 54.7,258.1 L 54.7,257.6 L 54.7,257.3 L 54.5,257.1 L 54.5,256.5 L 54.5,255.6 L 54.2,255.2 L 54.3,254.4 L 54.2,254.1 L 53.9,253.9 L 53.8,253.8 L 53.8,253.7 L 53.7,253.5 L 53.2,253.2 L 52.8,253.1 L 52.6,253.2 L 52.2,254.2 L 51.7,254.1 L 51.7,253.9 L 51.6,253.7 L 51.3,254.0 L 50.7,253.9 L 50.5,254.1 L 50.3,254.1 L 50.1,253.9 L 50.1,253.7 L 50.1,253.1 L 50.4,252.7 L 50.4,252.0 L 50.2,251.7 L 49.7,251.8 L 49.5,251.6 L 49.7,251.4 L 49.7,251.1 L 49.4,250.7 L 49.0,250.4 L 48.5,250.1 L 48.4,250.0 L 48.2,249.8 L 47.9,249.6 L 47.6,249.3 L 47.5,249.2 L 46.6,248.7 L 46.2,248.4 L 45.7,248.0 L 45.5,247.8 L 44.9,247.0 L 44.0,246.7 L 43.7,246.9 L 43.5,246.9 L 43.6,246.5 L 43.4,246.2 L 43.5,245.9 L 43.7,245.7 L 43.8,245.4 L 43.8,245.2 L 43.6,244.9 L 43.1,244.5 L 43.2,243.8 L 43.1,243.2 L 43.0,243.1 L 42.8,243.1 L 42.6,243.5 L 42.3,243.8 L 42.2,243.8 L 42.1,243.6 L 42.1,243.1 L 42.1,242.6 L 42.2,242.3 L 42.4,242.2 L 42.9,241.9 L 43.1,242.0 L 43.1,242.1 L 43.0,242.4 L 43.2,242.5 L 43.4,242.4 L 43.6,242.4 L 43.7,242.5 L 43.8,242.4 L 43.9,242.6 L 44.0,242.5 L 44.1,242.1 L 44.5,242.0 L 44.8,241.9 L 45.3,242.1 L 45.4,242.3 L 45.9,242.3 L 46.2,242.3 L 46.4,242.3 L 46.6,242.4 L 47.1,242.9 L 47.4,243.3 L 47.7,244.0 L 48.0,244.5 L 48.0,245.0 L 48.1,245.0 L 48.4,244.8 L 48.6,244.6 L 49.0,244.5 L 49.2,244.5 L 49.5,244.6 L 49.8,244.8 L 49.9,244.9 L 49.7,245.7 L 49.8,246.1 L 50.0,246.3 L 50.2,246.2 L 50.5,245.8 L 50.7,245.3 L 51.2,244.8 L 52.1,244.6 L 52.3,244.5 L 52.7,244.0 L 53.0,243.9 L 53.7,243.4 L 54.0,243.1 L 54.1,243.2 L 54.2,243.4 L 54.0,243.6 L 53.9,244.5 L 54.1,244.7 L 54.3,244.6 L 54.8,243.8 L 55.4,242.9 L 55.4,242.7 L 55.2,242.5 L 55.2,242.1 L 55.5,241.7 L 55.6,241.5 L 55.4,241.3 L 55.5,241.1 L 56.4,239.8 L 56.4,239.7 L 56.5,239.5 L 56.4,239.3 L 56.4,239.3 L 56.4,239.3 L 56.5,239.1 L 56.6,239.0 L 56.9,239.0 L 56.8,239.1 L 56.7,239.8 L 56.6,240.0 L 56.5,240.7 L 56.5,240.9 L 56.6,241.0 L 56.8,240.8 L 57.0,240.5 L 57.2,240.2 L 57.0,239.9 L 57.1,239.6 L 57.3,239.4 L 57.3,239.3 L 57.1,238.9 L 57.0,238.8 L 57.0,238.7 L 56.9,238.4 L 56.7,238.5 L 56.6,238.3 L 56.6,238.1 L 56.6,238.1 L 56.4,238.0 L 56.5,237.7 L 56.3,237.6 L 56.5,237.0 L 56.7,236.8 L 56.7,236.8 L 56.8,236.8 L 56.8,237.1 L 56.9,237.7 L 57.1,237.7 L 57.2,237.8 L 57.2,238.0 L 57.2,238.3 L 57.4,238.3 L 57.5,238.7 L 57.5,238.7 L 57.9,238.3 L 58.1,238.1 L 58.2,238.0 L 58.2,237.6 L 58.1,237.4 L 58.0,237.5 L 58.0,237.2 L 58.1,237.0 L 58.1,236.8 L 58.0,236.6 L 57.9,236.6 L 57.5,236.6 L 57.5,236.2 L 57.5,236.0 L 57.0,236.1 L 56.9,236.1 L 57.0,235.3 L 57.0,235.1 L 57.1,234.8 L 57.0,234.7 L 56.9,234.6 L 56.9,234.6 L 56.7,235.0 L 56.3,235.0 L 55.2,235.5 L 54.6,235.8 L 54.4,235.9 L 54.3,235.4 L 54.3,234.8 L 54.5,234.3 L 54.8,233.9 L 54.7,233.8 L 54.6,233.6 L 54.9,233.1 L 54.8,233.0 L 54.1,233.2 L 53.8,233.5 L 53.7,233.5 L 53.2,234.0 L 52.8,234.0 L 52.6,233.7 L 52.6,233.4 L 52.9,233.2 L 52.8,233.0 L 52.9,232.6 L 52.6,232.3 L 52.5,232.2 L 52.4,231.9 L 52.4,231.7 L 52.6,231.7 L 52.7,231.7 L 52.8,232.0 L 52.9,232.0 L 53.1,231.7 L 53.3,231.6 L 53.4,231.4 L 53.4,231.3 L 53.2,231.0 L 53.1,231.0 L 53.3,230.5 L 53.3,230.3 L 53.0,229.9 L 53.0,229.6 L 53.1,229.2 L 53.2,229.0 L 53.1,228.8 L 52.9,228.9 L 52.9,229.0 L 52.7,229.1 L 52.5,228.9 L 52.1,228.8 L 52.1,228.6 L 52.3,228.3 L 52.3,228.2 L 52.1,227.9 L 51.7,227.7 L 51.4,227.5 L 51.3,227.4 L 51.2,227.3 L 51.2,227.0 L 50.8,226.8 L 50.6,226.7 L 50.4,227.0 L 49.8,227.0 L 49.4,227.3 L 49.3,227.3" fill="none" stroke="black" stroke-width="2"/>
</svg>