<?xml version="1.0" encoding="UTF-8"?>
<svg width="400" height="400" viewBox="0 0 400 400" xmlns="http://www.w3.org/2000/svg">
  <rect width="400" height="400" fill="white"/>
  <path d="M 138.7,158.8 L 138.8,158.6 L 139.2,158.2 L 140.5,158.2 L 141.2,156.8 L 142.3,156.0 L 143.1,155.9 L 144.6,155.4 L 147.7,155.3 L 148.9,154.8 L 151.0,153.7 L 156.4,151.9 L 159.9,150.1 L 160.4,150.0 L 162.2,149.1 L 163.8,148.9 L 165.5,147.9 L 168.3,147.5 L 169.8,147.0 L 172.5,146.5 L 175.1,146.3 L 177.9,145.8 L 179.9,145.8 L 187.5,146.3 L 189.3,146.2 L 192.2,145.7 L 196.7,145.6 L 197.7,145.9 L 198.3,146.2 L 201.8,146.6 L 203.9,146.1 L 205.4,146.1 L 211.3,145.1 L 213.8,144.6 L 215.8,144.3 L 216.6,144.0 L 218.7,143.9 L 219.9,144.4 L 220.1,144.8 L 221.7,144.9 L 222.7,144.3 L 226.4,142.5 L 228.6,141.8 L 229.0,141.8 L 229.4,141.4 L 231.3,141.7 L 232.7,143.2 L 234.1,145.4 L 234.0,146.5 L 234.3,146.9 L 234.7,147.1 L 235.3,147.1 L 235.9,146.8 L 237.2,147.0 L 237.4,147.0 L 240.5,145.7 L 242.0,144.9 L 243.7,144.5 L 245.1,144.5 L 246.3,145.2 L 248.0,145.4 L 249.2,146.1 L 250.0,146.7 L 251.0,146.9 L 252.5,146.8 L 254.5,146.9 L 255.0,146.8 L 258.7,147.3 L 260.3,146.1 L 261.1,145.7 L 261.5,146.0 L 261.5,146.4 L 261.9,146.4 L 262.9,146.3 L 263.7,146.1 L 265.1,146.8 L 266.7,147.0 L 267.1,147.5 L 269.2,147.4 L 269.5,147.9 L 269.9,147.8 L 271.1,147.8 L 271.7,148.3 L 271.4,149.7 L 271.8,150.3 L 272.5,150.4 L 275.4,148.3 L 276.1,148.1 L 277.1,146.9 L 277.8,146.3 L 279.7,145.8 L 280.2,144.5 L 280.5,143.9 L 280.5,143.5 L 280.1,142.4 L 280.3,140.6 L 280.0,139.7 L 279.0,138.4 L 278.6,137.4 L 278.8,136.1 L 279.8,135.1 L 281.3,133.3 L 281.9,133.2 L 282.9,131.7 L 283.8,131.2 L 286.4,131.0 L 288.7,130.2 L 289.6,130.2 L 292.3,129.8 L 299.9,129.5 L 302.6,128.7 L 304.4,128.7 L 307.0,130.5 L 309.3,130.6 L 310.9,130.3 L 312.2,129.5 L 315.0,129.5 L 316.3,129.1 L 317.4,129.3 L 318.8,130.5 L 318.9,131.1 L 319.8,132.1 L 320.3,132.5 L 323.3,132.8 L 325.7,132.6 L 331.4,133.5 L 334.8,133.7 L 336.7,133.0 L 339.2,133.2 L 340.4,133.1 L 341.6,133.2 L 343.2,132.9 L 343.3,132.5 L 343.7,132.3 L 346.1,132.6 L 346.8,132.5 L 348.8,132.7 L 352.4,132.5 L 353.3,132.4 L 355.3,132.6 L 358.3,131.6 L 358.9,131.2 L 358.9,131.1 L 360.0,167.7 L 360.0,168.0 L 359.9,168.6 L 357.8,169.6 L 357.2,169.6 L 355.9,169.8 L 354.6,170.1 L 352.4,170.4 L 350.6,170.1 L 348.4,170.3 L 347.9,170.5 L 347.2,170.6 L 342.4,170.3 L 339.1,170.0 L 339.0,169.8 L 338.1,169.7 L 336.1,170.0 L 334.3,169.8 L 332.1,170.2 L 328.6,169.8 L 327.4,169.9 L 325.0,169.5 L 324.5,169.7 L 323.0,169.6 L 321.8,169.9 L 320.6,169.9 L 319.8,169.6 L 317.6,169.9 L 316.6,170.3 L 313.1,170.7 L 311.5,170.6 L 310.4,171.0 L 308.9,170.8 L 308.6,170.7 L 308.0,170.4 L 306.1,170.0 L 304.2,170.3 L 301.0,170.0 L 297.7,170.2 L 297.4,170.2 L 291.9,170.3 L 290.3,170.5 L 289.0,170.8 L 286.4,171.9 L 283.3,172.0 L 282.1,171.8 L 279.9,171.4 L 278.8,171.5 L 275.0,172.4 L 274.4,172.5 L 272.8,172.8 L 270.9,172.7 L 267.8,172.9 L 263.7,172.5 L 262.2,172.6 L 261.1,172.4 L 258.8,172.1 L 258.1,172.0 L 255.3,171.8 L 253.8,172.0 L 249.7,172.8 L 248.8,172.8 L 248.3,172.8 L 246.6,173.1 L 245.7,172.8 L 243.8,172.5 L 242.8,172.5 L 241.6,171.9 L 239.4,171.8 L 237.0,172.6 L 236.2,172.6 L 235.7,172.4 L 235.5,172.3 L 234.8,172.2 L 234.1,172.1 L 232.8,172.5 L 230.2,173.2 L 228.7,173.0 L 228.0,173.1 L 225.0,174.2 L 223.2,174.7 L 222.7,174.8 L 221.9,174.9 L 217.5,176.4 L 215.8,176.2 L 214.4,176.2 L 212.1,176.9 L 210.1,177.7 L 206.5,177.8 L 198.1,180.7 L 197.3,180.9 L 193.9,181.9 L 190.8,183.1 L 188.4,183.4 L 188.0,182.5 L 185.8,183.1 L 184.9,183.0 L 183.8,183.3 L 180.5,184.8 L 175.2,186.2 L 170.5,187.2 L 169.4,187.1 L 166.8,187.4 L 164.6,188.4 L 163.3,189.0 L 160.5,191.0 L 157.0,194.0 L 154.3,197.2 L 152.8,198.6 L 150.9,199.8 L 148.5,201.0 L 146.8,202.5 L 145.8,203.6 L 143.3,205.5 L 142.8,205.6 L 138.3,209.2 L 137.1,210.6 L 136.4,211.8 L 136.1,212.1 L 135.4,213.3 L 134.3,213.9 L 133.1,215.5 L 133.3,215.9 L 133.7,215.9 L 134.1,216.1 L 134.4,216.7 L 134.7,217.2 L 134.7,218.3 L 132.9,221.2 L 132.1,221.6 L 131.3,222.0 L 129.9,223.4 L 128.6,224.8 L 127.6,225.1 L 126.1,227.1 L 125.3,227.2 L 123.4,228.8 L 123.0,228.9 L 122.4,229.0 L 119.1,231.1 L 117.5,231.5 L 115.0,233.0 L 114.3,233.1 L 112.2,234.7 L 111.4,235.9 L 111.0,238.0 L 110.3,238.3 L 109.8,239.7 L 109.4,239.8 L 109.2,240.6 L 109.0,242.2 L 107.8,247.6 L 106.6,251.5 L 106.5,252.0 L 106.2,253.4 L 105.4,255.0 L 104.9,255.6 L 104.7,255.8 L 104.2,256.5 L 102.4,260.7 L 102.4,262.7 L 102.5,263.9 L 101.9,264.7 L 101.9,264.8 L 101.7,265.7 L 101.1,266.3 L 99.5,266.5 L 99.0,266.7 L 97.9,267.7 L 97.3,268.6 L 96.4,268.3 L 95.9,268.6 L 94.9,267.7 L 93.5,267.6 L 92.8,267.7 L 91.9,267.7 L 91.6,268.2 L 90.6,268.2 L 86.7,271.3 L 85.9,271.3 L 84.5,270.5 L 83.0,270.2 L 81.9,269.6 L 80.6,269.4 L 79.7,269.7 L 77.2,268.4 L 76.3,268.3 L 75.8,268.6 L 74.4,268.4 L 73.2,268.3 L 71.5,268.3 L 70.4,268.8 L 69.5,268.9 L 68.1,269.3 L 66.5,269.5 L 64.1,269.2 L 63.3,268.7 L 62.4,269.5 L 61.7,269.6 L 61.4,269.2 L 60.2,268.9 L 58.2,269.5 L 57.5,269.5 L 56.0,268.8 L 53.6,266.5 L 52.6,265.7 L 50.5,264.8 L 49.8,264.7 L 48.6,264.6 L 47.3,264.8 L 47.1,264.7 L 46.3,264.9 L 45.4,265.0 L 44.1,264.1 L 41.9,263.1 L 41.6,262.8 L 41.2,261.9 L 41.1,261.9 L 41.0,261.6 L 40.6,260.2 L 40.6,259.5 L 40.3,259.0 L 40.2,258.8 L 40.2,258.4 L 40.7,257.7 L 41.3,256.2 L 41.7,255.1 L 40.8,254.8 L 40.9,254.5 L 41.8,254.5 L 42.0,254.5 L 42.0,253.6 L 41.9,253.3 L 41.5,252.9 L 41.8,252.6 L 41.9,252.0 L 41.8,251.8 L 41.5,251.5 L 40.7,251.1 L 40.7,251.1 L 40.7,251.0 L 41.0,251.0 L 42.0,251.1 L 42.0,250.5 L 41.8,250.3 L 40.8,250.3 L 40.1,250.1 L 40.0,249.9 L 40.1,249.7 L 41.2,249.4 L 41.3,249.2 L 41.4,247.7 L 41.6,247.0 L 42.0,246.5 L 42.6,245.8 L 43.4,245.9 L 44.6,244.6 L 45.4,243.3 L 46.3,243.0 L 46.4,242.4 L 48.0,241.3 L 51.2,238.2 L 53.5,236.3 L 54.1,235.5 L 56.3,234.3 L 61.4,230.4 L 63.1,229.4 L 68.0,225.8 L 69.5,225.5 L 70.4,224.8 L 73.9,223.5 L 75.0,222.8 L 76.6,222.1 L 78.4,221.6 L 79.6,221.5 L 82.3,220.8 L 84.4,219.9 L 86.3,218.5 L 88.0,218.1 L 91.4,217.8 L 92.2,217.3 L 92.7,217.5 L 93.0,218.2 L 92.6,218.8 L 94.2,218.8 L 95.6,218.5 L 96.5,218.5 L 97.5,218.1 L 98.3,218.2 L 99.0,217.9 L 99.2,218.1 L 100.6,217.9 L 101.2,218.0 L 102.3,216.9 L 103.6,216.1 L 104.1,216.1 L 105.3,215.2 L 106.0,215.5 L 108.0,214.3 L 108.6,214.5 L 110.2,213.2 L 110.8,212.7 L 111.4,212.7 L 113.1,211.7 L 115.4,209.9 L 118.9,206.4 L 120.1,204.6 L 121.2,202.4 L 122.9,200.8 L 123.4,199.8 L 124.6,199.1 L 125.4,198.4 L 125.9,197.7 L 125.7,197.3 L 124.8,197.9 L 124.1,197.8 L 124.6,196.9 L 124.3,196.3 L 124.1,196.2 L 123.1,197.1 L 120.7,198.7 L 115.2,201.1 L 114.2,201.5 L 113.8,199.8 L 111.6,198.1 L 110.4,197.2 L 110.0,196.2 L 109.5,195.6 L 109.3,194.3 L 109.5,193.4 L 110.2,192.8 L 110.5,192.2 L 110.9,192.1 L 111.4,191.8 L 111.3,191.1 L 111.9,190.8 L 112.1,190.5 L 112.0,190.1 L 112.3,189.4 L 112.4,189.2 L 112.8,188.7 L 112.7,187.0 L 112.9,186.2 L 114.6,185.8 L 114.7,185.4 L 114.5,184.8 L 114.1,184.4 L 114.7,183.3 L 115.0,183.5 L 115.7,183.5 L 116.0,180.7 L 115.4,179.0 L 115.1,177.8 L 115.2,175.9 L 115.7,175.0 L 115.8,174.1 L 117.2,172.7 L 118.1,172.2 L 118.7,172.3 L 119.4,171.6 L 120.7,170.9 L 120.8,170.4 L 121.7,170.4 L 122.1,169.7 L 123.1,169.2 L 124.6,167.5 L 125.5,167.1 L 126.6,166.7 L 128.0,165.8 L 128.3,165.7 L 128.5,164.9 L 129.0,164.4 L 129.4,164.4 L 130.6,163.5 L 131.0,163.4 L 131.8,162.9 L 132.8,162.0 L 134.4,161.0 L 135.5,160.6 L 136.4,160.4 L 137.1,159.9 L 137.7,159.8 L 138.7,158.8" fill="none" stroke="black" stroke-width="2"/>
</svg>