<?xml version="1.0" encoding="UTF-8"?>
<svg width="400" height="400" viewBox="0 0 400 400" xmlns="http://www.w3.org/2000/svg">
  <rect width="400" height="400" fill="white"/>
  <path d="M 45.4,165.0 L 40.0,135.5 L 40.1,135.5 L 40.3,135.5 L 40.8,135.2 L 41.2,134.8 L 41.8,134.6 L 42.6,134.4 L 43.2,134.5 L 43.7,134.4 L 45.2,134.5 L 45.9,134.6 L 46.1,134.7 L 46.5,134.9 L 47.4,135.1 L 48.2,135.4 L 48.4,135.5 L 49.1,136.2 L 49.3,136.4 L 50.2,136.3 L 51.3,136.8 L 56.4,137.4 L 57.2,137.8 L 58.0,138.3 L 58.7,138.7 L 59.8,138.8 L 61.3,139.0 L 62.0,139.0 L 63.4,138.9 L 64.3,139.0 L 65.2,139.3 L 66.3,139.5 L 66.8,139.6 L 68.7,139.8 L 69.2,139.9 L 69.2,139.9 L 69.5,140.0 L 69.7,140.0 L 70.3,140.4 L 71.3,141.5 L 72.0,142.0 L 73.9,142.5 L 74.8,142.5 L 76.6,142.4 L 77.6,142.7 L 78.4,142.8 L 79.0,142.8 L 79.6,142.7 L 82.4,142.8 L 87.2,142.0 L 88.5,142.0 L 91.1,141.6 L 93.7,141.2 L 94.8,140.9 L 96.1,140.9 L 96.8,140.8 L 97.6,140.5 L 98.6,140.5 L 99.0,140.4 L 99.0,140.4 L 100.9,140.2 L 101.3,140.2 L 104.5,139.9 L 109.3,140.2 L 110.8,140.4 L 111.6,140.6 L 112.4,140.8 L 112.9,141.0 L 113.6,141.4 L 114.2,141.4 L 114.6,141.5 L 115.5,141.7 L 116.2,142.0 L 117.0,142.5 L 117.3,142.5 L 117.4,142.2 L 117.5,142.2 L 117.9,142.4 L 118.5,142.6 L 119.0,142.8 L 120.7,143.8 L 121.3,144.1 L 122.2,144.8 L 122.9,145.3 L 124.8,146.4 L 125.8,147.0 L 127.9,148.2 L 129.2,149.3 L 131.0,150.8 L 132.7,152.4 L 133.6,153.1 L 134.3,153.9 L 135.0,154.9 L 135.2,155.2 L 135.3,155.4 L 135.6,155.4 L 135.7,155.6 L 136.2,156.7 L 136.7,157.0 L 137.4,157.2 L 137.7,157.3 L 138.1,157.7 L 140.1,159.8 L 140.6,160.1 L 141.3,161.1 L 142.1,161.6 L 142.7,162.3 L 144.2,164.0 L 145.0,164.9 L 146.3,166.7 L 147.0,167.6 L 147.5,168.1 L 148.1,168.9 L 149.6,170.8 L 150.5,171.8 L 150.9,172.3 L 151.0,173.2 L 151.2,173.9 L 151.6,174.3 L 152.2,174.8 L 152.6,175.3 L 153.5,177.2 L 154.5,178.2 L 154.7,178.8 L 154.6,179.9 L 154.6,180.2 L 154.7,181.3 L 154.9,181.7 L 155.0,182.1 L 156.0,183.3 L 156.7,183.9 L 157.4,184.4 L 158.4,185.1 L 159.0,185.5 L 159.4,185.7 L 160.1,186.1 L 161.8,187.2 L 162.2,187.3 L 163.5,187.8 L 163.9,188.0 L 164.5,188.1 L 165.1,188.4 L 165.5,188.8 L 166.2,189.6 L 167.0,190.4 L 167.2,190.7 L 167.7,191.3 L 168.8,192.4 L 169.2,192.5 L 169.5,192.7 L 170.0,192.8 L 170.5,193.1 L 171.3,193.8 L 171.6,194.0 L 171.7,194.0 L 171.8,194.1 L 172.0,194.3 L 172.5,194.8 L 173.2,195.3 L 173.5,195.4 L 174.0,195.9 L 175.3,197.5 L 175.5,197.6 L 175.7,197.7 L 176.2,198.7 L 176.4,199.4 L 176.8,199.9 L 178.3,201.3 L 179.5,202.1 L 180.4,202.7 L 181.0,203.0 L 181.9,203.5 L 183.2,204.0 L 183.7,204.3 L 185.2,204.7 L 187.7,205.8 L 188.2,205.9 L 188.8,206.2 L 188.9,206.3 L 189.9,206.9 L 190.8,207.6 L 191.5,208.3 L 191.8,208.7 L 192.1,208.9 L 192.5,209.0 L 192.9,209.3 L 194.1,210.0 L 194.9,210.4 L 195.6,210.8 L 196.8,211.4 L 197.0,211.5 L 197.7,211.7 L 198.3,212.1 L 199.7,212.6 L 200.6,212.7 L 202.2,212.9 L 202.4,213.0 L 204.2,213.5 L 204.9,213.6 L 205.3,213.7 L 205.8,213.9 L 206.9,214.2 L 207.8,214.7 L 209.5,214.9 L 210.1,215.1 L 211.0,215.2 L 211.3,215.2 L 212.6,215.2 L 213.5,215.1 L 214.1,215.1 L 214.5,215.0 L 217.9,215.1 L 219.1,215.1 L 220.6,215.1 L 222.8,215.0 L 223.4,214.8 L 223.8,214.6 L 225.0,214.7 L 226.4,214.5 L 227.0,214.4 L 227.7,214.6 L 228.2,214.7 L 228.7,214.6 L 230.1,214.7 L 230.7,214.6 L 231.1,214.5 L 231.5,214.5 L 231.7,214.5 L 231.8,214.6 L 232.3,214.6 L 232.5,214.8 L 232.7,215.0 L 233.0,214.8 L 233.3,214.6 L 234.2,214.6 L 234.6,214.5 L 235.2,214.7 L 235.7,214.6 L 236.3,214.4 L 236.8,214.5 L 237.7,214.9 L 238.1,214.9 L 238.7,214.9 L 239.4,215.2 L 239.7,215.2 L 240.2,215.5 L 240.5,215.6 L 245.1,216.0 L 245.5,216.1 L 245.8,216.3 L 246.6,216.3 L 249.8,216.8 L 251.6,217.0 L 252.1,217.0 L 253.1,216.8 L 253.2,216.8 L 253.9,216.8 L 254.7,217.2 L 255.1,217.1 L 255.6,217.4 L 257.6,217.5 L 259.0,217.6 L 261.1,218.1 L 262.8,218.3 L 264.2,218.4 L 267.1,218.7 L 269.4,218.6 L 270.4,218.6 L 271.2,218.4 L 271.7,218.4 L 272.1,218.6 L 273.1,218.7 L 273.5,218.9 L 273.9,218.9 L 274.5,218.7 L 275.3,218.4 L 276.4,218.4 L 277.1,218.6 L 278.4,217.9 L 280.7,216.5 L 281.4,215.7 L 281.6,215.3 L 281.9,214.9 L 282.1,214.5 L 282.5,213.9 L 282.7,213.1 L 283.0,212.4 L 283.8,210.0 L 284.3,208.1 L 284.5,206.3 L 284.7,205.6 L 284.8,205.3 L 284.9,204.6 L 285.7,202.2 L 286.3,201.2 L 286.4,200.8 L 286.9,199.5 L 287.8,196.7 L 287.8,196.6 L 287.9,196.4 L 288.1,195.6 L 288.6,194.0 L 288.7,193.9 L 288.8,193.1 L 288.9,192.4 L 289.0,192.1 L 289.2,190.5 L 289.5,189.9 L 289.8,187.5 L 290.0,186.6 L 290.4,185.7 L 290.9,184.3 L 291.3,184.0 L 291.4,184.0 L 291.5,183.8 L 291.7,182.8 L 292.0,182.2 L 292.3,180.9 L 292.7,179.8 L 292.9,179.2 L 292.9,179.1 L 293.0,179.0 L 293.4,177.2 L 293.8,174.5 L 294.4,173.6 L 294.5,172.2 L 294.8,171.7 L 294.9,171.4 L 294.9,171.4 L 294.9,170.7 L 295.1,170.4 L 295.2,169.9 L 295.3,169.4 L 295.5,169.1 L 295.5,168.8 L 295.6,168.4 L 295.8,168.1 L 295.9,167.9 L 295.9,167.9 L 296.1,166.8 L 296.3,166.2 L 296.4,165.7 L 297.0,164.9 L 298.0,162.9 L 298.5,162.2 L 299.2,161.6 L 299.8,160.8 L 299.7,160.6 L 299.9,160.3 L 300.0,160.2 L 300.1,160.3 L 300.1,160.2 L 300.2,160.3 L 300.6,160.0 L 300.4,159.8 L 300.8,159.8 L 301.3,159.6 L 301.4,159.9 L 301.5,159.8 L 301.5,159.6 L 301.5,159.6 L 301.6,159.8 L 301.9,159.7 L 301.5,159.3 L 301.6,159.3 L 301.7,159.2 L 302.1,159.1 L 302.5,158.8 L 302.5,158.6 L 302.4,158.4 L 302.7,158.1 L 302.7,158.0 L 333.8,168.1 L 333.8,168.1 L 333.8,168.4 L 333.9,168.6 L 333.9,168.8 L 334.1,169.1 L 334.2,169.3 L 334.3,169.6 L 334.4,169.6 L 334.4,169.7 L 334.4,169.8 L 334.5,169.9 L 334.6,169.9 L 334.8,170.0 L 335.0,170.1 L 335.0,170.1 L 335.1,170.2 L 335.1,170.4 L 335.1,170.5 L 335.3,170.6 L 335.4,170.7 L 335.6,170.9 L 335.8,171.0 L 336.1,171.1 L 336.2,171.2 L 336.3,171.3 L 336.3,171.4 L 336.4,171.5 L 336.4,171.5 L 336.5,171.6 L 336.6,171.6 L 336.8,171.8 L 337.1,171.9 L 337.3,172.0 L 337.4,172.0 L 337.5,172.2 L 337.7,172.3 L 337.8,172.3 L 338.0,172.4 L 338.2,172.4 L 338.4,172.5 L 338.7,172.7 L 338.8,172.7 L 338.9,172.9 L 339.1,173.1 L 339.2,173.3 L 339.4,173.4 L 339.7,173.7 L 340.0,174.0 L 340.2,174.2 L 340.5,174.5 L 340.8,174.7 L 341.2,174.9 L 341.5,175.2 L 341.9,175.3 L 342.1,175.4 L 342.2,175.6 L 342.5,175.8 L 342.6,176.0 L 342.9,176.3 L 343.2,176.5 L 343.3,176.7 L 343.6,177.0 L 344.0,177.5 L 345.9,178.3 L 346.3,178.7 L 346.8,179.1 L 347.3,179.7 L 347.7,180.0 L 348.4,180.5 L 349.7,181.4 L 350.4,181.6 L 351.1,182.1 L 352.3,183.0 L 353.2,183.6 L 353.5,183.8 L 355.4,184.8 L 356.1,185.2 L 356.3,185.5 L 357.1,186.2 L 357.9,187.1 L 358.2,187.7 L 358.2,188.1 L 358.0,188.4 L 358.3,188.9 L 359.2,188.9 L 359.3,189.1 L 359.6,189.7 L 359.6,190.1 L 359.5,190.2 L 358.5,190.6 L 358.8,191.0 L 359.3,190.8 L 359.6,191.2 L 359.7,191.5 L 359.8,191.8 L 359.7,192.1 L 360.0,192.7 L 360.0,193.1 L 359.7,193.4 L 359.9,194.1 L 359.8,194.5 L 359.7,194.9 L 359.4,194.6 L 359.1,194.7 L 358.6,195.1 L 358.3,195.1 L 357.8,195.2 L 357.5,195.3 L 357.4,195.5 L 357.4,195.6 L 357.6,196.2 L 357.3,196.9 L 357.1,197.3 L 356.5,197.7 L 356.2,197.6 L 356.1,198.1 L 356.3,198.2 L 356.3,198.6 L 356.3,198.7 L 356.2,199.3 L 355.9,200.3 L 356.1,200.9 L 356.2,201.1 L 356.3,201.4 L 356.4,201.7 L 355.5,202.6 L 354.5,204.1 L 354.1,204.4 L 353.3,204.8 L 352.4,205.1 L 351.2,205.6 L 350.3,205.9 L 349.6,206.5 L 349.2,206.9 L 349.0,207.1 L 348.7,207.4 L 347.4,208.3 L 347.4,208.4 L 346.3,209.1 L 346.2,209.1 L 345.4,209.4 L 345.0,209.7 L 344.7,210.1 L 344.0,210.7 L 343.7,210.9 L 343.5,211.0 L 341.8,212.3 L 341.4,212.6 L 340.8,212.7 L 340.3,212.9 L 339.3,213.7 L 339.0,213.9 L 338.4,214.2 L 337.9,214.8 L 337.0,215.4 L 336.2,215.7 L 335.4,216.3 L 334.8,216.4 L 334.1,216.9 L 333.3,217.3 L 332.7,217.7 L 332.5,217.9 L 331.7,218.2 L 331.1,218.5 L 329.5,219.8 L 328.9,220.2 L 328.4,220.3 L 327.7,220.6 L 326.5,221.5 L 325.8,221.6 L 325.4,221.7 L 324.6,222.0 L 323.8,222.4 L 323.2,222.6 L 322.4,223.0 L 322.4,223.0 L 322.2,223.1 L 321.5,223.5 L 320.8,223.9 L 320.1,224.2 L 319.1,224.8 L 318.6,225.1 L 318.1,225.4 L 317.4,225.8 L 317.1,225.9 L 316.9,226.2 L 316.5,226.4 L 316.1,226.6 L 315.6,227.0 L 314.9,227.4 L 314.5,227.6 L 314.2,227.9 L 313.4,228.3 L 312.9,228.7 L 312.2,229.2 L 311.6,229.7 L 311.4,229.9 L 310.7,230.5 L 310.5,230.6 L 309.8,231.1 L 309.4,231.4 L 309.1,231.8 L 308.7,232.0 L 307.9,232.6 L 307.3,233.2 L 306.7,233.7 L 306.0,234.4 L 305.2,235.2 L 304.5,235.8 L 304.0,236.3 L 303.3,236.8 L 302.7,237.3 L 302.5,237.4 L 302.4,237.6 L 302.2,237.9 L 302.2,237.9 L 301.8,238.3 L 301.0,238.8 L 300.7,239.0 L 300.2,239.5 L 299.8,239.8 L 299.7,239.8 L 299.5,240.2 L 299.5,240.2 L 298.9,240.9 L 298.8,241.0 L 298.5,241.4 L 298.2,241.7 L 297.8,242.2 L 297.1,242.8 L 296.5,243.3 L 295.9,243.9 L 295.1,244.7 L 294.5,245.2 L 293.9,245.7 L 293.4,246.1 L 292.9,246.5 L 292.3,247.0 L 291.7,247.6 L 291.1,248.3 L 290.5,249.1 L 290.2,249.4 L 289.8,249.8 L 289.5,250.2 L 289.3,250.4 L 289.1,250.7 L 288.8,251.2 L 288.1,252.0 L 287.9,252.2 L 287.5,252.7 L 287.3,252.9 L 287.2,252.9 L 287.2,253.0 L 287.1,253.2 L 287.1,253.3 L 287.2,253.3 L 287.1,253.4 L 287.0,253.6 L 286.4,254.2 L 286.4,254.3 L 285.1,255.2 L 285.0,255.3 L 284.6,255.8 L 284.0,256.5 L 283.5,257.0 L 283.0,257.9 L 282.8,258.2 L 282.7,258.4 L 282.1,259.0 L 282.0,259.0 L 282.0,259.1 L 281.4,259.7 L 281.2,260.0 L 280.6,260.4 L 280.3,260.6 L 280.0,260.6 L 280.0,260.8 L 279.9,261.0 L 279.3,261.3 L 278.5,261.7 L 278.3,261.8 L 277.7,261.9 L 277.1,262.1 L 276.5,262.2 L 276.0,262.1 L 275.7,262.1 L 275.5,262.1 L 275.3,262.3 L 274.5,262.3 L 274.0,262.3 L 273.6,262.3 L 273.3,262.4 L 273.0,262.4 L 272.9,262.4 L 272.8,262.5 L 272.7,262.7 L 272.5,262.7 L 272.4,262.3 L 272.4,262.2 L 272.0,262.2 L 271.2,262.5 L 271.1,262.5 L 270.8,262.8 L 270.8,262.9 L 270.7,262.8 L 270.7,262.8 L 270.1,263.0 L 270.1,263.0 L 270.1,263.2 L 270.2,263.4 L 269.8,263.7 L 269.7,263.8 L 269.6,263.8 L 268.8,264.0 L 268.6,264.2 L 268.5,264.4 L 268.5,264.6 L 268.5,264.7 L 268.3,264.8 L 267.8,264.8 L 267.7,264.8 L 267.5,264.9 L 267.6,265.1 L 267.6,265.2 L 267.3,265.4 L 267.2,265.4 L 266.9,265.2 L 266.9,265.2 L 266.7,265.4 L 266.7,265.5 L 266.4,265.6 L 265.9,265.6 L 265.0,265.6 L 264.5,265.6 L 264.4,265.6 L 264.2,265.5 L 264.0,265.5 L 263.9,265.4 L 263.8,265.3 L 263.7,265.3 L 263.7,265.4 L 263.5,265.3 L 263.2,265.3 L 262.4,265.0 L 261.9,264.7 L 261.6,264.6 L 261.4,264.5 L 261.3,264.4 L 261.2,264.3 L 260.9,264.3 L 260.8,264.6 L 260.9,264.7 L 260.8,264.8 L 260.8,264.8 L 260.6,264.8 L 260.5,264.7 L 260.5,264.7 L 260.2,264.8 L 260.1,265.0 L 259.7,265.1 L 258.8,265.1 L 258.3,265.1 L 258.2,265.1 L 258.0,265.0 L 257.2,264.9 L 256.7,264.8 L 256.4,264.8 L 256.3,264.8 L 256.1,264.7 L 255.8,264.7 L 255.6,264.7 L 255.6,264.8 L 254.8,264.8 L 254.1,264.7 L 253.1,264.7 L 252.5,264.6 L 252.0,264.7 L 251.6,264.8 L 250.9,264.6 L 250.5,264.5 L 250.0,264.4 L 249.3,264.3 L 248.9,264.2 L 248.8,264.2 L 248.7,264.2 L 248.6,264.3 L 248.4,264.4 L 247.8,264.4 L 247.4,264.2 L 247.3,264.1 L 247.3,263.9 L 246.6,263.8 L 245.5,263.8 L 245.0,263.8 L 244.3,263.9 L 243.6,263.9 L 242.6,263.8 L 242.4,263.8 L 241.6,264.3 L 241.5,264.4 L 240.7,264.5 L 240.4,264.5 L 240.2,264.5 L 239.7,264.4 L 239.3,264.4 L 238.9,264.5 L 238.3,264.5 L 237.9,264.5 L 237.6,264.5 L 236.8,264.3 L 235.9,264.2 L 235.0,264.1 L 234.4,264.1 L 233.7,263.9 L 233.4,263.9 L 233.3,264.0 L 232.9,264.0 L 232.2,263.8 L 231.3,263.6 L 230.5,263.3 L 229.8,262.9 L 229.4,262.8 L 229.1,262.4 L 228.9,262.3 L 228.6,262.2 L 228.5,262.2 L 227.8,262.2 L 226.9,262.0 L 226.1,261.7 L 225.2,261.2 L 224.7,261.0 L 224.5,260.8 L 224.2,260.8 L 223.5,260.4 L 223.3,260.2 L 223.2,260.2 L 222.7,260.4 L 222.3,260.4 L 222.1,260.4 L 221.3,260.1 L 220.3,259.6 L 220.2,259.6 L 219.5,259.1 L 218.2,258.7 L 217.8,258.5 L 216.7,258.2 L 215.7,257.8 L 215.4,257.6 L 214.9,257.4 L 214.8,257.4 L 214.6,257.3 L 214.1,256.8 L 213.4,256.5 L 213.0,256.1 L 211.2,255.4 L 210.7,255.2 L 210.7,255.2 L 209.7,254.6 L 208.6,254.1 L 207.9,254.0 L 206.5,253.2 L 205.1,252.7 L 204.1,252.0 L 202.7,251.5 L 201.5,251.1 L 201.4,251.0 L 201.2,251.0 L 200.4,250.6 L 198.4,249.9 L 196.4,249.0 L 196.0,248.6 L 195.8,248.4 L 195.5,248.1 L 195.5,248.0 L 195.3,247.9 L 194.3,247.7 L 194.2,247.7 L 193.7,247.3 L 192.6,246.9 L 192.5,246.7 L 192.4,246.5 L 192.0,246.2 L 191.6,246.1 L 189.8,245.8 L 187.2,245.1 L 187.1,245.0 L 186.2,244.7 L 184.7,244.3 L 183.8,243.7 L 183.2,243.6 L 182.6,243.5 L 182.2,243.2 L 181.8,242.4 L 181.5,241.7 L 181.2,241.4 L 180.9,241.1 L 180.4,240.8 L 180.0,240.7 L 177.6,240.6 L 177.0,240.3 L 174.8,239.0 L 173.5,238.1 L 172.8,237.6 L 172.2,237.4 L 170.0,236.4 L 169.7,236.4 L 169.1,236.1 L 168.4,235.9 L 168.1,235.8 L 165.2,234.5 L 164.4,233.9 L 163.8,233.7 L 161.5,232.6 L 160.9,232.5 L 160.2,232.1 L 159.2,232.0 L 158.8,231.7 L 158.5,231.4 L 158.5,230.8 L 158.5,230.7 L 157.8,230.0 L 157.8,229.8 L 157.9,229.7 L 157.7,229.3 L 157.7,228.8 L 157.6,228.7 L 157.5,228.6 L 156.8,227.9 L 156.1,227.6 L 155.2,227.5 L 155.1,227.5 L 154.9,227.4 L 154.7,227.1 L 154.7,226.8 L 153.5,226.1 L 152.8,226.0 L 152.3,225.6 L 152.1,225.0 L 152.3,224.1 L 152.6,223.8 L 152.7,223.5 L 152.4,223.3 L 152.2,223.3 L 152.3,223.1 L 152.4,223.1 L 152.5,222.6 L 152.2,222.5 L 152.0,222.6 L 151.9,222.4 L 151.7,221.7 L 151.6,221.2 L 151.4,220.3 L 151.1,219.7 L 150.9,219.6 L 150.9,219.5 L 150.9,219.3 L 150.5,218.8 L 150.0,218.5 L 149.8,218.1 L 148.5,216.8 L 146.8,215.6 L 146.5,215.3 L 145.8,214.9 L 143.2,213.6 L 142.8,213.1 L 142.3,212.9 L 141.6,212.8 L 141.2,212.6 L 140.3,211.7 L 138.8,210.1 L 138.7,210.0 L 137.9,209.3 L 137.0,208.3 L 136.8,207.8 L 136.4,207.4 L 136.0,206.8 L 135.2,205.7 L 134.5,204.7 L 134.2,203.9 L 134.0,203.1 L 133.8,202.4 L 133.9,201.6 L 133.7,201.2 L 133.7,200.7 L 133.8,200.6 L 134.0,200.4 L 134.0,199.8 L 133.4,198.0 L 133.3,197.1 L 132.7,196.1 L 132.6,195.9 L 132.3,195.4 L 131.2,194.5 L 130.3,194.1 L 129.8,193.7 L 128.2,190.8 L 127.0,189.4 L 126.3,188.0 L 125.6,187.2 L 125.0,186.7 L 124.4,186.2 L 123.8,185.9 L 123.1,185.6 L 121.2,185.2 L 120.8,185.3 L 120.2,185.7 L 119.7,185.7 L 118.8,185.4 L 118.0,184.9 L 117.3,184.3 L 116.9,184.1 L 115.5,183.5 L 114.7,182.9 L 114.0,182.6 L 113.6,182.3 L 112.0,181.5 L 111.2,181.1 L 110.9,180.9 L 108.1,179.3 L 107.2,178.7 L 105.6,177.7 L 104.6,176.5 L 104.3,175.9 L 103.7,175.2 L 103.1,174.4 L 102.4,173.8 L 102.2,173.6 L 101.6,173.0 L 100.3,172.2 L 98.8,170.9 L 98.4,170.5 L 98.3,170.3 L 96.3,169.2 L 95.5,168.7 L 94.7,168.4 L 93.4,167.7 L 93.0,167.5 L 92.4,167.2 L 90.7,166.6 L 89.2,166.4 L 88.3,166.3 L 87.8,166.4 L 85.9,166.5 L 85.0,166.4 L 84.0,166.4 L 83.3,166.5 L 82.1,167.3 L 81.4,167.4 L 79.4,167.2 L 76.5,166.9 L 75.4,166.7 L 74.7,166.4 L 73.9,166.0 L 72.6,165.6 L 71.9,165.4 L 71.3,165.5 L 71.0,165.8 L 70.0,166.1 L 69.4,166.5 L 68.6,166.7 L 67.8,166.8 L 66.9,166.7 L 66.8,166.7 L 66.8,166.7 L 65.7,166.4 L 64.6,165.8 L 63.8,165.4 L 62.8,165.1 L 62.1,164.8 L 61.3,164.5 L 59.7,163.7 L 59.1,163.5 L 58.9,163.4 L 57.6,162.8 L 56.9,162.8 L 56.0,163.3 L 55.6,163.4 L 55.0,163.4 L 51.9,163.2 L 51.7,163.2 L 51.3,163.4 L 50.2,163.8 L 46.8,164.6 L 45.4,165.0" fill="none" stroke="black" stroke-width="2"/>
</svg>