<?xml version="1.0" encoding="UTF-8"?>
<svg width="400" height="400" viewBox="0 0 400 400" xmlns="http://www.w3.org/2000/svg">
  <rect width="400" height="400" fill="white"/>
  <path d="M 40.0,210.6 L 40.0,210.6 L 41.2,208.9 L 41.5,207.8 L 41.9,206.9 L 42.5,206.3 L 43.8,205.3 L 44.0,204.7 L 44.5,203.8 L 45.0,202.4 L 44.9,201.8 L 45.9,199.3 L 48.1,196.3 L 51.3,191.5 L 54.0,188.0 L 55.2,187.4 L 56.7,187.7 L 57.8,188.6 L 58.6,188.2 L 58.9,187.7 L 60.1,184.9 L 61.9,182.8 L 62.2,181.9 L 63.2,180.8 L 64.8,179.9 L 67.3,177.0 L 69.0,174.2 L 70.0,173.1 L 71.4,172.1 L 72.1,171.1 L 74.0,169.4 L 75.3,169.0 L 76.7,169.3 L 77.2,169.6 L 78.3,169.5 L 80.7,168.5 L 81.7,167.4 L 84.8,165.2 L 85.7,164.3 L 86.2,163.7 L 88.2,162.8 L 89.9,162.3 L 92.5,162.7 L 93.6,162.7 L 95.7,163.6 L 96.9,163.0 L 97.8,163.0 L 99.1,163.5 L 99.5,164.2 L 99.3,165.3 L 99.4,165.8 L 100.7,165.2 L 101.1,165.2 L 102.1,165.4 L 103.3,164.7 L 105.1,163.4 L 105.7,162.8 L 107.2,162.8 L 108.1,163.1 L 109.3,164.4 L 110.3,165.0 L 111.0,165.5 L 112.4,166.8 L 112.9,167.8 L 113.7,167.3 L 116.6,167.6 L 119.0,166.9 L 120.0,166.3 L 120.8,166.3 L 122.2,166.1 L 123.5,166.2 L 124.0,166.7 L 124.4,166.9 L 124.6,166.9 L 125.5,167.5 L 126.5,169.6 L 127.5,170.4 L 127.8,170.5 L 128.6,170.3 L 129.0,170.5 L 129.1,170.6 L 129.4,171.9 L 129.7,172.4 L 129.6,173.1 L 130.7,174.7 L 131.4,175.3 L 132.4,174.6 L 134.2,173.4 L 135.0,172.9 L 135.3,172.4 L 136.1,171.9 L 136.8,172.0 L 137.3,172.4 L 138.0,172.3 L 138.1,171.7 L 138.4,171.6 L 138.5,171.9 L 138.7,171.8 L 139.0,171.8 L 140.3,171.0 L 141.0,170.8 L 141.1,171.0 L 141.2,171.3 L 142.1,172.0 L 142.0,172.7 L 142.3,173.0 L 142.5,173.4 L 144.5,174.0 L 145.6,174.7 L 146.1,175.6 L 145.9,176.9 L 146.0,177.6 L 145.8,177.8 L 145.7,178.2 L 146.2,178.6 L 146.2,179.1 L 146.7,179.7 L 146.8,180.1 L 146.8,180.2 L 146.9,181.2 L 148.1,182.2 L 148.4,185.3 L 149.7,189.6 L 150.0,190.1 L 149.7,191.4 L 150.1,191.3 L 151.0,190.5 L 151.7,189.9 L 152.8,188.0 L 155.0,186.4 L 156.6,184.8 L 157.6,184.1 L 158.0,184.2 L 158.3,184.7 L 158.4,185.2 L 159.5,187.1 L 160.5,187.7 L 160.4,188.6 L 160.8,188.9 L 161.6,188.9 L 162.2,188.6 L 162.7,187.9 L 163.1,186.4 L 164.3,185.1 L 165.3,183.4 L 166.1,182.7 L 166.6,182.0 L 167.6,180.7 L 168.3,180.6 L 170.1,178.6 L 171.7,177.5 L 172.3,176.6 L 172.8,176.5 L 173.4,176.8 L 174.0,177.8 L 174.1,178.8 L 174.3,179.2 L 174.5,179.3 L 174.9,179.9 L 175.2,180.7 L 175.6,181.2 L 175.5,182.5 L 175.6,182.9 L 175.7,183.3 L 176.8,183.0 L 177.0,182.9 L 177.3,182.4 L 178.2,182.0 L 178.5,181.7 L 179.0,180.2 L 180.0,179.4 L 181.2,177.9 L 181.8,177.2 L 183.0,176.3 L 184.0,176.2 L 184.5,176.3 L 184.9,177.4 L 185.0,179.2 L 184.7,179.8 L 185.2,180.4 L 185.1,181.3 L 185.3,181.6 L 185.1,182.6 L 185.7,182.9 L 186.2,182.9 L 187.1,182.6 L 187.4,182.0 L 188.7,181.1 L 189.1,181.7 L 190.1,181.6 L 190.5,181.3 L 190.9,180.8 L 191.4,180.4 L 192.9,177.7 L 193.8,177.5 L 194.1,177.9 L 194.5,177.8 L 194.8,177.3 L 195.3,177.3 L 196.2,176.3 L 198.4,175.5 L 200.0,175.1 L 201.2,175.4 L 202.2,176.3 L 202.3,176.7 L 203.1,177.9 L 204.5,178.5 L 205.2,178.4 L 206.0,177.9 L 206.9,177.5 L 209.6,174.3 L 210.6,173.4 L 212.3,172.9 L 213.0,172.7 L 216.8,172.3 L 218.3,172.7 L 219.4,173.8 L 219.4,174.2 L 220.0,174.1 L 220.6,173.2 L 222.7,171.7 L 223.8,171.0 L 225.2,170.6 L 226.1,170.1 L 227.3,169.8 L 227.7,169.7 L 230.0,170.0 L 230.4,170.0 L 232.0,169.8 L 234.3,169.8 L 238.8,169.7 L 240.4,170.2 L 240.8,170.6 L 240.8,171.2 L 241.3,171.9 L 241.4,172.4 L 241.7,172.9 L 242.3,172.9 L 242.6,172.4 L 243.1,171.9 L 243.7,172.2 L 244.2,172.0 L 245.2,171.5 L 246.5,171.8 L 246.9,172.3 L 246.8,173.4 L 247.5,173.5 L 247.7,173.9 L 248.3,174.0 L 249.1,174.6 L 249.1,175.7 L 249.9,175.8 L 250.2,176.1 L 251.2,175.4 L 252.3,174.2 L 252.7,174.0 L 253.5,172.6 L 254.6,171.4 L 255.1,170.6 L 256.4,169.6 L 258.9,169.0 L 260.9,168.7 L 261.1,168.6 L 261.7,168.6 L 262.2,168.8 L 262.3,169.1 L 263.5,170.1 L 264.4,170.3 L 264.7,170.6 L 264.9,171.2 L 266.6,171.0 L 267.4,170.8 L 269.1,171.0 L 271.0,170.3 L 271.3,169.9 L 271.3,169.8 L 272.4,169.2 L 273.3,168.9 L 275.0,168.2 L 275.9,168.0 L 276.9,168.2 L 277.6,168.7 L 278.5,169.5 L 282.0,170.0 L 282.4,169.6 L 282.9,169.9 L 283.0,169.8 L 284.7,169.9 L 286.7,169.8 L 287.0,170.0 L 287.0,170.7 L 287.4,170.9 L 287.4,171.5 L 288.3,172.4 L 289.3,173.8 L 290.2,173.8 L 290.7,173.3 L 291.3,172.3 L 294.9,171.7 L 297.0,173.3 L 298.2,173.2 L 298.5,173.5 L 298.4,174.5 L 299.1,175.2 L 299.2,175.6 L 299.9,176.4 L 300.3,176.4 L 301.6,175.1 L 302.6,174.7 L 305.7,175.2 L 306.8,176.1 L 306.7,177.0 L 306.2,178.0 L 306.3,178.6 L 306.1,179.5 L 306.2,180.2 L 306.5,180.9 L 307.1,180.8 L 307.5,180.0 L 307.6,178.8 L 308.4,178.3 L 310.1,178.5 L 310.8,178.9 L 311.2,179.5 L 310.8,181.1 L 311.8,183.2 L 311.9,184.5 L 312.3,184.4 L 313.0,183.5 L 313.6,183.1 L 315.2,183.3 L 316.2,184.1 L 317.2,185.3 L 317.5,186.3 L 317.0,187.1 L 317.1,188.2 L 317.2,188.6 L 317.9,188.7 L 318.8,187.8 L 320.9,187.0 L 322.7,186.1 L 323.0,186.0 L 324.4,185.6 L 326.1,185.9 L 328.0,187.2 L 329.1,188.9 L 330.0,190.4 L 329.9,190.9 L 329.6,192.1 L 330.5,192.4 L 330.4,192.5 L 330.3,193.0 L 330.2,193.2 L 330.1,193.8 L 330.1,193.9 L 330.0,194.0 L 330.0,194.2 L 330.1,194.5 L 330.1,195.3 L 330.2,195.8 L 330.2,195.8 L 330.3,195.8 L 330.4,195.5 L 330.4,195.0 L 330.5,194.8 L 330.8,194.7 L 331.0,194.6 L 331.2,194.7 L 331.3,194.9 L 331.6,195.3 L 331.8,195.7 L 331.9,196.1 L 332.0,196.2 L 332.1,196.4 L 332.1,196.8 L 332.3,197.4 L 332.4,197.9 L 333.3,198.1 L 334.4,198.6 L 336.5,199.1 L 336.5,199.2 L 336.8,199.7 L 336.8,200.9 L 337.0,201.2 L 337.2,202.1 L 337.6,202.8 L 338.0,203.0 L 338.2,203.1 L 338.3,203.2 L 338.3,203.4 L 338.4,203.4 L 338.5,203.4 L 338.7,203.3 L 338.8,203.2 L 339.0,203.2 L 339.1,203.1 L 339.2,203.0 L 339.3,202.8 L 339.3,202.4 L 339.4,202.3 L 339.7,202.0 L 339.8,201.9 L 340.2,201.9 L 340.7,201.9 L 341.2,201.9 L 341.5,201.8 L 341.9,201.6 L 342.1,201.5 L 342.4,201.1 L 342.9,200.6 L 343.4,200.3 L 343.8,199.9 L 344.2,199.5 L 344.2,199.4 L 344.3,199.2 L 344.2,199.0 L 344.2,198.8 L 344.4,198.8 L 344.6,198.9 L 344.8,198.7 L 344.9,198.6 L 345.1,198.3 L 345.5,197.9 L 345.9,197.5 L 346.2,197.1 L 346.5,196.6 L 346.7,196.3 L 346.9,196.1 L 347.1,195.8 L 347.3,195.6 L 347.7,195.7 L 348.1,195.8 L 348.3,195.8 L 348.7,195.8 L 349.1,195.5 L 349.3,195.3 L 349.3,195.1 L 349.4,195.0 L 349.6,195.1 L 349.7,195.2 L 349.8,195.2 L 350.0,195.1 L 350.3,194.9 L 350.3,194.9 L 350.5,195.0 L 350.9,195.2 L 351.2,195.6 L 351.4,195.8 L 351.8,196.1 L 351.9,196.3 L 352.2,196.8 L 352.2,196.8 L 352.2,196.9 L 352.0,196.9 L 351.9,196.9 L 351.9,197.1 L 352.0,197.2 L 352.4,197.6 L 352.9,197.9 L 353.3,198.3 L 353.6,198.6 L 353.9,198.8 L 354.2,199.1 L 354.6,199.5 L 354.6,199.5 L 354.8,199.7 L 355.0,200.0 L 355.2,200.3 L 355.4,200.6 L 355.6,201.0 L 355.8,201.5 L 356.0,201.8 L 356.1,202.3 L 356.2,202.4 L 356.6,202.2 L 356.9,202.1 L 356.9,202.0 L 356.9,202.0 L 357.1,202.4 L 357.3,202.8 L 357.4,203.1 L 357.5,203.5 L 357.6,203.9 L 357.7,204.2 L 357.9,204.5 L 357.8,204.7 L 357.8,204.8 L 357.5,205.2 L 357.4,205.4 L 357.3,205.6 L 357.2,205.7 L 357.0,205.9 L 356.9,206.1 L 357.0,206.3 L 357.1,206.6 L 357.4,207.1 L 357.6,207.6 L 357.6,207.7 L 357.7,207.8 L 358.0,208.3 L 358.1,208.5 L 358.1,208.6 L 358.0,209.1 L 357.9,209.5 L 357.8,209.6 L 357.6,209.6 L 357.5,209.5 L 357.4,209.3 L 357.3,209.1 L 357.1,209.0 L 356.7,209.0 L 356.3,208.9 L 356.1,209.0 L 356.1,209.1 L 356.1,209.5 L 356.1,209.5 L 355.9,209.5 L 355.8,209.6 L 355.7,209.7 L 355.8,209.8 L 356.2,210.3 L 356.4,210.6 L 356.9,210.9 L 357.2,211.2 L 357.7,211.5 L 358.0,211.8 L 358.4,212.0 L 358.8,212.2 L 359.2,212.5 L 359.5,212.7 L 359.6,212.7 L 359.7,212.6 L 359.8,212.7 L 360.0,212.8 L 360.0,212.9 L 359.8,213.2 L 359.7,213.3 L 359.6,213.5 L 359.5,213.7 L 359.4,214.0 L 359.4,214.0 L 359.1,214.0 L 358.9,213.7 L 358.6,213.3 L 358.2,212.9 L 357.8,212.5 L 357.4,212.3 L 357.1,212.0 L 356.6,211.8 L 356.3,211.7 L 355.9,211.4 L 355.5,211.1 L 355.1,211.0 L 354.7,210.7 L 354.7,210.7 L 354.6,210.6 L 354.5,210.7 L 354.2,211.1 L 353.9,211.5 L 353.7,211.9 L 353.4,212.3 L 353.4,212.4 L 353.4,212.6 L 353.6,213.0 L 353.6,213.1 L 353.6,213.2 L 353.3,213.5 L 352.9,213.8 L 352.4,214.1 L 351.9,214.4 L 351.7,214.6 L 351.6,214.7 L 351.5,214.8 L 351.4,214.7 L 351.0,214.6 L 350.8,214.5 L 350.7,214.5 L 350.6,214.4 L 350.5,214.2 L 350.5,214.0 L 350.5,213.5 L 350.5,213.1 L 350.6,212.7 L 350.6,212.6 L 351.1,212.3 L 351.5,212.0 L 352.0,211.7 L 352.3,211.4 L 352.9,211.1 L 353.0,211.1 L 353.0,210.9 L 353.0,210.8 L 352.9,210.8 L 352.7,210.8 L 352.3,211.0 L 351.8,211.2 L 351.3,211.5 L 350.9,211.8 L 350.5,212.0 L 350.3,212.2 L 350.2,212.3 L 350.1,212.4 L 350.1,212.9 L 350.0,213.5 L 350.0,214.1 L 350.1,214.6 L 350.2,215.2 L 350.2,215.9 L 350.3,216.6 L 350.2,217.4 L 350.3,217.9 L 350.4,218.4 L 350.3,218.9 L 350.3,218.9 L 349.9,218.9 L 349.4,218.9 L 349.1,218.9 L 349.2,218.8 L 349.4,218.5 L 349.5,218.3 L 349.4,218.0 L 349.3,217.7 L 349.2,217.3 L 349.0,216.9 L 348.8,216.6 L 348.7,216.3 L 348.5,215.8 L 348.4,215.6 L 348.2,215.4 L 347.9,215.2 L 347.7,215.0 L 347.6,214.7 L 347.5,214.4 L 347.3,214.1 L 347.0,214.0 L 346.8,213.9 L 346.8,213.6 L 346.8,213.5 L 346.6,213.5 L 346.2,213.5 L 345.8,213.5 L 345.7,213.5 L 345.6,213.6 L 345.7,213.9 L 345.4,214.0 L 345.0,214.0 L 344.5,214.2 L 344.1,214.4 L 343.6,214.7 L 343.3,214.8 L 342.7,215.0 L 342.2,215.3 L 341.8,215.5 L 341.3,215.7 L 341.1,215.7 L 340.6,215.6 L 340.0,215.6 L 339.5,215.5 L 339.0,215.5 L 338.6,215.5 L 338.5,215.5 L 338.4,215.9 L 338.3,215.9 L 338.0,216.0 L 337.7,216.0 L 337.6,216.1 L 337.5,216.3 L 337.4,216.8 L 337.4,217.2 L 337.5,217.4 L 337.6,217.5 L 337.6,217.5 L 337.7,217.6 L 337.6,217.8 L 337.4,217.8 L 337.3,217.8 L 337.1,218.0 L 337.0,218.2 L 336.9,218.5 L 336.9,218.7 L 337.0,218.8 L 337.0,219.1 L 336.8,219.2 L 336.7,219.2 L 336.6,219.0 L 336.5,218.8 L 336.5,218.6 L 336.6,218.1 L 336.7,217.8 L 336.6,217.6 L 336.5,217.4 L 336.3,217.4 L 336.2,217.3 L 336.1,217.2 L 336.2,216.8 L 336.2,216.7 L 336.2,216.5 L 336.0,216.5 L 335.8,216.4 L 335.6,216.5 L 335.3,216.9 L 335.3,217.0 L 335.1,217.0 L 335.0,217.0 L 334.9,217.0 L 334.7,217.2 L 334.7,217.3 L 334.3,217.3 L 333.9,216.6 L 333.4,215.7 L 333.1,215.4 L 333.3,214.9 L 333.1,213.6 L 332.8,213.3 L 331.1,213.7 L 329.6,215.3 L 328.6,217.1 L 327.5,219.5 L 326.3,220.2 L 322.8,223.8 L 320.9,226.9 L 320.4,227.5 L 320.2,228.8 L 319.7,229.0 L 319.5,229.1 L 318.9,229.7 L 317.3,232.0 L 316.6,232.9 L 315.8,233.7 L 314.2,234.9 L 313.0,235.5 L 312.2,236.1 L 311.4,236.5 L 311.0,236.5 L 310.5,236.5 L 310.2,236.5 L 309.6,236.8 L 309.0,236.8 L 308.4,236.6 L 307.9,236.5 L 307.5,236.3 L 307.0,236.3 L 307.0,236.2 L 307.0,236.0 L 307.0,235.6 L 307.2,235.0 L 307.4,234.5 L 307.6,234.0 L 307.9,233.5 L 308.0,233.2 L 308.1,233.0 L 308.3,232.5 L 308.5,232.1 L 308.7,231.8 L 308.8,231.6 L 309.0,231.6 L 309.4,231.7 L 309.8,231.8 L 310.1,231.9 L 310.4,232.0 L 310.7,232.0 L 311.1,232.1 L 311.1,232.1 L 311.1,232.0 L 311.1,231.9 L 310.9,231.8 L 310.5,231.7 L 310.1,231.5 L 309.7,231.4 L 309.4,231.3 L 309.1,231.2 L 308.9,231.0 L 308.8,230.9 L 308.7,230.9 L 308.7,231.0 L 308.5,231.4 L 308.3,231.7 L 308.2,232.1 L 308.0,232.4 L 307.8,232.8 L 307.6,233.2 L 307.4,233.6 L 307.2,234.0 L 307.2,234.2 L 307.0,234.2 L 306.5,234.4 L 306.1,234.6 L 305.6,234.7 L 305.1,234.9 L 304.7,235.1 L 304.4,235.1 L 304.3,235.1 L 304.0,235.1 L 303.4,234.8 L 303.3,234.9 L 302.4,235.3 L 301.3,235.5 L 300.1,235.4 L 298.7,234.3 L 297.7,234.3 L 297.6,234.3 L 296.7,234.0 L 296.0,233.3 L 295.9,233.2 L 295.9,233.1 L 295.9,233.1 L 295.4,232.5 L 294.2,231.8 L 293.8,231.6 L 293.2,230.3 L 292.2,229.6 L 291.0,229.1 L 290.4,228.4 L 290.4,227.6 L 290.8,227.2 L 289.8,222.8 L 288.6,219.1 L 287.7,217.6 L 286.5,216.5 L 284.1,215.4 L 281.0,214.3 L 280.6,213.7 L 280.7,212.3 L 281.7,210.6 L 281.8,209.9 L 282.0,208.6 L 281.2,208.1 L 281.0,207.7 L 280.4,207.3 L 280.3,206.5 L 281.6,206.0 L 281.4,204.5 L 281.5,203.9 L 280.8,203.0 L 280.3,202.8 L 278.8,202.7 L 278.3,203.1 L 276.9,202.9 L 275.5,202.9 L 274.5,203.7 L 274.4,204.5 L 274.2,204.9 L 274.1,205.2 L 275.8,205.9 L 276.2,206.4 L 275.8,208.4 L 274.2,208.7 L 273.5,208.9 L 273.2,209.3 L 271.0,213.6 L 270.9,214.8 L 270.4,215.9 L 269.9,216.3 L 268.1,217.5 L 266.8,218.6 L 265.6,219.1 L 264.6,219.8 L 263.2,222.0 L 262.9,223.3 L 262.6,224.2 L 262.0,225.1 L 261.6,225.8 L 261.1,227.5 L 259.9,229.2 L 259.7,229.2 L 257.3,229.1 L 256.0,229.2 L 254.0,231.1 L 252.7,231.8 L 251.1,232.0 L 249.8,232.6 L 248.5,233.3 L 247.6,233.3 L 246.7,232.3 L 246.9,231.0 L 248.5,226.0 L 249.6,224.7 L 250.2,222.3 L 250.3,221.9 L 251.0,221.0 L 251.0,219.7 L 250.8,219.3 L 250.2,219.8 L 249.8,220.8 L 249.3,221.5 L 249.1,221.8 L 246.8,223.6 L 245.6,224.7 L 243.2,225.9 L 242.2,226.1 L 241.5,226.5 L 240.6,226.6 L 239.9,226.7 L 239.5,226.7 L 238.5,226.6 L 237.7,225.6 L 235.6,224.5 L 235.0,224.2 L 234.1,223.3 L 231.8,222.9 L 230.9,222.9 L 226.3,223.1 L 223.8,222.9 L 223.8,222.9 L 221.5,223.2 L 218.0,222.7 L 216.8,222.8 L 216.6,222.8 L 215.3,222.7 L 214.7,222.2 L 212.9,222.0 L 212.2,221.9 L 209.2,224.6 L 208.4,225.2 L 207.4,225.6 L 205.8,226.1 L 204.6,226.9 L 203.7,226.8 L 203.5,226.8 L 200.4,225.4 L 199.4,225.9 L 197.1,227.7 L 196.9,228.6 L 196.9,228.7 L 196.2,229.0 L 195.3,230.1 L 192.9,231.1 L 191.5,231.8 L 190.3,232.3 L 189.5,232.8 L 188.9,232.8 L 187.8,231.9 L 187.7,231.2 L 187.3,231.1 L 187.4,230.0 L 187.7,229.2 L 187.8,228.7 L 187.7,228.3 L 186.4,228.1 L 185.6,228.2 L 184.6,228.6 L 184.3,229.1 L 183.4,230.0 L 180.1,231.6 L 179.3,232.3 L 176.4,234.2 L 172.5,236.0 L 171.4,236.2 L 170.2,236.8 L 168.9,237.0 L 167.2,237.5 L 164.9,237.7 L 163.5,237.6 L 161.4,236.8 L 159.5,235.7 L 156.9,234.8 L 154.5,231.4 L 153.7,231.0 L 152.5,231.1 L 151.6,230.7 L 149.9,227.5 L 149.6,226.2 L 149.4,226.0 L 147.0,226.2 L 145.9,226.1 L 144.7,225.3 L 143.5,224.0 L 143.6,222.5 L 142.8,221.9 L 141.5,221.7 L 140.4,222.6 L 139.6,223.0 L 139.0,223.6 L 137.5,224.7 L 136.8,224.8 L 136.1,225.8 L 134.8,226.2 L 134.5,226.4 L 134.1,226.7 L 132.9,226.1 L 132.4,225.8 L 132.1,225.4 L 132.3,224.8 L 132.7,223.7 L 133.5,222.0 L 134.0,219.1 L 133.7,218.5 L 133.3,218.7 L 132.5,218.6 L 130.6,220.3 L 129.3,220.2 L 128.5,220.8 L 127.6,220.8 L 126.6,219.9 L 126.1,219.2 L 124.6,219.7 L 123.9,219.7 L 122.8,220.0 L 122.0,220.6 L 120.7,222.2 L 119.4,224.1 L 119.1,224.9 L 118.8,225.3 L 115.5,226.2 L 113.4,226.2 L 112.3,226.6 L 110.7,226.9 L 108.7,226.8 L 106.7,226.2 L 106.0,225.8 L 105.5,225.2 L 105.8,223.9 L 106.7,222.6 L 107.2,221.4 L 107.2,219.7 L 106.8,218.8 L 106.9,218.3 L 107.5,217.5 L 107.7,215.8 L 108.8,215.2 L 109.1,214.5 L 109.4,213.1 L 109.2,212.2 L 109.7,211.1 L 110.7,210.2 L 110.9,209.4 L 111.3,209.0 L 111.5,207.7 L 111.1,207.2 L 109.9,207.5 L 109.0,208.2 L 108.7,209.0 L 108.2,209.4 L 107.1,209.8 L 106.2,209.8 L 105.5,207.2 L 105.7,205.9 L 106.9,204.3 L 107.2,202.7 L 106.7,202.0 L 103.7,201.5 L 103.3,201.7 L 103.0,202.8 L 103.5,203.7 L 102.9,204.3 L 101.1,207.1 L 100.4,208.0 L 99.8,208.0 L 99.4,208.1 L 98.7,209.1 L 97.9,209.7 L 96.8,211.0 L 96.2,211.7 L 96.0,213.1 L 95.6,214.1 L 96.0,215.2 L 96.0,216.0 L 95.6,216.6 L 95.2,219.1 L 94.6,219.6 L 93.1,219.9 L 91.2,221.6 L 89.9,225.2 L 88.3,226.4 L 87.2,227.0 L 84.3,228.8 L 83.1,229.2 L 81.7,229.8 L 80.8,229.9 L 79.0,231.0 L 77.2,230.9 L 76.6,232.0 L 75.6,232.7 L 74.9,233.0 L 73.5,232.1 L 70.8,231.6 L 70.0,231.8 L 68.2,231.9 L 67.0,231.8 L 66.4,232.2 L 65.8,232.8 L 65.7,233.2 L 65.4,233.0 L 40.0,210.6" fill="none" stroke="black" stroke-width="2"/>
</svg>