<?xml version="1.0" encoding="UTF-8"?>
<svg width="400" height="400" viewBox="0 0 400 400" xmlns="http://www.w3.org/2000/svg">
  <rect width="400" height="400" fill="white"/>
  <path d="M 112.5,270.3 L 121.1,231.1 L 126.8,205.2 L 129.7,191.9 L 130.9,186.4 L 134.5,170.1 L 138.4,152.8 L 147.0,113.6 L 155.6,74.4 L 163.2,40.0 L 165.3,40.5 L 165.1,40.5 L 165.0,40.6 L 164.9,40.7 L 165.1,40.7 L 165.3,40.7 L 165.4,40.6 L 165.3,40.5 L 166.0,40.7 L 205.2,49.9 L 244.4,59.1 L 247.7,59.9 L 247.7,59.9 L 247.5,60.0 L 247.5,60.1 L 247.7,60.1 L 247.9,59.9 L 247.9,59.9 L 247.9,59.9 L 247.9,59.9 L 247.9,59.9 L 248.2,60.0 L 248.3,60.1 L 248.6,60.1 L 248.7,60.3 L 248.7,60.4 L 248.8,60.6 L 248.9,60.7 L 248.9,60.9 L 248.8,61.1 L 248.8,61.3 L 248.9,61.4 L 249.0,61.4 L 249.0,61.5 L 249.0,61.6 L 249.0,61.8 L 249.0,62.0 L 249.0,62.5 L 248.8,62.7 L 248.8,62.9 L 248.8,63.0 L 248.7,63.3 L 248.4,63.8 L 248.3,64.0 L 248.3,64.2 L 248.4,64.2 L 248.4,64.2 L 248.4,64.4 L 248.5,64.5 L 248.6,64.5 L 248.7,64.7 L 248.8,64.7 L 248.9,64.5 L 249.0,64.4 L 248.9,64.1 L 248.9,64.0 L 249.1,63.9 L 249.2,63.6 L 249.3,63.6 L 249.3,63.7 L 249.3,63.8 L 249.5,63.8 L 249.7,63.6 L 249.8,63.6 L 250.0,63.7 L 250.0,63.9 L 250.0,64.0 L 249.9,64.1 L 249.8,64.2 L 249.8,64.3 L 249.8,64.5 L 249.9,64.6 L 250.0,64.6 L 250.0,64.6 L 250.2,64.3 L 250.3,64.4 L 250.3,64.5 L 250.4,64.6 L 250.6,64.8 L 250.7,64.8 L 250.9,65.0 L 250.9,65.1 L 251.3,65.3 L 251.3,65.4 L 251.4,65.5 L 251.5,65.6 L 251.5,65.6 L 251.3,65.7 L 251.2,66.3 L 251.2,66.6 L 251.4,66.6 L 251.7,66.4 L 251.7,66.6 L 251.8,66.7 L 251.9,66.7 L 252.0,66.6 L 252.0,66.6 L 252.1,66.8 L 252.2,66.8 L 252.3,66.6 L 252.4,66.7 L 252.3,66.7 L 252.4,66.8 L 252.6,66.8 L 252.6,66.8 L 252.3,67.1 L 252.2,67.2 L 252.3,67.4 L 252.3,67.5 L 252.4,67.5 L 252.3,67.7 L 252.2,67.7 L 252.0,67.9 L 252.0,68.0 L 251.8,68.2 L 251.8,68.4 L 251.9,68.4 L 252.0,68.3 L 252.3,68.3 L 252.4,68.2 L 252.5,67.9 L 252.5,67.5 L 252.8,67.4 L 252.8,67.5 L 252.9,67.6 L 253.0,67.6 L 253.1,67.6 L 253.2,67.5 L 253.6,67.4 L 253.7,67.5 L 253.7,67.5 L 253.6,68.3 L 254.1,68.7 L 254.3,68.7 L 254.4,68.8 L 254.5,68.8 L 254.9,68.6 L 255.0,68.4 L 255.0,68.3 L 255.1,68.2 L 255.2,68.3 L 255.2,68.5 L 255.3,68.6 L 255.4,68.6 L 255.5,68.5 L 255.4,68.3 L 255.5,67.9 L 255.7,67.5 L 255.8,67.1 L 255.8,67.1 L 256.3,67.1 L 256.6,67.1 L 256.7,67.2 L 256.8,67.2 L 257.1,67.7 L 257.2,67.7 L 257.3,68.0 L 257.4,68.0 L 257.6,68.3 L 257.8,68.3 L 257.9,68.4 L 258.0,68.4 L 258.1,68.3 L 258.1,68.0 L 258.1,67.9 L 258.3,68.1 L 258.4,68.3 L 258.5,68.2 L 258.5,68.1 L 258.9,67.6 L 259.0,67.6 L 259.4,67.7 L 259.4,67.7 L 259.3,68.2 L 259.3,68.7 L 259.5,69.0 L 259.8,69.0 L 260.1,68.9 L 260.4,69.0 L 260.4,69.1 L 260.5,69.1 L 260.8,69.4 L 260.9,69.4 L 261.2,69.6 L 261.2,69.7 L 261.2,69.7 L 261.2,69.8 L 261.0,69.6 L 260.8,69.5 L 260.7,69.4 L 260.6,69.5 L 260.5,69.7 L 260.6,69.9 L 260.6,69.9 L 260.5,69.9 L 260.5,69.9 L 260.4,69.9 L 260.1,69.8 L 260.0,69.6 L 259.9,69.7 L 259.9,69.9 L 260.0,70.0 L 260.3,70.3 L 260.3,70.4 L 260.5,70.6 L 260.7,70.6 L 260.9,70.4 L 260.9,70.3 L 261.0,70.4 L 260.7,71.1 L 260.6,71.1 L 260.7,71.2 L 259.9,73.2 L 259.9,73.3 L 259.7,73.3 L 259.8,73.6 L 259.7,73.7 L 259.5,73.7 L 259.4,73.7 L 259.4,74.0 L 259.4,74.2 L 259.3,74.3 L 259.0,73.9 L 258.8,73.9 L 258.8,73.7 L 258.7,73.6 L 258.5,73.5 L 258.5,73.5 L 258.3,73.6 L 258.3,73.7 L 258.4,73.9 L 258.4,73.9 L 258.3,74.0 L 258.2,74.0 L 258.2,73.8 L 258.2,73.8 L 258.1,73.7 L 257.9,73.6 L 257.8,73.7 L 257.7,74.1 L 257.7,74.2 L 257.5,74.3 L 257.3,74.5 L 257.3,74.7 L 257.4,74.7 L 257.5,74.7 L 257.6,74.9 L 257.5,74.9 L 257.3,74.8 L 257.2,75.1 L 257.1,75.1 L 257.0,75.2 L 257.2,75.3 L 257.2,75.3 L 257.3,75.5 L 257.3,75.6 L 257.2,75.6 L 257.2,75.4 L 256.9,75.4 L 256.8,75.6 L 256.8,75.8 L 257.0,76.1 L 257.1,76.1 L 257.3,76.2 L 257.5,76.4 L 257.6,76.4 L 257.8,76.3 L 257.9,76.5 L 257.8,77.0 L 257.6,77.1 L 257.6,77.2 L 257.4,77.4 L 257.4,77.6 L 257.3,77.7 L 257.3,78.0 L 257.3,78.2 L 257.3,78.3 L 257.2,78.3 L 257.1,78.2 L 257.0,78.3 L 256.9,78.2 L 256.7,78.0 L 256.9,78.0 L 257.0,77.3 L 256.8,77.0 L 256.5,76.9 L 256.6,76.5 L 256.7,76.3 L 256.6,76.1 L 256.4,75.9 L 256.5,75.7 L 256.4,75.7 L 256.3,75.6 L 256.1,75.8 L 255.9,75.8 L 255.8,76.0 L 255.6,76.1 L 255.5,76.3 L 255.4,76.5 L 255.5,76.6 L 255.4,76.7 L 255.4,76.9 L 255.3,77.0 L 255.3,77.4 L 255.3,77.5 L 255.5,78.0 L 255.4,78.0 L 255.3,78.3 L 255.3,78.4 L 255.2,78.6 L 255.0,78.9 L 255.0,79.0 L 254.8,79.4 L 254.7,79.6 L 254.7,80.1 L 254.8,80.4 L 255.1,80.8 L 255.2,80.9 L 255.3,81.0 L 255.5,81.2 L 255.5,81.2 L 255.6,81.2 L 255.6,81.1 L 255.7,81.0 L 255.9,81.1 L 255.9,81.3 L 256.1,81.3 L 256.2,81.3 L 256.2,81.3 L 256.3,81.5 L 256.5,81.5 L 256.6,81.6 L 256.6,81.7 L 256.6,81.9 L 256.7,82.0 L 256.8,82.2 L 256.8,82.5 L 257.0,82.4 L 257.1,82.6 L 257.2,82.6 L 257.3,82.4 L 257.4,82.1 L 257.3,82.0 L 257.4,81.7 L 257.5,81.6 L 257.6,81.5 L 257.7,81.6 L 257.7,81.6 L 257.8,81.8 L 257.9,81.7 L 258.0,81.8 L 258.0,82.0 L 258.2,82.4 L 258.4,82.5 L 258.5,82.5 L 258.6,82.3 L 258.6,82.3 L 258.7,82.7 L 258.8,82.9 L 258.8,83.0 L 259.0,83.1 L 259.1,83.2 L 259.0,83.3 L 259.1,83.5 L 259.4,83.5 L 259.4,83.3 L 259.4,83.2 L 259.3,83.1 L 259.4,82.9 L 259.3,82.5 L 259.3,82.4 L 259.3,82.3 L 259.2,82.3 L 259.2,82.3 L 259.0,82.2 L 259.0,82.1 L 259.1,82.1 L 259.4,82.2 L 259.4,82.2 L 259.7,82.2 L 259.9,82.3 L 260.0,82.3 L 260.0,82.1 L 260.1,82.1 L 260.2,81.9 L 260.4,81.9 L 260.5,81.5 L 260.5,81.2 L 260.5,81.2 L 260.4,81.0 L 260.4,81.0 L 260.4,81.1 L 260.3,81.1 L 260.3,81.2 L 260.2,81.2 L 260.2,81.1 L 260.2,81.0 L 260.3,81.1 L 260.3,80.9 L 260.2,80.8 L 260.3,80.7 L 260.4,80.8 L 260.5,80.8 L 260.5,80.7 L 260.6,80.6 L 260.7,80.5 L 260.9,80.4 L 260.9,80.4 L 261.1,80.4 L 261.3,80.6 L 261.3,81.0 L 261.3,81.3 L 261.5,81.5 L 261.3,81.6 L 261.1,81.6 L 261.0,81.5 L 261.0,81.5 L 260.8,81.7 L 260.8,81.9 L 261.0,82.3 L 261.0,82.4 L 260.9,82.7 L 260.8,83.0 L 260.8,83.1 L 260.9,83.1 L 261.0,83.1 L 261.1,83.2 L 261.2,83.2 L 261.6,83.2 L 261.7,83.4 L 261.8,83.4 L 261.9,83.3 L 262.1,83.4 L 262.1,83.5 L 262.1,83.6 L 262.2,83.9 L 262.3,84.2 L 262.3,84.5 L 262.3,84.6 L 262.3,84.8 L 262.7,84.8 L 262.7,85.1 L 262.7,85.2 L 262.8,85.4 L 262.9,85.4 L 263.0,85.4 L 263.1,85.3 L 263.2,85.3 L 263.3,85.2 L 263.3,85.1 L 263.3,85.0 L 263.2,84.7 L 263.3,84.7 L 263.4,84.8 L 263.4,85.0 L 263.5,85.3 L 263.7,85.4 L 263.6,85.7 L 263.8,85.9 L 264.0,86.0 L 264.5,86.5 L 264.5,86.6 L 264.6,86.7 L 264.5,87.1 L 264.6,87.2 L 264.7,87.6 L 264.8,87.6 L 264.9,87.8 L 265.1,87.8 L 265.3,87.9 L 265.3,87.9 L 265.5,88.0 L 265.8,88.1 L 266.0,88.2 L 266.0,88.3 L 266.1,88.9 L 266.1,88.9 L 265.6,88.8 L 265.4,88.8 L 265.3,88.9 L 265.3,89.2 L 265.4,89.5 L 265.5,89.6 L 265.7,89.6 L 265.9,89.9 L 266.0,90.2 L 266.2,90.6 L 266.2,90.7 L 266.3,90.7 L 266.5,90.7 L 266.5,90.7 L 266.5,90.9 L 266.6,91.3 L 266.8,91.4 L 266.9,91.4 L 267.0,91.3 L 267.0,91.1 L 267.1,91.1 L 267.2,91.1 L 267.5,91.7 L 267.5,91.9 L 267.5,92.1 L 267.8,92.3 L 267.8,92.5 L 268.0,92.7 L 268.1,92.9 L 268.1,93.0 L 268.1,93.2 L 268.2,93.2 L 268.3,93.1 L 268.3,93.3 L 268.4,93.5 L 268.4,93.7 L 268.6,93.9 L 268.8,93.9 L 268.9,94.0 L 269.2,94.2 L 269.3,94.2 L 269.3,94.3 L 269.3,94.3 L 269.4,94.5 L 269.2,94.6 L 269.5,94.8 L 269.6,94.8 L 269.9,94.8 L 270.0,94.8 L 270.1,95.0 L 270.3,95.1 L 270.4,95.4 L 270.5,95.4 L 270.6,95.0 L 270.6,94.9 L 270.7,94.8 L 270.8,94.7 L 270.8,94.6 L 270.7,94.5 L 270.8,94.5 L 270.9,94.5 L 270.9,94.5 L 270.9,94.4 L 270.9,94.3 L 270.9,94.2 L 270.9,94.2 L 272.9,94.0 L 272.9,94.0 L 272.9,94.0 L 273.0,94.1 L 273.2,94.5 L 273.3,94.6 L 273.5,94.4 L 273.6,94.4 L 273.6,94.5 L 273.6,94.7 L 273.5,94.8 L 273.4,95.0 L 273.4,95.2 L 273.6,95.3 L 273.8,95.4 L 274.1,95.8 L 274.2,96.0 L 274.3,96.2 L 274.3,96.2 L 274.5,96.5 L 275.0,96.6 L 275.3,96.8 L 275.4,96.8 L 275.5,97.0 L 275.7,97.4 L 276.0,97.6 L 276.2,97.7 L 276.4,98.0 L 276.4,98.1 L 276.3,98.1 L 276.2,97.9 L 276.1,97.9 L 276.0,98.0 L 276.0,98.2 L 275.8,98.4 L 275.7,98.1 L 275.6,98.0 L 275.6,97.9 L 275.5,97.7 L 275.2,97.5 L 275.1,97.5 L 275.0,97.6 L 274.9,97.6 L 274.9,97.8 L 275.0,97.9 L 275.1,98.1 L 275.2,98.3 L 275.3,98.5 L 275.4,98.7 L 275.6,98.9 L 275.7,99.0 L 275.7,99.2 L 275.7,99.4 L 275.6,99.3 L 275.4,99.0 L 275.3,99.0 L 275.2,99.1 L 275.2,99.3 L 275.1,99.4 L 275.0,99.4 L 275.0,99.2 L 274.9,99.1 L 274.8,99.1 L 274.7,99.1 L 274.6,99.0 L 274.5,99.0 L 274.4,99.1 L 274.6,99.3 L 274.7,99.5 L 274.7,99.7 L 274.8,99.8 L 275.2,100.0 L 275.1,100.2 L 275.1,100.3 L 275.1,100.4 L 274.9,100.4 L 274.8,100.6 L 274.7,100.8 L 274.8,101.0 L 274.8,101.2 L 274.9,101.4 L 275.1,101.8 L 275.1,102.0 L 274.9,102.2 L 274.8,102.2 L 274.8,102.1 L 274.6,102.1 L 274.4,102.3 L 274.4,102.5 L 274.2,102.6 L 274.1,102.6 L 274.0,102.1 L 274.0,102.0 L 274.1,102.0 L 274.1,101.9 L 273.9,101.9 L 273.9,101.7 L 273.9,101.7 L 274.2,101.7 L 274.4,101.5 L 274.6,101.4 L 274.6,100.9 L 274.6,100.8 L 274.5,100.8 L 274.2,100.1 L 274.1,100.1 L 273.9,100.2 L 273.9,100.3 L 274.0,100.5 L 273.9,100.7 L 273.9,100.7 L 273.8,100.8 L 273.7,100.7 L 273.6,100.7 L 273.5,100.6 L 273.5,100.4 L 273.6,100.3 L 273.5,100.2 L 273.3,100.1 L 273.1,100.1 L 273.1,100.0 L 273.3,99.8 L 273.3,99.7 L 273.3,99.6 L 273.3,99.3 L 273.2,99.1 L 273.0,99.1 L 273.0,98.7 L 272.8,98.5 L 272.7,98.5 L 272.6,98.6 L 272.5,98.6 L 272.1,97.9 L 272.0,97.9 L 272.1,97.7 L 272.0,97.5 L 271.9,97.3 L 271.4,97.2 L 271.3,97.1 L 271.1,97.1 L 270.9,96.9 L 270.7,96.7 L 270.6,96.6 L 270.4,96.5 L 270.2,96.4 L 270.0,96.5 L 269.9,96.4 L 269.6,96.2 L 269.6,96.2 L 269.5,96.3 L 269.5,96.5 L 269.3,96.3 L 269.2,96.3 L 269.3,96.5 L 269.4,96.9 L 269.6,97.0 L 269.7,96.8 L 269.7,96.8 L 269.8,97.0 L 269.9,97.0 L 270.0,97.1 L 270.0,97.3 L 270.0,97.5 L 270.2,97.6 L 270.2,97.6 L 270.4,97.8 L 270.4,98.1 L 270.3,98.5 L 270.3,98.6 L 270.3,98.8 L 270.2,98.8 L 269.9,98.7 L 269.9,98.4 L 269.8,98.3 L 269.6,98.3 L 269.5,98.4 L 269.4,98.3 L 269.3,98.1 L 269.2,98.2 L 269.0,98.2 L 268.5,98.1 L 268.5,97.9 L 268.4,97.7 L 268.0,97.5 L 267.9,97.5 L 268.0,97.9 L 267.9,98.0 L 267.7,97.6 L 267.5,97.5 L 267.4,97.5 L 267.4,97.7 L 267.3,97.7 L 267.1,97.6 L 267.0,97.7 L 266.9,97.7 L 266.9,97.3 L 266.6,97.0 L 266.5,97.0 L 266.3,96.8 L 266.2,96.7 L 266.2,96.7 L 266.1,96.7 L 266.0,96.7 L 265.8,96.5 L 265.4,96.4 L 265.4,96.4 L 265.1,96.4 L 264.7,96.5 L 264.6,96.5 L 264.5,96.4 L 264.4,96.3 L 264.5,96.2 L 264.4,96.1 L 264.3,96.0 L 264.2,96.0 L 264.0,96.1 L 264.0,96.2 L 263.9,96.3 L 263.8,96.5 L 263.8,96.7 L 263.7,96.8 L 263.7,97.0 L 264.0,97.2 L 264.2,97.5 L 264.1,97.7 L 263.9,97.7 L 263.7,97.9 L 263.7,98.1 L 263.7,98.2 L 263.7,98.3 L 263.6,98.5 L 263.6,98.6 L 264.0,98.6 L 264.2,98.7 L 264.2,99.0 L 264.1,99.1 L 263.9,99.1 L 263.6,98.8 L 263.4,98.8 L 263.2,99.0 L 263.0,99.0 L 263.0,99.1 L 262.9,99.4 L 262.6,99.5 L 262.5,99.6 L 262.3,99.7 L 262.1,99.9 L 262.1,100.2 L 262.2,100.3 L 262.1,100.5 L 262.0,100.6 L 262.2,100.8 L 262.1,100.9 L 262.0,101.0 L 262.0,101.1 L 262.0,101.3 L 261.8,101.6 L 261.9,101.7 L 261.9,101.9 L 261.6,102.3 L 261.1,102.4 L 260.9,102.6 L 260.8,102.6 L 260.7,102.4 L 260.6,102.4 L 260.5,102.3 L 260.4,102.2 L 260.3,102.3 L 260.1,102.3 L 259.8,102.5 L 259.7,102.6 L 259.7,102.6 L 259.9,102.7 L 260.0,102.8 L 259.9,102.9 L 259.7,103.0 L 259.5,103.0 L 259.3,103.2 L 259.3,103.4 L 259.3,103.4 L 259.3,103.5 L 259.2,103.6 L 259.3,103.7 L 259.5,103.7 L 259.8,103.5 L 259.8,103.3 L 259.9,103.3 L 260.2,103.5 L 260.3,103.6 L 260.2,103.6 L 260.2,103.8 L 260.6,104.1 L 260.6,104.2 L 260.4,104.2 L 260.1,104.2 L 260.0,104.3 L 259.9,104.2 L 259.7,104.1 L 259.4,104.4 L 259.4,104.6 L 259.4,104.6 L 259.6,104.8 L 259.9,105.0 L 259.9,105.0 L 260.0,105.2 L 260.1,105.2 L 260.2,105.3 L 260.4,105.7 L 260.3,105.8 L 260.3,106.0 L 260.5,106.0 L 260.5,106.1 L 260.7,106.2 L 260.8,106.4 L 260.7,106.5 L 260.7,106.6 L 261.0,106.8 L 261.4,107.2 L 261.4,107.5 L 261.6,107.7 L 261.6,107.9 L 261.6,107.9 L 261.3,107.6 L 261.2,107.5 L 261.0,107.6 L 260.7,107.6 L 260.6,107.7 L 260.6,107.9 L 260.7,108.0 L 260.6,108.1 L 260.9,108.6 L 260.9,108.7 L 260.8,108.8 L 260.9,108.9 L 260.8,109.0 L 260.6,109.0 L 260.4,108.9 L 260.3,108.6 L 260.3,108.5 L 260.4,108.4 L 260.4,108.1 L 260.4,107.9 L 260.1,108.0 L 260.0,108.0 L 260.0,107.7 L 260.1,107.5 L 260.3,107.3 L 260.3,107.1 L 260.4,107.0 L 260.4,106.9 L 260.3,106.8 L 260.3,106.7 L 260.2,106.6 L 260.0,106.6 L 260.1,106.2 L 260.0,105.9 L 259.8,105.6 L 259.6,105.6 L 259.5,105.3 L 259.2,105.1 L 259.2,104.9 L 258.9,104.6 L 258.9,104.4 L 258.7,104.4 L 258.4,104.7 L 258.0,104.5 L 257.9,104.6 L 257.8,104.8 L 257.8,104.9 L 257.5,105.0 L 257.4,105.1 L 257.4,105.3 L 257.6,105.4 L 257.6,105.6 L 257.7,105.9 L 257.8,106.4 L 257.5,106.0 L 257.1,105.4 L 257.0,105.4 L 256.8,105.3 L 256.7,105.3 L 256.7,105.1 L 256.6,105.0 L 256.4,104.9 L 256.0,105.1 L 255.9,105.0 L 255.9,104.8 L 256.0,104.8 L 256.3,104.8 L 256.4,104.6 L 256.4,104.4 L 256.4,104.3 L 256.2,104.2 L 256.2,104.1 L 256.1,104.0 L 256.0,104.1 L 256.0,104.3 L 255.9,104.4 L 255.8,104.4 L 255.6,104.2 L 255.5,104.2 L 255.4,104.3 L 255.4,104.2 L 255.4,104.1 L 255.5,104.0 L 255.5,103.8 L 255.4,103.8 L 255.3,103.8 L 255.1,103.8 L 255.2,103.5 L 255.1,103.5 L 254.6,103.4 L 254.5,103.6 L 254.5,103.7 L 254.7,103.7 L 254.5,103.9 L 254.3,103.9 L 254.2,103.9 L 254.0,103.9 L 254.0,104.1 L 253.9,104.1 L 253.8,104.0 L 253.7,103.9 L 253.5,104.1 L 253.5,104.2 L 253.6,104.3 L 253.3,104.5 L 253.3,104.7 L 253.4,104.7 L 253.3,104.8 L 253.2,105.0 L 253.1,105.1 L 253.1,105.1 L 252.9,105.0 L 252.8,104.9 L 252.9,104.8 L 252.8,104.7 L 252.7,104.8 L 252.6,104.8 L 252.5,104.8 L 252.6,104.9 L 252.6,105.0 L 252.2,105.1 L 252.1,105.1 L 252.1,105.0 L 252.1,104.9 L 251.4,105.1 L 251.1,105.4 L 251.1,105.5 L 251.3,105.8 L 251.2,105.8 L 251.1,106.0 L 250.7,105.9 L 250.6,106.0 L 250.5,106.2 L 250.6,106.3 L 250.5,106.4 L 250.5,106.5 L 250.7,106.5 L 250.9,106.5 L 251.1,106.6 L 251.3,106.6 L 251.7,106.4 L 251.9,106.4 L 252.0,106.3 L 252.2,106.3 L 252.3,106.3 L 252.4,106.4 L 252.2,106.5 L 252.1,106.7 L 252.0,106.6 L 251.7,106.6 L 251.3,106.9 L 251.3,107.1 L 251.1,107.1 L 250.7,107.1 L 250.5,107.2 L 250.5,107.4 L 250.4,107.4 L 250.3,107.6 L 250.1,107.7 L 250.0,108.0 L 249.9,108.1 L 249.9,107.9 L 249.8,107.8 L 249.5,107.6 L 249.4,107.6 L 249.4,107.7 L 249.4,107.7 L 249.2,107.7 L 249.2,107.7 L 249.1,108.0 L 248.9,108.2 L 248.8,108.2 L 248.7,108.3 L 248.6,108.5 L 248.5,108.5 L 248.3,108.5 L 248.2,108.6 L 248.2,108.7 L 248.5,108.7 L 248.5,108.8 L 248.4,108.9 L 248.2,108.9 L 248.0,109.2 L 247.7,109.0 L 247.6,109.0 L 247.5,109.1 L 247.6,109.2 L 247.5,109.4 L 247.3,109.4 L 247.3,109.1 L 247.2,109.1 L 247.1,109.0 L 247.1,109.0 L 247.0,109.0 L 246.9,109.3 L 246.9,109.4 L 246.7,109.2 L 246.6,109.2 L 246.4,109.3 L 246.3,109.3 L 246.3,109.3 L 246.0,109.2 L 245.8,109.2 L 245.8,109.3 L 245.6,109.3 L 245.3,109.3 L 245.3,109.4 L 245.2,109.4 L 245.2,109.4 L 245.2,109.5 L 245.1,109.6 L 245.1,109.7 L 245.0,109.8 L 245.0,109.9 L 244.9,109.9 L 244.9,109.9 L 244.8,109.9 L 244.8,109.9 L 244.7,110.0 L 244.7,110.0 L 244.8,110.1 L 244.8,110.1 L 244.9,110.1 L 244.8,110.1 L 244.8,110.2 L 244.8,110.2 L 244.9,110.3 L 244.9,110.4 L 244.9,110.5 L 244.9,110.6 L 245.0,110.7 L 245.0,110.8 L 245.0,111.0 L 245.1,111.1 L 245.1,111.2 L 245.1,111.3 L 245.2,111.4 L 245.2,111.4 L 245.3,111.4 L 245.3,111.4 L 245.3,111.4 L 245.3,111.3 L 245.2,111.2 L 245.2,111.1 L 245.2,111.0 L 245.1,110.9 L 245.1,110.8 L 245.1,110.7 L 245.0,110.6 L 245.0,110.5 L 245.0,110.4 L 245.0,110.3 L 245.0,110.2 L 245.0,110.1 L 245.0,110.0 L 245.0,110.0 L 245.0,110.0 L 245.2,109.9 L 245.2,109.9 L 245.2,109.8 L 245.2,109.7 L 245.3,109.7 L 245.4,109.7 L 245.4,109.8 L 245.4,109.9 L 245.3,109.9 L 245.4,110.0 L 245.4,110.1 L 245.4,110.1 L 245.4,110.2 L 245.5,110.3 L 245.5,110.4 L 245.6,110.5 L 245.7,110.6 L 245.7,110.6 L 245.7,110.7 L 245.8,110.7 L 245.9,110.8 L 246.0,110.9 L 246.0,111.0 L 246.1,111.0 L 246.1,111.1 L 246.2,111.1 L 246.2,111.0 L 246.7,110.9 L 246.7,111.0 L 246.9,110.9 L 246.9,110.8 L 246.9,110.8 L 247.0,110.8 L 247.1,110.8 L 247.2,110.8 L 247.2,110.8 L 247.2,110.8 L 247.3,110.8 L 247.3,110.8 L 247.3,110.8 L 247.3,110.8 L 247.4,110.8 L 247.5,110.8 L 247.6,110.8 L 247.6,110.8 L 247.8,110.8 L 247.8,110.8 L 247.9,110.7 L 248.0,110.9 L 248.1,110.9 L 248.1,111.1 L 248.1,111.3 L 247.8,111.3 L 247.6,111.3 L 247.4,111.4 L 247.1,111.3 L 246.8,111.5 L 246.6,111.5 L 246.3,111.5 L 246.0,111.6 L 245.9,111.9 L 245.9,111.9 L 245.8,111.8 L 245.6,111.8 L 245.6,111.8 L 245.4,111.8 L 245.3,111.9 L 245.3,112.1 L 245.3,112.2 L 245.1,112.1 L 245.1,111.9 L 244.9,111.9 L 244.7,112.0 L 244.7,112.2 L 244.4,112.3 L 244.2,112.3 L 244.1,112.4 L 244.0,112.6 L 244.2,112.9 L 243.3,113.6 L 232.8,122.1 L 232.7,122.2 L 232.6,122.2 L 232.4,122.2 L 232.3,122.2 L 232.4,122.5 L 232.4,122.5 L 232.0,122.3 L 231.9,122.2 L 231.7,122.2 L 231.5,122.2 L 231.5,122.3 L 231.5,122.3 L 231.6,122.4 L 231.6,122.5 L 231.5,122.6 L 231.4,122.5 L 231.4,122.5 L 231.4,122.6 L 231.5,122.8 L 231.5,122.9 L 231.6,123.1 L 231.7,123.1 L 231.8,123.1 L 231.8,123.1 L 231.9,123.2 L 232.0,123.2 L 231.7,123.2 L 231.5,123.2 L 231.4,123.2 L 231.4,123.4 L 231.5,123.5 L 231.6,123.5 L 231.6,123.6 L 231.5,123.6 L 231.3,123.7 L 231.1,123.7 L 231.1,123.8 L 231.2,124.0 L 231.4,124.1 L 231.5,124.1 L 231.5,124.2 L 231.4,124.2 L 231.3,124.2 L 231.2,124.3 L 231.1,124.3 L 231.0,124.3 L 230.9,124.5 L 230.8,124.5 L 230.7,124.5 L 230.6,124.5 L 230.5,124.5 L 230.4,124.5 L 230.4,124.4 L 230.3,124.3 L 230.1,124.4 L 230.0,124.4 L 230.2,124.6 L 230.1,124.8 L 229.7,125.1 L 229.5,125.1 L 229.4,125.0 L 229.2,124.9 L 229.1,125.0 L 229.0,125.0 L 228.8,125.1 L 228.7,125.2 L 228.5,125.3 L 228.4,125.1 L 228.3,125.1 L 228.2,125.1 L 228.1,125.2 L 228.2,125.3 L 227.8,125.6 L 227.6,125.6 L 227.5,125.6 L 227.5,125.7 L 227.8,125.8 L 227.8,125.9 L 227.9,126.0 L 227.9,126.1 L 227.7,126.1 L 227.5,125.9 L 227.4,125.9 L 227.3,126.0 L 227.3,126.2 L 227.4,126.4 L 227.6,126.5 L 227.7,126.5 L 227.9,126.5 L 228.3,126.5 L 228.5,126.5 L 228.5,126.5 L 228.4,126.7 L 228.4,127.1 L 228.0,127.2 L 228.0,127.4 L 227.9,127.6 L 227.7,127.6 L 227.7,127.6 L 227.7,127.8 L 227.5,127.9 L 227.1,128.1 L 227.0,128.2 L 226.9,128.5 L 226.6,128.4 L 226.6,128.4 L 226.5,128.6 L 226.7,128.7 L 226.6,129.0 L 226.4,129.1 L 226.1,129.2 L 225.9,129.1 L 225.6,129.0 L 225.4,128.9 L 225.2,129.0 L 225.2,129.2 L 225.1,129.4 L 225.0,129.2 L 225.0,129.1 L 224.8,129.1 L 224.7,129.3 L 224.6,129.3 L 224.5,129.2 L 224.5,128.9 L 224.3,128.8 L 224.2,128.8 L 224.3,128.6 L 224.5,128.5 L 224.5,128.5 L 224.4,128.4 L 224.2,128.4 L 224.1,128.4 L 224.0,128.3 L 224.0,128.2 L 223.9,128.1 L 223.8,128.1 L 223.7,128.2 L 223.6,128.3 L 223.7,128.4 L 223.8,128.5 L 223.8,128.7 L 223.9,128.7 L 224.0,128.8 L 224.0,128.8 L 224.0,129.0 L 224.0,129.1 L 223.9,129.2 L 223.8,129.2 L 223.7,129.1 L 223.6,129.1 L 223.5,129.2 L 223.4,129.2 L 223.3,129.1 L 223.3,129.0 L 223.2,129.1 L 223.1,129.3 L 223.1,129.4 L 222.8,129.3 L 222.8,129.3 L 222.9,129.1 L 222.8,129.0 L 222.7,129.0 L 222.6,128.9 L 222.5,129.0 L 222.4,129.2 L 222.3,129.2 L 222.2,129.3 L 222.0,129.4 L 222.0,129.5 L 221.9,129.6 L 221.6,129.6 L 221.5,129.6 L 220.9,129.6 L 220.9,129.6 L 220.8,129.8 L 220.7,129.9 L 220.6,130.0 L 220.4,130.0 L 220.4,130.0 L 220.2,129.9 L 220.1,129.9 L 220.0,129.9 L 220.0,129.9 L 220.0,130.0 L 220.1,130.1 L 220.2,130.1 L 220.4,130.1 L 220.3,130.3 L 220.2,130.5 L 220.4,130.7 L 220.2,130.8 L 220.2,130.8 L 219.8,130.8 L 219.7,130.8 L 219.6,130.9 L 219.7,131.1 L 219.6,131.1 L 219.7,131.3 L 220.0,131.3 L 220.1,131.3 L 220.3,131.2 L 220.4,131.0 L 220.6,131.0 L 220.6,131.3 L 220.8,131.3 L 220.8,131.5 L 220.9,131.6 L 220.9,131.6 L 220.4,131.6 L 220.3,131.7 L 220.4,131.8 L 220.7,131.8 L 220.7,131.9 L 220.6,132.0 L 220.3,132.0 L 220.1,132.1 L 220.3,132.2 L 220.6,132.3 L 221.1,132.3 L 221.2,132.3 L 221.2,132.5 L 221.4,132.6 L 221.7,132.7 L 221.8,132.8 L 221.7,132.9 L 221.2,133.0 L 220.9,133.1 L 220.4,133.2 L 220.1,133.3 L 219.9,133.3 L 219.8,133.4 L 219.6,133.5 L 219.5,133.6 L 219.7,133.7 L 219.7,133.7 L 219.7,133.9 L 219.7,134.1 L 219.4,134.1 L 219.5,134.4 L 219.5,134.4 L 219.3,134.4 L 219.2,134.5 L 219.1,134.7 L 219.0,134.7 L 218.9,134.3 L 218.8,134.3 L 218.8,134.5 L 218.7,134.6 L 218.7,134.6 L 218.5,134.8 L 218.4,134.8 L 218.4,135.0 L 218.4,135.3 L 218.5,135.5 L 218.7,135.7 L 218.9,135.7 L 219.0,135.7 L 219.2,135.8 L 219.3,135.8 L 219.5,135.7 L 219.7,135.6 L 219.7,135.6 L 219.9,135.7 L 220.0,135.9 L 220.3,136.0 L 220.4,136.1 L 220.4,136.2 L 220.5,136.2 L 220.6,136.2 L 221.0,136.2 L 221.0,136.1 L 221.0,136.0 L 221.0,135.9 L 221.1,136.0 L 221.2,136.1 L 221.1,136.1 L 221.2,136.1 L 221.3,136.0 L 221.2,135.9 L 221.2,135.8 L 221.3,135.7 L 221.4,135.6 L 221.5,135.6 L 221.6,135.7 L 221.6,135.9 L 221.9,135.9 L 221.9,135.9 L 221.9,136.0 L 221.8,136.2 L 221.5,136.4 L 221.5,136.5 L 221.7,137.0 L 221.9,137.0 L 222.0,136.9 L 221.9,136.9 L 221.9,136.8 L 221.9,136.8 L 222.1,136.8 L 222.2,136.8 L 222.2,136.9 L 222.4,137.0 L 222.3,137.1 L 222.3,137.1 L 222.5,137.1 L 223.0,136.9 L 223.0,136.8 L 223.2,136.7 L 223.3,136.7 L 223.4,136.6 L 223.5,136.6 L 223.9,136.6 L 224.5,136.5 L 224.8,136.5 L 224.9,136.3 L 224.9,136.0 L 224.9,135.9 L 224.9,135.7 L 225.0,135.7 L 225.0,135.7 L 225.1,135.9 L 225.1,136.1 L 225.3,136.2 L 225.7,136.2 L 225.9,136.2 L 226.1,136.1 L 226.3,136.0 L 226.4,135.9 L 226.4,135.7 L 226.4,135.7 L 226.6,136.0 L 226.6,136.2 L 227.0,136.1 L 227.2,136.2 L 227.3,136.2 L 227.5,136.1 L 227.8,136.1 L 227.9,136.3 L 227.9,136.7 L 228.0,136.8 L 228.3,136.8 L 228.5,136.6 L 228.6,136.6 L 228.8,136.6 L 228.8,136.6 L 228.8,136.7 L 228.6,136.8 L 228.5,136.9 L 228.3,137.0 L 228.2,137.0 L 227.7,137.1 L 227.6,137.0 L 227.3,137.0 L 227.3,137.1 L 227.1,137.2 L 226.8,137.2 L 226.4,137.4 L 226.3,137.4 L 226.2,137.7 L 226.1,137.7 L 226.1,137.8 L 226.1,137.9 L 226.3,137.9 L 226.2,138.1 L 226.3,138.2 L 226.7,138.2 L 226.9,138.2 L 227.1,138.3 L 227.3,138.3 L 227.5,138.3 L 227.7,138.1 L 227.7,137.9 L 227.8,137.8 L 228.1,137.7 L 228.2,137.5 L 228.2,137.4 L 228.3,137.5 L 228.5,137.5 L 228.9,137.4 L 229.1,137.2 L 229.2,137.4 L 229.4,137.4 L 229.5,137.4 L 230.0,137.3 L 229.9,137.5 L 229.6,137.6 L 229.5,137.7 L 229.5,137.9 L 229.6,137.9 L 229.8,137.8 L 230.1,137.6 L 230.2,137.5 L 230.5,137.5 L 230.5,137.4 L 230.5,137.3 L 231.5,138.5 L 231.5,138.5 L 231.5,138.6 L 231.6,138.6 L 231.6,138.6 L 231.7,138.7 L 231.6,138.7 L 231.4,138.7 L 231.0,138.7 L 230.9,138.8 L 230.8,138.8 L 230.7,138.9 L 230.7,139.1 L 230.5,139.3 L 230.4,139.4 L 230.2,139.5 L 230.3,139.7 L 230.0,140.1 L 229.9,140.2 L 229.6,140.4 L 229.5,140.5 L 229.6,140.6 L 229.7,140.6 L 229.8,140.5 L 229.8,140.4 L 229.9,140.4 L 230.3,140.4 L 230.6,140.4 L 231.1,140.0 L 231.2,140.0 L 231.4,140.0 L 231.7,140.0 L 231.8,139.8 L 231.8,139.8 L 231.7,139.6 L 231.8,139.5 L 231.9,139.7 L 231.9,139.8 L 232.0,140.0 L 232.3,140.0 L 244.4,149.3 L 248.8,152.8 L 259.3,161.0 L 259.5,161.1 L 259.4,161.5 L 259.4,161.7 L 259.5,161.7 L 259.6,161.6 L 259.7,161.3 L 259.8,161.4 L 259.9,161.6 L 259.9,161.7 L 260.0,161.7 L 260.1,161.7 L 260.3,161.7 L 260.3,161.8 L 260.2,162.0 L 260.2,162.2 L 260.2,162.3 L 260.6,162.4 L 260.6,162.5 L 260.4,162.6 L 260.0,162.9 L 259.7,163.3 L 259.6,163.5 L 259.7,163.7 L 259.7,163.9 L 259.7,164.0 L 259.8,164.1 L 259.9,164.2 L 260.2,164.2 L 260.5,164.1 L 260.9,163.9 L 261.4,163.9 L 261.7,163.7 L 261.8,163.6 L 262.3,164.7 L 262.3,164.7 L 261.8,164.9 L 261.6,165.1 L 261.6,165.2 L 261.8,165.2 L 261.8,165.3 L 262.5,165.5 L 262.9,165.5 L 263.2,165.3 L 263.2,165.2 L 263.3,165.1 L 263.3,165.2 L 263.3,165.3 L 263.6,165.4 L 263.9,165.4 L 264.3,165.4 L 264.9,165.4 L 265.1,165.3 L 265.1,165.2 L 268.2,168.1 L 268.1,168.2 L 268.1,168.3 L 268.1,168.3 L 268.1,168.5 L 268.2,168.5 L 268.2,168.3 L 268.3,168.2 L 268.2,168.2 L 268.5,168.4 L 268.4,168.4 L 268.4,168.4 L 268.3,168.6 L 268.4,168.7 L 268.6,168.8 L 268.7,168.7 L 268.7,168.6 L 275.0,174.5 L 275.0,174.5 L 274.9,174.5 L 274.8,174.5 L 274.9,174.8 L 274.9,174.9 L 274.7,175.1 L 274.4,175.3 L 274.3,175.4 L 274.2,175.5 L 273.8,175.7 L 273.3,175.7 L 273.1,175.6 L 272.9,175.8 L 272.7,175.7 L 272.6,175.9 L 272.2,175.8 L 272.1,175.9 L 272.2,176.0 L 272.1,176.2 L 272.1,176.2 L 272.0,176.5 L 271.9,176.7 L 271.6,176.7 L 271.6,176.8 L 271.6,176.9 L 271.9,177.0 L 272.2,177.0 L 272.4,176.9 L 272.7,176.7 L 273.0,176.6 L 273.2,176.6 L 273.4,176.5 L 274.0,176.5 L 274.1,176.4 L 274.4,176.2 L 274.3,176.1 L 274.1,176.2 L 274.0,176.1 L 274.1,176.0 L 274.2,176.0 L 274.4,175.9 L 274.7,175.9 L 283.5,183.7 L 292.9,191.9 L 294.1,193.0 L 294.0,193.1 L 294.0,193.2 L 294.2,193.2 L 293.6,193.7 L 293.5,193.8 L 293.4,193.9 L 293.6,194.0 L 293.9,194.1 L 294.0,194.1 L 294.0,194.3 L 294.4,194.5 L 294.6,194.6 L 294.7,194.7 L 294.8,194.8 L 294.8,195.0 L 294.9,195.2 L 294.9,195.2 L 295.0,195.2 L 295.0,195.3 L 295.1,195.5 L 295.0,195.6 L 295.1,195.7 L 295.6,195.7 L 295.6,195.7 L 295.5,195.8 L 295.4,195.9 L 295.6,196.0 L 295.5,196.0 L 295.4,196.1 L 295.5,196.2 L 295.7,196.4 L 295.9,196.4 L 296.1,196.3 L 296.1,196.1 L 295.9,195.9 L 295.9,195.9 L 296.1,196.0 L 296.4,196.3 L 296.4,196.3 L 296.5,196.5 L 296.3,196.7 L 296.1,196.8 L 296.0,197.0 L 296.0,197.1 L 296.1,197.4 L 296.2,197.4 L 296.2,197.1 L 296.3,197.0 L 296.4,197.1 L 296.5,197.3 L 296.6,197.4 L 296.8,197.8 L 296.9,197.9 L 297.1,197.9 L 297.4,197.6 L 297.8,197.6 L 298.1,197.5 L 298.2,197.5 L 298.3,197.6 L 298.4,197.7 L 298.4,197.7 L 298.2,197.9 L 298.2,198.1 L 297.9,198.3 L 297.8,198.4 L 297.7,198.4 L 297.8,198.5 L 297.9,198.5 L 298.1,198.5 L 298.2,198.5 L 298.0,198.8 L 298.0,198.9 L 298.3,199.2 L 298.4,199.2 L 299.1,199.0 L 299.0,199.2 L 298.9,199.2 L 298.9,199.4 L 298.9,199.5 L 298.9,199.6 L 299.5,199.9 L 299.6,200.1 L 299.7,200.0 L 299.8,200.1 L 299.7,200.2 L 299.3,200.3 L 299.1,200.5 L 299.0,200.7 L 299.1,200.8 L 299.2,200.9 L 299.3,200.9 L 299.8,200.7 L 300.0,200.6 L 300.0,200.6 L 300.4,200.7 L 300.5,200.8 L 300.3,200.9 L 300.3,201.0 L 300.6,202.0 L 300.9,202.3 L 301.0,202.3 L 301.1,202.2 L 300.9,201.9 L 300.7,201.8 L 300.7,201.6 L 300.6,201.5 L 300.6,201.5 L 300.7,201.5 L 300.9,201.6 L 301.0,201.6 L 301.6,201.3 L 301.6,201.6 L 301.7,201.9 L 302.0,202.1 L 302.2,202.3 L 302.7,202.6 L 303.1,202.7 L 303.3,202.9 L 303.2,203.3 L 303.4,203.5 L 303.3,203.6 L 303.3,203.6 L 303.4,203.7 L 303.7,203.8 L 303.7,203.9 L 304.2,231.1 L 304.8,264.9 L 304.8,264.9 L 304.7,265.0 L 304.3,265.1 L 304.0,265.3 L 303.9,265.3 L 303.6,265.4 L 303.5,265.4 L 303.1,265.7 L 302.9,265.7 L 302.7,265.8 L 302.5,265.9 L 302.5,266.1 L 302.3,266.2 L 302.2,266.3 L 302.1,266.2 L 301.8,266.2 L 301.8,266.1 L 301.7,266.1 L 301.7,266.3 L 301.6,266.6 L 301.4,266.8 L 301.3,267.1 L 301.4,267.4 L 301.4,267.5 L 301.1,267.7 L 301.0,267.9 L 301.1,268.3 L 301.2,268.4 L 301.3,268.4 L 301.5,268.6 L 301.5,268.7 L 301.4,268.9 L 301.3,268.9 L 301.2,268.8 L 301.0,268.8 L 300.8,268.9 L 300.8,269.0 L 300.8,269.2 L 301.0,269.3 L 301.1,269.5 L 301.3,269.7 L 301.4,269.7 L 301.5,269.9 L 301.7,270.0 L 301.6,270.3 L 301.6,270.4 L 301.7,270.3 L 301.8,270.1 L 302.0,270.2 L 302.1,270.3 L 301.9,270.4 L 301.6,270.6 L 301.4,270.4 L 301.4,270.3 L 301.3,270.3 L 300.6,270.5 L 300.5,270.5 L 300.1,270.5 L 300.0,270.4 L 299.9,270.4 L 299.7,270.6 L 299.8,270.7 L 299.7,270.8 L 299.7,271.1 L 299.8,271.2 L 299.9,271.3 L 300.0,271.3 L 299.9,271.3 L 283.5,280.9 L 280.4,282.7 L 280.4,282.5 L 280.4,282.4 L 280.2,282.4 L 280.0,282.4 L 279.9,282.4 L 279.8,282.5 L 279.9,282.6 L 280.0,282.9 L 280.0,282.9 L 278.5,283.8 L 278.5,283.8 L 278.4,283.8 L 278.1,283.8 L 278.0,283.9 L 277.9,284.5 L 277.9,284.7 L 278.0,284.7 L 278.2,284.8 L 278.3,284.9 L 278.2,285.0 L 278.4,285.4 L 278.3,285.5 L 278.2,285.6 L 278.0,285.7 L 278.0,285.8 L 278.0,285.9 L 277.8,286.2 L 277.7,286.3 L 277.7,286.5 L 277.4,286.7 L 277.1,287.0 L 277.0,287.0 L 277.1,286.3 L 277.3,286.1 L 277.2,285.9 L 276.8,285.8 L 276.8,285.7 L 276.8,285.6 L 277.0,285.5 L 277.0,285.3 L 276.8,285.1 L 276.6,284.9 L 276.6,284.8 L 276.5,284.8 L 276.5,284.8 L 276.5,285.0 L 276.5,285.1 L 276.4,285.2 L 276.0,284.7 L 275.8,284.6 L 275.6,284.8 L 275.3,284.9 L 275.2,284.9 L 275.1,284.8 L 275.0,284.8 L 274.8,284.9 L 274.8,285.0 L 274.8,285.2 L 274.8,285.4 L 274.8,285.5 L 274.7,285.6 L 274.9,286.0 L 274.8,286.2 L 274.8,286.5 L 274.9,286.7 L 275.0,286.9 L 275.4,287.2 L 275.7,287.3 L 275.8,287.5 L 275.8,287.6 L 275.8,287.7 L 276.0,288.0 L 276.5,288.3 L 276.6,288.4 L 276.5,288.5 L 276.4,288.6 L 276.5,288.8 L 276.7,289.0 L 276.9,289.0 L 276.9,289.1 L 277.0,289.1 L 277.0,289.1 L 276.9,289.2 L 276.6,289.3 L 276.5,289.3 L 276.4,289.4 L 276.4,289.4 L 276.3,289.3 L 276.2,289.1 L 276.1,289.0 L 275.8,289.0 L 275.8,288.8 L 275.8,288.7 L 275.4,288.6 L 275.3,288.4 L 275.1,288.3 L 275.1,288.3 L 275.2,288.7 L 275.2,289.0 L 275.2,289.1 L 274.9,289.1 L 274.7,289.1 L 274.5,289.1 L 274.0,288.8 L 273.8,288.6 L 273.7,288.5 L 273.8,288.4 L 273.9,288.4 L 273.9,288.3 L 273.7,288.1 L 272.9,287.7 L 272.4,287.3 L 272.3,287.4 L 272.3,287.5 L 272.1,287.6 L 271.9,287.5 L 271.8,287.5 L 271.8,287.4 L 271.9,287.2 L 272.0,287.1 L 271.9,287.0 L 271.9,287.0 L 271.6,286.9 L 271.2,286.5 L 271.3,286.4 L 271.1,286.1 L 270.8,285.9 L 270.6,285.8 L 270.3,286.0 L 270.3,286.2 L 270.1,286.3 L 269.8,286.1 L 269.6,285.8 L 269.4,285.7 L 269.1,285.7 L 269.0,285.9 L 269.0,286.0 L 269.3,286.3 L 269.3,286.4 L 269.2,286.5 L 268.9,286.4 L 268.8,286.5 L 268.8,286.7 L 268.7,286.8 L 268.6,286.7 L 268.2,286.6 L 268.0,286.7 L 268.0,286.8 L 268.0,287.0 L 268.2,287.1 L 268.2,287.2 L 268.0,287.3 L 267.9,287.3 L 267.7,287.5 L 267.4,287.5 L 267.4,287.5 L 267.5,288.3 L 267.6,288.4 L 267.8,288.3 L 267.9,288.4 L 268.2,288.1 L 268.3,288.2 L 268.5,288.2 L 268.8,288.1 L 268.9,288.1 L 269.2,287.9 L 269.4,287.9 L 269.7,287.8 L 269.8,287.8 L 269.8,287.9 L 269.8,288.0 L 269.3,288.3 L 269.3,288.4 L 269.3,288.7 L 269.6,289.1 L 269.9,289.4 L 270.1,289.4 L 270.3,289.3 L 270.4,289.3 L 270.4,289.4 L 270.6,289.6 L 271.2,289.6 L 271.5,289.5 L 271.7,289.6 L 271.7,289.6 L 271.7,289.9 L 271.8,290.1 L 272.0,290.1 L 272.1,290.2 L 272.1,290.4 L 272.1,290.5 L 272.4,290.6 L 273.1,290.4 L 273.9,290.2 L 273.9,290.2 L 273.9,290.3 L 273.4,290.7 L 273.2,290.9 L 273.2,291.2 L 272.9,291.5 L 273.0,291.6 L 273.3,291.6 L 273.3,291.6 L 272.2,296.5 L 272.0,296.5 L 271.8,296.5 L 271.4,296.8 L 271.2,296.8 L 271.0,296.9 L 271.0,296.9 L 270.7,296.9 L 270.5,296.9 L 270.4,296.9 L 270.3,296.9 L 270.2,297.1 L 270.1,297.2 L 269.9,297.3 L 269.6,297.2 L 269.6,297.1 L 269.4,297.0 L 269.2,297.2 L 269.2,297.2 L 269.3,297.3 L 269.4,297.4 L 269.3,297.4 L 268.8,297.6 L 268.7,297.7 L 268.5,297.9 L 268.3,297.9 L 267.9,298.1 L 267.8,298.0 L 267.7,298.1 L 267.5,298.1 L 267.6,297.8 L 267.5,297.7 L 267.7,297.2 L 267.7,297.0 L 267.5,297.0 L 266.9,297.2 L 266.7,297.5 L 266.7,297.6 L 266.6,297.8 L 266.5,297.9 L 266.4,298.0 L 266.2,297.8 L 266.1,297.8 L 266.1,297.9 L 266.2,298.1 L 266.4,298.2 L 266.4,298.3 L 266.4,298.4 L 266.8,298.4 L 267.2,298.3 L 267.3,298.4 L 267.6,298.5 L 267.8,298.3 L 268.0,298.3 L 268.2,298.3 L 268.7,298.0 L 268.9,298.0 L 269.4,298.1 L 268.9,298.3 L 268.4,298.5 L 268.1,298.7 L 268.0,298.9 L 267.9,299.3 L 267.9,299.3 L 267.7,299.1 L 267.5,298.9 L 266.9,298.8 L 266.7,298.9 L 266.2,299.1 L 265.8,299.5 L 265.6,299.7 L 265.5,299.8 L 265.5,300.0 L 265.5,300.0 L 258.9,302.4 L 258.8,302.2 L 258.1,301.9 L 258.0,301.9 L 258.1,302.0 L 258.0,302.0 L 257.4,302.1 L 257.1,302.1 L 256.8,302.2 L 256.6,302.1 L 256.4,302.1 L 255.7,302.1 L 255.4,302.1 L 255.3,302.3 L 255.2,302.9 L 255.2,303.0 L 255.6,303.0 L 255.7,303.2 L 255.6,303.6 L 255.7,303.7 L 255.7,303.7 L 254.4,304.8 L 254.4,304.8 L 254.1,304.7 L 253.7,304.7 L 253.4,304.4 L 253.3,304.4 L 253.0,304.3 L 252.9,304.2 L 252.8,304.0 L 252.7,304.0 L 252.7,304.1 L 252.5,304.2 L 252.5,304.2 L 252.3,304.4 L 252.3,304.6 L 252.1,304.7 L 252.3,304.8 L 252.4,304.9 L 252.2,305.0 L 251.6,304.8 L 251.4,304.8 L 251.1,304.8 L 250.4,305.3 L 250.4,305.4 L 250.3,305.5 L 250.5,305.8 L 250.5,306.0 L 250.6,306.3 L 251.3,306.9 L 248.0,309.5 L 244.5,312.3 L 244.5,312.4 L 244.5,312.2 L 244.4,312.0 L 244.2,312.0 L 244.0,312.1 L 243.9,312.1 L 243.7,312.2 L 243.6,312.3 L 243.5,312.3 L 243.5,312.3 L 243.5,311.9 L 243.7,311.9 L 243.9,311.7 L 244.0,311.6 L 244.0,311.5 L 243.6,311.4 L 243.5,311.5 L 243.4,311.5 L 243.3,311.3 L 243.2,311.3 L 243.2,311.2 L 243.1,311.0 L 243.1,311.0 L 242.9,311.1 L 243.1,311.4 L 243.2,311.6 L 243.2,311.7 L 242.9,311.9 L 242.8,312.0 L 242.9,312.1 L 243.0,312.3 L 243.1,312.3 L 243.2,312.2 L 243.3,312.2 L 243.3,312.3 L 243.1,312.3 L 243.0,312.5 L 242.8,312.5 L 242.7,312.6 L 242.4,312.6 L 242.4,312.5 L 242.7,312.1 L 242.7,312.0 L 242.5,311.7 L 242.6,311.5 L 242.5,311.5 L 242.3,311.5 L 242.3,311.3 L 242.2,311.3 L 242.2,311.2 L 242.2,311.1 L 242.0,311.0 L 241.8,311.2 L 241.7,311.3 L 241.6,311.2 L 241.6,311.0 L 241.5,310.9 L 241.1,310.9 L 240.9,311.0 L 240.9,311.4 L 241.0,311.4 L 241.1,311.6 L 241.0,311.7 L 240.9,311.8 L 240.9,311.9 L 241.0,312.1 L 241.0,312.4 L 241.0,312.7 L 241.1,312.8 L 241.2,312.8 L 241.3,312.7 L 241.4,312.6 L 241.4,312.6 L 241.5,312.8 L 241.4,312.9 L 241.3,313.1 L 241.2,313.2 L 241.1,313.3 L 241.1,313.6 L 241.1,313.8 L 241.3,314.3 L 241.4,314.4 L 241.5,314.6 L 241.5,314.6 L 241.3,314.7 L 241.2,314.6 L 241.1,314.5 L 241.1,314.3 L 241.0,314.2 L 240.9,314.0 L 241.0,313.9 L 240.8,313.6 L 240.7,313.3 L 240.7,313.2 L 240.6,313.2 L 240.5,313.0 L 240.3,312.9 L 240.0,311.9 L 239.9,311.8 L 239.8,311.4 L 239.6,311.1 L 239.5,310.9 L 239.3,310.6 L 239.2,310.5 L 238.9,310.5 L 238.3,310.7 L 238.0,310.7 L 237.8,310.8 L 237.6,311.0 L 237.7,311.4 L 237.7,311.7 L 237.7,312.1 L 237.7,312.3 L 237.7,312.5 L 237.8,312.7 L 238.0,313.1 L 238.1,313.2 L 238.1,313.5 L 238.3,314.2 L 238.3,314.3 L 238.2,314.2 L 238.1,314.1 L 238.1,313.9 L 237.9,313.7 L 237.6,313.4 L 237.2,313.2 L 237.2,312.8 L 237.0,312.6 L 237.0,312.4 L 236.5,312.0 L 236.2,312.0 L 236.0,312.0 L 235.8,312.2 L 235.5,312.4 L 235.2,312.5 L 235.0,312.7 L 234.9,312.9 L 234.9,313.0 L 234.9,313.1 L 234.8,313.1 L 234.4,312.9 L 234.2,312.9 L 234.0,312.9 L 233.8,313.0 L 233.8,313.2 L 233.9,313.5 L 234.1,313.5 L 234.1,313.6 L 233.9,313.5 L 233.9,313.5 L 233.7,313.7 L 233.7,314.0 L 233.6,314.0 L 233.6,314.0 L 233.5,313.9 L 233.0,313.7 L 232.4,313.6 L 232.3,313.7 L 232.3,313.8 L 232.5,314.1 L 232.8,314.3 L 232.8,314.4 L 232.5,314.4 L 232.4,314.6 L 232.3,314.6 L 232.0,314.4 L 231.8,314.1 L 231.4,313.9 L 231.1,313.9 L 231.0,313.8 L 230.8,314.0 L 230.3,314.3 L 230.1,314.3 L 230.1,314.3 L 229.9,314.5 L 229.8,315.0 L 229.8,315.0 L 229.9,315.1 L 229.8,315.2 L 229.7,315.2 L 229.5,315.2 L 229.3,315.6 L 229.3,315.9 L 229.2,316.0 L 229.2,316.1 L 229.2,316.2 L 229.3,316.2 L 229.4,316.2 L 229.3,316.5 L 229.2,316.5 L 229.0,316.6 L 228.8,316.7 L 228.8,316.9 L 228.9,317.1 L 228.8,317.4 L 228.9,317.8 L 228.7,317.8 L 228.6,317.8 L 228.4,318.1 L 228.4,318.3 L 228.6,318.6 L 228.6,318.7 L 228.7,318.8 L 228.7,319.0 L 228.8,318.9 L 228.9,318.7 L 229.0,318.8 L 229.0,319.1 L 228.9,319.2 L 228.8,319.6 L 228.7,319.6 L 228.5,319.1 L 228.3,319.0 L 228.0,319.2 L 227.9,319.1 L 227.7,319.2 L 227.7,319.3 L 227.7,319.4 L 227.9,319.4 L 227.9,319.7 L 227.9,319.8 L 228.1,319.9 L 228.2,320.1 L 228.5,320.2 L 228.6,320.1 L 228.7,320.0 L 228.8,320.0 L 228.8,320.1 L 228.7,320.2 L 228.7,320.3 L 228.9,320.4 L 228.9,320.5 L 228.9,320.5 L 228.7,320.6 L 228.6,320.6 L 228.3,320.4 L 227.9,320.3 L 227.8,320.4 L 227.7,320.6 L 227.6,320.7 L 227.6,320.9 L 227.5,320.9 L 227.4,321.1 L 227.4,321.1 L 227.5,321.4 L 227.6,321.6 L 227.6,321.8 L 227.4,321.9 L 227.1,322.2 L 227.1,322.3 L 227.2,322.4 L 227.4,322.6 L 227.3,322.9 L 227.4,323.2 L 227.5,323.5 L 227.7,323.7 L 227.9,323.7 L 228.1,323.9 L 228.3,323.8 L 228.7,323.3 L 228.7,323.1 L 228.6,322.8 L 228.8,322.5 L 228.8,322.3 L 228.8,322.0 L 229.0,321.8 L 229.2,321.6 L 229.9,321.2 L 230.0,321.2 L 229.9,321.3 L 229.8,321.5 L 229.7,321.6 L 229.9,321.6 L 229.8,322.0 L 229.6,322.4 L 229.7,322.5 L 229.6,322.7 L 229.4,322.9 L 229.4,323.1 L 229.3,323.1 L 229.2,323.7 L 229.3,324.0 L 229.4,324.3 L 229.5,324.5 L 229.7,324.6 L 229.9,324.9 L 230.0,325.0 L 230.0,325.0 L 229.9,325.1 L 229.8,325.1 L 229.4,324.9 L 229.3,324.8 L 229.2,324.9 L 229.2,325.0 L 229.2,325.3 L 229.4,325.4 L 229.4,325.4 L 229.6,325.7 L 229.7,325.9 L 229.8,326.0 L 229.8,325.9 L 229.9,325.7 L 230.0,325.6 L 230.1,325.7 L 230.1,326.0 L 230.4,326.3 L 230.6,326.3 L 230.7,326.4 L 230.5,326.5 L 230.1,326.5 L 230.0,326.6 L 230.3,326.9 L 230.3,327.2 L 230.3,327.6 L 230.4,327.8 L 230.5,327.9 L 230.5,328.1 L 230.3,328.2 L 229.8,328.3 L 229.6,328.2 L 229.5,328.1 L 229.4,328.2 L 229.3,328.5 L 229.2,328.7 L 229.1,328.8 L 229.2,329.0 L 229.1,329.2 L 228.7,329.5 L 228.6,329.7 L 228.4,329.9 L 228.3,329.9 L 228.2,330.1 L 228.1,330.4 L 228.2,330.5 L 228.4,330.5 L 210.8,336.8 L 210.4,337.0 L 210.4,337.0 L 210.3,336.7 L 210.2,336.5 L 210.2,336.4 L 210.0,336.0 L 209.9,335.8 L 209.9,335.6 L 209.7,335.2 L 209.6,335.1 L 209.5,335.0 L 209.5,334.5 L 209.6,334.3 L 209.6,334.1 L 209.5,334.0 L 209.3,334.0 L 209.2,334.1 L 209.0,334.2 L 208.9,334.2 L 208.9,334.2 L 208.7,334.1 L 208.4,334.3 L 208.2,334.2 L 208.2,334.0 L 207.8,334.2 L 207.7,334.2 L 207.5,334.1 L 207.4,334.1 L 207.4,334.0 L 207.3,333.7 L 207.2,333.5 L 207.2,333.2 L 207.2,333.0 L 207.1,333.0 L 206.8,332.9 L 206.7,332.9 L 206.6,333.0 L 206.3,332.7 L 206.3,332.7 L 206.2,332.7 L 206.2,332.9 L 206.1,333.1 L 206.0,332.6 L 205.9,332.5 L 205.8,332.6 L 205.6,332.9 L 205.6,333.0 L 205.4,333.0 L 204.7,332.7 L 204.2,332.6 L 204.0,332.5 L 203.9,332.3 L 203.7,332.2 L 203.5,332.1 L 203.5,332.0 L 203.5,331.3 L 203.4,331.1 L 203.2,331.1 L 203.1,331.1 L 203.0,331.0 L 202.9,331.0 L 202.6,331.2 L 202.5,331.3 L 202.4,331.2 L 202.3,331.1 L 202.6,330.8 L 202.7,330.7 L 203.0,330.2 L 203.2,330.0 L 203.3,329.8 L 203.4,329.5 L 203.4,329.4 L 203.3,329.4 L 203.1,329.4 L 203.1,329.4 L 203.1,328.9 L 203.1,328.6 L 203.3,328.2 L 203.3,328.0 L 203.4,327.8 L 203.3,327.8 L 202.9,328.2 L 202.9,328.5 L 202.6,328.8 L 202.5,329.1 L 202.3,329.2 L 202.0,329.5 L 202.0,329.6 L 201.8,329.9 L 201.9,330.0 L 201.8,330.1 L 201.7,330.4 L 201.5,330.5 L 201.1,330.4 L 200.9,330.2 L 200.8,330.4 L 200.7,330.5 L 200.6,330.6 L 200.5,330.6 L 200.4,330.7 L 200.1,330.9 L 199.6,330.8 L 199.4,330.5 L 199.2,330.3 L 199.1,330.1 L 199.1,330.0 L 198.8,329.9 L 198.8,329.8 L 198.8,329.7 L 198.7,329.0 L 198.7,328.9 L 198.7,328.9 L 198.7,328.8 L 198.6,328.7 L 198.7,328.4 L 198.6,328.3 L 198.5,328.2 L 197.8,329.0 L 197.7,329.2 L 197.5,329.3 L 197.3,329.4 L 197.1,329.5 L 196.9,329.7 L 196.9,329.8 L 196.8,329.9 L 196.7,330.1 L 196.6,330.2 L 196.5,330.2 L 196.4,330.0 L 196.5,329.9 L 196.4,329.7 L 195.7,329.7 L 195.5,329.8 L 195.4,329.6 L 195.2,329.6 L 195.1,329.6 L 194.8,329.8 L 194.8,329.9 L 194.7,330.0 L 194.6,329.8 L 194.4,329.8 L 194.3,329.8 L 194.1,330.5 L 194.2,330.7 L 194.1,330.9 L 194.3,331.1 L 194.3,331.2 L 194.3,331.3 L 194.4,331.4 L 194.5,331.5 L 194.4,331.6 L 194.3,332.1 L 194.1,332.3 L 194.0,332.5 L 193.9,332.8 L 194.0,333.1 L 193.6,333.6 L 193.5,333.8 L 193.4,334.1 L 193.3,334.3 L 193.4,334.8 L 193.6,335.1 L 193.6,335.3 L 193.7,335.4 L 193.7,335.9 L 193.7,336.1 L 193.5,336.2 L 193.5,336.3 L 193.7,336.6 L 193.9,337.4 L 193.8,337.8 L 194.0,337.9 L 194.1,338.1 L 194.1,338.2 L 193.8,338.6 L 193.9,339.1 L 194.0,339.3 L 194.1,339.5 L 194.4,339.6 L 194.9,340.2 L 195.2,340.5 L 195.5,340.8 L 195.6,341.2 L 195.6,341.4 L 195.5,341.5 L 195.5,341.8 L 195.2,342.0 L 195.1,342.2 L 194.9,342.2 L 194.8,342.3 L 194.8,342.5 L 194.6,342.7 L 194.6,342.9 L 194.7,343.1 L 194.8,343.3 L 195.0,343.5 L 195.5,343.6 L 195.6,343.7 L 195.8,343.8 L 196.0,344.0 L 196.3,344.2 L 196.2,344.4 L 196.1,344.5 L 195.7,344.5 L 195.7,344.8 L 195.6,344.8 L 195.5,344.8 L 195.5,344.7 L 195.1,345.0 L 195.1,345.0 L 187.4,346.0 L 187.2,345.7 L 187.0,345.6 L 186.9,345.2 L 186.8,345.1 L 186.7,344.9 L 186.7,344.5 L 186.7,344.5 L 186.6,344.3 L 186.5,344.3 L 186.4,344.3 L 186.4,344.2 L 186.4,344.0 L 186.4,344.0 L 186.4,343.9 L 186.4,343.8 L 186.3,343.7 L 186.3,343.7 L 186.1,343.6 L 186.1,343.4 L 186.1,343.4 L 186.3,343.6 L 186.4,343.7 L 186.5,343.6 L 186.5,343.5 L 186.5,343.4 L 186.4,343.2 L 186.4,343.2 L 186.3,343.1 L 186.2,342.9 L 186.1,342.8 L 186.0,342.6 L 186.0,342.6 L 185.9,342.5 L 185.9,342.5 L 185.8,342.3 L 185.9,342.3 L 186.0,342.1 L 186.0,341.9 L 186.1,341.8 L 186.1,341.5 L 186.1,341.4 L 186.0,341.4 L 185.9,341.3 L 185.8,341.2 L 185.6,341.1 L 185.6,341.0 L 185.5,341.0 L 185.5,341.1 L 185.4,341.3 L 185.4,341.3 L 185.3,341.3 L 185.3,341.3 L 185.3,341.2 L 185.2,341.2 L 185.1,341.3 L 185.1,341.4 L 185.1,341.5 L 185.2,341.6 L 185.2,341.6 L 185.2,341.7 L 185.2,341.8 L 185.3,341.9 L 185.5,342.0 L 185.5,342.0 L 185.5,342.0 L 185.5,342.2 L 185.6,342.4 L 185.6,342.4 L 185.7,342.5 L 185.8,342.6 L 185.7,342.6 L 185.7,342.8 L 185.7,343.0 L 185.6,343.2 L 185.6,343.2 L 185.5,343.1 L 185.5,342.9 L 185.5,342.8 L 185.5,342.7 L 185.3,342.6 L 185.2,342.5 L 185.2,342.3 L 185.2,342.1 L 185.2,342.0 L 185.0,341.8 L 184.9,341.7 L 184.9,341.6 L 184.9,341.6 L 184.7,341.5 L 184.5,341.4 L 184.5,341.4 L 184.5,341.2 L 184.5,341.1 L 184.4,341.0 L 184.5,340.9 L 184.6,340.9 L 184.7,341.1 L 184.7,341.1 L 184.8,341.2 L 184.9,341.2 L 184.9,341.2 L 185.0,341.2 L 184.8,341.1 L 184.8,341.0 L 184.9,341.0 L 185.0,341.0 L 185.1,341.0 L 185.1,340.8 L 185.1,340.8 L 185.1,340.6 L 185.3,340.6 L 185.4,340.6 L 185.4,340.5 L 185.3,340.4 L 185.1,340.5 L 184.9,340.5 L 184.9,340.5 L 184.8,340.5 L 184.8,340.4 L 184.7,340.3 L 184.8,340.2 L 184.9,340.0 L 184.9,339.9 L 184.9,339.8 L 184.9,339.7 L 184.9,339.5 L 184.8,339.4 L 184.8,339.3 L 184.6,339.2 L 184.4,339.2 L 184.3,339.2 L 184.2,339.3 L 184.1,339.5 L 184.0,339.9 L 184.0,340.1 L 183.8,340.1 L 183.6,340.2 L 183.4,340.1 L 183.1,340.0 L 182.9,339.6 L 182.8,339.4 L 182.5,339.4 L 182.4,339.2 L 182.4,339.0 L 182.4,338.7 L 182.3,338.3 L 182.1,338.0 L 182.0,337.4 L 182.0,337.2 L 181.7,337.1 L 181.6,337.0 L 181.4,337.1 L 181.3,337.1 L 181.2,337.0 L 181.1,337.0 L 180.9,336.6 L 180.7,336.5 L 180.4,336.5 L 180.3,336.4 L 180.2,336.5 L 180.4,336.7 L 180.3,336.9 L 180.5,337.2 L 180.5,337.4 L 180.4,337.4 L 180.3,337.2 L 180.3,336.9 L 180.2,336.8 L 180.1,336.8 L 179.9,337.1 L 179.9,337.2 L 180.0,337.9 L 180.3,338.4 L 180.2,338.4 L 180.0,338.2 L 179.8,338.2 L 179.7,338.5 L 179.7,338.9 L 179.7,339.0 L 179.6,339.0 L 179.4,339.0 L 179.3,338.9 L 179.2,338.8 L 179.4,338.6 L 179.3,338.5 L 179.3,338.5 L 179.2,338.4 L 179.1,337.7 L 179.0,337.6 L 179.0,337.6 L 178.9,337.3 L 178.8,337.1 L 178.7,336.8 L 178.8,336.8 L 178.9,336.8 L 179.0,337.0 L 179.0,337.0 L 179.1,336.8 L 179.0,336.6 L 179.0,336.2 L 179.0,336.2 L 178.8,336.2 L 178.7,336.0 L 178.6,335.9 L 178.4,335.9 L 178.4,335.9 L 178.2,336.2 L 178.1,336.3 L 178.0,336.1 L 177.9,336.1 L 177.8,336.2 L 177.8,336.3 L 177.7,336.6 L 177.6,336.5 L 177.5,336.6 L 177.5,336.7 L 177.7,337.0 L 178.1,337.2 L 178.0,338.0 L 177.9,338.1 L 177.8,338.1 L 177.8,337.8 L 177.7,337.8 L 177.3,338.0 L 177.3,338.2 L 177.3,338.5 L 177.5,338.8 L 177.6,339.0 L 177.5,339.0 L 177.3,338.9 L 177.2,338.6 L 177.0,338.6 L 176.9,338.3 L 176.8,338.3 L 176.7,338.8 L 176.7,339.2 L 176.9,339.5 L 176.8,339.7 L 176.9,340.4 L 176.9,340.5 L 176.9,340.7 L 176.9,340.7 L 176.8,341.0 L 176.8,341.0 L 176.6,340.9 L 176.6,340.6 L 176.4,340.3 L 176.5,340.0 L 176.4,339.8 L 176.3,339.7 L 176.2,339.7 L 176.1,339.9 L 176.2,339.9 L 176.0,340.3 L 175.9,340.6 L 175.9,340.8 L 176.0,340.8 L 176.1,341.0 L 175.9,341.3 L 175.9,341.7 L 175.6,341.7 L 175.6,341.7 L 175.6,342.2 L 175.5,342.3 L 175.5,342.3 L 175.5,342.4 L 175.4,342.3 L 175.5,342.3 L 175.4,342.2 L 175.2,342.1 L 175.2,341.8 L 175.2,341.8 L 175.1,341.9 L 175.1,342.0 L 175.0,342.1 L 174.9,342.3 L 174.8,342.5 L 174.8,342.6 L 174.9,342.7 L 174.8,342.7 L 174.8,342.6 L 174.8,342.4 L 174.8,342.1 L 174.9,341.7 L 174.8,341.5 L 175.0,341.5 L 175.1,341.4 L 175.3,341.2 L 175.4,341.2 L 175.4,341.5 L 175.5,341.5 L 175.7,341.1 L 175.7,340.8 L 175.7,340.8 L 175.5,340.9 L 175.7,340.2 L 175.9,339.8 L 176.0,339.5 L 176.1,339.3 L 176.1,339.1 L 176.0,338.9 L 176.0,338.4 L 175.8,338.2 L 175.8,338.0 L 175.7,338.0 L 175.5,338.1 L 175.3,338.1 L 175.1,338.1 L 174.7,338.4 L 174.6,338.4 L 174.5,338.4 L 174.4,338.6 L 174.0,338.9 L 174.0,339.0 L 173.7,339.0 L 173.5,339.3 L 173.5,339.3 L 173.4,339.4 L 173.4,339.6 L 173.4,339.8 L 173.3,340.0 L 173.3,340.0 L 173.4,340.0 L 173.6,339.8 L 174.0,339.7 L 174.2,339.7 L 174.3,339.7 L 174.3,339.8 L 174.1,339.9 L 173.9,340.2 L 173.8,340.7 L 173.9,340.8 L 174.1,340.8 L 174.1,340.9 L 174.2,341.0 L 174.5,341.2 L 174.7,341.3 L 174.7,341.4 L 174.6,341.5 L 174.6,341.4 L 174.5,341.4 L 174.4,341.6 L 174.3,341.7 L 174.3,341.5 L 174.2,341.5 L 174.2,341.6 L 174.0,341.7 L 174.0,341.6 L 173.9,341.5 L 173.8,341.5 L 173.7,341.8 L 173.5,342.1 L 173.6,342.4 L 173.7,342.5 L 173.7,342.6 L 173.8,342.9 L 173.9,343.0 L 174.1,343.2 L 174.2,343.4 L 174.2,343.6 L 174.3,343.6 L 174.2,343.4 L 174.4,343.4 L 174.4,343.5 L 174.5,343.6 L 174.6,343.8 L 174.6,344.2 L 174.9,344.4 L 175.0,344.4 L 175.1,344.5 L 175.2,344.5 L 175.2,344.7 L 175.3,344.8 L 175.5,344.9 L 175.6,345.3 L 175.7,345.4 L 175.6,345.7 L 175.7,345.8 L 175.7,346.0 L 175.7,346.0 L 175.7,346.0 L 175.6,345.7 L 175.5,345.7 L 175.4,346.0 L 175.3,345.9 L 175.2,346.0 L 175.1,346.2 L 174.9,346.2 L 174.7,346.3 L 174.6,346.5 L 174.4,346.7 L 174.3,346.9 L 174.3,347.2 L 174.4,347.3 L 174.4,347.3 L 174.6,347.3 L 174.7,347.3 L 174.7,347.0 L 174.9,346.8 L 175.0,346.8 L 175.1,347.0 L 175.0,347.2 L 174.9,347.3 L 174.7,347.6 L 174.7,347.7 L 174.7,347.9 L 174.6,348.1 L 174.5,348.1 L 174.0,348.5 L 174.0,348.7 L 173.8,348.7 L 173.7,348.9 L 173.5,349.1 L 173.4,349.4 L 173.2,349.6 L 173.1,349.8 L 173.2,350.0 L 173.2,350.2 L 173.0,350.5 L 173.1,350.8 L 173.1,350.9 L 173.0,351.0 L 172.9,350.7 L 172.7,350.7 L 172.6,350.4 L 172.8,349.6 L 172.9,349.3 L 172.9,349.4 L 173.0,349.4 L 173.0,349.5 L 173.2,349.3 L 173.3,349.1 L 173.5,349.0 L 173.6,348.8 L 173.5,348.7 L 173.5,348.7 L 173.4,348.7 L 173.4,348.6 L 173.2,348.7 L 173.4,348.1 L 173.5,348.0 L 173.7,347.9 L 174.0,347.7 L 174.0,347.6 L 174.1,347.2 L 174.1,347.2 L 174.1,346.8 L 174.1,346.7 L 174.5,346.3 L 174.6,345.6 L 174.6,345.5 L 174.4,345.4 L 174.4,345.3 L 174.2,344.8 L 174.1,344.8 L 174.0,344.8 L 173.9,344.9 L 174.0,345.1 L 174.0,345.2 L 173.7,345.4 L 173.7,345.4 L 173.6,345.3 L 173.8,344.8 L 173.7,344.5 L 173.7,344.4 L 173.8,344.4 L 173.5,344.3 L 173.4,344.2 L 173.3,343.9 L 173.1,343.8 L 173.0,343.9 L 172.9,344.0 L 173.0,344.2 L 173.0,344.3 L 172.9,344.4 L 172.8,344.1 L 172.7,344.0 L 172.4,343.9 L 172.3,344.0 L 172.2,344.2 L 172.2,344.4 L 171.9,344.7 L 171.9,344.7 L 171.6,344.9 L 171.6,344.8 L 171.6,344.5 L 171.9,344.1 L 171.9,344.1 L 172.0,344.1 L 172.1,343.9 L 172.2,343.8 L 172.2,343.7 L 172.4,343.7 L 172.5,343.8 L 172.6,343.8 L 172.6,343.7 L 172.7,343.4 L 172.9,343.3 L 172.9,343.0 L 173.0,343.0 L 173.1,342.9 L 173.1,342.8 L 173.0,342.7 L 173.1,342.5 L 173.1,342.4 L 173.0,342.5 L 172.9,342.5 L 172.9,342.4 L 172.9,342.2 L 172.8,342.2 L 172.6,342.4 L 172.5,342.5 L 172.4,342.4 L 172.6,341.9 L 172.7,341.9 L 172.8,342.0 L 172.9,342.0 L 172.9,341.5 L 172.9,341.3 L 172.8,341.3 L 172.7,341.2 L 172.8,341.0 L 172.7,340.9 L 172.6,340.9 L 172.7,340.8 L 173.2,340.5 L 173.2,340.4 L 173.1,340.3 L 172.6,340.7 L 172.5,340.7 L 172.3,340.8 L 172.2,341.1 L 172.2,341.1 L 172.2,341.1 L 172.0,340.9 L 171.9,340.9 L 171.7,341.0 L 171.7,340.9 L 171.6,340.9 L 171.3,341.2 L 170.8,341.9 L 170.7,342.0 L 170.6,341.9 L 170.5,341.8 L 170.4,341.6 L 170.1,341.6 L 169.8,341.6 L 169.5,341.8 L 169.5,342.0 L 169.2,342.3 L 169.2,342.6 L 169.2,342.6 L 169.3,342.6 L 169.5,342.6 L 169.5,342.7 L 169.3,342.9 L 169.2,343.0 L 169.1,343.2 L 169.1,343.5 L 169.2,343.8 L 169.5,344.0 L 169.6,344.1 L 169.8,344.0 L 169.9,344.0 L 170.0,344.1 L 169.9,344.3 L 169.7,344.5 L 169.6,344.6 L 169.5,344.7 L 169.6,344.8 L 169.7,344.9 L 170.0,344.7 L 170.0,344.8 L 170.0,344.8 L 170.3,344.8 L 170.4,345.0 L 170.5,345.0 L 170.6,344.9 L 170.6,344.8 L 170.7,344.7 L 170.8,344.5 L 171.1,344.2 L 171.5,343.7 L 171.6,343.7 L 171.7,343.7 L 171.6,344.0 L 171.5,344.1 L 171.5,344.3 L 171.4,344.5 L 171.4,345.1 L 171.3,345.2 L 171.2,345.4 L 171.2,345.5 L 171.4,345.4 L 171.6,345.2 L 171.8,345.1 L 171.8,345.1 L 171.9,345.1 L 172.0,345.3 L 171.9,345.5 L 172.0,345.6 L 172.0,345.7 L 171.9,345.8 L 171.9,346.0 L 172.1,346.0 L 172.1,346.2 L 172.1,346.4 L 172.2,346.6 L 172.1,346.9 L 172.1,347.1 L 172.1,347.3 L 172.1,347.6 L 172.1,347.7 L 172.2,347.7 L 172.3,347.7 L 172.6,347.6 L 172.6,347.6 L 172.7,347.7 L 172.7,347.8 L 172.7,347.9 L 172.8,348.0 L 172.7,348.2 L 172.6,348.4 L 172.4,348.8 L 172.3,348.7 L 172.3,348.6 L 172.1,348.8 L 172.1,349.0 L 172.1,349.2 L 172.2,349.2 L 172.3,349.1 L 172.4,348.9 L 172.5,348.9 L 172.6,348.9 L 172.7,348.7 L 172.8,348.8 L 172.7,348.9 L 172.6,349.0 L 172.6,349.2 L 172.4,349.4 L 172.3,350.0 L 172.4,350.2 L 172.3,350.4 L 172.2,350.4 L 172.0,350.2 L 172.0,350.0 L 171.9,349.8 L 171.9,349.8 L 171.8,350.0 L 171.8,350.0 L 171.6,349.9 L 171.5,349.8 L 171.4,349.8 L 171.4,350.0 L 171.4,350.0 L 171.3,350.0 L 170.9,349.7 L 170.8,349.6 L 170.7,349.4 L 170.7,349.3 L 170.6,349.2 L 170.4,349.2 L 170.3,349.0 L 170.1,348.6 L 170.0,348.2 L 170.0,348.2 L 169.8,348.3 L 169.8,348.4 L 169.6,348.3 L 169.5,348.3 L 169.3,348.5 L 169.2,348.4 L 169.1,348.2 L 169.3,348.0 L 169.4,348.0 L 169.5,348.2 L 169.8,348.1 L 170.0,347.6 L 169.9,347.5 L 169.6,347.5 L 169.4,347.6 L 169.3,347.5 L 169.2,347.5 L 169.0,347.6 L 168.8,347.4 L 168.6,347.3 L 168.5,347.5 L 168.3,347.7 L 168.3,347.9 L 168.4,348.1 L 168.4,348.2 L 168.3,348.1 L 168.2,347.9 L 168.0,347.8 L 167.9,347.9 L 167.8,348.1 L 167.7,348.1 L 167.4,348.3 L 167.3,348.5 L 167.1,348.7 L 167.0,348.7 L 166.7,348.4 L 166.4,348.4 L 166.2,348.2 L 166.0,348.1 L 165.8,348.3 L 165.4,348.3 L 165.1,348.4 L 165.0,348.6 L 165.0,348.7 L 164.9,348.8 L 164.8,349.2 L 164.8,349.4 L 164.7,349.6 L 164.7,349.8 L 164.7,350.0 L 164.8,350.4 L 164.7,350.8 L 164.8,351.0 L 164.8,351.2 L 164.8,351.4 L 164.8,351.5 L 164.7,351.5 L 164.7,351.9 L 164.6,352.0 L 164.6,352.2 L 164.6,352.3 L 164.6,352.4 L 164.6,352.8 L 164.6,353.0 L 164.7,353.4 L 164.8,353.7 L 165.0,354.2 L 165.2,354.3 L 165.2,354.9 L 165.3,355.2 L 165.3,355.4 L 165.4,355.6 L 165.3,356.2 L 165.4,356.3 L 165.4,356.4 L 165.5,356.5 L 165.6,356.8 L 165.6,357.0 L 165.7,357.2 L 165.8,357.4 L 165.9,357.6 L 166.0,357.8 L 166.2,358.0 L 166.3,358.0 L 166.4,357.9 L 166.5,357.7 L 166.5,357.5 L 166.4,357.4 L 166.8,357.2 L 167.2,356.7 L 167.4,356.5 L 167.4,356.4 L 167.6,356.1 L 167.7,356.0 L 167.7,356.1 L 167.6,356.5 L 167.4,356.8 L 167.2,357.0 L 166.9,357.3 L 166.9,357.5 L 166.9,357.6 L 167.0,357.8 L 167.0,357.8 L 166.8,357.9 L 166.8,358.2 L 166.9,358.3 L 167.2,358.4 L 167.3,358.4 L 167.4,358.4 L 167.5,358.6 L 167.6,358.6 L 167.7,358.6 L 168.0,358.7 L 168.1,358.8 L 168.0,358.8 L 168.0,358.8 L 167.9,358.8 L 167.8,358.7 L 167.7,358.7 L 167.5,358.6 L 167.4,358.6 L 167.1,358.5 L 167.0,358.6 L 166.6,358.5 L 166.5,358.6 L 166.4,359.3 L 166.5,359.4 L 166.5,359.4 L 166.6,359.4 L 166.5,359.7 L 166.4,360.0 L 166.4,360.0 L 166.0,360.0 L 164.8,359.9 L 164.8,359.8 L 164.7,359.6 L 164.6,359.5 L 164.8,359.2 L 164.8,358.9 L 164.4,357.5 L 164.2,357.1 L 164.2,356.8 L 164.2,356.5 L 164.0,356.3 L 163.9,356.2 L 163.8,356.1 L 163.7,356.0 L 163.8,355.9 L 163.8,355.6 L 163.8,355.6 L 163.8,355.5 L 163.7,355.3 L 163.7,355.2 L 163.4,355.0 L 163.5,354.9 L 163.5,354.8 L 163.3,354.5 L 163.2,354.5 L 163.1,354.4 L 163.0,354.3 L 162.7,354.0 L 162.6,354.0 L 161.7,353.1 L 161.6,353.0 L 161.4,352.8 L 161.4,352.7 L 161.3,352.6 L 161.1,352.6 L 161.0,352.3 L 161.2,352.1 L 161.1,352.1 L 161.1,352.0 L 160.9,352.1 L 160.8,351.9 L 160.9,351.8 L 161.1,351.8 L 161.2,351.6 L 161.3,351.4 L 161.5,351.1 L 161.6,351.0 L 161.9,350.9 L 161.9,350.8 L 161.8,350.7 L 161.7,350.6 L 161.6,350.3 L 161.4,350.1 L 161.5,350.1 L 161.6,350.1 L 161.8,350.3 L 161.9,350.5 L 162.0,350.5 L 162.1,350.4 L 162.1,350.3 L 162.2,350.1 L 162.1,349.8 L 162.2,349.8 L 162.2,349.7 L 162.0,349.6 L 162.2,349.3 L 162.0,348.8 L 162.0,348.6 L 162.0,348.6 L 162.1,348.5 L 162.2,348.6 L 162.3,348.6 L 162.4,348.4 L 162.5,348.4 L 162.5,348.3 L 162.4,348.0 L 162.5,347.9 L 162.5,347.7 L 162.7,347.6 L 162.9,347.5 L 162.9,347.3 L 163.0,347.1 L 163.0,346.8 L 162.8,346.7 L 162.7,346.5 L 162.7,346.4 L 162.6,346.3 L 162.5,346.2 L 162.4,346.2 L 162.2,346.4 L 161.9,346.6 L 161.8,346.4 L 162.0,346.1 L 161.9,346.1 L 161.9,346.0 L 161.8,345.9 L 161.7,345.9 L 161.7,345.8 L 161.7,345.7 L 161.5,345.7 L 161.5,345.6 L 161.4,345.6 L 161.8,345.1 L 161.8,345.0 L 161.6,344.9 L 161.4,344.8 L 161.1,344.7 L 161.0,344.8 L 160.8,344.7 L 160.5,344.7 L 160.5,344.7 L 160.6,344.6 L 160.7,344.4 L 160.6,344.4 L 160.4,344.4 L 160.2,344.4 L 159.9,344.5 L 159.6,344.5 L 159.3,344.7 L 159.0,344.8 L 158.8,344.9 L 158.8,344.9 L 158.9,345.0 L 158.9,345.0 L 158.8,345.1 L 158.7,345.2 L 158.6,345.4 L 158.7,345.6 L 158.7,345.7 L 158.5,345.6 L 158.4,345.4 L 158.2,345.4 L 157.8,345.6 L 157.7,345.6 L 157.9,345.4 L 157.8,345.3 L 157.4,345.3 L 157.0,345.4 L 156.8,345.5 L 156.8,345.5 L 156.9,345.6 L 156.9,345.6 L 156.9,345.9 L 156.5,346.3 L 156.5,346.3 L 156.5,346.4 L 156.7,346.5 L 156.8,346.6 L 156.8,346.9 L 156.8,347.0 L 156.9,347.0 L 157.1,347.0 L 157.2,347.1 L 157.4,347.2 L 157.5,347.2 L 157.5,347.3 L 157.2,347.3 L 157.1,347.4 L 157.0,347.6 L 157.0,347.6 L 156.8,347.5 L 156.6,347.6 L 156.4,347.7 L 156.3,347.8 L 156.3,348.0 L 156.3,348.2 L 156.5,348.4 L 156.5,348.6 L 156.4,348.7 L 156.4,348.6 L 156.0,348.6 L 156.0,348.4 L 155.9,348.4 L 155.8,348.5 L 155.6,348.5 L 155.2,348.7 L 155.0,348.7 L 154.7,349.0 L 154.7,349.2 L 154.9,349.4 L 154.8,349.4 L 154.7,349.6 L 154.7,349.7 L 154.6,349.7 L 154.5,349.8 L 154.5,349.9 L 154.7,350.2 L 154.7,350.7 L 154.5,351.1 L 154.6,351.2 L 154.7,351.2 L 154.8,351.1 L 154.8,351.0 L 154.7,350.9 L 154.8,350.7 L 154.9,350.6 L 155.0,350.6 L 155.1,350.6 L 155.2,350.5 L 155.2,350.6 L 155.2,350.7 L 155.1,350.8 L 155.1,350.9 L 155.2,351.2 L 155.4,351.4 L 155.4,351.5 L 155.3,351.6 L 155.2,351.3 L 155.0,351.3 L 154.9,351.5 L 154.8,351.7 L 154.6,351.9 L 154.6,352.0 L 154.7,352.2 L 154.6,352.4 L 154.5,352.5 L 154.6,352.7 L 154.6,353.0 L 154.7,353.1 L 154.7,353.1 L 154.7,353.3 L 154.7,353.4 L 154.7,353.6 L 154.9,353.9 L 154.9,354.0 L 154.9,354.2 L 155.0,354.2 L 155.0,354.4 L 154.9,354.5 L 154.9,354.5 L 154.9,354.8 L 154.7,355.0 L 154.7,355.0 L 154.2,354.9 L 154.2,354.9 L 154.2,354.7 L 154.2,354.7 L 154.1,354.8 L 154.1,354.8 L 151.9,354.4 L 151.9,354.3 L 151.8,354.3 L 151.8,354.4 L 151.8,354.4 L 151.8,354.4 L 151.8,354.3 L 151.8,354.1 L 151.8,354.0 L 151.9,354.0 L 151.9,353.7 L 151.8,353.6 L 151.6,353.6 L 151.6,353.6 L 151.6,353.8 L 151.4,353.8 L 151.4,353.9 L 151.4,353.9 L 151.3,353.9 L 151.3,353.9 L 151.2,353.7 L 151.2,353.3 L 150.9,353.0 L 150.6,352.9 L 150.5,352.6 L 150.3,352.4 L 150.2,352.4 L 150.1,352.3 L 149.9,352.3 L 149.6,352.2 L 149.5,352.2 L 149.2,352.4 L 149.7,352.7 L 149.9,352.8 L 150.0,352.8 L 150.0,353.0 L 149.5,353.0 L 149.2,353.3 L 149.2,353.4 L 149.2,353.5 L 149.2,353.7 L 149.3,353.9 L 149.3,354.0 L 149.1,354.2 L 149.1,354.3 L 149.1,354.5 L 149.2,354.7 L 149.3,354.7 L 149.4,355.0 L 149.4,355.4 L 149.7,355.7 L 149.8,355.8 L 149.9,355.9 L 149.9,355.9 L 146.3,355.6 L 146.3,355.6 L 146.2,355.5 L 146.4,355.2 L 146.4,355.0 L 146.4,354.8 L 146.2,354.8 L 145.8,354.9 L 145.6,355.3 L 145.7,355.5 L 145.5,355.5 L 145.5,355.3 L 145.5,355.2 L 145.6,355.1 L 145.5,355.0 L 145.5,354.9 L 145.4,354.7 L 145.5,354.6 L 145.5,354.4 L 145.4,354.2 L 145.3,354.2 L 145.1,354.3 L 144.9,354.3 L 144.9,354.2 L 145.1,354.1 L 145.3,354.1 L 145.4,354.0 L 145.4,353.6 L 145.4,353.5 L 145.6,353.1 L 145.6,353.0 L 145.5,352.9 L 145.4,352.8 L 145.3,352.9 L 145.3,352.9 L 145.3,353.1 L 145.1,353.1 L 144.8,353.4 L 144.4,353.9 L 144.1,354.2 L 143.9,354.6 L 143.7,354.8 L 143.5,355.4 L 143.3,356.0 L 143.3,356.2 L 143.3,356.3 L 143.3,356.4 L 143.2,356.8 L 143.1,356.9 L 143.1,357.0 L 142.2,357.0 L 142.2,357.0 L 142.2,356.6 L 142.2,356.2 L 142.3,355.7 L 142.3,355.5 L 142.2,355.2 L 142.1,354.9 L 142.1,354.6 L 142.0,354.2 L 141.8,354.0 L 141.8,353.7 L 141.7,353.4 L 141.7,353.2 L 141.6,353.0 L 141.5,352.8 L 141.3,353.0 L 141.2,353.0 L 141.2,353.1 L 140.9,353.4 L 140.2,354.1 L 140.1,354.2 L 140.2,354.4 L 140.5,354.9 L 140.4,355.0 L 140.4,355.1 L 140.4,355.3 L 140.4,355.7 L 140.3,355.8 L 140.3,356.1 L 140.3,356.1 L 139.8,356.7 L 139.8,356.5 L 139.3,355.7 L 139.2,355.4 L 139.3,355.3 L 139.3,355.3 L 139.3,355.3 L 139.4,355.1 L 139.2,354.9 L 139.3,354.5 L 139.1,354.1 L 138.9,354.0 L 139.0,353.9 L 138.9,353.7 L 138.7,353.2 L 138.6,353.2 L 138.5,353.2 L 138.4,353.3 L 138.5,353.6 L 138.4,353.6 L 138.4,353.6 L 138.3,353.9 L 138.2,353.9 L 138.1,353.9 L 137.9,353.9 L 137.9,354.4 L 138.0,354.9 L 138.0,354.9 L 138.1,354.7 L 138.2,354.8 L 138.2,354.9 L 138.1,355.4 L 138.1,355.4 L 137.8,355.5 L 137.7,355.3 L 137.4,354.0 L 137.2,354.0 L 137.0,354.3 L 137.0,354.9 L 137.0,355.1 L 137.2,355.2 L 137.1,355.4 L 136.9,355.5 L 136.7,355.5 L 136.6,355.5 L 136.5,355.5 L 136.6,355.2 L 136.9,354.2 L 137.0,354.1 L 137.0,353.7 L 137.1,353.5 L 137.2,353.4 L 137.0,353.0 L 136.9,353.0 L 136.8,352.9 L 136.5,352.9 L 136.2,353.1 L 136.1,353.3 L 136.2,353.7 L 136.3,353.8 L 136.2,353.9 L 136.1,353.8 L 135.7,353.6 L 135.8,353.5 L 135.7,353.3 L 135.8,353.2 L 135.9,353.2 L 135.9,352.8 L 136.0,352.7 L 136.2,351.9 L 136.3,351.8 L 136.3,351.4 L 136.3,351.3 L 136.4,351.2 L 136.4,350.6 L 136.4,350.4 L 136.3,350.3 L 136.1,350.3 L 136.1,350.3 L 136.0,350.5 L 136.0,350.8 L 136.0,350.7 L 135.9,350.5 L 135.9,350.5 L 135.8,350.4 L 135.6,350.5 L 135.6,350.9 L 135.6,351.3 L 135.6,351.4 L 135.5,351.5 L 135.5,351.3 L 135.5,351.2 L 135.4,351.1 L 135.3,351.3 L 135.3,351.4 L 135.3,351.7 L 135.4,352.1 L 135.4,352.2 L 135.2,351.9 L 135.1,351.5 L 135.1,351.2 L 135.2,350.5 L 135.2,350.5 L 135.3,350.4 L 135.3,349.9 L 135.2,349.7 L 135.1,349.6 L 134.9,349.1 L 134.6,348.8 L 134.4,348.6 L 134.2,348.2 L 134.0,348.2 L 133.9,348.0 L 133.8,348.1 L 133.7,348.4 L 133.6,348.2 L 133.5,348.1 L 133.5,348.2 L 133.5,348.5 L 133.3,348.7 L 133.2,348.3 L 133.1,348.4 L 132.8,348.7 L 132.8,349.2 L 132.8,349.4 L 132.9,349.6 L 133.0,349.6 L 133.0,349.7 L 132.9,350.1 L 133.2,350.3 L 133.2,350.5 L 133.3,350.6 L 133.4,350.7 L 133.6,351.0 L 133.8,351.1 L 133.9,351.2 L 134.2,351.4 L 134.3,351.5 L 134.3,351.8 L 134.3,352.0 L 134.4,352.1 L 134.6,352.3 L 134.4,352.2 L 134.2,352.2 L 134.1,352.0 L 134.0,351.8 L 134.1,351.6 L 134.0,351.6 L 133.9,351.7 L 133.8,351.6 L 133.6,351.6 L 133.5,351.5 L 133.7,351.3 L 133.6,351.1 L 133.5,351.0 L 133.2,350.9 L 132.9,350.6 L 132.7,350.5 L 132.6,350.5 L 132.5,350.6 L 132.4,350.8 L 131.4,351.8 L 131.3,351.9 L 131.2,351.6 L 131.2,351.4 L 131.1,351.2 L 130.9,351.3 L 130.8,351.3 L 130.7,351.4 L 130.6,351.5 L 130.8,351.7 L 130.8,352.1 L 130.8,352.3 L 130.6,352.2 L 129.1,351.8 L 129.2,351.6 L 129.3,351.3 L 129.2,351.3 L 129.3,351.2 L 129.2,351.0 L 129.1,350.9 L 128.6,350.9 L 128.5,351.1 L 128.7,351.5 L 128.7,351.7 L 128.1,351.5 L 128.1,351.5 L 128.1,351.1 L 128.0,351.1 L 127.8,351.1 L 127.8,351.3 L 127.7,351.4 L 126.8,351.2 L 125.9,351.0 L 125.9,351.0 L 126.0,350.7 L 126.0,350.1 L 125.9,349.9 L 125.8,349.9 L 125.7,349.9 L 125.5,350.1 L 125.5,350.2 L 125.5,350.2 L 125.5,350.3 L 125.4,350.4 L 125.4,350.6 L 125.3,350.8 L 125.3,350.8 L 125.2,350.8 L 125.2,350.8 L 125.3,350.7 L 125.3,350.5 L 125.4,350.3 L 125.4,350.2 L 125.6,350.0 L 125.7,349.9 L 125.7,349.7 L 125.6,349.7 L 125.6,349.6 L 125.7,349.2 L 125.5,348.7 L 125.2,348.4 L 125.1,348.2 L 124.8,347.8 L 124.5,347.7 L 124.3,347.7 L 124.2,347.8 L 123.9,348.0 L 123.8,348.2 L 123.7,348.4 L 123.7,348.6 L 123.8,348.7 L 124.0,348.6 L 124.0,348.7 L 124.0,349.0 L 124.1,349.1 L 124.2,349.4 L 124.1,349.5 L 124.1,349.4 L 124.0,349.4 L 123.9,349.3 L 123.7,349.2 L 123.6,349.4 L 123.5,349.5 L 123.3,349.7 L 123.2,349.8 L 123.2,349.9 L 123.1,350.2 L 123.0,350.3 L 123.0,350.5 L 123.0,350.6 L 123.0,350.8 L 123.0,351.1 L 123.0,351.1 L 95.2,348.7 L 103.8,309.5 L 112.5,270.3" fill="none" stroke="black" stroke-width="2"/>
</svg>