<?xml version="1.0" encoding="UTF-8"?>
<svg width="400" height="400" viewBox="0 0 400 400" xmlns="http://www.w3.org/2000/svg">
  <rect width="400" height="400" fill="white"/>
  <path d="M 44.4,241.2 L 54.0,144.8 L 54.2,144.9 L 55.0,144.9 L 55.6,144.3 L 56.2,143.9 L 56.8,144.0 L 57.1,144.8 L 57.6,144.9 L 58.0,143.9 L 58.8,143.1 L 58.5,142.2 L 59.0,141.7 L 59.5,141.6 L 59.9,140.6 L 60.5,140.0 L 61.6,135.7 L 62.1,135.2 L 62.5,135.3 L 63.1,136.5 L 63.9,136.6 L 64.2,136.2 L 64.4,134.8 L 64.0,134.1 L 63.0,133.7 L 63.1,132.6 L 63.9,131.1 L 64.1,130.3 L 64.9,129.6 L 65.1,129.1 L 66.1,129.2 L 66.2,129.9 L 65.8,130.7 L 65.5,133.9 L 65.8,136.7 L 65.5,138.5 L 65.9,139.2 L 66.5,139.6 L 67.7,139.6 L 68.3,140.6 L 68.2,141.5 L 67.8,141.9 L 66.7,141.8 L 66.1,142.1 L 65.9,142.5 L 66.0,142.9 L 66.5,143.1 L 67.1,143.9 L 67.7,144.2 L 68.9,144.3 L 69.3,144.1 L 70.2,143.7 L 71.0,142.9 L 71.8,142.7 L 72.9,142.8 L 75.6,142.1 L 76.6,141.1 L 77.2,140.8 L 78.1,140.5 L 78.4,138.8 L 79.2,137.6 L 80.2,136.5 L 81.9,136.1 L 83.6,134.5 L 84.1,131.5 L 83.3,130.5 L 83.1,130.0 L 81.7,128.9 L 81.1,128.8 L 80.6,130.7 L 80.1,130.8 L 78.8,130.1 L 78.2,129.2 L 76.9,128.9 L 77.0,125.7 L 76.6,124.9 L 76.5,123.1 L 75.8,121.2 L 71.6,119.7 L 71.1,119.5 L 70.9,119.4 L 70.7,118.7 L 70.9,116.4 L 70.3,115.6 L 69.2,115.6 L 67.7,116.0 L 66.5,118.8 L 66.2,119.0 L 65.7,119.8 L 65.5,121.3 L 65.5,122.8 L 65.4,124.0 L 64.9,124.0 L 64.3,123.5 L 63.8,123.7 L 63.6,123.0 L 63.6,122.0 L 63.4,120.9 L 63.7,118.4 L 63.8,116.6 L 63.5,116.0 L 62.1,116.1 L 62.3,115.1 L 63.3,114.4 L 64.1,114.0 L 64.5,113.1 L 64.6,111.5 L 64.4,110.7 L 64.8,107.8 L 65.3,106.9 L 65.8,105.2 L 65.9,104.1 L 65.6,103.7 L 64.6,103.6 L 64.2,105.7 L 63.1,105.9 L 62.7,106.8 L 60.8,107.5 L 60.0,108.2 L 58.5,109.0 L 57.7,109.0 L 58.1,105.3 L 58.8,104.2 L 58.8,102.8 L 58.0,101.8 L 58.4,99.5 L 57.6,98.6 L 57.0,97.0 L 57.3,96.6 L 58.5,96.8 L 59.7,97.6 L 59.8,98.5 L 60.4,98.1 L 61.4,96.4 L 61.9,93.6 L 62.4,92.3 L 62.6,90.9 L 63.3,89.9 L 64.6,85.2 L 66.9,79.9 L 67.0,78.9 L 65.6,76.0 L 65.9,75.6 L 67.8,75.4 L 70.4,75.5 L 71.9,75.8 L 72.1,76.3 L 71.5,79.2 L 71.6,80.2 L 71.3,83.3 L 71.3,85.6 L 70.5,91.3 L 70.6,93.0 L 70.9,94.2 L 69.8,96.1 L 68.9,98.8 L 68.8,100.8 L 68.6,102.2 L 69.4,102.5 L 70.4,105.0 L 71.0,107.7 L 71.3,108.4 L 72.0,108.6 L 72.5,109.2 L 72.8,109.5 L 73.4,110.0 L 73.4,110.6 L 74.0,111.0 L 74.6,112.1 L 76.0,112.7 L 77.3,112.2 L 77.7,112.3 L 78.1,113.1 L 78.6,115.0 L 79.4,115.6 L 79.6,116.7 L 79.9,117.7 L 80.7,117.9 L 81.4,117.2 L 81.9,116.9 L 82.3,117.3 L 84.2,117.6 L 84.6,118.4 L 84.5,121.1 L 84.5,121.5 L 85.0,122.4 L 85.2,123.3 L 85.9,124.4 L 87.1,125.3 L 87.5,125.3 L 89.9,123.3 L 91.0,123.5 L 91.2,124.2 L 91.8,124.7 L 94.0,125.7 L 94.6,126.1 L 94.8,127.3 L 95.3,128.4 L 95.3,129.3 L 95.6,130.6 L 96.3,131.4 L 97.0,131.2 L 97.9,130.3 L 99.0,130.2 L 99.2,129.8 L 99.6,128.9 L 100.1,128.6 L 100.6,128.8 L 100.9,129.4 L 101.8,130.7 L 102.4,130.8 L 103.9,132.0 L 104.0,132.5 L 104.7,133.1 L 104.6,133.5 L 104.8,134.5 L 105.2,134.9 L 106.2,135.6 L 106.9,135.5 L 107.3,135.8 L 107.5,137.0 L 108.8,137.1 L 109.3,137.0 L 110.3,136.3 L 110.5,135.7 L 110.9,135.5 L 111.7,135.9 L 112.4,136.0 L 113.4,134.9 L 114.3,134.3 L 115.7,131.9 L 116.2,130.5 L 117.4,128.9 L 118.3,128.5 L 119.3,128.9 L 120.0,129.9 L 120.3,133.7 L 120.3,134.7 L 120.3,135.2 L 119.6,139.8 L 119.9,140.4 L 121.4,140.2 L 122.2,139.7 L 123.5,139.3 L 124.7,138.4 L 126.6,137.5 L 128.0,137.1 L 131.3,135.7 L 132.3,135.7 L 134.1,134.3 L 135.3,133.9 L 137.0,134.1 L 137.7,133.6 L 138.2,132.3 L 138.6,130.7 L 139.2,130.2 L 139.8,131.3 L 141.1,131.2 L 141.2,131.7 L 141.0,133.1 L 141.9,132.9 L 142.4,133.4 L 142.8,133.3 L 143.5,132.2 L 144.0,131.7 L 144.7,131.5 L 144.9,130.6 L 145.4,128.6 L 145.9,127.7 L 146.2,125.9 L 146.7,125.2 L 147.0,125.1 L 147.9,125.0 L 148.6,125.4 L 148.5,126.3 L 147.9,128.3 L 148.0,129.9 L 148.9,131.2 L 149.3,131.4 L 149.4,131.8 L 149.9,132.8 L 152.0,133.1 L 152.5,133.0 L 155.0,134.5 L 155.3,134.9 L 155.8,135.5 L 157.3,135.7 L 158.5,135.5 L 159.8,136.2 L 160.6,137.6 L 161.4,138.0 L 164.0,138.1 L 164.8,137.4 L 165.4,137.3 L 167.2,135.2 L 167.5,134.0 L 168.0,132.6 L 168.8,131.9 L 169.6,132.0 L 170.5,132.9 L 171.3,133.1 L 171.4,133.7 L 172.1,134.4 L 173.2,134.4 L 175.3,132.9 L 176.1,131.6 L 176.8,131.4 L 177.9,132.3 L 179.0,132.3 L 180.2,131.3 L 181.5,131.5 L 182.9,130.5 L 183.3,129.9 L 184.9,129.0 L 185.3,129.1 L 185.6,130.0 L 186.5,130.2 L 187.2,129.8 L 188.1,130.3 L 188.9,130.2 L 190.8,129.5 L 192.6,128.3 L 195.0,127.9 L 196.3,128.1 L 197.4,129.1 L 198.3,132.2 L 200.4,132.1 L 200.7,132.3 L 201.3,132.3 L 201.6,130.8 L 201.2,129.8 L 201.4,129.2 L 201.8,128.8 L 202.2,128.6 L 204.0,128.6 L 205.8,129.1 L 205.9,129.6 L 205.9,130.2 L 206.8,131.5 L 207.6,131.4 L 209.2,130.8 L 209.9,130.4 L 212.4,130.8 L 213.5,130.2 L 214.1,129.1 L 215.1,128.9 L 215.7,128.4 L 216.1,127.8 L 217.4,126.9 L 218.7,125.5 L 220.2,125.1 L 221.6,124.7 L 221.9,124.4 L 222.0,123.5 L 222.3,123.3 L 223.8,123.5 L 226.5,123.0 L 228.1,122.3 L 230.0,122.9 L 231.2,123.8 L 232.7,124.0 L 234.4,123.5 L 236.0,124.1 L 236.8,126.1 L 236.8,127.0 L 237.1,127.4 L 238.5,127.1 L 239.1,126.7 L 240.5,142.1 L 239.8,142.3 L 239.6,144.9 L 239.5,145.9 L 240.2,147.8 L 241.4,149.5 L 241.4,150.3 L 240.7,150.4 L 238.3,148.9 L 236.7,147.4 L 232.5,144.9 L 231.3,144.9 L 231.6,145.7 L 231.0,145.8 L 228.6,144.4 L 227.6,144.5 L 227.3,144.8 L 226.8,147.3 L 226.4,148.6 L 226.8,150.3 L 227.6,151.7 L 226.8,152.2 L 226.8,153.0 L 227.9,155.9 L 227.6,156.6 L 227.8,157.6 L 227.7,158.5 L 228.0,160.0 L 229.4,161.7 L 229.5,163.0 L 230.1,164.0 L 228.5,163.9 L 226.7,163.2 L 226.4,163.4 L 226.7,164.7 L 227.8,166.5 L 227.5,167.0 L 227.8,168.7 L 227.2,168.7 L 226.5,168.1 L 224.2,165.3 L 223.8,165.5 L 223.5,166.6 L 222.9,167.0 L 222.6,168.3 L 222.4,169.0 L 222.8,171.1 L 224.8,173.1 L 226.1,173.4 L 228.0,175.3 L 228.7,177.3 L 228.8,178.1 L 227.6,178.7 L 227.4,179.1 L 227.7,179.6 L 228.4,180.2 L 229.5,181.2 L 229.4,181.9 L 229.9,182.8 L 229.3,184.0 L 228.8,184.0 L 228.5,184.4 L 229.5,185.4 L 230.7,186.1 L 232.2,187.6 L 233.5,188.3 L 234.0,188.4 L 236.1,189.4 L 238.2,190.5 L 239.0,191.1 L 239.5,192.3 L 241.1,193.5 L 243.8,193.7 L 245.1,193.6 L 246.4,194.0 L 247.4,194.0 L 248.6,192.9 L 249.8,193.4 L 250.6,193.1 L 251.4,193.0 L 254.3,193.4 L 254.7,192.9 L 254.6,192.2 L 255.2,191.8 L 256.4,192.1 L 256.4,192.1 L 257.3,192.3 L 258.8,192.6 L 259.2,193.0 L 259.7,195.2 L 259.3,195.4 L 259.5,196.4 L 258.9,196.8 L 259.5,198.0 L 261.8,198.5 L 263.5,198.3 L 264.0,199.2 L 264.1,200.1 L 265.6,200.2 L 265.7,199.5 L 264.4,198.6 L 264.4,198.2 L 265.1,197.9 L 265.8,198.3 L 266.4,198.8 L 266.8,199.5 L 267.4,199.9 L 269.0,200.1 L 270.0,199.9 L 271.1,199.2 L 271.7,199.2 L 272.5,198.5 L 272.4,197.5 L 271.6,195.4 L 271.7,194.4 L 272.3,194.1 L 273.1,194.2 L 273.4,192.5 L 273.6,191.8 L 274.0,191.1 L 275.0,191.4 L 275.3,191.9 L 275.6,192.4 L 275.6,192.6 L 274.8,193.2 L 275.5,194.0 L 276.6,194.1 L 277.4,193.7 L 276.7,192.9 L 276.1,192.5 L 276.2,191.9 L 274.7,190.6 L 274.9,189.8 L 275.2,189.3 L 276.3,189.1 L 276.8,188.4 L 278.1,188.1 L 278.8,188.3 L 279.2,189.5 L 280.0,189.6 L 281.1,189.5 L 281.8,190.3 L 282.1,191.1 L 282.8,191.8 L 283.2,191.8 L 284.0,191.0 L 284.1,190.1 L 284.8,189.5 L 284.5,188.7 L 285.1,187.9 L 286.5,188.2 L 286.9,188.6 L 288.3,188.7 L 288.9,188.6 L 289.5,189.3 L 290.9,189.5 L 291.0,190.6 L 292.1,191.2 L 292.7,192.0 L 294.0,192.3 L 295.5,192.9 L 296.0,192.9 L 296.3,193.6 L 296.0,193.6 L 295.5,194.1 L 295.1,195.0 L 294.2,194.8 L 293.8,195.4 L 293.3,195.8 L 293.1,196.4 L 292.6,196.9 L 292.4,197.9 L 293.4,199.4 L 293.4,200.0 L 293.9,200.8 L 294.8,200.9 L 294.9,201.5 L 296.4,201.9 L 296.6,202.3 L 295.0,202.9 L 294.9,203.4 L 294.1,205.3 L 293.2,206.1 L 293.3,206.9 L 293.9,207.4 L 293.8,208.1 L 294.3,209.7 L 294.8,212.5 L 294.8,212.6 L 295.4,212.9 L 296.3,213.2 L 297.2,214.1 L 303.2,214.8 L 304.1,214.5 L 305.6,214.8 L 306.2,215.1 L 307.9,215.0 L 308.5,214.8 L 310.2,214.8 L 311.4,214.5 L 313.0,214.8 L 313.3,214.3 L 313.4,214.1 L 314.0,213.4 L 315.8,213.6 L 318.0,213.0 L 327.5,228.6 L 327.5,228.6 L 327.3,228.8 L 326.8,229.1 L 326.1,229.2 L 326.3,229.7 L 325.9,230.1 L 326.2,231.4 L 325.7,231.3 L 324.3,230.5 L 323.8,230.7 L 323.5,230.6 L 321.9,230.5 L 321.5,231.1 L 320.2,232.0 L 320.0,232.5 L 320.8,232.6 L 321.3,233.6 L 323.2,233.9 L 323.6,233.9 L 324.4,234.6 L 324.9,235.0 L 325.0,235.5 L 323.7,237.6 L 323.8,240.2 L 325.3,240.2 L 326.8,242.4 L 328.4,243.1 L 329.7,244.4 L 329.7,245.0 L 330.1,245.4 L 330.6,245.4 L 331.1,245.4 L 332.6,246.2 L 333.4,247.0 L 336.0,247.3 L 337.1,247.8 L 337.9,248.9 L 338.0,249.4 L 338.2,249.6 L 340.0,249.2 L 340.6,249.6 L 342.9,248.9 L 344.1,248.3 L 345.3,247.9 L 346.4,248.1 L 348.7,248.0 L 351.8,247.4 L 353.5,246.9 L 353.9,247.0 L 354.3,247.5 L 358.0,246.0 L 360.0,246.7 L 359.9,247.2 L 358.7,247.5 L 357.8,248.3 L 357.9,248.8 L 354.7,250.2 L 353.1,250.3 L 352.7,251.0 L 349.8,251.6 L 347.6,252.7 L 346.9,252.6 L 345.8,253.1 L 343.1,254.1 L 341.6,255.0 L 339.4,255.9 L 338.9,256.6 L 338.0,256.8 L 337.8,257.2 L 338.3,257.3 L 339.8,257.9 L 342.9,258.7 L 343.1,260.0 L 344.3,260.8 L 345.0,261.9 L 345.2,262.0 L 345.2,262.0 L 342.8,269.5 L 342.8,269.5 L 340.0,269.0 L 338.4,267.9 L 338.1,267.3 L 337.8,267.1 L 336.0,266.8 L 333.7,266.1 L 332.8,266.2 L 330.7,266.9 L 329.7,266.8 L 328.7,266.5 L 327.7,266.3 L 325.4,266.3 L 321.7,266.0 L 321.6,265.2 L 320.4,264.5 L 320.3,264.4 L 318.4,264.2 L 317.4,264.4 L 316.9,264.9 L 315.9,264.8 L 316.3,263.7 L 316.6,263.6 L 316.4,263.1 L 315.3,263.1 L 314.0,263.4 L 313.3,263.2 L 312.9,262.5 L 314.2,261.5 L 314.0,261.0 L 312.5,260.9 L 310.3,261.8 L 309.0,262.0 L 306.3,261.3 L 305.2,260.3 L 303.0,260.0 L 300.1,260.7 L 297.7,260.4 L 296.8,259.9 L 295.7,260.0 L 294.7,259.7 L 294.4,259.1 L 293.7,259.1 L 293.4,258.1 L 292.8,258.0 L 292.5,257.1 L 285.9,256.0 L 284.9,256.2 L 284.0,256.6 L 282.6,256.8 L 279.6,256.7 L 278.6,257.0 L 277.4,256.9 L 275.6,257.1 L 274.3,257.0 L 274.1,256.9 L 273.5,256.5 L 273.0,256.9 L 271.9,256.9 L 271.0,256.0 L 269.6,255.4 L 267.3,256.0 L 266.3,256.1 L 264.7,255.3 L 264.1,254.1 L 262.9,254.1 L 261.6,254.7 L 260.0,254.9 L 259.1,254.6 L 258.9,254.1 L 258.4,253.7 L 258.4,252.9 L 257.1,252.6 L 256.0,253.4 L 253.4,253.7 L 251.7,253.7 L 251.1,254.2 L 250.8,254.8 L 250.1,255.5 L 249.4,255.1 L 247.5,255.4 L 246.7,255.3 L 246.7,255.3 L 246.5,255.5 L 246.3,255.6 L 245.0,255.7 L 244.7,255.9 L 242.2,255.3 L 240.1,257.1 L 238.1,256.9 L 237.0,256.4 L 236.6,255.4 L 237.1,254.5 L 237.1,254.2 L 237.0,253.8 L 235.9,253.4 L 234.9,253.9 L 233.8,254.0 L 233.3,254.4 L 232.6,254.5 L 232.1,253.8 L 232.0,253.4 L 230.9,253.2 L 230.2,253.0 L 230.0,252.8 L 229.7,252.2 L 229.6,251.8 L 229.4,251.3 L 229.3,250.7 L 229.2,250.2 L 229.0,249.6 L 228.8,249.1 L 228.5,248.9 L 228.1,248.8 L 227.7,248.5 L 227.1,248.2 L 226.6,247.9 L 226.1,247.6 L 225.6,247.3 L 225.4,247.2 L 225.0,247.1 L 224.7,247.6 L 224.4,248.0 L 223.7,248.1 L 223.1,247.6 L 222.4,246.9 L 222.8,246.3 L 223.5,246.9 L 223.7,246.9 L 223.8,246.8 L 223.9,246.6 L 224.0,246.1 L 224.0,245.5 L 224.1,245.0 L 224.1,244.5 L 224.1,244.0 L 224.1,243.8 L 224.0,243.5 L 223.8,243.0 L 223.6,242.7 L 223.4,242.6 L 222.8,242.5 L 222.2,242.4 L 221.7,242.3 L 221.4,242.2 L 221.3,242.0 L 220.8,241.9 L 221.3,241.2 L 219.8,240.4 L 219.4,241.1 L 219.1,240.9 L 218.8,240.6 L 218.3,240.3 L 217.7,240.0 L 217.3,239.6 L 216.8,239.4 L 216.5,239.3 L 216.0,239.2 L 215.5,239.1 L 215.0,239.1 L 214.4,239.0 L 213.9,238.9 L 213.4,238.8 L 212.8,238.7 L 212.3,238.5 L 211.7,238.4 L 211.1,238.3 L 210.5,238.2 L 209.9,238.1 L 209.4,238.0 L 208.8,237.9 L 208.3,237.8 L 207.8,237.7 L 207.5,237.7 L 207.1,237.7 L 206.8,237.8 L 206.3,237.9 L 206.0,238.0 L 205.7,238.2 L 205.3,238.4 L 204.8,238.6 L 204.3,238.7 L 203.7,238.7 L 203.1,238.7 L 202.8,238.8 L 202.6,238.8 L 202.3,238.7 L 202.0,238.5 L 201.6,238.5 L 201.2,238.4 L 201.0,236.7 L 198.9,236.9 L 196.5,240.4 L 196.7,240.6 L 196.8,240.7 L 197.0,241.3 L 197.1,241.6 L 197.4,241.9 L 197.6,242.0 L 198.1,242.1 L 198.7,242.2 L 199.3,242.2 L 199.5,242.3 L 199.8,242.2 L 200.3,242.2 L 200.6,242.3 L 201.2,242.4 L 201.8,242.5 L 202.4,242.6 L 202.7,242.8 L 202.9,242.9 L 203.3,243.1 L 203.7,243.4 L 203.9,243.8 L 204.1,244.3 L 204.2,244.7 L 204.2,245.1 L 204.2,245.5 L 204.1,246.1 L 204.0,246.6 L 203.7,247.1 L 203.3,247.5 L 202.9,248.0 L 202.4,248.4 L 201.9,248.7 L 201.4,249.1 L 200.8,249.3 L 200.3,249.5 L 199.7,249.4 L 199.7,249.3 L 199.5,249.0 L 199.3,248.9 L 198.9,248.2 L 196.5,248.9 L 196.5,249.7 L 196.4,249.9 L 196.3,250.1 L 196.1,250.6 L 195.9,250.7 L 195.4,250.9 L 194.7,251.0 L 194.0,251.3 L 193.1,251.5 L 192.3,251.8 L 191.4,252.0 L 190.4,252.1 L 190.3,252.1 L 189.4,252.4 L 188.5,252.6 L 187.6,252.7 L 186.7,252.9 L 185.9,253.1 L 184.7,253.2 L 183.8,253.3 L 183.1,253.5 L 182.8,253.6 L 182.5,253.9 L 182.3,254.1 L 181.8,254.4 L 181.5,255.1 L 181.3,255.9 L 181.2,256.4 L 181.2,257.0 L 181.3,257.7 L 181.3,258.1 L 181.5,258.6 L 181.6,258.8 L 181.5,259.2 L 181.3,259.4 L 180.8,259.4 L 180.4,259.5 L 179.6,260.1 L 179.0,260.8 L 178.0,261.6 L 177.4,262.1 L 175.6,261.9 L 174.9,262.7 L 174.5,263.3 L 175.9,263.8 L 176.4,264.3 L 178.1,265.0 L 180.7,265.3 L 181.4,265.6 L 181.4,266.3 L 181.8,266.3 L 182.5,266.8 L 182.4,267.2 L 182.6,267.6 L 183.3,268.0 L 183.7,267.7 L 184.0,268.0 L 187.3,267.7 L 187.4,267.8 L 188.1,267.6 L 189.0,267.6 L 190.7,267.7 L 193.3,266.8 L 197.3,266.7 L 199.2,266.9 L 202.5,266.8 L 203.9,267.7 L 204.3,268.5 L 206.3,270.5 L 207.2,270.9 L 209.0,271.1 L 209.5,270.9 L 210.0,271.8 L 211.8,272.3 L 216.8,272.8 L 217.9,272.7 L 218.6,272.4 L 222.7,272.3 L 223.7,271.9 L 224.4,271.0 L 225.6,270.4 L 225.8,270.9 L 225.3,273.0 L 223.7,273.5 L 222.4,274.4 L 220.5,274.8 L 217.2,275.1 L 211.8,274.7 L 210.3,274.2 L 208.7,273.3 L 207.6,272.9 L 206.4,273.1 L 203.5,273.7 L 201.3,273.5 L 200.7,273.0 L 199.2,272.7 L 198.0,273.3 L 196.8,273.2 L 196.1,272.7 L 195.1,272.8 L 193.4,272.6 L 192.9,272.2 L 190.4,272.1 L 189.3,272.4 L 188.5,272.5 L 186.4,272.5 L 183.5,273.9 L 181.2,274.3 L 179.3,274.1 L 178.2,274.2 L 177.5,274.3 L 176.2,274.2 L 175.8,274.9 L 169.1,275.3 L 166.0,276.1 L 165.8,276.7 L 167.9,277.9 L 168.5,278.5 L 168.6,279.0 L 168.3,279.4 L 168.0,279.5 L 167.4,279.4 L 166.7,279.1 L 165.4,279.4 L 164.7,279.1 L 164.0,279.3 L 162.0,280.0 L 160.8,280.4 L 160.5,281.0 L 160.3,281.8 L 160.1,281.8 L 159.6,282.5 L 159.0,282.8 L 158.9,283.1 L 158.9,283.6 L 159.1,284.0 L 159.4,284.9 L 159.2,284.9 L 158.6,284.7 L 158.6,284.5 L 158.4,284.3 L 157.7,283.7 L 157.2,283.7 L 156.7,283.8 L 156.2,284.4 L 156.3,284.7 L 156.4,285.1 L 156.6,285.7 L 156.5,286.0 L 156.1,286.5 L 155.8,286.5 L 155.8,286.8 L 155.6,287.6 L 155.7,287.8 L 156.7,289.3 L 157.2,290.4 L 157.2,291.1 L 157.5,291.5 L 158.2,292.5 L 158.3,292.9 L 158.1,293.2 L 157.9,293.5 L 157.3,294.3 L 157.2,294.8 L 156.9,296.7 L 157.1,297.2 L 157.7,297.5 L 158.4,298.1 L 158.8,298.4 L 159.5,298.7 L 160.3,299.1 L 161.0,299.5 L 161.2,299.7 L 161.1,299.8 L 161.0,299.8 L 160.4,299.7 L 159.6,299.7 L 158.8,299.7 L 158.3,299.6 L 157.7,299.4 L 156.9,299.3 L 156.2,299.3 L 155.4,299.4 L 154.6,299.5 L 154.4,299.5 L 154.3,299.6 L 154.2,300.2 L 154.3,300.5 L 154.4,300.7 L 154.6,300.7 L 154.7,300.7 L 155.0,300.7 L 155.5,300.7 L 155.7,301.0 L 156.1,301.6 L 156.3,302.0 L 156.3,302.1 L 156.0,302.4 L 155.4,302.9 L 155.3,302.9 L 155.1,302.9 L 155.0,302.9 L 154.9,303.0 L 154.8,303.5 L 154.7,304.2 L 154.7,304.4 L 154.6,304.3 L 154.2,303.8 L 154.2,303.5 L 154.0,303.0 L 153.9,302.7 L 153.8,302.4 L 153.7,301.9 L 153.6,301.4 L 153.5,301.3 L 153.6,301.0 L 153.9,300.7 L 153.8,300.2 L 153.8,299.6 L 153.7,299.6 L 153.2,299.5 L 152.7,299.5 L 152.3,299.5 L 152.1,299.6 L 151.6,299.5 L 151.5,299.2 L 151.3,299.2 L 150.7,299.1 L 150.5,299.1 L 150.4,299.2 L 150.4,299.5 L 150.4,299.7 L 150.6,300.2 L 150.8,300.8 L 150.8,301.1 L 150.7,301.8 L 150.8,302.0 L 150.8,302.2 L 150.7,302.5 L 150.8,302.7 L 151.1,302.9 L 151.7,303.0 L 151.9,303.0 L 152.2,302.9 L 152.3,302.9 L 152.4,303.0 L 152.4,303.2 L 152.3,303.8 L 152.2,304.6 L 152.1,305.1 L 152.0,305.2 L 151.6,305.3 L 151.5,305.5 L 151.3,306.2 L 151.1,306.7 L 151.0,307.4 L 150.9,307.5 L 150.8,308.4 L 150.4,309.2 L 149.5,309.1 L 148.8,309.2 L 148.2,310.6 L 148.2,311.9 L 147.8,314.7 L 147.2,314.9 L 146.9,315.8 L 147.4,316.3 L 147.7,317.4 L 147.2,321.7 L 147.0,322.4 L 146.9,322.6 L 146.9,323.9 L 145.2,324.6 L 146.5,323.4 L 146.6,322.6 L 146.7,322.3 L 146.0,319.9 L 145.5,318.1 L 144.7,317.9 L 143.6,318.3 L 142.9,317.4 L 143.1,315.3 L 143.7,313.4 L 142.1,312.4 L 142.1,312.0 L 143.6,311.6 L 144.9,310.6 L 146.9,308.7 L 149.3,304.8 L 149.6,302.6 L 149.2,300.9 L 149.2,300.4 L 149.1,299.8 L 149.0,299.3 L 148.9,299.1 L 148.7,298.6 L 148.4,298.4 L 147.9,297.9 L 147.9,298.0 L 147.7,297.9 L 147.6,297.8 L 147.3,297.7 L 146.9,297.4 L 146.9,297.3 L 145.9,296.7 L 145.9,296.6 L 146.0,296.3 L 146.1,296.1 L 146.3,295.9 L 146.4,295.5 L 146.7,295.0 L 146.8,295.0 L 146.9,295.0 L 147.0,295.2 L 147.5,295.3 L 148.1,295.6 L 148.5,295.7 L 148.8,295.6 L 149.1,295.4 L 149.5,295.3 L 149.6,295.1 L 149.7,294.6 L 149.9,294.2 L 150.0,293.9 L 150.1,293.6 L 150.4,293.1 L 150.5,292.8 L 150.5,292.3 L 150.3,292.2 L 150.1,292.2 L 149.6,292.3 L 149.3,292.3 L 149.1,291.0 L 149.6,290.9 L 149.8,290.8 L 150.1,290.8 L 150.2,290.6 L 150.5,290.1 L 150.8,289.7 L 151.1,289.2 L 151.3,288.8 L 151.4,288.7 L 151.9,288.6 L 152.0,288.6 L 152.5,288.1 L 152.7,288.2 L 153.1,287.3 L 153.3,287.4 L 155.6,281.3 L 155.1,281.1 L 155.1,280.7 L 155.1,280.3 L 155.2,279.9 L 155.2,279.4 L 155.3,278.7 L 155.3,278.4 L 155.3,278.3 L 155.4,278.0 L 155.7,277.7 L 155.9,277.2 L 155.9,276.9 L 155.9,276.7 L 155.7,276.6 L 155.4,276.5 L 154.8,276.3 L 154.6,276.2 L 154.2,275.9 L 153.7,275.6 L 153.7,275.5 L 153.6,274.9 L 150.1,274.7 L 150.0,275.3 L 149.7,275.3 L 149.2,275.3 L 148.6,275.2 L 147.8,275.0 L 147.6,275.0 L 147.7,274.4 L 147.0,274.4 L 147.0,275.2 L 146.5,275.1 L 146.1,275.1 L 146.0,275.0 L 145.4,274.9 L 144.7,274.7 L 144.5,274.7 L 144.0,274.8 L 143.5,275.0 L 143.0,275.0 L 142.2,274.9 L 141.6,274.8 L 141.2,274.7 L 140.8,274.4 L 140.8,274.2 L 140.8,273.9 L 140.7,273.5 L 140.6,273.2 L 140.5,273.2 L 140.1,273.2 L 139.5,273.3 L 139.0,273.3 L 138.4,273.3 L 138.2,273.3 L 138.2,272.7 L 136.1,273.0 L 135.0,273.7 L 135.1,273.9 L 134.8,274.2 L 134.6,274.2 L 134.3,274.4 L 134.2,274.6 L 134.0,275.0 L 133.7,275.3 L 133.1,275.6 L 133.0,275.6 L 132.5,275.6 L 132.3,275.7 L 131.9,276.2 L 131.6,276.1 L 131.1,276.0 L 130.9,275.8 L 130.9,275.7 L 130.9,275.5 L 130.7,275.3 L 129.9,275.1 L 129.1,274.9 L 128.3,274.8 L 128.5,274.4 L 126.7,274.0 L 126.7,274.4 L 126.4,274.3 L 125.9,274.2 L 125.3,274.1 L 124.9,274.0 L 124.6,274.0 L 124.4,274.2 L 124.2,274.3 L 123.8,274.3 L 123.5,274.2 L 122.7,273.7 L 121.1,272.6 L 121.0,272.8 L 120.7,272.6 L 120.5,272.6 L 120.3,272.5 L 119.8,272.5 L 119.4,272.5 L 118.8,272.4 L 118.4,272.3 L 117.8,272.2 L 117.3,272.1 L 117.0,272.1 L 116.6,272.2 L 116.2,272.1 L 115.8,272.0 L 115.6,272.1 L 115.5,272.2 L 115.4,272.4 L 115.7,272.5 L 115.7,272.9 L 116.3,273.2 L 116.5,272.8 L 117.0,272.8 L 117.1,272.9 L 117.2,273.0 L 117.2,273.2 L 117.5,273.3 L 117.7,273.4 L 117.7,273.6 L 117.8,273.8 L 117.6,274.4 L 117.3,274.6 L 117.1,274.7 L 116.5,274.7 L 116.0,274.8 L 115.6,274.5 L 115.7,274.2 L 113.7,273.3 L 113.7,273.7 L 113.3,274.7 L 113.2,274.8 L 110.8,274.4 L 110.6,276.1 L 110.9,276.2 L 110.9,276.4 L 110.9,276.5 L 111.0,276.7 L 111.2,276.9 L 111.1,277.1 L 110.9,277.4 L 110.9,277.8 L 111.0,278.2 L 110.3,278.3 L 110.3,278.8 L 110.5,278.8 L 110.3,282.5 L 109.1,282.2 L 109.0,282.4 L 108.9,282.5 L 108.7,282.6 L 108.4,282.5 L 108.4,281.8 L 107.8,281.7 L 107.8,282.1 L 107.7,282.2 L 107.2,282.2 L 106.8,282.2 L 107.1,281.5 L 107.3,280.5 L 106.2,280.2 L 106.0,282.4 L 105.2,282.2 L 105.3,281.9 L 104.1,281.7 L 104.1,281.9 L 102.7,281.6 L 102.5,282.4 L 102.1,282.4 L 102.2,281.2 L 100.9,281.0 L 101.0,281.9 L 99.8,281.8 L 99.1,283.4 L 98.8,283.4 L 98.8,283.1 L 97.8,283.0 L 97.7,283.1 L 96.9,283.0 L 96.8,283.4 L 95.9,283.3 L 95.3,283.1 L 95.4,282.8 L 95.0,282.7 L 95.1,282.1 L 94.3,281.9 L 94.1,281.5 L 94.6,280.0 L 94.6,279.8 L 94.5,279.7 L 94.4,279.4 L 94.2,279.3 L 93.7,279.2 L 93.3,279.2 L 92.9,279.1 L 92.4,279.1 L 92.3,279.1 L 92.2,279.6 L 92.2,279.9 L 92.1,279.9 L 91.5,279.8 L 91.3,279.7 L 91.3,279.2 L 91.3,278.9 L 91.2,278.9 L 90.8,278.9 L 90.5,278.8 L 90.9,275.9 L 91.7,276.4 L 91.9,276.1 L 93.3,276.8 L 93.9,277.0 L 94.1,276.5 L 96.6,276.8 L 96.8,276.7 L 96.9,275.9 L 96.9,275.8 L 89.8,272.3 L 84.2,274.7 L 83.9,274.0 L 81.7,273.8 L 81.5,273.8 L 77.5,273.3 L 77.2,273.2 L 77.2,273.6 L 77.0,274.9 L 77.2,274.9 L 81.3,275.6 L 81.3,275.7 L 81.2,275.9 L 81.3,276.1 L 81.7,276.4 L 81.6,276.8 L 81.5,277.4 L 81.3,277.4 L 81.1,277.4 L 80.9,278.4 L 79.9,277.8 L 79.8,278.6 L 79.5,278.6 L 79.3,279.5 L 79.3,279.8 L 79.0,279.9 L 78.8,280.0 L 78.5,280.0 L 78.1,279.9 L 78.0,279.8 L 78.0,279.6 L 77.9,279.2 L 78.2,278.2 L 78.3,277.1 L 78.1,277.0 L 77.6,276.8 L 77.1,276.7 L 76.7,276.5 L 76.4,277.5 L 76.1,280.2 L 75.8,280.2 L 75.4,279.7 L 75.7,277.9 L 74.3,277.6 L 74.1,278.8 L 73.6,278.7 L 73.8,278.1 L 73.5,277.7 L 72.9,277.7 L 73.0,277.3 L 73.1,276.8 L 72.7,276.7 L 72.1,276.6 L 71.1,276.0 L 71.0,276.2 L 70.6,276.6 L 70.6,277.0 L 70.6,277.4 L 70.6,277.5 L 70.5,277.5 L 70.2,277.5 L 69.8,277.6 L 69.5,278.0 L 69.3,278.0 L 68.8,277.9 L 68.1,277.8 L 67.6,277.7 L 67.2,277.5 L 66.9,277.3 L 66.3,277.0 L 65.6,276.7 L 65.0,276.5 L 64.2,276.3 L 63.4,276.0 L 62.7,275.9 L 62.1,276.0 L 61.4,276.2 L 60.6,276.5 L 60.0,276.8 L 59.7,277.0 L 59.6,277.2 L 59.5,277.3 L 60.1,278.1 L 60.8,278.5 L 61.1,278.6 L 61.2,278.7 L 61.5,278.8 L 62.3,279.1 L 63.0,279.3 L 63.8,279.5 L 64.1,279.7 L 64.3,280.2 L 64.3,280.3 L 64.2,280.6 L 64.1,280.7 L 63.9,280.7 L 63.2,280.5 L 62.9,280.4 L 62.5,279.9 L 62.3,279.8 L 61.9,279.8 L 61.7,279.6 L 60.0,279.3 L 58.2,278.1 L 56.9,278.4 L 56.8,278.4 L 56.8,278.5 L 56.9,279.9 L 56.8,280.9 L 56.7,281.3 L 56.7,281.8 L 56.5,282.2 L 56.5,282.2 L 56.4,282.2 L 56.3,282.3 L 56.1,282.5 L 56.0,283.2 L 55.9,283.3 L 55.5,283.1 L 55.5,283.1 L 55.4,282.5 L 55.4,282.1 L 55.5,281.7 L 55.4,281.2 L 55.4,281.1 L 55.5,281.0 L 55.5,280.6 L 55.3,280.5 L 55.3,280.2 L 55.3,279.9 L 55.2,279.5 L 55.2,278.9 L 55.1,278.3 L 55.0,277.7 L 54.9,277.6 L 54.8,277.5 L 54.5,277.4 L 54.2,277.3 L 53.9,277.1 L 53.6,276.5 L 53.3,276.4 L 52.9,276.3 L 52.7,276.3 L 52.5,276.3 L 52.4,276.3 L 52.3,275.9 L 52.0,275.9 L 51.7,275.9 L 51.0,276.0 L 50.5,276.1 L 50.2,276.0 L 50.0,275.8 L 50.0,275.7 L 50.2,275.5 L 50.3,275.4 L 50.5,274.9 L 50.5,274.6 L 50.5,274.5 L 50.2,274.1 L 49.9,273.8 L 49.7,273.8 L 52.4,271.2 L 52.6,271.3 L 53.2,270.7 L 53.1,270.4 L 53.5,269.9 L 53.5,269.7 L 53.1,269.5 L 50.1,272.3 L 48.7,273.7 L 48.5,273.9 L 48.2,274.1 L 47.7,274.7 L 47.5,274.8 L 47.5,275.0 L 47.7,275.2 L 47.6,275.4 L 47.7,276.0 L 47.6,276.6 L 47.5,276.6 L 47.4,276.5 L 47.3,276.4 L 47.3,276.1 L 47.4,275.9 L 47.2,275.8 L 46.9,275.7 L 46.0,275.5 L 45.8,275.3 L 45.8,275.1 L 46.0,275.1 L 46.7,275.3 L 47.1,275.4 L 47.2,274.9 L 47.2,274.9 L 46.9,274.7 L 46.2,274.5 L 45.9,274.5 L 45.8,274.4 L 45.8,274.2 L 45.8,274.0 L 46.1,273.8 L 46.0,273.7 L 45.4,273.5 L 44.8,273.4 L 43.9,273.6 L 43.0,273.8 L 42.6,274.1 L 42.6,273.5 L 40.0,248.3 L 40.0,248.3 L 40.9,248.4 L 42.5,247.8 L 43.8,247.9 L 44.4,247.3 L 44.6,246.6 L 45.5,246.2 L 46.8,245.1 L 48.2,244.4 L 47.5,243.6 L 47.4,242.3 L 46.8,242.2 L 46.1,242.4 L 44.6,241.3 L 44.4,241.2" fill="none" stroke="black" stroke-width="2"/>
</svg>