<?xml version="1.0" encoding="UTF-8"?>
<svg width="400" height="400" viewBox="0 0 400 400" xmlns="http://www.w3.org/2000/svg">
  <rect width="400" height="400" fill="white"/>
  <path d="M 71.6,199.3 L 71.6,199.3 L 71.7,199.1 L 71.9,199.2 L 72.1,199.1 L 72.3,199.1 L 72.3,198.8 L 72.0,198.4 L 71.9,198.1 L 71.2,197.5 L 71.0,197.1 L 71.1,196.6 L 70.8,196.4 L 70.2,196.2 L 70.1,196.0 L 70.3,195.8 L 70.1,195.6 L 69.4,195.8 L 68.8,195.6 L 68.5,195.6 L 68.3,195.4 L 68.2,195.0 L 67.5,194.8 L 67.5,194.5 L 67.3,194.3 L 67.0,194.2 L 66.9,194.0 L 66.5,193.9 L 65.9,193.3 L 65.7,193.2 L 65.6,192.8 L 65.7,192.4 L 65.5,192.0 L 65.8,191.7 L 66.2,191.8 L 66.4,192.0 L 67.2,192.1 L 67.6,192.4 L 67.9,192.4 L 67.9,192.2 L 67.7,191.9 L 67.7,191.7 L 67.0,191.6 L 66.8,191.0 L 66.5,191.0 L 66.0,191.1 L 65.7,191.4 L 65.0,191.5 L 64.1,191.3 L 63.9,191.6 L 63.7,191.7 L 62.9,191.6 L 62.8,191.3 L 62.8,191.3 L 62.9,191.2 L 62.5,190.7 L 62.4,190.5 L 62.6,190.3 L 63.3,190.5 L 63.4,190.2 L 63.1,189.8 L 62.9,189.8 L 62.7,190.1 L 62.5,190.0 L 62.3,189.7 L 61.5,189.6 L 61.0,189.7 L 60.6,189.3 L 60.2,189.1 L 59.6,189.1 L 59.5,188.9 L 58.8,188.7 L 58.4,188.4 L 58.3,188.3 L 58.5,187.6 L 58.4,186.9 L 58.6,186.6 L 59.2,186.7 L 59.5,186.9 L 60.4,187.2 L 60.6,187.1 L 60.9,186.7 L 61.8,186.7 L 61.9,186.5 L 62.2,186.6 L 62.5,186.8 L 62.8,186.8 L 63.4,186.9 L 64.4,187.1 L 64.5,187.3 L 64.6,187.6 L 64.9,188.2 L 65.5,188.5 L 66.0,188.6 L 66.2,188.9 L 67.0,189.1 L 67.1,189.3 L 67.4,189.4 L 68.1,189.9 L 68.8,190.0 L 69.3,190.3 L 70.1,190.3 L 70.1,190.1 L 69.6,189.4 L 69.2,189.0 L 69.4,188.6 L 69.4,188.5 L 69.2,188.3 L 69.4,188.0 L 68.9,187.4 L 67.5,186.1 L 67.5,185.8 L 66.6,185.3 L 66.3,185.0 L 66.0,184.8 L 65.8,184.5 L 64.8,183.7 L 64.6,183.4 L 63.9,183.0 L 63.4,182.5 L 63.5,182.3 L 62.7,181.7 L 62.2,181.2 L 61.7,181.1 L 60.2,180.2 L 59.2,179.9 L 59.1,180.0 L 58.8,180.0 L 58.7,180.2 L 58.6,180.3 L 58.3,180.3 L 58.2,180.8 L 58.0,180.9 L 57.9,181.6 L 57.8,181.6 L 57.6,181.2 L 57.3,181.0 L 57.1,180.5 L 56.1,180.3 L 55.9,180.0 L 55.8,179.7 L 55.5,179.7 L 55.5,179.9 L 55.1,179.9 L 54.3,179.6 L 53.9,179.6 L 53.5,178.9 L 53.3,178.4 L 53.5,177.9 L 53.4,177.6 L 53.5,177.5 L 53.3,177.2 L 53.3,176.5 L 53.2,176.4 L 53.2,176.2 L 53.1,176.0 L 53.2,175.9 L 53.1,175.6 L 53.2,175.4 L 53.0,174.8 L 53.1,174.2 L 52.9,174.0 L 53.0,173.5 L 52.8,173.3 L 53.2,173.1 L 53.1,172.7 L 53.1,172.3 L 52.6,171.7 L 52.5,171.5 L 52.2,171.1 L 50.9,170.7 L 50.5,170.4 L 50.3,170.4 L 50.1,170.3 L 50.1,170.3 L 49.9,170.2 L 49.3,170.0 L 49.0,170.2 L 49.0,170.5 L 48.8,170.7 L 48.8,171.4 L 48.6,172.2 L 48.3,172.2 L 47.6,171.7 L 47.3,171.7 L 47.1,171.9 L 47.2,172.0 L 47.2,172.6 L 46.9,172.9 L 46.7,172.9 L 46.0,172.3 L 45.9,172.2 L 45.4,172.0 L 45.0,172.2 L 44.7,172.0 L 44.4,171.9 L 44.3,172.4 L 44.2,172.6 L 43.4,172.1 L 42.9,171.7 L 42.2,171.2 L 41.7,171.0 L 41.4,171.0 L 41.3,171.0 L 40.7,170.9 L 40.6,171.0 L 40.0,164.8 L 40.8,164.3 L 41.7,163.9 L 42.0,164.0 L 42.5,164.0 L 42.9,164.1 L 43.2,164.6 L 43.4,164.7 L 44.2,165.0 L 44.8,165.1 L 45.5,164.9 L 46.2,164.9 L 47.0,164.9 L 47.9,164.6 L 48.6,164.0 L 50.6,163.3 L 51.0,163.1 L 51.2,162.8 L 51.2,162.8 L 51.2,162.9 L 51.2,162.9 L 51.9,162.6 L 52.3,162.3 L 52.6,162.3 L 52.9,162.1 L 53.8,162.1 L 55.6,161.8 L 56.3,161.6 L 57.5,161.7 L 59.3,162.4 L 61.5,163.3 L 61.7,163.4 L 62.3,163.7 L 63.4,164.6 L 63.8,164.9 L 64.4,165.3 L 64.9,165.7 L 65.3,166.3 L 65.6,166.9 L 66.0,167.4 L 66.5,168.3 L 66.9,168.9 L 68.1,170.0 L 68.5,169.9 L 68.7,170.0 L 69.1,170.4 L 69.5,170.5 L 69.7,170.6 L 70.0,170.6 L 70.4,170.7 L 70.8,171.1 L 70.9,171.6 L 71.0,172.1 L 71.0,172.9 L 71.0,173.5 L 71.2,173.7 L 71.5,173.8 L 71.6,173.9 L 72.6,174.1 L 73.0,174.5 L 73.4,174.6 L 73.7,175.3 L 73.7,175.7 L 74.3,176.0 L 74.9,176.7 L 75.0,177.1 L 75.3,177.4 L 76.3,177.7 L 76.4,177.7 L 78.7,178.2 L 79.1,178.2 L 79.4,178.1 L 80.0,178.2 L 80.4,178.6 L 80.5,178.8 L 80.8,179.0 L 81.2,179.1 L 82.7,179.2 L 83.4,178.9 L 83.8,178.9 L 84.6,179.0 L 85.2,179.9 L 86.1,179.8 L 86.5,179.7 L 86.9,179.8 L 87.1,180.0 L 88.2,179.9 L 89.6,180.3 L 90.1,180.6 L 90.9,180.7 L 91.5,180.9 L 92.0,181.6 L 92.4,181.8 L 92.9,182.8 L 93.2,183.4 L 93.5,183.4 L 93.9,183.4 L 94.1,183.3 L 94.9,183.0 L 95.3,183.6 L 95.7,183.6 L 95.8,183.8 L 96.0,184.2 L 97.5,184.4 L 97.9,184.5 L 98.2,185.3 L 98.1,185.5 L 98.4,186.1 L 98.7,186.3 L 99.1,186.4 L 99.3,186.3 L 99.6,186.4 L 100.0,186.6 L 100.1,186.8 L 100.6,187.0 L 101.3,187.2 L 102.0,187.8 L 102.1,187.8 L 102.9,188.0 L 103.6,188.3 L 103.8,188.6 L 103.8,188.9 L 103.9,189.0 L 104.4,189.7 L 104.8,189.7 L 104.9,189.5 L 105.1,189.3 L 105.5,188.7 L 106.1,188.6 L 106.4,188.7 L 106.5,189.3 L 106.6,189.4 L 106.9,189.4 L 107.2,188.9 L 107.4,188.8 L 107.8,188.9 L 108.0,188.5 L 108.3,188.4 L 108.7,188.4 L 109.2,188.9 L 109.4,188.9 L 109.6,188.5 L 109.7,188.1 L 110.2,187.7 L 111.2,187.8 L 111.8,187.6 L 112.1,187.4 L 112.7,187.3 L 113.2,187.2 L 113.4,187.5 L 113.7,187.6 L 113.8,187.7 L 114.2,187.7 L 115.0,187.6 L 115.2,187.4 L 115.7,187.3 L 116.2,187.3 L 116.5,187.6 L 116.7,187.8 L 117.0,188.1 L 117.2,188.5 L 118.4,188.2 L 118.5,188.3 L 118.6,188.5 L 119.3,188.4 L 119.6,188.4 L 119.8,188.2 L 119.9,188.3 L 120.2,188.4 L 120.2,188.5 L 120.6,188.6 L 120.9,189.0 L 121.4,189.0 L 121.6,189.0 L 122.0,189.0 L 122.4,189.2 L 122.9,189.2 L 123.4,189.0 L 123.5,189.0 L 123.7,189.2 L 124.5,189.4 L 124.9,189.8 L 125.0,189.9 L 125.1,190.0 L 125.4,190.0 L 125.5,190.0 L 125.7,189.9 L 125.8,189.9 L 125.9,189.7 L 125.9,189.7 L 126.1,189.6 L 126.4,189.5 L 126.4,189.4 L 126.6,189.4 L 126.8,189.4 L 127.0,189.4 L 127.2,189.3 L 127.2,189.2 L 127.2,189.1 L 127.1,189.1 L 127.0,189.1 L 127.0,189.2 L 127.0,189.2 L 127.0,189.2 L 127.0,189.3 L 126.9,189.3 L 126.7,189.1 L 126.6,189.0 L 126.6,188.9 L 126.6,188.7 L 126.7,188.7 L 126.8,188.7 L 126.9,188.7 L 127.0,188.8 L 127.1,188.8 L 127.3,188.7 L 127.4,188.7 L 127.6,188.6 L 127.8,188.6 L 127.8,188.6 L 127.9,188.6 L 128.0,188.6 L 128.1,188.6 L 128.6,188.3 L 128.8,188.3 L 130.0,187.9 L 130.3,187.9 L 130.7,187.7 L 131.0,187.6 L 132.8,187.0 L 133.0,186.8 L 134.0,186.5 L 134.1,186.3 L 134.5,186.0 L 134.9,185.9 L 135.3,185.9 L 136.0,185.8 L 136.1,185.8 L 136.7,185.8 L 138.1,186.0 L 138.6,186.2 L 140.0,186.3 L 140.1,186.3 L 141.3,186.5 L 141.8,186.8 L 142.1,186.8 L 142.3,186.7 L 142.4,186.8 L 143.9,187.1 L 144.6,186.7 L 145.4,187.0 L 145.7,186.9 L 146.0,186.7 L 146.1,186.5 L 146.9,186.1 L 147.5,186.1 L 148.1,186.3 L 148.4,186.2 L 148.9,186.2 L 149.3,185.9 L 149.8,186.0 L 150.3,186.4 L 150.5,186.3 L 150.6,186.3 L 151.0,186.3 L 151.5,186.1 L 151.9,186.1 L 152.1,186.0 L 153.2,186.2 L 153.6,185.9 L 154.0,185.9 L 154.3,186.0 L 154.9,186.3 L 156.0,186.0 L 156.2,186.1 L 156.3,186.3 L 157.2,186.4 L 157.4,186.3 L 157.7,186.4 L 158.0,186.7 L 158.3,186.6 L 158.8,186.5 L 159.5,186.6 L 159.9,187.1 L 160.3,187.3 L 160.9,188.3 L 161.6,188.4 L 161.7,188.3 L 162.8,188.5 L 163.1,188.5 L 163.7,188.3 L 164.4,188.4 L 165.4,188.2 L 166.1,188.2 L 167.0,188.3 L 167.4,188.2 L 167.8,188.0 L 168.6,188.1 L 169.3,187.9 L 169.9,187.8 L 170.3,187.7 L 170.5,187.7 L 171.5,187.8 L 172.6,188.0 L 173.2,187.7 L 174.0,187.8 L 174.4,187.7 L 175.5,187.6 L 177.1,187.8 L 178.5,187.8 L 178.9,187.9 L 179.5,188.0 L 179.8,188.3 L 180.2,188.4 L 180.3,188.4 L 180.6,188.6 L 180.6,188.7 L 180.8,188.7 L 181.4,188.7 L 181.7,188.9 L 182.9,189.7 L 183.4,189.7 L 183.6,189.7 L 183.8,189.7 L 183.8,189.7 L 184.0,189.6 L 184.2,189.6 L 184.5,189.6 L 184.8,189.6 L 185.0,189.6 L 185.4,189.5 L 185.6,189.4 L 185.9,189.3 L 186.1,189.3 L 186.1,189.3 L 186.1,189.4 L 186.1,189.5 L 186.1,189.6 L 186.0,189.7 L 185.8,189.7 L 185.6,189.8 L 185.3,189.8 L 185.0,189.9 L 184.7,190.0 L 184.3,190.1 L 184.0,190.3 L 183.8,190.3 L 183.7,190.3 L 183.6,190.3 L 183.6,190.2 L 183.1,190.3 L 182.7,190.5 L 181.8,191.0 L 181.3,191.2 L 181.2,191.3 L 181.0,191.5 L 181.0,191.6 L 181.0,191.7 L 181.1,191.9 L 181.1,192.0 L 181.2,192.0 L 181.3,192.1 L 181.4,192.1 L 181.4,192.2 L 181.4,192.4 L 181.4,192.5 L 181.4,192.5 L 181.1,192.6 L 180.9,192.6 L 180.7,192.7 L 180.6,192.8 L 180.5,192.9 L 180.3,192.9 L 180.2,193.0 L 180.2,193.0 L 180.2,193.2 L 180.2,193.2 L 180.1,193.3 L 179.9,193.3 L 179.8,193.4 L 179.8,193.5 L 179.7,193.6 L 179.2,193.6 L 178.6,193.5 L 178.3,193.8 L 177.6,194.1 L 177.2,194.0 L 176.9,194.2 L 176.3,194.3 L 175.5,194.6 L 175.2,194.6 L 174.2,195.1 L 173.5,195.0 L 172.8,194.7 L 172.6,194.9 L 172.7,195.1 L 173.0,195.2 L 173.4,195.4 L 173.4,195.6 L 172.7,195.7 L 172.0,196.4 L 171.2,196.9 L 171.1,197.3 L 170.3,197.9 L 170.1,198.0 L 169.7,197.9 L 169.6,198.1 L 169.2,198.5 L 169.2,198.9 L 168.9,199.3 L 168.7,199.7 L 168.0,200.3 L 167.5,200.6 L 167.0,200.7 L 166.9,200.8 L 166.8,201.0 L 166.5,201.0 L 166.2,201.4 L 166.1,201.6 L 165.9,201.8 L 165.8,201.8 L 165.7,201.5 L 165.8,201.4 L 165.7,201.3 L 165.2,201.3 L 164.5,201.7 L 164.6,201.9 L 164.9,202.3 L 165.3,202.6 L 165.8,202.6 L 166.0,202.8 L 166.0,203.0 L 165.9,203.5 L 166.1,203.7 L 167.0,203.8 L 167.3,203.9 L 168.3,204.0 L 168.8,204.1 L 169.6,204.2 L 169.9,204.0 L 170.1,204.2 L 170.8,204.2 L 171.4,204.1 L 172.7,204.2 L 173.0,204.1 L 173.6,204.1 L 174.0,204.0 L 175.3,204.4 L 175.8,204.5 L 176.5,204.6 L 177.0,204.4 L 178.5,204.1 L 178.8,204.2 L 180.2,204.3 L 181.1,204.3 L 181.9,204.3 L 182.1,204.5 L 182.4,204.5 L 182.7,204.4 L 184.5,204.3 L 185.1,204.7 L 186.8,204.9 L 187.4,204.9 L 189.3,205.1 L 189.8,205.1 L 189.9,204.9 L 190.4,204.9 L 190.7,205.0 L 191.0,205.2 L 191.7,205.3 L 192.4,205.2 L 192.7,205.1 L 193.0,204.6 L 193.2,204.5 L 194.0,204.3 L 194.0,204.2 L 193.7,204.1 L 193.8,203.9 L 194.4,203.5 L 195.2,203.3 L 195.5,203.5 L 196.5,203.1 L 196.6,202.9 L 199.2,203.3 L 199.8,203.1 L 200.2,203.1 L 200.8,202.8 L 201.3,202.5 L 202.4,202.1 L 202.8,201.8 L 203.0,201.2 L 203.6,200.8 L 204.1,200.7 L 204.8,200.8 L 205.3,200.6 L 205.8,200.6 L 206.0,200.6 L 206.0,200.8 L 205.5,201.2 L 205.4,201.4 L 205.7,201.4 L 206.2,201.1 L 206.4,201.2 L 206.0,201.6 L 206.0,201.7 L 206.4,201.6 L 206.6,201.4 L 206.7,201.2 L 206.8,201.1 L 206.8,200.9 L 207.3,200.6 L 207.4,200.2 L 207.7,199.9 L 209.4,199.6 L 210.1,199.6 L 210.4,199.6 L 211.2,199.6 L 211.8,200.0 L 213.6,200.4 L 213.5,200.5 L 211.9,200.5 L 211.1,200.3 L 210.7,200.4 L 210.6,200.5 L 210.9,200.7 L 210.8,201.0 L 210.5,201.1 L 209.9,200.9 L 209.7,200.9 L 208.9,200.6 L 208.8,200.7 L 208.4,200.8 L 207.8,201.0 L 207.5,201.2 L 207.4,201.3 L 207.0,201.6 L 206.7,201.9 L 206.4,202.6 L 206.1,202.9 L 205.9,204.3 L 205.7,204.6 L 204.8,205.2 L 204.7,205.5 L 204.8,205.9 L 205.0,206.1 L 205.8,207.1 L 206.4,207.6 L 208.4,208.6 L 208.8,208.5 L 209.5,208.6 L 209.5,209.3 L 209.7,209.6 L 210.1,209.7 L 210.9,209.7 L 211.4,210.0 L 211.5,210.2 L 212.2,210.7 L 213.1,211.2 L 213.7,211.6 L 214.4,211.9 L 214.7,212.2 L 215.2,212.3 L 215.7,212.1 L 217.5,212.3 L 217.9,212.3 L 218.4,212.4 L 218.9,212.7 L 219.4,213.2 L 220.0,213.2 L 220.4,213.1 L 220.5,213.4 L 220.3,213.6 L 221.3,213.8 L 221.4,213.9 L 222.1,214.5 L 222.6,214.6 L 223.0,214.8 L 223.4,214.8 L 223.6,214.6 L 224.0,214.6 L 224.2,214.6 L 224.4,214.4 L 225.0,214.4 L 225.3,214.3 L 225.6,214.2 L 225.7,213.9 L 226.0,213.9 L 226.6,213.4 L 226.9,212.8 L 227.2,212.5 L 228.1,212.1 L 228.4,211.7 L 228.8,211.6 L 229.2,211.2 L 229.5,211.1 L 229.9,210.8 L 230.5,210.6 L 230.5,210.5 L 230.6,210.4 L 231.1,210.0 L 231.6,209.4 L 232.2,209.0 L 232.5,208.9 L 233.2,208.3 L 233.4,207.9 L 233.8,207.6 L 234.1,207.5 L 234.3,207.6 L 234.7,207.5 L 234.9,207.5 L 235.4,207.2 L 236.2,206.9 L 236.5,206.9 L 236.8,206.6 L 236.9,206.0 L 236.6,205.7 L 236.0,205.6 L 235.9,205.4 L 236.1,204.9 L 236.5,204.7 L 236.7,204.1 L 236.9,204.0 L 237.2,204.0 L 238.0,203.4 L 238.4,203.5 L 238.9,202.8 L 239.2,202.6 L 239.8,202.6 L 240.9,202.1 L 241.2,201.8 L 241.6,201.3 L 242.0,201.2 L 242.4,201.0 L 242.6,201.0 L 243.7,200.3 L 244.0,200.2 L 244.4,200.0 L 244.2,199.7 L 244.3,199.5 L 244.1,199.3 L 244.1,199.1 L 243.8,198.9 L 243.8,198.5 L 243.5,198.1 L 243.6,197.9 L 243.8,197.8 L 244.2,197.7 L 244.4,197.5 L 244.6,197.5 L 244.7,197.4 L 245.1,197.5 L 245.4,197.7 L 245.7,197.6 L 245.6,197.3 L 245.9,197.0 L 246.0,196.6 L 246.1,196.4 L 246.2,196.2 L 245.9,196.1 L 246.0,195.7 L 245.8,195.2 L 246.0,195.0 L 246.1,194.7 L 246.6,194.5 L 247.2,194.4 L 247.4,194.5 L 247.6,194.6 L 247.9,194.7 L 248.4,195.1 L 248.4,195.5 L 248.5,195.8 L 249.6,195.9 L 250.8,195.7 L 251.8,195.3 L 252.2,195.4 L 252.3,195.7 L 252.5,195.8 L 252.6,196.0 L 252.8,196.1 L 253.5,196.6 L 253.9,196.7 L 254.4,197.0 L 254.8,197.4 L 255.5,197.8 L 255.8,198.4 L 256.5,198.9 L 257.8,199.5 L 258.3,199.5 L 258.6,199.4 L 259.0,199.3 L 259.3,199.2 L 259.9,199.3 L 260.1,199.1 L 260.2,199.0 L 261.0,198.5 L 261.1,198.7 L 261.3,199.1 L 261.5,199.3 L 261.4,200.3 L 260.5,201.2 L 260.1,201.1 L 259.8,201.3 L 259.9,201.6 L 260.1,201.7 L 260.2,201.9 L 260.5,202.1 L 261.0,202.5 L 261.1,202.4 L 261.3,202.4 L 261.7,202.6 L 261.8,202.9 L 262.4,203.6 L 263.1,204.2 L 263.7,204.5 L 264.9,204.6 L 265.3,204.5 L 266.2,204.5 L 266.5,204.3 L 266.6,204.1 L 266.9,204.0 L 267.8,203.8 L 268.3,203.9 L 268.7,203.8 L 268.9,203.9 L 269.5,204.2 L 269.5,204.3 L 270.3,204.5 L 270.6,204.6 L 271.1,205.1 L 271.3,205.1 L 271.4,204.8 L 271.8,204.8 L 272.0,205.0 L 272.8,204.8 L 272.8,204.6 L 272.8,204.5 L 272.8,204.1 L 272.6,203.8 L 272.5,203.6 L 272.0,203.4 L 271.8,203.1 L 271.7,202.8 L 271.6,202.5 L 271.3,202.2 L 270.8,201.9 L 270.3,201.3 L 270.0,201.1 L 269.7,200.5 L 269.9,200.4 L 270.1,200.3 L 270.3,200.5 L 270.6,200.5 L 270.8,200.3 L 270.8,199.8 L 270.4,199.6 L 270.1,199.1 L 269.5,198.8 L 269.6,198.4 L 269.9,198.2 L 269.8,198.1 L 269.4,197.7 L 269.4,197.3 L 269.3,197.0 L 269.3,196.9 L 268.7,196.6 L 268.6,196.4 L 268.7,196.0 L 268.9,195.9 L 269.2,195.9 L 269.2,195.6 L 269.0,195.6 L 268.9,195.4 L 268.7,195.4 L 268.3,194.9 L 268.1,194.9 L 267.8,195.0 L 267.3,195.0 L 266.9,194.8 L 266.6,194.8 L 266.4,195.0 L 266.1,194.7 L 265.9,194.5 L 265.8,194.4 L 265.6,194.1 L 265.3,194.1 L 265.4,193.8 L 265.8,193.5 L 266.5,193.2 L 267.2,192.7 L 267.4,192.7 L 267.9,192.5 L 268.7,192.6 L 269.1,192.7 L 269.9,192.9 L 271.1,193.2 L 272.1,193.4 L 273.0,193.4 L 274.1,193.0 L 274.6,192.7 L 274.7,192.4 L 275.1,192.2 L 275.4,192.2 L 275.6,192.2 L 276.0,192.3 L 276.5,192.9 L 276.9,192.9 L 277.0,192.8 L 276.9,192.7 L 276.9,192.5 L 278.2,192.9 L 278.6,193.3 L 279.0,193.4 L 280.2,193.7 L 281.5,193.9 L 281.8,193.8 L 281.8,193.9 L 281.7,194.4 L 282.2,194.7 L 282.2,195.0 L 282.3,195.2 L 282.7,195.3 L 283.7,196.0 L 284.3,196.1 L 284.4,196.1 L 284.9,196.3 L 286.3,196.6 L 286.9,197.1 L 287.5,197.3 L 287.9,197.7 L 288.2,198.1 L 288.5,198.3 L 289.1,198.4 L 289.2,198.5 L 289.5,198.7 L 291.6,199.0 L 292.9,198.3 L 293.1,198.0 L 293.4,197.7 L 293.3,197.5 L 292.7,197.0 L 292.7,196.3 L 292.8,196.1 L 293.3,195.9 L 293.6,195.7 L 293.7,195.8 L 293.8,196.0 L 294.8,196.1 L 295.6,195.7 L 296.5,195.5 L 296.9,195.4 L 298.0,194.5 L 298.6,194.3 L 299.5,194.1 L 299.8,194.0 L 300.0,194.1 L 300.0,194.3 L 299.5,195.0 L 299.6,195.2 L 299.8,195.4 L 300.3,195.4 L 300.4,195.4 L 300.6,195.4 L 300.9,195.6 L 301.6,195.6 L 302.4,195.2 L 303.1,195.2 L 303.5,195.0 L 303.9,194.6 L 304.7,193.9 L 305.1,193.6 L 305.3,193.7 L 305.7,194.4 L 306.3,194.6 L 306.6,194.8 L 306.9,194.8 L 307.0,195.1 L 306.4,195.1 L 306.2,195.4 L 306.4,195.6 L 307.0,195.9 L 307.6,195.9 L 307.9,195.9 L 308.0,196.0 L 308.6,195.6 L 309.4,194.6 L 310.2,195.1 L 309.9,195.5 L 308.7,196.1 L 307.6,196.6 L 306.6,197.4 L 306.1,197.8 L 305.9,198.1 L 305.8,198.5 L 306.1,198.6 L 306.1,199.0 L 306.1,199.4 L 306.8,200.7 L 307.6,201.2 L 308.4,201.6 L 309.3,202.2 L 310.2,202.3 L 310.7,202.0 L 311.4,201.8 L 311.3,201.3 L 311.5,201.1 L 311.8,201.3 L 311.9,201.5 L 312.3,201.7 L 312.4,201.6 L 312.4,201.4 L 312.9,201.6 L 313.1,201.4 L 313.4,201.5 L 313.2,201.9 L 313.2,202.1 L 313.9,202.7 L 314.4,202.6 L 314.9,202.5 L 315.1,202.4 L 315.6,202.1 L 315.7,201.9 L 316.3,201.7 L 316.6,201.9 L 317.0,202.0 L 317.1,202.3 L 317.3,202.3 L 317.5,202.1 L 317.8,201.6 L 318.1,201.5 L 318.7,200.7 L 318.7,200.5 L 319.3,200.1 L 319.7,199.8 L 319.9,199.3 L 320.1,199.2 L 320.4,199.1 L 320.4,198.8 L 320.2,198.1 L 320.3,197.6 L 320.6,197.2 L 321.1,196.7 L 321.7,196.8 L 321.9,196.9 L 322.2,196.7 L 322.1,196.4 L 322.0,196.0 L 322.1,195.7 L 321.6,195.4 L 321.0,195.4 L 320.4,195.5 L 319.9,195.8 L 319.3,196.3 L 319.1,196.3 L 318.2,194.4 L 318.5,194.2 L 319.0,194.0 L 319.4,193.7 L 320.0,193.7 L 320.1,193.8 L 320.4,194.0 L 320.6,193.9 L 321.5,193.7 L 322.1,193.7 L 322.5,193.5 L 322.8,192.6 L 323.0,192.2 L 323.3,192.0 L 323.9,192.0 L 324.2,191.7 L 324.4,191.4 L 325.4,190.7 L 326.3,190.4 L 326.7,190.4 L 327.4,190.5 L 327.6,191.3 L 327.3,192.0 L 327.5,192.0 L 327.6,192.2 L 327.5,193.2 L 327.6,193.7 L 327.5,194.7 L 327.1,195.0 L 326.9,195.4 L 326.3,195.4 L 326.0,195.7 L 325.6,195.6 L 325.5,195.9 L 324.9,196.5 L 324.7,196.5 L 324.5,196.6 L 323.8,197.4 L 323.7,198.2 L 323.3,198.6 L 323.2,198.9 L 323.3,199.1 L 323.6,199.1 L 323.8,198.9 L 324.0,198.9 L 324.3,198.7 L 324.6,198.8 L 324.7,198.9 L 324.7,199.6 L 324.8,200.1 L 325.3,200.8 L 325.8,201.1 L 326.0,201.1 L 326.3,200.8 L 326.9,200.6 L 326.9,200.2 L 326.8,200.0 L 326.9,199.8 L 326.9,199.5 L 326.9,199.3 L 327.3,198.9 L 327.3,198.6 L 327.5,198.5 L 328.0,198.6 L 327.9,199.2 L 327.8,199.3 L 327.9,199.6 L 327.9,200.0 L 327.7,200.1 L 327.6,200.5 L 327.6,200.6 L 327.6,200.9 L 327.9,201.2 L 328.2,201.0 L 328.4,201.0 L 328.6,200.7 L 328.9,200.4 L 328.9,200.2 L 329.4,200.1 L 329.8,200.3 L 330.5,200.2 L 330.7,200.1 L 331.2,199.9 L 331.9,199.4 L 331.9,199.2 L 332.5,199.2 L 333.2,198.6 L 333.3,198.5 L 333.7,198.0 L 333.8,197.8 L 333.2,197.3 L 333.2,197.2 L 333.8,197.1 L 334.2,197.1 L 334.3,196.8 L 334.1,196.7 L 334.8,196.3 L 335.4,196.3 L 335.7,196.1 L 335.6,195.9 L 335.4,195.7 L 334.9,195.6 L 335.0,195.5 L 335.3,195.5 L 336.0,195.2 L 336.2,194.9 L 336.1,194.7 L 336.0,194.4 L 335.9,194.3 L 335.6,194.3 L 335.3,194.1 L 335.3,194.0 L 335.7,194.0 L 336.6,193.8 L 336.7,193.6 L 336.9,193.3 L 336.9,192.6 L 337.1,192.4 L 337.2,192.3 L 337.6,192.2 L 338.0,192.6 L 338.3,192.6 L 338.3,193.0 L 338.4,193.2 L 338.3,193.4 L 338.4,193.6 L 338.7,193.7 L 339.0,193.4 L 339.0,193.3 L 340.2,193.1 L 340.6,193.0 L 341.1,192.9 L 341.7,192.9 L 342.5,192.8 L 342.7,192.9 L 343.4,192.7 L 344.0,192.3 L 344.9,192.0 L 345.2,191.8 L 345.3,191.8 L 345.8,191.8 L 346.4,191.5 L 347.6,191.1 L 347.8,190.9 L 347.9,191.2 L 348.4,191.3 L 348.6,191.1 L 348.4,190.9 L 348.2,190.7 L 348.3,190.6 L 349.3,190.4 L 349.8,190.0 L 350.3,190.0 L 351.0,190.0 L 351.3,190.0 L 351.9,190.0 L 352.1,190.1 L 352.6,190.3 L 352.8,190.2 L 353.0,190.4 L 353.0,190.5 L 353.5,190.7 L 354.0,191.0 L 354.8,190.9 L 355.4,190.7 L 356.0,190.7 L 356.3,190.4 L 356.3,190.3 L 356.2,190.1 L 356.5,189.9 L 356.9,189.9 L 357.0,189.9 L 358.3,189.9 L 358.5,190.0 L 358.5,190.3 L 359.4,190.5 L 359.7,190.8 L 359.8,191.4 L 360.0,191.9 L 360.0,192.1 L 359.7,191.9 L 359.3,190.9 L 359.0,190.9 L 357.8,191.0 L 356.4,190.9 L 356.2,190.8 L 355.3,191.6 L 353.9,192.5 L 352.6,192.7 L 352.1,192.6 L 351.5,192.4 L 351.6,192.2 L 351.7,192.0 L 350.9,191.9 L 349.3,191.9 L 348.8,192.0 L 347.3,192.0 L 346.4,192.4 L 345.9,192.5 L 345.1,193.1 L 345.1,193.1 L 344.7,193.2 L 344.3,193.2 L 343.6,193.4 L 343.4,193.7 L 343.5,193.9 L 343.7,194.0 L 343.8,194.2 L 343.1,194.3 L 342.5,195.2 L 342.3,195.8 L 342.3,196.1 L 342.3,196.3 L 342.6,196.7 L 343.2,196.8 L 343.3,196.9 L 342.8,197.8 L 342.8,198.5 L 342.9,198.8 L 343.7,199.1 L 343.9,199.1 L 344.5,199.3 L 344.7,199.3 L 345.8,199.6 L 346.5,200.0 L 346.6,200.1 L 346.4,200.3 L 345.8,200.2 L 345.5,200.1 L 345.5,199.8 L 345.2,199.6 L 344.8,199.7 L 344.5,199.9 L 344.1,200.1 L 343.4,200.3 L 342.7,201.2 L 342.4,201.2 L 341.6,200.7 L 341.2,200.6 L 340.8,200.8 L 340.5,200.8 L 340.6,200.1 L 340.4,200.1 L 340.0,200.5 L 339.7,200.7 L 339.3,200.8 L 339.3,200.5 L 339.1,200.2 L 338.9,200.2 L 338.6,200.4 L 337.6,200.3 L 337.2,200.6 L 337.1,201.0 L 336.7,201.3 L 336.3,201.4 L 336.1,201.4 L 335.4,200.8 L 335.2,200.9 L 334.6,200.9 L 333.7,201.4 L 333.1,202.0 L 332.4,202.2 L 331.4,203.0 L 330.9,203.6 L 330.6,205.6 L 330.3,206.7 L 329.9,207.3 L 329.8,207.6 L 329.6,207.8 L 329.1,208.2 L 328.6,208.4 L 327.9,208.9 L 327.4,209.4 L 326.9,209.7 L 326.5,209.9 L 326.0,210.7 L 325.5,211.2 L 324.4,211.5 L 324.0,211.5 L 323.3,211.0 L 323.1,211.0 L 322.4,210.5 L 322.2,210.6 L 321.9,210.5 L 321.8,210.2 L 321.5,210.1 L 320.8,210.2 L 320.0,210.4 L 319.4,210.8 L 318.9,210.9 L 318.2,211.3 L 317.7,210.3 L 317.5,210.2 L 317.1,210.3 L 316.4,210.2 L 316.2,210.4 L 314.9,210.7 L 313.8,211.9 L 313.3,212.1 L 313.0,212.2 L 312.8,212.0 L 312.1,211.9 L 312.1,211.6 L 312.0,211.5 L 311.7,211.5 L 311.5,211.9 L 311.4,212.0 L 311.3,212.2 L 311.6,212.2 L 311.6,212.9 L 311.8,213.5 L 311.8,214.1 L 312.2,214.9 L 312.4,215.2 L 312.8,215.3 L 313.4,215.6 L 313.4,215.9 L 312.4,216.7 L 311.6,217.1 L 310.6,217.3 L 309.9,217.2 L 306.5,218.1 L 305.8,218.4 L 304.7,218.5 L 301.3,219.6 L 300.4,220.6 L 300.1,221.0 L 300.0,221.2 L 300.0,221.3 L 299.9,221.5 L 299.3,221.5 L 298.9,221.1 L 298.8,221.0 L 298.3,220.9 L 297.9,220.8 L 297.9,220.7 L 297.7,220.6 L 297.2,220.8 L 296.9,220.8 L 296.5,220.4 L 296.2,220.2 L 296.3,219.9 L 296.3,219.2 L 295.4,219.1 L 295.2,219.1 L 294.4,219.1 L 293.6,219.6 L 293.0,219.7 L 292.6,220.0 L 291.4,220.2 L 291.0,220.2 L 290.4,219.8 L 290.3,219.3 L 290.5,218.9 L 290.4,218.8 L 289.8,218.9 L 289.2,218.6 L 288.5,218.9 L 288.2,218.8 L 287.7,218.4 L 287.4,218.0 L 287.4,217.3 L 287.2,217.0 L 287.0,216.2 L 286.7,216.0 L 286.5,215.9 L 286.1,216.2 L 285.8,216.6 L 285.5,216.5 L 285.2,216.1 L 285.2,215.4 L 285.1,215.2 L 285.1,214.9 L 284.9,214.5 L 284.7,214.1 L 284.8,213.9 L 284.8,213.3 L 284.5,212.6 L 284.4,212.0 L 284.1,211.7 L 284.0,211.8 L 283.9,211.5 L 283.6,211.4 L 283.2,211.6 L 282.9,212.1 L 282.8,212.3 L 281.8,213.0 L 280.6,212.9 L 280.3,212.9 L 280.1,213.4 L 279.8,213.6 L 279.2,213.7 L 278.8,213.5 L 278.5,213.5 L 278.2,213.0 L 277.8,212.8 L 277.6,212.5 L 277.6,212.2 L 277.5,212.2 L 277.4,212.4 L 277.1,212.3 L 276.8,211.9 L 276.7,211.7 L 276.2,211.4 L 275.6,211.3 L 274.9,210.8 L 274.4,210.6 L 273.8,210.1 L 273.1,209.8 L 272.6,209.7 L 271.8,209.4 L 271.8,209.0 L 271.7,209.0 L 271.5,209.1 L 271.4,209.6 L 271.1,209.7 L 270.4,209.7 L 270.2,209.6 L 269.9,209.5 L 269.8,209.7 L 269.3,209.6 L 268.0,209.7 L 267.2,210.1 L 266.9,210.2 L 266.6,210.4 L 266.6,210.8 L 266.4,211.2 L 266.2,211.4 L 266.1,211.7 L 265.8,212.1 L 265.2,212.3 L 264.9,212.3 L 264.7,212.2 L 264.4,212.1 L 262.9,210.6 L 262.8,210.5 L 262.7,210.3 L 262.4,210.3 L 262.2,210.3 L 261.8,210.2 L 261.7,210.0 L 261.6,209.8 L 261.4,209.8 L 261.2,209.5 L 261.2,209.4 L 259.8,208.6 L 259.4,208.4 L 259.1,208.3 L 258.6,208.7 L 258.1,208.7 L 255.9,210.2 L 255.2,210.3 L 255.0,210.3 L 254.7,210.3 L 254.3,210.5 L 253.7,210.4 L 253.3,210.0 L 252.8,209.8 L 252.6,209.7 L 251.5,209.9 L 250.9,210.1 L 250.5,210.1 L 249.7,210.5 L 248.4,211.3 L 247.9,211.1 L 247.6,211.2 L 246.6,211.1 L 246.4,211.2 L 246.0,211.3 L 244.6,211.2 L 243.1,211.3 L 242.6,211.6 L 242.3,211.6 L 241.8,211.6 L 241.3,212.1 L 240.6,212.2 L 240.2,212.6 L 239.9,212.6 L 239.2,212.9 L 238.1,213.7 L 237.6,213.8 L 237.3,214.0 L 237.4,214.3 L 237.0,214.9 L 236.8,214.9 L 236.4,215.2 L 236.4,215.3 L 236.3,215.5 L 236.1,215.5 L 235.8,215.2 L 235.8,215.2 L 234.2,214.9 L 233.2,215.0 L 233.2,215.0 L 232.8,215.2 L 232.0,216.1 L 231.6,216.6 L 231.2,216.9 L 231.3,217.1 L 231.1,217.5 L 231.0,217.9 L 231.1,218.4 L 231.7,219.1 L 231.8,219.3 L 231.8,220.0 L 231.2,220.6 L 229.6,221.5 L 228.9,221.9 L 227.7,222.5 L 225.7,223.1 L 225.2,223.3 L 224.0,223.6 L 223.2,223.6 L 222.7,223.9 L 221.2,223.8 L 220.6,223.7 L 220.0,223.7 L 219.1,223.9 L 218.4,224.2 L 217.9,224.3 L 216.3,224.0 L 216.2,223.8 L 215.4,223.8 L 214.7,223.9 L 213.5,224.7 L 212.9,225.5 L 212.7,226.7 L 212.0,227.8 L 211.8,228.0 L 211.4,227.9 L 210.8,227.7 L 210.5,227.5 L 209.4,227.3 L 209.0,227.2 L 208.6,227.1 L 208.2,226.8 L 207.9,226.7 L 207.8,226.6 L 207.5,226.5 L 207.3,226.4 L 206.9,226.1 L 206.4,225.8 L 205.8,225.1 L 205.3,224.9 L 205.2,224.7 L 204.5,224.6 L 203.8,224.1 L 203.7,224.0 L 203.1,223.8 L 202.8,223.4 L 202.5,223.3 L 202.2,223.3 L 201.6,223.7 L 201.3,223.7 L 201.0,223.6 L 200.1,223.6 L 199.7,223.3 L 198.9,223.3 L 198.7,223.4 L 198.6,223.6 L 198.9,223.9 L 198.9,224.3 L 199.2,224.5 L 199.1,224.7 L 198.7,225.0 L 198.1,224.9 L 197.8,225.1 L 197.1,225.1 L 196.8,224.8 L 195.3,224.5 L 194.9,224.6 L 193.4,225.5 L 193.4,225.8 L 191.8,226.8 L 191.6,227.1 L 191.2,227.5 L 190.9,227.5 L 190.2,227.9 L 189.8,228.3 L 189.2,228.7 L 188.5,228.6 L 187.4,227.8 L 186.8,227.3 L 186.8,227.2 L 187.1,226.9 L 187.9,227.2 L 188.2,227.1 L 188.2,226.9 L 187.8,226.8 L 187.7,226.5 L 187.7,226.2 L 187.6,226.0 L 187.2,226.3 L 186.9,226.1 L 186.8,226.1 L 186.6,226.0 L 186.3,226.0 L 186.2,225.9 L 186.5,225.5 L 186.7,225.3 L 186.7,224.9 L 186.6,224.7 L 185.8,223.9 L 185.8,223.7 L 185.4,223.6 L 184.8,223.2 L 184.7,223.1 L 184.1,223.0 L 183.8,223.1 L 183.1,222.8 L 182.8,222.6 L 181.7,222.6 L 180.9,222.4 L 180.6,222.5 L 180.0,222.3 L 179.7,222.5 L 179.3,222.4 L 178.9,222.5 L 178.9,222.7 L 179.1,222.8 L 179.1,223.0 L 178.9,223.0 L 178.3,222.7 L 177.9,222.6 L 177.4,222.7 L 177.0,222.9 L 176.7,223.0 L 175.7,222.9 L 175.3,222.6 L 175.0,222.5 L 174.5,222.3 L 172.9,221.9 L 172.5,222.0 L 171.7,222.0 L 171.0,221.8 L 170.7,221.4 L 169.7,221.2 L 168.9,221.1 L 167.8,221.2 L 167.8,221.5 L 167.4,221.6 L 166.5,221.6 L 166.4,221.8 L 166.0,221.7 L 165.6,221.8 L 164.5,222.7 L 163.8,223.0 L 163.5,223.3 L 163.2,223.7 L 163.1,223.8 L 162.8,223.5 L 162.7,223.6 L 162.1,223.4 L 161.9,223.6 L 161.5,223.7 L 161.5,224.0 L 161.2,224.0 L 160.3,223.7 L 160.0,223.8 L 160.0,224.0 L 160.2,224.2 L 160.2,224.5 L 160.4,224.8 L 160.4,225.2 L 160.6,225.4 L 160.8,225.7 L 160.6,225.8 L 159.6,225.4 L 159.4,225.4 L 159.3,225.7 L 159.1,225.6 L 158.6,225.8 L 158.3,225.8 L 157.9,225.5 L 157.7,225.7 L 157.6,226.5 L 157.5,226.6 L 156.5,226.5 L 156.3,226.6 L 155.9,226.6 L 155.8,226.3 L 155.6,226.2 L 155.5,226.0 L 155.6,225.9 L 155.9,225.7 L 155.9,225.1 L 155.1,224.6 L 155.0,224.9 L 154.6,224.6 L 154.2,224.7 L 153.8,224.7 L 153.6,224.5 L 153.7,223.7 L 153.5,223.5 L 153.6,223.3 L 153.7,223.2 L 153.6,222.9 L 152.3,222.8 L 151.8,222.5 L 150.7,220.9 L 150.1,220.7 L 149.2,219.5 L 148.5,219.3 L 147.9,219.0 L 147.7,218.8 L 147.8,218.6 L 147.3,218.5 L 146.9,218.3 L 146.2,217.8 L 145.9,217.7 L 145.9,218.4 L 146.3,218.4 L 146.6,218.7 L 146.8,219.1 L 147.1,219.4 L 147.3,219.6 L 147.2,219.7 L 146.9,219.6 L 146.3,219.1 L 146.0,219.0 L 145.8,218.8 L 145.5,218.8 L 144.7,218.8 L 143.1,218.8 L 143.1,219.0 L 142.4,219.1 L 141.5,219.1 L 141.3,219.1 L 140.9,219.3 L 140.6,219.5 L 140.6,219.8 L 140.3,220.0 L 140.2,220.2 L 140.3,220.4 L 140.0,220.7 L 139.2,220.8 L 138.9,220.8 L 138.6,220.9 L 138.5,221.2 L 138.2,221.4 L 137.9,221.5 L 137.4,222.0 L 137.9,222.5 L 138.1,222.6 L 138.2,222.8 L 138.5,222.9 L 138.6,223.2 L 138.4,223.3 L 137.0,223.1 L 135.9,223.2 L 135.3,223.6 L 134.7,223.3 L 134.4,223.1 L 134.1,223.0 L 133.8,222.8 L 133.4,222.8 L 132.7,222.9 L 132.1,223.0 L 131.6,223.4 L 131.4,223.7 L 131.6,223.9 L 131.6,224.0 L 131.4,224.5 L 131.6,224.9 L 131.8,225.2 L 131.8,225.8 L 131.6,226.3 L 130.9,226.8 L 130.4,227.0 L 130.1,227.0 L 129.8,226.9 L 129.4,226.8 L 129.2,226.7 L 128.9,226.7 L 128.7,226.8 L 128.6,227.0 L 128.8,227.4 L 128.8,228.1 L 128.6,228.3 L 127.9,228.6 L 127.4,228.6 L 127.2,228.5 L 125.9,228.2 L 125.1,228.6 L 124.7,228.6 L 124.1,228.5 L 123.6,228.4 L 122.4,228.5 L 122.2,228.7 L 121.8,228.7 L 121.5,228.5 L 121.0,228.7 L 120.6,228.9 L 119.9,229.1 L 118.1,229.4 L 116.9,229.8 L 116.1,229.8 L 115.1,229.6 L 114.4,229.7 L 112.2,229.6 L 111.8,229.8 L 111.5,229.8 L 111.0,230.0 L 110.5,230.1 L 108.8,231.2 L 107.2,231.0 L 105.8,231.0 L 105.3,231.3 L 105.1,231.3 L 105.0,231.6 L 104.9,231.8 L 105.0,231.9 L 105.0,232.1 L 104.9,232.3 L 104.3,232.6 L 103.6,232.5 L 103.2,232.6 L 100.1,232.3 L 99.4,232.1 L 98.0,231.9 L 96.4,232.2 L 95.8,232.2 L 94.6,231.4 L 93.3,230.7 L 91.9,230.2 L 90.8,230.0 L 88.6,230.2 L 88.0,230.6 L 87.5,231.1 L 87.1,231.3 L 86.4,231.8 L 85.2,232.5 L 84.5,232.7 L 84.3,232.9 L 84.2,233.0 L 84.3,233.4 L 84.5,233.5 L 85.1,233.8 L 85.1,233.8 L 85.4,234.0 L 85.4,234.1 L 85.4,234.2 L 85.4,234.3 L 85.3,234.4 L 85.3,234.4 L 85.1,234.3 L 84.9,234.3 L 84.8,234.4 L 84.8,234.4 L 84.7,234.5 L 84.7,234.5 L 84.6,234.5 L 84.6,234.6 L 84.5,234.7 L 84.5,234.7 L 84.4,234.8 L 84.4,234.9 L 84.4,234.9 L 84.6,235.1 L 84.8,235.2 L 84.9,235.2 L 84.9,235.3 L 85.1,235.3 L 85.1,235.3 L 85.2,235.3 L 85.2,235.4 L 85.5,235.5 L 85.5,235.6 L 85.5,235.9 L 85.5,236.1 L 85.6,236.5 L 85.6,236.6 L 85.6,236.8 L 85.7,236.9 L 85.9,237.2 L 86.1,237.3 L 86.5,237.5 L 86.6,237.6 L 86.6,237.7 L 86.5,237.9 L 86.6,238.0 L 86.6,238.1 L 86.6,238.2 L 86.7,238.3 L 86.6,238.4 L 86.2,238.3 L 86.3,238.2 L 86.2,238.1 L 86.1,238.2 L 85.9,238.1 L 85.8,238.0 L 85.5,238.0 L 85.4,237.9 L 85.2,237.8 L 85.0,237.7 L 84.8,237.6 L 84.8,237.6 L 84.8,237.5 L 84.8,237.5 L 84.9,237.4 L 85.0,237.2 L 84.6,237.1 L 84.6,237.0 L 84.5,237.0 L 84.5,237.2 L 84.4,237.2 L 84.2,237.1 L 84.1,237.0 L 83.8,236.9 L 83.4,236.7 L 83.3,236.6 L 83.1,236.5 L 83.0,236.4 L 82.8,236.3 L 82.6,236.3 L 82.3,236.2 L 82.2,236.2 L 82.1,236.1 L 82.0,236.1 L 82.0,236.2 L 82.0,236.3 L 81.9,236.2 L 81.8,236.2 L 81.7,236.1 L 81.6,236.0 L 81.4,235.9 L 81.3,235.8 L 81.2,235.8 L 81.0,235.4 L 80.8,235.2 L 80.4,235.2 L 80.2,234.9 L 80.3,234.7 L 80.3,234.5 L 80.2,234.2 L 80.5,234.0 L 80.9,234.0 L 81.6,233.8 L 82.1,233.9 L 82.3,233.7 L 82.4,233.2 L 82.6,232.8 L 82.7,232.3 L 82.0,231.9 L 81.8,231.5 L 81.8,231.2 L 82.2,231.1 L 82.4,230.8 L 82.3,230.7 L 82.0,230.6 L 81.2,230.5 L 81.1,230.4 L 80.6,230.5 L 80.2,230.0 L 79.6,229.1 L 79.9,228.3 L 80.4,228.1 L 80.3,227.9 L 80.0,227.9 L 79.8,227.9 L 79.4,227.6 L 79.4,227.1 L 79.0,227.1 L 78.1,226.8 L 78.0,226.7 L 78.0,226.4 L 78.4,226.0 L 78.0,225.3 L 77.6,225.2 L 77.4,224.8 L 77.5,224.6 L 78.2,224.6 L 79.0,224.6 L 79.5,224.7 L 79.7,225.3 L 80.0,225.3 L 80.3,225.5 L 80.5,225.4 L 81.5,225.1 L 81.4,225.0 L 80.8,224.6 L 80.6,224.4 L 80.5,224.1 L 80.8,223.9 L 81.0,224.0 L 81.2,224.0 L 81.1,223.7 L 81.1,223.5 L 80.8,223.4 L 80.6,223.0 L 81.1,222.6 L 81.3,222.5 L 81.4,222.4 L 81.6,221.9 L 81.5,221.9 L 81.5,221.9 L 82.4,218.9 L 82.4,218.9 L 83.2,219.0 L 83.5,219.3 L 83.6,219.4 L 84.2,219.8 L 84.4,219.9 L 84.6,220.0 L 85.2,220.1 L 86.2,221.1 L 86.3,221.4 L 86.7,221.5 L 86.8,221.7 L 87.1,221.9 L 88.1,221.9 L 88.7,221.9 L 89.1,221.9 L 89.5,222.1 L 90.6,222.3 L 90.7,222.4 L 90.9,222.4 L 90.9,222.1 L 91.3,221.8 L 91.3,221.5 L 91.4,221.4 L 91.6,221.4 L 92.1,221.5 L 92.3,221.2 L 93.1,221.2 L 93.5,221.1 L 94.0,221.1 L 94.0,221.4 L 94.5,221.5 L 94.8,221.4 L 95.1,221.2 L 95.3,221.1 L 95.6,220.9 L 96.3,220.6 L 96.6,220.4 L 97.0,220.5 L 97.4,220.1 L 97.5,219.9 L 98.3,220.0 L 98.7,219.7 L 99.1,219.7 L 99.1,219.5 L 99.5,219.5 L 100.0,219.4 L 100.8,219.1 L 101.3,218.7 L 101.7,218.7 L 102.0,219.1 L 101.9,219.3 L 102.1,219.6 L 102.0,219.9 L 102.2,220.0 L 102.7,220.3 L 102.8,220.5 L 103.2,221.1 L 103.8,221.1 L 104.0,221.0 L 104.3,221.0 L 104.5,220.8 L 105.1,220.6 L 105.7,220.6 L 106.4,220.5 L 106.5,220.5 L 106.7,220.4 L 107.0,220.3 L 107.6,220.3 L 107.8,220.5 L 108.5,220.3 L 108.6,220.5 L 109.1,220.8 L 111.1,220.7 L 111.4,220.6 L 111.6,220.4 L 112.1,220.3 L 112.8,219.9 L 112.9,220.0 L 113.1,220.6 L 113.1,221.4 L 113.0,221.6 L 113.1,221.8 L 113.5,221.8 L 113.8,221.6 L 114.0,221.5 L 114.2,221.4 L 114.2,221.6 L 114.2,221.7 L 114.5,221.7 L 114.6,221.6 L 115.2,221.5 L 115.6,221.5 L 116.8,220.9 L 117.5,221.3 L 118.1,221.3 L 119.0,221.1 L 119.2,221.0 L 119.3,221.1 L 119.7,221.1 L 120.1,220.8 L 120.7,220.7 L 121.4,220.4 L 121.6,220.2 L 121.5,220.1 L 121.2,220.0 L 121.2,219.7 L 121.1,219.5 L 121.1,219.3 L 121.5,219.3 L 121.3,218.9 L 121.6,218.5 L 121.6,218.3 L 121.5,218.2 L 121.7,218.1 L 121.9,218.1 L 122.4,218.4 L 122.6,218.3 L 122.8,218.2 L 123.0,218.0 L 123.4,218.1 L 123.5,218.0 L 123.5,217.7 L 124.1,217.1 L 124.4,216.3 L 124.3,216.1 L 123.9,215.9 L 123.7,216.1 L 123.4,216.0 L 123.1,216.1 L 123.0,216.1 L 123.0,215.7 L 122.0,215.5 L 121.9,215.2 L 121.5,214.9 L 121.4,214.7 L 121.4,214.6 L 121.1,214.3 L 121.0,214.2 L 120.9,213.9 L 120.3,213.8 L 119.9,213.5 L 119.8,213.3 L 119.4,213.2 L 119.2,213.3 L 119.0,213.1 L 118.9,212.8 L 118.4,212.5 L 117.3,212.3 L 117.2,212.1 L 116.7,212.1 L 116.3,211.7 L 114.9,211.4 L 114.2,211.6 L 113.4,211.6 L 112.8,211.7 L 112.7,211.3 L 112.5,211.3 L 111.9,211.4 L 111.5,211.2 L 111.2,211.3 L 110.2,211.9 L 110.2,212.1 L 110.0,212.3 L 109.9,212.5 L 109.7,212.6 L 109.3,212.5 L 108.6,212.5 L 108.3,212.6 L 108.3,212.7 L 108.5,212.9 L 108.5,213.2 L 108.7,213.5 L 108.7,213.6 L 108.5,214.0 L 107.8,214.2 L 107.5,214.1 L 107.1,214.3 L 106.4,214.2 L 106.2,214.3 L 105.7,214.4 L 105.3,214.1 L 104.9,214.1 L 104.3,213.9 L 103.9,213.9 L 103.4,214.1 L 103.4,214.0 L 103.1,213.9 L 102.9,214.0 L 102.0,213.5 L 101.6,213.1 L 101.3,213.1 L 101.1,213.2 L 100.3,213.1 L 100.1,212.8 L 99.3,212.7 L 99.0,212.7 L 98.8,213.0 L 98.5,213.0 L 97.8,213.1 L 97.2,212.7 L 97.0,212.7 L 97.1,212.3 L 97.2,212.4 L 97.2,212.3 L 97.0,212.3 L 96.9,212.7 L 96.7,212.7 L 96.6,212.8 L 96.4,212.8 L 95.6,212.5 L 94.6,211.8 L 94.2,211.3 L 94.1,211.0 L 93.7,211.0 L 93.5,210.6 L 92.5,210.4 L 91.9,210.5 L 91.6,210.8 L 91.1,210.9 L 90.4,211.1 L 90.1,211.0 L 89.5,210.9 L 89.3,210.7 L 88.8,210.8 L 88.6,210.7 L 87.7,210.4 L 87.4,210.4 L 86.6,209.7 L 86.1,209.5 L 86.0,209.2 L 86.0,208.8 L 85.8,208.6 L 85.6,208.6 L 85.4,208.7 L 85.1,208.4 L 84.3,208.5 L 83.5,208.0 L 83.0,207.3 L 82.6,207.0 L 82.1,206.1 L 81.9,206.1 L 81.7,205.6 L 80.6,205.1 L 80.2,205.0 L 79.8,205.5 L 79.3,205.7 L 78.8,206.1 L 78.3,206.1 L 78.0,206.1 L 77.4,206.9 L 77.2,207.0 L 76.7,207.0 L 76.4,206.8 L 76.3,206.5 L 75.9,206.4 L 75.8,206.0 L 75.9,205.7 L 75.7,205.5 L 75.4,205.5 L 75.4,205.6 L 75.3,205.5 L 71.6,199.3" fill="none" stroke="black" stroke-width="2"/>
</svg>