<?xml version="1.0" encoding="UTF-8"?>
<svg width="400" height="400" viewBox="0 0 400 400" xmlns="http://www.w3.org/2000/svg">
  <rect width="400" height="400" fill="white"/>
  <path d="M 58.3,244.3 L 57.6,242.1 L 40.7,189.1 L 40.0,186.8 L 40.8,186.9 L 44.3,186.8 L 51.5,184.5 L 57.5,183.1 L 59.9,182.2 L 64.2,180.1 L 68.5,177.2 L 69.2,176.0 L 71.5,174.4 L 74.9,172.8 L 78.2,171.9 L 84.9,168.9 L 85.9,168.2 L 86.9,166.9 L 91.5,163.6 L 93.3,162.6 L 100.3,157.7 L 101.6,157.1 L 102.6,156.2 L 104.7,155.1 L 106.5,155.0 L 108.6,154.2 L 111.0,153.4 L 113.1,152.5 L 115.5,150.7 L 122.1,148.8 L 129.1,146.6 L 130.8,146.6 L 134.9,144.0 L 137.9,141.7 L 138.8,141.4 L 140.7,140.7 L 142.6,140.4 L 144.4,140.3 L 145.4,139.8 L 146.0,139.3 L 145.7,138.1 L 146.0,137.7 L 146.9,137.0 L 150.2,136.3 L 155.4,135.9 L 160.8,136.4 L 162.9,136.2 L 166.1,135.5 L 168.1,134.8 L 171.1,134.9 L 171.1,134.9 L 175.0,135.1 L 181.5,136.0 L 188.5,134.8 L 192.2,134.7 L 202.0,136.3 L 204.5,136.2 L 205.4,136.4 L 205.8,137.1 L 206.2,136.6 L 207.1,136.9 L 207.6,138.0 L 208.0,138.1 L 209.2,138.9 L 213.3,139.3 L 216.5,139.0 L 217.7,138.6 L 219.7,138.9 L 221.9,140.7 L 223.4,142.4 L 225.2,143.0 L 227.1,144.2 L 228.6,144.6 L 229.6,144.3 L 230.5,144.3 L 231.5,143.9 L 232.5,144.0 L 234.8,145.0 L 236.0,146.3 L 237.0,146.3 L 237.9,146.1 L 238.7,146.2 L 240.5,147.4 L 242.6,148.0 L 244.0,149.4 L 245.2,149.5 L 246.5,148.9 L 250.5,149.6 L 252.8,149.0 L 255.0,149.1 L 256.7,148.5 L 258.4,148.5 L 260.3,147.4 L 262.3,148.2 L 262.7,147.9 L 263.6,147.8 L 264.6,147.4 L 266.4,146.1 L 268.5,145.0 L 270.5,144.3 L 272.9,143.0 L 276.8,141.9 L 277.1,141.6 L 277.5,141.3 L 278.7,141.2 L 280.3,140.5 L 280.9,140.4 L 282.8,140.0 L 284.9,138.8 L 287.1,139.0 L 294.0,137.6 L 295.1,137.6 L 296.1,136.7 L 296.8,136.5 L 297.3,136.1 L 299.5,135.2 L 307.5,133.2 L 309.6,132.5 L 312.9,132.0 L 314.9,131.4 L 317.5,130.1 L 319.8,129.3 L 321.4,129.4 L 324.1,129.2 L 328.8,128.2 L 335.2,129.2 L 336.9,129.8 L 339.6,131.4 L 345.8,132.5 L 349.6,133.8 L 353.3,135.6 L 354.8,137.0 L 355.9,138.8 L 356.5,139.4 L 356.7,140.0 L 356.3,140.4 L 356.0,140.6 L 356.4,141.0 L 356.1,141.6 L 356.3,141.8 L 357.3,141.7 L 358.2,142.9 L 358.6,146.3 L 358.3,146.7 L 358.5,147.0 L 359.8,147.6 L 360.0,148.1 L 358.8,147.9 L 359.5,148.7 L 359.6,149.1 L 358.5,149.0 L 358.2,149.1 L 356.5,149.6 L 356.0,150.1 L 355.2,150.5 L 354.2,152.0 L 352.4,154.1 L 351.6,154.0 L 350.8,154.5 L 352.3,156.0 L 352.3,156.4 L 351.3,155.8 L 350.1,155.5 L 349.5,155.9 L 347.9,155.5 L 346.9,155.1 L 344.5,155.3 L 343.5,155.1 L 342.3,155.2 L 342.1,155.4 L 341.2,155.5 L 338.8,155.3 L 332.7,155.1 L 328.5,155.0 L 327.8,154.7 L 327.3,154.8 L 327.0,155.5 L 324.6,156.1 L 324.0,156.5 L 322.9,156.5 L 323.0,155.6 L 320.4,156.0 L 317.7,156.1 L 316.8,156.6 L 315.1,156.6 L 313.3,157.5 L 312.5,158.5 L 311.7,159.8 L 310.4,162.4 L 309.6,164.9 L 309.3,166.8 L 308.8,167.7 L 308.5,168.7 L 308.1,169.4 L 306.5,170.5 L 305.1,170.2 L 303.9,170.1 L 303.2,170.3 L 301.6,170.8 L 299.5,170.5 L 298.1,170.7 L 296.1,171.6 L 294.4,171.8 L 290.8,171.2 L 290.1,171.5 L 285.6,171.3 L 284.7,171.3 L 280.2,170.2 L 278.1,170.3 L 278.0,170.3 L 277.1,170.7 L 275.9,170.3 L 274.3,170.3 L 272.6,170.5 L 271.3,171.7 L 270.5,173.4 L 269.9,175.8 L 268.3,178.6 L 267.1,181.2 L 266.3,185.8 L 265.9,186.9 L 263.0,190.6 L 260.6,192.8 L 259.0,193.5 L 256.7,194.1 L 254.8,194.3 L 250.8,196.1 L 248.8,196.4 L 243.4,197.8 L 241.2,198.1 L 239.5,198.6 L 236.1,198.7 L 234.6,199.3 L 231.2,199.9 L 225.5,200.0 L 221.2,199.1 L 219.5,198.4 L 218.0,199.3 L 217.6,199.3 L 216.8,199.8 L 215.0,202.2 L 212.7,203.8 L 211.6,205.1 L 209.4,206.5 L 206.7,208.9 L 206.1,209.2 L 204.7,209.4 L 204.1,209.8 L 203.9,210.9 L 203.1,212.1 L 201.8,213.1 L 198.7,213.6 L 196.4,213.3 L 196.0,213.4 L 195.0,211.9 L 194.2,211.7 L 190.8,212.7 L 189.3,212.7 L 189.2,213.2 L 189.8,214.1 L 190.4,215.1 L 191.9,215.5 L 191.9,217.8 L 191.7,219.9 L 191.8,220.6 L 193.2,222.3 L 194.6,224.8 L 195.2,226.6 L 195.0,228.6 L 193.8,230.2 L 193.4,230.8 L 191.5,232.1 L 190.7,232.3 L 189.8,231.6 L 187.2,231.0 L 186.3,231.1 L 186.0,231.9 L 186.2,233.9 L 188.7,236.3 L 189.0,237.6 L 188.5,239.0 L 187.5,241.0 L 187.2,242.4 L 187.7,243.7 L 189.0,245.0 L 189.8,248.8 L 189.7,250.6 L 187.6,253.1 L 187.2,254.7 L 187.4,256.9 L 187.2,257.8 L 186.8,258.1 L 186.7,258.8 L 186.0,259.8 L 185.4,262.0 L 185.5,263.4 L 186.3,264.6 L 186.2,266.5 L 186.5,269.2 L 186.5,269.2 L 157.3,271.8 L 157.3,270.8 L 156.6,269.3 L 156.4,267.1 L 155.9,266.1 L 154.8,264.9 L 154.0,264.3 L 152.4,264.0 L 151.6,263.1 L 151.4,263.4 L 151.4,263.4 L 149.4,264.1 L 147.6,265.0 L 146.6,264.5 L 144.7,264.5 L 144.0,264.7 L 142.5,264.6 L 140.6,263.4 L 137.7,260.2 L 136.8,259.9 L 136.4,259.7 L 135.5,259.1 L 133.3,257.4 L 131.6,256.7 L 128.8,254.6 L 128.3,254.5 L 127.4,254.3 L 126.2,253.8 L 125.3,253.0 L 123.5,251.9 L 122.1,251.4 L 121.3,250.5 L 118.6,248.7 L 112.5,245.0 L 111.7,244.4 L 107.6,243.8 L 107.4,243.3 L 107.8,242.5 L 107.3,242.3 L 106.6,242.4 L 105.4,242.3 L 103.2,241.3 L 101.3,241.3 L 100.3,241.6 L 99.8,241.7 L 99.5,241.9 L 99.5,242.2 L 99.7,242.5 L 100.3,242.8 L 100.3,243.1 L 100.5,243.5 L 101.1,244.0 L 102.2,244.7 L 102.9,244.7 L 104.2,244.6 L 104.5,244.7 L 104.4,245.0 L 104.1,245.2 L 103.8,245.8 L 103.7,246.4 L 103.4,246.9 L 103.1,247.3 L 103.0,247.9 L 99.1,251.4 L 99.0,252.6 L 98.2,253.7 L 96.7,255.1 L 94.8,254.8 L 94.0,254.2 L 93.5,252.8 L 93.1,252.5 L 92.2,253.0 L 91.2,252.7 L 89.7,249.7 L 89.0,249.0 L 87.2,248.4 L 86.4,247.9 L 85.5,247.9 L 84.4,248.3 L 82.5,248.7 L 81.9,249.0 L 80.6,249.2 L 79.5,248.9 L 78.7,247.1 L 77.7,244.6 L 77.2,244.4 L 76.2,245.3 L 75.1,252.5 L 74.6,253.8 L 75.1,254.5 L 75.1,255.3 L 73.6,256.1 L 71.0,256.4 L 69.3,256.3 L 68.6,255.5 L 68.9,254.5 L 69.9,252.8 L 71.4,252.4 L 73.1,251.1 L 74.1,249.9 L 74.1,248.8 L 73.3,247.9 L 69.3,246.8 L 66.1,246.2 L 64.5,244.4 L 62.8,244.1 L 61.7,242.5 L 60.5,241.5 L 59.9,239.6 L 59.3,239.0 L 57.5,240.1 L 57.6,242.2 L 58.9,242.4 L 59.2,242.8 L 59.2,244.0 L 58.5,244.0 L 58.3,244.3" fill="none" stroke="black" stroke-width="2"/>
</svg>