<?xml version="1.0" encoding="UTF-8"?>
<svg width="400" height="400" viewBox="0 0 400 400" xmlns="http://www.w3.org/2000/svg">
  <rect width="400" height="400" fill="white"/>
  <path d="M 94.7,319.9 L 84.9,297.2 L 86.5,296.0 L 87.2,295.1 L 87.6,293.5 L 87.7,293.1 L 86.5,293.1 L 85.9,293.6 L 85.5,293.6 L 84.5,293.2 L 84.3,293.3 L 83.9,294.1 L 83.8,294.7 L 83.6,294.3 L 83.5,293.6 L 83.9,293.1 L 84.0,292.5 L 84.7,291.7 L 85.6,290.6 L 85.6,290.4 L 85.3,290.0 L 85.4,289.0 L 85.6,289.1 L 86.8,292.1 L 87.0,292.4 L 88.4,292.3 L 89.3,292.3 L 89.9,291.9 L 90.9,290.1 L 91.7,289.2 L 92.1,286.7 L 90.7,286.2 L 91.1,285.9 L 91.5,285.8 L 91.5,285.5 L 89.8,285.3 L 89.5,285.3 L 89.1,285.4 L 88.3,285.6 L 88.2,285.4 L 88.7,285.3 L 89.1,285.3 L 89.9,285.2 L 90.9,285.0 L 92.0,285.0 L 94.2,284.5 L 94.6,284.3 L 96.3,281.9 L 96.4,279.9 L 96.0,279.6 L 95.0,279.3 L 95.3,278.9 L 94.0,277.7 L 94.1,277.5 L 94.6,277.4 L 95.9,277.8 L 96.4,277.8 L 96.7,277.2 L 96.7,276.4 L 97.3,275.5 L 97.8,273.9 L 97.9,272.9 L 97.8,271.4 L 98.0,270.1 L 97.1,269.7 L 96.9,269.4 L 95.7,268.9 L 95.6,268.7 L 96.6,268.4 L 96.8,268.0 L 96.6,267.5 L 96.3,267.2 L 95.5,265.8 L 94.4,265.3 L 92.9,264.3 L 91.7,264.0 L 90.2,262.9 L 89.5,262.0 L 88.9,261.7 L 87.8,261.4 L 85.2,260.4 L 83.2,260.1 L 83.2,259.9 L 85.0,260.2 L 85.1,260.2 L 86.1,260.2 L 86.1,259.8 L 85.8,259.4 L 85.1,259.2 L 84.5,258.3 L 83.5,258.0 L 81.9,256.8 L 81.3,256.1 L 81.0,256.0 L 80.6,256.6 L 79.9,257.8 L 79.6,258.2 L 78.5,258.2 L 78.1,258.4 L 78.2,258.8 L 73.6,257.9 L 72.4,258.0 L 70.1,257.9 L 69.7,257.9 L 69.6,257.9 L 69.0,257.9 L 67.9,257.8 L 67.0,257.9 L 66.4,256.7 L 65.8,256.4 L 65.5,254.8 L 65.0,254.2 L 64.7,253.6 L 64.1,253.0 L 62.8,252.7 L 61.7,252.7 L 59.4,252.4 L 59.0,252.7 L 58.9,253.2 L 59.0,253.8 L 59.0,253.8 L 58.9,253.8 L 58.8,253.3 L 57.4,253.1 L 56.7,253.4 L 55.3,254.8 L 55.1,254.7 L 54.9,254.3 L 54.6,253.2 L 54.7,252.6 L 54.8,252.5 L 55.3,252.6 L 55.8,252.2 L 55.9,251.7 L 56.5,251.0 L 56.7,250.2 L 56.3,249.2 L 55.8,248.7 L 55.7,248.0 L 55.4,247.8 L 55.1,248.0 L 54.8,248.3 L 54.8,248.8 L 54.7,248.8 L 54.7,248.7 L 54.7,248.2 L 54.5,247.6 L 54.6,246.4 L 54.4,245.9 L 52.2,243.8 L 51.1,242.1 L 50.7,241.9 L 50.1,240.4 L 49.7,239.9 L 49.0,239.6 L 48.6,239.4 L 48.0,238.8 L 48.0,238.4 L 47.5,237.7 L 47.4,236.5 L 46.8,236.3 L 46.0,236.8 L 45.5,236.8 L 44.8,237.5 L 44.4,238.5 L 43.7,239.5 L 43.4,241.1 L 42.4,242.4 L 42.0,242.6 L 41.4,242.0 L 40.8,242.2 L 40.5,241.4 L 40.8,240.8 L 41.9,239.6 L 42.8,238.4 L 43.0,238.3 L 43.1,238.1 L 43.1,237.7 L 43.5,237.2 L 43.5,237.0 L 43.3,236.9 L 43.0,237.0 L 42.5,237.6 L 42.3,238.1 L 42.2,238.1 L 42.1,237.9 L 42.3,237.3 L 42.6,236.6 L 42.6,236.2 L 42.2,235.5 L 41.8,235.1 L 41.6,235.0 L 41.4,235.1 L 41.1,235.7 L 40.9,235.8 L 40.7,235.8 L 40.3,235.4 L 40.1,235.2 L 40.0,235.0 L 40.1,234.7 L 40.7,234.4 L 41.3,234.1 L 41.8,234.5 L 42.5,234.9 L 43.1,235.2 L 43.2,234.9 L 43.4,234.1 L 43.6,233.4 L 43.7,232.7 L 44.0,232.0 L 44.1,231.7 L 44.0,231.5 L 43.6,231.8 L 43.4,231.9 L 43.2,231.7 L 43.2,231.5 L 43.2,231.4 L 43.4,231.4 L 43.6,231.3 L 43.8,231.0 L 43.8,230.5 L 44.1,230.1 L 44.4,229.8 L 44.5,229.5 L 44.4,229.3 L 44.4,228.9 L 44.6,228.7 L 44.6,228.6 L 44.5,228.4 L 44.5,228.2 L 44.9,227.8 L 45.1,227.8 L 45.2,227.7 L 45.4,227.3 L 45.4,226.7 L 45.4,226.5 L 45.4,226.3 L 45.6,226.1 L 46.1,225.7 L 46.9,224.4 L 47.0,223.4 L 46.5,222.4 L 46.4,221.9 L 46.4,221.2 L 45.6,219.9 L 44.9,219.0 L 45.0,218.7 L 45.4,218.3 L 45.4,217.6 L 45.5,217.3 L 45.3,216.8 L 45.3,216.6 L 45.6,214.4 L 45.6,213.4 L 45.2,213.0 L 44.5,213.0 L 44.1,212.6 L 44.2,212.2 L 44.8,211.4 L 45.3,211.2 L 46.2,209.3 L 46.2,209.0 L 46.2,209.0 L 72.9,205.6 L 73.1,205.6 L 73.0,205.7 L 73.0,206.1 L 74.1,206.2 L 74.5,206.2 L 75.1,206.2 L 76.4,206.5 L 77.2,206.1 L 77.6,205.8 L 77.7,205.9 L 77.3,207.4 L 75.9,209.8 L 75.8,210.4 L 76.2,210.4 L 77.4,209.9 L 78.2,208.9 L 78.7,208.6 L 79.5,208.8 L 79.7,209.4 L 79.5,209.8 L 79.6,210.2 L 80.3,210.3 L 80.6,210.0 L 81.3,209.1 L 81.7,208.9 L 82.3,207.9 L 82.8,206.9 L 82.9,206.2 L 82.3,204.9 L 82.7,204.2 L 82.4,203.2 L 83.0,202.8 L 83.8,202.7 L 84.7,202.7 L 85.7,203.7 L 85.8,204.1 L 86.0,204.3 L 86.3,204.3 L 86.7,203.9 L 87.5,204.1 L 87.7,204.4 L 88.2,205.5 L 88.5,206.1 L 89.9,206.4 L 90.3,206.7 L 90.1,207.3 L 90.6,207.4 L 90.3,208.1 L 90.0,208.7 L 90.6,209.0 L 90.7,209.5 L 90.9,209.5 L 91.8,209.1 L 92.6,208.5 L 93.5,208.1 L 93.9,207.7 L 94.4,207.9 L 94.7,208.2 L 95.0,208.1 L 95.1,208.0 L 95.7,207.2 L 95.9,206.2 L 96.2,205.7 L 96.3,204.7 L 95.9,204.0 L 95.6,203.9 L 95.3,204.1 L 94.7,205.0 L 94.5,205.6 L 93.7,206.3 L 93.3,206.7 L 93.1,206.2 L 93.2,206.0 L 93.8,205.5 L 94.0,204.8 L 94.7,203.7 L 95.6,201.9 L 96.3,201.4 L 97.0,201.2 L 97.5,199.9 L 98.3,199.2 L 98.5,199.1 L 98.9,199.1 L 99.2,199.2 L 99.2,199.6 L 99.6,199.7 L 100.1,200.2 L 100.6,200.6 L 100.9,200.7 L 101.6,200.8 L 101.8,200.8 L 101.8,200.7 L 102.1,199.0 L 102.5,198.7 L 103.2,198.6 L 103.4,198.8 L 103.6,200.2 L 103.8,200.8 L 103.9,201.4 L 102.9,202.9 L 101.8,206.7 L 102.2,207.5 L 101.7,208.6 L 101.8,208.9 L 101.7,209.5 L 101.8,209.9 L 102.6,210.4 L 103.0,210.4 L 104.0,210.1 L 104.4,209.8 L 105.5,208.0 L 105.7,206.9 L 106.2,205.9 L 106.5,204.6 L 106.4,203.4 L 106.7,202.9 L 108.5,201.0 L 110.1,200.4 L 110.9,200.6 L 111.4,200.9 L 111.8,201.0 L 111.9,201.5 L 112.2,201.9 L 112.8,202.4 L 113.1,202.4 L 113.9,202.4 L 114.0,203.0 L 114.2,203.3 L 115.0,203.3 L 115.5,202.9 L 115.5,202.3 L 115.3,201.7 L 115.5,201.1 L 116.4,201.0 L 116.9,201.1 L 117.9,201.7 L 118.5,201.5 L 119.0,201.1 L 120.0,201.4 L 120.5,201.7 L 121.0,202.0 L 121.3,201.9 L 121.6,201.3 L 121.7,200.7 L 122.2,199.9 L 122.4,199.3 L 122.6,199.3 L 122.7,199.5 L 123.3,199.5 L 123.8,198.7 L 125.2,197.3 L 126.0,197.2 L 126.9,197.0 L 127.7,196.4 L 128.0,195.8 L 128.2,195.3 L 128.6,194.8 L 129.4,193.7 L 129.7,191.9 L 130.2,191.3 L 130.2,190.6 L 130.0,189.8 L 130.2,189.4 L 130.6,187.7 L 130.6,187.2 L 129.4,185.9 L 129.1,184.9 L 129.6,184.2 L 129.6,183.8 L 128.9,183.0 L 128.9,182.0 L 128.1,181.3 L 128.3,180.8 L 128.8,179.8 L 128.8,179.1 L 127.9,177.2 L 127.5,177.3 L 127.1,177.9 L 126.7,178.0 L 126.3,177.7 L 127.8,177.2 L 189.0,155.2 L 189.3,155.2 L 189.5,155.1 L 190.2,154.7 L 190.6,154.3 L 192.0,154.4 L 192.1,154.8 L 193.2,154.0 L 193.7,154.6 L 193.7,154.9 L 193.9,155.3 L 194.6,155.2 L 195.6,154.4 L 195.8,153.0 L 195.2,152.2 L 195.7,151.6 L 195.8,151.1 L 195.6,150.4 L 195.9,150.2 L 196.4,151.2 L 197.0,151.4 L 197.0,151.7 L 197.8,152.4 L 198.1,152.4 L 198.5,152.0 L 198.8,150.8 L 199.2,150.5 L 201.1,151.5 L 201.6,151.5 L 202.1,151.4 L 203.2,151.5 L 203.6,151.4 L 204.0,151.6 L 204.3,152.0 L 204.3,152.4 L 204.3,152.8 L 204.6,152.8 L 204.7,152.6 L 205.5,152.3 L 206.0,151.9 L 206.6,151.0 L 206.8,150.3 L 206.9,150.2 L 207.3,149.4 L 207.7,149.6 L 208.3,149.1 L 209.1,147.9 L 209.5,148.1 L 209.7,148.6 L 210.2,149.0 L 211.5,149.1 L 212.0,148.6 L 212.6,148.2 L 213.4,148.2 L 214.3,147.9 L 214.9,147.8 L 215.5,147.4 L 216.3,147.9 L 216.6,148.3 L 216.3,148.9 L 216.5,149.1 L 217.1,149.1 L 218.6,148.5 L 220.5,148.3 L 221.7,147.4 L 222.7,146.8 L 223.7,146.9 L 224.6,146.1 L 225.1,145.5 L 225.6,144.8 L 226.7,144.0 L 227.6,142.8 L 227.8,142.2 L 228.0,141.8 L 228.0,141.1 L 228.1,140.9 L 228.6,140.4 L 228.7,139.7 L 228.9,139.1 L 229.3,139.0 L 229.6,139.0 L 230.1,138.4 L 230.4,137.6 L 230.5,136.9 L 230.8,136.2 L 231.2,135.5 L 232.3,134.7 L 232.3,134.2 L 232.1,133.4 L 232.3,133.0 L 232.3,132.3 L 232.8,132.0 L 233.1,132.2 L 233.5,132.7 L 233.9,132.9 L 234.1,132.6 L 234.5,130.8 L 235.0,130.5 L 235.4,130.6 L 235.9,131.3 L 237.0,131.5 L 237.4,132.1 L 237.7,132.1 L 238.0,131.5 L 238.7,130.5 L 238.8,130.0 L 239.4,129.7 L 240.8,128.2 L 241.3,126.6 L 241.3,126.0 L 241.2,125.7 L 241.8,124.9 L 241.9,124.1 L 241.9,123.5 L 241.6,123.5 L 241.1,123.6 L 240.8,122.9 L 241.0,122.5 L 242.3,121.2 L 242.6,120.4 L 242.6,120.1 L 242.4,119.8 L 242.4,119.5 L 242.0,119.1 L 242.4,117.8 L 243.1,116.4 L 243.8,115.8 L 244.1,114.4 L 244.6,113.9 L 244.7,113.1 L 244.6,112.7 L 245.0,111.7 L 245.4,110.1 L 246.0,109.5 L 246.0,109.1 L 245.8,108.7 L 246.2,108.1 L 246.4,106.7 L 246.1,105.1 L 245.6,104.6 L 245.4,104.1 L 245.1,103.8 L 245.0,103.5 L 244.7,103.2 L 244.2,100.7 L 244.3,100.2 L 244.8,100.0 L 245.0,99.2 L 245.4,98.6 L 245.7,96.0 L 245.6,94.6 L 244.7,92.5 L 244.7,92.2 L 244.9,92.0 L 257.1,82.1 L 268.3,73.0 L 269.0,73.6 L 269.9,74.3 L 270.4,74.5 L 270.9,74.8 L 271.5,75.3 L 272.0,75.3 L 272.5,74.9 L 272.8,74.5 L 273.4,74.6 L 273.6,74.9 L 273.3,75.5 L 273.4,76.2 L 273.7,76.5 L 274.6,76.8 L 275.6,76.2 L 275.8,76.2 L 276.7,77.1 L 277.2,77.2 L 278.1,77.0 L 278.8,76.6 L 279.4,76.9 L 280.6,77.9 L 281.2,77.9 L 282.0,77.7 L 283.0,77.7 L 284.7,78.0 L 285.9,75.4 L 286.0,75.2 L 286.3,74.7 L 286.6,72.7 L 287.5,70.0 L 287.4,69.5 L 288.1,68.9 L 288.3,68.1 L 288.3,67.8 L 288.1,67.5 L 287.3,67.6 L 287.1,67.3 L 286.3,67.2 L 283.8,67.7 L 282.7,67.8 L 282.1,67.3 L 281.8,67.4 L 281.3,67.7 L 281.2,67.6 L 281.2,66.8 L 280.4,66.3 L 279.4,66.1 L 279.2,66.0 L 279.3,65.9 L 283.9,62.1 L 284.3,62.3 L 286.4,62.6 L 287.2,62.0 L 287.9,61.2 L 288.4,60.8 L 288.6,59.9 L 288.3,59.3 L 289.1,58.9 L 290.1,59.1 L 290.7,59.9 L 291.2,60.1 L 291.5,60.4 L 292.8,60.4 L 294.0,60.7 L 294.7,60.5 L 295.5,60.6 L 296.0,60.3 L 296.0,59.9 L 295.1,58.8 L 295.0,57.8 L 294.8,57.4 L 318.0,49.3 L 318.3,49.7 L 319.8,50.2 L 320.3,50.9 L 319.9,51.3 L 319.6,51.6 L 319.5,51.9 L 319.9,52.2 L 319.7,52.8 L 320.2,53.1 L 321.4,53.2 L 321.5,53.5 L 321.2,53.8 L 320.9,54.2 L 320.4,54.4 L 319.7,54.8 L 320.0,55.2 L 320.8,55.3 L 321.3,55.1 L 322.5,55.2 L 322.8,55.4 L 321.2,55.9 L 320.1,56.0 L 319.3,56.4 L 318.6,56.5 L 317.2,57.2 L 315.6,57.6 L 314.2,58.3 L 314.1,58.5 L 315.1,58.8 L 316.1,58.7 L 317.0,58.1 L 317.4,58.1 L 317.7,58.3 L 317.3,58.8 L 316.8,59.1 L 316.2,59.6 L 316.1,60.2 L 316.3,60.8 L 316.8,61.5 L 317.2,61.4 L 318.3,60.4 L 319.1,60.7 L 320.1,61.5 L 320.7,61.8 L 321.8,61.4 L 322.6,61.7 L 323.2,62.2 L 323.5,62.2 L 323.9,61.7 L 324.7,59.7 L 325.0,59.5 L 325.5,59.6 L 325.8,61.9 L 326.2,62.5 L 326.5,62.8 L 327.6,62.8 L 329.4,62.0 L 330.6,62.0 L 331.9,62.4 L 332.4,63.4 L 333.4,63.7 L 333.5,63.9 L 333.4,64.5 L 332.8,65.3 L 332.8,65.9 L 332.9,66.0 L 334.3,66.4 L 334.6,66.4 L 334.8,67.0 L 334.6,67.8 L 334.1,68.5 L 333.6,69.2 L 333.5,70.0 L 333.1,71.0 L 330.9,72.4 L 330.2,73.1 L 330.3,73.9 L 329.9,74.3 L 329.7,74.9 L 329.1,75.6 L 328.9,76.0 L 329.1,77.3 L 328.5,77.8 L 327.2,78.0 L 325.9,78.9 L 325.8,78.9 L 324.9,80.0 L 322.8,81.6 L 321.8,81.6 L 321.6,81.8 L 320.5,83.2 L 320.1,84.3 L 319.9,85.2 L 319.7,85.5 L 319.1,85.8 L 318.4,85.9 L 317.8,85.6 L 316.9,85.6 L 315.9,86.1 L 314.5,87.4 L 313.5,87.1 L 312.5,87.9 L 311.9,87.9 L 310.8,88.7 L 310.4,89.2 L 310.4,90.3 L 310.0,90.6 L 309.4,90.6 L 309.0,90.7 L 308.7,91.1 L 309.0,92.0 L 309.0,92.5 L 308.7,92.9 L 308.8,93.1 L 309.5,93.6 L 309.5,93.8 L 308.4,94.0 L 307.8,94.2 L 307.3,94.2 L 306.7,94.6 L 306.6,94.9 L 307.3,95.9 L 307.4,96.1 L 307.0,96.2 L 306.4,96.6 L 306.2,96.9 L 305.6,96.8 L 305.1,96.9 L 304.9,97.4 L 305.0,97.9 L 305.1,97.9 L 305.4,98.1 L 305.6,98.5 L 305.5,99.2 L 305.0,99.6 L 304.2,99.6 L 303.6,100.0 L 303.4,100.6 L 303.7,101.2 L 303.7,101.7 L 301.1,102.8 L 299.9,103.9 L 300.0,104.8 L 299.7,105.3 L 299.9,105.9 L 300.6,106.4 L 300.5,106.8 L 300.2,107.1 L 299.8,106.6 L 299.2,106.4 L 299.1,105.8 L 298.6,105.5 L 297.7,105.2 L 297.2,105.3 L 296.2,106.2 L 295.5,106.8 L 295.4,107.7 L 295.1,108.1 L 294.3,108.5 L 293.9,108.4 L 293.4,108.0 L 293.3,107.2 L 293.6,106.9 L 294.2,106.8 L 294.9,106.2 L 295.5,105.0 L 295.1,104.8 L 294.9,104.5 L 294.6,104.3 L 294.0,104.9 L 293.4,104.9 L 292.5,105.6 L 292.2,106.3 L 291.4,106.8 L 290.0,107.1 L 288.4,107.3 L 287.8,107.4 L 287.6,107.7 L 287.7,107.9 L 291.5,107.6 L 291.7,107.8 L 291.5,108.1 L 291.5,108.4 L 291.8,108.5 L 292.2,108.3 L 292.8,108.3 L 293.1,108.5 L 293.2,109.0 L 293.9,109.5 L 295.9,111.5 L 295.9,111.7 L 294.5,113.0 L 294.3,113.4 L 294.7,114.7 L 295.5,115.0 L 295.5,115.3 L 295.0,115.3 L 293.0,114.1 L 293.0,113.7 L 292.4,113.6 L 292.1,113.6 L 292.0,113.3 L 291.6,113.3 L 291.2,113.6 L 290.9,113.7 L 290.6,113.1 L 290.1,112.8 L 289.8,112.8 L 289.8,112.6 L 289.6,112.6 L 289.4,112.6 L 289.4,112.8 L 289.1,112.7 L 289.0,113.1 L 288.5,113.7 L 288.4,113.6 L 288.2,113.4 L 287.9,113.3 L 287.5,112.8 L 287.4,112.9 L 287.6,113.2 L 287.7,113.4 L 287.5,113.5 L 287.5,113.6 L 287.3,114.2 L 287.4,114.6 L 287.4,114.8 L 286.9,114.9 L 285.1,112.3 L 284.7,112.1 L 284.5,111.6 L 283.8,111.3 L 283.7,110.9 L 283.4,110.6 L 282.5,110.4 L 281.6,109.6 L 280.7,108.2 L 281.0,108.0 L 280.8,107.3 L 280.9,106.9 L 281.5,106.4 L 282.4,106.1 L 283.1,106.0 L 285.7,106.4 L 286.0,106.2 L 286.0,106.0 L 283.9,105.5 L 282.8,105.5 L 281.5,105.9 L 281.1,105.6 L 280.8,105.7 L 280.7,106.2 L 280.1,106.2 L 278.7,105.1 L 277.3,104.8 L 276.6,105.1 L 276.3,105.7 L 275.4,106.7 L 272.7,108.9 L 271.8,108.7 L 271.3,109.1 L 270.8,111.6 L 271.4,113.0 L 271.9,113.9 L 271.7,114.9 L 270.9,115.8 L 269.6,116.4 L 268.7,117.1 L 268.5,118.1 L 268.6,119.6 L 268.3,120.2 L 267.6,120.7 L 266.9,121.4 L 266.8,122.1 L 267.0,123.5 L 267.3,124.1 L 267.1,124.4 L 267.0,124.9 L 267.2,125.4 L 267.0,125.6 L 266.5,125.7 L 266.3,126.1 L 266.6,126.7 L 266.6,127.3 L 266.3,127.5 L 266.1,128.6 L 266.0,130.0 L 266.3,130.5 L 266.3,131.2 L 266.6,131.8 L 267.1,132.1 L 267.4,132.8 L 267.3,133.6 L 267.3,134.1 L 267.1,134.5 L 267.0,135.5 L 267.4,136.5 L 267.7,136.9 L 268.1,137.1 L 268.6,138.0 L 268.6,140.2 L 269.0,141.5 L 269.3,143.7 L 270.0,145.7 L 269.9,146.4 L 270.3,146.9 L 270.4,147.4 L 270.6,148.1 L 270.9,148.7 L 270.7,150.5 L 270.5,150.9 L 270.6,151.5 L 271.3,153.5 L 271.5,155.5 L 271.8,156.1 L 272.0,156.2 L 273.0,157.0 L 274.2,158.3 L 274.7,158.5 L 275.8,158.8 L 276.1,159.0 L 276.9,159.1 L 277.2,159.3 L 277.2,159.9 L 277.5,160.7 L 278.0,160.9 L 278.0,161.4 L 278.5,162.0 L 279.3,162.1 L 279.8,162.5 L 280.4,162.5 L 281.4,161.5 L 281.6,161.0 L 282.0,161.1 L 282.0,162.0 L 282.7,162.8 L 282.5,163.4 L 282.7,164.4 L 283.2,165.0 L 284.0,165.1 L 284.9,165.0 L 286.0,166.1 L 286.5,167.0 L 287.3,167.5 L 288.3,167.6 L 289.0,167.3 L 290.0,167.3 L 291.3,167.2 L 292.3,167.3 L 293.1,167.2 L 294.1,167.2 L 294.8,167.1 L 295.5,167.0 L 296.4,167.4 L 297.2,167.8 L 298.1,168.0 L 299.1,168.4 L 300.7,169.9 L 300.7,170.4 L 301.0,171.0 L 301.6,171.6 L 302.0,171.5 L 302.2,171.2 L 302.0,170.2 L 302.1,170.0 L 302.6,169.8 L 303.0,170.7 L 303.5,171.0 L 304.2,171.3 L 305.1,171.3 L 305.9,171.2 L 306.6,171.5 L 306.5,171.8 L 307.1,172.3 L 307.7,172.3 L 308.3,172.0 L 308.7,171.2 L 308.5,169.2 L 308.6,168.8 L 308.9,168.3 L 309.0,167.8 L 309.6,167.4 L 310.2,167.6 L 311.6,168.3 L 313.7,169.5 L 315.0,169.9 L 315.5,170.5 L 315.8,170.6 L 316.5,171.6 L 317.6,172.8 L 317.8,173.6 L 318.2,173.9 L 318.1,174.7 L 318.3,175.5 L 318.4,176.5 L 318.0,177.0 L 317.9,177.3 L 317.9,178.0 L 321.0,182.5 L 323.3,183.8 L 323.4,184.1 L 323.5,184.2 L 323.8,184.6 L 324.5,184.6 L 325.0,184.8 L 326.5,185.2 L 327.7,185.8 L 328.5,186.6 L 328.8,186.5 L 329.6,185.3 L 330.1,185.0 L 330.7,185.1 L 331.1,185.6 L 332.0,185.7 L 332.5,185.3 L 333.2,184.3 L 334.1,183.6 L 335.8,183.6 L 336.8,183.8 L 337.4,184.2 L 337.7,184.6 L 337.5,187.3 L 337.7,191.3 L 337.7,192.3 L 337.8,192.8 L 337.7,193.8 L 337.7,194.5 L 339.2,196.0 L 340.4,196.3 L 341.8,197.3 L 343.1,197.7 L 344.1,198.3 L 344.5,198.9 L 345.6,199.9 L 346.0,200.5 L 346.4,201.3 L 346.3,202.1 L 345.3,203.5 L 345.7,204.2 L 346.6,205.1 L 347.5,207.0 L 347.8,207.8 L 348.8,209.7 L 349.7,210.2 L 350.9,210.5 L 351.5,210.4 L 352.5,210.5 L 353.3,210.8 L 353.5,211.8 L 353.5,212.2 L 353.3,213.0 L 353.8,213.4 L 355.9,214.6 L 355.8,216.3 L 355.9,216.9 L 355.9,217.2 L 355.5,217.9 L 355.4,219.1 L 355.8,219.6 L 355.7,220.1 L 355.3,220.8 L 354.7,221.1 L 354.2,221.6 L 354.4,222.1 L 354.2,222.5 L 354.4,223.0 L 355.0,223.4 L 355.4,223.9 L 356.0,224.2 L 356.5,224.5 L 357.4,224.7 L 358.0,225.0 L 358.3,225.3 L 358.4,226.2 L 359.6,227.6 L 359.7,227.9 L 359.4,228.5 L 360.0,228.9 L 360.0,229.1 L 359.8,229.7 L 359.3,229.8 L 358.3,229.8 L 357.7,229.5 L 357.2,229.5 L 357.3,229.8 L 357.7,230.2 L 357.7,230.5 L 357.4,230.6 L 356.9,230.3 L 355.0,229.9 L 354.6,229.7 L 353.8,229.6 L 353.5,229.3 L 352.8,228.4 L 352.2,228.1 L 351.1,227.6 L 350.3,227.5 L 349.5,228.0 L 349.2,228.6 L 348.6,230.1 L 348.4,230.1 L 347.7,229.4 L 347.3,228.9 L 346.6,228.9 L 346.2,229.1 L 345.7,228.9 L 344.6,227.9 L 343.9,226.9 L 343.9,226.6 L 343.9,226.6 L 344.2,226.4 L 343.6,225.7 L 343.4,225.9 L 343.3,225.8 L 343.0,225.7 L 342.1,224.4 L 341.6,224.1 L 340.6,222.4 L 340.3,222.2 L 339.7,222.4 L 339.2,222.8 L 339.7,223.9 L 339.8,224.6 L 339.7,224.8 L 339.3,224.9 L 338.5,224.1 L 337.3,223.7 L 336.3,223.5 L 336.3,223.9 L 336.6,224.7 L 336.5,225.8 L 336.8,226.3 L 337.2,226.3 L 337.7,226.0 L 338.6,226.2 L 338.3,226.9 L 338.2,227.3 L 337.5,227.5 L 337.1,227.8 L 336.9,228.9 L 337.1,229.8 L 337.9,230.6 L 338.4,231.0 L 338.6,231.3 L 338.8,232.7 L 338.8,232.7 L 296.5,261.0 L 296.6,260.4 L 296.0,260.0 L 295.6,259.6 L 294.6,259.6 L 294.6,260.1 L 294.9,260.6 L 294.7,260.9 L 292.9,260.5 L 292.7,260.0 L 291.7,259.6 L 291.3,259.0 L 290.9,259.2 L 289.3,258.2 L 287.4,257.9 L 287.2,257.6 L 287.2,257.1 L 286.9,256.8 L 285.7,256.7 L 285.4,256.4 L 285.6,256.1 L 286.1,255.8 L 285.2,254.4 L 284.8,254.3 L 284.6,254.8 L 283.9,255.4 L 283.9,255.6 L 284.0,256.1 L 284.5,256.8 L 284.5,257.0 L 284.2,257.3 L 283.7,257.4 L 283.3,258.1 L 282.6,258.3 L 281.3,257.9 L 280.6,257.5 L 279.8,256.8 L 279.2,256.6 L 278.9,256.9 L 278.2,257.9 L 278.3,258.4 L 278.4,259.4 L 277.8,261.5 L 278.5,262.3 L 279.5,262.8 L 280.6,262.8 L 280.6,263.3 L 281.1,263.8 L 281.5,264.3 L 281.2,264.7 L 280.6,265.0 L 280.9,265.9 L 280.4,266.6 L 280.5,267.1 L 280.7,267.4 L 281.3,267.1 L 281.9,267.6 L 282.3,267.5 L 282.8,267.2 L 282.6,268.9 L 283.4,268.8 L 283.7,269.4 L 283.7,270.1 L 283.4,270.6 L 283.2,271.3 L 282.8,271.8 L 282.6,272.4 L 282.1,273.3 L 281.8,273.5 L 281.4,273.4 L 280.9,273.8 L 280.7,274.4 L 279.9,275.2 L 279.1,275.5 L 278.7,275.8 L 278.2,276.7 L 278.2,277.4 L 278.4,277.7 L 279.2,278.1 L 279.6,278.1 L 280.3,277.6 L 244.3,312.7 L 237.0,319.9 L 236.9,319.4 L 236.1,319.3 L 235.6,319.3 L 235.4,319.7 L 235.7,320.0 L 236.4,320.3 L 236.6,320.2 L 234.2,322.6 L 233.7,323.0 L 233.6,323.0 L 232.9,322.9 L 231.9,322.4 L 231.6,322.3 L 231.4,321.9 L 231.8,320.1 L 231.6,319.7 L 231.2,318.7 L 230.1,318.4 L 229.8,317.8 L 229.2,317.3 L 229.2,317.1 L 228.9,317.0 L 228.8,317.0 L 228.3,317.2 L 227.9,317.0 L 227.0,316.9 L 226.8,316.6 L 226.4,316.3 L 226.0,316.1 L 225.2,316.1 L 224.5,316.4 L 224.4,316.4 L 222.9,316.8 L 222.3,316.6 L 222.0,316.9 L 222.3,317.9 L 223.0,318.7 L 223.7,319.2 L 224.4,320.5 L 224.4,321.0 L 225.0,321.2 L 225.7,321.7 L 226.5,322.7 L 227.2,322.7 L 227.3,322.9 L 226.7,323.7 L 225.9,324.4 L 223.2,323.9 L 222.5,324.0 L 222.0,323.7 L 221.7,324.1 L 221.7,324.4 L 221.9,324.7 L 221.4,325.1 L 220.6,325.1 L 219.8,325.8 L 219.2,326.0 L 218.4,325.7 L 217.9,325.8 L 217.3,326.0 L 216.4,326.0 L 215.8,325.6 L 215.4,325.6 L 215.3,326.3 L 215.5,326.6 L 216.1,326.8 L 216.1,327.5 L 215.5,328.1 L 215.3,328.5 L 215.5,328.8 L 216.9,329.5 L 217.5,330.2 L 219.0,331.0 L 220.2,332.0 L 221.4,333.4 L 221.7,333.2 L 222.7,333.1 L 223.4,333.4 L 224.0,333.3 L 225.2,333.4 L 225.8,334.7 L 225.7,335.4 L 225.4,335.7 L 224.7,335.9 L 223.7,335.9 L 223.1,336.0 L 221.5,336.1 L 220.7,336.6 L 220.5,337.9 L 220.3,338.3 L 219.9,338.0 L 218.8,337.4 L 217.9,337.4 L 216.9,337.1 L 216.7,336.7 L 216.0,336.4 L 215.7,336.8 L 216.2,337.2 L 215.5,337.7 L 215.0,338.2 L 215.3,338.6 L 215.0,338.8 L 213.9,339.0 L 213.4,338.8 L 213.4,338.3 L 213.3,338.0 L 212.0,338.0 L 211.6,338.2 L 210.9,338.9 L 210.7,340.0 L 210.4,340.0 L 209.8,339.4 L 209.5,339.1 L 209.2,338.9 L 209.0,339.0 L 208.9,339.4 L 208.7,339.8 L 208.6,339.9 L 136.6,350.7 L 136.3,350.4 L 136.0,350.1 L 136.0,349.1 L 135.9,348.2 L 135.5,347.7 L 135.1,347.5 L 134.8,347.0 L 134.6,345.1 L 133.7,344.0 L 132.5,343.3 L 132.7,342.9 L 132.8,342.4 L 132.3,342.0 L 130.6,341.7 L 130.4,341.2 L 130.1,340.9 L 128.7,340.7 L 128.1,341.2 L 128.3,341.7 L 127.2,341.7 L 126.5,342.4 L 126.4,342.8 L 126.8,343.4 L 126.6,343.9 L 126.5,345.7 L 126.3,345.7 L 120.8,343.4 L 121.1,343.0 L 121.2,342.3 L 121.5,341.9 L 121.7,340.2 L 121.5,339.2 L 120.8,338.3 L 120.5,338.1 L 120.1,337.5 L 119.3,336.5 L 118.8,335.4 L 118.0,334.5 L 117.8,333.6 L 117.7,333.1 L 117.5,332.9 L 117.2,332.8 L 116.7,332.2 L 115.6,331.6 L 115.0,330.9 L 114.2,330.1 L 113.9,329.8 L 113.6,328.9 L 113.1,328.6 L 112.5,328.4 L 110.8,326.6 L 110.8,325.6 L 110.4,324.6 L 110.0,324.4 L 109.7,324.6 L 109.2,324.4 L 108.9,324.8 L 109.0,325.7 L 108.5,326.1 L 108.3,327.1 L 108.0,327.9 L 107.5,328.6 L 107.2,329.7 L 107.1,329.6 L 100.1,327.7 L 100.4,327.2 L 100.6,326.2 L 100.2,325.1 L 100.2,324.9 L 100.4,324.8 L 100.2,323.7 L 99.9,322.5 L 99.8,322.1 L 99.7,320.7 L 99.5,319.8 L 97.8,319.7 L 97.6,319.8 L 97.4,319.4 L 97.2,319.4 L 96.8,319.7 L 96.0,319.3 L 95.2,319.5 L 94.7,319.9" fill="none" stroke="black" stroke-width="2"/>
</svg>