<?xml version="1.0" encoding="UTF-8"?>
<svg width="400" height="400" viewBox="0 0 400 400" xmlns="http://www.w3.org/2000/svg">
  <rect width="400" height="400" fill="white"/>
  <path d="M 101.1,192.0 L 101.3,191.5 L 101.7,191.1 L 102.1,190.8 L 102.4,190.7 L 102.6,190.8 L 102.9,191.0 L 103.2,191.0 L 103.5,190.9 L 103.7,190.7 L 103.6,190.6 L 103.4,190.4 L 103.4,190.3 L 103.4,190.2 L 103.5,190.1 L 103.7,190.1 L 103.8,190.0 L 103.6,189.7 L 103.6,189.4 L 103.6,188.9 L 103.6,188.6 L 103.6,188.2 L 103.9,187.5 L 104.0,187.4 L 104.2,187.3 L 104.3,187.2 L 104.3,186.9 L 104.5,186.7 L 104.9,186.4 L 105.0,186.3 L 105.1,186.2 L 105.5,185.9 L 105.7,185.7 L 105.7,185.5 L 105.7,185.5 L 105.7,185.4 L 105.9,185.2 L 106.0,185.0 L 106.0,185.0 L 106.1,184.6 L 105.9,184.1 L 105.8,183.8 L 105.8,183.5 L 105.9,183.2 L 106.2,183.0 L 106.2,182.6 L 106.0,182.0 L 106.0,181.8 L 106.0,181.1 L 105.9,180.8 L 105.9,180.6 L 105.9,180.5 L 106.0,180.2 L 106.0,179.8 L 105.7,179.2 L 105.7,179.0 L 105.6,178.8 L 105.7,178.6 L 105.7,178.4 L 105.8,178.2 L 106.2,177.8 L 106.3,177.7 L 106.8,177.6 L 106.9,177.4 L 106.7,177.2 L 106.9,177.0 L 107.2,176.8 L 107.3,176.8 L 107.5,176.8 L 107.8,176.8 L 107.9,176.6 L 108.1,176.5 L 108.4,176.5 L 109.1,176.2 L 109.6,176.0 L 109.8,175.9 L 109.9,175.7 L 110.0,175.5 L 110.2,175.5 L 110.3,175.2 L 110.4,174.8 L 110.3,174.7 L 110.3,174.4 L 110.3,174.3 L 110.4,174.1 L 110.4,173.8 L 110.5,173.6 L 110.6,173.4 L 110.7,173.4 L 111.1,173.3 L 111.4,173.1 L 111.6,173.1 L 111.8,173.0 L 111.9,173.0 L 112.0,173.0 L 112.0,173.2 L 112.0,173.6 L 110.9,173.9 L 111.0,174.0 L 111.1,174.0 L 112.2,173.7 L 112.5,173.4 L 112.7,173.2 L 112.7,173.1 L 112.9,173.0 L 112.9,172.8 L 113.1,172.8 L 113.1,172.5 L 113.0,172.4 L 113.0,172.1 L 113.1,171.8 L 113.1,171.7 L 113.5,171.4 L 113.9,171.4 L 114.2,171.3 L 114.3,171.2 L 114.3,171.1 L 114.1,170.8 L 114.1,170.4 L 114.2,170.3 L 114.2,170.5 L 114.3,170.6 L 114.4,170.5 L 114.7,170.9 L 114.9,170.9 L 115.2,170.7 L 115.6,170.6 L 116.0,170.6 L 116.5,170.7 L 116.9,170.9 L 117.2,171.1 L 117.4,171.3 L 117.4,171.5 L 117.3,172.0 L 117.0,172.5 L 117.1,172.6 L 117.2,172.8 L 117.3,173.0 L 117.2,173.1 L 117.2,173.3 L 117.2,173.4 L 117.4,173.7 L 117.4,173.9 L 118.0,174.2 L 119.0,174.4 L 119.2,174.4 L 119.6,174.5 L 119.9,174.5 L 119.9,174.5 L 120.1,174.6 L 120.2,174.7 L 120.5,174.7 L 120.7,174.7 L 121.5,175.0 L 121.9,175.1 L 122.9,175.4 L 123.5,175.5 L 124.0,175.7 L 124.3,175.7 L 124.8,175.6 L 124.8,175.4 L 124.6,175.3 L 124.7,175.3 L 124.9,175.3 L 124.9,175.2 L 125.1,175.0 L 125.4,175.1 L 125.6,175.0 L 125.8,174.9 L 125.9,174.8 L 126.0,174.7 L 126.1,174.4 L 126.0,174.3 L 125.8,174.2 L 125.9,173.9 L 126.0,173.9 L 126.1,173.8 L 126.1,173.6 L 126.3,173.5 L 126.5,173.5 L 126.9,173.2 L 127.0,173.0 L 127.2,172.8 L 127.5,172.7 L 127.8,172.4 L 128.6,171.7 L 128.6,171.5 L 129.0,171.2 L 129.7,170.9 L 130.4,171.1 L 130.7,170.9 L 131.0,170.9 L 131.9,170.9 L 132.2,170.8 L 132.5,170.8 L 133.2,171.1 L 133.3,171.1 L 134.0,171.5 L 134.5,171.8 L 134.7,172.1 L 134.8,172.4 L 134.6,173.3 L 134.7,173.4 L 134.8,173.5 L 135.1,173.4 L 135.5,173.5 L 135.7,173.6 L 136.4,173.6 L 136.8,173.7 L 137.3,173.8 L 137.4,174.0 L 137.7,174.0 L 137.9,173.9 L 138.3,173.7 L 138.6,173.8 L 139.1,173.9 L 139.8,174.3 L 140.2,174.4 L 140.7,174.5 L 141.0,174.4 L 141.1,174.4 L 141.0,174.3 L 141.1,174.2 L 141.3,174.1 L 141.6,174.1 L 142.5,174.2 L 142.9,174.3 L 143.7,174.3 L 144.1,174.3 L 144.4,174.1 L 144.5,174.0 L 144.6,174.0 L 144.8,174.1 L 145.0,174.2 L 145.1,174.2 L 145.7,174.3 L 146.0,174.0 L 146.1,174.0 L 146.4,174.3 L 146.6,174.4 L 146.8,174.2 L 147.0,174.4 L 147.1,174.4 L 147.3,174.2 L 147.3,174.1 L 147.5,174.1 L 147.7,174.2 L 148.0,173.9 L 148.5,174.0 L 148.5,174.0 L 149.2,173.9 L 149.6,173.9 L 149.8,174.0 L 150.1,173.8 L 150.2,173.7 L 150.2,173.6 L 150.4,173.5 L 151.4,173.2 L 151.7,173.2 L 151.8,173.1 L 152.0,173.1 L 152.2,173.4 L 152.3,173.4 L 152.4,173.2 L 152.8,173.2 L 152.9,173.3 L 153.0,173.4 L 153.0,173.2 L 153.2,173.3 L 153.2,173.6 L 153.5,174.0 L 153.6,174.5 L 153.7,174.7 L 154.5,175.2 L 155.1,175.4 L 155.5,175.6 L 155.6,175.7 L 155.7,175.7 L 155.8,175.4 L 156.1,175.2 L 156.3,175.2 L 156.4,175.1 L 156.4,175.0 L 156.2,174.8 L 156.3,174.5 L 156.5,174.3 L 156.8,173.9 L 156.9,173.8 L 157.4,173.8 L 157.5,173.6 L 157.8,173.5 L 157.8,173.4 L 157.8,173.2 L 157.8,173.1 L 158.1,172.9 L 158.4,172.8 L 158.5,172.5 L 158.8,172.5 L 159.0,172.4 L 159.6,172.4 L 160.0,172.2 L 160.3,172.1 L 161.4,172.2 L 161.7,172.0 L 162.7,172.1 L 162.8,172.1 L 163.2,172.2 L 163.8,172.1 L 164.2,172.0 L 164.6,172.0 L 165.0,171.9 L 165.2,171.9 L 165.5,171.7 L 165.5,171.7 L 165.8,171.4 L 165.9,170.9 L 166.0,170.9 L 165.9,170.7 L 165.9,170.5 L 165.7,170.3 L 165.6,170.2 L 165.5,170.2 L 165.4,170.1 L 165.3,170.0 L 165.2,170.0 L 165.0,169.9 L 164.9,169.8 L 164.9,169.7 L 165.2,169.4 L 165.6,169.3 L 167.0,169.3 L 167.8,169.2 L 168.2,169.2 L 168.5,169.1 L 168.9,169.0 L 169.2,168.8 L 169.5,168.7 L 169.8,168.8 L 170.1,168.6 L 170.4,168.3 L 170.5,168.2 L 170.7,168.2 L 171.5,168.0 L 171.8,167.8 L 172.0,167.6 L 172.4,167.5 L 172.9,167.2 L 173.3,167.2 L 173.6,167.1 L 174.4,167.0 L 174.9,166.9 L 175.2,166.8 L 175.5,166.8 L 175.9,166.8 L 176.6,166.9 L 176.9,166.9 L 177.2,166.9 L 177.7,167.0 L 177.8,166.9 L 178.7,166.7 L 179.3,166.8 L 179.8,166.8 L 180.3,166.7 L 180.5,166.7 L 180.8,166.5 L 180.9,166.5 L 180.9,166.6 L 181.9,166.7 L 182.0,166.7 L 182.3,166.7 L 182.8,166.8 L 183.1,166.9 L 183.6,167.2 L 183.8,167.2 L 184.0,167.3 L 184.0,167.5 L 184.1,167.6 L 184.6,167.7 L 184.7,167.8 L 185.1,167.8 L 185.6,168.0 L 186.2,168.1 L 187.2,168.2 L 187.4,168.2 L 187.6,168.3 L 188.5,168.5 L 189.0,168.7 L 189.2,168.6 L 189.5,168.6 L 189.6,168.7 L 190.2,168.8 L 190.3,168.7 L 190.5,168.8 L 190.8,168.9 L 190.9,168.8 L 191.1,168.8 L 191.3,169.0 L 192.3,169.1 L 192.5,169.2 L 192.5,169.3 L 192.9,169.4 L 193.0,169.4 L 193.1,169.5 L 193.3,169.4 L 193.6,169.4 L 193.7,169.5 L 194.6,169.6 L 194.9,169.7 L 195.1,169.8 L 195.4,170.0 L 196.5,170.2 L 197.5,170.3 L 199.3,170.6 L 199.8,170.6 L 200.6,170.7 L 201.9,170.7 L 203.5,170.6 L 204.0,170.3 L 204.3,170.2 L 204.3,170.1 L 204.7,170.0 L 205.2,169.8 L 205.6,169.8 L 206.1,169.9 L 206.4,170.0 L 206.9,170.0 L 207.1,170.0 L 207.6,170.1 L 207.9,170.1 L 208.3,170.1 L 208.9,170.0 L 209.3,170.2 L 210.2,170.3 L 210.7,170.0 L 210.8,169.9 L 211.1,169.9 L 211.6,169.9 L 212.0,170.1 L 212.2,170.1 L 212.5,170.1 L 213.0,170.2 L 213.6,170.5 L 213.6,170.6 L 213.8,170.9 L 214.2,171.0 L 214.5,171.2 L 214.9,171.2 L 215.7,171.2 L 216.2,171.1 L 216.5,171.1 L 216.7,171.1 L 217.0,171.1 L 217.7,170.7 L 218.0,170.5 L 218.5,169.9 L 218.6,169.6 L 218.6,169.5 L 218.6,169.5 L 218.7,169.3 L 218.5,169.0 L 218.5,168.9 L 218.9,168.3 L 219.0,167.9 L 219.7,166.7 L 219.9,166.5 L 220.6,166.0 L 220.8,165.8 L 220.9,165.5 L 220.7,165.1 L 220.8,164.8 L 221.1,164.1 L 221.3,163.9 L 221.4,163.7 L 221.6,163.4 L 222.2,163.1 L 222.4,162.9 L 222.5,162.6 L 223.1,162.2 L 223.3,162.1 L 223.9,161.7 L 224.4,161.5 L 224.8,161.6 L 225.2,161.5 L 225.5,161.3 L 225.5,161.2 L 225.7,161.1 L 225.7,160.9 L 225.9,160.8 L 226.3,160.7 L 227.0,160.8 L 227.4,160.9 L 228.1,161.0 L 228.6,160.9 L 229.0,160.8 L 229.3,160.7 L 229.5,160.7 L 229.7,160.6 L 229.8,160.6 L 229.9,160.6 L 230.6,160.8 L 230.8,160.8 L 231.0,160.7 L 231.3,160.7 L 231.5,160.7 L 232.0,160.7 L 232.4,160.7 L 232.5,160.7 L 233.2,160.8 L 233.7,160.8 L 234.7,161.0 L 234.9,161.1 L 236.7,161.5 L 236.9,161.6 L 237.2,161.7 L 237.3,161.6 L 237.5,161.5 L 237.7,161.7 L 238.1,161.8 L 238.4,162.0 L 239.1,162.1 L 239.7,162.3 L 239.8,162.4 L 239.9,162.4 L 240.1,162.3 L 240.2,162.4 L 240.6,162.6 L 241.0,162.7 L 241.2,162.9 L 241.3,163.0 L 241.4,163.0 L 242.3,163.2 L 242.7,163.3 L 243.1,163.4 L 243.4,163.2 L 243.6,163.3 L 243.8,163.3 L 244.0,163.2 L 244.3,163.4 L 244.9,163.4 L 245.1,163.4 L 245.3,163.5 L 245.7,164.0 L 245.9,164.3 L 245.9,164.8 L 246.2,164.9 L 246.2,165.1 L 246.1,165.6 L 246.1,165.8 L 246.5,166.0 L 247.0,166.3 L 247.1,166.5 L 247.5,166.8 L 247.9,167.2 L 247.8,167.5 L 248.0,167.7 L 248.1,168.0 L 248.3,168.2 L 248.6,168.3 L 248.6,168.5 L 248.5,168.6 L 248.5,168.7 L 248.5,168.8 L 248.6,169.2 L 248.9,169.3 L 249.0,169.5 L 249.2,169.6 L 249.4,169.7 L 249.6,169.9 L 249.9,170.1 L 250.2,170.2 L 250.4,170.2 L 250.8,170.3 L 250.9,170.2 L 251.1,170.2 L 251.7,170.5 L 251.9,170.7 L 252.2,170.8 L 252.6,170.9 L 252.9,171.0 L 253.9,171.1 L 254.6,171.3 L 255.1,171.3 L 255.7,171.4 L 256.2,171.2 L 256.6,171.2 L 256.9,170.7 L 257.0,170.5 L 256.7,170.5 L 256.5,170.4 L 256.4,170.3 L 256.5,170.2 L 256.7,170.0 L 257.0,169.9 L 257.2,169.8 L 257.3,169.4 L 257.5,169.3 L 257.5,169.3 L 257.9,169.1 L 258.0,169.1 L 258.0,169.3 L 257.9,169.6 L 258.1,169.6 L 258.4,169.5 L 258.6,169.5 L 258.9,169.4 L 259.1,169.3 L 259.2,169.1 L 259.5,168.9 L 259.9,168.9 L 260.3,168.6 L 260.3,168.6 L 260.5,168.7 L 260.7,168.6 L 261.1,168.6 L 261.3,168.8 L 261.3,168.8 L 261.5,169.3 L 261.5,169.6 L 261.5,169.8 L 261.9,170.0 L 262.3,170.1 L 262.6,170.3 L 262.7,170.3 L 262.5,170.4 L 261.8,170.3 L 261.7,170.4 L 261.5,170.8 L 261.1,171.2 L 261.1,171.4 L 261.2,171.4 L 261.7,171.6 L 262.9,171.7 L 263.2,171.7 L 263.3,171.8 L 263.5,171.8 L 263.6,171.7 L 264.4,171.8 L 264.5,171.7 L 265.1,171.8 L 265.3,171.7 L 265.5,171.5 L 265.5,171.2 L 265.6,171.1 L 265.9,171.1 L 266.0,170.8 L 266.1,170.8 L 266.4,170.7 L 266.6,170.6 L 266.9,170.5 L 267.6,170.2 L 267.8,170.3 L 268.0,170.1 L 268.7,170.1 L 268.9,170.2 L 268.9,170.2 L 268.6,170.8 L 268.6,171.0 L 268.9,171.2 L 269.7,171.4 L 270.4,171.6 L 270.4,171.7 L 270.4,171.9 L 270.4,172.1 L 270.6,172.2 L 270.8,172.4 L 271.3,172.7 L 271.8,172.8 L 272.3,172.9 L 273.3,173.3 L 274.0,173.4 L 274.0,173.5 L 274.0,173.6 L 274.9,173.8 L 275.2,173.9 L 276.0,174.0 L 276.1,174.1 L 276.3,174.3 L 276.6,174.4 L 277.1,174.4 L 277.3,174.4 L 277.3,174.2 L 277.1,174.1 L 277.2,173.8 L 277.3,173.7 L 278.1,173.8 L 278.7,173.7 L 279.8,173.8 L 280.3,173.8 L 280.6,173.7 L 281.1,173.9 L 282.2,173.9 L 282.8,174.0 L 283.7,174.1 L 284.6,174.3 L 285.8,174.5 L 286.0,174.6 L 286.8,174.6 L 287.1,174.7 L 287.8,174.7 L 287.8,174.8 L 287.7,175.0 L 287.7,175.0 L 287.8,175.1 L 288.3,175.2 L 288.7,175.2 L 288.7,175.3 L 288.4,175.4 L 288.5,175.5 L 288.7,175.5 L 288.9,175.7 L 288.9,175.8 L 288.7,175.9 L 288.2,175.9 L 288.1,175.9 L 287.2,176.0 L 286.9,176.1 L 286.9,176.2 L 287.7,176.4 L 287.7,176.5 L 287.8,176.7 L 287.7,176.8 L 287.4,176.8 L 287.3,176.8 L 287.4,177.0 L 287.6,177.1 L 287.8,177.0 L 288.1,177.1 L 288.2,177.1 L 288.3,177.2 L 288.4,177.3 L 288.5,177.5 L 289.0,177.6 L 289.1,177.8 L 289.2,178.0 L 289.5,178.2 L 290.2,178.3 L 290.4,178.1 L 290.7,178.1 L 290.8,178.1 L 291.1,178.0 L 291.3,178.0 L 291.5,177.8 L 291.6,177.8 L 291.8,177.9 L 292.2,178.0 L 292.3,177.9 L 292.3,177.8 L 292.7,177.9 L 292.9,177.8 L 293.8,177.8 L 293.9,177.9 L 294.1,178.3 L 294.5,179.0 L 294.4,179.3 L 294.2,179.4 L 294.0,179.6 L 294.0,180.1 L 294.1,180.2 L 294.3,180.3 L 294.5,180.5 L 294.8,180.3 L 295.1,180.2 L 295.3,180.1 L 296.0,180.0 L 297.1,180.0 L 297.3,180.2 L 297.6,180.3 L 297.7,180.5 L 297.7,181.0 L 297.5,181.9 L 297.4,182.2 L 297.4,182.8 L 297.6,183.2 L 297.7,183.3 L 297.8,183.5 L 297.9,183.5 L 298.5,183.8 L 298.7,183.9 L 298.9,184.0 L 300.4,184.5 L 300.9,184.8 L 301.5,185.5 L 302.4,185.7 L 303.4,185.8 L 303.7,185.7 L 304.1,185.7 L 304.9,185.7 L 305.3,185.8 L 305.6,185.9 L 305.8,186.0 L 305.9,186.2 L 305.9,186.4 L 305.7,186.8 L 305.7,187.2 L 305.7,187.4 L 305.8,187.6 L 305.9,187.9 L 306.1,188.2 L 306.5,188.5 L 306.8,188.5 L 307.5,188.6 L 308.7,188.5 L 309.1,188.6 L 310.1,188.6 L 310.3,188.6 L 310.9,188.7 L 311.9,188.5 L 312.9,188.2 L 313.3,188.2 L 313.9,188.3 L 314.7,188.1 L 315.3,188.1 L 315.5,188.0 L 315.7,188.0 L 317.1,188.2 L 318.3,188.1 L 319.0,188.0 L 319.3,187.8 L 320.7,187.8 L 321.2,187.8 L 321.8,187.8 L 322.0,187.9 L 322.1,188.2 L 322.2,188.4 L 322.4,188.5 L 323.0,188.7 L 323.8,188.8 L 324.1,188.8 L 325.0,188.9 L 325.8,188.9 L 326.2,188.8 L 326.7,188.8 L 327.2,188.7 L 327.4,188.6 L 327.4,188.4 L 327.8,188.2 L 328.3,188.0 L 328.8,188.1 L 329.4,188.2 L 329.7,188.3 L 330.0,188.4 L 330.2,188.5 L 330.5,188.8 L 330.8,188.9 L 331.0,189.1 L 331.3,189.2 L 331.8,189.4 L 332.7,189.7 L 332.9,189.7 L 333.9,189.8 L 334.2,189.6 L 334.2,189.5 L 334.1,189.4 L 333.9,189.3 L 333.5,189.2 L 333.5,189.1 L 333.8,188.9 L 333.7,188.7 L 333.6,188.5 L 333.5,188.5 L 333.5,188.3 L 333.5,188.2 L 334.1,187.8 L 334.5,187.7 L 334.6,187.7 L 334.8,187.6 L 336.0,187.5 L 336.6,187.4 L 337.0,187.4 L 337.5,187.3 L 338.4,187.2 L 338.6,187.1 L 338.7,186.8 L 338.7,186.4 L 338.8,186.3 L 338.8,186.2 L 338.9,186.1 L 339.1,185.9 L 339.1,185.9 L 339.3,185.8 L 339.3,185.6 L 339.3,185.4 L 339.1,185.0 L 339.2,184.7 L 339.3,184.7 L 340.5,184.8 L 340.7,185.0 L 340.7,185.2 L 340.9,185.2 L 341.3,185.4 L 341.6,185.7 L 341.7,185.6 L 341.7,185.5 L 342.1,185.3 L 342.1,185.3 L 342.3,185.3 L 342.5,185.5 L 342.7,185.7 L 342.9,185.9 L 343.8,186.2 L 343.7,186.5 L 343.7,186.6 L 343.7,186.7 L 343.7,187.0 L 343.6,187.2 L 343.6,187.6 L 343.3,187.6 L 343.2,187.7 L 343.1,188.2 L 343.0,188.3 L 342.6,188.3 L 342.5,188.3 L 342.5,188.6 L 342.5,188.9 L 342.8,189.1 L 343.4,189.3 L 343.8,189.6 L 344.1,189.7 L 344.1,189.7 L 344.5,189.8 L 344.8,189.9 L 344.9,189.9 L 345.0,189.9 L 345.2,190.0 L 345.4,190.0 L 345.6,189.8 L 345.6,189.7 L 345.6,189.5 L 345.8,189.3 L 346.1,189.2 L 346.5,189.2 L 346.7,189.0 L 346.7,188.9 L 346.9,188.7 L 347.3,188.8 L 347.8,189.1 L 348.0,189.4 L 348.2,189.6 L 348.3,189.6 L 348.8,189.9 L 349.2,190.0 L 349.4,189.9 L 349.6,189.7 L 349.6,189.2 L 349.7,189.1 L 350.1,188.8 L 350.2,188.3 L 350.4,188.1 L 350.5,187.7 L 350.8,187.6 L 351.1,187.6 L 351.3,187.7 L 351.5,187.8 L 351.8,187.9 L 353.1,189.2 L 353.2,189.5 L 353.2,189.8 L 353.2,190.4 L 353.0,190.7 L 352.9,191.0 L 352.4,191.5 L 352.4,191.8 L 352.5,192.2 L 352.4,193.0 L 352.4,193.5 L 352.7,194.1 L 352.8,194.6 L 353.3,195.1 L 353.6,195.3 L 354.1,195.5 L 354.6,195.5 L 354.6,195.3 L 354.9,195.2 L 355.0,195.3 L 355.2,195.4 L 355.5,195.4 L 355.6,195.2 L 355.9,194.9 L 356.1,195.0 L 357.0,195.4 L 357.3,195.9 L 357.4,196.2 L 357.5,196.5 L 357.7,196.7 L 358.4,196.9 L 358.6,197.0 L 358.5,197.7 L 358.5,198.2 L 358.4,198.3 L 358.4,198.4 L 358.6,198.7 L 358.5,198.9 L 358.5,199.0 L 358.0,198.9 L 358.0,199.1 L 358.1,199.2 L 358.2,199.3 L 358.5,199.4 L 358.5,199.6 L 358.3,199.9 L 358.2,200.2 L 358.3,200.6 L 358.3,201.5 L 358.1,201.8 L 358.3,202.0 L 358.4,202.1 L 358.5,203.0 L 358.5,203.2 L 358.7,203.2 L 359.0,203.2 L 359.1,203.0 L 359.2,202.8 L 359.3,202.6 L 359.5,202.7 L 359.6,202.8 L 359.8,202.8 L 360.0,203.7 L 360.0,204.0 L 360.0,204.2 L 359.9,204.4 L 359.7,204.6 L 359.6,204.8 L 359.2,205.1 L 359.1,205.1 L 358.7,205.2 L 358.4,205.3 L 358.2,205.4 L 358.0,205.7 L 357.7,205.8 L 357.1,205.9 L 356.7,205.9 L 356.3,205.7 L 356.2,205.5 L 356.0,205.3 L 355.8,205.2 L 355.6,205.1 L 355.4,204.9 L 355.1,204.9 L 354.9,204.9 L 354.7,204.9 L 354.7,205.0 L 354.5,205.0 L 354.0,204.8 L 353.7,204.8 L 353.2,205.0 L 352.6,204.9 L 352.4,204.8 L 352.3,204.6 L 352.2,204.4 L 352.1,204.3 L 351.9,204.1 L 351.9,203.7 L 351.9,203.3 L 351.8,203.1 L 351.9,202.9 L 351.9,202.6 L 351.9,202.6 L 351.3,202.1 L 351.1,202.1 L 350.9,202.2 L 350.7,202.2 L 350.2,201.5 L 350.0,201.4 L 349.4,200.5 L 349.3,200.0 L 349.1,199.6 L 348.9,199.4 L 348.6,198.5 L 348.3,197.7 L 348.1,197.0 L 348.0,196.7 L 348.0,196.2 L 348.1,195.8 L 347.8,195.1 L 347.8,194.7 L 347.4,193.7 L 347.2,192.3 L 347.1,191.8 L 347.2,191.2 L 347.2,191.1 L 347.0,191.0 L 346.7,191.0 L 346.2,191.2 L 345.9,191.0 L 345.7,190.9 L 345.4,190.7 L 344.8,190.4 L 344.2,190.4 L 344.1,190.4 L 343.2,190.4 L 342.7,190.2 L 342.5,190.5 L 342.4,191.1 L 342.2,191.6 L 342.0,191.9 L 341.7,192.2 L 341.4,192.2 L 341.1,192.5 L 340.9,192.6 L 340.5,192.6 L 340.2,192.3 L 338.5,191.6 L 337.6,191.3 L 336.9,191.2 L 336.6,191.2 L 336.0,191.4 L 335.8,191.6 L 335.1,192.5 L 335.0,192.5 L 334.7,192.4 L 334.4,192.5 L 334.1,192.7 L 333.9,192.7 L 332.9,192.6 L 332.5,192.5 L 332.3,192.4 L 332.0,192.5 L 331.6,192.7 L 331.2,192.9 L 330.9,193.1 L 330.4,193.3 L 330.3,193.3 L 329.3,193.3 L 329.0,193.3 L 328.2,193.4 L 327.3,193.3 L 326.7,193.1 L 326.4,193.2 L 325.7,193.5 L 325.3,193.5 L 325.2,193.5 L 324.7,193.7 L 324.4,193.7 L 324.2,193.7 L 323.7,193.7 L 322.9,193.6 L 322.7,193.6 L 322.3,193.2 L 322.0,193.2 L 321.7,193.2 L 321.4,193.3 L 321.0,193.3 L 320.4,193.3 L 320.3,193.3 L 320.2,193.0 L 320.0,192.9 L 319.3,192.9 L 318.5,193.2 L 318.3,193.2 L 318.0,193.0 L 317.7,192.8 L 317.5,192.7 L 317.3,192.6 L 316.9,192.6 L 316.8,192.5 L 316.7,192.5 L 316.4,192.5 L 316.3,192.5 L 316.1,192.6 L 316.0,192.9 L 316.1,193.7 L 316.1,193.8 L 315.8,194.4 L 315.6,194.4 L 315.5,194.3 L 315.2,194.2 L 315.1,194.2 L 315.0,194.2 L 314.8,194.1 L 314.7,194.2 L 314.8,194.6 L 315.0,194.7 L 314.9,195.0 L 314.9,195.1 L 314.5,195.2 L 313.9,195.2 L 313.7,194.9 L 313.6,194.9 L 313.5,194.8 L 313.4,194.7 L 312.3,194.6 L 312.1,194.5 L 311.8,194.4 L 311.4,194.2 L 311.0,193.8 L 310.8,193.6 L 310.7,193.4 L 310.8,193.3 L 311.0,193.3 L 311.4,193.2 L 311.7,193.0 L 311.9,192.7 L 311.8,192.6 L 311.2,192.4 L 311.1,192.2 L 310.1,192.0 L 309.9,192.1 L 309.5,192.2 L 308.5,193.0 L 308.4,193.0 L 308.2,193.1 L 308.0,193.1 L 307.7,193.2 L 307.4,193.3 L 307.2,193.6 L 307.2,193.9 L 307.1,194.1 L 306.9,194.1 L 306.4,194.3 L 306.2,194.5 L 305.8,195.3 L 305.6,195.5 L 304.9,195.6 L 303.3,196.0 L 303.2,196.0 L 303.1,195.7 L 302.9,195.7 L 302.7,195.9 L 302.6,195.8 L 302.2,195.6 L 302.1,195.5 L 302.0,195.4 L 302.0,195.4 L 302.0,195.4 L 301.7,195.5 L 301.4,194.8 L 301.3,194.6 L 301.5,194.1 L 301.6,193.6 L 301.4,193.1 L 301.5,192.6 L 301.7,192.0 L 301.8,191.8 L 302.4,191.7 L 302.7,191.4 L 302.8,191.2 L 302.9,190.9 L 302.8,190.5 L 302.5,190.0 L 302.3,189.9 L 302.1,189.8 L 302.0,189.6 L 302.2,189.5 L 302.3,189.5 L 302.4,189.4 L 302.4,189.3 L 301.7,188.5 L 301.4,188.3 L 300.8,188.2 L 300.1,187.8 L 299.8,187.7 L 299.6,187.8 L 299.4,188.2 L 299.2,188.5 L 299.2,188.8 L 299.3,189.0 L 299.9,189.2 L 300.1,189.3 L 300.1,189.5 L 300.0,189.7 L 299.8,189.8 L 299.5,189.8 L 299.0,190.0 L 298.7,190.0 L 298.1,189.7 L 297.5,189.4 L 297.3,188.9 L 297.1,188.8 L 296.8,188.6 L 296.1,188.5 L 295.4,188.4 L 295.2,188.3 L 294.9,187.6 L 294.6,187.3 L 294.0,186.9 L 293.9,186.6 L 293.9,186.5 L 293.6,186.2 L 293.5,185.9 L 293.3,185.7 L 293.0,185.5 L 292.1,184.9 L 290.7,184.3 L 290.4,184.2 L 290.3,183.8 L 290.3,183.8 L 290.1,183.4 L 290.1,182.7 L 290.3,182.6 L 290.4,182.5 L 290.6,182.4 L 290.7,182.2 L 290.8,181.8 L 290.7,181.6 L 290.9,181.4 L 291.1,181.4 L 291.3,180.8 L 291.3,180.6 L 291.2,180.6 L 290.6,180.3 L 290.3,180.2 L 289.9,180.1 L 289.5,180.1 L 288.7,180.2 L 287.6,180.0 L 287.4,180.0 L 286.8,180.1 L 286.7,180.2 L 286.6,180.3 L 286.7,180.6 L 287.1,181.0 L 287.7,181.2 L 288.4,181.7 L 288.6,181.9 L 288.4,182.0 L 288.1,181.9 L 288.0,181.9 L 287.1,181.9 L 286.6,182.0 L 286.4,182.1 L 286.0,182.2 L 285.8,182.3 L 284.5,182.4 L 284.4,182.5 L 284.2,182.5 L 283.8,182.4 L 283.7,182.4 L 283.8,182.6 L 283.7,182.6 L 283.7,182.8 L 283.6,182.8 L 282.6,182.7 L 282.1,182.5 L 281.8,182.4 L 281.8,182.6 L 282.0,182.8 L 281.9,182.8 L 281.5,182.8 L 281.2,182.7 L 280.7,182.6 L 280.5,182.7 L 280.3,182.8 L 280.0,182.6 L 279.7,182.6 L 279.5,182.6 L 278.9,182.6 L 278.7,182.7 L 278.2,183.6 L 278.0,183.7 L 277.7,183.7 L 277.4,183.7 L 276.3,183.2 L 275.9,183.0 L 275.4,182.9 L 274.6,182.5 L 274.2,182.2 L 274.1,182.1 L 273.9,182.0 L 273.6,181.9 L 273.4,181.8 L 273.5,181.5 L 273.7,181.5 L 273.8,181.4 L 273.9,181.3 L 273.7,181.2 L 273.4,181.1 L 273.2,180.8 L 272.8,180.4 L 272.3,180.2 L 271.3,179.9 L 270.0,179.8 L 268.8,179.7 L 268.3,179.7 L 267.8,179.7 L 267.6,179.7 L 267.4,179.5 L 267.3,179.4 L 267.4,179.1 L 267.2,179.1 L 267.1,179.2 L 267.2,179.3 L 267.1,179.4 L 267.0,179.4 L 266.9,179.3 L 266.9,179.2 L 266.8,179.0 L 266.2,178.8 L 265.6,178.7 L 265.5,178.6 L 265.1,178.3 L 264.9,178.2 L 264.2,178.1 L 264.0,177.9 L 263.9,177.8 L 264.0,177.8 L 264.3,177.8 L 264.4,177.7 L 264.2,177.5 L 263.7,177.5 L 263.1,177.1 L 262.8,177.0 L 262.5,177.0 L 262.4,176.9 L 262.3,176.9 L 262.0,176.7 L 261.6,176.5 L 261.3,176.4 L 261.0,176.4 L 260.5,176.2 L 260.2,176.2 L 259.9,176.2 L 259.7,176.3 L 259.5,177.0 L 259.3,177.2 L 259.3,177.4 L 259.1,177.5 L 259.1,177.7 L 259.1,177.9 L 258.9,178.1 L 258.7,178.4 L 258.6,178.5 L 258.4,178.6 L 258.2,178.7 L 258.1,178.8 L 258.0,178.7 L 257.7,178.6 L 257.4,178.8 L 257.2,178.8 L 256.1,178.7 L 256.1,178.7 L 255.8,178.7 L 255.3,178.8 L 255.2,178.9 L 255.0,178.8 L 254.0,178.9 L 253.4,178.8 L 252.9,178.7 L 252.5,178.6 L 251.7,178.4 L 251.1,178.2 L 251.0,178.1 L 250.6,177.9 L 250.3,177.8 L 250.1,177.7 L 249.8,177.6 L 249.5,177.5 L 248.8,177.3 L 248.6,177.1 L 248.1,177.0 L 248.0,176.9 L 247.6,176.7 L 247.3,176.6 L 246.9,176.3 L 246.5,176.2 L 246.0,176.0 L 245.5,175.8 L 245.1,175.5 L 244.8,175.3 L 244.3,175.1 L 244.0,175.1 L 243.8,175.0 L 243.3,174.8 L 242.8,174.5 L 242.6,174.3 L 242.5,174.1 L 242.5,173.8 L 242.4,173.6 L 242.4,173.2 L 242.5,173.0 L 242.5,172.8 L 242.1,172.5 L 241.7,172.4 L 241.4,172.4 L 241.1,172.5 L 240.9,172.5 L 240.5,172.4 L 240.6,172.2 L 240.3,171.9 L 240.1,171.8 L 239.8,171.6 L 239.7,171.4 L 239.8,171.2 L 239.6,170.6 L 239.1,170.2 L 238.8,170.1 L 238.7,170.0 L 238.6,169.8 L 238.3,169.7 L 237.7,169.6 L 237.6,169.7 L 237.4,169.7 L 236.7,169.6 L 236.7,169.4 L 236.4,169.3 L 236.4,169.4 L 236.2,169.5 L 235.8,169.4 L 235.1,169.6 L 235.0,169.7 L 234.9,169.9 L 234.7,169.9 L 234.6,170.0 L 234.6,170.2 L 234.5,170.3 L 234.7,170.7 L 234.6,170.8 L 234.3,171.0 L 234.1,171.2 L 233.4,171.3 L 232.8,171.9 L 232.3,172.3 L 231.8,172.4 L 231.4,172.3 L 230.9,172.2 L 230.4,172.0 L 230.2,171.6 L 230.0,171.5 L 229.0,171.4 L 228.2,170.8 L 227.9,170.5 L 227.1,170.4 L 226.6,170.2 L 226.0,170.1 L 225.7,170.1 L 225.5,170.3 L 224.4,170.7 L 224.1,170.7 L 223.4,170.8 L 223.2,170.9 L 223.0,171.3 L 222.9,171.4 L 222.9,171.6 L 222.9,171.7 L 222.7,171.7 L 222.6,171.8 L 222.6,172.1 L 222.5,172.5 L 222.5,172.6 L 222.7,172.7 L 222.7,172.8 L 222.8,173.0 L 222.9,173.4 L 222.8,173.4 L 222.8,173.6 L 223.0,173.7 L 223.0,173.8 L 222.8,173.9 L 222.7,174.0 L 222.9,175.0 L 223.0,175.3 L 222.9,175.7 L 223.1,175.9 L 223.0,176.2 L 223.3,176.8 L 223.4,176.9 L 223.5,177.4 L 223.7,177.6 L 223.8,177.7 L 224.0,177.8 L 224.1,177.9 L 224.1,178.1 L 224.2,178.3 L 224.3,178.5 L 224.4,178.5 L 224.4,178.5 L 224.3,178.8 L 224.2,178.9 L 224.2,178.8 L 223.2,178.7 L 223.2,178.8 L 223.1,178.8 L 223.2,179.2 L 223.2,179.2 L 222.7,179.3 L 222.5,179.4 L 222.5,179.5 L 222.4,179.6 L 222.2,179.5 L 222.2,179.1 L 222.2,179.1 L 221.9,179.1 L 221.8,179.4 L 221.8,179.9 L 221.8,179.9 L 221.9,180.0 L 221.9,180.1 L 221.8,180.4 L 221.7,180.4 L 221.5,180.4 L 221.4,180.3 L 220.5,180.4 L 220.4,180.4 L 220.4,180.5 L 220.2,180.5 L 220.3,180.3 L 219.8,180.2 L 219.8,180.4 L 219.2,180.6 L 219.2,180.7 L 219.0,180.8 L 218.9,180.8 L 218.5,180.7 L 218.4,180.7 L 218.0,180.7 L 217.8,180.2 L 217.8,180.6 L 217.7,180.7 L 217.3,180.7 L 217.1,180.6 L 217.0,180.4 L 217.0,180.3 L 217.6,180.4 L 217.6,180.3 L 217.0,180.2 L 216.7,180.1 L 216.0,180.2 L 215.7,180.4 L 215.2,180.5 L 214.7,180.5 L 214.6,180.5 L 214.4,180.5 L 214.1,180.4 L 212.7,180.3 L 212.3,180.2 L 211.6,180.3 L 211.3,180.1 L 210.7,180.0 L 210.3,180.1 L 210.2,180.1 L 210.1,180.3 L 210.1,180.4 L 210.1,180.5 L 209.8,180.4 L 209.4,180.5 L 209.2,180.6 L 209.1,180.8 L 208.8,180.8 L 208.6,181.0 L 208.4,181.1 L 207.5,181.0 L 207.1,181.0 L 205.3,181.3 L 205.0,181.3 L 204.8,181.4 L 204.8,181.4 L 204.3,181.6 L 204.4,181.7 L 204.6,181.9 L 204.5,182.0 L 204.4,182.2 L 204.6,182.3 L 204.5,182.7 L 204.6,182.8 L 204.6,182.8 L 204.6,183.0 L 204.8,183.2 L 205.1,183.6 L 205.3,184.0 L 205.6,184.4 L 205.8,184.5 L 205.8,184.7 L 205.8,184.8 L 206.1,184.8 L 206.2,184.9 L 206.4,185.3 L 206.2,185.8 L 205.9,185.9 L 205.7,186.4 L 205.5,186.6 L 205.2,186.9 L 205.2,187.2 L 205.4,187.5 L 205.3,187.8 L 205.2,188.0 L 204.4,189.0 L 204.1,188.9 L 204.0,188.9 L 203.6,189.0 L 203.2,189.1 L 202.8,189.1 L 202.5,189.1 L 202.3,188.9 L 202.1,188.9 L 201.7,188.9 L 201.7,189.1 L 202.1,189.1 L 202.1,189.2 L 202.1,189.3 L 201.7,189.3 L 201.4,189.3 L 200.7,189.2 L 200.6,189.3 L 200.6,189.4 L 200.6,190.0 L 200.4,190.7 L 200.3,190.9 L 200.2,191.1 L 200.0,191.4 L 199.7,191.6 L 199.4,191.6 L 198.6,191.5 L 198.0,191.7 L 197.7,191.9 L 197.4,192.2 L 197.2,192.4 L 197.0,192.3 L 196.6,192.1 L 196.4,192.1 L 196.0,192.2 L 195.8,192.2 L 195.4,192.2 L 194.9,192.1 L 194.3,191.8 L 193.9,191.6 L 193.7,191.4 L 193.3,191.3 L 193.0,191.0 L 192.8,190.7 L 192.6,190.6 L 192.5,190.4 L 192.6,190.3 L 192.6,190.2 L 192.5,189.9 L 192.4,190.0 L 192.3,190.1 L 192.3,190.2 L 192.0,190.2 L 191.9,190.3 L 191.7,190.2 L 191.3,190.3 L 191.1,190.2 L 190.9,190.1 L 190.2,190.0 L 189.8,189.8 L 189.3,189.7 L 188.3,189.4 L 187.4,189.2 L 186.0,188.6 L 185.7,188.5 L 185.2,188.4 L 184.9,188.4 L 184.1,188.7 L 183.7,188.7 L 183.2,188.7 L 182.7,188.8 L 181.8,188.6 L 181.6,188.8 L 181.4,189.1 L 181.1,189.3 L 180.7,189.3 L 180.5,189.1 L 180.3,188.7 L 180.2,188.7 L 180.0,188.6 L 179.5,188.3 L 179.2,188.3 L 179.0,188.3 L 178.9,188.2 L 178.8,187.7 L 178.6,187.6 L 178.2,187.5 L 177.9,187.3 L 177.7,187.2 L 177.4,187.2 L 175.9,186.4 L 175.8,186.5 L 175.7,186.7 L 175.7,186.7 L 175.6,186.7 L 175.3,186.5 L 175.2,186.4 L 174.9,186.2 L 174.8,186.0 L 174.6,185.4 L 174.5,185.2 L 174.5,185.1 L 174.6,184.6 L 174.4,184.3 L 174.0,183.7 L 174.1,183.4 L 174.0,183.3 L 174.0,183.1 L 173.9,182.9 L 173.7,182.4 L 173.6,182.3 L 173.8,182.1 L 173.8,181.9 L 173.6,181.6 L 173.6,181.4 L 173.3,181.2 L 173.6,181.0 L 173.6,180.8 L 173.5,180.7 L 172.9,180.5 L 172.5,180.2 L 172.0,179.8 L 171.1,179.7 L 170.8,179.7 L 170.3,179.7 L 169.2,179.8 L 168.5,179.9 L 167.4,179.9 L 166.8,180.0 L 166.1,180.3 L 165.5,180.3 L 164.8,181.2 L 164.8,181.4 L 164.8,181.5 L 165.4,181.8 L 165.4,181.9 L 165.3,181.9 L 165.1,181.9 L 165.1,182.0 L 165.1,182.0 L 165.3,182.0 L 165.3,182.1 L 165.1,182.4 L 165.0,182.5 L 164.5,182.6 L 163.4,182.5 L 163.0,182.6 L 162.8,182.7 L 162.8,182.9 L 162.7,183.0 L 162.7,183.3 L 162.8,183.3 L 163.3,183.6 L 163.4,183.9 L 163.8,184.2 L 163.9,184.4 L 163.9,184.7 L 163.9,184.8 L 163.9,185.1 L 164.0,185.2 L 164.7,185.5 L 165.1,185.7 L 165.1,186.0 L 165.8,186.5 L 166.5,186.9 L 166.5,187.0 L 166.5,187.1 L 166.2,187.0 L 165.7,186.9 L 165.6,186.9 L 163.9,186.6 L 163.7,186.6 L 163.5,186.8 L 163.4,186.9 L 163.5,187.1 L 163.4,187.3 L 163.5,187.3 L 163.5,187.3 L 159.3,189.2 L 158.7,189.5 L 158.4,189.5 L 158.2,189.5 L 157.9,189.3 L 158.0,188.9 L 157.9,188.8 L 157.7,188.8 L 157.7,188.7 L 157.7,188.5 L 157.5,188.5 L 157.4,188.4 L 157.3,188.4 L 157.1,188.5 L 157.1,188.7 L 156.9,188.7 L 156.7,188.6 L 156.3,188.4 L 156.0,188.2 L 155.9,188.1 L 155.2,188.0 L 154.6,188.0 L 154.1,188.1 L 153.6,188.0 L 153.1,188.0 L 152.7,188.0 L 152.6,188.1 L 152.4,188.2 L 152.4,188.5 L 152.4,188.7 L 152.3,188.9 L 152.3,189.1 L 152.3,189.3 L 152.1,189.4 L 152.0,189.3 L 152.0,189.2 L 151.7,189.1 L 151.5,189.0 L 151.5,188.8 L 151.3,188.8 L 150.9,188.8 L 150.7,188.7 L 150.3,188.6 L 150.1,188.9 L 150.0,189.0 L 149.8,188.7 L 149.3,188.5 L 149.0,188.2 L 148.8,188.1 L 148.6,188.1 L 148.5,188.3 L 148.4,188.1 L 147.0,187.6 L 145.5,187.2 L 144.9,186.8 L 144.6,186.8 L 144.4,186.7 L 143.9,186.5 L 143.4,186.4 L 142.4,186.3 L 142.2,186.3 L 141.8,186.3 L 141.4,186.3 L 139.5,186.0 L 138.8,185.8 L 138.4,185.5 L 137.8,185.0 L 137.5,184.8 L 136.9,184.5 L 136.8,184.4 L 136.8,184.2 L 136.7,184.1 L 136.3,184.1 L 136.0,184.1 L 135.4,184.3 L 134.7,184.3 L 134.4,184.5 L 134.2,184.6 L 133.9,184.8 L 133.7,184.9 L 133.5,184.9 L 133.1,185.1 L 132.8,185.5 L 132.4,186.9 L 132.3,187.1 L 132.1,187.6 L 132.2,187.9 L 132.1,188.2 L 131.8,188.5 L 131.5,188.6 L 131.4,188.7 L 130.5,189.0 L 130.0,188.9 L 129.4,188.7 L 129.0,188.7 L 128.5,188.4 L 128.2,188.2 L 127.9,188.2 L 127.7,188.2 L 127.6,188.2 L 127.4,188.0 L 127.0,187.9 L 126.8,187.8 L 126.6,187.7 L 126.2,187.6 L 126.0,187.5 L 125.7,187.5 L 125.4,187.6 L 125.0,187.5 L 124.7,187.7 L 124.4,187.6 L 124.0,187.5 L 123.8,187.4 L 123.4,187.2 L 123.1,187.1 L 122.8,186.9 L 122.7,186.6 L 122.4,186.6 L 122.3,186.5 L 121.9,186.4 L 121.8,186.6 L 121.6,186.5 L 121.4,186.4 L 120.7,186.2 L 120.6,186.1 L 120.2,186.1 L 119.8,186.2 L 119.5,186.2 L 119.2,186.1 L 119.0,186.0 L 118.7,185.7 L 118.6,185.7 L 118.6,185.7 L 118.3,185.8 L 117.9,186.0 L 117.6,186.1 L 117.4,186.3 L 117.3,186.8 L 117.2,187.0 L 116.8,187.4 L 116.7,187.8 L 116.5,188.1 L 116.5,188.2 L 116.4,188.6 L 116.7,189.0 L 116.7,189.2 L 116.5,189.5 L 116.3,190.0 L 116.1,190.7 L 116.0,191.4 L 116.4,191.9 L 116.3,192.8 L 116.1,193.3 L 116.1,193.6 L 115.9,194.1 L 115.7,194.3 L 115.7,194.5 L 115.8,194.7 L 115.9,194.8 L 115.9,195.1 L 116.0,195.3 L 116.1,195.6 L 115.8,195.7 L 115.8,196.2 L 115.9,196.4 L 115.8,196.4 L 115.8,196.6 L 115.7,196.8 L 115.5,196.8 L 115.2,196.7 L 115.0,196.9 L 114.9,197.1 L 115.0,197.2 L 114.9,197.4 L 115.0,197.6 L 115.0,197.9 L 114.9,198.2 L 114.8,198.6 L 114.8,198.6 L 114.8,198.7 L 114.9,198.9 L 114.9,199.4 L 114.8,199.4 L 91.1,210.8 L 89.1,211.7 L 89.1,211.7 L 88.9,211.7 L 88.9,211.5 L 88.7,211.4 L 88.5,211.2 L 88.5,211.0 L 88.5,210.9 L 88.2,210.8 L 87.9,210.8 L 87.7,210.7 L 86.8,210.4 L 86.4,210.4 L 86.1,210.2 L 85.7,210.3 L 85.2,210.3 L 84.9,210.4 L 84.5,210.4 L 83.9,210.3 L 83.3,210.1 L 83.0,210.1 L 82.7,210.1 L 82.2,210.4 L 81.9,210.3 L 81.7,210.4 L 81.4,210.4 L 81.0,210.6 L 80.8,210.8 L 80.8,211.0 L 80.5,211.2 L 80.5,211.3 L 80.8,211.5 L 80.9,211.7 L 80.8,212.1 L 80.8,212.6 L 81.0,212.7 L 80.9,213.2 L 81.0,213.2 L 81.3,213.3 L 81.4,213.5 L 81.6,213.6 L 81.5,213.6 L 81.6,213.8 L 81.6,214.0 L 81.5,214.1 L 81.4,214.1 L 81.2,214.2 L 81.2,214.3 L 81.6,214.4 L 81.5,214.8 L 81.7,215.0 L 81.7,215.1 L 81.6,215.3 L 81.1,215.3 L 81.0,215.2 L 80.5,215.1 L 79.3,215.5 L 78.7,215.9 L 78.5,215.9 L 78.4,215.8 L 78.1,215.7 L 77.9,215.8 L 77.5,216.1 L 77.5,216.2 L 78.2,216.2 L 78.4,216.1 L 78.7,216.1 L 78.9,216.4 L 78.9,216.5 L 78.6,216.6 L 78.5,216.7 L 78.0,216.9 L 77.8,216.9 L 77.8,216.8 L 77.9,216.5 L 77.8,216.4 L 77.5,216.4 L 77.3,216.4 L 77.2,216.4 L 77.0,216.5 L 76.9,216.8 L 76.5,217.2 L 76.4,217.4 L 76.4,217.6 L 76.6,217.9 L 76.9,217.9 L 77.0,217.6 L 77.3,217.7 L 77.2,217.8 L 77.2,218.0 L 77.2,218.0 L 77.1,218.1 L 77.0,218.1 L 76.9,218.3 L 77.0,218.4 L 76.8,218.7 L 77.0,219.0 L 77.1,219.1 L 77.2,219.3 L 77.0,219.3 L 76.8,219.4 L 76.7,219.4 L 76.2,219.3 L 75.8,219.2 L 75.7,219.4 L 76.0,219.8 L 76.3,220.0 L 76.6,220.1 L 76.7,220.2 L 77.0,220.2 L 77.3,220.4 L 77.4,220.5 L 77.4,220.6 L 77.3,220.7 L 76.9,220.7 L 76.5,220.5 L 76.2,220.2 L 76.0,220.0 L 75.9,220.0 L 75.8,220.1 L 76.0,220.4 L 75.8,220.5 L 75.7,220.7 L 75.7,220.8 L 75.7,221.0 L 75.7,221.1 L 76.2,221.3 L 76.4,221.4 L 76.7,221.4 L 76.9,221.3 L 77.1,221.4 L 77.2,221.5 L 77.1,221.6 L 77.0,221.7 L 77.2,221.8 L 77.5,222.0 L 77.4,222.1 L 77.6,222.2 L 77.9,222.2 L 78.0,222.3 L 78.2,222.4 L 78.3,222.5 L 78.2,222.5 L 77.4,222.4 L 77.1,222.7 L 77.0,222.8 L 77.1,222.8 L 77.1,223.0 L 77.0,223.1 L 76.8,223.2 L 76.5,223.3 L 76.5,223.5 L 76.4,223.6 L 76.1,223.9 L 76.1,224.1 L 76.1,224.4 L 76.5,224.4 L 76.6,224.6 L 76.5,224.7 L 76.3,224.7 L 76.3,224.7 L 76.5,224.8 L 76.9,225.0 L 77.0,225.0 L 77.1,225.1 L 77.0,225.2 L 76.8,225.3 L 76.7,225.5 L 76.6,225.6 L 76.1,225.6 L 75.9,225.8 L 76.2,226.1 L 76.3,226.4 L 76.2,226.6 L 75.8,226.9 L 75.6,227.2 L 75.4,227.7 L 75.4,227.8 L 75.0,227.9 L 75.1,228.0 L 75.4,228.0 L 76.1,228.1 L 76.4,228.2 L 76.8,228.3 L 77.0,228.3 L 77.2,228.2 L 77.8,228.3 L 78.0,228.1 L 78.1,228.4 L 78.3,228.2 L 78.7,228.2 L 78.9,228.1 L 79.0,227.9 L 79.3,227.7 L 79.6,227.5 L 79.8,227.6 L 79.9,227.6 L 79.9,227.4 L 79.6,227.4 L 79.7,227.1 L 79.9,226.8 L 80.0,226.7 L 80.2,226.8 L 80.4,226.9 L 80.6,226.9 L 80.7,226.8 L 81.1,226.9 L 81.2,227.0 L 81.1,227.2 L 80.4,227.3 L 80.3,227.5 L 80.4,227.7 L 80.7,227.8 L 81.0,228.0 L 81.3,228.1 L 81.4,228.2 L 81.9,228.3 L 82.0,228.4 L 82.2,228.7 L 82.5,228.7 L 82.6,228.7 L 82.9,228.8 L 83.0,229.1 L 83.1,229.1 L 83.4,229.0 L 83.5,228.8 L 84.1,228.6 L 84.1,228.5 L 84.1,228.5 L 84.3,228.4 L 84.5,228.5 L 84.6,228.6 L 84.8,228.8 L 85.0,228.8 L 85.4,228.9 L 85.6,229.1 L 85.8,229.5 L 85.8,229.7 L 85.7,229.8 L 85.4,229.9 L 85.4,230.1 L 85.5,230.2 L 85.5,230.4 L 85.6,230.5 L 85.8,230.7 L 85.8,230.9 L 85.6,231.1 L 85.5,231.3 L 85.3,231.6 L 85.4,231.7 L 85.4,231.9 L 85.4,232.0 L 85.3,232.5 L 85.0,232.7 L 85.1,232.8 L 84.9,233.2 L 84.6,233.3 L 84.2,233.3 L 84.0,233.2 L 83.6,232.9 L 83.3,232.8 L 83.2,232.6 L 83.1,232.5 L 82.8,232.4 L 82.6,232.2 L 82.4,232.1 L 82.0,232.2 L 81.6,232.7 L 81.3,232.7 L 80.5,232.6 L 80.3,232.7 L 80.4,232.9 L 80.6,232.9 L 81.0,233.2 L 81.5,233.3 L 81.4,233.4 L 81.5,233.5 L 81.7,233.6 L 81.9,233.6 L 82.2,233.3 L 82.4,233.2 L 82.4,233.4 L 82.1,233.9 L 82.1,234.1 L 82.1,234.3 L 82.0,234.5 L 81.7,234.5 L 81.5,234.7 L 81.5,235.0 L 81.3,235.4 L 81.3,235.5 L 81.3,235.5 L 81.1,236.0 L 81.0,236.0 L 80.9,236.0 L 81.0,235.7 L 81.1,235.5 L 81.1,235.3 L 80.9,235.2 L 81.0,235.0 L 81.0,234.9 L 81.1,234.8 L 81.1,234.7 L 81.0,234.6 L 81.1,234.5 L 81.1,234.5 L 81.3,234.5 L 81.3,234.5 L 81.3,234.4 L 81.5,234.1 L 81.4,233.9 L 81.1,233.8 L 79.9,233.3 L 79.5,233.3 L 79.4,233.4 L 79.5,233.5 L 79.6,233.6 L 79.9,233.7 L 79.9,233.8 L 80.2,234.0 L 80.2,234.1 L 80.0,234.2 L 79.9,234.2 L 80.1,234.3 L 80.1,234.4 L 79.7,234.4 L 79.6,234.5 L 78.8,234.5 L 78.7,234.3 L 79.0,234.2 L 79.1,234.0 L 79.1,233.8 L 79.3,233.7 L 79.4,233.3 L 79.1,233.2 L 78.5,232.9 L 78.0,232.8 L 77.6,232.8 L 77.4,232.7 L 76.9,232.6 L 76.5,232.9 L 76.6,233.2 L 76.5,233.3 L 76.6,233.6 L 76.9,234.0 L 77.3,234.1 L 78.0,234.4 L 78.0,234.5 L 77.4,234.8 L 77.1,234.8 L 76.9,234.6 L 76.8,234.6 L 76.6,234.5 L 76.4,234.6 L 75.9,234.6 L 75.6,234.6 L 75.5,234.7 L 74.4,234.5 L 74.4,234.5 L 73.9,234.4 L 73.8,234.4 L 73.6,234.3 L 73.6,234.4 L 73.0,234.3 L 72.9,234.5 L 72.8,234.7 L 73.0,234.8 L 73.3,234.9 L 73.3,235.0 L 73.4,235.1 L 73.6,235.1 L 74.3,235.2 L 74.4,235.3 L 74.6,235.2 L 74.7,235.3 L 74.8,235.4 L 75.0,235.4 L 75.2,235.5 L 75.8,235.9 L 76.2,235.9 L 76.5,235.8 L 76.7,235.8 L 76.9,235.8 L 77.7,236.0 L 77.8,236.2 L 78.0,236.5 L 78.1,236.7 L 78.0,237.0 L 78.1,237.0 L 78.2,237.2 L 78.6,237.3 L 78.8,237.3 L 79.0,237.3 L 79.2,237.3 L 79.5,237.4 L 79.6,237.6 L 79.5,237.8 L 79.2,237.9 L 78.9,238.0 L 78.7,238.1 L 78.5,238.1 L 77.9,237.9 L 77.3,238.0 L 76.7,237.9 L 76.3,238.0 L 75.9,238.1 L 75.7,238.0 L 75.5,238.1 L 75.7,238.5 L 75.8,238.8 L 75.8,238.9 L 75.6,239.0 L 75.2,239.1 L 75.2,239.3 L 75.1,239.3 L 75.0,239.4 L 74.9,239.4 L 74.8,239.3 L 74.6,239.1 L 74.6,238.8 L 74.4,238.7 L 74.4,238.7 L 74.9,238.6 L 75.1,238.5 L 75.2,238.3 L 75.0,238.2 L 74.1,238.0 L 73.9,237.8 L 73.7,237.7 L 73.4,237.8 L 73.1,237.8 L 73.0,237.7 L 73.1,237.6 L 73.4,237.4 L 73.7,237.3 L 74.0,237.3 L 74.3,237.2 L 74.4,237.2 L 74.5,237.1 L 74.4,236.9 L 74.4,236.8 L 74.0,236.8 L 73.9,236.7 L 73.8,236.5 L 73.5,236.5 L 73.2,236.4 L 73.0,236.3 L 73.0,236.2 L 72.9,236.1 L 73.0,235.8 L 72.9,235.8 L 72.0,235.6 L 72.0,235.5 L 72.3,235.2 L 72.3,234.9 L 72.5,234.5 L 72.5,234.3 L 72.5,234.1 L 72.5,233.9 L 72.7,233.8 L 72.7,233.7 L 72.6,233.6 L 73.1,233.7 L 73.3,233.7 L 73.4,233.3 L 73.4,233.2 L 73.3,233.2 L 73.2,233.0 L 73.3,232.8 L 73.0,232.8 L 72.6,232.9 L 72.4,233.1 L 72.5,233.3 L 72.2,233.3 L 71.8,233.3 L 71.0,233.2 L 71.0,233.1 L 71.0,232.9 L 71.3,232.7 L 71.6,232.7 L 71.6,232.6 L 71.6,232.5 L 72.2,232.4 L 72.4,232.3 L 72.1,232.0 L 71.9,231.7 L 71.4,231.6 L 71.1,231.4 L 70.2,231.2 L 69.8,230.9 L 69.4,230.9 L 67.9,230.7 L 67.7,230.6 L 67.6,230.5 L 67.7,230.4 L 68.1,230.6 L 68.5,230.5 L 68.9,230.6 L 69.4,230.7 L 69.9,230.8 L 70.2,230.9 L 70.7,230.9 L 71.2,231.0 L 71.4,231.1 L 71.6,231.2 L 71.6,231.0 L 71.6,230.9 L 71.6,230.7 L 71.3,230.5 L 70.7,230.3 L 70.5,230.1 L 70.3,230.0 L 70.2,229.9 L 70.3,229.7 L 70.6,229.3 L 70.6,229.2 L 70.4,229.0 L 70.2,229.0 L 70.0,228.7 L 69.5,228.6 L 69.2,228.7 L 69.1,228.8 L 68.8,228.6 L 68.2,228.7 L 68.1,228.7 L 67.9,228.8 L 67.4,228.8 L 67.3,228.9 L 66.9,228.9 L 66.8,229.0 L 66.5,229.4 L 66.5,229.5 L 66.3,229.8 L 66.4,229.8 L 66.5,230.0 L 65.9,229.9 L 65.8,229.8 L 65.9,229.6 L 65.5,229.4 L 65.4,229.3 L 65.5,229.1 L 65.4,229.0 L 64.7,228.6 L 64.3,228.6 L 63.8,228.5 L 63.5,228.6 L 63.4,228.7 L 63.3,228.7 L 63.1,228.7 L 62.9,228.8 L 62.9,228.9 L 63.1,229.1 L 63.2,229.1 L 63.6,229.5 L 63.9,229.6 L 63.8,229.7 L 63.9,230.0 L 63.6,230.0 L 63.3,230.1 L 63.0,230.3 L 62.8,230.3 L 62.6,230.1 L 62.4,230.1 L 62.4,230.5 L 62.2,230.7 L 62.2,230.7 L 62.7,230.9 L 62.9,231.0 L 63.0,231.1 L 63.2,231.1 L 63.3,231.0 L 63.8,231.0 L 64.2,231.0 L 64.5,231.0 L 64.9,231.3 L 64.8,231.4 L 64.7,231.4 L 64.6,231.4 L 64.3,231.4 L 63.8,231.7 L 63.6,231.9 L 63.4,232.2 L 63.0,232.5 L 63.0,232.5 L 62.7,232.5 L 62.3,232.5 L 62.2,232.6 L 61.9,232.7 L 61.7,232.7 L 61.4,232.5 L 61.2,232.3 L 60.9,232.0 L 60.7,232.0 L 60.5,232.0 L 60.4,231.9 L 60.4,231.7 L 60.8,231.2 L 61.0,231.2 L 61.1,231.1 L 61.0,231.0 L 60.9,230.9 L 60.6,230.9 L 60.5,230.5 L 60.3,230.3 L 60.1,230.0 L 60.1,229.6 L 59.9,229.6 L 59.9,229.5 L 60.0,229.3 L 60.1,229.2 L 59.8,228.9 L 59.7,228.5 L 59.5,228.5 L 59.3,228.5 L 59.2,228.5 L 59.1,228.3 L 58.7,228.2 L 58.2,227.9 L 58.1,227.8 L 57.8,227.9 L 57.5,227.9 L 57.5,227.8 L 57.3,227.4 L 57.2,227.3 L 57.4,227.1 L 57.2,227.0 L 57.0,226.9 L 56.8,226.7 L 56.3,226.6 L 56.2,226.6 L 56.2,226.6 L 55.5,226.8 L 55.7,227.0 L 55.7,227.2 L 56.1,227.5 L 56.4,227.7 L 56.5,227.8 L 56.4,228.2 L 56.3,228.3 L 55.9,228.4 L 55.9,228.4 L 55.6,228.4 L 55.3,228.4 L 54.7,228.3 L 54.7,228.3 L 54.7,228.1 L 54.8,228.0 L 54.7,227.8 L 54.6,227.6 L 54.6,227.3 L 54.5,227.2 L 54.4,227.1 L 53.9,227.1 L 53.6,227.2 L 53.2,227.1 L 53.0,227.3 L 52.8,227.3 L 52.1,227.0 L 51.7,226.9 L 51.4,227.1 L 51.0,227.0 L 50.4,227.1 L 50.1,227.2 L 49.9,227.3 L 49.7,227.3 L 49.6,227.2 L 49.7,226.9 L 49.7,226.7 L 49.9,226.5 L 50.0,226.0 L 50.1,225.9 L 50.1,225.8 L 50.1,225.6 L 50.2,225.5 L 50.3,225.3 L 50.7,224.9 L 50.6,224.8 L 50.4,224.8 L 50.1,224.6 L 49.8,224.5 L 49.6,224.7 L 49.1,224.7 L 49.0,224.6 L 48.7,224.7 L 47.8,224.8 L 47.4,224.6 L 47.0,224.4 L 46.8,224.3 L 46.5,224.3 L 46.3,224.4 L 45.7,224.4 L 45.5,224.3 L 45.3,223.9 L 45.2,223.7 L 45.3,223.5 L 45.6,223.1 L 46.2,222.6 L 46.3,222.4 L 45.9,221.6 L 45.6,221.4 L 45.2,221.2 L 44.8,220.7 L 44.8,220.7 L 44.8,220.6 L 44.8,220.3 L 44.6,220.2 L 44.3,219.8 L 44.0,219.7 L 43.5,219.0 L 43.4,218.6 L 43.3,218.3 L 42.9,218.0 L 42.6,217.8 L 42.4,217.8 L 41.6,217.6 L 41.3,217.4 L 41.1,217.2 L 40.7,217.1 L 40.5,217.3 L 40.3,217.2 L 40.1,217.2 L 40.0,217.1 L 40.0,217.1 L 40.0,217.1 L 43.7,212.2 L 52.3,200.9 L 52.3,200.9 L 52.3,200.9 L 52.5,201.1 L 52.9,201.5 L 53.1,201.6 L 53.5,201.7 L 53.6,201.7 L 53.9,202.1 L 54.2,202.0 L 54.4,202.0 L 55.1,201.8 L 55.3,201.8 L 55.7,201.8 L 56.0,201.7 L 56.1,201.7 L 56.8,202.1 L 57.1,202.1 L 57.4,202.0 L 58.1,202.1 L 58.3,202.3 L 58.9,202.4 L 59.4,202.6 L 59.9,202.8 L 59.9,202.8 L 60.0,202.9 L 60.1,202.9 L 60.3,202.9 L 60.5,202.9 L 60.7,202.8 L 61.7,202.2 L 61.9,201.8 L 62.9,201.0 L 63.2,200.8 L 63.6,200.5 L 64.0,200.3 L 64.4,199.9 L 64.6,199.5 L 64.9,199.2 L 65.1,199.1 L 65.2,198.7 L 65.4,198.4 L 65.7,198.2 L 66.0,198.1 L 66.1,197.9 L 66.2,197.8 L 66.4,197.8 L 66.5,197.7 L 66.6,197.5 L 66.7,197.6 L 67.0,197.8 L 67.2,197.8 L 67.3,197.7 L 67.6,197.4 L 67.9,197.1 L 68.2,197.0 L 68.4,196.9 L 69.0,197.0 L 69.3,197.3 L 69.8,197.3 L 70.1,197.2 L 70.4,197.0 L 70.8,196.9 L 71.2,196.7 L 72.0,196.7 L 72.5,196.6 L 73.2,196.9 L 73.4,196.8 L 73.6,196.9 L 73.9,197.2 L 74.1,197.3 L 74.1,197.4 L 74.3,197.9 L 74.6,198.0 L 74.7,198.1 L 74.9,198.0 L 75.1,197.8 L 75.3,197.7 L 75.3,197.6 L 75.4,197.5 L 75.7,197.6 L 75.7,197.7 L 75.7,197.7 L 75.9,197.9 L 76.1,198.0 L 76.2,198.0 L 76.3,198.0 L 76.3,197.8 L 76.4,197.5 L 76.5,197.4 L 76.6,197.5 L 76.8,197.7 L 77.1,198.0 L 77.3,198.0 L 77.5,197.9 L 78.6,198.1 L 79.1,198.1 L 79.5,198.0 L 79.9,197.8 L 80.1,197.7 L 80.1,197.7 L 80.3,197.8 L 80.4,197.8 L 80.5,197.8 L 80.9,197.6 L 81.2,197.6 L 81.5,197.5 L 81.8,197.7 L 82.0,197.7 L 82.4,197.3 L 82.6,197.1 L 83.8,197.0 L 84.1,197.0 L 85.0,196.9 L 86.2,196.5 L 86.9,196.2 L 87.0,196.3 L 87.1,196.1 L 87.4,196.0 L 87.6,195.9 L 87.9,195.9 L 88.1,195.8 L 88.4,195.5 L 88.8,195.5 L 89.1,195.3 L 89.4,195.0 L 89.4,195.0 L 89.9,194.9 L 90.3,194.7 L 90.6,194.7 L 91.5,194.8 L 91.7,195.0 L 91.8,195.2 L 92.0,195.2 L 92.1,195.2 L 92.4,195.1 L 92.5,195.0 L 92.8,195.0 L 93.1,195.0 L 93.6,195.0 L 94.9,195.1 L 95.4,194.8 L 96.1,195.2 L 96.5,195.6 L 96.8,195.8 L 96.8,195.9 L 96.9,196.0 L 97.1,196.0 L 97.2,196.0 L 97.3,196.3 L 97.4,196.4 L 97.4,196.4 L 97.7,196.6 L 98.0,196.5 L 98.0,196.3 L 98.4,196.4 L 98.4,196.6 L 98.5,196.7 L 98.7,196.7 L 99.0,196.5 L 99.2,196.2 L 99.3,196.1 L 99.2,196.0 L 99.4,195.8 L 99.8,195.7 L 100.1,195.8 L 100.2,195.7 L 100.5,195.7 L 100.7,195.6 L 100.9,195.6 L 101.0,195.6 L 101.0,195.5 L 101.4,195.5 L 101.6,195.4 L 101.5,195.3 L 101.3,195.3 L 101.4,194.9 L 102.0,194.4 L 102.0,194.3 L 101.7,194.3 L 101.6,194.3 L 101.6,194.1 L 101.8,194.0 L 101.7,193.9 L 101.5,194.0 L 101.3,193.8 L 101.1,193.8 L 101.1,193.4 L 101.1,193.1 L 101.1,192.7 L 101.1,192.2 L 101.1,192.0" fill="none" stroke="black" stroke-width="2"/>
</svg>