<?xml version="1.0" encoding="UTF-8"?>
<svg width="400" height="400" viewBox="0 0 400 400" xmlns="http://www.w3.org/2000/svg">
  <rect width="400" height="400" fill="white"/>
  <path d="M 44.6,224.8 L 52.1,217.4 L 89.1,181.3 L 89.5,181.1 L 89.7,181.3 L 90.3,181.3 L 90.7,181.0 L 91.2,180.4 L 91.8,180.8 L 92.5,180.8 L 94.2,180.3 L 95.0,179.6 L 95.4,179.6 L 96.4,180.1 L 97.0,180.1 L 97.6,179.8 L 98.1,180.1 L 98.4,180.4 L 98.9,180.4 L 99.5,180.3 L 100.7,180.4 L 102.0,180.3 L 103.9,180.6 L 105.1,180.2 L 106.3,179.4 L 106.8,178.4 L 106.8,178.0 L 106.2,176.8 L 105.7,176.4 L 106.1,175.9 L 106.6,175.5 L 106.6,175.2 L 106.2,174.7 L 106.1,174.2 L 106.4,173.6 L 106.5,173.2 L 107.2,172.5 L 108.0,172.3 L 108.9,171.4 L 109.4,170.4 L 109.1,169.2 L 108.6,168.7 L 108.2,167.7 L 107.6,167.4 L 106.6,167.2 L 106.0,166.5 L 105.2,165.1 L 105.7,164.7 L 105.7,164.3 L 149.2,135.2 L 149.2,135.2 L 149.2,135.2 L 149.6,136.7 L 149.6,137.7 L 149.9,138.0 L 151.5,138.2 L 152.0,138.5 L 152.6,139.5 L 153.2,140.2 L 154.2,140.6 L 154.9,141.0 L 155.4,141.0 L 156.2,140.6 L 157.4,137.7 L 157.7,137.5 L 158.3,137.9 L 158.5,138.2 L 158.3,139.2 L 158.4,140.7 L 158.8,141.6 L 158.7,142.2 L 158.4,142.5 L 158.5,142.7 L 158.8,143.0 L 159.0,143.6 L 159.6,144.2 L 159.6,144.4 L 159.4,145.0 L 159.1,145.3 L 159.0,145.6 L 159.3,145.9 L 159.3,146.2 L 159.1,146.6 L 158.4,147.2 L 158.2,148.4 L 158.1,148.5 L 158.8,149.6 L 159.3,150.0 L 161.7,151.8 L 162.5,152.7 L 164.5,154.5 L 165.5,154.8 L 166.8,154.9 L 167.7,155.3 L 169.0,156.1 L 169.7,156.1 L 170.7,156.1 L 172.2,156.4 L 172.6,156.7 L 173.1,156.6 L 175.1,155.1 L 175.4,153.7 L 175.2,153.0 L 175.6,152.6 L 176.5,152.6 L 176.9,152.3 L 177.4,150.9 L 177.6,150.6 L 178.2,150.2 L 178.6,149.9 L 179.0,149.9 L 179.2,149.2 L 179.4,148.3 L 179.7,148.0 L 180.2,147.8 L 180.4,146.9 L 180.2,146.2 L 180.4,144.7 L 180.0,144.1 L 181.1,142.6 L 182.4,142.1 L 183.3,141.5 L 184.4,141.3 L 187.1,141.8 L 188.1,142.2 L 189.1,142.9 L 189.6,143.6 L 189.6,144.3 L 189.9,144.7 L 192.4,144.7 L 192.9,144.5 L 193.3,143.9 L 193.6,141.9 L 194.2,141.9 L 194.9,141.5 L 194.9,141.0 L 193.6,139.2 L 192.7,138.4 L 192.1,137.5 L 191.3,135.8 L 191.1,135.1 L 191.9,135.9 L 192.0,136.0 L 192.4,136.8 L 193.0,137.6 L 193.9,138.0 L 194.9,138.2 L 196.0,138.7 L 197.1,139.5 L 197.8,139.4 L 198.5,139.1 L 199.1,138.9 L 199.4,138.5 L 200.1,137.5 L 200.5,137.2 L 200.8,136.9 L 201.5,136.7 L 201.9,136.5 L 202.2,135.8 L 201.9,135.4 L 202.0,135.2 L 202.4,135.0 L 202.8,134.8 L 203.2,135.3 L 204.1,135.4 L 204.4,135.2 L 205.5,135.3 L 206.1,135.0 L 206.5,134.4 L 206.2,134.0 L 205.9,133.7 L 206.1,133.3 L 206.4,132.9 L 207.0,132.9 L 207.6,132.5 L 209.1,132.7 L 209.8,133.3 L 210.2,133.3 L 210.9,133.1 L 211.9,133.2 L 213.6,132.8 L 214.3,132.9 L 214.9,133.5 L 215.2,133.9 L 214.9,135.1 L 215.0,135.7 L 215.9,136.0 L 216.5,136.3 L 216.7,136.6 L 218.0,137.0 L 218.6,137.4 L 219.2,137.3 L 220.0,136.8 L 220.9,136.7 L 221.9,137.1 L 223.1,137.8 L 223.8,137.8 L 225.1,137.5 L 225.9,137.5 L 226.8,137.0 L 228.0,137.2 L 228.6,137.8 L 228.3,138.7 L 228.6,139.0 L 229.8,139.1 L 230.3,138.9 L 230.2,139.6 L 230.5,140.0 L 230.5,140.5 L 230.8,140.6 L 231.1,141.1 L 230.5,141.5 L 229.9,141.2 L 229.2,141.3 L 228.5,141.5 L 228.3,141.5 L 228.2,141.9 L 228.9,142.3 L 229.6,142.7 L 230.2,142.8 L 230.7,143.1 L 230.8,143.0 L 231.1,142.8 L 233.2,142.6 L 233.6,143.0 L 233.4,143.3 L 233.0,143.4 L 232.4,143.9 L 232.6,144.3 L 233.9,144.5 L 234.8,145.0 L 235.5,145.1 L 236.2,145.5 L 237.9,145.6 L 239.6,144.6 L 240.1,143.6 L 239.6,143.5 L 239.5,143.2 L 239.3,142.2 L 239.3,141.4 L 240.0,140.8 L 242.4,141.2 L 242.9,140.7 L 243.2,140.9 L 244.3,140.6 L 245.8,139.8 L 246.3,139.8 L 247.3,140.3 L 248.4,141.3 L 248.9,141.4 L 249.6,141.6 L 249.8,142.0 L 250.0,142.6 L 250.9,143.2 L 251.6,143.5 L 252.7,144.1 L 253.1,144.7 L 254.0,144.6 L 254.2,144.4 L 254.3,144.0 L 255.3,143.8 L 256.2,143.8 L 257.4,144.3 L 258.6,144.4 L 258.8,143.9 L 259.1,143.9 L 260.9,144.8 L 261.4,144.4 L 261.9,142.3 L 260.5,141.5 L 260.6,141.2 L 261.2,140.9 L 261.3,140.3 L 258.8,139.9 L 258.8,139.5 L 259.9,138.7 L 259.8,138.4 L 259.2,138.1 L 258.8,137.6 L 258.3,137.1 L 258.0,136.0 L 257.3,135.9 L 257.1,135.6 L 257.2,135.1 L 256.7,134.6 L 256.0,134.5 L 255.6,134.9 L 255.2,134.7 L 254.0,134.0 L 252.6,133.7 L 252.4,133.9 L 252.8,134.3 L 252.7,134.6 L 251.5,134.4 L 251.0,134.1 L 251.4,133.2 L 250.6,131.8 L 250.8,131.5 L 250.1,130.5 L 250.6,129.8 L 250.4,129.4 L 249.4,128.4 L 249.6,128.1 L 250.1,127.9 L 250.7,127.9 L 251.4,127.4 L 251.8,126.6 L 251.7,125.8 L 251.3,125.1 L 251.6,125.0 L 252.4,125.2 L 253.1,125.6 L 254.1,125.7 L 254.7,125.4 L 255.7,125.4 L 256.3,125.2 L 257.8,125.1 L 259.7,124.6 L 260.8,124.5 L 264.5,124.0 L 264.9,124.6 L 265.0,125.2 L 264.8,125.6 L 264.9,126.0 L 265.2,126.6 L 265.3,126.9 L 265.4,127.0 L 265.5,127.1 L 265.7,127.2 L 266.0,127.2 L 266.1,127.3 L 266.3,127.2 L 266.5,127.0 L 266.9,127.1 L 267.2,127.3 L 267.5,127.4 L 268.2,127.6 L 268.8,127.9 L 269.4,128.2 L 269.8,128.8 L 270.0,129.5 L 270.1,129.6 L 270.4,129.9 L 270.9,130.1 L 271.6,130.0 L 272.4,130.1 L 273.4,130.6 L 275.1,131.0 L 275.1,131.2 L 274.5,131.4 L 273.4,132.6 L 273.0,133.4 L 273.6,133.5 L 274.8,134.0 L 275.6,135.1 L 276.4,135.4 L 280.0,135.8 L 280.6,135.3 L 280.9,134.6 L 280.8,134.2 L 281.1,134.2 L 281.7,134.2 L 282.2,133.2 L 282.3,132.8 L 282.6,132.3 L 283.4,132.0 L 283.9,132.0 L 284.2,131.7 L 284.1,131.2 L 284.8,131.0 L 286.4,130.9 L 288.1,131.1 L 289.5,130.5 L 290.1,130.5 L 291.7,129.5 L 292.8,128.7 L 292.8,128.7 L 294.1,128.7 L 294.2,128.9 L 294.2,129.8 L 293.7,130.8 L 293.5,131.7 L 294.2,132.8 L 294.0,133.4 L 294.5,134.2 L 294.3,134.6 L 294.0,136.3 L 294.7,136.5 L 295.2,136.2 L 295.8,136.3 L 296.2,136.8 L 296.0,137.4 L 296.2,137.8 L 297.1,137.8 L 297.7,137.7 L 297.9,137.7 L 298.8,137.8 L 299.1,137.5 L 299.6,136.6 L 300.0,136.3 L 300.9,136.5 L 301.1,137.1 L 301.5,137.6 L 302.1,137.0 L 302.3,137.1 L 302.6,137.8 L 303.9,137.9 L 305.5,137.3 L 305.8,136.4 L 306.4,135.8 L 307.1,135.7 L 307.6,135.5 L 307.6,135.3 L 310.8,135.5 L 310.3,135.7 L 310.7,135.9 L 310.8,135.8 L 310.8,135.5 L 331.9,137.0 L 351.1,138.3 L 351.2,138.3 L 351.4,139.0 L 351.2,140.7 L 351.4,141.3 L 352.1,141.3 L 353.1,140.9 L 353.8,140.8 L 354.0,140.4 L 355.0,140.4 L 355.4,140.1 L 355.8,139.6 L 356.4,139.7 L 356.9,139.5 L 357.5,139.7 L 358.5,140.4 L 358.7,140.8 L 358.6,141.3 L 359.1,141.6 L 359.1,142.0 L 358.8,142.6 L 359.0,143.0 L 359.8,143.7 L 360.0,144.1 L 359.6,144.7 L 359.1,145.1 L 359.2,145.8 L 359.1,147.7 L 358.1,148.9 L 357.7,149.6 L 358.2,150.0 L 358.2,150.2 L 357.3,151.6 L 357.1,152.2 L 357.3,153.4 L 357.2,153.5 L 331.9,186.8 L 320.9,201.4 L 320.9,201.4 L 320.5,201.3 L 319.6,201.9 L 318.6,202.3 L 317.2,202.2 L 316.5,203.0 L 316.9,203.2 L 318.6,203.7 L 318.7,204.1 L 319.4,205.0 L 319.4,205.5 L 319.6,205.9 L 321.3,206.6 L 322.1,207.4 L 321.8,209.2 L 323.2,210.6 L 323.5,210.8 L 324.5,211.6 L 325.8,211.9 L 326.7,212.5 L 327.1,212.5 L 328.0,212.3 L 328.5,212.3 L 328.9,212.7 L 329.5,213.1 L 329.9,213.6 L 330.1,214.9 L 329.9,216.2 L 328.7,217.2 L 327.8,219.0 L 327.3,219.5 L 326.3,220.2 L 325.5,220.3 L 324.5,220.3 L 323.5,220.7 L 322.2,220.5 L 321.5,220.3 L 319.6,220.0 L 318.2,219.9 L 317.5,219.6 L 316.9,219.6 L 315.3,219.9 L 312.6,219.5 L 310.6,219.7 L 308.9,219.5 L 307.9,220.2 L 306.5,220.2 L 306.1,220.0 L 306.1,219.5 L 306.1,219.0 L 305.5,218.8 L 304.9,219.0 L 303.9,218.9 L 302.0,219.7 L 300.8,219.9 L 300.4,220.1 L 300.0,220.1 L 299.4,219.7 L 298.8,219.5 L 296.8,219.6 L 296.0,220.1 L 294.4,220.3 L 293.3,221.1 L 291.8,221.6 L 291.3,222.1 L 291.2,222.2 L 290.2,222.2 L 289.7,222.4 L 289.0,222.6 L 288.7,222.8 L 286.5,222.6 L 286.1,222.8 L 285.7,223.6 L 284.6,223.5 L 283.8,223.6 L 282.1,223.5 L 281.2,224.0 L 280.6,224.0 L 278.3,224.9 L 277.8,225.0 L 277.1,224.9 L 275.7,225.2 L 275.3,225.4 L 275.8,225.9 L 275.7,226.8 L 275.8,227.5 L 276.1,227.7 L 277.5,228.0 L 278.6,228.6 L 279.3,228.8 L 280.2,229.7 L 280.2,230.2 L 279.5,230.9 L 278.1,232.0 L 277.0,232.5 L 275.3,232.9 L 274.3,232.8 L 273.3,233.6 L 273.2,233.8 L 273.3,234.3 L 273.9,234.7 L 274.6,235.4 L 275.1,236.5 L 276.0,236.6 L 277.1,237.4 L 277.1,237.5 L 277.9,237.8 L 277.9,238.2 L 279.4,238.2 L 279.4,237.8 L 280.2,237.1 L 280.9,236.8 L 281.3,236.8 L 281.7,236.1 L 282.3,235.8 L 282.9,236.0 L 284.8,238.0 L 285.0,238.5 L 284.8,239.6 L 283.1,241.7 L 282.7,242.9 L 282.8,243.6 L 283.1,244.1 L 283.7,244.4 L 284.7,244.4 L 286.4,243.7 L 287.0,243.5 L 287.1,243.5 L 288.2,243.4 L 288.6,243.6 L 288.5,244.0 L 288.3,244.9 L 289.0,244.5 L 289.3,244.9 L 289.7,245.1 L 290.6,246.1 L 291.5,246.1 L 292.5,245.4 L 293.0,244.9 L 293.6,244.8 L 294.2,244.3 L 294.8,243.5 L 294.9,243.0 L 295.6,242.3 L 296.3,242.3 L 296.6,242.2 L 297.3,242.1 L 298.3,241.7 L 299.2,240.9 L 300.0,240.9 L 301.3,240.5 L 302.7,240.3 L 303.8,239.8 L 305.2,238.7 L 306.5,238.1 L 307.5,237.2 L 309.7,236.8 L 311.5,236.3 L 312.4,235.9 L 313.7,235.8 L 314.6,235.9 L 314.5,236.2 L 314.0,236.9 L 314.2,237.0 L 315.3,237.4 L 320.2,237.8 L 320.7,238.0 L 322.7,238.4 L 324.2,238.4 L 325.0,238.0 L 325.7,237.5 L 326.5,237.3 L 328.0,237.0 L 329.1,236.7 L 331.9,234.8 L 333.5,234.2 L 335.5,233.1 L 336.3,232.8 L 337.4,233.0 L 337.9,233.5 L 338.4,234.5 L 338.7,235.8 L 339.0,236.0 L 339.5,236.0 L 340.8,235.4 L 341.0,235.0 L 341.1,234.1 L 341.4,234.0 L 341.7,234.1 L 342.1,234.8 L 342.1,235.1 L 341.4,236.3 L 341.6,237.3 L 341.7,238.8 L 342.1,239.5 L 342.0,240.1 L 340.5,241.2 L 340.1,241.3 L 339.6,241.8 L 339.1,241.8 L 338.8,241.8 L 338.6,241.5 L 337.9,240.9 L 337.1,240.8 L 336.5,241.1 L 336.1,242.0 L 335.7,241.9 L 334.9,242.3 L 334.6,242.0 L 334.6,241.4 L 334.3,241.1 L 333.3,240.9 L 332.5,241.5 L 330.2,241.1 L 330.0,240.5 L 326.2,239.9 L 324.9,240.3 L 323.4,241.3 L 322.2,241.6 L 321.9,241.5 L 319.4,241.5 L 318.2,241.1 L 317.5,240.7 L 316.6,240.6 L 315.1,240.5 L 314.6,240.9 L 314.3,241.8 L 314.1,242.1 L 312.5,241.8 L 312.1,242.0 L 312.2,242.1 L 313.2,242.5 L 313.8,243.1 L 314.8,243.5 L 315.2,243.8 L 315.0,244.0 L 313.9,244.2 L 311.7,245.9 L 310.9,246.4 L 309.8,246.5 L 309.4,246.0 L 309.0,245.9 L 308.1,246.5 L 307.9,246.7 L 308.0,247.3 L 307.2,248.0 L 307.7,248.4 L 308.0,248.8 L 308.1,249.7 L 307.9,250.2 L 307.3,250.4 L 307.1,249.9 L 306.4,249.3 L 305.6,250.0 L 306.0,250.2 L 305.7,250.7 L 306.3,251.4 L 306.6,252.0 L 306.3,252.4 L 305.4,252.9 L 304.9,252.9 L 304.0,252.1 L 303.3,251.6 L 302.8,250.9 L 302.9,250.4 L 303.3,250.3 L 304.3,250.3 L 304.4,249.6 L 304.3,249.3 L 304.4,249.0 L 303.9,249.0 L 303.0,249.1 L 302.0,248.7 L 301.0,248.7 L 300.1,248.9 L 299.7,248.7 L 299.0,248.3 L 298.5,249.3 L 298.7,250.1 L 298.7,250.6 L 298.2,251.0 L 297.8,251.1 L 297.3,250.3 L 296.9,250.4 L 296.1,251.0 L 297.3,252.4 L 298.5,253.5 L 299.4,254.9 L 302.2,257.6 L 303.4,259.5 L 303.9,260.2 L 303.7,260.8 L 302.6,260.7 L 300.8,260.2 L 301.5,259.6 L 301.4,259.2 L 301.2,259.1 L 299.6,258.2 L 299.2,257.7 L 297.3,257.0 L 295.5,255.8 L 291.0,255.2 L 290.3,255.3 L 287.7,254.8 L 287.1,254.6 L 286.4,254.4 L 286.3,254.3 L 286.4,253.9 L 286.8,253.4 L 286.6,252.8 L 286.3,252.3 L 286.2,252.1 L 286.3,252.0 L 287.5,251.1 L 287.1,250.4 L 286.6,250.0 L 286.5,250.0 L 285.4,249.9 L 284.3,250.1 L 282.6,250.2 L 282.6,250.5 L 283.8,250.8 L 284.8,251.4 L 284.9,251.7 L 284.5,252.1 L 282.8,251.9 L 281.7,251.4 L 281.5,251.7 L 280.6,252.5 L 280.4,253.4 L 279.8,253.8 L 279.3,253.8 L 278.4,253.9 L 277.9,254.2 L 277.7,254.5 L 278.2,255.4 L 277.8,255.5 L 276.2,253.4 L 275.2,252.8 L 274.5,252.0 L 273.5,251.3 L 272.8,250.6 L 271.3,250.2 L 270.3,250.3 L 269.0,249.9 L 266.9,249.6 L 266.5,248.6 L 264.8,247.4 L 264.0,246.5 L 263.3,245.6 L 263.4,245.0 L 263.5,244.1 L 263.3,243.5 L 263.4,243.3 L 263.9,242.9 L 264.0,242.6 L 264.7,242.3 L 264.7,242.5 L 264.8,242.5 L 264.9,242.5 L 264.8,241.8 L 263.5,242.3 L 263.4,242.2 L 263.3,242.1 L 263.1,242.1 L 262.6,242.4 L 261.8,242.5 L 261.6,242.7 L 261.1,242.7 L 260.9,242.7 L 260.7,243.0 L 260.5,243.7 L 260.5,244.4 L 260.7,244.5 L 260.3,245.1 L 259.9,245.2 L 259.6,245.3 L 257.6,245.5 L 256.6,245.8 L 253.2,249.1 L 253.0,251.3 L 252.6,251.4 L 251.8,251.6 L 250.9,251.8 L 250.2,251.6 L 249.7,251.5 L 248.4,251.4 L 247.9,252.2 L 247.5,252.7 L 246.2,253.4 L 245.0,253.4 L 244.1,254.4 L 243.7,255.1 L 243.1,255.6 L 240.7,255.3 L 238.9,254.5 L 238.3,254.5 L 238.0,254.7 L 237.7,254.7 L 237.1,253.9 L 235.4,252.5 L 234.3,252.4 L 232.6,251.7 L 230.1,251.1 L 229.5,251.6 L 229.2,252.6 L 228.6,253.1 L 227.9,253.2 L 227.1,252.7 L 226.7,252.3 L 226.8,251.9 L 227.2,251.6 L 226.9,250.8 L 225.7,250.3 L 225.4,250.0 L 225.1,249.0 L 224.5,248.4 L 223.3,248.1 L 223.0,247.7 L 222.1,247.6 L 220.5,249.1 L 219.2,249.9 L 218.3,250.3 L 218.0,250.2 L 217.1,250.3 L 216.6,250.0 L 214.6,249.3 L 214.4,249.2 L 212.1,248.3 L 210.3,247.9 L 208.8,247.5 L 206.6,247.0 L 205.3,247.3 L 203.5,248.3 L 202.7,248.5 L 202.3,248.8 L 202.0,248.9 L 201.6,248.9 L 201.0,249.3 L 200.4,249.4 L 195.3,249.5 L 194.8,249.7 L 195.1,250.3 L 195.1,250.7 L 193.6,251.9 L 193.6,252.4 L 194.5,253.4 L 194.6,254.1 L 194.8,254.4 L 196.1,255.0 L 196.0,255.2 L 195.0,255.4 L 194.4,255.9 L 194.4,256.4 L 195.2,257.1 L 196.0,257.1 L 196.1,257.3 L 195.9,257.7 L 195.1,257.8 L 194.4,258.7 L 194.2,259.3 L 193.3,260.3 L 192.8,260.3 L 192.1,260.8 L 191.9,261.2 L 192.0,261.9 L 192.2,262.2 L 192.7,262.3 L 193.4,262.0 L 194.1,261.3 L 195.5,261.0 L 195.5,262.0 L 196.0,262.7 L 196.4,262.6 L 196.9,262.6 L 197.1,262.8 L 195.8,263.9 L 195.6,265.0 L 195.2,265.9 L 194.6,265.8 L 194.1,265.9 L 192.8,266.9 L 192.3,266.9 L 190.8,268.2 L 190.6,268.6 L 190.9,269.1 L 190.9,269.6 L 190.6,269.6 L 188.2,269.4 L 188.3,269.3 L 188.2,268.9 L 187.9,268.7 L 187.5,268.8 L 187.5,268.6 L 187.9,268.6 L 188.2,268.2 L 188.2,268.0 L 187.4,267.8 L 186.0,268.2 L 183.4,267.6 L 183.1,267.7 L 183.7,268.3 L 183.6,268.4 L 181.7,268.6 L 181.1,269.3 L 181.1,269.5 L 181.0,269.5 L 179.2,269.4 L 178.4,269.3 L 178.0,268.2 L 176.6,266.5 L 176.4,266.4 L 175.9,266.7 L 174.8,265.7 L 174.4,266.0 L 174.4,267.6 L 173.8,268.4 L 173.5,269.0 L 173.1,269.3 L 172.2,269.3 L 171.2,269.7 L 169.9,270.3 L 168.4,270.2 L 167.9,269.9 L 166.5,269.4 L 165.2,269.4 L 164.7,269.7 L 161.9,270.5 L 158.1,270.9 L 155.5,270.8 L 153.0,270.6 L 151.5,270.6 L 150.5,270.9 L 149.0,270.9 L 148.7,270.4 L 148.1,270.0 L 146.2,269.9 L 144.1,269.9 L 143.2,270.4 L 142.9,270.6 L 141.3,270.3 L 140.8,270.6 L 140.9,270.9 L 141.1,271.2 L 142.4,271.3 L 142.5,271.4 L 143.1,271.4 L 143.1,271.5 L 142.6,271.5 L 142.0,272.1 L 142.0,272.5 L 142.7,273.1 L 143.3,273.4 L 143.5,273.6 L 143.1,273.8 L 141.9,273.3 L 141.3,273.4 L 140.3,274.1 L 140.4,274.3 L 139.9,275.2 L 139.8,275.9 L 139.5,276.0 L 139.4,276.0 L 139.1,275.7 L 136.3,274.0 L 135.7,273.6 L 135.3,272.8 L 135.0,272.4 L 133.9,272.0 L 133.3,272.0 L 132.7,271.5 L 132.3,270.9 L 132.0,270.4 L 131.5,270.1 L 131.1,270.3 L 131.3,270.7 L 131.4,271.0 L 131.1,270.8 L 130.9,271.0 L 130.6,271.2 L 129.9,271.2 L 129.8,270.9 L 130.3,270.2 L 130.3,269.6 L 129.8,268.8 L 129.2,268.3 L 128.5,267.6 L 127.6,267.1 L 126.7,267.0 L 126.4,267.1 L 126.3,267.8 L 126.4,268.0 L 127.3,268.6 L 127.3,268.8 L 126.7,268.9 L 125.0,268.8 L 123.9,268.3 L 122.5,268.8 L 121.5,269.8 L 121.3,270.6 L 87.1,260.4 L 52.1,249.9 L 40.0,246.3 L 40.5,245.8 L 40.9,245.0 L 40.5,243.8 L 40.5,243.2 L 40.8,242.6 L 41.0,241.4 L 40.9,240.9 L 40.3,240.4 L 41.5,238.8 L 42.4,238.2 L 42.8,237.5 L 44.1,236.5 L 44.5,235.4 L 44.7,235.2 L 45.1,235.5 L 45.4,234.9 L 45.8,233.8 L 46.2,233.6 L 46.3,233.2 L 46.1,232.6 L 46.0,232.2 L 45.5,231.2 L 45.7,230.3 L 45.9,229.9 L 45.8,229.4 L 45.9,229.1 L 44.5,228.0 L 43.6,227.6 L 43.1,227.6 L 42.7,228.1 L 42.4,228.4 L 41.8,228.3 L 41.2,228.0 L 41.7,227.5 L 44.2,225.1 L 44.6,224.9 L 44.6,224.8" fill="none" stroke="black" stroke-width="2"/>
</svg>