<?xml version="1.0" encoding="UTF-8"?>
<svg width="400" height="400" viewBox="0 0 400 400" xmlns="http://www.w3.org/2000/svg">
  <rect width="400" height="400" fill="white"/>
  <path d="M 185.0,115.2 L 184.9,114.9 L 184.1,114.7 L 183.6,114.2 L 182.9,113.7 L 182.5,112.9 L 179.8,110.0 L 178.6,108.9 L 178.5,108.8 L 183.5,106.3 L 183.5,106.3 L 183.5,106.3 L 184.2,106.3 L 184.9,105.8 L 184.9,105.5 L 184.5,104.9 L 184.6,104.2 L 184.9,103.7 L 184.9,103.2 L 184.8,103.2 L 184.8,103.2 L 187.2,102.3 L 187.5,102.3 L 188.3,101.9 L 188.9,101.6 L 189.4,101.5 L 189.7,101.1 L 190.3,99.7 L 190.3,99.2 L 189.9,98.4 L 189.5,97.1 L 189.6,96.2 L 189.7,95.2 L 189.6,93.9 L 190.0,94.0 L 190.2,94.2 L 190.6,93.9 L 191.0,93.3 L 191.3,93.2 L 191.7,93.4 L 192.1,93.9 L 192.6,94.0 L 192.9,93.0 L 193.2,91.2 L 193.4,91.0 L 193.6,90.3 L 193.5,89.9 L 192.7,89.7 L 192.1,88.1 L 191.7,87.8 L 191.6,87.3 L 191.2,86.9 L 191.2,85.8 L 190.8,84.7 L 189.9,83.3 L 189.8,81.6 L 189.3,79.3 L 189.5,78.8 L 189.5,78.4 L 189.4,78.3 L 190.2,76.4 L 190.3,76.4 L 190.6,76.1 L 190.9,75.8 L 191.3,75.7 L 191.7,75.2 L 192.5,75.5 L 192.9,75.5 L 193.4,74.0 L 193.7,73.9 L 193.6,74.3 L 193.9,74.8 L 194.7,75.0 L 195.1,75.4 L 195.4,75.4 L 196.0,74.4 L 196.1,73.3 L 196.0,71.8 L 196.4,68.2 L 196.4,67.5 L 196.5,66.8 L 196.8,66.8 L 197.0,67.2 L 197.1,67.9 L 197.3,67.9 L 197.7,66.7 L 198.1,66.3 L 198.0,64.7 L 198.0,64.1 L 197.7,63.2 L 197.7,62.8 L 197.5,62.6 L 196.9,61.3 L 196.4,59.3 L 196.7,58.6 L 197.7,56.8 L 197.7,55.8 L 197.5,54.9 L 197.6,54.7 L 198.0,54.5 L 198.0,54.2 L 197.5,53.4 L 197.1,51.3 L 197.1,50.7 L 197.3,49.4 L 197.1,49.2 L 196.4,49.3 L 196.3,48.7 L 196.4,47.6 L 196.3,46.9 L 196.5,45.9 L 196.9,44.9 L 196.7,43.5 L 196.7,42.4 L 196.1,40.7 L 195.7,40.2 L 194.0,40.3 L 193.7,40.0 L 212.1,41.0 L 212.5,41.0 L 212.2,41.0 L 211.9,41.2 L 212.0,41.7 L 212.0,42.3 L 211.0,43.3 L 210.8,44.8 L 210.5,45.3 L 210.5,47.4 L 210.6,47.8 L 210.6,48.7 L 210.9,49.6 L 210.6,50.2 L 210.4,50.7 L 210.5,51.4 L 210.8,52.2 L 210.9,52.6 L 210.8,54.1 L 211.1,54.7 L 211.2,55.0 L 211.1,55.6 L 210.7,55.3 L 210.2,55.2 L 209.3,55.4 L 208.7,56.0 L 208.0,58.1 L 207.7,60.0 L 207.9,60.3 L 208.8,60.2 L 208.8,60.9 L 209.5,61.8 L 209.2,62.9 L 209.0,63.8 L 209.0,64.4 L 209.0,64.9 L 209.1,65.5 L 209.0,65.7 L 208.5,66.9 L 209.0,67.5 L 208.7,67.7 L 208.3,67.4 L 208.0,67.7 L 207.5,67.7 L 207.3,68.6 L 207.5,69.1 L 208.3,70.0 L 208.0,71.7 L 208.3,73.0 L 207.9,73.2 L 207.8,73.6 L 207.5,74.2 L 207.3,75.7 L 206.6,76.7 L 206.9,80.3 L 206.7,80.5 L 206.8,81.2 L 207.0,82.6 L 207.5,83.1 L 207.7,83.1 L 208.4,82.8 L 208.6,83.0 L 208.3,84.9 L 208.4,86.5 L 208.1,86.8 L 207.3,86.8 L 206.7,86.4 L 205.8,85.0 L 205.2,84.9 L 204.7,85.3 L 204.6,85.6 L 204.9,85.9 L 204.9,86.3 L 205.1,86.9 L 205.0,88.0 L 205.5,88.8 L 205.9,88.6 L 206.3,87.7 L 206.6,87.5 L 207.2,87.6 L 207.4,88.1 L 207.4,88.4 L 207.3,88.5 L 207.2,89.4 L 207.3,90.1 L 207.9,90.7 L 208.2,91.6 L 207.7,92.1 L 206.6,93.9 L 206.5,94.9 L 206.6,96.1 L 207.5,97.1 L 207.7,97.7 L 207.6,98.5 L 207.4,99.0 L 207.4,99.1 L 207.4,100.0 L 207.0,99.9 L 206.6,100.2 L 206.7,100.7 L 207.0,101.1 L 207.1,102.4 L 207.5,103.3 L 207.8,103.2 L 208.0,102.1 L 208.3,102.5 L 208.6,103.4 L 208.5,104.1 L 208.2,104.7 L 208.4,105.6 L 209.3,105.8 L 209.5,106.4 L 209.4,107.1 L 209.6,107.8 L 210.0,108.0 L 210.3,108.6 L 210.8,108.8 L 211.5,108.7 L 212.0,109.0 L 212.0,109.3 L 211.4,110.2 L 211.4,110.7 L 211.5,111.9 L 211.8,112.3 L 212.6,113.4 L 213.1,114.0 L 213.8,115.1 L 214.3,116.3 L 214.5,118.2 L 214.7,118.8 L 215.0,120.8 L 214.1,121.6 L 214.6,123.5 L 215.0,123.8 L 215.9,125.6 L 216.2,126.0 L 216.8,126.2 L 219.1,127.2 L 219.6,128.2 L 220.4,128.9 L 220.3,129.3 L 220.6,129.9 L 220.7,130.3 L 220.7,130.4 L 220.7,130.5 L 220.4,131.0 L 220.3,131.9 L 220.5,132.3 L 220.9,133.0 L 220.8,134.4 L 220.5,135.0 L 220.2,135.2 L 219.9,135.4 L 218.9,135.6 L 218.6,135.5 L 218.0,135.8 L 217.9,136.2 L 218.7,136.9 L 219.4,137.1 L 219.7,137.5 L 219.7,138.1 L 219.8,138.4 L 219.9,138.4 L 221.0,139.2 L 221.4,139.8 L 221.4,140.0 L 221.2,140.3 L 221.0,141.4 L 221.6,142.3 L 222.5,144.3 L 223.7,147.2 L 223.5,148.5 L 221.7,149.6 L 221.6,149.8 L 221.3,150.1 L 221.0,150.2 L 220.4,150.8 L 219.9,150.6 L 219.5,150.2 L 219.1,150.1 L 218.8,150.2 L 218.7,150.2 L 217.0,149.9 L 216.6,150.2 L 215.9,151.6 L 214.8,153.7 L 215.1,154.4 L 214.5,154.4 L 212.9,155.1 L 211.9,157.2 L 211.4,157.6 L 210.5,157.7 L 210.1,157.9 L 209.7,158.5 L 209.9,158.8 L 210.3,158.3 L 210.9,157.9 L 211.5,157.8 L 211.5,158.3 L 211.2,158.7 L 211.1,159.1 L 211.0,159.3 L 210.3,159.3 L 210.1,159.5 L 210.6,159.8 L 210.8,160.3 L 210.5,160.7 L 210.4,161.7 L 210.2,162.1 L 209.9,162.1 L 208.5,161.7 L 208.4,161.8 L 208.3,161.4 L 208.7,160.9 L 208.5,160.7 L 208.3,161.0 L 207.6,161.9 L 207.0,162.9 L 206.8,163.7 L 206.3,163.9 L 205.3,165.2 L 204.5,166.5 L 204.0,167.2 L 203.8,168.0 L 203.7,168.6 L 203.8,169.3 L 203.3,170.9 L 203.1,172.0 L 203.2,172.8 L 202.4,177.2 L 201.7,176.7 L 201.5,177.0 L 201.9,177.8 L 202.2,178.9 L 202.5,179.5 L 202.8,180.1 L 203.1,180.5 L 203.3,181.3 L 203.7,181.8 L 204.1,182.8 L 204.4,183.5 L 204.5,184.4 L 204.1,184.9 L 203.8,185.7 L 203.4,186.4 L 203.6,187.4 L 203.9,188.5 L 205.3,190.2 L 207.1,193.7 L 207.5,194.1 L 208.0,194.8 L 207.8,195.3 L 208.1,195.8 L 208.1,196.5 L 207.8,196.7 L 207.4,196.1 L 206.6,195.9 L 205.8,196.5 L 205.0,197.2 L 203.9,198.1 L 202.4,198.8 L 201.8,199.3 L 201.6,199.7 L 201.7,201.0 L 202.2,202.0 L 202.1,202.6 L 202.0,203.8 L 202.1,205.2 L 201.5,206.2 L 201.4,206.9 L 201.6,208.4 L 201.6,209.6 L 202.3,212.4 L 203.3,214.7 L 203.8,215.1 L 204.3,215.8 L 204.9,216.0 L 205.2,216.1 L 204.9,216.7 L 205.0,217.1 L 205.4,217.2 L 206.0,216.9 L 206.4,216.9 L 206.6,217.3 L 207.2,217.1 L 207.2,217.6 L 207.7,219.0 L 208.3,220.2 L 209.0,221.2 L 209.2,221.4 L 209.5,221.6 L 209.3,223.0 L 209.2,224.4 L 209.4,225.3 L 209.8,225.6 L 211.9,225.6 L 212.2,225.6 L 212.8,225.5 L 213.6,225.0 L 214.9,225.0 L 215.5,224.8 L 216.1,224.5 L 216.5,224.6 L 216.8,225.3 L 216.4,225.8 L 216.0,226.6 L 215.6,226.8 L 214.2,226.9 L 213.5,227.3 L 212.7,228.0 L 212.6,229.0 L 211.8,230.0 L 211.5,230.5 L 211.6,231.7 L 211.6,231.7 L 211.4,231.9 L 211.3,231.9 L 210.5,232.0 L 209.6,232.3 L 206.9,231.7 L 205.8,231.8 L 205.1,232.4 L 204.7,234.4 L 204.5,234.4 L 204.0,234.1 L 203.8,234.2 L 203.7,235.0 L 203.4,235.6 L 203.1,237.5 L 203.1,238.6 L 205.2,242.3 L 205.7,242.6 L 206.2,243.2 L 206.6,244.3 L 207.7,246.5 L 207.9,246.6 L 208.4,246.4 L 209.2,246.4 L 209.9,246.7 L 210.4,246.9 L 210.7,247.1 L 210.5,247.9 L 210.5,248.2 L 210.7,249.1 L 211.3,249.7 L 212.4,249.9 L 213.0,251.0 L 213.4,251.3 L 213.9,251.0 L 214.3,251.0 L 215.2,252.1 L 215.8,252.7 L 216.2,253.4 L 216.7,253.4 L 217.3,253.0 L 217.8,252.3 L 218.5,251.5 L 219.3,251.1 L 219.8,251.2 L 220.0,251.2 L 220.4,250.7 L 221.1,250.3 L 221.8,250.2 L 222.0,250.4 L 222.3,251.1 L 222.2,251.6 L 221.8,251.8 L 221.0,251.6 L 220.2,251.7 L 220.1,251.9 L 219.6,252.4 L 219.4,252.9 L 219.4,253.5 L 220.1,254.5 L 220.2,255.6 L 220.5,256.0 L 220.6,256.3 L 220.1,256.6 L 218.9,256.5 L 217.7,255.9 L 216.6,255.7 L 214.7,255.8 L 213.7,256.7 L 213.0,256.7 L 212.3,257.5 L 212.0,258.1 L 212.1,259.9 L 210.4,262.2 L 210.2,263.2 L 209.9,263.9 L 209.9,264.5 L 210.7,265.9 L 211.7,267.1 L 212.5,267.3 L 212.6,267.5 L 212.1,268.1 L 212.7,269.0 L 214.4,270.3 L 214.4,270.8 L 214.6,271.2 L 215.3,271.7 L 216.6,271.9 L 217.2,272.4 L 217.7,273.3 L 218.4,273.3 L 219.2,272.9 L 219.2,272.5 L 218.5,271.6 L 218.2,271.4 L 217.6,271.2 L 217.1,271.2 L 216.2,270.4 L 215.6,270.2 L 214.9,270.2 L 214.6,269.9 L 214.4,269.4 L 213.9,268.6 L 213.4,268.2 L 213.0,267.2 L 214.0,266.5 L 215.4,266.2 L 215.8,265.7 L 216.1,264.7 L 216.0,264.4 L 216.4,263.8 L 217.2,263.9 L 218.5,264.7 L 220.3,265.1 L 220.7,265.4 L 220.8,266.0 L 221.1,266.8 L 221.6,267.3 L 222.7,267.6 L 222.8,268.1 L 222.5,269.0 L 221.9,269.7 L 221.4,270.8 L 221.4,271.7 L 221.6,272.2 L 222.6,272.7 L 222.9,272.7 L 223.3,272.9 L 225.8,275.2 L 226.1,275.9 L 226.2,276.0 L 225.6,275.8 L 225.2,275.2 L 223.0,273.8 L 222.8,273.4 L 222.5,273.2 L 221.6,272.8 L 221.4,273.2 L 220.6,273.8 L 220.7,274.4 L 219.8,274.4 L 219.3,274.7 L 218.0,274.6 L 216.8,274.0 L 216.5,273.6 L 215.7,273.2 L 213.5,272.5 L 212.5,272.6 L 210.7,273.5 L 210.1,273.8 L 210.4,274.4 L 210.4,274.7 L 209.7,275.5 L 209.1,276.3 L 208.8,277.6 L 208.8,278.2 L 209.5,279.2 L 209.6,279.7 L 210.2,280.7 L 210.9,281.2 L 211.0,281.3 L 210.3,282.2 L 210.3,282.7 L 210.1,283.4 L 210.5,284.4 L 209.6,285.0 L 209.2,285.5 L 208.4,286.9 L 208.2,288.4 L 208.4,290.4 L 208.5,291.1 L 208.7,291.9 L 209.9,293.6 L 210.2,293.5 L 210.7,293.1 L 211.6,293.4 L 211.9,293.8 L 212.1,294.4 L 212.2,295.2 L 212.6,295.5 L 212.7,295.8 L 213.1,297.7 L 213.4,298.8 L 213.3,299.5 L 212.9,300.2 L 211.7,300.9 L 211.5,301.6 L 212.0,302.7 L 213.3,303.9 L 213.4,304.8 L 213.3,305.4 L 213.0,306.2 L 213.2,307.1 L 213.6,307.9 L 213.9,308.8 L 214.3,309.6 L 214.4,310.8 L 213.4,312.5 L 212.8,312.8 L 212.6,314.0 L 212.9,314.8 L 213.0,315.1 L 213.1,316.0 L 212.5,316.5 L 212.0,316.4 L 211.6,316.2 L 210.9,316.1 L 210.5,316.4 L 209.8,316.7 L 209.1,317.4 L 208.8,319.0 L 208.3,320.2 L 207.9,322.0 L 207.6,322.9 L 208.1,323.9 L 208.7,324.7 L 209.8,325.4 L 210.7,325.4 L 211.7,325.5 L 212.7,326.0 L 213.3,326.5 L 213.8,327.5 L 213.2,328.5 L 212.6,328.8 L 211.8,329.4 L 211.3,331.0 L 210.8,332.1 L 210.5,333.7 L 210.0,334.3 L 209.8,335.3 L 209.3,336.5 L 208.5,337.1 L 207.8,337.7 L 207.8,338.8 L 207.8,339.5 L 207.6,340.0 L 207.6,341.5 L 207.7,342.7 L 208.2,344.0 L 208.9,345.8 L 209.1,346.2 L 209.3,347.4 L 209.3,349.2 L 210.1,350.8 L 210.3,351.1 L 210.7,352.0 L 210.8,352.0 L 211.1,353.5 L 210.9,354.6 L 210.1,355.5 L 209.0,356.6 L 208.8,357.3 L 208.7,358.6 L 208.8,359.3 L 207.8,360.0 L 207.3,359.2 L 207.4,358.9 L 208.1,358.0 L 208.5,357.4 L 208.7,357.3 L 208.9,356.7 L 208.2,357.0 L 208.0,357.0 L 207.9,356.2 L 207.5,354.6 L 206.4,353.5 L 206.3,351.5 L 205.8,349.9 L 206.1,346.7 L 205.8,344.0 L 205.4,342.3 L 204.3,339.6 L 204.3,337.3 L 204.4,336.3 L 204.2,335.4 L 204.3,334.5 L 204.2,334.1 L 204.3,332.8 L 204.0,331.8 L 203.7,331.1 L 203.5,330.2 L 202.6,328.0 L 202.5,327.5 L 202.5,327.2 L 202.8,326.6 L 203.4,323.1 L 203.9,321.3 L 204.2,318.6 L 204.1,317.5 L 204.2,316.6 L 204.1,315.3 L 204.0,314.2 L 203.8,313.9 L 203.7,313.8 L 203.6,313.4 L 202.1,312.5 L 201.3,312.0 L 201.2,311.7 L 201.3,310.7 L 202.3,308.2 L 203.1,307.4 L 203.4,307.5 L 204.1,309.0 L 204.2,309.0 L 204.8,309.3 L 205.2,309.1 L 205.5,308.8 L 205.6,307.7 L 205.6,307.5 L 205.6,306.4 L 205.3,304.1 L 205.0,302.3 L 204.8,301.8 L 204.6,301.0 L 204.3,300.7 L 203.5,300.6 L 202.9,301.2 L 202.5,302.6 L 202.1,303.1 L 201.3,303.0 L 200.5,302.4 L 199.7,301.1 L 199.3,300.0 L 198.8,297.9 L 198.4,297.2 L 197.5,296.5 L 196.8,296.1 L 196.7,295.3 L 197.0,292.9 L 197.0,291.9 L 197.5,291.0 L 197.9,289.6 L 198.0,287.9 L 197.9,286.7 L 196.9,285.1 L 196.3,283.7 L 196.2,282.8 L 197.0,280.0 L 197.7,278.4 L 197.8,277.0 L 197.7,275.8 L 197.1,272.7 L 196.7,271.3 L 196.5,270.4 L 196.7,269.3 L 197.1,269.1 L 197.5,269.3 L 197.9,269.0 L 198.0,268.2 L 197.2,268.1 L 197.0,267.5 L 197.0,266.5 L 197.2,264.9 L 196.5,263.3 L 195.9,261.2 L 195.6,260.7 L 195.3,260.9 L 195.0,260.2 L 194.8,260.1 L 193.4,261.1 L 191.8,262.1 L 191.2,262.2 L 190.7,261.5 L 190.3,260.6 L 190.3,259.3 L 190.6,258.1 L 191.4,257.3 L 191.6,257.4 L 191.9,258.4 L 192.1,260.1 L 192.6,260.8 L 193.1,260.8 L 193.7,260.4 L 194.5,258.7 L 194.7,257.9 L 195.4,256.7 L 195.7,255.0 L 196.1,254.1 L 196.4,251.0 L 195.8,248.9 L 195.4,248.0 L 195.0,247.7 L 194.3,247.6 L 193.7,248.2 L 193.1,248.9 L 192.4,250.6 L 191.9,251.1 L 191.4,251.1 L 190.8,250.5 L 190.5,250.2 L 190.1,249.0 L 189.3,248.6 L 188.9,248.2 L 189.9,246.4 L 190.1,245.1 L 191.2,244.2 L 191.5,243.5 L 191.8,243.0 L 192.1,242.5 L 191.9,241.9 L 192.1,239.9 L 191.2,237.5 L 191.0,236.2 L 190.8,235.6 L 189.9,234.6 L 189.6,234.0 L 188.4,233.1 L 187.7,232.9 L 187.3,233.2 L 186.3,235.0 L 186.0,235.4 L 185.3,239.3 L 185.6,240.0 L 185.4,241.2 L 184.6,241.9 L 184.3,241.2 L 184.1,240.6 L 184.3,239.3 L 183.9,238.2 L 183.2,237.7 L 183.1,237.2 L 183.2,236.6 L 183.4,236.2 L 183.6,235.4 L 184.3,235.4 L 184.5,235.0 L 184.4,234.6 L 184.6,233.4 L 183.8,232.1 L 183.8,231.6 L 183.6,231.1 L 184.4,230.1 L 184.3,229.2 L 184.3,229.1 L 184.1,228.7 L 184.4,227.7 L 185.2,228.0 L 185.4,227.8 L 185.6,226.4 L 186.1,226.4 L 186.6,226.7 L 187.8,226.9 L 188.3,226.4 L 189.1,224.6 L 190.0,223.4 L 190.2,222.1 L 189.8,220.4 L 189.7,219.7 L 190.1,219.3 L 190.4,218.7 L 191.3,218.0 L 191.8,216.6 L 191.9,214.9 L 191.9,213.9 L 192.2,211.5 L 191.8,210.7 L 191.9,208.6 L 191.0,205.3 L 191.2,204.5 L 191.6,203.9 L 191.8,203.6 L 192.8,202.0 L 193.4,201.2 L 194.2,200.4 L 194.8,197.0 L 195.1,196.3 L 194.5,194.2 L 194.6,192.7 L 195.1,191.6 L 195.3,189.8 L 195.0,188.8 L 194.7,188.3 L 194.4,187.4 L 194.3,186.7 L 194.1,186.2 L 194.1,185.4 L 193.0,183.2 L 194.3,183.3 L 194.6,183.1 L 194.6,181.9 L 194.4,179.8 L 194.1,178.9 L 193.6,177.9 L 193.2,177.3 L 192.8,176.4 L 191.9,176.3 L 191.2,175.9 L 191.0,176.1 L 191.1,176.6 L 191.1,177.1 L 190.4,177.6 L 190.3,178.2 L 190.1,178.8 L 189.6,179.1 L 189.2,178.3 L 188.7,178.4 L 187.5,179.9 L 187.4,180.3 L 187.4,182.0 L 188.3,183.2 L 188.4,183.5 L 187.9,184.2 L 187.6,184.2 L 186.9,182.7 L 186.5,182.1 L 186.1,181.1 L 185.4,180.3 L 185.6,179.7 L 185.1,179.4 L 185.3,178.9 L 186.2,178.3 L 187.0,178.4 L 187.5,178.1 L 188.3,176.9 L 188.5,175.9 L 188.3,173.7 L 187.8,172.0 L 187.7,170.7 L 185.5,167.9 L 184.4,165.1 L 184.0,164.1 L 182.5,161.5 L 182.0,161.1 L 181.7,159.3 L 181.3,158.4 L 180.3,157.2 L 178.0,155.2 L 177.2,153.9 L 175.9,153.0 L 175.1,152.8 L 174.7,151.9 L 173.8,150.9 L 174.0,150.6 L 174.6,150.6 L 175.2,150.1 L 175.5,149.6 L 175.5,149.2 L 175.5,149.1 L 175.8,147.2 L 175.9,147.1 L 176.4,147.9 L 177.1,148.1 L 177.8,149.0 L 178.1,149.1 L 178.6,148.8 L 178.8,149.1 L 179.0,149.8 L 179.7,149.8 L 180.2,150.8 L 180.6,151.8 L 181.3,152.9 L 182.5,154.0 L 182.5,154.4 L 182.1,154.5 L 181.8,154.9 L 182.0,155.3 L 181.9,156.3 L 182.9,157.7 L 183.7,158.0 L 184.7,159.1 L 184.8,160.1 L 185.3,160.3 L 185.5,161.2 L 185.7,162.1 L 186.1,162.8 L 186.6,163.5 L 187.3,164.3 L 188.0,164.3 L 188.8,165.2 L 189.6,165.8 L 189.7,165.9 L 190.3,166.2 L 190.7,167.2 L 191.5,168.1 L 191.9,168.1 L 192.3,167.6 L 192.7,166.7 L 192.7,166.3 L 192.5,165.7 L 192.6,165.3 L 193.2,165.1 L 193.4,164.6 L 193.3,163.6 L 192.9,162.5 L 193.1,161.7 L 193.3,161.1 L 193.4,160.1 L 193.5,158.5 L 193.5,154.9 L 193.3,153.5 L 193.3,153.0 L 193.5,152.6 L 193.7,150.8 L 193.6,148.0 L 193.4,147.2 L 193.3,146.3 L 193.4,144.7 L 193.2,143.9 L 192.7,142.2 L 192.3,141.3 L 192.1,140.3 L 192.2,139.5 L 191.2,138.1 L 191.3,137.0 L 192.1,136.8 L 192.5,136.4 L 192.9,136.6 L 193.3,136.3 L 193.4,135.6 L 193.7,135.0 L 193.8,134.1 L 193.6,133.5 L 193.7,131.8 L 193.6,131.7 L 193.5,130.1 L 193.0,129.1 L 192.0,128.9 L 192.0,127.9 L 191.7,126.9 L 191.8,124.7 L 191.2,122.1 L 190.6,120.5 L 190.2,120.4 L 190.1,119.6 L 189.5,118.8 L 188.8,118.6 L 188.0,117.6 L 187.2,117.0 L 186.6,116.5 L 186.2,116.3 L 185.9,115.8 L 185.3,115.6 L 185.0,115.2" fill="none" stroke="black" stroke-width="2"/>
</svg>