<?xml version="1.0" encoding="UTF-8"?>
<svg width="400" height="400" viewBox="0 0 400 400" xmlns="http://www.w3.org/2000/svg">
  <rect width="400" height="400" fill="white"/>
  <path d="M 197.9,351.7 L 197.9,351.6 L 198.2,351.5 L 198.6,351.7 L 199.5,351.4 L 200.0,350.6 L 199.9,349.8 L 200.4,347.0 L 201.3,346.7 L 201.5,345.7 L 201.1,345.2 L 200.6,344.9 L 200.2,345.1 L 199.9,346.2 L 199.6,346.4 L 199.1,346.2 L 198.3,347.1 L 198.0,348.4 L 197.7,348.4 L 197.3,347.9 L 197.3,347.4 L 195.9,345.3 L 195.4,343.9 L 195.0,342.8 L 194.0,342.7 L 193.9,340.9 L 194.3,339.7 L 194.6,339.2 L 194.8,338.3 L 194.7,337.4 L 194.8,336.9 L 194.6,335.8 L 193.9,335.8 L 193.3,336.2 L 192.9,336.2 L 192.6,336.0 L 192.8,335.4 L 193.2,334.8 L 193.7,331.6 L 193.3,330.5 L 192.9,329.9 L 193.0,329.4 L 193.8,327.9 L 194.5,326.8 L 194.8,325.6 L 195.0,321.4 L 195.3,319.7 L 195.6,318.9 L 195.5,317.3 L 194.5,314.6 L 193.8,313.8 L 193.8,313.4 L 193.1,313.1 L 192.4,313.4 L 191.2,313.7 L 190.1,314.5 L 188.2,316.3 L 187.4,316.9 L 186.5,316.9 L 186.2,317.0 L 185.3,318.3 L 184.2,321.9 L 183.8,322.0 L 182.2,321.1 L 181.7,320.5 L 181.5,318.1 L 180.9,317.3 L 179.9,316.5 L 180.1,313.7 L 179.7,312.3 L 179.6,311.4 L 179.9,309.7 L 180.2,308.6 L 180.1,308.2 L 180.0,308.0 L 179.8,307.3 L 179.5,306.6 L 178.9,306.2 L 178.1,305.2 L 177.6,302.5 L 177.8,300.9 L 178.2,300.3 L 178.4,298.7 L 179.2,299.1 L 179.7,299.9 L 180.2,300.2 L 180.3,302.0 L 180.9,302.7 L 182.3,302.7 L 183.3,301.9 L 184.7,299.5 L 185.3,297.0 L 185.9,295.8 L 186.1,294.9 L 186.9,294.2 L 187.4,292.3 L 187.8,291.9 L 187.9,291.1 L 188.6,290.2 L 189.5,287.2 L 190.1,285.8 L 190.8,284.0 L 190.8,282.7 L 191.3,282.0 L 192.3,281.0 L 192.3,280.1 L 192.1,278.7 L 191.4,276.3 L 191.4,275.3 L 190.3,270.4 L 190.4,269.9 L 190.9,269.5 L 191.1,269.8 L 191.3,270.4 L 191.7,270.4 L 192.5,269.8 L 193.4,269.4 L 193.6,268.9 L 193.8,267.5 L 193.6,267.2 L 192.9,267.1 L 192.8,266.8 L 193.4,266.1 L 193.7,265.4 L 193.7,264.9 L 193.1,264.1 L 192.2,264.1 L 190.8,265.2 L 190.5,265.0 L 190.4,263.8 L 190.2,262.4 L 190.2,261.8 L 190.1,260.8 L 189.8,259.5 L 189.5,256.9 L 189.2,255.7 L 188.4,254.7 L 188.4,254.0 L 188.6,252.1 L 188.2,250.8 L 188.6,248.3 L 189.1,249.3 L 189.0,250.1 L 189.1,250.7 L 189.2,252.1 L 189.6,252.0 L 190.1,251.3 L 190.6,248.0 L 189.8,247.3 L 189.7,246.8 L 190.0,246.5 L 190.5,246.4 L 190.9,245.1 L 191.2,245.3 L 191.3,246.4 L 191.5,247.3 L 191.4,248.5 L 191.6,248.9 L 192.8,248.6 L 193.3,248.2 L 194.0,247.0 L 194.6,245.6 L 194.9,243.5 L 194.9,242.2 L 194.7,241.5 L 194.2,241.0 L 194.9,239.5 L 194.6,238.6 L 194.1,237.9 L 193.8,237.1 L 193.5,234.9 L 193.6,233.6 L 193.1,232.7 L 192.7,232.5 L 191.6,232.5 L 190.5,233.0 L 189.9,233.4 L 189.1,232.4 L 189.2,231.4 L 188.3,228.8 L 188.0,226.8 L 187.4,225.8 L 186.7,225.4 L 185.7,225.1 L 185.2,225.3 L 184.4,226.3 L 184.0,226.4 L 182.2,226.6 L 181.1,227.7 L 179.5,230.6 L 179.1,232.2 L 178.9,234.9 L 179.2,236.1 L 180.8,238.5 L 180.4,239.3 L 180.4,240.3 L 180.3,241.6 L 180.1,241.8 L 179.8,241.3 L 179.8,239.8 L 179.4,239.7 L 179.1,239.8 L 178.4,240.6 L 177.9,243.2 L 178.3,244.6 L 178.8,245.6 L 179.8,246.5 L 180.4,246.7 L 180.8,246.5 L 181.0,246.5 L 181.2,247.2 L 181.9,248.1 L 182.0,248.7 L 181.6,249.4 L 181.0,253.1 L 181.1,254.1 L 181.0,255.9 L 181.4,258.1 L 181.3,259.7 L 181.7,261.0 L 181.9,261.9 L 181.4,263.6 L 181.1,263.8 L 180.4,263.9 L 179.5,263.5 L 177.8,263.3 L 176.8,263.7 L 174.7,265.2 L 174.5,266.0 L 174.5,267.1 L 174.3,269.1 L 173.6,270.2 L 171.9,271.8 L 172.0,272.8 L 173.6,273.4 L 174.7,275.2 L 174.2,276.1 L 173.7,277.5 L 173.7,278.0 L 174.3,278.5 L 176.9,278.5 L 178.5,278.0 L 181.6,275.4 L 182.1,274.7 L 182.5,273.3 L 182.8,272.6 L 183.5,269.9 L 184.4,269.4 L 185.4,269.4 L 186.0,269.5 L 186.5,270.2 L 186.3,271.7 L 186.0,272.9 L 185.6,274.3 L 185.0,275.4 L 184.7,276.9 L 184.5,277.6 L 183.0,279.5 L 182.4,282.3 L 181.1,283.9 L 180.6,285.9 L 180.8,287.3 L 180.3,288.0 L 179.9,289.2 L 179.5,289.8 L 178.4,289.8 L 176.8,290.3 L 176.3,290.3 L 176.0,289.5 L 176.1,288.6 L 176.1,287.5 L 176.4,286.4 L 176.4,286.0 L 176.0,285.8 L 175.5,285.5 L 175.0,284.5 L 174.2,283.4 L 173.4,283.2 L 172.5,283.7 L 172.0,283.7 L 170.8,283.3 L 169.4,283.1 L 168.4,283.2 L 167.9,283.8 L 167.4,285.3 L 166.8,287.2 L 166.2,287.8 L 165.7,288.5 L 165.4,290.0 L 164.7,291.6 L 163.9,292.9 L 161.7,295.7 L 161.6,296.3 L 161.3,296.6 L 161.1,296.7 L 159.9,297.6 L 159.2,298.6 L 159.1,298.7 L 157.8,298.6 L 157.4,298.9 L 156.9,299.7 L 156.5,300.0 L 156.1,300.1 L 154.6,299.4 L 154.4,299.1 L 154.5,298.2 L 154.1,298.2 L 153.7,298.7 L 153.5,299.2 L 153.0,299.3 L 151.5,298.9 L 150.7,297.9 L 149.6,296.0 L 149.3,295.0 L 149.2,293.9 L 148.5,291.9 L 149.7,290.8 L 150.6,290.5 L 150.9,289.8 L 150.9,289.2 L 150.5,289.1 L 149.6,289.2 L 148.7,288.7 L 148.3,288.1 L 148.2,287.0 L 147.9,284.7 L 148.2,282.0 L 147.5,281.2 L 147.7,280.4 L 148.4,279.2 L 149.2,277.2 L 149.9,276.6 L 150.8,276.2 L 151.6,275.5 L 151.2,275.1 L 151.5,274.0 L 152.0,272.5 L 152.0,271.5 L 151.9,270.7 L 151.2,270.6 L 150.8,271.5 L 150.5,271.3 L 150.2,270.3 L 150.5,268.4 L 151.4,265.6 L 151.2,265.3 L 150.9,265.7 L 150.5,266.7 L 150.2,266.9 L 150.0,266.8 L 150.0,266.0 L 150.6,265.3 L 150.5,264.7 L 150.7,263.9 L 151.9,264.0 L 152.0,264.9 L 152.6,265.8 L 152.3,266.7 L 152.0,268.3 L 152.3,268.6 L 152.7,268.6 L 153.3,268.0 L 153.4,267.2 L 153.2,266.9 L 152.5,266.8 L 152.9,265.6 L 153.2,265.2 L 153.8,263.3 L 154.1,263.1 L 154.0,262.8 L 154.1,262.4 L 154.3,261.9 L 154.1,261.1 L 154.4,260.0 L 154.3,259.0 L 154.5,258.8 L 155.0,258.8 L 155.1,258.6 L 155.4,258.0 L 155.8,256.4 L 156.1,255.8 L 156.3,254.1 L 155.7,254.0 L 154.4,255.2 L 153.8,255.0 L 153.6,254.5 L 153.7,254.0 L 153.2,253.2 L 152.7,250.9 L 152.3,250.3 L 152.3,250.1 L 152.1,249.8 L 151.8,250.0 L 151.5,250.1 L 151.4,249.5 L 151.3,248.5 L 150.8,247.7 L 149.9,247.1 L 149.6,246.8 L 149.2,246.6 L 149.2,245.6 L 149.7,242.1 L 150.6,241.2 L 150.7,243.0 L 151.0,243.5 L 151.6,243.5 L 151.8,243.1 L 151.9,242.8 L 151.9,242.1 L 152.0,242.1 L 152.1,242.7 L 152.4,243.0 L 152.3,244.0 L 152.6,244.4 L 153.1,244.6 L 153.7,244.4 L 154.6,243.2 L 154.9,243.5 L 154.8,244.3 L 154.3,245.0 L 154.1,245.5 L 154.1,246.0 L 154.6,246.7 L 155.0,246.7 L 155.3,246.4 L 155.8,243.8 L 156.2,242.8 L 156.4,242.6 L 156.6,243.2 L 156.8,243.8 L 157.2,243.6 L 158.0,242.4 L 158.3,242.3 L 158.6,242.7 L 158.6,243.7 L 158.8,244.0 L 159.3,243.9 L 160.5,242.5 L 160.8,241.8 L 160.9,240.5 L 160.7,239.7 L 160.7,239.0 L 160.1,239.7 L 159.8,240.5 L 159.4,240.8 L 159.1,240.4 L 159.5,238.8 L 159.5,237.1 L 159.4,236.7 L 158.9,236.6 L 157.2,238.2 L 156.9,239.0 L 155.6,240.3 L 155.2,241.3 L 155.0,241.3 L 155.5,240.0 L 155.6,238.9 L 155.4,237.7 L 155.5,237.3 L 156.1,236.8 L 156.1,235.3 L 155.9,234.7 L 154.8,234.4 L 154.6,233.9 L 154.7,232.8 L 154.4,231.8 L 154.2,230.7 L 153.9,230.3 L 153.4,230.2 L 153.0,230.6 L 152.4,233.0 L 152.1,233.2 L 151.9,232.9 L 151.9,232.1 L 151.4,231.3 L 150.9,230.9 L 151.7,230.5 L 152.1,230.0 L 152.3,229.4 L 151.9,228.7 L 152.0,228.1 L 152.6,227.7 L 153.2,228.0 L 153.5,227.8 L 153.6,226.7 L 153.4,226.0 L 152.9,225.6 L 153.0,223.3 L 152.8,222.7 L 151.8,222.1 L 151.3,221.6 L 151.6,221.2 L 151.8,220.4 L 151.0,220.0 L 150.1,219.9 L 150.2,219.3 L 151.2,219.1 L 152.2,217.9 L 152.4,216.9 L 153.2,216.3 L 153.3,215.3 L 153.5,215.2 L 154.1,215.5 L 154.3,215.2 L 153.9,214.5 L 154.5,213.4 L 154.7,211.0 L 156.0,209.9 L 156.1,208.9 L 156.0,208.6 L 157.0,208.4 L 158.0,208.5 L 158.8,208.2 L 158.7,207.6 L 158.3,207.2 L 157.8,207.0 L 158.5,205.7 L 158.5,205.4 L 157.9,204.7 L 157.2,204.2 L 157.3,204.0 L 158.0,204.5 L 158.2,204.4 L 159.4,205.2 L 160.3,204.7 L 160.6,204.3 L 160.6,203.4 L 161.7,202.1 L 161.6,201.4 L 161.2,200.9 L 161.2,199.9 L 160.5,198.9 L 160.4,198.3 L 161.0,196.8 L 161.4,196.3 L 161.8,196.4 L 162.2,197.1 L 162.0,197.7 L 162.3,198.9 L 162.7,199.8 L 163.4,200.4 L 163.6,201.0 L 164.3,201.5 L 165.0,201.4 L 165.2,201.2 L 164.8,200.5 L 165.6,199.3 L 165.7,198.5 L 165.2,197.8 L 165.2,197.3 L 164.0,195.9 L 164.2,195.8 L 164.9,195.8 L 165.2,195.5 L 165.1,194.6 L 165.5,193.9 L 165.5,193.0 L 164.8,191.6 L 164.2,191.4 L 163.5,191.6 L 162.7,191.6 L 162.3,192.3 L 162.0,193.9 L 161.7,194.1 L 160.9,193.3 L 160.1,193.0 L 159.8,192.8 L 161.1,191.2 L 161.6,189.6 L 161.5,188.2 L 160.5,186.4 L 160.2,185.3 L 159.6,184.8 L 158.5,184.3 L 158.5,184.3 L 159.9,182.8 L 160.2,183.3 L 161.2,183.5 L 161.4,183.7 L 161.5,184.9 L 161.7,185.2 L 163.4,186.0 L 164.4,186.1 L 165.2,185.2 L 165.4,185.3 L 165.5,185.5 L 166.1,185.5 L 166.6,184.8 L 167.0,183.5 L 167.9,182.7 L 168.5,182.6 L 169.4,181.8 L 169.5,182.2 L 169.5,182.7 L 169.2,183.5 L 168.8,184.1 L 168.5,185.1 L 168.0,185.7 L 168.3,186.6 L 168.7,187.2 L 170.1,187.6 L 171.2,187.7 L 171.4,187.7 L 171.9,187.3 L 172.8,186.0 L 173.5,185.6 L 174.2,185.0 L 174.8,185.0 L 175.2,188.4 L 175.3,188.6 L 176.0,188.6 L 176.3,188.7 L 176.5,189.0 L 176.1,191.6 L 176.6,192.4 L 177.3,192.6 L 178.0,193.1 L 178.5,193.2 L 179.1,193.7 L 179.4,194.6 L 179.9,195.2 L 180.6,196.8 L 180.0,197.0 L 179.8,197.4 L 180.0,197.7 L 180.5,197.5 L 180.7,196.9 L 181.2,196.8 L 181.9,196.5 L 182.2,196.1 L 182.0,194.6 L 182.4,193.9 L 182.6,190.2 L 182.5,188.4 L 182.2,187.7 L 182.1,186.4 L 181.6,185.2 L 180.8,184.5 L 180.6,183.9 L 180.6,183.5 L 180.5,182.3 L 181.4,180.0 L 181.7,178.8 L 182.0,178.0 L 181.6,177.1 L 181.4,175.8 L 181.2,172.6 L 180.8,172.0 L 179.9,171.1 L 179.1,170.9 L 178.8,170.5 L 178.9,169.1 L 179.3,167.0 L 179.8,166.0 L 180.8,162.7 L 181.0,161.9 L 181.4,159.5 L 182.3,156.8 L 182.7,155.4 L 182.7,153.4 L 182.6,151.7 L 181.9,150.5 L 182.2,148.2 L 182.3,147.6 L 182.1,146.4 L 181.7,145.8 L 181.2,145.4 L 180.6,144.6 L 179.9,144.3 L 178.2,143.8 L 177.4,143.9 L 177.1,143.4 L 176.9,143.1 L 176.3,142.6 L 176.2,142.4 L 175.9,142.2 L 175.7,142.5 L 175.7,143.0 L 175.6,144.0 L 175.2,144.3 L 175.1,144.3 L 174.7,144.4 L 173.6,143.0 L 172.6,143.0 L 171.2,141.8 L 170.9,141.6 L 170.3,140.8 L 169.8,140.6 L 169.7,140.9 L 168.8,141.4 L 168.7,141.9 L 168.8,144.1 L 168.4,144.2 L 167.5,143.6 L 166.6,142.4 L 166.3,142.3 L 165.4,142.5 L 165.1,142.3 L 164.5,142.1 L 164.0,142.4 L 161.2,137.4 L 161.1,137.2 L 161.6,137.0 L 162.1,136.4 L 162.4,136.2 L 163.2,137.3 L 163.4,137.5 L 164.0,136.9 L 164.0,136.6 L 162.7,135.1 L 161.9,133.8 L 162.3,131.4 L 163.0,130.8 L 164.2,130.8 L 165.2,130.1 L 165.2,129.4 L 165.0,128.8 L 165.1,128.0 L 165.6,128.0 L 165.8,127.6 L 165.7,127.3 L 165.6,126.9 L 166.4,126.3 L 166.6,125.8 L 167.1,125.5 L 167.3,125.6 L 167.5,126.4 L 168.2,126.4 L 169.6,125.6 L 170.3,124.1 L 170.5,122.6 L 169.4,121.6 L 168.3,120.8 L 167.9,120.9 L 167.4,121.8 L 167.0,121.9 L 166.8,121.6 L 167.1,120.0 L 169.6,118.4 L 170.6,118.7 L 171.1,119.3 L 171.0,122.2 L 171.5,125.3 L 171.9,125.9 L 172.4,125.9 L 173.8,125.1 L 175.2,124.1 L 175.6,122.0 L 175.6,119.8 L 174.9,117.6 L 174.2,116.9 L 174.2,116.2 L 173.4,115.2 L 173.2,115.1 L 172.9,115.4 L 172.4,115.2 L 171.8,114.7 L 171.5,114.7 L 171.1,115.4 L 170.9,116.2 L 170.2,116.1 L 170.1,115.4 L 169.1,114.6 L 168.7,113.9 L 168.2,112.2 L 167.3,111.0 L 167.0,109.8 L 166.8,108.5 L 167.2,108.0 L 168.3,107.3 L 169.0,107.2 L 169.6,106.4 L 169.8,106.6 L 170.2,107.6 L 171.7,108.9 L 171.8,109.2 L 171.0,109.5 L 170.9,110.0 L 172.3,111.0 L 173.1,111.0 L 174.6,111.9 L 174.9,111.7 L 174.8,111.2 L 173.7,109.9 L 173.8,109.4 L 174.4,109.0 L 174.5,108.4 L 174.3,107.9 L 175.0,107.1 L 175.2,105.9 L 174.9,104.6 L 175.0,103.4 L 174.0,101.1 L 173.9,101.0 L 173.4,99.6 L 173.8,98.1 L 174.4,97.7 L 175.4,97.1 L 176.7,97.4 L 177.1,97.0 L 177.0,96.2 L 177.3,95.8 L 177.9,95.4 L 177.8,95.0 L 177.3,94.6 L 177.2,92.3 L 177.2,91.2 L 177.0,90.8 L 177.3,88.8 L 177.3,87.8 L 178.0,87.0 L 177.9,86.2 L 177.5,85.4 L 177.8,84.5 L 177.2,83.2 L 176.8,81.7 L 176.8,80.2 L 176.5,79.4 L 176.0,78.3 L 176.3,76.3 L 175.7,75.0 L 175.9,74.2 L 175.9,73.7 L 175.7,73.2 L 175.6,71.5 L 175.1,70.2 L 174.1,68.3 L 174.1,67.1 L 173.8,67.2 L 173.5,68.2 L 173.2,68.6 L 172.1,68.5 L 170.6,67.6 L 170.4,67.0 L 170.4,66.2 L 169.9,65.9 L 169.3,65.9 L 168.8,66.2 L 168.0,66.0 L 167.6,65.5 L 167.8,65.0 L 169.1,64.7 L 169.5,64.4 L 169.3,63.5 L 169.3,63.4 L 168.4,62.3 L 167.9,62.3 L 167.7,62.5 L 167.6,63.3 L 167.5,64.2 L 167.1,64.1 L 166.9,63.8 L 167.0,63.4 L 166.9,63.3 L 166.6,63.1 L 166.2,62.1 L 165.2,61.8 L 164.8,60.9 L 164.5,59.8 L 163.9,59.1 L 163.5,58.8 L 163.0,58.2 L 162.4,58.2 L 161.9,58.4 L 161.0,58.0 L 160.8,57.7 L 160.5,57.4 L 159.1,56.9 L 158.6,56.3 L 158.2,56.2 L 157.8,57.2 L 157.4,58.0 L 157.0,58.3 L 156.4,57.4 L 155.9,56.9 L 155.2,56.1 L 154.8,55.5 L 154.8,55.2 L 174.2,51.0 L 190.5,44.6 L 190.6,44.6 L 190.5,44.8 L 190.7,45.5 L 191.5,46.3 L 193.3,47.3 L 194.1,47.2 L 194.7,46.8 L 194.8,46.3 L 194.4,45.7 L 194.0,45.5 L 193.1,45.6 L 192.4,45.4 L 191.6,44.3 L 198.3,42.7 L 198.3,42.8 L 198.1,43.3 L 195.9,46.3 L 195.5,46.1 L 195.0,46.5 L 196.0,47.0 L 195.9,47.9 L 196.1,48.4 L 197.2,49.1 L 197.5,49.2 L 198.1,49.3 L 199.0,49.8 L 199.9,49.8 L 200.7,49.7 L 203.8,49.0 L 204.5,48.9 L 205.6,48.8 L 206.1,48.3 L 205.2,47.3 L 204.4,46.5 L 203.7,45.6 L 203.0,45.4 L 201.5,45.3 L 200.6,45.0 L 199.7,43.7 L 198.9,43.2 L 199.3,42.7 L 198.9,42.6 L 209.7,40.0 L 209.6,40.5 L 210.0,41.0 L 210.9,40.9 L 211.7,40.9 L 212.7,41.6 L 211.4,42.4 L 210.6,43.3 L 210.3,44.6 L 210.8,46.4 L 211.3,46.9 L 211.1,47.2 L 211.0,47.7 L 211.6,48.4 L 213.2,48.6 L 213.3,49.2 L 214.1,48.9 L 215.1,48.0 L 216.0,47.7 L 216.8,47.4 L 218.4,46.5 L 220.1,45.3 L 221.9,42.7 L 222.3,42.4 L 222.8,43.0 L 222.8,45.3 L 223.4,46.1 L 223.5,46.4 L 222.7,47.0 L 222.5,48.5 L 222.7,50.9 L 222.6,52.4 L 223.6,53.7 L 225.2,56.1 L 225.1,57.1 L 225.2,57.5 L 226.5,57.8 L 227.5,58.4 L 228.2,58.4 L 229.5,57.6 L 231.8,57.9 L 232.5,57.5 L 233.2,57.2 L 233.5,55.2 L 233.1,54.2 L 232.7,53.5 L 232.6,51.8 L 232.7,51.1 L 233.0,50.9 L 233.5,50.9 L 234.5,50.5 L 234.9,50.4 L 234.8,51.1 L 234.6,51.6 L 235.3,52.1 L 235.9,53.8 L 235.8,55.0 L 235.5,55.8 L 235.3,57.1 L 235.6,57.8 L 235.7,58.4 L 235.4,59.0 L 235.3,60.0 L 235.5,60.6 L 235.9,62.3 L 236.0,63.5 L 236.4,64.2 L 236.9,64.5 L 237.9,64.5 L 238.3,64.7 L 238.6,65.3 L 239.1,65.8 L 239.4,65.8 L 239.7,63.9 L 241.5,63.5 L 242.3,63.6 L 243.6,64.6 L 244.2,64.3 L 245.0,64.4 L 245.2,64.8 L 245.1,65.8 L 244.1,67.1 L 244.0,68.1 L 243.7,68.8 L 243.8,69.7 L 243.7,70.4 L 243.7,70.5 L 243.5,71.1 L 243.1,71.9 L 242.9,72.7 L 242.1,72.8 L 241.8,72.5 L 241.1,70.1 L 241.1,70.1 L 240.3,68.2 L 240.0,67.8 L 239.4,67.7 L 238.9,67.8 L 238.2,68.7 L 238.6,69.1 L 238.7,69.7 L 238.7,69.9 L 238.8,72.5 L 237.3,74.8 L 237.2,75.2 L 237.2,77.2 L 237.7,79.1 L 237.7,80.3 L 236.8,82.0 L 237.3,83.3 L 235.8,85.2 L 235.7,86.3 L 236.1,86.6 L 236.3,87.1 L 234.7,91.6 L 234.8,92.6 L 235.3,93.9 L 236.3,94.9 L 237.2,98.3 L 236.7,99.4 L 237.0,100.5 L 237.4,100.5 L 237.2,101.1 L 237.2,102.2 L 237.7,102.6 L 237.9,103.5 L 238.8,103.7 L 238.9,104.0 L 239.3,104.8 L 239.9,105.7 L 240.5,105.3 L 240.7,104.4 L 242.2,103.2 L 242.8,102.3 L 243.2,99.9 L 243.7,99.4 L 244.2,97.0 L 243.9,96.2 L 243.5,95.4 L 244.2,94.8 L 244.5,94.5 L 244.8,92.5 L 244.3,90.8 L 244.7,90.0 L 245.4,89.1 L 245.4,88.5 L 245.5,87.6 L 245.9,86.3 L 246.8,85.5 L 247.5,85.0 L 249.5,85.2 L 250.1,84.6 L 250.4,84.1 L 250.4,83.1 L 250.9,82.3 L 251.6,82.2 L 252.4,82.3 L 252.5,82.8 L 252.2,83.6 L 249.8,86.5 L 249.4,87.9 L 248.4,89.2 L 248.0,92.0 L 247.2,93.1 L 247.2,93.5 L 247.4,93.7 L 248.0,93.6 L 248.7,93.7 L 249.5,95.0 L 249.7,96.6 L 249.6,97.9 L 248.9,98.8 L 248.3,100.2 L 247.7,100.9 L 247.0,101.1 L 245.6,102.7 L 244.3,103.4 L 243.1,104.4 L 241.9,106.1 L 240.5,108.4 L 240.3,109.8 L 240.7,111.3 L 240.9,111.4 L 240.9,111.9 L 240.7,112.2 L 240.2,113.2 L 238.9,114.2 L 238.3,114.3 L 238.0,113.6 L 237.4,113.4 L 236.8,113.9 L 235.6,114.8 L 235.3,117.1 L 235.5,118.6 L 236.0,120.2 L 236.8,121.3 L 237.5,121.5 L 237.8,121.9 L 237.9,122.5 L 238.4,123.0 L 239.1,123.1 L 239.7,122.9 L 239.9,123.1 L 239.7,123.8 L 238.7,125.1 L 238.7,126.2 L 238.8,126.7 L 239.3,127.0 L 239.4,127.4 L 238.9,128.0 L 239.2,128.5 L 240.0,128.7 L 240.2,129.5 L 240.7,130.1 L 241.2,130.1 L 241.5,130.2 L 241.8,130.6 L 241.6,131.5 L 238.0,135.0 L 237.8,135.6 L 237.8,136.9 L 238.3,141.5 L 238.8,143.7 L 238.6,144.7 L 238.6,146.0 L 238.7,146.5 L 239.2,146.7 L 239.5,147.1 L 239.4,147.2 L 239.2,148.7 L 238.0,151.0 L 237.7,152.0 L 237.6,152.7 L 236.8,156.4 L 236.9,157.7 L 237.3,158.6 L 238.5,160.1 L 238.9,160.9 L 238.7,162.4 L 238.6,162.9 L 238.7,163.7 L 238.3,164.7 L 237.7,165.2 L 236.4,165.9 L 236.1,165.9 L 235.7,164.8 L 235.4,163.3 L 235.2,162.8 L 235.8,161.1 L 235.9,159.9 L 235.5,158.7 L 233.5,155.0 L 233.4,154.3 L 233.5,153.1 L 233.2,151.9 L 232.4,151.2 L 231.8,150.2 L 230.9,149.6 L 230.5,149.9 L 230.5,150.9 L 229.8,152.0 L 229.9,152.8 L 230.3,153.7 L 230.3,154.4 L 229.7,155.0 L 229.4,154.8 L 229.0,153.7 L 227.9,153.5 L 227.0,154.2 L 227.1,155.2 L 225.8,157.9 L 225.9,158.9 L 225.6,159.9 L 225.3,161.8 L 225.3,162.6 L 225.5,163.3 L 225.7,164.4 L 226.1,165.0 L 226.5,166.7 L 226.4,167.0 L 226.1,168.8 L 225.8,169.3 L 225.7,170.0 L 225.9,171.4 L 225.8,172.1 L 224.9,172.3 L 224.3,172.9 L 224.4,173.4 L 224.3,174.8 L 224.7,176.1 L 224.8,176.8 L 224.4,177.2 L 224.2,177.5 L 224.2,178.5 L 224.0,178.9 L 224.1,179.4 L 223.9,181.0 L 223.6,182.0 L 223.5,183.9 L 223.7,184.5 L 223.7,185.9 L 224.6,187.4 L 225.0,187.4 L 225.7,187.0 L 225.9,187.2 L 226.4,188.1 L 227.8,188.3 L 228.4,189.1 L 228.5,189.9 L 229.0,191.3 L 229.0,191.9 L 228.6,192.1 L 227.8,192.8 L 227.0,194.5 L 226.5,196.2 L 226.6,197.0 L 226.5,198.7 L 226.8,200.0 L 226.7,201.1 L 227.3,201.1 L 227.6,200.8 L 227.8,200.0 L 228.6,199.6 L 229.5,198.2 L 230.1,197.0 L 230.9,196.3 L 230.9,195.8 L 230.7,195.3 L 232.4,194.0 L 233.7,192.6 L 234.4,191.0 L 234.5,190.2 L 234.2,189.3 L 234.1,188.5 L 234.8,187.7 L 235.9,187.9 L 236.5,188.3 L 236.9,188.0 L 238.1,186.2 L 238.5,186.0 L 239.0,186.2 L 239.1,186.5 L 239.1,186.8 L 238.0,188.0 L 238.0,189.8 L 238.3,192.0 L 238.6,193.4 L 238.4,195.0 L 238.4,195.7 L 238.3,196.7 L 238.8,198.0 L 239.9,199.4 L 241.1,199.5 L 241.1,201.0 L 241.3,201.8 L 242.3,203.2 L 243.8,203.6 L 245.0,204.5 L 245.7,205.6 L 246.1,206.8 L 246.0,207.9 L 246.6,208.5 L 246.8,209.0 L 246.3,211.0 L 245.6,211.7 L 244.8,212.2 L 244.2,212.4 L 243.7,212.0 L 243.3,210.2 L 243.4,208.6 L 243.2,208.3 L 242.1,208.2 L 241.6,208.8 L 241.2,208.9 L 241.0,208.8 L 240.7,208.2 L 240.7,207.5 L 240.2,206.8 L 240.5,206.2 L 239.5,206.0 L 239.7,204.0 L 239.4,203.1 L 238.6,203.2 L 238.4,202.8 L 238.5,201.3 L 238.2,197.9 L 238.0,197.3 L 237.6,196.4 L 237.4,196.2 L 236.4,196.0 L 234.2,197.4 L 232.6,198.0 L 230.7,198.3 L 229.8,198.8 L 228.8,200.3 L 228.6,201.2 L 228.3,201.8 L 228.0,203.6 L 228.3,204.7 L 229.3,207.1 L 229.4,208.5 L 230.1,209.8 L 231.0,210.8 L 231.6,211.8 L 231.5,212.5 L 230.2,214.4 L 229.0,215.6 L 228.2,216.7 L 227.9,218.3 L 228.2,221.1 L 228.5,221.8 L 228.4,222.6 L 228.4,223.2 L 228.9,223.9 L 229.1,224.9 L 229.5,225.7 L 229.3,226.2 L 229.4,226.5 L 229.0,230.2 L 226.1,232.8 L 225.8,233.9 L 225.1,234.8 L 225.0,235.8 L 225.1,237.0 L 224.9,239.0 L 225.4,240.9 L 226.3,242.7 L 228.8,244.9 L 229.1,245.1 L 229.4,245.8 L 229.3,246.5 L 228.8,247.3 L 228.0,249.6 L 226.6,250.4 L 225.8,250.4 L 225.4,251.3 L 224.7,251.6 L 224.2,252.4 L 223.3,252.4 L 223.1,252.8 L 223.3,253.5 L 223.3,254.2 L 222.5,255.3 L 222.4,256.7 L 221.1,258.0 L 220.8,258.7 L 220.9,259.4 L 221.2,260.3 L 221.8,260.7 L 222.3,261.9 L 223.0,262.7 L 223.8,262.9 L 223.8,264.1 L 224.0,264.9 L 224.0,265.3 L 226.2,267.2 L 226.6,267.8 L 226.3,268.4 L 227.6,270.0 L 228.2,271.0 L 227.9,273.3 L 227.6,274.1 L 226.6,275.3 L 225.4,277.2 L 224.2,277.7 L 223.2,277.6 L 222.7,277.1 L 222.4,275.7 L 222.5,273.3 L 222.4,272.3 L 222.1,271.9 L 220.8,271.6 L 220.5,271.2 L 219.9,271.0 L 219.2,271.1 L 218.6,270.3 L 218.2,270.4 L 217.7,270.7 L 217.3,272.6 L 216.9,273.6 L 216.6,276.1 L 216.8,277.2 L 218.1,278.9 L 218.6,278.8 L 219.4,279.2 L 219.7,279.5 L 219.3,281.0 L 219.5,281.9 L 219.4,282.9 L 219.9,283.5 L 219.4,284.7 L 219.3,285.2 L 220.2,286.2 L 220.7,286.7 L 221.2,286.9 L 222.5,287.2 L 222.8,287.4 L 222.7,287.8 L 223.2,288.3 L 223.9,289.0 L 224.2,288.9 L 225.4,288.9 L 226.0,288.4 L 226.3,289.1 L 226.1,290.0 L 225.8,290.3 L 224.3,289.7 L 222.9,289.3 L 223.1,289.0 L 223.0,288.5 L 222.1,288.6 L 219.8,287.8 L 219.2,288.1 L 218.8,287.6 L 218.5,286.6 L 218.1,286.5 L 217.6,286.7 L 217.3,287.9 L 217.0,288.2 L 215.9,287.8 L 215.5,287.9 L 215.4,288.3 L 214.1,289.1 L 212.3,290.9 L 212.7,291.5 L 212.4,292.2 L 212.0,295.0 L 212.4,295.5 L 212.4,295.9 L 212.6,296.3 L 213.0,296.6 L 213.4,297.3 L 214.6,297.9 L 214.8,298.2 L 214.4,300.7 L 214.8,301.4 L 215.4,301.9 L 216.1,302.0 L 216.9,301.4 L 218.0,299.5 L 219.2,298.5 L 219.5,298.6 L 220.2,300.7 L 220.6,302.3 L 220.3,302.5 L 219.9,302.6 L 219.7,302.7 L 219.9,303.3 L 220.1,304.2 L 219.6,305.1 L 219.3,305.8 L 218.3,305.6 L 217.7,305.9 L 217.0,306.6 L 216.4,307.1 L 215.8,307.0 L 215.2,307.4 L 215.4,307.7 L 215.3,308.0 L 214.8,308.0 L 213.7,307.3 L 213.4,306.8 L 213.1,305.9 L 213.4,304.0 L 212.8,303.3 L 211.8,303.1 L 211.4,303.2 L 211.0,304.3 L 210.7,304.8 L 209.4,304.6 L 208.8,304.7 L 208.2,305.1 L 208.4,305.7 L 208.4,307.4 L 208.6,307.9 L 208.7,308.5 L 208.7,310.1 L 208.8,310.8 L 210.3,311.2 L 210.6,311.7 L 212.2,312.1 L 212.7,312.7 L 213.2,313.1 L 213.8,313.8 L 214.4,314.2 L 214.6,315.3 L 214.8,315.8 L 215.2,316.1 L 216.0,317.3 L 217.0,318.3 L 217.0,318.7 L 216.6,319.1 L 215.7,318.9 L 214.9,318.5 L 214.2,317.9 L 213.9,318.1 L 213.4,320.0 L 213.2,320.1 L 212.5,319.2 L 211.9,318.8 L 211.7,319.0 L 211.9,319.5 L 211.7,319.8 L 211.2,319.9 L 211.3,321.2 L 211.6,322.2 L 211.8,322.7 L 212.6,323.1 L 213.2,323.3 L 213.5,323.5 L 213.8,325.3 L 214.5,326.4 L 214.5,327.5 L 215.5,328.4 L 215.5,329.1 L 214.5,329.8 L 214.3,330.4 L 213.8,330.5 L 211.4,334.1 L 211.4,335.5 L 211.0,336.6 L 211.1,337.7 L 211.4,338.1 L 211.4,339.1 L 212.2,339.9 L 212.6,339.9 L 212.8,339.6 L 213.0,338.6 L 213.7,338.0 L 213.8,337.4 L 213.4,336.9 L 213.8,336.2 L 214.1,336.1 L 214.8,336.2 L 215.1,336.0 L 215.4,335.3 L 216.3,335.2 L 217.4,334.8 L 218.0,335.3 L 218.7,336.7 L 219.5,337.0 L 221.8,337.0 L 221.9,337.3 L 221.7,337.7 L 221.3,339.4 L 220.7,339.8 L 220.2,339.4 L 219.9,339.6 L 219.5,340.3 L 219.4,341.0 L 219.1,341.7 L 219.1,342.5 L 219.4,343.2 L 220.2,343.6 L 220.4,343.9 L 220.8,344.9 L 221.1,344.9 L 221.5,344.7 L 222.4,345.0 L 222.0,346.4 L 222.1,346.9 L 222.0,347.7 L 221.6,347.7 L 221.0,347.0 L 219.7,346.8 L 219.5,346.7 L 219.0,345.6 L 218.8,345.8 L 219.3,346.8 L 219.4,347.2 L 219.3,347.9 L 219.1,347.8 L 218.9,347.9 L 219.0,348.8 L 219.2,349.6 L 218.8,349.9 L 218.0,349.9 L 217.3,349.3 L 216.5,346.6 L 215.0,345.3 L 213.8,344.5 L 213.2,343.7 L 212.6,343.6 L 212.1,343.7 L 211.9,344.2 L 212.1,345.6 L 212.7,346.7 L 212.3,347.6 L 212.4,349.2 L 213.1,351.5 L 214.1,352.5 L 214.7,352.6 L 214.7,353.1 L 215.2,354.1 L 216.0,354.1 L 218.0,354.4 L 218.0,355.1 L 218.2,355.3 L 219.3,355.7 L 220.1,356.9 L 220.0,357.6 L 219.7,358.0 L 219.4,358.1 L 219.1,357.8 L 218.3,357.7 L 217.7,356.6 L 217.5,356.5 L 217.0,356.3 L 216.6,356.6 L 216.3,357.3 L 215.3,358.2 L 214.5,359.2 L 214.2,359.5 L 213.9,359.6 L 212.6,356.7 L 213.1,355.3 L 212.8,355.1 L 212.2,355.3 L 212.1,354.6 L 212.2,354.2 L 212.5,353.4 L 212.4,352.5 L 212.0,351.7 L 211.7,351.6 L 211.3,352.1 L 210.9,354.0 L 211.1,354.7 L 211.1,355.5 L 211.7,356.1 L 211.4,357.2 L 211.5,358.2 L 212.0,358.7 L 211.8,359.7 L 211.6,360.0 L 210.7,358.6 L 209.5,356.3 L 209.1,356.1 L 208.8,356.3 L 208.4,358.3 L 207.3,358.2 L 206.8,357.9 L 205.9,354.7 L 204.9,353.4 L 204.4,353.0 L 203.9,352.1 L 203.6,352.3 L 203.5,352.9 L 203.3,354.7 L 202.5,355.2 L 201.2,355.5 L 201.1,355.4 L 198.8,352.8 L 197.9,351.7" fill="none" stroke="black" stroke-width="2"/>
</svg>