<?xml version="1.0" encoding="UTF-8"?>
<svg width="400" height="400" viewBox="0 0 400 400" xmlns="http://www.w3.org/2000/svg">
  <rect width="400" height="400" fill="white"/>
  <path d="M 216.0,283.1 L 194.8,273.1 L 191.3,272.1 L 186.7,269.7 L 178.2,264.3 L 174.6,259.6 L 170.4,256.9 L 168.2,253.4 L 161.4,251.5 L 159.8,250.2 L 155.8,250.0 L 153.4,250.4 L 145.9,250.1 L 141.5,250.5 L 137.5,249.5 L 129.7,247.2 L 126.1,244.3 L 124.3,243.5 L 123.2,241.8 L 122.6,240.1 L 118.8,236.7 L 118.5,230.8 L 116.9,228.1 L 116.6,224.4 L 115.0,222.3 L 110.6,218.8 L 106.2,213.9 L 102.4,212.2 L 97.7,211.0 L 94.3,211.4 L 91.4,210.5 L 88.0,205.6 L 85.4,199.8 L 80.0,193.0 L 74.6,181.9 L 72.4,178.4 L 70.6,173.4 L 69.5,169.0 L 67.0,164.2 L 65.2,158.8 L 65.0,157.2 L 64.5,143.5 L 62.8,140.1 L 63.3,136.2 L 64.1,134.6 L 64.2,129.9 L 66.7,124.6 L 67.2,122.0 L 66.0,117.1 L 66.4,116.0 L 68.9,113.6 L 68.6,112.0 L 66.7,109.4 L 66.8,105.1 L 65.5,102.8 L 60.3,97.4 L 57.0,95.6 L 55.9,94.1 L 53.0,91.4 L 49.0,87.6 L 45.2,81.3 L 41.2,75.9 L 40.0,70.2 L 40.3,67.6 L 41.9,65.6 L 46.4,64.1 L 47.7,64.2 L 51.8,67.7 L 57.3,73.2 L 60.8,74.7 L 62.2,76.2 L 66.3,83.5 L 73.1,93.3 L 73.6,93.9 L 75.1,98.2 L 86.4,112.5 L 86.7,115.9 L 88.1,119.3 L 97.7,138.9 L 103.3,147.4 L 109.4,154.0 L 115.9,159.2 L 123.5,164.7 L 127.3,166.7 L 132.4,171.7 L 139.0,174.6 L 146.4,179.4 L 148.1,180.4 L 150.2,181.2 L 151.9,182.4 L 155.3,186.7 L 155.9,188.3 L 159.3,189.3 L 161.7,190.9 L 165.8,192.8 L 170.1,194.1 L 177.8,194.8 L 184.9,193.3 L 186.5,193.6 L 187.1,195.0 L 189.2,195.0 L 192.5,194.6 L 195.0,196.0 L 198.6,199.1 L 203.3,200.0 L 207.8,202.7 L 214.1,207.2 L 222.6,211.4 L 231.4,215.8 L 234.1,219.9 L 236.8,219.5 L 243.6,223.0 L 246.6,223.9 L 250.4,225.8 L 258.4,228.4 L 269.8,231.5 L 273.2,231.6 L 275.6,231.9 L 284.3,234.1 L 289.6,234.3 L 291.9,234.1 L 303.5,234.9 L 307.1,237.6 L 309.6,240.8 L 311.7,242.2 L 322.3,244.1 L 324.3,245.3 L 327.4,246.1 L 332.9,248.9 L 339.8,255.1 L 343.8,259.6 L 346.4,264.7 L 352.8,272.8 L 352.5,275.4 L 353.9,276.2 L 355.0,280.5 L 357.0,283.7 L 360.0,285.3 L 359.9,285.5 L 342.4,335.9 L 341.9,332.8 L 338.3,327.8 L 335.9,325.3 L 335.4,323.4 L 337.0,321.7 L 336.7,320.9 L 334.0,321.1 L 330.9,320.2 L 329.2,319.1 L 325.9,318.5 L 324.2,316.9 L 320.8,316.0 L 310.9,309.8 L 309.6,307.8 L 307.0,307.5 L 304.9,304.5 L 301.6,304.1 L 300.0,306.1 L 296.3,305.6 L 294.3,306.9 L 289.7,306.6 L 284.1,304.8 L 279.6,302.1 L 276.9,300.1 L 266.2,298.8 L 264.7,298.3 L 263.3,297.9 L 257.4,298.2 L 251.3,294.5 L 245.1,292.6 L 239.9,291.4 L 233.5,289.3 L 226.0,287.8 L 216.0,283.1" fill="none" stroke="black" stroke-width="2"/>
</svg>