<?xml version="1.0" encoding="UTF-8"?>
<svg width="400" height="400" viewBox="0 0 400 400" xmlns="http://www.w3.org/2000/svg">
  <rect width="400" height="400" fill="white"/>
  <path d="M 159.5,360.0 L 159.5,357.0 L 158.5,348.9 L 159.3,342.8 L 158.6,338.5 L 158.6,336.1 L 159.4,331.8 L 161.3,330.1 L 161.8,325.2 L 160.9,322.3 L 161.5,321.5 L 163.2,324.1 L 164.6,327.8 L 165.4,327.7 L 165.6,324.9 L 164.5,316.6 L 161.3,306.1 L 159.1,305.8 L 159.2,303.0 L 158.1,301.1 L 156.9,293.7 L 155.2,290.5 L 153.0,283.9 L 152.3,282.9 L 150.3,284.4 L 148.6,290.2 L 146.2,291.0 L 144.3,289.5 L 141.4,285.8 L 140.5,285.5 L 135.9,279.1 L 133.2,278.7 L 128.6,279.7 L 123.9,284.3 L 122.7,286.0 L 121.2,289.0 L 118.5,290.9 L 117.6,290.9 L 118.0,287.7 L 119.6,283.6 L 120.8,281.9 L 120.6,276.1 L 121.0,274.7 L 121.9,273.5 L 121.8,271.4 L 120.2,266.5 L 120.9,265.2 L 122.9,265.0 L 124.0,264.0 L 125.3,261.9 L 125.8,259.9 L 126.8,259.5 L 128.3,259.1 L 128.7,256.1 L 128.2,253.9 L 127.8,252.8 L 128.3,250.1 L 129.4,249.1 L 131.5,250.3 L 133.0,249.9 L 134.0,247.9 L 134.3,245.4 L 136.6,245.5 L 137.0,243.2 L 136.2,239.6 L 139.1,233.2 L 140.2,234.5 L 142.7,234.8 L 143.2,231.6 L 141.2,231.1 L 142.8,226.2 L 142.8,223.9 L 141.7,215.6 L 142.6,211.5 L 143.5,209.8 L 143.0,207.6 L 143.4,205.8 L 144.9,205.8 L 146.1,204.1 L 146.5,202.3 L 147.9,199.5 L 148.2,197.7 L 148.8,193.9 L 149.7,192.7 L 151.2,193.3 L 152.4,194.8 L 152.8,198.5 L 153.2,200.1 L 154.8,201.8 L 156.4,202.0 L 159.6,206.3 L 160.2,207.7 L 158.9,211.7 L 159.3,213.4 L 158.6,217.9 L 159.5,219.7 L 159.3,224.1 L 160.5,224.8 L 162.2,224.7 L 163.0,223.5 L 164.7,220.3 L 166.6,218.7 L 167.7,215.8 L 167.7,213.1 L 168.1,210.6 L 166.8,206.6 L 165.0,203.8 L 164.7,202.3 L 165.3,200.4 L 166.2,200.5 L 168.8,204.9 L 171.0,205.4 L 175.2,203.8 L 176.6,203.5 L 177.9,204.4 L 178.4,205.6 L 176.9,209.4 L 176.0,213.6 L 174.7,216.2 L 174.1,218.5 L 175.2,222.3 L 177.4,224.6 L 179.3,223.9 L 181.1,221.4 L 182.3,221.6 L 181.4,224.5 L 183.0,227.0 L 183.0,231.5 L 185.4,236.4 L 185.3,239.7 L 186.7,242.5 L 188.6,242.1 L 189.3,240.8 L 190.5,231.0 L 190.2,226.0 L 189.3,225.5 L 186.9,224.6 L 185.6,225.2 L 185.3,224.6 L 186.3,221.2 L 186.1,218.5 L 186.1,216.1 L 185.1,214.9 L 183.1,214.8 L 182.1,215.0 L 181.6,213.6 L 186.8,203.9 L 187.5,203.8 L 188.9,204.0 L 188.7,207.2 L 190.0,207.6 L 190.3,208.1 L 190.9,210.6 L 192.4,211.3 L 193.0,214.8 L 193.6,215.9 L 194.5,215.5 L 196.8,213.3 L 197.4,210.9 L 198.5,209.4 L 198.1,206.4 L 198.4,205.5 L 199.0,204.9 L 200.5,205.7 L 201.3,206.6 L 203.1,206.6 L 203.9,206.3 L 205.3,204.9 L 205.9,197.6 L 206.8,194.7 L 209.2,190.4 L 210.6,188.8 L 211.5,184.4 L 212.6,183.0 L 211.1,169.8 L 211.8,168.5 L 213.9,168.6 L 214.9,167.7 L 215.5,158.3 L 217.5,145.1 L 219.7,140.5 L 221.8,128.2 L 221.8,127.9 L 221.2,125.4 L 221.5,120.6 L 220.9,118.7 L 216.3,117.1 L 215.5,114.3 L 216.9,106.8 L 217.7,104.2 L 219.3,94.2 L 219.1,92.3 L 218.1,88.5 L 219.3,86.7 L 220.1,86.0 L 220.5,80.8 L 220.1,78.5 L 220.7,76.7 L 222.8,74.7 L 223.3,71.6 L 222.4,68.2 L 222.7,64.2 L 222.3,62.5 L 222.3,60.2 L 221.3,59.1 L 221.3,58.5 L 224.9,59.3 L 226.4,60.1 L 227.4,60.1 L 231.6,55.6 L 234.1,51.1 L 239.6,43.5 L 243.0,41.4 L 243.6,41.9 L 244.1,45.0 L 247.1,51.4 L 244.7,53.0 L 238.4,53.4 L 237.4,57.2 L 236.8,60.6 L 238.2,63.6 L 239.5,62.6 L 240.6,59.1 L 243.3,59.3 L 246.2,57.4 L 248.3,58.2 L 249.3,56.9 L 249.9,54.3 L 252.2,53.0 L 254.1,55.1 L 253.7,58.5 L 254.5,59.6 L 255.6,59.5 L 259.9,56.2 L 259.3,55.4 L 258.4,55.1 L 258.9,52.1 L 260.5,50.7 L 260.4,49.2 L 259.1,47.3 L 259.8,46.0 L 264.7,42.3 L 267.7,41.9 L 272.4,40.0 L 273.7,40.5 L 274.6,42.6 L 275.7,44.3 L 274.6,45.0 L 271.6,44.8 L 271.3,45.4 L 271.9,45.8 L 272.3,46.3 L 270.9,49.1 L 271.5,50.1 L 273.5,51.1 L 275.3,51.4 L 276.9,51.2 L 280.2,51.0 L 281.4,51.9 L 280.8,57.9 L 282.1,59.7 L 281.9,62.4 L 282.4,63.9 L 282.0,66.8 L 280.9,67.8 L 275.7,67.7 L 275.0,66.8 L 276.1,62.4 L 274.8,59.0 L 274.2,58.5 L 272.4,56.1 L 270.8,55.8 L 269.8,56.4 L 269.8,59.2 L 268.3,63.1 L 267.1,65.3 L 265.7,65.2 L 264.1,63.2 L 263.7,61.7 L 261.9,59.7 L 259.3,58.7 L 258.3,59.8 L 260.2,61.9 L 259.6,62.5 L 257.7,63.1 L 256.7,62.0 L 255.8,64.0 L 253.2,66.4 L 252.1,68.5 L 251.5,71.1 L 250.4,73.9 L 249.8,76.7 L 251.6,82.2 L 252.7,82.8 L 258.3,84.0 L 259.6,84.8 L 259.3,87.9 L 258.5,88.6 L 256.5,88.5 L 252.4,87.9 L 251.2,88.4 L 247.4,89.9 L 244.7,89.7 L 243.6,90.5 L 243.4,96.1 L 243.4,99.6 L 245.2,104.3 L 244.9,106.6 L 243.9,108.0 L 243.2,111.4 L 242.1,114.0 L 241.2,118.0 L 242.4,120.8 L 243.4,122.1 L 243.8,124.5 L 241.3,126.6 L 240.0,129.3 L 239.8,129.8 L 239.1,131.9 L 238.9,139.4 L 239.9,140.6 L 238.4,145.3 L 238.9,146.8 L 240.2,147.7 L 240.7,151.7 L 241.7,152.8 L 241.1,156.2 L 241.5,157.1 L 242.4,156.9 L 243.8,154.5 L 246.2,152.8 L 247.7,153.0 L 247.3,155.7 L 246.6,157.0 L 244.5,158.6 L 243.5,158.0 L 241.2,160.4 L 241.0,161.8 L 238.8,164.0 L 238.0,166.0 L 237.7,171.0 L 240.2,178.8 L 242.5,179.2 L 243.0,180.7 L 242.0,183.8 L 241.5,187.0 L 242.6,188.8 L 242.3,194.1 L 241.5,194.7 L 234.7,190.1 L 233.8,190.9 L 233.1,193.3 L 234.0,195.2 L 232.1,199.5 L 231.4,204.3 L 231.6,206.6 L 232.7,209.4 L 233.8,211.1 L 231.9,223.7 L 234.1,234.0 L 235.8,238.0 L 238.1,248.1 L 240.7,255.5 L 241.7,256.8 L 243.1,256.8 L 243.6,256.4 L 248.0,251.2 L 249.4,248.5 L 248.5,246.0 L 248.5,244.2 L 247.6,241.7 L 248.0,240.3 L 249.2,240.1 L 249.6,238.0 L 246.7,236.6 L 244.8,233.2 L 242.1,229.9 L 243.5,222.6 L 245.1,221.5 L 246.0,221.9 L 247.7,224.4 L 247.7,226.8 L 248.1,227.6 L 249.3,227.2 L 250.2,226.0 L 253.4,223.7 L 254.2,225.7 L 253.1,227.1 L 253.3,228.2 L 255.6,228.7 L 256.7,230.7 L 256.9,233.8 L 253.7,237.7 L 253.0,242.3 L 253.9,242.9 L 255.3,245.6 L 256.3,245.3 L 259.4,241.7 L 260.4,241.3 L 261.5,241.7 L 261.6,242.9 L 260.7,245.1 L 258.3,248.9 L 257.8,250.9 L 258.3,251.9 L 258.3,253.6 L 256.3,255.6 L 256.7,257.3 L 258.7,260.2 L 260.1,259.6 L 262.8,261.9 L 264.3,261.7 L 266.5,258.2 L 267.9,256.0 L 268.4,255.8 L 268.8,258.0 L 270.3,258.6 L 270.2,262.2 L 271.5,266.1 L 271.7,268.8 L 272.5,271.8 L 272.6,273.9 L 269.8,276.5 L 269.4,277.9 L 271.0,282.7 L 274.8,283.4 L 276.1,285.9 L 278.1,291.5 L 281.5,296.8 L 281.2,299.5 L 278.1,302.7 L 276.3,306.1 L 275.2,309.7 L 273.3,310.0 L 272.9,311.4 L 271.9,313.6 L 272.6,314.8 L 273.5,314.7 L 275.9,312.8 L 279.5,311.8 L 280.2,312.0 L 279.5,313.6 L 278.6,314.8 L 278.9,316.7 L 278.3,319.9 L 278.6,320.7 L 278.7,322.0 L 277.7,327.0 L 278.0,330.9 L 276.6,332.5 L 274.9,332.4 L 273.7,331.3 L 272.3,326.9 L 271.2,326.5 L 269.3,328.3 L 268.5,332.6 L 268.2,337.4 L 268.6,338.5 L 269.5,339.0 L 269.9,343.0 L 270.4,345.2 L 159.5,360.0" fill="none" stroke="black" stroke-width="2"/>
</svg>