<?xml version="1.0" encoding="UTF-8"?>
<svg width="400" height="400" viewBox="0 0 400 400" xmlns="http://www.w3.org/2000/svg">
  <rect width="400" height="400" fill="white"/>
  <path d="M 54.8,265.0 L 54.8,264.9 L 40.0,215.7 L 40.1,215.7 L 42.2,214.9 L 42.7,214.2 L 44.2,213.1 L 44.9,212.7 L 46.3,211.8 L 47.4,211.2 L 48.3,210.7 L 50.2,209.7 L 51.7,209.2 L 52.6,208.8 L 53.8,208.3 L 56.8,206.4 L 58.2,205.9 L 60.3,204.9 L 62.9,203.5 L 63.9,203.1 L 64.2,202.9 L 64.3,202.7 L 65.2,202.5 L 66.5,202.8 L 66.7,202.4 L 67.5,202.3 L 67.7,202.0 L 67.8,201.3 L 68.3,201.7 L 69.1,201.6 L 69.9,201.1 L 70.4,200.6 L 74.4,199.9 L 75.9,199.6 L 77.1,199.5 L 78.8,199.6 L 79.2,199.5 L 80.5,199.6 L 81.5,199.4 L 83.2,199.3 L 84.8,199.3 L 85.8,199.2 L 86.7,199.2 L 87.3,198.9 L 90.0,199.3 L 94.0,199.5 L 95.0,199.4 L 96.2,199.5 L 97.5,200.4 L 99.7,201.0 L 101.3,201.3 L 102.9,202.1 L 103.9,202.4 L 106.8,203.7 L 107.0,203.7 L 109.2,204.6 L 109.8,204.6 L 110.8,203.7 L 111.0,203.4 L 111.1,203.5 L 110.8,204.6 L 110.2,205.1 L 110.8,206.2 L 110.8,206.5 L 111.2,206.7 L 111.3,207.0 L 111.4,207.1 L 112.1,207.2 L 112.7,207.4 L 114.2,208.4 L 115.6,208.9 L 118.0,209.4 L 121.6,209.8 L 122.9,210.1 L 125.0,210.3 L 126.7,210.0 L 128.1,209.8 L 129.2,209.7 L 129.9,209.4 L 131.4,209.2 L 132.7,209.0 L 134.3,208.4 L 136.0,208.0 L 136.9,208.0 L 138.1,207.9 L 140.9,207.0 L 142.0,206.9 L 142.6,206.7 L 142.9,206.5 L 146.6,206.1 L 148.3,206.1 L 149.7,206.0 L 150.3,205.8 L 151.1,205.9 L 152.1,205.6 L 154.1,205.5 L 155.9,205.6 L 156.9,205.4 L 157.7,205.5 L 158.3,205.2 L 160.8,205.2 L 162.4,204.9 L 163.5,204.6 L 164.3,204.8 L 165.7,204.8 L 166.4,205.1 L 167.3,205.1 L 169.5,204.6 L 170.0,204.4 L 171.4,204.5 L 172.1,204.6 L 173.4,204.7 L 176.7,204.4 L 178.7,204.1 L 182.2,204.4 L 182.8,204.3 L 184.7,204.7 L 186.4,205.1 L 189.0,206.3 L 190.0,206.7 L 190.9,207.1 L 194.2,208.1 L 197.6,208.9 L 197.9,208.7 L 198.8,209.0 L 200.6,209.2 L 201.0,209.2 L 202.1,209.2 L 203.3,208.8 L 203.7,208.6 L 203.8,208.5 L 204.9,208.3 L 206.6,207.7 L 208.3,207.3 L 209.8,206.7 L 210.8,206.6 L 211.9,206.7 L 212.8,206.5 L 215.8,206.4 L 217.4,206.5 L 217.5,206.8 L 221.0,207.3 L 221.7,207.7 L 224.5,207.9 L 226.5,208.0 L 227.4,207.8 L 228.2,207.8 L 228.6,207.7 L 229.4,207.3 L 231.9,207.2 L 232.8,206.8 L 234.4,206.3 L 235.7,206.2 L 236.1,206.0 L 236.9,205.9 L 237.6,205.5 L 239.3,205.0 L 240.3,204.5 L 240.7,204.2 L 240.9,203.8 L 241.2,203.0 L 242.1,199.3 L 241.9,198.8 L 242.2,196.8 L 242.1,196.4 L 242.5,193.4 L 242.5,193.4 L 243.9,187.6 L 245.5,183.7 L 245.8,182.7 L 246.2,182.1 L 246.4,181.5 L 246.8,181.3 L 248.0,179.4 L 248.6,178.4 L 249.1,177.2 L 249.3,175.6 L 249.6,174.4 L 250.7,172.4 L 251.2,171.4 L 251.2,171.2 L 251.0,169.3 L 251.3,168.1 L 252.1,166.1 L 252.6,164.1 L 253.2,162.7 L 253.8,161.8 L 255.0,160.7 L 255.3,160.0 L 255.6,159.5 L 256.1,158.2 L 257.8,155.6 L 262.3,149.9 L 263.5,148.7 L 263.8,148.6 L 264.4,148.0 L 264.8,147.5 L 265.6,146.4 L 269.1,142.9 L 271.9,140.4 L 273.1,139.3 L 274.7,137.3 L 277.0,135.6 L 278.4,135.1 L 279.1,135.0 L 280.5,135.1 L 281.6,135.5 L 282.6,136.1 L 285.3,136.4 L 285.9,137.0 L 286.0,137.1 L 286.7,137.2 L 287.2,136.3 L 287.8,135.8 L 287.8,136.0 L 287.8,136.4 L 287.3,137.1 L 287.0,138.0 L 287.4,138.2 L 289.7,138.3 L 290.8,137.7 L 291.7,137.7 L 292.6,138.0 L 293.1,138.6 L 295.7,143.0 L 296.3,143.4 L 297.1,144.4 L 297.8,145.5 L 299.4,147.4 L 300.4,148.4 L 302.2,151.0 L 302.2,151.2 L 302.8,152.0 L 303.9,153.2 L 305.3,154.5 L 306.8,156.1 L 307.5,156.6 L 308.4,157.5 L 311.0,159.2 L 311.9,159.6 L 313.2,160.4 L 313.9,161.0 L 315.3,161.8 L 318.0,162.6 L 319.9,163.6 L 321.7,163.7 L 322.4,163.7 L 323.4,163.0 L 324.7,162.6 L 326.4,162.4 L 328.5,162.3 L 329.0,161.8 L 329.9,161.1 L 333.0,158.0 L 333.7,157.2 L 334.5,157.2 L 334.6,157.0 L 333.8,156.6 L 334.1,156.3 L 335.2,156.4 L 335.3,156.8 L 335.8,157.1 L 337.1,157.7 L 337.5,157.6 L 338.7,157.7 L 339.4,157.2 L 340.0,156.8 L 340.4,156.4 L 342.2,157.6 L 342.0,158.4 L 342.3,158.8 L 343.0,159.2 L 344.3,159.8 L 344.8,159.8 L 344.8,159.6 L 343.9,159.3 L 343.8,159.1 L 343.9,158.7 L 344.1,158.5 L 344.7,158.6 L 345.4,159.1 L 345.4,159.4 L 345.7,160.0 L 346.7,159.6 L 347.4,159.2 L 347.9,159.2 L 348.3,159.0 L 348.5,159.2 L 349.1,159.0 L 349.7,159.1 L 350.1,159.0 L 350.3,159.2 L 350.4,159.4 L 350.5,160.0 L 350.5,160.2 L 352.6,161.2 L 355.0,162.2 L 355.5,162.2 L 355.8,162.1 L 356.0,162.2 L 356.3,162.6 L 356.8,163.3 L 357.0,163.9 L 356.7,164.2 L 357.2,165.6 L 357.7,166.3 L 358.1,166.3 L 358.7,167.0 L 358.7,167.1 L 359.3,167.3 L 359.9,168.0 L 360.0,168.5 L 359.7,169.6 L 359.4,171.3 L 358.7,176.5 L 358.0,178.2 L 357.6,178.8 L 357.2,179.3 L 356.6,180.3 L 355.5,181.4 L 355.0,182.4 L 352.4,184.8 L 351.2,186.0 L 350.4,186.6 L 350.0,186.6 L 349.3,186.6 L 348.3,186.9 L 347.5,187.4 L 346.9,188.1 L 346.6,188.7 L 346.6,189.6 L 346.5,190.5 L 345.7,191.4 L 344.6,192.0 L 343.1,193.2 L 341.6,193.3 L 340.9,193.8 L 340.1,194.2 L 338.7,194.5 L 337.7,194.5 L 336.7,194.5 L 336.0,194.7 L 334.6,195.4 L 332.0,196.5 L 330.6,197.5 L 329.8,197.5 L 329.2,197.6 L 329.1,197.5 L 328.5,197.9 L 328.4,198.0 L 327.5,198.4 L 323.6,198.8 L 320.3,199.4 L 317.0,199.2 L 313.4,198.9 L 312.4,198.5 L 311.6,197.9 L 310.9,197.8 L 310.1,197.8 L 308.9,198.0 L 307.7,199.0 L 306.9,199.2 L 305.5,199.1 L 303.1,198.3 L 302.3,197.9 L 301.7,197.1 L 300.0,196.6 L 299.3,196.1 L 298.3,195.0 L 297.9,194.7 L 297.7,194.3 L 297.4,193.9 L 295.9,192.6 L 295.1,191.6 L 293.8,190.5 L 292.8,189.8 L 292.2,189.2 L 289.7,187.5 L 288.6,187.0 L 287.1,186.5 L 286.9,186.4 L 286.4,186.5 L 285.6,186.8 L 284.7,187.0 L 282.5,188.4 L 281.0,189.9 L 280.2,190.7 L 278.2,193.0 L 276.3,195.9 L 276.0,196.5 L 275.9,196.6 L 275.4,197.1 L 275.0,199.3 L 274.1,200.7 L 273.4,202.7 L 272.7,203.7 L 272.2,205.2 L 271.8,206.8 L 271.5,207.6 L 271.3,208.2 L 271.4,208.8 L 271.3,210.2 L 271.0,211.3 L 270.6,211.9 L 270.3,212.4 L 269.5,214.6 L 269.3,217.9 L 268.6,220.6 L 267.9,221.7 L 267.7,223.6 L 267.7,223.8 L 267.8,224.2 L 267.8,225.1 L 267.5,226.0 L 267.0,226.8 L 266.1,227.9 L 265.6,228.6 L 264.7,229.9 L 263.8,231.0 L 262.3,232.2 L 261.4,232.6 L 260.6,233.0 L 258.9,234.0 L 254.7,237.0 L 253.4,238.3 L 252.9,238.5 L 252.4,238.4 L 251.8,238.5 L 251.0,239.1 L 250.3,240.9 L 249.3,241.6 L 248.5,242.1 L 248.0,242.6 L 246.8,243.3 L 245.1,244.5 L 244.7,244.7 L 242.0,247.0 L 241.6,247.1 L 240.9,247.6 L 240.5,248.1 L 239.8,248.8 L 239.4,248.8 L 238.4,249.3 L 237.5,250.1 L 236.6,251.3 L 236.1,252.3 L 234.9,254.2 L 233.8,255.5 L 233.1,256.0 L 231.2,256.9 L 229.7,257.8 L 228.7,258.1 L 227.0,258.1 L 226.1,258.1 L 225.3,258.1 L 224.1,257.9 L 223.8,257.6 L 223.2,257.6 L 221.9,257.1 L 221.3,257.2 L 220.0,257.0 L 216.9,257.6 L 217.2,258.3 L 216.7,258.7 L 216.5,258.4 L 216.3,258.6 L 215.8,258.4 L 214.4,258.6 L 213.9,258.8 L 213.3,259.8 L 212.5,260.3 L 212.1,260.7 L 211.8,261.3 L 210.8,262.8 L 210.2,262.9 L 210.0,263.3 L 210.2,263.5 L 209.3,264.5 L 208.6,264.5 L 207.7,263.8 L 207.4,263.2 L 206.8,262.4 L 206.2,261.7 L 205.2,260.9 L 200.3,258.4 L 199.2,257.7 L 199.0,257.6 L 198.4,257.4 L 197.0,257.2 L 196.3,257.3 L 195.5,257.2 L 194.5,257.1 L 193.2,256.5 L 189.2,254.5 L 187.8,253.8 L 186.7,253.6 L 185.8,253.3 L 180.4,252.6 L 179.3,252.6 L 177.8,252.1 L 176.4,251.9 L 176.0,251.7 L 175.0,252.0 L 172.0,251.3 L 168.4,250.7 L 167.3,250.8 L 165.9,250.5 L 164.8,250.0 L 163.9,249.7 L 161.3,249.4 L 159.0,249.2 L 158.1,249.3 L 156.8,249.9 L 155.8,250.1 L 154.1,250.3 L 151.6,250.4 L 150.8,250.1 L 150.2,249.8 L 149.4,249.4 L 147.6,249.4 L 146.6,249.8 L 145.2,250.0 L 143.6,250.5 L 142.2,250.4 L 140.9,250.7 L 139.9,250.7 L 138.8,251.0 L 135.1,251.6 L 133.1,251.6 L 132.7,251.7 L 132.3,251.7 L 132.2,251.7 L 131.1,251.7 L 129.1,252.1 L 128.1,252.2 L 127.0,252.5 L 126.1,252.5 L 125.4,252.5 L 124.1,252.4 L 121.8,252.1 L 119.6,252.4 L 118.6,252.6 L 117.9,252.3 L 117.4,252.5 L 117.0,252.5 L 116.3,252.3 L 113.0,251.7 L 111.5,251.1 L 110.5,251.0 L 110.0,250.7 L 106.5,250.4 L 105.3,250.5 L 104.7,250.6 L 101.7,250.3 L 99.8,249.9 L 95.7,248.8 L 94.9,248.7 L 94.1,248.7 L 92.0,248.6 L 90.9,248.7 L 86.8,249.6 L 86.2,249.9 L 84.9,250.3 L 84.0,250.8 L 83.7,251.3 L 82.3,252.3 L 80.4,253.9 L 80.2,254.0 L 79.7,254.6 L 78.4,255.5 L 77.9,256.1 L 76.8,256.9 L 75.6,257.7 L 73.5,259.0 L 72.7,259.7 L 71.9,260.1 L 71.0,260.2 L 69.6,260.7 L 69.0,260.7 L 67.0,260.6 L 66.5,260.7 L 66.0,260.7 L 65.4,261.1 L 64.9,261.7 L 64.6,261.9 L 63.3,261.9 L 62.7,262.0 L 61.5,261.9 L 60.0,262.2 L 59.1,262.5 L 57.6,263.1 L 56.1,264.0 L 54.9,264.9" fill="none" stroke="black" stroke-width="2"/>
</svg>