<?xml version="1.0" encoding="UTF-8"?>
<svg width="400" height="400" viewBox="0 0 400 400" xmlns="http://www.w3.org/2000/svg">
  <rect width="400" height="400" fill="white"/>
  <path d="M 232.3,311.0 L 233.2,311.9 L 234.6,312.4 L 237.1,312.1 L 238.1,311.5 L 238.2,311.0 L 237.3,308.7 L 236.9,308.4 L 236.0,307.4 L 234.9,306.5 L 234.5,305.4 L 233.2,304.4 L 233.2,302.3 L 232.9,301.3 L 233.1,300.7 L 233.9,300.4 L 234.5,296.6 L 233.6,293.1 L 233.5,291.9 L 232.6,290.7 L 231.0,290.2 L 230.7,290.1 L 230.1,290.3 L 229.8,291.4 L 228.8,291.4 L 228.2,291.7 L 227.7,292.4 L 226.5,292.5 L 226.1,291.9 L 226.1,290.7 L 225.8,289.9 L 225.0,290.0 L 224.8,291.2 L 225.0,291.8 L 225.1,293.8 L 224.7,294.8 L 223.9,294.8 L 221.1,293.5 L 219.4,292.1 L 219.1,292.0 L 217.4,291.7 L 216.2,291.1 L 215.5,289.9 L 213.2,286.9 L 211.8,285.4 L 209.0,283.3 L 205.8,282.7 L 204.4,281.2 L 203.4,280.1 L 202.8,279.1 L 195.6,278.1 L 195.0,278.6 L 192.1,278.0 L 190.6,277.2 L 190.1,276.5 L 189.4,276.4 L 189.0,275.7 L 189.1,275.3 L 191.3,275.6 L 191.7,275.2 L 191.1,273.9 L 189.7,272.9 L 187.3,272.0 L 186.1,270.9 L 183.8,270.4 L 183.6,270.9 L 184.8,271.5 L 184.9,271.9 L 182.3,271.8 L 181.8,273.0 L 181.9,273.6 L 183.1,275.8 L 185.9,276.4 L 186.0,276.9 L 185.1,277.8 L 183.0,277.6 L 182.1,277.9 L 180.6,277.6 L 176.0,277.5 L 175.1,278.1 L 174.8,278.5 L 174.5,278.8 L 172.8,278.7 L 172.1,278.2 L 171.0,277.5 L 168.7,275.3 L 167.0,273.3 L 166.9,272.0 L 166.5,271.6 L 166.7,270.1 L 164.2,268.9 L 164.1,268.1 L 163.7,267.8 L 162.6,267.9 L 160.9,267.5 L 159.9,267.1 L 157.4,266.7 L 155.8,266.7 L 155.4,267.2 L 155.8,267.8 L 157.0,267.9 L 157.5,268.2 L 157.1,268.1 L 156.2,268.1 L 155.9,268.3 L 152.4,268.1 L 150.3,268.7 L 149.5,269.0 L 146.7,269.4 L 145.8,269.9 L 142.4,268.2 L 141.9,267.7 L 140.7,267.4 L 140.5,266.9 L 141.5,267.2 L 142.8,265.5 L 142.8,264.7 L 142.6,264.4 L 140.3,263.9 L 140.1,263.5 L 139.4,263.3 L 137.7,263.4 L 137.5,263.1 L 135.5,262.7 L 131.5,262.7 L 129.1,263.2 L 128.3,263.4 L 128.0,264.5 L 128.2,265.1 L 134.7,265.3 L 135.4,265.7 L 135.0,266.1 L 133.1,266.1 L 131.5,266.4 L 129.3,266.2 L 128.9,265.7 L 127.9,265.7 L 127.2,265.2 L 126.5,265.2 L 126.1,264.8 L 124.8,264.6 L 124.0,263.8 L 125.5,262.6 L 125.9,262.0 L 125.4,261.2 L 125.5,260.3 L 126.6,259.8 L 128.7,259.9 L 130.4,259.8 L 135.4,260.0 L 136.6,259.9 L 136.9,259.7 L 136.2,259.1 L 134.8,258.8 L 133.0,257.4 L 133.3,255.8 L 136.0,255.7 L 137.8,255.4 L 138.9,255.0 L 139.0,254.5 L 139.8,254.1 L 140.3,254.2 L 140.5,253.9 L 141.8,254.1 L 146.3,253.7 L 147.2,253.0 L 148.4,253.1 L 149.2,252.9 L 153.6,253.4 L 154.4,253.1 L 155.9,253.2 L 157.4,252.8 L 158.3,251.9 L 159.1,251.6 L 159.5,250.5 L 159.8,250.4 L 161.5,250.6 L 164.1,250.5 L 165.9,250.4 L 166.7,250.1 L 168.1,250.1 L 170.9,248.7 L 171.7,248.7 L 172.3,248.3 L 173.6,247.8 L 174.0,247.6 L 175.1,245.7 L 176.1,244.9 L 175.8,244.1 L 176.3,243.1 L 177.1,241.0 L 177.0,240.2 L 177.8,239.6 L 178.7,235.6 L 179.8,232.5 L 180.3,229.9 L 181.9,223.7 L 183.2,221.5 L 183.8,221.2 L 184.2,221.4 L 184.4,222.5 L 185.0,223.7 L 186.7,225.2 L 187.9,225.3 L 189.0,224.7 L 190.1,224.3 L 191.8,223.0 L 192.2,222.0 L 192.1,220.8 L 191.4,219.8 L 188.4,219.4 L 186.1,219.5 L 184.9,220.1 L 184.6,219.9 L 184.8,219.0 L 185.6,218.1 L 189.3,217.1 L 190.9,215.9 L 191.9,214.4 L 192.2,213.1 L 191.9,212.5 L 192.8,212.3 L 197.5,213.3 L 198.5,215.2 L 199.1,215.9 L 200.4,217.0 L 201.5,217.5 L 201.5,218.0 L 198.5,217.7 L 197.7,218.1 L 197.4,219.2 L 195.5,219.9 L 194.5,220.6 L 193.4,222.0 L 193.0,223.3 L 193.8,225.8 L 194.5,227.4 L 194.0,228.8 L 193.1,229.9 L 192.3,230.0 L 191.0,230.9 L 185.8,230.8 L 185.3,230.8 L 185.2,230.9 L 186.1,232.4 L 185.5,233.1 L 184.0,233.1 L 183.5,233.4 L 183.1,235.0 L 182.3,236.1 L 181.9,237.9 L 182.2,239.3 L 183.4,240.5 L 185.9,243.9 L 185.3,245.6 L 185.3,246.9 L 184.9,247.3 L 184.3,248.3 L 184.5,249.5 L 185.8,250.3 L 186.8,250.5 L 188.9,252.0 L 189.6,252.4 L 190.1,253.4 L 191.6,254.7 L 192.5,254.8 L 193.3,254.5 L 193.9,255.2 L 194.7,257.0 L 195.7,257.7 L 197.0,258.1 L 197.5,258.3 L 198.2,258.6 L 200.5,259.4 L 201.2,259.9 L 199.4,259.5 L 197.0,258.8 L 196.1,258.9 L 193.8,258.2 L 193.7,258.7 L 195.1,258.8 L 196.5,259.3 L 197.9,259.7 L 198.8,260.9 L 199.6,261.1 L 200.6,260.9 L 201.9,262.0 L 202.9,262.3 L 204.6,263.5 L 205.7,263.8 L 205.9,263.3 L 204.6,261.1 L 205.3,260.6 L 206.2,260.5 L 207.9,258.1 L 208.1,257.5 L 208.7,258.1 L 209.1,259.0 L 209.1,260.5 L 210.3,262.9 L 209.7,263.1 L 208.4,263.2 L 207.8,263.5 L 207.9,265.5 L 208.2,266.0 L 208.3,266.8 L 208.6,267.7 L 210.0,268.0 L 210.8,267.5 L 212.5,267.8 L 214.9,268.5 L 216.1,269.7 L 216.6,269.7 L 216.8,268.3 L 217.8,266.6 L 217.6,264.8 L 218.5,265.0 L 218.0,266.0 L 218.2,267.0 L 219.0,267.8 L 221.7,269.0 L 222.7,268.8 L 225.5,269.0 L 226.7,268.5 L 224.8,267.3 L 223.9,266.9 L 224.4,266.1 L 227.6,266.0 L 228.3,266.4 L 230.4,266.3 L 231.7,264.8 L 232.2,264.2 L 231.8,263.2 L 230.7,261.8 L 229.0,261.5 L 227.6,262.1 L 227.4,261.4 L 225.3,260.9 L 224.2,259.5 L 224.5,258.3 L 225.1,257.6 L 225.2,255.6 L 225.1,255.4 L 224.9,254.4 L 224.8,251.5 L 225.4,251.1 L 226.1,250.9 L 226.3,248.9 L 225.8,248.2 L 225.2,246.3 L 224.3,245.7 L 223.5,245.4 L 223.4,244.6 L 221.9,242.9 L 221.0,242.3 L 219.2,240.1 L 218.1,237.4 L 217.7,236.2 L 216.0,235.9 L 214.9,235.3 L 214.9,235.3 L 211.5,233.1 L 210.9,232.5 L 208.6,226.2 L 208.3,225.0 L 207.1,223.4 L 206.1,221.4 L 205.6,219.8 L 205.2,219.4 L 205.0,219.5 L 204.1,219.7 L 204.0,218.9 L 204.1,217.9 L 204.2,215.4 L 206.1,212.0 L 206.7,211.2 L 207.8,210.6 L 207.7,210.1 L 207.2,208.9 L 208.0,208.4 L 209.0,209.3 L 209.7,210.1 L 210.5,210.1 L 210.6,208.9 L 211.6,208.5 L 212.0,207.6 L 212.7,207.7 L 213.3,208.2 L 214.6,208.8 L 215.5,208.8 L 216.0,208.3 L 216.3,207.1 L 217.7,206.6 L 218.6,201.5 L 219.9,200.3 L 220.0,199.4 L 219.3,198.9 L 217.9,199.1 L 217.0,198.1 L 216.2,196.6 L 217.2,195.2 L 217.9,194.7 L 220.1,195.1 L 221.6,193.8 L 222.1,192.5 L 220.4,190.1 L 218.4,189.4 L 218.2,189.0 L 218.8,188.4 L 220.6,188.6 L 221.6,187.8 L 221.9,184.1 L 221.7,183.2 L 221.7,182.5 L 219.5,181.3 L 219.2,181.0 L 219.2,179.5 L 219.0,178.7 L 219.1,176.8 L 218.4,176.2 L 215.2,176.5 L 213.6,175.8 L 212.2,175.7 L 211.6,175.8 L 209.0,175.5 L 207.1,175.5 L 203.0,174.8 L 200.7,175.9 L 198.0,175.8 L 197.0,174.8 L 195.2,171.7 L 194.1,171.1 L 193.1,170.8 L 192.6,169.8 L 192.1,168.1 L 191.4,167.5 L 188.9,166.9 L 189.1,166.2 L 190.1,165.5 L 193.0,164.6 L 193.9,164.2 L 194.4,162.4 L 193.7,162.0 L 193.0,160.0 L 192.8,158.6 L 192.3,157.9 L 191.8,155.6 L 191.2,155.0 L 190.1,154.5 L 188.7,153.6 L 187.4,153.3 L 186.7,152.8 L 183.7,151.9 L 182.6,150.3 L 183.0,149.8 L 182.7,149.0 L 180.9,146.5 L 180.7,145.9 L 178.8,143.6 L 177.1,142.5 L 176.4,142.2 L 175.9,141.5 L 174.4,141.2 L 170.8,142.7 L 168.0,144.1 L 167.2,144.2 L 167.3,143.5 L 166.0,143.1 L 165.1,143.8 L 165.3,144.3 L 164.9,145.1 L 165.3,146.3 L 165.3,147.1 L 164.8,147.5 L 163.0,147.4 L 162.9,146.5 L 160.6,146.0 L 159.9,145.5 L 158.3,145.5 L 158.5,145.3 L 159.2,143.9 L 159.0,143.6 L 158.2,143.2 L 157.9,142.8 L 154.4,142.9 L 153.4,143.1 L 152.0,142.4 L 151.0,142.5 L 149.2,143.3 L 147.9,143.5 L 146.4,143.4 L 146.3,144.1 L 145.6,145.1 L 145.0,147.8 L 144.7,148.2 L 143.4,148.2 L 142.7,148.9 L 141.2,149.6 L 138.8,150.0 L 135.6,149.9 L 135.3,149.3 L 135.6,148.8 L 136.0,148.5 L 135.9,148.1 L 133.9,147.8 L 132.8,147.9 L 132.4,147.5 L 131.2,147.1 L 130.7,145.7 L 130.2,145.5 L 128.9,146.2 L 127.0,146.0 L 126.2,146.5 L 126.2,146.8 L 126.9,147.4 L 126.8,148.2 L 124.3,149.8 L 124.7,150.6 L 125.9,150.7 L 127.1,150.7 L 128.5,152.2 L 130.1,153.0 L 130.1,153.5 L 126.4,152.6 L 125.2,153.0 L 125.1,153.8 L 123.7,153.7 L 122.9,154.1 L 122.7,154.6 L 123.5,155.0 L 123.1,155.8 L 123.7,157.1 L 124.5,158.0 L 126.0,158.0 L 129.1,158.3 L 130.2,159.0 L 131.7,159.1 L 133.6,157.9 L 133.8,157.1 L 133.2,156.7 L 133.2,155.9 L 132.3,155.7 L 132.7,154.7 L 134.3,154.5 L 136.7,155.1 L 136.3,155.7 L 137.8,156.5 L 137.9,157.0 L 136.3,156.8 L 135.2,157.4 L 134.9,159.1 L 135.9,159.8 L 138.2,160.0 L 142.0,159.4 L 142.3,159.6 L 140.5,161.2 L 138.6,161.9 L 136.5,162.2 L 135.7,163.4 L 134.9,163.5 L 133.7,162.3 L 132.5,162.1 L 130.9,162.4 L 129.0,164.2 L 127.6,164.6 L 124.3,164.1 L 121.7,164.0 L 121.0,164.4 L 120.7,165.0 L 122.3,165.8 L 125.2,166.7 L 127.2,167.6 L 128.4,167.4 L 129.5,167.1 L 130.6,167.1 L 130.6,167.6 L 128.3,168.0 L 127.4,168.4 L 127.8,168.9 L 129.8,169.5 L 130.1,169.9 L 129.5,170.6 L 129.9,171.2 L 131.8,172.0 L 131.8,172.6 L 130.8,174.1 L 129.1,174.6 L 128.7,175.0 L 129.2,175.7 L 133.9,177.7 L 134.6,178.2 L 134.9,179.3 L 138.4,181.7 L 141.9,183.8 L 141.9,184.2 L 139.9,184.0 L 137.9,183.2 L 136.7,182.4 L 133.8,182.2 L 133.2,181.3 L 133.1,180.6 L 130.9,179.0 L 130.8,178.4 L 131.3,177.7 L 131.1,177.3 L 128.9,176.7 L 127.2,175.5 L 126.6,174.8 L 127.0,174.1 L 126.6,173.3 L 125.7,173.0 L 122.9,173.9 L 120.9,174.2 L 119.6,174.8 L 119.4,175.6 L 118.4,177.5 L 118.3,178.7 L 118.8,179.2 L 118.6,180.2 L 119.9,180.9 L 119.5,181.7 L 120.4,181.8 L 121.2,181.5 L 121.6,182.4 L 121.1,184.3 L 123.0,186.2 L 122.6,189.9 L 122.2,190.6 L 121.3,190.7 L 121.4,191.5 L 121.4,192.7 L 119.9,194.2 L 119.9,196.3 L 118.3,198.9 L 114.8,201.0 L 114.1,202.0 L 114.2,204.1 L 114.2,204.4 L 113.4,206.1 L 112.7,207.5 L 112.4,208.8 L 113.0,210.6 L 113.3,211.6 L 112.9,212.3 L 112.7,214.1 L 113.4,216.0 L 115.9,220.0 L 116.0,220.0 L 117.1,220.5 L 116.9,221.5 L 115.7,222.5 L 114.9,226.3 L 115.1,227.2 L 114.8,228.8 L 113.7,229.6 L 111.7,230.0 L 111.2,230.1 L 110.8,230.2 L 110.7,230.6 L 110.7,231.1 L 109.1,231.8 L 108.8,233.3 L 107.2,233.8 L 106.3,233.9 L 105.5,234.5 L 105.3,235.2 L 105.0,235.9 L 104.8,236.9 L 105.0,237.5 L 104.5,237.8 L 104.0,239.4 L 105.5,239.8 L 106.5,241.2 L 106.4,242.3 L 104.8,243.6 L 105.5,244.1 L 106.0,244.7 L 106.9,245.4 L 107.5,246.1 L 106.8,246.8 L 105.5,246.6 L 104.8,246.8 L 103.9,247.7 L 103.0,247.8 L 102.7,248.8 L 101.3,250.2 L 100.7,252.3 L 101.4,253.7 L 102.8,255.0 L 103.0,255.7 L 103.3,256.1 L 104.8,256.5 L 105.1,257.3 L 105.9,258.1 L 108.5,259.2 L 108.7,259.3 L 109.6,260.0 L 109.7,261.3 L 110.0,261.9 L 111.0,262.4 L 111.4,262.9 L 112.1,263.0 L 112.5,263.5 L 110.9,263.7 L 110.4,264.2 L 108.7,264.6 L 108.0,265.0 L 107.7,265.2 L 106.5,265.1 L 103.8,263.7 L 103.0,263.5 L 102.9,263.8 L 101.4,264.9 L 99.7,264.8 L 98.9,265.0 L 97.4,265.1 L 96.6,265.3 L 95.8,267.9 L 95.5,268.3 L 95.2,269.3 L 94.3,270.0 L 94.0,270.9 L 94.1,271.0 L 94.2,271.7 L 94.7,272.9 L 94.5,275.1 L 93.7,276.6 L 93.1,276.7 L 91.7,272.8 L 91.1,272.1 L 90.9,271.7 L 90.5,270.7 L 90.0,269.7 L 87.1,264.1 L 86.8,263.3 L 85.9,262.3 L 84.8,261.8 L 84.1,260.3 L 81.1,257.0 L 81.0,255.1 L 79.3,252.6 L 76.3,250.4 L 76.4,249.3 L 74.7,248.1 L 74.0,246.0 L 74.4,241.3 L 74.2,240.6 L 73.5,240.4 L 73.0,239.6 L 70.7,237.6 L 67.1,237.2 L 66.4,238.2 L 65.5,238.3 L 65.3,238.7 L 65.8,240.4 L 65.6,243.3 L 66.5,244.9 L 65.1,244.8 L 64.5,243.3 L 64.4,241.7 L 64.1,240.7 L 64.5,240.3 L 64.0,239.9 L 63.3,239.8 L 63.0,239.5 L 61.9,239.2 L 60.7,239.7 L 59.7,239.0 L 59.2,238.9 L 58.4,239.5 L 58.2,240.2 L 58.5,240.8 L 58.3,241.8 L 57.7,243.7 L 55.2,243.5 L 54.7,243.6 L 54.9,244.7 L 52.3,247.7 L 51.5,247.7 L 50.6,246.9 L 51.2,244.0 L 52.2,243.5 L 53.0,243.5 L 53.3,241.3 L 52.9,240.3 L 53.2,239.3 L 53.7,239.0 L 54.2,235.1 L 54.2,232.9 L 54.7,232.2 L 55.8,232.1 L 57.1,230.8 L 57.2,229.6 L 57.6,228.7 L 60.6,225.0 L 61.1,223.7 L 61.5,222.4 L 63.6,220.5 L 63.5,219.3 L 65.1,217.9 L 65.9,217.6 L 67.1,215.1 L 67.7,215.1 L 68.9,214.7 L 70.5,215.1 L 70.9,215.1 L 71.4,214.6 L 71.9,214.7 L 71.8,216.0 L 71.4,216.4 L 70.0,216.8 L 68.7,218.3 L 68.1,219.4 L 68.8,219.5 L 69.2,220.2 L 69.8,220.9 L 70.8,220.9 L 72.1,220.2 L 72.5,219.3 L 73.2,218.4 L 73.4,217.3 L 73.5,218.1 L 73.3,218.7 L 74.4,218.7 L 75.2,218.6 L 76.6,218.6 L 77.0,216.6 L 76.8,216.0 L 77.3,215.4 L 76.9,214.2 L 76.5,213.9 L 76.4,213.9 L 76.4,209.7 L 75.8,208.2 L 76.0,207.8 L 76.7,207.2 L 77.8,207.0 L 78.5,206.1 L 78.4,205.3 L 77.8,204.7 L 78.1,204.2 L 78.8,203.6 L 79.7,201.4 L 80.2,200.7 L 81.0,200.2 L 82.7,200.0 L 83.8,199.4 L 84.4,197.8 L 84.4,196.2 L 83.9,193.9 L 84.5,191.3 L 86.2,189.8 L 86.2,188.6 L 85.7,187.9 L 86.2,184.4 L 85.5,183.1 L 86.0,181.5 L 86.6,180.3 L 88.9,176.7 L 89.3,172.4 L 88.9,171.5 L 88.1,170.8 L 88.2,170.1 L 86.2,168.6 L 83.9,168.3 L 83.4,166.8 L 82.1,166.7 L 81.7,166.8 L 81.3,165.7 L 81.5,163.9 L 82.3,163.1 L 83.2,162.5 L 83.0,161.7 L 82.3,161.3 L 80.5,161.6 L 80.3,159.8 L 80.4,159.2 L 81.0,159.0 L 82.0,159.1 L 82.8,158.9 L 82.9,158.2 L 82.0,157.4 L 82.3,155.5 L 81.9,154.8 L 80.7,154.4 L 80.5,154.1 L 78.7,153.8 L 77.5,154.2 L 76.6,154.3 L 76.0,153.6 L 76.2,150.7 L 76.7,147.5 L 77.6,146.8 L 78.1,145.2 L 78.7,144.6 L 78.7,143.8 L 77.4,143.1 L 77.1,142.3 L 78.0,141.7 L 79.1,141.3 L 79.6,140.7 L 80.6,140.6 L 82.0,137.7 L 82.9,133.6 L 83.3,130.9 L 83.3,130.4 L 82.5,129.4 L 81.6,129.2 L 82.2,128.9 L 114.2,113.7 L 269.4,40.0 L 270.7,40.8 L 272.9,43.5 L 273.0,44.3 L 273.3,44.9 L 273.9,45.1 L 274.8,45.8 L 276.2,46.7 L 278.7,46.8 L 279.0,47.0 L 279.7,47.7 L 280.0,48.8 L 280.7,49.7 L 282.0,49.6 L 284.2,50.0 L 285.1,50.1 L 286.0,50.6 L 287.9,52.1 L 288.4,53.7 L 288.9,54.2 L 289.5,54.6 L 291.6,55.3 L 293.4,55.7 L 293.4,56.1 L 292.7,56.5 L 292.4,57.2 L 292.6,58.4 L 293.5,60.8 L 292.5,62.0 L 291.1,62.2 L 290.1,63.1 L 290.6,64.0 L 290.8,65.2 L 290.0,66.1 L 292.1,67.5 L 291.2,68.5 L 291.7,68.7 L 292.4,69.8 L 293.7,69.7 L 295.8,68.4 L 296.6,69.6 L 296.2,72.8 L 296.6,73.6 L 297.1,73.9 L 297.6,75.2 L 298.3,76.2 L 298.9,76.2 L 300.2,75.7 L 300.8,74.4 L 302.6,74.9 L 303.3,74.6 L 303.8,73.9 L 304.3,74.4 L 305.2,76.6 L 305.8,76.5 L 306.2,75.5 L 306.7,75.3 L 307.1,75.5 L 307.4,76.1 L 308.4,76.3 L 310.3,75.2 L 313.7,74.5 L 314.9,74.0 L 316.2,72.7 L 316.9,72.7 L 318.8,74.9 L 319.9,76.7 L 320.7,77.4 L 322.2,77.9 L 324.7,78.1 L 326.5,77.6 L 328.3,77.9 L 328.3,78.3 L 328.2,79.3 L 327.1,80.2 L 327.5,80.8 L 327.4,81.5 L 327.6,82.0 L 328.4,82.0 L 329.7,80.6 L 330.6,80.0 L 331.6,80.0 L 332.1,79.7 L 332.6,77.9 L 333.1,78.0 L 333.4,79.2 L 334.0,79.0 L 335.2,77.7 L 337.0,78.4 L 337.8,78.3 L 337.9,78.9 L 338.0,80.7 L 339.2,82.6 L 340.1,82.6 L 340.1,81.1 L 339.6,79.8 L 339.8,79.6 L 340.4,80.8 L 340.9,80.7 L 341.2,79.4 L 341.0,78.8 L 341.6,78.5 L 341.9,79.5 L 343.2,81.1 L 345.1,81.7 L 345.6,82.3 L 344.7,84.4 L 345.1,85.5 L 344.7,86.0 L 344.9,86.7 L 345.6,86.5 L 346.7,87.2 L 349.1,90.1 L 349.4,90.9 L 347.9,93.6 L 347.1,94.2 L 345.6,93.4 L 345.5,94.1 L 346.6,95.4 L 346.0,96.7 L 346.8,97.3 L 347.4,98.0 L 347.2,99.2 L 345.2,102.6 L 342.7,105.0 L 342.4,106.5 L 342.0,106.4 L 339.7,105.3 L 336.7,104.8 L 333.4,104.1 L 330.6,102.3 L 328.5,101.6 L 326.6,100.4 L 325.0,98.8 L 323.0,99.0 L 321.0,98.6 L 319.8,97.7 L 317.5,97.1 L 314.8,96.0 L 309.3,92.5 L 308.2,92.1 L 307.5,91.8 L 306.1,92.2 L 302.1,91.6 L 300.9,90.9 L 299.6,90.7 L 297.5,89.1 L 296.8,88.9 L 296.3,88.5 L 293.3,87.7 L 292.6,88.1 L 290.8,88.3 L 290.3,88.2 L 290.1,87.9 L 287.3,87.7 L 286.7,87.0 L 286.2,87.2 L 285.3,89.0 L 285.9,89.5 L 286.2,90.2 L 285.3,91.4 L 283.8,91.7 L 283.5,92.2 L 284.1,93.3 L 283.8,95.1 L 282.9,94.3 L 282.4,94.6 L 282.4,95.7 L 280.9,96.1 L 279.9,96.0 L 278.6,95.9 L 278.3,96.3 L 278.6,96.5 L 279.0,97.0 L 277.4,97.9 L 277.1,98.4 L 277.6,98.9 L 279.7,99.1 L 280.8,99.2 L 280.8,99.6 L 281.9,101.0 L 281.5,102.0 L 281.7,103.4 L 283.2,104.9 L 282.4,105.2 L 281.9,106.6 L 281.6,107.1 L 283.4,107.4 L 283.3,108.1 L 284.0,108.6 L 285.4,108.9 L 286.9,109.4 L 286.9,109.9 L 285.4,109.6 L 284.9,109.9 L 285.2,110.4 L 284.8,110.9 L 284.6,111.7 L 285.2,112.8 L 286.9,113.7 L 287.8,114.2 L 289.0,114.4 L 289.7,113.5 L 289.3,112.3 L 289.6,112.1 L 290.9,112.6 L 292.5,113.5 L 292.7,114.4 L 295.3,117.0 L 298.0,117.4 L 298.1,118.4 L 298.6,120.2 L 300.5,123.0 L 302.0,123.4 L 303.4,124.2 L 303.4,125.4 L 303.8,126.0 L 305.2,125.5 L 306.9,125.3 L 309.3,124.0 L 309.8,124.0 L 310.1,124.2 L 310.5,126.0 L 309.7,126.8 L 307.8,127.3 L 305.9,128.9 L 305.6,130.0 L 305.6,132.3 L 305.1,132.8 L 302.9,131.9 L 302.5,131.6 L 302.9,130.5 L 301.9,129.8 L 300.6,129.6 L 294.1,129.0 L 293.4,129.7 L 293.5,130.4 L 296.0,131.4 L 296.8,131.9 L 296.2,132.3 L 296.6,132.7 L 296.6,133.2 L 296.8,133.3 L 297.1,133.6 L 297.8,133.4 L 299.1,133.2 L 299.3,133.5 L 299.4,134.0 L 300.1,134.6 L 304.3,135.3 L 306.0,134.4 L 307.2,134.4 L 308.6,135.9 L 311.3,137.5 L 312.7,139.2 L 314.0,140.6 L 314.1,141.4 L 313.4,142.2 L 312.0,142.4 L 310.8,141.4 L 309.7,140.9 L 307.9,140.2 L 302.6,139.4 L 301.9,139.8 L 302.3,140.2 L 304.2,141.2 L 306.8,141.4 L 306.7,141.9 L 306.1,142.2 L 304.8,142.2 L 301.1,141.7 L 300.2,142.4 L 301.5,144.3 L 303.4,145.5 L 303.6,146.4 L 301.3,147.2 L 301.1,147.8 L 302.4,149.6 L 302.1,149.9 L 299.9,149.6 L 299.6,149.8 L 300.7,151.7 L 300.4,152.2 L 297.4,153.4 L 295.9,153.3 L 293.8,154.0 L 292.9,154.1 L 292.2,154.6 L 291.8,155.0 L 293.2,156.3 L 293.6,157.3 L 292.3,158.1 L 290.9,160.0 L 291.1,160.6 L 294.3,161.0 L 294.3,161.6 L 292.9,163.1 L 293.1,163.9 L 294.3,166.2 L 294.1,167.6 L 292.8,168.4 L 291.2,168.6 L 288.8,167.8 L 286.2,167.8 L 285.7,167.5 L 284.5,167.3 L 284.1,167.9 L 283.0,168.6 L 280.8,168.4 L 278.4,168.8 L 274.8,169.1 L 273.2,168.9 L 271.0,168.7 L 269.9,169.6 L 269.4,170.9 L 267.2,173.3 L 266.3,176.2 L 264.2,177.4 L 263.6,178.4 L 263.4,179.6 L 262.1,180.6 L 262.3,182.4 L 262.7,184.4 L 262.5,185.7 L 263.0,186.3 L 266.5,188.3 L 266.5,188.8 L 265.9,189.6 L 266.1,191.5 L 267.1,195.5 L 268.5,196.6 L 270.6,196.8 L 271.8,197.0 L 272.7,196.3 L 274.5,194.1 L 275.6,193.6 L 277.7,193.9 L 278.7,195.1 L 279.0,197.2 L 279.1,200.3 L 278.7,202.5 L 277.7,204.7 L 276.8,206.2 L 276.7,207.1 L 276.6,208.0 L 276.2,208.6 L 274.6,209.7 L 274.1,210.4 L 274.2,211.4 L 273.9,211.6 L 273.0,211.6 L 272.5,211.8 L 272.2,212.7 L 272.7,213.3 L 271.4,214.1 L 270.3,214.8 L 269.8,217.4 L 270.2,217.9 L 270.6,219.5 L 271.1,220.9 L 273.9,221.3 L 274.5,222.5 L 274.2,224.1 L 274.4,224.9 L 274.2,226.0 L 273.4,226.8 L 273.0,228.6 L 273.2,229.1 L 273.1,229.9 L 271.5,230.7 L 270.2,230.6 L 268.9,230.3 L 267.8,230.8 L 267.5,231.2 L 266.9,231.9 L 265.0,231.7 L 264.5,232.1 L 262.5,232.7 L 262.2,233.5 L 261.1,234.1 L 260.5,233.5 L 257.6,234.6 L 257.3,235.6 L 257.9,236.1 L 261.1,236.7 L 262.6,238.8 L 263.2,239.9 L 264.1,239.8 L 265.3,237.8 L 266.3,237.1 L 266.9,237.4 L 267.8,237.9 L 268.5,238.4 L 271.1,238.9 L 272.1,239.8 L 273.5,240.9 L 274.3,241.6 L 275.0,241.9 L 276.3,241.0 L 278.0,241.3 L 278.4,242.1 L 279.3,242.8 L 280.7,245.3 L 280.7,245.4 L 281.1,246.6 L 280.9,248.2 L 282.1,249.2 L 282.6,250.7 L 282.5,251.8 L 282.7,253.1 L 283.4,254.8 L 282.9,255.8 L 282.4,256.2 L 282.7,256.7 L 282.9,257.2 L 282.3,258.5 L 281.1,259.2 L 277.9,259.9 L 277.9,260.1 L 278.7,260.6 L 281.1,261.7 L 281.6,262.0 L 281.5,263.3 L 281.9,264.3 L 282.4,264.7 L 282.1,266.4 L 282.9,267.3 L 282.3,269.5 L 281.7,270.5 L 281.1,271.1 L 279.6,271.4 L 278.8,271.0 L 277.6,271.2 L 277.2,271.7 L 275.5,272.4 L 275.5,273.2 L 275.2,273.9 L 274.5,274.3 L 273.5,275.3 L 272.9,275.6 L 272.1,275.1 L 270.7,276.2 L 270.8,277.3 L 270.6,277.6 L 270.3,280.5 L 271.1,281.4 L 272.3,282.0 L 275.1,282.2 L 274.9,281.7 L 273.8,281.0 L 274.2,280.0 L 272.9,279.0 L 273.2,278.4 L 275.3,278.8 L 275.3,279.8 L 276.1,279.9 L 276.1,280.8 L 277.2,281.0 L 277.9,282.2 L 278.2,282.4 L 279.1,283.5 L 279.0,284.9 L 277.6,286.7 L 278.2,287.5 L 278.1,288.0 L 277.9,289.5 L 276.8,290.3 L 276.3,291.1 L 274.7,292.1 L 271.0,291.7 L 268.3,294.0 L 267.1,295.2 L 266.8,295.7 L 267.1,296.5 L 268.9,297.3 L 269.1,297.9 L 267.6,299.2 L 268.1,299.4 L 269.0,299.2 L 269.9,299.8 L 270.9,300.0 L 271.5,300.9 L 271.4,301.7 L 269.0,303.0 L 268.7,303.9 L 267.7,304.6 L 267.4,305.8 L 267.7,307.0 L 267.4,307.3 L 267.2,308.7 L 267.5,309.9 L 267.4,312.7 L 267.8,313.3 L 267.6,315.4 L 268.2,316.4 L 268.0,316.8 L 268.0,317.7 L 268.8,318.8 L 268.8,320.0 L 268.2,320.2 L 269.0,322.2 L 270.2,323.0 L 271.8,323.6 L 273.3,324.7 L 273.5,325.5 L 273.4,326.4 L 270.9,327.2 L 270.0,328.1 L 269.7,328.3 L 268.5,329.2 L 268.7,329.7 L 269.3,329.7 L 269.6,328.7 L 269.9,328.6 L 270.6,329.9 L 271.2,329.7 L 271.4,329.3 L 271.7,328.6 L 272.2,328.7 L 272.3,329.9 L 272.7,329.8 L 272.8,330.9 L 272.5,332.8 L 271.6,333.5 L 272.2,334.1 L 272.4,334.6 L 273.4,335.3 L 274.4,335.6 L 275.1,336.5 L 275.0,337.9 L 276.5,338.0 L 276.7,337.9 L 277.4,339.0 L 277.3,340.0 L 276.4,340.6 L 276.1,341.1 L 276.9,342.8 L 277.0,343.1 L 277.4,343.7 L 280.6,344.4 L 281.0,345.1 L 280.9,345.8 L 280.0,345.8 L 279.4,346.1 L 279.2,347.5 L 278.4,347.5 L 278.2,347.1 L 277.6,346.7 L 276.5,347.6 L 275.8,350.3 L 276.0,351.1 L 275.5,351.7 L 275.2,353.6 L 275.6,354.5 L 275.0,355.3 L 274.7,356.7 L 275.3,357.0 L 276.0,356.6 L 276.5,356.9 L 276.3,359.1 L 276.5,359.9 L 251.2,360.0 L 250.5,359.5 L 250.9,358.4 L 252.1,357.7 L 252.2,356.9 L 251.8,355.9 L 248.1,355.2 L 248.3,353.6 L 249.5,353.7 L 251.3,352.4 L 250.9,351.0 L 249.3,347.7 L 249.6,346.2 L 249.1,345.9 L 248.5,345.6 L 248.8,345.0 L 248.4,344.7 L 247.8,344.7 L 247.2,345.2 L 245.0,342.2 L 244.5,341.9 L 244.7,341.0 L 245.0,340.8 L 244.0,340.2 L 241.5,339.8 L 240.9,339.5 L 242.9,339.8 L 243.5,339.5 L 244.4,339.5 L 244.8,339.1 L 244.0,338.0 L 244.1,336.7 L 243.1,335.9 L 241.9,335.4 L 241.7,334.0 L 240.2,331.9 L 237.0,330.9 L 235.8,331.5 L 235.0,331.6 L 234.5,331.0 L 233.6,328.0 L 232.9,327.1 L 232.3,326.9 L 232.6,326.0 L 234.2,325.2 L 237.4,324.6 L 238.6,325.0 L 239.6,325.9 L 240.4,326.9 L 241.1,327.2 L 242.0,328.0 L 243.2,328.0 L 243.4,326.6 L 242.6,325.0 L 242.3,323.8 L 241.1,320.2 L 239.5,317.0 L 238.9,316.1 L 239.3,315.7 L 239.1,315.3 L 238.1,314.9 L 238.3,314.4 L 238.8,314.2 L 238.4,313.2 L 237.1,313.1 L 235.7,313.5 L 234.9,312.8 L 234.5,312.6 L 233.8,312.5 L 232.5,312.8 L 231.8,313.3 L 231.3,313.3 L 230.9,312.5 L 231.3,311.7 L 232.3,311.0" fill="none" stroke="black" stroke-width="2"/>
</svg>