<?xml version="1.0" encoding="UTF-8"?>
<svg width="400" height="400" viewBox="0 0 400 400" xmlns="http://www.w3.org/2000/svg">
  <rect width="400" height="400" fill="white"/>
  <path d="M 207.1,234.5 L 206.7,234.3 L 206.1,234.2 L 206.0,233.9 L 206.2,233.6 L 205.3,232.4 L 205.1,231.7 L 203.4,229.6 L 203.2,229.0 L 202.4,228.4 L 202.0,227.6 L 201.3,227.2 L 200.6,226.6 L 199.9,226.5 L 198.5,226.3 L 197.3,225.9 L 195.7,225.4 L 195.1,225.3 L 193.5,225.0 L 193.2,224.7 L 193.5,224.6 L 195.6,224.8 L 195.4,224.5 L 194.4,224.0 L 193.1,223.8 L 192.5,223.5 L 192.5,223.0 L 192.3,222.7 L 191.6,222.1 L 191.1,221.8 L 190.1,221.7 L 190.0,221.3 L 189.7,221.0 L 189.4,220.9 L 189.1,220.3 L 188.6,220.5 L 188.1,220.5 L 187.8,221.3 L 187.4,221.2 L 186.8,220.7 L 187.2,220.4 L 187.0,220.3 L 186.4,220.2 L 186.2,219.8 L 185.8,219.7 L 185.4,220.1 L 185.0,219.6 L 184.4,219.8 L 184.3,220.3 L 184.3,221.0 L 184.5,221.3 L 185.7,221.6 L 185.6,222.1 L 184.7,221.8 L 183.8,222.0 L 183.9,222.4 L 182.8,222.3 L 182.8,222.8 L 183.4,223.0 L 183.7,223.3 L 184.9,223.5 L 185.4,223.7 L 185.6,224.4 L 185.4,224.9 L 185.2,224.9 L 184.9,224.7 L 184.4,223.8 L 184.2,223.7 L 183.2,223.9 L 183.1,224.3 L 182.8,224.5 L 182.2,224.5 L 182.1,224.9 L 181.9,225.1 L 181.8,226.8 L 181.6,227.3 L 181.2,227.6 L 180.4,226.9 L 179.7,225.8 L 178.8,225.1 L 178.2,225.3 L 178.1,226.3 L 177.8,226.5 L 177.2,226.2 L 176.8,225.6 L 176.3,225.5 L 176.1,225.0 L 174.4,223.3 L 174.8,223.1 L 175.2,223.1 L 175.6,222.6 L 175.8,222.5 L 176.5,222.9 L 177.1,222.8 L 177.3,221.8 L 177.1,221.2 L 177.0,220.6 L 176.7,220.2 L 175.9,219.6 L 175.4,219.5 L 175.1,219.8 L 174.7,219.6 L 174.4,219.0 L 174.3,218.4 L 173.8,218.0 L 173.5,218.3 L 173.3,218.1 L 172.7,217.4 L 172.2,217.3 L 172.2,217.1 L 172.6,217.0 L 172.7,216.4 L 172.3,215.7 L 172.5,215.5 L 173.0,215.6 L 173.4,215.4 L 173.5,215.5 L 173.9,215.5 L 174.0,215.2 L 174.0,214.8 L 173.8,214.3 L 174.1,214.1 L 174.2,213.8 L 173.9,213.5 L 173.2,213.3 L 172.6,212.3 L 172.5,211.9 L 172.3,211.7 L 171.5,211.1 L 171.2,211.2 L 170.5,210.6 L 169.8,210.4 L 169.3,210.0 L 168.5,209.3 L 168.0,209.2 L 167.6,208.8 L 166.9,208.5 L 166.0,208.0 L 166.0,207.2 L 165.7,206.9 L 165.2,206.7 L 164.8,207.0 L 163.9,206.7 L 163.7,206.2 L 163.7,206.2 L 163.2,205.4 L 163.2,205.0 L 162.7,204.5 L 162.5,203.9 L 162.3,203.8 L 162.2,203.7 L 162.0,203.7 L 161.6,203.7 L 161.1,203.5 L 161.0,203.4 L 160.6,203.0 L 160.4,203.1 L 160.2,203.2 L 159.2,202.3 L 158.5,201.9 L 157.4,201.1 L 157.0,201.0 L 156.6,201.3 L 156.2,201.1 L 155.8,200.9 L 155.1,200.7 L 154.5,200.0 L 153.9,199.8 L 153.5,200.0 L 153.0,199.7 L 152.8,199.5 L 151.5,199.3 L 149.5,198.6 L 149.2,198.8 L 148.8,198.6 L 148.5,198.6 L 148.4,199.0 L 149.0,200.4 L 147.3,199.8 L 147.0,199.4 L 145.5,198.7 L 145.0,198.3 L 144.1,197.8 L 143.1,197.6 L 142.0,196.8 L 141.5,196.7 L 141.1,196.4 L 140.9,196.4 L 140.1,196.3 L 139.8,197.0 L 139.3,196.5 L 139.0,196.4 L 138.7,196.2 L 137.9,196.0 L 137.8,195.9 L 137.7,196.2 L 137.9,196.5 L 138.0,196.9 L 137.8,196.9 L 136.5,195.9 L 135.3,195.5 L 135.0,195.2 L 133.1,194.7 L 132.7,194.5 L 132.5,194.6 L 132.4,194.9 L 132.5,195.1 L 132.6,195.3 L 130.5,195.1 L 129.4,194.6 L 128.1,194.4 L 126.2,194.3 L 126.0,194.6 L 126.1,194.9 L 126.0,195.5 L 126.3,195.8 L 126.3,196.2 L 126.2,196.8 L 126.3,197.0 L 126.2,197.2 L 126.1,197.5 L 126.5,198.1 L 128.8,198.6 L 128.7,198.8 L 129.9,199.3 L 130.3,199.6 L 130.8,199.7 L 130.7,199.5 L 130.9,199.3 L 132.8,200.5 L 133.3,200.6 L 133.7,200.9 L 134.3,201.4 L 135.7,201.6 L 135.9,201.7 L 136.8,202.1 L 137.2,202.0 L 137.4,202.2 L 138.0,202.4 L 138.3,202.8 L 138.7,202.9 L 138.9,203.1 L 139.3,203.3 L 139.8,203.8 L 140.6,203.8 L 141.1,204.2 L 142.0,204.4 L 143.5,204.4 L 143.7,204.6 L 145.7,205.2 L 145.8,205.4 L 147.3,205.9 L 147.4,206.1 L 146.9,206.5 L 146.7,206.6 L 145.9,205.9 L 145.1,205.7 L 144.8,205.5 L 144.1,205.4 L 144.0,205.7 L 145.5,207.5 L 145.6,207.7 L 146.5,208.3 L 146.5,208.6 L 146.1,208.6 L 144.8,207.8 L 143.4,207.5 L 142.0,207.0 L 141.2,206.3 L 140.0,206.0 L 139.7,205.8 L 139.5,205.9 L 139.3,206.0 L 138.7,205.6 L 138.1,204.8 L 137.5,204.7 L 136.9,205.2 L 136.1,205.1 L 135.5,204.8 L 135.2,204.5 L 134.7,204.3 L 134.6,204.0 L 134.1,203.8 L 133.4,203.6 L 132.9,203.3 L 132.7,203.3 L 132.6,203.3 L 132.7,203.5 L 132.8,203.7 L 132.6,203.7 L 132.4,203.4 L 132.3,203.4 L 131.9,203.5 L 131.8,203.7 L 133.3,204.7 L 133.9,204.8 L 134.1,205.0 L 134.3,205.4 L 133.8,205.4 L 133.5,205.3 L 133.1,205.2 L 133.2,205.6 L 133.5,205.7 L 133.8,206.0 L 134.0,206.4 L 133.4,206.7 L 131.7,206.6 L 130.7,206.1 L 130.6,205.8 L 129.4,205.2 L 129.2,205.3 L 129.0,205.6 L 128.5,205.6 L 128.3,205.4 L 127.3,205.3 L 127.1,205.1 L 126.9,205.3 L 125.9,205.3 L 125.7,205.5 L 125.4,205.5 L 124.9,205.7 L 124.4,205.6 L 124.0,206.3 L 124.3,206.9 L 123.8,207.2 L 123.4,207.2 L 123.2,207.9 L 122.8,208.0 L 122.6,207.3 L 122.1,207.4 L 122.0,207.7 L 122.2,208.7 L 122.3,208.8 L 122.5,209.3 L 122.2,209.5 L 122.2,210.6 L 119.1,209.7 L 119.1,209.1 L 118.9,207.0 L 118.6,206.5 L 118.2,206.4 L 117.9,206.1 L 117.5,206.0 L 117.7,205.7 L 117.6,205.4 L 117.8,205.2 L 117.6,204.8 L 117.7,204.3 L 117.5,204.1 L 117.2,203.8 L 117.1,203.9 L 116.8,203.6 L 116.5,203.5 L 116.1,203.0 L 115.8,202.9 L 115.6,202.7 L 115.2,202.8 L 115.1,202.5 L 115.2,202.3 L 115.3,202.2 L 115.6,202.1 L 115.5,201.7 L 115.0,201.4 L 114.6,201.5 L 112.8,201.1 L 112.9,200.8 L 112.7,200.6 L 111.6,200.6 L 111.0,200.7 L 109.9,200.7 L 109.5,200.6 L 109.2,200.8 L 107.4,200.7 L 107.0,200.9 L 107.4,201.2 L 108.1,201.4 L 108.4,201.7 L 108.5,201.8 L 108.3,201.9 L 107.9,202.0 L 107.7,202.2 L 108.0,202.5 L 107.5,202.8 L 107.5,203.0 L 108.0,203.4 L 108.1,203.7 L 108.5,204.1 L 107.7,204.0 L 101.9,203.8 L 84.3,203.2 L 83.8,202.0 L 83.9,201.4 L 83.6,200.8 L 83.7,200.1 L 82.4,199.8 L 82.3,199.4 L 82.1,199.1 L 81.5,198.8 L 82.2,198.7 L 83.1,198.1 L 83.1,197.9 L 83.2,197.3 L 83.0,197.1 L 83.2,196.7 L 83.0,196.4 L 82.8,196.3 L 82.8,196.2 L 82.4,195.8 L 82.3,195.5 L 81.9,195.1 L 81.7,194.8 L 81.5,194.9 L 80.7,194.3 L 80.8,194.0 L 80.8,193.7 L 80.5,193.5 L 80.4,193.3 L 80.4,192.9 L 80.2,192.6 L 80.0,192.5 L 80.0,192.2 L 79.7,192.0 L 79.1,191.8 L 78.7,191.9 L 78.6,192.3 L 78.6,192.7 L 78.5,192.9 L 78.4,193.3 L 78.5,193.8 L 78.5,193.9 L 78.1,194.0 L 78.0,194.1 L 77.4,194.0 L 77.2,193.8 L 77.7,193.3 L 77.0,192.4 L 76.7,192.3 L 76.5,192.1 L 76.3,192.0 L 76.4,191.6 L 76.5,191.3 L 76.2,191.3 L 75.8,191.4 L 74.8,190.9 L 74.6,190.7 L 74.1,190.5 L 73.8,190.0 L 73.4,189.9 L 73.3,190.6 L 72.6,190.9 L 72.4,190.3 L 72.8,190.0 L 72.9,189.7 L 73.1,189.5 L 72.9,189.3 L 72.5,189.2 L 72.6,188.9 L 72.7,188.8 L 72.7,188.5 L 72.7,188.3 L 73.0,188.2 L 72.8,188.0 L 71.6,187.4 L 71.3,187.8 L 71.0,187.6 L 70.7,187.5 L 70.4,188.6 L 69.9,188.5 L 69.8,188.2 L 69.4,188.1 L 69.2,188.7 L 69.3,188.9 L 69.1,189.9 L 69.2,190.2 L 69.1,190.9 L 68.9,191.1 L 68.6,190.6 L 68.5,190.0 L 68.1,189.2 L 68.0,188.8 L 68.0,188.3 L 67.8,187.6 L 67.6,187.5 L 67.8,186.5 L 67.0,186.0 L 66.9,185.7 L 67.6,185.6 L 67.9,185.5 L 67.9,185.1 L 67.8,184.9 L 67.9,184.7 L 67.7,184.2 L 67.4,184.2 L 66.9,183.6 L 66.3,183.4 L 65.5,183.3 L 65.3,183.1 L 65.3,182.7 L 64.8,182.5 L 64.4,182.1 L 64.2,181.8 L 63.7,181.8 L 63.4,181.8 L 63.1,181.5 L 62.8,181.7 L 61.2,181.4 L 60.7,181.7 L 60.8,181.8 L 60.8,182.1 L 60.4,182.2 L 59.8,182.5 L 59.4,182.6 L 58.5,182.9 L 58.4,183.3 L 58.2,183.4 L 57.0,183.3 L 56.9,183.7 L 56.8,183.9 L 56.3,183.8 L 56.1,183.6 L 56.0,183.3 L 55.7,182.9 L 55.2,182.9 L 55.1,183.0 L 54.8,182.9 L 54.7,182.5 L 54.5,182.1 L 54.6,181.9 L 54.6,181.4 L 54.3,180.9 L 53.2,180.1 L 52.3,179.1 L 51.7,178.3 L 51.6,178.0 L 50.1,177.0 L 49.7,176.8 L 48.6,176.7 L 48.2,177.0 L 48.1,177.6 L 47.9,178.0 L 47.7,178.5 L 47.3,178.7 L 46.9,177.8 L 46.5,177.6 L 46.0,177.2 L 45.9,176.8 L 45.7,176.6 L 45.3,176.3 L 44.3,176.1 L 44.0,176.3 L 40.0,176.0 L 40.0,175.9 L 40.2,166.0 L 40.5,166.0 L 40.7,165.8 L 40.9,165.8 L 41.2,165.3 L 41.4,164.2 L 41.8,164.1 L 42.3,164.2 L 42.3,164.8 L 42.7,165.5 L 43.0,165.6 L 43.2,165.8 L 43.2,166.7 L 43.4,167.1 L 44.2,167.2 L 44.4,167.4 L 45.0,167.4 L 45.3,167.2 L 45.4,167.0 L 45.2,166.3 L 45.2,166.2 L 45.5,166.3 L 45.7,166.9 L 46.5,167.3 L 46.7,167.7 L 47.0,168.0 L 47.2,168.3 L 47.5,168.3 L 48.6,168.9 L 49.6,169.3 L 50.3,169.8 L 50.8,169.8 L 51.4,169.7 L 52.0,169.5 L 53.2,170.2 L 53.7,170.3 L 54.2,170.4 L 54.5,170.6 L 55.7,170.7 L 56.2,170.5 L 56.3,170.3 L 56.6,170.1 L 56.8,169.9 L 56.9,169.4 L 56.5,169.0 L 56.7,168.7 L 57.2,168.8 L 57.4,168.9 L 57.7,168.9 L 57.6,168.6 L 57.4,168.4 L 57.9,168.2 L 58.1,167.5 L 58.4,167.5 L 58.9,165.1 L 59.2,164.7 L 59.6,164.8 L 59.7,164.2 L 59.6,164.0 L 59.3,163.9 L 59.1,163.0 L 58.4,161.9 L 58.4,161.4 L 58.2,160.9 L 57.0,160.1 L 56.1,159.2 L 55.8,158.7 L 56.0,158.2 L 56.3,158.3 L 56.6,158.6 L 56.6,158.9 L 56.9,158.8 L 57.2,158.5 L 57.9,158.4 L 58.4,158.0 L 58.7,158.1 L 58.8,158.4 L 59.0,158.5 L 59.4,158.8 L 60.1,158.7 L 60.4,158.4 L 60.8,158.5 L 61.2,158.1 L 61.2,157.2 L 60.5,156.4 L 60.7,156.2 L 60.8,155.0 L 60.4,154.4 L 60.4,154.1 L 59.8,153.7 L 59.9,153.4 L 60.4,153.7 L 60.9,153.6 L 61.2,154.2 L 61.6,154.4 L 62.1,154.5 L 62.4,154.0 L 62.7,153.5 L 63.0,153.5 L 63.2,153.0 L 63.5,152.7 L 63.9,150.9 L 63.5,150.1 L 63.7,149.6 L 64.0,149.6 L 64.6,148.7 L 64.9,148.0 L 65.4,147.7 L 65.7,147.8 L 65.7,148.2 L 65.3,148.4 L 65.6,148.9 L 65.7,149.4 L 65.6,150.2 L 65.8,150.4 L 65.8,150.8 L 65.9,151.0 L 65.9,151.6 L 66.1,152.0 L 66.5,152.4 L 66.7,152.6 L 66.6,153.3 L 66.8,154.0 L 66.9,154.8 L 66.5,155.1 L 66.3,155.0 L 65.8,154.9 L 65.7,155.1 L 65.8,155.5 L 64.7,155.9 L 64.5,157.2 L 64.5,158.1 L 64.2,158.1 L 63.9,158.2 L 63.8,158.5 L 64.0,158.8 L 63.7,159.2 L 63.2,159.3 L 63.1,160.4 L 63.0,161.4 L 63.3,162.1 L 63.4,162.5 L 63.7,162.8 L 63.9,163.8 L 64.4,164.6 L 64.4,164.8 L 64.5,165.3 L 64.5,166.5 L 64.7,166.8 L 65.8,167.2 L 66.0,167.4 L 66.4,169.3 L 67.0,170.4 L 67.5,171.0 L 68.2,171.2 L 68.5,171.4 L 68.7,171.3 L 69.0,171.0 L 69.6,171.2 L 69.8,171.4 L 70.5,171.7 L 70.9,171.6 L 70.8,171.3 L 70.9,170.9 L 71.2,170.8 L 71.5,171.1 L 71.8,171.7 L 72.9,171.7 L 73.4,171.5 L 73.7,171.3 L 73.9,171.0 L 74.6,170.7 L 74.8,170.9 L 75.3,171.6 L 75.6,171.6 L 75.9,171.3 L 76.1,171.4 L 76.4,171.4 L 77.2,171.0 L 77.6,171.0 L 77.7,170.7 L 79.0,169.7 L 79.2,169.4 L 79.9,169.2 L 80.3,169.0 L 80.7,168.9 L 81.1,169.3 L 80.7,169.6 L 80.6,170.7 L 80.6,171.1 L 81.0,171.1 L 81.5,170.7 L 81.6,170.2 L 81.9,169.7 L 82.1,169.4 L 82.2,169.2 L 82.4,168.5 L 82.9,167.9 L 83.0,167.4 L 83.1,167.2 L 83.7,166.5 L 84.2,165.6 L 84.3,164.6 L 84.1,164.2 L 84.0,163.3 L 84.2,162.4 L 84.7,162.5 L 84.8,162.4 L 85.3,162.4 L 86.1,163.0 L 86.7,163.1 L 87.2,163.5 L 87.0,164.4 L 86.8,164.8 L 87.0,165.1 L 86.5,165.4 L 86.8,166.1 L 87.1,166.6 L 87.5,166.7 L 87.5,166.9 L 87.4,167.7 L 87.3,168.1 L 87.4,168.2 L 87.3,169.2 L 87.8,169.8 L 88.0,169.8 L 88.6,169.3 L 88.7,169.1 L 89.4,168.6 L 89.3,168.4 L 88.9,167.7 L 89.2,165.8 L 89.4,165.7 L 90.2,166.5 L 90.5,167.7 L 91.2,168.3 L 91.2,168.7 L 91.0,168.9 L 91.3,169.2 L 91.1,169.7 L 91.2,169.9 L 91.4,170.7 L 91.7,171.2 L 92.1,171.2 L 92.0,171.0 L 92.0,170.8 L 92.2,170.9 L 92.4,170.9 L 93.3,171.2 L 93.7,171.1 L 94.3,170.8 L 94.5,171.0 L 94.5,171.0 L 94.6,171.2 L 95.0,171.5 L 95.9,171.9 L 98.3,172.2 L 99.0,172.2 L 100.8,172.5 L 101.2,172.5 L 101.6,172.0 L 102.2,171.7 L 102.8,171.8 L 103.0,172.1 L 103.0,172.5 L 103.1,172.3 L 103.4,171.7 L 103.8,171.8 L 104.2,171.9 L 105.4,172.1 L 107.0,172.2 L 107.7,171.8 L 107.8,171.6 L 108.3,171.4 L 108.6,171.4 L 109.1,171.1 L 109.1,170.7 L 109.1,170.4 L 109.3,170.2 L 109.9,170.5 L 110.8,170.6 L 111.3,170.5 L 111.7,170.7 L 112.2,170.7 L 112.7,170.5 L 113.2,170.2 L 113.7,169.7 L 113.8,168.5 L 114.0,168.3 L 114.3,168.3 L 114.8,168.9 L 114.9,169.0 L 116.0,169.1 L 116.3,169.1 L 116.6,169.3 L 118.2,168.7 L 118.4,168.3 L 118.5,167.2 L 119.0,166.7 L 119.1,166.3 L 120.1,165.6 L 120.3,166.1 L 120.6,166.1 L 120.5,165.4 L 120.7,164.9 L 121.2,164.9 L 121.4,164.8 L 121.7,164.9 L 121.6,165.2 L 121.9,165.4 L 122.2,165.2 L 122.4,165.2 L 122.8,165.6 L 122.9,165.6 L 123.4,166.0 L 124.3,167.2 L 124.2,167.4 L 124.4,168.2 L 124.8,168.5 L 126.5,169.0 L 126.6,169.3 L 127.1,169.5 L 127.4,169.9 L 127.8,169.9 L 128.2,170.2 L 128.2,170.5 L 129.7,170.8 L 130.1,171.1 L 131.7,171.2 L 133.5,171.6 L 134.0,171.8 L 135.0,172.0 L 135.2,172.2 L 135.7,172.2 L 136.5,171.9 L 136.7,172.1 L 137.8,172.3 L 138.1,172.4 L 139.5,172.6 L 140.3,172.5 L 140.7,172.3 L 140.9,172.9 L 142.5,173.1 L 143.0,173.0 L 143.3,172.8 L 144.6,172.8 L 145.1,172.6 L 145.4,172.6 L 147.2,173.1 L 147.2,173.4 L 146.7,173.8 L 147.0,174.2 L 147.4,174.2 L 147.9,174.1 L 148.0,174.3 L 148.2,174.2 L 149.2,174.3 L 149.2,174.4 L 149.7,174.7 L 149.9,174.7 L 150.2,174.4 L 150.8,174.3 L 151.1,174.2 L 151.8,174.2 L 152.3,174.2 L 152.6,174.4 L 153.3,174.5 L 153.9,174.2 L 155.1,173.9 L 155.3,173.5 L 156.0,173.3 L 157.3,172.9 L 158.7,172.6 L 158.8,172.9 L 158.6,173.2 L 157.7,173.7 L 157.1,174.2 L 154.9,175.2 L 153.4,176.2 L 152.6,176.4 L 152.5,176.6 L 151.9,176.6 L 151.6,176.8 L 151.2,177.4 L 151.5,178.0 L 151.3,178.2 L 151.1,179.0 L 151.3,179.3 L 151.7,179.5 L 153.5,179.8 L 153.9,180.0 L 155.1,180.2 L 156.1,180.7 L 157.8,181.2 L 158.8,181.6 L 160.4,181.9 L 160.4,182.2 L 161.9,182.6 L 163.1,182.7 L 163.4,182.4 L 164.0,182.4 L 164.6,182.0 L 165.0,182.5 L 164.9,182.7 L 165.9,182.8 L 166.9,183.0 L 167.6,183.2 L 167.7,183.4 L 168.0,183.4 L 168.8,183.1 L 168.7,182.9 L 168.0,182.3 L 168.4,182.1 L 168.3,180.7 L 168.2,180.6 L 168.1,180.0 L 167.9,179.6 L 168.0,178.8 L 167.9,178.2 L 167.7,178.0 L 167.9,177.8 L 168.1,177.0 L 168.2,176.9 L 168.2,175.8 L 168.0,175.3 L 167.4,174.4 L 166.7,174.2 L 166.4,174.2 L 166.7,173.9 L 166.8,173.7 L 166.8,173.5 L 166.6,173.1 L 166.4,172.9 L 165.5,173.1 L 164.7,173.0 L 164.5,172.7 L 164.6,172.4 L 164.9,172.3 L 165.4,172.5 L 166.2,172.1 L 166.5,171.6 L 166.9,171.9 L 167.0,171.9 L 167.2,171.7 L 167.2,171.2 L 167.0,170.9 L 166.9,170.7 L 166.2,170.7 L 166.0,170.8 L 165.6,170.2 L 165.1,170.3 L 164.7,170.1 L 164.1,170.1 L 163.9,170.3 L 163.4,170.2 L 163.4,169.5 L 163.1,169.0 L 163.5,168.8 L 164.7,169.0 L 164.9,168.8 L 164.9,168.4 L 165.0,168.2 L 165.6,168.2 L 166.0,167.5 L 165.8,167.3 L 165.6,167.1 L 166.0,166.6 L 165.9,166.2 L 165.4,165.9 L 177.2,165.8 L 177.5,167.1 L 178.6,167.2 L 179.0,166.8 L 179.4,167.0 L 179.9,167.5 L 180.5,167.7 L 180.7,167.8 L 183.5,168.2 L 183.8,168.4 L 184.7,168.5 L 185.5,168.4 L 187.9,168.7 L 188.3,168.7 L 189.0,168.7 L 190.1,168.4 L 190.5,168.7 L 191.5,168.9 L 192.4,169.2 L 195.1,169.7 L 195.9,169.7 L 196.3,169.4 L 198.4,169.5 L 199.3,169.7 L 199.8,169.6 L 200.8,169.7 L 201.3,169.5 L 201.8,169.4 L 203.3,169.1 L 203.7,169.9 L 204.0,169.8 L 204.3,170.0 L 204.8,170.1 L 205.9,169.9 L 206.7,170.0 L 207.4,169.9 L 207.6,170.1 L 207.9,170.2 L 208.3,170.4 L 210.0,170.6 L 210.6,170.5 L 212.2,170.7 L 212.6,170.5 L 213.2,170.7 L 214.1,170.5 L 214.6,170.2 L 215.0,170.5 L 215.2,170.8 L 215.6,170.7 L 216.1,170.4 L 215.9,170.1 L 216.3,169.8 L 216.7,169.7 L 217.9,168.8 L 218.3,168.9 L 218.6,169.0 L 218.7,168.5 L 219.2,168.4 L 219.6,168.6 L 219.6,168.9 L 220.5,169.8 L 220.7,170.5 L 220.7,171.0 L 221.6,171.2 L 222.5,171.5 L 222.8,171.9 L 224.5,172.8 L 224.7,173.0 L 224.6,173.6 L 224.1,174.1 L 224.4,174.4 L 225.5,174.7 L 225.4,174.9 L 226.2,175.8 L 225.9,176.0 L 226.2,178.4 L 226.6,179.2 L 226.6,179.5 L 227.0,179.8 L 227.2,179.9 L 227.8,180.4 L 228.4,180.5 L 228.8,180.8 L 228.8,181.1 L 229.0,181.2 L 229.3,181.5 L 229.3,182.0 L 229.6,182.5 L 230.0,182.5 L 230.5,182.8 L 231.1,182.8 L 231.6,182.3 L 231.9,181.4 L 232.5,180.8 L 232.7,179.2 L 232.4,177.9 L 232.1,177.1 L 232.2,176.8 L 232.0,176.2 L 232.3,175.8 L 232.6,173.7 L 233.4,173.5 L 233.8,173.0 L 234.0,171.1 L 233.9,170.4 L 234.4,166.9 L 234.2,165.4 L 234.5,164.8 L 234.7,164.7 L 234.6,164.4 L 235.2,160.5 L 235.3,159.5 L 235.7,158.9 L 235.7,158.1 L 235.9,157.9 L 236.1,157.4 L 236.3,156.5 L 237.2,155.4 L 237.7,155.3 L 238.3,155.6 L 238.6,155.4 L 238.9,155.1 L 239.4,154.6 L 239.6,154.4 L 240.0,154.2 L 240.3,154.3 L 240.6,154.6 L 241.0,155.2 L 241.0,155.2 L 241.1,155.3 L 241.0,155.5 L 240.9,155.6 L 240.9,155.7 L 240.8,156.2 L 240.9,156.2 L 241.1,156.1 L 241.5,155.8 L 242.4,157.0 L 242.4,157.2 L 241.9,157.6 L 241.1,157.7 L 240.7,157.9 L 240.4,158.1 L 240.6,158.4 L 240.6,158.5 L 239.4,158.4 L 238.7,158.8 L 238.4,159.1 L 238.0,159.4 L 237.8,159.6 L 237.5,160.2 L 237.9,160.9 L 237.9,161.4 L 238.9,161.6 L 239.7,162.0 L 239.7,162.2 L 239.4,162.2 L 238.8,162.4 L 237.5,162.5 L 237.3,162.6 L 237.2,163.0 L 236.2,163.6 L 235.9,164.0 L 236.3,164.1 L 236.4,164.5 L 236.9,164.6 L 237.1,164.8 L 237.2,165.0 L 237.7,164.9 L 238.2,165.2 L 239.8,165.7 L 240.0,165.8 L 241.3,166.4 L 241.9,166.8 L 242.0,167.1 L 242.3,167.6 L 242.5,167.7 L 242.8,168.2 L 243.2,168.1 L 243.8,168.4 L 244.7,169.0 L 245.1,169.8 L 244.9,170.3 L 245.1,170.4 L 245.3,171.3 L 245.6,171.9 L 245.6,172.2 L 245.3,172.4 L 244.8,172.6 L 244.7,172.6 L 244.3,172.6 L 244.0,172.8 L 243.9,173.2 L 243.6,173.4 L 241.5,173.0 L 241.1,173.2 L 241.0,173.3 L 241.1,173.7 L 241.6,174.1 L 242.0,174.1 L 243.0,173.8 L 243.3,173.9 L 243.9,174.1 L 244.3,174.5 L 244.1,174.7 L 243.8,175.0 L 243.6,176.0 L 243.0,176.3 L 241.7,176.8 L 241.7,177.2 L 241.9,177.3 L 242.2,177.7 L 241.9,178.0 L 241.7,178.5 L 241.3,179.1 L 241.3,179.3 L 241.7,179.4 L 242.4,179.7 L 243.3,180.8 L 243.3,181.4 L 242.8,181.8 L 241.8,181.7 L 240.0,181.1 L 239.3,181.0 L 238.8,181.6 L 238.5,181.6 L 238.4,181.6 L 238.0,183.0 L 238.4,183.1 L 238.6,183.1 L 238.5,183.8 L 238.9,184.2 L 239.8,184.2 L 240.2,184.1 L 240.1,184.4 L 240.5,184.9 L 240.9,184.7 L 241.3,184.6 L 241.7,184.9 L 241.7,185.5 L 241.3,186.2 L 241.1,187.4 L 240.9,187.8 L 240.3,187.7 L 239.7,187.1 L 239.1,186.8 L 238.8,186.8 L 238.7,187.0 L 239.0,187.3 L 238.9,187.5 L 238.6,187.8 L 238.7,188.1 L 238.6,189.0 L 238.2,189.0 L 237.9,188.7 L 237.9,188.7 L 237.5,188.5 L 237.2,188.6 L 236.8,188.6 L 236.5,189.0 L 236.2,189.6 L 236.5,190.8 L 237.1,191.2 L 237.3,191.6 L 237.4,192.4 L 237.5,192.5 L 238.3,192.7 L 239.2,192.8 L 240.2,192.6 L 241.6,193.1 L 242.4,193.5 L 243.2,194.2 L 243.7,194.4 L 244.1,194.9 L 244.0,195.4 L 244.2,196.6 L 244.9,197.0 L 245.4,197.8 L 246.1,197.8 L 246.3,198.7 L 246.6,199.0 L 247.1,199.4 L 247.5,200.2 L 248.3,200.8 L 250.1,201.7 L 251.0,201.6 L 251.3,201.5 L 251.4,201.1 L 252.9,201.2 L 253.3,200.8 L 253.6,200.7 L 254.8,200.8 L 255.9,201.5 L 256.6,201.5 L 257.1,201.4 L 258.2,201.6 L 258.6,201.5 L 259.5,201.6 L 260.1,201.8 L 260.3,202.1 L 260.3,202.3 L 261.0,202.7 L 264.8,203.3 L 265.3,203.6 L 265.9,203.8 L 266.8,204.8 L 266.9,205.3 L 266.7,205.7 L 266.2,205.7 L 265.9,205.8 L 265.8,206.1 L 266.5,206.9 L 267.7,207.2 L 269.0,207.2 L 269.3,207.4 L 269.6,207.8 L 270.2,208.4 L 271.4,209.0 L 272.7,209.4 L 272.9,209.5 L 272.8,209.7 L 271.3,209.7 L 271.1,209.8 L 270.9,210.0 L 271.0,210.1 L 271.2,210.2 L 272.4,210.3 L 272.6,210.5 L 272.4,210.7 L 271.2,210.6 L 270.8,210.8 L 270.5,210.6 L 269.8,210.5 L 268.7,210.5 L 268.1,210.1 L 267.5,209.7 L 265.8,209.5 L 265.3,209.2 L 264.9,209.1 L 264.4,208.3 L 263.8,208.0 L 263.1,207.3 L 262.2,207.8 L 261.8,208.4 L 262.1,208.5 L 262.5,208.4 L 262.8,208.6 L 262.5,208.9 L 262.5,209.1 L 262.8,209.2 L 263.1,209.5 L 263.0,209.5 L 261.9,209.6 L 261.9,209.9 L 262.0,210.3 L 262.4,210.7 L 263.4,210.6 L 264.0,211.2 L 264.8,211.6 L 266.0,212.1 L 265.9,212.2 L 265.4,212.2 L 263.8,212.1 L 263.5,212.3 L 263.4,212.9 L 263.4,213.1 L 263.5,213.3 L 263.8,213.8 L 264.1,214.2 L 264.6,214.1 L 265.0,214.4 L 264.9,214.5 L 264.1,214.7 L 263.6,214.9 L 263.5,215.3 L 264.2,215.7 L 263.7,216.1 L 264.0,216.3 L 264.7,216.4 L 265.1,216.1 L 265.6,217.2 L 265.7,218.2 L 267.0,219.3 L 267.1,219.7 L 267.5,219.9 L 269.1,220.6 L 269.7,220.6 L 271.3,220.5 L 272.3,220.2 L 272.7,220.2 L 273.4,220.1 L 273.7,220.2 L 274.2,220.5 L 275.0,220.7 L 275.8,220.4 L 276.7,219.8 L 277.1,218.8 L 277.5,218.1 L 277.5,217.7 L 277.3,217.3 L 277.9,216.8 L 277.7,216.2 L 277.9,215.6 L 277.7,215.1 L 277.0,214.2 L 276.8,214.1 L 276.2,213.8 L 274.9,213.4 L 272.2,213.0 L 272.2,212.7 L 272.6,212.6 L 273.2,212.7 L 273.3,212.6 L 273.1,212.1 L 273.2,212.0 L 274.0,212.2 L 274.2,212.4 L 276.6,212.7 L 277.2,212.7 L 277.5,212.5 L 277.6,212.2 L 278.0,212.1 L 278.2,212.2 L 278.4,212.6 L 278.4,212.8 L 278.8,213.0 L 279.7,213.0 L 280.1,212.9 L 280.6,212.8 L 281.0,213.0 L 281.1,212.8 L 281.1,212.2 L 280.9,211.3 L 281.0,211.0 L 281.7,210.8 L 282.2,209.6 L 282.7,208.9 L 283.3,207.8 L 284.1,209.3 L 284.4,209.8 L 284.5,210.3 L 284.8,210.6 L 285.2,212.0 L 285.6,212.6 L 286.8,213.5 L 287.6,213.8 L 288.0,213.8 L 288.2,213.4 L 288.9,213.5 L 289.7,214.2 L 290.3,214.2 L 291.2,213.8 L 291.7,213.5 L 294.9,213.1 L 296.6,212.7 L 297.3,212.3 L 299.1,212.0 L 300.6,211.2 L 301.5,210.9 L 302.4,210.5 L 303.2,210.5 L 304.8,209.8 L 305.3,209.7 L 307.6,207.5 L 308.6,207.3 L 311.4,207.0 L 311.7,207.0 L 312.0,207.2 L 313.4,207.3 L 314.6,207.1 L 315.7,206.6 L 316.8,206.4 L 317.9,206.3 L 319.2,205.9 L 320.5,205.7 L 321.3,205.8 L 321.6,205.5 L 321.8,205.2 L 322.8,205.1 L 323.2,204.7 L 323.6,204.2 L 326.4,204.6 L 327.8,204.4 L 328.5,203.8 L 328.3,203.6 L 327.3,203.3 L 327.7,203.2 L 328.3,203.1 L 331.1,203.9 L 341.8,207.0 L 359.0,212.0 L 360.0,212.3 L 359.4,212.8 L 357.3,212.8 L 356.9,213.2 L 356.3,213.2 L 355.8,212.8 L 354.3,212.7 L 353.6,213.3 L 353.5,213.7 L 353.5,214.5 L 354.5,214.8 L 354.7,215.3 L 354.9,215.6 L 355.4,215.8 L 356.0,216.4 L 356.1,217.1 L 356.4,217.5 L 355.5,217.7 L 355.3,217.9 L 355.4,218.4 L 355.7,218.8 L 355.9,218.9 L 347.2,223.1 L 346.5,223.1 L 345.3,222.1 L 345.8,221.7 L 346.1,221.6 L 346.1,221.4 L 346.0,221.2 L 345.6,221.0 L 344.0,221.6 L 342.9,221.7 L 339.6,221.3 L 338.9,221.3 L 338.4,221.8 L 338.1,223.9 L 337.7,224.6 L 337.4,224.9 L 336.9,225.1 L 335.7,224.9 L 335.1,224.7 L 334.3,224.5 L 333.4,224.6 L 332.5,224.5 L 332.1,224.3 L 331.0,222.8 L 330.6,222.1 L 330.3,221.6 L 330.1,221.2 L 329.5,220.7 L 329.8,220.3 L 330.0,220.0 L 329.7,219.6 L 328.0,219.4 L 326.5,219.8 L 326.2,220.0 L 326.0,220.7 L 326.2,221.1 L 326.7,221.3 L 327.0,221.5 L 326.6,221.9 L 325.0,221.8 L 324.3,222.0 L 323.2,222.2 L 320.6,222.0 L 315.8,222.1 L 314.8,221.9 L 313.8,221.9 L 313.5,222.1 L 313.2,222.9 L 312.7,222.9 L 312.3,222.3 L 311.9,222.3 L 311.0,222.5 L 310.6,222.6 L 310.3,222.4 L 309.6,222.8 L 309.1,222.5 L 308.1,221.9 L 307.3,221.7 L 307.1,221.7 L 306.9,221.9 L 306.3,222.1 L 306.1,222.4 L 304.5,222.2 L 303.5,222.3 L 302.8,223.0 L 302.7,225.0 L 301.8,225.9 L 301.6,226.5 L 301.2,227.1 L 301.1,228.1 L 300.6,228.0 L 299.0,227.6 L 297.9,227.3 L 297.0,227.1 L 296.5,227.2 L 295.5,227.8 L 294.1,227.5 L 293.2,227.6 L 291.8,227.3 L 291.0,227.2 L 290.4,227.3 L 289.6,227.2 L 288.9,227.6 L 288.6,228.0 L 288.9,229.2 L 289.1,230.5 L 289.2,231.1 L 289.5,232.1 L 289.3,233.6 L 289.5,234.2 L 289.4,234.7 L 289.5,235.1 L 289.4,235.6 L 289.0,235.9 L 288.4,236.1 L 287.1,235.0 L 286.1,234.8 L 285.6,234.6 L 284.6,234.4 L 283.6,234.0 L 283.2,234.3 L 283.1,234.9 L 283.4,235.5 L 283.4,235.8 L 282.9,235.9 L 282.6,236.1 L 282.1,236.7 L 282.0,237.7 L 282.1,238.8 L 282.0,239.9 L 282.0,240.6 L 277.2,242.8 L 277.0,242.7 L 276.1,241.2 L 275.3,240.3 L 274.9,240.2 L 274.4,240.4 L 273.9,240.1 L 273.5,239.3 L 273.2,239.3 L 272.5,239.3 L 271.3,239.9 L 271.0,239.8 L 270.9,239.6 L 269.2,239.2 L 268.3,239.2 L 267.5,239.4 L 267.0,239.4 L 266.9,239.3 L 265.4,238.6 L 264.9,238.7 L 264.7,238.9 L 264.9,239.6 L 264.8,239.9 L 264.5,240.1 L 264.4,240.8 L 264.7,241.1 L 264.8,241.2 L 264.0,241.8 L 262.9,241.8 L 262.5,242.2 L 262.4,242.9 L 263.0,243.6 L 262.8,244.4 L 263.1,245.8 L 263.8,246.4 L 264.3,247.6 L 264.8,248.6 L 265.4,249.2 L 267.1,250.4 L 267.9,251.4 L 268.0,251.7 L 267.8,251.9 L 266.9,251.8 L 266.5,251.9 L 266.2,252.3 L 265.7,252.3 L 265.0,251.7 L 264.2,250.4 L 264.0,249.9 L 263.1,248.6 L 262.7,247.7 L 261.7,246.5 L 260.2,245.3 L 259.1,243.9 L 258.9,243.2 L 258.2,241.9 L 257.7,241.4 L 257.3,240.7 L 256.1,238.5 L 255.8,238.3 L 255.2,237.8 L 254.1,237.6 L 253.7,236.9 L 253.6,236.7 L 253.3,236.4 L 252.5,236.2 L 252.0,236.0 L 251.2,236.2 L 250.9,236.6 L 251.0,237.2 L 250.5,237.1 L 250.1,237.0 L 249.7,236.6 L 249.0,236.6 L 248.5,236.6 L 247.9,236.5 L 247.0,235.6 L 246.8,235.2 L 246.2,234.8 L 245.9,234.7 L 245.7,234.4 L 244.8,234.2 L 244.4,233.8 L 243.5,233.7 L 243.3,234.2 L 242.9,234.2 L 242.7,235.1 L 243.3,235.1 L 243.5,235.3 L 243.6,235.8 L 243.4,236.1 L 242.8,236.5 L 241.7,236.5 L 241.1,235.7 L 240.7,234.4 L 240.4,233.7 L 239.6,233.0 L 239.2,232.2 L 239.0,231.7 L 238.8,231.7 L 238.5,232.5 L 238.0,231.6 L 237.7,231.3 L 237.3,231.0 L 236.9,231.4 L 236.7,232.0 L 236.4,232.1 L 235.8,231.3 L 234.7,231.1 L 234.0,230.6 L 233.4,230.2 L 232.0,229.8 L 231.0,229.6 L 230.8,230.3 L 230.5,230.3 L 229.6,229.4 L 229.1,229.2 L 228.6,229.4 L 227.9,229.1 L 227.7,229.2 L 227.6,229.5 L 227.1,229.4 L 226.6,229.6 L 226.4,229.9 L 224.7,229.6 L 224.3,229.8 L 223.9,229.4 L 223.6,229.3 L 223.3,229.5 L 222.7,230.4 L 222.6,230.9 L 222.2,231.1 L 221.6,231.1 L 221.3,231.0 L 220.9,230.2 L 220.7,230.0 L 220.1,229.6 L 220.0,229.0 L 218.0,228.2 L 217.5,228.1 L 217.2,229.0 L 216.8,229.4 L 216.4,231.4 L 216.2,231.6 L 216.0,232.3 L 215.7,232.3 L 215.2,231.7 L 214.8,231.4 L 213.9,231.2 L 213.9,232.0 L 213.7,232.2 L 213.5,232.0 L 213.1,232.0 L 212.7,232.0 L 212.6,232.7 L 213.0,233.2 L 212.8,233.4 L 212.6,233.5 L 212.5,233.7 L 212.7,234.2 L 212.3,234.8 L 211.0,235.2 L 210.6,235.1 L 210.2,235.3 L 209.7,235.3 L 209.1,234.9 L 207.8,234.6 L 207.1,234.5" fill="none" stroke="black" stroke-width="2"/>
</svg>