<?xml version="1.0" encoding="UTF-8"?>
<svg width="400" height="400" viewBox="0 0 400 400" xmlns="http://www.w3.org/2000/svg">
  <rect width="400" height="400" fill="white"/>
  <path d="M 215.9,125.0 L 216.2,124.8 L 216.8,124.8 L 217.8,124.4 L 218.4,124.2 L 218.5,124.2 L 218.9,124.2 L 219.2,124.1 L 219.7,123.9 L 220.1,123.6 L 220.9,122.9 L 221.7,122.4 L 222.4,122.1 L 222.8,121.7 L 223.1,121.4 L 223.9,120.9 L 224.6,120.4 L 225.2,120.0 L 225.7,119.8 L 226.7,119.5 L 227.5,119.1 L 228.4,118.7 L 228.9,118.3 L 229.4,117.9 L 230.2,117.2 L 230.6,116.7 L 231.1,115.9 L 231.6,115.0 L 231.9,114.8 L 232.2,114.7 L 232.4,114.7 L 232.7,114.7 L 233.3,114.6 L 233.9,114.5 L 234.8,114.0 L 235.7,113.6 L 236.7,113.2 L 237.5,112.7 L 238.0,112.4 L 238.6,111.7 L 239.0,111.5 L 239.9,111.0 L 240.2,110.9 L 241.1,110.5 L 241.3,110.5 L 241.4,110.4 L 241.4,110.4 L 241.9,110.3 L 242.1,110.2 L 242.9,110.1 L 243.6,110.0 L 243.8,110.0 L 244.8,109.9 L 245.8,109.7 L 245.9,109.7 L 246.6,109.8 L 247.6,109.7 L 248.1,109.8 L 248.5,109.9 L 248.8,109.9 L 249.8,109.9 L 250.3,109.9 L 250.7,109.7 L 251.2,109.7 L 251.9,109.8 L 252.5,110.0 L 253.4,110.0 L 254.2,109.8 L 255.3,109.9 L 256.2,109.9 L 256.3,109.9 L 257.3,110.0 L 258.3,110.1 L 259.1,110.1 L 260.0,110.2 L 260.9,110.1 L 261.3,110.1 L 262.3,109.9 L 263.3,109.9 L 263.8,109.9 L 264.3,109.7 L 264.6,109.5 L 265.6,109.2 L 265.7,109.1 L 266.0,108.7 L 266.0,108.4 L 266.0,108.3 L 266.0,108.2 L 266.0,108.2 L 266.2,108.1 L 266.8,108.0 L 267.1,107.6 L 267.4,107.7 L 267.7,107.9 L 268.3,107.9 L 268.9,107.7 L 269.4,107.5 L 269.6,107.4 L 269.8,107.1 L 269.9,106.7 L 270.2,106.6 L 270.5,106.5 L 271.1,106.1 L 271.4,106.2 L 271.6,106.2 L 272.0,106.1 L 272.2,106.0 L 272.6,106.0 L 272.8,105.9 L 273.2,105.5 L 273.7,105.4 L 274.2,105.3 L 274.4,105.3 L 274.7,105.0 L 274.9,104.9 L 275.3,104.8 L 275.9,104.7 L 276.1,104.6 L 276.1,104.5 L 276.5,104.3 L 276.5,104.3 L 276.8,104.2 L 277.0,104.2 L 277.0,104.2 L 277.3,104.1 L 277.4,104.0 L 277.5,104.0 L 277.5,104.0 L 277.8,103.8 L 278.4,103.6 L 279.1,103.5 L 279.5,103.4 L 280.6,103.3 L 281.6,103.2 L 282.2,103.2 L 282.5,103.1 L 282.7,103.0 L 283.4,102.9 L 283.7,102.7 L 283.8,102.5 L 284.2,102.0 L 284.9,101.3 L 285.3,100.9 L 285.4,100.8 L 286.0,100.2 L 287.0,99.8 L 287.6,99.2 L 288.1,98.6 L 288.9,98.2 L 289.4,98.1 L 289.6,98.1 L 290.5,97.6 L 291.0,97.4 L 291.3,97.5 L 291.6,97.6 L 291.9,97.6 L 292.6,97.2 L 292.8,97.0 L 293.2,96.5 L 294.0,96.0 L 294.9,95.5 L 295.7,94.8 L 296.0,94.5 L 296.6,94.0 L 297.2,93.2 L 297.9,92.4 L 298.4,91.5 L 298.6,91.3 L 299.4,90.7 L 299.9,90.4 L 300.1,90.3 L 300.2,90.2 L 300.3,90.2 L 301.2,90.0 L 301.7,89.9 L 302.6,89.5 L 303.0,89.4 L 304.0,89.5 L 304.9,89.5 L 305.7,89.4 L 306.1,89.3 L 306.6,89.0 L 307.4,88.7 L 307.6,88.7 L 308.6,88.6 L 309.6,88.6 L 310.3,88.6 L 311.3,88.6 L 312.0,88.6 L 312.9,88.6 L 313.9,88.7 L 314.8,88.7 L 315.8,88.6 L 316.6,88.6 L 317.3,88.5 L 317.4,88.3 L 317.6,87.9 L 317.8,87.4 L 317.8,86.9 L 317.9,86.0 L 318.1,85.3 L 318.3,84.6 L 318.7,83.7 L 319.1,82.9 L 319.3,82.1 L 319.4,81.2 L 319.5,80.2 L 319.7,79.2 L 319.6,78.5 L 319.6,77.7 L 319.9,76.8 L 320.2,75.9 L 320.4,75.2 L 320.9,74.4 L 321.5,73.6 L 321.9,73.2 L 322.3,72.8 L 322.8,72.4 L 323.4,72.0 L 324.1,71.8 L 324.6,71.3 L 325.2,70.7 L 325.7,69.9 L 326.3,69.4 L 327.0,68.7 L 327.6,68.0 L 327.8,67.8 L 328.3,67.3 L 328.9,66.5 L 329.4,65.7 L 329.8,65.2 L 329.9,65.2 L 330.6,64.6 L 331.2,63.9 L 331.7,63.4 L 332.2,62.5 L 332.8,61.7 L 333.3,60.8 L 333.8,60.2 L 334.0,59.8 L 334.6,59.1 L 334.6,59.0 L 334.7,59.0 L 360.0,74.7 L 359.0,74.9 L 358.6,74.8 L 357.6,74.7 L 357.3,74.7 L 357.1,74.9 L 357.0,75.4 L 357.0,75.6 L 356.8,76.0 L 356.3,76.4 L 356.1,76.8 L 355.6,77.6 L 355.2,78.4 L 354.8,78.9 L 354.1,79.6 L 353.7,80.2 L 353.4,80.6 L 352.7,81.3 L 352.2,82.1 L 351.7,82.9 L 351.2,83.6 L 350.8,84.2 L 350.3,85.1 L 349.7,85.9 L 349.0,86.6 L 348.4,87.4 L 347.7,88.1 L 347.2,88.6 L 346.7,89.5 L 346.1,90.3 L 345.5,90.8 L 345.0,91.3 L 344.4,92.0 L 343.7,92.8 L 343.1,93.6 L 342.5,94.4 L 341.9,95.2 L 341.5,95.9 L 341.2,96.4 L 340.9,97.0 L 340.4,97.9 L 340.1,98.6 L 339.7,99.4 L 339.2,100.3 L 338.8,101.2 L 338.4,102.1 L 338.2,102.4 L 337.5,103.2 L 337.0,103.6 L 336.1,104.1 L 335.3,104.7 L 334.4,105.1 L 333.6,105.7 L 332.8,106.2 L 332.3,106.4 L 331.9,106.6 L 331.3,107.0 L 330.6,107.7 L 329.9,108.4 L 329.4,108.7 L 328.7,109.1 L 328.3,109.3 L 327.8,109.6 L 326.9,109.9 L 325.9,110.1 L 324.9,110.4 L 323.9,110.7 L 323.0,111.0 L 322.1,111.2 L 321.2,111.6 L 320.5,112.1 L 320.0,112.5 L 319.5,112.7 L 318.9,112.7 L 318.4,112.9 L 317.5,113.3 L 317.0,113.3 L 316.4,113.2 L 315.5,112.8 L 315.1,112.7 L 314.1,112.6 L 313.4,112.7 L 312.5,113.0 L 311.8,113.3 L 311.4,113.5 L 310.5,114.0 L 309.8,114.0 L 308.8,114.0 L 308.0,114.0 L 307.6,114.0 L 307.4,114.2 L 306.8,114.6 L 306.1,115.0 L 305.8,115.2 L 305.2,115.5 L 304.7,115.5 L 303.9,115.6 L 303.3,115.7 L 303.0,115.8 L 302.3,116.0 L 302.1,116.1 L 301.2,116.6 L 300.7,116.9 L 300.2,117.5 L 300.1,117.9 L 300.0,118.3 L 299.8,118.6 L 299.5,118.8 L 299.0,119.2 L 298.3,120.0 L 297.6,120.7 L 297.0,121.1 L 296.5,121.7 L 296.2,121.7 L 296.0,121.9 L 295.8,122.5 L 295.8,122.7 L 295.2,123.5 L 294.6,124.3 L 294.1,125.2 L 293.7,125.6 L 293.4,125.8 L 292.5,126.0 L 292.0,126.1 L 291.2,126.1 L 290.4,126.4 L 290.3,126.5 L 290.3,126.5 L 290.3,126.5 L 290.0,127.5 L 289.7,128.2 L 289.6,129.2 L 289.5,129.7 L 289.3,130.0 L 288.5,130.6 L 287.9,130.9 L 287.4,131.1 L 286.5,131.5 L 286.0,131.8 L 285.3,132.5 L 284.5,132.6 L 283.9,132.8 L 283.0,133.2 L 282.2,133.4 L 281.2,133.6 L 280.7,133.5 L 279.7,133.4 L 279.3,133.6 L 278.8,134.0 L 278.8,134.0 L 278.8,134.1 L 278.4,134.2 L 277.7,134.7 L 277.1,135.3 L 276.3,135.6 L 275.6,135.5 L 275.1,135.4 L 274.6,135.3 L 274.2,135.2 L 274.1,135.2 L 273.6,135.0 L 272.6,134.8 L 271.7,134.7 L 271.2,134.8 L 270.5,135.1 L 270.1,135.0 L 269.4,134.7 L 268.8,134.4 L 268.5,134.2 L 267.6,133.8 L 267.2,133.6 L 266.2,133.4 L 265.2,133.3 L 264.7,133.3 L 263.6,133.2 L 262.7,132.7 L 261.7,132.6 L 260.8,132.3 L 259.8,132.2 L 259.0,132.1 L 258.1,132.3 L 257.3,132.5 L 256.7,132.6 L 255.9,132.5 L 255.3,132.5 L 254.9,132.5 L 253.9,132.7 L 252.9,133.0 L 252.1,133.2 L 251.1,133.5 L 250.1,133.9 L 249.5,134.1 L 249.3,134.2 L 248.9,134.5 L 248.1,134.5 L 247.1,134.8 L 246.3,135.2 L 245.5,135.8 L 244.6,136.3 L 244.1,136.5 L 243.9,136.8 L 243.3,137.2 L 242.8,137.4 L 242.5,137.6 L 242.4,137.6 L 241.6,138.2 L 240.8,138.8 L 240.3,139.0 L 239.7,139.4 L 239.1,139.9 L 238.4,140.7 L 238.2,141.1 L 238.1,141.4 L 238.1,141.6 L 237.6,142.0 L 237.4,142.5 L 237.3,142.5 L 237.1,142.4 L 236.9,142.4 L 236.6,142.4 L 235.9,142.9 L 235.2,143.6 L 234.5,144.3 L 233.8,144.9 L 233.5,145.1 L 233.1,145.2 L 232.4,145.7 L 231.7,146.4 L 231.3,146.8 L 230.9,147.6 L 230.3,148.4 L 229.7,149.1 L 228.9,149.8 L 228.2,150.5 L 227.8,151.0 L 227.2,151.8 L 226.6,152.6 L 226.1,153.0 L 225.2,153.5 L 224.3,153.9 L 223.4,154.3 L 222.7,154.6 L 222.3,155.0 L 221.9,155.5 L 221.7,155.7 L 221.4,155.9 L 220.8,156.2 L 220.2,156.4 L 219.8,156.7 L 219.6,156.8 L 219.3,156.7 L 219.1,156.7 L 218.4,157.2 L 217.6,157.8 L 217.1,158.1 L 216.3,158.7 L 215.7,158.6 L 215.6,158.7 L 215.2,158.6 L 214.4,158.4 L 213.7,158.0 L 213.4,158.0 L 212.8,158.3 L 212.0,158.9 L 211.3,159.5 L 210.5,160.1 L 209.8,160.8 L 209.0,161.5 L 208.6,161.9 L 208.6,161.9 L 208.6,162.0 L 208.7,162.3 L 208.5,162.5 L 208.2,163.0 L 208.0,163.6 L 207.9,163.8 L 208.0,164.2 L 207.9,165.0 L 207.8,165.2 L 207.5,165.9 L 207.2,166.9 L 207.0,167.9 L 206.8,168.6 L 206.2,169.4 L 205.8,169.9 L 205.1,170.6 L 204.7,170.9 L 204.6,171.1 L 204.5,171.4 L 204.4,171.8 L 204.4,172.3 L 204.0,173.1 L 203.8,174.0 L 203.5,174.9 L 203.4,175.3 L 203.2,176.1 L 203.0,176.5 L 202.7,176.8 L 202.2,177.0 L 201.6,177.3 L 201.3,177.6 L 201.0,177.8 L 200.2,177.9 L 199.7,177.9 L 198.8,177.7 L 198.4,177.4 L 198.2,177.3 L 197.7,177.0 L 197.3,176.8 L 196.8,176.6 L 196.3,176.6 L 195.3,176.6 L 195.0,176.7 L 194.3,176.8 L 193.3,176.9 L 192.8,177.1 L 192.5,177.2 L 191.6,177.6 L 191.0,178.0 L 190.7,178.4 L 190.2,179.3 L 189.8,179.7 L 189.3,180.1 L 189.1,180.3 L 189.0,180.3 L 188.6,180.4 L 187.9,180.6 L 187.1,180.8 L 186.5,180.9 L 185.6,181.0 L 184.8,180.9 L 184.3,180.8 L 184.0,180.7 L 183.3,180.5 L 182.8,180.5 L 182.0,180.8 L 181.9,180.9 L 181.1,181.2 L 180.7,181.5 L 180.3,182.2 L 179.9,182.7 L 179.1,183.3 L 178.2,183.8 L 177.7,184.2 L 176.7,184.5 L 175.8,184.9 L 174.9,185.3 L 174.1,185.9 L 173.3,186.4 L 172.8,187.0 L 172.4,187.7 L 172.2,188.1 L 171.4,188.6 L 171.0,189.0 L 170.5,189.4 L 170.0,189.6 L 169.4,189.7 L 168.8,189.7 L 168.3,189.5 L 167.4,189.0 L 166.7,188.6 L 166.2,188.4 L 165.4,187.8 L 164.8,187.6 L 163.8,187.4 L 162.9,187.2 L 162.0,187.0 L 161.1,186.7 L 160.7,186.6 L 160.0,186.8 L 159.6,186.8 L 159.4,186.7 L 158.9,186.1 L 158.8,186.0 L 158.6,185.9 L 158.1,185.9 L 157.8,185.9 L 157.4,185.8 L 157.1,185.8 L 156.7,186.0 L 156.1,186.4 L 155.2,186.8 L 154.3,187.3 L 153.5,187.7 L 152.7,188.4 L 152.2,188.8 L 151.6,189.0 L 151.3,189.0 L 150.3,188.7 L 149.7,188.8 L 149.3,189.0 L 148.7,189.8 L 148.1,190.4 L 147.6,190.8 L 147.4,190.9 L 147.2,190.9 L 146.6,190.4 L 146.1,190.0 L 145.4,189.7 L 145.1,189.7 L 144.9,189.7 L 144.1,189.6 L 143.7,189.6 L 143.4,189.8 L 143.0,190.3 L 142.9,190.4 L 142.6,190.3 L 142.4,190.4 L 141.8,190.9 L 141.4,191.2 L 141.1,191.5 L 141.0,192.0 L 140.7,192.7 L 140.5,193.0 L 140.6,194.0 L 140.6,194.5 L 140.3,195.1 L 139.7,195.8 L 139.5,195.9 L 139.2,196.2 L 138.5,196.4 L 138.2,196.6 L 137.4,197.1 L 136.9,197.4 L 136.0,197.8 L 135.1,198.2 L 134.4,198.3 L 133.5,198.3 L 132.5,198.2 L 132.1,198.3 L 131.5,198.2 L 130.9,198.2 L 130.2,198.3 L 129.4,198.9 L 129.2,199.0 L 129.1,198.9 L 128.9,198.9 L 128.1,199.3 L 127.6,199.7 L 127.1,200.0 L 126.5,200.3 L 126.0,200.5 L 125.6,200.8 L 125.2,201.4 L 124.9,201.8 L 124.5,202.1 L 124.0,202.1 L 123.4,202.2 L 122.7,202.5 L 121.8,203.1 L 121.6,203.4 L 121.2,204.0 L 120.7,204.6 L 119.9,205.3 L 119.6,205.5 L 119.3,205.5 L 118.9,205.4 L 118.7,205.1 L 118.4,204.6 L 118.1,204.5 L 117.8,204.5 L 117.5,204.7 L 117.3,204.9 L 117.0,205.4 L 116.7,206.3 L 116.4,207.3 L 116.1,208.2 L 115.8,208.8 L 115.4,209.6 L 115.0,210.4 L 114.7,211.2 L 114.2,212.0 L 113.6,212.8 L 113.1,213.7 L 112.6,214.6 L 112.1,215.3 L 111.9,215.4 L 111.7,215.7 L 111.2,215.8 L 111.1,215.9 L 110.5,216.0 L 109.9,215.9 L 109.5,215.8 L 109.4,215.7 L 109.6,215.5 L 110.1,214.9 L 110.3,214.5 L 110.3,214.2 L 110.1,213.9 L 109.7,213.5 L 109.2,213.3 L 108.9,213.3 L 108.5,213.4 L 107.7,213.9 L 107.2,214.1 L 106.2,214.4 L 106.0,214.5 L 105.9,214.8 L 106.0,215.2 L 106.3,215.9 L 106.4,216.0 L 106.3,216.1 L 106.2,216.2 L 106.3,216.5 L 105.8,216.7 L 105.0,217.1 L 104.8,217.1 L 104.0,217.5 L 103.5,217.9 L 103.1,218.3 L 102.6,219.1 L 102.2,219.8 L 101.7,220.6 L 101.2,221.5 L 100.9,222.2 L 100.9,222.6 L 101.0,223.2 L 101.2,223.6 L 101.4,224.1 L 101.9,224.9 L 102.3,225.8 L 102.6,226.2 L 103.0,226.5 L 103.7,226.8 L 104.0,227.1 L 104.2,227.5 L 104.2,228.1 L 104.2,228.3 L 104.3,229.0 L 104.6,230.0 L 104.8,230.4 L 105.3,231.3 L 105.3,231.6 L 105.2,232.6 L 105.4,233.3 L 105.6,234.3 L 105.6,234.7 L 105.5,234.9 L 104.8,235.6 L 104.2,236.4 L 103.7,237.2 L 103.6,237.7 L 103.4,238.7 L 103.3,239.7 L 103.3,240.6 L 103.2,241.6 L 103.2,242.6 L 103.1,242.9 L 103.0,243.1 L 102.9,243.3 L 102.5,243.4 L 102.2,243.7 L 101.9,244.0 L 101.2,244.5 L 100.5,245.2 L 100.2,245.8 L 99.7,246.7 L 99.3,247.7 L 99.2,247.9 L 99.0,248.1 L 98.9,248.5 L 98.7,249.4 L 98.2,250.3 L 97.7,251.1 L 97.2,251.9 L 97.1,252.0 L 96.8,252.4 L 96.4,253.0 L 96.3,253.7 L 96.1,254.7 L 96.0,255.6 L 96.0,256.4 L 96.2,257.3 L 96.2,258.3 L 96.1,259.3 L 96.0,259.9 L 95.9,260.4 L 96.0,261.4 L 96.1,262.2 L 96.2,262.5 L 96.5,263.0 L 97.0,263.9 L 97.4,264.7 L 97.7,265.5 L 97.6,266.5 L 97.8,267.3 L 98.2,268.2 L 98.3,269.2 L 98.5,270.2 L 98.6,271.1 L 98.7,272.1 L 98.7,272.5 L 98.9,272.8 L 98.9,272.8 L 99.1,273.8 L 99.1,274.4 L 98.9,275.2 L 98.6,276.1 L 98.1,277.0 L 97.7,277.8 L 97.4,278.6 L 97.4,278.7 L 97.0,279.6 L 96.8,280.2 L 96.6,280.6 L 96.3,281.5 L 96.0,282.4 L 95.6,283.4 L 95.3,284.3 L 94.9,285.3 L 94.5,286.1 L 94.0,287.0 L 93.4,287.8 L 93.0,288.1 L 92.6,288.9 L 92.2,289.8 L 91.6,290.6 L 91.1,291.5 L 91.0,291.8 L 90.9,292.1 L 90.3,292.9 L 89.7,293.7 L 89.5,294.0 L 89.6,294.3 L 89.6,294.7 L 89.4,295.0 L 88.9,295.8 L 88.3,296.7 L 87.8,297.5 L 87.1,298.2 L 86.5,299.0 L 86.0,299.6 L 85.7,300.3 L 85.7,300.7 L 85.5,300.9 L 85.2,301.2 L 84.9,301.6 L 84.9,301.7 L 84.8,301.8 L 84.6,302.0 L 84.5,302.3 L 84.6,302.6 L 84.8,303.0 L 84.8,303.2 L 84.5,303.5 L 84.4,303.6 L 84.3,303.6 L 83.5,303.5 L 82.7,303.7 L 81.7,303.7 L 81.0,303.9 L 80.6,304.2 L 80.1,304.7 L 79.8,305.4 L 79.6,305.9 L 79.5,306.2 L 79.4,306.8 L 79.4,306.9 L 79.2,307.2 L 79.0,308.0 L 78.6,308.7 L 78.2,309.0 L 77.7,309.4 L 77.4,309.8 L 77.3,310.2 L 77.3,310.5 L 77.3,310.8 L 77.0,311.1 L 76.4,311.9 L 75.9,312.7 L 75.5,313.6 L 75.2,314.2 L 74.6,315.1 L 74.0,315.9 L 73.5,316.7 L 73.2,317.2 L 72.9,318.1 L 72.8,318.5 L 72.3,318.9 L 71.8,318.9 L 71.4,319.2 L 71.0,319.9 L 70.8,320.3 L 70.1,321.0 L 69.5,321.8 L 68.9,322.5 L 68.4,323.3 L 68.2,323.4 L 67.9,323.4 L 67.7,323.7 L 67.4,324.1 L 66.7,324.5 L 66.2,324.9 L 66.0,325.2 L 66.0,325.6 L 66.1,325.8 L 66.3,326.2 L 66.1,326.4 L 65.9,326.5 L 65.6,326.7 L 65.0,326.7 L 64.4,326.7 L 63.6,326.8 L 63.3,327.1 L 62.9,327.6 L 62.6,328.0 L 61.9,328.7 L 61.2,329.4 L 60.9,329.5 L 60.6,329.5 L 60.2,329.5 L 59.6,329.7 L 58.7,330.1 L 57.8,330.4 L 56.9,330.6 L 56.7,330.6 L 56.7,330.6 L 56.6,330.6 L 55.9,331.0 L 55.4,330.9 L 54.9,331.2 L 54.2,331.1 L 53.9,331.2 L 52.9,331.6 L 52.6,331.6 L 52.4,331.8 L 52.2,331.9 L 52.0,331.9 L 51.7,332.0 L 50.8,332.5 L 50.0,333.1 L 49.2,333.7 L 48.5,334.5 L 47.9,335.1 L 47.5,335.8 L 47.1,336.8 L 46.6,337.6 L 46.4,338.3 L 46.4,338.7 L 46.4,338.8 L 46.6,339.8 L 46.6,339.9 L 46.4,340.0 L 45.8,340.6 L 45.1,340.9 L 44.7,341.0 L 44.2,340.9 L 43.9,340.5 L 43.3,339.7 L 43.1,339.2 L 43.1,338.7 L 43.2,338.3 L 43.1,338.1 L 42.8,337.9 L 42.1,336.8 L 42.0,336.7 L 41.9,336.6 L 41.3,336.5 L 40.9,336.4 L 40.8,336.4 L 40.7,336.3 L 40.6,336.0 L 40.5,336.0 L 40.3,335.8 L 40.3,335.5 L 40.3,335.5 L 40.3,335.1 L 40.2,334.9 L 40.2,334.5 L 40.2,333.9 L 40.2,333.8 L 40.3,333.1 L 40.4,332.8 L 40.3,332.8 L 40.3,332.6 L 40.2,332.5 L 40.1,332.2 L 40.0,331.8 L 40.0,331.4 L 40.2,331.1 L 40.4,330.7 L 40.7,330.7 L 40.9,330.4 L 41.4,329.8 L 42.1,329.2 L 43.0,328.7 L 43.4,328.4 L 43.7,328.0 L 43.9,327.6 L 44.1,326.6 L 44.3,326.2 L 44.6,325.8 L 45.0,325.5 L 45.4,325.1 L 45.8,324.7 L 45.8,324.7 L 46.6,324.0 L 46.9,323.6 L 47.2,322.9 L 47.3,322.6 L 47.6,322.2 L 48.2,321.8 L 49.1,321.3 L 49.6,320.9 L 50.0,320.2 L 50.2,319.9 L 50.3,319.7 L 50.5,319.0 L 50.9,318.5 L 51.4,318.2 L 52.0,317.9 L 52.4,317.8 L 53.3,318.0 L 53.4,318.0 L 54.1,318.0 L 54.6,317.8 L 55.4,317.3 L 55.8,316.9 L 56.2,316.2 L 56.3,315.8 L 56.4,315.1 L 56.7,314.7 L 57.0,314.3 L 57.8,313.7 L 58.7,313.2 L 59.3,312.8 L 59.7,312.3 L 60.1,311.6 L 60.6,310.7 L 61.1,309.8 L 61.5,308.9 L 62.0,308.1 L 62.4,307.2 L 62.7,306.3 L 63.0,305.6 L 63.5,304.9 L 64.0,304.4 L 64.3,303.5 L 64.6,302.7 L 64.7,301.8 L 64.9,300.9 L 64.8,300.1 L 64.8,299.1 L 64.9,298.5 L 65.2,297.7 L 65.7,296.8 L 66.1,295.9 L 66.4,295.0 L 66.6,294.8 L 67.0,294.6 L 67.3,294.5 L 67.7,294.2 L 68.1,293.6 L 68.5,293.3 L 69.4,292.9 L 69.8,292.5 L 69.9,292.3 L 69.9,291.9 L 69.9,291.8 L 69.9,291.5 L 70.1,291.2 L 70.5,290.3 L 71.1,289.5 L 71.8,288.8 L 72.4,288.0 L 73.0,287.2 L 73.4,286.9 L 73.7,286.8 L 73.9,286.8 L 74.1,286.6 L 74.5,285.8 L 75.0,285.1 L 75.6,284.4 L 76.3,283.6 L 76.8,282.9 L 77.0,282.5 L 77.0,282.1 L 76.8,281.1 L 76.9,280.6 L 76.9,280.4 L 77.1,279.8 L 77.3,279.3 L 77.4,278.9 L 77.4,278.8 L 77.8,278.0 L 78.1,277.2 L 78.7,276.4 L 79.4,275.6 L 80.0,274.9 L 80.3,274.2 L 80.6,273.2 L 80.9,272.6 L 81.3,272.2 L 82.0,271.5 L 82.8,270.9 L 83.1,270.5 L 83.4,270.0 L 83.7,269.8 L 84.1,269.7 L 84.9,269.1 L 85.3,268.6 L 85.8,267.7 L 85.9,267.2 L 85.9,266.6 L 86.0,265.7 L 86.1,264.8 L 86.5,263.8 L 86.8,262.8 L 87.1,262.0 L 87.7,261.2 L 88.3,260.5 L 88.8,259.7 L 88.9,259.2 L 88.9,258.2 L 88.9,257.9 L 88.9,257.6 L 89.0,257.3 L 89.1,257.3 L 89.3,257.0 L 89.2,256.8 L 89.1,256.4 L 89.1,256.0 L 89.3,255.5 L 89.6,254.9 L 89.6,254.6 L 89.6,254.5 L 89.4,253.6 L 89.6,253.0 L 90.0,252.1 L 90.0,251.8 L 90.0,251.3 L 89.9,250.8 L 89.7,250.1 L 89.5,249.7 L 89.4,249.4 L 89.4,249.3 L 89.3,248.6 L 89.4,248.2 L 89.8,247.3 L 90.3,246.5 L 90.6,246.1 L 91.0,245.8 L 91.4,245.7 L 91.7,245.7 L 92.1,245.8 L 92.3,246.0 L 92.7,245.8 L 93.1,245.6 L 93.3,245.2 L 93.4,244.7 L 93.4,243.7 L 93.4,243.0 L 93.4,242.5 L 93.4,241.7 L 93.6,240.9 L 93.9,240.0 L 94.0,239.4 L 94.0,238.4 L 94.0,237.4 L 93.9,236.6 L 93.7,236.1 L 93.5,235.8 L 93.1,235.6 L 92.6,235.6 L 92.5,235.4 L 92.5,235.0 L 92.4,235.0 L 92.0,235.4 L 91.9,235.3 L 91.7,234.9 L 91.5,234.8 L 91.5,234.5 L 90.9,233.9 L 90.5,233.3 L 90.3,232.6 L 90.0,231.7 L 89.9,231.0 L 90.0,230.4 L 90.2,229.9 L 90.3,229.5 L 90.7,228.6 L 91.1,228.1 L 91.3,227.9 L 91.7,227.9 L 91.8,227.7 L 91.6,227.2 L 91.6,226.9 L 91.3,226.0 L 91.1,225.3 L 91.1,225.2 L 90.9,224.7 L 90.8,224.3 L 90.6,223.9 L 90.6,223.6 L 90.7,223.3 L 90.8,223.3 L 91.0,223.1 L 91.5,223.1 L 91.8,223.0 L 91.9,222.8 L 92.2,222.3 L 92.6,221.8 L 92.7,221.6 L 92.8,221.4 L 93.0,220.9 L 93.4,220.0 L 93.5,219.5 L 93.5,218.9 L 93.4,218.4 L 92.9,217.6 L 92.7,216.8 L 92.7,216.4 L 93.0,215.7 L 93.3,214.8 L 93.5,213.9 L 93.7,213.7 L 93.8,213.6 L 94.6,213.0 L 95.2,212.6 L 95.8,212.3 L 96.2,211.9 L 96.6,211.4 L 96.8,210.9 L 96.9,209.9 L 97.1,209.2 L 97.2,208.8 L 97.2,208.7 L 97.2,207.8 L 97.2,206.8 L 97.2,205.9 L 97.2,205.3 L 97.4,204.8 L 97.7,204.4 L 98.2,204.2 L 98.6,204.2 L 98.8,204.1 L 99.1,203.9 L 99.4,203.3 L 99.7,202.5 L 99.7,202.0 L 99.6,201.6 L 99.5,201.5 L 99.5,201.4 L 99.3,201.0 L 99.3,200.7 L 99.4,200.5 L 99.5,200.2 L 100.1,199.7 L 100.8,199.0 L 101.3,198.6 L 101.6,198.4 L 102.3,197.7 L 102.9,197.1 L 103.6,196.4 L 104.2,195.6 L 104.6,195.1 L 105.2,194.9 L 106.0,194.2 L 106.6,193.7 L 106.6,193.7 L 106.7,193.7 L 106.9,193.7 L 107.2,193.9 L 107.7,193.9 L 108.7,193.7 L 109.2,193.5 L 109.7,193.5 L 110.5,193.3 L 111.3,193.1 L 112.2,192.9 L 112.6,192.8 L 113.2,192.8 L 114.0,192.5 L 114.1,192.5 L 114.6,192.3 L 114.9,192.0 L 115.2,191.3 L 115.5,190.9 L 115.9,190.5 L 116.4,190.1 L 116.6,189.7 L 116.8,189.3 L 116.9,189.0 L 117.3,188.6 L 117.7,188.3 L 117.8,188.2 L 118.6,187.8 L 119.3,187.0 L 120.0,186.5 L 121.0,186.2 L 121.3,186.2 L 121.6,186.2 L 122.2,186.4 L 122.9,186.4 L 123.3,186.3 L 123.7,186.1 L 124.5,185.3 L 125.0,185.1 L 125.9,184.7 L 126.3,184.5 L 126.8,184.5 L 127.6,184.5 L 128.6,184.2 L 129.6,184.0 L 130.5,183.8 L 131.4,183.5 L 132.3,183.1 L 132.5,183.1 L 132.6,183.2 L 133.4,183.0 L 133.6,182.8 L 133.7,182.6 L 134.4,182.3 L 135.3,181.9 L 136.0,181.5 L 136.8,181.0 L 137.6,180.4 L 138.1,180.1 L 138.6,180.0 L 138.8,180.1 L 139.3,180.5 L 139.5,180.6 L 140.1,180.9 L 140.7,181.1 L 141.4,181.0 L 142.4,180.7 L 142.9,180.7 L 143.2,180.8 L 143.4,180.8 L 143.5,180.8 L 143.9,180.6 L 144.7,180.1 L 145.4,179.7 L 145.9,179.7 L 146.7,179.6 L 147.6,179.3 L 147.8,179.2 L 147.9,179.2 L 148.5,178.9 L 149.2,178.7 L 149.5,178.5 L 150.3,178.0 L 150.6,177.8 L 151.2,177.6 L 151.6,177.6 L 152.2,177.7 L 152.4,177.7 L 152.7,177.6 L 153.2,177.4 L 154.0,176.8 L 154.4,176.9 L 154.8,176.9 L 155.4,176.9 L 155.9,176.9 L 156.5,176.8 L 157.2,176.8 L 158.0,176.6 L 158.3,176.5 L 159.0,176.8 L 159.7,176.9 L 160.7,177.1 L 161.0,177.2 L 161.4,177.5 L 161.9,177.6 L 162.9,177.8 L 163.2,177.7 L 163.6,177.5 L 163.7,177.4 L 164.2,176.8 L 164.4,176.5 L 164.5,175.4 L 164.6,175.1 L 164.9,174.8 L 165.3,174.6 L 165.8,174.6 L 166.6,174.6 L 167.2,174.4 L 168.2,174.6 L 168.7,174.7 L 168.7,174.8 L 168.8,175.1 L 169.0,175.3 L 169.9,175.8 L 170.1,175.9 L 170.3,176.2 L 170.5,176.4 L 170.7,176.4 L 171.0,176.2 L 171.2,176.3 L 171.5,176.5 L 172.1,176.5 L 172.5,176.6 L 173.3,176.3 L 173.7,176.4 L 174.1,176.3 L 174.8,176.2 L 175.3,175.9 L 175.7,175.7 L 175.8,175.9 L 176.0,176.0 L 176.2,176.0 L 176.4,175.9 L 176.8,175.8 L 178.0,175.3 L 179.0,174.7 L 180.2,174.2 L 180.7,174.1 L 181.9,173.3 L 183.1,172.6 L 184.3,171.8 L 184.9,171.5 L 185.3,171.2 L 185.6,170.8 L 186.1,170.4 L 186.8,169.3 L 187.2,168.8 L 187.4,168.6 L 187.4,168.5 L 188.2,168.2 L 188.8,168.0 L 189.2,167.8 L 190.2,167.0 L 190.8,166.5 L 191.3,166.0 L 192.2,164.8 L 192.6,164.3 L 192.8,163.7 L 193.2,162.4 L 193.3,161.9 L 193.4,161.7 L 193.3,161.5 L 193.3,161.4 L 193.3,161.1 L 193.2,160.8 L 193.0,160.7 L 192.8,160.6 L 192.6,160.4 L 192.5,160.1 L 192.3,159.7 L 192.1,159.4 L 191.9,158.7 L 191.8,157.7 L 191.6,156.9 L 191.7,156.6 L 191.8,156.6 L 192.1,156.1 L 192.2,155.8 L 192.1,154.8 L 192.0,153.8 L 191.8,152.9 L 191.8,152.2 L 192.1,151.2 L 192.1,151.0 L 192.0,150.3 L 192.3,149.8 L 192.6,149.4 L 192.7,149.3 L 192.9,149.0 L 192.9,148.8 L 192.9,148.5 L 193.1,148.2 L 193.2,147.2 L 193.2,146.7 L 193.1,146.2 L 193.3,146.0 L 193.3,145.9 L 193.6,145.5 L 193.8,144.6 L 193.8,144.2 L 193.7,143.8 L 193.7,143.5 L 193.5,143.0 L 193.3,142.3 L 193.0,141.4 L 193.0,140.9 L 193.1,139.9 L 193.2,139.3 L 193.3,138.8 L 193.3,138.0 L 193.6,137.1 L 193.7,136.6 L 193.9,136.3 L 194.6,135.6 L 195.2,135.0 L 195.4,134.8 L 195.7,134.7 L 196.0,134.7 L 195.9,135.0 L 196.7,135.3 L 196.7,135.2 L 196.7,135.1 L 197.0,135.1 L 197.7,135.0 L 198.4,134.7 L 199.0,134.5 L 199.9,134.2 L 200.8,133.9 L 201.8,133.6 L 202.5,133.4 L 202.9,133.2 L 203.4,132.6 L 203.7,132.1 L 203.9,131.9 L 204.3,131.7 L 204.9,131.0 L 205.2,130.7 L 205.6,130.3 L 205.8,129.7 L 206.0,129.4 L 206.3,128.8 L 206.6,128.7 L 206.8,128.5 L 207.2,128.1 L 207.2,128.1 L 207.4,128.0 L 208.4,128.0 L 209.4,127.7 L 209.7,127.7 L 210.7,127.3 L 211.4,127.0 L 212.3,126.4 L 212.9,126.1 L 213.8,125.7 L 214.7,125.3 L 215.0,125.2 L 215.5,125.2 L 215.9,125.0" fill="none" stroke="black" stroke-width="2"/>
</svg>