<?xml version="1.0" encoding="UTF-8"?>
<svg width="400" height="400" viewBox="0 0 400 400" xmlns="http://www.w3.org/2000/svg">
  <rect width="400" height="400" fill="white"/>
  <path d="M 102.5,360.0 L 100.0,336.2 L 87.0,215.3 L 74.0,94.3 L 69.3,50.5 L 68.9,46.1 L 68.7,44.4 L 68.2,40.0 L 147.0,40.0 L 268.0,111.2 L 329.7,140.1 L 331.8,141.1 L 331.0,144.3 L 327.0,160.9 L 325.9,165.7 L 314.0,215.3 L 307.6,241.9 L 307.0,241.8 L 304.7,242.3 L 303.9,242.3 L 303.6,242.5 L 302.5,242.3 L 302.1,241.9 L 301.3,242.2 L 300.9,242.3 L 300.1,242.5 L 300.0,242.8 L 299.5,243.0 L 298.4,243.1 L 298.3,243.3 L 298.5,243.7 L 297.8,243.7 L 297.2,244.1 L 296.4,243.9 L 296.0,244.5 L 295.8,244.5 L 295.7,244.1 L 295.2,244.1 L 294.7,244.5 L 294.6,245.0 L 294.0,245.2 L 293.8,245.4 L 294.3,246.0 L 293.1,245.9 L 292.8,246.2 L 292.4,246.1 L 292.2,245.7 L 292.0,245.7 L 291.8,245.7 L 291.4,246.1 L 291.1,246.4 L 291.2,247.2 L 291.8,247.8 L 292.9,248.6 L 293.7,248.6 L 293.9,248.8 L 294.4,249.1 L 294.7,249.1 L 294.9,249.2 L 294.9,249.5 L 294.6,249.6 L 294.5,249.3 L 294.4,249.2 L 293.9,248.9 L 293.7,248.9 L 293.5,249.3 L 292.8,249.3 L 292.8,249.9 L 293.1,250.2 L 294.0,250.8 L 294.8,250.8 L 296.1,250.2 L 296.1,249.8 L 296.2,249.8 L 296.4,249.9 L 297.4,250.2 L 298.4,250.5 L 298.6,250.8 L 298.7,250.9 L 298.4,250.8 L 297.4,251.2 L 295.8,251.0 L 295.8,251.3 L 296.1,251.6 L 296.2,252.2 L 296.8,252.2 L 297.3,252.1 L 298.0,251.7 L 298.3,252.0 L 298.7,252.0 L 299.3,251.6 L 299.5,251.3 L 299.7,251.1 L 299.8,251.3 L 301.4,251.4 L 303.5,252.4 L 302.9,252.5 L 302.4,252.7 L 300.7,252.7 L 299.5,253.3 L 299.1,253.6 L 298.0,253.4 L 296.4,253.5 L 296.0,253.6 L 295.5,254.3 L 294.5,254.0 L 293.8,254.3 L 293.6,255.3 L 293.7,255.7 L 294.1,256.0 L 294.3,256.3 L 294.6,256.4 L 295.0,256.7 L 294.9,257.0 L 295.6,257.7 L 295.9,257.8 L 296.4,257.9 L 296.8,258.4 L 297.2,258.4 L 298.0,259.0 L 298.6,259.1 L 299.2,259.2 L 300.3,258.6 L 301.0,258.1 L 301.2,258.2 L 301.2,258.9 L 300.9,259.2 L 300.6,259.3 L 300.5,259.5 L 300.0,259.9 L 299.4,260.0 L 298.0,260.3 L 298.2,260.8 L 297.4,260.7 L 297.3,261.1 L 297.8,261.8 L 298.3,262.2 L 298.7,262.6 L 299.6,263.2 L 300.2,263.1 L 300.2,263.0 L 299.9,262.5 L 299.6,262.4 L 299.4,262.1 L 299.6,261.9 L 299.1,261.0 L 300.0,261.1 L 300.0,261.4 L 301.5,261.5 L 301.8,261.3 L 302.0,260.8 L 302.2,260.0 L 302.5,259.9 L 303.2,260.0 L 303.4,259.9 L 304.0,260.0 L 304.1,260.4 L 303.9,261.2 L 303.7,261.5 L 303.2,261.6 L 302.8,262.0 L 302.0,261.9 L 301.9,262.5 L 302.3,262.9 L 302.3,263.4 L 302.8,264.1 L 302.8,264.4 L 302.8,264.6 L 302.9,264.6 L 303.3,264.9 L 303.3,265.0 L 303.6,265.3 L 305.0,265.5 L 305.0,265.7 L 304.5,266.1 L 304.4,266.5 L 305.5,267.8 L 305.8,267.8 L 306.1,267.4 L 306.6,266.3 L 306.9,265.0 L 307.2,265.3 L 308.4,266.5 L 308.3,266.6 L 308.6,266.8 L 308.6,266.7 L 323.1,280.6 L 323.2,280.7 L 323.1,280.7 L 322.9,281.7 L 323.3,282.3 L 323.8,282.7 L 324.3,282.8 L 324.7,282.9 L 325.0,282.9 L 324.8,283.2 L 324.6,283.7 L 324.4,284.0 L 324.7,284.4 L 325.5,290.4 L 325.2,290.3 L 324.4,290.8 L 324.3,291.0 L 323.5,291.8 L 323.4,292.5 L 323.6,292.8 L 324.5,292.8 L 324.9,292.5 L 325.2,292.6 L 325.3,292.8 L 325.6,293.0 L 325.7,293.3 L 325.9,293.3 L 326.0,294.0 L 325.9,294.1 L 325.8,294.6 L 326.2,295.2 L 327.1,295.9 L 327.0,296.4 L 327.3,297.2 L 327.3,298.0 L 327.1,298.3 L 327.2,299.3 L 327.2,299.6 L 326.9,299.6 L 326.5,299.8 L 326.5,300.5 L 326.1,300.5 L 325.7,300.4 L 325.4,300.6 L 324.5,300.4 L 324.1,300.1 L 323.4,300.2 L 323.0,300.6 L 322.7,300.6 L 322.5,300.6 L 322.4,301.0 L 322.6,301.2 L 323.3,301.8 L 323.6,302.0 L 324.8,301.6 L 324.8,301.8 L 323.5,302.2 L 323.1,302.6 L 323.3,303.0 L 322.9,303.2 L 322.4,303.2 L 322.4,303.2 L 321.6,303.6 L 321.0,304.4 L 320.8,304.9 L 321.0,305.8 L 321.4,306.1 L 321.3,306.6 L 321.6,307.1 L 321.7,307.1 L 322.0,307.4 L 321.9,309.0 L 322.6,309.1 L 322.8,309.3 L 323.3,309.6 L 323.8,309.7 L 324.3,309.3 L 324.8,309.3 L 325.3,308.8 L 325.2,308.4 L 324.9,307.9 L 324.9,307.7 L 331.2,313.1 L 331.2,313.3 L 331.2,313.3 L 307.1,313.7 L 307.2,313.3 L 307.0,312.3 L 306.5,311.5 L 306.2,310.9 L 305.7,310.6 L 302.8,310.2 L 302.0,310.2 L 301.5,310.5 L 300.6,311.3 L 300.4,312.7 L 300.6,313.2 L 301.4,314.2 L 300.5,314.2 L 300.2,313.9 L 298.5,314.0 L 298.3,315.8 L 298.5,316.1 L 298.0,316.5 L 298.2,316.8 L 298.0,317.2 L 297.6,317.6 L 297.8,318.2 L 297.6,318.3 L 297.2,318.6 L 297.1,319.0 L 296.8,319.2 L 296.7,319.5 L 296.1,321.9 L 295.8,322.2 L 295.4,322.6 L 295.1,323.4 L 294.9,323.4 L 257.2,335.7 L 255.6,336.2 L 221.3,347.4 L 221.3,347.4 L 221.1,346.9 L 220.5,346.4 L 220.3,346.2 L 219.7,346.4 L 219.4,346.6 L 219.3,347.4 L 218.8,347.6 L 218.3,347.6 L 218.0,347.4 L 217.3,347.3 L 216.8,346.9 L 216.7,347.0 L 216.5,347.2 L 215.6,346.3 L 214.4,346.4 L 214.2,346.4 L 214.0,346.4 L 213.8,347.0 L 214.0,347.2 L 214.6,348.1 L 214.3,348.4 L 214.5,348.6 L 214.5,349.3 L 214.7,349.5 L 214.9,349.6 L 215.0,349.5 L 215.3,349.5 L 215.4,349.6 L 215.1,350.0 L 214.9,350.5 L 214.5,351.1 L 214.8,351.1 L 215.1,351.4 L 214.9,352.0 L 214.9,352.4 L 215.6,352.3 L 216.0,352.0 L 216.4,352.2 L 217.0,352.3 L 217.0,352.7 L 217.4,352.8 L 217.4,353.3 L 217.2,353.8 L 216.9,354.2 L 216.7,354.7 L 216.8,354.9 L 216.3,355.3 L 216.2,355.6 L 216.0,355.7 L 215.6,356.6 L 215.6,356.7 L 215.5,357.6 L 214.9,357.9 L 214.1,357.6 L 213.8,357.2 L 213.8,356.6 L 213.3,356.6 L 213.0,356.3 L 212.5,356.6 L 212.1,356.9 L 211.9,357.1 L 211.9,357.4 L 211.2,357.5 L 209.9,357.3 L 208.9,357.5 L 208.3,357.8 L 207.8,357.9 L 206.7,358.4 L 206.5,358.6 L 207.0,359.3 L 207.0,359.6 L 206.6,359.7 L 205.3,358.7 L 206.2,358.1 L 206.9,357.4 L 206.6,357.1 L 206.1,357.0 L 205.4,356.3 L 205.5,356.1 L 206.0,355.9 L 206.5,356.1 L 207.3,356.2 L 207.7,356.3 L 207.8,356.6 L 207.5,356.8 L 207.4,357.1 L 207.8,357.1 L 208.0,356.9 L 208.3,356.7 L 208.6,356.6 L 208.9,356.0 L 209.4,355.7 L 210.4,354.6 L 210.8,354.0 L 210.8,353.4 L 209.8,352.6 L 209.4,352.4 L 209.2,352.5 L 208.6,352.5 L 207.9,352.3 L 207.7,352.1 L 207.0,352.3 L 205.2,350.6 L 205.7,350.1 L 206.0,350.2 L 206.4,350.5 L 206.9,350.6 L 207.2,350.4 L 207.6,350.5 L 208.4,350.2 L 208.6,350.2 L 208.7,350.4 L 209.0,350.9 L 210.5,351.0 L 210.8,350.8 L 210.7,350.6 L 209.8,350.2 L 209.4,349.1 L 209.1,348.8 L 208.9,348.8 L 208.9,348.5 L 209.1,348.2 L 209.8,348.3 L 210.2,348.1 L 210.2,347.9 L 210.0,347.8 L 209.6,347.7 L 209.7,347.1 L 210.1,346.9 L 210.1,346.8 L 210.4,346.3 L 210.1,345.8 L 209.4,345.7 L 209.3,345.3 L 209.5,345.0 L 210.0,345.0 L 210.2,344.4 L 209.8,343.8 L 209.0,343.6 L 208.5,343.7 L 208.4,344.1 L 208.4,344.6 L 208.2,345.0 L 207.9,345.0 L 207.4,345.1 L 207.3,344.8 L 207.0,344.6 L 206.1,344.3 L 205.5,344.2 L 204.9,344.0 L 204.9,344.2 L 205.3,344.6 L 205.5,344.6 L 205.7,344.8 L 205.7,345.3 L 205.4,345.3 L 205.2,345.4 L 205.0,345.7 L 204.4,345.9 L 203.2,346.0 L 201.9,345.4 L 201.0,345.2 L 200.9,345.4 L 200.2,346.0 L 200.4,347.0 L 200.0,347.3 L 199.8,347.7 L 200.0,348.0 L 200.0,348.3 L 200.2,348.6 L 200.4,348.9 L 200.4,349.1 L 200.1,349.2 L 199.6,348.9 L 199.2,348.8 L 199.0,349.2 L 198.4,349.2 L 198.2,349.0 L 198.1,349.1 L 196.7,349.0 L 196.5,349.4 L 196.7,349.9 L 196.3,350.4 L 195.8,350.4 L 195.6,350.8 L 196.3,351.1 L 196.5,351.6 L 195.8,352.0 L 194.4,352.4 L 194.6,352.7 L 194.4,353.1 L 194.4,353.7 L 194.6,354.0 L 194.5,354.4 L 194.8,354.4 L 195.5,354.2 L 196.9,353.9 L 197.6,353.6 L 197.7,352.8 L 197.6,352.6 L 198.0,352.6 L 198.5,352.6 L 199.0,353.0 L 198.5,353.5 L 197.9,353.7 L 198.0,354.4 L 198.7,355.5 L 198.0,355.7 L 197.5,355.7 L 197.1,355.3 L 196.0,355.0 L 195.8,354.5 L 195.4,354.4 L 194.9,354.6 L 194.9,354.8 L 194.5,355.0 L 194.2,355.1 L 193.5,355.6 L 193.5,356.0 L 193.3,356.6 L 193.6,356.9 L 193.0,357.1 L 192.6,357.5 L 191.5,358.0 L 190.6,357.9 L 189.8,358.0 L 189.3,358.0 L 189.2,357.9 L 189.5,357.7 L 189.7,357.5 L 190.2,357.4 L 190.8,357.1 L 190.6,356.8 L 189.5,356.7 L 189.3,356.5 L 188.8,356.7 L 187.5,356.4 L 187.3,355.9 L 186.6,355.3 L 186.4,354.5 L 186.3,354.0 L 185.8,353.6 L 186.0,353.3 L 186.1,353.3 L 186.5,353.2 L 186.7,353.0 L 186.6,352.7 L 186.7,352.6 L 187.2,352.7 L 187.4,352.3 L 187.3,352.0 L 187.5,351.8 L 187.6,351.4 L 188.0,350.9 L 188.1,350.6 L 188.7,350.0 L 188.8,349.6 L 189.3,349.5 L 189.5,349.2 L 189.4,349.0 L 189.8,348.5 L 189.2,348.3 L 189.1,348.2 L 188.7,348.1 L 187.0,348.1 L 187.1,347.9 L 188.5,347.0 L 188.2,346.8 L 187.8,346.6 L 186.8,346.4 L 186.3,346.7 L 186.1,346.7 L 185.9,345.9 L 185.7,345.7 L 186.1,345.4 L 186.0,345.1 L 186.2,344.7 L 186.5,344.2 L 186.8,344.0 L 186.9,343.7 L 187.8,343.1 L 187.4,342.7 L 186.6,342.3 L 186.6,341.9 L 186.3,341.8 L 186.3,341.4 L 185.9,341.2 L 185.8,341.1 L 185.8,340.5 L 185.2,340.6 L 185.0,340.4 L 185.3,340.1 L 186.0,339.7 L 186.1,339.2 L 185.6,338.5 L 185.9,338.1 L 185.8,337.7 L 186.3,337.4 L 186.7,337.3 L 187.4,336.8 L 186.9,335.7 L 186.2,335.1 L 185.5,335.6 L 185.4,335.9 L 185.4,336.6 L 184.8,337.2 L 184.4,337.5 L 183.2,337.2 L 182.0,338.0 L 181.5,338.1 L 180.9,338.6 L 180.3,338.3 L 179.6,338.2 L 178.7,338.7 L 178.5,339.7 L 177.8,339.7 L 177.9,339.6 L 177.6,339.1 L 177.1,339.0 L 176.8,339.2 L 176.6,339.5 L 176.5,340.0 L 176.6,340.6 L 176.3,340.7 L 176.2,340.5 L 175.8,340.7 L 175.6,341.1 L 175.2,341.2 L 174.8,341.4 L 174.1,341.6 L 171.6,343.2 L 171.0,343.3 L 170.5,343.3 L 169.2,344.0 L 168.5,344.1 L 168.4,344.3 L 168.3,344.8 L 168.2,345.2 L 168.5,345.2 L 169.1,344.9 L 172.2,343.4 L 172.5,343.2 L 173.8,343.1 L 175.5,342.6 L 176.1,342.1 L 176.5,341.3 L 177.1,341.1 L 177.4,340.9 L 177.8,340.8 L 177.6,340.9 L 177.2,341.2 L 177.0,341.6 L 176.3,342.3 L 176.0,342.8 L 175.3,343.4 L 174.7,343.6 L 174.4,343.8 L 173.5,344.1 L 172.7,344.1 L 172.4,344.3 L 171.7,344.5 L 171.7,345.2 L 170.9,345.7 L 170.3,346.6 L 169.8,347.0 L 169.2,347.0 L 168.5,347.8 L 169.0,348.4 L 169.5,348.3 L 170.0,348.6 L 170.2,348.9 L 170.9,349.3 L 170.6,349.5 L 170.4,350.1 L 171.3,350.4 L 171.3,350.8 L 170.1,351.6 L 169.4,351.5 L 169.2,351.3 L 168.9,351.4 L 168.4,351.9 L 167.8,351.9 L 167.4,351.4 L 167.1,351.5 L 167.0,351.7 L 166.3,352.2 L 166.3,352.3 L 166.0,353.8 L 166.2,354.0 L 160.5,354.5 L 160.5,354.5 L 160.2,353.5 L 160.0,353.4 L 159.8,353.4 L 158.9,353.7 L 159.0,354.0 L 158.6,354.3 L 158.9,354.7 L 136.2,356.8 L 102.5,360.0" fill="none" stroke="black" stroke-width="2"/>
</svg>