<?xml version="1.0" encoding="UTF-8"?>
<svg width="400" height="400" viewBox="0 0 400 400" xmlns="http://www.w3.org/2000/svg">
  <rect width="400" height="400" fill="white"/>
  <path d="M 82.2,178.4 L 82.2,177.9 L 82.1,177.0 L 83.5,177.5 L 84.8,177.8 L 85.6,178.2 L 86.0,178.4 L 86.1,178.2 L 88.5,176.2 L 89.8,175.3 L 90.1,174.7 L 90.4,173.3 L 90.9,173.0 L 90.9,172.2 L 90.3,171.4 L 90.4,170.6 L 89.9,170.0 L 89.9,169.4 L 89.9,168.9 L 91.0,169.3 L 91.7,168.7 L 92.4,168.3 L 92.8,168.5 L 93.8,169.6 L 94.6,169.5 L 95.2,169.2 L 95.7,169.2 L 96.5,167.7 L 97.8,166.4 L 97.1,165.6 L 98.4,163.1 L 98.3,162.5 L 98.5,162.0 L 99.2,161.6 L 100.1,161.1 L 100.8,159.7 L 100.7,158.6 L 100.8,158.2 L 100.3,157.8 L 100.0,155.8 L 98.5,153.7 L 98.3,153.3 L 97.6,153.1 L 97.3,152.6 L 97.3,152.0 L 96.3,151.8 L 94.1,152.3 L 93.9,152.0 L 93.3,151.8 L 92.6,151.9 L 92.3,152.6 L 92.4,153.3 L 92.2,154.3 L 92.5,154.8 L 92.4,155.3 L 92.7,156.6 L 92.6,157.8 L 93.1,158.9 L 93.0,159.7 L 92.8,159.8 L 91.9,158.7 L 91.3,158.6 L 90.9,157.9 L 90.9,157.3 L 90.1,156.3 L 89.5,154.7 L 88.6,154.3 L 87.9,154.2 L 87.4,153.8 L 85.4,153.3 L 84.2,153.8 L 84.0,152.5 L 85.8,152.6 L 86.1,152.3 L 86.1,150.8 L 84.6,149.3 L 84.3,148.3 L 83.4,147.3 L 83.3,147.3 L 81.8,136.6 L 82.5,137.5 L 83.6,137.4 L 84.1,136.9 L 85.3,136.7 L 86.5,135.9 L 87.1,134.7 L 88.5,134.9 L 89.3,135.3 L 90.4,136.2 L 91.4,136.2 L 93.6,135.1 L 95.2,134.8 L 97.0,135.6 L 97.8,135.2 L 98.9,134.9 L 99.6,134.1 L 100.1,133.9 L 100.6,133.6 L 101.9,132.1 L 102.1,130.8 L 103.0,130.9 L 104.4,130.3 L 105.3,129.5 L 105.9,129.3 L 107.1,128.7 L 107.2,128.3 L 107.6,127.8 L 107.4,126.2 L 107.1,125.8 L 107.4,125.1 L 107.9,124.6 L 108.0,122.8 L 107.4,122.3 L 107.0,122.1 L 106.2,120.7 L 105.6,120.5 L 105.8,118.8 L 104.8,117.8 L 102.6,116.3 L 101.8,115.9 L 100.6,116.3 L 100.4,116.7 L 99.8,117.1 L 99.5,117.6 L 100.0,118.4 L 98.5,119.0 L 97.7,119.7 L 97.4,120.7 L 97.6,122.3 L 98.5,123.3 L 99.8,123.5 L 100.7,124.0 L 100.1,124.6 L 99.4,125.8 L 99.6,126.6 L 99.1,127.0 L 97.7,126.9 L 97.3,126.4 L 94.5,126.0 L 94.5,125.7 L 93.9,125.4 L 92.6,124.9 L 91.4,124.1 L 87.9,123.6 L 85.4,124.2 L 81.8,126.2 L 80.6,126.9 L 79.5,128.6 L 79.4,129.5 L 79.1,129.8 L 79.0,129.7 L 53.0,104.8 L 53.2,104.5 L 52.7,104.3 L 52.5,104.4 L 50.3,102.3 L 49.8,101.8 L 50.0,101.2 L 51.5,99.8 L 52.1,99.4 L 53.7,97.9 L 54.0,96.4 L 54.7,95.9 L 54.5,94.5 L 55.6,93.8 L 56.5,93.1 L 57.5,92.3 L 58.3,91.4 L 58.4,90.9 L 58.0,89.4 L 58.1,89.0 L 57.6,88.8 L 57.5,87.7 L 58.3,87.5 L 58.7,86.2 L 59.1,85.6 L 58.7,84.7 L 58.6,83.6 L 57.9,83.0 L 57.1,81.4 L 56.6,80.7 L 56.2,80.7 L 56.1,79.6 L 54.9,78.7 L 52.5,79.0 L 52.2,78.3 L 52.3,77.4 L 51.9,77.0 L 50.8,76.8 L 48.7,78.2 L 46.7,77.8 L 44.6,78.8 L 43.8,79.0 L 40.0,77.2 L 42.4,77.3 L 42.9,77.2 L 44.7,77.5 L 47.9,76.1 L 49.3,75.7 L 49.9,75.7 L 50.8,75.4 L 51.6,74.7 L 52.5,74.2 L 53.0,73.7 L 52.7,73.3 L 52.8,72.7 L 53.2,72.4 L 53.0,71.9 L 53.8,71.4 L 54.6,71.3 L 54.7,70.1 L 54.2,69.7 L 54.0,69.4 L 54.3,67.3 L 53.3,66.1 L 53.3,65.5 L 104.4,60.4 L 104.4,60.4 L 104.3,60.8 L 104.1,61.2 L 105.3,62.4 L 106.0,63.9 L 107.4,66.1 L 108.4,67.4 L 108.6,67.5 L 108.3,69.2 L 107.8,69.6 L 107.1,69.6 L 105.6,69.0 L 105.2,68.6 L 104.8,68.9 L 105.5,70.2 L 105.1,70.5 L 104.9,71.2 L 105.2,71.7 L 104.2,72.1 L 104.0,72.9 L 104.9,74.3 L 104.5,74.7 L 104.6,75.4 L 106.8,77.8 L 107.6,79.1 L 106.9,79.9 L 106.7,81.1 L 106.2,81.5 L 106.2,82.8 L 106.7,84.3 L 106.6,84.8 L 106.5,85.1 L 107.0,85.4 L 107.1,86.0 L 106.6,85.3 L 106.3,85.3 L 105.8,84.8 L 105.8,83.7 L 105.9,82.0 L 106.2,80.9 L 105.7,80.3 L 104.8,79.0 L 104.2,78.6 L 104.1,78.1 L 104.7,77.7 L 104.5,77.4 L 102.5,77.0 L 101.5,76.5 L 100.3,76.2 L 100.1,76.7 L 100.4,77.7 L 100.3,78.3 L 99.9,78.4 L 99.6,79.2 L 100.0,79.8 L 99.6,83.4 L 100.8,84.9 L 101.0,85.8 L 100.6,86.5 L 100.9,88.3 L 101.8,89.4 L 102.2,89.5 L 104.0,91.4 L 105.1,91.2 L 105.2,91.5 L 105.8,91.8 L 107.0,91.9 L 107.3,92.3 L 106.5,93.0 L 105.9,93.1 L 105.3,91.7 L 104.4,91.6 L 103.5,91.5 L 103.0,91.6 L 102.7,92.9 L 102.6,94.6 L 102.9,96.2 L 103.9,98.3 L 104.1,99.3 L 105.1,101.1 L 105.2,101.7 L 105.7,102.7 L 106.3,102.4 L 106.8,102.3 L 107.1,103.1 L 107.2,104.3 L 107.5,104.7 L 107.5,105.2 L 107.9,105.7 L 108.2,106.6 L 109.1,108.3 L 109.5,110.2 L 109.9,111.0 L 110.7,111.2 L 111.7,111.1 L 112.1,110.8 L 113.9,110.5 L 114.9,110.2 L 115.0,110.9 L 115.4,111.0 L 116.1,112.2 L 116.4,112.8 L 117.0,113.9 L 116.6,114.2 L 116.7,115.0 L 117.6,116.2 L 118.0,117.5 L 118.7,118.3 L 119.3,118.6 L 120.3,118.6 L 121.3,118.4 L 122.0,117.8 L 122.4,117.6 L 122.3,117.0 L 123.9,115.9 L 124.9,115.9 L 125.8,115.5 L 126.2,115.8 L 125.8,117.3 L 125.1,118.5 L 125.6,119.2 L 126.8,119.4 L 127.8,121.2 L 128.0,122.3 L 128.6,123.2 L 129.1,124.6 L 129.8,125.7 L 129.7,126.3 L 130.0,126.9 L 130.8,128.0 L 131.4,128.0 L 131.7,127.7 L 131.5,127.1 L 134.3,127.5 L 134.6,127.8 L 135.2,127.2 L 135.2,126.6 L 135.3,125.8 L 135.3,123.9 L 136.5,123.4 L 136.1,121.0 L 135.3,119.6 L 135.6,117.1 L 135.4,116.3 L 135.0,116.1 L 134.8,115.1 L 135.9,115.0 L 136.2,114.6 L 136.4,112.8 L 136.8,112.4 L 136.4,111.0 L 136.1,110.7 L 135.6,111.4 L 135.6,112.0 L 133.6,111.4 L 132.2,108.5 L 131.7,108.5 L 130.9,107.6 L 132.0,107.8 L 132.7,108.1 L 133.6,107.4 L 133.3,105.0 L 134.5,105.1 L 134.9,104.3 L 134.2,103.1 L 133.7,102.6 L 134.3,101.6 L 134.3,100.8 L 133.7,99.4 L 133.1,99.0 L 132.9,98.6 L 132.0,98.5 L 131.6,97.9 L 131.3,97.3 L 130.1,96.7 L 129.6,96.2 L 128.3,95.9 L 127.1,94.9 L 128.3,94.0 L 130.2,93.5 L 130.5,92.9 L 131.0,92.8 L 130.8,92.4 L 130.3,91.4 L 130.7,88.9 L 130.1,88.1 L 129.2,85.6 L 129.4,84.3 L 128.7,83.5 L 128.3,83.3 L 127.8,82.8 L 125.4,81.7 L 125.1,81.1 L 126.1,79.2 L 125.3,77.8 L 124.6,77.2 L 124.2,76.6 L 123.7,75.4 L 121.5,73.2 L 119.8,72.8 L 118.9,72.5 L 118.5,72.5 L 118.5,72.0 L 118.0,71.3 L 118.1,69.6 L 117.5,68.8 L 117.6,68.2 L 117.1,67.0 L 116.1,66.1 L 115.6,66.1 L 115.0,65.4 L 114.9,64.7 L 114.1,64.3 L 113.5,64.2 L 113.2,64.2 L 113.3,63.3 L 113.1,62.6 L 177.7,64.3 L 226.3,65.7 L 225.8,66.1 L 225.2,66.3 L 225.0,66.7 L 225.1,67.5 L 225.6,67.9 L 226.0,68.0 L 226.9,68.6 L 227.8,68.8 L 229.3,69.8 L 230.4,70.1 L 231.8,69.9 L 233.5,69.9 L 234.5,70.6 L 235.5,71.0 L 236.5,70.6 L 238.8,71.5 L 239.1,71.8 L 237.7,72.3 L 237.3,72.1 L 236.2,72.1 L 236.1,72.4 L 236.2,72.9 L 235.5,73.5 L 236.4,75.3 L 238.1,76.5 L 237.8,77.5 L 236.4,77.1 L 235.3,76.0 L 234.3,75.8 L 233.5,74.6 L 231.2,74.3 L 230.7,74.0 L 230.2,74.1 L 230.0,74.5 L 230.7,75.9 L 233.0,77.9 L 236.5,78.5 L 238.7,80.4 L 240.0,80.3 L 240.6,81.0 L 239.5,81.4 L 241.9,83.8 L 242.3,84.1 L 241.1,85.0 L 241.2,85.4 L 241.2,85.7 L 240.3,85.7 L 239.9,85.4 L 238.9,85.1 L 237.9,85.6 L 237.8,86.2 L 237.8,87.3 L 239.4,89.4 L 239.0,89.8 L 238.7,90.6 L 239.3,91.8 L 241.9,94.9 L 241.8,95.9 L 242.0,96.7 L 244.8,100.4 L 245.8,101.2 L 246.0,101.7 L 246.4,102.3 L 246.6,102.9 L 246.2,103.3 L 246.1,103.8 L 246.6,104.9 L 246.3,105.2 L 246.7,105.8 L 246.7,106.2 L 247.6,107.0 L 247.1,107.2 L 246.9,107.8 L 248.0,109.8 L 248.9,110.4 L 249.6,110.2 L 251.1,112.6 L 250.6,113.4 L 249.8,113.4 L 249.3,113.2 L 248.6,113.3 L 246.9,113.2 L 247.2,112.5 L 245.4,111.2 L 242.7,108.0 L 242.2,107.3 L 242.3,106.6 L 241.9,106.2 L 242.8,105.8 L 243.0,104.7 L 242.8,104.1 L 241.9,103.1 L 241.7,102.3 L 241.7,101.6 L 241.5,101.1 L 241.6,99.3 L 240.9,98.4 L 239.5,97.2 L 238.7,95.3 L 238.1,94.9 L 238.0,94.4 L 235.6,91.4 L 234.9,90.1 L 234.7,89.6 L 233.7,88.2 L 233.7,87.5 L 233.1,86.6 L 232.8,85.5 L 231.8,84.6 L 231.2,84.0 L 230.5,81.9 L 230.2,80.4 L 229.3,79.0 L 228.3,78.7 L 227.5,77.8 L 227.5,77.2 L 226.5,76.7 L 224.8,76.3 L 224.2,76.4 L 222.9,77.2 L 222.6,77.9 L 223.0,79.3 L 223.3,79.8 L 223.7,79.9 L 224.2,80.2 L 223.5,81.0 L 223.2,81.6 L 223.3,82.3 L 223.8,82.8 L 225.0,85.4 L 226.1,87.0 L 226.7,88.5 L 226.8,89.1 L 226.0,89.2 L 225.6,91.3 L 226.1,91.4 L 226.9,93.4 L 226.9,93.8 L 227.6,94.3 L 226.7,95.4 L 226.6,96.0 L 227.9,97.3 L 228.6,97.4 L 229.4,98.1 L 231.1,100.4 L 233.0,101.1 L 233.3,101.6 L 234.5,102.5 L 234.3,102.8 L 232.0,102.6 L 231.4,103.0 L 231.3,103.4 L 231.8,104.3 L 231.8,105.0 L 230.7,105.4 L 230.5,106.3 L 230.6,107.0 L 231.0,108.2 L 231.5,108.4 L 232.3,109.2 L 232.9,110.4 L 233.6,110.5 L 234.0,110.9 L 234.4,111.1 L 235.3,112.1 L 235.3,112.9 L 236.4,114.5 L 237.1,115.0 L 237.2,115.5 L 237.7,116.2 L 238.2,117.6 L 239.2,118.0 L 239.2,118.5 L 240.5,120.3 L 241.1,120.3 L 241.3,120.6 L 241.4,121.2 L 241.3,122.5 L 242.0,123.9 L 241.9,125.4 L 243.4,128.3 L 243.3,128.7 L 242.4,128.9 L 242.1,129.4 L 242.6,129.6 L 243.6,131.3 L 243.8,132.4 L 243.5,132.8 L 242.6,133.0 L 242.1,132.4 L 242.6,131.8 L 241.7,130.7 L 240.9,130.1 L 240.2,129.0 L 239.1,128.6 L 238.6,127.1 L 237.3,125.3 L 236.4,125.1 L 235.8,124.2 L 235.1,124.3 L 234.7,123.7 L 233.9,123.7 L 233.7,123.6 L 232.9,123.2 L 232.5,123.2 L 232.2,122.8 L 231.9,123.0 L 232.1,123.7 L 233.0,123.8 L 233.6,124.9 L 235.0,126.3 L 235.4,127.2 L 237.2,129.5 L 237.8,129.8 L 237.9,130.6 L 238.3,131.5 L 239.5,133.4 L 240.0,134.7 L 241.3,137.2 L 240.8,137.2 L 239.3,136.4 L 239.1,137.7 L 242.8,140.4 L 244.9,143.5 L 246.6,145.3 L 248.9,146.6 L 249.1,147.3 L 249.0,148.4 L 249.7,149.3 L 250.9,150.4 L 251.3,150.5 L 251.5,151.0 L 252.8,152.0 L 254.6,153.0 L 256.1,153.3 L 256.3,153.6 L 257.0,153.9 L 257.7,153.7 L 257.9,154.2 L 258.7,155.0 L 260.0,156.7 L 261.1,157.6 L 261.9,157.6 L 262.5,156.2 L 263.5,155.8 L 264.5,155.9 L 264.5,155.3 L 264.0,154.8 L 263.9,154.0 L 264.2,153.6 L 264.5,151.0 L 264.3,150.3 L 264.6,148.7 L 265.2,148.5 L 265.1,147.4 L 265.0,146.6 L 265.4,145.2 L 266.0,144.8 L 266.4,144.6 L 266.5,143.9 L 264.8,142.2 L 264.8,141.2 L 265.0,138.9 L 264.2,138.2 L 264.4,137.4 L 264.8,137.4 L 265.1,136.7 L 265.6,136.1 L 265.4,134.9 L 264.6,134.4 L 264.2,132.9 L 263.9,132.5 L 263.8,131.7 L 263.2,130.2 L 263.4,128.6 L 263.3,127.7 L 263.6,126.9 L 264.6,127.4 L 265.3,127.3 L 265.3,127.0 L 264.5,125.8 L 264.5,125.2 L 263.8,124.1 L 263.7,123.6 L 263.9,122.7 L 263.2,120.8 L 262.6,120.2 L 262.1,120.7 L 261.3,120.7 L 260.7,119.8 L 259.5,119.6 L 258.6,119.2 L 257.0,118.6 L 256.9,117.9 L 257.1,117.7 L 257.2,117.8 L 257.9,117.9 L 258.4,117.7 L 259.1,118.0 L 259.6,118.8 L 260.2,118.7 L 260.6,118.5 L 260.6,117.1 L 261.3,117.5 L 261.7,117.4 L 261.9,116.1 L 261.5,115.3 L 261.7,114.2 L 261.5,112.9 L 260.2,112.3 L 260.9,111.7 L 260.9,110.8 L 261.1,110.6 L 261.7,111.3 L 262.6,111.4 L 262.6,110.9 L 262.2,110.3 L 261.8,110.1 L 261.5,109.7 L 260.5,109.4 L 260.6,108.8 L 261.2,108.7 L 261.5,107.5 L 261.9,107.2 L 260.8,105.2 L 260.7,104.5 L 260.3,103.5 L 259.8,102.8 L 259.5,102.7 L 259.7,102.2 L 260.2,102.1 L 259.5,99.6 L 258.9,99.5 L 258.4,98.8 L 258.4,98.2 L 257.7,97.6 L 257.7,96.9 L 257.6,96.5 L 257.8,96.1 L 258.0,94.5 L 256.9,92.9 L 257.4,91.9 L 255.2,90.0 L 254.8,88.9 L 253.6,88.8 L 253.7,86.8 L 255.6,87.5 L 255.7,88.0 L 256.7,87.8 L 257.1,87.4 L 257.1,86.8 L 256.2,85.5 L 255.0,85.2 L 254.4,84.6 L 254.2,83.9 L 253.1,82.7 L 252.6,81.6 L 251.8,81.2 L 251.3,80.2 L 249.2,78.6 L 248.9,78.1 L 249.0,77.8 L 249.7,77.9 L 249.4,77.3 L 249.7,77.3 L 250.1,77.6 L 250.2,77.3 L 250.0,76.7 L 250.2,76.6 L 250.8,77.0 L 250.9,77.4 L 250.9,78.1 L 251.7,78.7 L 252.7,78.7 L 253.8,78.3 L 254.0,77.9 L 254.3,77.9 L 254.3,77.1 L 253.8,76.0 L 252.9,76.2 L 251.9,75.6 L 251.1,75.4 L 250.9,75.4 L 249.2,75.4 L 249.0,75.5 L 248.1,75.4 L 247.9,75.2 L 248.5,74.7 L 248.7,74.0 L 249.0,74.2 L 249.2,74.9 L 250.1,75.1 L 251.8,74.7 L 252.6,75.2 L 253.8,75.4 L 254.4,75.0 L 255.8,75.7 L 256.6,76.5 L 257.4,77.0 L 257.7,77.8 L 258.2,78.1 L 259.4,79.9 L 259.9,80.3 L 260.8,81.2 L 262.3,80.8 L 263.1,80.0 L 263.2,82.1 L 264.0,83.7 L 263.5,86.3 L 264.5,87.9 L 264.8,89.3 L 265.5,90.3 L 265.4,91.6 L 265.6,92.1 L 267.6,93.3 L 268.3,92.4 L 268.1,92.0 L 267.8,91.4 L 268.0,90.8 L 269.8,90.9 L 269.9,90.5 L 271.3,90.5 L 271.5,91.0 L 269.9,91.9 L 268.6,93.2 L 268.3,93.2 L 267.5,94.1 L 267.4,95.3 L 267.5,97.5 L 268.1,99.2 L 268.3,99.5 L 269.0,99.3 L 269.9,99.4 L 270.0,100.3 L 268.6,101.5 L 268.8,102.2 L 269.0,103.8 L 269.7,104.3 L 269.6,105.6 L 269.8,106.4 L 269.8,107.0 L 270.3,108.4 L 271.0,109.6 L 270.9,110.6 L 272.1,111.6 L 272.7,112.4 L 273.5,114.1 L 273.8,114.7 L 274.7,115.5 L 274.6,116.8 L 276.3,119.3 L 276.3,120.1 L 276.0,120.8 L 275.4,121.0 L 275.2,121.8 L 275.6,123.1 L 275.6,123.8 L 276.4,126.4 L 277.1,126.6 L 277.1,127.0 L 277.0,129.1 L 277.1,129.9 L 278.6,132.1 L 278.6,133.9 L 278.1,134.4 L 277.8,136.3 L 278.1,137.0 L 278.1,137.6 L 279.5,141.5 L 279.4,143.6 L 279.8,144.0 L 279.9,146.1 L 280.3,146.4 L 280.3,147.6 L 280.9,148.3 L 281.0,148.7 L 281.4,149.5 L 282.1,151.8 L 282.5,155.8 L 283.0,158.1 L 284.1,160.2 L 284.2,161.1 L 284.6,162.5 L 284.8,163.6 L 285.0,164.0 L 285.5,164.2 L 285.9,164.0 L 286.4,164.1 L 286.4,164.7 L 286.7,166.0 L 287.3,166.1 L 287.9,166.4 L 291.1,169.0 L 291.6,168.9 L 291.2,167.5 L 291.4,166.7 L 292.3,167.3 L 293.0,166.9 L 293.6,167.2 L 293.8,167.0 L 293.2,166.2 L 293.4,165.4 L 294.1,164.8 L 293.6,163.8 L 293.9,162.3 L 294.4,161.7 L 294.3,161.0 L 294.4,160.1 L 293.8,159.8 L 293.9,159.2 L 294.4,159.0 L 296.9,159.3 L 298.1,160.0 L 299.6,161.0 L 299.9,161.1 L 298.0,159.5 L 297.8,159.0 L 299.2,158.5 L 300.1,159.3 L 300.0,160.0 L 300.5,160.4 L 301.7,160.9 L 303.3,163.1 L 304.1,163.6 L 305.2,163.8 L 306.1,163.3 L 307.6,165.2 L 308.3,165.1 L 308.9,164.4 L 308.5,163.2 L 307.3,162.7 L 306.3,162.6 L 306.1,161.5 L 305.5,160.6 L 305.4,160.1 L 304.6,158.6 L 303.5,158.4 L 303.6,157.7 L 304.2,157.5 L 303.7,156.6 L 303.4,156.5 L 303.0,156.2 L 302.4,156.0 L 301.7,155.1 L 301.8,153.9 L 301.0,152.8 L 300.4,152.6 L 299.7,151.9 L 299.6,150.9 L 299.2,150.5 L 299.2,150.1 L 296.5,148.5 L 295.8,146.9 L 296.2,145.9 L 296.5,145.7 L 295.2,144.6 L 295.1,144.2 L 293.5,141.6 L 293.8,140.5 L 293.8,140.0 L 293.3,139.5 L 291.9,138.5 L 291.5,137.9 L 291.8,137.5 L 293.4,138.6 L 293.8,139.8 L 295.5,140.5 L 296.1,140.3 L 296.3,139.9 L 295.7,139.3 L 295.2,139.2 L 294.8,138.8 L 296.0,138.3 L 294.5,137.1 L 292.6,136.4 L 290.7,135.2 L 290.1,135.0 L 289.6,134.4 L 289.0,134.2 L 288.0,133.3 L 287.2,132.9 L 286.5,131.7 L 285.5,131.5 L 284.7,130.1 L 284.8,129.6 L 286.9,129.6 L 286.8,129.1 L 286.3,128.5 L 286.6,127.8 L 287.5,128.2 L 288.9,129.0 L 287.8,129.9 L 287.9,130.2 L 288.5,130.2 L 288.7,129.5 L 289.0,129.1 L 289.4,129.0 L 289.7,128.9 L 290.6,129.9 L 291.2,129.8 L 291.4,129.2 L 292.3,129.2 L 291.9,128.7 L 291.6,128.5 L 291.8,128.2 L 293.2,128.5 L 296.2,130.1 L 294.6,127.8 L 293.6,127.3 L 293.0,126.9 L 292.3,125.8 L 292.4,125.2 L 291.1,123.6 L 288.8,122.3 L 288.0,121.1 L 288.3,120.7 L 288.6,118.7 L 289.1,118.2 L 288.9,117.3 L 288.8,116.6 L 288.6,116.3 L 288.0,116.2 L 288.1,115.9 L 288.3,115.6 L 288.0,115.3 L 286.3,115.9 L 285.6,116.6 L 285.1,116.7 L 284.7,116.1 L 285.0,115.8 L 286.1,115.7 L 285.5,114.4 L 284.7,114.2 L 284.9,112.4 L 283.9,111.5 L 283.2,111.4 L 282.4,110.8 L 282.1,109.8 L 282.4,108.6 L 282.7,108.5 L 283.3,108.4 L 284.1,108.1 L 284.3,107.6 L 285.9,107.1 L 286.0,106.5 L 285.2,106.2 L 282.3,107.5 L 282.1,108.0 L 280.7,109.2 L 280.0,110.1 L 279.4,110.1 L 279.2,109.7 L 277.5,108.7 L 276.7,107.9 L 276.7,106.9 L 276.3,106.6 L 276.3,105.5 L 275.6,105.1 L 275.3,104.0 L 275.4,103.5 L 276.1,103.4 L 277.4,104.0 L 278.8,104.0 L 280.8,102.5 L 282.0,102.2 L 282.1,101.5 L 282.0,101.1 L 282.7,100.6 L 282.6,100.3 L 282.2,99.8 L 282.4,99.2 L 285.1,99.2 L 285.7,99.9 L 286.4,99.5 L 287.1,99.0 L 286.3,98.3 L 285.7,98.0 L 285.5,97.1 L 285.6,96.6 L 285.2,96.3 L 281.6,95.7 L 280.1,94.9 L 279.3,93.7 L 279.7,92.4 L 279.7,91.4 L 279.3,90.8 L 279.4,90.0 L 277.2,90.1 L 276.9,90.0 L 275.9,89.6 L 275.8,88.8 L 275.1,88.3 L 275.3,87.1 L 275.9,86.7 L 276.8,86.9 L 277.5,86.4 L 276.1,85.4 L 275.2,83.3 L 274.4,82.9 L 273.9,82.1 L 273.9,81.6 L 273.6,80.7 L 273.3,80.7 L 272.4,79.5 L 272.6,79.1 L 273.6,78.9 L 275.0,77.9 L 274.9,77.0 L 273.9,76.9 L 273.5,76.0 L 272.9,75.8 L 271.7,75.1 L 271.7,74.3 L 270.6,72.4 L 270.5,71.9 L 269.4,71.7 L 268.1,72.0 L 268.2,72.5 L 266.9,74.2 L 266.8,75.6 L 266.1,76.2 L 265.7,76.2 L 265.7,75.5 L 265.4,74.8 L 266.7,73.8 L 267.4,72.4 L 267.9,71.8 L 268.2,71.2 L 268.5,69.5 L 270.3,66.8 L 270.2,65.9 L 269.7,64.9 L 269.4,64.5 L 269.4,63.9 L 269.7,61.8 L 269.5,61.2 L 269.7,60.7 L 270.2,60.4 L 269.8,60.0 L 269.3,59.9 L 268.2,59.5 L 268.0,59.3 L 268.2,59.2 L 269.0,59.5 L 269.8,59.6 L 269.9,59.5 L 270.0,59.5 L 273.9,59.8 L 274.3,61.2 L 274.9,62.1 L 275.8,63.0 L 277.3,63.3 L 279.1,64.8 L 280.9,66.2 L 282.7,67.7 L 281.8,67.8 L 281.3,68.4 L 281.6,69.0 L 281.2,69.7 L 280.3,70.0 L 279.6,69.2 L 279.2,69.0 L 279.0,69.9 L 279.1,71.0 L 279.3,71.5 L 280.0,71.8 L 280.4,72.0 L 281.0,72.7 L 281.1,72.8 L 281.7,72.7 L 282.4,73.0 L 283.3,73.3 L 283.3,74.1 L 284.2,75.0 L 285.4,74.6 L 288.8,75.3 L 289.2,76.3 L 289.7,76.1 L 290.0,75.5 L 291.1,75.0 L 291.7,75.1 L 292.1,73.3 L 292.5,72.9 L 292.6,71.8 L 291.7,71.3 L 291.6,70.2 L 292.5,70.1 L 293.0,69.5 L 292.7,68.5 L 292.8,67.9 L 292.1,66.9 L 292.1,66.9 L 292.3,67.0 L 302.6,68.3 L 303.0,68.4 L 303.0,68.7 L 303.0,69.8 L 303.6,70.2 L 304.0,70.5 L 304.1,71.2 L 304.1,72.3 L 303.5,72.5 L 303.0,75.3 L 303.3,75.7 L 306.4,77.5 L 306.9,77.7 L 306.7,77.9 L 306.4,77.6 L 306.2,77.7 L 305.2,78.1 L 305.0,78.5 L 305.6,78.8 L 305.7,79.3 L 306.3,79.9 L 307.0,80.3 L 308.0,80.4 L 308.6,80.4 L 308.8,80.4 L 309.5,80.8 L 309.2,81.2 L 307.4,82.2 L 307.2,83.0 L 308.3,83.4 L 309.7,82.9 L 310.8,81.9 L 311.1,81.4 L 311.0,81.0 L 311.1,80.8 L 312.8,81.1 L 313.5,81.6 L 314.1,81.6 L 314.1,81.2 L 312.8,80.0 L 313.4,80.4 L 314.2,80.9 L 315.0,81.2 L 315.6,81.7 L 317.5,82.2 L 318.3,82.7 L 319.1,82.9 L 319.7,83.5 L 320.8,83.8 L 321.0,84.5 L 321.4,84.9 L 321.4,85.4 L 324.3,87.5 L 325.4,87.8 L 325.8,88.1 L 326.6,88.2 L 327.0,88.5 L 326.7,88.8 L 326.9,89.3 L 328.3,90.1 L 331.0,91.6 L 329.5,91.2 L 327.3,90.1 L 326.2,89.9 L 324.3,90.5 L 324.1,90.8 L 324.9,91.6 L 324.5,92.4 L 324.8,92.9 L 325.4,93.5 L 326.3,94.2 L 329.2,94.7 L 330.1,95.5 L 329.0,96.2 L 328.3,96.4 L 328.4,97.0 L 328.1,97.4 L 327.8,98.1 L 328.3,98.5 L 330.0,99.2 L 329.8,99.4 L 328.8,99.6 L 328.4,100.2 L 328.0,100.0 L 325.6,99.9 L 322.6,100.4 L 322.0,100.4 L 320.1,100.8 L 320.2,101.7 L 321.0,102.8 L 321.4,103.1 L 322.1,102.9 L 323.8,104.6 L 324.3,104.9 L 324.9,104.4 L 326.3,104.5 L 326.4,104.6 L 326.6,104.9 L 326.3,105.3 L 325.4,105.4 L 325.4,106.4 L 326.3,106.9 L 327.2,107.6 L 328.4,108.2 L 329.3,109.5 L 330.8,110.3 L 331.9,110.2 L 332.6,109.7 L 332.7,109.2 L 333.7,108.8 L 333.3,107.7 L 333.8,107.5 L 334.5,108.1 L 335.3,109.7 L 335.8,109.8 L 336.0,110.2 L 336.9,110.4 L 336.8,111.1 L 335.6,116.5 L 335.4,116.2 L 333.1,115.7 L 332.1,115.9 L 331.6,115.6 L 331.0,115.4 L 330.6,115.8 L 330.9,116.4 L 332.5,117.8 L 333.0,117.8 L 333.8,117.1 L 335.4,117.2 L 335.4,117.2 L 334.1,123.1 L 334.0,123.1 L 333.0,123.5 L 332.5,124.1 L 331.9,124.5 L 331.0,124.3 L 329.8,123.1 L 329.8,122.3 L 328.7,121.5 L 327.6,120.9 L 324.9,119.8 L 323.3,119.6 L 323.1,119.3 L 322.6,119.1 L 322.4,119.6 L 321.7,119.9 L 320.9,119.3 L 320.0,119.5 L 318.7,120.0 L 318.5,120.2 L 318.6,121.0 L 319.9,122.3 L 322.2,122.7 L 322.7,123.1 L 322.9,123.6 L 323.9,124.1 L 324.3,124.5 L 323.2,125.0 L 322.6,125.4 L 322.3,126.0 L 322.5,127.0 L 323.1,126.8 L 323.8,127.3 L 325.0,127.7 L 326.4,129.6 L 326.1,129.8 L 325.7,130.0 L 326.1,130.4 L 326.0,130.9 L 324.8,131.0 L 324.6,131.6 L 325.2,132.2 L 325.7,132.9 L 326.0,133.4 L 325.5,133.7 L 325.1,134.7 L 324.5,135.4 L 322.5,135.3 L 321.4,136.2 L 321.2,137.1 L 322.0,137.3 L 324.2,138.7 L 324.7,139.3 L 324.9,140.1 L 324.5,140.2 L 324.2,142.5 L 324.6,142.9 L 325.3,143.6 L 326.1,144.9 L 330.0,147.9 L 332.3,148.0 L 333.6,147.7 L 334.5,147.1 L 334.9,145.4 L 336.0,145.0 L 336.5,144.5 L 337.3,144.5 L 337.6,144.1 L 337.4,143.1 L 337.9,142.6 L 338.1,142.2 L 339.3,143.1 L 339.5,144.2 L 338.5,144.9 L 338.2,145.5 L 338.7,147.0 L 339.4,147.5 L 340.6,147.6 L 341.1,147.0 L 342.3,147.4 L 343.5,147.9 L 346.8,154.5 L 346.5,154.7 L 346.4,155.2 L 347.2,156.2 L 347.2,156.6 L 346.9,157.2 L 346.3,157.9 L 347.0,159.3 L 347.5,160.3 L 347.2,160.7 L 346.7,160.4 L 346.3,161.7 L 347.0,162.3 L 347.7,162.7 L 348.3,163.1 L 348.3,163.8 L 347.6,164.4 L 347.3,164.8 L 347.9,165.8 L 347.8,166.5 L 347.2,167.0 L 346.6,169.6 L 346.9,170.4 L 346.8,172.9 L 346.9,173.6 L 346.8,174.1 L 347.3,177.1 L 348.2,179.8 L 347.8,180.5 L 346.8,179.6 L 346.4,178.5 L 345.8,178.4 L 345.9,177.9 L 346.5,177.3 L 345.2,175.7 L 344.4,175.6 L 342.8,174.1 L 343.0,173.8 L 342.7,173.0 L 342.2,172.3 L 341.3,172.1 L 341.0,172.7 L 340.0,172.5 L 339.4,172.3 L 338.3,172.3 L 338.0,172.7 L 338.5,174.1 L 339.1,174.7 L 339.1,175.2 L 339.6,175.7 L 339.7,175.8 L 340.0,176.5 L 340.3,178.7 L 340.3,179.4 L 340.5,179.8 L 340.3,180.8 L 339.7,180.5 L 339.3,180.9 L 339.2,180.9 L 338.9,181.0 L 338.4,180.1 L 338.0,179.9 L 337.4,179.2 L 336.7,179.0 L 336.8,178.1 L 336.0,177.3 L 335.6,177.1 L 335.4,175.3 L 334.8,174.5 L 333.9,174.3 L 333.5,174.0 L 331.0,173.3 L 329.8,173.7 L 329.4,173.9 L 329.0,174.7 L 328.6,175.0 L 327.6,175.4 L 327.5,177.4 L 327.6,177.9 L 327.3,178.9 L 328.6,179.9 L 328.5,181.0 L 328.9,182.1 L 328.6,183.7 L 329.4,185.8 L 329.6,186.7 L 329.2,186.8 L 328.7,186.2 L 327.6,186.7 L 327.7,186.9 L 328.1,187.0 L 328.7,187.6 L 328.6,188.5 L 329.2,188.7 L 329.4,189.6 L 329.7,189.5 L 329.9,188.6 L 330.9,188.3 L 331.2,188.8 L 331.5,189.3 L 331.0,189.6 L 331.1,191.0 L 331.4,191.9 L 331.0,192.7 L 331.6,193.2 L 333.2,196.1 L 333.1,196.4 L 332.7,196.6 L 330.9,194.8 L 330.3,194.5 L 328.5,192.3 L 328.3,192.5 L 328.6,193.2 L 328.4,193.8 L 327.9,192.3 L 326.7,190.6 L 326.3,189.6 L 325.2,189.5 L 324.7,189.0 L 324.0,188.6 L 323.8,188.2 L 324.0,187.3 L 323.6,186.9 L 322.8,186.7 L 321.0,187.8 L 321.2,188.5 L 322.2,190.9 L 321.6,191.3 L 321.3,192.0 L 320.6,191.3 L 320.1,191.6 L 319.9,192.3 L 321.4,194.6 L 322.1,194.6 L 322.5,194.0 L 323.1,194.0 L 323.8,196.4 L 326.1,199.2 L 327.4,200.4 L 327.4,200.5 L 327.5,200.9 L 328.4,202.4 L 330.0,204.2 L 332.0,207.4 L 334.2,209.7 L 335.3,210.3 L 336.1,211.4 L 336.1,212.1 L 335.7,212.4 L 335.7,212.6 L 336.2,213.2 L 336.6,213.6 L 337.4,213.9 L 337.9,214.5 L 338.2,214.7 L 338.5,214.7 L 338.1,214.2 L 338.0,213.7 L 338.7,213.6 L 341.7,216.9 L 341.6,217.5 L 340.9,217.7 L 339.7,215.9 L 339.0,216.4 L 339.1,217.1 L 337.5,217.3 L 337.1,216.4 L 336.8,215.8 L 336.1,215.1 L 336.0,215.1 L 335.0,213.6 L 333.8,212.7 L 333.5,213.0 L 333.8,213.9 L 335.1,215.6 L 336.0,215.9 L 336.4,216.1 L 337.1,217.2 L 337.2,217.8 L 337.4,219.2 L 339.2,221.8 L 339.8,221.6 L 340.5,222.0 L 341.2,221.8 L 341.3,221.5 L 340.3,220.5 L 340.5,220.0 L 340.9,220.1 L 341.4,220.9 L 341.6,221.5 L 341.5,221.7 L 341.9,222.0 L 342.0,223.0 L 341.7,223.3 L 341.9,223.8 L 342.5,223.8 L 344.1,225.8 L 345.3,228.3 L 346.6,229.6 L 346.6,230.3 L 347.9,232.9 L 349.0,234.7 L 348.9,235.2 L 347.9,235.2 L 345.2,232.7 L 339.2,225.3 L 338.1,224.0 L 335.5,221.6 L 334.9,221.2 L 334.1,220.3 L 333.0,218.8 L 332.0,218.4 L 330.3,216.5 L 329.3,215.1 L 327.9,214.0 L 326.4,213.1 L 326.4,212.8 L 325.6,212.9 L 325.2,212.3 L 325.2,211.8 L 324.9,211.5 L 324.9,210.9 L 321.9,207.9 L 321.7,208.1 L 320.7,208.0 L 320.6,208.5 L 319.9,208.8 L 319.7,210.1 L 319.7,210.8 L 320.1,212.3 L 320.1,212.9 L 319.8,213.5 L 319.3,215.9 L 318.9,215.9 L 318.3,215.1 L 317.8,215.1 L 317.7,214.3 L 315.8,213.4 L 315.4,214.4 L 315.8,215.6 L 315.8,216.2 L 316.0,216.6 L 316.6,216.5 L 317.0,216.5 L 317.2,217.0 L 316.9,217.6 L 316.6,219.2 L 316.3,220.0 L 316.4,221.4 L 317.5,222.3 L 317.4,223.4 L 319.1,225.3 L 320.4,228.1 L 319.6,228.0 L 318.5,226.8 L 317.9,225.5 L 316.7,225.3 L 317.2,226.8 L 317.8,227.2 L 317.6,227.3 L 317.3,227.2 L 317.2,227.9 L 319.1,231.9 L 318.8,232.2 L 318.7,233.0 L 317.0,233.7 L 317.0,235.1 L 317.4,235.5 L 318.3,237.1 L 318.9,238.9 L 318.4,239.0 L 318.3,239.5 L 317.7,239.9 L 317.9,241.6 L 318.0,241.8 L 318.1,242.0 L 318.1,242.7 L 319.2,244.1 L 318.6,244.6 L 318.2,245.4 L 318.4,248.6 L 318.3,250.0 L 318.9,252.2 L 318.9,252.9 L 319.1,253.5 L 320.6,256.7 L 320.5,257.6 L 320.3,257.8 L 319.0,257.2 L 318.6,257.3 L 318.9,258.3 L 319.3,259.3 L 320.2,262.4 L 320.3,263.3 L 320.8,264.3 L 320.1,264.5 L 320.2,265.3 L 321.7,267.2 L 323.0,268.0 L 323.2,267.9 L 323.6,267.1 L 324.2,266.8 L 324.6,266.9 L 326.2,271.2 L 327.1,272.1 L 328.0,272.3 L 329.1,273.3 L 330.0,276.3 L 330.4,276.7 L 331.7,278.0 L 332.9,279.1 L 334.7,279.7 L 337.1,284.4 L 337.3,285.3 L 337.8,286.4 L 337.8,286.8 L 338.5,288.2 L 338.4,288.7 L 338.6,289.0 L 339.2,289.9 L 339.3,290.2 L 337.9,288.4 L 337.6,288.2 L 337.1,288.9 L 337.3,289.5 L 337.4,289.9 L 336.4,288.5 L 336.0,288.1 L 335.7,288.3 L 336.1,289.4 L 336.0,289.9 L 336.1,290.9 L 336.0,291.8 L 336.2,292.8 L 336.0,293.1 L 337.1,295.1 L 338.0,295.8 L 338.1,296.4 L 337.6,296.3 L 337.5,297.0 L 337.9,297.7 L 337.8,298.4 L 338.5,299.5 L 338.9,299.9 L 338.6,300.3 L 337.9,299.7 L 337.9,300.2 L 337.8,300.7 L 338.2,301.5 L 337.9,302.7 L 338.5,304.1 L 339.0,305.7 L 340.2,307.5 L 341.4,308.7 L 342.2,309.1 L 342.5,309.8 L 343.2,310.7 L 346.0,313.7 L 345.9,314.3 L 345.6,314.9 L 344.8,314.3 L 344.5,314.5 L 344.3,315.8 L 344.3,316.7 L 345.2,318.1 L 345.6,318.3 L 346.3,319.6 L 348.1,322.2 L 348.5,323.1 L 349.2,323.2 L 349.6,323.6 L 349.3,324.0 L 349.9,324.9 L 350.2,325.2 L 351.0,325.3 L 352.5,327.3 L 353.4,328.0 L 353.8,327.7 L 353.5,326.8 L 353.9,325.5 L 354.0,325.3 L 355.1,325.7 L 355.5,326.6 L 356.8,328.3 L 357.4,328.3 L 357.9,328.1 L 359.0,328.2 L 359.1,328.5 L 359.0,329.3 L 359.3,330.0 L 359.2,332.5 L 359.5,334.2 L 359.3,334.6 L 359.1,335.3 L 359.1,336.9 L 360.0,338.6 L 359.7,339.4 L 359.5,340.7 L 359.2,340.8 L 358.0,340.7 L 353.8,335.9 L 352.8,334.0 L 352.6,333.6 L 352.3,332.7 L 350.9,330.8 L 350.2,330.6 L 346.5,325.2 L 346.6,324.5 L 347.1,324.5 L 347.2,324.1 L 346.6,323.5 L 347.2,323.1 L 346.1,321.1 L 345.7,320.0 L 345.5,319.7 L 344.7,319.5 L 344.5,319.2 L 344.0,319.1 L 344.1,319.4 L 343.6,321.0 L 343.8,321.4 L 343.9,321.6 L 343.6,321.4 L 343.3,320.8 L 341.7,319.5 L 341.0,317.8 L 339.6,316.0 L 338.7,315.8 L 338.0,315.3 L 337.2,314.5 L 336.9,314.3 L 335.7,312.4 L 334.0,311.2 L 333.3,309.8 L 331.5,307.5 L 329.9,306.2 L 329.5,305.7 L 329.2,305.8 L 328.9,306.8 L 328.7,307.0 L 327.8,305.0 L 327.0,303.2 L 327.2,302.4 L 320.3,295.5 L 320.2,294.9 L 318.7,293.6 L 318.3,294.0 L 317.7,294.1 L 317.5,294.6 L 317.4,294.9 L 317.6,295.6 L 317.8,296.4 L 317.6,296.8 L 317.1,297.0 L 316.8,296.1 L 317.0,295.2 L 316.4,294.5 L 316.4,293.9 L 314.3,290.2 L 314.3,289.5 L 313.2,288.0 L 312.5,287.8 L 311.9,286.5 L 310.9,286.1 L 310.4,285.2 L 309.5,284.2 L 308.8,283.0 L 308.8,282.0 L 307.3,281.4 L 306.5,280.4 L 304.3,278.8 L 303.4,278.6 L 303.2,278.4 L 303.2,278.0 L 303.3,277.4 L 304.3,277.8 L 305.2,277.8 L 305.2,277.4 L 304.5,276.9 L 303.7,275.2 L 302.5,273.3 L 302.4,272.8 L 301.7,272.5 L 301.0,271.5 L 300.9,270.5 L 300.3,269.8 L 299.8,269.5 L 299.7,268.6 L 298.3,267.3 L 297.5,266.7 L 296.8,266.7 L 296.6,267.1 L 296.1,268.0 L 295.5,267.4 L 294.9,267.1 L 293.5,265.4 L 291.3,263.8 L 291.5,262.5 L 290.3,260.8 L 289.2,260.5 L 288.3,260.4 L 287.1,260.7 L 286.9,260.1 L 286.8,259.4 L 287.4,259.1 L 287.5,258.7 L 286.8,257.8 L 284.9,257.6 L 284.2,256.2 L 283.6,255.6 L 283.1,255.9 L 281.9,254.6 L 280.7,252.8 L 278.8,249.4 L 277.6,248.9 L 277.9,248.3 L 277.7,247.6 L 275.8,245.0 L 275.5,244.7 L 275.2,244.9 L 274.9,244.8 L 274.3,245.3 L 274.8,246.8 L 274.8,247.2 L 272.8,245.4 L 272.7,244.6 L 271.7,243.1 L 270.5,242.0 L 270.3,240.6 L 269.7,240.2 L 267.7,237.9 L 266.5,236.9 L 266.4,236.5 L 265.9,236.1 L 265.9,235.5 L 262.3,231.0 L 261.3,230.3 L 259.3,228.1 L 259.3,227.3 L 257.3,224.9 L 256.5,223.9 L 256.1,223.1 L 254.9,222.0 L 254.8,221.4 L 254.4,220.0 L 254.3,219.0 L 255.3,218.8 L 255.2,217.9 L 254.3,217.1 L 253.6,217.0 L 253.4,217.6 L 253.0,217.8 L 252.7,216.8 L 251.9,215.2 L 249.8,212.9 L 249.4,212.9 L 249.5,212.3 L 250.3,212.5 L 250.6,212.8 L 250.8,212.2 L 249.3,210.7 L 249.1,210.9 L 248.7,211.9 L 247.6,210.4 L 246.9,210.0 L 246.6,210.2 L 246.7,211.0 L 245.7,210.8 L 245.3,210.3 L 245.7,209.5 L 245.5,208.8 L 245.6,207.5 L 245.1,206.1 L 243.6,204.0 L 242.8,204.4 L 242.3,204.0 L 242.5,201.8 L 241.4,200.9 L 241.3,200.5 L 240.8,200.4 L 240.3,200.6 L 239.5,200.6 L 238.7,201.3 L 238.5,202.6 L 238.9,202.9 L 238.5,205.0 L 238.6,205.8 L 238.3,207.8 L 237.9,208.2 L 237.2,207.7 L 236.5,208.8 L 236.0,210.8 L 234.8,212.0 L 234.8,214.6 L 235.3,214.6 L 235.8,213.8 L 236.5,212.0 L 237.5,212.1 L 237.9,211.0 L 238.2,210.7 L 237.9,210.2 L 237.8,209.4 L 238.0,209.2 L 238.5,209.6 L 239.1,209.9 L 239.7,209.2 L 240.3,209.9 L 240.2,211.1 L 240.6,212.2 L 241.6,213.6 L 241.7,214.0 L 241.5,214.5 L 241.0,216.5 L 242.9,219.2 L 244.4,222.8 L 244.0,223.0 L 242.5,222.2 L 241.8,222.3 L 240.3,221.0 L 240.0,220.4 L 239.1,219.5 L 237.3,217.4 L 237.0,217.5 L 236.9,218.1 L 237.0,219.0 L 237.4,219.8 L 238.2,219.7 L 239.2,220.2 L 239.5,220.7 L 240.7,222.8 L 240.4,223.6 L 239.8,223.7 L 238.8,223.1 L 238.3,223.0 L 238.1,222.5 L 237.8,222.6 L 236.8,221.7 L 236.6,222.3 L 238.2,224.4 L 238.8,225.0 L 239.1,224.8 L 239.6,225.1 L 240.1,226.7 L 240.5,227.5 L 240.9,228.9 L 241.1,229.2 L 242.6,232.4 L 243.3,232.8 L 243.7,233.5 L 244.8,234.9 L 244.7,235.7 L 245.4,237.8 L 246.5,237.3 L 246.3,236.8 L 246.5,236.2 L 246.9,236.8 L 246.8,237.4 L 246.5,238.4 L 246.1,238.8 L 245.4,238.7 L 243.9,236.2 L 244.1,234.9 L 243.1,233.8 L 243.0,233.5 L 243.0,233.1 L 242.2,232.6 L 241.5,231.7 L 241.3,230.7 L 239.9,228.1 L 239.0,227.3 L 238.1,227.0 L 238.3,228.8 L 237.7,229.3 L 237.8,230.2 L 237.5,230.8 L 237.3,231.0 L 237.1,231.9 L 236.7,232.3 L 236.3,231.7 L 236.2,231.4 L 235.3,231.3 L 235.3,229.9 L 235.0,228.6 L 235.4,226.2 L 235.8,225.3 L 235.9,224.6 L 234.7,223.3 L 234.9,222.2 L 235.4,221.8 L 235.1,220.9 L 235.1,220.1 L 234.3,218.3 L 233.7,218.6 L 233.2,220.7 L 233.4,221.1 L 233.2,223.0 L 233.6,223.3 L 233.9,224.0 L 233.8,224.9 L 233.4,225.6 L 232.8,229.1 L 232.7,231.1 L 233.1,232.7 L 232.7,236.7 L 233.2,238.2 L 233.1,239.7 L 233.3,240.5 L 233.2,242.0 L 232.6,242.4 L 231.7,246.1 L 231.1,245.3 L 230.9,244.7 L 231.4,240.6 L 231.0,238.9 L 231.2,237.2 L 230.5,235.4 L 230.5,232.6 L 230.8,230.8 L 231.3,229.8 L 231.3,229.1 L 231.0,228.3 L 231.7,226.6 L 231.8,224.6 L 231.7,223.1 L 232.4,218.9 L 232.7,218.2 L 232.5,217.5 L 232.6,215.8 L 232.4,215.2 L 232.7,215.0 L 232.6,213.0 L 232.7,212.3 L 232.4,211.0 L 232.6,210.7 L 234.4,211.7 L 234.7,211.2 L 234.5,210.3 L 235.5,208.6 L 235.0,207.3 L 235.2,206.0 L 234.6,205.6 L 233.6,205.2 L 233.1,204.0 L 231.6,203.4 L 231.8,205.0 L 231.5,206.3 L 231.8,207.0 L 231.8,207.9 L 231.3,208.4 L 230.6,205.8 L 228.7,203.1 L 227.9,202.5 L 227.7,202.3 L 227.7,201.6 L 227.4,201.2 L 226.6,200.9 L 226.4,200.6 L 226.0,200.3 L 226.0,201.2 L 225.1,201.4 L 224.8,201.9 L 225.3,202.6 L 225.2,204.1 L 225.8,205.9 L 225.4,206.2 L 224.2,213.4 L 224.3,216.2 L 224.6,217.6 L 224.7,219.9 L 224.9,220.9 L 225.5,221.5 L 225.5,222.3 L 224.7,223.1 L 224.6,224.5 L 224.2,225.2 L 223.2,223.2 L 223.3,222.5 L 223.0,222.1 L 222.4,222.3 L 222.3,221.6 L 222.1,221.4 L 221.4,222.3 L 220.9,222.6 L 220.3,222.3 L 219.8,219.9 L 219.9,218.1 L 219.6,217.5 L 218.7,216.6 L 218.4,215.2 L 217.3,212.6 L 216.4,212.9 L 216.1,213.3 L 216.8,215.1 L 216.7,215.2 L 216.4,214.8 L 215.9,213.4 L 215.7,213.7 L 215.7,214.0 L 215.1,213.9 L 214.8,215.9 L 214.5,216.9 L 215.7,220.6 L 216.0,222.2 L 215.5,223.8 L 215.0,223.9 L 214.3,222.9 L 214.1,221.9 L 214.2,221.2 L 214.6,220.9 L 214.3,220.3 L 213.8,220.1 L 213.7,218.9 L 214.3,217.4 L 214.3,217.2 L 214.2,216.5 L 214.0,216.2 L 213.8,215.9 L 213.3,214.1 L 212.3,215.5 L 213.1,219.9 L 213.0,220.6 L 212.1,219.5 L 211.7,219.7 L 211.4,220.5 L 211.6,221.0 L 212.0,221.6 L 212.1,222.7 L 213.0,224.7 L 212.0,225.4 L 211.8,225.9 L 212.0,228.1 L 212.6,229.1 L 212.6,230.0 L 213.8,232.6 L 213.7,233.9 L 214.0,234.8 L 215.0,235.9 L 215.7,235.9 L 216.3,235.2 L 216.8,234.2 L 218.2,233.9 L 217.9,235.3 L 217.6,236.2 L 216.4,237.9 L 215.7,238.5 L 214.9,236.9 L 212.6,234.5 L 212.1,234.4 L 211.9,234.8 L 212.3,235.6 L 213.0,237.2 L 212.2,237.8 L 211.9,238.5 L 211.2,241.3 L 211.9,245.2 L 212.0,247.7 L 212.2,248.5 L 212.2,248.8 L 212.8,249.5 L 212.8,249.9 L 213.6,250.9 L 213.6,251.7 L 215.5,254.3 L 216.2,254.3 L 216.7,253.8 L 216.7,252.5 L 216.8,251.5 L 217.7,251.8 L 218.3,252.9 L 218.4,253.8 L 218.4,255.1 L 218.6,255.5 L 218.8,257.9 L 219.6,260.6 L 220.2,261.3 L 220.5,262.7 L 221.2,264.1 L 221.5,266.1 L 222.0,267.5 L 222.6,268.1 L 223.0,268.9 L 224.0,270.1 L 224.2,271.0 L 225.4,273.1 L 226.6,274.7 L 227.3,275.6 L 228.1,275.9 L 228.8,276.2 L 229.2,277.5 L 229.4,278.9 L 229.1,279.5 L 226.6,276.4 L 226.0,275.4 L 224.6,274.2 L 222.2,275.1 L 221.4,275.0 L 221.5,273.9 L 221.4,272.7 L 220.2,271.5 L 220.1,271.1 L 220.2,270.5 L 218.2,265.9 L 217.7,265.1 L 217.0,264.6 L 217.2,261.8 L 216.5,259.0 L 214.7,256.1 L 213.5,253.7 L 212.4,251.8 L 212.5,251.1 L 211.6,250.5 L 211.3,249.8 L 210.4,249.5 L 210.6,248.3 L 210.3,247.9 L 209.2,246.7 L 208.4,246.1 L 207.7,246.2 L 207.1,246.5 L 206.7,245.9 L 205.7,245.5 L 205.4,244.7 L 205.0,245.0 L 204.6,245.0 L 203.9,244.2 L 203.5,244.4 L 202.8,244.0 L 202.3,244.2 L 202.2,244.3 L 201.6,244.6 L 201.5,245.0 L 201.9,246.1 L 201.9,247.0 L 201.9,247.2 L 202.0,247.6 L 202.4,248.5 L 203.8,249.8 L 204.3,250.1 L 204.7,250.7 L 204.6,252.5 L 205.3,254.0 L 204.8,254.1 L 204.4,253.8 L 203.5,253.5 L 203.2,253.1 L 203.5,251.1 L 202.8,250.1 L 202.0,250.0 L 201.7,249.8 L 201.0,249.4 L 200.4,249.9 L 199.4,249.4 L 199.4,250.2 L 199.7,250.6 L 200.3,250.9 L 201.4,252.4 L 202.8,254.3 L 202.2,254.9 L 202.0,256.3 L 203.8,258.9 L 203.5,261.5 L 204.0,263.2 L 204.7,264.5 L 206.4,265.5 L 207.9,267.4 L 208.0,268.5 L 210.3,270.0 L 215.5,272.9 L 216.2,273.8 L 216.0,275.8 L 215.8,276.3 L 215.0,276.2 L 213.0,274.6 L 213.1,274.1 L 213.6,274.0 L 213.1,273.7 L 213.0,272.5 L 210.8,271.0 L 210.5,270.4 L 209.8,270.1 L 208.9,270.0 L 208.5,269.7 L 207.6,269.6 L 206.3,269.6 L 204.5,268.8 L 204.5,268.6 L 204.0,268.5 L 203.6,268.1 L 202.8,267.8 L 201.4,267.5 L 201.0,267.9 L 200.5,267.9 L 200.0,268.3 L 199.6,268.5 L 199.0,268.7 L 198.6,270.7 L 199.7,271.3 L 199.8,271.4 L 199.7,271.8 L 199.8,272.8 L 199.5,272.8 L 198.7,272.9 L 198.6,273.5 L 199.4,274.7 L 199.3,275.0 L 198.5,275.2 L 196.9,275.4 L 196.4,274.1 L 195.4,273.4 L 194.4,273.5 L 193.9,273.1 L 193.3,273.4 L 193.6,274.9 L 194.1,275.7 L 195.8,276.4 L 196.4,275.9 L 197.0,276.5 L 196.9,277.2 L 198.9,279.5 L 199.0,279.6 L 200.2,280.6 L 201.5,281.1 L 204.1,281.6 L 204.7,282.2 L 206.6,283.1 L 207.3,284.0 L 207.8,284.3 L 208.2,284.8 L 208.9,285.2 L 210.8,287.4 L 210.9,287.8 L 212.2,288.9 L 212.0,289.1 L 211.1,289.1 L 206.4,285.9 L 205.5,285.5 L 204.8,285.0 L 203.9,284.9 L 203.4,285.3 L 202.3,284.2 L 201.8,284.3 L 198.6,283.0 L 197.7,282.6 L 197.1,282.8 L 197.0,282.9 L 196.0,283.1 L 196.3,283.7 L 196.3,285.1 L 198.3,286.3 L 201.7,288.3 L 202.5,288.6 L 202.9,288.8 L 202.8,289.2 L 203.4,289.7 L 203.8,289.3 L 204.4,289.4 L 206.4,291.3 L 206.7,292.3 L 206.1,292.3 L 204.0,291.4 L 200.5,289.1 L 199.4,288.9 L 198.7,288.5 L 198.1,288.3 L 197.8,288.3 L 197.2,287.9 L 196.5,287.8 L 196.4,288.1 L 196.9,288.9 L 196.7,289.2 L 196.4,290.1 L 195.9,290.0 L 194.0,289.7 L 193.5,289.8 L 193.5,290.2 L 194.7,291.4 L 195.1,291.7 L 195.1,292.1 L 195.5,292.5 L 196.5,293.1 L 196.9,294.3 L 196.3,294.3 L 194.3,292.6 L 194.1,292.1 L 193.0,291.1 L 192.5,291.3 L 192.3,291.8 L 192.9,292.7 L 192.5,293.6 L 193.0,294.3 L 194.5,295.6 L 193.6,297.4 L 193.6,296.4 L 193.6,296.3 L 193.1,295.7 L 192.8,296.1 L 193.0,296.5 L 188.6,297.0 L 188.7,296.9 L 188.4,296.1 L 187.6,294.2 L 188.0,293.6 L 187.2,292.5 L 188.7,291.5 L 188.1,290.3 L 188.2,289.4 L 187.6,288.9 L 187.4,288.5 L 185.3,286.7 L 184.7,286.0 L 183.5,285.3 L 181.6,283.9 L 178.8,280.9 L 175.6,278.4 L 174.2,278.1 L 173.6,278.2 L 174.1,279.0 L 173.4,279.6 L 172.9,279.4 L 172.4,279.3 L 172.1,279.5 L 172.8,280.2 L 172.1,281.0 L 171.3,281.4 L 170.7,281.5 L 169.5,281.0 L 169.2,281.2 L 169.5,281.7 L 170.1,281.5 L 170.8,281.9 L 171.0,282.5 L 172.6,284.7 L 172.9,286.7 L 173.7,288.4 L 173.5,289.1 L 173.3,289.2 L 172.3,288.5 L 172.2,287.9 L 171.5,287.1 L 171.4,286.6 L 169.0,282.7 L 168.0,281.7 L 163.8,278.8 L 164.1,279.0 L 164.9,279.5 L 165.7,279.6 L 165.9,279.2 L 165.5,277.2 L 165.6,276.5 L 165.4,276.0 L 165.8,275.6 L 165.6,275.1 L 164.9,275.3 L 163.9,274.3 L 163.3,274.4 L 163.0,275.1 L 163.6,275.6 L 163.3,276.0 L 162.9,276.0 L 160.8,274.8 L 159.5,274.5 L 159.2,275.3 L 159.7,276.1 L 159.7,276.1 L 157.1,274.4 L 157.2,274.4 L 157.6,272.1 L 157.3,271.2 L 156.4,269.8 L 155.8,269.5 L 154.7,269.6 L 153.5,270.2 L 153.1,270.9 L 155.0,272.9 L 144.5,265.9 L 144.0,265.6 L 144.0,265.5 L 143.8,265.0 L 143.7,263.8 L 143.6,263.4 L 143.6,263.1 L 143.6,261.8 L 144.2,260.7 L 144.3,260.5 L 145.0,260.4 L 145.2,261.2 L 145.2,261.6 L 145.8,262.6 L 146.6,265.3 L 148.5,267.3 L 148.9,267.5 L 150.2,267.5 L 151.3,269.3 L 151.7,269.2 L 151.8,268.5 L 150.1,265.2 L 150.0,263.6 L 151.0,264.0 L 153.3,267.0 L 153.9,267.2 L 155.3,268.2 L 156.4,268.3 L 156.4,268.0 L 155.4,266.1 L 154.1,265.2 L 152.6,265.2 L 152.8,264.4 L 152.0,262.8 L 152.3,262.4 L 151.9,261.8 L 151.5,261.8 L 151.5,262.3 L 151.0,262.2 L 149.6,261.6 L 149.2,262.0 L 148.7,262.0 L 147.7,260.0 L 147.3,259.9 L 146.9,259.5 L 145.6,258.7 L 145.8,258.5 L 146.1,258.4 L 146.5,258.6 L 147.4,259.4 L 148.1,259.9 L 148.3,260.1 L 148.8,260.1 L 149.2,259.7 L 147.3,258.2 L 147.1,258.0 L 147.1,257.8 L 147.4,257.5 L 148.3,257.1 L 149.1,257.4 L 149.3,257.9 L 150.3,258.6 L 151.1,259.7 L 152.6,259.6 L 152.3,256.4 L 151.5,254.7 L 151.5,253.5 L 151.4,253.1 L 150.2,252.7 L 148.6,253.9 L 148.5,254.6 L 147.9,255.7 L 147.2,256.7 L 146.3,257.1 L 146.1,256.9 L 145.2,256.4 L 144.5,255.7 L 144.2,255.5 L 144.0,255.6 L 143.8,255.9 L 143.9,256.5 L 145.1,257.9 L 145.2,258.3 L 144.6,258.5 L 144.4,258.8 L 144.4,259.1 L 144.2,259.4 L 143.4,260.4 L 143.1,260.2 L 142.9,259.8 L 142.6,258.7 L 142.5,257.9 L 142.2,256.6 L 141.6,254.9 L 140.9,253.1 L 140.3,252.1 L 139.8,251.1 L 139.6,250.1 L 139.5,249.7 L 138.5,249.5 L 138.2,249.1 L 138.3,247.6 L 137.0,246.5 L 137.6,246.0 L 137.4,245.6 L 137.8,245.2 L 138.5,246.0 L 139.8,246.1 L 139.8,246.5 L 140.2,246.9 L 140.7,246.7 L 141.9,243.6 L 142.1,241.5 L 140.9,239.7 L 140.1,239.5 L 140.0,239.0 L 139.3,238.9 L 138.6,240.1 L 137.8,238.9 L 137.6,237.7 L 137.1,237.4 L 137.0,237.0 L 136.8,236.2 L 136.8,234.8 L 135.8,233.4 L 135.6,232.1 L 135.2,231.3 L 135.5,230.9 L 133.4,228.7 L 133.9,228.3 L 133.4,227.3 L 133.7,225.6 L 132.9,224.7 L 131.3,223.4 L 131.3,222.3 L 131.0,222.1 L 130.6,222.4 L 130.3,223.3 L 129.5,223.0 L 128.9,223.1 L 128.5,222.9 L 128.2,222.0 L 127.4,221.5 L 128.0,217.4 L 127.3,216.7 L 127.1,215.3 L 127.0,214.2 L 126.4,213.4 L 126.1,213.2 L 126.2,212.0 L 125.5,210.4 L 125.9,209.9 L 126.5,209.2 L 126.6,207.9 L 126.3,206.9 L 126.3,206.2 L 126.0,205.2 L 125.8,203.9 L 125.3,202.6 L 124.9,202.0 L 124.7,200.1 L 125.5,199.8 L 125.4,199.0 L 124.7,197.8 L 123.4,196.5 L 122.7,194.7 L 122.8,194.0 L 122.2,193.3 L 121.5,193.3 L 121.0,193.9 L 121.0,195.0 L 120.3,194.9 L 119.8,194.6 L 120.1,193.8 L 120.6,192.9 L 120.7,191.6 L 120.1,190.2 L 119.1,189.9 L 118.9,189.5 L 118.9,188.3 L 118.6,187.7 L 118.9,186.9 L 118.8,186.4 L 116.7,184.2 L 115.9,184.1 L 115.4,186.8 L 114.9,186.9 L 114.6,186.5 L 114.2,186.4 L 114.0,186.8 L 113.4,187.1 L 113.4,187.5 L 112.9,187.1 L 112.1,188.1 L 112.2,189.7 L 112.6,190.3 L 112.4,192.2 L 112.6,193.0 L 112.5,193.9 L 112.9,194.0 L 113.1,195.0 L 114.1,196.1 L 114.5,196.1 L 114.7,195.6 L 115.4,196.3 L 115.4,199.2 L 116.1,199.9 L 116.3,200.8 L 118.5,202.3 L 119.5,203.7 L 119.4,205.4 L 118.9,206.0 L 118.6,208.0 L 118.9,209.1 L 118.9,210.5 L 119.5,211.1 L 119.5,211.6 L 119.8,212.4 L 120.0,214.2 L 120.5,214.5 L 122.1,217.7 L 121.6,217.9 L 119.7,215.1 L 119.3,213.9 L 118.6,213.7 L 117.6,213.9 L 117.4,214.6 L 117.0,215.2 L 116.1,215.3 L 116.1,213.6 L 115.8,213.3 L 115.9,212.9 L 115.5,212.1 L 115.2,211.1 L 114.8,210.7 L 115.3,210.1 L 115.6,209.0 L 115.4,208.3 L 115.4,207.8 L 114.5,206.3 L 113.9,206.1 L 113.2,204.8 L 113.1,203.5 L 112.0,202.0 L 111.2,201.7 L 110.8,201.3 L 110.2,201.2 L 109.2,200.4 L 109.1,199.6 L 108.9,198.8 L 109.3,198.3 L 110.9,198.6 L 111.0,198.1 L 109.6,195.3 L 109.5,194.7 L 108.8,192.8 L 108.0,191.8 L 107.2,190.9 L 107.4,189.7 L 108.2,189.6 L 108.2,189.1 L 108.0,188.4 L 106.6,187.1 L 106.0,187.1 L 105.6,186.3 L 105.5,185.9 L 104.6,185.6 L 103.7,183.3 L 101.7,183.0 L 101.6,183.3 L 100.6,183.9 L 100.3,184.3 L 101.2,184.9 L 101.1,185.5 L 99.9,186.2 L 98.9,186.6 L 97.0,186.8 L 96.3,186.9 L 94.4,186.7 L 93.7,187.3 L 93.5,188.1 L 82.2,178.4" fill="none" stroke="black" stroke-width="2"/>
</svg>