<?xml version="1.0" encoding="UTF-8"?>
<svg width="400" height="400" viewBox="0 0 400 400" xmlns="http://www.w3.org/2000/svg">
  <rect width="400" height="400" fill="white"/>
  <path d="M 219.8,189.8 L 219.9,188.6 L 219.7,188.1 L 219.1,187.6 L 219.0,187.3 L 219.0,186.8 L 218.8,186.0 L 218.6,185.0 L 218.0,183.3 L 217.8,181.8 L 217.4,180.3 L 216.9,179.4 L 216.9,179.1 L 216.4,178.6 L 216.5,177.3 L 216.4,176.1 L 216.0,175.6 L 216.2,174.0 L 216.5,173.7 L 216.7,172.8 L 216.3,172.1 L 216.4,171.4 L 216.3,169.8 L 216.8,169.3 L 216.4,168.8 L 215.1,165.3 L 215.1,165.0 L 215.0,164.1 L 214.7,163.6 L 214.3,163.4 L 213.2,163.2 L 212.3,162.3 L 211.9,162.1 L 211.6,162.0 L 211.2,161.7 L 210.4,161.9 L 209.9,161.2 L 209.7,159.8 L 209.7,158.0 L 210.4,156.0 L 211.6,154.0 L 211.8,153.4 L 211.9,152.3 L 211.6,151.7 L 211.4,151.5 L 211.0,151.3 L 210.9,150.9 L 211.0,150.6 L 211.4,150.5 L 211.7,150.5 L 212.2,151.5 L 212.4,152.4 L 212.7,152.6 L 213.5,152.6 L 214.4,152.0 L 214.4,151.6 L 214.3,151.2 L 214.2,150.5 L 214.0,150.0 L 213.4,149.2 L 212.5,148.8 L 212.1,148.8 L 211.9,148.6 L 211.2,148.6 L 210.6,148.2 L 210.2,147.4 L 209.1,143.1 L 209.1,142.8 L 209.1,142.5 L 209.0,142.1 L 208.6,140.9 L 209.0,140.3 L 208.8,140.0 L 209.0,138.7 L 208.6,138.3 L 208.4,137.9 L 208.6,137.6 L 208.5,137.2 L 208.8,137.0 L 208.7,136.4 L 208.3,135.9 L 208.0,135.1 L 207.7,134.3 L 207.1,133.7 L 206.7,133.7 L 206.5,133.8 L 206.1,133.6 L 206.1,133.1 L 206.3,132.1 L 206.5,131.8 L 205.9,128.3 L 205.4,127.8 L 204.8,126.6 L 204.3,125.9 L 204.8,121.6 L 204.7,120.5 L 205.4,119.5 L 205.5,118.9 L 205.2,117.9 L 204.3,117.0 L 204.1,116.5 L 204.0,115.8 L 203.6,113.8 L 203.8,111.8 L 204.0,110.3 L 203.9,109.4 L 203.9,108.3 L 203.7,106.9 L 203.4,104.5 L 203.3,103.9 L 202.9,103.5 L 202.7,102.9 L 202.7,102.2 L 202.5,101.4 L 201.9,99.6 L 201.6,97.8 L 201.2,96.9 L 199.7,95.0 L 199.6,93.5 L 199.1,91.9 L 199.0,91.2 L 199.1,90.4 L 198.6,89.3 L 198.5,88.7 L 198.1,87.8 L 198.0,86.8 L 197.7,86.2 L 197.1,84.6 L 197.3,82.8 L 197.1,82.5 L 197.2,82.0 L 196.2,80.7 L 196.1,80.6 L 195.5,79.7 L 195.5,79.4 L 194.7,78.9 L 194.3,77.9 L 194.1,77.6 L 193.7,77.4 L 193.2,77.7 L 193.1,78.5 L 192.6,79.3 L 192.1,79.9 L 191.3,79.8 L 191.0,80.1 L 190.8,80.6 L 190.7,81.1 L 190.4,82.9 L 191.1,84.8 L 190.9,86.2 L 190.7,87.1 L 190.6,88.2 L 190.2,90.9 L 190.3,92.3 L 190.0,93.4 L 189.7,94.1 L 189.5,94.9 L 189.1,95.3 L 189.1,95.7 L 188.4,96.5 L 188.3,97.2 L 188.4,98.0 L 188.2,98.7 L 187.7,99.0 L 187.6,99.3 L 187.9,99.8 L 187.9,100.8 L 187.7,101.0 L 187.2,101.1 L 187.1,101.3 L 187.3,101.5 L 187.3,101.8 L 186.7,102.2 L 185.3,102.4 L 183.8,101.8 L 182.5,100.3 L 182.2,100.0 L 182.3,99.8 L 182.3,99.4 L 182.1,99.1 L 181.7,99.0 L 181.3,99.3 L 180.5,99.5 L 180.3,99.9 L 180.1,100.2 L 180.0,100.2 L 179.3,100.7 L 178.7,101.3 L 178.5,101.7 L 178.6,102.9 L 178.3,103.3 L 178.1,103.7 L 177.6,104.3 L 177.4,105.4 L 177.2,105.8 L 176.9,106.3 L 176.8,106.7 L 176.5,107.3 L 176.4,107.9 L 176.4,108.4 L 176.5,108.7 L 177.0,109.1 L 177.1,109.3 L 177.1,109.4 L 177.1,109.7 L 177.0,109.7 L 176.3,110.1 L 176.1,109.9 L 175.7,109.9 L 175.0,109.6 L 174.4,109.1 L 172.5,107.6 L 171.2,105.9 L 170.3,105.2 L 169.5,104.2 L 169.1,103.3 L 168.9,103.2 L 168.4,103.0 L 167.7,102.1 L 167.5,101.3 L 167.8,101.0 L 167.6,100.7 L 166.9,100.3 L 166.5,99.6 L 166.5,99.0 L 166.7,98.4 L 166.7,98.1 L 165.9,97.8 L 165.5,97.7 L 164.5,97.1 L 163.5,97.0 L 163.4,96.9 L 162.2,96.0 L 162.1,94.3 L 161.9,94.0 L 161.5,93.6 L 161.5,93.2 L 160.9,92.9 L 160.5,92.5 L 160.6,92.2 L 159.7,91.6 L 159.2,91.4 L 158.9,91.2 L 158.3,90.9 L 158.4,90.7 L 158.7,90.5 L 158.9,90.1 L 159.3,90.1 L 159.5,89.7 L 159.5,89.2 L 159.2,88.6 L 157.9,87.6 L 157.5,87.5 L 157.1,86.9 L 157.6,86.6 L 157.0,86.1 L 156.2,86.0 L 155.6,86.2 L 153.9,84.5 L 153.9,84.2 L 152.6,83.6 L 152.4,83.9 L 151.7,84.0 L 151.4,84.3 L 150.4,84.3 L 150.6,85.3 L 150.8,85.6 L 150.9,86.1 L 150.9,87.4 L 150.2,87.4 L 149.9,87.0 L 150.1,86.7 L 150.1,86.4 L 149.6,85.7 L 149.7,85.2 L 149.6,85.1 L 149.4,85.0 L 149.1,84.6 L 147.8,83.7 L 147.4,83.9 L 145.9,83.5 L 145.8,83.1 L 145.3,83.0 L 145.6,83.9 L 145.6,84.8 L 145.4,85.7 L 145.6,86.6 L 145.4,86.8 L 145.5,87.5 L 145.5,88.2 L 146.3,88.7 L 146.3,89.0 L 146.1,89.2 L 146.0,89.6 L 145.7,89.7 L 145.0,87.6 L 144.6,86.6 L 144.5,86.4 L 144.6,86.2 L 144.5,86.1 L 144.4,86.2 L 134.2,58.3 L 134.0,57.9 L 134.0,57.9 L 134.5,57.9 L 134.7,57.8 L 135.3,58.1 L 135.6,58.3 L 136.2,58.3 L 136.4,58.2 L 136.9,58.7 L 137.7,58.6 L 138.6,58.6 L 139.5,58.3 L 140.1,58.3 L 140.3,58.1 L 140.2,57.7 L 140.3,57.3 L 141.2,57.8 L 141.5,57.7 L 141.7,57.4 L 141.5,56.9 L 141.7,56.8 L 141.9,56.3 L 142.4,56.0 L 142.5,55.7 L 141.5,54.9 L 141.7,54.2 L 142.3,54.3 L 143.1,53.8 L 143.0,52.0 L 142.8,51.6 L 142.9,50.3 L 142.8,50.0 L 142.8,49.6 L 143.6,50.8 L 143.6,51.5 L 143.9,52.2 L 144.1,52.4 L 144.7,53.0 L 144.7,53.3 L 145.7,54.2 L 146.4,54.2 L 147.4,54.8 L 148.1,54.6 L 148.6,54.6 L 149.5,54.0 L 149.7,53.2 L 149.9,52.3 L 150.2,52.1 L 150.2,52.5 L 150.6,53.2 L 151.2,53.6 L 151.5,53.7 L 151.7,53.4 L 152.0,53.4 L 152.6,53.1 L 152.8,53.4 L 152.9,54.0 L 153.7,54.1 L 153.9,53.7 L 153.8,53.5 L 154.0,53.3 L 154.1,52.9 L 154.1,52.4 L 153.7,52.2 L 153.5,51.9 L 153.7,51.0 L 153.3,50.6 L 153.6,50.4 L 154.1,50.7 L 155.0,50.9 L 155.3,51.3 L 155.7,51.3 L 155.7,51.4 L 156.2,51.9 L 156.2,52.3 L 156.5,52.3 L 157.0,51.9 L 157.1,51.0 L 157.5,50.8 L 157.8,50.9 L 158.0,51.7 L 158.3,51.8 L 158.6,52.1 L 159.6,51.9 L 159.6,51.4 L 159.2,50.9 L 159.5,50.6 L 159.4,50.4 L 159.5,49.7 L 158.8,48.6 L 159.1,47.5 L 159.4,47.2 L 159.5,47.9 L 159.9,49.1 L 160.1,49.3 L 160.6,49.2 L 161.1,49.5 L 161.6,49.4 L 161.7,49.0 L 162.2,48.9 L 162.3,49.0 L 163.4,49.2 L 163.7,49.5 L 164.3,50.1 L 164.6,50.2 L 165.4,50.5 L 165.7,51.1 L 166.1,51.0 L 166.0,50.3 L 166.4,50.5 L 168.3,50.9 L 168.5,51.1 L 168.7,51.5 L 169.4,52.4 L 169.7,52.3 L 170.2,51.8 L 170.5,51.6 L 170.7,51.2 L 171.2,51.1 L 171.5,50.8 L 171.6,51.1 L 171.7,51.9 L 172.1,52.6 L 172.9,52.6 L 173.2,51.6 L 174.1,51.6 L 174.4,51.4 L 174.4,50.8 L 175.2,50.5 L 175.6,50.2 L 175.5,50.0 L 175.3,49.1 L 175.3,48.8 L 176.2,48.2 L 176.2,47.8 L 176.0,47.5 L 176.0,47.0 L 175.8,46.8 L 175.9,46.0 L 175.6,45.2 L 175.7,44.8 L 175.9,44.5 L 175.7,44.1 L 175.9,43.3 L 175.6,42.2 L 175.8,41.8 L 175.6,41.6 L 175.8,40.0 L 175.8,40.0 L 194.3,40.6 L 200.4,40.8 L 201.3,40.9 L 201.4,41.0 L 201.0,41.3 L 201.0,41.6 L 201.0,41.9 L 200.4,41.8 L 200.1,42.0 L 199.9,42.7 L 200.0,43.1 L 200.6,43.6 L 201.8,43.9 L 202.1,44.1 L 202.0,44.4 L 201.7,44.4 L 200.6,44.4 L 200.3,44.6 L 200.2,45.0 L 200.5,45.3 L 200.7,45.9 L 200.0,46.1 L 200.0,46.5 L 200.3,46.7 L 200.5,46.9 L 200.1,46.7 L 199.5,46.8 L 199.5,47.2 L 199.8,47.4 L 200.2,48.1 L 200.5,48.3 L 201.0,48.4 L 201.3,48.4 L 201.1,49.2 L 202.5,50.2 L 202.8,50.2 L 203.9,50.9 L 204.5,51.0 L 204.5,50.7 L 204.6,50.6 L 205.5,51.1 L 206.3,51.3 L 206.6,51.8 L 206.4,52.0 L 206.2,52.0 L 205.6,51.8 L 205.0,51.6 L 204.7,51.8 L 204.8,52.4 L 204.7,52.5 L 204.5,53.1 L 204.4,53.6 L 204.2,53.9 L 204.3,54.0 L 204.7,54.2 L 204.9,54.8 L 205.5,54.7 L 205.7,55.0 L 206.5,55.8 L 206.9,56.0 L 207.7,56.1 L 208.1,55.9 L 208.9,56.3 L 209.6,56.4 L 210.1,56.2 L 210.2,56.0 L 210.6,56.0 L 210.9,54.1 L 211.2,53.5 L 211.5,53.5 L 211.5,53.1 L 211.7,52.9 L 211.5,52.4 L 211.7,51.8 L 212.1,51.2 L 212.3,51.1 L 212.4,51.5 L 212.6,51.5 L 212.8,51.3 L 212.8,50.7 L 212.7,50.4 L 212.8,49.7 L 212.5,49.0 L 212.8,47.5 L 212.5,47.2 L 212.5,46.8 L 215.7,47.8 L 215.7,48.4 L 216.2,49.3 L 216.2,49.6 L 216.3,49.7 L 216.6,49.8 L 217.3,51.3 L 217.3,51.8 L 217.5,52.3 L 217.5,52.6 L 217.3,52.8 L 217.4,52.4 L 217.3,52.3 L 217.2,51.8 L 216.8,51.4 L 216.5,51.4 L 216.4,51.6 L 216.6,52.1 L 216.7,53.1 L 216.6,53.3 L 216.3,53.1 L 216.1,53.1 L 216.0,53.3 L 216.1,53.6 L 216.7,53.9 L 216.8,54.3 L 216.2,54.3 L 216.1,54.6 L 216.3,55.6 L 217.3,56.1 L 217.7,56.1 L 217.9,55.9 L 217.9,55.6 L 217.5,54.7 L 217.3,54.5 L 217.6,54.1 L 218.2,54.7 L 219.5,55.0 L 219.9,55.5 L 219.1,55.5 L 219.0,56.0 L 219.7,56.1 L 220.1,55.9 L 220.5,55.9 L 220.9,55.5 L 221.5,55.8 L 222.1,56.4 L 222.4,56.5 L 222.6,56.3 L 223.7,56.8 L 224.2,57.3 L 224.8,57.4 L 225.3,57.4 L 225.5,57.6 L 226.1,57.5 L 226.6,57.4 L 227.0,57.5 L 227.2,57.0 L 228.6,56.2 L 229.3,56.3 L 229.7,56.7 L 229.6,57.0 L 229.5,57.0 L 229.1,56.8 L 229.0,57.5 L 229.5,58.0 L 230.1,58.3 L 230.5,58.3 L 231.1,58.0 L 231.4,58.1 L 231.6,58.2 L 232.2,58.3 L 232.5,58.5 L 232.3,59.4 L 232.5,60.1 L 232.8,60.3 L 233.1,60.6 L 233.2,60.9 L 232.7,61.3 L 232.1,61.2 L 231.7,61.0 L 231.1,61.2 L 228.7,61.0 L 227.9,61.1 L 226.5,60.9 L 225.8,60.9 L 224.5,61.2 L 222.9,61.2 L 222.5,61.5 L 222.0,61.5 L 221.4,61.7 L 220.5,61.7 L 220.1,61.8 L 218.0,61.7 L 213.6,62.0 L 212.7,62.2 L 212.3,62.5 L 211.9,64.8 L 211.6,64.8 L 211.4,64.6 L 211.2,64.5 L 210.5,64.9 L 210.6,65.5 L 210.9,65.7 L 210.8,66.2 L 211.2,66.8 L 211.1,67.3 L 211.2,67.6 L 211.8,67.6 L 212.1,67.9 L 212.1,68.4 L 212.5,68.7 L 212.4,69.3 L 212.7,70.6 L 212.7,71.4 L 212.4,71.6 L 212.2,72.3 L 211.8,72.6 L 211.6,73.1 L 211.5,74.7 L 211.6,75.9 L 212.0,76.4 L 212.2,77.0 L 212.5,77.6 L 212.7,77.7 L 212.9,78.0 L 213.3,78.2 L 213.6,78.6 L 213.7,78.9 L 213.3,79.3 L 213.1,79.8 L 213.4,80.3 L 213.4,80.7 L 213.6,81.1 L 213.5,81.4 L 214.0,81.6 L 214.3,82.1 L 214.8,82.3 L 214.9,82.8 L 214.9,83.7 L 214.4,84.1 L 214.8,85.0 L 214.5,85.4 L 214.3,86.1 L 215.1,87.2 L 215.0,87.6 L 215.2,87.9 L 215.4,88.1 L 215.8,87.9 L 216.2,88.3 L 216.5,89.1 L 216.2,91.4 L 215.9,91.9 L 216.6,92.2 L 217.2,93.2 L 217.0,94.2 L 216.2,94.8 L 216.1,95.3 L 216.3,96.1 L 216.6,96.4 L 216.6,96.7 L 216.2,97.2 L 216.2,98.2 L 215.8,98.4 L 215.7,98.7 L 215.3,99.3 L 215.6,99.8 L 215.4,100.7 L 215.1,101.0 L 214.8,101.4 L 215.0,101.9 L 215.7,102.0 L 216.1,102.2 L 216.3,102.6 L 216.0,102.9 L 215.2,103.3 L 215.0,103.5 L 214.6,104.4 L 214.8,104.8 L 215.0,105.0 L 215.0,105.6 L 215.5,106.1 L 216.0,106.2 L 217.5,106.1 L 218.0,106.0 L 218.7,106.1 L 220.3,108.0 L 220.1,110.8 L 219.3,111.5 L 218.4,111.4 L 218.3,111.3 L 218.1,111.3 L 217.9,111.1 L 217.5,111.1 L 217.2,111.2 L 216.1,111.1 L 215.0,111.0 L 214.4,111.3 L 213.7,112.0 L 213.6,112.7 L 213.3,114.0 L 213.4,114.9 L 213.6,115.1 L 213.5,116.0 L 213.8,117.1 L 214.2,118.2 L 214.7,118.8 L 216.0,119.6 L 217.6,120.8 L 219.9,121.4 L 220.4,121.4 L 221.6,120.6 L 222.0,120.7 L 222.3,120.9 L 222.8,121.8 L 222.4,124.1 L 222.5,125.0 L 222.9,125.4 L 222.9,125.8 L 222.7,126.1 L 222.5,127.3 L 222.2,127.9 L 222.3,129.0 L 222.8,129.2 L 223.3,129.7 L 223.7,129.8 L 225.0,130.9 L 225.0,131.3 L 224.9,131.4 L 224.0,131.7 L 223.5,131.9 L 223.3,132.3 L 223.6,133.0 L 224.0,133.1 L 224.6,133.5 L 225.0,133.2 L 225.2,133.3 L 225.8,134.2 L 225.6,136.0 L 225.3,136.4 L 224.6,136.2 L 224.0,136.4 L 224.3,137.7 L 224.7,138.4 L 224.9,138.5 L 225.1,138.7 L 225.3,139.4 L 225.6,139.5 L 226.1,139.4 L 226.5,139.4 L 227.3,141.4 L 227.7,141.3 L 228.3,140.9 L 229.4,141.1 L 229.7,140.6 L 229.8,139.6 L 229.6,139.2 L 229.3,138.6 L 229.5,137.8 L 229.9,137.1 L 230.9,136.9 L 232.1,136.0 L 232.8,136.1 L 232.9,136.6 L 233.1,136.7 L 232.8,137.2 L 232.7,138.0 L 232.5,138.3 L 232.5,138.5 L 232.8,138.5 L 233.1,138.3 L 233.8,138.4 L 234.0,138.5 L 234.2,139.0 L 234.5,139.2 L 234.5,139.8 L 235.2,140.1 L 235.2,140.3 L 235.6,140.7 L 235.7,141.0 L 235.9,141.3 L 236.2,141.3 L 237.0,140.9 L 237.1,141.0 L 237.4,141.0 L 237.4,141.4 L 237.2,141.7 L 237.8,142.5 L 237.7,143.0 L 238.3,143.8 L 238.6,143.8 L 239.1,143.6 L 239.2,143.4 L 239.0,143.1 L 239.0,142.3 L 238.5,141.9 L 238.9,140.7 L 238.4,139.7 L 238.0,139.1 L 238.4,138.6 L 238.4,138.2 L 237.6,137.8 L 238.4,137.2 L 239.4,137.3 L 239.7,137.3 L 239.8,137.5 L 240.4,137.8 L 241.1,137.8 L 241.3,137.7 L 242.5,137.5 L 242.8,138.6 L 243.1,139.0 L 243.6,139.1 L 243.8,138.7 L 243.9,138.2 L 244.4,137.7 L 245.1,137.3 L 246.8,137.5 L 246.9,137.7 L 247.0,138.2 L 247.5,138.6 L 246.6,139.4 L 246.0,140.0 L 245.6,139.9 L 245.3,140.1 L 245.2,140.5 L 244.8,140.7 L 244.5,141.5 L 244.8,141.9 L 244.6,143.0 L 244.7,143.5 L 244.6,143.8 L 244.0,144.3 L 242.7,144.8 L 241.9,145.7 L 241.8,146.9 L 241.6,147.2 L 241.4,148.3 L 242.0,149.1 L 242.0,149.6 L 242.3,150.2 L 243.3,150.6 L 243.7,150.6 L 244.9,150.2 L 245.8,150.4 L 246.2,150.3 L 247.8,150.4 L 248.5,150.2 L 249.0,150.0 L 249.2,150.0 L 249.5,149.9 L 249.7,149.9 L 250.1,149.9 L 250.8,149.8 L 251.4,149.8 L 251.5,150.0 L 251.2,150.6 L 250.4,151.3 L 250.2,151.6 L 249.9,152.0 L 249.5,152.0 L 249.2,152.1 L 248.0,152.7 L 244.7,153.3 L 243.9,153.8 L 243.2,154.5 L 242.6,155.0 L 242.7,155.5 L 242.7,155.9 L 242.9,156.2 L 243.4,156.4 L 243.7,156.4 L 244.8,156.4 L 244.9,156.7 L 245.5,156.9 L 245.9,157.1 L 246.6,157.1 L 247.8,156.6 L 248.4,156.6 L 248.5,156.5 L 249.0,156.1 L 249.2,156.1 L 249.5,156.0 L 250.3,156.1 L 252.8,155.2 L 253.2,155.6 L 253.8,155.6 L 254.5,155.1 L 255.2,155.1 L 255.9,154.4 L 257.9,154.1 L 258.1,154.3 L 259.0,154.2 L 259.1,154.4 L 259.7,154.5 L 260.3,154.3 L 260.5,154.1 L 260.9,153.9 L 261.3,153.5 L 261.5,153.1 L 261.6,152.0 L 262.1,151.1 L 262.9,150.3 L 263.6,149.9 L 263.9,150.0 L 264.7,150.2 L 265.5,149.6 L 265.9,149.7 L 266.0,150.0 L 265.7,150.6 L 265.2,151.4 L 264.8,151.8 L 264.2,151.9 L 263.4,152.5 L 263.2,152.9 L 262.3,153.3 L 262.0,153.6 L 261.9,154.2 L 261.8,155.5 L 261.9,156.3 L 262.2,156.4 L 262.5,157.0 L 262.0,157.8 L 261.6,158.3 L 261.4,159.9 L 261.5,160.2 L 262.0,160.2 L 262.5,160.1 L 262.9,160.2 L 263.3,160.8 L 263.3,161.1 L 262.6,161.5 L 262.3,161.5 L 261.6,160.8 L 261.3,160.6 L 260.7,160.9 L 260.5,160.8 L 259.7,159.0 L 259.8,157.7 L 258.6,157.6 L 257.9,157.6 L 257.5,158.1 L 257.0,158.1 L 256.0,158.4 L 256.2,159.6 L 256.7,160.2 L 257.1,160.1 L 257.2,160.4 L 257.5,160.6 L 258.0,161.3 L 258.1,161.7 L 258.8,162.3 L 259.3,162.3 L 260.6,161.0 L 260.8,162.0 L 261.8,162.3 L 261.9,162.5 L 261.7,162.8 L 260.5,162.8 L 260.2,163.6 L 259.2,163.7 L 258.6,163.7 L 258.5,163.8 L 256.1,163.5 L 255.1,162.9 L 254.3,162.7 L 252.7,161.7 L 250.3,161.4 L 250.1,161.0 L 250.3,160.5 L 250.0,160.5 L 249.4,160.6 L 249.4,160.3 L 249.5,160.1 L 249.9,159.9 L 250.0,159.7 L 249.7,159.9 L 248.8,159.9 L 248.3,159.9 L 248.2,160.2 L 247.9,160.3 L 247.4,160.3 L 247.5,160.0 L 248.1,159.6 L 248.9,159.5 L 249.0,159.5 L 249.4,159.2 L 249.0,158.6 L 248.9,158.6 L 248.5,158.3 L 248.3,158.3 L 246.4,158.8 L 244.9,159.1 L 244.7,159.3 L 244.3,159.3 L 244.3,159.5 L 244.1,159.4 L 244.0,159.5 L 243.8,159.8 L 243.2,160.0 L 242.9,160.8 L 242.0,161.0 L 241.3,161.4 L 242.2,162.0 L 242.1,162.1 L 241.8,162.2 L 241.4,162.6 L 242.0,162.8 L 242.2,163.2 L 242.6,163.6 L 244.3,163.7 L 244.5,164.0 L 244.1,164.3 L 243.8,164.8 L 242.4,164.4 L 241.8,164.7 L 241.2,164.6 L 240.7,164.8 L 241.1,164.9 L 241.3,165.3 L 241.2,165.6 L 240.6,165.8 L 239.3,165.9 L 238.5,166.1 L 236.4,167.1 L 236.2,167.7 L 235.9,167.9 L 235.7,168.9 L 235.7,169.2 L 235.4,169.7 L 235.1,170.6 L 235.3,170.8 L 235.2,172.2 L 235.3,172.8 L 235.5,174.0 L 235.5,174.6 L 235.4,174.9 L 234.8,174.8 L 234.2,175.1 L 233.5,174.4 L 233.4,174.2 L 233.2,174.0 L 232.9,173.8 L 232.7,173.9 L 231.8,173.8 L 231.0,174.0 L 230.7,173.7 L 230.3,173.9 L 230.1,174.5 L 230.4,175.0 L 231.0,175.1 L 230.6,175.9 L 230.8,176.1 L 230.7,176.3 L 230.1,176.6 L 230.3,176.9 L 230.1,177.1 L 230.0,177.5 L 229.5,177.7 L 229.3,178.3 L 229.5,178.6 L 229.9,178.9 L 230.0,179.1 L 229.6,179.2 L 229.2,180.5 L 229.3,181.0 L 229.4,182.1 L 229.2,183.2 L 229.2,183.7 L 229.2,185.1 L 229.8,185.6 L 230.0,185.9 L 230.5,186.2 L 231.1,186.3 L 231.9,186.8 L 232.2,186.8 L 233.7,187.0 L 234.1,186.6 L 234.9,184.6 L 234.8,184.5 L 234.9,184.0 L 234.7,183.5 L 235.0,183.2 L 235.4,182.8 L 235.7,182.1 L 235.8,181.2 L 236.2,181.3 L 236.2,181.7 L 236.5,182.3 L 237.2,184.0 L 237.2,184.7 L 237.3,185.0 L 237.2,186.1 L 237.0,186.6 L 236.8,187.3 L 236.9,189.2 L 237.4,189.6 L 237.2,190.1 L 237.0,191.4 L 236.5,192.0 L 236.3,193.0 L 236.1,193.2 L 235.9,194.4 L 236.0,194.7 L 235.9,195.1 L 236.0,195.9 L 235.7,196.9 L 235.3,197.4 L 235.6,197.5 L 236.0,198.0 L 236.0,198.7 L 236.2,199.6 L 235.9,200.8 L 235.8,201.0 L 235.2,201.0 L 235.1,200.7 L 235.1,200.3 L 235.1,199.9 L 235.1,199.7 L 235.1,199.6 L 235.3,199.3 L 235.1,199.3 L 234.9,199.7 L 234.9,199.9 L 234.9,200.6 L 234.4,201.0 L 234.5,201.9 L 233.8,202.3 L 233.5,203.0 L 233.4,203.2 L 233.1,204.0 L 233.1,204.3 L 233.0,205.7 L 233.1,205.9 L 232.7,206.3 L 232.5,207.2 L 232.7,207.5 L 233.6,207.8 L 233.5,208.4 L 233.3,208.6 L 233.1,209.8 L 232.4,210.5 L 232.2,211.8 L 232.3,212.2 L 232.0,212.4 L 232.1,212.9 L 232.4,214.1 L 232.3,215.3 L 232.5,216.0 L 232.4,216.6 L 231.0,217.5 L 230.9,217.9 L 230.3,218.7 L 230.3,219.4 L 230.4,219.8 L 230.5,220.9 L 230.2,222.0 L 229.8,222.3 L 229.6,222.3 L 229.3,221.7 L 228.5,221.6 L 228.0,221.7 L 227.5,222.4 L 227.5,223.1 L 226.6,223.1 L 225.9,223.4 L 225.8,223.6 L 225.9,224.0 L 225.7,224.4 L 225.4,225.3 L 225.5,225.5 L 226.4,225.7 L 226.7,226.0 L 226.9,226.5 L 227.6,226.7 L 227.9,227.2 L 227.8,227.8 L 227.4,228.1 L 226.7,228.1 L 226.3,228.3 L 225.3,228.8 L 225.1,229.5 L 225.2,229.6 L 226.3,230.5 L 226.1,231.6 L 226.4,231.8 L 227.0,231.6 L 227.3,231.6 L 227.6,232.1 L 227.3,234.3 L 227.5,234.8 L 228.1,235.3 L 228.3,235.6 L 228.3,236.3 L 228.5,236.6 L 228.5,237.0 L 229.3,238.4 L 230.4,238.4 L 230.8,238.0 L 230.9,237.6 L 232.1,236.8 L 232.5,236.1 L 232.7,236.0 L 233.1,235.6 L 233.6,236.2 L 233.8,236.2 L 233.5,236.7 L 233.3,237.7 L 233.5,239.4 L 233.6,240.1 L 233.0,240.4 L 232.4,240.5 L 231.9,240.7 L 231.7,242.5 L 231.7,244.1 L 231.9,244.5 L 232.2,244.7 L 232.8,244.6 L 233.2,244.9 L 233.3,245.2 L 233.1,245.5 L 233.1,246.0 L 234.6,246.7 L 235.1,247.0 L 235.3,246.9 L 235.8,246.5 L 236.1,245.2 L 236.4,244.9 L 237.2,243.6 L 238.0,243.2 L 238.2,243.4 L 238.4,243.7 L 238.2,244.9 L 237.7,245.5 L 237.3,248.7 L 237.1,248.9 L 236.8,249.8 L 236.1,250.3 L 236.0,251.7 L 236.2,252.7 L 236.3,253.6 L 236.1,253.9 L 236.0,254.2 L 236.1,254.3 L 236.7,255.4 L 236.6,256.9 L 237.1,257.5 L 237.6,257.5 L 238.0,257.9 L 238.4,258.0 L 238.7,258.4 L 239.3,258.4 L 239.8,258.3 L 240.2,258.2 L 240.6,257.6 L 240.9,257.3 L 241.6,257.2 L 241.8,257.4 L 242.5,257.7 L 242.7,257.7 L 243.2,257.5 L 243.6,257.6 L 244.1,257.6 L 244.3,256.4 L 244.9,255.2 L 245.8,254.6 L 246.2,253.8 L 246.3,253.0 L 246.2,252.3 L 245.9,251.9 L 246.2,251.1 L 246.4,250.8 L 246.4,249.4 L 246.8,249.0 L 247.3,248.9 L 247.8,248.8 L 248.5,249.8 L 248.4,250.5 L 248.1,251.1 L 246.9,252.1 L 246.7,253.4 L 246.8,254.0 L 247.5,256.1 L 247.6,256.5 L 247.2,256.8 L 247.1,257.5 L 246.8,257.7 L 246.6,258.3 L 246.7,258.9 L 246.9,259.0 L 248.1,258.9 L 248.1,259.1 L 247.7,260.4 L 247.5,260.9 L 247.6,261.2 L 247.1,261.9 L 246.9,263.0 L 247.4,263.6 L 247.9,264.0 L 247.9,264.8 L 247.4,264.9 L 247.0,265.3 L 246.7,265.7 L 246.5,266.7 L 245.8,267.1 L 245.7,268.1 L 245.8,268.6 L 245.8,268.7 L 245.5,270.1 L 244.9,271.7 L 245.2,272.0 L 245.2,272.3 L 245.4,272.5 L 246.4,273.3 L 246.9,273.2 L 246.8,272.9 L 246.9,272.7 L 247.8,272.9 L 248.1,272.8 L 248.4,273.1 L 248.7,273.2 L 249.1,273.8 L 249.2,274.3 L 249.4,274.7 L 249.6,274.8 L 249.9,274.7 L 250.0,274.4 L 251.1,274.5 L 251.4,275.0 L 251.3,275.9 L 251.2,276.2 L 250.3,276.2 L 250.0,276.4 L 250.4,276.7 L 251.4,277.2 L 251.3,277.7 L 251.7,277.9 L 251.7,278.2 L 251.3,278.2 L 251.2,278.7 L 250.1,279.3 L 249.7,279.4 L 249.6,279.8 L 249.3,280.3 L 249.4,280.8 L 248.6,280.7 L 248.5,281.2 L 247.7,281.2 L 247.5,281.6 L 248.4,282.5 L 248.3,283.2 L 247.9,283.3 L 247.8,283.6 L 248.0,283.7 L 247.8,285.7 L 248.1,286.5 L 248.0,287.9 L 248.2,288.3 L 248.3,289.0 L 248.4,289.1 L 248.7,288.9 L 249.0,289.0 L 249.0,289.5 L 249.6,290.6 L 249.5,291.6 L 249.1,292.0 L 249.8,292.9 L 249.7,293.2 L 249.1,293.6 L 248.9,294.4 L 249.4,294.8 L 249.5,295.4 L 248.9,295.8 L 249.6,296.5 L 249.7,296.9 L 250.3,297.5 L 250.0,297.8 L 250.2,298.6 L 250.3,299.3 L 250.6,299.9 L 251.0,299.9 L 251.2,299.7 L 251.3,299.4 L 251.5,299.0 L 252.1,298.8 L 252.9,299.4 L 252.8,299.7 L 253.1,300.2 L 253.2,300.6 L 253.3,301.1 L 252.9,301.4 L 251.6,301.5 L 251.3,301.8 L 251.0,301.8 L 250.6,301.0 L 250.4,300.8 L 250.2,300.0 L 249.7,299.6 L 249.5,299.5 L 248.8,299.8 L 249.0,300.2 L 248.6,300.2 L 248.5,300.8 L 248.3,301.0 L 248.2,301.4 L 247.4,301.6 L 247.4,302.5 L 247.5,303.2 L 247.8,303.9 L 247.9,304.2 L 248.3,305.0 L 248.7,306.2 L 248.0,306.2 L 247.6,306.7 L 247.5,307.3 L 248.0,308.2 L 247.9,308.6 L 248.3,309.3 L 248.6,309.8 L 248.6,310.3 L 249.1,310.3 L 249.7,311.3 L 249.7,312.0 L 250.6,312.3 L 251.0,312.3 L 251.1,312.1 L 250.7,311.4 L 250.6,310.9 L 250.9,310.0 L 251.2,309.8 L 251.6,309.9 L 251.9,310.5 L 251.7,310.9 L 251.7,311.1 L 252.0,312.5 L 252.0,312.8 L 251.7,312.9 L 251.5,313.6 L 251.7,313.9 L 251.6,314.1 L 251.4,314.5 L 251.2,314.7 L 251.0,315.5 L 251.1,317.2 L 251.6,318.1 L 251.7,319.1 L 251.7,320.0 L 252.4,322.0 L 252.3,322.2 L 251.7,322.2 L 251.5,323.0 L 251.2,323.2 L 251.1,323.6 L 250.9,323.9 L 250.6,324.9 L 250.8,325.1 L 250.7,326.1 L 251.0,326.4 L 251.5,326.3 L 252.1,326.0 L 252.4,326.1 L 252.6,326.3 L 252.6,326.6 L 252.9,326.5 L 253.3,326.1 L 253.4,325.6 L 253.7,325.5 L 254.4,326.6 L 254.9,327.2 L 255.6,326.9 L 256.2,326.4 L 256.4,325.9 L 257.0,325.9 L 257.9,325.0 L 258.5,324.6 L 258.7,324.7 L 258.9,325.1 L 259.4,325.0 L 259.7,324.8 L 260.0,324.8 L 260.5,325.6 L 260.4,326.8 L 260.5,326.9 L 260.7,327.7 L 260.9,327.8 L 260.9,328.4 L 261.4,328.7 L 261.7,328.9 L 261.8,329.2 L 262.3,329.5 L 262.5,329.8 L 263.7,330.3 L 264.2,330.6 L 264.8,330.8 L 264.8,331.0 L 265.2,331.2 L 264.9,331.7 L 264.8,331.8 L 264.6,332.2 L 265.0,332.7 L 265.0,333.2 L 264.4,333.7 L 261.5,333.5 L 260.3,333.9 L 260.2,334.3 L 260.5,334.6 L 260.4,336.2 L 260.2,336.6 L 260.2,337.0 L 259.3,338.4 L 259.2,338.4 L 259.0,338.4 L 258.7,338.1 L 258.6,337.6 L 258.2,337.0 L 258.3,336.5 L 258.0,336.2 L 257.5,335.3 L 257.1,335.2 L 256.6,335.4 L 256.0,335.8 L 255.6,335.9 L 255.1,335.9 L 254.9,335.8 L 254.9,335.3 L 254.6,335.1 L 253.6,335.2 L 253.1,334.9 L 252.5,334.0 L 252.3,333.8 L 251.5,333.8 L 250.9,334.2 L 250.4,334.2 L 248.9,334.7 L 248.6,334.8 L 248.0,334.9 L 247.7,336.1 L 247.9,337.4 L 247.7,337.9 L 246.4,338.8 L 246.3,339.0 L 246.1,340.2 L 246.1,340.5 L 246.1,341.1 L 246.2,341.5 L 246.0,343.3 L 246.2,344.4 L 246.5,345.2 L 246.7,345.7 L 247.3,346.0 L 247.6,346.3 L 247.6,346.5 L 247.8,347.0 L 248.1,348.0 L 248.0,349.0 L 248.2,349.6 L 248.3,350.5 L 249.2,352.9 L 249.7,353.7 L 249.6,354.0 L 212.7,360.0 L 212.4,359.9 L 212.2,359.2 L 212.7,359.0 L 212.8,358.7 L 212.5,358.3 L 212.1,358.2 L 211.6,357.7 L 210.9,357.5 L 210.5,357.6 L 210.4,358.0 L 210.6,358.4 L 210.6,359.0 L 210.3,359.2 L 209.7,359.4 L 209.2,359.9 L 209.0,359.9 L 208.6,359.2 L 208.6,358.9 L 208.3,358.1 L 208.5,357.6 L 208.9,357.2 L 209.0,356.9 L 209.1,356.8 L 209.3,356.7 L 209.6,356.5 L 209.6,356.3 L 209.6,356.1 L 209.4,356.1 L 209.0,356.2 L 208.9,356.0 L 208.7,355.6 L 208.8,355.4 L 208.9,355.2 L 209.3,354.7 L 209.3,354.6 L 209.2,354.4 L 208.6,354.0 L 208.0,353.5 L 207.9,353.4 L 207.9,353.1 L 207.9,352.7 L 208.2,352.7 L 208.7,352.9 L 209.1,352.8 L 209.7,352.9 L 209.9,352.7 L 210.1,352.2 L 209.9,351.4 L 209.5,350.8 L 209.2,350.5 L 209.1,350.2 L 208.5,350.1 L 208.4,350.2 L 208.5,350.4 L 208.6,350.6 L 208.2,350.6 L 207.9,350.3 L 208.1,349.7 L 209.9,350.0 L 210.0,349.8 L 211.2,349.8 L 211.5,349.5 L 211.7,349.6 L 211.8,348.9 L 211.8,348.6 L 212.0,347.2 L 211.3,346.5 L 211.2,345.8 L 210.7,345.4 L 210.7,344.7 L 210.5,343.4 L 210.7,342.8 L 210.5,341.9 L 210.5,341.8 L 210.4,341.7 L 210.3,341.3 L 210.2,340.1 L 210.3,339.4 L 210.8,339.0 L 210.4,338.1 L 210.0,338.2 L 209.7,337.6 L 209.7,337.1 L 209.6,336.6 L 210.1,336.6 L 210.4,334.3 L 210.3,333.9 L 210.3,333.4 L 209.9,331.1 L 210.0,329.9 L 209.8,329.6 L 209.8,329.1 L 209.6,328.8 L 209.1,326.6 L 209.1,325.6 L 208.8,324.0 L 209.2,322.7 L 209.0,321.7 L 208.7,321.1 L 208.7,320.7 L 208.3,320.0 L 207.9,319.9 L 207.4,319.3 L 207.4,318.8 L 206.8,318.3 L 207.0,318.0 L 207.2,317.8 L 207.0,317.5 L 207.3,317.1 L 207.3,316.1 L 207.2,315.6 L 206.9,315.4 L 206.8,314.9 L 206.9,314.5 L 207.3,314.2 L 207.3,313.0 L 207.1,312.5 L 207.2,311.8 L 207.0,311.4 L 206.9,310.4 L 207.0,310.0 L 207.8,310.1 L 208.2,309.9 L 209.3,309.8 L 209.4,309.7 L 209.1,309.4 L 209.1,309.0 L 208.5,308.9 L 208.3,308.4 L 209.0,308.1 L 209.1,307.3 L 209.0,306.8 L 208.7,305.9 L 208.3,305.6 L 208.3,305.3 L 208.0,305.0 L 206.9,305.0 L 206.1,305.1 L 205.7,305.1 L 205.3,304.7 L 205.0,304.6 L 205.1,303.7 L 204.8,303.1 L 205.0,302.5 L 206.1,302.8 L 206.6,302.9 L 207.1,303.2 L 207.9,303.3 L 208.4,302.6 L 208.4,301.6 L 208.2,300.3 L 207.7,298.8 L 207.3,298.6 L 206.6,297.7 L 206.3,296.4 L 206.2,296.1 L 206.0,295.2 L 206.1,295.0 L 206.9,295.0 L 207.3,294.8 L 207.5,293.8 L 207.0,293.0 L 206.6,292.7 L 206.1,293.5 L 205.6,293.7 L 205.0,293.6 L 204.8,293.7 L 204.6,293.2 L 204.6,292.6 L 204.5,292.3 L 204.4,291.2 L 204.6,289.4 L 204.3,288.2 L 204.2,287.0 L 203.6,285.7 L 203.5,285.3 L 203.8,285.1 L 203.8,284.1 L 204.6,283.6 L 205.0,283.2 L 205.1,282.2 L 204.9,281.9 L 205.1,280.9 L 205.4,280.4 L 205.8,279.7 L 205.7,279.1 L 205.8,278.6 L 206.2,278.1 L 206.4,278.1 L 206.5,278.2 L 206.5,278.5 L 206.9,279.7 L 208.0,279.7 L 209.2,279.3 L 209.7,278.9 L 209.8,278.7 L 210.1,278.5 L 210.1,278.2 L 210.8,277.9 L 211.1,277.2 L 211.3,275.8 L 211.1,275.5 L 211.2,275.0 L 211.9,274.2 L 212.2,272.7 L 212.0,272.3 L 212.1,271.4 L 212.0,271.1 L 212.1,270.8 L 213.0,270.2 L 213.6,268.7 L 213.6,268.0 L 213.4,267.5 L 212.8,266.5 L 212.7,266.3 L 212.3,265.6 L 212.2,265.5 L 211.9,265.6 L 211.6,265.6 L 210.0,265.6 L 209.1,266.1 L 208.9,267.1 L 209.1,267.8 L 209.0,268.8 L 208.7,269.2 L 208.5,269.8 L 207.7,270.2 L 207.3,270.3 L 207.1,269.2 L 207.5,267.8 L 207.9,267.4 L 208.2,266.7 L 208.5,266.2 L 208.6,265.3 L 208.8,264.4 L 209.4,260.3 L 209.9,259.6 L 211.1,259.9 L 211.6,259.2 L 211.5,257.8 L 211.4,257.5 L 211.7,257.3 L 212.5,257.4 L 212.7,257.0 L 212.7,256.6 L 212.8,256.4 L 213.0,256.2 L 213.1,255.4 L 213.3,255.2 L 213.1,254.9 L 213.1,254.8 L 212.9,254.5 L 212.3,254.6 L 211.3,254.6 L 211.2,254.3 L 211.2,253.7 L 211.0,252.5 L 211.1,251.4 L 211.3,251.2 L 211.5,251.1 L 211.8,251.1 L 212.3,251.7 L 212.5,251.8 L 212.9,252.4 L 212.8,253.0 L 212.5,253.3 L 212.3,254.2 L 214.2,254.4 L 214.4,254.3 L 214.6,253.8 L 214.6,253.0 L 214.5,252.6 L 214.1,250.0 L 213.6,248.0 L 213.1,246.5 L 212.9,246.3 L 212.5,246.1 L 212.0,245.2 L 212.0,244.8 L 212.0,244.0 L 212.0,243.2 L 212.0,242.1 L 212.4,239.9 L 212.1,239.1 L 211.8,238.6 L 211.3,238.4 L 210.2,236.6 L 210.5,235.9 L 210.8,235.9 L 210.6,235.2 L 210.0,235.2 L 209.8,234.7 L 209.7,234.1 L 209.2,233.2 L 208.9,232.4 L 209.1,231.8 L 210.2,231.6 L 210.5,231.9 L 210.5,232.6 L 210.0,233.6 L 210.2,234.0 L 210.2,234.5 L 210.5,234.6 L 210.9,235.0 L 211.9,235.6 L 212.3,236.0 L 212.6,235.9 L 212.8,234.5 L 212.7,233.8 L 212.5,233.2 L 211.5,232.7 L 212.0,232.3 L 212.3,232.3 L 212.4,231.5 L 212.3,231.2 L 212.9,231.2 L 213.2,230.2 L 213.6,230.1 L 213.7,229.8 L 214.1,229.5 L 214.3,229.0 L 214.1,227.4 L 213.9,227.0 L 213.9,226.7 L 213.4,226.2 L 212.9,226.4 L 212.6,226.0 L 212.8,225.6 L 213.5,225.6 L 213.7,224.7 L 213.9,224.6 L 214.3,224.9 L 215.1,225.0 L 215.4,224.5 L 215.8,220.6 L 215.7,220.2 L 216.0,219.8 L 216.4,217.6 L 216.7,217.2 L 216.7,216.8 L 216.4,216.5 L 216.5,216.1 L 216.6,215.6 L 217.0,215.3 L 216.9,214.6 L 216.7,214.4 L 216.7,214.0 L 216.6,213.4 L 216.6,213.0 L 216.3,212.5 L 216.5,212.1 L 216.9,211.5 L 216.9,210.9 L 216.5,210.6 L 216.4,210.4 L 215.6,210.4 L 214.8,209.6 L 214.7,209.2 L 214.8,209.0 L 215.2,208.9 L 215.6,208.6 L 215.8,208.3 L 216.2,208.3 L 216.6,208.7 L 217.2,209.0 L 217.8,209.0 L 218.1,208.6 L 218.4,207.6 L 218.6,207.4 L 218.6,206.9 L 218.4,206.6 L 218.6,205.6 L 218.2,203.4 L 218.6,201.7 L 218.6,200.3 L 218.8,199.5 L 219.5,198.6 L 219.7,197.0 L 219.6,196.4 L 220.0,194.0 L 219.9,193.7 L 219.9,192.9 L 219.4,192.7 L 219.2,192.3 L 219.5,191.7 L 219.8,189.8" fill="none" stroke="black" stroke-width="2"/>
</svg>