<?xml version="1.0" encoding="UTF-8"?>
<svg width="400" height="400" viewBox="0 0 400 400" xmlns="http://www.w3.org/2000/svg">
  <rect width="400" height="400" fill="white"/>
  <path d="M 209.8,216.5 L 209.6,216.2 L 209.7,215.8 L 210.8,216.4 L 211.1,216.2 L 210.9,215.3 L 211.6,215.0 L 211.5,213.8 L 210.2,213.8 L 210.0,214.2 L 210.2,214.6 L 209.6,214.7 L 209.1,215.7 L 208.4,215.6 L 207.6,216.1 L 206.4,216.5 L 205.2,217.6 L 203.8,217.8 L 203.9,218.5 L 201.1,220.5 L 200.4,220.6 L 199.9,220.2 L 200.4,219.2 L 200.9,218.6 L 200.8,217.8 L 201.6,217.3 L 202.2,217.1 L 202.9,216.0 L 202.9,215.4 L 201.7,214.6 L 201.6,214.2 L 202.3,213.5 L 203.2,213.1 L 204.9,212.5 L 208.3,212.0 L 210.1,211.6 L 210.8,212.0 L 211.1,212.0 L 211.1,211.5 L 210.4,211.0 L 210.5,209.2 L 210.0,208.9 L 209.4,208.4 L 209.4,207.7 L 208.8,207.2 L 208.9,206.2 L 208.7,205.9 L 208.7,205.3 L 207.9,204.3 L 207.6,203.3 L 207.3,203.0 L 207.7,200.3 L 207.9,199.8 L 207.9,199.1 L 208.1,198.8 L 207.8,198.4 L 207.2,198.2 L 206.4,196.2 L 205.1,195.3 L 205.1,194.6 L 204.5,194.2 L 203.8,194.1 L 203.2,193.1 L 200.9,190.7 L 199.5,189.4 L 197.8,189.2 L 197.5,189.4 L 197.9,190.3 L 198.0,190.6 L 197.6,190.6 L 195.3,188.6 L 194.8,188.7 L 194.4,189.2 L 193.5,189.0 L 192.3,188.2 L 191.8,188.1 L 191.0,186.5 L 191.0,186.2 L 190.3,185.6 L 189.5,185.1 L 188.4,183.7 L 188.4,183.3 L 188.2,182.9 L 187.2,183.7 L 186.8,184.5 L 186.5,184.6 L 185.1,183.0 L 184.3,181.3 L 184.1,181.1 L 183.9,180.7 L 183.8,180.8 L 184.0,181.3 L 183.7,181.5 L 183.4,182.4 L 181.9,184.2 L 181.4,184.4 L 181.0,184.3 L 179.9,184.6 L 177.6,186.3 L 177.6,186.7 L 178.3,188.0 L 178.2,188.5 L 176.7,187.8 L 176.1,187.7 L 175.9,188.2 L 174.3,187.8 L 174.5,187.3 L 176.1,186.2 L 176.3,185.4 L 175.6,184.3 L 177.2,184.5 L 177.4,184.2 L 177.4,183.6 L 177.2,183.4 L 177.5,181.9 L 177.4,180.9 L 178.1,179.8 L 178.4,180.0 L 179.1,181.2 L 178.3,182.0 L 178.1,183.4 L 177.7,184.2 L 177.9,184.9 L 178.2,185.0 L 178.9,184.0 L 179.6,182.8 L 179.4,181.8 L 180.1,181.5 L 180.5,181.1 L 180.7,180.3 L 179.2,178.0 L 178.4,177.1 L 178.0,176.1 L 178.1,175.6 L 178.8,175.9 L 179.0,175.7 L 178.9,174.6 L 179.4,174.5 L 179.6,173.7 L 179.1,172.8 L 176.6,171.2 L 176.5,171.4 L 176.8,171.9 L 176.9,172.5 L 176.7,172.5 L 176.0,171.8 L 175.2,172.1 L 174.6,171.7 L 174.1,171.6 L 173.8,171.9 L 173.4,173.1 L 173.0,173.2 L 173.2,172.0 L 174.1,169.9 L 174.4,168.9 L 173.4,167.7 L 172.9,166.7 L 172.5,164.9 L 170.8,162.6 L 166.8,158.9 L 164.8,157.3 L 162.3,153.9 L 160.8,152.1 L 160.7,152.0 L 158.6,150.0 L 158.2,149.3 L 158.5,149.0 L 159.7,149.5 L 160.4,149.7 L 160.9,150.5 L 162.0,152.3 L 162.8,152.8 L 163.4,152.9 L 164.1,154.2 L 164.9,154.8 L 166.2,155.0 L 166.5,154.7 L 166.5,154.1 L 165.7,152.9 L 164.5,151.5 L 163.5,151.3 L 162.1,149.3 L 161.1,148.5 L 160.9,148.3 L 160.1,148.0 L 159.7,147.0 L 158.9,146.3 L 158.0,146.0 L 157.7,145.8 L 157.9,143.9 L 157.2,142.9 L 157.2,142.5 L 157.6,142.0 L 158.7,142.4 L 159.1,143.0 L 159.4,143.7 L 160.2,144.6 L 161.3,146.0 L 162.6,147.5 L 164.5,150.7 L 165.2,151.4 L 168.9,154.3 L 170.7,155.9 L 172.0,156.9 L 173.5,157.6 L 174.3,157.7 L 175.2,157.0 L 175.5,156.4 L 174.9,155.2 L 174.2,154.4 L 174.0,153.6 L 173.5,152.8 L 172.8,152.1 L 170.9,150.0 L 171.0,149.6 L 171.7,150.0 L 172.3,150.4 L 173.2,150.6 L 173.9,151.1 L 174.3,152.3 L 175.1,153.1 L 176.0,153.3 L 176.6,152.3 L 177.1,152.5 L 177.6,153.3 L 177.4,155.4 L 178.0,156.5 L 178.6,157.2 L 181.2,159.1 L 181.8,159.2 L 182.4,159.1 L 182.7,158.7 L 183.1,156.1 L 183.1,155.4 L 183.3,154.8 L 183.5,153.8 L 183.3,152.7 L 183.3,151.8 L 183.0,151.4 L 182.7,151.2 L 182.8,150.0 L 183.7,150.1 L 184.1,149.9 L 184.1,149.1 L 183.1,147.1 L 181.6,145.8 L 180.9,145.7 L 180.2,145.8 L 179.7,146.9 L 178.6,146.7 L 178.1,146.2 L 178.1,145.8 L 178.3,145.2 L 178.6,143.3 L 178.4,143.0 L 176.5,140.7 L 176.4,140.5 L 175.1,139.3 L 173.6,138.2 L 172.9,137.4 L 172.8,137.2 L 172.7,137.1 L 172.1,136.3 L 172.1,135.9 L 172.6,136.1 L 173.7,137.7 L 175.3,139.1 L 175.6,139.2 L 175.9,139.4 L 176.4,139.8 L 177.5,140.6 L 179.1,141.4 L 179.2,141.0 L 176.9,138.2 L 175.6,137.0 L 174.7,136.6 L 174.5,136.2 L 173.8,133.9 L 171.8,131.4 L 170.0,129.7 L 168.9,129.3 L 168.3,128.5 L 167.2,126.2 L 164.7,123.2 L 163.7,122.2 L 163.5,122.1 L 161.7,120.9 L 161.4,121.1 L 162.4,123.0 L 162.3,123.6 L 162.1,123.6 L 161.1,122.5 L 159.9,119.3 L 159.3,118.2 L 158.3,117.6 L 156.3,115.6 L 154.5,114.6 L 153.4,113.6 L 151.7,112.3 L 150.8,111.0 L 149.7,110.2 L 148.1,108.5 L 147.4,108.1 L 143.7,103.8 L 142.3,102.9 L 142.2,102.8 L 142.2,102.8 L 141.3,101.7 L 140.4,101.2 L 138.5,99.3 L 137.4,99.1 L 136.5,99.3 L 135.7,99.0 L 133.7,96.9 L 133.1,96.8 L 132.8,97.1 L 131.9,96.8 L 131.6,97.0 L 131.3,96.9 L 131.1,96.2 L 130.1,95.2 L 129.6,95.0 L 130.0,95.9 L 129.9,96.2 L 129.2,96.3 L 129.7,97.4 L 131.4,99.2 L 131.8,99.5 L 132.1,99.9 L 131.8,99.9 L 131.6,99.6 L 130.7,98.5 L 129.3,97.4 L 128.9,97.3 L 128.9,97.7 L 129.0,98.1 L 128.7,98.5 L 128.9,99.6 L 129.3,99.9 L 128.8,99.8 L 128.7,99.4 L 127.6,99.2 L 127.4,99.5 L 127.1,99.6 L 126.6,99.4 L 126.4,99.9 L 125.5,99.6 L 125.7,100.3 L 126.8,102.2 L 128.7,104.1 L 130.3,105.3 L 131.5,105.4 L 132.7,104.6 L 133.5,104.4 L 133.9,104.6 L 133.8,105.5 L 132.6,106.9 L 132.4,108.1 L 132.3,108.4 L 131.8,108.3 L 131.5,108.3 L 131.0,108.5 L 130.6,108.6 L 130.2,107.7 L 129.7,106.9 L 129.1,106.8 L 128.8,106.6 L 128.8,106.0 L 128.4,105.7 L 128.3,105.0 L 128.1,104.6 L 126.5,103.5 L 125.6,102.8 L 124.7,102.4 L 124.6,103.5 L 123.8,103.3 L 122.8,102.7 L 122.2,102.7 L 122.0,103.2 L 121.8,104.6 L 122.3,105.6 L 123.7,107.2 L 126.8,111.5 L 128.6,113.6 L 131.2,117.0 L 133.0,118.8 L 134.6,120.5 L 136.8,122.7 L 137.4,123.5 L 137.2,123.7 L 136.3,123.2 L 133.0,120.6 L 132.4,119.9 L 130.9,119.1 L 129.4,117.8 L 128.9,117.9 L 129.0,118.4 L 129.3,119.0 L 128.7,118.9 L 127.1,118.0 L 126.9,118.1 L 127.4,121.6 L 129.1,124.4 L 128.9,124.5 L 128.6,124.6 L 128.7,124.9 L 132.2,129.8 L 132.2,130.6 L 133.0,130.8 L 133.8,131.6 L 134.9,132.4 L 135.9,133.5 L 138.1,136.4 L 139.4,137.8 L 140.0,139.5 L 140.2,139.8 L 139.7,140.1 L 139.7,141.1 L 140.8,141.2 L 140.8,140.5 L 142.3,140.9 L 142.5,141.3 L 142.3,141.9 L 143.6,142.3 L 143.9,142.7 L 143.8,143.0 L 143.3,142.8 L 142.9,142.6 L 142.7,142.6 L 142.4,143.2 L 142.0,143.2 L 141.1,145.5 L 142.7,148.7 L 144.8,151.6 L 145.5,153.6 L 145.2,153.8 L 143.8,153.0 L 143.4,153.1 L 143.2,153.4 L 143.0,155.2 L 143.8,156.3 L 143.4,156.7 L 143.2,157.8 L 143.5,158.9 L 144.6,161.3 L 144.6,162.2 L 145.0,163.8 L 145.8,164.7 L 146.7,165.6 L 147.1,167.3 L 147.4,167.8 L 147.2,168.2 L 146.6,168.8 L 146.8,169.5 L 149.3,172.8 L 150.3,173.5 L 151.7,173.8 L 151.9,174.6 L 151.9,175.4 L 152.0,176.3 L 152.3,177.2 L 153.2,178.8 L 155.4,180.8 L 156.6,182.4 L 157.9,183.8 L 159.7,185.7 L 161.8,187.9 L 164.8,192.1 L 167.4,194.1 L 168.2,194.2 L 169.0,193.4 L 169.9,192.0 L 171.6,190.5 L 172.8,189.6 L 173.2,189.8 L 173.4,190.4 L 173.3,191.3 L 172.5,191.8 L 172.2,193.4 L 171.4,194.7 L 171.4,195.6 L 171.7,196.0 L 172.3,196.2 L 172.8,197.6 L 173.1,198.9 L 172.9,199.9 L 173.8,200.9 L 174.6,201.5 L 176.2,203.7 L 176.3,204.3 L 177.2,205.8 L 177.6,206.9 L 177.6,207.3 L 177.7,207.9 L 178.2,208.3 L 178.5,209.1 L 178.9,209.4 L 179.5,209.3 L 179.8,209.5 L 180.9,209.7 L 181.2,210.2 L 181.4,211.8 L 181.9,213.3 L 182.6,214.5 L 183.5,216.1 L 184.6,217.3 L 185.3,217.8 L 184.5,218.4 L 182.8,217.5 L 182.2,216.8 L 181.5,216.0 L 181.1,215.7 L 180.6,214.3 L 180.2,213.8 L 180.1,213.2 L 179.7,212.2 L 177.7,210.0 L 177.8,209.4 L 177.3,208.8 L 175.3,207.6 L 174.5,207.3 L 173.8,206.5 L 172.6,204.6 L 173.2,204.4 L 173.3,203.9 L 172.4,202.9 L 171.8,203.0 L 171.2,202.4 L 170.1,200.4 L 166.5,195.6 L 165.9,194.1 L 164.9,192.6 L 163.9,192.6 L 163.2,191.5 L 160.3,189.1 L 160.0,189.4 L 159.6,189.4 L 157.2,186.1 L 156.3,185.6 L 155.6,183.1 L 154.8,181.9 L 153.8,181.3 L 153.2,180.5 L 149.7,177.6 L 148.5,177.2 L 147.8,177.0 L 147.5,176.7 L 147.0,176.6 L 147.5,176.9 L 147.5,177.2 L 147.9,177.2 L 148.2,177.3 L 148.3,177.8 L 147.9,178.1 L 146.5,177.5 L 145.7,176.8 L 144.9,176.7 L 143.8,175.7 L 143.2,175.5 L 142.8,175.9 L 142.6,177.9 L 143.2,179.0 L 143.5,179.6 L 143.3,179.9 L 142.8,180.0 L 142.6,180.9 L 143.3,182.5 L 145.0,185.1 L 144.8,185.8 L 144.3,186.3 L 144.1,187.5 L 144.4,189.2 L 145.0,190.3 L 146.1,191.5 L 146.2,192.4 L 147.5,194.3 L 148.7,195.2 L 149.4,195.4 L 150.0,195.6 L 150.6,194.8 L 150.8,194.3 L 151.4,194.1 L 152.6,194.4 L 152.7,194.8 L 152.7,196.7 L 153.0,198.0 L 153.2,199.3 L 153.0,200.5 L 152.7,201.1 L 153.6,203.3 L 153.3,205.3 L 154.2,207.7 L 155.1,209.1 L 156.2,210.8 L 156.6,211.9 L 158.0,213.0 L 158.1,213.5 L 158.1,214.7 L 160.9,218.9 L 161.9,219.3 L 162.4,220.5 L 163.6,222.2 L 164.9,223.1 L 166.1,223.8 L 166.7,224.5 L 167.7,224.8 L 168.2,225.3 L 169.6,225.8 L 170.6,227.2 L 172.0,229.6 L 172.2,229.8 L 172.9,230.2 L 173.3,231.2 L 173.6,232.8 L 173.6,232.8 L 173.9,234.3 L 174.0,235.2 L 173.7,237.2 L 173.9,237.9 L 175.0,239.5 L 175.3,240.1 L 176.1,241.2 L 176.8,242.3 L 177.4,244.7 L 177.0,244.5 L 176.0,243.8 L 175.0,243.3 L 172.6,241.2 L 172.4,240.9 L 170.5,239.4 L 168.7,238.8 L 167.7,237.3 L 166.7,236.7 L 165.5,235.5 L 164.9,235.3 L 164.8,236.0 L 166.7,239.1 L 168.7,244.6 L 169.5,245.7 L 170.0,245.8 L 170.5,247.9 L 170.6,248.6 L 171.0,250.1 L 171.0,250.1 L 171.7,251.2 L 174.7,256.6 L 175.4,257.5 L 175.9,258.7 L 176.5,259.2 L 177.0,260.3 L 178.9,263.0 L 179.7,263.5 L 183.8,269.8 L 185.0,271.9 L 189.6,276.9 L 190.4,276.9 L 190.8,277.3 L 190.8,278.6 L 191.4,279.4 L 192.1,281.1 L 193.5,282.6 L 194.6,284.6 L 195.1,285.7 L 196.4,287.3 L 196.4,287.8 L 197.1,289.0 L 197.1,289.8 L 196.8,290.9 L 196.9,291.8 L 196.5,292.7 L 195.9,293.6 L 195.7,294.6 L 196.8,296.8 L 196.8,297.9 L 197.6,300.2 L 198.3,301.3 L 198.7,302.2 L 200.0,303.4 L 200.3,304.0 L 200.1,304.4 L 200.0,305.0 L 201.1,307.2 L 201.4,307.7 L 202.5,308.8 L 203.0,309.7 L 203.9,310.5 L 204.9,311.7 L 206.2,314.0 L 205.9,314.7 L 206.3,315.9 L 206.1,317.4 L 205.9,317.9 L 206.2,318.5 L 206.8,319.0 L 207.0,320.5 L 206.7,321.2 L 206.8,321.6 L 206.7,323.1 L 207.0,325.5 L 206.8,328.1 L 206.9,329.2 L 206.6,331.8 L 206.7,332.9 L 205.7,339.1 L 205.4,340.0 L 205.2,341.4 L 205.7,342.9 L 205.1,344.8 L 204.5,345.4 L 204.4,346.1 L 206.0,348.1 L 206.1,349.6 L 206.7,350.7 L 206.6,353.1 L 206.7,353.7 L 207.0,354.2 L 207.5,355.6 L 207.4,356.9 L 206.7,359.0 L 205.9,360.0 L 205.8,359.9 L 205.7,359.9 L 205.3,359.4 L 204.6,356.7 L 204.0,354.9 L 203.4,353.8 L 203.1,352.1 L 203.0,349.9 L 199.3,340.3 L 198.6,338.0 L 198.6,336.6 L 198.4,334.4 L 197.8,333.3 L 197.4,332.8 L 196.5,330.0 L 197.0,326.8 L 197.9,326.2 L 198.2,325.9 L 197.8,325.4 L 197.0,324.0 L 197.3,321.2 L 196.3,320.4 L 195.4,319.3 L 194.6,315.3 L 195.0,314.2 L 195.5,313.9 L 196.0,314.5 L 197.0,314.9 L 198.1,314.9 L 198.5,314.7 L 198.4,313.1 L 198.7,313.0 L 199.4,313.6 L 200.2,315.0 L 200.9,314.9 L 201.3,314.5 L 201.0,312.9 L 201.1,311.4 L 200.9,310.9 L 198.6,309.8 L 198.4,309.3 L 198.5,308.8 L 197.9,308.1 L 197.8,307.6 L 197.2,306.7 L 196.5,306.0 L 196.9,305.8 L 197.4,305.8 L 197.4,305.0 L 196.9,303.8 L 195.8,302.8 L 193.9,300.5 L 192.6,299.1 L 191.3,298.9 L 191.4,298.4 L 191.6,298.0 L 191.1,297.2 L 190.3,296.7 L 188.4,294.6 L 188.7,294.4 L 189.5,294.3 L 189.4,293.9 L 189.6,293.7 L 187.2,291.3 L 186.1,289.2 L 186.2,288.7 L 186.6,288.3 L 186.6,287.9 L 185.8,286.9 L 181.7,282.1 L 181.9,281.7 L 182.7,281.7 L 182.8,281.1 L 182.5,280.2 L 181.5,279.4 L 181.2,278.8 L 180.3,278.3 L 179.2,277.2 L 178.5,277.1 L 178.0,277.3 L 177.6,277.7 L 177.5,278.0 L 177.9,278.1 L 178.6,279.7 L 179.5,280.3 L 179.4,281.0 L 180.6,283.0 L 181.2,283.8 L 182.5,285.1 L 183.3,285.5 L 183.8,286.0 L 183.8,286.3 L 183.1,286.3 L 181.5,285.2 L 177.8,281.6 L 176.5,280.1 L 176.4,279.2 L 175.6,278.1 L 175.8,277.7 L 177.0,277.7 L 177.6,277.4 L 177.9,276.5 L 177.7,276.0 L 177.0,276.0 L 176.8,275.1 L 176.1,274.6 L 176.1,273.6 L 175.8,272.9 L 174.1,272.6 L 173.9,272.5 L 172.0,272.1 L 171.6,271.3 L 169.8,269.7 L 169.1,269.3 L 168.2,268.3 L 168.2,268.3 L 166.8,266.7 L 166.0,266.3 L 165.1,265.4 L 164.8,264.1 L 164.6,263.8 L 163.8,263.7 L 163.6,263.3 L 163.6,262.5 L 162.3,260.2 L 162.6,260.1 L 162.5,259.4 L 162.0,257.9 L 162.8,256.8 L 163.7,256.4 L 165.5,256.6 L 166.0,256.2 L 166.3,255.5 L 166.2,255.2 L 165.3,253.8 L 164.9,252.9 L 163.3,250.5 L 163.1,250.2 L 163.2,249.4 L 162.8,248.2 L 162.5,247.0 L 161.5,245.9 L 161.1,246.0 L 160.8,245.9 L 157.5,243.8 L 153.5,239.3 L 152.7,239.1 L 152.1,238.9 L 151.2,238.0 L 151.2,236.4 L 149.6,234.9 L 149.0,234.6 L 148.2,235.2 L 147.8,235.7 L 146.8,236.5 L 146.0,236.6 L 146.2,235.5 L 146.0,235.0 L 145.4,234.9 L 144.1,235.8 L 143.1,237.0 L 141.9,236.9 L 141.4,236.5 L 142.6,235.6 L 144.1,234.0 L 144.7,233.7 L 145.8,232.6 L 146.7,232.5 L 147.0,231.8 L 147.4,231.8 L 148.8,232.5 L 149.9,232.7 L 151.9,232.3 L 152.1,231.7 L 152.4,231.1 L 152.2,230.2 L 150.9,228.8 L 149.6,227.0 L 149.2,226.3 L 149.1,225.6 L 148.2,224.1 L 148.1,223.4 L 147.6,221.6 L 146.9,219.8 L 146.7,218.8 L 146.1,217.7 L 145.1,215.3 L 143.7,212.9 L 143.5,212.2 L 142.9,211.3 L 142.5,210.2 L 141.2,208.3 L 141.5,208.1 L 141.8,207.3 L 139.8,205.2 L 139.1,203.8 L 139.1,202.9 L 139.3,202.8 L 140.6,203.2 L 141.3,202.7 L 141.5,201.2 L 141.3,199.9 L 140.6,198.8 L 140.1,197.9 L 140.3,196.1 L 140.7,195.1 L 141.0,193.7 L 140.9,192.8 L 140.0,190.3 L 140.0,188.4 L 139.1,186.3 L 139.0,183.1 L 138.2,179.8 L 135.7,176.5 L 132.7,173.6 L 131.5,172.2 L 130.8,171.7 L 130.1,170.8 L 129.2,168.0 L 128.1,166.4 L 127.2,165.5 L 127.1,165.1 L 127.8,165.0 L 127.9,164.5 L 127.0,163.7 L 125.8,163.2 L 123.9,161.9 L 123.4,160.8 L 122.9,159.8 L 122.4,158.8 L 121.4,157.3 L 121.2,156.7 L 120.6,156.0 L 119.9,154.7 L 119.4,153.4 L 118.5,152.3 L 118.4,151.2 L 117.7,150.0 L 117.3,149.3 L 114.8,146.1 L 114.8,145.7 L 116.4,147.2 L 117.9,148.1 L 118.8,148.7 L 120.3,149.1 L 120.6,149.1 L 120.1,147.9 L 120.5,147.4 L 121.1,147.3 L 122.2,147.6 L 123.5,148.5 L 124.4,148.6 L 124.7,148.3 L 124.6,147.4 L 125.2,146.8 L 125.3,145.9 L 123.8,142.8 L 123.9,141.8 L 123.8,140.3 L 123.5,139.5 L 122.9,137.9 L 122.9,136.9 L 122.7,135.6 L 120.7,132.8 L 119.8,131.4 L 119.5,130.5 L 119.5,130.3 L 119.6,130.3 L 119.7,130.2 L 120.0,128.4 L 120.3,127.9 L 120.7,127.9 L 121.3,127.7 L 121.5,127.0 L 121.3,125.8 L 120.5,121.7 L 120.4,121.5 L 119.2,118.9 L 118.9,117.1 L 118.7,116.4 L 118.8,115.4 L 119.1,114.2 L 118.8,113.4 L 118.8,112.9 L 119.1,112.3 L 119.3,111.6 L 119.2,109.8 L 118.3,107.9 L 117.9,106.4 L 118.4,104.1 L 118.4,103.1 L 117.9,99.9 L 117.4,99.0 L 116.8,95.9 L 116.0,94.1 L 115.7,93.2 L 114.7,91.2 L 114.8,90.4 L 114.7,89.5 L 114.7,88.6 L 115.1,88.2 L 115.8,88.2 L 115.9,88.4 L 115.5,89.2 L 116.0,89.9 L 116.5,90.1 L 116.8,90.0 L 116.5,89.2 L 117.2,88.8 L 117.3,88.3 L 116.0,87.0 L 115.8,86.6 L 116.3,86.2 L 116.5,85.9 L 116.6,85.5 L 115.5,83.6 L 114.7,82.6 L 114.6,82.3 L 115.2,82.3 L 115.5,82.0 L 115.2,81.5 L 114.5,80.9 L 113.4,79.6 L 112.7,79.3 L 112.0,78.5 L 111.7,76.6 L 112.0,76.2 L 109.3,72.2 L 109.4,71.3 L 107.5,68.7 L 105.4,65.1 L 102.9,62.1 L 101.8,60.8 L 100.5,60.0 L 99.7,59.7 L 99.3,59.2 L 99.4,58.4 L 99.2,57.6 L 95.7,54.2 L 95.0,53.0 L 94.9,52.8 L 94.2,51.7 L 92.7,49.7 L 90.7,47.6 L 89.9,46.7 L 87.8,44.8 L 87.4,44.0 L 87.0,43.7 L 84.7,40.8 L 84.6,40.3 L 84.8,40.0 L 85.3,40.3 L 86.6,41.6 L 89.6,45.5 L 89.7,45.6 L 90.4,46.7 L 93.7,50.3 L 94.8,51.9 L 95.4,52.5 L 99.1,56.1 L 100.4,56.5 L 101.1,57.5 L 101.8,59.2 L 102.9,60.2 L 103.5,60.9 L 104.5,62.0 L 107.1,63.8 L 107.6,63.9 L 107.6,62.5 L 107.3,61.8 L 107.2,61.2 L 106.3,59.4 L 106.2,58.3 L 103.8,55.0 L 102.6,54.0 L 101.5,52.4 L 101.1,50.8 L 99.1,48.5 L 96.8,45.5 L 96.7,45.1 L 97.0,45.1 L 100.1,48.5 L 100.5,48.6 L 127.5,40.8 L 127.7,41.0 L 129.6,43.4 L 133.1,46.8 L 133.0,47.0 L 132.5,46.9 L 131.7,46.3 L 131.0,46.2 L 130.2,47.1 L 130.2,47.6 L 131.0,48.7 L 131.5,48.9 L 132.0,49.0 L 132.4,50.2 L 132.9,50.5 L 133.3,50.5 L 133.9,49.8 L 134.2,50.1 L 134.4,50.6 L 135.2,51.3 L 135.5,52.5 L 135.3,54.5 L 135.5,55.6 L 136.0,56.2 L 136.6,56.3 L 137.1,55.9 L 137.6,56.2 L 137.4,57.2 L 138.6,58.5 L 140.1,60.2 L 140.6,60.5 L 140.7,60.9 L 141.3,61.8 L 141.5,62.7 L 141.2,62.6 L 140.7,62.0 L 140.0,62.8 L 140.4,63.6 L 142.9,66.6 L 144.5,68.0 L 145.5,68.4 L 146.0,68.3 L 146.5,68.9 L 146.4,70.5 L 146.9,71.5 L 147.8,72.2 L 148.6,72.3 L 149.2,72.7 L 150.4,74.0 L 150.6,73.7 L 150.3,71.9 L 149.9,71.3 L 148.8,70.3 L 147.6,69.4 L 147.3,68.7 L 146.4,67.9 L 146.6,67.0 L 146.9,67.1 L 147.9,68.1 L 148.6,68.2 L 148.7,67.9 L 148.6,67.0 L 148.1,66.1 L 148.2,64.4 L 149.6,65.5 L 149.6,65.9 L 150.2,67.2 L 151.1,68.4 L 152.7,69.1 L 153.0,69.5 L 154.9,69.4 L 155.1,69.1 L 155.0,68.6 L 154.0,67.3 L 153.5,66.1 L 153.8,65.4 L 154.6,65.3 L 155.3,65.5 L 155.4,66.0 L 155.1,66.9 L 155.7,68.0 L 156.9,69.5 L 157.6,69.5 L 158.2,69.6 L 159.7,72.4 L 160.0,73.2 L 161.1,74.5 L 161.0,75.2 L 159.9,75.6 L 159.9,76.6 L 160.3,77.7 L 161.5,79.7 L 162.5,82.6 L 163.4,84.0 L 165.0,86.0 L 165.5,86.3 L 166.4,88.0 L 166.6,88.3 L 168.4,90.1 L 169.2,91.0 L 169.3,91.6 L 169.9,92.3 L 171.9,93.7 L 172.6,94.0 L 173.4,94.8 L 174.7,95.7 L 175.8,97.1 L 176.5,97.5 L 177.0,97.5 L 177.2,96.9 L 177.5,97.1 L 178.3,99.3 L 179.8,101.6 L 180.7,102.6 L 181.1,103.6 L 181.6,104.3 L 182.3,106.6 L 182.6,106.9 L 183.1,107.1 L 182.6,108.1 L 182.5,108.5 L 183.5,109.5 L 184.5,110.2 L 184.7,110.8 L 184.7,111.7 L 185.4,112.9 L 186.1,113.6 L 186.5,114.0 L 188.0,115.4 L 191.1,117.9 L 191.6,118.5 L 192.6,119.0 L 194.2,120.5 L 195.3,121.1 L 196.3,122.2 L 197.1,122.3 L 197.1,122.1 L 196.6,121.2 L 196.1,118.9 L 195.5,117.7 L 191.9,112.9 L 191.5,111.7 L 190.9,110.1 L 190.6,108.7 L 189.5,107.5 L 189.6,107.3 L 191.0,106.3 L 191.4,106.0 L 191.7,106.2 L 191.7,106.8 L 191.6,108.0 L 192.5,108.9 L 192.5,108.9 L 193.4,109.1 L 194.0,109.4 L 193.5,111.1 L 193.5,112.1 L 193.8,112.8 L 194.4,113.4 L 194.7,114.6 L 197.0,118.4 L 197.7,119.0 L 198.7,120.6 L 199.7,122.4 L 199.8,123.0 L 200.4,123.8 L 200.9,124.8 L 201.7,125.9 L 202.7,126.8 L 204.0,128.1 L 204.9,128.3 L 205.6,129.8 L 207.2,131.8 L 207.5,132.0 L 207.9,132.6 L 208.7,133.2 L 209.4,134.2 L 210.1,136.2 L 211.1,137.3 L 212.2,138.2 L 214.7,139.0 L 216.0,141.0 L 217.1,141.8 L 217.5,142.7 L 220.4,146.6 L 220.9,146.8 L 221.1,147.0 L 221.4,147.2 L 223.0,147.4 L 223.3,147.2 L 225.3,145.2 L 225.6,145.2 L 225.7,145.6 L 225.4,146.4 L 225.2,147.3 L 225.2,147.6 L 226.1,149.9 L 227.2,151.3 L 229.7,153.4 L 230.4,153.4 L 231.6,152.5 L 232.1,151.9 L 232.9,150.3 L 233.4,150.2 L 233.9,150.6 L 233.8,150.9 L 233.1,152.2 L 232.8,153.5 L 233.1,156.8 L 233.7,158.4 L 235.7,160.6 L 236.2,161.3 L 238.3,163.9 L 238.8,164.2 L 239.4,164.5 L 241.0,166.2 L 241.8,168.0 L 244.1,169.7 L 244.9,171.0 L 245.0,171.5 L 245.6,172.5 L 248.6,175.4 L 249.7,176.7 L 250.4,178.2 L 252.3,180.3 L 253.2,180.7 L 253.8,181.1 L 254.8,181.7 L 256.9,182.3 L 258.3,181.7 L 258.5,181.3 L 259.1,181.1 L 260.6,181.0 L 263.0,181.4 L 263.5,182.1 L 264.7,182.8 L 265.3,182.6 L 265.3,182.6 L 265.6,182.9 L 265.5,183.2 L 265.3,183.2 L 264.5,183.2 L 264.3,182.9 L 263.7,182.5 L 260.9,181.9 L 259.4,183.0 L 259.1,183.7 L 259.3,184.1 L 260.6,184.9 L 263.5,185.7 L 263.8,186.4 L 264.9,187.2 L 264.9,187.2 L 266.9,188.2 L 268.9,188.9 L 269.7,189.5 L 271.0,189.8 L 271.8,190.7 L 273.1,191.1 L 275.7,192.7 L 276.6,193.1 L 277.6,193.5 L 278.4,193.5 L 280.5,193.6 L 281.0,194.1 L 280.7,196.5 L 281.2,197.0 L 283.3,197.3 L 283.9,197.6 L 284.7,197.6 L 285.8,196.4 L 286.4,196.3 L 288.6,197.5 L 289.0,198.0 L 288.2,197.9 L 287.7,198.2 L 288.1,198.8 L 288.7,199.2 L 289.0,199.9 L 289.1,201.8 L 290.5,203.0 L 290.2,203.2 L 288.7,203.0 L 288.1,202.1 L 287.3,201.7 L 287.1,202.0 L 287.7,203.4 L 287.7,206.0 L 288.1,206.1 L 288.5,206.6 L 290.2,207.9 L 290.4,208.5 L 291.3,209.2 L 293.2,211.2 L 294.5,211.8 L 295.3,213.0 L 296.7,214.7 L 301.8,218.4 L 302.1,218.6 L 304.7,220.7 L 304.8,221.3 L 304.9,221.5 L 305.8,221.7 L 307.1,223.7 L 308.7,225.6 L 310.5,226.9 L 310.9,227.6 L 311.6,228.9 L 312.9,230.1 L 313.5,231.7 L 314.9,233.2 L 315.4,233.7 L 314.8,235.5 L 314.5,235.4 L 312.5,233.7 L 311.3,233.3 L 308.1,231.2 L 303.7,227.6 L 303.1,227.5 L 302.4,227.8 L 302.4,228.4 L 302.9,228.9 L 302.9,229.5 L 303.5,230.6 L 305.6,233.4 L 303.9,233.1 L 302.9,231.7 L 301.3,230.1 L 301.5,229.6 L 301.6,229.2 L 300.9,227.8 L 299.4,226.5 L 297.3,225.3 L 294.9,223.3 L 294.4,223.2 L 294.0,223.6 L 294.1,224.3 L 294.0,225.0 L 293.8,225.1 L 292.0,222.5 L 291.9,221.3 L 291.5,220.5 L 289.9,219.7 L 288.4,218.4 L 287.6,217.5 L 285.3,217.0 L 283.3,216.0 L 282.8,215.6 L 281.5,214.4 L 280.7,214.2 L 278.3,212.1 L 274.8,208.2 L 274.1,207.8 L 273.7,207.6 L 272.6,207.7 L 272.5,206.5 L 271.8,205.8 L 269.8,205.5 L 268.4,204.9 L 266.5,203.0 L 266.2,202.5 L 265.5,202.0 L 264.8,201.7 L 263.6,201.5 L 263.6,201.5 L 261.0,200.0 L 260.1,199.7 L 258.7,198.2 L 257.8,197.6 L 257.4,197.6 L 257.0,198.0 L 256.4,198.3 L 255.5,198.2 L 254.9,198.3 L 253.7,197.6 L 252.8,196.7 L 252.7,196.0 L 252.4,195.6 L 251.6,195.4 L 250.9,196.2 L 250.4,196.2 L 249.7,195.2 L 248.9,194.5 L 247.1,193.2 L 246.3,192.9 L 244.5,193.1 L 243.3,193.0 L 241.9,192.2 L 241.1,192.6 L 240.2,192.6 L 240.1,193.4 L 242.4,195.7 L 242.8,196.4 L 242.5,196.5 L 241.5,195.9 L 240.8,195.7 L 240.4,195.9 L 240.5,196.7 L 241.6,199.3 L 242.0,199.8 L 245.8,202.7 L 245.8,203.4 L 246.0,203.8 L 247.2,204.8 L 247.8,205.5 L 249.4,207.0 L 251.0,208.2 L 252.7,209.2 L 253.1,209.7 L 252.9,209.8 L 251.7,209.7 L 250.0,208.9 L 246.4,206.6 L 244.4,205.2 L 243.7,204.8 L 243.2,204.9 L 243.5,205.7 L 243.0,205.7 L 241.1,205.1 L 239.2,203.9 L 236.2,201.2 L 234.0,199.8 L 233.6,199.6 L 232.1,198.7 L 230.1,198.0 L 229.7,198.0 L 228.9,197.1 L 228.1,197.0 L 227.7,197.3 L 227.5,198.5 L 228.0,199.0 L 228.4,199.6 L 228.0,199.4 L 227.8,199.5 L 227.1,199.2 L 225.6,199.2 L 224.6,198.5 L 224.0,198.4 L 223.7,200.3 L 223.1,200.6 L 222.5,201.0 L 222.4,201.5 L 223.3,202.8 L 223.4,203.7 L 223.7,204.1 L 225.4,205.0 L 227.4,206.6 L 227.9,207.3 L 228.0,207.8 L 228.5,208.3 L 229.1,208.6 L 230.4,209.5 L 232.3,211.2 L 236.0,213.4 L 237.9,215.0 L 240.8,216.6 L 241.4,217.3 L 243.9,219.1 L 243.8,220.0 L 244.8,220.7 L 249.5,223.8 L 250.9,225.0 L 251.3,225.5 L 252.2,226.2 L 253.8,227.1 L 254.9,228.0 L 256.1,228.9 L 256.7,229.7 L 256.7,230.1 L 256.3,230.1 L 254.4,229.0 L 252.7,227.7 L 251.8,226.9 L 250.2,225.3 L 249.1,224.7 L 248.8,224.9 L 248.6,225.7 L 248.3,226.1 L 247.3,224.8 L 247.6,224.5 L 248.0,224.2 L 246.3,222.7 L 242.9,220.7 L 238.5,216.6 L 238.2,216.6 L 238.2,216.9 L 237.5,216.9 L 237.2,217.0 L 237.5,218.0 L 239.3,220.7 L 241.0,222.9 L 245.1,225.8 L 245.8,225.9 L 246.9,226.5 L 247.5,227.0 L 247.9,227.9 L 247.6,228.5 L 247.1,228.9 L 246.3,228.4 L 245.5,228.4 L 244.3,227.9 L 243.7,228.0 L 243.4,228.7 L 243.9,229.3 L 246.2,231.1 L 247.4,231.4 L 248.1,232.3 L 248.9,233.1 L 249.8,234.3 L 250.5,234.7 L 251.0,235.5 L 251.0,235.9 L 250.5,235.9 L 249.5,235.6 L 248.9,236.0 L 248.6,236.7 L 248.0,236.7 L 246.3,234.4 L 244.4,232.9 L 243.1,232.2 L 242.4,231.6 L 242.8,231.4 L 244.0,231.4 L 244.0,230.8 L 243.5,230.2 L 242.7,230.0 L 241.5,229.3 L 241.4,229.0 L 241.1,228.8 L 240.6,228.8 L 240.5,229.6 L 240.2,229.8 L 239.6,230.0 L 239.4,230.9 L 239.5,233.2 L 240.1,234.5 L 240.4,235.7 L 240.2,236.0 L 239.6,236.0 L 238.8,235.2 L 238.3,234.9 L 236.7,233.1 L 235.9,232.4 L 235.7,231.5 L 233.4,229.7 L 233.1,229.4 L 233.5,229.1 L 236.4,230.9 L 236.8,231.1 L 237.3,231.1 L 237.7,230.3 L 237.6,229.2 L 236.6,227.1 L 236.0,226.2 L 235.6,224.8 L 233.6,222.7 L 231.7,221.7 L 231.0,221.5 L 229.9,220.8 L 228.7,219.3 L 228.4,219.1 L 227.6,219.6 L 226.9,219.3 L 226.4,218.6 L 226.1,217.7 L 225.4,217.2 L 224.4,216.9 L 223.5,216.1 L 222.4,215.5 L 221.0,214.9 L 220.6,215.0 L 220.5,215.6 L 220.6,216.0 L 220.9,216.2 L 221.3,216.7 L 221.7,217.1 L 221.6,217.7 L 220.8,217.7 L 219.0,216.3 L 218.6,216.5 L 217.7,218.8 L 217.7,219.3 L 210.7,216.9 L 209.8,216.5" fill="none" stroke="black" stroke-width="2"/>
</svg>