<?xml version="1.0" encoding="UTF-8"?>
<svg width="400" height="400" viewBox="0 0 400 400" xmlns="http://www.w3.org/2000/svg">
  <rect width="400" height="400" fill="white"/>
  <path d="M 235.7,246.4 L 235.4,244.9 L 235.6,244.2 L 234.9,243.0 L 234.5,242.3 L 234.5,241.7 L 233.7,239.8 L 233.4,239.6 L 233.4,239.2 L 233.2,238.6 L 232.7,238.0 L 232.3,236.7 L 232.5,236.5 L 232.5,236.3 L 232.0,235.0 L 231.6,235.1 L 231.1,234.2 L 230.9,233.8 L 229.4,231.8 L 229.1,231.8 L 228.2,232.1 L 228.0,232.0 L 228.2,231.0 L 227.6,229.7 L 227.3,228.6 L 227.0,228.0 L 226.4,228.1 L 226.5,226.7 L 226.5,226.7 L 225.8,224.9 L 226.0,223.1 L 225.8,222.2 L 225.5,221.5 L 225.4,220.8 L 225.4,220.0 L 225.1,219.0 L 225.3,218.1 L 225.1,217.3 L 225.4,216.5 L 225.1,215.9 L 224.6,214.6 L 224.5,213.7 L 224.5,212.8 L 224.4,212.1 L 224.9,211.4 L 224.4,210.3 L 224.1,208.8 L 223.8,208.4 L 223.7,207.7 L 223.2,207.0 L 223.2,206.0 L 222.5,205.4 L 222.2,204.1 L 221.2,202.7 L 221.3,202.2 L 221.6,201.7 L 220.8,200.5 L 220.8,200.1 L 220.6,199.3 L 218.6,196.2 L 218.2,195.3 L 217.5,194.4 L 216.8,193.6 L 215.6,192.6 L 215.0,191.7 L 213.9,190.9 L 213.3,190.7 L 212.4,189.2 L 212.3,189.1 L 212.0,188.6 L 211.6,187.7 L 210.6,186.1 L 210.1,185.7 L 208.9,185.6 L 208.5,185.7 L 207.3,185.6 L 207.3,186.2 L 207.1,186.2 L 206.6,185.5 L 206.1,185.3 L 205.9,184.9 L 204.9,184.5 L 203.3,182.9 L 202.2,181.4 L 201.2,180.4 L 200.9,179.1 L 200.3,177.3 L 200.4,176.7 L 199.9,175.0 L 199.9,173.5 L 199.7,172.9 L 199.2,171.5 L 198.8,170.8 L 198.7,170.2 L 197.6,168.8 L 197.1,168.4 L 196.1,167.0 L 195.7,166.4 L 194.1,164.4 L 193.4,164.0 L 192.8,163.3 L 192.5,162.4 L 192.6,161.5 L 192.3,160.6 L 192.2,159.4 L 192.0,159.1 L 191.7,159.1 L 191.3,159.2 L 191.2,158.9 L 191.0,158.1 L 190.4,157.0 L 190.1,156.6 L 190.2,156.5 L 190.6,156.5 L 190.8,156.2 L 190.5,156.0 L 190.2,155.9 L 189.2,153.6 L 188.0,151.9 L 187.7,151.3 L 187.5,150.3 L 187.3,149.9 L 187.3,149.4 L 186.7,148.0 L 186.5,147.7 L 185.4,147.4 L 184.6,147.7 L 184.4,148.0 L 184.5,148.4 L 183.8,148.7 L 183.7,149.8 L 183.3,149.8 L 182.7,149.9 L 182.3,149.3 L 182.0,148.0 L 181.8,147.5 L 181.0,146.9 L 180.8,146.6 L 180.8,146.5 L 180.5,145.2 L 180.0,144.1 L 180.2,143.9 L 180.4,143.8 L 180.3,142.8 L 179.4,141.5 L 178.8,141.0 L 178.0,140.6 L 177.8,140.3 L 177.0,140.0 L 176.5,139.1 L 175.7,138.5 L 174.9,137.4 L 174.3,136.2 L 173.7,135.5 L 173.4,135.2 L 172.9,134.7 L 172.5,133.7 L 172.2,133.7 L 171.8,133.4 L 171.5,133.6 L 170.5,132.9 L 169.8,132.7 L 169.2,132.4 L 168.9,132.3 L 168.6,132.4 L 168.3,132.7 L 168.1,133.5 L 168.4,134.5 L 168.3,135.8 L 167.9,136.7 L 167.7,136.9 L 167.5,136.9 L 167.0,136.4 L 167.0,135.4 L 167.0,134.7 L 166.3,133.3 L 166.0,132.6 L 165.9,131.7 L 165.8,131.3 L 165.8,130.8 L 165.6,130.6 L 165.3,129.5 L 164.9,128.9 L 164.8,127.5 L 164.0,126.4 L 164.1,126.1 L 164.7,126.0 L 164.8,125.7 L 164.3,125.1 L 163.7,124.5 L 163.5,124.2 L 163.6,123.8 L 164.5,123.9 L 164.7,123.7 L 164.4,123.0 L 164.5,122.3 L 164.0,121.7 L 163.9,120.9 L 163.5,118.9 L 162.8,117.7 L 162.5,117.5 L 162.1,117.3 L 161.8,116.9 L 161.5,116.7 L 160.7,116.7 L 160.3,115.7 L 159.7,115.1 L 159.6,114.5 L 159.3,113.8 L 159.2,113.1 L 157.3,110.5 L 156.5,109.0 L 155.9,108.3 L 155.2,107.4 L 155.1,107.0 L 154.8,106.7 L 154.6,106.4 L 154.1,106.5 L 153.9,106.4 L 153.1,106.4 L 153.0,105.9 L 152.2,105.0 L 151.9,104.6 L 152.0,104.3 L 152.2,104.1 L 151.6,103.4 L 151.5,102.5 L 151.3,101.9 L 150.0,100.6 L 149.4,100.5 L 148.2,98.9 L 147.2,97.3 L 146.3,95.9 L 146.0,95.7 L 145.0,94.5 L 145.0,94.5 L 144.7,94.4 L 142.3,91.8 L 142.1,91.4 L 141.3,91.1 L 140.9,89.7 L 139.0,87.1 L 138.3,86.4 L 138.3,85.7 L 137.9,84.5 L 137.9,83.8 L 138.2,83.9 L 139.2,84.9 L 139.7,84.9 L 139.7,84.4 L 139.2,84.0 L 139.2,83.2 L 138.6,82.5 L 138.4,81.6 L 138.6,81.4 L 139.0,81.2 L 139.7,78.9 L 140.2,78.5 L 140.8,75.1 L 140.3,74.2 L 140.0,73.4 L 139.7,72.1 L 139.0,69.7 L 139.3,66.8 L 139.2,66.7 L 139.1,66.5 L 138.6,66.1 L 138.7,65.6 L 139.2,64.9 L 139.9,63.4 L 139.5,62.8 L 139.3,62.4 L 139.2,61.1 L 138.2,58.8 L 138.2,57.8 L 138.3,57.0 L 138.1,56.7 L 137.9,56.6 L 137.3,54.9 L 137.0,54.2 L 136.2,53.5 L 134.1,51.7 L 133.3,51.4 L 133.0,51.0 L 132.6,50.9 L 132.3,50.3 L 132.1,49.8 L 131.3,48.7 L 130.9,48.0 L 130.4,47.4 L 129.2,46.6 L 128.8,46.0 L 128.6,45.9 L 128.0,45.1 L 127.4,44.6 L 127.0,43.1 L 126.2,42.5 L 126.0,42.1 L 125.5,41.4 L 126.1,40.9 L 127.1,42.3 L 128.3,43.0 L 129.8,43.3 L 130.2,43.7 L 131.1,43.9 L 131.7,43.9 L 131.9,44.0 L 131.7,44.4 L 130.4,45.4 L 130.5,46.0 L 131.0,46.8 L 132.2,48.0 L 133.8,49.2 L 135.8,51.0 L 136.6,51.3 L 137.4,52.0 L 138.6,52.8 L 139.8,53.6 L 140.2,53.5 L 140.3,53.3 L 140.1,52.6 L 140.1,52.3 L 140.7,51.7 L 141.2,51.0 L 141.8,50.9 L 142.0,50.5 L 142.3,50.2 L 142.4,49.9 L 143.1,49.3 L 143.7,49.2 L 143.8,48.7 L 143.4,47.7 L 143.2,47.4 L 143.3,47.0 L 143.7,46.9 L 143.8,46.3 L 142.9,45.0 L 143.0,44.7 L 143.2,44.2 L 143.5,44.0 L 144.1,43.9 L 144.4,43.6 L 144.7,43.1 L 144.2,42.2 L 143.8,41.7 L 144.0,41.4 L 144.0,41.1 L 143.9,40.7 L 143.5,40.0 L 144.1,40.2 L 149.1,42.0 L 149.1,42.2 L 149.3,43.1 L 149.8,43.7 L 149.9,44.2 L 150.1,45.0 L 151.4,46.1 L 151.9,46.8 L 151.4,46.7 L 150.8,46.2 L 150.1,45.9 L 149.8,46.0 L 149.9,46.5 L 149.6,46.7 L 149.4,47.1 L 149.7,48.0 L 150.5,48.9 L 150.5,49.4 L 151.1,50.0 L 151.8,49.9 L 152.0,50.2 L 152.0,50.8 L 152.2,51.0 L 153.4,52.3 L 152.8,52.1 L 152.5,52.2 L 152.4,52.8 L 152.6,53.5 L 149.7,53.1 L 148.8,53.4 L 148.7,53.9 L 148.4,54.2 L 147.3,54.2 L 146.9,54.5 L 146.8,55.5 L 147.0,56.0 L 146.8,57.2 L 146.9,58.7 L 147.4,59.4 L 147.5,59.7 L 147.1,60.0 L 146.3,60.2 L 146.0,60.4 L 145.6,60.9 L 145.4,61.5 L 145.7,62.2 L 146.2,62.4 L 147.0,62.9 L 148.3,64.2 L 148.8,64.7 L 151.6,66.8 L 151.8,66.9 L 152.4,67.3 L 157.4,70.3 L 158.1,71.1 L 159.0,71.8 L 159.9,72.2 L 161.2,74.5 L 161.1,74.6 L 160.2,74.6 L 159.5,74.0 L 158.6,73.1 L 158.5,72.7 L 158.1,72.3 L 157.7,72.1 L 157.2,71.7 L 156.7,71.5 L 155.8,70.4 L 154.5,69.6 L 153.5,69.5 L 153.0,68.8 L 152.1,68.6 L 151.9,68.1 L 151.9,67.6 L 151.7,67.6 L 151.3,67.5 L 150.2,67.8 L 148.6,66.6 L 148.6,66.5 L 148.7,66.3 L 148.5,66.0 L 148.2,65.9 L 147.8,66.0 L 146.8,65.8 L 146.4,65.7 L 146.3,66.1 L 146.4,66.3 L 146.9,67.1 L 146.6,67.9 L 146.4,69.2 L 145.8,70.0 L 145.8,70.6 L 146.1,71.1 L 146.0,71.8 L 145.2,71.3 L 144.9,71.4 L 144.7,72.8 L 144.8,74.0 L 145.2,75.0 L 145.8,75.7 L 145.6,76.5 L 145.3,76.6 L 145.0,76.0 L 144.5,75.8 L 143.5,75.9 L 143.1,76.3 L 143.3,77.5 L 143.2,79.0 L 143.8,79.2 L 145.0,78.9 L 145.5,79.1 L 145.7,79.9 L 145.6,80.9 L 145.9,81.8 L 146.3,82.5 L 146.5,83.0 L 147.1,84.0 L 148.3,85.0 L 148.8,85.5 L 149.0,85.8 L 149.3,86.9 L 149.9,87.9 L 150.5,88.0 L 150.7,88.3 L 150.7,89.0 L 149.9,90.0 L 149.7,91.3 L 149.8,91.8 L 150.2,92.5 L 150.9,92.9 L 151.1,93.1 L 151.4,93.8 L 151.7,94.2 L 151.7,95.7 L 151.9,96.6 L 152.5,97.2 L 152.4,98.1 L 152.6,99.0 L 153.0,99.5 L 153.5,99.7 L 154.0,99.5 L 154.5,100.1 L 154.9,100.4 L 155.8,102.5 L 155.9,103.8 L 156.5,104.6 L 158.3,105.8 L 158.9,105.8 L 160.2,105.5 L 160.7,105.3 L 161.0,105.7 L 161.2,106.5 L 161.5,107.0 L 161.3,108.3 L 161.7,108.8 L 162.8,108.9 L 163.2,108.4 L 163.4,107.9 L 164.7,107.2 L 165.1,107.6 L 165.2,108.1 L 165.2,108.8 L 165.4,109.2 L 165.9,108.8 L 166.1,109.0 L 166.7,110.7 L 166.5,112.9 L 166.8,113.3 L 168.0,113.5 L 168.5,113.9 L 169.5,114.0 L 170.4,113.6 L 171.9,112.9 L 172.9,112.7 L 173.7,112.8 L 173.9,113.0 L 174.0,113.3 L 174.1,113.5 L 174.0,114.0 L 173.8,114.2 L 171.3,116.7 L 171.1,117.2 L 171.2,117.5 L 171.1,118.1 L 170.9,118.3 L 170.5,118.4 L 170.1,117.9 L 169.8,117.9 L 169.7,119.1 L 169.9,120.0 L 170.5,120.7 L 171.2,121.1 L 172.3,122.0 L 173.0,122.5 L 173.6,122.9 L 174.7,123.2 L 175.2,123.3 L 175.8,123.2 L 176.4,123.5 L 176.6,124.7 L 178.2,126.7 L 179.0,127.4 L 180.0,127.7 L 181.0,128.3 L 181.7,128.4 L 183.2,129.2 L 183.8,129.3 L 184.4,129.0 L 185.3,129.3 L 185.9,129.1 L 186.4,129.1 L 186.7,129.5 L 187.0,130.0 L 186.8,130.5 L 186.9,131.0 L 186.4,131.9 L 186.3,132.3 L 186.5,132.7 L 186.4,133.0 L 186.2,133.4 L 186.4,133.7 L 188.4,134.9 L 188.3,135.2 L 188.6,135.5 L 189.4,136.0 L 190.6,136.1 L 191.6,136.5 L 192.4,137.3 L 193.0,137.6 L 194.7,139.2 L 195.7,140.0 L 196.0,140.5 L 196.4,141.9 L 197.0,142.5 L 199.4,145.0 L 200.3,145.5 L 201.2,145.8 L 201.8,147.0 L 202.3,147.4 L 202.4,147.6 L 203.3,148.5 L 204.3,149.1 L 205.1,149.2 L 207.0,150.2 L 207.7,150.8 L 208.9,151.2 L 209.8,151.6 L 210.7,151.9 L 211.5,152.3 L 212.3,152.7 L 213.9,153.1 L 215.0,153.3 L 215.3,153.6 L 215.6,154.1 L 215.2,155.2 L 213.9,158.2 L 214.0,158.9 L 213.8,159.7 L 213.9,160.5 L 214.2,161.2 L 214.2,161.5 L 213.8,161.5 L 213.6,161.5 L 213.6,161.9 L 212.9,162.1 L 212.9,162.7 L 214.9,165.0 L 216.1,165.6 L 216.5,165.9 L 216.7,166.4 L 217.6,167.2 L 218.6,168.5 L 219.4,169.1 L 220.5,170.2 L 220.9,170.8 L 220.9,171.1 L 221.0,171.7 L 222.5,173.1 L 223.3,173.2 L 223.8,173.0 L 224.0,173.3 L 224.6,173.6 L 225.0,174.1 L 225.4,174.4 L 226.0,175.2 L 227.1,176.1 L 228.1,176.5 L 228.3,176.9 L 229.1,177.9 L 229.5,178.2 L 230.2,178.3 L 230.7,178.7 L 232.9,181.4 L 233.8,182.1 L 235.0,182.8 L 235.6,183.2 L 236.2,183.3 L 238.5,185.1 L 240.0,186.1 L 241.6,187.0 L 242.8,187.3 L 243.1,187.4 L 243.7,187.8 L 245.7,188.1 L 249.2,190.0 L 249.5,190.6 L 250.1,193.1 L 250.7,193.9 L 253.1,195.5 L 253.5,196.3 L 254.3,197.3 L 255.8,198.5 L 256.0,199.0 L 256.2,200.9 L 256.4,202.0 L 256.5,203.1 L 256.4,203.4 L 256.1,203.4 L 255.8,202.7 L 255.6,202.5 L 255.0,202.7 L 254.5,201.4 L 254.2,201.1 L 254.1,200.7 L 253.7,200.3 L 253.2,200.0 L 252.7,199.6 L 252.4,199.8 L 251.7,202.0 L 251.4,203.6 L 251.2,203.7 L 250.9,203.4 L 250.7,203.6 L 249.8,204.8 L 249.7,205.6 L 250.2,206.4 L 251.1,207.2 L 251.9,207.9 L 252.9,208.5 L 253.2,209.0 L 253.0,209.3 L 252.4,209.0 L 252.1,208.7 L 251.7,208.8 L 251.1,208.3 L 250.6,207.6 L 249.6,207.0 L 248.7,206.8 L 248.3,207.0 L 247.2,208.2 L 246.9,209.1 L 246.7,209.1 L 246.1,208.4 L 245.0,208.1 L 243.5,206.7 L 242.9,207.3 L 242.5,208.1 L 242.2,208.7 L 242.4,209.1 L 242.3,209.9 L 242.5,210.6 L 242.8,211.1 L 242.7,211.7 L 242.9,212.9 L 243.4,214.5 L 245.1,216.7 L 248.3,220.2 L 248.7,220.2 L 249.1,220.0 L 249.4,220.3 L 249.4,220.5 L 249.9,221.4 L 250.3,221.9 L 250.9,222.1 L 251.5,221.8 L 251.7,222.1 L 251.5,223.3 L 251.1,224.9 L 250.7,225.6 L 250.6,226.1 L 250.3,226.2 L 249.5,227.1 L 249.3,227.8 L 249.3,228.0 L 249.2,228.9 L 249.2,229.7 L 249.5,230.8 L 249.0,231.1 L 248.5,231.3 L 248.3,231.0 L 248.3,229.9 L 248.1,228.9 L 248.0,227.7 L 248.0,227.7 L 247.6,226.4 L 247.2,226.2 L 246.7,226.4 L 246.6,226.2 L 246.8,225.6 L 246.6,225.3 L 246.2,225.1 L 245.5,224.2 L 245.1,224.0 L 244.7,224.2 L 244.2,224.1 L 243.9,224.5 L 243.7,224.9 L 243.9,225.5 L 243.8,226.2 L 244.3,227.3 L 244.6,228.2 L 245.4,228.3 L 245.7,228.7 L 245.7,229.5 L 245.9,230.1 L 245.5,230.9 L 245.2,232.9 L 246.0,234.4 L 246.5,234.6 L 247.4,234.1 L 248.0,234.1 L 248.3,234.4 L 248.1,236.0 L 248.4,237.0 L 248.8,237.4 L 249.1,238.8 L 249.4,239.8 L 249.8,240.8 L 249.7,241.4 L 249.8,241.9 L 250.0,242.4 L 250.8,244.9 L 251.3,247.9 L 251.4,249.2 L 251.7,250.4 L 251.7,250.8 L 251.0,250.6 L 250.6,250.9 L 250.5,251.7 L 250.9,252.9 L 251.3,253.8 L 251.9,254.9 L 253.1,256.9 L 253.6,257.6 L 254.8,259.9 L 256.1,262.7 L 255.8,263.8 L 255.8,266.7 L 255.7,267.0 L 255.5,268.4 L 255.7,270.1 L 256.2,271.7 L 256.7,272.7 L 257.1,273.3 L 257.6,273.5 L 258.3,273.5 L 259.0,274.8 L 261.1,277.9 L 261.5,278.3 L 261.9,280.0 L 262.4,281.3 L 263.1,282.5 L 263.6,283.7 L 264.0,286.4 L 264.4,286.6 L 264.7,287.2 L 265.6,290.4 L 266.7,293.9 L 267.3,295.3 L 267.8,297.6 L 269.1,299.1 L 269.8,299.7 L 270.8,301.0 L 271.1,301.5 L 271.4,302.5 L 272.9,304.1 L 273.4,305.1 L 273.7,305.8 L 273.7,306.0 L 273.7,306.3 L 273.7,306.8 L 273.0,307.2 L 273.2,307.6 L 273.8,307.8 L 274.5,308.8 L 274.4,309.2 L 274.0,309.4 L 274.1,310.1 L 273.8,310.1 L 273.9,309.7 L 273.9,309.3 L 273.1,308.9 L 272.9,308.6 L 272.9,308.0 L 272.5,307.6 L 272.4,307.1 L 272.1,306.7 L 271.7,306.7 L 271.5,308.0 L 271.3,308.1 L 270.4,307.6 L 269.9,307.5 L 269.4,307.5 L 269.1,307.2 L 268.7,306.5 L 267.7,305.5 L 267.6,305.3 L 266.7,303.9 L 266.4,303.8 L 266.1,303.8 L 265.3,305.0 L 265.3,305.3 L 265.2,305.9 L 265.0,307.0 L 265.2,307.8 L 265.0,308.2 L 264.7,308.4 L 264.4,308.8 L 264.9,310.7 L 265.3,311.2 L 265.7,312.1 L 266.0,313.1 L 266.6,313.4 L 266.8,313.8 L 266.7,314.8 L 266.9,315.8 L 266.9,316.3 L 266.4,317.2 L 266.1,318.8 L 266.0,321.5 L 266.2,322.7 L 266.0,324.5 L 266.1,325.8 L 266.8,327.2 L 267.5,328.0 L 268.0,329.6 L 267.9,330.7 L 267.6,331.3 L 267.2,333.9 L 267.6,337.2 L 267.4,338.6 L 266.7,338.7 L 266.4,341.2 L 265.7,341.7 L 265.3,343.7 L 265.3,344.9 L 265.4,346.1 L 265.4,347.7 L 265.7,349.9 L 265.8,351.0 L 266.1,352.3 L 266.1,353.5 L 266.5,354.7 L 266.3,356.2 L 265.6,357.8 L 265.2,358.9 L 265.0,360.0 L 265.0,360.0 L 265.0,359.9 L 262.3,356.1 L 262.2,355.9 L 262.4,355.8 L 262.5,355.0 L 262.0,351.0 L 262.2,348.0 L 262.2,346.5 L 262.0,343.5 L 261.7,342.4 L 261.7,341.1 L 261.3,339.5 L 261.4,339.1 L 261.1,338.2 L 260.8,336.4 L 260.6,336.2 L 260.3,335.6 L 260.1,335.0 L 259.4,333.8 L 259.0,333.3 L 258.4,332.0 L 257.9,331.3 L 257.9,330.9 L 258.2,330.3 L 258.2,329.7 L 257.6,328.7 L 257.2,328.2 L 257.2,327.8 L 256.1,326.3 L 255.5,324.6 L 255.2,323.8 L 254.8,323.5 L 254.3,323.4 L 253.7,323.7 L 253.5,323.6 L 253.1,323.0 L 253.0,322.4 L 253.0,321.5 L 252.7,320.7 L 252.1,319.4 L 252.5,318.7 L 252.4,318.0 L 251.3,316.8 L 251.4,316.0 L 252.1,315.8 L 252.3,315.4 L 252.2,314.8 L 251.5,312.7 L 250.0,310.4 L 249.5,310.0 L 248.9,308.3 L 248.3,307.2 L 248.2,305.9 L 246.8,303.6 L 246.8,303.6 L 246.5,302.7 L 246.2,302.1 L 245.4,300.3 L 244.4,299.3 L 243.7,298.3 L 243.4,297.5 L 243.1,295.9 L 243.2,295.1 L 243.5,294.7 L 243.8,293.9 L 243.9,293.0 L 243.6,292.2 L 243.0,292.2 L 242.7,290.4 L 242.7,289.7 L 242.8,289.1 L 243.5,288.6 L 244.0,288.5 L 244.8,283.5 L 244.8,282.7 L 245.0,282.5 L 245.7,282.5 L 245.9,282.2 L 245.9,281.4 L 245.6,280.3 L 245.6,279.9 L 245.4,279.6 L 245.1,279.4 L 245.0,278.2 L 245.3,277.6 L 245.3,276.7 L 245.2,275.1 L 245.3,273.7 L 245.2,272.8 L 244.6,271.3 L 244.2,271.0 L 243.5,271.0 L 243.1,270.6 L 242.7,270.5 L 242.3,270.7 L 242.0,271.5 L 241.3,272.0 L 241.0,272.1 L 240.9,271.9 L 240.9,271.9 L 240.9,271.9 L 240.7,270.9 L 240.7,269.4 L 240.3,267.1 L 240.6,265.5 L 240.9,264.8 L 241.6,261.6 L 241.4,260.7 L 241.1,260.3 L 239.7,259.3 L 238.6,256.1 L 237.1,251.6 L 237.3,250.9 L 237.1,250.3 L 237.3,250.2 L 237.2,249.9 L 237.0,247.3 L 236.8,247.3 L 236.5,247.0 L 235.7,246.4" fill="none" stroke="black" stroke-width="2"/>
</svg>