<?xml version="1.0" encoding="UTF-8"?>
<svg width="400" height="400" viewBox="0 0 400 400" xmlns="http://www.w3.org/2000/svg">
  <rect width="400" height="400" fill="white"/>
  <path d="M 40.1,229.2 L 40.4,228.8 L 40.4,228.5 L 40.0,227.7 L 40.1,227.5 L 41.3,226.5 L 41.4,226.4 L 41.6,225.9 L 41.7,225.4 L 42.1,225.1 L 42.4,224.1 L 42.4,223.8 L 42.2,223.0 L 42.4,222.8 L 42.4,222.4 L 42.2,221.9 L 42.2,221.8 L 41.9,221.4 L 41.8,221.0 L 41.7,220.6 L 41.7,220.1 L 41.8,219.7 L 41.7,219.4 L 41.8,219.1 L 42.0,218.8 L 42.3,218.3 L 42.7,217.7 L 42.7,217.6 L 43.1,217.3 L 43.4,216.8 L 43.6,216.7 L 43.8,216.3 L 43.9,216.0 L 43.9,215.8 L 43.9,215.6 L 44.1,215.2 L 44.3,215.0 L 44.4,214.8 L 44.7,214.5 L 45.2,214.2 L 45.7,213.9 L 46.1,213.7 L 46.5,213.6 L 46.7,213.6 L 46.9,213.4 L 47.5,213.2 L 47.7,213.1 L 48.0,212.8 L 48.5,212.5 L 48.9,212.3 L 49.0,212.3 L 49.2,212.1 L 49.2,212.1 L 49.9,211.7 L 50.0,211.7 L 50.3,211.4 L 50.6,211.2 L 50.7,211.0 L 50.8,211.0 L 50.9,211.0 L 51.0,211.0 L 51.2,210.7 L 51.4,210.5 L 51.7,210.3 L 52.0,210.3 L 52.2,210.3 L 52.6,210.3 L 52.8,210.2 L 52.8,210.1 L 53.0,209.9 L 53.2,209.7 L 53.4,209.5 L 53.6,209.4 L 53.8,209.4 L 54.2,209.5 L 54.5,209.7 L 54.6,209.6 L 54.8,209.7 L 54.9,209.8 L 55.2,209.8 L 55.6,209.9 L 55.9,209.8 L 55.9,209.7 L 56.0,209.7 L 56.3,209.7 L 56.6,210.0 L 56.9,210.2 L 57.2,210.4 L 57.5,210.4 L 57.8,210.2 L 58.1,210.1 L 58.5,210.0 L 59.0,209.8 L 59.4,209.4 L 59.7,209.0 L 60.1,208.7 L 60.3,208.1 L 60.6,207.8 L 60.7,207.6 L 61.1,207.5 L 61.4,207.1 L 61.5,206.7 L 61.6,206.2 L 62.0,205.8 L 62.0,205.7 L 62.0,205.7 L 62.4,205.4 L 62.9,205.0 L 63.4,204.7 L 63.8,204.6 L 64.2,204.3 L 64.4,204.1 L 64.5,204.0 L 64.7,203.9 L 64.9,203.8 L 65.0,203.8 L 65.1,203.8 L 65.5,203.6 L 66.0,203.4 L 66.2,203.3 L 66.4,203.4 L 66.7,203.4 L 66.9,202.8 L 66.9,202.5 L 66.9,202.4 L 66.9,201.8 L 67.0,201.7 L 67.3,201.2 L 67.4,200.7 L 67.5,200.3 L 67.5,200.2 L 67.8,199.8 L 68.0,199.4 L 68.0,199.3 L 68.1,199.0 L 68.3,198.7 L 68.6,198.5 L 69.4,198.3 L 70.3,198.1 L 71.0,198.0 L 72.1,198.0 L 72.5,197.9 L 72.9,197.9 L 73.4,197.6 L 73.7,197.5 L 74.1,197.5 L 74.4,197.7 L 74.6,197.6 L 75.0,197.6 L 75.3,197.6 L 75.5,197.6 L 75.6,197.5 L 75.7,197.5 L 75.8,197.4 L 75.9,197.4 L 76.0,197.5 L 76.1,197.6 L 76.2,197.7 L 76.3,197.7 L 76.4,197.8 L 76.6,197.8 L 76.7,197.8 L 76.8,197.7 L 76.9,197.7 L 76.9,197.8 L 77.1,197.8 L 77.2,197.9 L 77.4,197.9 L 77.6,197.9 L 77.6,198.0 L 77.8,198.2 L 77.9,198.3 L 78.0,198.3 L 78.2,198.3 L 78.4,198.4 L 78.6,198.4 L 78.7,198.4 L 78.9,198.5 L 79.0,198.6 L 79.2,198.7 L 79.4,198.8 L 79.6,198.8 L 79.7,198.7 L 79.9,198.7 L 80.7,198.4 L 81.4,198.1 L 82.0,197.7 L 83.2,196.9 L 83.7,196.5 L 84.0,196.5 L 84.4,196.2 L 84.6,195.8 L 85.4,195.3 L 85.7,194.9 L 86.3,194.4 L 86.7,193.9 L 87.2,193.4 L 88.4,192.5 L 89.0,192.1 L 89.5,191.7 L 89.8,191.2 L 89.8,190.7 L 89.5,189.9 L 89.9,189.5 L 90.2,189.2 L 90.3,188.9 L 90.0,188.4 L 89.8,188.2 L 89.4,188.0 L 89.4,187.5 L 89.3,187.3 L 89.4,187.2 L 89.5,187.1 L 89.3,186.0 L 89.1,185.6 L 89.2,185.4 L 89.1,184.8 L 89.0,183.7 L 89.0,183.3 L 89.4,182.8 L 89.7,182.8 L 89.9,182.6 L 90.1,181.5 L 90.2,181.1 L 90.3,180.9 L 90.5,180.5 L 90.6,179.9 L 90.5,179.6 L 90.8,177.1 L 90.9,176.4 L 91.2,175.7 L 91.6,175.4 L 92.0,175.4 L 92.1,175.3 L 92.1,175.0 L 92.1,174.9 L 91.8,174.4 L 91.6,173.1 L 91.7,173.0 L 91.8,172.5 L 91.9,172.4 L 92.0,172.3 L 92.1,172.2 L 92.2,172.1 L 92.3,172.1 L 92.5,172.1 L 92.7,172.1 L 93.0,172.1 L 93.0,172.1 L 93.3,172.1 L 93.6,172.1 L 93.6,172.1 L 93.8,172.0 L 93.9,171.9 L 94.1,171.9 L 94.3,172.0 L 94.7,172.0 L 94.9,172.0 L 95.1,171.9 L 95.4,171.8 L 95.5,171.7 L 95.6,171.5 L 95.6,171.3 L 95.8,171.1 L 95.9,170.9 L 96.1,170.7 L 96.2,170.6 L 96.3,170.5 L 96.6,170.3 L 97.0,170.0 L 97.3,169.9 L 97.6,169.8 L 98.0,169.7 L 98.3,169.6 L 98.5,169.4 L 98.9,169.2 L 99.2,169.1 L 99.2,169.0 L 99.5,169.0 L 99.9,168.9 L 100.2,168.7 L 100.4,168.6 L 100.5,168.5 L 100.8,168.4 L 101.2,168.3 L 101.7,168.1 L 102.1,168.0 L 102.6,167.9 L 103.0,167.9 L 103.1,167.9 L 103.4,167.9 L 103.8,168.1 L 103.9,168.1 L 104.2,168.2 L 104.7,168.4 L 104.9,168.5 L 105.0,168.6 L 105.1,168.6 L 105.7,169.1 L 106.2,169.4 L 106.6,169.8 L 107.1,170.2 L 107.9,170.4 L 108.4,170.4 L 109.1,170.4 L 109.5,170.4 L 110.0,170.5 L 110.3,170.2 L 110.4,170.2 L 110.5,170.1 L 110.6,170.1 L 110.8,169.9 L 111.1,169.8 L 111.6,169.6 L 112.2,169.5 L 112.5,169.4 L 112.5,169.4 L 112.8,169.4 L 113.0,169.3 L 113.1,169.3 L 113.9,169.2 L 114.4,169.2 L 114.4,169.2 L 114.5,169.1 L 115.2,169.1 L 115.6,168.9 L 115.7,168.8 L 116.4,168.4 L 116.9,168.2 L 117.4,168.0 L 117.8,167.8 L 118.3,167.8 L 118.5,167.9 L 118.8,167.9 L 119.1,167.9 L 119.4,168.0 L 119.8,168.1 L 120.0,168.4 L 120.4,168.4 L 120.6,168.4 L 121.2,168.7 L 121.6,168.7 L 122.5,168.3 L 122.9,168.0 L 123.6,167.1 L 124.3,166.0 L 124.2,165.6 L 124.4,165.5 L 124.4,165.2 L 125.3,163.8 L 125.3,163.7 L 125.4,163.7 L 125.4,163.6 L 125.4,163.6 L 125.6,163.5 L 125.8,163.6 L 126.1,163.8 L 126.3,163.8 L 126.4,163.8 L 126.6,164.0 L 126.9,164.0 L 127.3,164.1 L 127.7,164.1 L 127.9,164.2 L 127.9,164.3 L 128.0,164.5 L 128.2,164.6 L 128.5,164.6 L 128.5,164.7 L 128.5,164.9 L 128.6,165.0 L 128.6,165.1 L 128.8,165.2 L 129.0,165.3 L 129.2,165.3 L 129.3,165.3 L 129.5,165.2 L 129.6,165.1 L 129.7,165.1 L 130.0,165.1 L 130.1,165.3 L 130.2,165.4 L 130.3,165.5 L 130.4,165.6 L 130.5,165.6 L 130.7,165.5 L 130.8,165.4 L 130.9,165.1 L 131.0,165.0 L 131.2,164.9 L 131.4,164.7 L 131.5,164.6 L 131.6,164.4 L 131.7,164.2 L 131.9,164.2 L 132.1,164.2 L 132.3,164.1 L 132.4,163.9 L 132.6,163.9 L 132.8,163.8 L 133.0,163.7 L 133.1,163.6 L 133.3,163.6 L 133.4,163.6 L 133.4,163.6 L 133.6,163.5 L 134.0,163.5 L 134.2,163.1 L 134.4,162.5 L 134.4,161.9 L 134.4,161.7 L 135.3,161.8 L 135.5,161.8 L 135.9,161.4 L 136.6,160.9 L 137.1,160.7 L 137.2,160.7 L 137.4,160.6 L 137.7,160.6 L 137.9,160.4 L 138.2,160.3 L 138.3,160.2 L 138.3,160.2 L 138.4,160.3 L 138.7,160.4 L 139.0,160.4 L 139.2,160.4 L 139.5,160.2 L 139.9,160.1 L 140.2,160.0 L 140.6,160.0 L 140.7,159.8 L 140.8,159.7 L 141.0,159.7 L 141.3,159.7 L 141.5,159.5 L 141.9,159.4 L 142.2,159.2 L 142.5,159.0 L 142.6,159.0 L 143.0,158.7 L 143.5,158.6 L 144.1,158.4 L 144.6,158.4 L 145.3,158.3 L 145.6,158.2 L 145.9,158.1 L 146.1,158.0 L 147.6,157.5 L 148.7,156.7 L 150.9,155.8 L 152.2,155.1 L 152.2,155.1 L 152.6,155.0 L 152.9,154.7 L 153.0,154.4 L 153.1,154.0 L 153.2,153.7 L 153.3,153.5 L 153.3,153.3 L 153.4,153.1 L 153.5,153.1 L 153.6,152.9 L 153.8,152.7 L 153.8,152.7 L 154.5,152.7 L 154.7,152.6 L 154.7,152.5 L 154.8,152.4 L 155.1,152.2 L 155.2,152.2 L 155.0,151.8 L 155.0,151.8 L 154.8,151.9 L 154.8,151.8 L 154.8,151.7 L 154.7,151.6 L 154.7,151.6 L 154.8,151.6 L 155.0,151.5 L 155.0,151.4 L 155.2,151.3 L 155.5,151.0 L 155.5,151.0 L 155.6,150.9 L 155.8,150.9 L 156.0,150.8 L 156.3,150.7 L 156.5,150.7 L 156.7,150.6 L 156.9,150.5 L 157.3,150.3 L 157.6,150.2 L 157.8,150.1 L 158.2,150.1 L 158.4,150.1 L 158.6,150.0 L 159.0,149.9 L 159.2,149.7 L 159.4,149.6 L 159.5,149.6 L 160.0,149.5 L 160.4,149.4 L 161.0,149.2 L 161.4,149.2 L 161.8,149.1 L 162.2,148.9 L 162.5,148.8 L 162.8,148.6 L 162.8,148.5 L 163.1,148.4 L 163.5,148.3 L 164.0,148.4 L 164.5,148.4 L 164.9,148.5 L 165.4,148.5 L 165.8,148.4 L 166.0,148.4 L 166.2,148.5 L 166.4,148.6 L 166.7,148.5 L 166.8,148.4 L 167.0,148.5 L 167.2,148.6 L 167.6,148.6 L 167.8,148.6 L 168.0,148.6 L 168.0,148.6 L 168.3,148.7 L 168.4,148.9 L 168.6,148.9 L 168.8,148.9 L 169.1,149.0 L 169.3,149.2 L 169.5,149.4 L 169.7,149.5 L 169.9,149.5 L 170.2,149.4 L 170.5,149.5 L 170.8,149.6 L 171.2,149.5 L 171.5,149.5 L 171.5,149.5 L 171.8,149.4 L 172.4,149.2 L 172.8,149.1 L 173.1,149.2 L 173.5,149.2 L 173.6,149.2 L 174.0,149.3 L 174.5,149.3 L 174.8,149.3 L 175.0,149.1 L 175.2,149.0 L 175.5,149.1 L 175.6,149.1 L 175.6,149.1 L 175.7,149.1 L 175.8,149.0 L 176.0,148.9 L 176.1,148.9 L 176.2,149.0 L 176.5,149.0 L 177.1,148.9 L 177.2,148.9 L 177.4,149.1 L 178.0,149.1 L 178.3,149.1 L 178.3,149.0 L 178.3,148.9 L 178.4,148.9 L 178.6,149.0 L 179.2,149.1 L 179.8,149.2 L 179.9,149.2 L 180.0,149.3 L 180.0,149.3 L 180.2,149.4 L 180.2,149.3 L 180.3,149.2 L 180.4,149.1 L 180.4,149.0 L 180.5,148.6 L 180.9,148.5 L 181.2,148.5 L 182.6,148.7 L 183.1,149.0 L 183.5,148.9 L 183.6,148.9 L 183.7,149.0 L 183.8,149.1 L 184.1,149.3 L 184.4,149.5 L 184.7,149.7 L 184.9,149.8 L 185.2,150.1 L 185.5,150.3 L 185.7,150.6 L 186.0,150.8 L 186.3,151.0 L 186.5,151.1 L 186.7,151.1 L 186.9,151.1 L 187.1,151.2 L 187.5,151.4 L 187.7,151.6 L 187.8,151.8 L 187.9,152.0 L 188.1,152.3 L 188.2,152.5 L 188.3,152.6 L 188.4,152.9 L 188.6,153.2 L 188.6,153.4 L 188.8,153.8 L 189.0,154.3 L 189.2,154.7 L 189.3,154.8 L 189.4,155.0 L 189.5,155.3 L 189.7,155.4 L 189.8,155.5 L 189.9,156.0 L 190.0,156.2 L 190.5,156.5 L 191.2,156.6 L 191.4,156.9 L 191.4,157.3 L 191.5,157.6 L 192.0,157.6 L 192.1,157.6 L 192.9,157.7 L 193.0,157.7 L 193.2,157.9 L 193.4,157.9 L 193.6,158.1 L 193.8,158.2 L 194.0,158.1 L 194.2,158.2 L 194.3,158.4 L 194.4,158.5 L 194.5,158.5 L 195.5,158.5 L 195.9,158.3 L 196.3,158.3 L 196.7,158.1 L 196.9,157.9 L 197.5,157.4 L 197.8,157.3 L 198.4,156.9 L 198.8,156.7 L 200.1,155.8 L 200.6,155.4 L 200.8,155.4 L 201.4,155.0 L 202.1,155.0 L 202.4,154.8 L 202.6,154.7 L 203.2,154.2 L 203.3,154.0 L 204.0,153.7 L 204.1,153.6 L 204.2,153.5 L 204.4,153.3 L 204.6,153.2 L 204.6,152.9 L 204.9,152.8 L 205.1,152.7 L 205.4,152.6 L 205.7,152.4 L 206.0,152.4 L 206.0,152.2 L 206.2,152.1 L 206.6,151.9 L 206.9,151.8 L 207.3,151.6 L 207.5,151.4 L 207.8,151.0 L 208.0,150.9 L 208.2,150.6 L 208.4,150.4 L 208.6,150.2 L 208.7,150.2 L 208.9,149.9 L 208.9,149.7 L 209.0,149.5 L 209.0,149.5 L 209.0,149.3 L 209.0,149.3 L 209.1,149.2 L 209.1,149.2 L 209.0,149.0 L 209.0,149.0 L 209.0,148.9 L 209.0,148.9 L 209.1,148.9 L 208.7,148.4 L 208.7,148.4 L 208.7,148.4 L 208.9,148.2 L 208.9,148.1 L 208.7,147.5 L 208.6,147.1 L 208.6,146.9 L 208.5,146.7 L 208.5,146.4 L 208.5,146.3 L 208.5,145.8 L 208.6,145.3 L 208.7,145.0 L 208.9,144.5 L 209.2,144.1 L 225.2,145.9 L 225.2,145.9 L 225.2,146.0 L 225.2,146.1 L 225.3,146.2 L 225.3,146.4 L 225.3,146.7 L 225.3,147.0 L 225.4,147.4 L 225.7,148.1 L 225.9,148.4 L 226.3,148.6 L 227.0,148.8 L 227.9,149.2 L 228.6,149.6 L 229.1,149.7 L 229.6,150.0 L 230.2,150.1 L 230.4,150.2 L 231.8,151.1 L 232.0,151.1 L 232.4,151.4 L 232.7,151.5 L 233.5,151.7 L 233.8,152.0 L 234.1,151.9 L 234.5,152.2 L 235.0,152.1 L 235.2,152.2 L 235.2,152.2 L 235.7,152.6 L 235.9,152.8 L 236.5,153.6 L 236.9,154.0 L 237.1,154.4 L 237.4,154.8 L 238.0,155.5 L 238.2,155.6 L 238.4,155.8 L 238.5,155.9 L 238.9,155.9 L 239.5,156.0 L 240.0,156.2 L 240.4,156.2 L 240.6,156.1 L 241.6,155.9 L 242.0,155.9 L 243.1,155.4 L 243.5,155.4 L 244.8,155.1 L 245.5,155.0 L 246.3,154.5 L 247.2,153.8 L 248.2,152.8 L 248.5,152.3 L 248.9,152.0 L 249.2,151.8 L 249.4,151.5 L 249.5,151.1 L 249.8,150.4 L 250.4,149.8 L 251.0,149.2 L 251.5,148.8 L 252.6,147.7 L 253.3,147.1 L 253.9,146.5 L 254.3,146.2 L 255.2,145.7 L 255.6,145.6 L 257.1,144.7 L 257.9,144.4 L 258.2,144.1 L 258.5,144.0 L 260.3,143.1 L 261.3,143.0 L 261.3,143.0 L 261.9,142.7 L 262.1,142.6 L 262.2,142.5 L 262.7,142.4 L 263.2,142.1 L 263.7,142.0 L 264.0,141.9 L 264.3,141.8 L 264.6,141.8 L 265.1,141.7 L 265.7,141.7 L 266.2,141.6 L 266.8,141.4 L 267.3,141.3 L 267.6,141.3 L 268.0,141.4 L 268.3,141.4 L 268.7,141.3 L 269.3,141.2 L 269.6,141.2 L 269.9,141.1 L 270.1,141.1 L 270.6,140.9 L 271.1,140.8 L 271.3,140.9 L 271.4,140.8 L 271.5,140.8 L 271.5,140.8 L 271.6,140.8 L 271.8,140.7 L 271.9,140.7 L 272.1,140.7 L 272.3,140.7 L 272.5,140.7 L 272.6,140.7 L 272.8,140.7 L 273.0,140.6 L 273.1,140.6 L 273.3,140.6 L 273.4,140.6 L 273.5,140.6 L 273.7,140.5 L 273.9,140.5 L 274.1,140.4 L 274.3,140.4 L 274.5,140.4 L 274.6,140.3 L 274.7,140.3 L 274.9,140.3 L 275.1,140.3 L 275.3,140.2 L 275.4,140.2 L 275.6,140.2 L 275.6,140.2 L 275.9,140.2 L 276.0,140.2 L 276.3,140.2 L 276.3,140.2 L 276.4,140.2 L 276.6,140.2 L 276.7,140.2 L 276.9,140.2 L 277.1,140.2 L 277.2,140.2 L 277.4,140.2 L 277.5,140.2 L 277.7,140.3 L 277.9,140.3 L 278.0,140.3 L 278.2,140.3 L 278.4,140.3 L 278.5,140.3 L 278.7,140.3 L 278.8,140.4 L 279.0,140.4 L 279.1,140.4 L 279.3,140.5 L 279.4,140.5 L 279.5,140.5 L 279.6,140.5 L 279.7,140.4 L 279.8,140.4 L 279.8,140.5 L 279.9,140.6 L 279.9,140.6 L 280.0,140.6 L 280.2,140.5 L 280.3,140.5 L 280.5,140.5 L 280.6,140.6 L 280.7,140.6 L 280.8,140.6 L 281.0,140.6 L 281.2,140.6 L 281.4,140.5 L 281.5,140.5 L 281.6,140.5 L 281.7,140.5 L 281.8,140.6 L 281.9,140.5 L 282.0,140.5 L 282.2,140.6 L 282.3,140.6 L 282.4,140.6 L 282.4,140.6 L 282.6,140.6 L 282.7,140.6 L 282.9,140.6 L 283.0,140.5 L 283.1,140.4 L 283.2,140.2 L 283.3,140.0 L 283.4,139.9 L 283.5,139.7 L 283.5,139.7 L 283.6,139.7 L 283.6,139.7 L 283.7,139.7 L 283.9,139.9 L 284.0,139.9 L 284.1,140.0 L 284.2,140.0 L 284.4,140.0 L 284.6,140.1 L 284.8,140.1 L 284.9,140.1 L 285.1,140.2 L 285.1,140.2 L 285.2,140.2 L 285.3,140.2 L 285.3,140.2 L 285.5,140.2 L 285.6,140.3 L 285.7,140.3 L 285.7,140.4 L 285.8,140.4 L 285.9,140.3 L 285.9,140.3 L 285.9,140.3 L 285.9,140.3 L 286.0,140.3 L 286.1,140.3 L 286.1,140.3 L 286.3,140.2 L 286.4,140.2 L 286.6,140.2 L 286.7,140.1 L 286.9,140.2 L 287.0,140.2 L 287.2,140.2 L 287.3,140.3 L 287.4,140.3 L 287.6,140.3 L 287.8,140.3 L 287.9,140.2 L 288.1,140.2 L 288.3,140.2 L 288.4,140.2 L 288.6,140.1 L 288.7,140.1 L 288.9,140.0 L 289.0,139.9 L 289.1,139.8 L 289.3,139.8 L 289.5,139.7 L 289.7,139.7 L 289.8,139.7 L 289.9,139.7 L 290.0,139.7 L 290.1,139.8 L 290.3,139.8 L 290.4,139.9 L 290.6,139.9 L 290.7,139.9 L 290.7,140.0 L 290.9,140.0 L 291.0,140.0 L 291.2,140.1 L 291.3,140.1 L 291.4,140.1 L 291.5,140.1 L 291.7,140.2 L 291.8,140.2 L 292.0,140.2 L 292.1,140.2 L 292.3,140.3 L 292.5,140.3 L 292.6,140.3 L 292.8,140.3 L 293.0,140.3 L 293.2,140.4 L 293.3,140.4 L 293.4,140.5 L 293.5,140.5 L 293.7,140.4 L 293.8,140.4 L 293.9,140.3 L 293.9,140.3 L 294.1,140.3 L 294.2,140.3 L 294.4,140.3 L 294.6,140.3 L 294.8,140.3 L 295.0,140.4 L 295.1,140.4 L 295.3,140.3 L 295.4,140.3 L 295.6,140.3 L 295.8,140.3 L 295.9,140.3 L 296.1,140.4 L 296.2,140.5 L 296.4,140.5 L 296.4,140.6 L 296.5,140.6 L 296.7,140.7 L 296.9,140.8 L 297.0,140.9 L 297.1,141.0 L 297.3,141.1 L 297.4,141.2 L 297.5,141.3 L 297.6,141.3 L 297.8,141.3 L 297.9,141.3 L 298.1,141.3 L 298.2,141.3 L 298.3,141.4 L 298.4,141.5 L 298.4,141.6 L 298.5,141.6 L 298.6,141.6 L 298.7,141.7 L 298.9,141.7 L 299.0,141.6 L 299.2,141.6 L 299.3,141.6 L 299.3,141.6 L 299.5,141.7 L 299.6,141.8 L 299.7,142.0 L 299.8,142.0 L 299.8,142.1 L 299.9,142.1 L 300.0,142.1 L 300.0,142.1 L 300.1,142.0 L 300.1,142.0 L 300.2,142.0 L 300.3,142.1 L 300.5,142.2 L 300.6,142.2 L 300.7,142.2 L 300.9,142.2 L 301.0,142.2 L 301.2,142.2 L 301.4,142.2 L 301.5,142.3 L 301.7,142.3 L 301.9,142.3 L 302.1,142.4 L 302.2,142.4 L 302.4,142.4 L 302.6,142.4 L 302.8,142.4 L 302.9,142.4 L 303.1,142.4 L 303.4,142.5 L 303.5,142.5 L 303.7,142.5 L 303.9,142.5 L 304.0,142.5 L 304.1,142.5 L 304.3,142.6 L 304.4,142.6 L 304.6,142.7 L 304.7,142.7 L 304.7,142.7 L 304.8,142.8 L 304.8,142.8 L 305.0,142.9 L 305.2,143.0 L 305.3,143.0 L 305.5,143.1 L 305.6,143.2 L 305.8,143.3 L 305.9,143.3 L 306.1,143.5 L 306.1,143.5 L 306.3,143.6 L 306.4,143.9 L 306.5,143.9 L 306.6,144.1 L 306.7,144.1 L 306.8,144.2 L 307.0,144.2 L 307.1,144.3 L 307.1,144.3 L 307.2,144.5 L 307.3,144.6 L 307.4,144.8 L 307.5,145.0 L 307.5,145.1 L 307.6,145.2 L 307.8,145.4 L 308.0,145.6 L 308.1,145.7 L 308.1,145.7 L 308.2,145.8 L 308.4,145.9 L 308.6,145.9 L 308.7,146.0 L 308.9,146.1 L 309.0,146.1 L 309.0,146.1 L 309.0,146.2 L 309.1,146.3 L 309.2,146.3 L 309.4,146.4 L 309.5,146.4 L 309.7,146.4 L 309.9,146.5 L 310.0,146.5 L 310.1,146.6 L 310.1,146.7 L 310.3,146.9 L 310.4,147.0 L 310.6,147.2 L 310.6,147.2 L 310.7,147.3 L 310.8,147.4 L 310.9,147.5 L 311.1,147.5 L 311.2,147.6 L 311.4,147.7 L 311.4,147.7 L 311.5,147.7 L 311.6,147.7 L 311.7,147.8 L 311.9,147.8 L 312.0,147.9 L 312.1,147.9 L 312.1,147.9 L 312.2,147.9 L 312.2,148.0 L 312.3,148.0 L 312.4,148.1 L 312.5,148.1 L 312.6,148.0 L 312.6,148.0 L 312.7,147.9 L 312.9,148.0 L 313.0,148.0 L 313.2,148.0 L 313.4,148.1 L 313.4,148.1 L 313.6,148.2 L 313.8,148.3 L 313.8,148.3 L 313.9,148.4 L 313.9,148.5 L 314.1,148.6 L 314.2,148.7 L 314.4,148.8 L 314.5,148.9 L 314.7,149.1 L 314.8,149.2 L 314.8,149.2 L 314.9,149.4 L 315.1,149.6 L 315.6,150.1 L 315.6,150.3 L 316.3,151.0 L 316.6,151.6 L 317.0,151.9 L 318.3,152.0 L 318.4,152.6 L 318.9,153.0 L 318.9,153.2 L 319.3,153.6 L 319.9,153.9 L 320.2,153.8 L 320.4,154.0 L 320.6,154.1 L 321.0,154.3 L 321.7,154.9 L 322.2,154.9 L 323.1,155.4 L 323.5,155.7 L 324.5,156.2 L 325.6,156.4 L 326.0,156.7 L 326.8,157.2 L 327.1,157.4 L 327.5,157.6 L 328.0,157.9 L 328.9,158.3 L 329.6,158.3 L 330.0,158.2 L 330.6,158.8 L 331.0,159.0 L 331.3,159.2 L 331.5,159.3 L 331.7,159.4 L 331.9,159.7 L 333.0,160.3 L 333.3,160.5 L 333.5,160.7 L 334.0,160.8 L 334.4,161.0 L 334.4,161.3 L 334.6,161.7 L 335.5,162.3 L 335.9,162.5 L 336.3,162.9 L 336.6,163.5 L 336.7,164.0 L 337.8,165.2 L 338.3,165.5 L 338.6,165.8 L 338.7,166.9 L 338.9,167.4 L 339.1,167.7 L 339.3,167.7 L 339.5,167.8 L 340.4,168.1 L 340.6,168.3 L 341.0,168.7 L 342.4,169.2 L 343.6,169.4 L 344.1,169.8 L 344.9,170.8 L 345.8,171.5 L 346.4,172.0 L 346.9,172.5 L 347.5,173.0 L 348.1,173.2 L 348.3,173.2 L 348.6,173.6 L 348.9,173.7 L 349.1,173.8 L 349.5,173.9 L 349.7,174.1 L 350.1,174.1 L 350.4,174.4 L 351.6,174.9 L 353.7,175.1 L 353.8,175.1 L 354.6,175.1 L 355.3,175.3 L 355.4,175.3 L 356.3,175.7 L 357.2,176.0 L 357.7,176.2 L 358.3,176.2 L 358.8,176.4 L 360.0,188.8 L 360.0,189.1 L 359.8,189.1 L 359.6,189.2 L 359.5,189.3 L 359.1,189.6 L 358.8,190.1 L 358.4,190.5 L 358.2,190.4 L 358.2,190.3 L 358.2,190.4 L 358.0,190.6 L 357.9,190.7 L 357.7,190.8 L 357.6,190.9 L 357.3,191.3 L 357.2,191.4 L 357.3,191.5 L 357.1,191.6 L 357.1,191.4 L 356.7,191.7 L 356.5,191.9 L 356.5,192.1 L 356.3,192.2 L 356.0,192.6 L 355.7,194.6 L 355.1,195.5 L 354.9,195.7 L 354.7,196.1 L 354.1,196.6 L 353.9,197.0 L 353.5,197.5 L 353.4,197.6 L 353.3,197.9 L 353.4,198.5 L 353.4,198.7 L 353.0,199.8 L 352.7,200.4 L 352.6,200.9 L 352.5,201.2 L 352.4,201.5 L 352.2,201.9 L 352.0,202.4 L 351.9,202.5 L 351.7,203.0 L 351.4,203.3 L 351.3,203.4 L 351.0,203.5 L 350.9,203.5 L 350.0,203.3 L 349.9,203.3 L 349.8,203.2 L 349.4,202.9 L 349.1,202.9 L 348.6,202.9 L 348.1,203.3 L 348.1,203.5 L 347.0,203.7 L 346.6,203.8 L 346.1,204.4 L 345.2,205.4 L 344.9,205.6 L 344.5,206.4 L 344.4,206.6 L 344.4,206.7 L 344.7,207.1 L 344.8,207.5 L 344.7,207.7 L 344.6,208.4 L 344.4,208.6 L 343.2,209.3 L 342.8,209.5 L 342.7,209.5 L 341.8,210.0 L 341.5,210.1 L 341.1,210.4 L 340.6,210.7 L 340.1,211.0 L 339.4,211.3 L 338.7,211.7 L 338.1,211.8 L 337.5,211.8 L 337.2,211.6 L 336.3,210.6 L 336.3,210.3 L 336.1,209.9 L 335.8,209.7 L 335.3,209.6 L 335.2,209.0 L 334.9,208.8 L 335.0,208.6 L 335.0,208.2 L 334.5,207.8 L 334.3,207.1 L 333.9,206.1 L 333.4,205.7 L 333.0,205.6 L 330.7,203.8 L 330.4,203.7 L 330.1,203.2 L 330.0,203.1 L 330.0,202.4 L 330.0,201.8 L 329.9,201.2 L 329.7,201.1 L 329.1,200.6 L 328.8,200.3 L 328.8,199.9 L 328.6,199.6 L 328.5,199.4 L 328.2,198.6 L 327.9,197.4 L 327.3,195.9 L 327.0,195.4 L 326.8,195.2 L 326.7,195.0 L 326.6,194.9 L 326.2,194.6 L 326.0,194.2 L 325.2,193.6 L 324.2,193.2 L 323.6,192.6 L 323.2,192.2 L 322.7,191.9 L 321.7,191.1 L 320.1,190.2 L 318.0,188.8 L 316.7,187.7 L 316.5,187.3 L 315.7,186.3 L 315.3,186.0 L 314.8,185.4 L 313.2,184.2 L 312.0,183.6 L 311.7,183.5 L 311.1,183.1 L 310.6,182.8 L 310.0,182.3 L 308.7,181.8 L 308.3,181.6 L 307.5,181.3 L 307.2,181.1 L 306.5,180.9 L 304.8,180.2 L 302.8,179.6 L 302.7,179.6 L 302.2,179.4 L 301.4,179.2 L 300.5,178.8 L 300.3,178.8 L 299.2,178.3 L 298.8,178.3 L 298.2,178.0 L 297.8,177.7 L 296.6,177.1 L 293.1,176.1 L 292.7,176.0 L 292.1,175.9 L 291.9,176.0 L 291.3,175.8 L 291.3,175.6 L 290.7,175.5 L 290.5,175.3 L 290.4,175.0 L 289.3,174.6 L 288.9,174.3 L 288.4,174.4 L 287.6,174.2 L 287.4,174.0 L 287.0,174.0 L 284.5,174.1 L 284.4,174.3 L 284.3,174.4 L 284.2,174.4 L 283.7,174.3 L 282.8,174.8 L 282.6,174.7 L 282.6,174.9 L 282.5,175.0 L 282.5,175.1 L 282.1,175.3 L 280.5,175.2 L 280.2,175.3 L 279.4,175.1 L 278.6,174.6 L 277.8,174.5 L 277.4,174.3 L 276.1,174.0 L 274.9,174.0 L 273.9,173.8 L 273.6,173.9 L 272.9,173.8 L 272.5,173.9 L 272.0,174.1 L 271.5,174.2 L 271.0,174.5 L 270.6,174.6 L 269.6,175.4 L 269.4,175.7 L 268.9,175.9 L 268.0,176.5 L 267.4,176.8 L 266.6,177.1 L 266.6,177.1 L 266.0,177.5 L 265.3,177.8 L 264.7,178.0 L 264.4,178.1 L 264.1,178.2 L 263.5,178.3 L 262.5,178.2 L 262.4,178.3 L 262.0,178.5 L 261.7,178.7 L 261.6,178.9 L 261.0,179.2 L 260.4,179.7 L 259.0,180.3 L 258.4,180.8 L 257.8,181.1 L 257.4,181.3 L 256.2,181.2 L 255.9,181.5 L 255.8,181.5 L 255.2,181.9 L 253.0,182.7 L 252.9,182.7 L 251.9,183.3 L 251.3,183.5 L 250.0,184.4 L 249.7,184.6 L 249.0,184.9 L 248.1,185.8 L 247.2,186.2 L 246.9,186.3 L 246.6,186.2 L 246.3,186.1 L 245.9,186.2 L 245.6,186.4 L 245.0,186.7 L 244.6,186.6 L 243.7,186.6 L 242.9,186.7 L 241.4,186.6 L 239.6,186.1 L 239.1,186.1 L 237.0,185.7 L 236.4,185.5 L 235.7,185.4 L 233.6,185.1 L 233.1,185.3 L 232.7,185.2 L 232.3,185.3 L 231.7,185.5 L 231.3,185.3 L 230.9,185.4 L 230.3,185.3 L 229.8,185.1 L 228.9,185.0 L 228.6,184.8 L 227.5,184.7 L 226.2,184.8 L 226.1,184.7 L 225.6,184.5 L 225.2,184.6 L 224.7,184.6 L 224.0,184.4 L 223.4,184.4 L 222.4,184.3 L 221.9,184.2 L 221.7,184.0 L 221.0,184.0 L 220.8,183.8 L 220.1,183.7 L 220.0,183.7 L 218.6,184.1 L 218.1,184.1 L 218.1,184.1 L 217.8,184.1 L 217.5,184.1 L 217.4,184.1 L 217.0,184.1 L 216.7,184.2 L 216.7,184.3 L 216.7,184.6 L 216.2,184.7 L 216.1,184.7 L 216.1,184.8 L 216.2,184.8 L 216.2,184.8 L 216.1,184.9 L 216.1,184.9 L 216.0,184.9 L 215.9,185.0 L 215.9,185.0 L 215.8,185.0 L 215.6,185.2 L 214.7,185.5 L 214.3,185.4 L 214.0,185.3 L 214.0,185.3 L 213.6,185.2 L 213.4,185.3 L 213.1,185.3 L 212.8,185.4 L 212.7,185.4 L 212.0,185.3 L 211.6,185.5 L 210.7,185.5 L 209.8,185.6 L 209.0,185.8 L 208.9,185.8 L 208.4,185.8 L 207.7,186.0 L 207.2,186.1 L 206.8,186.3 L 205.5,187.9 L 205.4,188.0 L 205.1,188.0 L 204.8,187.9 L 204.8,187.9 L 204.3,187.9 L 204.1,188.0 L 203.4,188.4 L 203.2,188.3 L 203.0,188.2 L 202.3,188.1 L 202.0,187.9 L 201.4,187.8 L 200.6,187.6 L 200.4,187.4 L 200.2,187.2 L 199.8,187.2 L 199.4,187.4 L 198.9,187.6 L 198.6,187.2 L 197.3,187.0 L 197.2,186.8 L 197.0,186.9 L 196.8,187.1 L 196.5,187.0 L 196.4,186.9 L 196.4,186.4 L 196.2,186.3 L 195.7,186.2 L 195.5,186.0 L 194.9,186.0 L 194.8,185.7 L 194.3,185.6 L 194.0,185.2 L 193.7,184.8 L 193.4,184.9 L 192.3,184.5 L 192.0,184.5 L 191.7,184.6 L 191.2,184.5 L 190.6,184.2 L 190.1,184.1 L 189.3,183.7 L 188.7,183.7 L 188.3,183.7 L 188.1,183.6 L 187.8,182.6 L 187.6,182.3 L 186.7,181.0 L 186.0,180.4 L 185.5,180.1 L 185.1,180.0 L 184.6,179.2 L 183.7,179.0 L 183.4,178.7 L 183.2,178.5 L 183.0,178.1 L 182.4,177.6 L 181.8,177.3 L 180.8,177.0 L 179.8,176.8 L 179.5,176.6 L 179.0,176.4 L 178.5,176.2 L 177.9,175.9 L 176.6,175.8 L 176.0,175.6 L 175.5,175.4 L 172.9,174.5 L 172.6,174.5 L 171.2,174.0 L 171.0,174.0 L 170.4,173.8 L 170.4,173.8 L 170.1,173.7 L 170.0,173.6 L 169.8,173.5 L 168.1,173.1 L 167.0,172.5 L 166.0,172.3 L 163.1,172.0 L 161.9,172.0 L 160.4,172.3 L 159.6,172.5 L 159.0,172.8 L 158.8,172.9 L 158.6,173.0 L 158.3,173.1 L 156.2,173.9 L 155.6,174.3 L 155.2,174.4 L 155.0,174.5 L 154.5,174.8 L 153.9,175.0 L 153.2,175.4 L 153.1,175.6 L 152.8,175.9 L 152.6,176.3 L 152.5,176.6 L 152.1,177.1 L 151.7,177.5 L 151.7,177.9 L 151.4,178.2 L 151.3,178.4 L 150.9,178.6 L 150.6,178.9 L 150.5,179.3 L 149.5,180.0 L 149.3,180.3 L 148.8,180.7 L 148.2,181.0 L 148.1,181.2 L 146.8,182.1 L 145.8,182.5 L 145.2,182.9 L 144.6,183.3 L 143.3,184.5 L 143.0,184.6 L 141.8,185.6 L 141.3,186.2 L 140.9,186.9 L 140.5,187.9 L 140.3,188.3 L 139.8,188.6 L 139.8,188.8 L 139.6,189.3 L 139.5,189.8 L 139.3,189.9 L 139.2,190.0 L 139.3,190.3 L 139.3,190.5 L 138.9,190.9 L 137.7,192.4 L 137.5,192.7 L 137.4,192.9 L 136.9,193.3 L 136.4,193.9 L 136.3,194.5 L 135.8,195.2 L 135.7,195.7 L 135.6,195.7 L 135.3,196.1 L 134.5,196.7 L 134.0,197.1 L 133.7,197.5 L 133.4,197.8 L 133.0,198.0 L 132.5,198.5 L 132.4,198.6 L 132.5,198.8 L 133.0,198.9 L 132.9,199.3 L 133.1,199.7 L 133.1,200.2 L 132.7,200.9 L 132.6,201.1 L 132.1,202.0 L 131.5,202.9 L 130.8,204.0 L 130.2,205.0 L 130.1,205.2 L 130.0,205.5 L 129.7,206.1 L 129.7,206.2 L 129.0,206.8 L 128.7,207.0 L 128.0,207.4 L 127.7,207.4 L 127.5,207.5 L 127.1,207.8 L 126.8,208.1 L 125.8,208.6 L 125.4,208.9 L 124.7,209.8 L 124.3,210.1 L 123.7,210.5 L 123.1,210.9 L 122.8,211.1 L 121.7,211.5 L 121.7,211.5 L 121.5,211.5 L 120.7,211.4 L 120.6,211.4 L 120.1,211.3 L 119.7,211.5 L 119.5,211.6 L 119.1,211.5 L 118.5,211.8 L 117.6,211.8 L 117.4,212.1 L 117.2,212.6 L 117.1,212.9 L 116.6,213.2 L 116.1,213.6 L 115.6,214.1 L 115.4,214.3 L 114.6,214.9 L 113.7,215.0 L 113.3,215.4 L 113.0,216.1 L 112.7,216.3 L 112.4,216.4 L 111.7,216.4 L 111.1,216.6 L 111.0,216.6 L 110.7,216.9 L 110.4,217.0 L 110.2,217.2 L 109.9,217.5 L 109.6,217.6 L 109.0,217.9 L 108.9,218.0 L 108.7,218.4 L 108.7,218.4 L 108.6,218.4 L 108.4,218.5 L 108.3,218.6 L 108.2,218.8 L 108.2,218.8 L 108.1,218.8 L 108.1,218.7 L 108.2,218.5 L 108.1,218.5 L 108.1,218.5 L 107.9,218.3 L 107.7,218.4 L 107.8,218.6 L 107.7,218.6 L 107.6,218.7 L 107.6,218.6 L 107.1,218.9 L 106.9,218.9 L 106.8,218.6 L 106.3,218.6 L 105.7,218.9 L 105.7,219.0 L 105.0,219.3 L 104.7,219.1 L 104.7,218.9 L 104.6,218.9 L 104.4,219.1 L 104.6,219.4 L 104.6,220.4 L 104.5,221.4 L 104.4,221.6 L 104.3,222.1 L 103.8,222.6 L 103.5,223.1 L 103.1,223.5 L 103.0,223.9 L 102.6,224.5 L 102.3,224.9 L 102.1,225.7 L 101.8,226.4 L 101.8,226.4 L 101.7,227.1 L 101.6,227.3 L 100.7,228.3 L 100.5,228.6 L 100.2,228.7 L 99.2,229.3 L 95.9,229.4 L 94.9,229.5 L 93.8,229.7 L 93.4,229.7 L 92.9,229.8 L 92.4,229.8 L 91.5,229.5 L 91.2,229.2 L 90.6,229.1 L 90.4,229.0 L 89.5,228.8 L 89.0,228.9 L 88.6,229.0 L 87.8,229.1 L 87.7,229.1 L 87.0,229.4 L 86.2,229.5 L 85.4,230.1 L 85.3,230.3 L 85.1,230.5 L 84.9,230.7 L 84.7,230.8 L 84.5,230.8 L 84.4,231.0 L 83.9,231.3 L 83.5,231.9 L 83.3,232.4 L 82.9,232.8 L 82.8,233.5 L 82.6,233.8 L 81.6,235.7 L 81.2,235.9 L 80.9,235.9 L 80.7,235.9 L 80.4,236.1 L 80.3,236.2 L 79.5,236.9 L 79.5,236.9 L 78.9,237.6 L 78.8,237.8 L 78.6,238.1 L 78.5,238.7 L 78.4,238.9 L 78.1,239.3 L 78.0,239.5 L 78.1,240.0 L 78.0,240.6 L 78.2,240.8 L 78.4,240.8 L 78.5,241.1 L 78.5,241.3 L 78.5,241.6 L 78.5,241.6 L 78.4,242.0 L 78.1,242.5 L 78.1,242.7 L 78.0,243.3 L 78.0,243.4 L 77.5,244.1 L 77.5,244.3 L 77.4,244.9 L 77.3,245.7 L 77.0,246.6 L 76.6,247.2 L 76.6,247.2 L 76.6,247.3 L 76.6,247.4 L 76.4,248.1 L 76.1,248.5 L 76.0,248.6 L 76.0,249.0 L 75.8,249.5 L 75.6,250.5 L 75.4,250.6 L 75.1,251.0 L 75.0,251.5 L 74.6,251.9 L 74.3,252.1 L 74.0,252.3 L 73.3,253.2 L 72.5,254.3 L 72.3,254.7 L 72.0,255.2 L 71.5,256.3 L 70.7,257.3 L 70.5,257.6 L 70.2,258.1 L 69.4,259.2 L 69.4,259.9 L 69.4,259.9 L 69.2,260.3 L 43.7,233.0 L 40.1,229.2" fill="none" stroke="black" stroke-width="2"/>
</svg>