<?xml version="1.0" encoding="UTF-8"?>
<svg width="400" height="400" viewBox="0 0 400 400" xmlns="http://www.w3.org/2000/svg">
  <rect width="400" height="400" fill="white"/>
  <path d="M 120.6,152.0 L 200.5,40.4 L 200.8,40.0 L 201.3,41.3 L 202.7,43.0 L 205.2,43.8 L 206.7,45.0 L 208.1,45.4 L 209.4,44.6 L 210.7,45.5 L 211.6,49.7 L 212.8,51.1 L 213.0,51.3 L 213.7,53.2 L 212.7,54.6 L 215.9,58.8 L 218.6,58.5 L 219.7,57.5 L 221.5,54.8 L 222.7,55.0 L 224.9,57.2 L 224.7,59.1 L 225.7,60.2 L 227.1,60.8 L 230.1,59.8 L 230.7,60.8 L 229.1,63.1 L 224.8,67.2 L 222.2,68.9 L 221.7,70.3 L 222.7,74.9 L 225.2,79.3 L 225.1,80.1 L 220.9,85.8 L 220.2,91.2 L 220.4,94.8 L 219.4,97.0 L 218.4,103.8 L 219.1,107.7 L 220.4,110.2 L 220.4,118.7 L 219.6,120.6 L 219.6,121.3 L 220.0,122.8 L 221.0,123.9 L 222.1,127.1 L 222.9,129.5 L 224.5,131.5 L 223.5,132.1 L 222.3,133.6 L 221.8,135.6 L 226.6,138.7 L 227.9,141.2 L 229.6,142.8 L 232.5,144.4 L 234.5,145.2 L 235.7,146.8 L 236.4,150.0 L 237.3,150.6 L 237.4,151.6 L 235.2,152.2 L 233.5,153.4 L 233.8,155.1 L 234.6,156.4 L 239.1,159.8 L 244.1,161.0 L 245.9,163.4 L 246.1,165.6 L 247.0,167.6 L 246.8,170.6 L 245.0,173.5 L 243.9,176.4 L 245.1,179.5 L 245.1,181.3 L 244.2,184.1 L 245.2,187.5 L 245.4,189.5 L 246.2,191.7 L 248.9,193.5 L 248.7,194.7 L 247.8,195.8 L 253.1,201.4 L 254.4,202.6 L 258.5,203.9 L 260.6,207.7 L 263.4,207.9 L 265.8,209.2 L 267.7,209.2 L 269.5,208.2 L 274.2,208.7 L 274.4,209.2 L 273.6,211.4 L 273.2,214.5 L 274.9,217.6 L 276.1,219.1 L 278.1,219.7 L 279.0,220.5 L 279.4,221.8 L 277.8,224.5 L 271.7,234.5 L 271.1,234.6 L 268.6,236.9 L 268.2,238.7 L 268.4,240.0 L 264.1,247.0 L 263.2,248.5 L 263.2,248.4 L 257.4,248.9 L 255.3,247.5 L 253.0,248.9 L 248.4,249.5 L 246.4,249.7 L 241.4,251.4 L 241.0,252.7 L 238.9,254.1 L 238.2,255.4 L 239.6,258.0 L 238.7,258.8 L 233.3,258.5 L 229.6,259.5 L 226.2,261.3 L 222.8,263.9 L 222.4,265.5 L 223.8,267.4 L 223.0,268.2 L 222.5,269.3 L 223.1,271.5 L 226.0,275.3 L 225.7,277.0 L 225.4,277.8 L 226.7,280.2 L 226.0,281.4 L 225.9,285.7 L 226.7,288.5 L 225.8,289.7 L 227.3,296.1 L 231.6,306.2 L 232.6,307.5 L 235.5,310.3 L 237.4,314.4 L 237.2,315.2 L 239.7,316.1 L 239.2,318.4 L 239.0,324.6 L 240.2,327.4 L 239.4,328.6 L 239.9,330.4 L 242.5,333.6 L 244.2,336.9 L 244.2,337.3 L 244.2,341.7 L 245.2,344.6 L 246.9,349.0 L 247.5,352.1 L 249.1,357.1 L 249.0,358.3 L 247.8,360.0 L 246.9,359.4 L 246.1,356.9 L 244.8,356.2 L 242.9,356.4 L 241.7,359.6 L 240.2,359.7 L 239.0,358.1 L 237.7,354.4 L 236.1,351.8 L 233.2,350.2 L 232.3,350.3 L 231.1,350.3 L 229.8,349.2 L 229.6,347.8 L 230.5,339.5 L 228.3,336.6 L 227.2,335.7 L 226.1,334.9 L 223.1,334.5 L 222.1,335.2 L 222.0,335.3 L 221.2,336.6 L 221.3,339.6 L 220.6,341.0 L 219.3,341.7 L 217.6,341.7 L 216.8,340.9 L 216.2,334.7 L 215.7,330.1 L 215.1,327.6 L 214.8,324.8 L 215.2,319.8 L 211.9,317.4 L 210.3,315.8 L 208.4,314.4 L 207.0,312.3 L 206.6,310.1 L 207.2,304.4 L 206.0,301.4 L 206.0,299.3 L 205.1,297.1 L 205.3,292.4 L 204.0,289.8 L 202.1,287.8 L 195.9,286.2 L 192.9,286.5 L 191.0,286.1 L 190.0,284.7 L 189.2,280.1 L 187.8,278.2 L 182.1,275.0 L 177.5,274.2 L 178.1,271.2 L 179.1,269.2 L 180.5,264.1 L 180.5,260.8 L 181.7,255.3 L 182.1,251.5 L 181.3,248.3 L 177.5,246.4 L 177.5,246.3 L 174.7,242.9 L 173.4,238.9 L 172.5,236.5 L 169.8,233.7 L 162.1,228.1 L 159.3,225.6 L 155.7,223.0 L 152.7,220.1 L 151.7,218.8 L 150.4,215.1 L 148.8,212.2 L 146.2,209.1 L 146.1,206.7 L 139.4,193.6 L 136.8,191.8 L 137.3,188.0 L 138.2,184.4 L 137.2,182.2 L 132.3,173.4 L 132.8,169.7 L 130.7,167.7 L 129.1,167.0 L 128.7,165.2 L 128.5,162.4 L 127.0,159.8 L 120.6,152.0" fill="none" stroke="black" stroke-width="2"/>
</svg>