<?xml version="1.0" encoding="UTF-8"?>
<svg width="400" height="400" viewBox="0 0 400 400" xmlns="http://www.w3.org/2000/svg">
  <rect width="400" height="400" fill="white"/>
  <path d="M 145.1,282.7 L 147.7,280.8 L 149.6,279.9 L 150.5,276.7 L 151.9,273.7 L 153.9,271.2 L 154.8,269.7 L 155.3,269.3 L 156.3,268.4 L 156.8,266.1 L 159.0,264.9 L 160.0,263.9 L 160.2,262.3 L 159.6,261.6 L 159.8,259.4 L 158.8,259.1 L 158.5,255.2 L 159.9,252.7 L 159.9,251.7 L 158.4,250.4 L 156.0,250.3 L 155.9,247.7 L 155.1,244.8 L 151.8,244.4 L 150.4,244.6 L 146.9,246.5 L 146.2,245.6 L 146.5,244.6 L 148.0,243.8 L 149.0,243.4 L 148.9,242.7 L 148.1,241.6 L 148.7,239.7 L 148.5,239.2 L 146.4,238.8 L 145.4,238.4 L 143.7,238.4 L 142.7,236.5 L 143.3,232.4 L 140.6,231.3 L 140.7,228.5 L 139.4,226.4 L 136.6,225.0 L 135.0,224.6 L 134.5,224.4 L 134.8,222.4 L 134.2,221.6 L 133.0,218.8 L 131.1,216.9 L 129.4,215.8 L 124.8,214.3 L 121.3,213.4 L 115.8,212.6 L 114.3,213.0 L 111.5,214.7 L 109.6,214.7 L 108.7,214.8 L 103.0,217.6 L 99.7,220.8 L 99.3,222.0 L 100.2,222.9 L 101.8,223.4 L 101.9,223.8 L 100.1,224.8 L 98.1,225.0 L 95.2,226.0 L 95.0,224.9 L 95.3,223.4 L 94.7,222.7 L 91.6,221.4 L 89.0,220.9 L 87.6,221.3 L 85.7,221.3 L 81.4,222.3 L 79.6,222.3 L 75.1,225.0 L 74.1,226.7 L 73.4,229.3 L 72.3,229.5 L 70.9,228.5 L 70.4,227.5 L 70.6,224.7 L 70.1,223.6 L 68.6,222.2 L 68.0,221.3 L 67.4,217.7 L 67.4,216.3 L 65.7,215.2 L 64.0,214.7 L 63.0,215.4 L 62.7,216.4 L 61.8,216.6 L 59.8,214.4 L 58.9,212.1 L 58.0,211.1 L 52.9,209.0 L 51.6,207.9 L 48.8,203.6 L 47.6,202.8 L 45.3,197.4 L 44.4,196.6 L 42.5,196.2 L 40.0,194.5 L 40.6,193.4 L 43.7,188.4 L 43.7,188.6 L 44.4,189.2 L 49.4,188.5 L 49.6,186.0 L 49.5,185.5 L 46.6,184.4 L 46.0,184.5 L 50.3,177.5 L 51.5,175.5 L 51.7,176.0 L 52.5,177.2 L 54.0,177.6 L 54.6,179.2 L 55.8,180.3 L 58.3,180.5 L 61.0,180.4 L 63.5,179.2 L 65.5,177.6 L 67.6,174.4 L 70.8,170.7 L 71.9,170.0 L 72.7,170.2 L 72.7,171.4 L 73.3,172.0 L 75.2,172.8 L 76.1,173.6 L 76.5,174.3 L 77.5,174.4 L 79.7,172.2 L 80.1,172.7 L 79.6,173.5 L 78.4,174.9 L 77.8,177.0 L 78.4,177.8 L 79.8,178.3 L 87.1,179.2 L 88.0,178.8 L 88.2,177.5 L 87.0,175.0 L 87.6,174.3 L 88.3,174.6 L 88.5,176.3 L 91.6,179.8 L 93.1,179.8 L 97.6,178.8 L 100.6,178.9 L 102.7,178.3 L 104.6,178.2 L 105.5,178.9 L 107.4,179.0 L 109.4,177.7 L 111.1,176.5 L 112.1,176.1 L 112.9,175.4 L 113.6,174.1 L 114.3,173.9 L 115.2,174.2 L 117.1,174.3 L 121.3,173.3 L 125.4,170.5 L 128.5,168.8 L 130.4,167.2 L 131.4,165.0 L 132.6,163.8 L 137.2,164.5 L 141.8,162.9 L 144.2,161.4 L 145.7,157.5 L 144.1,154.8 L 144.8,151.0 L 145.3,150.1 L 146.4,149.7 L 149.2,149.8 L 150.5,149.1 L 151.2,147.6 L 152.3,146.2 L 152.4,145.0 L 151.2,143.3 L 151.0,141.9 L 151.8,141.1 L 150.8,139.9 L 151.3,135.8 L 151.7,135.3 L 154.4,133.5 L 157.2,128.8 L 158.3,127.2 L 161.9,122.7 L 162.1,121.1 L 163.4,119.3 L 167.4,116.3 L 168.1,113.8 L 171.0,110.7 L 172.0,108.6 L 172.3,97.7 L 172.2,95.2 L 172.2,94.7 L 173.5,92.9 L 176.6,90.0 L 178.1,87.6 L 178.4,84.2 L 178.3,82.4 L 178.8,80.5 L 181.7,74.3 L 184.3,70.8 L 185.2,69.6 L 187.1,65.4 L 188.4,58.7 L 190.5,53.0 L 191.8,50.5 L 192.4,49.5 L 193.5,48.1 L 194.6,47.2 L 196.0,46.8 L 199.3,47.3 L 201.1,48.4 L 202.5,48.4 L 204.2,47.2 L 204.7,47.2 L 205.6,48.0 L 206.7,47.3 L 207.0,45.7 L 209.9,43.5 L 212.1,42.3 L 213.6,41.1 L 215.9,41.9 L 218.0,42.2 L 218.3,42.4 L 218.8,42.5 L 219.0,43.2 L 218.7,45.8 L 217.3,48.6 L 217.4,50.6 L 218.3,52.0 L 219.3,52.3 L 222.3,49.1 L 222.9,48.9 L 223.3,49.6 L 222.7,51.3 L 220.7,53.5 L 220.9,54.2 L 220.6,56.0 L 220.8,57.4 L 223.0,57.0 L 223.7,57.1 L 223.8,57.5 L 223.2,58.2 L 222.9,59.4 L 223.0,62.1 L 222.7,67.4 L 220.8,74.1 L 219.5,78.5 L 219.7,80.6 L 221.9,82.0 L 222.9,84.1 L 223.2,86.0 L 223.7,87.1 L 223.8,89.8 L 223.3,90.9 L 223.4,94.0 L 225.5,94.8 L 223.9,96.2 L 223.3,96.2 L 217.3,102.2 L 217.4,102.9 L 218.7,103.5 L 219.0,104.1 L 219.8,104.9 L 220.4,105.0 L 219.8,107.1 L 216.4,111.6 L 215.3,112.4 L 213.7,112.7 L 211.8,114.2 L 211.5,116.1 L 212.4,117.0 L 206.8,122.0 L 206.6,123.3 L 207.4,125.4 L 208.9,127.8 L 209.9,132.5 L 210.6,133.5 L 212.1,133.5 L 214.9,131.7 L 215.9,131.5 L 216.7,132.1 L 216.4,134.3 L 215.3,135.1 L 214.7,136.1 L 215.2,137.0 L 215.9,137.4 L 218.8,137.5 L 221.0,136.6 L 222.6,136.7 L 223.4,137.1 L 222.8,138.0 L 220.3,140.1 L 215.3,144.6 L 214.7,146.5 L 214.9,148.9 L 216.5,150.3 L 217.8,150.6 L 218.8,151.3 L 218.3,151.6 L 216.2,151.3 L 214.4,153.0 L 214.0,155.0 L 213.1,156.2 L 213.5,157.1 L 216.8,159.1 L 216.7,161.1 L 217.6,161.4 L 219.9,159.9 L 220.5,160.3 L 220.4,161.1 L 218.3,163.0 L 218.0,164.0 L 218.4,164.7 L 220.6,164.5 L 223.3,163.1 L 226.7,160.8 L 227.9,159.1 L 227.9,156.8 L 228.8,155.2 L 229.0,154.1 L 228.5,152.5 L 229.8,151.5 L 233.2,151.6 L 238.8,153.2 L 246.3,154.0 L 248.1,153.5 L 258.7,146.1 L 260.8,144.4 L 262.5,143.9 L 263.1,143.7 L 264.5,142.0 L 265.2,141.6 L 268.0,141.3 L 269.5,140.3 L 276.6,134.3 L 281.6,131.8 L 283.8,130.2 L 286.1,125.0 L 286.9,124.1 L 288.4,123.3 L 290.6,122.8 L 291.1,122.3 L 295.4,120.0 L 295.9,118.8 L 298.2,117.1 L 298.0,115.7 L 298.4,114.3 L 300.7,111.1 L 302.2,109.9 L 303.4,109.7 L 304.5,108.9 L 305.7,106.5 L 308.4,104.0 L 313.1,101.5 L 314.5,100.5 L 319.1,96.1 L 320.1,93.7 L 321.2,92.4 L 321.7,90.1 L 328.3,85.9 L 328.8,84.0 L 329.1,82.8 L 330.0,81.3 L 330.5,80.0 L 332.7,78.8 L 335.8,76.2 L 338.4,73.2 L 340.1,70.2 L 343.1,64.9 L 345.0,62.0 L 347.2,59.3 L 348.1,57.6 L 349.8,56.6 L 350.4,57.0 L 350.9,58.1 L 349.9,59.7 L 349.5,61.0 L 350.1,62.0 L 352.2,62.3 L 352.3,64.2 L 353.0,65.0 L 354.0,64.8 L 355.5,63.8 L 357.0,60.3 L 358.7,59.2 L 359.5,59.5 L 359.5,61.0 L 358.0,61.5 L 356.9,63.7 L 356.5,66.0 L 357.0,67.5 L 358.2,68.5 L 358.4,69.3 L 357.6,69.4 L 356.8,70.4 L 356.8,72.6 L 358.3,74.8 L 359.3,75.5 L 360.0,76.4 L 359.4,77.0 L 356.9,76.8 L 353.8,79.4 L 346.0,85.6 L 344.0,87.1 L 338.4,91.7 L 337.3,93.9 L 331.7,97.9 L 326.9,101.9 L 324.5,104.5 L 323.8,106.0 L 320.9,108.5 L 320.1,112.1 L 317.9,114.5 L 312.8,118.3 L 312.2,120.1 L 311.0,121.6 L 310.4,124.6 L 307.3,126.3 L 305.8,128.4 L 303.6,129.8 L 303.8,128.3 L 302.0,128.1 L 298.8,129.8 L 296.4,131.9 L 295.5,138.4 L 296.0,139.9 L 296.9,140.7 L 297.0,141.8 L 296.4,142.6 L 292.5,144.4 L 290.4,145.0 L 287.6,147.1 L 287.1,148.0 L 285.8,148.5 L 284.7,149.2 L 284.2,150.5 L 282.2,151.2 L 280.7,152.6 L 280.4,153.7 L 280.8,154.4 L 280.3,155.3 L 280.1,156.7 L 280.9,157.3 L 276.8,161.4 L 275.2,162.9 L 274.9,164.7 L 275.9,166.4 L 275.2,167.9 L 275.6,168.5 L 277.0,167.9 L 278.2,166.5 L 279.2,166.8 L 279.5,167.2 L 280.4,167.0 L 283.2,169.5 L 284.4,169.6 L 285.6,169.9 L 284.2,170.7 L 282.7,172.4 L 282.5,177.6 L 279.7,180.5 L 274.4,185.7 L 273.5,187.1 L 270.6,189.7 L 266.4,195.0 L 266.2,196.0 L 266.9,196.9 L 268.0,196.4 L 268.7,195.2 L 269.4,194.6 L 270.2,194.9 L 270.1,195.9 L 269.2,196.6 L 269.4,197.8 L 270.1,198.8 L 271.4,198.8 L 272.8,198.1 L 273.5,198.0 L 275.5,197.0 L 276.6,195.4 L 277.3,195.3 L 277.1,196.2 L 276.2,196.9 L 274.6,198.0 L 273.4,198.5 L 272.0,199.3 L 267.3,200.7 L 261.5,203.5 L 260.2,203.8 L 259.0,204.3 L 258.2,205.2 L 258.7,206.2 L 258.1,206.9 L 256.2,207.6 L 255.7,209.0 L 252.0,211.1 L 252.0,211.9 L 254.1,212.5 L 256.3,212.7 L 259.4,209.7 L 261.1,209.6 L 262.4,209.9 L 264.3,211.0 L 265.0,211.8 L 266.1,212.4 L 266.2,213.0 L 261.2,217.1 L 259.8,218.9 L 257.0,221.0 L 255.6,221.4 L 250.0,226.1 L 241.7,232.2 L 235.9,237.1 L 236.0,238.1 L 235.1,239.0 L 234.9,240.5 L 235.5,242.3 L 236.7,243.3 L 237.1,244.8 L 236.6,245.5 L 236.0,246.9 L 236.8,248.5 L 236.2,249.1 L 236.1,249.8 L 237.0,250.9 L 238.2,251.6 L 240.1,254.0 L 241.3,254.7 L 242.2,255.5 L 241.3,256.2 L 241.6,257.6 L 241.2,258.1 L 239.4,256.6 L 238.1,255.4 L 236.6,255.0 L 234.5,256.1 L 234.2,257.2 L 233.2,257.4 L 232.1,256.8 L 230.8,256.6 L 229.7,257.4 L 230.9,258.8 L 231.0,259.5 L 230.3,259.7 L 226.6,257.5 L 224.1,257.2 L 221.8,257.7 L 219.0,257.8 L 215.8,258.7 L 209.2,261.5 L 206.7,263.2 L 206.3,264.1 L 206.7,264.8 L 208.8,265.1 L 209.2,265.9 L 207.9,267.2 L 206.0,269.5 L 202.5,271.6 L 199.3,273.2 L 199.3,273.3 L 197.2,275.1 L 197.0,276.4 L 197.8,278.9 L 199.5,281.2 L 201.7,285.5 L 202.0,286.6 L 200.9,287.1 L 199.4,287.2 L 197.6,287.8 L 196.1,288.9 L 194.0,291.5 L 193.6,293.7 L 192.6,294.9 L 189.9,296.8 L 188.5,298.8 L 187.9,301.6 L 189.9,306.9 L 188.0,311.6 L 187.5,313.8 L 187.6,316.6 L 186.0,319.1 L 184.7,320.0 L 183.1,323.9 L 181.8,323.8 L 180.4,323.7 L 178.5,324.4 L 177.9,324.5 L 177.0,323.9 L 175.4,323.5 L 170.7,325.5 L 168.1,326.4 L 167.9,326.5 L 166.8,327.0 L 164.1,329.5 L 159.3,337.2 L 158.4,342.6 L 158.2,347.7 L 158.6,349.4 L 158.4,352.1 L 157.0,353.9 L 156.5,354.9 L 156.7,355.9 L 156.6,358.1 L 155.6,358.8 L 154.4,358.9 L 152.2,357.1 L 151.3,356.0 L 151.6,354.1 L 152.4,352.1 L 151.8,350.0 L 150.1,348.0 L 147.2,346.8 L 147.0,345.7 L 147.4,344.3 L 148.5,343.6 L 150.0,343.8 L 150.4,343.2 L 149.5,338.4 L 149.8,333.2 L 148.9,328.5 L 148.0,326.5 L 145.7,323.7 L 143.4,322.3 L 143.2,321.3 L 143.6,319.8 L 144.3,319.1 L 144.8,317.3 L 145.7,317.6 L 146.3,318.4 L 147.0,320.5 L 147.8,321.6 L 150.6,323.9 L 152.1,323.1 L 154.0,321.4 L 155.1,319.6 L 154.8,316.2 L 153.3,315.3 L 152.6,313.9 L 152.9,312.9 L 156.6,309.7 L 158.7,302.1 L 158.5,297.5 L 158.0,294.6 L 158.9,287.3 L 158.5,286.7 L 156.7,286.5 L 155.3,287.3 L 154.3,287.5 L 153.1,286.6 L 152.7,286.1 L 153.0,285.4 L 155.8,283.1 L 156.4,281.9 L 157.3,281.0 L 157.4,279.7 L 156.8,279.3 L 153.8,279.3 L 150.7,280.9 L 147.5,282.0 L 145.2,283.4 L 145.1,282.7" fill="none" stroke="black" stroke-width="2"/>
</svg>