<?xml version="1.0" encoding="UTF-8"?>
<svg width="400" height="400" viewBox="0 0 400 400" xmlns="http://www.w3.org/2000/svg">
  <rect width="400" height="400" fill="white"/>
  <path d="M 144.2,359.8 L 145.0,343.8 L 148.6,274.3 L 150.9,234.3 L 157.2,124.8 L 158.8,97.5 L 162.1,40.0 L 176.4,40.7 L 203.1,42.0 L 203.0,42.6 L 203.1,42.9 L 203.6,42.9 L 203.8,42.0 L 204.7,42.1 L 204.7,42.1 L 204.4,42.3 L 203.8,42.7 L 203.5,43.1 L 203.5,44.1 L 204.2,45.0 L 204.3,45.2 L 204.0,45.5 L 203.9,46.2 L 203.8,46.2 L 203.6,46.0 L 203.3,45.9 L 203.0,46.3 L 202.6,47.7 L 202.6,48.1 L 202.3,49.0 L 202.3,50.3 L 202.1,50.7 L 202.2,51.4 L 202.4,51.6 L 202.3,52.5 L 202.6,52.8 L 202.3,53.1 L 202.2,53.6 L 201.6,53.8 L 201.5,54.3 L 201.9,54.5 L 201.8,55.7 L 202.0,56.4 L 201.7,57.2 L 202.3,58.5 L 202.2,58.9 L 202.2,59.4 L 202.1,60.5 L 202.3,61.2 L 202.8,61.9 L 203.3,62.0 L 203.4,62.3 L 203.7,62.4 L 204.0,62.3 L 204.8,62.2 L 204.7,62.6 L 204.2,63.1 L 204.2,63.4 L 204.4,64.1 L 204.9,64.9 L 205.6,66.0 L 205.8,66.2 L 206.5,67.1 L 207.1,67.8 L 207.3,68.0 L 207.6,68.3 L 208.5,69.1 L 209.1,69.7 L 209.5,70.1 L 209.5,70.7 L 210.1,70.9 L 210.7,71.4 L 210.8,71.6 L 210.4,71.8 L 209.5,71.5 L 209.1,71.9 L 208.9,72.0 L 208.1,71.3 L 207.4,70.3 L 207.5,69.8 L 207.9,69.4 L 207.9,69.0 L 207.7,68.6 L 207.0,67.9 L 206.9,67.8 L 206.2,67.6 L 205.8,67.8 L 205.6,68.4 L 205.3,68.5 L 205.1,68.2 L 205.0,67.9 L 204.8,67.7 L 204.5,67.2 L 204.1,66.5 L 204.1,66.2 L 202.7,65.0 L 202.2,64.9 L 201.8,64.6 L 201.2,64.5 L 201.0,64.6 L 200.5,65.1 L 200.2,65.4 L 199.8,64.5 L 199.4,64.4 L 199.1,64.7 L 198.8,66.2 L 199.1,66.8 L 199.2,67.3 L 199.4,67.8 L 199.7,67.9 L 200.4,67.7 L 201.0,68.3 L 201.4,68.4 L 201.6,68.8 L 201.5,69.6 L 201.2,69.9 L 200.9,69.9 L 200.5,69.3 L 199.1,68.2 L 198.6,67.9 L 197.8,67.7 L 197.5,68.0 L 197.4,68.3 L 197.7,68.6 L 197.9,69.3 L 198.5,69.4 L 198.8,69.6 L 199.0,70.1 L 198.9,71.0 L 199.2,71.2 L 199.6,71.2 L 200.1,70.8 L 200.5,70.5 L 200.7,70.6 L 200.9,70.8 L 201.1,70.9 L 201.3,71.0 L 201.4,71.4 L 202.1,72.9 L 201.9,73.0 L 201.6,72.8 L 201.5,72.5 L 201.3,72.6 L 201.1,73.5 L 201.0,73.9 L 200.4,75.6 L 200.2,76.5 L 200.2,77.2 L 200.4,77.7 L 201.0,78.5 L 201.7,78.7 L 201.8,78.9 L 201.2,79.4 L 201.1,79.7 L 202.2,80.4 L 202.2,81.0 L 202.4,81.4 L 202.9,81.8 L 203.7,81.8 L 203.9,81.6 L 203.6,81.2 L 203.9,81.2 L 204.9,81.2 L 205.3,80.8 L 205.3,80.4 L 205.1,80.1 L 205.3,79.9 L 205.8,79.6 L 206.5,79.0 L 206.5,78.0 L 207.8,77.6 L 207.9,77.8 L 207.6,78.1 L 207.1,78.6 L 207.2,79.3 L 206.9,80.3 L 207.0,80.8 L 207.3,81.0 L 208.0,81.1 L 208.7,80.7 L 209.2,80.3 L 209.5,80.6 L 209.7,80.6 L 210.1,80.4 L 210.0,79.6 L 209.9,79.2 L 210.0,79.4 L 210.6,79.8 L 211.2,80.0 L 212.0,80.1 L 212.8,79.5 L 213.5,78.5 L 214.4,78.6 L 215.8,78.1 L 216.3,78.0 L 216.8,77.8 L 217.1,77.4 L 217.1,77.1 L 216.8,76.8 L 216.6,76.7 L 216.7,76.5 L 217.0,76.6 L 217.4,76.7 L 217.6,76.7 L 218.1,76.7 L 218.6,76.5 L 219.1,76.4 L 219.6,76.1 L 220.1,76.1 L 220.2,76.1 L 220.8,75.7 L 221.8,75.5 L 222.0,75.6 L 221.8,76.1 L 220.9,76.8 L 220.8,77.2 L 221.4,77.9 L 223.8,79.3 L 224.3,79.3 L 227.2,77.1 L 227.5,77.0 L 227.9,76.5 L 228.2,76.1 L 228.5,76.1 L 229.0,75.6 L 229.5,75.3 L 229.8,74.8 L 230.2,74.2 L 230.7,74.2 L 230.9,74.0 L 231.0,73.4 L 230.7,73.1 L 230.3,73.0 L 229.5,73.3 L 229.1,73.2 L 229.0,73.0 L 229.4,72.7 L 230.4,72.5 L 231.1,72.1 L 231.2,71.8 L 231.6,71.9 L 232.6,71.7 L 234.6,70.9 L 234.9,70.2 L 235.6,70.3 L 235.6,69.8 L 235.5,69.4 L 235.8,69.3 L 236.0,69.4 L 236.1,69.6 L 236.5,69.9 L 236.9,69.8 L 237.1,69.5 L 237.7,69.7 L 238.0,69.7 L 238.5,69.1 L 238.8,69.3 L 239.1,69.4 L 239.5,69.2 L 240.4,68.6 L 240.8,68.1 L 241.0,67.5 L 241.4,67.4 L 241.8,67.2 L 241.8,67.2 L 249.5,71.7 L 249.4,71.8 L 249.4,72.0 L 249.5,72.3 L 249.6,72.3 L 249.7,72.3 L 250.1,72.0 L 250.3,72.2 L 250.3,72.3 L 250.3,72.4 L 250.2,72.4 L 250.1,72.8 L 250.0,73.2 L 249.8,73.6 L 249.7,73.8 L 249.8,74.1 L 249.6,74.5 L 249.5,74.9 L 249.5,75.3 L 249.6,75.7 L 249.7,76.0 L 249.7,76.3 L 249.7,76.4 L 249.4,76.6 L 249.0,76.8 L 248.7,76.8 L 248.5,77.0 L 248.3,76.9 L 248.2,76.7 L 248.2,76.3 L 248.2,76.3 L 248.0,76.3 L 248.0,76.1 L 247.7,76.1 L 247.5,75.8 L 247.2,75.6 L 247.1,75.6 L 246.9,75.6 L 246.6,75.8 L 246.3,75.8 L 246.2,75.7 L 246.2,75.3 L 246.2,75.2 L 246.0,75.1 L 245.7,75.0 L 245.4,75.0 L 245.2,75.2 L 244.9,75.5 L 244.7,75.9 L 244.6,76.3 L 244.6,76.8 L 244.6,76.9 L 244.8,77.0 L 244.9,77.1 L 245.1,76.9 L 245.2,77.0 L 245.0,77.4 L 244.8,77.7 L 244.7,78.0 L 244.9,78.4 L 245.1,78.7 L 245.2,78.8 L 245.5,79.0 L 245.8,79.3 L 246.2,79.6 L 246.5,79.7 L 246.8,79.5 L 247.0,79.4 L 247.2,79.4 L 247.4,79.7 L 247.4,79.7 L 247.7,79.6 L 247.8,79.4 L 248.0,79.5 L 248.2,79.3 L 248.3,79.3 L 248.3,79.1 L 248.3,79.1 L 248.5,79.2 L 248.5,78.9 L 248.3,78.9 L 248.3,78.9 L 248.3,78.8 L 248.4,78.4 L 248.5,78.2 L 248.9,78.0 L 249.1,77.7 L 249.4,77.5 L 249.6,77.6 L 249.6,77.6 L 249.7,77.7 L 249.5,78.1 L 249.4,78.4 L 249.4,78.6 L 249.5,78.7 L 249.4,79.1 L 249.3,79.3 L 249.3,79.4 L 249.4,79.7 L 249.6,79.8 L 249.8,79.8 L 250.0,79.9 L 250.0,80.1 L 250.1,80.5 L 250.3,80.6 L 250.5,80.8 L 250.6,81.2 L 250.7,81.6 L 250.6,81.7 L 250.7,82.0 L 251.0,82.2 L 251.1,82.6 L 251.1,83.0 L 251.1,83.2 L 251.0,83.2 L 250.9,83.4 L 251.1,83.8 L 251.1,84.0 L 251.2,84.2 L 251.3,84.2 L 251.4,84.2 L 251.5,84.4 L 251.7,84.5 L 251.9,84.5 L 252.0,84.8 L 252.2,84.9 L 252.1,85.4 L 251.8,85.7 L 251.8,86.0 L 251.7,86.3 L 251.8,86.7 L 252.1,87.0 L 252.3,87.3 L 252.7,87.5 L 252.8,87.5 L 253.1,87.8 L 253.3,88.0 L 253.6,88.2 L 253.9,88.5 L 254.2,88.7 L 254.5,88.9 L 254.9,89.0 L 255.2,88.9 L 255.4,88.9 L 255.6,89.0 L 255.7,89.2 L 255.6,89.6 L 255.5,89.9 L 255.5,90.0 L 255.3,90.2 L 255.2,90.3 L 254.9,90.3 L 254.9,90.4 L 254.5,90.7 L 254.3,90.7 L 254.2,90.6 L 253.9,90.3 L 253.6,90.2 L 253.1,90.1 L 253.1,90.1 L 253.0,90.5 L 252.9,90.8 L 252.8,91.1 L 252.8,91.5 L 252.8,91.6 L 252.8,92.0 L 252.8,92.2 L 253.0,92.4 L 252.9,92.8 L 252.7,93.1 L 252.5,93.2 L 252.4,93.5 L 252.2,93.9 L 252.1,94.1 L 252.1,94.3 L 252.0,94.4 L 252.0,94.7 L 247.9,93.3 L 248.1,92.9 L 248.6,91.5 L 248.9,89.6 L 249.1,88.6 L 249.2,87.8 L 248.8,87.3 L 248.1,86.6 L 248.0,86.2 L 248.3,85.8 L 249.1,85.5 L 249.0,85.2 L 248.0,84.6 L 247.8,84.3 L 247.9,84.1 L 248.3,83.7 L 248.2,83.6 L 247.9,83.4 L 247.7,83.1 L 247.5,82.8 L 247.3,82.6 L 246.9,82.3 L 246.6,82.1 L 246.4,82.1 L 246.1,81.9 L 245.9,81.6 L 245.8,81.3 L 245.6,81.0 L 245.3,80.7 L 245.0,80.4 L 244.9,80.3 L 244.8,80.1 L 244.5,79.8 L 244.3,79.6 L 244.2,79.3 L 244.0,78.9 L 243.8,78.6 L 243.5,78.4 L 243.2,78.1 L 243.0,77.8 L 242.7,77.6 L 242.4,77.4 L 242.2,77.3 L 240.9,76.8 L 240.1,77.0 L 239.9,76.6 L 239.5,76.7 L 239.2,77.0 L 238.9,78.4 L 237.5,78.1 L 237.1,78.3 L 236.0,79.2 L 236.0,79.5 L 236.6,79.8 L 237.1,79.6 L 237.6,79.5 L 237.6,79.8 L 237.4,80.4 L 236.7,81.6 L 237.0,81.8 L 237.2,82.0 L 237.4,82.2 L 237.4,82.4 L 237.1,83.0 L 237.0,83.8 L 236.8,84.9 L 237.1,85.3 L 237.4,85.5 L 237.7,85.9 L 237.8,87.5 L 237.5,87.7 L 237.8,88.6 L 238.0,88.9 L 238.9,89.5 L 239.6,90.1 L 239.8,90.6 L 239.6,90.8 L 238.9,90.7 L 237.1,89.8 L 236.6,89.4 L 236.6,88.9 L 236.5,88.6 L 235.9,88.6 L 235.2,89.0 L 234.8,89.5 L 234.9,89.7 L 235.4,90.1 L 235.2,90.5 L 235.6,90.9 L 235.4,91.7 L 235.5,92.4 L 235.8,93.2 L 235.7,93.8 L 235.6,94.0 L 235.1,93.8 L 234.7,94.0 L 234.3,94.0 L 234.0,93.6 L 234.0,92.7 L 233.6,92.6 L 232.9,91.3 L 232.8,90.8 L 232.9,90.1 L 232.7,89.7 L 232.8,89.4 L 232.6,89.1 L 232.1,88.7 L 231.7,88.8 L 231.1,88.1 L 230.5,88.0 L 230.3,88.3 L 230.5,88.6 L 230.4,88.9 L 230.1,88.9 L 229.5,88.0 L 229.2,87.9 L 228.5,88.0 L 228.0,88.2 L 227.9,88.7 L 228.4,89.4 L 228.2,89.7 L 228.0,90.4 L 227.9,90.7 L 227.6,89.9 L 227.4,89.8 L 227.2,89.9 L 226.4,90.5 L 226.3,91.0 L 226.5,91.5 L 227.1,91.7 L 227.0,92.2 L 226.7,92.2 L 226.2,92.4 L 225.9,92.2 L 225.1,92.1 L 224.2,92.4 L 224.0,92.6 L 223.9,92.9 L 224.2,93.3 L 224.0,93.5 L 224.4,93.9 L 224.2,94.3 L 224.4,94.5 L 224.3,94.8 L 224.1,94.8 L 223.8,94.9 L 223.5,94.4 L 222.9,94.3 L 222.7,94.5 L 222.6,94.9 L 223.0,95.3 L 223.4,95.7 L 223.6,95.8 L 223.9,95.6 L 224.1,96.1 L 224.7,96.9 L 225.6,97.6 L 226.2,97.5 L 226.5,97.7 L 226.9,97.6 L 227.4,98.0 L 227.6,97.8 L 227.5,97.5 L 227.2,96.9 L 227.3,96.7 L 227.5,96.8 L 227.8,97.2 L 228.0,97.2 L 228.2,97.5 L 228.2,97.9 L 228.5,98.2 L 228.6,98.1 L 228.9,98.1 L 229.1,98.5 L 228.4,99.6 L 228.3,100.4 L 227.5,100.9 L 227.3,101.2 L 227.2,101.4 L 226.7,100.7 L 226.5,100.6 L 226.1,100.8 L 225.8,101.3 L 226.2,101.9 L 226.6,102.3 L 227.0,102.4 L 227.2,102.5 L 222.1,107.1 L 222.0,107.2 L 221.9,107.1 L 222.0,106.8 L 222.3,106.6 L 222.2,106.4 L 221.9,106.2 L 221.9,106.0 L 222.1,105.8 L 221.7,104.9 L 221.4,104.7 L 221.5,104.3 L 221.3,104.0 L 221.0,103.8 L 221.2,103.6 L 221.2,103.5 L 221.0,103.4 L 221.1,102.6 L 220.9,102.3 L 220.3,102.2 L 220.2,102.0 L 220.1,101.7 L 219.4,101.8 L 219.4,102.1 L 218.8,102.6 L 218.8,103.7 L 218.6,103.8 L 218.1,102.7 L 218.0,102.7 L 217.7,102.5 L 217.5,102.3 L 217.0,102.2 L 216.7,102.5 L 216.6,103.9 L 217.2,104.2 L 216.8,104.5 L 216.0,104.6 L 215.8,105.0 L 215.3,105.5 L 215.2,106.0 L 215.3,106.1 L 215.3,106.5 L 215.2,106.9 L 215.0,108.2 L 215.3,108.8 L 215.6,109.1 L 215.6,109.3 L 215.0,109.4 L 215.0,109.6 L 215.4,110.1 L 215.9,110.3 L 216.6,110.2 L 216.6,110.7 L 216.7,111.2 L 216.9,111.5 L 217.2,111.8 L 216.9,112.1 L 216.7,112.2 L 216.6,112.5 L 216.8,112.6 L 217.1,112.7 L 217.8,112.2 L 217.9,112.0 L 218.3,111.9 L 218.8,111.8 L 219.1,112.1 L 218.9,112.3 L 218.0,112.3 L 217.9,112.4 L 217.8,113.5 L 217.7,113.6 L 217.3,113.2 L 217.1,113.0 L 217.0,113.4 L 216.7,113.5 L 216.5,113.6 L 216.2,114.1 L 216.4,114.4 L 216.2,114.8 L 216.6,115.0 L 217.0,115.2 L 217.2,115.4 L 217.3,115.6 L 217.0,116.0 L 216.7,116.8 L 216.9,117.5 L 216.6,117.6 L 216.4,117.2 L 216.1,116.8 L 215.1,116.7 L 214.9,116.8 L 214.6,117.3 L 214.3,118.5 L 213.8,118.4 L 212.8,119.4 L 212.7,119.9 L 212.7,120.4 L 213.1,121.0 L 213.6,121.1 L 214.2,121.8 L 214.7,121.7 L 214.9,123.1 L 215.3,123.0 L 215.9,122.6 L 216.2,122.4 L 216.5,121.7 L 217.5,120.9 L 217.6,120.3 L 218.8,119.4 L 219.4,119.2 L 220.4,119.6 L 220.4,119.7 L 219.9,120.1 L 219.6,120.7 L 219.6,121.2 L 219.9,121.5 L 220.5,121.5 L 221.2,121.1 L 221.6,120.4 L 222.1,120.1 L 222.1,119.5 L 221.2,119.5 L 221.7,118.9 L 222.0,118.6 L 222.9,118.3 L 223.6,119.4 L 223.6,119.4 L 223.8,119.6 L 223.7,120.1 L 222.8,120.9 L 222.3,121.5 L 221.0,121.8 L 220.4,122.1 L 220.3,122.4 L 219.1,122.6 L 218.8,123.0 L 216.8,124.6 L 216.2,125.0 L 216.0,125.3 L 215.9,125.7 L 216.4,126.5 L 216.5,126.8 L 215.5,127.4 L 215.5,127.5 L 214.9,128.0 L 214.8,128.7 L 215.1,129.2 L 215.3,129.2 L 215.7,129.4 L 215.9,129.8 L 215.6,129.9 L 215.2,130.3 L 215.2,130.4 L 215.0,131.3 L 214.8,131.6 L 214.6,132.2 L 214.7,133.7 L 214.7,134.3 L 214.8,134.6 L 214.9,134.8 L 215.4,135.2 L 215.6,135.7 L 215.4,136.6 L 215.4,137.1 L 215.7,137.6 L 216.0,137.7 L 216.5,137.4 L 216.8,137.3 L 216.6,137.9 L 217.0,138.4 L 217.3,138.4 L 217.9,138.1 L 218.4,137.6 L 218.8,137.4 L 218.9,136.7 L 219.8,135.1 L 219.9,135.0 L 220.2,134.7 L 220.5,134.8 L 221.5,134.1 L 221.9,134.2 L 222.2,134.7 L 222.4,134.9 L 222.1,135.6 L 221.9,135.8 L 221.4,136.1 L 221.2,136.4 L 220.6,137.0 L 220.5,137.3 L 220.9,137.5 L 220.8,137.9 L 220.2,138.4 L 220.1,138.6 L 218.8,139.9 L 218.7,140.8 L 218.4,141.1 L 218.5,141.4 L 218.4,142.0 L 218.4,142.5 L 218.9,143.9 L 218.9,144.2 L 218.7,144.3 L 217.9,143.8 L 217.4,143.5 L 216.6,143.0 L 216.2,143.1 L 216.3,142.4 L 215.8,142.3 L 215.6,142.2 L 215.3,142.4 L 214.7,142.2 L 214.4,142.4 L 214.4,142.8 L 214.5,143.2 L 214.8,143.4 L 215.0,144.2 L 215.3,145.0 L 215.3,145.8 L 215.6,146.1 L 215.8,146.8 L 215.9,147.5 L 216.1,148.5 L 216.2,149.2 L 216.5,149.6 L 216.5,150.4 L 216.7,150.6 L 217.0,150.9 L 217.0,151.3 L 216.6,152.4 L 216.7,153.1 L 217.6,154.6 L 218.4,155.4 L 218.6,156.2 L 218.9,156.5 L 219.4,156.8 L 220.3,156.9 L 220.7,157.4 L 220.9,158.1 L 220.8,158.6 L 220.3,159.1 L 220.4,159.2 L 220.0,161.3 L 219.9,161.8 L 220.0,162.1 L 219.9,162.8 L 219.8,163.0 L 219.7,164.4 L 219.8,165.0 L 220.3,165.3 L 220.3,165.5 L 220.6,166.0 L 221.1,166.7 L 221.9,166.8 L 222.5,167.4 L 223.3,167.9 L 223.8,167.7 L 224.0,167.8 L 224.1,168.0 L 224.2,168.7 L 224.4,169.0 L 225.1,169.2 L 225.1,169.5 L 224.3,170.3 L 224.7,172.8 L 224.5,173.0 L 224.0,173.0 L 223.7,173.0 L 223.3,173.6 L 223.1,174.6 L 222.3,175.3 L 221.4,176.5 L 220.3,177.5 L 219.9,177.1 L 220.0,176.7 L 220.4,176.8 L 220.5,176.6 L 220.5,176.3 L 220.3,176.0 L 220.4,175.5 L 220.4,175.3 L 220.0,174.9 L 219.8,175.0 L 219.6,175.4 L 219.3,175.7 L 219.1,175.1 L 218.9,175.3 L 218.5,175.3 L 217.9,174.7 L 217.2,174.2 L 216.9,174.4 L 216.6,174.9 L 215.9,177.7 L 216.0,178.4 L 216.5,179.3 L 216.4,179.6 L 216.1,180.5 L 215.9,180.7 L 215.6,181.4 L 215.5,182.4 L 215.3,182.7 L 215.4,183.1 L 214.9,184.3 L 214.8,184.7 L 214.9,184.9 L 215.3,185.0 L 215.3,185.7 L 215.2,186.3 L 215.8,186.9 L 216.0,187.4 L 216.2,187.3 L 216.5,187.7 L 216.5,188.3 L 216.8,188.3 L 217.0,188.5 L 217.3,188.5 L 217.6,188.4 L 217.9,188.5 L 218.1,188.7 L 218.5,188.6 L 218.7,188.7 L 219.0,188.7 L 219.1,188.5 L 219.0,188.2 L 219.4,188.2 L 219.5,188.0 L 220.2,188.1 L 220.3,187.9 L 220.6,187.1 L 220.8,187.2 L 220.9,187.6 L 221.4,188.3 L 221.9,188.7 L 222.3,188.9 L 223.3,188.7 L 223.4,188.6 L 223.7,188.7 L 223.7,188.8 L 223.8,189.0 L 224.1,189.5 L 224.7,189.9 L 224.7,190.5 L 224.5,190.9 L 224.2,191.0 L 223.6,190.8 L 223.3,191.0 L 223.1,191.7 L 223.1,192.6 L 223.4,193.6 L 223.6,193.7 L 223.5,193.7 L 221.8,194.4 L 221.9,194.1 L 221.7,193.9 L 221.9,193.3 L 221.9,193.0 L 221.1,193.0 L 220.8,193.3 L 220.5,193.3 L 219.8,192.2 L 219.5,192.0 L 220.2,192.3 L 220.5,192.3 L 220.6,191.8 L 220.5,190.6 L 220.1,190.1 L 220.0,190.3 L 219.8,190.1 L 219.2,190.0 L 218.7,189.6 L 217.9,189.5 L 217.6,189.8 L 217.5,190.0 L 217.2,190.0 L 216.8,189.8 L 216.6,190.1 L 216.9,190.3 L 216.9,190.5 L 215.9,190.2 L 215.6,190.3 L 215.4,190.6 L 215.1,190.8 L 214.5,190.8 L 214.1,190.3 L 213.9,190.2 L 213.8,190.0 L 213.4,189.9 L 213.0,190.2 L 212.4,191.1 L 212.3,191.7 L 212.4,192.8 L 212.2,193.0 L 212.1,193.4 L 213.2,194.6 L 213.4,194.8 L 213.6,195.5 L 213.5,195.6 L 213.1,195.3 L 212.3,194.7 L 210.9,194.3 L 210.8,194.1 L 210.6,193.1 L 210.1,192.7 L 209.9,192.4 L 209.5,192.5 L 209.4,192.5 L 208.7,192.0 L 207.4,191.0 L 206.9,190.9 L 206.8,190.6 L 205.9,190.5 L 205.2,191.0 L 204.9,191.5 L 204.9,192.0 L 205.4,192.5 L 205.9,192.2 L 206.4,191.5 L 206.7,191.4 L 206.8,191.5 L 206.6,192.1 L 206.7,192.7 L 207.2,194.6 L 207.7,195.3 L 208.2,195.8 L 208.9,195.8 L 209.2,195.7 L 209.2,195.7 L 209.8,195.7 L 210.4,195.3 L 210.6,195.7 L 210.6,196.3 L 210.8,196.7 L 211.2,197.1 L 211.7,197.5 L 211.8,197.4 L 211.8,196.9 L 212.4,196.9 L 212.8,197.3 L 213.1,197.5 L 213.5,197.4 L 213.7,198.0 L 214.1,198.6 L 215.4,199.0 L 216.2,199.6 L 217.0,200.1 L 217.5,200.1 L 217.7,200.4 L 218.3,200.7 L 219.4,201.5 L 220.3,201.5 L 220.7,200.9 L 220.7,200.9 L 220.8,201.3 L 221.3,204.7 L 220.9,204.6 L 220.3,205.5 L 220.5,206.3 L 220.9,207.1 L 221.2,207.6 L 221.7,207.6 L 222.4,208.2 L 222.3,209.2 L 222.3,209.2 L 222.3,209.2 L 221.8,209.1 L 221.4,209.3 L 221.3,209.6 L 221.0,210.4 L 221.1,210.8 L 221.7,211.3 L 221.6,212.0 L 221.0,212.4 L 220.9,212.7 L 221.5,213.3 L 221.6,213.4 L 221.6,213.4 L 221.9,213.5 L 221.7,216.0 L 221.2,216.0 L 221.2,216.0 L 221.1,216.1 L 220.7,216.4 L 220.6,217.1 L 220.0,217.6 L 219.9,218.3 L 219.9,219.3 L 220.6,220.2 L 220.6,220.2 L 220.7,220.3 L 220.8,220.4 L 220.7,220.6 L 220.7,220.6 L 220.8,220.8 L 220.5,220.7 L 220.5,220.7 L 219.7,220.5 L 219.5,220.2 L 219.0,219.8 L 218.3,219.9 L 218.2,220.2 L 218.2,220.5 L 218.8,221.0 L 219.7,221.1 L 219.8,221.2 L 219.5,222.6 L 219.6,222.9 L 219.6,223.4 L 219.5,223.4 L 219.2,223.0 L 219.4,222.8 L 219.3,222.4 L 219.0,222.1 L 219.1,222.0 L 218.9,221.7 L 218.7,221.7 L 218.6,221.9 L 218.1,222.4 L 218.2,222.8 L 218.1,223.2 L 218.0,223.7 L 218.0,224.5 L 218.3,225.0 L 219.6,225.5 L 219.8,225.6 L 219.8,225.6 L 220.2,225.6 L 220.0,226.8 L 220.0,226.8 L 219.6,226.8 L 219.6,226.8 L 219.0,226.5 L 218.9,226.3 L 218.6,225.6 L 218.3,225.3 L 217.9,225.3 L 217.4,225.8 L 217.1,225.7 L 216.7,225.0 L 216.0,224.8 L 215.7,225.0 L 215.4,225.4 L 215.5,225.7 L 216.4,226.2 L 216.9,226.9 L 216.9,227.2 L 217.0,227.9 L 217.2,228.5 L 217.1,229.1 L 217.2,230.8 L 217.0,230.9 L 216.8,231.8 L 216.9,232.2 L 217.1,232.3 L 217.7,234.1 L 217.4,234.3 L 217.2,234.4 L 217.1,233.9 L 216.5,233.3 L 215.1,231.8 L 214.7,231.7 L 214.5,231.9 L 214.3,232.9 L 214.4,233.7 L 214.7,234.8 L 214.5,234.9 L 214.1,234.6 L 213.5,234.5 L 213.4,235.2 L 213.1,235.2 L 213.0,235.4 L 213.2,235.7 L 213.1,236.2 L 213.2,236.5 L 213.5,236.8 L 209.9,237.3 L 209.6,236.6 L 209.5,236.4 L 209.6,235.5 L 209.3,235.2 L 209.3,234.8 L 209.3,234.1 L 209.2,233.8 L 208.9,233.7 L 208.7,233.4 L 208.6,232.8 L 208.3,232.5 L 207.7,232.4 L 207.6,232.5 L 207.1,232.1 L 207.5,231.1 L 207.4,230.8 L 207.1,230.4 L 207.5,229.9 L 207.5,229.6 L 206.9,229.1 L 206.6,229.0 L 206.3,228.6 L 205.7,227.9 L 205.1,227.4 L 203.8,226.6 L 203.8,226.4 L 204.1,226.1 L 204.1,226.0 L 204.3,225.0 L 203.7,224.2 L 202.9,223.6 L 202.7,223.0 L 202.5,222.8 L 202.5,222.3 L 202.5,221.8 L 202.8,221.6 L 202.9,220.7 L 202.5,220.3 L 202.5,219.3 L 202.7,219.1 L 202.7,218.8 L 202.3,218.3 L 202.1,217.7 L 201.9,217.4 L 201.4,217.5 L 201.0,217.1 L 200.7,216.6 L 200.0,216.2 L 198.9,216.1 L 198.4,216.4 L 197.9,216.5 L 197.9,216.1 L 197.4,215.6 L 197.5,215.4 L 197.7,215.4 L 197.8,215.0 L 196.9,213.8 L 196.5,213.2 L 195.8,212.4 L 194.9,211.7 L 194.4,211.6 L 194.5,212.0 L 194.7,212.8 L 195.3,213.6 L 195.4,213.9 L 195.9,214.2 L 196.5,214.8 L 196.5,215.0 L 196.4,215.2 L 195.8,215.3 L 195.7,215.0 L 195.9,214.7 L 195.0,213.7 L 194.4,213.4 L 194.0,213.5 L 193.8,213.2 L 193.4,213.1 L 193.2,213.4 L 192.9,213.3 L 192.6,213.5 L 191.9,213.4 L 191.8,213.6 L 191.9,214.1 L 191.9,214.3 L 191.7,214.6 L 191.5,215.6 L 191.7,216.3 L 192.8,217.7 L 193.2,217.8 L 193.4,217.7 L 193.2,217.4 L 193.2,217.1 L 193.4,216.9 L 193.8,216.9 L 193.7,217.7 L 193.9,218.1 L 193.9,218.4 L 194.0,218.7 L 194.3,218.7 L 194.4,218.3 L 194.6,218.4 L 194.8,218.6 L 194.9,218.8 L 194.6,219.1 L 194.5,219.5 L 194.6,220.1 L 195.1,220.4 L 195.5,220.8 L 195.4,221.4 L 196.1,222.5 L 196.5,222.7 L 196.5,223.1 L 197.0,223.6 L 198.3,224.4 L 198.7,224.5 L 199.5,224.4 L 200.1,224.4 L 202.2,225.8 L 202.5,225.9 L 202.6,225.9 L 202.8,226.0 L 202.9,226.2 L 202.3,226.2 L 202.1,226.1 L 201.7,226.1 L 201.5,226.0 L 201.2,225.9 L 200.8,225.9 L 200.7,226.3 L 200.5,226.5 L 199.8,226.4 L 199.1,226.0 L 197.8,225.9 L 197.6,226.0 L 197.9,226.9 L 198.3,227.2 L 198.5,227.7 L 200.1,230.1 L 199.9,230.1 L 199.8,230.0 L 198.4,228.7 L 198.0,228.4 L 197.4,227.7 L 197.0,227.5 L 196.6,227.7 L 196.5,227.5 L 196.4,226.7 L 196.5,225.6 L 196.2,225.3 L 195.9,224.9 L 195.1,224.4 L 194.7,224.1 L 193.5,223.7 L 193.0,222.9 L 192.5,222.6 L 192.5,222.3 L 192.4,221.9 L 192.1,221.6 L 191.7,221.5 L 191.1,222.1 L 190.6,222.1 L 190.1,222.6 L 190.0,223.0 L 190.1,223.8 L 190.2,223.9 L 190.5,223.9 L 190.5,224.0 L 190.3,224.4 L 190.3,224.8 L 190.3,225.4 L 190.0,225.6 L 188.6,225.6 L 187.9,225.9 L 188.3,224.7 L 188.3,224.6 L 188.3,224.2 L 187.9,224.0 L 187.2,223.7 L 186.9,223.7 L 186.7,222.7 L 186.5,222.1 L 186.7,221.6 L 186.9,221.7 L 187.3,221.8 L 187.5,221.5 L 187.7,221.1 L 188.5,220.4 L 188.7,219.9 L 188.7,219.1 L 188.6,218.5 L 188.6,218.1 L 188.3,217.7 L 188.0,216.5 L 187.6,215.9 L 186.8,215.7 L 186.0,214.6 L 185.8,214.5 L 185.5,214.0 L 185.2,213.8 L 184.6,213.6 L 184.6,213.5 L 184.4,213.3 L 184.1,213.6 L 183.9,214.2 L 183.2,215.8 L 183.0,217.4 L 183.1,217.6 L 183.5,217.8 L 183.4,218.4 L 183.7,218.7 L 183.8,219.0 L 184.0,219.2 L 184.4,219.4 L 184.4,219.6 L 184.6,219.8 L 184.5,220.4 L 185.3,221.0 L 185.2,221.3 L 184.9,221.3 L 184.2,220.9 L 184.0,221.0 L 183.9,221.3 L 183.9,221.8 L 184.1,222.1 L 184.1,222.3 L 183.7,222.2 L 183.5,222.3 L 183.0,222.9 L 183.2,223.5 L 183.0,223.9 L 183.0,224.1 L 182.9,224.3 L 183.2,225.0 L 183.8,225.7 L 184.2,225.9 L 184.5,226.6 L 185.1,227.6 L 185.6,227.6 L 186.8,226.9 L 186.1,227.8 L 185.7,228.2 L 185.7,228.6 L 186.2,229.3 L 186.3,229.6 L 186.1,230.1 L 186.4,230.7 L 186.3,230.8 L 185.8,230.6 L 185.3,230.7 L 184.6,230.1 L 184.0,229.9 L 183.8,230.1 L 183.8,230.6 L 184.2,230.9 L 185.1,232.3 L 185.2,233.0 L 185.6,233.7 L 185.4,234.1 L 185.5,234.5 L 185.8,235.3 L 185.9,235.8 L 186.1,236.5 L 186.5,236.9 L 186.8,236.9 L 187.0,237.3 L 187.2,237.7 L 187.6,238.0 L 187.9,238.0 L 188.0,237.8 L 187.9,236.6 L 188.0,236.4 L 188.4,236.1 L 188.7,236.8 L 188.9,237.0 L 189.2,237.0 L 189.5,236.3 L 189.8,236.4 L 190.3,237.1 L 190.6,237.1 L 191.1,236.9 L 191.2,237.1 L 191.1,237.4 L 190.9,237.8 L 191.0,238.1 L 190.8,238.5 L 190.5,239.3 L 190.2,239.4 L 190.1,239.1 L 190.1,238.5 L 190.0,238.3 L 189.8,238.5 L 189.2,238.2 L 188.8,238.0 L 188.5,238.3 L 188.1,239.2 L 187.9,239.8 L 189.3,241.5 L 190.0,241.6 L 190.5,241.5 L 190.6,241.7 L 190.8,242.1 L 191.2,242.2 L 192.0,242.3 L 192.4,242.8 L 192.5,243.0 L 192.4,243.2 L 192.2,243.3 L 190.9,242.3 L 190.0,242.0 L 189.8,241.7 L 188.9,241.4 L 188.1,241.3 L 187.7,241.5 L 187.6,241.7 L 187.8,242.3 L 188.6,243.4 L 189.3,244.0 L 189.6,244.1 L 189.9,243.9 L 190.6,244.1 L 190.6,244.6 L 190.6,245.1 L 190.9,245.5 L 191.0,245.9 L 191.4,246.0 L 191.4,246.3 L 190.9,246.8 L 190.9,247.5 L 191.9,248.8 L 192.4,248.6 L 193.1,247.8 L 193.3,247.1 L 193.7,246.3 L 194.3,245.4 L 194.3,245.0 L 194.4,244.8 L 194.4,244.5 L 193.8,244.0 L 194.3,243.8 L 194.5,242.9 L 194.5,242.7 L 194.2,242.6 L 194.8,242.3 L 195.6,242.0 L 195.7,242.1 L 195.7,242.4 L 195.4,242.9 L 195.3,243.6 L 195.4,243.9 L 195.9,244.3 L 196.4,244.3 L 197.3,243.7 L 197.6,243.8 L 197.7,244.3 L 197.4,245.3 L 197.5,246.4 L 196.9,247.0 L 196.1,247.0 L 195.7,247.3 L 195.6,247.5 L 195.4,247.5 L 195.2,247.7 L 195.0,248.0 L 195.1,248.5 L 195.5,249.1 L 195.0,249.4 L 194.5,250.6 L 194.6,251.1 L 195.1,251.6 L 195.8,251.7 L 196.1,251.6 L 196.7,250.9 L 197.1,251.0 L 197.3,251.4 L 197.3,252.1 L 198.1,252.9 L 198.1,253.1 L 198.2,253.6 L 198.2,254.3 L 198.0,255.0 L 198.0,255.6 L 197.5,255.7 L 196.8,256.2 L 196.2,256.8 L 195.9,256.7 L 196.1,256.5 L 196.0,256.1 L 195.7,256.0 L 195.6,256.3 L 195.5,256.4 L 195.1,256.0 L 194.3,255.8 L 193.8,256.3 L 193.9,258.1 L 194.4,258.6 L 194.3,258.7 L 193.8,258.5 L 193.3,258.4 L 193.0,258.7 L 192.8,259.2 L 192.9,259.8 L 193.2,260.1 L 193.6,260.1 L 193.9,260.1 L 193.9,260.5 L 193.2,261.3 L 193.1,261.7 L 193.5,261.6 L 193.4,262.3 L 193.8,262.8 L 194.7,263.0 L 196.0,262.8 L 196.4,262.4 L 196.6,262.4 L 197.1,262.6 L 197.6,262.7 L 197.8,262.9 L 197.8,263.1 L 197.4,263.3 L 196.2,263.3 L 195.8,263.6 L 195.5,263.9 L 194.7,264.0 L 194.4,264.2 L 194.3,264.6 L 194.1,265.0 L 194.2,265.4 L 194.6,265.6 L 194.8,266.8 L 194.7,267.6 L 195.1,267.6 L 195.4,268.0 L 195.8,268.9 L 196.1,269.0 L 196.2,269.2 L 196.1,270.3 L 196.1,270.6 L 196.4,271.6 L 195.9,271.8 L 195.8,272.0 L 195.9,272.7 L 196.2,274.1 L 196.7,274.1 L 196.9,273.8 L 197.0,273.4 L 197.3,272.5 L 198.4,272.6 L 199.1,272.5 L 199.4,272.6 L 199.3,273.3 L 199.7,273.4 L 199.9,273.6 L 200.3,273.7 L 200.2,274.2 L 200.4,274.4 L 200.8,274.4 L 201.2,274.1 L 200.9,273.7 L 201.4,273.2 L 201.5,272.9 L 202.3,272.3 L 202.5,272.1 L 202.9,271.5 L 203.5,271.5 L 203.6,271.4 L 204.0,270.7 L 204.2,269.4 L 204.3,268.8 L 204.2,268.6 L 204.8,266.9 L 205.0,265.9 L 205.6,265.0 L 205.7,264.7 L 206.0,264.4 L 210.1,266.9 L 210.1,266.9 L 209.8,267.9 L 209.9,268.6 L 209.6,270.2 L 209.1,270.2 L 208.7,270.5 L 208.3,270.5 L 208.2,270.4 L 207.2,270.1 L 206.5,270.8 L 206.1,271.3 L 206.1,271.8 L 206.3,272.2 L 206.1,272.8 L 206.3,273.1 L 206.7,273.3 L 207.2,273.6 L 207.5,273.8 L 208.2,273.9 L 208.5,274.3 L 208.6,274.6 L 208.4,275.0 L 208.3,275.7 L 208.0,275.6 L 207.8,275.7 L 207.9,275.9 L 208.2,276.1 L 209.4,277.7 L 210.0,278.2 L 210.6,278.2 L 211.1,278.1 L 211.3,277.8 L 211.8,278.4 L 211.8,278.4 L 212.7,278.6 L 213.3,278.6 L 213.4,278.4 L 213.5,278.0 L 213.0,276.5 L 212.9,276.3 L 212.6,276.0 L 212.2,275.9 L 212.2,275.9 L 211.5,275.3 L 210.8,273.8 L 210.3,272.8 L 210.5,272.7 L 210.7,272.6 L 210.6,272.5 L 210.5,272.1 L 211.0,271.7 L 211.5,271.7 L 212.0,271.3 L 212.3,271.4 L 212.8,272.1 L 212.8,272.1 L 213.9,272.5 L 214.5,273.7 L 215.1,274.6 L 215.5,274.5 L 215.8,274.1 L 215.8,273.6 L 215.6,273.2 L 215.8,273.1 L 216.3,273.3 L 216.8,273.4 L 217.9,272.2 L 218.3,272.2 L 218.7,273.3 L 218.7,273.8 L 218.9,274.1 L 218.9,274.7 L 218.6,275.4 L 218.2,275.7 L 217.8,275.8 L 217.7,277.0 L 217.4,278.5 L 217.5,279.1 L 218.0,279.4 L 218.0,280.0 L 218.2,280.7 L 218.7,281.3 L 220.6,281.6 L 221.3,281.9 L 221.7,281.5 L 221.8,281.7 L 222.3,282.1 L 223.0,282.2 L 223.5,282.3 L 223.5,282.7 L 222.8,282.9 L 222.7,284.1 L 222.5,284.1 L 221.0,282.2 L 219.8,282.0 L 219.8,282.2 L 220.0,283.1 L 219.8,283.9 L 220.1,284.2 L 220.8,284.5 L 221.0,284.7 L 221.0,284.9 L 220.5,284.7 L 220.3,284.8 L 220.7,285.2 L 221.3,286.0 L 222.0,286.5 L 222.6,286.5 L 222.8,286.4 L 222.9,286.0 L 223.2,285.9 L 223.4,285.7 L 223.4,285.2 L 225.0,284.7 L 225.7,284.6 L 226.3,284.3 L 226.9,284.4 L 230.9,285.0 L 231.5,286.4 L 231.6,286.6 L 231.8,286.7 L 232.1,286.7 L 232.9,286.3 L 233.3,286.0 L 233.7,285.5 L 233.9,285.6 L 236.6,286.9 L 236.6,287.0 L 236.4,287.2 L 236.2,287.3 L 236.0,287.6 L 236.0,288.1 L 235.5,288.8 L 235.4,289.1 L 235.4,289.2 L 235.4,289.5 L 235.2,289.7 L 235.2,289.9 L 235.3,290.0 L 235.6,289.8 L 236.1,289.7 L 236.8,289.8 L 236.9,289.9 L 237.3,290.0 L 237.6,289.9 L 237.6,289.8 L 237.5,289.7 L 237.5,289.6 L 237.6,289.5 L 237.7,289.3 L 237.9,289.2 L 237.9,289.0 L 237.9,288.9 L 238.1,288.9 L 238.2,289.1 L 238.5,289.5 L 238.8,289.5 L 239.0,289.4 L 239.1,289.4 L 239.4,289.2 L 239.9,289.0 L 240.5,289.2 L 242.6,290.0 L 242.5,290.1 L 242.5,290.4 L 242.4,290.3 L 242.2,290.3 L 242.1,290.5 L 242.0,290.5 L 241.7,290.9 L 241.6,291.3 L 241.2,291.2 L 240.9,291.3 L 240.8,291.2 L 240.7,291.3 L 241.3,291.9 L 241.1,292.3 L 240.7,292.8 L 240.6,292.9 L 240.4,293.3 L 240.3,293.3 L 240.3,293.2 L 240.1,293.2 L 239.5,293.8 L 239.5,293.8 L 239.3,293.6 L 238.9,293.5 L 238.7,293.7 L 238.7,294.0 L 238.8,294.2 L 238.9,294.4 L 239.0,294.5 L 238.9,294.6 L 239.4,294.9 L 239.8,294.8 L 240.0,294.8 L 240.4,295.0 L 240.9,294.8 L 241.4,294.7 L 241.4,294.6 L 241.6,294.6 L 241.8,294.5 L 241.8,294.4 L 241.6,294.1 L 241.5,293.9 L 241.6,293.8 L 242.1,293.6 L 242.7,293.3 L 243.1,292.6 L 243.5,292.2 L 243.7,291.9 L 243.8,292.0 L 248.6,295.8 L 248.6,295.8 L 248.5,295.7 L 248.5,295.7 L 248.4,295.7 L 248.4,295.7 L 248.3,295.8 L 248.3,295.8 L 248.3,295.9 L 248.3,296.0 L 248.3,296.0 L 248.2,296.1 L 248.2,296.1 L 248.1,296.2 L 248.1,296.2 L 248.0,296.3 L 248.0,296.4 L 247.9,296.5 L 247.9,296.5 L 247.9,296.6 L 247.8,296.7 L 247.8,296.7 L 247.8,296.8 L 247.8,296.8 L 247.8,296.9 L 247.7,296.9 L 247.8,297.0 L 247.8,297.0 L 247.9,297.0 L 248.0,297.0 L 248.0,297.1 L 248.0,297.2 L 248.0,297.2 L 247.9,297.2 L 247.9,297.2 L 247.9,297.3 L 247.8,297.3 L 247.8,297.3 L 247.7,297.2 L 247.8,297.2 L 247.8,297.1 L 247.7,297.1 L 247.7,297.1 L 247.6,297.1 L 247.5,297.1 L 247.5,297.1 L 247.4,297.1 L 247.4,297.2 L 247.4,297.2 L 247.4,297.3 L 247.3,297.4 L 247.3,297.5 L 247.4,297.5 L 247.4,297.6 L 247.4,297.7 L 247.4,297.7 L 247.5,297.7 L 247.5,297.7 L 247.6,297.6 L 247.7,297.6 L 247.7,297.6 L 247.8,297.6 L 247.8,297.5 L 247.8,297.5 L 247.9,297.5 L 247.9,297.6 L 247.9,297.6 L 247.9,297.7 L 247.9,297.7 L 248.0,297.8 L 248.0,297.9 L 248.1,297.9 L 248.1,297.9 L 248.2,297.9 L 248.2,297.9 L 248.3,297.9 L 248.3,297.9 L 248.4,297.9 L 248.4,297.9 L 248.5,297.9 L 248.5,297.9 L 248.6,297.9 L 248.7,297.9 L 248.7,297.9 L 248.8,298.0 L 248.9,298.1 L 249.0,298.1 L 249.1,298.1 L 249.2,298.0 L 249.2,298.0 L 249.2,297.9 L 249.3,297.9 L 249.4,297.9 L 249.4,297.9 L 249.5,297.9 L 249.6,297.9 L 249.6,298.0 L 249.6,298.0 L 249.7,298.0 L 249.7,298.0 L 249.7,298.0 L 249.8,298.0 L 249.8,298.0 L 249.8,298.0 L 249.9,298.0 L 250.0,297.9 L 250.0,297.9 L 250.1,297.9 L 250.1,297.8 L 250.2,297.8 L 250.2,297.8 L 250.2,297.8 L 250.3,297.8 L 250.3,297.8 L 250.3,297.9 L 250.3,297.9 L 250.3,298.0 L 250.3,298.0 L 250.3,298.0 L 250.3,298.1 L 250.2,298.1 L 250.2,298.1 L 250.2,298.1 L 250.2,298.1 L 250.2,298.2 L 250.1,298.3 L 250.1,298.3 L 250.1,298.4 L 250.0,298.4 L 250.0,298.5 L 250.0,298.6 L 250.0,298.7 L 249.9,298.7 L 249.9,298.8 L 249.9,298.8 L 249.9,298.8 L 249.8,298.9 L 249.8,298.9 L 249.7,299.0 L 249.7,299.1 L 249.7,299.2 L 249.6,299.4 L 249.6,299.4 L 249.6,299.5 L 249.5,299.6 L 249.5,299.7 L 249.5,299.7 L 249.4,299.8 L 249.4,299.9 L 249.4,300.0 L 249.4,300.0 L 249.4,300.0 L 249.4,300.1 L 249.4,300.1 L 249.4,300.2 L 249.4,300.3 L 249.4,300.4 L 249.3,300.5 L 249.3,300.6 L 249.3,300.7 L 249.2,300.8 L 249.2,301.0 L 249.2,301.1 L 249.1,301.2 L 249.1,301.3 L 249.1,301.4 L 249.1,301.4 L 249.0,301.5 L 249.0,301.5 L 249.0,301.5 L 248.9,301.5 L 248.9,301.5 L 248.9,301.4 L 248.8,301.4 L 248.8,301.4 L 248.7,301.4 L 248.7,301.4 L 248.6,301.4 L 248.5,301.4 L 248.5,301.3 L 248.4,301.3 L 248.4,301.2 L 248.4,301.1 L 248.4,301.1 L 248.3,301.1 L 248.3,301.2 L 248.2,301.2 L 248.2,301.2 L 248.2,301.2 L 248.1,301.1 L 248.1,301.1 L 248.0,301.1 L 247.9,301.1 L 247.9,301.0 L 247.9,300.9 L 247.8,300.8 L 247.7,300.8 L 247.6,300.7 L 247.5,300.7 L 247.5,300.7 L 247.4,300.7 L 247.3,300.7 L 247.3,300.7 L 247.2,300.7 L 247.1,300.8 L 247.0,300.9 L 246.9,301.0 L 246.9,301.1 L 246.8,301.2 L 246.8,301.3 L 246.8,301.3 L 246.7,301.3 L 246.7,301.4 L 246.6,301.4 L 246.6,301.5 L 246.6,301.6 L 246.5,301.7 L 246.5,301.7 L 246.5,301.8 L 246.5,301.8 L 246.4,301.8 L 246.3,301.9 L 246.3,301.9 L 246.2,302.0 L 246.1,302.0 L 246.0,302.0 L 245.9,302.1 L 245.9,302.1 L 245.9,302.2 L 245.9,302.4 L 245.9,302.5 L 245.9,302.6 L 245.8,302.8 L 245.8,302.9 L 245.8,303.0 L 245.7,303.2 L 245.7,303.2 L 245.7,303.2 L 245.5,303.2 L 245.5,303.1 L 245.4,303.1 L 245.4,303.1 L 245.4,303.1 L 245.3,303.0 L 245.3,303.0 L 245.3,303.0 L 245.2,302.9 L 245.2,302.9 L 245.1,302.9 L 245.1,302.9 L 245.1,302.9 L 245.0,302.8 L 244.9,302.8 L 244.8,302.7 L 244.8,302.7 L 244.7,302.7 L 244.7,302.7 L 244.7,302.7 L 244.6,302.7 L 244.6,302.7 L 244.5,302.7 L 244.5,302.7 L 244.4,302.6 L 244.3,302.7 L 244.2,302.7 L 244.2,302.7 L 244.1,302.8 L 244.1,302.8 L 244.0,302.8 L 243.4,303.7 L 243.0,304.2 L 242.5,304.2 L 242.0,304.5 L 241.5,304.5 L 241.0,304.8 L 240.9,305.2 L 241.4,305.4 L 241.4,305.8 L 240.9,306.7 L 241.2,307.3 L 240.3,307.7 L 239.6,307.7 L 239.2,308.0 L 239.6,308.4 L 239.3,308.6 L 238.7,308.5 L 238.6,308.8 L 238.3,309.1 L 238.1,309.9 L 238.3,310.2 L 239.1,310.2 L 240.5,309.8 L 241.5,309.8 L 242.1,309.9 L 241.9,310.1 L 240.4,310.3 L 239.9,310.5 L 238.7,311.3 L 236.9,312.1 L 236.6,312.2 L 236.4,311.9 L 236.1,311.6 L 235.9,311.3 L 235.4,311.2 L 235.1,311.3 L 234.7,311.5 L 234.3,311.7 L 234.2,311.8 L 234.1,311.8 L 233.7,312.1 L 233.5,312.4 L 233.2,312.7 L 233.0,313.1 L 232.7,313.4 L 232.6,313.3 L 232.5,313.3 L 232.2,313.7 L 231.9,314.0 L 231.7,314.3 L 231.4,314.6 L 231.3,314.7 L 231.3,314.8 L 231.3,314.7 L 231.3,314.3 L 231.0,314.3 L 230.9,314.4 L 230.5,314.6 L 230.3,314.9 L 230.1,315.3 L 230.3,315.4 L 230.2,315.6 L 230.0,315.5 L 229.7,315.7 L 229.7,315.7 L 229.8,315.8 L 229.9,315.7 L 229.9,315.8 L 230.1,316.0 L 230.0,316.2 L 229.7,316.1 L 229.3,316.3 L 229.1,316.6 L 228.8,317.0 L 228.6,317.3 L 228.6,317.5 L 228.2,317.8 L 228.1,317.9 L 228.0,318.1 L 227.9,318.3 L 228.2,318.4 L 228.2,318.5 L 227.9,318.8 L 227.7,319.2 L 227.6,319.4 L 227.5,319.6 L 227.6,320.0 L 227.5,320.2 L 227.5,320.3 L 227.8,320.7 L 227.9,320.6 L 228.1,320.8 L 228.5,320.7 L 229.0,320.6 L 229.3,320.6 L 229.7,320.4 L 229.9,320.3 L 230.3,320.1 L 230.3,320.2 L 230.1,320.4 L 230.1,320.5 L 229.8,320.8 L 229.4,321.0 L 229.2,321.3 L 228.9,321.4 L 228.7,321.5 L 228.7,321.7 L 228.4,322.0 L 228.2,322.3 L 228.0,322.4 L 227.8,322.8 L 227.6,323.2 L 227.4,323.2 L 227.2,323.2 L 227.0,322.9 L 226.9,322.9 L 226.7,323.0 L 226.6,323.0 L 226.5,323.0 L 226.4,323.1 L 226.2,323.3 L 226.0,323.2 L 225.6,323.3 L 225.2,323.4 L 224.8,323.6 L 224.4,323.7 L 224.0,324.0 L 224.0,324.1 L 223.8,324.3 L 223.5,324.6 L 223.4,324.7 L 223.1,325.0 L 223.0,325.3 L 222.9,325.7 L 223.0,325.9 L 223.0,326.2 L 223.2,326.6 L 223.2,327.1 L 223.4,327.2 L 223.4,327.3 L 223.5,327.5 L 223.7,327.5 L 223.8,327.4 L 224.0,327.3 L 224.1,327.4 L 224.3,327.3 L 224.6,327.0 L 224.6,327.0 L 224.9,327.2 L 224.9,327.4 L 224.8,327.8 L 224.5,327.8 L 224.2,328.0 L 224.2,328.1 L 224.0,328.3 L 224.0,328.4 L 224.0,328.5 L 224.0,328.5 L 223.9,328.5 L 223.8,328.6 L 223.8,328.7 L 223.7,328.8 L 223.7,328.9 L 223.7,328.9 L 223.7,329.0 L 223.8,329.0 L 223.9,329.0 L 224.0,329.0 L 224.0,328.9 L 224.0,328.7 L 224.1,328.6 L 224.1,328.6 L 224.1,328.6 L 224.1,328.5 L 224.1,328.5 L 224.3,328.4 L 224.3,328.4 L 224.3,328.4 L 224.4,328.4 L 224.4,328.5 L 224.4,328.5 L 224.4,328.5 L 224.4,328.6 L 224.4,328.6 L 224.5,328.6 L 224.5,328.6 L 224.5,328.6 L 224.5,328.7 L 224.5,328.8 L 224.5,328.8 L 224.5,328.8 L 224.5,328.9 L 224.5,328.9 L 224.5,328.9 L 224.6,329.0 L 224.6,329.0 L 224.7,329.0 L 224.7,329.0 L 224.8,329.0 L 224.9,329.0 L 225.0,329.0 L 225.0,329.0 L 225.1,329.0 L 225.1,329.1 L 225.1,329.1 L 225.2,329.1 L 225.2,329.0 L 225.3,329.0 L 225.3,329.0 L 225.4,329.0 L 225.5,329.0 L 225.5,329.0 L 225.6,329.0 L 225.7,329.0 L 225.8,329.0 L 225.9,329.0 L 226.0,329.0 L 226.1,329.0 L 226.2,329.0 L 226.2,329.0 L 226.3,329.0 L 226.3,329.0 L 226.4,329.0 L 226.5,329.0 L 226.6,329.0 L 226.7,329.0 L 226.8,329.0 L 226.8,328.9 L 226.9,328.8 L 226.9,328.8 L 227.0,328.8 L 227.1,328.8 L 227.2,328.8 L 227.2,328.8 L 227.3,328.9 L 227.3,328.9 L 227.3,329.0 L 227.4,329.1 L 227.4,329.2 L 227.5,329.2 L 227.5,329.3 L 227.6,329.4 L 227.6,329.4 L 227.6,329.5 L 227.6,329.6 L 227.6,329.6 L 227.6,329.7 L 227.5,329.8 L 227.5,329.8 L 227.4,329.8 L 227.4,329.7 L 227.2,329.7 L 227.2,329.7 L 227.1,329.7 L 227.0,329.7 L 226.9,329.8 L 226.8,329.8 L 226.7,329.8 L 226.6,329.8 L 226.6,329.9 L 226.6,330.0 L 226.5,330.1 L 226.5,330.1 L 226.4,330.2 L 226.3,330.2 L 226.2,330.2 L 226.2,330.2 L 226.2,330.2 L 226.1,330.2 L 226.0,330.2 L 225.9,330.2 L 225.9,330.2 L 225.8,330.2 L 225.7,330.1 L 225.7,330.1 L 225.6,330.2 L 225.5,330.1 L 225.4,330.2 L 225.3,330.2 L 225.2,330.2 L 225.1,330.1 L 225.1,330.1 L 225.0,330.2 L 225.0,330.2 L 225.0,330.3 L 224.9,330.4 L 224.9,330.4 L 224.8,330.4 L 224.7,330.5 L 224.7,330.6 L 224.6,330.6 L 224.5,330.7 L 224.5,330.8 L 224.4,330.8 L 224.4,330.9 L 224.4,331.1 L 224.4,331.2 L 224.5,331.3 L 224.5,331.4 L 224.6,331.4 L 224.7,332.0 L 224.4,333.6 L 224.6,334.0 L 224.9,334.4 L 225.6,334.9 L 226.0,334.9 L 227.0,334.3 L 227.4,334.0 L 228.4,332.8 L 229.3,331.8 L 229.2,331.5 L 228.9,331.1 L 229.0,330.7 L 230.3,329.6 L 230.6,328.9 L 231.5,328.1 L 232.0,327.6 L 232.8,326.7 L 233.6,326.3 L 233.8,325.7 L 234.3,325.4 L 234.7,325.3 L 235.3,324.5 L 236.9,323.2 L 237.5,323.0 L 238.2,322.2 L 239.2,321.7 L 239.9,321.5 L 240.2,321.6 L 240.1,321.9 L 238.5,323.3 L 238.0,324.0 L 238.3,324.4 L 238.0,324.9 L 237.4,325.5 L 236.7,325.7 L 236.7,325.7 L 236.1,326.2 L 235.0,327.4 L 235.0,327.8 L 235.1,327.9 L 235.3,327.9 L 236.2,327.1 L 236.8,327.2 L 236.9,327.4 L 235.8,328.8 L 235.4,329.2 L 235.4,329.6 L 235.8,329.9 L 236.4,329.9 L 238.1,329.0 L 238.6,329.1 L 238.9,329.3 L 239.5,328.9 L 240.5,328.0 L 240.9,327.4 L 241.1,327.2 L 242.4,327.2 L 243.1,327.0 L 244.5,326.6 L 245.6,325.8 L 247.3,325.3 L 248.3,324.8 L 249.0,324.6 L 250.9,323.9 L 251.7,323.5 L 252.5,322.5 L 253.0,322.1 L 254.2,321.9 L 254.3,321.9 L 254.4,322.0 L 254.6,322.1 L 255.3,322.6 L 255.6,323.0 L 255.8,323.2 L 255.8,323.5 L 255.7,323.8 L 255.1,323.8 L 254.7,323.8 L 254.0,323.9 L 253.7,323.9 L 253.4,324.0 L 253.4,324.1 L 253.1,324.4 L 252.9,324.5 L 252.5,324.6 L 252.0,324.8 L 251.7,324.8 L 251.5,324.8 L 251.4,324.7 L 251.3,324.7 L 251.3,324.7 L 251.2,324.7 L 251.1,324.6 L 251.0,324.6 L 250.9,324.6 L 250.8,324.7 L 250.7,324.7 L 250.6,324.7 L 250.6,324.6 L 250.6,324.6 L 250.6,324.5 L 250.7,324.5 L 250.8,324.4 L 250.9,324.4 L 250.9,324.3 L 250.9,324.3 L 250.8,324.3 L 250.7,324.3 L 250.5,324.3 L 250.4,324.4 L 250.3,324.4 L 250.1,324.5 L 250.1,324.5 L 249.6,324.9 L 249.4,325.0 L 249.6,325.4 L 248.6,326.0 L 248.0,326.6 L 247.6,328.2 L 247.4,329.5 L 246.9,329.8 L 246.6,330.0 L 246.4,330.0 L 246.2,329.8 L 246.1,328.8 L 246.1,328.3 L 245.8,328.3 L 245.6,328.1 L 245.1,328.0 L 244.6,328.3 L 243.9,327.6 L 243.4,327.5 L 241.3,329.0 L 241.1,329.3 L 240.8,329.8 L 239.7,330.8 L 238.9,330.7 L 238.4,331.1 L 238.0,331.7 L 238.1,331.8 L 238.4,331.8 L 239.0,331.4 L 239.3,331.4 L 239.5,331.4 L 239.5,331.3 L 239.6,331.3 L 239.7,331.2 L 239.8,331.1 L 239.8,331.1 L 239.9,331.1 L 239.9,331.0 L 239.9,330.9 L 239.9,330.9 L 239.9,330.9 L 240.0,330.8 L 240.0,330.8 L 240.0,330.8 L 240.1,330.7 L 240.1,330.7 L 240.1,330.7 L 240.2,330.7 L 240.2,330.7 L 240.3,330.7 L 240.3,330.7 L 240.4,330.7 L 240.5,330.8 L 240.6,330.8 L 240.6,330.8 L 240.7,330.8 L 240.7,330.8 L 240.7,330.8 L 240.7,330.8 L 240.7,330.9 L 240.6,331.0 L 240.6,331.0 L 240.6,331.1 L 240.6,331.1 L 240.6,331.1 L 240.6,331.2 L 240.6,331.2 L 240.7,331.2 L 240.7,331.2 L 240.7,331.2 L 240.7,331.3 L 240.7,331.3 L 240.7,331.3 L 240.7,331.3 L 240.7,331.4 L 240.7,331.4 L 240.7,331.4 L 240.7,331.4 L 240.7,331.4 L 240.6,331.4 L 240.6,331.4 L 240.5,331.5 L 240.5,331.5 L 240.5,331.5 L 240.4,331.5 L 240.4,331.5 L 240.4,331.5 L 240.3,331.5 L 240.3,331.5 L 240.3,331.5 L 240.3,331.5 L 240.2,331.6 L 240.2,331.6 L 240.2,331.6 L 240.1,331.6 L 240.1,331.6 L 240.0,331.6 L 239.9,331.7 L 239.9,331.7 L 239.8,331.7 L 239.8,331.7 L 239.7,331.7 L 239.6,331.8 L 239.5,331.8 L 237.8,332.8 L 236.7,332.7 L 236.0,332.8 L 234.9,332.9 L 234.2,333.4 L 233.8,333.8 L 233.5,334.2 L 233.0,334.8 L 232.7,335.0 L 232.2,335.0 L 231.9,335.1 L 231.7,335.1 L 231.8,334.8 L 231.3,334.6 L 231.1,334.8 L 229.8,335.0 L 229.8,335.2 L 228.7,336.0 L 228.7,336.3 L 228.9,336.7 L 228.9,337.1 L 228.6,337.6 L 228.5,338.1 L 229.2,339.0 L 229.3,340.0 L 229.6,340.4 L 230.0,340.6 L 230.5,340.6 L 230.9,340.4 L 231.5,339.5 L 231.9,339.1 L 232.3,339.1 L 231.9,340.2 L 231.8,340.8 L 231.2,341.3 L 231.0,342.2 L 230.7,342.2 L 229.8,342.3 L 229.7,342.0 L 229.6,341.2 L 229.1,340.6 L 227.9,339.8 L 227.2,339.5 L 226.4,340.0 L 225.8,340.2 L 225.3,340.2 L 224.4,340.5 L 223.7,340.4 L 223.5,340.8 L 222.0,341.9 L 221.3,342.7 L 221.0,343.5 L 220.4,344.3 L 219.7,345.3 L 219.7,345.3 L 219.6,345.7 L 219.6,345.8 L 219.9,345.9 L 219.9,346.1 L 219.8,346.3 L 219.6,346.6 L 219.4,346.8 L 219.3,347.1 L 219.2,347.5 L 219.2,347.6 L 219.3,347.8 L 219.2,348.1 L 219.0,348.5 L 218.9,348.9 L 218.7,349.2 L 218.6,349.6 L 218.7,349.7 L 219.0,349.7 L 219.2,349.4 L 219.3,349.3 L 219.7,349.2 L 220.1,349.1 L 220.5,349.0 L 220.6,348.9 L 220.7,349.0 L 220.6,349.2 L 220.3,349.3 L 220.1,349.3 L 220.0,349.4 L 219.9,349.8 L 219.8,350.0 L 220.2,350.1 L 220.4,350.1 L 220.7,349.9 L 220.9,349.6 L 221.0,349.4 L 221.1,349.6 L 221.0,349.9 L 220.9,350.1 L 220.9,350.2 L 220.7,350.3 L 220.4,350.6 L 220.2,350.7 L 220.1,350.8 L 220.4,350.9 L 220.7,350.7 L 220.9,350.5 L 221.0,350.5 L 221.3,350.3 L 221.7,350.1 L 222.0,349.8 L 222.1,349.4 L 222.4,349.1 L 222.7,348.9 L 222.8,348.7 L 223.1,348.4 L 223.2,348.3 L 223.4,348.0 L 223.9,347.8 L 224.1,347.9 L 224.1,348.1 L 223.6,348.9 L 222.7,350.0 L 223.0,350.3 L 222.9,350.4 L 222.6,350.4 L 222.2,350.5 L 221.7,351.1 L 221.6,351.4 L 222.0,351.9 L 221.3,352.3 L 221.3,352.9 L 220.2,353.6 L 219.3,354.2 L 219.3,354.2 L 219.0,354.5 L 218.7,354.7 L 218.4,354.9 L 218.0,355.1 L 217.7,355.2 L 217.7,355.2 L 217.9,354.8 L 217.8,354.7 L 217.6,354.7 L 217.3,354.9 L 217.0,355.1 L 216.9,355.2 L 217.1,355.6 L 217.2,355.7 L 217.3,355.8 L 217.5,356.0 L 217.7,356.0 L 217.8,355.8 L 218.0,355.7 L 218.2,355.9 L 218.4,355.7 L 218.6,355.4 L 218.7,355.6 L 218.7,356.0 L 218.6,356.3 L 218.3,356.5 L 218.2,356.9 L 218.3,357.0 L 218.4,357.0 L 218.5,357.2 L 218.5,357.3 L 218.3,357.4 L 218.3,357.6 L 218.5,357.8 L 218.9,358.0 L 219.2,358.1 L 219.3,358.2 L 219.6,358.5 L 219.5,358.6 L 219.1,358.7 L 218.7,358.6 L 218.3,358.6 L 218.0,358.5 L 217.7,358.7 L 217.5,359.0 L 217.2,359.1 L 217.3,358.6 L 217.3,358.4 L 217.2,358.1 L 216.5,358.6 L 215.9,358.9 L 215.4,359.2 L 215.3,359.4 L 215.3,359.5 L 215.4,360.0 L 215.4,360.0 L 212.8,360.0 L 212.8,359.9 L 212.9,359.8 L 212.9,359.8 L 213.0,359.7 L 213.1,359.6 L 213.1,359.5 L 213.2,359.4 L 213.3,359.3 L 213.3,359.2 L 213.3,359.2 L 213.4,359.1 L 213.4,359.1 L 213.4,358.9 L 213.5,358.8 L 213.5,358.8 L 213.6,358.7 L 213.6,358.6 L 213.7,358.5 L 213.7,358.4 L 213.7,358.2 L 213.8,358.1 L 213.8,358.0 L 213.8,357.9 L 213.8,357.7 L 213.8,357.6 L 213.9,357.5 L 213.9,357.5 L 213.9,357.4 L 213.9,357.3 L 213.9,357.2 L 213.9,357.1 L 213.9,357.0 L 213.9,357.0 L 213.9,356.9 L 213.9,356.8 L 213.9,356.8 L 213.9,356.7 L 213.9,356.6 L 213.9,356.6 L 213.7,356.6 L 213.5,356.6 L 213.4,356.7 L 213.4,356.7 L 213.3,356.9 L 213.2,357.0 L 213.1,357.1 L 213.0,357.2 L 212.9,357.3 L 212.8,357.4 L 212.7,357.5 L 212.7,357.6 L 212.6,357.7 L 212.5,357.8 L 212.4,357.9 L 212.3,358.0 L 212.3,358.1 L 212.2,358.2 L 212.1,358.2 L 212.0,358.2 L 212.0,358.3 L 211.9,358.4 L 211.8,358.4 L 211.7,358.5 L 211.7,358.6 L 211.7,358.7 L 211.6,358.8 L 211.6,358.8 L 211.7,358.8 L 211.8,358.8 L 211.9,358.8 L 211.9,358.8 L 212.0,358.9 L 212.0,358.9 L 211.9,359.0 L 211.9,359.1 L 211.8,359.1 L 211.8,359.2 L 211.7,359.3 L 211.7,359.4 L 211.6,359.5 L 211.6,359.6 L 211.6,359.7 L 211.5,359.8 L 211.5,359.9 L 211.4,359.9 L 211.4,359.9 L 211.3,359.9 L 211.3,359.9 L 211.2,360.0 L 211.2,360.0 L 176.4,359.9" fill="none" stroke="black" stroke-width="2"/>
</svg>