<?xml version="1.0" encoding="UTF-8"?>
<svg width="400" height="400" viewBox="0 0 400 400" xmlns="http://www.w3.org/2000/svg">
  <rect width="400" height="400" fill="white"/>
  <path d="M 46.5,322.5 L 46.0,322.3 L 45.9,321.9 L 44.6,321.7 L 44.2,321.3 L 43.8,320.6 L 43.5,320.4 L 43.0,320.5 L 42.5,320.2 L 42.5,320.1 L 42.4,320.0 L 42.5,318.7 L 42.0,318.3 L 42.1,318.0 L 42.5,317.8 L 42.7,317.9 L 43.3,318.0 L 43.8,317.2 L 44.1,316.8 L 44.5,316.1 L 44.9,315.5 L 45.8,315.6 L 46.2,315.4 L 46.7,315.4 L 46.9,315.1 L 46.9,314.6 L 46.7,314.5 L 46.3,314.5 L 45.9,314.6 L 45.5,314.2 L 45.1,313.2 L 44.0,312.4 L 43.2,312.2 L 42.6,312.0 L 42.5,311.9 L 42.6,311.6 L 43.1,311.1 L 43.0,310.6 L 42.5,310.3 L 42.0,310.2 L 41.7,309.9 L 41.7,309.7 L 41.8,309.3 L 42.4,309.1 L 42.6,308.9 L 42.6,308.5 L 43.5,308.1 L 43.6,307.9 L 43.6,307.9 L 44.1,308.0 L 44.7,308.2 L 45.3,308.0 L 45.8,307.7 L 46.3,307.8 L 46.6,308.0 L 46.8,309.2 L 47.4,309.2 L 47.6,309.4 L 47.8,310.0 L 48.1,310.4 L 48.6,310.4 L 49.5,309.7 L 49.6,309.2 L 49.4,308.8 L 48.8,308.4 L 48.7,308.1 L 48.7,307.5 L 48.6,307.1 L 48.7,305.8 L 48.6,305.2 L 48.1,305.0 L 47.8,305.4 L 47.6,305.6 L 47.2,305.6 L 46.2,304.9 L 44.8,303.8 L 44.0,303.2 L 43.9,303.0 L 43.4,300.9 L 43.3,300.5 L 43.0,299.1 L 42.9,299.1 L 42.8,299.0 L 42.0,298.8 L 41.6,298.8 L 40.5,298.7 L 40.0,298.5 L 40.0,298.3 L 40.9,297.5 L 41.2,296.7 L 41.6,296.3 L 42.1,296.1 L 42.3,295.8 L 42.3,295.5 L 41.7,295.2 L 41.4,295.0 L 41.6,294.2 L 41.8,294.2 L 42.6,294.1 L 43.7,293.3 L 44.0,293.0 L 44.6,293.0 L 44.9,292.9 L 45.0,292.8 L 45.1,292.7 L 45.2,292.3 L 45.4,292.1 L 46.1,292.3 L 47.1,292.8 L 48.0,293.6 L 48.2,294.4 L 48.2,295.6 L 48.4,295.9 L 49.4,295.5 L 49.8,295.3 L 50.5,295.3 L 50.6,295.1 L 50.8,294.0 L 51.1,293.6 L 50.7,292.5 L 50.4,292.3 L 50.0,292.3 L 49.6,291.7 L 49.3,290.8 L 49.0,290.6 L 48.6,290.6 L 48.3,291.2 L 47.9,291.3 L 47.3,291.1 L 46.7,290.5 L 45.5,289.6 L 45.3,289.3 L 45.0,289.0 L 44.6,288.2 L 44.2,287.3 L 44.2,286.7 L 44.4,285.3 L 43.8,285.1 L 43.7,285.0 L 43.2,283.9 L 43.1,283.4 L 43.3,282.4 L 43.6,281.6 L 43.7,281.3 L 44.5,279.9 L 44.7,279.2 L 45.2,278.7 L 45.3,278.4 L 45.5,277.8 L 46.0,277.0 L 46.1,276.2 L 46.5,275.8 L 46.7,275.7 L 46.7,275.5 L 46.6,275.4 L 45.6,275.2 L 45.4,275.0 L 45.5,274.7 L 45.9,274.3 L 46.0,273.0 L 45.6,272.4 L 45.6,271.4 L 45.0,270.4 L 44.4,270.1 L 43.6,269.2 L 43.2,268.4 L 42.4,266.6 L 42.1,265.8 L 42.1,265.4 L 42.9,264.4 L 43.3,264.2 L 44.2,264.2 L 45.3,263.8 L 45.8,263.5 L 45.8,263.2 L 45.7,263.2 L 45.7,263.2 L 93.6,255.9 L 93.7,255.9 L 93.7,255.9 L 93.9,256.4 L 94.4,256.9 L 95.0,257.2 L 95.6,258.0 L 95.4,258.8 L 95.7,259.6 L 95.9,261.3 L 96.0,262.3 L 96.2,263.0 L 96.2,263.4 L 96.4,264.0 L 96.8,264.8 L 97.3,265.3 L 97.5,265.7 L 97.6,266.3 L 98.3,267.1 L 99.5,268.0 L 99.6,268.5 L 99.2,268.8 L 98.5,269.1 L 98.5,269.3 L 99.3,271.2 L 99.6,271.6 L 99.9,271.7 L 100.3,271.5 L 100.3,271.1 L 100.5,270.8 L 101.3,270.9 L 101.5,271.1 L 101.6,271.3 L 102.1,272.0 L 103.0,272.2 L 103.5,272.9 L 104.2,273.3 L 105.7,273.4 L 106.3,273.4 L 107.4,273.2 L 108.2,273.3 L 108.9,273.0 L 109.7,272.6 L 109.9,272.2 L 110.5,270.4 L 110.7,270.0 L 111.0,269.6 L 111.7,268.8 L 112.2,268.1 L 112.6,267.7 L 113.5,267.3 L 114.3,266.8 L 114.5,266.4 L 114.8,266.1 L 114.9,265.6 L 115.1,264.3 L 115.0,263.7 L 115.1,263.2 L 115.5,262.5 L 116.2,261.5 L 116.8,260.7 L 117.1,260.6 L 118.2,260.7 L 119.0,260.1 L 119.7,258.5 L 120.1,257.2 L 120.5,256.9 L 120.5,256.5 L 120.3,256.2 L 120.7,255.4 L 120.6,254.4 L 120.9,254.0 L 121.4,254.2 L 121.6,254.1 L 121.8,253.1 L 122.1,252.8 L 122.5,252.7 L 122.7,251.8 L 123.2,250.8 L 124.4,249.8 L 124.7,249.6 L 124.8,249.1 L 124.7,248.6 L 125.0,248.5 L 125.7,248.5 L 126.4,248.1 L 127.5,247.0 L 127.7,246.3 L 127.3,245.0 L 127.3,244.4 L 127.1,243.3 L 127.4,243.0 L 127.8,243.1 L 128.0,242.9 L 128.1,241.5 L 127.9,241.1 L 128.1,240.7 L 127.7,239.6 L 127.1,239.1 L 126.6,238.9 L 126.1,239.1 L 125.5,239.3 L 125.4,239.3 L 125.0,239.0 L 124.6,237.9 L 124.5,237.3 L 124.0,236.7 L 123.9,236.4 L 122.7,235.5 L 121.9,234.6 L 121.6,233.9 L 121.7,233.1 L 121.0,232.9 L 120.8,232.4 L 120.9,231.9 L 121.4,231.2 L 122.0,230.6 L 122.5,230.6 L 122.9,230.6 L 123.7,230.1 L 124.1,229.7 L 124.6,229.5 L 125.9,229.6 L 126.0,229.6 L 126.5,229.4 L 126.7,229.6 L 126.7,229.7 L 126.6,230.4 L 126.2,230.8 L 125.7,231.2 L 125.3,231.6 L 125.2,232.0 L 125.3,232.2 L 125.6,232.2 L 126.3,232.1 L 127.2,231.6 L 128.3,231.1 L 128.4,231.3 L 127.6,232.1 L 127.6,232.5 L 127.8,232.7 L 128.7,232.7 L 129.4,232.1 L 130.1,231.5 L 131.0,230.8 L 130.9,230.3 L 130.7,230.1 L 130.3,230.0 L 129.8,230.4 L 129.4,230.3 L 129.5,230.0 L 129.5,229.9 L 130.2,229.2 L 130.6,228.5 L 130.6,227.8 L 130.2,226.8 L 129.4,225.7 L 129.3,225.2 L 128.2,223.9 L 128.3,223.5 L 127.8,223.1 L 126.9,223.0 L 126.5,222.8 L 125.3,222.3 L 124.3,221.6 L 123.5,221.1 L 122.6,220.5 L 122.3,220.2 L 121.3,219.5 L 120.7,218.6 L 120.3,217.9 L 120.1,217.0 L 120.3,215.5 L 120.7,214.5 L 121.3,213.9 L 122.3,213.9 L 123.6,214.0 L 124.4,214.7 L 125.4,214.9 L 126.0,214.8 L 127.4,215.0 L 127.9,215.2 L 128.0,215.6 L 128.2,215.9 L 129.9,216.1 L 130.5,215.8 L 130.9,215.5 L 131.5,214.8 L 132.1,214.3 L 132.8,214.4 L 133.1,215.3 L 133.6,215.2 L 134.5,214.7 L 134.8,214.3 L 135.0,213.3 L 135.0,212.9 L 134.7,212.5 L 134.1,211.8 L 133.8,211.5 L 133.1,211.3 L 132.3,210.8 L 131.8,210.1 L 130.8,209.2 L 130.6,209.0 L 130.7,207.9 L 131.5,206.8 L 131.8,206.8 L 133.2,207.7 L 133.8,208.0 L 134.5,208.1 L 135.2,208.0 L 135.5,208.1 L 135.7,208.5 L 136.2,209.2 L 136.5,209.5 L 136.8,209.4 L 137.1,209.1 L 137.2,208.8 L 137.3,208.2 L 137.1,207.9 L 137.7,207.8 L 138.1,207.5 L 138.4,206.9 L 138.7,206.7 L 139.0,206.7 L 139.3,206.4 L 139.5,205.9 L 140.0,205.4 L 140.2,204.9 L 140.3,204.6 L 140.6,204.5 L 141.0,204.5 L 141.2,204.7 L 141.6,204.6 L 141.8,204.1 L 142.0,203.9 L 142.2,203.2 L 143.1,202.8 L 143.4,203.1 L 143.6,203.4 L 143.6,204.0 L 143.7,204.2 L 144.2,204.0 L 144.7,203.3 L 144.8,202.7 L 145.4,201.6 L 146.4,200.1 L 146.6,199.9 L 147.2,199.2 L 147.7,199.2 L 149.3,198.7 L 150.2,198.7 L 150.3,199.0 L 150.6,198.8 L 150.8,198.4 L 150.8,198.1 L 150.7,197.7 L 150.7,197.3 L 151.0,197.1 L 151.3,197.1 L 151.5,197.3 L 151.9,197.1 L 152.5,196.2 L 153.0,195.6 L 153.9,194.8 L 154.8,194.2 L 155.2,193.9 L 155.4,193.4 L 154.7,191.0 L 154.4,190.4 L 154.4,189.9 L 154.4,189.2 L 154.0,187.7 L 153.7,187.1 L 153.1,186.9 L 152.5,187.4 L 152.2,187.2 L 152.0,186.7 L 151.7,186.8 L 151.1,188.3 L 150.9,188.7 L 150.8,189.6 L 151.3,189.7 L 151.4,189.8 L 151.2,190.6 L 151.0,190.8 L 150.5,191.1 L 149.2,191.0 L 148.9,190.4 L 148.8,190.0 L 148.6,189.4 L 148.0,189.4 L 147.5,189.5 L 147.4,189.3 L 147.4,188.7 L 147.5,188.1 L 147.4,187.8 L 147.2,187.6 L 147.0,186.6 L 146.8,186.3 L 146.4,185.9 L 146.2,185.4 L 146.5,183.9 L 146.6,183.1 L 146.1,181.9 L 145.6,181.0 L 144.8,180.5 L 144.6,180.2 L 144.4,179.3 L 144.4,178.5 L 143.8,176.4 L 143.8,175.5 L 143.9,174.5 L 144.3,171.7 L 144.5,170.8 L 144.6,170.5 L 144.7,169.8 L 144.3,168.6 L 144.0,167.9 L 143.9,167.7 L 143.6,166.9 L 142.9,162.5 L 143.0,161.0 L 143.1,160.2 L 143.9,159.1 L 144.3,158.8 L 144.6,158.4 L 144.5,158.3 L 153.9,152.6 L 154.2,153.0 L 154.6,153.0 L 155.5,152.5 L 155.7,151.8 L 155.8,151.5 L 155.9,151.3 L 156.0,150.9 L 156.3,150.7 L 156.7,150.6 L 156.9,150.5 L 158.1,150.1 L 158.9,149.9 L 159.3,149.9 L 159.7,149.6 L 160.0,149.8 L 160.5,150.3 L 161.1,150.4 L 161.6,150.2 L 162.7,148.7 L 162.9,148.3 L 163.0,147.8 L 162.9,147.5 L 163.1,147.0 L 162.9,146.4 L 163.0,146.0 L 163.3,145.5 L 163.5,144.9 L 163.6,143.7 L 163.6,143.1 L 163.8,141.8 L 164.0,140.9 L 164.0,140.2 L 164.4,138.3 L 164.5,138.1 L 165.2,136.7 L 165.3,135.6 L 164.9,134.7 L 165.0,134.2 L 165.5,133.4 L 165.9,132.5 L 166.1,131.5 L 166.5,130.6 L 166.8,129.6 L 166.7,128.8 L 166.7,128.7 L 167.1,127.9 L 168.2,125.4 L 168.4,124.6 L 168.0,124.2 L 168.0,123.7 L 168.3,122.4 L 169.1,120.8 L 169.5,119.4 L 169.7,118.3 L 170.2,116.4 L 170.8,115.9 L 171.0,115.3 L 171.5,112.9 L 172.0,110.8 L 172.2,109.4 L 171.8,108.0 L 171.9,106.5 L 171.9,104.3 L 172.0,103.7 L 172.2,102.7 L 172.4,102.0 L 172.3,101.0 L 172.4,100.0 L 173.1,97.7 L 173.7,96.6 L 173.9,95.1 L 174.3,94.6 L 174.6,94.4 L 175.0,94.6 L 175.3,94.9 L 175.3,95.3 L 175.2,95.8 L 175.3,96.3 L 175.3,96.7 L 174.9,97.2 L 174.8,97.7 L 174.8,99.5 L 175.1,99.7 L 175.5,99.7 L 176.6,99.2 L 177.3,99.3 L 178.0,98.8 L 178.7,98.0 L 178.9,97.6 L 190.6,100.5 L 190.7,100.5 L 190.7,100.5 L 191.1,101.1 L 191.5,101.3 L 192.0,101.3 L 192.9,101.2 L 193.8,100.4 L 194.4,99.8 L 194.7,99.8 L 195.1,99.9 L 195.3,100.0 L 195.4,100.5 L 195.7,100.8 L 196.7,101.6 L 197.3,101.7 L 198.0,102.3 L 198.2,102.6 L 198.1,102.9 L 198.2,103.1 L 198.5,103.1 L 199.3,102.8 L 199.7,101.8 L 200.0,101.5 L 200.5,101.1 L 200.8,100.2 L 201.3,99.5 L 201.4,99.0 L 200.7,98.1 L 199.5,97.1 L 199.3,96.6 L 199.3,96.4 L 199.6,96.4 L 199.8,95.5 L 200.4,95.5 L 200.7,95.4 L 201.2,95.1 L 201.3,94.4 L 201.5,94.2 L 202.3,94.1 L 202.7,94.5 L 203.5,95.2 L 204.5,96.1 L 204.7,96.6 L 204.5,97.8 L 204.6,98.1 L 204.9,98.1 L 205.3,97.8 L 205.7,97.3 L 206.4,96.8 L 208.8,96.3 L 210.3,95.5 L 210.4,95.8 L 210.3,96.1 L 208.9,97.8 L 208.5,98.3 L 208.6,98.4 L 209.3,97.9 L 210.1,97.7 L 210.9,97.3 L 211.0,97.3 L 211.4,97.0 L 212.3,95.7 L 212.9,95.3 L 213.4,94.9 L 213.8,94.4 L 214.6,94.0 L 215.0,93.6 L 217.3,93.9 L 217.6,94.2 L 217.7,94.7 L 217.2,96.5 L 217.3,97.1 L 217.5,97.4 L 218.4,97.5 L 219.0,97.3 L 219.8,96.9 L 220.2,96.1 L 220.6,95.4 L 220.8,94.4 L 220.8,93.3 L 220.2,92.5 L 220.0,92.1 L 220.2,90.7 L 220.4,90.5 L 221.7,90.0 L 222.6,88.8 L 222.7,88.0 L 223.0,88.0 L 223.2,89.4 L 223.5,89.9 L 223.7,90.6 L 224.0,91.4 L 224.1,92.3 L 224.1,93.0 L 224.2,93.2 L 224.4,93.2 L 224.8,92.9 L 225.5,92.8 L 225.7,92.6 L 225.7,92.1 L 225.1,90.5 L 225.1,90.0 L 225.5,89.6 L 225.6,89.1 L 225.2,88.4 L 225.0,88.0 L 224.4,87.4 L 224.2,87.0 L 224.3,86.5 L 224.2,86.3 L 224.3,85.7 L 223.7,84.7 L 223.4,84.8 L 223.3,86.1 L 223.2,86.4 L 222.9,86.5 L 222.6,86.3 L 222.4,85.9 L 222.6,84.7 L 222.4,84.3 L 222.5,83.2 L 222.4,82.8 L 222.7,81.7 L 222.7,78.7 L 222.7,77.6 L 222.8,77.2 L 222.6,75.4 L 222.7,74.6 L 222.7,74.3 L 222.5,73.7 L 222.5,73.1 L 222.2,72.6 L 222.2,72.0 L 222.4,71.1 L 222.6,70.5 L 222.9,69.6 L 222.8,69.0 L 222.7,68.7 L 222.8,68.5 L 222.7,68.2 L 222.3,68.2 L 222.0,68.3 L 221.8,68.1 L 221.8,67.8 L 222.1,67.3 L 222.9,66.5 L 223.6,66.3 L 223.9,66.4 L 224.7,66.6 L 225.0,66.3 L 225.4,65.6 L 225.5,64.8 L 225.4,63.7 L 225.5,62.8 L 225.8,62.9 L 225.9,63.0 L 226.4,63.1 L 226.7,62.9 L 226.7,62.3 L 226.6,61.6 L 226.2,60.9 L 226.3,60.3 L 226.7,59.9 L 227.5,60.0 L 228.1,59.6 L 228.8,58.6 L 229.0,57.1 L 229.3,56.1 L 229.6,55.4 L 229.7,54.6 L 229.6,54.4 L 229.7,53.9 L 230.4,52.8 L 230.4,52.7 L 238.7,54.1 L 238.8,54.1 L 238.8,54.2 L 239.0,54.5 L 238.8,55.8 L 238.7,57.5 L 239.1,58.5 L 239.0,59.6 L 238.6,60.0 L 238.1,60.7 L 237.9,60.9 L 237.6,61.5 L 237.6,62.0 L 238.1,62.8 L 238.1,63.2 L 237.9,63.7 L 237.4,63.9 L 237.2,64.7 L 237.2,65.4 L 237.3,65.7 L 237.3,66.2 L 237.4,67.2 L 237.2,67.7 L 237.2,69.1 L 237.6,70.1 L 237.5,70.5 L 237.4,71.4 L 237.4,72.0 L 237.7,72.4 L 238.0,73.0 L 238.5,73.6 L 239.3,73.8 L 239.8,75.5 L 240.2,75.6 L 240.4,75.9 L 240.4,76.0 L 240.4,76.5 L 240.5,76.6 L 240.5,77.0 L 240.0,77.4 L 239.8,78.0 L 239.9,78.8 L 240.6,79.5 L 241.3,79.7 L 242.8,79.8 L 242.9,80.0 L 243.0,80.2 L 242.7,80.7 L 242.8,81.0 L 242.4,81.3 L 242.0,81.1 L 241.3,80.4 L 240.7,80.2 L 239.7,80.4 L 239.3,80.7 L 239.3,81.2 L 239.8,82.1 L 239.8,82.5 L 239.9,83.2 L 239.7,83.5 L 239.6,84.0 L 239.6,84.5 L 239.9,84.9 L 240.0,85.5 L 240.2,86.1 L 240.1,86.4 L 239.5,86.7 L 239.5,87.4 L 239.6,88.1 L 239.8,88.4 L 240.0,88.5 L 239.9,89.1 L 240.4,89.5 L 240.8,89.5 L 242.1,88.9 L 242.5,88.8 L 242.8,89.8 L 242.0,91.2 L 242.2,91.5 L 242.5,91.4 L 243.9,90.5 L 244.2,90.0 L 244.3,89.4 L 244.2,89.2 L 244.3,89.1 L 245.3,88.5 L 245.8,87.9 L 246.0,87.2 L 245.9,86.7 L 245.5,86.2 L 245.4,85.7 L 245.7,85.4 L 246.2,85.0 L 247.2,82.7 L 247.8,82.1 L 247.7,81.5 L 248.6,80.9 L 249.1,79.9 L 249.2,79.3 L 248.5,78.9 L 248.9,78.4 L 249.0,77.6 L 249.4,77.0 L 249.4,76.8 L 249.4,76.7 L 249.2,76.4 L 248.5,75.7 L 248.6,74.7 L 248.5,74.2 L 248.2,74.0 L 247.4,73.8 L 247.1,74.2 L 246.9,74.5 L 246.7,74.5 L 246.2,73.8 L 245.6,73.3 L 244.9,72.9 L 245.0,72.4 L 245.9,71.0 L 246.1,70.3 L 246.5,69.4 L 246.6,68.8 L 246.4,67.9 L 246.3,67.7 L 246.4,66.0 L 246.2,64.9 L 246.5,64.5 L 246.9,64.5 L 247.3,64.3 L 247.8,63.8 L 248.6,62.7 L 249.2,60.8 L 249.4,59.1 L 249.7,58.6 L 249.7,58.2 L 249.3,58.1 L 248.8,57.1 L 248.6,55.9 L 248.4,52.5 L 248.5,52.0 L 249.0,51.6 L 249.1,51.3 L 249.0,50.5 L 249.1,50.1 L 249.4,49.8 L 250.2,49.9 L 250.8,49.5 L 251.7,48.8 L 251.9,48.2 L 251.9,48.2 L 256.1,46.3 L 256.1,46.3 L 256.1,46.3 L 256.3,46.9 L 256.4,47.7 L 256.7,48.1 L 257.1,48.6 L 257.4,48.7 L 257.9,48.4 L 258.1,48.6 L 258.4,49.5 L 258.4,50.7 L 258.8,50.7 L 259.1,51.2 L 259.2,52.4 L 259.6,52.7 L 260.4,52.8 L 260.6,53.3 L 261.0,53.7 L 261.0,54.5 L 261.1,55.1 L 260.6,55.9 L 260.4,56.9 L 260.4,57.7 L 261.4,59.5 L 261.2,60.0 L 261.1,60.9 L 261.2,63.0 L 261.4,63.5 L 261.8,63.8 L 262.2,63.8 L 262.5,63.6 L 263.1,62.9 L 263.4,62.8 L 263.6,63.0 L 263.8,63.9 L 264.1,64.2 L 264.5,64.2 L 264.8,64.0 L 265.0,63.8 L 265.1,62.8 L 265.0,62.6 L 264.6,61.3 L 264.4,61.1 L 264.2,60.7 L 264.5,58.7 L 264.4,58.4 L 264.2,58.2 L 264.0,57.7 L 263.8,57.3 L 263.8,56.6 L 264.0,55.1 L 264.2,54.6 L 264.5,52.4 L 264.6,52.3 L 264.8,52.4 L 264.9,52.5 L 265.1,52.5 L 265.2,51.5 L 264.9,51.0 L 265.2,50.5 L 265.4,49.8 L 265.4,49.3 L 265.4,49.3 L 270.2,51.3 L 270.3,51.3 L 270.4,52.0 L 270.7,52.4 L 271.0,52.4 L 271.1,52.1 L 271.0,51.7 L 271.3,51.7 L 271.5,51.8 L 271.1,54.6 L 271.2,55.0 L 270.8,57.8 L 270.7,59.1 L 270.9,59.7 L 271.2,60.0 L 271.5,60.0 L 271.7,59.9 L 271.8,60.0 L 271.8,60.4 L 272.1,60.7 L 272.5,61.0 L 273.0,61.0 L 273.1,61.2 L 273.2,61.7 L 273.1,62.7 L 273.3,63.3 L 273.3,63.7 L 273.0,63.9 L 272.6,63.8 L 271.7,64.0 L 271.4,64.9 L 271.5,65.2 L 271.6,66.8 L 271.6,67.4 L 271.8,67.7 L 272.5,68.1 L 271.9,68.8 L 271.8,69.1 L 272.3,69.7 L 272.5,69.7 L 272.7,69.5 L 272.9,69.2 L 273.0,69.4 L 272.7,69.7 L 272.7,70.0 L 272.8,70.2 L 273.0,70.4 L 273.3,70.6 L 273.5,71.2 L 274.5,71.6 L 275.3,71.7 L 275.7,71.5 L 276.9,70.6 L 277.2,70.5 L 277.2,70.1 L 277.6,69.9 L 278.6,69.0 L 279.7,67.9 L 281.4,66.5 L 282.2,65.6 L 283.0,65.1 L 283.7,64.6 L 284.1,64.6 L 284.1,65.0 L 283.7,66.0 L 283.8,66.9 L 283.5,67.4 L 283.3,67.5 L 283.0,67.0 L 282.6,66.9 L 282.2,67.1 L 280.7,67.4 L 280.4,67.7 L 280.6,68.0 L 280.5,68.3 L 280.3,68.9 L 280.5,69.3 L 281.7,70.1 L 281.6,70.5 L 281.2,70.8 L 280.8,70.8 L 280.0,71.0 L 279.5,71.2 L 278.5,71.2 L 277.5,71.4 L 277.3,71.5 L 277.4,72.1 L 277.1,72.9 L 277.2,73.3 L 277.8,73.5 L 277.6,74.0 L 277.4,74.7 L 276.8,75.7 L 277.0,76.1 L 276.8,76.5 L 276.9,77.2 L 276.5,78.4 L 276.7,78.7 L 276.9,79.0 L 277.0,79.3 L 277.0,79.3 L 276.6,80.0 L 276.8,80.3 L 277.2,80.3 L 277.6,79.9 L 277.6,79.5 L 277.5,79.3 L 277.5,79.2 L 277.3,78.5 L 277.6,77.6 L 277.7,76.9 L 278.3,76.5 L 278.5,76.6 L 278.6,76.8 L 278.7,77.3 L 279.1,77.5 L 280.1,77.2 L 280.9,76.7 L 281.6,75.6 L 282.1,73.7 L 282.8,72.3 L 282.4,71.4 L 282.6,70.5 L 282.8,70.4 L 283.0,70.5 L 283.0,70.6 L 283.2,71.0 L 283.4,71.0 L 283.4,70.5 L 283.2,70.1 L 283.1,69.7 L 283.0,69.1 L 283.2,68.9 L 283.8,68.7 L 284.5,68.2 L 285.1,66.7 L 285.9,64.5 L 286.5,63.3 L 287.0,62.9 L 287.8,62.6 L 288.4,62.1 L 289.0,61.3 L 289.9,59.7 L 290.2,59.6 L 290.5,59.0 L 290.8,58.7 L 290.9,58.1 L 290.8,57.6 L 290.9,57.5 L 291.3,57.4 L 291.9,57.5 L 292.3,57.3 L 292.4,56.7 L 292.2,55.4 L 292.4,55.2 L 292.7,55.2 L 292.9,55.5 L 293.0,56.1 L 293.3,57.1 L 293.8,57.7 L 293.8,58.2 L 294.0,58.7 L 294.5,59.1 L 294.7,59.5 L 294.8,60.6 L 294.9,61.4 L 295.3,61.8 L 295.8,62.1 L 296.3,62.1 L 296.6,61.8 L 297.0,61.0 L 298.5,59.4 L 299.4,57.8 L 299.7,56.7 L 300.0,56.1 L 300.4,53.1 L 300.4,53.1 L 315.5,58.3 L 351.6,70.6 L 351.6,70.6 L 351.6,70.6 L 351.4,71.5 L 351.2,72.4 L 351.1,73.2 L 351.2,74.3 L 351.5,74.5 L 352.5,74.6 L 352.9,74.4 L 354.6,73.1 L 355.5,72.8 L 355.8,72.9 L 356.1,73.2 L 356.4,74.1 L 356.6,74.3 L 356.8,74.2 L 357.1,74.2 L 357.1,74.3 L 357.0,74.6 L 357.0,74.8 L 357.4,74.6 L 357.5,74.3 L 357.6,74.0 L 358.1,73.4 L 358.7,72.3 L 358.8,71.6 L 359.4,73.0 L 359.4,73.1 L 359.4,74.3 L 359.6,74.9 L 359.5,75.7 L 359.8,76.0 L 359.9,76.5 L 360.0,78.0 L 359.9,79.3 L 358.8,80.5 L 358.4,80.7 L 358.3,80.7 L 357.9,81.1 L 357.1,81.4 L 356.2,82.0 L 355.6,82.8 L 355.3,83.4 L 355.0,83.6 L 354.5,83.7 L 354.2,83.4 L 354.1,82.2 L 353.7,81.6 L 353.2,81.3 L 352.9,81.3 L 352.1,81.7 L 351.0,82.5 L 350.6,82.7 L 350.0,83.1 L 349.9,83.6 L 349.7,84.0 L 348.5,84.3 L 348.3,84.5 L 347.8,85.1 L 347.1,85.8 L 347.0,86.3 L 347.2,86.8 L 347.2,87.2 L 346.7,87.9 L 345.5,88.8 L 344.5,89.3 L 343.4,89.5 L 340.8,89.2 L 340.3,89.3 L 339.4,89.7 L 338.6,90.4 L 338.6,91.0 L 338.7,91.6 L 338.4,91.9 L 338.2,92.2 L 338.1,92.4 L 338.2,92.7 L 338.3,93.0 L 338.9,94.0 L 339.2,95.0 L 339.1,95.5 L 338.4,96.1 L 338.1,96.5 L 338.1,97.4 L 337.7,98.0 L 337.6,98.1 L 337.3,99.6 L 336.9,99.9 L 336.5,100.6 L 335.7,101.2 L 335.2,102.0 L 334.9,102.6 L 334.6,103.4 L 334.0,104.0 L 333.4,104.6 L 333.3,104.9 L 332.7,105.5 L 332.0,106.7 L 331.8,107.2 L 331.5,107.7 L 330.7,107.9 L 330.5,108.2 L 330.2,109.1 L 330.0,109.8 L 330.0,110.8 L 329.8,111.7 L 329.2,112.3 L 328.9,112.7 L 329.2,113.2 L 329.3,113.6 L 329.2,114.0 L 328.7,114.4 L 328.3,114.5 L 328.1,114.3 L 327.6,114.2 L 327.4,114.4 L 327.3,114.7 L 327.4,114.9 L 327.7,116.0 L 327.7,116.8 L 327.5,117.2 L 327.0,117.5 L 326.7,117.8 L 326.8,118.2 L 326.8,119.1 L 326.5,119.6 L 326.4,120.4 L 326.5,121.4 L 326.1,124.5 L 325.9,125.0 L 326.1,125.7 L 326.2,125.7 L 326.4,126.3 L 326.7,127.1 L 326.7,127.5 L 326.5,127.9 L 326.3,128.3 L 326.5,128.9 L 326.4,130.0 L 327.0,131.6 L 327.2,132.4 L 327.6,133.9 L 327.8,135.2 L 328.3,137.3 L 328.2,137.9 L 328.3,138.4 L 328.0,139.9 L 328.1,140.3 L 328.3,140.5 L 328.7,140.4 L 329.0,140.3 L 329.3,140.5 L 329.7,141.2 L 330.0,142.7 L 330.2,143.3 L 330.5,145.0 L 330.5,145.2 L 330.8,145.4 L 331.1,146.2 L 331.3,146.9 L 331.7,147.5 L 332.4,148.4 L 332.9,149.3 L 333.0,149.6 L 333.3,150.3 L 333.3,151.0 L 333.5,151.7 L 333.7,152.9 L 333.8,155.5 L 333.7,156.7 L 332.9,158.8 L 332.4,159.7 L 332.0,161.3 L 332.1,161.5 L 331.9,162.3 L 331.4,163.7 L 331.2,164.1 L 330.7,164.9 L 330.5,165.3 L 330.1,166.0 L 329.6,166.7 L 329.0,167.0 L 328.6,167.3 L 327.6,167.9 L 327.1,168.3 L 326.8,168.2 L 326.7,168.3 L 326.6,168.4 L 326.5,168.8 L 326.1,169.3 L 325.7,169.6 L 325.3,170.0 L 325.1,170.1 L 324.7,170.2 L 324.5,170.5 L 324.0,170.2 L 323.8,170.4 L 323.7,170.5 L 323.4,170.3 L 323.4,170.2 L 323.2,170.2 L 323.1,170.3 L 322.7,170.9 L 322.5,171.3 L 322.3,171.6 L 322.2,171.7 L 322.2,172.0 L 322.0,172.3 L 322.0,172.5 L 322.1,172.5 L 322.2,172.6 L 322.4,172.7 L 322.5,172.9 L 322.5,173.0 L 322.4,173.0 L 322.2,173.0 L 322.1,173.0 L 322.1,173.1 L 322.0,173.3 L 322.1,173.4 L 322.1,173.6 L 322.0,173.8 L 321.5,174.1 L 321.0,174.2 L 320.5,174.4 L 320.1,174.5 L 319.3,174.4 L 319.3,174.6 L 319.2,174.7 L 319.1,174.8 L 319.1,175.5 L 319.1,175.7 L 318.8,175.9 L 318.6,176.0 L 318.3,175.9 L 318.0,176.0 L 317.9,176.0 L 317.7,175.8 L 317.7,175.6 L 317.6,175.6 L 317.4,175.5 L 317.2,175.4 L 316.9,175.3 L 316.6,175.3 L 316.6,175.1 L 316.5,175.1 L 316.4,174.7 L 316.4,174.6 L 316.3,174.1 L 316.3,173.5 L 316.3,173.4 L 316.3,173.3 L 316.1,173.2 L 315.5,173.3 L 315.0,173.5 L 314.4,173.7 L 314.2,173.9 L 313.9,174.1 L 313.2,174.3 L 312.8,174.3 L 312.2,174.1 L 312.0,173.9 L 311.6,173.9 L 311.6,174.0 L 311.4,174.1 L 311.3,174.2 L 311.2,174.4 L 311.1,174.6 L 311.6,175.1 L 312.1,175.3 L 312.3,175.3 L 312.5,175.2 L 312.8,175.1 L 313.5,174.9 L 313.6,174.9 L 313.9,175.5 L 314.1,175.4 L 314.3,175.9 L 314.6,176.5 L 314.9,177.1 L 315.1,177.5 L 315.1,177.7 L 314.9,177.9 L 314.8,178.1 L 314.7,178.5 L 314.6,178.8 L 314.4,179.0 L 314.2,179.5 L 314.2,179.7 L 314.1,180.3 L 314.0,180.8 L 314.0,181.0 L 313.6,182.1 L 313.5,182.7 L 313.4,183.2 L 312.6,184.8 L 312.3,185.6 L 311.9,185.9 L 310.4,186.6 L 309.4,186.7 L 308.8,186.8 L 306.3,188.2 L 305.6,188.7 L 304.7,188.9 L 303.7,189.3 L 303.0,189.3 L 301.8,189.5 L 301.0,189.4 L 299.4,188.6 L 298.9,188.5 L 298.8,188.2 L 299.0,186.9 L 299.8,185.6 L 299.9,184.5 L 299.6,183.6 L 299.1,182.8 L 299.0,182.1 L 299.3,181.3 L 299.9,180.7 L 300.5,180.6 L 301.4,180.9 L 302.2,180.9 L 302.4,181.1 L 302.5,181.3 L 302.2,181.7 L 302.1,182.4 L 302.4,182.8 L 302.7,182.8 L 303.1,182.4 L 303.8,182.3 L 305.5,181.3 L 305.8,181.0 L 306.1,179.9 L 306.7,179.4 L 306.6,179.0 L 306.7,178.6 L 307.1,178.2 L 307.3,177.6 L 307.3,176.7 L 307.4,176.5 L 307.7,176.5 L 309.0,175.5 L 309.1,174.8 L 309.0,174.4 L 309.2,173.3 L 309.3,173.2 L 309.4,172.6 L 309.5,171.9 L 309.3,170.8 L 309.0,170.4 L 308.7,170.3 L 308.5,170.0 L 308.5,169.5 L 308.3,169.2 L 308.3,168.7 L 307.9,168.3 L 307.9,167.9 L 308.4,167.6 L 308.5,167.2 L 307.8,167.0 L 307.5,166.6 L 307.4,166.5 L 307.0,166.3 L 306.3,165.5 L 305.4,164.8 L 304.1,164.2 L 303.9,163.7 L 303.4,163.6 L 302.9,163.6 L 302.1,164.0 L 302.0,164.0 L 302.0,163.6 L 302.6,162.9 L 302.9,162.7 L 302.9,162.4 L 302.1,162.6 L 302.1,162.4 L 302.2,162.1 L 302.6,161.7 L 302.6,161.5 L 302.3,161.3 L 301.9,161.3 L 301.5,161.8 L 301.3,162.3 L 301.2,163.0 L 300.8,163.5 L 300.6,163.9 L 300.5,164.6 L 300.6,165.8 L 300.5,166.0 L 300.4,166.1 L 300.1,166.1 L 299.5,166.2 L 299.3,166.4 L 298.2,166.4 L 297.6,166.1 L 297.4,165.8 L 297.3,165.7 L 297.1,165.1 L 296.5,164.3 L 295.9,163.7 L 295.2,163.6 L 294.9,163.4 L 294.6,163.3 L 293.9,163.5 L 293.6,163.1 L 293.5,163.0 L 293.0,163.1 L 292.5,163.0 L 290.7,162.4 L 290.2,162.7 L 290.1,163.6 L 289.7,163.7 L 289.3,163.9 L 289.2,164.3 L 289.0,164.5 L 288.3,164.5 L 287.6,164.8 L 287.6,164.8 L 287.4,165.1 L 287.7,166.0 L 288.2,166.3 L 288.3,166.8 L 288.8,166.9 L 288.9,167.0 L 288.9,167.5 L 288.9,168.2 L 288.1,169.2 L 287.9,170.1 L 287.8,170.3 L 287.7,170.8 L 287.4,171.1 L 287.2,172.4 L 287.0,173.0 L 286.4,173.9 L 286.2,175.1 L 286.0,175.6 L 285.7,175.8 L 285.4,175.8 L 285.2,175.6 L 284.9,174.1 L 284.8,173.5 L 284.5,173.2 L 284.0,173.0 L 283.7,173.1 L 282.8,173.1 L 282.3,173.4 L 281.4,174.5 L 280.3,175.8 L 280.2,176.2 L 280.3,176.4 L 281.1,176.7 L 281.2,177.0 L 281.4,177.3 L 281.9,177.5 L 282.0,177.7 L 282.1,178.3 L 282.6,178.7 L 282.9,178.7 L 283.1,178.5 L 284.6,178.7 L 285.2,178.5 L 285.3,178.0 L 285.5,177.4 L 285.7,177.3 L 286.1,177.4 L 286.8,178.5 L 287.1,179.2 L 287.4,179.7 L 287.4,180.3 L 287.4,180.6 L 287.7,180.8 L 287.9,181.1 L 287.9,181.6 L 288.2,182.5 L 288.1,182.6 L 287.7,182.7 L 287.5,182.8 L 287.7,183.0 L 287.7,183.3 L 287.3,183.1 L 287.1,183.2 L 287.4,183.5 L 288.2,183.8 L 288.9,184.3 L 289.3,184.7 L 290.1,186.3 L 290.0,186.9 L 289.8,187.0 L 289.2,186.6 L 288.6,186.3 L 288.2,186.0 L 288.0,185.9 L 287.7,186.0 L 287.7,186.5 L 288.2,186.9 L 288.3,187.2 L 288.5,187.4 L 288.7,187.6 L 288.9,188.7 L 289.2,188.9 L 290.0,188.8 L 290.5,188.9 L 291.1,189.3 L 291.3,189.9 L 291.2,190.6 L 290.3,190.9 L 290.1,191.7 L 290.3,192.5 L 289.9,193.3 L 289.3,193.6 L 289.0,193.6 L 288.4,193.8 L 287.2,193.6 L 286.5,193.8 L 285.3,194.5 L 284.5,194.6 L 284.2,194.8 L 284.1,195.2 L 283.7,195.7 L 282.8,196.2 L 282.0,196.4 L 280.6,196.5 L 279.4,195.9 L 278.7,195.7 L 278.2,195.7 L 277.4,195.7 L 277.1,195.5 L 276.7,194.9 L 276.5,194.8 L 276.1,195.3 L 275.9,196.5 L 275.5,196.7 L 275.3,197.3 L 274.8,197.9 L 274.5,198.4 L 273.6,199.1 L 272.5,199.8 L 271.9,199.9 L 271.5,199.7 L 271.1,199.1 L 270.5,199.2 L 269.9,199.1 L 269.1,198.9 L 269.0,198.9 L 268.9,198.9 L 268.9,198.2 L 269.1,197.0 L 268.5,196.8 L 268.5,197.1 L 268.1,197.0 L 267.9,197.2 L 267.4,197.0 L 267.1,197.2 L 267.0,197.3 L 266.8,197.2 L 266.7,197.1 L 266.6,196.7 L 266.5,196.6 L 266.3,196.7 L 266.0,197.0 L 265.6,197.2 L 265.4,197.6 L 265.4,198.0 L 265.2,198.5 L 265.4,198.5 L 265.6,198.4 L 265.5,198.2 L 266.1,198.2 L 266.3,198.5 L 266.3,199.5 L 266.1,200.0 L 265.8,200.4 L 265.5,200.9 L 264.4,201.7 L 263.8,201.8 L 263.1,202.0 L 262.0,201.8 L 261.4,201.8 L 260.8,201.8 L 260.4,201.6 L 259.5,201.2 L 259.3,201.1 L 258.9,201.0 L 258.3,201.1 L 257.7,201.5 L 257.4,201.8 L 256.7,202.2 L 256.2,203.1 L 255.8,203.4 L 255.6,203.5 L 255.1,203.6 L 254.5,203.5 L 254.0,203.1 L 253.9,203.0 L 253.9,202.6 L 254.4,202.0 L 254.4,201.7 L 254.3,201.3 L 254.1,200.9 L 254.2,200.5 L 254.3,200.4 L 254.3,200.2 L 254.0,200.0 L 253.7,199.6 L 253.7,199.2 L 253.5,197.9 L 253.5,197.5 L 253.5,197.4 L 253.2,196.6 L 253.0,196.5 L 252.7,196.3 L 252.6,195.9 L 252.5,195.8 L 252.2,195.7 L 252.0,195.7 L 251.9,196.1 L 251.6,196.7 L 251.4,197.0 L 251.3,197.1 L 251.1,197.2 L 251.0,197.0 L 250.7,196.9 L 250.7,196.5 L 250.9,195.7 L 251.1,195.5 L 251.4,194.4 L 251.6,193.5 L 251.7,192.2 L 251.3,191.5 L 250.4,190.9 L 249.7,190.8 L 249.6,190.3 L 249.4,190.2 L 249.3,190.4 L 248.9,191.3 L 248.7,191.8 L 248.2,192.2 L 248.0,192.4 L 247.0,193.1 L 246.8,193.4 L 246.8,194.1 L 248.3,195.6 L 248.0,196.2 L 246.9,197.1 L 246.6,197.8 L 245.6,198.5 L 245.3,198.7 L 243.9,199.6 L 243.5,199.6 L 242.1,198.9 L 241.4,198.8 L 240.8,198.8 L 240.4,199.3 L 240.2,200.4 L 240.9,201.6 L 240.8,202.0 L 240.7,202.4 L 240.4,202.5 L 240.1,203.0 L 239.5,203.7 L 239.2,204.6 L 239.0,204.6 L 238.8,204.3 L 238.6,203.3 L 238.3,203.2 L 237.3,204.2 L 236.7,204.7 L 236.3,205.6 L 235.9,205.9 L 235.3,206.0 L 235.1,205.8 L 235.2,205.5 L 235.8,204.9 L 235.8,204.6 L 235.6,204.6 L 235.0,204.6 L 234.0,204.9 L 233.0,205.0 L 232.4,204.7 L 232.0,204.7 L 231.6,205.1 L 231.7,205.5 L 232.0,205.9 L 232.1,206.4 L 232.5,207.4 L 232.8,207.8 L 232.9,208.2 L 232.8,208.7 L 232.9,209.5 L 232.6,211.0 L 232.4,211.3 L 232.3,211.6 L 232.6,211.8 L 232.8,212.2 L 232.2,212.6 L 232.3,212.9 L 232.3,213.2 L 231.8,213.4 L 231.5,213.6 L 231.3,213.9 L 231.6,214.4 L 231.9,214.5 L 232.6,214.7 L 233.3,215.1 L 234.0,215.7 L 234.0,216.0 L 233.7,216.3 L 233.8,216.6 L 233.2,216.9 L 233.1,217.0 L 233.4,217.4 L 233.8,217.6 L 234.6,217.4 L 235.1,217.4 L 235.4,217.6 L 235.3,218.6 L 235.8,218.8 L 236.4,218.9 L 237.1,218.5 L 237.4,218.5 L 237.6,218.6 L 238.2,219.8 L 238.4,220.3 L 238.2,223.0 L 237.8,224.0 L 237.1,226.0 L 236.4,226.6 L 235.8,227.0 L 235.3,227.0 L 234.8,226.1 L 234.5,226.1 L 233.3,226.7 L 232.9,226.8 L 232.4,225.9 L 231.9,225.4 L 231.5,225.3 L 231.0,225.3 L 230.2,225.9 L 229.9,225.9 L 229.4,225.2 L 228.8,225.0 L 228.3,224.2 L 227.9,224.2 L 227.7,224.3 L 227.6,224.6 L 227.5,224.7 L 227.2,224.4 L 226.6,224.3 L 225.6,224.4 L 225.2,224.7 L 224.8,225.4 L 224.5,225.6 L 224.1,225.6 L 224.0,225.4 L 224.9,224.3 L 225.1,223.3 L 225.0,222.5 L 224.7,221.8 L 224.4,221.2 L 224.1,220.4 L 224.3,219.9 L 224.8,219.6 L 224.9,218.6 L 224.9,218.6 L 224.7,217.0 L 224.8,216.3 L 224.7,216.0 L 224.6,215.9 L 224.4,216.0 L 224.4,216.4 L 224.5,217.1 L 224.3,218.1 L 224.1,218.3 L 223.8,218.0 L 223.7,217.6 L 223.6,216.6 L 223.1,216.1 L 222.5,215.9 L 221.1,214.9 L 221.0,214.5 L 221.3,214.0 L 221.5,213.9 L 221.8,214.1 L 222.0,213.9 L 222.2,213.5 L 222.0,213.4 L 221.6,213.6 L 221.5,213.2 L 221.5,212.8 L 221.4,212.3 L 221.2,212.2 L 220.9,212.3 L 220.5,212.6 L 220.4,212.9 L 220.5,213.8 L 220.3,214.6 L 220.0,214.7 L 219.8,214.4 L 219.8,214.0 L 219.4,214.0 L 218.8,214.3 L 218.4,214.3 L 216.6,213.6 L 216.3,213.2 L 216.1,212.3 L 215.9,212.0 L 215.2,211.9 L 215.0,212.0 L 214.8,212.8 L 214.5,213.1 L 213.6,213.6 L 212.7,214.5 L 212.6,215.4 L 212.6,216.0 L 212.9,216.5 L 213.1,217.5 L 213.1,217.5 L 213.8,218.0 L 214.2,218.0 L 214.9,218.3 L 215.2,218.6 L 215.4,219.1 L 215.2,220.0 L 215.2,220.7 L 215.4,221.4 L 215.8,221.9 L 215.4,223.1 L 215.3,223.7 L 215.3,224.1 L 215.2,224.5 L 215.0,224.7 L 214.3,224.8 L 214.3,225.0 L 214.5,225.4 L 214.1,228.0 L 214.2,228.5 L 214.0,230.2 L 214.0,230.8 L 214.5,232.3 L 214.5,232.7 L 214.6,233.2 L 214.7,233.8 L 215.2,234.6 L 215.4,235.4 L 215.9,237.2 L 216.4,237.7 L 216.8,238.0 L 217.3,238.0 L 218.5,237.4 L 218.8,236.8 L 219.2,236.5 L 219.5,236.6 L 219.6,236.7 L 219.8,236.9 L 219.8,237.8 L 220.1,238.0 L 220.3,238.3 L 220.1,239.0 L 219.8,240.0 L 219.7,241.1 L 219.9,241.7 L 220.4,242.4 L 220.9,242.7 L 221.6,242.7 L 221.9,242.9 L 221.9,243.3 L 222.0,243.6 L 222.4,244.2 L 222.7,245.5 L 223.1,246.0 L 223.4,246.8 L 224.0,247.5 L 224.5,247.7 L 224.8,248.0 L 225.4,248.0 L 225.7,247.9 L 225.7,247.6 L 225.1,247.4 L 225.2,246.8 L 226.5,244.9 L 227.2,243.1 L 227.7,242.6 L 228.2,242.4 L 229.0,242.3 L 229.6,242.5 L 230.0,242.7 L 230.5,243.0 L 231.0,243.7 L 231.2,244.4 L 231.2,245.0 L 231.0,245.5 L 230.4,245.8 L 229.6,246.0 L 229.1,246.3 L 228.4,246.5 L 227.8,246.3 L 227.4,246.2 L 227.3,246.5 L 227.5,247.2 L 227.5,247.8 L 227.6,248.5 L 227.6,249.3 L 228.5,249.8 L 228.8,250.6 L 228.5,251.4 L 228.6,251.6 L 229.0,251.6 L 229.4,252.0 L 229.9,251.9 L 230.3,251.9 L 230.6,252.1 L 230.7,252.3 L 231.0,252.9 L 231.6,252.7 L 232.4,252.1 L 232.9,252.0 L 233.3,252.1 L 233.7,252.6 L 235.1,253.0 L 236.6,253.5 L 237.0,253.5 L 237.3,253.3 L 237.7,252.4 L 238.0,252.0 L 238.3,251.9 L 238.7,251.9 L 239.0,252.3 L 239.2,253.2 L 239.5,253.5 L 240.9,253.7 L 242.1,254.6 L 242.5,254.3 L 242.7,252.7 L 242.9,252.2 L 243.4,252.2 L 244.3,252.3 L 244.6,252.6 L 245.0,252.3 L 245.3,251.7 L 246.9,249.4 L 247.1,248.4 L 247.3,247.1 L 247.2,246.5 L 247.0,245.6 L 246.5,244.8 L 246.3,244.9 L 245.6,244.2 L 244.8,243.7 L 244.1,243.5 L 243.5,243.1 L 242.3,243.2 L 241.8,243.1 L 241.0,242.8 L 240.6,242.7 L 240.8,242.5 L 242.3,242.2 L 243.7,241.6 L 243.8,241.1 L 243.7,240.7 L 243.9,240.5 L 245.3,240.4 L 245.7,240.1 L 245.7,239.9 L 245.3,239.5 L 245.4,238.9 L 247.7,233.7 L 248.2,232.0 L 248.3,230.9 L 248.3,230.3 L 248.4,230.2 L 248.5,230.3 L 248.6,230.5 L 248.8,231.4 L 248.8,232.3 L 248.8,233.1 L 249.1,233.8 L 249.5,234.4 L 249.8,234.3 L 250.8,233.7 L 252.3,233.2 L 252.6,233.3 L 252.6,233.7 L 252.4,234.2 L 252.1,235.5 L 251.9,235.9 L 252.0,236.3 L 251.7,238.1 L 251.2,239.6 L 251.1,240.1 L 250.9,241.2 L 250.8,242.6 L 250.7,243.3 L 250.6,243.8 L 249.8,244.7 L 249.4,245.9 L 249.2,246.2 L 249.0,247.2 L 248.7,248.0 L 248.3,248.6 L 248.2,249.1 L 247.9,249.6 L 248.0,249.8 L 247.6,250.3 L 247.5,250.9 L 247.5,251.4 L 247.1,252.6 L 247.0,253.1 L 247.1,254.0 L 247.2,254.3 L 247.1,255.1 L 247.6,255.3 L 248.2,255.3 L 249.3,255.0 L 249.9,255.3 L 250.2,255.3 L 250.2,255.2 L 251.0,255.1 L 251.9,254.8 L 252.6,254.7 L 252.9,254.8 L 253.4,254.9 L 253.9,255.2 L 254.6,255.3 L 255.1,255.2 L 255.6,255.0 L 255.8,254.7 L 256.1,254.3 L 256.4,253.6 L 256.9,253.1 L 257.3,253.5 L 257.4,253.5 L 257.8,253.4 L 257.9,253.3 L 257.9,253.1 L 258.2,252.9 L 258.3,252.7 L 258.6,252.5 L 258.7,252.3 L 259.2,252.1 L 259.6,252.1 L 260.0,251.9 L 260.3,251.7 L 260.7,251.8 L 261.3,251.8 L 261.8,251.8 L 262.4,251.6 L 262.8,251.4 L 262.9,251.3 L 263.4,251.0 L 263.6,250.9 L 263.9,250.7 L 264.0,250.8 L 264.0,250.9 L 264.0,251.1 L 264.0,251.4 L 264.0,251.7 L 264.1,251.7 L 264.2,251.7 L 264.3,251.7 L 264.6,251.6 L 264.9,251.4 L 265.2,251.3 L 265.6,251.2 L 266.1,251.0 L 266.2,251.0 L 266.3,251.0 L 266.2,251.2 L 266.2,251.2 L 266.0,251.4 L 265.4,251.6 L 265.0,251.8 L 264.6,251.9 L 264.3,252.0 L 264.1,252.1 L 264.0,252.2 L 263.7,252.3 L 263.5,252.3 L 263.5,252.2 L 263.0,252.2 L 263.2,253.3 L 263.3,253.6 L 263.4,253.7 L 263.6,253.7 L 264.0,253.6 L 264.1,253.6 L 264.2,253.7 L 264.6,254.0 L 264.6,254.2 L 264.9,254.5 L 265.0,254.5 L 265.3,254.7 L 265.9,254.7 L 266.0,254.9 L 266.3,255.3 L 266.5,255.7 L 266.5,256.1 L 266.4,256.4 L 266.2,256.7 L 265.8,257.3 L 265.4,257.3 L 265.2,257.5 L 265.0,257.2 L 264.7,257.1 L 264.4,257.1 L 264.3,257.3 L 264.2,257.4 L 264.0,257.4 L 263.9,257.3 L 263.7,257.1 L 263.7,257.0 L 263.4,256.6 L 262.9,256.6 L 262.2,256.6 L 261.7,256.7 L 261.4,256.8 L 261.2,256.8 L 260.7,256.8 L 260.2,257.0 L 259.2,256.9 L 259.1,256.8 L 258.4,256.8 L 256.8,256.9 L 255.9,257.2 L 255.0,257.6 L 255.0,257.9 L 254.7,258.1 L 254.6,258.1 L 254.5,258.1 L 254.4,258.2 L 254.5,258.4 L 254.6,258.6 L 254.6,258.8 L 254.5,259.1 L 254.3,259.2 L 254.2,259.4 L 254.0,259.5 L 253.7,260.1 L 253.4,260.6 L 253.0,261.1 L 251.8,262.0 L 251.1,262.4 L 250.6,262.6 L 250.0,262.7 L 249.5,262.9 L 248.9,263.0 L 248.5,263.0 L 248.2,263.0 L 247.9,263.2 L 247.7,263.5 L 247.4,263.7 L 247.2,263.8 L 247.2,263.9 L 246.9,264.1 L 246.6,264.1 L 246.1,264.0 L 245.8,264.0 L 245.3,264.1 L 245.1,264.2 L 245.0,264.5 L 245.1,264.6 L 245.3,264.9 L 245.3,265.2 L 244.5,265.3 L 244.5,265.0 L 244.1,264.9 L 243.9,264.9 L 244.0,265.1 L 244.2,265.3 L 242.4,265.6 L 242.4,265.4 L 242.3,264.9 L 241.8,264.8 L 241.5,264.9 L 241.4,265.3 L 241.4,265.7 L 240.4,265.9 L 240.0,265.9 L 240.0,265.7 L 240.3,265.3 L 240.2,265.1 L 239.4,264.7 L 239.2,264.2 L 238.9,264.0 L 237.7,263.8 L 236.9,263.8 L 236.7,264.1 L 236.6,264.6 L 236.7,265.0 L 236.6,266.3 L 236.6,266.7 L 234.2,266.8 L 234.2,266.3 L 234.6,265.8 L 234.7,264.9 L 234.6,264.7 L 233.6,264.3 L 233.5,264.1 L 233.4,264.0 L 233.1,263.9 L 232.7,264.0 L 231.9,264.0 L 231.4,263.7 L 231.2,263.8 L 229.4,263.8 L 228.7,263.7 L 226.4,263.6 L 224.2,264.1 L 224.1,264.3 L 224.2,264.6 L 224.8,265.2 L 224.6,265.4 L 224.3,265.6 L 217.0,266.3 L 192.5,268.8 L 192.4,268.9 L 192.4,268.5 L 192.3,268.1 L 191.4,268.0 L 191.2,267.5 L 190.5,267.6 L 190.1,267.4 L 189.8,267.1 L 189.8,266.9 L 189.7,266.7 L 189.5,266.8 L 189.0,267.0 L 188.4,267.5 L 188.2,268.6 L 188.1,268.8 L 187.7,268.7 L 187.2,268.4 L 186.9,268.8 L 186.7,269.1 L 186.6,269.6 L 185.9,270.3 L 185.8,271.1 L 186.1,271.6 L 186.3,272.2 L 186.4,273.2 L 186.7,273.8 L 186.9,274.1 L 187.3,274.5 L 182.9,281.5 L 182.2,282.6 L 181.6,282.2 L 181.1,281.8 L 179.2,281.5 L 178.2,281.6 L 177.7,281.5 L 177.1,281.0 L 176.7,281.0 L 176.0,280.5 L 175.4,280.4 L 175.1,280.9 L 174.4,282.1 L 174.0,282.4 L 171.6,283.4 L 171.1,283.4 L 171.0,282.9 L 170.8,282.3 L 170.6,282.2 L 170.5,282.5 L 170.2,284.0 L 169.7,284.8 L 169.4,285.3 L 168.9,285.7 L 168.6,285.7 L 168.3,285.2 L 167.9,285.0 L 167.4,285.1 L 166.8,284.9 L 166.6,286.2 L 166.4,286.4 L 166.1,286.4 L 165.7,285.9 L 165.6,285.8 L 165.3,286.1 L 164.7,285.8 L 164.4,285.6 L 164.1,284.9 L 163.8,284.8 L 163.1,285.2 L 162.6,285.2 L 161.9,285.3 L 160.9,285.3 L 160.6,285.5 L 160.1,285.5 L 158.4,285.4 L 153.9,284.5 L 153.6,284.7 L 153.5,285.0 L 153.6,285.5 L 154.1,285.9 L 154.2,286.1 L 153.9,286.3 L 153.1,286.3 L 152.8,286.5 L 152.4,286.3 L 151.9,286.2 L 151.4,286.2 L 151.1,286.5 L 150.6,286.9 L 150.3,287.0 L 150.2,287.4 L 150.8,287.8 L 151.4,289.1 L 151.9,289.5 L 152.1,290.0 L 152.0,290.6 L 151.8,291.0 L 151.8,291.4 L 152.5,291.8 L 152.8,292.1 L 152.7,292.6 L 152.4,292.9 L 152.2,293.3 L 151.9,293.5 L 151.1,293.8 L 150.7,294.1 L 150.6,294.6 L 150.7,294.9 L 151.6,295.2 L 152.2,296.0 L 152.8,297.1 L 153.7,298.4 L 154.1,299.4 L 154.2,300.7 L 154.2,301.4 L 154.5,301.6 L 154.5,302.1 L 154.7,303.0 L 155.1,304.0 L 155.2,304.7 L 155.5,305.6 L 156.0,307.4 L 156.3,307.9 L 157.6,309.7 L 158.6,309.9 L 158.9,310.0 L 161.0,312.3 L 161.7,313.6 L 161.6,314.2 L 161.7,314.5 L 161.6,315.0 L 161.6,315.2 L 161.6,315.7 L 162.2,316.6 L 162.6,316.8 L 162.8,317.0 L 162.8,317.3 L 162.9,317.5 L 162.9,318.0 L 163.0,318.3 L 163.4,318.6 L 163.8,319.3 L 163.6,320.5 L 164.1,320.6 L 164.2,321.2 L 164.3,322.2 L 164.6,322.7 L 165.1,322.8 L 165.3,323.0 L 165.6,323.0 L 166.0,323.3 L 166.4,323.1 L 166.5,322.6 L 166.7,322.4 L 167.5,322.2 L 168.3,322.3 L 169.5,322.9 L 169.9,323.1 L 169.7,323.5 L 170.1,323.6 L 170.4,323.9 L 170.6,324.0 L 171.6,325.2 L 172.5,326.1 L 173.7,327.1 L 174.5,327.5 L 174.8,327.5 L 175.2,327.5 L 176.1,328.0 L 177.2,328.4 L 178.0,328.6 L 179.5,329.0 L 180.1,329.2 L 180.9,329.3 L 181.5,329.0 L 182.3,328.5 L 183.6,328.7 L 185.6,329.5 L 186.8,330.3 L 186.9,330.4 L 187.9,331.0 L 188.8,332.0 L 189.5,333.1 L 189.7,333.7 L 189.6,334.1 L 188.9,334.4 L 188.7,334.5 L 188.4,334.9 L 188.2,335.6 L 188.4,336.4 L 188.5,337.9 L 188.5,339.1 L 188.4,340.2 L 188.1,340.7 L 188.0,341.0 L 188.1,341.3 L 187.9,342.5 L 188.1,342.8 L 188.0,343.6 L 188.1,343.9 L 188.5,344.4 L 188.5,345.3 L 188.5,345.9 L 188.1,346.0 L 187.6,346.4 L 187.5,346.9 L 187.6,347.2 L 187.9,347.3 L 188.9,346.8 L 189.2,346.8 L 189.5,347.3 L 189.7,348.0 L 189.1,349.0 L 188.9,349.6 L 188.4,350.4 L 187.9,351.0 L 186.3,352.0 L 184.6,352.1 L 183.3,352.2 L 182.5,352.1 L 181.7,351.8 L 181.3,351.9 L 181.1,351.7 L 180.8,351.1 L 180.3,351.0 L 179.6,351.5 L 179.3,351.9 L 178.5,352.6 L 178.4,353.2 L 178.5,353.7 L 178.5,353.7 L 118.7,345.6 L 119.3,344.4 L 119.4,342.9 L 118.3,340.3 L 118.0,339.8 L 117.5,339.5 L 116.8,339.5 L 116.0,339.8 L 115.7,338.9 L 115.4,338.7 L 115.1,338.7 L 115.1,338.8 L 115.5,339.2 L 115.5,339.7 L 115.4,340.0 L 114.9,339.9 L 114.0,337.8 L 113.7,337.1 L 113.0,337.0 L 112.4,336.8 L 112.3,336.9 L 112.5,337.3 L 112.4,337.9 L 112.3,338.5 L 112.1,338.6 L 112.0,339.3 L 111.4,340.0 L 111.1,340.0 L 110.9,339.7 L 110.8,339.4 L 110.4,339.4 L 110.2,339.7 L 110.1,340.0 L 110.2,340.2 L 110.1,341.0 L 110.0,341.2 L 109.4,341.3 L 109.0,341.5 L 109.0,341.5 L 46.5,322.5 L 46.5,322.5" fill="none" stroke="black" stroke-width="2"/>
</svg>