<?xml version="1.0" encoding="UTF-8"?>
<svg width="400" height="400" viewBox="0 0 400 400" xmlns="http://www.w3.org/2000/svg">
  <rect width="400" height="400" fill="white"/>
  <path d="M 103.3,195.1 L 102.4,195.5 L 102.4,196.3 L 102.4,197.0 L 102.5,197.6 L 102.8,198.8 L 103.4,198.8 L 103.6,199.5 L 104.0,200.1 L 104.6,201.9 L 105.0,202.9 L 104.4,203.2 L 104.6,203.5 L 105.2,203.5 L 105.3,203.5 L 108.4,202.5 L 110.1,202.3 L 111.6,202.3 L 112.1,202.7 L 112.3,203.3 L 112.6,203.7 L 113.5,203.7 L 114.8,203.0 L 116.6,201.3 L 117.7,200.6 L 118.4,200.1 L 119.8,198.2 L 120.1,197.6 L 120.6,196.9 L 121.3,195.5 L 121.2,194.8 L 121.5,194.6 L 121.8,194.4 L 121.8,194.1 L 121.6,193.5 L 122.4,191.1 L 122.5,189.9 L 122.9,189.3 L 123.8,188.6 L 125.3,188.1 L 126.6,188.0 L 127.5,188.4 L 128.0,188.4 L 129.2,187.7 L 129.3,187.0 L 129.7,186.5 L 130.0,184.7 L 130.4,184.5 L 131.4,184.2 L 133.3,184.3 L 134.8,183.5 L 135.5,183.3 L 137.3,182.5 L 137.7,182.3 L 138.1,182.3 L 141.7,180.6 L 143.1,179.6 L 144.3,178.9 L 145.8,178.3 L 146.8,177.9 L 147.7,177.9 L 148.0,178.2 L 148.2,178.5 L 148.1,178.6 L 147.4,179.7 L 147.2,180.3 L 147.4,180.5 L 147.9,180.5 L 149.9,179.7 L 150.5,179.7 L 151.9,179.1 L 152.7,178.6 L 152.9,178.7 L 152.8,179.1 L 152.7,179.3 L 151.9,180.0 L 150.9,180.3 L 150.3,180.8 L 150.1,181.2 L 150.1,182.1 L 149.0,182.8 L 149.0,183.0 L 149.4,183.8 L 149.9,184.2 L 150.0,184.8 L 149.9,185.4 L 150.6,186.9 L 150.4,189.0 L 150.5,189.3 L 151.2,189.3 L 152.1,188.9 L 152.8,188.4 L 154.0,187.1 L 154.7,186.7 L 155.4,186.5 L 156.8,185.3 L 158.1,184.7 L 158.5,184.4 L 161.9,182.8 L 162.2,182.8 L 163.8,182.2 L 164.9,182.1 L 165.6,182.3 L 166.1,182.7 L 166.7,183.8 L 167.0,183.8 L 167.4,184.2 L 168.2,184.6 L 168.8,184.8 L 169.0,185.1 L 169.7,185.2 L 170.0,185.4 L 170.5,185.4 L 171.5,184.8 L 173.0,183.4 L 173.4,183.2 L 173.8,183.4 L 174.6,182.9 L 175.7,182.5 L 176.7,182.1 L 177.2,182.2 L 177.6,182.0 L 178.4,182.1 L 179.0,182.0 L 179.3,181.8 L 180.0,181.2 L 180.8,180.5 L 181.5,180.0 L 182.3,179.7 L 182.4,179.6 L 183.3,178.9 L 183.4,178.2 L 184.8,178.1 L 186.2,177.8 L 187.9,176.8 L 188.5,176.2 L 189.3,175.6 L 190.6,174.8 L 192.0,174.0 L 193.2,172.7 L 194.3,171.7 L 195.8,171.2 L 196.2,170.8 L 197.0,169.8 L 201.7,164.6 L 202.4,163.3 L 203.9,161.8 L 204.9,161.1 L 206.5,159.2 L 207.5,157.6 L 208.5,155.8 L 208.9,154.7 L 209.2,154.1 L 209.8,152.8 L 210.5,151.5 L 211.4,150.7 L 213.4,148.7 L 214.0,147.2 L 214.5,146.5 L 215.2,146.3 L 215.7,146.0 L 216.6,144.4 L 216.9,143.9 L 218.7,141.6 L 220.7,137.1 L 220.9,136.1 L 220.8,135.5 L 219.8,135.4 L 219.1,135.5 L 218.1,135.9 L 217.5,136.4 L 217.4,136.7 L 217.2,137.0 L 216.5,136.9 L 216.4,137.3 L 215.8,137.6 L 214.0,137.4 L 213.3,137.6 L 210.7,139.6 L 209.7,139.5 L 208.8,139.9 L 207.0,140.9 L 206.5,140.9 L 206.0,140.4 L 205.7,139.7 L 205.9,139.3 L 206.5,138.8 L 206.9,138.6 L 207.7,138.1 L 207.8,137.8 L 208.8,136.9 L 211.3,134.2 L 213.4,131.5 L 214.1,130.9 L 214.7,130.9 L 215.0,131.2 L 215.0,131.4 L 215.5,131.2 L 216.5,130.5 L 220.2,126.8 L 220.4,126.3 L 220.6,125.5 L 222.7,122.9 L 223.4,121.8 L 224.0,120.7 L 224.9,118.6 L 227.1,115.4 L 228.3,114.1 L 228.9,114.0 L 229.8,113.3 L 231.3,112.0 L 232.2,110.8 L 232.9,110.2 L 233.4,109.2 L 233.7,108.1 L 233.9,107.2 L 236.0,105.6 L 236.5,105.6 L 237.4,104.9 L 237.7,104.0 L 238.2,102.6 L 240.7,100.5 L 241.5,98.7 L 243.1,96.8 L 245.0,95.3 L 245.4,94.6 L 246.7,93.2 L 248.0,91.7 L 248.8,89.6 L 249.3,88.5 L 250.0,86.9 L 250.4,84.9 L 250.7,84.3 L 250.8,83.6 L 254.0,79.5 L 255.3,77.8 L 256.5,75.6 L 257.2,74.1 L 257.6,73.3 L 258.0,72.5 L 259.3,69.1 L 260.6,66.7 L 261.3,66.0 L 261.8,65.1 L 263.3,63.8 L 263.8,63.0 L 264.0,62.6 L 264.2,62.0 L 305.6,64.0 L 305.6,64.2 L 306.0,64.2 L 306.3,64.0 L 306.9,63.7 L 307.5,63.8 L 307.9,63.7 L 308.2,63.7 L 308.3,64.1 L 308.0,65.1 L 307.3,65.8 L 307.5,66.6 L 307.2,67.2 L 306.7,67.8 L 306.9,68.6 L 307.1,69.6 L 306.7,71.3 L 306.9,71.7 L 307.4,71.5 L 337.9,85.5 L 337.9,85.5 L 337.3,86.3 L 337.8,86.6 L 339.3,86.8 L 339.6,87.3 L 355.0,119.0 L 360.0,129.3 L 359.9,129.5 L 359.4,130.0 L 359.3,130.2 L 358.8,130.7 L 358.9,131.0 L 358.5,131.4 L 358.0,131.5 L 357.9,131.8 L 357.6,132.2 L 357.4,132.7 L 357.6,133.3 L 358.6,134.2 L 359.0,135.3 L 359.1,136.6 L 359.3,137.6 L 359.0,138.2 L 357.6,139.2 L 354.2,140.9 L 353.6,141.3 L 352.7,142.0 L 351.1,143.5 L 349.9,144.4 L 348.5,145.6 L 348.4,146.1 L 348.6,146.3 L 349.5,146.3 L 350.8,145.8 L 352.2,145.2 L 352.5,145.3 L 353.0,145.8 L 353.0,146.0 L 353.0,146.3 L 353.0,146.5 L 352.5,146.8 L 351.2,147.3 L 350.2,148.0 L 349.5,148.9 L 348.9,150.1 L 348.7,150.5 L 346.8,152.5 L 345.0,153.7 L 343.8,154.8 L 342.7,157.5 L 341.1,158.9 L 340.7,159.2 L 340.2,160.3 L 340.0,161.6 L 340.3,163.1 L 340.3,163.6 L 340.1,164.0 L 339.7,163.8 L 339.4,162.6 L 338.7,161.8 L 337.6,161.7 L 336.2,162.2 L 335.3,162.9 L 335.1,163.6 L 334.9,164.1 L 335.5,164.8 L 335.9,165.8 L 335.7,166.5 L 335.2,167.2 L 334.6,167.4 L 334.3,167.2 L 333.7,165.9 L 333.5,165.8 L 333.4,166.1 L 333.5,166.7 L 333.5,167.3 L 333.7,167.7 L 333.1,168.3 L 332.8,168.4 L 331.3,168.3 L 330.8,168.0 L 329.6,166.9 L 329.2,166.7 L 328.8,166.8 L 328.4,167.2 L 328.2,167.6 L 328.0,169.1 L 327.7,169.8 L 327.0,170.3 L 326.6,170.3 L 326.1,170.5 L 324.8,170.8 L 323.7,170.7 L 323.2,170.2 L 323.1,170.1 L 322.5,169.4 L 320.6,167.7 L 319.0,164.8 L 318.6,164.3 L 317.7,163.8 L 315.9,163.1 L 315.0,163.0 L 314.0,162.2 L 313.3,162.0 L 312.8,161.7 L 312.3,161.0 L 311.7,160.9 L 311.5,160.9 L 311.1,160.5 L 310.4,160.3 L 307.6,159.9 L 306.4,160.1 L 304.5,160.8 L 302.7,161.7 L 302.1,162.4 L 301.4,163.5 L 300.7,164.2 L 301.1,164.7 L 301.0,166.1 L 301.4,167.1 L 301.9,168.4 L 302.4,168.9 L 303.0,169.1 L 303.2,169.7 L 303.5,170.3 L 303.4,171.0 L 303.1,171.1 L 302.1,170.2 L 300.7,169.5 L 298.1,169.1 L 296.4,168.7 L 295.7,168.8 L 294.9,168.7 L 294.4,168.5 L 294.3,168.2 L 295.1,167.3 L 295.2,166.9 L 294.9,166.5 L 294.8,166.3 L 294.4,166.1 L 293.7,165.6 L 292.7,165.4 L 292.3,165.0 L 290.9,164.5 L 290.1,164.0 L 289.1,163.4 L 288.3,162.6 L 287.6,160.6 L 287.6,160.0 L 287.0,158.9 L 287.1,158.1 L 287.5,157.8 L 286.0,156.3 L 285.7,156.1 L 285.5,157.9 L 285.5,158.7 L 285.6,159.3 L 285.5,160.2 L 285.6,161.0 L 285.9,162.0 L 286.1,162.3 L 286.6,163.7 L 286.6,165.0 L 286.4,166.6 L 285.9,166.7 L 284.0,167.8 L 283.5,168.6 L 283.3,169.6 L 283.8,169.8 L 284.0,170.0 L 284.0,170.6 L 283.6,171.1 L 283.5,172.0 L 283.5,172.6 L 284.2,175.5 L 284.5,175.9 L 285.0,176.9 L 285.4,177.2 L 286.3,178.2 L 287.3,180.2 L 287.8,180.9 L 288.1,181.0 L 288.9,181.0 L 289.6,180.9 L 290.3,180.3 L 290.6,179.6 L 290.7,178.6 L 290.5,177.3 L 290.1,176.2 L 290.2,174.6 L 290.5,174.5 L 292.1,174.7 L 292.4,174.3 L 292.4,173.7 L 292.1,173.4 L 292.2,173.0 L 292.4,172.9 L 292.9,173.1 L 293.6,173.9 L 293.8,174.5 L 293.4,175.4 L 293.8,175.9 L 294.3,177.0 L 295.0,177.9 L 295.3,178.8 L 295.3,179.8 L 294.2,182.3 L 293.0,183.3 L 293.1,183.9 L 292.5,183.8 L 291.6,182.9 L 291.0,182.9 L 290.4,183.4 L 290.2,184.1 L 290.7,184.7 L 291.0,185.7 L 291.3,186.1 L 292.3,186.6 L 292.6,186.7 L 293.6,185.7 L 294.1,185.8 L 294.3,186.0 L 295.0,186.1 L 295.3,186.3 L 295.5,187.0 L 295.8,187.6 L 295.8,187.8 L 295.3,189.1 L 294.7,189.3 L 294.6,189.6 L 294.9,190.2 L 294.7,191.8 L 294.9,192.9 L 295.5,193.7 L 296.4,194.5 L 297.0,194.9 L 297.5,195.5 L 297.9,196.0 L 298.3,196.7 L 298.2,197.4 L 297.8,197.9 L 297.0,198.2 L 296.5,198.6 L 295.8,199.4 L 295.7,199.4 L 295.5,200.1 L 295.5,201.1 L 295.5,201.3 L 295.4,201.7 L 295.1,203.4 L 295.5,204.1 L 295.4,205.0 L 295.5,205.6 L 296.2,206.4 L 296.5,208.4 L 296.4,209.4 L 296.8,210.4 L 297.2,211.7 L 297.2,212.4 L 295.7,214.3 L 295.6,214.9 L 296.1,215.3 L 296.1,216.1 L 295.9,216.9 L 296.4,217.8 L 296.5,218.5 L 296.7,219.0 L 296.5,219.7 L 296.1,220.8 L 295.4,221.5 L 293.4,222.8 L 292.0,223.0 L 290.3,222.8 L 289.9,222.3 L 289.5,222.2 L 289.5,222.1 L 289.7,221.4 L 289.6,221.0 L 289.1,220.9 L 288.7,221.2 L 289.0,222.4 L 288.9,222.9 L 288.4,223.1 L 287.7,223.1 L 287.5,222.8 L 287.3,221.9 L 287.1,221.5 L 287.1,220.8 L 287.0,220.4 L 286.6,220.2 L 284.4,221.1 L 284.4,221.5 L 284.8,221.5 L 285.4,221.4 L 285.6,221.7 L 285.9,222.6 L 285.7,223.0 L 284.7,223.8 L 283.4,223.6 L 283.1,223.8 L 282.5,224.9 L 282.5,226.1 L 282.2,226.2 L 281.4,226.8 L 281.2,227.3 L 280.8,228.5 L 280.6,229.5 L 280.9,229.9 L 281.4,230.3 L 282.1,230.5 L 282.4,230.7 L 282.5,232.2 L 283.2,232.9 L 283.3,233.2 L 283.0,233.5 L 282.5,233.5 L 282.2,233.3 L 281.7,233.5 L 281.4,233.5 L 280.6,233.1 L 280.4,233.3 L 280.1,234.2 L 279.8,234.2 L 279.5,234.4 L 279.3,234.9 L 279.5,235.2 L 279.5,235.5 L 279.3,236.2 L 278.8,236.2 L 278.3,237.2 L 277.7,239.7 L 278.0,240.5 L 277.8,241.8 L 277.5,242.3 L 277.0,245.2 L 277.1,245.9 L 277.0,246.4 L 277.2,246.7 L 277.3,247.0 L 277.3,247.4 L 276.7,248.6 L 276.9,251.5 L 277.5,252.9 L 277.6,253.4 L 277.7,253.7 L 277.8,254.3 L 277.8,255.5 L 277.9,256.4 L 278.3,257.3 L 278.1,258.4 L 277.5,259.4 L 276.6,260.2 L 275.3,261.2 L 274.2,261.5 L 273.8,261.7 L 273.4,262.4 L 273.3,263.0 L 273.4,264.5 L 273.6,265.5 L 273.2,266.4 L 273.1,267.3 L 272.5,267.6 L 271.0,267.4 L 270.6,267.2 L 270.4,267.2 L 270.3,266.7 L 270.3,265.8 L 269.5,263.2 L 268.7,261.8 L 268.4,261.6 L 268.2,261.2 L 268.2,261.0 L 266.9,259.9 L 266.6,259.5 L 266.7,259.1 L 267.1,258.5 L 267.4,257.7 L 267.1,257.0 L 266.7,256.7 L 266.0,256.5 L 265.1,256.9 L 264.8,257.2 L 264.6,257.7 L 264.0,257.7 L 263.6,258.1 L 263.7,258.3 L 263.4,259.2 L 263.4,260.9 L 263.2,261.8 L 263.5,262.5 L 263.7,263.0 L 263.7,263.7 L 263.4,264.3 L 262.4,265.2 L 261.5,266.5 L 261.4,266.9 L 262.0,268.6 L 262.5,269.1 L 263.0,269.4 L 263.1,269.8 L 262.9,270.2 L 262.5,270.4 L 262.1,270.4 L 261.7,270.1 L 261.3,269.9 L 260.4,271.2 L 260.3,272.1 L 259.8,272.9 L 259.4,273.2 L 258.8,273.4 L 258.4,273.1 L 257.9,273.1 L 256.5,273.3 L 256.1,273.5 L 255.6,274.1 L 255.1,275.1 L 254.3,275.5 L 252.4,276.1 L 251.9,276.3 L 250.7,276.1 L 250.5,276.2 L 249.8,279.8 L 250.0,280.4 L 250.1,281.8 L 250.3,282.3 L 250.4,283.1 L 250.3,285.0 L 250.7,285.3 L 251.1,285.1 L 251.4,283.9 L 251.6,283.8 L 252.4,283.8 L 252.7,284.0 L 252.6,284.5 L 251.4,286.3 L 251.3,286.8 L 251.0,287.2 L 250.9,287.8 L 251.4,288.6 L 251.5,289.4 L 251.2,290.3 L 250.7,290.7 L 250.3,291.5 L 249.7,292.1 L 248.7,292.4 L 248.1,291.9 L 247.8,291.4 L 247.0,291.1 L 246.4,291.2 L 245.9,291.6 L 244.7,292.5 L 244.6,293.2 L 245.0,294.6 L 245.0,296.0 L 245.1,296.7 L 245.0,297.8 L 244.7,298.3 L 244.8,299.0 L 245.3,299.6 L 246.0,301.9 L 246.4,302.2 L 246.1,303.6 L 246.2,304.7 L 246.5,305.6 L 246.5,306.7 L 246.7,307.5 L 247.0,309.3 L 247.0,309.9 L 246.5,310.3 L 245.6,310.2 L 244.9,309.8 L 242.7,307.7 L 242.0,306.8 L 241.9,306.3 L 242.0,305.5 L 241.9,305.2 L 242.3,304.4 L 242.7,304.0 L 243.5,304.0 L 243.9,303.7 L 244.2,302.2 L 243.0,298.0 L 242.4,297.5 L 241.9,297.3 L 240.3,297.4 L 239.3,297.9 L 239.2,298.9 L 239.3,302.3 L 239.6,302.8 L 239.7,303.1 L 239.2,303.7 L 239.2,304.1 L 239.8,304.8 L 239.7,306.2 L 239.8,306.8 L 241.3,307.1 L 242.8,308.6 L 242.0,308.7 L 133.0,324.5 L 40.0,338.0 L 40.0,338.0 L 40.3,337.9 L 40.5,337.3 L 40.3,336.6 L 40.5,336.3 L 40.9,336.4 L 41.7,336.8 L 42.5,336.4 L 43.3,335.8 L 45.8,333.3 L 46.4,333.0 L 46.9,332.6 L 47.9,330.7 L 48.7,329.5 L 49.9,328.2 L 50.5,327.8 L 51.5,326.9 L 52.2,325.8 L 52.3,325.7 L 52.4,325.0 L 52.9,324.3 L 53.2,323.5 L 54.4,322.4 L 55.7,320.7 L 56.9,318.6 L 56.6,318.0 L 57.1,317.5 L 57.3,316.8 L 57.1,316.3 L 56.6,316.0 L 56.3,315.6 L 56.3,315.0 L 56.4,314.0 L 56.4,313.5 L 56.7,313.3 L 57.1,313.4 L 57.9,314.2 L 59.8,313.6 L 60.3,313.2 L 60.8,311.9 L 60.7,311.5 L 61.0,311.1 L 60.5,310.8 L 60.6,309.9 L 60.2,308.9 L 60.4,308.0 L 60.7,307.8 L 61.2,307.6 L 62.2,307.0 L 62.7,306.1 L 63.5,305.0 L 63.6,304.3 L 64.5,303.0 L 65.0,302.7 L 65.1,302.4 L 65.2,302.3 L 65.4,301.8 L 66.1,300.9 L 66.4,299.8 L 66.3,299.7 L 65.5,299.8 L 65.0,298.8 L 64.9,298.0 L 65.4,295.2 L 66.2,293.7 L 66.3,293.3 L 66.7,292.8 L 67.0,291.5 L 67.0,290.9 L 67.3,290.0 L 67.8,289.6 L 67.9,289.4 L 67.4,288.9 L 68.4,287.1 L 68.2,286.7 L 68.2,286.0 L 68.9,286.0 L 68.9,285.5 L 68.6,284.7 L 68.8,284.2 L 69.5,283.5 L 69.7,282.8 L 70.2,282.8 L 70.5,282.4 L 71.5,280.4 L 71.7,280.0 L 71.9,279.5 L 72.1,279.0 L 72.3,277.3 L 72.9,276.6 L 73.0,275.5 L 72.7,274.8 L 72.3,274.6 L 70.3,274.7 L 69.3,275.0 L 68.7,274.9 L 68.3,274.7 L 68.2,274.3 L 68.3,274.0 L 67.7,273.7 L 67.2,273.3 L 66.6,273.3 L 65.6,273.8 L 64.8,273.8 L 64.7,273.2 L 64.4,272.9 L 63.8,273.2 L 63.6,272.9 L 63.9,272.2 L 63.9,271.8 L 63.7,271.6 L 62.2,271.4 L 61.8,271.6 L 60.1,274.0 L 59.6,274.5 L 59.4,274.7 L 59.2,275.5 L 58.9,275.6 L 58.8,275.2 L 58.6,275.1 L 57.7,275.6 L 57.6,275.8 L 57.4,276.8 L 57.5,277.1 L 58.1,276.9 L 58.6,276.6 L 58.9,276.5 L 59.2,277.0 L 59.7,277.1 L 59.9,277.3 L 59.9,277.6 L 59.5,278.0 L 59.3,278.8 L 57.8,279.2 L 57.1,279.6 L 56.8,279.9 L 56.6,280.4 L 56.2,280.8 L 54.6,281.5 L 53.5,282.1 L 53.2,281.9 L 52.6,282.6 L 52.2,282.8 L 51.9,282.6 L 51.4,282.4 L 51.1,282.6 L 50.7,283.1 L 50.2,283.4 L 49.9,283.0 L 48.6,284.6 L 48.0,285.0 L 47.1,285.8 L 46.9,287.3 L 46.4,287.6 L 45.2,287.9 L 44.4,288.0 L 43.3,288.3 L 42.9,288.4 L 43.1,287.1 L 43.8,286.7 L 44.1,285.7 L 44.6,285.3 L 45.2,285.0 L 46.3,284.1 L 47.2,282.8 L 47.7,281.6 L 48.6,280.8 L 49.9,280.2 L 50.1,280.0 L 51.0,279.2 L 52.6,277.1 L 54.1,275.8 L 54.3,275.3 L 54.0,274.5 L 53.8,274.2 L 53.9,273.7 L 54.1,273.2 L 54.0,272.9 L 53.7,272.7 L 53.7,272.1 L 53.8,271.4 L 55.2,270.0 L 57.1,268.7 L 58.1,268.5 L 58.3,268.4 L 60.4,268.7 L 63.5,268.7 L 64.4,268.9 L 65.1,269.1 L 65.4,269.2 L 66.0,269.4 L 66.3,269.8 L 67.5,269.9 L 67.7,269.9 L 69.5,269.0 L 71.1,267.9 L 71.5,268.1 L 72.3,267.6 L 73.1,266.6 L 73.3,266.4 L 73.5,266.5 L 74.0,266.1 L 74.6,265.3 L 74.6,264.9 L 74.1,264.7 L 77.4,260.8 L 78.4,259.9 L 79.5,259.3 L 79.7,258.9 L 81.4,258.2 L 82.4,257.3 L 82.5,256.8 L 82.2,256.4 L 82.0,254.7 L 82.4,254.1 L 82.4,253.5 L 82.2,253.4 L 82.0,253.1 L 82.1,252.2 L 82.4,251.7 L 82.6,250.5 L 82.9,249.5 L 82.9,249.5 L 83.7,249.1 L 83.8,248.4 L 83.5,247.9 L 82.4,247.7 L 82.3,246.6 L 81.6,245.8 L 81.3,245.2 L 81.0,245.0 L 80.2,245.0 L 79.6,244.8 L 79.3,244.8 L 78.7,245.2 L 78.4,245.1 L 77.9,244.4 L 77.9,244.1 L 78.3,243.4 L 79.3,242.6 L 79.3,242.2 L 78.7,242.1 L 77.5,242.7 L 77.4,242.4 L 77.4,241.9 L 77.2,241.9 L 77.2,241.3 L 77.1,241.2 L 76.5,241.3 L 75.9,241.7 L 73.9,242.9 L 73.2,243.4 L 72.9,243.9 L 72.5,244.2 L 72.1,244.2 L 71.7,243.9 L 72.0,243.2 L 72.6,242.3 L 73.3,240.7 L 73.2,240.6 L 72.8,240.6 L 72.2,240.6 L 71.8,239.9 L 71.2,239.6 L 70.4,239.7 L 70.0,239.3 L 69.6,239.3 L 68.3,239.9 L 67.3,239.8 L 67.0,239.6 L 66.8,239.2 L 67.5,238.5 L 68.6,238.0 L 69.8,237.2 L 70.9,237.1 L 71.5,236.8 L 72.5,235.6 L 73.6,234.3 L 74.6,233.1 L 74.8,232.6 L 75.0,232.3 L 75.7,231.8 L 76.9,230.4 L 77.1,230.0 L 77.5,229.4 L 77.1,227.1 L 77.2,226.9 L 77.5,226.6 L 78.2,226.6 L 79.0,227.1 L 78.7,228.7 L 79.1,228.6 L 80.6,227.6 L 80.6,227.0 L 80.9,226.8 L 81.3,226.7 L 81.5,226.3 L 81.4,226.1 L 79.8,226.7 L 79.5,226.6 L 79.2,226.3 L 79.3,225.9 L 79.6,225.7 L 80.8,225.3 L 81.1,224.9 L 81.5,224.8 L 81.9,224.2 L 82.6,223.8 L 82.8,223.5 L 83.2,222.9 L 83.6,222.4 L 83.6,221.9 L 83.3,221.3 L 83.1,219.4 L 83.5,218.1 L 84.1,217.6 L 84.2,217.2 L 84.5,217.1 L 85.1,217.4 L 85.6,218.0 L 85.7,218.7 L 85.4,219.1 L 85.3,219.5 L 85.4,219.7 L 85.8,219.7 L 86.6,219.2 L 86.8,219.1 L 87.2,218.7 L 87.2,218.3 L 86.9,218.1 L 87.0,217.3 L 86.7,216.8 L 86.9,216.6 L 87.7,216.6 L 88.2,216.5 L 88.5,215.7 L 89.4,214.9 L 89.8,213.6 L 89.7,212.8 L 89.2,211.8 L 89.2,211.0 L 89.3,209.8 L 89.2,209.2 L 89.2,208.1 L 89.0,207.3 L 88.6,206.4 L 89.0,205.7 L 90.5,204.5 L 92.0,203.7 L 92.7,203.7 L 93.2,204.1 L 93.6,204.2 L 94.0,204.4 L 94.6,204.2 L 95.1,203.7 L 95.2,202.4 L 95.7,200.8 L 96.0,200.1 L 96.8,200.0 L 96.3,199.7 L 97.2,198.0 L 97.2,198.0 L 97.8,197.9 L 98.8,197.9 L 99.3,197.8 L 99.6,197.6 L 99.5,197.2 L 99.8,196.5 L 100.1,196.6 L 100.4,196.7 L 101.1,196.2 L 102.0,195.0 L 102.7,194.5 L 103.3,195.1" fill="none" stroke="black" stroke-width="2"/>
</svg>