<?xml version="1.0" encoding="UTF-8"?>
<svg width="400" height="400" viewBox="0 0 400 400" xmlns="http://www.w3.org/2000/svg">
  <rect width="400" height="400" fill="white"/>
  <path d="M 154.5,258.4 L 102.2,172.3 L 103.3,172.3 L 103.6,171.8 L 103.4,168.8 L 103.5,168.4 L 103.0,167.4 L 102.4,166.8 L 101.5,165.1 L 101.1,164.4 L 100.2,164.1 L 99.8,162.6 L 99.1,161.9 L 98.4,161.7 L 97.3,163.1 L 97.3,163.2 L 96.9,162.8 L 95.5,161.3 L 95.9,161.3 L 98.2,160.6 L 98.9,155.9 L 98.6,155.2 L 99.2,154.9 L 99.3,155.4 L 99.1,156.9 L 99.2,158.3 L 99.5,159.2 L 100.6,160.0 L 101.5,160.0 L 102.9,159.3 L 103.9,158.6 L 104.2,157.7 L 104.7,158.0 L 104.5,159.8 L 105.0,160.4 L 106.0,160.6 L 106.9,161.0 L 107.3,161.4 L 107.3,162.2 L 106.5,162.4 L 105.4,163.1 L 104.7,163.9 L 105.5,165.0 L 106.5,165.3 L 107.9,164.5 L 108.0,163.6 L 109.3,163.9 L 109.7,164.3 L 109.4,166.2 L 109.7,167.4 L 109.7,168.1 L 109.0,169.4 L 109.4,171.0 L 111.2,172.6 L 113.6,172.8 L 114.2,172.2 L 114.5,171.5 L 116.1,171.5 L 117.3,171.0 L 118.3,170.9 L 118.5,170.6 L 118.9,169.8 L 119.3,169.6 L 119.6,169.1 L 120.3,168.6 L 121.4,168.1 L 121.7,167.6 L 121.5,167.1 L 121.2,166.2 L 122.0,166.0 L 122.3,165.3 L 122.5,164.1 L 122.1,163.1 L 122.3,162.9 L 123.1,163.7 L 123.8,163.5 L 124.2,163.0 L 124.0,162.4 L 124.4,162.0 L 123.6,159.5 L 123.0,158.7 L 123.1,158.0 L 121.8,154.9 L 120.7,154.2 L 118.9,154.0 L 117.4,153.3 L 117.2,153.8 L 113.7,153.6 L 113.2,153.3 L 111.5,151.5 L 110.1,151.2 L 109.7,150.9 L 108.5,150.7 L 107.9,151.5 L 108.3,153.6 L 107.5,154.3 L 106.2,154.7 L 105.0,154.9 L 104.7,153.6 L 104.0,153.9 L 102.6,153.2 L 102.1,152.8 L 100.8,152.3 L 100.7,152.7 L 100.3,153.0 L 100.1,153.3 L 100.6,154.0 L 101.1,154.2 L 101.5,154.7 L 100.5,155.2 L 99.4,154.7 L 99.0,153.8 L 98.4,153.7 L 97.8,153.1 L 96.7,152.2 L 97.0,151.0 L 97.4,150.6 L 97.3,150.1 L 97.5,148.6 L 96.3,147.6 L 93.6,147.6 L 93.1,148.1 L 92.0,147.8 L 91.3,147.2 L 91.0,146.2 L 91.3,145.3 L 92.3,144.0 L 93.0,143.9 L 93.5,143.3 L 93.5,142.3 L 93.2,139.9 L 94.0,139.1 L 94.0,137.7 L 93.6,137.1 L 93.7,136.7 L 88.8,135.8 L 88.8,136.0 L 84.0,136.0 L 82.4,137.3 L 81.7,137.1 L 80.2,138.9 L 79.9,140.1 L 79.7,140.0 L 79.7,139.3 L 80.1,138.7 L 78.7,138.4 L 78.9,137.5 L 79.4,137.3 L 80.0,137.8 L 80.5,137.7 L 80.5,136.8 L 80.2,136.2 L 77.8,135.6 L 78.0,135.0 L 79.2,134.1 L 80.6,134.1 L 80.7,133.5 L 79.2,133.2 L 79.0,131.9 L 78.2,131.3 L 77.7,131.2 L 76.7,130.9 L 76.9,129.7 L 78.1,129.1 L 79.0,129.0 L 79.4,128.7 L 80.0,128.7 L 80.1,127.8 L 79.5,126.9 L 79.3,125.6 L 79.6,124.9 L 79.5,124.7 L 79.9,124.2 L 79.6,123.1 L 79.9,122.4 L 80.0,121.6 L 80.4,121.3 L 82.8,121.5 L 82.3,120.5 L 82.7,120.1 L 83.9,119.2 L 84.2,118.1 L 84.1,117.5 L 87.1,115.7 L 87.5,115.9 L 87.9,117.0 L 87.5,117.5 L 87.5,117.9 L 87.8,118.9 L 87.6,120.1 L 87.0,120.2 L 86.5,120.5 L 86.1,121.7 L 87.5,123.7 L 88.2,123.9 L 88.1,124.4 L 86.2,123.8 L 86.1,124.3 L 87.1,125.5 L 87.3,126.7 L 87.8,126.8 L 88.4,127.1 L 89.2,127.1 L 89.7,126.7 L 89.2,126.0 L 89.6,126.0 L 90.3,126.3 L 90.8,126.4 L 91.2,126.1 L 91.7,126.9 L 93.4,126.9 L 94.5,127.4 L 96.3,126.6 L 97.3,125.6 L 97.6,125.1 L 98.0,124.7 L 97.7,124.2 L 97.6,123.5 L 96.9,122.7 L 97.0,122.2 L 96.6,121.6 L 96.7,119.6 L 97.4,120.6 L 98.3,120.6 L 98.5,119.8 L 99.0,119.7 L 99.3,119.8 L 99.8,120.4 L 100.1,120.3 L 100.0,119.3 L 100.9,118.5 L 99.6,116.9 L 99.0,115.9 L 96.4,113.0 L 95.3,112.3 L 94.6,112.4 L 94.2,113.4 L 93.8,113.3 L 93.0,112.5 L 92.5,112.2 L 91.9,111.6 L 91.2,111.4 L 91.6,109.0 L 91.4,108.5 L 91.8,107.7 L 91.8,107.1 L 91.3,106.5 L 90.5,105.3 L 89.9,105.5 L 89.5,106.4 L 88.9,106.4 L 88.6,106.0 L 89.0,103.2 L 89.6,101.9 L 91.5,100.5 L 92.0,100.3 L 92.5,99.0 L 94.3,99.2 L 94.4,99.6 L 94.9,100.1 L 94.8,101.3 L 94.2,101.5 L 92.5,101.8 L 91.3,102.3 L 91.0,103.3 L 93.4,106.4 L 94.6,107.8 L 95.0,108.2 L 95.8,108.8 L 97.8,109.4 L 98.9,109.2 L 99.5,109.4 L 100.3,110.3 L 102.4,110.9 L 101.9,109.7 L 102.0,109.3 L 102.4,107.9 L 103.3,107.3 L 104.0,107.2 L 104.2,105.9 L 104.1,105.7 L 104.1,105.4 L 104.3,105.4 L 104.8,104.0 L 104.1,103.7 L 104.2,102.9 L 105.2,101.7 L 105.6,101.1 L 106.4,101.2 L 107.4,102.4 L 107.5,102.4 L 108.3,102.3 L 108.9,102.5 L 109.7,104.2 L 110.5,104.9 L 111.2,105.3 L 111.2,105.9 L 111.2,106.6 L 111.8,107.2 L 112.9,107.9 L 113.1,108.0 L 113.4,107.7 L 113.2,107.3 L 113.6,106.7 L 114.5,106.5 L 115.0,106.5 L 115.3,106.6 L 115.4,107.2 L 114.4,108.8 L 114.1,109.7 L 113.8,111.1 L 114.4,111.4 L 114.2,112.7 L 113.3,113.0 L 113.0,114.1 L 114.4,117.0 L 114.7,117.8 L 115.5,120.0 L 118.5,122.7 L 119.8,122.8 L 121.2,122.0 L 121.7,121.4 L 122.4,121.3 L 125.0,123.9 L 125.6,123.6 L 126.4,125.5 L 127.3,124.9 L 128.8,125.1 L 129.1,125.5 L 128.3,126.1 L 128.4,126.6 L 131.3,127.0 L 132.5,127.9 L 134.4,127.9 L 135.0,127.5 L 135.8,128.1 L 137.5,128.2 L 138.3,128.1 L 140.5,128.2 L 141.9,128.7 L 142.5,128.5 L 143.1,128.6 L 143.6,128.0 L 143.7,127.3 L 144.1,127.0 L 143.8,126.5 L 142.8,125.9 L 141.2,125.6 L 141.1,125.3 L 141.3,124.2 L 142.5,124.4 L 143.4,124.0 L 144.5,123.9 L 144.8,123.4 L 144.6,122.9 L 143.4,122.6 L 143.3,122.3 L 142.2,122.0 L 141.2,121.2 L 139.7,121.1 L 139.2,121.3 L 139.4,121.8 L 139.0,122.4 L 137.5,122.4 L 134.5,122.1 L 131.7,120.8 L 130.6,120.2 L 129.3,119.9 L 125.5,120.0 L 125.4,119.3 L 125.6,118.3 L 126.0,117.2 L 126.4,117.1 L 126.8,117.2 L 129.1,114.8 L 129.4,113.6 L 129.7,113.6 L 130.5,113.3 L 130.7,113.7 L 130.5,114.7 L 130.9,116.1 L 131.5,116.8 L 132.3,117.0 L 132.5,117.3 L 133.1,117.5 L 133.8,118.0 L 134.5,117.8 L 135.9,117.8 L 136.8,117.5 L 137.6,117.4 L 138.2,118.0 L 139.1,118.3 L 139.2,118.6 L 139.3,118.8 L 140.9,120.4 L 141.1,120.4 L 141.6,119.3 L 143.4,119.8 L 143.7,118.3 L 144.1,118.0 L 143.8,116.7 L 144.6,116.8 L 145.3,118.1 L 146.2,118.6 L 147.0,118.3 L 147.2,118.6 L 147.8,118.4 L 148.7,118.5 L 149.9,120.5 L 149.7,120.6 L 148.8,120.3 L 148.3,120.5 L 148.4,121.0 L 148.9,121.2 L 149.3,121.9 L 150.0,122.0 L 150.5,121.5 L 151.1,122.1 L 151.8,121.7 L 153.6,121.1 L 154.9,122.1 L 156.6,121.3 L 157.9,119.3 L 158.2,117.9 L 158.5,117.3 L 159.0,117.5 L 158.6,118.0 L 158.0,119.4 L 159.0,120.1 L 159.9,119.4 L 160.5,118.3 L 160.7,117.6 L 161.1,116.5 L 161.5,115.4 L 161.9,114.4 L 162.2,113.8 L 162.5,113.9 L 162.9,113.2 L 162.7,113.1 L 162.7,111.7 L 163.4,112.0 L 164.7,110.8 L 166.0,109.7 L 166.6,108.8 L 167.2,108.5 L 167.5,107.8 L 167.9,106.2 L 168.8,104.8 L 169.0,103.5 L 169.3,103.4 L 169.9,103.1 L 171.3,103.3 L 172.3,103.4 L 172.6,103.0 L 172.3,102.8 L 172.4,102.6 L 171.5,102.5 L 171.5,102.6 L 170.2,102.5 L 170.0,101.2 L 169.8,100.9 L 169.0,100.1 L 167.5,98.7 L 167.6,97.3 L 168.2,97.1 L 168.6,96.5 L 169.2,96.4 L 170.6,97.4 L 170.8,97.7 L 170.7,98.2 L 171.0,98.5 L 171.3,98.5 L 171.5,98.0 L 171.8,97.9 L 172.0,98.1 L 171.8,99.5 L 172.2,100.1 L 172.4,100.2 L 173.0,99.7 L 173.1,99.6 L 173.7,99.8 L 173.7,100.7 L 174.6,100.8 L 175.4,100.9 L 175.4,100.5 L 175.5,99.2 L 175.5,98.8 L 174.9,99.0 L 173.6,98.6 L 173.6,98.1 L 173.8,96.6 L 174.3,95.8 L 176.1,93.5 L 176.6,92.2 L 176.4,90.1 L 176.7,88.2 L 177.4,88.3 L 177.8,88.6 L 178.4,88.6 L 178.8,88.2 L 180.2,87.0 L 180.2,86.9 L 181.0,84.8 L 181.9,84.3 L 181.5,83.2 L 181.9,81.6 L 181.8,80.7 L 182.5,80.0 L 182.6,79.4 L 183.5,78.7 L 183.8,78.1 L 186.0,75.9 L 186.8,74.4 L 186.9,72.1 L 187.4,71.4 L 186.1,70.1 L 185.1,69.7 L 184.7,69.8 L 183.7,69.4 L 183.1,69.6 L 182.8,69.9 L 182.8,69.9 L 180.4,71.0 L 179.5,71.1 L 179.2,70.7 L 179.1,69.6 L 178.7,68.9 L 178.8,68.6 L 178.9,66.0 L 179.8,63.3 L 180.7,62.3 L 181.0,61.4 L 181.8,59.8 L 181.5,59.0 L 181.5,57.3 L 182.3,56.8 L 182.7,55.5 L 182.3,53.1 L 182.6,52.2 L 183.1,51.9 L 183.4,51.1 L 181.1,48.8 L 180.5,48.0 L 179.8,47.4 L 180.0,46.2 L 179.5,45.6 L 180.3,44.4 L 180.0,43.9 L 179.3,44.1 L 179.4,43.5 L 180.0,43.8 L 180.2,43.0 L 180.8,42.7 L 181.4,42.7 L 182.1,42.4 L 182.8,42.7 L 183.3,43.4 L 184.0,43.1 L 184.2,42.7 L 184.9,42.1 L 184.1,41.7 L 184.3,40.8 L 183.4,40.5 L 183.4,40.0 L 183.9,40.1 L 232.9,46.2 L 233.1,47.0 L 233.0,47.8 L 234.1,48.7 L 235.4,48.9 L 235.6,49.5 L 236.2,49.9 L 236.0,51.3 L 236.2,51.6 L 237.2,51.7 L 237.3,50.2 L 238.1,49.7 L 239.1,49.8 L 239.7,50.3 L 239.9,50.8 L 239.2,51.2 L 239.0,51.6 L 239.3,51.9 L 240.2,52.3 L 240.6,52.8 L 241.5,52.9 L 242.3,53.5 L 244.4,53.4 L 245.3,53.1 L 245.4,52.5 L 244.4,50.8 L 244.2,50.2 L 245.0,49.8 L 245.8,50.5 L 247.3,50.6 L 247.8,50.3 L 249.3,50.0 L 249.5,50.5 L 248.8,51.3 L 248.8,52.4 L 248.5,53.1 L 249.3,54.8 L 250.3,55.7 L 251.5,55.9 L 252.0,56.3 L 253.2,56.6 L 253.9,58.1 L 253.6,58.2 L 252.1,57.6 L 251.6,57.8 L 250.9,57.4 L 250.3,57.7 L 250.0,58.1 L 250.6,60.1 L 249.8,60.3 L 249.7,60.9 L 250.3,62.3 L 251.2,62.4 L 252.2,62.3 L 253.2,63.5 L 253.0,63.6 L 252.0,63.1 L 251.2,63.4 L 249.2,63.4 L 248.6,64.3 L 248.8,65.0 L 249.4,65.6 L 251.1,66.7 L 252.1,66.6 L 252.0,67.5 L 251.2,68.0 L 251.0,69.1 L 250.5,69.3 L 249.3,67.7 L 248.4,67.4 L 247.7,68.1 L 246.7,68.4 L 246.3,69.0 L 245.8,69.1 L 245.2,69.6 L 244.9,70.3 L 244.8,71.2 L 244.2,71.7 L 243.9,71.6 L 242.5,71.9 L 241.9,72.4 L 241.6,73.7 L 241.8,76.2 L 242.7,77.9 L 243.3,77.9 L 243.6,76.8 L 243.9,76.8 L 244.1,78.2 L 244.8,78.6 L 245.0,79.8 L 245.6,80.5 L 245.5,81.0 L 245.7,82.1 L 247.1,84.5 L 247.0,85.2 L 245.8,84.9 L 243.5,82.3 L 243.1,82.4 L 243.4,83.0 L 242.3,84.6 L 241.4,84.1 L 241.4,80.4 L 240.3,77.9 L 239.3,76.1 L 238.6,75.2 L 237.8,74.5 L 235.7,73.9 L 235.3,73.5 L 234.8,73.4 L 233.3,73.9 L 233.1,77.5 L 233.6,79.1 L 234.4,80.4 L 234.4,81.1 L 235.2,82.3 L 234.7,82.5 L 234.0,83.1 L 232.3,83.7 L 231.2,84.5 L 231.0,85.5 L 231.4,87.4 L 231.0,88.1 L 230.8,89.2 L 231.7,91.5 L 231.8,92.4 L 232.8,94.2 L 233.4,94.5 L 234.0,97.1 L 234.6,99.0 L 236.6,100.4 L 236.5,101.8 L 237.0,103.1 L 238.3,104.4 L 238.8,106.0 L 239.3,106.9 L 240.1,107.3 L 240.7,107.9 L 241.7,108.6 L 242.2,108.6 L 242.7,108.1 L 242.8,107.2 L 243.5,105.4 L 243.7,104.1 L 242.6,100.9 L 243.7,100.0 L 243.6,99.0 L 244.1,98.8 L 244.5,99.6 L 245.1,100.5 L 245.3,101.2 L 246.1,103.3 L 246.8,103.3 L 247.5,102.8 L 247.3,102.1 L 247.4,100.9 L 247.9,101.1 L 248.4,102.9 L 248.8,103.5 L 248.8,104.7 L 249.4,105.6 L 250.3,105.9 L 251.1,106.8 L 251.0,107.6 L 251.3,108.1 L 252.2,108.2 L 253.7,107.2 L 254.3,107.4 L 254.3,107.9 L 254.5,108.1 L 255.4,108.5 L 255.4,109.1 L 255.8,109.6 L 256.9,109.8 L 257.8,110.2 L 258.7,110.2 L 259.5,109.3 L 259.6,108.2 L 259.4,107.8 L 259.0,107.6 L 259.7,107.6 L 261.6,106.8 L 262.7,105.9 L 262.9,105.5 L 263.9,104.6 L 263.8,103.6 L 264.2,102.8 L 264.2,101.7 L 263.3,100.2 L 263.3,99.9 L 263.9,99.2 L 264.1,98.8 L 266.2,99.6 L 267.9,97.6 L 268.0,96.7 L 267.0,95.0 L 267.3,94.4 L 267.1,93.8 L 267.9,93.1 L 267.8,92.5 L 267.1,92.3 L 267.0,91.3 L 267.5,88.6 L 268.1,87.9 L 269.3,88.1 L 269.7,88.5 L 270.2,88.5 L 270.9,87.5 L 271.5,87.7 L 271.6,88.6 L 271.5,89.1 L 271.7,90.9 L 271.1,91.7 L 271.0,92.4 L 271.6,93.1 L 271.4,94.5 L 270.6,94.7 L 270.2,95.2 L 270.7,96.3 L 269.7,98.3 L 268.8,99.2 L 268.0,100.5 L 268.5,101.1 L 268.5,102.0 L 268.9,102.5 L 268.8,103.1 L 267.5,106.5 L 265.9,107.7 L 264.8,108.1 L 264.0,107.4 L 262.5,108.1 L 262.0,109.3 L 261.1,110.7 L 258.9,112.8 L 258.8,115.1 L 259.0,117.0 L 258.7,119.5 L 259.1,121.7 L 259.0,123.5 L 258.5,125.1 L 256.9,126.9 L 256.4,127.9 L 256.7,128.4 L 257.5,128.6 L 257.9,129.0 L 259.3,128.6 L 259.5,127.6 L 260.0,127.7 L 260.7,127.6 L 261.4,127.2 L 262.2,127.1 L 262.7,126.1 L 262.5,125.2 L 262.7,124.5 L 263.2,124.2 L 263.5,124.6 L 263.6,125.3 L 264.0,125.4 L 264.9,124.8 L 265.5,126.1 L 265.7,126.9 L 266.1,127.5 L 265.4,128.6 L 265.1,129.6 L 265.4,130.4 L 266.1,130.6 L 266.5,132.1 L 267.0,132.8 L 267.7,132.7 L 268.3,133.1 L 268.8,134.1 L 269.4,134.8 L 269.7,135.7 L 270.3,136.2 L 270.6,136.6 L 269.9,137.0 L 268.4,136.5 L 266.6,136.3 L 265.9,136.5 L 265.3,137.0 L 264.9,138.6 L 265.2,139.9 L 265.8,140.7 L 265.9,141.8 L 265.3,141.8 L 264.0,141.2 L 263.4,140.5 L 262.3,140.0 L 261.1,140.0 L 259.4,139.4 L 258.6,139.7 L 258.4,139.4 L 256.9,138.9 L 256.9,138.0 L 255.8,137.7 L 255.0,137.3 L 254.4,137.2 L 254.1,138.2 L 253.3,137.3 L 252.6,137.6 L 252.3,139.1 L 252.7,139.7 L 251.8,140.5 L 251.5,141.7 L 250.8,141.7 L 249.8,142.1 L 249.4,142.7 L 249.6,143.1 L 250.2,143.5 L 251.0,143.4 L 251.4,143.7 L 251.4,144.2 L 251.0,144.5 L 250.0,144.1 L 249.5,144.4 L 249.4,145.1 L 250.5,145.8 L 250.9,146.3 L 251.2,146.5 L 251.8,147.1 L 252.3,146.8 L 252.6,147.2 L 253.2,148.3 L 254.2,148.8 L 254.7,148.8 L 255.2,148.3 L 256.0,147.7 L 255.9,147.5 L 255.6,146.4 L 255.9,146.1 L 257.3,147.3 L 257.4,147.6 L 257.6,148.0 L 258.2,148.8 L 258.3,149.5 L 259.1,150.3 L 259.9,150.4 L 260.4,149.4 L 260.4,147.9 L 260.4,147.2 L 260.8,146.9 L 261.5,147.1 L 262.4,146.4 L 263.2,146.0 L 263.5,145.4 L 263.7,144.5 L 264.6,145.5 L 264.2,145.9 L 264.2,147.3 L 264.5,148.3 L 264.5,148.3 L 266.3,148.7 L 266.9,149.6 L 267.4,149.5 L 267.7,148.5 L 267.7,148.5 L 269.5,148.3 L 271.6,147.4 L 273.2,146.4 L 274.0,144.1 L 274.2,144.8 L 274.5,146.6 L 275.0,147.1 L 274.9,149.2 L 274.9,149.9 L 275.5,150.5 L 276.9,150.0 L 275.1,153.2 L 275.5,154.0 L 275.3,156.3 L 275.5,157.8 L 276.3,158.6 L 277.0,158.6 L 277.7,158.1 L 278.6,156.4 L 279.2,156.0 L 279.8,153.8 L 281.4,151.8 L 282.2,151.2 L 282.7,151.2 L 282.8,151.5 L 282.2,152.2 L 281.9,153.5 L 281.2,154.3 L 282.4,157.2 L 282.8,157.8 L 282.7,159.3 L 282.3,160.6 L 283.1,162.1 L 283.5,162.8 L 285.5,163.0 L 286.9,162.6 L 287.2,162.4 L 289.5,160.6 L 290.0,160.5 L 290.8,159.9 L 291.8,160.0 L 291.5,161.9 L 290.8,163.0 L 290.5,163.8 L 290.3,164.2 L 289.2,164.3 L 288.7,163.7 L 287.7,163.6 L 287.1,164.1 L 286.0,165.9 L 284.8,166.6 L 283.5,167.5 L 283.3,168.0 L 284.3,169.3 L 283.8,170.1 L 284.6,170.4 L 290.5,171.7 L 292.6,172.0 L 292.9,171.8 L 293.3,171.7 L 293.6,172.4 L 294.6,172.7 L 294.7,173.1 L 286.3,172.0 L 286.0,172.4 L 285.1,172.4 L 284.6,172.9 L 283.1,172.9 L 282.7,173.6 L 282.3,174.7 L 281.0,175.0 L 280.8,175.2 L 280.5,177.0 L 279.6,177.6 L 279.4,179.3 L 280.1,180.1 L 279.9,181.1 L 280.8,183.0 L 280.7,183.7 L 281.0,186.4 L 280.5,186.2 L 278.9,186.4 L 277.0,189.2 L 276.5,193.1 L 277.0,193.6 L 276.4,193.2 L 276.1,193.0 L 275.0,193.2 L 274.3,193.9 L 274.6,195.0 L 273.0,196.2 L 272.1,198.3 L 271.5,201.7 L 270.9,202.3 L 270.5,203.9 L 271.5,205.0 L 270.5,204.9 L 270.2,205.7 L 270.2,207.1 L 270.1,207.9 L 268.3,209.8 L 267.9,211.4 L 268.2,212.5 L 268.1,213.7 L 268.3,214.2 L 269.0,215.1 L 269.3,216.9 L 268.5,217.0 L 267.7,218.5 L 267.5,219.1 L 267.3,220.2 L 267.6,220.3 L 267.7,221.4 L 268.5,222.0 L 268.4,223.4 L 269.0,224.2 L 269.0,224.9 L 268.5,225.0 L 266.7,222.5 L 263.5,222.1 L 263.2,222.2 L 262.8,223.4 L 262.9,224.8 L 263.7,227.0 L 263.2,229.1 L 263.3,229.8 L 263.0,230.2 L 263.1,231.2 L 263.1,231.6 L 263.9,233.6 L 264.0,234.5 L 264.5,235.2 L 265.8,239.0 L 265.6,240.5 L 264.9,240.5 L 265.8,241.9 L 267.4,241.3 L 267.9,241.3 L 267.8,241.6 L 266.6,242.7 L 266.1,244.5 L 265.2,244.5 L 264.9,244.0 L 264.6,243.8 L 263.2,245.1 L 261.9,246.5 L 261.2,246.4 L 259.5,247.4 L 259.0,248.0 L 259.3,248.5 L 260.7,248.8 L 261.5,248.6 L 262.0,249.0 L 263.7,249.3 L 265.7,248.6 L 265.7,249.1 L 264.0,250.4 L 263.8,250.9 L 264.7,251.5 L 266.5,250.6 L 267.0,249.7 L 267.3,248.3 L 269.0,248.5 L 268.8,250.3 L 269.1,250.8 L 268.7,251.0 L 268.2,250.6 L 267.8,250.9 L 267.7,251.5 L 267.9,252.0 L 268.8,251.5 L 269.0,251.9 L 270.5,252.4 L 270.7,253.1 L 269.6,253.9 L 269.4,254.4 L 269.3,255.7 L 270.3,256.4 L 271.5,256.2 L 274.3,255.1 L 272.0,256.9 L 270.3,258.4 L 269.5,258.6 L 268.3,260.1 L 268.5,260.4 L 268.3,261.5 L 268.6,263.3 L 269.2,263.5 L 269.1,264.4 L 269.9,265.7 L 270.2,266.4 L 270.6,267.0 L 270.4,269.0 L 270.7,269.5 L 271.4,270.0 L 272.0,271.0 L 271.6,271.4 L 271.4,272.2 L 272.6,272.9 L 274.2,272.8 L 274.4,271.6 L 274.8,271.0 L 274.4,269.5 L 274.8,269.1 L 275.5,269.9 L 275.8,269.5 L 275.5,268.0 L 276.0,266.9 L 277.3,266.3 L 278.2,265.5 L 278.7,264.8 L 279.0,263.7 L 279.7,263.9 L 279.9,264.2 L 280.1,264.9 L 281.3,266.3 L 282.2,266.4 L 282.3,267.3 L 282.0,267.9 L 281.8,268.8 L 281.9,270.3 L 281.0,271.9 L 280.6,273.7 L 280.7,274.9 L 281.6,276.3 L 281.4,277.3 L 280.9,277.9 L 280.7,278.7 L 280.1,279.4 L 278.5,283.9 L 277.6,286.9 L 277.4,286.5 L 276.0,285.9 L 274.9,286.7 L 274.5,289.8 L 273.8,289.8 L 273.8,289.8 L 273.8,289.8 L 273.4,288.3 L 272.4,287.8 L 272.2,286.7 L 272.3,285.5 L 272.0,284.4 L 271.6,284.1 L 271.3,282.6 L 270.6,281.8 L 269.8,282.3 L 269.0,281.3 L 267.5,281.1 L 266.6,281.7 L 264.6,282.3 L 264.7,283.3 L 265.2,284.6 L 264.7,285.5 L 264.7,287.1 L 264.9,287.6 L 264.9,288.8 L 265.0,289.0 L 265.3,289.9 L 264.9,290.8 L 264.8,293.0 L 265.1,293.5 L 265.0,294.0 L 264.0,294.4 L 264.1,294.9 L 265.0,295.3 L 265.1,296.3 L 264.7,296.6 L 263.7,296.2 L 263.0,297.1 L 263.2,297.6 L 263.2,298.9 L 262.8,299.5 L 262.4,301.9 L 261.8,303.1 L 262.3,304.7 L 264.8,308.1 L 265.4,307.9 L 266.1,307.5 L 266.3,307.0 L 268.0,306.7 L 268.4,305.7 L 268.7,305.7 L 268.1,306.7 L 267.9,308.8 L 268.2,309.2 L 268.1,310.3 L 267.5,311.1 L 267.4,312.3 L 268.0,314.8 L 268.6,315.6 L 269.6,315.6 L 270.5,315.7 L 271.4,314.4 L 272.3,311.7 L 272.3,310.5 L 271.9,309.4 L 271.3,309.0 L 271.7,306.1 L 271.6,305.7 L 271.8,305.2 L 272.1,302.7 L 271.6,302.1 L 272.3,298.7 L 272.8,296.9 L 273.3,296.0 L 273.0,295.2 L 272.9,294.1 L 272.5,293.7 L 271.6,293.5 L 271.8,292.2 L 272.3,291.7 L 273.9,291.9 L 274.6,293.4 L 274.5,294.6 L 274.0,296.2 L 273.7,298.3 L 273.4,299.8 L 273.4,301.7 L 274.0,302.5 L 274.6,302.5 L 275.5,301.8 L 275.9,300.9 L 276.0,300.1 L 276.5,299.4 L 276.8,298.1 L 277.4,296.5 L 277.8,296.6 L 278.1,298.0 L 278.8,298.8 L 279.3,298.7 L 281.3,297.1 L 282.6,295.4 L 282.9,295.2 L 283.4,293.5 L 283.8,293.1 L 284.8,294.4 L 284.8,295.8 L 283.4,296.5 L 283.6,297.4 L 283.0,298.1 L 282.9,298.5 L 283.1,298.8 L 283.9,298.7 L 285.2,297.8 L 285.3,296.7 L 286.2,296.6 L 288.4,294.8 L 288.6,294.2 L 288.2,292.7 L 289.6,291.5 L 289.6,291.3 L 289.8,290.4 L 292.3,288.1 L 293.2,287.9 L 293.2,288.7 L 293.7,288.5 L 294.1,288.1 L 294.3,287.5 L 294.8,287.2 L 294.9,286.5 L 294.6,286.3 L 295.4,284.6 L 295.1,284.2 L 293.6,284.7 L 293.2,284.4 L 293.3,283.7 L 294.1,282.8 L 294.4,281.6 L 294.5,280.4 L 295.8,276.7 L 296.7,276.2 L 297.4,275.2 L 297.1,277.6 L 297.3,278.4 L 296.8,281.2 L 298.3,281.4 L 298.4,282.2 L 297.5,283.2 L 297.4,284.4 L 296.6,285.4 L 296.4,286.2 L 295.5,287.1 L 295.2,288.5 L 295.6,289.3 L 295.5,290.1 L 295.1,290.6 L 293.7,291.7 L 292.9,292.3 L 292.5,293.2 L 292.1,293.9 L 291.6,296.0 L 291.8,296.3 L 291.7,297.0 L 290.5,299.3 L 289.2,300.3 L 288.2,301.4 L 287.7,300.9 L 286.4,301.6 L 285.6,303.0 L 284.9,304.9 L 285.3,305.3 L 285.5,306.1 L 286.5,305.6 L 286.9,305.1 L 287.1,304.4 L 287.9,303.7 L 288.3,302.6 L 288.8,302.7 L 288.2,305.0 L 288.7,305.9 L 288.5,308.2 L 287.6,309.1 L 287.4,310.0 L 287.7,310.5 L 288.4,310.7 L 289.1,311.6 L 289.9,313.1 L 290.7,314.0 L 291.4,315.3 L 293.0,315.3 L 294.2,314.3 L 295.0,313.0 L 296.2,311.7 L 296.5,311.2 L 297.8,309.8 L 298.2,308.9 L 298.6,307.5 L 299.8,307.6 L 302.1,305.9 L 302.6,305.2 L 303.3,304.1 L 304.0,303.4 L 304.3,302.6 L 305.6,300.6 L 306.2,298.8 L 306.7,296.4 L 307.4,295.5 L 307.9,293.7 L 308.2,293.0 L 308.3,293.0 L 308.9,292.8 L 309.1,292.5 L 309.4,292.2 L 309.9,291.5 L 310.5,291.3 L 311.1,289.0 L 311.2,287.7 L 311.3,287.2 L 312.3,287.0 L 312.7,284.5 L 313.0,284.3 L 314.6,283.0 L 315.1,283.0 L 316.4,282.0 L 317.3,280.8 L 318.0,280.3 L 318.5,280.3 L 319.9,279.0 L 320.4,278.1 L 321.0,277.2 L 321.6,276.9 L 322.1,277.6 L 322.4,279.1 L 322.3,281.0 L 322.7,283.4 L 320.1,285.4 L 318.2,287.6 L 318.1,288.4 L 319.2,288.5 L 319.3,288.8 L 318.0,290.8 L 315.9,290.7 L 315.4,291.2 L 315.3,292.0 L 315.7,292.4 L 315.5,293.2 L 314.9,293.6 L 314.9,293.6 L 314.6,295.2 L 314.8,295.9 L 314.6,296.8 L 314.9,297.6 L 314.9,299.5 L 315.0,299.9 L 314.9,301.3 L 315.5,302.1 L 315.6,302.9 L 316.3,304.1 L 316.0,305.7 L 317.0,308.4 L 317.3,309.4 L 318.2,310.6 L 318.1,311.4 L 318.4,311.9 L 318.5,313.1 L 319.4,312.8 L 320.9,312.5 L 322.2,311.9 L 322.4,312.0 L 322.3,312.7 L 322.4,313.7 L 321.5,315.1 L 321.2,317.0 L 321.3,317.8 L 321.9,318.4 L 322.0,319.8 L 322.3,319.9 L 322.5,320.9 L 322.9,321.5 L 323.2,323.1 L 323.3,323.5 L 320.6,324.5 L 320.1,324.0 L 320.2,323.2 L 319.7,322.5 L 319.2,322.7 L 318.2,321.3 L 318.1,320.6 L 317.6,319.8 L 317.5,317.9 L 317.0,317.6 L 315.1,317.9 L 314.6,317.6 L 314.9,317.2 L 316.4,316.4 L 316.8,315.8 L 316.8,314.0 L 316.2,313.3 L 315.9,312.7 L 315.4,312.4 L 313.8,312.8 L 312.4,312.0 L 310.7,311.5 L 309.3,311.5 L 307.7,312.0 L 307.5,312.3 L 307.3,312.6 L 306.8,313.1 L 306.7,313.6 L 305.8,315.1 L 305.6,315.9 L 304.1,317.8 L 303.6,318.7 L 303.8,319.8 L 304.3,320.1 L 305.8,320.5 L 306.0,321.2 L 306.5,321.1 L 306.7,321.1 L 307.2,320.5 L 307.8,319.2 L 308.2,318.9 L 308.6,319.1 L 308.6,320.0 L 309.5,320.1 L 311.6,319.1 L 312.4,319.0 L 313.2,318.7 L 313.4,319.2 L 313.2,319.6 L 312.6,319.9 L 312.1,320.0 L 311.2,321.8 L 310.7,322.0 L 310.4,323.1 L 310.1,323.8 L 308.5,324.5 L 308.3,325.4 L 307.2,326.3 L 306.7,327.8 L 306.8,329.1 L 307.1,330.3 L 306.1,330.6 L 305.6,331.0 L 304.7,331.6 L 304.0,333.3 L 304.2,333.9 L 305.0,334.8 L 305.2,334.8 L 307.2,334.9 L 308.6,334.6 L 310.0,333.0 L 310.6,333.6 L 311.3,333.1 L 311.4,331.5 L 310.7,331.4 L 310.8,330.6 L 309.7,329.6 L 311.2,327.8 L 311.5,325.7 L 312.8,325.3 L 313.3,325.3 L 313.6,326.0 L 313.6,326.6 L 313.1,327.4 L 313.3,328.2 L 314.1,328.4 L 314.1,328.9 L 313.2,329.4 L 312.4,330.3 L 312.6,330.8 L 313.3,330.8 L 314.1,332.2 L 314.1,332.7 L 312.9,332.2 L 312.3,332.6 L 312.0,333.7 L 312.7,334.9 L 312.8,335.4 L 291.9,346.8 L 292.0,346.3 L 291.6,345.7 L 290.0,345.0 L 288.7,345.9 L 287.5,347.7 L 287.4,348.7 L 287.8,349.0 L 267.9,359.8 L 267.6,360.0 L 267.8,359.4 L 268.1,357.4 L 269.2,356.8 L 269.1,356.2 L 268.5,355.7 L 267.9,355.6 L 267.0,354.6 L 266.7,352.5 L 266.8,351.8 L 266.2,350.8 L 266.3,350.5 L 266.2,349.9 L 265.8,349.6 L 265.2,349.8 L 264.0,349.8 L 263.2,350.0 L 262.6,349.3 L 261.6,349.0 L 261.4,349.4 L 260.4,350.6 L 259.9,349.8 L 259.0,349.6 L 257.9,350.5 L 257.2,352.0 L 258.0,354.6 L 258.1,355.4 L 258.4,357.0 L 258.0,357.0 L 252.9,356.9 L 253.0,356.1 L 252.8,355.4 L 253.1,354.0 L 252.7,353.2 L 253.0,351.9 L 254.0,350.7 L 254.1,350.0 L 253.6,349.3 L 253.7,347.6 L 253.5,346.7 L 253.7,346.0 L 254.1,345.2 L 254.2,344.3 L 254.9,343.1 L 255.3,340.9 L 255.1,339.2 L 254.9,338.5 L 254.1,338.8 L 253.9,340.2 L 253.5,340.8 L 253.2,341.7 L 253.9,342.7 L 253.6,343.4 L 253.0,343.7 L 251.8,342.3 L 251.1,342.2 L 250.3,341.1 L 249.5,341.7 L 249.2,342.7 L 249.6,345.4 L 248.9,345.9 L 248.2,346.0 L 247.2,346.8 L 246.6,348.2 L 246.7,348.9 L 246.3,350.2 L 246.0,350.3 L 245.5,349.7 L 245.1,349.7 L 244.6,349.9 L 244.2,350.6 L 243.9,352.1 L 243.8,354.0 L 244.1,354.5 L 244.5,354.5 L 245.4,353.9 L 245.8,354.1 L 245.9,354.5 L 245.4,355.9 L 245.3,356.1 L 244.8,356.2 L 212.9,357.9 L 213.0,357.4 L 212.2,357.0 L 211.0,357.2 L 210.0,357.6 L 209.4,357.5 L 209.2,358.1 L 203.9,358.4 L 204.1,356.5 L 203.5,355.3 L 203.8,353.4 L 204.9,351.9 L 205.0,351.3 L 205.5,349.9 L 205.8,348.0 L 204.6,344.0 L 203.7,342.3 L 203.7,341.3 L 203.3,340.2 L 203.0,339.7 L 202.5,339.3 L 202.8,338.5 L 203.1,336.5 L 202.9,335.6 L 203.2,333.5 L 203.9,332.9 L 204.0,332.2 L 203.5,331.1 L 203.7,330.8 L 204.2,330.8 L 203.9,330.0 L 203.3,329.2 L 203.2,328.4 L 203.1,327.9 L 203.1,327.1 L 201.2,324.8 L 200.9,323.5 L 200.0,322.4 L 200.7,321.0 L 200.6,320.6 L 199.8,320.4 L 199.3,321.1 L 198.9,321.2 L 198.5,320.1 L 197.1,319.8 L 196.2,319.4 L 194.1,319.1 L 193.8,318.6 L 193.9,317.8 L 195.8,315.7 L 196.5,315.5 L 197.1,315.1 L 197.9,315.1 L 199.4,314.3 L 200.1,313.8 L 200.6,313.1 L 200.2,311.5 L 200.1,310.5 L 199.9,309.9 L 200.1,309.7 L 201.1,309.9 L 202.0,310.6 L 203.3,309.7 L 204.2,308.4 L 204.9,307.9 L 205.6,307.6 L 206.1,306.7 L 206.5,307.0 L 206.7,307.7 L 206.6,308.3 L 207.2,308.2 L 207.7,306.8 L 207.6,306.0 L 206.8,305.8 L 206.6,304.3 L 206.9,303.5 L 206.4,301.6 L 207.6,301.4 L 207.7,300.5 L 206.9,300.3 L 205.9,301.1 L 205.6,300.6 L 205.5,298.9 L 206.2,298.5 L 206.8,297.1 L 206.9,295.9 L 206.7,293.9 L 205.4,292.2 L 205.7,291.7 L 205.3,291.1 L 205.8,290.4 L 206.0,289.5 L 206.8,289.3 L 207.3,288.6 L 208.2,286.6 L 208.5,285.6 L 208.8,285.2 L 208.3,283.9 L 208.0,282.9 L 206.0,282.6 L 205.0,283.1 L 203.4,282.5 L 202.4,281.6 L 201.5,281.7 L 200.9,282.2 L 200.4,282.0 L 199.9,281.4 L 200.6,280.1 L 200.9,278.8 L 201.4,278.4 L 201.9,277.2 L 201.9,275.8 L 201.5,275.6 L 200.9,276.2 L 200.7,277.3 L 200.3,277.3 L 199.8,276.8 L 200.2,275.5 L 199.5,273.3 L 199.9,272.4 L 199.7,271.7 L 200.2,271.3 L 200.7,271.2 L 200.8,270.7 L 199.8,269.3 L 199.4,268.1 L 198.9,267.4 L 197.5,265.9 L 197.2,265.5 L 196.7,265.5 L 196.5,266.1 L 196.2,266.2 L 195.6,266.9 L 195.2,267.8 L 195.5,269.0 L 195.2,269.3 L 194.8,270.6 L 194.3,271.2 L 193.9,272.8 L 193.6,273.0 L 193.5,272.5 L 193.9,268.8 L 193.1,267.0 L 192.6,266.5 L 192.3,265.1 L 192.0,264.6 L 191.4,264.4 L 191.2,264.6 L 190.1,264.2 L 189.6,264.4 L 189.4,265.1 L 189.0,265.1 L 188.7,263.9 L 188.6,262.9 L 189.0,261.1 L 189.8,259.9 L 189.8,256.1 L 189.1,255.3 L 187.8,254.8 L 187.4,254.4 L 187.3,254.0 L 186.3,253.8 L 185.7,254.4 L 185.9,254.8 L 186.3,254.9 L 184.8,256.1 L 184.1,257.8 L 182.1,259.1 L 181.1,260.6 L 181.0,264.2 L 181.4,264.7 L 181.7,264.9 L 182.1,264.9 L 182.3,265.7 L 183.0,265.9 L 183.5,266.9 L 182.9,268.7 L 182.1,270.5 L 181.8,274.1 L 182.5,275.5 L 181.6,275.9 L 182.0,277.0 L 182.1,277.4 L 181.6,277.7 L 182.0,280.2 L 182.0,280.8 L 181.4,280.9 L 180.6,279.8 L 179.6,277.8 L 178.7,273.7 L 177.5,273.9 L 176.9,273.5 L 178.1,272.5 L 178.2,272.0 L 179.0,271.5 L 179.0,270.6 L 178.3,269.4 L 178.6,267.8 L 178.3,267.6 L 177.8,268.4 L 176.9,268.7 L 176.2,269.3 L 176.1,269.9 L 175.5,270.7 L 174.3,270.6 L 174.2,271.6 L 173.8,271.7 L 173.5,271.3 L 173.3,269.9 L 172.5,268.9 L 172.6,268.4 L 173.0,267.7 L 173.0,266.1 L 172.3,263.4 L 171.7,260.0 L 171.4,259.3 L 170.3,256.6 L 168.9,254.9 L 168.9,254.1 L 166.8,253.0 L 166.9,252.3 L 166.2,251.7 L 165.7,251.0 L 164.7,250.6 L 164.3,251.2 L 163.8,253.6 L 162.8,254.1 L 162.3,253.6 L 161.4,253.1 L 160.1,252.8 L 158.6,253.0 L 157.9,253.4 L 157.4,254.9 L 156.4,255.2 L 155.3,256.5 L 155.5,257.2 L 154.5,258.4" fill="none" stroke="black" stroke-width="2"/>
</svg>