<?xml version="1.0" encoding="UTF-8"?>
<svg width="400" height="400" viewBox="0 0 400 400" xmlns="http://www.w3.org/2000/svg">
  <rect width="400" height="400" fill="white"/>
  <path d="M 88.9,134.5 L 90.1,132.6 L 90.2,131.0 L 90.2,127.4 L 90.8,126.8 L 92.4,125.8 L 93.4,123.4 L 94.4,123.1 L 94.9,121.4 L 95.5,120.3 L 95.1,117.8 L 93.7,116.2 L 93.8,115.6 L 93.8,115.4 L 94.2,113.7 L 94.4,111.4 L 94.0,109.5 L 92.5,109.6 L 92.1,108.9 L 91.5,108.8 L 90.3,109.3 L 89.2,107.7 L 87.5,108.9 L 85.3,111.4 L 84.5,113.4 L 84.2,113.2 L 83.0,111.9 L 83.9,111.3 L 86.4,108.2 L 86.4,107.2 L 84.7,107.8 L 84.6,106.1 L 83.3,106.0 L 84.6,104.2 L 83.7,104.0 L 82.7,104.9 L 81.8,106.4 L 80.6,107.5 L 79.6,108.6 L 73.6,102.9 L 73.5,102.7 L 73.8,102.1 L 74.1,100.3 L 75.1,100.1 L 75.8,99.6 L 76.5,98.2 L 78.0,98.3 L 79.7,96.2 L 80.2,93.8 L 80.9,93.6 L 82.2,94.6 L 82.6,94.3 L 83.6,93.8 L 84.2,93.0 L 86.5,91.9 L 88.1,86.9 L 89.2,87.1 L 89.9,87.0 L 93.4,83.9 L 95.5,81.4 L 97.6,79.8 L 99.7,77.3 L 101.6,75.9 L 102.5,74.4 L 103.6,73.3 L 105.2,69.5 L 105.6,67.1 L 106.0,66.1 L 105.8,65.1 L 104.7,64.7 L 105.8,62.9 L 106.6,61.9 L 107.0,60.5 L 107.2,59.6 L 109.5,59.3 L 110.3,58.9 L 111.0,59.0 L 112.2,58.0 L 112.1,56.0 L 112.4,55.6 L 113.1,55.3 L 114.2,54.2 L 114.6,52.6 L 114.8,52.3 L 114.4,50.7 L 113.2,49.9 L 112.2,49.8 L 111.4,48.7 L 109.7,41.2 L 110.2,40.4 L 110.7,40.0 L 112.5,40.4 L 114.5,42.0 L 114.7,43.0 L 113.7,45.1 L 114.9,47.6 L 115.0,49.6 L 115.5,50.9 L 115.8,52.4 L 116.3,53.7 L 117.4,53.5 L 118.4,54.0 L 119.2,53.9 L 120.6,53.1 L 121.7,51.5 L 123.2,50.4 L 124.6,49.6 L 126.1,47.9 L 131.9,41.3 L 133.4,42.0 L 156.6,53.2 L 156.5,53.7 L 157.9,58.7 L 158.3,59.3 L 158.0,62.2 L 160.4,62.5 L 161.4,65.5 L 163.2,70.6 L 163.2,72.8 L 162.7,73.7 L 161.9,77.7 L 161.3,80.0 L 160.7,81.0 L 160.2,83.9 L 160.9,86.8 L 162.9,90.1 L 165.2,92.6 L 166.3,93.1 L 167.4,93.2 L 167.7,92.5 L 169.8,92.7 L 170.6,94.0 L 171.7,93.9 L 172.3,94.3 L 173.1,94.5 L 174.0,95.7 L 174.6,95.6 L 178.9,93.0 L 179.5,92.9 L 179.3,94.0 L 178.2,95.1 L 177.5,96.4 L 177.9,96.9 L 179.4,96.5 L 181.0,94.4 L 181.6,91.8 L 180.7,90.4 L 182.2,87.6 L 183.0,88.1 L 183.4,88.7 L 184.8,87.9 L 185.6,83.9 L 186.9,79.6 L 188.3,79.8 L 188.8,79.1 L 188.0,78.0 L 188.2,77.3 L 189.8,77.6 L 190.8,76.4 L 191.4,74.9 L 190.9,72.8 L 189.8,70.4 L 189.3,70.3 L 189.0,70.6 L 188.5,70.7 L 188.1,70.1 L 188.2,70.1 L 192.7,67.3 L 193.7,68.5 L 194.6,69.6 L 196.2,72.1 L 196.8,72.0 L 197.9,71.3 L 197.7,69.0 L 197.8,68.8 L 198.1,68.5 L 199.1,68.9 L 199.2,69.0 L 199.5,69.8 L 199.4,71.6 L 200.3,73.5 L 201.4,74.5 L 201.4,75.5 L 200.3,77.0 L 201.4,79.4 L 202.4,80.6 L 203.7,81.6 L 207.6,81.8 L 209.4,81.0 L 211.1,79.4 L 211.3,78.4 L 209.9,76.9 L 210.0,75.8 L 210.5,75.6 L 212.6,75.9 L 213.6,75.2 L 213.2,74.1 L 213.3,73.5 L 214.0,73.1 L 214.7,71.8 L 214.5,70.4 L 214.4,69.4 L 213.9,68.3 L 213.3,68.4 L 212.5,68.7 L 212.0,68.2 L 212.6,67.0 L 212.2,66.7 L 210.1,65.6 L 209.8,65.5 L 215.4,62.2 L 215.5,62.3 L 216.6,62.3 L 217.2,62.0 L 217.1,61.2 L 220.3,59.3 L 231.2,52.9 L 231.4,53.6 L 232.1,54.6 L 232.9,54.8 L 236.0,54.1 L 238.8,55.3 L 238.9,55.4 L 238.9,56.7 L 239.1,57.4 L 241.0,57.8 L 241.8,58.9 L 242.8,58.9 L 244.3,57.8 L 244.8,56.6 L 244.6,55.7 L 244.8,55.3 L 244.7,54.3 L 243.5,52.1 L 243.4,50.6 L 242.8,49.5 L 254.8,47.5 L 256.0,47.3 L 256.0,47.8 L 254.1,49.7 L 253.7,50.8 L 255.6,53.9 L 255.2,54.6 L 254.3,54.9 L 253.2,54.2 L 253.7,57.7 L 252.7,59.3 L 252.8,60.7 L 254.7,63.5 L 255.8,64.6 L 256.9,66.1 L 259.2,67.1 L 259.3,68.6 L 258.4,69.6 L 259.7,72.1 L 261.5,74.1 L 262.1,74.7 L 262.3,75.0 L 262.0,77.7 L 262.4,79.1 L 262.0,82.0 L 262.1,83.0 L 262.0,84.1 L 262.6,86.4 L 262.0,87.8 L 262.1,88.7 L 262.2,89.6 L 263.2,90.5 L 263.1,91.6 L 263.4,92.3 L 264.0,96.0 L 262.6,96.9 L 263.3,99.5 L 265.3,100.3 L 270.4,106.0 L 272.5,106.6 L 274.1,106.6 L 274.9,105.7 L 274.9,105.5 L 276.8,106.2 L 278.3,106.2 L 278.2,105.9 L 277.6,105.3 L 277.7,104.1 L 278.1,102.9 L 278.9,102.4 L 279.3,101.7 L 279.9,101.0 L 280.9,100.7 L 281.4,101.1 L 281.6,101.8 L 280.9,104.3 L 280.6,106.6 L 280.0,111.2 L 281.4,113.1 L 282.2,112.9 L 282.5,113.6 L 282.5,113.8 L 282.6,113.9 L 282.7,114.3 L 282.7,114.6 L 282.9,114.7 L 282.6,115.2 L 282.7,115.6 L 284.0,116.4 L 284.1,116.5 L 284.2,117.8 L 284.2,118.2 L 284.3,118.3 L 284.4,118.4 L 284.3,118.5 L 284.2,118.5 L 284.3,118.6 L 284.2,118.7 L 284.6,120.2 L 284.8,121.4 L 285.1,122.8 L 285.4,124.0 L 285.8,126.0 L 286.1,127.3 L 286.4,128.5 L 287.0,128.4 L 287.0,128.7 L 287.1,129.8 L 287.1,130.3 L 287.2,132.1 L 287.3,132.2 L 287.9,132.6 L 289.3,133.6 L 292.5,136.2 L 293.7,136.0 L 294.1,136.3 L 294.9,137.9 L 293.0,139.3 L 292.1,138.7 L 290.5,138.8 L 289.5,139.7 L 289.2,140.4 L 287.7,141.5 L 286.7,143.0 L 286.8,144.3 L 288.1,145.0 L 290.4,147.1 L 292.9,149.0 L 292.6,151.8 L 292.9,152.5 L 294.3,152.9 L 295.5,152.5 L 296.4,153.3 L 298.2,153.6 L 299.8,155.3 L 300.9,155.2 L 301.8,152.5 L 302.5,151.9 L 303.4,152.7 L 304.8,153.1 L 305.1,154.1 L 306.8,155.1 L 304.6,159.2 L 304.8,159.7 L 307.5,161.3 L 310.5,163.6 L 311.4,165.4 L 310.3,167.9 L 311.5,169.8 L 311.0,174.0 L 310.2,174.7 L 309.0,174.6 L 301.1,168.2 L 298.9,166.2 L 299.0,162.3 L 298.4,161.9 L 295.6,159.8 L 295.4,158.6 L 294.3,156.0 L 291.9,153.2 L 288.0,150.5 L 286.3,149.8 L 285.3,150.2 L 284.5,151.6 L 283.4,151.9 L 283.5,153.9 L 283.2,156.5 L 284.1,159.7 L 285.1,160.7 L 285.1,160.7 L 284.7,161.5 L 284.4,161.9 L 283.8,162.0 L 282.9,162.4 L 282.4,161.8 L 281.9,160.0 L 281.2,159.0 L 280.1,159.1 L 279.1,157.7 L 278.8,155.2 L 280.1,153.9 L 280.7,150.2 L 280.0,148.6 L 277.3,141.2 L 276.1,141.1 L 275.6,141.7 L 275.3,142.3 L 274.8,142.2 L 274.6,141.2 L 274.0,139.6 L 271.6,137.4 L 270.8,136.1 L 268.9,134.1 L 267.5,131.6 L 266.5,130.3 L 265.7,130.3 L 265.6,131.0 L 266.0,132.7 L 264.3,132.6 L 262.8,132.9 L 262.1,133.8 L 261.5,135.0 L 260.3,135.6 L 259.6,137.7 L 260.1,139.4 L 259.9,141.3 L 260.5,144.1 L 261.3,145.5 L 262.6,147.0 L 263.2,149.4 L 261.7,149.4 L 261.4,151.8 L 261.7,152.5 L 262.0,155.0 L 263.4,156.7 L 264.2,157.1 L 265.1,158.8 L 267.0,161.0 L 267.1,162.0 L 264.9,161.4 L 263.8,161.7 L 263.1,163.6 L 263.6,165.4 L 265.8,168.6 L 267.8,170.2 L 270.2,170.9 L 272.4,172.7 L 274.2,172.8 L 275.8,172.5 L 276.9,173.3 L 277.3,173.9 L 277.7,173.6 L 277.3,172.4 L 279.1,172.9 L 281.4,171.8 L 281.8,169.1 L 279.2,166.9 L 279.5,165.8 L 280.0,165.0 L 279.1,162.0 L 279.4,161.5 L 279.8,161.2 L 281.3,162.5 L 282.2,163.3 L 282.0,163.6 L 281.7,164.3 L 282.3,165.6 L 281.7,166.5 L 282.7,168.6 L 283.6,168.7 L 283.9,166.8 L 284.6,166.9 L 284.4,167.7 L 286.0,169.6 L 287.5,171.8 L 288.9,173.1 L 289.3,174.3 L 290.5,176.2 L 291.9,177.8 L 293.5,181.4 L 293.5,182.7 L 292.6,184.6 L 292.2,186.1 L 293.7,187.2 L 293.5,188.5 L 292.1,188.8 L 292.5,191.0 L 292.4,192.3 L 291.9,193.2 L 290.9,193.4 L 289.8,194.3 L 289.7,194.9 L 290.5,196.3 L 290.5,198.3 L 291.6,200.1 L 292.8,200.4 L 294.1,201.3 L 294.1,203.6 L 293.5,203.7 L 293.0,202.9 L 292.5,202.6 L 291.8,203.4 L 290.0,201.2 L 289.0,200.8 L 287.6,202.1 L 287.4,202.8 L 286.6,202.8 L 285.5,203.4 L 284.3,203.5 L 284.1,204.6 L 283.6,205.2 L 285.2,207.5 L 286.7,207.2 L 287.3,207.8 L 287.9,209.7 L 289.0,210.7 L 289.4,211.9 L 288.8,212.3 L 287.6,212.5 L 285.2,207.7 L 283.8,207.1 L 283.1,207.3 L 281.8,207.2 L 280.7,206.2 L 278.1,205.6 L 277.7,206.7 L 277.3,206.8 L 276.2,206.2 L 274.9,207.3 L 274.6,208.1 L 274.8,209.8 L 274.6,212.5 L 276.2,217.5 L 276.7,218.9 L 278.3,221.5 L 278.5,226.1 L 279.7,227.8 L 280.1,231.0 L 279.6,232.0 L 279.0,236.1 L 280.5,241.6 L 282.2,245.6 L 286.5,251.4 L 288.1,254.1 L 289.5,255.6 L 290.0,257.8 L 291.5,260.5 L 291.5,262.0 L 291.7,262.5 L 291.5,264.3 L 290.7,265.0 L 290.2,266.3 L 289.7,266.3 L 288.9,265.4 L 288.4,263.0 L 287.7,262.1 L 285.6,262.1 L 284.0,262.3 L 283.7,263.4 L 283.8,265.9 L 285.4,270.1 L 286.0,273.3 L 286.1,273.7 L 286.2,276.4 L 286.5,276.7 L 286.4,278.5 L 285.8,280.6 L 283.3,283.8 L 282.4,284.2 L 281.3,283.0 L 280.7,281.5 L 278.8,278.9 L 277.3,278.7 L 276.3,279.0 L 275.0,280.6 L 274.5,282.4 L 274.7,283.9 L 276.2,286.1 L 276.5,287.8 L 276.5,288.6 L 277.5,290.9 L 278.2,293.0 L 278.9,293.9 L 279.2,294.9 L 279.4,297.1 L 279.7,298.2 L 280.5,298.4 L 284.2,299.1 L 284.8,299.7 L 285.7,299.2 L 286.6,297.3 L 287.3,297.4 L 287.8,298.3 L 288.5,297.6 L 287.6,295.0 L 288.3,294.8 L 289.2,295.4 L 290.0,295.0 L 291.2,292.6 L 293.5,291.0 L 293.9,290.1 L 295.3,289.7 L 295.6,289.9 L 297.0,291.5 L 297.6,292.5 L 299.5,292.8 L 300.1,294.1 L 301.3,295.9 L 302.1,300.1 L 302.8,301.0 L 303.4,302.6 L 305.9,306.0 L 308.2,306.0 L 308.4,305.0 L 307.9,303.6 L 308.6,302.2 L 309.0,300.6 L 311.7,298.8 L 310.6,297.8 L 311.0,297.1 L 311.6,297.6 L 311.9,298.7 L 313.8,300.4 L 315.0,301.5 L 315.6,301.4 L 316.5,300.8 L 318.2,301.1 L 323.0,296.9 L 323.9,296.8 L 324.5,297.2 L 325.8,297.1 L 326.5,298.0 L 326.5,298.8 L 325.8,299.2 L 325.6,299.7 L 325.9,301.7 L 324.9,302.5 L 323.1,303.1 L 323.4,300.1 L 322.9,299.4 L 321.7,300.5 L 321.4,301.5 L 321.8,304.0 L 321.5,307.8 L 320.8,308.0 L 319.8,306.9 L 318.8,306.7 L 318.6,308.2 L 320.3,310.7 L 321.7,313.6 L 321.2,316.1 L 319.0,315.3 L 317.4,316.4 L 316.9,317.0 L 317.4,318.0 L 316.2,319.0 L 314.0,319.3 L 313.2,318.2 L 311.9,317.7 L 311.4,315.6 L 309.2,314.0 L 308.0,314.2 L 307.5,315.2 L 305.8,315.3 L 304.3,315.8 L 302.6,317.1 L 302.2,318.6 L 300.4,320.8 L 299.2,321.9 L 297.8,322.1 L 296.8,320.7 L 296.1,320.5 L 295.7,320.1 L 294.8,319.8 L 293.5,320.4 L 293.2,321.4 L 292.4,321.8 L 292.0,323.0 L 292.4,323.7 L 292.8,325.7 L 292.5,326.4 L 291.7,326.0 L 291.0,326.3 L 289.9,329.1 L 289.2,329.3 L 288.5,328.6 L 287.8,328.5 L 287.1,328.5 L 286.7,330.9 L 287.6,331.6 L 289.1,331.3 L 289.9,331.9 L 290.6,332.9 L 292.2,334.4 L 293.3,335.2 L 292.2,335.5 L 289.6,336.1 L 289.8,335.5 L 290.7,334.4 L 289.0,333.3 L 288.3,332.6 L 287.0,332.3 L 286.8,333.0 L 286.0,333.3 L 285.0,334.6 L 283.0,336.0 L 281.7,337.6 L 281.1,337.9 L 280.4,337.1 L 281.1,335.1 L 280.1,334.6 L 279.1,335.4 L 278.3,338.4 L 276.9,340.1 L 276.5,342.1 L 276.6,343.4 L 276.4,346.5 L 273.9,347.0 L 273.6,344.7 L 274.3,341.4 L 273.3,340.0 L 273.0,339.0 L 271.9,338.3 L 271.3,337.4 L 269.8,336.3 L 269.1,336.1 L 267.6,336.5 L 266.7,338.2 L 266.2,338.3 L 265.6,337.0 L 264.8,337.2 L 264.4,339.2 L 263.2,340.5 L 262.0,343.6 L 259.6,347.0 L 258.9,349.4 L 259.3,350.4 L 259.6,350.6 L 259.5,353.3 L 258.0,356.8 L 257.9,358.8 L 258.1,359.2 L 254.7,359.9 L 254.3,360.0 L 254.4,359.5 L 253.9,357.9 L 254.8,356.5 L 254.8,352.9 L 254.6,351.2 L 254.0,350.3 L 253.1,350.0 L 251.9,351.0 L 250.6,351.1 L 248.5,352.3 L 248.0,351.9 L 249.2,349.8 L 248.9,348.1 L 248.4,347.3 L 247.5,347.9 L 247.3,348.9 L 246.1,349.7 L 245.0,352.1 L 245.7,353.0 L 245.6,354.0 L 243.4,355.6 L 240.5,356.9 L 238.7,356.6 L 235.9,355.8 L 237.5,354.1 L 239.0,350.9 L 241.4,346.8 L 242.1,345.1 L 243.1,345.3 L 244.0,345.0 L 244.2,346.9 L 246.1,347.0 L 250.3,343.4 L 251.7,342.9 L 252.4,342.3 L 252.1,341.0 L 251.3,339.5 L 251.4,338.4 L 250.4,337.8 L 249.2,337.6 L 248.9,337.0 L 250.0,335.2 L 251.3,332.1 L 251.1,331.0 L 250.9,330.3 L 250.1,329.2 L 249.0,326.8 L 249.8,324.5 L 249.4,319.7 L 249.3,319.3 L 248.2,316.0 L 246.6,314.6 L 243.3,312.8 L 241.2,311.4 L 240.3,310.4 L 240.6,307.8 L 239.9,302.4 L 237.2,299.0 L 235.4,296.0 L 234.3,295.5 L 230.1,295.2 L 229.0,295.6 L 228.6,297.0 L 227.3,299.8 L 227.5,302.7 L 224.1,305.4 L 223.4,305.4 L 222.8,304.5 L 222.2,300.5 L 222.3,298.9 L 222.8,298.3 L 224.9,293.1 L 224.8,291.8 L 223.1,291.1 L 223.3,288.5 L 226.6,282.8 L 224.5,277.6 L 222.8,274.6 L 222.0,273.9 L 220.6,275.0 L 219.8,275.3 L 219.1,276.8 L 218.5,277.4 L 217.9,277.9 L 216.7,279.6 L 215.9,280.1 L 215.2,279.2 L 216.7,276.1 L 217.1,274.7 L 218.6,273.5 L 218.6,271.4 L 219.1,270.8 L 220.0,269.7 L 219.5,268.4 L 220.0,267.7 L 219.9,267.2 L 219.6,266.5 L 221.6,262.3 L 220.1,259.7 L 219.1,257.9 L 218.1,255.1 L 216.4,252.8 L 216.0,251.5 L 215.3,250.5 L 214.7,248.9 L 215.3,248.1 L 213.2,244.2 L 212.1,242.6 L 210.9,240.0 L 208.9,237.4 L 207.8,235.4 L 206.0,233.0 L 205.1,232.2 L 204.4,230.3 L 204.4,229.7 L 202.1,227.0 L 198.6,221.7 L 196.8,218.6 L 195.3,214.3 L 193.7,211.1 L 192.9,210.0 L 191.8,207.8 L 190.6,204.9 L 189.9,203.9 L 189.3,203.6 L 189.4,202.6 L 188.0,201.0 L 187.1,200.4 L 187.0,199.2 L 186.0,198.9 L 185.1,199.3 L 183.7,201.4 L 182.4,202.5 L 182.0,203.7 L 182.5,205.5 L 181.7,209.3 L 180.6,211.1 L 180.4,212.1 L 180.4,214.1 L 180.2,215.6 L 179.3,216.7 L 179.1,217.7 L 179.6,221.1 L 181.6,221.8 L 183.5,223.9 L 183.8,224.9 L 182.4,224.9 L 179.2,225.1 L 178.8,225.2 L 178.3,220.8 L 178.4,218.4 L 177.2,215.2 L 177.6,214.5 L 177.2,213.9 L 175.7,214.0 L 175.3,212.7 L 173.1,210.3 L 171.7,210.8 L 170.7,210.7 L 170.5,210.0 L 170.9,207.7 L 170.5,207.0 L 169.8,206.4 L 168.1,206.1 L 164.7,207.3 L 164.4,206.9 L 162.7,206.5 L 156.9,207.1 L 156.8,207.2 L 156.4,206.9 L 139.3,188.6 L 140.6,187.9 L 141.5,185.8 L 142.1,185.2 L 143.1,184.8 L 144.3,184.8 L 146.3,183.3 L 147.4,181.5 L 147.8,179.3 L 146.7,177.0 L 145.7,177.8 L 145.4,179.4 L 144.4,180.9 L 144.0,182.5 L 143.5,182.5 L 143.4,181.8 L 143.2,181.4 L 142.1,181.7 L 141.6,181.7 L 140.3,182.6 L 139.5,182.0 L 137.9,182.1 L 137.0,181.6 L 135.9,182.6 L 135.6,183.2 L 135.9,184.9 L 88.9,134.5" fill="none" stroke="black" stroke-width="2"/>
</svg>