<?xml version="1.0" encoding="UTF-8"?>
<svg width="400" height="400" viewBox="0 0 400 400" xmlns="http://www.w3.org/2000/svg">
  <rect width="400" height="400" fill="white"/>
  <path d="M 232.0,224.5 L 231.9,224.5 L 231.8,224.3 L 231.8,224.1 L 231.7,223.9 L 231.6,223.8 L 231.5,223.7 L 231.5,223.6 L 231.4,223.5 L 231.4,223.4 L 231.3,223.3 L 231.2,223.2 L 231.1,223.0 L 231.1,222.8 L 231.1,222.8 L 231.0,222.8 L 230.9,222.6 L 230.8,222.4 L 230.6,222.3 L 230.6,222.3 L 230.4,222.1 L 230.3,221.9 L 230.2,221.8 L 230.1,221.7 L 229.9,221.5 L 229.8,221.4 L 229.7,221.2 L 229.5,221.1 L 229.5,221.0 L 229.4,221.0 L 229.2,220.9 L 229.2,220.9 L 229.0,220.9 L 228.9,220.9 L 228.9,220.7 L 228.9,220.6 L 228.8,220.4 L 228.8,220.2 L 228.7,220.1 L 228.6,219.9 L 228.5,219.7 L 228.4,219.6 L 228.3,219.5 L 228.3,219.4 L 228.2,219.3 L 228.0,219.3 L 228.0,219.2 L 227.9,219.1 L 227.8,218.9 L 227.7,218.8 L 227.8,218.7 L 227.9,218.8 L 227.9,218.6 L 227.9,218.6 L 227.8,218.4 L 227.6,218.3 L 227.6,218.4 L 227.5,218.6 L 227.4,218.6 L 227.3,218.6 L 227.3,218.6 L 227.1,218.7 L 226.9,218.7 L 226.8,218.6 L 226.8,218.6 L 226.7,218.5 L 226.6,218.4 L 226.5,218.4 L 226.4,218.3 L 226.3,218.1 L 226.2,218.0 L 226.2,217.9 L 226.2,217.9 L 226.2,217.8 L 226.1,217.8 L 226.1,217.8 L 226.1,217.7 L 226.1,217.5 L 226.2,217.5 L 226.3,217.5 L 226.4,217.4 L 226.4,217.4 L 226.3,217.3 L 226.3,217.2 L 226.4,217.2 L 226.6,217.2 L 226.6,217.1 L 226.6,217.0 L 226.6,216.8 L 226.5,216.7 L 226.5,216.6 L 226.4,216.5 L 226.3,216.5 L 226.2,216.5 L 226.1,216.6 L 225.9,216.7 L 225.9,216.8 L 226.0,216.9 L 225.9,217.0 L 225.8,217.0 L 225.6,217.0 L 225.5,216.9 L 225.5,216.9 L 225.4,216.7 L 225.3,216.6 L 225.2,216.4 L 225.2,216.2 L 225.3,216.1 L 225.3,216.0 L 225.5,215.9 L 225.6,215.9 L 225.6,216.0 L 225.8,216.1 L 225.8,216.1 L 225.9,216.2 L 225.9,216.2 L 226.0,216.2 L 226.1,216.1 L 226.1,216.0 L 226.0,215.9 L 225.9,215.8 L 225.9,215.6 L 225.8,215.5 L 225.7,215.3 L 225.7,215.2 L 225.6,215.2 L 225.5,215.1 L 225.3,215.0 L 225.2,215.0 L 225.1,214.9 L 225.1,215.1 L 225.0,215.1 L 224.9,215.2 L 224.9,215.1 L 224.8,215.0 L 224.7,215.0 L 224.5,214.9 L 224.0,214.2 L 223.7,213.9 L 223.6,213.9 L 223.6,213.6 L 223.5,213.6 L 223.4,213.4 L 222.8,213.0 L 222.6,212.9 L 222.5,213.0 L 222.4,213.0 L 222.3,213.1 L 222.0,212.8 L 221.5,212.5 L 221.3,212.1 L 221.1,211.9 L 220.9,212.0 L 220.2,211.3 L 220.0,211.2 L 219.4,210.7 L 219.3,210.7 L 219.2,210.7 L 219.0,210.4 L 218.6,210.2 L 217.9,209.6 L 217.4,209.4 L 217.1,209.1 L 216.9,209.1 L 216.8,208.8 L 216.7,208.7 L 216.5,208.4 L 215.9,208.1 L 215.8,208.1 L 215.7,208.1 L 215.5,207.9 L 215.2,207.9 L 215.1,208.0 L 215.0,208.0 L 214.7,208.0 L 214.3,207.2 L 214.0,206.7 L 212.5,205.5 L 212.2,205.3 L 211.4,204.9 L 211.1,204.7 L 211.2,204.6 L 211.3,204.6 L 211.3,204.5 L 211.0,204.0 L 210.7,203.8 L 210.6,203.7 L 210.4,203.6 L 210.0,203.4 L 209.6,203.3 L 209.5,203.2 L 209.3,203.1 L 209.0,202.8 L 208.8,202.6 L 208.2,202.2 L 208.1,202.2 L 208.0,202.2 L 207.8,202.0 L 207.6,201.9 L 207.4,202.0 L 206.7,201.4 L 206.4,201.0 L 206.2,201.0 L 206.0,201.1 L 205.9,200.9 L 205.7,200.7 L 205.4,200.6 L 205.2,200.7 L 205.2,200.8 L 205.3,201.1 L 205.3,201.2 L 205.1,201.2 L 204.1,200.6 L 203.7,200.3 L 203.6,200.1 L 203.3,199.9 L 203.1,199.8 L 202.9,199.7 L 202.8,199.6 L 202.5,199.0 L 202.3,198.9 L 202.0,198.8 L 201.8,198.4 L 201.7,198.3 L 201.5,198.3 L 201.4,198.0 L 201.2,198.0 L 201.1,198.1 L 201.0,197.9 L 201.0,197.7 L 201.2,197.6 L 201.2,197.4 L 201.1,197.3 L 201.0,197.3 L 200.7,197.5 L 200.6,197.3 L 200.6,197.2 L 200.5,197.0 L 200.4,196.9 L 200.3,196.8 L 200.1,197.0 L 199.9,197.2 L 199.7,197.2 L 199.5,197.5 L 199.5,197.7 L 199.7,197.7 L 199.9,197.8 L 200.1,197.6 L 200.5,197.6 L 200.5,197.7 L 200.6,197.8 L 200.6,197.9 L 200.5,198.0 L 200.4,198.7 L 200.5,198.9 L 200.9,199.2 L 201.0,199.4 L 201.3,199.6 L 201.4,199.6 L 201.6,199.6 L 201.5,200.0 L 201.3,200.2 L 200.9,200.1 L 200.7,200.0 L 200.4,199.6 L 200.4,199.5 L 200.3,199.5 L 200.4,199.3 L 200.3,199.3 L 200.3,199.3 L 200.2,199.5 L 200.1,199.4 L 199.9,199.4 L 199.9,199.4 L 199.9,199.3 L 199.8,199.1 L 199.8,199.2 L 199.7,199.4 L 199.6,199.6 L 199.6,199.5 L 199.6,199.5 L 199.7,199.4 L 199.7,199.2 L 199.6,199.1 L 199.6,199.2 L 199.4,199.2 L 199.4,199.1 L 199.4,199.1 L 199.3,199.3 L 199.2,199.4 L 199.1,199.3 L 199.1,199.3 L 198.9,199.2 L 198.8,199.0 L 198.8,198.8 L 198.7,198.5 L 198.5,198.1 L 198.2,197.7 L 197.6,197.2 L 197.0,197.0 L 196.6,196.8 L 196.4,196.9 L 196.2,196.9 L 196.1,196.9 L 195.9,196.8 L 195.9,196.8 L 195.7,196.7 L 195.6,196.6 L 195.5,196.4 L 195.4,196.3 L 195.4,196.2 L 195.3,196.0 L 195.3,195.9 L 195.2,195.8 L 195.2,195.8 L 195.2,195.8 L 195.2,195.7 L 195.1,195.6 L 195.0,195.7 L 195.0,195.7 L 194.8,195.6 L 194.7,195.5 L 194.7,195.4 L 194.6,195.2 L 194.6,195.0 L 194.6,195.0 L 194.7,194.9 L 194.7,195.1 L 194.8,195.2 L 194.9,195.2 L 194.8,195.1 L 194.8,195.0 L 194.7,194.9 L 194.7,194.7 L 194.6,194.5 L 194.6,194.4 L 194.6,194.3 L 194.6,194.2 L 194.5,194.0 L 194.5,193.9 L 194.4,193.7 L 194.3,193.6 L 194.2,193.5 L 194.2,193.4 L 194.0,193.2 L 193.9,193.2 L 193.8,193.1 L 193.6,193.0 L 193.5,192.9 L 193.4,192.8 L 193.3,192.7 L 193.2,192.6 L 193.1,192.5 L 193.1,192.3 L 193.0,192.1 L 192.9,191.9 L 192.9,191.9 L 192.7,191.8 L 192.6,191.7 L 192.5,191.5 L 192.5,191.3 L 192.5,191.2 L 192.5,191.1 L 192.7,191.0 L 192.8,191.0 L 192.8,191.0 L 192.9,191.1 L 192.9,191.1 L 192.8,190.9 L 192.9,190.9 L 193.0,190.9 L 193.0,190.9 L 193.1,191.0 L 193.2,191.0 L 193.3,191.1 L 193.5,191.2 L 193.7,191.2 L 193.8,191.2 L 193.9,191.4 L 193.9,191.6 L 193.9,191.8 L 194.0,191.9 L 194.0,192.0 L 194.2,192.0 L 194.2,192.1 L 194.4,192.1 L 194.6,192.1 L 194.6,192.1 L 194.7,192.1 L 194.7,192.0 L 194.8,191.9 L 194.8,191.9 L 195.0,191.9 L 195.0,191.9 L 195.0,192.1 L 195.1,192.1 L 195.2,192.1 L 195.3,192.1 L 195.4,192.2 L 195.5,192.2 L 195.7,192.1 L 195.9,192.2 L 195.9,192.2 L 196.0,192.2 L 195.9,192.1 L 195.9,191.9 L 195.8,191.8 L 195.7,191.6 L 195.6,191.4 L 195.5,191.3 L 195.5,191.2 L 195.3,191.1 L 195.2,190.9 L 195.2,190.8 L 195.2,190.6 L 195.1,190.5 L 194.9,190.3 L 194.9,190.2 L 195.0,190.1 L 194.9,190.0 L 194.8,189.9 L 194.7,189.8 L 194.7,189.6 L 194.6,189.5 L 194.5,189.3 L 194.4,189.2 L 194.3,189.1 L 194.3,188.9 L 194.2,188.8 L 194.1,188.7 L 194.0,188.5 L 193.9,188.5 L 193.8,188.4 L 193.8,188.4 L 193.8,188.3 L 193.7,188.2 L 193.7,188.1 L 193.6,188.1 L 193.5,187.9 L 193.4,187.9 L 193.3,187.8 L 193.3,187.6 L 193.2,187.5 L 193.3,187.4 L 193.2,187.3 L 193.1,187.3 L 193.1,187.3 L 193.1,187.2 L 193.0,187.0 L 192.9,186.9 L 192.8,186.7 L 192.8,186.5 L 192.7,186.4 L 192.6,186.3 L 192.6,186.1 L 192.5,185.9 L 192.4,185.8 L 192.3,185.6 L 192.2,185.5 L 192.2,185.3 L 192.0,185.2 L 191.9,185.1 L 191.8,185.0 L 191.7,184.8 L 191.6,184.7 L 191.5,184.6 L 191.4,184.4 L 191.4,184.2 L 191.3,184.1 L 191.2,184.0 L 191.2,183.8 L 191.1,183.7 L 191.1,183.5 L 191.0,183.4 L 191.0,183.2 L 190.9,183.0 L 190.9,182.9 L 190.8,182.7 L 190.7,182.6 L 190.6,182.6 L 190.5,182.6 L 190.4,182.5 L 190.2,182.3 L 190.2,182.3 L 190.1,182.4 L 190.1,182.5 L 190.1,182.6 L 190.1,182.7 L 190.0,182.5 L 189.9,182.4 L 189.8,182.4 L 189.7,182.2 L 189.5,182.2 L 189.4,182.1 L 189.4,182.0 L 189.3,181.9 L 189.2,181.7 L 189.2,181.6 L 189.1,181.6 L 189.1,181.6 L 188.9,181.5 L 188.7,181.4 L 188.7,181.4 L 188.6,181.5 L 188.6,181.6 L 188.6,181.7 L 188.6,181.7 L 188.5,181.6 L 188.4,181.5 L 188.4,181.4 L 188.3,181.2 L 188.2,181.1 L 188.0,181.0 L 188.0,181.0 L 187.8,181.0 L 187.7,181.0 L 187.6,181.2 L 187.6,181.2 L 187.5,181.2 L 187.4,181.2 L 187.4,181.3 L 187.4,181.3 L 187.3,181.5 L 187.2,181.7 L 187.1,181.6 L 187.0,181.6 L 187.0,181.5 L 187.0,181.4 L 187.1,181.3 L 187.1,181.2 L 187.0,181.0 L 186.9,181.0 L 186.8,180.9 L 186.7,180.7 L 186.6,180.7 L 186.6,180.7 L 186.5,180.7 L 186.3,180.6 L 186.1,180.5 L 186.1,180.3 L 186.0,180.2 L 185.8,180.1 L 185.8,180.0 L 185.6,180.0 L 185.5,180.0 L 185.5,180.0 L 185.3,179.8 L 185.3,179.8 L 185.3,179.9 L 185.2,180.0 L 185.1,179.9 L 185.0,179.8 L 185.1,179.8 L 185.1,179.8 L 185.3,179.8 L 185.3,179.7 L 185.2,179.7 L 185.0,179.5 L 184.9,179.4 L 184.9,179.4 L 184.9,179.3 L 184.7,179.1 L 184.6,179.0 L 184.5,178.9 L 184.5,178.8 L 184.4,178.7 L 184.3,178.7 L 184.3,178.5 L 184.2,178.4 L 184.0,178.2 L 183.9,178.1 L 183.8,178.0 L 183.6,177.9 L 183.5,177.8 L 183.4,177.6 L 183.3,177.5 L 183.2,177.4 L 183.2,177.3 L 183.1,177.3 L 183.1,177.2 L 183.1,177.1 L 183.0,177.0 L 183.0,177.0 L 182.8,177.0 L 182.7,176.9 L 182.6,177.0 L 182.6,177.0 L 182.5,176.9 L 182.5,176.8 L 182.5,176.6 L 182.5,176.6 L 182.3,176.5 L 182.2,176.5 L 182.2,176.4 L 182.4,176.3 L 182.5,176.2 L 182.5,176.1 L 182.6,176.0 L 182.7,176.0 L 182.8,176.0 L 182.7,175.9 L 182.8,175.9 L 182.7,175.8 L 182.6,175.7 L 182.7,175.6 L 182.7,175.5 L 182.6,175.4 L 182.6,175.3 L 182.5,175.2 L 182.4,175.1 L 182.3,174.9 L 182.2,174.8 L 182.0,174.7 L 181.9,174.7 L 181.8,174.8 L 181.7,174.7 L 181.7,174.7 L 181.8,174.6 L 181.7,174.5 L 181.6,174.4 L 181.7,174.4 L 181.7,174.3 L 181.8,174.3 L 181.8,174.3 L 181.7,174.1 L 181.6,174.0 L 181.4,173.9 L 181.3,173.9 L 181.2,173.7 L 181.1,173.7 L 181.0,173.6 L 180.9,173.5 L 180.8,173.3 L 180.7,173.2 L 180.5,173.1 L 180.4,172.9 L 180.3,172.9 L 180.4,172.9 L 180.5,172.9 L 180.5,172.8 L 180.5,172.8 L 180.4,172.6 L 180.4,172.6 L 180.2,172.6 L 180.1,172.6 L 179.9,172.5 L 179.8,172.4 L 179.7,172.3 L 179.7,172.2 L 179.8,172.2 L 179.9,172.1 L 179.9,172.1 L 180.0,172.2 L 180.1,172.3 L 180.3,172.4 L 180.3,172.3 L 180.3,172.3 L 180.3,172.2 L 180.2,172.1 L 180.1,172.0 L 180.1,171.9 L 180.1,171.8 L 180.1,171.7 L 180.1,171.6 L 180.0,171.5 L 179.8,171.3 L 179.9,171.3 L 179.9,171.2 L 179.9,171.2 L 179.7,171.1 L 179.7,171.0 L 179.6,171.0 L 179.6,170.9 L 179.5,170.9 L 179.5,170.7 L 179.5,170.6 L 179.5,170.6 L 179.4,170.6 L 179.3,170.4 L 179.3,170.3 L 179.2,170.3 L 179.1,170.1 L 179.0,170.1 L 178.9,170.1 L 178.8,170.0 L 178.8,170.0 L 178.7,170.0 L 178.5,170.0 L 178.4,169.9 L 178.2,169.8 L 178.2,169.8 L 178.1,169.9 L 178.0,169.8 L 177.8,169.7 L 177.7,169.7 L 177.5,169.7 L 177.4,169.7 L 177.2,169.8 L 177.2,169.7 L 177.1,169.7 L 176.9,169.7 L 176.8,169.9 L 176.7,169.9 L 176.6,169.9 L 176.6,169.9 L 176.5,169.7 L 176.4,169.6 L 176.3,169.6 L 176.2,169.4 L 176.1,169.3 L 176.0,169.2 L 175.9,169.1 L 175.7,169.0 L 175.6,168.9 L 175.4,168.8 L 175.3,168.8 L 175.2,168.9 L 175.2,169.0 L 175.2,169.2 L 175.1,169.2 L 174.9,169.1 L 174.8,169.0 L 174.8,169.0 L 174.9,168.9 L 175.0,168.9 L 175.1,168.8 L 175.1,168.7 L 175.0,168.6 L 174.9,168.5 L 174.7,168.5 L 174.6,168.5 L 174.4,168.5 L 174.4,168.6 L 174.4,168.7 L 174.6,168.8 L 174.7,168.9 L 174.7,169.0 L 174.6,169.1 L 174.5,169.0 L 174.4,169.0 L 174.4,169.0 L 174.3,169.0 L 174.2,168.9 L 174.2,168.9 L 174.1,169.0 L 174.1,169.2 L 174.1,169.2 L 174.0,169.3 L 174.0,169.2 L 173.9,169.2 L 173.8,169.0 L 173.7,169.0 L 173.7,168.9 L 173.6,168.9 L 173.6,168.8 L 173.6,168.8 L 173.4,168.7 L 173.3,168.6 L 173.1,168.5 L 172.9,168.5 L 172.8,168.4 L 172.7,168.3 L 172.6,168.3 L 172.5,168.3 L 172.4,168.2 L 172.3,168.3 L 172.2,168.2 L 172.1,168.2 L 172.1,168.2 L 171.9,168.2 L 171.9,168.2 L 171.8,168.2 L 171.7,168.2 L 171.6,168.2 L 171.4,168.2 L 171.3,168.1 L 171.3,168.1 L 171.1,168.1 L 171.0,168.1 L 171.0,168.1 L 171.0,168.2 L 171.0,168.3 L 171.1,168.4 L 171.0,168.5 L 171.0,168.5 L 171.1,168.6 L 171.0,168.7 L 170.9,168.7 L 170.9,168.8 L 170.8,168.9 L 170.9,169.0 L 170.8,169.0 L 170.8,169.0 L 170.8,169.2 L 170.9,169.3 L 170.9,169.4 L 170.9,169.4 L 170.9,169.5 L 171.0,169.6 L 171.1,169.8 L 171.1,169.8 L 170.9,169.8 L 170.7,169.9 L 170.7,169.9 L 170.6,170.1 L 170.5,170.2 L 170.4,170.1 L 170.2,170.1 L 170.2,170.1 L 170.2,170.1 L 170.3,170.2 L 170.5,170.3 L 170.5,170.3 L 170.7,170.4 L 170.9,170.5 L 171.0,170.6 L 171.1,170.8 L 171.3,170.9 L 171.4,170.9 L 171.6,170.9 L 171.7,171.0 L 171.8,171.2 L 171.8,171.2 L 171.8,171.3 L 171.9,171.4 L 172.0,171.5 L 172.1,171.6 L 172.2,171.7 L 172.1,171.7 L 172.0,171.7 L 171.8,171.6 L 171.6,171.6 L 171.4,171.5 L 171.4,171.5 L 171.2,171.4 L 171.1,171.4 L 171.0,171.5 L 171.0,171.7 L 170.9,171.6 L 170.8,171.5 L 170.6,171.5 L 170.4,171.6 L 170.4,171.6 L 170.5,171.7 L 170.7,171.7 L 170.8,171.8 L 170.8,171.7 L 170.9,171.8 L 171.0,171.8 L 171.0,171.8 L 171.1,171.9 L 171.3,171.8 L 171.3,172.0 L 171.2,172.1 L 171.2,172.1 L 171.1,172.1 L 170.9,172.1 L 170.7,172.0 L 170.6,171.9 L 170.4,171.9 L 170.3,172.0 L 170.2,172.0 L 170.1,172.0 L 170.0,171.8 L 170.0,171.8 L 169.8,171.7 L 169.6,171.6 L 169.4,171.6 L 169.4,171.7 L 169.4,171.8 L 169.4,172.0 L 169.5,172.2 L 169.6,172.4 L 169.6,172.5 L 169.6,172.6 L 169.6,172.7 L 169.5,172.8 L 169.3,172.9 L 169.2,172.9 L 169.1,173.0 L 169.0,173.0 L 169.0,173.1 L 169.0,173.2 L 169.1,173.3 L 169.2,173.5 L 169.3,173.6 L 169.2,173.7 L 169.2,173.7 L 169.1,173.8 L 169.0,173.8 L 168.9,173.6 L 168.9,173.5 L 168.8,173.3 L 168.8,173.1 L 168.7,172.9 L 168.7,172.8 L 168.7,172.6 L 168.8,172.6 L 168.8,172.5 L 168.7,172.4 L 168.5,172.4 L 168.5,172.5 L 168.5,172.4 L 168.3,172.3 L 168.2,172.3 L 168.2,172.1 L 168.0,172.0 L 168.0,171.9 L 168.0,171.9 L 167.9,171.7 L 167.8,171.6 L 167.8,171.4 L 167.7,171.2 L 167.6,171.1 L 167.6,170.9 L 167.6,170.7 L 167.5,170.6 L 167.5,170.4 L 167.4,170.3 L 167.2,170.1 L 167.1,170.0 L 167.0,169.9 L 167.0,169.9 L 166.9,169.8 L 166.9,169.8 L 166.9,169.8 L 167.0,169.8 L 167.0,169.8 L 166.9,169.7 L 166.9,169.6 L 166.7,169.5 L 166.6,169.4 L 166.5,169.3 L 166.5,169.4 L 166.4,169.3 L 166.2,169.2 L 166.1,169.1 L 166.0,169.0 L 166.0,168.9 L 166.0,168.8 L 165.9,168.7 L 165.8,168.6 L 165.7,168.6 L 165.7,168.5 L 165.6,168.3 L 165.4,168.2 L 165.5,168.1 L 165.4,168.1 L 165.3,168.1 L 165.2,168.0 L 165.0,167.9 L 164.9,167.8 L 164.8,167.7 L 164.7,167.7 L 164.6,167.6 L 164.5,167.5 L 164.4,167.4 L 164.3,167.3 L 164.2,167.2 L 164.0,167.1 L 164.0,167.1 L 163.9,167.0 L 163.8,166.9 L 163.7,166.9 L 163.7,166.9 L 163.6,166.9 L 163.5,166.9 L 163.5,166.9 L 163.5,166.7 L 163.5,166.6 L 163.4,166.5 L 163.3,166.5 L 163.3,166.5 L 163.2,166.5 L 163.1,166.6 L 163.1,166.6 L 163.1,166.5 L 163.1,166.4 L 163.0,166.4 L 163.0,166.3 L 162.9,166.3 L 162.9,166.3 L 163.0,166.4 L 162.9,166.5 L 162.8,166.5 L 162.8,166.4 L 162.8,166.2 L 162.8,166.1 L 162.8,165.9 L 162.8,165.8 L 162.7,165.7 L 162.6,165.7 L 162.4,165.7 L 162.4,165.8 L 162.4,165.9 L 162.5,166.1 L 162.5,166.1 L 162.6,166.2 L 162.7,166.1 L 162.7,166.2 L 162.6,166.4 L 162.6,166.4 L 162.6,166.6 L 162.7,166.8 L 162.7,167.0 L 162.8,167.0 L 162.8,167.0 L 162.8,167.1 L 162.8,167.3 L 162.7,167.2 L 162.7,167.2 L 162.8,167.4 L 162.8,167.4 L 162.8,167.5 L 162.9,167.7 L 162.8,167.9 L 162.8,168.0 L 162.8,168.2 L 162.7,168.3 L 162.6,168.4 L 162.4,168.5 L 162.2,168.5 L 162.3,168.6 L 162.2,168.7 L 162.1,168.7 L 162.1,168.7 L 162.1,168.6 L 162.0,168.5 L 162.0,168.3 L 161.9,168.2 L 161.9,168.2 L 161.8,168.4 L 161.8,168.6 L 161.7,168.7 L 161.7,168.6 L 161.5,168.6 L 161.5,168.7 L 161.4,168.7 L 161.3,168.7 L 161.2,168.7 L 161.2,168.6 L 161.2,168.6 L 161.1,168.5 L 161.1,168.5 L 161.1,168.5 L 161.1,168.5 L 161.0,168.5 L 161.0,168.5 L 161.0,168.5 L 161.0,168.4 L 161.0,168.3 L 161.1,168.2 L 161.1,168.0 L 161.2,167.8 L 161.3,167.7 L 161.3,167.5 L 161.3,167.3 L 161.3,167.1 L 161.4,167.1 L 161.4,167.0 L 161.5,166.9 L 161.5,166.9 L 161.5,166.9 L 161.4,166.8 L 161.2,166.8 L 161.2,166.7 L 161.1,166.7 L 161.1,166.5 L 161.0,166.5 L 160.9,166.5 L 160.9,166.6 L 161.0,166.7 L 161.0,166.9 L 161.0,166.9 L 161.0,166.9 L 160.9,167.0 L 160.9,167.0 L 160.8,166.9 L 160.7,166.9 L 160.7,166.8 L 160.7,166.8 L 160.7,166.7 L 160.6,166.8 L 160.5,166.8 L 160.5,166.8 L 160.5,166.8 L 160.3,167.0 L 160.2,166.9 L 160.2,166.8 L 160.1,166.8 L 160.1,166.8 L 160.1,166.8 L 159.9,166.9 L 159.8,166.9 L 159.8,166.9 L 159.6,167.0 L 159.5,167.2 L 159.3,167.3 L 159.2,167.4 L 159.0,167.5 L 159.0,167.6 L 158.8,167.8 L 158.7,167.9 L 158.6,168.1 L 158.5,168.2 L 158.4,168.4 L 158.4,168.5 L 158.3,168.7 L 158.2,168.7 L 158.0,168.8 L 157.9,168.9 L 157.8,168.9 L 157.6,168.9 L 157.4,169.0 L 157.3,169.1 L 157.1,169.2 L 157.0,169.3 L 156.8,169.5 L 156.8,169.5 L 156.8,169.5 L 156.8,169.4 L 156.8,169.2 L 156.8,169.1 L 156.8,168.9 L 156.8,168.7 L 156.8,168.7 L 156.7,168.7 L 156.6,168.8 L 156.6,168.8 L 156.6,168.6 L 156.6,168.4 L 156.6,168.3 L 156.7,168.1 L 156.7,167.9 L 156.8,167.8 L 156.9,167.6 L 157.0,167.4 L 157.0,167.2 L 157.1,167.1 L 157.2,166.9 L 157.3,166.7 L 157.3,166.6 L 157.4,166.5 L 157.4,166.5 L 157.5,166.3 L 157.6,166.2 L 157.8,166.1 L 157.9,165.9 L 158.0,165.9 L 158.1,165.7 L 158.2,165.6 L 158.3,165.5 L 158.4,165.4 L 158.5,165.3 L 158.6,165.1 L 158.6,164.9 L 158.7,164.8 L 158.8,164.6 L 158.8,164.4 L 158.9,164.3 L 158.9,164.1 L 158.8,163.9 L 158.8,163.7 L 158.7,163.6 L 158.7,163.5 L 158.7,163.4 L 158.6,163.3 L 158.6,163.2 L 158.8,163.2 L 158.8,163.0 L 158.8,162.8 L 158.8,162.7 L 158.7,162.6 L 158.5,162.5 L 158.6,162.4 L 158.7,162.5 L 158.8,162.3 L 158.8,162.1 L 158.7,162.1 L 158.6,162.1 L 158.4,162.2 L 158.4,162.2 L 158.5,162.3 L 158.4,162.4 L 158.4,162.3 L 158.4,162.3 L 158.3,162.3 L 158.3,162.3 L 158.0,162.3 L 157.9,162.3 L 157.8,162.2 L 157.8,162.1 L 157.9,162.0 L 157.9,161.9 L 157.9,161.8 L 158.0,161.6 L 158.0,161.4 L 158.1,161.3 L 158.1,161.2 L 158.1,161.2 L 158.2,161.1 L 158.1,161.1 L 158.2,161.0 L 158.1,160.9 L 158.1,160.8 L 158.0,160.7 L 158.0,160.7 L 158.0,160.6 L 158.1,160.5 L 158.1,160.5 L 158.1,160.4 L 158.0,160.3 L 158.0,160.2 L 158.0,160.2 L 158.0,160.0 L 158.1,160.1 L 158.1,160.3 L 158.3,160.4 L 158.3,160.4 L 158.5,160.4 L 158.6,160.4 L 158.7,160.4 L 158.8,160.4 L 158.8,160.3 L 158.7,160.3 L 158.6,160.2 L 158.5,160.0 L 158.5,159.9 L 158.4,159.9 L 158.4,159.8 L 158.5,159.8 L 158.7,159.8 L 158.7,159.7 L 158.6,159.5 L 158.5,159.4 L 158.6,159.3 L 158.7,159.2 L 158.7,159.1 L 158.7,159.0 L 158.6,159.0 L 158.6,158.9 L 158.5,158.8 L 158.5,158.7 L 158.5,158.7 L 158.5,158.6 L 158.5,158.5 L 158.6,158.4 L 158.5,158.3 L 158.4,158.1 L 158.3,158.0 L 158.1,157.9 L 158.0,157.9 L 157.9,157.7 L 157.8,157.7 L 157.7,157.6 L 157.6,157.5 L 157.4,157.3 L 157.4,157.2 L 157.2,157.1 L 157.3,157.0 L 157.3,156.9 L 157.3,156.9 L 157.5,157.0 L 157.4,156.9 L 157.5,156.8 L 157.5,156.8 L 157.6,156.8 L 157.7,156.9 L 157.7,157.0 L 157.6,157.0 L 157.7,157.1 L 157.8,157.2 L 157.9,157.3 L 158.0,157.4 L 158.2,157.5 L 158.2,157.7 L 158.1,157.7 L 158.2,157.8 L 158.3,157.9 L 158.4,157.9 L 158.6,157.8 L 158.6,157.8 L 158.6,157.8 L 158.5,157.7 L 158.5,157.7 L 158.5,157.5 L 158.4,157.4 L 158.4,157.3 L 158.3,157.2 L 158.2,157.1 L 158.3,157.0 L 158.3,157.0 L 158.3,156.8 L 158.3,156.7 L 158.4,156.6 L 158.4,156.4 L 158.3,156.3 L 158.1,156.2 L 158.1,156.1 L 158.0,156.1 L 158.0,156.2 L 157.9,156.1 L 157.9,156.0 L 157.9,155.9 L 157.9,155.9 L 157.9,155.9 L 157.9,155.9 L 158.1,156.0 L 158.1,156.0 L 158.1,155.9 L 158.0,155.8 L 158.0,155.7 L 157.9,155.6 L 157.8,155.5 L 157.6,155.5 L 157.5,155.4 L 157.5,155.3 L 157.4,155.2 L 157.3,155.1 L 157.2,155.0 L 157.1,154.9 L 157.0,154.9 L 157.0,154.9 L 157.0,154.8 L 156.9,154.7 L 156.8,154.6 L 156.8,154.5 L 156.6,154.4 L 156.6,154.2 L 156.5,154.1 L 156.4,154.0 L 156.2,153.9 L 156.0,153.8 L 156.0,153.7 L 156.1,153.6 L 156.0,153.5 L 155.9,153.4 L 156.0,153.2 L 155.9,153.2 L 155.8,153.1 L 155.9,153.1 L 156.0,153.0 L 155.9,152.9 L 155.8,152.8 L 155.8,152.6 L 155.7,152.5 L 155.7,152.4 L 155.7,152.3 L 155.6,152.2 L 155.4,152.0 L 155.3,151.9 L 155.1,151.8 L 155.0,151.8 L 154.8,151.7 L 154.6,151.8 L 154.5,151.9 L 154.6,152.0 L 154.4,152.1 L 154.4,152.2 L 154.5,152.4 L 154.6,152.4 L 154.6,152.5 L 154.6,152.7 L 154.6,152.7 L 154.5,152.7 L 154.3,152.6 L 154.3,152.6 L 154.2,152.6 L 154.2,152.6 L 154.0,152.6 L 154.0,152.6 L 153.9,152.7 L 153.7,152.8 L 153.6,152.9 L 153.5,153.0 L 132.7,135.7 L 131.0,134.2 L 130.8,134.1 L 130.7,133.9 L 130.6,133.8 L 130.5,133.7 L 130.2,133.5 L 130.1,133.5 L 130.1,133.4 L 130.2,133.3 L 130.1,133.0 L 130.0,132.7 L 130.0,132.6 L 129.8,132.4 L 129.7,132.2 L 129.6,132.1 L 129.5,132.0 L 129.4,132.0 L 129.3,131.9 L 129.2,131.9 L 129.0,131.8 L 128.7,131.8 L 128.4,131.9 L 128.2,132.0 L 128.1,132.0 L 127.9,132.1 L 127.8,132.3 L 127.8,132.4 L 127.8,132.5 L 127.9,132.5 L 128.0,132.7 L 128.0,132.7 L 127.9,132.7 L 127.8,132.7 L 127.7,132.8 L 127.5,132.8 L 127.5,132.9 L 127.4,132.9 L 127.5,133.1 L 127.6,133.2 L 127.7,133.4 L 127.6,133.4 L 127.6,133.5 L 127.4,133.4 L 127.0,133.3 L 126.8,133.2 L 126.8,133.3 L 126.8,133.3 L 126.9,133.3 L 126.8,133.4 L 126.6,133.3 L 126.5,133.4 L 126.5,133.5 L 126.6,133.5 L 126.8,133.6 L 126.8,133.5 L 126.9,133.6 L 127.0,133.7 L 127.1,133.8 L 127.0,133.8 L 126.9,133.7 L 126.8,133.8 L 126.6,133.8 L 126.2,133.7 L 126.2,133.9 L 126.1,134.0 L 125.8,134.0 L 125.8,134.1 L 125.8,134.1 L 125.7,134.1 L 125.6,134.2 L 125.5,134.3 L 125.5,134.4 L 125.5,134.4 L 125.4,134.5 L 125.3,134.6 L 125.2,134.8 L 125.3,135.0 L 125.4,135.0 L 125.4,135.1 L 125.4,135.1 L 125.5,135.1 L 125.7,135.2 L 125.6,135.3 L 125.6,135.3 L 125.8,135.4 L 125.9,135.5 L 125.8,135.5 L 125.8,135.5 L 125.7,135.5 L 125.5,135.5 L 125.5,135.6 L 125.5,135.7 L 125.4,135.7 L 122.5,136.0 L 122.5,135.9 L 122.6,135.7 L 122.5,135.6 L 122.5,135.5 L 122.4,135.5 L 122.5,135.4 L 122.5,135.2 L 122.5,135.0 L 122.6,134.9 L 122.5,134.9 L 122.6,134.8 L 122.6,134.8 L 122.6,134.7 L 122.6,134.6 L 122.6,134.4 L 122.7,134.2 L 122.7,134.1 L 122.8,134.0 L 122.8,134.0 L 122.7,133.8 L 122.7,133.7 L 122.7,133.7 L 122.8,133.8 L 122.9,133.7 L 122.9,133.5 L 123.0,133.4 L 123.0,133.3 L 123.1,133.4 L 123.1,133.5 L 123.1,133.6 L 123.2,133.7 L 123.2,133.7 L 123.4,133.7 L 123.5,133.6 L 123.5,133.5 L 123.5,133.5 L 123.6,133.5 L 123.7,133.4 L 123.7,133.3 L 123.8,133.2 L 123.8,133.1 L 123.8,133.1 L 123.8,132.9 L 123.8,132.9 L 123.8,132.8 L 123.8,132.7 L 123.8,132.6 L 123.9,132.7 L 123.9,132.7 L 124.0,132.7 L 124.0,132.7 L 123.9,132.6 L 123.7,132.5 L 123.6,132.3 L 123.6,132.3 L 123.7,132.2 L 123.9,132.3 L 124.0,132.5 L 124.1,132.6 L 124.2,132.5 L 124.3,132.5 L 124.3,132.3 L 124.3,132.3 L 124.3,132.3 L 124.3,132.4 L 124.4,132.5 L 124.4,132.5 L 124.4,132.3 L 124.3,132.1 L 124.3,132.0 L 124.2,131.9 L 124.1,131.9 L 124.2,131.8 L 124.2,131.8 L 124.4,131.9 L 124.5,132.0 L 124.6,131.9 L 124.6,131.7 L 124.5,131.5 L 124.7,131.4 L 124.7,131.5 L 124.8,131.7 L 124.7,131.8 L 124.7,131.9 L 124.7,132.1 L 124.8,132.2 L 124.9,132.4 L 125.1,132.5 L 125.2,132.6 L 125.3,132.5 L 125.4,132.5 L 125.6,132.4 L 125.6,132.3 L 125.7,132.3 L 125.7,132.3 L 125.7,132.5 L 125.7,132.6 L 125.7,132.7 L 125.9,132.6 L 126.0,132.5 L 126.1,132.3 L 126.0,132.2 L 126.1,132.1 L 126.1,132.1 L 125.9,132.0 L 125.9,132.0 L 126.0,131.9 L 126.0,131.7 L 126.0,131.5 L 125.9,131.3 L 125.8,131.2 L 125.7,131.2 L 125.6,131.3 L 125.4,131.3 L 125.3,131.3 L 125.2,131.1 L 125.0,131.0 L 124.9,131.0 L 124.8,131.0 L 124.8,131.0 L 124.7,131.0 L 124.6,131.1 L 124.7,131.2 L 124.6,131.3 L 124.6,131.4 L 124.5,131.4 L 124.3,131.4 L 124.2,131.4 L 124.2,131.6 L 124.2,131.7 L 124.1,131.7 L 124.0,131.6 L 123.9,131.4 L 123.8,131.4 L 123.8,131.4 L 124.0,131.4 L 124.1,131.4 L 124.2,131.3 L 124.2,131.2 L 124.2,131.0 L 124.3,130.9 L 124.2,130.8 L 124.2,130.6 L 124.2,130.5 L 124.1,130.5 L 124.1,130.3 L 124.1,130.3 L 124.1,130.2 L 124.1,130.1 L 124.2,130.0 L 124.2,129.9 L 124.2,129.8 L 124.2,129.7 L 124.3,129.5 L 124.4,129.5 L 124.6,129.4 L 124.7,129.5 L 124.9,129.6 L 125.0,129.7 L 125.1,129.7 L 125.2,129.9 L 125.3,130.0 L 125.4,130.2 L 125.6,130.3 L 125.7,130.4 L 125.7,130.3 L 125.9,130.4 L 126.1,130.5 L 126.1,130.6 L 126.2,130.6 L 126.3,130.7 L 126.4,130.7 L 126.4,130.8 L 126.6,130.8 L 126.7,130.7 L 126.8,130.5 L 126.8,130.3 L 126.8,130.2 L 126.8,130.0 L 126.8,129.9 L 126.9,129.7 L 127.0,129.6 L 127.0,129.5 L 127.0,129.3 L 127.0,129.1 L 127.0,128.9 L 127.0,128.8 L 127.0,128.6 L 126.9,128.5 L 126.8,128.4 L 126.8,128.3 L 126.7,128.2 L 126.7,128.1 L 126.8,128.1 L 126.9,128.1 L 127.1,128.1 L 127.1,128.0 L 127.1,127.9 L 126.9,127.8 L 127.0,127.7 L 127.1,127.7 L 127.1,127.7 L 127.1,127.6 L 127.0,127.5 L 126.9,127.4 L 126.9,127.4 L 127.1,127.4 L 127.1,127.3 L 126.9,127.2 L 126.9,127.1 L 126.9,127.0 L 126.9,127.0 L 126.9,126.8 L 127.2,127.0 L 127.2,126.8 L 127.3,126.7 L 127.4,126.7 L 127.6,126.4 L 127.5,126.2 L 127.0,125.7 L 126.8,125.6 L 126.7,125.0 L 126.9,124.8 L 126.7,124.4 L 126.4,124.3 L 126.1,123.9 L 125.9,123.6 L 125.4,123.4 L 125.0,123.0 L 124.9,122.8 L 125.0,122.6 L 125.0,122.2 L 125.0,121.8 L 125.2,121.5 L 125.4,121.5 L 125.3,121.3 L 125.3,121.2 L 125.4,121.0 L 125.4,120.9 L 125.5,120.8 L 125.7,120.9 L 125.9,121.2 L 125.7,121.8 L 126.0,122.0 L 126.6,122.5 L 126.7,122.7 L 126.9,122.8 L 127.4,122.9 L 127.5,123.0 L 127.7,123.1 L 127.7,123.3 L 128.0,123.5 L 128.1,123.6 L 127.9,123.7 L 128.1,123.9 L 128.1,124.0 L 128.2,124.2 L 128.3,124.3 L 128.4,124.4 L 128.5,124.4 L 129.1,124.7 L 129.7,124.8 L 130.0,124.9 L 130.0,125.0 L 129.8,125.1 L 129.7,125.0 L 129.4,125.0 L 129.3,125.2 L 128.9,125.2 L 128.7,125.2 L 128.2,125.2 L 128.1,125.3 L 128.0,125.5 L 128.1,125.7 L 128.0,126.1 L 128.0,126.5 L 128.2,126.6 L 128.3,126.9 L 128.2,127.2 L 128.2,127.2 L 128.2,127.3 L 128.3,127.4 L 128.3,127.5 L 128.3,127.5 L 128.1,127.6 L 128.1,127.7 L 128.0,127.8 L 128.0,128.0 L 128.1,128.2 L 128.2,128.5 L 128.3,128.6 L 128.4,128.7 L 128.4,128.8 L 128.7,129.1 L 128.9,129.2 L 129.1,129.3 L 129.2,129.4 L 129.4,129.5 L 129.5,129.6 L 129.5,129.7 L 129.5,129.8 L 129.6,129.9 L 129.9,130.2 L 130.0,130.3 L 130.3,130.3 L 130.3,130.3 L 130.2,130.4 L 130.3,130.5 L 130.5,130.6 L 130.7,130.8 L 130.8,130.9 L 131.0,131.0 L 131.1,131.0 L 131.1,131.0 L 131.1,131.0 L 131.2,130.9 L 131.3,130.9 L 131.3,130.8 L 131.5,130.9 L 131.6,131.0 L 131.8,131.1 L 131.9,131.1 L 132.0,131.0 L 132.0,130.9 L 132.0,130.8 L 132.0,130.7 L 131.9,130.7 L 131.7,130.7 L 131.6,130.5 L 131.6,130.5 L 131.6,130.4 L 131.8,130.4 L 131.9,130.6 L 132.1,130.6 L 132.2,130.7 L 132.4,130.7 L 132.6,130.8 L 132.6,130.8 L 132.7,130.8 L 132.9,130.8 L 133.0,130.8 L 133.1,130.7 L 133.1,130.5 L 133.2,130.5 L 133.3,130.6 L 133.4,130.6 L 133.5,130.4 L 133.5,130.3 L 133.5,130.2 L 133.5,130.1 L 133.5,129.9 L 133.5,129.9 L 133.5,129.6 L 133.3,129.4 L 133.3,129.4 L 133.4,129.4 L 133.5,129.3 L 133.7,129.0 L 133.9,129.0 L 134.1,128.8 L 134.1,128.8 L 134.3,128.7 L 134.4,128.5 L 134.4,128.4 L 134.4,128.3 L 134.6,128.2 L 134.8,128.0 L 135.0,127.9 L 135.1,127.8 L 135.1,127.7 L 135.0,127.6 L 135.1,127.5 L 135.2,127.4 L 135.1,127.2 L 135.0,127.2 L 135.1,127.1 L 135.2,127.1 L 135.2,127.0 L 135.0,126.8 L 134.9,126.7 L 135.0,126.6 L 135.2,126.6 L 135.2,126.3 L 135.1,126.1 L 134.8,125.5 L 134.8,125.2 L 134.9,125.0 L 135.0,124.9 L 135.2,124.9 L 135.3,125.0 L 135.5,125.1 L 135.6,125.2 L 135.8,125.2 L 135.9,125.1 L 136.3,125.1 L 136.5,125.0 L 136.6,124.8 L 136.4,124.7 L 136.4,124.6 L 136.8,124.3 L 136.8,124.0 L 137.4,123.9 L 137.9,123.6 L 138.2,123.5 L 138.5,123.1 L 138.7,123.0 L 138.9,122.9 L 139.3,122.4 L 139.4,122.4 L 139.4,122.6 L 139.6,122.6 L 139.8,122.4 L 139.8,122.3 L 140.0,122.1 L 140.0,122.0 L 140.1,121.9 L 140.3,121.8 L 140.4,121.3 L 140.0,120.9 L 140.0,120.9 L 139.9,120.9 L 139.7,120.8 L 139.7,120.4 L 139.9,120.1 L 140.1,120.1 L 140.1,120.0 L 140.0,119.8 L 140.0,119.5 L 139.9,119.3 L 139.9,119.3 L 140.2,119.4 L 140.3,119.4 L 140.4,119.3 L 140.3,119.0 L 140.2,118.8 L 140.4,118.6 L 140.4,118.4 L 140.4,118.3 L 140.4,118.2 L 140.6,118.2 L 140.9,118.5 L 141.3,118.8 L 141.8,118.7 L 142.1,118.6 L 142.1,118.4 L 142.1,118.4 L 142.2,118.2 L 142.2,118.0 L 142.4,117.9 L 142.3,117.9 L 142.4,117.6 L 142.3,117.2 L 142.1,116.8 L 142.2,116.6 L 142.3,116.5 L 142.4,116.7 L 142.7,117.1 L 142.8,117.1 L 143.0,117.2 L 143.1,117.2 L 143.3,117.1 L 143.1,116.7 L 143.3,116.6 L 143.1,116.4 L 143.0,116.3 L 143.1,116.2 L 143.2,116.2 L 143.3,116.2 L 143.3,116.0 L 143.2,115.8 L 143.1,115.6 L 143.4,115.6 L 143.5,115.5 L 143.5,115.3 L 143.6,115.3 L 143.8,115.4 L 143.9,115.5 L 144.3,115.5 L 144.4,115.5 L 144.4,115.3 L 144.6,115.3 L 144.4,114.9 L 144.5,114.8 L 144.3,114.5 L 144.1,114.5 L 144.1,114.1 L 143.9,113.1 L 143.7,113.0 L 143.6,113.1 L 143.4,113.3 L 143.3,113.7 L 143.5,113.9 L 143.4,114.0 L 143.4,114.4 L 143.5,114.5 L 143.4,114.8 L 143.1,114.8 L 143.0,114.7 L 142.9,114.5 L 143.1,114.4 L 143.1,113.9 L 143.0,113.7 L 142.9,113.5 L 142.7,113.2 L 142.6,112.9 L 142.7,112.8 L 142.8,112.7 L 142.9,112.6 L 142.8,112.6 L 142.8,112.4 L 142.4,112.2 L 142.3,112.3 L 142.2,112.3 L 141.9,112.4 L 141.9,112.6 L 141.7,112.7 L 141.5,112.6 L 141.4,112.7 L 141.4,112.8 L 141.4,112.9 L 141.4,113.2 L 141.6,113.6 L 141.7,113.8 L 142.0,113.9 L 141.9,114.1 L 142.1,114.2 L 142.3,114.3 L 142.3,114.7 L 142.5,114.8 L 142.6,115.1 L 142.5,115.6 L 142.1,115.5 L 141.9,115.4 L 141.7,114.6 L 141.8,114.6 L 141.8,114.4 L 141.4,113.9 L 141.1,113.5 L 141.0,113.3 L 140.8,112.9 L 140.6,112.4 L 140.4,112.3 L 140.3,112.4 L 140.2,112.5 L 140.0,112.3 L 139.8,112.3 L 139.8,112.4 L 139.6,112.5 L 139.4,112.6 L 139.5,112.7 L 139.4,113.0 L 139.3,113.1 L 139.2,113.3 L 139.0,113.3 L 139.0,113.3 L 138.8,113.7 L 138.5,113.8 L 138.4,114.1 L 138.3,114.1 L 137.9,113.8 L 137.8,113.8 L 137.4,113.5 L 137.1,113.1 L 137.0,113.0 L 136.7,113.1 L 136.5,113.0 L 136.2,112.8 L 136.0,112.8 L 135.8,113.0 L 135.2,112.9 L 134.9,113.0 L 134.8,113.1 L 134.7,113.3 L 134.6,113.5 L 134.6,113.7 L 134.7,113.9 L 134.8,114.1 L 134.6,114.3 L 134.3,114.3 L 134.0,114.5 L 133.7,114.5 L 133.5,114.5 L 133.5,114.6 L 133.4,114.8 L 133.5,114.9 L 133.5,115.0 L 133.7,115.2 L 134.0,115.3 L 134.3,115.7 L 134.6,115.8 L 135.1,116.1 L 135.1,116.1 L 134.8,116.2 L 134.6,116.2 L 134.6,116.3 L 134.5,116.4 L 133.6,116.0 L 133.2,115.9 L 133.2,115.8 L 133.1,115.8 L 133.0,115.9 L 132.8,115.8 L 132.8,115.7 L 132.7,115.6 L 132.6,115.7 L 132.5,115.7 L 132.3,115.7 L 132.2,115.8 L 132.1,115.7 L 132.0,115.7 L 131.8,115.8 L 131.8,116.3 L 131.8,116.9 L 131.8,117.0 L 131.7,117.1 L 131.3,117.1 L 131.2,117.0 L 131.2,116.5 L 131.1,116.2 L 131.1,115.8 L 131.2,115.7 L 131.8,114.9 L 131.9,114.7 L 131.7,114.5 L 131.6,114.4 L 131.2,114.1 L 131.2,113.9 L 131.5,113.7 L 131.9,113.8 L 132.0,113.9 L 132.4,113.9 L 132.7,113.7 L 132.7,113.7 L 133.0,113.7 L 133.3,113.4 L 133.4,113.2 L 133.4,113.0 L 133.2,112.8 L 132.9,112.3 L 132.8,112.2 L 132.8,112.1 L 132.8,112.0 L 132.8,111.6 L 132.9,111.6 L 133.0,111.5 L 133.2,111.5 L 133.3,111.8 L 133.4,112.0 L 133.3,112.3 L 133.4,112.6 L 133.6,112.8 L 133.8,112.7 L 134.1,112.4 L 134.3,112.5 L 134.4,112.3 L 134.5,112.2 L 134.7,112.2 L 134.8,112.0 L 134.9,111.8 L 134.9,111.1 L 134.7,110.8 L 134.8,110.7 L 135.0,110.7 L 135.0,110.5 L 134.9,110.3 L 135.1,110.1 L 135.3,110.2 L 135.5,110.3 L 135.7,110.3 L 135.8,110.2 L 135.7,110.1 L 135.9,109.9 L 136.1,110.1 L 136.4,110.1 L 136.4,110.2 L 136.4,110.2 L 136.7,110.2 L 136.7,110.2 L 136.6,110.1 L 136.8,109.9 L 136.9,109.9 L 137.1,109.7 L 137.1,109.4 L 137.1,109.3 L 137.2,109.2 L 137.3,109.2 L 137.4,109.0 L 137.4,108.8 L 137.2,108.2 L 137.4,107.9 L 137.6,107.6 L 137.7,107.7 L 137.8,107.7 L 137.9,107.7 L 138.1,108.0 L 138.3,108.0 L 138.3,107.8 L 138.2,107.5 L 138.0,106.8 L 138.0,106.4 L 138.0,106.1 L 138.1,106.0 L 138.1,105.9 L 138.9,106.2 L 139.0,106.3 L 139.2,106.4 L 139.6,106.7 L 139.8,106.9 L 139.8,107.2 L 139.9,107.6 L 140.2,107.8 L 140.4,107.9 L 140.6,107.8 L 140.7,107.7 L 141.1,107.3 L 141.4,107.1 L 141.8,107.0 L 142.0,107.2 L 142.1,107.1 L 142.1,106.5 L 142.0,106.3 L 142.0,105.9 L 142.1,105.8 L 142.4,105.9 L 142.6,105.8 L 142.7,105.9 L 142.8,106.2 L 143.2,106.2 L 143.5,106.1 L 143.7,106.2 L 143.7,106.2 L 143.9,106.6 L 144.0,106.7 L 144.1,106.8 L 144.2,106.9 L 144.2,106.8 L 144.4,106.9 L 144.5,107.0 L 144.6,107.2 L 144.8,107.3 L 144.8,107.5 L 145.4,108.2 L 145.7,108.3 L 146.1,108.2 L 146.4,108.0 L 146.7,107.9 L 147.2,107.6 L 147.3,107.3 L 147.4,106.5 L 147.4,106.4 L 147.3,106.0 L 147.2,105.7 L 147.2,105.7 L 147.3,105.7 L 147.4,105.6 L 147.5,105.6 L 147.6,105.5 L 147.6,105.2 L 147.9,105.2 L 148.1,105.1 L 148.4,105.2 L 148.7,104.8 L 148.9,104.5 L 149.0,104.2 L 149.1,104.1 L 149.1,103.8 L 149.2,103.7 L 149.2,103.5 L 149.4,103.5 L 149.6,103.3 L 149.8,103.4 L 150.1,103.2 L 150.3,102.9 L 150.3,102.7 L 150.2,102.4 L 150.3,102.2 L 150.2,102.0 L 150.1,102.0 L 150.0,101.9 L 149.8,101.5 L 149.9,101.3 L 150.2,101.1 L 150.3,100.9 L 150.5,100.7 L 150.6,100.6 L 150.7,100.6 L 150.7,100.8 L 150.6,101.0 L 150.7,101.0 L 150.8,101.0 L 151.0,100.8 L 151.3,100.5 L 151.5,100.7 L 151.6,100.7 L 151.8,100.5 L 152.0,100.1 L 152.2,99.6 L 152.2,99.4 L 152.2,99.3 L 152.0,99.2 L 151.9,99.4 L 151.6,99.7 L 151.5,99.8 L 151.4,99.7 L 151.5,99.5 L 151.7,99.3 L 152.0,98.6 L 152.0,98.4 L 152.0,97.9 L 152.0,97.7 L 151.8,97.4 L 151.6,96.9 L 151.8,96.7 L 151.8,96.5 L 151.9,96.4 L 152.2,96.5 L 152.2,96.6 L 152.2,96.7 L 152.4,96.7 L 152.5,96.9 L 152.5,97.1 L 152.6,97.1 L 152.8,97.3 L 152.9,97.2 L 152.9,96.9 L 152.9,96.8 L 152.7,96.8 L 152.7,96.6 L 152.9,96.5 L 152.9,96.2 L 153.0,96.2 L 153.1,96.0 L 153.1,95.6 L 153.1,95.4 L 153.3,95.3 L 153.5,95.3 L 153.6,95.4 L 154.0,95.4 L 154.1,95.2 L 154.3,94.8 L 154.4,94.2 L 154.5,93.9 L 154.6,93.8 L 154.7,93.4 L 154.8,93.4 L 155.0,93.1 L 155.1,92.8 L 155.1,92.6 L 155.2,92.4 L 155.1,92.1 L 155.1,91.9 L 155.0,91.7 L 155.1,91.5 L 155.1,91.4 L 155.1,91.2 L 154.3,90.8 L 154.2,89.8 L 154.3,89.1 L 153.9,88.2 L 153.9,88.1 L 153.8,87.7 L 153.8,87.3 L 154.0,87.0 L 154.0,85.8 L 153.8,85.4 L 153.7,85.3 L 153.8,84.7 L 153.7,84.3 L 153.7,83.8 L 153.6,83.5 L 153.5,83.3 L 153.7,82.4 L 153.9,82.3 L 153.8,82.1 L 154.2,81.9 L 154.3,81.7 L 154.4,81.6 L 154.6,81.5 L 154.7,81.1 L 154.8,80.9 L 154.7,80.6 L 154.8,80.2 L 154.8,79.6 L 154.8,79.4 L 154.6,79.3 L 154.7,78.9 L 154.5,78.4 L 154.3,78.2 L 154.3,77.9 L 154.3,77.3 L 154.2,76.9 L 154.3,76.2 L 154.7,75.6 L 154.7,75.3 L 155.0,75.1 L 155.0,75.0 L 155.0,74.9 L 155.2,74.8 L 155.6,75.1 L 155.6,75.1 L 155.8,75.2 L 156.0,75.1 L 156.1,75.1 L 156.2,74.9 L 156.4,74.9 L 156.5,74.8 L 156.6,74.6 L 156.6,74.6 L 157.0,74.3 L 157.0,74.4 L 157.0,74.7 L 157.0,74.8 L 157.3,75.0 L 157.4,75.0 L 157.6,74.7 L 157.9,74.0 L 158.1,73.4 L 158.2,73.3 L 158.3,72.8 L 158.2,72.6 L 158.1,72.5 L 157.8,72.5 L 157.8,72.5 L 157.8,72.2 L 157.8,71.2 L 158.0,70.9 L 158.0,70.7 L 157.8,70.6 L 157.7,70.6 L 157.7,70.4 L 158.1,69.9 L 158.1,69.6 L 158.1,69.5 L 158.1,69.1 L 158.2,68.8 L 158.3,68.6 L 158.4,68.4 L 158.4,68.2 L 158.3,67.9 L 158.2,67.8 L 158.2,67.7 L 158.3,67.6 L 158.2,67.5 L 158.0,67.7 L 157.9,67.7 L 157.9,67.7 L 157.9,67.5 L 158.2,67.2 L 158.1,66.7 L 158.0,66.7 L 157.9,66.8 L 157.8,67.2 L 157.7,67.3 L 157.6,67.2 L 157.7,66.8 L 157.8,66.4 L 157.8,66.3 L 157.8,65.7 L 157.6,65.6 L 157.3,65.6 L 157.2,65.5 L 157.1,65.4 L 157.2,65.0 L 157.3,64.8 L 157.4,64.7 L 157.7,64.5 L 157.8,64.7 L 158.0,64.7 L 158.2,64.5 L 158.2,64.4 L 158.0,64.2 L 158.7,63.2 L 158.8,63.0 L 158.9,62.7 L 158.9,62.5 L 158.9,62.2 L 158.7,62.2 L 158.3,62.5 L 158.2,62.4 L 158.0,62.2 L 157.9,61.5 L 157.9,61.4 L 158.2,61.3 L 158.7,60.7 L 158.7,60.3 L 158.6,60.1 L 158.7,60.0 L 159.1,60.0 L 159.2,59.9 L 159.2,59.3 L 159.1,59.0 L 159.0,58.9 L 158.6,59.2 L 158.5,59.1 L 158.6,58.8 L 158.9,58.3 L 159.1,58.2 L 159.2,57.9 L 159.1,57.7 L 159.2,57.6 L 159.2,57.4 L 159.2,57.1 L 159.1,56.7 L 159.2,56.3 L 158.9,55.9 L 158.9,55.9 L 158.9,55.2 L 158.8,54.8 L 158.9,54.5 L 159.1,54.3 L 159.1,54.1 L 159.1,53.7 L 159.0,53.6 L 158.9,53.3 L 159.0,52.9 L 159.1,52.6 L 159.2,52.5 L 159.3,52.1 L 159.2,52.1 L 159.0,51.8 L 158.6,51.7 L 158.1,51.9 L 158.0,51.6 L 157.7,51.4 L 157.6,51.3 L 157.6,51.2 L 157.4,51.1 L 157.5,50.8 L 157.3,50.7 L 157.0,50.6 L 157.0,50.2 L 156.9,50.1 L 156.9,49.6 L 156.9,49.3 L 156.8,49.0 L 156.8,48.6 L 157.0,48.4 L 157.1,48.2 L 157.1,48.0 L 157.0,47.6 L 156.9,47.4 L 156.9,46.9 L 156.8,46.6 L 157.1,46.5 L 157.2,46.4 L 157.4,46.0 L 157.5,45.9 L 157.7,46.0 L 157.7,46.3 L 157.8,46.2 L 157.9,45.6 L 158.0,45.4 L 158.1,45.3 L 158.1,44.7 L 158.0,44.4 L 158.0,44.1 L 158.0,43.9 L 157.8,43.4 L 157.5,43.0 L 157.5,42.7 L 157.3,41.8 L 157.2,41.3 L 157.0,41.1 L 157.0,41.0 L 157.1,40.5 L 156.9,40.2 L 156.6,40.0 L 156.7,40.0 L 184.7,40.6 L 193.8,40.8 L 193.4,41.2 L 193.2,41.4 L 193.1,41.7 L 192.6,42.0 L 192.4,42.6 L 192.4,43.1 L 192.6,43.6 L 192.7,43.9 L 192.6,44.0 L 192.7,44.4 L 192.7,45.0 L 192.8,45.3 L 192.8,45.7 L 192.9,46.3 L 193.0,46.7 L 193.0,47.1 L 193.1,47.4 L 193.2,47.6 L 193.2,48.0 L 193.3,48.3 L 193.1,48.7 L 192.6,48.9 L 192.4,48.9 L 191.8,49.2 L 191.5,49.4 L 191.4,49.5 L 190.9,49.7 L 190.9,49.8 L 190.8,50.1 L 190.7,50.2 L 190.5,50.8 L 190.5,51.0 L 190.8,51.4 L 190.8,51.6 L 190.9,52.1 L 191.0,52.3 L 190.9,52.5 L 190.9,52.7 L 191.2,53.4 L 191.1,54.2 L 191.1,54.4 L 191.1,54.5 L 191.4,54.8 L 191.5,54.9 L 191.6,55.1 L 191.5,55.4 L 191.2,55.6 L 191.2,55.7 L 191.1,56.0 L 191.0,56.1 L 190.5,56.2 L 190.2,56.5 L 190.2,56.6 L 190.1,56.8 L 190.0,57.0 L 189.5,57.6 L 189.5,57.9 L 189.5,58.1 L 189.4,58.7 L 189.4,59.0 L 189.4,59.5 L 189.1,59.9 L 189.0,60.2 L 189.1,60.5 L 189.4,61.3 L 189.8,61.7 L 190.5,62.1 L 190.8,62.5 L 191.2,62.9 L 191.2,63.1 L 191.2,63.4 L 191.2,63.6 L 190.6,64.0 L 190.5,64.2 L 190.5,64.3 L 190.5,64.7 L 190.4,65.1 L 190.5,65.4 L 190.6,65.5 L 190.6,65.6 L 190.5,66.0 L 190.6,66.1 L 190.5,66.4 L 190.7,66.6 L 191.2,66.9 L 191.9,67.2 L 192.5,67.3 L 192.7,67.5 L 193.4,67.8 L 193.3,68.0 L 193.2,68.0 L 192.9,67.7 L 192.5,67.6 L 192.3,67.6 L 192.2,67.4 L 191.9,67.3 L 191.3,67.2 L 190.9,67.0 L 190.7,67.0 L 190.6,66.8 L 190.4,66.7 L 190.4,66.8 L 190.3,66.9 L 190.2,67.1 L 190.3,67.2 L 190.4,67.5 L 190.0,67.7 L 189.7,67.7 L 189.5,67.9 L 189.4,68.1 L 189.0,68.1 L 188.8,68.3 L 188.8,68.5 L 188.8,68.7 L 188.8,68.9 L 188.6,69.0 L 188.5,69.0 L 188.3,68.9 L 188.2,69.0 L 188.3,69.2 L 188.4,69.3 L 188.5,69.6 L 188.5,69.7 L 188.4,69.8 L 187.9,70.1 L 187.8,70.3 L 187.8,70.5 L 188.1,70.5 L 188.2,70.7 L 188.1,70.8 L 188.1,71.0 L 188.3,71.4 L 188.7,71.6 L 189.1,72.0 L 189.2,72.3 L 189.3,72.5 L 189.4,72.6 L 189.3,72.8 L 189.2,73.1 L 189.1,73.7 L 189.0,74.5 L 189.2,75.0 L 189.3,75.4 L 189.0,75.9 L 188.8,76.3 L 188.6,76.6 L 188.6,77.4 L 188.6,77.6 L 188.4,78.5 L 188.2,78.8 L 188.2,79.1 L 188.2,79.3 L 188.3,79.5 L 188.4,79.7 L 188.3,80.3 L 188.2,80.6 L 188.0,80.8 L 187.9,81.1 L 187.6,81.3 L 187.5,81.5 L 187.5,81.7 L 187.7,81.9 L 187.6,82.3 L 187.4,82.6 L 187.0,82.9 L 186.6,83.6 L 186.5,84.0 L 186.5,84.5 L 186.4,84.9 L 186.3,85.2 L 186.1,85.5 L 185.9,86.1 L 185.6,86.3 L 185.3,86.2 L 185.1,86.4 L 185.1,86.6 L 185.2,86.7 L 185.2,86.8 L 185.0,87.0 L 184.8,87.6 L 184.4,88.1 L 183.8,88.4 L 183.4,88.8 L 183.4,88.9 L 183.3,89.1 L 183.4,89.4 L 183.3,89.7 L 183.2,89.8 L 182.4,89.7 L 182.1,89.9 L 182.1,90.0 L 182.2,90.2 L 182.0,90.5 L 182.0,90.9 L 182.1,91.1 L 182.4,91.7 L 182.6,91.8 L 182.7,92.0 L 182.6,92.2 L 182.5,92.3 L 182.1,92.5 L 181.7,92.5 L 181.7,92.5 L 181.6,92.4 L 181.3,92.4 L 181.2,92.5 L 180.9,92.7 L 180.8,92.8 L 180.7,92.9 L 180.5,93.2 L 180.2,93.3 L 179.9,93.3 L 179.5,93.2 L 179.3,93.2 L 179.0,93.1 L 178.8,93.3 L 178.7,93.5 L 178.8,93.9 L 179.2,94.8 L 179.5,95.0 L 179.6,95.2 L 179.5,95.5 L 179.6,95.6 L 179.7,96.0 L 179.5,96.2 L 179.3,96.3 L 179.0,96.2 L 178.4,96.0 L 178.3,96.0 L 178.2,96.3 L 178.1,96.4 L 177.6,96.7 L 177.3,96.8 L 176.5,97.3 L 175.8,98.1 L 175.4,98.0 L 175.3,98.1 L 175.3,98.6 L 175.5,98.8 L 175.7,98.7 L 176.1,98.8 L 176.4,98.9 L 176.4,99.1 L 176.2,99.2 L 176.1,99.7 L 175.9,99.9 L 175.6,99.9 L 175.4,99.7 L 175.2,99.9 L 175.1,100.1 L 175.0,100.3 L 174.9,100.7 L 174.9,101.1 L 174.8,101.8 L 174.7,103.5 L 175.1,104.3 L 175.1,104.5 L 175.3,105.3 L 175.4,105.6 L 175.6,106.0 L 175.5,106.1 L 175.4,106.2 L 175.5,106.4 L 175.9,106.9 L 175.9,107.0 L 176.3,107.4 L 176.3,107.5 L 176.0,107.7 L 175.8,107.7 L 175.5,107.7 L 174.9,107.5 L 174.9,107.5 L 174.6,107.3 L 173.8,107.2 L 173.7,107.3 L 173.7,107.6 L 174.2,108.0 L 174.4,108.1 L 175.5,108.6 L 175.9,108.7 L 176.7,109.3 L 176.8,109.7 L 176.8,109.8 L 177.0,109.9 L 177.1,110.1 L 177.5,110.2 L 177.6,110.2 L 178.0,110.7 L 177.8,110.9 L 177.7,111.1 L 177.6,111.2 L 177.5,111.5 L 177.2,112.3 L 177.0,112.6 L 176.9,112.9 L 176.7,114.0 L 176.8,114.3 L 176.9,114.5 L 176.8,114.7 L 176.7,115.0 L 177.0,115.6 L 177.9,117.2 L 177.9,117.4 L 177.9,117.6 L 178.3,117.8 L 178.3,117.9 L 178.2,118.2 L 178.1,118.5 L 178.1,118.7 L 177.9,118.8 L 177.8,119.0 L 177.9,119.2 L 178.0,119.7 L 177.9,119.8 L 177.8,119.8 L 177.8,120.3 L 177.8,120.7 L 178.0,120.7 L 178.1,120.9 L 178.2,121.1 L 179.1,121.6 L 179.8,121.9 L 180.4,121.9 L 180.7,121.8 L 180.8,121.9 L 181.2,122.0 L 181.2,122.1 L 180.7,122.4 L 180.7,122.5 L 180.4,122.6 L 180.3,122.9 L 180.2,123.5 L 180.0,123.8 L 180.0,124.0 L 180.0,124.2 L 180.4,124.6 L 181.0,124.9 L 181.4,125.0 L 181.8,124.8 L 181.9,124.9 L 182.0,125.0 L 182.4,125.0 L 182.7,124.8 L 182.9,124.8 L 183.1,124.9 L 183.3,124.8 L 183.3,124.9 L 183.0,125.4 L 182.7,126.0 L 182.5,126.3 L 182.4,126.4 L 182.4,126.6 L 182.9,126.8 L 183.1,126.8 L 183.6,126.7 L 184.3,126.7 L 185.3,126.0 L 185.6,125.8 L 185.6,126.2 L 185.5,126.4 L 185.2,126.6 L 185.1,126.9 L 185.4,127.1 L 185.4,127.3 L 185.0,127.5 L 184.5,128.1 L 184.5,128.4 L 184.6,128.5 L 185.5,128.9 L 186.3,129.3 L 186.1,129.3 L 186.0,129.5 L 186.0,129.6 L 186.2,129.8 L 186.8,130.4 L 187.1,130.6 L 187.2,130.7 L 187.1,130.7 L 186.6,130.6 L 186.4,130.4 L 186.1,130.5 L 185.8,130.4 L 185.3,130.3 L 185.0,130.4 L 184.7,130.4 L 184.5,130.3 L 184.1,130.2 L 183.7,130.3 L 183.8,130.9 L 183.9,131.0 L 184.7,131.5 L 184.7,131.6 L 184.5,131.6 L 184.6,131.7 L 185.0,131.9 L 185.0,132.1 L 185.2,132.4 L 185.7,132.5 L 185.8,132.7 L 186.1,132.9 L 186.1,133.0 L 186.3,133.3 L 186.5,133.4 L 186.6,133.5 L 186.2,133.5 L 186.3,133.7 L 186.4,133.8 L 186.3,133.9 L 185.7,133.9 L 185.5,134.0 L 184.3,134.8 L 183.9,135.0 L 183.4,135.4 L 183.4,135.4 L 183.1,135.4 L 183.0,135.5 L 182.8,135.8 L 182.6,136.1 L 182.4,136.5 L 182.3,136.6 L 182.2,136.9 L 182.3,137.1 L 182.6,137.3 L 182.8,137.4 L 182.8,137.6 L 183.0,137.8 L 183.2,138.1 L 183.3,138.3 L 183.5,138.3 L 183.6,138.4 L 183.6,138.4 L 183.4,138.5 L 183.2,138.5 L 182.8,138.4 L 182.5,138.5 L 182.3,138.5 L 182.2,138.6 L 181.9,138.7 L 181.8,138.7 L 181.6,138.7 L 181.4,138.8 L 181.2,139.1 L 181.2,139.2 L 181.3,139.2 L 181.2,139.3 L 181.1,139.6 L 181.0,139.7 L 181.1,139.8 L 181.0,139.9 L 181.0,140.1 L 181.1,140.1 L 181.2,140.2 L 181.3,140.4 L 181.6,140.6 L 181.7,140.7 L 181.8,140.9 L 181.9,140.9 L 181.9,141.1 L 181.6,141.3 L 181.5,141.4 L 181.5,141.5 L 181.5,141.5 L 181.7,141.7 L 181.7,142.1 L 181.7,142.3 L 181.7,142.4 L 181.7,142.4 L 181.8,142.5 L 182.0,142.8 L 182.1,142.9 L 182.2,143.0 L 182.3,143.0 L 182.2,143.1 L 182.4,143.2 L 182.6,143.5 L 182.7,143.6 L 182.8,143.6 L 182.9,143.7 L 183.1,143.7 L 183.2,143.9 L 183.2,144.0 L 183.3,144.1 L 183.4,144.2 L 183.5,144.3 L 183.4,144.4 L 183.5,144.7 L 183.5,144.8 L 183.7,145.1 L 183.8,145.2 L 184.0,145.2 L 184.2,145.3 L 184.3,145.3 L 184.4,145.3 L 184.5,145.3 L 184.6,145.3 L 184.8,145.2 L 185.1,145.3 L 185.4,145.3 L 185.5,145.2 L 185.6,145.2 L 185.7,145.2 L 185.8,145.2 L 185.8,145.3 L 185.9,145.3 L 186.2,145.2 L 186.3,145.1 L 186.2,145.0 L 186.3,144.9 L 186.5,144.9 L 186.7,144.8 L 186.7,144.8 L 186.8,144.8 L 186.8,144.8 L 186.8,144.7 L 186.9,144.7 L 187.0,144.7 L 187.1,144.7 L 187.3,144.8 L 187.5,144.9 L 187.6,144.9 L 187.9,144.9 L 187.9,144.9 L 187.9,145.0 L 187.9,145.1 L 188.1,145.0 L 188.1,145.0 L 188.1,145.0 L 189.5,146.7 L 189.5,146.7 L 189.7,146.7 L 189.8,146.8 L 189.8,147.0 L 189.9,147.2 L 189.7,147.3 L 189.7,147.5 L 189.8,147.6 L 189.9,147.7 L 189.2,147.9 L 189.1,148.0 L 189.0,148.2 L 189.0,148.4 L 189.0,148.7 L 188.8,148.9 L 188.7,149.2 L 188.4,149.4 L 188.3,149.6 L 188.1,149.9 L 188.0,150.0 L 187.8,150.2 L 187.7,150.4 L 187.9,150.7 L 187.9,150.9 L 188.0,151.0 L 188.0,151.1 L 188.2,151.3 L 188.1,151.5 L 188.2,151.6 L 188.7,152.1 L 188.9,152.2 L 188.9,152.2 L 188.5,152.4 L 189.1,153.0 L 189.6,153.3 L 190.0,153.4 L 190.1,153.6 L 190.0,154.1 L 189.9,154.4 L 189.8,155.2 L 189.8,155.3 L 189.6,155.7 L 189.5,155.9 L 189.3,156.2 L 189.2,156.4 L 189.3,156.5 L 190.1,157.2 L 190.5,157.6 L 190.7,157.7 L 190.8,157.9 L 190.9,158.0 L 191.0,158.0 L 191.0,158.1 L 190.9,158.3 L 191.0,158.7 L 191.1,158.8 L 191.1,159.1 L 191.3,159.3 L 191.1,159.4 L 191.0,159.6 L 191.1,159.9 L 191.4,160.3 L 191.4,160.5 L 191.5,160.7 L 191.7,160.8 L 191.8,161.0 L 192.2,160.9 L 192.4,160.8 L 192.5,160.6 L 192.4,160.4 L 192.5,160.3 L 192.7,160.4 L 192.9,160.3 L 192.9,160.3 L 193.0,160.5 L 193.4,160.5 L 193.6,160.4 L 193.7,160.2 L 193.7,160.2 L 193.8,160.0 L 194.0,160.1 L 194.1,160.2 L 194.1,160.5 L 194.2,160.8 L 194.5,160.9 L 194.7,161.2 L 195.1,161.3 L 195.4,161.5 L 195.9,161.6 L 196.3,161.7 L 196.3,161.8 L 196.3,161.9 L 196.3,162.3 L 195.7,163.1 L 195.7,163.3 L 195.8,163.4 L 196.0,163.5 L 196.4,163.4 L 196.5,163.7 L 196.6,163.8 L 196.7,164.0 L 196.7,164.3 L 196.9,164.4 L 196.9,164.6 L 197.1,165.3 L 197.3,165.8 L 198.0,167.0 L 198.1,167.4 L 198.3,167.6 L 198.9,167.7 L 199.4,167.7 L 199.8,167.8 L 200.0,168.1 L 200.1,168.1 L 200.3,168.4 L 200.3,168.6 L 200.3,168.8 L 200.2,169.1 L 200.1,169.3 L 200.4,169.4 L 200.5,169.7 L 200.8,169.9 L 201.0,169.9 L 201.4,170.3 L 201.7,170.6 L 201.9,170.6 L 202.1,170.8 L 202.3,170.7 L 202.7,170.3 L 202.8,170.4 L 202.9,170.6 L 203.1,170.6 L 203.4,170.5 L 204.0,170.3 L 204.6,170.5 L 204.6,170.7 L 204.7,171.3 L 204.7,171.4 L 204.9,171.6 L 205.1,171.6 L 205.3,171.6 L 205.5,171.8 L 205.3,172.0 L 205.4,172.4 L 205.5,172.6 L 206.2,172.9 L 206.1,173.4 L 206.5,173.7 L 206.5,173.8 L 206.4,174.2 L 206.5,174.3 L 206.9,174.5 L 206.9,174.7 L 207.0,174.8 L 207.6,174.5 L 208.3,174.6 L 208.6,174.5 L 208.8,174.4 L 209.1,174.4 L 209.2,174.5 L 209.6,174.4 L 209.9,174.3 L 210.0,174.1 L 210.2,174.1 L 210.4,174.1 L 210.6,174.1 L 210.8,174.0 L 210.8,174.1 L 210.8,174.3 L 210.8,174.4 L 210.8,174.4 L 210.9,174.4 L 210.9,174.2 L 211.0,174.1 L 211.1,174.1 L 211.1,174.1 L 211.2,174.1 L 211.3,174.3 L 211.3,174.4 L 211.3,174.5 L 211.5,174.4 L 211.5,174.4 L 211.6,174.5 L 211.8,174.6 L 211.8,174.8 L 211.8,175.0 L 211.9,175.1 L 211.9,175.2 L 212.0,175.3 L 212.1,175.4 L 212.2,175.5 L 212.4,175.5 L 212.5,175.6 L 212.6,175.7 L 212.6,175.9 L 212.6,176.0 L 212.5,176.2 L 212.6,176.4 L 212.7,176.6 L 212.7,176.8 L 212.7,176.8 L 212.9,176.6 L 213.0,176.8 L 213.1,176.8 L 213.1,176.9 L 213.2,177.0 L 213.3,176.9 L 213.4,176.9 L 213.5,177.0 L 213.6,177.0 L 213.7,177.2 L 213.8,177.2 L 213.9,177.3 L 213.9,177.4 L 214.0,177.5 L 214.1,177.6 L 214.3,177.6 L 214.4,177.6 L 214.5,177.7 L 214.5,177.7 L 214.6,177.8 L 214.7,177.8 L 214.8,177.9 L 214.8,177.9 L 214.9,177.9 L 215.1,178.0 L 215.2,178.0 L 215.2,178.0 L 215.3,178.0 L 215.4,178.0 L 215.6,178.1 L 215.7,178.1 L 215.9,178.2 L 215.9,178.3 L 216.0,178.3 L 216.2,178.3 L 216.4,178.3 L 216.5,178.4 L 216.7,178.5 L 216.8,178.6 L 216.9,178.7 L 217.0,178.9 L 216.9,179.1 L 217.0,179.3 L 217.0,179.4 L 217.1,179.5 L 217.2,179.6 L 217.3,179.7 L 217.3,179.8 L 217.5,180.0 L 217.7,179.9 L 217.7,179.9 L 217.8,180.1 L 217.9,180.1 L 217.9,180.2 L 218.1,180.3 L 218.3,180.3 L 218.4,180.2 L 218.5,180.2 L 218.6,180.2 L 218.8,180.3 L 218.9,180.5 L 218.9,180.5 L 219.0,180.6 L 219.0,180.7 L 219.1,180.8 L 219.1,180.9 L 219.0,181.1 L 219.0,181.3 L 219.0,181.3 L 218.8,181.3 L 218.8,181.4 L 218.7,181.6 L 218.8,181.7 L 218.9,181.9 L 218.9,182.1 L 218.9,182.3 L 218.9,182.4 L 219.0,182.5 L 218.9,182.6 L 218.9,182.7 L 219.0,182.8 L 219.1,182.7 L 219.3,182.8 L 219.2,182.9 L 219.2,183.0 L 219.4,183.0 L 219.4,183.0 L 219.3,183.1 L 219.3,183.2 L 219.3,183.3 L 219.4,183.2 L 219.4,183.1 L 219.5,183.0 L 219.5,183.0 L 219.6,182.9 L 219.7,183.0 L 219.7,183.0 L 219.7,183.1 L 219.8,183.1 L 219.9,183.3 L 219.9,183.3 L 220.0,183.4 L 220.0,183.4 L 220.1,183.6 L 220.1,183.7 L 220.1,183.8 L 220.2,183.8 L 220.2,183.8 L 220.3,183.9 L 220.4,183.9 L 220.4,184.1 L 220.4,184.3 L 220.3,184.3 L 220.3,184.5 L 220.4,184.7 L 220.5,184.8 L 220.6,184.9 L 220.7,184.9 L 220.7,185.0 L 220.8,185.0 L 220.7,185.2 L 220.8,185.2 L 220.9,185.3 L 221.0,185.3 L 221.1,185.4 L 221.2,185.4 L 221.3,185.5 L 221.4,185.5 L 221.6,185.5 L 221.7,185.4 L 221.8,185.4 L 221.9,185.6 L 221.9,185.6 L 222.0,185.5 L 222.2,185.5 L 222.3,185.6 L 222.4,185.7 L 222.6,185.9 L 222.6,186.0 L 222.7,186.1 L 222.8,186.3 L 222.9,186.4 L 223.0,186.6 L 223.1,186.7 L 223.2,186.7 L 223.3,186.8 L 223.3,186.9 L 223.5,186.9 L 223.6,187.0 L 223.5,187.1 L 223.4,187.3 L 223.3,187.3 L 223.3,187.4 L 223.4,187.4 L 223.5,187.4 L 223.5,187.3 L 223.6,187.3 L 223.7,187.5 L 223.7,187.6 L 223.8,187.7 L 223.8,187.7 L 224.0,187.6 L 224.2,187.6 L 224.3,187.7 L 224.4,187.7 L 224.5,187.8 L 224.4,188.0 L 224.4,188.2 L 224.6,188.3 L 224.7,188.4 L 224.7,188.5 L 224.7,188.6 L 224.8,188.8 L 224.6,188.9 L 224.5,189.1 L 224.5,189.3 L 224.5,189.3 L 224.5,189.5 L 224.6,189.6 L 224.6,189.6 L 224.5,189.7 L 224.5,189.8 L 224.5,189.9 L 224.5,190.0 L 224.6,190.1 L 224.8,190.1 L 225.0,190.2 L 225.1,190.2 L 225.2,190.1 L 225.2,190.1 L 225.3,190.3 L 225.4,190.4 L 225.5,190.4 L 225.6,190.5 L 225.6,190.5 L 225.7,190.6 L 225.8,190.6 L 225.8,190.7 L 225.8,190.9 L 225.9,191.0 L 226.0,190.9 L 226.1,191.1 L 226.2,191.3 L 226.2,191.4 L 226.3,191.5 L 226.4,191.7 L 226.5,191.8 L 226.6,192.0 L 226.6,192.1 L 226.7,192.2 L 226.9,192.3 L 227.0,192.4 L 227.2,192.5 L 227.4,192.6 L 227.5,192.7 L 227.7,192.8 L 227.8,192.9 L 227.9,193.0 L 228.0,193.2 L 228.1,193.3 L 228.1,193.5 L 228.2,193.6 L 228.2,193.8 L 228.3,193.9 L 228.3,194.1 L 228.2,194.3 L 228.2,194.3 L 228.3,194.5 L 228.4,194.7 L 228.4,194.8 L 228.5,195.0 L 228.6,195.2 L 228.6,195.3 L 228.7,195.4 L 228.7,195.4 L 228.7,195.4 L 228.8,195.6 L 229.0,195.7 L 229.1,195.9 L 229.2,196.0 L 229.2,196.0 L 229.2,196.2 L 229.3,196.3 L 229.3,196.4 L 229.4,196.5 L 229.5,196.6 L 229.6,196.8 L 229.7,196.9 L 229.8,197.1 L 229.9,197.2 L 230.0,197.2 L 230.2,197.3 L 230.3,197.3 L 230.5,197.3 L 230.5,197.3 L 230.5,197.4 L 230.6,197.6 L 230.6,197.7 L 230.6,197.7 L 230.7,197.7 L 230.8,197.8 L 231.0,197.9 L 231.1,197.9 L 231.1,197.9 L 231.2,198.0 L 231.2,198.1 L 231.1,198.3 L 231.1,198.4 L 231.2,198.6 L 231.3,198.7 L 231.4,198.9 L 231.4,198.9 L 231.3,199.0 L 231.3,199.0 L 231.4,199.1 L 231.3,199.2 L 231.4,199.3 L 231.6,199.4 L 231.6,199.6 L 231.7,199.7 L 231.6,199.9 L 231.5,200.0 L 231.6,200.2 L 231.6,200.3 L 231.5,200.4 L 231.5,200.5 L 231.6,200.5 L 231.6,200.5 L 231.6,200.7 L 231.7,200.8 L 231.8,200.9 L 232.0,200.9 L 232.0,200.9 L 232.2,201.0 L 232.3,201.1 L 232.5,201.2 L 232.7,201.2 L 232.8,201.2 L 233.0,201.3 L 233.0,201.4 L 233.1,201.4 L 233.1,201.6 L 233.2,201.8 L 233.2,202.0 L 233.2,202.2 L 233.2,202.2 L 233.2,202.4 L 233.3,202.6 L 233.3,202.7 L 233.4,202.8 L 233.4,202.9 L 233.6,203.0 L 233.7,203.1 L 233.7,203.1 L 233.7,203.2 L 233.9,203.2 L 234.1,203.3 L 234.2,203.4 L 234.2,203.5 L 234.2,203.7 L 234.2,203.8 L 234.1,203.9 L 234.1,204.0 L 234.2,204.1 L 234.1,204.2 L 234.1,204.2 L 234.3,204.4 L 234.4,204.4 L 234.4,204.5 L 234.2,204.6 L 234.3,204.8 L 234.2,204.9 L 234.2,204.9 L 234.3,205.0 L 234.3,205.1 L 234.3,205.3 L 234.5,205.4 L 234.6,205.5 L 234.7,205.5 L 234.7,205.6 L 235.4,205.9 L 235.5,206.5 L 235.5,206.8 L 235.5,207.4 L 235.6,207.9 L 235.8,208.2 L 235.8,208.5 L 236.0,208.8 L 236.0,209.2 L 236.2,209.5 L 236.4,209.6 L 237.2,209.9 L 237.5,210.3 L 237.7,210.5 L 238.2,210.6 L 238.5,210.6 L 238.6,210.7 L 238.5,211.0 L 238.7,211.1 L 238.9,211.2 L 239.0,211.8 L 238.9,212.1 L 239.1,212.3 L 239.1,212.3 L 239.2,212.5 L 239.7,212.5 L 240.2,212.4 L 240.3,212.4 L 240.6,212.3 L 241.9,211.5 L 242.2,211.2 L 242.4,210.6 L 242.9,209.8 L 243.1,209.6 L 243.3,209.4 L 243.5,209.0 L 244.2,208.0 L 245.4,206.9 L 245.6,206.4 L 245.7,205.7 L 245.7,205.6 L 245.8,204.4 L 246.2,204.1 L 246.2,203.7 L 246.0,203.3 L 245.7,202.9 L 245.7,202.6 L 245.6,202.4 L 245.8,202.0 L 245.8,201.0 L 246.1,200.7 L 246.5,200.6 L 247.4,200.7 L 248.0,200.4 L 248.3,200.0 L 248.5,200.0 L 248.6,200.2 L 248.7,200.5 L 248.7,200.6 L 248.7,200.9 L 248.6,201.2 L 248.1,201.6 L 247.6,201.7 L 247.3,201.9 L 247.2,202.2 L 248.0,203.4 L 248.3,203.4 L 248.7,203.3 L 248.9,203.4 L 249.0,203.7 L 249.4,203.6 L 249.4,203.6 L 249.7,203.7 L 250.0,203.5 L 250.4,203.1 L 250.6,202.8 L 250.6,202.4 L 250.5,201.8 L 250.2,201.0 L 250.0,200.7 L 249.8,200.6 L 249.7,200.6 L 249.6,200.5 L 249.6,200.3 L 249.1,199.9 L 248.9,199.8 L 248.9,199.7 L 249.0,199.6 L 249.1,199.5 L 249.6,199.5 L 249.7,199.6 L 249.8,199.6 L 250.1,199.6 L 250.3,199.6 L 250.5,199.7 L 251.0,200.0 L 251.2,200.4 L 251.5,200.5 L 251.8,200.5 L 252.0,200.4 L 252.3,200.0 L 252.5,199.8 L 252.7,199.6 L 252.9,199.1 L 253.4,198.7 L 253.5,198.5 L 253.4,197.6 L 253.4,197.1 L 253.3,196.5 L 253.2,196.4 L 252.9,196.3 L 252.7,196.4 L 252.5,196.2 L 252.3,195.9 L 252.2,195.5 L 252.0,195.3 L 251.6,195.3 L 251.4,195.0 L 251.1,195.0 L 250.9,195.1 L 250.6,195.3 L 250.3,195.5 L 250.2,195.5 L 250.1,195.5 L 249.9,195.4 L 249.8,195.1 L 249.9,194.6 L 249.7,194.4 L 249.1,194.0 L 249.0,193.3 L 248.9,193.1 L 248.9,192.8 L 248.4,192.3 L 248.1,192.0 L 248.0,191.6 L 247.7,191.2 L 247.5,191.1 L 247.3,191.0 L 247.2,190.8 L 247.0,189.8 L 247.2,189.5 L 247.1,189.0 L 247.0,188.9 L 246.9,188.7 L 246.7,188.4 L 246.0,187.8 L 245.7,187.4 L 245.2,186.8 L 245.1,186.7 L 244.4,185.5 L 244.5,185.3 L 244.6,185.3 L 244.9,185.2 L 245.1,185.1 L 245.3,185.2 L 245.4,185.3 L 246.0,185.9 L 246.5,186.3 L 247.0,187.1 L 247.1,187.3 L 247.2,187.5 L 248.5,188.9 L 248.6,189.0 L 248.6,189.2 L 248.8,189.3 L 248.8,189.6 L 248.9,190.0 L 249.1,190.5 L 249.2,191.4 L 249.5,191.7 L 249.7,191.9 L 249.9,192.1 L 250.1,192.4 L 250.1,192.8 L 250.1,192.9 L 250.4,193.1 L 250.5,193.1 L 251.0,193.5 L 251.2,193.8 L 251.5,194.3 L 251.9,194.6 L 252.5,195.1 L 252.9,195.3 L 253.2,195.3 L 253.4,195.1 L 253.4,194.4 L 253.5,194.1 L 253.5,193.8 L 253.8,193.5 L 254.0,193.2 L 254.1,192.5 L 253.9,191.4 L 253.9,191.1 L 254.2,191.0 L 254.3,190.6 L 254.5,190.5 L 254.7,190.4 L 254.8,190.2 L 254.9,189.7 L 254.9,189.6 L 255.0,189.4 L 255.2,188.6 L 255.2,188.3 L 255.2,187.7 L 255.3,187.4 L 255.4,186.7 L 255.4,186.4 L 255.4,186.1 L 255.5,186.0 L 256.1,185.9 L 256.2,185.6 L 256.4,185.1 L 256.4,183.1 L 256.6,182.3 L 256.8,181.8 L 256.9,180.4 L 256.9,179.0 L 256.8,178.1 L 256.9,177.6 L 256.8,177.3 L 256.7,176.4 L 256.8,176.0 L 257.0,175.7 L 257.0,175.4 L 257.1,174.7 L 257.1,174.5 L 257.2,173.9 L 257.4,173.6 L 257.4,173.3 L 257.3,172.7 L 257.1,172.3 L 257.3,171.4 L 257.4,171.1 L 257.4,170.6 L 257.5,170.0 L 257.6,169.9 L 257.7,169.9 L 257.9,170.1 L 257.9,170.2 L 258.4,170.6 L 258.5,171.2 L 258.6,171.3 L 259.1,171.6 L 259.2,171.9 L 259.3,172.0 L 259.7,172.1 L 260.0,172.2 L 260.0,172.4 L 260.1,172.7 L 260.1,172.8 L 260.2,173.1 L 260.4,173.5 L 260.3,173.9 L 260.5,174.2 L 260.3,175.4 L 260.0,175.8 L 259.9,175.9 L 259.8,176.4 L 259.4,176.9 L 259.3,177.2 L 259.4,177.5 L 259.3,177.9 L 259.2,178.2 L 259.0,178.6 L 258.9,178.9 L 258.7,179.3 L 258.5,180.2 L 258.5,180.7 L 258.6,181.2 L 258.8,181.5 L 259.0,181.8 L 259.0,182.2 L 258.8,182.8 L 259.0,183.5 L 259.2,183.8 L 259.3,184.2 L 259.6,185.2 L 259.9,185.8 L 260.1,186.1 L 260.6,187.2 L 260.7,188.3 L 260.8,188.8 L 260.8,189.1 L 260.6,189.5 L 260.7,189.9 L 260.7,190.1 L 260.7,190.2 L 260.2,190.4 L 260.0,190.5 L 259.9,190.9 L 259.7,191.3 L 259.2,191.7 L 258.6,192.6 L 258.2,193.2 L 258.0,193.5 L 257.6,193.8 L 257.5,194.0 L 257.5,194.2 L 258.1,195.1 L 258.0,195.8 L 257.5,196.4 L 257.3,196.9 L 257.2,197.0 L 257.2,197.3 L 257.3,197.7 L 257.4,197.9 L 257.3,198.1 L 257.3,198.3 L 257.3,198.8 L 257.7,199.3 L 257.6,199.8 L 257.1,200.5 L 256.9,200.7 L 256.8,201.2 L 256.9,201.3 L 257.0,201.7 L 257.0,201.9 L 257.0,202.1 L 257.0,202.4 L 256.9,202.6 L 256.7,203.2 L 256.7,203.4 L 257.2,204.0 L 257.2,204.0 L 257.6,204.0 L 257.6,204.1 L 257.6,204.6 L 257.7,205.0 L 257.9,205.2 L 258.0,205.3 L 258.3,205.9 L 258.3,206.1 L 258.2,206.2 L 258.1,206.5 L 258.3,206.8 L 258.0,206.9 L 257.8,207.3 L 257.6,207.7 L 257.6,208.1 L 257.8,208.8 L 257.7,209.1 L 257.9,209.8 L 257.9,210.1 L 257.6,210.6 L 257.5,210.7 L 257.5,210.5 L 257.5,210.4 L 257.4,210.5 L 257.3,211.0 L 257.4,211.1 L 257.4,211.2 L 257.3,211.4 L 257.2,211.6 L 257.5,212.7 L 257.4,212.8 L 257.4,213.0 L 257.7,213.5 L 257.6,214.0 L 257.8,214.2 L 257.7,214.5 L 257.8,214.7 L 257.9,214.9 L 258.1,215.0 L 258.1,215.0 L 258.2,215.3 L 258.4,215.6 L 258.6,215.7 L 258.9,216.3 L 259.1,216.4 L 259.4,216.4 L 259.8,216.5 L 259.9,216.6 L 260.1,216.6 L 260.2,216.4 L 260.6,216.6 L 260.9,216.6 L 260.9,216.7 L 260.8,216.8 L 260.8,216.8 L 260.7,216.9 L 260.7,217.1 L 260.8,217.2 L 260.9,217.2 L 261.3,217.3 L 261.5,217.3 L 261.6,217.2 L 261.8,217.2 L 262.1,217.2 L 262.1,217.2 L 262.3,217.4 L 262.5,217.5 L 262.7,217.6 L 262.9,217.8 L 263.0,217.9 L 263.5,218.5 L 263.6,218.8 L 263.8,219.2 L 263.9,219.5 L 264.0,219.7 L 264.3,219.8 L 264.4,219.9 L 264.4,220.8 L 264.5,220.9 L 264.8,221.1 L 265.0,221.6 L 265.1,221.9 L 265.1,222.0 L 265.0,222.2 L 264.8,222.3 L 264.5,222.3 L 264.2,222.2 L 264.1,222.0 L 263.6,221.8 L 263.4,222.0 L 263.4,222.2 L 263.5,222.4 L 263.6,222.6 L 263.6,222.7 L 263.4,222.8 L 263.1,222.7 L 262.7,222.5 L 262.5,222.5 L 262.1,222.9 L 262.0,223.1 L 262.1,223.2 L 262.4,223.4 L 262.5,223.6 L 262.3,223.9 L 262.4,224.1 L 262.4,224.2 L 262.2,224.3 L 262.0,224.3 L 261.9,224.5 L 262.0,224.6 L 262.1,224.8 L 262.6,225.0 L 263.0,225.5 L 263.4,225.6 L 263.5,225.9 L 263.8,226.2 L 264.0,226.4 L 264.1,226.5 L 263.7,226.7 L 263.3,226.7 L 262.8,226.9 L 262.5,227.0 L 262.0,226.7 L 261.3,226.1 L 261.0,226.2 L 260.6,226.5 L 260.4,226.6 L 260.2,226.8 L 260.1,227.1 L 260.3,227.8 L 260.7,228.1 L 260.8,228.5 L 260.9,228.7 L 260.9,229.0 L 261.1,229.4 L 261.3,229.6 L 261.6,230.0 L 261.6,230.1 L 261.2,230.3 L 261.2,230.5 L 261.6,231.2 L 261.5,231.3 L 261.3,231.3 L 261.1,231.2 L 260.7,231.1 L 260.4,231.3 L 260.5,231.4 L 261.0,232.0 L 261.0,232.2 L 260.8,232.1 L 260.8,232.3 L 260.7,232.4 L 260.4,232.4 L 260.0,232.3 L 259.8,232.4 L 259.6,232.5 L 259.4,233.0 L 259.4,233.4 L 259.4,233.6 L 259.5,233.6 L 260.2,233.6 L 260.5,233.8 L 260.8,234.2 L 261.3,234.4 L 261.4,234.6 L 261.4,234.7 L 261.3,234.8 L 261.2,235.2 L 261.4,235.4 L 261.5,235.5 L 261.9,236.1 L 261.9,236.3 L 261.7,236.6 L 261.6,236.9 L 261.5,237.0 L 261.1,236.9 L 260.7,237.0 L 260.6,237.1 L 260.7,237.8 L 260.9,238.2 L 261.0,238.3 L 261.2,238.4 L 261.4,238.6 L 261.5,239.0 L 261.4,239.5 L 261.5,239.6 L 261.6,239.9 L 261.5,240.1 L 261.4,240.4 L 261.5,240.7 L 261.6,240.8 L 261.8,241.0 L 261.7,241.5 L 262.0,241.8 L 262.0,242.0 L 262.3,242.4 L 262.8,243.0 L 262.8,243.3 L 262.8,243.4 L 262.7,243.6 L 262.2,243.5 L 262.2,243.7 L 262.3,244.2 L 262.6,244.4 L 262.6,244.6 L 262.7,244.8 L 262.6,245.1 L 262.5,245.3 L 262.5,245.7 L 262.5,245.9 L 262.6,246.4 L 262.6,246.9 L 262.5,247.3 L 262.4,247.6 L 262.8,248.0 L 262.7,248.1 L 262.6,248.3 L 262.6,248.5 L 262.8,248.8 L 262.8,248.9 L 262.5,249.2 L 262.4,249.5 L 262.5,249.8 L 262.6,250.0 L 262.6,250.1 L 262.5,250.4 L 262.4,250.6 L 262.5,250.9 L 262.7,251.6 L 262.9,251.7 L 263.0,252.0 L 263.0,252.4 L 262.7,252.5 L 262.7,252.7 L 262.7,253.1 L 262.7,253.1 L 262.9,253.9 L 263.1,254.7 L 263.3,254.9 L 263.4,255.2 L 263.4,255.5 L 263.6,256.1 L 264.0,256.8 L 264.2,257.1 L 264.5,257.4 L 264.7,257.6 L 264.7,258.1 L 264.9,258.3 L 265.0,258.6 L 264.9,258.9 L 265.3,259.5 L 265.3,259.7 L 265.2,259.9 L 265.1,260.4 L 265.3,260.7 L 265.6,261.2 L 265.8,261.7 L 266.1,262.5 L 266.4,262.8 L 266.9,263.0 L 266.9,263.3 L 266.9,263.4 L 267.1,263.5 L 267.3,263.7 L 267.2,264.3 L 267.0,264.3 L 266.8,264.5 L 266.6,264.9 L 266.3,265.1 L 265.7,266.9 L 265.6,267.1 L 265.7,267.4 L 265.7,267.7 L 265.8,268.1 L 266.0,268.3 L 266.0,268.7 L 266.0,269.1 L 266.3,269.4 L 266.4,269.6 L 266.2,269.7 L 266.2,269.9 L 266.0,270.3 L 265.7,270.7 L 265.6,270.9 L 265.7,271.1 L 265.9,271.3 L 266.1,271.5 L 266.1,271.6 L 266.5,272.1 L 266.8,272.3 L 267.0,272.5 L 267.2,272.8 L 267.3,273.1 L 267.9,273.7 L 268.6,273.9 L 268.9,274.2 L 269.5,274.3 L 269.7,274.4 L 269.8,274.7 L 269.7,275.2 L 269.7,275.3 L 269.9,275.4 L 270.1,275.7 L 270.4,275.6 L 270.7,275.4 L 271.2,275.3 L 271.5,275.1 L 272.1,274.8 L 272.5,274.9 L 273.5,275.0 L 273.5,275.2 L 273.3,275.4 L 273.2,275.6 L 273.0,276.2 L 272.8,276.5 L 272.7,277.1 L 272.4,277.3 L 272.1,277.5 L 271.6,278.0 L 271.5,278.4 L 271.6,278.4 L 271.9,278.7 L 271.8,279.0 L 271.8,279.3 L 271.9,279.3 L 273.4,303.5 L 273.4,303.5 L 273.3,303.5 L 273.1,303.6 L 272.7,304.1 L 272.1,305.2 L 272.0,305.5 L 271.7,305.8 L 271.6,305.9 L 271.7,306.2 L 271.6,306.8 L 271.9,307.2 L 271.8,307.7 L 272.1,307.9 L 272.0,308.3 L 271.8,308.4 L 271.5,308.5 L 271.2,308.5 L 271.0,308.7 L 271.0,308.9 L 271.1,308.9 L 271.1,309.0 L 271.2,309.4 L 271.1,309.8 L 271.0,310.0 L 270.7,310.4 L 270.4,310.7 L 270.2,311.1 L 270.0,312.3 L 269.7,312.8 L 269.5,314.7 L 269.4,315.0 L 269.2,315.4 L 269.1,316.0 L 269.2,316.2 L 269.6,316.3 L 269.6,316.4 L 269.7,316.5 L 269.9,316.4 L 270.3,316.0 L 270.4,315.4 L 270.6,315.3 L 271.7,314.5 L 272.2,313.9 L 272.7,314.0 L 273.4,314.2 L 273.9,314.5 L 273.9,314.6 L 274.0,315.1 L 274.1,315.4 L 274.3,315.4 L 274.6,315.2 L 274.8,315.2 L 275.0,315.2 L 275.0,315.7 L 275.1,315.9 L 275.0,316.5 L 274.9,317.1 L 274.8,317.4 L 274.7,317.8 L 274.8,318.0 L 274.7,318.7 L 274.6,319.0 L 274.4,319.0 L 274.0,319.0 L 273.8,318.7 L 273.6,318.7 L 273.5,318.7 L 273.0,320.1 L 272.8,320.4 L 272.6,320.6 L 272.3,320.8 L 272.1,321.1 L 272.1,321.4 L 272.1,321.6 L 272.0,321.9 L 271.9,322.2 L 271.6,323.0 L 271.6,323.5 L 271.7,323.7 L 271.6,324.4 L 271.7,324.6 L 271.7,324.8 L 271.3,325.2 L 271.2,325.7 L 271.5,326.0 L 271.5,326.2 L 271.3,326.6 L 271.4,326.9 L 271.2,327.1 L 271.2,327.3 L 271.6,327.4 L 271.8,327.6 L 272.3,327.6 L 272.6,327.5 L 272.7,327.5 L 272.7,327.7 L 272.8,328.2 L 272.7,328.5 L 272.7,328.7 L 272.6,328.9 L 272.7,329.2 L 272.4,329.5 L 272.2,329.8 L 272.1,330.3 L 272.0,330.4 L 271.9,330.6 L 271.8,331.3 L 271.9,331.4 L 272.4,331.5 L 272.5,331.7 L 272.5,331.8 L 272.8,331.8 L 273.1,331.7 L 273.3,331.5 L 273.4,331.2 L 273.5,331.0 L 273.9,330.9 L 274.2,330.6 L 274.4,330.5 L 274.7,330.6 L 274.9,330.9 L 275.0,331.0 L 275.1,331.2 L 275.0,331.5 L 275.1,331.6 L 275.9,331.5 L 275.9,331.5 L 276.1,331.5 L 276.2,331.8 L 276.8,331.9 L 277.0,332.1 L 277.3,332.3 L 277.5,332.7 L 277.4,333.3 L 277.1,333.8 L 276.9,334.1 L 276.4,334.3 L 276.0,334.7 L 275.6,335.4 L 275.4,335.8 L 275.4,336.3 L 275.5,336.5 L 275.9,336.7 L 276.0,336.9 L 275.9,337.4 L 275.9,337.9 L 275.8,338.1 L 275.8,338.3 L 275.9,338.8 L 276.2,339.5 L 276.4,339.9 L 276.5,340.0 L 276.6,340.0 L 276.7,339.9 L 276.8,339.5 L 277.0,339.3 L 277.0,339.2 L 277.3,339.4 L 277.5,339.5 L 277.6,339.7 L 277.5,340.3 L 277.4,340.6 L 277.1,340.8 L 276.8,340.8 L 276.7,340.9 L 276.3,341.4 L 275.9,341.8 L 275.6,341.9 L 274.9,341.8 L 274.6,341.9 L 274.4,341.9 L 274.2,341.9 L 274.0,341.7 L 273.9,341.6 L 273.7,341.7 L 273.6,342.0 L 273.5,342.5 L 273.5,342.7 L 273.2,342.8 L 273.0,342.9 L 273.0,343.1 L 272.9,343.3 L 272.8,343.5 L 272.8,344.0 L 273.0,344.4 L 273.2,344.6 L 273.3,344.6 L 273.6,344.3 L 273.7,344.3 L 273.9,344.4 L 274.0,344.4 L 274.3,344.4 L 274.6,344.7 L 275.0,345.1 L 275.1,345.4 L 275.2,345.9 L 275.2,346.1 L 275.5,346.5 L 275.7,346.9 L 275.9,347.3 L 275.9,347.7 L 275.8,348.1 L 275.7,348.3 L 275.6,348.6 L 275.4,349.0 L 275.2,349.0 L 275.1,349.2 L 275.2,349.4 L 275.2,349.6 L 275.3,349.8 L 275.8,349.5 L 276.0,349.4 L 276.5,349.8 L 276.7,350.1 L 276.8,350.5 L 276.8,350.7 L 276.7,351.0 L 276.7,351.7 L 276.9,352.1 L 276.6,352.9 L 276.7,353.2 L 276.6,353.3 L 276.3,353.3 L 276.1,353.4 L 276.0,353.8 L 275.4,354.0 L 275.3,354.0 L 275.1,354.1 L 275.1,354.4 L 275.9,354.5 L 276.0,354.7 L 275.9,355.4 L 275.6,355.7 L 275.5,356.2 L 275.5,356.2 L 250.2,360.0 L 250.2,360.0 L 249.8,359.5 L 249.6,359.4 L 249.3,359.4 L 249.1,359.1 L 248.9,358.6 L 248.8,358.3 L 248.5,357.8 L 248.2,357.4 L 248.4,357.1 L 248.3,357.0 L 247.9,356.9 L 247.9,356.9 L 247.9,356.4 L 247.8,356.2 L 247.8,355.9 L 247.7,355.8 L 247.3,355.8 L 246.6,355.8 L 246.6,355.4 L 246.5,354.8 L 246.5,354.0 L 246.6,353.6 L 246.8,353.1 L 247.0,353.0 L 247.3,352.9 L 247.5,352.8 L 247.5,352.6 L 247.4,352.5 L 247.8,352.2 L 247.8,352.1 L 247.7,352.0 L 247.7,351.8 L 248.2,351.4 L 248.4,351.1 L 248.6,351.1 L 248.9,351.0 L 248.9,350.8 L 249.0,350.1 L 249.0,349.6 L 249.2,349.5 L 249.5,349.4 L 249.5,349.3 L 249.5,348.9 L 249.7,348.5 L 249.7,348.3 L 249.5,348.1 L 249.3,347.9 L 249.4,347.8 L 249.6,347.5 L 249.8,347.6 L 250.0,347.7 L 250.1,347.6 L 250.2,347.2 L 250.3,346.9 L 250.7,346.5 L 251.1,346.2 L 251.1,346.1 L 251.1,345.8 L 251.3,345.6 L 251.5,345.5 L 251.7,345.3 L 251.7,345.1 L 251.6,344.9 L 251.2,344.9 L 251.1,344.6 L 251.1,344.3 L 251.0,344.1 L 251.2,343.5 L 251.3,343.2 L 251.6,342.8 L 252.0,342.2 L 252.2,341.6 L 252.6,340.8 L 252.8,340.4 L 253.0,340.1 L 253.0,340.1 L 253.1,339.5 L 253.1,339.1 L 253.1,338.9 L 253.1,338.7 L 253.2,338.1 L 253.1,337.8 L 253.0,337.5 L 253.1,337.0 L 253.3,336.7 L 253.4,336.7 L 253.6,336.6 L 253.9,336.2 L 254.1,335.7 L 254.3,334.8 L 254.5,334.3 L 254.9,333.9 L 255.0,333.6 L 255.1,333.3 L 255.3,332.9 L 255.4,332.6 L 255.5,332.4 L 255.4,332.2 L 255.5,331.7 L 255.1,331.3 L 255.1,331.0 L 255.2,330.7 L 255.5,330.4 L 255.6,330.0 L 255.4,329.4 L 255.4,329.0 L 255.7,328.7 L 255.9,328.6 L 256.1,328.6 L 256.2,328.4 L 256.2,328.2 L 256.3,327.9 L 256.3,327.8 L 256.0,327.9 L 255.9,327.7 L 256.0,327.2 L 256.0,326.8 L 255.9,325.8 L 255.7,325.3 L 255.6,325.1 L 255.8,324.9 L 255.9,324.5 L 255.9,323.9 L 255.8,324.0 L 255.6,324.1 L 255.4,324.0 L 255.0,323.6 L 255.1,323.2 L 255.2,323.0 L 255.4,322.4 L 255.3,322.3 L 255.2,322.2 L 255.2,322.1 L 255.4,321.7 L 255.4,321.6 L 255.1,321.5 L 254.8,321.2 L 254.8,321.1 L 254.8,320.8 L 254.8,320.5 L 254.8,320.4 L 254.9,320.2 L 255.0,319.8 L 254.9,319.7 L 255.0,319.4 L 255.1,319.0 L 255.1,318.9 L 255.2,318.8 L 255.4,318.3 L 255.6,317.5 L 255.9,316.7 L 255.8,316.5 L 255.6,316.3 L 255.4,316.2 L 255.4,315.5 L 255.3,315.4 L 255.1,315.3 L 255.0,315.0 L 255.1,314.7 L 254.7,314.5 L 254.6,314.2 L 254.6,314.0 L 254.8,313.8 L 254.8,313.7 L 254.5,313.5 L 254.5,313.2 L 254.6,312.7 L 254.7,312.3 L 254.7,312.1 L 254.5,312.0 L 254.6,311.2 L 254.9,310.5 L 255.0,309.9 L 255.1,309.7 L 255.1,309.5 L 255.0,309.1 L 255.2,308.1 L 255.0,307.9 L 255.0,307.6 L 255.0,307.5 L 255.1,306.6 L 255.0,306.2 L 255.3,305.6 L 255.2,305.4 L 255.1,305.3 L 255.2,305.1 L 255.7,304.4 L 256.1,303.7 L 256.3,303.3 L 256.3,302.8 L 256.2,302.3 L 255.9,302.2 L 255.9,301.9 L 256.0,301.7 L 256.5,300.8 L 256.7,300.5 L 257.0,299.9 L 257.1,299.6 L 257.2,298.9 L 257.3,297.8 L 257.5,297.4 L 257.8,296.7 L 257.9,295.6 L 257.7,295.5 L 257.8,294.5 L 257.8,294.3 L 257.7,294.3 L 257.4,294.4 L 257.3,294.3 L 257.3,293.8 L 257.3,293.4 L 257.3,292.0 L 257.1,291.9 L 256.3,291.8 L 256.2,291.5 L 256.2,290.9 L 256.1,290.5 L 255.6,290.2 L 255.6,290.0 L 255.5,289.7 L 255.6,289.5 L 256.1,288.2 L 256.7,287.2 L 257.1,286.7 L 257.1,286.4 L 257.1,286.3 L 257.1,286.1 L 257.0,285.9 L 256.7,285.7 L 256.7,285.4 L 256.7,285.0 L 256.8,284.5 L 256.9,284.1 L 256.9,283.8 L 256.7,283.5 L 256.9,283.3 L 257.0,283.3 L 257.1,283.2 L 257.3,282.9 L 257.4,281.7 L 257.3,281.4 L 257.3,281.0 L 257.1,280.7 L 257.2,280.6 L 257.2,280.4 L 257.1,280.1 L 256.9,279.9 L 256.9,279.8 L 256.7,279.7 L 256.5,280.0 L 256.4,280.0 L 256.3,279.8 L 256.2,279.3 L 256.2,279.1 L 256.0,278.9 L 255.9,278.9 L 255.7,279.0 L 255.4,278.7 L 255.5,278.4 L 255.4,278.4 L 255.2,278.6 L 255.1,278.6 L 255.0,278.4 L 255.0,278.1 L 255.2,277.9 L 255.2,277.6 L 255.2,276.9 L 255.1,276.8 L 254.8,276.7 L 254.7,276.6 L 254.7,276.1 L 254.6,275.9 L 254.5,275.7 L 254.7,275.5 L 254.9,275.2 L 255.3,275.3 L 255.4,275.2 L 255.4,274.9 L 255.2,274.7 L 255.1,274.6 L 255.0,274.3 L 254.8,274.2 L 254.6,274.1 L 254.3,273.8 L 254.1,273.4 L 254.1,273.0 L 254.2,272.8 L 254.1,272.3 L 254.0,272.2 L 253.7,272.1 L 253.3,271.7 L 253.0,271.2 L 253.0,270.7 L 253.1,270.5 L 253.3,270.2 L 253.5,269.7 L 253.8,269.5 L 253.8,269.4 L 253.6,269.1 L 253.8,268.9 L 253.9,268.7 L 253.6,267.7 L 253.3,267.4 L 253.2,266.9 L 252.9,266.3 L 252.9,266.0 L 252.5,264.9 L 252.3,264.5 L 251.8,263.9 L 251.7,263.4 L 251.6,263.3 L 251.2,261.8 L 251.3,261.0 L 251.0,259.4 L 250.7,258.8 L 250.5,258.7 L 250.2,258.6 L 250.0,258.5 L 250.2,257.4 L 250.6,257.0 L 250.6,256.7 L 250.4,255.9 L 250.4,255.3 L 250.3,255.2 L 249.9,255.1 L 249.7,254.7 L 249.6,254.6 L 249.5,254.3 L 249.5,254.1 L 249.4,254.0 L 249.2,253.9 L 249.1,253.7 L 249.1,253.1 L 249.1,252.8 L 249.0,252.6 L 248.7,252.5 L 248.5,252.3 L 248.4,251.8 L 248.1,251.5 L 247.9,250.8 L 247.8,250.1 L 247.4,249.4 L 247.4,249.2 L 247.6,248.9 L 247.6,248.6 L 247.4,248.1 L 246.8,247.3 L 246.5,247.1 L 246.3,246.7 L 246.0,246.3 L 245.7,246.0 L 245.2,245.5 L 244.7,245.1 L 244.3,244.7 L 244.2,244.3 L 243.9,244.1 L 243.5,243.9 L 243.4,243.9 L 243.3,244.1 L 243.0,244.3 L 242.6,244.2 L 242.4,244.0 L 242.2,243.6 L 242.0,243.2 L 241.7,243.0 L 241.5,242.7 L 241.4,242.3 L 241.2,242.0 L 241.4,241.7 L 241.5,241.4 L 240.6,241.4 L 240.3,241.3 L 240.0,241.1 L 239.9,240.7 L 239.8,239.5 L 239.6,238.6 L 239.7,237.9 L 239.2,237.1 L 239.2,237.1 L 239.0,236.8 L 238.7,236.2 L 238.3,235.7 L 238.0,235.1 L 237.8,234.9 L 237.5,234.8 L 237.5,234.7 L 237.3,234.5 L 237.3,234.3 L 237.3,234.1 L 237.2,233.9 L 237.0,233.6 L 236.7,233.2 L 236.7,232.8 L 236.5,232.4 L 236.3,232.0 L 236.2,231.8 L 235.9,231.3 L 235.7,230.9 L 235.4,230.6 L 235.4,230.5 L 235.0,230.3 L 235.0,230.1 L 234.9,229.8 L 234.9,229.7 L 235.1,229.6 L 235.2,229.3 L 235.3,229.2 L 235.4,228.9 L 235.2,228.3 L 235.0,228.1 L 234.7,227.6 L 234.5,227.5 L 234.4,227.6 L 234.4,227.8 L 234.3,228.0 L 234.4,228.2 L 234.4,228.5 L 234.3,228.5 L 234.1,228.6 L 233.8,228.4 L 233.5,227.8 L 233.1,226.8 L 233.0,226.6 L 232.8,226.3 L 232.8,226.1 L 232.2,225.4 L 232.0,224.5" fill="none" stroke="black" stroke-width="2"/>
</svg>