<?xml version="1.0" encoding="UTF-8"?>
<svg width="400" height="400" viewBox="0 0 400 400" xmlns="http://www.w3.org/2000/svg">
  <rect width="400" height="400" fill="white"/>
  <path d="M 53.2,313.4 L 53.2,313.4 L 40.0,96.0 L 41.1,96.7 L 44.1,96.7 L 47.6,95.3 L 49.7,93.7 L 52.3,90.6 L 54.1,89.5 L 56.6,89.8 L 56.9,92.6 L 57.4,93.1 L 58.6,93.2 L 58.8,93.2 L 61.3,92.4 L 62.2,92.4 L 62.6,93.0 L 62.2,96.2 L 62.5,97.2 L 65.5,96.2 L 68.9,93.6 L 72.5,90.4 L 73.1,90.7 L 72.3,93.0 L 68.7,97.2 L 68.4,98.6 L 71.0,97.3 L 72.8,95.6 L 76.2,91.8 L 84.2,85.4 L 89.7,82.0 L 92.2,81.4 L 96.3,78.9 L 97.6,79.8 L 99.0,79.5 L 103.6,76.1 L 110.0,69.0 L 112.6,65.2 L 114.8,63.8 L 115.0,65.7 L 112.9,68.2 L 105.6,81.8 L 103.8,84.4 L 103.1,87.4 L 99.5,91.1 L 98.2,94.0 L 95.7,96.1 L 97.3,96.5 L 98.1,99.0 L 99.6,99.0 L 102.4,97.0 L 102.6,95.7 L 105.3,93.6 L 107.3,92.7 L 108.9,91.5 L 112.2,88.3 L 117.5,84.2 L 117.6,84.1 L 189.6,108.2 L 191.6,108.9 L 191.8,109.0 L 191.7,109.0 L 192.5,110.1 L 193.7,110.0 L 197.5,108.2 L 201.7,105.0 L 204.3,105.4 L 206.7,108.1 L 210.5,109.8 L 210.4,110.9 L 209.7,112.1 L 212.8,116.8 L 214.1,119.5 L 212.7,122.4 L 213.3,124.6 L 213.9,131.1 L 217.2,131.3 L 217.4,133.3 L 214.3,138.3 L 214.2,140.3 L 215.6,142.0 L 216.9,144.8 L 217.6,151.4 L 218.2,153.5 L 220.5,157.3 L 223.3,159.1 L 225.0,159.2 L 227.0,158.5 L 228.4,158.7 L 229.9,157.5 L 232.4,157.1 L 233.2,157.7 L 233.4,158.2 L 235.2,160.6 L 238.5,162.0 L 238.9,162.5 L 237.5,165.7 L 237.1,167.6 L 236.9,168.1 L 237.3,170.6 L 238.3,173.5 L 241.7,178.1 L 244.1,179.3 L 245.5,179.4 L 246.4,177.8 L 249.2,178.2 L 249.9,178.3 L 250.3,179.8 L 250.5,184.2 L 251.1,185.0 L 252.1,184.3 L 253.1,183.9 L 254.8,188.2 L 257.3,187.9 L 259.6,186.1 L 263.8,183.6 L 265.7,183.4 L 266.1,184.2 L 266.7,184.7 L 269.1,187.9 L 269.6,189.4 L 271.9,194.5 L 274.6,198.8 L 276.4,199.3 L 280.7,202.8 L 281.0,203.7 L 282.5,206.6 L 282.0,209.9 L 278.5,212.6 L 277.3,218.1 L 275.9,219.5 L 276.5,220.6 L 277.7,221.7 L 277.8,223.2 L 275.5,225.1 L 275.4,226.5 L 275.6,228.5 L 276.7,229.1 L 279.8,229.1 L 280.6,228.5 L 281.0,226.5 L 282.0,226.1 L 284.5,229.3 L 284.8,231.4 L 287.2,232.8 L 287.2,236.1 L 288.8,238.4 L 288.7,241.0 L 287.2,243.1 L 286.7,244.5 L 288.3,250.2 L 290.1,253.7 L 291.9,255.4 L 294.6,254.6 L 296.9,254.9 L 298.2,256.8 L 299.3,259.3 L 301.6,262.5 L 303.3,262.9 L 308.0,262.7 L 313.6,263.2 L 317.7,264.8 L 324.8,266.2 L 327.0,267.2 L 331.1,273.1 L 333.6,277.2 L 337.1,277.2 L 351.1,275.4 L 353.4,276.0 L 356.7,277.7 L 358.6,280.8 L 360.0,284.3 L 356.6,286.9 L 355.5,289.3 L 354.8,293.0 L 355.6,295.0 L 357.2,297.1 L 357.3,297.1 L 313.2,324.2 L 310.6,320.9 L 308.7,317.6 L 308.2,312.8 L 306.6,311.2 L 303.5,311.0 L 301.1,311.3 L 299.3,311.1 L 298.4,310.0 L 296.4,304.2 L 295.2,303.4 L 293.8,303.0 L 291.1,299.2 L 288.1,296.9 L 286.6,295.3 L 284.9,295.3 L 284.0,295.7 L 282.4,293.3 L 282.4,290.0 L 279.6,289.6 L 277.3,286.4 L 275.9,283.8 L 273.6,277.6 L 271.0,272.0 L 270.2,268.2 L 269.9,265.1 L 268.8,260.8 L 265.6,253.8 L 264.0,248.8 L 260.0,245.2 L 252.6,240.2 L 247.6,235.7 L 243.5,233.4 L 241.5,232.2 L 238.2,230.3 L 235.3,229.4 L 234.8,229.5 L 230.9,229.7 L 225.3,226.8 L 221.8,226.1 L 218.0,226.5 L 214.5,227.4 L 208.7,227.0 L 203.2,225.7 L 198.6,224.3 L 195.0,222.2 L 191.0,222.1 L 188.9,222.0 L 185.6,222.8 L 179.7,229.8 L 178.7,233.2 L 174.2,238.7 L 173.7,241.6 L 170.2,246.8 L 170.9,248.5 L 169.7,250.3 L 170.2,251.6 L 170.3,252.5 L 166.4,253.5 L 163.4,255.7 L 160.6,261.5 L 158.7,263.9 L 158.5,265.7 L 157.0,267.8 L 156.8,269.2 L 159.8,271.3 L 159.9,272.5 L 158.7,275.9 L 151.4,280.3 L 149.8,280.5 L 148.5,279.6 L 146.4,279.4 L 140.4,283.4 L 136.6,286.7 L 134.4,290.9 L 133.3,294.9 L 130.7,299.7 L 126.5,304.3 L 123.1,308.8 L 120.6,312.7 L 119.3,319.7 L 113.8,323.6 L 110.0,325.7 L 105.9,328.4 L 102.6,331.5 L 94.8,336.2 L 92.2,336.1 L 84.6,331.9 L 82.8,330.5 L 82.6,329.1 L 84.5,325.5 L 84.8,321.8 L 84.3,318.2 L 83.7,317.5 L 82.1,316.3 L 82.0,314.4 L 80.1,311.5 L 80.0,309.1 L 80.8,306.6 L 81.1,304.7 L 80.4,304.0 L 79.0,304.2 L 78.0,305.3 L 75.5,305.3 L 73.1,306.2 L 69.4,305.9 L 67.3,307.0 L 66.4,310.0 L 65.1,312.7 L 63.0,314.0 L 59.5,315.3 L 55.6,316.2 L 53.8,313.6 L 53.2,313.4" fill="none" stroke="black" stroke-width="2"/>
</svg>