<?xml version="1.0" encoding="UTF-8"?>
<svg width="400" height="400" viewBox="0 0 400 400" xmlns="http://www.w3.org/2000/svg">
  <rect width="400" height="400" fill="white"/>
  <path d="M 119.8,360.0 L 130.3,339.2 L 130.7,338.5 L 132.7,334.6 L 153.0,294.6 L 155.2,290.3 L 180.6,240.2 L 180.7,240.0 L 206.3,189.7 L 209.0,184.3 L 211.3,139.4 L 213.9,89.1 L 216.1,46.2 L 230.9,46.2 L 246.9,46.3 L 246.9,46.3 L 246.9,46.3 L 246.9,46.4 L 246.9,46.4 L 246.9,46.5 L 246.9,46.5 L 247.0,46.6 L 247.0,46.6 L 247.0,46.6 L 247.1,46.7 L 247.1,46.7 L 247.1,46.7 L 247.2,46.7 L 247.2,46.7 L 247.3,46.7 L 247.3,46.6 L 247.3,46.6 L 247.4,46.6 L 247.4,46.5 L 247.4,46.5 L 247.5,46.5 L 247.5,46.4 L 247.5,46.4 L 247.5,46.4 L 247.5,46.3 L 247.6,46.3 L 247.6,46.3 L 247.6,46.3 L 248.8,46.3 L 248.9,46.3 L 248.9,46.3 L 249.0,46.4 L 249.2,46.5 L 249.2,46.9 L 249.3,47.0 L 249.3,47.3 L 249.4,47.4 L 249.6,47.6 L 249.6,47.7 L 249.7,48.0 L 249.8,48.1 L 249.8,48.3 L 249.9,48.5 L 250.0,48.4 L 250.1,48.4 L 250.2,48.7 L 250.3,48.8 L 250.6,48.8 L 250.9,48.7 L 251.3,48.4 L 251.4,48.4 L 251.4,48.4 L 251.3,48.8 L 250.9,49.1 L 250.9,49.2 L 251.0,49.3 L 251.0,49.5 L 251.0,49.5 L 251.4,49.5 L 251.9,49.2 L 252.1,49.2 L 252.5,49.0 L 252.8,48.7 L 253.1,48.4 L 253.1,48.1 L 253.6,47.8 L 253.7,47.8 L 253.6,48.1 L 253.7,48.1 L 254.5,47.7 L 255.0,47.6 L 255.3,47.6 L 255.4,47.2 L 255.6,46.8 L 255.8,46.7 L 255.9,46.7 L 256.1,46.5 L 256.3,45.9 L 256.3,45.6 L 256.6,44.2 L 256.8,44.0 L 256.8,43.8 L 256.8,43.6 L 257.0,43.5 L 257.1,43.6 L 257.2,43.8 L 257.3,43.8 L 257.8,43.5 L 257.8,43.5 L 257.8,43.6 L 257.5,44.0 L 257.2,44.3 L 257.0,44.6 L 257.1,44.9 L 257.2,45.1 L 257.4,45.0 L 257.5,44.8 L 257.7,44.8 L 257.8,44.7 L 257.9,44.4 L 257.8,44.2 L 257.9,43.9 L 257.8,43.8 L 258.1,43.6 L 258.4,43.5 L 258.5,43.4 L 258.5,43.1 L 258.4,43.0 L 258.2,42.8 L 258.1,42.6 L 258.0,42.4 L 258.1,42.3 L 258.7,41.9 L 259.1,41.6 L 259.4,41.0 L 259.6,40.3 L 259.7,40.1 L 259.9,40.0 L 260.1,40.0 L 260.2,40.3 L 260.0,40.6 L 259.3,41.6 L 259.1,41.9 L 259.1,42.2 L 259.1,42.4 L 259.1,42.6 L 259.0,42.7 L 258.8,42.9 L 258.9,43.1 L 258.8,43.5 L 258.8,43.8 L 258.7,44.0 L 258.3,44.4 L 258.2,44.7 L 257.9,45.0 L 257.9,45.3 L 257.7,45.4 L 257.6,45.7 L 257.7,46.0 L 257.8,46.2 L 257.8,46.4 L 257.6,46.6 L 257.5,46.8 L 257.4,47.0 L 257.3,47.3 L 257.3,47.5 L 257.4,47.8 L 257.6,48.1 L 257.7,48.4 L 257.7,48.6 L 257.7,48.7 L 257.8,48.9 L 257.8,49.1 L 257.7,49.3 L 257.5,49.4 L 257.4,49.6 L 257.3,50.0 L 257.4,50.2 L 257.5,50.3 L 257.4,50.5 L 257.1,50.7 L 256.8,50.7 L 256.6,50.5 L 256.5,50.0 L 256.5,50.0 L 256.8,49.9 L 256.9,49.8 L 257.1,49.4 L 257.1,49.0 L 257.1,48.2 L 257.0,48.0 L 256.9,47.9 L 256.8,47.8 L 256.4,47.6 L 256.4,47.8 L 256.0,48.1 L 255.6,48.4 L 255.4,48.5 L 255.1,48.6 L 254.6,49.0 L 254.3,49.4 L 254.2,49.8 L 254.4,50.0 L 254.3,50.2 L 254.4,50.3 L 254.5,50.3 L 254.8,50.1 L 254.9,50.1 L 254.9,50.2 L 254.6,50.4 L 254.8,50.7 L 254.6,51.8 L 254.4,51.9 L 254.2,51.9 L 254.2,51.8 L 254.3,51.4 L 254.4,50.9 L 254.4,50.7 L 254.0,50.7 L 253.7,50.9 L 253.3,51.0 L 252.7,51.4 L 252.6,51.5 L 252.6,51.4 L 253.3,50.7 L 253.8,50.2 L 253.8,50.1 L 253.5,50.0 L 253.3,50.2 L 252.2,51.3 L 252.2,51.5 L 252.1,51.5 L 251.9,51.6 L 251.7,52.0 L 252.2,53.0 L 252.3,53.2 L 252.6,53.2 L 252.8,53.1 L 253.0,52.8 L 253.2,52.7 L 253.3,52.7 L 253.3,53.0 L 253.3,53.5 L 253.1,53.6 L 253.0,54.0 L 253.0,54.7 L 253.1,55.2 L 253.2,55.5 L 253.5,55.6 L 253.8,55.5 L 254.2,55.4 L 254.5,55.1 L 254.8,54.6 L 254.9,54.1 L 255.0,53.9 L 255.1,53.6 L 255.0,53.3 L 255.0,53.1 L 254.9,52.9 L 254.8,52.8 L 254.9,52.6 L 254.9,52.5 L 255.0,52.7 L 255.1,52.8 L 255.2,52.9 L 255.4,53.0 L 255.5,53.0 L 255.6,52.9 L 255.6,52.9 L 255.7,52.7 L 255.8,52.6 L 256.0,52.4 L 256.0,52.3 L 256.0,52.3 L 256.1,52.3 L 256.0,52.5 L 255.9,52.7 L 255.9,52.8 L 255.8,53.0 L 255.7,53.0 L 255.8,53.2 L 255.8,53.4 L 255.7,53.6 L 255.7,53.8 L 255.6,53.9 L 255.5,54.1 L 255.5,54.2 L 255.4,54.3 L 255.4,54.5 L 255.4,54.7 L 255.4,54.9 L 255.4,55.0 L 255.5,55.0 L 255.5,55.2 L 255.5,55.4 L 255.5,55.5 L 255.5,55.7 L 255.5,55.9 L 255.5,56.0 L 255.4,56.1 L 255.3,56.2 L 255.2,56.1 L 255.1,56.3 L 255.0,56.4 L 254.9,56.6 L 254.8,56.7 L 254.8,56.9 L 254.9,56.9 L 254.9,57.0 L 255.0,57.2 L 255.0,57.2 L 255.1,57.2 L 255.3,57.2 L 255.4,57.3 L 255.4,57.3 L 255.4,57.4 L 255.2,57.4 L 255.2,57.4 L 255.2,57.6 L 255.2,57.7 L 255.1,57.8 L 254.9,57.9 L 254.7,57.9 L 254.7,58.0 L 254.7,58.2 L 254.6,58.3 L 254.6,58.5 L 254.6,58.6 L 254.6,58.8 L 254.6,58.9 L 254.6,59.1 L 254.6,59.3 L 254.5,59.3 L 254.4,59.3 L 254.3,59.5 L 254.3,59.7 L 254.4,59.8 L 254.4,60.0 L 254.5,60.1 L 254.5,60.1 L 254.4,60.2 L 254.4,60.3 L 254.3,60.4 L 254.3,60.5 L 254.3,60.7 L 254.5,60.8 L 254.5,60.9 L 254.7,60.9 L 254.7,61.0 L 254.8,61.1 L 255.0,61.1 L 255.1,61.2 L 255.2,61.3 L 255.3,61.2 L 255.4,61.2 L 255.4,61.2 L 252.9,66.6 L 252.9,66.6 L 252.7,66.8 L 252.6,67.4 L 242.7,89.1 L 235.1,105.8 L 235.0,105.8 L 234.7,105.7 L 234.4,105.9 L 234.3,106.0 L 234.0,106.3 L 233.7,106.5 L 233.6,106.5 L 233.4,106.5 L 233.2,106.2 L 233.0,106.1 L 232.9,106.0 L 232.8,105.9 L 232.7,105.7 L 232.4,105.7 L 232.2,105.9 L 232.0,106.0 L 231.6,105.8 L 231.2,105.8 L 230.8,105.9 L 230.4,106.0 L 230.4,106.4 L 230.1,106.9 L 230.0,107.0 L 230.1,107.3 L 230.0,107.6 L 229.8,107.7 L 229.6,107.8 L 229.7,108.0 L 229.7,108.2 L 229.5,108.4 L 229.5,108.5 L 229.6,108.8 L 229.7,108.8 L 229.9,109.0 L 230.0,109.0 L 230.5,108.7 L 230.8,108.6 L 230.8,108.7 L 230.4,109.0 L 230.4,109.4 L 230.6,109.5 L 230.6,109.7 L 230.4,109.8 L 230.2,110.0 L 230.3,110.1 L 230.5,110.2 L 230.5,110.3 L 230.8,110.8 L 231.0,110.7 L 231.1,110.7 L 230.9,112.5 L 229.4,127.5 L 229.3,127.3 L 228.7,127.2 L 228.6,127.7 L 228.5,127.7 L 228.2,127.7 L 227.8,128.0 L 227.8,128.6 L 227.6,128.7 L 227.5,129.2 L 227.7,129.4 L 227.9,129.3 L 228.2,129.1 L 228.3,129.2 L 228.2,129.4 L 228.0,129.6 L 227.7,129.5 L 227.6,129.6 L 227.6,130.0 L 227.8,130.2 L 227.8,130.6 L 227.9,131.1 L 228.0,131.2 L 228.3,131.4 L 228.5,132.6 L 228.4,132.8 L 228.1,132.9 L 228.1,133.5 L 228.4,133.8 L 228.5,134.1 L 228.5,134.3 L 228.5,134.7 L 228.6,134.9 L 228.9,135.3 L 229.0,135.4 L 229.0,135.5 L 229.1,135.7 L 229.3,135.7 L 229.4,135.6 L 229.5,135.4 L 229.6,135.1 L 229.6,135.0 L 229.6,134.9 L 229.8,134.6 L 229.7,134.4 L 229.8,134.1 L 229.9,134.2 L 229.9,134.4 L 229.8,134.5 L 229.8,134.7 L 229.9,134.9 L 229.7,135.0 L 229.6,135.2 L 229.7,135.5 L 229.8,135.8 L 230.0,136.0 L 230.2,136.0 L 230.3,135.8 L 230.3,135.5 L 230.4,135.3 L 230.4,135.3 L 230.6,135.4 L 230.8,135.3 L 230.8,135.2 L 230.8,135.4 L 230.8,135.6 L 230.7,135.9 L 230.5,136.0 L 230.5,136.2 L 230.5,136.6 L 230.5,136.7 L 230.5,137.1 L 230.6,137.2 L 230.5,137.4 L 230.6,137.6 L 230.8,137.6 L 231.0,137.6 L 231.1,137.6 L 230.9,138.1 L 230.5,139.4 L 218.6,175.7 L 218.6,175.9 L 218.7,176.1 L 218.7,176.4 L 218.6,176.5 L 218.3,176.6 L 218.1,176.7 L 217.7,177.4 L 217.6,177.7 L 217.7,178.4 L 217.4,178.6 L 217.9,179.2 L 218.2,179.1 L 218.5,179.1 L 218.7,179.0 L 218.9,178.7 L 219.0,178.8 L 219.0,179.5 L 219.1,179.7 L 219.2,179.8 L 218.1,189.7 L 215.3,214.3 L 215.2,214.2 L 214.9,214.2 L 214.4,214.5 L 214.3,214.9 L 214.1,215.2 L 214.0,215.6 L 213.8,215.8 L 213.8,216.0 L 213.8,216.5 L 214.1,216.6 L 214.1,217.0 L 214.2,217.1 L 214.3,217.1 L 214.3,217.2 L 214.8,219.1 L 214.9,219.3 L 214.8,219.7 L 214.7,219.8 L 214.7,219.9 L 214.6,220.1 L 214.6,219.3 L 214.5,219.0 L 214.5,219.0 L 214.3,219.0 L 214.0,219.3 L 213.8,219.3 L 213.7,219.3 L 213.5,219.7 L 213.6,219.9 L 213.9,220.3 L 214.0,220.5 L 214.1,220.7 L 214.3,220.7 L 219.7,240.0 L 221.4,245.9 L 221.5,246.2 L 221.5,246.4 L 221.6,246.9 L 221.4,247.3 L 221.5,247.5 L 221.6,247.5 L 221.6,247.7 L 221.7,247.8 L 222.2,247.6 L 222.2,247.6 L 222.7,247.3 L 222.8,247.2 L 230.9,256.8 L 231.6,257.6 L 231.5,257.7 L 231.4,257.9 L 232.1,258.6 L 232.4,258.6 L 232.4,258.6 L 235.0,261.7 L 235.2,262.0 L 235.2,262.1 L 235.0,262.3 L 234.9,262.6 L 235.0,262.8 L 235.2,262.8 L 235.4,263.2 L 235.7,263.1 L 235.8,263.0 L 235.8,262.9 L 236.2,262.9 L 236.6,262.7 L 236.7,262.5 L 236.7,262.4 L 236.7,262.4 L 259.2,267.9 L 259.5,267.9 L 259.8,267.9 L 259.9,267.8 L 260.1,267.8 L 260.1,267.9 L 259.7,268.3 L 259.6,268.4 L 259.7,268.6 L 259.7,269.0 L 259.8,269.2 L 259.9,269.4 L 260.2,269.7 L 260.3,269.7 L 260.4,269.6 L 266.1,290.3 L 275.6,324.8 L 275.6,324.9 L 275.5,324.9 L 275.5,325.0 L 275.5,325.6 L 275.4,326.2 L 275.4,326.2 L 275.6,326.8 L 276.1,327.4 L 276.3,327.4 L 276.5,327.6 L 276.9,327.6 L 277.4,328.0 L 277.8,328.3 L 278.3,328.4 L 278.3,328.6 L 278.4,328.7 L 278.6,328.8 L 278.7,328.9 L 279.0,329.7 L 279.0,330.0 L 278.8,330.0 L 278.8,330.2 L 279.1,330.6 L 279.3,330.7 L 279.6,330.7 L 279.6,330.8 L 279.6,330.9 L 279.5,331.0 L 279.6,331.0 L 279.6,331.2 L 279.8,331.3 L 279.9,331.4 L 280.0,331.7 L 280.2,331.9 L 280.2,331.9 L 279.7,334.8 L 279.5,334.7 L 279.3,334.6 L 279.0,334.7 L 278.9,334.9 L 278.8,334.9 L 278.6,334.8 L 278.6,334.9 L 278.6,335.0 L 279.4,335.3 L 279.6,335.3 L 279.7,335.1 L 279.1,338.0 L 278.8,337.8 L 278.1,337.5 L 277.7,337.4 L 277.3,337.5 L 277.2,337.6 L 277.3,337.8 L 277.0,338.1 L 277.2,338.4 L 277.0,338.6 L 276.7,338.8 L 276.6,338.9 L 276.4,339.1 L 276.2,339.2 L 276.2,339.4 L 276.3,339.7 L 276.0,339.9 L 275.9,340.1 L 275.7,340.2 L 275.7,340.3 L 275.8,340.4 L 275.4,340.6 L 275.4,340.7 L 275.6,340.8 L 275.8,341.0 L 275.7,341.1 L 275.4,341.2 L 275.3,341.3 L 275.1,341.5 L 275.2,341.7 L 275.7,341.8 L 275.9,341.7 L 276.0,341.5 L 276.1,341.8 L 276.3,341.9 L 276.4,342.0 L 276.6,342.3 L 277.2,342.6 L 277.5,342.9 L 277.9,343.0 L 278.0,343.1 L 277.9,343.2 L 277.7,343.2 L 277.6,343.2 L 277.6,343.4 L 277.4,343.4 L 277.2,343.4 L 277.1,343.6 L 277.2,343.8 L 277.3,344.0 L 277.4,344.5 L 277.4,344.5 L 277.6,344.7 L 277.9,345.0 L 278.0,344.9 L 278.3,345.0 L 278.4,344.9 L 278.6,345.0 L 278.8,345.0 L 279.2,345.2 L 279.2,345.5 L 279.2,345.6 L 279.8,345.6 L 280.0,345.6 L 280.1,345.6 L 279.3,349.4 L 279.3,349.5 L 279.2,349.5 L 278.8,349.6 L 278.9,349.7 L 278.9,349.8 L 278.7,349.8 L 278.5,349.5 L 278.3,349.5 L 278.1,349.3 L 277.7,349.3 L 277.6,349.4 L 277.9,349.5 L 277.9,349.9 L 277.8,349.9 L 277.2,349.5 L 277.1,349.3 L 276.9,349.2 L 276.8,349.3 L 277.2,349.9 L 277.0,350.0 L 276.8,349.9 L 276.5,349.9 L 276.6,349.7 L 276.5,349.6 L 276.2,349.8 L 275.9,350.3 L 275.9,350.6 L 276.0,350.8 L 276.4,351.2 L 277.5,351.6 L 277.7,351.6 L 277.9,351.5 L 277.9,351.4 L 278.3,351.5 L 278.4,351.4 L 278.4,351.3 L 278.7,352.3 L 278.9,352.8 L 274.7,353.1 L 269.9,353.9 L 270.1,354.9 L 219.6,356.6 L 169.3,358.3" fill="none" stroke="black" stroke-width="2"/>
</svg>