<?xml version="1.0" encoding="UTF-8"?>
<svg width="400" height="400" viewBox="0 0 400 400" xmlns="http://www.w3.org/2000/svg">
  <rect width="400" height="400" fill="white"/>
  <path d="M 306.7,360.0 L 290.7,347.9 L 283.3,337.5 L 276.4,339.1 L 271.8,330.1 L 262.4,333.8 L 256.4,335.4 L 258.8,341.1 L 244.5,342.1 L 240.6,342.4 L 231.8,338.7 L 229.8,323.6 L 199.5,346.3 L 203.1,338.4 L 196.5,333.4 L 193.3,319.7 L 181.3,311.6 L 163.7,299.5 L 154.2,298.3 L 147.5,292.0 L 137.2,298.6 L 114.6,296.5 L 107.8,294.5 L 108.2,285.9 L 99.9,286.6 L 119.1,277.3 L 138.4,276.8 L 138.7,266.2 L 152.5,270.1 L 164.8,264.5 L 165.7,263.2 L 171.9,254.0 L 169.1,249.0 L 175.7,245.1 L 178.4,232.2 L 165.4,229.9 L 161.1,221.6 L 149.0,216.8 L 148.9,209.5 L 133.8,206.5 L 132.8,199.5 L 118.3,184.8 L 119.4,180.4 L 112.0,174.2 L 110.8,179.2 L 106.1,173.7 L 78.7,173.3 L 96.0,167.4 L 89.3,154.6 L 87.1,150.6 L 78.2,135.6 L 74.6,129.5 L 48.8,122.6 L 47.6,118.5 L 45.3,110.6 L 45.4,110.3 L 48.6,110.3 L 51.4,112.6 L 53.3,112.8 L 54.0,112.3 L 54.5,110.4 L 55.1,109.9 L 57.0,110.2 L 58.4,109.3 L 60.7,109.3 L 63.1,108.0 L 64.5,106.3 L 65.3,106.6 L 66.7,107.7 L 69.4,108.1 L 69.7,107.4 L 69.2,106.2 L 68.7,106.1 L 64.6,102.5 L 64.2,100.3 L 60.9,97.3 L 58.6,100.9 L 52.3,96.3 L 52.0,96.6 L 52.0,96.3 L 58.6,66.3 L 58.9,66.3 L 62.3,64.8 L 63.8,62.6 L 63.7,61.6 L 64.0,60.7 L 66.3,60.0 L 68.5,58.4 L 69.2,55.1 L 70.7,53.8 L 71.4,52.7 L 71.3,51.1 L 72.2,50.4 L 73.3,51.2 L 73.4,52.9 L 74.3,54.7 L 74.5,54.8 L 76.9,56.2 L 78.0,57.7 L 77.9,61.6 L 79.2,62.2 L 80.9,62.7 L 83.1,64.2 L 84.4,64.2 L 86.8,61.5 L 87.5,62.2 L 88.1,63.5 L 88.7,64.2 L 91.3,64.5 L 91.9,65.6 L 92.5,65.9 L 93.4,65.8 L 96.0,64.6 L 97.7,64.3 L 100.9,63.7 L 103.0,62.8 L 105.0,63.3 L 105.9,63.9 L 109.7,65.2 L 112.3,64.9 L 118.2,65.4 L 120.9,64.8 L 121.6,64.0 L 123.5,64.5 L 123.6,64.5 L 125.2,64.1 L 127.1,63.9 L 128.2,63.6 L 129.7,63.1 L 130.6,62.7 L 130.9,62.3 L 131.0,61.9 L 131.4,61.8 L 131.7,61.6 L 131.8,61.4 L 131.6,61.3 L 130.7,61.0 L 130.6,60.9 L 130.6,60.8 L 131.4,60.4 L 132.0,60.3 L 132.5,60.1 L 133.2,59.7 L 133.9,59.2 L 134.1,58.8 L 134.3,57.8 L 134.4,57.4 L 134.7,57.2 L 135.2,57.1 L 136.1,57.0 L 136.5,56.8 L 136.9,56.3 L 137.7,55.6 L 138.5,55.4 L 139.1,55.1 L 140.0,54.1 L 140.2,53.7 L 140.2,53.5 L 139.7,52.6 L 139.3,52.2 L 138.5,52.0 L 137.1,52.0 L 135.9,51.7 L 134.9,51.5 L 134.1,51.6 L 133.0,51.8 L 132.7,52.3 L 132.6,52.3 L 132.2,52.2 L 132.0,52.1 L 131.6,50.8 L 131.4,50.2 L 130.5,49.5 L 130.5,49.4 L 130.1,47.6 L 126.9,45.5 L 126.7,44.3 L 127.6,43.4 L 128.7,43.2 L 129.5,40.9 L 130.8,40.1 L 131.4,40.4 L 131.5,44.6 L 133.5,45.8 L 141.8,48.6 L 144.0,47.4 L 146.6,47.3 L 149.3,45.3 L 151.9,45.3 L 155.5,41.7 L 156.7,41.2 L 161.0,41.0 L 162.3,40.2 L 170.2,40.0 L 170.6,40.2 L 169.5,42.6 L 169.7,43.6 L 168.6,44.2 L 168.4,44.5 L 168.1,45.4 L 168.6,46.0 L 168.6,47.2 L 168.3,49.2 L 169.3,50.0 L 172.9,51.2 L 173.7,52.4 L 174.0,52.7 L 172.6,52.9 L 171.2,53.5 L 169.7,53.5 L 170.8,57.5 L 173.6,59.8 L 176.5,61.7 L 174.6,62.0 L 173.5,62.0 L 170.1,62.3 L 168.0,62.5 L 166.6,62.7 L 162.3,66.1 L 163.0,68.0 L 161.7,68.3 L 161.2,69.3 L 160.1,69.9 L 157.0,68.3 L 155.9,67.9 L 153.4,66.9 L 151.2,65.9 L 149.1,65.6 L 148.2,66.6 L 147.8,68.9 L 147.6,70.5 L 149.3,72.3 L 151.2,72.8 L 152.4,74.1 L 151.7,75.0 L 151.2,75.5 L 150.4,75.7 L 142.5,72.8 L 141.7,71.8 L 137.7,69.3 L 133.3,68.6 L 129.7,69.3 L 122.9,68.4 L 122.0,68.9 L 119.7,68.5 L 117.3,67.0 L 113.8,66.6 L 110.7,66.5 L 108.9,67.0 L 108.3,67.9 L 108.7,69.4 L 108.6,71.9 L 107.0,71.7 L 105.5,69.9 L 104.8,69.6 L 102.3,70.2 L 99.2,70.2 L 98.4,70.5 L 99.1,71.7 L 103.6,72.4 L 105.0,73.4 L 104.8,76.3 L 106.0,77.5 L 110.2,79.4 L 112.7,81.4 L 113.2,83.7 L 115.6,86.3 L 115.5,86.9 L 113.7,87.0 L 113.4,88.3 L 112.2,88.4 L 110.5,87.7 L 108.7,86.3 L 107.4,86.1 L 107.0,87.7 L 105.7,89.3 L 104.6,89.5 L 104.1,91.2 L 103.3,91.2 L 100.1,89.9 L 98.0,89.5 L 92.8,89.8 L 92.0,90.1 L 91.8,91.2 L 91.2,91.7 L 89.0,90.6 L 88.7,90.1 L 90.3,88.8 L 90.4,87.5 L 86.2,86.5 L 86.6,85.3 L 89.2,83.5 L 93.3,83.5 L 94.7,82.4 L 95.8,80.1 L 97.5,79.4 L 97.7,77.6 L 96.4,75.9 L 92.9,75.4 L 91.9,74.4 L 91.5,73.1 L 89.3,71.9 L 83.6,71.2 L 82.0,74.1 L 82.0,74.9 L 82.8,77.3 L 82.3,77.9 L 80.3,76.8 L 77.4,76.3 L 75.5,77.1 L 74.2,78.1 L 73.2,79.6 L 74.2,80.8 L 76.1,81.2 L 76.6,81.6 L 74.1,84.2 L 72.3,84.1 L 72.3,85.1 L 71.7,86.4 L 71.6,86.4 L 69.9,86.2 L 69.5,87.7 L 67.9,89.4 L 68.6,91.3 L 67.7,91.5 L 66.2,91.7 L 65.8,93.1 L 66.3,95.1 L 69.8,97.0 L 70.6,97.0 L 72.3,97.1 L 75.0,94.9 L 76.1,95.3 L 77.2,96.1 L 77.9,95.4 L 77.4,93.0 L 77.9,91.2 L 80.0,90.1 L 81.2,88.9 L 82.0,88.7 L 82.7,89.0 L 83.0,89.8 L 84.9,91.4 L 84.1,93.1 L 84.3,94.7 L 89.0,96.1 L 89.5,98.4 L 91.0,98.8 L 91.5,101.0 L 91.3,102.1 L 88.1,104.3 L 82.7,103.6 L 82.5,104.5 L 82.6,106.3 L 83.5,107.0 L 84.5,108.5 L 83.8,110.4 L 84.5,111.3 L 84.5,112.8 L 86.8,115.8 L 89.9,117.9 L 90.0,119.0 L 88.6,119.8 L 87.1,119.2 L 86.6,120.1 L 87.7,120.9 L 89.7,121.8 L 91.0,121.6 L 93.4,122.0 L 98.8,125.9 L 104.0,128.0 L 108.6,129.6 L 109.3,131.8 L 108.0,132.3 L 105.0,132.5 L 100.1,132.0 L 99.5,132.5 L 98.9,133.2 L 97.6,133.4 L 95.9,134.0 L 96.9,134.9 L 98.3,136.3 L 97.7,137.9 L 98.3,139.0 L 100.5,140.5 L 101.2,141.4 L 100.7,144.9 L 101.5,146.0 L 107.1,146.4 L 107.5,146.7 L 113.5,147.5 L 113.4,148.1 L 111.0,148.5 L 105.7,148.4 L 104.0,148.9 L 103.7,150.2 L 105.9,153.0 L 108.9,155.4 L 109.8,157.2 L 111.6,159.4 L 111.9,159.6 L 114.2,161.0 L 115.7,162.4 L 116.3,163.8 L 117.9,165.4 L 118.3,166.3 L 120.1,168.1 L 123.0,171.5 L 123.1,171.7 L 124.1,174.0 L 123.7,174.4 L 123.2,174.8 L 122.3,177.1 L 121.8,180.2 L 123.7,181.9 L 123.7,184.6 L 125.2,186.8 L 126.3,188.2 L 126.7,188.6 L 126.8,190.6 L 128.0,191.6 L 128.0,192.5 L 128.5,193.4 L 131.3,194.5 L 132.4,196.5 L 134.1,198.2 L 137.0,198.7 L 138.5,199.3 L 139.0,200.1 L 139.3,203.1 L 142.5,204.6 L 146.3,205.1 L 148.8,205.9 L 153.3,206.0 L 155.1,207.3 L 155.2,208.1 L 157.1,209.7 L 156.8,211.4 L 157.3,212.3 L 161.9,214.6 L 162.4,216.0 L 163.8,217.8 L 166.0,218.8 L 168.1,218.9 L 169.0,218.2 L 169.2,216.9 L 169.4,216.9 L 170.7,217.1 L 171.2,219.3 L 172.1,220.4 L 172.8,220.7 L 173.6,220.5 L 174.4,220.6 L 174.3,221.6 L 175.3,223.5 L 177.9,224.9 L 180.0,226.9 L 181.1,226.9 L 182.1,226.4 L 182.6,226.2 L 183.6,226.5 L 184.4,229.0 L 185.5,230.5 L 186.9,232.0 L 189.8,232.5 L 190.9,233.9 L 193.0,233.8 L 194.6,233.1 L 196.1,228.7 L 197.7,226.2 L 198.5,226.0 L 199.2,226.3 L 199.4,228.6 L 199.0,231.6 L 197.5,235.3 L 197.9,236.5 L 197.9,237.5 L 197.8,238.3 L 198.5,240.4 L 199.8,242.9 L 202.3,243.7 L 202.3,245.3 L 204.2,245.8 L 206.0,246.6 L 208.1,249.9 L 211.0,256.7 L 214.5,260.1 L 216.9,261.1 L 220.5,263.5 L 222.9,264.7 L 225.3,264.3 L 229.7,261.0 L 230.5,259.8 L 231.5,256.9 L 235.4,253.8 L 235.5,252.6 L 234.1,251.4 L 233.8,249.5 L 234.4,245.8 L 237.7,243.0 L 238.5,242.4 L 240.5,241.7 L 242.7,241.7 L 244.3,240.5 L 244.7,238.8 L 244.9,238.4 L 245.7,238.2 L 247.6,237.1 L 248.4,236.6 L 250.0,236.6 L 251.2,237.4 L 251.2,238.4 L 251.1,242.6 L 252.4,243.7 L 253.1,246.4 L 254.0,246.8 L 254.6,248.1 L 256.2,248.6 L 257.6,250.1 L 258.0,250.3 L 259.0,250.6 L 266.0,250.4 L 271.6,248.9 L 274.3,248.1 L 284.7,247.0 L 287.3,245.7 L 291.0,244.5 L 292.4,243.0 L 292.6,242.5 L 294.2,239.3 L 294.7,236.7 L 295.0,235.0 L 296.1,232.9 L 299.3,229.8 L 303.9,226.7 L 304.4,226.0 L 306.1,225.1 L 306.2,225.1 L 308.8,224.4 L 312.5,222.7 L 315.1,221.0 L 315.9,220.6 L 316.9,219.0 L 317.5,215.1 L 318.8,214.1 L 325.1,211.9 L 329.7,208.6 L 331.5,206.8 L 332.3,204.7 L 333.2,204.0 L 336.4,203.0 L 336.5,203.0 L 339.8,200.4 L 341.5,199.3 L 343.3,197.8 L 343.9,197.8 L 344.3,197.7 L 345.9,198.5 L 348.1,200.2 L 349.5,201.2 L 351.7,205.3 L 351.7,205.3 L 351.2,207.5 L 350.2,208.9 L 350.6,209.8 L 352.7,209.2 L 353.1,209.2 L 353.5,209.2 L 353.3,210.4 L 352.2,211.4 L 351.8,212.5 L 352.1,213.8 L 351.4,216.6 L 352.9,218.4 L 354.7,218.7 L 354.6,219.9 L 354.6,220.0 L 353.9,220.9 L 352.2,221.6 L 350.4,221.0 L 349.5,221.2 L 350.9,222.6 L 350.9,224.0 L 349.3,225.6 L 346.1,227.5 L 342.4,230.6 L 340.0,233.2 L 340.3,234.1 L 340.3,234.7 L 339.8,238.8 L 339.0,240.0 L 335.0,239.2 L 334.4,238.1 L 333.7,237.8 L 331.6,239.5 L 331.7,240.5 L 331.0,242.4 L 330.8,242.5 L 329.0,243.8 L 326.9,244.5 L 325.6,246.8 L 325.9,247.6 L 325.8,249.5 L 325.3,250.1 L 323.9,251.6 L 323.1,251.9 L 322.2,252.6 L 321.0,253.9 L 317.9,255.9 L 313.9,257.2 L 312.0,257.1 L 311.2,255.0 L 310.4,254.1 L 310.3,254.1 L 310.2,253.5 L 308.3,253.2 L 306.5,254.3 L 304.4,253.8 L 304.5,253.1 L 305.3,252.0 L 305.2,251.2 L 303.7,250.6 L 303.4,250.1 L 301.8,250.6 L 299.6,250.5 L 298.1,250.9 L 295.3,252.5 L 294.4,251.9 L 291.7,252.8 L 291.1,253.0 L 289.7,254.4 L 290.2,255.1 L 290.7,256.3 L 291.4,256.5 L 291.7,256.7 L 296.2,256.2 L 296.5,257.0 L 294.8,257.3 L 293.4,260.3 L 293.9,262.3 L 294.7,263.6 L 295.0,265.1 L 295.3,266.9 L 294.6,273.9 L 295.6,279.9 L 297.1,282.5 L 297.2,283.9 L 297.7,285.4 L 297.9,288.1 L 297.4,288.6 L 296.5,289.7 L 294.7,292.4 L 294.4,295.0 L 294.8,299.9 L 295.8,300.9 L 296.7,302.6 L 296.7,302.7 L 298.5,308.2 L 299.5,308.9 L 301.3,308.0 L 302.2,308.4 L 302.5,309.2 L 302.4,310.7 L 304.2,313.2 L 306.6,315.7 L 310.2,317.0 L 316.0,317.9 L 319.0,318.8 L 322.9,319.0 L 323.0,319.4 L 321.7,320.2 L 321.1,320.4 L 320.6,321.3 L 318.0,321.7 L 315.5,323.5 L 313.0,328.5 L 312.3,330.6 L 310.7,332.4 L 310.1,333.2 L 309.2,332.7 L 307.2,333.0 L 306.5,333.5 L 305.9,333.8 L 305.3,335.1 L 304.4,337.3 L 303.1,339.1 L 302.4,341.2 L 302.3,342.3 L 302.4,343.7 L 301.9,344.8 L 303.3,348.0 L 305.8,350.1 L 306.7,351.6 L 307.2,352.5 L 306.9,353.3 L 306.6,354.2 L 309.3,357.0 L 309.7,357.4 L 309.5,358.6 L 307.0,359.9 L 306.9,360.0 L 306.7,360.0" fill="none" stroke="black" stroke-width="2"/>
</svg>