<?xml version="1.0" encoding="UTF-8"?>
<svg width="400" height="400" viewBox="0 0 400 400" xmlns="http://www.w3.org/2000/svg">
  <rect width="400" height="400" fill="white"/>
  <path d="M 138.6,360.0 L 138.4,359.8 L 137.4,357.9 L 136.0,356.0 L 134.8,354.1 L 134.0,352.9 L 133.2,352.2 L 131.9,350.3 L 130.9,348.5 L 130.1,346.6 L 129.9,345.4 L 129.9,345.4 L 130.0,343.7 L 130.3,341.4 L 129.9,340.1 L 129.4,339.5 L 128.6,338.3 L 127.5,336.4 L 126.9,335.7 L 126.0,334.5 L 125.5,333.3 L 125.3,332.7 L 125.6,330.9 L 126.4,328.6 L 126.5,328.1 L 126.1,326.3 L 125.4,324.4 L 124.2,322.6 L 123.2,320.1 L 122.8,318.3 L 122.7,317.1 L 123.1,314.8 L 123.7,313.1 L 124.5,311.4 L 125.7,309.8 L 126.8,308.1 L 127.3,305.8 L 127.6,303.5 L 127.2,302.2 L 126.5,299.8 L 125.7,298.6 L 125.0,296.2 L 123.9,294.3 L 123.5,293.1 L 123.5,291.9 L 124.0,289.6 L 124.6,287.9 L 124.9,286.1 L 124.8,283.8 L 124.9,283.2 L 125.0,282.6 L 125.5,280.3 L 126.2,278.0 L 127.0,275.7 L 127.3,274.6 L 127.8,272.3 L 128.1,270.6 L 128.5,268.2 L 129.0,266.5 L 129.3,264.8 L 129.3,263.0 L 129.4,262.4 L 129.5,260.7 L 129.7,258.3 L 129.8,256.6 L 130.0,256.0 L 130.9,253.7 L 131.9,251.5 L 133.0,249.8 L 133.7,248.1 L 134.8,246.5 L 135.7,244.2 L 136.4,242.4 L 136.6,241.9 L 137.2,240.2 L 137.8,237.9 L 138.5,235.6 L 139.2,233.3 L 139.6,231.0 L 140.0,228.7 L 140.5,227.0 L 140.9,224.7 L 141.4,222.3 L 141.8,220.0 L 142.2,218.3 L 142.6,216.6 L 142.8,214.2 L 142.8,212.5 L 142.5,210.1 L 142.2,207.7 L 142.1,205.3 L 142.1,204.2 L 142.2,201.8 L 142.4,200.7 L 142.4,198.9 L 142.5,197.1 L 142.8,194.8 L 143.2,192.5 L 143.7,190.8 L 143.8,188.4 L 143.8,186.7 L 143.8,186.1 L 143.7,184.3 L 143.8,182.0 L 144.3,179.7 L 144.7,177.9 L 145.4,176.2 L 146.6,174.0 L 147.8,172.3 L 149.2,170.7 L 149.2,170.6 L 150.4,168.4 L 151.2,166.8 L 151.9,165.6 L 153.0,163.4 L 153.3,162.8 L 153.3,161.1 L 152.9,159.3 L 152.5,157.5 L 152.2,155.1 L 152.0,153.9 L 152.3,152.1 L 153.0,150.4 L 153.8,148.2 L 154.3,146.5 L 155.0,145.3 L 155.7,144.8 L 156.5,143.7 L 157.2,142.6 L 157.5,140.9 L 157.7,138.5 L 158.2,136.2 L 158.7,134.5 L 158.8,132.2 L 158.5,131.0 L 158.2,130.3 L 157.6,130.3 L 156.9,130.2 L 155.5,129.5 L 155.4,128.9 L 155.0,128.9 L 154.2,128.8 L 154.0,128.8 L 153.3,128.7 L 152.7,128.1 L 152.6,128.1 L 151.1,126.7 L 150.3,126.1 L 149.6,125.4 L 149.0,124.2 L 147.4,122.9 L 146.9,122.2 L 146.6,121.6 L 146.5,121.0 L 146.0,120.4 L 145.6,120.3 L 145.1,120.9 L 144.9,120.9 L 143.0,119.5 L 141.5,118.2 L 140.7,117.6 L 140.0,116.3 L 140.3,115.7 L 140.1,115.1 L 139.7,115.1 L 139.8,112.8 L 139.8,112.6 L 139.6,111.0 L 139.8,108.6 L 140.1,108.1 L 141.2,105.8 L 142.5,104.2 L 143.2,102.5 L 144.0,100.8 L 144.9,99.1 L 145.4,98.6 L 146.1,96.9 L 146.3,95.7 L 146.2,94.5 L 146.1,93.9 L 146.3,93.9 L 146.4,92.2 L 146.3,91.0 L 146.0,90.4 L 147.8,90.0 L 148.9,89.5 L 150.2,87.8 L 151.2,86.7 L 151.9,86.2 L 153.4,84.6 L 153.8,84.0 L 153.8,83.4 L 152.8,81.6 L 152.7,80.4 L 153.0,79.8 L 154.0,79.9 L 153.9,79.5 L 153.9,79.3 L 153.1,77.5 L 153.1,76.9 L 153.3,76.3 L 153.5,75.2 L 153.4,74.0 L 153.9,74.0 L 153.9,72.9 L 153.1,72.2 L 153.1,71.6 L 153.8,70.5 L 154.5,70.0 L 155.6,68.9 L 156.4,69.0 L 157.7,69.1 L 158.7,69.8 L 160.1,71.7 L 160.4,72.3 L 160.8,72.3 L 160.6,72.9 L 160.8,73.5 L 162.4,73.1 L 163.8,73.2 L 164.9,73.3 L 165.0,72.7 L 165.7,72.8 L 166.4,73.4 L 168.4,73.6 L 169.9,73.7 L 171.0,73.3 L 171.8,71.6 L 174.1,71.2 L 175.3,70.7 L 175.9,70.8 L 177.0,70.9 L 178.4,70.4 L 179.6,70.5 L 181.9,70.1 L 182.6,70.2 L 183.4,69.1 L 183.6,67.4 L 182.9,66.7 L 182.7,65.9 L 182.6,65.5 L 182.6,64.3 L 182.9,63.2 L 183.1,62.6 L 183.3,62.6 L 185.3,62.2 L 187.0,61.2 L 189.0,60.2 L 190.6,58.6 L 191.5,57.5 L 192.9,56.4 L 194.9,55.4 L 194.8,54.8 L 195.1,54.9 L 195.5,54.9 L 196.4,53.8 L 196.8,53.3 L 196.8,52.7 L 198.3,51.0 L 200.1,49.5 L 200.6,48.9 L 201.7,49.0 L 203.7,47.4 L 205.6,46.4 L 207.6,45.4 L 209.5,43.8 L 210.4,43.3 L 212.7,42.4 L 213.8,42.5 L 215.4,42.1 L 215.6,42.0 L 216.2,42.1 L 217.0,42.8 L 217.5,42.8 L 218.1,42.3 L 218.5,41.7 L 219.7,41.8 L 221.4,41.4 L 223.7,41.6 L 225.4,41.8 L 227.7,41.4 L 229.2,41.5 L 229.3,41.5 L 230.3,41.6 L 231.3,41.7 L 231.4,42.3 L 231.8,42.2 L 233.6,41.9 L 234.5,42.0 L 236.7,42.8 L 238.0,42.9 L 238.3,42.7 L 238.7,42.4 L 239.3,42.2 L 240.8,41.4 L 242.3,40.4 L 243.7,40.2 L 244.2,40.1 L 244.6,40.0 L 244.7,40.2 L 244.9,40.6 L 244.8,41.2 L 245.6,41.3 L 245.9,40.7 L 247.9,41.5 L 248.6,40.9 L 248.7,40.4 L 250.9,41.2 L 253.2,41.4 L 254.6,42.1 L 255.6,41.6 L 256.8,41.7 L 259.1,41.3 L 260.4,41.4 L 260.8,41.5 L 262.2,42.2 L 263.4,42.3 L 265.0,43.0 L 266.1,43.1 L 266.4,42.6 L 267.6,43.3 L 268.7,44.0 L 269.6,44.6 L 271.5,46.0 L 273.1,47.3 L 273.4,47.3 L 273.5,47.6 L 275.1,47.4 L 276.5,46.4 L 277.1,47.1 L 277.2,47.1 L 277.3,48.9 L 277.1,51.2 L 276.9,52.4 L 276.7,54.7 L 276.5,55.3 L 274.6,54.5 L 273.6,56.8 L 272.9,57.9 L 272.6,58.4 L 272.3,58.4 L 271.5,57.8 L 271.1,57.7 L 271.0,58.3 L 271.0,58.9 L 270.7,58.9 L 270.6,58.3 L 270.3,58.8 L 270.1,59.4 L 268.0,59.8 L 265.7,60.8 L 264.3,61.2 L 262.8,61.1 L 261.2,60.9 L 260.5,61.5 L 260.0,62.6 L 259.1,63.1 L 257.8,63.6 L 256.9,64.7 L 255.5,66.9 L 255.2,67.4 L 254.9,68.0 L 253.8,68.5 L 253.0,68.4 L 252.9,69.6 L 253.2,70.2 L 254.2,70.9 L 255.4,72.2 L 255.6,72.8 L 255.5,73.4 L 255.2,74.5 L 255.0,76.8 L 254.9,78.6 L 254.5,80.9 L 254.2,81.5 L 253.5,82.6 L 251.8,83.6 L 250.0,84.0 L 249.6,84.0 L 248.6,83.9 L 246.3,83.7 L 245.5,84.2 L 243.9,84.6 L 242.4,84.5 L 240.7,84.9 L 238.5,85.9 L 237.0,85.8 L 234.8,86.2 L 232.5,86.5 L 230.2,86.9 L 229.1,87.4 L 228.3,86.7 L 227.4,86.7 L 226.3,87.2 L 225.6,87.1 L 224.0,87.5 L 223.2,87.5 L 222.3,86.8 L 221.6,86.7 L 220.5,87.2 L 218.2,87.6 L 215.9,88.0 L 215.1,87.3 L 214.0,87.2 L 213.3,87.1 L 212.6,87.7 L 212.0,88.2 L 210.8,88.7 L 208.5,89.1 L 206.2,89.4 L 205.6,89.4 L 205.2,89.3 L 205.5,88.8 L 206.4,88.3 L 206.2,87.7 L 205.8,87.0 L 205.4,87.6 L 204.6,88.7 L 204.0,88.6 L 203.6,88.6 L 203.1,88.6 L 202.5,87.9 L 200.5,88.3 L 200.1,88.9 L 199.6,90.6 L 199.0,91.7 L 197.5,93.3 L 197.3,93.9 L 196.8,94.4 L 195.3,94.9 L 193.1,95.9 L 191.9,96.4 L 190.0,97.4 L 188.7,98.4 L 187.7,99.5 L 187.1,101.2 L 187.0,101.8 L 187.0,102.4 L 187.3,103.6 L 188.0,106.0 L 188.5,107.2 L 188.8,109.0 L 188.6,109.6 L 188.3,110.1 L 187.0,111.2 L 185.3,112.8 L 184.3,113.9 L 183.3,115.0 L 182.7,116.7 L 182.4,118.4 L 182.5,120.2 L 182.3,120.8 L 181.7,121.9 L 181.7,122.5 L 181.8,122.5 L 182.1,123.1 L 182.2,124.3 L 182.0,125.5 L 181.3,126.0 L 181.0,126.4 L 179.6,128.2 L 179.3,128.7 L 179.4,128.7 L 180.3,130.6 L 181.0,131.2 L 181.2,131.3 L 182.1,131.9 L 182.8,133.2 L 183.1,133.6 L 183.6,134.8 L 183.8,135.0 L 184.2,135.7 L 185.2,136.9 L 185.6,138.1 L 185.5,139.3 L 185.1,140.5 L 184.1,141.5 L 184.5,142.7 L 184.5,143.9 L 184.8,144.5 L 185.3,144.6 L 186.3,145.3 L 188.0,146.6 L 188.3,147.8 L 188.6,149.0 L 188.5,151.4 L 188.9,153.7 L 189.2,156.1 L 189.5,158.5 L 189.7,160.9 L 189.9,162.7 L 190.2,164.4 L 190.5,166.2 L 190.4,166.8 L 189.1,168.5 L 189.3,169.7 L 189.9,170.9 L 190.8,171.6 L 191.5,172.8 L 192.8,174.6 L 192.8,174.7 L 194.0,175.4 L 195.9,176.7 L 197.5,178.1 L 197.9,178.7 L 198.0,179.3 L 198.1,179.9 L 197.8,181.0 L 197.5,181.6 L 197.1,183.9 L 196.6,186.2 L 195.8,188.5 L 195.1,189.6 L 194.8,190.2 L 194.8,190.8 L 195.5,193.2 L 195.6,193.8 L 195.4,194.3 L 194.4,196.6 L 193.2,198.3 L 191.7,199.9 L 190.4,200.9 L 189.4,202.6 L 188.7,204.3 L 188.6,205.5 L 188.5,207.2 L 187.8,208.9 L 186.9,210.6 L 186.7,212.4 L 186.4,213.5 L 185.4,214.6 L 185.3,215.2 L 185.4,216.4 L 184.9,216.9 L 184.5,217.5 L 184.3,218.0 L 184.4,218.6 L 185.8,219.9 L 187.2,221.2 L 188.4,223.1 L 188.7,224.3 L 188.6,224.9 L 188.3,225.4 L 188.1,226.0 L 186.8,227.7 L 186.8,228.9 L 186.2,231.2 L 185.6,233.5 L 184.9,235.7 L 184.1,237.4 L 183.1,239.1 L 181.5,240.7 L 179.7,242.3 L 178.3,243.4 L 177.3,245.1 L 176.7,246.2 L 175.8,247.3 L 174.7,247.8 L 173.5,248.2 L 173.0,248.8 L 171.8,250.4 L 170.9,252.1 L 169.6,254.3 L 168.7,256.6 L 168.3,257.8 L 167.8,260.1 L 167.5,262.4 L 167.0,264.7 L 166.4,267.0 L 166.2,268.2 L 166.4,268.8 L 166.7,269.4 L 166.4,271.1 L 165.8,272.8 L 165.3,274.3 L 165.3,274.5 L 164.7,275.7 L 163.5,277.9 L 162.3,280.2 L 161.3,281.8 L 160.1,284.1 L 158.8,285.7 L 157.3,287.3 L 156.3,289.0 L 155.6,290.7 L 155.2,292.4 L 155.0,294.8 L 155.1,297.1 L 155.4,299.5 L 155.6,301.3 L 156.2,303.1 L 157.0,305.6 L 157.7,306.8 L 158.5,308.6 L 159.4,310.5 L 159.7,311.1 L 160.2,311.7 L 160.6,312.9 L 160.7,313.5 L 161.3,315.4 L 162.0,317.8 L 162.9,319.0 L 163.9,321.5 L 165.4,322.8 L 165.8,323.1 L 165.8,323.1 L 164.5,324.7 L 139.6,358.6 L 138.6,360.0" fill="none" stroke="black" stroke-width="2"/>
</svg>