<?xml version="1.0" encoding="UTF-8"?>
<svg width="400" height="400" viewBox="0 0 400 400" xmlns="http://www.w3.org/2000/svg">
  <rect width="400" height="400" fill="white"/>
  <path d="M 200.7,319.2 L 196.6,314.6 L 193.2,312.4 L 188.6,310.7 L 186.3,308.9 L 181.3,303.9 L 177.7,299.2 L 174.9,297.9 L 170.6,294.6 L 168.4,290.7 L 167.6,289.7 L 166.3,286.8 L 165.0,284.9 L 161.8,282.5 L 159.6,281.0 L 149.7,276.9 L 146.8,273.9 L 145.0,270.7 L 144.6,268.5 L 145.5,266.0 L 144.3,264.6 L 142.5,263.9 L 141.7,264.2 L 139.0,263.4 L 137.1,261.5 L 136.7,260.5 L 135.7,260.0 L 134.4,259.9 L 133.9,259.8 L 132.8,258.0 L 132.5,256.2 L 131.3,254.1 L 130.6,253.1 L 129.2,251.9 L 127.1,249.1 L 125.2,249.2 L 121.8,249.8 L 120.4,249.4 L 118.0,246.4 L 115.7,246.4 L 114.0,244.1 L 111.8,243.8 L 110.3,241.4 L 109.6,238.6 L 108.7,236.9 L 107.1,234.9 L 104.9,233.8 L 102.7,231.3 L 101.6,230.6 L 101.0,227.7 L 100.8,226.3 L 100.4,223.8 L 98.8,221.9 L 99.1,220.0 L 98.3,219.4 L 96.6,217.0 L 94.3,214.8 L 91.5,214.7 L 90.8,215.1 L 91.0,217.2 L 90.2,218.9 L 88.0,220.3 L 84.8,220.7 L 81.7,220.4 L 80.7,221.1 L 78.7,223.2 L 78.0,227.0 L 76.7,229.1 L 77.3,230.7 L 78.0,234.9 L 76.9,236.2 L 76.4,239.9 L 75.7,242.4 L 75.2,246.1 L 74.2,246.8 L 72.1,249.9 L 68.3,258.5 L 68.8,263.6 L 67.9,266.8 L 66.7,267.2 L 65.2,268.6 L 64.4,271.8 L 63.3,274.6 L 62.8,278.0 L 62.0,280.2 L 60.7,281.6 L 60.7,281.6 L 58.0,284.1 L 57.1,284.8 L 55.4,284.8 L 55.2,284.3 L 55.0,283.9 L 54.8,282.4 L 52.8,280.2 L 52.4,279.4 L 52.8,276.7 L 54.5,274.7 L 54.4,273.3 L 53.8,272.0 L 52.9,271.7 L 50.0,274.2 L 47.8,278.0 L 45.8,277.8 L 45.1,277.8 L 43.8,277.0 L 42.2,276.0 L 40.7,274.9 L 40.0,272.0 L 40.1,271.4 L 40.2,269.8 L 40.0,268.4 L 40.2,266.7 L 40.0,265.7 L 41.2,262.8 L 42.7,261.3 L 43.9,260.8 L 44.1,259.9 L 43.7,258.7 L 43.9,258.1 L 44.7,255.6 L 45.2,254.9 L 46.1,252.2 L 47.1,249.1 L 48.5,246.9 L 49.9,242.7 L 50.2,238.2 L 51.1,236.8 L 51.0,236.3 L 49.5,235.6 L 48.6,234.4 L 48.6,234.2 L 48.6,231.6 L 49.9,230.1 L 50.0,228.8 L 50.3,226.4 L 50.1,225.8 L 49.7,224.6 L 48.7,222.8 L 48.9,219.9 L 48.8,217.7 L 49.1,217.3 L 50.9,213.8 L 53.3,209.3 L 53.2,208.0 L 51.3,205.3 L 50.8,204.8 L 50.3,204.4 L 49.9,202.5 L 50.1,201.0 L 50.3,199.1 L 52.1,195.3 L 54.5,187.4 L 58.9,179.0 L 60.6,176.3 L 61.2,174.3 L 62.6,172.1 L 65.2,168.5 L 65.5,168.1 L 67.2,163.8 L 66.8,161.5 L 68.2,157.1 L 70.7,152.4 L 72.2,150.1 L 74.0,146.6 L 75.0,143.8 L 75.1,140.3 L 76.8,138.0 L 76.6,135.8 L 76.5,134.6 L 77.1,129.4 L 78.0,124.7 L 80.0,116.1 L 78.7,109.5 L 78.9,106.7 L 79.2,105.5 L 79.9,102.5 L 79.7,101.2 L 79.9,97.2 L 79.4,93.0 L 79.2,91.1 L 79.1,89.0 L 79.1,88.2 L 79.6,86.6 L 79.4,85.5 L 79.5,82.8 L 80.2,81.5 L 81.1,80.5 L 80.8,80.1 L 79.7,79.8 L 80.0,78.9 L 81.3,78.2 L 81.3,76.9 L 80.6,75.3 L 81.1,74.6 L 81.6,73.5 L 83.4,68.9 L 83.6,67.6 L 84.2,66.3 L 90.4,55.6 L 92.0,55.0 L 93.5,54.5 L 93.5,54.5 L 95.2,53.4 L 95.8,53.4 L 97.9,54.3 L 100.1,59.2 L 100.3,60.5 L 99.4,61.8 L 101.7,64.0 L 103.9,64.1 L 105.6,63.5 L 106.2,60.6 L 108.5,59.8 L 109.8,60.3 L 111.2,61.8 L 115.7,67.6 L 117.2,68.4 L 118.6,69.5 L 129.1,84.1 L 133.9,92.6 L 135.4,94.4 L 140.4,98.1 L 142.5,100.1 L 142.6,102.3 L 144.8,106.1 L 147.5,107.4 L 148.7,108.1 L 149.9,108.6 L 151.8,110.9 L 151.5,113.3 L 151.9,114.5 L 151.9,117.2 L 154.0,119.7 L 154.8,120.2 L 156.3,119.3 L 157.3,120.4 L 157.2,121.6 L 158.2,124.2 L 160.2,126.1 L 161.5,126.1 L 162.3,125.7 L 162.6,125.0 L 164.2,123.9 L 166.0,123.8 L 171.0,126.9 L 172.9,128.5 L 175.1,128.6 L 177.5,128.0 L 180.1,126.0 L 181.7,126.3 L 181.7,126.3 L 181.8,126.4 L 182.0,126.9 L 181.8,128.7 L 184.6,133.5 L 187.4,136.6 L 188.7,138.4 L 190.4,139.9 L 191.4,141.8 L 193.4,143.3 L 196.3,147.5 L 199.5,150.4 L 201.3,153.7 L 203.5,156.3 L 205.5,157.6 L 206.5,157.6 L 209.5,154.3 L 210.9,153.4 L 211.6,153.4 L 212.6,154.3 L 211.0,158.9 L 211.6,161.3 L 212.6,162.5 L 212.7,163.3 L 215.4,167.0 L 216.0,169.4 L 218.6,172.2 L 219.8,172.7 L 221.4,174.7 L 223.9,175.1 L 227.7,176.6 L 228.5,176.1 L 231.3,176.5 L 231.3,180.4 L 234.0,183.4 L 234.5,183.3 L 235.0,182.6 L 236.4,182.0 L 237.3,182.1 L 239.2,181.5 L 239.9,175.0 L 242.8,171.7 L 245.3,172.0 L 245.7,169.5 L 248.0,168.7 L 250.9,168.8 L 252.8,169.6 L 253.7,170.3 L 254.8,172.8 L 255.4,175.1 L 257.4,179.0 L 257.8,180.6 L 259.7,184.7 L 261.2,187.3 L 262.0,185.8 L 263.3,185.6 L 264.6,186.7 L 268.8,187.3 L 272.7,190.8 L 276.2,195.1 L 277.5,197.7 L 281.0,201.1 L 285.2,206.9 L 285.7,211.1 L 285.8,211.7 L 285.6,213.2 L 286.2,214.0 L 287.0,213.9 L 287.9,212.6 L 288.4,212.7 L 289.0,213.3 L 289.2,213.5 L 291.1,213.6 L 291.9,212.9 L 293.7,213.2 L 293.9,212.3 L 292.6,211.6 L 291.3,211.2 L 289.6,209.7 L 289.4,209.4 L 287.9,207.4 L 288.7,207.0 L 289.6,206.9 L 290.2,206.8 L 291.6,205.7 L 295.6,204.8 L 297.3,205.6 L 299.5,207.8 L 300.1,209.9 L 301.6,211.9 L 302.9,214.3 L 304.6,215.8 L 306.9,216.0 L 308.4,215.4 L 333.3,258.3 L 333.4,258.6 L 333.4,258.7 L 332.5,261.5 L 328.6,265.0 L 329.5,267.8 L 329.4,269.9 L 329.7,272.9 L 329.5,274.7 L 328.9,275.2 L 327.8,276.5 L 328.1,277.9 L 327.8,281.5 L 327.0,281.7 L 325.5,283.6 L 325.1,285.4 L 325.7,287.3 L 327.0,288.5 L 328.5,288.6 L 329.9,287.6 L 330.4,284.4 L 330.1,282.2 L 330.6,279.9 L 331.6,278.5 L 333.1,277.8 L 335.6,274.3 L 337.5,272.7 L 339.9,271.4 L 340.6,271.8 L 341.7,272.0 L 343.7,269.0 L 343.9,267.6 L 359.1,271.9 L 359.8,272.1 L 360.0,272.7 L 359.9,274.9 L 358.6,277.3 L 354.8,283.2 L 354.5,287.6 L 353.4,289.6 L 351.2,292.3 L 348.6,294.9 L 344.7,298.0 L 340.4,298.2 L 338.8,297.0 L 338.5,295.7 L 340.1,292.6 L 339.8,292.0 L 338.6,291.6 L 337.7,292.2 L 336.1,295.0 L 334.5,297.0 L 332.8,301.3 L 331.9,302.1 L 330.7,302.3 L 329.0,303.2 L 327.2,305.2 L 326.1,305.5 L 325.1,306.3 L 323.1,311.4 L 322.2,312.2 L 321.6,314.0 L 319.4,315.3 L 317.1,316.4 L 314.9,316.3 L 312.9,314.4 L 312.3,313.6 L 311.3,311.4 L 311.3,310.3 L 311.6,309.4 L 315.7,305.4 L 316.7,303.9 L 316.0,301.5 L 314.0,298.9 L 313.2,298.2 L 311.8,297.3 L 309.9,295.2 L 307.0,294.8 L 305.3,295.4 L 302.6,295.6 L 300.9,296.0 L 299.1,297.7 L 297.5,299.7 L 295.2,301.6 L 296.8,303.3 L 298.2,310.5 L 298.2,314.3 L 299.0,316.7 L 298.8,319.4 L 297.9,320.0 L 294.5,319.9 L 291.2,317.1 L 290.8,315.9 L 291.6,315.1 L 294.2,315.1 L 294.9,314.1 L 293.9,311.9 L 293.7,310.8 L 292.9,311.4 L 290.8,311.1 L 289.8,311.7 L 289.3,314.9 L 288.4,315.6 L 286.8,314.3 L 284.4,314.3 L 283.1,312.6 L 282.6,310.1 L 282.4,308.4 L 281.6,306.5 L 278.2,303.4 L 276.0,303.0 L 273.6,303.8 L 271.7,303.9 L 270.9,304.1 L 269.6,311.3 L 270.8,315.2 L 272.6,317.1 L 272.2,320.8 L 271.7,320.9 L 267.7,322.6 L 266.6,322.7 L 265.6,323.2 L 265.2,325.2 L 264.1,326.5 L 263.5,327.7 L 263.8,328.9 L 263.4,331.3 L 260.1,333.7 L 259.1,333.6 L 259.5,331.4 L 258.4,330.4 L 257.6,331.2 L 257.4,332.4 L 257.9,333.0 L 258.7,333.3 L 258.8,333.9 L 258.5,335.0 L 256.4,337.3 L 253.7,337.4 L 252.7,339.5 L 251.0,343.7 L 249.4,344.4 L 248.2,345.3 L 246.8,345.1 L 245.6,346.6 L 243.8,346.5 L 242.9,345.3 L 243.5,343.9 L 242.9,343.5 L 241.7,344.4 L 238.2,341.9 L 236.3,340.1 L 236.7,337.2 L 237.0,334.6 L 239.3,332.9 L 239.7,330.0 L 238.1,327.9 L 235.5,327.3 L 234.7,326.3 L 235.2,325.1 L 234.6,324.2 L 233.8,324.3 L 232.8,324.7 L 231.1,324.0 L 228.9,321.5 L 228.6,319.7 L 229.5,318.4 L 230.6,317.4 L 230.8,315.5 L 232.4,314.6 L 232.0,312.5 L 235.1,308.7 L 235.0,307.7 L 232.8,306.9 L 232.0,306.1 L 232.6,304.3 L 232.1,303.5 L 231.1,303.0 L 228.6,299.9 L 225.1,299.9 L 223.3,301.9 L 222.4,307.5 L 221.9,308.3 L 219.5,310.0 L 217.4,311.4 L 215.0,311.8 L 211.1,312.9 L 208.9,314.4 L 208.1,317.4 L 208.2,319.3 L 208.0,320.7 L 207.2,321.4 L 203.4,321.0 L 201.0,319.6 L 200.7,319.2" fill="none" stroke="black" stroke-width="2"/>
</svg>