<?xml version="1.0" encoding="UTF-8"?>
<svg width="400" height="400" viewBox="0 0 400 400" xmlns="http://www.w3.org/2000/svg">
  <rect width="400" height="400" fill="white"/>
  <path d="M 55.0,224.8 L 55.2,225.2 L 58.6,226.2 L 60.5,226.3 L 61.2,226.0 L 63.2,226.5 L 64.2,226.8 L 65.8,226.1 L 66.8,225.5 L 67.5,225.4 L 67.9,225.1 L 68.6,224.5 L 69.3,223.8 L 70.9,222.5 L 72.0,221.1 L 72.4,220.3 L 74.0,218.6 L 76.5,217.1 L 77.6,215.3 L 77.9,214.2 L 78.5,213.3 L 78.4,212.3 L 79.9,211.0 L 80.2,210.9 L 82.4,211.1 L 87.5,208.4 L 88.2,207.4 L 90.1,207.3 L 92.6,205.5 L 93.2,204.6 L 93.5,203.8 L 93.1,201.8 L 93.4,201.6 L 94.1,202.0 L 94.8,201.9 L 95.8,202.2 L 96.6,201.6 L 97.1,200.6 L 96.8,199.9 L 96.8,199.2 L 96.1,198.7 L 95.4,198.5 L 95.0,199.1 L 94.3,199.6 L 94.2,198.6 L 94.5,198.0 L 94.4,196.5 L 93.2,195.1 L 92.6,194.7 L 91.9,195.0 L 91.3,194.2 L 90.3,193.7 L 89.6,194.3 L 88.5,196.1 L 87.2,196.1 L 85.3,194.3 L 82.6,193.3 L 75.5,191.6 L 70.2,191.1 L 68.5,189.4 L 69.1,188.5 L 70.2,188.4 L 70.7,188.1 L 71.1,188.3 L 71.6,188.0 L 74.1,184.9 L 75.8,185.0 L 76.6,184.3 L 76.9,184.2 L 77.5,184.2 L 78.5,183.7 L 80.1,181.4 L 81.0,180.7 L 82.1,180.2 L 82.6,179.4 L 83.7,178.8 L 84.6,178.9 L 85.4,179.6 L 85.5,180.3 L 86.2,181.1 L 88.9,181.1 L 90.3,180.3 L 91.4,179.3 L 92.1,179.1 L 93.5,180.4 L 95.0,180.3 L 96.3,179.5 L 97.0,179.8 L 97.5,179.5 L 98.7,179.9 L 101.3,179.0 L 102.6,178.0 L 103.9,178.0 L 104.3,177.7 L 105.1,178.1 L 106.4,178.3 L 107.7,177.9 L 108.1,177.6 L 109.5,178.3 L 110.6,180.0 L 111.6,180.3 L 112.1,180.1 L 113.1,179.4 L 113.8,179.1 L 115.0,179.2 L 115.7,178.7 L 119.3,179.2 L 121.0,181.0 L 122.2,182.0 L 124.8,183.3 L 125.8,183.3 L 127.0,182.6 L 129.5,179.3 L 129.7,178.5 L 131.9,177.1 L 132.6,176.9 L 133.7,176.5 L 136.1,174.0 L 136.8,174.3 L 137.8,175.0 L 138.0,176.1 L 137.7,177.1 L 136.9,178.2 L 136.4,179.7 L 136.9,180.0 L 136.9,180.9 L 137.8,181.0 L 138.4,181.9 L 139.8,182.1 L 140.2,183.3 L 139.8,185.5 L 140.6,185.9 L 141.2,185.8 L 142.1,185.3 L 142.8,186.2 L 144.3,186.3 L 145.6,185.4 L 146.5,186.1 L 148.5,186.3 L 150.4,185.3 L 151.3,184.0 L 152.2,181.8 L 154.7,182.0 L 155.8,181.4 L 156.9,180.5 L 157.8,180.2 L 158.2,179.9 L 159.2,178.5 L 159.2,177.5 L 158.6,176.4 L 157.7,176.1 L 157.5,175.6 L 157.5,175.0 L 156.7,174.7 L 155.9,173.8 L 155.2,170.9 L 155.7,169.6 L 156.7,168.5 L 156.5,167.3 L 155.2,165.9 L 154.5,165.7 L 153.3,165.9 L 153.0,165.7 L 154.0,165.4 L 154.7,165.5 L 156.2,164.5 L 157.9,162.6 L 157.5,162.1 L 158.4,162.1 L 159.4,162.9 L 160.5,162.2 L 161.6,162.9 L 161.9,163.5 L 165.2,165.7 L 165.9,165.7 L 167.7,164.4 L 168.2,163.4 L 168.7,163.0 L 170.0,164.3 L 172.0,164.7 L 172.5,166.0 L 174.7,168.3 L 175.3,169.3 L 174.8,173.2 L 175.2,173.7 L 176.3,173.5 L 177.6,173.6 L 177.9,173.4 L 178.3,173.3 L 179.0,172.8 L 182.4,173.2 L 184.7,171.4 L 185.6,170.9 L 186.9,169.0 L 188.1,169.7 L 188.9,169.3 L 188.8,170.0 L 189.9,170.4 L 190.8,170.4 L 191.5,170.0 L 191.6,170.5 L 191.4,171.7 L 193.2,172.0 L 194.4,173.2 L 195.6,173.6 L 197.0,173.7 L 198.7,172.5 L 200.6,173.2 L 201.1,173.5 L 202.1,172.8 L 202.9,173.3 L 203.6,173.2 L 206.0,173.5 L 206.5,174.3 L 207.3,174.5 L 209.1,173.5 L 210.6,174.3 L 210.7,175.3 L 211.0,176.3 L 211.0,177.6 L 212.1,178.2 L 213.4,178.9 L 215.5,180.3 L 217.9,183.7 L 219.7,185.3 L 219.8,186.1 L 220.5,187.0 L 221.0,188.4 L 222.0,189.8 L 223.5,191.8 L 224.6,192.4 L 227.0,193.3 L 227.8,193.9 L 227.3,196.7 L 227.6,197.3 L 228.0,197.5 L 228.6,198.0 L 228.6,198.0 L 228.8,198.5 L 229.7,200.2 L 230.5,201.2 L 232.0,202.0 L 235.0,202.7 L 236.4,203.5 L 237.8,203.5 L 238.5,203.3 L 240.3,203.2 L 241.4,202.8 L 242.7,202.8 L 243.4,202.7 L 245.4,202.8 L 247.5,202.4 L 248.5,202.5 L 249.2,202.2 L 250.1,202.2 L 250.6,201.9 L 252.5,201.8 L 254.4,200.6 L 254.7,200.3 L 255.1,200.0 L 255.6,199.2 L 256.0,198.8 L 256.3,196.5 L 256.1,195.1 L 255.6,193.2 L 255.5,193.0 L 255.0,191.3 L 255.7,190.3 L 255.9,189.7 L 256.0,189.2 L 255.5,183.4 L 254.3,181.1 L 254.7,180.0 L 256.7,178.3 L 257.8,175.9 L 258.4,173.9 L 258.5,173.0 L 258.2,172.7 L 257.9,170.8 L 258.0,168.5 L 259.0,167.0 L 259.7,166.6 L 262.6,167.0 L 263.0,166.6 L 263.1,165.8 L 262.8,164.6 L 263.1,163.9 L 264.8,161.8 L 265.5,160.3 L 269.1,154.3 L 270.0,151.5 L 269.9,149.7 L 269.1,149.1 L 269.4,147.3 L 268.4,145.4 L 267.7,145.2 L 266.0,145.5 L 264.6,146.6 L 263.8,148.0 L 263.4,148.0 L 262.6,147.7 L 262.7,145.4 L 262.1,144.8 L 261.2,142.5 L 261.7,139.1 L 262.2,138.1 L 263.2,136.6 L 265.4,134.4 L 267.0,131.6 L 268.3,130.5 L 269.8,128.6 L 270.2,128.4 L 270.8,130.1 L 271.4,130.6 L 273.2,129.7 L 274.7,129.8 L 275.9,129.2 L 277.2,129.4 L 279.1,127.9 L 281.5,128.1 L 283.0,127.5 L 284.5,126.3 L 285.2,125.3 L 286.0,124.6 L 286.9,124.2 L 287.4,123.8 L 288.2,124.2 L 288.8,123.9 L 289.2,124.2 L 289.8,123.9 L 290.9,122.8 L 291.2,121.0 L 292.8,120.0 L 293.5,119.8 L 294.5,118.7 L 296.1,116.3 L 297.2,115.4 L 298.3,115.0 L 299.2,114.9 L 300.0,114.7 L 301.2,114.7 L 302.2,114.2 L 305.2,113.2 L 306.6,113.0 L 307.7,112.2 L 308.1,111.6 L 308.7,111.8 L 309.4,112.3 L 309.9,112.2 L 311.5,111.1 L 314.1,111.7 L 315.7,110.9 L 316.6,110.6 L 318.4,110.2 L 319.6,109.8 L 320.3,110.3 L 321.2,110.5 L 321.7,110.6 L 323.7,110.1 L 324.1,110.5 L 326.5,110.6 L 332.0,110.0 L 336.0,110.1 L 337.6,109.6 L 338.2,109.8 L 338.5,110.4 L 340.4,111.7 L 341.9,111.7 L 342.9,111.4 L 344.5,111.5 L 347.1,110.9 L 348.5,110.0 L 349.9,110.0 L 349.9,110.6 L 352.4,111.0 L 353.9,110.8 L 354.7,110.9 L 356.0,110.4 L 356.4,110.2 L 359.9,131.9 L 360.0,132.4 L 359.7,132.4 L 356.2,132.4 L 354.0,132.8 L 353.1,133.5 L 353.4,137.5 L 351.3,139.0 L 350.3,140.5 L 348.8,141.4 L 346.3,141.9 L 342.7,143.0 L 338.3,143.8 L 336.9,144.2 L 332.7,144.7 L 329.2,144.9 L 327.4,145.4 L 326.2,145.7 L 323.8,147.0 L 321.1,147.1 L 319.3,147.5 L 318.2,148.0 L 317.8,148.0 L 315.8,148.2 L 311.1,148.3 L 309.4,147.5 L 307.0,147.9 L 304.1,147.7 L 302.6,148.0 L 300.9,147.8 L 299.1,148.0 L 297.3,149.0 L 296.9,149.9 L 296.5,150.3 L 295.5,150.3 L 294.5,151.7 L 293.3,151.4 L 292.6,151.7 L 291.9,153.0 L 291.7,154.0 L 291.1,155.1 L 291.3,155.6 L 291.8,155.6 L 292.1,156.2 L 292.2,159.7 L 291.8,161.8 L 290.7,165.4 L 290.5,167.1 L 291.2,170.0 L 291.1,171.2 L 290.7,171.6 L 289.4,172.4 L 287.9,172.3 L 284.7,172.8 L 281.9,174.3 L 278.7,176.5 L 274.8,180.7 L 274.6,182.3 L 274.2,182.9 L 274.7,186.1 L 275.0,186.7 L 276.6,187.5 L 276.9,188.3 L 277.4,189.3 L 277.9,189.6 L 279.6,191.7 L 280.3,193.4 L 281.0,194.0 L 281.8,195.3 L 282.6,196.2 L 288.3,196.5 L 288.7,197.0 L 289.2,197.2 L 289.6,197.8 L 289.6,199.1 L 291.3,201.2 L 291.8,202.1 L 290.9,203.6 L 290.5,204.3 L 290.3,204.9 L 290.3,205.1 L 291.1,206.1 L 292.2,206.3 L 293.0,205.7 L 294.2,207.8 L 295.8,208.0 L 296.8,208.4 L 297.4,209.3 L 298.5,209.3 L 299.0,209.6 L 300.0,211.0 L 300.0,212.8 L 299.5,213.7 L 299.3,214.9 L 298.0,217.7 L 296.3,218.7 L 294.4,220.2 L 293.2,221.4 L 291.6,222.5 L 289.3,225.2 L 284.8,229.2 L 283.4,230.0 L 281.8,229.9 L 280.8,230.0 L 277.9,232.3 L 275.8,233.3 L 274.8,234.3 L 273.5,235.3 L 272.5,234.9 L 270.6,235.2 L 268.8,236.2 L 267.9,236.3 L 266.7,235.0 L 265.6,234.9 L 264.2,236.0 L 263.4,237.1 L 262.2,240.3 L 261.4,241.4 L 259.8,242.2 L 258.6,242.1 L 254.7,238.9 L 251.8,237.4 L 250.7,237.0 L 249.9,237.5 L 249.4,237.5 L 247.3,236.3 L 246.8,236.4 L 245.7,236.3 L 245.4,235.0 L 244.2,234.5 L 243.4,234.9 L 243.1,236.4 L 241.7,238.3 L 241.2,240.5 L 241.8,243.1 L 241.0,243.7 L 240.0,243.7 L 238.0,243.2 L 237.5,242.6 L 237.5,242.2 L 234.3,241.6 L 232.7,241.1 L 231.4,240.1 L 230.1,239.8 L 229.6,239.5 L 228.2,239.2 L 226.2,237.9 L 226.4,236.5 L 226.8,235.2 L 226.7,234.2 L 226.5,233.7 L 227.2,228.8 L 226.7,227.5 L 226.0,226.8 L 223.0,225.0 L 220.6,224.4 L 219.3,224.7 L 216.2,224.1 L 215.0,225.0 L 214.0,225.3 L 215.3,221.4 L 215.8,220.7 L 215.7,220.1 L 213.1,217.4 L 208.9,217.2 L 206.3,219.5 L 205.5,221.2 L 205.3,221.9 L 204.7,222.2 L 204.1,222.7 L 203.4,222.9 L 201.3,224.6 L 199.5,228.5 L 200.8,231.1 L 201.3,232.3 L 202.1,233.6 L 202.1,234.3 L 203.5,235.4 L 205.0,235.6 L 205.9,235.6 L 206.5,235.9 L 207.7,235.6 L 208.1,235.9 L 208.6,237.7 L 209.0,238.4 L 211.5,240.0 L 211.8,241.5 L 211.6,244.8 L 211.4,246.8 L 211.0,247.5 L 210.5,249.9 L 209.4,250.9 L 208.1,251.5 L 205.5,251.2 L 203.6,249.9 L 202.3,250.0 L 200.8,249.0 L 199.7,247.6 L 198.1,246.6 L 196.2,246.7 L 195.4,246.9 L 194.5,248.0 L 192.9,248.1 L 190.2,248.9 L 189.5,250.6 L 188.8,250.5 L 187.8,251.6 L 187.1,251.9 L 186.2,251.1 L 185.5,250.8 L 184.8,251.1 L 183.1,250.3 L 180.9,249.7 L 179.7,249.5 L 179.0,250.8 L 177.7,251.4 L 175.3,251.2 L 173.8,251.9 L 172.4,251.9 L 170.9,251.3 L 170.7,251.3 L 168.3,250.8 L 166.5,248.9 L 164.1,247.6 L 164.0,247.4 L 164.0,246.8 L 163.5,246.1 L 162.6,245.9 L 161.6,244.9 L 159.6,244.6 L 159.2,243.7 L 158.5,242.9 L 157.8,242.7 L 157.6,243.9 L 157.0,244.7 L 156.1,244.6 L 155.7,244.7 L 155.5,245.4 L 155.9,246.1 L 156.7,246.0 L 158.0,246.2 L 157.7,247.0 L 159.4,247.6 L 159.2,248.1 L 157.3,247.6 L 156.6,248.1 L 154.4,250.7 L 153.1,252.8 L 152.4,252.5 L 151.0,252.2 L 149.0,252.9 L 148.0,253.9 L 148.1,254.7 L 146.9,254.8 L 146.4,254.4 L 145.9,254.7 L 146.1,254.9 L 146.6,256.5 L 146.9,257.2 L 146.9,257.7 L 146.1,257.7 L 145.8,257.3 L 144.9,257.1 L 144.3,257.7 L 144.5,258.3 L 145.5,258.8 L 146.6,259.6 L 147.4,259.6 L 148.6,258.0 L 148.9,257.1 L 150.0,258.1 L 150.1,259.5 L 150.3,260.0 L 150.3,261.3 L 151.1,262.1 L 151.6,262.0 L 152.4,261.1 L 153.0,261.6 L 153.4,262.7 L 153.4,263.6 L 154.1,264.9 L 156.3,265.3 L 157.8,266.0 L 158.8,265.7 L 159.9,265.8 L 160.3,266.1 L 160.4,267.2 L 161.0,268.1 L 161.2,268.9 L 160.4,270.2 L 159.4,270.9 L 157.8,270.8 L 156.9,272.1 L 156.7,273.1 L 155.9,274.7 L 156.1,275.4 L 154.9,275.9 L 154.2,276.0 L 153.1,275.4 L 151.6,273.4 L 150.0,271.0 L 149.5,270.7 L 147.9,270.4 L 147.6,269.9 L 144.0,269.4 L 144.2,268.9 L 143.9,268.3 L 142.5,268.2 L 141.5,268.9 L 141.7,269.4 L 142.5,269.9 L 142.5,270.4 L 141.9,271.3 L 142.5,272.1 L 142.4,272.7 L 141.3,272.6 L 140.6,273.3 L 139.4,273.9 L 138.0,273.9 L 137.5,274.0 L 135.6,274.0 L 135.1,274.6 L 134.6,275.0 L 133.5,274.9 L 132.7,275.1 L 130.9,277.3 L 130.7,278.7 L 131.1,278.8 L 132.1,278.3 L 133.2,278.4 L 133.0,280.1 L 134.7,282.9 L 134.7,283.5 L 134.0,284.3 L 133.8,284.8 L 133.2,285.8 L 133.0,287.7 L 133.9,289.2 L 133.4,290.2 L 130.6,290.4 L 128.0,289.0 L 127.2,288.5 L 123.8,286.3 L 121.1,284.1 L 119.9,282.8 L 117.3,281.9 L 116.9,281.3 L 115.7,281.0 L 115.0,281.2 L 113.8,281.3 L 113.2,280.0 L 110.5,279.6 L 107.4,279.8 L 105.7,280.4 L 104.8,280.4 L 103.4,280.7 L 101.4,281.9 L 100.5,282.7 L 97.9,284.1 L 97.0,284.1 L 97.1,283.5 L 98.6,281.8 L 99.1,280.5 L 99.7,279.5 L 96.9,277.5 L 94.8,277.2 L 93.3,277.3 L 88.3,280.1 L 87.1,280.3 L 85.9,281.6 L 83.6,284.9 L 82.1,285.8 L 82.0,285.9 L 73.6,277.0 L 74.2,276.2 L 74.0,275.7 L 74.3,275.1 L 76.7,272.7 L 77.4,271.7 L 77.3,271.0 L 78.4,269.7 L 79.6,268.9 L 79.9,268.1 L 80.9,266.8 L 81.5,266.7 L 83.5,265.3 L 83.8,264.5 L 85.5,263.2 L 86.1,262.4 L 86.5,259.5 L 85.8,258.4 L 85.7,257.6 L 85.1,255.9 L 84.7,255.5 L 85.1,254.4 L 84.9,254.0 L 83.4,252.4 L 83.0,251.3 L 81.9,250.7 L 80.3,250.1 L 79.4,250.0 L 80.0,248.0 L 79.5,247.3 L 80.0,246.8 L 80.0,246.0 L 78.5,246.0 L 78.1,246.1 L 76.6,245.7 L 75.5,245.2 L 74.4,244.6 L 73.2,244.2 L 72.1,243.5 L 70.1,242.8 L 69.6,243.3 L 67.1,243.7 L 65.3,244.6 L 64.1,244.8 L 63.1,245.1 L 61.3,246.3 L 60.4,246.6 L 58.8,248.2 L 57.8,250.0 L 59.0,251.0 L 58.9,252.5 L 56.8,254.0 L 55.9,254.8 L 55.2,255.8 L 54.7,257.0 L 48.8,258.6 L 47.5,259.9 L 40.0,255.4 L 41.0,254.3 L 42.0,252.5 L 42.6,251.3 L 45.2,248.4 L 46.3,248.5 L 47.7,247.4 L 52.7,241.1 L 54.4,238.6 L 55.8,235.9 L 55.4,235.5 L 53.6,234.8 L 52.2,234.7 L 51.0,234.9 L 50.8,234.9 L 55.0,224.8" fill="none" stroke="black" stroke-width="2"/>
</svg>