<?xml version="1.0" encoding="UTF-8"?>
<svg width="400" height="400" viewBox="0 0 400 400" xmlns="http://www.w3.org/2000/svg">
  <rect width="400" height="400" fill="white"/>
  <path d="M 84.0,280.0 L 85.3,278.4 L 87.7,277.6 L 89.0,276.1 L 91.0,275.6 L 93.0,274.6 L 97.3,270.6 L 99.9,270.9 L 100.7,271.4 L 102.8,271.5 L 105.2,271.2 L 112.4,264.9 L 114.3,262.5 L 115.7,257.4 L 117.0,255.8 L 117.2,254.2 L 119.9,250.2 L 121.4,249.1 L 123.2,248.9 L 126.9,246.0 L 128.2,243.3 L 133.4,239.0 L 133.6,238.7 L 134.9,236.7 L 135.7,230.6 L 136.8,229.1 L 137.4,226.7 L 139.1,224.7 L 140.1,225.3 L 141.5,223.5 L 143.4,224.2 L 144.3,226.3 L 145.6,226.1 L 146.1,225.2 L 147.6,219.5 L 146.7,218.0 L 147.7,215.5 L 147.7,213.7 L 146.1,212.7 L 147.5,210.6 L 148.0,210.2 L 150.6,209.0 L 150.9,206.4 L 153.5,204.1 L 156.8,204.1 L 158.5,201.9 L 161.9,201.1 L 164.2,201.4 L 166.9,199.7 L 168.3,196.4 L 170.5,191.4 L 173.8,186.7 L 175.6,185.2 L 177.7,185.8 L 179.3,188.4 L 181.0,189.0 L 182.4,188.8 L 184.1,186.9 L 184.5,184.3 L 188.3,180.7 L 188.8,179.1 L 190.6,177.1 L 192.2,174.9 L 192.4,173.6 L 194.5,171.0 L 194.6,169.9 L 193.8,170.0 L 192.1,170.9 L 191.7,170.4 L 192.6,167.4 L 195.2,164.3 L 196.4,162.2 L 198.3,159.8 L 198.7,157.9 L 199.9,155.6 L 200.9,155.3 L 201.7,155.8 L 203.5,154.1 L 205.9,152.2 L 207.4,149.5 L 207.4,147.8 L 207.0,146.1 L 208.3,142.8 L 210.3,141.5 L 212.9,141.8 L 215.7,146.0 L 217.6,147.8 L 218.0,148.5 L 218.3,150.8 L 219.7,152.3 L 222.5,152.5 L 225.2,150.4 L 226.7,147.8 L 229.1,145.9 L 231.6,144.4 L 233.0,142.0 L 236.8,133.4 L 239.0,130.6 L 240.7,131.3 L 242.0,130.8 L 243.5,128.8 L 245.2,127.2 L 246.2,124.8 L 247.9,123.0 L 249.9,121.9 L 252.7,119.2 L 254.7,116.0 L 262.7,108.0 L 264.6,105.1 L 266.3,102.0 L 267.5,98.4 L 270.5,95.8 L 273.3,95.0 L 275.7,95.1 L 276.4,94.4 L 276.5,93.0 L 275.0,91.1 L 274.6,88.3 L 274.7,86.4 L 272.4,80.7 L 272.5,79.9 L 274.6,80.4 L 278.9,83.0 L 282.0,85.8 L 283.0,85.5 L 289.0,78.6 L 290.9,73.1 L 297.9,62.1 L 299.5,58.8 L 305.1,50.5 L 307.1,43.0 L 308.2,41.6 L 309.5,40.0 L 310.4,40.3 L 313.0,42.3 L 314.6,43.4 L 316.2,43.0 L 317.9,44.0 L 319.3,44.7 L 319.2,45.5 L 315.2,51.7 L 314.5,53.6 L 313.7,55.0 L 312.7,58.0 L 309.7,61.1 L 307.0,64.7 L 301.7,68.4 L 297.5,75.1 L 294.9,77.7 L 291.3,82.7 L 289.2,85.1 L 286.2,89.3 L 285.7,91.6 L 287.4,93.6 L 291.2,94.9 L 292.1,96.5 L 291.9,99.3 L 290.5,100.5 L 278.6,102.9 L 276.4,103.9 L 273.9,106.6 L 267.9,115.1 L 265.8,115.9 L 263.8,117.0 L 263.0,118.6 L 260.4,119.8 L 255.5,122.7 L 250.1,125.0 L 247.0,128.2 L 243.5,132.8 L 242.8,134.7 L 242.2,138.1 L 240.1,143.0 L 238.7,145.6 L 235.1,149.1 L 233.1,153.3 L 231.7,156.6 L 228.2,161.2 L 227.2,163.7 L 226.4,164.5 L 224.4,164.7 L 223.0,165.4 L 221.7,166.3 L 220.7,167.5 L 219.8,169.1 L 219.2,170.4 L 211.9,176.4 L 207.6,180.7 L 206.7,183.3 L 198.8,189.7 L 196.5,190.5 L 193.4,193.9 L 190.6,197.7 L 187.7,203.0 L 186.7,205.6 L 186.0,209.0 L 186.1,210.4 L 186.6,211.0 L 187.8,212.1 L 188.5,213.3 L 185.3,215.9 L 184.8,218.8 L 186.5,218.2 L 186.9,216.4 L 188.5,215.9 L 189.1,216.0 L 189.6,216.6 L 192.4,214.6 L 193.6,213.2 L 196.4,213.3 L 201.1,210.0 L 203.1,210.2 L 205.0,211.1 L 207.6,211.3 L 213.6,209.3 L 215.7,209.1 L 217.7,207.3 L 218.8,205.8 L 219.5,203.8 L 220.4,203.3 L 223.2,204.1 L 229.4,200.3 L 230.8,198.9 L 231.1,196.1 L 230.2,190.1 L 232.0,188.3 L 232.9,187.9 L 234.6,189.1 L 236.0,189.7 L 238.0,191.1 L 240.3,193.2 L 242.4,194.4 L 247.7,194.8 L 252.8,194.7 L 242.5,197.0 L 243.4,198.0 L 243.5,199.2 L 242.4,201.0 L 243.5,202.7 L 243.5,204.5 L 244.6,205.9 L 244.3,209.7 L 243.5,210.9 L 237.9,211.2 L 236.0,212.3 L 235.6,213.1 L 238.2,213.5 L 238.4,215.7 L 237.7,217.4 L 234.5,219.9 L 228.3,220.5 L 228.0,220.5 L 224.7,221.8 L 219.6,221.8 L 219.0,221.7 L 217.5,219.5 L 216.4,219.4 L 208.5,224.5 L 196.3,234.3 L 194.2,237.5 L 193.8,239.3 L 194.9,240.9 L 195.0,242.3 L 193.5,244.1 L 192.6,245.3 L 193.3,246.1 L 194.9,245.9 L 196.8,244.4 L 197.6,243.7 L 198.5,244.1 L 198.3,244.6 L 198.0,245.8 L 196.7,247.6 L 195.6,248.6 L 194.5,250.2 L 194.7,252.2 L 196.7,252.5 L 197.0,253.0 L 196.1,255.5 L 196.5,258.7 L 196.0,261.9 L 196.6,263.5 L 190.9,268.3 L 190.4,269.6 L 192.9,275.0 L 194.6,277.4 L 194.9,279.9 L 194.4,283.0 L 192.9,284.5 L 190.8,287.3 L 189.9,290.8 L 188.8,291.9 L 188.3,293.9 L 188.8,295.4 L 188.8,297.2 L 187.9,298.7 L 185.1,301.8 L 184.7,303.9 L 187.4,307.6 L 186.6,312.7 L 183.8,315.7 L 182.1,318.2 L 179.5,321.2 L 179.9,324.7 L 179.9,327.6 L 179.4,328.5 L 178.5,328.6 L 176.0,327.5 L 174.4,326.4 L 171.9,323.5 L 170.6,323.1 L 169.1,322.6 L 167.9,323.5 L 162.4,329.9 L 159.7,330.4 L 158.0,331.5 L 155.8,334.7 L 155.8,334.8 L 153.4,337.0 L 152.9,340.8 L 151.5,342.8 L 150.6,343.3 L 149.3,345.1 L 149.3,348.0 L 149.9,351.7 L 150.2,353.9 L 151.0,354.9 L 153.9,356.3 L 153.9,356.4 L 155.4,357.9 L 155.4,359.7 L 154.3,360.0 L 153.6,359.4 L 151.9,357.8 L 149.9,356.5 L 149.6,354.0 L 148.1,355.1 L 147.1,358.4 L 146.4,358.2 L 146.9,355.9 L 145.1,354.3 L 143.0,356.9 L 142.8,357.3 L 128.4,353.5 L 128.8,349.0 L 129.8,346.2 L 130.2,344.1 L 130.7,343.1 L 130.8,340.9 L 133.8,333.3 L 133.0,331.0 L 133.2,329.7 L 135.6,327.1 L 136.4,323.7 L 136.3,323.2 L 134.9,322.4 L 134.8,321.4 L 133.4,320.2 L 132.1,321.5 L 131.0,323.6 L 130.0,326.1 L 127.3,329.3 L 126.1,329.8 L 126.6,326.6 L 128.9,322.0 L 129.5,319.9 L 131.5,317.5 L 132.5,317.4 L 134.2,315.8 L 133.9,313.4 L 134.8,312.9 L 135.9,313.0 L 135.7,311.6 L 137.4,310.3 L 137.9,306.8 L 136.6,306.3 L 135.9,305.5 L 137.6,303.5 L 138.3,301.8 L 138.1,300.7 L 137.3,299.9 L 138.0,299.1 L 139.4,300.5 L 140.2,299.9 L 141.3,297.8 L 140.7,296.4 L 142.6,293.3 L 144.0,289.8 L 143.8,288.4 L 142.4,287.3 L 140.0,287.9 L 138.4,288.7 L 137.0,289.1 L 135.1,290.1 L 131.8,294.7 L 131.2,297.8 L 130.2,300.1 L 128.0,302.6 L 131.2,305.3 L 131.7,306.9 L 132.7,307.5 L 133.7,306.7 L 134.5,305.7 L 135.1,306.1 L 133.9,308.8 L 134.4,310.9 L 134.3,311.7 L 133.3,309.3 L 132.6,308.5 L 129.2,307.6 L 126.8,308.5 L 124.6,308.5 L 122.9,308.1 L 121.1,308.6 L 118.8,310.6 L 118.5,313.1 L 114.1,315.5 L 114.9,316.5 L 114.3,317.4 L 112.5,317.6 L 110.9,315.3 L 108.0,315.0 L 108.5,313.2 L 108.2,312.1 L 108.6,309.3 L 105.6,307.8 L 103.6,307.2 L 101.8,308.3 L 99.9,308.1 L 100.7,307.3 L 101.3,305.8 L 98.3,305.0 L 97.0,306.6 L 92.6,308.2 L 90.1,308.3 L 87.5,310.1 L 86.6,312.7 L 85.4,313.6 L 84.2,309.4 L 83.5,308.7 L 84.8,306.7 L 85.0,304.9 L 84.5,304.2 L 83.1,306.2 L 80.7,299.4 L 84.6,291.6 L 85.5,285.3 L 85.1,283.7 L 84.2,282.1 L 84.0,280.0" fill="none" stroke="black" stroke-width="2"/>
</svg>