<?xml version="1.0" encoding="UTF-8"?>
<svg width="400" height="400" viewBox="0 0 400 400" xmlns="http://www.w3.org/2000/svg">
  <rect width="400" height="400" fill="white"/>
  <path d="M 160.2,196.0 L 159.6,196.7 L 159.2,196.8 L 158.6,197.4 L 157.1,196.8 L 156.0,197.6 L 155.8,198.3 L 155.0,199.6 L 155.1,200.6 L 155.5,201.3 L 155.2,201.8 L 155.5,202.2 L 155.6,202.6 L 154.0,204.5 L 154.1,205.1 L 154.9,206.1 L 155.1,206.6 L 154.8,207.9 L 153.6,210.0 L 153.7,210.7 L 154.3,211.7 L 154.3,212.4 L 153.6,213.0 L 153.4,213.5 L 154.7,215.1 L 154.8,215.9 L 156.0,216.8 L 156.8,216.8 L 156.7,217.5 L 157.4,218.0 L 158.7,217.9 L 160.2,217.4 L 162.6,217.0 L 163.4,216.3 L 165.3,216.2 L 165.9,215.9 L 167.3,216.4 L 168.9,216.1 L 170.4,216.0 L 171.2,215.6 L 171.9,215.6 L 172.4,215.3 L 173.3,213.5 L 173.9,212.9 L 174.5,213.1 L 175.4,214.0 L 176.8,214.1 L 179.1,213.1 L 180.4,211.6 L 180.8,211.4 L 182.8,211.7 L 183.4,211.5 L 185.7,211.7 L 186.1,211.7 L 187.2,211.6 L 187.9,210.8 L 188.5,209.6 L 190.1,207.7 L 190.6,207.3 L 191.2,207.4 L 191.6,206.8 L 193.4,205.7 L 196.5,205.3 L 197.1,205.6 L 197.3,205.7 L 197.8,205.5 L 199.6,204.1 L 200.8,204.0 L 204.1,202.8 L 205.8,202.9 L 208.0,204.3 L 209.6,206.0 L 210.2,207.1 L 211.1,208.1 L 213.3,208.2 L 215.1,207.3 L 216.6,207.0 L 217.7,207.0 L 220.0,207.3 L 221.0,206.9 L 222.5,205.3 L 223.8,204.6 L 224.6,204.5 L 226.0,205.1 L 226.9,204.8 L 227.2,205.0 L 228.6,204.7 L 229.9,204.6 L 230.5,204.1 L 231.7,203.6 L 232.1,203.7 L 232.7,204.3 L 232.7,204.9 L 232.1,206.2 L 232.5,206.5 L 233.4,206.6 L 234.6,205.8 L 235.5,204.8 L 236.2,204.7 L 237.1,204.0 L 237.9,203.8 L 239.3,204.1 L 240.1,203.5 L 240.7,202.7 L 241.7,202.3 L 243.6,201.2 L 244.5,201.1 L 245.2,201.3 L 246.1,201.8 L 246.7,201.8 L 248.1,200.7 L 250.1,199.3 L 252.9,198.1 L 253.9,198.0 L 254.5,197.4 L 254.6,197.0 L 255.1,196.1 L 255.4,195.3 L 255.2,192.8 L 255.2,192.7 L 255.3,192.1 L 255.1,191.7 L 255.2,190.6 L 255.5,190.5 L 255.1,190.1 L 255.5,189.3 L 256.0,188.9 L 256.5,188.4 L 257.7,187.5 L 259.1,187.0 L 261.9,187.3 L 262.3,186.8 L 261.5,185.3 L 261.7,185.1 L 261.4,184.8 L 261.0,184.9 L 260.7,184.5 L 261.0,183.3 L 260.9,181.5 L 259.4,178.9 L 258.4,178.4 L 257.6,178.1 L 255.6,177.7 L 255.2,177.6 L 254.4,177.2 L 253.7,175.8 L 253.5,175.4 L 253.1,174.8 L 252.6,173.3 L 252.8,172.1 L 253.2,171.3 L 253.4,169.6 L 253.3,168.2 L 252.7,166.5 L 251.8,164.2 L 251.2,163.2 L 249.9,160.0 L 248.4,157.5 L 246.8,152.8 L 247.7,148.7 L 248.0,148.2 L 248.1,146.7 L 248.0,144.2 L 247.6,143.5 L 247.2,143.1 L 245.7,142.0 L 244.7,141.7 L 243.4,140.7 L 241.5,140.7 L 240.6,141.0 L 239.0,141.0 L 237.3,140.6 L 236.8,140.2 L 233.5,138.9 L 230.6,137.9 L 230.0,138.4 L 230.1,137.2 L 229.1,136.7 L 228.6,136.4 L 227.7,135.4 L 227.9,134.9 L 228.3,134.7 L 229.0,133.5 L 228.7,133.2 L 229.4,132.9 L 230.4,132.1 L 231.7,131.5 L 232.1,131.0 L 233.0,130.0 L 233.3,128.9 L 234.5,126.3 L 234.8,124.9 L 235.0,123.7 L 234.7,122.3 L 234.3,121.8 L 232.7,121.4 L 231.7,120.8 L 229.3,119.8 L 228.2,120.0 L 227.5,120.0 L 226.4,118.8 L 226.1,117.9 L 226.3,117.1 L 229.1,114.8 L 229.8,113.1 L 230.1,111.9 L 230.1,111.4 L 229.5,110.0 L 229.0,108.4 L 229.0,107.7 L 227.6,102.5 L 228.1,101.0 L 229.7,99.7 L 231.3,99.7 L 231.9,100.0 L 232.3,100.2 L 232.5,100.6 L 232.7,101.1 L 233.1,101.6 L 234.0,101.8 L 235.1,102.6 L 235.8,103.0 L 236.3,103.0 L 236.9,102.5 L 237.0,101.9 L 236.3,101.2 L 236.5,100.4 L 237.6,99.5 L 238.2,99.2 L 238.5,98.5 L 239.0,97.7 L 238.2,94.8 L 237.8,92.0 L 237.1,89.3 L 236.5,88.4 L 235.6,86.4 L 235.7,85.7 L 235.9,84.6 L 236.3,84.2 L 237.0,83.6 L 238.1,82.9 L 238.8,83.0 L 239.1,82.7 L 239.2,82.3 L 242.2,82.7 L 244.4,83.2 L 245.7,83.8 L 246.7,85.2 L 247.0,85.5 L 247.0,87.1 L 246.9,88.1 L 247.1,88.5 L 247.7,88.5 L 247.9,87.9 L 248.6,88.0 L 249.0,88.3 L 251.8,88.5 L 252.2,89.1 L 252.9,89.1 L 253.4,88.7 L 253.9,88.1 L 254.6,85.9 L 255.1,84.4 L 254.8,82.6 L 254.4,82.0 L 254.2,81.1 L 254.1,80.9 L 261.0,81.1 L 261.9,84.0 L 262.2,86.6 L 262.5,89.2 L 262.1,90.8 L 262.1,92.0 L 262.4,94.3 L 262.7,95.3 L 262.3,98.8 L 262.5,100.0 L 262.3,101.7 L 262.4,102.1 L 263.0,103.3 L 263.2,104.5 L 264.1,105.6 L 263.0,107.3 L 262.5,108.3 L 262.6,109.0 L 263.4,110.1 L 263.8,110.0 L 264.0,109.6 L 264.7,109.7 L 264.9,110.0 L 265.6,110.6 L 267.3,111.6 L 267.7,112.1 L 268.1,113.0 L 268.5,113.5 L 269.3,113.5 L 270.3,112.5 L 270.7,113.7 L 269.7,115.0 L 269.5,115.5 L 269.8,116.3 L 271.0,116.8 L 271.8,117.8 L 272.2,118.7 L 274.2,121.2 L 274.0,123.0 L 274.4,123.6 L 275.1,124.8 L 275.4,126.5 L 275.7,127.8 L 276.0,130.6 L 275.7,134.4 L 275.9,135.7 L 276.0,136.2 L 276.2,138.7 L 276.7,140.3 L 277.9,142.3 L 278.1,143.3 L 278.2,146.8 L 277.6,150.0 L 277.7,151.2 L 277.6,152.6 L 275.9,157.0 L 275.4,159.7 L 276.1,160.0 L 277.0,160.5 L 281.1,165.0 L 281.9,165.6 L 282.9,166.6 L 283.2,167.5 L 283.2,168.4 L 283.3,168.9 L 283.2,169.3 L 284.4,170.7 L 285.0,171.8 L 285.5,174.4 L 285.6,177.2 L 286.1,179.5 L 287.2,181.9 L 288.8,185.5 L 292.5,191.7 L 293.7,193.4 L 294.4,194.2 L 294.8,194.6 L 296.0,195.5 L 296.8,196.5 L 296.9,196.5 L 298.0,199.0 L 299.5,203.4 L 299.2,203.8 L 299.2,204.4 L 299.6,204.3 L 301.0,205.0 L 302.5,206.2 L 305.3,207.8 L 307.0,209.5 L 308.4,210.0 L 309.2,210.5 L 309.9,211.4 L 310.8,212.2 L 311.2,212.7 L 311.1,215.0 L 312.5,218.3 L 314.5,220.4 L 315.4,220.4 L 315.7,220.5 L 315.6,222.0 L 316.8,222.2 L 317.0,222.8 L 316.9,223.7 L 317.4,224.2 L 318.0,224.8 L 320.8,225.2 L 321.6,225.7 L 322.1,227.5 L 323.5,229.0 L 325.0,230.0 L 325.8,230.3 L 327.1,230.3 L 328.3,230.6 L 330.2,231.7 L 331.9,232.3 L 333.2,232.5 L 334.6,232.6 L 336.6,232.2 L 337.5,232.1 L 350.0,233.8 L 351.9,233.6 L 352.9,233.2 L 354.1,234.0 L 354.6,234.2 L 355.3,235.0 L 356.9,236.0 L 357.6,236.6 L 359.6,239.7 L 360.0,240.7 L 359.8,242.2 L 359.3,243.7 L 359.0,243.6 L 358.6,243.8 L 357.4,245.5 L 356.5,246.1 L 355.8,246.1 L 353.7,244.7 L 351.2,242.5 L 350.3,242.2 L 349.1,242.0 L 346.9,240.8 L 344.2,240.4 L 342.9,239.6 L 341.5,239.3 L 338.5,239.1 L 336.8,238.9 L 336.0,238.7 L 332.8,237.3 L 332.6,237.2 L 330.4,235.8 L 329.1,235.7 L 325.9,235.8 L 320.2,236.8 L 319.4,237.1 L 318.0,238.0 L 316.0,237.7 L 315.2,238.2 L 314.1,238.5 L 313.2,239.2 L 312.8,240.3 L 312.0,241.5 L 311.3,242.9 L 311.4,243.5 L 311.0,244.7 L 311.2,246.4 L 311.7,247.1 L 312.5,247.3 L 313.5,247.2 L 315.8,250.1 L 315.3,250.9 L 315.8,252.2 L 318.1,254.3 L 320.2,255.9 L 321.5,256.4 L 325.2,259.1 L 327.9,260.2 L 329.5,260.4 L 329.9,260.4 L 331.0,259.8 L 332.7,259.8 L 333.5,259.6 L 334.3,259.0 L 337.5,258.8 L 340.4,259.4 L 342.5,259.9 L 344.8,261.3 L 346.1,263.2 L 345.9,264.4 L 345.4,264.9 L 345.3,265.4 L 345.4,265.6 L 346.6,266.2 L 347.1,266.6 L 347.0,267.5 L 346.4,268.8 L 345.7,269.4 L 344.6,269.7 L 342.9,268.1 L 341.2,267.7 L 340.1,267.9 L 338.4,267.7 L 337.1,267.1 L 336.1,266.4 L 334.7,265.9 L 333.4,265.0 L 332.7,264.7 L 331.0,263.8 L 329.1,263.1 L 326.9,262.3 L 323.8,262.2 L 322.4,262.5 L 322.0,262.8 L 321.8,263.7 L 321.1,264.5 L 320.4,265.0 L 319.6,264.2 L 319.0,264.0 L 318.3,264.6 L 318.4,265.2 L 318.3,267.0 L 318.6,267.8 L 318.5,268.5 L 317.9,269.8 L 317.4,270.2 L 315.4,270.3 L 314.7,270.5 L 313.4,271.6 L 313.2,272.3 L 313.4,273.5 L 314.1,274.4 L 314.8,275.0 L 316.0,276.2 L 316.9,278.0 L 316.9,278.7 L 317.7,280.6 L 318.7,284.5 L 319.0,287.0 L 319.4,287.9 L 320.0,291.1 L 320.7,292.1 L 320.9,292.4 L 320.6,295.0 L 320.0,296.0 L 319.7,297.9 L 317.1,298.8 L 316.3,299.3 L 315.9,300.1 L 316.2,300.7 L 316.2,301.2 L 315.0,302.1 L 313.9,302.9 L 312.8,303.9 L 312.5,305.1 L 312.5,306.6 L 312.8,307.9 L 313.8,309.4 L 314.9,310.5 L 315.6,311.0 L 316.5,311.3 L 318.7,312.7 L 320.5,314.0 L 320.8,314.6 L 320.4,316.3 L 319.9,317.2 L 319.5,317.8 L 317.1,319.1 L 315.4,318.9 L 313.3,318.2 L 312.2,317.0 L 310.1,313.4 L 308.3,310.5 L 306.1,307.7 L 305.3,306.4 L 304.4,305.3 L 304.3,304.4 L 304.5,303.0 L 303.0,300.0 L 302.4,297.9 L 302.5,294.9 L 302.9,291.9 L 302.4,290.6 L 302.2,289.8 L 301.5,287.4 L 300.7,286.1 L 299.7,285.0 L 299.2,283.7 L 299.1,283.6 L 297.1,280.8 L 296.6,279.5 L 294.8,277.6 L 294.5,276.8 L 294.5,276.8 L 294.5,276.7 L 294.1,275.8 L 293.8,273.7 L 293.8,272.2 L 294.0,270.1 L 294.2,267.4 L 292.8,265.5 L 292.7,264.0 L 292.8,262.1 L 291.9,260.4 L 291.3,260.0 L 289.4,260.0 L 288.6,260.2 L 288.5,260.1 L 287.2,258.6 L 285.7,257.8 L 285.1,257.8 L 284.3,257.8 L 283.2,256.7 L 282.2,256.1 L 281.3,255.8 L 280.1,254.9 L 279.3,254.3 L 277.4,254.2 L 276.1,254.7 L 275.5,254.8 L 273.3,254.0 L 272.5,253.3 L 272.0,252.4 L 271.9,251.2 L 271.5,250.5 L 270.5,249.7 L 269.6,249.5 L 267.8,248.6 L 265.6,248.0 L 263.4,247.7 L 258.8,248.2 L 257.2,248.9 L 256.0,249.1 L 253.7,248.8 L 252.2,249.2 L 251.3,250.2 L 251.1,251.1 L 252.0,252.0 L 251.9,252.8 L 251.7,253.1 L 251.2,253.5 L 250.3,253.9 L 250.3,253.9 L 250.1,253.9 L 247.8,253.8 L 246.5,253.3 L 245.7,253.4 L 244.0,253.4 L 243.6,253.3 L 242.7,253.3 L 241.0,253.6 L 240.4,254.1 L 239.6,254.3 L 230.4,253.5 L 228.4,252.9 L 227.1,252.2 L 226.0,251.9 L 225.1,252.3 L 219.2,252.6 L 214.1,251.8 L 211.8,251.1 L 211.1,251.0 L 209.2,251.0 L 206.4,252.2 L 203.7,251.8 L 202.8,251.1 L 201.7,250.8 L 199.5,250.7 L 196.7,251.4 L 196.1,251.8 L 195.3,251.4 L 195.3,251.4 L 194.6,251.2 L 193.8,250.7 L 192.4,250.3 L 191.0,250.0 L 190.4,250.1 L 188.4,249.8 L 185.4,249.6 L 184.3,249.7 L 182.1,249.7 L 180.0,250.0 L 178.7,249.8 L 176.8,248.8 L 175.0,248.5 L 172.6,248.0 L 171.1,248.2 L 167.8,248.1 L 164.0,248.5 L 161.8,249.0 L 159.1,249.5 L 158.2,249.8 L 153.8,251.7 L 151.6,251.2 L 148.9,251.4 L 147.6,251.9 L 146.1,251.7 L 145.2,251.4 L 143.5,251.6 L 140.9,251.5 L 140.4,251.7 L 139.8,251.7 L 139.5,251.3 L 138.8,251.9 L 138.3,253.4 L 137.2,254.2 L 136.6,254.2 L 134.6,253.4 L 130.3,253.6 L 128.1,254.8 L 123.5,256.7 L 122.7,256.2 L 122.0,256.1 L 121.2,257.4 L 119.5,258.5 L 114.6,257.8 L 113.6,257.5 L 113.0,257.8 L 112.0,258.2 L 109.7,257.9 L 109.2,257.5 L 108.5,257.4 L 106.6,257.6 L 104.9,258.2 L 104.1,258.2 L 103.8,257.9 L 103.5,257.4 L 102.6,257.1 L 101.5,258.0 L 100.5,258.3 L 99.9,258.2 L 98.9,257.3 L 97.9,256.5 L 97.1,256.3 L 95.9,256.1 L 95.7,256.1 L 95.1,256.3 L 93.4,256.2 L 93.0,255.7 L 92.7,254.7 L 90.0,254.4 L 89.0,255.2 L 88.1,255.7 L 87.6,256.1 L 86.4,256.0 L 85.1,255.4 L 82.0,254.8 L 81.5,254.6 L 80.9,254.1 L 80.6,253.7 L 79.7,252.3 L 77.2,251.8 L 75.0,251.0 L 74.1,251.5 L 73.3,251.9 L 72.8,252.1 L 72.0,252.5 L 71.2,252.2 L 70.7,251.9 L 69.8,252.0 L 69.3,251.5 L 68.8,251.2 L 68.5,250.1 L 68.8,249.3 L 66.9,248.4 L 64.0,246.4 L 63.6,246.5 L 62.6,247.2 L 61.3,246.9 L 60.7,246.2 L 60.5,245.5 L 59.1,244.1 L 57.8,243.5 L 55.0,242.5 L 52.0,241.9 L 51.2,242.4 L 49.6,242.3 L 48.7,242.4 L 48.0,242.4 L 47.0,241.3 L 44.1,240.0 L 42.8,239.8 L 42.2,239.8 L 40.4,239.0 L 40.0,238.9 L 45.1,215.3 L 46.4,215.5 L 46.6,216.0 L 47.2,216.8 L 48.7,217.2 L 49.2,217.6 L 51.1,217.7 L 51.6,217.6 L 51.9,217.8 L 55.1,218.2 L 56.7,218.2 L 57.5,218.1 L 61.2,218.4 L 61.9,218.3 L 63.7,218.4 L 64.9,217.9 L 65.7,217.8 L 66.4,218.3 L 68.3,218.7 L 69.3,219.3 L 69.6,219.7 L 69.6,220.4 L 70.0,221.1 L 71.2,221.4 L 72.4,221.1 L 74.1,221.7 L 75.5,223.0 L 77.0,223.4 L 77.2,223.7 L 78.2,224.0 L 80.0,224.4 L 81.7,225.1 L 82.6,225.1 L 82.9,224.7 L 82.5,223.9 L 81.7,223.1 L 81.7,222.5 L 81.4,222.0 L 81.9,221.1 L 82.5,220.9 L 83.6,221.0 L 85.4,221.3 L 86.2,221.8 L 86.6,221.8 L 87.0,220.6 L 88.1,219.6 L 89.2,219.2 L 89.8,219.4 L 91.7,221.2 L 93.0,221.9 L 95.6,222.6 L 98.6,223.1 L 99.3,223.0 L 100.3,223.0 L 100.5,224.1 L 101.6,224.4 L 103.5,224.6 L 104.4,224.2 L 105.2,224.1 L 106.7,223.6 L 107.4,223.3 L 107.8,222.2 L 109.2,221.8 L 109.8,221.1 L 110.4,221.0 L 110.9,222.2 L 111.9,221.5 L 111.8,220.8 L 112.5,220.3 L 113.7,219.9 L 114.0,219.4 L 114.4,219.1 L 115.2,217.7 L 116.4,216.3 L 116.6,216.7 L 117.6,216.6 L 119.4,216.8 L 119.8,217.2 L 120.2,218.0 L 121.2,219.3 L 121.7,219.9 L 122.4,219.7 L 123.1,219.7 L 123.6,220.3 L 125.9,219.6 L 127.8,219.5 L 128.3,219.1 L 128.5,218.8 L 130.1,218.9 L 132.3,218.0 L 133.2,216.6 L 133.4,216.5 L 135.0,215.6 L 136.3,213.9 L 138.0,211.3 L 139.2,208.9 L 140.9,205.9 L 142.0,203.8 L 142.4,202.1 L 142.8,200.9 L 143.4,200.8 L 143.9,200.7 L 144.4,200.2 L 144.2,197.6 L 144.4,196.0 L 145.5,194.7 L 146.3,194.3 L 147.8,194.6 L 148.3,194.9 L 150.0,194.3 L 150.8,194.5 L 151.2,194.9 L 152.0,194.7 L 153.1,193.5 L 153.9,192.2 L 154.3,192.0 L 155.0,191.2 L 155.9,189.5 L 155.9,188.8 L 155.9,188.6 L 157.5,189.3 L 159.9,190.5 L 159.2,191.4 L 158.9,191.9 L 159.8,194.0 L 160.2,196.0" fill="none" stroke="black" stroke-width="2"/>
</svg>