<?xml version="1.0" encoding="UTF-8"?>
<svg width="400" height="400" viewBox="0 0 400 400" xmlns="http://www.w3.org/2000/svg">
  <rect width="400" height="400" fill="white"/>
  <path d="M 175.6,195.4 L 176.5,194.4 L 177.0,193.4 L 177.5,191.0 L 178.7,189.4 L 179.7,184.3 L 178.9,183.3 L 177.5,183.1 L 177.0,185.6 L 176.4,187.4 L 176.3,187.4 L 175.1,188.3 L 173.6,188.8 L 172.3,190.3 L 171.4,192.2 L 170.4,193.5 L 169.2,193.8 L 167.2,193.7 L 165.6,192.9 L 163.4,192.6 L 161.1,193.2 L 160.4,193.3 L 159.9,192.1 L 159.8,191.0 L 158.3,190.6 L 157.6,191.8 L 156.8,193.6 L 155.5,194.9 L 154.4,194.9 L 153.6,195.5 L 152.9,198.0 L 151.2,200.4 L 150.1,203.0 L 149.1,204.1 L 147.7,208.0 L 146.7,209.2 L 145.2,214.0 L 144.2,216.1 L 143.0,216.6 L 140.3,223.0 L 137.6,232.7 L 137.8,234.2 L 137.4,237.0 L 135.9,238.6 L 134.6,243.8 L 132.7,246.7 L 132.0,249.4 L 130.8,252.2 L 130.1,255.9 L 129.1,259.7 L 127.4,262.1 L 126.0,265.9 L 122.8,272.1 L 120.1,279.2 L 118.6,282.2 L 118.2,284.1 L 118.4,285.7 L 117.5,288.5 L 116.7,290.0 L 116.1,292.5 L 115.5,293.2 L 116.5,296.7 L 116.9,296.9 L 117.6,296.3 L 118.4,296.2 L 119.7,297.5 L 120.9,297.2 L 122.1,296.2 L 122.2,295.5 L 124.7,294.9 L 127.1,295.2 L 127.7,296.0 L 127.8,296.8 L 128.7,299.6 L 128.2,303.1 L 126.5,305.6 L 123.9,308.3 L 121.6,313.2 L 121.3,315.0 L 120.1,317.0 L 119.4,322.2 L 119.8,323.6 L 119.6,326.4 L 118.1,330.6 L 116.1,332.9 L 114.7,341.4 L 115.8,345.5 L 115.9,350.3 L 116.3,351.5 L 116.4,353.3 L 116.5,354.1 L 116.0,355.0 L 115.4,358.1 L 115.8,359.2 L 115.2,360.0 L 101.7,359.4 L 102.4,358.3 L 103.0,353.3 L 104.4,353.3 L 104.8,352.3 L 104.9,352.0 L 106.0,351.2 L 105.3,350.3 L 104.6,350.0 L 104.4,349.3 L 104.7,346.7 L 104.6,344.9 L 105.2,343.7 L 104.9,342.5 L 104.2,342.2 L 103.4,342.5 L 101.6,342.4 L 100.9,342.8 L 99.3,344.3 L 97.4,343.3 L 94.5,345.6 L 93.8,346.7 L 92.6,347.2 L 90.7,348.7 L 89.0,350.7 L 88.8,350.8 L 86.7,353.0 L 72.4,344.3 L 75.1,342.4 L 76.4,338.2 L 78.0,338.0 L 79.6,336.8 L 80.6,337.8 L 81.0,337.5 L 82.5,330.7 L 83.7,329.9 L 85.0,330.8 L 85.9,329.8 L 87.5,323.8 L 87.2,322.2 L 86.4,321.4 L 86.5,320.1 L 87.5,317.4 L 88.2,311.8 L 88.9,312.1 L 89.4,314.0 L 90.2,313.9 L 90.7,313.3 L 90.9,311.1 L 90.2,309.7 L 90.6,308.1 L 91.4,307.6 L 92.2,308.5 L 92.3,310.7 L 95.2,309.7 L 97.2,309.2 L 99.2,306.5 L 99.9,306.3 L 100.8,305.6 L 101.5,303.1 L 101.3,302.0 L 100.6,301.7 L 99.0,301.7 L 99.8,299.9 L 101.1,298.4 L 103.1,296.8 L 103.4,294.5 L 102.6,293.5 L 101.7,293.9 L 99.3,294.8 L 97.3,294.9 L 95.7,296.5 L 94.4,298.5 L 92.5,298.5 L 91.6,299.5 L 90.9,301.2 L 90.0,301.5 L 90.4,299.4 L 92.4,297.2 L 94.0,296.1 L 95.8,292.5 L 96.5,290.0 L 97.5,287.9 L 96.9,287.3 L 96.0,286.8 L 96.6,285.8 L 98.9,283.7 L 100.0,281.9 L 100.5,280.0 L 101.7,277.4 L 102.4,276.7 L 104.4,274.6 L 106.5,272.5 L 109.9,270.0 L 112.5,269.2 L 112.8,269.7 L 111.0,272.4 L 108.3,274.2 L 107.3,277.6 L 108.9,277.7 L 110.3,276.8 L 111.5,275.4 L 114.6,274.6 L 115.9,273.2 L 117.6,270.3 L 119.8,267.9 L 119.9,265.5 L 119.2,265.0 L 118.5,265.1 L 120.2,262.3 L 120.9,261.5 L 121.3,259.6 L 120.9,258.4 L 119.9,258.6 L 117.8,258.0 L 113.4,261.2 L 110.3,266.2 L 109.2,266.6 L 109.1,264.9 L 111.1,262.2 L 112.1,260.1 L 114.4,258.6 L 116.2,256.4 L 116.7,253.9 L 116.0,253.8 L 114.8,254.0 L 114.4,252.7 L 112.6,253.2 L 109.1,256.8 L 110.2,258.0 L 110.0,259.1 L 106.0,263.0 L 105.7,263.7 L 104.0,265.9 L 102.5,268.4 L 97.9,273.4 L 96.2,275.9 L 95.7,278.2 L 94.5,279.3 L 93.7,280.7 L 93.1,280.8 L 92.7,278.9 L 91.5,277.6 L 90.0,277.2 L 88.1,279.9 L 86.6,279.9 L 86.2,279.1 L 87.1,276.1 L 87.8,274.9 L 88.7,273.6 L 90.3,272.1 L 90.9,269.9 L 90.7,268.8 L 90.9,267.6 L 93.3,264.9 L 93.7,263.7 L 94.4,262.5 L 93.3,261.0 L 93.3,259.5 L 92.5,257.0 L 93.0,254.0 L 94.7,250.4 L 96.6,248.0 L 99.0,243.1 L 99.2,240.9 L 98.6,238.4 L 99.3,236.6 L 100.4,235.3 L 102.6,235.1 L 102.8,233.6 L 102.6,232.9 L 102.7,229.6 L 103.5,227.4 L 104.2,223.1 L 102.7,221.2 L 102.4,219.5 L 103.0,215.2 L 102.6,213.9 L 101.4,213.8 L 99.0,214.9 L 97.3,214.5 L 96.8,213.0 L 96.2,208.8 L 96.9,203.0 L 98.1,200.0 L 96.8,198.7 L 96.6,197.2 L 96.9,192.1 L 96.6,189.4 L 94.5,187.5 L 94.0,185.5 L 93.1,182.8 L 93.1,180.2 L 93.7,178.3 L 92.7,177.6 L 94.5,175.0 L 95.0,173.2 L 93.0,172.6 L 93.5,169.2 L 94.4,166.5 L 95.1,162.9 L 96.3,161.4 L 98.0,161.1 L 99.6,159.8 L 101.0,158.4 L 101.5,156.7 L 102.8,155.4 L 105.5,153.8 L 106.8,152.1 L 111.0,150.1 L 112.6,147.9 L 113.4,148.2 L 113.9,150.1 L 115.4,150.3 L 117.7,148.8 L 122.2,147.2 L 125.9,143.8 L 126.7,142.3 L 127.1,142.0 L 127.7,141.9 L 130.0,134.4 L 130.6,133.5 L 134.3,127.4 L 136.4,124.6 L 137.9,122.7 L 139.2,122.9 L 140.2,123.4 L 141.1,123.2 L 141.4,122.3 L 142.5,121.7 L 144.8,121.3 L 147.1,119.6 L 149.5,115.8 L 150.0,114.6 L 152.1,113.2 L 154.3,112.6 L 155.8,111.5 L 156.5,110.7 L 157.6,110.7 L 157.7,108.2 L 156.2,107.9 L 155.4,106.5 L 156.0,103.6 L 159.5,100.7 L 160.1,99.5 L 161.2,96.7 L 162.0,96.3 L 163.1,96.8 L 163.6,97.6 L 164.3,97.1 L 164.8,96.1 L 166.4,96.5 L 166.4,97.6 L 167.1,98.6 L 168.0,98.6 L 168.8,96.5 L 170.7,95.1 L 171.0,94.2 L 171.7,93.5 L 171.6,93.0 L 170.2,91.8 L 170.5,91.1 L 171.8,90.0 L 174.3,89.5 L 176.2,89.9 L 177.6,91.0 L 178.3,91.0 L 180.7,88.7 L 181.8,88.8 L 183.7,90.4 L 184.2,91.6 L 184.9,92.1 L 185.0,92.1 L 187.2,92.0 L 190.3,91.3 L 191.7,90.5 L 194.5,90.4 L 198.2,87.6 L 199.2,86.1 L 199.8,83.2 L 200.7,83.5 L 201.1,84.0 L 201.8,83.3 L 201.7,82.5 L 200.8,81.3 L 200.6,80.1 L 204.9,76.9 L 209.1,74.7 L 213.8,71.6 L 214.9,70.3 L 216.5,69.7 L 216.7,68.1 L 217.4,67.1 L 217.5,65.2 L 216.3,64.3 L 216.4,63.2 L 217.7,61.8 L 218.8,62.1 L 219.5,62.8 L 220.2,62.7 L 221.0,60.2 L 223.4,58.3 L 224.4,56.8 L 225.1,53.2 L 226.0,51.6 L 226.7,48.4 L 228.8,46.1 L 230.7,45.1 L 234.8,44.5 L 238.4,44.7 L 240.6,45.3 L 241.4,46.7 L 242.7,48.7 L 243.4,50.6 L 243.3,54.0 L 244.9,55.6 L 244.9,56.7 L 243.9,58.8 L 242.2,63.1 L 242.2,65.3 L 242.7,67.7 L 245.4,74.7 L 246.4,75.6 L 248.6,75.7 L 253.3,73.8 L 260.4,68.1 L 263.6,66.7 L 269.4,63.0 L 273.9,59.2 L 281.0,56.1 L 285.4,53.4 L 288.5,52.4 L 291.5,52.4 L 295.5,51.7 L 299.2,51.3 L 303.5,51.7 L 306.6,50.6 L 310.5,50.1 L 313.6,48.6 L 320.3,43.8 L 321.8,42.0 L 322.1,41.5 L 323.9,40.6 L 325.7,40.0 L 327.5,45.4 L 327.6,45.6 L 325.4,46.0 L 321.3,47.3 L 314.3,50.4 L 309.2,53.8 L 304.3,56.6 L 300.1,58.3 L 293.7,60.5 L 292.1,61.6 L 289.2,64.9 L 278.4,70.6 L 274.7,73.4 L 272.3,75.5 L 270.2,76.5 L 268.9,77.8 L 263.0,82.3 L 260.9,84.4 L 253.2,90.6 L 252.9,91.5 L 253.4,92.3 L 254.6,92.1 L 260.1,90.3 L 262.2,89.9 L 267.9,86.2 L 268.8,86.5 L 268.4,87.9 L 264.0,92.2 L 263.4,93.4 L 264.2,95.6 L 264.0,97.3 L 262.6,97.8 L 262.3,98.9 L 262.8,100.4 L 263.9,100.5 L 265.4,99.9 L 265.3,99.1 L 264.9,98.4 L 265.7,97.9 L 267.0,98.5 L 268.3,99.4 L 271.2,98.3 L 272.5,98.7 L 275.4,100.4 L 278.2,101.3 L 283.5,101.9 L 285.8,101.3 L 288.0,101.2 L 291.7,98.8 L 292.9,98.5 L 294.2,99.5 L 295.2,103.3 L 295.8,104.3 L 295.0,106.8 L 292.7,108.9 L 291.3,111.5 L 290.1,113.9 L 263.5,176.5 L 263.2,175.6 L 262.5,175.1 L 261.5,175.9 L 259.9,178.2 L 259.3,180.0 L 259.8,181.2 L 258.5,184.1 L 256.7,186.8 L 255.6,193.4 L 255.5,196.3 L 256.0,198.6 L 257.9,203.3 L 258.1,205.8 L 259.0,208.5 L 259.0,210.2 L 258.2,211.7 L 257.1,211.4 L 256.3,211.7 L 255.0,213.7 L 254.5,215.7 L 255.5,216.5 L 258.7,217.0 L 259.4,217.7 L 259.5,218.4 L 257.2,218.7 L 256.6,219.6 L 258.0,220.9 L 258.4,222.2 L 257.3,224.6 L 257.5,225.1 L 257.4,225.2 L 152.0,332.2 L 151.3,333.0 L 150.9,332.0 L 151.9,329.6 L 150.7,329.1 L 149.3,330.3 L 147.7,329.4 L 146.9,329.6 L 143.7,327.3 L 141.9,324.3 L 141.8,322.4 L 144.7,318.6 L 144.8,317.3 L 144.3,316.7 L 145.3,314.6 L 146.2,313.6 L 147.3,313.7 L 148.6,312.4 L 149.6,310.4 L 151.9,308.5 L 153.9,306.4 L 156.4,304.3 L 156.8,301.2 L 157.7,298.9 L 157.1,298.1 L 155.8,296.9 L 156.0,295.5 L 157.1,294.6 L 157.2,293.1 L 155.5,288.0 L 156.3,285.9 L 156.4,284.3 L 156.4,280.2 L 155.9,279.6 L 156.1,278.6 L 158.2,276.7 L 158.4,275.1 L 160.5,271.9 L 161.0,271.9 L 161.8,273.5 L 163.4,273.9 L 167.6,276.7 L 168.2,277.4 L 169.5,278.9 L 170.3,278.8 L 171.0,277.8 L 171.7,275.1 L 173.3,272.1 L 174.2,271.9 L 174.9,271.3 L 175.5,272.1 L 178.7,271.6 L 180.2,270.6 L 180.1,269.4 L 178.8,266.6 L 177.5,265.5 L 176.2,265.6 L 174.4,266.4 L 173.2,266.0 L 173.0,264.9 L 173.8,262.8 L 175.9,259.6 L 175.6,259.2 L 173.2,260.3 L 172.7,260.0 L 174.2,256.5 L 173.8,256.1 L 172.2,257.2 L 170.1,256.2 L 170.1,256.1 L 169.6,254.9 L 169.2,252.9 L 170.6,250.7 L 170.7,250.5 L 174.5,245.7 L 176.8,244.0 L 177.6,242.2 L 178.5,241.2 L 179.1,237.4 L 180.0,236.1 L 180.2,231.7 L 179.2,229.6 L 176.8,227.8 L 176.7,226.3 L 176.8,224.1 L 176.0,220.2 L 176.9,211.7 L 178.1,209.7 L 178.9,209.2 L 182.0,208.0 L 182.5,204.4 L 182.6,201.0 L 183.2,196.6 L 182.4,196.0 L 180.8,196.5 L 178.4,199.4 L 177.3,199.6 L 175.3,198.4 L 175.2,198.3 L 174.8,197.6 L 175.2,195.9 L 175.6,195.4" fill="none" stroke="black" stroke-width="2"/>
</svg>