<?xml version="1.0" encoding="UTF-8"?>
<svg width="400" height="400" viewBox="0 0 400 400" xmlns="http://www.w3.org/2000/svg">
  <rect width="400" height="400" fill="white"/>
  <path d="M 206.8,199.2 L 203.6,196.0 L 202.5,193.9 L 202.3,193.1 L 202.9,192.6 L 201.8,191.6 L 200.2,188.1 L 198.6,185.6 L 192.2,180.2 L 186.2,174.7 L 180.3,171.4 L 180.1,169.9 L 178.4,169.4 L 177.6,168.5 L 176.5,167.4 L 176.2,167.0 L 174.7,166.2 L 173.7,166.7 L 173.6,166.3 L 173.6,166.0 L 173.7,165.8 L 173.6,165.8 L 172.1,165.5 L 171.8,165.1 L 171.8,164.6 L 172.3,164.5 L 172.4,165.1 L 172.5,165.3 L 172.8,165.4 L 173.0,165.0 L 173.8,165.0 L 174.5,165.0 L 174.7,165.1 L 175.3,165.3 L 175.0,163.4 L 174.4,161.4 L 173.0,158.5 L 171.8,158.5 L 171.9,157.4 L 171.6,157.3 L 171.7,156.7 L 172.6,155.8 L 171.3,153.7 L 170.7,153.9 L 169.3,151.8 L 168.8,152.1 L 170.0,154.3 L 169.8,154.5 L 169.8,154.5 L 170.0,155.0 L 169.2,155.3 L 169.1,156.0 L 168.4,156.4 L 168.2,156.6 L 167.8,156.7 L 167.1,156.9 L 166.4,156.8 L 165.7,156.7 L 165.1,156.9 L 165.2,157.1 L 166.0,157.1 L 166.5,157.3 L 167.2,157.4 L 167.7,157.8 L 167.9,158.0 L 167.6,158.1 L 167.3,158.2 L 167.3,158.4 L 167.8,159.1 L 167.9,159.8 L 168.1,160.6 L 168.4,161.1 L 168.7,161.4 L 169.0,161.6 L 169.4,162.3 L 169.4,163.0 L 169.2,163.7 L 168.8,164.3 L 168.5,164.5 L 168.1,163.8 L 167.8,163.8 L 167.1,164.3 L 166.6,163.9 L 166.6,163.6 L 166.9,163.3 L 166.7,163.0 L 166.0,162.9 L 165.8,162.5 L 165.8,161.6 L 165.5,160.9 L 164.9,160.6 L 164.9,160.0 L 164.2,159.5 L 164.9,158.4 L 164.7,158.1 L 163.5,158.2 L 163.0,158.1 L 162.0,157.4 L 161.7,157.1 L 162.1,155.9 L 161.8,154.4 L 159.4,152.1 L 159.7,150.7 L 159.1,150.0 L 158.7,146.0 L 158.3,144.5 L 156.0,138.8 L 155.2,137.7 L 154.8,136.4 L 154.0,135.3 L 151.7,134.4 L 150.4,132.5 L 149.5,130.0 L 148.7,128.1 L 148.8,126.8 L 147.7,123.5 L 146.8,122.5 L 145.0,122.4 L 143.9,121.9 L 143.1,122.4 L 141.6,122.3 L 140.0,121.4 L 139.4,120.5 L 141.0,120.5 L 140.8,119.8 L 139.7,119.4 L 138.7,119.4 L 137.6,120.3 L 137.0,120.0 L 136.0,118.8 L 135.3,118.9 L 134.9,119.1 L 133.9,119.0 L 131.8,117.9 L 130.7,116.6 L 129.8,115.1 L 129.7,112.7 L 134.5,110.6 L 134.7,109.4 L 134.5,107.8 L 135.4,106.5 L 134.2,104.9 L 133.6,104.5 L 132.9,103.5 L 132.8,102.6 L 132.5,102.2 L 130.9,101.0 L 128.9,98.2 L 127.5,96.8 L 126.9,95.5 L 125.6,95.0 L 125.0,95.1 L 122.7,94.9 L 121.2,92.0 L 120.5,91.8 L 119.8,92.4 L 119.4,94.4 L 118.1,96.9 L 116.3,98.0 L 113.9,98.3 L 113.4,98.6 L 113.0,101.1 L 114.2,104.1 L 114.0,106.7 L 111.8,110.5 L 112.0,112.4 L 115.4,117.5 L 115.3,118.4 L 113.9,118.6 L 112.4,119.1 L 110.7,119.2 L 109.6,118.3 L 107.9,115.5 L 108.0,114.3 L 106.9,112.8 L 105.9,112.2 L 104.5,111.7 L 102.6,111.3 L 102.4,110.7 L 103.3,109.1 L 103.4,107.4 L 102.3,105.2 L 101.3,104.0 L 101.0,103.2 L 102.4,102.7 L 102.8,101.8 L 102.6,101.2 L 103.9,99.8 L 107.0,99.8 L 108.8,98.5 L 108.4,97.3 L 107.0,95.7 L 107.2,95.1 L 107.1,94.5 L 106.7,93.9 L 105.7,94.1 L 105.5,94.8 L 105.1,95.3 L 103.5,95.2 L 101.9,93.5 L 101.7,92.7 L 102.8,91.7 L 104.4,90.6 L 105.8,90.5 L 107.1,88.8 L 107.8,88.9 L 109.2,90.7 L 109.7,91.3 L 110.9,92.1 L 110.6,95.1 L 111.3,96.3 L 113.0,97.3 L 114.3,97.4 L 114.8,96.9 L 115.8,95.2 L 116.7,94.8 L 117.2,91.6 L 115.2,90.1 L 114.9,89.5 L 115.0,88.7 L 115.5,88.4 L 114.8,86.0 L 114.0,85.0 L 113.4,85.4 L 112.0,87.4 L 111.4,87.5 L 111.1,87.2 L 109.1,84.9 L 109.6,84.1 L 111.2,83.0 L 110.4,80.8 L 110.4,80.7 L 218.8,40.0 L 218.8,40.7 L 219.1,41.4 L 219.4,42.3 L 219.7,43.4 L 219.8,44.2 L 219.8,44.9 L 220.0,45.6 L 219.9,46.3 L 220.1,47.1 L 220.9,48.0 L 221.5,48.8 L 221.8,49.6 L 221.8,50.4 L 221.9,50.9 L 222.0,51.1 L 222.0,51.1 L 222.5,52.0 L 223.9,52.0 L 224.5,51.5 L 224.9,51.5 L 225.0,51.5 L 225.1,51.5 L 226.0,51.9 L 228.0,54.0 L 228.7,56.4 L 229.0,57.1 L 230.1,58.1 L 228.8,59.8 L 227.3,62.8 L 227.3,64.7 L 228.0,66.0 L 227.8,67.6 L 225.2,70.7 L 224.9,70.9 L 224.6,71.5 L 226.1,74.1 L 227.3,75.7 L 228.9,78.9 L 232.3,82.7 L 233.5,83.3 L 235.8,86.0 L 237.3,88.9 L 239.2,93.2 L 238.7,96.0 L 237.8,96.7 L 236.5,96.7 L 235.9,95.8 L 235.2,95.8 L 233.8,96.6 L 233.2,95.9 L 232.5,96.1 L 232.0,97.2 L 230.8,97.8 L 230.2,97.9 L 229.1,95.6 L 228.3,94.7 L 227.6,94.5 L 227.0,94.7 L 226.7,95.5 L 227.5,98.0 L 228.6,99.8 L 229.4,99.8 L 229.7,100.3 L 229.6,101.5 L 230.0,101.4 L 230.7,101.5 L 230.6,102.7 L 230.3,103.2 L 229.8,103.7 L 230.1,105.0 L 228.6,106.7 L 228.5,109.8 L 228.8,111.2 L 229.1,112.7 L 229.9,114.1 L 230.8,117.5 L 230.7,120.1 L 230.2,123.2 L 229.1,123.3 L 228.7,122.3 L 227.6,121.9 L 227.4,121.4 L 226.3,121.5 L 226.1,120.2 L 225.3,117.6 L 223.9,116.7 L 223.1,116.7 L 222.4,118.0 L 222.1,119.0 L 221.5,118.8 L 221.4,116.9 L 221.5,115.9 L 220.4,115.9 L 219.5,114.1 L 218.4,113.2 L 218.8,112.7 L 220.1,112.1 L 220.2,111.3 L 219.2,109.2 L 217.3,108.9 L 216.0,110.0 L 214.2,114.6 L 214.9,115.4 L 215.5,116.3 L 217.5,118.3 L 219.5,124.3 L 222.9,126.5 L 223.0,128.2 L 222.3,129.6 L 222.5,130.8 L 222.0,131.9 L 221.6,133.5 L 221.2,134.0 L 221.8,134.7 L 221.3,137.3 L 223.1,141.1 L 224.5,143.1 L 224.4,144.9 L 223.5,146.0 L 223.3,147.4 L 223.7,148.6 L 225.2,149.0 L 226.4,151.0 L 227.0,152.7 L 227.4,154.2 L 228.2,154.8 L 228.9,155.5 L 229.6,155.9 L 229.6,156.7 L 230.4,157.2 L 231.4,157.7 L 234.0,161.1 L 234.8,164.1 L 235.7,166.9 L 235.7,167.5 L 235.6,168.1 L 235.9,168.7 L 235.2,171.3 L 235.4,172.8 L 235.0,173.6 L 235.0,175.4 L 235.2,176.3 L 235.5,177.1 L 235.9,177.9 L 236.4,178.2 L 236.7,178.9 L 237.4,180.7 L 237.3,181.8 L 236.7,183.6 L 236.1,185.7 L 236.3,187.8 L 236.9,188.3 L 237.8,189.9 L 237.4,192.5 L 236.7,193.7 L 236.1,193.8 L 236.0,193.8 L 235.5,194.1 L 235.0,194.3 L 235.4,196.0 L 235.9,196.1 L 236.2,196.3 L 236.4,196.4 L 236.8,196.0 L 237.7,195.8 L 238.4,197.5 L 238.1,200.2 L 237.5,200.5 L 237.3,201.0 L 237.5,201.2 L 238.2,203.4 L 238.8,203.6 L 239.0,204.4 L 238.3,206.1 L 237.0,208.4 L 236.6,209.9 L 237.0,212.7 L 237.0,212.8 L 237.0,213.6 L 237.0,214.4 L 237.0,215.2 L 237.0,216.0 L 237.0,216.9 L 236.9,217.7 L 237.2,218.5 L 237.3,219.3 L 237.3,220.0 L 237.2,220.7 L 237.0,221.5 L 237.1,221.9 L 237.4,222.7 L 237.6,223.5 L 237.7,224.0 L 237.5,224.7 L 237.0,225.1 L 236.4,225.4 L 235.9,225.6 L 235.7,225.9 L 235.4,226.6 L 235.2,227.3 L 235.1,228.2 L 235.0,228.9 L 235.2,229.3 L 235.9,229.8 L 236.6,230.2 L 237.3,230.4 L 238.0,230.5 L 238.4,229.7 L 239.0,229.3 L 239.7,229.1 L 240.5,229.0 L 241.1,229.5 L 241.8,230.1 L 242.4,230.8 L 243.0,231.5 L 243.5,232.4 L 244.0,233.2 L 244.7,233.9 L 245.4,234.3 L 245.4,234.5 L 245.4,235.2 L 245.4,235.2 L 245.0,235.4 L 244.6,235.1 L 244.3,234.9 L 243.7,234.4 L 243.6,234.5 L 243.9,235.1 L 243.9,235.1 L 244.4,235.8 L 244.5,235.9 L 245.1,235.9 L 246.0,235.6 L 246.7,235.7 L 247.0,236.0 L 247.6,236.7 L 248.0,237.2 L 249.8,239.6 L 250.4,240.4 L 251.5,242.3 L 254.3,246.1 L 254.4,246.2 L 256.3,248.9 L 257.4,251.0 L 260.2,259.1 L 260.5,261.1 L 260.6,262.3 L 260.8,266.7 L 263.2,270.6 L 263.3,271.7 L 262.5,272.2 L 262.3,273.6 L 263.4,275.4 L 265.6,278.1 L 265.6,278.8 L 263.7,278.6 L 263.2,279.0 L 263.4,280.3 L 265.1,282.9 L 269.2,288.1 L 270.5,289.3 L 271.2,289.3 L 271.9,288.8 L 271.2,286.2 L 271.0,283.8 L 271.8,283.4 L 272.5,283.7 L 273.2,286.3 L 274.3,288.6 L 275.3,288.8 L 275.8,289.3 L 276.6,290.7 L 276.7,292.4 L 277.8,294.5 L 277.8,295.6 L 278.5,296.9 L 278.1,297.7 L 278.2,298.7 L 280.3,301.7 L 279.7,306.2 L 282.3,309.7 L 283.6,311.0 L 284.4,310.9 L 284.4,309.6 L 284.1,308.7 L 284.5,308.2 L 285.2,309.2 L 285.6,311.2 L 286.1,312.8 L 286.2,316.1 L 288.4,318.6 L 289.6,318.3 L 290.1,318.7 L 290.1,320.2 L 290.2,321.1 L 291.0,321.8 L 293.6,323.6 L 295.2,323.8 L 295.8,324.7 L 295.5,327.6 L 295.8,328.6 L 295.8,330.9 L 299.0,334.5 L 293.8,336.9 L 244.0,359.6 L 243.2,360.0 L 241.4,356.6 L 241.0,354.4 L 239.6,352.7 L 239.5,349.2 L 239.3,343.8 L 239.2,341.8 L 237.6,340.3 L 236.1,340.3 L 235.2,339.5 L 233.0,339.1 L 232.6,338.6 L 232.4,337.7 L 232.3,336.9 L 231.9,336.6 L 232.5,335.2 L 232.4,334.7 L 231.8,334.4 L 231.5,334.3 L 229.8,330.7 L 229.6,330.3 L 229.3,327.6 L 229.6,324.3 L 229.2,323.0 L 229.5,321.0 L 229.7,320.3 L 229.6,318.6 L 229.2,317.9 L 229.2,317.2 L 229.0,316.8 L 228.3,316.5 L 227.7,316.0 L 227.3,315.2 L 227.0,314.4 L 226.7,313.6 L 226.8,312.9 L 227.2,312.2 L 227.7,311.5 L 228.2,310.8 L 228.3,310.1 L 228.8,310.0 L 228.9,309.4 L 228.9,308.7 L 228.8,308.1 L 228.6,307.8 L 228.0,307.6 L 227.7,307.4 L 227.5,306.7 L 227.4,305.9 L 227.4,305.3 L 227.4,304.6 L 227.4,303.9 L 227.4,303.2 L 227.4,302.5 L 227.4,301.8 L 227.4,301.2 L 227.4,300.5 L 227.6,299.8 L 227.9,299.4 L 228.4,299.4 L 229.3,299.4 L 230.0,299.6 L 230.8,299.7 L 231.5,299.8 L 232.1,300.0 L 232.3,300.0 L 232.5,300.1 L 232.6,300.8 L 232.8,301.6 L 232.7,302.3 L 232.6,302.9 L 232.5,303.6 L 232.4,304.0 L 232.9,304.5 L 233.5,304.7 L 233.8,304.0 L 233.9,303.3 L 233.8,302.5 L 233.7,301.8 L 233.7,301.3 L 234.1,300.6 L 234.1,300.1 L 234.0,299.8 L 233.3,299.4 L 232.6,299.5 L 232.1,299.3 L 231.5,298.9 L 230.7,298.7 L 230.0,298.6 L 229.9,298.5 L 229.6,297.8 L 229.1,297.4 L 228.9,297.0 L 228.9,296.3 L 228.8,295.6 L 228.7,294.8 L 228.6,294.0 L 228.4,293.3 L 228.1,292.6 L 227.7,291.8 L 227.2,291.3 L 226.5,290.8 L 226.1,290.9 L 225.3,291.0 L 224.6,291.2 L 223.8,291.1 L 223.1,290.9 L 222.4,290.2 L 222.0,289.5 L 221.8,289.1 L 221.2,286.6 L 220.3,283.0 L 220.3,280.5 L 220.1,280.0 L 219.8,278.2 L 216.0,268.9 L 215.7,268.4 L 214.6,266.0 L 213.8,264.8 L 213.5,264.1 L 213.4,263.4 L 213.3,262.9 L 213.2,262.2 L 213.1,261.6 L 213.3,261.2 L 213.5,260.2 L 213.5,260.0 L 214.2,259.6 L 214.1,258.9 L 213.9,258.4 L 213.6,258.2 L 213.4,257.6 L 213.2,257.0 L 213.0,256.5 L 213.3,256.3 L 213.4,256.2 L 213.2,255.5 L 213.1,255.1 L 212.5,255.0 L 212.2,254.4 L 211.9,254.2 L 212.0,253.8 L 212.5,253.4 L 213.3,253.2 L 213.6,253.0 L 214.1,253.4 L 214.2,254.2 L 214.4,254.3 L 215.0,254.0 L 215.3,253.8 L 215.4,253.5 L 215.2,252.8 L 215.3,252.1 L 215.7,252.2 L 216.2,252.3 L 216.5,252.6 L 217.1,252.6 L 217.2,252.8 L 217.2,252.8 L 217.9,253.5 L 217.5,254.3 L 218.9,255.8 L 219.3,256.2 L 219.1,256.4 L 219.6,256.8 L 220.1,256.3 L 220.2,256.9 L 220.9,257.2 L 221.9,257.7 L 223.1,257.7 L 223.2,257.1 L 222.2,255.4 L 222.5,254.9 L 223.3,253.6 L 223.3,253.6 L 223.6,252.9 L 223.6,252.5 L 223.5,252.4 L 223.8,252.2 L 224.4,252.1 L 224.5,251.5 L 224.3,251.1 L 224.2,250.3 L 223.6,249.8 L 222.9,250.3 L 222.4,250.7 L 222.1,251.2 L 221.9,251.9 L 221.7,252.6 L 221.5,252.9 L 221.1,252.7 L 221.0,252.6 L 221.0,252.6 L 221.0,252.4 L 220.9,251.9 L 220.5,251.2 L 220.2,251.2 L 219.9,251.0 L 219.8,250.6 L 219.9,249.9 L 219.9,249.2 L 220.1,249.0 L 220.9,248.7 L 221.1,248.3 L 221.0,247.6 L 221.5,247.0 L 221.4,246.7 L 221.0,245.8 L 220.8,245.5 L 220.4,245.7 L 220.3,246.4 L 219.9,246.5 L 219.6,246.1 L 219.2,245.3 L 218.8,244.9 L 218.5,245.0 L 218.2,244.9 L 218.1,244.4 L 217.7,244.0 L 217.6,243.3 L 217.1,243.3 L 216.4,243.2 L 215.8,243.1 L 215.7,242.9 L 215.6,242.1 L 215.6,241.2 L 215.8,240.4 L 215.6,239.7 L 215.7,238.9 L 215.8,237.9 L 216.0,237.1 L 216.1,236.2 L 216.2,235.4 L 216.2,234.7 L 216.5,234.1 L 216.6,233.3 L 216.8,232.6 L 216.8,232.5 L 217.3,231.8 L 217.6,231.5 L 217.3,230.9 L 217.2,229.9 L 217.3,229.1 L 218.2,229.1 L 218.3,229.1 L 218.5,229.0 L 218.2,228.7 L 217.7,228.4 L 218.1,227.7 L 218.0,227.0 L 217.8,226.6 L 217.9,225.8 L 218.1,225.0 L 218.2,224.0 L 218.5,223.2 L 218.7,222.5 L 219.0,221.6 L 219.2,221.1 L 219.6,220.4 L 219.9,220.1 L 220.1,220.1 L 220.0,219.7 L 219.5,219.3 L 219.4,218.9 L 220.0,218.6 L 220.3,218.4 L 220.5,217.9 L 220.6,217.2 L 220.6,216.5 L 219.9,215.8 L 219.8,215.6 L 220.0,214.0 L 220.0,213.4 L 219.5,212.7 L 217.5,212.3 L 215.8,211.2 L 215.0,210.1 L 213.2,206.9 L 211.0,203.9 L 207.9,200.3 L 207.0,199.4 L 206.8,199.2" fill="none" stroke="black" stroke-width="2"/>
</svg>