<?xml version="1.0" encoding="UTF-8"?>
<svg width="400" height="400" viewBox="0 0 400 400" xmlns="http://www.w3.org/2000/svg">
  <rect width="400" height="400" fill="white"/>
  <path d="M 136.0,290.8 L 136.0,290.8 L 107.0,196.6 L 69.7,75.5 L 69.7,75.5 L 71.9,74.6 L 73.2,72.5 L 77.1,70.1 L 76.7,68.5 L 75.9,67.1 L 76.4,65.4 L 78.4,63.9 L 82.1,62.3 L 83.1,60.9 L 83.7,58.7 L 84.6,57.0 L 86.0,50.8 L 87.6,47.7 L 87.3,43.4 L 88.3,42.0 L 93.3,40.0 L 99.0,41.6 L 101.2,43.9 L 104.7,51.4 L 104.3,55.8 L 102.3,60.0 L 102.7,63.6 L 104.2,65.6 L 106.9,68.2 L 109.8,71.9 L 111.0,72.5 L 113.2,73.1 L 118.1,75.3 L 120.4,75.4 L 123.6,73.8 L 131.7,71.4 L 133.9,69.7 L 140.2,61.2 L 141.6,59.8 L 145.2,59.8 L 150.7,61.8 L 155.1,62.5 L 158.9,61.6 L 161.6,60.4 L 167.6,60.0 L 170.0,59.1 L 176.0,57.1 L 177.7,58.2 L 179.5,60.0 L 179.9,55.8 L 182.8,54.5 L 184.6,54.6 L 186.7,57.9 L 187.5,63.2 L 194.7,59.7 L 195.5,55.7 L 197.9,55.5 L 199.1,52.1 L 200.5,52.9 L 202.3,52.5 L 204.3,50.3 L 207.5,49.5 L 209.1,48.6 L 213.2,47.8 L 216.4,48.5 L 219.4,50.0 L 222.2,50.3 L 227.5,49.1 L 230.1,49.0 L 232.2,47.8 L 234.3,45.6 L 239.1,45.2 L 242.9,45.7 L 244.4,45.5 L 246.8,46.6 L 248.7,48.4 L 257.5,50.2 L 265.8,48.4 L 270.7,46.8 L 271.6,50.3 L 274.1,50.8 L 275.6,49.1 L 277.5,49.3 L 278.4,51.2 L 278.7,53.2 L 279.5,57.2 L 283.5,57.1 L 287.0,54.7 L 293.0,53.1 L 298.2,53.0 L 300.5,51.5 L 306.4,50.2 L 307.9,51.9 L 309.1,54.3 L 310.9,57.1 L 313.2,60.2 L 314.0,62.0 L 316.5,65.3 L 316.4,66.3 L 314.2,68.8 L 313.6,70.4 L 310.3,73.5 L 309.8,77.5 L 311.1,79.2 L 311.2,81.9 L 308.3,86.0 L 308.9,87.1 L 310.1,87.7 L 313.9,85.3 L 315.9,85.6 L 317.0,87.0 L 316.4,91.2 L 314.5,93.9 L 314.2,97.1 L 310.6,101.0 L 307.1,104.9 L 304.7,107.0 L 302.7,108.6 L 302.0,109.3 L 301.1,110.8 L 301.3,114.6 L 303.1,116.1 L 304.6,116.6 L 309.7,116.0 L 314.0,117.2 L 315.0,118.5 L 315.0,122.3 L 314.0,124.4 L 313.3,131.5 L 314.6,134.0 L 313.5,136.3 L 311.2,138.8 L 310.2,142.2 L 310.0,143.9 L 311.3,145.3 L 314.6,146.3 L 319.6,150.0 L 326.5,150.9 L 328.0,151.7 L 328.3,154.0 L 327.5,156.9 L 324.7,156.7 L 322.7,157.0 L 322.4,158.1 L 322.1,158.9 L 325.0,160.1 L 330.3,162.0 L 328.9,166.9 L 324.8,167.8 L 320.1,167.6 L 319.6,162.4 L 318.6,162.3 L 317.9,167.3 L 315.2,168.1 L 313.6,167.4 L 312.9,167.1 L 304.7,169.0 L 302.4,169.2 L 298.7,170.1 L 296.0,172.0 L 292.3,173.2 L 288.9,174.0 L 279.9,177.5 L 277.9,179.5 L 276.4,183.0 L 276.4,183.9 L 279.0,185.6 L 276.0,186.9 L 273.5,186.2 L 273.4,187.5 L 274.7,188.0 L 275.5,190.0 L 272.7,191.0 L 269.3,191.1 L 268.6,189.4 L 272.2,187.5 L 272.3,186.1 L 267.9,188.6 L 267.9,191.3 L 266.4,191.9 L 266.5,189.7 L 262.5,190.5 L 262.0,191.8 L 257.1,188.5 L 257.6,187.3 L 258.8,184.9 L 261.3,180.9 L 263.4,179.9 L 268.2,179.8 L 269.0,179.5 L 269.0,178.7 L 262.2,178.6 L 256.1,183.4 L 253.4,185.4 L 250.5,187.2 L 247.4,186.1 L 246.2,186.3 L 244.3,188.1 L 241.9,187.6 L 240.3,189.1 L 240.0,192.0 L 238.7,195.3 L 237.3,196.1 L 235.2,197.1 L 233.1,197.2 L 222.1,198.1 L 217.5,199.0 L 213.4,201.2 L 210.9,201.1 L 209.1,201.6 L 206.8,203.5 L 204.8,207.2 L 203.8,210.4 L 202.9,217.5 L 201.7,218.4 L 197.0,220.1 L 190.2,223.2 L 188.3,225.2 L 187.8,228.2 L 189.6,231.7 L 193.3,235.4 L 196.0,239.9 L 199.0,239.7 L 202.2,242.0 L 202.9,243.9 L 203.8,244.9 L 208.0,247.0 L 210.4,247.6 L 214.1,250.2 L 218.0,253.5 L 220.1,253.5 L 221.5,252.2 L 222.5,250.8 L 224.1,250.1 L 226.8,249.9 L 227.7,251.1 L 227.5,252.1 L 220.9,254.7 L 219.2,256.4 L 218.5,260.0 L 217.8,260.9 L 216.7,261.3 L 214.2,263.2 L 213.7,265.1 L 215.5,268.9 L 220.4,274.3 L 223.5,275.5 L 227.2,278.0 L 227.5,279.3 L 226.4,285.0 L 226.3,289.5 L 225.9,292.4 L 224.1,294.5 L 221.7,295.8 L 219.9,297.6 L 219.9,301.5 L 220.3,303.4 L 220.8,306.1 L 222.7,307.1 L 222.7,307.1 L 222.8,307.1 L 228.3,306.2 L 228.6,307.6 L 228.8,308.2 L 230.2,308.2 L 242.0,309.3 L 246.9,311.6 L 247.1,311.3 L 245.6,310.1 L 245.9,309.4 L 246.9,309.3 L 248.4,309.0 L 249.6,309.5 L 250.5,309.8 L 255.6,312.3 L 257.3,314.6 L 258.7,317.7 L 260.4,318.3 L 264.0,317.2 L 267.4,316.1 L 269.0,317.3 L 268.6,320.2 L 270.0,322.8 L 271.7,322.3 L 273.2,320.7 L 274.2,318.4 L 274.5,316.5 L 276.2,315.6 L 279.0,316.8 L 282.6,321.4 L 281.3,323.0 L 273.9,333.0 L 271.4,334.2 L 269.4,335.9 L 269.1,336.3 L 267.7,341.1 L 266.7,342.6 L 253.7,360.0 L 253.2,359.7 L 248.6,357.5 L 241.4,352.8 L 240.8,352.4 L 235.3,346.6 L 224.4,338.6 L 219.3,332.3 L 215.7,329.5 L 213.2,328.7 L 207.5,328.2 L 200.7,328.7 L 197.0,327.1 L 192.1,322.7 L 188.8,319.0 L 186.9,318.3 L 184.0,317.8 L 182.3,315.6 L 180.9,312.8 L 178.6,311.3 L 174.7,310.8 L 172.3,307.9 L 171.3,306.0 L 168.8,302.7 L 165.2,300.2 L 162.1,299.2 L 161.1,298.6 L 157.7,297.6 L 149.7,296.5 L 146.6,293.0 L 142.6,290.8 L 140.2,290.2 L 136.0,290.8" fill="none" stroke="black" stroke-width="2"/>
</svg>