<?xml version="1.0" encoding="UTF-8"?>
<svg width="400" height="400" viewBox="0 0 400 400" xmlns="http://www.w3.org/2000/svg">
  <rect width="400" height="400" fill="white"/>
  <path d="M 40.0,245.4 L 40.0,245.3 L 45.6,200.3 L 47.4,185.3 L 48.5,185.6 L 49.1,186.0 L 49.9,186.0 L 50.8,185.6 L 51.4,185.8 L 51.8,186.0 L 52.5,186.0 L 53.2,185.5 L 53.1,184.6 L 54.1,183.9 L 54.5,182.9 L 54.7,181.7 L 54.4,180.6 L 54.4,179.4 L 55.0,178.3 L 55.1,177.7 L 55.7,177.0 L 56.5,176.7 L 57.0,176.7 L 57.7,177.4 L 58.3,179.3 L 58.8,180.0 L 59.1,180.0 L 60.0,179.4 L 60.5,179.8 L 60.7,180.3 L 63.3,183.4 L 63.6,184.3 L 66.6,186.3 L 66.5,186.8 L 67.0,188.2 L 68.0,189.2 L 71.3,192.1 L 72.9,192.8 L 73.6,192.8 L 74.3,192.5 L 77.2,192.9 L 78.5,193.3 L 79.6,193.4 L 80.5,193.0 L 81.6,192.9 L 82.2,192.6 L 83.1,190.7 L 83.7,190.4 L 85.1,190.6 L 86.1,191.7 L 86.4,192.6 L 87.6,192.8 L 88.7,193.3 L 88.9,193.3 L 90.1,193.4 L 92.0,193.1 L 94.9,193.2 L 97.3,193.6 L 99.3,193.2 L 100.3,193.3 L 101.0,193.1 L 102.0,193.0 L 103.5,193.1 L 104.3,192.9 L 105.6,192.2 L 106.2,191.0 L 106.2,190.5 L 106.2,190.4 L 107.4,189.4 L 108.6,188.7 L 109.3,187.7 L 110.6,187.3 L 111.6,187.3 L 112.1,187.0 L 113.7,185.9 L 115.0,185.8 L 116.1,185.1 L 116.7,184.3 L 117.2,183.4 L 117.8,182.9 L 119.1,182.4 L 121.2,182.1 L 122.1,182.7 L 122.8,182.1 L 123.6,182.2 L 125.3,181.0 L 128.1,179.7 L 129.2,179.4 L 131.2,179.4 L 131.4,179.5 L 131.5,179.7 L 132.2,179.7 L 133.1,179.3 L 134.0,179.4 L 134.2,180.1 L 135.1,180.9 L 135.3,181.6 L 136.0,182.2 L 136.9,182.3 L 140.7,181.9 L 142.5,180.7 L 143.1,180.5 L 144.2,179.6 L 145.1,179.4 L 145.7,179.6 L 148.2,181.2 L 150.8,181.5 L 151.5,181.9 L 152.4,181.8 L 154.2,181.0 L 155.3,180.3 L 156.8,178.2 L 158.5,177.4 L 159.5,176.7 L 161.0,174.7 L 162.2,173.7 L 164.1,171.3 L 164.9,170.9 L 166.4,170.7 L 168.4,170.9 L 168.7,170.7 L 168.7,170.7 L 169.8,170.1 L 170.7,169.3 L 172.5,168.3 L 174.1,167.5 L 175.4,167.1 L 177.3,167.2 L 179.0,166.9 L 179.3,166.9 L 179.5,166.9 L 180.2,166.9 L 183.4,165.6 L 184.8,165.5 L 185.9,166.3 L 187.3,167.1 L 188.8,167.5 L 190.2,168.1 L 190.9,168.1 L 191.9,167.7 L 193.0,167.5 L 193.6,167.6 L 193.9,168.3 L 194.1,168.7 L 195.7,168.9 L 196.0,169.4 L 196.3,170.2 L 196.6,170.5 L 197.4,171.9 L 198.7,172.4 L 199.6,172.5 L 200.3,172.0 L 202.2,172.3 L 203.7,171.2 L 204.7,169.9 L 204.4,169.1 L 204.7,168.5 L 206.1,168.6 L 207.0,169.1 L 208.0,169.4 L 208.5,169.0 L 210.4,170.0 L 211.3,170.1 L 212.0,169.6 L 213.0,169.2 L 215.6,167.9 L 216.4,166.8 L 217.4,164.7 L 218.6,163.8 L 219.2,163.7 L 220.2,162.7 L 221.4,162.3 L 222.7,162.4 L 223.3,162.6 L 223.6,163.2 L 224.3,164.2 L 224.9,164.2 L 225.7,163.5 L 226.6,163.4 L 228.9,163.5 L 229.6,163.3 L 230.0,163.8 L 231.2,163.9 L 232.0,163.7 L 234.5,163.9 L 235.0,163.6 L 235.3,163.5 L 236.4,163.8 L 237.0,163.4 L 238.2,162.9 L 238.7,163.0 L 239.4,162.8 L 239.7,162.4 L 241.4,162.5 L 242.5,163.3 L 245.9,165.7 L 246.8,165.6 L 247.2,165.2 L 247.8,164.4 L 248.6,164.4 L 251.5,164.8 L 252.7,165.2 L 256.0,165.6 L 256.9,165.3 L 258.3,162.9 L 258.9,161.6 L 259.8,161.6 L 260.8,161.3 L 262.1,161.4 L 263.4,161.0 L 264.7,162.1 L 265.8,162.4 L 266.8,163.1 L 267.6,164.2 L 268.0,164.4 L 269.4,164.5 L 269.8,164.5 L 272.5,163.1 L 277.8,160.5 L 279.9,159.3 L 282.3,158.5 L 285.5,157.5 L 286.4,156.9 L 286.6,156.5 L 286.8,156.1 L 287.3,155.8 L 289.4,155.5 L 292.0,154.9 L 292.5,154.4 L 292.9,154.0 L 294.3,153.8 L 294.7,153.8 L 295.4,155.4 L 296.0,156.1 L 296.8,156.4 L 298.1,156.5 L 299.8,155.5 L 300.2,154.6 L 301.4,153.4 L 303.2,152.6 L 304.7,151.7 L 307.3,151.6 L 308.2,151.1 L 309.4,151.0 L 310.2,150.5 L 310.9,150.0 L 312.9,147.8 L 314.5,146.7 L 317.2,145.9 L 319.1,144.6 L 320.5,144.1 L 322.3,142.6 L 324.0,142.0 L 325.0,141.7 L 327.9,141.1 L 328.9,140.4 L 329.4,139.6 L 330.9,138.1 L 331.9,137.5 L 332.8,136.7 L 334.3,135.5 L 336.3,134.5 L 337.2,134.0 L 337.3,133.9 L 338.8,132.5 L 339.8,131.5 L 343.1,130.8 L 346.0,131.3 L 347.3,132.2 L 348.4,131.9 L 349.7,132.0 L 351.1,132.8 L 352.7,133.0 L 353.4,132.5 L 354.1,131.8 L 355.1,131.2 L 355.5,131.1 L 355.6,133.0 L 360.0,199.8 L 359.5,199.7 L 358.8,199.5 L 357.6,197.9 L 357.0,197.7 L 353.1,198.4 L 352.1,198.3 L 351.5,198.6 L 350.8,199.5 L 348.6,199.8 L 348.1,200.1 L 347.1,199.9 L 346.5,200.6 L 345.8,200.5 L 343.8,199.5 L 343.0,199.2 L 342.0,199.2 L 340.7,199.6 L 338.8,199.0 L 338.4,199.3 L 338.3,199.9 L 337.6,200.4 L 336.1,201.2 L 334.2,201.0 L 333.1,200.5 L 332.2,200.2 L 331.5,199.6 L 330.9,199.5 L 330.0,198.6 L 329.4,198.0 L 326.5,197.4 L 326.0,197.1 L 325.4,196.9 L 325.0,197.2 L 323.7,198.3 L 322.9,198.7 L 321.3,198.6 L 319.9,199.2 L 317.3,199.4 L 314.9,200.3 L 314.3,200.7 L 311.7,204.9 L 311.4,206.0 L 311.2,208.4 L 309.2,210.1 L 308.8,211.4 L 308.5,212.1 L 307.9,212.6 L 307.0,212.7 L 305.8,212.0 L 305.4,211.6 L 304.9,209.7 L 304.6,207.5 L 304.6,205.7 L 304.8,204.9 L 305.7,203.6 L 306.2,202.5 L 306.6,201.8 L 306.6,200.7 L 304.8,197.0 L 303.7,195.5 L 302.0,195.4 L 300.0,195.7 L 298.5,196.8 L 297.4,197.2 L 295.8,197.0 L 294.9,197.3 L 294.2,197.0 L 293.1,197.6 L 291.1,197.6 L 288.9,197.3 L 287.7,197.5 L 287.1,198.0 L 286.9,198.6 L 286.1,199.6 L 284.9,200.9 L 283.2,201.8 L 282.4,202.4 L 282.4,202.4 L 281.2,203.9 L 281.4,204.6 L 281.3,207.0 L 281.8,207.3 L 281.9,207.8 L 282.1,208.2 L 282.1,210.8 L 283.5,212.2 L 283.6,212.7 L 281.4,215.4 L 281.2,215.5 L 280.7,216.1 L 280.3,217.3 L 280.8,218.2 L 281.0,218.7 L 281.0,219.0 L 281.1,220.2 L 281.4,221.2 L 282.5,222.2 L 284.1,222.5 L 284.4,222.9 L 283.9,223.2 L 283.7,223.5 L 284.8,223.8 L 285.8,223.0 L 287.3,223.1 L 288.1,223.7 L 288.2,224.4 L 287.8,225.2 L 286.4,225.7 L 285.6,225.6 L 285.1,226.0 L 283.0,225.9 L 281.8,226.2 L 280.8,226.3 L 280.3,226.4 L 279.4,226.7 L 278.0,227.5 L 276.8,228.1 L 276.4,228.4 L 276.0,230.1 L 275.2,230.7 L 272.2,231.3 L 271.7,231.5 L 270.0,231.8 L 264.1,231.2 L 262.9,231.1 L 262.6,231.4 L 260.4,231.6 L 255.4,234.0 L 255.1,235.8 L 255.5,236.5 L 256.2,237.0 L 256.4,237.6 L 256.3,238.3 L 254.0,241.2 L 253.1,242.0 L 252.6,242.4 L 252.1,242.7 L 250.9,242.8 L 250.3,243.1 L 250.5,243.6 L 249.5,244.5 L 248.3,244.9 L 246.8,245.3 L 245.7,245.8 L 244.8,245.9 L 244.3,245.1 L 243.6,245.4 L 242.5,246.2 L 240.7,246.5 L 237.9,246.3 L 236.2,245.7 L 234.9,245.0 L 233.9,244.2 L 232.3,243.2 L 231.0,241.7 L 230.0,241.6 L 228.4,242.0 L 227.6,241.9 L 227.0,241.1 L 226.5,241.1 L 226.3,241.2 L 225.7,241.6 L 224.5,241.6 L 223.6,240.7 L 221.4,239.1 L 220.8,238.8 L 219.0,238.4 L 218.0,238.5 L 217.4,238.6 L 217.2,238.8 L 216.4,239.6 L 215.9,239.9 L 214.8,238.8 L 213.9,238.5 L 213.2,238.9 L 212.1,239.9 L 211.0,239.9 L 210.3,240.3 L 209.7,240.3 L 208.9,239.7 L 208.7,238.7 L 208.3,238.5 L 207.1,238.3 L 206.3,238.4 L 205.5,238.3 L 204.7,237.6 L 203.4,236.7 L 202.7,237.0 L 201.3,236.8 L 200.7,237.0 L 199.1,237.0 L 195.5,236.6 L 193.4,236.5 L 193.0,236.6 L 192.5,236.7 L 191.1,236.7 L 190.4,236.8 L 189.5,237.7 L 189.3,238.6 L 189.5,239.4 L 189.4,239.8 L 188.3,240.4 L 183.4,241.0 L 182.5,241.0 L 181.8,240.7 L 180.6,240.3 L 179.3,239.6 L 178.6,239.1 L 177.2,238.7 L 176.9,238.5 L 176.8,238.0 L 176.4,237.5 L 175.0,238.0 L 173.5,238.0 L 172.8,237.9 L 172.4,237.9 L 172.3,237.6 L 171.6,237.1 L 170.4,237.1 L 168.7,236.1 L 166.1,235.9 L 164.9,236.1 L 162.2,235.9 L 161.1,235.3 L 159.3,235.1 L 157.1,235.9 L 155.7,237.0 L 155.6,237.4 L 156.4,238.0 L 157.7,238.4 L 158.3,239.1 L 158.5,240.3 L 158.9,241.2 L 159.4,241.6 L 159.6,242.2 L 160.1,242.6 L 160.5,243.5 L 160.4,244.4 L 159.9,245.0 L 159.8,245.5 L 161.8,247.3 L 165.5,251.1 L 166.8,253.1 L 167.4,254.4 L 167.2,256.0 L 166.8,257.0 L 165.4,258.7 L 164.4,259.3 L 162.4,260.5 L 160.9,260.5 L 159.9,261.2 L 158.4,261.7 L 156.9,261.6 L 154.1,261.0 L 152.3,259.2 L 151.3,259.0 L 150.1,259.6 L 149.6,260.0 L 148.9,261.3 L 147.6,262.8 L 146.7,263.1 L 146.0,264.1 L 145.0,265.1 L 144.0,265.8 L 142.2,265.7 L 142.1,266.5 L 142.3,267.3 L 142.1,267.7 L 141.8,268.9 L 141.7,269.2 L 121.9,253.8 L 120.8,252.9 L 120.8,252.6 L 120.6,252.1 L 120.0,251.3 L 119.2,251.0 L 117.6,250.3 L 116.8,250.6 L 116.1,250.6 L 115.1,250.3 L 112.2,249.7 L 112.0,249.9 L 111.9,250.7 L 112.5,251.3 L 113.0,252.2 L 111.9,252.2 L 90.2,252.1 L 90.0,251.0 L 89.6,251.0 L 88.9,251.7 L 88.8,252.1 L 52.7,251.9 L 51.9,251.1 L 50.8,251.1 L 49.7,250.3 L 48.4,250.0 L 47.8,249.8 L 47.2,249.2 L 47.4,248.8 L 47.9,248.4 L 47.2,247.2 L 47.1,246.9 L 46.8,246.8 L 46.6,247.4 L 46.2,247.4 L 45.6,246.5 L 45.0,246.0 L 44.5,246.4 L 43.5,246.7 L 42.1,246.2 L 41.3,245.8 L 40.0,245.4" fill="none" stroke="black" stroke-width="2"/>
</svg>