<?xml version="1.0" encoding="UTF-8"?>
<svg width="400" height="400" viewBox="0 0 400 400" xmlns="http://www.w3.org/2000/svg">
  <rect width="400" height="400" fill="white"/>
  <path d="M 115.3,267.5 L 116.5,266.6 L 117.1,264.6 L 117.1,264.5 L 116.2,263.2 L 116.1,262.9 L 116.0,262.6 L 114.9,261.8 L 113.5,261.3 L 113.0,261.4 L 111.8,261.7 L 110.9,262.3 L 109.7,263.0 L 108.6,263.4 L 108.0,263.2 L 107.7,263.0 L 107.1,262.2 L 106.7,260.9 L 105.5,257.9 L 104.8,256.5 L 104.7,256.1 L 105.2,253.9 L 106.9,253.1 L 109.5,253.5 L 110.2,251.6 L 111.5,250.4 L 111.1,249.1 L 111.2,243.0 L 109.9,241.7 L 106.6,241.2 L 104.7,241.5 L 104.0,241.7 L 101.5,238.0 L 97.8,234.3 L 95.6,233.8 L 95.4,227.7 L 95.4,226.6 L 96.3,222.4 L 95.1,218.1 L 95.1,216.1 L 94.8,215.9 L 94.2,215.4 L 93.5,214.5 L 91.8,214.0 L 90.7,212.6 L 90.0,210.4 L 89.4,209.8 L 88.0,210.1 L 87.9,210.0 L 87.8,208.1 L 85.7,208.3 L 85.3,207.7 L 84.1,207.3 L 83.8,205.7 L 84.6,204.0 L 85.9,203.7 L 86.7,202.0 L 86.8,200.5 L 86.4,198.7 L 86.9,196.9 L 87.8,196.0 L 87.9,193.7 L 86.5,191.0 L 86.5,190.9 L 85.1,188.1 L 85.3,186.6 L 84.5,185.0 L 85.4,178.2 L 85.8,176.2 L 83.3,168.7 L 80.2,167.4 L 78.2,166.1 L 74.6,164.9 L 69.3,159.5 L 68.7,157.8 L 65.5,155.4 L 56.1,142.9 L 50.5,135.2 L 48.3,134.2 L 40.7,131.6 L 40.0,129.4 L 40.5,127.9 L 43.9,125.5 L 46.3,125.4 L 46.4,124.1 L 45.6,122.7 L 46.6,122.4 L 48.5,122.4 L 51.3,122.8 L 51.8,125.9 L 54.9,129.5 L 57.7,129.8 L 59.2,129.6 L 61.0,131.4 L 61.1,132.2 L 63.6,136.9 L 63.5,141.0 L 63.9,143.3 L 65.8,146.2 L 72.0,150.9 L 73.8,153.0 L 76.5,154.1 L 76.9,156.0 L 79.1,158.9 L 80.2,158.5 L 80.6,157.1 L 81.4,157.4 L 81.9,160.3 L 84.0,161.7 L 87.1,161.3 L 88.3,160.4 L 89.7,157.8 L 91.4,157.3 L 96.9,157.8 L 98.0,157.7 L 98.8,157.1 L 100.2,157.1 L 101.9,157.1 L 104.4,160.5 L 106.1,160.5 L 109.5,157.8 L 114.4,156.8 L 115.9,157.0 L 115.7,159.0 L 117.0,159.2 L 118.0,158.8 L 119.0,159.5 L 119.4,160.1 L 121.2,160.1 L 121.7,159.9 L 121.7,158.3 L 120.2,156.6 L 120.5,155.9 L 122.7,156.2 L 123.0,155.0 L 122.7,153.6 L 123.2,153.2 L 124.4,153.9 L 125.6,153.3 L 128.2,154.1 L 130.7,153.2 L 131.1,153.8 L 129.1,156.7 L 129.5,159.8 L 131.4,162.4 L 132.9,162.3 L 134.1,160.9 L 135.0,157.2 L 137.2,157.3 L 137.4,156.0 L 137.2,153.9 L 138.1,153.1 L 140.6,153.1 L 141.7,152.5 L 143.2,153.3 L 146.8,158.4 L 146.2,159.1 L 142.2,162.1 L 136.9,166.7 L 136.6,168.5 L 135.7,169.1 L 133.7,171.4 L 131.4,174.6 L 131.8,175.8 L 133.5,175.7 L 136.6,173.9 L 143.6,168.0 L 146.9,168.0 L 151.6,165.7 L 152.5,164.9 L 153.4,160.4 L 157.1,161.2 L 159.7,163.4 L 162.2,164.2 L 164.5,168.4 L 164.6,171.8 L 163.7,174.2 L 162.2,175.8 L 160.0,176.5 L 158.9,178.1 L 157.5,178.4 L 156.6,177.5 L 149.4,175.9 L 147.0,176.1 L 141.6,180.0 L 138.9,183.1 L 135.2,182.1 L 132.1,182.2 L 129.3,183.6 L 130.7,184.5 L 131.1,185.1 L 130.1,185.7 L 128.8,187.1 L 130.0,189.9 L 129.9,191.9 L 135.0,197.5 L 135.9,199.9 L 138.5,202.0 L 142.7,202.4 L 145.4,201.6 L 146.0,200.6 L 148.3,201.2 L 149.1,202.8 L 151.3,201.6 L 154.5,199.2 L 156.8,195.2 L 157.5,190.5 L 157.3,188.2 L 158.4,187.7 L 160.5,187.8 L 163.0,186.9 L 163.9,185.5 L 164.9,185.4 L 165.6,184.4 L 167.2,180.1 L 172.4,176.0 L 175.1,175.6 L 177.1,176.1 L 177.4,177.2 L 176.8,178.1 L 178.1,179.3 L 181.6,179.7 L 183.1,178.8 L 184.9,178.5 L 189.2,177.4 L 191.5,175.7 L 190.6,173.2 L 191.9,171.3 L 193.9,169.1 L 196.2,167.6 L 195.4,166.4 L 196.1,161.5 L 198.1,159.8 L 200.7,155.7 L 200.4,154.7 L 203.6,152.0 L 203.4,149.4 L 204.7,148.1 L 206.4,147.1 L 206.7,144.8 L 208.8,142.8 L 210.0,139.6 L 209.9,138.6 L 209.0,137.4 L 209.1,135.2 L 210.9,130.6 L 212.0,124.3 L 211.5,122.0 L 210.3,120.2 L 210.7,117.5 L 207.8,115.5 L 203.5,110.7 L 199.9,109.0 L 196.7,108.3 L 193.0,105.4 L 191.1,102.8 L 191.7,101.4 L 194.3,99.2 L 193.1,97.3 L 187.8,91.6 L 185.9,90.0 L 183.9,86.1 L 179.6,81.2 L 178.0,78.9 L 178.3,73.5 L 177.1,71.1 L 173.6,70.8 L 172.1,69.4 L 171.7,66.0 L 171.3,62.4 L 172.2,63.1 L 173.4,63.7 L 174.6,64.0 L 175.8,64.0 L 177.0,64.2 L 178.3,64.3 L 178.9,64.5 L 180.8,65.5 L 181.7,67.6 L 184.6,70.8 L 189.4,71.9 L 192.5,73.3 L 193.9,75.8 L 193.9,78.9 L 195.7,79.7 L 197.1,82.6 L 197.0,84.7 L 198.1,86.1 L 202.4,87.3 L 203.8,90.6 L 204.7,92.0 L 208.3,93.0 L 208.2,95.8 L 209.0,97.2 L 214.1,102.0 L 216.1,103.1 L 216.6,106.0 L 217.5,107.6 L 220.1,109.1 L 226.4,109.7 L 227.4,110.1 L 228.5,111.3 L 230.4,112.2 L 235.4,111.6 L 238.6,109.2 L 239.2,104.4 L 241.5,102.7 L 244.0,103.1 L 245.3,104.5 L 247.2,105.8 L 248.8,105.8 L 257.5,99.9 L 259.2,100.1 L 260.6,102.6 L 260.5,102.7 L 260.4,104.1 L 260.2,105.4 L 260.0,106.6 L 259.8,108.0 L 259.9,109.2 L 260.0,110.7 L 260.3,111.6 L 261.0,112.4 L 262.2,112.8 L 263.1,112.9 L 263.6,112.1 L 264.1,110.9 L 264.7,109.8 L 265.5,108.6 L 266.7,108.1 L 267.4,108.9 L 267.6,110.0 L 267.5,111.4 L 267.4,112.3 L 267.9,113.2 L 268.0,114.1 L 267.7,114.9 L 267.4,115.1 L 267.3,116.2 L 267.2,116.8 L 268.0,117.5 L 267.9,118.7 L 267.7,119.5 L 267.5,119.6 L 267.2,120.3 L 267.3,120.8 L 268.0,121.4 L 267.8,122.9 L 267.7,124.3 L 267.5,125.6 L 267.4,126.7 L 267.4,127.8 L 267.4,128.9 L 267.2,130.5 L 267.1,131.6 L 267.0,132.9 L 266.6,133.6 L 266.7,134.2 L 267.1,134.8 L 267.1,136.4 L 267.2,137.7 L 267.8,139.0 L 268.7,140.2 L 269.5,141.4 L 269.6,141.9 L 269.2,142.4 L 268.4,143.1 L 267.5,144.6 L 267.0,146.1 L 267.1,147.6 L 267.8,149.2 L 268.3,149.4 L 268.6,150.0 L 268.6,151.0 L 269.7,152.1 L 270.2,152.5 L 270.5,152.6 L 273.5,153.3 L 274.5,154.7 L 274.9,156.7 L 275.5,157.6 L 275.7,160.7 L 276.6,162.6 L 279.0,164.0 L 283.3,169.5 L 283.5,171.9 L 284.5,172.5 L 285.3,173.7 L 287.6,175.2 L 293.9,176.4 L 300.3,176.3 L 305.4,177.0 L 306.7,178.2 L 307.6,180.5 L 310.4,184.5 L 314.6,187.1 L 319.4,193.7 L 320.9,196.8 L 320.8,199.0 L 319.1,201.9 L 320.6,202.8 L 325.5,202.8 L 326.2,204.5 L 326.4,207.0 L 322.1,209.7 L 321.3,207.8 L 320.5,206.7 L 318.8,206.1 L 317.2,206.4 L 316.5,208.9 L 316.9,210.6 L 321.9,214.8 L 322.0,215.9 L 320.3,217.2 L 319.1,216.5 L 317.3,216.2 L 315.4,216.7 L 313.1,218.5 L 313.6,219.2 L 316.0,220.2 L 315.3,221.0 L 313.4,222.1 L 313.1,222.7 L 315.5,226.7 L 318.9,230.5 L 320.5,235.3 L 319.0,236.7 L 320.3,238.4 L 322.3,238.4 L 325.4,242.2 L 327.3,242.8 L 329.3,246.6 L 330.9,251.5 L 333.5,254.6 L 335.6,256.1 L 339.4,256.8 L 340.5,258.0 L 343.2,258.4 L 345.9,259.3 L 346.5,260.9 L 344.8,262.0 L 341.7,261.8 L 340.6,262.6 L 341.1,264.5 L 342.7,267.8 L 346.2,272.2 L 347.2,272.3 L 348.5,275.4 L 350.6,277.9 L 353.4,280.1 L 354.7,281.8 L 358.3,281.8 L 360.0,282.6 L 357.2,284.8 L 354.5,285.4 L 354.1,287.7 L 353.2,288.8 L 352.2,289.0 L 351.6,289.1 L 351.2,291.9 L 352.5,293.5 L 352.7,295.4 L 353.3,297.0 L 352.3,300.5 L 343.9,307.2 L 340.8,309.1 L 336.8,308.7 L 332.7,303.0 L 333.4,302.1 L 334.2,301.5 L 336.2,300.2 L 341.5,299.2 L 341.8,297.4 L 340.4,295.7 L 340.9,294.4 L 337.4,289.8 L 337.0,287.6 L 336.7,285.7 L 335.7,284.2 L 335.0,281.6 L 335.6,274.0 L 334.5,272.6 L 334.6,272.0 L 335.3,263.7 L 333.2,262.9 L 332.3,263.0 L 330.9,263.8 L 329.5,265.1 L 322.6,268.5 L 321.3,269.5 L 318.6,271.0 L 314.6,272.2 L 312.1,272.1 L 310.8,273.0 L 306.3,273.1 L 304.1,274.0 L 300.2,274.5 L 296.4,275.9 L 295.9,276.1 L 295.0,276.5 L 288.8,276.7 L 287.4,277.5 L 287.7,279.0 L 287.7,281.1 L 288.4,281.4 L 288.5,281.4 L 290.4,281.5 L 291.0,283.1 L 290.8,283.4 L 290.2,284.5 L 290.0,286.1 L 291.9,287.7 L 291.6,289.4 L 288.2,291.7 L 285.1,295.1 L 280.7,297.2 L 280.5,297.3 L 278.3,297.1 L 277.9,297.1 L 276.3,294.3 L 277.8,288.9 L 276.8,289.0 L 272.4,292.7 L 270.2,295.0 L 270.1,296.5 L 268.8,299.9 L 268.0,307.2 L 268.9,309.6 L 268.6,311.9 L 268.9,313.0 L 268.2,314.6 L 267.6,317.1 L 269.0,320.2 L 267.3,321.2 L 266.9,323.6 L 152.4,334.5 L 124.7,337.2 L 124.9,335.7 L 126.1,334.8 L 126.1,333.6 L 124.5,333.5 L 123.4,335.8 L 122.9,337.3 L 120.0,337.6 L 121.0,336.9 L 121.7,335.0 L 118.9,334.6 L 116.3,335.4 L 114.0,334.9 L 114.8,333.0 L 115.0,331.7 L 122.3,325.6 L 123.0,324.6 L 122.2,320.5 L 124.3,318.6 L 124.4,316.6 L 123.7,314.7 L 124.1,313.5 L 127.1,314.0 L 129.4,311.8 L 129.8,309.5 L 128.9,308.4 L 130.0,307.4 L 134.5,306.8 L 135.7,305.7 L 136.3,303.7 L 135.0,303.6 L 133.1,303.9 L 132.2,303.5 L 129.9,303.4 L 126.8,305.4 L 121.7,305.3 L 121.0,306.6 L 121.7,308.5 L 122.7,309.2 L 123.7,308.6 L 124.6,308.5 L 124.7,309.5 L 123.9,311.5 L 123.0,311.6 L 122.2,310.7 L 120.9,312.5 L 119.4,313.6 L 116.9,313.5 L 114.5,310.3 L 113.6,309.7 L 113.0,307.0 L 112.9,305.5 L 112.2,305.4 L 111.1,305.7 L 110.7,304.7 L 112.3,302.9 L 115.9,303.1 L 117.3,302.0 L 118.6,296.8 L 120.0,295.5 L 119.1,291.6 L 115.9,288.5 L 114.9,286.3 L 114.6,283.2 L 115.4,280.8 L 115.3,279.1 L 115.0,275.3 L 114.4,272.1 L 113.1,271.0 L 111.4,270.4 L 112.0,268.9 L 114.2,268.3 L 115.3,267.5" fill="none" stroke="black" stroke-width="2"/>
</svg>