<?xml version="1.0" encoding="UTF-8"?>
<svg width="400" height="400" viewBox="0 0 400 400" xmlns="http://www.w3.org/2000/svg">
  <rect width="400" height="400" fill="white"/>
  <path d="M 105.1,236.5 L 106.0,234.4 L 108.2,231.8 L 108.9,226.6 L 108.3,225.5 L 104.5,225.5 L 103.2,224.2 L 102.9,222.5 L 104.6,219.6 L 104.9,217.5 L 104.7,216.4 L 105.6,214.7 L 106.5,211.2 L 106.4,206.6 L 107.8,205.2 L 109.1,205.4 L 110.6,206.5 L 111.3,206.4 L 112.4,205.4 L 113.0,203.0 L 113.1,200.1 L 112.6,196.2 L 111.7,193.0 L 111.8,190.5 L 110.6,188.7 L 108.7,187.2 L 106.4,186.3 L 105.2,185.0 L 104.5,182.2 L 104.7,179.1 L 104.2,178.7 L 102.2,178.4 L 101.2,177.4 L 101.0,175.6 L 101.3,172.3 L 100.2,169.6 L 100.6,167.1 L 102.8,165.4 L 103.4,162.4 L 105.5,158.8 L 107.3,157.5 L 109.0,157.2 L 109.9,157.5 L 112.9,160.7 L 112.9,163.2 L 113.5,164.2 L 113.8,166.0 L 114.3,167.7 L 116.1,169.6 L 117.0,170.3 L 117.6,171.5 L 120.5,174.4 L 121.6,176.8 L 121.1,180.1 L 120.2,181.5 L 119.1,181.8 L 117.8,186.6 L 117.1,192.3 L 117.8,194.8 L 118.7,196.0 L 119.1,197.9 L 121.1,199.8 L 123.2,199.5 L 124.2,200.0 L 125.5,199.8 L 127.3,198.6 L 127.6,198.1 L 128.2,197.5 L 132.5,193.9 L 133.6,193.8 L 134.0,194.8 L 132.3,197.7 L 132.7,197.9 L 133.4,197.8 L 138.4,193.3 L 139.2,191.2 L 139.1,189.5 L 138.2,188.3 L 137.0,187.4 L 136.4,185.5 L 135.0,185.1 L 134.3,184.3 L 134.5,183.2 L 135.5,182.7 L 137.3,182.9 L 139.0,181.9 L 141.4,180.9 L 142.8,179.8 L 144.8,176.0 L 147.5,172.3 L 148.6,169.6 L 149.4,168.7 L 150.8,167.8 L 151.1,165.6 L 150.5,164.6 L 152.5,161.9 L 154.8,162.8 L 155.6,162.7 L 156.5,162.6 L 157.7,159.6 L 159.0,158.2 L 161.0,156.9 L 164.3,153.0 L 165.9,151.9 L 167.7,151.7 L 168.7,152.7 L 169.0,154.4 L 167.9,154.9 L 165.6,156.5 L 162.7,159.2 L 162.4,160.6 L 163.8,160.6 L 165.2,159.8 L 168.1,159.5 L 170.5,157.0 L 171.7,156.8 L 175.5,154.9 L 176.8,153.3 L 177.6,153.0 L 180.6,151.2 L 181.8,149.0 L 181.0,147.7 L 180.9,145.5 L 181.3,144.4 L 185.1,141.7 L 187.1,141.6 L 190.0,140.6 L 193.2,138.4 L 195.5,136.4 L 198.6,135.4 L 206.2,135.3 L 209.4,135.6 L 214.4,133.5 L 217.4,131.3 L 221.5,126.9 L 222.7,124.9 L 223.3,122.0 L 224.9,119.2 L 228.7,119.4 L 229.4,118.7 L 230.5,116.7 L 230.6,115.0 L 230.0,114.0 L 228.7,111.5 L 229.5,106.0 L 230.3,105.0 L 232.1,104.2 L 239.9,104.0 L 240.5,104.7 L 243.9,104.4 L 245.1,104.5 L 245.8,106.1 L 246.9,107.5 L 248.5,107.2 L 251.2,106.3 L 260.3,93.1 L 262.3,91.8 L 263.8,88.4 L 265.9,85.4 L 268.4,84.7 L 269.6,83.7 L 271.1,82.1 L 273.3,80.6 L 275.0,77.9 L 275.4,75.8 L 277.2,73.1 L 280.6,73.1 L 281.9,72.3 L 283.5,72.4 L 285.8,70.9 L 287.1,68.7 L 287.2,67.2 L 286.2,63.3 L 286.3,62.7 L 286.6,61.2 L 290.1,55.1 L 292.5,52.4 L 294.8,51.2 L 297.7,51.3 L 302.5,51.9 L 305.4,48.1 L 306.4,47.5 L 309.5,47.6 L 312.1,48.5 L 315.2,48.8 L 316.2,48.0 L 319.9,42.1 L 321.5,40.0 L 334.4,51.1 L 333.7,52.1 L 329.0,55.2 L 327.7,56.3 L 325.3,59.4 L 324.9,60.8 L 325.3,63.2 L 327.3,68.6 L 328.9,69.2 L 331.0,70.9 L 332.3,73.1 L 332.4,76.4 L 331.7,77.4 L 331.4,78.8 L 331.9,80.3 L 331.1,82.2 L 331.1,84.4 L 329.6,85.2 L 327.9,86.5 L 327.6,87.5 L 328.3,89.4 L 326.8,90.7 L 325.0,93.0 L 323.5,95.2 L 322.6,97.8 L 322.8,100.0 L 322.8,102.7 L 323.8,105.4 L 326.2,109.5 L 327.3,109.8 L 327.9,110.5 L 329.1,112.4 L 330.2,113.8 L 330.0,116.2 L 328.1,118.5 L 325.9,118.4 L 324.1,117.1 L 321.7,114.3 L 320.9,113.9 L 315.5,108.0 L 312.0,104.1 L 308.9,102.4 L 307.2,102.2 L 304.1,102.4 L 301.4,102.3 L 297.3,100.2 L 295.9,100.4 L 294.8,101.2 L 294.5,102.2 L 294.7,104.6 L 292.0,107.5 L 289.1,109.3 L 285.2,110.2 L 281.8,109.9 L 277.9,110.7 L 275.0,113.2 L 273.5,114.9 L 273.0,117.3 L 273.7,118.3 L 273.6,120.6 L 270.1,122.9 L 267.3,125.6 L 264.5,128.8 L 264.6,130.5 L 263.9,131.6 L 263.3,133.5 L 262.2,133.9 L 261.8,132.5 L 261.1,132.0 L 258.5,131.8 L 257.6,132.5 L 257.9,134.4 L 257.9,136.8 L 256.9,138.0 L 256.2,140.1 L 257.0,141.1 L 259.3,141.4 L 260.8,140.7 L 263.1,140.1 L 264.2,140.2 L 264.1,140.8 L 259.6,143.0 L 258.3,144.5 L 257.8,145.9 L 257.9,147.7 L 258.4,148.0 L 260.1,147.1 L 261.5,146.9 L 263.8,150.7 L 264.8,151.6 L 266.6,151.6 L 267.4,151.2 L 268.0,149.4 L 269.3,147.8 L 270.8,149.5 L 271.7,148.0 L 272.8,147.4 L 274.2,148.3 L 275.1,149.7 L 276.0,150.4 L 276.6,151.6 L 277.2,152.6 L 278.8,154.0 L 284.7,153.6 L 285.8,153.2 L 286.5,153.7 L 287.9,152.8 L 287.5,151.6 L 288.0,151.0 L 290.2,149.1 L 291.5,145.3 L 292.4,144.9 L 293.9,145.1 L 297.0,149.8 L 300.3,151.4 L 302.3,152.8 L 302.3,153.9 L 304.0,156.2 L 305.3,158.5 L 306.7,158.6 L 308.1,160.3 L 308.8,161.7 L 308.9,162.5 L 309.4,163.2 L 308.2,171.7 L 307.1,174.5 L 306.2,178.0 L 304.6,181.8 L 304.7,183.9 L 305.1,186.2 L 305.1,188.7 L 306.4,191.7 L 308.2,197.3 L 307.8,199.1 L 306.4,204.2 L 304.4,208.6 L 300.0,214.0 L 296.7,216.7 L 293.2,218.6 L 287.8,220.9 L 281.5,225.9 L 278.7,227.6 L 273.4,229.3 L 269.9,229.0 L 266.9,227.7 L 266.5,227.8 L 266.0,227.5 L 264.4,228.0 L 260.4,227.7 L 257.0,226.8 L 253.4,222.5 L 251.8,222.8 L 249.5,224.1 L 246.7,223.5 L 241.4,223.8 L 236.7,223.3 L 235.0,221.2 L 233.1,221.9 L 231.0,224.5 L 229.7,228.4 L 230.0,231.5 L 229.3,232.4 L 227.2,233.3 L 224.0,233.0 L 220.4,231.8 L 217.9,230.4 L 216.4,228.5 L 214.9,227.7 L 214.4,227.7 L 207.1,230.4 L 204.0,230.7 L 201.2,232.1 L 198.6,232.6 L 195.3,232.9 L 192.7,234.2 L 190.0,235.2 L 187.9,235.3 L 186.0,235.8 L 184.9,234.7 L 184.2,234.4 L 182.2,235.4 L 180.3,237.3 L 179.8,241.3 L 177.1,242.2 L 176.2,242.9 L 172.2,246.1 L 171.1,249.7 L 173.6,251.8 L 174.2,252.8 L 174.0,254.5 L 173.3,255.1 L 171.7,255.1 L 169.7,253.9 L 168.3,254.3 L 167.1,255.4 L 166.9,256.8 L 169.5,258.6 L 170.8,261.5 L 171.0,262.5 L 169.0,265.5 L 169.5,266.0 L 172.3,266.6 L 175.0,268.2 L 175.8,269.1 L 174.9,271.1 L 172.7,274.3 L 170.3,275.6 L 165.0,274.9 L 162.9,273.9 L 159.9,273.5 L 158.3,274.1 L 156.6,275.7 L 155.4,277.9 L 155.1,279.3 L 157.2,280.9 L 158.2,282.1 L 158.8,285.3 L 160.7,288.4 L 161.5,290.2 L 164.5,292.6 L 165.2,294.2 L 165.5,296.4 L 165.2,299.8 L 166.0,301.7 L 165.9,303.5 L 166.2,305.2 L 166.3,307.6 L 165.0,311.7 L 164.5,315.7 L 164.4,318.8 L 164.9,321.6 L 165.7,324.8 L 165.7,327.3 L 168.1,333.4 L 168.2,334.7 L 167.3,335.7 L 167.0,336.4 L 167.9,337.2 L 166.4,339.6 L 166.0,339.7 L 164.1,341.8 L 160.5,344.4 L 157.9,347.0 L 156.8,347.0 L 155.3,346.2 L 154.4,346.7 L 152.6,351.5 L 153.4,352.1 L 153.1,355.4 L 151.4,357.9 L 148.6,359.3 L 146.8,360.0 L 144.0,359.7 L 142.7,358.5 L 141.8,355.8 L 142.0,351.7 L 140.2,345.1 L 139.3,343.7 L 138.3,342.1 L 135.4,340.0 L 132.3,336.7 L 129.7,335.5 L 126.8,333.4 L 120.8,332.6 L 117.2,334.8 L 112.8,338.2 L 111.8,339.9 L 67.3,294.5 L 65.6,292.7 L 65.8,292.6 L 67.0,291.0 L 69.4,288.3 L 73.8,286.3 L 74.9,284.6 L 77.3,283.3 L 78.5,282.1 L 79.7,281.7 L 81.0,278.8 L 87.1,272.9 L 88.3,270.5 L 90.3,268.0 L 91.0,266.9 L 91.4,265.3 L 92.7,263.8 L 92.7,262.2 L 96.1,258.6 L 96.7,257.6 L 98.4,256.8 L 100.3,255.0 L 102.3,250.8 L 103.3,246.9 L 104.6,237.9 L 105.1,236.5" fill="none" stroke="black" stroke-width="2"/>
</svg>