<?xml version="1.0" encoding="UTF-8"?>
<svg width="400" height="400" viewBox="0 0 400 400" xmlns="http://www.w3.org/2000/svg">
  <rect width="400" height="400" fill="white"/>
  <path d="M 104.0,186.4 L 104.5,186.4 L 105.0,186.2 L 105.6,186.3 L 106.2,186.0 L 106.5,185.8 L 106.4,185.5 L 105.6,184.8 L 105.3,184.5 L 104.7,184.4 L 103.9,184.6 L 103.4,184.8 L 103.3,185.8 L 95.7,176.8 L 78.9,156.8 L 79.0,156.8 L 79.7,156.2 L 80.8,155.5 L 81.9,154.9 L 82.9,154.6 L 85.5,153.3 L 86.3,152.9 L 87.0,152.9 L 87.9,152.7 L 88.3,152.9 L 88.5,153.0 L 88.8,153.2 L 88.9,153.3 L 88.6,153.7 L 88.3,153.7 L 88.2,153.8 L 88.6,154.0 L 89.2,153.6 L 90.3,153.4 L 91.5,153.0 L 93.0,153.2 L 95.0,153.2 L 96.5,152.8 L 99.5,151.1 L 100.3,151.1 L 101.1,150.8 L 102.7,150.1 L 105.3,149.4 L 106.6,148.7 L 107.4,148.5 L 107.3,149.2 L 107.8,149.2 L 108.0,148.3 L 110.2,146.8 L 112.2,145.3 L 112.4,144.4 L 112.4,144.2 L 113.3,144.2 L 113.5,144.0 L 113.5,143.6 L 113.4,143.5 L 113.0,143.4 L 112.6,143.9 L 112.3,143.9 L 112.3,143.5 L 112.3,143.1 L 111.9,142.1 L 111.9,141.4 L 112.1,140.5 L 112.5,139.4 L 113.2,138.7 L 114.4,136.4 L 114.8,135.4 L 115.0,134.0 L 115.3,132.2 L 115.2,130.7 L 114.4,129.8 L 113.6,129.3 L 111.6,128.2 L 108.4,127.6 L 98.5,78.4 L 99.0,78.3 L 100.2,78.0 L 101.6,77.3 L 103.7,75.4 L 105.8,74.3 L 106.5,74.1 L 107.2,74.1 L 107.6,73.7 L 108.2,73.9 L 108.8,73.9 L 108.9,73.8 L 109.4,73.5 L 110.1,73.9 L 110.2,74.0 L 110.3,74.2 L 110.3,74.3 L 111.0,74.1 L 111.8,74.1 L 111.8,74.1 L 113.1,73.5 L 114.0,72.6 L 114.2,72.4 L 114.5,71.6 L 115.0,70.8 L 115.6,70.2 L 116.1,70.4 L 116.6,70.5 L 117.2,70.0 L 117.8,69.2 L 118.8,68.0 L 120.6,66.7 L 120.8,65.9 L 121.4,65.5 L 122.5,65.3 L 124.0,65.6 L 124.3,65.9 L 124.5,66.5 L 125.1,66.5 L 125.7,66.2 L 126.1,65.6 L 127.1,65.1 L 127.1,65.0 L 128.1,64.2 L 128.9,63.9 L 129.5,64.1 L 130.4,63.4 L 130.4,62.8 L 130.8,62.2 L 130.7,61.6 L 131.8,60.0 L 131.8,59.4 L 133.0,58.4 L 133.2,57.8 L 134.1,56.8 L 134.2,56.4 L 134.7,56.0 L 134.9,55.1 L 135.3,54.6 L 135.6,53.9 L 135.8,52.3 L 136.2,51.4 L 136.2,51.3 L 154.8,40.1 L 155.0,40.0 L 155.0,40.0 L 154.6,41.6 L 154.6,42.5 L 154.8,43.5 L 155.8,44.8 L 156.3,45.7 L 156.7,45.9 L 157.0,46.5 L 157.4,47.4 L 157.8,48.8 L 158.0,49.1 L 159.3,50.8 L 160.0,51.4 L 160.4,51.7 L 160.8,51.9 L 161.1,52.6 L 161.5,53.4 L 162.5,54.9 L 163.5,55.5 L 163.9,55.9 L 164.3,56.4 L 165.8,57.2 L 167.0,58.4 L 167.3,59.1 L 169.5,62.5 L 169.9,62.9 L 171.6,63.2 L 173.3,63.7 L 174.4,63.9 L 175.1,63.8 L 175.8,63.4 L 176.0,63.4 L 176.6,64.1 L 177.5,64.5 L 177.7,65.7 L 178.2,66.2 L 178.9,66.5 L 178.9,66.6 L 179.2,67.0 L 180.3,67.8 L 180.7,67.8 L 180.9,66.7 L 180.6,66.0 L 181.0,65.5 L 182.3,65.3 L 183.1,65.3 L 184.1,64.7 L 184.7,64.5 L 185.3,64.1 L 185.5,63.0 L 186.3,62.5 L 186.9,62.2 L 187.3,61.7 L 188.0,61.3 L 188.6,61.4 L 189.2,62.0 L 189.7,62.7 L 190.2,62.9 L 191.1,62.7 L 191.4,62.4 L 191.4,62.4 L 223.9,64.4 L 246.3,65.7 L 272.5,67.3 L 272.6,67.3 L 272.5,67.7 L 273.5,69.6 L 273.9,71.2 L 274.3,72.3 L 275.3,73.5 L 275.9,76.0 L 275.5,77.3 L 275.5,78.4 L 275.3,79.5 L 274.8,80.6 L 274.7,81.0 L 274.2,81.3 L 274.0,81.6 L 273.7,82.2 L 273.4,82.9 L 272.5,83.6 L 272.0,84.0 L 271.2,84.3 L 270.8,85.1 L 270.2,86.0 L 269.9,86.6 L 269.5,87.3 L 269.0,87.8 L 268.9,88.4 L 269.1,89.0 L 268.8,90.4 L 269.4,91.8 L 269.2,94.3 L 269.6,94.7 L 269.7,95.2 L 269.7,95.3 L 270.4,96.1 L 270.4,96.8 L 270.7,97.5 L 270.7,98.0 L 271.0,98.7 L 270.6,102.2 L 270.7,102.8 L 270.7,103.6 L 271.7,106.8 L 273.1,107.2 L 273.5,107.6 L 273.9,108.2 L 274.5,109.7 L 274.9,110.4 L 275.3,110.8 L 275.3,111.6 L 275.7,112.0 L 275.9,111.8 L 276.2,111.5 L 276.5,111.8 L 277.1,111.9 L 278.0,112.3 L 278.6,113.2 L 279.1,113.8 L 279.4,113.7 L 280.5,112.4 L 280.9,112.3 L 281.7,112.4 L 282.0,112.7 L 284.8,115.8 L 285.2,116.5 L 285.4,117.4 L 285.8,117.7 L 286.4,117.7 L 286.8,117.5 L 287.0,116.6 L 287.3,116.3 L 288.0,116.2 L 288.5,115.9 L 288.9,115.2 L 289.1,114.1 L 289.4,114.0 L 289.7,114.1 L 289.8,113.0 L 290.0,112.8 L 290.1,111.4 L 290.2,111.1 L 290.5,111.1 L 291.4,111.4 L 291.9,111.7 L 292.4,112.2 L 292.4,112.4 L 292.9,113.4 L 293.2,113.5 L 295.4,115.8 L 295.0,116.4 L 295.1,117.3 L 295.7,117.4 L 295.7,118.5 L 295.8,118.8 L 295.7,119.6 L 295.4,120.9 L 295.7,121.1 L 295.7,121.8 L 295.7,122.0 L 295.3,123.6 L 294.9,123.6 L 291.4,121.9 L 291.1,121.4 L 291.1,121.4 L 291.1,121.2 L 291.4,120.6 L 291.3,120.5 L 290.0,120.3 L 289.7,120.3 L 289.7,120.6 L 290.2,121.3 L 290.3,121.3 L 290.7,121.5 L 291.1,121.9 L 290.8,122.4 L 290.9,122.7 L 291.2,122.5 L 291.9,122.6 L 293.8,123.6 L 295.1,124.6 L 295.2,125.0 L 295.1,125.3 L 295.2,125.6 L 294.7,126.2 L 294.6,126.5 L 294.9,127.1 L 294.9,127.2 L 294.9,128.2 L 294.9,129.2 L 294.8,129.7 L 294.6,129.9 L 294.5,130.1 L 294.9,130.3 L 294.8,131.1 L 294.5,131.3 L 294.7,131.5 L 294.8,132.3 L 294.6,132.8 L 294.8,133.0 L 295.2,134.8 L 295.1,135.2 L 295.3,135.6 L 295.6,137.0 L 295.4,138.0 L 294.9,139.7 L 294.4,140.8 L 293.2,142.3 L 292.9,144.4 L 293.1,145.2 L 294.4,146.7 L 294.2,147.0 L 294.4,147.4 L 294.7,148.8 L 294.8,149.1 L 294.6,149.2 L 294.5,149.7 L 294.7,150.7 L 295.1,151.8 L 295.4,152.6 L 295.6,153.1 L 295.9,153.1 L 297.3,155.8 L 297.7,156.4 L 297.7,156.7 L 297.8,157.0 L 298.6,157.8 L 298.9,157.9 L 299.2,157.9 L 299.5,158.1 L 299.8,158.0 L 300.9,158.9 L 300.9,159.4 L 301.7,159.4 L 302.4,159.7 L 302.9,160.2 L 303.2,160.9 L 303.7,161.3 L 303.7,162.3 L 303.7,162.5 L 303.5,164.4 L 303.3,164.8 L 303.1,165.2 L 302.8,166.2 L 302.6,167.2 L 302.4,167.8 L 302.2,168.8 L 302.3,169.3 L 302.6,169.7 L 303.0,169.9 L 303.4,170.3 L 304.6,172.2 L 304.8,172.6 L 305.5,173.5 L 306.3,174.6 L 308.1,177.2 L 308.8,178.0 L 310.0,178.8 L 311.0,179.7 L 312.0,181.1 L 313.0,183.3 L 314.8,185.6 L 315.4,186.8 L 315.5,187.2 L 316.3,189.5 L 316.2,189.8 L 315.9,190.4 L 316.1,190.7 L 316.4,190.5 L 316.7,190.6 L 317.2,191.4 L 317.5,191.7 L 317.8,192.0 L 318.8,193.0 L 318.8,193.3 L 319.3,193.5 L 319.7,194.6 L 319.6,195.8 L 319.7,196.1 L 320.1,196.0 L 320.4,196.3 L 320.3,197.1 L 320.7,197.0 L 321.0,197.3 L 321.1,197.9 L 320.8,198.4 L 321.0,198.6 L 320.9,199.1 L 320.5,200.2 L 320.4,200.5 L 264.6,209.1 L 264.7,208.3 L 264.6,208.3 L 264.1,207.6 L 262.9,206.5 L 261.9,206.3 L 261.0,206.5 L 260.3,206.5 L 260.1,206.6 L 260.0,206.7 L 260.2,207.0 L 260.3,207.2 L 260.6,207.7 L 261.1,207.8 L 261.5,208.1 L 261.3,208.6 L 261.5,209.0 L 261.6,209.4 L 261.3,209.7 L 261.2,210.4 L 261.0,210.8 L 260.2,211.3 L 259.1,211.7 L 258.4,211.6 L 256.7,210.7 L 256.5,210.5 L 256.1,210.4 L 253.6,208.4 L 253.3,208.3 L 252.0,207.6 L 250.6,207.0 L 249.9,206.6 L 248.8,206.3 L 248.3,206.7 L 247.5,207.6 L 247.3,209.0 L 247.4,209.5 L 247.3,209.9 L 247.0,210.6 L 246.9,211.1 L 247.0,211.5 L 246.9,212.7 L 247.2,215.2 L 247.5,215.7 L 248.2,216.2 L 248.6,216.7 L 248.8,217.6 L 249.1,218.5 L 249.8,219.5 L 250.6,220.1 L 252.1,221.3 L 252.5,221.6 L 253.1,222.3 L 253.9,223.0 L 254.9,223.5 L 256.9,224.9 L 257.5,225.6 L 259.0,227.0 L 259.8,229.3 L 260.2,229.7 L 262.0,230.6 L 263.0,230.7 L 246.3,266.2 L 241.3,276.7 L 241.1,277.1 L 240.9,276.8 L 240.3,276.7 L 238.7,276.8 L 238.3,277.0 L 238.1,277.2 L 238.7,277.5 L 239.4,277.7 L 240.9,277.9 L 241.1,278.1 L 240.9,278.5 L 240.7,278.6 L 239.2,278.8 L 239.2,279.4 L 239.4,280.3 L 239.9,280.6 L 239.6,281.0 L 238.9,282.0 L 238.6,281.8 L 237.2,282.2 L 236.7,282.2 L 236.6,282.6 L 237.0,283.0 L 237.6,283.2 L 237.8,283.5 L 237.7,284.1 L 237.4,284.7 L 237.3,285.7 L 237.7,286.4 L 238.4,286.8 L 239.8,287.9 L 240.6,288.0 L 241.1,287.9 L 241.2,287.7 L 241.3,287.7 L 245.0,289.2 L 246.3,289.8 L 256.5,294.1 L 256.9,294.2 L 256.8,294.9 L 256.3,296.1 L 256.4,296.6 L 257.0,297.8 L 257.3,298.3 L 258.2,299.0 L 258.2,299.5 L 257.9,299.7 L 256.8,299.7 L 255.9,300.0 L 255.7,300.6 L 255.1,300.7 L 254.7,300.7 L 254.5,301.8 L 254.7,302.1 L 255.4,302.5 L 255.8,302.6 L 256.5,303.2 L 257.0,303.2 L 257.4,303.0 L 258.1,303.0 L 258.8,302.9 L 259.1,302.9 L 259.3,303.3 L 260.4,303.7 L 261.1,303.3 L 261.4,302.9 L 261.7,303.3 L 262.1,304.3 L 262.2,304.8 L 262.3,305.4 L 262.8,305.8 L 263.8,306.1 L 264.2,306.0 L 264.7,305.5 L 264.9,305.6 L 265.0,306.0 L 264.9,307.5 L 265.3,308.0 L 265.8,308.0 L 266.1,308.3 L 266.1,308.5 L 266.3,308.9 L 266.6,309.4 L 267.0,309.9 L 267.9,310.3 L 267.7,311.0 L 267.7,311.2 L 267.9,311.5 L 269.2,312.0 L 269.5,312.4 L 270.1,312.6 L 270.4,312.8 L 270.8,312.9 L 271.3,313.0 L 271.5,313.3 L 271.8,314.4 L 271.8,314.9 L 272.5,316.9 L 272.5,317.4 L 271.4,318.2 L 271.6,318.6 L 272.0,318.9 L 272.2,319.5 L 272.6,320.1 L 272.8,320.6 L 272.7,321.9 L 273.1,322.9 L 273.0,323.0 L 246.3,345.0 L 238.1,351.9 L 237.5,352.4 L 237.2,352.5 L 236.4,351.7 L 236.1,351.6 L 235.5,351.9 L 235.2,352.1 L 235.2,352.5 L 235.8,353.5 L 236.0,355.0 L 236.2,355.9 L 237.4,359.3 L 237.7,359.8 L 237.1,359.8 L 236.6,360.0 L 236.2,360.0 L 236.0,359.4 L 235.9,358.7 L 235.4,357.3 L 234.2,354.9 L 232.5,352.9 L 232.0,352.8 L 226.9,349.7 L 227.4,349.6 L 227.7,349.3 L 227.6,348.5 L 227.8,347.8 L 227.7,347.2 L 227.6,346.9 L 227.4,346.7 L 226.6,346.8 L 226.1,346.5 L 226.1,346.1 L 226.5,345.8 L 227.0,345.6 L 227.3,345.4 L 227.3,345.0 L 226.9,344.4 L 226.7,344.3 L 226.1,344.5 L 224.6,343.6 L 224.5,343.6 L 224.3,343.3 L 223.3,343.2 L 223.0,342.9 L 223.1,341.5 L 222.7,341.2 L 222.5,340.4 L 222.2,340.3 L 221.9,340.0 L 221.4,339.8 L 220.9,339.9 L 220.8,340.1 L 221.0,340.5 L 220.6,341.1 L 220.3,341.7 L 220.4,342.3 L 220.2,342.8 L 220.4,343.2 L 220.4,343.2 L 220.5,343.8 L 220.3,343.8 L 220.2,343.6 L 219.9,343.2 L 219.6,342.7 L 219.5,341.9 L 219.2,341.7 L 218.7,341.9 L 218.4,342.4 L 218.6,343.0 L 218.6,343.1 L 219.0,343.5 L 218.8,343.7 L 218.5,343.4 L 218.2,343.6 L 218.0,344.0 L 217.3,343.9 L 217.0,344.3 L 212.0,348.0 L 211.0,346.7 L 209.5,346.5 L 209.3,346.4 L 209.0,345.2 L 208.7,344.7 L 208.0,344.1 L 207.3,344.0 L 206.8,344.2 L 206.0,344.7 L 205.6,345.2 L 205.7,345.6 L 205.4,345.4 L 195.9,338.7 L 196.1,338.5 L 196.1,338.1 L 195.6,336.8 L 195.3,336.3 L 194.6,335.7 L 193.9,335.6 L 193.4,335.7 L 193.4,335.6 L 192.3,332.4 L 193.2,331.7 L 193.8,331.0 L 193.9,330.3 L 193.8,329.5 L 193.6,329.1 L 193.2,328.8 L 193.0,328.5 L 192.5,327.6 L 192.1,327.5 L 191.2,327.6 L 190.8,327.7 L 190.3,327.4 L 189.3,327.2 L 188.1,327.3 L 187.2,327.6 L 187.2,327.8 L 186.7,327.6 L 172.4,320.6 L 172.5,320.1 L 173.0,319.7 L 173.2,318.0 L 172.9,317.1 L 173.1,316.4 L 173.5,315.3 L 174.6,314.1 L 175.1,313.0 L 176.0,312.4 L 177.0,311.6 L 177.0,311.6 L 177.3,311.7 L 178.0,311.4 L 178.3,311.4 L 178.6,311.1 L 178.4,310.9 L 177.9,309.1 L 177.6,308.7 L 177.4,308.7 L 177.4,308.7 L 177.2,308.6 L 176.8,308.1 L 176.5,307.3 L 176.1,306.5 L 175.8,305.8 L 175.0,305.3 L 174.7,305.0 L 174.2,305.0 L 173.0,304.8 L 172.6,304.4 L 171.9,303.7 L 171.5,303.7 L 170.8,303.9 L 170.6,304.1 L 170.4,304.7 L 169.5,305.1 L 168.6,305.2 L 168.4,305.3 L 168.3,305.4 L 166.1,303.3 L 166.7,302.5 L 166.7,302.3 L 166.0,301.7 L 166.1,300.7 L 166.4,300.0 L 166.5,299.0 L 166.3,297.7 L 165.8,296.9 L 165.2,295.9 L 164.1,294.9 L 162.0,293.6 L 161.5,292.7 L 160.3,291.6 L 159.8,291.2 L 158.9,290.1 L 158.5,289.5 L 158.0,288.8 L 157.4,288.4 L 156.7,288.2 L 156.6,288.2 L 156.1,288.3 L 155.7,288.0 L 155.5,287.5 L 154.5,287.3 L 153.8,287.6 L 153.4,287.6 L 153.0,287.7 L 153.0,288.0 L 153.3,288.2 L 153.6,288.4 L 153.7,288.7 L 153.0,289.1 L 152.1,289.9 L 151.4,289.2 L 145.0,283.0 L 145.1,283.0 L 145.3,282.7 L 145.1,282.5 L 144.6,282.3 L 144.5,282.1 L 144.5,280.8 L 144.5,279.4 L 143.9,278.4 L 143.9,277.7 L 143.8,277.5 L 143.4,277.4 L 143.1,277.7 L 142.8,278.5 L 142.5,278.9 L 142.2,278.9 L 141.9,278.6 L 141.4,277.7 L 141.0,277.2 L 140.6,276.4 L 140.2,276.1 L 139.7,276.0 L 139.5,275.8 L 138.9,275.0 L 138.8,274.2 L 138.5,273.7 L 138.1,273.3 L 137.1,272.6 L 136.2,272.1 L 135.7,271.9 L 135.2,272.1 L 134.7,272.7 L 134.3,273.9 L 133.7,274.5 L 133.6,275.0 L 133.8,275.6 L 134.3,276.0 L 135.2,276.1 L 135.5,276.5 L 135.3,276.8 L 134.6,276.8 L 134.0,276.9 L 133.4,277.3 L 132.9,277.3 L 132.7,277.1 L 132.7,277.0 L 132.5,276.6 L 132.1,276.6 L 131.7,276.8 L 131.2,277.3 L 131.0,277.8 L 131.2,278.3 L 130.9,278.8 L 130.3,279.2 L 129.8,279.9 L 129.1,280.4 L 128.6,281.2 L 128.4,281.5 L 128.4,281.7 L 128.4,281.7 L 118.6,279.8 L 118.4,279.2 L 118.3,278.6 L 118.1,277.7 L 118.3,276.7 L 118.0,276.0 L 116.9,274.9 L 116.6,274.5 L 116.2,274.1 L 115.1,274.5 L 115.0,275.0 L 115.1,276.1 L 115.1,276.6 L 114.9,276.5 L 113.7,276.1 L 113.6,276.1 L 113.8,275.7 L 113.9,275.1 L 113.7,274.8 L 113.1,274.4 L 112.6,274.6 L 112.4,275.4 L 112.3,275.9 L 111.5,276.9 L 111.1,277.0 L 111.0,276.9 L 110.8,275.4 L 110.8,274.7 L 111.8,274.0 L 113.0,272.5 L 113.3,272.4 L 113.7,272.4 L 114.0,272.3 L 114.8,271.8 L 115.1,271.5 L 115.1,270.8 L 115.1,269.9 L 115.1,268.8 L 114.6,266.7 L 114.7,266.2 L 115.1,266.2 L 115.4,266.4 L 115.8,266.4 L 116.0,266.1 L 116.1,265.7 L 115.8,265.2 L 115.4,264.8 L 115.2,264.5 L 115.5,264.4 L 116.1,264.6 L 116.8,264.6 L 118.0,264.3 L 118.5,264.0 L 118.8,263.2 L 118.9,262.3 L 118.5,261.8 L 118.2,261.2 L 118.4,260.8 L 118.8,260.5 L 118.7,260.2 L 118.4,259.6 L 118.5,259.3 L 119.2,258.9 L 119.2,257.5 L 119.0,256.8 L 118.6,255.4 L 118.6,255.4 L 118.0,255.1 L 117.7,254.6 L 118.1,253.7 L 118.1,253.2 L 117.6,252.3 L 117.6,251.2 L 117.5,250.6 L 117.4,249.1 L 117.3,248.2 L 116.8,247.5 L 116.3,247.1 L 115.6,247.1 L 115.5,246.7 L 115.9,245.9 L 115.8,245.2 L 115.8,244.6 L 115.9,244.1 L 116.2,243.7 L 116.4,242.8 L 117.2,242.0 L 117.4,240.8 L 117.4,240.7 L 117.1,240.6 L 116.3,240.0 L 115.9,240.0 L 115.3,240.6 L 114.9,240.9 L 113.0,243.0 L 112.5,243.2 L 111.5,244.0 L 110.9,244.6 L 110.5,244.8 L 109.8,244.5 L 109.3,244.6 L 108.3,245.3 L 108.0,245.9 L 107.6,246.5 L 107.0,247.0 L 105.9,247.3 L 105.4,247.6 L 105.4,247.8 L 106.0,248.8 L 106.1,249.6 L 106.0,250.5 L 105.5,250.7 L 105.2,251.0 L 104.7,251.9 L 104.7,253.2 L 92.1,249.5 L 92.2,249.3 L 91.8,248.8 L 91.2,248.3 L 91.2,248.1 L 91.7,247.8 L 92.4,247.4 L 92.4,247.3 L 94.3,245.4 L 94.4,244.8 L 94.3,244.3 L 93.6,243.3 L 92.8,242.5 L 93.0,242.2 L 93.5,241.8 L 94.2,241.6 L 95.6,240.8 L 95.8,240.6 L 95.6,240.4 L 93.9,240.1 L 93.1,240.4 L 93.0,240.4 L 92.6,240.3 L 92.6,240.1 L 93.1,239.8 L 93.7,239.4 L 94.8,239.0 L 95.1,238.7 L 95.1,238.4 L 94.8,238.0 L 95.0,237.5 L 95.1,237.0 L 93.4,235.5 L 91.8,234.0 L 91.3,233.8 L 91.2,233.4 L 91.4,232.9 L 91.5,232.3 L 90.5,231.3 L 90.4,230.7 L 90.6,229.5 L 91.8,228.8 L 93.0,228.3 L 93.9,227.8 L 94.2,227.4 L 94.2,227.3 L 94.9,227.4 L 95.3,227.6 L 95.8,227.5 L 97.1,226.6 L 97.2,226.1 L 97.2,225.8 L 96.9,225.4 L 97.3,224.9 L 97.3,224.6 L 95.9,224.4 L 95.8,223.9 L 95.7,223.2 L 95.9,222.9 L 96.5,222.5 L 96.6,222.1 L 96.4,221.7 L 96.8,220.8 L 97.1,220.6 L 97.7,220.7 L 98.0,220.9 L 98.3,221.0 L 99.1,220.8 L 100.0,220.1 L 100.3,218.0 L 100.2,217.7 L 99.8,217.1 L 99.1,217.0 L 98.4,217.5 L 97.7,218.7 L 97.3,218.9 L 97.0,218.7 L 97.0,218.7 L 97.0,218.7 L 94.0,214.0 L 94.6,213.7 L 94.6,213.2 L 94.9,212.6 L 95.6,211.9 L 95.6,211.8 L 96.1,210.3 L 97.2,210.0 L 97.9,209.4 L 98.6,208.6 L 98.7,208.3 L 98.8,207.5 L 98.7,207.2 L 98.9,206.8 L 99.6,206.4 L 99.6,205.3 L 100.0,205.1 L 100.8,205.2 L 101.3,205.4 L 102.0,205.2 L 103.7,204.3 L 104.4,204.2 L 105.3,204.3 L 105.7,203.9 L 105.7,203.7 L 105.6,203.4 L 106.2,202.9 L 106.1,202.4 L 105.8,201.5 L 105.7,201.1 L 105.7,200.6 L 105.5,200.3 L 106.0,199.9 L 106.1,199.8 L 105.9,199.3 L 105.8,198.7 L 107.8,198.3 L 107.9,198.4 L 108.4,198.4 L 108.6,198.4 L 109.2,198.3 L 110.7,198.6 L 111.2,198.5 L 112.5,197.9 L 113.1,198.0 L 113.4,198.2 L 113.3,199.6 L 113.5,199.9 L 113.9,199.8 L 114.6,199.3 L 114.8,199.3 L 115.0,199.5 L 115.5,200.0 L 116.2,199.9 L 117.8,199.1 L 118.0,198.8 L 117.6,198.4 L 116.9,198.2 L 116.1,198.2 L 115.8,198.1 L 115.6,197.6 L 115.8,195.8 L 113.4,195.5 L 112.6,195.1 L 112.1,195.0 L 111.5,195.1 L 111.1,195.0 L 111.1,195.0 L 108.5,191.9 L 108.6,191.9 L 109.3,191.3 L 109.9,191.0 L 109.8,190.8 L 109.5,190.6 L 109.5,190.4 L 109.2,190.1 L 109.0,190.1 L 108.7,190.2 L 108.4,190.6 L 107.8,191.1 L 103.6,186.2 L 104.0,186.4" fill="none" stroke="black" stroke-width="2"/>
</svg>