<?xml version="1.0" encoding="UTF-8"?>
<svg width="400" height="400" viewBox="0 0 400 400" xmlns="http://www.w3.org/2000/svg">
  <rect width="400" height="400" fill="white"/>
  <path d="M 99.6,222.7 L 99.4,222.6 L 98.1,221.5 L 97.3,220.3 L 97.3,219.2 L 96.9,217.3 L 95.4,217.4 L 94.1,217.8 L 92.8,217.2 L 91.1,217.3 L 90.2,218.4 L 90.2,219.6 L 90.0,220.3 L 88.9,220.4 L 87.3,220.3 L 86.3,219.6 L 86.1,218.4 L 86.3,216.8 L 86.5,215.5 L 87.0,214.4 L 89.0,213.2 L 91.0,212.2 L 92.7,211.3 L 93.1,210.2 L 92.8,208.7 L 92.5,207.8 L 93.5,208.0 L 93.5,207.4 L 90.2,206.3 L 90.0,207.3 L 88.3,206.7 L 86.6,206.4 L 86.2,206.1 L 86.1,204.7 L 86.0,204.4 L 86.1,204.0 L 82.9,199.5 L 83.1,199.1 L 82.4,198.4 L 79.2,199.8 L 79.1,200.4 L 77.5,200.3 L 77.6,199.6 L 76.0,199.5 L 76.1,198.4 L 77.2,198.6 L 79.8,193.6 L 81.9,194.5 L 82.4,193.9 L 77.5,191.4 L 76.7,191.5 L 75.5,193.1 L 70.9,194.4 L 71.2,195.2 L 69.4,194.7 L 68.6,193.8 L 71.9,191.7 L 73.2,192.3 L 73.6,191.1 L 72.3,189.9 L 72.4,188.9 L 70.8,188.3 L 71.0,187.8 L 71.4,186.8 L 70.2,186.6 L 69.5,186.8 L 69.4,186.7 L 68.5,186.6 L 68.1,186.8 L 68.2,187.0 L 67.9,187.9 L 65.0,187.5 L 64.5,181.7 L 65.2,181.3 L 66.2,181.0 L 65.7,180.5 L 66.5,179.4 L 67.4,178.7 L 68.2,178.1 L 69.1,177.4 L 68.9,177.3 L 68.3,176.7 L 68.0,175.8 L 67.7,175.1 L 66.7,174.5 L 65.4,174.8 L 65.4,174.3 L 64.9,173.7 L 64.3,172.9 L 63.6,172.8 L 62.3,172.8 L 61.8,172.8 L 61.4,171.8 L 62.4,171.3 L 64.1,170.2 L 65.0,168.8 L 64.7,167.9 L 64.2,167.8 L 63.6,167.0 L 64.1,166.2 L 65.2,165.5 L 66.1,164.8 L 66.6,164.2 L 65.4,163.4 L 64.4,162.5 L 62.9,161.2 L 61.4,160.3 L 61.2,160.3 L 61.8,156.3 L 63.0,156.4 L 63.2,156.5 L 63.9,156.5 L 64.8,156.0 L 65.2,155.4 L 65.3,155.0 L 65.2,153.7 L 65.4,151.8 L 66.1,151.1 L 67.0,150.9 L 68.4,150.8 L 69.2,151.0 L 70.3,151.4 L 70.8,151.2 L 71.4,150.8 L 72.1,150.7 L 72.3,149.5 L 72.0,149.2 L 71.3,149.4 L 70.7,149.6 L 70.1,148.6 L 67.9,146.7 L 67.7,146.0 L 67.7,145.3 L 67.3,144.7 L 66.8,143.7 L 66.1,143.5 L 64.7,143.6 L 61.4,142.8 L 60.2,143.1 L 59.1,144.0 L 58.9,144.3 L 58.6,143.7 L 56.3,138.9 L 56.7,138.5 L 59.0,135.9 L 58.6,134.7 L 60.3,133.2 L 60.6,132.3 L 60.2,131.6 L 60.2,130.4 L 58.7,128.4 L 57.4,128.0 L 56.5,128.1 L 54.0,128.9 L 53.3,128.8 L 53.1,128.3 L 53.4,126.0 L 53.2,125.1 L 53.5,124.8 L 54.3,124.2 L 54.5,122.7 L 54.0,122.0 L 53.0,121.0 L 52.3,120.0 L 51.4,120.8 L 49.4,121.2 L 48.9,120.0 L 48.2,119.2 L 47.2,117.5 L 46.4,116.8 L 45.9,115.6 L 45.4,114.8 L 44.3,113.9 L 43.6,113.8 L 42.4,112.9 L 42.0,111.9 L 42.2,111.1 L 41.5,110.6 L 40.5,109.8 L 40.0,109.1 L 40.2,108.9 L 40.5,108.0 L 40.2,107.5 L 40.1,107.2 L 40.3,106.2 L 41.0,105.7 L 42.1,105.7 L 43.2,105.4 L 43.9,105.8 L 44.9,106.8 L 45.7,107.6 L 45.9,108.0 L 46.3,108.7 L 46.9,109.6 L 47.8,110.5 L 48.1,110.9 L 48.6,111.2 L 49.4,112.0 L 50.5,113.0 L 51.1,114.2 L 51.9,114.5 L 53.1,116.1 L 52.0,116.6 L 51.8,117.8 L 52.5,118.5 L 53.0,119.1 L 54.0,119.3 L 54.9,119.0 L 56.8,119.0 L 58.0,119.0 L 58.8,118.6 L 59.5,119.6 L 60.1,120.1 L 60.7,120.8 L 60.9,122.3 L 61.0,122.8 L 60.6,123.5 L 59.7,124.1 L 59.9,124.4 L 60.6,124.0 L 62.0,124.9 L 62.7,125.3 L 64.0,124.4 L 64.9,124.5 L 66.0,124.8 L 66.4,125.3 L 65.4,126.0 L 65.1,127.2 L 64.6,128.0 L 64.0,128.7 L 63.4,129.7 L 63.2,131.0 L 66.5,132.9 L 67.2,132.9 L 67.6,132.6 L 67.8,131.2 L 68.6,130.2 L 70.1,129.1 L 71.1,128.6 L 71.4,127.9 L 71.2,127.3 L 70.8,127.0 L 70.4,127.0 L 70.1,127.0 L 69.9,126.7 L 69.9,125.7 L 70.1,125.4 L 70.6,125.1 L 71.7,124.3 L 72.3,123.4 L 72.6,122.8 L 72.9,122.4 L 74.8,121.4 L 76.3,121.0 L 80.0,121.5 L 81.3,121.7 L 82.6,120.8 L 83.6,119.8 L 85.9,118.8 L 86.8,118.0 L 88.3,116.1 L 88.7,115.3 L 88.4,114.1 L 87.2,112.2 L 86.8,111.9 L 86.6,111.7 L 86.1,111.1 L 86.0,110.6 L 86.4,109.9 L 87.8,108.9 L 87.9,108.3 L 87.1,106.9 L 85.9,105.6 L 87.2,105.2 L 87.4,104.1 L 87.2,103.0 L 87.0,101.4 L 86.9,100.7 L 86.0,100.1 L 85.9,99.1 L 84.5,95.3 L 83.9,93.1 L 83.0,90.4 L 82.7,90.1 L 82.2,89.8 L 80.7,88.3 L 79.4,87.3 L 78.6,87.7 L 77.7,86.3 L 76.7,86.1 L 76.3,84.2 L 77.7,84.3 L 77.6,84.0 L 77.1,82.7 L 77.5,82.4 L 77.6,82.3 L 77.9,82.4 L 78.3,82.7 L 78.4,82.5 L 79.2,81.2 L 79.7,79.9 L 80.8,78.6 L 80.4,77.7 L 80.4,77.3 L 81.1,77.0 L 80.9,75.2 L 79.8,75.4 L 78.6,73.7 L 77.4,72.9 L 75.9,71.7 L 75.3,70.8 L 75.0,66.6 L 75.1,65.4 L 74.8,65.1 L 74.4,64.6 L 74.4,64.1 L 75.2,62.8 L 76.4,63.0 L 76.2,62.6 L 75.8,62.1 L 76.1,61.8 L 76.6,61.7 L 77.8,61.8 L 79.4,60.9 L 81.2,60.9 L 82.6,60.8 L 83.7,60.9 L 84.9,61.6 L 86.2,61.8 L 87.7,62.8 L 89.2,63.3 L 89.4,63.6 L 89.7,64.4 L 89.3,64.8 L 89.3,65.0 L 89.5,65.3 L 89.9,65.6 L 89.9,65.9 L 90.0,66.1 L 90.6,66.2 L 91.1,66.0 L 91.3,66.1 L 91.5,66.2 L 91.6,67.0 L 91.5,67.4 L 89.3,70.7 L 89.4,70.9 L 89.6,71.0 L 91.4,68.5 L 92.1,67.8 L 92.8,67.8 L 93.7,68.0 L 94.6,68.1 L 95.5,68.3 L 96.6,68.5 L 97.6,68.6 L 98.6,68.8 L 99.5,69.0 L 100.1,69.0 L 93.5,78.6 L 93.6,79.1 L 93.8,79.0 L 100.8,69.3 L 101.0,68.5 L 101.0,68.0 L 100.7,67.6 L 100.7,67.0 L 100.5,66.2 L 100.3,65.5 L 118.8,67.0 L 119.1,68.5 L 121.8,70.5 L 123.1,71.9 L 123.8,72.7 L 123.7,73.3 L 122.9,75.5 L 122.4,76.3 L 120.4,77.5 L 120.2,79.2 L 120.8,80.1 L 121.3,81.5 L 122.1,82.5 L 123.4,83.5 L 124.7,84.8 L 126.9,85.3 L 127.1,85.9 L 126.3,86.2 L 125.7,86.9 L 125.9,87.4 L 126.3,87.9 L 126.9,87.8 L 128.2,87.0 L 128.7,85.9 L 149.1,91.9 L 149.1,92.3 L 149.1,92.4 L 149.6,93.3 L 150.0,94.4 L 150.1,96.0 L 150.7,96.7 L 150.7,97.3 L 150.2,98.0 L 149.9,99.4 L 149.5,99.9 L 148.6,99.7 L 148.0,100.1 L 147.4,100.8 L 147.2,103.2 L 147.0,105.0 L 146.2,105.8 L 146.1,107.1 L 146.0,108.6 L 146.2,109.2 L 147.0,109.5 L 149.6,109.7 L 150.2,109.2 L 150.3,108.6 L 150.1,108.2 L 150.4,107.9 L 150.8,107.8 L 152.0,107.8 L 152.7,107.6 L 153.2,108.2 L 152.9,109.8 L 152.2,110.8 L 152.0,112.2 L 152.4,112.8 L 153.4,113.3 L 154.4,113.3 L 155.2,112.5 L 155.8,110.4 L 156.2,110.0 L 156.5,110.2 L 156.6,111.3 L 157.3,111.7 L 157.3,112.7 L 157.6,112.8 L 158.4,112.7 L 158.6,112.9 L 158.8,113.3 L 158.5,113.8 L 156.5,114.4 L 155.1,115.2 L 154.3,115.2 L 152.1,117.5 L 152.1,117.6 L 151.6,121.0 L 151.1,122.4 L 150.9,123.1 L 150.9,124.0 L 150.8,125.4 L 151.6,127.1 L 152.2,128.5 L 152.1,129.2 L 151.7,130.2 L 152.1,130.5 L 152.6,131.8 L 152.5,133.2 L 152.8,133.5 L 154.1,133.5 L 154.7,133.8 L 154.8,134.5 L 155.2,135.0 L 156.9,135.1 L 158.0,134.7 L 158.5,134.3 L 158.7,133.6 L 159.0,131.6 L 159.4,131.5 L 160.3,132.3 L 161.3,132.5 L 161.8,133.0 L 162.7,133.1 L 163.5,132.5 L 163.6,131.5 L 163.5,130.0 L 163.5,129.0 L 163.6,128.9 L 163.7,129.0 L 165.6,129.7 L 165.9,129.8 L 165.8,130.9 L 164.9,132.1 L 165.6,133.3 L 165.6,134.6 L 165.8,135.4 L 166.4,136.0 L 166.7,136.6 L 166.5,136.9 L 166.2,138.1 L 166.6,138.6 L 167.6,138.6 L 168.7,138.0 L 169.5,136.5 L 170.2,135.9 L 171.6,135.0 L 171.6,135.0 L 187.4,138.0 L 187.4,138.0 L 187.1,139.1 L 187.4,139.8 L 188.4,140.5 L 188.7,140.9 L 190.8,141.9 L 191.6,141.9 L 193.3,141.2 L 193.9,141.2 L 194.3,141.6 L 195.5,144.4 L 195.2,146.3 L 195.6,148.3 L 197.1,150.3 L 198.1,150.7 L 198.6,151.1 L 198.7,151.5 L 199.1,151.6 L 199.6,151.6 L 200.0,151.5 L 200.6,151.6 L 201.3,151.9 L 202.6,151.3 L 203.8,150.3 L 204.5,149.3 L 204.4,148.7 L 204.1,148.3 L 203.4,148.0 L 203.2,147.6 L 203.4,146.8 L 204.8,145.8 L 205.6,144.9 L 205.7,144.1 L 205.2,143.1 L 205.4,142.6 L 206.4,141.2 L 206.8,140.3 L 206.6,139.2 L 207.0,138.9 L 208.2,138.8 L 208.5,139.0 L 209.3,140.1 L 210.6,140.7 L 211.3,140.7 L 213.4,140.0 L 214.3,140.0 L 224.7,150.2 L 225.8,151.3 L 225.6,151.5 L 224.7,153.1 L 223.5,153.2 L 223.0,153.5 L 223.1,154.9 L 222.0,156.4 L 221.7,157.2 L 222.4,157.9 L 224.2,160.4 L 225.0,160.6 L 225.8,160.4 L 226.4,160.5 L 227.0,161.3 L 227.0,161.8 L 226.4,162.2 L 225.0,162.0 L 224.3,162.2 L 223.6,163.1 L 222.8,164.6 L 222.7,165.5 L 223.9,166.8 L 224.1,168.3 L 225.1,169.3 L 227.1,169.5 L 227.8,168.6 L 228.1,168.5 L 228.5,169.0 L 228.6,169.5 L 228.4,170.2 L 227.7,170.8 L 227.5,171.8 L 227.8,173.0 L 228.7,174.0 L 228.8,174.1 L 230.4,174.8 L 230.7,175.1 L 232.0,175.9 L 232.6,176.6 L 232.6,177.2 L 232.9,178.0 L 232.9,178.5 L 233.1,178.6 L 233.6,178.6 L 234.9,178.8 L 235.1,178.9 L 236.1,178.9 L 237.0,178.2 L 238.6,177.9 L 239.6,176.6 L 240.7,175.5 L 241.9,175.1 L 242.5,175.0 L 243.2,174.4 L 244.9,174.1 L 246.3,174.1 L 248.0,173.5 L 248.4,173.0 L 251.9,176.3 L 251.5,177.1 L 248.0,179.1 L 246.7,180.5 L 245.4,181.7 L 244.8,182.7 L 244.6,183.7 L 245.0,186.3 L 244.8,187.8 L 244.3,188.8 L 243.1,190.1 L 241.8,191.7 L 241.0,192.3 L 239.9,192.6 L 237.9,192.3 L 235.5,192.4 L 233.2,193.0 L 231.8,193.2 L 231.2,193.4 L 230.8,193.9 L 230.6,194.9 L 231.3,195.4 L 231.6,196.5 L 232.2,197.0 L 234.6,197.6 L 235.5,198.4 L 236.7,199.0 L 240.3,199.5 L 240.9,200.0 L 241.8,200.2 L 244.4,199.8 L 244.9,199.9 L 245.4,200.6 L 245.3,201.6 L 244.4,203.7 L 243.1,204.7 L 241.8,205.3 L 240.2,205.2 L 239.7,204.7 L 239.6,203.9 L 238.9,203.8 L 237.5,204.2 L 237.0,204.2 L 237.2,202.8 L 237.1,202.4 L 235.4,202.0 L 233.3,202.2 L 231.1,203.4 L 229.6,204.6 L 228.9,206.2 L 228.7,207.7 L 229.1,209.0 L 231.9,213.2 L 233.0,213.8 L 236.2,215.2 L 239.5,217.0 L 242.3,217.3 L 243.5,217.9 L 244.8,218.0 L 246.9,217.3 L 251.0,215.6 L 251.5,215.2 L 252.4,213.2 L 252.1,212.4 L 251.7,211.7 L 251.1,210.2 L 251.3,208.9 L 252.1,208.1 L 253.2,207.6 L 254.5,207.5 L 255.2,207.8 L 255.7,207.8 L 256.7,207.0 L 257.2,206.2 L 256.9,203.7 L 257.3,203.2 L 258.2,202.3 L 258.6,200.8 L 281.7,212.2 L 282.5,212.6 L 282.6,213.8 L 282.5,214.7 L 283.6,216.9 L 283.6,217.7 L 284.3,218.3 L 284.8,218.5 L 285.3,218.8 L 286.0,219.4 L 288.4,219.8 L 290.7,220.1 L 290.7,220.1 L 292.6,225.2 L 292.6,225.3 L 292.5,225.3 L 291.1,225.9 L 291.3,226.4 L 292.3,227.5 L 292.4,228.1 L 292.1,228.6 L 291.4,228.9 L 290.4,228.1 L 289.9,227.5 L 288.6,226.9 L 288.2,227.0 L 288.1,227.6 L 288.4,228.5 L 289.1,229.9 L 290.5,231.1 L 290.9,231.6 L 292.7,231.7 L 293.6,231.0 L 294.3,231.0 L 294.9,230.8 L 296.5,230.3 L 296.6,230.2 L 311.9,240.9 L 312.4,241.3 L 312.4,241.7 L 312.9,242.8 L 313.9,242.4 L 314.5,242.1 L 315.4,243.2 L 314.4,244.7 L 314.4,246.0 L 316.6,247.7 L 319.3,247.7 L 320.7,247.1 L 321.7,246.3 L 322.8,245.4 L 322.6,245.2 L 330.7,239.3 L 331.2,239.6 L 331.7,239.8 L 331.7,240.8 L 332.8,242.3 L 333.4,242.4 L 334.2,243.2 L 334.9,243.5 L 336.0,243.3 L 337.3,242.9 L 337.9,241.5 L 338.4,241.7 L 338.7,242.6 L 338.9,242.7 L 339.9,242.2 L 341.4,242.4 L 342.0,243.0 L 341.7,243.4 L 341.0,243.5 L 340.6,243.9 L 340.5,244.3 L 341.1,245.2 L 342.5,245.5 L 343.3,246.8 L 344.1,246.6 L 345.1,246.9 L 346.0,248.1 L 346.7,247.9 L 354.9,253.0 L 354.9,253.0 L 354.2,253.0 L 353.6,253.2 L 353.2,253.6 L 353.1,254.3 L 353.4,255.0 L 354.4,257.1 L 354.5,257.3 L 355.8,259.3 L 356.6,260.4 L 358.9,263.1 L 359.7,264.3 L 360.0,265.1 L 359.6,265.5 L 358.9,265.7 L 356.5,265.3 L 355.6,264.9 L 354.3,263.6 L 353.5,263.4 L 352.3,263.0 L 351.9,262.9 L 350.2,261.7 L 349.5,261.4 L 348.1,261.6 L 346.9,261.2 L 346.6,261.5 L 345.1,262.3 L 344.3,262.2 L 342.8,261.6 L 341.9,260.6 L 339.9,260.2 L 339.6,259.7 L 338.9,259.1 L 336.8,258.9 L 335.4,259.1 L 334.5,258.3 L 332.7,257.7 L 331.4,257.7 L 329.5,257.1 L 328.4,257.2 L 327.2,256.2 L 326.2,255.7 L 325.2,255.8 L 324.0,255.7 L 323.2,255.8 L 321.1,255.6 L 320.1,256.5 L 319.7,256.7 L 318.7,256.6 L 317.0,255.5 L 315.2,255.3 L 313.9,255.7 L 312.9,256.4 L 312.2,257.4 L 311.4,257.5 L 310.1,257.3 L 309.5,256.9 L 309.1,257.1 L 308.2,258.6 L 307.9,258.8 L 307.7,259.7 L 307.5,260.5 L 306.0,262.0 L 305.3,263.1 L 304.8,265.7 L 304.5,266.1 L 304.1,266.1 L 303.0,265.6 L 301.8,263.8 L 301.7,262.6 L 301.2,261.7 L 300.5,261.1 L 299.9,261.0 L 298.1,261.7 L 296.8,262.8 L 295.7,263.7 L 295.5,265.3 L 295.9,265.8 L 296.5,266.3 L 297.4,267.1 L 298.5,268.4 L 298.0,268.8 L 297.4,269.1 L 297.3,269.8 L 297.7,270.8 L 297.9,272.4 L 298.1,273.2 L 297.0,274.4 L 296.9,275.2 L 297.9,275.7 L 298.5,275.5 L 298.9,275.1 L 299.5,275.9 L 299.6,276.1 L 299.4,276.8 L 298.6,276.7 L 298.5,277.6 L 299.9,278.0 L 300.1,278.4 L 299.8,278.9 L 299.2,279.4 L 298.5,279.5 L 297.2,280.8 L 296.6,281.1 L 296.1,281.7 L 296.0,282.5 L 296.5,283.5 L 296.6,284.1 L 296.1,285.1 L 295.5,285.5 L 294.8,285.2 L 294.4,285.0 L 293.8,285.0 L 293.7,285.2 L 293.6,285.8 L 294.5,287.4 L 294.6,287.7 L 294.9,288.8 L 294.8,289.3 L 294.9,289.9 L 296.1,292.8 L 296.3,295.7 L 296.5,296.4 L 295.9,296.6 L 295.0,296.5 L 294.0,297.3 L 293.8,298.3 L 293.6,298.4 L 293.0,298.8 L 292.4,298.7 L 291.4,298.0 L 290.9,298.4 L 290.5,299.5 L 290.5,300.7 L 292.6,303.7 L 293.1,304.2 L 293.5,304.7 L 295.6,306.5 L 296.3,307.6 L 296.5,308.8 L 297.7,310.6 L 298.6,312.2 L 299.3,314.1 L 299.3,315.0 L 298.7,315.9 L 298.4,315.6 L 298.2,315.3 L 297.6,315.1 L 296.7,314.5 L 295.8,311.3 L 294.6,309.5 L 293.5,306.9 L 292.9,306.1 L 292.3,305.5 L 291.1,303.6 L 287.3,297.3 L 285.1,293.5 L 282.4,290.2 L 281.7,290.1 L 280.6,290.6 L 280.1,290.4 L 278.1,288.0 L 277.0,287.6 L 274.7,288.6 L 274.1,289.3 L 263.3,284.5 L 263.5,284.2 L 263.8,283.0 L 263.2,280.4 L 261.9,278.9 L 261.7,278.8 L 261.4,278.2 L 260.9,276.2 L 260.9,275.4 L 260.2,273.6 L 260.1,273.3 L 260.0,271.5 L 260.5,270.9 L 260.8,270.7 L 260.9,269.5 L 260.7,269.1 L 259.1,265.8 L 257.8,264.4 L 256.6,262.8 L 256.7,262.0 L 257.2,261.6 L 258.0,260.7 L 257.9,259.4 L 257.5,258.6 L 256.7,257.8 L 256.3,257.5 L 255.3,256.8 L 255.0,255.9 L 255.5,255.0 L 255.7,254.3 L 256.2,253.6 L 255.9,253.0 L 254.8,252.9 L 253.3,253.3 L 252.4,253.3 L 251.8,252.9 L 250.8,251.9 L 250.2,251.6 L 249.8,251.8 L 249.0,252.8 L 249.2,253.6 L 248.9,253.9 L 247.3,254.0 L 246.7,254.5 L 246.6,255.7 L 246.2,256.2 L 244.9,256.6 L 243.6,257.6 L 241.6,259.2 L 241.3,260.1 L 241.4,260.5 L 243.1,261.2 L 243.7,262.1 L 243.8,263.0 L 242.5,265.0 L 242.2,266.7 L 242.3,268.4 L 243.3,270.9 L 243.2,270.9 L 240.2,270.5 L 240.7,269.7 L 241.5,268.9 L 241.3,268.5 L 240.9,268.2 L 237.7,267.4 L 237.0,266.8 L 236.2,266.0 L 234.2,265.6 L 233.2,264.9 L 230.4,264.5 L 229.7,263.6 L 229.3,262.6 L 227.7,262.7 L 226.3,261.9 L 225.4,260.9 L 224.6,259.9 L 222.8,259.3 L 221.9,259.2 L 221.0,258.5 L 219.3,257.6 L 218.0,257.6 L 216.9,257.4 L 216.7,257.4 L 216.1,257.6 L 215.4,257.6 L 213.1,257.2 L 211.8,256.5 L 211.1,255.4 L 209.8,254.5 L 209.3,253.7 L 208.7,253.6 L 207.8,254.4 L 207.2,254.4 L 206.6,254.8 L 206.2,255.9 L 205.3,256.3 L 204.6,256.2 L 203.9,256.4 L 201.3,258.2 L 201.0,258.8 L 201.6,261.1 L 202.0,263.7 L 202.9,265.1 L 203.0,266.5 L 203.2,267.5 L 203.1,268.2 L 202.0,269.8 L 201.7,270.7 L 200.9,271.6 L 200.6,272.3 L 200.7,273.2 L 201.0,274.0 L 200.7,274.5 L 200.0,274.0 L 199.1,273.9 L 198.3,274.2 L 196.9,274.5 L 195.8,274.4 L 195.0,273.9 L 194.7,273.4 L 194.9,272.6 L 195.5,272.3 L 195.6,271.7 L 195.1,271.0 L 193.9,270.8 L 192.7,271.0 L 192.3,271.3 L 191.2,272.6 L 190.8,272.5 L 189.9,272.1 L 188.9,272.8 L 188.0,272.7 L 187.2,272.0 L 186.4,271.9 L 186.1,272.3 L 185.8,272.7 L 185.9,273.5 L 185.4,274.9 L 184.7,276.0 L 182.3,277.4 L 180.8,278.2 L 180.3,279.2 L 179.8,279.7 L 178.4,280.7 L 177.6,281.6 L 176.9,283.3 L 175.8,284.2 L 174.8,284.8 L 173.7,284.7 L 170.2,282.5 L 169.4,282.2 L 168.6,282.4 L 167.7,283.4 L 167.4,284.4 L 167.9,286.0 L 168.9,288.0 L 170.1,289.5 L 134.0,332.0 L 129.8,337.0 L 129.3,336.9 L 128.4,337.1 L 126.1,338.8 L 125.8,338.8 L 125.1,338.3 L 124.5,338.2 L 123.9,338.6 L 124.2,339.2 L 103.2,332.0 L 62.7,318.0 L 61.8,316.8 L 60.5,315.7 L 60.4,315.3 L 60.3,314.4 L 60.9,314.1 L 61.3,313.7 L 60.9,312.8 L 60.0,313.2 L 60.1,312.6 L 60.5,312.1 L 60.6,311.9 L 60.8,311.4 L 60.9,310.8 L 61.0,310.0 L 61.1,309.1 L 61.0,307.8 L 60.9,306.7 L 62.5,307.4 L 64.3,299.8 L 63.7,298.1 L 62.9,298.4 L 61.3,295.7 L 61.6,294.8 L 60.6,293.6 L 60.2,293.9 L 60.1,293.6 L 60.0,293.1 L 59.7,292.7 L 58.9,292.4 L 58.5,292.3 L 57.8,291.7 L 57.7,291.3 L 57.2,291.0 L 55.9,290.9 L 55.4,291.3 L 55.4,291.5 L 55.2,291.8 L 54.7,292.1 L 54.2,292.1 L 53.2,291.5 L 52.8,290.8 L 52.8,290.1 L 53.0,288.8 L 53.6,287.4 L 53.6,286.6 L 53.2,285.9 L 51.9,284.9 L 51.0,284.6 L 49.2,284.4 L 48.8,283.8 L 49.7,282.6 L 49.6,282.0 L 49.7,280.3 L 48.9,278.6 L 47.1,277.1 L 46.1,277.1 L 45.6,277.0 L 45.0,275.7 L 45.4,272.7 L 45.8,271.5 L 46.5,270.6 L 47.4,270.6 L 47.6,270.5 L 48.0,271.2 L 48.5,271.1 L 48.6,270.0 L 48.3,268.6 L 48.1,267.2 L 48.5,265.8 L 49.0,264.3 L 50.4,262.5 L 51.0,261.9 L 50.9,260.0 L 50.4,258.5 L 50.4,258.5 L 51.2,258.4 L 51.2,258.4 L 52.4,260.1 L 52.8,261.7 L 52.8,262.5 L 53.0,263.4 L 53.5,265.1 L 54.3,267.1 L 53.9,268.6 L 53.8,269.3 L 54.1,270.0 L 54.4,270.8 L 55.6,271.9 L 56.8,272.8 L 57.8,274.3 L 58.4,275.1 L 59.3,275.7 L 60.8,275.9 L 61.6,275.9 L 61.8,275.8 L 62.4,274.0 L 64.1,273.6 L 65.4,272.9 L 65.8,271.1 L 66.7,269.9 L 68.1,269.4 L 70.0,268.0 L 72.4,268.1 L 72.7,268.7 L 72.8,268.9 L 72.6,269.8 L 72.5,270.1 L 72.4,271.5 L 72.7,271.6 L 74.1,270.6 L 73.5,269.9 L 73.6,269.6 L 73.0,268.2 L 73.6,268.4 L 74.4,268.0 L 74.3,267.1 L 75.0,266.3 L 76.0,265.8 L 77.4,265.6 L 78.0,265.3 L 78.4,264.3 L 81.3,262.1 L 82.0,260.7 L 82.0,259.7 L 81.1,258.2 L 80.4,257.3 L 80.5,255.9 L 80.4,254.5 L 80.6,254.5 L 80.6,252.0 L 81.2,251.7 L 82.3,251.7 L 83.1,252.0 L 83.0,254.2 L 83.4,256.2 L 83.9,257.8 L 85.2,257.9 L 85.8,257.7 L 86.2,257.3 L 86.8,255.8 L 87.3,254.0 L 87.5,253.4 L 88.1,252.9 L 89.3,252.6 L 90.8,253.7 L 91.8,253.7 L 92.5,253.4 L 92.6,251.7 L 93.2,251.3 L 98.2,251.9 L 98.5,251.8 L 98.9,251.4 L 98.3,249.5 L 96.9,247.8 L 97.8,247.1 L 97.8,246.3 L 99.3,246.3 L 100.2,245.3 L 99.7,245.2 L 99.1,245.3 L 98.9,245.0 L 99.1,244.1 L 98.9,243.0 L 98.8,242.1 L 99.1,241.0 L 100.1,240.7 L 100.6,241.0 L 101.4,241.2 L 101.9,241.0 L 102.3,240.0 L 102.3,239.0 L 102.0,237.4 L 102.0,236.0 L 101.7,234.8 L 100.9,233.2 L 101.4,231.7 L 102.8,230.6 L 102.6,230.2 L 101.6,230.6 L 101.1,231.3 L 100.3,231.5 L 99.8,231.0 L 99.5,230.5 L 98.8,229.6 L 97.8,228.4 L 97.0,227.2 L 97.6,226.4 L 98.7,226.7 L 100.0,227.4 L 101.0,228.4 L 102.1,229.3 L 103.4,229.5 L 104.5,228.4 L 103.9,227.2 L 102.6,225.8 L 101.8,224.6 L 100.7,223.6 L 99.6,222.7" fill="none" stroke="black" stroke-width="2"/>
</svg>