<?xml version="1.0" encoding="UTF-8"?>
<svg width="400" height="400" viewBox="0 0 400 400" xmlns="http://www.w3.org/2000/svg">
  <rect width="400" height="400" fill="white"/>
  <path d="M 181.8,174.3 L 181.7,174.2 L 181.4,174.1 L 181.2,173.8 L 181.0,173.7 L 180.7,173.8 L 180.1,173.7 L 179.8,173.3 L 179.5,173.2 L 179.3,173.3 L 179.4,173.6 L 179.2,173.9 L 178.9,173.8 L 178.5,173.5 L 178.3,173.0 L 177.8,172.7 L 177.2,172.6 L 176.8,172.2 L 176.4,172.2 L 175.8,172.3 L 175.5,172.1 L 174.8,171.8 L 174.0,171.1 L 173.8,170.8 L 173.6,170.1 L 173.7,169.1 L 174.3,167.8 L 174.2,167.0 L 174.3,166.2 L 174.0,165.5 L 173.8,165.3 L 173.1,164.8 L 172.2,165.1 L 171.7,164.8 L 171.2,164.1 L 170.7,163.0 L 170.4,162.6 L 170.0,162.1 L 169.4,161.8 L 168.4,160.9 L 168.2,160.8 L 167.2,161.1 L 166.6,160.8 L 166.2,160.7 L 165.7,161.2 L 165.4,161.2 L 165.3,161.7 L 165.0,162.1 L 164.6,162.3 L 164.6,162.7 L 164.6,163.1 L 164.5,163.7 L 164.3,164.1 L 163.9,164.5 L 163.2,164.9 L 162.7,164.8 L 162.4,164.6 L 162.0,164.3 L 161.8,164.1 L 161.5,163.2 L 161.3,162.9 L 160.7,162.8 L 160.3,162.7 L 159.7,162.3 L 158.8,161.4 L 158.4,160.8 L 157.7,159.9 L 157.2,158.9 L 157.0,158.8 L 156.3,158.9 L 155.8,159.2 L 155.3,158.5 L 155.2,158.2 L 154.7,157.7 L 154.3,157.0 L 154.0,155.4 L 153.8,155.2 L 152.9,155.0 L 152.8,155.2 L 152.6,156.4 L 152.3,157.1 L 152.2,158.0 L 151.9,158.2 L 151.8,158.1 L 151.7,157.5 L 151.2,158.2 L 151.0,158.1 L 150.7,157.9 L 150.1,157.9 L 149.9,158.1 L 150.0,158.3 L 148.2,156.7 L 148.6,156.2 L 148.9,155.5 L 149.5,155.1 L 150.7,153.8 L 150.8,153.4 L 150.6,152.5 L 150.5,152.0 L 150.2,151.6 L 149.8,151.5 L 149.6,151.3 L 149.5,151.2 L 149.3,150.6 L 149.4,150.3 L 149.6,150.2 L 149.8,150.0 L 149.6,149.4 L 149.9,149.1 L 150.1,149.3 L 150.3,149.2 L 150.7,148.8 L 150.8,148.2 L 150.5,147.0 L 150.5,146.1 L 150.5,145.6 L 149.8,144.5 L 149.8,143.9 L 149.5,143.3 L 149.4,142.7 L 149.5,141.6 L 149.5,140.9 L 149.3,140.2 L 149.1,139.7 L 148.9,139.5 L 148.7,139.3 L 148.6,138.6 L 148.7,137.6 L 148.6,136.0 L 148.5,135.4 L 148.2,135.0 L 147.8,134.0 L 146.9,133.2 L 146.2,131.8 L 145.6,131.5 L 145.2,131.4 L 144.4,132.2 L 144.2,132.1 L 143.9,131.8 L 143.7,132.0 L 143.5,132.4 L 143.4,133.3 L 143.7,133.6 L 144.1,133.8 L 144.1,133.9 L 143.5,134.4 L 143.2,134.5 L 142.7,134.3 L 142.3,133.9 L 142.4,133.7 L 142.5,133.4 L 142.3,133.2 L 141.6,132.9 L 141.4,133.0 L 140.9,133.6 L 140.2,135.1 L 140.2,135.4 L 140.3,135.6 L 140.7,135.8 L 140.8,136.4 L 141.2,136.8 L 141.2,137.2 L 140.1,137.6 L 139.4,137.9 L 138.9,138.0 L 138.2,137.8 L 138.1,137.7 L 138.0,137.6 L 137.7,136.9 L 137.8,135.7 L 137.7,135.5 L 137.3,135.0 L 137.1,134.9 L 136.3,134.5 L 136.1,134.3 L 135.8,133.6 L 135.5,133.4 L 134.7,132.8 L 134.4,132.0 L 134.2,131.3 L 134.8,127.3 L 135.0,126.6 L 135.5,125.9 L 135.6,125.5 L 135.5,125.2 L 135.3,124.8 L 135.1,124.5 L 135.1,124.4 L 135.4,123.8 L 135.5,123.5 L 135.2,122.7 L 135.1,122.4 L 134.7,121.2 L 134.7,120.8 L 134.9,119.1 L 134.8,118.4 L 134.5,117.6 L 134.2,117.1 L 133.7,116.5 L 132.6,116.2 L 132.2,116.0 L 131.6,115.1 L 131.3,114.3 L 131.0,113.9 L 130.6,113.8 L 130.2,113.3 L 130.0,112.7 L 129.1,111.7 L 128.7,110.8 L 128.2,110.0 L 128.0,109.6 L 127.6,108.9 L 127.2,108.2 L 127.1,108.1 L 126.6,107.7 L 126.4,107.2 L 126.0,106.7 L 125.5,106.6 L 125.2,106.7 L 124.8,106.6 L 124.3,106.0 L 124.1,105.4 L 123.7,104.9 L 123.0,104.6 L 122.6,104.2 L 122.4,104.1 L 122.2,103.8 L 121.0,102.9 L 120.0,102.7 L 119.0,102.0 L 118.5,101.9 L 117.7,101.9 L 116.4,100.7 L 116.0,100.6 L 115.2,100.9 L 114.8,100.9 L 114.0,100.1 L 113.5,99.5 L 113.1,98.9 L 112.8,98.8 L 112.6,98.7 L 112.2,97.6 L 112.4,96.4 L 112.3,96.1 L 112.1,96.0 L 111.8,96.2 L 111.7,96.3 L 111.1,96.3 L 110.6,96.5 L 109.7,96.3 L 109.6,95.8 L 109.2,95.4 L 108.5,95.4 L 107.8,94.8 L 107.0,94.6 L 106.8,94.7 L 106.6,94.7 L 106.3,94.9 L 105.8,95.8 L 105.5,96.5 L 105.2,96.7 L 104.8,96.9 L 104.6,97.5 L 104.7,97.6 L 105.0,97.5 L 105.3,97.9 L 105.5,97.9 L 105.3,98.4 L 105.5,99.0 L 105.8,99.4 L 106.0,99.5 L 106.2,99.5 L 106.4,99.4 L 107.1,99.0 L 107.3,99.1 L 107.2,99.8 L 106.8,100.7 L 106.7,101.4 L 106.9,101.8 L 106.7,102.1 L 106.4,102.4 L 106.3,102.5 L 106.2,102.8 L 106.0,103.0 L 105.7,103.0 L 105.5,103.0 L 105.1,103.3 L 104.8,103.6 L 104.5,103.5 L 104.2,103.8 L 104.6,103.9 L 104.7,103.8 L 104.9,103.7 L 105.0,103.9 L 105.6,104.0 L 107.5,103.3 L 107.9,103.4 L 108.3,103.9 L 108.2,104.1 L 107.8,104.2 L 107.0,104.9 L 106.9,105.1 L 107.6,105.4 L 108.4,105.3 L 109.0,105.7 L 109.2,105.6 L 109.4,105.0 L 109.8,104.5 L 110.3,104.3 L 110.7,104.4 L 111.0,104.7 L 111.1,105.5 L 111.6,106.2 L 112.2,106.7 L 112.1,106.8 L 107.9,107.9 L 107.6,108.1 L 107.3,108.4 L 106.9,108.5 L 106.1,108.0 L 105.8,108.1 L 105.6,108.4 L 105.5,108.7 L 104.9,108.8 L 104.7,108.8 L 104.3,108.3 L 104.2,108.2 L 103.9,108.4 L 103.5,108.7 L 103.3,108.5 L 102.9,108.5 L 102.7,108.4 L 101.8,108.3 L 101.1,108.1 L 100.6,107.6 L 100.2,106.9 L 100.2,106.5 L 100.3,106.4 L 100.5,106.4 L 100.9,105.9 L 100.8,105.6 L 100.7,105.2 L 100.8,104.2 L 100.9,103.4 L 100.9,102.8 L 100.6,101.9 L 99.9,100.7 L 99.3,100.2 L 98.0,100.0 L 97.6,99.7 L 97.0,98.3 L 96.5,97.6 L 96.3,97.2 L 96.2,96.9 L 96.0,96.6 L 95.7,96.0 L 95.3,95.6 L 94.8,95.6 L 94.6,95.4 L 94.1,95.3 L 93.3,94.5 L 92.9,94.4 L 92.6,94.6 L 92.6,94.9 L 93.6,96.3 L 93.3,96.9 L 93.4,97.3 L 94.1,98.1 L 94.2,98.5 L 94.6,99.5 L 94.5,99.8 L 94.2,99.6 L 93.4,99.5 L 92.8,100.0 L 91.9,99.9 L 91.7,99.7 L 91.3,99.3 L 91.4,98.8 L 91.2,98.3 L 91.2,97.5 L 90.9,97.2 L 90.0,96.6 L 90.0,96.4 L 90.0,96.1 L 89.9,95.9 L 89.1,95.7 L 89.1,95.6 L 88.9,95.3 L 88.5,95.2 L 88.2,94.8 L 87.9,94.7 L 87.5,94.3 L 87.1,94.0 L 86.9,94.1 L 86.5,94.4 L 86.3,94.5 L 86.0,94.2 L 86.0,94.0 L 86.3,93.8 L 86.6,93.6 L 86.6,93.3 L 86.4,93.0 L 86.1,93.0 L 85.9,93.3 L 85.7,93.5 L 85.5,93.4 L 85.5,92.7 L 85.1,92.2 L 85.2,91.6 L 85.1,91.4 L 85.1,91.2 L 84.7,90.6 L 83.9,90.5 L 82.9,89.4 L 83.4,89.6 L 84.2,89.8 L 84.8,89.7 L 85.0,89.6 L 85.0,89.3 L 84.4,89.0 L 84.1,88.7 L 83.7,88.6 L 83.4,88.3 L 82.9,88.2 L 82.5,88.3 L 82.5,88.6 L 82.9,89.3 L 82.0,89.1 L 81.1,88.4 L 80.3,87.5 L 80.0,87.1 L 79.9,86.9 L 78.5,85.8 L 78.2,85.5 L 78.2,85.2 L 77.2,84.1 L 77.0,83.8 L 77.0,83.7 L 78.2,83.8 L 78.5,83.6 L 78.6,83.4 L 77.5,83.1 L 77.6,82.9 L 77.3,82.0 L 76.8,81.5 L 76.6,80.8 L 76.4,80.5 L 75.3,79.5 L 75.1,79.1 L 74.8,78.8 L 74.7,78.1 L 74.3,77.9 L 74.1,77.5 L 74.0,76.2 L 74.0,75.4 L 74.2,75.2 L 74.4,75.1 L 74.7,75.6 L 74.9,75.7 L 75.3,75.6 L 75.6,75.3 L 75.7,75.0 L 75.4,74.5 L 75.4,74.2 L 75.5,73.9 L 75.8,73.8 L 75.9,73.5 L 75.8,72.9 L 75.7,72.4 L 75.4,72.3 L 75.2,72.1 L 75.2,71.4 L 75.0,70.5 L 74.6,69.5 L 74.3,69.0 L 73.9,68.8 L 73.7,68.8 L 73.4,68.8 L 73.3,68.5 L 73.0,68.2 L 72.5,66.7 L 72.2,65.3 L 71.6,64.2 L 71.3,64.1 L 77.6,58.8 L 98.4,41.6 L 98.5,41.5 L 98.5,41.6 L 98.9,41.9 L 99.1,42.1 L 99.4,42.5 L 99.9,42.2 L 99.9,42.2 L 100.2,40.8 L 100.9,40.0 L 101.2,40.0 L 101.7,40.1 L 102.2,40.7 L 102.7,41.4 L 103.8,42.2 L 104.4,42.6 L 105.3,43.1 L 105.9,43.4 L 106.9,43.9 L 108.8,44.3 L 109.6,45.0 L 111.0,46.7 L 111.2,47.1 L 111.9,47.4 L 112.9,48.4 L 113.0,48.5 L 113.2,48.7 L 113.5,49.5 L 113.9,49.7 L 114.5,49.8 L 115.1,50.0 L 115.6,50.0 L 116.5,50.2 L 116.9,50.6 L 118.2,52.0 L 119.6,53.3 L 120.8,54.3 L 121.8,55.3 L 122.8,55.9 L 123.5,56.6 L 124.5,57.3 L 125.0,57.8 L 125.5,57.9 L 126.4,58.0 L 126.5,58.0 L 127.0,58.1 L 128.1,58.1 L 128.8,58.3 L 129.3,58.9 L 129.7,58.9 L 130.6,58.6 L 131.7,58.3 L 133.2,58.5 L 133.3,58.4 L 133.8,58.4 L 134.7,58.3 L 134.8,58.3 L 135.4,58.1 L 135.8,58.0 L 136.7,57.9 L 137.2,58.0 L 137.9,58.5 L 138.5,58.8 L 142.0,59.2 L 142.9,59.1 L 143.4,59.0 L 144.5,58.6 L 146.4,58.1 L 146.8,57.9 L 146.8,57.8 L 146.2,57.2 L 146.0,56.7 L 146.2,56.2 L 146.4,54.9 L 146.6,54.2 L 146.8,53.6 L 146.9,53.4 L 147.5,53.6 L 148.4,54.0 L 148.4,54.0 L 150.2,55.4 L 150.9,55.9 L 150.6,56.4 L 151.1,57.1 L 151.1,57.7 L 151.7,59.0 L 152.1,59.2 L 152.6,59.3 L 153.3,60.4 L 153.4,60.5 L 153.6,60.6 L 153.9,60.7 L 153.9,61.2 L 153.4,61.3 L 153.2,61.6 L 152.9,62.4 L 153.0,62.6 L 153.6,63.2 L 154.4,63.5 L 154.7,63.9 L 154.8,64.2 L 155.1,64.4 L 155.5,64.5 L 156.0,64.9 L 156.6,64.9 L 157.7,65.0 L 158.2,64.7 L 158.8,64.6 L 159.7,64.9 L 160.4,65.0 L 160.5,65.4 L 160.0,66.7 L 159.8,67.5 L 160.1,68.0 L 160.1,68.2 L 160.6,68.9 L 160.8,68.9 L 161.1,68.7 L 161.5,68.7 L 162.3,69.3 L 163.1,69.6 L 163.5,69.5 L 164.0,69.3 L 164.2,69.3 L 164.5,69.8 L 164.5,70.3 L 164.1,70.7 L 163.9,70.9 L 163.5,71.0 L 162.8,71.3 L 162.2,71.3 L 162.0,71.3 L 161.1,70.8 L 160.6,71.0 L 160.2,71.3 L 160.2,71.7 L 160.7,72.3 L 160.8,72.5 L 160.6,72.9 L 160.2,73.4 L 160.3,73.6 L 160.7,73.8 L 161.1,73.9 L 161.3,74.1 L 161.9,74.2 L 162.4,74.6 L 163.0,75.8 L 163.1,76.1 L 163.3,76.4 L 163.7,76.2 L 163.9,76.5 L 164.2,76.2 L 164.5,76.2 L 165.3,75.3 L 165.7,74.8 L 165.8,73.6 L 165.9,73.4 L 166.0,72.9 L 166.2,72.5 L 166.3,72.2 L 166.2,71.9 L 165.8,71.3 L 166.2,70.8 L 166.8,71.0 L 167.4,70.8 L 167.9,71.0 L 168.2,70.8 L 168.0,70.6 L 167.9,70.3 L 168.8,69.1 L 169.7,69.3 L 169.6,70.9 L 170.0,71.2 L 170.3,71.2 L 171.0,70.7 L 171.3,70.9 L 171.5,70.7 L 171.6,70.5 L 171.4,70.3 L 171.5,69.8 L 172.4,68.7 L 172.7,68.4 L 174.3,70.7 L 174.4,70.9 L 174.4,70.9 L 173.6,71.9 L 173.5,72.4 L 173.7,73.3 L 173.8,73.7 L 173.6,74.0 L 173.4,74.6 L 173.2,74.9 L 173.1,75.7 L 172.7,75.8 L 172.8,76.2 L 173.2,77.0 L 173.5,77.5 L 173.9,77.9 L 174.1,78.7 L 174.4,80.4 L 173.9,81.2 L 173.8,81.5 L 173.8,81.5 L 174.8,83.0 L 174.9,83.1 L 175.5,83.2 L 175.8,83.8 L 176.3,84.0 L 176.7,84.3 L 177.6,85.0 L 178.1,85.6 L 178.6,85.8 L 178.8,86.1 L 179.7,87.0 L 180.3,87.3 L 180.8,87.4 L 181.3,87.6 L 181.2,88.1 L 181.1,88.6 L 180.7,88.7 L 181.0,90.0 L 181.3,90.1 L 181.3,90.4 L 181.1,90.8 L 181.1,91.3 L 181.4,91.6 L 181.9,91.9 L 181.9,92.0 L 182.0,92.6 L 181.8,93.1 L 181.3,93.6 L 180.7,94.0 L 180.3,94.0 L 180.1,94.4 L 179.9,94.3 L 179.4,93.5 L 179.2,93.3 L 178.6,93.1 L 178.0,93.1 L 177.8,93.2 L 177.2,93.1 L 176.6,93.5 L 175.9,93.5 L 175.7,93.2 L 174.8,93.0 L 174.6,93.1 L 174.5,93.7 L 174.8,94.2 L 174.9,94.4 L 175.3,94.5 L 175.7,94.4 L 176.0,94.5 L 176.3,94.4 L 176.7,94.4 L 177.2,94.3 L 178.6,94.6 L 179.5,95.2 L 180.0,95.5 L 180.0,95.6 L 180.3,96.8 L 180.6,97.0 L 181.0,97.1 L 181.2,97.0 L 181.5,97.4 L 181.8,98.4 L 181.6,98.6 L 181.3,98.7 L 181.0,98.7 L 180.9,98.5 L 180.8,98.4 L 180.5,98.3 L 179.6,97.9 L 179.2,98.5 L 178.4,101.9 L 178.3,102.6 L 178.2,103.1 L 178.1,103.3 L 178.0,103.5 L 178.1,103.8 L 178.5,104.6 L 179.2,105.4 L 179.6,105.6 L 180.0,105.5 L 180.6,105.9 L 181.2,105.7 L 182.2,106.1 L 183.2,106.2 L 183.6,106.6 L 183.7,106.9 L 183.5,107.9 L 183.5,108.8 L 183.6,109.5 L 183.1,110.1 L 183.0,110.5 L 183.0,110.9 L 182.9,111.4 L 182.8,111.7 L 182.7,112.2 L 182.9,113.1 L 183.3,113.7 L 183.6,114.1 L 184.2,114.4 L 184.5,114.8 L 184.7,115.5 L 184.6,115.9 L 184.3,116.2 L 183.9,116.2 L 182.5,116.1 L 182.2,116.9 L 182.0,117.2 L 182.0,117.4 L 182.2,117.6 L 182.5,117.8 L 182.9,118.2 L 183.4,118.3 L 183.6,118.0 L 183.9,117.9 L 184.4,118.1 L 185.2,119.2 L 185.5,119.1 L 185.7,118.8 L 186.9,119.0 L 187.5,119.3 L 187.6,119.5 L 187.7,120.2 L 187.7,120.7 L 187.9,121.0 L 188.0,121.5 L 188.4,122.1 L 188.6,122.1 L 189.0,122.0 L 189.7,122.4 L 189.8,122.9 L 189.8,123.7 L 189.8,124.4 L 189.8,125.3 L 189.7,126.4 L 189.7,127.7 L 189.9,128.4 L 190.1,128.6 L 190.9,128.5 L 191.2,128.7 L 191.3,129.1 L 191.2,129.7 L 190.8,130.2 L 190.7,130.3 L 190.3,130.4 L 190.0,130.5 L 189.8,130.7 L 189.6,130.7 L 189.6,131.5 L 189.7,131.8 L 189.7,132.1 L 189.8,133.0 L 189.9,133.9 L 190.1,134.1 L 190.3,134.2 L 190.7,135.0 L 190.9,135.1 L 191.4,135.2 L 191.6,135.6 L 192.0,135.5 L 192.2,135.6 L 192.8,136.3 L 193.2,137.3 L 193.2,139.7 L 193.3,140.5 L 194.1,141.6 L 194.6,142.1 L 194.9,142.5 L 195.5,143.3 L 195.7,143.3 L 196.3,143.2 L 196.7,143.4 L 197.3,143.5 L 198.2,142.9 L 198.5,142.8 L 199.4,143.2 L 200.2,143.3 L 200.6,143.2 L 201.1,142.7 L 201.7,141.7 L 201.9,140.2 L 201.8,140.0 L 201.1,139.5 L 200.7,138.9 L 200.7,138.7 L 200.8,138.8 L 202.1,139.7 L 202.4,140.2 L 202.8,140.7 L 203.8,141.3 L 204.2,141.4 L 204.5,142.0 L 204.7,142.4 L 205.3,143.0 L 206.0,143.2 L 206.8,143.3 L 207.1,143.8 L 207.0,144.3 L 206.4,145.4 L 206.3,145.8 L 206.0,146.0 L 205.5,146.1 L 203.7,145.7 L 203.0,145.1 L 201.3,144.6 L 201.0,144.6 L 200.4,144.8 L 199.8,144.9 L 198.9,145.1 L 197.7,145.5 L 196.3,146.7 L 195.7,147.0 L 195.1,147.8 L 194.9,148.5 L 194.9,150.0 L 194.7,151.0 L 194.9,151.9 L 195.2,152.4 L 195.7,152.6 L 195.5,153.3 L 195.6,154.0 L 195.8,154.5 L 196.0,154.8 L 196.3,155.0 L 197.2,155.2 L 197.6,155.2 L 197.9,155.3 L 198.5,155.1 L 198.6,155.1 L 198.9,154.8 L 200.0,154.3 L 201.0,154.1 L 202.0,154.2 L 202.7,154.1 L 203.0,153.8 L 204.1,153.2 L 206.7,152.0 L 207.1,151.6 L 207.7,150.7 L 207.9,150.0 L 207.5,149.9 L 207.6,149.5 L 207.7,149.1 L 208.2,148.7 L 208.7,148.7 L 209.4,148.8 L 209.9,149.0 L 210.2,149.5 L 210.2,150.4 L 210.1,151.3 L 210.1,151.8 L 210.4,152.5 L 210.9,153.3 L 211.5,154.0 L 212.6,155.1 L 213.1,155.5 L 214.0,155.8 L 214.3,156.0 L 215.5,156.4 L 216.5,156.7 L 217.1,157.1 L 217.4,157.3 L 217.4,157.7 L 217.6,157.9 L 217.8,158.0 L 218.0,158.3 L 218.0,158.8 L 217.9,159.3 L 217.2,160.0 L 216.9,160.1 L 215.8,160.0 L 214.1,159.4 L 213.8,159.7 L 213.5,160.3 L 213.4,161.1 L 212.9,161.7 L 212.5,162.0 L 211.6,162.6 L 211.2,162.9 L 211.0,163.5 L 211.1,164.1 L 211.0,164.7 L 211.3,165.0 L 211.7,165.7 L 211.8,166.1 L 212.1,167.7 L 212.1,168.3 L 213.0,169.1 L 213.5,170.0 L 213.5,170.4 L 213.6,170.7 L 214.2,171.4 L 214.6,171.6 L 215.3,172.1 L 216.2,173.1 L 216.5,173.3 L 216.6,173.4 L 217.1,173.6 L 217.3,173.6 L 217.6,174.1 L 218.1,174.2 L 218.5,174.3 L 220.0,174.6 L 220.8,174.9 L 221.3,175.2 L 221.5,176.0 L 221.5,176.6 L 221.4,178.0 L 221.2,178.7 L 220.7,179.4 L 220.5,180.0 L 220.4,180.2 L 220.2,180.9 L 220.2,181.6 L 220.3,182.4 L 220.4,183.0 L 220.4,183.6 L 220.6,183.9 L 220.6,184.3 L 220.8,185.0 L 221.5,186.3 L 222.1,187.0 L 222.6,187.4 L 223.1,188.5 L 223.8,190.0 L 224.5,190.8 L 225.0,191.3 L 225.5,191.5 L 225.7,191.8 L 225.8,192.1 L 225.7,192.9 L 225.8,193.4 L 225.6,195.1 L 225.2,198.3 L 225.2,198.9 L 225.6,200.0 L 225.7,200.1 L 226.0,201.2 L 226.2,201.6 L 226.7,201.7 L 227.0,202.1 L 226.9,202.8 L 227.2,203.3 L 227.8,204.6 L 228.2,205.7 L 228.5,205.9 L 230.5,208.2 L 231.4,209.4 L 231.5,209.5 L 232.1,210.1 L 232.4,210.6 L 232.6,211.3 L 232.9,212.3 L 233.3,212.8 L 233.6,213.0 L 234.5,213.1 L 235.3,212.8 L 235.4,212.7 L 235.4,212.7 L 246.5,221.3 L 246.6,221.3 L 246.6,222.0 L 246.7,222.6 L 247.0,223.3 L 247.3,223.7 L 248.7,224.4 L 250.6,226.1 L 250.7,226.3 L 251.5,227.2 L 251.7,227.1 L 252.9,228.3 L 253.5,228.6 L 254.0,229.0 L 254.1,229.0 L 255.0,229.4 L 256.4,229.8 L 256.7,229.9 L 257.2,230.2 L 257.2,230.5 L 257.1,230.6 L 257.3,231.1 L 257.7,231.2 L 258.5,232.1 L 258.6,232.0 L 258.7,231.9 L 259.6,232.3 L 261.2,233.5 L 261.8,234.2 L 262.0,234.5 L 261.8,235.5 L 261.6,236.0 L 260.7,239.3 L 260.6,239.6 L 261.0,239.6 L 260.5,240.0 L 260.5,240.3 L 260.7,240.5 L 261.5,240.6 L 261.8,241.0 L 262.2,241.9 L 262.6,242.4 L 262.9,242.8 L 263.1,243.4 L 263.0,244.4 L 263.0,244.8 L 262.7,245.9 L 262.4,246.6 L 262.3,247.6 L 262.5,248.6 L 263.0,249.4 L 263.2,249.7 L 263.3,250.0 L 263.5,250.8 L 263.2,252.4 L 263.3,253.1 L 263.6,253.6 L 263.9,254.7 L 263.6,255.3 L 264.3,255.9 L 264.5,256.2 L 264.6,256.5 L 265.5,256.7 L 266.6,257.7 L 266.9,257.9 L 267.6,259.0 L 268.4,260.0 L 268.8,260.5 L 270.1,262.1 L 270.5,262.8 L 270.6,263.5 L 270.5,265.1 L 270.6,265.8 L 270.9,267.9 L 270.9,269.3 L 271.0,270.2 L 271.0,271.2 L 270.6,272.8 L 270.6,273.1 L 270.8,273.4 L 271.2,273.8 L 271.8,274.1 L 272.9,274.3 L 273.4,274.6 L 273.9,275.0 L 274.8,276.1 L 275.1,276.3 L 275.6,277.0 L 277.1,278.3 L 277.9,279.1 L 278.6,279.8 L 278.9,281.5 L 279.1,282.1 L 279.4,282.3 L 279.8,282.5 L 280.6,284.6 L 280.7,284.9 L 280.7,285.0 L 280.9,285.2 L 281.5,286.0 L 282.2,286.4 L 283.0,286.5 L 283.4,286.3 L 284.1,285.5 L 284.3,285.2 L 284.4,284.9 L 284.8,284.7 L 286.9,285.0 L 287.5,285.2 L 287.5,285.5 L 287.5,285.7 L 287.6,286.2 L 287.6,286.3 L 287.9,286.8 L 288.2,287.6 L 288.1,288.3 L 288.2,290.3 L 288.2,290.7 L 288.6,291.2 L 288.7,291.6 L 289.7,292.9 L 290.6,293.5 L 290.8,294.0 L 291.4,294.6 L 291.6,294.9 L 292.3,295.4 L 292.7,295.8 L 292.9,296.6 L 293.1,296.9 L 293.8,297.2 L 294.8,297.7 L 295.2,298.0 L 296.3,298.1 L 297.1,298.0 L 297.4,298.1 L 297.6,298.5 L 297.7,299.5 L 297.6,300.1 L 297.4,300.5 L 297.4,301.2 L 297.6,301.7 L 297.5,303.0 L 297.6,303.7 L 297.4,304.1 L 297.6,304.6 L 297.8,304.5 L 298.0,304.6 L 298.8,305.5 L 299.2,305.7 L 299.4,306.6 L 299.9,306.8 L 299.8,307.2 L 300.1,307.3 L 300.9,308.1 L 301.2,309.0 L 301.4,309.6 L 301.8,310.4 L 302.5,312.2 L 302.6,312.4 L 302.6,312.5 L 303.3,314.0 L 304.0,314.4 L 304.7,314.6 L 306.0,315.1 L 306.9,315.5 L 308.6,316.7 L 309.7,317.7 L 310.4,318.5 L 310.9,319.7 L 311.2,320.5 L 311.5,321.1 L 311.7,322.1 L 312.1,322.9 L 312.6,322.9 L 312.8,322.9 L 313.3,323.2 L 313.8,323.7 L 314.6,324.9 L 314.9,325.7 L 315.4,326.5 L 315.8,327.5 L 316.3,328.8 L 317.3,330.1 L 317.7,330.5 L 318.8,331.3 L 320.6,332.6 L 321.1,333.0 L 323.3,333.9 L 323.2,333.9 L 322.1,338.3 L 328.5,353.1 L 328.7,353.5 L 328.5,353.5 L 327.9,353.5 L 327.6,354.1 L 327.8,354.5 L 327.8,354.8 L 327.7,355.2 L 327.8,355.6 L 327.6,355.8 L 327.3,355.7 L 327.2,355.3 L 326.6,355.9 L 325.7,356.5 L 322.7,358.6 L 321.4,359.2 L 321.3,359.3 L 319.8,360.0 L 319.3,360.0 L 318.7,359.6 L 317.9,358.7 L 316.5,356.8 L 315.7,355.5 L 315.6,355.4 L 315.0,354.4 L 313.7,352.8 L 313.2,352.4 L 312.8,352.1 L 311.7,351.9 L 311.2,352.1 L 310.8,352.1 L 309.5,351.8 L 308.4,351.3 L 306.9,350.3 L 306.6,350.0 L 306.1,349.7 L 304.7,348.6 L 303.5,347.6 L 303.2,347.2 L 303.1,346.8 L 302.9,346.6 L 302.4,346.3 L 302.3,346.1 L 302.0,345.7 L 300.6,345.1 L 300.5,345.1 L 300.2,344.7 L 299.3,344.1 L 297.3,342.0 L 296.2,340.6 L 295.6,339.6 L 294.8,337.8 L 294.6,337.1 L 294.7,336.3 L 294.7,335.9 L 293.7,334.8 L 293.3,334.1 L 293.1,333.6 L 293.0,333.0 L 292.6,332.1 L 292.0,330.0 L 291.8,329.8 L 291.4,329.7 L 290.9,329.4 L 290.4,328.6 L 290.1,327.8 L 289.8,327.1 L 289.0,325.8 L 288.9,325.1 L 288.2,323.8 L 287.9,323.1 L 287.7,322.3 L 287.7,322.1 L 287.7,321.2 L 287.6,320.9 L 287.4,320.2 L 286.7,319.7 L 286.6,319.4 L 286.2,318.8 L 285.5,318.2 L 285.1,318.1 L 284.8,318.2 L 284.1,318.5 L 283.4,318.3 L 282.5,317.3 L 282.4,317.4 L 282.4,317.9 L 282.1,318.1 L 281.7,318.0 L 281.5,317.9 L 281.2,317.3 L 281.0,317.1 L 280.3,316.1 L 279.7,315.7 L 278.7,315.5 L 278.1,314.8 L 277.7,314.6 L 277.0,314.9 L 276.7,315.1 L 276.3,315.2 L 275.7,315.5 L 274.9,315.7 L 274.5,316.0 L 273.9,316.7 L 273.4,316.9 L 272.9,317.1 L 272.5,317.4 L 271.7,318.4 L 271.4,318.9 L 270.3,319.7 L 269.8,320.3 L 269.7,319.7 L 269.6,319.5 L 268.9,319.2 L 269.2,317.1 L 269.3,316.5 L 269.4,315.9 L 269.2,314.1 L 268.8,313.6 L 268.2,312.5 L 267.7,311.4 L 266.7,310.3 L 264.9,308.6 L 264.4,308.3 L 264.4,308.3 L 263.4,307.3 L 263.0,306.8 L 261.8,306.3 L 260.5,305.5 L 259.3,304.4 L 258.5,303.6 L 256.4,301.1 L 256.1,300.7 L 255.1,299.1 L 254.4,297.7 L 254.0,296.8 L 253.1,295.5 L 253.0,295.3 L 252.9,295.0 L 252.3,294.1 L 251.4,292.2 L 251.3,292.1 L 251.1,291.9 L 251.1,291.7 L 251.1,291.6 L 250.7,290.4 L 250.3,289.1 L 250.0,288.6 L 249.5,287.5 L 249.1,286.0 L 249.0,285.3 L 248.7,284.6 L 248.6,283.1 L 248.3,281.9 L 248.3,281.3 L 247.8,280.8 L 247.6,280.6 L 246.8,280.4 L 246.2,280.0 L 245.8,279.4 L 244.9,277.4 L 244.3,276.2 L 243.5,275.2 L 242.8,274.4 L 242.1,273.9 L 241.7,273.8 L 241.4,273.5 L 240.6,273.2 L 240.3,272.9 L 239.9,272.3 L 239.7,271.9 L 239.4,271.3 L 238.9,270.1 L 238.5,269.4 L 238.1,268.7 L 237.3,266.9 L 236.7,266.3 L 236.5,265.9 L 235.6,264.8 L 234.5,263.7 L 234.1,263.5 L 233.6,263.2 L 233.3,263.1 L 233.0,263.2 L 232.6,263.2 L 232.5,263.1 L 232.3,262.8 L 232.3,262.4 L 231.7,261.8 L 231.0,261.5 L 229.6,260.7 L 229.3,260.5 L 228.7,260.2 L 228.4,259.9 L 228.3,259.5 L 228.5,258.8 L 228.8,258.2 L 229.1,258.0 L 229.6,257.6 L 230.1,257.0 L 230.5,256.3 L 230.7,255.3 L 230.7,254.5 L 230.3,253.3 L 229.8,252.4 L 229.4,252.2 L 229.2,252.3 L 228.9,252.8 L 228.1,253.5 L 227.5,254.2 L 226.7,254.2 L 226.2,254.1 L 225.8,253.5 L 225.7,253.2 L 225.2,253.2 L 223.5,253.5 L 222.5,253.6 L 222.5,253.6 L 222.1,253.5 L 221.9,253.3 L 220.6,253.1 L 220.1,252.8 L 219.5,252.7 L 218.9,252.5 L 218.7,252.3 L 218.5,251.8 L 218.7,250.9 L 218.9,250.6 L 219.1,250.3 L 219.7,249.9 L 220.4,249.4 L 221.0,249.3 L 221.8,249.5 L 222.6,249.8 L 223.5,249.8 L 224.1,249.7 L 224.7,249.2 L 224.8,248.8 L 224.7,248.2 L 224.9,247.2 L 225.0,246.9 L 225.4,246.4 L 226.3,246.4 L 226.6,246.2 L 226.9,245.7 L 227.1,244.6 L 227.1,243.9 L 227.0,243.6 L 226.8,243.2 L 226.4,242.6 L 226.4,242.0 L 226.0,241.5 L 225.8,240.8 L 225.6,240.5 L 224.8,240.0 L 224.0,239.8 L 223.3,239.7 L 222.9,239.6 L 222.6,239.1 L 222.5,238.5 L 222.1,238.1 L 221.8,237.5 L 221.1,236.8 L 220.7,236.6 L 219.1,235.2 L 218.6,234.9 L 218.3,234.5 L 218.3,234.2 L 218.5,233.9 L 218.6,233.1 L 218.5,232.6 L 217.9,232.4 L 217.3,231.5 L 216.0,231.2 L 215.8,231.0 L 215.6,230.9 L 215.1,230.1 L 215.1,230.1 L 214.7,230.1 L 214.4,229.8 L 214.2,229.8 L 213.8,229.7 L 213.4,229.2 L 213.5,229.0 L 214.0,229.0 L 213.8,228.7 L 213.8,228.5 L 213.6,228.1 L 213.7,228.0 L 213.8,227.7 L 213.3,227.0 L 213.1,226.8 L 212.3,226.9 L 211.9,226.7 L 211.5,226.4 L 211.2,226.3 L 210.8,226.6 L 210.1,226.5 L 209.5,226.1 L 208.4,225.1 L 207.7,224.7 L 207.1,224.6 L 206.5,224.8 L 206.1,225.2 L 205.9,225.4 L 205.8,225.5 L 204.4,225.1 L 204.4,225.1 L 204.8,224.9 L 204.9,224.6 L 204.7,224.0 L 204.7,223.1 L 204.3,222.8 L 204.3,222.7 L 203.9,222.3 L 203.6,222.0 L 202.5,221.8 L 201.8,221.7 L 200.9,220.9 L 200.7,220.6 L 200.4,220.0 L 200.1,219.9 L 199.9,220.1 L 199.6,220.4 L 199.3,219.9 L 187.7,203.7 L 187.5,203.5 L 187.5,203.5 L 187.7,203.2 L 187.5,201.7 L 187.3,200.6 L 186.5,200.3 L 186.3,200.1 L 186.3,199.6 L 186.5,199.1 L 187.4,198.4 L 187.7,198.2 L 187.7,198.0 L 187.8,197.8 L 188.4,197.2 L 188.6,196.1 L 188.9,195.1 L 189.1,193.9 L 188.9,192.6 L 188.4,190.5 L 188.3,188.8 L 188.1,188.0 L 187.0,185.5 L 186.7,185.0 L 186.6,184.9 L 186.2,184.1 L 186.1,183.5 L 185.9,182.8 L 185.8,181.5 L 185.6,180.3 L 185.8,179.8 L 185.7,179.2 L 185.6,178.5 L 185.2,177.2 L 184.5,176.2 L 184.0,175.4 L 183.8,175.0 L 183.5,174.7 L 182.1,174.6" fill="none" stroke="black" stroke-width="2"/>
</svg>