<?xml version="1.0" encoding="UTF-8"?>
<svg width="400" height="400" viewBox="0 0 400 400" xmlns="http://www.w3.org/2000/svg">
  <rect width="400" height="400" fill="white"/>
  <path d="M 40.0,215.2 L 41.7,214.5 L 43.9,214.0 L 43.4,212.1 L 43.8,208.9 L 44.5,207.2 L 47.3,199.4 L 47.8,198.4 L 50.5,197.9 L 51.3,197.2 L 52.4,197.0 L 54.6,196.2 L 59.6,195.1 L 63.7,195.7 L 64.9,192.5 L 65.6,191.7 L 68.5,190.0 L 71.2,188.8 L 72.2,189.1 L 72.4,189.1 L 73.8,192.3 L 76.2,193.5 L 78.1,193.6 L 80.6,192.0 L 80.8,191.4 L 80.7,190.4 L 78.8,187.2 L 78.2,183.6 L 78.9,179.5 L 74.3,172.7 L 73.8,171.7 L 73.0,170.4 L 71.7,168.7 L 70.9,166.3 L 72.4,163.0 L 71.3,161.6 L 69.6,160.5 L 69.1,159.1 L 69.1,157.4 L 68.1,153.4 L 67.4,152.4 L 66.1,151.5 L 61.5,151.1 L 60.5,149.6 L 60.0,145.5 L 62.4,137.8 L 62.9,135.1 L 64.2,133.5 L 64.6,131.4 L 64.5,129.2 L 64.1,126.2 L 61.8,122.7 L 61.1,120.9 L 61.5,118.8 L 60.6,118.0 L 58.6,114.8 L 58.9,113.1 L 59.4,111.4 L 60.1,108.2 L 61.8,103.4 L 62.2,102.5 L 65.0,98.7 L 65.0,98.3 L 65.1,97.6 L 66.9,94.8 L 68.3,91.9 L 70.2,86.9 L 73.3,82.1 L 73.6,81.5 L 74.3,81.0 L 75.7,78.3 L 76.3,76.9 L 77.4,75.0 L 79.3,73.5 L 81.9,73.6 L 82.7,73.1 L 84.3,71.8 L 84.5,70.1 L 83.3,65.9 L 83.1,65.1 L 83.6,63.2 L 83.8,62.0 L 84.7,59.5 L 86.2,57.1 L 87.8,55.9 L 91.2,55.0 L 93.6,55.1 L 95.4,55.0 L 98.8,53.9 L 101.8,51.8 L 102.7,52.7 L 106.1,52.1 L 106.9,52.4 L 107.6,53.6 L 107.8,55.8 L 109.0,59.0 L 110.5,63.0 L 112.0,64.9 L 114.7,67.0 L 115.9,66.9 L 118.0,65.0 L 119.4,64.3 L 121.1,63.9 L 125.7,59.6 L 126.8,57.6 L 128.2,56.2 L 129.5,54.0 L 130.3,53.2 L 131.1,52.2 L 137.9,58.5 L 138.3,59.9 L 137.2,62.0 L 136.0,63.0 L 134.9,64.5 L 134.7,66.5 L 135.4,73.6 L 136.0,76.2 L 136.7,78.3 L 138.3,81.4 L 141.4,85.5 L 142.6,85.4 L 144.5,84.3 L 145.5,84.4 L 145.9,86.6 L 147.8,88.0 L 148.7,89.2 L 148.3,91.3 L 147.4,93.0 L 146.8,95.5 L 146.3,96.9 L 146.4,98.5 L 146.0,101.7 L 146.9,102.9 L 147.6,104.2 L 148.7,104.5 L 151.8,108.2 L 151.5,109.7 L 151.3,111.5 L 151.1,113.0 L 148.8,113.6 L 148.2,115.6 L 148.2,116.6 L 149.3,119.8 L 151.4,121.6 L 152.5,122.1 L 154.1,123.2 L 155.0,123.2 L 156.4,120.4 L 161.0,122.4 L 165.5,123.8 L 166.3,124.8 L 166.8,124.7 L 167.2,124.4 L 167.9,121.7 L 169.4,118.8 L 172.7,116.8 L 174.9,115.3 L 178.1,114.6 L 178.8,114.0 L 179.3,113.5 L 180.5,112.1 L 188.8,110.4 L 189.2,110.6 L 191.8,110.9 L 192.9,112.2 L 193.0,113.1 L 192.0,115.1 L 191.9,115.2 L 191.8,115.7 L 192.1,117.1 L 193.5,119.6 L 194.9,120.8 L 197.1,121.3 L 200.7,120.0 L 207.2,121.1 L 209.3,123.8 L 209.4,125.5 L 209.0,126.5 L 208.1,126.2 L 206.8,129.5 L 205.5,131.3 L 203.2,132.9 L 199.5,134.1 L 197.9,134.4 L 197.2,133.6 L 199.4,131.3 L 199.8,129.8 L 199.4,128.7 L 198.4,128.4 L 195.4,129.8 L 194.8,129.3 L 194.0,126.5 L 190.9,123.4 L 189.3,120.8 L 187.9,120.4 L 186.8,120.1 L 183.5,121.7 L 180.8,121.9 L 180.3,122.9 L 180.9,125.2 L 181.6,126.3 L 179.9,129.0 L 181.2,131.0 L 181.7,132.3 L 180.3,135.8 L 178.9,137.3 L 177.7,142.4 L 175.6,148.7 L 174.6,153.5 L 175.1,155.5 L 175.8,157.6 L 176.3,160.0 L 176.0,161.0 L 176.2,162.4 L 176.3,163.1 L 176.8,164.4 L 176.0,169.0 L 176.5,170.8 L 176.6,172.0 L 178.4,174.2 L 178.1,178.4 L 181.5,183.3 L 182.3,184.8 L 182.8,187.9 L 183.2,189.6 L 185.4,191.7 L 189.2,193.3 L 192.2,194.3 L 194.6,194.7 L 196.3,194.4 L 197.9,194.8 L 199.6,196.4 L 200.5,197.7 L 207.0,198.4 L 211.5,197.7 L 212.8,197.1 L 215.3,197.3 L 219.6,197.1 L 222.1,197.7 L 223.2,198.9 L 224.8,201.2 L 229.0,204.5 L 230.6,206.1 L 231.4,207.6 L 233.0,208.7 L 234.1,208.7 L 234.7,208.0 L 234.9,207.7 L 234.8,206.1 L 238.6,203.2 L 240.5,203.1 L 241.7,203.6 L 243.4,205.1 L 243.8,206.3 L 243.9,208.1 L 244.3,209.3 L 247.4,212.1 L 249.8,213.4 L 251.2,214.6 L 251.7,215.7 L 252.9,215.7 L 256.4,216.8 L 257.6,217.9 L 257.4,219.4 L 256.0,221.0 L 253.7,222.1 L 251.0,222.9 L 250.5,221.6 L 249.7,222.3 L 247.6,224.2 L 247.2,225.6 L 247.3,227.2 L 248.7,229.9 L 249.7,231.1 L 251.1,231.8 L 253.2,230.8 L 256.1,230.3 L 260.0,229.9 L 260.5,230.3 L 261.3,230.8 L 262.5,231.9 L 267.5,232.6 L 269.3,234.4 L 272.1,235.7 L 274.9,237.4 L 275.8,237.9 L 277.9,238.9 L 279.5,239.0 L 283.9,237.0 L 285.7,236.5 L 286.3,237.3 L 332.1,301.2 L 333.4,303.0 L 333.0,303.4 L 333.8,304.4 L 333.3,307.8 L 333.1,308.4 L 332.8,309.2 L 333.1,311.7 L 332.7,314.6 L 333.3,315.2 L 336.3,315.6 L 337.4,315.8 L 338.2,315.3 L 341.9,316.2 L 343.6,316.9 L 344.6,317.0 L 346.3,319.4 L 347.8,320.4 L 350.5,321.3 L 352.2,321.5 L 357.8,323.3 L 357.0,324.6 L 357.3,325.3 L 359.2,327.7 L 360.0,331.0 L 359.9,335.6 L 358.8,337.6 L 357.9,338.2 L 356.0,339.5 L 354.5,340.9 L 355.5,342.3 L 355.5,342.9 L 355.9,343.6 L 355.6,344.3 L 351.5,347.4 L 350.6,348.0 L 349.2,348.2 L 345.6,347.7 L 344.3,347.0 L 342.1,345.3 L 340.7,343.5 L 338.6,342.7 L 336.6,342.8 L 336.0,342.0 L 335.4,341.8 L 333.5,342.9 L 332.6,343.1 L 332.1,343.2 L 329.3,342.6 L 326.3,340.5 L 324.8,338.8 L 320.7,334.9 L 320.5,334.8 L 318.4,333.6 L 317.7,331.9 L 318.2,330.9 L 318.5,329.2 L 319.5,328.5 L 318.7,327.9 L 317.6,326.2 L 315.4,324.4 L 311.5,323.7 L 309.8,322.8 L 308.4,321.8 L 306.4,319.7 L 298.1,313.9 L 295.6,312.0 L 291.4,306.8 L 289.0,305.1 L 285.6,303.6 L 284.6,302.4 L 283.5,301.7 L 282.8,300.9 L 281.4,300.6 L 280.6,301.3 L 280.3,302.4 L 279.4,303.1 L 274.0,305.2 L 271.2,305.1 L 269.9,304.2 L 269.6,304.1 L 268.3,302.2 L 268.1,301.4 L 267.1,300.6 L 264.6,300.8 L 263.6,300.8 L 261.1,301.5 L 260.2,301.4 L 259.2,300.4 L 257.6,300.0 L 256.3,298.2 L 256.0,298.1 L 255.0,296.2 L 255.2,294.6 L 254.8,292.7 L 255.2,291.7 L 254.6,289.8 L 254.3,288.1 L 253.2,284.8 L 252.7,283.3 L 250.9,281.0 L 248.4,278.9 L 246.2,276.0 L 246.0,274.8 L 245.3,274.5 L 244.2,272.4 L 243.7,270.1 L 243.9,268.3 L 242.5,267.0 L 241.2,264.7 L 240.3,264.0 L 239.3,262.5 L 239.3,259.6 L 237.5,256.0 L 235.9,254.0 L 231.9,251.1 L 230.2,250.5 L 229.1,249.5 L 227.6,249.1 L 226.3,250.0 L 223.6,250.5 L 220.7,250.1 L 219.8,248.8 L 219.6,248.0 L 218.0,248.2 L 217.1,247.3 L 215.1,246.9 L 213.3,249.3 L 212.2,250.0 L 211.5,249.6 L 211.2,248.8 L 210.7,249.3 L 210.5,250.4 L 206.8,250.5 L 204.7,252.3 L 204.0,253.3 L 200.5,254.9 L 198.8,254.7 L 198.1,254.9 L 196.9,254.7 L 195.0,256.2 L 193.1,258.4 L 193.0,260.9 L 193.2,264.0 L 192.8,265.2 L 190.8,266.5 L 191.4,266.9 L 192.9,266.2 L 193.5,267.1 L 193.2,267.7 L 191.9,269.1 L 190.8,271.6 L 190.8,272.8 L 191.4,273.7 L 191.1,275.7 L 191.9,276.4 L 191.6,277.3 L 190.7,277.8 L 188.2,276.6 L 186.9,276.8 L 185.9,278.4 L 186.7,280.2 L 186.1,281.8 L 184.6,283.0 L 182.2,283.9 L 181.8,284.3 L 181.3,284.1 L 179.9,285.3 L 178.1,285.7 L 177.7,285.2 L 177.3,284.2 L 176.8,284.9 L 176.3,287.4 L 176.2,288.8 L 173.9,288.2 L 168.2,289.2 L 165.4,289.3 L 157.1,286.4 L 156.8,286.2 L 156.3,286.2 L 155.6,285.6 L 151.8,284.2 L 142.1,278.3 L 140.0,277.4 L 136.6,273.0 L 133.9,270.4 L 130.1,267.0 L 119.5,254.1 L 114.7,249.9 L 111.5,247.9 L 110.4,246.5 L 109.4,245.2 L 108.6,244.9 L 107.5,243.6 L 101.6,239.8 L 100.1,237.8 L 94.2,227.3 L 92.6,226.2 L 91.1,226.1 L 87.5,227.6 L 86.4,227.9 L 85.6,227.9 L 83.4,228.8 L 77.9,233.3 L 75.5,234.0 L 72.2,234.1 L 70.2,233.3 L 68.3,232.3 L 67.6,231.9 L 63.9,228.1 L 61.7,227.6 L 60.6,226.8 L 60.7,226.3 L 60.4,225.7 L 59.2,226.3 L 56.3,225.2 L 52.2,222.8 L 50.8,219.8 L 50.0,219.0 L 48.9,219.1 L 45.8,216.5 L 42.7,215.7 L 40.3,215.7 L 40.0,215.2" fill="none" stroke="black" stroke-width="2"/>
</svg>