<?xml version="1.0" encoding="UTF-8"?>
<svg width="400" height="400" viewBox="0 0 400 400" xmlns="http://www.w3.org/2000/svg">
  <rect width="400" height="400" fill="white"/>
  <path d="M 294.1,348.2 L 292.6,346.8 L 227.1,284.2 L 45.1,110.0 L 41.2,106.3 L 41.6,106.3 L 42.8,106.2 L 43.8,105.9 L 44.6,105.2 L 45.6,103.7 L 45.9,103.0 L 45.8,101.7 L 45.7,100.7 L 45.6,100.4 L 45.6,99.7 L 45.3,99.1 L 44.7,98.5 L 44.0,98.2 L 43.1,98.4 L 42.6,98.8 L 41.5,98.9 L 40.6,98.7 L 40.1,98.7 L 40.0,98.7 L 40.1,97.4 L 42.6,53.6 L 50.1,53.0 L 53.3,52.5 L 56.6,52.7 L 62.2,52.7 L 68.7,52.2 L 77.5,53.4 L 80.8,52.7 L 86.5,52.2 L 93.1,53.0 L 95.5,52.9 L 98.8,54.3 L 101.8,54.0 L 104.6,53.0 L 110.2,53.1 L 111.2,53.8 L 112.1,54.2 L 113.4,55.2 L 113.6,55.7 L 113.3,56.2 L 112.7,56.5 L 112.5,56.7 L 112.4,57.1 L 113.2,57.4 L 114.1,57.6 L 114.7,57.6 L 115.2,57.3 L 115.6,57.6 L 115.7,58.2 L 116.4,58.4 L 116.9,58.4 L 117.5,58.5 L 117.8,59.0 L 118.0,59.2 L 118.3,58.9 L 118.3,58.5 L 118.3,58.0 L 118.3,56.7 L 119.1,56.7 L 119.6,56.3 L 120.0,55.1 L 122.9,52.2 L 127.0,51.8 L 128.0,51.8 L 128.8,52.5 L 128.4,53.4 L 128.2,54.1 L 128.8,54.7 L 129.1,54.8 L 129.5,55.0 L 129.9,54.5 L 130.3,54.4 L 130.4,53.9 L 130.3,53.4 L 130.0,52.9 L 130.2,52.6 L 130.9,52.6 L 131.4,53.3 L 131.9,53.4 L 132.3,53.0 L 132.3,52.7 L 132.3,52.4 L 132.4,52.0 L 133.0,51.9 L 133.6,52.0 L 134.5,52.6 L 135.0,53.3 L 135.2,53.7 L 135.7,53.7 L 136.0,53.8 L 136.3,54.0 L 136.2,54.7 L 136.2,55.0 L 136.5,55.4 L 137.1,53.9 L 142.1,53.7 L 151.9,55.5 L 159.7,57.2 L 163.0,56.8 L 168.8,59.8 L 177.2,61.7 L 180.3,62.8 L 190.7,67.0 L 197.8,71.1 L 207.6,76.5 L 211.3,77.1 L 215.6,79.0 L 226.1,85.4 L 233.7,90.9 L 237.3,94.1 L 239.5,95.3 L 242.4,97.4 L 244.8,98.9 L 247.8,101.2 L 251.7,104.2 L 256.5,106.7 L 261.0,110.7 L 264.9,114.0 L 266.6,115.2 L 267.5,116.7 L 270.8,119.3 L 272.2,120.8 L 273.7,122.2 L 276.4,125.2 L 279.6,128.8 L 282.6,132.3 L 285.7,136.0 L 287.3,139.5 L 288.1,141.5 L 287.1,142.9 L 286.4,144.0 L 286.4,145.2 L 286.6,146.3 L 287.8,147.1 L 289.0,147.7 L 289.7,147.8 L 288.8,149.2 L 289.2,150.3 L 290.0,150.7 L 290.4,151.4 L 291.0,151.8 L 291.7,151.9 L 292.3,152.2 L 292.5,152.6 L 293.1,152.6 L 293.5,152.3 L 293.8,151.9 L 294.6,151.7 L 294.9,151.9 L 295.1,152.2 L 294.8,153.2 L 295.7,153.6 L 298.3,153.6 L 298.7,155.0 L 299.1,156.5 L 299.6,158.2 L 301.6,161.5 L 302.6,164.4 L 303.0,167.2 L 304.2,169.6 L 304.4,172.1 L 304.4,176.9 L 304.4,178.7 L 304.4,178.8 L 305.2,180.0 L 308.0,181.0 L 309.0,181.6 L 310.3,182.1 L 311.0,183.1 L 310.8,184.6 L 310.1,186.1 L 309.7,187.1 L 309.7,187.9 L 310.2,188.2 L 311.0,188.4 L 311.1,188.5 L 311.3,189.0 L 311.5,189.1 L 312.2,189.2 L 312.9,188.8 L 313.3,188.7 L 313.6,188.9 L 313.6,189.3 L 313.3,189.9 L 312.8,190.2 L 312.8,190.6 L 313.6,190.8 L 314.4,190.4 L 314.9,189.9 L 315.9,189.4 L 316.0,189.5 L 315.9,190.1 L 315.2,190.5 L 314.7,191.4 L 314.7,191.9 L 315.8,191.9 L 315.8,192.4 L 314.9,193.0 L 314.0,193.4 L 313.5,193.9 L 313.2,194.4 L 313.1,194.8 L 314.2,195.3 L 315.7,195.0 L 316.9,194.4 L 317.9,193.7 L 318.5,193.1 L 319.4,192.8 L 320.2,192.6 L 320.9,193.1 L 320.3,193.9 L 319.0,194.9 L 317.7,195.7 L 317.3,197.2 L 317.0,198.7 L 316.0,198.9 L 315.2,198.6 L 313.5,198.3 L 312.5,198.4 L 311.9,198.4 L 311.7,199.0 L 312.9,200.1 L 314.3,200.6 L 314.8,200.7 L 315.5,201.2 L 316.3,201.2 L 317.4,201.3 L 318.6,200.1 L 319.5,199.4 L 320.2,198.8 L 320.4,198.4 L 320.7,198.0 L 321.1,197.9 L 321.3,197.7 L 321.5,197.6 L 322.1,197.1 L 322.5,196.3 L 322.8,195.8 L 323.6,195.8 L 323.8,196.0 L 323.7,196.8 L 323.6,197.3 L 324.0,197.5 L 324.8,197.6 L 325.1,197.7 L 326.1,197.8 L 326.8,197.3 L 327.3,196.9 L 328.4,196.4 L 329.3,196.1 L 330.0,196.1 L 330.4,196.3 L 330.6,197.1 L 330.5,197.7 L 330.0,197.8 L 329.2,197.7 L 328.4,197.9 L 327.6,198.1 L 327.0,198.7 L 326.7,199.2 L 326.6,199.8 L 326.5,200.1 L 326.4,200.9 L 326.4,201.2 L 326.7,201.4 L 327.4,200.9 L 327.9,200.5 L 328.2,200.1 L 328.7,199.9 L 329.1,199.8 L 329.6,199.8 L 330.2,200.1 L 330.7,200.7 L 331.3,201.5 L 331.2,202.3 L 330.4,203.0 L 329.8,203.4 L 328.8,203.5 L 327.5,203.4 L 326.6,203.9 L 325.9,204.5 L 325.5,205.2 L 325.4,206.0 L 326.1,206.4 L 326.8,206.5 L 329.0,206.8 L 329.9,206.7 L 330.9,205.9 L 332.1,205.0 L 332.7,204.1 L 332.8,203.1 L 332.9,202.3 L 333.2,201.6 L 333.6,201.5 L 334.2,201.6 L 334.8,202.1 L 335.2,203.6 L 335.3,204.5 L 336.2,206.0 L 336.4,206.1 L 337.0,205.6 L 337.3,204.8 L 337.8,204.2 L 338.3,203.7 L 339.2,203.6 L 339.7,204.2 L 339.5,204.8 L 338.9,205.4 L 338.5,205.9 L 337.2,206.9 L 336.7,207.8 L 336.5,209.0 L 336.9,209.7 L 337.9,210.0 L 338.2,211.0 L 339.5,212.2 L 341.8,213.2 L 344.5,214.0 L 345.8,215.5 L 346.8,217.2 L 346.4,220.1 L 346.0,220.6 L 345.7,221.2 L 345.0,221.5 L 344.3,221.6 L 343.8,221.9 L 343.5,222.5 L 342.5,222.6 L 341.9,222.6 L 341.8,222.8 L 341.9,223.1 L 342.7,223.9 L 343.8,224.9 L 344.9,225.3 L 345.5,226.0 L 345.6,227.5 L 346.0,228.4 L 346.7,229.2 L 347.6,230.5 L 349.7,233.7 L 351.0,235.4 L 350.5,237.2 L 350.9,240.1 L 351.7,246.1 L 352.9,250.2 L 352.5,254.5 L 352.1,258.2 L 351.2,260.9 L 350.5,261.9 L 350.2,263.7 L 348.1,266.6 L 347.1,266.9 L 345.2,267.0 L 343.7,268.0 L 342.7,268.2 L 339.9,265.8 L 337.0,265.1 L 336.2,265.6 L 335.6,266.9 L 336.0,269.3 L 337.0,270.9 L 339.0,272.0 L 340.1,273.4 L 339.7,274.0 L 339.7,275.7 L 340.4,276.7 L 340.9,276.4 L 341.6,276.2 L 342.9,277.1 L 342.7,279.1 L 342.2,280.3 L 341.5,281.5 L 340.8,281.8 L 338.7,281.5 L 337.9,280.6 L 337.2,280.6 L 335.3,280.1 L 334.2,279.8 L 333.6,279.0 L 332.6,278.6 L 330.9,278.4 L 329.3,278.1 L 328.4,277.7 L 327.8,278.4 L 327.1,279.2 L 327.1,280.0 L 327.9,280.9 L 328.2,281.3 L 328.0,282.4 L 327.8,282.8 L 326.9,282.8 L 325.7,282.0 L 324.9,281.7 L 323.9,281.1 L 323.5,281.2 L 322.5,281.7 L 322.5,282.7 L 322.9,284.0 L 324.0,284.2 L 324.9,284.9 L 325.4,285.9 L 325.4,286.6 L 326.0,287.0 L 326.8,287.2 L 327.6,288.0 L 327.5,288.6 L 326.5,288.8 L 324.9,289.3 L 324.3,289.7 L 324.4,290.7 L 325.7,290.4 L 325.7,292.7 L 326.5,293.0 L 326.9,293.4 L 327.2,294.7 L 328.4,295.1 L 329.4,296.5 L 331.2,296.7 L 332.2,296.4 L 333.5,296.7 L 335.3,298.2 L 336.6,299.3 L 337.9,300.7 L 340.7,301.3 L 343.6,301.5 L 344.6,302.2 L 345.0,303.0 L 343.4,303.9 L 343.2,304.4 L 345.4,305.2 L 347.2,305.2 L 349.4,306.0 L 351.3,307.2 L 352.6,307.8 L 353.4,308.8 L 354.6,309.3 L 356.2,309.1 L 357.0,308.0 L 358.0,308.1 L 359.1,309.1 L 360.0,309.9 L 359.6,311.3 L 358.6,312.2 L 358.2,313.5 L 357.4,314.9 L 356.8,316.0 L 355.7,317.2 L 355.0,317.5 L 352.2,315.9 L 349.4,315.3 L 346.8,315.2 L 343.2,314.9 L 342.2,315.3 L 342.1,316.0 L 342.3,316.2 L 341.8,317.4 L 341.4,317.4 L 340.8,317.1 L 340.3,317.0 L 339.8,317.1 L 339.3,317.1 L 338.5,316.6 L 337.2,316.1 L 336.4,316.1 L 335.3,316.8 L 333.9,317.2 L 333.1,316.9 L 333.8,315.4 L 334.6,313.4 L 334.7,312.9 L 334.7,311.7 L 331.9,308.7 L 329.7,307.1 L 328.1,306.7 L 327.7,306.0 L 328.1,305.4 L 328.8,304.7 L 328.1,303.6 L 327.6,303.3 L 327.7,302.8 L 327.1,301.8 L 325.3,299.9 L 324.3,300.0 L 323.1,301.6 L 322.3,303.4 L 322.5,304.1 L 322.6,304.4 L 322.3,305.1 L 321.4,305.2 L 319.8,304.8 L 317.9,304.6 L 316.1,304.5 L 315.0,305.2 L 315.1,305.6 L 314.8,306.1 L 312.8,305.4 L 310.2,305.3 L 309.1,306.0 L 308.9,307.0 L 310.2,307.6 L 310.2,308.1 L 309.5,308.6 L 309.7,309.1 L 310.2,309.8 L 311.3,310.5 L 312.8,310.9 L 313.2,311.0 L 316.2,311.5 L 317.4,312.2 L 316.7,312.9 L 315.3,312.4 L 314.5,312.4 L 313.4,312.8 L 312.7,312.4 L 311.8,312.2 L 311.3,312.6 L 312.0,313.9 L 312.1,314.5 L 312.0,315.1 L 313.1,315.1 L 315.1,315.1 L 316.6,316.8 L 316.5,318.6 L 315.6,322.1 L 315.7,324.0 L 316.4,325.2 L 317.4,326.4 L 318.7,327.8 L 320.0,328.1 L 321.2,330.2 L 321.6,332.0 L 321.1,332.8 L 320.4,332.8 L 319.3,332.2 L 318.6,331.4 L 316.7,330.5 L 315.3,328.2 L 313.7,326.8 L 312.5,326.0 L 309.3,325.7 L 306.8,326.0 L 305.4,326.1 L 304.5,326.4 L 304.6,327.0 L 304.9,328.0 L 304.7,328.6 L 303.6,328.8 L 303.1,328.4 L 302.3,326.4 L 300.6,325.1 L 298.6,324.5 L 297.7,324.8 L 297.9,325.4 L 298.1,326.6 L 298.2,328.5 L 298.3,329.1 L 299.8,330.2 L 300.9,330.0 L 302.6,329.6 L 303.4,330.8 L 305.1,330.9 L 305.8,331.2 L 307.1,331.5 L 307.6,333.1 L 308.9,333.4 L 309.6,334.0 L 308.9,334.4 L 308.0,334.4 L 306.7,334.7 L 306.3,335.2 L 304.4,335.1 L 303.4,335.7 L 303.2,336.2 L 303.2,336.8 L 303.7,337.7 L 303.5,338.0 L 302.7,338.8 L 302.8,339.1 L 304.6,340.7 L 305.0,341.2 L 305.4,342.8 L 305.0,343.0 L 303.3,342.7 L 301.7,342.8 L 300.6,342.6 L 299.6,341.6 L 298.3,339.6 L 297.4,338.7 L 296.9,338.5 L 296.4,338.6 L 295.6,339.4 L 294.8,341.2 L 294.6,342.3 L 294.8,342.8 L 295.4,343.5 L 295.4,344.1 L 294.6,346.4 L 294.1,348.2" fill="none" stroke="black" stroke-width="2"/>
</svg>