<?xml version="1.0" encoding="UTF-8"?>
<svg width="400" height="400" viewBox="0 0 400 400" xmlns="http://www.w3.org/2000/svg">
  <rect width="400" height="400" fill="white"/>
  <path d="M 149.3,247.7 L 149.9,245.4 L 148.6,240.4 L 146.2,237.6 L 143.7,236.5 L 144.8,234.2 L 145.0,228.9 L 144.6,228.2 L 142.5,227.4 L 140.2,223.7 L 135.5,222.6 L 135.4,221.7 L 137.6,219.1 L 137.7,217.7 L 136.7,216.8 L 134.7,217.3 L 132.8,216.0 L 132.9,214.5 L 132.2,213.1 L 130.6,211.0 L 129.2,211.5 L 127.3,211.6 L 125.6,210.1 L 125.8,207.9 L 128.2,206.1 L 128.8,204.4 L 128.0,200.7 L 123.6,193.5 L 121.4,191.7 L 117.9,190.8 L 113.1,191.4 L 111.1,191.7 L 106.3,195.6 L 104.3,195.7 L 99.3,200.5 L 97.6,202.5 L 97.4,204.2 L 90.5,203.7 L 88.2,203.5 L 88.4,202.4 L 88.2,199.7 L 86.9,197.0 L 82.2,196.1 L 80.1,197.0 L 78.8,197.1 L 78.2,196.4 L 79.6,195.4 L 82.5,192.6 L 89.1,187.1 L 89.7,185.2 L 90.8,180.6 L 91.2,178.7 L 91.7,172.6 L 91.0,164.0 L 89.9,163.0 L 88.1,161.3 L 88.5,160.0 L 89.3,159.9 L 93.2,160.5 L 93.9,158.1 L 93.2,151.5 L 92.0,147.8 L 93.3,144.7 L 93.5,143.4 L 93.2,141.4 L 91.7,136.6 L 90.1,134.5 L 91.6,132.7 L 91.3,128.5 L 91.5,125.7 L 91.1,123.4 L 91.6,118.0 L 89.5,113.6 L 88.3,110.7 L 86.6,107.5 L 85.4,103.4 L 85.6,99.2 L 86.7,98.7 L 87.6,98.1 L 87.3,94.1 L 83.7,90.5 L 82.2,90.0 L 79.6,87.3 L 79.5,86.4 L 83.3,85.2 L 85.4,84.5 L 87.7,82.8 L 91.3,81.3 L 92.4,81.9 L 93.4,85.5 L 94.1,87.3 L 95.0,89.1 L 94.8,96.6 L 96.0,100.8 L 96.4,103.1 L 96.5,109.4 L 97.2,111.5 L 99.1,112.5 L 101.5,112.5 L 104.2,111.4 L 107.5,108.9 L 108.6,106.1 L 111.6,105.3 L 111.9,104.0 L 110.6,101.7 L 110.3,100.4 L 111.1,100.2 L 113.6,102.4 L 117.5,105.0 L 120.0,106.7 L 121.5,107.3 L 124.9,106.3 L 126.1,106.8 L 133.1,112.1 L 133.7,113.2 L 132.0,114.8 L 131.4,116.1 L 132.4,117.7 L 135.3,122.3 L 136.5,122.9 L 137.9,122.6 L 139.1,120.7 L 138.1,117.3 L 139.5,116.4 L 140.2,113.8 L 140.5,110.1 L 140.4,106.6 L 142.1,97.9 L 142.6,89.2 L 142.3,80.6 L 141.9,77.8 L 142.6,77.6 L 144.6,76.5 L 145.3,74.3 L 145.1,70.8 L 145.5,68.9 L 146.5,60.6 L 148.3,62.3 L 149.8,62.9 L 151.4,62.2 L 152.6,59.2 L 153.1,51.1 L 153.6,47.2 L 156.2,40.0 L 157.1,40.5 L 159.3,42.3 L 161.4,44.0 L 161.3,46.8 L 160.5,48.3 L 158.7,52.3 L 154.9,57.9 L 154.0,59.8 L 153.2,62.1 L 151.8,67.0 L 150.4,75.4 L 151.5,80.2 L 153.6,88.7 L 159.4,95.3 L 159.7,99.1 L 162.3,102.0 L 159.9,104.2 L 157.7,104.4 L 157.2,105.2 L 158.2,108.4 L 161.3,111.3 L 162.5,111.6 L 163.5,110.6 L 163.3,108.6 L 162.8,106.8 L 163.9,106.0 L 164.8,106.1 L 164.5,113.8 L 165.1,115.1 L 167.0,115.5 L 167.8,114.3 L 167.3,112.5 L 167.9,110.8 L 168.5,109.1 L 168.9,107.1 L 171.0,112.4 L 171.3,113.9 L 170.4,116.7 L 171.3,121.8 L 171.1,125.8 L 170.5,127.7 L 169.5,129.8 L 169.5,132.2 L 168.8,140.3 L 167.8,143.0 L 169.6,150.6 L 170.4,151.2 L 171.1,150.6 L 172.2,150.4 L 173.5,151.0 L 173.6,152.5 L 172.1,154.2 L 170.6,156.9 L 170.6,159.1 L 169.8,160.7 L 168.8,169.2 L 169.7,171.5 L 169.7,173.5 L 170.0,174.8 L 172.6,178.1 L 178.9,184.1 L 183.6,188.9 L 183.9,189.2 L 188.4,190.5 L 192.8,192.9 L 195.6,195.1 L 196.0,196.2 L 197.2,199.4 L 200.0,202.7 L 201.3,205.0 L 204.7,209.5 L 206.9,211.2 L 210.3,212.2 L 211.3,213.2 L 211.3,214.0 L 210.5,217.5 L 211.8,220.9 L 213.2,221.4 L 214.9,222.3 L 216.4,225.2 L 218.2,229.8 L 218.8,230.5 L 220.4,229.8 L 221.3,231.6 L 223.1,234.0 L 225.9,234.4 L 231.3,232.9 L 232.1,231.7 L 233.1,232.2 L 234.4,232.8 L 238.2,231.1 L 239.1,229.2 L 243.5,229.0 L 252.0,229.1 L 254.5,228.7 L 260.5,227.7 L 266.4,227.3 L 267.7,225.9 L 268.2,227.5 L 269.5,228.0 L 271.8,226.5 L 272.3,225.4 L 270.6,222.6 L 271.2,220.5 L 271.7,217.5 L 272.4,214.9 L 274.0,214.0 L 272.4,209.4 L 270.6,205.7 L 270.5,201.4 L 269.4,199.3 L 268.3,196.6 L 268.3,196.5 L 266.2,193.3 L 266.3,189.4 L 264.4,186.6 L 264.2,183.7 L 263.9,182.8 L 265.2,182.2 L 265.4,182.9 L 266.0,183.6 L 266.6,186.3 L 268.0,187.8 L 269.2,189.4 L 272.7,192.3 L 276.1,192.9 L 281.3,191.4 L 283.7,191.1 L 283.9,191.8 L 281.8,193.6 L 278.9,196.2 L 278.6,197.4 L 278.2,199.2 L 278.7,201.2 L 279.9,202.4 L 279.5,204.6 L 279.6,208.1 L 282.5,214.9 L 283.4,221.6 L 284.1,223.2 L 287.7,225.5 L 292.5,225.3 L 295.4,229.3 L 297.3,231.0 L 301.4,236.6 L 300.4,237.2 L 300.9,239.0 L 301.3,240.3 L 304.4,242.1 L 306.7,242.5 L 309.6,243.0 L 312.2,242.6 L 316.3,243.4 L 317.8,244.0 L 319.1,246.3 L 321.4,250.7 L 321.8,253.1 L 321.1,256.6 L 316.0,261.6 L 310.9,264.9 L 304.5,266.6 L 302.6,267.2 L 300.7,266.4 L 299.0,265.5 L 298.1,265.9 L 298.0,269.2 L 295.6,272.0 L 295.1,274.8 L 294.2,277.6 L 293.5,280.2 L 294.4,282.5 L 295.5,285.4 L 296.4,286.6 L 298.4,286.8 L 299.8,285.6 L 301.1,278.2 L 302.1,277.0 L 301.6,282.4 L 301.4,290.1 L 301.5,294.3 L 300.1,297.0 L 299.6,300.7 L 299.7,304.0 L 299.9,306.6 L 300.5,309.8 L 300.6,309.9 L 302.0,312.3 L 302.3,313.9 L 304.3,318.9 L 307.6,323.3 L 307.7,324.9 L 308.2,326.5 L 309.1,326.3 L 311.2,327.4 L 312.8,329.3 L 312.9,331.0 L 313.7,331.8 L 308.9,333.1 L 307.6,333.9 L 306.8,338.0 L 305.5,346.6 L 309.2,347.6 L 308.9,348.2 L 307.4,350.7 L 305.5,359.1 L 305.5,359.2 L 282.2,359.9 L 278.3,360.0 L 278.2,360.0 L 278.1,357.1 L 275.2,355.1 L 271.7,351.9 L 270.6,352.3 L 269.3,352.6 L 267.8,351.6 L 267.6,348.9 L 267.4,344.1 L 265.1,342.6 L 264.6,340.8 L 258.9,338.5 L 257.0,337.2 L 252.5,334.4 L 251.9,333.3 L 251.2,331.9 L 248.1,331.2 L 246.6,331.5 L 246.1,332.5 L 243.0,332.5 L 240.8,332.5 L 239.2,332.6 L 236.5,331.0 L 234.6,330.2 L 232.9,330.2 L 232.1,331.7 L 231.8,333.0 L 230.0,332.8 L 222.7,331.7 L 222.0,331.2 L 222.0,329.7 L 220.5,329.1 L 219.6,329.0 L 217.1,330.0 L 213.8,326.1 L 149.1,249.4 L 146.7,246.6 L 147.5,247.1 L 149.3,247.7" fill="none" stroke="black" stroke-width="2"/>
</svg>