<?xml version="1.0" encoding="UTF-8"?>
<svg width="400" height="400" viewBox="0 0 400 400" xmlns="http://www.w3.org/2000/svg">
  <rect width="400" height="400" fill="white"/>
  <path d="M 122.3,144.2 L 122.5,144.2 L 123.4,144.8 L 125.9,144.7 L 127.1,144.5 L 128.9,144.8 L 129.5,144.5 L 132.4,144.4 L 133.2,144.1 L 134.3,143.5 L 135.5,143.4 L 137.9,143.5 L 138.6,143.4 L 141.7,143.8 L 143.7,144.0 L 146.5,144.7 L 146.9,145.2 L 147.3,146.0 L 148.8,147.3 L 149.0,148.2 L 149.2,149.1 L 149.0,150.4 L 148.7,151.0 L 149.9,152.2 L 150.1,153.9 L 150.6,155.5 L 151.2,156.2 L 151.8,156.2 L 153.0,155.5 L 154.0,156.6 L 154.9,156.7 L 155.9,155.8 L 157.2,152.4 L 157.6,151.6 L 157.9,149.8 L 157.8,146.2 L 157.9,145.3 L 158.6,144.6 L 158.5,144.0 L 158.4,143.6 L 158.4,142.9 L 158.3,142.3 L 158.8,141.2 L 160.6,139.0 L 161.2,137.5 L 161.3,136.4 L 162.0,134.4 L 163.8,126.8 L 164.0,123.8 L 164.4,121.4 L 165.6,118.9 L 168.3,114.0 L 168.5,113.7 L 169.2,112.7 L 169.4,111.3 L 168.5,109.4 L 168.9,107.8 L 169.3,107.0 L 169.5,106.2 L 170.0,105.5 L 170.7,103.8 L 171.8,101.7 L 172.2,100.5 L 173.0,99.4 L 173.3,98.1 L 173.6,97.2 L 174.0,95.3 L 174.9,93.1 L 175.6,93.0 L 176.2,91.5 L 176.3,90.7 L 176.1,90.3 L 176.7,88.8 L 178.0,86.8 L 178.2,85.3 L 178.9,84.3 L 179.9,82.3 L 181.4,80.6 L 182.1,79.2 L 182.7,78.5 L 183.1,77.9 L 186.0,75.2 L 187.5,74.0 L 190.4,70.2 L 191.0,69.4 L 192.2,68.6 L 193.5,67.9 L 193.7,67.2 L 194.3,66.7 L 193.8,66.1 L 194.1,65.8 L 194.7,65.8 L 195.1,65.4 L 195.7,64.1 L 196.2,63.6 L 196.7,63.4 L 197.4,64.0 L 197.7,63.9 L 197.9,63.7 L 197.9,63.3 L 197.8,63.1 L 197.9,63.0 L 198.8,62.7 L 198.8,62.6 L 198.9,62.5 L 199.1,62.4 L 199.4,62.4 L 199.7,62.2 L 200.2,61.6 L 200.2,61.5 L 199.9,61.0 L 200.2,60.8 L 200.5,60.7 L 201.3,60.8 L 201.6,60.7 L 202.3,60.3 L 202.8,60.1 L 202.8,60.0 L 202.5,59.4 L 202.5,59.2 L 202.7,59.0 L 203.3,58.5 L 203.9,58.1 L 204.1,58.1 L 204.3,58.2 L 204.4,58.4 L 205.5,57.8 L 208.9,54.0 L 210.6,52.3 L 210.6,52.3 L 212.6,50.6 L 214.6,48.6 L 215.0,48.4 L 215.5,48.5 L 216.8,50.1 L 217.6,49.6 L 218.3,48.9 L 219.1,48.9 L 222.0,50.5 L 222.8,51.5 L 223.1,51.4 L 225.3,51.6 L 226.1,51.4 L 227.1,50.7 L 228.2,49.6 L 230.4,48.3 L 231.0,47.5 L 234.2,44.7 L 236.0,44.2 L 237.2,42.2 L 237.4,41.1 L 238.4,40.1 L 239.8,40.0 L 241.2,40.3 L 241.7,40.5 L 242.1,41.1 L 242.4,41.7 L 242.8,42.2 L 243.5,41.7 L 243.9,41.9 L 244.0,43.0 L 243.7,45.3 L 242.6,48.6 L 242.4,51.6 L 242.5,54.1 L 243.3,56.0 L 243.9,56.6 L 245.9,56.9 L 246.8,57.4 L 246.9,57.5 L 247.4,57.9 L 248.2,58.0 L 248.7,57.7 L 248.7,57.7 L 250.1,56.7 L 250.9,56.4 L 251.8,56.6 L 252.2,57.6 L 252.5,58.0 L 253.7,58.3 L 255.3,58.4 L 256.8,58.0 L 258.3,56.5 L 259.6,54.0 L 260.4,52.1 L 260.8,51.8 L 262.8,52.1 L 263.2,52.7 L 263.4,54.5 L 264.0,55.6 L 264.5,57.3 L 265.3,58.1 L 266.1,58.5 L 268.2,59.0 L 268.8,59.4 L 269.7,60.6 L 270.4,60.6 L 272.2,59.8 L 273.4,59.7 L 274.5,58.8 L 275.5,57.4 L 275.8,56.6 L 275.7,56.2 L 275.3,51.4 L 276.2,50.3 L 277.7,50.0 L 279.5,50.2 L 280.5,50.5 L 280.8,50.9 L 280.9,51.9 L 280.4,55.3 L 280.6,56.9 L 281.0,58.0 L 281.7,58.4 L 282.3,59.6 L 282.9,60.5 L 284.0,62.7 L 284.0,62.8 L 284.9,63.4 L 285.6,63.4 L 286.6,63.1 L 286.7,63.1 L 289.5,61.5 L 291.3,60.0 L 292.9,58.6 L 296.3,56.7 L 299.6,55.2 L 300.2,55.4 L 300.4,55.8 L 300.3,56.5 L 300.1,56.9 L 299.9,57.5 L 300.1,59.7 L 300.2,60.8 L 301.0,61.3 L 301.6,62.0 L 302.3,62.7 L 303.3,63.2 L 303.9,63.0 L 304.8,62.4 L 305.4,62.4 L 306.6,62.4 L 307.3,63.1 L 308.2,63.2 L 309.1,63.6 L 309.9,63.4 L 310.6,63.3 L 312.0,62.2 L 312.7,61.4 L 313.4,60.1 L 313.8,59.0 L 314.3,58.4 L 315.5,58.2 L 318.1,56.9 L 318.6,56.5 L 318.6,55.2 L 319.5,54.0 L 320.1,52.8 L 321.1,52.1 L 321.7,50.8 L 322.2,50.6 L 323.0,50.6 L 323.2,50.8 L 323.8,50.6 L 325.5,50.6 L 326.1,50.1 L 326.8,49.2 L 326.6,50.6 L 327.3,50.5 L 328.7,51.2 L 328.9,53.0 L 330.2,56.7 L 330.7,57.9 L 331.1,58.8 L 331.0,60.1 L 329.4,61.6 L 329.2,62.4 L 329.2,63.8 L 328.6,64.4 L 326.5,66.5 L 326.2,68.7 L 326.2,68.8 L 325.9,69.8 L 325.1,73.1 L 324.3,73.5 L 323.7,74.1 L 324.4,75.0 L 324.2,76.3 L 323.8,78.2 L 323.2,79.0 L 322.8,79.5 L 322.1,80.2 L 321.1,85.5 L 321.2,86.1 L 321.0,87.1 L 320.7,87.4 L 319.7,90.1 L 319.4,91.7 L 320.1,92.7 L 321.2,93.3 L 323.7,93.7 L 325.5,94.5 L 326.6,95.2 L 327.6,96.6 L 327.6,98.0 L 328.5,99.0 L 329.4,100.5 L 330.3,100.5 L 330.2,101.5 L 331.0,102.8 L 331.0,103.6 L 330.5,104.4 L 329.8,105.5 L 329.4,107.1 L 328.3,108.7 L 327.3,110.7 L 325.6,114.4 L 324.4,115.8 L 323.6,116.1 L 322.5,115.6 L 321.9,115.8 L 321.7,116.4 L 321.1,117.1 L 320.9,117.4 L 321.4,119.2 L 321.6,120.6 L 321.2,120.9 L 320.2,120.9 L 319.3,119.9 L 318.7,118.1 L 318.3,116.4 L 317.7,115.4 L 317.1,114.7 L 315.4,113.8 L 314.7,113.0 L 313.9,108.1 L 312.1,106.0 L 311.5,104.9 L 311.3,103.3 L 311.4,102.1 L 312.2,101.4 L 312.9,101.0 L 314.0,98.7 L 314.5,97.1 L 314.5,95.9 L 314.3,94.8 L 312.1,94.8 L 309.9,96.4 L 310.0,96.9 L 309.7,98.0 L 309.1,99.1 L 308.5,100.3 L 308.1,100.7 L 307.0,100.7 L 306.2,100.1 L 305.9,98.8 L 306.3,98.2 L 306.2,98.0 L 304.9,98.1 L 302.3,99.7 L 302.0,99.6 L 301.9,99.6 L 301.5,98.7 L 301.5,98.4 L 302.2,97.9 L 302.6,97.6 L 303.4,96.5 L 303.4,96.0 L 302.8,95.7 L 302.4,95.7 L 301.8,95.9 L 301.1,95.3 L 301.0,94.3 L 299.5,94.0 L 299.3,93.1 L 298.7,92.9 L 298.0,93.1 L 296.9,93.6 L 296.2,93.6 L 294.9,92.0 L 294.8,90.9 L 294.1,90.8 L 293.1,89.4 L 293.5,88.6 L 293.4,86.6 L 293.4,85.4 L 293.9,83.3 L 294.4,82.2 L 294.7,79.9 L 294.4,79.4 L 293.9,79.1 L 293.3,79.3 L 292.6,78.9 L 291.0,78.9 L 290.5,79.3 L 289.9,80.6 L 289.7,82.4 L 289.7,83.4 L 290.2,84.6 L 291.0,88.8 L 290.7,90.1 L 289.9,92.5 L 287.8,94.7 L 287.9,95.6 L 288.7,96.8 L 289.1,97.2 L 291.9,95.2 L 292.2,95.2 L 292.8,95.5 L 293.2,96.2 L 292.9,98.3 L 293.0,98.9 L 292.8,100.4 L 292.2,101.8 L 292.7,102.8 L 292.5,103.9 L 292.0,104.4 L 292.3,104.8 L 292.3,105.4 L 291.5,105.9 L 291.0,106.6 L 290.4,107.9 L 290.4,108.2 L 289.9,109.1 L 289.3,109.3 L 288.7,109.6 L 288.0,110.4 L 288.1,110.9 L 288.0,111.8 L 287.6,112.1 L 287.5,112.8 L 287.7,113.6 L 287.7,114.5 L 288.2,116.0 L 288.1,117.7 L 288.2,118.3 L 288.8,119.8 L 287.5,121.9 L 285.7,124.6 L 285.2,125.3 L 284.9,126.2 L 285.7,128.4 L 285.4,130.0 L 285.2,131.0 L 284.9,131.4 L 283.9,131.3 L 283.5,131.6 L 283.1,133.6 L 282.8,134.4 L 282.4,136.4 L 282.9,139.2 L 283.0,140.9 L 283.2,141.6 L 283.1,142.6 L 281.9,143.5 L 281.7,146.9 L 280.7,147.8 L 280.2,149.1 L 279.6,149.7 L 279.0,153.1 L 278.2,154.7 L 278.1,155.6 L 277.8,156.5 L 277.9,158.2 L 277.9,158.8 L 277.5,160.1 L 277.6,164.2 L 277.4,165.4 L 277.5,167.1 L 277.6,168.4 L 277.9,171.4 L 277.1,177.3 L 276.6,178.0 L 276.4,179.0 L 275.8,180.0 L 275.6,180.6 L 275.9,182.4 L 275.4,183.4 L 274.9,185.3 L 274.0,185.5 L 273.6,184.8 L 273.0,184.6 L 272.7,185.8 L 272.1,185.9 L 271.8,186.2 L 271.6,186.7 L 271.8,187.4 L 272.6,188.0 L 273.1,188.9 L 273.0,189.8 L 272.5,189.9 L 272.3,190.5 L 272.5,191.8 L 273.4,192.9 L 273.5,193.6 L 273.8,194.5 L 274.0,195.3 L 274.2,199.0 L 274.6,200.1 L 275.9,202.0 L 277.0,204.4 L 277.3,204.6 L 277.5,205.4 L 277.2,207.3 L 276.3,209.2 L 276.0,210.0 L 275.5,212.6 L 275.7,213.4 L 276.1,213.8 L 277.0,216.2 L 277.2,217.9 L 277.1,219.0 L 276.6,220.8 L 276.2,221.4 L 275.2,221.4 L 274.6,221.2 L 273.7,222.1 L 273.9,222.5 L 273.2,224.4 L 271.9,225.5 L 271.4,226.6 L 270.2,226.6 L 269.6,227.0 L 269.0,229.5 L 268.7,230.5 L 268.5,232.3 L 268.5,233.5 L 270.1,236.9 L 269.9,237.5 L 269.7,238.2 L 269.0,239.0 L 268.8,239.7 L 268.8,239.8 L 268.7,240.0 L 268.9,242.4 L 268.7,243.5 L 268.3,244.2 L 268.1,244.7 L 268.4,245.1 L 268.2,246.5 L 267.6,247.0 L 266.5,247.5 L 265.3,248.4 L 265.1,251.6 L 265.6,254.1 L 266.2,255.0 L 266.1,256.7 L 266.2,257.5 L 266.0,259.3 L 266.2,259.7 L 265.9,260.6 L 266.0,261.5 L 265.9,262.6 L 265.5,264.0 L 265.8,267.2 L 265.9,268.1 L 266.3,269.5 L 267.3,270.3 L 267.2,271.6 L 266.3,272.4 L 266.2,273.1 L 266.6,273.7 L 267.2,274.8 L 268.6,276.1 L 268.6,276.8 L 268.2,277.2 L 267.8,279.4 L 268.3,280.9 L 269.0,281.9 L 268.5,283.0 L 266.5,285.3 L 266.1,286.2 L 265.7,288.6 L 265.0,290.3 L 264.0,291.8 L 263.5,293.3 L 263.2,295.5 L 263.4,296.7 L 263.3,297.7 L 263.8,298.7 L 263.8,300.0 L 264.4,300.9 L 264.4,301.3 L 263.9,301.9 L 263.6,302.5 L 262.6,309.0 L 262.7,310.0 L 262.9,310.8 L 263.0,312.7 L 263.5,314.5 L 263.9,316.9 L 264.0,318.6 L 264.6,319.0 L 266.0,323.0 L 266.4,325.0 L 267.3,327.6 L 267.1,329.1 L 267.4,329.5 L 268.2,329.8 L 268.8,330.9 L 268.7,331.6 L 268.9,334.0 L 268.3,334.4 L 267.9,334.9 L 268.4,335.5 L 268.1,336.2 L 268.8,336.9 L 269.1,338.1 L 269.0,339.9 L 269.1,340.5 L 268.8,342.3 L 268.3,344.6 L 267.5,345.0 L 266.6,344.6 L 265.9,344.4 L 265.0,345.0 L 264.4,346.2 L 264.5,347.2 L 264.4,348.7 L 264.4,350.5 L 264.7,352.5 L 265.2,353.2 L 265.8,353.0 L 265.9,352.8 L 266.3,352.4 L 266.9,352.4 L 267.9,353.4 L 268.4,354.2 L 268.5,355.0 L 269.2,355.8 L 270.0,357.9 L 270.0,358.9 L 269.9,359.5 L 269.7,359.5 L 268.6,359.5 L 268.6,358.6 L 268.3,358.2 L 268.2,356.9 L 267.4,356.0 L 266.6,355.9 L 266.1,356.7 L 265.3,356.4 L 265.2,356.7 L 265.5,357.5 L 265.4,358.2 L 265.0,358.5 L 263.5,358.5 L 263.1,358.6 L 263.0,359.5 L 262.2,359.5 L 262.1,358.4 L 262.1,357.8 L 262.1,357.3 L 261.2,356.1 L 259.1,355.9 L 258.7,356.2 L 258.5,357.3 L 258.6,357.7 L 258.7,359.3 L 258.5,359.7 L 258.6,360.0 L 257.1,359.2 L 256.4,357.1 L 257.6,353.9 L 257.6,352.7 L 257.3,352.2 L 257.2,351.3 L 257.5,348.7 L 257.9,347.8 L 258.3,347.5 L 258.8,347.5 L 258.9,347.0 L 258.6,346.7 L 257.7,346.3 L 257.3,345.3 L 257.1,343.9 L 257.6,343.4 L 258.4,342.6 L 258.5,342.1 L 258.0,341.9 L 257.8,341.8 L 257.5,341.3 L 257.4,340.2 L 257.5,339.7 L 257.9,338.9 L 257.5,338.3 L 257.9,337.8 L 257.4,337.3 L 257.4,336.9 L 257.7,336.6 L 257.8,335.7 L 257.0,335.1 L 256.0,333.9 L 256.3,332.7 L 257.8,330.7 L 257.8,330.4 L 257.0,330.6 L 256.1,329.9 L 256.5,329.3 L 256.3,327.4 L 255.4,326.3 L 255.5,325.5 L 255.1,324.5 L 255.4,322.9 L 255.9,322.3 L 255.9,321.9 L 255.2,320.8 L 255.0,319.6 L 255.0,318.1 L 254.9,316.9 L 255.2,315.3 L 255.6,314.5 L 255.6,314.0 L 255.1,313.2 L 254.7,311.6 L 254.5,309.9 L 254.5,308.8 L 254.2,307.5 L 254.4,304.1 L 254.4,300.3 L 254.9,298.3 L 254.4,296.5 L 254.8,293.9 L 255.4,291.7 L 255.9,291.4 L 256.3,291.5 L 256.7,290.9 L 256.9,289.6 L 257.6,288.2 L 257.4,287.8 L 256.5,287.2 L 256.4,286.3 L 256.6,283.8 L 255.2,282.8 L 254.8,282.3 L 254.2,280.9 L 254.4,276.8 L 254.1,274.9 L 253.7,274.1 L 253.3,272.6 L 252.4,271.2 L 250.6,269.5 L 246.9,267.9 L 246.0,265.7 L 245.9,265.4 L 245.5,264.4 L 245.2,264.0 L 244.7,263.8 L 243.9,264.4 L 242.8,264.5 L 240.8,263.9 L 240.1,263.3 L 239.5,262.4 L 239.5,261.7 L 239.5,261.3 L 239.2,260.9 L 238.9,260.9 L 238.5,261.4 L 237.9,261.5 L 237.0,261.2 L 236.5,260.7 L 236.1,259.7 L 236.8,259.1 L 237.4,258.6 L 237.8,257.8 L 238.6,257.0 L 239.2,255.8 L 240.4,254.7 L 240.5,253.9 L 240.3,252.8 L 239.1,251.7 L 238.6,251.0 L 237.9,250.5 L 237.6,249.7 L 237.2,247.8 L 237.1,246.9 L 236.3,246.5 L 236.5,246.1 L 237.0,245.1 L 236.7,244.8 L 235.8,244.9 L 235.9,246.0 L 236.1,246.2 L 236.2,246.9 L 235.9,247.3 L 235.2,247.9 L 233.9,247.9 L 233.5,248.4 L 233.1,248.6 L 231.5,247.4 L 231.1,247.6 L 230.3,248.6 L 228.9,249.2 L 228.6,251.0 L 228.9,252.5 L 230.8,254.7 L 232.9,258.0 L 233.2,258.9 L 232.5,259.9 L 230.9,261.1 L 229.9,261.1 L 227.3,260.0 L 227.1,258.1 L 226.4,257.0 L 225.4,255.6 L 224.7,254.1 L 223.2,251.2 L 222.7,250.2 L 221.5,248.2 L 219.8,246.1 L 217.9,244.2 L 215.7,242.8 L 215.7,242.0 L 215.3,241.8 L 214.7,241.6 L 214.5,241.5 L 214.5,239.7 L 214.3,239.4 L 215.1,238.7 L 215.4,236.5 L 216.2,235.5 L 216.3,234.2 L 215.7,231.1 L 215.6,228.3 L 216.2,225.4 L 216.9,224.4 L 218.2,223.0 L 219.6,222.0 L 219.8,220.9 L 220.2,220.1 L 220.3,219.3 L 220.1,218.4 L 220.5,216.3 L 220.8,215.7 L 222.0,214.6 L 222.6,211.9 L 224.0,208.8 L 224.7,207.0 L 226.7,204.3 L 228.6,203.2 L 228.8,202.7 L 228.7,201.6 L 229.4,198.7 L 230.1,196.9 L 230.6,196.0 L 231.2,193.6 L 231.9,192.5 L 232.3,192.0 L 232.7,189.2 L 232.2,188.6 L 232.2,187.1 L 233.0,183.3 L 233.3,182.5 L 233.1,181.2 L 233.2,180.0 L 232.7,178.7 L 232.4,178.3 L 233.0,175.7 L 232.7,174.4 L 232.2,173.9 L 229.5,172.5 L 229.3,170.3 L 229.4,169.3 L 229.2,168.2 L 229.9,163.7 L 230.3,162.1 L 230.4,161.8 L 230.8,160.2 L 230.5,159.2 L 230.0,159.0 L 229.1,159.0 L 228.1,159.3 L 226.5,159.0 L 225.5,158.1 L 223.3,157.0 L 221.4,156.7 L 219.4,156.6 L 216.1,156.1 L 215.7,155.6 L 215.1,155.2 L 214.2,155.2 L 213.4,156.3 L 212.4,157.0 L 211.4,156.9 L 210.4,156.1 L 209.8,155.8 L 207.4,156.3 L 203.3,158.0 L 202.2,158.7 L 201.9,159.5 L 200.9,161.2 L 199.4,162.4 L 197.3,163.1 L 194.9,163.6 L 194.1,164.5 L 193.9,165.2 L 193.4,165.8 L 193.1,167.2 L 192.0,168.0 L 191.0,168.3 L 189.9,168.2 L 188.3,167.4 L 187.1,166.6 L 186.4,166.6 L 184.5,166.5 L 182.9,167.8 L 181.5,168.3 L 180.0,168.4 L 178.3,167.8 L 175.6,167.5 L 174.2,167.0 L 172.4,166.5 L 171.9,166.9 L 170.5,167.3 L 170.4,168.0 L 170.6,168.7 L 169.4,168.5 L 168.7,168.8 L 168.4,170.6 L 168.5,171.0 L 167.6,172.4 L 167.0,172.8 L 166.4,172.9 L 165.6,173.4 L 165.4,173.8 L 164.8,174.3 L 163.2,172.9 L 162.8,173.1 L 162.1,173.0 L 161.4,173.4 L 161.1,174.2 L 160.5,178.0 L 159.5,178.8 L 158.6,179.0 L 157.7,179.5 L 156.9,180.4 L 157.2,180.7 L 157.5,181.9 L 158.3,183.2 L 159.1,186.8 L 160.1,190.3 L 160.1,191.1 L 159.7,191.8 L 158.4,193.1 L 157.1,196.6 L 156.0,197.4 L 155.7,199.3 L 155.6,199.7 L 154.8,200.7 L 154.5,201.2 L 153.9,201.3 L 153.6,202.1 L 153.4,205.1 L 152.9,207.0 L 153.0,208.5 L 152.9,209.8 L 152.1,212.3 L 151.6,216.3 L 151.9,218.2 L 152.0,221.1 L 151.7,225.6 L 151.3,226.0 L 150.4,226.2 L 150.1,226.6 L 150.4,227.2 L 150.1,231.1 L 149.9,231.4 L 149.0,231.3 L 148.5,232.8 L 149.6,233.9 L 149.8,234.4 L 149.6,236.3 L 149.2,236.9 L 149.0,238.0 L 149.2,238.9 L 150.6,240.5 L 150.3,242.7 L 149.7,243.7 L 149.3,245.4 L 149.0,246.2 L 148.5,246.8 L 146.6,249.0 L 144.1,251.7 L 142.8,252.6 L 141.6,252.9 L 139.7,253.6 L 138.4,253.6 L 137.0,254.1 L 136.0,255.1 L 135.9,255.4 L 135.8,255.9 L 134.8,256.6 L 132.5,256.7 L 132.3,256.8 L 131.7,256.5 L 128.7,256.2 L 127.1,256.6 L 126.0,256.7 L 124.4,256.1 L 124.1,255.3 L 123.9,254.3 L 123.7,252.9 L 123.1,252.7 L 121.8,253.3 L 120.6,253.2 L 120.2,253.4 L 118.5,253.4 L 117.8,252.7 L 117.2,250.3 L 115.1,247.7 L 114.7,248.0 L 113.8,250.4 L 113.0,251.3 L 112.6,252.3 L 112.2,253.3 L 111.9,253.7 L 111.8,254.6 L 110.6,257.3 L 110.1,258.7 L 110.2,260.7 L 110.6,262.1 L 110.7,264.5 L 110.6,266.2 L 110.0,268.1 L 109.1,269.1 L 108.9,269.4 L 107.3,271.4 L 106.1,272.6 L 104.3,273.3 L 103.7,274.1 L 102.4,275.2 L 102.2,275.8 L 101.5,276.6 L 100.8,281.6 L 100.8,283.3 L 101.2,285.0 L 102.1,285.7 L 102.4,286.3 L 102.2,287.6 L 101.9,287.9 L 100.7,288.1 L 99.7,287.9 L 98.4,288.9 L 97.5,289.0 L 96.5,289.9 L 95.5,291.5 L 95.6,291.8 L 95.2,291.7 L 87.3,289.4 L 87.7,286.7 L 86.4,285.4 L 85.7,283.4 L 84.4,282.2 L 84.1,282.0 L 83.5,282.8 L 83.3,283.5 L 82.5,283.9 L 81.9,284.7 L 81.8,284.6 L 68.9,262.3 L 69.0,262.2 L 69.1,261.3 L 68.9,260.8 L 69.5,259.6 L 70.1,259.2 L 70.7,259.4 L 71.3,259.7 L 72.2,259.8 L 72.5,258.9 L 73.0,258.7 L 73.6,258.5 L 74.3,257.5 L 74.9,256.0 L 75.5,255.3 L 76.2,254.9 L 76.3,254.3 L 77.1,253.7 L 78.1,252.1 L 78.1,248.6 L 78.8,248.1 L 79.3,248.0 L 80.1,248.2 L 81.2,249.0 L 81.2,249.8 L 79.9,251.3 L 79.7,252.2 L 79.8,252.6 L 81.0,252.9 L 81.8,253.4 L 82.2,253.2 L 82.9,252.5 L 83.1,251.7 L 83.0,250.3 L 82.3,248.5 L 82.3,247.4 L 82.5,245.5 L 83.2,245.0 L 84.8,244.9 L 85.1,244.1 L 84.3,242.0 L 84.0,240.6 L 83.2,239.6 L 81.8,239.4 L 81.0,239.8 L 80.5,239.2 L 80.8,238.6 L 81.4,237.5 L 81.7,236.8 L 81.5,234.8 L 81.5,234.2 L 81.8,233.9 L 83.0,233.7 L 83.3,233.3 L 83.2,232.8 L 83.0,232.4 L 83.0,231.6 L 82.4,230.9 L 83.4,230.1 L 84.4,229.7 L 84.5,228.7 L 84.4,228.1 L 85.1,226.0 L 84.5,224.7 L 85.0,222.7 L 85.6,220.9 L 85.6,220.8 L 85.7,219.9 L 86.2,219.3 L 87.1,219.2 L 87.2,219.3 L 87.8,220.4 L 88.3,220.1 L 89.0,218.5 L 90.1,217.4 L 90.2,216.8 L 91.8,216.9 L 91.8,216.4 L 90.5,215.0 L 89.4,214.5 L 89.3,213.9 L 89.5,212.5 L 90.8,211.0 L 91.3,210.1 L 91.5,208.6 L 92.0,207.8 L 92.4,204.7 L 92.2,204.3 L 91.6,203.8 L 91.1,202.6 L 91.3,201.5 L 92.3,200.1 L 92.2,199.7 L 91.3,198.9 L 90.2,198.3 L 89.0,197.0 L 88.9,196.5 L 90.3,196.6 L 91.3,196.0 L 93.2,196.1 L 96.0,195.5 L 97.9,194.3 L 99.2,193.1 L 100.2,192.0 L 100.7,191.6 L 101.8,190.6 L 101.9,189.9 L 102.3,188.5 L 103.6,186.6 L 103.7,185.9 L 103.6,184.6 L 103.6,183.5 L 103.1,182.1 L 103.8,177.4 L 104.1,176.3 L 104.6,174.2 L 105.2,173.2 L 105.8,170.7 L 106.6,169.7 L 108.0,168.6 L 108.3,166.4 L 108.6,165.5 L 108.7,164.8 L 109.6,164.0 L 109.9,163.5 L 110.4,159.7 L 111.1,156.9 L 111.4,154.1 L 112.1,152.0 L 114.2,150.1 L 117.9,146.1 L 118.9,145.2 L 119.8,145.3 L 120.2,145.1 L 122.0,144.9 L 122.3,144.2" fill="none" stroke="black" stroke-width="2"/>
</svg>