<?xml version="1.0" encoding="UTF-8"?>
<svg width="400" height="400" viewBox="0 0 400 400" xmlns="http://www.w3.org/2000/svg">
  <rect width="400" height="400" fill="white"/>
  <path d="M 190.0,203.5 L 189.9,203.3 L 189.8,203.1 L 189.6,202.9 L 189.3,202.6 L 189.3,202.4 L 189.2,202.0 L 189.2,201.7 L 189.3,201.4 L 189.3,201.1 L 189.3,200.6 L 189.4,200.3 L 189.5,200.0 L 189.6,199.6 L 189.6,199.2 L 189.5,198.9 L 189.4,198.7 L 189.3,198.5 L 188.9,198.1 L 188.6,197.8 L 188.4,197.5 L 188.4,197.3 L 188.3,197.0 L 188.2,196.9 L 187.9,196.8 L 187.7,196.9 L 187.4,196.9 L 187.1,196.7 L 186.9,196.6 L 186.5,196.6 L 186.1,196.5 L 185.7,196.7 L 185.5,196.9 L 185.4,196.9 L 185.4,197.0 L 185.1,197.0 L 184.7,197.0 L 184.6,196.9 L 184.6,196.6 L 184.9,196.3 L 185.2,196.0 L 185.4,195.7 L 185.6,195.3 L 185.6,195.1 L 185.5,194.7 L 185.5,194.7 L 185.1,194.7 L 184.8,194.8 L 184.6,195.1 L 184.4,195.2 L 184.1,195.2 L 183.8,195.0 L 183.7,194.7 L 184.0,194.5 L 183.9,194.4 L 184.4,194.0 L 184.3,193.9 L 183.5,194.4 L 183.4,194.4 L 183.3,194.2 L 183.6,193.9 L 183.6,193.8 L 183.4,193.7 L 183.0,194.0 L 182.8,194.1 L 182.6,193.9 L 182.3,193.7 L 182.2,193.5 L 182.3,193.0 L 182.4,192.7 L 182.7,192.4 L 182.9,192.1 L 182.9,191.7 L 182.9,191.4 L 182.8,190.9 L 182.5,190.6 L 182.3,190.3 L 182.2,189.9 L 182.0,189.6 L 181.7,189.4 L 181.3,189.1 L 181.0,189.0 L 180.7,189.0 L 180.4,188.8 L 180.0,188.7 L 179.7,188.4 L 179.4,188.4 L 179.2,188.4 L 179.1,188.5 L 178.7,188.4 L 178.4,188.3 L 178.3,188.2 L 178.3,188.1 L 178.7,187.9 L 179.0,187.6 L 179.2,187.3 L 179.2,187.3 L 179.4,187.0 L 179.6,186.7 L 179.6,186.4 L 179.7,186.0 L 179.7,185.7 L 179.7,185.3 L 179.5,185.1 L 179.5,185.0 L 179.6,184.6 L 179.8,184.1 L 180.1,183.7 L 180.3,183.3 L 180.5,183.3 L 180.7,183.3 L 180.7,183.1 L 180.6,183.1 L 180.6,182.9 L 180.6,182.8 L 180.9,182.3 L 181.1,181.8 L 181.4,181.5 L 181.7,181.3 L 181.9,181.1 L 181.9,180.7 L 182.1,180.2 L 182.4,179.9 L 182.6,179.7 L 182.9,179.7 L 182.9,179.6 L 182.7,179.3 L 182.7,179.1 L 182.7,178.7 L 182.8,178.4 L 182.8,178.1 L 182.8,177.7 L 182.6,177.4 L 182.4,176.8 L 182.0,176.3 L 181.7,175.8 L 181.3,175.4 L 181.0,174.9 L 180.7,174.4 L 180.3,173.9 L 179.9,173.6 L 179.5,173.3 L 179.2,173.1 L 179.1,172.9 L 179.1,172.5 L 179.2,172.1 L 179.4,171.7 L 179.7,171.5 L 179.8,171.3 L 179.8,171.0 L 179.4,170.7 L 179.4,170.7 L 179.1,170.4 L 179.0,170.0 L 178.8,169.7 L 178.6,169.5 L 178.7,169.2 L 178.6,169.1 L 178.3,169.0 L 178.0,169.0 L 177.7,168.9 L 177.3,169.0 L 177.0,169.3 L 176.8,169.6 L 176.5,169.9 L 176.2,170.2 L 176.1,170.3 L 175.8,170.4 L 175.5,170.1 L 175.2,169.8 L 175.3,169.6 L 175.4,169.3 L 175.4,169.3 L 175.2,169.2 L 174.9,169.1 L 174.6,168.9 L 174.3,168.9 L 173.9,168.8 L 173.8,168.7 L 173.3,168.6 L 173.1,168.9 L 172.9,169.3 L 172.6,170.3 L 172.5,170.3 L 172.3,170.6 L 172.1,170.5 L 172.0,170.4 L 172.0,170.3 L 172.0,170.0 L 172.2,169.5 L 172.4,168.9 L 172.4,168.9 L 172.2,168.4 L 171.6,168.2 L 171.4,168.2 L 171.4,168.2 L 171.0,168.4 L 170.8,168.4 L 169.8,169.3 L 170.0,169.5 L 169.8,169.8 L 169.5,170.1 L 169.2,170.4 L 168.9,170.6 L 168.8,170.9 L 168.6,171.3 L 168.7,171.6 L 168.7,171.9 L 168.6,172.3 L 168.4,172.6 L 168.3,172.9 L 168.2,173.2 L 168.1,173.6 L 168.1,173.7 L 168.0,173.9 L 167.9,174.1 L 167.6,174.2 L 167.4,174.2 L 167.1,174.2 L 166.8,174.1 L 166.5,173.8 L 166.4,173.6 L 166.5,173.3 L 166.5,172.9 L 166.5,172.7 L 166.5,172.4 L 166.6,172.1 L 166.7,171.7 L 166.8,171.4 L 166.9,171.2 L 167.0,171.1 L 167.0,170.8 L 166.9,170.5 L 167.0,170.2 L 167.1,169.8 L 167.4,169.6 L 167.7,169.4 L 168.1,169.2 L 168.2,169.3 L 168.8,168.8 L 168.5,168.4 L 167.9,168.9 L 168.0,169.0 L 167.7,169.1 L 167.6,169.1 L 167.5,168.8 L 167.3,168.4 L 167.0,168.1 L 166.7,167.9 L 166.6,167.8 L 166.5,167.8 L 166.5,167.6 L 166.5,167.3 L 166.6,167.1 L 166.7,167.1 L 167.0,166.9 L 167.4,166.6 L 167.7,166.5 L 168.1,166.3 L 168.4,166.1 L 168.8,165.2 L 168.7,165.2 L 168.6,165.1 L 168.4,164.8 L 168.1,164.6 L 167.8,164.6 L 167.5,164.6 L 167.1,164.7 L 166.8,164.7 L 166.5,164.7 L 166.2,164.7 L 166.1,164.7 L 166.0,164.8 L 166.0,164.9 L 165.9,165.1 L 165.7,165.2 L 165.4,165.2 L 165.1,165.2 L 164.7,165.1 L 164.4,164.9 L 164.1,164.7 L 163.7,164.4 L 163.6,164.2 L 163.5,164.2 L 163.3,163.9 L 163.1,163.7 L 162.8,163.5 L 162.5,163.3 L 162.2,163.1 L 162.0,163.0 L 161.7,163.1 L 161.3,163.1 L 161.0,163.2 L 160.7,163.2 L 160.3,163.2 L 160.0,163.1 L 159.7,163.0 L 159.7,162.7 L 159.7,162.4 L 159.8,162.1 L 160.1,161.8 L 160.3,161.7 L 160.4,161.7 L 160.7,161.7 L 161.1,161.5 L 161.5,161.3 L 161.8,161.1 L 161.9,160.9 L 161.9,160.9 L 161.7,160.6 L 161.7,160.6 L 161.7,160.3 L 161.9,160.1 L 162.2,160.1 L 162.5,160.1 L 162.9,160.0 L 163.2,160.1 L 163.5,160.1 L 163.8,160.1 L 164.1,160.0 L 164.2,159.8 L 164.4,159.7 L 164.6,159.5 L 164.6,159.3 L 164.5,158.9 L 164.4,158.7 L 164.1,158.4 L 163.8,158.0 L 163.5,157.7 L 163.3,157.6 L 162.9,157.6 L 162.7,157.4 L 162.3,157.4 L 162.0,157.3 L 161.7,157.1 L 161.6,156.8 L 161.5,156.5 L 161.1,156.6 L 160.9,156.2 L 160.8,155.9 L 160.5,155.6 L 160.4,155.2 L 159.9,155.1 L 159.7,155.2 L 159.3,155.3 L 158.9,155.3 L 158.6,155.3 L 158.3,155.2 L 157.9,155.2 L 157.5,155.2 L 157.2,155.3 L 156.8,155.3 L 156.6,155.3 L 156.5,155.3 L 156.5,155.2 L 156.4,155.2 L 156.5,155.1 L 156.6,155.0 L 157.0,154.8 L 157.3,154.5 L 157.5,154.2 L 157.6,153.9 L 157.5,153.6 L 157.6,153.3 L 157.5,153.0 L 157.6,152.7 L 157.8,152.4 L 157.9,152.1 L 158.0,152.0 L 158.1,151.9 L 158.3,151.6 L 158.3,151.5 L 158.4,151.4 L 158.6,151.3 L 158.8,151.0 L 158.9,150.7 L 159.0,150.4 L 159.1,150.1 L 159.2,149.8 L 159.3,149.4 L 159.3,149.4 L 159.4,149.4 L 159.4,149.1 L 159.4,148.6 L 159.3,148.6 L 159.2,148.3 L 159.3,148.0 L 159.1,147.7 L 158.8,147.4 L 158.8,147.3 L 159.2,147.2 L 159.0,147.0 L 158.8,147.0 L 158.6,146.7 L 158.5,146.6 L 158.3,146.8 L 158.2,146.7 L 158.1,146.5 L 158.2,146.2 L 158.3,145.9 L 158.2,145.7 L 157.9,145.4 L 157.7,145.0 L 157.7,144.9 L 157.3,144.7 L 157.3,144.5 L 157.3,144.1 L 157.4,143.9 L 157.7,143.6 L 158.0,143.2 L 158.3,143.1 L 158.5,143.1 L 158.8,142.9 L 159.1,142.8 L 159.5,142.5 L 159.8,142.3 L 160.0,141.9 L 160.2,141.7 L 160.3,141.4 L 160.1,141.0 L 160.0,140.9 L 160.1,140.7 L 160.3,140.6 L 160.3,140.2 L 160.0,139.9 L 159.7,139.7 L 159.4,139.6 L 159.4,139.5 L 159.4,139.2 L 159.7,139.2 L 159.9,139.1 L 160.0,138.7 L 160.0,138.4 L 160.0,138.3 L 160.3,138.4 L 160.3,137.5 L 160.5,137.2 L 160.7,137.4 L 160.9,136.4 L 162.8,136.8 L 162.9,136.4 L 160.9,136.1 L 160.7,135.9 L 160.4,135.7 L 160.2,135.3 L 159.9,135.2 L 159.6,135.2 L 159.3,135.2 L 159.4,135.0 L 159.7,134.7 L 160.0,134.4 L 160.2,134.2 L 160.6,134.2 L 160.9,134.5 L 161.0,134.5 L 161.3,134.2 L 161.4,134.1 L 161.7,134.2 L 162.0,134.3 L 162.4,134.5 L 162.6,134.8 L 162.9,134.9 L 163.2,135.0 L 163.4,135.1 L 163.8,134.8 L 163.9,134.7 L 164.2,134.6 L 164.5,134.5 L 164.7,134.3 L 165.0,134.2 L 165.2,134.1 L 165.6,134.1 L 166.0,133.9 L 166.3,133.9 L 166.5,134.0 L 166.6,134.2 L 166.5,134.5 L 166.5,134.6 L 166.7,134.7 L 166.9,134.6 L 167.2,134.5 L 167.5,134.6 L 167.6,134.6 L 167.9,134.3 L 168.0,134.3 L 168.2,134.1 L 168.3,133.9 L 168.7,133.9 L 169.1,133.9 L 169.5,133.9 L 169.9,134.0 L 170.2,134.2 L 170.6,134.4 L 170.8,134.6 L 170.8,134.7 L 170.4,135.0 L 170.1,135.3 L 169.8,135.6 L 169.4,135.9 L 169.1,136.1 L 168.7,136.3 L 168.4,136.6 L 168.2,137.0 L 168.1,137.4 L 168.1,137.8 L 168.0,138.1 L 168.0,138.2 L 168.0,139.6 L 168.3,141.7 L 168.7,144.0 L 169.0,145.6 L 169.1,145.5 L 169.9,145.4 L 170.0,145.1 L 170.1,144.5 L 170.5,143.2 L 170.6,142.7 L 170.9,142.0 L 171.2,141.5 L 171.4,141.1 L 171.6,140.6 L 172.1,140.0 L 172.4,139.7 L 172.8,139.4 L 173.2,139.1 L 173.6,138.8 L 173.9,138.5 L 174.1,138.4 L 174.2,138.4 L 174.4,138.8 L 174.6,139.1 L 174.9,139.5 L 175.0,139.6 L 175.3,139.3 L 175.1,138.9 L 174.9,138.6 L 174.7,138.2 L 174.8,138.0 L 175.1,137.8 L 175.5,137.4 L 175.8,137.2 L 176.2,137.0 L 176.5,136.7 L 176.7,136.6 L 176.9,136.5 L 177.2,136.2 L 177.5,135.9 L 177.8,135.6 L 178.1,135.3 L 178.4,135.0 L 178.5,134.7 L 178.6,134.4 L 178.8,134.2 L 179.1,133.9 L 179.4,133.6 L 179.7,133.3 L 180.0,133.1 L 180.1,132.8 L 180.1,132.6 L 180.0,132.5 L 179.7,132.4 L 179.3,132.3 L 178.9,132.2 L 178.4,132.2 L 177.9,132.2 L 177.5,132.3 L 177.2,132.2 L 177.0,132.0 L 177.1,131.9 L 177.5,131.6 L 177.9,131.4 L 178.3,131.2 L 178.8,131.0 L 179.2,130.8 L 179.6,130.8 L 179.9,130.6 L 180.3,130.4 L 180.4,130.2 L 180.3,129.9 L 180.2,129.9 L 179.9,130.1 L 179.6,130.0 L 179.6,129.8 L 179.6,129.7 L 179.7,129.6 L 179.7,129.3 L 179.4,129.1 L 179.0,129.3 L 178.5,129.3 L 177.3,129.3 L 177.1,129.1 L 177.0,128.9 L 176.6,128.7 L 176.3,128.5 L 176.3,128.3 L 176.4,128.0 L 176.5,127.9 L 176.9,127.9 L 176.9,127.9 L 177.0,127.9 L 177.5,127.9 L 177.8,127.9 L 178.2,127.7 L 178.6,127.5 L 178.9,127.3 L 179.3,127.1 L 179.6,127.1 L 179.9,127.2 L 180.1,127.1 L 180.1,126.8 L 180.1,126.5 L 180.1,126.4 L 180.1,126.4 L 180.1,126.2 L 180.0,125.9 L 179.9,125.6 L 180.1,125.3 L 180.4,125.0 L 180.7,124.9 L 181.1,124.8 L 181.3,124.7 L 181.6,124.4 L 181.9,124.2 L 182.2,124.0 L 182.5,123.8 L 182.8,123.5 L 183.0,123.2 L 183.3,122.9 L 183.7,122.6 L 184.0,122.3 L 184.3,122.0 L 184.5,121.7 L 184.8,121.4 L 184.8,121.0 L 184.9,120.7 L 184.8,120.4 L 184.7,120.1 L 184.4,119.8 L 184.1,119.6 L 183.8,119.5 L 183.5,119.2 L 183.3,119.1 L 182.9,118.9 L 182.6,118.8 L 182.4,118.6 L 182.5,118.5 L 182.8,118.2 L 183.2,118.1 L 183.5,118.1 L 183.6,117.9 L 183.4,117.6 L 183.6,117.3 L 183.8,117.0 L 184.1,116.6 L 184.3,116.4 L 184.6,116.1 L 184.8,115.9 L 184.9,115.5 L 185.0,115.4 L 185.1,115.3 L 185.5,115.3 L 185.7,115.1 L 185.7,115.0 L 185.7,115.0 L 185.5,115.0 L 185.3,114.9 L 185.5,114.6 L 185.7,114.4 L 186.0,114.4 L 186.1,114.3 L 186.2,113.9 L 186.1,113.6 L 186.0,113.2 L 186.0,112.8 L 185.9,112.4 L 185.8,112.3 L 185.7,112.2 L 185.8,111.9 L 185.9,111.8 L 186.3,111.6 L 186.6,111.3 L 186.9,111.0 L 187.2,111.0 L 187.3,110.7 L 187.3,110.4 L 187.3,110.2 L 187.4,109.9 L 187.4,109.6 L 187.1,109.4 L 187.0,109.4 L 187.0,109.3 L 187.0,109.2 L 187.1,108.8 L 187.1,108.7 L 186.8,108.7 L 186.5,108.8 L 186.2,108.8 L 186.1,108.5 L 186.2,108.2 L 186.3,108.1 L 186.6,108.1 L 186.9,108.2 L 187.3,108.2 L 187.5,108.1 L 187.5,107.9 L 187.5,107.8 L 187.2,107.8 L 187.3,107.6 L 187.5,107.4 L 187.6,107.3 L 187.9,107.1 L 188.2,106.8 L 188.4,106.6 L 188.5,106.3 L 188.7,106.0 L 188.9,105.6 L 189.0,105.3 L 189.2,105.0 L 189.3,104.7 L 189.5,104.3 L 189.7,104.1 L 190.0,104.1 L 190.2,103.8 L 190.5,103.8 L 190.5,103.6 L 190.5,103.2 L 190.5,102.9 L 190.6,102.6 L 190.9,102.5 L 191.4,102.5 L 191.6,102.7 L 191.7,102.9 L 191.7,103.3 L 191.8,103.6 L 191.9,103.7 L 191.7,104.1 L 191.5,104.3 L 191.6,104.6 L 191.5,104.9 L 191.3,105.2 L 191.1,105.6 L 191.0,106.0 L 190.9,106.3 L 190.7,106.6 L 190.7,106.9 L 190.6,107.2 L 190.7,107.6 L 190.9,108.0 L 190.9,108.3 L 190.7,108.4 L 190.3,108.5 L 190.0,108.7 L 189.9,108.9 L 190.3,109.0 L 190.6,109.1 L 190.8,108.8 L 190.9,108.9 L 191.0,109.2 L 191.3,109.4 L 191.7,109.5 L 192.0,109.4 L 192.4,109.3 L 192.7,109.2 L 192.9,109.1 L 193.2,108.7 L 193.4,108.5 L 193.7,108.5 L 194.0,108.6 L 194.1,108.6 L 194.3,108.2 L 194.5,107.9 L 194.5,107.5 L 194.5,107.2 L 194.5,106.8 L 194.5,106.4 L 194.5,106.0 L 194.6,105.6 L 194.7,105.2 L 194.7,104.9 L 194.6,104.5 L 194.4,104.2 L 194.3,103.8 L 194.3,103.5 L 194.4,103.1 L 194.6,102.7 L 194.7,102.4 L 194.8,102.0 L 194.7,101.6 L 194.6,101.3 L 194.5,100.9 L 194.2,100.6 L 193.9,100.3 L 193.8,100.2 L 193.5,100.1 L 193.1,100.2 L 192.8,100.3 L 192.5,100.5 L 192.1,100.7 L 191.9,101.1 L 191.7,101.2 L 191.4,101.2 L 191.0,101.1 L 190.8,100.8 L 190.5,100.7 L 190.2,100.6 L 189.9,100.5 L 189.5,100.4 L 189.2,100.2 L 189.2,100.1 L 189.0,99.9 L 188.9,99.6 L 188.8,99.3 L 188.4,99.1 L 188.2,98.9 L 188.1,98.5 L 188.1,98.1 L 188.0,97.8 L 187.9,97.5 L 187.9,97.2 L 187.9,96.8 L 187.9,96.5 L 187.8,96.1 L 187.6,95.8 L 187.6,95.4 L 187.4,95.0 L 187.3,94.7 L 187.0,94.3 L 186.8,94.1 L 186.5,94.0 L 186.3,94.1 L 186.2,94.4 L 186.0,94.6 L 185.8,94.7 L 185.7,94.7 L 185.6,95.0 L 185.5,95.3 L 185.4,95.5 L 184.9,95.5 L 184.5,95.6 L 184.3,95.6 L 184.1,95.9 L 183.9,95.8 L 183.6,95.5 L 183.4,95.2 L 183.0,95.1 L 182.7,95.1 L 182.4,95.1 L 182.3,95.0 L 182.3,94.9 L 182.6,94.7 L 182.8,94.4 L 182.9,94.0 L 182.9,93.7 L 182.9,93.5 L 182.7,93.1 L 182.6,92.7 L 182.6,92.4 L 182.3,92.2 L 182.0,92.2 L 181.8,92.4 L 181.5,92.7 L 181.3,93.1 L 181.0,93.6 L 181.0,93.8 L 181.3,94.2 L 181.6,94.5 L 181.7,94.7 L 181.7,94.9 L 181.6,95.1 L 181.4,95.1 L 181.1,94.9 L 180.8,94.8 L 180.6,94.6 L 180.5,94.2 L 180.2,94.0 L 179.9,94.0 L 179.7,94.1 L 179.6,94.5 L 179.5,94.9 L 179.4,95.3 L 179.3,95.7 L 179.2,96.0 L 179.1,96.4 L 178.8,96.7 L 178.6,97.1 L 178.3,97.5 L 178.3,97.8 L 178.2,98.3 L 177.9,98.6 L 177.5,98.6 L 177.2,98.6 L 177.1,98.4 L 177.1,98.2 L 177.0,98.1 L 176.8,98.3 L 176.5,98.7 L 176.2,99.1 L 175.8,99.4 L 175.5,99.7 L 175.3,99.8 L 175.1,100.2 L 175.1,100.6 L 175.0,100.9 L 174.9,101.3 L 174.9,101.8 L 175.0,102.2 L 175.0,102.6 L 174.8,103.0 L 174.6,103.3 L 174.5,103.4 L 174.3,103.4 L 174.2,103.3 L 174.2,103.2 L 174.1,102.9 L 174.0,102.5 L 174.0,102.1 L 173.9,101.6 L 173.9,101.2 L 173.7,100.8 L 173.5,100.4 L 173.4,100.3 L 173.3,100.1 L 173.2,99.7 L 172.9,99.4 L 172.7,99.1 L 172.6,98.7 L 172.5,98.3 L 172.5,97.9 L 172.5,97.4 L 172.6,97.1 L 172.7,97.0 L 172.8,97.1 L 173.1,96.6 L 173.3,95.9 L 173.6,95.7 L 173.6,95.5 L 173.5,95.4 L 173.3,95.5 L 173.1,95.5 L 172.9,95.1 L 172.8,94.9 L 172.5,94.8 L 172.1,94.8 L 171.9,94.8 L 171.8,94.9 L 171.6,94.8 L 171.5,94.8 L 171.3,94.6 L 171.4,94.3 L 171.6,94.1 L 171.1,93.8 L 171.3,92.5 L 171.2,92.5 L 171.3,92.2 L 171.4,92.2 L 171.4,92.0 L 171.2,92.0 L 171.3,91.1 L 171.2,90.9 L 170.9,90.8 L 170.7,90.7 L 170.8,89.8 L 170.0,89.7 L 169.6,90.7 L 169.1,90.4 L 168.9,90.4 L 168.8,90.5 L 168.5,90.4 L 168.6,90.1 L 168.2,90.1 L 167.9,89.9 L 167.6,89.8 L 167.6,89.8 L 167.5,89.5 L 167.5,89.2 L 167.4,88.9 L 167.1,88.8 L 166.9,88.7 L 167.1,88.3 L 167.1,88.0 L 167.1,87.7 L 167.0,87.5 L 167.3,87.3 L 167.4,87.0 L 167.6,86.7 L 167.7,86.4 L 167.7,86.3 L 167.9,86.4 L 168.4,84.8 L 168.6,84.1 L 168.3,83.9 L 168.4,83.8 L 168.6,83.8 L 168.8,83.6 L 168.9,83.2 L 169.0,82.9 L 169.1,82.6 L 169.2,82.3 L 169.6,82.4 L 169.9,82.5 L 170.0,82.5 L 170.2,82.2 L 170.2,82.1 L 169.9,82.0 L 169.6,81.8 L 169.6,81.5 L 169.8,81.2 L 170.1,81.1 L 170.4,80.9 L 170.8,80.6 L 170.8,80.5 L 171.1,80.3 L 171.4,80.1 L 171.7,79.8 L 172.3,79.7 L 173.2,79.8 L 174.9,78.6 L 176.0,77.8 L 176.3,77.1 L 176.2,76.9 L 176.2,76.8 L 176.2,76.7 L 176.3,76.0 L 176.7,75.4 L 177.0,74.0 L 176.8,72.2 L 176.8,71.4 L 176.9,70.8 L 176.6,70.7 L 176.1,69.8 L 176.0,69.3 L 176.0,69.1 L 175.5,68.1 L 173.9,66.6 L 173.1,65.7 L 172.6,64.9 L 172.8,64.1 L 173.5,63.2 L 174.0,62.9 L 174.4,62.8 L 174.5,63.9 L 175.2,63.9 L 175.4,63.9 L 176.6,63.9 L 177.2,63.7 L 177.6,63.2 L 178.1,62.5 L 178.4,61.8 L 179.1,61.3 L 179.5,61.0 L 180.0,60.8 L 180.3,60.6 L 180.5,60.5 L 180.6,60.4 L 180.7,60.4 L 180.8,60.5 L 181.1,60.7 L 181.5,60.9 L 181.7,61.0 L 182.1,61.3 L 182.2,61.5 L 182.3,61.8 L 182.4,61.9 L 182.5,62.1 L 182.6,62.4 L 182.8,62.7 L 183.2,62.8 L 183.3,62.9 L 183.4,63.0 L 183.3,63.3 L 183.3,63.5 L 183.7,63.7 L 183.9,63.7 L 184.1,63.6 L 184.3,63.3 L 184.5,63.2 L 184.7,63.3 L 184.9,63.4 L 185.2,63.3 L 185.4,63.0 L 185.4,62.8 L 185.2,62.4 L 185.2,62.2 L 185.4,62.1 L 185.7,62.1 L 185.9,62.0 L 186.0,61.9 L 186.0,61.5 L 186.0,61.1 L 186.0,60.9 L 186.3,60.6 L 186.7,60.3 L 187.0,60.0 L 187.2,59.9 L 187.6,59.8 L 187.9,59.9 L 188.2,59.9 L 188.5,60.1 L 188.8,59.9 L 188.9,59.9 L 189.1,60.0 L 189.4,60.2 L 190.7,60.5 L 190.6,61.1 L 190.8,61.1 L 190.8,61.2 L 191.3,61.3 L 191.5,61.8 L 190.9,62.1 L 191.0,62.4 L 191.7,62.0 L 191.8,62.2 L 191.7,62.6 L 191.5,62.6 L 191.4,62.9 L 192.3,63.0 L 192.4,63.5 L 192.3,63.5 L 191.9,63.7 L 191.6,63.8 L 191.3,63.9 L 190.9,64.0 L 190.6,63.9 L 190.3,63.9 L 190.1,63.9 L 190.1,64.1 L 190.0,64.5 L 190.4,64.7 L 190.8,64.8 L 191.2,64.9 L 191.5,64.9 L 191.8,65.0 L 192.2,65.0 L 192.6,65.0 L 192.7,64.9 L 192.8,64.6 L 192.9,64.5 L 193.1,64.6 L 193.3,64.6 L 193.5,63.2 L 193.7,63.0 L 193.9,63.0 L 193.9,61.7 L 193.8,61.7 L 193.9,60.7 L 194.0,60.4 L 194.0,60.0 L 194.1,59.6 L 194.1,59.3 L 194.1,58.9 L 193.8,58.8 L 193.5,58.6 L 193.4,58.4 L 193.4,58.1 L 193.5,58.0 L 193.6,57.8 L 193.7,57.7 L 194.1,57.4 L 194.5,57.1 L 194.7,56.8 L 194.7,56.5 L 194.7,56.4 L 194.9,56.1 L 194.7,55.9 L 194.8,55.7 L 195.1,55.6 L 195.4,55.5 L 195.6,55.2 L 195.9,54.9 L 196.2,54.6 L 196.3,54.3 L 196.4,54.0 L 196.5,53.6 L 196.7,53.5 L 197.0,53.3 L 197.2,53.0 L 197.5,53.1 L 197.6,52.6 L 197.6,52.5 L 197.8,51.6 L 197.8,51.2 L 197.8,50.9 L 197.8,50.6 L 197.9,50.3 L 197.9,50.0 L 198.0,49.7 L 198.0,49.6 L 198.0,49.2 L 198.0,48.8 L 198.0,48.5 L 198.0,48.1 L 197.9,47.7 L 197.8,47.3 L 197.6,46.9 L 197.5,46.5 L 197.6,46.2 L 197.6,45.8 L 197.4,45.5 L 197.4,45.3 L 197.7,45.1 L 197.8,44.8 L 197.7,44.7 L 197.7,44.6 L 197.7,44.6 L 197.7,44.3 L 197.7,44.0 L 197.8,43.6 L 197.8,43.3 L 197.8,43.0 L 197.8,42.6 L 197.8,42.3 L 197.8,41.9 L 197.8,41.5 L 197.8,41.2 L 197.7,41.0 L 202.9,40.0 L 202.9,40.0 L 202.9,40.3 L 202.8,40.5 L 202.8,40.8 L 202.7,41.3 L 202.7,41.9 L 202.7,42.2 L 202.7,42.5 L 202.7,43.0 L 202.7,43.3 L 202.8,43.6 L 202.8,43.8 L 202.9,43.8 L 202.9,43.8 L 203.2,43.7 L 203.2,43.7 L 203.3,44.2 L 203.4,44.5 L 203.5,44.6 L 203.8,44.9 L 203.9,45.1 L 203.8,45.7 L 203.7,46.5 L 203.7,47.0 L 203.8,47.2 L 204.0,47.5 L 204.3,47.9 L 204.4,48.0 L 204.5,48.0 L 204.5,48.0 L 204.6,48.4 L 204.8,48.7 L 204.9,48.9 L 205.0,49.1 L 205.1,49.3 L 205.1,49.9 L 205.3,50.5 L 205.2,51.3 L 205.1,51.9 L 204.9,52.6 L 204.7,53.3 L 204.5,54.2 L 204.6,54.4 L 204.6,54.8 L 204.7,54.9 L 204.8,55.2 L 205.0,55.5 L 205.2,55.6 L 205.7,55.8 L 206.1,55.9 L 206.1,56.1 L 206.1,56.2 L 205.8,56.7 L 205.8,56.8 L 205.7,57.1 L 205.5,57.4 L 205.3,57.8 L 205.0,58.4 L 204.8,59.2 L 204.7,59.9 L 204.6,60.7 L 204.5,61.5 L 204.5,61.9 L 204.6,62.5 L 204.6,63.2 L 204.7,63.9 L 204.7,64.1 L 204.6,64.2 L 204.5,64.3 L 204.4,64.4 L 204.3,64.5 L 204.2,64.8 L 204.2,65.0 L 204.2,65.1 L 203.9,65.2 L 204.1,65.9 L 204.1,66.7 L 204.6,69.8 L 204.7,69.7 L 204.7,69.9 L 204.7,70.0 L 204.9,70.0 L 205.3,70.0 L 205.4,70.0 L 205.4,70.2 L 205.6,70.7 L 205.8,71.3 L 206.1,71.8 L 206.3,72.3 L 206.7,72.8 L 207.0,73.3 L 207.1,73.5 L 207.9,74.0 L 208.4,75.7 L 208.6,77.1 L 208.7,77.9 L 208.4,78.5 L 208.2,79.6 L 208.2,80.1 L 208.1,80.7 L 208.6,81.4 L 208.6,82.0 L 208.6,82.0 L 208.5,82.2 L 209.0,82.9 L 209.3,83.4 L 209.4,83.8 L 209.5,84.1 L 209.7,84.6 L 210.1,84.9 L 210.5,86.0 L 210.8,86.2 L 211.7,88.3 L 212.3,89.3 L 213.3,91.9 L 213.5,92.7 L 213.5,93.4 L 213.8,93.5 L 213.9,93.6 L 214.3,94.2 L 214.9,95.4 L 215.4,95.8 L 215.3,96.9 L 215.4,97.5 L 216.0,98.4 L 216.3,99.1 L 216.5,100.5 L 216.8,100.9 L 217.6,101.6 L 218.0,101.5 L 218.5,101.9 L 218.5,102.0 L 218.9,102.4 L 219.1,102.4 L 219.6,102.3 L 220.4,103.4 L 220.6,104.1 L 220.4,104.4 L 219.9,104.3 L 219.3,104.7 L 219.1,105.2 L 219.1,105.7 L 219.2,105.8 L 219.3,106.2 L 219.3,106.5 L 219.5,106.7 L 219.8,106.9 L 220.1,107.2 L 220.3,107.6 L 220.5,108.0 L 220.7,108.2 L 221.1,108.3 L 221.3,108.3 L 221.4,108.3 L 221.8,108.0 L 222.2,107.9 L 222.3,107.9 L 222.4,108.2 L 222.5,108.5 L 222.9,108.7 L 223.2,109.2 L 224.1,110.4 L 224.4,110.3 L 224.4,110.5 L 224.7,110.5 L 224.7,111.2 L 224.5,111.2 L 224.5,111.5 L 224.7,111.6 L 224.7,111.9 L 224.5,112.7 L 224.3,112.7 L 224.2,113.0 L 224.4,113.0 L 224.4,113.2 L 224.4,113.5 L 224.2,113.8 L 223.9,114.1 L 223.6,114.4 L 223.3,114.7 L 223.2,115.0 L 223.2,115.4 L 223.1,115.8 L 223.1,116.2 L 223.2,116.5 L 223.3,116.9 L 223.4,117.3 L 223.5,117.7 L 223.6,118.1 L 223.8,118.4 L 224.0,118.6 L 224.1,118.7 L 224.0,118.7 L 223.7,118.7 L 223.6,118.9 L 223.6,119.3 L 223.5,119.5 L 223.1,119.7 L 222.7,119.9 L 222.7,120.2 L 222.7,120.4 L 222.9,120.7 L 222.9,120.7 L 222.6,121.1 L 222.6,121.5 L 222.4,122.0 L 222.1,122.2 L 221.9,122.5 L 221.7,122.6 L 221.4,122.6 L 221.1,122.4 L 220.8,122.4 L 220.5,122.4 L 220.1,122.6 L 219.8,122.9 L 219.5,123.3 L 219.4,123.7 L 219.4,124.1 L 219.4,124.5 L 219.3,125.0 L 219.3,125.4 L 219.1,125.8 L 219.2,126.1 L 219.4,126.4 L 219.5,126.7 L 219.7,126.9 L 220.0,127.2 L 220.1,127.3 L 221.4,127.2 L 221.8,127.3 L 222.0,127.6 L 221.9,128.5 L 221.9,129.2 L 221.4,130.4 L 222.0,131.3 L 222.5,131.2 L 222.6,131.4 L 222.5,132.6 L 222.9,132.7 L 222.9,133.3 L 223.0,133.8 L 223.6,133.8 L 223.9,133.5 L 224.3,132.9 L 224.9,132.9 L 225.4,133.2 L 225.7,133.8 L 225.4,134.4 L 225.6,134.9 L 226.1,134.8 L 226.5,135.5 L 227.8,136.0 L 228.2,136.4 L 228.5,136.7 L 228.9,137.2 L 228.9,137.3 L 228.7,138.3 L 228.9,139.0 L 228.6,139.6 L 228.5,139.7 L 228.4,140.4 L 228.3,140.6 L 228.2,140.8 L 227.4,141.5 L 227.0,142.3 L 226.7,142.7 L 226.6,143.2 L 227.0,143.8 L 226.8,145.5 L 226.5,145.8 L 227.0,146.1 L 227.1,146.8 L 227.5,147.1 L 227.4,147.5 L 227.0,147.5 L 226.8,148.1 L 226.7,148.8 L 227.4,149.4 L 227.7,149.1 L 228.0,149.1 L 228.0,149.5 L 228.3,150.1 L 229.2,150.1 L 229.3,151.4 L 228.9,151.7 L 228.7,152.0 L 229.0,152.1 L 228.9,152.4 L 228.4,152.3 L 228.1,152.4 L 227.8,153.4 L 228.2,153.6 L 228.2,154.7 L 227.3,156.0 L 227.0,158.0 L 226.7,158.0 L 226.4,158.1 L 226.6,158.5 L 226.5,159.7 L 226.8,159.6 L 227.0,159.2 L 227.2,159.3 L 227.5,160.3 L 227.8,160.6 L 227.8,161.2 L 228.0,161.5 L 228.5,161.6 L 228.7,162.2 L 228.6,163.1 L 228.3,164.3 L 228.1,165.5 L 228.4,166.1 L 229.5,166.9 L 230.5,166.7 L 231.0,166.7 L 231.4,166.4 L 231.8,166.6 L 231.6,167.2 L 231.5,167.7 L 231.5,168.1 L 231.9,168.2 L 231.9,168.3 L 232.0,168.4 L 232.2,168.7 L 232.5,170.1 L 233.1,170.2 L 233.6,172.4 L 233.6,173.0 L 233.0,173.4 L 232.5,174.5 L 232.6,175.2 L 232.9,175.6 L 232.9,176.4 L 233.3,176.5 L 233.4,177.3 L 233.8,177.2 L 234.0,176.5 L 235.0,176.7 L 235.2,176.6 L 236.1,176.6 L 236.6,176.2 L 237.2,176.1 L 237.7,175.8 L 238.4,176.1 L 238.5,176.9 L 238.7,177.4 L 238.3,179.1 L 238.4,180.1 L 238.9,181.6 L 238.5,183.6 L 238.5,184.7 L 238.3,184.9 L 238.1,186.0 L 238.6,186.5 L 239.2,186.0 L 239.6,185.4 L 239.8,184.7 L 240.1,184.6 L 240.4,184.8 L 240.6,184.8 L 241.1,184.4 L 241.8,183.8 L 242.1,184.0 L 242.7,183.8 L 243.5,183.0 L 243.7,182.3 L 244.8,181.7 L 245.3,181.2 L 246.2,180.4 L 246.5,180.7 L 246.9,180.4 L 247.6,179.5 L 247.6,179.3 L 247.8,178.9 L 248.0,178.7 L 248.9,179.4 L 248.9,180.0 L 248.9,180.2 L 248.8,180.5 L 248.5,182.0 L 249.0,182.4 L 248.9,183.2 L 249.1,183.5 L 249.1,183.7 L 248.7,184.0 L 248.4,184.5 L 248.5,184.7 L 249.0,184.5 L 249.2,185.0 L 249.7,185.0 L 250.4,184.5 L 251.8,183.5 L 252.5,183.4 L 253.4,182.9 L 253.5,182.8 L 253.7,183.0 L 253.8,183.1 L 253.1,184.0 L 252.0,185.0 L 251.2,186.0 L 251.0,187.1 L 251.3,187.8 L 251.3,188.2 L 250.5,188.1 L 250.2,189.0 L 250.0,190.2 L 250.3,190.3 L 250.4,190.0 L 250.7,189.8 L 251.0,189.7 L 253.0,190.6 L 253.3,191.0 L 254.6,191.4 L 255.0,191.4 L 255.6,191.0 L 255.7,191.0 L 256.1,191.1 L 256.3,191.6 L 256.9,191.8 L 256.9,192.1 L 256.4,192.9 L 255.9,193.2 L 255.9,194.3 L 255.6,194.5 L 255.6,195.0 L 256.0,195.3 L 256.0,195.5 L 255.5,196.0 L 255.4,196.6 L 255.7,196.8 L 256.3,196.4 L 256.7,196.2 L 257.8,196.1 L 257.8,196.4 L 256.6,197.0 L 255.9,197.2 L 254.7,198.1 L 254.1,198.8 L 253.7,199.5 L 253.9,199.7 L 253.7,200.4 L 254.0,201.1 L 253.6,201.2 L 253.1,202.8 L 252.5,202.6 L 251.8,203.1 L 251.7,203.4 L 252.1,203.8 L 252.1,203.8 L 251.0,204.3 L 251.0,203.8 L 250.7,202.9 L 250.4,202.8 L 249.8,203.1 L 249.3,203.1 L 249.4,202.8 L 249.7,202.1 L 250.2,201.6 L 250.1,201.3 L 249.6,201.0 L 249.3,201.1 L 248.8,201.3 L 248.2,201.3 L 247.9,201.5 L 247.7,201.4 L 247.2,200.9 L 246.4,201.1 L 246.3,200.7 L 246.3,200.3 L 245.6,200.0 L 245.3,199.7 L 245.2,199.0 L 244.8,198.5 L 244.7,197.9 L 243.9,197.7 L 243.7,197.5 L 243.2,197.4 L 243.2,197.2 L 243.8,196.5 L 244.2,195.8 L 244.2,195.3 L 243.9,195.1 L 243.1,195.2 L 242.7,195.8 L 242.3,195.8 L 241.9,195.5 L 241.6,195.4 L 241.2,195.7 L 241.2,196.4 L 241.6,196.7 L 241.5,197.2 L 241.8,198.0 L 241.9,198.4 L 241.6,198.6 L 241.0,198.3 L 240.4,198.9 L 240.0,198.9 L 239.6,199.3 L 239.9,199.8 L 239.7,200.2 L 239.6,201.5 L 240.0,201.8 L 239.9,203.9 L 240.1,204.4 L 239.8,206.9 L 239.9,207.9 L 239.1,208.5 L 238.9,209.2 L 238.6,210.1 L 238.7,211.4 L 237.8,213.0 L 237.7,213.4 L 238.1,213.4 L 238.2,213.2 L 238.3,217.4 L 238.1,219.0 L 238.3,220.3 L 238.9,221.4 L 238.8,222.0 L 238.1,222.6 L 237.5,222.7 L 237.3,223.0 L 237.0,223.3 L 237.1,224.1 L 236.9,224.3 L 236.3,224.9 L 236.1,225.2 L 235.8,225.1 L 235.4,225.4 L 234.4,225.7 L 233.8,226.1 L 233.2,226.0 L 232.9,226.4 L 232.7,226.6 L 232.9,227.1 L 233.2,227.5 L 232.9,229.6 L 233.0,230.3 L 233.9,231.5 L 234.5,231.4 L 235.0,231.0 L 235.5,230.2 L 236.1,230.4 L 236.6,231.2 L 236.6,231.3 L 236.6,231.9 L 235.5,233.1 L 235.4,233.7 L 235.5,233.9 L 235.6,235.5 L 235.4,237.2 L 235.6,237.5 L 236.3,237.6 L 236.6,237.8 L 236.4,238.2 L 236.1,239.1 L 234.6,240.1 L 234.0,240.3 L 233.8,241.2 L 233.2,242.0 L 232.0,243.2 L 231.7,243.9 L 231.8,244.5 L 231.6,245.3 L 231.9,245.8 L 232.1,245.6 L 232.3,244.8 L 232.8,244.9 L 232.9,245.2 L 232.8,246.3 L 233.0,247.0 L 232.8,247.5 L 232.2,247.8 L 231.8,247.6 L 231.6,248.0 L 231.6,248.4 L 231.6,249.1 L 232.2,250.2 L 232.6,250.3 L 232.7,250.4 L 232.0,251.4 L 231.5,252.5 L 231.3,252.8 L 231.2,253.0 L 231.3,253.5 L 231.7,253.8 L 231.8,254.6 L 231.8,255.4 L 231.8,256.0 L 231.4,256.6 L 231.6,257.3 L 231.9,257.4 L 232.2,257.1 L 232.4,257.2 L 232.4,257.4 L 232.1,258.6 L 232.3,258.7 L 232.3,259.3 L 232.7,259.5 L 233.0,259.8 L 232.9,260.5 L 233.0,261.7 L 233.2,261.7 L 233.2,261.9 L 232.7,262.2 L 232.3,262.8 L 232.5,263.3 L 232.5,263.9 L 232.6,264.3 L 232.4,265.7 L 232.0,266.2 L 231.6,266.9 L 231.7,267.2 L 232.1,267.3 L 232.0,268.3 L 232.0,268.6 L 232.2,269.7 L 231.9,269.8 L 231.4,270.3 L 231.4,270.3 L 231.0,270.9 L 231.5,271.3 L 232.2,271.5 L 232.5,271.8 L 232.5,272.2 L 232.2,272.5 L 231.7,272.2 L 230.9,272.3 L 230.6,272.4 L 230.6,272.7 L 231.0,272.8 L 231.1,273.1 L 230.2,273.2 L 229.2,273.5 L 228.7,274.1 L 228.4,276.1 L 228.6,276.6 L 228.7,277.7 L 228.5,279.9 L 228.5,280.6 L 228.9,281.9 L 228.9,282.3 L 228.5,283.3 L 228.1,284.8 L 227.6,285.3 L 227.4,285.8 L 227.3,287.4 L 227.4,287.8 L 227.7,288.9 L 227.8,289.2 L 228.4,289.4 L 228.3,289.8 L 227.9,290.3 L 227.6,290.7 L 227.8,292.2 L 228.7,292.2 L 229.0,291.2 L 229.2,291.2 L 229.3,291.9 L 229.7,292.2 L 229.7,293.6 L 229.3,294.0 L 229.2,294.2 L 229.3,294.6 L 229.2,295.4 L 228.9,295.4 L 228.4,295.5 L 228.1,295.8 L 228.2,296.4 L 228.7,296.6 L 228.7,297.5 L 228.9,298.0 L 229.3,298.7 L 229.5,298.6 L 229.7,297.9 L 229.9,297.9 L 230.1,298.2 L 230.0,298.8 L 230.2,299.7 L 230.4,301.4 L 230.5,302.1 L 230.6,303.3 L 231.0,304.4 L 230.9,305.4 L 231.0,305.9 L 231.4,306.1 L 231.3,306.9 L 231.5,307.1 L 232.0,307.0 L 232.6,309.6 L 232.2,309.9 L 232.0,312.6 L 232.2,313.3 L 231.9,313.4 L 231.6,313.7 L 231.9,314.7 L 232.4,314.6 L 232.6,314.7 L 232.4,315.0 L 232.3,315.3 L 232.6,316.2 L 232.8,316.5 L 233.3,316.2 L 234.6,314.7 L 235.1,314.7 L 235.2,315.3 L 235.4,316.0 L 236.1,315.7 L 236.1,317.0 L 236.0,318.4 L 235.7,318.6 L 235.5,319.1 L 235.6,319.5 L 235.3,320.7 L 234.5,323.2 L 234.0,324.3 L 233.9,324.8 L 234.0,325.8 L 233.9,325.9 L 233.7,327.0 L 233.5,326.9 L 233.4,327.0 L 233.0,327.8 L 233.1,328.1 L 233.4,327.9 L 233.6,327.8 L 233.4,329.6 L 233.3,329.7 L 232.9,330.0 L 233.0,330.7 L 233.4,331.1 L 233.6,330.8 L 233.7,331.4 L 234.3,331.9 L 234.4,332.3 L 234.7,332.5 L 234.7,333.4 L 234.6,334.6 L 234.9,334.8 L 234.9,335.0 L 235.3,335.3 L 235.3,336.2 L 235.6,336.1 L 235.4,337.2 L 235.5,337.7 L 235.1,338.3 L 235.4,338.8 L 235.7,338.9 L 235.5,339.6 L 235.6,340.2 L 235.9,340.0 L 236.0,339.7 L 236.2,339.7 L 236.4,340.2 L 235.9,340.3 L 235.5,341.2 L 235.5,342.3 L 235.8,342.9 L 236.0,342.8 L 236.3,341.2 L 237.0,341.9 L 237.0,342.3 L 237.3,342.5 L 237.4,343.0 L 237.0,343.0 L 236.7,343.1 L 236.6,344.0 L 237.1,344.1 L 237.1,344.6 L 236.7,345.0 L 236.5,345.0 L 236.4,344.4 L 236.2,344.3 L 235.8,344.7 L 235.5,345.0 L 235.2,345.4 L 235.3,345.6 L 235.5,345.8 L 235.8,346.7 L 236.3,346.8 L 236.5,347.1 L 235.8,347.8 L 235.4,348.5 L 235.4,349.1 L 235.7,350.0 L 235.5,351.3 L 235.7,353.5 L 235.6,354.7 L 235.7,355.0 L 235.5,356.6 L 235.5,357.4 L 235.3,358.9 L 235.4,360.0 L 235.2,360.0 L 207.1,359.6 L 206.8,359.6 L 206.9,359.5 L 207.0,359.2 L 207.0,358.9 L 207.1,358.5 L 207.1,358.2 L 207.1,357.9 L 207.1,357.6 L 207.0,357.2 L 206.8,357.1 L 206.6,356.9 L 206.4,356.5 L 206.3,356.1 L 206.4,355.7 L 206.4,355.4 L 206.3,355.2 L 206.2,354.9 L 206.2,354.6 L 206.0,354.3 L 206.0,353.9 L 205.9,353.8 L 205.5,353.6 L 205.2,353.4 L 205.0,353.5 L 204.9,353.5 L 205.0,353.3 L 204.8,353.2 L 204.5,353.0 L 204.3,352.8 L 204.2,352.6 L 204.2,352.5 L 204.2,352.2 L 204.2,351.9 L 204.2,351.9 L 204.2,351.8 L 204.3,351.5 L 204.5,351.2 L 204.7,351.2 L 205.1,351.4 L 205.3,351.4 L 205.4,351.3 L 205.5,350.9 L 205.6,350.6 L 205.7,350.3 L 205.7,349.9 L 205.6,349.6 L 205.5,349.2 L 205.4,349.1 L 205.0,349.1 L 205.0,349.0 L 205.0,348.6 L 204.9,348.4 L 204.7,348.1 L 204.6,347.9 L 204.5,347.6 L 204.4,347.4 L 204.3,347.2 L 204.4,346.9 L 204.3,346.8 L 204.2,346.7 L 203.8,346.8 L 203.8,346.8 L 203.7,347.0 L 203.7,347.0 L 203.4,346.9 L 203.0,347.0 L 202.8,346.9 L 202.6,346.6 L 202.6,346.3 L 202.8,345.9 L 203.1,345.9 L 203.5,345.9 L 203.7,345.9 L 203.9,345.7 L 204.0,345.3 L 203.8,345.0 L 203.7,344.7 L 203.6,344.6 L 203.6,344.3 L 204.0,344.0 L 204.2,343.8 L 204.5,343.5 L 204.7,343.4 L 204.8,343.6 L 205.0,343.6 L 205.1,343.5 L 205.1,343.3 L 204.9,343.0 L 204.6,342.9 L 204.5,342.9 L 204.1,343.0 L 203.8,342.9 L 203.6,342.7 L 203.6,342.5 L 203.5,342.3 L 203.4,342.3 L 203.3,342.3 L 203.3,342.2 L 203.4,341.9 L 203.3,341.5 L 203.3,341.1 L 203.3,340.8 L 203.2,340.4 L 203.0,340.1 L 202.6,339.8 L 202.3,339.5 L 202.0,339.4 L 201.7,339.3 L 201.3,339.3 L 201.0,339.4 L 200.6,339.5 L 200.4,339.4 L 200.2,339.3 L 199.9,339.3 L 199.5,339.3 L 199.4,339.3 L 199.5,339.1 L 199.3,339.2 L 199.2,339.3 L 199.1,339.2 L 198.8,339.2 L 198.5,339.2 L 198.3,339.2 L 198.3,338.9 L 198.4,338.6 L 198.4,338.3 L 198.5,337.9 L 198.4,337.8 L 198.4,337.7 L 198.2,337.7 L 198.2,337.6 L 197.6,337.6 L 197.6,337.9 L 197.5,337.9 L 197.2,338.2 L 197.1,338.2 L 196.9,338.0 L 196.9,338.0 L 197.1,337.7 L 197.1,337.7 L 197.1,337.7 L 197.1,337.5 L 196.8,337.4 L 196.6,337.3 L 196.7,337.1 L 196.6,337.0 L 196.3,336.9 L 196.4,336.7 L 196.4,336.6 L 196.4,336.6 L 196.4,336.4 L 196.5,336.1 L 196.5,335.7 L 196.6,335.4 L 196.7,335.2 L 196.9,335.0 L 197.3,334.8 L 197.4,334.8 L 197.6,334.7 L 197.7,334.4 L 197.5,334.3 L 197.4,334.3 L 197.2,334.2 L 197.1,334.1 L 197.1,333.9 L 197.0,333.8 L 196.8,333.7 L 196.6,333.7 L 196.6,333.5 L 196.4,333.4 L 196.4,333.2 L 196.7,333.4 L 196.8,333.3 L 196.8,333.0 L 197.2,332.7 L 197.4,332.3 L 197.3,332.2 L 197.2,331.9 L 197.2,331.5 L 197.2,331.2 L 197.2,331.0 L 197.5,330.9 L 197.5,330.2 L 197.0,330.1 L 197.1,329.9 L 197.3,330.0 L 197.9,329.6 L 197.5,329.5 L 197.6,329.3 L 197.9,329.4 L 198.3,329.6 L 198.6,329.6 L 199.0,329.5 L 199.0,329.2 L 199.1,328.8 L 199.2,328.5 L 199.1,328.2 L 198.9,328.0 L 198.8,327.7 L 198.6,327.3 L 198.5,326.9 L 198.4,326.6 L 198.4,326.5 L 198.3,326.2 L 198.4,325.9 L 198.4,325.5 L 198.3,325.3 L 198.3,325.3 L 197.9,325.2 L 197.7,324.9 L 197.7,324.6 L 197.5,324.5 L 197.4,324.6 L 197.1,324.5 L 197.0,324.3 L 196.7,324.1 L 196.3,324.0 L 195.9,324.0 L 195.6,323.9 L 195.4,323.6 L 195.2,323.3 L 194.9,323.3 L 194.6,323.4 L 194.4,323.7 L 194.1,323.7 L 193.8,323.7 L 193.5,323.6 L 193.2,323.4 L 192.9,323.3 L 192.5,323.4 L 192.2,323.2 L 191.8,323.2 L 191.5,323.2 L 191.1,323.1 L 190.7,323.0 L 190.4,322.8 L 190.1,322.7 L 189.8,322.6 L 189.4,322.4 L 189.0,322.2 L 189.0,322.0 L 189.0,321.8 L 188.8,321.7 L 188.5,321.7 L 188.2,321.7 L 188.0,321.8 L 187.7,321.8 L 187.4,321.8 L 187.2,321.8 L 187.0,321.7 L 186.6,321.6 L 186.3,321.5 L 186.0,321.4 L 185.7,321.3 L 185.5,321.3 L 185.3,321.1 L 183.8,320.9 L 183.4,320.9 L 183.4,321.3 L 183.2,321.3 L 183.2,321.4 L 181.2,321.4 L 181.2,321.4 L 181.1,321.3 L 181.1,319.5 L 181.5,319.5 L 181.7,319.4 L 181.7,319.4 L 182.7,319.4 L 182.7,319.3 L 183.2,319.4 L 184.0,319.8 L 184.0,319.8 L 186.3,319.6 L 187.7,319.4 L 188.1,320.0 L 189.7,320.0 L 189.7,319.6 L 191.7,319.6 L 191.7,318.2 L 186.7,316.9 L 186.7,316.9 L 185.3,316.5 L 184.2,316.1 L 182.3,315.9 L 182.3,316.0 L 181.7,315.9 L 181.7,316.1 L 180.2,315.9 L 180.1,316.0 L 179.4,316.0 L 179.4,315.8 L 178.7,315.8 L 176.9,316.3 L 175.6,316.6 L 173.7,316.1 L 173.0,315.8 L 172.6,315.5 L 171.8,314.6 L 171.4,314.2 L 171.1,314.1 L 170.9,314.0 L 170.8,314.1 L 170.2,314.1 L 169.2,313.6 L 168.6,313.8 L 166.9,314.3 L 166.9,314.1 L 166.0,314.3 L 165.6,314.8 L 165.3,315.7 L 165.3,316.3 L 165.3,317.4 L 164.8,318.7 L 164.6,318.9 L 164.7,319.0 L 164.4,319.4 L 164.1,319.7 L 164.0,319.6 L 163.2,320.5 L 163.3,320.6 L 162.3,321.1 L 162.0,321.1 L 161.7,320.9 L 161.4,320.8 L 161.1,320.7 L 160.7,320.7 L 160.4,320.7 L 160.1,320.5 L 159.8,320.4 L 159.5,320.3 L 159.2,320.3 L 158.8,320.3 L 158.4,320.3 L 158.1,320.3 L 157.8,320.3 L 157.4,320.3 L 156.9,320.3 L 156.5,320.3 L 156.1,320.3 L 155.8,320.2 L 155.7,320.2 L 155.6,320.1 L 155.5,320.1 L 155.1,319.9 L 155.1,319.8 L 154.7,319.5 L 154.6,319.6 L 154.4,319.5 L 154.3,319.6 L 154.3,319.6 L 154.2,319.4 L 153.9,319.2 L 153.6,318.7 L 153.4,318.4 L 153.2,318.6 L 153.0,318.4 L 152.7,318.2 L 152.7,318.1 L 151.7,317.2 L 150.8,317.3 L 150.4,317.0 L 150.1,316.7 L 149.8,316.4 L 149.5,316.3 L 149.0,316.5 L 148.9,316.7 L 148.9,316.8 L 148.7,316.8 L 148.7,316.8 L 148.3,316.8 L 148.0,316.7 L 147.7,316.7 L 147.6,316.7 L 147.5,316.7 L 147.3,316.6 L 147.0,316.5 L 146.6,316.4 L 146.3,316.3 L 145.9,316.3 L 145.6,316.2 L 145.2,316.0 L 144.8,315.9 L 144.3,315.8 L 143.9,315.7 L 143.6,315.5 L 143.5,315.4 L 143.4,315.3 L 143.3,315.3 L 143.0,315.2 L 143.0,315.2 L 142.9,315.1 L 142.7,315.0 L 142.7,314.7 L 142.4,314.6 L 142.2,314.5 L 142.3,314.1 L 142.3,313.8 L 142.5,313.6 L 142.9,313.4 L 143.1,313.1 L 143.3,312.8 L 143.5,312.5 L 143.8,312.2 L 144.0,311.9 L 144.3,311.8 L 144.7,311.7 L 144.9,311.7 L 145.2,311.8 L 145.4,311.8 L 145.5,311.9 L 145.5,312.0 L 146.0,311.9 L 146.0,311.8 L 147.0,311.9 L 147.3,311.9 L 147.2,312.1 L 147.5,312.1 L 147.6,312.0 L 147.7,312.1 L 147.7,312.2 L 148.0,312.3 L 148.0,312.4 L 148.2,312.5 L 148.3,312.4 L 148.4,312.5 L 148.3,312.6 L 148.8,312.9 L 148.7,313.3 L 148.8,313.5 L 149.1,313.4 L 149.2,313.1 L 149.4,313.0 L 149.6,313.1 L 149.6,313.3 L 149.8,313.4 L 150.1,313.3 L 150.4,313.0 L 150.7,313.2 L 150.9,313.2 L 151.2,313.2 L 151.4,313.3 L 151.7,313.6 L 152.0,313.8 L 152.3,313.9 L 152.6,314.0 L 152.8,314.1 L 152.8,314.2 L 152.9,314.5 L 152.9,314.8 L 152.8,315.1 L 153.0,315.3 L 153.3,315.4 L 153.6,315.7 L 153.9,316.0 L 154.2,316.2 L 154.5,316.4 L 154.7,316.4 L 155.2,316.5 L 155.2,316.6 L 155.8,316.6 L 156.4,316.6 L 156.7,316.6 L 157.1,316.6 L 157.3,316.6 L 157.5,316.6 L 157.9,316.5 L 158.2,316.4 L 158.4,316.4 L 158.5,316.5 L 158.7,316.3 L 158.7,316.2 L 159.0,316.1 L 159.3,316.0 L 159.3,316.0 L 159.6,315.8 L 159.9,315.8 L 160.3,315.6 L 160.6,315.3 L 160.9,314.9 L 161.2,314.7 L 161.5,314.6 L 161.9,314.3 L 162.3,314.0 L 162.7,313.7 L 163.0,313.5 L 163.2,313.5 L 163.5,313.5 L 163.7,313.3 L 163.6,313.2 L 163.7,313.2 L 163.8,313.0 L 164.1,312.7 L 164.4,312.3 L 164.7,312.0 L 165.0,311.7 L 165.4,311.5 L 165.7,311.2 L 165.7,311.1 L 167.1,309.7 L 166.8,309.2 L 167.1,309.0 L 167.2,309.6 L 167.3,309.6 L 167.6,309.2 L 167.7,309.3 L 168.0,308.6 L 168.2,308.0 L 168.2,307.7 L 168.0,307.3 L 167.9,307.0 L 167.8,306.7 L 167.8,306.3 L 167.8,306.0 L 167.8,305.6 L 167.7,305.3 L 167.4,305.1 L 167.2,304.9 L 167.2,304.7 L 167.2,304.5 L 167.3,304.2 L 167.4,304.1 L 167.5,304.1 L 167.7,303.9 L 168.0,303.6 L 168.2,303.3 L 168.5,303.0 L 168.7,302.7 L 168.9,302.4 L 169.1,302.0 L 169.2,301.6 L 169.4,301.3 L 169.5,300.9 L 169.7,300.6 L 169.9,300.3 L 170.1,300.0 L 170.2,300.1 L 170.3,300.0 L 170.3,300.0 L 170.3,299.7 L 170.4,299.4 L 170.5,299.1 L 170.7,299.0 L 171.0,298.8 L 171.3,298.8 L 171.7,298.9 L 172.0,299.0 L 171.8,299.3 L 172.0,299.5 L 172.1,299.6 L 172.0,299.9 L 172.0,300.2 L 172.2,300.2 L 172.3,300.3 L 172.3,300.6 L 172.2,301.0 L 172.0,301.2 L 171.8,301.6 L 171.6,302.0 L 171.4,302.4 L 171.1,302.8 L 170.8,303.2 L 170.6,303.6 L 170.2,304.0 L 170.0,304.4 L 169.9,304.8 L 169.9,305.1 L 169.9,305.4 L 170.0,305.6 L 170.0,305.8 L 169.9,306.1 L 170.1,306.3 L 170.2,306.5 L 170.0,306.6 L 169.9,306.6 L 169.6,306.7 L 169.2,306.9 L 168.9,307.2 L 168.6,307.4 L 168.6,307.7 L 168.5,308.0 L 168.4,308.3 L 168.6,308.7 L 168.7,308.8 L 168.8,308.5 L 169.1,308.7 L 169.4,308.8 L 169.7,308.8 L 169.8,308.8 L 169.8,308.7 L 170.2,308.6 L 170.4,308.6 L 170.7,308.7 L 170.9,308.8 L 170.9,308.9 L 170.9,309.2 L 170.9,309.6 L 170.8,309.9 L 170.6,310.1 L 170.3,310.1 L 170.0,310.1 L 169.6,310.1 L 169.3,310.2 L 169.1,310.4 L 169.2,310.7 L 169.1,310.8 L 169.0,310.9 L 168.7,310.8 L 168.5,311.0 L 168.2,311.7 L 169.0,312.1 L 169.6,312.2 L 169.9,312.3 L 170.2,312.4 L 170.8,312.5 L 170.7,313.0 L 170.8,313.0 L 171.1,313.1 L 171.4,313.2 L 171.6,313.2 L 171.6,313.1 L 171.7,313.0 L 171.9,313.0 L 172.3,313.0 L 173.1,312.8 L 173.4,312.8 L 174.6,312.7 L 175.4,312.8 L 175.4,312.7 L 176.0,312.7 L 177.6,313.1 L 178.6,313.2 L 178.8,313.1 L 179.2,312.8 L 179.4,312.8 L 179.4,313.1 L 180.0,313.1 L 182.1,313.2 L 182.1,313.1 L 182.3,313.2 L 182.3,313.0 L 182.5,313.0 L 182.4,313.3 L 182.9,313.3 L 182.9,313.2 L 183.2,313.2 L 183.2,313.2 L 183.3,313.1 L 183.5,313.1 L 183.6,313.0 L 184.4,313.1 L 184.4,313.2 L 185.2,313.2 L 186.2,313.2 L 186.3,312.8 L 186.5,312.7 L 186.4,312.4 L 186.4,312.0 L 186.2,311.7 L 186.2,311.3 L 186.2,310.9 L 186.2,310.6 L 186.1,310.4 L 186.0,310.4 L 185.7,310.4 L 185.3,310.4 L 184.9,310.4 L 184.4,310.4 L 184.0,310.4 L 183.7,310.4 L 183.5,310.2 L 183.4,310.2 L 183.3,310.1 L 183.3,310.0 L 183.4,309.9 L 183.6,309.9 L 183.8,309.8 L 183.8,309.7 L 183.9,309.5 L 184.4,309.5 L 184.4,309.1 L 184.4,308.6 L 184.5,308.7 L 184.8,308.7 L 185.1,308.6 L 185.5,308.6 L 185.8,308.6 L 185.8,308.6 L 185.9,308.5 L 185.9,308.4 L 186.5,308.4 L 186.7,308.4 L 187.1,308.4 L 187.3,308.1 L 187.5,307.8 L 187.9,307.4 L 188.1,307.1 L 188.3,307.1 L 188.7,307.1 L 189.0,307.1 L 189.3,306.8 L 189.5,306.5 L 189.6,306.1 L 189.8,305.8 L 189.8,305.4 L 189.6,304.9 L 189.5,304.5 L 189.2,304.0 L 189.2,303.6 L 189.1,303.4 L 189.1,303.2 L 189.2,302.9 L 189.4,302.8 L 189.6,302.8 L 189.9,302.9 L 190.1,302.9 L 190.4,302.6 L 190.7,302.3 L 190.8,302.0 L 190.9,301.7 L 190.9,301.4 L 190.9,301.1 L 191.1,300.9 L 191.0,300.7 L 190.6,301.1 L 190.2,301.0 L 190.6,300.0 L 191.0,299.9 L 191.1,299.7 L 191.1,299.5 L 190.8,299.2 L 190.6,298.8 L 190.6,298.4 L 190.7,298.1 L 190.7,297.8 L 190.8,297.5 L 190.8,297.1 L 190.8,297.1 L 190.8,297.0 L 190.8,296.7 L 191.0,296.5 L 191.2,296.2 L 191.3,296.0 L 191.2,295.8 L 190.9,295.6 L 190.8,295.3 L 190.7,295.0 L 190.6,294.7 L 190.5,294.4 L 190.5,294.3 L 190.8,293.8 L 190.7,293.7 L 190.5,293.9 L 190.4,293.9 L 190.3,293.7 L 190.2,293.5 L 190.4,293.3 L 189.9,292.9 L 189.9,292.9 L 189.7,292.7 L 189.7,292.5 L 189.2,292.2 L 189.2,292.0 L 189.3,291.6 L 189.6,291.5 L 189.8,291.5 L 189.8,291.6 L 190.9,291.6 L 191.0,291.1 L 191.1,290.7 L 191.1,290.4 L 191.2,290.1 L 190.9,289.7 L 191.0,289.6 L 191.1,289.3 L 191.1,288.9 L 191.1,288.7 L 191.4,288.4 L 191.6,288.2 L 191.8,288.2 L 191.8,287.5 L 191.7,287.4 L 191.5,286.8 L 191.2,286.9 L 190.9,286.9 L 190.5,286.9 L 190.2,287.0 L 190.0,287.1 L 189.7,287.4 L 189.7,287.7 L 189.7,287.9 L 189.6,288.2 L 189.5,288.5 L 189.4,288.8 L 189.2,289.1 L 188.9,289.3 L 188.7,289.3 L 188.6,289.2 L 188.7,288.9 L 188.8,288.6 L 188.8,288.5 L 188.9,288.1 L 188.9,287.8 L 189.2,287.7 L 189.4,287.5 L 189.4,287.4 L 189.3,287.3 L 189.0,287.4 L 188.6,287.4 L 188.5,287.3 L 188.4,287.2 L 188.5,287.0 L 188.7,286.8 L 188.5,286.6 L 187.3,286.7 L 187.2,286.8 L 187.1,287.0 L 187.0,287.2 L 186.9,287.3 L 186.9,287.3 L 186.6,287.4 L 186.2,287.3 L 185.9,287.3 L 185.5,287.2 L 185.2,287.1 L 185.1,286.8 L 185.1,286.6 L 185.4,286.3 L 185.7,286.0 L 186.0,285.7 L 186.3,285.3 L 186.7,285.0 L 186.9,284.7 L 187.0,284.4 L 186.9,284.2 L 186.6,284.2 L 186.2,284.5 L 185.9,284.9 L 185.6,285.2 L 185.3,285.5 L 185.0,285.6 L 184.7,285.9 L 184.6,286.2 L 184.5,286.4 L 184.2,286.4 L 183.9,286.4 L 183.6,286.4 L 183.6,286.7 L 183.6,287.0 L 183.5,287.3 L 183.6,287.4 L 183.8,287.7 L 183.7,287.9 L 183.5,288.1 L 183.2,288.2 L 182.9,288.1 L 182.6,288.2 L 182.2,288.0 L 181.9,287.9 L 181.5,287.9 L 181.1,287.8 L 180.8,287.7 L 180.5,287.6 L 180.2,287.8 L 179.9,288.1 L 179.8,288.3 L 179.9,288.7 L 179.8,289.0 L 179.8,289.2 L 180.1,289.3 L 180.4,289.4 L 180.8,289.4 L 181.1,289.4 L 181.4,289.4 L 181.8,289.4 L 182.1,289.5 L 182.4,289.5 L 182.7,289.7 L 183.0,289.8 L 183.3,290.0 L 183.6,290.3 L 183.8,290.6 L 184.0,290.8 L 183.9,291.2 L 183.3,291.5 L 182.5,291.8 L 181.9,292.2 L 181.2,292.1 L 180.5,292.2 L 179.7,292.1 L 179.1,291.9 L 178.6,292.0 L 178.3,292.2 L 177.9,292.3 L 177.6,292.4 L 177.2,292.7 L 176.9,292.8 L 176.6,292.9 L 176.4,293.0 L 176.3,292.9 L 175.6,293.4 L 175.3,293.5 L 174.8,293.5 L 174.2,293.4 L 174.2,293.2 L 173.8,293.2 L 173.5,293.1 L 173.1,293.1 L 172.7,293.0 L 172.7,293.0 L 172.4,292.9 L 172.1,292.9 L 171.8,292.9 L 171.4,292.9 L 171.1,292.8 L 170.8,292.7 L 170.5,292.5 L 170.2,292.3 L 170.0,292.1 L 169.8,291.9 L 169.7,291.7 L 169.6,291.2 L 169.1,291.1 L 169.1,291.2 L 168.9,291.2 L 168.6,291.2 L 168.3,291.2 L 168.0,291.1 L 167.9,290.9 L 167.7,290.7 L 167.4,290.5 L 167.2,290.7 L 167.1,290.7 L 166.9,290.7 L 166.8,290.5 L 166.8,290.4 L 166.5,290.1 L 166.4,289.9 L 166.4,289.6 L 166.5,289.5 L 166.6,289.3 L 166.7,289.0 L 166.9,288.8 L 167.3,288.7 L 167.5,288.6 L 167.6,288.3 L 167.5,288.2 L 167.4,288.1 L 167.0,288.0 L 166.8,287.9 L 166.8,287.7 L 167.1,287.6 L 167.4,287.6 L 167.7,287.5 L 168.2,287.4 L 168.6,287.1 L 168.8,286.8 L 169.1,286.4 L 169.4,286.2 L 169.7,285.9 L 170.1,285.8 L 170.4,285.8 L 170.7,285.8 L 170.8,285.8 L 170.9,285.9 L 171.0,285.9 L 171.3,286.0 L 171.5,286.2 L 171.6,286.5 L 171.7,286.6 L 172.0,286.6 L 172.4,286.5 L 172.8,286.5 L 173.1,286.2 L 173.4,286.0 L 173.9,285.8 L 174.3,285.7 L 174.7,285.6 L 175.1,285.5 L 175.5,285.5 L 175.9,285.5 L 176.2,285.4 L 176.2,285.2 L 176.2,285.1 L 176.1,284.9 L 176.1,284.6 L 176.5,284.4 L 176.9,284.2 L 177.1,283.9 L 177.1,283.6 L 177.2,283.2 L 177.3,283.1 L 177.4,282.9 L 177.2,282.8 L 176.8,282.6 L 176.5,282.5 L 176.5,282.4 L 176.6,282.1 L 176.5,282.0 L 176.4,282.0 L 176.0,282.2 L 175.6,282.4 L 175.4,282.6 L 175.2,282.6 L 174.9,282.5 L 174.7,282.4 L 174.4,282.0 L 174.3,281.7 L 174.4,281.4 L 174.5,280.9 L 174.6,280.5 L 174.5,280.2 L 174.2,280.0 L 173.8,279.7 L 173.6,279.5 L 173.6,279.1 L 173.5,279.1 L 173.3,279.2 L 173.0,279.2 L 172.7,278.9 L 172.4,278.7 L 172.4,278.7 L 172.2,278.5 L 172.2,278.3 L 172.3,278.0 L 172.2,277.9 L 171.9,277.9 L 171.7,277.7 L 171.7,277.5 L 171.9,277.3 L 172.2,277.0 L 172.4,276.9 L 172.7,276.8 L 173.0,276.4 L 173.1,276.1 L 173.1,275.8 L 172.9,275.4 L 172.9,275.2 L 172.8,275.1 L 172.4,275.0 L 172.1,274.9 L 171.8,274.8 L 171.4,274.6 L 171.1,274.3 L 171.1,273.9 L 171.1,273.7 L 171.2,273.6 L 171.4,273.5 L 171.8,273.4 L 172.1,273.5 L 172.5,273.6 L 172.9,273.8 L 173.2,274.0 L 173.5,274.1 L 173.9,274.3 L 174.2,274.3 L 174.3,274.0 L 174.5,274.0 L 174.8,274.0 L 175.0,273.9 L 175.0,273.6 L 175.2,273.5 L 175.3,273.5 L 175.4,273.7 L 175.6,273.8 L 175.9,273.8 L 176.0,273.6 L 176.0,273.4 L 176.2,273.4 L 176.5,273.6 L 176.6,273.8 L 176.8,274.1 L 177.0,274.1 L 177.3,273.9 L 177.6,273.8 L 178.0,273.8 L 178.5,273.9 L 178.9,274.0 L 179.2,274.2 L 179.4,274.4 L 179.6,274.6 L 180.0,274.8 L 180.3,274.8 L 180.6,274.8 L 181.1,274.9 L 181.5,275.1 L 181.8,275.2 L 182.1,275.2 L 182.3,275.3 L 182.7,275.4 L 182.9,275.3 L 183.2,275.0 L 183.5,274.7 L 183.5,274.5 L 183.2,274.2 L 183.0,273.8 L 183.0,273.4 L 183.1,273.0 L 183.4,272.7 L 183.7,272.5 L 183.8,272.1 L 183.9,271.6 L 184.0,271.2 L 184.1,270.7 L 184.1,270.3 L 184.2,269.9 L 184.5,269.8 L 184.7,269.4 L 184.8,269.1 L 184.9,268.8 L 185.1,268.5 L 185.1,268.2 L 185.1,267.8 L 184.9,267.7 L 184.8,267.6 L 184.9,267.4 L 185.2,267.1 L 185.3,266.8 L 185.3,266.5 L 185.2,266.1 L 185.1,265.8 L 184.9,265.6 L 185.0,265.2 L 184.6,265.1 L 184.5,265.5 L 184.4,265.6 L 184.0,265.8 L 183.7,265.9 L 183.4,265.9 L 183.0,265.7 L 182.6,265.5 L 182.3,265.1 L 182.0,264.8 L 182.0,264.6 L 182.0,264.4 L 181.7,264.2 L 181.4,264.1 L 181.1,263.9 L 180.8,263.5 L 180.5,263.3 L 180.2,262.9 L 180.0,262.6 L 179.8,262.4 L 179.6,262.4 L 179.2,262.6 L 179.0,262.7 L 178.7,262.8 L 178.3,262.8 L 178.0,262.8 L 177.9,262.7 L 177.9,262.5 L 177.9,262.3 L 177.6,262.1 L 177.3,262.0 L 177.1,262.1 L 177.1,262.3 L 177.1,262.7 L 176.8,262.7 L 176.5,262.7 L 176.1,262.6 L 176.0,262.5 L 176.0,262.4 L 176.0,262.1 L 175.9,261.8 L 175.6,261.6 L 175.6,261.5 L 175.6,261.3 L 175.4,261.3 L 175.1,261.4 L 175.0,261.4 L 174.7,261.4 L 174.4,261.3 L 174.0,261.3 L 173.7,261.3 L 173.5,261.3 L 173.4,261.6 L 173.0,261.6 L 172.7,261.8 L 172.3,261.9 L 172.0,262.0 L 171.6,262.1 L 171.3,262.2 L 171.1,262.3 L 170.8,262.3 L 170.8,262.2 L 170.8,262.2 L 170.8,262.1 L 170.4,262.0 L 170.5,261.4 L 170.1,261.1 L 169.9,261.0 L 169.8,261.1 L 169.7,261.0 L 169.3,260.8 L 168.9,260.6 L 168.6,260.3 L 168.2,260.1 L 167.9,259.8 L 167.6,259.4 L 167.4,259.0 L 167.1,258.7 L 167.0,258.3 L 167.0,257.9 L 166.9,257.8 L 166.8,257.7 L 166.4,257.7 L 166.1,257.6 L 165.9,257.7 L 165.9,257.9 L 166.2,258.1 L 166.2,258.3 L 166.3,258.7 L 166.5,259.0 L 166.7,259.3 L 166.4,259.5 L 166.1,259.8 L 165.7,260.1 L 165.4,260.2 L 165.2,260.2 L 164.9,259.9 L 164.7,260.0 L 164.6,260.1 L 164.4,260.2 L 164.1,260.2 L 163.9,260.1 L 163.9,259.8 L 163.8,259.7 L 163.7,259.7 L 163.3,260.0 L 163.3,260.3 L 163.4,260.6 L 163.3,261.0 L 163.0,261.3 L 162.6,261.4 L 162.3,261.5 L 162.0,261.8 L 161.8,261.9 L 161.7,261.9 L 161.5,261.7 L 161.2,261.3 L 161.0,260.9 L 160.8,260.6 L 160.8,260.1 L 160.8,259.8 L 160.8,259.4 L 161.1,259.2 L 161.3,258.9 L 161.6,258.7 L 161.9,258.7 L 162.3,258.6 L 162.6,258.7 L 162.9,258.7 L 163.2,258.7 L 163.5,258.6 L 163.8,258.3 L 164.0,258.0 L 164.2,257.7 L 164.3,257.4 L 164.5,257.1 L 164.6,256.9 L 164.5,256.7 L 164.4,256.3 L 164.5,256.0 L 164.6,255.6 L 164.5,255.5 L 164.1,255.4 L 163.8,255.3 L 163.5,255.3 L 163.2,255.2 L 163.1,254.9 L 163.1,254.7 L 163.3,254.6 L 163.1,254.5 L 162.8,254.3 L 162.8,254.0 L 162.8,253.6 L 162.5,253.3 L 162.3,253.0 L 162.0,252.6 L 161.9,252.3 L 161.7,252.0 L 161.3,252.1 L 160.9,252.0 L 160.8,251.9 L 160.7,251.7 L 160.9,251.6 L 160.9,251.4 L 160.7,251.3 L 160.4,251.2 L 160.2,251.0 L 160.1,250.7 L 159.7,250.9 L 159.4,251.1 L 159.1,251.2 L 159.0,251.5 L 158.7,251.6 L 158.4,251.7 L 158.1,251.6 L 157.9,251.3 L 157.9,251.3 L 157.8,250.9 L 157.6,250.5 L 157.6,250.2 L 157.6,249.9 L 157.7,249.5 L 157.8,249.2 L 158.0,248.9 L 158.1,248.5 L 158.2,248.2 L 158.5,247.9 L 158.8,247.7 L 159.2,247.6 L 159.4,247.7 L 159.8,247.7 L 160.2,247.6 L 160.5,247.4 L 160.7,247.1 L 161.0,246.8 L 161.0,246.6 L 161.0,246.6 L 160.7,246.7 L 160.4,246.8 L 160.3,246.6 L 160.2,246.6 L 160.0,246.7 L 159.6,246.9 L 159.3,247.1 L 159.0,247.1 L 158.9,247.0 L 158.8,246.7 L 158.8,246.4 L 158.8,246.0 L 159.0,245.7 L 159.2,245.4 L 159.4,245.1 L 159.6,244.8 L 159.7,244.5 L 159.8,244.2 L 159.9,243.9 L 160.1,243.6 L 160.2,243.3 L 160.2,243.0 L 160.1,242.7 L 160.0,242.4 L 160.0,242.4 L 160.0,242.3 L 160.2,241.9 L 160.5,241.4 L 160.5,241.2 L 160.6,241.1 L 161.1,241.1 L 161.7,240.9 L 161.8,240.9 L 162.1,241.0 L 162.1,241.9 L 162.1,242.1 L 162.2,242.4 L 162.4,242.9 L 162.7,243.2 L 162.8,243.3 L 163.2,243.8 L 163.5,244.3 L 164.5,244.6 L 164.7,245.4 L 165.9,245.5 L 166.2,245.3 L 166.7,245.4 L 166.8,245.6 L 167.7,246.6 L 168.2,246.5 L 168.9,246.1 L 169.0,245.8 L 169.3,245.9 L 169.6,246.2 L 170.2,246.3 L 171.8,247.0 L 175.1,247.6 L 175.3,247.7 L 175.9,247.9 L 176.4,247.9 L 177.2,247.1 L 177.6,247.0 L 177.7,247.5 L 178.4,247.4 L 178.8,247.1 L 179.2,245.8 L 179.2,245.7 L 180.3,244.9 L 180.5,243.7 L 180.5,243.6 L 180.3,243.3 L 179.7,242.6 L 179.5,242.5 L 178.9,242.2 L 178.2,241.5 L 178.1,240.9 L 178.3,240.2 L 178.9,239.6 L 179.3,239.2 L 179.5,239.2 L 179.9,239.0 L 180.2,238.8 L 180.5,238.8 L 180.7,238.8 L 180.9,239.1 L 180.9,239.5 L 180.8,239.8 L 180.8,240.1 L 180.8,240.3 L 180.9,240.2 L 181.0,240.1 L 181.0,239.9 L 181.2,239.8 L 181.5,239.8 L 181.7,239.9 L 181.7,240.0 L 181.6,240.2 L 182.0,240.3 L 182.0,240.0 L 182.2,240.0 L 182.4,240.0 L 182.6,240.1 L 182.6,240.5 L 183.0,240.6 L 183.0,240.2 L 183.2,240.2 L 183.2,240.5 L 183.4,240.6 L 183.4,240.2 L 183.7,240.2 L 184.0,240.3 L 184.2,240.5 L 184.6,240.6 L 184.9,240.8 L 185.2,240.9 L 185.3,241.2 L 184.2,242.2 L 183.9,242.2 L 183.7,242.3 L 183.5,242.6 L 183.5,242.9 L 183.0,243.3 L 182.8,243.3 L 182.6,243.6 L 182.7,243.7 L 182.6,243.8 L 182.6,243.9 L 182.4,244.2 L 182.3,244.5 L 182.3,244.7 L 182.5,244.8 L 182.7,244.8 L 183.1,244.7 L 183.5,244.6 L 184.0,244.4 L 184.4,244.2 L 184.5,244.1 L 184.8,243.9 L 185.2,243.7 L 185.5,243.3 L 185.7,242.9 L 185.8,242.4 L 185.8,242.1 L 185.7,242.0 L 185.5,242.1 L 185.3,242.2 L 185.2,242.2 L 185.4,241.8 L 185.6,241.5 L 185.9,241.3 L 186.2,241.3 L 186.5,241.3 L 186.9,241.4 L 187.2,241.5 L 187.5,241.6 L 187.9,241.6 L 188.3,241.6 L 188.4,241.7 L 188.4,241.8 L 188.3,242.1 L 188.2,242.4 L 188.3,242.7 L 188.4,242.8 L 188.6,242.7 L 188.6,242.3 L 188.7,242.0 L 188.9,241.7 L 189.1,241.7 L 189.4,241.7 L 189.7,241.5 L 189.9,241.5 L 189.9,241.8 L 189.9,242.0 L 190.0,242.0 L 190.2,241.9 L 190.4,241.8 L 190.4,242.1 L 190.4,242.3 L 190.6,242.2 L 190.8,241.9 L 190.9,241.6 L 191.1,241.3 L 191.3,241.1 L 191.4,241.1 L 191.4,241.3 L 191.4,241.6 L 191.6,242.2 L 191.5,242.5 L 191.4,242.8 L 191.1,243.0 L 191.1,243.2 L 191.1,243.5 L 191.1,243.8 L 191.1,244.2 L 191.0,244.5 L 190.9,244.7 L 190.9,244.8 L 190.8,245.2 L 190.8,245.5 L 190.7,245.9 L 190.7,246.2 L 190.9,246.3 L 191.1,246.6 L 191.4,246.6 L 191.6,246.3 L 191.8,246.3 L 191.9,246.4 L 191.8,246.7 L 191.8,247.0 L 191.7,247.3 L 191.6,247.6 L 191.5,247.9 L 191.5,248.2 L 191.5,248.4 L 191.6,248.4 L 191.7,248.3 L 191.9,248.0 L 192.0,247.6 L 192.2,247.4 L 192.6,247.5 L 192.6,247.6 L 192.6,247.9 L 192.5,248.2 L 192.6,248.4 L 192.8,248.7 L 192.8,249.0 L 192.7,249.4 L 192.7,249.7 L 192.7,250.0 L 192.9,250.1 L 193.1,250.1 L 193.5,250.0 L 193.6,250.0 L 193.7,250.4 L 193.6,250.8 L 193.6,251.0 L 193.7,251.0 L 194.0,250.8 L 194.1,250.8 L 194.1,251.0 L 194.1,251.3 L 194.1,251.6 L 194.2,251.6 L 194.4,251.4 L 194.5,251.3 L 194.5,251.6 L 194.6,251.8 L 194.8,251.8 L 195.2,251.6 L 195.6,251.3 L 195.7,251.2 L 195.8,251.5 L 196.1,251.6 L 196.1,251.7 L 196.5,251.8 L 196.6,252.0 L 196.6,252.4 L 196.7,252.6 L 196.9,252.6 L 197.2,252.8 L 197.5,253.0 L 197.8,252.9 L 198.1,252.9 L 198.3,253.0 L 198.6,253.2 L 198.8,253.5 L 199.1,253.9 L 199.3,254.3 L 199.4,254.4 L 199.8,254.4 L 200.1,254.4 L 200.4,254.5 L 200.7,254.6 L 200.9,254.5 L 201.2,254.3 L 201.4,254.5 L 201.7,254.7 L 201.8,254.9 L 201.9,255.1 L 202.3,255.3 L 202.6,255.3 L 203.0,255.4 L 203.1,255.3 L 203.4,255.3 L 203.7,255.3 L 203.9,255.1 L 204.2,254.8 L 204.3,254.4 L 204.4,253.9 L 204.5,253.5 L 204.6,253.1 L 204.7,252.8 L 204.8,252.3 L 204.9,252.2 L 204.9,252.2 L 204.9,252.2 L 205.0,252.6 L 205.1,252.8 L 205.4,252.9 L 205.7,253.2 L 206.0,253.3 L 206.2,253.2 L 206.4,252.8 L 206.4,252.3 L 206.5,252.1 L 206.7,251.8 L 206.8,251.3 L 206.7,251.0 L 206.7,250.6 L 206.8,250.4 L 207.2,250.3 L 207.6,250.3 L 208.0,250.3 L 208.3,250.1 L 208.5,249.6 L 208.5,249.2 L 208.6,248.8 L 208.7,248.5 L 208.7,248.2 L 208.8,248.0 L 208.9,248.1 L 208.9,248.4 L 209.0,248.7 L 209.0,249.1 L 209.1,249.4 L 209.4,249.5 L 209.6,249.7 L 209.6,249.7 L 209.8,249.5 L 210.1,249.2 L 210.2,248.8 L 210.1,248.5 L 210.0,248.2 L 209.7,248.1 L 209.6,247.9 L 209.9,247.7 L 209.9,247.5 L 209.7,247.2 L 209.4,247.0 L 209.3,247.1 L 209.1,247.2 L 209.1,247.6 L 209.0,247.8 L 208.9,247.8 L 208.8,247.6 L 208.7,247.3 L 208.7,246.9 L 208.7,246.7 L 208.3,246.6 L 208.0,246.5 L 207.7,246.4 L 207.6,246.2 L 207.6,246.2 L 207.7,246.0 L 208.1,245.8 L 208.5,245.7 L 209.0,245.6 L 209.4,245.5 L 209.7,245.3 L 210.1,245.1 L 210.3,244.8 L 210.5,244.4 L 210.6,244.4 L 211.0,244.4 L 211.2,244.2 L 211.5,243.9 L 211.8,243.6 L 212.0,243.6 L 212.2,243.6 L 212.4,243.3 L 212.5,243.1 L 212.6,243.1 L 212.9,243.2 L 213.2,243.3 L 213.5,243.3 L 213.8,243.0 L 213.9,242.9 L 214.1,242.7 L 214.4,242.3 L 214.5,242.0 L 214.5,241.8 L 214.8,241.8 L 215.0,242.0 L 215.2,242.0 L 215.5,241.7 L 215.7,241.7 L 215.9,241.6 L 215.9,241.3 L 215.9,241.3 L 215.6,241.3 L 215.3,241.3 L 215.0,241.2 L 215.0,241.1 L 215.2,240.8 L 215.3,240.5 L 217.0,240.2 L 215.9,233.0 L 213.9,233.3 L 213.8,233.0 L 213.7,233.0 L 213.7,232.8 L 213.7,232.5 L 213.8,232.2 L 214.0,231.8 L 213.6,231.6 L 213.3,232.1 L 213.1,231.8 L 212.8,231.4 L 212.6,231.1 L 212.5,230.7 L 212.5,230.4 L 212.4,230.0 L 212.2,229.7 L 212.1,229.5 L 212.1,229.2 L 212.2,228.8 L 212.2,228.4 L 212.3,228.0 L 212.3,227.6 L 212.3,227.2 L 212.4,226.8 L 212.4,226.5 L 212.2,226.1 L 212.1,225.6 L 211.9,225.2 L 211.8,224.8 L 211.6,224.5 L 211.5,224.2 L 211.6,223.8 L 211.7,223.5 L 211.8,223.2 L 211.8,223.1 L 211.8,222.9 L 211.7,222.9 L 211.6,222.9 L 211.5,222.7 L 211.5,222.3 L 211.6,221.8 L 211.8,221.4 L 211.9,220.9 L 211.9,220.5 L 212.0,220.2 L 212.0,219.8 L 212.1,219.3 L 212.2,218.8 L 212.4,218.4 L 212.6,218.1 L 212.7,217.6 L 212.7,217.1 L 212.8,216.7 L 212.9,216.3 L 213.0,216.0 L 213.1,215.6 L 213.2,215.2 L 213.1,214.9 L 213.0,214.6 L 213.0,214.4 L 213.1,214.3 L 213.2,214.3 L 213.2,214.1 L 212.9,213.9 L 212.9,213.6 L 213.0,213.4 L 213.2,213.1 L 213.2,212.9 L 213.0,212.7 L 212.6,212.7 L 212.4,212.5 L 212.4,212.2 L 212.4,211.9 L 212.4,211.6 L 212.3,211.2 L 212.1,210.8 L 211.7,210.6 L 211.4,210.4 L 211.2,209.9 L 211.2,209.4 L 211.4,209.3 L 211.6,209.1 L 211.6,208.7 L 211.8,208.4 L 211.8,208.0 L 211.8,207.7 L 211.8,207.4 L 211.7,207.1 L 211.7,206.7 L 211.7,206.3 L 211.7,206.0 L 211.3,205.8 L 211.1,205.6 L 211.0,205.4 L 211.0,205.0 L 210.8,205.0 L 210.5,205.0 L 210.1,205.0 L 210.0,205.3 L 209.8,205.6 L 209.5,205.6 L 209.2,205.5 L 209.1,205.6 L 208.8,205.7 L 208.7,205.7 L 208.7,205.4 L 208.6,205.3 L 208.4,205.0 L 208.2,204.9 L 208.0,205.0 L 207.6,205.1 L 207.2,205.2 L 207.1,205.5 L 207.0,205.8 L 206.8,206.2 L 206.8,206.6 L 206.7,207.1 L 206.8,207.4 L 206.9,207.7 L 207.2,207.9 L 207.3,208.1 L 207.1,208.4 L 207.1,208.7 L 206.9,209.0 L 206.8,209.4 L 206.8,209.5 L 207.1,209.6 L 207.4,209.6 L 207.5,209.7 L 207.5,210.1 L 207.4,210.4 L 207.3,210.8 L 206.9,211.1 L 206.6,211.2 L 206.2,211.3 L 205.9,211.3 L 205.7,211.3 L 205.5,211.1 L 205.5,210.7 L 205.2,210.7 L 204.9,210.7 L 204.6,210.8 L 204.3,210.9 L 204.0,210.8 L 203.7,210.8 L 203.3,210.7 L 202.8,210.7 L 202.3,210.7 L 201.8,210.7 L 201.3,210.7 L 200.8,210.7 L 200.4,210.8 L 200.1,211.0 L 199.7,211.1 L 199.4,211.3 L 199.1,211.5 L 198.8,211.6 L 198.3,211.7 L 197.9,211.6 L 197.5,211.4 L 197.6,210.8 L 197.4,210.8 L 197.3,211.4 L 197.0,211.5 L 196.5,211.5 L 196.2,211.4 L 195.9,211.4 L 195.5,211.3 L 195.2,211.1 L 194.8,211.0 L 194.4,210.8 L 193.9,210.6 L 193.6,210.4 L 193.3,210.1 L 193.0,209.6 L 192.9,209.1 L 192.6,208.8 L 192.3,208.5 L 192.0,208.0 L 191.9,207.6 L 191.8,207.1 L 191.7,206.9 L 191.7,206.7 L 191.5,206.4 L 191.4,205.9 L 191.3,205.6 L 190.9,205.2 L 190.6,204.7 L 190.4,204.2 L 190.2,203.8 L 190.1,203.6 L 190.0,203.5" fill="none" stroke="black" stroke-width="2"/>
</svg>