<?xml version="1.0" encoding="UTF-8"?>
<svg width="400" height="400" viewBox="0 0 400 400" xmlns="http://www.w3.org/2000/svg">
  <rect width="400" height="400" fill="white"/>
  <path d="M 94.5,269.5 L 95.2,269.3 L 96.8,267.2 L 97.6,266.0 L 99.7,264.5 L 100.0,263.1 L 99.0,261.8 L 97.8,260.2 L 97.1,258.6 L 97.7,255.8 L 99.6,253.4 L 101.0,251.1 L 101.7,252.8 L 102.8,252.7 L 104.6,254.5 L 105.3,257.8 L 106.1,258.3 L 107.1,256.5 L 107.1,255.5 L 107.3,254.0 L 107.3,253.1 L 107.3,251.7 L 107.3,250.3 L 108.3,247.9 L 107.6,248.2 L 106.3,249.5 L 105.7,248.9 L 106.3,248.0 L 108.6,245.6 L 110.4,243.4 L 111.3,242.4 L 111.0,240.5 L 109.9,240.1 L 107.4,240.3 L 106.1,240.5 L 104.9,239.4 L 104.6,238.0 L 104.8,235.8 L 103.2,232.4 L 101.0,229.5 L 101.4,228.6 L 102.1,227.9 L 102.6,226.5 L 104.2,224.5 L 104.4,221.3 L 103.8,220.4 L 103.2,219.8 L 102.7,216.7 L 100.8,215.1 L 98.3,214.2 L 96.7,214.6 L 94.9,215.1 L 93.7,214.7 L 91.6,211.5 L 92.0,210.8 L 93.4,209.6 L 93.5,207.9 L 92.9,207.0 L 90.4,208.0 L 89.3,209.3 L 88.4,208.7 L 87.4,206.7 L 88.8,204.3 L 88.1,201.2 L 85.9,198.1 L 84.5,196.6 L 81.4,194.4 L 80.0,194.2 L 77.3,194.4 L 76.5,193.3 L 76.0,190.9 L 76.5,189.4 L 78.2,189.4 L 80.4,189.8 L 81.5,188.6 L 81.2,187.3 L 77.6,185.9 L 76.4,184.6 L 76.7,183.3 L 77.7,183.0 L 80.7,182.9 L 81.4,182.1 L 80.4,181.2 L 78.7,179.6 L 78.7,178.0 L 79.7,177.5 L 83.2,177.9 L 83.7,176.7 L 83.8,172.7 L 85.1,172.2 L 87.7,172.8 L 89.2,172.2 L 90.3,172.5 L 91.9,171.9 L 93.2,173.1 L 93.2,174.6 L 94.2,175.0 L 97.0,174.7 L 97.5,175.7 L 97.0,177.5 L 97.9,178.2 L 98.2,180.1 L 100.5,182.3 L 103.7,183.2 L 104.1,184.7 L 107.2,186.0 L 110.2,186.3 L 114.2,185.6 L 115.1,184.7 L 116.4,181.8 L 118.3,181.4 L 122.0,182.1 L 125.9,181.6 L 129.1,180.9 L 130.9,180.8 L 131.1,181.8 L 128.9,184.4 L 129.7,185.6 L 132.5,186.5 L 132.3,187.5 L 130.9,188.7 L 129.5,191.6 L 128.7,192.6 L 127.6,195.9 L 127.5,196.7 L 130.0,199.4 L 132.9,200.0 L 136.1,200.3 L 136.7,201.8 L 139.7,202.7 L 143.6,203.2 L 147.4,203.1 L 151.1,203.0 L 155.1,203.6 L 158.9,203.7 L 162.8,203.7 L 164.6,203.2 L 165.7,201.5 L 166.3,197.7 L 167.2,196.9 L 169.7,196.2 L 169.8,194.6 L 170.1,192.2 L 171.1,192.2 L 171.1,193.7 L 170.8,197.6 L 171.7,198.8 L 172.7,198.9 L 173.4,199.2 L 174.9,200.0 L 176.7,199.5 L 179.9,197.4 L 181.1,197.0 L 182.1,197.5 L 182.5,199.8 L 183.7,200.7 L 186.2,200.8 L 188.8,199.9 L 190.2,196.7 L 190.8,195.9 L 189.9,195.5 L 188.2,195.5 L 188.8,192.9 L 188.7,192.0 L 188.0,190.8 L 184.1,189.7 L 183.4,188.9 L 183.0,186.9 L 181.2,185.1 L 178.9,185.1 L 175.4,186.6 L 172.0,187.9 L 170.7,187.3 L 168.7,184.5 L 170.0,183.1 L 171.4,182.4 L 174.3,183.2 L 174.5,180.5 L 174.3,178.3 L 175.5,175.3 L 175.4,173.8 L 176.3,171.9 L 176.3,169.2 L 175.4,165.7 L 176.2,165.3 L 178.6,165.2 L 180.1,164.8 L 181.2,165.4 L 181.7,166.1 L 184.0,165.0 L 186.6,164.7 L 186.8,164.8 L 187.9,165.1 L 188.2,167.2 L 189.7,167.9 L 189.2,168.5 L 188.2,168.9 L 188.6,169.5 L 190.7,170.4 L 191.6,171.5 L 191.9,175.2 L 194.6,177.9 L 197.8,179.9 L 200.3,180.6 L 204.1,181.5 L 205.9,182.2 L 208.2,182.0 L 209.3,180.5 L 210.5,179.8 L 210.7,175.8 L 210.9,171.9 L 211.4,169.9 L 211.2,168.1 L 210.4,167.3 L 206.9,167.2 L 206.4,166.3 L 205.7,163.9 L 204.7,163.9 L 202.1,165.5 L 200.2,165.3 L 199.3,163.9 L 199.2,162.9 L 200.0,161.6 L 200.0,160.8 L 197.1,158.2 L 197.9,155.8 L 199.2,154.6 L 200.2,154.9 L 200.4,156.0 L 200.7,156.5 L 204.4,155.2 L 207.0,154.0 L 208.7,152.9 L 209.2,153.6 L 209.4,155.3 L 211.5,155.5 L 212.5,155.4 L 213.2,156.4 L 214.1,156.6 L 214.1,159.0 L 215.0,159.5 L 215.6,161.2 L 218.5,159.8 L 220.2,158.2 L 219.7,156.5 L 218.9,155.7 L 219.6,151.8 L 219.0,151.5 L 217.6,152.2 L 217.1,150.6 L 215.8,146.9 L 216.9,146.0 L 217.6,146.3 L 218.6,145.1 L 219.4,143.2 L 220.6,141.4 L 222.6,144.3 L 224.0,144.4 L 224.7,143.0 L 224.7,141.2 L 223.6,140.3 L 222.6,140.7 L 221.8,141.5 L 221.3,140.8 L 221.5,136.9 L 222.0,135.3 L 223.5,134.3 L 226.5,133.3 L 227.7,133.7 L 229.1,133.4 L 230.1,133.7 L 232.6,132.8 L 233.7,132.0 L 233.8,130.1 L 233.4,129.4 L 232.4,129.0 L 232.0,127.6 L 232.1,125.3 L 232.0,123.7 L 234.0,121.0 L 233.2,118.3 L 231.3,115.0 L 229.0,113.3 L 225.3,112.1 L 222.7,110.5 L 220.4,108.5 L 218.4,109.6 L 215.2,107.3 L 213.1,105.3 L 210.4,102.8 L 210.7,100.7 L 211.4,100.2 L 212.9,100.9 L 212.3,98.8 L 213.1,97.2 L 213.7,95.1 L 216.3,92.1 L 217.4,91.4 L 217.8,90.7 L 218.2,88.8 L 218.5,87.9 L 218.3,84.0 L 217.6,81.7 L 216.7,79.6 L 215.7,76.0 L 215.8,73.4 L 216.7,72.5 L 219.2,73.7 L 220.9,74.5 L 221.3,73.5 L 221.0,70.0 L 219.0,67.5 L 217.3,65.5 L 216.3,63.6 L 214.5,60.2 L 212.2,57.2 L 209.9,54.1 L 208.3,53.4 L 206.0,50.2 L 203.4,47.5 L 201.7,44.8 L 202.4,44.0 L 204.1,43.7 L 206.9,45.1 L 208.8,47.1 L 210.5,47.0 L 212.0,47.5 L 211.8,46.7 L 210.1,44.0 L 210.6,42.5 L 213.0,43.2 L 216.2,45.4 L 219.4,47.7 L 222.6,49.6 L 226.2,51.2 L 228.7,51.9 L 232.7,52.1 L 234.4,52.0 L 235.3,50.7 L 235.7,51.1 L 236.1,51.8 L 240.0,51.3 L 243.9,51.9 L 246.5,52.4 L 250.1,54.2 L 252.1,54.9 L 252.6,54.2 L 251.4,52.0 L 249.1,49.9 L 246.7,49.3 L 247.7,47.6 L 249.0,47.8 L 250.4,48.5 L 252.1,48.1 L 250.8,45.8 L 251.2,44.5 L 252.7,44.1 L 254.5,45.1 L 256.3,47.7 L 257.5,50.9 L 259.0,51.6 L 262.8,52.1 L 263.2,51.6 L 263.9,47.8 L 263.8,45.3 L 263.3,41.5 L 264.1,40.5 L 265.5,40.0 L 268.4,42.5 L 270.6,43.5 L 272.3,43.3 L 273.0,41.2 L 274.0,41.8 L 275.1,43.7 L 275.2,44.9 L 276.6,46.0 L 279.0,46.5 L 279.1,45.7 L 278.8,43.6 L 282.2,45.5 L 283.6,45.0 L 286.0,46.8 L 286.4,48.7 L 287.1,50.4 L 290.4,52.3 L 291.2,53.4 L 290.8,54.2 L 288.2,55.5 L 286.0,58.4 L 286.0,59.3 L 283.9,62.1 L 284.9,63.8 L 287.7,64.4 L 288.9,66.1 L 291.0,66.5 L 293.4,66.0 L 293.7,66.4 L 295.7,70.0 L 295.5,70.2 L 295.1,71.7 L 295.7,72.6 L 297.0,72.2 L 334.3,137.0 L 334.7,137.8 L 333.2,138.9 L 332.7,140.6 L 333.2,144.3 L 332.3,145.1 L 330.8,145.4 L 331.2,146.0 L 331.2,146.6 L 330.6,147.9 L 330.6,149.4 L 329.1,151.4 L 329.8,151.7 L 331.0,150.2 L 332.3,150.7 L 333.6,154.1 L 336.3,154.2 L 337.5,155.2 L 337.3,156.4 L 335.9,158.6 L 333.7,158.7 L 332.0,158.9 L 332.1,159.8 L 334.4,162.4 L 333.9,163.8 L 331.6,165.3 L 328.6,165.7 L 327.8,165.1 L 325.8,161.6 L 324.8,160.6 L 321.3,158.9 L 321.3,159.6 L 322.5,161.7 L 323.5,164.4 L 326.7,166.7 L 327.3,168.2 L 327.1,169.8 L 327.3,170.9 L 326.5,172.0 L 323.4,173.2 L 321.7,173.5 L 319.2,172.1 L 315.5,173.2 L 313.3,174.0 L 310.8,176.5 L 310.9,178.2 L 312.0,180.4 L 310.6,181.9 L 311.1,183.2 L 312.9,186.0 L 313.0,186.2 L 313.9,188.0 L 313.6,189.2 L 312.3,190.3 L 310.9,189.9 L 307.5,188.0 L 307.1,188.8 L 307.6,190.3 L 305.1,193.2 L 303.9,194.7 L 301.5,194.0 L 300.6,194.0 L 300.3,195.0 L 303.5,196.5 L 305.5,200.0 L 307.4,203.3 L 307.4,204.6 L 305.9,205.2 L 306.6,208.5 L 309.0,211.5 L 311.1,214.9 L 312.6,218.1 L 314.4,220.4 L 315.7,223.2 L 316.3,222.9 L 315.4,219.3 L 318.5,220.4 L 320.7,223.5 L 322.5,224.9 L 324.0,226.2 L 324.4,227.8 L 323.7,229.3 L 322.7,230.1 L 319.4,230.9 L 319.5,231.9 L 321.6,235.2 L 323.0,238.7 L 323.6,237.3 L 324.0,237.0 L 324.6,235.5 L 325.4,235.3 L 328.3,237.9 L 331.2,240.4 L 331.7,242.1 L 330.8,245.6 L 331.6,246.7 L 332.5,247.3 L 332.6,248.7 L 332.5,249.8 L 334.7,253.0 L 336.8,256.1 L 338.3,257.7 L 339.8,259.3 L 341.6,262.5 L 340.1,263.6 L 340.5,264.3 L 341.5,264.6 L 342.6,263.5 L 342.9,262.7 L 344.3,265.3 L 344.2,266.8 L 342.2,268.3 L 341.7,269.1 L 341.0,271.0 L 339.8,270.6 L 337.5,269.6 L 337.1,270.2 L 337.1,271.9 L 334.8,273.6 L 333.1,273.8 L 329.4,272.7 L 327.4,271.2 L 326.5,267.4 L 325.5,266.2 L 324.8,266.4 L 323.5,267.5 L 322.1,267.5 L 320.5,266.1 L 318.5,262.8 L 315.2,260.7 L 312.2,258.4 L 309.2,256.0 L 308.6,255.1 L 310.1,254.1 L 309.2,252.4 L 306.4,249.8 L 304.5,249.6 L 303.5,250.6 L 304.2,252.0 L 305.5,252.6 L 306.1,253.2 L 306.3,256.6 L 306.0,258.6 L 305.0,259.4 L 304.0,258.7 L 302.1,255.3 L 299.1,252.7 L 296.5,250.5 L 293.8,249.6 L 292.1,249.4 L 289.8,247.5 L 287.9,247.4 L 285.9,247.5 L 284.2,247.6 L 284.2,249.0 L 286.8,249.7 L 287.7,250.5 L 288.0,254.0 L 289.8,256.6 L 291.3,258.9 L 292.2,262.7 L 291.4,263.5 L 290.2,263.3 L 288.1,260.1 L 286.1,257.1 L 282.8,256.5 L 281.7,257.8 L 282.1,261.2 L 281.4,262.8 L 280.4,262.7 L 279.8,262.1 L 279.3,263.4 L 277.9,263.0 L 277.4,261.9 L 277.2,260.8 L 276.5,259.5 L 276.8,258.2 L 275.9,257.9 L 275.6,258.9 L 275.8,261.9 L 275.3,263.7 L 276.2,266.6 L 278.9,269.2 L 281.8,271.8 L 284.2,272.5 L 285.7,272.9 L 286.6,275.0 L 288.5,277.1 L 289.0,278.8 L 289.7,280.8 L 290.2,284.3 L 290.3,287.0 L 290.4,288.1 L 291.6,291.8 L 292.6,293.7 L 293.2,294.2 L 291.6,297.7 L 292.3,299.8 L 294.8,302.5 L 296.3,305.4 L 297.3,305.4 L 297.7,304.3 L 297.1,301.5 L 299.5,302.1 L 301.3,304.6 L 304.2,307.3 L 307.3,309.6 L 310.5,311.9 L 313.7,313.8 L 316.1,315.8 L 315.7,316.4 L 314.1,316.0 L 310.8,314.1 L 307.1,312.4 L 305.1,312.3 L 302.2,313.7 L 301.8,315.0 L 301.3,315.9 L 300.7,315.8 L 297.9,312.9 L 296.2,311.4 L 295.3,311.3 L 295.4,313.1 L 295.4,314.3 L 294.8,314.4 L 294.2,314.1 L 293.8,315.4 L 293.6,317.2 L 293.1,316.6 L 292.4,316.4 L 289.8,317.4 L 288.6,318.5 L 288.4,316.9 L 288.8,313.0 L 288.1,311.8 L 286.2,312.1 L 285.3,313.5 L 284.5,316.5 L 284.2,319.9 L 283.9,319.3 L 282.7,317.5 L 280.9,317.0 L 278.7,317.6 L 276.4,320.0 L 276.3,321.2 L 277.4,321.7 L 278.9,322.0 L 280.0,324.7 L 280.3,325.9 L 277.8,328.8 L 276.4,330.4 L 273.1,332.0 L 272.2,335.1 L 272.3,337.7 L 272.2,339.3 L 270.7,342.8 L 269.5,346.3 L 268.6,350.1 L 267.7,350.9 L 264.9,349.3 L 262.7,348.5 L 259.3,348.7 L 257.5,349.6 L 256.8,351.4 L 256.7,355.3 L 256.0,356.2 L 255.2,355.5 L 254.4,354.7 L 252.0,354.8 L 250.4,354.2 L 249.2,355.9 L 248.7,357.8 L 247.8,357.1 L 246.9,356.2 L 244.0,356.4 L 242.6,354.3 L 242.3,351.7 L 243.1,348.0 L 243.1,345.8 L 242.5,343.3 L 243.2,341.7 L 245.6,338.7 L 247.4,335.1 L 248.6,331.5 L 249.8,331.0 L 251.0,331.1 L 250.8,328.5 L 250.3,325.5 L 250.7,324.8 L 251.9,326.4 L 254.0,329.7 L 255.1,332.0 L 257.4,331.2 L 258.3,330.3 L 260.3,327.7 L 262.6,325.1 L 262.7,321.2 L 263.1,317.5 L 263.5,313.7 L 263.9,309.8 L 264.7,309.5 L 266.5,309.2 L 269.4,306.9 L 269.1,304.0 L 268.3,301.6 L 266.3,299.6 L 264.9,297.9 L 263.4,294.4 L 262.5,290.7 L 259.9,287.9 L 259.4,286.6 L 260.6,284.6 L 260.5,284.3 L 259.3,281.1 L 259.6,278.3 L 259.5,276.2 L 259.3,274.3 L 258.2,272.7 L 256.7,270.6 L 255.1,267.3 L 252.7,264.2 L 249.6,261.9 L 247.2,261.4 L 245.3,262.1 L 243.9,262.6 L 242.6,263.1 L 242.2,264.0 L 243.6,267.6 L 243.7,269.9 L 243.0,271.2 L 240.3,272.6 L 237.8,269.7 L 235.5,267.8 L 233.3,267.7 L 231.5,268.9 L 228.1,268.2 L 226.2,269.4 L 224.8,270.6 L 222.5,271.4 L 221.5,270.0 L 221.1,268.5 L 220.6,269.4 L 221.6,272.8 L 221.6,273.2 L 223.1,275.5 L 222.9,279.3 L 222.5,281.0 L 222.2,282.7 L 221.2,283.7 L 220.2,283.3 L 219.5,281.2 L 219.4,280.7 L 218.7,277.4 L 217.7,275.0 L 216.2,273.7 L 213.1,273.9 L 211.5,273.0 L 209.4,272.8 L 207.7,271.6 L 207.4,272.7 L 207.3,274.7 L 206.3,275.3 L 205.6,275.3 L 205.0,279.2 L 205.1,279.4 L 206.1,282.8 L 205.2,283.4 L 203.9,283.1 L 202.0,279.7 L 201.5,279.0 L 199.7,276.8 L 197.7,275.4 L 195.9,275.1 L 193.5,276.2 L 191.0,276.2 L 188.6,277.0 L 186.6,276.6 L 184.2,275.6 L 180.9,276.7 L 177.6,274.5 L 175.6,273.9 L 172.1,275.8 L 171.5,276.4 L 171.0,276.9 L 168.1,277.4 L 165.9,279.3 L 165.2,281.9 L 165.3,284.0 L 164.7,284.8 L 166.7,286.4 L 170.5,287.6 L 172.9,289.6 L 174.1,291.6 L 174.4,294.9 L 174.5,295.9 L 171.2,297.8 L 169.3,299.1 L 167.2,302.4 L 165.3,304.1 L 163.9,303.9 L 160.3,302.4 L 157.6,301.6 L 156.3,302.3 L 155.1,305.0 L 154.1,307.2 L 151.2,310.0 L 151.3,311.0 L 151.8,312.3 L 151.2,313.6 L 152.0,315.7 L 151.1,315.7 L 149.3,314.5 L 148.6,316.0 L 148.0,317.7 L 146.8,319.1 L 145.9,320.7 L 144.2,321.3 L 142.0,321.4 L 141.7,322.6 L 142.5,326.3 L 141.8,328.3 L 140.5,328.9 L 139.4,329.2 L 139.3,332.0 L 138.4,332.4 L 137.1,332.4 L 136.2,333.6 L 136.6,334.5 L 139.1,337.4 L 140.2,341.1 L 139.7,341.5 L 136.4,340.1 L 133.9,340.2 L 130.1,339.4 L 128.8,340.0 L 128.2,343.8 L 127.9,345.3 L 127.9,346.0 L 129.1,346.3 L 130.6,346.9 L 133.6,349.3 L 136.3,352.0 L 135.3,352.8 L 134.8,354.4 L 133.5,354.7 L 131.4,353.5 L 128.6,351.6 L 126.3,352.3 L 126.3,353.1 L 128.3,354.6 L 129.2,355.4 L 128.5,355.7 L 124.6,355.3 L 124.3,356.1 L 124.4,358.9 L 123.4,360.0 L 122.5,359.0 L 116.8,352.9 L 64.1,296.8 L 63.9,296.6 L 63.9,295.7 L 65.1,295.7 L 64.5,294.7 L 63.8,294.4 L 62.9,295.5 L 62.0,294.7 L 62.5,294.5 L 62.0,292.5 L 64.5,290.7 L 65.4,290.0 L 65.9,290.0 L 67.2,290.0 L 67.4,287.3 L 67.9,286.1 L 67.4,283.9 L 67.4,282.0 L 66.9,279.5 L 70.3,277.5 L 72.3,275.2 L 72.0,274.2 L 71.1,274.8 L 70.6,274.7 L 69.5,272.1 L 67.7,270.5 L 66.6,269.5 L 64.9,268.7 L 61.4,270.5 L 58.4,272.2 L 57.0,272.0 L 57.0,271.1 L 57.8,269.2 L 57.3,268.7 L 56.2,268.3 L 55.7,266.3 L 55.8,266.1 L 56.6,264.4 L 58.0,263.5 L 61.6,264.7 L 62.3,264.1 L 62.7,262.4 L 66.3,261.3 L 68.0,261.8 L 68.5,262.4 L 68.9,263.1 L 70.1,265.0 L 73.1,266.6 L 75.7,267.8 L 76.5,268.3 L 80.2,269.5 L 83.9,270.8 L 87.1,271.2 L 89.0,270.5 L 90.9,270.5 L 93.8,269.8 L 94.5,269.5" fill="none" stroke="black" stroke-width="2"/>
</svg>