<?xml version="1.0" encoding="UTF-8"?>
<svg width="400" height="400" viewBox="0 0 400 400" xmlns="http://www.w3.org/2000/svg">
  <rect width="400" height="400" fill="white"/>
  <path d="M 207.9,276.7 L 208.6,275.2 L 208.8,274.1 L 208.3,273.2 L 206.4,273.2 L 205.0,275.0 L 203.2,275.5 L 202.0,274.8 L 200.6,274.1 L 199.9,275.2 L 195.9,273.9 L 193.5,272.4 L 191.4,268.9 L 191.4,267.7 L 193.6,266.8 L 197.8,265.9 L 200.3,263.7 L 200.4,262.4 L 199.0,260.9 L 198.3,260.0 L 196.3,258.4 L 195.9,257.7 L 195.0,256.9 L 194.5,255.1 L 191.5,253.2 L 187.5,251.6 L 187.2,250.0 L 186.3,249.7 L 184.6,247.6 L 182.0,247.8 L 177.8,246.7 L 173.4,246.4 L 170.8,246.9 L 167.5,247.8 L 164.3,247.8 L 160.3,246.6 L 156.0,245.7 L 154.6,246.0 L 153.9,247.3 L 154.7,249.0 L 154.2,251.1 L 152.5,253.2 L 149.0,254.2 L 144.5,254.2 L 140.3,253.9 L 136.3,253.0 L 132.3,252.1 L 128.1,251.1 L 124.9,249.9 L 123.7,248.7 L 124.1,246.2 L 124.9,244.6 L 124.4,243.2 L 124.4,242.2 L 127.7,241.9 L 127.4,240.3 L 124.9,237.5 L 124.6,236.6 L 125.8,234.9 L 128.6,235.6 L 129.5,233.7 L 130.0,232.3 L 133.1,233.3 L 136.6,235.4 L 139.9,236.3 L 141.1,235.7 L 141.5,233.1 L 140.3,231.9 L 136.3,231.4 L 132.1,230.9 L 130.0,226.9 L 127.5,223.4 L 125.6,224.8 L 124.1,224.6 L 120.2,222.5 L 118.1,222.3 L 117.1,224.1 L 113.6,223.7 L 110.5,226.5 L 108.4,225.1 L 106.1,224.4 L 102.1,223.2 L 98.9,221.8 L 96.9,219.0 L 94.4,216.2 L 93.5,214.6 L 93.7,212.2 L 95.1,210.5 L 94.1,209.6 L 93.0,207.5 L 92.3,206.6 L 89.7,204.5 L 86.4,202.6 L 82.4,200.9 L 81.9,199.8 L 82.6,198.6 L 86.2,196.7 L 86.6,195.6 L 86.2,193.5 L 84.3,192.5 L 80.1,192.0 L 77.8,193.0 L 77.7,192.3 L 77.3,191.5 L 76.6,191.8 L 73.7,191.8 L 69.3,191.5 L 65.6,189.7 L 62.5,186.9 L 59.0,184.3 L 55.7,181.9 L 52.0,179.6 L 48.9,178.4 L 46.6,178.9 L 44.2,182.2 L 43.7,184.5 L 44.5,187.4 L 47.3,189.4 L 49.6,191.8 L 49.1,194.1 L 45.9,194.4 L 41.9,192.9 L 40.0,192.2 L 40.0,191.8 L 43.0,177.5 L 46.6,159.9 L 47.0,159.9 L 51.0,159.2 L 52.7,158.3 L 54.0,155.0 L 58.1,155.0 L 60.6,155.5 L 64.6,157.1 L 66.7,157.3 L 68.4,160.9 L 69.8,162.2 L 73.7,162.5 L 77.0,162.0 L 81.2,162.2 L 83.1,161.3 L 84.1,159.7 L 84.3,157.1 L 87.3,155.0 L 89.2,155.7 L 89.5,155.0 L 87.3,152.0 L 85.2,148.6 L 83.1,145.1 L 80.6,141.8 L 78.4,137.9 L 77.5,135.3 L 77.0,132.7 L 74.2,129.5 L 73.1,127.5 L 73.7,125.0 L 74.7,123.6 L 74.7,120.3 L 79.1,120.3 L 83.2,120.1 L 87.1,122.2 L 90.9,123.8 L 94.8,125.2 L 98.2,124.5 L 101.4,123.8 L 101.9,122.6 L 98.8,120.1 L 95.6,117.3 L 92.5,114.4 L 89.0,111.9 L 85.9,109.1 L 82.4,106.4 L 79.9,103.2 L 79.8,98.9 L 79.9,94.8 L 78.9,90.8 L 77.3,87.7 L 75.4,84.9 L 74.4,80.9 L 74.7,79.1 L 78.4,77.1 L 82.4,75.5 L 85.9,75.1 L 89.5,74.8 L 93.5,74.3 L 95.6,75.1 L 98.1,77.4 L 98.4,78.8 L 97.9,80.0 L 95.3,81.8 L 93.0,82.8 L 92.5,84.9 L 94.1,88.9 L 95.8,92.8 L 95.8,95.0 L 95.8,96.6 L 98.8,99.6 L 101.9,102.3 L 105.6,104.6 L 109.1,106.4 L 112.4,108.8 L 115.5,111.4 L 119.3,113.0 L 123.7,113.5 L 124.9,112.8 L 126.7,110.5 L 127.9,110.5 L 130.5,112.6 L 134.2,114.2 L 136.1,114.9 L 137.5,116.6 L 141.7,117.2 L 145.7,118.7 L 149.7,119.4 L 152.7,119.3 L 155.1,118.4 L 157.7,118.6 L 158.9,117.2 L 162.2,114.7 L 164.0,114.4 L 168.2,115.1 L 170.6,114.6 L 172.9,113.2 L 174.6,111.9 L 177.8,110.4 L 180.9,108.6 L 185.1,107.4 L 189.1,107.1 L 192.9,107.7 L 195.7,110.4 L 197.8,113.0 L 198.0,116.3 L 198.2,119.1 L 199.6,120.5 L 203.7,121.7 L 207.9,122.7 L 211.9,123.6 L 214.0,123.3 L 214.6,121.5 L 215.4,118.7 L 217.5,115.2 L 219.3,111.6 L 220.8,109.7 L 225.0,110.2 L 228.2,109.7 L 230.3,108.6 L 231.7,109.3 L 235.0,110.9 L 239.1,110.4 L 242.3,111.6 L 245.3,112.8 L 247.3,111.8 L 249.8,109.3 L 251.4,105.3 L 252.8,102.9 L 253.4,103.6 L 253.4,107.7 L 253.3,111.9 L 252.8,115.4 L 251.4,119.1 L 249.4,122.7 L 247.5,126.6 L 247.2,130.1 L 247.0,134.3 L 244.4,133.4 L 243.9,135.5 L 244.2,137.4 L 246.0,138.4 L 245.6,139.8 L 243.2,142.1 L 242.6,144.9 L 242.6,149.1 L 243.3,152.4 L 245.8,156.1 L 247.9,159.2 L 250.1,159.7 L 254.1,158.5 L 257.6,157.1 L 259.7,154.5 L 260.4,151.7 L 259.9,148.6 L 258.0,145.8 L 257.1,144.0 L 257.6,143.3 L 261.8,142.1 L 262.3,141.4 L 260.6,137.6 L 261.3,133.9 L 261.8,132.9 L 263.6,133.2 L 264.1,132.0 L 263.0,131.5 L 260.8,130.8 L 260.6,129.0 L 261.1,124.8 L 260.6,120.7 L 261.3,118.0 L 263.2,114.2 L 264.4,113.0 L 266.5,113.2 L 269.1,113.7 L 273.5,113.3 L 277.7,112.8 L 280.8,111.4 L 282.0,114.4 L 283.8,118.2 L 284.8,121.0 L 287.1,120.1 L 289.4,121.9 L 291.3,121.0 L 293.7,118.6 L 296.0,120.5 L 297.0,121.2 L 297.2,119.6 L 297.7,117.9 L 298.6,117.9 L 300.9,120.3 L 301.4,121.9 L 301.2,126.1 L 301.2,129.5 L 302.8,131.8 L 304.9,134.3 L 304.9,138.3 L 305.4,142.8 L 306.6,146.6 L 307.0,150.5 L 306.8,154.5 L 307.2,156.2 L 308.7,158.5 L 309.4,159.9 L 311.0,159.9 L 314.0,159.0 L 315.9,159.9 L 318.5,160.9 L 322.9,161.1 L 324.4,160.8 L 325.6,158.8 L 326.5,159.2 L 328.8,160.2 L 330.2,159.9 L 332.3,158.0 L 336.1,159.7 L 339.9,159.9 L 342.7,158.8 L 343.6,157.3 L 344.5,155.7 L 345.0,155.9 L 345.4,159.7 L 346.0,159.0 L 346.7,158.7 L 347.6,161.6 L 349.2,161.3 L 350.1,159.9 L 349.5,158.1 L 348.1,154.1 L 347.4,152.0 L 350.4,152.0 L 350.8,151.9 L 352.3,161.3 L 355.3,178.9 L 352.9,182.2 L 349.0,184.0 L 345.4,185.7 L 341.7,185.5 L 341.5,182.7 L 340.1,182.7 L 336.6,183.4 L 333.0,185.4 L 329.0,187.3 L 325.6,189.7 L 323.9,192.0 L 323.4,195.5 L 321.3,197.6 L 321.3,199.0 L 324.4,201.9 L 325.1,201.9 L 326.2,202.1 L 327.4,202.6 L 329.3,204.7 L 333.1,204.7 L 337.2,203.8 L 337.5,203.8 L 337.9,203.8 L 338.2,203.8 L 342.2,203.7 L 345.5,201.4 L 346.0,202.3 L 346.0,206.6 L 347.6,209.9 L 345.9,210.8 L 345.5,213.4 L 346.9,214.6 L 351.3,215.2 L 352.7,216.6 L 352.7,218.8 L 352.2,221.6 L 353.7,222.7 L 357.9,223.4 L 360.0,223.9 L 359.5,224.8 L 357.6,226.3 L 358.1,228.6 L 359.3,228.9 L 358.8,230.7 L 356.2,239.4 L 353.9,246.7 L 352.0,245.9 L 348.7,247.1 L 346.7,248.1 L 346.0,249.9 L 346.9,251.1 L 351.1,252.5 L 352.2,252.5 L 350.6,257.9 L 348.7,257.7 L 344.5,258.6 L 340.6,259.8 L 337.9,261.6 L 333.8,263.7 L 330.5,265.6 L 329.0,269.2 L 325.8,272.4 L 324.8,273.9 L 325.1,274.6 L 325.1,276.0 L 325.8,277.8 L 326.0,279.0 L 327.6,280.0 L 330.9,280.0 L 331.9,279.5 L 333.0,275.5 L 332.6,273.1 L 329.3,272.9 L 329.0,272.4 L 332.1,269.4 L 335.2,267.5 L 337.3,267.5 L 341.0,269.6 L 342.4,268.9 L 343.6,267.8 L 347.6,267.3 L 344.5,277.8 L 344.1,277.6 L 342.0,277.6 L 342.0,278.8 L 343.4,280.0 L 343.8,280.0 L 335.4,307.9 L 335.1,309.2 L 333.8,308.5 L 332.4,307.2 L 331.9,306.7 L 331.9,305.5 L 330.5,305.0 L 327.7,305.2 L 326.7,305.7 L 323.9,312.0 L 323.2,312.0 L 322.9,310.9 L 322.7,309.7 L 321.8,309.3 L 321.3,309.9 L 320.9,316.7 L 320.4,320.5 L 319.0,323.5 L 317.3,324.7 L 315.7,324.3 L 311.9,321.7 L 309.1,320.5 L 304.9,319.1 L 301.4,316.3 L 296.5,313.0 L 294.1,312.7 L 290.2,312.5 L 287.5,312.7 L 286.4,313.2 L 285.4,316.8 L 284.1,322.2 L 281.5,325.2 L 280.0,325.7 L 278.0,325.2 L 274.9,323.1 L 273.5,322.2 L 273.2,321.0 L 273.7,316.1 L 272.8,312.8 L 271.6,311.6 L 269.7,311.6 L 266.4,312.0 L 265.0,311.4 L 263.6,309.0 L 257.1,306.7 L 255.4,306.6 L 254.3,306.6 L 252.1,305.3 L 249.1,304.8 L 246.5,302.9 L 242.6,297.3 L 240.4,295.6 L 238.8,295.0 L 236.5,295.9 L 232.9,297.7 L 232.0,298.0 L 230.4,297.5 L 230.3,297.3 L 228.7,296.3 L 226.2,294.0 L 225.2,293.5 L 223.5,293.1 L 221.0,289.8 L 219.3,286.7 L 216.8,283.7 L 213.3,279.3 L 213.2,279.2 L 211.4,278.1 L 208.5,277.1" fill="none" stroke="black" stroke-width="2"/>
</svg>