<?xml version="1.0" encoding="UTF-8"?>
<svg width="400" height="400" viewBox="0 0 400 400" xmlns="http://www.w3.org/2000/svg">
  <rect width="400" height="400" fill="white"/>
  <path d="M 103.7,157.4 L 105.1,157.0 L 107.7,156.7 L 109.5,155.9 L 110.4,156.1 L 111.0,156.7 L 111.8,156.3 L 112.8,155.2 L 117.8,153.5 L 119.3,152.9 L 120.3,151.2 L 122.4,146.1 L 123.5,144.6 L 124.6,143.5 L 125.2,141.6 L 126.2,140.8 L 130.9,138.1 L 135.7,135.3 L 139.9,132.4 L 139.9,131.8 L 139.2,130.9 L 139.6,129.0 L 140.7,125.3 L 142.5,120.7 L 143.1,116.3 L 144.7,113.0 L 146.8,112.0 L 150.9,110.8 L 156.4,110.9 L 159.6,112.0 L 161.6,112.2 L 167.0,111.6 L 169.2,110.9 L 171.8,109.0 L 175.4,104.9 L 179.0,100.6 L 181.2,97.2 L 184.2,92.7 L 186.8,88.2 L 188.3,85.3 L 189.7,81.0 L 191.0,79.3 L 193.5,77.3 L 196.2,76.8 L 201.2,77.2 L 206.5,78.2 L 208.4,78.3 L 211.9,76.9 L 216.1,74.6 L 219.9,70.8 L 223.4,67.5 L 225.8,64.1 L 226.9,62.0 L 231.9,59.5 L 232.0,59.5 L 231.9,59.7 L 231.0,61.9 L 228.4,66.5 L 226.1,69.8 L 224.6,71.7 L 222.8,76.0 L 222.4,78.6 L 222.7,80.9 L 224.2,83.6 L 225.0,85.6 L 228.2,90.2 L 229.9,92.1 L 232.5,94.7 L 234.5,97.4 L 236.9,102.1 L 239.3,106.9 L 240.2,109.3 L 240.1,110.9 L 239.3,112.0 L 234.6,113.3 L 229.1,113.9 L 226.8,115.0 L 226.0,115.9 L 224.9,119.3 L 224.7,121.6 L 226.2,124.6 L 228.0,126.4 L 229.3,127.5 L 231.7,131.3 L 235.2,133.7 L 239.8,136.7 L 241.5,137.2 L 244.2,137.4 L 246.5,136.8 L 249.4,134.6 L 253.0,130.5 L 254.2,129.4 L 257.6,128.7 L 260.0,129.4 L 264.6,132.3 L 269.4,134.8 L 271.7,136.0 L 274.6,136.4 L 280.1,136.0 L 282.7,136.4 L 285.3,136.8 L 290.7,137.8 L 295.9,139.3 L 298.2,140.1 L 302.2,142.2 L 305.6,143.1 L 310.1,145.0 L 311.1,145.6 L 315.7,147.1 L 320.9,148.9 L 322.9,149.2 L 327.9,148.7 L 328.8,149.7 L 329.3,150.0 L 331.9,150.0 L 332.9,147.8 L 333.8,147.1 L 337.7,145.6 L 342.6,143.1 L 347.5,140.8 L 352.1,138.3 L 353.7,137.2 L 356.3,135.2 L 357.5,134.4 L 357.8,134.5 L 360.0,135.5 L 356.4,137.8 L 356.2,138.1 L 351.9,140.5 L 348.5,142.7 L 345.6,144.4 L 344.7,146.3 L 343.1,148.2 L 339.6,149.7 L 334.4,151.5 L 331.9,152.4 L 331.5,151.9 L 330.8,151.3 L 328.5,152.4 L 326.6,156.4 L 325.1,161.4 L 324.6,163.1 L 324.5,165.7 L 324.4,167.5 L 324.4,168.6 L 326.0,172.5 L 325.9,172.5 L 315.9,177.8 L 315.7,177.8 L 315.9,177.0 L 314.6,175.3 L 311.1,171.1 L 308.9,170.3 L 308.5,170.0 L 305.6,168.8 L 301.2,165.9 L 299.2,164.4 L 295.9,163.0 L 290.7,161.9 L 285.2,161.4 L 280.4,161.5 L 279.8,161.6 L 274.5,161.8 L 269.7,162.6 L 264.3,163.4 L 259.0,163.8 L 253.8,164.2 L 250.1,164.8 L 249.3,165.6 L 248.4,169.9 L 246.5,172.7 L 243.9,176.4 L 242.0,181.5 L 240.9,186.7 L 240.1,187.7 L 238.3,188.9 L 235.6,188.9 L 230.5,187.5 L 225.8,186.7 L 223.5,187.1 L 220.1,187.8 L 214.7,187.8 L 209.3,187.1 L 204.0,186.8 L 198.4,187.1 L 196.8,187.0 L 195.1,186.2 L 190.9,183.4 L 188.7,183.1 L 186.6,183.6 L 183.1,185.9 L 181.6,187.9 L 182.8,189.7 L 185.1,192.1 L 186.5,193.7 L 187.0,195.1 L 186.6,196.6 L 184.4,199.0 L 181.6,201.6 L 181.3,204.5 L 180.5,209.9 L 180.6,211.9 L 181.4,212.3 L 184.9,212.7 L 187.0,214.0 L 187.7,214.9 L 187.7,216.2 L 186.6,217.7 L 188.3,218.4 L 190.7,219.3 L 191.7,219.9 L 191.8,221.9 L 192.3,223.7 L 194.0,225.4 L 195.1,227.1 L 196.2,227.8 L 197.6,227.5 L 202.0,224.7 L 206.4,221.4 L 208.4,218.9 L 210.5,216.7 L 211.0,217.1 L 212.7,221.5 L 213.2,227.0 L 213.2,229.9 L 212.4,233.6 L 212.4,234.7 L 214.7,239.6 L 216.4,241.8 L 217.2,247.1 L 218.6,250.6 L 219.3,253.2 L 221.6,256.3 L 222.0,260.6 L 221.9,262.9 L 220.2,265.6 L 219.7,266.7 L 219.0,268.1 L 217.5,271.1 L 214.3,275.8 L 212.0,278.5 L 209.5,283.3 L 207.6,287.0 L 206.5,292.2 L 205.1,294.4 L 202.3,297.6 L 200.5,299.6 L 198.1,304.6 L 196.6,307.6 L 194.9,309.9 L 195.1,310.7 L 196.2,312.2 L 196.8,317.6 L 197.9,322.2 L 199.7,323.9 L 201.7,325.0 L 202.8,324.7 L 203.4,323.9 L 204.0,321.0 L 204.9,316.2 L 205.6,315.9 L 207.3,316.2 L 208.3,317.6 L 209.1,319.9 L 210.1,325.3 L 210.5,328.4 L 210.9,333.9 L 210.6,336.1 L 210.1,335.8 L 209.9,332.1 L 209.0,326.9 L 208.7,324.6 L 207.9,323.3 L 207.3,323.6 L 206.9,326.1 L 207.1,331.2 L 207.2,335.9 L 206.2,336.1 L 203.1,335.4 L 201.7,333.9 L 200.5,333.5 L 199.2,333.9 L 198.7,334.9 L 197.9,336.2 L 196.0,336.9 L 193.5,337.6 L 190.3,338.7 L 186.5,339.2 L 183.2,340.5 L 182.8,339.9 L 182.3,337.2 L 182.1,332.7 L 183.1,331.6 L 183.9,330.9 L 185.1,327.5 L 186.5,325.4 L 189.9,322.5 L 191.7,321.0 L 195.0,317.0 L 196.0,315.0 L 195.8,313.7 L 195.1,313.6 L 193.5,314.3 L 190.2,316.5 L 188.7,317.0 L 187.5,316.1 L 184.2,312.0 L 182.5,309.6 L 182.9,308.7 L 184.3,307.9 L 185.0,307.2 L 184.9,306.6 L 183.6,306.6 L 181.2,307.7 L 177.3,304.6 L 172.8,301.7 L 168.0,299.1 L 165.3,295.7 L 163.9,293.9 L 163.5,292.2 L 163.6,290.4 L 164.6,289.6 L 168.1,288.7 L 168.8,287.3 L 169.4,284.8 L 168.5,282.0 L 167.0,278.8 L 165.3,277.3 L 162.7,275.8 L 157.6,273.7 L 154.0,272.1 L 153.1,272.5 L 151.0,274.4 L 147.6,273.6 L 143.7,271.7 L 141.7,269.6 L 140.3,267.2 L 140.6,264.8 L 141.4,263.3 L 144.3,260.0 L 144.3,259.9 L 146.2,257.4 L 148.0,256.2 L 152.8,253.9 L 155.0,252.6 L 154.6,251.9 L 151.1,247.6 L 150.0,246.0 L 149.2,242.6 L 149.1,240.0 L 149.0,236.2 L 148.1,234.7 L 144.6,230.6 L 141.7,226.6 L 140.7,224.4 L 139.8,219.2 L 138.9,216.0 L 137.9,214.4 L 135.0,211.6 L 130.4,208.9 L 125.8,206.2 L 124.1,204.9 L 120.4,201.1 L 116.7,198.6 L 114.3,197.8 L 111.7,197.7 L 108.8,198.2 L 108.2,200.5 L 104.0,202.7 L 102.4,202.9 L 100.3,202.2 L 97.7,204.9 L 94.3,206.7 L 92.5,211.0 L 89.7,215.8 L 87.0,220.4 L 84.3,225.2 L 82.9,227.3 L 81.7,228.1 L 80.6,228.9 L 78.1,229.2 L 73.6,228.8 L 70.3,228.4 L 65.1,229.5 L 59.9,231.1 L 54.5,232.2 L 50.8,233.3 L 47.8,234.7 L 45.9,236.6 L 41.6,236.2 L 40.1,236.3 L 40.0,235.6 L 40.7,233.6 L 41.4,233.0 L 46.6,231.8 L 49.3,231.0 L 53.2,227.3 L 56.6,225.2 L 61.7,223.2 L 66.6,220.8 L 68.4,219.7 L 72.1,215.9 L 74.5,213.2 L 76.0,210.7 L 76.6,208.2 L 76.0,203.0 L 76.3,199.7 L 77.4,197.8 L 78.5,196.8 L 81.0,196.4 L 82.8,196.0 L 84.8,195.2 L 88.8,194.4 L 89.2,193.7 L 88.9,191.5 L 89.6,190.7 L 93.4,186.8 L 95.5,185.1 L 99.8,181.8 L 103.5,178.8 L 106.1,173.8 L 107.0,170.4 L 107.4,168.8 L 106.9,167.9 L 105.1,167.4 L 104.3,163.0 L 104.8,162.2 L 104.8,161.5 L 104.1,161.1 L 102.9,161.4 L 102.4,160.1 L 102.5,158.7 L 103.7,157.4" fill="none" stroke="black" stroke-width="2"/>
</svg>