<?xml version="1.0" encoding="UTF-8"?>
<svg width="400" height="400" viewBox="0 0 400 400" xmlns="http://www.w3.org/2000/svg">
  <rect width="400" height="400" fill="white"/>
  <path d="M 40.0,198.1 L 165.7,117.6 L 168.5,115.9 L 168.0,117.0 L 168.1,117.6 L 170.8,117.4 L 170.8,118.0 L 170.4,119.7 L 170.4,120.3 L 171.3,120.5 L 171.8,120.1 L 172.2,119.7 L 172.8,119.8 L 173.1,120.5 L 173.9,121.5 L 174.3,121.7 L 175.1,121.4 L 175.5,121.0 L 175.6,121.5 L 175.8,123.2 L 176.1,123.9 L 177.1,123.6 L 177.0,125.3 L 177.2,125.6 L 178.1,124.4 L 178.4,124.3 L 178.9,125.6 L 179.2,126.1 L 180.6,124.6 L 181.5,122.8 L 182.0,122.9 L 183.3,123.7 L 183.8,124.7 L 184.1,125.2 L 184.9,124.2 L 186.7,123.1 L 187.2,122.5 L 188.3,121.4 L 188.2,122.2 L 188.8,122.4 L 189.3,121.8 L 190.3,122.2 L 189.9,123.2 L 190.3,124.2 L 191.2,125.2 L 192.1,125.6 L 192.8,125.5 L 193.7,124.6 L 194.3,123.1 L 194.8,123.1 L 195.2,122.6 L 196.2,121.4 L 196.6,120.6 L 197.6,117.6 L 198.7,114.6 L 199.3,112.9 L 200.3,111.8 L 201.1,111.4 L 201.9,111.5 L 202.7,112.0 L 203.1,112.7 L 203.1,113.8 L 202.1,116.7 L 200.9,118.2 L 199.6,120.4 L 199.6,121.3 L 200.0,124.5 L 199.6,125.9 L 199.0,127.2 L 198.8,127.6 L 199.4,128.7 L 200.4,129.3 L 200.0,129.9 L 200.1,130.2 L 200.9,129.8 L 201.0,130.2 L 201.7,131.0 L 201.7,131.3 L 199.8,132.8 L 199.7,133.0 L 199.8,133.6 L 200.7,134.4 L 200.8,134.4 L 201.3,134.9 L 201.3,135.1 L 201.3,135.8 L 201.7,136.4 L 201.8,136.6 L 201.4,137.5 L 200.9,138.4 L 201.1,139.0 L 202.1,139.1 L 202.3,139.8 L 203.3,142.9 L 203.5,143.3 L 204.6,142.5 L 205.5,141.9 L 207.2,142.1 L 207.3,142.4 L 207.2,145.5 L 207.4,147.1 L 207.7,150.2 L 207.7,151.3 L 207.6,152.0 L 207.6,153.0 L 207.9,153.4 L 208.5,153.4 L 209.6,152.9 L 209.8,152.2 L 209.9,152.1 L 210.7,151.8 L 211.4,151.2 L 211.8,150.4 L 213.0,150.3 L 212.7,152.5 L 212.6,153.4 L 213.0,154.6 L 213.8,154.7 L 214.6,153.9 L 215.4,154.5 L 216.1,155.3 L 216.1,158.1 L 216.2,159.3 L 216.8,160.4 L 216.9,160.9 L 216.5,161.8 L 215.6,163.9 L 215.3,164.8 L 215.5,165.6 L 216.8,165.1 L 217.3,166.2 L 217.3,166.7 L 216.9,168.7 L 217.5,169.2 L 217.7,169.9 L 218.0,171.1 L 219.0,171.2 L 219.5,172.9 L 219.9,174.0 L 222.8,174.3 L 223.1,174.4 L 223.1,175.3 L 222.1,175.3 L 221.4,175.5 L 221.1,176.6 L 221.9,178.0 L 222.2,178.1 L 223.0,176.8 L 224.5,177.0 L 224.5,179.3 L 224.5,182.5 L 224.6,182.6 L 225.3,182.1 L 226.0,181.9 L 226.2,182.9 L 226.6,183.3 L 227.0,183.0 L 227.2,183.3 L 227.6,183.8 L 227.4,184.6 L 229.0,185.6 L 229.8,186.9 L 230.1,187.9 L 231.1,189.5 L 231.7,191.0 L 232.2,191.4 L 232.3,191.7 L 232.8,193.5 L 233.6,194.7 L 234.2,195.2 L 234.7,195.1 L 235.1,196.6 L 235.8,199.7 L 236.4,200.8 L 236.5,201.1 L 237.0,202.3 L 237.5,202.8 L 237.5,203.2 L 235.5,205.0 L 235.4,205.2 L 236.2,205.5 L 236.2,206.4 L 235.9,207.7 L 234.1,208.6 L 233.8,210.1 L 233.2,211.3 L 232.9,212.4 L 232.5,212.8 L 232.0,212.7 L 231.6,213.7 L 231.3,214.5 L 231.8,215.0 L 231.5,217.5 L 231.6,218.3 L 232.2,219.3 L 233.9,220.6 L 234.6,221.3 L 235.1,222.3 L 235.0,223.6 L 235.4,224.2 L 237.8,226.3 L 240.5,228.0 L 243.2,229.7 L 245.8,231.3 L 248.2,232.9 L 249.7,233.5 L 249.7,234.1 L 250.2,234.4 L 250.7,233.9 L 253.3,235.3 L 254.6,235.4 L 256.4,236.2 L 257.4,236.5 L 259.8,236.0 L 261.3,236.8 L 262.1,237.0 L 264.1,236.5 L 265.2,236.3 L 268.0,237.6 L 269.3,238.1 L 270.7,238.6 L 271.6,240.3 L 272.5,241.0 L 272.6,241.0 L 273.2,241.5 L 273.9,242.4 L 274.5,242.4 L 275.0,242.7 L 276.0,242.9 L 276.9,242.8 L 277.6,243.5 L 277.9,243.3 L 278.6,242.8 L 279.3,242.7 L 280.1,243.2 L 280.5,243.9 L 280.9,246.5 L 282.6,246.2 L 283.9,245.2 L 285.1,244.7 L 285.9,244.7 L 288.1,244.7 L 289.4,245.4 L 292.0,246.4 L 294.6,247.4 L 296.7,249.1 L 299.8,250.1 L 302.0,250.0 L 303.3,250.3 L 304.7,251.0 L 307.1,252.4 L 308.2,252.8 L 309.2,253.1 L 310.2,254.1 L 311.6,254.6 L 312.6,255.2 L 314.4,256.0 L 314.1,257.8 L 315.1,259.6 L 316.1,260.6 L 317.3,261.3 L 318.6,261.0 L 320.2,261.3 L 323.3,262.4 L 325.4,262.2 L 327.4,263.5 L 326.7,264.4 L 326.5,264.8 L 327.0,265.3 L 330.1,266.3 L 331.5,267.0 L 334.4,268.1 L 337.4,269.2 L 339.1,269.2 L 342.3,269.6 L 343.8,269.4 L 345.0,269.4 L 348.2,269.5 L 351.3,269.7 L 353.7,269.4 L 356.1,269.0 L 356.7,269.2 L 356.8,269.7 L 356.2,270.3 L 357.3,271.6 L 357.7,271.9 L 358.5,271.5 L 358.7,271.2 L 360.0,273.4 L 360.0,273.8 L 357.6,275.7 L 356.6,276.6 L 355.2,278.9 L 353.5,281.6 L 352.6,283.7 L 352.0,284.7 L 350.9,285.8 L 348.3,287.7 L 347.4,288.2 L 345.5,288.6 L 343.3,288.4 L 341.5,287.5 L 338.8,285.8 L 336.0,284.1 L 333.2,282.7 L 330.3,281.4 L 327.4,280.1 L 324.5,278.6 L 321.9,276.7 L 319.3,274.9 L 317.7,273.1 L 315.6,271.9 L 314.3,271.4 L 312.2,271.6 L 310.0,272.2 L 309.2,271.9 L 306.4,270.5 L 303.4,269.4 L 301.7,268.4 L 301.0,267.6 L 300.2,266.9 L 298.9,266.3 L 297.6,265.8 L 297.1,266.2 L 296.1,266.0 L 293.0,265.1 L 291.0,264.4 L 288.1,263.4 L 285.2,262.0 L 284.5,260.6 L 282.8,258.8 L 281.8,256.7 L 281.7,255.9 L 282.0,255.4 L 282.3,254.8 L 282.0,254.5 L 279.0,253.3 L 278.7,253.3 L 278.6,253.8 L 280.4,255.8 L 281.7,258.6 L 281.5,259.1 L 281.1,259.1 L 278.0,258.0 L 275.1,256.7 L 272.3,255.4 L 269.3,254.2 L 267.9,254.0 L 267.3,253.9 L 265.4,253.1 L 262.5,251.7 L 261.3,250.7 L 260.3,250.4 L 260.5,249.1 L 259.6,248.7 L 259.1,249.6 L 258.4,249.2 L 256.0,247.2 L 254.9,245.8 L 253.1,243.2 L 253.4,242.1 L 252.9,241.1 L 251.5,240.0 L 249.7,239.3 L 247.1,238.9 L 245.1,238.6 L 242.1,237.8 L 239.1,237.1 L 236.1,236.0 L 233.1,235.1 L 230.5,234.8 L 229.5,234.4 L 229.5,233.4 L 229.2,233.0 L 228.3,232.7 L 226.9,232.7 L 226.0,232.5 L 226.1,231.9 L 225.9,231.5 L 224.7,231.0 L 224.0,231.0 L 222.3,230.3 L 221.8,230.7 L 221.0,231.0 L 220.2,231.0 L 217.1,230.7 L 215.8,230.0 L 213.7,229.3 L 212.4,229.0 L 211.4,229.1 L 211.0,229.2 L 210.1,227.8 L 208.8,227.0 L 207.6,226.8 L 206.0,226.4 L 203.2,226.4 L 200.0,226.5 L 199.1,227.3 L 198.1,227.4 L 197.4,227.6 L 197.2,227.2 L 197.1,226.7 L 196.6,226.5 L 196.2,227.1 L 195.8,227.1 L 195.2,227.0 L 194.6,228.0 L 194.3,228.2 L 192.8,228.2 L 192.4,228.1 L 192.4,228.1 L 192.3,228.0 L 192.7,227.4 L 193.0,226.8 L 192.0,225.9 L 191.7,225.4 L 191.3,224.7 L 190.6,224.3 L 189.8,224.5 L 189.0,224.8 L 188.6,226.7 L 188.4,226.9 L 188.3,226.4 L 187.5,225.4 L 187.1,224.2 L 186.0,222.6 L 184.4,223.0 L 184.5,223.4 L 184.4,223.8 L 182.7,224.0 L 182.0,223.3 L 181.0,223.3 L 177.9,223.7 L 176.5,223.4 L 174.9,222.1 L 172.1,220.8 L 170.3,220.7 L 169.2,220.4 L 167.5,220.0 L 167.0,219.6 L 166.6,217.9 L 166.3,217.8 L 165.4,218.3 L 165.1,217.6 L 165.0,217.5 L 164.6,217.9 L 164.0,219.3 L 163.6,219.1 L 163.7,218.2 L 162.8,218.5 L 162.2,219.1 L 161.9,218.8 L 162.0,218.5 L 162.3,217.9 L 161.6,217.2 L 161.1,217.5 L 160.7,217.7 L 159.8,219.2 L 159.4,219.6 L 159.1,219.3 L 159.3,218.7 L 159.4,217.8 L 158.9,217.1 L 158.7,216.7 L 158.5,216.2 L 158.0,216.0 L 157.4,216.2 L 156.6,217.1 L 157.3,217.4 L 157.0,217.9 L 156.1,218.1 L 154.9,216.7 L 154.5,215.8 L 153.9,215.3 L 152.8,215.0 L 152.4,215.2 L 151.5,216.5 L 151.0,216.9 L 150.4,217.0 L 150.3,215.3 L 149.7,215.4 L 149.6,214.5 L 148.4,214.5 L 148.3,213.9 L 148.3,213.0 L 147.7,212.5 L 146.9,212.3 L 146.1,213.2 L 145.5,213.4 L 144.3,214.7 L 144.2,215.1 L 144.8,215.3 L 146.5,215.4 L 145.6,216.0 L 145.6,216.2 L 146.5,216.6 L 145.6,217.5 L 145.4,218.0 L 145.6,221.0 L 145.8,221.7 L 146.0,222.3 L 145.4,222.2 L 145.1,225.1 L 146.4,224.6 L 147.0,224.6 L 147.4,224.7 L 147.2,227.0 L 146.3,226.3 L 145.9,226.2 L 146.0,227.4 L 146.1,228.1 L 145.4,229.1 L 145.0,229.4 L 142.4,229.6 L 141.8,228.9 L 140.0,228.0 L 139.3,227.5 L 139.0,227.7 L 137.4,229.2 L 136.1,229.7 L 135.8,230.7 L 135.7,231.0 L 134.6,230.6 L 134.3,231.5 L 132.6,231.4 L 132.2,231.2 L 132.0,230.6 L 131.0,231.0 L 128.1,231.4 L 127.3,231.1 L 125.4,228.6 L 124.9,228.5 L 123.0,229.7 L 121.6,230.1 L 121.6,229.7 L 121.6,229.0 L 121.2,228.7 L 120.7,228.9 L 120.3,230.6 L 119.3,230.0 L 118.2,228.8 L 117.8,229.1 L 115.9,229.5 L 115.2,229.9 L 114.8,231.0 L 114.4,231.3 L 111.5,230.1 L 110.7,229.3 L 110.2,228.7 L 107.1,228.1 L 106.4,228.4 L 106.0,228.0 L 105.0,227.6 L 104.7,228.0 L 103.1,228.0 L 102.8,227.3 L 102.5,227.0 L 102.2,227.2 L 101.9,228.0 L 101.3,228.2 L 100.5,228.5 L 97.6,230.0 L 96.4,230.6 L 96.5,228.9 L 96.4,228.4 L 95.2,228.8 L 93.9,227.9 L 92.1,228.2 L 89.4,229.3 L 86.7,231.0 L 86.5,230.8 L 86.1,230.1 L 84.1,229.0 L 84.0,228.0 L 83.9,226.9 L 83.5,226.2 L 81.4,226.1 L 80.4,224.7 L 79.4,224.8 L 78.9,225.0 L 78.0,225.1 L 78.2,223.9 L 78.3,223.5 L 76.9,222.9 L 75.8,222.1 L 76.3,221.3 L 76.3,220.4 L 75.4,219.9 L 75.4,219.0 L 74.6,219.2 L 73.5,219.2 L 72.3,218.4 L 72.3,218.2 L 72.3,217.1 L 72.0,216.7 L 71.6,216.7 L 71.1,217.5 L 70.6,217.5 L 69.8,217.3 L 69.6,216.2 L 68.9,214.3 L 68.0,214.1 L 68.0,213.1 L 67.6,211.5 L 67.4,211.4 L 66.4,212.2 L 66.1,213.6 L 65.3,213.1 L 65.2,213.3 L 64.7,214.4 L 64.3,214.2 L 64.0,214.0 L 63.7,214.7 L 62.5,215.1 L 62.1,214.5 L 61.7,214.4 L 58.6,215.0 L 57.5,214.9 L 55.8,213.4 L 54.8,213.7 L 53.7,214.1 L 52.9,213.8 L 52.2,213.0 L 51.3,210.4 L 51.2,209.5 L 51.5,208.9 L 52.4,208.6 L 52.3,207.9 L 51.1,208.3 L 50.8,208.1 L 51.6,206.9 L 51.8,206.1 L 51.4,204.8 L 52.0,204.0 L 52.0,203.6 L 50.9,203.5 L 51.3,202.8 L 50.8,202.3 L 50.1,201.5 L 49.6,201.3 L 46.9,201.5 L 46.8,201.4 L 47.2,200.2 L 47.3,199.4 L 47.0,199.2 L 45.4,199.9 L 45.3,199.6 L 46.1,197.9 L 46.1,197.5 L 44.2,198.4 L 44.0,199.8 L 43.2,199.8 L 43.2,199.1 L 41.7,198.2 L 40.0,198.1" fill="none" stroke="black" stroke-width="2"/>
</svg>