<?xml version="1.0" encoding="UTF-8"?>
<svg width="400" height="400" viewBox="0 0 400 400" xmlns="http://www.w3.org/2000/svg">
  <rect width="400" height="400" fill="white"/>
  <path d="M 186.0,202.4 L 186.6,202.0 L 187.0,202.0 L 187.4,201.7 L 187.9,201.5 L 188.4,201.3 L 188.7,201.0 L 188.9,200.7 L 189.1,200.8 L 189.7,200.3 L 190.7,199.3 L 191.5,198.1 L 191.8,197.2 L 191.3,196.7 L 190.8,196.4 L 191.0,196.0 L 191.7,196.1 L 191.7,195.5 L 192.1,195.0 L 192.3,194.6 L 192.9,194.2 L 193.3,194.0 L 193.5,193.8 L 193.3,192.5 L 193.2,192.1 L 193.3,191.4 L 192.9,191.1 L 192.7,191.1 L 192.7,190.9 L 192.9,190.4 L 193.0,189.8 L 193.3,189.6 L 193.8,189.5 L 194.8,189.8 L 194.7,189.3 L 194.4,188.7 L 194.1,188.3 L 195.2,187.3 L 195.6,187.0 L 195.9,187.4 L 196.2,187.6 L 196.6,187.4 L 196.8,187.8 L 197.8,188.1 L 198.0,188.0 L 198.2,187.7 L 198.6,188.2 L 199.1,188.3 L 199.6,188.3 L 199.7,187.9 L 200.1,186.4 L 200.7,186.3 L 201.1,186.2 L 201.3,184.8 L 202.0,184.1 L 202.5,183.8 L 204.0,183.2 L 204.5,183.0 L 205.1,182.5 L 205.4,181.7 L 205.6,181.5 L 206.0,181.4 L 206.5,181.1 L 206.5,180.7 L 207.1,180.5 L 208.5,179.7 L 209.1,178.9 L 209.2,178.3 L 209.0,178.1 L 209.0,177.8 L 209.6,176.6 L 210.5,176.3 L 211.5,176.5 L 212.3,176.4 L 213.2,176.1 L 213.5,175.7 L 213.7,175.5 L 214.1,175.3 L 214.3,174.7 L 214.4,173.1 L 214.3,172.6 L 214.4,172.4 L 214.8,171.9 L 215.0,172.1 L 215.5,172.2 L 216.9,172.1 L 217.2,171.9 L 217.7,171.0 L 218.2,170.9 L 218.7,170.3 L 219.5,169.8 L 220.4,169.3 L 221.1,169.4 L 221.4,169.3 L 221.7,168.9 L 223.1,168.6 L 223.7,168.4 L 224.1,167.6 L 224.5,167.3 L 224.7,166.9 L 224.2,166.7 L 224.1,166.5 L 224.5,166.3 L 224.8,166.0 L 225.7,165.9 L 225.9,165.5 L 226.2,164.0 L 226.4,164.0 L 226.9,164.0 L 227.1,163.8 L 226.9,163.0 L 227.6,162.8 L 228.4,162.6 L 229.2,162.0 L 230.2,160.8 L 230.3,160.4 L 230.8,160.2 L 231.4,159.9 L 231.9,159.1 L 232.3,158.2 L 232.4,157.8 L 232.4,156.4 L 232.6,156.4 L 233.3,156.4 L 234.0,156.3 L 234.3,155.8 L 234.5,155.1 L 234.8,154.9 L 235.2,154.5 L 235.2,153.6 L 235.4,153.4 L 235.4,152.7 L 235.7,152.4 L 235.7,152.1 L 235.6,151.6 L 235.8,151.1 L 235.9,150.6 L 236.4,150.3 L 236.6,149.2 L 237.0,149.0 L 237.7,148.7 L 237.8,147.9 L 238.0,146.8 L 238.2,145.7 L 237.8,144.6 L 237.8,144.2 L 237.9,144.1 L 238.5,143.8 L 238.5,143.6 L 238.4,142.5 L 238.3,141.9 L 238.5,141.8 L 238.7,140.8 L 239.0,139.8 L 239.4,139.6 L 239.9,139.2 L 240.4,138.4 L 240.6,138.3 L 240.9,138.3 L 241.1,138.1 L 241.5,137.8 L 241.7,138.0 L 242.0,138.0 L 243.0,137.8 L 243.0,137.4 L 242.6,136.1 L 242.6,135.6 L 243.0,135.1 L 243.3,135.0 L 243.6,135.3 L 244.2,136.0 L 245.1,135.3 L 245.7,134.7 L 246.3,134.5 L 246.8,135.1 L 247.7,134.8 L 248.5,134.4 L 248.5,134.0 L 248.4,133.4 L 248.4,133.0 L 249.2,132.7 L 249.4,132.9 L 249.9,132.9 L 250.3,132.8 L 250.4,132.4 L 250.6,132.6 L 250.8,132.5 L 251.0,131.0 L 251.3,130.4 L 251.7,130.0 L 251.6,129.8 L 251.1,129.2 L 251.6,128.7 L 251.9,128.5 L 251.6,127.9 L 251.2,127.4 L 251.2,127.2 L 251.9,126.9 L 252.4,126.0 L 252.4,125.6 L 252.5,125.6 L 284.3,118.3 L 299.6,114.8 L 319.4,110.2 L 319.4,110.6 L 319.7,111.1 L 320.0,111.3 L 320.5,111.2 L 321.3,110.9 L 322.5,111.8 L 322.9,112.1 L 323.4,112.0 L 323.7,112.3 L 324.5,113.0 L 324.7,113.5 L 325.5,114.2 L 325.6,115.0 L 325.8,115.4 L 326.4,115.8 L 327.3,116.1 L 327.6,116.7 L 327.8,117.0 L 328.0,116.9 L 328.1,116.6 L 328.1,116.6 L 329.3,117.5 L 329.9,117.8 L 330.9,118.8 L 331.1,119.3 L 331.7,120.1 L 332.3,120.8 L 333.5,121.7 L 334.4,122.8 L 335.3,123.6 L 335.7,123.7 L 336.3,124.4 L 336.8,125.0 L 337.2,125.2 L 338.1,125.1 L 339.1,125.4 L 339.3,125.4 L 339.4,125.6 L 360.0,159.4 L 359.6,160.0 L 359.5,160.2 L 359.8,160.4 L 359.8,160.7 L 359.2,160.8 L 359.2,161.3 L 359.3,161.8 L 358.6,162.5 L 358.7,162.7 L 357.3,162.9 L 356.9,163.0 L 356.8,163.3 L 356.6,163.5 L 355.9,163.8 L 355.6,163.9 L 355.5,164.5 L 355.4,165.3 L 355.7,166.6 L 355.6,166.9 L 355.1,166.9 L 354.3,166.6 L 354.0,166.8 L 353.0,168.1 L 352.2,168.3 L 351.6,168.6 L 351.6,169.4 L 351.3,169.3 L 351.0,169.4 L 350.7,169.9 L 350.2,169.5 L 349.0,169.7 L 348.9,169.9 L 348.8,170.0 L 348.3,169.8 L 347.3,169.9 L 346.3,170.3 L 344.6,170.5 L 344.2,170.7 L 344.1,170.9 L 344.2,171.4 L 344.2,171.4 L 342.7,170.8 L 342.0,170.9 L 341.0,170.9 L 340.6,171.0 L 340.2,171.3 L 339.9,172.1 L 339.7,172.4 L 339.3,172.8 L 338.7,173.1 L 338.2,173.4 L 337.9,173.8 L 337.9,174.4 L 338.1,174.8 L 338.0,175.7 L 338.0,176.0 L 338.1,176.5 L 338.7,177.7 L 339.2,178.2 L 338.4,178.3 L 337.9,178.9 L 337.9,179.1 L 337.8,179.4 L 337.6,179.6 L 337.3,179.8 L 337.0,180.6 L 336.7,181.0 L 336.3,181.7 L 336.0,182.4 L 335.8,182.6 L 335.7,182.9 L 335.2,183.5 L 334.9,184.5 L 334.9,185.0 L 335.2,185.9 L 335.2,186.0 L 335.0,186.2 L 334.4,185.6 L 334.0,185.4 L 333.0,185.9 L 332.3,186.9 L 332.2,187.4 L 331.3,188.1 L 330.0,188.9 L 328.9,189.3 L 328.5,189.6 L 328.1,189.8 L 326.9,190.1 L 326.4,190.2 L 326.2,190.7 L 325.5,191.1 L 325.1,191.2 L 323.5,191.0 L 322.9,191.1 L 321.6,191.3 L 320.2,191.3 L 318.6,191.2 L 317.0,191.0 L 315.4,191.1 L 313.8,191.2 L 313.1,191.7 L 312.0,192.0 L 310.7,191.9 L 310.5,191.7 L 310.1,191.6 L 309.0,191.7 L 308.3,191.4 L 308.1,191.4 L 308.0,191.6 L 307.9,191.8 L 307.6,191.4 L 307.3,191.5 L 306.5,192.4 L 306.3,192.8 L 306.0,192.8 L 304.4,192.9 L 303.5,193.2 L 302.0,193.7 L 300.7,194.0 L 299.6,194.2 L 298.1,194.7 L 297.3,195.0 L 296.9,195.0 L 296.0,195.0 L 294.5,195.5 L 294.2,194.9 L 294.1,194.6 L 293.5,194.6 L 292.0,194.8 L 291.0,195.1 L 290.1,195.4 L 289.4,195.6 L 289.2,195.5 L 289.0,195.4 L 288.2,195.8 L 287.1,196.1 L 286.3,196.3 L 285.4,197.3 L 284.9,197.8 L 284.2,198.0 L 283.5,197.6 L 283.0,197.6 L 281.8,198.0 L 280.9,198.5 L 280.8,199.8 L 280.5,200.1 L 280.6,201.0 L 280.9,201.6 L 280.1,202.2 L 279.8,202.9 L 279.3,204.3 L 278.9,204.9 L 278.8,205.1 L 278.9,205.4 L 278.7,205.8 L 279.2,206.5 L 278.7,207.3 L 278.7,207.6 L 279.0,208.0 L 279.0,208.3 L 278.5,209.2 L 278.1,209.9 L 278.2,210.5 L 278.4,210.9 L 278.3,211.1 L 278.3,211.3 L 278.5,211.6 L 278.5,211.7 L 277.9,212.5 L 277.6,213.0 L 276.9,214.4 L 276.4,214.7 L 276.2,215.0 L 275.7,215.1 L 275.0,215.2 L 274.5,215.7 L 274.0,215.4 L 273.8,215.3 L 273.6,215.5 L 273.9,216.0 L 273.5,216.4 L 272.8,216.9 L 272.6,216.6 L 272.3,216.7 L 272.2,217.1 L 272.2,217.4 L 271.6,217.7 L 271.3,217.5 L 270.6,217.5 L 270.4,217.7 L 270.2,217.8 L 269.8,217.6 L 269.6,217.6 L 268.0,217.8 L 267.5,217.8 L 267.0,217.6 L 266.3,217.6 L 265.8,217.6 L 265.5,218.1 L 265.1,218.2 L 264.3,218.3 L 263.7,218.1 L 263.7,218.2 L 263.5,218.2 L 262.8,218.2 L 261.6,218.5 L 261.1,218.8 L 260.5,218.7 L 259.5,218.8 L 258.4,219.1 L 257.4,219.8 L 256.5,220.0 L 255.8,220.1 L 255.4,219.8 L 255.0,219.9 L 253.4,220.3 L 252.9,220.2 L 252.1,220.0 L 251.4,220.2 L 251.0,220.1 L 250.4,220.0 L 248.9,220.2 L 248.8,220.7 L 248.6,220.7 L 247.8,220.6 L 247.4,220.7 L 246.8,221.1 L 246.4,221.5 L 246.2,221.8 L 245.9,221.9 L 245.5,222.1 L 244.4,223.1 L 244.0,223.5 L 243.6,223.6 L 243.4,223.9 L 242.5,224.6 L 242.2,224.8 L 241.9,224.7 L 241.4,224.5 L 241.0,224.6 L 240.4,224.6 L 240.0,224.8 L 239.0,225.9 L 238.8,225.9 L 238.3,225.7 L 238.3,225.7 L 238.1,226.2 L 237.7,226.6 L 237.5,226.4 L 237.1,226.4 L 236.8,226.7 L 236.5,226.9 L 235.5,226.9 L 235.1,226.6 L 235.1,226.3 L 235.0,226.2 L 233.9,226.2 L 233.8,226.2 L 233.7,225.9 L 233.5,225.8 L 232.9,226.2 L 232.1,226.1 L 230.5,226.1 L 230.3,226.2 L 229.3,227.4 L 228.9,227.2 L 228.8,227.7 L 228.6,228.0 L 228.0,228.4 L 227.7,228.2 L 227.4,228.4 L 227.4,228.7 L 227.4,229.1 L 227.0,229.6 L 226.9,230.3 L 226.6,230.5 L 226.2,230.5 L 226.0,230.8 L 225.8,230.9 L 225.5,230.7 L 225.3,230.3 L 225.1,230.3 L 224.6,230.7 L 223.3,231.6 L 223.1,232.0 L 222.7,231.9 L 221.9,232.5 L 221.8,232.7 L 221.5,234.3 L 221.4,235.0 L 221.3,235.4 L 221.2,235.5 L 220.6,235.1 L 220.4,235.0 L 220.0,235.2 L 219.0,236.3 L 218.9,236.6 L 218.8,237.1 L 218.5,237.7 L 218.5,238.0 L 218.5,238.2 L 218.3,239.0 L 218.0,239.2 L 217.5,239.6 L 217.5,240.1 L 217.0,241.1 L 216.8,241.5 L 216.9,241.7 L 217.2,242.1 L 217.4,243.4 L 217.5,244.0 L 218.1,244.9 L 218.1,245.2 L 217.6,246.0 L 216.9,247.5 L 215.5,248.4 L 152.6,288.7 L 152.4,289.2 L 152.3,289.6 L 152.2,289.7 L 152.1,289.1 L 151.4,289.5 L 151.4,289.1 L 151.3,289.1 L 150.7,289.3 L 149.2,289.8 L 149.3,289.6 L 149.4,289.4 L 149.2,289.2 L 148.8,289.0 L 148.5,289.1 L 148.3,288.9 L 147.9,288.0 L 147.3,288.2 L 147.1,288.2 L 146.0,288.7 L 146.0,288.6 L 145.8,288.2 L 145.9,288.0 L 146.1,287.2 L 145.6,287.2 L 145.6,286.7 L 146.1,286.4 L 146.5,285.7 L 146.5,285.3 L 146.2,285.1 L 145.9,285.0 L 145.2,285.3 L 145.1,284.8 L 144.6,284.8 L 144.4,285.0 L 144.2,285.7 L 143.3,286.1 L 142.8,286.2 L 142.4,285.7 L 142.2,285.9 L 141.4,286.7 L 141.3,286.2 L 141.0,286.7 L 141.0,286.3 L 140.4,286.6 L 139.9,287.0 L 139.8,286.9 L 139.6,285.7 L 139.5,285.4 L 138.9,285.9 L 138.6,285.4 L 138.4,285.5 L 137.9,286.1 L 137.8,286.1 L 137.6,285.8 L 137.5,285.8 L 137.1,286.8 L 136.9,287.6 L 136.5,287.9 L 135.7,288.1 L 135.3,288.2 L 134.6,288.3 L 134.4,288.1 L 134.2,288.1 L 134.0,288.4 L 133.4,288.6 L 132.3,288.6 L 131.9,288.4 L 131.5,288.0 L 131.7,287.2 L 131.8,286.6 L 131.5,286.3 L 131.4,286.3 L 131.0,286.5 L 130.5,286.9 L 130.2,287.3 L 129.8,287.3 L 129.7,287.7 L 129.2,288.0 L 129.1,288.4 L 129.0,288.6 L 128.5,288.7 L 127.9,288.5 L 127.7,288.5 L 127.4,288.8 L 127.1,288.5 L 127.4,288.0 L 127.3,287.8 L 127.2,286.9 L 127.7,285.5 L 127.9,284.7 L 128.1,284.2 L 128.0,283.3 L 127.9,282.9 L 127.7,282.7 L 127.4,282.8 L 126.6,283.2 L 126.3,283.6 L 126.1,283.4 L 126.4,282.7 L 126.5,282.0 L 126.4,281.8 L 126.2,281.7 L 125.2,282.9 L 125.0,282.7 L 124.9,282.6 L 124.3,283.0 L 124.1,282.7 L 124.1,282.5 L 124.5,282.3 L 124.7,282.1 L 124.7,281.8 L 124.5,281.8 L 124.7,281.2 L 124.7,280.8 L 124.5,280.8 L 124.3,280.8 L 123.8,280.2 L 123.8,279.6 L 123.2,278.8 L 123.0,278.8 L 122.4,279.0 L 122.1,278.6 L 121.9,278.5 L 121.8,278.4 L 121.5,278.5 L 121.1,278.9 L 121.1,279.1 L 121.7,278.9 L 121.7,279.2 L 121.3,279.5 L 120.5,280.2 L 120.4,280.1 L 120.3,278.9 L 119.6,278.3 L 119.3,278.2 L 119.2,278.2 L 118.6,278.5 L 118.1,279.0 L 117.0,280.2 L 116.5,280.1 L 116.0,280.2 L 115.5,280.5 L 115.4,280.8 L 114.8,281.2 L 114.4,281.7 L 113.9,282.5 L 113.9,282.7 L 114.1,282.9 L 114.1,283.2 L 114.0,283.3 L 113.5,282.9 L 113.3,282.8 L 113.1,283.4 L 113.1,283.6 L 112.7,283.1 L 111.9,283.2 L 110.3,283.7 L 110.1,283.6 L 109.7,283.3 L 109.4,283.4 L 108.9,284.0 L 108.9,284.3 L 109.5,284.2 L 110.0,284.3 L 110.1,284.4 L 109.9,284.6 L 109.5,284.7 L 108.7,284.9 L 108.2,285.1 L 108.0,285.3 L 108.2,285.7 L 108.4,286.0 L 108.7,286.1 L 109.1,285.9 L 109.8,285.2 L 110.4,285.6 L 111.8,286.3 L 111.8,286.6 L 111.6,287.1 L 111.2,287.5 L 110.8,287.6 L 110.2,287.1 L 109.6,286.9 L 108.4,287.2 L 107.6,287.9 L 107.3,287.9 L 106.9,287.7 L 106.8,287.7 L 105.7,288.4 L 105.4,288.7 L 105.0,288.5 L 105.0,288.3 L 105.2,287.2 L 104.7,287.4 L 103.9,288.0 L 103.6,288.2 L 103.4,287.8 L 103.2,287.4 L 103.0,287.4 L 102.0,288.0 L 101.6,287.5 L 101.3,287.4 L 100.0,288.0 L 99.7,288.0 L 99.3,287.8 L 99.2,287.3 L 99.0,287.2 L 98.7,287.3 L 98.3,287.4 L 98.1,287.3 L 97.9,286.8 L 98.2,286.0 L 98.2,284.7 L 98.3,284.3 L 98.7,284.0 L 98.9,283.7 L 99.2,282.7 L 99.3,282.1 L 99.1,282.0 L 98.9,282.0 L 98.2,283.2 L 97.8,283.5 L 97.6,282.9 L 97.2,282.7 L 96.3,282.9 L 96.3,282.9 L 96.7,282.5 L 96.2,281.8 L 95.8,282.0 L 95.4,282.2 L 94.9,282.1 L 95.0,282.0 L 95.3,281.7 L 95.7,281.4 L 95.7,281.1 L 95.6,280.8 L 95.3,280.6 L 95.0,280.7 L 94.5,281.7 L 94.1,281.8 L 93.4,281.4 L 93.0,281.4 L 92.6,281.5 L 92.4,282.1 L 92.0,283.7 L 91.5,284.3 L 91.3,284.8 L 91.3,285.3 L 90.8,285.8 L 90.6,286.3 L 90.4,286.5 L 90.1,286.5 L 89.7,286.3 L 89.4,285.8 L 89.4,285.3 L 89.5,284.8 L 89.6,283.3 L 90.0,282.5 L 89.6,282.1 L 89.8,281.8 L 89.8,281.3 L 89.8,280.9 L 89.5,280.8 L 89.1,281.0 L 88.9,280.6 L 88.8,280.5 L 88.5,280.7 L 88.1,281.8 L 88.2,280.8 L 88.2,280.6 L 87.8,280.5 L 87.5,280.6 L 87.0,281.2 L 87.0,281.4 L 86.7,280.8 L 40.0,181.7 L 40.0,181.7 L 40.3,181.7 L 40.6,181.8 L 41.0,181.9 L 42.5,181.9 L 42.8,181.8 L 43.1,181.4 L 43.3,181.4 L 44.0,181.6 L 44.6,182.4 L 45.3,182.6 L 46.1,183.1 L 46.6,183.3 L 47.8,183.8 L 48.1,184.0 L 48.4,183.8 L 49.2,184.2 L 49.7,184.4 L 50.1,184.3 L 50.3,184.0 L 50.6,184.1 L 51.0,184.2 L 51.8,184.1 L 52.3,184.7 L 53.1,185.1 L 53.7,185.2 L 53.8,185.0 L 53.7,184.5 L 53.7,184.1 L 53.8,184.0 L 54.5,184.3 L 54.8,184.3 L 55.0,184.2 L 55.1,184.0 L 55.4,184.3 L 55.7,184.7 L 55.9,184.6 L 56.4,185.0 L 57.2,185.3 L 57.5,185.5 L 57.6,186.2 L 57.8,186.7 L 58.2,186.8 L 58.2,187.2 L 58.3,187.4 L 58.8,187.6 L 59.3,187.5 L 60.0,187.6 L 61.1,188.2 L 61.5,188.3 L 63.0,188.5 L 64.1,188.9 L 65.1,189.1 L 65.7,189.4 L 66.1,189.4 L 66.6,188.9 L 67.0,188.5 L 67.2,188.6 L 67.3,189.1 L 67.3,189.4 L 67.5,189.5 L 67.7,189.1 L 68.1,188.5 L 68.5,187.5 L 67.9,187.0 L 67.9,186.9 L 68.2,186.7 L 68.7,186.9 L 68.9,186.9 L 69.3,186.2 L 70.2,185.9 L 70.4,185.8 L 70.5,184.2 L 71.4,184.3 L 71.8,183.6 L 71.9,183.6 L 73.0,184.0 L 73.8,184.3 L 74.1,184.1 L 74.4,183.7 L 74.9,183.5 L 75.5,183.6 L 75.8,183.6 L 76.3,182.9 L 77.2,183.0 L 77.8,183.3 L 78.4,183.9 L 79.2,184.1 L 79.5,184.1 L 80.8,183.0 L 81.1,182.8 L 81.6,182.8 L 81.9,182.7 L 82.4,182.2 L 82.9,182.0 L 83.2,181.6 L 83.6,181.5 L 83.8,181.3 L 83.9,181.2 L 84.5,181.3 L 85.3,180.4 L 85.4,180.1 L 85.5,180.0 L 86.0,180.2 L 86.3,180.2 L 86.8,179.8 L 87.0,179.8 L 87.1,179.8 L 87.5,179.5 L 87.8,178.2 L 88.2,177.6 L 88.1,177.1 L 87.8,176.3 L 87.4,176.1 L 87.0,175.8 L 87.1,175.5 L 87.6,175.2 L 88.0,175.2 L 88.6,175.4 L 88.9,175.9 L 89.1,176.2 L 90.6,176.3 L 90.9,176.2 L 91.0,175.6 L 91.1,175.2 L 91.1,174.8 L 90.9,173.9 L 90.2,172.5 L 90.3,171.6 L 90.5,170.1 L 90.8,169.5 L 91.1,169.3 L 91.4,169.4 L 92.0,169.5 L 92.6,170.1 L 93.5,169.8 L 94.1,169.8 L 94.3,169.7 L 94.8,168.4 L 94.9,168.1 L 95.8,168.1 L 96.4,168.5 L 96.6,168.8 L 96.5,168.9 L 96.7,169.7 L 96.6,170.3 L 96.2,170.7 L 96.1,171.0 L 96.2,171.4 L 96.6,171.7 L 96.1,172.0 L 94.6,172.5 L 94.3,172.7 L 94.3,173.2 L 94.6,173.6 L 94.2,174.5 L 94.2,175.2 L 94.4,175.6 L 94.7,175.6 L 95.3,175.6 L 95.5,175.6 L 96.2,175.8 L 97.2,175.8 L 97.5,175.8 L 97.5,176.2 L 97.0,176.6 L 96.5,177.1 L 96.1,177.6 L 95.3,177.8 L 93.8,178.2 L 92.6,178.7 L 91.5,179.3 L 90.5,179.5 L 90.1,179.8 L 89.5,180.3 L 88.4,181.1 L 88.1,181.2 L 87.8,181.0 L 87.1,181.5 L 85.8,182.4 L 85.4,182.5 L 84.8,182.7 L 84.2,183.6 L 83.8,183.6 L 83.3,183.7 L 82.7,183.8 L 82.2,184.1 L 81.5,184.3 L 80.7,184.9 L 81.0,185.7 L 81.6,186.5 L 81.8,186.7 L 83.3,187.1 L 84.9,187.5 L 85.9,188.0 L 87.2,188.8 L 88.4,189.3 L 89.0,189.2 L 89.2,188.8 L 89.3,187.8 L 89.4,187.6 L 89.8,188.4 L 90.3,188.4 L 90.6,188.7 L 91.3,188.9 L 92.0,188.8 L 92.6,189.3 L 92.6,189.5 L 91.7,189.8 L 91.7,190.1 L 92.0,190.3 L 92.4,190.3 L 92.6,190.5 L 93.9,190.9 L 94.8,190.7 L 94.9,190.8 L 94.8,191.1 L 94.5,191.4 L 94.3,191.4 L 94.5,191.7 L 94.7,191.9 L 94.6,192.1 L 94.2,191.9 L 93.8,191.8 L 93.0,192.0 L 92.3,192.1 L 91.6,192.8 L 91.1,192.3 L 90.9,192.3 L 90.5,192.7 L 90.5,193.0 L 90.7,193.3 L 91.1,193.1 L 91.4,193.3 L 91.5,193.5 L 91.1,193.9 L 91.0,193.9 L 91.0,194.1 L 91.3,194.3 L 91.5,194.4 L 92.1,194.0 L 92.3,194.1 L 92.6,194.3 L 92.8,194.2 L 92.9,194.1 L 93.0,193.6 L 93.1,193.5 L 93.4,193.8 L 93.3,194.1 L 93.3,194.5 L 93.3,194.8 L 93.6,195.1 L 94.1,195.2 L 94.4,194.9 L 94.7,194.8 L 94.7,195.5 L 94.5,195.7 L 94.3,195.5 L 93.9,195.5 L 93.3,195.7 L 93.6,196.6 L 93.7,196.7 L 94.5,196.7 L 95.1,196.8 L 95.2,196.9 L 93.7,197.4 L 93.7,197.9 L 93.8,198.4 L 94.3,198.9 L 95.1,199.2 L 95.6,199.5 L 95.8,199.9 L 96.1,200.0 L 97.0,199.9 L 97.1,199.5 L 97.3,199.7 L 97.9,200.5 L 97.9,200.8 L 96.5,201.0 L 96.6,201.4 L 96.7,201.7 L 97.0,201.9 L 96.9,202.3 L 96.4,202.3 L 96.3,203.0 L 96.6,203.2 L 97.5,203.6 L 97.8,203.6 L 97.9,203.5 L 97.7,203.3 L 97.4,202.9 L 97.4,202.8 L 98.2,203.1 L 99.2,203.7 L 100.4,203.7 L 100.5,204.3 L 100.8,204.7 L 101.2,205.1 L 101.5,205.0 L 101.6,204.7 L 101.4,204.3 L 101.4,204.1 L 101.5,203.9 L 101.9,203.7 L 102.1,204.1 L 102.2,204.4 L 102.0,204.6 L 102.0,204.8 L 102.3,205.1 L 102.9,205.2 L 103.8,205.1 L 104.0,205.4 L 104.2,205.5 L 104.6,205.0 L 104.8,205.1 L 105.1,205.5 L 105.7,205.8 L 106.6,205.6 L 107.5,205.8 L 108.2,205.8 L 108.5,204.4 L 108.6,204.3 L 108.8,204.5 L 108.9,205.4 L 109.1,205.6 L 109.5,205.7 L 110.7,205.6 L 111.3,205.5 L 111.5,204.6 L 111.7,204.1 L 112.1,203.8 L 112.2,204.2 L 112.3,204.4 L 112.6,204.3 L 113.1,203.8 L 113.3,203.1 L 114.1,202.9 L 114.1,202.3 L 114.6,201.8 L 114.7,201.6 L 114.4,201.3 L 114.8,200.7 L 115.0,200.4 L 114.8,200.1 L 114.9,199.6 L 114.8,198.9 L 115.0,198.4 L 115.4,197.8 L 115.6,197.6 L 115.4,197.2 L 115.0,196.1 L 115.0,196.0 L 114.8,195.7 L 114.7,195.6 L 115.9,194.6 L 116.4,194.2 L 115.8,193.6 L 116.4,192.9 L 116.8,192.2 L 116.9,191.7 L 116.7,191.3 L 116.1,191.1 L 115.9,191.0 L 114.9,191.0 L 114.8,190.8 L 115.0,190.7 L 116.6,190.4 L 117.0,190.2 L 117.8,189.6 L 118.7,188.9 L 119.1,188.2 L 119.4,187.0 L 119.6,186.9 L 119.8,186.4 L 164.8,184.9 L 164.9,184.9 L 164.8,185.3 L 164.5,185.7 L 164.5,186.1 L 165.3,186.6 L 165.6,186.7 L 165.8,187.0 L 166.1,188.3 L 166.1,189.2 L 166.2,189.4 L 166.6,189.4 L 167.4,188.9 L 168.1,189.1 L 168.3,189.2 L 169.0,188.9 L 169.5,188.4 L 170.1,187.8 L 170.9,188.1 L 171.4,188.5 L 171.9,188.5 L 172.2,188.6 L 172.0,188.8 L 172.3,189.0 L 172.5,189.1 L 172.6,188.9 L 173.0,189.2 L 173.1,189.4 L 173.5,191.0 L 173.8,192.5 L 173.3,193.3 L 172.9,194.4 L 172.4,194.9 L 172.2,195.2 L 172.2,195.5 L 173.0,195.9 L 173.3,196.2 L 173.2,196.4 L 173.2,196.8 L 173.6,197.4 L 173.7,198.1 L 173.8,198.6 L 174.6,198.7 L 174.7,198.8 L 175.0,199.2 L 174.8,199.6 L 174.7,200.2 L 174.9,200.8 L 175.3,201.3 L 175.2,201.5 L 175.2,201.6 L 175.2,201.8 L 175.8,202.9 L 176.1,203.1 L 176.5,203.5 L 176.4,203.7 L 176.3,203.9 L 176.6,204.1 L 177.1,204.4 L 177.6,204.3 L 178.5,204.0 L 179.3,203.7 L 180.0,203.5 L 180.7,203.2 L 181.7,202.5 L 182.2,202.1 L 182.3,202.1 L 182.3,202.1 L 182.4,202.2 L 182.5,202.6 L 183.5,202.6 L 183.4,202.9 L 183.7,203.5 L 183.9,203.6 L 184.5,203.5 L 185.4,203.1 L 186.0,202.4" fill="none" stroke="black" stroke-width="2"/>
</svg>