<?xml version="1.0" encoding="UTF-8"?>
<svg width="400" height="400" viewBox="0 0 400 400" xmlns="http://www.w3.org/2000/svg">
  <rect width="400" height="400" fill="white"/>
  <path d="M 145.1,191.4 L 145.6,191.2 L 145.7,191.2 L 146.1,192.0 L 146.3,192.1 L 146.6,192.1 L 146.9,192.7 L 147.2,192.4 L 147.7,191.8 L 147.8,190.7 L 147.6,190.7 L 147.3,190.6 L 147.3,190.4 L 147.8,190.4 L 148.6,189.4 L 149.2,189.1 L 149.5,189.3 L 150.8,189.3 L 151.4,189.2 L 152.6,188.7 L 153.3,188.4 L 154.1,188.2 L 154.5,187.9 L 154.8,187.7 L 154.9,187.4 L 156.2,187.0 L 156.7,186.8 L 156.8,187.1 L 157.1,187.2 L 158.1,187.2 L 159.2,187.3 L 159.3,187.4 L 160.0,187.4 L 161.2,187.4 L 162.1,187.3 L 162.4,187.1 L 163.0,185.9 L 163.6,184.8 L 164.1,184.5 L 164.9,184.0 L 165.5,183.2 L 165.8,183.1 L 166.1,184.4 L 166.3,185.5 L 166.5,185.9 L 166.9,186.2 L 167.4,186.3 L 168.6,185.9 L 169.2,185.9 L 170.0,185.3 L 170.3,185.2 L 170.4,185.2 L 170.5,185.7 L 170.9,186.1 L 171.7,186.6 L 171.8,186.9 L 172.0,186.9 L 172.1,186.8 L 172.6,187.5 L 173.0,188.1 L 173.6,188.4 L 173.9,188.7 L 174.9,188.8 L 175.3,188.7 L 175.6,188.4 L 175.5,188.4 L 175.3,188.3 L 175.3,188.1 L 175.4,187.3 L 175.8,186.9 L 176.1,186.6 L 176.4,185.7 L 176.8,185.3 L 176.9,185.6 L 176.9,186.3 L 177.2,186.5 L 177.6,186.9 L 177.5,187.3 L 177.6,187.3 L 178.1,187.1 L 178.5,186.9 L 178.9,186.7 L 179.1,186.4 L 179.6,185.4 L 179.2,184.7 L 178.2,184.0 L 177.9,184.0 L 177.6,184.1 L 177.3,183.9 L 177.3,183.5 L 177.1,183.2 L 176.8,182.8 L 176.4,182.2 L 175.9,181.2 L 175.6,180.0 L 175.6,179.6 L 176.0,178.4 L 176.5,177.4 L 176.6,176.3 L 177.0,175.5 L 177.6,174.7 L 178.1,174.4 L 178.7,175.1 L 178.9,175.2 L 179.2,175.1 L 179.3,175.2 L 179.5,175.4 L 179.9,175.4 L 180.4,175.5 L 181.2,175.7 L 182.0,175.5 L 182.3,175.6 L 182.5,175.5 L 182.7,175.1 L 182.9,174.4 L 183.0,173.5 L 182.8,172.6 L 183.0,171.7 L 183.3,171.2 L 183.5,171.3 L 183.8,171.4 L 184.2,172.2 L 184.5,172.3 L 185.1,172.4 L 185.3,172.2 L 185.6,170.9 L 185.6,170.6 L 185.6,170.6 L 185.7,170.6 L 185.7,170.4 L 185.7,169.1 L 185.7,168.3 L 185.7,167.9 L 186.1,167.2 L 186.4,167.0 L 186.7,166.9 L 186.9,166.7 L 187.0,166.0 L 186.7,165.3 L 186.8,164.8 L 187.0,163.5 L 187.3,162.7 L 187.5,162.4 L 187.6,162.1 L 188.0,161.5 L 188.4,160.9 L 188.5,160.1 L 188.9,159.5 L 189.6,158.4 L 190.1,157.5 L 191.1,156.6 L 191.8,156.0 L 192.0,155.9 L 192.6,155.8 L 192.7,155.6 L 192.8,155.4 L 193.1,155.4 L 193.2,155.4 L 193.9,155.8 L 194.4,155.7 L 195.1,155.5 L 195.4,155.6 L 195.5,155.8 L 195.7,155.7 L 195.9,155.5 L 196.4,155.5 L 196.7,155.4 L 197.4,155.4 L 197.7,156.4 L 197.9,156.6 L 198.2,156.4 L 198.4,156.8 L 198.6,157.5 L 198.9,157.6 L 199.3,157.8 L 200.0,158.5 L 200.4,158.3 L 200.7,158.2 L 200.9,158.2 L 201.6,158.1 L 201.8,158.2 L 202.1,158.7 L 202.2,159.4 L 202.2,159.8 L 202.6,160.1 L 203.0,160.3 L 203.4,161.3 L 203.5,161.3 L 203.9,161.1 L 204.5,161.1 L 204.6,160.8 L 204.8,160.3 L 205.0,160.0 L 205.2,159.9 L 205.3,159.6 L 205.6,159.4 L 206.0,159.4 L 206.2,159.2 L 206.3,159.0 L 206.5,159.1 L 206.8,159.5 L 207.0,159.6 L 207.3,159.7 L 207.6,159.9 L 207.7,159.9 L 207.8,159.9 L 208.0,159.7 L 208.3,159.7 L 208.7,159.7 L 209.7,159.4 L 210.0,159.3 L 210.3,159.2 L 211.4,159.0 L 212.3,159.1 L 213.1,159.0 L 213.5,158.6 L 214.1,158.3 L 214.4,158.3 L 215.2,158.2 L 216.0,158.4 L 216.5,158.3 L 216.8,158.3 L 217.4,158.2 L 218.1,157.9 L 218.5,157.6 L 219.8,157.8 L 220.9,158.0 L 222.2,158.0 L 223.2,157.9 L 224.4,157.5 L 225.1,157.6 L 226.1,158.1 L 226.4,158.3 L 226.9,158.3 L 227.4,158.2 L 227.7,157.9 L 228.1,157.2 L 228.6,157.3 L 229.2,157.5 L 230.2,156.8 L 230.6,156.5 L 231.2,156.2 L 232.3,155.4 L 233.1,154.6 L 234.0,153.6 L 234.8,152.7 L 235.0,152.4 L 235.2,152.2 L 235.2,151.7 L 235.2,151.4 L 235.3,150.9 L 235.9,150.6 L 237.5,151.1 L 238.7,151.6 L 239.4,152.3 L 239.7,152.4 L 239.9,152.2 L 240.2,151.6 L 240.4,151.4 L 240.5,151.2 L 240.6,151.0 L 240.7,150.9 L 241.4,150.5 L 242.1,149.7 L 242.3,149.2 L 243.0,148.7 L 243.1,148.4 L 243.3,148.1 L 243.3,147.8 L 243.0,147.5 L 242.8,147.1 L 242.5,146.6 L 242.4,146.2 L 242.4,144.9 L 242.4,144.3 L 241.9,143.6 L 241.6,143.3 L 241.2,143.2 L 240.8,143.3 L 240.3,143.5 L 240.0,143.4 L 239.8,143.2 L 239.5,142.5 L 239.5,141.9 L 239.6,140.6 L 239.6,140.1 L 239.3,139.6 L 239.2,138.9 L 239.0,138.3 L 239.0,137.6 L 239.0,137.3 L 239.0,136.9 L 239.1,136.6 L 239.4,136.1 L 239.3,135.8 L 239.5,135.3 L 239.8,135.1 L 240.1,134.5 L 240.2,134.0 L 240.2,133.5 L 240.6,133.3 L 241.2,133.0 L 241.0,132.6 L 240.8,132.2 L 240.8,131.9 L 241.4,130.7 L 241.7,130.4 L 242.6,129.9 L 243.6,129.9 L 243.8,130.0 L 244.5,130.7 L 245.2,131.1 L 245.5,131.3 L 246.4,130.6 L 247.1,129.6 L 250.2,129.8 L 250.4,129.9 L 250.7,130.0 L 251.3,130.3 L 252.1,130.6 L 252.4,130.8 L 252.5,131.2 L 252.7,132.5 L 252.8,132.9 L 253.2,132.8 L 253.8,132.8 L 253.9,132.9 L 255.2,132.8 L 256.0,132.8 L 256.1,132.5 L 257.3,132.9 L 258.2,133.4 L 258.7,133.7 L 259.0,133.8 L 259.8,133.9 L 260.0,134.1 L 259.7,134.6 L 260.1,134.7 L 260.3,134.4 L 260.9,134.7 L 261.3,134.7 L 262.3,135.6 L 262.9,136.1 L 263.6,137.2 L 264.2,138.2 L 264.8,139.3 L 265.9,140.0 L 266.6,140.8 L 267.5,141.5 L 268.4,142.4 L 269.3,143.0 L 269.5,143.3 L 270.1,143.5 L 270.3,143.9 L 270.5,144.2 L 270.5,144.6 L 271.1,145.5 L 271.8,145.8 L 272.0,145.9 L 272.4,145.9 L 272.5,145.8 L 272.7,145.6 L 272.8,145.5 L 272.7,145.1 L 272.7,144.6 L 273.0,144.2 L 273.2,143.8 L 273.6,143.8 L 273.9,143.6 L 274.2,143.9 L 274.4,144.1 L 274.6,144.1 L 274.8,144.2 L 275.0,144.0 L 275.2,143.8 L 275.2,143.6 L 275.4,143.6 L 275.5,143.7 L 276.4,143.6 L 276.6,143.5 L 276.6,143.3 L 276.2,143.0 L 276.0,142.7 L 276.0,142.5 L 276.2,142.2 L 277.4,141.7 L 278.1,141.4 L 278.6,141.7 L 279.0,141.7 L 279.4,141.4 L 280.3,140.5 L 280.8,140.7 L 281.2,140.6 L 282.1,140.7 L 282.8,141.1 L 283.2,141.5 L 283.5,141.7 L 284.1,142.2 L 285.1,142.8 L 285.9,143.1 L 286.3,143.3 L 287.3,143.7 L 287.9,144.3 L 288.6,144.8 L 289.5,144.3 L 290.3,143.8 L 290.4,144.2 L 290.5,144.1 L 291.6,143.4 L 292.7,142.6 L 293.8,141.9 L 293.2,141.0 L 292.9,141.2 L 292.2,141.5 L 291.8,141.0 L 291.2,140.1 L 290.9,139.8 L 290.8,139.5 L 290.7,139.3 L 290.8,139.1 L 291.8,138.3 L 292.2,137.8 L 292.6,137.4 L 292.7,137.1 L 292.5,136.9 L 292.5,136.7 L 293.4,135.8 L 294.2,135.0 L 294.8,134.7 L 295.0,134.8 L 295.1,135.3 L 295.2,135.4 L 295.4,135.4 L 296.0,135.9 L 296.0,136.3 L 296.3,136.6 L 296.7,136.7 L 297.1,136.9 L 297.3,137.2 L 297.6,137.4 L 297.8,137.3 L 298.1,137.5 L 298.2,137.6 L 298.6,137.4 L 299.2,137.0 L 299.2,136.7 L 299.1,136.4 L 298.9,135.9 L 298.6,135.4 L 298.1,135.0 L 297.9,134.9 L 298.0,134.7 L 298.1,134.5 L 298.0,134.1 L 297.7,133.5 L 297.0,132.9 L 297.0,132.6 L 297.2,132.5 L 297.3,132.4 L 297.7,131.9 L 298.0,131.7 L 299.3,131.2 L 299.6,131.2 L 299.9,131.2 L 300.1,131.1 L 300.3,131.2 L 300.7,130.8 L 300.8,130.9 L 301.0,131.0 L 301.6,130.9 L 302.0,131.2 L 302.4,131.3 L 303.0,131.2 L 303.1,131.2 L 303.2,130.9 L 302.9,129.9 L 302.6,128.7 L 302.8,128.1 L 303.3,127.5 L 303.5,127.4 L 303.7,127.5 L 303.9,127.3 L 304.2,126.7 L 304.1,126.5 L 304.0,126.3 L 304.1,126.0 L 304.7,125.2 L 305.6,124.8 L 306.4,124.6 L 307.7,124.7 L 308.3,124.9 L 308.7,125.1 L 308.8,125.2 L 309.0,125.4 L 309.5,125.5 L 310.7,125.9 L 311.2,125.8 L 311.8,126.0 L 313.0,126.4 L 314.1,126.6 L 314.4,126.7 L 314.7,126.7 L 315.2,126.8 L 316.3,127.3 L 316.4,127.3 L 317.1,126.8 L 317.6,126.4 L 318.4,125.7 L 318.6,125.6 L 318.9,125.2 L 319.3,124.9 L 319.5,124.7 L 320.2,124.5 L 320.6,124.5 L 321.0,124.7 L 321.3,125.1 L 321.6,125.9 L 322.5,126.5 L 322.7,126.5 L 322.8,126.2 L 322.9,125.4 L 324.2,125.6 L 325.0,125.6 L 325.4,125.6 L 325.9,125.5 L 326.7,125.4 L 326.9,125.3 L 327.7,124.5 L 327.8,124.0 L 328.2,123.5 L 328.7,123.3 L 329.2,122.9 L 329.5,122.8 L 330.0,122.5 L 330.3,122.4 L 330.9,122.0 L 331.2,121.7 L 332.4,121.2 L 333.1,120.8 L 333.3,120.6 L 334.0,120.2 L 334.6,119.6 L 334.7,119.4 L 334.9,119.2 L 335.0,118.6 L 334.8,118.1 L 334.4,117.4 L 334.4,117.4 L 334.0,117.0 L 333.5,115.8 L 333.2,114.7 L 333.0,113.5 L 333.1,113.0 L 333.3,112.5 L 333.3,112.4 L 333.8,112.0 L 334.3,111.8 L 334.6,111.4 L 334.9,111.3 L 335.1,111.0 L 335.4,111.0 L 335.9,110.6 L 336.5,110.8 L 337.2,111.1 L 338.1,111.8 L 338.4,111.9 L 338.7,112.1 L 338.9,112.2 L 339.1,112.5 L 339.4,112.6 L 339.9,112.6 L 340.1,112.5 L 340.4,112.3 L 340.2,111.3 L 340.4,110.8 L 341.0,110.3 L 341.6,110.0 L 341.9,109.9 L 342.3,110.1 L 342.9,110.5 L 343.4,110.4 L 343.8,110.4 L 344.1,110.3 L 345.1,109.4 L 345.6,109.9 L 346.8,110.6 L 347.1,110.5 L 347.2,110.6 L 347.5,111.0 L 348.4,111.6 L 348.8,111.7 L 349.1,111.9 L 349.9,112.4 L 350.1,112.5 L 351.2,113.1 L 351.6,113.1 L 352.0,112.8 L 352.5,112.6 L 352.9,113.1 L 353.8,113.8 L 354.0,114.2 L 354.2,114.2 L 354.5,114.3 L 355.0,114.6 L 355.1,114.3 L 355.8,114.8 L 355.8,114.8 L 355.9,115.1 L 360.0,127.4 L 359.7,127.8 L 359.2,127.8 L 358.3,128.3 L 357.1,128.9 L 356.5,129.2 L 356.1,129.4 L 355.9,129.4 L 355.5,129.3 L 355.3,129.4 L 354.8,129.8 L 353.9,129.8 L 353.2,130.1 L 352.9,130.0 L 352.1,130.3 L 351.7,130.4 L 351.3,130.6 L 351.1,130.6 L 350.4,130.7 L 350.0,130.9 L 349.7,131.3 L 349.3,131.5 L 348.6,131.7 L 348.4,131.8 L 347.5,132.0 L 347.3,132.1 L 346.4,133.0 L 345.9,133.2 L 345.2,133.7 L 345.1,133.7 L 345.1,133.8 L 344.3,134.6 L 344.0,134.7 L 343.6,134.7 L 343.0,135.1 L 342.7,135.3 L 342.1,135.3 L 341.5,135.2 L 341.0,135.1 L 340.2,135.2 L 339.2,135.6 L 338.8,135.7 L 338.2,136.2 L 336.9,136.0 L 336.0,136.3 L 335.6,136.3 L 334.6,136.8 L 333.7,137.8 L 332.7,138.0 L 331.9,137.9 L 331.4,137.8 L 331.0,137.7 L 330.0,137.7 L 329.4,137.7 L 328.5,138.1 L 327.2,138.0 L 326.8,138.1 L 326.1,138.4 L 324.9,138.8 L 324.6,138.6 L 324.3,138.5 L 323.9,138.5 L 323.4,138.6 L 322.8,138.6 L 321.6,139.0 L 320.9,139.0 L 319.6,139.3 L 318.4,139.8 L 317.6,140.1 L 316.5,140.7 L 315.4,141.3 L 314.2,141.6 L 313.7,141.5 L 313.2,141.5 L 312.4,142.0 L 311.1,142.4 L 310.5,142.6 L 309.9,143.0 L 309.3,143.1 L 309.0,143.0 L 308.6,143.3 L 307.9,144.0 L 307.2,144.6 L 306.9,144.7 L 306.0,144.5 L 305.5,144.6 L 304.3,145.1 L 303.1,145.8 L 302.5,146.2 L 301.6,147.1 L 300.5,147.8 L 299.3,148.3 L 299.0,148.3 L 298.3,148.4 L 298.0,148.5 L 297.6,148.9 L 297.2,149.1 L 296.3,150.0 L 295.7,150.7 L 295.3,151.1 L 294.7,151.5 L 294.0,152.4 L 293.5,152.6 L 293.4,152.8 L 293.3,153.2 L 292.4,154.1 L 291.6,154.7 L 291.1,155.0 L 290.7,155.3 L 290.4,155.8 L 290.0,155.9 L 289.7,156.0 L 289.4,156.2 L 288.6,156.5 L 287.7,157.2 L 287.1,157.2 L 286.5,157.6 L 286.1,158.1 L 285.9,158.5 L 285.6,158.6 L 285.2,158.7 L 284.6,159.2 L 284.1,159.7 L 283.8,159.9 L 283.5,160.4 L 283.1,160.8 L 282.6,160.9 L 281.8,161.5 L 280.9,161.9 L 280.6,162.1 L 280.0,162.3 L 279.3,162.5 L 278.8,163.1 L 278.0,164.1 L 277.1,165.1 L 276.3,165.8 L 276.0,166.1 L 275.7,166.3 L 275.3,166.9 L 275.0,166.9 L 274.6,167.2 L 274.4,167.4 L 273.7,167.7 L 273.0,168.1 L 272.4,168.4 L 271.9,169.0 L 271.4,169.8 L 270.9,170.4 L 269.8,171.0 L 268.5,171.6 L 267.4,172.1 L 266.3,172.8 L 265.1,173.2 L 264.0,173.6 L 263.4,173.9 L 262.2,174.5 L 261.2,175.2 L 260.4,175.7 L 259.2,176.1 L 258.0,176.5 L 256.7,176.9 L 255.7,177.1 L 254.8,177.1 L 254.1,177.1 L 253.4,177.2 L 252.1,177.1 L 250.8,177.1 L 249.5,176.9 L 248.2,176.7 L 247.0,176.5 L 246.7,176.4 L 246.0,176.5 L 245.5,176.4 L 244.6,176.4 L 244.0,176.2 L 243.5,176.0 L 243.1,176.1 L 242.3,176.3 L 241.6,176.7 L 241.5,176.8 L 240.9,176.9 L 240.4,177.3 L 240.3,177.3 L 240.2,177.4 L 239.9,177.6 L 239.1,178.1 L 238.4,178.8 L 237.9,180.0 L 237.5,181.2 L 236.8,182.3 L 236.4,183.4 L 236.4,183.9 L 236.2,184.5 L 236.0,185.5 L 235.9,185.9 L 236.0,186.4 L 236.2,186.8 L 235.9,187.2 L 235.7,187.5 L 235.5,187.9 L 234.9,188.5 L 234.4,188.9 L 233.6,189.3 L 233.5,189.3 L 233.3,189.2 L 232.8,189.5 L 232.5,189.4 L 232.3,189.5 L 231.4,190.1 L 230.4,190.8 L 229.2,191.1 L 228.6,191.4 L 227.8,191.7 L 227.2,191.7 L 226.5,192.0 L 225.3,192.5 L 224.1,193.0 L 222.8,193.4 L 221.8,193.8 L 220.9,194.7 L 220.3,195.1 L 219.7,195.4 L 218.4,195.6 L 217.9,195.6 L 217.4,196.2 L 217.0,196.2 L 216.8,196.3 L 216.6,197.0 L 216.3,197.2 L 215.9,197.7 L 215.6,197.7 L 215.6,197.7 L 214.4,197.6 L 213.2,197.6 L 212.3,197.9 L 211.4,198.5 L 211.1,198.7 L 210.6,198.4 L 209.5,198.4 L 208.4,198.5 L 207.3,198.7 L 207.2,198.6 L 206.5,198.6 L 205.6,199.0 L 204.6,199.8 L 203.5,200.6 L 203.0,200.8 L 202.3,201.1 L 201.8,201.5 L 201.0,202.1 L 200.8,202.2 L 200.2,202.4 L 200.0,202.3 L 199.0,202.5 L 198.5,202.8 L 198.2,203.1 L 197.7,202.9 L 196.4,203.3 L 195.2,203.6 L 194.1,204.0 L 194.0,204.1 L 192.7,204.3 L 192.0,204.4 L 191.2,204.4 L 191.1,204.5 L 190.7,204.7 L 190.3,204.7 L 189.7,204.5 L 189.1,204.5 L 188.7,204.4 L 188.3,204.2 L 188.2,204.1 L 187.9,204.2 L 187.4,204.3 L 186.9,204.6 L 186.9,205.2 L 186.8,205.3 L 185.6,205.8 L 184.7,206.0 L 184.0,205.9 L 182.6,206.0 L 181.4,206.2 L 180.7,206.4 L 179.6,207.0 L 178.5,207.8 L 177.4,208.6 L 176.4,209.3 L 175.6,209.9 L 175.4,210.1 L 175.1,210.3 L 174.2,210.7 L 174.0,211.0 L 173.8,211.3 L 173.3,211.6 L 172.4,212.1 L 171.3,212.5 L 171.0,213.1 L 170.6,213.7 L 170.4,214.8 L 170.4,215.2 L 170.7,215.7 L 170.8,216.7 L 170.8,217.0 L 170.3,217.8 L 169.8,218.3 L 169.4,218.6 L 168.6,219.5 L 168.2,219.9 L 167.8,220.1 L 167.2,220.7 L 166.1,221.0 L 165.4,221.2 L 165.0,221.3 L 164.4,221.5 L 163.2,221.8 L 162.6,222.0 L 162.3,222.1 L 161.9,222.2 L 161.5,222.0 L 161.1,222.1 L 160.8,222.3 L 160.3,222.3 L 159.9,222.2 L 159.4,222.2 L 158.5,221.8 L 157.3,221.4 L 156.1,220.8 L 155.7,220.6 L 154.4,220.7 L 153.6,220.6 L 153.3,220.5 L 152.9,220.7 L 152.6,221.1 L 152.3,221.3 L 150.9,221.5 L 150.8,221.6 L 150.8,221.9 L 150.4,221.9 L 150.3,221.7 L 150.2,221.5 L 149.8,221.6 L 149.6,221.7 L 149.5,222.0 L 148.6,222.1 L 148.3,222.3 L 147.9,222.8 L 147.3,223.1 L 146.8,223.4 L 146.5,223.9 L 146.1,224.0 L 145.3,224.0 L 145.0,224.3 L 144.4,224.8 L 144.4,225.3 L 144.3,225.9 L 144.3,226.1 L 144.1,226.1 L 144.0,226.1 L 143.8,226.4 L 143.7,226.8 L 143.6,226.8 L 143.4,226.7 L 143.2,226.9 L 143.0,227.3 L 142.2,227.7 L 142.0,227.7 L 141.6,227.5 L 140.5,227.5 L 139.6,227.7 L 139.2,227.9 L 138.7,228.6 L 138.8,229.2 L 139.2,230.0 L 139.2,230.2 L 138.8,230.1 L 138.8,230.7 L 138.8,231.3 L 138.8,232.4 L 138.8,232.9 L 139.2,234.2 L 139.1,235.4 L 139.1,236.3 L 139.1,236.5 L 139.1,237.0 L 138.9,237.2 L 138.7,237.3 L 138.6,237.9 L 138.2,238.1 L 137.9,238.3 L 137.5,238.7 L 137.1,239.0 L 136.7,239.2 L 136.0,239.2 L 136.0,239.2 L 134.7,239.2 L 134.6,238.9 L 133.3,239.2 L 132.7,239.4 L 132.7,239.8 L 132.0,240.0 L 131.8,240.2 L 131.8,240.7 L 132.0,241.3 L 132.3,241.8 L 132.3,242.4 L 132.5,242.5 L 132.5,243.0 L 132.6,243.4 L 132.8,244.0 L 133.1,244.7 L 133.1,245.1 L 133.1,245.1 L 132.9,245.3 L 132.6,245.5 L 132.5,245.7 L 131.4,246.4 L 130.8,246.8 L 130.1,247.7 L 129.9,247.9 L 129.2,247.9 L 128.5,248.1 L 128.2,247.9 L 128.1,248.1 L 128.3,248.9 L 128.2,249.0 L 127.0,249.4 L 126.4,249.5 L 125.2,249.3 L 124.6,249.1 L 124.2,249.0 L 123.7,248.9 L 122.5,248.5 L 122.4,248.5 L 122.4,248.5 L 122.0,248.5 L 121.7,248.4 L 121.6,248.1 L 121.5,248.0 L 120.5,248.1 L 119.8,248.3 L 118.5,248.8 L 117.3,249.3 L 116.6,249.6 L 116.5,250.1 L 116.6,250.3 L 116.6,250.5 L 115.9,251.3 L 115.4,251.6 L 115.0,251.8 L 114.5,252.1 L 114.4,252.1 L 114.2,251.9 L 114.1,251.9 L 113.2,252.7 L 113.1,252.8 L 112.5,252.6 L 112.0,252.5 L 110.9,252.2 L 110.2,252.4 L 109.3,253.2 L 108.8,253.7 L 108.6,253.7 L 108.2,253.5 L 107.4,253.7 L 106.5,253.9 L 105.5,254.3 L 104.9,254.6 L 104.6,255.4 L 104.4,255.5 L 104.1,255.6 L 103.8,256.1 L 103.8,256.4 L 103.8,256.7 L 103.7,256.9 L 103.5,257.0 L 102.6,257.2 L 102.1,257.3 L 101.9,257.4 L 101.7,257.5 L 101.1,257.7 L 100.8,258.0 L 100.6,258.3 L 100.7,258.7 L 100.8,259.1 L 100.6,259.8 L 100.5,260.2 L 100.7,260.6 L 101.1,260.8 L 100.9,261.1 L 100.1,261.4 L 99.8,261.6 L 99.6,261.8 L 98.7,262.4 L 98.4,262.5 L 97.2,262.8 L 96.7,262.6 L 96.3,262.7 L 95.5,263.1 L 95.4,263.5 L 95.1,263.6 L 94.8,263.6 L 94.5,263.2 L 94.4,263.1 L 94.2,262.9 L 93.8,262.9 L 93.4,263.1 L 92.8,263.6 L 92.4,263.7 L 92.1,264.1 L 91.8,263.4 L 91.3,263.4 L 90.5,263.7 L 90.3,264.0 L 89.8,265.3 L 89.9,265.5 L 90.2,265.7 L 90.2,266.2 L 90.3,266.5 L 90.2,266.9 L 90.1,267.1 L 90.4,267.5 L 90.6,268.4 L 90.4,268.7 L 90.3,269.0 L 90.6,269.4 L 90.5,269.6 L 90.1,269.8 L 90.0,270.4 L 90.1,271.1 L 90.2,271.4 L 90.0,271.9 L 89.9,272.3 L 90.0,272.5 L 89.3,272.9 L 89.4,273.2 L 88.9,273.7 L 89.1,274.0 L 89.1,274.1 L 88.5,274.1 L 88.2,274.2 L 88.0,274.4 L 87.9,275.1 L 87.4,275.2 L 87.2,275.3 L 87.0,275.7 L 86.4,275.8 L 85.5,276.1 L 85.4,276.2 L 85.0,277.5 L 84.5,277.6 L 84.4,278.1 L 84.1,278.2 L 84.1,278.4 L 84.1,278.8 L 83.7,279.0 L 83.5,279.4 L 83.4,280.1 L 83.4,281.0 L 83.3,281.1 L 82.9,281.3 L 82.4,281.5 L 81.5,282.0 L 80.2,282.5 L 79.6,282.8 L 79.8,283.5 L 79.9,283.7 L 79.2,284.0 L 79.0,284.1 L 78.5,284.9 L 78.0,286.1 L 77.7,286.6 L 77.3,287.0 L 77.1,287.9 L 76.7,288.0 L 76.2,288.3 L 76.1,288.6 L 76.1,289.1 L 76.0,289.4 L 75.8,289.8 L 75.5,290.1 L 74.2,290.5 L 73.4,290.6 L 73.4,290.1 L 73.0,290.1 L 73.0,290.2 L 72.7,290.2 L 72.6,290.4 L 72.0,290.4 L 70.8,290.3 L 70.0,290.3 L 69.1,290.0 L 68.7,289.4 L 68.6,289.3 L 68.0,289.1 L 67.2,289.0 L 67.1,288.9 L 66.9,288.6 L 66.2,288.6 L 65.8,288.3 L 65.4,288.1 L 65.3,287.8 L 64.6,287.5 L 63.3,287.2 L 62.0,287.1 L 61.3,287.6 L 61.0,287.6 L 60.6,287.7 L 60.7,288.5 L 60.4,288.6 L 60.2,288.4 L 59.9,288.3 L 58.8,288.8 L 58.2,289.3 L 58.2,289.4 L 58.5,289.8 L 58.0,289.9 L 57.1,290.2 L 40.2,262.6 L 40.1,262.5 L 40.2,262.5 L 40.4,262.3 L 40.2,261.9 L 40.0,261.2 L 40.7,261.5 L 40.9,261.6 L 41.1,261.5 L 41.5,261.1 L 41.5,260.4 L 41.4,260.1 L 41.2,260.0 L 41.5,259.3 L 41.5,259.0 L 41.6,258.8 L 41.7,258.8 L 42.0,259.3 L 42.3,259.1 L 42.0,258.4 L 42.3,258.0 L 42.5,257.9 L 43.4,258.8 L 43.9,258.9 L 44.2,258.9 L 44.3,258.7 L 45.5,258.6 L 45.9,259.0 L 46.1,259.1 L 46.5,258.6 L 46.6,258.1 L 46.8,258.1 L 46.9,258.1 L 47.2,257.7 L 47.3,257.1 L 47.5,256.7 L 48.1,256.1 L 48.2,255.6 L 48.6,255.3 L 49.0,254.6 L 49.4,254.3 L 49.5,254.1 L 49.6,254.1 L 50.1,253.6 L 50.3,253.2 L 50.6,252.9 L 51.1,252.8 L 51.7,252.8 L 52.0,252.8 L 52.3,252.6 L 52.4,252.3 L 52.5,252.2 L 52.5,252.2 L 52.7,252.2 L 52.8,252.4 L 53.4,252.5 L 53.8,252.5 L 54.2,252.9 L 54.2,253.1 L 54.1,253.2 L 54.3,253.5 L 55.4,252.8 L 55.7,252.4 L 55.6,252.2 L 56.1,252.1 L 57.3,252.0 L 58.1,251.5 L 58.8,251.4 L 59.1,251.3 L 59.5,251.2 L 59.6,251.0 L 59.6,250.9 L 59.4,250.6 L 59.4,250.2 L 59.8,250.0 L 60.1,249.8 L 60.5,249.7 L 60.8,249.9 L 61.1,249.8 L 61.3,250.0 L 61.5,249.9 L 61.8,249.7 L 61.9,249.5 L 61.9,248.9 L 61.7,248.0 L 61.7,247.6 L 61.8,247.3 L 62.4,246.8 L 63.0,246.2 L 63.5,246.1 L 64.1,245.6 L 64.6,245.4 L 65.3,246.4 L 65.9,246.8 L 66.5,246.9 L 66.9,246.9 L 67.1,247.2 L 67.4,247.1 L 67.9,246.8 L 68.2,246.8 L 68.4,246.8 L 68.5,246.7 L 68.4,246.4 L 68.7,246.1 L 68.9,245.7 L 68.7,245.6 L 68.9,244.6 L 68.8,244.2 L 68.8,243.8 L 69.1,243.7 L 69.1,243.1 L 69.5,242.7 L 69.5,241.7 L 69.9,241.5 L 70.0,241.1 L 70.5,240.9 L 70.6,240.7 L 70.6,240.2 L 70.4,239.9 L 70.6,239.7 L 71.4,239.2 L 71.9,238.6 L 72.3,237.7 L 72.5,236.9 L 72.7,235.7 L 73.2,234.8 L 73.8,233.7 L 74.5,233.1 L 74.6,232.8 L 74.4,231.5 L 74.5,230.4 L 74.7,229.7 L 75.2,228.5 L 75.6,227.6 L 75.8,227.3 L 76.5,226.7 L 76.8,227.0 L 77.3,226.9 L 77.3,226.7 L 77.7,226.5 L 78.1,226.8 L 79.0,227.5 L 79.2,227.6 L 79.5,227.3 L 79.6,226.5 L 80.2,225.7 L 80.3,225.4 L 80.8,224.9 L 81.0,224.6 L 81.5,224.7 L 82.1,224.2 L 82.6,223.4 L 83.0,223.1 L 83.7,222.8 L 84.2,222.6 L 84.8,221.8 L 85.2,221.9 L 85.5,221.5 L 85.5,220.9 L 85.6,220.6 L 86.3,220.3 L 86.4,219.9 L 86.5,219.7 L 87.0,219.5 L 88.3,219.2 L 89.2,218.7 L 89.6,219.0 L 90.4,219.5 L 90.6,219.5 L 90.9,219.3 L 91.2,219.5 L 91.5,219.8 L 92.0,220.1 L 92.5,221.1 L 93.2,221.6 L 93.4,221.6 L 94.0,221.6 L 94.3,221.5 L 95.0,220.7 L 95.5,220.0 L 96.1,219.3 L 96.4,219.3 L 96.9,219.5 L 97.1,220.0 L 97.4,220.3 L 98.4,221.2 L 99.4,221.7 L 99.9,221.8 L 100.7,221.7 L 101.6,221.5 L 101.7,220.5 L 101.8,220.3 L 102.1,220.2 L 102.5,220.4 L 103.0,220.4 L 103.4,220.2 L 103.9,219.7 L 104.0,219.7 L 104.3,219.8 L 104.6,219.5 L 105.1,219.0 L 105.2,218.6 L 105.1,218.1 L 104.8,217.5 L 105.1,216.6 L 105.8,215.5 L 105.9,215.4 L 106.4,215.3 L 106.7,215.0 L 107.1,214.5 L 107.4,214.3 L 107.8,213.9 L 108.2,213.6 L 108.5,213.4 L 109.0,213.5 L 109.7,213.7 L 110.0,214.0 L 110.5,214.2 L 110.8,214.2 L 111.3,214.4 L 112.5,214.5 L 112.8,214.5 L 113.8,214.2 L 114.1,214.1 L 114.5,214.3 L 114.9,214.6 L 115.6,214.4 L 115.7,214.6 L 115.7,215.2 L 115.9,215.3 L 116.4,215.6 L 116.9,216.5 L 117.3,216.6 L 117.6,216.7 L 118.1,216.9 L 118.6,216.9 L 119.0,216.7 L 119.4,216.2 L 119.5,215.8 L 119.6,215.6 L 120.0,215.3 L 120.1,214.9 L 120.3,214.8 L 120.8,215.4 L 121.0,215.3 L 121.7,214.8 L 122.1,214.4 L 122.1,213.8 L 122.1,212.5 L 122.1,212.3 L 123.1,212.0 L 123.1,211.6 L 123.5,211.3 L 123.9,211.2 L 124.3,210.8 L 124.6,210.4 L 124.8,209.1 L 124.7,207.9 L 124.8,207.5 L 125.2,206.7 L 125.6,206.5 L 126.4,206.1 L 126.8,205.8 L 127.2,205.7 L 127.5,205.5 L 127.7,205.2 L 128.5,205.0 L 128.8,205.2 L 128.8,205.4 L 128.7,205.9 L 129.0,206.2 L 129.3,206.5 L 129.6,206.5 L 130.2,206.1 L 130.6,205.2 L 130.3,205.1 L 130.3,205.0 L 130.5,205.0 L 131.0,204.8 L 131.4,204.5 L 131.7,204.2 L 132.1,204.0 L 132.2,203.7 L 132.2,203.6 L 132.1,203.3 L 132.2,203.1 L 132.5,202.7 L 132.9,202.6 L 133.0,201.9 L 133.4,201.4 L 134.4,200.8 L 134.1,200.2 L 132.8,200.0 L 132.3,199.8 L 132.2,199.7 L 132.3,199.2 L 132.3,199.2 L 132.4,198.6 L 132.6,198.3 L 133.0,198.2 L 133.2,198.3 L 133.8,198.6 L 134.5,198.4 L 134.7,198.7 L 135.7,199.1 L 136.0,199.1 L 136.4,199.2 L 136.8,199.1 L 137.5,198.8 L 137.7,198.7 L 138.2,198.3 L 138.2,197.8 L 138.2,197.3 L 138.3,197.1 L 138.5,197.0 L 139.2,197.2 L 139.8,196.8 L 139.9,196.7 L 140.0,196.6 L 141.0,197.1 L 141.3,197.1 L 141.6,196.9 L 141.9,197.4 L 142.2,197.5 L 142.5,197.4 L 142.7,197.2 L 143.1,197.1 L 144.0,196.7 L 144.1,196.6 L 144.2,196.2 L 144.6,195.1 L 144.8,194.2 L 144.7,193.5 L 144.5,192.5 L 144.9,192.0 L 145.0,191.5 L 145.1,191.4" fill="none" stroke="black" stroke-width="2"/>
</svg>