<?xml version="1.0" encoding="UTF-8"?>
<svg width="400" height="400" viewBox="0 0 400 400" xmlns="http://www.w3.org/2000/svg">
  <rect width="400" height="400" fill="white"/>
  <path d="M 88.2,300.3 L 88.6,300.0 L 89.7,297.4 L 91.0,296.6 L 92.8,291.5 L 93.3,290.1 L 94.8,288.4 L 93.9,286.5 L 94.4,285.8 L 97.1,285.1 L 99.2,283.0 L 99.3,281.7 L 98.2,277.3 L 96.2,271.8 L 95.1,268.4 L 95.6,266.7 L 96.5,265.2 L 96.4,262.1 L 95.4,260.6 L 95.0,254.7 L 93.7,251.6 L 93.3,249.7 L 92.7,248.2 L 93.1,247.4 L 93.9,246.5 L 93.9,245.2 L 92.7,241.5 L 91.9,239.2 L 89.6,235.8 L 89.6,234.3 L 87.4,228.8 L 87.4,226.7 L 87.4,224.7 L 86.6,218.8 L 86.9,216.6 L 87.9,215.2 L 89.4,214.6 L 90.3,214.9 L 91.7,216.9 L 93.0,218.3 L 94.7,218.8 L 95.9,218.5 L 96.7,217.6 L 96.2,216.0 L 95.3,213.4 L 95.3,211.7 L 96.4,210.4 L 100.9,208.0 L 102.3,207.2 L 102.9,205.5 L 104.0,201.5 L 104.3,199.9 L 104.3,194.7 L 105.5,193.3 L 105.3,191.1 L 104.4,189.1 L 102.7,187.4 L 101.5,186.9 L 99.2,186.9 L 97.6,185.8 L 95.6,183.2 L 95.3,181.1 L 95.4,175.0 L 95.1,172.5 L 94.7,169.1 L 95.1,164.3 L 94.4,163.0 L 89.3,159.4 L 88.5,157.5 L 87.9,154.5 L 89.0,152.4 L 90.8,150.1 L 91.9,149.8 L 93.7,149.8 L 94.7,149.2 L 95.0,147.2 L 94.4,143.5 L 92.4,137.6 L 92.7,134.8 L 92.7,130.0 L 90.8,124.1 L 89.6,119.5 L 87.4,113.9 L 87.4,112.4 L 88.6,110.7 L 92.0,107.4 L 95.3,102.5 L 97.8,99.7 L 101.0,97.8 L 105.3,96.3 L 111.2,95.1 L 115.6,94.8 L 116.2,95.7 L 114.5,98.8 L 117.6,100.0 L 121.6,101.9 L 120.5,104.0 L 126.7,109.4 L 126.1,112.5 L 123.4,114.9 L 118.8,117.5 L 118.6,118.6 L 119.4,120.3 L 122.4,122.6 L 125.9,124.4 L 129.3,127.8 L 134.4,130.9 L 136.0,133.0 L 138.0,137.7 L 139.4,142.2 L 140.6,144.9 L 140.9,146.9 L 140.3,148.7 L 138.4,151.2 L 136.9,152.9 L 136.4,155.5 L 136.9,159.4 L 138.1,162.8 L 138.9,163.3 L 140.1,163.3 L 140.9,164.7 L 142.8,167.4 L 144.5,169.0 L 147.4,169.9 L 153.4,170.5 L 155.5,170.4 L 156.7,169.1 L 162.3,171.3 L 166.7,171.8 L 167.1,169.8 L 170.0,170.2 L 171.7,169.8 L 171.9,169.0 L 171.1,167.9 L 171.7,162.5 L 171.5,160.3 L 170.5,159.6 L 168.3,158.8 L 166.9,157.1 L 163.5,152.1 L 161.6,149.5 L 163.0,147.6 L 162.6,144.1 L 160.7,140.8 L 159.3,137.9 L 158.2,134.8 L 157.8,133.6 L 157.5,132.2 L 156.5,131.6 L 154.7,131.4 L 153.3,129.2 L 149.9,124.3 L 149.0,121.7 L 150.4,121.7 L 150.8,122.7 L 152.7,125.5 L 153.4,126.1 L 153.6,125.2 L 153.6,124.4 L 154.4,124.3 L 154.8,124.4 L 156.4,123.7 L 160.6,123.2 L 164.7,123.2 L 166.0,122.4 L 166.0,121.7 L 164.9,121.4 L 159.0,121.2 L 158.2,121.0 L 157.2,119.0 L 157.3,115.0 L 156.7,115.2 L 155.8,117.0 L 153.4,116.9 L 151.3,117.8 L 147.6,117.5 L 148.0,115.0 L 147.9,113.9 L 147.4,113.5 L 147.9,112.5 L 149.3,111.8 L 150.0,112.1 L 151.0,113.0 L 153.6,113.0 L 153.9,112.2 L 154.5,111.6 L 156.4,111.0 L 162.4,111.1 L 168.8,110.7 L 169.4,111.1 L 168.9,112.4 L 168.8,113.5 L 172.8,118.0 L 173.9,120.1 L 173.6,121.8 L 171.2,122.7 L 169.8,123.8 L 170.3,124.8 L 173.6,125.2 L 177.0,128.5 L 179.1,130.8 L 179.9,130.8 L 178.8,125.7 L 177.1,122.6 L 177.6,121.2 L 180.2,118.3 L 181.3,114.4 L 181.3,112.8 L 181.0,111.8 L 182.7,106.7 L 183.6,104.3 L 184.5,101.9 L 186.2,100.2 L 187.2,99.1 L 187.5,97.4 L 185.2,92.7 L 182.4,89.5 L 182.2,87.6 L 183.3,84.1 L 184.7,82.5 L 186.1,81.9 L 189.9,82.8 L 192.1,83.5 L 193.0,82.8 L 193.0,81.9 L 191.0,76.2 L 190.4,74.0 L 188.9,72.2 L 186.1,70.0 L 183.0,65.4 L 182.5,63.0 L 183.0,61.3 L 184.5,58.6 L 187.6,56.1 L 191.2,53.8 L 194.9,52.4 L 200.3,51.6 L 204.0,52.1 L 207.3,53.0 L 209.1,54.5 L 211.6,57.6 L 213.0,57.8 L 214.8,57.6 L 218.7,58.3 L 222.0,57.9 L 222.9,58.9 L 225.7,64.0 L 225.5,65.2 L 221.5,69.2 L 215.9,67.4 L 215.5,66.0 L 214.4,65.8 L 214.4,67.4 L 215.0,68.9 L 222.4,70.9 L 227.4,65.8 L 227.8,66.4 L 230.9,68.5 L 232.3,68.5 L 232.3,67.7 L 231.1,65.2 L 231.4,64.0 L 232.5,63.2 L 233.3,63.7 L 235.3,65.5 L 237.4,66.1 L 239.3,66.1 L 242.1,65.2 L 242.8,64.0 L 243.0,61.7 L 242.5,58.4 L 241.9,55.2 L 242.4,54.7 L 243.9,54.8 L 245.3,55.6 L 246.7,56.9 L 247.8,56.9 L 249.0,56.1 L 249.0,54.8 L 247.8,49.9 L 246.4,47.1 L 246.6,44.9 L 247.8,43.7 L 250.3,42.3 L 255.4,40.9 L 261.1,40.3 L 267.3,40.0 L 273.2,41.1 L 279.0,42.8 L 285.2,44.2 L 290.9,45.7 L 296.7,47.7 L 301.0,49.7 L 306.4,52.5 L 308.4,54.2 L 308.9,55.9 L 309.0,59.6 L 310.3,61.8 L 312.8,65.1 L 314.5,67.8 L 315.5,69.9 L 316.2,76.0 L 315.8,78.2 L 314.6,80.1 L 312.3,82.4 L 312.1,84.1 L 313.2,86.9 L 311.2,90.6 L 311.8,94.3 L 311.2,96.5 L 309.3,100.5 L 308.1,104.5 L 305.9,110.2 L 304.2,111.5 L 302.1,112.8 L 301.2,114.4 L 299.9,120.3 L 299.8,122.9 L 300.8,121.8 L 301.5,121.8 L 303.3,125.8 L 304.4,126.5 L 306.6,130.2 L 308.9,132.6 L 312.0,134.7 L 314.3,135.3 L 317.1,135.1 L 319.7,136.0 L 321.3,137.3 L 323.3,139.9 L 324.3,140.8 L 328.4,143.2 L 330.1,144.1 L 333.9,144.7 L 340.0,144.9 L 345.4,145.0 L 346.2,143.9 L 347.5,144.1 L 349.9,184.6 L 349.9,184.8 L 349.1,184.9 L 347.1,186.5 L 342.3,190.2 L 339.8,193.0 L 336.9,197.0 L 333.5,201.8 L 331.8,204.9 L 327.3,205.3 L 326.8,206.7 L 327.0,208.0 L 327.4,207.5 L 328.5,205.8 L 329.8,206.7 L 328.7,209.7 L 327.0,210.0 L 326.5,211.2 L 325.3,210.0 L 324.5,210.3 L 324.0,209.5 L 324.2,207.7 L 324.3,204.7 L 324.0,204.3 L 323.3,205.0 L 321.9,210.6 L 322.0,213.2 L 322.8,217.6 L 321.4,220.3 L 320.8,223.4 L 321.1,226.2 L 321.6,228.4 L 320.8,234.3 L 319.7,240.0 L 318.6,245.2 L 318.8,247.2 L 319.6,247.2 L 320.3,245.4 L 321.3,245.4 L 321.7,244.5 L 322.0,241.4 L 322.8,240.6 L 323.6,240.1 L 325.7,235.2 L 326.7,235.8 L 327.8,238.3 L 328.7,243.8 L 328.4,248.5 L 327.3,254.4 L 326.5,257.1 L 325.9,257.3 L 324.7,256.2 L 323.0,252.7 L 322.0,252.2 L 320.8,252.7 L 316.6,255.3 L 315.4,258.8 L 314.3,264.7 L 312.9,270.4 L 310.6,275.9 L 308.9,281.7 L 306.1,287.3 L 303.3,292.7 L 301.2,298.3 L 298.4,303.7 L 295.0,308.7 L 294.0,310.8 L 294.5,311.4 L 295.1,312.5 L 295.0,313.3 L 293.7,315.3 L 291.6,321.0 L 290.8,324.7 L 291.1,326.4 L 292.6,327.7 L 293.7,327.5 L 294.7,327.1 L 295.6,324.9 L 296.4,325.2 L 297.7,327.1 L 298.8,330.5 L 300.2,336.3 L 301.3,339.1 L 303.8,342.4 L 304.2,343.9 L 303.9,344.2 L 301.9,343.3 L 301.0,343.8 L 299.0,346.1 L 299.1,346.5 L 295.9,346.4 L 266.8,345.5 L 264.0,342.5 L 263.1,340.8 L 262.6,338.5 L 262.3,336.0 L 260.8,334.2 L 259.9,332.9 L 259.4,328.3 L 258.9,326.9 L 256.5,326.7 L 255.7,325.8 L 255.1,325.0 L 254.1,325.0 L 252.3,326.4 L 250.4,328.1 L 247.9,328.6 L 245.8,329.4 L 242.7,331.9 L 242.1,333.6 L 242.8,337.1 L 245.0,342.7 L 244.7,343.8 L 242.5,344.8 L 240.8,347.3 L 236.8,349.0 L 231.9,347.9 L 230.5,348.1 L 229.2,349.5 L 228.9,350.6 L 228.3,351.6 L 228.0,352.6 L 226.4,353.2 L 225.5,353.8 L 224.4,356.4 L 223.8,356.9 L 222.6,358.1 L 221.7,360.0 L 219.8,359.7 L 59.9,329.1 L 60.0,328.8 L 60.5,326.0 L 60.6,321.2 L 59.9,319.2 L 56.8,314.1 L 54.3,312.5 L 52.5,309.9 L 50.3,308.2 L 50.1,307.1 L 51.2,305.9 L 53.2,304.9 L 55.1,304.9 L 58.6,306.3 L 62.3,308.8 L 64.8,310.8 L 68.1,312.2 L 68.8,312.1 L 70.5,310.5 L 72.4,310.5 L 74.7,308.2 L 77.2,308.0 L 78.0,307.1 L 78.3,304.2 L 76.3,298.4 L 76.1,297.1 L 76.6,296.3 L 78.9,294.9 L 80.3,296.1 L 81.1,295.8 L 84.0,292.1 L 85.2,291.6 L 85.1,292.1 L 84.9,294.0 L 86.9,298.9 L 88.2,300.3" fill="none" stroke="black" stroke-width="2"/>
</svg>