<?xml version="1.0" encoding="UTF-8"?>
<svg width="400" height="400" viewBox="0 0 400 400" xmlns="http://www.w3.org/2000/svg">
  <rect width="400" height="400" fill="white"/>
  <path d="M 109.6,314.3 L 109.2,312.9 L 109.4,310.7 L 116.7,304.8 L 117.9,302.9 L 117.9,301.0 L 116.7,299.8 L 111.8,298.4 L 110.3,296.8 L 110.1,294.4 L 111.5,292.0 L 115.8,287.0 L 115.8,285.6 L 113.7,282.8 L 113.4,280.9 L 111.8,278.3 L 110.6,277.3 L 108.2,276.2 L 106.3,273.5 L 106.3,272.6 L 108.2,271.9 L 117.0,271.2 L 122.9,268.8 L 125.3,266.4 L 128.1,261.5 L 130.2,261.0 L 134.3,262.4 L 134.7,262.6 L 137.4,265.0 L 138.1,268.3 L 138.5,274.3 L 140.0,276.9 L 142.1,278.5 L 145.6,279.2 L 154.4,279.2 L 160.8,278.5 L 165.1,279.9 L 169.8,282.5 L 171.5,285.2 L 174.1,289.4 L 176.9,292.0 L 178.6,292.5 L 181.9,291.3 L 185.9,288.2 L 186.9,285.9 L 187.3,284.0 L 187.1,281.1 L 185.0,279.5 L 181.6,278.5 L 177.1,277.3 L 172.2,274.5 L 170.7,270.5 L 168.6,263.6 L 164.6,259.1 L 160.6,257.0 L 155.1,254.1 L 147.1,248.7 L 139.2,243.5 L 135.0,240.9 L 129.5,238.3 L 127.6,235.9 L 126.9,234.5 L 127.9,233.0 L 124.3,224.3 L 122.7,221.2 L 118.6,218.8 L 115.6,211.5 L 115.8,208.6 L 117.0,205.6 L 121.2,199.2 L 123.4,199.2 L 131.2,199.6 L 133.1,198.5 L 135.0,195.6 L 135.0,194.0 L 131.7,191.8 L 125.5,189.0 L 123.8,189.2 L 120.5,190.9 L 118.4,190.2 L 114.8,188.0 L 113.9,185.2 L 112.7,180.9 L 109.9,173.6 L 104.4,166.5 L 100.2,158.7 L 97.8,154.2 L 98.5,154.2 L 103.7,155.6 L 107.5,156.1 L 113.4,151.3 L 118.9,146.8 L 122.2,145.2 L 125.7,141.9 L 128.8,136.4 L 130.0,133.3 L 129.1,131.7 L 124.1,127.4 L 122.9,125.0 L 122.9,121.5 L 119.6,116.3 L 116.3,112.5 L 114.8,108.7 L 114.6,104.7 L 116.7,100.4 L 121.2,93.8 L 122.0,89.5 L 121.5,81.0 L 122.4,73.4 L 124.3,66.8 L 124.8,59.9 L 122.4,52.3 L 122.9,50.9 L 125.7,50.2 L 126.9,50.7 L 131.7,57.3 L 135.5,62.3 L 137.6,63.7 L 141.6,63.7 L 144.7,64.2 L 148.2,65.1 L 149.7,64.2 L 150.1,62.5 L 149.7,59.9 L 147.8,56.1 L 144.0,52.1 L 136.6,46.4 L 136.2,45.2 L 140.0,43.6 L 148.5,40.5 L 153.2,40.0 L 160.3,41.2 L 161.3,42.1 L 160.8,47.6 L 168.6,51.4 L 173.1,55.2 L 179.0,62.0 L 184.0,70.1 L 185.2,70.8 L 190.6,72.2 L 189.0,72.9 L 182.6,72.9 L 181.2,73.2 L 180.7,75.1 L 175.7,78.1 L 176.4,78.6 L 182.1,77.4 L 184.5,80.7 L 183.1,86.0 L 180.2,91.2 L 178.3,100.4 L 176.2,108.9 L 175.2,111.5 L 173.1,114.1 L 169.3,116.0 L 164.4,116.7 L 162.0,117.2 L 160.1,118.4 L 157.7,121.7 L 153.5,124.6 L 151.8,127.2 L 152.0,130.5 L 153.2,133.6 L 157.2,139.0 L 165.1,143.3 L 173.4,147.3 L 180.5,150.4 L 189.2,153.5 L 195.1,155.1 L 201.1,156.5 L 210.3,158.7 L 219.1,162.2 L 227.8,165.8 L 236.6,168.4 L 245.6,170.7 L 254.4,173.6 L 263.1,177.1 L 271.9,180.7 L 276.6,181.9 L 280.9,183.8 L 281.6,184.5 L 280.9,185.2 L 271.9,185.2 L 262.4,184.0 L 253.2,183.1 L 243.9,183.1 L 240.6,181.4 L 236.8,177.9 L 233.8,173.6 L 230.0,171.2 L 227.4,170.5 L 224.5,171.2 L 221.7,173.6 L 219.5,175.7 L 216.7,175.5 L 212.4,175.7 L 207.5,176.9 L 201.3,180.0 L 200.4,181.6 L 200.8,184.0 L 203.0,185.9 L 206.5,187.1 L 210.3,187.3 L 213.1,186.1 L 215.0,185.2 L 217.4,185.9 L 219.1,187.3 L 221.9,192.1 L 221.4,193.5 L 219.8,196.8 L 219.8,202.0 L 217.9,204.1 L 213.6,205.6 L 205.1,207.5 L 203.4,207.2 L 201.8,205.6 L 199.9,205.3 L 196.3,207.2 L 189.7,212.2 L 184.0,219.3 L 180.9,223.8 L 179.7,228.5 L 179.3,234.7 L 180.2,238.0 L 183.5,243.7 L 185.0,250.3 L 187.6,255.8 L 189.9,257.2 L 199.2,258.6 L 204.1,258.9 L 209.1,258.6 L 211.3,259.8 L 214.1,263.8 L 216.2,266.7 L 220.5,268.6 L 223.8,270.0 L 226.6,273.1 L 228.1,275.7 L 230.7,275.7 L 239.0,272.1 L 245.1,270.5 L 249.4,270.5 L 255.5,271.4 L 265.0,270.0 L 274.3,270.0 L 283.5,268.8 L 286.3,269.3 L 288.0,271.9 L 288.9,273.3 L 288.7,275.2 L 293.0,274.7 L 297.2,274.5 L 301.0,275.7 L 302.4,278.5 L 303.2,283.0 L 304.3,286.8 L 304.3,292.3 L 303.4,294.4 L 300.8,296.8 L 298.2,298.4 L 294.4,303.2 L 293.0,304.8 L 291.3,304.3 L 289.7,302.4 L 287.0,297.7 L 286.3,297.5 L 283.5,297.9 L 280.9,299.8 L 279.9,304.8 L 277.8,306.7 L 272.1,310.3 L 268.3,314.0 L 266.0,317.1 L 266.2,320.0 L 267.6,323.8 L 269.3,324.9 L 275.7,325.2 L 279.2,323.8 L 284.7,320.0 L 286.1,319.7 L 287.5,320.9 L 288.2,323.0 L 287.0,327.5 L 286.3,329.9 L 284.9,335.6 L 285.2,337.5 L 287.3,339.6 L 290.4,342.0 L 291.3,344.4 L 291.3,346.5 L 289.7,349.8 L 286.1,353.8 L 281.4,357.2 L 280.9,357.4 L 275.9,360.0 L 271.7,358.3 L 263.1,354.3 L 257.9,352.9 L 255.5,353.4 L 252.7,355.5 L 251.0,357.2 L 249.6,357.2 L 245.8,354.1 L 239.9,355.3 L 235.2,355.3 L 233.5,354.3 L 232.8,355.5 L 232.1,357.6 L 229.0,357.9 L 223.1,357.9 L 221.0,356.4 L 218.4,353.8 L 215.3,353.6 L 211.0,353.4 L 207.9,351.5 L 206.0,349.1 L 206.0,346.7 L 206.8,342.9 L 205.6,338.0 L 203.7,336.6 L 197.7,333.9 L 188.5,332.1 L 179.5,329.4 L 174.3,328.3 L 171.0,329.4 L 162.7,333.5 L 156.3,336.1 L 154.9,338.4 L 154.6,341.5 L 156.3,345.6 L 158.9,348.4 L 95.7,329.0 L 103.2,327.5 L 106.3,325.9 L 109.9,321.6 L 110.6,318.3 L 109.6,314.3" fill="none" stroke="black" stroke-width="2"/>
</svg>