<?xml version="1.0" encoding="UTF-8"?>
<svg width="400" height="400" viewBox="0 0 400 400" xmlns="http://www.w3.org/2000/svg">
  <rect width="400" height="400" fill="white"/>
  <path d="M 41.8,255.1 L 42.8,255.5 L 45.0,256.9 L 45.7,258.0 L 45.6,261.3 L 46.2,263.0 L 48.1,266.0 L 49.6,268.0 L 51.7,271.7 L 52.7,272.9 L 54.4,273.7 L 55.7,273.8 L 58.0,273.2 L 58.3,272.6 L 58.0,271.4 L 57.0,270.0 L 55.4,269.1 L 51.8,267.1 L 49.7,265.3 L 48.7,263.5 L 47.1,260.2 L 47.1,259.1 L 47.6,258.8 L 50.7,258.5 L 51.9,257.7 L 52.6,256.3 L 52.6,255.2 L 51.8,252.2 L 51.6,251.4 L 51.8,250.6 L 52.3,249.9 L 53.4,248.8 L 53.4,248.2 L 54.8,247.8 L 55.5,248.4 L 56.2,248.1 L 58.6,250.4 L 59.9,251.4 L 61.1,252.0 L 62.2,253.3 L 63.3,254.6 L 64.4,255.5 L 66.6,258.0 L 69.7,261.1 L 70.7,261.1 L 71.6,260.3 L 72.8,258.1 L 74.4,254.3 L 74.7,252.3 L 74.6,250.1 L 74.1,249.6 L 73.5,249.3 L 73.7,248.9 L 77.0,246.7 L 77.1,247.1 L 76.5,247.8 L 75.7,248.5 L 75.9,248.7 L 76.9,248.6 L 77.3,248.2 L 77.9,247.3 L 78.9,246.8 L 79.0,247.3 L 78.4,248.0 L 78.9,248.2 L 81.4,246.7 L 83.1,246.8 L 84.8,246.3 L 86.2,245.7 L 86.8,246.5 L 87.0,244.9 L 88.2,244.7 L 88.4,244.0 L 88.1,243.0 L 86.9,241.0 L 87.1,240.6 L 89.5,239.1 L 91.3,237.0 L 92.0,236.3 L 92.0,235.2 L 91.4,234.3 L 90.6,233.2 L 89.9,230.3 L 88.2,226.4 L 86.5,222.7 L 84.8,219.2 L 83.2,217.5 L 81.5,216.6 L 80.9,215.4 L 80.2,211.3 L 79.4,209.9 L 76.7,206.8 L 75.1,204.8 L 73.8,202.6 L 73.6,201.2 L 75.0,199.6 L 74.9,198.2 L 74.4,195.0 L 74.3,193.2 L 73.5,191.0 L 71.8,188.7 L 71.3,188.3 L 70.5,188.6 L 69.9,189.7 L 69.3,190.3 L 68.6,189.5 L 68.5,188.5 L 69.3,184.8 L 70.0,184.4 L 71.1,184.5 L 73.3,185.6 L 76.8,187.9 L 79.8,190.5 L 81.5,191.0 L 82.4,191.1 L 84.5,193.8 L 88.0,196.1 L 91.0,198.9 L 92.7,199.8 L 94.3,199.9 L 95.0,199.1 L 95.4,198.2 L 95.1,197.2 L 94.6,196.0 L 94.8,194.2 L 95.2,193.1 L 95.6,193.0 L 97.3,195.5 L 98.1,195.7 L 98.6,195.3 L 98.7,194.0 L 98.7,192.4 L 98.5,191.7 L 97.7,190.1 L 97.8,189.3 L 98.3,187.9 L 97.9,185.0 L 97.3,183.8 L 95.3,181.1 L 94.8,176.8 L 94.2,175.8 L 93.8,174.9 L 95.0,171.6 L 95.9,171.6 L 96.3,172.7 L 97.7,172.2 L 98.9,172.4 L 102.0,174.3 L 103.5,175.4 L 105.8,178.9 L 107.0,181.1 L 108.1,184.4 L 108.5,185.7 L 108.6,188.7 L 109.4,189.9 L 110.1,190.5 L 112.2,191.2 L 112.9,191.9 L 113.6,193.5 L 114.8,193.9 L 116.1,194.0 L 116.2,193.0 L 116.4,191.2 L 117.1,189.7 L 118.9,187.7 L 121.8,187.7 L 123.6,187.3 L 124.7,187.8 L 125.7,188.6 L 125.7,189.2 L 124.4,193.2 L 124.8,194.0 L 126.5,195.6 L 127.0,197.2 L 127.8,197.8 L 129.9,199.1 L 131.6,200.1 L 132.3,200.2 L 133.1,201.0 L 133.5,201.0 L 133.7,200.0 L 134.0,198.1 L 134.5,197.1 L 134.8,196.5 L 136.1,198.1 L 137.3,198.3 L 141.1,197.9 L 144.5,195.2 L 147.1,192.6 L 149.8,190.4 L 151.2,190.6 L 152.0,190.3 L 152.9,189.4 L 153.8,187.8 L 153.9,185.3 L 154.9,181.8 L 155.0,181.3 L 155.1,180.2 L 155.4,180.0 L 156.6,180.2 L 157.8,181.1 L 160.6,182.7 L 164.5,182.4 L 167.5,182.7 L 169.9,181.9 L 171.7,180.4 L 171.9,179.5 L 172.1,176.5 L 172.6,174.8 L 172.6,172.3 L 171.7,170.9 L 168.9,167.7 L 168.0,165.9 L 167.7,164.3 L 168.2,162.8 L 168.8,162.1 L 170.2,162.2 L 171.7,162.1 L 175.3,161.0 L 176.2,159.6 L 176.4,158.8 L 175.9,158.0 L 174.9,156.7 L 174.9,155.8 L 175.9,154.6 L 177.2,154.0 L 179.0,153.3 L 179.2,152.6 L 178.8,151.4 L 177.7,150.1 L 175.2,148.3 L 175.2,147.5 L 176.1,146.5 L 177.4,145.8 L 178.6,145.8 L 182.7,146.4 L 186.3,147.5 L 187.6,147.8 L 188.4,147.7 L 189.2,147.1 L 190.1,146.7 L 191.4,145.8 L 192.2,145.9 L 193.0,146.4 L 194.3,146.8 L 194.8,147.5 L 195.7,147.3 L 196.4,147.0 L 197.9,147.5 L 200.3,148.8 L 202.1,149.8 L 203.5,149.7 L 206.2,148.7 L 206.3,148.4 L 205.5,147.8 L 204.1,146.8 L 202.9,143.7 L 202.1,143.4 L 198.4,141.9 L 196.4,140.5 L 193.9,137.6 L 193.8,136.6 L 194.3,135.6 L 194.9,134.8 L 196.1,134.8 L 197.7,135.4 L 200.2,137.0 L 202.5,137.4 L 203.9,139.2 L 207.6,140.9 L 211.6,142.2 L 215.4,143.4 L 216.5,143.1 L 217.8,142.3 L 217.8,141.3 L 216.9,139.4 L 217.3,138.3 L 218.2,137.4 L 221.1,136.0 L 222.4,134.9 L 222.8,133.2 L 223.1,130.9 L 223.9,128.0 L 223.8,126.6 L 223.6,125.0 L 223.6,123.5 L 223.1,122.6 L 221.3,120.8 L 220.7,118.9 L 220.8,116.5 L 221.4,112.3 L 221.9,109.6 L 221.8,105.5 L 221.8,102.2 L 222.3,98.1 L 223.1,95.4 L 224.1,93.2 L 226.6,90.1 L 229.0,87.7 L 229.6,87.8 L 230.9,88.5 L 231.7,88.4 L 232.2,87.4 L 232.0,86.9 L 231.2,86.3 L 231.2,86.0 L 231.9,85.6 L 232.0,84.9 L 230.5,80.8 L 228.4,77.1 L 226.3,73.8 L 224.8,70.7 L 224.1,68.6 L 225.7,65.8 L 226.4,62.6 L 226.3,58.7 L 224.9,55.5 L 224.7,53.9 L 225.4,52.7 L 226.3,52.2 L 227.5,52.3 L 231.3,54.4 L 235.1,56.3 L 239.3,57.2 L 240.8,57.5 L 244.6,59.6 L 245.4,59.6 L 245.6,60.6 L 246.8,60.8 L 246.4,59.7 L 246.4,58.8 L 247.3,58.8 L 248.2,59.9 L 249.7,60.0 L 248.9,58.7 L 249.3,58.1 L 250.1,58.2 L 252.4,59.5 L 254.3,59.4 L 255.3,58.9 L 257.4,58.6 L 258.0,58.5 L 259.4,59.2 L 259.1,59.7 L 256.0,62.5 L 253.0,65.8 L 252.8,67.0 L 253.3,68.5 L 254.1,70.5 L 254.1,73.0 L 254.0,74.2 L 254.7,75.7 L 254.1,78.4 L 254.7,79.5 L 256.2,80.6 L 256.7,81.5 L 259.5,82.1 L 262.7,82.3 L 266.1,81.9 L 269.1,82.3 L 271.9,83.5 L 273.7,85.0 L 275.6,87.7 L 276.2,90.4 L 276.4,94.7 L 277.2,96.2 L 278.4,97.4 L 281.7,99.2 L 285.7,100.6 L 288.7,101.6 L 292.6,103.3 L 293.3,104.2 L 293.2,105.1 L 291.9,106.0 L 289.5,106.3 L 286.7,106.5 L 284.1,106.8 L 282.3,107.2 L 281.3,107.7 L 280.2,107.3 L 279.8,107.6 L 280.0,108.2 L 280.8,109.5 L 280.2,110.9 L 279.2,112.1 L 277.5,113.4 L 277.6,114.2 L 277.9,114.7 L 280.2,116.1 L 280.9,117.1 L 283.0,117.9 L 285.8,118.1 L 287.3,118.6 L 287.9,119.4 L 287.8,120.0 L 287.4,121.0 L 285.6,121.9 L 285.6,123.4 L 285.3,124.9 L 285.6,125.5 L 286.5,126.0 L 287.3,126.2 L 290.0,129.6 L 291.2,130.3 L 293.5,130.7 L 295.6,130.0 L 297.1,128.8 L 298.5,127.8 L 299.5,127.0 L 299.8,126.0 L 300.0,124.0 L 299.4,122.9 L 297.4,120.9 L 297.1,119.8 L 297.8,118.9 L 298.7,118.6 L 300.4,118.7 L 300.7,118.2 L 299.8,114.0 L 299.5,111.0 L 298.9,109.2 L 297.5,107.9 L 295.6,106.4 L 295.3,105.5 L 295.6,104.7 L 297.0,104.6 L 301.1,105.3 L 302.0,105.5 L 301.8,106.6 L 302.5,106.9 L 305.1,107.4 L 308.5,108.5 L 308.8,107.7 L 309.7,107.8 L 312.6,108.8 L 312.9,109.4 L 313.0,110.8 L 315.0,110.8 L 317.6,111.4 L 318.1,111.4 L 318.4,111.1 L 322.4,112.9 L 325.3,114.2 L 328.0,114.6 L 329.1,114.2 L 331.7,112.5 L 335.6,111.2 L 339.9,110.1 L 343.0,109.4 L 346.9,109.4 L 349.2,109.6 L 350.0,109.4 L 352.2,109.6 L 354.4,109.0 L 355.2,109.5 L 359.5,110.0 L 360.0,109.6 L 358.7,115.8 L 357.0,114.9 L 355.9,114.8 L 354.6,114.6 L 350.9,112.6 L 349.2,112.2 L 345.2,112.2 L 343.5,112.7 L 341.1,113.1 L 341.5,113.5 L 340.9,113.6 L 338.9,113.9 L 337.8,113.7 L 336.8,113.6 L 335.5,114.7 L 334.7,116.4 L 335.1,117.8 L 335.0,118.8 L 334.1,119.7 L 332.7,120.1 L 331.5,121.1 L 330.9,122.3 L 330.2,122.9 L 329.4,123.2 L 328.5,126.0 L 325.6,127.3 L 321.4,128.1 L 319.2,127.9 L 316.6,127.6 L 314.3,127.7 L 310.2,128.7 L 307.9,129.0 L 307.0,129.2 L 305.2,131.0 L 304.2,131.7 L 303.5,132.1 L 303.6,132.9 L 305.1,134.9 L 305.3,135.7 L 304.8,136.0 L 302.9,136.2 L 300.7,135.8 L 298.7,135.6 L 297.5,135.9 L 297.3,136.3 L 297.5,137.2 L 298.6,137.9 L 302.5,139.3 L 305.8,140.5 L 307.5,141.8 L 307.4,144.7 L 307.8,146.2 L 309.3,149.0 L 312.6,152.0 L 313.0,152.8 L 312.8,153.5 L 311.5,154.3 L 309.8,155.8 L 308.9,156.0 L 305.0,154.4 L 302.4,153.7 L 301.1,153.8 L 300.5,154.7 L 299.8,156.3 L 299.8,157.6 L 302.1,160.1 L 302.3,160.6 L 300.2,162.4 L 299.3,163.4 L 299.3,164.8 L 298.9,165.3 L 298.1,165.6 L 296.8,164.8 L 296.8,163.4 L 295.9,162.7 L 295.7,161.8 L 295.2,161.5 L 294.3,161.7 L 290.5,163.7 L 286.6,165.6 L 282.9,167.4 L 279.1,169.0 L 275.0,169.8 L 272.3,170.8 L 270.9,171.5 L 270.7,172.2 L 270.9,173.4 L 271.9,174.9 L 275.1,177.2 L 279.0,179.0 L 282.2,179.2 L 283.6,180.1 L 285.1,180.6 L 286.2,181.3 L 286.4,181.8 L 285.8,182.7 L 282.8,184.0 L 279.0,185.8 L 275.2,187.9 L 273.7,189.0 L 273.0,190.3 L 272.0,191.7 L 271.1,192.0 L 269.7,191.4 L 266.1,189.0 L 264.1,189.2 L 263.4,189.1 L 262.0,186.5 L 261.1,184.5 L 257.6,181.8 L 257.1,181.8 L 256.3,182.2 L 253.9,185.9 L 253.6,187.2 L 253.9,188.0 L 255.3,188.3 L 257.4,189.1 L 258.7,189.0 L 259.4,189.1 L 259.8,189.6 L 258.9,190.9 L 258.7,191.6 L 259.0,192.5 L 260.0,193.6 L 261.4,195.6 L 262.5,196.4 L 264.6,197.1 L 266.6,196.9 L 269.5,195.7 L 272.9,193.9 L 273.5,193.8 L 274.7,194.8 L 275.2,195.8 L 275.0,196.6 L 274.2,197.3 L 272.7,198.7 L 272.6,199.7 L 273.3,200.6 L 273.5,201.3 L 273.1,203.0 L 272.2,204.1 L 270.1,205.0 L 266.1,206.6 L 264.4,206.9 L 264.0,206.6 L 264.1,205.5 L 264.7,204.4 L 265.2,202.3 L 264.8,201.5 L 263.1,200.9 L 261.8,200.1 L 260.7,199.6 L 259.3,199.8 L 258.6,200.4 L 258.2,202.7 L 255.1,205.0 L 253.2,206.0 L 252.5,206.5 L 252.5,207.5 L 253.3,209.9 L 254.7,211.6 L 254.0,212.7 L 252.9,216.5 L 252.6,217.6 L 253.6,218.6 L 253.7,219.2 L 252.3,220.7 L 250.7,222.4 L 249.7,224.5 L 249.6,226.0 L 249.9,227.4 L 251.0,228.7 L 253.7,230.4 L 257.1,233.0 L 260.6,235.1 L 261.9,236.3 L 262.7,238.8 L 263.0,239.4 L 263.8,239.2 L 264.5,239.1 L 265.4,239.7 L 265.6,240.5 L 265.2,241.9 L 263.7,243.4 L 260.7,246.5 L 257.3,246.5 L 254.7,247.4 L 253.3,248.4 L 251.6,250.3 L 251.3,251.5 L 251.4,253.0 L 252.1,254.3 L 253.4,255.9 L 257.1,257.6 L 259.1,258.3 L 259.5,259.0 L 259.4,259.6 L 258.7,259.8 L 257.8,260.2 L 257.4,261.4 L 257.3,263.5 L 257.8,265.1 L 259.2,268.3 L 259.8,269.1 L 260.9,269.3 L 263.4,268.8 L 267.4,269.1 L 269.2,269.3 L 269.8,269.7 L 269.8,271.6 L 270.1,272.1 L 271.0,271.9 L 272.5,270.8 L 273.1,269.6 L 273.7,268.8 L 275.6,268.2 L 276.5,268.4 L 278.4,269.9 L 279.7,271.8 L 281.5,275.5 L 281.9,277.1 L 281.8,278.4 L 281.2,279.2 L 277.3,280.9 L 275.6,281.3 L 274.5,281.7 L 273.2,283.8 L 272.4,284.4 L 270.3,284.5 L 269.3,284.8 L 268.8,285.6 L 268.6,287.4 L 269.6,290.1 L 270.4,290.4 L 273.7,290.1 L 275.3,290.5 L 277.6,291.7 L 279.2,294.0 L 280.5,294.4 L 282.7,295.9 L 284.4,296.7 L 288.1,297.2 L 288.6,298.1 L 289.0,298.5 L 289.9,297.3 L 290.3,297.2 L 290.9,298.0 L 291.3,299.8 L 291.7,301.9 L 292.2,302.9 L 293.2,304.0 L 292.9,306.2 L 292.9,306.4 L 292.9,306.4 L 291.3,308.6 L 290.2,310.0 L 289.2,310.3 L 287.4,311.6 L 286.2,314.1 L 285.6,314.9 L 284.9,315.1 L 283.0,313.7 L 282.2,313.7 L 281.4,313.7 L 281.0,312.7 L 280.0,308.6 L 279.4,307.7 L 278.5,307.4 L 277.6,307.5 L 276.5,309.2 L 275.7,309.8 L 273.9,309.4 L 273.0,309.8 L 272.1,309.9 L 271.3,309.7 L 270.0,311.8 L 269.5,312.2 L 268.6,312.4 L 269.1,313.3 L 270.9,315.6 L 273.6,318.9 L 274.2,319.3 L 273.0,320.3 L 271.7,318.5 L 271.4,318.3 L 270.8,317.7 L 269.9,317.0 L 269.6,318.2 L 269.1,321.2 L 269.3,322.0 L 270.6,322.2 L 268.1,324.2 L 268.0,323.4 L 268.0,323.3 L 267.3,321.9 L 267.1,320.7 L 266.8,319.4 L 265.0,317.0 L 262.5,313.7 L 261.3,312.3 L 260.9,312.0 L 260.6,311.6 L 259.2,312.3 L 258.6,312.7 L 258.0,313.8 L 258.0,316.4 L 257.7,316.6 L 257.1,316.6 L 255.9,313.0 L 254.1,310.5 L 251.1,308.3 L 250.0,308.3 L 248.2,309.0 L 244.9,311.5 L 243.5,313.2 L 243.0,315.5 L 242.4,316.2 L 239.9,316.2 L 238.8,316.7 L 237.3,317.9 L 236.3,319.8 L 236.0,320.6 L 235.7,321.8 L 235.9,323.2 L 236.0,324.8 L 235.7,325.8 L 234.4,327.3 L 233.1,328.6 L 232.7,329.8 L 233.0,332.9 L 233.8,334.7 L 231.5,335.0 L 146.4,347.8 L 147.0,347.1 L 147.4,346.1 L 147.3,345.3 L 146.6,344.8 L 145.4,344.4 L 143.4,340.6 L 142.7,339.5 L 141.8,338.9 L 139.6,338.1 L 138.5,338.2 L 138.6,337.8 L 139.9,337.3 L 140.8,336.9 L 141.2,336.3 L 141.1,335.5 L 140.0,334.5 L 138.7,333.6 L 138.0,333.0 L 137.2,332.8 L 136.9,331.7 L 136.6,330.7 L 135.5,329.7 L 132.4,328.7 L 131.0,328.9 L 130.9,328.6 L 131.4,327.6 L 130.6,325.8 L 130.2,325.1 L 127.9,324.6 L 126.9,323.8 L 125.6,323.8 L 125.6,324.3 L 125.5,325.7 L 126.0,329.1 L 125.5,330.7 L 125.3,330.7 L 123.7,330.4 L 124.3,328.5 L 124.4,327.2 L 123.9,326.1 L 123.0,325.4 L 122.6,324.9 L 120.8,324.7 L 118.5,324.9 L 115.1,327.0 L 111.6,328.6 L 108.0,329.7 L 107.2,330.4 L 106.6,331.9 L 105.9,332.0 L 105.2,331.1 L 105.1,330.3 L 105.0,329.0 L 104.0,326.1 L 103.7,324.5 L 102.8,322.2 L 102.0,319.7 L 100.9,317.6 L 99.3,315.5 L 98.2,314.3 L 96.6,310.4 L 95.2,307.9 L 94.6,306.8 L 92.6,302.9 L 91.9,300.9 L 91.2,298.6 L 89.5,294.7 L 87.8,293.1 L 85.4,291.5 L 81.9,290.9 L 78.1,289.0 L 76.2,288.3 L 75.6,287.9 L 75.7,286.2 L 75.2,286.3 L 74.9,286.6 L 74.4,287.8 L 73.1,287.9 L 72.6,288.7 L 71.8,288.7 L 71.8,289.1 L 72.4,289.5 L 72.2,290.0 L 71.5,289.7 L 70.9,289.0 L 70.6,288.6 L 69.9,287.5 L 70.0,286.7 L 69.2,285.5 L 68.7,285.6 L 68.6,286.0 L 68.6,286.4 L 67.5,285.4 L 66.6,285.5 L 66.5,285.1 L 67.1,284.1 L 66.7,283.7 L 66.3,283.8 L 65.8,284.8 L 65.5,284.3 L 65.8,283.4 L 65.3,282.7 L 64.2,282.2 L 60.1,281.4 L 57.8,281.9 L 53.7,283.4 L 53.1,283.8 L 53.6,284.2 L 54.9,284.2 L 54.3,284.7 L 50.0,284.9 L 49.1,284.8 L 48.9,285.2 L 47.0,284.7 L 47.1,284.3 L 47.4,284.0 L 48.1,284.3 L 48.4,283.9 L 46.5,280.6 L 45.6,279.4 L 46.0,279.2 L 46.4,279.2 L 47.0,280.0 L 47.3,279.6 L 47.0,279.0 L 46.1,278.3 L 45.7,278.6 L 45.4,278.5 L 43.8,276.9 L 42.9,276.4 L 42.2,276.5 L 40.1,278.1 L 40.0,278.1 L 40.2,275.9 L 41.7,256.2 L 41.8,255.1" fill="none" stroke="black" stroke-width="2"/>
</svg>