<?xml version="1.0" encoding="UTF-8"?>
<svg width="400" height="400" viewBox="0 0 400 400" xmlns="http://www.w3.org/2000/svg">
  <rect width="400" height="400" fill="white"/>
  <path d="M 94.2,186.7 L 95.4,186.7 L 96.1,186.1 L 96.2,184.7 L 95.3,183.3 L 95.2,183.3 L 96.5,179.1 L 98.0,174.1 L 98.3,173.1 L 98.4,173.1 L 99.8,172.6 L 100.8,172.5 L 101.4,170.8 L 102.6,170.7 L 104.7,170.9 L 107.1,170.2 L 108.9,170.2 L 111.0,170.4 L 112.7,169.8 L 114.6,168.3 L 115.0,168.3 L 114.7,169.6 L 114.0,172.0 L 114.0,173.4 L 115.1,173.4 L 116.5,172.7 L 118.7,171.7 L 121.2,171.2 L 123.8,171.5 L 126.2,172.0 L 127.4,171.7 L 129.7,170.6 L 130.2,169.9 L 130.3,167.5 L 129.8,165.6 L 128.8,164.7 L 128.8,163.7 L 129.9,161.6 L 129.7,160.4 L 128.8,159.8 L 126.5,158.8 L 124.4,157.7 L 122.2,156.8 L 121.1,156.8 L 119.6,157.3 L 118.6,156.9 L 117.7,155.8 L 117.9,153.3 L 116.7,152.0 L 116.4,151.5 L 117.0,151.1 L 117.4,150.9 L 117.0,150.2 L 115.2,148.5 L 113.3,147.5 L 111.1,147.1 L 108.6,146.4 L 108.3,146.7 L 107.5,147.9 L 106.0,147.5 L 105.3,147.0 L 104.9,145.9 L 104.1,146.0 L 102.9,146.7 L 101.3,146.9 L 99.4,148.4 L 98.3,148.4 L 98.0,147.8 L 98.4,147.2 L 99.8,146.0 L 99.7,144.8 L 98.8,144.3 L 97.0,144.3 L 96.1,144.0 L 96.0,144.1 L 94.3,133.9 L 93.4,128.5 L 93.7,128.1 L 93.9,128.8 L 94.2,129.4 L 94.8,129.4 L 95.2,128.6 L 94.7,127.5 L 93.3,125.8 L 93.6,125.5 L 95.5,125.6 L 95.9,125.1 L 98.3,124.5 L 99.8,123.7 L 101.0,122.6 L 100.9,121.8 L 100.1,120.5 L 100.8,118.4 L 101.5,116.2 L 101.6,113.7 L 101.9,111.2 L 101.7,109.4 L 100.6,107.9 L 100.1,107.0 L 98.3,106.0 L 95.8,105.5 L 94.2,104.2 L 92.0,103.5 L 90.0,102.1 L 88.7,100.7 L 88.3,99.7 L 87.1,99.4 L 86.4,98.5 L 86.5,97.8 L 87.9,97.2 L 88.4,96.9 L 91.0,97.1 L 92.6,96.8 L 94.5,95.5 L 96.2,94.5 L 98.6,94.5 L 99.9,95.0 L 100.0,95.0 L 101.3,96.1 L 103.5,97.1 L 106.0,97.5 L 108.4,97.7 L 110.5,98.0 L 112.9,98.9 L 114.6,99.7 L 115.7,100.6 L 118.0,101.4 L 120.0,100.6 L 121.7,100.5 L 123.2,101.3 L 124.3,102.9 L 124.8,102.5 L 125.5,101.9 L 127.9,101.7 L 129.4,101.4 L 130.3,101.2 L 132.6,101.2 L 135.0,100.7 L 137.3,100.5 L 139.9,100.1 L 142.1,99.8 L 144.5,99.6 L 146.9,99.7 L 149.4,99.9 L 151.8,100.5 L 154.1,101.4 L 155.3,101.7 L 155.7,99.9 L 156.6,99.9 L 157.7,100.8 L 157.5,102.0 L 156.8,103.3 L 157.0,103.8 L 157.8,103.8 L 159.2,101.8 L 159.5,102.3 L 159.9,103.6 L 161.5,104.0 L 161.5,104.8 L 161.3,105.6 L 162.8,107.0 L 162.5,107.3 L 161.1,108.2 L 161.0,108.9 L 161.5,109.0 L 163.1,108.0 L 163.8,108.1 L 164.5,109.3 L 165.0,111.8 L 165.5,114.0 L 165.7,116.5 L 165.3,117.9 L 164.2,119.0 L 163.6,118.5 L 163.1,118.1 L 162.1,119.3 L 162.4,120.8 L 160.2,121.6 L 158.1,123.0 L 157.4,123.3 L 156.3,123.3 L 155.7,124.0 L 155.5,125.7 L 156.8,126.8 L 158.4,127.1 L 158.5,129.1 L 157.5,131.2 L 157.5,132.8 L 156.6,133.8 L 155.3,134.3 L 154.5,136.6 L 154.3,138.1 L 154.8,139.0 L 156.2,138.4 L 157.1,138.1 L 159.4,138.8 L 160.6,137.8 L 161.7,138.4 L 162.0,139.4 L 162.1,140.3 L 163.5,141.0 L 164.2,141.4 L 164.7,141.1 L 165.3,140.4 L 167.0,140.5 L 167.9,139.1 L 169.4,138.5 L 169.5,137.7 L 167.8,136.1 L 167.5,135.5 L 170.0,135.7 L 170.4,135.2 L 169.9,132.7 L 169.7,132.3 L 167.8,131.6 L 166.8,130.6 L 166.3,128.4 L 166.3,126.0 L 165.9,123.6 L 165.1,121.8 L 165.0,120.7 L 165.9,118.5 L 167.6,116.6 L 169.1,114.9 L 171.1,113.3 L 173.0,111.8 L 175.4,111.0 L 177.8,110.5 L 180.1,110.3 L 181.8,109.3 L 184.5,109.6 L 185.3,110.5 L 185.8,112.0 L 186.1,114.2 L 186.5,114.9 L 186.6,116.1 L 189.1,116.9 L 189.7,116.7 L 190.7,117.3 L 191.5,117.7 L 192.9,119.2 L 193.3,119.5 L 194.1,118.9 L 194.8,119.0 L 194.9,119.0 L 195.6,118.2 L 196.1,118.1 L 198.0,118.5 L 198.4,118.8 L 199.0,117.5 L 199.6,117.6 L 200.3,118.6 L 201.1,120.9 L 202.2,123.0 L 203.3,125.0 L 204.7,125.9 L 207.2,126.2 L 209.6,126.3 L 212.0,126.5 L 213.9,126.5 L 215.6,126.7 L 217.8,126.3 L 220.0,126.4 L 222.5,126.4 L 224.7,126.2 L 227.0,126.0 L 229.2,125.9 L 231.5,126.0 L 234.1,126.1 L 235.9,126.7 L 237.9,128.0 L 239.0,128.2 L 241.2,128.4 L 242.5,129.2 L 244.4,131.0 L 245.6,131.5 L 246.4,131.3 L 245.9,130.6 L 245.5,129.7 L 245.9,128.7 L 247.8,127.1 L 249.3,126.6 L 250.2,127.0 L 250.2,128.1 L 250.2,130.7 L 250.5,132.3 L 251.2,132.7 L 253.0,131.9 L 254.1,132.2 L 255.1,132.4 L 256.1,131.6 L 257.4,130.2 L 258.1,130.3 L 259.9,131.1 L 260.9,130.8 L 262.5,129.9 L 263.4,129.9 L 264.7,129.5 L 265.7,129.9 L 267.1,131.2 L 267.9,132.4 L 269.7,133.2 L 272.2,133.2 L 274.6,133.5 L 275.4,133.9 L 276.0,135.2 L 278.5,134.9 L 281.0,134.9 L 283.3,134.7 L 285.8,135.1 L 287.4,136.2 L 289.4,136.0 L 291.7,136.9 L 292.8,136.6 L 294.4,135.9 L 296.1,134.2 L 298.1,132.7 L 299.8,131.8 L 300.9,131.4 L 301.6,133.7 L 302.4,133.5 L 302.7,132.5 L 302.5,130.1 L 304.2,130.3 L 305.5,131.0 L 306.9,131.9 L 307.6,132.6 L 308.4,134.5 L 308.9,135.0 L 308.9,136.1 L 310.0,136.4 L 312.6,136.1 L 314.8,135.8 L 316.7,135.2 L 317.9,135.0 L 319.1,134.6 L 320.8,133.2 L 321.0,131.0 L 320.2,128.6 L 320.3,128.0 L 322.9,128.7 L 325.3,129.1 L 325.6,129.6 L 325.2,129.9 L 323.5,130.6 L 322.6,131.8 L 322.5,133.5 L 322.7,134.3 L 323.8,134.6 L 326.2,134.8 L 328.2,134.8 L 329.1,134.9 L 331.1,135.2 L 331.8,135.9 L 331.7,136.5 L 331.2,136.9 L 331.4,138.9 L 332.1,139.1 L 332.8,140.1 L 333.7,140.0 L 335.0,139.2 L 337.5,139.8 L 338.7,139.7 L 339.7,138.7 L 340.3,138.3 L 340.8,138.6 L 341.4,139.5 L 342.3,139.2 L 342.9,139.9 L 343.6,139.5 L 344.7,137.9 L 346.3,137.5 L 347.1,137.1 L 349.3,137.1 L 351.7,136.9 L 354.2,136.3 L 355.7,134.9 L 355.8,134.0 L 355.8,133.2 L 358.0,132.2 L 360.0,132.9 L 359.9,133.6 L 359.0,138.2 L 358.7,138.2 L 356.4,139.0 L 354.1,140.4 L 352.0,141.7 L 349.9,142.8 L 347.6,143.7 L 346.0,143.8 L 345.3,144.9 L 342.7,144.5 L 340.8,144.2 L 339.9,145.0 L 338.9,145.8 L 337.0,145.8 L 336.8,145.3 L 336.8,144.4 L 334.9,142.8 L 334.1,141.5 L 333.6,141.1 L 332.5,141.2 L 331.6,143.5 L 331.1,144.1 L 328.8,144.5 L 327.1,146.3 L 325.0,147.6 L 323.1,148.9 L 320.8,150.1 L 318.7,151.3 L 316.6,152.3 L 314.4,153.2 L 312.0,153.6 L 309.4,153.6 L 308.9,154.2 L 308.8,156.2 L 309.2,158.4 L 309.4,160.8 L 309.5,163.3 L 310.4,165.6 L 310.1,166.9 L 311.6,168.0 L 313.8,168.7 L 314.5,168.0 L 315.8,166.0 L 317.7,164.8 L 319.2,165.0 L 320.6,165.2 L 322.6,164.9 L 324.2,165.4 L 324.9,165.8 L 325.4,165.5 L 325.7,165.1 L 327.1,165.6 L 328.7,166.7 L 328.9,168.1 L 328.5,169.7 L 327.4,170.8 L 325.4,171.8 L 323.1,171.4 L 321.2,171.0 L 319.0,171.7 L 317.3,173.7 L 315.6,174.8 L 313.6,176.1 L 311.6,177.6 L 310.8,178.5 L 310.8,180.6 L 311.4,181.6 L 313.3,182.6 L 314.3,184.9 L 314.9,187.2 L 316.1,188.8 L 317.2,190.4 L 317.9,192.8 L 319.1,194.8 L 320.7,196.5 L 322.4,198.1 L 323.7,200.1 L 324.9,202.1 L 325.6,204.3 L 325.9,206.8 L 326.6,208.8 L 328.0,210.5 L 329.7,212.4 L 331.2,214.0 L 333.3,215.3 L 335.2,216.8 L 337.1,218.3 L 337.9,218.5 L 338.9,217.6 L 340.8,219.0 L 341.6,219.4 L 338.9,221.0 L 316.2,234.6 L 315.9,234.5 L 315.0,233.0 L 313.4,231.5 L 311.4,230.1 L 310.0,228.6 L 309.7,228.3 L 308.3,227.9 L 307.7,227.0 L 306.6,224.7 L 304.4,224.3 L 302.0,224.6 L 300.6,224.4 L 298.6,223.7 L 297.0,224.0 L 296.1,225.0 L 295.3,225.7 L 293.7,225.5 L 292.5,224.8 L 291.2,223.7 L 289.3,223.3 L 286.6,223.4 L 284.6,224.0 L 282.1,224.2 L 280.8,224.9 L 279.1,225.8 L 278.8,226.0 L 276.2,226.2 L 273.7,226.1 L 271.5,226.2 L 269.2,226.8 L 267.9,227.0 L 266.8,228.9 L 266.6,229.1 L 266.3,229.5 L 265.8,230.4 L 265.3,230.5 L 265.1,230.8 L 265.4,231.0 L 265.0,232.1 L 264.8,232.5 L 264.0,232.1 L 263.7,232.3 L 263.1,232.5 L 262.7,232.2 L 262.6,230.8 L 262.1,230.2 L 260.5,230.0 L 259.8,229.2 L 258.6,228.2 L 256.4,227.2 L 254.0,226.6 L 251.7,225.9 L 249.6,225.1 L 247.3,224.3 L 244.9,224.1 L 242.3,223.9 L 240.7,223.8 L 239.9,224.7 L 238.3,225.9 L 238.1,226.6 L 237.6,228.4 L 236.7,232.2 L 236.8,233.3 L 237.3,233.9 L 239.8,236.5 L 240.1,237.2 L 239.1,239.3 L 237.4,239.2 L 236.7,239.4 L 236.4,239.8 L 236.6,240.6 L 236.9,242.1 L 237.4,243.2 L 237.7,243.7 L 236.7,243.9 L 236.1,244.3 L 236.1,245.4 L 235.7,246.1 L 235.6,247.2 L 236.5,250.3 L 237.7,251.4 L 239.4,252.2 L 240.1,253.1 L 242.4,255.0 L 243.3,255.5 L 244.3,255.9 L 245.2,256.8 L 245.5,257.2 L 246.6,258.6 L 248.6,258.3 L 249.1,257.7 L 250.4,257.4 L 252.2,256.5 L 253.4,256.4 L 254.2,256.2 L 254.9,255.4 L 255.5,254.6 L 256.7,257.7 L 257.9,261.0 L 258.1,261.5 L 257.3,262.6 L 256.6,262.9 L 252.6,262.7 L 252.2,262.5 L 252.3,261.9 L 250.7,261.8 L 249.3,262.7 L 245.5,262.3 L 242.5,261.7 L 242.1,261.5 L 240.9,261.7 L 237.1,262.7 L 235.1,263.2 L 233.6,263.2 L 232.5,264.1 L 232.1,265.6 L 232.2,266.7 L 231.5,267.3 L 230.5,268.0 L 230.0,268.6 L 229.4,269.3 L 229.1,269.9 L 228.2,270.4 L 228.1,270.9 L 228.0,271.0 L 228.2,271.9 L 228.8,273.4 L 227.0,272.6 L 222.5,270.5 L 222.8,269.5 L 222.5,269.0 L 222.0,268.9 L 221.8,268.9 L 221.9,268.8 L 221.3,268.1 L 220.6,268.1 L 219.7,268.7 L 219.2,268.9 L 218.7,268.7 L 218.1,267.5 L 217.3,267.2 L 215.5,265.7 L 214.2,265.9 L 211.9,266.7 L 210.0,266.2 L 210.1,265.5 L 210.3,264.4 L 209.8,263.9 L 209.5,264.0 L 209.1,265.1 L 208.2,265.6 L 207.9,265.3 L 207.2,262.9 L 206.0,262.0 L 205.6,261.5 L 206.2,261.2 L 206.9,260.8 L 208.6,257.5 L 210.2,257.3 L 210.8,256.3 L 211.2,255.7 L 212.6,254.3 L 212.6,253.0 L 211.5,250.7 L 211.2,248.3 L 210.1,245.1 L 210.6,244.7 L 211.2,244.5 L 211.2,243.9 L 210.4,243.1 L 209.4,242.7 L 209.2,242.2 L 209.1,240.7 L 208.6,238.0 L 208.3,238.0 L 207.7,238.4 L 207.0,237.7 L 205.8,236.5 L 204.9,235.3 L 203.7,233.5 L 202.3,233.3 L 200.7,233.5 L 196.8,234.5 L 194.2,235.1 L 192.9,235.4 L 192.2,235.3 L 190.8,235.2 L 187.8,234.8 L 185.2,234.6 L 184.5,234.5 L 181.2,234.1 L 177.6,233.7 L 176.2,234.3 L 175.9,234.8 L 176.1,235.8 L 176.3,237.3 L 176.7,238.4 L 176.1,239.5 L 178.0,242.9 L 178.2,244.3 L 179.7,246.8 L 180.5,247.7 L 180.5,248.4 L 179.7,249.0 L 178.3,249.2 L 177.7,249.3 L 175.6,249.0 L 174.9,248.6 L 174.7,248.5 L 174.7,248.4 L 173.8,247.0 L 172.1,244.6 L 169.9,242.9 L 168.8,242.7 L 167.2,243.1 L 165.4,243.7 L 163.8,243.7 L 162.8,244.4 L 162.6,245.2 L 162.8,245.6 L 163.3,246.2 L 163.1,248.3 L 162.1,249.8 L 161.5,250.9 L 160.7,253.4 L 160.7,254.5 L 161.2,254.4 L 162.2,253.9 L 162.4,255.9 L 163.1,256.1 L 166.6,256.5 L 168.0,256.3 L 168.6,256.8 L 169.2,257.0 L 173.1,257.1 L 173.9,257.4 L 175.3,258.5 L 177.1,259.8 L 177.6,260.2 L 179.4,260.5 L 180.4,261.3 L 180.6,261.5 L 180.6,261.9 L 180.3,262.1 L 180.0,262.2 L 176.5,262.4 L 174.8,262.9 L 173.8,263.1 L 173.4,263.7 L 173.4,264.7 L 174.0,265.3 L 175.2,265.6 L 176.7,266.0 L 176.8,266.4 L 175.8,268.7 L 176.1,269.2 L 176.7,269.7 L 176.5,270.7 L 175.5,274.6 L 175.0,276.3 L 174.9,279.0 L 175.3,280.2 L 174.6,281.4 L 174.0,282.1 L 173.6,281.7 L 173.6,281.0 L 172.8,281.3 L 170.4,283.4 L 170.0,284.3 L 169.9,285.2 L 168.8,285.7 L 124.4,305.5 L 124.1,305.1 L 122.7,304.0 L 120.7,303.5 L 118.5,303.7 L 117.9,303.1 L 117.1,302.3 L 116.2,302.4 L 115.2,302.6 L 115.0,302.3 L 115.5,300.3 L 115.2,297.4 L 114.5,296.3 L 113.2,295.5 L 112.3,295.1 L 111.0,292.3 L 110.9,290.0 L 111.5,289.8 L 111.9,289.0 L 111.3,288.6 L 109.8,288.4 L 109.3,288.8 L 108.7,289.7 L 108.0,289.5 L 107.5,288.6 L 107.3,287.7 L 106.6,287.4 L 105.3,287.4 L 104.1,287.7 L 103.2,287.2 L 102.0,286.5 L 101.3,286.7 L 101.0,287.1 L 100.3,286.9 L 99.0,285.0 L 98.1,284.6 L 97.0,284.6 L 96.4,283.9 L 96.2,283.1 L 96.1,281.9 L 95.2,280.4 L 92.8,278.1 L 92.6,277.0 L 93.1,275.6 L 94.1,272.7 L 94.0,271.0 L 93.2,269.3 L 91.4,267.8 L 89.6,267.4 L 87.2,266.8 L 85.2,266.2 L 84.2,266.4 L 83.8,267.0 L 83.0,268.4 L 82.8,268.9 L 81.6,270.6 L 81.0,271.4 L 80.7,272.0 L 80.1,273.2 L 79.4,274.4 L 78.3,275.3 L 78.0,275.6 L 76.6,276.0 L 76.4,275.9 L 76.1,275.8 L 76.1,275.1 L 77.3,272.7 L 77.7,272.3 L 79.2,270.3 L 79.9,268.8 L 80.5,267.6 L 80.2,266.5 L 78.3,263.3 L 77.9,262.2 L 77.4,260.9 L 76.3,260.1 L 75.0,259.4 L 74.5,258.5 L 74.1,256.4 L 73.5,255.9 L 69.6,255.3 L 66.0,253.5 L 63.1,252.0 L 61.0,249.5 L 60.4,247.9 L 59.4,247.5 L 56.9,247.0 L 55.9,246.5 L 54.0,246.6 L 53.8,249.1 L 54.3,250.7 L 54.8,251.8 L 55.1,252.5 L 55.1,253.2 L 55.1,254.0 L 55.2,255.4 L 55.1,256.4 L 54.9,256.8 L 54.8,257.0 L 54.2,256.6 L 52.7,253.2 L 52.6,253.1 L 51.3,251.0 L 51.2,249.4 L 51.3,247.8 L 50.8,247.3 L 50.2,246.8 L 49.5,245.6 L 48.7,244.9 L 46.6,244.2 L 44.0,244.1 L 42.9,244.1 L 42.2,244.0 L 42.1,243.9 L 41.5,243.5 L 40.2,241.7 L 40.1,240.7 L 40.0,240.5 L 40.5,238.9 L 41.1,237.9 L 41.9,237.4 L 42.9,236.7 L 44.2,235.5 L 45.3,234.8 L 47.4,234.9 L 48.0,234.5 L 48.6,233.2 L 49.9,232.5 L 51.2,232.4 L 52.5,232.9 L 53.5,233.2 L 55.2,233.2 L 56.5,233.5 L 58.6,233.6 L 60.5,233.9 L 62.2,233.8 L 65.9,235.4 L 66.6,236.1 L 67.0,236.7 L 67.3,236.6 L 68.0,235.8 L 69.2,235.8 L 70.9,234.7 L 73.1,234.2 L 73.5,234.3 L 74.0,235.1 L 75.2,235.2 L 77.3,234.9 L 79.2,235.4 L 81.2,236.2 L 82.2,236.8 L 82.6,236.6 L 83.0,235.6 L 83.4,234.6 L 85.5,232.0 L 85.9,232.1 L 86.7,233.4 L 88.1,233.5 L 88.7,232.9 L 89.2,231.6 L 88.8,230.6 L 88.0,229.6 L 87.4,229.0 L 87.5,227.8 L 87.4,226.4 L 87.0,225.6 L 85.6,224.7 L 85.6,224.4 L 86.4,223.8 L 87.1,222.4 L 86.6,221.8 L 86.0,221.2 L 85.5,220.2 L 84.5,219.6 L 84.3,219.5 L 84.5,218.8 L 89.3,202.6 L 90.6,202.8 L 91.4,202.2 L 91.1,201.6 L 89.8,201.3 L 91.6,195.3 L 93.1,194.6 L 95.0,193.1 L 95.8,191.5 L 95.6,190.8 L 93.4,189.8 L 93.3,189.8" fill="none" stroke="black" stroke-width="2"/>
</svg>