<?xml version="1.0" encoding="UTF-8"?>
<svg width="400" height="400" viewBox="0 0 400 400" xmlns="http://www.w3.org/2000/svg">
  <rect width="400" height="400" fill="white"/>
  <path d="M 141.2,214.8 L 141.8,215.1 L 141.9,214.9 L 141.8,214.6 L 141.8,214.2 L 141.9,213.9 L 142.3,213.7 L 142.5,213.5 L 142.5,213.2 L 143.1,212.7 L 143.5,212.3 L 143.7,211.9 L 143.6,211.4 L 143.4,210.2 L 143.4,209.1 L 143.1,208.3 L 141.7,207.5 L 141.4,207.9 L 140.5,210.0 L 139.5,211.7 L 139.1,211.8 L 138.9,211.4 L 138.8,210.4 L 138.5,210.3 L 137.5,210.6 L 137.3,210.4 L 137.1,209.6 L 136.7,207.4 L 136.3,205.3 L 136.0,203.6 L 135.7,202.4 L 135.3,201.2 L 135.0,200.2 L 134.4,199.3 L 133.8,198.9 L 132.8,198.7 L 132.2,198.1 L 131.2,197.6 L 130.2,197.5 L 128.0,197.9 L 126.5,198.0 L 126.4,198.3 L 126.1,198.5 L 126.0,198.7 L 125.7,199.0 L 124.4,199.3 L 123.8,199.2 L 123.7,199.2 L 123.2,198.7 L 123.2,198.0 L 123.5,197.6 L 123.6,197.4 L 123.5,196.9 L 123.2,196.5 L 123.2,195.8 L 123.6,195.7 L 124.2,195.9 L 124.4,196.0 L 124.8,196.2 L 125.5,196.6 L 126.0,196.7 L 126.3,197.0 L 126.7,197.1 L 126.8,196.8 L 126.9,196.9 L 126.8,197.1 L 127.0,197.3 L 127.7,196.4 L 128.3,196.0 L 128.3,195.7 L 127.8,194.9 L 127.7,194.6 L 127.3,194.4 L 127.0,194.3 L 125.6,193.8 L 125.1,194.0 L 124.7,194.5 L 124.1,195.4 L 123.3,195.4 L 123.0,195.4 L 121.7,194.3 L 121.6,194.2 L 121.3,193.8 L 121.0,193.6 L 119.7,193.5 L 117.5,193.8 L 116.7,193.8 L 116.0,193.3 L 115.3,193.3 L 114.9,193.6 L 114.5,193.4 L 113.9,192.7 L 113.8,192.3 L 114.1,191.8 L 114.8,191.0 L 114.6,190.4 L 114.8,189.9 L 114.3,189.0 L 113.8,188.1 L 113.7,187.9 L 114.0,187.6 L 114.9,186.7 L 115.5,186.0 L 115.6,185.6 L 115.7,184.8 L 116.1,184.6 L 116.6,184.2 L 117.1,184.2 L 118.3,183.3 L 118.2,183.0 L 118.0,182.6 L 118.2,182.5 L 118.6,181.8 L 118.9,181.2 L 118.8,180.7 L 118.1,180.2 L 117.4,180.1 L 116.4,180.2 L 115.9,180.1 L 115.3,179.6 L 114.2,179.3 L 113.5,179.2 L 111.9,179.5 L 110.6,179.5 L 110.2,179.7 L 110.1,180.2 L 110.1,180.7 L 109.5,181.2 L 109.2,182.0 L 109.0,183.3 L 109.0,183.3 L 108.5,183.9 L 108.1,184.6 L 108.0,185.1 L 107.5,185.4 L 107.2,185.4 L 106.8,185.4 L 106.2,185.4 L 105.8,185.2 L 105.6,184.7 L 105.8,184.5 L 106.2,184.4 L 106.3,184.1 L 106.2,183.8 L 106.0,183.8 L 105.8,184.1 L 105.5,184.2 L 105.4,183.9 L 105.3,183.6 L 104.8,183.7 L 104.5,183.9 L 103.4,183.7 L 102.6,183.2 L 101.7,183.1 L 101.3,182.5 L 101.1,182.1 L 100.3,181.1 L 100.2,180.9 L 99.1,180.0 L 98.4,179.8 L 97.9,179.8 L 97.3,180.2 L 96.8,180.4 L 96.5,180.8 L 96.1,182.1 L 95.7,182.3 L 95.5,182.4 L 95.5,182.6 L 95.8,183.4 L 96.0,184.9 L 95.9,185.4 L 95.9,186.2 L 95.4,186.3 L 94.7,187.2 L 94.3,187.1 L 93.8,187.0 L 92.6,187.6 L 92.3,187.9 L 92.0,188.2 L 91.6,188.3 L 91.3,188.1 L 91.2,187.6 L 91.0,187.0 L 90.8,187.1 L 90.9,188.0 L 90.5,187.7 L 90.1,187.2 L 89.4,186.0 L 89.3,186.0 L 89.1,185.8 L 88.6,185.1 L 87.9,184.8 L 87.4,184.8 L 86.7,184.3 L 86.5,183.9 L 86.7,183.7 L 87.0,183.3 L 86.8,183.0 L 86.4,182.6 L 86.2,182.6 L 86.0,182.1 L 85.5,181.5 L 85.3,180.5 L 84.6,178.5 L 84.1,178.2 L 83.9,178.2 L 83.7,177.8 L 83.0,177.4 L 83.2,177.2 L 83.1,176.9 L 82.4,175.7 L 82.0,175.3 L 81.7,174.9 L 81.3,174.5 L 81.4,174.1 L 80.8,173.9 L 80.5,174.0 L 80.4,174.3 L 80.1,173.9 L 79.3,173.8 L 78.5,173.7 L 78.1,173.5 L 77.8,174.5 L 77.6,174.5 L 77.6,174.2 L 77.4,173.8 L 77.0,173.5 L 76.8,173.6 L 76.7,174.0 L 76.2,173.9 L 75.8,173.5 L 75.8,173.1 L 76.7,172.8 L 77.0,172.1 L 76.7,171.6 L 76.4,171.1 L 76.3,170.8 L 76.2,169.7 L 76.0,169.7 L 75.7,169.8 L 75.4,169.6 L 75.3,169.2 L 75.3,168.8 L 74.9,168.7 L 74.5,168.7 L 74.5,168.4 L 74.7,167.2 L 74.7,166.2 L 74.3,166.0 L 74.1,165.9 L 73.9,165.6 L 73.1,164.5 L 72.7,164.0 L 72.1,163.1 L 71.3,162.1 L 70.7,160.8 L 70.2,160.3 L 68.4,159.5 L 67.7,159.4 L 66.8,159.5 L 66.4,159.4 L 65.6,159.5 L 65.3,159.3 L 64.7,159.4 L 63.8,159.1 L 63.3,159.1 L 63.2,159.4 L 63.3,159.9 L 62.8,160.0 L 61.7,160.0 L 61.8,159.3 L 61.2,159.3 L 61.1,159.2 L 59.6,159.4 L 57.9,159.2 L 55.8,159.9 L 55.1,159.9 L 53.4,159.9 L 52.4,160.3 L 50.3,160.8 L 48.7,161.1 L 46.6,161.2 L 45.0,161.1 L 44.5,161.2 L 43.5,161.3 L 43.0,161.4 L 42.3,161.5 L 42.1,161.8 L 42.1,162.2 L 41.5,162.4 L 41.5,162.6 L 41.3,162.3 L 40.7,160.5 L 40.0,158.7 L 40.1,158.7 L 40.8,158.7 L 41.7,158.7 L 41.9,158.5 L 41.6,158.1 L 41.6,157.2 L 42.0,156.8 L 42.1,156.6 L 42.2,155.9 L 42.7,155.3 L 43.0,155.2 L 43.6,155.5 L 44.1,155.7 L 44.4,155.6 L 44.4,156.1 L 44.5,156.2 L 44.9,155.5 L 45.2,155.5 L 45.5,155.7 L 46.5,155.6 L 48.7,155.5 L 49.4,155.4 L 49.5,155.8 L 49.6,155.9 L 49.7,155.4 L 50.6,155.3 L 51.5,155.4 L 52.9,155.4 L 53.5,155.4 L 53.8,155.6 L 54.4,155.4 L 55.3,155.1 L 55.8,154.8 L 55.8,154.6 L 56.2,154.3 L 57.5,154.4 L 58.9,154.6 L 58.9,154.9 L 59.3,155.0 L 59.5,154.9 L 60.2,155.3 L 60.7,155.6 L 61.3,155.4 L 61.8,155.9 L 62.2,155.8 L 62.9,155.8 L 63.4,155.7 L 63.8,155.7 L 64.2,155.6 L 64.9,154.9 L 65.5,154.7 L 65.7,154.8 L 66.0,155.0 L 66.8,155.3 L 67.3,155.4 L 67.8,155.3 L 68.4,154.3 L 68.8,154.1 L 68.9,154.1 L 69.9,153.4 L 69.9,153.7 L 70.1,153.8 L 70.4,154.1 L 71.1,154.3 L 71.6,154.0 L 72.0,153.9 L 72.4,153.8 L 72.4,153.4 L 72.2,152.4 L 72.1,151.9 L 72.2,151.6 L 72.5,151.5 L 72.9,152.2 L 73.8,153.0 L 74.3,153.0 L 74.4,152.6 L 74.0,152.3 L 73.8,151.9 L 73.8,151.0 L 73.6,150.7 L 73.6,150.4 L 74.4,150.2 L 74.6,149.9 L 74.8,149.7 L 75.1,149.8 L 75.6,149.7 L 75.8,149.5 L 75.0,149.2 L 75.0,148.4 L 74.8,148.2 L 74.8,148.0 L 73.7,147.7 L 86.3,140.1 L 87.8,139.2 L 88.4,139.4 L 89.0,139.3 L 90.0,138.4 L 91.0,137.6 L 92.2,136.9 L 93.2,136.8 L 93.6,137.1 L 94.7,137.9 L 95.1,138.8 L 95.1,140.2 L 95.2,141.2 L 96.1,141.8 L 97.3,142.2 L 98.5,142.4 L 99.3,142.4 L 99.4,142.1 L 99.1,140.8 L 99.1,140.1 L 99.4,139.9 L 100.3,140.6 L 101.0,141.0 L 102.3,141.1 L 103.7,141.3 L 105.0,141.3 L 105.3,141.0 L 105.1,140.1 L 105.5,139.9 L 105.9,140.2 L 106.6,141.3 L 107.4,142.1 L 108.0,142.3 L 108.3,142.1 L 109.0,141.0 L 109.7,141.7 L 110.3,141.7 L 111.0,141.2 L 111.6,140.1 L 112.0,139.5 L 112.7,139.2 L 113.5,138.0 L 113.8,138.1 L 114.2,139.3 L 114.9,140.4 L 115.9,141.4 L 117.1,142.0 L 118.4,142.4 L 118.6,142.1 L 118.9,141.0 L 119.2,140.9 L 119.8,141.2 L 120.2,141.7 L 121.6,141.8 L 122.7,141.7 L 123.6,141.7 L 123.8,141.4 L 124.4,141.3 L 124.5,141.1 L 125.2,140.9 L 125.4,140.4 L 125.2,139.8 L 125.0,138.8 L 125.1,138.1 L 125.9,137.9 L 126.3,137.4 L 126.4,136.5 L 125.9,135.3 L 125.0,134.2 L 124.4,134.0 L 123.5,134.0 L 122.6,133.0 L 121.6,132.1 L 120.8,131.9 L 120.3,131.1 L 120.0,130.1 L 120.3,129.5 L 120.7,129.4 L 121.0,129.7 L 121.4,130.1 L 121.9,130.1 L 121.7,129.6 L 120.9,128.6 L 120.5,128.0 L 120.7,127.9 L 121.7,128.1 L 121.8,127.9 L 120.6,127.1 L 120.8,126.8 L 121.0,126.3 L 120.8,125.9 L 119.7,125.1 L 118.6,124.3 L 117.6,123.4 L 116.5,122.6 L 115.4,121.7 L 114.3,121.0 L 113.2,120.5 L 112.3,119.7 L 112.0,119.1 L 111.8,117.8 L 111.1,116.7 L 110.6,115.4 L 109.7,114.3 L 108.8,113.3 L 108.2,112.1 L 108.0,110.8 L 108.4,110.4 L 108.8,110.1 L 109.1,109.4 L 109.3,108.9 L 109.2,108.0 L 108.5,106.9 L 108.1,106.5 L 108.1,105.6 L 107.9,105.0 L 108.0,104.2 L 107.8,103.7 L 108.1,103.3 L 108.9,102.8 L 110.2,102.8 L 111.2,102.9 L 112.5,103.3 L 113.7,103.8 L 114.9,104.2 L 116.2,104.1 L 117.5,103.9 L 118.4,103.8 L 119.5,102.9 L 120.0,101.7 L 120.3,100.5 L 120.9,100.9 L 121.1,100.4 L 121.0,99.8 L 120.5,99.1 L 119.7,98.6 L 119.6,97.9 L 118.8,97.0 L 118.9,96.6 L 119.3,96.3 L 119.3,95.6 L 118.4,95.2 L 117.1,94.8 L 115.7,94.3 L 114.5,94.0 L 113.2,93.9 L 111.8,93.8 L 110.6,93.4 L 109.2,93.5 L 107.9,93.9 L 106.7,94.3 L 105.4,94.6 L 104.1,95.0 L 102.7,95.2 L 101.4,94.8 L 100.0,94.5 L 98.7,94.4 L 97.4,94.2 L 97.9,91.6 L 98.0,91.2 L 98.1,91.2 L 99.2,91.3 L 100.1,91.0 L 100.7,91.0 L 100.9,90.8 L 101.5,91.0 L 102.1,90.7 L 103.0,90.1 L 104.3,89.6 L 104.6,89.7 L 104.9,90.9 L 105.3,91.0 L 106.6,90.7 L 106.9,90.8 L 107.2,91.2 L 108.2,91.6 L 109.1,92.0 L 110.0,91.7 L 110.4,92.1 L 110.7,91.8 L 110.9,91.4 L 111.8,90.4 L 112.3,90.3 L 113.4,89.5 L 114.4,88.5 L 115.2,88.0 L 115.3,87.4 L 115.1,87.1 L 113.9,86.5 L 112.5,86.3 L 112.0,85.8 L 112.0,85.6 L 113.1,85.5 L 114.0,85.0 L 114.5,85.1 L 114.6,84.6 L 114.8,84.5 L 115.4,84.7 L 115.8,84.6 L 116.7,84.6 L 117.7,84.3 L 118.0,84.3 L 118.2,84.5 L 118.3,84.9 L 118.6,85.1 L 119.0,85.4 L 120.4,85.6 L 121.6,85.5 L 122.7,85.3 L 123.8,85.2 L 124.0,85.1 L 124.2,85.7 L 124.6,85.9 L 125.0,85.5 L 125.0,85.1 L 124.6,84.6 L 124.7,84.2 L 125.3,84.4 L 125.5,84.9 L 126.8,85.3 L 127.4,85.3 L 128.2,84.9 L 128.1,84.5 L 127.0,84.1 L 127.3,83.8 L 128.2,83.4 L 128.4,83.0 L 128.3,82.5 L 128.3,82.1 L 129.6,81.8 L 130.8,81.7 L 130.9,81.2 L 130.1,80.0 L 129.9,79.5 L 130.2,79.2 L 131.5,78.8 L 132.3,78.6 L 133.3,79.0 L 134.5,79.4 L 135.9,79.1 L 137.3,79.3 L 138.3,80.1 L 139.6,80.3 L 140.9,80.4 L 142.3,80.4 L 143.6,79.9 L 144.9,79.5 L 145.6,79.6 L 146.9,80.1 L 147.3,80.4 L 147.3,81.0 L 147.0,81.2 L 146.7,81.4 L 146.5,82.6 L 147.0,82.6 L 147.3,82.7 L 147.4,83.4 L 148.1,83.9 L 149.3,84.5 L 150.7,84.8 L 151.8,84.8 L 152.2,84.5 L 152.2,84.9 L 153.5,85.0 L 153.9,84.9 L 154.3,83.5 L 154.9,82.3 L 155.2,81.1 L 155.2,79.8 L 156.5,79.4 L 157.5,78.8 L 157.9,78.3 L 158.0,77.3 L 157.7,76.2 L 157.9,75.8 L 158.7,75.3 L 159.2,75.2 L 159.6,74.9 L 160.1,75.0 L 160.1,75.3 L 160.3,75.6 L 160.5,75.7 L 160.5,76.0 L 161.0,76.2 L 162.1,77.1 L 162.4,77.1 L 162.9,76.5 L 163.0,76.2 L 163.8,75.9 L 164.3,75.9 L 164.1,75.6 L 163.6,75.3 L 164.3,74.8 L 165.3,75.6 L 166.3,76.1 L 167.5,76.5 L 168.9,76.6 L 170.1,76.9 L 170.3,77.0 L 169.7,77.7 L 170.0,78.2 L 170.7,78.9 L 170.6,79.4 L 169.8,79.4 L 169.5,79.5 L 169.2,80.1 L 168.7,80.2 L 168.3,80.4 L 168.2,80.4 L 167.9,80.3 L 167.7,80.9 L 167.8,81.4 L 168.8,82.3 L 169.2,82.7 L 169.5,83.7 L 169.9,83.9 L 171.1,83.5 L 172.5,83.1 L 172.9,83.1 L 172.8,83.5 L 172.4,84.3 L 172.3,85.3 L 173.0,86.3 L 173.8,87.0 L 174.9,87.4 L 175.0,87.4 L 175.8,87.5 L 176.3,87.6 L 176.6,87.6 L 177.0,87.9 L 177.6,87.6 L 177.9,87.5 L 178.3,87.7 L 178.5,87.7 L 178.6,87.8 L 178.7,87.9 L 179.1,87.2 L 179.6,87.7 L 180.0,87.8 L 180.4,88.4 L 180.6,89.4 L 180.7,89.7 L 181.1,90.1 L 181.6,91.0 L 182.1,91.1 L 182.4,91.4 L 183.3,92.3 L 183.6,92.6 L 183.6,93.0 L 184.2,93.5 L 185.5,94.0 L 186.1,94.6 L 186.9,95.8 L 187.8,96.8 L 188.6,97.2 L 189.1,96.8 L 189.9,95.7 L 190.2,95.4 L 190.3,96.2 L 190.5,96.7 L 191.0,97.0 L 191.5,97.0 L 191.9,97.3 L 191.9,97.6 L 192.3,97.9 L 192.4,99.0 L 192.2,99.2 L 193.0,99.6 L 193.9,99.8 L 194.3,100.7 L 195.2,101.4 L 195.6,101.8 L 196.4,102.1 L 197.0,102.3 L 197.6,102.5 L 197.8,102.1 L 198.1,101.9 L 198.3,102.1 L 199.5,101.5 L 200.5,100.9 L 201.4,100.6 L 202.4,99.8 L 203.4,98.9 L 204.2,98.5 L 204.3,99.4 L 204.1,100.7 L 204.6,100.6 L 205.8,100.3 L 206.4,99.9 L 207.0,99.1 L 208.1,98.5 L 208.9,97.7 L 209.3,97.2 L 209.6,96.4 L 209.3,95.9 L 210.0,94.9 L 209.8,93.6 L 209.4,93.3 L 208.8,93.1 L 208.6,92.4 L 208.0,91.7 L 207.9,91.3 L 208.2,91.1 L 208.4,90.6 L 208.9,90.3 L 209.9,90.2 L 210.3,89.8 L 210.9,89.9 L 211.1,90.2 L 210.9,90.7 L 210.0,91.7 L 210.0,92.4 L 210.7,93.0 L 211.7,93.4 L 212.2,93.1 L 213.2,92.1 L 213.6,91.6 L 214.4,90.8 L 215.1,90.0 L 215.5,90.0 L 215.9,90.2 L 217.2,89.8 L 217.2,90.3 L 216.9,91.7 L 216.6,93.0 L 216.3,94.3 L 216.2,95.6 L 216.7,96.4 L 217.7,97.0 L 218.2,96.9 L 219.2,95.9 L 220.0,94.8 L 220.9,93.8 L 221.9,92.9 L 222.8,91.9 L 223.8,91.0 L 224.9,90.1 L 226.6,88.7 L 227.5,86.9 L 228.0,85.7 L 228.6,84.5 L 229.3,83.2 L 230.0,82.2 L 230.5,81.9 L 230.6,82.4 L 230.8,82.2 L 231.5,81.1 L 231.9,80.2 L 231.8,79.0 L 231.0,78.0 L 230.6,77.2 L 230.9,77.0 L 232.2,76.4 L 233.4,75.9 L 234.2,75.3 L 235.3,74.5 L 235.6,74.1 L 235.9,72.7 L 236.2,72.0 L 236.1,71.4 L 235.8,70.6 L 236.5,69.5 L 236.8,68.6 L 236.7,68.0 L 236.4,67.0 L 236.6,66.7 L 237.3,66.6 L 238.1,65.5 L 238.6,64.5 L 238.9,63.3 L 239.2,61.9 L 239.3,61.8 L 239.8,62.5 L 240.6,63.6 L 240.5,64.6 L 240.4,65.9 L 240.4,67.3 L 240.4,68.5 L 239.9,69.3 L 239.8,70.3 L 240.2,70.7 L 240.6,70.6 L 241.2,70.4 L 244.0,70.3 L 244.1,70.3 L 244.2,71.5 L 244.8,71.7 L 245.1,71.1 L 245.0,70.4 L 244.8,69.7 L 245.1,68.7 L 245.8,68.7 L 246.1,69.3 L 246.1,70.6 L 246.3,71.3 L 247.0,71.6 L 248.2,71.8 L 249.5,71.7 L 250.3,71.7 L 250.7,71.4 L 251.4,71.5 L 252.4,70.6 L 253.1,70.3 L 254.4,70.2 L 255.4,69.5 L 255.8,68.9 L 256.1,67.5 L 256.7,66.6 L 257.6,66.6 L 257.8,66.2 L 257.5,64.8 L 257.3,64.4 L 256.8,63.5 L 257.0,62.6 L 257.6,62.8 L 258.6,62.6 L 258.9,63.0 L 259.1,64.3 L 259.8,64.4 L 260.7,64.0 L 260.9,63.6 L 260.7,62.3 L 260.9,61.7 L 261.6,61.1 L 261.5,60.7 L 261.1,60.4 L 261.1,59.7 L 259.9,59.0 L 258.5,58.9 L 257.5,58.9 L 257.2,58.5 L 257.7,57.3 L 257.6,56.6 L 257.1,56.2 L 256.8,56.0 L 261.4,55.6 L 265.0,55.3 L 265.5,55.0 L 266.0,55.3 L 266.4,55.2 L 266.6,55.3 L 267.5,54.4 L 268.0,54.2 L 268.1,55.0 L 268.1,55.8 L 268.5,55.6 L 268.8,55.4 L 269.0,55.6 L 269.2,55.3 L 269.4,55.0 L 269.8,54.5 L 269.9,54.1 L 270.3,53.6 L 270.8,52.4 L 271.6,51.5 L 271.8,51.6 L 272.2,52.1 L 272.2,53.4 L 272.1,54.4 L 272.1,54.7 L 272.8,55.4 L 273.2,55.3 L 273.4,54.7 L 272.7,53.5 L 272.9,53.2 L 273.2,53.6 L 273.8,53.6 L 273.9,55.0 L 273.9,56.0 L 273.7,57.0 L 274.0,57.6 L 275.0,58.1 L 276.4,58.2 L 277.6,58.6 L 277.9,58.7 L 278.6,58.2 L 278.6,58.7 L 278.7,59.1 L 279.3,58.9 L 279.7,58.9 L 279.8,59.2 L 279.8,59.7 L 279.4,59.8 L 279.1,60.4 L 279.3,60.6 L 280.0,60.7 L 280.5,61.9 L 281.3,62.4 L 281.9,62.2 L 282.3,61.4 L 282.3,60.2 L 281.9,59.3 L 282.6,59.3 L 282.9,58.8 L 283.0,58.1 L 283.4,58.3 L 283.5,57.7 L 283.7,57.2 L 284.0,57.0 L 284.2,57.7 L 284.2,59.1 L 283.9,60.5 L 284.0,61.6 L 284.8,61.6 L 285.4,61.4 L 285.3,61.0 L 285.2,60.5 L 285.4,60.4 L 286.8,60.5 L 287.1,60.2 L 287.3,59.8 L 288.5,58.9 L 288.7,58.7 L 288.9,58.3 L 289.2,57.0 L 289.6,55.6 L 290.3,54.6 L 290.7,54.3 L 291.3,55.3 L 291.9,55.4 L 292.0,55.1 L 291.3,54.5 L 291.4,54.3 L 292.3,54.4 L 292.7,54.0 L 293.3,53.1 L 293.8,52.9 L 294.4,51.8 L 295.1,51.1 L 296.1,51.1 L 296.4,51.4 L 296.1,52.2 L 295.7,53.4 L 295.5,54.6 L 295.4,56.0 L 295.4,57.4 L 295.6,58.6 L 295.4,59.3 L 295.7,59.4 L 295.4,60.7 L 295.5,61.1 L 296.0,61.1 L 296.1,61.5 L 296.1,62.9 L 296.0,64.2 L 295.7,65.6 L 295.6,67.0 L 295.3,68.2 L 294.7,69.5 L 294.6,70.2 L 294.7,71.0 L 295.4,72.2 L 296.0,72.9 L 296.6,73.9 L 297.3,75.1 L 297.6,75.2 L 297.8,75.1 L 298.0,76.0 L 298.7,76.1 L 299.3,75.7 L 300.1,74.6 L 300.8,73.4 L 301.8,72.5 L 302.9,71.8 L 304.0,71.0 L 305.0,70.0 L 305.0,69.4 L 306.0,68.7 L 307.0,67.8 L 308.1,67.0 L 309.0,65.9 L 310.0,64.9 L 310.5,63.6 L 311.1,62.5 L 311.7,61.3 L 312.1,60.6 L 312.2,60.7 L 312.1,62.1 L 312.2,62.9 L 312.5,63.0 L 312.4,64.0 L 312.7,64.0 L 313.2,63.9 L 313.4,64.1 L 313.8,64.1 L 313.9,65.0 L 314.1,65.2 L 313.4,66.3 L 313.4,67.1 L 313.9,67.6 L 314.4,67.4 L 314.5,67.6 L 314.0,68.9 L 313.5,70.1 L 313.0,71.3 L 313.0,72.4 L 313.3,73.1 L 313.7,73.3 L 314.5,73.3 L 315.3,73.9 L 315.9,73.9 L 317.1,73.6 L 317.2,74.2 L 317.2,74.5 L 317.5,74.6 L 318.7,74.5 L 320.0,74.0 L 320.4,73.9 L 321.1,73.9 L 322.2,73.4 L 322.5,73.2 L 323.2,73.2 L 324.3,72.5 L 324.7,71.8 L 325.0,71.0 L 326.0,70.0 L 326.2,69.8 L 326.5,69.5 L 326.8,68.6 L 327.5,67.8 L 328.0,67.8 L 328.0,68.7 L 328.0,69.9 L 328.4,70.1 L 328.7,70.3 L 328.2,71.2 L 328.7,71.6 L 328.4,72.4 L 328.0,72.8 L 327.3,72.5 L 326.4,72.7 L 325.5,73.4 L 324.8,73.9 L 324.6,74.6 L 324.9,74.7 L 325.5,75.1 L 325.6,75.6 L 325.0,76.2 L 324.1,76.4 L 324.0,77.0 L 324.2,77.7 L 323.4,78.8 L 323.3,79.2 L 323.7,79.7 L 323.6,81.1 L 323.8,81.3 L 325.0,81.6 L 326.1,81.5 L 327.3,81.8 L 328.7,81.7 L 329.3,82.0 L 330.1,82.2 L 330.7,82.4 L 331.2,83.0 L 332.2,83.4 L 332.9,83.2 L 333.2,82.7 L 334.5,82.3 L 335.0,82.0 L 335.1,81.1 L 335.0,80.1 L 334.8,79.5 L 333.7,78.8 L 333.0,78.1 L 332.8,77.5 L 334.0,76.9 L 335.2,76.5 L 336.1,76.5 L 336.4,76.9 L 336.2,77.1 L 335.2,77.8 L 334.7,78.1 L 334.9,78.4 L 336.3,78.5 L 337.7,78.7 L 338.1,78.4 L 338.2,77.1 L 338.7,75.9 L 339.2,74.6 L 339.5,74.1 L 340.2,74.0 L 340.2,74.8 L 339.6,76.1 L 339.2,77.4 L 339.1,78.5 L 339.3,79.4 L 339.2,80.7 L 339.2,82.1 L 338.8,82.0 L 338.6,83.2 L 338.8,83.5 L 339.8,83.8 L 340.3,83.4 L 341.1,82.5 L 342.0,81.4 L 342.8,80.7 L 343.2,80.8 L 343.3,81.3 L 342.9,82.6 L 342.9,83.9 L 343.1,84.5 L 343.4,84.9 L 342.4,85.0 L 342.2,85.5 L 342.1,86.4 L 341.6,86.6 L 341.4,87.2 L 341.5,87.8 L 341.8,87.8 L 342.6,86.8 L 343.0,86.8 L 343.8,87.6 L 343.9,87.6 L 344.2,87.5 L 344.6,87.3 L 344.7,87.3 L 345.2,86.7 L 345.4,86.9 L 345.7,88.1 L 345.9,88.4 L 345.8,88.8 L 346.2,89.2 L 346.8,89.3 L 347.5,89.1 L 348.6,89.8 L 349.9,90.3 L 350.1,90.5 L 350.3,90.7 L 351.7,91.1 L 352.4,91.1 L 352.8,90.9 L 353.5,91.1 L 354.1,90.8 L 354.7,89.8 L 355.0,89.3 L 355.1,89.3 L 355.5,88.2 L 355.6,88.4 L 355.7,89.6 L 356.2,89.6 L 357.5,89.3 L 358.0,89.4 L 357.9,90.0 L 357.4,91.2 L 357.1,91.7 L 357.1,92.5 L 357.4,92.5 L 357.8,92.0 L 358.0,92.3 L 358.3,93.2 L 359.6,93.7 L 360.0,93.8 L 359.6,94.8 L 351.5,116.9 L 331.5,172.1 L 330.6,172.2 L 329.7,172.4 L 329.3,172.3 L 328.8,172.1 L 328.0,171.8 L 327.7,171.9 L 326.6,172.9 L 326.2,173.0 L 325.9,172.7 L 326.0,171.5 L 327.1,170.7 L 327.3,170.2 L 327.2,169.6 L 326.7,169.3 L 325.4,169.8 L 324.8,168.5 L 324.4,168.4 L 323.4,168.4 L 322.6,169.1 L 322.2,169.3 L 321.7,168.7 L 321.0,168.7 L 320.9,168.2 L 320.0,168.4 L 318.9,169.2 L 317.8,170.0 L 317.3,170.8 L 317.3,171.6 L 318.0,172.7 L 318.4,174.5 L 318.5,174.6 L 319.3,176.3 L 321.1,176.6 L 321.5,177.0 L 321.6,177.6 L 320.7,179.6 L 320.7,180.1 L 321.7,181.1 L 322.1,181.7 L 322.8,182.8 L 324.0,183.9 L 324.9,184.4 L 326.5,185.2 L 326.7,185.5 L 326.7,186.7 L 326.4,187.2 L 325.4,187.7 L 324.5,187.7 L 323.7,187.4 L 322.7,186.5 L 322.2,186.2 L 321.4,186.3 L 320.7,186.2 L 319.5,185.2 L 319.3,184.4 L 319.3,183.0 L 319.4,182.2 L 319.2,181.9 L 318.9,181.9 L 318.5,182.9 L 318.5,184.0 L 318.5,184.7 L 317.1,185.6 L 316.2,185.6 L 315.6,186.2 L 314.6,188.2 L 314.2,190.1 L 313.5,191.7 L 313.4,192.3 L 313.8,192.7 L 314.2,193.2 L 314.4,193.4 L 314.6,193.2 L 315.0,192.9 L 315.5,192.9 L 315.6,193.2 L 315.8,193.5 L 316.2,193.5 L 317.2,192.9 L 317.7,193.1 L 318.1,193.0 L 318.8,192.7 L 318.7,193.2 L 318.4,193.7 L 318.1,194.2 L 318.2,195.0 L 318.5,195.4 L 319.0,195.5 L 319.7,195.3 L 319.7,195.3 L 319.6,195.4 L 275.4,239.3 L 275.5,237.8 L 275.4,237.3 L 274.6,236.4 L 273.4,235.7 L 272.1,234.3 L 270.9,232.8 L 270.6,232.5 L 268.9,231.2 L 267.3,229.8 L 267.3,229.5 L 267.6,229.4 L 269.1,230.3 L 269.9,230.6 L 270.4,230.6 L 270.7,230.3 L 271.2,228.3 L 271.3,226.6 L 270.8,226.0 L 270.8,225.7 L 270.8,225.3 L 270.3,224.9 L 270.0,224.4 L 269.2,223.6 L 267.6,222.8 L 267.0,222.6 L 267.0,222.2 L 267.3,221.8 L 267.9,221.8 L 268.1,221.7 L 268.2,221.0 L 267.9,220.6 L 267.8,220.3 L 267.9,220.1 L 268.3,220.2 L 269.0,220.4 L 269.5,220.3 L 269.9,220.0 L 270.1,219.6 L 269.7,219.3 L 269.2,219.0 L 267.7,218.9 L 267.2,218.8 L 266.6,218.7 L 266.5,219.4 L 266.4,219.8 L 266.1,219.9 L 265.2,219.6 L 264.6,219.4 L 264.0,219.1 L 263.9,219.0 L 263.8,219.0 L 263.8,218.9 L 263.6,218.8 L 263.3,218.5 L 263.6,217.7 L 263.6,217.4 L 262.9,216.1 L 263.1,215.7 L 263.2,215.1 L 262.9,214.5 L 262.9,213.7 L 262.9,212.6 L 261.5,211.6 L 261.2,211.3 L 261.1,210.9 L 261.0,210.5 L 260.7,210.3 L 260.1,210.5 L 259.6,210.6 L 259.6,209.9 L 259.5,209.5 L 259.1,209.3 L 258.4,209.7 L 258.0,209.9 L 257.1,210.2 L 255.6,211.7 L 255.2,212.3 L 254.7,212.8 L 254.3,213.4 L 254.0,214.1 L 254.0,215.5 L 252.8,217.0 L 252.7,217.5 L 252.8,218.2 L 253.6,220.2 L 253.7,220.7 L 253.0,220.5 L 252.8,220.8 L 252.9,221.3 L 253.4,222.3 L 254.0,222.6 L 254.2,223.0 L 254.7,223.4 L 255.6,223.8 L 256.2,224.2 L 256.8,225.0 L 258.0,226.5 L 257.0,226.3 L 256.6,226.0 L 256.3,225.8 L 256.1,225.9 L 255.9,226.9 L 256.0,227.1 L 256.3,227.0 L 256.7,227.8 L 256.7,228.6 L 257.0,229.1 L 257.7,229.3 L 258.4,229.4 L 258.5,229.9 L 259.4,231.0 L 259.2,231.3 L 258.2,231.9 L 258.1,232.2 L 258.4,232.9 L 258.6,233.1 L 259.2,233.9 L 259.2,234.6 L 259.6,235.0 L 259.9,235.7 L 260.0,236.0 L 260.8,236.0 L 261.2,236.6 L 261.8,236.7 L 262.8,237.4 L 263.2,237.2 L 263.4,237.3 L 263.5,237.9 L 263.2,239.3 L 263.1,241.3 L 262.9,241.8 L 262.2,242.5 L 261.7,243.2 L 261.7,244.4 L 261.4,244.6 L 261.3,244.8 L 261.7,245.5 L 261.6,245.8 L 261.7,246.2 L 262.4,247.2 L 263.1,248.1 L 264.1,249.2 L 265.5,250.4 L 266.0,251.2 L 266.2,251.5 L 266.6,251.5 L 267.4,250.9 L 267.9,251.1 L 268.3,251.0 L 268.8,251.2 L 269.3,251.3 L 269.5,250.9 L 270.2,250.3 L 270.6,250.2 L 270.9,250.9 L 271.3,252.1 L 272.0,252.2 L 269.4,254.9 L 238.5,286.8 L 238.2,286.1 L 237.9,286.0 L 237.3,285.9 L 235.8,284.6 L 235.4,284.5 L 235.1,284.7 L 235.0,285.0 L 234.6,284.6 L 234.4,284.4 L 233.7,284.5 L 232.4,283.3 L 231.9,282.3 L 230.1,281.0 L 229.5,280.5 L 229.6,280.2 L 229.9,279.5 L 229.7,279.0 L 229.0,277.8 L 229.1,277.4 L 229.3,277.1 L 229.1,276.4 L 228.9,276.3 L 228.6,276.3 L 228.1,275.9 L 227.6,275.2 L 227.1,275.0 L 225.7,274.7 L 225.4,274.6 L 224.6,275.2 L 224.0,275.6 L 223.6,276.5 L 223.4,277.3 L 223.6,277.6 L 224.8,278.2 L 225.0,278.6 L 225.1,279.3 L 225.3,279.9 L 225.1,280.2 L 224.7,280.5 L 224.4,281.3 L 224.3,281.7 L 224.0,282.0 L 224.2,282.4 L 224.3,283.0 L 224.1,283.3 L 223.6,283.7 L 222.9,283.8 L 222.4,283.6 L 221.7,282.9 L 221.4,281.9 L 221.2,281.4 L 220.9,281.5 L 220.5,281.7 L 219.8,281.5 L 219.7,281.8 L 219.8,284.1 L 220.5,285.1 L 221.5,285.5 L 222.0,285.9 L 222.0,286.4 L 221.9,286.8 L 220.6,286.6 L 219.6,287.0 L 218.9,287.1 L 218.8,287.4 L 218.7,288.0 L 218.4,289.2 L 218.3,289.3 L 218.3,289.3 L 218.4,290.2 L 218.8,291.1 L 219.2,292.1 L 219.7,292.5 L 219.8,292.9 L 219.3,293.0 L 219.0,293.3 L 218.9,293.5 L 218.4,293.5 L 218.2,294.0 L 218.3,294.3 L 219.5,295.0 L 219.6,295.3 L 219.3,295.9 L 219.0,296.2 L 218.2,296.1 L 218.1,295.8 L 217.8,296.1 L 217.7,296.5 L 217.3,296.8 L 217.3,297.1 L 216.9,297.4 L 216.9,297.8 L 218.1,298.0 L 218.3,298.1 L 218.3,298.4 L 217.6,298.9 L 216.6,299.3 L 216.7,299.6 L 217.1,299.9 L 216.7,301.6 L 216.9,302.3 L 217.1,302.8 L 216.9,303.7 L 216.7,304.3 L 216.4,304.6 L 216.5,305.2 L 216.7,305.6 L 216.7,306.4 L 216.8,307.0 L 216.2,307.3 L 147.1,348.9 L 147.0,348.5 L 147.0,348.2 L 147.5,347.7 L 147.5,347.5 L 147.7,346.5 L 147.2,346.3 L 146.5,346.1 L 145.3,346.2 L 144.8,346.2 L 144.2,346.3 L 142.4,346.4 L 140.2,346.5 L 138.0,346.6 L 137.2,346.2 L 136.4,346.0 L 134.7,345.9 L 134.3,345.9 L 133.9,346.0 L 133.6,344.9 L 135.8,345.1 L 136.2,344.6 L 136.7,344.9 L 137.6,345.2 L 137.6,344.7 L 138.5,344.5 L 138.7,344.4 L 138.8,343.7 L 139.0,343.6 L 139.4,343.9 L 139.9,344.1 L 140.2,344.0 L 140.0,343.9 L 141.1,343.0 L 141.4,342.7 L 140.9,342.5 L 140.4,342.2 L 138.6,342.0 L 138.5,341.6 L 138.1,341.5 L 137.8,341.3 L 137.7,340.4 L 137.9,340.2 L 139.0,340.1 L 139.8,340.2 L 140.0,340.2 L 140.1,339.6 L 140.0,339.0 L 139.4,338.8 L 139.2,338.1 L 138.9,337.8 L 138.3,337.6 L 137.8,337.4 L 137.3,337.4 L 140.8,334.8 L 140.9,334.5 L 141.6,334.6 L 141.9,334.3 L 143.2,334.0 L 143.7,333.6 L 144.3,334.0 L 144.5,333.8 L 144.8,333.9 L 144.9,333.6 L 144.9,333.3 L 146.0,333.6 L 146.2,334.1 L 146.5,334.3 L 147.1,334.2 L 148.3,334.4 L 149.0,334.1 L 149.3,333.8 L 149.3,333.4 L 149.0,333.1 L 147.5,333.3 L 147.5,332.8 L 146.9,332.3 L 146.8,332.1 L 147.2,331.9 L 147.3,331.8 L 147.5,331.8 L 148.1,331.9 L 148.3,331.8 L 148.4,331.6 L 148.4,331.4 L 147.9,331.5 L 147.6,331.4 L 146.3,331.3 L 146.3,331.1 L 146.7,330.8 L 148.3,330.9 L 149.2,331.2 L 149.8,331.3 L 150.4,331.6 L 150.8,331.8 L 151.4,331.8 L 151.8,331.5 L 152.5,330.9 L 153.3,330.5 L 153.3,330.5 L 153.3,330.5 L 153.3,330.3 L 153.3,330.1 L 153.5,329.9 L 153.4,329.7 L 153.3,329.6 L 153.3,329.4 L 153.4,329.4 L 153.7,329.4 L 154.3,329.3 L 154.6,328.9 L 154.6,328.5 L 154.4,328.3 L 153.8,328.3 L 153.5,328.9 L 153.5,328.9 L 153.0,328.9 L 151.8,328.7 L 151.5,328.5 L 151.4,328.0 L 151.7,327.6 L 153.1,327.6 L 153.6,327.6 L 155.3,327.3 L 156.0,327.2 L 156.0,327.0 L 156.1,326.8 L 156.0,326.0 L 156.2,325.9 L 156.7,326.2 L 157.7,326.1 L 157.7,325.9 L 157.4,325.9 L 156.9,325.8 L 157.1,325.3 L 157.1,325.0 L 156.8,324.8 L 154.6,324.9 L 154.5,324.8 L 154.7,324.5 L 155.9,324.3 L 156.1,324.1 L 156.1,323.9 L 154.9,323.8 L 154.7,323.6 L 153.9,323.6 L 153.3,323.7 L 153.3,323.5 L 153.5,323.2 L 153.9,323.2 L 154.0,323.1 L 154.4,323.0 L 154.5,322.7 L 154.4,322.4 L 154.0,322.3 L 154.0,322.3 L 153.6,322.5 L 153.3,322.8 L 152.8,322.7 L 152.3,322.1 L 151.3,321.7 L 151.3,321.5 L 151.9,321.3 L 153.6,321.2 L 154.1,321.1 L 154.5,321.0 L 154.5,320.8 L 154.5,320.6 L 155.2,320.5 L 155.5,319.9 L 155.7,319.7 L 156.0,320.2 L 156.3,320.2 L 156.6,320.0 L 156.5,319.9 L 156.5,319.8 L 157.0,319.0 L 157.2,317.6 L 156.9,317.0 L 156.4,316.8 L 156.3,316.5 L 156.1,316.3 L 156.1,316.0 L 155.8,315.8 L 154.6,315.9 L 154.2,315.9 L 154.0,315.7 L 154.0,315.1 L 154.1,314.7 L 154.0,314.5 L 153.2,314.3 L 152.8,314.1 L 153.3,313.8 L 153.2,313.7 L 153.7,313.1 L 153.7,312.7 L 154.1,312.6 L 154.3,312.2 L 154.9,311.7 L 155.0,311.6 L 155.4,311.4 L 156.0,311.8 L 156.5,311.8 L 157.0,311.5 L 157.3,311.1 L 157.3,310.5 L 156.8,310.2 L 156.7,309.7 L 156.5,309.3 L 156.0,308.8 L 155.3,308.2 L 154.5,307.4 L 153.6,306.2 L 152.6,304.3 L 152.6,304.1 L 153.6,304.2 L 154.4,304.2 L 155.6,304.6 L 155.7,304.7 L 156.2,305.1 L 156.3,305.4 L 156.4,306.6 L 156.6,306.9 L 156.9,307.0 L 157.0,306.6 L 157.4,306.5 L 158.4,307.1 L 159.3,307.4 L 159.5,307.3 L 159.7,306.9 L 160.3,306.2 L 160.8,305.7 L 161.1,305.3 L 160.8,305.0 L 161.5,304.8 L 161.6,304.6 L 160.8,304.1 L 159.5,303.5 L 159.5,303.2 L 159.1,302.9 L 158.3,302.7 L 157.9,302.8 L 156.6,302.7 L 155.8,302.3 L 155.4,302.2 L 154.2,301.1 L 154.3,300.8 L 153.8,300.5 L 153.8,300.0 L 152.6,299.7 L 152.2,299.7 L 152.5,300.0 L 151.8,300.0 L 150.3,299.6 L 150.3,299.3 L 149.3,299.2 L 148.2,299.1 L 147.4,299.2 L 146.9,298.8 L 146.5,298.0 L 146.5,297.4 L 147.0,296.9 L 147.4,296.8 L 149.0,298.1 L 149.6,298.5 L 150.4,298.1 L 151.2,298.6 L 152.6,298.5 L 152.8,298.4 L 153.3,298.3 L 153.7,298.1 L 154.5,297.5 L 154.8,297.2 L 154.6,296.9 L 154.5,296.6 L 154.9,296.1 L 155.0,295.8 L 154.4,295.6 L 154.3,294.8 L 155.2,294.7 L 156.5,295.2 L 157.3,295.4 L 158.5,295.7 L 159.1,295.7 L 159.2,295.2 L 159.2,293.6 L 158.7,293.0 L 158.0,292.6 L 157.7,292.1 L 156.9,291.6 L 156.8,291.6 L 156.6,291.4 L 155.9,290.8 L 153.9,289.8 L 153.6,289.2 L 152.6,288.0 L 151.7,287.4 L 149.9,286.2 L 149.2,285.9 L 148.5,285.9 L 147.9,286.2 L 147.5,286.0 L 147.1,285.3 L 147.0,285.1 L 146.9,285.2 L 146.3,285.1 L 145.9,284.9 L 144.2,285.0 L 143.3,285.1 L 143.0,285.0 L 142.8,285.1 L 142.4,285.1 L 141.6,285.6 L 141.1,285.9 L 142.0,287.2 L 141.9,287.4 L 141.3,287.5 L 141.0,287.4 L 139.7,286.3 L 139.4,286.2 L 138.7,285.0 L 138.7,284.4 L 138.2,283.6 L 137.7,283.1 L 137.6,283.5 L 137.2,283.7 L 136.6,283.6 L 135.8,283.1 L 135.5,282.6 L 136.1,281.8 L 136.1,281.2 L 136.3,280.9 L 136.3,280.8 L 135.9,280.4 L 135.5,280.9 L 134.8,280.6 L 134.7,280.1 L 134.4,279.9 L 133.9,281.6 L 133.5,282.2 L 133.0,282.2 L 132.6,281.9 L 132.2,280.8 L 132.3,280.2 L 132.6,279.9 L 133.4,279.8 L 133.2,279.5 L 133.4,279.3 L 133.7,279.1 L 133.5,279.1 L 133.0,279.1 L 133.3,278.8 L 133.8,278.5 L 134.1,277.5 L 134.0,277.2 L 133.8,277.1 L 133.1,278.3 L 133.0,278.5 L 132.9,277.9 L 133.0,277.1 L 133.3,276.3 L 133.1,275.2 L 132.9,275.2 L 132.5,275.7 L 132.5,276.1 L 132.6,276.3 L 132.7,276.4 L 132.5,276.9 L 132.1,276.9 L 131.7,276.5 L 131.8,275.5 L 131.6,275.0 L 131.1,274.6 L 130.8,274.7 L 130.5,274.9 L 130.2,275.3 L 130.4,275.7 L 129.9,276.2 L 129.1,276.2 L 128.8,276.6 L 128.6,276.7 L 128.0,275.6 L 127.4,274.7 L 126.8,274.4 L 126.2,274.2 L 125.9,273.9 L 125.0,273.9 L 125.0,273.9 L 130.9,257.4 L 131.3,256.1 L 133.0,256.9 L 133.4,257.3 L 135.1,257.4 L 136.4,257.0 L 136.7,256.6 L 136.7,255.9 L 136.4,255.5 L 134.8,254.1 L 134.7,253.6 L 134.5,253.3 L 135.4,252.7 L 136.4,252.0 L 136.8,251.3 L 137.9,250.3 L 138.1,249.7 L 138.0,249.0 L 137.8,248.6 L 137.2,247.5 L 137.6,247.4 L 138.1,247.2 L 138.5,247.1 L 138.6,246.9 L 138.7,246.8 L 139.1,246.2 L 140.1,245.7 L 140.5,245.8 L 140.9,246.0 L 141.3,245.3 L 141.3,244.4 L 141.6,243.8 L 141.6,243.3 L 142.3,242.7 L 142.5,241.4 L 142.4,240.6 L 142.5,239.9 L 142.4,239.2 L 141.9,238.3 L 141.5,238.2 L 140.9,237.7 L 140.1,237.0 L 138.5,235.7 L 138.2,235.3 L 139.1,234.5 L 139.4,234.6 L 139.5,234.5 L 140.1,234.5 L 140.3,234.3 L 140.2,233.9 L 139.4,233.8 L 139.3,232.5 L 139.4,232.0 L 139.4,231.6 L 139.6,229.6 L 139.9,230.2 L 140.4,231.3 L 140.7,231.5 L 140.9,231.7 L 141.1,231.8 L 142.1,231.6 L 142.4,231.7 L 142.9,231.8 L 143.4,231.7 L 143.7,231.2 L 144.1,230.9 L 144.3,230.5 L 144.8,230.6 L 145.2,230.3 L 145.7,229.6 L 145.7,229.0 L 145.1,227.7 L 145.3,227.3 L 145.0,226.7 L 143.9,225.0 L 144.1,224.7 L 144.4,224.9 L 144.8,224.9 L 145.3,224.5 L 145.2,224.3 L 145.1,224.1 L 144.5,223.7 L 144.2,223.7 L 143.6,223.0 L 143.6,222.8 L 144.1,222.4 L 144.3,222.1 L 144.4,221.9 L 145.0,222.3 L 145.7,222.8 L 145.7,222.3 L 144.9,221.3 L 145.2,221.0 L 145.6,220.7 L 145.5,220.4 L 145.1,220.1 L 144.7,219.9 L 143.9,219.7 L 143.9,219.6 L 143.6,219.6 L 142.7,219.5 L 142.4,219.8 L 141.4,215.7" fill="none" stroke="black" stroke-width="2"/>
</svg>