<?xml version="1.0" encoding="UTF-8"?>
<svg width="400" height="400" viewBox="0 0 400 400" xmlns="http://www.w3.org/2000/svg">
  <rect width="400" height="400" fill="white"/>
  <path d="M 173.1,146.1 L 172.4,145.1 L 171.4,144.1 L 170.7,143.0 L 170.0,141.9 L 169.6,140.7 L 169.3,139.4 L 169.4,138.4 L 169.3,137.5 L 169.3,136.3 L 169.4,135.0 L 169.1,134.2 L 168.5,133.2 L 167.8,132.2 L 167.3,131.5 L 167.5,130.2 L 167.3,129.4 L 166.8,129.0 L 166.3,128.6 L 165.9,127.9 L 165.7,126.6 L 165.3,125.4 L 164.5,124.3 L 164.1,123.1 L 163.6,121.9 L 163.0,121.1 L 162.1,120.1 L 161.7,119.2 L 161.8,118.8 L 161.8,118.4 L 162.4,117.2 L 162.4,116.2 L 162.0,115.0 L 161.9,114.3 L 162.3,113.8 L 163.0,113.7 L 164.3,113.9 L 165.0,113.7 L 165.7,113.6 L 166.1,113.5 L 166.9,113.5 L 167.6,112.4 L 167.8,111.6 L 167.8,110.3 L 167.1,109.2 L 166.9,108.1 L 167.1,107.8 L 167.3,107.9 L 167.9,108.1 L 168.2,107.9 L 168.1,107.2 L 167.5,106.4 L 166.5,106.1 L 165.9,105.5 L 165.5,104.7 L 165.4,103.3 L 165.0,103.0 L 163.8,102.5 L 163.2,102.1 L 162.8,101.3 L 162.7,100.1 L 162.2,98.9 L 161.8,97.6 L 161.2,96.5 L 160.4,95.3 L 159.7,94.3 L 159.2,93.1 L 159.2,92.5 L 159.3,91.2 L 159.0,90.3 L 158.5,89.1 L 157.9,88.8 L 157.1,87.8 L 156.5,86.7 L 155.8,85.5 L 155.0,84.5 L 154.7,83.7 L 154.7,83.0 L 155.3,81.8 L 154.7,81.0 L 153.7,80.2 L 152.6,79.5 L 151.4,78.8 L 150.2,78.4 L 149.2,77.6 L 147.9,77.0 L 147.1,76.9 L 146.3,76.8 L 145.9,76.5 L 146.0,75.3 L 146.2,74.0 L 145.7,72.8 L 145.4,71.6 L 145.4,70.4 L 145.1,69.1 L 145.2,68.6 L 145.7,68.5 L 146.1,68.3 L 146.0,67.5 L 146.8,66.6 L 147.0,66.0 L 146.9,64.7 L 146.5,63.4 L 146.1,62.2 L 145.4,61.3 L 144.6,60.3 L 144.2,59.0 L 144.1,58.1 L 144.3,57.1 L 144.9,56.5 L 145.7,56.3 L 145.9,56.1 L 145.6,55.6 L 145.3,55.1 L 145.4,54.5 L 145.8,54.1 L 146.3,53.8 L 146.2,53.1 L 145.2,52.7 L 143.9,52.7 L 142.9,52.9 L 141.9,53.8 L 141.4,54.2 L 140.9,54.0 L 140.5,53.2 L 140.2,51.9 L 139.6,51.3 L 138.5,50.6 L 137.5,49.7 L 137.0,49.1 L 136.8,48.4 L 136.2,47.8 L 135.6,47.4 L 135.5,47.0 L 134.7,47.1 L 133.9,46.5 L 133.9,46.0 L 133.8,45.4 L 134.5,44.4 L 134.4,44.0 L 133.4,43.3 L 132.2,42.8 L 131.2,41.9 L 130.6,41.2 L 130.3,40.6 L 130.3,40.2 L 130.3,40.0 L 130.7,40.4 L 131.6,41.4 L 132.3,41.8 L 133.5,42.2 L 134.9,42.3 L 135.7,43.0 L 136.5,43.4 L 136.8,43.4 L 136.7,42.1 L 137.0,41.6 L 137.6,41.5 L 138.2,41.8 L 138.6,42.1 L 139.1,42.7 L 140.0,43.6 L 140.9,44.6 L 141.9,45.4 L 142.3,46.1 L 142.7,47.4 L 143.3,48.3 L 144.2,48.9 L 145.3,48.9 L 146.6,48.9 L 147.3,49.2 L 148.5,49.9 L 149.6,50.5 L 150.6,51.3 L 151.5,52.3 L 152.3,53.3 L 152.8,54.5 L 153.1,55.8 L 153.9,56.6 L 154.6,57.7 L 155.4,58.8 L 156.1,59.9 L 156.9,60.9 L 157.8,61.9 L 158.5,63.1 L 159.5,63.9 L 160.2,65.0 L 160.6,66.3 L 160.8,67.6 L 160.7,68.9 L 160.6,70.3 L 160.7,71.3 L 160.6,72.2 L 160.5,73.6 L 160.7,74.8 L 161.1,76.1 L 161.9,77.2 L 162.9,78.0 L 163.2,78.6 L 163.4,79.9 L 163.9,80.8 L 164.6,81.9 L 165.3,83.0 L 166.0,84.1 L 166.6,85.1 L 167.4,85.9 L 166.3,85.9 L 166.1,86.6 L 166.9,86.7 L 168.0,86.3 L 168.1,86.3 L 168.4,86.4 L 168.7,86.5 L 168.6,86.7 L 167.5,87.3 L 166.3,87.8 L 165.0,88.0 L 163.7,88.2 L 162.8,88.3 L 162.6,88.9 L 162.2,89.2 L 162.3,90.1 L 162.5,90.3 L 163.7,90.9 L 164.5,91.1 L 164.9,90.9 L 165.0,91.5 L 166.0,92.4 L 166.7,92.5 L 168.0,92.4 L 168.8,92.8 L 169.4,93.7 L 169.8,94.5 L 170.5,94.8 L 170.9,94.4 L 170.9,95.1 L 172.3,95.1 L 173.6,95.1 L 174.9,95.3 L 175.6,95.8 L 176.1,96.5 L 176.2,97.9 L 177.3,98.7 L 177.2,99.4 L 177.2,100.0 L 177.2,100.2 L 177.6,100.7 L 178.9,100.9 L 179.8,101.4 L 180.0,102.2 L 180.3,103.4 L 180.5,104.7 L 180.6,106.0 L 181.0,106.8 L 181.9,107.7 L 182.7,108.8 L 183.6,109.8 L 184.5,110.7 L 185.5,111.5 L 186.5,112.4 L 187.6,112.9 L 189.0,112.8 L 189.7,113.1 L 190.9,113.8 L 191.9,114.6 L 193.0,115.3 L 193.2,115.6 L 193.0,116.0 L 192.6,115.9 L 192.0,115.8 L 191.9,116.0 L 192.0,116.5 L 192.5,117.5 L 193.5,117.9 L 194.7,118.4 L 196.0,118.7 L 197.0,119.5 L 197.9,120.4 L 198.0,121.1 L 197.5,122.0 L 196.8,122.6 L 195.7,123.2 L 195.2,123.7 L 194.9,124.5 L 194.8,125.0 L 195.0,126.2 L 195.6,127.1 L 196.2,127.5 L 197.6,127.6 L 198.9,127.6 L 199.8,127.5 L 201.0,128.0 L 202.2,128.5 L 202.7,129.1 L 202.5,129.9 L 201.5,130.7 L 200.4,131.3 L 200.0,131.8 L 200.1,132.2 L 201.4,131.9 L 202.2,132.1 L 202.4,132.6 L 202.3,133.6 L 201.8,134.8 L 201.6,136.1 L 201.5,137.4 L 201.8,138.7 L 201.9,139.8 L 202.0,141.1 L 202.2,142.3 L 201.9,143.0 L 201.7,143.6 L 201.7,144.7 L 202.3,145.9 L 202.5,147.1 L 203.0,148.2 L 203.8,149.3 L 204.1,150.1 L 204.7,150.7 L 205.3,151.9 L 205.7,152.5 L 205.5,153.8 L 205.6,154.4 L 206.5,155.5 L 207.0,156.5 L 207.5,157.7 L 208.3,158.5 L 208.6,158.8 L 209.2,159.4 L 210.3,160.3 L 211.3,161.1 L 212.5,161.7 L 213.0,161.7 L 213.6,161.3 L 214.2,161.7 L 215.3,162.4 L 216.1,162.8 L 217.0,162.5 L 217.8,162.3 L 218.5,162.2 L 219.1,161.4 L 219.9,160.3 L 220.4,159.8 L 220.9,159.4 L 221.5,158.4 L 221.9,158.4 L 222.6,158.3 L 222.9,158.4 L 223.0,159.3 L 223.6,159.5 L 224.4,159.1 L 225.2,159.4 L 226.2,159.1 L 227.3,158.3 L 227.9,158.0 L 229.0,158.3 L 229.9,159.3 L 230.6,160.4 L 230.8,160.8 L 231.1,161.5 L 231.2,162.5 L 230.9,163.7 L 230.8,165.1 L 230.7,166.1 L 230.4,166.3 L 229.1,166.1 L 228.0,166.6 L 227.1,167.5 L 226.5,168.6 L 226.1,169.9 L 225.4,171.0 L 225.2,172.0 L 225.5,172.6 L 226.2,173.1 L 226.1,174.4 L 226.2,175.7 L 226.6,177.0 L 226.9,177.6 L 228.0,178.3 L 228.8,178.9 L 228.6,179.7 L 228.2,180.0 L 227.4,180.2 L 227.2,181.0 L 227.3,182.3 L 227.8,183.6 L 228.7,184.5 L 229.7,185.4 L 230.8,186.1 L 231.8,186.9 L 232.2,187.5 L 232.9,188.6 L 232.8,189.3 L 232.4,190.3 L 232.7,191.6 L 233.4,192.6 L 234.3,193.3 L 235.2,194.1 L 236.1,194.8 L 237.1,194.9 L 237.8,195.0 L 238.1,195.4 L 238.2,196.7 L 238.6,197.3 L 239.3,197.9 L 240.1,197.9 L 240.9,197.4 L 241.2,196.7 L 241.0,196.2 L 240.2,195.3 L 240.4,194.8 L 240.8,194.2 L 240.8,193.4 L 240.4,192.2 L 240.5,191.0 L 241.2,189.9 L 242.1,189.2 L 242.8,188.9 L 243.7,189.3 L 244.2,189.2 L 244.4,189.3 L 244.5,189.5 L 244.3,190.8 L 244.3,191.4 L 244.7,191.8 L 245.4,191.8 L 245.3,192.2 L 244.7,192.9 L 243.8,193.7 L 243.9,194.1 L 244.1,194.6 L 244.5,195.8 L 244.9,197.0 L 245.5,197.6 L 246.1,197.6 L 246.9,197.3 L 247.9,196.5 L 248.7,195.5 L 249.4,195.2 L 250.5,195.2 L 251.0,195.7 L 251.5,196.9 L 251.6,197.8 L 251.6,198.8 L 252.6,199.7 L 253.0,200.1 L 253.1,200.9 L 252.7,201.4 L 252.1,201.8 L 252.0,202.5 L 252.2,203.1 L 253.5,203.4 L 254.7,203.8 L 256.0,204.2 L 256.2,204.4 L 256.1,204.8 L 256.7,205.0 L 257.3,204.6 L 258.5,205.1 L 258.7,205.6 L 258.5,206.0 L 257.2,206.5 L 256.9,206.8 L 256.6,207.6 L 257.0,207.9 L 258.3,208.3 L 259.5,208.9 L 259.6,209.3 L 259.1,209.7 L 258.1,209.7 L 258.0,210.4 L 258.3,210.9 L 259.4,211.4 L 260.1,211.5 L 260.9,211.2 L 261.7,211.4 L 262.9,211.9 L 264.3,212.1 L 265.0,212.4 L 265.9,213.3 L 267.0,214.0 L 267.6,215.0 L 267.4,215.4 L 267.8,215.6 L 268.6,215.7 L 268.9,216.1 L 269.0,216.2 L 269.3,217.0 L 269.7,217.5 L 269.5,217.9 L 268.6,218.3 L 267.9,218.2 L 266.8,218.0 L 266.1,217.9 L 264.9,217.5 L 263.7,217.4 L 263.5,217.7 L 263.7,218.9 L 264.2,219.4 L 265.0,220.1 L 265.5,220.7 L 266.2,221.0 L 267.4,220.8 L 268.2,220.7 L 268.9,221.3 L 269.7,222.3 L 269.4,222.6 L 268.8,222.8 L 267.4,222.8 L 266.6,223.1 L 265.7,223.7 L 264.3,224.0 L 263.5,224.6 L 262.5,225.4 L 261.6,226.4 L 260.6,227.1 L 259.8,227.4 L 258.5,227.2 L 257.2,227.3 L 255.9,227.5 L 254.6,227.7 L 253.4,228.2 L 252.8,228.7 L 252.6,229.8 L 252.8,231.1 L 252.6,231.5 L 252.5,231.6 L 252.2,231.7 L 251.6,231.2 L 250.8,230.1 L 249.9,229.3 L 249.5,229.1 L 248.9,229.2 L 247.9,230.2 L 247.4,230.3 L 246.3,230.0 L 245.5,229.8 L 245.1,230.1 L 244.9,230.9 L 245.0,231.7 L 245.5,232.9 L 245.4,233.3 L 245.0,233.3 L 244.4,232.7 L 243.8,231.6 L 242.9,230.7 L 242.5,231.1 L 241.7,232.2 L 241.2,233.4 L 240.9,234.7 L 240.5,235.9 L 239.9,237.1 L 239.6,237.5 L 239.2,237.4 L 238.9,237.2 L 238.3,237.4 L 238.1,237.1 L 238.3,235.7 L 238.4,234.4 L 238.5,233.1 L 238.6,231.8 L 238.6,230.4 L 238.7,229.2 L 238.3,227.9 L 238.3,226.7 L 238.1,225.5 L 237.6,224.3 L 237.5,223.0 L 237.2,221.8 L 236.9,220.4 L 236.5,219.2 L 236.0,218.0 L 235.5,216.8 L 234.9,215.6 L 234.0,214.8 L 233.7,214.4 L 233.6,213.6 L 233.9,213.1 L 234.4,213.0 L 235.1,213.3 L 235.3,213.1 L 235.7,212.1 L 236.0,212.0 L 236.4,212.2 L 236.9,213.2 L 237.1,213.3 L 237.5,213.6 L 238.0,213.4 L 238.2,213.3 L 238.8,212.8 L 238.7,211.9 L 238.2,210.7 L 237.6,209.6 L 236.8,208.5 L 236.4,208.2 L 235.7,208.1 L 234.9,208.4 L 234.5,207.9 L 234.0,206.7 L 233.5,205.5 L 232.9,204.4 L 232.0,203.4 L 231.0,202.6 L 230.3,202.3 L 229.7,202.1 L 229.5,201.8 L 230.1,201.0 L 229.7,199.8 L 229.5,198.4 L 228.9,197.3 L 228.5,196.6 L 228.1,195.3 L 227.3,194.3 L 226.4,193.4 L 225.8,192.2 L 225.4,191.0 L 224.5,190.0 L 223.6,188.9 L 223.2,187.8 L 222.6,186.7 L 222.0,186.0 L 221.5,185.5 L 221.5,184.3 L 220.9,183.2 L 220.2,182.1 L 219.4,181.1 L 218.2,180.4 L 217.6,179.9 L 217.3,178.7 L 216.8,177.7 L 216.8,176.5 L 216.4,175.3 L 215.8,174.1 L 215.0,173.1 L 214.4,172.0 L 213.8,171.3 L 212.8,170.5 L 211.6,170.0 L 210.5,169.3 L 209.4,168.4 L 208.8,167.3 L 208.1,166.2 L 207.6,165.0 L 207.1,164.3 L 206.0,163.6 L 205.6,163.1 L 205.3,161.9 L 205.4,160.6 L 205.2,160.2 L 204.2,160.1 L 203.6,160.1 L 202.6,159.1 L 201.6,158.3 L 201.5,158.2 L 200.5,157.5 L 199.5,156.8 L 198.4,156.0 L 198.2,155.0 L 197.6,154.9 L 197.1,155.0 L 196.5,155.6 L 195.3,155.6 L 194.6,156.2 L 194.2,157.0 L 194.2,157.5 L 194.1,158.3 L 194.1,159.4 L 193.8,160.7 L 193.9,162.0 L 194.1,163.3 L 194.4,164.6 L 194.6,165.9 L 194.8,167.2 L 195.0,168.4 L 195.4,169.7 L 195.8,170.9 L 196.1,172.2 L 196.4,173.4 L 196.6,174.7 L 196.8,176.0 L 197.1,177.2 L 197.6,178.5 L 197.9,179.7 L 198.2,181.0 L 198.4,182.3 L 198.8,183.1 L 199.4,183.6 L 200.1,184.0 L 200.9,185.1 L 201.8,186.1 L 202.8,186.9 L 203.9,187.7 L 204.1,188.5 L 204.4,189.2 L 204.8,190.1 L 205.3,191.3 L 206.0,191.9 L 207.0,192.7 L 207.4,192.9 L 208.4,193.2 L 209.3,194.0 L 210.5,194.7 L 211.2,195.2 L 211.7,196.3 L 212.2,197.1 L 212.9,198.2 L 213.9,199.0 L 214.6,200.0 L 214.5,200.2 L 213.6,200.2 L 212.3,199.8 L 211.1,199.3 L 210.4,199.1 L 210.1,199.5 L 210.2,200.6 L 210.6,201.6 L 211.5,202.6 L 212.4,203.5 L 212.4,204.3 L 211.9,205.2 L 210.9,205.9 L 210.1,206.5 L 210.0,207.2 L 210.1,208.4 L 210.1,209.8 L 210.1,210.8 L 210.1,211.1 L 209.8,212.3 L 209.5,213.3 L 209.8,214.4 L 210.2,214.6 L 210.9,214.5 L 211.6,214.9 L 211.9,215.6 L 212.1,216.5 L 212.4,217.5 L 212.3,218.8 L 212.4,220.1 L 212.5,221.4 L 212.8,222.7 L 213.3,223.9 L 213.9,225.1 L 214.4,226.2 L 214.6,227.6 L 214.7,228.8 L 214.8,229.9 L 215.2,231.1 L 215.5,232.4 L 215.8,233.7 L 216.4,234.9 L 216.6,235.6 L 216.3,236.3 L 216.1,237.1 L 216.2,238.0 L 216.2,239.0 L 215.8,239.8 L 216.1,241.2 L 216.1,242.4 L 216.1,243.1 L 216.3,243.7 L 218.0,246.4 L 218.1,246.5 L 219.0,247.3 L 220.0,248.0 L 220.5,249.1 L 221.1,250.3 L 221.7,251.2 L 222.2,251.5 L 222.8,252.2 L 223.0,252.1 L 223.3,251.0 L 223.6,250.5 L 224.1,250.4 L 224.8,250.3 L 225.4,249.8 L 226.3,250.1 L 226.9,250.6 L 227.5,251.2 L 227.9,251.4 L 228.4,252.6 L 229.2,253.5 L 230.2,254.2 L 230.9,254.3 L 231.2,253.8 L 231.7,253.3 L 232.6,252.3 L 233.9,252.1 L 234.4,252.4 L 234.8,252.9 L 234.5,253.7 L 234.1,254.8 L 233.9,256.0 L 234.0,256.7 L 234.4,257.7 L 234.2,258.3 L 233.7,259.1 L 233.4,260.3 L 232.5,261.2 L 232.5,261.6 L 233.1,262.6 L 232.9,263.1 L 232.6,264.0 L 232.7,265.1 L 233.3,266.3 L 233.1,267.5 L 233.2,268.2 L 233.9,269.4 L 234.5,270.1 L 235.6,270.8 L 236.7,271.5 L 237.6,272.3 L 238.0,273.1 L 237.8,274.1 L 237.3,274.7 L 236.3,275.2 L 235.9,276.1 L 235.5,277.3 L 235.1,277.9 L 234.7,278.1 L 234.8,278.9 L 234.9,280.0 L 234.3,280.7 L 233.3,281.3 L 233.1,282.2 L 232.9,283.2 L 232.2,284.3 L 231.8,285.5 L 231.8,286.8 L 232.1,287.7 L 232.9,288.5 L 233.6,288.7 L 233.7,288.8 L 234.0,289.6 L 234.9,290.5 L 235.2,291.1 L 235.5,292.3 L 235.5,292.5 L 235.4,293.1 L 234.7,294.2 L 234.2,294.8 L 234.1,295.6 L 233.7,295.6 L 233.3,295.5 L 233.1,295.8 L 233.3,296.3 L 234.0,296.7 L 234.3,296.9 L 234.3,297.7 L 233.9,298.0 L 233.5,297.9 L 232.9,296.7 L 232.3,295.5 L 231.5,295.0 L 231.0,295.0 L 230.7,295.9 L 230.5,297.2 L 230.7,297.9 L 230.6,298.2 L 230.4,298.5 L 230.8,299.6 L 231.1,300.9 L 231.4,302.1 L 231.4,303.1 L 231.1,303.1 L 230.3,302.4 L 229.5,301.2 L 229.0,301.1 L 228.3,301.5 L 228.0,302.1 L 227.8,303.4 L 227.2,304.6 L 226.9,305.8 L 227.0,307.2 L 227.3,308.3 L 227.6,309.6 L 227.7,310.8 L 228.0,311.9 L 228.7,313.0 L 229.2,314.1 L 229.8,315.2 L 230.6,316.2 L 231.1,317.5 L 231.6,318.1 L 231.9,318.3 L 232.3,319.6 L 232.9,320.3 L 234.0,321.1 L 234.2,321.9 L 234.3,322.3 L 234.7,323.6 L 235.2,324.7 L 236.0,325.2 L 237.3,325.0 L 238.2,325.0 L 239.4,325.1 L 239.5,324.7 L 239.7,324.6 L 240.1,324.4 L 240.1,324.0 L 239.8,323.0 L 238.8,322.4 L 238.3,322.2 L 237.6,322.0 L 237.5,321.6 L 237.6,321.1 L 237.2,320.6 L 237.2,320.0 L 237.8,319.0 L 238.2,317.8 L 238.7,317.5 L 240.0,317.4 L 240.8,317.5 L 241.5,318.7 L 242.4,319.3 L 243.4,319.8 L 244.1,320.7 L 244.3,321.3 L 244.3,321.4 L 244.1,321.6 L 242.8,321.6 L 242.6,321.9 L 242.6,322.6 L 242.5,323.1 L 242.3,324.1 L 242.7,324.8 L 243.4,325.9 L 244.1,326.4 L 245.1,327.2 L 246.3,327.7 L 247.2,327.7 L 248.5,327.7 L 249.7,327.9 L 250.8,328.2 L 251.5,328.8 L 251.8,329.6 L 251.5,330.4 L 250.8,331.2 L 250.2,331.7 L 250.3,332.4 L 250.8,333.5 L 251.1,334.2 L 251.0,335.0 L 250.3,335.2 L 250.2,335.8 L 250.0,336.3 L 249.7,337.1 L 249.3,337.1 L 248.9,337.6 L 248.2,337.5 L 246.9,337.6 L 246.6,338.0 L 246.4,338.9 L 245.3,339.0 L 244.7,340.0 L 244.9,340.7 L 245.8,341.5 L 246.9,342.0 L 248.1,342.6 L 249.2,343.3 L 249.2,344.1 L 249.0,345.4 L 249.1,345.6 L 249.9,346.6 L 250.7,347.1 L 251.5,347.1 L 251.5,346.6 L 251.8,345.7 L 252.4,344.7 L 253.1,344.9 L 253.7,345.4 L 253.8,346.2 L 254.0,346.9 L 254.8,347.6 L 255.3,347.5 L 255.6,346.7 L 256.4,346.3 L 256.5,345.9 L 256.8,345.0 L 257.1,345.1 L 257.8,345.8 L 257.7,346.0 L 257.5,346.4 L 257.4,347.2 L 257.1,347.9 L 257.2,348.3 L 258.5,348.5 L 259.0,349.1 L 259.2,349.2 L 258.8,350.6 L 258.9,351.3 L 259.9,351.8 L 260.6,352.3 L 260.4,352.5 L 260.3,353.0 L 260.8,353.5 L 260.8,353.8 L 256.5,357.0 L 255.9,357.4 L 255.9,357.4 L 255.5,357.2 L 255.5,357.1 L 254.4,356.4 L 253.8,356.4 L 253.2,356.4 L 252.6,355.7 L 251.8,355.5 L 250.4,355.7 L 249.6,355.5 L 249.5,355.0 L 250.3,354.8 L 250.5,354.2 L 250.3,353.7 L 250.2,353.2 L 250.1,353.0 L 249.4,352.8 L 248.8,352.5 L 248.2,352.5 L 248.2,352.8 L 247.7,352.8 L 247.7,353.3 L 247.7,354.0 L 247.0,354.7 L 247.1,355.1 L 247.4,355.3 L 247.2,355.6 L 246.5,356.1 L 240.9,360.0 L 240.8,358.7 L 240.7,357.4 L 240.5,356.8 L 240.4,355.4 L 240.2,354.4 L 240.1,353.7 L 240.1,352.3 L 239.8,351.4 L 239.3,350.1 L 239.0,348.9 L 238.1,348.0 L 237.2,347.1 L 236.2,346.4 L 235.5,345.6 L 235.1,344.8 L 234.3,344.2 L 234.1,342.9 L 233.6,341.8 L 232.7,341.2 L 231.7,340.4 L 231.1,340.0 L 231.2,339.4 L 231.4,338.7 L 231.0,338.3 L 230.2,338.1 L 230.1,338.3 L 229.7,338.6 L 229.2,338.5 L 229.0,338.2 L 229.1,337.9 L 229.3,337.6 L 229.0,337.1 L 229.0,336.2 L 228.7,336.0 L 228.3,336.1 L 227.7,335.0 L 227.3,334.3 L 227.5,333.7 L 227.9,333.6 L 228.5,333.8 L 229.3,334.6 L 230.0,335.5 L 230.5,335.5 L 231.2,335.1 L 231.4,334.5 L 231.3,333.3 L 231.1,332.3 L 230.6,331.7 L 229.9,331.5 L 229.7,331.4 L 229.9,331.1 L 230.8,330.7 L 230.7,329.7 L 230.2,328.5 L 229.5,327.6 L 228.7,326.9 L 228.2,325.8 L 227.7,324.6 L 227.1,323.4 L 226.6,322.3 L 225.5,321.5 L 225.5,321.3 L 225.6,321.1 L 226.1,320.4 L 226.1,319.7 L 225.8,318.4 L 225.4,317.8 L 224.4,316.9 L 223.8,315.9 L 223.4,314.7 L 222.8,313.5 L 222.2,312.3 L 221.7,311.2 L 221.2,310.7 L 219.8,311.0 L 219.1,311.4 L 219.0,311.1 L 219.0,309.8 L 218.9,308.5 L 218.7,307.3 L 218.5,305.9 L 218.4,304.7 L 218.1,303.4 L 217.6,302.3 L 217.3,301.5 L 217.2,300.5 L 216.9,300.2 L 216.1,300.0 L 215.3,299.0 L 214.7,297.8 L 214.0,296.8 L 213.0,295.9 L 212.0,295.2 L 211.5,294.6 L 211.1,293.3 L 210.7,292.1 L 210.3,291.4 L 209.3,290.6 L 208.4,290.0 L 207.6,288.9 L 207.1,288.0 L 207.3,286.8 L 207.2,286.0 L 206.8,285.6 L 205.9,285.7 L 204.7,286.1 L 203.6,286.0 L 202.4,285.6 L 201.1,285.2 L 200.0,284.6 L 198.7,284.2 L 198.0,283.7 L 198.2,282.8 L 197.1,282.7 L 197.0,282.3 L 197.3,281.8 L 197.9,281.4 L 198.5,281.5 L 198.9,281.6 L 199.0,281.3 L 198.8,280.8 L 199.2,280.4 L 199.9,280.0 L 201.2,279.7 L 202.3,278.9 L 202.7,278.5 L 202.8,277.2 L 203.1,276.4 L 203.5,275.9 L 204.1,275.6 L 204.6,274.3 L 204.6,273.9 L 203.5,273.3 L 203.1,273.0 L 203.3,272.3 L 203.2,271.9 L 202.4,270.9 L 201.8,270.2 L 201.5,269.0 L 201.0,267.8 L 200.9,267.1 L 201.0,265.8 L 200.2,265.0 L 199.3,264.1 L 198.4,263.1 L 197.7,262.1 L 197.6,261.3 L 197.9,260.7 L 198.3,260.6 L 199.1,260.5 L 199.3,260.2 L 199.1,259.5 L 198.4,258.4 L 198.1,258.0 L 198.4,257.3 L 198.4,256.0 L 198.5,254.7 L 198.0,253.8 L 197.3,253.6 L 196.9,253.5 L 196.9,252.6 L 196.9,252.0 L 195.8,251.2 L 194.9,250.2 L 194.0,249.4 L 193.0,248.4 L 192.3,247.4 L 191.9,246.5 L 192.0,245.8 L 192.3,245.1 L 192.2,244.3 L 192.0,244.1 L 191.1,243.9 L 189.9,243.7 L 188.8,242.8 L 188.0,241.7 L 187.4,240.6 L 187.5,239.9 L 188.0,238.7 L 188.4,238.3 L 189.3,238.7 L 189.7,238.3 L 189.1,237.8 L 188.8,237.5 L 189.1,237.0 L 190.2,236.4 L 190.2,236.0 L 189.4,235.9 L 188.5,235.6 L 188.5,235.4 L 188.5,235.3 L 189.4,235.3 L 190.1,235.1 L 190.4,234.7 L 191.1,233.7 L 191.9,233.4 L 192.5,232.6 L 192.9,232.3 L 194.0,231.6 L 194.1,231.1 L 193.4,230.0 L 192.6,228.9 L 192.6,228.5 L 193.0,228.0 L 193.6,228.7 L 194.1,228.6 L 195.1,227.7 L 195.0,226.6 L 194.9,226.0 L 195.7,225.0 L 196.1,225.0 L 197.2,225.7 L 197.9,226.8 L 198.3,227.0 L 199.4,226.6 L 200.7,226.1 L 201.7,226.7 L 201.4,227.0 L 200.2,227.6 L 199.7,228.2 L 199.7,229.0 L 199.9,230.3 L 200.0,231.6 L 200.3,232.9 L 200.7,233.4 L 201.9,233.8 L 202.5,234.1 L 202.5,235.0 L 202.6,235.5 L 203.4,236.5 L 203.7,237.1 L 204.3,237.8 L 204.4,238.4 L 204.5,239.2 L 205.0,239.8 L 205.4,240.3 L 205.4,241.6 L 205.6,242.5 L 206.4,243.4 L 207.4,244.2 L 208.5,244.9 L 209.2,245.2 L 210.4,244.9 L 211.6,244.9 L 212.3,244.6 L 212.6,243.9 L 212.4,242.8 L 212.2,241.5 L 211.7,240.2 L 211.1,239.1 L 210.3,238.1 L 209.8,238.1 L 209.6,238.1 L 209.7,237.5 L 209.3,236.6 L 209.3,235.9 L 210.1,235.3 L 210.7,235.2 L 210.9,235.1 L 211.1,234.3 L 210.6,233.3 L 210.3,232.4 L 210.1,231.0 L 210.0,229.7 L 209.7,228.7 L 209.1,227.5 L 208.4,226.3 L 207.5,225.4 L 207.4,224.6 L 208.1,223.8 L 207.6,222.8 L 206.8,221.7 L 205.9,221.5 L 205.4,221.2 L 204.9,220.0 L 204.1,219.0 L 204.0,217.8 L 204.0,216.4 L 203.9,216.0 L 203.4,215.2 L 202.6,214.1 L 202.2,213.0 L 201.5,211.9 L 200.7,210.9 L 199.5,210.3 L 198.8,209.8 L 198.4,209.6 L 197.4,208.8 L 196.2,208.1 L 195.4,207.8 L 195.1,207.9 L 194.6,208.2 L 194.1,208.1 L 193.5,208.0 L 193.2,207.7 L 192.9,206.4 L 192.2,205.2 L 191.5,204.2 L 190.5,203.3 L 190.3,201.9 L 189.7,201.5 L 188.7,200.5 L 188.0,199.4 L 187.9,199.0 L 188.1,198.6 L 188.9,198.7 L 189.1,198.5 L 188.9,198.1 L 188.1,197.0 L 187.5,195.9 L 186.9,194.7 L 186.5,193.9 L 186.2,192.6 L 186.0,192.1 L 185.4,191.8 L 185.0,191.3 L 184.8,190.7 L 185.1,189.8 L 185.5,189.4 L 186.1,188.9 L 186.1,188.3 L 185.5,187.4 L 185.4,186.8 L 185.0,185.9 L 185.1,184.6 L 185.1,183.2 L 185.2,182.0 L 184.7,180.8 L 184.1,179.7 L 183.7,179.1 L 183.2,178.5 L 182.7,177.3 L 182.0,176.4 L 181.5,176.0 L 180.2,175.8 L 179.4,176.0 L 179.1,176.5 L 178.9,177.8 L 178.7,179.1 L 178.4,179.5 L 177.7,178.4 L 177.4,177.7 L 177.6,176.4 L 177.9,175.2 L 178.3,174.8 L 178.5,174.6 L 178.0,174.2 L 177.6,173.7 L 177.3,173.2 L 176.8,173.2 L 176.1,173.3 L 175.8,172.9 L 175.0,172.0 L 173.8,171.3 L 173.3,170.5 L 172.8,169.4 L 172.9,168.1 L 173.0,167.5 L 173.6,167.1 L 174.3,167.2 L 175.1,167.1 L 176.4,167.1 L 176.7,166.9 L 177.0,165.6 L 177.0,165.0 L 176.9,163.7 L 176.5,162.9 L 175.4,162.1 L 174.5,161.2 L 173.7,160.6 L 172.6,159.9 L 171.9,159.4 L 171.7,159.3 L 171.0,158.3 L 170.8,157.0 L 170.2,156.1 L 169.8,155.3 L 169.6,155.0 L 168.8,153.9 L 168.6,153.4 L 169.1,152.6 L 169.8,152.2 L 171.0,152.0 L 171.7,152.1 L 172.5,152.8 L 172.8,152.9 L 173.1,152.9 L 173.4,152.4 L 173.9,152.2 L 174.0,151.8 L 173.3,150.8 L 173.6,149.8 L 174.1,149.8 L 174.4,149.7 L 174.1,148.6 L 174.2,147.4 L 174.1,147.0 L 173.1,146.1 L 173.1,146.1" fill="none" stroke="black" stroke-width="2"/>
</svg>