<?xml version="1.0" encoding="UTF-8"?>
<svg width="400" height="400" viewBox="0 0 400 400" xmlns="http://www.w3.org/2000/svg">
  <rect width="400" height="400" fill="white"/>
  <path d="M 40.0,264.7 L 40.3,264.4 L 40.4,261.2 L 40.0,257.6 L 41.8,257.2 L 43.7,257.6 L 45.2,256.7 L 47.0,256.4 L 47.9,255.0 L 47.9,252.1 L 47.5,249.8 L 49.2,247.1 L 49.7,245.2 L 51.8,243.8 L 53.6,239.5 L 54.2,235.7 L 54.0,234.0 L 55.6,232.3 L 57.3,227.3 L 59.1,225.4 L 62.4,224.7 L 64.1,227.0 L 64.8,224.8 L 65.8,222.3 L 67.3,219.9 L 68.3,218.9 L 68.2,216.9 L 67.4,217.0 L 66.4,217.8 L 65.0,217.3 L 64.0,215.5 L 63.3,216.3 L 61.6,218.4 L 58.2,219.9 L 57.2,219.5 L 58.0,217.0 L 59.9,214.2 L 64.3,211.5 L 67.4,207.2 L 67.4,205.5 L 67.0,203.1 L 70.2,199.1 L 71.1,195.8 L 70.8,190.7 L 71.3,188.9 L 70.7,188.3 L 69.8,187.9 L 69.5,185.6 L 70.6,185.2 L 74.6,184.3 L 78.0,182.6 L 83.3,181.5 L 86.4,179.8 L 89.0,178.1 L 88.8,176.1 L 87.9,174.8 L 92.7,173.2 L 96.7,172.6 L 99.0,172.3 L 99.5,167.5 L 100.3,162.2 L 100.7,158.8 L 102.4,157.9 L 105.4,156.3 L 106.4,154.9 L 106.1,152.0 L 110.6,151.3 L 115.1,149.4 L 116.7,150.2 L 118.0,151.1 L 121.4,147.0 L 122.5,143.6 L 122.5,138.4 L 122.8,136.8 L 124.7,137.3 L 125.1,134.0 L 126.4,135.1 L 127.0,134.3 L 127.6,132.7 L 128.8,132.7 L 129.6,133.6 L 132.6,129.7 L 133.2,126.4 L 135.6,125.2 L 135.7,124.6 L 136.0,123.0 L 135.7,122.5 L 132.5,122.0 L 130.1,119.7 L 128.0,116.2 L 129.3,116.1 L 133.2,117.8 L 135.0,116.6 L 134.7,111.5 L 135.9,110.0 L 138.4,108.7 L 139.8,109.4 L 140.9,110.8 L 143.1,110.0 L 143.5,104.9 L 143.6,99.7 L 142.6,94.6 L 143.3,91.0 L 148.6,91.4 L 153.7,91.7 L 154.1,92.3 L 153.8,97.3 L 153.4,102.6 L 152.9,107.7 L 152.5,112.8 L 151.7,117.1 L 146.6,117.6 L 142.7,118.3 L 145.4,118.7 L 150.4,118.4 L 153.3,117.8 L 153.7,112.5 L 154.2,107.4 L 155.0,103.1 L 160.3,103.3 L 161.3,102.6 L 161.7,103.5 L 163.0,104.0 L 162.9,109.2 L 162.5,114.4 L 162.8,116.1 L 164.3,116.7 L 163.0,120.5 L 161.8,123.8 L 161.8,127.0 L 161.7,128.8 L 162.6,133.9 L 162.8,138.4 L 165.0,143.2 L 167.5,142.6 L 170.4,141.4 L 173.4,140.3 L 173.2,143.2 L 175.9,143.7 L 176.7,143.7 L 177.2,141.4 L 177.3,136.3 L 176.9,131.0 L 177.2,128.4 L 179.1,128.4 L 182.4,128.5 L 183.5,128.9 L 184.7,129.2 L 184.3,134.3 L 181.6,138.9 L 179.4,143.5 L 177.2,148.2 L 174.6,152.8 L 174.7,153.4 L 176.8,153.8 L 179.3,149.2 L 181.5,144.7 L 182.3,143.7 L 187.0,146.2 L 190.6,148.2 L 188.2,152.9 L 186.0,157.6 L 184.5,159.7 L 181.1,159.3 L 176.0,158.0 L 175.0,158.3 L 175.3,159.2 L 179.9,161.3 L 183.2,162.8 L 188.5,162.9 L 192.9,162.1 L 195.9,160.1 L 198.4,155.7 L 199.7,154.1 L 203.0,154.2 L 207.6,154.0 L 212.6,152.9 L 213.0,152.9 L 216.7,151.2 L 221.1,148.7 L 225.6,146.1 L 229.0,144.4 L 230.0,139.3 L 231.9,135.3 L 234.6,133.8 L 235.8,133.5 L 237.2,133.0 L 239.1,130.6 L 240.4,128.3 L 241.3,126.0 L 245.6,123.0 L 247.3,121.7 L 250.0,120.8 L 251.7,118.4 L 251.1,116.5 L 250.6,114.1 L 251.4,111.6 L 253.0,109.4 L 255.2,105.7 L 258.6,103.0 L 260.9,102.3 L 260.5,103.1 L 256.7,106.4 L 255.2,108.1 L 257.6,107.3 L 262.0,104.5 L 263.5,103.0 L 264.5,101.8 L 263.5,100.7 L 264.3,100.1 L 266.5,99.9 L 268.7,98.6 L 271.2,97.3 L 274.1,95.2 L 277.2,94.8 L 278.6,89.8 L 280.1,87.7 L 283.8,85.2 L 288.3,83.7 L 288.7,83.7 L 293.5,82.1 L 298.8,81.4 L 303.9,81.6 L 308.9,82.2 L 313.8,82.2 L 318.8,82.0 L 324.2,82.0 L 329.2,81.8 L 334.2,81.0 L 339.4,80.1 L 342.7,80.3 L 347.7,81.6 L 352.7,82.9 L 357.9,83.4 L 360.0,83.5 L 359.5,86.6 L 358.4,88.3 L 357.8,88.5 L 357.5,88.5 L 353.0,91.0 L 351.9,90.9 L 347.9,87.6 L 344.9,87.5 L 339.8,88.7 L 335.9,89.0 L 333.1,88.1 L 328.0,89.2 L 323.1,89.2 L 318.0,89.2 L 313.0,90.0 L 307.9,89.8 L 303.0,90.1 L 298.0,90.5 L 293.0,91.5 L 288.3,93.9 L 284.5,97.2 L 280.7,100.6 L 277.2,104.4 L 273.8,108.2 L 270.7,112.3 L 267.1,115.9 L 263.0,119.0 L 260.6,120.9 L 258.1,124.5 L 256.7,124.3 L 255.1,124.6 L 254.4,126.0 L 255.3,128.8 L 252.9,133.2 L 252.5,135.0 L 251.8,138.4 L 251.7,143.3 L 248.8,147.8 L 246.0,152.0 L 243.5,156.5 L 241.7,160.7 L 240.8,165.9 L 239.2,170.8 L 239.1,176.0 L 239.3,178.9 L 238.8,182.2 L 241.8,183.7 L 246.4,186.1 L 251.0,188.5 L 255.7,190.6 L 260.5,192.5 L 265.2,194.9 L 269.4,198.0 L 273.4,201.2 L 276.9,205.1 L 277.1,206.6 L 276.1,208.8 L 275.7,213.9 L 277.9,216.4 L 280.5,219.8 L 283.4,220.3 L 286.3,220.3 L 288.3,222.0 L 288.1,225.0 L 286.7,230.0 L 284.7,234.8 L 282.0,237.9 L 278.3,241.3 L 274.2,244.6 L 270.6,248.1 L 271.3,249.6 L 272.1,251.1 L 271.5,252.7 L 269.4,253.2 L 266.0,251.8 L 263.6,253.2 L 263.0,254.0 L 261.4,254.7 L 261.2,256.0 L 262.4,258.6 L 260.9,259.0 L 256.0,257.6 L 253.2,257.7 L 248.9,260.3 L 247.5,262.2 L 246.2,263.9 L 244.1,264.3 L 241.4,264.4 L 239.7,267.5 L 236.5,270.2 L 235.4,271.7 L 231.9,272.8 L 231.2,277.8 L 227.4,281.3 L 225.0,283.7 L 225.2,285.5 L 225.4,287.9 L 226.0,289.8 L 229.9,292.3 L 232.1,295.3 L 229.6,299.9 L 226.5,304.0 L 224.5,305.8 L 222.0,308.2 L 221.2,312.4 L 221.1,312.4 L 105.2,319.9 L 105.8,319.2 L 107.3,317.0 L 108.5,315.7 L 109.0,311.6 L 108.5,310.6 L 103.9,312.1 L 100.1,313.4 L 97.8,314.1 L 96.5,316.7 L 97.3,317.9 L 97.6,319.1 L 96.0,319.9 L 94.4,319.6 L 93.6,315.1 L 93.9,313.7 L 95.1,311.3 L 95.6,306.2 L 96.8,301.2 L 96.7,297.3 L 96.0,295.9 L 94.4,294.8 L 94.8,292.9 L 97.6,288.5 L 98.5,283.9 L 97.7,280.0 L 97.3,278.8 L 99.3,277.2 L 100.6,275.7 L 100.6,272.7 L 98.6,272.0 L 93.5,271.6 L 88.3,272.0 L 85.2,273.6 L 84.1,275.5 L 81.3,281.6 L 80.0,284.7 L 78.2,283.8" fill="none" stroke="black" stroke-width="2"/>
</svg>