<?xml version="1.0" encoding="UTF-8"?>
<svg width="400" height="400" viewBox="0 0 400 400" xmlns="http://www.w3.org/2000/svg">
  <rect width="400" height="400" fill="white"/>
  <path d="M 129.2,220.3 L 129.4,219.9 L 131.6,215.7 L 134.0,211.6 L 135.7,211.0 L 138.1,211.5 L 140.9,211.5 L 140.9,212.1 L 137.3,214.9 L 139.1,215.5 L 140.9,214.9 L 143.7,213.0 L 144.2,211.9 L 144.7,210.9 L 149.3,211.0 L 152.0,211.4 L 154.3,210.6 L 156.3,207.7 L 158.6,207.9 L 158.6,206.5 L 157.6,206.1 L 157.0,205.9 L 156.4,202.8 L 153.5,199.0 L 150.4,195.4 L 150.4,194.1 L 152.7,193.0 L 153.3,192.3 L 152.9,189.6 L 151.7,187.9 L 149.5,187.9 L 147.5,189.2 L 146.8,191.5 L 145.9,194.8 L 144.9,195.2 L 141.7,192.7 L 140.2,194.5 L 135.7,193.4 L 133.6,193.0 L 129.5,195.2 L 125.5,197.7 L 122.7,199.0 L 122.6,197.8 L 122.5,196.5 L 121.3,184.5 L 123.9,184.4 L 125.8,183.1 L 127.0,182.7 L 128.7,180.1 L 132.7,177.4 L 132.7,174.4 L 131.7,172.5 L 133.0,172.4 L 134.2,171.8 L 135.2,171.2 L 136.1,171.2 L 136.7,169.9 L 137.8,169.9 L 137.1,167.5 L 135.7,163.5 L 134.9,160.8 L 133.5,160.8 L 130.9,162.2 L 129.2,163.4 L 125.0,162.8 L 120.3,163.4 L 115.7,164.0 L 111.2,164.5 L 108.1,164.1 L 107.7,162.6 L 108.9,159.3 L 110.8,157.7 L 111.1,155.0 L 111.3,151.5 L 112.5,151.0 L 114.2,151.7 L 115.5,153.8 L 115.7,155.1 L 117.4,155.2 L 119.2,158.3 L 121.6,161.0 L 122.3,160.8 L 123.4,159.2 L 125.1,159.9 L 127.6,160.8 L 129.1,159.8 L 129.7,157.5 L 127.5,155.1 L 127.7,152.6 L 128.8,152.3 L 131.8,155.9 L 132.7,157.1 L 132.8,158.5 L 135.2,158.5 L 135.4,154.6 L 134.9,150.9 L 134.8,148.6 L 133.7,147.9 L 131.1,150.9 L 129.4,151.1 L 129.2,146.8 L 127.4,142.5 L 125.5,139.6 L 124.1,138.4 L 124.4,136.7 L 127.1,135.3 L 128.3,131.5 L 127.4,130.4 L 124.9,130.9 L 125.6,129.7 L 127.9,127.6 L 129.2,126.2 L 129.4,124.7 L 128.7,124.5 L 125.5,125.0 L 122.0,124.6 L 117.5,123.2 L 113.8,120.2 L 114.2,118.4 L 115.1,116.7 L 115.3,115.1 L 117.4,110.7 L 117.4,109.5 L 115.6,110.8 L 114.3,113.7 L 113.3,117.4 L 111.4,119.9 L 109.9,124.5 L 108.3,127.5 L 106.6,128.8 L 105.5,128.2 L 104.5,127.9 L 103.0,128.2 L 101.6,126.9 L 100.6,127.9 L 99.7,129.4 L 95.3,129.2 L 92.0,128.0 L 90.2,125.3 L 89.5,120.5 L 89.3,115.9 L 89.7,112.9 L 92.6,109.3 L 95.9,106.4 L 97.7,106.1 L 101.3,106.7 L 104.2,105.7 L 104.7,104.6 L 102.4,101.5 L 103.5,100.3 L 105.1,100.5 L 107.5,101.9 L 108.8,103.9 L 109.9,104.1 L 110.7,102.7 L 111.8,101.1 L 113.1,101.0 L 114.8,101.5 L 116.7,101.3 L 119.0,99.4 L 119.6,96.9 L 120.9,96.2 L 121.9,96.9 L 123.2,100.3 L 124.6,100.5 L 128.8,98.2 L 130.7,96.8 L 133.1,92.6 L 135.7,88.6 L 137.5,86.0 L 136.9,84.1 L 134.8,79.8 L 132.5,75.6 L 131.2,73.6 L 131.9,72.6 L 133.5,72.0 L 135.7,69.9 L 139.9,67.8 L 143.6,66.5 L 148.3,66.6 L 151.0,67.1 L 154.6,69.3 L 156.3,68.7 L 159.3,66.3 L 160.3,63.9 L 161.2,62.6 L 161.8,59.2 L 163.8,57.4 L 165.1,56.3 L 164.5,54.8 L 160.5,52.8 L 156.1,51.6 L 152.1,50.3 L 151.6,49.7 L 151.1,48.9 L 152.2,48.6 L 153.9,49.1 L 154.3,47.6 L 155.8,47.2 L 157.6,48.0 L 158.6,47.2 L 159.4,44.7 L 160.6,44.6 L 162.9,42.5 L 164.8,42.8 L 165.2,43.6 L 165.4,45.4 L 167.4,45.8 L 172.2,46.1 L 175.5,46.8 L 177.0,47.8 L 179.4,48.5 L 183.7,47.0 L 188.5,46.4 L 190.9,46.7 L 192.8,47.9 L 195.9,47.2 L 197.2,45.6 L 199.2,42.4 L 200.5,41.3 L 201.1,40.0 L 202.6,40.5 L 202.8,41.8 L 201.0,44.4 L 200.0,45.9 L 203.2,47.0 L 205.5,47.0 L 209.5,49.4 L 212.5,49.8 L 212.7,48.9 L 217.4,49.1 L 218.5,49.4 L 221.1,49.2 L 221.4,49.2 L 225.4,46.8 L 227.4,47.6 L 229.0,51.5 L 233.2,53.9 L 237.9,55.1 L 240.3,55.7 L 243.0,54.6 L 245.5,55.1 L 247.7,56.7 L 248.0,58.5 L 247.5,60.5 L 246.0,60.6 L 243.3,60.6 L 241.7,62.3 L 241.8,64.0 L 243.3,65.6 L 247.5,67.4 L 248.0,68.2 L 246.7,69.0 L 243.2,70.7 L 243.3,71.8 L 246.3,73.1 L 250.8,74.7 L 253.8,76.7 L 255.0,77.9 L 256.4,77.6 L 257.9,77.1 L 259.5,78.0 L 259.9,79.4 L 259.7,80.9 L 259.9,81.9 L 260.0,83.6 L 259.9,85.6 L 258.6,89.7 L 258.0,90.5 L 254.3,90.4 L 251.9,92.5 L 249.8,96.1 L 249.0,97.3 L 248.0,97.6 L 248.6,98.3 L 251.4,100.5 L 253.5,104.0 L 253.3,105.5 L 252.2,105.5 L 251.5,105.5 L 252.0,106.4 L 253.5,106.9 L 255.7,111.1 L 258.5,114.9 L 259.5,116.9 L 261.5,121.0 L 263.5,123.9 L 267.5,126.5 L 268.8,129.1 L 270.1,131.8 L 272.3,134.1 L 272.3,134.5 L 272.1,155.9 L 271.4,155.9 L 268.5,157.0 L 267.8,158.2 L 267.2,160.2 L 263.1,161.5 L 261.7,161.4 L 260.3,163.0 L 260.5,164.8 L 262.7,167.8 L 266.7,170.1 L 269.4,172.6 L 272.1,173.4 L 273.5,173.2 L 276.6,175.5 L 279.5,179.4 L 283.5,182.0 L 286.1,184.3 L 286.1,186.7 L 287.5,187.4 L 288.8,187.3 L 290.1,189.8 L 290.1,193.5 L 290.9,198.2 L 291.8,201.6 L 293.4,203.8 L 293.6,208.4 L 294.3,213.1 L 294.9,217.9 L 294.6,220.2 L 297.6,223.4 L 300.5,225.7 L 302.5,226.8 L 305.3,228.7 L 305.7,228.8 L 306.0,230.7 L 310.7,281.7 L 309.1,281.7 L 306.3,282.3 L 302.3,282.0 L 300.1,283.5 L 297.5,285.3 L 293.1,287.1 L 288.8,288.8 L 284.0,289.4 L 281.0,290.9 L 276.8,292.9 L 273.9,294.5 L 270.3,296.1 L 270.1,297.2 L 270.7,299.7 L 270.9,302.6 L 273.1,305.1 L 276.9,307.1 L 281.5,308.3 L 284.9,308.3 L 284.4,309.5 L 285.9,309.7 L 286.9,309.9 L 288.2,313.1 L 287.5,313.4 L 283.8,314.1 L 282.5,315.6 L 281.5,316.2 L 282.8,318.1 L 242.5,332.9 L 242.0,333.0 L 237.7,333.5 L 233.6,332.0 L 233.0,331.1 L 233.7,330.1 L 233.8,326.5 L 231.2,328.0 L 231.2,329.4 L 231.4,330.6 L 226.9,330.6 L 223.8,331.1 L 223.4,332.2 L 222.4,333.5 L 218.7,336.6 L 218.1,337.9 L 217.5,339.7 L 215.7,340.7 L 213.3,340.3 L 211.8,341.3 L 209.6,343.3 L 208.8,343.2 L 208.3,340.2 L 206.6,340.1 L 205.3,341.2 L 204.6,343.6 L 204.4,345.4 L 203.7,346.8 L 204.0,348.7 L 204.2,351.0 L 205.5,352.3 L 207.2,352.7 L 207.9,352.2 L 209.6,353.2 L 212.0,352.3 L 215.2,352.3 L 217.5,350.8 L 220.0,348.4 L 221.1,348.5 L 223.9,351.0 L 228.6,352.2 L 231.4,352.7 L 231.1,352.8 L 223.9,356.8 L 219.2,356.5 L 214.5,356.8 L 213.9,357.2 L 215.1,358.1 L 214.9,359.4 L 212.4,360.0 L 207.7,359.6 L 205.9,359.3 L 204.6,358.3 L 201.8,359.0 L 197.6,357.7 L 194.4,358.3 L 190.5,359.9 L 187.5,359.0 L 183.7,356.0 L 179.2,354.6 L 174.4,353.9 L 169.8,353.3 L 165.0,353.4 L 161.2,353.3 L 157.1,352.0 L 155.8,348.5 L 156.8,347.2 L 159.1,345.6 L 161.1,346.1 L 162.4,347.6 L 167.1,348.6 L 171.8,348.2 L 173.5,347.5 L 174.2,344.2 L 174.2,342.7 L 174.9,343.3 L 177.0,345.8 L 177.9,345.7 L 179.4,345.0 L 180.2,344.4 L 180.9,341.6 L 182.4,341.5 L 183.8,342.5 L 184.5,343.0 L 188.2,340.0 L 189.4,340.9 L 190.6,341.5 L 191.4,342.1 L 191.4,344.0 L 192.1,344.0 L 193.0,344.8 L 194.6,344.4 L 194.7,343.1 L 194.5,341.8 L 195.3,341.3 L 194.2,339.4 L 194.7,335.8 L 194.5,334.0 L 193.5,331.3 L 190.2,331.9 L 189.2,331.3 L 186.1,331.8 L 185.4,332.8 L 184.9,334.0 L 183.3,333.1 L 182.2,331.2 L 182.8,329.4 L 187.4,328.3 L 189.4,326.6 L 190.6,323.9 L 190.3,319.2 L 189.2,317.4 L 187.5,316.9 L 184.8,316.4 L 181.3,313.2 L 177.0,312.5 L 174.1,312.6 L 171.1,316.2 L 169.2,318.5 L 168.2,320.3 L 166.6,322.1 L 164.7,324.0 L 161.8,327.5 L 162.2,328.2 L 163.9,328.2 L 163.4,330.0 L 161.8,329.9 L 161.4,329.4 L 151.1,320.2 L 151.9,319.5 L 152.2,317.1 L 151.6,314.4 L 147.2,313.8 L 145.9,313.3 L 146.2,311.0 L 149.9,307.9 L 148.1,306.3 L 147.8,305.3 L 150.4,302.5 L 152.9,302.3 L 153.8,301.1 L 153.4,298.8 L 152.1,298.1 L 147.7,298.7 L 146.8,298.7 L 145.5,296.7 L 140.8,296.0 L 140.0,295.1 L 140.6,294.1 L 143.3,292.5 L 143.2,289.2 L 144.4,289.4 L 146.8,290.9 L 147.7,290.0 L 147.7,286.8 L 146.6,283.5 L 146.1,282.1 L 141.7,280.5 L 142.3,279.0 L 142.9,277.9 L 141.8,276.9 L 137.2,276.8 L 135.7,276.0 L 134.3,272.5 L 133.1,270.8 L 133.4,268.4 L 131.7,265.7 L 130.3,263.4 L 127.4,260.4 L 122.7,260.3 L 121.9,259.2 L 122.6,258.1 L 124.5,258.3 L 126.3,258.3 L 128.7,255.9 L 132.1,256.2 L 136.4,257.7 L 137.8,257.1 L 137.3,255.3 L 137.3,255.3 L 136.0,253.9 L 134.7,252.1 L 133.1,247.8 L 131.5,245.7 L 130.3,241.5 L 129.4,241.9 L 128.3,242.5 L 127.6,241.1 L 127.4,238.6 L 125.8,240.3 L 126.1,239.0 L 129.2,220.3" fill="none" stroke="black" stroke-width="2"/>
</svg>