<?xml version="1.0" encoding="UTF-8"?>
<svg width="400" height="400" viewBox="0 0 400 400" xmlns="http://www.w3.org/2000/svg">
  <rect width="400" height="400" fill="white"/>
  <path d="M 120.6,327.1 L 119.1,326.5 L 118.3,323.6 L 118.3,320.7 L 116.8,320.1 L 114.4,319.4 L 110.7,316.9 L 106.3,315.7 L 101.9,314.2 L 97.7,312.5 L 95.8,310.9 L 95.6,309.0 L 96.2,307.1 L 91.8,305.5 L 90.4,304.4 L 91.2,301.6 L 92.5,300.6 L 96.9,300.4 L 99.3,302.7 L 100.9,303.9 L 104.3,305.7 L 108.6,306.8 L 113.1,306.8 L 117.7,307.3 L 122.4,307.4 L 125.0,306.2 L 126.1,304.3 L 126.3,302.5 L 128.3,301.6 L 132.9,302.3 L 137.1,302.3 L 140.8,301.0 L 144.4,298.2 L 146.8,297.0 L 147.7,295.0 L 147.6,292.9 L 145.2,290.0 L 145.0,287.9 L 146.7,286.0 L 149.9,283.5 L 151.8,284.8 L 152.5,283.6 L 153.3,282.3 L 156.6,280.9 L 157.5,277.4 L 159.1,276.0 L 160.0,272.6 L 161.3,269.9 L 162.2,267.8 L 165.0,264.3 L 165.5,261.6 L 164.9,258.6 L 164.9,256.8 L 163.3,254.6 L 160.1,253.8 L 158.6,252.6 L 157.7,251.1 L 154.9,247.5 L 152.3,243.9 L 150.9,241.1 L 151.8,239.3 L 153.0,238.5 L 153.4,238.0 L 156.1,238.0 L 158.4,237.3 L 161.3,237.2 L 165.6,235.5 L 169.5,233.5 L 172.3,233.5 L 174.9,230.7 L 175.1,230.4 L 174.6,229.0 L 176.1,224.4 L 175.4,222.1 L 173.5,218.1 L 170.8,214.4 L 170.5,211.8 L 170.6,208.6 L 169.4,204.2 L 167.8,200.8 L 165.2,197.2 L 164.3,193.0 L 163.6,190.7 L 162.2,189.0 L 161.9,186.0 L 161.5,183.4 L 162.7,183.4 L 163.3,183.4 L 163.4,183.4 L 163.7,180.7 L 165.1,180.2 L 165.4,180.1 L 168.4,180.9 L 170.3,181.9 L 171.6,183.2 L 174.4,186.3 L 177.1,187.1 L 177.9,187.6 L 176.8,188.5 L 175.3,190.0 L 176.0,191.0 L 180.2,192.9 L 182.9,193.6 L 184.7,193.3 L 185.7,192.7 L 185.7,191.4 L 188.4,191.0 L 190.0,190.5 L 192.9,191.1 L 195.4,191.8 L 197.7,190.4 L 197.0,188.5 L 196.1,185.7 L 196.6,185.4 L 199.0,185.7 L 201.0,184.1 L 201.7,181.9 L 202.3,177.3 L 202.4,172.8 L 202.2,168.4 L 202.9,168.0 L 203.5,169.1 L 204.3,170.1 L 205.8,169.3 L 206.7,169.3 L 210.0,167.1 L 210.1,165.7 L 210.4,164.9 L 211.9,164.5 L 213.9,164.9 L 214.5,163.5 L 215.2,161.5 L 216.6,159.3 L 216.9,154.8 L 216.2,150.2 L 215.8,146.8 L 216.6,146.2 L 217.0,145.3 L 219.1,145.3 L 220.4,143.7 L 220.4,140.1 L 220.2,137.4 L 219.7,136.0 L 219.0,134.9 L 219.8,133.5 L 221.0,132.2 L 222.0,127.7 L 221.9,123.2 L 222.2,118.6 L 223.2,114.1 L 222.4,109.7 L 222.4,105.3 L 222.4,100.7 L 223.3,96.3 L 224.8,92.0 L 225.5,88.8 L 224.8,84.1 L 225.3,81.5 L 225.8,79.7 L 222.6,78.3 L 222.9,77.9 L 223.4,77.1 L 227.6,77.7 L 231.9,79.0 L 234.1,78.8 L 237.8,76.3 L 239.3,74.3 L 239.7,73.0 L 239.4,71.7 L 235.6,69.8 L 236.3,67.5 L 236.1,66.1 L 235.0,63.6 L 232.8,61.7 L 232.9,59.7 L 233.8,57.5 L 237.0,56.7 L 237.9,54.0 L 239.3,53.0 L 238.9,50.3 L 237.8,48.2 L 237.5,43.7 L 238.8,42.1 L 240.3,41.0 L 242.2,40.0 L 244.4,40.6 L 245.8,42.0 L 246.8,43.2 L 247.7,42.7 L 248.8,40.5 L 250.7,40.9 L 253.3,42.8 L 254.7,46.7 L 256.5,48.7 L 256.7,53.2 L 256.7,56.8 L 257.2,59.2 L 257.5,61.8 L 257.0,66.2 L 256.1,70.8 L 255.5,73.4 L 253.4,77.4 L 250.6,81.0 L 247.2,83.9 L 243.3,86.5 L 240.2,89.9 L 237.4,93.4 L 234.2,96.5 L 230.9,99.6 L 229.3,103.8 L 227.1,107.7 L 225.6,111.9 L 226.1,114.4 L 226.5,116.0 L 226.0,120.5 L 225.4,125.2 L 225.1,129.6 L 225.7,133.4 L 227.1,135.1 L 228.5,136.5 L 230.4,140.7 L 230.0,144.5 L 229.5,146.6 L 231.5,147.3 L 232.6,147.7 L 234.5,147.7 L 235.6,149.1 L 236.0,149.9 L 237.0,153.5 L 237.5,155.9 L 237.0,157.9 L 234.8,159.3 L 231.4,161.2 L 228.4,164.8 L 226.2,168.3 L 226.4,170.5 L 226.6,172.8 L 225.4,173.8 L 222.9,174.7 L 222.0,177.1 L 220.3,181.3 L 221.0,182.9 L 223.2,186.7 L 224.0,189.8 L 226.9,190.8 L 226.8,192.8 L 226.8,193.6 L 224.2,197.3 L 223.3,201.4 L 221.7,202.4 L 219.7,202.2 L 216.0,199.4 L 215.2,199.0 L 216.0,197.7 L 217.6,195.1 L 217.0,193.9 L 215.4,192.9 L 215.9,191.9 L 216.1,191.2 L 215.1,191.2 L 214.5,192.6 L 213.4,195.6 L 212.6,195.7 L 212.6,194.7 L 213.1,192.2 L 212.4,191.7 L 211.5,191.3 L 210.9,191.0 L 209.5,192.7 L 210.0,194.9 L 206.0,195.6 L 205.0,197.3 L 204.5,201.6 L 205.1,206.0 L 206.4,209.0 L 208.2,211.1 L 209.8,210.5 L 212.0,207.8 L 213.6,203.5 L 214.3,202.2 L 214.9,203.7 L 214.3,205.6 L 212.5,209.0 L 212.5,211.8 L 213.0,213.2 L 212.9,214.8 L 213.9,215.9 L 214.9,216.5 L 217.3,218.9 L 218.9,216.3 L 220.6,218.4 L 221.9,217.8 L 223.4,215.8 L 224.6,214.7 L 225.1,210.3 L 228.2,210.4 L 229.3,211.1 L 230.6,215.4 L 233.5,218.5 L 234.1,223.2 L 235.2,226.4 L 237.7,229.1 L 240.8,232.3 L 244.0,235.0 L 242.4,238.1 L 242.8,239.5 L 244.1,240.3 L 247.2,241.0 L 249.2,242.9 L 250.6,243.6 L 251.6,243.0 L 253.4,238.7 L 255.1,238.9 L 256.1,239.9 L 255.1,242.5 L 254.1,244.5 L 254.9,245.1 L 256.5,245.3 L 256.7,246.7 L 255.6,248.0 L 253.8,248.1 L 251.8,248.1 L 250.4,249.6 L 250.1,252.0 L 250.5,255.7 L 253.2,259.3 L 256.9,262.0 L 259.0,263.0 L 262.0,262.7 L 263.7,262.6 L 267.4,265.1 L 269.9,265.6 L 274.4,266.4 L 275.3,267.5 L 276.8,268.8 L 280.4,270.4 L 280.4,273.7 L 279.7,275.0 L 277.9,275.4 L 279.7,278.6 L 279.1,280.3 L 276.1,283.6 L 274.4,287.0 L 271.3,288.5 L 268.4,290.0 L 265.8,294.0 L 265.3,295.4 L 265.9,297.8 L 267.8,298.8 L 271.7,300.2 L 272.6,301.5 L 272.2,306.1 L 272.4,308.3 L 273.1,310.2 L 273.1,314.2 L 274.0,314.9 L 275.4,315.6 L 276.4,317.1 L 277.2,316.6 L 278.4,319.2 L 279.2,323.3 L 278.9,325.2 L 276.5,325.5 L 274.4,325.9 L 273.9,326.7 L 275.0,326.9 L 276.4,327.2 L 278.7,327.8 L 282.5,328.3 L 281.4,331.4 L 283.4,335.2 L 284.9,338.0 L 284.5,339.8 L 286.9,343.2 L 288.4,343.9 L 289.8,344.0 L 290.0,346.0 L 291.6,347.1 L 295.9,346.7 L 300.4,345.9 L 302.7,346.1 L 302.9,347.0 L 301.6,350.8 L 302.7,351.9 L 306.8,353.6 L 309.4,355.5 L 309.5,355.6 L 309.6,359.0 L 308.6,360.0 L 307.1,359.9 L 306.2,358.8 L 306.0,358.1 L 303.2,357.8 L 302.0,358.3 L 301.1,357.6 L 300.8,355.4 L 298.6,354.6 L 298.1,354.4 L 297.0,354.4 L 294.4,354.4 L 289.9,353.7 L 287.0,352.6 L 282.7,351.0 L 279.1,350.5 L 278.7,351.4 L 278.6,352.4 L 276.8,352.0 L 275.5,352.0 L 275.3,352.5 L 274.1,353.7 L 271.7,353.6 L 213.8,351.7 L 212.0,351.5 L 211.9,350.0 L 210.8,348.2 L 206.4,346.8 L 206.3,346.8 L 202.0,346.9 L 197.5,347.0 L 193.2,347.7 L 190.5,346.6 L 188.3,346.9 L 186.1,349.3 L 184.9,349.7 L 183.0,348.0 L 182.7,346.1 L 180.9,345.2 L 179.7,344.6 L 179.3,343.9 L 178.8,343.2 L 175.1,342.6 L 172.0,342.7 L 171.8,343.2 L 171.8,343.4 L 176.0,345.4 L 177.4,347.0 L 177.6,347.0 L 177.6,347.3 L 177.2,349.2 L 175.8,349.5 L 171.3,349.6 L 167.7,350.8 L 163.9,353.3 L 160.4,355.8 L 132.5,351.5 L 131.6,351.4 L 132.8,348.8 L 133.6,346.7 L 134.2,345.4 L 133.5,343.1 L 134.8,340.7 L 134.8,340.0 L 134.7,339.3 L 132.7,338.5 L 130.9,338.7 L 129.2,338.6 L 127.5,338.7 L 125.5,337.6 L 122.5,336.7 L 122.5,335.1 L 123.3,333.7 L 124.7,333.4 L 127.9,334.4 L 130.6,334.0 L 131.9,331.3 L 132.7,327.9 L 132.6,326.9 L 132.7,326.2 L 129.1,324.5 L 126.8,323.9 L 124.2,324.3 L 120.6,327.1" fill="none" stroke="black" stroke-width="2"/>
</svg>