<?xml version="1.0" encoding="UTF-8"?>
<svg width="400" height="400" viewBox="0 0 400 400" xmlns="http://www.w3.org/2000/svg">
  <rect width="400" height="400" fill="white"/>
  <path d="M 139.5,342.8 L 140.0,341.1 L 141.3,336.5 L 145.9,336.8 L 146.4,330.6 L 145.0,328.3 L 143.7,326.7 L 143.9,320.0 L 144.8,313.1 L 145.2,310.3 L 152.1,309.9 L 156.3,309.8 L 156.8,311.9 L 158.4,315.6 L 161.3,315.4 L 163.2,314.7 L 163.0,313.1 L 161.3,311.9 L 162.0,310.8 L 167.8,311.2 L 169.8,308.9 L 172.8,302.7 L 174.2,296.0 L 176.7,289.8 L 179.5,283.4 L 179.1,279.7 L 177.5,278.5 L 175.9,277.7 L 176.8,274.2 L 179.3,272.8 L 179.3,269.1 L 177.4,267.8 L 178.1,262.2 L 177.4,259.7 L 177.4,257.2 L 175.9,255.5 L 172.6,254.0 L 171.9,251.9 L 174.0,248.6 L 173.8,241.5 L 171.2,236.9 L 165.9,232.3 L 159.8,228.9 L 153.7,226.3 L 146.8,224.7 L 142.2,227.7 L 136.8,230.7 L 135.4,229.8 L 135.3,226.8 L 133.8,225.0 L 130.7,225.9 L 127.5,227.5 L 124.8,225.4 L 122.0,227.2 L 119.5,225.0 L 119.2,222.7 L 120.9,221.3 L 123.2,219.9 L 122.9,215.8 L 116.7,213.4 L 116.3,210.7 L 109.8,208.4 L 107.0,207.2 L 100.9,203.6 L 101.6,202.6 L 103.2,200.8 L 104.5,197.1 L 105.9,195.1 L 105.7,191.1 L 109.8,185.4 L 110.7,180.1 L 110.1,178.3 L 107.0,179.9 L 105.0,181.0 L 101.5,179.6 L 98.3,173.4 L 95.5,170.5 L 93.5,170.4 L 90.3,171.1 L 84.0,169.7 L 81.0,167.5 L 78.7,161.0 L 77.2,158.5 L 78.1,155.3 L 82.0,149.7 L 86.1,144.0 L 89.3,137.6 L 90.0,137.3 L 91.9,136.9 L 93.5,130.2 L 93.5,127.7 L 91.2,127.0 L 91.2,124.0 L 94.4,118.0 L 98.3,113.4 L 100.6,110.2 L 101.6,103.3 L 102.7,101.4 L 105.4,99.1 L 105.4,93.1 L 101.5,92.0 L 96.5,87.1 L 90.9,83.5 L 84.5,80.3 L 83.3,78.6 L 84.3,77.0 L 87.7,76.6 L 94.6,77.9 L 100.6,78.6 L 107.3,77.3 L 112.8,74.5 L 117.7,69.4 L 118.8,68.7 L 120.0,70.2 L 123.9,70.2 L 125.7,63.5 L 126.6,61.1 L 131.0,55.9 L 134.2,49.6 L 136.8,46.7 L 141.4,43.7 L 142.0,45.3 L 141.6,49.6 L 142.7,50.1 L 146.0,49.6 L 145.5,47.3 L 149.2,45.8 L 150.1,42.8 L 151.5,40.0 L 152.4,40.7 L 151.5,47.4 L 152.2,47.3 L 153.1,46.4 L 154.7,48.1 L 151.7,54.5 L 151.0,58.4 L 152.6,63.3 L 154.7,66.0 L 153.3,67.4 L 154.2,70.2 L 158.1,70.4 L 161.4,65.5 L 163.2,66.5 L 163.9,71.7 L 166.7,77.9 L 168.3,79.3 L 170.5,79.3 L 170.3,82.1 L 169.4,83.2 L 168.7,90.2 L 169.4,97.1 L 170.5,98.6 L 173.8,99.1 L 174.2,96.3 L 175.1,94.8 L 177.2,96.3 L 179.3,98.9 L 181.4,98.9 L 185.5,98.9 L 186.9,100.5 L 186.2,102.4 L 182.5,103.0 L 180.9,104.6 L 182.3,106.5 L 187.1,111.3 L 192.4,115.9 L 195.4,118.9 L 196.3,119.8 L 197.3,119.4 L 199.5,112.9 L 200.5,108.6 L 203.5,103.5 L 202.8,101.2 L 204.6,99.1 L 209.7,99.1 L 215.9,99.3 L 220.9,98.2 L 227.4,100.1 L 234.0,100.1 L 238.7,97.7 L 242.5,95.7 L 243.0,97.5 L 243.3,100.0 L 245.5,99.4 L 246.5,100.0 L 247.4,101.6 L 252.7,97.5 L 255.2,95.7 L 257.7,96.1 L 258.9,94.1 L 260.0,93.4 L 262.4,92.5 L 263.9,90.9 L 267.9,92.7 L 271.3,92.0 L 274.1,90.6 L 275.5,92.7 L 278.4,98.9 L 281.4,102.4 L 283.8,103.3 L 290.0,99.8 L 291.5,98.4 L 292.3,95.2 L 298.4,91.8 L 305.4,91.3 L 312.3,90.6 L 316.2,90.4 L 320.6,92.2 L 322.1,94.7 L 322.8,101.4 L 321.5,103.3 L 316.7,105.3 L 310.9,106.9 L 309.5,110.9 L 309.1,117.7 L 307.4,121.0 L 302.6,126.1 L 299.4,131.8 L 295.5,133.9 L 292.0,135.7 L 290.0,142.1 L 286.1,146.0 L 282.1,146.3 L 279.6,143.3 L 277.8,143.5 L 273.2,147.0 L 273.6,149.9 L 274.1,153.6 L 272.0,154.8 L 269.2,154.8 L 266.7,151.3 L 264.4,151.8 L 263.0,153.9 L 262.4,157.1 L 260.1,157.8 L 258.0,158.9 L 252.9,163.5 L 250.2,166.8 L 247.4,173.4 L 246.2,180.1 L 245.8,185.8 L 241.0,187.5 L 239.8,189.3 L 239.8,195.0 L 241.6,201.5 L 241.0,207.9 L 239.4,214.4 L 238.9,219.0 L 238.4,226.1 L 239.1,229.3 L 240.2,229.1 L 240.7,236.0 L 242.3,242.7 L 244.2,245.2 L 245.6,244.8 L 247.6,243.8 L 248.8,245.4 L 248.3,248.2 L 246.0,252.6 L 247.4,259.0 L 249.4,260.6 L 254.0,256.3 L 257.7,257.0 L 261.9,261.1 L 263.3,264.1 L 264.7,270.1 L 267.4,273.0 L 269.3,272.6 L 272.7,269.8 L 276.1,265.5 L 281.2,263.6 L 286.9,263.4 L 287.4,265.2 L 288.1,272.3 L 289.5,274.4 L 290.6,273.5 L 292.0,271.2 L 295.2,268.9 L 296.8,266.2 L 298.0,266.2 L 298.0,269.6 L 297.1,273.7 L 295.3,274.4 L 293.9,278.5 L 294.8,283.1 L 292.9,284.3 L 292.0,288.7 L 293.6,294.2 L 292.5,297.7 L 289.7,301.1 L 288.6,305.9 L 288.6,312.4 L 289.0,315.4 L 295.7,317.2 L 298.4,317.9 L 297.5,321.1 L 293.9,320.6 L 287.4,318.4 L 283.3,318.6 L 280.3,321.3 L 277.8,322.0 L 274.8,323.9 L 268.3,321.4 L 264.6,320.9 L 258.4,322.9 L 256.6,324.6 L 253.4,324.3 L 250.8,321.8 L 251.5,319.8 L 254.7,319.7 L 256.4,316.8 L 257.1,312.6 L 256.1,310.1 L 252.9,309.1 L 248.5,309.4 L 247.8,312.6 L 244.2,309.6 L 237.3,310.6 L 230.8,310.6 L 229.9,306.0 L 227.8,303.2 L 225.8,299.1 L 222.5,296.5 L 221.2,291.7 L 219.3,289.8 L 218.8,286.1 L 214.0,283.8 L 209.7,287.7 L 207.8,286.8 L 206.0,285.0 L 205.1,285.9 L 206.4,288.9 L 208.7,292.6 L 209.2,293.7 L 209.2,296.3 L 212.4,302.3 L 211.5,303.4 L 210.6,305.0 L 211.5,312.1 L 212.0,316.7 L 213.3,323.6 L 213.3,326.9 L 211.9,328.5 L 206.9,327.6 L 200.5,327.8 L 198.8,329.0 L 197.9,333.8 L 194.9,335.2 L 188.9,335.9 L 188.5,333.3 L 186.2,333.1 L 185.3,336.1 L 179.5,335.8 L 175.8,337.7 L 174.4,338.6 L 172.2,342.5 L 171.0,349.4 L 171.2,356.3 L 171.0,360.0 L 168.2,358.4" fill="none" stroke="black" stroke-width="2"/>
</svg>