<?xml version="1.0" encoding="UTF-8"?>
<svg width="400" height="400" viewBox="0 0 400 400" xmlns="http://www.w3.org/2000/svg">
  <rect width="400" height="400" fill="white"/>
  <path d="M 113.6,221.8 L 113.9,221.0 L 114.1,220.4 L 115.4,219.6 L 116.3,218.4 L 117.0,216.9 L 114.6,216.0 L 114.4,215.6 L 114.6,214.9 L 115.0,214.2 L 114.6,213.8 L 112.6,213.2 L 109.6,212.7 L 108.5,211.9 L 107.2,210.6 L 105.6,208.4 L 104.5,208.6 L 103.9,208.4 L 103.8,208.0 L 104.0,206.5 L 104.0,205.5 L 102.5,204.5 L 99.7,202.8 L 99.3,202.9 L 99.0,203.6 L 99.5,206.9 L 99.6,208.8 L 98.1,209.7 L 96.9,210.1 L 96.2,209.9 L 95.3,208.8 L 95.3,208.4 L 96.2,207.9 L 96.4,207.4 L 95.9,207.0 L 94.5,207.0 L 93.7,205.2 L 93.3,205.0 L 92.3,205.2 L 90.5,206.0 L 89.8,206.1 L 88.7,205.3 L 88.2,204.1 L 86.7,201.4 L 84.6,199.1 L 82.2,196.8 L 79.9,195.4 L 76.9,194.1 L 74.1,192.7 L 72.4,192.1 L 69.3,191.2 L 66.6,190.6 L 64.8,189.0 L 61.8,187.7 L 60.6,187.1 L 59.3,186.8 L 58.2,186.8 L 57.0,186.3 L 55.6,184.5 L 54.8,184.2 L 53.6,184.4 L 53.1,184.8 L 51.5,184.4 L 51.4,184.3 L 50.7,183.8 L 48.8,183.4 L 45.9,181.8 L 42.8,180.8 L 40.0,180.0 L 40.0,179.6 L 42.2,146.5 L 44.0,145.5 L 46.0,144.6 L 47.0,143.7 L 49.4,141.4 L 49.9,140.9 L 51.0,140.8 L 52.3,141.4 L 53.3,141.7 L 54.2,141.4 L 55.0,140.7 L 55.4,139.8 L 55.1,139.4 L 53.5,138.3 L 53.2,137.9 L 53.2,136.5 L 53.3,135.6 L 53.2,135.5 L 51.8,135.8 L 50.8,135.9 L 50.5,135.6 L 51.8,134.5 L 51.4,133.2 L 50.5,133.6 L 50.3,133.6 L 49.4,131.5 L 47.2,129.1 L 47.6,127.3 L 48.0,126.0 L 48.9,125.7 L 49.5,125.2 L 50.8,124.4 L 53.2,122.8 L 55.3,122.4 L 56.5,122.8 L 57.0,123.0 L 57.0,123.0 L 57.4,121.5 L 57.8,121.1 L 58.5,120.8 L 58.6,120.8 L 58.8,121.0 L 58.3,122.6 L 59.0,122.8 L 60.2,122.7 L 61.2,122.8 L 63.2,123.8 L 63.6,124.9 L 63.7,125.7 L 63.3,126.7 L 63.1,128.3 L 63.4,129.1 L 64.0,129.5 L 66.7,130.2 L 68.2,131.1 L 70.0,132.1 L 71.4,133.4 L 72.7,135.3 L 73.3,135.9 L 73.7,135.9 L 74.3,135.8 L 74.7,136.2 L 75.0,137.6 L 74.9,139.2 L 73.9,139.8 L 74.1,140.9 L 75.9,141.7 L 77.1,142.2 L 78.3,143.8 L 81.0,143.6 L 80.5,144.6 L 80.5,145.3 L 81.6,146.2 L 82.1,146.2 L 83.7,146.0 L 85.7,147.0 L 87.9,148.2 L 88.7,149.1 L 89.2,150.6 L 89.2,151.7 L 89.3,152.3 L 91.0,153.7 L 91.1,155.1 L 91.5,155.6 L 92.1,156.1 L 92.2,156.3 L 91.1,157.4 L 90.9,158.3 L 91.3,159.0 L 92.1,159.3 L 93.3,158.7 L 94.1,158.5 L 94.9,158.6 L 95.8,159.4 L 96.6,161.5 L 97.2,162.3 L 97.8,163.0 L 97.7,164.1 L 97.3,165.3 L 96.4,165.7 L 95.9,166.1 L 95.7,167.3 L 96.2,169.3 L 98.2,170.8 L 98.4,171.7 L 98.8,172.4 L 99.8,172.6 L 101.0,172.4 L 102.5,171.6 L 104.5,171.6 L 104.8,172.1 L 105.6,172.5 L 108.7,173.5 L 110.9,173.9 L 112.1,174.6 L 112.5,175.8 L 112.8,176.0 L 114.3,175.6 L 115.1,175.1 L 117.5,175.9 L 120.6,177.0 L 122.8,177.0 L 126.0,176.7 L 127.8,176.3 L 128.7,175.6 L 130.1,173.4 L 130.3,172.7 L 129.8,171.5 L 130.2,170.8 L 131.7,169.4 L 132.3,167.8 L 132.7,167.6 L 133.9,167.5 L 134.3,167.6 L 134.8,167.9 L 136.0,169.0 L 136.7,170.0 L 136.7,170.5 L 136.4,171.2 L 136.6,172.2 L 137.6,173.1 L 140.0,174.2 L 141.5,174.6 L 142.4,174.9 L 144.7,175.4 L 146.9,175.2 L 148.0,174.8 L 150.1,174.4 L 151.3,174.8 L 153.0,176.1 L 153.1,176.2 L 154.9,177.2 L 157.3,176.5 L 157.9,175.9 L 158.3,175.3 L 158.2,174.6 L 157.7,174.1 L 157.2,173.6 L 157.2,173.3 L 158.7,173.4 L 159.2,173.1 L 159.2,172.5 L 158.1,171.8 L 155.4,170.0 L 154.9,169.5 L 155.1,169.1 L 157.8,168.4 L 160.2,166.1 L 162.6,165.4 L 163.7,165.2 L 166.6,163.8 L 167.9,163.2 L 169.5,163.2 L 169.5,164.2 L 169.7,164.7 L 170.3,165.2 L 172.7,165.1 L 173.5,164.6 L 175.6,163.8 L 176.2,163.5 L 177.0,163.8 L 179.1,164.7 L 179.1,164.9 L 176.9,166.5 L 174.0,167.7 L 171.3,168.6 L 171.3,169.2 L 171.7,170.3 L 172.6,170.9 L 173.1,170.9 L 173.7,170.8 L 174.4,171.4 L 173.6,172.1 L 173.6,172.7 L 174.3,173.6 L 176.9,175.6 L 177.9,176.0 L 178.7,176.3 L 179.9,177.4 L 181.1,179.2 L 182.2,182.3 L 182.5,183.3 L 181.3,183.9 L 180.3,184.5 L 180.3,185.4 L 178.6,185.9 L 178.4,186.1 L 179.4,186.8 L 180.2,187.4 L 182.7,188.4 L 185.7,189.6 L 186.9,189.9 L 188.7,189.3 L 189.4,189.4 L 189.6,189.7 L 189.4,190.6 L 188.0,191.6 L 187.9,192.1 L 188.2,192.7 L 188.3,193.0 L 186.7,193.2 L 186.2,193.4 L 186.3,194.2 L 186.6,194.7 L 187.4,194.8 L 189.3,195.4 L 189.9,196.7 L 191.0,197.2 L 191.4,198.3 L 191.7,198.7 L 192.9,199.1 L 194.6,198.7 L 195.6,198.6 L 195.5,199.7 L 195.5,200.5 L 196.6,201.2 L 198.5,201.7 L 200.1,202.0 L 203.0,202.3 L 204.6,202.4 L 205.6,201.9 L 206.7,200.7 L 207.2,200.4 L 209.5,200.9 L 212.6,202.1 L 215.7,203.1 L 218.7,204.4 L 221.8,205.5 L 224.9,206.5 L 227.9,207.7 L 229.9,208.9 L 230.5,209.3 L 231.2,209.1 L 231.7,208.4 L 232.4,207.7 L 232.9,207.6 L 234.8,208.8 L 237.8,210.4 L 238.9,210.3 L 240.6,210.4 L 243.5,211.3 L 245.1,211.1 L 246.6,210.3 L 249.4,208.6 L 251.3,208.0 L 254.4,207.7 L 256.3,207.4 L 257.6,206.9 L 258.6,205.6 L 258.9,204.9 L 258.8,204.5 L 258.5,203.3 L 257.6,201.0 L 257.1,199.8 L 256.7,199.1 L 256.0,198.8 L 255.4,198.3 L 254.0,195.5 L 254.0,195.0 L 254.4,193.9 L 256.4,193.0 L 258.1,193.0 L 258.9,192.9 L 259.0,192.5 L 257.6,190.4 L 256.2,190.1 L 255.2,190.2 L 254.2,188.8 L 252.8,187.6 L 251.1,186.9 L 248.0,186.1 L 247.5,185.7 L 247.5,184.7 L 248.7,183.8 L 248.7,182.6 L 249.1,181.4 L 249.5,179.7 L 249.9,178.7 L 251.1,177.8 L 251.2,177.6 L 248.9,176.1 L 247.6,176.2 L 244.8,175.1 L 244.0,174.5 L 243.2,173.3 L 242.3,170.7 L 241.3,168.6 L 240.9,166.9 L 240.2,164.9 L 240.3,164.3 L 240.8,163.7 L 242.0,163.5 L 243.7,163.8 L 246.7,164.8 L 249.4,165.2 L 252.3,164.1 L 253.3,164.3 L 254.4,165.2 L 257.1,165.6 L 260.3,166.2 L 263.4,166.9 L 266.7,167.3 L 267.2,168.7 L 267.1,169.2 L 265.2,168.9 L 264.3,169.4 L 264.0,169.9 L 265.7,170.4 L 265.4,171.3 L 264.2,171.4 L 263.5,171.8 L 263.3,172.3 L 263.4,172.7 L 263.9,172.7 L 264.9,172.4 L 266.0,172.6 L 267.0,171.3 L 267.0,170.7 L 267.0,170.0 L 267.7,169.1 L 268.4,169.4 L 270.5,170.4 L 272.2,170.9 L 273.3,170.7 L 273.4,169.7 L 274.9,169.5 L 276.3,169.5 L 278.7,170.1 L 280.0,170.3 L 281.4,170.0 L 283.5,168.6 L 285.4,168.4 L 286.4,168.4 L 288.8,170.4 L 290.3,171.1 L 291.0,171.5 L 291.1,172.1 L 291.2,172.6 L 291.9,173.3 L 294.4,174.1 L 296.9,175.1 L 298.4,176.2 L 299.3,178.0 L 300.7,179.0 L 301.8,179.1 L 302.2,179.1 L 302.4,179.5 L 302.4,182.3 L 302.5,183.0 L 303.4,183.4 L 304.2,183.9 L 304.9,185.5 L 305.1,187.0 L 305.5,188.3 L 306.0,189.8 L 305.2,191.7 L 302.6,191.9 L 300.7,191.8 L 300.2,191.7 L 298.9,191.6 L 298.2,192.0 L 298.0,192.6 L 298.2,193.4 L 298.7,194.0 L 299.8,193.9 L 300.4,194.5 L 300.7,194.8 L 301.2,195.0 L 302.5,194.5 L 304.1,195.3 L 305.3,196.0 L 306.0,196.4 L 307.8,196.2 L 308.8,195.7 L 309.9,195.2 L 310.3,194.7 L 310.6,193.7 L 311.4,193.1 L 313.9,192.6 L 315.0,193.2 L 315.6,193.5 L 317.0,193.0 L 318.1,192.1 L 319.9,190.2 L 320.4,189.0 L 321.2,187.8 L 322.6,186.4 L 323.8,184.7 L 325.1,183.4 L 326.8,182.0 L 328.7,179.6 L 331.1,177.2 L 333.5,175.2 L 334.3,174.2 L 335.0,173.8 L 335.7,173.9 L 337.2,175.0 L 338.3,175.1 L 338.9,174.7 L 340.1,173.4 L 340.4,172.3 L 339.6,171.6 L 339.0,170.6 L 339.6,169.3 L 340.9,167.7 L 343.0,166.2 L 343.8,166.1 L 344.5,166.3 L 345.9,168.5 L 345.8,170.4 L 346.2,171.0 L 348.3,172.2 L 351.1,173.9 L 353.5,174.1 L 354.8,174.8 L 355.9,174.8 L 356.5,174.8 L 357.1,175.8 L 357.4,176.8 L 357.0,178.4 L 357.0,179.1 L 359.9,180.5 L 360.0,180.8 L 359.6,181.5 L 358.1,182.3 L 355.0,183.1 L 353.5,183.1 L 350.9,183.4 L 347.7,184.2 L 344.4,185.0 L 342.5,185.9 L 339.8,186.9 L 336.7,187.8 L 333.7,188.2 L 331.5,189.0 L 328.3,189.9 L 326.3,191.6 L 324.4,192.6 L 322.4,192.9 L 321.5,193.1 L 320.6,194.3 L 319.9,194.8 L 319.5,195.1 L 319.1,196.4 L 319.3,197.2 L 319.8,197.5 L 321.2,197.6 L 324.3,197.5 L 325.3,197.6 L 325.2,198.3 L 325.7,199.1 L 326.8,200.2 L 328.2,200.8 L 329.6,201.7 L 331.0,201.8 L 331.9,202.2 L 331.6,205.0 L 332.0,206.0 L 331.9,207.0 L 331.5,207.2 L 330.7,207.4 L 330.7,208.2 L 330.6,208.7 L 329.7,208.5 L 328.0,208.4 L 326.3,208.7 L 325.7,209.0 L 325.9,209.4 L 326.4,209.2 L 327.2,209.2 L 328.0,209.5 L 328.1,210.3 L 328.5,210.7 L 330.2,210.8 L 331.8,211.0 L 331.9,211.6 L 331.6,211.8 L 328.4,212.7 L 328.6,213.7 L 328.5,214.5 L 326.2,216.1 L 324.7,216.7 L 321.8,217.7 L 318.6,218.6 L 315.4,219.4 L 314.7,220.0 L 314.5,220.9 L 314.7,222.0 L 313.5,223.8 L 313.0,224.1 L 310.8,223.7 L 308.1,223.7 L 304.9,224.0 L 303.6,224.2 L 303.3,225.7 L 303.3,226.1 L 304.0,226.3 L 304.6,226.1 L 305.2,226.3 L 306.0,226.6 L 306.8,226.5 L 307.4,225.7 L 308.1,225.6 L 308.9,225.8 L 308.6,226.4 L 308.4,227.1 L 308.7,227.2 L 309.9,226.8 L 311.5,227.0 L 311.3,228.2 L 312.2,228.9 L 312.2,229.3 L 309.7,231.0 L 309.4,231.9 L 309.9,233.7 L 309.7,234.3 L 309.2,235.3 L 310.3,236.0 L 310.8,235.9 L 311.3,235.3 L 311.4,234.9 L 312.4,235.8 L 313.4,236.1 L 314.5,236.4 L 315.1,236.9 L 315.1,237.6 L 314.7,238.4 L 315.1,239.5 L 315.0,239.8 L 314.8,240.5 L 313.6,240.6 L 312.8,241.0 L 312.0,242.0 L 311.8,242.9 L 311.8,243.6 L 312.5,244.0 L 314.2,243.8 L 316.0,245.8 L 317.7,248.1 L 319.1,249.1 L 319.5,249.6 L 319.4,250.6 L 318.5,252.2 L 316.7,252.4 L 313.5,252.4 L 310.3,252.3 L 307.0,252.2 L 303.7,252.4 L 300.4,252.4 L 297.2,252.6 L 295.9,252.6 L 295.3,252.5 L 292.7,251.9 L 291.2,251.8 L 287.9,251.3 L 285.6,251.0 L 282.4,251.1 L 279.2,251.1 L 277.8,251.2 L 274.9,252.8 L 272.0,254.2 L 270.0,254.1 L 266.8,254.1 L 265.5,253.7 L 263.5,254.0 L 262.8,253.9 L 261.8,252.5 L 261.1,252.7 L 260.4,253.5 L 259.5,255.9 L 258.3,258.6 L 256.5,260.9 L 254.4,263.4 L 252.2,265.4 L 250.4,264.9 L 248.4,263.6 L 247.2,262.4 L 246.3,262.0 L 243.2,261.2 L 242.9,260.7 L 243.2,260.1 L 243.2,259.8 L 242.9,259.0 L 242.2,258.4 L 240.6,258.0 L 240.3,258.4 L 239.9,259.9 L 239.5,260.4 L 238.9,260.1 L 238.2,260.5 L 236.7,263.0 L 236.8,263.5 L 237.4,264.1 L 238.0,264.7 L 237.8,265.5 L 236.4,266.7 L 235.9,266.9 L 234.7,266.4 L 234.1,266.8 L 233.6,267.1 L 232.5,266.9 L 230.7,264.7 L 228.4,262.3 L 228.0,262.0 L 226.9,262.2 L 226.1,261.3 L 225.4,260.7 L 224.0,260.9 L 223.5,260.3 L 223.0,260.3 L 222.2,260.8 L 220.9,261.7 L 220.6,262.3 L 218.7,262.3 L 217.8,262.5 L 216.4,256.9 L 216.6,256.7 L 216.6,256.2 L 216.3,255.8 L 216.2,255.8 L 216.1,255.8 L 215.2,252.5 L 215.3,252.4 L 215.4,252.3 L 216.7,252.6 L 217.4,252.6 L 218.1,251.6 L 219.2,250.7 L 220.1,250.4 L 221.4,249.7 L 221.6,249.5 L 221.4,248.9 L 219.5,248.2 L 219.1,247.8 L 218.9,247.0 L 219.4,246.3 L 220.2,246.0 L 221.1,246.3 L 221.9,246.0 L 224.7,244.0 L 226.9,243.4 L 228.3,242.6 L 228.5,242.1 L 228.1,240.8 L 225.8,238.6 L 222.5,238.1 L 222.1,237.7 L 222.2,236.9 L 223.0,236.2 L 221.3,233.4 L 220.5,233.1 L 218.0,233.2 L 216.1,233.6 L 214.8,234.4 L 214.2,234.4 L 212.1,232.9 L 211.6,232.6 L 211.0,233.0 L 210.5,233.2 L 210.1,232.9 L 209.3,232.6 L 206.8,233.1 L 204.3,232.8 L 202.9,232.9 L 201.2,232.8 L 198.0,232.0 L 195.5,230.8 L 193.4,230.1 L 190.4,229.4 L 188.5,229.3 L 186.6,230.0 L 183.6,230.2 L 180.4,229.7 L 178.3,229.0 L 176.1,228.6 L 174.1,229.0 L 171.3,230.0 L 168.4,231.5 L 167.1,232.4 L 166.2,233.8 L 166.0,234.4 L 167.0,234.9 L 167.5,235.3 L 167.5,235.7 L 166.7,235.8 L 166.1,236.2 L 165.9,236.8 L 167.5,238.4 L 167.3,238.9 L 165.5,240.1 L 165.0,240.2 L 162.1,239.1 L 160.5,239.2 L 159.6,239.2 L 159.0,238.2 L 158.1,237.3 L 157.8,236.1 L 158.5,235.5 L 158.7,235.2 L 158.6,234.7 L 157.7,234.3 L 154.4,233.6 L 152.5,233.5 L 152.1,234.0 L 151.4,235.8 L 150.8,235.7 L 150.1,235.9 L 150.0,236.2 L 151.5,237.6 L 152.9,238.6 L 154.0,238.8 L 155.5,239.9 L 155.9,240.2 L 155.4,241.0 L 154.5,241.5 L 151.4,242.2 L 150.1,242.2 L 149.6,242.5 L 149.4,243.0 L 149.8,244.0 L 149.7,244.4 L 148.7,246.0 L 148.3,246.6 L 148.4,247.2 L 149.5,247.7 L 150.9,249.3 L 151.7,249.4 L 152.4,249.7 L 154.9,251.6 L 155.7,252.7 L 156.8,255.7 L 156.3,256.5 L 155.9,257.4 L 155.9,258.0 L 156.8,258.8 L 159.2,259.8 L 161.4,260.7 L 162.2,261.6 L 164.3,264.0 L 165.6,265.1 L 168.3,266.9 L 168.5,267.7 L 168.9,268.7 L 169.2,269.3 L 168.9,269.8 L 168.8,271.5 L 168.6,272.1 L 166.9,272.2 L 163.7,271.7 L 160.6,271.9 L 159.0,272.2 L 158.3,272.7 L 157.7,273.8 L 157.5,275.1 L 158.9,278.0 L 158.2,279.2 L 155.9,277.9 L 153.5,275.6 L 152.7,275.6 L 152.1,275.0 L 151.2,274.1 L 150.1,273.6 L 149.5,273.2 L 148.2,270.9 L 146.8,270.4 L 145.8,269.1 L 144.9,268.1 L 142.9,266.5 L 142.0,265.5 L 141.3,264.4 L 141.3,263.5 L 142.1,261.5 L 140.6,261.8 L 140.0,261.3 L 139.1,259.7 L 137.9,259.4 L 137.2,258.9 L 136.7,258.2 L 136.6,256.7 L 136.6,254.9 L 135.2,254.6 L 134.8,254.1 L 135.0,253.4 L 135.4,252.1 L 135.3,251.7 L 132.8,250.2 L 132.5,250.4 L 132.0,250.9 L 131.1,250.8 L 130.4,250.3 L 129.4,249.2 L 128.7,248.7 L 128.0,249.3 L 127.6,249.4 L 126.6,248.6 L 125.1,245.8 L 124.7,245.6 L 123.6,246.1 L 123.1,245.8 L 121.3,244.2 L 121.4,243.8 L 121.9,242.9 L 121.4,242.4 L 120.6,241.6 L 117.9,240.9 L 117.0,241.4 L 115.6,241.4 L 114.5,240.5 L 113.5,239.6 L 110.5,238.4 L 109.9,237.8 L 110.2,237.3 L 110.8,237.0 L 112.2,236.7 L 112.7,236.2 L 112.6,235.8 L 111.4,235.2 L 110.5,234.7 L 109.8,235.6 L 109.2,235.7 L 108.7,235.3 L 108.7,234.8 L 108.8,234.3 L 108.4,234.1 L 107.3,234.1 L 106.7,234.4 L 106.4,235.0 L 106.5,235.2 L 107.6,236.0 L 108.3,236.9 L 108.2,237.2 L 107.3,237.7 L 106.0,239.6 L 105.0,241.6 L 104.0,243.9 L 102.5,245.0 L 101.6,245.3 L 98.8,243.8 L 96.6,242.5 L 96.3,241.9 L 95.8,240.3 L 95.6,237.3 L 95.8,237.0 L 98.8,235.5 L 100.5,234.3 L 102.4,233.9 L 103.8,232.2 L 105.2,230.9 L 107.0,229.5 L 108.1,228.3 L 108.1,227.8 L 107.8,227.0 L 108.8,225.9 L 111.7,224.8 L 112.6,224.2 L 113.3,222.7 L 113.6,221.8" fill="none" stroke="black" stroke-width="2"/>
</svg>