<?xml version="1.0" encoding="UTF-8"?>
<svg width="400" height="400" viewBox="0 0 400 400" xmlns="http://www.w3.org/2000/svg">
  <rect width="400" height="400" fill="white"/>
  <path d="M 83.6,208.5 L 84.7,208.5 L 85.2,208.2 L 85.4,207.3 L 85.3,206.5 L 84.0,205.7 L 83.3,204.8 L 83.5,203.3 L 83.2,202.6 L 82.0,201.7 L 82.0,201.2 L 82.6,200.5 L 83.2,200.3 L 84.1,201.0 L 84.6,201.4 L 85.0,201.3 L 85.1,200.7 L 84.5,199.3 L 83.7,198.3 L 83.3,197.4 L 82.6,196.7 L 81.7,195.6 L 80.9,194.7 L 79.8,193.6 L 78.8,192.5 L 77.7,191.3 L 76.9,190.1 L 75.8,188.9 L 74.7,187.9 L 73.6,186.8 L 72.7,185.6 L 71.7,184.4 L 71.2,183.5 L 70.5,183.0 L 69.6,181.8 L 68.6,181.0 L 68.7,180.4 L 68.4,179.8 L 68.2,179.1 L 68.7,179.0 L 69.0,179.4 L 70.0,180.6 L 70.7,181.1 L 71.2,181.1 L 71.5,180.7 L 71.3,180.2 L 70.3,179.0 L 71.0,178.2 L 72.1,178.7 L 73.0,178.6 L 73.6,178.8 L 74.0,178.9 L 74.0,178.4 L 73.7,177.5 L 73.8,176.7 L 74.1,177.0 L 75.3,177.7 L 76.2,179.0 L 77.0,179.5 L 78.2,180.4 L 79.6,181.1 L 80.9,181.8 L 81.2,181.9 L 81.5,180.4 L 81.9,180.5 L 82.4,180.7 L 82.6,179.7 L 82.6,178.2 L 83.0,177.8 L 83.1,177.3 L 83.8,177.5 L 84.8,177.7 L 84.8,177.4 L 84.2,177.1 L 83.1,176.8 L 82.2,175.5 L 81.7,175.2 L 81.4,175.0 L 80.7,173.7 L 79.9,172.4 L 79.1,171.1 L 78.9,171.4 L 79.0,171.0 L 80.0,166.4 L 80.2,166.7 L 81.6,167.3 L 82.2,166.3 L 82.9,165.0 L 83.5,164.7 L 83.8,164.8 L 84.2,165.7 L 84.0,166.1 L 83.6,166.4 L 84.2,166.8 L 85.6,167.3 L 86.4,167.3 L 87.3,167.7 L 88.7,168.3 L 90.2,168.5 L 91.6,168.7 L 92.2,169.0 L 91.8,169.8 L 92.4,170.2 L 93.0,170.1 L 94.4,169.5 L 95.4,169.0 L 96.9,169.4 L 97.8,169.0 L 98.3,168.8 L 98.4,169.1 L 98.2,169.7 L 98.7,169.8 L 99.2,170.0 L 99.4,169.7 L 99.8,169.0 L 100.4,169.2 L 101.1,169.3 L 102.2,168.7 L 103.1,168.2 L 103.5,168.4 L 103.9,169.0 L 103.8,170.3 L 103.0,170.0 L 102.7,170.3 L 102.7,171.1 L 102.1,172.1 L 101.0,173.0 L 101.2,173.3 L 102.7,173.6 L 103.5,173.6 L 104.1,173.5 L 105.4,173.9 L 106.5,173.6 L 108.0,174.0 L 109.1,174.1 L 109.2,174.7 L 109.2,175.8 L 109.8,176.1 L 111.3,176.5 L 112.5,176.8 L 112.7,176.4 L 112.5,176.1 L 111.7,176.0 L 111.3,176.0 L 112.4,175.0 L 113.1,174.1 L 113.4,173.9 L 113.7,173.2 L 113.7,172.1 L 113.3,171.9 L 112.9,171.7 L 111.8,171.0 L 111.7,170.6 L 110.1,170.8 L 108.6,171.1 L 108.2,170.7 L 108.2,170.4 L 108.7,170.0 L 110.1,169.7 L 110.0,169.5 L 108.7,168.8 L 108.6,168.4 L 109.1,168.1 L 109.9,168.1 L 110.6,168.7 L 111.4,169.6 L 111.9,169.6 L 112.0,169.4 L 111.5,168.9 L 111.5,168.7 L 112.9,168.4 L 113.7,168.4 L 114.1,168.4 L 114.8,168.8 L 114.9,169.5 L 116.4,169.7 L 117.9,169.8 L 118.8,170.2 L 120.0,171.2 L 121.0,171.1 L 121.4,171.8 L 121.2,172.4 L 120.3,173.5 L 120.4,173.9 L 120.9,174.2 L 122.4,173.7 L 123.1,173.5 L 123.2,173.0 L 123.1,172.7 L 123.5,172.3 L 125.0,172.2 L 126.4,172.1 L 127.3,172.0 L 128.1,172.6 L 129.0,172.2 L 128.7,172.0 L 128.4,171.8 L 128.4,170.9 L 128.0,170.3 L 127.1,170.3 L 126.8,168.8 L 126.7,168.1 L 127.4,166.9 L 127.1,166.4 L 126.1,166.2 L 126.4,165.6 L 126.8,164.7 L 126.6,163.9 L 126.2,163.6 L 124.9,162.8 L 123.6,162.5 L 123.3,161.9 L 123.2,160.9 L 122.4,160.6 L 121.8,160.2 L 121.1,159.3 L 120.3,159.4 L 119.5,159.7 L 118.0,159.8 L 116.7,159.2 L 115.2,159.6 L 114.5,159.3 L 114.3,159.3 L 113.3,158.8 L 112.8,158.5 L 112.9,157.9 L 113.3,157.3 L 114.1,156.8 L 113.4,156.2 L 112.7,155.5 L 112.8,155.1 L 113.1,154.6 L 112.7,154.1 L 112.2,154.1 L 111.7,155.0 L 110.2,155.2 L 108.8,155.2 L 108.5,154.9 L 108.1,154.3 L 107.2,154.3 L 106.4,154.5 L 105.9,153.9 L 105.8,152.4 L 105.2,151.1 L 104.8,150.3 L 103.7,149.9 L 102.2,149.4 L 102.2,149.4 L 102.3,149.3 L 103.2,147.9 L 103.5,148.0 L 103.9,148.6 L 104.7,149.1 L 105.9,149.6 L 107.2,150.1 L 108.5,150.7 L 109.6,150.6 L 110.0,151.0 L 110.5,151.7 L 111.6,152.0 L 112.2,152.3 L 112.2,152.9 L 112.8,153.2 L 113.8,153.9 L 114.3,153.9 L 114.8,154.0 L 115.0,154.1 L 115.6,154.5 L 116.9,154.3 L 117.7,153.4 L 118.5,153.1 L 119.3,152.2 L 120.0,152.0 L 121.0,151.7 L 121.8,152.0 L 122.1,151.2 L 121.9,150.3 L 121.7,150.0 L 121.7,149.7 L 121.3,148.4 L 120.4,147.2 L 120.6,146.8 L 120.7,146.5 L 120.3,146.4 L 119.2,146.5 L 117.9,146.2 L 116.7,146.5 L 116.2,146.2 L 115.9,146.3 L 115.6,147.0 L 115.6,147.1 L 114.9,148.0 L 114.3,148.4 L 113.3,148.5 L 112.9,148.2 L 113.1,147.6 L 112.9,147.3 L 112.2,146.9 L 111.1,146.9 L 110.5,146.8 L 110.5,146.3 L 110.3,146.1 L 109.4,146.4 L 108.1,147.3 L 107.7,147.4 L 107.5,147.0 L 108.2,145.7 L 108.2,145.4 L 107.3,145.1 L 106.5,145.3 L 105.2,146.2 L 104.8,146.1 L 104.8,145.7 L 105.1,145.0 L 104.9,143.8 L 104.6,143.3 L 103.6,143.0 L 103.7,142.8 L 113.4,126.2 L 113.8,126.3 L 114.6,126.0 L 115.1,125.9 L 115.7,125.6 L 116.8,126.7 L 117.3,127.4 L 117.7,127.9 L 118.2,128.8 L 119.6,128.9 L 120.1,129.0 L 120.2,130.0 L 120.6,130.2 L 121.3,130.1 L 122.0,130.4 L 122.6,130.1 L 123.0,129.5 L 122.9,128.9 L 122.3,128.5 L 121.6,128.6 L 120.9,128.7 L 121.1,128.0 L 121.6,127.3 L 121.8,126.9 L 121.0,126.1 L 119.8,125.3 L 119.2,124.7 L 118.9,123.6 L 117.8,122.4 L 117.7,122.4 L 117.2,121.8 L 116.2,120.9 L 115.2,120.5 L 115.5,119.9 L 122.5,108.3 L 124.2,105.5 L 124.3,105.3 L 125.4,106.1 L 126.9,106.6 L 127.9,107.2 L 128.6,107.6 L 129.0,108.2 L 129.7,109.4 L 130.8,109.6 L 132.3,109.8 L 133.8,110.2 L 134.4,109.6 L 135.2,109.4 L 135.9,109.6 L 136.9,110.7 L 137.4,110.6 L 138.9,110.8 L 139.5,110.5 L 140.1,110.0 L 141.1,110.2 L 141.6,110.1 L 142.3,109.8 L 143.5,110.2 L 143.7,110.1 L 143.9,108.6 L 143.6,107.9 L 143.5,107.4 L 144.1,106.5 L 144.3,106.8 L 144.6,106.8 L 145.6,106.7 L 146.0,106.4 L 146.0,105.4 L 145.8,104.6 L 145.3,104.7 L 145.0,103.9 L 145.1,103.6 L 145.8,103.8 L 146.2,103.7 L 146.2,103.4 L 146.2,102.9 L 146.6,102.8 L 147.0,103.6 L 147.4,104.2 L 148.6,104.4 L 149.1,104.0 L 148.9,103.4 L 148.3,103.2 L 148.0,102.8 L 148.0,101.4 L 148.0,100.3 L 148.0,99.9 L 147.5,98.8 L 146.8,97.5 L 146.4,96.0 L 146.0,94.5 L 145.3,93.2 L 144.4,92.2 L 143.1,91.3 L 142.8,90.6 L 142.3,90.0 L 141.4,89.1 L 141.5,88.7 L 142.4,88.9 L 142.9,88.7 L 143.0,88.1 L 142.7,87.4 L 141.7,86.6 L 140.4,85.9 L 140.6,85.3 L 140.4,85.0 L 140.0,85.0 L 139.4,84.9 L 139.2,86.2 L 138.9,86.5 L 138.1,86.3 L 137.2,85.5 L 136.1,84.5 L 136.5,83.3 L 136.2,82.5 L 135.6,81.1 L 134.7,80.3 L 133.3,79.7 L 131.8,79.2 L 130.4,78.7 L 129.9,78.1 L 129.4,76.7 L 128.4,76.5 L 128.0,76.1 L 127.8,74.8 L 127.3,74.1 L 126.8,73.4 L 127.0,72.9 L 127.8,72.4 L 128.8,72.8 L 129.8,72.8 L 130.4,72.9 L 130.6,73.6 L 131.0,74.6 L 131.6,74.8 L 131.8,74.6 L 132.3,73.2 L 132.2,72.7 L 131.4,72.8 L 131.1,72.6 L 131.3,71.5 L 131.4,69.9 L 131.4,69.3 L 131.0,69.5 L 130.6,69.5 L 129.1,69.4 L 128.2,68.9 L 127.3,67.7 L 127.1,66.8 L 126.2,66.0 L 125.6,64.6 L 124.9,63.3 L 124.4,63.1 L 124.0,62.9 L 124.2,62.5 L 124.2,62.2 L 123.3,61.9 L 123.2,61.5 L 123.1,61.3 L 122.8,61.0 L 122.8,61.6 L 122.8,62.2 L 122.3,62.4 L 121.9,61.9 L 121.4,60.8 L 120.9,60.6 L 120.7,60.9 L 121.0,62.2 L 121.0,62.6 L 119.8,63.5 L 118.9,64.0 L 118.6,63.8 L 117.8,62.5 L 116.9,61.3 L 116.0,60.1 L 114.8,59.1 L 114.3,59.1 L 113.4,58.4 L 114.3,58.2 L 115.5,58.4 L 116.8,59.2 L 117.4,59.0 L 118.5,59.1 L 118.8,58.6 L 117.4,58.2 L 116.0,57.6 L 116.1,56.7 L 116.6,55.8 L 117.9,54.9 L 118.7,55.6 L 119.1,55.4 L 120.0,56.5 L 120.5,56.4 L 121.7,55.5 L 123.0,54.6 L 123.0,53.8 L 124.0,52.9 L 124.1,52.8 L 124.6,53.2 L 124.9,53.0 L 125.7,53.8 L 126.8,54.9 L 126.2,55.6 L 125.0,56.6 L 123.8,57.6 L 123.6,57.9 L 123.8,58.1 L 124.4,57.8 L 125.6,56.9 L 126.7,55.8 L 127.9,54.9 L 129.1,53.9 L 129.1,53.5 L 128.8,53.5 L 127.6,54.5 L 127.2,54.2 L 126.2,53.0 L 125.1,51.9 L 124.2,50.8 L 124.1,50.7 L 124.2,50.5 L 124.2,50.5 L 124.6,50.1 L 125.5,50.5 L 126.6,49.8 L 126.2,49.0 L 126.7,48.4 L 127.6,47.6 L 128.1,47.6 L 129.0,48.9 L 129.9,50.1 L 130.8,50.6 L 131.6,50.7 L 132.2,50.3 L 132.8,50.3 L 134.3,50.8 L 135.6,50.5 L 135.9,50.2 L 135.6,50.0 L 134.8,50.4 L 134.1,50.3 L 132.6,49.8 L 131.8,49.2 L 130.9,48.0 L 130.0,46.8 L 131.0,45.6 L 132.2,44.7 L 131.3,43.6 L 132.1,42.8 L 133.2,41.8 L 133.8,42.7 L 134.5,44.0 L 133.8,44.5 L 133.9,44.9 L 134.2,44.9 L 135.4,44.0 L 136.6,43.2 L 135.9,42.1 L 135.7,42.0 L 134.4,42.5 L 133.9,41.4 L 134.4,40.9 L 135.6,40.0 L 136.6,41.1 L 137.4,42.4 L 138.3,43.6 L 139.2,44.8 L 139.2,45.3 L 138.3,46.2 L 137.1,47.1 L 135.8,47.9 L 134.5,48.7 L 134.2,49.1 L 134.3,49.5 L 135.2,49.0 L 136.5,48.0 L 137.7,47.2 L 138.9,46.3 L 139.6,45.7 L 139.7,45.0 L 139.2,44.0 L 138.4,42.8 L 138.1,42.3 L 138.9,41.6 L 140.3,40.9 L 141.7,40.7 L 142.3,41.3 L 142.7,42.3 L 143.0,43.8 L 143.1,45.2 L 143.2,46.8 L 143.3,48.2 L 143.9,49.3 L 144.9,50.5 L 145.9,51.6 L 146.7,52.6 L 147.3,53.8 L 148.4,54.3 L 149.1,54.5 L 149.6,54.0 L 150.3,53.2 L 150.7,52.5 L 150.7,51.4 L 150.5,49.9 L 150.3,48.3 L 149.9,47.8 L 149.8,47.3 L 154.1,47.5 L 154.6,47.6 L 154.7,49.1 L 154.9,51.0 L 155.5,52.8 L 156.0,54.3 L 156.0,54.5 L 156.1,55.8 L 156.4,57.2 L 157.7,58.3 L 158.2,59.8 L 158.9,60.8 L 159.4,60.4 L 160.0,60.1 L 161.2,60.3 L 162.4,61.4 L 163.5,61.7 L 163.1,60.4 L 162.6,59.8 L 162.7,59.5 L 163.4,59.7 L 163.8,59.9 L 163.9,59.6 L 163.6,58.7 L 163.4,58.0 L 163.3,57.0 L 164.0,57.0 L 164.7,58.2 L 165.2,58.2 L 165.4,57.4 L 164.7,55.9 L 164.9,54.7 L 164.8,53.4 L 164.7,52.5 L 165.2,52.4 L 166.0,52.4 L 166.9,52.7 L 167.7,53.6 L 168.8,54.3 L 169.7,55.3 L 170.4,57.2 L 171.2,59.1 L 171.9,59.4 L 171.9,58.7 L 172.1,58.0 L 173.1,58.0 L 173.5,59.1 L 174.0,59.7 L 174.7,60.8 L 175.2,60.6 L 175.3,60.0 L 175.3,59.4 L 176.1,59.3 L 177.1,60.0 L 177.9,61.1 L 179.0,61.5 L 179.2,60.6 L 180.5,60.3 L 181.4,61.0 L 181.9,60.9 L 182.0,60.3 L 181.8,59.4 L 181.3,58.6 L 181.8,58.2 L 182.7,58.1 L 183.7,59.1 L 184.8,59.5 L 185.2,58.9 L 184.8,58.0 L 184.7,57.4 L 184.4,56.6 L 183.2,56.2 L 182.5,56.1 L 182.0,54.2 L 181.5,53.5 L 181.2,52.5 L 180.9,52.0 L 180.6,51.0 L 179.4,49.9 L 179.3,49.0 L 178.6,47.4 L 178.0,45.9 L 178.5,45.2 L 179.4,45.0 L 180.2,46.0 L 180.8,47.7 L 182.0,48.3 L 183.4,49.2 L 184.2,49.6 L 184.4,49.1 L 184.0,48.1 L 183.6,47.7 L 183.7,46.9 L 184.1,45.4 L 184.6,44.9 L 186.0,45.5 L 187.3,46.0 L 188.9,46.5 L 189.6,46.8 L 191.1,47.3 L 191.6,48.7 L 192.0,50.5 L 191.9,51.4 L 191.0,52.1 L 190.3,52.8 L 190.1,53.8 L 189.9,55.2 L 190.3,56.1 L 191.2,56.1 L 191.9,56.2 L 192.6,56.6 L 193.1,56.5 L 192.9,56.1 L 192.7,55.8 L 192.6,55.4 L 192.9,55.1 L 193.2,55.2 L 193.9,55.8 L 194.6,56.3 L 195.0,55.8 L 195.5,55.1 L 195.5,54.9 L 194.7,54.2 L 194.2,53.3 L 193.5,52.5 L 194.1,52.0 L 194.2,51.5 L 193.6,50.9 L 193.1,50.6 L 193.5,50.0 L 192.9,48.8 L 193.1,48.3 L 193.5,48.1 L 194.0,48.2 L 194.4,48.0 L 194.6,46.6 L 195.1,45.8 L 196.1,46.5 L 195.5,47.8 L 195.5,48.0 L 195.6,48.0 L 195.7,48.2 L 196.0,48.5 L 197.2,49.2 L 198.4,49.9 L 198.9,51.0 L 199.1,52.1 L 199.5,52.8 L 200.5,52.8 L 200.6,53.1 L 201.0,54.3 L 201.7,55.6 L 202.4,55.9 L 202.6,55.9 L 202.6,55.4 L 202.4,54.8 L 202.4,54.5 L 202.1,54.2 L 201.8,53.9 L 202.2,52.9 L 202.4,52.8 L 203.0,52.9 L 203.5,53.3 L 203.4,53.8 L 203.3,54.4 L 203.6,54.8 L 203.6,54.8 L 204.3,54.2 L 219.2,61.3 L 219.3,62.1 L 219.4,62.6 L 220.3,63.5 L 221.1,64.5 L 221.3,65.1 L 221.5,65.7 L 221.7,66.4 L 221.4,67.1 L 221.6,67.3 L 222.2,67.5 L 222.9,67.7 L 223.6,67.9 L 224.0,67.6 L 223.7,67.3 L 223.6,66.8 L 224.3,66.1 L 224.2,65.4 L 223.5,64.8 L 223.0,64.2 L 223.2,63.6 L 223.5,63.5 L 223.9,63.9 L 224.2,64.1 L 224.6,64.2 L 224.9,64.3 L 224.9,64.1 L 227.4,65.2 L 228.5,65.8 L 228.5,65.8 L 228.1,65.7 L 227.6,65.6 L 227.4,65.8 L 227.3,66.1 L 227.2,67.1 L 227.0,67.9 L 227.0,68.3 L 227.5,68.5 L 228.3,68.7 L 228.6,68.7 L 228.8,69.0 L 229.1,69.4 L 229.2,70.2 L 229.3,70.6 L 229.3,70.9 L 229.3,71.3 L 229.2,71.5 L 228.6,71.4 L 228.0,71.2 L 227.6,71.1 L 227.2,71.5 L 227.0,72.2 L 226.9,72.9 L 226.8,73.5 L 227.1,73.8 L 227.5,74.2 L 227.5,74.6 L 227.5,75.0 L 227.2,75.2 L 227.1,75.5 L 227.0,76.0 L 227.0,76.5 L 226.6,76.7 L 226.0,76.9 L 225.5,77.1 L 225.1,77.0 L 225.0,77.1 L 224.8,77.2 L 224.4,77.1 L 224.1,76.6 L 223.8,76.5 L 223.5,76.4 L 223.1,76.7 L 223.2,77.4 L 223.4,77.9 L 223.6,78.9 L 223.6,79.7 L 223.5,80.5 L 223.7,81.6 L 224.1,82.4 L 224.7,83.1 L 225.3,83.6 L 225.7,84.3 L 225.8,85.4 L 225.8,86.8 L 225.9,87.6 L 225.9,87.9 L 225.6,88.3 L 225.4,88.9 L 225.5,89.9 L 225.6,90.6 L 225.5,91.5 L 225.1,91.9 L 225.0,92.3 L 225.1,92.5 L 225.3,93.0 L 225.9,93.2 L 226.4,93.5 L 226.5,93.8 L 226.8,94.0 L 227.2,94.0 L 227.8,93.7 L 228.6,93.2 L 228.8,93.1 L 228.8,93.2 L 229.5,93.8 L 230.2,95.0 L 231.0,96.1 L 230.9,97.0 L 230.8,98.0 L 231.2,98.7 L 231.8,98.9 L 232.3,98.5 L 232.6,97.8 L 233.3,97.9 L 233.9,98.1 L 235.0,96.7 L 235.5,95.4 L 235.4,94.1 L 234.6,93.7 L 234.1,93.0 L 234.5,92.3 L 235.3,92.4 L 235.6,92.8 L 236.0,92.7 L 236.4,92.6 L 236.4,91.8 L 236.6,91.3 L 236.9,91.0 L 237.4,91.4 L 237.6,91.6 L 237.6,91.6 L 237.9,91.6 L 238.3,91.3 L 238.2,90.4 L 238.7,90.1 L 239.4,89.4 L 239.7,88.5 L 239.5,87.7 L 239.7,86.6 L 239.9,85.5 L 239.3,84.6 L 239.0,83.4 L 238.8,82.1 L 238.6,80.4 L 238.6,80.2 L 238.4,78.4 L 237.9,76.1 L 237.7,74.6 L 242.3,74.2 L 242.6,74.1 L 242.5,74.4 L 242.8,75.4 L 243.5,76.4 L 244.4,77.3 L 244.7,77.8 L 245.1,79.1 L 246.3,79.5 L 246.1,79.8 L 245.4,82.1 L 245.7,84.3 L 246.2,86.3 L 248.0,88.8 L 249.3,90.0 L 250.1,91.0 L 250.6,92.2 L 251.6,92.4 L 252.4,91.6 L 253.0,90.8 L 254.9,91.2 L 255.7,91.9 L 256.6,93.0 L 257.5,93.7 L 257.8,93.7 L 257.5,92.8 L 257.1,92.1 L 257.5,91.7 L 257.9,91.4 L 258.0,89.2 L 257.9,87.7 L 258.4,87.2 L 259.1,87.2 L 260.1,88.0 L 260.6,89.5 L 260.6,90.0 L 260.4,90.7 L 260.7,92.2 L 261.4,93.2 L 262.0,93.1 L 262.3,93.5 L 262.3,94.3 L 262.4,94.8 L 263.3,94.3 L 262.9,94.8 L 262.8,95.2 L 263.3,95.0 L 264.3,94.4 L 265.4,93.3 L 266.0,92.2 L 266.5,91.1 L 266.3,90.4 L 266.4,90.1 L 266.9,90.6 L 267.5,91.1 L 268.0,90.7 L 268.7,89.4 L 269.0,88.0 L 268.9,86.4 L 268.7,84.9 L 268.8,83.9 L 269.4,83.3 L 270.0,83.1 L 270.3,82.8 L 270.6,81.5 L 270.3,80.3 L 269.4,79.0 L 269.5,78.1 L 269.1,76.9 L 269.3,75.5 L 269.8,75.4 L 271.0,75.6 L 271.7,75.5 L 272.0,75.7 L 272.4,75.8 L 272.9,74.6 L 273.4,74.6 L 273.8,75.2 L 274.2,74.6 L 275.3,74.5 L 275.7,75.5 L 276.4,76.9 L 277.7,76.5 L 278.1,76.1 L 278.5,74.6 L 279.0,73.4 L 279.5,73.4 L 279.7,73.8 L 279.7,74.4 L 279.7,75.2 L 279.6,75.7 L 278.8,75.8 L 278.4,76.1 L 278.2,77.0 L 278.6,76.9 L 279.7,76.7 L 280.6,75.5 L 281.5,74.3 L 281.7,73.8 L 281.1,72.3 L 281.5,72.1 L 282.2,72.2 L 282.5,72.0 L 282.5,71.2 L 282.8,70.5 L 283.2,69.6 L 283.3,68.1 L 283.6,66.7 L 283.9,65.1 L 284.0,63.6 L 283.9,62.1 L 283.5,60.7 L 283.3,59.2 L 283.3,58.8 L 283.2,57.7 L 283.7,57.5 L 284.2,57.5 L 285.0,58.8 L 285.4,60.3 L 285.6,61.8 L 285.3,62.7 L 284.9,64.2 L 284.4,65.7 L 284.2,67.2 L 283.9,68.7 L 284.2,69.9 L 284.5,70.3 L 285.2,70.0 L 285.5,70.3 L 285.0,71.0 L 283.9,72.1 L 284.0,72.4 L 284.2,73.9 L 284.4,75.4 L 285.2,75.7 L 285.7,75.7 L 286.1,75.5 L 286.8,76.2 L 287.2,76.2 L 287.4,75.8 L 288.1,75.4 L 288.6,75.2 L 289.1,75.8 L 289.9,76.4 L 291.2,76.1 L 291.9,75.6 L 292.3,75.3 L 293.0,75.8 L 293.4,75.9 L 293.9,76.0 L 293.5,76.5 L 293.3,76.6 L 292.9,76.6 L 293.3,77.7 L 294.2,78.9 L 294.2,79.5 L 294.3,79.5 L 293.2,79.5 L 292.5,80.3 L 292.1,80.3 L 291.8,80.4 L 291.6,81.6 L 291.2,82.0 L 290.5,83.0 L 289.9,83.3 L 289.2,83.2 L 288.5,83.2 L 287.4,82.9 L 286.8,83.1 L 286.1,83.0 L 285.8,83.2 L 285.4,84.7 L 285.0,85.5 L 284.1,86.8 L 283.3,88.0 L 282.6,89.4 L 282.3,90.3 L 282.5,90.9 L 282.6,91.6 L 282.5,91.9 L 282.3,92.2 L 282.4,92.8 L 282.7,94.3 L 282.8,95.5 L 282.8,97.1 L 282.9,98.2 L 282.6,98.2 L 281.1,98.1 L 280.7,97.8 L 280.8,97.5 L 280.7,97.1 L 279.5,96.1 L 279.0,96.1 L 278.3,97.1 L 277.6,97.2 L 277.2,97.5 L 276.2,98.8 L 275.3,100.0 L 274.8,101.0 L 273.9,100.8 L 273.5,102.0 L 274.0,102.3 L 274.0,102.5 L 273.6,104.0 L 272.3,104.8 L 271.5,105.6 L 271.2,106.5 L 271.3,107.4 L 271.0,108.4 L 271.1,109.1 L 272.0,109.9 L 272.2,110.5 L 272.7,110.5 L 272.4,111.1 L 272.3,111.3 L 272.2,110.8 L 272.0,110.6 L 271.7,111.1 L 271.5,111.3 L 271.0,112.0 L 270.3,112.5 L 269.4,112.9 L 268.9,113.6 L 269.0,113.9 L 268.4,114.4 L 268.3,115.1 L 268.8,115.5 L 268.2,116.2 L 267.7,117.0 L 267.7,117.7 L 268.2,117.9 L 268.7,118.1 L 268.0,119.2 L 268.3,120.3 L 267.9,121.0 L 267.8,121.6 L 267.2,122.3 L 266.8,122.4 L 266.2,122.5 L 265.1,123.4 L 264.6,124.8 L 264.2,125.1 L 263.8,126.3 L 263.4,127.6 L 263.0,127.3 L 262.7,127.3 L 262.3,127.5 L 262.0,127.8 L 261.4,129.2 L 261.3,129.9 L 261.1,130.6 L 260.6,131.1 L 260.2,132.1 L 259.6,133.6 L 259.6,134.0 L 259.1,134.4 L 258.7,135.4 L 258.7,136.1 L 258.5,136.4 L 258.3,136.1 L 257.9,136.3 L 257.3,137.7 L 257.1,138.0 L 256.6,139.1 L 256.6,139.2 L 256.5,139.4 L 256.4,139.9 L 256.4,140.8 L 256.6,141.6 L 256.7,142.6 L 255.9,143.7 L 255.3,143.7 L 254.5,143.2 L 254.1,142.4 L 253.7,142.0 L 253.3,142.0 L 253.0,142.7 L 252.5,143.7 L 252.1,144.5 L 251.6,145.4 L 250.8,146.2 L 250.4,146.5 L 249.7,149.1 L 249.2,150.0 L 249.0,151.0 L 249.4,151.3 L 250.2,151.7 L 250.7,152.4 L 250.3,153.1 L 249.6,153.3 L 248.5,154.1 L 248.1,155.2 L 248.5,155.4 L 248.7,155.9 L 248.7,156.5 L 249.4,156.5 L 249.7,157.1 L 249.6,157.8 L 249.6,159.0 L 249.7,159.8 L 249.5,161.1 L 249.7,162.1 L 250.0,162.8 L 250.4,163.8 L 251.2,164.3 L 251.9,164.5 L 252.4,164.2 L 253.0,163.4 L 253.1,162.4 L 252.4,162.0 L 251.5,161.2 L 251.5,160.3 L 252.3,160.2 L 252.8,160.4 L 253.0,159.7 L 252.8,158.6 L 253.4,157.4 L 254.2,157.0 L 254.7,157.0 L 255.4,156.7 L 256.0,156.8 L 256.3,157.2 L 256.7,156.9 L 256.9,156.5 L 257.1,156.5 L 257.3,156.8 L 257.8,157.0 L 258.4,156.9 L 258.7,157.5 L 258.4,158.4 L 257.7,159.4 L 256.8,160.7 L 256.0,161.8 L 255.6,162.7 L 255.3,162.9 L 254.9,163.1 L 254.4,163.5 L 253.8,163.8 L 253.7,164.7 L 253.7,165.2 L 253.9,165.6 L 254.4,166.3 L 254.2,166.9 L 253.3,167.2 L 252.8,167.4 L 252.1,168.0 L 251.8,168.8 L 251.8,169.3 L 251.8,169.8 L 252.1,170.0 L 252.6,170.0 L 253.4,169.2 L 253.9,168.6 L 254.2,168.1 L 255.1,167.9 L 255.0,168.5 L 254.9,169.2 L 254.8,170.0 L 254.9,170.4 L 255.2,170.7 L 255.6,171.0 L 255.4,171.5 L 255.0,172.0 L 255.2,172.1 L 255.7,172.4 L 255.7,172.6 L 255.6,172.9 L 255.1,174.2 L 255.6,174.5 L 256.6,173.7 L 257.1,173.3 L 257.2,173.7 L 257.3,174.1 L 257.8,174.2 L 258.4,174.8 L 259.4,174.7 L 259.3,175.9 L 259.2,177.5 L 259.4,177.7 L 260.0,177.5 L 260.9,176.5 L 261.9,175.4 L 262.7,174.0 L 263.0,172.8 L 263.2,172.2 L 264.2,171.0 L 264.1,169.5 L 264.2,169.0 L 264.2,168.2 L 263.9,168.0 L 263.5,167.7 L 263.7,167.5 L 264.7,166.9 L 265.9,166.0 L 267.0,164.9 L 267.9,163.6 L 268.7,162.4 L 269.1,161.7 L 268.2,160.7 L 268.2,160.5 L 268.7,160.7 L 269.1,160.8 L 269.5,160.3 L 269.7,159.3 L 269.8,158.8 L 270.1,158.9 L 270.7,159.1 L 271.3,158.9 L 272.4,157.9 L 273.6,156.9 L 274.3,156.2 L 274.8,154.7 L 274.8,154.1 L 275.0,153.4 L 274.8,152.6 L 273.9,151.6 L 273.4,150.6 L 273.0,150.2 L 271.9,149.2 L 270.5,148.6 L 268.9,148.6 L 267.4,148.6 L 266.8,148.3 L 266.1,148.1 L 265.8,148.4 L 265.1,149.5 L 264.6,149.8 L 263.4,149.6 L 262.0,149.2 L 261.2,148.7 L 260.5,147.6 L 260.2,146.2 L 260.4,145.1 L 260.9,144.4 L 262.2,143.7 L 262.9,143.6 L 263.7,143.5 L 264.1,143.1 L 264.4,142.5 L 265.1,142.7 L 266.3,142.2 L 267.4,142.1 L 268.0,142.5 L 268.6,143.5 L 268.5,144.9 L 268.0,146.4 L 268.1,146.8 L 269.0,147.5 L 269.9,147.7 L 271.4,147.8 L 272.2,148.3 L 272.6,148.9 L 273.0,149.2 L 273.6,149.3 L 274.1,149.3 L 275.0,149.2 L 275.6,149.4 L 276.2,150.2 L 276.6,150.4 L 278.0,150.1 L 279.1,149.1 L 279.3,148.2 L 279.6,147.7 L 279.9,147.8 L 280.0,148.6 L 280.1,148.9 L 280.3,148.9 L 280.6,148.7 L 280.5,149.4 L 280.6,150.0 L 281.1,150.1 L 281.5,150.1 L 281.7,151.3 L 282.1,152.8 L 282.8,154.2 L 284.1,154.6 L 284.6,154.3 L 285.2,153.2 L 285.5,153.1 L 285.6,153.7 L 285.8,154.1 L 286.2,154.4 L 287.5,154.2 L 287.9,154.6 L 288.6,154.5 L 288.8,155.0 L 289.2,155.7 L 289.9,156.0 L 290.9,155.6 L 291.7,154.8 L 292.1,153.9 L 291.9,152.9 L 292.0,152.7 L 292.8,151.5 L 293.2,151.4 L 293.5,151.4 L 294.3,150.1 L 294.7,149.5 L 295.1,148.9 L 295.8,147.5 L 295.5,146.9 L 295.0,146.8 L 294.4,145.8 L 293.7,146.2 L 293.3,146.1 L 293.4,145.2 L 293.3,145.0 L 292.9,145.3 L 292.2,145.6 L 291.9,146.4 L 291.3,147.2 L 290.6,148.3 L 290.2,148.8 L 289.7,148.5 L 289.1,148.7 L 288.9,148.5 L 289.8,147.5 L 290.4,146.7 L 290.5,145.1 L 290.0,144.2 L 290.1,143.8 L 290.9,143.7 L 291.5,142.7 L 292.1,142.2 L 292.5,142.8 L 293.9,142.6 L 294.4,142.8 L 294.9,143.0 L 295.5,142.8 L 296.5,141.6 L 297.0,141.4 L 297.4,140.7 L 298.1,139.4 L 298.6,138.1 L 298.2,137.8 L 297.8,137.3 L 298.0,135.7 L 297.8,135.1 L 297.6,134.9 L 297.4,134.6 L 296.2,133.9 L 295.6,134.5 L 295.0,134.2 L 294.4,133.2 L 293.3,132.3 L 291.9,131.6 L 290.6,131.0 L 290.1,131.1 L 289.0,132.0 L 288.7,131.9 L 288.7,131.3 L 288.5,130.0 L 288.2,128.5 L 288.5,127.9 L 290.0,127.8 L 290.5,127.2 L 291.1,125.7 L 291.4,125.0 L 292.5,124.5 L 293.4,124.3 L 293.9,125.8 L 294.5,126.7 L 294.6,127.0 L 295.2,127.3 L 296.1,127.1 L 296.9,126.3 L 298.2,126.6 L 298.7,125.9 L 299.1,125.8 L 299.4,126.2 L 300.4,127.4 L 301.2,128.5 L 301.6,130.0 L 302.4,130.3 L 303.2,129.6 L 303.8,129.0 L 304.5,127.7 L 304.6,127.1 L 304.8,126.6 L 305.0,126.0 L 305.1,125.5 L 305.9,125.4 L 306.7,125.7 L 306.8,126.1 L 307.2,126.4 L 308.4,125.8 L 308.7,125.3 L 309.0,125.1 L 309.0,125.4 L 309.6,126.1 L 310.3,125.5 L 310.8,125.8 L 311.2,125.8 L 311.5,126.1 L 311.8,126.3 L 312.1,126.1 L 312.1,125.3 L 311.7,124.5 L 311.7,124.1 L 311.7,123.3 L 311.9,122.8 L 312.1,121.9 L 312.0,121.2 L 311.2,121.0 L 310.6,120.5 L 310.7,119.6 L 310.2,118.1 L 309.6,117.8 L 308.6,117.2 L 307.6,116.8 L 306.2,116.4 L 304.8,115.7 L 304.3,115.2 L 304.2,114.4 L 304.7,114.3 L 305.7,113.9 L 307.2,113.4 L 307.9,113.5 L 308.5,113.3 L 309.9,112.7 L 311.2,113.0 L 311.8,112.1 L 312.6,111.7 L 313.8,111.7 L 315.2,112.3 L 316.7,112.8 L 317.0,113.3 L 316.9,113.9 L 317.0,114.2 L 317.9,114.9 L 318.2,114.7 L 318.6,114.5 L 319.0,114.7 L 318.7,115.1 L 318.9,115.5 L 319.0,115.7 L 319.5,116.4 L 319.9,116.5 L 320.5,115.7 L 320.5,115.7 L 321.3,114.4 L 321.9,113.1 L 322.4,113.1 L 322.7,113.5 L 322.3,115.0 L 322.6,115.8 L 322.6,116.0 L 322.8,117.4 L 323.1,118.1 L 323.3,118.6 L 323.5,119.2 L 324.1,119.3 L 324.7,119.5 L 325.2,120.3 L 325.4,121.1 L 325.2,122.0 L 324.4,122.6 L 323.9,122.5 L 323.4,121.9 L 322.9,121.6 L 322.3,122.0 L 321.0,121.9 L 320.6,121.4 L 320.2,121.0 L 319.8,120.9 L 319.7,121.7 L 319.5,122.3 L 318.5,122.8 L 317.2,122.9 L 316.4,123.5 L 316.0,124.4 L 315.3,125.3 L 315.0,126.1 L 314.6,127.0 L 313.9,128.4 L 313.3,129.2 L 312.9,130.5 L 312.7,131.1 L 312.6,130.8 L 312.6,129.3 L 312.6,128.1 L 312.4,126.8 L 312.2,126.6 L 311.9,126.8 L 311.9,127.3 L 311.9,128.1 L 311.9,129.4 L 311.6,129.5 L 311.3,129.9 L 311.0,129.4 L 310.7,129.3 L 310.0,130.2 L 310.3,131.0 L 310.3,131.3 L 310.1,131.3 L 309.9,131.2 L 309.4,132.6 L 309.4,134.1 L 309.1,135.6 L 309.3,136.1 L 309.2,136.7 L 309.2,137.4 L 309.5,137.8 L 309.9,137.7 L 310.2,136.8 L 310.1,136.2 L 310.1,135.3 L 310.4,133.8 L 310.3,132.3 L 310.6,131.9 L 311.2,131.8 L 311.5,132.3 L 311.9,133.8 L 311.8,134.3 L 311.3,134.4 L 311.0,134.7 L 311.2,135.0 L 311.0,136.4 L 310.6,137.4 L 310.2,138.6 L 309.7,138.7 L 309.4,138.2 L 309.0,138.0 L 308.6,137.8 L 307.3,137.7 L 306.9,138.1 L 306.7,138.2 L 306.5,137.9 L 306.5,137.6 L 305.9,137.7 L 305.3,138.4 L 304.8,139.7 L 305.0,140.0 L 305.5,139.7 L 305.8,139.7 L 305.8,140.4 L 305.2,141.8 L 304.5,143.2 L 303.7,144.5 L 303.4,145.7 L 302.9,146.9 L 302.7,148.1 L 303.2,147.8 L 303.3,148.5 L 303.3,150.1 L 303.8,150.8 L 304.2,150.8 L 304.8,150.2 L 304.9,149.5 L 305.5,148.3 L 306.2,146.9 L 306.6,146.4 L 306.9,146.4 L 306.7,147.5 L 307.0,147.7 L 307.2,147.2 L 307.5,147.0 L 307.9,148.2 L 307.8,149.3 L 307.5,150.8 L 307.2,152.3 L 307.4,153.1 L 307.8,153.8 L 308.9,154.2 L 309.4,154.3 L 310.5,153.2 L 310.9,152.9 L 311.0,153.3 L 310.8,153.5 L 311.2,153.8 L 311.4,154.2 L 311.8,154.5 L 312.3,155.7 L 312.3,156.4 L 312.0,156.7 L 311.4,156.5 L 311.0,156.8 L 310.6,158.4 L 310.3,159.8 L 310.4,161.4 L 310.6,162.0 L 310.8,163.5 L 311.0,164.8 L 311.3,165.3 L 312.1,164.7 L 312.6,163.8 L 313.2,162.4 L 313.9,161.9 L 314.4,161.9 L 314.5,162.6 L 314.4,164.2 L 314.6,164.5 L 314.8,164.4 L 315.3,164.5 L 315.4,165.0 L 316.1,166.4 L 317.3,167.4 L 317.7,167.3 L 319.1,166.7 L 319.6,166.5 L 320.1,166.4 L 320.2,166.8 L 320.3,167.5 L 320.0,168.4 L 319.9,169.1 L 320.8,170.0 L 320.8,170.4 L 321.2,170.7 L 321.1,171.3 L 320.5,171.1 L 320.3,171.2 L 320.8,171.5 L 320.9,171.6 L 320.5,173.2 L 321.0,173.3 L 321.6,173.6 L 322.0,173.6 L 322.8,173.0 L 323.1,172.7 L 323.5,172.8 L 323.3,173.7 L 323.1,174.5 L 323.6,175.1 L 323.6,175.2 L 323.7,175.2 L 324.1,175.8 L 325.2,175.2 L 325.5,175.6 L 325.5,176.5 L 326.1,177.8 L 326.5,178.0 L 327.1,177.3 L 327.4,177.1 L 327.5,177.5 L 327.4,178.7 L 327.7,179.1 L 328.1,178.9 L 328.8,178.8 L 329.1,179.0 L 329.9,180.3 L 330.7,180.2 L 330.9,180.6 L 331.2,180.6 L 331.9,179.7 L 332.5,179.0 L 333.4,179.0 L 333.8,178.8 L 334.0,178.8 L 334.9,178.6 L 335.4,178.1 L 336.1,176.8 L 336.4,175.3 L 336.6,173.9 L 337.0,172.5 L 337.7,171.1 L 337.8,171.2 L 337.9,172.6 L 337.8,174.1 L 337.7,175.6 L 337.4,177.1 L 337.4,178.5 L 337.4,180.1 L 338.2,180.5 L 338.7,180.5 L 339.4,179.7 L 339.6,179.5 L 340.2,180.4 L 340.5,180.3 L 341.3,179.7 L 341.7,180.4 L 342.1,180.4 L 341.9,181.1 L 341.4,182.5 L 341.3,183.8 L 340.9,184.9 L 340.6,186.4 L 340.4,187.9 L 340.4,189.4 L 341.3,190.0 L 342.0,190.2 L 342.7,189.5 L 343.1,190.0 L 343.4,189.8 L 343.9,189.4 L 344.4,190.0 L 344.7,190.1 L 345.1,190.2 L 345.9,190.2 L 346.5,190.3 L 346.5,190.6 L 346.1,191.8 L 346.4,192.1 L 346.5,193.4 L 346.1,194.9 L 346.2,195.5 L 346.5,195.7 L 347.0,195.3 L 347.0,194.5 L 347.2,193.6 L 347.5,192.2 L 347.6,191.6 L 348.3,191.5 L 349.8,190.9 L 350.5,190.1 L 351.0,188.7 L 351.3,188.8 L 351.3,189.6 L 351.5,189.8 L 352.0,188.9 L 352.9,187.7 L 353.8,186.5 L 354.5,185.1 L 355.1,183.7 L 355.3,183.6 L 355.4,183.8 L 355.1,185.3 L 354.8,186.8 L 354.3,188.2 L 354.1,189.7 L 354.0,190.8 L 354.3,191.0 L 355.1,190.4 L 355.5,190.4 L 355.5,190.8 L 354.7,192.1 L 354.4,192.7 L 354.1,194.1 L 354.1,195.0 L 354.3,196.0 L 354.5,197.4 L 354.1,198.3 L 352.4,201.7 L 352.4,201.8 L 352.4,201.7 L 352.0,202.0 L 351.9,202.8 L 351.7,204.3 L 351.8,205.8 L 351.7,207.3 L 351.3,207.5 L 350.6,207.4 L 350.1,206.1 L 349.7,205.7 L 348.9,204.4 L 348.3,203.0 L 347.8,202.9 L 347.0,202.4 L 346.5,202.9 L 345.8,203.0 L 345.4,204.5 L 345.6,205.9 L 345.2,206.3 L 344.8,207.8 L 344.6,207.7 L 344.6,206.8 L 344.5,205.7 L 344.5,205.2 L 344.4,203.7 L 344.5,202.2 L 344.4,200.7 L 344.2,201.0 L 343.9,202.6 L 343.7,202.8 L 343.6,202.6 L 343.6,201.1 L 343.9,199.7 L 344.2,198.9 L 343.7,198.4 L 343.4,198.6 L 342.8,200.0 L 342.6,198.8 L 342.4,198.0 L 342.0,198.9 L 341.6,200.3 L 341.2,201.7 L 340.8,203.2 L 340.6,204.7 L 340.6,205.4 L 340.9,205.5 L 341.2,204.9 L 341.8,203.7 L 341.8,204.8 L 341.3,206.3 L 340.6,207.6 L 340.7,208.1 L 341.3,207.7 L 341.4,207.9 L 340.6,209.1 L 340.3,210.2 L 340.3,211.6 L 340.5,211.9 L 341.4,210.7 L 341.7,211.0 L 341.8,211.8 L 341.6,213.3 L 341.2,214.0 L 341.0,213.9 L 340.7,213.7 L 340.5,215.2 L 340.1,216.7 L 339.6,217.7 L 339.2,218.6 L 339.3,219.2 L 339.7,220.1 L 339.4,220.6 L 339.5,221.5 L 340.1,222.9 L 340.6,224.3 L 341.0,225.0 L 342.0,225.5 L 342.7,225.7 L 342.9,225.7 L 343.3,225.4 L 343.5,223.9 L 344.0,223.9 L 344.2,224.7 L 344.6,225.3 L 345.2,225.5 L 345.5,225.7 L 345.5,227.0 L 345.4,228.5 L 345.9,229.4 L 345.7,229.6 L 344.5,229.3 L 343.0,229.1 L 342.4,229.1 L 342.3,229.1 L 341.9,229.8 L 341.6,231.3 L 341.3,231.8 L 341.0,231.5 L 340.3,231.0 L 339.6,231.5 L 338.9,230.8 L 338.4,230.8 L 337.8,231.2 L 338.0,232.7 L 337.5,233.9 L 337.4,234.3 L 337.0,235.1 L 336.8,236.6 L 336.5,237.6 L 335.5,238.7 L 334.8,240.1 L 334.5,241.5 L 334.3,243.0 L 334.2,244.5 L 334.2,246.0 L 334.7,247.5 L 334.9,248.9 L 334.8,250.4 L 335.2,251.3 L 336.0,252.0 L 336.8,251.9 L 336.9,252.1 L 337.6,252.7 L 338.7,253.5 L 338.9,253.9 L 338.6,254.1 L 338.4,254.7 L 338.7,255.6 L 339.2,256.1 L 338.9,256.4 L 338.5,256.3 L 338.4,256.3 L 336.8,255.9 L 336.5,256.2 L 336.5,256.1 L 336.4,256.3 L 335.9,256.3 L 335.7,257.1 L 335.6,258.6 L 335.2,258.5 L 334.7,258.9 L 334.1,257.6 L 333.8,258.0 L 333.6,257.5 L 333.2,257.7 L 333.0,257.5 L 332.8,257.3 L 332.5,257.6 L 332.1,258.6 L 331.8,259.4 L 330.9,259.4 L 330.6,259.8 L 330.3,261.3 L 330.0,262.7 L 330.2,263.9 L 330.1,265.4 L 330.2,266.3 L 330.6,267.7 L 330.7,269.3 L 331.1,270.5 L 332.1,271.0 L 332.1,272.1 L 331.6,272.6 L 331.2,273.6 L 330.6,274.1 L 330.4,274.6 L 330.6,275.5 L 331.4,276.2 L 331.8,276.7 L 332.2,277.3 L 333.1,277.3 L 333.4,277.9 L 333.0,279.0 L 332.8,280.4 L 333.1,281.6 L 333.2,283.1 L 333.2,284.6 L 333.2,285.8 L 332.8,286.9 L 332.0,286.6 L 330.9,287.1 L 330.1,287.6 L 329.9,288.9 L 329.8,288.8 L 329.7,289.9 L 329.5,291.5 L 329.1,293.0 L 328.8,294.2 L 328.4,295.7 L 328.0,297.1 L 328.4,298.6 L 328.4,299.3 L 328.8,299.6 L 329.0,299.8 L 328.8,300.7 L 328.7,301.8 L 328.9,302.3 L 329.1,303.0 L 329.3,304.0 L 329.7,303.9 L 330.0,304.1 L 330.2,305.3 L 330.2,306.8 L 330.1,308.3 L 330.0,309.7 L 330.2,310.2 L 331.2,310.4 L 331.7,310.7 L 331.5,311.3 L 331.6,311.6 L 331.9,311.7 L 331.6,312.2 L 329.7,315.2 L 329.5,315.2 L 329.4,315.4 L 329.4,315.4 L 329.2,315.7 L 328.7,316.6 L 328.0,317.8 L 327.7,319.2 L 327.4,320.7 L 327.2,322.2 L 327.1,323.3 L 326.9,323.8 L 326.7,324.6 L 327.4,325.1 L 327.2,325.7 L 326.4,325.9 L 326.3,326.4 L 326.3,326.4 L 316.5,333.6 L 300.8,345.1 L 300.8,344.9 L 300.6,344.3 L 300.0,343.3 L 299.3,343.4 L 298.9,342.1 L 298.7,342.1 L 297.6,343.1 L 296.6,343.9 L 296.6,344.5 L 296.6,344.5 L 296.8,345.5 L 296.6,346.0 L 296.3,346.0 L 296.3,344.5 L 296.3,344.4 L 296.6,343.0 L 297.3,342.0 L 297.8,341.5 L 298.2,340.7 L 298.4,340.4 L 297.8,339.0 L 297.3,338.7 L 297.3,338.6 L 297.3,338.6 L 295.9,338.0 L 295.4,337.3 L 295.2,336.9 L 294.9,337.0 L 294.1,338.2 L 293.6,339.1 L 293.8,339.9 L 294.4,341.2 L 294.6,342.0 L 294.8,342.3 L 295.0,342.5 L 295.1,342.0 L 295.1,341.3 L 295.4,341.1 L 296.1,341.4 L 296.2,341.9 L 296.0,343.4 L 295.9,344.4 L 295.8,344.9 L 295.5,346.3 L 294.8,346.4 L 255.9,353.6 L 221.1,360.0 L 220.6,359.6 L 220.3,359.8 L 219.9,360.0 L 219.3,359.9 L 218.6,359.3 L 217.8,359.1 L 217.1,358.2 L 216.7,357.9 L 216.1,357.4 L 215.4,357.3 L 214.2,358.0 L 213.8,358.0 L 212.7,358.2 L 212.1,358.1 L 212.4,357.7 L 211.4,357.9 L 211.4,356.5 L 210.8,356.3 L 210.9,355.7 L 211.7,355.4 L 211.9,354.6 L 212.1,353.5 L 212.5,352.7 L 212.9,351.2 L 213.1,349.8 L 213.0,348.9 L 213.6,348.2 L 213.5,347.3 L 213.0,346.1 L 212.6,346.1 L 212.1,345.1 L 211.6,345.0 L 211.0,345.3 L 210.7,346.0 L 210.0,345.7 L 161.6,327.3 L 161.9,327.0 L 162.6,326.6 L 163.2,325.5 L 163.5,324.9 L 163.8,324.3 L 163.5,323.2 L 163.3,323.2 L 162.9,323.5 L 162.3,323.8 L 161.7,324.0 L 161.5,323.7 L 160.9,322.3 L 160.1,321.0 L 159.2,320.4 L 158.8,320.5 L 157.9,320.7 L 156.8,320.8 L 156.5,321.2 L 156.3,322.2 L 155.3,323.4 L 155.0,323.6 L 155.1,322.1 L 155.3,320.5 L 155.6,319.0 L 155.3,318.7 L 154.7,318.3 L 154.9,317.9 L 155.4,317.5 L 156.2,316.4 L 156.1,315.8 L 155.6,315.1 L 154.4,314.2 L 153.2,313.3 L 151.9,312.4 L 150.8,311.5 L 149.5,310.6 L 148.3,309.6 L 147.9,309.6 L 147.3,309.6 L 145.8,309.5 L 145.4,309.1 L 145.0,309.3 L 144.6,309.7 L 144.5,309.5 L 144.7,308.4 L 143.3,307.8 L 142.8,307.7 L 141.6,306.8 L 140.9,306.3 L 140.7,306.5 L 140.9,308.1 L 140.4,308.7 L 140.2,308.5 L 139.8,307.1 L 139.3,306.4 L 138.9,306.5 L 138.1,306.3 L 137.8,306.4 L 137.3,307.0 L 137.1,306.9 L 136.8,305.4 L 136.6,305.2 L 135.4,305.0 L 135.0,305.1 L 134.3,305.5 L 134.0,305.2 L 133.7,304.1 L 133.9,304.0 L 135.2,304.3 L 135.9,304.4 L 137.2,303.7 L 137.5,302.5 L 137.7,302.1 L 137.3,301.6 L 136.1,300.7 L 136.1,300.3 L 136.4,300.2 L 137.3,300.6 L 137.9,300.6 L 138.5,301.0 L 138.9,301.6 L 140.0,302.3 L 140.5,302.2 L 140.8,301.6 L 141.0,300.1 L 141.2,299.3 L 141.3,298.8 L 141.1,298.2 L 141.3,297.6 L 141.6,297.3 L 141.9,296.6 L 142.1,295.9 L 141.6,295.1 L 141.5,294.4 L 141.2,294.3 L 140.3,294.6 L 139.2,294.4 L 139.4,293.9 L 140.4,292.8 L 140.6,292.1 L 140.3,290.6 L 139.9,289.7 L 139.0,288.9 L 138.0,288.7 L 137.5,288.7 L 137.3,288.1 L 137.5,286.6 L 137.5,286.1 L 136.8,285.7 L 136.5,285.7 L 136.4,286.6 L 136.2,287.0 L 135.8,288.6 L 135.3,290.0 L 134.9,290.6 L 134.5,291.0 L 133.9,290.9 L 133.8,290.4 L 133.9,290.0 L 134.4,289.9 L 134.6,289.8 L 134.3,289.4 L 133.8,289.0 L 133.6,289.3 L 133.4,289.9 L 133.1,290.1 L 133.1,290.8 L 132.9,291.5 L 133.1,292.4 L 133.4,292.1 L 134.0,291.3 L 134.1,291.5 L 133.9,292.8 L 134.4,293.2 L 134.6,293.3 L 135.8,294.0 L 136.1,294.7 L 136.0,295.4 L 135.6,295.6 L 135.3,295.3 L 134.9,295.1 L 134.5,295.2 L 133.9,295.4 L 133.7,295.1 L 133.5,294.2 L 133.2,294.0 L 132.8,294.1 L 132.7,294.5 L 133.2,295.6 L 132.8,296.3 L 132.6,296.3 L 132.1,295.5 L 131.3,296.5 L 130.7,295.9 L 130.1,295.5 L 129.5,294.8 L 128.7,294.4 L 128.0,294.0 L 127.3,293.7 L 126.4,294.0 L 125.8,294.1 L 125.0,293.9 L 124.1,294.5 L 123.3,294.3 L 123.3,293.9 L 123.0,293.5 L 122.5,293.8 L 122.4,294.1 L 122.8,294.0 L 123.1,293.9 L 123.2,294.4 L 121.8,295.1 L 121.2,295.1 L 121.1,294.2 L 120.8,292.6 L 120.7,291.9 L 121.0,291.1 L 120.9,291.1 L 120.5,291.3 L 120.0,290.7 L 119.3,289.3 L 118.7,288.0 L 118.8,286.9 L 118.6,285.9 L 117.7,284.7 L 116.6,283.6 L 115.8,283.2 L 115.2,283.2 L 114.1,282.1 L 113.9,281.7 L 113.9,280.9 L 112.8,279.9 L 111.7,279.4 L 110.4,279.7 L 110.2,279.3 L 110.3,278.9 L 109.8,278.8 L 109.2,278.6 L 108.1,277.5 L 107.6,276.7 L 107.0,276.6 L 106.2,276.5 L 105.4,275.8 L 104.6,275.0 L 104.9,274.3 L 105.1,273.7 L 104.5,273.1 L 104.3,273.0 L 103.4,272.1 L 102.3,271.0 L 101.0,270.2 L 100.1,269.7 L 99.3,269.8 L 98.1,270.1 L 96.8,269.3 L 96.2,269.5 L 94.9,268.7 L 93.5,268.0 L 92.1,267.5 L 91.6,267.5 L 90.4,268.6 L 89.5,268.8 L 89.2,268.5 L 88.9,268.2 L 88.3,268.6 L 88.2,268.3 L 73.5,242.8 L 74.1,242.6 L 75.5,242.1 L 76.5,241.6 L 76.7,241.1 L 76.2,240.7 L 75.5,240.7 L 75.4,240.8 L 74.1,240.9 L 73.0,241.9 L 72.2,240.5 L 72.0,240.3 L 72.2,240.3 L 73.4,239.5 L 73.5,239.0 L 73.8,238.7 L 74.0,238.4 L 73.4,237.7 L 73.5,237.4 L 73.7,237.1 L 73.3,236.8 L 72.6,236.2 L 72.6,235.8 L 73.8,235.0 L 74.3,233.7 L 74.3,233.1 L 73.6,232.5 L 74.5,232.0 L 74.1,231.7 L 73.8,231.4 L 74.1,230.9 L 74.6,230.7 L 75.8,230.9 L 77.3,230.3 L 77.9,230.5 L 79.4,230.1 L 80.4,229.8 L 80.3,229.4 L 79.3,229.0 L 78.2,229.3 L 77.7,229.3 L 77.3,228.7 L 75.8,228.6 L 74.6,228.6 L 74.2,229.1 L 73.6,230.1 L 72.7,230.1 L 71.3,229.4 L 70.2,228.4 L 69.1,227.4 L 67.9,226.5 L 67.5,226.1 L 68.0,225.4 L 66.5,225.5 L 65.5,224.9 L 65.5,224.6 L 64.8,224.0 L 64.6,224.1 L 65.1,224.9 L 64.8,224.8 L 64.0,223.6 L 63.8,223.7 L 63.8,225.1 L 63.4,225.2 L 62.7,224.8 L 62.5,225.1 L 62.0,224.9 L 61.1,224.2 L 60.0,223.6 L 59.4,223.3 L 58.6,223.2 L 58.2,222.8 L 57.6,221.8 L 57.1,221.5 L 56.5,220.2 L 55.5,219.5 L 55.5,219.1 L 55.9,218.4 L 55.5,217.0 L 55.2,216.5 L 54.9,216.3 L 55.3,216.1 L 56.8,216.3 L 57.7,216.1 L 57.5,215.2 L 57.1,214.9 L 56.6,215.0 L 55.6,215.8 L 54.6,215.8 L 54.4,214.2 L 54.0,213.2 L 53.3,212.7 L 53.2,211.8 L 53.0,210.8 L 53.0,210.2 L 53.1,209.5 L 52.9,208.9 L 52.6,208.1 L 52.0,206.6 L 51.9,205.7 L 52.3,205.6 L 53.6,205.3 L 54.0,204.8 L 54.0,204.1 L 53.5,203.1 L 52.4,202.1 L 51.9,200.6 L 51.3,200.2 L 51.0,200.7 L 50.6,200.0 L 49.9,198.6 L 49.0,197.5 L 48.1,197.1 L 47.8,196.9 L 48.4,196.2 L 48.7,196.3 L 49.9,197.3 L 50.1,197.7 L 51.0,197.4 L 51.2,196.6 L 51.3,195.1 L 51.1,193.7 L 50.6,192.3 L 50.2,190.8 L 49.7,189.4 L 49.4,188.1 L 48.3,187.0 L 48.2,186.3 L 48.1,184.7 L 47.8,183.5 L 47.1,183.0 L 46.3,182.7 L 45.4,182.6 L 44.5,181.7 L 44.5,181.3 L 44.7,181.1 L 46.3,180.9 L 47.1,181.2 L 47.8,181.5 L 48.0,181.2 L 48.1,180.3 L 48.1,180.0 L 49.2,180.0 L 49.4,180.7 L 49.7,181.5 L 50.6,181.8 L 52.0,182.3 L 53.4,183.0 L 54.8,183.5 L 56.0,184.0 L 56.3,184.4 L 56.0,185.5 L 56.1,186.3 L 56.8,187.0 L 57.1,187.7 L 57.1,188.6 L 56.8,188.8 L 55.6,188.5 L 55.2,188.1 L 54.9,187.9 L 54.9,188.5 L 54.4,189.7 L 54.3,191.0 L 54.2,192.4 L 54.1,193.9 L 54.4,195.4 L 54.6,196.9 L 54.5,197.5 L 54.6,198.1 L 55.5,199.3 L 56.3,199.6 L 57.8,199.4 L 59.4,199.3 L 60.9,199.1 L 62.3,199.6 L 63.4,199.3 L 63.9,199.6 L 65.1,200.3 L 65.8,200.4 L 66.4,200.5 L 67.8,201.1 L 68.3,201.5 L 68.7,201.9 L 69.7,202.6 L 70.3,202.9 L 70.6,202.7 L 70.8,201.6 L 70.6,201.0 L 70.1,201.0 L 69.5,200.7 L 69.4,200.4 L 70.3,199.5 L 71.2,199.0 L 71.8,199.1 L 72.2,199.5 L 72.2,200.9 L 72.0,201.5 L 72.0,202.9 L 72.2,203.3 L 73.6,203.6 L 75.0,204.2 L 76.5,204.4 L 77.4,204.9 L 78.5,205.9 L 79.8,206.8 L 81.2,207.4 L 82.3,208.0 L 83.6,208.5" fill="none" stroke="black" stroke-width="2"/>
</svg>