<?xml version="1.0" encoding="UTF-8"?>
<svg width="400" height="400" viewBox="0 0 400 400" xmlns="http://www.w3.org/2000/svg">
  <rect width="400" height="400" fill="white"/>
  <path d="M 180.5,138.7 L 180.3,137.9 L 180.6,137.4 L 181.4,136.8 L 181.9,135.4 L 183.0,134.1 L 183.7,132.7 L 184.0,131.8 L 184.6,130.4 L 185.2,126.8 L 185.8,125.5 L 186.7,124.5 L 189.5,122.3 L 190.5,121.7 L 191.4,120.8 L 192.2,119.9 L 192.4,119.1 L 193.9,118.2 L 194.9,116.2 L 195.2,114.2 L 195.3,112.8 L 196.6,111.8 L 197.9,110.7 L 198.0,110.2 L 197.8,109.6 L 197.9,109.0 L 198.3,105.3 L 198.8,104.1 L 199.4,103.0 L 199.6,101.6 L 198.8,98.1 L 197.8,96.0 L 197.2,94.2 L 196.6,92.8 L 195.5,91.4 L 194.9,89.2 L 194.7,88.6 L 194.8,86.9 L 194.6,85.5 L 194.4,84.2 L 193.0,81.6 L 192.6,79.7 L 192.8,76.1 L 192.5,74.1 L 191.8,72.6 L 190.9,70.0 L 190.5,68.7 L 189.0,66.1 L 188.3,62.6 L 188.2,60.5 L 188.2,58.1 L 187.1,54.6 L 186.4,52.5 L 185.6,51.7 L 184.9,50.8 L 184.4,49.8 L 184.3,48.5 L 184.1,47.5 L 184.5,46.6 L 186.6,44.2 L 187.1,43.7 L 187.6,42.9 L 188.6,42.4 L 189.6,42.1 L 190.6,41.7 L 191.7,41.5 L 193.8,41.0 L 196.4,41.4 L 197.8,41.9 L 200.6,43.7 L 201.6,43.4 L 201.8,43.6 L 201.4,44.4 L 202.3,44.3 L 204.1,43.5 L 205.0,43.6 L 207.3,43.9 L 208.5,43.5 L 208.8,43.0 L 210.8,42.9 L 214.0,43.4 L 215.3,42.7 L 215.7,42.5 L 216.6,41.8 L 219.0,40.5 L 219.7,40.1 L 221.1,40.0 L 224.6,40.0 L 226.3,40.6 L 227.5,40.8 L 229.3,42.3 L 229.4,42.6 L 229.5,43.3 L 230.3,43.7 L 230.8,43.9 L 231.3,44.6 L 231.9,44.8 L 232.1,45.7 L 232.4,46.7 L 234.4,48.7 L 235.0,49.2 L 236.1,50.9 L 236.5,51.7 L 236.8,52.5 L 236.6,53.3 L 236.2,54.1 L 236.7,56.7 L 237.2,57.1 L 238.3,57.5 L 238.9,58.6 L 238.7,59.3 L 237.8,61.5 L 237.4,65.1 L 237.4,66.3 L 237.5,67.7 L 237.5,69.2 L 237.8,71.1 L 237.6,71.4 L 237.2,71.3 L 237.0,72.0 L 237.6,75.4 L 238.5,77.7 L 239.3,78.2 L 239.6,79.1 L 239.8,80.3 L 240.1,83.2 L 240.6,84.4 L 241.6,86.7 L 243.3,88.2 L 242.9,88.9 L 243.3,89.7 L 242.5,90.8 L 242.1,92.2 L 241.9,93.9 L 242.0,95.4 L 242.2,96.2 L 242.9,97.1 L 243.2,100.7 L 244.2,101.6 L 245.1,102.3 L 245.5,103.2 L 245.5,103.6 L 246.8,104.7 L 246.7,105.6 L 245.0,106.3 L 244.5,106.7 L 244.6,107.4 L 245.4,108.2 L 245.1,108.7 L 244.3,109.8 L 243.7,113.3 L 242.7,116.8 L 241.6,119.3 L 239.9,122.5 L 239.0,124.9 L 236.5,127.3 L 234.8,128.6 L 233.3,129.6 L 230.7,132.2 L 228.6,135.0 L 226.6,138.1 L 224.4,140.8 L 222.1,143.6 L 221.3,144.6 L 220.3,146.8 L 219.9,148.5 L 218.9,150.5 L 217.4,153.2 L 216.8,155.0 L 216.2,156.9 L 215.6,159.5 L 214.8,161.0 L 214.0,164.3 L 213.7,165.3 L 214.1,167.5 L 213.5,169.7 L 211.7,171.6 L 210.1,173.3 L 207.0,175.1 L 205.8,175.6 L 204.4,176.6 L 201.9,177.3 L 200.4,178.1 L 199.2,179.2 L 198.7,180.3 L 198.5,182.4 L 199.0,183.8 L 199.8,184.6 L 201.7,185.2 L 202.7,185.9 L 203.6,186.2 L 204.8,187.0 L 206.0,187.4 L 206.5,188.5 L 207.1,191.2 L 207.0,193.5 L 206.7,197.1 L 206.4,200.0 L 206.0,201.8 L 206.3,202.5 L 206.5,203.2 L 206.8,206.7 L 207.0,209.8 L 206.9,210.5 L 207.0,212.9 L 207.0,214.9 L 206.4,217.2 L 205.5,219.4 L 204.4,220.4 L 204.0,221.6 L 203.4,223.4 L 202.8,223.9 L 201.2,224.4 L 199.1,224.4 L 196.3,223.7 L 194.5,223.1 L 193.5,222.0 L 192.7,220.4 L 192.1,219.3 L 191.3,218.6 L 190.3,215.4 L 188.9,213.6 L 188.0,211.2 L 186.1,209.5 L 184.3,208.0 L 182.8,206.9 L 182.2,206.4 L 181.4,204.7 L 180.6,202.7 L 179.8,201.7 L 177.6,200.4 L 174.7,198.9 L 172.5,197.7 L 171.3,197.7 L 169.3,198.1 L 168.1,199.3 L 167.3,200.4 L 165.5,200.8 L 162.0,200.0 L 160.4,199.9 L 159.1,200.4 L 158.2,201.4 L 157.3,202.5 L 155.8,206.0 L 155.6,209.6 L 156.8,212.9 L 157.4,216.5 L 158.1,218.9 L 159.1,222.3 L 159.2,224.4 L 159.2,225.9 L 159.1,226.4 L 159.7,227.9 L 159.9,230.0 L 160.1,230.6 L 160.8,231.5 L 160.9,232.9 L 160.5,235.4 L 160.9,236.4 L 161.7,236.7 L 163.0,237.1 L 163.2,237.7 L 163.1,239.7 L 163.9,240.8 L 165.1,240.7 L 166.6,240.8 L 167.5,241.5 L 169.0,242.8 L 169.8,244.9 L 169.9,245.6 L 170.7,246.6 L 171.0,246.9 L 170.6,249.1 L 169.8,251.1 L 169.4,251.3 L 168.8,250.5 L 168.3,251.0 L 168.5,251.4 L 168.7,252.3 L 168.1,252.9 L 168.6,253.6 L 170.2,254.4 L 170.4,254.9 L 169.1,258.3 L 168.4,259.9 L 168.4,260.9 L 170.0,264.2 L 170.5,265.1 L 171.1,265.6 L 171.7,266.1 L 174.0,266.5 L 174.6,267.0 L 174.5,267.4 L 175.1,267.7 L 175.7,268.0 L 176.2,268.4 L 177.0,269.0 L 177.7,270.2 L 180.6,271.0 L 182.5,271.3 L 185.6,272.6 L 187.5,274.0 L 188.8,274.6 L 190.1,275.0 L 192.7,277.6 L 193.4,278.9 L 194.1,280.3 L 194.9,281.4 L 194.8,282.0 L 194.4,283.0 L 194.6,283.9 L 194.6,284.6 L 194.3,285.8 L 194.0,286.7 L 194.3,287.6 L 194.8,288.5 L 194.7,289.1 L 193.9,289.4 L 193.4,289.7 L 191.7,288.7 L 190.2,289.1 L 190.0,289.6 L 189.8,290.1 L 188.6,290.9 L 188.6,291.4 L 188.8,291.8 L 188.4,292.1 L 188.5,292.5 L 189.8,294.3 L 190.1,294.7 L 191.1,296.4 L 193.0,299.5 L 194.7,302.6 L 196.6,305.5 L 197.4,304.0 L 198.0,303.4 L 198.9,303.2 L 200.6,303.5 L 202.0,303.2 L 202.5,303.9 L 203.1,304.8 L 203.8,306.1 L 204.4,306.9 L 205.5,307.1 L 205.9,307.7 L 207.4,308.3 L 209.0,309.1 L 210.4,309.6 L 210.4,310.2 L 210.6,311.1 L 212.3,314.2 L 212.3,316.0 L 211.8,319.0 L 210.3,322.3 L 210.5,323.4 L 210.4,323.7 L 209.7,323.7 L 209.5,324.8 L 209.2,325.0 L 208.8,324.2 L 208.2,322.9 L 207.5,322.6 L 207.2,322.6 L 207.1,323.2 L 208.0,326.4 L 208.7,326.7 L 209.5,327.9 L 210.9,331.1 L 212.5,334.4 L 214.2,337.5 L 215.4,340.8 L 216.3,344.3 L 216.9,347.8 L 216.2,350.0 L 214.3,353.0 L 212.7,356.2 L 210.9,359.4 L 210.4,360.0 L 209.2,357.5 L 211.2,355.5 L 213.1,352.2 L 214.8,349.1 L 215.4,345.5 L 214.3,342.0 L 213.1,338.6 L 211.7,335.4 L 209.7,332.4 L 208.3,329.1 L 206.7,326.5 L 205.4,324.2 L 204.2,322.4 L 203.0,320.8 L 202.4,320.3 L 199.9,321.4 L 198.9,320.8 L 198.3,320.4 L 198.4,319.7 L 198.3,319.2 L 197.4,318.7 L 196.6,318.8 L 195.6,318.4 L 193.5,318.2 L 190.2,319.6 L 189.1,319.7 L 188.4,320.1 L 187.3,320.1 L 186.1,317.5 L 186.2,315.6 L 186.6,314.9 L 186.9,314.7 L 188.7,313.9 L 190.0,311.7 L 191.8,308.6 L 192.3,307.6 L 193.8,307.3 L 195.8,307.2 L 194.5,304.4 L 192.6,301.3 L 190.9,298.1 L 188.9,295.5 L 187.8,295.2 L 186.2,293.9 L 185.5,293.3 L 184.3,293.3 L 183.4,293.0 L 183.3,292.1 L 181.0,289.3 L 179.7,287.9 L 179.0,284.5 L 177.7,281.1 L 177.3,281.0 L 176.6,280.9 L 176.2,280.4 L 175.5,280.0 L 175.0,278.3 L 175.1,277.0 L 174.2,275.4 L 173.0,274.0 L 170.5,271.4 L 169.2,269.7 L 167.8,266.7 L 168.2,266.2 L 168.7,265.3 L 168.6,264.1 L 168.1,262.6 L 167.2,261.5 L 165.6,259.9 L 164.8,258.6 L 164.4,256.5 L 164.1,255.4 L 163.7,253.3 L 163.1,252.5 L 161.9,251.7 L 160.5,251.4 L 159.7,249.8 L 159.1,247.2 L 156.9,244.4 L 155.6,242.7 L 155.2,240.9 L 155.0,239.9 L 154.8,238.3 L 155.0,237.4 L 155.6,236.2 L 155.5,235.0 L 155.7,234.5 L 157.1,233.3 L 157.3,230.5 L 156.9,228.4 L 157.0,228.1 L 157.5,227.5 L 157.8,226.2 L 157.6,224.3 L 157.4,221.8 L 156.7,218.2 L 155.8,214.7 L 154.9,211.3 L 154.2,207.8 L 153.8,206.6 L 153.2,205.9 L 155.9,203.6 L 156.3,202.5 L 156.5,201.2 L 157.0,199.9 L 157.4,199.0 L 157.0,198.5 L 156.7,197.7 L 157.1,195.5 L 159.4,192.7 L 160.2,190.8 L 160.8,190.7 L 163.8,191.0 L 164.2,191.2 L 165.2,190.6 L 166.5,190.0 L 167.6,188.9 L 167.8,188.2 L 168.5,187.1 L 169.0,185.2 L 170.2,183.7 L 170.4,182.1 L 170.1,180.6 L 169.6,179.4 L 169.9,178.4 L 170.8,176.4 L 171.1,175.7 L 173.5,173.2 L 174.4,172.3 L 174.6,171.1 L 175.5,169.1 L 176.7,167.2 L 176.9,166.1 L 177.0,165.2 L 177.3,164.4 L 177.7,162.7 L 178.5,161.5 L 179.1,161.4 L 180.0,161.5 L 180.1,160.7 L 179.7,159.7 L 178.9,158.9 L 177.3,155.7 L 177.3,154.6 L 177.7,153.3 L 178.2,152.8 L 179.0,152.3 L 179.8,151.4 L 181.4,151.1 L 182.0,150.4 L 182.3,149.3 L 182.3,146.7 L 181.1,143.2 L 181.0,141.8 L 180.9,140.2 L 180.5,138.7" fill="none" stroke="black" stroke-width="2"/>
</svg>