<?xml version="1.0" encoding="UTF-8"?>
<svg width="400" height="400" viewBox="0 0 400 400" xmlns="http://www.w3.org/2000/svg">
  <rect width="400" height="400" fill="white"/>
  <path d="M 43.6,239.6 L 43.8,239.7 L 44.3,240.1 L 45.6,240.2 L 48.6,239.9 L 50.1,239.2 L 50.4,238.8 L 51.2,238.6 L 51.6,237.5 L 51.3,236.8 L 50.7,236.1 L 51.0,235.9 L 52.5,235.8 L 54.2,234.2 L 54.5,234.4 L 54.7,234.8 L 55.3,234.6 L 55.6,234.2 L 55.6,233.5 L 55.5,233.3 L 56.4,233.1 L 56.2,232.8 L 55.8,232.5 L 55.9,232.2 L 57.5,231.5 L 56.8,230.7 L 57.0,229.0 L 56.9,228.4 L 57.2,227.5 L 57.3,227.1 L 57.9,226.8 L 58.4,226.6 L 59.0,226.0 L 59.5,224.7 L 60.2,224.3 L 61.1,224.0 L 61.7,224.2 L 62.1,224.4 L 63.2,223.8 L 64.5,223.7 L 65.0,223.5 L 66.3,223.7 L 67.3,223.7 L 67.8,223.5 L 68.7,223.2 L 69.7,222.7 L 70.7,222.8 L 73.0,221.7 L 73.7,222.0 L 74.2,222.2 L 75.5,222.3 L 76.4,222.5 L 77.3,222.1 L 77.9,221.3 L 78.3,221.3 L 78.7,221.8 L 79.0,221.9 L 79.4,222.1 L 79.6,222.6 L 80.1,222.5 L 80.8,222.1 L 81.8,220.7 L 82.4,217.8 L 83.9,215.9 L 84.7,216.0 L 87.2,217.2 L 88.0,218.0 L 88.8,218.3 L 89.8,218.4 L 90.1,219.0 L 90.4,219.5 L 91.2,220.2 L 91.4,221.0 L 92.5,221.9 L 93.6,222.1 L 94.4,222.1 L 95.5,222.3 L 96.5,222.2 L 96.9,222.8 L 97.6,223.2 L 98.5,222.8 L 99.3,222.6 L 99.5,222.8 L 99.8,223.8 L 100.1,224.0 L 100.4,224.5 L 101.1,224.8 L 103.3,224.8 L 105.1,222.6 L 106.7,222.0 L 107.7,221.6 L 110.0,220.4 L 110.5,219.7 L 111.2,216.7 L 111.3,216.1 L 111.0,215.4 L 111.1,214.1 L 111.4,212.4 L 111.2,212.2 L 111.4,210.9 L 111.7,210.2 L 111.8,209.6 L 111.4,209.3 L 111.3,208.5 L 112.9,206.8 L 113.1,205.6 L 112.7,204.5 L 112.2,204.3 L 112.4,203.8 L 113.1,203.0 L 114.3,200.6 L 114.6,199.0 L 114.6,198.0 L 113.7,197.3 L 113.2,197.4 L 112.6,197.8 L 112.3,197.6 L 112.0,197.4 L 110.9,197.3 L 110.5,196.7 L 109.7,194.8 L 108.8,193.6 L 108.4,193.6 L 107.8,192.7 L 107.1,192.2 L 106.9,191.8 L 106.8,190.7 L 107.1,190.5 L 107.9,190.1 L 109.3,188.0 L 109.6,187.4 L 110.0,186.3 L 111.6,183.9 L 111.4,183.5 L 110.9,182.8 L 111.9,182.2 L 112.8,181.4 L 113.4,180.6 L 114.0,180.4 L 114.5,179.9 L 115.3,179.3 L 115.9,178.9 L 116.4,178.1 L 117.0,177.4 L 117.9,177.2 L 118.2,176.7 L 119.1,176.3 L 120.4,175.1 L 120.9,174.6 L 121.3,174.8 L 121.6,175.5 L 121.8,175.4 L 122.1,174.5 L 122.1,173.6 L 121.9,173.3 L 123.5,171.6 L 124.7,170.9 L 126.1,169.9 L 126.1,170.0 L 128.0,170.1 L 128.7,170.9 L 129.3,171.0 L 130.1,170.6 L 131.6,169.5 L 132.3,170.0 L 132.0,171.6 L 131.9,172.3 L 131.8,173.1 L 132.1,173.9 L 132.3,174.1 L 131.2,175.3 L 132.3,176.6 L 133.3,177.7 L 133.3,178.0 L 132.7,178.4 L 132.5,178.7 L 132.2,180.4 L 132.2,181.2 L 133.0,181.4 L 133.3,181.1 L 133.6,181.1 L 134.7,180.8 L 135.0,181.3 L 135.5,181.2 L 136.0,180.7 L 135.8,180.5 L 135.6,180.2 L 135.7,179.8 L 136.6,179.2 L 136.9,178.7 L 136.8,178.2 L 136.3,177.6 L 136.2,176.8 L 136.1,176.4 L 136.7,175.4 L 136.6,175.1 L 136.2,174.9 L 136.3,174.0 L 138.1,172.9 L 138.4,172.9 L 138.7,173.8 L 139.4,174.5 L 139.5,175.7 L 139.8,176.2 L 140.9,176.7 L 142.1,176.5 L 142.4,176.2 L 143.2,174.3 L 144.0,174.0 L 144.2,173.3 L 144.3,172.4 L 145.1,171.7 L 145.1,171.0 L 144.7,170.2 L 143.6,170.3 L 140.5,170.8 L 139.6,171.1 L 139.4,170.8 L 138.5,171.1 L 137.2,171.8 L 136.9,171.4 L 137.2,170.9 L 138.0,169.7 L 138.0,169.0 L 138.4,168.8 L 138.6,168.0 L 138.5,167.2 L 139.3,166.3 L 139.9,166.2 L 139.8,165.9 L 139.9,165.6 L 140.9,164.7 L 141.3,163.9 L 141.4,162.6 L 141.0,161.6 L 141.2,160.5 L 141.4,158.6 L 141.6,158.5 L 141.6,158.5 L 141.7,158.5 L 141.9,155.2 L 140.7,154.2 L 137.2,152.7 L 135.1,150.4 L 134.6,148.6 L 135.1,143.5 L 137.3,141.1 L 137.8,140.7 L 138.2,139.0 L 139.8,138.0 L 141.1,138.3 L 143.2,140.8 L 144.5,140.9 L 145.8,139.3 L 146.5,137.8 L 148.4,136.2 L 148.6,134.5 L 149.2,131.9 L 149.2,129.4 L 147.7,126.8 L 146.8,124.0 L 146.9,122.7 L 147.9,122.2 L 149.2,122.7 L 152.3,122.6 L 152.7,123.0 L 153.8,123.3 L 155.5,125.4 L 155.6,126.5 L 155.0,128.8 L 155.3,129.6 L 156.4,130.2 L 156.9,130.9 L 158.0,131.4 L 158.3,132.3 L 160.5,134.3 L 162.7,134.8 L 168.5,140.3 L 169.9,141.4 L 172.7,142.8 L 173.8,143.4 L 174.4,144.5 L 174.7,145.0 L 173.9,146.4 L 173.5,149.9 L 174.1,152.5 L 174.0,154.6 L 173.1,155.2 L 171.6,155.3 L 171.2,155.5 L 168.9,155.5 L 168.1,153.9 L 168.4,152.4 L 170.0,150.4 L 169.4,149.9 L 168.0,150.4 L 167.8,148.6 L 166.2,144.9 L 167.0,143.8 L 167.6,143.1 L 167.5,141.4 L 165.0,138.9 L 159.4,135.3 L 156.4,132.9 L 153.5,132.1 L 152.1,133.1 L 152.4,136.6 L 152.0,139.2 L 152.6,142.5 L 153.0,144.7 L 153.7,144.9 L 155.9,146.6 L 156.6,147.9 L 157.9,152.0 L 157.3,154.7 L 158.3,156.4 L 158.4,157.2 L 157.8,157.9 L 158.5,160.0 L 158.5,160.1 L 158.7,160.2 L 158.1,161.0 L 157.8,162.2 L 157.9,164.1 L 158.2,165.2 L 158.8,166.0 L 158.9,166.8 L 158.9,167.5 L 159.3,168.0 L 159.5,168.3 L 160.0,168.8 L 159.8,169.4 L 159.9,169.6 L 160.6,169.8 L 160.3,171.5 L 159.8,172.6 L 159.9,173.6 L 160.2,174.2 L 160.3,175.6 L 160.7,178.0 L 161.4,180.9 L 162.3,181.4 L 162.7,181.4 L 163.0,181.2 L 163.4,181.3 L 163.6,181.8 L 163.7,183.3 L 164.3,184.8 L 164.5,186.7 L 164.4,187.8 L 163.9,188.1 L 162.9,188.1 L 162.2,189.0 L 162.2,189.4 L 162.5,189.6 L 163.4,189.9 L 163.7,190.5 L 164.0,190.4 L 164.3,190.2 L 164.2,191.9 L 164.4,193.2 L 165.3,196.0 L 165.7,197.7 L 165.8,200.0 L 165.0,201.9 L 164.4,202.2 L 164.1,202.9 L 164.2,204.8 L 164.6,205.8 L 163.5,207.3 L 163.3,209.3 L 162.8,210.0 L 162.3,210.1 L 161.4,209.9 L 161.0,210.5 L 161.2,210.9 L 161.6,211.4 L 161.4,213.1 L 161.2,213.9 L 161.0,215.2 L 160.5,215.7 L 160.4,216.5 L 160.6,217.1 L 160.3,217.4 L 159.9,217.7 L 159.7,219.3 L 160.0,220.0 L 159.7,220.2 L 158.9,220.2 L 159.0,220.7 L 159.5,221.3 L 159.9,222.7 L 160.5,223.0 L 161.0,222.9 L 161.6,222.0 L 162.3,221.6 L 163.1,221.6 L 163.7,221.1 L 164.7,220.7 L 165.3,220.7 L 165.9,221.4 L 166.4,221.3 L 167.3,220.1 L 167.8,219.5 L 168.1,219.3 L 168.5,219.0 L 169.4,219.2 L 171.2,219.8 L 171.4,220.0 L 172.1,220.0 L 173.4,220.0 L 175.3,220.1 L 176.1,220.1 L 176.8,220.4 L 177.4,220.9 L 178.4,221.1 L 179.4,221.0 L 181.0,220.7 L 182.7,220.6 L 183.3,220.2 L 183.5,219.6 L 185.1,220.2 L 186.0,221.6 L 186.6,222.1 L 187.1,221.9 L 187.7,221.6 L 188.8,221.6 L 189.9,221.4 L 190.5,220.7 L 191.4,220.4 L 193.0,219.3 L 194.1,218.3 L 195.7,218.3 L 196.8,218.0 L 197.4,218.0 L 199.0,217.4 L 200.0,216.8 L 200.9,216.5 L 201.9,215.8 L 202.8,214.0 L 202.7,213.1 L 203.2,212.4 L 203.6,212.3 L 204.6,212.3 L 205.1,211.9 L 205.7,211.1 L 207.7,210.6 L 209.9,208.7 L 210.1,208.2 L 210.9,208.0 L 211.7,205.8 L 212.9,204.0 L 214.4,202.3 L 214.7,201.4 L 214.8,199.4 L 215.7,198.2 L 217.8,198.3 L 218.1,198.6 L 218.2,199.2 L 218.2,199.9 L 219.1,200.2 L 219.6,200.4 L 220.2,201.5 L 221.1,202.4 L 222.0,202.8 L 223.1,202.5 L 225.8,201.3 L 226.5,200.4 L 226.8,199.9 L 227.7,199.5 L 228.2,199.6 L 228.5,199.9 L 229.0,199.7 L 229.4,199.0 L 230.0,197.8 L 230.2,196.2 L 230.8,195.0 L 230.7,193.8 L 230.3,193.1 L 230.7,190.9 L 230.2,189.4 L 230.3,188.2 L 230.1,187.0 L 229.7,186.9 L 227.6,187.2 L 227.2,186.8 L 226.6,185.6 L 226.0,184.0 L 225.4,182.9 L 225.4,180.4 L 224.6,180.0 L 224.3,179.1 L 224.2,178.6 L 223.6,177.9 L 223.1,176.4 L 223.2,174.2 L 224.0,172.2 L 224.6,171.4 L 225.2,171.3 L 227.2,171.4 L 228.3,171.0 L 230.1,170.3 L 233.1,170.4 L 235.0,170.7 L 235.5,171.1 L 235.8,172.0 L 236.0,172.8 L 236.4,173.0 L 236.8,172.9 L 237.2,172.5 L 238.2,172.3 L 238.9,172.5 L 239.8,173.6 L 239.7,174.1 L 238.5,175.8 L 238.6,176.2 L 239.6,176.9 L 241.1,176.3 L 242.0,176.5 L 242.5,176.3 L 242.6,175.9 L 242.7,174.8 L 242.9,174.5 L 243.5,174.6 L 244.3,175.3 L 245.3,178.1 L 245.6,178.5 L 246.6,178.2 L 247.3,177.2 L 248.0,177.2 L 248.4,177.4 L 248.9,177.7 L 251.9,178.0 L 252.9,177.9 L 253.5,177.6 L 253.9,177.8 L 254.5,178.3 L 255.0,178.5 L 256.5,179.6 L 257.0,179.9 L 257.9,180.3 L 258.5,181.2 L 259.3,182.1 L 259.2,184.5 L 259.4,186.8 L 258.9,188.0 L 257.3,190.4 L 257.0,191.2 L 256.5,191.5 L 256.0,191.9 L 254.9,193.3 L 254.5,193.4 L 252.9,195.1 L 252.1,196.4 L 251.8,197.0 L 251.8,197.6 L 252.9,198.8 L 253.3,200.0 L 253.6,201.9 L 253.9,202.8 L 253.9,204.4 L 254.7,205.8 L 256.0,207.4 L 258.8,208.6 L 261.2,209.2 L 261.4,208.9 L 262.4,209.5 L 262.8,209.7 L 263.8,210.0 L 264.6,210.3 L 265.0,210.2 L 265.0,209.3 L 264.6,208.4 L 265.8,206.8 L 266.2,206.9 L 266.8,207.7 L 267.3,208.0 L 267.7,208.0 L 268.5,207.0 L 268.9,206.7 L 269.7,206.5 L 270.6,206.6 L 271.4,207.1 L 272.1,208.1 L 273.5,209.6 L 273.9,209.7 L 274.7,209.3 L 275.0,209.5 L 275.3,209.2 L 275.7,209.0 L 276.0,208.8 L 276.5,208.0 L 277.0,207.9 L 277.7,207.3 L 279.9,208.4 L 280.6,208.7 L 282.0,208.9 L 284.6,209.1 L 285.6,209.0 L 285.7,207.9 L 285.3,207.1 L 285.6,206.6 L 286.2,206.3 L 287.3,206.4 L 289.5,207.2 L 290.8,206.9 L 291.2,207.2 L 292.2,208.9 L 292.7,209.4 L 293.3,210.9 L 295.2,212.2 L 295.7,212.3 L 295.8,212.3 L 295.9,212.3 L 296.3,212.1 L 296.4,211.4 L 296.6,210.7 L 296.6,210.1 L 296.2,209.6 L 296.4,208.2 L 296.7,207.3 L 296.9,207.0 L 297.2,205.9 L 296.6,205.4 L 296.7,204.7 L 296.7,203.9 L 296.9,203.9 L 297.6,204.7 L 298.0,204.9 L 298.4,204.7 L 298.1,204.0 L 298.2,203.7 L 299.2,203.5 L 299.8,203.6 L 301.4,205.3 L 302.1,205.4 L 302.7,205.0 L 302.7,204.5 L 302.7,203.7 L 303.1,203.1 L 303.9,202.5 L 305.2,202.2 L 306.2,202.3 L 306.9,202.4 L 307.8,202.5 L 308.5,203.2 L 310.2,204.5 L 310.7,205.3 L 310.5,206.4 L 310.8,207.3 L 311.5,208.2 L 312.3,208.6 L 314.0,209.1 L 315.6,210.7 L 316.5,211.2 L 317.5,211.3 L 318.0,210.9 L 318.7,210.4 L 319.4,210.5 L 320.2,211.1 L 320.8,212.4 L 321.0,213.7 L 321.2,214.2 L 323.3,214.5 L 324.8,214.9 L 325.9,215.5 L 326.7,216.3 L 326.7,216.9 L 326.8,217.6 L 328.0,218.8 L 330.6,220.4 L 332.0,221.5 L 333.2,221.7 L 333.8,221.6 L 333.7,220.6 L 334.0,220.3 L 334.6,220.5 L 335.2,221.5 L 335.6,221.9 L 336.4,221.9 L 337.1,222.2 L 339.3,224.2 L 339.6,224.9 L 340.3,226.1 L 342.2,228.5 L 344.5,229.8 L 346.5,231.4 L 347.7,232.5 L 350.1,233.4 L 350.3,233.4 L 353.0,234.0 L 355.3,234.2 L 357.4,234.6 L 358.8,235.3 L 359.6,236.4 L 360.0,236.6 L 347.8,270.4 L 347.6,270.3 L 347.0,270.5 L 346.9,270.6 L 346.3,271.3 L 346.3,271.8 L 346.9,272.1 L 347.2,272.2 L 345.9,275.7 L 345.4,277.1 L 345.0,276.8 L 344.9,275.8 L 344.8,273.5 L 343.6,271.9 L 342.8,271.0 L 342.3,270.5 L 341.4,270.2 L 340.5,269.9 L 338.3,269.3 L 337.8,268.5 L 335.7,266.4 L 333.5,265.1 L 331.6,264.5 L 330.2,264.4 L 329.6,264.2 L 328.6,264.2 L 327.4,264.8 L 326.9,266.2 L 326.5,266.7 L 325.6,267.0 L 323.1,266.7 L 322.2,266.8 L 321.1,267.0 L 319.5,266.5 L 318.0,266.4 L 314.9,265.9 L 312.1,265.2 L 309.1,265.3 L 306.4,264.9 L 305.4,264.8 L 304.7,264.9 L 304.6,265.3 L 305.1,266.2 L 305.2,266.7 L 304.9,267.0 L 302.9,267.4 L 300.5,267.0 L 299.6,266.6 L 299.5,265.7 L 299.0,264.4 L 298.2,264.0 L 295.5,263.5 L 292.4,263.0 L 291.6,261.9 L 291.6,261.9 L 289.6,260.8 L 288.5,260.3 L 285.9,259.9 L 282.9,259.6 L 280.7,259.6 L 279.3,260.0 L 276.4,260.6 L 275.2,260.6 L 274.8,260.2 L 274.2,260.0 L 273.8,260.2 L 271.0,260.8 L 268.5,262.0 L 266.2,262.3 L 263.2,262.4 L 260.2,262.6 L 257.6,262.3 L 254.7,262.0 L 251.6,262.2 L 250.2,262.6 L 249.7,263.1 L 247.8,263.3 L 245.2,263.8 L 244.0,264.4 L 243.1,265.0 L 240.4,265.4 L 238.8,265.8 L 238.0,266.5 L 237.1,266.5 L 236.5,266.9 L 235.9,267.3 L 234.3,267.3 L 231.3,267.1 L 230.7,267.3 L 230.1,267.4 L 228.5,266.5 L 227.6,266.2 L 225.8,266.3 L 222.8,265.9 L 220.8,265.7 L 219.8,265.4 L 219.7,264.2 L 219.4,263.5 L 218.7,262.9 L 216.8,262.3 L 213.8,261.9 L 210.8,261.8 L 210.6,261.2 L 210.2,260.8 L 207.4,260.6 L 204.4,260.5 L 203.1,260.9 L 202.1,260.9 L 199.2,260.6 L 196.2,259.7 L 195.0,259.8 L 192.1,260.2 L 190.3,260.6 L 188.4,261.5 L 187.9,261.6 L 187.6,261.0 L 187.3,260.7 L 185.5,260.7 L 182.5,261.0 L 182.3,261.2 L 181.3,261.7 L 181.2,261.8 L 180.5,261.9 L 180.1,261.4 L 179.8,261.4 L 176.7,261.6 L 175.6,262.1 L 174.0,262.5 L 172.5,262.4 L 169.6,262.5 L 166.6,262.8 L 163.6,263.0 L 162.9,262.9 L 161.3,262.8 L 160.8,263.1 L 159.5,263.1 L 157.6,263.0 L 157.3,263.3 L 156.2,263.6 L 153.5,263.2 L 150.5,263.0 L 147.5,263.4 L 147.0,263.7 L 145.9,264.0 L 142.9,264.4 L 140.6,263.8 L 139.6,263.8 L 136.7,264.3 L 133.7,264.7 L 130.7,265.4 L 128.5,266.1 L 126.2,266.8 L 123.2,267.4 L 120.2,267.9 L 118.6,267.9 L 118.0,267.6 L 117.6,267.4 L 117.4,267.6 L 116.1,268.5 L 113.9,269.0 L 111.1,270.1 L 108.2,271.0 L 105.4,271.0 L 104.1,270.9 L 103.1,270.9 L 102.2,271.4 L 100.8,271.6 L 97.7,271.9 L 95.9,271.9 L 93.7,272.5 L 90.8,273.1 L 87.8,273.7 L 85.8,274.1 L 82.9,274.5 L 82.6,274.6 L 80.8,274.9 L 77.7,275.2 L 74.7,275.5 L 71.8,275.7 L 69.6,276.5 L 67.7,277.6 L 66.7,277.6 L 66.0,277.8 L 63.2,277.1 L 62.8,276.7 L 61.5,275.6 L 59.4,275.0 L 58.8,274.2 L 58.2,274.0 L 57.7,273.2 L 56.7,273.1 L 55.5,271.7 L 55.5,271.1 L 55.2,270.7 L 54.6,270.4 L 53.7,270.5 L 52.9,270.4 L 51.1,270.6 L 50.8,270.2 L 50.4,270.0 L 50.1,270.3 L 49.1,270.5 L 47.8,270.4 L 47.3,269.9 L 46.6,269.6 L 46.1,269.5 L 45.7,269.2 L 45.3,269.4 L 44.6,269.2 L 43.3,269.0 L 42.4,269.0 L 41.7,270.2 L 40.0,269.9 L 40.3,267.8 L 43.6,239.6" fill="none" stroke="black" stroke-width="2"/>
</svg>