<?xml version="1.0" encoding="UTF-8"?>
<svg width="400" height="400" viewBox="0 0 400 400" xmlns="http://www.w3.org/2000/svg">
  <rect width="400" height="400" fill="white"/>
  <path d="M 176.9,212.8 L 176.5,211.8 L 176.1,211.3 L 175.4,210.7 L 173.9,209.9 L 173.0,208.8 L 172.3,207.6 L 172.3,206.8 L 172.4,205.7 L 171.6,203.9 L 170.6,203.2 L 169.3,201.9 L 168.2,201.1 L 167.3,200.0 L 166.9,199.4 L 165.5,197.6 L 165.0,197.4 L 164.3,198.6 L 164.3,198.6 L 163.8,199.2 L 163.3,199.2 L 162.7,198.5 L 162.6,198.0 L 162.3,196.5 L 161.7,193.7 L 160.7,190.9 L 160.6,190.0 L 160.8,189.4 L 162.2,188.6 L 162.7,188.7 L 162.8,190.1 L 163.2,190.8 L 164.0,191.2 L 164.6,191.7 L 165.4,193.7 L 166.2,196.5 L 166.4,196.9 L 166.8,197.7 L 167.6,198.3 L 168.4,198.5 L 169.1,198.7 L 169.6,198.8 L 169.7,198.5 L 169.5,197.8 L 168.7,197.1 L 167.2,195.8 L 167.0,195.3 L 167.3,195.0 L 167.5,194.5 L 167.5,193.5 L 167.5,192.7 L 167.9,192.4 L 168.4,192.6 L 169.1,193.5 L 170.4,196.1 L 171.4,197.3 L 171.5,197.4 L 172.4,198.2 L 173.6,198.6 L 175.6,198.5 L 177.8,198.0 L 177.9,197.9 L 178.5,197.4 L 178.9,195.9 L 178.9,194.9 L 179.0,193.0 L 179.2,190.0 L 179.0,189.0 L 179.6,187.1 L 180.1,185.0 L 180.1,184.2 L 179.4,183.4 L 178.7,181.5 L 178.4,181.1 L 176.8,179.4 L 175.3,176.9 L 174.2,174.2 L 174.0,173.2 L 174.4,171.4 L 174.6,170.0 L 174.1,168.3 L 172.9,167.0 L 172.4,166.2 L 172.0,164.6 L 171.3,161.7 L 170.7,160.8 L 169.5,158.4 L 168.7,155.7 L 168.8,153.9 L 168.0,152.0 L 167.7,150.9 L 168.0,148.7 L 168.2,145.8 L 167.9,145.1 L 167.7,144.8 L 166.6,143.7 L 165.3,142.1 L 165.2,141.0 L 165.0,139.4 L 164.2,137.6 L 161.9,136.0 L 161.3,135.2 L 161.2,134.5 L 161.9,133.4 L 162.2,132.7 L 162.0,132.4 L 159.7,132.4 L 159.0,132.2 L 158.6,131.7 L 158.6,130.8 L 159.0,129.9 L 159.7,129.4 L 160.5,128.3 L 161.2,128.0 L 163.0,128.3 L 165.9,128.3 L 167.1,128.2 L 168.2,127.5 L 169.8,126.6 L 170.9,126.9 L 171.2,126.8 L 171.6,125.9 L 172.1,124.9 L 173.1,124.0 L 174.0,123.2 L 174.3,122.1 L 174.7,121.2 L 174.9,120.6 L 174.5,118.6 L 173.7,116.9 L 172.7,115.9 L 170.1,114.7 L 168.7,114.3 L 165.8,114.0 L 162.9,113.7 L 161.2,113.9 L 158.2,114.2 L 156.5,114.8 L 154.1,116.1 L 151.6,117.5 L 149.1,119.1 L 146.6,120.7 L 144.5,122.5 L 142.2,124.0 L 139.4,124.8 L 138.0,125.2 L 137.5,125.1 L 137.3,124.5 L 136.8,123.3 L 136.3,122.8 L 135.2,122.8 L 133.8,123.4 L 131.6,125.4 L 130.4,126.6 L 129.6,128.3 L 128.9,129.2 L 127.0,131.5 L 126.0,132.2 L 124.5,132.8 L 123.1,133.4 L 121.7,134.5 L 120.1,135.4 L 117.5,136.8 L 116.6,137.6 L 115.7,139.6 L 115.2,140.3 L 115.2,140.4 L 114.4,141.5 L 114.0,142.4 L 112.9,143.2 L 110.9,143.4 L 109.5,144.1 L 107.7,145.2 L 106.3,146.6 L 104.3,148.7 L 102.6,151.0 L 102.4,151.8 L 102.9,152.7 L 102.9,153.2 L 102.5,153.5 L 101.7,153.6 L 100.9,153.8 L 99.3,154.8 L 97.7,156.6 L 96.7,157.7 L 96.0,157.8 L 95.4,157.5 L 94.8,157.3 L 94.1,157.6 L 92.7,159.6 L 91.1,162.1 L 90.9,162.7 L 91.3,164.1 L 91.4,165.0 L 91.0,165.4 L 90.1,165.5 L 89.5,165.2 L 89.0,165.0 L 88.1,165.2 L 87.3,165.8 L 85.3,167.1 L 84.9,167.5 L 84.6,168.6 L 83.2,169.5 L 82.1,170.9 L 80.0,172.8 L 78.2,175.2 L 77.9,175.6 L 77.7,175.9 L 76.2,177.7 L 75.0,178.5 L 73.6,179.7 L 72.6,180.5 L 70.8,180.7 L 70.3,181.0 L 70.1,181.6 L 70.0,182.8 L 69.1,183.5 L 67.8,184.6 L 65.6,186.5 L 64.2,187.7 L 63.4,188.5 L 62.5,189.6 L 61.4,190.8 L 58.9,192.3 L 56.5,193.8 L 55.6,194.0 L 54.3,193.9 L 53.6,193.5 L 53.2,192.6 L 53.3,190.9 L 54.3,188.3 L 55.1,187.0 L 55.4,186.9 L 55.8,186.7 L 56.7,185.5 L 58.6,183.3 L 59.2,182.0 L 59.9,181.0 L 60.5,180.6 L 62.6,181.1 L 63.7,181.2 L 64.7,180.5 L 65.9,178.5 L 67.7,176.3 L 69.1,173.6 L 69.8,172.4 L 70.2,171.8 L 70.8,170.7 L 71.5,170.1 L 73.0,168.8 L 74.1,167.9 L 75.0,166.9 L 76.4,164.3 L 76.9,163.4 L 77.1,162.8 L 77.2,162.1 L 75.1,159.9 L 74.4,158.4 L 73.7,157.2 L 73.3,154.4 L 74.1,154.3 L 74.6,155.1 L 75.0,155.7 L 75.1,156.7 L 75.1,157.5 L 75.4,157.5 L 76.0,157.6 L 76.7,158.3 L 78.9,158.9 L 79.4,158.9 L 80.1,159.3 L 80.8,161.0 L 80.9,162.7 L 80.7,164.4 L 81.1,165.2 L 81.6,166.8 L 82.4,167.0 L 83.4,166.0 L 85.4,163.8 L 85.9,162.9 L 86.4,161.1 L 87.0,158.3 L 87.6,156.9 L 89.2,155.4 L 89.4,154.2 L 89.2,153.7 L 88.0,153.3 L 88.4,151.7 L 88.6,151.2 L 89.7,151.3 L 92.6,151.6 L 93.1,151.0 L 93.2,150.1 L 94.1,147.3 L 95.5,145.5 L 95.8,145.1 L 96.7,145.1 L 96.8,145.7 L 97.3,145.9 L 97.9,145.4 L 98.9,145.5 L 99.6,145.1 L 101.4,144.0 L 102.2,143.9 L 102.4,144.0 L 102.1,144.9 L 101.4,145.6 L 101.1,146.1 L 101.2,146.4 L 101.7,146.4 L 103.0,144.8 L 103.3,144.3 L 103.1,143.1 L 103.2,142.4 L 103.8,142.3 L 104.1,142.0 L 103.6,140.5 L 103.9,139.3 L 104.2,137.9 L 104.7,136.5 L 105.0,135.8 L 104.5,134.9 L 104.1,134.6 L 102.7,135.6 L 101.1,135.9 L 99.7,136.8 L 98.7,137.9 L 98.0,138.3 L 96.7,138.1 L 96.2,138.3 L 95.8,138.4 L 95.1,137.9 L 94.9,137.0 L 94.9,136.3 L 96.2,133.8 L 98.1,131.5 L 98.5,130.7 L 98.5,129.7 L 98.1,128.3 L 97.6,127.7 L 96.8,127.4 L 118.6,106.3 L 119.1,106.3 L 119.8,106.2 L 122.2,105.0 L 123.5,104.6 L 124.7,103.8 L 126.9,101.9 L 127.7,101.5 L 128.3,101.6 L 128.7,102.3 L 129.1,103.4 L 129.8,103.0 L 130.3,103.2 L 130.7,102.9 L 130.5,100.3 L 129.8,99.7 L 129.5,99.3 L 129.1,99.0 L 128.7,98.8 L 128.1,97.4 L 128.3,96.8 L 129.8,94.5 L 130.1,93.6 L 130.2,92.2 L 131.4,91.1 L 132.2,90.8 L 134.6,91.1 L 135.2,90.5 L 137.1,88.3 L 137.8,87.2 L 137.7,86.7 L 136.9,85.0 L 136.6,83.2 L 136.1,82.3 L 134.7,81.1 L 134.0,80.8 L 132.7,80.6 L 132.1,80.3 L 131.1,80.5 L 130.6,80.2 L 128.7,78.0 L 128.2,76.6 L 128.3,75.5 L 128.8,73.3 L 129.3,72.3 L 131.2,70.0 L 132.6,68.9 L 133.2,68.7 L 133.7,69.1 L 134.5,69.7 L 135.2,69.5 L 136.7,68.4 L 137.0,67.7 L 136.9,67.0 L 137.6,69.6 L 137.4,69.6 L 136.3,69.7 L 135.8,70.2 L 135.6,71.8 L 136.2,73.4 L 136.6,75.2 L 136.8,76.8 L 137.2,77.3 L 138.3,77.9 L 139.1,77.8 L 140.6,76.9 L 141.3,76.6 L 141.9,76.8 L 142.4,77.6 L 143.2,78.9 L 143.4,79.9 L 143.8,80.7 L 144.2,81.7 L 144.0,82.3 L 142.2,83.9 L 141.7,84.4 L 141.9,84.8 L 142.6,84.4 L 142.7,86.1 L 142.7,86.2 L 143.0,86.6 L 143.1,86.9 L 143.1,87.0 L 143.6,87.6 L 144.6,87.8 L 146.3,88.3 L 147.1,88.4 L 147.9,87.8 L 148.7,87.3 L 149.5,87.4 L 150.0,87.7 L 150.1,88.3 L 149.1,91.1 L 148.7,92.6 L 148.8,93.1 L 149.3,93.3 L 150.4,92.6 L 151.1,92.3 L 151.8,92.6 L 152.4,92.9 L 153.6,91.6 L 153.8,90.8 L 153.7,90.0 L 153.0,89.0 L 153.2,88.5 L 153.2,88.2 L 152.0,88.0 L 151.6,87.7 L 151.4,87.3 L 151.8,87.1 L 154.6,86.5 L 155.5,86.1 L 157.2,84.1 L 158.3,83.0 L 159.1,81.8 L 159.3,80.8 L 159.0,79.6 L 159.4,77.3 L 160.0,75.8 L 160.3,73.4 L 160.7,70.6 L 161.9,68.5 L 162.9,67.8 L 163.1,67.3 L 163.0,66.5 L 161.6,65.3 L 161.1,64.0 L 160.4,62.6 L 159.4,61.5 L 158.5,61.1 L 157.5,61.0 L 154.6,61.5 L 152.8,62.0 L 150.1,63.3 L 150.1,63.1 L 147.6,58.9 L 148.0,59.3 L 148.6,59.4 L 149.2,59.2 L 150.5,57.7 L 150.8,56.5 L 151.0,55.1 L 151.4,54.7 L 153.1,53.8 L 155.3,52.0 L 156.6,50.8 L 158.4,48.5 L 160.0,47.1 L 160.7,46.2 L 161.8,46.2 L 162.6,44.8 L 163.3,43.9 L 163.9,43.5 L 165.3,43.3 L 167.0,43.5 L 166.7,44.1 L 166.2,44.7 L 166.3,45.2 L 166.8,45.6 L 168.5,45.6 L 170.2,45.0 L 171.2,44.9 L 172.3,45.2 L 174.3,46.2 L 175.0,46.2 L 176.0,45.6 L 176.7,45.4 L 177.0,45.6 L 177.2,46.4 L 178.1,46.3 L 178.9,45.8 L 179.8,44.8 L 180.7,44.6 L 181.0,44.8 L 181.4,46.1 L 181.0,46.5 L 180.3,46.7 L 178.6,47.2 L 178.5,47.5 L 178.8,50.1 L 181.3,50.4 L 181.5,50.0 L 181.6,49.4 L 182.2,49.1 L 182.4,49.4 L 182.9,50.3 L 183.5,50.4 L 186.4,49.8 L 186.8,49.4 L 187.8,48.3 L 189.3,46.8 L 189.5,46.1 L 188.9,45.6 L 187.6,44.7 L 185.6,44.4 L 185.4,43.6 L 185.5,43.1 L 186.4,42.1 L 187.4,41.6 L 189.0,41.4 L 189.8,41.0 L 190.7,40.2 L 192.2,40.0 L 193.9,40.1 L 194.6,40.2 L 194.7,40.7 L 194.9,41.9 L 195.5,43.1 L 196.0,43.3 L 197.2,43.5 L 197.2,44.0 L 196.6,45.1 L 196.3,45.9 L 196.3,46.8 L 196.6,47.3 L 197.1,47.5 L 197.5,47.6 L 197.8,50.4 L 198.1,51.0 L 198.3,53.6 L 197.9,54.9 L 198.1,55.3 L 198.7,55.3 L 200.6,54.7 L 201.7,54.5 L 202.4,54.4 L 202.7,54.7 L 202.8,55.2 L 202.5,55.9 L 202.8,56.2 L 205.1,58.0 L 206.7,59.4 L 207.2,61.2 L 207.6,62.5 L 209.3,63.1 L 210.2,62.8 L 211.1,62.0 L 211.8,60.8 L 212.2,59.3 L 212.5,58.1 L 212.8,57.9 L 213.7,58.0 L 214.3,58.5 L 214.9,59.5 L 214.8,60.1 L 214.4,60.6 L 213.3,61.6 L 211.8,64.0 L 210.9,65.5 L 210.3,65.7 L 208.6,65.7 L 205.8,66.8 L 205.0,66.9 L 204.7,66.7 L 204.4,66.0 L 202.7,65.6 L 202.0,65.2 L 200.8,65.4 L 200.1,66.1 L 199.7,67.0 L 198.4,67.8 L 198.3,68.7 L 198.4,69.8 L 198.7,70.0 L 199.5,70.0 L 201.4,69.2 L 202.6,69.2 L 202.9,69.4 L 202.9,70.3 L 202.5,71.9 L 201.6,73.4 L 201.6,75.5 L 201.2,78.0 L 199.7,80.5 L 198.3,82.2 L 196.4,84.0 L 195.3,84.9 L 193.8,86.9 L 193.3,88.3 L 193.3,89.4 L 193.6,91.3 L 193.5,92.1 L 192.7,92.8 L 192.8,93.1 L 193.0,94.1 L 193.5,94.8 L 194.8,95.6 L 195.3,96.4 L 195.3,99.3 L 195.6,100.7 L 196.1,102.1 L 196.5,105.1 L 196.5,106.8 L 196.1,107.9 L 194.6,110.4 L 194.3,111.4 L 194.4,113.0 L 194.5,114.3 L 194.4,115.6 L 194.4,116.2 L 194.4,116.8 L 195.5,118.4 L 195.2,121.4 L 195.3,122.0 L 195.8,122.4 L 196.2,122.8 L 197.2,124.5 L 197.1,125.2 L 196.8,125.9 L 197.2,126.7 L 198.4,128.3 L 199.6,129.3 L 202.5,129.7 L 203.8,130.0 L 206.2,131.4 L 207.1,132.5 L 207.5,133.7 L 207.3,134.3 L 207.1,134.7 L 207.2,135.3 L 208.0,136.4 L 208.5,137.2 L 208.6,138.0 L 208.8,138.6 L 210.7,140.8 L 212.2,142.9 L 212.3,143.3 L 211.7,144.1 L 208.7,144.7 L 207.3,145.1 L 207.2,145.4 L 208.9,145.7 L 209.9,147.1 L 209.8,147.7 L 209.0,148.7 L 209.0,148.8 L 207.9,149.4 L 206.3,151.9 L 205.6,153.1 L 205.1,153.8 L 204.5,154.4 L 203.8,154.6 L 203.1,155.5 L 202.6,156.3 L 201.8,157.2 L 201.1,158.2 L 199.2,160.3 L 199.0,161.2 L 199.2,162.3 L 199.3,162.7 L 199.9,163.0 L 199.8,163.6 L 199.7,164.7 L 200.0,164.7 L 200.6,164.4 L 201.8,163.0 L 202.3,162.3 L 202.9,162.2 L 203.8,162.9 L 203.9,163.2 L 203.3,164.7 L 202.9,165.8 L 202.8,167.8 L 203.6,169.4 L 204.7,170.0 L 205.8,170.1 L 206.4,169.7 L 207.1,168.9 L 208.0,168.2 L 209.1,167.2 L 209.9,166.8 L 210.2,166.8 L 210.3,166.4 L 210.0,165.5 L 210.3,164.3 L 210.8,163.7 L 211.5,163.8 L 213.1,164.7 L 213.4,166.0 L 214.7,167.2 L 215.1,168.7 L 215.8,169.2 L 217.4,170.0 L 218.6,170.0 L 221.4,168.9 L 223.9,167.9 L 225.0,166.8 L 225.7,166.1 L 226.3,165.0 L 226.8,163.8 L 227.3,163.3 L 228.0,162.9 L 229.1,161.4 L 229.2,160.6 L 228.9,159.5 L 229.1,158.9 L 230.2,158.0 L 232.6,156.2 L 233.5,155.6 L 235.1,155.6 L 236.0,155.1 L 237.0,154.1 L 238.5,151.6 L 238.5,151.4 L 239.0,150.2 L 239.1,149.2 L 238.7,147.4 L 238.9,145.1 L 238.6,143.3 L 239.0,142.6 L 240.1,142.0 L 240.6,142.2 L 241.1,142.9 L 241.8,144.1 L 243.1,145.4 L 244.7,147.8 L 245.5,148.6 L 246.9,149.4 L 247.5,150.2 L 248.2,151.4 L 249.1,152.3 L 250.1,153.5 L 250.9,154.1 L 251.5,154.0 L 252.9,153.5 L 255.8,153.8 L 256.5,154.3 L 257.9,155.8 L 258.8,158.0 L 260.6,160.3 L 261.4,161.5 L 262.4,164.2 L 264.0,166.6 L 264.8,168.3 L 265.9,169.2 L 267.7,170.5 L 269.2,172.4 L 269.2,172.9 L 268.7,173.5 L 266.9,173.9 L 266.1,173.6 L 265.4,172.8 L 263.4,170.6 L 262.7,169.4 L 262.7,168.9 L 262.7,168.3 L 262.1,167.2 L 260.7,165.0 L 260.9,164.2 L 260.9,163.5 L 260.5,162.8 L 258.5,160.6 L 258.1,159.9 L 257.8,158.6 L 257.5,158.2 L 256.8,158.1 L 256.0,158.6 L 254.6,159.5 L 254.4,160.1 L 252.4,160.3 L 251.0,161.0 L 250.5,161.7 L 250.4,162.4 L 250.7,162.9 L 251.7,163.6 L 252.7,165.8 L 254.8,166.5 L 255.6,167.1 L 256.2,169.9 L 256.7,172.2 L 258.3,174.5 L 258.7,175.0 L 259.4,175.5 L 260.3,176.9 L 260.2,177.6 L 259.9,177.8 L 259.2,177.6 L 258.7,177.0 L 257.5,174.7 L 256.9,174.5 L 256.4,174.5 L 255.7,175.2 L 255.8,175.7 L 256.5,176.8 L 256.7,177.5 L 256.5,178.0 L 256.0,178.2 L 255.4,177.9 L 254.8,177.2 L 254.2,177.4 L 253.8,177.9 L 253.9,178.8 L 254.2,179.9 L 254.1,180.2 L 253.3,180.1 L 252.3,180.0 L 252.0,180.3 L 252.1,181.3 L 252.3,182.3 L 253.4,183.8 L 253.3,184.3 L 253.0,184.5 L 252.5,184.6 L 252.0,185.3 L 251.6,188.2 L 251.5,189.3 L 252.0,189.5 L 253.0,189.7 L 253.2,190.5 L 251.7,192.9 L 251.7,193.4 L 253.0,194.3 L 253.2,194.8 L 253.0,195.1 L 252.4,195.6 L 252.2,197.1 L 252.7,198.6 L 253.1,199.9 L 252.9,202.9 L 252.7,204.6 L 252.6,204.6 L 252.3,206.2 L 251.8,207.5 L 251.4,208.4 L 251.3,210.9 L 250.8,213.8 L 251.0,214.5 L 251.3,215.6 L 251.4,216.3 L 252.3,217.0 L 252.5,217.6 L 252.2,220.6 L 252.5,222.2 L 253.4,223.8 L 253.8,225.8 L 255.2,226.5 L 256.6,226.5 L 257.6,225.9 L 258.5,224.9 L 260.1,222.6 L 260.8,222.2 L 261.9,222.3 L 262.7,222.3 L 263.1,221.9 L 263.6,220.6 L 264.2,219.5 L 264.5,218.5 L 266.4,216.2 L 267.0,215.6 L 267.0,214.8 L 266.3,212.4 L 266.5,211.4 L 267.2,210.0 L 267.7,209.6 L 268.3,209.5 L 268.8,209.8 L 269.4,210.2 L 271.1,210.5 L 272.7,211.7 L 273.4,211.5 L 274.1,210.9 L 274.2,209.8 L 274.1,208.5 L 273.7,207.8 L 272.9,207.3 L 271.3,207.0 L 271.1,206.6 L 271.0,206.3 L 271.0,204.6 L 271.2,203.2 L 271.6,202.7 L 272.4,202.2 L 273.6,202.2 L 275.3,202.2 L 276.8,201.8 L 277.9,200.9 L 278.8,200.0 L 279.8,199.6 L 281.6,199.9 L 282.7,200.4 L 284.6,202.7 L 286.1,203.7 L 287.5,204.6 L 288.6,206.1 L 288.6,206.8 L 288.2,207.8 L 287.8,208.8 L 287.7,210.9 L 288.4,212.1 L 289.0,213.8 L 289.8,215.1 L 289.6,215.6 L 288.6,216.4 L 288.6,216.8 L 289.5,217.4 L 290.4,217.6 L 291.0,217.7 L 292.2,217.7 L 293.1,217.3 L 295.4,215.9 L 296.9,215.0 L 297.5,214.3 L 298.6,211.6 L 299.3,210.4 L 300.0,209.3 L 300.1,208.9 L 301.0,206.7 L 301.4,205.6 L 302.1,204.4 L 302.4,202.4 L 302.7,199.5 L 302.4,197.0 L 302.9,194.2 L 302.7,193.6 L 302.0,192.6 L 301.4,192.3 L 299.9,192.0 L 298.9,191.1 L 297.2,189.5 L 296.4,189.0 L 295.9,188.6 L 296.4,187.8 L 296.7,186.7 L 297.0,183.8 L 296.5,181.0 L 296.3,180.7 L 296.0,180.5 L 295.4,178.6 L 294.0,177.3 L 293.4,176.6 L 291.3,175.3 L 288.8,174.5 L 287.7,174.6 L 286.3,174.9 L 285.6,174.6 L 285.6,174.3 L 285.9,174.1 L 288.9,173.7 L 289.7,173.4 L 290.0,173.0 L 289.7,172.4 L 289.0,172.1 L 286.3,171.4 L 286.2,171.2 L 287.7,170.8 L 289.8,170.6 L 291.4,170.6 L 292.1,170.2 L 292.9,169.5 L 292.9,169.2 L 292.6,168.6 L 293.1,166.9 L 293.1,166.5 L 292.5,166.2 L 291.9,165.9 L 291.7,165.3 L 292.0,165.0 L 293.2,164.8 L 295.0,164.4 L 295.2,164.2 L 295.4,164.0 L 295.8,161.7 L 295.7,160.3 L 295.6,159.9 L 295.4,159.2 L 294.5,158.3 L 293.5,157.8 L 292.3,157.3 L 292.0,156.6 L 292.0,156.2 L 292.0,155.8 L 292.3,155.4 L 292.9,155.1 L 292.9,154.1 L 292.6,152.8 L 292.2,151.9 L 292.0,150.9 L 291.1,149.8 L 289.6,148.7 L 289.5,148.3 L 289.8,148.1 L 290.7,148.1 L 291.6,148.6 L 293.4,150.3 L 294.7,150.4 L 296.2,150.4 L 296.4,150.4 L 298.5,151.0 L 301.4,151.4 L 302.0,151.4 L 302.0,151.1 L 299.5,149.7 L 296.7,148.8 L 296.6,148.8 L 295.9,148.7 L 294.8,146.9 L 293.9,146.8 L 293.3,146.7 L 292.2,145.6 L 291.4,145.4 L 290.3,145.5 L 289.7,145.1 L 289.6,144.6 L 290.5,143.9 L 290.7,143.5 L 290.4,143.3 L 289.2,143.0 L 289.4,142.7 L 291.0,142.1 L 292.0,142.2 L 293.6,143.1 L 294.5,143.5 L 295.5,144.5 L 296.6,146.3 L 296.8,146.4 L 297.5,146.7 L 299.9,147.0 L 301.5,146.8 L 302.6,146.6 L 302.5,146.3 L 301.9,145.8 L 302.2,145.5 L 302.8,145.4 L 303.7,145.7 L 305.2,146.1 L 306.1,146.2 L 306.3,145.8 L 306.1,145.1 L 306.4,144.9 L 308.1,145.1 L 308.6,145.5 L 309.2,146.3 L 311.0,147.3 L 312.7,147.8 L 313.9,148.0 L 314.5,148.4 L 316.7,148.6 L 319.2,148.0 L 322.0,147.7 L 324.8,146.6 L 325.4,146.0 L 325.8,145.2 L 325.7,144.4 L 325.3,143.6 L 325.6,143.3 L 327.0,142.9 L 327.4,142.5 L 327.5,141.3 L 327.3,140.4 L 326.7,139.6 L 326.9,138.4 L 326.6,137.0 L 325.6,135.9 L 325.0,135.7 L 323.1,135.4 L 323.7,135.0 L 326.1,133.7 L 326.5,133.2 L 326.9,131.3 L 327.5,131.0 L 328.1,130.9 L 329.0,130.3 L 330.1,130.5 L 331.4,131.0 L 331.5,131.4 L 331.5,132.9 L 331.7,133.9 L 331.7,136.0 L 331.8,138.5 L 331.6,139.8 L 330.9,141.0 L 329.9,142.4 L 328.6,145.0 L 327.4,147.6 L 327.2,148.2 L 327.9,148.8 L 327.5,149.7 L 327.5,150.6 L 328.0,150.9 L 328.3,154.2 L 328.2,154.2 L 326.4,153.8 L 326.0,153.4 L 325.6,153.1 L 325.3,153.5 L 325.3,154.2 L 324.7,154.7 L 324.6,155.4 L 324.8,155.8 L 325.7,156.0 L 327.8,155.8 L 328.5,155.8 L 328.7,155.7 L 329.1,156.1 L 329.2,156.7 L 328.8,156.9 L 328.6,157.0 L 327.0,157.2 L 326.6,157.5 L 326.6,158.2 L 327.7,159.2 L 327.4,159.3 L 327.4,159.4 L 327.0,159.8 L 327.1,160.0 L 328.5,160.3 L 329.4,159.9 L 330.1,160.0 L 330.1,160.6 L 330.4,161.1 L 329.7,161.1 L 329.5,161.3 L 329.5,161.9 L 330.1,162.1 L 330.6,161.8 L 331.2,161.9 L 331.7,162.1 L 332.3,162.3 L 333.7,160.5 L 333.9,159.9 L 334.0,159.7 L 334.2,159.3 L 334.9,159.1 L 336.5,159.7 L 337.2,160.2 L 337.2,160.2 L 337.7,161.2 L 338.0,161.8 L 338.5,161.8 L 339.1,161.5 L 339.2,161.0 L 339.2,160.4 L 339.2,159.8 L 339.4,159.7 L 340.5,160.3 L 340.7,160.6 L 341.0,160.9 L 341.2,161.2 L 344.0,162.0 L 345.0,162.1 L 345.1,162.1 L 345.1,162.3 L 346.8,167.5 L 345.6,167.4 L 344.0,167.6 L 341.5,167.2 L 341.5,167.1 L 342.6,166.5 L 344.7,166.7 L 344.9,166.2 L 344.6,165.8 L 343.8,165.5 L 342.3,165.2 L 341.6,165.2 L 340.6,164.7 L 339.9,164.4 L 339.2,164.4 L 338.2,164.7 L 337.4,164.3 L 336.7,163.6 L 335.8,163.3 L 333.4,163.3 L 331.9,163.5 L 332.2,164.6 L 330.7,165.2 L 330.9,165.4 L 332.1,166.1 L 331.9,166.6 L 330.5,166.4 L 327.6,166.1 L 325.9,166.2 L 323.8,167.0 L 323.8,167.6 L 324.6,169.4 L 326.0,170.4 L 327.3,171.8 L 327.2,172.1 L 324.9,172.0 L 322.8,173.7 L 322.9,174.4 L 323.3,174.5 L 324.5,174.4 L 326.3,173.9 L 327.3,173.8 L 327.5,174.0 L 327.5,174.6 L 327.1,174.9 L 325.3,175.3 L 325.3,175.8 L 325.4,176.5 L 325.2,177.2 L 323.7,177.8 L 323.1,178.8 L 323.1,179.5 L 323.1,180.0 L 322.7,180.5 L 321.1,181.6 L 318.9,182.5 L 316.1,183.5 L 315.4,183.9 L 314.8,185.2 L 314.5,187.2 L 315.1,188.8 L 315.4,188.9 L 316.1,188.6 L 317.0,187.7 L 317.7,186.5 L 318.1,186.0 L 318.4,186.1 L 318.2,189.1 L 318.0,190.7 L 319.4,192.6 L 320.6,192.2 L 321.4,191.0 L 321.9,191.2 L 322.5,191.2 L 323.6,190.7 L 324.2,190.0 L 324.9,188.7 L 325.2,187.3 L 325.5,186.7 L 326.1,186.2 L 327.4,185.9 L 328.9,186.2 L 328.9,186.6 L 327.2,188.9 L 325.8,190.4 L 323.9,192.0 L 323.2,193.1 L 323.2,194.1 L 323.6,196.5 L 323.3,197.3 L 323.0,197.5 L 321.7,197.1 L 321.0,198.4 L 319.8,201.1 L 319.0,203.0 L 318.9,205.0 L 319.1,205.6 L 318.2,208.3 L 318.6,209.5 L 318.5,210.3 L 318.4,210.5 L 317.2,212.0 L 316.4,212.3 L 314.3,212.8 L 313.3,213.5 L 312.1,214.7 L 311.2,216.4 L 310.7,219.3 L 310.4,220.5 L 309.9,220.9 L 309.1,221.1 L 308.2,222.5 L 307.7,223.0 L 306.9,225.3 L 306.8,226.5 L 306.5,226.5 L 306.2,226.6 L 306.0,227.1 L 306.2,228.0 L 304.7,229.7 L 304.3,230.6 L 303.7,230.8 L 303.4,231.0 L 303.5,231.2 L 303.8,231.6 L 303.3,232.7 L 302.3,234.7 L 301.6,235.5 L 301.3,236.3 L 301.1,237.8 L 301.4,238.4 L 301.3,239.0 L 300.5,239.8 L 299.4,239.7 L 299.0,240.0 L 297.6,242.6 L 296.0,245.2 L 295.6,246.3 L 296.1,246.3 L 296.0,246.9 L 294.9,249.4 L 295.0,249.6 L 295.5,249.4 L 296.3,248.8 L 296.4,249.0 L 296.6,249.8 L 296.5,250.2 L 296.1,250.9 L 294.8,250.8 L 294.7,251.2 L 294.5,252.5 L 293.9,253.0 L 293.2,253.7 L 293.0,254.4 L 293.2,254.6 L 294.0,254.5 L 294.1,255.5 L 294.5,258.0 L 294.9,258.2 L 295.9,258.4 L 295.9,258.7 L 295.2,259.2 L 294.3,259.9 L 294.0,260.3 L 294.3,260.7 L 295.5,261.5 L 296.6,262.9 L 296.6,263.9 L 297.4,266.7 L 297.5,267.3 L 297.1,267.8 L 296.4,268.7 L 296.3,269.3 L 296.5,270.5 L 296.2,271.2 L 295.9,271.2 L 295.4,271.2 L 295.1,271.6 L 295.0,273.0 L 295.3,273.5 L 295.5,273.8 L 295.8,274.7 L 296.3,275.2 L 298.0,275.4 L 298.9,275.2 L 300.0,274.4 L 301.4,272.9 L 302.0,272.6 L 303.2,272.9 L 304.5,273.7 L 306.2,273.1 L 306.5,272.3 L 306.5,272.2 L 305.7,272.3 L 304.7,272.9 L 304.5,272.7 L 304.8,272.1 L 306.3,271.0 L 308.8,269.9 L 309.1,268.8 L 309.4,267.8 L 309.8,267.5 L 310.9,267.3 L 311.9,267.2 L 312.7,267.1 L 314.0,267.6 L 314.6,267.5 L 316.8,265.5 L 317.9,263.9 L 318.3,262.7 L 319.6,261.9 L 321.4,259.5 L 321.9,258.8 L 321.8,258.0 L 321.6,257.2 L 321.7,256.4 L 321.5,254.6 L 322.7,252.0 L 323.2,251.5 L 324.6,250.9 L 325.0,250.1 L 326.6,248.1 L 326.7,246.8 L 328.3,244.6 L 329.0,244.4 L 329.7,244.3 L 330.5,243.7 L 331.9,241.2 L 333.4,238.6 L 334.1,237.7 L 334.4,237.0 L 334.9,236.5 L 335.5,236.4 L 335.9,236.8 L 336.2,237.5 L 336.7,239.2 L 337.4,240.3 L 338.5,241.0 L 338.8,241.4 L 338.3,243.7 L 337.7,246.5 L 337.3,248.1 L 337.4,248.7 L 337.9,249.0 L 338.3,249.4 L 338.5,250.5 L 339.6,251.6 L 339.8,252.1 L 339.8,252.9 L 338.1,254.5 L 335.9,256.3 L 334.4,257.8 L 332.5,260.2 L 332.0,261.2 L 331.3,262.4 L 330.8,262.9 L 330.3,263.2 L 329.3,264.8 L 328.9,265.8 L 327.9,266.2 L 326.7,267.1 L 325.0,269.1 L 323.9,270.9 L 323.2,272.0 L 322.3,274.8 L 321.2,277.6 L 320.7,278.6 L 320.4,279.0 L 320.3,279.9 L 320.0,280.6 L 320.2,282.5 L 320.1,283.1 L 318.1,283.0 L 315.8,284.3 L 315.4,284.5 L 315.2,285.1 L 314.8,286.3 L 314.3,287.1 L 312.9,288.3 L 311.9,288.8 L 310.8,288.8 L 310.0,288.5 L 309.5,287.9 L 309.4,287.1 L 309.6,286.5 L 311.5,284.5 L 313.4,283.7 L 314.5,283.4 L 315.4,282.5 L 316.0,281.6 L 316.3,279.8 L 316.3,277.2 L 315.7,276.6 L 315.2,276.2 L 314.8,274.8 L 314.3,274.5 L 313.8,274.6 L 312.4,276.8 L 311.9,277.8 L 310.7,279.4 L 310.2,279.3 L 309.5,278.1 L 309.0,276.8 L 309.0,275.2 L 308.9,274.1 L 308.7,273.5 L 308.4,273.6 L 306.8,274.8 L 305.1,277.2 L 303.3,279.5 L 301.8,281.1 L 300.2,283.6 L 299.9,284.2 L 299.9,284.8 L 300.4,285.8 L 300.5,288.8 L 301.1,291.5 L 301.0,292.0 L 301.5,293.0 L 301.4,293.4 L 302.2,295.2 L 302.7,296.0 L 302.7,296.9 L 302.0,298.1 L 300.1,300.3 L 299.5,300.7 L 298.8,300.6 L 297.2,299.3 L 294.3,298.5 L 292.9,298.5 L 290.2,299.3 L 287.5,300.4 L 284.9,301.7 L 283.9,302.1 L 282.8,303.1 L 282.6,303.2 L 280.7,305.5 L 280.4,306.4 L 278.1,308.2 L 277.6,309.2 L 276.9,310.4 L 275.8,311.1 L 275.9,311.2 L 276.1,311.3 L 275.7,313.0 L 275.9,314.2 L 276.7,314.2 L 276.7,314.5 L 276.1,315.4 L 276.2,315.9 L 276.9,316.1 L 277.1,316.9 L 277.0,317.6 L 276.6,317.8 L 276.8,318.9 L 277.9,320.4 L 278.8,323.2 L 279.8,325.7 L 280.7,325.9 L 281.5,326.9 L 281.3,328.4 L 280.7,329.1 L 280.4,331.3 L 280.5,332.0 L 281.2,333.2 L 281.8,336.1 L 282.2,337.7 L 282.3,338.9 L 282.7,339.7 L 283.2,340.5 L 284.0,342.9 L 284.4,343.5 L 285.5,343.7 L 286.3,343.4 L 287.8,342.2 L 289.6,342.3 L 290.5,341.7 L 290.9,341.9 L 291.4,342.5 L 292.5,343.2 L 293.1,343.7 L 293.0,344.3 L 291.6,345.6 L 291.4,348.0 L 291.6,348.9 L 291.3,349.9 L 290.9,350.4 L 291.0,350.9 L 291.5,351.8 L 291.2,353.2 L 290.5,355.3 L 290.6,355.9 L 291.3,356.8 L 272.9,359.7 L 271.1,360.0 L 271.5,357.4 L 271.6,354.5 L 271.4,353.4 L 269.8,350.9 L 269.1,349.4 L 268.7,348.5 L 267.1,346.9 L 265.8,345.5 L 264.1,343.8 L 263.1,342.6 L 261.8,341.3 L 260.7,339.3 L 260.6,338.5 L 260.8,337.9 L 262.8,335.9 L 263.9,334.6 L 264.5,333.6 L 264.4,332.5 L 264.1,330.5 L 264.0,327.6 L 263.6,325.6 L 263.0,323.8 L 261.9,321.7 L 260.0,319.5 L 258.1,317.4 L 256.6,317.4 L 255.6,317.4 L 254.3,317.1 L 253.5,316.9 L 252.3,316.0 L 250.6,315.9 L 249.5,316.2 L 249.1,316.0 L 248.9,315.2 L 248.8,313.5 L 248.5,312.3 L 248.0,310.9 L 248.1,310.1 L 248.7,308.5 L 248.8,307.5 L 248.6,307.3 L 248.0,307.6 L 247.4,308.3 L 246.8,309.8 L 246.1,310.4 L 245.8,310.3 L 244.7,309.0 L 244.1,308.5 L 243.7,307.5 L 243.5,305.7 L 242.9,304.4 L 242.7,303.0 L 242.3,301.7 L 241.9,301.2 L 241.1,301.2 L 240.1,301.5 L 240.3,300.8 L 241.0,299.7 L 241.7,299.2 L 242.1,299.1 L 242.7,297.9 L 242.5,297.2 L 242.5,296.3 L 242.7,295.8 L 243.3,295.4 L 244.2,294.8 L 244.6,294.2 L 244.8,293.1 L 245.4,292.6 L 246.1,292.0 L 246.8,290.8 L 247.3,288.5 L 247.6,285.5 L 247.3,284.2 L 246.5,281.3 L 246.5,279.9 L 246.2,278.8 L 245.3,277.5 L 244.2,274.8 L 243.9,272.6 L 243.2,270.0 L 243.4,267.4 L 245.4,265.2 L 246.2,263.9 L 246.4,262.1 L 246.2,261.1 L 246.2,261.0 L 244.9,258.4 L 243.9,256.5 L 243.6,254.3 L 243.3,252.2 L 241.9,249.6 L 241.4,248.4 L 241.2,247.3 L 240.4,246.4 L 238.5,244.3 L 237.2,242.9 L 235.9,241.6 L 235.2,240.5 L 234.8,239.0 L 234.8,238.1 L 234.3,237.2 L 233.6,236.7 L 232.3,236.0 L 231.7,235.6 L 231.0,235.5 L 230.7,234.9 L 230.3,234.2 L 229.5,233.4 L 229.0,231.7 L 227.9,230.4 L 227.9,228.8 L 226.5,226.2 L 225.4,223.4 L 224.6,221.8 L 223.7,220.9 L 222.8,219.1 L 221.2,216.9 L 220.0,215.9 L 218.6,215.1 L 216.9,214.7 L 216.3,214.0 L 216.0,213.0 L 215.9,211.0 L 215.4,210.0 L 214.7,209.1 L 213.7,208.7 L 213.0,208.3 L 212.2,207.7 L 211.2,207.6 L 210.7,208.0 L 209.6,209.4 L 209.0,209.8 L 208.3,209.6 L 206.6,208.7 L 205.2,208.5 L 204.4,208.4 L 203.8,208.7 L 202.2,210.0 L 201.2,211.0 L 200.3,211.6 L 199.3,212.7 L 198.3,213.1 L 197.1,213.0 L 196.5,212.5 L 196.0,211.9 L 195.0,211.9 L 194.8,211.5 L 194.9,210.1 L 195.4,207.7 L 195.1,207.2 L 194.4,207.0 L 193.7,206.8 L 192.3,205.6 L 191.7,205.7 L 191.5,205.9 L 191.4,208.6 L 191.7,209.9 L 191.5,211.0 L 190.9,211.1 L 178.2,212.6 L 176.9,212.8" fill="none" stroke="black" stroke-width="2"/>
</svg>