<?xml version="1.0" encoding="UTF-8"?>
<svg width="400" height="400" viewBox="0 0 400 400" xmlns="http://www.w3.org/2000/svg">
  <rect width="400" height="400" fill="white"/>
  <path d="M 148.1,358.8 L 148.1,358.5 L 147.1,356.9 L 146.7,354.4 L 144.7,351.6 L 142.5,349.4 L 140.0,346.8 L 138.1,346.2 L 134.6,345.8 L 133.6,345.0 L 132.2,344.1 L 128.6,344.0 L 125.1,343.9 L 124.2,341.1 L 124.4,339.8 L 125.0,339.0 L 127.9,339.0 L 129.8,337.6 L 129.9,335.9 L 128.1,334.5 L 127.7,332.3 L 128.7,329.3 L 129.0,328.3 L 130.3,327.2 L 131.4,325.5 L 132.5,325.3 L 132.8,324.6 L 132.6,321.8 L 131.4,318.2 L 130.6,317.5 L 129.3,315.0 L 128.6,311.7 L 128.7,308.4 L 128.6,304.9 L 128.7,304.4 L 129.3,301.5 L 129.7,297.9 L 131.2,296.4 L 131.2,296.4 L 131.8,295.3 L 133.2,292.6 L 133.5,289.2 L 133.2,287.3 L 132.7,286.5 L 130.3,285.0 L 129.3,283.6 L 128.5,282.9 L 127.1,281.2 L 126.4,279.6 L 126.4,278.7 L 126.9,277.9 L 128.1,276.3 L 129.1,273.3 L 129.4,272.8 L 130.5,272.6 L 131.2,272.8 L 132.7,275.3 L 133.3,276.1 L 134.2,276.4 L 136.6,276.0 L 137.4,275.5 L 138.1,274.6 L 138.4,272.5 L 137.9,271.2 L 138.7,270.4 L 139.0,269.5 L 138.4,268.8 L 138.3,268.2 L 138.9,267.7 L 142.4,266.8 L 142.9,266.5 L 142.8,265.8 L 142.0,264.9 L 141.9,264.5 L 142.2,263.4 L 143.6,262.6 L 143.7,261.2 L 143.3,258.9 L 141.4,255.9 L 140.6,254.7 L 140.6,254.0 L 143.1,252.0 L 143.6,251.9 L 144.8,252.6 L 145.9,253.1 L 148.2,252.8 L 149.5,252.0 L 150.0,250.7 L 150.7,250.5 L 151.6,250.1 L 152.1,249.2 L 152.1,247.5 L 151.0,244.7 L 151.0,243.7 L 151.2,242.9 L 152.3,242.5 L 153.3,241.8 L 153.8,241.0 L 154.2,239.4 L 153.2,236.7 L 153.3,236.2 L 154.1,235.7 L 156.9,235.1 L 160.4,235.0 L 161.2,234.7 L 162.0,233.7 L 162.6,232.1 L 163.9,228.8 L 165.3,226.4 L 165.8,225.8 L 167.1,223.6 L 168.3,220.9 L 169.6,217.6 L 170.4,215.7 L 172.6,213.5 L 174.3,210.9 L 176.2,208.0 L 176.9,206.5 L 177.0,204.4 L 177.1,200.9 L 177.8,197.4 L 179.4,194.3 L 181.5,191.4 L 182.2,190.2 L 182.5,188.4 L 182.5,187.2 L 182.3,184.5 L 181.9,181.5 L 181.3,178.0 L 181.2,176.1 L 182.0,174.2 L 183.6,172.6 L 186.1,170.2 L 188.9,167.9 L 190.2,166.3 L 192.2,163.4 L 194.4,160.5 L 195.1,157.2 L 195.2,154.3 L 196.1,152.3 L 197.3,148.8 L 198.4,145.5 L 199.3,144.4 L 200.0,141.9 L 200.8,139.6 L 201.2,138.1 L 201.7,136.3 L 202.8,134.7 L 203.7,132.9 L 203.4,130.3 L 203.0,128.9 L 202.2,127.1 L 202.0,125.4 L 202.0,123.6 L 201.3,122.0 L 201.1,120.6 L 201.6,117.0 L 202.2,113.6 L 202.4,111.5 L 202.7,109.3 L 203.0,105.8 L 201.7,103.2 L 201.6,101.8 L 201.6,100.7 L 199.9,98.1 L 199.4,96.8 L 198.8,93.3 L 198.8,90.9 L 199.4,90.0 L 200.3,89.2 L 201.8,89.3 L 202.3,89.2 L 203.0,89.4 L 204.2,90.8 L 204.9,92.4 L 205.4,95.7 L 205.6,99.2 L 206.1,102.2 L 206.3,104.2 L 206.6,106.0 L 207.1,107.3 L 207.8,107.1 L 208.3,107.1 L 209.4,108.6 L 210.6,109.0 L 211.6,109.7 L 213.8,112.4 L 214.4,112.7 L 215.0,112.3 L 215.9,110.4 L 216.5,109.7 L 217.3,108.6 L 218.7,106.1 L 220.7,103.6 L 223.0,101.1 L 224.8,98.1 L 226.1,94.8 L 227.2,91.7 L 228.4,88.4 L 228.8,84.9 L 228.9,83.2 L 230.4,80.0 L 231.6,77.8 L 233.0,75.8 L 234.1,74.0 L 235.5,70.9 L 237.4,70.1 L 238.2,70.1 L 238.8,70.7 L 239.0,73.9 L 239.0,75.0 L 239.7,76.0 L 240.4,76.6 L 241.0,76.6 L 241.4,75.9 L 241.6,73.8 L 241.4,72.8 L 240.7,72.2 L 240.6,71.8 L 241.1,70.8 L 241.9,70.2 L 243.7,70.2 L 244.3,70.8 L 244.1,73.4 L 243.9,76.9 L 243.4,80.4 L 243.3,81.7 L 244.0,82.7 L 244.6,83.0 L 245.1,82.3 L 246.4,81.8 L 247.3,81.1 L 248.2,79.4 L 249.4,77.9 L 251.6,77.6 L 252.6,76.8 L 253.4,75.5 L 255.2,73.3 L 256.4,71.0 L 257.8,67.9 L 258.5,64.4 L 259.1,63.6 L 261.5,61.0 L 263.8,58.2 L 265.4,56.0 L 266.3,53.9 L 267.6,50.7 L 268.0,47.2 L 268.3,46.8 L 271.3,46.9 L 272.0,46.2 L 272.0,46.0 L 272.2,45.4 L 272.4,44.5 L 273.6,43.9 L 273.7,43.4 L 272.7,42.1 L 272.8,41.5 L 273.5,40.5 L 273.4,40.3 L 274.5,40.0 L 275.4,41.9 L 275.8,43.6 L 275.6,46.1 L 275.2,46.3 L 274.9,46.5 L 272.8,47.3 L 272.6,47.7 L 272.6,48.1 L 272.4,50.1 L 272.2,50.6 L 271.5,52.4 L 271.1,53.8 L 270.5,55.9 L 269.8,58.7 L 270.0,59.9 L 270.1,61.5 L 269.9,63.0 L 269.3,64.9 L 268.9,67.0 L 268.2,68.6 L 267.2,69.7 L 265.7,70.9 L 265.3,71.7 L 264.8,74.1 L 264.2,75.0 L 263.4,75.4 L 262.8,75.8 L 261.2,76.2 L 260.0,76.8 L 258.1,79.2 L 255.6,81.3 L 254.1,82.7 L 251.0,84.5 L 248.5,86.3 L 246.1,88.6 L 244.0,90.0 L 242.2,90.8 L 239.6,93.3 L 237.2,95.9 L 236.3,97.5 L 235.2,100.8 L 234.1,102.8 L 232.5,104.6 L 230.9,105.8 L 229.7,108.5 L 228.3,111.6 L 227.0,113.6 L 225.1,116.3 L 223.5,119.5 L 221.5,122.3 L 219.1,124.9 L 217.9,126.4 L 216.5,129.8 L 215.9,131.8 L 214.7,133.7 L 214.1,133.9 L 213.5,133.5 L 212.8,132.8 L 212.1,133.1 L 211.2,134.3 L 210.8,136.1 L 210.9,137.3 L 212.3,139.9 L 212.8,140.5 L 212.9,142.0 L 212.2,145.0 L 211.4,148.5 L 210.5,151.3 L 209.7,152.6 L 208.1,153.8 L 206.0,154.9 L 203.1,156.9 L 200.3,159.0 L 197.8,160.6 L 196.1,162.5 L 194.7,165.5 L 193.1,168.7 L 191.7,171.9 L 190.1,174.8 L 188.8,177.9 L 188.2,180.4 L 187.7,183.1 L 187.1,183.9 L 186.2,184.5 L 186.0,185.2 L 186.5,185.8 L 187.3,186.6 L 187.4,187.5 L 186.7,190.4 L 186.3,191.8 L 185.4,193.6 L 184.3,194.4 L 184.1,195.2 L 183.8,198.1 L 182.4,201.4 L 181.0,203.9 L 180.6,206.2 L 179.1,209.4 L 177.5,212.5 L 175.6,215.6 L 175.1,216.6 L 174.4,218.5 L 172.5,221.5 L 170.5,224.4 L 168.7,227.4 L 166.8,230.3 L 165.0,232.2 L 164.8,232.4 L 163.9,233.1 L 163.0,234.6 L 162.5,237.2 L 160.7,240.3 L 160.2,242.0 L 160.3,243.8 L 160.7,245.9 L 161.4,249.0 L 162.1,250.3 L 163.1,251.6 L 164.3,253.1 L 166.5,255.9 L 167.0,256.8 L 166.8,257.6 L 165.4,260.0 L 164.5,263.4 L 163.9,266.7 L 164.0,268.6 L 163.9,269.7 L 163.1,271.5 L 163.1,275.2 L 163.5,277.5 L 163.1,279.2 L 161.3,282.3 L 160.4,284.3 L 160.1,285.0 L 159.8,285.7 L 157.3,288.2 L 155.0,290.9 L 154.1,292.4 L 152.6,295.5 L 151.2,298.2 L 151.2,298.2 L 149.0,300.2 L 147.5,300.9 L 146.9,301.5 L 145.8,303.6 L 145.3,305.2 L 144.6,305.7 L 144.4,305.9 L 143.8,306.4 L 144.0,307.2 L 145.7,308.0 L 146.1,311.3 L 145.7,313.2 L 145.7,314.1 L 146.2,316.8 L 146.4,320.3 L 145.7,323.0 L 145.4,323.8 L 145.4,327.3 L 145.9,327.8 L 147.5,327.5 L 149.1,330.7 L 150.6,331.9 L 152.0,332.6 L 155.5,333.0 L 155.8,332.9 L 157.9,332.1 L 161.0,330.4 L 164.5,330.1 L 168.1,330.6 L 169.9,329.1 L 171.5,328.3 L 173.7,328.4 L 177.3,328.2 L 177.9,327.8 L 178.6,327.0 L 181.8,325.8 L 185.2,324.6 L 186.5,321.7 L 187.6,320.6 L 188.5,319.7 L 189.4,319.1 L 192.4,319.2 L 193.0,317.5 L 194.6,317.5 L 196.9,319.0 L 199.0,322.0 L 201.0,324.9 L 201.7,325.8 L 205.1,325.4 L 205.8,327.1 L 206.9,330.4 L 207.9,333.8 L 209.4,336.8 L 210.3,339.9 L 211.8,340.7 L 212.1,341.7 L 212.7,342.7 L 213.7,345.8 L 215.7,348.8 L 218.1,351.4 L 220.2,353.3 L 212.2,358.8 L 210.3,360.0 L 210.2,358.1 L 209.0,357.6 L 209.0,356.2 L 208.7,354.7 L 207.6,353.5 L 207.2,352.1 L 205.7,350.3 L 204.6,349.4 L 202.3,348.4 L 201.6,346.4 L 199.8,344.6 L 197.9,344.6 L 197.1,342.9 L 196.5,340.6 L 193.3,339.1 L 190.0,338.3 L 186.5,338.3 L 183.0,338.3 L 179.5,338.3 L 177.5,338.1 L 177.0,336.5 L 174.7,336.9 L 173.1,338.1 L 171.0,338.5 L 167.5,338.6 L 163.9,338.8 L 163.5,339.3 L 163.2,340.3 L 159.6,340.4 L 158.9,341.6 L 159.0,343.6 L 159.1,344.5 L 157.4,344.7 L 154.8,344.5 L 153.9,344.4 L 150.6,344.7 L 149.4,345.3 L 148.6,345.7 L 148.2,346.1 L 148.1,349.7 L 148.5,353.2 L 149.4,355.2 L 150.3,356.7 L 148.9,358.0 L 148.1,358.8" fill="none" stroke="black" stroke-width="2"/>
</svg>