<?xml version="1.0" encoding="UTF-8"?>
<svg width="400" height="400" viewBox="0 0 400 400" xmlns="http://www.w3.org/2000/svg">
  <rect width="400" height="400" fill="white"/>
  <path d="M 40.0,233.1 L 47.1,231.8 L 52.2,232.8 L 52.5,234.8 L 54.3,236.3 L 57.5,236.9 L 62.8,234.2 L 65.5,230.2 L 68.6,226.5 L 69.1,225.6 L 68.7,224.3 L 68.2,223.3 L 68.6,220.8 L 69.8,219.4 L 75.4,214.4 L 76.2,211.9 L 78.2,210.5 L 80.1,211.3 L 82.2,211.1 L 83.0,210.2 L 82.7,205.4 L 83.8,205.2 L 85.4,206.8 L 86.1,207.1 L 92.1,204.4 L 92.7,201.2 L 97.2,195.2 L 100.5,190.7 L 100.0,189.7 L 100.4,187.7 L 103.1,187.0 L 104.2,187.3 L 105.2,188.7 L 106.3,189.2 L 108.5,188.4 L 110.1,186.7 L 111.1,182.4 L 112.0,176.0 L 113.3,172.9 L 115.0,171.0 L 117.1,170.4 L 123.5,171.0 L 129.4,174.5 L 130.8,175.6 L 135.8,181.2 L 138.1,183.3 L 143.9,188.2 L 145.9,189.9 L 147.7,190.2 L 150.2,190.1 L 154.7,192.5 L 157.2,192.2 L 159.4,191.3 L 162.2,192.1 L 164.8,192.7 L 167.1,192.5 L 169.1,191.2 L 170.0,189.4 L 171.7,182.5 L 174.1,179.1 L 179.7,174.5 L 180.6,172.7 L 180.9,169.1 L 185.2,163.6 L 191.0,159.8 L 194.7,157.1 L 201.6,154.1 L 206.6,151.5 L 208.5,150.5 L 211.4,150.8 L 214.3,152.4 L 217.3,152.1 L 223.5,148.8 L 225.9,145.6 L 227.5,144.1 L 228.6,143.0 L 230.5,142.1 L 235.7,136.9 L 237.4,135.7 L 240.0,135.7 L 241.3,136.6 L 242.5,137.3 L 242.8,136.7 L 243.2,136.0 L 244.7,136.1 L 245.6,136.4 L 246.5,135.5 L 246.8,133.7 L 246.9,126.5 L 248.1,125.8 L 250.0,126.2 L 251.1,128.0 L 252.6,131.0 L 254.0,131.5 L 256.2,130.9 L 260.3,124.7 L 261.9,122.5 L 262.7,121.5 L 263.7,118.9 L 265.3,120.2 L 272.7,120.1 L 276.4,119.3 L 277.6,118.4 L 277.6,116.5 L 278.0,116.0 L 278.1,115.1 L 279.3,113.7 L 283.8,112.0 L 284.5,110.5 L 284.9,108.3 L 287.0,106.8 L 290.3,105.7 L 297.4,104.3 L 299.4,105.0 L 302.5,106.8 L 304.6,110.8 L 306.2,114.4 L 307.1,117.5 L 307.8,119.6 L 309.4,120.5 L 311.3,120.5 L 312.6,119.5 L 315.0,115.9 L 314.7,115.1 L 313.5,113.3 L 311.4,109.7 L 310.7,108.3 L 311.2,106.8 L 313.5,105.0 L 318.3,101.6 L 323.6,96.0 L 329.1,93.8 L 330.0,94.7 L 332.0,98.8 L 335.0,100.1 L 337.9,99.4 L 340.0,99.0 L 343.4,97.0 L 344.7,97.5 L 346.3,100.1 L 345.7,100.6 L 342.8,101.9 L 343.1,102.9 L 344.2,104.9 L 347.2,109.1 L 348.9,109.5 L 350.4,111.9 L 352.1,112.2 L 354.5,110.9 L 356.0,110.8 L 357.7,111.4 L 360.0,111.3 L 356.8,118.8 L 355.9,120.9 L 353.8,123.2 L 349.2,129.2 L 348.2,130.2 L 344.6,133.9 L 339.8,139.4 L 336.5,144.2 L 334.2,146.6 L 331.6,149.8 L 327.7,156.3 L 323.5,162.4 L 321.5,165.6 L 320.7,168.4 L 320.0,175.7 L 318.8,178.6 L 315.2,182.7 L 312.5,185.3 L 308.6,191.5 L 304.9,198.2 L 303.0,201.3 L 298.8,207.5 L 296.6,213.2 L 296.1,217.0 L 296.2,224.2 L 296.7,224.6 L 296.9,224.8 L 297.4,227.5 L 295.6,230.4 L 290.4,233.1 L 283.4,235.5 L 279.3,234.4 L 277.9,235.1 L 276.4,235.9 L 273.1,234.4 L 271.2,234.4 L 269.4,237.1 L 268.9,244.7 L 266.5,251.1 L 267.6,253.1 L 268.2,254.7 L 266.7,256.8 L 263.4,257.6 L 260.5,258.1 L 258.0,260.6 L 258.1,263.6 L 261.3,270.3 L 266.3,275.7 L 270.4,280.6 L 274.0,287.8 L 271.7,292.3 L 267.4,293.1 L 265.5,293.7 L 263.7,296.9 L 262.2,299.0 L 260.1,298.9 L 255.1,293.3 L 249.4,288.6 L 243.4,288.8 L 239.7,287.2 L 235.4,288.7 L 233.8,288.0 L 232.4,283.9 L 229.1,278.8 L 225.5,276.0 L 220.2,272.7 L 216.2,272.9 L 214.1,274.5 L 213.6,280.9 L 212.9,288.2 L 211.9,292.8 L 210.3,300.3 L 207.2,304.9 L 203.0,306.1 L 195.6,306.2 L 192.1,301.9 L 186.5,297.0 L 180.9,292.1 L 175.3,287.1 L 169.7,285.5 L 162.4,286.7 L 157.3,284.3 L 151.5,279.7 L 150.2,273.3 L 146.4,268.2 L 142.9,266.9 L 139.3,267.4 L 137.8,269.9 L 133.8,269.9 L 128.8,266.2 L 124.2,264.5 L 118.1,260.4 L 116.2,256.0 L 112.4,256.8 L 110.1,255.1 L 104.9,251.0 L 98.7,246.9 L 96.2,242.3 L 92.2,236.1 L 89.1,229.3 L 86.5,226.4 L 84.1,225.5 L 81.3,226.7 L 75.6,231.7 L 70.9,236.8 L 65.7,242.0 L 62.0,243.2 L 54.7,242.4 L 48.0,238.9 L 42.1,237.2" fill="none" stroke="black" stroke-width="2"/>
</svg>