<?xml version="1.0" encoding="UTF-8"?>
<svg width="400" height="400" viewBox="0 0 400 400" xmlns="http://www.w3.org/2000/svg">
  <rect width="400" height="400" fill="white"/>
  <path d="M 40.0,261.8 L 40.8,261.8 L 43.1,262.4 L 46.9,264.6 L 47.5,263.3 L 48.3,262.2 L 49.3,262.3 L 50.6,264.1 L 52.4,262.7 L 53.7,262.2 L 56.8,261.9 L 58.5,260.6 L 60.4,257.6 L 62.4,257.6 L 64.1,256.8 L 66.8,256.4 L 67.9,255.2 L 69.0,256.1 L 69.0,259.4 L 71.8,260.0 L 72.5,259.6 L 73.3,254.3 L 73.7,249.7 L 71.5,249.1 L 66.4,248.5 L 61.4,246.9 L 60.2,246.3 L 61.7,242.9 L 63.8,242.9 L 63.6,241.0 L 58.9,238.8 L 54.8,235.5 L 50.5,232.6 L 47.5,230.5 L 46.4,226.4 L 43.9,222.5 L 42.0,220.0 L 40.7,217.9 L 41.0,217.5 L 45.4,220.5 L 47.9,223.0 L 50.7,226.3 L 54.6,229.8 L 58.5,232.9 L 62.6,236.1 L 66.8,238.2 L 70.2,238.4 L 72.6,237.1 L 74.2,234.5 L 73.9,231.8 L 73.4,229.6 L 73.2,227.9 L 68.8,225.1 L 67.3,223.4 L 68.7,222.9 L 73.7,223.9 L 78.2,223.9 L 83.3,223.1 L 88.6,223.1 L 90.4,221.4 L 89.9,220.5 L 87.3,218.4 L 88.8,215.3 L 93.3,218.1 L 96.1,218.6 L 97.0,218.0 L 96.2,213.6 L 92.3,210.4 L 87.9,207.5 L 86.4,206.4 L 89.4,204.9 L 94.0,207.3 L 97.2,208.6 L 98.7,206.5 L 100.6,206.5 L 105.6,208.3 L 107.6,208.3 L 108.0,205.2 L 108.2,203.6 L 112.3,202.4 L 114.6,202.6 L 117.6,202.3 L 120.4,204.0 L 123.5,205.6 L 127.0,205.3 L 131.8,203.5 L 134.3,201.8 L 138.2,201.0 L 140.8,198.9 L 140.6,196.8 L 140.3,195.7 L 142.0,194.5 L 144.5,195.3 L 147.4,195.9 L 151.5,195.0 L 153.0,193.3 L 153.5,191.7 L 157.4,191.8 L 159.0,191.7 L 158.9,190.5 L 156.2,188.0 L 154.4,187.3 L 152.8,188.2 L 152.2,187.3 L 152.0,184.9 L 147.5,182.1 L 144.6,178.5 L 145.9,178.1 L 150.9,177.8 L 151.7,176.4 L 153.9,175.4 L 158.3,172.7 L 162.1,169.5 L 164.8,166.9 L 164.1,165.7 L 161.1,165.3 L 160.3,163.7 L 161.2,158.9 L 166.1,156.8 L 166.5,155.4 L 164.7,154.0 L 163.5,153.0 L 167.1,149.8 L 169.1,150.6 L 173.0,154.1 L 176.2,158.1 L 178.6,159.9 L 181.1,159.3 L 186.0,157.9 L 188.4,156.5 L 193.6,157.7 L 195.2,158.2 L 197.6,157.0 L 198.4,156.2 L 198.4,154.8 L 202.8,152.0 L 207.2,148.9 L 209.7,146.1 L 210.7,143.4 L 213.7,141.1 L 216.0,139.3 L 217.8,139.8 L 220.1,141.6 L 224.9,139.3 L 225.1,139.1 L 227.2,136.3 L 227.1,136.2 L 224.3,135.4 L 223.7,134.8 L 223.7,129.5 L 225.6,126.2 L 230.2,123.8 L 234.7,122.5 L 238.4,119.0 L 242.3,117.5 L 243.1,117.6 L 245.7,117.7 L 246.7,118.9 L 247.7,121.3 L 249.8,121.2 L 255.0,119.9 L 258.4,119.2 L 259.4,118.0 L 260.7,116.5 L 263.7,114.1 L 266.2,113.5 L 268.2,113.7 L 271.1,112.1 L 274.5,108.3 L 278.9,105.5 L 283.2,103.1 L 284.6,101.3 L 281.4,97.8 L 282.1,96.3 L 282.3,95.1 L 285.1,95.3 L 287.2,94.6 L 289.4,92.8 L 292.0,90.6 L 295.6,89.0 L 299.0,85.7 L 299.0,83.9 L 297.3,78.9 L 296.6,76.2 L 297.4,74.9 L 299.4,73.7 L 300.0,72.8 L 305.0,71.8 L 309.5,70.3 L 313.9,67.5 L 317.4,64.4 L 320.5,63.5 L 321.8,63.4 L 323.1,61.5 L 323.2,61.3 L 323.7,57.9 L 325.4,56.7 L 327.6,57.3 L 331.3,60.8 L 333.7,60.2 L 337.1,59.5 L 339.7,58.9 L 342.4,56.9 L 344.6,55.5 L 344.6,52.3 L 343.3,51.0 L 360.0,51.6 L 355.2,53.5 L 352.5,54.7 L 351.4,57.4 L 350.0,59.8 L 345.6,62.5 L 344.8,63.5 L 343.7,64.9 L 341.5,69.6 L 339.2,74.3 L 336.9,79.0 L 336.1,84.1 L 335.5,87.8 L 331.8,90.3 L 328.0,89.9 L 325.3,88.6 L 325.1,87.0 L 324.6,85.9 L 320.5,82.5 L 317.6,82.2 L 316.4,83.2 L 313.5,85.7 L 308.9,87.5 L 304.0,89.0 L 299.9,90.9 L 299.3,96.0 L 298.9,101.1 L 300.8,102.9 L 302.0,104.3 L 300.3,105.4 L 302.2,108.9 L 305.8,108.9 L 309.1,111.2 L 312.2,115.3 L 316.2,118.6 L 320.7,119.7 L 325.9,120.2 L 328.7,124.1 L 330.6,128.8 L 330.8,130.0 L 326.3,131.1 L 322.2,127.9 L 317.0,126.9 L 313.9,125.6 L 313.5,123.8 L 309.7,122.0 L 304.8,120.3 L 300.2,118.0 L 295.2,117.8 L 293.6,117.4 L 293.0,115.0 L 291.6,114.4 L 289.2,113.4 L 284.5,111.1 L 279.2,110.3 L 277.2,110.9 L 272.9,113.7 L 270.7,118.4 L 270.3,123.0 L 269.4,123.8 L 268.0,124.6 L 265.7,129.3 L 262.9,133.8 L 262.4,138.0 L 264.1,143.0 L 266.3,147.5 L 268.4,152.3 L 270.7,157.1 L 272.4,161.9 L 274.6,166.5 L 275.6,171.5 L 275.3,173.5 L 273.9,174.3 L 271.9,173.3 L 267.8,170.0 L 263.2,167.6 L 258.6,165.5 L 256.9,163.3 L 256.8,161.6 L 258.8,160.8 L 259.2,159.9 L 258.9,156.5 L 256.5,151.9 L 256.4,151.7 L 253.1,148.0 L 248.6,145.4 L 246.0,142.8 L 242.0,141.7 L 241.3,139.6 L 240.1,139.2 L 236.3,142.9 L 232.8,146.7 L 229.5,150.5 L 226.2,154.3 L 222.8,158.4 L 219.7,160.9 L 218.1,162.6 L 216.6,163.6 L 213.1,163.1 L 209.6,161.9 L 208.2,161.6 L 205.6,164.1 L 204.3,166.6 L 202.1,169.1 L 201.3,172.6 L 201.3,177.8 L 202.2,182.6 L 204.2,186.5 L 206.0,190.4 L 208.0,195.2 L 207.2,200.4 L 205.5,205.1 L 205.4,210.4 L 206.4,215.3 L 204.4,217.7 L 203.5,222.8 L 203.1,223.9 L 199.6,221.9 L 195.6,218.6 L 191.4,215.6 L 186.7,213.2 L 182.7,212.1 L 182.2,211.3 L 182.2,210.9 L 183.0,208.4 L 181.9,207.5 L 181.6,207.1 L 180.8,204.4 L 179.9,201.4 L 177.4,198.4 L 175.9,198.4 L 175.9,200.4 L 175.9,203.9 L 173.8,203.8 L 170.0,200.8 L 165.1,199.3 L 162.5,199.3 L 160.7,203.0 L 161.1,206.7 L 162.8,208.8 L 163.4,210.5 L 163.9,215.6 L 165.1,220.7 L 166.6,223.7 L 169.2,222.6 L 169.9,224.1 L 168.6,225.4 L 169.4,228.6 L 170.2,231.0 L 172.5,230.2 L 173.8,232.5 L 173.3,234.8 L 171.7,235.5 L 169.9,234.1 L 168.7,234.5 L 166.7,239.4 L 165.6,242.4 L 168.1,244.3 L 167.0,249.4 L 166.2,254.4 L 166.1,259.0 L 167.8,261.1 L 170.0,262.8 L 170.8,264.9 L 170.5,269.7 L 171.5,270.3 L 171.8,270.7 L 172.2,275.9 L 173.1,277.1 L 175.1,276.9 L 176.0,279.2 L 176.6,284.4 L 177.1,286.2 L 178.2,287.4 L 178.1,292.6 L 178.8,297.1 L 178.7,302.3 L 179.2,307.5 L 179.1,312.6 L 178.7,317.5 L 177.7,322.6 L 177.1,324.5 L 177.1,325.2 L 175.6,325.6 L 175.3,326.9 L 176.5,327.1 L 178.1,330.3 L 177.9,335.5 L 177.8,338.1 L 178.0,340.5 L 177.0,341.1 L 175.2,342.0 L 171.9,344.4 L 167.7,347.2 L 164.2,349.0 L 162.5,348.2 L 162.7,344.2 L 160.3,341.6 L 159.9,340.0 L 160.0,334.8 L 159.2,333.3 L 155.7,329.2 L 155.2,326.5 L 156.2,322.6 L 156.5,321.6 L 154.8,316.8 L 151.7,312.7 L 148.4,308.6 L 144.7,305.1 L 141.0,301.5 L 139.5,299.3 L 138.5,296.7 L 135.4,292.6 L 130.9,290.1 L 126.5,287.7 L 122.0,285.1 L 117.4,283.4 L 112.5,281.8 L 109.3,280.7 L 104.1,280.4 L 99.0,281.0 L 97.3,281.7 L 95.0,281.7 L 77.5,281.4 L 78.8,280.5 L 80.1,278.3 L 79.3,276.8 L 75.2,274.0 L 70.6,271.8 L 65.4,271.2 L 60.9,269.6 L 56.8,268.5 L 51.7,267.3 L 46.8,265.7 L 42.7,265.4 L 42.5,266.5 L 40.1,262.1 L 40.0,261.8" fill="none" stroke="black" stroke-width="2"/>
</svg>