<?xml version="1.0" encoding="UTF-8"?>
<svg width="400" height="400" viewBox="0 0 400 400" xmlns="http://www.w3.org/2000/svg">
  <rect width="400" height="400" fill="white"/>
  <path d="M 60.3,287.1 L 60.8,286.0 L 61.1,283.1 L 60.4,281.1 L 58.2,278.2 L 58.5,277.6 L 60.0,277.6 L 61.8,278.3 L 61.8,277.5 L 61.3,277.1 L 58.8,276.0 L 58.7,275.2 L 59.4,274.1 L 60.4,273.7 L 65.6,272.6 L 66.2,271.8 L 67.4,268.9 L 70.3,266.3 L 71.3,265.3 L 71.3,263.8 L 71.3,262.4 L 71.9,261.7 L 74.1,261.1 L 74.8,260.1 L 74.6,259.2 L 70.2,256.1 L 67.7,253.8 L 67.7,252.4 L 68.7,250.3 L 70.2,249.2 L 75.5,247.9 L 76.6,247.8 L 78.3,248.1 L 79.1,247.5 L 79.9,246.2 L 83.0,243.3 L 84.4,241.1 L 84.7,238.9 L 84.8,236.1 L 86.0,232.8 L 86.2,227.6 L 86.2,223.7 L 87.3,222.6 L 87.3,219.9 L 87.0,218.7 L 86.5,217.5 L 86.5,214.6 L 85.8,210.6 L 84.0,208.1 L 83.1,206.6 L 83.6,204.2 L 82.1,198.8 L 81.5,197.6 L 79.4,195.4 L 79.0,193.7 L 79.5,188.4 L 79.0,186.1 L 78.0,183.5 L 77.9,178.1 L 78.2,177.3 L 79.7,176.7 L 81.7,176.8 L 83.7,178.0 L 84.8,179.5 L 86.8,184.5 L 88.4,186.8 L 91.8,189.7 L 92.6,191.6 L 93.1,194.8 L 94.5,198.0 L 94.9,199.0 L 95.5,201.7 L 96.6,203.7 L 98.1,204.9 L 99.5,204.9 L 100.7,204.3 L 101.0,203.4 L 101.2,201.6 L 102.0,200.4 L 101.8,199.5 L 101.3,198.2 L 102.2,197.6 L 103.9,197.3 L 104.5,197.9 L 105.1,199.1 L 105.7,199.3 L 105.9,198.6 L 105.4,197.0 L 103.9,195.8 L 104.0,195.0 L 104.7,194.1 L 106.0,193.9 L 107.2,194.4 L 107.8,195.3 L 107.8,197.4 L 107.7,200.0 L 108.1,201.4 L 109.7,203.9 L 109.7,207.1 L 110.4,208.0 L 111.2,208.6 L 112.2,209.8 L 113.5,210.4 L 115.7,210.4 L 115.9,209.7 L 115.4,207.2 L 115.5,206.1 L 115.2,205.2 L 115.8,204.6 L 117.5,203.6 L 116.7,201.8 L 115.7,199.5 L 115.8,198.5 L 116.6,198.4 L 118.1,198.6 L 118.9,198.1 L 120.5,195.3 L 122.4,191.5 L 122.6,190.2 L 123.2,189.9 L 124.2,189.9 L 124.4,189.1 L 124.1,187.7 L 124.7,186.6 L 125.3,186.5 L 126.1,187.1 L 128.6,191.2 L 129.5,191.7 L 130.1,191.2 L 131.3,189.8 L 132.2,189.9 L 132.6,190.8 L 132.7,191.9 L 132.2,194.2 L 132.5,195.2 L 133.2,195.6 L 135.1,196.0 L 136.7,197.3 L 140.7,201.1 L 141.1,202.4 L 141.8,202.4 L 142.3,201.8 L 142.0,200.3 L 141.8,199.2 L 144.0,198.8 L 145.1,198.0 L 148.5,193.8 L 149.6,192.2 L 150.0,190.5 L 149.7,186.4 L 151.0,182.8 L 150.7,181.4 L 149.6,179.6 L 149.5,176.0 L 149.5,175.0 L 148.2,170.9 L 146.0,166.3 L 144.1,164.2 L 142.3,162.4 L 140.5,159.6 L 137.6,158.0 L 135.7,157.7 L 130.5,158.0 L 127.6,157.4 L 126.5,157.8 L 125.4,158.7 L 124.4,158.3 L 122.7,156.8 L 122.5,155.8 L 123.1,154.1 L 124.2,151.1 L 124.5,149.2 L 123.9,148.5 L 121.0,146.6 L 118.7,144.3 L 119.1,143.2 L 120.2,141.8 L 124.2,138.3 L 124.8,137.0 L 124.5,135.6 L 122.9,133.5 L 120.2,130.5 L 118.6,129.9 L 117.1,129.7 L 116.2,128.9 L 118.4,127.7 L 120.0,127.2 L 120.0,126.6 L 118.7,125.9 L 117.5,126.0 L 116.0,127.2 L 114.8,128.4 L 113.7,128.1 L 113.1,127.2 L 111.6,122.0 L 111.2,121.7 L 109.2,122.8 L 108.4,123.5 L 107.0,126.0 L 105.9,126.3 L 104.6,125.9 L 104.0,124.9 L 103.9,123.4 L 106.9,119.2 L 106.9,117.9 L 105.9,116.0 L 105.1,114.9 L 100.4,114.2 L 99.6,113.5 L 99.5,111.5 L 100.0,107.4 L 101.2,104.5 L 102.5,103.7 L 103.6,103.6 L 105.5,102.1 L 108.2,98.7 L 108.7,95.8 L 109.1,94.2 L 110.8,92.3 L 113.0,91.0 L 115.9,89.6 L 120.1,86.2 L 124.0,82.6 L 125.7,80.2 L 126.9,75.0 L 127.1,72.6 L 126.5,69.8 L 125.2,66.1 L 124.0,61.0 L 122.5,55.8 L 121.0,50.6 L 120.9,48.9 L 121.7,43.5 L 123.1,41.7 L 125.4,40.1 L 126.1,40.0 L 129.0,43.4 L 131.2,44.5 L 133.5,45.4 L 135.2,46.9 L 138.6,51.2 L 141.0,56.1 L 142.2,59.0 L 142.9,61.1 L 143.2,66.5 L 143.0,70.2 L 142.3,70.1 L 139.8,69.1 L 137.3,67.2 L 135.9,65.4 L 134.7,65.5 L 134.3,66.0 L 134.6,70.1 L 134.6,71.7 L 133.8,72.8 L 131.6,74.8 L 130.6,76.8 L 128.7,81.9 L 127.8,85.9 L 127.2,91.1 L 127.4,95.7 L 128.4,98.8 L 130.0,101.4 L 131.4,104.1 L 132.8,105.3 L 134.3,105.6 L 137.5,105.2 L 141.3,102.9 L 142.1,102.9 L 142.4,104.2 L 141.5,108.7 L 140.7,112.7 L 140.7,116.1 L 141.6,119.4 L 143.3,123.9 L 145.9,128.8 L 146.8,129.3 L 148.1,128.9 L 149.2,127.7 L 149.9,126.8 L 151.7,126.1 L 153.7,121.4 L 155.4,116.3 L 155.4,112.5 L 154.9,107.0 L 154.3,101.7 L 154.5,100.2 L 155.2,100.1 L 157.3,102.0 L 159.4,104.6 L 160.0,106.8 L 160.8,108.8 L 162.2,110.3 L 163.3,111.6 L 163.4,113.4 L 162.9,116.0 L 160.5,120.9 L 158.4,124.5 L 158.4,129.1 L 158.8,131.6 L 158.2,131.8 L 156.1,131.9 L 155.4,132.4 L 155.8,133.8 L 157.1,135.7 L 161.5,138.9 L 164.4,140.9 L 165.3,142.8 L 165.3,144.6 L 164.4,148.1 L 164.7,152.5 L 165.6,153.6 L 166.9,154.9 L 167.9,157.0 L 169.5,162.1 L 170.5,164.8 L 171.4,166.0 L 173.2,167.0 L 177.6,167.2 L 177.8,167.9 L 177.2,168.8 L 175.7,170.1 L 175.0,171.9 L 174.9,175.1 L 174.7,177.0 L 174.7,178.3 L 174.8,179.0 L 175.0,180.8 L 175.2,181.9 L 175.7,182.8 L 176.4,183.0 L 177.7,182.8 L 179.9,183.0 L 180.0,185.9 L 180.7,186.9 L 184.2,188.9 L 186.7,189.5 L 188.6,190.5 L 189.1,190.2 L 188.6,187.4 L 188.3,184.7 L 188.0,182.8 L 186.6,180.6 L 185.5,179.2 L 184.8,178.3 L 184.8,177.7 L 185.6,177.2 L 186.1,176.8 L 186.2,175.9 L 185.3,173.6 L 184.2,171.8 L 184.3,170.9 L 185.4,169.4 L 185.9,168.8 L 185.7,167.7 L 184.8,166.2 L 182.5,165.2 L 182.7,164.2 L 184.1,162.8 L 188.4,159.4 L 189.2,159.3 L 190.7,159.8 L 191.2,159.1 L 191.3,157.8 L 190.3,155.4 L 189.9,150.4 L 189.8,145.0 L 190.1,143.0 L 191.3,141.8 L 191.8,139.7 L 192.8,138.0 L 193.7,137.5 L 194.7,137.9 L 195.1,138.6 L 195.6,140.4 L 196.6,141.3 L 198.1,141.5 L 199.0,141.0 L 199.0,139.6 L 198.9,137.8 L 199.5,136.9 L 200.1,137.0 L 201.1,137.9 L 203.5,142.8 L 205.1,146.7 L 205.9,146.7 L 206.7,146.2 L 207.3,145.1 L 207.5,141.6 L 206.7,139.3 L 204.0,134.6 L 203.3,132.0 L 203.8,130.4 L 204.9,129.4 L 209.3,128.0 L 211.2,128.3 L 212.2,127.7 L 212.4,127.3 L 213.6,125.6 L 215.2,123.6 L 217.3,122.1 L 218.9,122.4 L 219.8,124.5 L 219.6,128.6 L 218.2,134.0 L 217.6,139.4 L 217.0,144.7 L 216.7,148.4 L 215.7,150.5 L 214.2,153.4 L 213.9,156.3 L 212.9,158.4 L 213.0,161.3 L 212.6,164.3 L 212.6,165.9 L 213.5,168.1 L 214.2,171.6 L 215.1,172.8 L 215.8,173.8 L 216.1,175.2 L 215.8,176.7 L 216.5,177.9 L 217.2,178.1 L 218.6,177.5 L 219.4,178.0 L 219.7,179.0 L 219.9,180.2 L 219.8,182.3 L 219.8,182.9 L 220.3,184.8 L 221.0,185.2 L 221.3,184.6 L 221.5,182.5 L 221.6,181.8 L 222.1,180.0 L 222.5,179.1 L 224.0,178.7 L 226.4,178.5 L 226.9,179.2 L 226.9,181.1 L 226.9,182.9 L 226.9,183.8 L 227.6,184.9 L 228.8,185.5 L 229.8,185.1 L 231.0,184.0 L 231.4,183.3 L 233.0,180.7 L 234.7,178.4 L 234.8,177.2 L 234.1,172.3 L 232.8,168.7 L 233.3,164.8 L 233.8,163.6 L 234.6,163.5 L 237.0,165.0 L 240.1,166.1 L 240.8,166.9 L 240.7,168.0 L 240.5,169.0 L 240.8,170.5 L 241.5,171.4 L 242.5,171.4 L 245.1,170.2 L 247.7,171.2 L 249.2,171.6 L 251.9,171.1 L 254.2,169.8 L 255.3,168.0 L 256.2,164.7 L 256.2,161.3 L 255.8,158.2 L 254.4,155.8 L 254.1,153.7 L 254.4,151.2 L 253.8,149.8 L 251.3,145.0 L 250.3,142.3 L 248.8,138.0 L 246.0,133.2 L 245.2,129.3 L 245.7,124.9 L 246.6,122.9 L 247.9,121.2 L 252.9,118.8 L 255.3,117.8 L 260.2,117.1 L 265.7,117.0 L 271.1,117.0 L 272.3,117.4 L 273.3,118.4 L 273.4,123.4 L 275.3,128.5 L 275.8,130.0 L 276.0,131.2 L 276.8,131.7 L 278.7,131.6 L 281.2,128.5 L 281.8,127.9 L 282.8,128.1 L 283.8,130.0 L 284.3,131.5 L 284.2,133.7 L 284.6,134.3 L 287.8,135.3 L 290.1,133.9 L 291.9,133.9 L 293.3,135.4 L 295.2,137.5 L 296.1,137.6 L 297.0,137.0 L 297.4,135.9 L 296.3,132.3 L 297.6,128.3 L 297.4,124.4 L 296.1,120.5 L 294.6,118.9 L 293.5,117.7 L 293.2,116.9 L 292.0,116.0 L 292.2,114.2 L 292.9,113.3 L 295.3,111.8 L 296.4,111.9 L 298.2,113.1 L 302.3,113.0 L 303.6,112.3 L 304.6,110.6 L 305.8,108.2 L 307.7,106.9 L 308.7,106.0 L 311.0,102.6 L 312.2,101.9 L 313.8,101.5 L 318.2,98.0 L 320.5,96.9 L 322.3,96.6 L 324.3,96.8 L 326.3,97.5 L 328.1,95.9 L 328.5,94.4 L 330.3,93.3 L 331.3,89.5 L 331.9,86.3 L 332.3,86.4 L 332.4,86.5 L 332.5,87.6 L 333.9,96.0 L 334.3,101.3 L 335.2,104.9 L 337.1,110.1 L 338.7,115.3 L 340.4,120.3 L 341.8,124.8 L 341.4,125.3 L 341.0,129.0 L 337.8,130.7 L 335.4,132.8 L 333.5,131.9 L 330.1,127.6 L 328.8,125.5 L 328.7,125.9 L 328.6,126.4 L 327.3,130.8 L 326.6,131.3 L 322.6,131.7 L 320.6,132.6 L 318.1,134.0 L 316.0,134.2 L 314.3,134.4 L 310.4,137.2 L 308.0,137.7 L 304.4,137.3 L 299.4,136.8 L 298.6,137.8 L 297.2,140.6 L 294.4,142.8 L 291.8,143.9 L 291.3,144.9 L 291.5,146.4 L 292.2,147.8 L 293.5,149.9 L 294.2,152.4 L 295.2,152.8 L 296.8,153.2 L 297.5,154.1 L 297.8,155.5 L 297.4,159.2 L 296.6,159.9 L 295.3,160.5 L 295.1,164.2 L 296.2,169.6 L 296.6,175.1 L 296.8,179.3 L 297.1,182.2 L 298.2,183.8 L 298.7,184.8 L 298.9,188.1 L 298.7,189.4 L 298.6,190.2 L 297.8,191.4 L 296.7,191.5 L 292.5,191.7 L 291.6,192.7 L 290.3,195.2 L 289.8,197.0 L 287.1,199.8 L 285.2,201.0 L 283.3,201.8 L 281.9,202.6 L 278.7,202.6 L 275.6,201.8 L 273.4,200.2 L 271.9,198.6 L 269.6,197.9 L 268.0,197.7 L 266.7,198.4 L 262.8,201.5 L 261.8,204.1 L 261.6,209.5 L 261.3,213.7 L 259.6,218.8 L 258.1,221.6 L 254.9,225.2 L 252.0,227.9 L 249.8,230.2 L 248.2,232.2 L 245.9,235.3 L 243.8,236.7 L 241.2,238.1 L 238.7,239.4 L 234.9,240.8 L 232.2,241.1 L 230.6,240.5 L 229.7,239.2 L 228.3,237.3 L 227.2,236.9 L 226.2,237.4 L 225.1,238.9 L 223.2,244.0 L 222.0,246.5 L 221.3,247.8 L 220.4,251.5 L 218.7,256.5 L 217.4,261.8 L 216.1,266.9 L 215.1,269.6 L 213.4,272.3 L 210.6,275.0 L 209.4,275.4 L 207.0,274.8 L 205.2,275.2 L 203.3,277.4 L 202.3,278.4 L 199.6,278.7 L 198.7,279.9 L 198.2,280.5 L 197.5,282.6 L 196.5,285.9 L 195.3,288.1 L 194.7,289.4 L 192.8,294.5 L 191.9,297.2 L 189.9,302.2 L 188.3,304.9 L 185.4,308.0 L 181.8,310.3 L 179.6,311.0 L 175.8,311.0 L 175.1,310.6 L 174.8,309.3 L 174.6,307.1 L 173.8,306.4 L 171.7,305.4 L 170.3,305.9 L 168.3,307.1 L 165.0,308.3 L 163.7,308.7 L 161.5,308.9 L 160.9,309.6 L 160.5,311.2 L 160.9,313.6 L 160.7,315.6 L 160.6,319.2 L 159.8,320.2 L 158.3,321.1 L 156.2,322.1 L 151.6,324.9 L 148.7,328.2 L 147.4,331.1 L 146.0,335.3 L 143.9,340.2 L 142.5,344.0 L 142.3,346.5 L 142.6,347.6 L 143.6,349.7 L 144.2,352.9 L 146.2,357.9 L 146.3,357.9 L 143.2,358.1 L 120.7,359.3 L 106.6,360.0 L 107.8,356.5 L 107.9,354.6 L 107.5,352.6 L 108.9,351.4 L 108.7,349.7 L 107.8,347.7 L 105.7,345.4 L 105.7,342.3 L 105.2,340.3 L 106.1,337.1 L 105.9,335.5 L 104.7,333.2 L 104.1,330.5 L 103.8,328.9 L 103.2,328.0 L 102.0,326.5 L 100.9,326.0 L 96.5,323.1 L 92.8,320.2 L 91.1,317.2 L 90.7,315.7 L 90.4,313.7 L 89.1,310.6 L 86.6,309.1 L 84.8,308.8 L 79.8,306.7 L 78.7,305.9 L 77.7,304.7 L 75.7,304.4 L 74.3,304.8 L 74.2,304.6 L 61.2,288.2 L 60.3,287.1" fill="none" stroke="black" stroke-width="2"/>
</svg>