<?xml version="1.0" encoding="UTF-8"?>
<svg width="400" height="400" viewBox="0 0 400 400" xmlns="http://www.w3.org/2000/svg">
  <rect width="400" height="400" fill="white"/>
  <path d="M 65.3,195.7 L 66.0,196.1 L 66.8,195.1 L 68.0,193.3 L 68.7,192.7 L 69.3,192.8 L 69.3,192.8 L 69.8,193.7 L 70.2,194.3 L 70.8,194.4 L 72.1,193.3 L 73.9,194.3 L 75.1,194.9 L 76.5,194.2 L 78.2,192.9 L 79.0,193.0 L 79.2,194.0 L 79.9,195.7 L 80.3,196.1 L 80.3,197.9 L 80.9,199.0 L 82.4,200.6 L 84.4,201.1 L 84.4,202.2 L 84.9,203.0 L 85.7,203.3 L 86.9,203.1 L 87.8,202.6 L 87.2,203.7 L 87.0,204.4 L 88.2,206.1 L 89.6,206.9 L 89.6,207.0 L 89.9,206.4 L 90.2,205.6 L 90.4,205.2 L 90.8,206.7 L 91.2,207.1 L 92.0,206.5 L 93.2,204.8 L 93.8,203.4 L 93.6,202.4 L 93.5,201.9 L 94.6,202.1 L 95.1,201.8 L 95.4,200.9 L 95.0,200.0 L 94.0,199.3 L 91.9,198.9 L 89.7,199.1 L 89.7,198.6 L 89.5,198.1 L 88.7,198.0 L 89.2,197.2 L 90.0,195.7 L 90.7,194.7 L 91.0,194.1 L 89.5,192.5 L 90.1,191.1 L 90.9,190.7 L 91.4,190.1 L 91.2,188.4 L 90.0,187.4 L 89.2,186.2 L 89.1,184.8 L 90.1,183.5 L 89.3,181.6 L 89.2,180.3 L 89.0,178.9 L 88.8,177.5 L 89.3,177.4 L 90.5,178.8 L 91.2,180.3 L 92.1,182.3 L 92.7,184.4 L 93.5,186.5 L 95.2,187.9 L 96.1,187.8 L 96.8,186.5 L 97.6,184.5 L 97.9,182.3 L 98.0,180.2 L 97.5,179.6 L 96.1,179.2 L 94.0,178.9 L 92.7,178.2 L 92.0,176.9 L 91.3,174.9 L 90.9,174.0 L 89.3,173.1 L 89.0,173.2 L 89.0,173.0 L 89.4,171.7 L 89.8,172.1 L 91.5,173.4 L 93.3,174.5 L 95.4,175.3 L 97.5,175.6 L 100.5,176.1 L 102.3,177.0 L 102.5,177.1 L 103.7,177.5 L 104.6,177.8 L 105.9,179.6 L 107.1,180.4 L 107.5,180.8 L 108.3,181.9 L 109.9,183.2 L 111.4,183.5 L 112.1,183.2 L 113.3,181.5 L 114.4,179.7 L 115.3,177.7 L 116.2,175.8 L 117.1,174.4 L 118.9,173.6 L 120.1,172.4 L 122.0,171.3 L 123.6,169.9 L 125.2,168.3 L 126.5,167.4 L 127.7,167.5 L 128.7,167.9 L 129.2,168.7 L 128.9,169.5 L 127.6,171.3 L 126.6,172.3 L 125.8,172.2 L 125.0,172.9 L 123.5,174.4 L 122.2,176.0 L 121.2,177.8 L 120.2,179.7 L 119.1,181.6 L 117.9,183.4 L 117.4,184.8 L 117.6,185.6 L 119.1,187.1 L 119.7,187.5 L 120.7,187.7 L 121.4,188.8 L 122.1,189.9 L 123.1,190.0 L 124.2,189.5 L 125.1,189.1 L 126.2,189.9 L 128.3,189.7 L 128.8,189.2 L 128.6,188.3 L 128.7,188.2 L 130.0,188.4 L 130.9,187.7 L 132.2,186.9 L 133.0,187.3 L 133.4,187.9 L 133.3,189.2 L 133.6,189.8 L 133.5,190.4 L 133.2,190.7 L 133.3,192.9 L 134.1,194.5 L 135.5,196.2 L 136.8,197.3 L 136.7,198.7 L 137.7,200.6 L 138.5,201.5 L 139.5,201.4 L 140.8,200.5 L 140.8,200.0 L 140.4,199.1 L 142.1,199.8 L 142.6,199.2 L 142.3,198.4 L 142.3,197.7 L 142.8,197.8 L 143.4,197.9 L 144.3,197.9 L 144.4,197.1 L 144.4,194.9 L 144.0,193.8 L 143.3,192.3 L 143.1,191.9 L 143.3,191.7 L 143.4,191.7 L 144.3,192.0 L 145.5,193.8 L 147.0,195.5 L 148.9,196.7 L 149.6,196.4 L 150.0,195.4 L 150.2,193.5 L 151.2,192.7 L 151.3,191.6 L 150.7,190.4 L 151.1,189.3 L 151.2,188.6 L 151.9,188.7 L 153.6,189.9 L 155.4,191.2 L 157.4,192.2 L 158.9,192.4 L 160.3,190.8 L 158.3,190.9 L 159.1,188.8 L 159.1,187.7 L 157.7,186.1 L 155.9,184.9 L 154.7,184.1 L 154.9,183.9 L 155.9,184.2 L 157.8,184.7 L 158.5,183.9 L 158.8,182.7 L 158.3,181.7 L 156.9,180.4 L 155.2,179.4 L 154.7,178.8 L 154.9,178.6 L 156.7,179.2 L 157.2,178.7 L 157.4,178.3 L 158.1,178.2 L 159.0,177.8 L 160.2,178.7 L 161.8,180.2 L 163.3,181.6 L 164.9,183.1 L 166.6,184.4 L 167.2,184.5 L 168.3,185.6 L 168.9,185.6 L 170.7,184.2 L 171.3,183.7 L 172.3,184.6 L 173.0,183.9 L 173.9,182.3 L 173.4,181.4 L 174.4,179.5 L 174.8,177.6 L 173.8,175.7 L 173.6,174.3 L 174.2,173.6 L 174.8,173.5 L 175.9,173.8 L 177.2,173.2 L 178.9,171.9 L 180.5,170.3 L 181.0,169.9 L 183.1,169.4 L 183.8,169.2 L 185.8,168.1 L 187.7,167.4 L 187.8,167.8 L 186.7,169.0 L 186.9,169.5 L 187.9,169.6 L 189.7,168.5 L 190.2,167.8 L 189.1,166.8 L 188.3,165.9 L 188.5,164.9 L 190.3,163.9 L 191.2,164.2 L 191.5,163.7 L 191.5,162.4 L 191.9,161.4 L 191.7,160.7 L 193.0,160.0 L 192.7,159.2 L 190.8,158.1 L 190.1,157.8 L 190.1,157.8 L 190.0,157.8 L 188.6,156.9 L 187.7,156.1 L 186.5,154.4 L 185.8,153.8 L 184.7,153.7 L 183.8,153.3 L 182.9,152.9 L 181.3,152.2 L 180.4,151.8 L 180.0,151.2 L 179.2,150.5 L 178.7,150.4 L 176.7,149.8 L 174.9,148.5 L 173.8,148.3 L 171.7,148.2 L 171.0,147.9 L 170.0,147.5 L 168.5,147.0 L 168.2,146.6 L 166.6,145.5 L 166.2,144.9 L 166.3,144.2 L 166.2,143.9 L 165.7,143.5 L 163.9,143.1 L 163.9,142.9 L 163.5,142.6 L 163.6,142.3 L 163.6,142.1 L 164.0,142.0 L 165.2,142.0 L 166.3,142.2 L 168.0,142.3 L 168.6,141.8 L 169.3,141.5 L 170.2,141.8 L 170.9,142.9 L 171.1,143.0 L 171.8,143.5 L 172.7,143.8 L 174.1,144.1 L 175.1,144.3 L 175.2,145.2 L 175.9,146.0 L 176.7,146.2 L 178.9,146.3 L 180.4,147.3 L 181.3,147.5 L 182.5,147.4 L 183.4,147.5 L 183.9,148.5 L 184.5,149.2 L 184.9,149.4 L 185.9,149.1 L 186.7,149.3 L 187.3,149.3 L 187.9,149.1 L 188.7,148.0 L 188.9,147.3 L 189.1,146.6 L 190.3,146.6 L 191.4,146.5 L 191.8,145.9 L 192.1,145.7 L 192.4,145.8 L 192.3,147.0 L 192.2,147.8 L 192.5,148.4 L 192.9,148.5 L 194.2,148.2 L 195.2,148.0 L 195.7,148.0 L 195.9,148.3 L 195.8,148.9 L 195.2,149.2 L 194.8,150.2 L 194.0,151.3 L 193.9,151.7 L 194.0,152.2 L 195.0,152.8 L 195.7,153.1 L 197.8,153.7 L 198.6,153.7 L 199.0,153.4 L 199.0,152.1 L 198.9,151.9 L 198.0,150.3 L 198.0,150.2 L 198.3,150.0 L 199.2,150.3 L 200.3,151.6 L 200.7,152.2 L 201.1,152.9 L 202.0,153.2 L 202.3,153.5 L 202.4,154.0 L 202.7,154.1 L 204.2,154.1 L 204.4,153.9 L 206.1,152.7 L 206.5,152.3 L 206.7,152.0 L 206.3,151.0 L 206.0,150.8 L 205.4,151.0 L 204.9,150.9 L 204.9,149.8 L 204.6,148.4 L 204.1,147.9 L 203.5,147.3 L 203.1,146.6 L 202.8,145.9 L 201.9,145.2 L 205.2,142.4 L 205.4,142.5 L 206.0,142.8 L 206.6,142.8 L 207.8,140.9 L 208.7,139.4 L 208.5,138.4 L 208.0,137.9 L 208.0,137.3 L 207.6,137.0 L 205.8,136.8 L 205.1,137.1 L 204.7,137.0 L 204.8,136.6 L 205.5,136.0 L 205.8,134.7 L 205.7,134.0 L 205.7,133.9 L 205.3,132.6 L 204.9,132.2 L 206.5,131.0 L 207.2,131.5 L 207.3,132.2 L 208.0,133.4 L 208.7,133.6 L 209.5,134.0 L 209.9,133.6 L 210.1,133.0 L 210.2,131.4 L 211.5,131.5 L 212.0,131.3 L 212.8,130.6 L 214.4,129.4 L 214.7,128.5 L 214.8,128.0 L 215.4,127.6 L 215.4,127.1 L 215.2,126.7 L 213.7,125.4 L 213.0,124.5 L 211.9,123.6 L 210.7,122.2 L 210.6,122.1 L 210.7,122.0 L 213.9,118.8 L 214.4,118.3 L 215.3,119.7 L 215.5,120.6 L 215.6,121.0 L 216.3,122.4 L 217.4,123.9 L 217.4,124.7 L 217.4,125.5 L 217.8,126.2 L 218.0,126.7 L 217.8,128.7 L 217.2,129.6 L 216.3,130.6 L 215.9,131.0 L 215.2,132.4 L 214.6,134.5 L 214.6,135.9 L 214.7,136.7 L 214.7,137.7 L 215.1,138.9 L 215.5,139.2 L 216.0,139.3 L 216.1,140.9 L 216.2,141.1 L 216.8,141.2 L 217.3,141.5 L 217.7,141.4 L 218.1,141.0 L 220.6,139.2 L 221.7,137.6 L 221.8,136.5 L 222.1,135.7 L 222.8,135.4 L 224.5,135.2 L 225.1,135.3 L 225.7,136.0 L 226.0,136.8 L 226.2,137.5 L 226.7,137.9 L 227.2,137.9 L 228.1,136.9 L 228.4,136.9 L 228.6,137.4 L 228.7,138.1 L 228.6,138.7 L 228.8,138.8 L 230.2,138.5 L 230.6,138.1 L 231.8,136.8 L 233.3,135.3 L 233.6,135.3 L 234.3,136.1 L 233.7,137.1 L 233.6,138.0 L 233.8,138.2 L 234.4,138.0 L 235.4,137.7 L 236.6,136.8 L 237.2,136.8 L 237.6,137.0 L 237.8,137.5 L 237.9,138.4 L 237.1,139.9 L 236.2,141.7 L 236.0,142.6 L 236.2,143.0 L 236.9,143.4 L 237.3,143.6 L 237.4,144.1 L 237.2,146.3 L 237.6,147.1 L 237.6,147.6 L 235.6,147.5 L 235.5,147.7 L 235.2,148.9 L 235.1,150.3 L 236.4,151.9 L 237.1,152.4 L 237.0,152.4 L 236.0,152.2 L 234.4,151.2 L 234.1,151.0 L 234.0,152.0 L 233.6,152.0 L 233.3,151.4 L 233.0,151.3 L 232.2,152.0 L 231.8,151.9 L 231.7,151.6 L 231.4,149.6 L 231.0,149.2 L 230.2,148.0 L 229.7,147.8 L 228.8,147.7 L 227.5,148.2 L 227.2,148.6 L 226.9,149.1 L 227.3,149.6 L 227.3,150.1 L 227.4,150.4 L 227.9,150.5 L 228.3,150.9 L 229.1,151.6 L 229.4,151.7 L 229.7,151.9 L 229.6,152.6 L 230.1,153.1 L 230.7,153.9 L 231.2,154.0 L 231.5,153.9 L 231.9,153.7 L 232.5,154.0 L 232.4,154.7 L 232.6,155.5 L 232.9,155.7 L 233.3,155.6 L 234.3,155.0 L 234.9,154.0 L 235.0,153.8 L 235.7,154.8 L 236.0,155.3 L 236.4,156.4 L 237.2,158.4 L 237.7,158.9 L 238.9,159.2 L 240.0,158.9 L 241.3,158.8 L 241.3,159.8 L 241.6,160.0 L 242.5,160.2 L 242.9,160.1 L 243.0,159.7 L 242.6,158.6 L 242.1,158.2 L 241.7,157.6 L 241.6,157.2 L 241.7,157.2 L 243.0,157.5 L 244.4,157.6 L 245.1,157.5 L 245.5,157.1 L 245.7,156.8 L 246.2,156.3 L 246.6,156.1 L 247.9,156.1 L 248.6,154.6 L 249.0,153.5 L 249.6,152.1 L 250.0,151.1 L 250.4,150.1 L 251.4,148.0 L 251.6,147.4 L 251.3,146.6 L 251.0,146.3 L 250.9,145.9 L 250.7,145.6 L 250.6,145.2 L 250.9,144.7 L 251.2,144.4 L 251.4,143.7 L 251.6,141.5 L 251.1,140.3 L 250.4,138.9 L 249.5,137.0 L 248.7,135.6 L 248.0,133.6 L 247.5,132.9 L 245.9,131.4 L 245.8,130.7 L 245.9,129.9 L 246.4,129.2 L 246.8,128.9 L 247.5,129.6 L 248.8,131.5 L 249.7,132.8 L 250.5,134.9 L 250.9,136.0 L 252.0,137.9 L 252.9,139.1 L 254.4,140.6 L 254.8,140.7 L 255.2,140.7 L 255.6,140.4 L 255.7,140.3 L 256.1,140.5 L 256.7,140.7 L 257.4,140.1 L 259.2,138.8 L 260.3,138.3 L 261.4,137.3 L 261.9,137.1 L 262.4,137.2 L 262.9,137.8 L 262.9,138.1 L 262.2,139.0 L 261.6,140.0 L 261.2,140.6 L 260.2,141.0 L 259.6,141.9 L 259.6,142.3 L 260.0,142.6 L 260.8,143.0 L 260.8,144.0 L 260.5,144.7 L 259.4,146.5 L 259.3,147.4 L 260.2,147.5 L 260.3,147.7 L 260.1,148.4 L 259.5,149.0 L 258.9,149.7 L 258.8,150.3 L 259.0,151.0 L 259.4,151.5 L 259.9,151.6 L 260.3,152.1 L 260.9,152.4 L 261.4,151.4 L 261.6,151.4 L 262.1,151.7 L 262.2,152.1 L 262.0,153.1 L 261.4,155.2 L 261.3,156.0 L 261.5,157.1 L 261.8,157.5 L 262.4,157.6 L 262.6,157.2 L 262.9,157.1 L 263.5,157.8 L 263.7,158.0 L 264.4,158.0 L 264.9,157.9 L 265.9,156.5 L 266.6,155.6 L 268.0,155.2 L 268.7,154.8 L 268.9,154.4 L 268.8,154.0 L 268.8,153.5 L 269.2,153.0 L 269.6,152.9 L 270.2,152.6 L 272.2,151.8 L 273.2,152.2 L 274.1,152.1 L 274.7,151.7 L 275.7,150.8 L 276.4,149.8 L 276.7,149.4 L 277.9,149.5 L 278.2,149.6 L 278.1,150.4 L 277.8,151.7 L 278.5,151.7 L 278.5,153.9 L 278.4,154.8 L 277.5,156.7 L 277.3,157.2 L 278.0,157.4 L 278.0,157.7 L 277.8,158.1 L 276.6,158.8 L 276.1,159.2 L 275.7,159.8 L 276.6,160.4 L 276.3,161.0 L 275.1,162.9 L 274.7,163.0 L 272.6,163.8 L 271.0,164.6 L 269.8,165.6 L 269.6,167.3 L 269.0,169.2 L 269.0,171.0 L 269.6,172.3 L 270.3,172.8 L 271.1,172.5 L 271.6,172.2 L 271.4,174.5 L 271.9,174.9 L 272.5,175.1 L 273.7,173.8 L 274.8,171.9 L 275.6,171.3 L 276.5,172.0 L 277.1,172.2 L 278.5,171.0 L 281.1,167.8 L 282.6,166.9 L 282.6,166.9 L 283.0,165.9 L 283.3,165.3 L 283.1,164.4 L 283.1,163.7 L 284.5,163.8 L 285.3,163.4 L 285.6,163.3 L 285.6,163.8 L 284.9,165.4 L 284.8,165.9 L 285.0,167.1 L 285.0,167.1 L 285.0,167.1 L 285.8,167.8 L 287.0,169.7 L 288.5,168.3 L 289.4,168.6 L 289.6,168.9 L 288.9,170.8 L 287.7,172.3 L 286.0,173.7 L 286.1,174.5 L 286.8,176.6 L 287.3,178.7 L 287.1,179.1 L 285.3,180.2 L 283.7,181.4 L 282.8,182.7 L 282.8,183.5 L 283.3,183.8 L 285.2,182.7 L 286.8,181.4 L 288.8,180.4 L 290.0,179.6 L 290.9,177.8 L 291.1,176.0 L 290.7,174.8 L 291.2,174.2 L 293.0,175.6 L 293.5,175.9 L 294.8,177.5 L 294.9,177.7 L 295.3,177.6 L 296.8,176.1 L 298.3,174.6 L 299.5,172.0 L 298.3,171.6 L 298.4,171.0 L 298.9,169.9 L 300.3,170.0 L 346.5,173.1 L 346.8,174.0 L 347.4,174.1 L 349.5,173.5 L 352.3,173.7 L 352.4,174.1 L 351.6,175.8 L 351.3,177.5 L 353.5,177.8 L 354.7,178.2 L 355.1,179.0 L 355.5,179.5 L 355.6,181.0 L 354.3,182.8 L 354.0,183.7 L 354.5,185.3 L 355.3,187.2 L 356.6,188.9 L 358.2,189.9 L 359.3,189.9 L 359.9,191.0 L 360.0,191.2 L 359.4,191.3 L 304.8,205.5 L 305.3,205.1 L 306.6,203.3 L 307.5,201.6 L 306.4,200.4 L 307.8,200.6 L 308.6,200.4 L 309.8,198.7 L 310.0,197.5 L 309.5,196.3 L 308.4,195.3 L 307.2,195.2 L 307.1,194.4 L 306.4,193.6 L 305.0,193.0 L 304.4,193.2 L 303.2,193.7 L 302.8,194.2 L 303.6,194.9 L 303.7,195.1 L 302.6,195.1 L 302.0,195.1 L 301.8,195.9 L 302.5,196.9 L 302.8,197.5 L 302.1,197.7 L 301.2,198.1 L 300.7,199.4 L 300.5,201.5 L 301.1,203.1 L 299.9,203.3 L 299.2,204.1 L 299.6,204.5 L 300.4,205.5 L 301.2,206.1 L 302.0,205.6 L 302.1,206.2 L 300.5,206.7 L 300.3,206.6 L 300.0,206.8 L 253.3,218.9 L 253.3,218.9 L 253.6,218.0 L 253.4,217.4 L 251.5,217.6 L 251.4,217.2 L 251.4,217.1 L 254.5,213.7 L 254.2,212.7 L 253.1,212.0 L 252.7,211.9 L 251.6,213.3 L 250.4,214.6 L 248.6,215.7 L 246.7,216.7 L 245.6,217.7 L 245.2,219.4 L 245.2,219.8 L 243.4,219.1 L 226.5,211.8 L 226.8,211.7 L 228.0,210.8 L 229.0,209.0 L 229.3,207.5 L 228.8,205.8 L 228.1,204.9 L 227.0,204.7 L 225.0,205.5 L 222.9,206.3 L 221.7,206.2 L 219.5,206.4 L 218.6,207.1 L 217.0,208.6 L 215.8,209.5 L 215.2,211.2 L 213.9,212.7 L 160.0,264.0 L 141.6,281.7 L 141.4,280.7 L 140.1,279.0 L 140.2,277.7 L 140.1,276.8 L 138.9,276.0 L 138.6,275.4 L 137.9,273.8 L 137.3,272.2 L 136.8,271.1 L 136.2,270.8 L 135.7,270.4 L 134.6,270.3 L 133.8,269.0 L 134.5,268.2 L 134.3,267.5 L 132.9,266.5 L 131.9,266.7 L 131.1,267.5 L 129.9,268.3 L 129.7,270.2 L 129.5,270.8 L 128.3,270.0 L 127.0,268.2 L 126.9,267.7 L 128.0,267.0 L 127.7,266.2 L 126.5,264.8 L 126.0,264.6 L 125.5,265.6 L 124.7,267.7 L 124.2,269.8 L 124.1,270.9 L 123.9,270.9 L 79.1,265.3 L 79.5,264.7 L 79.3,264.1 L 77.4,263.3 L 76.6,262.6 L 76.7,261.1 L 75.7,260.7 L 73.5,260.4 L 72.8,260.9 L 72.8,260.9 L 70.9,259.0 L 70.9,257.6 L 72.1,256.1 L 72.5,255.0 L 72.3,254.0 L 71.7,253.8 L 70.2,254.6 L 69.8,254.4 L 70.3,253.8 L 71.0,252.9 L 71.0,251.7 L 70.5,251.2 L 68.4,250.6 L 66.4,249.7 L 65.9,248.5 L 65.5,248.4 L 64.9,249.8 L 64.5,251.8 L 64.9,254.1 L 65.4,255.2 L 65.9,255.6 L 66.4,256.4 L 67.4,257.3 L 67.5,257.5 L 67.1,258.2 L 65.1,261.2 L 64.8,260.6 L 64.0,258.6 L 63.5,258.2 L 63.3,258.0 L 63.2,257.4 L 62.9,255.8 L 62.1,254.9 L 62.1,254.5 L 61.7,253.8 L 60.8,253.2 L 58.9,253.1 L 58.0,254.5 L 57.4,256.7 L 57.1,259.5 L 55.9,258.9 L 56.2,258.4 L 56.1,256.9 L 56.5,256.1 L 56.4,254.5 L 57.4,253.2 L 57.7,252.5 L 57.4,251.8 L 55.9,251.2 L 55.2,250.0 L 54.6,249.8 L 54.1,250.3 L 53.8,252.5 L 53.9,254.7 L 53.7,256.3 L 52.3,257.2 L 52.1,257.8 L 52.8,259.8 L 52.9,260.0 L 54.1,261.4 L 54.1,261.5 L 53.9,262.4 L 52.8,261.0 L 50.9,259.8 L 49.0,258.8 L 46.9,258.7 L 45.4,259.5 L 44.3,258.2 L 44.3,257.4 L 45.7,255.9 L 46.4,255.0 L 46.3,254.2 L 45.6,253.3 L 44.9,253.0 L 43.5,253.5 L 41.7,254.5 L 40.2,253.3 L 40.0,252.9 L 40.8,252.2 L 42.1,250.9 L 42.5,249.1 L 42.9,248.9 L 43.6,248.8 L 44.2,248.0 L 44.1,247.2 L 43.1,246.5 L 43.1,246.0 L 43.6,246.0 L 44.4,245.7 L 46.4,244.7 L 47.1,243.3 L 47.3,242.3 L 48.0,241.0 L 47.9,240.2 L 46.9,239.9 L 46.2,239.3 L 45.9,238.7 L 47.1,238.0 L 47.9,236.9 L 48.2,234.7 L 49.3,233.8 L 50.1,233.0 L 50.3,232.1 L 49.6,230.9 L 47.9,230.2 L 46.9,229.8 L 47.1,228.7 L 47.5,228.3 L 48.9,228.9 L 49.7,228.8 L 51.7,228.2 L 53.9,227.9 L 55.9,227.6 L 57.5,226.6 L 59.1,225.1 L 59.2,224.2 L 58.3,223.1 L 58.3,221.7 L 57.4,220.2 L 64.3,217.1 L 64.4,217.1 L 64.8,218.0 L 65.9,219.7 L 66.9,220.4 L 67.8,221.0 L 68.4,220.9 L 70.2,219.6 L 71.4,219.2 L 72.2,219.6 L 73.8,221.1 L 75.1,222.9 L 75.4,224.9 L 76.6,226.6 L 78.1,228.3 L 78.6,229.5 L 79.0,231.7 L 80.0,232.8 L 80.0,232.8 L 82.7,232.2 L 82.6,231.8 L 81.6,230.9 L 81.6,230.5 L 82.2,230.4 L 83.2,230.7 L 84.3,229.3 L 85.6,227.7 L 85.9,225.9 L 85.5,225.0 L 83.9,223.5 L 83.2,222.8 L 82.4,221.9 L 80.5,220.8 L 78.4,220.0 L 77.8,218.8 L 76.5,217.0 L 75.5,215.8 L 74.0,214.3 L 72.2,213.1 L 70.8,211.6 L 69.3,210.0 L 68.7,209.1 L 69.0,208.9 L 69.6,208.6 L 69.5,207.9 L 68.9,206.5 L 68.3,205.5 L 68.2,205.5 L 66.6,204.1 L 66.2,203.0 L 65.6,202.3 L 64.8,202.2 L 63.2,203.0 L 63.7,201.5 L 65.3,195.7" fill="none" stroke="black" stroke-width="2"/>
</svg>