<?xml version="1.0" encoding="UTF-8"?>
<svg width="400" height="400" viewBox="0 0 400 400" xmlns="http://www.w3.org/2000/svg">
  <rect width="400" height="400" fill="white"/>
  <path d="M 103.1,306.7 L 102.1,307.1 L 101.1,307.2 L 99.9,306.7 L 99.4,306.6 L 99.4,304.9 L 101.0,302.1 L 100.8,301.2 L 99.4,300.1 L 98.4,297.8 L 95.7,296.6 L 95.3,296.0 L 95.6,295.0 L 94.3,294.3 L 93.4,293.8 L 91.7,292.5 L 89.0,291.8 L 87.7,290.2 L 86.6,290.0 L 86.1,290.0 L 85.6,289.0 L 85.7,287.7 L 86.8,285.7 L 87.3,284.4 L 88.5,282.4 L 89.0,281.8 L 88.2,281.5 L 87.0,281.4 L 85.4,280.1 L 84.5,279.8 L 84.5,278.3 L 85.3,277.1 L 87.3,274.7 L 88.9,273.0 L 91.8,271.6 L 93.7,271.0 L 96.1,272.0 L 97.8,270.4 L 98.8,268.7 L 101.0,266.4 L 100.1,264.9 L 100.6,263.9 L 98.1,261.8 L 97.0,258.7 L 95.6,256.4 L 94.1,253.5 L 91.9,251.1 L 89.2,249.2 L 86.3,247.6 L 83.5,246.1 L 80.8,244.3 L 78.1,243.0 L 77.3,242.4 L 76.5,239.1 L 74.6,237.6 L 71.3,237.0 L 68.4,235.8 L 65.6,234.1 L 62.9,232.2 L 61.0,230.9 L 60.8,230.8 L 59.3,231.7 L 57.1,231.9 L 55.7,231.2 L 54.7,229.4 L 54.4,228.0 L 53.6,227.5 L 51.5,227.7 L 48.3,227.6 L 45.0,227.6 L 41.8,227.3 L 40.3,226.5 L 40.0,224.9 L 40.8,223.7 L 42.2,222.8 L 45.3,222.4 L 46.2,221.4 L 45.9,220.8 L 45.5,220.0 L 46.5,216.8 L 46.0,216.2 L 44.2,215.0 L 43.8,212.8 L 46.6,214.3 L 49.1,216.5 L 50.8,217.7 L 53.0,217.7 L 56.0,219.1 L 58.2,220.8 L 59.4,222.8 L 60.1,225.7 L 61.3,226.9 L 61.5,227.1 L 63.5,227.9 L 64.5,228.8 L 67.3,230.3 L 70.2,231.8 L 72.2,232.5 L 75.2,231.4 L 78.1,230.1 L 81.0,228.3 L 84.0,227.5 L 87.3,228.0 L 89.9,226.1 L 91.1,225.7 L 94.3,226.7 L 95.4,225.6 L 96.9,224.3 L 98.8,226.1 L 98.5,229.4 L 98.6,230.2 L 99.3,230.2 L 100.2,229.9 L 101.0,230.9 L 101.6,231.8 L 104.8,232.7 L 107.9,233.4 L 111.0,233.7 L 111.8,233.1 L 112.4,231.8 L 115.5,230.7 L 117.5,229.8 L 120.4,230.3 L 123.5,229.6 L 126.7,228.6 L 129.7,227.2 L 130.8,227.7 L 131.0,226.5 L 129.2,224.5 L 130.3,222.8 L 131.5,221.4 L 133.2,221.5 L 134.5,222.8 L 137.4,223.2 L 139.4,220.6 L 141.9,218.5 L 143.8,216.5 L 145.4,213.7 L 145.6,210.9 L 147.2,208.1 L 147.9,208.0 L 148.0,208.0 L 150.6,208.6 L 153.0,209.9 L 153.9,212.1 L 156.3,214.2 L 158.1,216.0 L 158.6,217.3 L 159.6,218.0 L 161.1,219.3 L 164.3,220.0 L 166.8,220.3 L 167.9,220.0 L 168.9,220.7 L 169.8,221.9 L 173.0,222.2 L 173.9,222.7 L 175.2,223.3 L 178.4,223.7 L 179.2,223.3 L 180.4,221.2 L 180.2,220.1 L 181.3,218.1 L 182.9,217.5 L 186.0,217.5 L 187.9,217.3 L 189.8,215.4 L 191.6,212.6 L 193.3,209.9 L 193.5,208.2 L 192.5,206.7 L 190.6,205.4 L 189.7,205.0 L 189.5,203.8 L 189.0,203.2 L 189.2,201.6 L 189.2,200.0 L 189.8,199.2 L 193.0,198.5 L 194.6,197.6 L 196.4,196.4 L 199.2,195.6 L 202.0,197.3 L 204.3,199.7 L 205.0,200.4 L 207.6,198.3 L 207.8,197.8 L 207.0,196.5 L 207.5,194.2 L 206.3,193.1 L 204.8,192.7 L 203.1,190.4 L 200.6,188.4 L 198.0,186.2 L 197.6,185.4 L 198.9,182.5 L 199.5,181.6 L 202.3,182.2 L 205.0,183.3 L 205.2,183.0 L 205.3,181.4 L 208.3,180.4 L 210.4,180.5 L 213.6,179.4 L 214.5,179.3 L 217.2,181.2 L 218.9,181.7 L 221.3,179.4 L 221.5,178.2 L 221.1,177.0 L 221.5,176.3 L 223.2,175.9 L 224.4,175.0 L 226.3,175.0 L 227.5,173.6 L 227.8,171.8 L 227.5,171.1 L 229.1,169.5 L 230.7,168.7 L 231.2,167.3 L 231.4,166.5 L 232.0,166.0 L 233.1,166.2 L 234.3,164.8 L 234.7,163.5 L 233.5,160.8 L 231.4,160.4 L 230.7,159.5 L 230.8,158.2 L 232.4,157.2 L 234.9,156.2 L 235.3,154.1 L 235.0,151.4 L 233.6,150.3 L 232.5,148.0 L 230.6,145.4 L 230.5,144.5 L 231.3,142.7 L 231.1,142.0 L 229.2,139.3 L 226.9,137.1 L 224.9,135.0 L 223.7,133.2 L 224.1,128.8 L 223.4,128.5 L 224.2,126.2 L 224.4,122.9 L 225.4,119.7 L 227.3,117.0 L 228.8,115.4 L 231.8,114.3 L 233.7,115.1 L 234.0,116.0 L 236.4,118.1 L 236.8,118.9 L 236.9,120.4 L 238.3,121.8 L 239.5,121.6 L 239.3,121.9 L 239.2,122.5 L 239.5,123.4 L 239.6,125.4 L 240.5,126.0 L 241.5,125.5 L 242.7,128.6 L 243.5,130.1 L 245.6,130.8 L 247.1,129.5 L 247.8,130.2 L 247.2,131.9 L 245.8,133.9 L 248.0,136.4 L 250.2,138.5 L 251.2,137.8 L 254.2,137.8 L 255.0,136.6 L 254.7,135.1 L 254.4,134.0 L 257.0,131.9 L 259.6,130.0 L 261.2,128.4 L 259.4,126.3 L 258.5,123.1 L 258.7,122.7 L 260.1,122.8 L 260.3,120.9 L 261.8,119.8 L 262.3,118.5 L 264.5,116.8 L 264.9,114.2 L 266.2,112.7 L 267.2,111.9 L 266.9,110.6 L 267.3,109.5 L 267.5,108.6 L 267.2,108.3 L 266.9,107.7 L 266.1,106.3 L 265.6,105.8 L 264.6,105.0 L 262.1,102.8 L 262.0,102.2 L 262.2,101.1 L 262.3,100.2 L 261.2,99.6 L 260.8,99.1 L 261.0,98.0 L 260.7,97.3 L 260.0,97.1 L 259.8,96.7 L 258.7,95.0 L 258.8,93.7 L 258.6,91.8 L 258.7,91.0 L 259.1,90.4 L 260.4,90.5 L 261.6,91.5 L 262.8,90.9 L 264.3,90.0 L 265.4,89.4 L 265.9,90.0 L 266.8,89.3 L 268.3,88.2 L 269.6,87.2 L 270.0,87.1 L 271.1,87.8 L 271.7,88.0 L 272.3,87.8 L 272.9,85.6 L 272.6,85.0 L 273.0,84.3 L 272.9,83.9 L 272.2,83.4 L 271.8,82.5 L 271.3,80.8 L 271.2,79.5 L 271.5,78.9 L 271.9,78.0 L 272.2,77.4 L 272.5,77.4 L 272.8,79.0 L 272.9,79.3 L 273.1,81.3 L 273.0,82.5 L 274.1,84.2 L 274.7,84.8 L 275.2,84.9 L 276.0,84.6 L 277.7,84.5 L 278.5,83.8 L 278.6,83.3 L 278.0,82.8 L 277.8,81.8 L 277.4,81.0 L 277.3,80.6 L 277.7,80.0 L 278.6,80.0 L 280.0,80.1 L 280.5,79.8 L 280.6,79.7 L 280.7,79.2 L 279.9,76.3 L 279.8,75.6 L 281.3,73.6 L 281.5,72.1 L 281.9,71.0 L 283.0,69.7 L 283.3,69.0 L 282.7,67.1 L 281.1,66.7 L 280.1,66.4 L 278.4,65.3 L 278.2,64.6 L 278.8,63.3 L 279.2,63.3 L 281.5,63.7 L 282.3,63.6 L 283.0,62.5 L 283.5,62.2 L 285.0,62.4 L 285.2,62.8 L 285.7,63.0 L 286.3,63.5 L 287.1,64.4 L 288.2,64.7 L 290.0,64.2 L 290.6,63.6 L 292.5,61.2 L 294.5,59.7 L 297.3,58.4 L 298.3,58.3 L 299.8,58.8 L 301.3,58.7 L 301.6,58.9 L 302.2,59.0 L 304.3,59.0 L 304.9,57.7 L 305.6,57.2 L 307.6,57.1 L 308.6,57.1 L 309.3,58.2 L 309.7,60.1 L 310.4,60.3 L 312.8,59.6 L 313.8,59.0 L 314.0,58.4 L 313.6,58.0 L 313.9,57.2 L 315.6,57.2 L 317.1,57.5 L 319.0,58.5 L 320.4,59.1 L 321.8,59.4 L 322.1,59.1 L 323.1,59.1 L 324.1,59.9 L 324.9,60.1 L 325.6,59.9 L 327.0,58.7 L 328.1,57.7 L 329.0,57.7 L 330.0,58.0 L 330.6,58.6 L 332.1,61.6 L 332.7,62.3 L 333.7,63.4 L 334.1,65.8 L 333.6,66.3 L 333.2,66.8 L 332.9,67.7 L 332.9,68.4 L 334.4,68.6 L 335.3,68.3 L 335.7,69.0 L 336.4,69.3 L 337.1,68.2 L 338.7,68.2 L 339.4,68.4 L 340.7,70.5 L 341.6,71.6 L 342.0,72.4 L 341.9,72.9 L 341.4,73.4 L 341.0,73.5 L 338.8,72.7 L 336.0,72.2 L 335.3,72.5 L 334.7,73.3 L 334.3,74.3 L 334.3,75.2 L 334.9,76.1 L 334.7,76.6 L 334.3,77.1 L 332.9,77.1 L 332.4,76.6 L 331.9,76.6 L 330.7,76.9 L 330.1,78.0 L 329.5,80.3 L 329.5,81.3 L 329.7,81.8 L 329.4,82.4 L 328.7,83.4 L 328.1,84.0 L 327.4,84.6 L 326.4,85.8 L 324.9,87.9 L 324.3,89.1 L 323.4,90.7 L 323.2,91.4 L 323.6,92.4 L 323.0,93.6 L 322.8,95.0 L 322.9,96.8 L 323.3,97.5 L 323.5,97.7 L 323.9,98.3 L 324.7,98.5 L 325.8,98.3 L 326.9,97.6 L 327.3,97.8 L 327.4,98.3 L 326.2,100.4 L 325.8,101.9 L 326.4,103.0 L 326.7,103.8 L 327.0,104.8 L 327.3,105.0 L 328.7,104.2 L 329.7,102.5 L 331.2,101.2 L 331.6,101.0 L 332.2,101.8 L 333.4,101.9 L 333.4,102.9 L 334.6,103.3 L 334.5,103.8 L 334.5,104.7 L 335.4,104.7 L 336.3,104.3 L 337.4,102.9 L 339.1,102.1 L 339.1,104.1 L 339.4,104.5 L 339.8,104.3 L 342.1,102.0 L 344.6,99.9 L 345.1,99.5 L 348.1,98.2 L 349.7,97.6 L 351.0,96.4 L 352.0,94.6 L 352.2,94.7 L 352.9,94.4 L 353.5,93.7 L 354.0,93.2 L 355.3,93.5 L 355.8,93.3 L 357.1,91.8 L 358.7,92.4 L 359.0,93.1 L 360.0,94.8 L 359.7,95.4 L 359.0,95.8 L 358.9,96.1 L 359.4,97.3 L 359.5,98.1 L 359.2,99.0 L 358.3,100.0 L 357.7,101.7 L 357.3,102.1 L 355.7,104.7 L 354.0,105.6 L 350.9,105.5 L 349.8,107.4 L 348.1,108.2 L 345.6,109.1 L 343.3,110.5 L 341.6,112.3 L 339.4,114.7 L 338.3,115.9 L 337.3,117.1 L 335.4,119.7 L 334.6,121.0 L 334.6,121.1 L 333.5,123.1 L 331.9,125.8 L 330.5,128.8 L 329.3,131.8 L 328.3,135.0 L 327.8,138.1 L 327.8,141.1 L 329.1,144.0 L 331.6,146.2 L 334.4,147.9 L 336.9,149.9 L 339.5,151.8 L 341.5,153.6 L 343.6,156.0 L 345.4,157.8 L 344.9,159.8 L 344.8,160.0 L 344.3,160.2 L 342.5,162.9 L 341.1,162.2 L 338.9,159.9 L 337.0,157.2 L 334.8,154.7 L 332.7,152.3 L 330.1,150.2 L 327.8,148.1 L 325.0,146.4 L 323.2,144.7 L 322.2,142.4 L 321.3,141.2 L 319.9,140.6 L 319.7,140.7 L 316.9,142.1 L 316.0,142.7 L 314.4,145.3 L 311.8,147.4 L 311.0,149.4 L 310.1,150.7 L 307.8,153.1 L 306.9,154.8 L 306.2,157.9 L 305.6,161.2 L 305.2,164.4 L 304.5,166.3 L 303.0,169.0 L 302.3,172.1 L 301.8,175.4 L 300.9,178.5 L 299.6,181.4 L 300.4,183.8 L 302.1,186.6 L 303.8,189.3 L 306.0,191.6 L 308.6,193.6 L 309.2,193.9 L 306.7,202.6 L 306.1,204.8 L 305.6,205.0 L 305.2,205.9 L 304.9,207.9 L 304.4,209.9 L 305.1,213.1 L 305.3,215.4 L 305.1,218.1 L 305.7,221.3 L 307.2,224.2 L 307.9,226.0 L 307.6,226.1 L 297.4,230.7 L 297.4,230.7 L 296.4,229.0 L 297.0,228.3 L 297.5,227.5 L 296.9,226.3 L 294.4,224.1 L 291.7,222.3 L 291.1,221.4 L 291.7,220.3 L 292.3,219.5 L 291.4,218.4 L 288.8,216.4 L 285.9,215.0 L 283.1,214.2 L 280.6,213.1 L 279.6,211.9 L 279.9,210.4 L 279.8,209.7 L 277.3,208.1 L 275.7,208.1 L 274.7,207.8 L 274.1,206.9 L 274.6,206.0 L 273.9,205.2 L 270.6,205.8 L 269.1,205.5 L 268.4,205.5 L 267.7,206.8 L 268.5,207.7 L 268.2,208.5 L 267.2,208.2 L 265.0,206.3 L 262.9,204.7 L 262.0,204.6 L 260.8,206.9 L 259.3,207.7 L 257.7,208.9 L 257.1,208.9 L 254.2,207.5 L 251.5,206.9 L 250.5,206.0 L 249.7,205.4 L 248.3,205.5 L 247.2,206.5 L 247.2,207.8 L 248.3,209.9 L 248.6,210.9 L 248.3,211.5 L 246.2,209.7 L 244.1,207.3 L 241.6,205.6 L 239.0,204.8 L 238.2,205.4 L 236.7,207.9 L 235.7,207.7 L 234.9,206.9 L 235.2,205.4 L 234.3,204.6 L 231.1,204.3 L 228.9,202.9 L 227.7,203.2 L 224.8,204.6 L 221.9,206.2 L 221.5,207.0 L 222.8,210.1 L 224.5,212.7 L 222.5,214.8 L 221.8,216.8 L 222.3,217.8 L 223.2,220.4 L 224.5,223.4 L 226.1,224.7 L 227.7,227.6 L 229.3,229.1 L 229.6,229.6 L 229.1,232.9 L 227.5,233.6 L 224.4,234.2 L 222.9,234.8 L 224.1,237.7 L 223.6,238.6 L 220.8,238.6 L 217.7,237.9 L 215.4,236.7 L 212.9,234.7 L 209.7,234.0 L 207.7,231.4 L 206.1,229.4 L 203.9,228.7 L 201.8,230.0 L 200.2,230.4 L 199.4,231.1 L 199.3,233.1 L 199.9,236.3 L 201.1,239.4 L 200.6,241.8 L 199.3,244.7 L 199.0,246.7 L 199.3,249.9 L 198.8,251.4 L 198.4,252.8 L 198.0,254.2 L 196.6,254.9 L 195.3,254.2 L 193.4,253.2 L 190.4,253.0 L 187.9,253.1 L 184.7,253.4 L 183.2,252.6 L 181.6,251.8 L 180.5,252.6 L 177.8,254.3 L 175.7,254.8 L 172.4,255.1 L 170.5,256.0 L 168.0,258.0 L 166.6,259.7 L 166.1,261.7 L 166.8,262.9 L 169.0,265.2 L 169.0,266.7 L 170.3,268.6 L 171.5,269.4 L 174.0,268.1 L 174.9,268.2 L 175.3,269.7 L 176.8,271.8 L 179.0,274.3 L 181.4,276.5 L 183.9,278.7 L 186.3,280.8 L 188.9,282.7 L 191.7,284.2 L 194.5,285.9 L 197.1,287.8 L 199.9,289.7 L 201.5,290.1 L 203.8,291.1 L 206.3,293.3 L 206.3,294.2 L 207.7,295.6 L 210.1,296.8 L 210.2,298.0 L 211.1,298.2 L 209.0,302.9 L 206.1,302.7 L 203.0,302.4 L 199.9,302.1 L 196.6,301.3 L 193.3,300.8 L 191.6,299.3 L 189.0,298.8 L 188.3,299.2 L 188.1,300.5 L 189.4,302.8 L 189.8,303.9 L 190.2,305.4 L 191.8,308.2 L 194.2,310.4 L 196.7,312.3 L 199.4,314.2 L 201.8,316.3 L 202.8,318.5 L 203.9,321.5 L 203.8,323.5 L 203.7,324.2 L 204.5,326.6 L 206.4,329.2 L 208.3,332.0 L 210.2,334.6 L 212.4,337.1 L 214.5,339.5 L 216.0,341.2 L 214.2,342.9 L 213.8,342.5 L 211.4,340.5 L 208.6,338.7 L 208.3,338.5 L 207.5,337.5 L 204.9,335.5 L 202.1,333.6 L 199.5,331.8 L 196.7,330.1 L 194.1,328.3 L 191.5,326.4 L 188.8,324.8 L 186.0,323.3 L 183.4,321.7 L 183.3,321.6 L 180.5,320.1 L 177.7,318.4 L 178.0,317.7 L 176.8,315.8 L 177.1,314.4 L 176.5,313.4 L 175.0,311.7 L 174.0,310.9 L 172.7,311.0 L 172.2,312.8 L 171.7,314.4 L 172.5,317.2 L 173.6,320.2 L 173.5,320.8 L 173.4,321.6 L 171.7,323.6 L 170.0,324.5 L 168.5,322.1 L 166.0,321.5 L 165.0,320.8 L 164.7,320.0 L 164.0,317.8 L 161.9,315.2 L 159.6,312.8 L 157.5,310.5 L 155.0,308.4 L 152.8,307.4 L 149.6,307.0 L 146.4,307.8 L 143.4,309.0 L 140.3,309.6 L 137.3,310.8 L 135.3,312.3 L 133.5,315.0 L 132.7,317.1 L 132.4,318.0 L 131.3,320.9 L 129.8,323.9 L 129.1,326.9 L 128.7,330.1 L 127.9,330.7 L 125.9,329.9 L 124.1,327.2 L 122.2,324.7 L 122.6,322.7 L 124.2,319.9 L 124.8,317.9 L 124.0,316.3 L 123.8,315.8 L 123.6,314.5 L 124.6,313.4 L 125.0,312.4 L 124.6,310.9 L 123.3,309.4 L 120.5,308.5 L 118.6,307.7 L 116.0,306.7 L 113.6,307.1 L 103.1,306.7" fill="none" stroke="black" stroke-width="2"/>
</svg>