<?xml version="1.0" encoding="UTF-8"?>
<svg width="400" height="400" viewBox="0 0 400 400" xmlns="http://www.w3.org/2000/svg">
  <rect width="400" height="400" fill="white"/>
  <path d="M 90.1,294.5 L 76.5,259.6 L 40.0,165.7 L 103.7,154.5 L 209.6,135.7 L 210.3,135.6 L 210.3,135.7 L 210.6,135.9 L 211.0,135.9 L 211.4,135.7 L 211.6,135.6 L 212.0,135.8 L 212.5,135.7 L 213.7,134.7 L 214.0,134.0 L 214.2,133.1 L 213.8,132.1 L 213.9,131.8 L 214.1,131.7 L 214.5,131.8 L 214.5,132.5 L 214.8,132.8 L 215.0,132.7 L 215.1,131.3 L 215.7,132.1 L 216.0,132.1 L 216.2,131.9 L 216.5,130.8 L 217.1,131.0 L 217.3,130.2 L 217.0,129.1 L 216.8,128.1 L 216.3,127.2 L 215.2,125.7 L 213.7,123.4 L 212.9,122.5 L 213.0,122.0 L 214.3,120.7 L 215.0,120.2 L 215.7,120.1 L 216.0,119.9 L 216.2,119.3 L 216.5,119.1 L 217.9,119.1 L 218.1,119.1 L 219.9,121.0 L 220.4,121.7 L 220.4,122.5 L 220.7,122.4 L 221.1,122.0 L 221.6,121.9 L 222.4,122.1 L 223.0,121.8 L 223.2,121.2 L 223.5,120.9 L 223.9,119.7 L 224.2,119.3 L 224.3,119.5 L 224.4,120.1 L 224.6,120.3 L 224.9,120.3 L 225.2,120.0 L 225.3,119.3 L 225.6,119.2 L 226.3,119.2 L 226.8,118.8 L 226.8,118.1 L 227.2,117.7 L 227.3,117.4 L 227.2,117.3 L 227.2,117.3 L 253.9,111.3 L 254.0,111.3 L 254.0,111.4 L 254.4,112.4 L 254.9,112.9 L 255.3,113.3 L 255.9,113.3 L 256.4,112.9 L 256.6,112.4 L 256.8,112.5 L 257.2,113.1 L 257.3,113.6 L 257.8,114.3 L 258.2,114.5 L 258.5,114.9 L 258.6,115.1 L 258.8,115.3 L 259.1,115.6 L 259.5,115.9 L 260.2,115.9 L 260.4,115.9 L 261.0,115.9 L 261.7,115.7 L 262.4,116.2 L 262.7,116.7 L 263.0,117.2 L 263.8,117.6 L 265.0,117.8 L 265.5,118.0 L 266.0,117.8 L 266.7,118.1 L 267.1,118.6 L 268.0,119.0 L 268.9,119.2 L 270.1,119.7 L 270.7,119.6 L 271.4,119.5 L 271.9,119.1 L 271.7,118.5 L 271.7,117.8 L 271.0,116.6 L 271.0,115.7 L 271.3,115.5 L 271.8,115.6 L 272.6,116.4 L 273.0,117.3 L 273.7,118.3 L 274.0,118.7 L 275.5,119.5 L 277.7,121.0 L 278.4,121.0 L 278.6,120.7 L 278.3,120.0 L 277.4,118.9 L 277.6,118.5 L 277.0,117.7 L 276.5,117.4 L 275.8,116.5 L 275.8,115.6 L 276.4,115.2 L 276.5,114.8 L 276.0,113.9 L 276.1,113.7 L 276.8,113.9 L 277.0,113.7 L 277.0,113.5 L 276.3,113.0 L 275.2,111.4 L 274.6,110.6 L 274.6,110.2 L 274.2,110.1 L 274.1,109.8 L 274.1,109.2 L 274.7,108.8 L 275.6,108.9 L 276.0,109.2 L 276.6,109.9 L 276.8,109.8 L 277.1,108.9 L 277.9,108.3 L 278.1,107.8 L 278.9,107.3 L 279.2,107.2 L 279.4,106.7 L 280.2,106.3 L 281.0,105.9 L 281.3,106.0 L 281.7,106.3 L 281.9,106.8 L 282.4,107.4 L 282.3,108.0 L 282.4,108.8 L 282.6,109.3 L 283.4,109.6 L 283.4,110.1 L 283.6,110.4 L 284.2,110.3 L 284.7,110.1 L 284.9,109.5 L 285.3,108.2 L 285.5,107.3 L 285.8,107.4 L 286.3,108.0 L 286.7,108.0 L 286.8,107.8 L 287.0,107.4 L 287.5,106.9 L 287.7,107.1 L 287.6,107.5 L 287.9,107.5 L 288.2,107.0 L 288.7,107.0 L 288.9,106.7 L 288.9,106.3 L 288.4,105.7 L 288.6,105.5 L 288.9,105.5 L 289.6,105.9 L 290.4,105.8 L 290.7,106.0 L 290.6,106.5 L 290.0,107.5 L 290.4,108.7 L 290.8,108.6 L 291.0,108.9 L 292.0,109.1 L 292.0,109.3 L 291.6,109.6 L 291.0,109.4 L 290.8,109.6 L 290.9,110.6 L 291.6,111.4 L 291.9,111.4 L 292.5,110.8 L 292.6,111.4 L 293.0,111.4 L 293.0,111.9 L 293.2,112.2 L 293.9,112.5 L 294.5,112.4 L 295.3,111.6 L 296.0,111.7 L 296.0,112.3 L 296.2,112.4 L 296.3,112.5 L 296.7,111.8 L 296.9,111.9 L 296.9,112.4 L 296.9,114.5 L 297.1,114.9 L 297.4,114.9 L 298.0,114.2 L 298.2,114.3 L 298.2,116.0 L 298.4,116.3 L 298.6,116.3 L 298.6,116.2 L 305.5,115.3 L 305.5,115.3 L 305.6,115.4 L 305.9,115.5 L 306.0,115.4 L 306.3,115.1 L 306.2,116.0 L 306.3,116.6 L 306.3,117.9 L 306.5,118.5 L 306.8,118.7 L 307.0,119.2 L 307.3,119.9 L 307.5,120.9 L 307.7,121.1 L 307.8,121.7 L 307.9,122.1 L 308.2,122.3 L 308.5,122.2 L 308.7,122.5 L 308.8,123.8 L 308.9,124.1 L 309.3,124.2 L 309.3,125.0 L 309.5,125.2 L 309.7,125.2 L 310.6,124.0 L 310.8,123.5 L 310.8,122.6 L 311.0,122.0 L 311.2,120.9 L 311.2,118.9 L 311.4,118.3 L 311.3,117.3 L 311.4,116.6 L 311.9,113.7 L 312.4,112.6 L 312.4,110.7 L 312.3,110.1 L 312.6,109.9 L 313.2,110.0 L 313.5,110.2 L 313.9,110.8 L 314.0,111.5 L 314.0,112.9 L 314.0,114.2 L 314.3,115.4 L 314.8,116.8 L 315.5,118.2 L 314.9,119.3 L 314.9,120.4 L 315.2,121.7 L 315.4,121.9 L 315.7,121.6 L 316.0,121.9 L 316.5,121.5 L 316.4,123.3 L 316.0,125.2 L 316.2,125.5 L 316.4,125.5 L 316.6,125.0 L 316.6,124.3 L 317.0,123.6 L 317.1,123.8 L 317.0,125.3 L 317.3,126.4 L 318.0,127.2 L 318.6,127.7 L 319.2,127.8 L 319.4,128.0 L 319.4,128.5 L 319.5,129.2 L 319.9,129.9 L 320.1,129.8 L 320.4,129.6 L 320.6,129.8 L 320.9,129.8 L 321.2,130.4 L 321.6,130.2 L 322.1,129.6 L 322.3,129.6 L 322.4,129.9 L 322.4,130.0 L 322.5,130.3 L 322.9,130.3 L 323.2,130.0 L 323.4,129.1 L 323.0,128.1 L 323.1,127.7 L 323.4,127.5 L 323.5,127.8 L 323.3,128.3 L 323.8,129.0 L 323.8,129.8 L 323.6,130.7 L 323.9,131.3 L 324.1,130.8 L 324.4,130.6 L 325.0,130.8 L 325.3,131.6 L 326.1,132.0 L 326.6,131.8 L 326.9,131.6 L 327.1,131.7 L 328.0,132.4 L 328.3,132.3 L 328.7,131.8 L 328.7,131.1 L 329.1,130.6 L 329.3,129.7 L 329.7,128.9 L 329.8,127.8 L 329.7,126.7 L 329.8,125.9 L 330.2,125.4 L 330.0,124.5 L 330.2,124.2 L 330.5,124.6 L 331.2,124.0 L 331.6,123.3 L 331.7,122.3 L 331.6,121.6 L 331.8,121.2 L 332.1,120.9 L 332.9,120.9 L 333.3,121.0 L 333.6,121.3 L 333.9,122.1 L 333.6,122.5 L 333.4,123.7 L 333.5,124.0 L 333.4,124.8 L 333.6,125.4 L 334.6,126.5 L 335.0,127.2 L 335.6,127.7 L 336.1,127.6 L 336.4,127.3 L 336.3,127.2 L 336.5,127.0 L 337.0,126.9 L 337.0,126.5 L 336.9,126.2 L 337.0,125.8 L 337.3,125.5 L 337.5,125.7 L 337.5,126.2 L 337.7,126.5 L 338.1,126.0 L 338.2,126.2 L 338.3,126.7 L 338.7,127.2 L 339.1,127.2 L 339.3,126.6 L 339.5,126.4 L 339.3,126.0 L 339.0,125.9 L 339.0,125.5 L 339.2,125.5 L 339.5,125.8 L 339.8,125.9 L 340.0,126.5 L 340.3,126.7 L 340.6,126.7 L 340.7,126.2 L 340.6,125.9 L 340.3,125.6 L 340.4,125.0 L 340.1,124.8 L 340.0,124.7 L 340.1,124.6 L 340.4,124.9 L 341.0,124.5 L 341.3,124.5 L 341.9,126.5 L 342.3,127.0 L 343.3,127.9 L 343.8,128.0 L 344.9,128.4 L 345.3,128.8 L 345.8,130.0 L 346.6,130.9 L 346.6,131.5 L 346.4,132.1 L 346.5,132.4 L 346.6,132.9 L 347.0,133.3 L 347.5,134.9 L 347.9,135.1 L 348.3,135.6 L 348.6,135.6 L 349.0,134.9 L 349.2,135.2 L 349.4,135.8 L 349.7,136.5 L 349.8,136.6 L 350.0,136.5 L 349.9,135.9 L 350.1,135.7 L 350.4,136.6 L 350.5,136.7 L 350.5,136.7 L 360.0,193.3 L 325.6,199.8 L 310.0,202.7 L 209.6,244.6 L 114.9,284.1 L 90.1,294.5" fill="none" stroke="black" stroke-width="2"/>
</svg>