<?xml version="1.0" encoding="UTF-8"?>
<svg width="400" height="400" viewBox="0 0 400 400" xmlns="http://www.w3.org/2000/svg">
  <rect width="400" height="400" fill="white"/>
  <path d="M 41.4,256.4 L 42.5,256.3 L 44.0,255.8 L 44.5,255.2 L 44.4,253.3 L 45.2,252.9 L 45.4,253.0 L 45.7,253.4 L 45.9,253.4 L 45.7,252.6 L 45.4,251.9 L 45.6,251.4 L 46.1,251.2 L 46.2,251.3 L 46.3,252.0 L 46.4,252.2 L 47.0,252.2 L 47.6,252.9 L 48.2,252.7 L 50.0,251.3 L 50.2,251.0 L 50.0,250.2 L 50.0,249.6 L 51.3,247.8 L 51.7,246.7 L 50.9,245.9 L 50.1,245.8 L 49.2,246.2 L 48.2,246.5 L 47.8,246.4 L 47.7,246.0 L 48.2,245.5 L 50.0,244.7 L 51.0,243.8 L 51.7,242.7 L 51.8,241.9 L 51.4,240.0 L 51.4,238.2 L 51.6,237.9 L 54.0,236.8 L 54.8,235.9 L 55.2,235.2 L 55.1,234.4 L 54.5,232.8 L 54.8,231.4 L 55.7,229.3 L 56.7,228.8 L 57.5,228.7 L 58.1,227.8 L 59.6,227.1 L 60.2,227.2 L 61.2,228.3 L 61.6,228.4 L 62.3,228.1 L 64.6,226.9 L 67.1,225.8 L 68.3,225.3 L 68.5,224.8 L 68.4,223.9 L 68.8,223.3 L 69.3,223.3 L 70.0,223.4 L 70.3,223.1 L 71.2,222.1 L 71.7,221.0 L 71.4,219.8 L 70.9,218.0 L 69.2,215.6 L 68.8,215.0 L 69.1,214.1 L 69.9,212.4 L 70.3,212.7 L 71.9,214.3 L 72.4,214.1 L 73.0,213.3 L 73.4,212.6 L 73.9,212.3 L 74.7,212.6 L 75.6,213.1 L 76.6,212.8 L 78.2,211.8 L 79.3,211.4 L 80.4,210.5 L 81.8,208.2 L 82.6,206.0 L 83.4,203.5 L 83.8,200.9 L 84.7,199.5 L 85.0,199.5 L 86.2,201.4 L 87.3,202.8 L 87.1,205.5 L 87.3,206.3 L 88.0,207.5 L 89.0,207.4 L 90.4,206.4 L 91.7,205.9 L 93.0,205.5 L 93.7,204.7 L 94.1,203.8 L 94.3,202.7 L 94.0,201.9 L 93.1,201.1 L 91.2,199.2 L 90.3,199.1 L 89.1,199.2 L 88.3,199.7 L 87.2,200.8 L 86.6,200.4 L 86.0,199.5 L 84.9,197.1 L 84.6,195.5 L 84.3,192.9 L 84.3,191.7 L 84.5,190.2 L 85.5,188.9 L 86.3,187.9 L 87.6,188.0 L 88.8,190.1 L 90.0,191.4 L 91.9,192.6 L 94.1,193.7 L 94.8,194.1 L 95.0,194.3 L 95.5,194.4 L 96.5,193.3 L 95.8,192.6 L 96.7,191.1 L 97.6,191.3 L 97.7,190.6 L 97.2,190.5 L 97.3,189.7 L 96.9,188.8 L 95.9,187.8 L 96.5,186.6 L 97.1,182.6 L 98.0,182.4 L 99.0,181.5 L 100.9,180.8 L 102.2,180.3 L 102.9,180.1 L 103.2,180.1 L 103.8,180.2 L 104.4,179.8 L 105.7,178.6 L 106.1,178.3 L 106.6,178.1 L 106.7,178.0 L 107.8,176.9 L 108.4,176.9 L 109.0,177.2 L 109.5,176.9 L 109.7,176.5 L 110.3,174.4 L 111.1,172.7 L 112.7,172.3 L 114.1,170.6 L 114.7,169.5 L 115.6,166.9 L 116.8,165.8 L 118.4,164.0 L 119.9,163.7 L 120.9,162.8 L 122.4,164.0 L 123.2,164.5 L 122.9,165.4 L 122.0,166.5 L 121.5,167.6 L 121.0,168.8 L 119.7,170.9 L 120.1,174.2 L 120.4,176.7 L 121.0,178.3 L 121.5,178.9 L 122.1,179.1 L 122.8,179.0 L 124.4,178.3 L 127.0,177.5 L 128.6,177.0 L 131.0,176.4 L 133.3,175.7 L 135.4,175.1 L 135.8,175.6 L 136.8,176.6 L 137.0,176.6 L 138.4,175.6 L 138.0,175.2 L 138.0,174.7 L 139.0,173.9 L 140.8,172.6 L 143.0,171.0 L 143.9,170.2 L 144.2,169.1 L 144.3,166.5 L 143.8,165.1 L 143.2,164.0 L 142.6,163.4 L 141.4,161.1 L 140.9,160.8 L 140.3,160.1 L 140.8,159.8 L 140.5,159.1 L 139.6,158.1 L 138.5,157.0 L 138.7,156.7 L 139.0,156.8 L 141.1,155.0 L 141.9,154.3 L 142.1,155.0 L 143.1,157.3 L 143.7,158.4 L 144.4,160.1 L 145.0,161.5 L 145.7,163.0 L 146.7,165.3 L 147.9,167.7 L 148.2,168.4 L 148.5,169.3 L 149.1,169.6 L 151.5,169.9 L 154.3,170.3 L 154.9,169.8 L 156.2,168.7 L 157.4,168.1 L 159.6,166.7 L 160.4,166.2 L 161.2,164.7 L 162.1,162.9 L 163.4,160.6 L 164.8,158.1 L 166.1,155.8 L 166.1,155.8 L 167.3,153.6 L 167.9,152.6 L 167.0,151.9 L 167.0,150.4 L 168.6,149.6 L 169.7,148.7 L 170.5,148.3 L 170.8,148.0 L 170.8,146.7 L 171.1,146.7 L 172.1,146.7 L 173.0,146.2 L 174.1,145.5 L 174.3,145.6 L 174.8,146.0 L 175.4,146.1 L 177.4,146.3 L 178.1,146.4 L 178.4,146.4 L 178.3,147.3 L 178.3,148.2 L 178.8,148.5 L 181.4,149.1 L 182.1,149.1 L 182.3,148.0 L 180.2,147.2 L 179.8,147.1 L 179.7,146.7 L 179.9,146.1 L 181.7,145.8 L 184.3,145.4 L 184.7,145.2 L 184.7,144.1 L 186.1,144.0 L 188.9,142.7 L 189.0,141.6 L 190.5,141.3 L 192.4,141.2 L 192.9,140.3 L 194.2,140.2 L 194.7,140.4 L 194.9,140.8 L 195.1,141.0 L 196.2,140.8 L 196.3,140.1 L 196.9,139.7 L 198.7,139.1 L 200.8,140.5 L 201.1,140.8 L 201.8,142.0 L 202.7,143.5 L 203.2,143.7 L 204.5,143.7 L 204.9,143.2 L 207.3,142.9 L 208.2,142.9 L 209.0,142.6 L 210.5,141.9 L 212.5,140.0 L 213.2,139.8 L 214.3,139.9 L 215.6,140.2 L 215.8,140.0 L 215.8,139.7 L 215.9,139.1 L 216.0,138.3 L 216.4,137.4 L 217.2,137.1 L 217.9,136.8 L 219.1,135.9 L 220.0,134.8 L 220.8,134.0 L 221.7,132.4 L 223.6,130.6 L 224.4,130.0 L 225.8,128.8 L 226.9,128.0 L 227.6,127.5 L 227.9,126.6 L 229.6,125.1 L 231.3,123.1 L 231.5,122.7 L 231.1,122.1 L 230.8,121.3 L 230.9,120.9 L 231.9,120.1 L 233.7,118.5 L 235.5,116.7 L 237.5,115.4 L 238.1,115.4 L 238.7,115.8 L 239.1,117.5 L 238.9,118.5 L 238.9,120.2 L 239.1,120.8 L 239.5,121.0 L 240.1,120.9 L 240.3,121.0 L 240.9,121.1 L 242.9,120.2 L 243.5,119.6 L 243.8,117.9 L 244.9,116.1 L 245.9,115.3 L 246.4,114.8 L 246.4,113.0 L 246.6,112.3 L 247.4,111.6 L 248.4,111.2 L 249.2,110.6 L 249.7,110.3 L 251.1,110.7 L 251.6,110.1 L 252.0,110.1 L 252.0,110.8 L 251.8,111.5 L 251.7,112.4 L 251.8,112.9 L 252.3,113.1 L 253.2,113.1 L 254.3,112.3 L 256.5,110.7 L 258.6,109.1 L 259.6,109.2 L 260.3,107.6 L 260.8,107.2 L 261.8,107.0 L 262.4,106.9 L 262.9,106.3 L 263.7,104.9 L 265.0,103.8 L 265.6,103.3 L 265.7,102.8 L 265.5,102.4 L 263.4,101.5 L 263.0,101.1 L 262.6,99.2 L 262.2,99.0 L 261.9,98.6 L 262.0,98.0 L 262.8,95.4 L 262.8,94.8 L 262.3,94.2 L 260.9,93.5 L 260.5,93.1 L 260.6,92.6 L 261.3,91.8 L 262.7,89.7 L 264.0,87.4 L 264.8,86.1 L 265.1,85.9 L 266.8,87.9 L 267.6,88.6 L 268.2,88.8 L 269.2,88.1 L 269.5,87.4 L 270.1,84.8 L 270.2,83.1 L 269.9,81.8 L 269.8,81.8 L 269.4,81.3 L 267.6,80.7 L 266.9,80.3 L 266.6,79.9 L 266.7,78.4 L 267.0,75.8 L 267.6,73.3 L 268.3,71.0 L 268.9,70.2 L 269.2,70.0 L 271.0,68.8 L 271.5,68.8 L 272.7,70.2 L 273.2,70.5 L 273.8,70.4 L 274.9,69.3 L 276.9,67.6 L 277.5,67.5 L 278.2,68.1 L 278.2,70.0 L 277.8,71.4 L 277.5,72.9 L 277.0,75.5 L 276.7,77.3 L 276.8,78.0 L 277.4,78.5 L 278.2,79.4 L 278.7,80.7 L 279.2,82.6 L 279.2,82.8 L 279.5,84.0 L 280.3,85.1 L 280.6,86.2 L 281.4,87.8 L 281.5,88.9 L 281.7,89.9 L 282.5,91.4 L 282.8,91.8 L 283.5,91.9 L 284.4,91.5 L 285.4,91.0 L 286.0,91.0 L 286.5,91.5 L 286.8,92.5 L 287.4,92.7 L 287.6,93.3 L 287.7,95.4 L 287.7,98.0 L 287.5,98.8 L 286.4,99.5 L 285.6,100.2 L 284.9,101.6 L 284.7,102.9 L 284.9,103.7 L 285.6,104.5 L 286.3,104.7 L 287.0,105.1 L 287.8,105.2 L 288.8,104.8 L 290.5,105.1 L 290.6,105.5 L 291.6,106.8 L 292.0,107.1 L 292.8,106.5 L 293.4,106.0 L 293.8,106.7 L 294.2,107.1 L 294.6,107.1 L 295.5,106.5 L 296.7,105.5 L 297.3,105.3 L 297.5,105.5 L 297.0,106.2 L 295.1,107.3 L 294.6,107.6 L 292.7,109.2 L 292.3,109.7 L 292.1,110.6 L 292.3,111.1 L 292.8,111.2 L 293.9,110.9 L 294.4,110.7 L 296.5,109.1 L 299.0,107.3 L 299.8,108.4 L 300.8,108.1 L 303.1,106.6 L 303.3,106.4 L 303.1,106.0 L 304.0,105.2 L 306.3,103.8 L 308.5,102.3 L 309.8,101.2 L 312.0,99.8 L 312.5,99.8 L 314.2,98.7 L 313.7,98.0 L 314.8,97.4 L 315.3,96.8 L 315.3,96.1 L 314.9,94.5 L 313.9,92.1 L 313.4,91.0 L 313.9,89.3 L 314.4,86.6 L 314.8,85.9 L 315.0,85.8 L 316.0,85.4 L 317.0,84.8 L 317.2,84.5 L 318.2,83.1 L 318.9,82.2 L 319.6,81.4 L 321.0,81.0 L 323.4,79.8 L 326.0,79.0 L 326.5,79.4 L 327.0,80.1 L 326.9,80.9 L 326.6,82.1 L 325.2,84.2 L 324.7,84.6 L 323.1,85.3 L 322.3,85.9 L 321.6,86.4 L 321.3,86.6 L 320.9,87.1 L 319.8,88.8 L 319.6,89.5 L 319.9,90.8 L 320.1,92.5 L 319.9,93.7 L 320.1,94.2 L 320.2,94.5 L 319.4,94.9 L 319.3,95.3 L 319.5,95.7 L 320.1,95.9 L 321.1,95.5 L 321.8,95.2 L 322.2,95.8 L 322.8,97.4 L 323.3,98.5 L 323.8,99.0 L 325.9,99.2 L 326.2,99.5 L 327.7,101.2 L 328.1,101.4 L 330.3,100.0 L 331.1,99.8 L 332.8,99.3 L 333.9,99.1 L 334.4,99.2 L 334.6,100.4 L 334.7,100.6 L 335.3,100.6 L 336.7,100.3 L 337.4,99.9 L 338.4,98.6 L 338.6,97.9 L 338.6,95.5 L 339.4,94.3 L 339.6,93.7 L 339.5,92.9 L 338.5,92.4 L 338.2,91.7 L 337.8,90.9 L 336.9,90.1 L 336.7,89.8 L 336.9,89.7 L 337.7,89.9 L 338.9,90.1 L 341.2,89.8 L 342.2,89.9 L 342.7,89.6 L 342.7,89.1 L 343.9,88.4 L 344.3,88.2 L 345.8,88.0 L 346.7,88.4 L 347.6,88.5 L 348.8,88.1 L 349.5,87.6 L 349.8,87.0 L 349.8,85.6 L 350.0,85.0 L 350.7,84.8 L 351.8,85.3 L 353.0,85.2 L 355.6,85.6 L 356.5,85.9 L 359.9,103.3 L 360.0,104.0 L 359.6,104.2 L 358.0,105.5 L 356.1,107.3 L 354.6,108.6 L 353.4,109.1 L 352.6,109.3 L 351.7,108.8 L 351.2,109.0 L 351.1,109.3 L 351.0,109.7 L 350.5,109.8 L 349.7,109.5 L 348.7,110.0 L 348.2,110.1 L 347.8,110.6 L 347.6,113.3 L 347.3,114.8 L 346.8,115.7 L 344.7,117.3 L 343.2,119.5 L 342.2,121.0 L 341.2,121.3 L 340.9,121.4 L 340.2,121.2 L 339.7,120.5 L 338.6,118.7 L 338.0,118.4 L 337.2,118.4 L 336.7,118.7 L 336.4,119.7 L 336.5,121.4 L 336.8,122.1 L 337.6,122.7 L 337.6,123.3 L 336.5,125.7 L 336.1,127.6 L 336.2,129.0 L 336.5,130.1 L 337.9,132.2 L 339.5,134.1 L 339.6,135.8 L 339.1,138.0 L 339.0,139.4 L 338.2,141.1 L 338.1,142.4 L 338.6,143.3 L 339.5,144.4 L 340.6,145.2 L 340.8,146.4 L 340.7,148.1 L 340.2,150.7 L 339.3,153.2 L 339.0,154.5 L 339.2,155.1 L 339.6,156.0 L 339.7,158.6 L 340.2,159.8 L 340.4,160.9 L 340.4,162.1 L 339.9,164.7 L 339.4,167.3 L 339.0,168.5 L 338.3,169.6 L 337.3,170.1 L 336.7,170.2 L 336.2,169.8 L 334.5,167.8 L 334.1,166.8 L 334.6,164.2 L 334.7,161.6 L 334.9,160.8 L 336.6,158.7 L 336.8,157.4 L 337.4,155.1 L 338.0,154.4 L 337.9,154.0 L 336.8,152.6 L 336.3,151.3 L 336.1,150.3 L 335.6,149.3 L 335.4,148.4 L 334.8,148.0 L 334.1,147.6 L 333.5,146.7 L 332.2,145.9 L 331.6,145.0 L 330.8,143.4 L 330.9,142.8 L 330.9,142.5 L 330.8,141.8 L 330.4,141.2 L 330.3,140.8 L 329.9,140.5 L 329.9,140.2 L 330.4,140.1 L 330.5,139.4 L 330.4,137.8 L 330.5,135.8 L 330.3,133.1 L 329.9,131.6 L 329.6,131.1 L 328.6,130.4 L 328.1,129.2 L 326.8,128.3 L 324.3,127.4 L 322.0,126.3 L 319.6,125.0 L 318.7,124.5 L 317.2,124.5 L 314.6,124.9 L 313.6,124.9 L 312.0,125.0 L 309.7,125.6 L 308.5,126.2 L 307.9,126.9 L 307.7,127.6 L 307.6,128.2 L 306.9,128.8 L 306.1,129.1 L 305.2,129.2 L 304.8,129.3 L 303.5,129.4 L 301.6,130.0 L 299.8,130.7 L 297.1,130.8 L 295.4,130.7 L 294.8,131.1 L 292.8,132.9 L 291.1,134.7 L 289.7,135.3 L 288.5,135.1 L 286.8,134.3 L 285.4,133.5 L 283.5,132.8 L 282.5,133.0 L 281.1,133.6 L 280.4,134.5 L 279.2,136.3 L 278.7,137.8 L 278.1,139.8 L 277.1,142.2 L 276.1,144.6 L 275.6,146.1 L 274.1,148.4 L 273.5,149.6 L 272.3,150.9 L 271.3,151.8 L 269.6,153.1 L 269.1,153.5 L 268.4,155.0 L 267.7,157.5 L 267.0,159.1 L 266.0,160.5 L 264.1,162.4 L 262.6,163.7 L 261.0,164.3 L 260.4,164.6 L 259.0,165.1 L 258.5,165.6 L 257.7,167.3 L 256.1,168.8 L 255.2,169.8 L 254.9,170.8 L 254.9,173.4 L 254.6,174.1 L 253.7,175.4 L 253.4,176.3 L 253.4,177.0 L 253.1,177.6 L 251.8,178.3 L 249.7,179.4 L 249.0,180.2 L 248.4,181.1 L 247.2,182.6 L 245.9,184.7 L 245.0,186.7 L 244.1,187.6 L 243.0,188.2 L 241.4,188.4 L 240.6,188.3 L 240.0,187.7 L 239.8,187.0 L 240.0,185.4 L 240.7,183.0 L 240.8,181.5 L 241.0,180.2 L 241.6,178.2 L 242.1,176.9 L 242.1,175.0 L 242.2,173.6 L 241.7,172.2 L 241.5,171.9 L 240.5,172.0 L 239.9,171.6 L 239.1,170.4 L 239.0,169.6 L 239.3,168.4 L 239.7,166.7 L 239.4,165.4 L 239.0,165.0 L 238.4,165.0 L 236.6,165.4 L 236.3,166.0 L 236.2,166.6 L 235.1,167.0 L 234.3,167.0 L 233.9,166.6 L 233.4,165.9 L 232.1,164.9 L 231.0,164.1 L 229.1,163.2 L 228.0,162.7 L 227.1,161.8 L 226.7,161.2 L 226.2,160.6 L 225.4,160.2 L 224.7,159.9 L 223.3,159.7 L 222.3,158.8 L 221.8,158.3 L 221.3,158.5 L 219.1,160.1 L 219.1,160.4 L 219.3,160.6 L 219.4,160.7 L 218.7,161.1 L 217.5,161.7 L 215.3,163.1 L 214.3,163.9 L 213.5,164.5 L 214.0,165.0 L 213.2,165.6 L 211.1,166.7 L 210.3,167.0 L 209.7,166.8 L 209.4,165.9 L 208.9,164.4 L 208.2,164.1 L 207.4,164.0 L 206.6,163.7 L 206.4,163.8 L 206.0,164.2 L 205.4,164.1 L 202.9,163.1 L 201.9,163.2 L 200.4,163.9 L 199.8,163.8 L 197.7,164.7 L 196.1,166.0 L 195.4,165.7 L 194.6,165.4 L 193.5,164.9 L 193.5,165.0 L 193.1,166.5 L 192.8,166.0 L 192.2,165.2 L 192.0,165.4 L 191.4,164.7 L 191.1,164.7 L 190.6,165.0 L 190.3,165.6 L 190.3,168.0 L 190.7,170.6 L 190.6,172.6 L 190.0,174.2 L 190.1,175.4 L 190.5,178.0 L 190.8,180.1 L 191.0,181.4 L 191.4,183.5 L 191.8,186.1 L 192.0,187.9 L 192.3,188.7 L 192.8,189.5 L 192.8,190.8 L 192.3,192.0 L 192.3,192.7 L 192.6,193.4 L 192.5,196.1 L 192.5,198.7 L 192.6,199.7 L 192.7,200.4 L 192.4,201.4 L 192.8,201.5 L 193.0,201.3 L 193.5,200.5 L 196.1,200.6 L 198.0,200.5 L 199.5,198.9 L 200.7,198.2 L 201.2,197.9 L 201.7,197.0 L 202.6,196.6 L 202.9,195.6 L 202.9,193.1 L 202.9,190.4 L 203.0,188.0 L 203.4,187.3 L 203.9,186.4 L 204.0,185.3 L 203.7,182.6 L 203.9,182.2 L 204.6,182.0 L 205.5,182.1 L 207.5,183.9 L 209.9,184.8 L 211.1,185.5 L 211.5,185.9 L 211.5,186.6 L 211.1,188.1 L 211.0,190.7 L 211.1,193.1 L 211.6,194.8 L 211.5,196.1 L 210.5,198.1 L 209.7,199.8 L 208.1,201.8 L 206.7,204.1 L 205.3,206.4 L 203.9,208.5 L 202.5,210.8 L 201.5,212.4 L 200.7,214.5 L 200.5,217.1 L 200.8,218.5 L 201.0,219.9 L 200.6,222.5 L 200.3,224.8 L 200.7,227.4 L 200.9,230.0 L 200.7,232.4 L 200.5,234.0 L 200.7,235.9 L 201.1,238.5 L 201.0,239.9 L 200.9,242.4 L 201.1,243.5 L 201.4,244.4 L 201.5,247.1 L 201.4,249.7 L 201.1,252.3 L 200.9,254.9 L 200.8,257.2 L 201.0,259.3 L 200.6,259.7 L 198.6,259.9 L 197.6,259.9 L 197.5,260.4 L 197.6,261.5 L 198.3,261.4 L 198.5,260.7 L 199.4,260.9 L 199.9,261.2 L 200.2,262.0 L 199.6,262.9 L 199.2,264.2 L 199.1,264.4 L 199.3,265.1 L 199.4,265.7 L 199.3,266.3 L 198.5,266.4 L 198.4,266.1 L 198.2,264.2 L 198.0,264.1 L 197.7,264.2 L 197.5,264.8 L 197.6,267.0 L 197.8,267.4 L 198.7,267.4 L 199.4,267.5 L 199.7,268.2 L 200.4,270.8 L 200.7,273.3 L 200.9,275.9 L 201.1,277.8 L 201.2,278.4 L 201.4,281.1 L 201.5,283.7 L 201.7,286.3 L 202.0,289.0 L 202.3,291.5 L 202.3,293.2 L 201.8,295.8 L 201.5,297.5 L 201.4,299.9 L 201.0,302.4 L 200.9,303.5 L 201.5,306.0 L 201.7,307.9 L 201.3,309.0 L 201.0,309.3 L 200.8,309.1 L 200.5,308.7 L 199.9,308.8 L 199.4,309.4 L 199.0,311.3 L 198.5,313.9 L 198.7,314.7 L 199.1,315.4 L 199.6,315.7 L 200.7,315.5 L 201.7,314.6 L 202.3,314.7 L 202.7,315.1 L 202.7,316.1 L 202.4,316.9 L 202.5,317.8 L 202.2,318.2 L 202.0,318.5 L 201.9,319.4 L 202.0,321.2 L 202.6,322.6 L 202.6,323.7 L 198.9,325.5 L 187.4,331.4 L 185.1,332.5 L 185.2,332.5 L 185.4,331.9 L 185.6,331.3 L 185.1,330.2 L 184.1,328.3 L 183.4,328.0 L 183.1,327.8 L 182.8,328.8 L 182.4,328.7 L 181.8,326.4 L 181.1,325.4 L 180.9,325.2 L 180.8,324.7 L 180.6,324.3 L 181.7,323.1 L 181.4,322.6 L 181.3,322.4 L 181.1,321.9 L 180.0,317.9 L 179.5,317.6 L 179.1,317.3 L 178.6,316.0 L 178.3,314.5 L 177.8,313.0 L 177.6,311.8 L 178.0,309.4 L 178.3,306.7 L 179.0,305.3 L 179.6,302.8 L 179.9,300.2 L 179.8,298.4 L 179.1,295.9 L 178.5,294.8 L 178.3,294.2 L 178.9,293.4 L 179.1,292.9 L 178.7,291.8 L 177.5,289.5 L 177.7,287.8 L 177.6,285.2 L 177.2,284.4 L 176.3,283.5 L 175.7,282.6 L 175.4,281.2 L 174.7,279.9 L 174.4,279.5 L 173.6,278.3 L 172.4,276.2 L 171.8,275.3 L 171.3,275.1 L 171.1,275.0 L 170.6,274.7 L 170.4,274.1 L 170.7,271.4 L 170.6,270.8 L 170.2,270.3 L 169.3,270.6 L 169.1,270.5 L 169.4,269.7 L 169.4,269.1 L 169.1,268.8 L 168.2,267.6 L 167.7,267.0 L 166.7,266.7 L 164.9,264.8 L 164.4,264.6 L 163.4,265.0 L 162.3,264.9 L 161.9,265.3 L 161.5,266.9 L 161.1,267.2 L 160.5,267.2 L 160.2,266.7 L 160.0,265.2 L 159.6,263.5 L 159.4,262.2 L 159.5,262.0 L 159.9,262.1 L 161.2,262.3 L 162.1,261.9 L 162.5,261.5 L 162.8,260.4 L 162.3,258.1 L 162.5,257.7 L 163.2,257.2 L 163.8,256.8 L 164.4,254.7 L 164.7,252.1 L 164.8,249.4 L 164.4,246.8 L 164.7,245.8 L 165.2,244.7 L 165.6,243.7 L 165.6,243.0 L 164.9,241.9 L 164.5,240.9 L 164.6,239.2 L 164.4,238.9 L 164.0,238.7 L 163.0,239.2 L 161.4,240.6 L 160.9,241.7 L 159.8,243.8 L 158.5,246.0 L 157.5,247.4 L 156.2,248.6 L 154.8,249.4 L 153.8,249.6 L 153.2,249.4 L 152.2,248.4 L 151.8,247.7 L 151.6,246.8 L 151.5,245.7 L 151.2,243.4 L 151.0,240.7 L 150.9,238.8 L 151.3,237.1 L 151.6,235.1 L 152.1,233.7 L 153.2,231.2 L 153.4,230.1 L 153.1,229.1 L 151.4,227.1 L 150.5,225.2 L 149.5,222.7 L 149.5,221.9 L 150.1,220.4 L 150.4,218.6 L 150.8,217.4 L 151.8,215.7 L 152.9,213.5 L 153.1,212.4 L 152.7,210.7 L 152.7,209.8 L 153.5,208.7 L 154.5,206.9 L 156.0,204.8 L 156.5,203.7 L 156.3,202.0 L 155.7,200.8 L 154.1,198.6 L 152.6,196.5 L 152.1,196.1 L 151.5,196.2 L 151.1,195.3 L 151.2,194.6 L 150.8,194.3 L 149.8,194.0 L 147.2,193.4 L 146.7,193.5 L 146.1,194.3 L 146.0,194.8 L 146.3,195.2 L 147.4,195.6 L 147.6,195.8 L 147.2,197.3 L 147.0,197.8 L 144.9,197.7 L 144.4,197.9 L 144.2,198.7 L 144.4,199.4 L 144.8,199.5 L 146.6,199.7 L 147.2,199.7 L 147.8,201.9 L 147.6,202.5 L 146.4,203.9 L 144.2,205.5 L 143.1,206.0 L 142.4,205.4 L 141.8,205.3 L 141.4,205.4 L 140.5,206.9 L 140.4,209.5 L 140.3,212.2 L 140.5,213.6 L 139.5,214.0 L 137.3,214.8 L 135.3,215.5 L 134.5,215.7 L 133.8,215.4 L 132.5,214.2 L 132.1,213.5 L 131.9,212.7 L 132.9,212.1 L 134.2,211.0 L 135.4,209.4 L 135.6,208.8 L 135.8,208.2 L 135.5,207.5 L 133.7,205.9 L 131.8,204.7 L 129.6,204.4 L 129.5,203.3 L 129.4,202.6 L 128.1,201.6 L 127.1,200.6 L 125.6,199.4 L 123.9,198.7 L 122.8,198.4 L 121.6,198.8 L 120.3,199.7 L 118.4,201.5 L 116.3,203.1 L 114.3,204.1 L 113.3,204.9 L 112.8,205.8 L 112.4,207.5 L 112.3,207.7 L 111.2,208.0 L 109.6,210.0 L 108.4,212.2 L 107.8,213.1 L 106.2,214.1 L 104.0,215.5 L 103.3,215.7 L 102.1,216.2 L 99.7,217.1 L 97.2,218.0 L 95.6,218.8 L 94.3,219.1 L 92.5,218.2 L 92.6,217.0 L 92.4,216.9 L 91.6,217.5 L 91.1,217.6 L 89.6,217.0 L 87.7,215.6 L 87.5,215.2 L 87.2,215.1 L 86.5,215.4 L 85.2,216.4 L 84.0,217.3 L 82.1,219.1 L 80.3,221.0 L 79.0,222.1 L 78.2,222.9 L 77.6,224.2 L 77.5,225.3 L 78.1,226.6 L 78.9,227.9 L 79.1,228.7 L 78.7,229.3 L 77.6,230.7 L 77.3,231.5 L 76.5,232.2 L 75.8,233.0 L 75.3,234.5 L 74.8,237.2 L 74.5,238.1 L 73.7,239.6 L 71.7,241.4 L 70.3,242.1 L 67.8,243.0 L 65.1,244.3 L 63.7,244.9 L 63.4,245.0 L 62.5,245.6 L 61.3,246.5 L 60.4,246.9 L 59.3,247.5 L 57.2,249.0 L 55.8,249.8 L 53.4,250.8 L 51.8,251.6 L 50.9,252.5 L 49.5,253.9 L 48.2,256.0 L 47.7,256.7 L 46.5,257.0 L 43.9,257.1 L 42.8,257.4 L 41.0,258.7 L 40.0,259.7 L 40.3,259.0" fill="none" stroke="black" stroke-width="2"/>
</svg>