<?xml version="1.0" encoding="UTF-8"?>
<svg width="400" height="400" viewBox="0 0 400 400" xmlns="http://www.w3.org/2000/svg">
  <rect width="400" height="400" fill="white"/>
  <path d="M 167.4,220.3 L 168.5,219.3 L 169.4,218.9 L 170.3,218.8 L 172.3,216.9 L 173.6,217.7 L 174.5,217.6 L 175.0,215.6 L 175.3,214.8 L 175.0,213.4 L 175.3,212.0 L 174.5,199.9 L 174.6,198.6 L 175.0,197.5 L 174.8,196.8 L 175.3,195.5 L 176.6,193.5 L 177.4,187.8 L 176.6,186.6 L 176.1,186.1 L 175.9,184.8 L 176.4,183.0 L 176.5,182.1 L 176.2,181.5 L 176.3,180.0 L 177.1,177.4 L 177.7,176.8 L 178.8,177.7 L 179.5,177.7 L 179.8,173.7 L 180.1,173.1 L 180.3,171.5 L 179.4,167.8 L 179.1,165.1 L 178.1,162.7 L 177.9,160.6 L 177.5,158.8 L 176.4,157.6 L 175.5,152.8 L 172.4,150.3 L 172.0,149.7 L 171.7,148.4 L 171.7,147.6 L 171.5,146.5 L 172.0,142.8 L 173.0,140.8 L 174.7,138.7 L 177.5,137.0 L 179.0,137.9 L 180.0,137.6 L 180.9,138.6 L 181.1,141.5 L 181.7,148.0 L 182.2,148.7 L 183.6,150.2 L 186.3,151.2 L 187.2,152.3 L 187.8,154.6 L 188.5,155.1 L 190.1,155.1 L 190.4,152.6 L 191.6,152.4 L 192.0,151.9 L 191.5,148.6 L 190.8,146.0 L 190.0,144.9 L 189.9,143.1 L 189.4,142.6 L 187.2,141.4 L 182.0,137.0 L 180.8,133.2 L 179.3,132.3 L 177.2,131.6 L 175.0,129.2 L 173.8,128.4 L 173.3,126.5 L 171.7,124.9 L 170.7,124.4 L 169.5,123.3 L 168.1,121.8 L 165.7,118.9 L 165.9,117.6 L 166.0,117.4 L 166.2,117.1 L 167.5,116.0 L 168.2,115.8 L 169.4,115.8 L 170.1,115.4 L 172.3,117.5 L 173.6,117.4 L 173.9,116.9 L 173.4,115.0 L 173.4,114.0 L 172.7,112.9 L 172.9,111.4 L 174.6,110.0 L 175.5,109.9 L 176.8,109.9 L 178.4,109.4 L 180.0,109.9 L 181.7,109.0 L 183.2,107.6 L 184.4,107.7 L 184.9,108.5 L 185.0,110.0 L 186.2,110.7 L 187.2,110.3 L 188.2,111.3 L 188.6,111.2 L 188.9,110.5 L 189.0,108.8 L 189.6,108.6 L 191.0,108.6 L 191.3,106.0 L 192.3,105.7 L 193.5,106.0 L 194.6,106.0 L 195.3,105.7 L 196.1,102.8 L 195.9,101.7 L 194.7,99.4 L 193.3,98.8 L 193.4,97.9 L 194.2,96.9 L 195.9,96.8 L 196.5,96.2 L 196.5,95.1 L 196.0,94.2 L 195.8,92.4 L 196.3,91.8 L 197.2,91.5 L 197.6,90.6 L 197.6,88.2 L 196.7,85.9 L 196.2,84.0 L 195.9,81.4 L 196.1,77.7 L 195.8,76.2 L 194.9,75.3 L 195.0,74.1 L 195.7,72.8 L 196.5,72.2 L 195.9,71.3 L 195.9,70.3 L 196.1,69.2 L 196.4,68.9 L 196.6,68.6 L 197.0,68.7 L 197.3,69.0 L 197.7,69.5 L 198.2,69.1 L 198.3,69.0 L 198.2,68.0 L 197.2,66.3 L 197.4,63.8 L 198.5,62.4 L 199.8,62.2 L 200.7,61.2 L 201.1,59.4 L 201.9,58.8 L 204.5,58.1 L 207.4,58.1 L 208.0,57.1 L 208.5,55.4 L 209.2,54.9 L 209.7,54.9 L 211.1,55.9 L 212.1,55.6 L 213.0,54.7 L 212.5,53.8 L 212.9,51.7 L 213.8,51.1 L 215.8,50.7 L 218.2,51.0 L 219.6,50.3 L 220.4,50.3 L 221.6,48.9 L 224.8,49.0 L 225.6,48.7 L 226.1,48.7 L 227.8,48.8 L 228.2,48.4 L 228.1,47.8 L 226.3,45.9 L 225.7,45.2 L 225.3,44.9 L 223.7,43.5 L 223.4,42.3 L 223.6,40.6 L 224.2,40.0 L 224.5,40.8 L 224.7,42.4 L 226.5,44.1 L 226.6,44.1 L 229.1,46.8 L 229.9,50.6 L 230.4,51.6 L 230.3,53.3 L 230.4,54.9 L 231.1,55.9 L 231.0,57.3 L 230.5,58.5 L 231.3,59.8 L 233.5,61.3 L 234.4,61.3 L 235.4,60.1 L 235.6,58.7 L 236.7,57.8 L 237.5,56.1 L 237.9,55.9 L 238.8,56.1 L 239.1,56.3 L 239.7,55.9 L 240.3,55.0 L 240.8,54.8 L 242.4,55.0 L 243.2,56.4 L 243.6,58.5 L 244.5,59.8 L 245.7,62.8 L 245.7,64.6 L 245.2,65.7 L 245.0,67.0 L 245.9,68.6 L 246.3,70.4 L 246.5,72.7 L 246.8,73.5 L 247.1,74.2 L 248.6,76.5 L 249.5,77.3 L 250.3,77.1 L 250.8,77.4 L 251.5,78.5 L 252.5,79.5 L 251.7,81.7 L 249.8,84.7 L 249.0,86.1 L 247.2,87.5 L 245.5,88.3 L 244.5,89.1 L 243.2,91.1 L 243.0,92.5 L 243.4,94.3 L 242.7,96.0 L 242.6,97.9 L 240.9,98.3 L 240.3,98.7 L 240.0,100.4 L 239.1,101.4 L 238.8,102.5 L 239.3,106.0 L 239.0,109.5 L 238.8,110.8 L 237.9,110.7 L 237.2,111.1 L 237.0,112.0 L 237.3,113.2 L 237.3,113.9 L 235.7,115.5 L 235.7,116.4 L 236.5,117.4 L 237.8,118.0 L 240.8,121.4 L 242.1,122.1 L 243.1,123.2 L 243.1,124.0 L 241.6,125.2 L 240.8,125.2 L 239.8,124.8 L 239.1,124.9 L 237.6,125.9 L 235.2,125.9 L 233.3,126.8 L 233.0,127.1 L 230.5,128.3 L 228.7,132.4 L 228.2,135.2 L 227.7,135.7 L 224.8,136.6 L 222.0,138.3 L 219.7,140.5 L 219.0,141.5 L 218.7,143.5 L 217.4,147.1 L 217.1,148.8 L 216.3,152.7 L 216.4,155.0 L 216.5,155.2 L 217.2,156.9 L 219.7,159.4 L 219.7,160.7 L 219.4,161.4 L 219.2,162.6 L 219.7,162.7 L 220.6,162.3 L 223.6,162.2 L 224.7,163.6 L 226.0,163.9 L 226.6,164.4 L 227.1,167.5 L 227.0,168.3 L 226.1,170.3 L 225.8,173.1 L 225.9,175.4 L 226.5,177.1 L 227.8,178.1 L 229.2,179.9 L 230.0,180.7 L 230.0,182.6 L 231.6,182.9 L 232.4,183.3 L 232.6,184.2 L 231.5,185.6 L 231.7,187.5 L 234.6,188.3 L 235.7,189.0 L 235.5,189.6 L 232.5,194.1 L 231.3,194.9 L 230.0,194.9 L 228.6,196.0 L 227.9,196.8 L 227.9,197.5 L 228.7,197.5 L 229.1,197.9 L 228.3,198.7 L 227.7,199.4 L 227.5,200.9 L 227.3,202.0 L 226.0,203.6 L 225.8,204.6 L 226.7,205.6 L 226.4,208.1 L 226.9,209.8 L 229.4,211.9 L 229.0,212.8 L 227.6,213.4 L 227.5,215.7 L 226.8,216.3 L 226.5,217.1 L 227.7,218.2 L 227.8,218.9 L 226.5,219.9 L 226.4,222.1 L 227.6,224.5 L 227.7,225.8 L 228.6,226.5 L 229.5,228.0 L 230.4,228.5 L 231.9,228.5 L 233.0,228.1 L 233.2,228.4 L 234.0,230.5 L 233.6,232.6 L 232.3,234.9 L 230.7,236.2 L 228.8,238.8 L 224.6,240.4 L 223.6,240.3 L 222.6,241.5 L 223.0,242.7 L 223.0,244.5 L 223.3,244.9 L 223.8,245.2 L 223.9,245.9 L 223.4,246.3 L 223.2,247.1 L 224.0,248.3 L 224.5,248.5 L 225.1,249.1 L 226.1,251.8 L 226.0,253.5 L 225.0,255.2 L 224.0,257.2 L 223.2,257.7 L 222.3,258.2 L 221.4,259.2 L 221.2,260.3 L 221.7,261.3 L 222.7,262.1 L 222.8,263.0 L 223.1,263.8 L 223.4,264.7 L 223.6,264.8 L 224.2,267.0 L 224.3,269.7 L 225.0,272.8 L 225.9,274.3 L 226.1,275.6 L 226.8,277.0 L 228.1,280.7 L 228.9,282.3 L 230.9,283.5 L 232.1,284.5 L 232.4,299.0 L 232.4,300.3 L 230.7,299.2 L 229.1,299.0 L 226.9,300.0 L 226.2,300.6 L 225.8,302.1 L 225.7,304.7 L 226.7,306.1 L 228.2,307.3 L 233.0,307.8 L 233.3,308.4 L 232.9,309.9 L 231.3,312.0 L 231.7,314.4 L 232.5,315.5 L 231.7,316.7 L 231.5,317.6 L 231.9,318.3 L 232.7,318.5 L 233.5,318.9 L 233.6,319.8 L 234.6,320.4 L 236.0,322.7 L 238.1,324.9 L 239.0,326.9 L 239.8,327.8 L 241.7,328.3 L 245.2,330.5 L 245.7,330.5 L 245.4,331.0 L 242.5,335.7 L 242.4,335.8 L 241.1,336.2 L 240.4,336.8 L 239.7,337.1 L 239.6,338.4 L 238.1,339.0 L 236.6,338.5 L 235.5,338.8 L 234.2,339.9 L 232.8,341.7 L 232.1,342.3 L 231.5,343.1 L 229.7,343.9 L 229.6,345.0 L 229.3,345.4 L 228.5,345.9 L 227.8,346.8 L 227.5,348.2 L 227.8,349.4 L 226.9,350.9 L 226.7,351.0 L 194.1,357.8 L 183.8,360.0 L 183.7,358.9 L 183.4,357.3 L 183.4,356.3 L 182.8,355.0 L 182.5,354.0 L 181.6,353.4 L 181.0,352.7 L 180.5,351.6 L 179.7,350.7 L 179.3,349.8 L 178.4,349.2 L 177.5,348.2 L 176.9,347.4 L 177.0,346.3 L 176.3,345.0 L 175.9,344.7 L 175.9,344.0 L 175.3,343.2 L 174.2,343.1 L 174.4,342.3 L 173.1,341.7 L 172.5,341.9 L 171.9,341.9 L 171.3,341.2 L 171.5,340.7 L 172.3,339.8 L 172.3,339.2 L 170.8,337.2 L 169.6,335.0 L 168.8,334.4 L 168.2,334.6 L 167.6,334.2 L 166.5,334.4 L 161.8,331.0 L 159.7,330.8 L 158.2,329.3 L 157.4,329.2 L 154.7,327.0 L 153.9,326.1 L 152.9,325.5 L 148.5,324.9 L 148.4,324.3 L 148.8,323.9 L 151.1,324.5 L 151.2,324.2 L 150.5,323.7 L 148.8,323.1 L 148.3,322.9 L 147.7,322.6 L 147.7,319.9 L 148.0,319.6 L 150.9,321.2 L 153.2,321.9 L 153.9,320.0 L 149.9,318.3 L 147.5,317.7 L 147.9,317.0 L 150.3,313.5 L 153.6,314.3 L 154.8,314.9 L 157.1,316.0 L 157.5,316.6 L 158.6,317.0 L 160.3,317.5 L 162.0,318.3 L 165.1,316.3 L 170.1,313.2 L 170.8,312.7 L 170.8,309.4 L 170.9,307.9 L 169.9,304.7 L 170.1,303.4 L 170.7,302.3 L 170.8,301.3 L 169.8,295.7 L 169.3,294.6 L 168.4,293.8 L 168.2,293.0 L 167.1,291.9 L 167.0,290.9 L 165.9,289.4 L 165.3,287.8 L 165.3,286.7 L 164.5,286.2 L 164.0,286.5 L 163.5,287.0 L 163.0,286.9 L 162.5,285.8 L 159.3,278.4 L 158.6,277.9 L 157.6,277.6 L 156.2,276.3 L 155.2,274.5 L 154.4,272.7 L 153.7,272.0 L 153.1,270.7 L 151.2,270.2 L 150.8,269.1 L 151.0,267.1 L 152.0,265.3 L 153.7,263.6 L 153.8,261.9 L 153.6,261.1 L 154.1,259.6 L 154.5,259.2 L 155.6,259.1 L 156.3,259.3 L 156.4,258.4 L 156.2,257.6 L 156.4,257.0 L 157.0,256.0 L 157.0,253.4 L 156.0,250.9 L 154.7,249.3 L 153.7,248.5 L 153.2,247.9 L 153.0,247.1 L 151.7,246.1 L 150.6,243.3 L 149.9,242.7 L 150.2,241.0 L 151.0,240.0 L 151.6,239.8 L 154.4,240.0 L 155.0,239.4 L 155.8,237.6 L 156.4,237.4 L 158.8,237.5 L 160.7,236.5 L 161.7,236.4 L 162.5,237.3 L 162.6,237.7 L 164.3,238.7 L 165.3,238.3 L 166.7,236.8 L 167.6,236.3 L 169.2,235.3 L 169.9,233.8 L 170.2,231.9 L 168.4,230.4 L 167.7,230.9 L 167.4,230.9 L 167.7,229.6 L 168.9,229.6 L 169.1,228.4 L 169.4,226.6 L 169.9,224.3 L 167.4,224.1 L 167.5,223.8 L 166.8,222.2 L 167.0,220.7 L 167.4,220.3" fill="none" stroke="black" stroke-width="2"/>
</svg>