<?xml version="1.0" encoding="UTF-8"?>
<svg width="400" height="400" viewBox="0 0 400 400" xmlns="http://www.w3.org/2000/svg">
  <rect width="400" height="400" fill="white"/>
  <path d="M 138.7,213.8 L 139.0,214.5 L 140.5,216.3 L 143.6,216.3 L 144.2,215.6 L 144.1,211.6 L 144.3,209.1 L 145.3,207.8 L 145.9,207.2 L 146.0,206.7 L 145.4,205.9 L 145.3,205.5 L 144.6,204.7 L 145.0,204.0 L 145.1,203.4 L 144.4,202.7 L 145.4,200.5 L 145.0,196.5 L 146.0,195.8 L 148.6,197.2 L 150.1,196.9 L 153.5,197.8 L 157.2,197.3 L 159.2,196.4 L 159.7,195.5 L 160.4,195.4 L 161.3,187.3 L 159.5,179.6 L 160.5,178.8 L 161.8,180.9 L 162.9,182.1 L 164.0,183.6 L 165.7,184.7 L 166.6,185.4 L 165.1,187.7 L 165.1,188.8 L 165.9,189.8 L 167.0,189.8 L 167.7,190.6 L 168.4,190.3 L 168.5,189.2 L 168.3,188.8 L 168.8,188.2 L 170.7,187.0 L 171.2,182.3 L 173.1,178.0 L 173.9,175.5 L 175.7,173.3 L 176.1,171.8 L 174.9,170.0 L 172.2,167.5 L 172.0,166.9 L 171.4,165.7 L 172.1,163.9 L 172.1,161.9 L 171.0,161.8 L 170.3,162.5 L 169.6,162.3 L 169.4,161.1 L 169.4,158.8 L 168.0,155.8 L 167.7,153.8 L 166.5,152.4 L 166.6,150.9 L 166.1,150.7 L 166.8,148.5 L 165.8,146.7 L 165.8,145.0 L 164.4,143.7 L 164.7,142.6 L 165.6,141.6 L 165.4,139.1 L 166.3,137.4 L 166.1,135.4 L 165.6,134.0 L 165.4,131.9 L 164.6,130.0 L 164.5,128.9 L 163.5,128.3 L 163.4,127.2 L 162.7,126.0 L 163.0,124.6 L 164.9,122.7 L 165.4,121.8 L 164.7,121.2 L 164.0,120.3 L 163.7,117.0 L 162.8,116.1 L 161.0,115.8 L 157.5,115.7 L 155.6,115.0 L 154.5,115.3 L 153.8,114.5 L 153.5,113.0 L 153.7,109.0 L 152.1,107.2 L 150.7,106.6 L 149.8,107.0 L 148.6,108.2 L 148.3,107.8 L 148.1,105.6 L 146.9,104.6 L 145.8,103.9 L 146.0,101.6 L 147.3,99.3 L 147.3,92.4 L 145.8,89.5 L 145.3,85.1 L 144.6,84.2 L 143.7,84.1 L 142.9,84.7 L 142.2,84.5 L 142.6,82.5 L 144.1,81.2 L 144.4,77.9 L 145.0,77.2 L 148.3,76.4 L 149.2,75.2 L 150.3,75.3 L 151.0,74.6 L 151.6,74.5 L 153.0,72.4 L 153.5,70.4 L 153.3,68.6 L 153.9,68.1 L 155.2,69.5 L 157.1,69.1 L 158.3,69.3 L 158.8,65.9 L 157.9,64.0 L 156.8,63.4 L 156.3,62.8 L 155.4,60.7 L 154.7,59.9 L 154.8,57.7 L 153.8,56.5 L 152.9,57.4 L 151.7,56.2 L 153.4,53.8 L 151.4,50.7 L 150.9,50.5 L 151.1,49.4 L 152.2,47.7 L 154.5,45.6 L 156.7,45.8 L 159.9,49.3 L 161.7,49.9 L 163.4,50.7 L 165.9,53.8 L 169.7,56.7 L 171.2,58.6 L 172.9,62.2 L 175.0,69.7 L 177.2,72.2 L 177.9,73.8 L 179.7,74.8 L 182.6,74.9 L 185.3,72.8 L 186.7,71.0 L 190.2,71.2 L 191.0,72.2 L 191.1,73.3 L 192.3,78.1 L 192.0,81.3 L 192.9,85.3 L 193.7,86.7 L 195.3,87.8 L 197.3,90.7 L 198.3,91.8 L 200.1,92.2 L 200.3,93.4 L 202.3,94.8 L 203.5,95.1 L 204.9,93.5 L 205.8,94.0 L 207.1,93.4 L 207.6,93.9 L 207.0,97.0 L 208.1,99.6 L 209.4,99.4 L 210.1,100.0 L 210.0,102.7 L 211.0,105.4 L 211.3,107.7 L 212.4,109.1 L 212.7,109.3 L 213.2,109.1 L 213.7,107.4 L 213.0,104.6 L 212.9,103.8 L 212.5,100.7 L 213.2,99.1 L 213.3,99.1 L 213.8,98.8 L 214.1,99.9 L 213.9,101.9 L 215.0,104.5 L 215.5,103.3 L 215.5,97.9 L 214.7,96.8 L 214.8,95.2 L 216.2,93.9 L 216.3,87.8 L 217.5,86.3 L 217.8,78.6 L 216.7,76.0 L 216.5,75.3 L 216.6,72.1 L 215.8,71.3 L 215.7,71.2 L 215.7,67.7 L 215.0,66.6 L 214.7,61.6 L 215.3,60.4 L 214.9,58.7 L 215.1,57.5 L 215.9,56.6 L 215.0,52.7 L 215.4,46.7 L 214.5,42.3 L 214.8,41.3 L 216.8,40.2 L 218.7,40.0 L 218.7,40.0 L 219.8,40.2 L 221.4,40.8 L 222.2,41.6 L 222.6,43.4 L 221.8,45.2 L 222.7,45.4 L 223.5,46.4 L 223.9,48.8 L 223.5,53.2 L 223.8,55.0 L 224.6,55.6 L 225.6,56.8 L 226.0,59.4 L 226.7,62.4 L 227.8,65.0 L 229.3,66.2 L 230.0,68.1 L 233.0,69.7 L 233.6,71.8 L 236.9,74.1 L 238.2,75.6 L 240.3,77.1 L 240.3,79.2 L 241.9,82.7 L 243.3,83.3 L 243.6,84.1 L 243.8,87.0 L 244.8,89.8 L 246.7,91.5 L 247.2,92.2 L 246.6,93.5 L 246.3,94.9 L 247.2,96.8 L 247.2,99.7 L 248.0,101.2 L 248.0,103.3 L 249.0,104.8 L 249.2,106.2 L 249.8,107.4 L 250.1,109.6 L 251.3,112.8 L 252.3,113.6 L 253.7,115.3 L 253.8,118.1 L 254.4,118.9 L 255.1,124.3 L 255.1,124.3 L 258.4,127.4 L 258.8,128.5 L 260.5,127.4 L 261.3,131.1 L 262.8,132.8 L 262.7,135.4 L 264.2,140.8 L 264.0,144.4 L 264.7,145.6 L 265.2,148.5 L 266.1,148.9 L 266.3,153.7 L 268.6,157.7 L 269.8,157.4 L 270.5,156.6 L 269.4,153.4 L 269.6,150.6 L 270.3,149.2 L 276.9,145.9 L 278.6,144.1 L 279.5,142.0 L 279.4,139.5 L 280.0,138.3 L 279.9,137.2 L 279.2,135.8 L 278.9,133.4 L 279.6,126.2 L 279.6,126.2 L 281.2,122.9 L 281.9,122.6 L 284.3,122.9 L 285.9,125.3 L 286.2,125.5 L 287.3,126.6 L 287.5,126.6 L 287.4,126.8 L 287.4,126.9 L 286.7,129.0 L 286.4,130.5 L 287.3,132.3 L 287.3,135.3 L 288.1,136.8 L 288.2,137.9 L 287.7,137.9 L 285.2,139.9 L 284.7,141.5 L 284.0,142.7 L 283.9,144.9 L 284.8,149.4 L 286.4,154.2 L 287.0,155.0 L 288.1,154.7 L 288.7,153.8 L 289.8,154.4 L 290.2,153.9 L 289.6,151.7 L 290.2,147.9 L 291.1,148.7 L 292.6,155.6 L 293.4,157.0 L 294.6,156.6 L 294.7,154.2 L 293.4,149.6 L 293.7,146.9 L 294.3,144.9 L 293.8,141.8 L 293.4,137.5 L 294.1,137.2 L 295.1,138.4 L 295.1,142.8 L 295.9,145.0 L 295.7,150.3 L 296.3,152.9 L 296.8,154.0 L 297.3,153.4 L 298.3,147.7 L 298.0,144.8 L 298.0,141.1 L 297.4,140.0 L 296.5,139.4 L 296.2,138.3 L 296.2,131.2 L 297.2,129.6 L 298.1,128.0 L 298.3,129.1 L 297.4,134.5 L 297.2,137.3 L 297.8,138.0 L 298.8,137.9 L 299.7,137.3 L 301.2,141.0 L 301.6,143.9 L 301.4,147.6 L 300.5,150.4 L 300.1,153.3 L 301.5,159.1 L 301.5,162.0 L 301.8,165.2 L 303.4,168.9 L 305.0,172.1 L 305.0,174.3 L 306.0,175.5 L 306.4,177.3 L 307.7,178.4 L 308.8,178.2 L 309.8,176.6 L 310.6,176.3 L 310.8,177.1 L 310.7,178.9 L 310.9,179.5 L 311.4,180.4 L 312.1,180.3 L 312.4,179.6 L 312.5,179.2 L 312.8,177.8 L 313.5,177.5 L 314.6,178.1 L 315.4,179.9 L 316.2,181.5 L 316.4,185.7 L 317.9,188.2 L 317.9,191.3 L 317.0,196.2 L 317.1,199.8 L 316.9,202.0 L 316.9,206.9 L 318.4,210.5 L 320.1,214.1 L 321.5,217.8 L 323.4,222.0 L 324.5,223.2 L 199.7,307.5 L 151.9,339.7 L 151.9,339.8 L 151.6,339.4 L 151.2,340.2 L 148.3,342.1 L 148.5,341.5 L 148.1,340.8 L 147.3,341.1 L 146.3,340.7 L 145.6,341.1 L 145.3,341.8 L 143.8,342.1 L 141.8,344.4 L 140.6,344.8 L 140.0,343.3 L 138.8,343.2 L 136.8,344.4 L 135.5,344.2 L 134.4,346.0 L 133.1,345.6 L 132.3,346.4 L 132.7,346.6 L 133.2,347.0 L 131.9,349.3 L 131.1,351.8 L 129.9,352.4 L 127.6,353.2 L 127.2,354.2 L 129.2,354.6 L 129.1,355.3 L 127.0,357.4 L 123.7,359.3 L 122.9,360.0 L 122.7,359.7 L 105.3,343.1 L 105.4,342.9 L 104.6,341.5 L 104.0,341.5 L 102.5,340.5 L 102.7,339.4 L 104.6,337.7 L 104.7,336.6 L 103.8,335.7 L 104.3,335.0 L 105.4,337.2 L 106.9,339.3 L 109.0,340.0 L 110.5,339.9 L 111.7,338.8 L 113.6,335.6 L 114.5,334.6 L 116.3,332.7 L 115.8,331.8 L 118.0,329.9 L 118.2,328.8 L 119.9,328.9 L 118.1,331.3 L 117.3,331.9 L 117.0,333.5 L 117.5,334.1 L 118.6,333.9 L 121.0,331.4 L 122.7,330.2 L 122.8,327.9 L 121.5,326.9 L 121.2,325.0 L 120.6,323.9 L 119.4,323.4 L 116.6,325.3 L 115.8,326.4 L 115.1,327.0 L 113.9,325.3 L 114.5,324.0 L 114.4,323.5 L 113.7,322.7 L 111.6,321.2 L 111.5,320.0 L 110.6,319.5 L 104.7,323.3 L 104.8,324.8 L 103.7,324.9 L 103.1,324.1 L 103.8,323.2 L 103.7,322.5 L 102.0,322.4 L 100.3,323.7 L 100.1,324.5 L 101.2,326.7 L 101.3,327.6 L 101.0,328.0 L 100.3,327.5 L 99.6,326.1 L 98.8,324.7 L 97.7,324.7 L 95.9,326.7 L 95.6,328.0 L 97.2,329.5 L 98.5,329.3 L 98.8,328.6 L 99.6,329.2 L 97.8,330.5 L 98.2,332.3 L 97.1,332.3 L 96.2,333.1 L 95.0,332.3 L 92.8,332.7 L 92.2,332.2 L 91.9,331.4 L 90.3,332.2 L 89.1,332.5 L 87.4,331.9 L 85.6,332.6 L 83.8,333.2 L 79.9,335.4 L 79.1,335.6 L 78.7,335.2 L 79.5,333.8 L 81.8,333.2 L 83.4,332.4 L 84.1,331.4 L 83.3,330.9 L 81.8,332.3 L 79.7,332.1 L 79.4,332.3 L 78.3,333.5 L 77.2,333.4 L 77.6,332.0 L 80.2,329.5 L 82.3,328.5 L 82.1,327.4 L 81.1,326.8 L 79.8,327.4 L 78.8,328.2 L 75.5,329.0 L 75.6,327.9 L 79.1,326.4 L 83.3,323.7 L 91.5,321.6 L 102.4,316.0 L 107.0,311.8 L 109.8,310.6 L 110.1,309.5 L 111.6,308.4 L 112.5,308.4 L 115.2,305.8 L 118.0,304.7 L 126.0,297.8 L 128.4,292.8 L 128.7,291.2 L 127.4,289.3 L 127.1,287.5 L 127.6,286.0 L 126.4,283.0 L 125.0,280.5 L 125.3,279.3 L 126.5,277.9 L 126.5,275.9 L 125.3,274.0 L 125.7,271.7 L 127.2,270.9 L 128.2,269.9 L 128.8,269.1 L 128.5,268.6 L 127.5,269.1 L 126.4,268.6 L 124.4,268.9 L 122.0,267.0 L 121.7,266.1 L 122.2,261.6 L 120.7,261.7 L 119.2,262.2 L 119.3,261.2 L 122.9,259.1 L 123.2,258.4 L 122.9,257.6 L 122.5,257.5 L 122.6,257.3 L 137.1,218.1 L 137.5,218.1 L 138.3,217.2 L 137.9,216.1 L 137.9,216.0 L 138.7,213.8" fill="none" stroke="black" stroke-width="2"/>
</svg>