<?xml version="1.0" encoding="UTF-8"?>
<svg width="400" height="400" viewBox="0 0 400 400" xmlns="http://www.w3.org/2000/svg">
  <rect width="400" height="400" fill="white"/>
  <path d="M 125.2,228.1 L 119.7,225.4 L 115.9,222.7 L 111.2,216.6 L 110.5,213.8 L 110.4,211.2 L 107.7,206.3 L 99.2,201.5 L 94.6,199.6 L 93.7,199.5 L 90.9,197.9 L 89.1,194.0 L 87.6,193.1 L 79.7,191.9 L 76.2,190.0 L 74.0,189.3 L 71.8,186.1 L 69.3,185.6 L 63.2,189.4 L 58.0,189.1 L 52.8,189.2 L 48.4,190.3 L 46.8,190.5 L 46.2,190.1 L 45.6,187.8 L 44.3,186.7 L 43.3,186.3 L 42.1,186.7 L 41.2,186.8 L 40.0,180.6 L 41.7,179.8 L 48.5,173.9 L 51.8,170.5 L 57.5,168.5 L 60.7,166.5 L 63.4,167.5 L 65.1,166.9 L 66.7,164.1 L 69.3,162.4 L 81.5,160.2 L 85.9,160.8 L 91.6,163.1 L 95.0,161.7 L 97.6,160.3 L 100.2,158.2 L 106.1,155.0 L 106.7,153.4 L 107.4,144.3 L 109.5,140.6 L 111.1,138.7 L 112.9,135.6 L 114.9,134.1 L 114.9,134.1 L 117.0,133.6 L 118.5,131.7 L 120.3,128.6 L 124.5,125.3 L 127.0,124.4 L 134.8,121.4 L 135.5,121.1 L 146.1,115.5 L 150.4,114.1 L 152.3,114.5 L 155.1,118.1 L 154.3,122.1 L 157.3,122.6 L 158.4,123.3 L 158.1,126.6 L 155.5,133.5 L 155.7,137.4 L 155.8,137.8 L 156.7,141.6 L 159.3,144.9 L 159.2,147.9 L 159.7,148.5 L 161.3,147.6 L 163.0,147.1 L 164.9,148.6 L 165.3,154.7 L 166.2,157.2 L 171.6,159.8 L 171.8,160.7 L 170.1,163.9 L 171.2,165.9 L 171.9,166.8 L 174.8,168.6 L 178.1,168.6 L 181.2,168.0 L 182.2,167.0 L 182.8,164.8 L 184.0,163.8 L 185.8,166.1 L 191.4,165.7 L 194.8,164.6 L 199.7,161.2 L 201.7,159.2 L 202.1,155.4 L 198.5,146.8 L 197.1,145.9 L 195.3,143.8 L 194.7,141.6 L 194.4,141.3 L 191.0,135.7 L 190.1,133.5 L 185.0,129.5 L 182.3,128.3 L 176.4,126.4 L 171.7,123.7 L 168.5,120.1 L 167.9,117.6 L 168.0,116.1 L 168.6,115.6 L 170.8,115.8 L 175.4,120.0 L 177.1,119.3 L 177.5,118.8 L 176.3,115.9 L 173.2,112.6 L 169.8,110.2 L 168.7,110.1 L 166.2,109.1 L 165.5,107.9 L 166.1,107.4 L 168.3,107.6 L 170.4,109.4 L 173.9,111.3 L 176.5,113.1 L 178.3,111.6 L 177.0,110.2 L 164.0,100.6 L 163.2,97.0 L 163.7,95.3 L 165.2,93.6 L 166.9,93.1 L 173.3,95.8 L 175.4,97.1 L 176.6,99.3 L 177.5,103.0 L 180.0,109.6 L 184.6,116.7 L 186.3,118.8 L 189.6,120.2 L 195.2,126.7 L 199.4,129.4 L 203.6,133.1 L 208.1,139.7 L 211.5,142.8 L 212.0,143.3 L 216.9,145.0 L 223.6,155.5 L 225.8,163.9 L 227.6,173.7 L 229.1,176.3 L 227.8,182.4 L 228.6,183.5 L 234.0,185.3 L 235.0,185.6 L 237.1,185.5 L 237.1,184.7 L 235.3,182.9 L 235.7,180.7 L 238.2,180.0 L 242.0,180.6 L 258.3,185.8 L 261.2,188.0 L 265.5,189.7 L 266.2,192.2 L 269.6,195.3 L 273.1,196.9 L 278.1,196.9 L 278.9,199.8 L 280.3,200.7 L 281.6,202.2 L 282.2,203.8 L 288.3,207.6 L 294.0,209.4 L 296.1,211.7 L 299.5,213.4 L 301.2,213.0 L 303.3,211.2 L 305.0,207.1 L 306.8,205.6 L 309.2,205.5 L 309.5,202.7 L 308.0,199.1 L 310.0,198.0 L 310.0,190.9 L 313.8,188.0 L 316.6,187.4 L 317.7,188.1 L 318.6,190.1 L 321.8,192.2 L 323.0,194.9 L 323.1,201.2 L 323.7,204.6 L 326.5,207.8 L 328.2,208.2 L 329.9,210.6 L 330.8,209.8 L 329.7,205.6 L 330.4,204.5 L 331.7,204.8 L 333.8,211.3 L 336.0,215.1 L 338.3,213.9 L 335.5,209.8 L 335.6,208.4 L 336.7,208.0 L 337.6,208.0 L 338.1,208.6 L 338.7,211.7 L 339.5,215.1 L 341.9,217.2 L 345.8,221.6 L 347.4,222.2 L 349.9,221.6 L 351.9,221.7 L 351.7,223.7 L 352.1,225.3 L 353.6,227.1 L 358.1,230.0 L 358.2,229.1 L 358.8,228.9 L 360.0,231.8 L 358.8,235.1 L 357.9,233.5 L 357.5,231.8 L 355.1,230.0 L 353.5,229.3 L 351.5,229.5 L 351.5,231.1 L 351.8,233.9 L 356.5,238.5 L 357.6,238.3 L 335.6,297.7 L 335.5,298.1 L 333.7,297.7 L 330.1,299.1 L 325.1,304.3 L 324.8,306.8 L 323.7,306.9 L 322.7,305.3 L 322.7,302.5 L 322.2,301.9 L 320.1,303.9 L 316.9,302.9 L 316.3,301.2 L 316.2,298.9 L 310.8,297.4 L 308.5,294.8 L 305.8,294.3 L 301.8,291.1 L 299.1,290.8 L 297.9,291.3 L 296.3,291.5 L 295.7,292.0 L 296.9,294.0 L 297.1,295.4 L 295.6,298.1 L 291.7,301.4 L 284.9,300.9 L 283.1,302.5 L 282.1,301.0 L 281.0,300.6 L 280.6,303.4 L 279.4,303.6 L 277.3,301.2 L 269.6,300.7 L 267.5,299.4 L 266.8,297.7 L 264.6,297.3 L 263.1,295.5 L 253.2,294.0 L 250.5,293.2 L 247.7,293.3 L 245.6,296.2 L 244.2,297.0 L 240.2,295.1 L 238.2,295.7 L 231.0,299.7 L 228.4,300.0 L 226.8,299.1 L 226.1,298.5 L 226.5,296.2 L 229.2,295.3 L 230.3,294.3 L 231.0,292.4 L 233.1,291.8 L 236.5,291.2 L 239.4,289.2 L 239.5,287.3 L 238.3,286.0 L 235.4,286.3 L 232.5,288.3 L 230.6,290.4 L 229.3,291.1 L 226.6,289.7 L 226.2,287.2 L 226.9,286.7 L 227.6,281.2 L 228.9,280.4 L 230.5,279.1 L 237.6,275.8 L 237.5,274.6 L 236.4,274.0 L 234.4,273.6 L 233.7,272.4 L 233.9,270.2 L 235.1,268.9 L 241.8,268.6 L 244.3,267.1 L 248.1,268.7 L 250.9,267.9 L 251.4,264.6 L 250.0,261.4 L 248.9,260.5 L 245.9,260.6 L 243.9,260.9 L 242.9,259.8 L 243.0,258.4 L 247.8,256.5 L 248.0,253.5 L 243.5,252.3 L 242.5,253.1 L 241.6,254.7 L 239.9,254.9 L 238.7,255.9 L 238.6,258.7 L 237.4,258.9 L 237.0,257.2 L 236.9,254.6 L 235.2,253.7 L 230.7,252.3 L 229.3,251.6 L 225.2,248.6 L 223.1,246.2 L 222.1,244.0 L 219.4,243.2 L 208.1,245.5 L 204.0,246.0 L 194.9,246.5 L 190.6,247.0 L 188.8,246.3 L 186.2,242.5 L 185.1,239.4 L 183.8,238.0 L 182.7,237.6 L 181.3,238.6 L 182.3,241.2 L 182.3,243.1 L 183.5,245.9 L 183.4,248.2 L 181.9,250.0 L 179.0,251.7 L 176.6,253.7 L 176.0,255.1 L 172.2,257.9 L 168.5,258.2 L 165.8,260.8 L 165.2,261.6 L 164.2,265.4 L 163.8,266.1 L 164.4,269.5 L 164.5,272.3 L 163.6,273.9 L 160.6,273.9 L 156.6,271.2 L 154.0,268.0 L 152.9,264.6 L 152.6,261.8 L 150.5,258.3 L 146.2,253.9 L 139.4,247.5 L 132.2,235.1 L 125.5,228.3" fill="none" stroke="black" stroke-width="2"/>
</svg>