<?xml version="1.0" encoding="UTF-8"?>
<svg width="400" height="400" viewBox="0 0 400 400" xmlns="http://www.w3.org/2000/svg">
  <rect width="400" height="400" fill="white"/>
  <path d="M 79.2,222.3 L 79.2,219.2 L 79.2,180.3 L 79.1,137.0 L 79.1,136.8 L 79.4,137.3 L 80.8,137.2 L 82.9,134.6 L 84.5,135.3 L 86.1,135.1 L 87.9,132.8 L 89.4,130.2 L 97.6,129.7 L 99.9,131.5 L 102.1,131.3 L 106.0,128.4 L 109.4,127.2 L 110.5,126.6 L 112.9,123.4 L 113.6,121.9 L 114.5,116.5 L 114.7,112.5 L 112.4,107.2 L 109.6,104.3 L 108.8,101.8 L 107.2,97.1 L 105.0,92.6 L 103.5,91.4 L 97.6,86.9 L 90.9,82.4 L 87.6,78.6 L 87.2,77.0 L 87.6,75.2 L 89.0,74.2 L 91.4,73.8 L 93.2,72.3 L 93.0,70.3 L 90.7,66.1 L 91.0,60.2 L 91.8,57.6 L 92.4,57.1 L 92.8,58.2 L 93.6,62.6 L 95.7,67.3 L 98.3,69.4 L 97.4,70.4 L 97.3,72.0 L 99.0,74.0 L 104.9,76.4 L 107.6,76.0 L 107.7,74.2 L 105.7,71.5 L 103.1,65.4 L 100.8,49.5 L 100.8,49.4 L 100.7,48.9 L 104.7,49.2 L 106.8,49.4 L 106.7,49.9 L 107.1,51.1 L 106.8,56.5 L 108.4,63.6 L 109.0,67.5 L 111.0,73.3 L 114.1,78.1 L 115.2,78.4 L 122.3,83.0 L 123.6,82.9 L 124.5,80.7 L 125.4,81.1 L 125.5,82.2 L 126.6,83.0 L 128.2,81.8 L 129.3,83.5 L 128.9,87.5 L 126.3,88.1 L 126.3,89.7 L 130.4,93.9 L 132.2,95.0 L 133.4,94.0 L 132.8,90.5 L 133.9,90.1 L 137.4,91.0 L 143.4,94.5 L 143.5,96.1 L 142.9,97.2 L 142.2,99.0 L 145.0,101.9 L 151.9,104.5 L 153.5,104.6 L 157.9,89.9 L 159.5,89.1 L 160.1,88.3 L 159.7,85.4 L 160.5,84.6 L 161.6,84.3 L 162.3,82.8 L 162.7,80.4 L 166.8,76.1 L 168.2,72.9 L 169.6,67.6 L 169.9,63.6 L 170.6,61.0 L 171.0,60.0 L 173.4,55.1 L 173.4,55.1 L 174.6,51.7 L 173.7,50.2 L 174.1,48.0 L 175.9,45.7 L 175.5,44.7 L 172.5,43.5 L 172.0,43.3 L 172.6,42.5 L 173.3,41.5 L 175.0,40.0 L 177.1,40.2 L 179.8,43.7 L 180.9,43.7 L 182.4,42.2 L 197.5,52.8 L 197.6,52.8 L 197.4,57.0 L 197.4,57.0 L 198.9,62.3 L 202.3,65.0 L 204.5,64.9 L 204.5,63.6 L 202.8,61.8 L 202.5,57.4 L 202.5,57.3 L 288.6,159.5 L 290.4,161.6 L 290.1,162.7 L 288.4,164.2 L 288.0,165.8 L 289.7,168.1 L 289.3,174.0 L 290.4,175.4 L 292.0,178.8 L 292.9,179.5 L 293.2,180.6 L 295.9,188.5 L 296.9,191.3 L 297.2,192.9 L 296.5,195.0 L 297.0,195.6 L 299.3,194.1 L 302.0,194.0 L 303.4,196.3 L 306.2,207.8 L 307.6,211.5 L 314.0,219.8 L 315.3,224.5 L 318.1,227.7 L 320.3,230.8 L 320.9,237.4 L 319.9,244.0 L 316.9,251.6 L 313.3,256.8 L 309.3,259.8 L 307.1,260.0 L 303.5,256.9 L 298.0,250.4 L 295.8,247.2 L 294.0,243.3 L 292.0,243.8 L 290.6,244.7 L 289.4,249.7 L 288.9,251.1 L 289.1,254.3 L 291.3,258.0 L 295.1,262.9 L 311.4,276.4 L 312.8,279.0 L 312.5,284.1 L 309.3,287.2 L 304.9,288.7 L 304.5,290.3 L 305.2,291.1 L 307.9,291.6 L 309.0,292.8 L 308.7,295.3 L 304.6,297.0 L 302.4,297.2 L 300.3,296.2 L 298.2,294.0 L 296.4,289.8 L 295.1,288.6 L 294.0,289.4 L 292.8,291.4 L 290.9,291.3 L 289.1,288.9 L 288.3,286.8 L 285.6,286.3 L 285.5,283.3 L 284.2,283.0 L 281.4,283.6 L 277.4,287.3 L 277.2,289.3 L 279.3,291.0 L 279.4,296.9 L 284.4,301.4 L 284.9,303.3 L 283.6,305.9 L 281.9,307.9 L 280.5,312.2 L 281.0,316.5 L 280.2,320.3 L 279.1,321.5 L 277.4,322.0 L 273.3,318.4 L 268.8,316.8 L 265.9,312.2 L 260.5,311.8 L 259.1,308.2 L 259.3,304.5 L 258.0,304.9 L 255.7,306.1 L 252.8,309.9 L 252.6,313.5 L 252.8,316.8 L 250.0,322.8 L 250.4,323.9 L 250.5,327.1 L 249.5,329.0 L 241.8,335.2 L 239.4,338.8 L 236.0,340.7 L 234.8,343.9 L 229.1,351.6 L 225.8,355.2 L 222.7,356.9 L 213.8,360.0 L 207.8,359.9 L 202.8,358.7 L 202.1,357.5 L 202.2,352.7 L 199.7,345.5 L 199.1,338.9 L 198.2,335.9 L 196.1,331.2 L 196.5,329.6 L 196.2,329.0 L 192.3,327.7 L 188.4,324.6 L 184.1,323.1 L 180.2,322.7 L 177.8,326.4 L 174.2,328.0 L 172.6,330.6 L 170.8,332.9 L 168.0,334.1 L 163.1,334.0 L 156.5,331.1 L 152.3,330.3 L 150.3,328.3 L 148.5,328.6 L 148.5,328.7 L 148.3,328.2 L 135.8,305.1 L 135.9,305.1 L 138.7,300.3 L 138.9,298.0 L 136.1,294.6 L 134.3,290.1 L 131.7,287.4 L 127.8,285.8 L 123.5,284.6 L 121.4,283.7 L 118.3,282.1 L 113.1,278.3 L 111.6,280.6 L 111.0,280.5 L 95.6,277.8 L 96.1,274.7 L 97.8,272.4 L 98.1,269.3 L 95.9,266.2 L 93.5,262.0 L 90.6,252.4 L 90.1,248.2 L 90.5,241.8 L 88.6,239.2 L 87.2,235.6 L 84.7,225.7 L 80.8,222.1 L 80.7,220.8 L 79.7,219.7 L 79.3,222.3 L 79.2,222.3" fill="none" stroke="black" stroke-width="2"/>
</svg>