<?xml version="1.0" encoding="UTF-8"?>
<svg width="400" height="400" viewBox="0 0 400 400" xmlns="http://www.w3.org/2000/svg">
  <rect width="400" height="400" fill="white"/>
  <path d="M 58.9,233.1 L 57.1,227.5 L 40.4,173.6 L 40.0,172.4 L 40.2,172.7 L 41.6,173.8 L 43.4,173.9 L 44.9,173.2 L 45.8,172.1 L 47.1,172.4 L 48.3,172.7 L 49.5,172.1 L 53.1,168.9 L 53.4,167.2 L 53.3,164.4 L 53.9,164.2 L 57.1,165.0 L 58.9,165.1 L 60.1,164.5 L 61.3,163.7 L 64.2,163.4 L 65.3,162.6 L 65.9,160.7 L 66.3,158.4 L 68.2,156.1 L 70.1,154.1 L 72.7,150.7 L 74.8,149.0 L 75.4,149.1 L 77.7,151.6 L 80.2,152.4 L 81.0,152.0 L 84.0,148.0 L 84.5,146.8 L 84.2,146.0 L 82.8,145.1 L 81.3,144.4 L 80.9,143.3 L 81.2,141.9 L 81.9,140.5 L 83.0,139.7 L 85.4,139.3 L 87.3,137.9 L 88.7,137.0 L 89.7,136.0 L 94.5,134.5 L 98.5,133.3 L 100.2,132.7 L 102.7,133.1 L 104.6,134.3 L 105.8,134.3 L 106.7,134.2 L 110.3,133.2 L 112.5,133.6 L 113.6,134.4 L 114.2,135.9 L 114.1,137.1 L 112.6,139.0 L 111.8,140.0 L 111.4,142.3 L 111.9,142.7 L 112.8,143.0 L 113.7,144.0 L 114.5,143.7 L 115.9,143.2 L 118.2,143.0 L 119.8,142.8 L 121.3,143.4 L 124.6,145.4 L 129.7,145.6 L 134.2,144.6 L 136.6,143.1 L 138.2,141.8 L 139.9,141.6 L 140.9,142.2 L 141.3,143.0 L 141.1,144.2 L 139.1,145.4 L 137.5,146.0 L 134.9,146.8 L 133.6,147.8 L 133.3,148.6 L 133.5,149.4 L 135.6,150.0 L 136.7,150.0 L 137.8,149.2 L 140.4,148.9 L 141.4,148.2 L 143.2,148.2 L 145.7,147.7 L 147.1,148.1 L 150.0,150.0 L 153.6,153.2 L 155.2,152.9 L 158.1,152.3 L 158.9,152.2 L 159.9,150.8 L 161.8,150.0 L 166.9,149.7 L 170.2,149.6 L 175.2,148.1 L 176.2,146.9 L 176.1,146.0 L 176.1,145.4 L 178.0,145.3 L 179.5,145.8 L 182.3,147.0 L 185.0,147.9 L 189.4,149.4 L 192.8,150.1 L 197.6,149.1 L 200.1,149.0 L 205.2,149.5 L 208.4,151.5 L 210.8,151.3 L 213.6,153.7 L 214.3,155.8 L 216.2,157.8 L 215.8,158.4 L 215.3,159.1 L 215.4,160.2 L 216.3,161.4 L 220.8,163.8 L 224.4,165.1 L 229.6,165.6 L 231.9,165.6 L 232.9,164.9 L 234.1,163.0 L 235.3,159.9 L 236.2,159.2 L 240.4,158.5 L 241.0,157.7 L 241.0,156.8 L 240.4,154.5 L 240.5,153.1 L 241.2,151.6 L 241.1,150.2 L 240.6,149.2 L 254.1,145.2 L 256.4,144.5 L 256.2,145.1 L 256.3,145.9 L 256.4,146.0 L 257.2,146.7 L 260.4,147.3 L 262.6,146.9 L 262.9,146.5 L 263.4,145.8 L 263.1,143.3 L 263.5,142.7 L 266.0,142.7 L 269.1,141.6 L 269.7,141.6 L 270.8,142.9 L 270.9,143.8 L 270.0,145.3 L 268.9,145.7 L 267.6,146.0 L 267.2,146.9 L 266.6,148.3 L 266.7,149.5 L 267.6,149.6 L 270.5,148.9 L 273.3,149.6 L 276.6,148.8 L 281.6,148.9 L 281.9,148.2 L 281.9,148.0 L 281.3,146.5 L 280.3,144.6 L 278.7,142.0 L 277.8,139.5 L 278.0,138.5 L 280.3,137.5 L 281.9,136.8 L 282.3,137.2 L 284.5,140.0 L 287.6,141.3 L 289.9,141.9 L 292.2,141.7 L 294.6,140.0 L 296.1,137.6 L 297.1,136.9 L 298.9,137.0 L 300.8,137.4 L 302.2,138.7 L 302.4,139.6 L 301.8,141.5 L 300.0,142.9 L 298.7,144.9 L 298.7,148.1 L 299.2,149.8 L 299.9,152.0 L 299.7,153.3 L 298.3,154.6 L 298.0,155.0 L 298.4,155.7 L 301.4,156.5 L 303.2,157.8 L 304.4,158.2 L 306.5,157.7 L 307.5,157.6 L 308.1,158.0 L 309.0,158.7 L 310.8,158.9 L 311.6,158.2 L 312.6,157.5 L 314.9,157.6 L 319.3,158.6 L 320.3,158.1 L 321.6,157.0 L 323.6,157.1 L 324.8,157.4 L 326.3,158.0 L 327.6,157.6 L 332.0,155.1 L 334.5,154.1 L 337.1,154.3 L 340.6,153.5 L 340.8,153.4 L 346.0,152.4 L 350.9,152.0 L 351.1,151.9 L 352.9,157.6 L 352.9,157.6 L 351.9,158.5 L 351.7,161.0 L 349.2,162.9 L 349.0,163.5 L 350.8,164.8 L 351.0,166.4 L 353.0,166.5 L 354.3,166.1 L 357.7,165.3 L 359.5,165.5 L 360.0,166.2 L 360.0,167.6 L 359.2,168.2 L 357.8,169.2 L 357.0,170.2 L 355.4,172.1 L 353.7,173.0 L 350.7,172.9 L 349.5,171.6 L 348.7,170.7 L 346.9,170.8 L 343.9,172.5 L 342.3,173.0 L 340.0,172.7 L 334.9,173.3 L 330.1,174.6 L 328.6,175.5 L 328.1,176.4 L 327.5,177.3 L 327.2,178.0 L 328.4,179.4 L 329.8,179.8 L 332.9,179.3 L 335.9,179.3 L 339.0,178.2 L 340.1,178.1 L 340.5,178.7 L 340.4,180.0 L 336.2,181.2 L 331.7,182.8 L 331.4,183.3 L 332.2,184.7 L 333.8,185.5 L 338.8,186.3 L 339.8,187.2 L 339.9,188.2 L 339.4,189.2 L 337.8,190.1 L 334.6,190.5 L 331.4,191.2 L 329.9,192.1 L 329.7,192.9 L 332.1,195.7 L 332.0,196.6 L 330.9,197.5 L 328.0,198.2 L 322.9,198.5 L 321.9,198.1 L 321.2,194.4 L 319.3,193.2 L 319.0,190.4 L 319.0,188.9 L 318.1,188.2 L 316.1,188.4 L 312.3,188.1 L 309.5,186.5 L 308.2,185.6 L 308.1,184.1 L 307.9,182.5 L 306.1,182.1 L 301.2,183.1 L 299.8,182.7 L 299.5,182.3 L 301.3,181.0 L 301.3,180.2 L 300.7,179.6 L 300.5,179.1 L 298.4,178.1 L 296.7,177.6 L 293.7,178.4 L 289.6,180.1 L 288.3,181.1 L 288.0,183.9 L 288.2,184.9 L 290.8,185.1 L 291.1,187.2 L 291.3,187.7 L 293.1,188.2 L 295.9,187.5 L 298.4,187.2 L 299.5,186.7 L 300.8,186.3 L 303.3,185.7 L 304.3,185.8 L 304.3,187.2 L 304.4,188.3 L 307.9,189.9 L 307.4,192.3 L 307.1,193.0 L 302.2,192.7 L 301.0,193.0 L 300.7,193.5 L 300.9,196.5 L 301.5,197.2 L 303.9,197.3 L 308.3,197.6 L 308.4,201.2 L 309.0,202.2 L 312.4,203.1 L 314.2,203.9 L 314.4,204.5 L 312.8,205.0 L 312.5,206.4 L 312.8,207.0 L 314.8,207.5 L 317.1,207.6 L 321.4,206.1 L 323.0,205.6 L 325.3,205.7 L 328.7,206.3 L 328.9,206.9 L 329.1,207.6 L 331.5,207.4 L 334.2,206.4 L 336.4,205.7 L 337.4,205.9 L 339.5,208.7 L 340.0,209.7 L 339.2,211.2 L 337.5,212.2 L 334.5,213.8 L 331.8,215.1 L 328.8,216.2 L 326.6,217.2 L 326.3,217.8 L 326.8,218.3 L 329.5,218.1 L 330.1,218.8 L 330.1,220.9 L 326.7,220.9 L 323.7,222.1 L 322.9,222.6 L 323.1,223.5 L 324.4,224.8 L 324.5,225.6 L 322.9,225.9 L 322.1,226.5 L 321.8,227.5 L 323.2,228.4 L 324.3,229.2 L 324.2,229.8 L 321.7,232.2 L 321.3,233.2 L 321.5,234.1 L 323.7,235.6 L 324.0,236.3 L 323.7,237.3 L 322.2,238.3 L 320.9,239.0 L 320.3,239.8 L 321.0,241.2 L 322.0,241.8 L 323.4,244.5 L 325.1,245.6 L 327.3,246.0 L 331.1,245.6 L 331.8,246.4 L 333.6,247.4 L 334.9,251.7 L 335.8,252.1 L 336.8,252.9 L 338.3,256.0 L 338.1,258.5 L 337.0,260.0 L 333.6,263.8 L 329.5,266.4 L 328.7,266.6 L 327.5,264.8 L 326.8,264.1 L 325.8,264.0 L 325.2,264.5 L 325.5,265.8 L 325.3,266.6 L 324.3,267.3 L 321.0,266.7 L 319.8,266.1 L 315.5,263.5 L 313.5,263.1 L 308.4,262.9 L 305.1,262.4 L 304.4,261.9 L 304.2,259.6 L 304.0,258.8 L 303.0,258.8 L 302.1,258.3 L 301.7,257.3 L 302.8,254.7 L 303.6,251.3 L 304.7,249.3 L 306.1,248.0 L 306.6,247.4 L 306.1,246.3 L 304.0,245.5 L 303.4,244.3 L 301.5,242.8 L 298.5,239.2 L 297.7,238.4 L 292.6,238.9 L 287.5,239.1 L 285.7,240.0 L 284.0,242.1 L 279.7,243.2 L 278.0,243.4 L 276.6,242.1 L 271.6,242.7 L 268.9,243.6 L 267.0,245.2 L 263.8,246.4 L 258.7,247.5 L 253.7,248.4 L 248.7,248.6 L 246.9,248.1 L 242.2,246.0 L 241.0,244.6 L 239.1,242.6 L 237.3,242.2 L 235.6,242.7 L 233.7,242.0 L 231.5,242.0 L 230.4,242.5 L 229.8,243.9 L 227.8,245.0 L 227.4,245.6 L 228.4,248.0 L 228.4,249.2 L 228.4,250.2 L 229.5,251.1 L 231.1,252.5 L 231.4,253.6 L 231.2,254.1 L 228.4,253.9 L 226.2,252.1 L 222.5,251.1 L 219.6,250.6 L 218.4,251.0 L 218.1,251.9 L 218.5,252.8 L 219.9,253.4 L 221.0,254.1 L 221.1,254.6 L 219.7,255.3 L 219.3,255.6 L 219.6,257.3 L 219.6,258.1 L 218.7,258.0 L 217.2,256.2 L 216.1,255.1 L 214.7,254.7 L 214.5,254.3 L 215.0,253.7 L 215.3,252.8 L 213.6,247.9 L 212.6,246.9 L 211.1,244.3 L 208.1,240.4 L 206.5,239.3 L 205.5,238.6 L 204.9,235.0 L 204.4,234.3 L 200.0,233.9 L 198.8,234.4 L 197.7,236.2 L 197.3,236.5 L 196.5,236.2 L 196.0,234.8 L 193.9,234.2 L 193.0,232.4 L 192.0,231.9 L 188.9,231.6 L 183.9,231.7 L 182.2,232.3 L 180.6,234.3 L 178.3,236.1 L 175.7,239.0 L 175.1,239.2 L 174.3,238.6 L 173.2,238.3 L 172.5,238.7 L 172.5,239.9 L 173.1,240.7 L 174.2,240.8 L 175.7,240.7 L 176.8,242.1 L 179.1,242.8 L 183.2,243.3 L 184.2,243.8 L 184.6,244.9 L 184.3,246.8 L 183.3,247.6 L 181.5,247.7 L 178.9,247.9 L 175.4,247.5 L 174.4,246.4 L 172.4,245.3 L 170.7,245.2 L 170.0,244.6 L 169.0,244.1 L 166.8,244.0 L 164.8,244.3 L 163.7,245.6 L 162.3,246.1 L 159.2,247.0 L 157.7,247.0 L 155.2,246.6 L 153.3,247.9 L 152.5,248.6 L 152.3,250.0 L 153.0,251.1 L 153.0,251.7 L 151.6,252.9 L 149.7,252.7 L 149.0,253.1 L 148.7,255.0 L 145.4,256.2 L 141.4,254.8 L 137.5,253.1 L 134.8,251.1 L 131.1,247.6 L 129.3,246.1 L 127.3,245.0 L 122.9,242.4 L 121.6,242.3 L 116.6,241.9 L 116.1,241.3 L 115.0,239.9 L 111.6,238.8 L 111.3,238.0 L 110.0,237.0 L 108.7,237.0 L 107.7,236.9 L 107.6,235.6 L 107.1,234.7 L 105.8,234.0 L 103.5,233.9 L 98.3,234.8 L 96.8,234.8 L 95.7,234.7 L 90.7,234.1 L 85.8,233.4 L 81.0,233.5 L 75.8,233.1 L 72.5,233.4 L 67.6,233.6 L 63.3,233.3 L 60.6,233.2 L 58.9,233.1" fill="none" stroke="black" stroke-width="2"/>
</svg>