<?xml version="1.0" encoding="UTF-8"?>
<svg width="400" height="400" viewBox="0 0 400 400" xmlns="http://www.w3.org/2000/svg">
  <rect width="400" height="400" fill="white"/>
  <path d="M 126.4,237.4 L 129.0,233.8 L 133.1,228.9 L 139.4,217.5 L 141.8,210.1 L 142.6,196.9 L 142.6,190.3 L 142.0,188.6 L 142.1,188.3 L 144.0,184.8 L 146.7,173.8 L 149.4,173.0 L 154.4,172.8 L 158.0,169.8 L 160.5,167.7 L 167.7,165.1 L 171.0,161.4 L 176.6,153.6 L 176.5,147.7 L 175.0,142.2 L 176.5,140.4 L 177.7,138.5 L 179.7,130.7 L 181.4,126.9 L 185.4,119.3 L 187.8,118.2 L 193.8,117.1 L 200.6,112.4 L 204.8,108.8 L 210.8,105.1 L 212.7,102.2 L 214.8,97.5 L 219.3,95.9 L 226.1,93.2 L 236.1,88.8 L 239.4,85.4 L 243.0,81.8 L 248.9,79.0 L 252.0,78.3 L 263.2,71.7 L 273.9,66.4 L 279.8,63.6 L 291.9,57.7 L 302.1,51.3 L 306.0,48.4 L 316.8,41.7 L 318.8,40.0 L 319.6,40.8 L 322.8,44.5 L 320.8,45.4 L 316.5,49.3 L 316.6,52.0 L 318.8,53.5 L 323.6,54.9 L 329.6,54.5 L 331.4,54.0 L 341.8,65.6 L 341.4,66.5 L 332.0,75.6 L 327.3,80.4 L 322.9,88.0 L 323.3,95.0 L 325.6,98.8 L 332.8,106.8 L 332.9,109.4 L 330.9,113.9 L 328.4,115.3 L 320.4,116.2 L 316.9,114.9 L 312.4,113.2 L 308.9,111.9 L 305.7,110.3 L 303.7,110.8 L 300.5,116.8 L 298.1,121.2 L 286.9,127.8 L 275.1,134.0 L 272.4,135.1 L 269.6,136.2 L 265.2,137.4 L 263.8,137.6 L 263.2,137.2 L 255.2,141.2 L 248.7,148.2 L 245.1,151.2 L 240.6,152.8 L 235.2,154.3 L 228.9,157.7 L 221.0,160.9 L 217.7,165.3 L 212.5,175.1 L 209.7,176.8 L 205.5,179.1 L 202.5,182.8 L 198.1,195.3 L 192.7,207.1 L 192.9,212.7 L 194.1,213.5 L 198.2,212.5 L 203.8,209.1 L 209.8,208.6 L 214.6,209.7 L 223.7,205.2 L 229.4,200.8 L 233.7,200.2 L 240.6,201.1 L 243.1,203.0 L 244.4,206.4 L 247.3,207.7 L 255.1,209.0 L 256.3,210.8 L 257.8,215.9 L 259.7,216.7 L 265.7,216.0 L 268.2,218.2 L 269.3,220.6 L 268.4,226.8 L 265.2,229.8 L 259.9,232.7 L 250.2,233.8 L 240.7,236.6 L 236.1,235.8 L 229.9,238.6 L 224.3,239.0 L 215.4,242.2 L 212.1,244.9 L 210.4,250.0 L 207.0,254.0 L 202.5,257.0 L 199.8,260.7 L 198.6,263.6 L 192.9,267.4 L 188.5,268.6 L 182.9,272.4 L 177.9,276.3 L 167.2,283.9 L 156.9,291.9 L 153.3,295.9 L 149.0,302.5 L 147.6,307.6 L 142.8,316.8 L 142.4,328.4 L 143.3,340.0 L 140.8,353.1 L 139.2,356.2 L 135.9,359.6 L 133.3,360.0 L 126.7,359.1 L 124.3,356.5 L 121.3,352.6 L 118.5,350.7 L 116.2,350.9 L 112.2,351.2 L 105.4,352.5 L 96.0,354.3 L 85.9,356.4 L 80.3,355.9 L 72.5,351.2 L 72.2,346.6 L 72.5,339.3 L 70.6,334.5 L 70.4,329.8 L 68.8,329.4 L 66.4,330.1 L 65.2,332.4 L 62.5,340.7 L 59.9,343.8 L 58.6,342.7 L 58.6,339.1 L 58.2,333.4 L 59.3,320.9 L 62.4,315.2 L 69.5,306.9 L 75.6,301.8 L 80.1,298.9 L 87.7,288.4 L 94.1,276.7 L 100.9,267.4 L 110.3,258.3 L 115.9,251.2 L 119.7,245.5 L 123.4,241.6 L 126.4,237.4" fill="none" stroke="black" stroke-width="2"/>
</svg>