<?xml version="1.0" encoding="UTF-8"?>
<svg width="400" height="400" viewBox="0 0 400 400" xmlns="http://www.w3.org/2000/svg">
  <rect width="400" height="400" fill="white"/>
  <path d="M 116.2,197.7 L 116.7,197.5 L 117.1,197.2 L 117.2,197.1 L 116.9,196.9 L 115.9,196.8 L 115.7,196.3 L 115.8,196.1 L 116.2,196.0 L 116.6,195.9 L 116.7,195.6 L 116.7,195.1 L 116.9,194.7 L 117.0,194.8 L 117.5,195.2 L 118.0,195.2 L 118.2,195.2 L 118.9,196.1 L 119.4,196.2 L 121.1,196.3 L 121.7,196.0 L 122.0,195.6 L 122.3,195.1 L 122.8,195.0 L 123.6,194.9 L 124.1,194.4 L 124.4,194.0 L 125.0,194.0 L 126.2,194.0 L 127.8,193.9 L 128.3,193.9 L 129.2,194.1 L 130.7,193.9 L 131.2,193.6 L 131.7,193.3 L 133.3,192.6 L 134.1,192.4 L 134.7,192.0 L 136.1,191.7 L 136.5,191.4 L 137.3,190.8 L 138.6,189.7 L 139.9,189.0 L 140.0,188.7 L 140.0,188.5 L 140.7,187.8 L 141.4,187.0 L 142.3,186.5 L 144.0,186.0 L 145.6,185.5 L 146.8,184.8 L 148.3,184.1 L 148.9,183.9 L 149.6,183.9 L 150.7,183.2 L 152.1,182.1 L 153.6,181.1 L 155.1,180.2 L 156.1,179.3 L 156.6,178.9 L 157.7,178.5 L 158.1,178.1 L 158.4,177.2 L 158.7,176.6 L 159.3,175.9 L 160.1,175.5 L 160.9,175.1 L 161.3,174.6 L 161.6,173.6 L 161.6,173.2 L 161.5,172.7 L 161.7,171.4 L 161.7,170.8 L 161.5,170.4 L 160.9,169.6 L 161.2,169.4 L 192.9,141.2 L 193.3,140.8 L 193.7,140.9 L 194.3,141.3 L 194.6,141.5 L 194.7,141.4 L 195.0,140.9 L 195.5,140.6 L 195.9,140.3 L 196.2,140.1 L 196.8,139.9 L 197.1,139.6 L 197.2,139.5 L 197.6,139.2 L 198.1,139.2 L 199.5,139.7 L 199.5,139.8 L 199.5,139.8 L 198.4,140.3 L 198.3,140.5 L 198.6,141.1 L 198.9,141.2 L 199.8,140.9 L 200.7,140.8 L 201.7,140.0 L 201.7,140.0 L 201.8,139.6 L 201.3,138.9 L 200.9,138.7 L 199.7,138.6 L 199.1,138.5 L 199.0,138.4 L 199.6,137.9 L 199.7,137.7 L 199.6,137.4 L 199.1,136.7 L 197.9,136.3 L 197.0,136.0 L 196.9,135.6 L 197.0,135.1 L 197.1,135.0 L 197.4,135.2 L 197.8,135.7 L 198.6,136.1 L 199.2,136.1 L 199.7,136.2 L 199.9,136.3 L 200.0,136.0 L 199.9,135.8 L 199.2,135.2 L 198.9,134.8 L 198.8,134.3 L 198.6,134.0 L 197.9,133.8 L 197.6,134.0 L 199.9,132.3 L 208.4,126.0 L 212.3,123.1 L 213.0,123.3 L 213.3,123.2 L 213.8,122.2 L 214.0,121.8 L 214.4,121.7 L 214.7,121.5 L 215.1,121.0 L 215.5,120.8 L 215.8,120.9 L 216.0,122.0 L 216.2,122.3 L 216.5,122.2 L 216.7,121.9 L 217.0,121.1 L 217.3,120.3 L 217.9,119.0 L 217.8,118.1 L 217.4,117.4 L 217.3,117.1 L 217.1,116.6 L 216.9,116.2 L 215.5,116.1 L 215.1,116.0 L 215.1,115.8 L 215.6,115.6 L 215.9,115.3 L 216.9,115.1 L 217.1,114.9 L 217.2,114.6 L 253.5,101.8 L 253.8,101.7 L 254.0,102.3 L 255.1,102.9 L 256.1,103.0 L 256.7,103.2 L 257.3,103.3 L 258.2,103.7 L 259.0,103.9 L 260.8,103.8 L 261.3,103.8 L 261.7,103.8 L 262.2,103.9 L 262.5,103.8 L 262.8,103.8 L 263.3,103.4 L 263.7,102.7 L 264.7,101.6 L 265.0,101.6 L 265.9,101.8 L 266.8,102.0 L 267.0,102.1 L 267.2,102.3 L 266.4,102.8 L 266.4,103.2 L 266.2,103.6 L 267.1,103.8 L 267.3,103.9 L 267.5,103.7 L 267.5,103.5 L 268.1,103.8 L 268.1,104.1 L 268.7,104.3 L 268.8,104.5 L 267.9,104.7 L 267.3,104.8 L 266.7,105.1 L 266.3,105.1 L 266.0,105.6 L 265.8,105.8 L 265.7,106.0 L 265.7,106.6 L 265.8,106.7 L 266.2,106.6 L 266.4,106.8 L 266.5,107.3 L 266.8,107.2 L 267.8,106.7 L 268.6,106.4 L 268.8,106.4 L 269.0,106.3 L 269.3,106.2 L 270.1,106.4 L 270.6,106.1 L 271.0,105.9 L 271.4,106.3 L 272.0,106.0 L 272.0,105.9 L 271.9,105.7 L 272.3,105.0 L 272.6,104.9 L 272.7,104.6 L 272.7,103.9 L 272.9,104.0 L 273.1,104.2 L 273.9,104.2 L 274.5,103.9 L 274.8,104.0 L 276.4,104.7 L 276.3,104.8 L 274.6,104.8 L 274.2,104.9 L 273.9,105.1 L 274.0,105.2 L 274.0,105.3 L 273.6,105.5 L 272.9,105.6 L 272.6,106.0 L 272.7,106.1 L 273.1,106.2 L 273.0,106.4 L 272.5,106.5 L 271.5,106.7 L 271.0,106.8 L 270.7,106.9 L 270.8,107.0 L 270.9,107.2 L 270.3,107.9 L 270.5,108.1 L 271.1,108.5 L 271.7,108.5 L 272.0,108.4 L 272.4,107.9 L 272.7,107.6 L 273.0,107.6 L 273.8,107.8 L 274.2,107.8 L 274.4,107.9 L 274.2,108.2 L 273.8,108.2 L 273.5,108.4 L 273.1,108.2 L 272.9,108.4 L 272.5,109.1 L 272.1,110.3 L 271.9,110.6 L 272.1,110.8 L 272.7,111.0 L 273.0,110.8 L 273.6,110.2 L 274.2,109.5 L 274.7,109.4 L 274.8,109.0 L 274.9,108.8 L 275.1,108.5 L 275.2,108.3 L 275.7,108.1 L 276.0,107.9 L 276.2,108.1 L 276.1,108.6 L 275.5,109.8 L 275.0,109.9 L 274.4,110.2 L 274.1,110.3 L 274.0,110.6 L 274.2,111.5 L 275.0,112.2 L 275.2,112.4 L 276.2,112.4 L 276.4,112.4 L 277.0,112.6 L 277.6,112.6 L 277.9,112.2 L 278.4,112.0 L 278.6,111.8 L 278.8,111.7 L 278.9,111.7 L 279.4,111.9 L 285.6,114.7 L 285.6,114.8 L 285.7,115.0 L 285.9,114.9 L 296.1,119.6 L 296.0,119.6 L 296.2,120.1 L 296.6,120.2 L 297.0,120.2 L 297.2,120.1 L 307.1,124.7 L 307.3,124.8 L 307.1,124.7 L 307.0,125.0 L 307.1,125.2 L 307.1,125.2 L 307.1,125.5 L 306.9,125.6 L 306.7,125.7 L 306.4,126.0 L 305.9,125.8 L 305.8,126.0 L 306.1,126.3 L 306.0,126.4 L 305.7,126.5 L 305.8,126.7 L 306.1,126.8 L 306.7,126.6 L 306.8,126.7 L 306.7,126.8 L 306.4,126.9 L 306.5,127.0 L 306.9,126.9 L 307.2,126.8 L 307.6,127.2 L 307.9,127.3 L 308.2,127.3 L 308.4,127.4 L 308.7,127.5 L 309.2,128.2 L 309.6,128.6 L 309.5,128.6 L 308.8,128.4 L 308.3,128.1 L 307.4,128.3 L 307.4,128.5 L 307.4,128.8 L 307.2,128.9 L 306.3,128.7 L 306.3,128.4 L 306.6,128.2 L 306.4,128.0 L 306.0,128.0 L 305.8,128.2 L 305.8,128.3 L 305.5,128.4 L 305.5,128.7 L 305.9,129.3 L 306.9,129.7 L 306.4,129.8 L 305.7,129.8 L 305.7,129.9 L 306.4,130.1 L 307.6,130.5 L 307.6,130.7 L 307.3,131.1 L 307.5,131.2 L 309.3,131.5 L 310.0,131.6 L 311.0,131.9 L 311.8,132.1 L 312.7,131.9 L 313.0,133.8 L 312.5,133.7 L 311.8,134.0 L 311.6,134.1 L 312.0,134.6 L 312.3,135.1 L 312.6,135.4 L 312.5,135.6 L 312.3,135.5 L 312.0,135.3 L 311.4,134.3 L 310.7,134.3 L 310.6,134.6 L 310.4,134.9 L 310.1,135.1 L 309.4,135.1 L 308.4,135.0 L 307.1,135.3 L 306.4,135.4 L 306.1,135.6 L 306.0,136.0 L 306.1,136.1 L 306.2,136.7 L 306.3,137.0 L 306.7,137.0 L 307.3,137.3 L 307.1,137.6 L 306.8,137.5 L 306.3,137.5 L 306.3,138.3 L 306.5,138.5 L 307.2,138.7 L 307.3,138.4 L 308.2,138.8 L 308.5,139.3 L 309.6,139.6 L 310.3,139.8 L 310.6,139.8 L 310.3,139.3 L 310.2,139.1 L 310.3,138.9 L 310.5,139.2 L 310.9,139.8 L 311.2,140.0 L 311.7,139.9 L 312.4,140.1 L 312.8,140.2 L 313.4,140.3 L 313.6,140.2 L 312.9,139.3 L 312.9,139.0 L 313.2,139.2 L 313.4,139.4 L 313.6,139.5 L 314.4,140.0 L 314.4,139.0 L 314.7,139.1 L 315.1,139.5 L 315.2,139.8 L 315.2,140.1 L 315.8,140.2 L 317.6,140.3 L 317.8,140.1 L 360.0,170.4 L 359.0,170.5 L 245.3,176.2 L 245.2,176.3 L 245.4,175.9 L 245.3,175.3 L 244.9,174.3 L 244.5,174.2 L 244.0,174.7 L 243.6,174.8 L 243.0,174.6 L 242.6,174.5 L 241.7,174.0 L 241.5,173.7 L 241.4,172.9 L 241.6,173.0 L 242.9,173.2 L 243.7,173.2 L 244.1,173.1 L 244.1,172.8 L 243.8,172.5 L 242.2,171.8 L 241.5,171.6 L 240.9,171.6 L 240.4,171.8 L 240.2,172.3 L 239.6,173.1 L 239.5,173.5 L 239.6,174.3 L 240.1,175.0 L 240.1,175.4 L 239.8,175.3 L 238.7,174.6 L 238.3,174.5 L 237.7,174.7 L 237.5,174.9 L 238.0,175.5 L 238.1,175.7 L 238.2,176.1 L 238.9,176.6 L 239.2,176.9 L 239.3,177.7 L 240.0,178.5 L 239.4,178.9 L 238.6,178.2 L 237.9,178.0 L 237.1,177.9 L 237.1,178.3 L 237.5,180.0 L 237.6,180.2 L 233.4,183.2 L 233.2,183.0 L 232.7,182.5 L 232.2,182.4 L 231.8,182.5 L 230.7,183.4 L 229.9,184.1 L 229.2,184.7 L 228.8,185.3 L 228.7,185.9 L 228.9,186.3 L 229.0,186.3 L 199.9,207.2 L 162.6,233.9 L 162.2,233.1 L 161.4,231.9 L 160.9,231.7 L 160.6,231.7 L 160.1,232.1 L 159.8,232.5 L 159.9,232.8 L 160.6,233.8 L 161.0,234.3 L 161.3,234.4 L 162.0,234.3 L 116.2,267.0 L 116.2,267.0 L 115.0,266.6 L 114.5,266.6 L 113.8,267.2 L 113.7,267.4 L 114.3,267.8 L 114.7,268.1 L 114.7,268.1 L 112.4,269.8 L 112.2,269.9 L 112.1,269.8 L 111.7,268.9 L 111.3,268.7 L 110.7,268.7 L 109.0,268.9 L 108.7,268.9 L 108.4,269.1 L 108.4,269.5 L 108.5,270.0 L 108.7,270.3 L 109.2,270.6 L 109.3,270.9 L 109.2,271.1 L 108.5,271.9 L 108.5,272.4 L 108.9,272.9 L 109.7,273.5 L 110.3,273.8 L 110.9,273.9 L 111.2,273.7 L 111.9,273.2 L 112.5,273.0 L 113.2,272.9 L 110.7,274.3 L 108.5,275.6 L 108.4,275.6 L 108.3,275.6 L 106.5,276.7 L 106.5,276.7 L 106.5,276.0 L 106.4,275.9 L 106.3,275.8 L 104.5,276.0 L 104.2,276.1 L 103.5,276.6 L 103.1,276.7 L 102.1,276.3 L 100.9,276.4 L 99.9,276.7 L 99.2,277.0 L 97.5,277.4 L 96.3,277.8 L 94.9,278.3 L 93.7,279.4 L 94.3,279.6 L 94.6,280.1 L 95.1,280.2 L 95.6,280.1 L 96.4,279.7 L 97.8,279.6 L 98.3,279.0 L 97.7,278.7 L 97.4,278.5 L 97.5,278.4 L 98.0,278.1 L 99.2,278.2 L 100.6,278.4 L 101.4,278.1 L 101.9,277.6 L 102.3,277.2 L 102.6,277.2 L 102.9,277.6 L 103.2,278.2 L 103.5,278.3 L 89.0,286.5 L 89.0,286.4 L 88.5,286.4 L 87.6,286.8 L 87.7,286.9 L 87.7,287.2 L 86.4,287.9 L 86.3,288.0 L 84.9,288.0 L 83.2,288.3 L 82.5,288.3 L 80.8,287.7 L 79.1,287.8 L 77.8,287.7 L 77.0,287.4 L 76.7,287.6 L 76.2,287.8 L 74.6,287.9 L 74.5,287.7 L 74.4,287.2 L 74.1,287.0 L 73.9,287.2 L 74.0,287.6 L 74.1,288.0 L 73.6,288.6 L 72.9,288.9 L 72.2,289.2 L 70.9,290.4 L 70.6,291.3 L 70.6,291.9 L 71.0,292.9 L 71.2,293.5 L 71.3,293.9 L 71.2,294.4 L 70.8,295.4 L 70.4,296.1 L 70.4,296.4 L 70.9,296.9 L 71.7,297.3 L 71.9,297.5 L 72.0,297.7 L 66.1,298.4 L 66.0,298.4 L 66.0,297.8 L 65.8,297.6 L 65.2,297.3 L 65.2,296.9 L 65.5,295.9 L 66.1,295.4 L 66.6,294.5 L 66.7,293.8 L 66.4,293.3 L 66.3,292.7 L 65.9,292.2 L 65.7,292.2 L 65.2,292.5 L 63.7,292.9 L 62.4,293.2 L 61.9,293.1 L 61.7,293.1 L 61.2,293.4 L 60.2,293.4 L 60.0,293.1 L 60.1,293.0 L 60.7,292.7 L 61.9,292.4 L 62.4,292.2 L 63.3,291.8 L 63.9,291.4 L 65.4,291.1 L 66.5,290.4 L 67.4,289.5 L 67.7,288.8 L 67.9,287.6 L 67.8,286.8 L 67.5,285.5 L 67.5,284.0 L 67.1,283.6 L 66.6,283.3 L 66.3,283.1 L 66.0,282.9 L 65.0,283.3 L 64.8,283.2 L 64.5,282.3 L 64.1,282.3 L 63.8,282.8 L 63.2,283.0 L 62.8,283.0 L 62.2,283.1 L 62.0,282.9 L 61.8,282.7 L 61.2,283.0 L 60.2,283.1 L 59.9,283.0 L 59.9,282.8 L 60.1,282.5 L 60.0,282.3 L 59.2,282.2 L 59.0,281.9 L 59.0,281.3 L 58.9,280.9 L 58.6,280.7 L 58.4,280.8 L 58.3,281.1 L 58.3,281.4 L 58.4,281.7 L 58.2,281.8 L 57.7,281.9 L 57.3,282.2 L 56.7,282.1 L 56.5,281.8 L 56.1,280.3 L 55.8,280.1 L 54.7,279.8 L 53.5,279.5 L 53.3,279.4 L 52.9,279.3 L 52.3,279.0 L 51.5,278.9 L 50.5,278.9 L 48.6,280.5 L 47.2,280.0 L 45.7,279.7 L 45.1,279.4 L 44.1,278.5 L 43.0,278.0 L 41.4,277.2 L 40.7,277.1 L 40.1,277.0 L 40.0,276.9 L 40.6,276.2 L 41.0,276.0 L 42.2,275.9 L 43.4,276.1 L 44.4,276.8 L 45.3,277.3 L 45.9,277.4 L 46.6,277.5 L 47.1,277.9 L 47.8,278.2 L 48.9,278.3 L 49.5,278.5 L 49.7,278.1 L 50.0,278.0 L 51.3,277.8 L 52.0,277.3 L 52.3,277.1 L 53.3,276.8 L 54.3,276.6 L 54.7,276.3 L 55.1,275.7 L 55.4,275.9 L 55.8,276.1 L 56.5,276.1 L 56.7,275.8 L 56.8,275.5 L 57.1,275.6 L 57.6,276.1 L 58.4,276.1 L 59.1,276.2 L 59.6,276.1 L 60.3,275.9 L 60.6,276.0 L 60.8,276.3 L 61.2,276.3 L 61.3,276.1 L 61.3,275.7 L 62.0,275.3 L 63.5,274.9 L 63.5,274.8 L 64.7,274.2 L 65.0,273.7 L 65.7,273.5 L 66.0,273.2 L 65.9,271.4 L 65.8,270.7 L 65.6,270.4 L 65.7,270.2 L 66.4,270.2 L 66.5,271.1 L 66.9,271.7 L 67.4,272.4 L 67.9,272.3 L 69.3,271.8 L 69.6,271.2 L 69.9,269.9 L 69.4,269.3 L 67.9,269.5 L 67.8,269.1 L 68.1,269.0 L 68.8,268.6 L 69.1,268.2 L 69.3,267.9 L 69.3,266.8 L 69.0,266.2 L 68.7,265.9 L 68.0,265.8 L 68.0,265.4 L 68.2,265.0 L 68.1,264.5 L 68.5,264.3 L 69.6,264.0 L 70.0,263.1 L 70.1,261.6 L 70.3,261.0 L 70.3,260.3 L 69.7,259.1 L 68.9,258.2 L 68.5,257.7 L 67.8,257.1 L 67.4,256.4 L 67.4,256.3 L 115.6,198.4 L 116.2,197.7" fill="none" stroke="black" stroke-width="2"/>
</svg>