<?xml version="1.0" encoding="UTF-8"?>
<svg width="400" height="400" viewBox="0 0 400 400" xmlns="http://www.w3.org/2000/svg">
  <rect width="400" height="400" fill="white"/>
  <path d="M 143.2,196.9 L 143.3,196.8 L 177.0,175.8 L 177.0,175.8 L 177.1,176.1 L 177.5,176.2 L 178.2,176.0 L 178.9,175.9 L 179.5,175.7 L 180.3,175.7 L 180.7,176.0 L 180.9,176.8 L 181.3,177.3 L 181.6,177.3 L 182.1,177.1 L 182.2,177.1 L 182.7,177.3 L 183.3,177.4 L 183.3,177.8 L 183.7,178.1 L 184.3,177.8 L 184.5,177.9 L 184.7,178.2 L 185.3,178.1 L 185.7,177.7 L 185.9,177.0 L 186.3,176.3 L 186.9,175.7 L 187.6,175.5 L 188.2,175.5 L 187.7,173.9 L 187.6,173.2 L 187.7,172.4 L 187.9,172.2 L 189.0,172.0 L 190.0,171.4 L 191.0,170.6 L 192.1,170.0 L 192.3,169.5 L 192.2,169.1 L 190.8,168.3 L 190.0,167.5 L 190.1,167.1 L 190.8,166.5 L 191.2,166.3 L 191.6,166.0 L 191.7,166.0 L 191.7,166.7 L 192.0,166.7 L 192.4,166.1 L 192.9,166.4 L 193.0,166.9 L 193.4,166.8 L 194.8,165.9 L 196.0,164.7 L 196.2,163.8 L 196.3,162.9 L 196.4,162.8 L 197.2,162.9 L 197.2,163.1 L 197.0,163.7 L 197.2,163.9 L 197.5,163.8 L 197.7,164.0 L 197.4,164.3 L 197.4,164.5 L 197.7,164.9 L 197.9,164.8 L 198.1,164.2 L 198.5,163.7 L 198.5,163.5 L 198.2,163.4 L 198.1,162.8 L 198.3,162.4 L 199.2,162.4 L 200.3,161.1 L 200.7,160.8 L 201.1,160.3 L 201.2,160.1 L 202.2,158.8 L 202.6,158.1 L 202.8,157.2 L 203.0,155.6 L 203.5,154.2 L 203.5,153.9 L 203.2,153.3 L 203.5,152.8 L 204.0,152.9 L 209.1,153.3 L 209.2,153.3 L 209.0,153.7 L 209.3,153.9 L 209.6,154.5 L 210.1,154.5 L 210.5,154.2 L 210.6,152.9 L 211.1,152.3 L 211.2,152.3 L 211.3,152.7 L 211.4,152.8 L 211.6,152.8 L 211.8,152.5 L 211.9,152.0 L 212.2,151.9 L 212.3,152.1 L 212.8,152.0 L 213.6,151.2 L 213.9,150.7 L 214.0,150.5 L 214.3,150.7 L 214.7,150.7 L 215.3,150.2 L 216.3,148.3 L 216.8,148.0 L 217.1,147.0 L 217.0,146.8 L 217.2,146.7 L 219.6,144.7 L 219.8,144.6 L 219.9,144.5 L 219.9,144.5 L 243.1,125.4 L 243.3,125.6 L 243.6,125.7 L 243.9,125.6 L 244.0,125.2 L 243.8,125.0 L 243.6,125.0 L 248.1,121.3 L 248.2,121.3 L 248.6,121.4 L 249.0,121.2 L 248.8,120.7 L 249.6,120.0 L 250.2,120.2 L 250.4,120.4 L 250.2,120.7 L 250.5,120.6 L 250.4,120.2 L 251.4,119.8 L 251.5,119.4 L 251.4,119.2 L 250.8,118.5 L 251.0,118.1 L 251.8,119.6 L 252.3,119.6 L 253.4,119.0 L 253.8,118.7 L 253.9,118.4 L 254.0,118.3 L 254.5,118.4 L 254.7,118.3 L 255.0,118.1 L 254.5,117.4 L 254.8,116.8 L 254.7,116.0 L 254.6,115.5 L 254.7,115.1 L 255.0,114.8 L 255.0,114.6 L 256.2,113.5 L 256.3,113.5 L 256.4,113.4 L 301.9,76.3 L 310.3,69.4 L 346.5,162.4 L 360.0,197.0 L 302.0,221.2 L 187.0,269.2 L 167.4,277.4 L 106.5,302.9 L 72.0,317.3 L 47.1,327.8 L 43.6,330.6 L 40.1,325.8 L 40.0,325.7 L 40.1,325.7 L 40.7,325.4 L 41.6,325.0 L 42.4,324.6 L 43.2,324.2 L 43.8,324.5 L 44.0,324.5 L 44.4,324.3 L 44.7,324.0 L 45.6,323.8 L 45.9,323.6 L 46.3,323.4 L 46.7,323.3 L 47.5,322.8 L 48.0,322.5 L 48.4,322.4 L 48.8,322.1 L 49.0,322.0 L 49.2,321.9 L 49.9,321.5 L 50.3,321.1 L 50.8,320.7 L 51.3,320.4 L 51.3,320.3 L 51.5,320.1 L 52.0,319.9 L 52.2,319.7 L 52.5,319.6 L 53.1,319.2 L 53.9,318.7 L 54.2,318.5 L 54.6,318.2 L 55.2,317.6 L 55.9,317.0 L 56.3,316.7 L 56.9,316.4 L 57.4,316.0 L 57.9,315.6 L 58.5,314.9 L 59.2,314.3 L 59.7,313.9 L 60.3,313.5 L 60.7,313.4 L 61.2,313.1 L 61.7,312.7 L 62.2,312.5 L 62.9,312.0 L 63.4,311.7 L 63.7,311.5 L 64.3,311.1 L 64.4,310.9 L 64.7,310.8 L 65.4,310.7 L 65.8,310.7 L 66.4,310.6 L 66.8,310.5 L 67.1,310.2 L 67.7,309.6 L 68.4,309.0 L 68.8,308.8 L 69.5,308.3 L 70.1,307.9 L 70.7,307.4 L 70.8,307.4 L 71.6,306.9 L 72.3,306.4 L 73.2,306.0 L 73.8,305.7 L 74.3,305.3 L 74.6,305.1 L 75.0,304.8 L 75.7,304.2 L 76.1,303.7 L 76.6,303.0 L 77.0,302.5 L 77.4,301.9 L 77.8,301.4 L 78.3,300.7 L 78.6,300.2 L 79.0,299.8 L 79.5,299.1 L 80.2,298.5 L 80.6,298.1 L 80.8,297.9 L 81.3,297.1 L 81.7,296.4 L 82.3,295.7 L 82.9,295.1 L 83.6,294.6 L 84.3,294.0 L 85.0,293.5 L 85.5,292.9 L 86.0,292.5 L 86.7,291.9 L 87.1,291.6 L 87.5,291.1 L 88.2,290.5 L 88.7,289.9 L 89.3,289.2 L 89.7,288.6 L 89.9,288.3 L 90.6,287.8 L 91.0,287.4 L 91.4,287.2 L 91.7,287.0 L 92.4,286.4 L 92.8,286.1 L 92.9,285.8 L 93.6,285.2 L 94.2,284.6 L 94.7,283.9 L 95.1,283.4 L 95.4,282.6 L 95.4,282.5 L 95.8,282.4 L 96.4,281.7 L 97.1,281.1 L 97.4,280.7 L 97.4,280.6 L 97.3,280.4 L 97.3,280.4 L 97.5,280.3 L 97.9,279.7 L 98.3,278.9 L 98.6,278.0 L 98.9,277.2 L 99.2,276.6 L 99.4,275.9 L 99.9,275.2 L 100.3,274.8 L 101.0,274.2 L 101.7,273.6 L 102.2,273.2 L 102.7,272.6 L 103.0,271.8 L 103.1,271.1 L 103.1,270.9 L 103.3,270.7 L 103.5,270.3 L 104.0,269.5 L 104.4,269.1 L 104.6,269.0 L 105.1,268.5 L 105.9,268.1 L 106.6,267.6 L 107.2,267.2 L 107.7,266.7 L 108.3,266.1 L 109.0,265.5 L 109.4,264.1 L 109.6,264.0 L 110.1,263.7 L 111.1,263.4 L 112.7,262.3 L 113.4,261.6 L 114.3,260.4 L 114.8,259.5 L 115.5,258.7 L 117.2,256.1 L 118.2,254.0 L 119.2,252.1 L 120.6,250.0 L 121.4,248.9 L 122.9,245.7 L 123.9,243.8 L 124.7,242.9 L 125.1,242.5 L 127.2,241.7 L 128.1,241.6 L 128.6,242.0 L 128.7,242.1 L 129.1,242.4 L 129.2,242.6 L 129.6,243.0 L 130.0,242.9 L 130.4,242.5 L 131.1,242.2 L 132.1,241.3 L 132.4,240.7 L 131.8,239.8 L 131.9,239.6 L 132.9,239.7 L 133.1,239.3 L 133.4,238.4 L 133.6,237.3 L 133.7,236.8 L 134.1,236.5 L 133.8,235.1 L 133.9,234.5 L 133.7,234.1 L 133.4,234.1 L 132.8,234.7 L 132.3,234.1 L 132.3,233.7 L 132.4,232.0 L 132.8,230.7 L 133.3,230.1 L 133.7,229.9 L 134.5,229.7 L 135.4,229.6 L 135.5,229.4 L 135.2,229.0 L 135.3,228.8 L 135.7,229.2 L 136.5,228.9 L 137.0,228.4 L 137.0,228.0 L 136.6,227.8 L 135.2,227.8 L 134.8,227.5 L 134.4,227.1 L 134.0,225.4 L 133.9,223.7 L 133.9,222.3 L 133.8,221.7 L 134.4,220.2 L 135.0,218.7 L 135.9,217.2 L 136.5,215.9 L 138.3,213.6 L 139.2,212.2 L 140.2,210.2 L 140.6,208.9 L 141.0,207.0 L 141.7,205.7 L 142.5,204.7 L 142.9,203.4 L 143.8,201.7 L 144.2,200.5 L 144.3,198.5 L 144.0,197.6 L 143.4,196.9 L 143.2,196.9" fill="none" stroke="black" stroke-width="2"/>
</svg>