<?xml version="1.0" encoding="UTF-8"?>
<svg width="400" height="400" viewBox="0 0 400 400" xmlns="http://www.w3.org/2000/svg">
  <rect width="400" height="400" fill="white"/>
  <path d="M 103.5,306.9 L 106.9,305.1 L 110.9,303.5 L 112.4,302.1 L 113.4,300.2 L 114.2,299.8 L 115.4,299.6 L 118.9,297.6 L 120.9,297.6 L 122.2,296.8 L 122.8,295.9 L 123.3,294.6 L 124.4,294.0 L 125.8,293.5 L 127.6,291.9 L 128.1,290.6 L 127.5,289.5 L 126.9,288.7 L 126.6,287.7 L 125.3,285.9 L 125.1,285.1 L 124.5,283.9 L 124.0,281.1 L 122.8,280.0 L 123.2,276.0 L 124.1,275.2 L 126.0,275.3 L 128.7,274.2 L 131.7,272.7 L 134.2,271.6 L 139.6,270.3 L 142.5,269.0 L 142.7,268.9 L 144.4,267.6 L 146.0,265.5 L 150.6,261.8 L 152.0,259.3 L 151.9,258.3 L 151.7,257.6 L 152.1,256.9 L 151.9,256.2 L 151.0,255.8 L 151.0,255.0 L 151.3,254.9 L 151.8,254.3 L 152.7,252.7 L 153.2,252.1 L 153.4,251.2 L 154.3,250.3 L 154.4,249.4 L 154.2,249.0 L 153.8,249.3 L 152.9,249.4 L 152.0,250.1 L 151.9,251.7 L 150.6,253.7 L 147.7,253.8 L 147.5,253.3 L 147.8,252.6 L 149.1,251.2 L 149.0,249.9 L 147.8,250.0 L 145.6,251.5 L 144.1,251.5 L 144.0,251.5 L 143.7,251.2 L 144.2,250.1 L 144.7,249.0 L 144.4,248.5 L 144.4,248.5 L 143.1,248.2 L 143.9,246.9 L 143.5,246.5 L 141.3,246.3 L 141.6,245.8 L 143.1,245.1 L 143.1,244.4 L 142.7,244.0 L 142.7,243.3 L 144.9,240.3 L 144.9,239.9 L 143.9,239.7 L 143.8,239.2 L 142.3,240.1 L 141.1,240.7 L 140.5,239.7 L 142.4,237.8 L 143.9,236.7 L 143.9,235.9 L 142.0,235.4 L 141.9,234.2 L 141.2,233.8 L 141.9,231.7 L 141.5,230.9 L 139.8,230.6 L 137.7,231.4 L 137.2,230.7 L 136.1,230.4 L 136.2,229.1 L 137.0,228.1 L 137.1,226.7 L 136.4,226.3 L 134.2,225.8 L 131.5,225.9 L 132.2,224.1 L 132.1,223.5 L 131.1,223.4 L 129.6,223.8 L 128.5,224.6 L 128.5,225.6 L 127.5,227.5 L 126.5,229.0 L 123.0,231.1 L 121.0,232.0 L 119.4,232.0 L 118.4,231.3 L 117.5,230.3 L 116.4,229.4 L 116.1,228.4 L 117.7,226.5 L 118.5,225.9 L 119.4,224.7 L 119.2,224.0 L 117.9,223.7 L 116.7,224.0 L 114.9,223.9 L 114.2,224.4 L 112.7,224.0 L 111.5,224.2 L 110.5,225.1 L 108.9,225.3 L 106.8,225.9 L 103.2,228.1 L 101.7,229.6 L 100.9,230.3 L 99.8,232.2 L 97.7,232.9 L 97.2,233.8 L 95.7,234.5 L 93.0,235.0 L 89.9,237.0 L 88.7,236.8 L 87.1,237.1 L 84.1,238.5 L 82.4,239.6 L 80.5,239.6 L 79.5,240.2 L 78.8,241.6 L 77.4,243.1 L 76.3,243.3 L 75.3,244.1 L 73.9,244.1 L 73.4,243.6 L 73.3,241.7 L 72.8,240.4 L 72.9,239.5 L 73.2,238.5 L 73.7,235.1 L 74.2,234.6 L 74.5,234.9 L 75.5,234.9 L 78.1,233.2 L 80.4,232.5 L 81.3,231.4 L 84.3,231.0 L 90.0,227.5 L 91.0,225.8 L 91.5,225.5 L 92.5,225.7 L 93.3,226.4 L 93.7,226.7 L 94.1,226.6 L 94.7,226.1 L 95.6,225.9 L 96.7,224.8 L 98.5,225.0 L 102.2,222.7 L 103.9,221.5 L 106.1,221.7 L 106.5,222.1 L 107.4,222.6 L 109.3,221.7 L 110.3,220.1 L 109.4,219.9 L 108.4,218.4 L 108.7,216.7 L 110.8,211.9 L 111.8,211.7 L 112.3,211.5 L 113.0,210.1 L 114.1,209.9 L 114.9,209.3 L 115.0,208.4 L 114.5,207.8 L 113.4,207.3 L 110.2,208.7 L 108.5,208.8 L 107.5,207.9 L 107.1,206.7 L 107.2,205.7 L 108.1,204.8 L 109.6,203.9 L 109.7,202.9 L 110.3,202.8 L 112.2,202.9 L 116.9,201.0 L 118.7,199.9 L 120.9,197.5 L 121.7,195.5 L 121.5,195.0 L 119.5,194.8 L 119.3,194.3 L 119.4,193.8 L 119.8,193.4 L 120.0,193.1 L 119.7,192.8 L 118.8,193.1 L 117.2,194.0 L 115.9,194.0 L 114.4,193.4 L 114.5,192.4 L 114.3,192.0 L 113.7,191.8 L 110.2,192.5 L 109.2,193.8 L 108.3,193.8 L 107.3,193.3 L 105.4,190.1 L 105.1,188.9 L 104.5,188.2 L 103.9,187.3 L 102.7,187.1 L 102.5,187.5 L 102.8,189.9 L 102.6,191.1 L 103.5,193.7 L 103.8,196.6 L 103.5,198.3 L 102.6,199.1 L 100.6,199.9 L 97.3,200.4 L 95.1,202.7 L 92.7,204.1 L 91.1,204.3 L 90.0,203.8 L 90.1,202.9 L 90.4,202.6 L 90.8,201.5 L 90.6,201.0 L 89.9,200.9 L 89.2,201.5 L 86.7,202.1 L 85.6,202.7 L 83.1,206.0 L 82.6,206.1 L 82.2,205.6 L 81.8,206.7 L 81.0,207.6 L 78.8,209.0 L 77.7,209.1 L 76.2,208.5 L 74.7,208.3 L 73.0,208.7 L 69.1,208.9 L 65.7,209.6 L 63.2,210.4 L 61.4,211.8 L 59.0,212.7 L 54.3,214.3 L 51.3,215.8 L 48.9,216.7 L 47.9,217.7 L 47.3,220.0 L 47.6,221.6 L 48.6,223.4 L 48.5,224.1 L 47.9,225.0 L 47.5,226.5 L 47.3,228.8 L 47.9,232.6 L 49.0,234.6 L 49.1,236.4 L 50.3,237.4 L 51.3,238.6 L 51.3,240.6 L 51.2,240.6 L 46.6,241.5 L 46.6,241.5 L 46.6,237.1 L 45.9,235.2 L 46.2,232.8 L 46.6,230.8 L 46.6,228.9 L 46.1,226.6 L 46.0,224.8 L 45.0,223.3 L 43.4,221.8 L 42.0,220.2 L 41.2,219.8 L 41.0,218.6 L 40.8,218.5 L 40.0,217.5 L 41.0,215.3 L 42.9,213.1 L 44.1,213.2 L 44.1,212.7 L 43.7,211.7 L 44.4,209.9 L 46.4,208.1 L 46.8,207.8 L 49.6,205.2 L 50.0,205.1 L 51.1,205.5 L 52.6,206.5 L 53.9,206.1 L 56.0,204.0 L 57.1,202.6 L 58.9,202.5 L 59.7,202.2 L 61.2,201.8 L 61.6,200.8 L 64.3,200.1 L 66.7,200.0 L 68.7,199.6 L 70.9,199.7 L 72.6,201.1 L 73.3,200.8 L 74.9,199.1 L 76.0,197.6 L 76.1,197.4 L 78.0,195.4 L 79.3,194.7 L 81.1,194.2 L 82.4,192.9 L 82.5,192.0 L 82.0,191.6 L 82.0,190.9 L 82.5,190.6 L 83.7,191.1 L 85.0,190.8 L 85.8,190.3 L 86.2,189.3 L 85.8,188.9 L 85.1,188.7 L 84.7,188.5 L 83.0,188.1 L 82.3,187.7 L 81.8,186.7 L 82.1,184.9 L 82.6,184.5 L 84.2,184.5 L 84.9,183.4 L 84.8,183.0 L 83.9,183.0 L 83.1,183.3 L 82.5,182.7 L 82.0,181.2 L 82.4,180.5 L 82.2,179.7 L 82.2,179.2 L 83.4,177.5 L 84.4,177.5 L 84.4,176.2 L 83.5,175.6 L 83.4,174.7 L 84.6,173.0 L 85.9,172.4 L 87.0,174.5 L 87.5,174.7 L 88.3,174.5 L 89.6,174.5 L 91.0,175.6 L 93.0,176.2 L 95.5,176.2 L 97.6,174.8 L 98.6,174.4 L 102.0,171.2 L 103.0,171.0 L 104.1,171.3 L 105.8,171.1 L 108.6,169.3 L 109.4,167.8 L 111.0,166.3 L 111.2,165.8 L 117.6,164.9 L 118.3,167.1 L 118.7,168.0 L 119.3,168.7 L 119.8,169.1 L 120.4,169.5 L 121.0,169.4 L 121.3,169.1 L 121.5,168.6 L 121.6,167.7 L 121.3,167.2 L 120.8,166.6 L 120.5,165.8 L 120.0,165.1 L 119.6,164.4 L 119.2,162.8 L 118.9,161.8 L 119.2,160.9 L 119.8,160.2 L 120.5,159.6 L 121.1,159.3 L 121.7,159.3 L 122.3,156.6 L 120.6,155.2 L 119.4,153.7 L 117.3,152.6 L 115.3,150.2 L 115.4,149.2 L 114.7,148.7 L 114.4,148.9 L 113.8,149.0 L 113.1,148.7 L 112.0,148.6 L 111.6,147.7 L 110.9,144.6 L 111.6,142.7 L 112.3,142.2 L 115.5,141.9 L 124.9,140.5 L 125.4,140.3 L 126.6,140.0 L 129.3,139.1 L 134.6,137.7 L 136.2,137.7 L 137.1,136.9 L 138.7,136.7 L 142.5,135.6 L 143.6,135.4 L 144.7,136.1 L 144.8,137.8 L 148.1,139.6 L 149.6,139.4 L 154.8,142.8 L 155.7,142.8 L 157.1,142.0 L 158.4,142.3 L 159.8,141.6 L 160.1,140.5 L 160.9,139.8 L 165.7,138.9 L 166.2,138.4 L 165.3,137.3 L 164.3,133.3 L 164.7,132.5 L 165.2,132.0 L 166.7,131.7 L 168.3,130.6 L 169.5,130.1 L 170.2,130.4 L 171.2,130.7 L 172.9,130.7 L 173.9,130.5 L 174.1,131.0 L 175.5,132.1 L 176.0,132.3 L 176.9,133.4 L 177.1,134.5 L 177.5,135.2 L 179.4,135.4 L 180.5,136.0 L 181.5,136.2 L 182.0,136.5 L 182.0,137.4 L 181.6,138.6 L 179.4,140.0 L 177.9,140.6 L 177.1,141.3 L 177.3,141.8 L 180.4,142.3 L 180.8,142.7 L 181.9,142.0 L 182.8,141.8 L 183.9,142.0 L 184.3,142.4 L 184.9,144.0 L 184.9,145.1 L 182.2,146.6 L 180.9,149.0 L 179.8,150.6 L 175.7,153.9 L 173.1,157.0 L 172.9,159.2 L 173.5,160.1 L 173.9,160.6 L 175.0,161.2 L 177.3,161.4 L 177.8,161.7 L 177.8,162.7 L 176.9,164.0 L 176.7,164.7 L 177.3,165.3 L 179.2,165.0 L 181.3,166.1 L 182.4,166.1 L 183.5,165.8 L 184.5,166.0 L 187.6,166.2 L 191.5,165.0 L 194.6,164.3 L 196.8,164.5 L 197.6,164.8 L 200.2,165.7 L 202.1,167.0 L 204.1,167.0 L 206.3,166.4 L 211.1,164.4 L 212.9,164.1 L 214.4,163.3 L 216.7,163.4 L 218.4,164.8 L 221.4,165.0 L 225.1,164.1 L 228.0,161.4 L 228.6,160.5 L 229.9,159.0 L 233.0,158.2 L 234.7,157.2 L 235.3,156.6 L 237.8,155.2 L 239.0,153.9 L 241.4,151.7 L 242.7,151.3 L 245.1,150.0 L 247.8,147.4 L 249.0,145.0 L 250.0,144.0 L 250.5,142.1 L 251.7,141.1 L 252.7,139.8 L 253.9,139.3 L 255.9,139.8 L 257.5,141.0 L 259.0,141.0 L 261.6,139.7 L 262.2,139.4 L 265.2,137.3 L 265.9,137.0 L 266.4,136.4 L 268.4,136.0 L 269.5,134.4 L 272.4,132.3 L 274.2,131.5 L 275.2,130.6 L 277.6,128.0 L 279.2,127.1 L 284.1,121.9 L 294.0,112.4 L 294.8,111.9 L 296.5,110.2 L 300.5,107.8 L 303.0,105.8 L 305.5,104.4 L 307.3,102.8 L 309.6,101.4 L 313.9,99.9 L 316.7,99.0 L 318.1,99.0 L 319.2,97.7 L 320.3,96.9 L 322.0,96.0 L 324.0,95.1 L 325.0,95.8 L 325.6,96.5 L 329.3,94.8 L 332.0,93.2 L 336.0,91.9 L 341.2,89.3 L 344.2,88.2 L 347.1,88.0 L 348.7,88.1 L 348.7,89.0 L 346.6,92.5 L 344.0,95.6 L 340.9,98.4 L 339.3,98.9 L 337.9,98.4 L 337.4,98.6 L 337.0,99.6 L 335.3,102.5 L 333.6,103.4 L 332.5,104.8 L 331.1,107.1 L 330.5,109.6 L 329.2,112.3 L 327.8,113.5 L 326.1,114.1 L 324.4,115.1 L 322.4,117.3 L 320.2,118.3 L 319.1,118.1 L 318.3,119.3 L 312.9,122.1 L 309.8,123.3 L 308.3,124.4 L 305.8,125.4 L 304.6,126.3 L 303.9,126.5 L 303.7,126.2 L 303.3,126.1 L 301.3,127.1 L 296.5,130.4 L 293.3,132.9 L 292.2,133.8 L 291.4,135.3 L 290.8,135.9 L 288.2,137.6 L 287.0,138.9 L 286.9,141.1 L 287.1,141.9 L 287.6,141.6 L 288.1,141.2 L 288.3,140.8 L 288.7,141.2 L 289.4,141.3 L 291.4,141.4 L 292.7,142.4 L 293.8,141.7 L 295.4,141.8 L 296.9,142.6 L 302.1,142.9 L 303.4,142.2 L 306.0,140.1 L 307.4,139.5 L 310.4,137.7 L 313.0,137.1 L 314.9,136.2 L 317.1,134.8 L 318.4,134.7 L 319.2,135.2 L 319.7,137.0 L 321.5,137.3 L 321.9,137.5 L 321.9,138.2 L 321.6,139.0 L 319.5,140.9 L 318.3,141.8 L 318.0,142.9 L 316.0,143.6 L 314.0,143.7 L 313.5,144.7 L 313.2,145.5 L 312.5,146.2 L 311.8,146.5 L 311.0,147.1 L 309.5,148.0 L 308.0,149.2 L 306.9,149.9 L 306.1,150.6 L 305.4,151.3 L 304.1,151.3 L 303.0,151.2 L 302.2,151.8 L 302.0,152.5 L 301.2,153.2 L 298.5,154.0 L 295.0,156.6 L 292.7,159.3 L 291.9,161.7 L 291.2,162.9 L 290.4,164.1 L 287.2,165.8 L 285.7,166.9 L 284.8,168.1 L 285.0,168.9 L 286.0,170.6 L 287.3,171.5 L 288.4,171.8 L 290.8,171.3 L 292.0,171.4 L 293.4,171.7 L 295.1,173.1 L 296.6,174.0 L 296.4,175.2 L 295.4,176.0 L 295.3,176.7 L 295.9,177.3 L 297.7,177.1 L 300.7,176.0 L 302.2,175.7 L 303.2,174.7 L 303.8,173.5 L 305.0,172.2 L 306.3,171.9 L 308.0,172.5 L 307.9,173.3 L 307.6,173.5 L 307.6,174.6 L 308.0,175.3 L 309.5,175.0 L 311.1,174.3 L 312.2,174.1 L 313.6,175.0 L 314.0,175.8 L 313.5,177.5 L 314.0,178.0 L 315.9,177.4 L 317.7,175.9 L 318.7,174.8 L 318.8,174.0 L 318.7,173.7 L 317.6,173.4 L 317.2,174.0 L 315.5,175.3 L 314.8,175.5 L 314.6,174.9 L 314.7,174.5 L 318.2,170.9 L 319.2,170.7 L 320.7,169.1 L 321.8,168.1 L 323.3,165.9 L 326.0,163.3 L 327.0,161.7 L 327.9,160.8 L 330.6,160.5 L 335.5,159.3 L 339.4,156.4 L 341.2,155.7 L 343.4,156.0 L 345.0,157.0 L 346.3,158.6 L 346.4,158.7 L 347.1,162.0 L 347.3,163.5 L 346.2,164.5 L 346.2,165.2 L 346.7,165.7 L 347.1,166.5 L 346.8,167.7 L 346.2,168.8 L 345.3,169.6 L 343.5,171.4 L 342.5,172.1 L 340.7,173.0 L 337.3,173.8 L 336.4,174.8 L 332.3,177.1 L 331.0,177.5 L 329.8,177.2 L 328.3,176.9 L 327.5,177.6 L 326.2,178.2 L 325.7,179.7 L 325.0,181.3 L 321.5,184.6 L 320.4,185.0 L 316.0,185.0 L 314.4,185.6 L 310.5,187.0 L 309.0,188.2 L 306.9,188.6 L 303.3,190.2 L 299.9,192.1 L 298.0,194.1 L 297.9,196.0 L 298.1,197.6 L 297.8,198.1 L 297.7,198.6 L 298.7,198.3 L 298.9,198.5 L 298.9,199.3 L 298.5,200.3 L 297.3,201.1 L 296.8,201.8 L 295.4,203.3 L 295.2,203.4 L 294.5,204.6 L 295.4,205.6 L 295.5,206.8 L 295.7,207.3 L 297.4,206.9 L 298.5,205.6 L 300.3,205.2 L 301.1,205.2 L 302.3,205.9 L 303.6,205.9 L 304.5,205.3 L 305.7,205.3 L 307.4,204.2 L 308.5,203.3 L 312.0,201.4 L 314.2,201.1 L 315.2,200.7 L 318.1,198.6 L 320.1,198.2 L 322.7,196.6 L 323.2,195.9 L 323.6,194.9 L 326.5,192.8 L 327.5,192.3 L 329.4,190.2 L 330.4,189.6 L 331.4,189.7 L 331.9,190.1 L 332.5,191.1 L 334.2,190.7 L 336.0,189.9 L 337.3,188.5 L 338.7,187.9 L 340.8,186.7 L 343.3,184.9 L 343.7,183.5 L 343.9,181.2 L 344.4,180.1 L 344.4,180.0 L 344.8,179.8 L 346.0,180.5 L 348.6,180.4 L 348.8,180.9 L 349.2,180.9 L 349.7,180.7 L 350.9,181.1 L 351.6,181.4 L 351.8,181.5 L 353.4,181.5 L 355.3,180.4 L 356.6,180.1 L 357.6,180.5 L 358.3,181.6 L 359.9,182.2 L 360.0,182.9 L 358.9,185.2 L 357.6,186.9 L 357.6,188.2 L 355.2,191.2 L 354.3,193.3 L 353.6,193.9 L 352.3,194.0 L 351.4,193.6 L 350.8,193.0 L 350.0,192.2 L 348.6,192.3 L 347.6,192.4 L 346.8,192.2 L 346.4,191.9 L 346.5,191.0 L 347.3,190.6 L 347.5,189.6 L 347.3,189.1 L 346.3,188.9 L 345.8,189.1 L 345.6,190.7 L 345.2,191.1 L 343.3,191.5 L 342.0,191.8 L 338.5,193.7 L 337.0,194.1 L 335.3,195.7 L 333.4,197.1 L 332.6,197.8 L 332.4,198.5 L 331.7,199.3 L 331.2,199.4 L 330.0,199.0 L 328.9,199.3 L 326.2,199.2 L 325.6,200.2 L 324.7,200.8 L 321.5,202.4 L 320.4,203.5 L 319.1,205.0 L 317.1,206.6 L 315.1,207.4 L 312.8,207.4 L 311.3,207.9 L 309.8,209.4 L 308.3,209.8 L 306.9,211.0 L 306.8,212.0 L 307.4,213.7 L 307.0,218.0 L 306.8,218.6 L 306.7,219.4 L 306.5,221.2 L 307.7,225.0 L 307.6,225.0 L 298.4,226.1 L 298.0,225.1 L 296.6,224.6 L 296.6,223.7 L 296.1,223.8 L 294.9,224.5 L 293.5,226.9 L 293.2,226.9 L 293.0,225.8 L 292.7,225.7 L 291.3,226.9 L 290.6,227.0 L 289.5,226.5 L 288.0,226.6 L 286.8,226.4 L 284.8,226.9 L 283.9,226.0 L 283.7,225.3 L 283.8,223.2 L 283.3,222.0 L 282.8,221.8 L 281.6,222.1 L 281.3,222.5 L 278.7,223.1 L 277.8,223.9 L 276.7,223.4 L 276.0,224.5 L 274.9,224.7 L 274.3,225.4 L 273.9,225.5 L 273.4,224.9 L 272.9,224.8 L 271.4,226.0 L 270.7,226.3 L 270.5,226.0 L 270.9,225.1 L 270.2,224.9 L 268.3,226.8 L 268.2,227.7 L 268.8,228.8 L 269.1,231.0 L 269.6,232.2 L 269.7,232.9 L 269.2,233.4 L 268.5,233.4 L 268.6,232.4 L 267.8,232.2 L 267.0,232.6 L 266.7,233.3 L 265.0,234.9 L 264.9,235.5 L 265.4,236.0 L 265.5,237.2 L 266.2,237.7 L 267.3,237.5 L 269.4,236.4 L 269.7,236.4 L 269.4,237.7 L 268.3,238.3 L 268.1,241.0 L 266.9,242.6 L 266.5,245.5 L 265.5,246.1 L 264.6,247.0 L 264.4,248.4 L 264.9,249.2 L 264.7,251.4 L 265.5,252.1 L 267.0,252.1 L 268.3,251.2 L 268.9,251.4 L 269.0,251.9 L 267.7,252.9 L 266.9,253.2 L 266.0,254.4 L 265.8,255.1 L 266.5,256.2 L 265.0,257.3 L 264.9,257.3 L 263.3,256.9 L 261.9,254.8 L 260.8,254.4 L 257.6,254.0 L 257.0,253.9 L 256.5,253.3 L 256.1,252.5 L 254.6,251.7 L 254.4,250.1 L 253.3,249.3 L 252.0,248.2 L 250.0,246.8 L 249.3,245.0 L 248.9,243.2 L 249.5,242.3 L 249.7,242.1 L 249.7,241.1 L 248.2,239.3 L 247.1,239.0 L 246.3,238.1 L 245.7,236.1 L 245.4,234.5 L 244.6,233.7 L 242.7,233.5 L 239.8,233.5 L 239.6,233.3 L 241.7,231.6 L 241.5,231.1 L 240.7,231.3 L 237.6,231.4 L 236.9,230.5 L 237.0,230.0 L 238.2,228.5 L 237.8,227.5 L 236.7,227.6 L 236.0,227.2 L 233.7,227.3 L 233.4,226.9 L 232.9,226.6 L 230.1,228.3 L 228.2,230.2 L 227.3,231.9 L 226.8,234.4 L 226.1,234.6 L 225.8,233.2 L 224.7,232.8 L 224.6,233.3 L 224.1,234.0 L 223.4,234.1 L 223.1,233.5 L 223.5,232.4 L 223.4,231.6 L 222.4,230.8 L 222.3,230.3 L 222.1,230.2 L 218.3,231.5 L 215.8,231.4 L 214.8,232.4 L 213.7,232.5 L 212.7,233.3 L 212.0,233.7 L 211.5,234.5 L 210.6,235.2 L 207.5,236.8 L 205.7,238.1 L 204.8,239.8 L 204.2,239.9 L 203.4,239.1 L 202.3,239.2 L 201.8,239.6 L 200.9,240.9 L 200.2,241.0 L 198.9,239.4 L 198.4,238.2 L 198.8,237.9 L 199.6,237.7 L 201.1,236.3 L 201.1,235.8 L 200.2,236.0 L 198.7,236.8 L 196.0,237.5 L 191.6,240.0 L 190.7,240.8 L 188.8,242.5 L 188.6,243.0 L 190.5,243.2 L 190.6,243.7 L 190.4,243.9 L 188.8,245.4 L 187.6,248.9 L 184.9,250.8 L 184.2,251.7 L 181.8,252.0 L 179.2,253.8 L 177.5,254.6 L 176.0,255.5 L 175.2,256.6 L 175.4,257.0 L 176.8,257.0 L 177.5,256.8 L 184.5,253.4 L 185.2,253.8 L 185.0,255.9 L 184.2,257.2 L 181.5,259.5 L 177.8,261.7 L 177.0,262.6 L 178.0,265.2 L 178.8,266.2 L 181.8,266.8 L 183.2,268.0 L 183.1,268.8 L 181.7,269.5 L 181.6,269.9 L 181.9,270.0 L 182.7,269.8 L 183.3,269.9 L 183.4,270.3 L 182.2,271.0 L 182.0,272.0 L 180.6,274.6 L 180.4,275.4 L 180.7,276.1 L 180.7,277.5 L 182.1,278.4 L 182.0,279.4 L 180.9,281.4 L 181.6,282.1 L 182.1,281.9 L 183.2,281.9 L 184.1,282.9 L 185.4,283.4 L 186.2,284.2 L 176.2,286.0 L 175.6,286.1 L 175.4,285.8 L 175.6,283.3 L 174.7,282.7 L 172.7,280.2 L 169.2,279.7 L 168.8,279.2 L 168.8,276.4 L 168.5,275.6 L 166.9,275.5 L 165.8,276.3 L 164.1,276.3 L 161.7,277.6 L 161.0,278.7 L 159.9,278.7 L 159.0,278.3 L 158.8,277.8 L 158.1,277.9 L 157.4,278.3 L 157.0,278.0 L 157.2,274.7 L 156.9,274.6 L 155.9,275.0 L 152.9,276.6 L 152.4,279.4 L 151.5,282.7 L 150.4,283.9 L 148.7,284.8 L 147.7,285.8 L 146.7,287.2 L 146.6,288.7 L 147.5,289.8 L 148.1,290.8 L 147.7,292.0 L 144.3,295.1 L 142.8,297.0 L 141.4,298.0 L 139.7,299.6 L 139.1,300.2 L 136.8,302.0 L 135.0,302.9 L 133.3,302.9 L 131.1,302.5 L 130.1,301.9 L 130.1,300.4 L 129.4,300.2 L 128.1,300.3 L 127.0,299.3 L 126.1,299.2 L 125.7,299.5 L 124.9,300.9 L 124.1,303.2 L 123.3,304.1 L 120.5,305.3 L 119.2,306.4 L 116.7,308.1 L 115.6,308.5 L 114.1,308.8 L 110.8,312.0 L 110.8,312.0 L 110.7,312.0 L 103.5,306.9" fill="none" stroke="black" stroke-width="2"/>
</svg>