<?xml version="1.0" encoding="UTF-8"?>
<svg width="400" height="400" viewBox="0 0 400 400" xmlns="http://www.w3.org/2000/svg">
  <rect width="400" height="400" fill="white"/>
  <path d="M 185.4,225.0 L 185.7,224.4 L 186.3,222.3 L 186.3,221.7 L 186.5,220.9 L 186.6,220.8 L 186.7,219.5 L 186.4,218.7 L 185.6,217.7 L 184.1,215.2 L 183.2,213.2 L 183.1,212.9 L 183.0,212.4 L 182.9,211.2 L 183.0,208.5 L 182.2,205.6 L 182.0,205.1 L 181.7,204.1 L 181.1,201.0 L 180.3,199.7 L 179.4,198.8 L 178.2,196.8 L 178.0,196.2 L 177.5,193.8 L 177.1,192.9 L 176.2,190.4 L 175.7,189.2 L 175.0,188.2 L 174.3,187.3 L 174.2,187.1 L 173.9,186.5 L 173.4,185.4 L 171.6,183.5 L 170.9,182.4 L 170.5,180.9 L 170.5,178.9 L 170.6,178.2 L 171.2,177.4 L 171.4,175.6 L 171.2,175.2 L 171.5,174.1 L 172.2,173.9 L 172.4,174.5 L 172.8,174.7 L 172.5,174.0 L 172.2,173.7 L 171.7,173.6 L 171.5,173.3 L 171.3,171.8 L 171.2,171.3 L 171.3,170.8 L 171.8,169.9 L 171.8,169.0 L 171.7,168.3 L 171.2,167.4 L 168.1,166.3 L 167.6,165.9 L 167.5,165.2 L 167.3,164.6 L 166.7,163.8 L 166.1,163.7 L 165.5,163.9 L 164.6,164.0 L 162.3,163.0 L 161.9,163.3 L 161.3,164.7 L 161.0,165.1 L 160.0,165.1 L 159.4,164.6 L 159.2,164.6 L 158.3,164.0 L 157.3,163.8 L 156.4,163.9 L 156.0,164.2 L 155.8,164.6 L 156.1,166.8 L 155.8,166.8 L 155.5,167.0 L 155.1,167.4 L 153.0,168.3 L 152.3,168.3 L 151.0,168.1 L 150.9,168.0 L 150.2,167.5 L 150.0,166.9 L 149.4,166.8 L 148.6,166.7 L 147.8,166.2 L 146.7,166.0 L 145.5,164.6 L 145.0,164.3 L 144.3,163.7 L 143.7,163.5 L 142.3,162.6 L 141.3,161.6 L 140.5,160.2 L 140.3,159.3 L 139.9,156.2 L 139.5,154.9 L 139.1,154.1 L 138.8,153.2 L 138.8,151.4 L 139.0,150.7 L 139.1,150.6 L 139.1,150.2 L 138.6,149.7 L 137.9,149.5 L 137.3,148.0 L 137.3,148.0 L 137.3,147.5 L 136.8,145.9 L 136.5,144.9 L 136.1,144.1 L 135.2,142.6 L 134.7,141.2 L 133.9,137.7 L 133.3,137.0 L 131.4,136.4 L 131.5,135.6 L 131.2,135.1 L 131.1,134.5 L 131.3,134.1 L 132.6,133.0 L 132.7,132.7 L 131.9,130.9 L 131.0,127.4 L 130.0,125.7 L 129.5,125.2 L 128.9,124.4 L 128.7,123.5 L 128.7,122.3 L 128.3,121.3 L 128.2,119.5 L 128.3,118.4 L 128.0,117.7 L 127.3,116.8 L 126.8,116.0 L 126.1,115.8 L 125.9,115.5 L 126.0,114.9 L 126.4,114.1 L 126.3,113.4 L 125.9,112.6 L 125.2,111.6 L 125.2,111.5 L 124.4,111.1 L 123.2,110.8 L 123.0,110.5 L 121.2,108.8 L 120.9,108.2 L 119.9,107.7 L 118.3,107.4 L 117.1,106.6 L 115.6,104.9 L 115.2,104.0 L 114.4,101.9 L 114.0,101.4 L 113.3,101.6 L 112.3,101.4 L 111.1,100.7 L 110.9,100.1 L 111.1,99.9 L 111.2,99.6 L 111.5,98.1 L 112.0,98.0 L 112.6,98.1 L 113.2,98.4 L 113.3,97.5 L 112.7,95.0 L 112.6,93.2 L 112.8,90.0 L 112.5,89.0 L 111.6,86.3 L 111.7,85.4 L 112.2,85.0 L 112.7,85.0 L 113.4,85.4 L 114.7,86.5 L 115.2,86.8 L 116.1,87.7 L 116.3,87.7 L 117.3,87.3 L 117.8,85.6 L 118.3,85.4 L 118.9,85.3 L 119.3,84.8 L 120.0,82.4 L 120.0,82.1 L 119.8,81.6 L 118.6,80.1 L 117.8,79.8 L 117.2,79.1 L 116.9,79.1 L 116.6,79.1 L 115.7,78.6 L 114.4,78.2 L 113.3,77.3 L 112.7,76.9 L 112.4,76.6 L 112.0,74.1 L 111.1,73.1 L 111.2,71.8 L 110.8,70.7 L 110.0,68.9 L 109.9,67.9 L 109.6,67.5 L 108.8,67.1 L 108.0,66.3 L 108.1,65.5 L 109.0,64.6 L 109.3,64.1 L 109.1,63.7 L 108.3,63.2 L 107.7,62.4 L 107.7,61.6 L 107.5,61.1 L 107.8,60.5 L 108.6,59.6 L 108.7,59.1 L 108.3,58.7 L 106.3,58.0 L 104.3,56.2 L 104.3,55.4 L 104.0,54.9 L 104.0,54.2 L 104.1,53.1 L 103.9,52.7 L 104.3,51.8 L 104.8,51.4 L 105.1,51.0 L 105.0,48.6 L 105.2,47.7 L 105.5,47.2 L 105.5,45.3 L 106.4,44.4 L 107.7,44.3 L 107.9,44.0 L 108.1,43.1 L 109.2,42.0 L 109.3,41.2 L 110.0,40.7 L 111.5,40.1 L 112.0,40.0 L 112.4,40.3 L 112.8,40.8 L 113.0,41.0 L 113.6,40.7 L 114.2,40.2 L 114.8,40.6 L 115.2,41.2 L 115.8,41.4 L 116.7,42.5 L 117.5,43.0 L 118.7,43.0 L 119.4,42.1 L 119.6,42.0 L 120.8,40.9 L 125.1,42.5 L 125.9,43.9 L 127.4,44.8 L 128.1,45.6 L 128.5,46.6 L 128.7,47.4 L 128.8,48.3 L 129.6,50.5 L 129.9,51.9 L 129.8,53.4 L 129.9,54.7 L 130.2,56.1 L 130.3,56.7 L 131.3,58.9 L 132.0,59.9 L 132.5,59.9 L 133.0,60.4 L 133.6,60.8 L 134.1,61.7 L 134.2,63.1 L 134.0,65.3 L 133.2,67.1 L 133.2,68.2 L 133.7,68.7 L 135.1,69.8 L 135.9,71.2 L 137.9,72.9 L 138.7,73.2 L 140.8,73.3 L 142.8,74.0 L 143.4,74.8 L 144.0,74.6 L 144.3,74.8 L 144.5,74.4 L 144.3,73.5 L 144.7,72.1 L 144.8,71.1 L 145.2,69.4 L 145.9,68.7 L 147.0,68.5 L 147.3,68.6 L 147.5,69.3 L 147.7,70.1 L 148.1,70.6 L 148.7,70.6 L 149.2,70.2 L 149.4,69.4 L 149.7,68.0 L 150.3,66.6 L 150.9,65.9 L 151.2,66.0 L 151.7,66.5 L 151.9,66.3 L 153.0,65.5 L 153.2,64.7 L 153.1,63.2 L 153.4,62.2 L 153.9,61.6 L 154.2,61.5 L 155.4,60.4 L 156.1,59.3 L 156.3,59.2 L 156.4,59.5 L 155.9,60.2 L 155.4,61.2 L 154.4,62.2 L 153.9,63.3 L 153.8,64.0 L 153.9,64.5 L 154.5,65.7 L 154.7,66.5 L 155.1,67.4 L 155.6,68.1 L 156.2,68.2 L 156.6,68.0 L 157.3,67.9 L 157.6,68.2 L 157.7,68.6 L 157.3,69.0 L 156.5,69.3 L 156.0,69.7 L 155.9,70.4 L 157.2,71.3 L 158.0,72.3 L 158.0,73.4 L 160.1,77.1 L 162.1,80.9 L 163.1,81.8 L 163.9,82.2 L 164.8,82.1 L 165.4,82.6 L 165.5,85.8 L 166.4,89.8 L 167.8,92.6 L 168.3,93.0 L 168.7,93.2 L 169.9,93.2 L 170.1,93.2 L 170.9,93.2 L 171.6,93.6 L 172.0,94.3 L 172.0,94.9 L 171.6,95.7 L 171.6,97.4 L 174.1,101.2 L 174.5,102.2 L 174.8,103.0 L 175.3,103.6 L 175.9,104.0 L 176.6,104.0 L 177.2,104.3 L 178.0,105.4 L 178.5,105.6 L 179.1,105.6 L 179.5,105.8 L 180.3,105.8 L 181.2,105.1 L 182.2,105.2 L 183.3,105.3 L 183.8,105.5 L 184.3,105.5 L 184.3,105.5 L 184.6,105.7 L 185.5,106.9 L 185.5,108.7 L 185.7,109.2 L 186.3,109.8 L 186.6,110.5 L 187.2,111.1 L 188.0,112.3 L 188.2,112.3 L 189.3,113.2 L 189.6,113.8 L 190.3,114.6 L 192.3,117.6 L 193.3,119.1 L 194.0,120.0 L 195.1,120.8 L 196.0,121.9 L 196.5,122.8 L 196.7,123.1 L 197.7,123.4 L 198.4,123.8 L 198.8,124.7 L 200.0,126.0 L 200.5,127.2 L 201.1,127.6 L 201.8,128.6 L 202.9,129.7 L 203.2,130.0 L 203.3,130.1 L 203.9,131.3 L 204.9,132.1 L 205.1,132.5 L 205.8,132.9 L 209.6,135.6 L 211.1,137.1 L 212.6,137.4 L 213.1,138.0 L 213.3,138.5 L 213.6,138.8 L 215.1,139.6 L 216.0,140.0 L 216.2,140.3 L 216.9,141.1 L 217.9,142.6 L 218.4,143.2 L 218.8,143.4 L 220.0,142.8 L 220.2,142.8 L 220.3,142.7 L 220.7,143.4 L 221.4,143.4 L 225.5,146.1 L 228.0,146.4 L 228.7,146.5 L 230.1,147.7 L 231.1,148.5 L 233.5,149.9 L 234.8,151.2 L 236.5,152.6 L 239.2,155.7 L 240.4,156.7 L 243.0,159.2 L 244.8,161.1 L 245.0,161.1 L 247.5,164.2 L 247.9,164.7 L 248.1,164.7 L 248.0,164.8 L 250.0,167.2 L 250.1,167.3 L 250.5,168.4 L 250.7,168.5 L 251.0,168.6 L 251.3,168.9 L 252.2,169.5 L 253.2,170.1 L 254.1,170.6 L 254.9,170.9 L 255.8,171.4 L 256.5,171.6 L 256.8,171.7 L 257.4,171.9 L 258.4,171.9 L 259.3,171.8 L 260.3,171.5 L 260.9,171.2 L 261.9,170.7 L 262.8,170.2 L 263.0,170.1 L 263.0,169.9 L 263.4,169.7 L 263.7,169.8 L 264.0,170.0 L 264.3,170.1 L 264.5,169.9 L 264.6,169.7 L 264.6,169.1 L 264.9,168.4 L 265.3,167.9 L 265.7,167.2 L 266.5,166.7 L 266.7,166.7 L 267.0,166.8 L 267.6,166.9 L 267.6,166.9 L 268.2,167.1 L 269.1,167.6 L 269.9,167.8 L 270.0,168.0 L 270.0,169.1 L 269.8,169.6 L 269.7,170.0 L 269.8,170.2 L 270.1,170.3 L 270.3,170.3 L 270.5,170.2 L 270.7,169.7 L 271.1,169.4 L 271.7,169.1 L 272.0,169.2 L 272.7,169.0 L 273.4,168.8 L 273.9,168.9 L 274.1,168.8 L 274.5,168.5 L 274.6,168.2 L 275.0,168.3 L 276.0,168.6 L 276.6,168.7 L 277.1,168.6 L 277.2,168.6 L 277.3,168.8 L 277.4,169.1 L 277.3,169.2 L 277.1,169.4 L 277.1,169.6 L 277.4,170.1 L 277.8,170.7 L 278.5,171.2 L 278.6,171.4 L 279.1,172.0 L 279.2,172.1 L 280.1,172.2 L 280.3,172.6 L 280.8,172.9 L 281.5,172.7 L 281.6,172.7 L 282.1,172.4 L 282.3,172.3 L 284.0,172.5 L 284.7,172.8 L 285.0,173.7 L 285.4,175.9 L 285.9,177.0 L 286.8,177.5 L 288.1,178.7 L 289.8,179.4 L 290.9,180.1 L 291.6,181.2 L 292.2,181.9 L 293.0,181.9 L 293.6,181.6 L 294.0,181.7 L 294.7,182.5 L 295.6,183.1 L 296.1,183.1 L 281.8,200.0 L 280.3,201.8 L 280.1,201.2 L 279.4,199.4 L 279.2,199.2 L 278.8,198.9 L 278.1,198.6 L 277.5,198.0 L 277.2,197.1 L 276.1,195.7 L 275.9,195.0 L 273.6,193.3 L 272.0,192.9 L 271.4,192.4 L 270.8,192.3 L 268.0,190.1 L 267.0,189.8 L 266.4,189.5 L 266.0,189.6 L 266.0,189.6 L 264.6,188.7 L 262.5,186.5 L 261.0,185.1 L 259.8,184.4 L 259.2,184.5 L 258.9,184.8 L 259.2,185.8 L 260.0,186.8 L 260.3,187.7 L 260.2,188.6 L 260.0,189.4 L 259.4,190.2 L 259.3,190.5 L 259.0,190.9 L 258.1,191.2 L 257.9,192.0 L 257.5,192.3 L 257.0,192.6 L 256.9,193.1 L 257.0,193.9 L 255.5,193.6 L 251.1,192.8 L 250.7,191.1 L 249.4,188.0 L 248.5,186.6 L 247.5,185.5 L 246.6,184.9 L 246.0,185.2 L 244.7,185.2 L 244.1,184.7 L 244.0,184.5 L 243.3,184.0 L 242.9,183.8 L 242.6,184.0 L 242.9,185.4 L 242.3,185.8 L 242.2,186.1 L 242.5,187.6 L 242.4,188.2 L 242.0,188.7 L 241.9,190.0 L 242.4,191.4 L 244.0,193.6 L 245.3,194.8 L 247.0,196.2 L 247.3,196.6 L 247.2,196.6 L 246.2,197.0 L 246.1,196.9 L 246.1,196.6 L 246.0,196.2 L 245.7,196.2 L 245.5,196.9 L 245.5,197.3 L 236.7,200.9 L 236.8,200.4 L 236.5,198.9 L 235.7,196.5 L 235.0,195.2 L 234.2,193.6 L 234.1,193.1 L 233.8,192.1 L 233.5,191.2 L 233.1,190.5 L 232.7,188.2 L 231.3,186.3 L 230.8,185.9 L 229.5,184.7 L 229.2,184.4 L 228.2,183.2 L 227.1,182.9 L 226.0,182.5 L 225.8,181.5 L 225.9,179.1 L 225.6,178.0 L 225.2,177.3 L 224.6,176.6 L 224.5,176.0 L 224.8,175.0 L 224.6,173.8 L 224.4,172.2 L 223.9,171.4 L 223.9,170.7 L 223.3,170.1 L 221.4,169.3 L 220.0,168.4 L 219.2,167.5 L 218.6,167.1 L 217.5,166.0 L 217.2,164.8 L 217.1,164.1 L 217.6,163.5 L 218.2,163.2 L 219.1,163.1 L 219.5,163.2 L 219.7,162.9 L 219.5,162.0 L 218.4,160.1 L 217.9,160.2 L 217.9,157.8 L 217.6,157.0 L 217.1,156.4 L 216.7,156.1 L 215.8,155.2 L 215.6,155.4 L 216.0,158.1 L 216.0,158.9 L 215.7,158.9 L 215.1,158.5 L 214.6,157.8 L 214.6,157.7 L 213.8,156.9 L 213.1,155.9 L 212.7,154.3 L 212.3,153.7 L 212.1,153.5 L 211.9,153.5 L 211.5,153.7 L 211.1,153.9 L 211.0,154.2 L 211.3,154.5 L 211.3,155.6 L 211.5,156.9 L 211.7,157.4 L 211.7,159.0 L 212.0,159.8 L 212.5,160.8 L 213.5,162.3 L 213.8,162.6 L 214.0,163.9 L 214.1,163.9 L 214.5,164.7 L 214.7,165.1 L 214.6,167.0 L 214.4,167.4 L 214.4,167.9 L 215.2,171.4 L 215.5,172.3 L 216.6,173.7 L 216.7,174.9 L 217.2,177.4 L 218.9,181.2 L 219.7,183.5 L 221.3,186.7 L 222.0,189.8 L 222.3,190.5 L 222.7,192.3 L 223.1,193.2 L 223.9,194.2 L 225.2,196.7 L 225.9,199.7 L 226.2,200.6 L 226.6,201.3 L 227.6,202.2 L 228.0,203.0 L 228.2,203.4 L 229.0,206.1 L 229.5,206.9 L 230.0,208.0 L 230.5,210.4 L 230.4,211.3 L 230.6,212.1 L 231.1,212.9 L 231.5,213.8 L 231.5,216.6 L 231.6,217.4 L 232.0,217.8 L 232.9,218.1 L 233.7,220.1 L 234.3,221.0 L 234.6,221.0 L 245.2,256.4 L 266.0,325.5 L 266.0,325.5 L 265.3,325.7 L 264.5,325.8 L 263.8,326.8 L 263.0,328.6 L 262.4,330.2 L 261.9,333.0 L 261.7,335.6 L 261.8,338.4 L 261.7,339.9 L 261.2,341.0 L 260.7,342.7 L 259.9,344.3 L 259.6,345.4 L 259.2,346.3 L 259.0,347.2 L 259.0,347.5 L 259.2,349.4 L 258.6,350.4 L 258.4,351.7 L 258.1,352.3 L 257.9,353.1 L 257.1,354.2 L 257.0,355.3 L 257.0,355.3 L 257.1,356.1 L 257.1,357.2 L 256.8,358.2 L 256.1,359.0 L 255.4,359.6 L 254.3,359.6 L 254.1,359.7 L 254.1,359.7 L 251.9,359.8 L 251.0,359.9 L 250.0,359.9 L 249.0,360.0 L 247.7,360.0 L 243.7,358.7 L 242.6,357.9 L 241.9,357.5 L 240.9,355.3 L 240.5,354.3 L 240.2,353.5 L 239.6,349.9 L 240.1,349.6 L 240.2,349.6 L 240.1,349.2 L 240.1,349.1 L 239.6,349.0 L 239.3,346.1 L 239.3,345.0 L 239.1,344.2 L 239.1,343.6 L 238.8,342.2 L 238.5,341.5 L 238.4,341.0 L 238.2,338.6 L 238.0,336.9 L 238.1,335.2 L 238.4,334.0 L 238.5,332.6 L 238.6,332.0 L 238.8,332.0 L 239.5,332.0 L 239.5,331.6 L 238.8,331.5 L 238.4,331.0 L 238.1,330.5 L 238.0,329.6 L 237.4,328.4 L 237.4,327.3 L 237.5,326.9 L 237.4,325.9 L 237.4,325.5 L 237.6,325.3 L 238.1,325.0 L 238.8,324.6 L 239.3,324.1 L 239.4,323.8 L 239.3,323.5 L 239.2,323.2 L 239.0,323.2 L 239.0,323.5 L 238.9,323.8 L 238.6,324.1 L 237.8,324.7 L 236.9,325.2 L 236.5,325.2 L 236.1,325.2 L 235.8,325.3 L 235.6,325.1 L 235.4,324.9 L 235.2,324.1 L 235.0,323.2 L 234.9,322.7 L 234.8,322.2 L 234.9,322.1 L 235.8,321.6 L 236.7,321.3 L 237.7,321.6 L 238.3,321.9 L 238.7,322.4 L 238.9,322.8 L 239.2,322.8 L 239.2,322.7 L 239.2,322.5 L 238.8,321.8 L 238.5,321.5 L 237.8,321.2 L 237.2,321.0 L 236.8,321.0 L 236.4,320.6 L 236.1,320.6 L 235.6,320.7 L 235.0,320.9 L 234.3,321.0 L 234.1,320.9 L 233.4,320.1 L 232.7,319.3 L 232.6,318.9 L 232.6,318.3 L 232.8,317.6 L 232.7,316.8 L 232.7,316.5 L 232.6,315.4 L 232.5,314.8 L 231.9,313.9 L 231.5,313.3 L 231.1,312.9 L 231.0,312.4 L 231.0,311.9 L 231.4,311.7 L 232.4,311.2 L 232.9,311.0 L 233.7,310.8 L 234.6,310.4 L 234.8,310.2 L 235.0,309.4 L 235.1,309.0 L 235.1,308.7 L 234.8,307.8 L 234.6,306.8 L 234.6,305.7 L 234.6,305.4 L 234.4,305.0 L 234.2,304.6 L 234.0,304.3 L 233.7,303.8 L 233.2,303.3 L 232.5,302.4 L 231.7,301.6 L 231.4,301.0 L 230.6,300.3 L 230.0,299.4 L 229.9,299.2 L 229.8,299.1 L 229.6,298.5 L 229.3,298.0 L 228.9,297.5 L 228.5,297.2 L 228.3,296.9 L 228.4,295.8 L 228.5,294.8 L 228.7,293.8 L 229.1,292.8 L 229.2,292.2 L 229.3,291.3 L 229.1,291.1 L 228.8,290.8 L 228.3,290.8 L 227.2,290.8 L 226.6,290.9 L 225.5,291.0 L 224.5,291.2 L 224.4,291.3 L 224.4,291.5 L 224.6,291.5 L 225.2,291.5 L 226.3,291.4 L 227.4,291.2 L 228.2,291.2 L 228.1,291.7 L 227.7,292.7 L 227.5,293.7 L 227.2,294.7 L 226.9,295.7 L 226.7,296.2 L 226.4,296.3 L 225.4,296.6 L 224.3,296.8 L 223.7,297.1 L 223.5,297.2 L 223.5,297.4 L 223.7,297.6 L 224.5,297.8 L 225.5,298.0 L 226.4,298.2 L 226.7,298.4 L 226.6,298.7 L 226.4,298.9 L 226.3,299.0 L 225.9,298.9 L 225.5,298.8 L 225.0,298.6 L 224.2,298.4 L 223.4,298.1 L 223.0,297.8 L 222.7,297.5 L 222.7,297.4 L 222.9,297.0 L 222.8,296.8 L 222.6,296.8 L 222.0,297.0 L 221.0,297.2 L 219.9,297.5 L 219.8,297.6 L 219.8,297.8 L 220.0,298.0 L 220.3,298.0 L 221.0,297.9 L 221.6,297.8 L 221.7,297.9 L 222.1,298.4 L 222.4,298.5 L 223.1,298.9 L 224.0,299.5 L 224.6,300.0 L 224.8,300.4 L 224.0,301.1 L 223.5,301.7 L 223.0,302.3 L 222.6,302.5 L 222.3,302.5 L 221.8,302.3 L 221.2,301.3 L 220.8,300.5 L 220.7,300.4 L 220.5,300.5 L 220.4,300.5 L 219.8,299.6 L 219.5,299.0 L 219.2,298.2 L 219.1,298.1 L 218.9,297.0 L 218.7,296.0 L 218.4,294.9 L 218.1,293.9 L 217.7,292.9 L 217.6,292.3 L 217.5,291.2 L 217.2,290.2 L 217.0,289.6 L 216.7,289.4 L 216.3,289.2 L 216.0,288.8 L 215.7,288.7 L 215.6,288.5 L 215.4,287.5 L 215.3,286.4 L 215.2,286.0 L 215.1,285.9 L 214.8,285.5 L 214.4,285.0 L 214.0,284.3 L 213.8,284.1 L 213.5,284.0 L 213.4,284.0 L 213.4,284.2 L 213.2,284.2 L 212.8,284.1 L 211.9,283.4 L 212.1,283.2 L 213.8,282.2 L 213.5,281.9 L 213.3,282.0 L 213.3,282.2 L 212.2,282.9 L 211.4,283.1 L 210.3,282.4 L 209.6,281.6 L 209.1,281.0 L 208.1,279.5 L 207.0,278.4 L 206.4,277.5 L 206.1,276.5 L 205.4,275.3 L 205.1,274.8 L 204.2,273.5 L 204.0,273.3 L 203.9,272.7 L 203.8,272.7 L 202.1,270.3 L 200.3,267.3 L 199.3,265.4 L 198.8,265.0 L 198.8,264.9 L 197.6,260.2 L 196.9,258.4 L 196.9,255.7 L 196.3,254.0 L 195.5,252.6 L 194.8,248.7 L 194.4,247.2 L 193.9,246.1 L 193.3,245.3 L 192.3,244.4 L 192.0,243.5 L 191.6,243.2 L 191.2,243.1 L 190.7,241.3 L 189.8,240.1 L 188.9,239.5 L 188.2,238.1 L 187.7,237.6 L 187.4,236.3 L 186.9,235.7 L 186.8,235.7 L 186.1,234.4 L 185.6,233.8 L 185.1,233.5 L 184.7,232.7 L 184.3,230.3 L 184.3,228.8 L 184.8,228.1 L 185.1,225.9 L 185.4,225.0" fill="none" stroke="black" stroke-width="2"/>
</svg>