<?xml version="1.0" encoding="UTF-8"?>
<svg width="400" height="400" viewBox="0 0 400 400" xmlns="http://www.w3.org/2000/svg">
  <rect width="400" height="400" fill="white"/>
  <path d="M 161.0,223.3 L 161.1,223.3 L 161.9,224.6 L 163.3,225.3 L 163.6,225.0 L 163.8,223.8 L 164.2,223.1 L 164.5,222.8 L 165.7,222.6 L 167.1,220.4 L 167.7,220.3 L 167.8,220.0 L 167.9,219.3 L 167.6,219.1 L 167.3,219.2 L 166.9,219.5 L 166.6,219.1 L 166.4,218.5 L 166.5,218.2 L 167.1,217.4 L 167.3,216.7 L 168.1,215.9 L 168.8,215.6 L 169.3,215.4 L 170.1,214.7 L 170.2,214.3 L 170.1,213.6 L 171.0,212.5 L 171.1,211.3 L 171.8,210.4 L 173.2,208.6 L 173.3,208.1 L 173.7,207.8 L 174.1,204.5 L 174.0,203.7 L 174.2,202.0 L 174.2,200.9 L 174.0,199.7 L 174.1,198.4 L 174.4,197.0 L 174.7,196.0 L 174.9,194.4 L 174.6,193.5 L 174.2,192.6 L 173.9,190.5 L 173.7,189.6 L 174.0,189.1 L 173.9,188.5 L 172.7,186.9 L 172.8,186.5 L 173.2,185.7 L 173.6,185.6 L 173.8,185.2 L 173.6,183.6 L 173.3,182.7 L 173.2,182.2 L 172.7,181.6 L 172.3,181.5 L 171.6,181.0 L 171.3,180.9 L 171.2,180.8 L 162.6,171.6 L 162.9,171.2 L 163.0,170.4 L 163.8,168.8 L 163.9,168.6 L 164.1,168.8 L 164.3,169.4 L 164.8,169.8 L 165.3,169.8 L 165.6,169.5 L 165.7,168.7 L 166.5,167.9 L 166.0,167.3 L 165.3,167.3 L 164.6,167.8 L 164.3,167.7 L 164.4,167.1 L 166.1,165.9 L 166.3,165.4 L 166.4,164.2 L 166.3,162.3 L 166.2,161.9 L 165.5,157.8 L 165.7,157.0 L 165.6,156.4 L 166.1,155.1 L 166.2,154.0 L 166.6,152.9 L 167.1,151.5 L 167.7,149.9 L 168.0,148.8 L 168.2,145.5 L 168.0,144.1 L 168.0,143.4 L 168.3,142.6 L 168.3,142.0 L 168.0,141.2 L 167.8,139.7 L 167.5,138.9 L 167.1,136.2 L 166.7,135.0 L 166.1,133.6 L 165.8,132.4 L 165.0,130.2 L 164.7,129.6 L 164.1,129.2 L 163.8,129.4 L 163.7,130.2 L 163.6,130.5 L 163.3,130.5 L 163.0,129.8 L 162.6,129.7 L 161.9,130.2 L 161.4,130.1 L 161.1,130.2 L 161.1,130.2 L 161.1,104.9 L 161.1,104.5 L 161.5,104.5 L 162.0,105.1 L 162.2,105.8 L 162.0,106.8 L 162.4,107.0 L 162.7,106.7 L 163.8,104.8 L 166.2,101.8 L 166.6,101.3 L 167.0,99.9 L 167.4,99.5 L 167.7,99.2 L 168.5,99.2 L 169.3,98.6 L 170.2,97.5 L 170.6,96.7 L 170.5,95.5 L 172.1,93.2 L 172.6,91.7 L 174.8,88.3 L 175.1,87.4 L 175.1,86.3 L 174.9,85.5 L 175.0,84.9 L 175.8,84.0 L 176.5,84.0 L 177.7,84.5 L 178.6,84.5 L 180.0,83.5 L 182.4,80.7 L 184.9,77.3 L 187.3,72.7 L 187.7,71.3 L 188.5,70.0 L 190.7,67.6 L 191.8,67.0 L 193.5,65.9 L 193.7,64.6 L 193.5,63.9 L 193.6,63.1 L 193.9,61.7 L 194.8,60.5 L 195.2,60.1 L 196.6,59.0 L 198.0,57.7 L 199.2,55.6 L 199.5,54.9 L 199.6,54.2 L 200.5,53.4 L 200.7,52.4 L 201.1,51.9 L 201.9,51.9 L 202.7,51.3 L 203.0,50.2 L 203.1,49.0 L 203.8,48.3 L 204.5,47.9 L 205.1,47.4 L 205.6,46.8 L 205.9,45.4 L 206.0,44.9 L 209.2,40.2 L 209.3,40.0 L 213.7,44.0 L 213.5,44.5 L 213.2,44.8 L 212.5,44.3 L 212.2,44.5 L 212.2,45.3 L 211.4,46.3 L 211.2,47.0 L 210.8,47.5 L 210.5,48.1 L 209.9,48.5 L 209.4,49.3 L 209.2,50.5 L 208.8,50.7 L 208.7,51.0 L 209.3,51.6 L 209.4,51.9 L 208.9,53.1 L 208.3,54.0 L 207.8,56.1 L 207.3,56.7 L 207.2,58.5 L 207.0,59.0 L 206.1,59.1 L 204.4,58.0 L 204.4,57.9 L 203.9,58.1 L 202.8,59.5 L 201.9,59.9 L 201.3,60.5 L 199.9,61.6 L 199.3,61.4 L 198.6,61.3 L 197.2,62.2 L 196.0,63.4 L 195.0,64.7 L 194.9,66.2 L 195.2,68.0 L 195.5,68.6 L 197.8,70.0 L 198.3,70.9 L 199.3,71.0 L 199.8,71.3 L 200.5,71.4 L 201.3,70.8 L 201.8,71.6 L 202.5,71.7 L 202.9,71.9 L 203.5,71.9 L 204.0,72.0 L 204.7,72.4 L 205.6,73.7 L 206.5,74.6 L 207.0,74.5 L 207.4,73.7 L 207.4,72.7 L 207.8,71.7 L 208.2,70.0 L 208.8,69.6 L 208.5,67.8 L 208.8,67.3 L 209.1,67.7 L 209.3,68.2 L 209.6,68.1 L 209.6,67.5 L 209.1,66.3 L 209.3,65.9 L 209.3,65.5 L 209.6,65.3 L 210.4,66.2 L 210.8,66.1 L 211.2,65.6 L 212.2,63.5 L 213.0,61.3 L 213.3,59.1 L 213.5,59.0 L 213.7,59.1 L 214.0,60.0 L 214.3,59.9 L 214.6,59.6 L 214.8,58.8 L 215.0,55.6 L 214.7,55.6 L 214.4,55.7 L 214.3,55.5 L 214.4,54.8 L 214.7,54.1 L 214.6,53.9 L 213.9,53.8 L 213.9,53.3 L 214.9,52.2 L 215.1,51.7 L 215.0,50.9 L 214.8,50.6 L 214.9,49.6 L 215.3,48.7 L 215.0,48.0 L 215.2,47.2 L 215.2,46.1 L 228.0,48.9 L 227.8,50.3 L 227.9,52.1 L 228.4,54.0 L 230.2,57.8 L 231.7,62.4 L 232.2,62.4 L 237.5,62.8 L 237.7,62.8 L 237.6,63.0 L 237.2,63.3 L 236.7,64.3 L 236.3,65.4 L 236.2,66.7 L 236.0,67.0 L 235.7,67.3 L 235.5,67.9 L 235.6,68.2 L 236.0,67.9 L 236.5,67.8 L 236.9,68.2 L 236.8,69.3 L 237.3,70.5 L 237.3,71.2 L 236.8,71.5 L 236.4,72.1 L 236.0,72.2 L 235.8,71.9 L 235.6,71.8 L 235.3,72.3 L 234.8,74.7 L 234.3,75.7 L 234.3,77.5 L 234.6,78.6 L 235.5,81.1 L 236.6,83.3 L 237.0,84.3 L 237.1,85.8 L 237.5,87.8 L 237.8,88.6 L 238.3,89.1 L 238.3,89.1 L 244.7,95.7 L 244.4,95.6 L 244.1,95.7 L 244.1,96.2 L 243.9,96.4 L 242.7,95.7 L 242.4,96.0 L 242.5,96.8 L 242.0,97.1 L 241.8,97.6 L 241.3,97.4 L 241.0,97.8 L 241.2,98.4 L 241.0,98.8 L 240.8,100.0 L 240.5,100.1 L 239.9,100.5 L 239.7,102.9 L 240.0,103.6 L 240.7,104.7 L 241.3,105.9 L 241.5,106.9 L 241.9,108.2 L 242.2,108.7 L 242.5,109.3 L 242.5,109.8 L 242.3,110.3 L 242.5,110.9 L 242.6,111.9 L 242.4,115.3 L 243.1,116.8 L 243.4,117.9 L 244.0,119.3 L 243.8,119.7 L 244.0,120.4 L 244.7,120.9 L 245.4,120.9 L 229.0,128.8 L 229.1,128.2 L 228.9,127.9 L 228.4,127.8 L 228.2,128.1 L 227.9,128.4 L 227.6,128.2 L 227.2,128.2 L 227.0,127.7 L 226.7,127.6 L 226.3,128.6 L 225.8,128.1 L 225.6,128.3 L 225.3,128.4 L 225.2,128.7 L 225.4,129.4 L 225.4,130.5 L 225.7,131.3 L 225.7,131.6 L 225.4,131.8 L 225.2,131.3 L 224.8,130.5 L 224.5,130.5 L 224.4,131.2 L 224.5,132.9 L 224.7,133.2 L 224.6,134.0 L 224.4,134.6 L 224.4,135.7 L 224.4,136.8 L 224.7,137.0 L 225.1,136.6 L 225.3,136.8 L 225.3,137.8 L 225.8,138.6 L 226.3,138.9 L 227.0,139.6 L 227.8,140.0 L 227.9,139.8 L 228.2,139.8 L 228.6,140.6 L 228.9,140.7 L 229.0,140.0 L 229.4,140.1 L 229.7,139.9 L 230.1,140.3 L 230.1,140.9 L 230.3,141.4 L 230.7,141.5 L 230.7,140.4 L 231.0,140.2 L 231.3,140.5 L 231.5,141.6 L 232.4,144.3 L 232.4,145.0 L 232.2,145.6 L 231.9,145.7 L 230.8,145.1 L 229.7,144.0 L 229.3,143.5 L 228.6,142.9 L 228.3,143.2 L 227.9,144.6 L 227.1,145.9 L 227.3,147.1 L 227.2,148.5 L 228.2,153.3 L 228.5,154.6 L 228.9,155.2 L 229.5,155.3 L 229.8,155.8 L 209.0,163.8 L 208.8,163.9 L 208.9,163.3 L 208.6,162.7 L 208.8,161.8 L 208.6,161.6 L 208.1,161.7 L 208.1,161.3 L 209.0,160.4 L 209.0,159.8 L 208.4,159.6 L 208.5,159.2 L 208.1,159.0 L 207.5,158.9 L 207.3,158.6 L 207.6,158.3 L 207.2,158.0 L 206.5,157.7 L 206.5,157.1 L 206.7,156.7 L 206.5,156.1 L 206.0,155.4 L 204.6,155.1 L 202.9,154.0 L 201.8,154.1 L 201.2,154.4 L 200.5,154.4 L 200.2,154.6 L 200.0,155.7 L 200.2,156.3 L 201.0,156.6 L 200.8,157.3 L 201.2,157.6 L 202.0,158.2 L 202.1,158.6 L 202.6,158.9 L 203.4,159.8 L 203.6,160.5 L 203.9,161.3 L 204.0,161.9 L 204.4,162.4 L 204.6,162.8 L 204.9,163.3 L 205.3,163.1 L 206.2,162.3 L 207.1,162.2 L 207.3,162.4 L 206.9,163.0 L 207.2,163.3 L 207.8,163.3 L 207.8,163.9 L 208.1,164.2 L 207.4,166.4 L 207.3,166.2 L 206.9,166.5 L 206.8,166.6 L 206.9,166.8 L 207.2,167.0 L 207.3,166.9 L 202.9,181.6 L 202.9,181.6 L 202.8,181.6 L 202.7,181.5 L 202.6,181.5 L 202.4,181.9 L 202.2,182.7 L 202.1,183.8 L 202.0,184.9 L 201.9,185.1 L 201.8,185.1 L 201.8,184.9 L 201.8,183.8 L 201.8,183.5 L 201.7,183.5 L 201.4,183.6 L 201.1,184.2 L 200.9,185.0 L 200.8,185.1 L 200.7,184.9 L 200.7,184.4 L 201.0,183.4 L 201.3,182.6 L 201.6,181.7 L 201.6,181.6 L 201.5,181.5 L 201.2,181.8 L 201.1,182.4 L 200.8,182.7 L 200.5,183.5 L 200.0,183.5 L 199.8,183.7 L 199.3,184.6 L 199.2,184.6 L 199.3,184.2 L 199.7,183.2 L 199.7,182.9 L 199.6,182.8 L 199.3,182.8 L 199.2,183.0 L 199.0,183.5 L 198.9,183.8 L 198.9,184.9 L 198.8,186.0 L 198.9,186.4 L 199.2,186.9 L 199.6,187.2 L 200.0,188.0 L 200.2,188.2 L 200.5,188.3 L 200.8,188.0 L 201.0,187.7 L 201.2,187.1 L 201.3,186.6 L 201.6,186.4 L 201.8,186.1 L 201.9,185.9 L 202.0,186.0 L 202.0,186.5 L 202.2,187.3 L 202.5,188.3 L 202.7,188.7 L 202.9,188.7 L 203.0,189.0 L 203.1,189.3 L 203.0,189.7 L 202.9,190.3 L 202.9,190.9 L 202.8,192.0 L 202.8,193.0 L 202.6,194.1 L 202.6,194.1 L 202.5,195.2 L 202.4,195.6 L 202.4,195.9 L 202.5,196.2 L 202.8,196.7 L 202.9,197.1 L 202.6,200.3 L 202.1,199.4 L 201.9,198.9 L 201.9,198.4 L 201.6,198.2 L 201.3,198.6 L 201.1,198.3 L 201.3,196.4 L 200.7,193.9 L 200.0,192.3 L 199.5,192.0 L 198.7,192.3 L 198.3,192.2 L 198.0,192.3 L 197.7,193.2 L 197.0,194.0 L 196.7,195.0 L 196.0,195.5 L 195.8,196.2 L 195.4,196.5 L 195.2,196.8 L 194.9,198.4 L 195.0,199.8 L 195.0,200.9 L 195.4,202.0 L 195.3,203.5 L 195.3,205.2 L 196.0,206.9 L 196.5,207.4 L 196.9,207.0 L 197.1,206.8 L 197.5,207.1 L 197.6,207.6 L 197.9,208.3 L 199.3,209.9 L 199.8,209.9 L 191.6,237.9 L 191.5,238.1 L 191.4,238.0 L 190.8,238.2 L 190.6,238.6 L 190.6,238.9 L 190.6,239.1 L 190.7,239.3 L 190.5,239.5 L 190.4,239.8 L 190.1,240.1 L 189.9,240.7 L 189.9,241.7 L 189.9,242.0 L 189.8,242.0 L 189.7,241.8 L 189.6,241.8 L 189.5,242.0 L 189.7,242.3 L 189.6,242.5 L 189.5,242.7 L 189.4,242.9 L 189.3,242.9 L 189.1,242.4 L 189.0,242.2 L 188.9,242.2 L 188.9,242.6 L 188.9,243.8 L 188.7,243.7 L 188.3,243.5 L 188.3,243.0 L 188.2,243.0 L 188.1,243.1 L 187.9,243.4 L 187.9,243.8 L 188.1,244.0 L 188.2,244.2 L 188.2,245.3 L 188.1,245.3 L 187.6,245.2 L 187.0,245.0 L 186.7,244.7 L 186.5,244.6 L 186.2,244.6 L 186.1,244.6 L 186.0,244.4 L 185.8,244.6 L 185.7,244.5 L 185.7,243.8 L 185.7,243.5 L 185.5,243.4 L 185.2,243.4 L 184.7,243.7 L 184.5,244.0 L 184.4,244.3 L 184.4,244.5 L 184.7,244.6 L 184.9,244.7 L 184.9,244.9 L 184.5,245.0 L 184.5,245.1 L 184.9,246.0 L 185.0,246.4 L 184.7,246.4 L 184.6,246.1 L 184.4,246.0 L 184.2,246.1 L 184.2,246.4 L 184.3,246.5 L 184.6,246.6 L 184.6,246.8 L 184.5,247.0 L 184.2,247.1 L 183.9,247.6 L 183.9,247.6 L 183.8,246.9 L 183.9,246.6 L 183.9,246.4 L 183.8,246.4 L 183.7,246.5 L 183.3,247.5 L 183.2,247.6 L 182.9,247.5 L 182.8,247.5 L 182.6,247.9 L 182.5,248.2 L 182.6,248.4 L 182.7,248.7 L 182.8,249.1 L 182.9,249.5 L 182.9,249.9 L 182.8,249.9 L 182.7,249.7 L 182.5,249.4 L 182.4,249.3 L 182.3,249.5 L 182.3,249.9 L 182.2,250.5 L 182.4,250.6 L 182.4,251.6 L 182.5,251.7 L 182.7,251.6 L 182.7,251.6 L 182.8,251.7 L 183.1,251.3 L 183.3,251.1 L 183.5,250.4 L 183.7,249.3 L 183.9,249.4 L 183.8,249.7 L 183.7,250.6 L 183.8,251.0 L 183.8,251.0 L 184.2,253.0 L 184.5,253.4 L 184.7,253.5 L 184.9,253.5 L 185.1,253.3 L 185.2,253.1 L 185.3,253.2 L 185.3,254.0 L 185.3,254.6 L 185.5,255.6 L 185.6,255.8 L 185.6,256.3 L 185.5,256.4 L 185.2,256.6 L 185.0,256.6 L 184.9,256.3 L 184.9,256.2 L 184.8,256.3 L 184.6,257.3 L 184.7,257.5 L 184.9,257.5 L 185.1,257.3 L 185.1,257.0 L 185.2,256.8 L 185.4,256.8 L 185.5,257.0 L 185.5,257.6 L 185.5,257.8 L 185.6,257.8 L 185.7,257.6 L 185.8,257.6 L 185.9,257.7 L 185.9,258.0 L 185.8,258.1 L 185.5,258.4 L 185.4,258.6 L 185.4,259.7 L 185.5,260.6 L 185.5,261.5 L 185.7,262.0 L 185.9,262.4 L 186.2,262.7 L 186.4,263.0 L 186.6,263.3 L 186.7,263.6 L 186.8,264.5 L 186.9,265.0 L 187.2,266.1 L 187.8,266.9 L 188.0,267.6 L 188.3,268.0 L 188.7,268.2 L 189.1,268.4 L 190.0,269.0 L 190.4,269.2 L 190.7,269.4 L 191.5,270.1 L 192.0,270.5 L 192.3,270.8 L 192.4,270.9 L 192.3,271.0 L 192.2,271.2 L 192.3,271.5 L 192.6,272.0 L 192.8,272.4 L 192.9,272.7 L 193.2,272.8 L 193.8,272.6 L 194.1,272.6 L 194.3,272.9 L 194.4,273.2 L 194.6,273.3 L 194.7,273.3 L 194.8,273.2 L 209.3,286.5 L 211.2,288.3 L 211.0,288.3 L 210.6,288.8 L 210.5,288.6 L 210.4,288.2 L 210.2,288.1 L 209.9,288.1 L 209.7,288.3 L 209.5,288.7 L 209.4,288.7 L 209.3,288.5 L 209.4,287.9 L 209.6,287.7 L 209.6,287.6 L 209.4,287.6 L 209.2,287.5 L 209.2,287.4 L 209.5,287.1 L 209.5,286.8 L 209.3,286.6 L 209.1,286.7 L 208.9,286.9 L 208.8,287.2 L 208.8,287.4 L 208.6,287.6 L 208.5,287.8 L 208.3,287.8 L 208.1,287.8 L 207.8,288.0 L 207.6,287.8 L 207.5,287.7 L 207.4,287.9 L 207.4,288.2 L 207.4,288.4 L 207.2,288.7 L 207.2,289.2 L 206.8,289.8 L 206.6,289.8 L 206.6,289.6 L 206.7,289.3 L 206.8,289.0 L 206.6,288.9 L 206.5,289.0 L 206.3,289.5 L 206.0,289.7 L 205.4,289.9 L 205.1,290.3 L 204.9,290.9 L 204.9,291.1 L 204.9,291.3 L 204.9,291.9 L 205.1,292.7 L 205.5,293.7 L 205.9,294.7 L 206.2,295.2 L 206.2,295.4 L 205.8,296.0 L 205.4,296.2 L 204.9,296.5 L 204.7,296.6 L 204.3,296.7 L 204.0,296.5 L 203.9,296.8 L 203.7,297.1 L 203.6,297.1 L 203.6,296.9 L 203.7,296.7 L 203.5,296.7 L 203.2,296.9 L 203.1,297.1 L 202.9,297.5 L 202.8,298.5 L 202.7,298.7 L 202.6,298.7 L 202.4,298.6 L 202.0,298.9 L 201.8,299.2 L 201.7,300.1 L 201.7,301.1 L 201.8,301.6 L 202.0,301.8 L 202.5,302.0 L 202.6,302.3 L 202.7,302.7 L 202.8,303.3 L 203.1,303.8 L 203.2,303.9 L 203.6,303.8 L 203.8,303.8 L 203.9,303.9 L 204.0,304.2 L 204.0,304.4 L 203.5,304.9 L 203.5,305.2 L 203.6,305.5 L 203.8,305.9 L 204.1,306.7 L 204.4,307.3 L 204.6,307.3 L 204.7,307.3 L 204.8,307.6 L 204.9,308.0 L 205.2,308.4 L 205.5,308.9 L 206.0,309.6 L 206.1,310.4 L 206.3,311.0 L 206.8,311.3 L 207.2,311.9 L 207.5,313.0 L 207.7,313.3 L 208.5,313.9 L 209.2,314.4 L 209.6,314.8 L 209.7,315.3 L 209.8,315.7 L 210.3,316.3 L 210.7,316.6 L 211.1,316.9 L 211.7,317.6 L 212.1,317.9 L 212.6,318.0 L 213.2,318.1 L 213.5,318.3 L 213.7,318.6 L 213.8,318.7 L 214.2,318.8 L 214.5,319.1 L 214.7,319.4 L 214.9,319.4 L 215.0,319.4 L 215.0,319.1 L 215.0,318.8 L 215.2,318.8 L 215.3,318.9 L 215.5,319.4 L 215.7,319.6 L 215.8,320.3 L 215.9,320.4 L 216.0,320.4 L 216.1,320.0 L 216.2,319.7 L 216.4,319.3 L 216.4,318.9 L 216.2,318.2 L 216.1,317.1 L 216.1,316.6 L 216.0,316.6 L 215.8,317.1 L 215.7,317.1 L 215.6,317.0 L 215.7,316.5 L 216.0,315.5 L 216.2,315.1 L 216.3,315.2 L 216.5,315.5 L 216.6,315.4 L 216.7,315.1 L 216.7,314.7 L 216.6,314.6 L 216.4,314.7 L 216.3,314.7 L 216.3,314.4 L 216.5,313.7 L 216.5,313.3 L 216.5,312.9 L 216.6,312.7 L 216.7,312.5 L 216.9,311.9 L 217.0,310.8 L 217.2,310.5 L 217.3,310.2 L 217.3,310.0 L 216.9,308.9 L 216.8,308.6 L 216.7,307.6 L 216.7,307.1 L 216.7,306.9 L 216.7,306.0 L 216.8,305.6 L 217.0,305.5 L 218.1,305.3 L 218.4,305.3 L 218.4,305.6 L 218.7,306.7 L 219.0,307.7 L 219.3,308.2 L 219.4,308.3 L 219.4,308.0 L 219.5,307.5 L 219.6,307.2 L 219.8,307.3 L 221.5,308.1 L 221.5,308.3 L 221.6,308.7 L 221.7,308.9 L 221.4,309.3 L 221.4,309.7 L 221.1,310.3 L 221.0,311.0 L 221.1,311.5 L 221.1,311.7 L 221.0,312.1 L 221.0,312.5 L 221.2,313.1 L 221.4,313.5 L 221.4,313.8 L 221.3,313.9 L 221.1,313.5 L 221.0,313.4 L 221.0,313.5 L 221.0,313.9 L 221.3,314.1 L 221.4,314.3 L 221.3,314.7 L 221.3,315.5 L 221.1,316.1 L 221.0,316.7 L 220.8,317.8 L 220.7,318.8 L 220.5,319.1 L 220.5,319.2 L 220.5,319.6 L 220.6,319.9 L 220.6,320.8 L 220.5,321.1 L 220.6,321.3 L 220.5,321.5 L 220.5,322.4 L 220.6,323.5 L 220.6,324.5 L 220.8,325.6 L 221.1,326.6 L 221.4,327.1 L 221.6,328.2 L 221.8,329.3 L 222.0,329.8 L 222.2,330.0 L 222.3,330.2 L 222.4,330.6 L 222.5,330.9 L 222.7,331.1 L 222.9,331.2 L 222.9,331.6 L 222.8,332.6 L 222.9,333.6 L 223.1,333.8 L 223.7,333.8 L 223.9,333.9 L 224.5,334.3 L 224.6,334.3 L 189.6,354.5 L 188.8,355.0 L 188.8,355.0 L 188.6,355.0 L 188.5,355.3 L 188.5,355.8 L 188.5,356.7 L 188.4,356.8 L 188.3,356.7 L 188.2,356.5 L 188.1,356.4 L 188.0,356.5 L 187.9,356.5 L 187.9,356.8 L 188.0,357.1 L 188.0,357.3 L 187.4,358.0 L 186.8,358.4 L 186.3,358.5 L 186.2,358.5 L 185.9,358.2 L 185.9,358.4 L 185.8,358.7 L 185.7,358.9 L 185.4,359.4 L 185.2,359.5 L 185.2,359.8 L 184.3,360.0 L 183.3,360.0 L 182.2,360.0 L 181.3,359.9 L 180.2,359.6 L 179.5,359.4 L 179.4,359.1 L 179.3,358.6 L 179.4,358.1 L 179.3,357.8 L 178.6,356.9 L 178.5,356.7 L 178.5,356.4 L 178.8,356.2 L 178.9,355.8 L 178.9,354.9 L 178.8,354.9 L 178.6,354.9 L 178.3,355.3 L 178.2,355.2 L 178.1,354.8 L 177.9,354.2 L 177.8,353.9 L 177.6,353.9 L 177.3,354.0 L 177.1,353.9 L 177.1,353.4 L 177.1,352.8 L 177.0,352.8 L 176.8,353.3 L 176.6,353.2 L 176.3,353.1 L 176.0,352.7 L 175.9,352.5 L 175.7,351.9 L 175.5,351.6 L 175.3,351.5 L 175.0,351.5 L 174.6,351.7 L 174.4,351.5 L 164.7,350.9 L 163.4,350.9 L 163.2,350.3 L 163.0,350.2 L 163.0,350.3 L 162.9,350.9 L 162.7,351.0 L 162.7,351.0 L 162.5,351.2 L 162.5,351.2 L 162.4,350.9 L 162.6,349.9 L 162.5,348.8 L 162.3,348.6 L 162.2,348.6 L 162.0,348.9 L 161.8,349.0 L 161.5,349.3 L 161.5,349.3 L 161.5,349.0 L 161.5,348.6 L 161.4,348.4 L 161.5,348.0 L 161.8,347.5 L 162.4,346.9 L 162.7,346.5 L 162.8,346.2 L 162.8,345.7 L 162.7,345.2 L 162.6,344.8 L 162.6,343.8 L 162.8,342.7 L 162.9,342.7 L 163.0,342.7 L 163.0,342.4 L 163.0,342.0 L 162.7,341.4 L 162.2,340.9 L 161.9,340.5 L 161.7,340.3 L 161.5,339.9 L 161.3,339.8 L 160.7,339.7 L 160.6,339.4 L 160.5,338.8 L 160.5,338.3 L 160.4,338.1 L 160.0,337.7 L 160.1,337.2 L 160.0,336.9 L 159.8,336.8 L 159.6,336.8 L 159.6,336.6 L 159.6,336.4 L 160.0,336.4 L 160.1,336.5 L 160.2,336.6 L 160.3,336.5 L 160.3,336.0 L 160.5,336.0 L 160.6,335.8 L 160.4,335.6 L 160.1,335.4 L 160.1,335.2 L 160.2,335.0 L 160.1,334.8 L 160.2,334.4 L 160.4,334.1 L 160.6,334.0 L 161.1,333.8 L 161.3,333.5 L 161.3,333.1 L 161.1,332.2 L 161.0,331.5 L 161.1,331.1 L 161.4,330.4 L 161.7,330.2 L 162.0,330.2 L 162.5,330.2 L 162.6,330.0 L 162.7,329.4 L 162.8,329.3 L 162.9,329.4 L 163.1,329.9 L 163.2,329.9 L 163.2,329.5 L 163.1,329.1 L 163.2,329.0 L 163.5,328.9 L 163.6,329.0 L 163.9,329.3 L 164.1,329.3 L 165.0,328.8 L 165.1,328.5 L 165.1,328.1 L 165.2,327.8 L 165.2,327.5 L 165.4,327.2 L 165.4,327.1 L 165.1,326.7 L 165.0,326.2 L 164.8,325.9 L 164.8,325.5 L 164.7,324.9 L 164.5,324.3 L 164.5,324.3 L 164.3,324.8 L 164.2,324.9 L 164.2,325.5 L 164.1,325.5 L 164.0,325.3 L 164.0,325.0 L 163.9,324.9 L 163.8,325.0 L 163.7,325.2 L 163.8,326.3 L 163.7,326.5 L 163.5,326.5 L 163.4,325.5 L 163.3,324.9 L 163.1,324.4 L 163.0,324.5 L 162.9,324.7 L 162.8,325.7 L 162.8,326.0 L 162.7,326.0 L 162.5,325.5 L 162.5,325.7 L 162.4,326.1 L 162.3,326.2 L 162.2,326.1 L 162.2,325.7 L 162.3,325.0 L 162.2,324.3 L 161.9,323.3 L 162.1,323.1 L 162.4,322.9 L 162.4,322.6 L 162.1,321.8 L 162.1,321.4 L 161.9,321.1 L 161.7,321.0 L 161.3,321.1 L 161.3,321.4 L 161.3,321.8 L 161.4,322.3 L 161.2,322.4 L 161.0,322.4 L 160.7,322.3 L 160.6,322.2 L 160.6,322.0 L 160.5,321.8 L 160.1,321.6 L 160.1,321.3 L 160.1,321.0 L 160.0,320.6 L 159.9,320.3 L 159.8,320.0 L 159.6,320.0 L 159.3,320.1 L 159.2,320.5 L 159.1,320.5 L 158.9,320.5 L 158.8,320.3 L 158.7,319.7 L 158.6,319.3 L 158.6,319.0 L 158.4,319.0 L 158.2,319.3 L 157.7,319.3 L 157.6,319.2 L 157.6,318.5 L 157.4,318.0 L 157.2,318.0 L 157.0,318.1 L 156.8,318.4 L 156.7,318.9 L 156.6,318.8 L 156.5,317.7 L 156.4,317.0 L 156.2,316.6 L 156.1,316.5 L 155.8,316.4 L 155.5,316.4 L 155.4,316.2 L 155.4,315.8 L 155.2,315.7 L 155.1,315.5 L 154.9,315.5 L 154.9,315.7 L 154.8,316.0 L 154.6,316.0 L 154.6,316.0 L 156.0,309.7 L 156.8,309.5 L 157.1,309.5 L 157.8,310.3 L 158.2,310.8 L 158.5,310.7 L 158.7,310.6 L 158.8,310.7 L 159.3,310.9 L 159.4,310.9 L 160.2,310.9 L 160.3,310.9 L 160.9,311.0 L 161.6,311.3 L 161.8,311.5 L 161.8,311.6 L 161.5,311.9 L 161.5,312.1 L 161.5,312.5 L 161.6,312.6 L 162.0,312.8 L 162.2,312.7 L 162.2,312.4 L 162.4,312.2 L 162.3,311.9 L 162.2,311.6 L 162.0,311.5 L 162.1,311.3 L 162.4,311.1 L 162.7,311.0 L 162.8,310.8 L 162.8,309.7 L 162.8,308.9 L 162.7,307.9 L 162.6,307.0 L 162.4,306.2 L 162.5,305.8 L 162.7,305.5 L 162.9,305.1 L 163.2,304.7 L 163.7,304.6 L 163.8,304.7 L 163.9,305.1 L 164.0,306.2 L 164.2,306.3 L 164.6,306.3 L 164.7,307.0 L 164.6,307.5 L 164.4,308.5 L 164.3,309.6 L 164.4,310.0 L 164.5,310.2 L 164.8,310.3 L 165.2,310.9 L 165.3,311.4 L 166.0,312.3 L 166.5,312.8 L 166.6,312.7 L 166.7,312.4 L 166.8,312.5 L 167.1,312.9 L 167.2,312.9 L 167.3,312.7 L 167.4,312.2 L 167.5,311.8 L 167.5,310.9 L 167.3,309.9 L 167.4,309.7 L 167.5,309.6 L 167.7,309.6 L 168.0,309.3 L 168.3,309.3 L 168.5,309.4 L 168.6,309.7 L 168.7,310.2 L 168.9,310.3 L 169.0,310.2 L 169.1,309.2 L 169.3,308.1 L 169.3,307.7 L 169.7,307.1 L 170.0,306.7 L 170.2,305.6 L 170.5,304.6 L 170.6,303.5 L 170.8,302.4 L 170.9,301.8 L 170.8,301.5 L 170.7,301.1 L 170.8,300.6 L 171.0,299.5 L 171.1,298.5 L 170.9,298.2 L 170.7,298.1 L 170.7,298.2 L 170.6,298.6 L 170.5,298.6 L 170.4,298.3 L 170.5,297.6 L 170.7,297.4 L 171.0,297.3 L 171.1,297.4 L 171.2,297.5 L 171.5,297.3 L 171.5,296.2 L 171.5,295.9 L 171.3,295.8 L 171.1,295.8 L 171.1,296.8 L 171.0,296.9 L 170.7,296.9 L 170.7,296.8 L 170.7,295.7 L 170.7,295.1 L 170.7,294.9 L 170.8,294.4 L 170.8,293.5 L 170.8,293.4 L 170.6,293.1 L 170.5,293.0 L 170.7,292.3 L 170.6,292.0 L 170.7,291.5 L 170.8,291.5 L 171.1,291.6 L 171.2,291.5 L 171.3,291.3 L 171.2,291.0 L 171.0,290.5 L 170.9,290.1 L 171.0,289.8 L 171.1,289.4 L 171.1,289.1 L 170.8,288.4 L 170.4,288.0 L 169.7,288.4 L 169.5,288.6 L 169.3,288.6 L 169.2,288.4 L 169.3,288.2 L 169.5,287.8 L 169.5,287.5 L 169.0,286.8 L 168.9,286.6 L 168.9,286.5 L 168.2,286.2 L 168.1,286.1 L 168.0,286.0 L 167.9,286.1 L 167.4,286.9 L 167.1,287.6 L 166.7,288.3 L 166.4,289.3 L 166.3,289.8 L 166.1,290.3 L 165.9,290.6 L 165.8,290.7 L 165.5,290.6 L 165.0,290.3 L 164.9,290.2 L 164.9,289.9 L 165.3,289.3 L 165.5,288.6 L 166.0,288.1 L 166.1,287.4 L 166.4,286.9 L 166.5,286.4 L 166.5,286.2 L 166.6,286.0 L 166.5,285.9 L 166.4,285.9 L 166.2,285.6 L 165.9,285.7 L 165.6,285.9 L 165.4,286.0 L 165.3,286.0 L 165.2,285.8 L 165.1,285.9 L 164.9,286.4 L 164.8,286.4 L 164.7,286.3 L 164.5,286.4 L 164.3,286.7 L 164.2,286.7 L 164.0,286.6 L 164.1,285.9 L 164.0,286.1 L 163.8,286.4 L 163.7,286.5 L 163.5,286.3 L 163.6,285.4 L 163.4,285.3 L 163.4,284.8 L 163.6,284.3 L 163.6,284.0 L 163.5,283.7 L 163.5,283.4 L 163.4,283.3 L 163.2,283.3 L 163.2,283.4 L 163.2,283.1 L 163.1,282.7 L 163.0,282.8 L 162.8,283.2 L 162.6,283.2 L 162.4,283.3 L 162.4,283.5 L 162.5,283.9 L 162.4,284.2 L 161.9,284.9 L 161.6,285.6 L 161.2,285.6 L 161.1,285.6 L 161.1,285.1 L 161.1,267.2 L 161.1,267.3 L 161.4,267.9 L 161.7,268.4 L 161.8,268.7 L 161.9,268.7 L 162.8,268.2 L 163.5,267.9 L 164.1,268.0 L 164.2,268.0 L 164.5,268.1 L 165.4,268.8 L 165.6,268.9 L 166.4,269.7 L 167.3,270.1 L 167.6,270.6 L 168.1,271.2 L 168.6,271.7 L 169.1,272.0 L 169.4,272.0 L 170.5,271.7 L 171.5,271.3 L 172.3,270.9 L 172.6,270.6 L 173.1,270.0 L 173.4,269.3 L 173.6,268.3 L 173.7,267.2 L 173.9,266.3 L 174.2,265.3 L 174.3,264.2 L 174.5,263.3 L 174.7,262.5 L 174.8,261.4 L 174.8,260.9 L 174.6,260.4 L 174.2,259.9 L 174.0,259.1 L 173.8,258.4 L 173.8,258.2 L 174.0,258.3 L 174.1,258.3 L 174.3,258.1 L 174.3,257.9 L 174.2,257.7 L 174.0,257.6 L 173.9,257.7 L 173.8,257.8 L 173.6,257.8 L 173.3,257.5 L 173.1,257.1 L 173.2,256.6 L 173.3,255.5 L 173.5,254.5 L 173.5,254.1 L 173.2,253.6 L 173.0,253.4 L 173.0,253.1 L 173.0,252.9 L 172.9,253.0 L 172.8,253.2 L 172.7,253.1 L 172.6,252.0 L 172.4,251.3 L 172.1,250.7 L 172.0,250.8 L 171.9,250.8 L 171.5,249.8 L 171.2,249.0 L 171.0,248.2 L 170.7,247.5 L 170.5,247.1 L 170.4,247.1 L 170.3,247.2 L 170.3,247.8 L 170.2,247.9 L 170.2,247.6 L 170.2,246.5 L 170.1,246.0 L 169.9,245.9 L 169.8,245.9 L 169.8,246.1 L 170.0,246.8 L 169.9,246.8 L 169.5,246.7 L 169.3,246.7 L 169.2,246.7 L 169.0,246.1 L 168.9,246.1 L 168.7,246.5 L 168.6,246.7 L 168.1,247.1 L 167.9,247.2 L 167.7,247.2 L 167.6,247.1 L 167.6,246.6 L 167.8,246.4 L 167.9,246.4 L 168.0,246.5 L 168.1,246.4 L 168.2,246.1 L 168.1,246.0 L 168.1,245.9 L 168.1,245.6 L 168.3,245.1 L 168.4,244.1 L 168.3,243.9 L 168.2,243.9 L 168.1,244.0 L 168.0,243.8 L 168.0,243.3 L 167.8,242.9 L 167.6,242.2 L 167.3,241.2 L 166.9,240.2 L 166.6,239.4 L 166.5,239.3 L 166.3,238.7 L 161.1,223.4" fill="none" stroke="black" stroke-width="2"/>
</svg>