<?xml version="1.0" encoding="UTF-8"?>
<svg width="400" height="400" viewBox="0 0 400 400" xmlns="http://www.w3.org/2000/svg">
  <rect width="400" height="400" fill="white"/>
  <path d="M 360.0,276.2 L 358.8,276.8 L 357.7,276.7 L 354.7,276.5 L 353.2,277.1 L 352.5,276.2 L 352.1,273.5 L 352.8,271.8 L 352.8,270.9 L 352.0,270.2 L 348.3,270.4 L 347.4,270.9 L 345.2,276.7 L 343.4,280.6 L 341.8,281.2 L 341.3,282.2 L 341.7,283.6 L 341.5,287.1 L 338.5,290.4 L 336.8,291.0 L 334.2,292.5 L 333.7,292.8 L 333.1,292.6 L 332.7,292.0 L 332.9,290.4 L 332.7,290.1 L 331.5,290.1 L 330.7,289.6 L 330.6,291.3 L 331.6,292.5 L 332.1,293.7 L 332.1,294.6 L 331.6,295.4 L 331.0,295.8 L 330.0,295.5 L 328.9,294.5 L 328.6,294.2 L 328.4,294.6 L 328.7,295.3 L 329.6,296.1 L 329.8,296.2 L 330.4,298.2 L 328.2,301.6 L 327.8,302.9 L 326.7,304.1 L 325.3,304.4 L 322.1,307.6 L 320.7,307.5 L 319.6,309.9 L 318.3,316.3 L 318.0,317.7 L 318.7,320.7 L 318.8,322.0 L 318.4,323.2 L 316.1,326.4 L 313.4,327.6 L 306.4,326.4 L 304.9,327.0 L 302.5,329.9 L 299.7,331.4 L 294.1,336.0 L 293.0,336.1 L 293.3,334.4 L 296.9,330.2 L 298.5,326.1 L 301.3,320.6 L 302.0,317.1 L 301.7,312.6 L 300.7,307.1 L 300.9,303.6 L 301.5,300.4 L 302.1,291.8 L 303.6,289.2 L 304.3,286.7 L 304.2,283.1 L 303.5,281.7 L 302.6,281.2 L 302.9,280.2 L 302.6,279.0 L 301.3,277.6 L 300.4,278.0 L 299.5,279.0 L 297.1,280.6 L 295.5,282.5 L 293.5,282.6 L 293.6,281.0 L 294.2,279.1 L 294.7,273.9 L 298.6,271.0 L 298.3,269.4 L 297.0,269.4 L 295.8,270.6 L 295.4,270.4 L 294.5,267.7 L 294.2,265.4 L 292.8,262.5 L 290.0,261.9 L 289.6,261.1 L 288.7,258.1 L 287.6,257.3 L 287.2,257.0 L 287.0,257.2 L 286.3,257.7 L 284.3,260.8 L 283.9,261.0 L 283.3,262.2 L 280.4,266.0 L 278.9,266.2 L 277.9,265.0 L 278.1,262.4 L 277.2,261.7 L 274.2,263.2 L 271.4,263.0 L 269.1,261.3 L 267.7,259.7 L 264.7,257.3 L 263.7,257.0 L 259.0,254.7 L 258.1,254.2 L 252.2,249.6 L 248.0,247.1 L 244.8,244.5 L 242.1,243.3 L 237.0,242.9 L 236.3,240.6 L 236.8,236.2 L 237.7,233.0 L 237.3,231.9 L 236.0,231.4 L 232.7,230.9 L 230.9,229.9 L 228.1,224.4 L 228.6,223.4 L 229.8,222.5 L 230.0,219.5 L 226.9,218.7 L 228.5,215.0 L 226.3,209.6 L 224.7,209.4 L 222.9,209.7 L 222.5,209.3 L 222.6,205.4 L 221.6,203.5 L 220.9,203.3 L 219.1,203.6 L 218.3,205.7 L 217.6,207.0 L 214.1,209.8 L 210.8,213.6 L 209.4,217.9 L 208.6,219.2 L 207.7,219.6 L 205.0,218.7 L 203.5,214.6 L 202.8,211.7 L 201.4,209.0 L 201.0,204.8 L 199.4,202.0 L 197.4,200.1 L 196.9,197.5 L 196.8,195.3 L 194.8,195.4 L 192.9,193.9 L 193.0,191.7 L 196.1,185.2 L 195.3,181.0 L 195.1,178.2 L 193.7,175.0 L 192.0,174.0 L 190.0,173.8 L 187.5,172.4 L 186.8,169.6 L 185.6,168.0 L 185.0,166.5 L 183.5,165.9 L 181.8,166.3 L 179.8,168.1 L 172.1,168.9 L 167.0,175.2 L 166.5,179.2 L 165.8,180.5 L 164.8,180.8 L 161.2,180.5 L 161.0,180.2 L 160.8,179.6 L 160.0,179.4 L 159.6,179.6 L 159.3,182.6 L 158.7,184.1 L 158.1,184.7 L 155.7,185.7 L 154.3,186.1 L 152.2,186.1 L 149.7,184.4 L 149.0,183.6 L 149.0,181.3 L 145.7,181.0 L 145.3,179.7 L 145.4,176.2 L 144.0,173.7 L 143.7,171.0 L 142.5,170.2 L 139.3,170.9 L 137.6,170.6 L 135.7,169.4 L 133.8,167.7 L 134.3,164.1 L 134.6,162.4 L 134.3,162.0 L 132.8,161.8 L 132.1,162.1 L 131.5,162.3 L 130.4,163.2 L 129.9,163.4 L 130.0,162.1 L 129.6,161.9 L 128.7,163.4 L 127.8,163.6 L 126.0,163.8 L 125.4,163.8 L 124.8,165.0 L 124.1,165.6 L 123.0,165.8 L 122.3,165.3 L 121.7,165.3 L 119.6,165.0 L 118.4,164.6 L 117.5,163.7 L 116.3,162.5 L 116.1,161.3 L 115.9,161.0 L 115.0,161.1 L 114.3,161.6 L 114.6,162.3 L 114.5,163.0 L 113.9,163.6 L 113.0,164.7 L 111.4,167.7 L 110.8,168.4 L 110.4,167.8 L 110.1,167.7 L 109.6,168.2 L 109.0,170.2 L 108.6,170.5 L 108.4,170.3 L 108.7,166.8 L 108.5,166.6 L 107.9,167.3 L 107.6,168.5 L 107.2,170.1 L 107.0,172.6 L 106.7,173.0 L 106.4,172.9 L 106.4,171.2 L 106.2,170.7 L 106.0,170.7 L 103.1,174.9 L 101.9,176.0 L 100.5,177.1 L 98.8,180.8 L 98.5,180.9 L 99.5,187.3 L 99.5,188.7 L 99.4,189.9 L 99.7,190.2 L 100.6,190.4 L 100.8,190.5 L 101.1,191.2 L 101.0,193.4 L 104.1,193.7 L 104.9,194.9 L 103.2,200.0 L 102.3,204.6 L 100.6,209.3 L 98.4,214.2 L 98.3,214.5 L 96.6,219.4 L 95.7,230.4 L 93.0,237.9 L 92.2,239.6 L 91.0,242.2 L 89.9,248.1 L 86.0,249.7 L 84.2,248.1 L 83.8,247.4 L 81.3,244.6 L 76.3,240.1 L 74.4,238.0 L 73.9,237.5 L 68.0,233.8 L 65.8,233.3 L 64.2,233.8 L 62.7,233.0 L 61.0,233.1 L 59.2,236.3 L 57.1,236.2 L 55.7,234.1 L 54.9,234.0 L 53.2,233.0 L 50.1,232.6 L 49.2,233.0 L 48.9,233.8 L 48.5,232.0 L 40.0,196.1 L 40.0,196.1 L 45.6,191.5 L 47.7,188.8 L 51.6,184.5 L 52.8,185.2 L 53.1,185.7 L 52.9,188.0 L 53.4,190.1 L 55.4,192.9 L 60.5,193.4 L 62.1,195.0 L 61.9,197.9 L 60.7,201.2 L 60.1,205.1 L 60.6,208.6 L 62.3,212.0 L 64.3,213.3 L 67.5,215.9 L 70.0,215.6 L 71.6,214.6 L 73.4,214.4 L 75.7,212.3 L 76.8,210.2 L 77.6,206.2 L 78.4,202.5 L 78.8,197.1 L 78.5,196.6 L 77.5,195.2 L 78.2,191.3 L 79.0,190.3 L 79.9,189.2 L 81.5,185.3 L 82.3,181.0 L 83.5,177.6 L 85.4,173.5 L 87.3,169.3 L 88.1,166.0 L 88.4,164.2 L 88.5,160.7 L 88.9,160.1 L 89.0,159.8 L 89.2,158.4 L 88.8,158.2 L 88.8,156.9 L 88.4,155.5 L 88.1,152.4 L 87.7,151.3 L 87.6,150.5 L 89.3,147.9 L 89.7,145.7 L 91.0,142.6 L 91.9,139.5 L 92.2,138.0 L 92.3,134.5 L 92.1,131.1 L 93.1,131.0 L 93.2,130.7 L 93.2,127.2 L 92.4,127.1 L 92.4,125.1 L 92.6,121.8 L 92.4,121.4 L 90.5,121.2 L 88.9,121.5 L 86.3,122.3 L 86.1,122.0 L 85.9,120.6 L 86.2,119.1 L 86.6,117.2 L 86.4,115.0 L 85.9,114.4 L 85.9,114.4 L 85.9,113.5 L 86.0,112.7 L 86.6,110.1 L 87.8,106.9 L 88.4,106.6 L 88.8,106.2 L 88.0,105.6 L 88.0,105.2 L 88.6,103.1 L 88.7,101.6 L 89.1,100.7 L 89.1,100.2 L 89.1,99.2 L 90.1,96.6 L 90.5,95.1 L 91.2,93.7 L 93.1,91.5 L 93.6,90.9 L 94.2,90.0 L 95.8,86.9 L 97.5,83.9 L 99.3,81.0 L 100.3,80.5 L 100.6,80.3 L 102.9,77.6 L 103.7,77.1 L 104.8,77.1 L 106.4,77.1 L 107.7,77.0 L 108.3,76.5 L 108.7,76.1 L 109.2,76.4 L 109.4,77.3 L 109.7,77.7 L 111.6,77.9 L 112.3,77.4 L 112.7,77.1 L 113.7,78.5 L 114.4,78.6 L 115.8,75.9 L 116.2,74.0 L 116.6,73.9 L 117.2,73.2 L 118.6,72.7 L 119.3,72.2 L 119.9,70.5 L 120.4,69.8 L 122.8,68.6 L 123.6,68.0 L 123.9,67.2 L 125.1,64.8 L 125.6,64.3 L 127.0,63.9 L 130.3,64.0 L 131.2,64.1 L 133.1,66.1 L 133.1,67.0 L 132.5,68.2 L 131.3,77.1 L 130.5,85.9 L 128.9,92.6 L 129.9,94.7 L 131.0,98.3 L 130.2,99.6 L 129.9,101.3 L 132.1,104.8 L 132.1,107.0 L 133.6,110.6 L 135.7,112.9 L 138.3,114.0 L 142.9,114.9 L 149.5,114.1 L 155.2,114.4 L 159.8,115.6 L 162.7,117.8 L 163.7,118.6 L 166.3,119.6 L 170.8,121.8 L 173.0,122.0 L 175.6,123.3 L 183.0,124.9 L 187.2,128.0 L 188.7,130.5 L 190.2,132.0 L 193.1,132.2 L 194.7,133.2 L 198.2,134.0 L 199.4,135.0 L 200.5,136.2 L 201.6,135.4 L 203.0,134.8 L 204.3,135.1 L 208.2,139.6 L 210.7,141.3 L 211.9,140.9 L 214.0,138.5 L 215.6,138.1 L 217.7,138.9 L 219.1,141.0 L 219.6,144.3 L 220.3,146.4 L 223.5,148.3 L 226.3,149.2 L 229.4,152.7 L 233.4,156.5 L 242.5,161.1 L 248.1,162.1 L 253.4,163.7 L 259.9,164.4 L 265.3,165.9 L 269.7,166.6 L 271.4,167.0 L 279.6,166.8 L 281.6,165.7 L 282.9,166.4 L 284.6,167.8 L 285.0,167.8 L 286.5,169.5 L 285.6,177.5 L 285.3,181.1 L 283.6,186.1 L 283.1,188.9 L 283.7,190.9 L 286.1,195.6 L 288.1,198.0 L 288.9,198.3 L 291.0,197.6 L 292.9,198.1 L 295.0,199.1 L 295.6,200.3 L 297.4,202.6 L 297.9,205.3 L 299.6,207.2 L 301.0,209.3 L 303.0,215.5 L 304.3,218.7 L 306.1,220.9 L 307.9,222.1 L 312.7,222.2 L 316.2,221.5 L 319.8,221.3 L 321.6,220.6 L 324.0,221.1 L 326.7,220.9 L 328.4,219.2 L 328.8,212.4 L 328.2,211.1 L 328.3,208.9 L 329.0,206.2 L 330.0,203.9 L 331.0,203.1 L 332.5,202.8 L 335.4,199.4 L 337.7,200.7 L 340.5,199.3 L 341.7,200.3 L 341.6,204.5 L 342.3,207.6 L 342.3,208.5 L 342.4,210.7 L 342.0,211.5 L 340.0,216.7 L 340.2,218.9 L 341.1,219.9 L 341.3,219.9 L 345.6,221.9 L 347.6,221.6 L 349.7,219.1 L 350.8,220.3 L 350.8,221.8 L 351.7,221.9 L 352.7,220.6 L 353.1,218.5 L 355.0,215.7 L 355.8,213.6 L 356.0,211.4 L 355.4,209.1 L 356.0,203.2 L 357.0,202.4 L 359.2,202.3 L 359.9,201.1 L 359.1,199.9 L 356.6,197.8 L 356.8,195.6 L 358.4,194.1 L 360.0,194.2 L 360.0,195.6 L 360.0,276.1 L 360.0,276.2" fill="none" stroke="black" stroke-width="2"/>
</svg>