<?xml version="1.0" encoding="UTF-8"?>
<svg width="400" height="400" viewBox="0 0 400 400" xmlns="http://www.w3.org/2000/svg">
  <rect width="400" height="400" fill="white"/>
  <path d="M 164.7,360.0 L 165.1,359.2 L 165.4,358.0 L 165.6,357.8 L 165.7,358.1 L 166.1,358.1 L 166.6,357.5 L 168.6,353.7 L 169.3,353.1 L 169.6,352.5 L 169.8,352.3 L 170.6,351.5 L 171.7,350.1 L 172.0,349.4 L 172.0,349.0 L 172.6,348.6 L 173.0,347.8 L 173.8,347.5 L 174.0,346.7 L 174.6,346.2 L 175.2,345.1 L 175.8,343.7 L 176.2,342.0 L 176.0,341.4 L 176.5,340.2 L 177.2,339.6 L 177.6,339.2 L 179.0,338.6 L 179.5,337.6 L 179.4,337.2 L 180.0,337.0 L 180.2,336.5 L 180.1,335.5 L 180.0,335.2 L 179.7,335.2 L 178.5,334.2 L 178.2,333.2 L 178.1,331.8 L 177.3,330.9 L 177.1,330.6 L 177.2,329.7 L 178.4,328.5 L 178.9,328.0 L 178.9,328.0 L 178.9,327.9 L 178.5,327.5 L 177.4,325.9 L 177.3,324.9 L 177.2,324.2 L 178.1,324.0 L 178.7,324.0 L 179.1,323.7 L 179.7,322.5 L 180.1,322.5 L 180.4,322.8 L 182.1,319.0 L 180.9,318.3 L 181.8,317.0 L 182.1,316.8 L 181.5,316.2 L 180.9,315.6 L 181.0,315.5 L 182.4,315.5 L 183.3,314.9 L 184.0,314.0 L 184.0,313.8 L 184.6,313.8 L 185.1,313.3 L 185.9,311.5 L 186.1,311.0 L 186.1,310.5 L 185.8,309.6 L 185.6,309.6 L 185.5,308.4 L 185.0,308.1 L 184.5,308.5 L 184.2,308.9 L 183.5,309.4 L 183.0,309.5 L 182.3,308.9 L 182.3,308.4 L 182.7,308.1 L 183.5,307.7 L 183.9,307.0 L 184.0,306.2 L 184.4,305.5 L 185.2,304.6 L 185.2,303.7 L 185.0,303.3 L 184.9,302.8 L 184.9,302.0 L 184.6,301.4 L 184.6,300.9 L 184.3,300.4 L 184.2,299.6 L 183.7,299.4 L 183.4,298.9 L 183.1,298.3 L 183.0,297.6 L 182.3,295.9 L 181.2,294.8 L 180.9,294.3 L 180.8,293.6 L 180.8,293.5 L 180.7,293.2 L 180.3,293.0 L 179.7,293.4 L 179.6,293.4 L 178.9,293.3 L 178.4,292.5 L 178.2,291.8 L 178.3,291.4 L 178.6,291.0 L 178.9,290.9 L 179.1,290.3 L 179.9,289.8 L 180.4,289.7 L 181.2,290.1 L 181.9,291.2 L 181.9,291.8 L 182.4,292.5 L 183.3,292.9 L 183.5,293.2 L 184.0,293.4 L 184.8,293.8 L 185.8,294.5 L 186.2,294.9 L 186.6,294.8 L 187.2,294.5 L 188.1,294.4 L 188.6,294.2 L 188.7,294.1 L 189.7,292.2 L 189.8,291.6 L 190.1,291.1 L 189.8,290.3 L 189.3,289.8 L 189.0,289.1 L 189.0,288.4 L 188.4,287.5 L 188.4,287.1 L 188.0,286.6 L 188.1,286.3 L 188.2,286.1 L 188.3,285.3 L 188.8,285.3 L 188.9,284.3 L 188.6,283.9 L 188.0,283.9 L 187.7,283.8 L 187.7,284.5 L 186.6,284.1 L 186.4,284.3 L 186.1,285.1 L 185.5,285.1 L 184.9,284.6 L 184.8,284.5 L 184.5,284.3 L 184.0,284.2 L 183.3,283.6 L 183.1,283.1 L 183.1,282.2 L 183.4,281.4 L 183.9,281.2 L 184.6,281.7 L 185.1,281.3 L 185.1,280.6 L 184.6,280.0 L 184.9,279.7 L 185.3,279.6 L 185.8,279.7 L 185.6,280.2 L 185.4,280.6 L 185.8,281.4 L 186.3,281.7 L 186.6,282.0 L 186.7,282.5 L 187.2,283.1 L 187.7,283.1 L 188.1,282.8 L 188.1,282.2 L 187.2,281.0 L 186.8,280.7 L 186.7,280.0 L 186.6,279.6 L 187.5,279.5 L 187.5,279.4 L 187.6,278.4 L 187.6,278.0 L 186.8,277.5 L 186.7,276.9 L 186.2,276.6 L 186.4,276.1 L 186.5,275.3 L 186.1,274.9 L 185.8,275.4 L 185.3,275.2 L 184.9,274.8 L 185.1,273.4 L 184.6,271.7 L 184.9,271.1 L 184.4,270.3 L 183.3,268.9 L 183.3,268.2 L 183.0,267.5 L 182.4,267.4 L 181.8,267.6 L 181.5,267.2 L 180.9,266.8 L 180.8,265.6 L 180.7,264.5 L 180.3,263.6 L 180.1,263.3 L 179.4,261.9 L 179.5,261.4 L 180.0,260.8 L 180.1,259.8 L 181.0,259.3 L 182.1,259.4 L 182.9,260.1 L 183.1,260.7 L 183.7,261.5 L 184.0,262.0 L 184.6,262.6 L 184.7,263.5 L 185.1,263.8 L 185.2,264.0 L 185.4,264.3 L 185.9,264.1 L 186.6,264.2 L 187.0,265.3 L 187.5,265.8 L 187.6,265.8 L 187.4,266.2 L 187.6,266.4 L 187.8,266.0 L 187.8,265.9 L 187.7,265.9 L 187.7,265.8 L 188.0,265.6 L 189.1,265.7 L 189.3,265.9 L 189.3,266.4 L 188.8,267.4 L 188.7,267.7 L 189.2,268.6 L 189.3,268.9 L 189.1,269.2 L 188.9,269.3 L 188.7,269.6 L 189.0,270.5 L 189.9,272.0 L 190.5,271.7 L 190.5,271.3 L 190.0,270.5 L 190.3,270.3 L 191.2,271.1 L 191.5,271.0 L 191.8,269.7 L 193.3,267.9 L 193.5,266.9 L 193.9,266.2 L 193.9,265.8 L 193.4,265.5 L 193.6,265.1 L 194.3,264.3 L 194.5,263.9 L 194.6,263.7 L 194.9,264.1 L 195.1,263.6 L 195.1,262.7 L 194.7,262.2 L 194.6,261.6 L 194.0,261.1 L 193.0,261.1 L 192.8,261.4 L 192.6,261.3 L 192.4,261.4 L 192.1,261.4 L 191.9,261.1 L 191.7,261.1 L 191.3,261.5 L 190.8,261.0 L 190.9,260.7 L 191.3,260.3 L 191.6,259.2 L 191.8,257.4 L 191.3,257.0 L 191.1,256.9 L 190.8,256.7 L 190.0,256.4 L 189.8,255.9 L 189.3,255.5 L 189.6,255.3 L 189.3,254.8 L 189.6,254.1 L 189.0,253.5 L 188.5,253.9 L 188.2,253.9 L 188.0,253.6 L 188.0,252.9 L 187.5,252.2 L 187.3,251.0 L 187.6,250.1 L 187.8,248.9 L 188.1,248.7 L 187.9,248.1 L 187.8,247.4 L 185.6,244.8 L 185.2,243.6 L 185.2,243.1 L 185.4,242.8 L 184.1,242.6 L 183.7,242.7 L 183.7,243.1 L 183.4,243.7 L 182.7,243.7 L 181.6,243.1 L 181.5,242.7 L 181.8,242.0 L 181.6,241.6 L 181.4,241.5 L 181.1,242.0 L 180.6,242.0 L 180.3,241.7 L 180.8,240.9 L 180.7,240.5 L 180.1,240.5 L 179.9,240.3 L 179.9,239.1 L 180.0,238.7 L 179.8,238.0 L 179.5,237.8 L 178.8,237.7 L 178.6,237.1 L 178.0,236.3 L 177.8,236.0 L 177.1,235.7 L 177.0,236.2 L 176.7,236.3 L 176.2,236.2 L 175.8,235.7 L 175.8,233.6 L 175.6,233.1 L 175.2,232.7 L 174.9,233.0 L 174.6,233.0 L 174.3,233.2 L 174.2,233.7 L 173.8,234.0 L 173.1,234.1 L 171.7,236.1 L 171.5,237.5 L 171.7,239.1 L 171.4,239.5 L 170.3,239.7 L 169.6,240.3 L 168.9,240.4 L 168.7,240.1 L 168.5,239.8 L 168.4,239.3 L 168.2,237.7 L 167.9,236.4 L 167.1,235.1 L 166.3,234.1 L 165.8,233.7 L 165.1,233.4 L 164.9,232.5 L 164.7,231.3 L 164.4,231.3 L 163.9,231.4 L 162.9,230.0 L 162.2,229.4 L 161.8,228.4 L 161.5,228.2 L 161.1,228.3 L 159.4,229.8 L 158.5,231.0 L 158.0,231.3 L 158.1,230.7 L 158.3,230.0 L 159.2,229.1 L 159.4,227.3 L 158.7,227.1 L 158.0,227.3 L 157.8,226.7 L 157.5,224.0 L 158.0,223.8 L 158.2,224.0 L 158.9,224.1 L 159.5,223.1 L 159.7,221.8 L 159.7,220.8 L 160.3,220.5 L 160.6,219.6 L 160.8,219.5 L 160.6,219.2 L 160.7,218.8 L 160.5,218.6 L 160.4,218.3 L 160.2,217.7 L 159.3,216.4 L 158.9,216.4 L 158.1,217.2 L 157.5,217.0 L 156.9,217.1 L 155.3,217.1 L 154.8,217.2 L 153.8,216.3 L 153.7,216.1 L 153.1,215.7 L 152.6,215.2 L 152.3,214.4 L 152.2,213.8 L 152.1,213.5 L 151.9,213.2 L 151.8,213.1 L 151.3,212.6 L 151.1,212.0 L 150.9,211.5 L 150.6,210.4 L 150.3,209.8 L 149.8,208.9 L 149.7,208.8 L 149.7,208.6 L 149.5,208.0 L 149.1,206.9 L 149.0,206.3 L 148.8,205.9 L 148.7,205.8 L 148.1,205.8 L 147.9,205.7 L 147.9,205.6 L 147.7,205.0 L 147.7,204.3 L 147.6,203.9 L 147.6,203.6 L 147.7,203.4 L 148.0,203.2 L 148.1,203.2 L 148.1,203.0 L 148.5,202.8 L 148.9,202.5 L 150.0,204.2 L 150.9,205.5 L 151.1,205.9 L 151.5,206.5 L 152.5,207.8 L 153.4,208.9 L 153.5,209.0 L 154.0,210.0 L 154.2,212.5 L 155.2,213.1 L 155.6,213.1 L 156.3,212.9 L 157.0,212.1 L 157.0,211.8 L 157.6,211.2 L 158.2,210.8 L 159.7,210.1 L 160.5,210.1 L 161.2,209.9 L 161.6,210.6 L 161.5,210.9 L 161.8,211.5 L 162.2,213.2 L 162.5,213.7 L 163.1,214.3 L 163.6,214.3 L 164.4,214.0 L 165.5,212.8 L 167.0,212.6 L 168.5,211.9 L 169.1,211.8 L 169.6,211.1 L 170.6,209.3 L 171.1,208.0 L 171.0,207.7 L 170.6,206.8 L 170.6,205.9 L 171.9,204.6 L 173.3,202.4 L 173.8,202.2 L 174.2,201.9 L 174.8,201.2 L 175.2,200.6 L 175.4,199.7 L 175.2,197.8 L 174.6,196.7 L 174.5,196.8 L 174.3,197.9 L 173.8,198.6 L 173.5,198.8 L 172.4,198.5 L 171.7,198.6 L 169.9,199.6 L 169.1,199.7 L 169.3,199.0 L 169.6,198.4 L 170.2,198.0 L 171.0,198.0 L 171.6,197.4 L 171.8,196.7 L 171.9,195.4 L 172.4,194.8 L 172.5,192.8 L 172.8,192.6 L 173.7,192.6 L 174.2,192.4 L 175.1,191.6 L 175.7,189.5 L 175.8,189.0 L 176.0,188.7 L 176.1,187.8 L 175.8,186.5 L 175.5,186.1 L 175.2,186.5 L 174.5,186.4 L 174.3,185.9 L 174.3,185.1 L 174.3,184.9 L 174.0,184.8 L 173.7,185.1 L 173.5,185.4 L 173.2,185.5 L 172.9,185.1 L 172.9,185.0 L 173.0,183.4 L 172.9,183.4 L 172.5,183.0 L 171.1,182.9 L 170.3,182.4 L 169.2,183.0 L 167.8,183.8 L 167.6,183.1 L 167.6,182.9 L 167.4,182.5 L 167.4,181.8 L 166.8,181.1 L 166.9,180.7 L 167.2,180.8 L 167.7,181.2 L 168.5,181.5 L 169.7,181.3 L 171.1,180.3 L 171.7,180.5 L 172.0,180.2 L 172.1,179.9 L 172.2,179.0 L 172.0,178.2 L 171.9,177.9 L 172.1,177.2 L 172.3,176.2 L 172.8,173.1 L 172.8,171.4 L 172.4,170.0 L 172.5,169.4 L 173.3,168.6 L 173.4,167.7 L 173.7,167.6 L 174.6,167.5 L 174.9,167.7 L 175.3,168.4 L 175.6,168.2 L 175.7,167.7 L 175.8,167.7 L 176.2,167.7 L 176.6,168.0 L 176.9,168.2 L 177.0,168.2 L 176.7,169.5 L 176.6,171.0 L 176.8,172.2 L 176.6,174.1 L 176.8,174.3 L 177.0,174.1 L 177.7,174.5 L 178.0,174.4 L 178.5,174.5 L 179.2,175.3 L 179.5,175.0 L 179.6,175.2 L 179.8,175.8 L 179.9,176.0 L 180.3,175.9 L 180.4,174.6 L 180.2,174.4 L 180.4,173.5 L 180.7,173.4 L 181.1,173.5 L 181.5,174.2 L 181.8,174.0 L 182.1,173.5 L 182.7,172.5 L 183.0,171.8 L 183.2,171.5 L 183.5,171.3 L 184.1,168.4 L 184.0,168.1 L 183.6,168.0 L 183.5,167.5 L 183.3,167.1 L 181.8,167.0 L 181.0,165.9 L 180.5,166.0 L 179.7,166.2 L 178.8,166.6 L 178.7,166.4 L 178.4,166.3 L 178.1,166.7 L 177.1,167.4 L 177.1,167.4 L 176.8,167.4 L 176.5,167.4 L 176.1,167.2 L 176.0,167.0 L 176.2,166.3 L 177.4,164.8 L 177.8,164.0 L 178.0,163.1 L 177.8,162.0 L 178.4,161.5 L 178.8,160.7 L 179.5,159.2 L 179.5,158.6 L 179.6,157.9 L 180.0,154.3 L 180.4,153.5 L 180.9,150.4 L 181.2,150.1 L 181.6,150.2 L 182.2,150.7 L 182.8,152.2 L 183.1,153.2 L 183.7,154.8 L 184.5,155.1 L 185.3,155.4 L 185.4,156.0 L 185.5,156.2 L 185.7,156.3 L 185.8,156.3 L 186.1,155.7 L 186.5,155.8 L 186.7,155.9 L 186.8,155.8 L 186.8,155.6 L 186.8,155.3 L 186.7,155.0 L 186.8,154.8 L 187.2,154.3 L 187.4,153.8 L 188.0,152.9 L 189.0,150.1 L 189.4,149.4 L 189.8,148.4 L 189.7,147.8 L 189.9,147.6 L 190.2,147.5 L 191.1,145.9 L 191.0,145.5 L 190.7,145.1 L 190.8,144.7 L 190.3,144.4 L 190.1,143.1 L 190.1,142.3 L 189.0,138.9 L 188.6,138.3 L 188.5,137.8 L 187.9,137.2 L 187.5,136.8 L 187.1,135.5 L 187.5,135.2 L 185.7,134.3 L 184.6,133.2 L 183.7,132.7 L 183.5,132.4 L 184.9,132.4 L 186.9,131.3 L 187.6,131.4 L 188.3,131.8 L 189.9,133.5 L 190.1,133.4 L 190.1,133.3 L 190.1,133.0 L 190.1,131.8 L 190.2,131.0 L 190.3,130.8 L 190.6,130.9 L 190.8,131.2 L 191.0,131.5 L 191.1,131.9 L 191.4,133.1 L 191.7,133.6 L 191.9,133.9 L 192.1,134.3 L 192.2,134.3 L 192.6,133.9 L 193.5,133.5 L 194.1,133.1 L 194.1,132.8 L 194.1,132.3 L 193.8,131.3 L 193.9,130.8 L 194.1,130.7 L 194.4,130.7 L 194.7,130.9 L 195.1,131.4 L 195.3,131.4 L 195.7,131.2 L 195.9,130.9 L 196.0,130.4 L 196.1,129.9 L 196.4,129.6 L 196.4,129.5 L 196.6,129.4 L 196.9,129.0 L 197.1,128.7 L 196.7,124.9 L 196.6,124.4 L 196.8,124.4 L 197.1,124.4 L 196.9,122.7 L 196.7,121.2 L 196.6,120.2 L 196.4,120.2 L 196.3,120.3 L 196.4,121.6 L 196.2,121.4 L 195.9,121.0 L 195.4,120.7 L 194.9,120.5 L 194.8,120.3 L 194.5,120.2 L 193.3,120.1 L 192.1,120.1 L 191.7,120.0 L 191.7,119.7 L 191.9,118.6 L 192.1,117.5 L 192.2,117.3 L 192.0,116.6 L 191.9,116.3 L 191.8,116.4 L 191.7,116.4 L 191.5,116.4 L 191.3,115.7 L 190.9,115.3 L 190.7,114.2 L 190.7,113.1 L 190.6,112.7 L 190.6,111.5 L 190.5,110.8 L 190.4,110.7 L 190.3,110.7 L 190.2,110.4 L 190.3,109.7 L 190.4,109.4 L 190.9,109.4 L 191.2,109.3 L 191.3,109.1 L 191.0,109.0 L 191.2,108.0 L 191.2,107.7 L 191.0,107.6 L 190.7,107.5 L 190.5,106.5 L 190.2,106.4 L 189.9,105.9 L 189.8,105.4 L 189.8,104.6 L 189.4,103.6 L 189.3,103.4 L 189.4,103.1 L 190.5,103.1 L 190.4,102.9 L 190.3,102.9 L 190.4,102.8 L 190.3,102.5 L 190.0,102.4 L 189.1,102.0 L 189.0,101.8 L 189.0,101.5 L 189.3,101.2 L 189.6,101.2 L 190.2,101.3 L 190.4,101.5 L 190.6,101.6 L 190.7,101.6 L 190.9,101.3 L 191.1,101.0 L 190.3,100.3 L 191.1,100.7 L 191.3,100.8 L 191.4,100.6 L 191.4,100.4 L 191.4,100.3 L 191.5,100.1 L 191.6,100.1 L 191.7,100.1 L 191.6,99.2 L 191.5,98.0 L 191.9,97.9 L 191.8,95.8 L 191.8,94.7 L 191.8,93.7 L 191.5,93.7 L 191.4,92.4 L 191.5,92.3 L 191.3,91.5 L 191.4,91.1 L 191.4,90.7 L 191.4,90.6 L 191.3,90.0 L 191.1,89.5 L 190.7,89.1 L 189.7,87.5 L 189.8,87.3 L 189.7,86.9 L 189.7,86.7 L 189.7,86.3 L 189.3,86.0 L 189.0,85.2 L 189.2,85.2 L 189.0,84.5 L 188.7,83.6 L 188.5,83.7 L 188.4,83.4 L 188.6,83.3 L 188.5,83.1 L 188.0,83.0 L 188.2,79.7 L 188.5,78.8 L 189.1,78.3 L 190.4,77.6 L 190.7,77.1 L 190.7,74.1 L 191.0,73.2 L 191.7,70.4 L 191.7,69.5 L 191.9,69.2 L 191.5,68.3 L 191.5,68.0 L 191.4,67.4 L 191.4,65.5 L 190.4,63.5 L 190.1,62.9 L 190.0,62.7 L 189.5,62.5 L 189.3,61.8 L 188.7,61.3 L 188.4,60.7 L 187.8,59.9 L 187.8,59.8 L 187.6,59.7 L 187.4,59.5 L 187.4,59.4 L 187.1,59.2 L 186.9,59.1 L 186.7,58.4 L 186.3,57.3 L 186.1,56.2 L 185.9,55.0 L 185.8,53.8 L 185.8,52.8 L 186.0,51.6 L 186.1,51.0 L 186.3,50.7 L 186.3,50.3 L 186.3,50.3 L 186.7,49.3 L 186.9,49.1 L 187.6,48.8 L 188.0,48.7 L 188.4,48.5 L 189.9,47.8 L 190.2,47.7 L 190.5,47.6 L 190.4,47.4 L 189.7,46.1 L 189.6,44.8 L 189.8,43.7 L 190.6,42.4 L 191.0,42.1 L 191.8,41.7 L 192.6,41.4 L 193.2,41.3 L 194.3,41.4 L 195.3,41.9 L 195.8,42.3 L 196.8,43.2 L 197.1,43.5 L 197.1,43.6 L 198.7,42.9 L 198.6,43.2 L 198.7,43.2 L 198.7,43.5 L 198.9,43.5 L 199.0,43.3 L 198.9,45.2 L 199.4,45.3 L 199.6,43.4 L 199.7,42.4 L 200.5,42.4 L 200.8,43.8 L 201.0,44.9 L 201.4,44.9 L 201.2,43.5 L 201.0,42.5 L 202.0,41.7 L 202.7,42.8 L 203.2,42.5 L 203.0,42.2 L 202.7,41.7 L 202.8,40.9 L 203.4,40.6 L 203.5,40.8 L 204.1,40.6 L 205.4,40.4 L 205.9,40.2 L 206.2,40.2 L 207.0,40.0 L 207.3,41.1 L 207.6,41.1 L 208.3,41.6 L 209.2,41.4 L 209.3,41.4 L 211.3,41.3 L 211.9,41.5 L 213.6,42.6 L 214.6,43.0 L 217.9,43.2 L 217.9,43.3 L 219.4,43.2 L 220.9,41.9 L 221.1,42.1 L 222.0,42.9 L 222.8,44.3 L 222.8,44.7 L 221.5,45.7 L 221.1,45.9 L 221.2,45.6 L 219.2,45.8 L 219.2,46.5 L 218.3,46.2 L 217.8,46.6 L 217.3,47.7 L 216.9,48.1 L 216.3,48.8 L 214.9,50.1 L 212.4,51.9 L 211.2,52.3 L 210.5,52.4 L 209.0,53.3 L 208.1,54.3 L 208.0,54.5 L 207.3,55.5 L 206.7,56.2 L 206.7,56.9 L 206.5,57.4 L 205.8,58.3 L 205.2,58.8 L 204.3,60.7 L 204.4,60.9 L 204.0,61.3 L 203.6,61.2 L 201.7,64.4 L 200.3,67.3 L 199.8,68.0 L 199.2,67.5 L 198.9,68.2 L 197.8,67.7 L 197.6,68.1 L 199.0,68.5 L 198.4,69.6 L 197.5,70.6 L 196.9,71.2 L 196.6,71.5 L 195.9,77.6 L 196.3,77.7 L 196.8,74.3 L 197.4,74.3 L 198.0,76.9 L 197.6,78.0 L 197.8,78.6 L 197.9,78.6 L 198.2,77.6 L 198.9,77.8 L 199.6,77.8 L 199.5,78.2 L 199.8,78.4 L 199.8,78.8 L 199.5,79.9 L 199.3,80.8 L 199.2,81.4 L 198.9,82.2 L 198.8,82.6 L 200.2,83.1 L 200.3,82.6 L 201.2,82.6 L 201.7,82.8 L 202.3,84.4 L 202.0,84.9 L 202.5,86.6 L 202.2,87.3 L 202.1,87.7 L 202.1,88.1 L 202.4,89.1 L 202.6,89.3 L 202.5,90.0 L 202.3,90.5 L 202.4,90.9 L 203.1,91.5 L 202.9,92.3 L 202.2,92.9 L 202.0,93.5 L 201.9,94.9 L 201.8,95.6 L 201.8,95.6 L 201.7,96.2 L 201.7,96.8 L 201.7,97.5 L 201.7,97.6 L 202.2,98.2 L 202.3,98.9 L 202.7,99.2 L 203.8,100.6 L 204.6,101.5 L 204.8,101.9 L 205.0,102.2 L 204.8,102.3 L 206.7,106.4 L 206.5,106.6 L 206.4,108.0 L 206.1,108.0 L 206.2,108.5 L 206.5,108.6 L 206.5,109.1 L 206.8,109.2 L 207.2,110.1 L 208.6,113.8 L 209.2,113.6 L 209.6,113.5 L 209.7,113.4 L 209.6,113.1 L 210.0,113.4 L 210.2,113.8 L 210.5,114.5 L 211.1,115.5 L 211.5,116.1 L 212.0,117.0 L 212.5,118.1 L 212.8,118.8 L 213.3,119.3 L 213.5,119.5 L 213.7,119.5 L 214.1,119.1 L 214.2,119.1 L 214.7,118.7 L 215.2,118.5 L 215.3,118.4 L 215.9,118.4 L 216.5,119.1 L 216.7,119.6 L 216.5,122.7 L 216.4,123.2 L 216.2,123.5 L 216.2,124.3 L 215.2,125.4 L 214.5,126.1 L 213.3,126.0 L 213.4,126.6 L 213.1,127.0 L 212.9,127.4 L 212.7,127.9 L 212.4,128.3 L 212.2,128.6 L 212.2,129.1 L 212.1,129.8 L 212.0,130.4 L 211.5,130.9 L 210.8,131.1 L 210.4,131.8 L 210.0,132.2 L 208.8,132.4 L 208.6,133.0 L 208.8,133.9 L 209.0,134.3 L 209.8,134.6 L 209.4,135.0 L 209.5,135.8 L 209.8,136.0 L 210.6,136.3 L 210.6,136.9 L 210.2,137.2 L 209.6,137.2 L 209.5,137.4 L 209.5,138.6 L 210.0,139.9 L 210.7,140.9 L 210.5,143.6 L 210.6,144.6 L 211.1,144.9 L 211.2,145.2 L 210.8,145.5 L 211.1,146.4 L 211.3,146.4 L 212.2,146.4 L 212.7,146.1 L 213.6,146.1 L 214.0,146.4 L 214.2,146.7 L 214.6,147.2 L 214.6,147.7 L 215.2,148.1 L 215.4,148.0 L 215.6,147.2 L 215.9,147.2 L 216.2,145.7 L 217.2,145.8 L 217.1,146.9 L 217.3,147.7 L 217.6,148.3 L 217.9,148.3 L 218.0,147.6 L 218.3,147.2 L 218.4,146.7 L 218.6,146.6 L 218.6,145.9 L 218.3,145.1 L 218.4,144.8 L 219.1,144.5 L 218.8,143.9 L 219.0,143.4 L 218.7,142.8 L 218.9,142.2 L 218.9,142.1 L 218.9,142.1 L 218.3,141.5 L 218.2,140.9 L 218.3,139.0 L 218.2,138.3 L 218.4,137.2 L 218.7,136.6 L 218.0,135.6 L 218.1,134.5 L 219.1,133.3 L 220.1,132.7 L 220.6,131.8 L 221.6,131.1 L 222.3,130.9 L 223.2,130.8 L 223.8,130.4 L 224.0,129.6 L 225.6,128.3 L 226.3,127.4 L 227.2,127.3 L 227.8,127.5 L 228.3,127.8 L 228.7,129.7 L 228.4,130.3 L 227.6,130.2 L 227.2,130.5 L 227.0,130.9 L 226.8,131.6 L 227.0,132.6 L 227.4,133.3 L 227.4,134.0 L 227.8,135.3 L 227.8,136.6 L 227.3,137.1 L 226.6,137.1 L 226.1,137.8 L 226.0,138.5 L 226.2,139.5 L 225.9,140.1 L 225.8,141.2 L 225.9,141.9 L 225.7,142.3 L 225.4,143.8 L 224.9,146.4 L 224.7,146.7 L 224.6,147.4 L 224.4,147.6 L 224.1,147.4 L 223.7,147.3 L 223.4,147.7 L 223.3,148.7 L 223.3,149.8 L 224.3,151.9 L 224.7,152.0 L 224.7,152.7 L 224.9,153.2 L 225.0,153.3 L 225.4,152.9 L 225.7,153.3 L 226.0,153.1 L 226.1,152.8 L 226.4,152.7 L 226.5,153.5 L 227.0,153.5 L 228.8,151.5 L 229.0,151.0 L 229.1,150.7 L 228.9,150.3 L 229.4,149.6 L 229.9,149.5 L 230.1,149.3 L 230.4,148.9 L 230.7,148.7 L 230.9,148.8 L 231.5,148.6 L 231.5,147.7 L 231.4,147.4 L 231.5,146.9 L 231.6,146.6 L 232.2,145.9 L 232.0,145.9 L 232.0,145.4 L 231.4,145.0 L 230.8,144.2 L 230.9,142.3 L 230.5,141.4 L 230.0,140.4 L 230.4,139.8 L 231.2,139.2 L 231.7,139.0 L 232.0,139.2 L 233.1,138.9 L 234.7,138.7 L 236.2,139.1 L 236.9,139.2 L 237.5,139.8 L 238.3,141.5 L 238.7,143.8 L 238.7,144.7 L 238.4,145.8 L 238.8,147.8 L 238.8,148.9 L 239.2,149.7 L 239.2,150.2 L 239.1,150.9 L 238.9,151.4 L 238.1,151.6 L 238.0,151.5 L 238.0,151.2 L 237.9,150.9 L 237.6,151.1 L 237.5,153.2 L 237.6,153.5 L 237.9,153.4 L 238.1,153.1 L 238.2,152.2 L 238.1,151.7 L 238.9,151.5 L 239.2,151.8 L 239.5,152.1 L 239.4,152.8 L 238.0,154.8 L 237.4,154.4 L 237.3,154.7 L 237.7,155.0 L 237.9,155.1 L 237.7,156.9 L 236.8,157.7 L 237.0,158.2 L 237.2,159.1 L 237.7,160.8 L 238.0,160.9 L 238.0,161.8 L 238.2,162.5 L 238.0,162.7 L 237.8,163.3 L 237.8,164.8 L 238.2,165.5 L 237.9,166.1 L 237.6,168.6 L 237.7,169.3 L 238.4,171.1 L 238.9,173.0 L 238.9,174.2 L 239.2,174.9 L 239.7,176.7 L 240.0,177.3 L 240.0,177.7 L 240.7,178.2 L 240.7,178.9 L 240.8,179.2 L 241.3,179.3 L 241.2,179.8 L 241.4,180.1 L 241.7,180.2 L 242.4,179.8 L 242.8,180.1 L 243.3,180.4 L 244.3,181.8 L 244.1,182.1 L 244.0,182.5 L 244.4,183.1 L 245.4,185.7 L 246.2,186.9 L 246.3,187.6 L 246.5,188.4 L 245.5,189.6 L 245.5,189.9 L 245.4,190.7 L 245.6,191.0 L 245.8,191.6 L 246.1,192.8 L 246.7,195.9 L 247.0,198.5 L 247.2,199.3 L 247.1,199.8 L 247.2,199.9 L 247.1,200.3 L 247.6,200.8 L 247.5,201.6 L 247.2,202.5 L 246.8,202.8 L 246.1,203.0 L 245.9,203.0 L 245.7,202.7 L 245.5,202.2 L 245.1,201.8 L 245.1,201.4 L 244.9,201.2 L 244.5,201.1 L 244.2,201.4 L 244.1,201.6 L 244.0,202.5 L 244.3,202.6 L 244.4,202.5 L 244.7,202.2 L 244.9,202.1 L 245.0,202.3 L 244.9,203.3 L 244.9,204.1 L 245.1,204.8 L 245.0,205.0 L 244.9,205.1 L 244.8,205.7 L 244.8,206.0 L 244.5,206.4 L 244.5,206.7 L 244.6,207.0 L 245.4,207.6 L 245.8,208.4 L 246.3,209.5 L 246.4,210.4 L 246.5,211.4 L 246.4,211.9 L 246.2,212.1 L 246.0,212.1 L 244.4,212.0 L 242.8,212.5 L 242.4,212.8 L 242.6,213.1 L 242.1,214.6 L 241.8,214.8 L 241.8,215.5 L 241.4,216.0 L 241.1,217.4 L 241.0,219.1 L 241.3,221.0 L 241.1,222.1 L 241.0,223.1 L 241.1,223.7 L 241.1,225.8 L 241.3,226.5 L 241.1,227.4 L 240.4,228.8 L 239.3,229.6 L 238.8,229.5 L 238.3,228.7 L 238.0,228.6 L 238.0,229.3 L 237.7,229.6 L 237.6,231.2 L 237.3,231.7 L 236.0,232.0 L 234.2,234.0 L 234.1,234.7 L 234.1,235.9 L 233.5,237.2 L 232.2,238.3 L 231.4,238.3 L 229.9,237.2 L 230.0,236.9 L 230.1,236.3 L 229.8,236.1 L 229.2,236.8 L 229.0,237.4 L 228.1,239.5 L 228.0,241.3 L 228.7,242.5 L 228.9,243.1 L 229.6,243.9 L 230.8,244.5 L 231.3,244.9 L 232.2,244.9 L 232.9,244.7 L 233.3,244.2 L 233.5,243.5 L 233.8,243.6 L 233.9,244.2 L 233.9,244.5 L 234.6,245.2 L 234.9,245.2 L 235.0,244.3 L 235.2,244.0 L 235.8,244.1 L 235.8,243.4 L 235.6,243.0 L 236.2,242.8 L 236.2,242.3 L 235.9,241.7 L 236.1,241.3 L 236.1,241.2 L 236.4,241.3 L 237.0,241.5 L 237.6,241.9 L 238.2,242.6 L 238.8,243.0 L 239.2,243.1 L 239.7,243.3 L 239.9,243.3 L 240.6,243.6 L 240.6,243.9 L 241.0,244.7 L 241.1,245.8 L 241.6,247.3 L 241.7,248.7 L 241.4,249.2 L 241.5,250.3 L 241.8,251.1 L 242.1,251.3 L 242.2,251.6 L 242.5,251.8 L 242.5,252.4 L 242.8,252.8 L 244.4,253.4 L 244.5,254.1 L 244.0,254.3 L 243.7,254.5 L 243.4,255.2 L 242.7,255.2 L 242.1,255.5 L 242.1,256.0 L 241.5,256.4 L 241.3,257.2 L 240.7,258.2 L 240.1,258.7 L 239.7,260.3 L 239.3,260.8 L 238.8,262.5 L 239.0,262.8 L 239.5,262.6 L 239.6,262.7 L 239.3,264.3 L 239.2,264.9 L 239.0,265.9 L 239.2,266.1 L 239.0,266.3 L 238.8,266.9 L 238.4,270.1 L 238.7,271.0 L 238.8,271.8 L 239.1,272.0 L 239.9,272.0 L 240.9,271.1 L 241.0,271.2 L 241.0,271.7 L 242.2,271.8 L 243.9,271.7 L 245.4,270.1 L 245.8,269.8 L 246.1,269.8 L 246.6,270.2 L 246.5,270.6 L 245.9,271.0 L 245.7,271.4 L 244.8,272.6 L 244.1,273.0 L 243.9,273.1 L 243.7,273.9 L 243.6,274.6 L 244.0,275.5 L 244.0,276.3 L 243.8,277.0 L 243.8,278.0 L 244.3,278.8 L 244.6,279.4 L 244.9,279.8 L 245.0,280.1 L 244.3,280.0 L 244.3,280.2 L 244.3,281.0 L 245.1,281.5 L 245.4,281.4 L 246.2,281.5 L 246.3,281.7 L 246.0,282.2 L 246.6,282.5 L 246.2,282.7 L 245.9,284.6 L 246.2,285.1 L 246.0,285.4 L 246.1,285.8 L 245.9,286.1 L 245.7,288.9 L 246.7,289.9 L 246.3,290.3 L 246.2,290.8 L 246.6,291.2 L 246.3,291.5 L 246.2,292.2 L 247.1,293.2 L 249.9,294.7 L 250.0,295.0 L 249.5,295.2 L 249.4,295.9 L 248.9,296.3 L 249.0,296.6 L 249.0,297.0 L 249.1,297.4 L 248.9,297.9 L 248.2,298.1 L 248.1,298.5 L 247.7,298.7 L 247.6,299.3 L 248.3,300.0 L 248.4,300.5 L 247.8,300.6 L 247.7,301.4 L 247.9,301.7 L 248.8,302.2 L 249.1,303.4 L 248.6,303.9 L 249.2,304.2 L 249.3,304.5 L 248.9,304.7 L 248.4,305.1 L 248.4,305.5 L 248.9,305.9 L 248.9,306.4 L 249.2,306.6 L 249.4,307.2 L 250.7,307.8 L 250.9,308.3 L 250.3,308.3 L 250.0,308.6 L 250.6,309.1 L 250.1,309.8 L 250.2,310.7 L 250.5,311.5 L 250.9,312.1 L 252.0,312.9 L 252.0,314.0 L 252.2,314.6 L 252.3,315.0 L 252.4,315.7 L 251.6,316.4 L 251.1,315.7 L 250.4,315.2 L 250.0,314.7 L 249.0,314.7 L 248.7,316.1 L 249.4,317.2 L 249.0,317.2 L 249.1,318.5 L 248.9,318.9 L 248.9,319.4 L 249.8,320.6 L 249.8,320.9 L 249.5,321.1 L 249.2,321.2 L 249.0,320.9 L 248.3,320.7 L 247.8,320.9 L 247.7,321.3 L 247.6,321.7 L 247.9,322.1 L 247.8,322.6 L 248.3,323.6 L 249.0,324.1 L 249.1,324.8 L 248.7,325.1 L 248.7,325.8 L 249.6,327.3 L 249.7,328.0 L 250.5,329.2 L 250.7,329.5 L 250.1,329.5 L 249.8,329.6 L 249.7,330.2 L 249.8,330.6 L 249.7,330.6 L 247.5,333.1 L 247.5,333.1 L 247.3,332.8 L 246.2,332.4 L 246.3,331.1 L 246.0,331.0 L 245.7,330.7 L 245.4,330.9 L 245.3,330.6 L 244.8,330.6 L 245.0,332.0 L 245.0,333.0 L 245.2,334.2 L 245.2,334.3 L 176.9,356.3 L 177.0,356.2 L 177.1,355.7 L 177.9,354.9 L 179.0,353.0 L 179.8,351.7 L 180.0,349.9 L 180.3,349.5 L 180.4,349.1 L 180.6,348.8 L 181.5,350.1 L 181.9,350.4 L 182.5,350.0 L 182.9,349.6 L 183.3,348.7 L 185.0,346.3 L 185.4,345.0 L 185.4,344.2 L 185.6,343.6 L 185.3,342.7 L 184.9,342.2 L 184.4,342.1 L 183.7,342.6 L 183.0,343.8 L 182.1,345.0 L 180.6,346.2 L 180.0,346.3 L 179.7,346.0 L 179.7,345.5 L 179.6,345.4 L 179.3,345.5 L 179.1,346.0 L 178.9,346.4 L 178.5,346.7 L 178.2,346.6 L 177.5,347.1 L 177.4,346.4 L 176.2,347.2 L 175.6,348.0 L 175.5,348.4 L 175.8,348.6 L 176.0,348.4 L 176.4,348.3 L 176.5,348.5 L 175.3,350.0 L 175.2,350.7 L 175.0,351.3 L 175.0,351.8 L 175.5,351.8 L 176.3,351.1 L 177.3,349.8 L 178.0,349.8 L 177.2,351.2 L 175.9,352.8 L 175.3,354.0 L 175.2,355.1 L 175.5,356.1 L 175.7,356.5 L 176.0,356.5 L 164.7,360.0" fill="none" stroke="black" stroke-width="2"/>
</svg>