<?xml version="1.0" encoding="UTF-8"?>
<svg width="400" height="400" viewBox="0 0 400 400" xmlns="http://www.w3.org/2000/svg">
  <rect width="400" height="400" fill="white"/>
  <path d="M 146.3,360.0 L 148.2,356.2 L 149.0,354.0 L 149.4,348.0 L 149.8,346.1 L 152.1,341.7 L 152.6,340.6 L 153.7,338.8 L 154.7,336.0 L 154.8,333.3 L 154.2,330.2 L 154.7,329.3 L 155.5,329.2 L 156.5,329.5 L 157.1,328.7 L 157.7,323.3 L 159.6,321.2 L 158.1,321.8 L 156.2,322.7 L 155.2,322.3 L 154.3,320.9 L 152.4,315.7 L 152.5,311.9 L 153.2,305.8 L 153.7,299.9 L 153.5,294.9 L 152.4,289.1 L 152.1,283.9 L 152.7,280.3 L 154.1,277.2 L 155.2,276.4 L 159.6,277.1 L 159.3,276.6 L 156.6,275.8 L 154.8,274.5 L 154.1,273.0 L 154.4,268.9 L 155.3,265.6 L 156.2,263.8 L 156.1,261.1 L 155.9,258.5 L 156.6,256.4 L 159.9,251.7 L 163.5,246.8 L 167.3,242.1 L 169.2,239.5 L 170.4,238.6 L 170.1,238.2 L 168.5,237.5 L 168.3,236.4 L 168.8,234.5 L 171.3,231.0 L 173.6,228.0 L 174.1,225.5 L 173.9,224.4 L 172.4,222.9 L 167.1,220.1 L 165.5,218.5 L 163.1,215.6 L 158.3,211.9 L 157.1,209.8 L 156.8,207.8 L 157.3,204.1 L 159.5,198.7 L 161.8,194.8 L 165.9,190.4 L 166.6,188.5 L 167.4,182.9 L 169.3,178.7 L 169.4,178.7 L 171.3,176.1 L 174.4,173.5 L 175.8,172.9 L 177.5,172.9 L 178.3,170.8 L 179.3,168.0 L 181.5,164.1 L 181.7,161.9 L 181.6,159.3 L 182.9,155.2 L 184.3,151.7 L 184.7,148.3 L 184.3,145.2 L 183.0,142.8 L 180.1,139.4 L 178.8,136.7 L 178.6,135.9 L 177.7,135.0 L 175.9,135.3 L 174.6,136.1 L 174.5,136.3 L 174.2,138.1 L 174.0,144.0 L 173.4,148.5 L 167.5,148.0 L 161.6,147.5 L 160.6,147.2 L 159.0,142.7 L 158.7,141.0 L 157.9,138.6 L 158.2,134.8 L 158.4,132.5 L 158.8,126.5 L 158.4,125.7 L 156.2,124.6 L 156.6,123.7 L 157.6,123.0 L 159.3,122.6 L 162.4,121.9 L 164.9,122.0 L 168.9,121.0 L 170.0,120.6 L 169.9,120.0 L 169.0,119.9 L 166.1,120.4 L 161.3,120.8 L 159.5,120.9 L 158.0,120.0 L 155.6,116.7 L 154.4,114.3 L 153.2,110.6 L 153.9,107.9 L 154.8,106.4 L 155.8,106.1 L 155.4,103.6 L 156.8,99.3 L 157.9,97.4 L 158.7,93.4 L 159.9,89.2 L 160.5,85.9 L 161.1,84.1 L 161.1,78.9 L 162.5,77.1 L 162.9,71.2 L 163.4,68.2 L 162.6,65.6 L 162.5,64.0 L 162.3,62.0 L 161.2,59.4 L 161.5,59.1 L 162.4,59.8 L 164.1,61.1 L 164.7,60.7 L 165.5,58.7 L 165.9,54.7 L 165.8,52.4 L 165.6,50.7 L 165.6,49.1 L 166.1,47.0 L 165.8,44.1 L 164.8,41.3 L 164.1,40.8 L 163.7,41.2 L 162.8,42.9 L 160.5,42.9 L 159.6,41.0 L 159.3,40.0 L 166.7,40.2 L 219.9,43.2 L 218.9,43.7 L 217.9,44.4 L 217.0,44.6 L 216.4,46.1 L 215.5,52.1 L 216.6,53.9 L 217.7,55.1 L 217.6,56.3 L 216.8,57.3 L 215.6,58.1 L 214.7,60.9 L 214.5,62.1 L 214.8,64.2 L 216.7,69.9 L 216.8,72.4 L 216.4,78.3 L 216.0,80.5 L 216.8,83.8 L 217.1,86.1 L 215.0,91.7 L 215.4,93.1 L 217.2,96.5 L 221.1,101.0 L 222.2,103.4 L 222.3,106.1 L 222.0,112.2 L 221.6,118.3 L 223.1,124.0 L 223.4,127.6 L 223.3,132.0 L 222.3,136.5 L 221.5,138.1 L 220.0,137.6 L 218.0,137.0 L 217.5,137.3 L 217.7,138.3 L 219.3,140.3 L 218.9,143.6 L 218.0,144.8 L 216.3,145.5 L 216.8,146.3 L 218.3,148.5 L 218.0,149.8 L 217.2,151.0 L 217.7,151.3 L 219.0,152.5 L 220.9,155.0 L 221.0,156.9 L 220.7,162.9 L 220.3,168.9 L 220.3,174.9 L 219.8,179.7 L 219.7,183.3 L 219.7,183.5 L 218.9,185.3 L 217.8,186.3 L 218.2,189.0 L 218.9,190.5 L 223.5,194.4 L 227.5,198.6 L 229.0,200.7 L 229.7,204.6 L 229.9,210.5 L 230.2,211.0 L 230.3,214.5 L 230.5,217.6 L 230.6,217.9 L 230.5,220.0 L 231.5,224.2 L 234.7,229.3 L 236.5,232.8 L 237.2,236.2 L 237.6,242.2 L 238.9,246.6 L 241.9,251.7 L 242.2,254.0 L 242.2,255.9 L 243.8,257.9 L 244.1,259.4 L 243.7,260.7 L 242.8,262.2 L 243.4,266.1 L 244.4,268.4 L 245.0,268.5 L 246.1,268.3 L 247.5,269.3 L 249.2,271.6 L 251.6,277.2 L 253.1,281.9 L 253.7,285.1 L 253.4,287.2 L 252.7,288.2 L 250.9,289.6 L 250.7,295.5 L 250.3,297.6 L 249.5,298.0 L 247.7,297.7 L 247.7,299.2 L 249.2,304.6 L 249.3,310.5 L 248.8,313.1 L 247.2,315.8 L 247.5,317.2 L 247.6,319.2 L 247.1,321.3 L 245.3,324.6 L 244.1,330.6 L 243.8,336.1 L 244.3,340.6 L 243.5,340.7 L 242.4,339.9 L 241.5,339.1 L 241.1,339.4 L 240.9,341.6 L 241.0,345.5 L 241.3,348.8 L 242.5,352.0 L 244.2,357.5 L 244.9,358.9 L 158.8,359.9 L 157.9,356.9 L 157.6,356.7 L 157.0,358.5 L 156.9,359.1 L 157.0,359.9 L 149.6,360.0 L 146.3,360.0" fill="none" stroke="black" stroke-width="2"/>
</svg>