<?xml version="1.0" encoding="UTF-8"?>
<svg width="400" height="400" viewBox="0 0 400 400" xmlns="http://www.w3.org/2000/svg">
  <rect width="400" height="400" fill="white"/>
  <path d="M 107.2,269.8 L 107.3,269.7 L 107.4,269.2 L 107.6,267.6 L 107.7,267.4 L 108.2,267.0 L 109.0,266.4 L 109.1,266.1 L 109.2,265.9 L 109.6,265.8 L 109.8,266.0 L 110.0,266.2 L 110.2,266.1 L 110.4,265.7 L 110.4,265.3 L 110.2,264.7 L 110.2,264.2 L 110.2,263.8 L 110.5,263.6 L 110.9,263.5 L 111.3,263.7 L 111.6,263.9 L 112.6,263.3 L 112.8,262.3 L 113.0,261.7 L 113.0,261.4 L 112.8,260.9 L 113.0,260.2 L 113.0,259.3 L 112.6,258.5 L 112.2,258.0 L 111.7,257.8 L 111.3,257.7 L 111.0,257.7 L 110.7,256.7 L 110.0,255.3 L 109.6,254.9 L 109.3,254.6 L 108.6,253.7 L 108.1,252.8 L 107.0,251.6 L 106.2,250.9 L 106.0,250.7 L 106.1,250.3 L 106.9,250.2 L 107.6,249.9 L 107.8,249.6 L 108.2,249.1 L 108.2,248.6 L 109.1,248.1 L 109.4,248.1 L 110.4,248.8 L 110.9,249.0 L 111.5,248.7 L 112.0,248.2 L 112.1,247.4 L 112.1,245.8 L 111.9,245.4 L 111.8,244.5 L 111.7,243.4 L 111.1,241.9 L 111.1,241.5 L 111.0,241.0 L 110.3,239.7 L 110.1,238.9 L 109.6,238.0 L 109.3,237.8 L 108.8,237.2 L 108.5,237.0 L 108.3,237.1 L 108.2,238.1 L 107.9,238.4 L 107.7,238.7 L 107.8,239.5 L 107.8,240.3 L 108.0,241.4 L 107.7,241.6 L 106.2,242.1 L 105.7,242.3 L 105.4,242.2 L 105.2,241.6 L 104.8,240.2 L 104.2,239.3 L 103.9,239.2 L 103.7,239.3 L 103.7,240.5 L 103.6,241.6 L 103.4,241.9 L 103.0,242.2 L 102.6,242.3 L 102.5,242.5 L 102.7,242.6 L 103.2,242.7 L 103.2,242.9 L 103.2,243.6 L 103.0,244.1 L 102.5,244.3 L 101.7,244.8 L 100.8,245.2 L 100.1,245.6 L 100.0,245.8 L 99.6,246.1 L 98.4,246.6 L 97.4,246.5 L 96.8,246.6 L 96.4,246.8 L 96.3,247.0 L 97.4,248.1 L 97.5,248.4 L 97.2,249.3 L 96.7,249.6 L 96.2,249.6 L 95.6,249.7 L 95.3,249.8 L 95.3,250.7 L 94.8,251.7 L 94.1,253.2 L 93.8,253.8 L 92.6,254.8 L 92.1,255.0 L 91.5,255.0 L 90.4,254.6 L 89.4,254.5 L 88.4,254.7 L 88.2,254.8 L 87.9,255.3 L 87.7,255.9 L 87.9,256.5 L 87.9,257.5 L 87.9,258.0 L 88.2,258.8 L 88.1,259.5 L 87.9,259.7 L 87.5,259.9 L 86.4,259.9 L 86.0,259.8 L 85.3,259.7 L 84.9,259.2 L 84.6,258.9 L 84.7,258.5 L 84.9,257.4 L 84.8,257.1 L 85.1,257.0 L 85.8,256.2 L 85.8,254.8 L 85.4,254.1 L 84.6,253.3 L 84.1,252.0 L 84.1,251.8 L 84.4,250.8 L 84.6,250.4 L 86.1,249.4 L 86.9,248.2 L 87.3,246.6 L 87.0,246.0 L 86.6,245.7 L 86.0,245.7 L 85.9,244.0 L 85.6,243.0 L 84.3,242.9 L 84.0,243.2 L 83.6,244.4 L 83.1,244.8 L 82.0,244.9 L 81.2,244.2 L 80.2,242.2 L 79.2,238.9 L 79.2,237.7 L 79.0,235.9 L 79.3,235.3 L 79.8,234.8 L 80.6,234.7 L 81.4,234.4 L 83.2,234.3 L 84.0,234.2 L 85.1,233.2 L 85.5,232.7 L 85.7,232.4 L 86.0,232.2 L 86.5,232.3 L 86.8,232.3 L 86.7,232.0 L 86.1,230.9 L 85.3,229.5 L 84.5,228.1 L 84.4,227.8 L 84.7,227.7 L 85.0,227.7 L 85.5,227.6 L 86.2,228.4 L 86.5,228.8 L 86.8,229.1 L 88.5,232.1 L 89.0,232.4 L 89.0,232.1 L 88.7,231.3 L 88.6,230.3 L 88.4,230.2 L 88.3,230.3 L 88.0,230.4 L 87.4,229.3 L 86.6,227.9 L 86.4,227.2 L 86.3,226.3 L 86.5,226.1 L 87.9,225.5 L 88.2,225.2 L 88.3,224.1 L 88.3,222.8 L 87.9,222.4 L 87.6,222.0 L 87.6,221.0 L 87.5,220.0 L 87.1,218.9 L 86.6,218.4 L 86.6,217.9 L 86.3,217.8 L 86.2,217.6 L 86.8,216.2 L 86.9,215.8 L 86.8,215.6 L 86.2,215.1 L 85.0,214.1 L 84.2,213.3 L 83.4,212.6 L 83.1,212.1 L 83.3,210.8 L 83.6,209.2 L 83.8,208.6 L 84.3,208.1 L 84.4,207.9 L 84.3,207.7 L 84.4,207.6 L 84.9,204.9 L 85.6,203.9 L 85.9,198.6 L 85.4,197.0 L 84.6,195.5 L 85.0,195.2 L 85.7,195.5 L 86.3,196.3 L 86.8,196.2 L 87.5,195.6 L 87.8,193.6 L 87.8,192.6 L 87.7,192.0 L 87.8,191.6 L 87.8,190.7 L 87.6,189.8 L 87.6,189.0 L 87.8,188.5 L 87.4,188.2 L 86.9,188.2 L 87.1,186.0 L 86.6,185.1 L 86.2,185.0 L 85.3,185.3 L 84.6,186.0 L 84.1,187.9 L 84.1,189.1 L 84.0,189.7 L 82.8,190.0 L 76.5,189.5 L 75.3,189.5 L 73.5,189.2 L 72.1,188.5 L 72.3,184.8 L 72.5,183.8 L 72.6,182.8 L 72.2,179.4 L 71.4,176.7 L 70.8,175.7 L 70.1,175.2 L 69.9,174.2 L 69.2,174.1 L 68.3,173.1 L 67.3,171.4 L 66.9,170.5 L 65.4,168.8 L 64.4,167.7 L 64.1,165.9 L 63.3,164.2 L 63.0,163.5 L 61.0,159.3 L 60.3,156.0 L 60.7,155.4 L 62.1,155.3 L 62.3,154.0 L 61.9,153.0 L 61.4,151.2 L 60.4,151.1 L 58.1,148.7 L 57.4,147.4 L 56.8,146.5 L 55.9,145.3 L 55.4,144.2 L 55.5,142.6 L 54.2,139.7 L 52.5,137.6 L 51.1,134.5 L 51.1,133.6 L 50.8,132.8 L 51.1,128.8 L 51.0,127.7 L 51.5,126.8 L 51.9,125.6 L 52.4,124.8 L 52.6,124.7 L 53.3,125.1 L 53.9,125.0 L 54.6,124.3 L 55.4,121.4 L 56.3,119.9 L 56.8,119.9 L 57.3,120.2 L 60.1,119.1 L 60.3,118.6 L 60.4,118.7 L 60.4,119.6 L 61.0,120.2 L 61.6,120.0 L 62.9,118.9 L 63.9,118.6 L 65.7,118.6 L 66.2,118.3 L 66.4,117.9 L 67.7,118.0 L 68.5,116.4 L 68.7,115.7 L 68.6,114.6 L 68.1,114.5 L 67.7,114.7 L 67.8,114.3 L 68.0,113.7 L 68.3,113.1 L 68.5,110.3 L 67.8,109.4 L 67.3,109.3 L 67.8,107.2 L 67.5,106.4 L 67.0,105.6 L 66.0,105.5 L 66.1,103.9 L 66.3,103.3 L 65.6,103.1 L 65.0,102.4 L 64.7,101.6 L 65.7,100.0 L 66.2,98.2 L 67.6,96.8 L 67.4,94.6 L 67.8,92.8 L 68.2,91.8 L 67.6,90.5 L 66.4,89.5 L 66.4,88.9 L 65.7,88.3 L 65.1,88.6 L 64.3,88.0 L 63.2,87.3 L 62.5,87.1 L 62.4,86.4 L 61.4,85.1 L 60.7,84.6 L 60.3,84.2 L 59.5,82.7 L 58.6,82.2 L 58.5,81.4 L 58.1,81.2 L 57.8,80.8 L 57.9,80.2 L 57.4,80.0 L 56.9,79.1 L 54.7,79.2 L 53.5,77.6 L 53.2,77.5 L 52.0,76.1 L 51.5,75.4 L 51.4,74.4 L 51.5,73.5 L 52.0,73.2 L 52.0,69.9 L 52.0,68.7 L 51.6,68.3 L 51.9,67.7 L 52.2,67.3 L 52.4,66.5 L 52.9,66.6 L 53.1,67.1 L 53.6,67.5 L 54.4,67.5 L 54.5,66.1 L 53.9,65.7 L 53.1,65.5 L 52.7,65.8 L 52.3,65.6 L 52.0,65.1 L 51.5,63.5 L 50.8,62.9 L 50.0,61.5 L 50.0,60.2 L 49.3,59.1 L 49.3,58.3 L 48.9,57.7 L 49.0,56.2 L 48.8,55.8 L 49.5,54.5 L 49.5,54.2 L 49.2,53.7 L 49.1,53.1 L 49.3,52.7 L 50.3,51.5 L 50.7,50.8 L 50.8,49.2 L 51.0,48.7 L 52.2,47.6 L 53.5,46.7 L 54.6,45.7 L 55.4,45.2 L 56.8,44.5 L 58.2,43.9 L 59.7,43.2 L 60.1,43.2 L 60.5,43.4 L 60.9,43.7 L 61.6,43.7 L 63.1,43.6 L 64.7,43.6 L 65.5,43.5 L 65.7,43.3 L 65.8,40.0 L 65.9,40.0 L 66.1,40.3 L 66.1,40.4 L 66.6,41.8 L 67.0,43.3 L 67.4,44.9 L 67.7,45.5 L 68.4,45.4 L 69.0,45.2 L 69.0,44.7 L 68.7,44.2 L 68.3,42.8 L 68.0,41.6 L 68.5,41.4 L 69.1,41.4 L 69.6,41.6 L 69.8,41.9 L 70.0,43.0 L 69.9,43.1 L 69.6,43.3 L 69.6,43.4 L 70.4,43.5 L 70.7,43.9 L 71.7,43.9 L 72.2,43.8 L 73.3,43.3 L 74.4,43.3 L 75.9,43.1 L 76.7,43.2 L 76.7,43.2 L 76.8,43.4 L 76.9,43.5 L 76.7,43.5 L 77.4,43.5 L 77.6,46.7 L 77.6,47.5 L 78.4,47.5 L 78.5,46.3 L 78.2,43.8 L 78.3,43.0 L 79.3,42.5 L 80.2,42.6 L 80.3,43.4 L 80.4,44.2 L 80.5,44.8 L 80.5,45.1 L 80.5,45.5 L 80.7,47.5 L 81.1,48.0 L 81.4,47.9 L 81.3,45.6 L 81.3,44.4 L 81.2,43.5 L 81.8,44.0 L 83.8,45.2 L 86.1,46.3 L 88.2,47.5 L 89.5,47.7 L 90.1,48.1 L 90.3,48.4 L 90.5,48.6 L 90.4,49.1 L 90.4,49.3 L 90.3,50.9 L 90.2,50.9 L 88.7,50.6 L 88.9,49.0 L 88.8,48.7 L 88.6,48.7 L 88.5,48.6 L 88.4,48.7 L 88.4,49.3 L 88.3,50.7 L 88.3,50.9 L 88.3,52.1 L 88.3,52.3 L 88.0,52.9 L 87.6,53.1 L 87.0,53.3 L 86.7,53.2 L 86.5,53.2 L 86.5,53.4 L 86.6,53.7 L 86.9,53.9 L 87.1,54.5 L 87.1,54.9 L 86.8,55.2 L 86.4,55.5 L 86.2,56.0 L 86.2,56.6 L 86.4,56.8 L 86.6,56.9 L 86.9,57.0 L 87.0,57.2 L 87.1,57.6 L 87.1,58.4 L 87.5,58.8 L 88.9,59.2 L 89.1,59.5 L 89.1,60.1 L 88.8,60.4 L 88.6,60.9 L 88.5,61.2 L 88.4,61.6 L 88.5,61.8 L 88.5,62.0 L 88.5,62.1 L 89.0,63.1 L 89.2,63.1 L 89.7,62.6 L 90.2,62.5 L 90.6,61.7 L 91.0,61.4 L 92.3,64.0 L 93.1,63.9 L 93.2,63.7 L 94.1,62.7 L 94.6,62.2 L 94.7,60.6 L 95.2,60.9 L 95.6,62.9 L 96.2,63.0 L 96.4,62.8 L 96.7,63.3 L 96.8,63.4 L 96.9,63.5 L 97.0,63.7 L 97.0,63.8 L 97.2,63.8 L 97.3,63.8 L 97.9,64.3 L 98.5,64.7 L 98.6,65.7 L 99.4,66.4 L 100.2,67.0 L 100.3,67.2 L 100.6,67.5 L 100.6,67.5 L 100.7,67.4 L 100.8,67.4 L 101.0,67.3 L 101.1,67.1 L 101.6,66.7 L 101.4,66.3 L 101.1,65.9 L 100.4,65.5 L 100.2,64.9 L 99.8,65.1 L 99.5,64.9 L 98.3,63.9 L 98.2,63.6 L 98.0,63.6 L 98.6,62.7 L 98.9,62.3 L 99.5,61.6 L 100.0,60.8 L 100.3,60.5 L 100.5,60.6 L 101.8,61.3 L 102.8,61.8 L 102.7,62.3 L 102.6,63.0 L 103.0,62.5 L 103.2,62.7 L 104.5,62.8 L 105.4,63.3 L 106.9,63.8 L 108.4,64.1 L 109.1,64.6 L 109.4,64.6 L 109.6,64.7 L 110.5,65.2 L 112.1,66.1 L 113.2,67.1 L 113.4,67.2 L 114.4,68.3 L 115.2,69.3 L 116.3,70.4 L 118.4,72.7 L 119.0,73.7 L 118.3,74.8 L 116.5,78.3 L 116.3,78.8 L 116.7,79.0 L 118.7,80.0 L 120.1,80.7 L 121.3,81.4 L 123.8,82.6 L 127.1,84.4 L 128.2,84.7 L 127.9,85.1 L 128.1,85.5 L 128.7,85.5 L 129.1,85.4 L 129.4,85.5 L 129.6,85.8 L 129.7,86.2 L 129.8,86.5 L 129.2,86.6 L 128.4,86.8 L 127.9,87.0 L 128.2,88.3 L 128.6,88.5 L 129.0,88.6 L 129.9,89.4 L 130.4,89.6 L 130.5,89.8 L 129.8,90.4 L 129.6,90.3 L 128.8,89.4 L 127.9,88.5 L 127.4,87.7 L 127.1,87.3 L 126.8,87.3 L 126.0,87.4 L 124.6,87.7 L 124.3,87.9 L 123.9,87.8 L 122.8,86.9 L 122.0,86.5 L 121.6,85.9 L 121.4,85.4 L 120.8,85.1 L 119.7,84.7 L 119.5,84.5 L 119.0,84.3 L 117.7,83.6 L 116.9,83.3 L 116.5,83.2 L 114.1,81.9 L 113.2,81.3 L 111.4,83.7 L 110.5,85.1 L 111.1,85.6 L 111.4,85.9 L 110.9,86.7 L 110.1,87.8 L 109.1,89.0 L 108.1,90.2 L 107.6,91.0 L 107.0,91.9 L 106.6,92.0 L 105.9,91.6 L 105.6,91.9 L 104.5,93.0 L 104.4,93.4 L 104.4,94.0 L 103.1,94.8 L 101.7,95.6 L 100.7,96.1 L 100.3,96.4 L 100.1,96.7 L 100.2,96.9 L 100.3,97.0 L 100.6,96.9 L 101.8,96.2 L 102.4,96.0 L 102.9,96.2 L 103.4,96.4 L 105.0,96.7 L 105.4,97.0 L 106.5,98.1 L 106.8,98.6 L 107.2,99.2 L 107.8,100.1 L 108.3,100.4 L 109.4,100.4 L 111.0,100.9 L 111.8,101.1 L 113.1,101.9 L 113.4,102.0 L 114.3,102.0 L 115.8,101.6 L 117.4,101.3 L 118.9,100.9 L 120.4,100.5 L 122.0,100.2 L 123.5,99.8 L 124.9,99.5 L 125.5,99.2 L 127.6,98.3 L 129.3,97.9 L 131.7,98.8 L 132.7,98.4 L 134.6,99.0 L 135.1,99.0 L 135.5,98.7 L 139.1,99.0 L 139.6,98.5 L 139.8,98.2 L 139.8,98.0 L 139.6,97.5 L 137.6,95.8 L 138.0,95.2 L 138.8,95.4 L 140.3,96.7 L 140.9,97.7 L 141.1,97.8 L 141.7,97.8 L 142.2,97.3 L 143.0,95.7 L 143.6,94.1 L 143.5,91.6 L 144.6,90.5 L 146.7,89.2 L 148.4,87.7 L 151.9,82.5 L 155.5,78.7 L 158.1,76.3 L 158.1,75.7 L 158.9,74.3 L 161.5,71.4 L 161.7,71.9 L 161.2,72.4 L 161.3,73.0 L 162.1,72.3 L 162.9,71.1 L 163.8,68.8 L 165.1,67.1 L 166.1,66.0 L 166.6,64.0 L 167.6,57.9 L 174.0,58.5 L 173.9,59.3 L 173.6,59.7 L 173.4,61.1 L 172.7,61.4 L 172.3,62.6 L 172.0,65.0 L 170.7,68.9 L 169.9,70.2 L 168.5,71.6 L 165.4,74.5 L 163.6,77.4 L 161.7,81.8 L 161.1,82.9 L 161.3,83.0 L 161.4,82.7 L 163.7,83.3 L 162.4,86.9 L 159.9,86.1 L 159.6,86.8 L 162.3,87.6 L 161.2,90.9 L 160.4,93.4 L 159.5,93.6 L 157.9,93.0 L 157.8,94.4 L 159.1,94.8 L 159.6,94.5 L 160.5,93.4 L 160.7,92.8 L 160.9,93.0 L 161.1,93.5 L 159.7,95.2 L 158.1,97.5 L 156.3,100.8 L 152.6,103.4 L 148.9,105.1 L 145.1,105.5 L 141.2,104.1 L 140.5,103.7 L 138.2,103.7 L 136.2,104.1 L 135.1,105.4 L 135.1,108.8 L 134.8,110.0 L 133.8,110.4 L 133.5,110.8 L 133.0,111.1 L 132.4,111.6 L 133.9,116.7 L 135.0,118.7 L 135.5,119.0 L 135.7,119.3 L 135.9,120.0 L 136.2,120.9 L 136.5,122.4 L 136.7,123.1 L 137.7,121.9 L 138.5,122.0 L 139.1,122.4 L 140.1,123.4 L 140.5,124.4 L 140.1,125.6 L 139.5,125.8 L 138.8,126.4 L 138.7,127.6 L 138.9,128.7 L 139.3,129.1 L 139.8,129.1 L 140.1,128.8 L 140.7,128.8 L 140.8,129.3 L 140.8,129.4 L 140.6,129.6 L 140.1,130.1 L 140.1,130.8 L 140.4,131.2 L 140.6,130.8 L 140.9,129.3 L 141.1,129.3 L 141.4,129.2 L 142.1,130.0 L 142.6,129.8 L 144.0,128.6 L 144.5,127.2 L 145.1,126.7 L 145.8,126.4 L 148.5,124.3 L 149.3,123.3 L 149.7,121.6 L 150.1,121.7 L 150.3,121.7 L 150.7,121.7 L 150.8,121.8 L 151.0,121.8 L 151.2,121.9 L 152.0,122.2 L 152.3,122.4 L 152.5,122.4 L 154.6,122.6 L 154.8,122.9 L 155.1,122.8 L 154.5,121.8 L 154.1,121.4 L 153.7,120.7 L 153.8,118.9 L 153.4,118.8 L 153.8,116.4 L 154.2,116.0 L 156.2,116.2 L 156.6,116.7 L 158.0,118.3 L 158.0,117.8 L 158.8,118.2 L 159.0,117.8 L 158.2,116.8 L 158.7,115.3 L 159.3,113.9 L 161.6,113.8 L 161.6,113.2 L 161.8,113.2 L 161.8,113.5 L 162.1,113.7 L 162.0,113.9 L 164.1,117.0 L 162.4,118.5 L 162.6,118.7 L 162.9,119.0 L 162.2,119.8 L 162.5,120.0 L 164.0,118.5 L 164.5,117.9 L 164.6,118.2 L 164.6,118.4 L 164.4,118.7 L 164.5,118.9 L 165.1,118.2 L 165.5,118.6 L 164.6,120.7 L 164.8,120.7 L 164.8,120.9 L 163.6,122.1 L 163.5,122.4 L 162.2,122.2 L 161.6,124.1 L 161.3,124.0 L 161.4,123.7 L 161.1,123.5 L 160.8,124.2 L 160.4,124.1 L 160.1,125.0 L 160.3,125.0 L 160.5,125.1 L 160.3,126.1 L 159.8,126.3 L 159.7,127.0 L 159.8,127.0 L 159.6,127.7 L 159.4,127.9 L 159.3,128.3 L 159.3,128.6 L 159.9,128.8 L 160.1,129.0 L 160.3,130.3 L 160.9,131.1 L 162.9,131.9 L 165.4,133.7 L 165.8,134.7 L 165.8,136.5 L 164.9,137.3 L 164.3,138.1 L 163.0,139.1 L 162.1,139.2 L 161.7,139.6 L 161.4,140.4 L 161.1,142.8 L 160.7,143.4 L 160.6,145.3 L 159.9,145.7 L 159.6,145.5 L 159.3,145.5 L 158.6,147.4 L 158.8,147.7 L 158.7,149.5 L 159.1,149.4 L 159.2,150.4 L 159.5,150.8 L 160.1,150.8 L 160.4,149.6 L 160.4,148.9 L 161.1,148.5 L 162.3,148.5 L 164.1,149.6 L 164.8,149.5 L 166.1,148.7 L 167.1,148.9 L 167.8,149.9 L 167.9,150.8 L 167.6,151.3 L 167.4,152.0 L 165.9,154.1 L 164.6,154.2 L 164.4,154.5 L 164.0,155.8 L 163.6,156.1 L 162.8,156.9 L 161.9,157.1 L 161.0,158.0 L 160.2,158.3 L 159.7,157.8 L 159.1,157.6 L 158.8,157.9 L 158.0,158.1 L 157.9,158.5 L 158.4,159.0 L 158.6,159.4 L 158.3,159.8 L 157.6,159.3 L 156.8,159.2 L 156.3,160.0 L 156.5,161.9 L 157.1,162.0 L 157.2,162.8 L 157.5,163.4 L 157.1,163.7 L 157.5,164.5 L 157.3,165.8 L 157.6,166.4 L 157.9,166.3 L 159.4,166.1 L 159.9,164.7 L 160.7,165.0 L 160.6,165.5 L 161.3,166.3 L 162.3,166.6 L 162.3,167.4 L 162.7,167.8 L 162.6,168.3 L 162.8,169.2 L 162.9,170.0 L 162.3,170.2 L 161.3,170.8 L 161.5,171.4 L 161.2,172.5 L 161.8,173.1 L 162.6,173.4 L 163.9,174.2 L 164.3,174.3 L 165.0,175.1 L 165.9,175.3 L 166.1,175.9 L 166.0,176.3 L 165.6,176.7 L 163.5,176.5 L 163.1,176.8 L 162.2,177.0 L 162.4,178.2 L 162.0,178.2 L 161.6,177.8 L 160.9,177.7 L 160.7,178.0 L 161.0,178.6 L 161.5,178.9 L 161.6,179.2 L 160.6,179.6 L 160.4,180.6 L 163.0,183.2 L 163.3,184.2 L 162.7,184.7 L 162.9,185.3 L 162.9,186.1 L 162.4,186.6 L 162.6,187.7 L 162.9,188.2 L 163.8,187.7 L 164.5,188.2 L 164.9,188.1 L 165.3,188.3 L 165.4,188.9 L 165.0,189.4 L 164.0,190.0 L 163.9,190.6 L 163.2,191.2 L 163.3,191.9 L 162.8,192.7 L 163.0,193.7 L 163.6,194.0 L 163.7,196.9 L 164.4,197.9 L 166.1,200.5 L 167.0,201.2 L 167.9,201.4 L 168.5,201.1 L 169.0,200.5 L 169.2,200.7 L 169.5,202.6 L 170.0,203.5 L 170.4,204.0 L 170.5,204.3 L 170.8,204.8 L 172.2,204.8 L 172.4,203.2 L 172.8,203.2 L 173.2,203.4 L 174.1,202.3 L 174.2,201.8 L 174.8,201.5 L 176.4,198.4 L 176.9,198.2 L 177.0,196.1 L 176.9,195.7 L 176.9,195.1 L 176.6,194.6 L 176.7,193.8 L 177.5,192.8 L 177.9,192.9 L 178.6,195.0 L 179.6,195.3 L 179.8,196.2 L 180.4,197.1 L 180.9,197.8 L 181.6,197.8 L 182.3,198.1 L 183.2,198.0 L 183.3,197.7 L 183.6,197.1 L 183.5,196.1 L 183.4,195.2 L 183.6,194.5 L 183.6,194.3 L 183.8,193.9 L 184.0,193.7 L 184.9,194.7 L 185.5,194.9 L 186.4,195.4 L 186.9,194.9 L 187.2,195.2 L 188.1,195.6 L 188.5,195.4 L 189.4,194.3 L 191.8,192.1 L 192.8,190.4 L 192.9,189.5 L 193.8,189.3 L 194.0,188.5 L 194.0,187.3 L 193.7,186.2 L 193.7,184.1 L 194.2,183.5 L 195.4,183.3 L 196.2,183.5 L 196.8,184.5 L 197.1,185.4 L 197.4,185.8 L 196.8,186.2 L 196.8,186.2 L 196.5,187.4 L 196.8,188.3 L 197.5,188.8 L 198.2,188.6 L 198.5,188.0 L 198.6,187.5 L 209.2,195.6 L 209.2,195.8 L 209.3,196.3 L 209.6,195.9 L 214.8,199.9 L 214.8,199.9 L 213.8,201.2 L 213.7,202.5 L 213.1,203.1 L 213.4,204.2 L 213.1,204.4 L 212.1,204.3 L 210.1,205.9 L 208.0,208.3 L 208.2,209.7 L 208.3,210.7 L 208.0,211.3 L 207.4,211.4 L 206.7,210.8 L 206.1,211.1 L 206.2,212.2 L 204.3,213.9 L 203.7,214.7 L 204.0,215.3 L 204.0,216.1 L 203.7,216.2 L 202.8,215.5 L 201.8,215.5 L 201.2,216.6 L 201.4,217.3 L 203.2,217.8 L 202.4,218.6 L 202.2,219.1 L 201.9,219.7 L 201.8,221.1 L 202.1,222.4 L 202.5,223.0 L 202.5,223.7 L 202.4,224.5 L 202.3,224.9 L 202.1,225.5 L 201.6,225.8 L 200.4,225.9 L 200.0,226.2 L 200.5,227.5 L 200.6,228.2 L 200.3,228.6 L 199.1,228.5 L 198.0,228.8 L 197.5,228.5 L 197.3,227.8 L 195.8,227.5 L 195.7,227.2 L 194.5,226.7 L 194.1,227.0 L 193.4,227.2 L 192.8,227.7 L 193.1,229.1 L 193.9,230.0 L 194.6,230.2 L 195.3,231.1 L 196.6,230.4 L 196.7,229.5 L 197.3,229.2 L 197.9,229.5 L 197.6,231.0 L 197.1,231.0 L 196.4,231.5 L 196.3,231.9 L 196.9,232.4 L 197.7,232.5 L 198.0,231.6 L 198.4,231.6 L 199.1,231.9 L 199.1,232.7 L 199.5,234.0 L 198.7,234.1 L 197.8,234.7 L 197.2,235.0 L 196.5,235.7 L 196.3,236.3 L 196.5,236.4 L 197.3,237.2 L 197.9,237.0 L 198.3,236.7 L 199.7,238.7 L 200.2,238.5 L 200.7,238.2 L 200.9,238.1 L 201.4,237.2 L 201.3,236.8 L 200.8,236.2 L 200.9,235.6 L 202.0,234.6 L 203.7,234.7 L 204.5,235.1 L 204.3,235.6 L 203.8,236.5 L 204.0,237.7 L 205.1,237.9 L 205.5,238.3 L 206.6,238.8 L 207.0,238.7 L 207.2,237.4 L 206.7,236.6 L 206.8,235.9 L 207.6,235.4 L 208.9,235.2 L 210.8,237.5 L 210.8,238.0 L 211.2,238.1 L 211.7,237.7 L 212.5,236.7 L 212.9,236.5 L 213.3,237.4 L 213.8,237.1 L 214.9,237.2 L 216.4,237.7 L 216.6,238.1 L 216.3,238.4 L 216.1,239.6 L 216.4,241.8 L 217.3,243.9 L 217.7,243.8 L 218.3,242.6 L 219.1,241.8 L 219.9,241.8 L 219.9,242.6 L 219.9,243.2 L 219.4,244.7 L 219.1,245.4 L 219.0,246.2 L 219.8,246.3 L 219.7,247.5 L 218.9,248.9 L 219.6,249.9 L 220.0,249.9 L 220.7,247.1 L 220.8,248.4 L 221.2,248.3 L 221.5,247.1 L 220.7,246.8 L 221.0,245.6 L 221.6,245.5 L 223.0,243.1 L 222.8,242.8 L 223.2,242.5 L 224.7,242.5 L 225.3,242.1 L 225.8,242.2 L 226.8,243.7 L 227.2,244.6 L 227.1,245.7 L 226.0,246.3 L 223.7,246.3 L 223.3,246.5 L 221.8,248.8 L 221.1,250.6 L 221.0,251.5 L 221.4,252.0 L 221.5,253.4 L 222.2,254.1 L 223.3,254.5 L 224.3,254.4 L 224.9,253.4 L 225.7,253.4 L 225.7,253.9 L 225.2,254.4 L 225.2,255.2 L 225.9,255.7 L 226.6,255.8 L 226.8,254.8 L 227.0,254.4 L 227.3,254.6 L 227.7,256.7 L 228.5,257.2 L 229.5,257.8 L 230.0,257.8 L 230.6,256.6 L 230.7,255.7 L 230.2,255.0 L 230.4,252.6 L 230.0,252.0 L 230.0,251.4 L 230.0,250.3 L 230.1,250.0 L 230.4,249.8 L 231.0,249.9 L 231.4,248.1 L 231.1,247.6 L 230.9,247.4 L 231.3,246.4 L 231.1,244.1 L 231.6,243.3 L 231.7,242.4 L 232.2,242.0 L 232.8,241.9 L 233.1,241.5 L 233.3,239.7 L 233.6,238.1 L 233.2,234.2 L 232.8,233.7 L 232.2,232.8 L 232.2,232.6 L 232.7,232.0 L 233.6,231.4 L 234.9,231.3 L 235.8,231.6 L 236.1,232.1 L 235.8,236.5 L 236.1,238.8 L 236.6,240.2 L 237.0,240.1 L 238.0,239.4 L 238.6,240.8 L 239.0,240.8 L 239.4,239.9 L 239.6,238.2 L 240.4,237.4 L 241.5,237.5 L 241.7,236.8 L 242.3,236.3 L 242.2,235.5 L 244.3,235.0 L 245.0,235.3 L 245.1,234.6 L 245.6,234.1 L 245.5,233.7 L 245.2,233.4 L 245.8,232.9 L 246.6,233.2 L 247.1,232.5 L 247.1,232.5 L 255.8,235.0 L 271.8,239.8 L 271.8,239.8 L 271.9,239.9 L 272.7,240.1 L 272.8,240.6 L 271.8,241.5 L 271.9,242.8 L 272.3,243.8 L 272.9,244.5 L 273.5,244.7 L 273.7,246.0 L 274.1,245.5 L 274.2,243.9 L 274.5,243.8 L 274.7,244.4 L 275.1,246.0 L 275.5,245.5 L 275.4,244.6 L 275.1,243.6 L 275.5,243.4 L 275.7,242.7 L 276.6,242.1 L 277.4,242.2 L 277.8,240.6 L 277.8,240.5 L 292.0,241.1 L 292.1,241.1 L 292.1,241.4 L 291.9,242.0 L 292.3,242.3 L 291.4,243.4 L 291.6,243.9 L 291.6,244.6 L 291.9,245.5 L 292.7,246.3 L 293.1,247.0 L 293.7,247.2 L 294.0,248.8 L 294.5,249.1 L 294.4,250.3 L 294.5,251.3 L 295.1,252.1 L 295.7,251.7 L 295.9,252.0 L 296.8,252.3 L 296.3,252.8 L 296.2,253.5 L 296.9,253.4 L 297.2,253.6 L 297.5,254.8 L 298.0,254.9 L 298.4,255.6 L 297.6,257.4 L 297.7,258.4 L 298.4,259.2 L 298.4,259.3 L 298.7,260.1 L 299.5,260.0 L 300.0,259.6 L 300.5,259.7 L 300.7,259.9 L 301.4,260.1 L 302.3,260.4 L 302.9,262.5 L 303.5,263.5 L 303.8,263.5 L 304.0,262.7 L 304.4,262.6 L 304.5,261.3 L 304.4,260.5 L 304.3,259.5 L 303.5,258.6 L 303.8,257.4 L 303.9,256.2 L 302.8,253.7 L 302.3,253.5 L 302.2,252.9 L 301.9,252.2 L 302.1,251.6 L 302.1,251.0 L 302.1,250.6 L 302.2,249.5 L 302.5,247.9 L 303.8,247.8 L 303.9,247.9 L 303.9,248.7 L 304.2,250.1 L 305.3,250.2 L 305.6,250.7 L 305.0,251.6 L 305.9,252.9 L 305.9,253.8 L 306.1,254.2 L 306.5,254.0 L 307.0,253.3 L 307.4,253.4 L 307.1,254.3 L 306.6,255.0 L 306.5,256.1 L 306.9,257.5 L 307.5,258.8 L 308.2,259.2 L 308.5,260.6 L 308.5,261.6 L 309.3,262.6 L 309.6,262.3 L 309.9,261.4 L 310.7,261.4 L 311.2,259.6 L 312.1,259.0 L 311.8,257.2 L 311.8,255.6 L 311.1,253.4 L 311.1,252.1 L 311.8,251.3 L 312.6,251.2 L 313.0,251.2 L 313.4,250.0 L 312.7,249.2 L 312.8,248.4 L 313.8,247.5 L 314.8,247.3 L 315.2,247.5 L 315.6,247.4 L 316.6,247.4 L 316.6,248.2 L 316.2,249.0 L 316.0,250.0 L 316.5,250.8 L 316.5,252.4 L 316.5,253.0 L 316.7,253.5 L 317.1,253.4 L 317.7,251.7 L 318.0,251.6 L 318.6,251.7 L 318.6,252.0 L 318.5,253.2 L 318.7,253.8 L 319.0,253.8 L 319.3,251.8 L 320.0,250.0 L 320.2,248.6 L 320.6,248.1 L 319.9,248.1 L 319.4,248.0 L 319.3,247.4 L 319.7,247.4 L 320.4,247.3 L 320.5,246.7 L 320.8,246.4 L 320.7,246.2 L 320.2,245.6 L 320.6,245.2 L 320.9,245.2 L 321.8,245.0 L 321.9,244.6 L 322.2,243.8 L 322.6,242.7 L 322.2,242.4 L 321.0,243.2 L 320.1,242.6 L 319.6,241.2 L 319.8,239.8 L 320.5,239.1 L 321.4,238.9 L 321.9,240.3 L 322.3,240.8 L 323.1,240.8 L 323.7,240.0 L 324.0,238.5 L 324.0,237.4 L 323.4,236.4 L 323.0,235.4 L 323.0,234.7 L 324.2,233.6 L 324.6,233.5 L 327.1,233.1 L 328.8,233.2 L 329.7,233.6 L 329.9,233.9 L 330.3,234.2 L 330.6,235.8 L 331.4,236.7 L 332.3,237.8 L 333.8,239.3 L 335.8,240.8 L 336.6,241.3 L 337.3,241.5 L 338.0,241.9 L 338.6,241.9 L 339.5,241.6 L 339.7,241.8 L 338.9,243.0 L 338.7,243.4 L 339.1,243.8 L 339.7,243.7 L 340.0,243.4 L 340.2,242.8 L 341.1,241.9 L 342.8,241.6 L 343.3,241.3 L 344.0,240.0 L 345.5,240.1 L 345.8,240.5 L 346.0,241.2 L 345.6,242.8 L 345.3,243.3 L 345.1,243.7 L 344.8,244.4 L 344.7,244.6 L 344.0,245.6 L 343.4,247.7 L 343.0,248.3 L 342.9,248.8 L 343.3,249.2 L 344.0,249.5 L 344.4,249.3 L 345.3,249.6 L 346.6,251.1 L 348.0,251.9 L 348.8,252.0 L 349.1,252.5 L 349.0,253.9 L 349.2,254.9 L 348.8,256.2 L 348.9,257.7 L 349.8,260.5 L 351.2,261.9 L 346.8,263.5 L 346.6,263.1 L 346.2,262.4 L 346.2,261.8 L 345.9,261.3 L 345.6,261.5 L 344.9,262.7 L 345.1,263.6 L 345.6,263.9 L 327.1,270.7 L 327.1,270.7 L 326.2,270.6 L 325.8,270.8 L 325.6,271.2 L 312.2,276.1 L 255.8,296.7 L 87.1,358.2 L 86.5,357.7 L 85.9,357.4 L 85.7,357.5 L 85.3,358.0 L 85.3,358.5 L 85.4,358.8 L 82.3,360.0 L 82.0,359.7 L 81.6,359.1 L 81.1,357.6 L 80.9,357.3 L 80.7,357.2 L 80.2,357.3 L 79.8,357.4 L 79.5,357.1 L 79.2,356.5 L 78.9,356.4 L 78.3,356.3 L 77.8,355.9 L 77.3,355.4 L 77.3,355.0 L 77.4,354.7 L 77.2,354.4 L 76.9,354.2 L 76.1,354.4 L 75.7,354.6 L 75.1,354.5 L 74.9,354.3 L 74.8,354.3 L 74.7,354.2 L 74.5,353.7 L 74.4,353.1 L 74.5,352.7 L 74.7,352.4 L 74.7,352.0 L 74.4,351.7 L 74.7,351.4 L 75.0,351.0 L 74.9,350.6 L 74.8,350.3 L 75.2,350.0 L 75.7,349.7 L 75.7,349.4 L 75.6,349.0 L 75.4,348.5 L 75.5,348.3 L 75.8,348.1 L 76.8,348.2 L 77.4,348.1 L 77.6,348.3 L 77.8,348.7 L 78.1,348.7 L 78.5,348.4 L 79.2,348.5 L 79.8,348.2 L 80.0,348.1 L 80.3,348.1 L 80.6,347.7 L 81.2,347.4 L 81.2,347.1 L 81.1,347.0 L 80.8,346.9 L 80.8,346.7 L 81.0,346.7 L 81.4,346.6 L 81.5,346.5 L 81.5,346.1 L 82.1,345.9 L 82.5,345.5 L 82.5,345.2 L 82.3,343.6 L 81.8,343.0 L 81.2,342.7 L 81.1,342.4 L 81.2,341.8 L 80.9,341.5 L 80.5,341.5 L 80.2,341.5 L 80.1,341.4 L 80.2,341.2 L 80.5,340.9 L 81.8,340.9 L 82.0,340.6 L 82.0,340.4 L 81.8,339.7 L 81.6,338.9 L 81.4,338.9 L 80.9,338.8 L 80.8,338.6 L 80.7,337.8 L 80.7,337.3 L 80.5,337.1 L 79.9,336.7 L 79.4,336.4 L 77.9,336.3 L 76.9,336.2 L 76.6,336.1 L 76.2,335.9 L 75.9,335.4 L 76.1,334.9 L 76.3,334.7 L 76.2,334.3 L 75.5,333.5 L 75.2,333.3 L 74.4,333.2 L 73.7,332.8 L 72.5,331.7 L 72.2,331.6 L 71.2,331.4 L 71.0,330.9 L 70.9,330.9 L 70.9,330.5 L 71.1,329.8 L 70.9,329.7 L 70.1,329.7 L 69.6,330.0 L 69.5,330.1 L 69.2,329.9 L 68.7,328.8 L 68.4,327.8 L 68.4,326.7 L 68.5,325.7 L 68.7,325.3 L 68.7,325.2 L 69.1,324.8 L 69.0,324.6 L 68.4,324.2 L 68.4,323.9 L 69.1,323.0 L 69.1,322.9 L 69.2,322.7 L 69.2,321.7 L 69.6,320.6 L 69.7,320.5 L 70.2,319.8 L 70.5,319.4 L 71.0,319.1 L 71.7,319.1 L 71.7,320.1 L 71.7,320.5 L 72.0,320.6 L 72.3,320.2 L 72.6,319.9 L 72.7,320.1 L 72.8,320.4 L 73.0,320.4 L 73.0,320.1 L 73.1,319.4 L 73.2,319.5 L 73.3,320.3 L 73.4,320.3 L 73.5,320.1 L 73.6,319.4 L 73.7,319.4 L 73.9,319.8 L 74.2,319.7 L 74.5,319.2 L 74.5,318.9 L 74.2,318.2 L 74.2,317.8 L 73.5,317.3 L 72.5,317.2 L 71.6,316.7 L 71.0,316.1 L 70.8,315.5 L 70.7,314.6 L 71.0,314.1 L 71.2,313.9 L 72.9,313.9 L 73.4,313.7 L 73.5,313.4 L 73.5,313.1 L 73.0,312.8 L 72.9,312.6 L 72.9,312.1 L 73.1,311.7 L 73.6,311.2 L 73.7,311.2 L 74.4,310.8 L 75.1,310.6 L 76.0,310.7 L 76.7,311.3 L 76.8,311.3 L 77.3,311.3 L 77.6,311.3 L 77.9,311.0 L 78.3,311.2 L 78.5,311.0 L 78.8,310.7 L 79.3,310.3 L 80.7,309.6 L 81.6,308.9 L 81.7,308.5 L 81.8,307.4 L 82.1,307.0 L 82.5,307.0 L 82.7,306.6 L 82.7,305.9 L 83.0,305.6 L 83.3,305.5 L 83.3,305.1 L 83.2,303.5 L 83.4,302.6 L 83.3,301.7 L 83.3,301.5 L 83.1,300.6 L 83.2,299.2 L 83.3,298.7 L 84.1,298.3 L 84.3,298.3 L 84.9,298.1 L 86.5,298.1 L 87.6,298.2 L 88.1,298.6 L 89.1,299.8 L 89.1,300.2 L 88.9,300.4 L 88.7,300.5 L 88.5,300.8 L 88.5,301.5 L 88.9,302.4 L 89.6,303.4 L 89.4,303.9 L 89.5,304.4 L 89.7,305.1 L 89.7,305.8 L 89.9,307.0 L 89.9,308.2 L 90.2,309.7 L 90.4,311.3 L 90.6,311.9 L 90.7,312.0 L 91.0,312.1 L 91.0,312.5 L 90.9,313.0 L 91.0,313.6 L 91.7,313.5 L 92.3,313.3 L 93.6,312.4 L 94.9,311.7 L 94.9,311.6 L 94.5,311.5 L 94.1,311.5 L 94.2,309.9 L 94.3,308.3 L 94.2,307.7 L 93.5,306.4 L 93.3,306.1 L 92.9,305.7 L 92.5,305.1 L 92.5,304.7 L 92.7,304.5 L 92.5,304.0 L 92.1,303.3 L 91.7,303.1 L 91.4,302.6 L 91.3,302.5 L 91.1,301.8 L 90.7,301.4 L 89.9,300.9 L 89.7,300.6 L 89.8,300.4 L 90.1,300.1 L 90.5,300.1 L 91.6,300.5 L 91.6,300.8 L 91.6,300.8 L 91.5,301.1 L 91.3,301.4 L 91.4,301.7 L 91.7,301.8 L 92.2,301.8 L 92.4,301.3 L 92.3,300.9 L 92.0,300.8 L 91.8,300.7 L 91.8,300.7 L 91.9,300.7 L 92.2,300.4 L 92.4,300.3 L 92.6,300.4 L 93.1,300.4 L 93.4,300.0 L 93.4,299.2 L 93.7,298.9 L 94.8,298.3 L 94.9,298.4 L 95.2,299.3 L 95.6,299.4 L 95.9,299.9 L 96.0,300.3 L 96.6,300.6 L 96.9,300.5 L 97.0,300.2 L 97.2,298.7 L 97.2,297.9 L 97.2,297.0 L 96.9,296.0 L 96.2,294.6 L 95.8,294.2 L 95.4,294.1 L 94.8,294.1 L 94.5,294.6 L 94.5,295.4 L 94.6,297.0 L 94.6,297.4 L 93.9,297.8 L 92.5,296.9 L 92.5,296.7 L 92.7,296.2 L 92.6,295.9 L 92.2,295.9 L 91.8,295.9 L 91.4,296.0 L 90.1,295.1 L 89.5,294.7 L 89.4,294.4 L 89.3,292.8 L 89.1,291.2 L 89.0,289.9 L 88.9,289.6 L 88.8,289.5 L 88.8,288.0 L 88.6,286.9 L 88.4,286.0 L 88.0,285.9 L 88.0,285.9 L 87.7,285.9 L 87.5,285.9 L 86.4,286.0 L 85.9,286.1 L 84.3,286.0 L 82.7,285.8 L 81.4,285.6 L 81.1,285.5 L 81.3,285.0 L 82.9,285.1 L 84.5,285.2 L 85.3,285.4 L 85.7,285.6 L 87.3,285.4 L 88.2,285.3 L 88.3,284.8 L 88.1,283.2 L 87.9,281.6 L 87.9,280.2 L 88.0,279.7 L 88.4,279.4 L 89.1,279.6 L 89.5,279.9 L 90.7,280.9 L 91.0,281.1 L 91.4,280.5 L 90.9,280.0 L 89.6,279.1 L 89.2,279.0 L 89.7,278.6 L 89.8,278.4 L 90.6,277.5 L 91.0,277.5 L 92.0,276.3 L 92.5,275.6 L 92.6,275.1 L 92.6,273.8 L 92.6,273.5 L 93.4,272.9 L 93.2,272.5 L 93.1,271.9 L 94.0,270.7 L 94.3,270.4 L 94.5,270.2 L 94.6,270.2 L 94.6,270.0 L 94.4,269.9 L 94.0,270.4 L 93.4,271.1 L 92.5,272.2 L 92.2,272.2 L 91.8,272.1 L 91.6,271.9 L 91.3,271.3 L 91.3,271.2 L 91.7,270.7 L 92.6,270.4 L 92.6,270.3 L 92.5,270.0 L 92.1,270.1 L 92.0,270.2 L 92.0,270.3 L 91.3,270.5 L 91.2,270.3 L 91.1,270.2 L 91.0,270.0 L 90.9,269.8 L 90.5,268.9 L 90.6,268.7 L 90.6,268.6 L 90.9,268.5 L 92.7,267.7 L 93.0,267.5 L 93.6,267.3 L 93.3,266.9 L 92.7,266.5 L 92.1,266.6 L 91.0,266.7 L 90.2,266.9 L 89.5,266.9 L 88.7,266.9 L 88.3,266.9 L 88.0,267.0 L 87.9,265.9 L 89.8,265.7 L 91.1,265.6 L 93.1,263.6 L 93.9,262.6 L 94.3,262.4 L 94.9,262.9 L 96.7,261.1 L 97.0,260.8 L 97.4,260.4 L 98.0,259.7 L 98.6,259.1 L 99.0,259.3 L 99.5,259.7 L 99.8,259.9 L 100.4,264.1 L 95.6,266.0 L 95.5,266.2 L 94.3,266.7 L 94.4,267.0 L 95.5,266.4 L 100.6,264.6 L 100.7,264.6 L 100.7,264.8 L 100.4,265.0 L 99.5,265.5 L 99.0,266.0 L 98.4,267.2 L 98.1,267.5 L 98.0,267.8 L 98.1,267.9 L 98.4,267.8 L 99.0,267.0 L 99.4,266.2 L 100.0,265.7 L 101.3,265.1 L 102.0,264.8 L 103.0,264.2 L 103.4,264.2 L 103.8,264.3 L 104.3,264.9 L 105.3,265.8 L 105.7,266.0 L 106.2,266.5 L 106.2,266.9 L 106.3,267.0 L 107.1,267.1 L 107.2,267.2 L 107.0,268.8 L 106.9,269.6 L 106.8,269.8 L 106.7,269.9 L 105.1,270.9 L 104.5,271.4 L 104.0,271.7 L 103.5,271.6 L 103.0,271.5 L 102.3,271.5 L 102.2,271.7 L 102.5,272.4 L 101.9,272.4 L 101.3,272.5 L 101.3,272.6 L 101.4,273.0 L 102.9,273.0 L 103.4,273.4 L 103.6,273.3 L 104.2,272.4 L 105.3,271.4 L 105.3,271.4 L 106.5,270.5 L 107.1,270.1 L 107.2,269.9 L 107.2,269.8" fill="none" stroke="black" stroke-width="2"/>
</svg>