<?xml version="1.0" encoding="UTF-8"?>
<svg width="400" height="400" viewBox="0 0 400 400" xmlns="http://www.w3.org/2000/svg">
  <rect width="400" height="400" fill="white"/>
  <path d="M 40.0,260.7 L 40.1,260.2 L 41.0,260.3 L 41.1,259.1 L 40.6,257.6 L 40.9,257.4 L 41.6,257.3 L 42.0,255.8 L 43.4,255.9 L 44.0,257.8 L 44.0,259.2 L 44.9,260.0 L 46.8,259.0 L 48.5,257.3 L 48.9,256.5 L 50.3,254.7 L 50.4,253.2 L 49.4,253.1 L 49.7,251.9 L 51.6,250.4 L 56.1,248.4 L 58.6,245.8 L 58.3,242.4 L 57.8,240.7 L 56.4,237.4 L 53.4,234.1 L 53.7,233.4 L 54.1,233.0 L 54.6,233.2 L 55.1,233.6 L 55.4,233.6 L 56.1,233.6 L 55.5,232.2 L 57.5,230.6 L 58.4,230.8 L 63.4,235.7 L 63.9,235.6 L 64.1,234.7 L 65.1,234.5 L 65.8,233.8 L 66.4,233.8 L 67.2,232.8 L 68.5,233.2 L 69.6,234.4 L 68.9,235.5 L 68.9,238.1 L 68.6,238.9 L 69.2,241.3 L 69.9,243.2 L 70.6,244.3 L 71.3,244.1 L 72.2,243.4 L 72.4,243.4 L 73.9,242.1 L 74.3,239.6 L 74.8,239.2 L 74.5,237.7 L 73.9,236.2 L 74.7,233.0 L 75.3,231.9 L 75.6,230.3 L 77.2,230.3 L 76.9,229.4 L 76.4,229.0 L 75.2,228.8 L 75.8,227.5 L 74.9,225.1 L 75.7,223.3 L 76.2,222.7 L 77.7,220.9 L 78.7,219.5 L 79.2,217.2 L 78.8,214.1 L 78.2,212.6 L 79.2,209.3 L 78.9,206.8 L 79.3,204.2 L 78.4,203.5 L 78.4,199.1 L 78.0,196.4 L 78.9,194.2 L 79.4,189.2 L 80.0,188.7 L 81.4,188.1 L 83.0,190.4 L 83.5,192.3 L 82.9,193.6 L 82.9,198.0 L 82.5,199.7 L 82.2,203.2 L 81.6,204.3 L 83.0,205.6 L 84.4,205.6 L 85.2,205.4 L 87.4,205.2 L 88.0,206.6 L 88.0,208.5 L 87.2,212.1 L 87.8,215.8 L 88.5,216.0 L 89.0,216.5 L 89.6,216.4 L 90.4,214.8 L 91.0,213.2 L 91.5,213.3 L 92.4,212.9 L 92.8,210.9 L 92.7,209.1 L 92.7,207.8 L 93.3,207.9 L 93.7,208.9 L 94.6,208.8 L 95.5,208.0 L 96.5,209.0 L 97.0,209.7 L 97.9,210.2 L 98.3,210.0 L 98.3,208.1 L 97.1,207.0 L 96.8,205.0 L 96.3,203.8 L 96.7,201.7 L 97.1,200.9 L 99.2,197.9 L 101.4,192.1 L 102.4,190.1 L 103.2,187.7 L 104.9,184.5 L 108.0,181.8 L 111.1,179.5 L 112.4,177.8 L 113.0,177.6 L 113.2,179.5 L 112.6,180.5 L 112.4,181.6 L 113.4,185.1 L 110.5,187.3 L 109.7,188.8 L 107.7,191.9 L 105.1,194.1 L 103.4,196.6 L 102.3,199.9 L 100.3,203.2 L 100.0,204.8 L 100.2,206.3 L 100.8,207.0 L 101.3,207.1 L 101.9,208.8 L 103.4,210.7 L 104.4,210.5 L 106.4,208.2 L 107.0,207.1 L 107.4,206.3 L 108.1,205.4 L 108.8,202.6 L 109.2,200.4 L 109.6,200.1 L 109.7,199.1 L 109.7,197.2 L 110.1,196.3 L 111.5,195.4 L 112.1,195.5 L 110.9,200.9 L 110.8,205.2 L 111.0,206.4 L 113.1,208.4 L 116.4,209.1 L 117.2,210.6 L 118.5,214.4 L 121.1,216.4 L 121.5,217.6 L 121.1,219.0 L 120.0,220.7 L 119.7,222.2 L 120.0,223.3 L 120.3,223.9 L 121.0,223.2 L 121.2,221.8 L 121.7,220.9 L 122.0,221.3 L 122.3,222.6 L 122.3,224.3 L 123.2,225.3 L 123.6,225.2 L 124.1,224.2 L 126.1,224.6 L 129.0,223.2 L 129.6,222.4 L 130.1,218.6 L 132.2,217.6 L 134.7,217.8 L 135.6,218.3 L 135.8,218.7 L 136.7,219.1 L 136.7,218.2 L 137.1,217.2 L 137.3,216.4 L 137.9,216.1 L 139.9,216.7 L 142.1,216.6 L 143.3,215.0 L 144.5,214.2 L 145.2,212.5 L 145.7,210.5 L 146.5,209.5 L 146.7,206.3 L 147.7,205.1 L 148.3,202.2 L 148.9,201.1 L 149.3,200.7 L 149.0,200.4 L 148.2,199.8 L 147.9,196.0 L 148.2,194.9 L 147.8,193.8 L 146.4,190.9 L 146.1,190.3 L 145.7,187.9 L 145.7,185.9 L 146.6,185.5 L 148.0,186.4 L 150.3,185.2 L 151.3,185.0 L 152.2,185.2 L 153.8,185.3 L 153.9,185.2 L 155.1,185.7 L 156.0,187.3 L 158.1,186.7 L 159.8,185.2 L 159.9,183.7 L 159.1,182.8 L 157.2,182.9 L 157.0,182.2 L 157.1,180.4 L 156.7,178.2 L 156.5,177.7 L 154.2,177.4 L 152.0,176.4 L 151.7,175.9 L 151.7,173.7 L 150.6,172.2 L 149.2,170.4 L 148.0,169.9 L 148.2,169.4 L 148.5,169.3 L 150.8,169.4 L 152.7,170.0 L 155.5,170.2 L 156.7,171.2 L 159.1,171.2 L 162.3,170.9 L 164.0,169.9 L 166.0,167.1 L 166.4,166.0 L 167.5,164.4 L 168.4,164.1 L 168.2,163.0 L 169.6,160.9 L 171.1,160.1 L 173.0,159.6 L 174.1,159.7 L 175.9,159.8 L 176.0,162.7 L 177.0,164.5 L 177.7,164.3 L 178.1,163.9 L 177.7,163.0 L 179.2,161.5 L 179.3,160.7 L 179.3,159.0 L 180.7,157.2 L 181.6,155.6 L 181.7,154.8 L 183.3,152.1 L 184.0,151.5 L 184.8,150.2 L 186.9,147.4 L 188.1,146.5 L 188.2,145.9 L 189.0,144.9 L 190.1,144.6 L 190.7,144.7 L 191.4,146.4 L 191.8,148.7 L 192.3,149.6 L 192.5,151.2 L 193.6,152.0 L 193.9,152.0 L 194.9,152.1 L 198.5,150.0 L 203.2,146.0 L 203.8,144.3 L 204.5,141.2 L 206.1,139.1 L 206.2,139.0 L 208.9,136.2 L 210.9,133.0 L 211.7,131.2 L 212.3,128.9 L 212.4,127.3 L 214.0,126.4 L 214.4,126.4 L 215.6,125.9 L 216.3,126.4 L 216.4,126.7 L 217.3,127.3 L 217.2,128.5 L 215.6,134.3 L 215.8,135.2 L 218.8,137.3 L 221.1,137.5 L 222.2,137.8 L 223.7,138.0 L 224.7,138.6 L 227.0,139.5 L 229.6,139.4 L 235.8,134.9 L 236.6,133.9 L 238.8,133.9 L 240.9,132.4 L 242.7,131.4 L 243.5,129.9 L 244.3,131.2 L 244.4,131.1 L 243.6,129.7 L 245.1,128.1 L 246.9,129.4 L 247.2,128.7 L 246.9,128.5 L 246.8,128.1 L 246.2,128.2 L 245.2,127.4 L 248.0,122.4 L 249.7,119.5 L 251.3,117.7 L 252.1,116.8 L 254.1,117.3 L 256.4,115.4 L 257.3,115.2 L 259.7,115.1 L 261.1,113.8 L 263.0,113.4 L 264.0,112.6 L 264.8,110.9 L 265.2,110.5 L 266.6,108.5 L 267.8,107.6 L 268.7,107.5 L 268.9,107.4 L 271.8,105.3 L 271.9,104.7 L 273.2,103.0 L 274.4,102.8 L 273.7,101.8 L 276.0,97.2 L 277.2,93.2 L 279.0,92.1 L 279.2,92.2 L 279.2,91.7 L 278.9,91.0 L 279.2,90.0 L 280.8,89.1 L 281.6,89.0 L 281.3,87.9 L 280.9,87.0 L 281.1,86.3 L 282.5,85.1 L 283.9,84.8 L 286.4,82.0 L 286.1,81.7 L 286.5,81.1 L 287.9,80.8 L 288.4,80.4 L 288.4,78.9 L 287.8,78.4 L 287.9,77.7 L 289.0,77.1 L 289.9,76.8 L 290.7,77.2 L 291.6,76.9 L 292.8,76.2 L 294.2,74.2 L 295.4,73.1 L 298.7,71.3 L 299.9,71.0 L 302.6,69.1 L 303.1,66.9 L 303.5,65.2 L 304.8,61.8 L 305.4,61.4 L 307.7,61.3 L 310.6,58.9 L 314.3,57.8 L 315.5,57.2 L 316.4,57.5 L 317.4,57.3 L 319.3,56.2 L 320.7,55.7 L 323.4,54.2 L 324.4,54.2 L 326.3,54.3 L 327.3,56.4 L 327.5,57.9 L 327.8,58.5 L 327.6,60.7 L 328.1,62.9 L 327.9,64.5 L 329.1,68.9 L 329.4,69.2 L 330.2,70.1 L 332.0,69.5 L 333.9,68.8 L 334.6,68.9 L 334.7,69.1 L 335.3,68.9 L 335.6,69.0 L 336.0,69.8 L 336.7,71.2 L 335.7,72.1 L 334.6,73.6 L 332.9,76.6 L 330.9,78.8 L 330.1,79.8 L 325.6,83.7 L 325.0,84.2 L 324.6,85.1 L 322.0,87.1 L 319.7,88.3 L 319.5,89.1 L 318.8,90.0 L 318.7,92.4 L 319.0,93.3 L 320.0,94.4 L 320.7,94.5 L 322.6,95.1 L 323.4,96.0 L 322.9,97.1 L 322.8,97.8 L 323.3,98.5 L 324.1,98.4 L 324.6,97.7 L 325.9,98.1 L 326.8,99.6 L 328.6,100.2 L 329.4,103.0 L 329.7,103.3 L 330.9,103.0 L 332.2,102.2 L 334.7,103.3 L 336.6,103.4 L 338.5,102.8 L 338.9,102.9 L 340.0,105.0 L 339.7,106.9 L 340.6,109.6 L 342.3,111.8 L 342.9,112.1 L 345.4,112.3 L 345.7,113.2 L 345.5,116.7 L 345.2,118.4 L 344.8,119.4 L 344.8,120.1 L 345.2,120.2 L 345.4,121.1 L 345.6,121.2 L 346.2,121.3 L 346.9,121.0 L 347.8,121.4 L 348.3,121.9 L 348.6,121.7 L 349.7,121.4 L 352.3,119.5 L 353.3,118.4 L 354.3,117.2 L 354.8,115.9 L 356.4,113.4 L 358.8,110.8 L 358.5,107.4 L 359.1,107.6 L 360.0,108.8 L 359.7,110.4 L 359.4,111.1 L 359.3,111.5 L 355.5,116.2 L 354.9,117.4 L 353.8,118.9 L 354.0,119.1 L 352.7,120.6 L 351.1,121.8 L 349.6,122.3 L 344.5,126.9 L 343.3,128.1 L 342.5,129.1 L 342.3,129.7 L 340.7,131.6 L 339.2,134.7 L 338.2,136.2 L 338.0,136.5 L 337.4,138.7 L 336.9,144.3 L 337.1,145.5 L 337.0,146.6 L 337.5,147.5 L 337.4,149.4 L 337.3,150.1 L 337.7,151.0 L 339.2,150.4 L 343.2,147.4 L 346.2,144.6 L 346.7,144.6 L 346.9,145.1 L 346.2,146.2 L 347.3,146.6 L 347.3,148.2 L 348.3,149.7 L 349.7,149.1 L 350.5,148.3 L 351.5,147.4 L 351.3,147.1 L 352.6,146.4 L 352.4,146.1 L 353.2,145.9 L 354.6,147.1 L 356.1,147.4 L 357.0,147.9 L 358.0,148.1 L 358.1,148.6 L 358.1,148.7 L 358.1,149.3 L 357.5,150.7 L 355.9,152.0 L 355.8,154.4 L 354.3,155.9 L 350.7,158.1 L 348.7,158.7 L 347.2,158.6 L 344.4,159.7 L 344.3,160.9 L 344.0,161.4 L 340.9,161.2 L 339.4,161.7 L 338.1,163.5 L 335.5,165.4 L 334.2,166.6 L 332.2,168.1 L 331.8,169.2 L 330.7,170.5 L 330.6,171.3 L 331.4,174.2 L 331.4,177.4 L 331.7,178.7 L 331.3,180.4 L 332.2,184.3 L 332.3,187.3 L 332.6,189.1 L 332.7,190.1 L 332.0,192.4 L 331.3,193.1 L 329.3,193.1 L 328.4,191.8 L 327.2,188.8 L 326.2,185.8 L 325.9,183.7 L 325.1,182.9 L 324.8,181.3 L 323.9,179.8 L 322.5,178.8 L 321.2,178.2 L 320.2,177.3 L 318.8,177.0 L 315.2,177.8 L 307.3,180.0 L 302.5,180.8 L 301.6,181.2 L 299.9,182.8 L 299.3,183.1 L 298.2,183.7 L 297.2,184.2 L 296.9,184.1 L 293.5,186.3 L 292.1,187.5 L 290.2,188.6 L 288.5,189.0 L 287.8,189.6 L 285.6,191.7 L 285.2,192.2 L 285.2,192.3 L 284.8,193.0 L 284.3,195.2 L 283.8,196.1 L 283.1,196.1 L 281.2,195.6 L 280.6,195.1 L 280.2,194.9 L 279.9,195.0 L 279.7,194.9 L 278.9,194.5 L 276.8,193.9 L 275.3,194.1 L 267.2,198.5 L 264.5,199.4 L 262.7,199.5 L 261.6,198.5 L 260.3,199.1 L 259.7,198.8 L 258.5,199.0 L 258.2,199.7 L 257.4,200.1 L 255.1,202.0 L 253.4,201.8 L 252.5,202.4 L 252.2,205.6 L 251.0,206.4 L 249.9,207.5 L 247.9,208.4 L 246.4,210.0 L 245.9,210.1 L 244.1,209.7 L 243.1,209.9 L 240.3,211.2 L 236.5,213.7 L 233.5,214.5 L 230.9,215.4 L 227.8,216.1 L 224.6,217.9 L 222.7,218.5 L 221.2,219.9 L 219.8,220.1 L 219.2,221.2 L 219.9,227.6 L 226.1,232.6 L 226.4,233.2 L 225.8,233.1 L 223.3,231.6 L 222.0,230.9 L 221.1,230.4 L 219.6,230.6 L 218.8,229.7 L 217.3,229.0 L 215.8,227.4 L 214.3,226.9 L 212.5,226.6 L 211.6,226.9 L 210.3,228.3 L 210.0,233.0 L 209.7,234.7 L 209.5,235.6 L 209.3,240.6 L 207.8,239.0 L 206.7,237.7 L 205.1,236.4 L 203.9,234.7 L 203.6,234.1 L 201.8,229.0 L 200.9,227.6 L 198.3,227.4 L 195.7,227.3 L 195.1,227.5 L 194.8,228.1 L 194.0,228.7 L 192.3,229.2 L 191.1,230.1 L 190.9,232.8 L 190.8,233.0 L 188.8,236.8 L 188.6,237.6 L 186.8,239.2 L 185.1,240.1 L 183.7,242.6 L 183.2,243.9 L 182.6,244.9 L 182.5,245.6 L 182.0,246.9 L 182.6,248.1 L 182.9,251.5 L 183.1,251.8 L 184.0,253.5 L 184.6,255.4 L 185.5,257.3 L 185.8,259.7 L 186.2,260.1 L 187.3,259.2 L 187.6,258.3 L 188.2,258.1 L 189.6,255.8 L 190.6,255.9 L 191.8,257.0 L 192.9,257.5 L 194.2,258.8 L 194.3,259.4 L 193.8,260.7 L 191.5,268.6 L 191.5,272.1 L 192.3,274.3 L 192.6,276.3 L 193.0,277.3 L 193.6,278.8 L 194.1,279.7 L 194.7,281.6 L 195.6,283.2 L 195.9,283.7 L 196.6,284.5 L 197.1,285.5 L 197.2,286.4 L 196.6,286.5 L 195.8,287.2 L 195.7,288.4 L 197.2,288.4 L 198.0,288.7 L 198.7,289.5 L 198.9,290.8 L 198.1,291.8 L 198.3,293.0 L 198.0,297.1 L 196.8,299.0 L 196.4,301.0 L 195.9,305.4 L 194.8,307.2 L 193.7,308.0 L 192.4,307.4 L 191.1,307.2 L 190.7,307.1 L 189.7,306.1 L 189.0,306.1 L 188.7,307.5 L 188.4,307.7 L 187.2,306.7 L 186.8,305.9 L 185.1,304.9 L 184.2,305.3 L 183.2,306.1 L 183.6,307.0 L 183.7,307.8 L 184.5,308.9 L 184.7,309.8 L 184.7,310.4 L 184.2,310.9 L 183.9,312.9 L 184.6,315.4 L 185.8,317.7 L 185.4,318.5 L 185.6,320.3 L 186.1,321.1 L 187.2,321.1 L 188.4,320.2 L 188.6,319.5 L 188.3,318.9 L 188.5,316.2 L 189.2,315.9 L 190.3,316.3 L 190.3,316.3 L 190.8,316.9 L 191.0,318.4 L 190.3,320.2 L 190.0,322.4 L 190.4,323.3 L 191.2,323.8 L 192.1,325.5 L 192.3,326.6 L 190.7,328.2 L 190.4,329.2 L 191.1,330.0 L 191.0,332.4 L 191.6,332.8 L 191.6,334.6 L 192.2,336.1 L 193.8,338.2 L 194.4,339.4 L 194.6,341.8 L 193.3,344.5 L 192.1,345.6 L 190.9,345.8 L 189.0,345.8 L 187.7,345.0 L 187.7,344.9 L 187.5,344.2 L 186.6,344.0 L 185.7,343.1 L 184.5,341.4 L 185.0,339.5 L 183.7,337.7 L 178.0,338.0 L 176.7,338.9 L 176.7,339.0 L 176.6,339.0 L 155.8,338.1 L 155.7,335.9 L 154.8,335.5 L 153.3,335.9 L 152.0,336.3 L 151.0,336.1 L 149.0,335.2 L 149.2,334.1 L 150.1,333.9 L 152.8,333.8 L 154.6,331.1 L 155.2,330.6 L 155.8,330.7 L 156.4,331.6 L 156.9,331.1 L 157.3,329.7 L 158.4,329.8 L 158.7,330.8 L 159.9,331.2 L 160.5,330.5 L 161.1,329.5 L 161.8,328.4 L 166.4,324.4 L 166.4,323.7 L 166.2,322.9 L 166.0,321.6 L 166.3,320.7 L 166.1,319.6 L 166.6,317.5 L 165.8,315.4 L 164.8,314.0 L 163.4,311.8 L 163.8,311.1 L 162.6,309.7 L 162.1,308.2 L 162.2,307.4 L 160.5,304.3 L 159.1,303.0 L 156.7,302.4 L 155.1,300.4 L 154.3,300.2 L 153.5,301.3 L 152.9,301.5 L 152.6,300.6 L 152.2,300.5 L 151.9,301.1 L 151.1,301.2 L 150.4,301.8 L 149.3,303.7 L 148.3,304.9 L 147.4,305.2 L 147.2,305.8 L 145.9,307.5 L 145.0,308.3 L 144.1,309.8 L 144.0,311.0 L 144.3,311.0 L 145.0,310.0 L 145.4,310.1 L 144.8,311.1 L 144.4,311.9 L 144.2,312.9 L 143.7,313.9 L 144.3,315.0 L 143.9,315.4 L 143.3,315.5 L 142.6,316.0 L 142.6,316.6 L 143.3,316.8 L 143.4,317.4 L 142.5,318.3 L 142.1,321.7 L 141.5,325.2 L 140.9,325.9 L 139.7,325.2 L 139.5,325.5 L 139.7,326.8 L 139.5,328.7 L 139.6,329.7 L 140.1,330.2 L 140.5,331.6 L 140.9,332.3 L 141.5,332.0 L 142.6,331.0 L 145.3,331.4 L 145.7,332.2 L 145.7,333.5 L 147.0,337.1 L 146.9,337.1 L 123.6,330.1 L 110.9,326.4 L 110.9,326.4 L 111.2,325.9 L 111.7,324.2 L 113.4,322.4 L 113.7,319.8 L 113.8,316.9 L 113.5,315.6 L 112.2,314.2 L 112.3,311.4 L 111.9,310.8 L 111.9,309.2 L 111.3,306.1 L 110.9,303.9 L 109.7,303.5 L 109.5,300.0 L 108.7,299.0 L 108.8,297.8 L 108.9,297.3 L 106.5,296.9 L 105.7,296.0 L 105.0,296.3 L 103.3,298.2 L 101.9,297.9 L 101.3,296.4 L 100.7,292.8 L 100.3,291.5 L 100.3,290.0 L 99.9,288.7 L 100.3,287.4 L 99.3,285.3 L 99.1,282.3 L 98.2,280.6 L 97.9,277.7 L 98.7,276.7 L 100.7,276.0 L 102.3,276.2 L 102.5,278.5 L 102.9,279.1 L 103.9,278.7 L 104.4,277.3 L 103.8,275.4 L 103.9,274.8 L 105.2,274.8 L 106.1,274.5 L 107.2,275.0 L 107.1,276.5 L 106.8,276.8 L 108.2,279.8 L 109.1,279.7 L 109.5,279.3 L 109.5,277.5 L 107.8,274.4 L 107.4,273.0 L 108.0,272.4 L 108.6,272.6 L 109.5,274.3 L 111.0,275.5 L 111.3,275.0 L 111.5,274.0 L 111.9,273.4 L 111.8,272.0 L 111.1,267.8 L 110.5,265.9 L 110.6,264.1 L 109.8,263.2 L 109.5,261.4 L 109.7,260.8 L 110.3,261.0 L 111.5,262.0 L 111.9,261.1 L 112.1,258.7 L 111.6,257.4 L 111.0,257.2 L 108.7,258.4 L 107.1,256.8 L 106.5,258.4 L 106.2,261.0 L 105.3,262.8 L 105.2,264.3 L 105.4,265.2 L 105.4,266.0 L 104.1,267.2 L 103.4,267.2 L 103.3,266.9 L 103.0,266.8 L 102.1,266.6 L 101.9,267.7 L 101.4,268.4 L 99.2,267.4 L 98.0,268.3 L 97.3,268.5 L 96.6,265.4 L 97.5,263.8 L 97.3,262.7 L 96.5,262.2 L 95.7,262.7 L 95.0,264.0 L 94.9,264.7 L 95.4,265.9 L 95.7,266.5 L 94.7,267.3 L 93.5,267.4 L 92.3,268.3 L 91.7,268.5 L 90.8,267.8 L 89.6,266.5 L 88.9,266.3 L 87.7,264.9 L 84.5,265.0 L 82.8,265.9 L 81.2,265.9 L 79.4,267.4 L 78.4,268.0 L 77.5,268.4 L 76.6,270.1 L 76.8,271.6 L 77.5,271.8 L 77.6,272.0 L 77.8,273.6 L 77.9,273.9 L 77.2,275.0 L 77.6,276.8 L 77.3,279.4 L 76.6,280.0 L 76.1,281.2 L 75.2,282.3 L 74.0,282.5 L 73.3,281.7 L 73.2,279.8 L 72.5,278.5 L 72.3,276.7 L 71.6,274.9 L 70.8,274.5 L 69.4,274.4 L 69.2,274.1 L 68.4,273.9 L 67.2,274.7 L 67.0,276.0 L 66.5,276.6 L 66.2,278.0 L 64.9,278.0 L 64.5,277.6 L 63.9,277.8 L 63.8,278.6 L 63.7,278.7 L 63.7,278.7 L 56.1,272.9 L 56.2,272.9 L 56.5,272.3 L 56.7,271.6 L 56.0,271.5 L 55.6,272.5 L 40.0,260.7" fill="none" stroke="black" stroke-width="2"/>
</svg>