<?xml version="1.0" encoding="UTF-8"?>
<svg width="400" height="400" viewBox="0 0 400 400" xmlns="http://www.w3.org/2000/svg">
  <rect width="400" height="400" fill="white"/>
  <path d="M 143.4,198.5 L 143.7,198.3 L 144.1,197.9 L 144.4,197.4 L 144.5,197.2 L 144.4,197.1 L 144.2,197.0 L 144.2,196.8 L 143.9,196.5 L 144.0,196.2 L 144.1,196.0 L 144.9,195.3 L 145.2,195.1 L 145.5,195.0 L 145.7,195.0 L 146.1,195.2 L 146.2,195.2 L 146.7,194.8 L 146.8,194.6 L 147.2,194.1 L 147.1,194.0 L 146.9,193.8 L 146.8,193.7 L 146.6,193.8 L 146.1,194.0 L 146.1,194.3 L 145.8,194.4 L 145.7,194.2 L 145.8,193.9 L 145.7,193.5 L 145.8,193.2 L 146.1,193.0 L 146.8,192.8 L 147.0,192.3 L 147.1,192.2 L 147.2,192.1 L 147.4,191.8 L 147.4,191.7 L 147.1,191.6 L 147.0,191.5 L 147.1,191.5 L 147.1,191.3 L 147.0,191.3 L 146.5,191.6 L 146.2,191.7 L 146.1,191.6 L 146.1,191.3 L 146.2,191.1 L 146.2,190.6 L 146.1,190.2 L 146.0,190.2 L 145.5,190.2 L 145.2,190.2 L 144.9,189.8 L 144.9,189.5 L 145.2,189.0 L 145.2,188.8 L 144.9,188.8 L 144.7,188.8 L 144.3,188.5 L 144.1,188.2 L 144.2,188.0 L 144.2,187.8 L 144.7,187.1 L 144.7,186.7 L 144.9,186.3 L 145.1,185.9 L 145.3,185.3 L 145.6,184.9 L 146.3,184.6 L 146.6,184.2 L 146.7,183.8 L 146.7,183.6 L 146.7,183.3 L 147.1,182.6 L 147.6,181.9 L 148.1,181.5 L 148.4,181.1 L 149.0,180.6 L 149.0,180.4 L 149.0,180.3 L 148.9,180.2 L 148.6,180.2 L 148.2,180.3 L 148.1,180.3 L 147.8,180.5 L 147.5,180.5 L 147.2,180.4 L 147.0,180.4 L 146.5,180.5 L 145.8,180.9 L 145.6,181.1 L 145.6,181.4 L 145.4,181.5 L 144.6,181.5 L 144.6,181.3 L 144.5,181.3 L 144.0,181.4 L 143.8,181.4 L 143.4,181.0 L 143.5,180.4 L 143.5,180.1 L 143.5,179.9 L 143.5,179.8 L 143.3,179.5 L 143.1,179.1 L 143.2,178.8 L 143.4,178.6 L 143.8,178.4 L 144.3,178.0 L 144.8,177.2 L 145.1,177.0 L 145.2,176.8 L 145.0,176.8 L 144.6,177.0 L 144.4,177.1 L 143.4,177.5 L 143.3,177.6 L 143.2,177.4 L 143.6,177.1 L 143.5,176.6 L 143.3,176.5 L 143.0,176.6 L 142.7,176.8 L 142.4,176.8 L 142.2,176.5 L 142.2,176.0 L 142.4,175.8 L 143.4,175.4 L 143.4,175.4 L 143.6,175.4 L 143.9,175.5 L 144.1,175.5 L 144.3,175.5 L 144.5,175.5 L 144.7,175.6 L 144.8,175.7 L 144.9,175.8 L 145.0,175.9 L 145.1,175.8 L 145.1,175.6 L 145.1,175.4 L 145.0,175.3 L 144.9,175.2 L 144.7,175.2 L 144.4,175.2 L 144.1,175.2 L 143.9,175.2 L 143.8,175.2 L 143.7,175.2 L 143.5,175.1 L 143.2,175.1 L 143.0,175.2 L 142.8,174.9 L 142.5,175.0 L 142.1,174.8 L 141.9,174.6 L 142.0,174.3 L 142.1,174.2 L 142.3,173.6 L 142.6,173.4 L 142.5,173.2 L 142.3,173.2 L 141.3,173.6 L 141.1,173.8 L 141.1,173.9 L 141.2,174.2 L 141.1,174.4 L 141.0,174.4 L 140.8,174.3 L 140.6,174.2 L 140.5,174.0 L 140.4,174.0 L 140.2,174.1 L 140.0,174.2 L 139.9,174.7 L 139.7,174.9 L 139.6,174.9 L 139.4,174.8 L 139.4,174.3 L 139.2,174.2 L 138.8,174.2 L 138.5,174.0 L 138.3,173.5 L 138.1,173.2 L 138.0,173.1 L 137.7,172.3 L 137.8,171.8 L 137.9,171.6 L 138.1,171.4 L 138.2,171.2 L 138.1,171.0 L 138.0,171.0 L 137.8,171.2 L 137.7,171.3 L 137.6,171.4 L 137.4,171.4 L 137.1,171.2 L 137.0,171.0 L 137.1,170.5 L 137.2,170.4 L 137.4,170.4 L 137.7,170.1 L 137.9,169.9 L 138.4,169.6 L 138.6,169.4 L 138.8,169.3 L 139.0,169.2 L 139.4,168.9 L 139.3,168.6 L 139.5,168.8 L 139.6,168.8 L 139.9,168.5 L 139.9,168.2 L 139.8,168.1 L 139.8,167.8 L 140.2,167.3 L 140.5,166.8 L 140.6,166.2 L 140.6,165.9 L 140.4,165.7 L 140.3,165.7 L 139.8,165.9 L 139.7,166.0 L 139.5,166.0 L 139.4,165.8 L 139.6,165.0 L 139.5,164.9 L 139.2,165.0 L 138.8,165.2 L 138.8,165.2 L 138.6,165.2 L 138.5,165.1 L 138.1,165.0 L 137.5,165.2 L 137.3,165.2 L 137.4,164.9 L 136.2,165.7 L 136.1,165.5 L 135.9,165.2 L 135.8,164.8 L 135.7,164.7 L 135.8,164.5 L 135.9,164.3 L 136.3,164.0 L 136.8,163.7 L 137.1,163.3 L 137.7,162.9 L 138.4,162.3 L 138.8,161.5 L 138.9,160.9 L 138.7,161.0 L 138.3,161.1 L 137.6,161.1 L 137.0,160.9 L 136.8,160.6 L 136.9,160.2 L 137.2,159.8 L 137.1,159.7 L 136.2,159.7 L 136.0,159.7 L 134.5,160.4 L 134.1,160.5 L 133.6,160.7 L 133.6,160.6 L 133.7,160.4 L 133.7,160.1 L 133.3,159.2 L 133.2,158.8 L 133.3,158.5 L 133.5,158.1 L 133.4,157.7 L 133.6,157.3 L 133.6,157.3 L 133.4,157.3 L 133.2,157.4 L 132.9,157.4 L 132.8,157.2 L 132.8,156.7 L 132.9,156.4 L 132.9,156.2 L 134.1,155.0 L 136.0,153.4 L 136.7,152.8 L 137.9,151.9 L 138.7,151.1 L 139.0,150.5 L 139.2,150.0 L 139.2,149.7 L 139.0,149.5 L 139.0,148.9 L 139.2,148.5 L 139.6,148.0 L 139.8,147.9 L 140.0,147.9 L 140.3,147.9 L 140.4,148.0 L 140.6,148.2 L 140.7,148.4 L 140.8,148.6 L 141.1,148.6 L 142.3,147.6 L 142.7,147.4 L 143.0,147.1 L 143.9,146.5 L 144.5,146.2 L 145.0,145.9 L 145.5,145.6 L 146.1,145.2 L 147.0,144.1 L 147.7,143.2 L 147.9,142.8 L 147.8,142.7 L 147.5,142.7 L 147.1,143.0 L 146.7,143.1 L 146.5,143.1 L 146.2,143.3 L 146.1,143.3 L 145.9,143.2 L 145.8,143.0 L 145.9,142.5 L 146.0,142.2 L 146.6,141.5 L 146.6,141.3 L 147.1,141.0 L 147.3,140.8 L 147.7,140.8 L 148.2,140.5 L 148.6,140.3 L 148.9,140.2 L 149.5,140.2 L 150.0,140.2 L 150.4,140.0 L 151.6,139.5 L 151.9,139.4 L 152.5,139.0 L 153.0,138.7 L 153.9,138.2 L 154.3,138.0 L 154.6,137.7 L 155.0,137.2 L 155.5,136.8 L 155.7,136.4 L 155.8,135.8 L 156.1,135.5 L 156.1,135.5 L 156.5,135.3 L 156.5,135.3 L 156.5,135.6 L 156.6,136.0 L 156.8,136.4 L 157.0,136.5 L 157.3,136.4 L 157.6,136.2 L 158.4,135.7 L 158.8,135.2 L 158.9,134.8 L 159.0,134.4 L 158.9,134.0 L 158.7,134.0 L 158.3,134.2 L 157.8,134.2 L 157.5,134.3 L 157.4,134.2 L 157.3,134.1 L 157.4,133.6 L 157.8,133.2 L 157.7,133.0 L 157.3,132.8 L 157.3,132.6 L 157.2,132.5 L 157.0,132.6 L 166.7,125.0 L 166.9,124.9 L 166.7,125.1 L 166.7,125.3 L 166.8,125.5 L 167.0,125.5 L 167.8,125.3 L 168.2,125.1 L 168.5,124.8 L 168.9,124.9 L 169.1,125.3 L 170.2,125.2 L 170.6,125.1 L 170.8,125.1 L 171.2,124.8 L 171.3,124.7 L 171.6,124.4 L 172.1,124.3 L 172.3,124.1 L 172.1,124.0 L 172.2,123.7 L 172.5,123.6 L 172.8,123.4 L 173.4,123.5 L 173.6,123.4 L 173.7,123.4 L 173.9,123.5 L 174.4,123.7 L 174.5,123.8 L 174.7,124.1 L 174.8,124.2 L 175.1,124.2 L 175.3,124.0 L 176.2,123.7 L 176.2,123.5 L 176.1,123.4 L 175.7,123.3 L 175.8,123.0 L 175.9,122.8 L 175.9,122.6 L 176.0,122.3 L 176.4,122.0 L 176.5,121.8 L 176.9,121.6 L 177.2,121.5 L 177.6,121.0 L 177.9,120.9 L 178.9,120.9 L 179.2,121.0 L 179.4,121.1 L 179.4,121.2 L 178.9,121.4 L 178.8,121.5 L 178.3,121.7 L 178.3,121.9 L 178.5,121.9 L 180.3,121.1 L 180.5,120.9 L 180.6,120.6 L 180.6,120.4 L 180.9,120.1 L 181.5,119.9 L 181.9,120.0 L 182.0,120.1 L 181.9,120.3 L 181.6,120.5 L 181.5,120.6 L 181.0,121.0 L 181.0,121.1 L 181.3,121.1 L 181.5,120.9 L 182.2,120.6 L 182.5,120.2 L 182.5,120.0 L 182.4,119.9 L 182.2,119.9 L 182.2,119.7 L 182.5,119.6 L 182.7,119.4 L 182.9,119.0 L 183.1,118.9 L 183.6,118.7 L 184.0,118.6 L 184.5,118.4 L 184.7,118.2 L 184.8,117.9 L 184.9,117.7 L 184.8,117.5 L 185.0,116.7 L 184.9,116.5 L 184.8,116.4 L 184.7,116.4 L 183.4,116.9 L 182.5,117.5 L 182.3,117.6 L 181.7,117.9 L 181.3,118.1 L 180.6,118.5 L 180.2,118.8 L 179.7,118.8 L 179.5,118.9 L 178.0,119.7 L 177.1,120.1 L 177.0,120.1 L 176.7,120.3 L 176.5,120.3 L 176.2,120.5 L 176.1,120.5 L 175.9,120.5 L 175.7,120.5 L 175.1,120.7 L 174.8,120.5 L 174.9,120.4 L 175.1,119.7 L 175.3,119.3 L 175.6,119.2 L 175.8,119.1 L 176.0,118.9 L 176.3,118.9 L 176.5,118.8 L 176.7,118.7 L 177.0,118.6 L 177.2,118.5 L 177.4,118.4 L 177.7,118.2 L 177.9,117.9 L 177.8,117.6 L 177.9,117.4 L 178.1,117.4 L 178.2,117.5 L 178.4,117.6 L 178.6,117.6 L 178.6,117.3 L 179.1,117.2 L 179.7,116.8 L 180.2,116.7 L 180.9,116.7 L 181.3,116.5 L 181.7,116.0 L 181.9,115.9 L 182.4,115.6 L 182.3,115.5 L 181.9,115.4 L 181.6,115.2 L 181.4,115.1 L 181.4,115.1 L 181.1,115.0 L 180.7,115.0 L 180.7,115.0 L 180.3,115.3 L 180.2,115.3 L 180.2,115.2 L 180.3,115.0 L 180.6,114.7 L 181.1,114.5 L 181.5,114.2 L 181.8,113.9 L 181.7,113.8 L 181.5,113.8 L 181.2,113.9 L 180.9,114.0 L 180.8,113.9 L 180.6,113.9 L 179.9,113.9 L 179.7,113.7 L 179.7,113.5 L 179.5,113.0 L 179.3,113.0 L 178.7,113.0 L 178.6,113.0 L 179.0,112.7 L 179.9,111.2 L 180.1,111.1 L 180.5,110.7 L 180.9,110.4 L 181.4,110.0 L 181.9,109.9 L 182.3,109.8 L 183.0,109.5 L 183.1,109.6 L 183.1,109.7 L 182.8,110.0 L 182.8,110.1 L 183.0,110.5 L 183.2,110.5 L 183.4,110.4 L 183.6,110.4 L 183.8,110.2 L 184.3,110.2 L 184.9,109.9 L 185.1,109.6 L 185.2,109.3 L 185.2,108.8 L 184.9,108.6 L 185.0,108.4 L 185.4,108.0 L 185.8,107.7 L 186.2,107.4 L 186.6,107.2 L 186.7,107.2 L 186.8,106.9 L 186.6,106.4 L 186.5,106.1 L 186.6,105.9 L 186.9,105.6 L 187.0,105.3 L 187.1,104.3 L 187.0,104.2 L 186.7,104.3 L 186.5,104.2 L 186.5,104.2 L 186.4,104.1 L 186.6,104.1 L 188.9,103.7 L 188.9,103.7 L 188.9,103.9 L 189.0,104.0 L 189.1,104.2 L 189.1,105.0 L 189.2,105.4 L 189.4,105.5 L 189.5,105.8 L 189.7,106.2 L 189.9,106.2 L 190.4,106.5 L 190.8,106.6 L 191.1,106.3 L 191.5,106.3 L 192.2,106.4 L 192.4,106.6 L 192.4,106.7 L 192.3,106.8 L 192.2,107.0 L 192.3,107.5 L 192.2,107.6 L 192.2,107.8 L 192.0,108.0 L 192.0,108.2 L 191.6,108.5 L 191.5,108.7 L 191.6,108.8 L 192.0,108.8 L 192.5,108.6 L 192.8,108.7 L 193.0,108.8 L 193.0,109.0 L 192.9,109.1 L 192.4,109.4 L 192.0,109.4 L 191.9,109.4 L 191.9,109.6 L 191.8,109.9 L 191.8,110.1 L 192.1,110.1 L 192.2,110.0 L 192.5,110.0 L 193.1,109.6 L 193.4,109.5 L 194.7,109.0 L 195.0,109.0 L 195.2,109.0 L 195.4,109.2 L 195.5,109.6 L 195.6,109.8 L 195.4,110.1 L 194.8,110.7 L 194.1,111.3 L 193.8,111.3 L 192.9,112.0 L 192.6,112.2 L 192.3,112.3 L 192.1,112.6 L 192.1,112.8 L 192.2,113.4 L 192.4,113.5 L 192.7,113.3 L 193.0,113.4 L 193.2,113.5 L 192.8,113.7 L 192.7,114.2 L 192.8,114.4 L 192.9,114.4 L 193.6,114.1 L 194.6,113.6 L 195.4,113.1 L 195.6,112.7 L 195.9,112.4 L 196.1,112.2 L 196.0,112.2 L 195.6,112.3 L 195.6,112.2 L 195.6,111.9 L 195.9,111.7 L 196.4,111.6 L 196.7,111.7 L 196.8,111.9 L 197.2,111.7 L 197.4,111.7 L 198.3,111.3 L 198.8,111.3 L 199.6,111.7 L 199.5,111.9 L 199.5,112.1 L 199.6,112.2 L 199.9,112.2 L 200.1,112.4 L 200.4,112.4 L 200.9,112.1 L 201.1,112.0 L 201.5,111.5 L 202.4,111.3 L 202.5,111.3 L 202.6,111.5 L 202.7,111.5 L 202.7,110.9 L 202.9,110.7 L 203.4,110.7 L 203.6,110.7 L 203.6,110.5 L 203.7,110.5 L 204.0,110.3 L 204.0,110.1 L 203.7,110.1 L 203.1,110.4 L 202.3,110.4 L 202.3,110.3 L 203.3,109.8 L 203.4,109.7 L 203.6,109.4 L 203.7,108.5 L 203.9,108.2 L 204.8,107.7 L 205.2,107.0 L 205.8,106.6 L 206.3,106.5 L 206.4,106.6 L 206.3,106.8 L 206.1,107.1 L 206.1,107.2 L 206.4,107.4 L 206.5,107.4 L 206.8,107.1 L 206.9,106.8 L 207.7,106.4 L 207.7,106.3 L 207.6,106.3 L 207.2,106.4 L 206.9,106.6 L 206.8,106.6 L 206.7,106.5 L 206.8,106.3 L 207.0,106.2 L 207.3,106.0 L 207.8,105.7 L 208.0,105.6 L 208.0,105.4 L 208.0,105.3 L 208.1,105.1 L 208.2,105.0 L 208.3,104.7 L 208.8,104.1 L 208.8,104.0 L 208.8,103.7 L 208.7,103.6 L 208.5,103.6 L 208.2,103.7 L 207.8,103.8 L 207.3,104.2 L 207.2,104.2 L 207.2,104.2 L 207.2,103.8 L 206.9,103.9 L 206.6,104.0 L 206.3,104.1 L 205.9,104.2 L 205.8,104.3 L 205.6,104.3 L 205.6,104.2 L 206.1,104.1 L 206.8,103.7 L 207.1,103.4 L 207.1,103.2 L 207.0,103.1 L 205.4,103.9 L 205.3,103.9 L 205.3,103.7 L 205.4,103.6 L 205.3,103.5 L 204.8,103.7 L 204.7,103.6 L 204.8,103.4 L 205.3,102.9 L 205.3,102.4 L 205.2,102.1 L 205.2,101.8 L 205.8,101.2 L 205.7,101.0 L 205.4,101.1 L 205.3,101.0 L 205.4,100.9 L 205.6,100.7 L 205.9,100.5 L 206.0,100.4 L 206.0,100.3 L 205.9,100.3 L 205.5,100.4 L 205.4,100.5 L 205.2,100.6 L 205.2,100.5 L 205.3,100.1 L 205.5,99.8 L 205.6,99.7 L 205.9,99.4 L 206.4,99.0 L 206.5,98.8 L 207.1,98.1 L 207.1,97.8 L 207.0,97.6 L 207.0,97.5 L 207.0,97.5 L 207.0,97.5 L 207.4,97.2 L 207.4,97.3 L 207.7,98.1 L 207.9,98.1 L 208.1,98.2 L 208.5,98.2 L 208.7,98.1 L 209.0,98.0 L 209.6,97.7 L 209.7,97.5 L 209.8,97.4 L 210.1,97.4 L 210.4,97.1 L 210.6,97.1 L 211.6,96.6 L 211.9,96.4 L 212.1,96.4 L 213.6,95.5 L 213.6,95.1 L 213.3,95.0 L 213.2,94.9 L 213.3,94.7 L 213.1,94.5 L 212.4,94.5 L 212.2,94.3 L 212.5,93.9 L 212.6,93.6 L 212.7,93.4 L 213.1,93.3 L 214.5,93.1 L 214.9,93.2 L 215.0,93.3 L 214.9,93.5 L 213.7,94.1 L 213.7,94.3 L 213.9,94.4 L 214.0,94.4 L 214.6,94.1 L 215.5,93.4 L 215.7,93.1 L 215.7,93.0 L 215.5,92.8 L 215.6,92.6 L 215.4,92.5 L 215.4,92.3 L 215.0,92.2 L 214.8,91.9 L 214.8,91.5 L 215.1,91.2 L 215.3,90.9 L 215.4,90.7 L 215.4,90.6 L 214.8,90.4 L 214.7,90.3 L 216.8,90.1 L 216.9,90.1 L 216.9,90.1 L 216.9,91.5 L 217.0,91.7 L 217.2,92.0 L 217.3,92.4 L 217.1,92.6 L 217.1,92.9 L 217.1,93.1 L 217.1,93.6 L 217.0,94.2 L 217.0,94.3 L 217.1,94.6 L 217.3,94.7 L 217.6,94.9 L 217.8,94.9 L 218.1,94.8 L 218.5,94.6 L 218.6,94.3 L 218.8,94.2 L 219.0,94.2 L 219.2,94.8 L 219.3,95.0 L 219.8,94.9 L 220.0,94.7 L 220.2,94.3 L 220.2,94.1 L 220.3,94.0 L 220.5,93.8 L 220.8,93.6 L 220.9,93.3 L 220.8,93.3 L 220.5,93.4 L 220.3,93.4 L 220.3,93.2 L 220.4,93.0 L 220.9,92.4 L 221.2,92.0 L 221.4,91.9 L 222.1,91.8 L 222.3,91.8 L 222.6,91.6 L 222.9,91.7 L 223.4,91.3 L 223.6,91.2 L 223.7,91.2 L 223.9,91.2 L 223.9,91.4 L 223.5,91.7 L 223.5,92.0 L 223.6,92.2 L 223.5,92.4 L 223.5,92.5 L 223.7,92.4 L 223.7,92.2 L 223.9,92.3 L 223.9,92.5 L 224.1,92.4 L 224.1,92.4 L 224.2,92.4 L 224.4,92.7 L 224.5,92.7 L 224.6,92.9 L 224.8,92.9 L 225.2,92.6 L 226.1,92.2 L 226.1,92.2 L 226.3,92.1 L 226.6,92.1 L 228.0,91.5 L 228.1,91.4 L 228.3,91.4 L 228.5,91.3 L 228.8,91.3 L 228.9,91.2 L 228.9,91.1 L 229.5,90.8 L 229.6,90.6 L 229.8,90.5 L 229.8,90.3 L 230.0,90.1 L 230.0,89.9 L 229.8,89.8 L 229.7,89.6 L 229.7,89.3 L 230.2,89.1 L 231.2,89.2 L 231.3,89.3 L 231.2,89.5 L 230.9,89.8 L 230.9,89.9 L 230.9,90.0 L 231.1,90.0 L 231.2,89.9 L 231.4,89.7 L 231.6,89.7 L 231.8,89.7 L 231.9,89.6 L 232.2,89.1 L 232.4,88.8 L 232.3,88.7 L 232.2,88.7 L 232.3,88.6 L 232.4,88.4 L 232.7,87.8 L 232.7,87.6 L 232.5,87.3 L 232.3,87.4 L 232.2,87.1 L 232.4,86.9 L 232.9,86.4 L 233.1,86.5 L 233.1,86.4 L 233.4,86.2 L 233.9,86.0 L 234.7,85.3 L 234.7,85.2 L 234.5,85.1 L 234.1,85.2 L 233.9,85.2 L 233.8,85.0 L 233.9,84.9 L 234.3,84.8 L 234.7,84.5 L 234.8,84.3 L 234.7,84.2 L 234.3,84.3 L 234.1,84.5 L 233.9,84.5 L 233.6,84.6 L 233.2,84.8 L 232.8,84.9 L 232.4,85.2 L 232.2,85.3 L 232.0,85.4 L 231.7,85.6 L 231.4,85.7 L 231.1,85.8 L 230.7,86.1 L 230.3,86.2 L 230.1,86.2 L 229.5,86.5 L 228.7,87.1 L 228.1,87.3 L 226.7,88.3 L 226.4,88.3 L 226.2,88.4 L 225.5,88.4 L 225.1,88.5 L 224.5,88.8 L 224.2,88.9 L 224.0,89.0 L 223.8,88.8 L 223.8,88.6 L 224.0,88.4 L 224.3,88.3 L 224.5,88.0 L 224.8,87.8 L 225.2,87.4 L 225.6,87.2 L 225.8,86.9 L 225.9,86.7 L 226.0,86.4 L 226.0,86.0 L 225.9,85.9 L 225.9,85.7 L 225.9,85.4 L 226.3,85.1 L 226.4,84.8 L 226.5,84.4 L 226.7,84.3 L 227.1,84.2 L 227.6,83.8 L 227.8,83.8 L 228.0,83.6 L 228.2,83.3 L 228.3,83.2 L 228.5,83.2 L 228.9,82.9 L 229.2,82.8 L 229.4,82.9 L 229.6,83.1 L 229.8,83.1 L 230.0,83.2 L 230.3,83.2 L 230.8,83.1 L 231.1,83.1 L 231.3,83.4 L 231.4,83.4 L 231.7,83.2 L 232.2,83.2 L 233.2,82.4 L 233.4,82.4 L 233.4,82.3 L 233.5,82.1 L 233.9,81.7 L 234.0,81.5 L 233.8,81.1 L 233.9,81.0 L 234.0,80.9 L 235.8,80.3 L 235.9,80.2 L 236.4,80.2 L 236.9,79.9 L 237.4,80.0 L 237.6,79.8 L 237.9,79.6 L 238.6,79.0 L 238.6,78.9 L 238.5,78.7 L 238.4,78.6 L 238.4,78.5 L 238.6,78.5 L 238.8,78.5 L 238.8,78.4 L 238.7,78.3 L 238.7,78.1 L 238.7,78.0 L 238.3,78.1 L 238.0,78.3 L 238.0,78.9 L 237.9,79.0 L 236.9,79.4 L 236.7,79.4 L 236.8,79.2 L 237.1,78.9 L 237.3,78.3 L 237.7,78.1 L 238.0,77.8 L 238.3,77.2 L 238.5,76.8 L 238.6,76.6 L 238.6,76.3 L 238.6,75.7 L 238.6,75.6 L 238.8,75.4 L 239.1,75.3 L 239.4,74.7 L 239.8,74.4 L 240.0,74.3 L 240.0,74.1 L 239.8,74.0 L 239.5,74.2 L 239.2,74.1 L 239.2,73.7 L 239.6,73.5 L 239.7,73.3 L 239.7,73.1 L 239.5,73.1 L 239.1,73.2 L 238.7,73.3 L 238.0,73.4 L 237.6,73.4 L 237.1,73.3 L 236.9,73.1 L 236.8,72.8 L 236.8,72.4 L 237.3,72.2 L 237.6,72.0 L 238.0,71.8 L 238.3,71.6 L 238.8,71.4 L 239.0,71.2 L 239.1,70.9 L 238.9,70.9 L 238.4,71.2 L 238.1,71.3 L 237.9,71.2 L 237.7,71.1 L 237.6,71.0 L 238.7,70.1 L 238.8,69.8 L 238.9,69.6 L 238.7,69.6 L 238.6,69.7 L 238.5,69.6 L 238.4,69.5 L 238.6,69.1 L 238.6,68.7 L 238.7,68.4 L 239.0,68.2 L 239.2,67.9 L 239.1,67.8 L 238.9,67.9 L 238.9,67.8 L 238.9,67.5 L 239.2,67.3 L 239.4,67.1 L 239.5,66.9 L 239.3,66.9 L 239.3,66.8 L 239.4,66.6 L 239.2,66.4 L 239.3,66.1 L 239.4,65.9 L 239.5,65.5 L 239.4,65.4 L 239.5,65.1 L 239.8,64.9 L 240.1,64.3 L 240.5,63.8 L 240.6,63.8 L 240.5,63.5 L 240.7,63.2 L 240.6,63.0 L 240.5,62.8 L 240.3,63.0 L 240.2,63.0 L 240.0,63.0 L 239.7,63.0 L 239.6,63.0 L 239.5,62.9 L 239.5,62.8 L 239.7,62.5 L 239.8,62.3 L 240.0,62.2 L 240.0,62.0 L 239.7,62.0 L 239.4,62.3 L 239.1,62.3 L 238.9,62.4 L 238.9,62.3 L 238.9,62.1 L 238.6,61.8 L 239.0,61.4 L 239.1,61.2 L 239.0,61.1 L 238.9,61.0 L 239.2,60.6 L 239.4,60.5 L 239.5,60.6 L 239.5,60.7 L 239.7,60.7 L 239.7,60.5 L 239.7,60.4 L 239.9,60.2 L 240.4,60.4 L 241.1,60.4 L 241.5,60.2 L 241.7,60.1 L 242.2,59.3 L 242.5,58.7 L 242.7,58.3 L 242.9,58.2 L 243.1,58.1 L 243.3,57.8 L 243.5,57.8 L 243.6,57.7 L 243.8,57.4 L 243.9,57.2 L 243.9,57.0 L 243.9,56.9 L 243.8,56.5 L 243.7,56.5 L 243.4,56.9 L 243.2,56.8 L 243.0,56.4 L 242.8,56.4 L 242.6,56.3 L 242.6,55.8 L 242.8,55.2 L 242.9,55.1 L 243.4,54.5 L 243.3,54.2 L 243.4,54.1 L 243.7,53.9 L 243.9,53.8 L 244.0,53.7 L 244.2,53.8 L 244.2,54.0 L 244.3,54.2 L 244.6,54.4 L 244.9,54.6 L 245.0,54.5 L 245.1,54.4 L 245.2,54.1 L 245.2,53.8 L 245.3,53.5 L 245.4,53.1 L 245.4,52.8 L 245.5,52.6 L 245.6,52.4 L 245.7,52.1 L 245.8,52.0 L 245.7,52.0 L 245.6,51.7 L 245.4,51.5 L 245.1,51.1 L 245.0,50.6 L 244.9,50.3 L 244.7,50.4 L 244.7,50.3 L 244.8,50.1 L 244.7,49.8 L 244.8,49.8 L 245.0,49.9 L 245.2,49.9 L 245.3,49.9 L 245.3,49.6 L 245.4,49.5 L 245.6,49.6 L 246.0,49.2 L 246.1,49.1 L 246.1,49.1 L 246.3,48.9 L 246.6,49.1 L 246.9,49.0 L 247.2,49.1 L 247.6,49.3 L 247.5,49.0 L 247.5,48.8 L 247.7,48.6 L 248.2,48.6 L 248.8,48.3 L 248.9,48.3 L 249.0,48.4 L 249.1,48.4 L 249.2,48.3 L 249.3,48.4 L 249.4,48.6 L 249.5,49.1 L 249.7,49.0 L 250.0,48.8 L 250.3,48.9 L 250.4,49.0 L 250.4,49.0 L 250.6,49.0 L 251.0,48.8 L 251.4,48.9 L 251.7,48.7 L 251.9,48.3 L 252.0,48.0 L 252.9,47.4 L 253.5,47.3 L 253.9,47.0 L 254.5,46.8 L 255.2,46.7 L 255.6,46.3 L 256.0,45.8 L 256.2,45.7 L 256.5,45.5 L 256.5,45.2 L 256.7,45.0 L 257.0,44.9 L 257.3,44.8 L 257.5,44.5 L 257.4,44.3 L 257.6,43.9 L 257.9,43.6 L 258.2,43.5 L 258.5,43.3 L 258.9,43.2 L 259.2,43.3 L 259.6,43.1 L 259.9,43.1 L 260.1,43.3 L 260.3,43.3 L 260.5,43.1 L 260.7,42.9 L 260.9,42.6 L 261.5,42.4 L 261.7,42.3 L 262.2,42.1 L 262.6,41.9 L 263.2,41.5 L 264.0,41.0 L 264.8,40.5 L 265.3,40.3 L 265.4,40.2 L 266.0,40.0 L 266.2,40.3 L 266.2,40.4 L 266.7,41.4 L 266.9,41.4 L 267.1,41.6 L 267.2,41.6 L 267.2,41.7 L 267.2,41.9 L 267.0,42.5 L 267.0,42.6 L 266.6,43.5 L 266.2,43.9 L 265.9,43.9 L 265.9,44.0 L 266.0,44.1 L 266.0,44.2 L 265.8,44.3 L 264.8,44.6 L 262.8,45.7 L 262.5,45.9 L 261.0,46.4 L 260.2,46.5 L 259.2,47.0 L 258.9,47.3 L 258.7,47.6 L 258.5,48.5 L 258.4,49.6 L 258.5,49.9 L 258.6,50.1 L 258.9,50.2 L 259.0,50.6 L 259.2,50.7 L 259.3,50.7 L 259.5,50.6 L 259.7,50.8 L 259.8,50.9 L 259.7,51.1 L 259.9,51.2 L 259.9,51.3 L 260.2,51.1 L 260.6,51.1 L 260.9,51.2 L 260.9,51.4 L 260.9,51.7 L 260.7,52.1 L 260.5,52.4 L 259.7,52.9 L 259.5,53.6 L 259.0,54.2 L 258.8,54.5 L 258.8,54.8 L 258.7,55.5 L 258.8,55.9 L 258.8,57.0 L 258.8,57.1 L 258.8,57.8 L 258.7,58.6 L 258.8,59.8 L 258.8,60.2 L 258.6,60.6 L 258.6,61.0 L 258.5,61.2 L 258.4,61.6 L 258.5,61.8 L 258.6,61.7 L 258.7,61.7 L 258.7,61.9 L 258.8,62.2 L 258.9,62.4 L 259.0,62.4 L 259.1,62.5 L 259.7,62.7 L 260.3,63.8 L 260.3,64.1 L 260.0,64.4 L 260.0,64.6 L 260.1,64.7 L 260.5,64.5 L 260.5,64.6 L 260.3,65.0 L 260.9,65.1 L 260.9,65.6 L 261.4,66.2 L 261.6,66.6 L 261.6,66.9 L 261.9,67.2 L 261.9,67.7 L 261.6,68.2 L 261.6,68.4 L 261.9,68.4 L 261.9,68.3 L 262.0,68.3 L 262.2,68.9 L 262.5,69.3 L 262.5,69.8 L 262.6,69.8 L 262.8,69.6 L 262.9,69.6 L 263.3,69.8 L 263.5,70.5 L 263.6,70.7 L 263.7,70.6 L 263.7,70.4 L 264.1,70.0 L 264.3,69.2 L 264.4,69.1 L 264.6,69.3 L 264.8,69.5 L 264.7,69.9 L 264.5,70.2 L 264.4,70.3 L 264.4,70.5 L 264.5,70.7 L 264.4,70.9 L 264.4,71.0 L 264.4,71.6 L 264.3,71.9 L 264.9,71.8 L 265.2,71.9 L 265.4,72.1 L 264.8,72.4 L 264.8,72.4 L 264.8,72.5 L 253.1,96.9 L 251.0,101.3 L 251.0,101.3 L 250.8,101.4 L 250.6,101.5 L 250.3,101.8 L 250.0,102.2 L 249.9,102.6 L 250.1,102.7 L 250.3,102.9 L 250.2,103.0 L 250.1,103.3 L 250.3,104.1 L 250.3,104.3 L 250.2,104.4 L 250.1,104.2 L 250.0,104.2 L 250.0,104.5 L 249.7,104.6 L 249.5,104.9 L 249.5,106.8 L 249.6,106.9 L 249.7,107.2 L 249.8,107.8 L 249.6,107.9 L 249.6,108.2 L 249.7,108.4 L 249.5,109.6 L 249.5,109.6 L 249.3,110.4 L 249.2,111.4 L 249.1,111.8 L 249.0,112.4 L 248.8,112.8 L 248.7,112.8 L 248.3,114.0 L 248.3,114.0 L 248.2,114.0 L 248.1,114.2 L 248.1,114.2 L 248.2,114.3 L 248.1,114.6 L 248.0,115.2 L 247.7,115.4 L 247.6,115.8 L 247.5,116.1 L 247.4,116.2 L 247.3,116.1 L 247.0,116.6 L 246.7,116.8 L 246.4,117.2 L 246.1,117.9 L 246.0,118.1 L 245.9,120.1 L 246.0,120.8 L 245.9,122.0 L 246.0,123.4 L 245.9,123.5 L 245.8,123.7 L 245.5,124.0 L 245.3,124.2 L 245.1,125.1 L 244.8,125.5 L 244.9,125.9 L 244.7,127.2 L 244.5,128.5 L 244.3,129.1 L 244.2,129.4 L 244.1,129.7 L 243.9,130.4 L 243.6,130.8 L 243.3,131.3 L 243.1,131.9 L 242.8,132.2 L 242.7,132.5 L 242.8,132.9 L 242.7,133.5 L 242.2,134.8 L 241.6,135.8 L 240.9,136.4 L 240.7,136.7 L 240.5,137.1 L 239.8,137.9 L 239.6,138.2 L 239.5,138.5 L 239.4,138.6 L 239.1,139.0 L 238.8,139.3 L 238.6,139.8 L 238.3,140.0 L 237.8,140.8 L 237.5,141.2 L 237.2,141.6 L 236.8,141.8 L 236.3,142.2 L 236.1,142.5 L 236.0,142.6 L 235.9,143.0 L 235.7,143.3 L 235.1,144.2 L 234.5,145.6 L 233.9,147.3 L 233.7,147.8 L 233.5,148.4 L 233.0,149.2 L 232.8,149.6 L 232.6,150.0 L 232.5,150.5 L 232.4,151.2 L 232.3,151.5 L 231.5,153.3 L 231.0,154.1 L 230.8,154.5 L 230.4,155.1 L 230.3,155.6 L 230.1,155.9 L 229.7,156.5 L 229.4,156.7 L 229.1,157.1 L 228.8,157.6 L 227.8,157.9 L 227.6,158.2 L 227.3,158.5 L 227.2,159.3 L 227.0,159.8 L 226.9,160.0 L 226.6,160.2 L 226.3,160.3 L 226.1,160.7 L 225.7,161.4 L 225.2,161.9 L 225.0,162.4 L 224.9,162.6 L 224.6,162.6 L 224.4,162.5 L 224.4,162.3 L 224.5,162.1 L 224.6,162.1 L 224.7,161.9 L 224.6,161.8 L 224.4,161.8 L 224.1,162.1 L 224.2,162.3 L 224.0,162.4 L 223.8,162.4 L 223.5,162.7 L 223.3,163.0 L 222.9,164.3 L 222.4,165.1 L 222.3,165.7 L 222.8,166.1 L 222.8,166.3 L 222.7,166.8 L 222.4,167.6 L 221.9,168.2 L 221.7,169.2 L 221.6,169.4 L 221.5,169.7 L 221.4,169.9 L 221.3,170.2 L 221.2,170.7 L 221.1,171.4 L 220.9,171.8 L 220.8,172.4 L 220.7,172.7 L 220.6,173.0 L 220.4,173.9 L 220.4,174.6 L 220.4,174.8 L 220.3,175.2 L 220.2,175.6 L 220.0,175.7 L 219.9,175.8 L 219.7,175.9 L 219.2,176.5 L 219.1,176.8 L 218.9,177.1 L 218.6,177.4 L 218.5,177.7 L 217.3,178.8 L 216.6,179.7 L 216.0,180.2 L 215.5,181.0 L 215.3,181.4 L 215.1,182.3 L 215.2,182.6 L 215.3,182.8 L 215.2,182.9 L 215.0,182.8 L 214.8,182.9 L 214.5,183.2 L 214.6,183.5 L 214.6,183.7 L 214.4,183.6 L 214.0,183.9 L 214.0,184.2 L 214.1,184.4 L 214.1,184.5 L 214.2,185.1 L 214.4,185.3 L 214.7,185.3 L 214.8,185.1 L 215.1,185.2 L 215.1,185.3 L 215.0,185.4 L 215.5,185.9 L 215.6,186.1 L 215.4,186.7 L 215.3,187.2 L 215.1,187.4 L 214.7,188.3 L 214.6,188.6 L 214.5,189.1 L 214.4,189.6 L 214.3,190.3 L 214.3,190.6 L 214.3,190.8 L 214.5,191.2 L 214.4,192.6 L 214.6,192.9 L 214.6,193.1 L 214.3,193.4 L 214.4,193.7 L 214.3,194.0 L 214.1,194.3 L 214.0,194.6 L 214.0,195.0 L 213.8,195.3 L 213.5,195.6 L 213.2,195.6 L 213.0,195.7 L 212.9,196.0 L 213.1,196.2 L 213.1,196.5 L 212.9,197.1 L 212.1,198.2 L 212.1,198.5 L 212.0,198.6 L 211.8,198.7 L 211.5,199.1 L 210.7,199.8 L 210.1,200.0 L 209.9,200.2 L 209.7,200.6 L 209.4,200.9 L 209.3,201.2 L 208.6,201.5 L 208.3,201.9 L 208.1,202.2 L 207.8,202.8 L 207.5,203.2 L 207.3,203.6 L 207.2,204.2 L 206.8,204.4 L 206.8,204.7 L 206.6,204.8 L 206.4,205.2 L 206.3,205.6 L 206.5,205.9 L 206.5,206.1 L 206.3,206.3 L 206.4,206.6 L 206.1,206.9 L 205.9,207.3 L 205.9,207.6 L 205.9,208.0 L 205.9,208.0 L 206.0,208.1 L 206.0,208.4 L 205.9,208.5 L 205.6,208.7 L 205.6,209.0 L 205.7,209.2 L 205.7,209.9 L 205.5,210.1 L 205.5,210.5 L 205.4,210.6 L 205.3,210.7 L 205.1,210.8 L 204.9,211.1 L 204.7,211.6 L 204.5,212.2 L 204.5,212.6 L 204.4,213.0 L 204.2,214.1 L 204.6,214.5 L 203.9,216.2 L 203.7,216.8 L 203.2,217.1 L 203.0,217.3 L 202.5,217.8 L 202.4,218.8 L 202.4,219.5 L 202.5,219.7 L 202.5,220.2 L 202.2,220.9 L 201.9,221.1 L 201.7,221.7 L 201.5,221.8 L 200.9,222.4 L 200.6,223.1 L 200.8,223.6 L 200.7,223.9 L 200.5,224.3 L 200.5,224.7 L 200.4,225.0 L 200.3,225.2 L 200.0,224.9 L 199.9,225.0 L 199.9,225.2 L 200.0,225.5 L 199.9,225.7 L 199.8,225.8 L 199.5,226.0 L 199.4,226.3 L 199.1,226.8 L 199.0,227.0 L 199.0,227.3 L 198.6,227.6 L 198.6,227.9 L 198.1,228.4 L 198.1,228.7 L 197.8,229.0 L 197.6,229.5 L 197.5,230.2 L 197.5,230.8 L 197.7,231.2 L 197.6,231.8 L 197.2,232.4 L 196.9,232.6 L 196.9,232.8 L 196.8,233.0 L 196.6,233.3 L 196.5,233.4 L 196.2,233.5 L 195.9,233.3 L 195.7,233.4 L 195.5,234.1 L 195.1,234.7 L 195.1,235.2 L 195.1,235.4 L 195.4,235.5 L 195.6,235.6 L 196.2,236.5 L 196.2,236.8 L 196.0,237.6 L 195.7,238.3 L 195.5,238.5 L 195.3,238.7 L 195.3,238.8 L 195.1,239.1 L 194.8,239.5 L 194.7,239.9 L 194.6,240.2 L 194.8,240.7 L 194.8,241.0 L 194.8,241.1 L 194.6,241.2 L 194.4,241.7 L 194.3,242.6 L 194.4,242.8 L 194.7,242.9 L 195.0,243.1 L 195.1,243.4 L 195.1,244.1 L 195.0,244.8 L 194.9,245.0 L 194.9,245.4 L 194.8,245.9 L 194.7,246.6 L 194.7,246.7 L 194.6,247.3 L 194.4,247.5 L 194.3,247.9 L 194.2,248.0 L 194.1,248.4 L 193.9,248.6 L 193.7,249.2 L 193.6,249.4 L 193.3,249.3 L 193.1,249.5 L 192.9,249.9 L 192.9,250.3 L 192.9,250.5 L 193.0,250.9 L 193.0,250.9 L 193.0,251.0 L 193.1,251.1 L 193.1,251.4 L 192.9,251.7 L 193.1,252.2 L 193.1,253.0 L 193.2,253.2 L 193.4,254.4 L 193.5,255.0 L 193.6,255.8 L 194.0,256.4 L 193.9,257.0 L 193.8,257.5 L 193.5,257.7 L 193.4,258.1 L 193.3,258.4 L 193.2,258.9 L 193.1,259.2 L 193.0,259.7 L 192.9,260.2 L 192.9,260.4 L 192.7,260.5 L 192.7,260.7 L 192.6,260.9 L 192.5,261.1 L 192.7,261.3 L 192.7,261.6 L 192.7,262.3 L 193.0,262.8 L 193.2,262.9 L 193.4,263.1 L 193.5,263.6 L 193.7,264.4 L 194.2,265.3 L 194.8,265.8 L 195.0,266.2 L 195.2,266.7 L 195.2,267.3 L 195.1,268.6 L 195.1,268.9 L 195.0,269.1 L 195.1,269.5 L 195.1,269.9 L 195.3,270.5 L 195.2,270.7 L 195.4,270.9 L 195.6,270.8 L 196.1,271.1 L 196.6,271.3 L 197.0,271.5 L 197.5,271.8 L 197.7,272.1 L 197.8,272.4 L 198.0,272.7 L 198.2,273.1 L 198.4,273.2 L 198.6,273.2 L 198.6,273.3 L 198.2,274.6 L 198.1,275.3 L 198.1,275.5 L 197.9,276.1 L 197.8,276.4 L 197.7,276.6 L 197.4,277.1 L 197.5,277.4 L 197.4,277.8 L 197.3,277.9 L 196.9,278.2 L 196.7,278.4 L 196.6,279.1 L 196.5,279.3 L 196.3,279.3 L 196.2,279.4 L 196.4,279.7 L 196.3,280.7 L 196.2,281.3 L 196.1,281.6 L 196.0,281.8 L 195.6,281.7 L 195.6,281.9 L 195.7,282.0 L 195.5,282.5 L 195.4,283.0 L 195.1,283.3 L 195.0,283.4 L 194.9,283.6 L 195.0,284.6 L 195.0,285.1 L 194.9,285.5 L 194.8,285.8 L 194.7,286.3 L 194.6,286.8 L 194.7,288.3 L 194.8,289.6 L 195.1,290.1 L 195.3,290.6 L 195.6,291.4 L 195.6,291.9 L 195.7,292.1 L 196.0,292.3 L 196.4,292.6 L 197.6,293.8 L 198.1,294.0 L 198.3,294.2 L 198.4,294.3 L 198.6,294.4 L 199.0,294.9 L 199.2,295.2 L 199.5,296.1 L 199.7,296.5 L 199.8,296.8 L 199.8,296.9 L 199.9,297.0 L 200.0,297.2 L 199.9,297.4 L 199.9,297.6 L 200.4,298.0 L 200.7,298.1 L 201.2,298.3 L 201.5,298.7 L 201.6,298.7 L 201.8,298.9 L 201.9,299.3 L 202.1,299.5 L 202.1,299.8 L 202.1,299.9 L 201.9,299.8 L 201.8,299.9 L 201.9,300.2 L 201.9,300.3 L 202.0,300.4 L 202.0,300.5 L 201.9,300.6 L 201.9,300.6 L 201.8,300.9 L 201.8,300.9 L 201.7,301.4 L 201.6,301.7 L 201.5,301.9 L 201.3,301.9 L 201.3,302.0 L 201.4,302.5 L 201.5,302.8 L 201.4,302.9 L 201.4,303.1 L 201.2,303.3 L 201.1,303.3 L 201.0,303.4 L 201.1,303.7 L 201.2,304.2 L 201.7,304.8 L 201.7,304.8 L 201.7,305.2 L 201.7,305.5 L 201.9,305.8 L 201.9,306.0 L 201.8,306.2 L 201.6,306.2 L 201.5,306.3 L 201.4,306.5 L 201.3,306.6 L 201.3,307.0 L 201.2,307.8 L 201.1,308.1 L 201.0,308.5 L 201.2,309.2 L 201.8,310.2 L 202.0,311.4 L 202.0,312.3 L 202.1,312.6 L 202.0,313.0 L 202.2,313.3 L 202.2,313.5 L 202.0,313.8 L 202.0,314.0 L 202.2,314.3 L 202.3,314.7 L 202.8,315.1 L 203.0,315.5 L 203.2,315.8 L 203.1,316.0 L 202.8,316.2 L 202.9,317.2 L 203.4,317.8 L 203.4,318.2 L 203.3,319.1 L 203.3,319.7 L 203.5,320.2 L 203.5,320.7 L 203.3,321.1 L 203.3,321.5 L 203.8,322.5 L 204.2,322.9 L 204.5,323.0 L 204.7,323.3 L 204.9,323.6 L 204.9,323.9 L 204.8,324.1 L 204.7,324.4 L 204.5,324.6 L 204.5,325.2 L 204.6,325.4 L 204.6,325.6 L 205.2,326.7 L 205.1,326.9 L 205.1,327.3 L 205.5,327.8 L 205.9,328.2 L 205.9,328.5 L 206.0,328.7 L 206.0,329.1 L 206.1,329.3 L 206.1,329.7 L 206.3,330.0 L 206.4,330.3 L 206.2,330.6 L 206.2,331.1 L 206.3,331.6 L 206.6,331.9 L 206.7,332.1 L 207.0,332.7 L 207.0,333.1 L 207.2,333.5 L 207.2,333.6 L 207.5,333.9 L 207.9,334.3 L 208.6,334.5 L 208.8,334.7 L 208.9,335.5 L 209.1,335.9 L 209.6,336.6 L 209.9,336.6 L 210.0,336.7 L 210.1,336.7 L 210.2,336.5 L 210.1,336.2 L 210.0,336.1 L 209.9,336.1 L 209.8,336.1 L 209.9,335.8 L 210.3,335.4 L 210.5,335.1 L 210.7,334.8 L 210.7,334.1 L 210.8,333.9 L 210.9,333.8 L 210.9,332.8 L 210.9,332.5 L 210.9,332.4 L 211.1,332.3 L 211.6,332.4 L 212.0,332.2 L 212.1,332.3 L 212.4,331.9 L 212.7,331.4 L 212.8,330.3 L 213.0,329.9 L 213.3,329.5 L 213.6,329.3 L 213.6,329.1 L 213.8,328.8 L 213.8,328.5 L 214.0,328.3 L 214.0,328.1 L 214.2,327.7 L 214.4,327.2 L 214.4,327.0 L 214.3,327.0 L 214.2,326.6 L 214.3,325.8 L 214.8,324.4 L 215.0,324.1 L 215.1,323.9 L 215.1,323.3 L 215.2,323.0 L 215.4,322.5 L 215.4,322.1 L 215.8,321.6 L 216.0,321.2 L 216.0,320.5 L 216.0,319.9 L 216.0,319.3 L 215.9,318.6 L 216.0,318.0 L 216.1,317.6 L 216.2,317.2 L 216.6,316.4 L 216.7,316.3 L 217.3,315.5 L 217.8,315.0 L 218.6,314.3 L 218.8,314.0 L 218.8,313.5 L 219.2,313.1 L 219.2,312.6 L 219.6,312.0 L 219.7,312.0 L 220.0,312.0 L 220.3,312.2 L 220.5,312.4 L 220.7,312.4 L 221.1,312.1 L 221.6,312.0 L 222.5,311.9 L 223.2,311.5 L 223.4,311.4 L 223.8,311.1 L 224.2,311.2 L 224.6,310.7 L 225.0,310.4 L 225.4,310.3 L 225.9,310.3 L 226.1,310.2 L 226.4,310.1 L 226.5,309.8 L 227.1,309.6 L 227.2,309.4 L 227.3,309.2 L 227.5,309.0 L 227.9,308.8 L 228.2,308.5 L 228.6,308.0 L 228.6,307.8 L 228.6,307.4 L 228.6,307.2 L 228.6,307.1 L 228.8,307.1 L 228.8,307.1 L 228.8,306.9 L 229.1,306.5 L 229.4,306.2 L 229.4,306.2 L 229.6,306.1 L 229.8,306.0 L 229.9,306.1 L 230.1,306.3 L 230.2,306.3 L 230.3,306.5 L 230.3,306.5 L 230.2,306.7 L 230.1,307.0 L 229.9,307.4 L 229.4,307.7 L 229.0,308.4 L 228.8,308.4 L 228.6,308.7 L 228.4,308.9 L 228.1,309.1 L 228.1,309.4 L 227.8,309.9 L 227.3,311.0 L 227.2,311.4 L 227.1,311.6 L 226.7,312.3 L 226.5,312.8 L 226.4,313.3 L 226.5,313.6 L 226.7,314.3 L 226.8,314.8 L 226.7,314.9 L 226.6,315.0 L 226.7,315.2 L 226.6,315.4 L 226.5,315.6 L 226.3,315.9 L 226.1,316.1 L 225.0,317.1 L 223.5,318.2 L 222.9,318.6 L 222.6,318.6 L 222.4,318.3 L 222.3,318.1 L 222.1,317.9 L 221.4,317.4 L 221.3,317.2 L 220.7,317.2 L 220.4,317.2 L 220.3,317.1 L 220.8,316.2 L 220.9,315.8 L 220.8,315.6 L 220.4,315.5 L 219.9,315.6 L 219.6,315.7 L 219.4,315.9 L 219.2,316.1 L 219.1,316.0 L 218.7,315.9 L 218.6,315.9 L 218.5,316.0 L 218.3,316.3 L 218.2,316.4 L 218.1,316.3 L 218.0,316.4 L 217.9,316.4 L 218.0,316.6 L 218.0,316.8 L 217.5,317.3 L 217.3,317.6 L 217.4,317.9 L 217.6,318.4 L 217.7,319.0 L 218.0,319.2 L 218.4,319.4 L 218.6,319.4 L 218.8,319.1 L 218.9,318.7 L 219.1,318.5 L 219.2,318.6 L 219.2,319.3 L 219.3,319.5 L 219.4,319.6 L 219.4,319.8 L 219.7,319.8 L 219.8,319.9 L 220.2,319.9 L 220.7,320.0 L 220.6,320.2 L 219.9,321.1 L 219.7,321.4 L 219.6,322.1 L 219.1,322.8 L 218.4,323.5 L 218.2,323.9 L 218.0,324.3 L 217.6,325.8 L 217.0,326.8 L 216.9,327.3 L 217.0,327.6 L 216.8,328.1 L 216.2,328.4 L 215.9,329.6 L 215.6,331.5 L 215.3,332.8 L 215.0,333.5 L 214.8,334.0 L 214.9,334.5 L 215.0,334.8 L 215.0,335.5 L 215.3,335.9 L 215.3,336.1 L 215.3,336.4 L 215.4,336.5 L 215.7,337.1 L 215.8,337.4 L 215.7,337.5 L 215.9,338.0 L 216.0,338.0 L 215.8,338.4 L 215.7,338.6 L 215.5,339.6 L 215.4,339.9 L 215.3,340.2 L 215.5,340.4 L 215.4,341.0 L 215.3,341.2 L 215.1,341.9 L 214.9,342.0 L 214.9,342.2 L 215.1,342.2 L 215.1,342.4 L 215.2,343.2 L 215.2,343.8 L 215.2,344.4 L 215.2,344.5 L 215.1,344.9 L 215.1,345.2 L 215.2,345.4 L 215.2,345.5 L 215.2,345.7 L 215.2,345.9 L 215.2,345.9 L 214.7,346.0 L 214.6,346.0 L 214.4,345.6 L 214.3,345.1 L 214.1,345.0 L 213.8,345.0 L 213.9,344.6 L 214.1,344.6 L 214.1,344.4 L 214.1,344.2 L 213.8,344.2 L 212.9,344.2 L 212.6,344.2 L 212.6,344.3 L 212.6,344.6 L 212.7,344.8 L 212.8,344.9 L 212.8,345.1 L 212.7,345.3 L 212.7,345.4 L 212.8,345.6 L 212.9,345.8 L 213.0,345.9 L 213.1,345.9 L 213.1,346.1 L 213.3,346.2 L 213.2,346.3 L 212.9,346.7 L 212.8,346.7 L 212.3,346.9 L 212.0,347.1 L 211.5,347.5 L 211.3,347.8 L 211.3,348.0 L 211.3,348.2 L 211.3,348.5 L 211.8,349.2 L 211.9,349.4 L 212.4,350.1 L 212.7,350.7 L 213.0,351.0 L 213.1,351.3 L 213.3,351.6 L 213.3,351.8 L 213.3,352.0 L 213.3,352.5 L 213.2,352.5 L 213.2,353.1 L 213.2,353.2 L 213.3,353.6 L 213.3,353.6 L 203.5,357.9 L 198.7,360.0 L 198.6,359.8 L 198.5,359.3 L 198.6,358.8 L 198.5,358.6 L 198.5,357.8 L 198.4,357.1 L 198.1,356.4 L 197.5,355.3 L 197.1,354.8 L 196.6,354.3 L 196.5,354.1 L 196.4,353.9 L 196.3,353.8 L 195.9,354.1 L 195.7,354.3 L 195.6,354.1 L 195.4,354.2 L 195.5,354.3 L 195.4,354.3 L 195.0,354.1 L 194.2,354.1 L 193.8,354.1 L 193.4,353.9 L 193.3,354.0 L 193.3,354.1 L 193.2,354.2 L 192.9,354.1 L 192.6,354.1 L 192.5,354.0 L 192.3,354.1 L 191.9,354.1 L 191.8,354.1 L 191.6,354.4 L 191.4,354.4 L 190.0,353.4 L 189.4,353.2 L 189.2,352.9 L 188.6,352.1 L 188.4,351.9 L 188.1,351.7 L 187.7,351.6 L 187.6,351.5 L 187.2,351.5 L 186.6,351.2 L 185.9,350.8 L 185.7,350.7 L 185.6,350.5 L 185.4,350.4 L 185.1,350.5 L 185.1,350.7 L 185.4,350.8 L 185.4,350.9 L 185.1,351.2 L 184.9,351.5 L 184.9,351.9 L 185.0,352.4 L 185.5,353.1 L 185.6,353.2 L 185.9,353.3 L 186.1,353.5 L 186.3,353.6 L 186.4,353.8 L 186.8,353.9 L 187.0,354.1 L 186.9,354.4 L 187.3,354.7 L 189.0,355.4 L 189.5,355.3 L 189.9,355.4 L 190.0,355.5 L 190.5,356.7 L 190.7,357.1 L 191.3,357.6 L 191.4,357.9 L 191.3,358.0 L 190.8,358.0 L 190.3,357.7 L 189.7,357.4 L 188.5,356.8 L 188.1,356.7 L 187.1,356.2 L 186.7,355.8 L 186.6,355.9 L 186.6,355.9 L 187.0,356.9 L 187.1,357.1 L 187.2,357.3 L 187.3,357.5 L 187.6,358.0 L 187.6,358.3 L 188.1,359.1 L 188.4,359.3 L 188.7,359.4 L 188.8,359.5 L 188.8,359.8 L 188.5,359.9 L 188.2,359.9 L 187.9,359.8 L 187.1,359.4 L 186.6,359.1 L 186.1,358.8 L 185.5,358.7 L 184.8,358.3 L 184.5,358.2 L 184.4,358.3 L 184.5,358.5 L 183.3,358.5 L 183.0,358.2 L 182.8,357.8 L 182.5,357.7 L 182.0,357.1 L 181.8,357.2 L 181.5,357.1 L 181.3,356.8 L 181.2,356.6 L 181.2,356.5 L 181.3,356.3 L 181.2,356.1 L 181.1,355.9 L 181.0,355.8 L 180.7,355.7 L 180.4,355.5 L 179.9,354.8 L 179.8,354.3 L 179.4,353.8 L 179.2,353.3 L 179.3,352.7 L 179.4,352.6 L 179.7,352.6 L 179.9,352.8 L 180.0,353.1 L 180.2,353.3 L 180.5,353.3 L 180.5,353.2 L 180.6,352.8 L 180.3,352.5 L 179.7,352.1 L 179.7,351.6 L 179.6,351.3 L 179.6,351.1 L 179.8,351.0 L 180.0,351.1 L 180.7,351.7 L 181.0,351.7 L 181.3,351.5 L 181.4,351.5 L 181.9,351.8 L 182.5,352.2 L 183.1,352.4 L 183.5,352.5 L 183.7,352.5 L 183.7,352.4 L 183.6,352.2 L 183.8,352.0 L 183.6,351.8 L 182.2,350.9 L 182.0,350.7 L 181.9,350.5 L 181.8,350.2 L 181.5,349.9 L 180.7,349.4 L 180.6,349.2 L 180.2,349.1 L 180.0,348.6 L 179.8,348.4 L 179.7,348.1 L 179.5,348.0 L 178.9,347.9 L 178.7,347.7 L 178.8,347.4 L 178.7,347.2 L 178.7,347.2 L 178.7,347.2 L 178.5,347.2 L 178.3,347.2 L 178.2,347.2 L 178.1,347.1 L 178.1,347.2 L 178.0,347.3 L 178.0,347.5 L 177.7,347.5 L 177.4,347.1 L 177.2,346.8 L 177.0,346.6 L 176.7,346.1 L 176.1,345.7 L 176.0,345.6 L 175.4,344.7 L 175.1,344.6 L 174.5,344.1 L 173.8,343.4 L 173.7,343.2 L 173.6,343.0 L 173.4,342.6 L 173.2,342.2 L 172.7,341.7 L 171.5,340.7 L 171.1,340.4 L 170.7,340.2 L 170.3,340.2 L 169.9,340.3 L 169.6,340.7 L 169.5,340.7 L 169.2,340.4 L 168.8,340.2 L 168.6,340.0 L 168.5,339.7 L 168.4,339.0 L 168.5,338.9 L 168.5,338.8 L 168.1,338.6 L 167.9,338.3 L 167.8,337.7 L 167.3,336.9 L 167.5,336.5 L 167.3,336.1 L 167.3,335.8 L 167.1,335.5 L 167.1,335.3 L 166.7,334.9 L 166.3,334.7 L 166.0,334.6 L 165.4,334.1 L 165.2,334.0 L 164.7,333.8 L 164.3,334.0 L 164.1,333.9 L 164.0,334.0 L 163.8,334.1 L 163.5,333.7 L 163.4,333.6 L 163.4,333.5 L 163.0,333.1 L 163.0,332.4 L 162.8,332.1 L 162.9,332.1 L 162.6,331.8 L 162.5,331.9 L 162.2,331.8 L 161.8,331.2 L 161.1,330.8 L 160.9,330.4 L 160.9,330.2 L 160.7,329.9 L 160.3,329.7 L 160.0,329.7 L 159.7,330.0 L 159.6,330.3 L 159.6,330.4 L 159.8,330.8 L 159.7,330.9 L 159.7,331.1 L 159.7,331.5 L 160.1,332.6 L 160.1,332.8 L 160.0,333.3 L 160.0,333.4 L 159.7,333.2 L 159.1,333.2 L 159.3,333.5 L 159.4,333.6 L 159.6,333.8 L 159.6,334.0 L 159.4,334.2 L 159.7,334.6 L 159.8,335.0 L 160.1,335.5 L 160.1,335.6 L 160.7,336.4 L 160.7,336.6 L 160.3,336.7 L 160.0,336.8 L 159.9,336.6 L 159.7,336.0 L 160.0,335.8 L 159.9,335.6 L 159.7,335.7 L 159.6,335.5 L 159.6,335.5 L 159.4,335.3 L 159.0,334.6 L 158.8,334.3 L 158.6,334.0 L 158.4,333.8 L 158.1,333.4 L 157.9,333.4 L 157.9,333.6 L 158.2,334.2 L 158.5,335.7 L 158.5,336.1 L 158.7,336.4 L 159.0,337.3 L 159.8,338.1 L 159.9,338.3 L 159.8,338.7 L 160.0,339.1 L 159.8,339.1 L 159.6,339.1 L 159.6,339.1 L 159.4,339.3 L 159.2,339.4 L 158.9,339.2 L 158.6,339.2 L 158.4,339.3 L 158.1,339.2 L 157.6,339.0 L 156.7,337.8 L 156.4,337.6 L 156.2,337.4 L 156.1,336.9 L 156.1,336.7 L 156.5,336.3 L 156.6,336.1 L 156.6,336.0 L 156.6,335.9 L 156.4,335.7 L 156.3,335.6 L 156.2,335.6 L 156.2,335.4 L 156.5,335.1 L 156.5,335.0 L 156.4,335.0 L 156.3,335.0 L 156.2,335.2 L 156.1,335.1 L 155.9,335.0 L 155.8,334.9 L 155.8,334.9 L 155.6,335.0 L 155.4,335.0 L 155.1,335.0 L 155.1,335.0 L 155.1,334.9 L 155.3,334.8 L 155.4,334.8 L 155.5,334.8 L 155.6,334.5 L 155.7,334.2 L 155.6,334.1 L 155.5,334.0 L 155.3,333.9 L 155.2,333.7 L 155.2,333.5 L 155.2,333.0 L 155.2,332.9 L 155.0,332.8 L 155.3,332.7 L 155.2,332.5 L 154.9,332.7 L 154.6,332.6 L 154.5,332.5 L 154.4,332.2 L 154.4,332.0 L 154.3,331.6 L 154.0,330.9 L 153.9,330.5 L 153.7,330.2 L 153.6,330.2 L 153.5,330.1 L 153.4,329.9 L 153.4,329.9 L 153.0,329.8 L 152.8,329.6 L 152.7,329.2 L 152.6,329.0 L 152.4,328.7 L 152.0,327.8 L 152.0,327.5 L 151.7,327.1 L 151.6,326.7 L 151.5,326.3 L 151.4,326.2 L 151.2,325.9 L 151.2,325.5 L 151.3,325.2 L 151.3,324.8 L 151.1,324.3 L 150.8,324.1 L 150.4,323.9 L 150.2,323.6 L 150.2,323.4 L 150.0,323.0 L 149.8,322.6 L 149.7,322.1 L 149.6,321.8 L 149.7,321.5 L 149.9,321.3 L 150.0,321.3 L 150.3,320.9 L 150.7,320.6 L 150.8,320.5 L 150.8,320.2 L 150.8,319.7 L 150.6,319.5 L 150.5,319.4 L 150.4,318.7 L 150.3,318.4 L 150.0,318.1 L 150.0,317.9 L 149.8,317.6 L 149.7,317.5 L 149.5,317.5 L 149.4,317.5 L 149.2,317.6 L 149.0,318.0 L 149.0,318.3 L 149.0,318.7 L 148.9,318.8 L 148.7,318.8 L 148.6,318.8 L 148.5,318.7 L 148.5,318.6 L 148.4,318.4 L 148.5,318.3 L 148.7,317.5 L 148.5,317.2 L 148.6,316.0 L 148.7,315.4 L 148.5,314.5 L 148.7,314.1 L 148.6,313.8 L 148.6,313.8 L 148.8,313.3 L 149.1,312.8 L 149.1,312.6 L 149.0,312.3 L 149.0,311.7 L 149.4,310.8 L 149.6,310.2 L 150.0,309.2 L 150.2,308.7 L 150.9,307.6 L 151.0,307.4 L 150.9,307.2 L 150.8,306.9 L 150.6,306.4 L 150.6,306.1 L 151.1,304.9 L 151.3,304.8 L 151.5,304.7 L 151.7,304.5 L 152.0,303.6 L 152.2,303.1 L 152.2,302.9 L 152.3,302.8 L 152.3,302.6 L 152.3,302.3 L 152.3,301.4 L 152.6,301.0 L 152.9,300.2 L 153.1,299.4 L 153.1,299.3 L 153.0,298.9 L 153.1,298.1 L 153.0,297.1 L 153.0,296.6 L 153.1,296.3 L 153.1,296.0 L 152.8,294.5 L 152.6,292.6 L 152.5,292.3 L 152.5,291.9 L 152.5,291.5 L 152.5,291.0 L 152.6,290.9 L 152.5,290.4 L 152.3,290.1 L 152.3,289.9 L 152.3,289.5 L 152.2,289.2 L 152.3,289.0 L 152.3,288.9 L 152.4,288.9 L 152.4,288.8 L 152.4,288.8 L 152.2,288.7 L 152.2,288.7 L 152.1,288.4 L 152.2,288.3 L 152.3,288.2 L 152.3,288.0 L 152.1,287.9 L 152.0,287.5 L 152.0,287.2 L 152.0,286.8 L 152.0,286.7 L 152.1,286.1 L 152.3,285.5 L 152.3,285.3 L 151.8,284.5 L 151.8,283.4 L 151.7,283.2 L 151.6,283.1 L 151.6,283.0 L 151.7,282.7 L 151.7,282.5 L 151.6,282.4 L 151.6,282.4 L 151.4,282.1 L 151.3,281.8 L 151.3,281.7 L 151.1,281.8 L 151.1,281.8 L 151.0,281.5 L 151.0,281.4 L 150.9,281.3 L 150.9,281.1 L 150.8,281.0 L 150.9,280.8 L 151.3,280.9 L 151.6,280.8 L 151.9,280.9 L 151.9,280.9 L 152.1,280.8 L 152.3,280.5 L 152.5,280.4 L 152.5,280.4 L 152.5,280.3 L 152.5,280.2 L 152.5,280.1 L 152.5,280.1 L 152.4,279.9 L 152.4,279.7 L 152.3,279.5 L 152.2,279.3 L 152.2,279.1 L 152.2,278.1 L 152.1,277.8 L 152.1,277.2 L 152.0,276.9 L 152.1,276.7 L 152.2,276.7 L 152.5,277.0 L 152.6,277.0 L 152.8,276.3 L 152.7,274.6 L 152.6,274.0 L 152.4,273.6 L 152.1,273.2 L 152.1,273.1 L 152.5,273.2 L 152.7,273.4 L 152.8,273.6 L 153.1,274.9 L 153.2,274.9 L 153.3,274.7 L 153.2,274.0 L 153.1,273.5 L 153.2,273.2 L 153.2,273.1 L 153.2,272.7 L 153.3,272.6 L 153.2,272.5 L 153.0,271.9 L 152.9,271.2 L 152.7,270.8 L 152.4,270.6 L 152.2,270.3 L 151.9,270.0 L 151.7,269.9 L 151.6,269.6 L 151.7,269.4 L 151.4,269.0 L 151.4,268.7 L 151.3,268.3 L 151.2,268.0 L 151.0,267.7 L 150.8,267.8 L 150.5,267.9 L 150.5,267.8 L 150.5,267.7 L 150.4,267.6 L 150.1,267.6 L 150.0,267.7 L 149.8,267.8 L 149.7,268.0 L 149.3,268.1 L 149.2,268.0 L 149.0,267.9 L 148.9,267.7 L 148.8,267.6 L 148.5,267.6 L 148.4,267.5 L 148.1,266.6 L 148.2,266.3 L 148.4,265.7 L 148.4,265.2 L 148.3,264.8 L 148.3,264.4 L 148.6,263.4 L 148.8,261.9 L 148.7,261.5 L 148.8,260.8 L 148.7,259.9 L 148.7,259.6 L 148.9,259.3 L 148.9,258.7 L 148.8,258.6 L 148.7,258.3 L 148.6,258.0 L 148.7,257.8 L 149.0,257.5 L 149.0,257.3 L 148.8,257.1 L 148.6,257.0 L 148.7,256.8 L 149.1,256.5 L 149.0,256.3 L 148.7,256.3 L 148.6,256.1 L 148.4,255.8 L 148.1,255.6 L 148.0,255.1 L 148.2,254.6 L 148.2,254.1 L 148.3,253.8 L 148.4,253.5 L 148.5,253.1 L 148.5,252.7 L 148.4,252.2 L 148.4,251.9 L 148.6,251.8 L 148.6,251.4 L 148.9,251.1 L 148.9,250.9 L 148.9,250.6 L 149.0,250.2 L 149.1,249.6 L 149.9,248.4 L 150.0,248.0 L 150.0,248.0 L 150.1,247.1 L 150.3,246.8 L 150.4,246.1 L 150.5,245.8 L 150.8,245.1 L 150.9,244.6 L 150.6,243.5 L 150.7,242.6 L 151.0,241.8 L 151.4,241.2 L 151.6,240.6 L 151.5,239.9 L 151.4,239.5 L 151.5,239.2 L 151.7,238.8 L 151.7,238.5 L 151.7,238.1 L 151.8,237.5 L 152.0,236.9 L 152.1,236.3 L 152.0,236.0 L 152.0,235.8 L 151.9,235.6 L 151.8,234.9 L 151.7,234.3 L 151.7,234.0 L 151.9,233.9 L 152.2,233.9 L 152.2,233.7 L 152.6,233.2 L 152.8,231.9 L 152.9,231.4 L 152.5,230.4 L 152.4,230.1 L 152.3,229.9 L 152.1,229.9 L 151.9,230.1 L 151.7,230.2 L 151.4,230.2 L 151.0,230.0 L 150.9,229.9 L 150.9,229.8 L 151.0,229.8 L 151.1,229.6 L 151.3,229.4 L 151.4,229.4 L 151.2,229.2 L 151.1,229.2 L 150.8,229.3 L 150.5,229.3 L 150.4,229.5 L 150.1,229.6 L 150.1,230.2 L 149.8,230.5 L 149.7,230.5 L 149.5,230.4 L 149.4,230.5 L 149.3,230.6 L 149.1,230.7 L 148.8,231.0 L 148.3,231.3 L 148.2,231.6 L 148.0,231.6 L 147.7,231.9 L 147.4,231.9 L 147.1,232.1 L 146.8,232.4 L 147.2,233.3 L 147.2,233.6 L 147.1,233.7 L 146.8,233.8 L 146.1,234.6 L 146.0,234.7 L 146.0,234.8 L 145.9,235.0 L 145.6,235.5 L 145.4,235.8 L 145.1,235.6 L 145.0,235.5 L 144.8,235.5 L 144.6,235.5 L 143.8,235.1 L 143.5,234.8 L 143.4,234.5 L 144.0,234.0 L 144.1,233.7 L 144.1,233.3 L 144.3,233.0 L 144.3,232.8 L 144.2,232.8 L 143.9,232.7 L 143.7,232.5 L 143.4,232.3 L 143.3,232.1 L 143.4,231.6 L 143.5,231.4 L 143.3,231.2 L 143.1,231.3 L 142.9,231.3 L 142.7,231.2 L 142.5,231.3 L 142.2,231.0 L 142.0,230.7 L 142.0,230.5 L 142.1,230.3 L 142.1,230.2 L 141.7,230.1 L 141.5,229.8 L 141.5,229.7 L 141.6,229.5 L 141.7,228.9 L 142.1,227.5 L 142.4,227.1 L 142.6,226.6 L 142.8,225.6 L 143.0,225.3 L 143.6,224.7 L 143.7,224.2 L 143.7,224.1 L 143.5,223.8 L 143.6,223.6 L 144.2,222.4 L 144.4,222.4 L 144.6,222.3 L 144.8,222.2 L 145.2,221.6 L 145.4,221.5 L 146.2,221.3 L 146.7,221.0 L 146.8,220.8 L 146.7,220.7 L 146.5,220.7 L 146.2,220.8 L 146.1,220.9 L 145.7,220.9 L 145.6,220.8 L 145.6,220.7 L 145.8,220.5 L 146.2,220.3 L 146.6,220.2 L 146.6,220.1 L 146.2,220.0 L 146.0,220.0 L 145.9,220.0 L 145.2,220.3 L 145.0,220.3 L 144.9,220.1 L 144.9,219.6 L 145.0,219.2 L 145.2,218.6 L 145.1,217.8 L 145.2,216.5 L 145.6,215.6 L 145.7,214.8 L 145.5,213.6 L 145.3,213.0 L 145.2,212.7 L 145.1,211.8 L 145.1,211.2 L 145.1,211.2 L 145.3,210.3 L 145.5,210.0 L 145.6,209.3 L 145.8,208.8 L 145.8,208.1 L 146.0,207.4 L 146.2,206.6 L 146.1,206.1 L 145.9,205.9 L 145.6,205.6 L 145.4,205.3 L 145.2,205.3 L 145.0,205.4 L 144.6,205.8 L 143.8,206.7 L 143.7,206.8 L 143.6,206.6 L 143.2,206.2 L 143.4,205.8 L 143.7,205.5 L 144.6,204.2 L 144.5,204.1 L 144.4,203.6 L 144.3,203.4 L 144.3,203.3 L 144.4,203.2 L 144.4,203.0 L 144.4,202.8 L 144.4,202.6 L 144.5,202.4 L 144.5,202.3 L 144.6,202.2 L 144.7,202.1 L 144.8,202.0 L 144.9,201.7 L 145.0,201.5 L 145.2,201.4 L 145.3,201.4 L 145.4,201.2 L 145.5,201.1 L 145.5,200.8 L 145.5,200.7 L 145.4,200.7 L 145.3,200.6 L 145.2,200.7 L 145.0,200.7 L 144.8,200.7 L 144.6,200.7 L 144.5,200.9 L 144.5,201.1 L 144.4,201.3 L 144.3,201.4 L 144.1,201.4 L 144.0,201.4 L 143.9,201.4 L 143.9,201.4 L 143.8,201.3 L 143.9,201.1 L 144.0,200.9 L 144.1,200.8 L 144.1,200.7 L 144.2,200.5 L 144.1,200.4 L 144.1,200.3 L 144.1,200.3 L 144.1,200.2 L 143.7,200.4 L 143.3,200.4 L 142.9,199.9 L 142.9,199.7 L 142.9,198.8 L 143.2,198.6 L 143.4,198.5" fill="none" stroke="black" stroke-width="2"/>
</svg>